{
    "header": {
        "PPQ": 480,
        "timeSignature": [
            2,
            4
        ],
        "bpm": 100,
        "name": "Kreisleriana 3"
    },
    "startTime": 0,
    "duration": 250.80000000000038,
    "tracks": [
        {
            "startTime": 0,
            "duration": 0,
            "length": 0,
            "notes": [],
            "controlChanges": {},
            "id": 0,
            "name": "Kreisleriana 3"
        },
        {
            "startTime": 0.8999999999999999,
            "duration": 250.79999999999842,
            "length": 1270,
            "notes": [
                {
                    "name": "D3",
                    "midi": 50,
                    "time": 0.8999999999999999,
                    "velocity": 0.36220472440944884,
                    "duration": 0.07499999999999996
                },
                {
                    "name": "G3",
                    "midi": 55,
                    "time": 1.1999999999999997,
                    "velocity": 0.3937007874015748,
                    "duration": 0.10000000000000009
                },
                {
                    "name": "D3",
                    "midi": 50,
                    "time": 1.2999999999999998,
                    "velocity": 0.28346456692913385,
                    "duration": 0.10000000000000009
                },
                {
                    "name": "A3",
                    "midi": 57,
                    "time": 1.4,
                    "velocity": 0.28346456692913385,
                    "duration": 0.10000000000000009
                },
                {
                    "name": "A#3",
                    "midi": 58,
                    "time": 1.5,
                    "velocity": 0.3937007874015748,
                    "duration": 0.07499999999999996
                },
                {
                    "name": "A3",
                    "midi": 57,
                    "time": 1.7999999999999998,
                    "velocity": 0.3937007874015748,
                    "duration": 0.10000000000000009
                },
                {
                    "name": "D3",
                    "midi": 50,
                    "time": 1.9,
                    "velocity": 0.28346456692913385,
                    "duration": 0.10000000000000009
                },
                {
                    "name": "A#3",
                    "midi": 58,
                    "time": 2,
                    "velocity": 0.28346456692913385,
                    "duration": 0.10000000000000009
                },
                {
                    "name": "C4",
                    "midi": 60,
                    "time": 2.1,
                    "velocity": 0.3937007874015748,
                    "duration": 0.07500000000000018
                },
                {
                    "name": "A#3",
                    "midi": 58,
                    "time": 2.4000000000000004,
                    "velocity": 0.3937007874015748,
                    "duration": 0.10000000000000009
                },
                {
                    "name": "D3",
                    "midi": 50,
                    "time": 2.5000000000000004,
                    "velocity": 0.2755905511811024,
                    "duration": 0.10000000000000009
                },
                {
                    "name": "C4",
                    "midi": 60,
                    "time": 2.6000000000000005,
                    "velocity": 0.2755905511811024,
                    "duration": 0.10000000000000009
                },
                {
                    "name": "D4",
                    "midi": 62,
                    "time": 2.7000000000000006,
                    "velocity": 0.3937007874015748,
                    "duration": 0.07500000000000018
                },
                {
                    "name": "G3",
                    "midi": 55,
                    "time": 3.000000000000001,
                    "velocity": 0.3937007874015748,
                    "duration": 0.10000000000000009
                },
                {
                    "name": "D3",
                    "midi": 50,
                    "time": 3.100000000000001,
                    "velocity": 0.28346456692913385,
                    "duration": 0.10000000000000009
                },
                {
                    "name": "A3",
                    "midi": 57,
                    "time": 3.200000000000001,
                    "velocity": 0.28346456692913385,
                    "duration": 0.10000000000000009
                },
                {
                    "name": "A#3",
                    "midi": 58,
                    "time": 3.300000000000001,
                    "velocity": 0.3937007874015748,
                    "duration": 0.07500000000000018
                },
                {
                    "name": "A3",
                    "midi": 57,
                    "time": 3.6000000000000014,
                    "velocity": 0.3937007874015748,
                    "duration": 0.10000000000000009
                },
                {
                    "name": "D#3",
                    "midi": 51,
                    "time": 3.7000000000000015,
                    "velocity": 0.2992125984251969,
                    "duration": 0.10000000000000009
                },
                {
                    "name": "A#3",
                    "midi": 58,
                    "time": 3.8000000000000016,
                    "velocity": 0.2992125984251969,
                    "duration": 0.10000000000000009
                },
                {
                    "name": "C4",
                    "midi": 60,
                    "time": 3.9000000000000017,
                    "velocity": 0.3937007874015748,
                    "duration": 0.07500000000000018
                },
                {
                    "name": "F#3",
                    "midi": 54,
                    "time": 4.200000000000002,
                    "velocity": 0.3937007874015748,
                    "duration": 0.09999999999999964
                },
                {
                    "name": "C3",
                    "midi": 48,
                    "time": 4.300000000000002,
                    "velocity": 0.31496062992125984,
                    "duration": 0.09999999999999964
                },
                {
                    "name": "G3",
                    "midi": 55,
                    "time": 4.400000000000001,
                    "velocity": 0.31496062992125984,
                    "duration": 0.09999999999999964
                },
                {
                    "name": "A3",
                    "midi": 57,
                    "time": 4.500000000000001,
                    "velocity": 0.3937007874015748,
                    "duration": 0.07500000000000018
                },
                {
                    "name": "G3",
                    "midi": 55,
                    "time": 4.800000000000001,
                    "velocity": 0.3937007874015748,
                    "duration": 0.09999999999999964
                },
                {
                    "name": "D3",
                    "midi": 50,
                    "time": 4.9,
                    "velocity": 0.31496062992125984,
                    "duration": 0.09999999999999964
                },
                {
                    "name": "A3",
                    "midi": 57,
                    "time": 5,
                    "velocity": 0.3228346456692913,
                    "duration": 0.09999999999999964
                },
                {
                    "name": "A#3",
                    "midi": 58,
                    "time": 5.1,
                    "velocity": 0.3937007874015748,
                    "duration": 0.07500000000000018
                },
                {
                    "name": "A3",
                    "midi": 57,
                    "time": 5.3999999999999995,
                    "velocity": 0.3937007874015748,
                    "duration": 0.15000000000000036
                },
                {
                    "name": "F#3",
                    "midi": 54,
                    "time": 5.625,
                    "velocity": 0.3464566929133858,
                    "duration": 0.07500000000000018
                },
                {
                    "name": "D3",
                    "midi": 50,
                    "time": 5.7,
                    "velocity": 0.4566929133858268,
                    "duration": 0.07500000000000018
                },
                {
                    "name": "G3",
                    "midi": 55,
                    "time": 6,
                    "velocity": 0.3937007874015748,
                    "duration": 0.09999999999999964
                },
                {
                    "name": "D3",
                    "midi": 50,
                    "time": 6.1,
                    "velocity": 0.2992125984251969,
                    "duration": 0.09999999999999964
                },
                {
                    "name": "A3",
                    "midi": 57,
                    "time": 6.199999999999999,
                    "velocity": 0.2992125984251969,
                    "duration": 0.09999999999999964
                },
                {
                    "name": "A#3",
                    "midi": 58,
                    "time": 6.299999999999999,
                    "velocity": 0.3937007874015748,
                    "duration": 0.07500000000000018
                },
                {
                    "name": "A3",
                    "midi": 57,
                    "time": 6.599999999999999,
                    "velocity": 0.3937007874015748,
                    "duration": 0.09999999999999964
                },
                {
                    "name": "D3",
                    "midi": 50,
                    "time": 6.699999999999998,
                    "velocity": 0.2992125984251969,
                    "duration": 0.09999999999999964
                },
                {
                    "name": "A#3",
                    "midi": 58,
                    "time": 6.799999999999998,
                    "velocity": 0.2992125984251969,
                    "duration": 0.09999999999999964
                },
                {
                    "name": "C4",
                    "midi": 60,
                    "time": 6.899999999999998,
                    "velocity": 0.3937007874015748,
                    "duration": 0.07500000000000018
                },
                {
                    "name": "A#3",
                    "midi": 58,
                    "time": 7.1999999999999975,
                    "velocity": 0.3937007874015748,
                    "duration": 0.09999999999999964
                },
                {
                    "name": "D3",
                    "midi": 50,
                    "time": 7.299999999999997,
                    "velocity": 0.29133858267716534,
                    "duration": 0.09999999999999964
                },
                {
                    "name": "C4",
                    "midi": 60,
                    "time": 7.399999999999997,
                    "velocity": 0.29133858267716534,
                    "duration": 0.09999999999999964
                },
                {
                    "name": "D4",
                    "midi": 62,
                    "time": 7.4999999999999964,
                    "velocity": 0.3937007874015748,
                    "duration": 0.07500000000000018
                },
                {
                    "name": "G3",
                    "midi": 55,
                    "time": 7.799999999999996,
                    "velocity": 0.3937007874015748,
                    "duration": 0.09999999999999964
                },
                {
                    "name": "D3",
                    "midi": 50,
                    "time": 7.899999999999996,
                    "velocity": 0.31496062992125984,
                    "duration": 0.09999999999999964
                },
                {
                    "name": "A3",
                    "midi": 57,
                    "time": 7.999999999999996,
                    "velocity": 0.31496062992125984,
                    "duration": 0.10000000000000053
                },
                {
                    "name": "A#3",
                    "midi": 58,
                    "time": 8.099999999999996,
                    "velocity": 0.3937007874015748,
                    "duration": 0.07499999999999929
                },
                {
                    "name": "A3",
                    "midi": 57,
                    "time": 8.399999999999995,
                    "velocity": 0.3937007874015748,
                    "duration": 0.09999999999999964
                },
                {
                    "name": "D#3",
                    "midi": 51,
                    "time": 8.499999999999995,
                    "velocity": 0.31496062992125984,
                    "duration": 0.09999999999999964
                },
                {
                    "name": "A#3",
                    "midi": 58,
                    "time": 8.599999999999994,
                    "velocity": 0.31496062992125984,
                    "duration": 0.09999999999999964
                },
                {
                    "name": "C4",
                    "midi": 60,
                    "time": 8.699999999999994,
                    "velocity": 0.3937007874015748,
                    "duration": 0.07499999999999929
                },
                {
                    "name": "B3",
                    "midi": 59,
                    "time": 8.999999999999993,
                    "velocity": 0.3937007874015748,
                    "duration": 0.09999999999999964
                },
                {
                    "name": "D3",
                    "midi": 50,
                    "time": 9.099999999999993,
                    "velocity": 0.30708661417322836,
                    "duration": 0.09999999999999964
                },
                {
                    "name": "C4",
                    "midi": 60,
                    "time": 9.199999999999992,
                    "velocity": 0.31496062992125984,
                    "duration": 0.09999999999999964
                },
                {
                    "name": "D4",
                    "midi": 62,
                    "time": 9.299999999999992,
                    "velocity": 0.3937007874015748,
                    "duration": 0.07499999999999929
                },
                {
                    "name": "C4",
                    "midi": 60,
                    "time": 9.59999999999999,
                    "velocity": 0.3937007874015748,
                    "duration": 0.09999999999999964
                },
                {
                    "name": "G3",
                    "midi": 55,
                    "time": 9.69999999999999,
                    "velocity": 0.3228346456692913,
                    "duration": 0.09999999999999964
                },
                {
                    "name": "D4",
                    "midi": 62,
                    "time": 9.79999999999999,
                    "velocity": 0.3228346456692913,
                    "duration": 0.09999999999999964
                },
                {
                    "name": "D#4",
                    "midi": 63,
                    "time": 9.89999999999999,
                    "velocity": 0.3937007874015748,
                    "duration": 0.07499999999999929
                },
                {
                    "name": "B3",
                    "midi": 59,
                    "time": 10.199999999999989,
                    "velocity": 0.4251968503937008,
                    "duration": 0.09999999999999964
                },
                {
                    "name": "F3",
                    "midi": 53,
                    "time": 10.299999999999988,
                    "velocity": 0.3543307086614173,
                    "duration": 0.09999999999999964
                },
                {
                    "name": "C4",
                    "midi": 60,
                    "time": 10.399999999999988,
                    "velocity": 0.3543307086614173,
                    "duration": 0.09999999999999964
                },
                {
                    "name": "D4",
                    "midi": 62,
                    "time": 10.499999999999988,
                    "velocity": 0.4409448818897638,
                    "duration": 0.07499999999999929
                },
                {
                    "name": "C4",
                    "midi": 60,
                    "time": 10.799999999999986,
                    "velocity": 0.4645669291338583,
                    "duration": 0.09999999999999964
                },
                {
                    "name": "G3",
                    "midi": 55,
                    "time": 10.899999999999986,
                    "velocity": 0.3779527559055118,
                    "duration": 0.09999999999999964
                },
                {
                    "name": "D4",
                    "midi": 62,
                    "time": 10.999999999999986,
                    "velocity": 0.3779527559055118,
                    "duration": 0.09999999999999964
                },
                {
                    "name": "D#4",
                    "midi": 63,
                    "time": 11.099999999999985,
                    "velocity": 0.4645669291338583,
                    "duration": 0.07499999999999929
                },
                {
                    "name": "D#4",
                    "midi": 63,
                    "time": 11.399999999999984,
                    "velocity": 0.49606299212598426,
                    "duration": 0.09999999999999964
                },
                {
                    "name": "G3",
                    "midi": 55,
                    "time": 11.499999999999984,
                    "velocity": 0.4015748031496063,
                    "duration": 0.09999999999999964
                },
                {
                    "name": "F4",
                    "midi": 65,
                    "time": 11.599999999999984,
                    "velocity": 0.4015748031496063,
                    "duration": 0.09999999999999964
                },
                {
                    "name": "G4",
                    "midi": 67,
                    "time": 11.699999999999983,
                    "velocity": 0.48031496062992124,
                    "duration": 0.07499999999999929
                },
                {
                    "name": "F#4",
                    "midi": 66,
                    "time": 11.999999999999982,
                    "velocity": 0.5511811023622047,
                    "duration": 0.09999999999999964
                },
                {
                    "name": "F#3",
                    "midi": 54,
                    "time": 12.099999999999982,
                    "velocity": 0.41732283464566927,
                    "duration": 0.09999999999999964
                },
                {
                    "name": "G4",
                    "midi": 67,
                    "time": 12.199999999999982,
                    "velocity": 0.4251968503937008,
                    "duration": 0.09999999999999964
                },
                {
                    "name": "A4",
                    "midi": 69,
                    "time": 12.299999999999981,
                    "velocity": 0.5196850393700787,
                    "duration": 0.07499999999999929
                },
                {
                    "name": "D4",
                    "midi": 62,
                    "time": 12.59999999999998,
                    "velocity": 0.5275590551181102,
                    "duration": 0.07499999999999929
                },
                {
                    "name": "D4",
                    "midi": 62,
                    "time": 12.899999999999979,
                    "velocity": 0.5039370078740157,
                    "duration": 0.07499999999999929
                },
                {
                    "name": "G4",
                    "midi": 67,
                    "time": 13.199999999999978,
                    "velocity": 0.5039370078740157,
                    "duration": 0.09999999999999964
                },
                {
                    "name": "D4",
                    "midi": 62,
                    "time": 13.299999999999978,
                    "velocity": 0.3779527559055118,
                    "duration": 0.09999999999999964
                },
                {
                    "name": "A4",
                    "midi": 69,
                    "time": 13.399999999999977,
                    "velocity": 0.3779527559055118,
                    "duration": 0.09999999999999964
                },
                {
                    "name": "A#4",
                    "midi": 70,
                    "time": 13.499999999999977,
                    "velocity": 0.5039370078740157,
                    "duration": 0.07499999999999929
                },
                {
                    "name": "A4",
                    "midi": 69,
                    "time": 13.799999999999976,
                    "velocity": 0.5039370078740157,
                    "duration": 0.09999999999999964
                },
                {
                    "name": "D4",
                    "midi": 62,
                    "time": 13.899999999999975,
                    "velocity": 0.3937007874015748,
                    "duration": 0.09999999999999964
                },
                {
                    "name": "A#4",
                    "midi": 70,
                    "time": 13.999999999999975,
                    "velocity": 0.3937007874015748,
                    "duration": 0.09999999999999964
                },
                {
                    "name": "C5",
                    "midi": 72,
                    "time": 14.099999999999975,
                    "velocity": 0.5039370078740157,
                    "duration": 0.07499999999999929
                },
                {
                    "name": "A#4",
                    "midi": 70,
                    "time": 14.399999999999974,
                    "velocity": 0.5039370078740157,
                    "duration": 0.09999999999999964
                },
                {
                    "name": "D4",
                    "midi": 62,
                    "time": 14.499999999999973,
                    "velocity": 0.3858267716535433,
                    "duration": 0.09999999999999964
                },
                {
                    "name": "C5",
                    "midi": 72,
                    "time": 14.599999999999973,
                    "velocity": 0.3858267716535433,
                    "duration": 0.09999999999999964
                },
                {
                    "name": "D5",
                    "midi": 74,
                    "time": 14.699999999999973,
                    "velocity": 0.5039370078740157,
                    "duration": 0.07499999999999929
                },
                {
                    "name": "G4",
                    "midi": 67,
                    "time": 14.999999999999972,
                    "velocity": 0.5039370078740157,
                    "duration": 0.09999999999999964
                },
                {
                    "name": "D4",
                    "midi": 62,
                    "time": 15.099999999999971,
                    "velocity": 0.3937007874015748,
                    "duration": 0.09999999999999964
                },
                {
                    "name": "A4",
                    "midi": 69,
                    "time": 15.19999999999997,
                    "velocity": 0.4094488188976378,
                    "duration": 0.09999999999999964
                },
                {
                    "name": "A#4",
                    "midi": 70,
                    "time": 15.29999999999997,
                    "velocity": 0.5039370078740157,
                    "duration": 0.07499999999999929
                },
                {
                    "name": "A4",
                    "midi": 69,
                    "time": 15.59999999999997,
                    "velocity": 0.5039370078740157,
                    "duration": 0.09999999999999964
                },
                {
                    "name": "D#4",
                    "midi": 63,
                    "time": 15.699999999999969,
                    "velocity": 0.4094488188976378,
                    "duration": 0.09999999999999964
                },
                {
                    "name": "A#4",
                    "midi": 70,
                    "time": 15.799999999999969,
                    "velocity": 0.4094488188976378,
                    "duration": 0.09999999999999964
                },
                {
                    "name": "C5",
                    "midi": 72,
                    "time": 15.899999999999968,
                    "velocity": 0.5039370078740157,
                    "duration": 0.07499999999999929
                },
                {
                    "name": "F#4",
                    "midi": 66,
                    "time": 16.199999999999967,
                    "velocity": 0.5039370078740157,
                    "duration": 0.10000000000000142
                },
                {
                    "name": "C4",
                    "midi": 60,
                    "time": 16.29999999999997,
                    "velocity": 0.4015748031496063,
                    "duration": 0.10000000000000142
                },
                {
                    "name": "G4",
                    "midi": 67,
                    "time": 16.39999999999997,
                    "velocity": 0.4015748031496063,
                    "duration": 0.10000000000000142
                },
                {
                    "name": "A4",
                    "midi": 69,
                    "time": 16.49999999999997,
                    "velocity": 0.5039370078740157,
                    "duration": 0.07499999999999929
                },
                {
                    "name": "G4",
                    "midi": 67,
                    "time": 16.799999999999972,
                    "velocity": 0.5039370078740157,
                    "duration": 0.10000000000000142
                },
                {
                    "name": "D4",
                    "midi": 62,
                    "time": 16.899999999999974,
                    "velocity": 0.4251968503937008,
                    "duration": 0.10000000000000142
                },
                {
                    "name": "A4",
                    "midi": 69,
                    "time": 16.999999999999975,
                    "velocity": 0.4251968503937008,
                    "duration": 0.10000000000000142
                },
                {
                    "name": "A#4",
                    "midi": 70,
                    "time": 17.099999999999977,
                    "velocity": 0.5039370078740157,
                    "duration": 0.07499999999999929
                },
                {
                    "name": "A4",
                    "midi": 69,
                    "time": 17.399999999999977,
                    "velocity": 0.5039370078740157,
                    "duration": 0.14999999999999858
                },
                {
                    "name": "F#4",
                    "midi": 66,
                    "time": 17.624999999999975,
                    "velocity": 0.4094488188976378,
                    "duration": 0.07499999999999929
                },
                {
                    "name": "D4",
                    "midi": 62,
                    "time": 17.699999999999974,
                    "velocity": 0.5590551181102362,
                    "duration": 0.07499999999999929
                },
                {
                    "name": "G4",
                    "midi": 67,
                    "time": 17.999999999999975,
                    "velocity": 0.5039370078740157,
                    "duration": 0.10000000000000142
                },
                {
                    "name": "D4",
                    "midi": 62,
                    "time": 18.099999999999977,
                    "velocity": 0.3858267716535433,
                    "duration": 0.10000000000000142
                },
                {
                    "name": "A4",
                    "midi": 69,
                    "time": 18.199999999999978,
                    "velocity": 0.3937007874015748,
                    "duration": 0.10000000000000142
                },
                {
                    "name": "A#4",
                    "midi": 70,
                    "time": 18.29999999999998,
                    "velocity": 0.5039370078740157,
                    "duration": 0.07499999999999929
                },
                {
                    "name": "A4",
                    "midi": 69,
                    "time": 18.59999999999998,
                    "velocity": 0.5039370078740157,
                    "duration": 0.10000000000000142
                },
                {
                    "name": "D4",
                    "midi": 62,
                    "time": 18.69999999999998,
                    "velocity": 0.4015748031496063,
                    "duration": 0.10000000000000142
                },
                {
                    "name": "A#4",
                    "midi": 70,
                    "time": 18.799999999999983,
                    "velocity": 0.4094488188976378,
                    "duration": 0.10000000000000142
                },
                {
                    "name": "C5",
                    "midi": 72,
                    "time": 18.899999999999984,
                    "velocity": 0.5039370078740157,
                    "duration": 0.07499999999999929
                },
                {
                    "name": "A#4",
                    "midi": 70,
                    "time": 19.199999999999985,
                    "velocity": 0.5039370078740157,
                    "duration": 0.10000000000000142
                },
                {
                    "name": "D4",
                    "midi": 62,
                    "time": 19.299999999999986,
                    "velocity": 0.4330708661417323,
                    "duration": 0.10000000000000142
                },
                {
                    "name": "C5",
                    "midi": 72,
                    "time": 19.399999999999988,
                    "velocity": 0.4330708661417323,
                    "duration": 0.10000000000000142
                },
                {
                    "name": "D5",
                    "midi": 74,
                    "time": 19.49999999999999,
                    "velocity": 0.5039370078740157,
                    "duration": 0.07499999999999929
                },
                {
                    "name": "D#5",
                    "midi": 75,
                    "time": 19.79999999999999,
                    "velocity": 0.5590551181102362,
                    "duration": 0.10000000000000142
                },
                {
                    "name": "G4",
                    "midi": 67,
                    "time": 19.89999999999999,
                    "velocity": 0.4409448818897638,
                    "duration": 0.10000000000000142
                },
                {
                    "name": "F5",
                    "midi": 77,
                    "time": 19.999999999999993,
                    "velocity": 0.4409448818897638,
                    "duration": 0.10000000000000142
                },
                {
                    "name": "G5",
                    "midi": 79,
                    "time": 20.099999999999994,
                    "velocity": 0.5039370078740157,
                    "duration": 0.07499999999999929
                },
                {
                    "name": "A4",
                    "midi": 69,
                    "time": 20.399999999999995,
                    "velocity": 0.4645669291338583,
                    "duration": 0.10000000000000142
                },
                {
                    "name": "C4",
                    "midi": 60,
                    "time": 20.499999999999996,
                    "velocity": 0.3700787401574803,
                    "duration": 0.10000000000000142
                },
                {
                    "name": "A#4",
                    "midi": 70,
                    "time": 20.599999999999998,
                    "velocity": 0.3700787401574803,
                    "duration": 0.10000000000000142
                },
                {
                    "name": "C5",
                    "midi": 72,
                    "time": 20.7,
                    "velocity": 0.4645669291338583,
                    "duration": 0.07499999999999929
                },
                {
                    "name": "D5",
                    "midi": 74,
                    "time": 21,
                    "velocity": 0.5590551181102362,
                    "duration": 0.10000000000000142
                },
                {
                    "name": "F4",
                    "midi": 65,
                    "time": 21.1,
                    "velocity": 0.4094488188976378,
                    "duration": 0.10000000000000142
                },
                {
                    "name": "D#5",
                    "midi": 75,
                    "time": 21.200000000000003,
                    "velocity": 0.4330708661417323,
                    "duration": 0.10000000000000142
                },
                {
                    "name": "F5",
                    "midi": 77,
                    "time": 21.300000000000004,
                    "velocity": 0.5118110236220472,
                    "duration": 0.07499999999999929
                },
                {
                    "name": "G4",
                    "midi": 67,
                    "time": 21.600000000000005,
                    "velocity": 0.4645669291338583,
                    "duration": 0.10000000000000142
                },
                {
                    "name": "A#3",
                    "midi": 58,
                    "time": 21.700000000000006,
                    "velocity": 0.3464566929133858,
                    "duration": 0.10000000000000142
                },
                {
                    "name": "A4",
                    "midi": 69,
                    "time": 21.800000000000008,
                    "velocity": 0.3464566929133858,
                    "duration": 0.10000000000000142
                },
                {
                    "name": "A#4",
                    "midi": 70,
                    "time": 21.90000000000001,
                    "velocity": 0.4645669291338583,
                    "duration": 0.07499999999999929
                },
                {
                    "name": "C5",
                    "midi": 72,
                    "time": 22.20000000000001,
                    "velocity": 0.5354330708661418,
                    "duration": 0.10000000000000142
                },
                {
                    "name": "D#4",
                    "midi": 63,
                    "time": 22.30000000000001,
                    "velocity": 0.4015748031496063,
                    "duration": 0.10000000000000142
                },
                {
                    "name": "D5",
                    "midi": 74,
                    "time": 22.400000000000013,
                    "velocity": 0.4015748031496063,
                    "duration": 0.10000000000000142
                },
                {
                    "name": "D#5",
                    "midi": 75,
                    "time": 22.500000000000014,
                    "velocity": 0.5196850393700787,
                    "duration": 0.07499999999999929
                },
                {
                    "name": "F#4",
                    "midi": 66,
                    "time": 22.800000000000015,
                    "velocity": 0.4645669291338583,
                    "duration": 0.10000000000000142
                },
                {
                    "name": "A3",
                    "midi": 57,
                    "time": 22.900000000000016,
                    "velocity": 0.3543307086614173,
                    "duration": 0.10000000000000142
                },
                {
                    "name": "G4",
                    "midi": 67,
                    "time": 23.000000000000018,
                    "velocity": 0.3543307086614173,
                    "duration": 0.10000000000000142
                },
                {
                    "name": "A4",
                    "midi": 69,
                    "time": 23.10000000000002,
                    "velocity": 0.4566929133858268,
                    "duration": 0.07499999999999929
                },
                {
                    "name": "C5",
                    "midi": 72,
                    "time": 23.40000000000002,
                    "velocity": 0.5196850393700787,
                    "duration": 0.10000000000000142
                },
                {
                    "name": "D#4",
                    "midi": 63,
                    "time": 23.50000000000002,
                    "velocity": 0.3937007874015748,
                    "duration": 0.10000000000000142
                },
                {
                    "name": "D5",
                    "midi": 74,
                    "time": 23.600000000000023,
                    "velocity": 0.4015748031496063,
                    "duration": 0.10000000000000142
                },
                {
                    "name": "D#5",
                    "midi": 75,
                    "time": 23.700000000000024,
                    "velocity": 0.5118110236220472,
                    "duration": 0.07499999999999929
                },
                {
                    "name": "F#4",
                    "midi": 66,
                    "time": 24.000000000000025,
                    "velocity": 0.4881889763779528,
                    "duration": 0.10000000000000142
                },
                {
                    "name": "A3",
                    "midi": 57,
                    "time": 24.100000000000026,
                    "velocity": 0.3700787401574803,
                    "duration": 0.10000000000000142
                },
                {
                    "name": "G4",
                    "midi": 67,
                    "time": 24.200000000000028,
                    "velocity": 0.4015748031496063,
                    "duration": 0.10000000000000142
                },
                {
                    "name": "A4",
                    "midi": 69,
                    "time": 24.30000000000003,
                    "velocity": 0.47244094488188976,
                    "duration": 0.07499999999999929
                },
                {
                    "name": "C5",
                    "midi": 72,
                    "time": 24.60000000000003,
                    "velocity": 0.5196850393700787,
                    "duration": 0.10000000000000142
                },
                {
                    "name": "D#4",
                    "midi": 63,
                    "time": 24.70000000000003,
                    "velocity": 0.41732283464566927,
                    "duration": 0.10000000000000142
                },
                {
                    "name": "D5",
                    "midi": 74,
                    "time": 24.800000000000033,
                    "velocity": 0.3937007874015748,
                    "duration": 0.10000000000000142
                },
                {
                    "name": "D#5",
                    "midi": 75,
                    "time": 24.900000000000034,
                    "velocity": 0.5118110236220472,
                    "duration": 0.07499999999999929
                },
                {
                    "name": "F#4",
                    "midi": 66,
                    "time": 25.200000000000035,
                    "velocity": 0.5196850393700787,
                    "duration": 0.10000000000000142
                },
                {
                    "name": "A3",
                    "midi": 57,
                    "time": 25.300000000000036,
                    "velocity": 0.4015748031496063,
                    "duration": 0.10000000000000142
                },
                {
                    "name": "G4",
                    "midi": 67,
                    "time": 25.400000000000038,
                    "velocity": 0.4015748031496063,
                    "duration": 0.10000000000000142
                },
                {
                    "name": "A4",
                    "midi": 69,
                    "time": 25.50000000000004,
                    "velocity": 0.5039370078740157,
                    "duration": 0.07499999999999929
                },
                {
                    "name": "C4",
                    "midi": 60,
                    "time": 25.80000000000004,
                    "velocity": 0.4645669291338583,
                    "duration": 0.10000000000000142
                },
                {
                    "name": "A3",
                    "midi": 57,
                    "time": 25.90000000000004,
                    "velocity": 0.3700787401574803,
                    "duration": 0.10000000000000142
                },
                {
                    "name": "D4",
                    "midi": 62,
                    "time": 26.000000000000043,
                    "velocity": 0.3543307086614173,
                    "duration": 0.10000000000000142
                },
                {
                    "name": "D#4",
                    "midi": 63,
                    "time": 26.100000000000044,
                    "velocity": 0.4409448818897638,
                    "duration": 0.07499999999999929
                },
                {
                    "name": "F#3",
                    "midi": 54,
                    "time": 26.400000000000045,
                    "velocity": 0.4251968503937008,
                    "duration": 0.10000000000000142
                },
                {
                    "name": "D3",
                    "midi": 50,
                    "time": 26.500000000000046,
                    "velocity": 0.2992125984251969,
                    "duration": 0.10000000000000142
                },
                {
                    "name": "G3",
                    "midi": 55,
                    "time": 26.600000000000048,
                    "velocity": 0.2992125984251969,
                    "duration": 0.10000000000000142
                },
                {
                    "name": "A3",
                    "midi": 57,
                    "time": 26.70000000000005,
                    "velocity": 0.4094488188976378,
                    "duration": 0.07499999999999929
                },
                {
                    "name": "D3",
                    "midi": 50,
                    "time": 27.00000000000005,
                    "velocity": 0.3937007874015748,
                    "duration": 0.07499999999999929
                },
                {
                    "name": "D3",
                    "midi": 50,
                    "time": 27.30000000000005,
                    "velocity": 0.4094488188976378,
                    "duration": 0.07499999999999929
                },
                {
                    "name": "G3",
                    "midi": 55,
                    "time": 27.60000000000005,
                    "velocity": 0.3937007874015748,
                    "duration": 0.10000000000000142
                },
                {
                    "name": "D3",
                    "midi": 50,
                    "time": 27.700000000000053,
                    "velocity": 0.29133858267716534,
                    "duration": 0.10000000000000142
                },
                {
                    "name": "A3",
                    "midi": 57,
                    "time": 27.800000000000054,
                    "velocity": 0.29133858267716534,
                    "duration": 0.10000000000000142
                },
                {
                    "name": "A#3",
                    "midi": 58,
                    "time": 27.900000000000055,
                    "velocity": 0.3937007874015748,
                    "duration": 0.07499999999999929
                },
                {
                    "name": "A3",
                    "midi": 57,
                    "time": 28.200000000000056,
                    "velocity": 0.3937007874015748,
                    "duration": 0.10000000000000142
                },
                {
                    "name": "D3",
                    "midi": 50,
                    "time": 28.300000000000058,
                    "velocity": 0.2992125984251969,
                    "duration": 0.10000000000000142
                },
                {
                    "name": "A#3",
                    "midi": 58,
                    "time": 28.40000000000006,
                    "velocity": 0.2992125984251969,
                    "duration": 0.10000000000000142
                },
                {
                    "name": "C4",
                    "midi": 60,
                    "time": 28.50000000000006,
                    "velocity": 0.3937007874015748,
                    "duration": 0.07499999999999929
                },
                {
                    "name": "A#3",
                    "midi": 58,
                    "time": 28.80000000000006,
                    "velocity": 0.3937007874015748,
                    "duration": 0.10000000000000142
                },
                {
                    "name": "D3",
                    "midi": 50,
                    "time": 28.900000000000063,
                    "velocity": 0.29133858267716534,
                    "duration": 0.10000000000000142
                },
                {
                    "name": "C4",
                    "midi": 60,
                    "time": 29.000000000000064,
                    "velocity": 0.30708661417322836,
                    "duration": 0.10000000000000142
                },
                {
                    "name": "D4",
                    "midi": 62,
                    "time": 29.100000000000065,
                    "velocity": 0.4015748031496063,
                    "duration": 0.07499999999999929
                },
                {
                    "name": "G3",
                    "midi": 55,
                    "time": 29.400000000000066,
                    "velocity": 0.4094488188976378,
                    "duration": 0.10000000000000142
                },
                {
                    "name": "D3",
                    "midi": 50,
                    "time": 29.500000000000068,
                    "velocity": 0.31496062992125984,
                    "duration": 0.10000000000000142
                },
                {
                    "name": "A3",
                    "midi": 57,
                    "time": 29.60000000000007,
                    "velocity": 0.31496062992125984,
                    "duration": 0.10000000000000142
                },
                {
                    "name": "A#3",
                    "midi": 58,
                    "time": 29.70000000000007,
                    "velocity": 0.41732283464566927,
                    "duration": 0.07499999999999929
                },
                {
                    "name": "A3",
                    "midi": 57,
                    "time": 30.00000000000007,
                    "velocity": 0.4330708661417323,
                    "duration": 0.10000000000000142
                },
                {
                    "name": "D#3",
                    "midi": 51,
                    "time": 30.100000000000072,
                    "velocity": 0.33070866141732286,
                    "duration": 0.10000000000000142
                },
                {
                    "name": "A#3",
                    "midi": 58,
                    "time": 30.200000000000074,
                    "velocity": 0.33070866141732286,
                    "duration": 0.10000000000000142
                },
                {
                    "name": "C4",
                    "midi": 60,
                    "time": 30.300000000000075,
                    "velocity": 0.4409448818897638,
                    "duration": 0.07499999999999929
                },
                {
                    "name": "B3",
                    "midi": 59,
                    "time": 30.600000000000076,
                    "velocity": 0.44881889763779526,
                    "duration": 0.10000000000000142
                },
                {
                    "name": "F3",
                    "midi": 53,
                    "time": 30.700000000000077,
                    "velocity": 0.3464566929133858,
                    "duration": 0.10000000000000142
                },
                {
                    "name": "C4",
                    "midi": 60,
                    "time": 30.80000000000008,
                    "velocity": 0.3858267716535433,
                    "duration": 0.10000000000000142
                },
                {
                    "name": "D4",
                    "midi": 62,
                    "time": 30.90000000000008,
                    "velocity": 0.4566929133858268,
                    "duration": 0.07499999999999929
                },
                {
                    "name": "C4",
                    "midi": 60,
                    "time": 31.20000000000008,
                    "velocity": 0.47244094488188976,
                    "duration": 0.10000000000000142
                },
                {
                    "name": "D#3",
                    "midi": 51,
                    "time": 31.300000000000082,
                    "velocity": 0.3779527559055118,
                    "duration": 0.10000000000000142
                },
                {
                    "name": "D4",
                    "midi": 62,
                    "time": 31.400000000000084,
                    "velocity": 0.3858267716535433,
                    "duration": 0.10000000000000142
                },
                {
                    "name": "D#4",
                    "midi": 63,
                    "time": 31.500000000000085,
                    "velocity": 0.48031496062992124,
                    "duration": 0.07499999999999929
                },
                {
                    "name": "B3",
                    "midi": 59,
                    "time": 31.800000000000086,
                    "velocity": 0.4881889763779528,
                    "duration": 0.10000000000000142
                },
                {
                    "name": "F3",
                    "midi": 53,
                    "time": 31.900000000000087,
                    "velocity": 0.41732283464566927,
                    "duration": 0.09999999999999787
                },
                {
                    "name": "C4",
                    "midi": 60,
                    "time": 32.000000000000085,
                    "velocity": 0.4251968503937008,
                    "duration": 0.10000000000000142
                },
                {
                    "name": "D4",
                    "midi": 62,
                    "time": 32.10000000000009,
                    "velocity": 0.49606299212598426,
                    "duration": 0.07500000000000284
                },
                {
                    "name": "C4",
                    "midi": 60,
                    "time": 32.40000000000009,
                    "velocity": 0.5118110236220472,
                    "duration": 0.10000000000000142
                },
                {
                    "name": "G3",
                    "midi": 55,
                    "time": 32.50000000000009,
                    "velocity": 0.4330708661417323,
                    "duration": 0.10000000000000142
                },
                {
                    "name": "D4",
                    "midi": 62,
                    "time": 32.600000000000094,
                    "velocity": 0.4409448818897638,
                    "duration": 0.10000000000000142
                },
                {
                    "name": "D#4",
                    "midi": 63,
                    "time": 32.700000000000095,
                    "velocity": 0.5196850393700787,
                    "duration": 0.14999999999999858
                },
                {
                    "name": "C4",
                    "midi": 60,
                    "time": 32.850000000000094,
                    "velocity": 0.49606299212598426,
                    "duration": 0.14999999999999858
                },
                {
                    "name": "D4",
                    "midi": 62,
                    "time": 33.00000000000009,
                    "velocity": 0.5275590551181102,
                    "duration": 0.10000000000000142
                },
                {
                    "name": "G3",
                    "midi": 55,
                    "time": 33.100000000000094,
                    "velocity": 0.4566929133858268,
                    "duration": 0.10000000000000142
                },
                {
                    "name": "D#4",
                    "midi": 63,
                    "time": 33.200000000000095,
                    "velocity": 0.4566929133858268,
                    "duration": 0.10000000000000142
                },
                {
                    "name": "F4",
                    "midi": 65,
                    "time": 33.3000000000001,
                    "velocity": 0.5354330708661418,
                    "duration": 0.07500000000000284
                },
                {
                    "name": "E4",
                    "midi": 64,
                    "time": 33.6000000000001,
                    "velocity": 0.5511811023622047,
                    "duration": 0.10000000000000142
                },
                {
                    "name": "G3",
                    "midi": 55,
                    "time": 33.7000000000001,
                    "velocity": 0.47244094488188976,
                    "duration": 0.10000000000000142
                },
                {
                    "name": "F#4",
                    "midi": 66,
                    "time": 33.800000000000104,
                    "velocity": 0.47244094488188976,
                    "duration": 0.10000000000000142
                },
                {
                    "name": "G4",
                    "midi": 67,
                    "time": 33.900000000000105,
                    "velocity": 0.5511811023622047,
                    "duration": 0.14999999999999858
                },
                {
                    "name": "G4",
                    "midi": 67,
                    "time": 34.2000000000001,
                    "velocity": 0.5905511811023622,
                    "duration": 0.10000000000000142
                },
                {
                    "name": "A#3",
                    "midi": 58,
                    "time": 34.300000000000104,
                    "velocity": 0.5118110236220472,
                    "duration": 0.10000000000000142
                },
                {
                    "name": "A4",
                    "midi": 69,
                    "time": 34.400000000000105,
                    "velocity": 0.5039370078740157,
                    "duration": 0.10000000000000142
                },
                {
                    "name": "A#4",
                    "midi": 70,
                    "time": 34.50000000000011,
                    "velocity": 0.5905511811023622,
                    "duration": 0.14999999999999858
                },
                {
                    "name": "D4",
                    "midi": 62,
                    "time": 34.800000000000104,
                    "velocity": 0.5748031496062992,
                    "duration": 0.6000000000000014
                },
                {
                    "name": "D5",
                    "midi": 74,
                    "time": 34.800000000000104,
                    "velocity": 0.6771653543307087,
                    "duration": 0.6000000000000014
                },
                {
                    "name": "D4",
                    "midi": 62,
                    "time": 35.400000000000105,
                    "velocity": 0.5196850393700787,
                    "duration": 0.6000000000000014
                },
                {
                    "name": "F#4",
                    "midi": 66,
                    "time": 35.400000000000105,
                    "velocity": 0.6141732283464567,
                    "duration": 0.6000000000000014
                },
                {
                    "name": "A3",
                    "midi": 57,
                    "time": 35.400000000000105,
                    "velocity": 0.5196850393700787,
                    "duration": 0.6000000000000014
                },
                {
                    "name": "E4",
                    "midi": 64,
                    "time": 36.00000000000011,
                    "velocity": 0.5511811023622047,
                    "duration": 0.10000000000000142
                },
                {
                    "name": "G3",
                    "midi": 55,
                    "time": 36.10000000000011,
                    "velocity": 0.47244094488188976,
                    "duration": 0.10000000000000142
                },
                {
                    "name": "F#4",
                    "midi": 66,
                    "time": 36.20000000000011,
                    "velocity": 0.47244094488188976,
                    "duration": 0.10000000000000142
                },
                {
                    "name": "G4",
                    "midi": 67,
                    "time": 36.30000000000011,
                    "velocity": 0.5511811023622047,
                    "duration": 0.14999999999999858
                },
                {
                    "name": "G4",
                    "midi": 67,
                    "time": 36.60000000000011,
                    "velocity": 0.5826771653543307,
                    "duration": 0.10000000000000142
                },
                {
                    "name": "A#3",
                    "midi": 58,
                    "time": 36.70000000000011,
                    "velocity": 0.5275590551181102,
                    "duration": 0.10000000000000142
                },
                {
                    "name": "A4",
                    "midi": 69,
                    "time": 36.80000000000011,
                    "velocity": 0.5511811023622047,
                    "duration": 0.10000000000000142
                },
                {
                    "name": "A#4",
                    "midi": 70,
                    "time": 36.90000000000011,
                    "velocity": 0.6456692913385826,
                    "duration": 0.14999999999999858
                },
                {
                    "name": "D5",
                    "midi": 74,
                    "time": 37.20000000000011,
                    "velocity": 0.6299212598425197,
                    "duration": 0.6000000000000014
                },
                {
                    "name": "A#4",
                    "midi": 70,
                    "time": 37.20000000000011,
                    "velocity": 0.6299212598425197,
                    "duration": 0.6000000000000014
                },
                {
                    "name": "G5",
                    "midi": 79,
                    "time": 37.20000000000011,
                    "velocity": 0.7401574803149606,
                    "duration": 0.6000000000000014
                },
                {
                    "name": "F#4",
                    "midi": 66,
                    "time": 37.80000000000011,
                    "velocity": 0.5669291338582677,
                    "duration": 0.6000000000000014
                },
                {
                    "name": "D5",
                    "midi": 74,
                    "time": 37.80000000000011,
                    "velocity": 0.6692913385826772,
                    "duration": 0.6000000000000014
                },
                {
                    "name": "A4",
                    "midi": 69,
                    "time": 37.80000000000011,
                    "velocity": 0.5669291338582677,
                    "duration": 0.6000000000000014
                },
                {
                    "name": "D4",
                    "midi": 62,
                    "time": 38.40000000000011,
                    "velocity": 0.5669291338582677,
                    "duration": 0.6000000000000014
                },
                {
                    "name": "G4",
                    "midi": 67,
                    "time": 38.40000000000011,
                    "velocity": 0.6692913385826772,
                    "duration": 0.6000000000000014
                },
                {
                    "name": "A#3",
                    "midi": 58,
                    "time": 38.40000000000011,
                    "velocity": 0.5669291338582677,
                    "duration": 0.6000000000000014
                },
                {
                    "name": "F3",
                    "midi": 53,
                    "time": 39.59625000000011,
                    "velocity": 0.33858267716535434,
                    "duration": 0.29999999999999716
                },
                {
                    "name": "G3",
                    "midi": 55,
                    "time": 39.89500000000011,
                    "velocity": 0.33858267716535434,
                    "duration": 0.29999999999999716
                },
                {
                    "name": "A3",
                    "midi": 57,
                    "time": 40.206250000000104,
                    "velocity": 0.33858267716535434,
                    "duration": 0.30000000000000426
                },
                {
                    "name": "A#3",
                    "midi": 58,
                    "time": 40.501250000000105,
                    "velocity": 0.33858267716535434,
                    "duration": 0.30000000000000426
                },
                {
                    "name": "C4",
                    "midi": 60,
                    "time": 40.805000000000106,
                    "velocity": 0.33858267716535434,
                    "duration": 0.30000000000000426
                },
                {
                    "name": "D4",
                    "midi": 62,
                    "time": 41.09875000000011,
                    "velocity": 0.36220472440944884,
                    "duration": 0.30000000000000426
                },
                {
                    "name": "D#4",
                    "midi": 63,
                    "time": 41.40250000000011,
                    "velocity": 0.3858267716535433,
                    "duration": 0.30000000000000426
                },
                {
                    "name": "F4",
                    "midi": 65,
                    "time": 41.69750000000011,
                    "velocity": 0.4409448818897638,
                    "duration": 0.30000000000000426
                },
                {
                    "name": "G4",
                    "midi": 67,
                    "time": 42.02500000000012,
                    "velocity": 0.5433070866141733,
                    "duration": 1.1624999999999943
                },
                {
                    "name": "F4",
                    "midi": 65,
                    "time": 42.30000000000012,
                    "velocity": 0.4645669291338583,
                    "duration": 0.29999999999999716
                },
                {
                    "name": "D#4",
                    "midi": 63,
                    "time": 42.600000000000115,
                    "velocity": 0.4409448818897638,
                    "duration": 0.29999999999999716
                },
                {
                    "name": "D4",
                    "midi": 62,
                    "time": 42.90000000000011,
                    "velocity": 0.3937007874015748,
                    "duration": 0.30000000000000426
                },
                {
                    "name": "G4",
                    "midi": 67,
                    "time": 43.20000000000012,
                    "velocity": 0.4645669291338583,
                    "duration": 0.6000000000000014
                },
                {
                    "name": "A4",
                    "midi": 69,
                    "time": 43.802500000000116,
                    "velocity": 0.4330708661417323,
                    "duration": 0.29999999999999716
                },
                {
                    "name": "B4",
                    "midi": 71,
                    "time": 44.098750000000116,
                    "velocity": 0.4645669291338583,
                    "duration": 0.29999999999999005
                },
                {
                    "name": "D#4",
                    "midi": 63,
                    "time": 44.32500000000011,
                    "velocity": 0.47244094488188976,
                    "duration": 1.5749999999999957
                },
                {
                    "name": "D#5",
                    "midi": 75,
                    "time": 44.425000000000104,
                    "velocity": 0.5433070866141733,
                    "duration": 1.4750000000000014
                },
                {
                    "name": "D5",
                    "midi": 74,
                    "time": 45.900000000000105,
                    "velocity": 0.4015748031496063,
                    "duration": 0.4200000000000017
                },
                {
                    "name": "C5",
                    "midi": 72,
                    "time": 46.32000000000011,
                    "velocity": 0.4330708661417323,
                    "duration": 0.11999999999999744
                },
                {
                    "name": "A#4",
                    "midi": 70,
                    "time": 46.440000000000104,
                    "velocity": 0.41732283464566927,
                    "duration": 0.11999999999999744
                },
                {
                    "name": "A4",
                    "midi": 69,
                    "time": 46.5600000000001,
                    "velocity": 0.4015748031496063,
                    "duration": 0.11999999999999744
                },
                {
                    "name": "G4",
                    "midi": 67,
                    "time": 46.6800000000001,
                    "velocity": 0.3937007874015748,
                    "duration": 0.11999999999999744
                },
                {
                    "name": "D#4",
                    "midi": 63,
                    "time": 46.808750000000096,
                    "velocity": 0.4645669291338583,
                    "duration": 0.29999999999999716
                },
                {
                    "name": "F4",
                    "midi": 65,
                    "time": 46.81250000000009,
                    "velocity": 0.4645669291338583,
                    "duration": 1.9074999999999989
                },
                {
                    "name": "D4",
                    "midi": 62,
                    "time": 47.10250000000009,
                    "velocity": 0.41732283464566927,
                    "duration": 0.30000000000000426
                },
                {
                    "name": "C4",
                    "midi": 60,
                    "time": 47.402500000000096,
                    "velocity": 0.3858267716535433,
                    "duration": 0.29999999999999716
                },
                {
                    "name": "A#3",
                    "midi": 58,
                    "time": 47.691250000000096,
                    "velocity": 0.3779527559055118,
                    "duration": 0.29999999999999716
                },
                {
                    "name": "G4",
                    "midi": 67,
                    "time": 48.72000000000009,
                    "velocity": 0.33070866141732286,
                    "duration": 0.11999999999999744
                },
                {
                    "name": "A4",
                    "midi": 69,
                    "time": 48.84000000000009,
                    "velocity": 0.36220472440944884,
                    "duration": 0.11999999999999744
                },
                {
                    "name": "A#4",
                    "midi": 70,
                    "time": 48.960000000000086,
                    "velocity": 0.3937007874015748,
                    "duration": 0.11999999999999744
                },
                {
                    "name": "C5",
                    "midi": 72,
                    "time": 49.080000000000084,
                    "velocity": 0.4251968503937008,
                    "duration": 0.11999999999999744
                },
                {
                    "name": "D5",
                    "midi": 74,
                    "time": 49.22500000000008,
                    "velocity": 0.49606299212598426,
                    "duration": 0.2749999999999986
                },
                {
                    "name": "D4",
                    "midi": 62,
                    "time": 49.35000000000008,
                    "velocity": 0.25196850393700787,
                    "duration": 0.14999999999999858
                },
                {
                    "name": "C5",
                    "midi": 72,
                    "time": 49.50000000000008,
                    "velocity": 0.4409448818897638,
                    "duration": 0.29999999999999716
                },
                {
                    "name": "A#4",
                    "midi": 70,
                    "time": 49.800000000000075,
                    "velocity": 0.49606299212598426,
                    "duration": 0.29999999999999716
                },
                {
                    "name": "G5",
                    "midi": 79,
                    "time": 49.80625000000008,
                    "velocity": 0.5118110236220472,
                    "duration": 0.8999999999999915
                },
                {
                    "name": "A#3",
                    "midi": 58,
                    "time": 49.950000000000074,
                    "velocity": 0.25196850393700787,
                    "duration": 0.14999999999999858
                },
                {
                    "name": "A4",
                    "midi": 69,
                    "time": 50.10000000000007,
                    "velocity": 0.4251968503937008,
                    "duration": 0.29999999999999716
                },
                {
                    "name": "G4",
                    "midi": 67,
                    "time": 50.40000000000007,
                    "velocity": 0.3779527559055118,
                    "duration": 0.29999999999999716
                },
                {
                    "name": "A#3",
                    "midi": 58,
                    "time": 50.55000000000007,
                    "velocity": 0.29133858267716534,
                    "duration": 1.0500000000000043
                },
                {
                    "name": "F4",
                    "midi": 65,
                    "time": 50.70000000000007,
                    "velocity": 0.3464566929133858,
                    "duration": 0.30000000000000426
                },
                {
                    "name": "F5",
                    "midi": 77,
                    "time": 50.70000000000007,
                    "velocity": 0.4094488188976378,
                    "duration": 0.30000000000000426
                },
                {
                    "name": "E4",
                    "midi": 64,
                    "time": 51.00000000000007,
                    "velocity": 0.3700787401574803,
                    "duration": 0.30000000000000426
                },
                {
                    "name": "E5",
                    "midi": 76,
                    "time": 51.00000000000007,
                    "velocity": 0.4409448818897638,
                    "duration": 0.14999999999999858
                },
                {
                    "name": "F5",
                    "midi": 77,
                    "time": 51.15000000000007,
                    "velocity": 0.3464566929133858,
                    "duration": 0.07500000000000284
                },
                {
                    "name": "E5",
                    "midi": 76,
                    "time": 51.22500000000007,
                    "velocity": 0.2755905511811024,
                    "duration": 0.07500000000000284
                },
                {
                    "name": "D4",
                    "midi": 62,
                    "time": 51.300000000000075,
                    "velocity": 0.3543307086614173,
                    "duration": 0.14999999999999858
                },
                {
                    "name": "D5",
                    "midi": 74,
                    "time": 51.30250000000007,
                    "velocity": 0.41732283464566927,
                    "duration": 0.14999999999999858
                },
                {
                    "name": "C5",
                    "midi": 72,
                    "time": 51.45125000000007,
                    "velocity": 0.3779527559055118,
                    "duration": 0.146250000000002
                },
                {
                    "name": "C4",
                    "midi": 60,
                    "time": 51.45250000000007,
                    "velocity": 0.31496062992125984,
                    "duration": 0.14999999999999858
                },
                {
                    "name": "C5",
                    "midi": 72,
                    "time": 51.60000000000007,
                    "velocity": 0.41732283464566927,
                    "duration": 0.29999999999999716
                },
                {
                    "name": "C4",
                    "midi": 60,
                    "time": 51.75000000000007,
                    "velocity": 0.25196850393700787,
                    "duration": 0.14999999999999858
                },
                {
                    "name": "A#4",
                    "midi": 70,
                    "time": 51.90000000000007,
                    "velocity": 0.41732283464566927,
                    "duration": 0.29999999999999716
                },
                {
                    "name": "A4",
                    "midi": 69,
                    "time": 52.20000000000007,
                    "velocity": 0.3858267716535433,
                    "duration": 0.29999999999999716
                },
                {
                    "name": "F5",
                    "midi": 77,
                    "time": 52.20625000000007,
                    "velocity": 0.4566929133858268,
                    "duration": 0.8999999999999915
                },
                {
                    "name": "A3",
                    "midi": 57,
                    "time": 52.350000000000065,
                    "velocity": 0.25196850393700787,
                    "duration": 0.14999999999999858
                },
                {
                    "name": "G4",
                    "midi": 67,
                    "time": 52.500000000000064,
                    "velocity": 0.4251968503937008,
                    "duration": 0.29999999999999716
                },
                {
                    "name": "F4",
                    "midi": 65,
                    "time": 52.80000000000006,
                    "velocity": 0.3779527559055118,
                    "duration": 0.29999999999999716
                },
                {
                    "name": "A3",
                    "midi": 57,
                    "time": 52.95000000000006,
                    "velocity": 0.29133858267716534,
                    "duration": 1.0499999999999972
                },
                {
                    "name": "E5",
                    "midi": 76,
                    "time": 53.10000000000006,
                    "velocity": 0.4094488188976378,
                    "duration": 0.30000000000000426
                },
                {
                    "name": "E4",
                    "midi": 64,
                    "time": 53.10000000000006,
                    "velocity": 0.3464566929133858,
                    "duration": 0.30000000000000426
                },
                {
                    "name": "D4",
                    "midi": 62,
                    "time": 53.40000000000006,
                    "velocity": 0.3700787401574803,
                    "duration": 0.29999999999999716
                },
                {
                    "name": "D5",
                    "midi": 74,
                    "time": 53.40000000000006,
                    "velocity": 0.4409448818897638,
                    "duration": 0.14999999999999858
                },
                {
                    "name": "E5",
                    "midi": 76,
                    "time": 53.55000000000006,
                    "velocity": 0.33858267716535434,
                    "duration": 0.03750000000000142
                },
                {
                    "name": "D5",
                    "midi": 74,
                    "time": 53.58750000000006,
                    "velocity": 0.3464566929133858,
                    "duration": 0.03750000000000142
                },
                {
                    "name": "C#5",
                    "midi": 73,
                    "time": 53.625000000000064,
                    "velocity": 0.3543307086614173,
                    "duration": 0.03750000000000142
                },
                {
                    "name": "D5",
                    "midi": 74,
                    "time": 53.662500000000065,
                    "velocity": 0.36220472440944884,
                    "duration": 0.037499999999994316
                },
                {
                    "name": "E5",
                    "midi": 76,
                    "time": 53.69750000000006,
                    "velocity": 0.4251968503937008,
                    "duration": 0.14999999999999858
                },
                {
                    "name": "E4",
                    "midi": 64,
                    "time": 53.70250000000006,
                    "velocity": 0.3543307086614173,
                    "duration": 0.14999999999999858
                },
                {
                    "name": "F4",
                    "midi": 65,
                    "time": 53.85125000000006,
                    "velocity": 0.36220472440944884,
                    "duration": 0.14999999999999858
                },
                {
                    "name": "F5",
                    "midi": 77,
                    "time": 53.852500000000056,
                    "velocity": 0.4330708661417323,
                    "duration": 0.14500000000000313
                },
                {
                    "name": "F5",
                    "midi": 77,
                    "time": 54.00000000000006,
                    "velocity": 0.48031496062992124,
                    "duration": 0.29999999999999716
                },
                {
                    "name": "F4",
                    "midi": 65,
                    "time": 54.150000000000055,
                    "velocity": 0.29133858267716534,
                    "duration": 0.14999999999999858
                },
                {
                    "name": "E5",
                    "midi": 76,
                    "time": 54.300000000000054,
                    "velocity": 0.41732283464566927,
                    "duration": 0.29999999999999716
                },
                {
                    "name": "D5",
                    "midi": 74,
                    "time": 54.60000000000005,
                    "velocity": 0.4566929133858268,
                    "duration": 0.44999999999999574
                },
                {
                    "name": "F4",
                    "midi": 65,
                    "time": 54.75000000000005,
                    "velocity": 0.23622047244094488,
                    "duration": 0.14999999999999858
                },
                {
                    "name": "C5",
                    "midi": 72,
                    "time": 55.05000000000005,
                    "velocity": 0.4094488188976378,
                    "duration": 0.14999999999999858
                },
                {
                    "name": "C5",
                    "midi": 72,
                    "time": 55.200000000000045,
                    "velocity": 0.4566929133858268,
                    "duration": 0.29999999999999716
                },
                {
                    "name": "C4",
                    "midi": 60,
                    "time": 55.350000000000044,
                    "velocity": 0.29133858267716534,
                    "duration": 0.14999999999999858
                },
                {
                    "name": "A#4",
                    "midi": 70,
                    "time": 55.50000000000004,
                    "velocity": 0.41732283464566927,
                    "duration": 0.29999999999999716
                },
                {
                    "name": "A4",
                    "midi": 69,
                    "time": 55.80000000000004,
                    "velocity": 0.4566929133858268,
                    "duration": 0.44999999999999574
                },
                {
                    "name": "C4",
                    "midi": 60,
                    "time": 55.95000000000004,
                    "velocity": 0.2440944881889764,
                    "duration": 0.14999999999999858
                },
                {
                    "name": "G4",
                    "midi": 67,
                    "time": 56.250000000000036,
                    "velocity": 0.4094488188976378,
                    "duration": 0.14999999999999858
                },
                {
                    "name": "G4",
                    "midi": 67,
                    "time": 56.400000000000034,
                    "velocity": 0.33858267716535434,
                    "duration": 1.2000000000000028
                },
                {
                    "name": "A#3",
                    "midi": 58,
                    "time": 56.55000000000003,
                    "velocity": 0.29133858267716534,
                    "duration": 0.6000000000000014
                },
                {
                    "name": "A#3",
                    "midi": 58,
                    "time": 57.150000000000034,
                    "velocity": 0.29133858267716534,
                    "duration": 0.45000000000000284
                },
                {
                    "name": "F4",
                    "midi": 65,
                    "time": 57.60000000000004,
                    "velocity": 0.33858267716535434,
                    "duration": 0.29999999999999716
                },
                {
                    "name": "A3",
                    "midi": 57,
                    "time": 57.750000000000036,
                    "velocity": 0.2440944881889764,
                    "duration": 0.44999999999999574
                },
                {
                    "name": "D#4",
                    "midi": 63,
                    "time": 57.900000000000034,
                    "velocity": 0.33858267716535434,
                    "duration": 0.29999999999999716
                },
                {
                    "name": "D4",
                    "midi": 62,
                    "time": 58.20000000000003,
                    "velocity": 0.3700787401574803,
                    "duration": 0.29999999999999716
                },
                {
                    "name": "C#4",
                    "midi": 61,
                    "time": 58.50000000000003,
                    "velocity": 0.31496062992125984,
                    "duration": 0.6000000000000014
                },
                {
                    "name": "D4",
                    "midi": 62,
                    "time": 59.10000000000003,
                    "velocity": 0.33858267716535434,
                    "duration": 0.29999999999999716
                },
                {
                    "name": "C4",
                    "midi": 60,
                    "time": 59.99875000000003,
                    "velocity": 0.33858267716535434,
                    "duration": 0.29999999999999716
                },
                {
                    "name": "D4",
                    "midi": 62,
                    "time": 60.29500000000003,
                    "velocity": 0.36220472440944884,
                    "duration": 0.29999999999999716
                },
                {
                    "name": "D#4",
                    "midi": 63,
                    "time": 60.60875000000003,
                    "velocity": 0.3858267716535433,
                    "duration": 0.29999999999999716
                },
                {
                    "name": "F4",
                    "midi": 65,
                    "time": 60.90625000000003,
                    "velocity": 0.4409448818897638,
                    "duration": 0.29999999999999716
                },
                {
                    "name": "G4",
                    "midi": 67,
                    "time": 61.231250000000024,
                    "velocity": 0.5275590551181102,
                    "duration": 1.1674999999999898
                },
                {
                    "name": "F4",
                    "midi": 65,
                    "time": 61.50000000000002,
                    "velocity": 0.4645669291338583,
                    "duration": 0.29999999999999716
                },
                {
                    "name": "D#4",
                    "midi": 63,
                    "time": 61.80000000000002,
                    "velocity": 0.4409448818897638,
                    "duration": 0.29999999999999716
                },
                {
                    "name": "D4",
                    "midi": 62,
                    "time": 62.100000000000016,
                    "velocity": 0.3937007874015748,
                    "duration": 0.29999999999999716
                },
                {
                    "name": "G4",
                    "midi": 67,
                    "time": 62.40000000000001,
                    "velocity": 0.4645669291338583,
                    "duration": 0.6000000000000014
                },
                {
                    "name": "A4",
                    "midi": 69,
                    "time": 63.006250000000016,
                    "velocity": 0.4330708661417323,
                    "duration": 0.29999999999999716
                },
                {
                    "name": "B4",
                    "midi": 71,
                    "time": 63.303750000000015,
                    "velocity": 0.4645669291338583,
                    "duration": 0.29999999999999716
                },
                {
                    "name": "D#4",
                    "midi": 63,
                    "time": 63.52500000000001,
                    "velocity": 0.47244094488188976,
                    "duration": 1.5749999999999957
                },
                {
                    "name": "D#5",
                    "midi": 75,
                    "time": 63.60625000000001,
                    "velocity": 0.5433070866141733,
                    "duration": 1.4937499999999986
                },
                {
                    "name": "D5",
                    "midi": 74,
                    "time": 65.10000000000001,
                    "velocity": 0.4015748031496063,
                    "duration": 0.4200000000000017
                },
                {
                    "name": "C5",
                    "midi": 72,
                    "time": 65.52000000000001,
                    "velocity": 0.4330708661417323,
                    "duration": 0.12000000000000455
                },
                {
                    "name": "A#4",
                    "midi": 70,
                    "time": 65.64000000000001,
                    "velocity": 0.41732283464566927,
                    "duration": 0.12000000000000455
                },
                {
                    "name": "A4",
                    "midi": 69,
                    "time": 65.76000000000002,
                    "velocity": 0.4015748031496063,
                    "duration": 0.12000000000000455
                },
                {
                    "name": "G4",
                    "midi": 67,
                    "time": 65.88000000000002,
                    "velocity": 0.3937007874015748,
                    "duration": 0.12000000000000455
                },
                {
                    "name": "D#4",
                    "midi": 63,
                    "time": 65.99125000000002,
                    "velocity": 0.4645669291338583,
                    "duration": 0.30000000000001137
                },
                {
                    "name": "F4",
                    "midi": 65,
                    "time": 66.01250000000003,
                    "velocity": 0.4645669291338583,
                    "duration": 1.9074999999999989
                },
                {
                    "name": "D4",
                    "midi": 62,
                    "time": 66.29625000000003,
                    "velocity": 0.41732283464566927,
                    "duration": 0.29999999999999716
                },
                {
                    "name": "C4",
                    "midi": 60,
                    "time": 66.60625000000003,
                    "velocity": 0.3858267716535433,
                    "duration": 0.29999999999999716
                },
                {
                    "name": "A#3",
                    "midi": 58,
                    "time": 66.89250000000003,
                    "velocity": 0.3779527559055118,
                    "duration": 0.29999999999999716
                },
                {
                    "name": "G4",
                    "midi": 67,
                    "time": 67.92000000000003,
                    "velocity": 0.33070866141732286,
                    "duration": 0.12000000000000455
                },
                {
                    "name": "A4",
                    "midi": 69,
                    "time": 68.04000000000003,
                    "velocity": 0.36220472440944884,
                    "duration": 0.12000000000000455
                },
                {
                    "name": "A#4",
                    "midi": 70,
                    "time": 68.16000000000004,
                    "velocity": 0.3937007874015748,
                    "duration": 0.12000000000000455
                },
                {
                    "name": "C5",
                    "midi": 72,
                    "time": 68.28000000000004,
                    "velocity": 0.4251968503937008,
                    "duration": 0.12000000000000455
                },
                {
                    "name": "D5",
                    "midi": 74,
                    "time": 68.42500000000005,
                    "velocity": 0.49606299212598426,
                    "duration": 0.2750000000000057
                },
                {
                    "name": "D4",
                    "midi": 62,
                    "time": 68.55000000000005,
                    "velocity": 0.25196850393700787,
                    "duration": 0.15000000000000568
                },
                {
                    "name": "C5",
                    "midi": 72,
                    "time": 68.70000000000006,
                    "velocity": 0.4409448818897638,
                    "duration": 0.29999999999999716
                },
                {
                    "name": "A#4",
                    "midi": 70,
                    "time": 69.00000000000006,
                    "velocity": 0.49606299212598426,
                    "duration": 0.29999999999999716
                },
                {
                    "name": "G5",
                    "midi": 79,
                    "time": 69.00625000000005,
                    "velocity": 0.49606299212598426,
                    "duration": 0.8950000000000102
                },
                {
                    "name": "A#3",
                    "midi": 58,
                    "time": 69.15000000000005,
                    "velocity": 0.25196850393700787,
                    "duration": 0.15000000000000568
                },
                {
                    "name": "A4",
                    "midi": 69,
                    "time": 69.30000000000005,
                    "velocity": 0.4251968503937008,
                    "duration": 0.29999999999999716
                },
                {
                    "name": "G4",
                    "midi": 67,
                    "time": 69.60000000000005,
                    "velocity": 0.3779527559055118,
                    "duration": 0.30000000000001137
                },
                {
                    "name": "A#3",
                    "midi": 58,
                    "time": 69.75000000000006,
                    "velocity": 0.29133858267716534,
                    "duration": 1.0499999999999687
                },
                {
                    "name": "F4",
                    "midi": 65,
                    "time": 69.90000000000006,
                    "velocity": 0.3464566929133858,
                    "duration": 0.29999999999999716
                },
                {
                    "name": "F5",
                    "midi": 77,
                    "time": 69.90500000000006,
                    "velocity": 0.4094488188976378,
                    "duration": 0.29999999999999716
                },
                {
                    "name": "E4",
                    "midi": 64,
                    "time": 70.20000000000006,
                    "velocity": 0.3700787401574803,
                    "duration": 0.29999999999998295
                },
                {
                    "name": "E5",
                    "midi": 76,
                    "time": 70.20000000000006,
                    "velocity": 0.4409448818897638,
                    "duration": 0.14999999999999147
                },
                {
                    "name": "F5",
                    "midi": 77,
                    "time": 70.35000000000005,
                    "velocity": 0.30708661417322836,
                    "duration": 0.07500000000000284
                },
                {
                    "name": "E5",
                    "midi": 76,
                    "time": 70.42500000000005,
                    "velocity": 0.28346456692913385,
                    "duration": 0.07499999999998863
                },
                {
                    "name": "D5",
                    "midi": 74,
                    "time": 70.49500000000005,
                    "velocity": 0.41732283464566927,
                    "duration": 0.14999999999999147
                },
                {
                    "name": "D4",
                    "midi": 62,
                    "time": 70.50125000000004,
                    "velocity": 0.3543307086614173,
                    "duration": 0.14999999999999147
                },
                {
                    "name": "C4",
                    "midi": 60,
                    "time": 70.65125000000003,
                    "velocity": 0.31496062992125984,
                    "duration": 0.14999999999999147
                },
                {
                    "name": "C5",
                    "midi": 72,
                    "time": 70.65875000000003,
                    "velocity": 0.3779527559055118,
                    "duration": 0.14000000000000057
                },
                {
                    "name": "C5",
                    "midi": 72,
                    "time": 70.80000000000003,
                    "velocity": 0.41732283464566927,
                    "duration": 0.30000000000001137
                },
                {
                    "name": "C4",
                    "midi": 60,
                    "time": 70.95000000000003,
                    "velocity": 0.25196850393700787,
                    "duration": 0.15000000000000568
                },
                {
                    "name": "A#4",
                    "midi": 70,
                    "time": 71.10000000000004,
                    "velocity": 0.41732283464566927,
                    "duration": 0.29999999999999716
                },
                {
                    "name": "A4",
                    "midi": 69,
                    "time": 71.40000000000003,
                    "velocity": 0.3858267716535433,
                    "duration": 0.29999999999999716
                },
                {
                    "name": "F5",
                    "midi": 77,
                    "time": 71.40500000000003,
                    "velocity": 0.4566929133858268,
                    "duration": 0.8950000000000102
                },
                {
                    "name": "A3",
                    "midi": 57,
                    "time": 71.55000000000003,
                    "velocity": 0.25196850393700787,
                    "duration": 0.15000000000000568
                },
                {
                    "name": "G4",
                    "midi": 67,
                    "time": 71.70000000000003,
                    "velocity": 0.4251968503937008,
                    "duration": 0.29999999999999716
                },
                {
                    "name": "F4",
                    "midi": 65,
                    "time": 72.00000000000003,
                    "velocity": 0.3779527559055118,
                    "duration": 0.30000000000001137
                },
                {
                    "name": "A3",
                    "midi": 57,
                    "time": 72.15000000000003,
                    "velocity": 0.29133858267716534,
                    "duration": 1.0499999999999687
                },
                {
                    "name": "E4",
                    "midi": 64,
                    "time": 72.30000000000004,
                    "velocity": 0.3464566929133858,
                    "duration": 0.29999999999999716
                },
                {
                    "name": "E5",
                    "midi": 76,
                    "time": 72.30000000000004,
                    "velocity": 0.4094488188976378,
                    "duration": 0.29999999999999716
                },
                {
                    "name": "D5",
                    "midi": 74,
                    "time": 72.60000000000004,
                    "velocity": 0.4409448818897638,
                    "duration": 0.15000000000000568
                },
                {
                    "name": "D4",
                    "midi": 62,
                    "time": 72.60000000000004,
                    "velocity": 0.3700787401574803,
                    "duration": 0.29999999999998295
                },
                {
                    "name": "E5",
                    "midi": 76,
                    "time": 72.75000000000004,
                    "velocity": 0.33858267716535434,
                    "duration": 0.037499999999994316
                },
                {
                    "name": "D5",
                    "midi": 74,
                    "time": 72.78750000000004,
                    "velocity": 0.3464566929133858,
                    "duration": 0.037499999999994316
                },
                {
                    "name": "C#5",
                    "midi": 73,
                    "time": 72.82500000000003,
                    "velocity": 0.3543307086614173,
                    "duration": 0.037499999999994316
                },
                {
                    "name": "D5",
                    "midi": 74,
                    "time": 72.86250000000003,
                    "velocity": 0.36220472440944884,
                    "duration": 0.037499999999994316
                },
                {
                    "name": "E5",
                    "midi": 76,
                    "time": 72.89375000000003,
                    "velocity": 0.4251968503937008,
                    "duration": 0.14999999999999147
                },
                {
                    "name": "E4",
                    "midi": 64,
                    "time": 72.90125000000002,
                    "velocity": 0.3543307086614173,
                    "duration": 0.14999999999999147
                },
                {
                    "name": "F5",
                    "midi": 77,
                    "time": 73.04875000000001,
                    "velocity": 0.4330708661417323,
                    "duration": 0.14999999999999147
                },
                {
                    "name": "F4",
                    "midi": 65,
                    "time": 73.055,
                    "velocity": 0.36220472440944884,
                    "duration": 0.14999999999999147
                },
                {
                    "name": "F5",
                    "midi": 77,
                    "time": 73.2,
                    "velocity": 0.48031496062992124,
                    "duration": 0.29999999999999716
                },
                {
                    "name": "F4",
                    "midi": 65,
                    "time": 73.35,
                    "velocity": 0.29133858267716534,
                    "duration": 0.15000000000000568
                },
                {
                    "name": "E5",
                    "midi": 76,
                    "time": 73.5,
                    "velocity": 0.41732283464566927,
                    "duration": 0.29999999999999716
                },
                {
                    "name": "D5",
                    "midi": 74,
                    "time": 73.8,
                    "velocity": 0.4566929133858268,
                    "duration": 0.45000000000001705
                },
                {
                    "name": "F4",
                    "midi": 65,
                    "time": 73.95,
                    "velocity": 0.23622047244094488,
                    "duration": 0.15000000000000568
                },
                {
                    "name": "C5",
                    "midi": 72,
                    "time": 74.25000000000001,
                    "velocity": 0.4094488188976378,
                    "duration": 0.15000000000000568
                },
                {
                    "name": "C5",
                    "midi": 72,
                    "time": 74.40000000000002,
                    "velocity": 0.4566929133858268,
                    "duration": 0.30000000000001137
                },
                {
                    "name": "C4",
                    "midi": 60,
                    "time": 74.55000000000003,
                    "velocity": 0.29133858267716534,
                    "duration": 0.15000000000000568
                },
                {
                    "name": "A#4",
                    "midi": 70,
                    "time": 74.70000000000003,
                    "velocity": 0.41732283464566927,
                    "duration": 0.29999999999999716
                },
                {
                    "name": "A4",
                    "midi": 69,
                    "time": 75.00000000000003,
                    "velocity": 0.4566929133858268,
                    "duration": 0.45000000000001705
                },
                {
                    "name": "C4",
                    "midi": 60,
                    "time": 75.15000000000003,
                    "velocity": 0.2440944881889764,
                    "duration": 0.15000000000000568
                },
                {
                    "name": "G4",
                    "midi": 67,
                    "time": 75.45000000000005,
                    "velocity": 0.4094488188976378,
                    "duration": 0.15000000000000568
                },
                {
                    "name": "G4",
                    "midi": 67,
                    "time": 75.60000000000005,
                    "velocity": 0.33858267716535434,
                    "duration": 1.2000000000000028
                },
                {
                    "name": "A#3",
                    "midi": 58,
                    "time": 75.75000000000006,
                    "velocity": 0.29133858267716534,
                    "duration": 0.5999999999999943
                },
                {
                    "name": "A#3",
                    "midi": 58,
                    "time": 76.35000000000005,
                    "velocity": 0.29133858267716534,
                    "duration": 0.45000000000000284
                },
                {
                    "name": "F4",
                    "midi": 65,
                    "time": 76.80000000000005,
                    "velocity": 0.33858267716535434,
                    "duration": 0.6000000000000085
                },
                {
                    "name": "A3",
                    "midi": 57,
                    "time": 76.95000000000006,
                    "velocity": 0.2440944881889764,
                    "duration": 0.45000000000000284
                },
                {
                    "name": "F4",
                    "midi": 65,
                    "time": 77.99375000000006,
                    "velocity": 0.33858267716535434,
                    "duration": 0.29999999999999716
                },
                {
                    "name": "D#4",
                    "midi": 63,
                    "time": 78.15000000000006,
                    "velocity": 0.23622047244094488,
                    "duration": 0.14999999999999147
                },
                {
                    "name": "G4",
                    "midi": 67,
                    "time": 78.29500000000006,
                    "velocity": 0.33858267716535434,
                    "duration": 0.29999999999999716
                },
                {
                    "name": "A4",
                    "midi": 69,
                    "time": 78.59125000000006,
                    "velocity": 0.33858267716535434,
                    "duration": 0.29999999999999716
                },
                {
                    "name": "D#4",
                    "midi": 63,
                    "time": 78.75000000000006,
                    "velocity": 0.28346456692913385,
                    "duration": 0.15000000000000568
                },
                {
                    "name": "A#4",
                    "midi": 70,
                    "time": 78.90500000000006,
                    "velocity": 0.33858267716535434,
                    "duration": 0.29999999999999716
                },
                {
                    "name": "C5",
                    "midi": 72,
                    "time": 79.20125000000006,
                    "velocity": 0.33858267716535434,
                    "duration": 0.29999999999999716
                },
                {
                    "name": "D#4",
                    "midi": 63,
                    "time": 79.35000000000005,
                    "velocity": 0.2440944881889764,
                    "duration": 0.15000000000000568
                },
                {
                    "name": "D5",
                    "midi": 74,
                    "time": 79.49875000000006,
                    "velocity": 0.36220472440944884,
                    "duration": 0.29999999999999716
                },
                {
                    "name": "D#5",
                    "midi": 75,
                    "time": 79.80125000000005,
                    "velocity": 0.3858267716535433,
                    "duration": 0.29999999999999716
                },
                {
                    "name": "D#4",
                    "midi": 63,
                    "time": 79.95000000000006,
                    "velocity": 0.2440944881889764,
                    "duration": 0.14999999999999147
                },
                {
                    "name": "F5",
                    "midi": 77,
                    "time": 80.09625000000005,
                    "velocity": 0.4409448818897638,
                    "duration": 0.29999999999999716
                },
                {
                    "name": "F#5",
                    "midi": 78,
                    "time": 80.41250000000005,
                    "velocity": 0.4881889763779528,
                    "duration": 0.30000000000001137
                },
                {
                    "name": "D#4",
                    "midi": 63,
                    "time": 80.55000000000005,
                    "velocity": 0.2755905511811024,
                    "duration": 0.15000000000000568
                },
                {
                    "name": "F5",
                    "midi": 77,
                    "time": 80.70375000000006,
                    "velocity": 0.4645669291338583,
                    "duration": 0.30000000000001137
                },
                {
                    "name": "D#5",
                    "midi": 75,
                    "time": 80.99375000000006,
                    "velocity": 0.4409448818897638,
                    "duration": 0.29999999999999716
                },
                {
                    "name": "D#4",
                    "midi": 63,
                    "time": 81.15000000000006,
                    "velocity": 0.25196850393700787,
                    "duration": 0.14999999999999147
                },
                {
                    "name": "C#5",
                    "midi": 73,
                    "time": 81.29750000000006,
                    "velocity": 0.3937007874015748,
                    "duration": 0.29999999999999716
                },
                {
                    "name": "C5",
                    "midi": 72,
                    "time": 81.60125000000005,
                    "velocity": 0.33858267716535434,
                    "duration": 0.30000000000001137
                },
                {
                    "name": "D#4",
                    "midi": 63,
                    "time": 81.75000000000006,
                    "velocity": 0.23622047244094488,
                    "duration": 0.15000000000000568
                },
                {
                    "name": "A#4",
                    "midi": 70,
                    "time": 81.90500000000006,
                    "velocity": 0.3228346456692913,
                    "duration": 0.29999999999999716
                },
                {
                    "name": "A4",
                    "midi": 69,
                    "time": 82.20375000000006,
                    "velocity": 0.33858267716535434,
                    "duration": 0.29999999999999716
                },
                {
                    "name": "D#4",
                    "midi": 63,
                    "time": 82.35000000000005,
                    "velocity": 0.23622047244094488,
                    "duration": 0.15000000000000568
                },
                {
                    "name": "A#4",
                    "midi": 70,
                    "time": 82.51000000000005,
                    "velocity": 0.31496062992125984,
                    "duration": 0.30000000000001137
                },
                {
                    "name": "F4",
                    "midi": 65,
                    "time": 82.80000000000005,
                    "velocity": 0.28346456692913385,
                    "duration": 0.30000000000001137
                },
                {
                    "name": "A4",
                    "midi": 69,
                    "time": 82.80875000000006,
                    "velocity": 0.28346456692913385,
                    "duration": 0.29999999999999716
                },
                {
                    "name": "D#4",
                    "midi": 63,
                    "time": 82.95000000000006,
                    "velocity": 0.1968503937007874,
                    "duration": 0.15000000000000568
                },
                {
                    "name": "G4",
                    "midi": 67,
                    "time": 83.10250000000006,
                    "velocity": 0.28346456692913385,
                    "duration": 0.29999999999999716
                },
                {
                    "name": "A4",
                    "midi": 69,
                    "time": 83.39125000000006,
                    "velocity": 0.28346456692913385,
                    "duration": 0.29999999999999716
                },
                {
                    "name": "D#4",
                    "midi": 63,
                    "time": 83.55000000000005,
                    "velocity": 0.23622047244094488,
                    "duration": 0.15000000000000568
                },
                {
                    "name": "A#4",
                    "midi": 70,
                    "time": 83.70000000000006,
                    "velocity": 0.28346456692913385,
                    "duration": 0.29999999999999716
                },
                {
                    "name": "C5",
                    "midi": 72,
                    "time": 83.99625000000006,
                    "velocity": 0.28346456692913385,
                    "duration": 0.29999999999999716
                },
                {
                    "name": "D#4",
                    "midi": 63,
                    "time": 84.15000000000006,
                    "velocity": 0.2047244094488189,
                    "duration": 0.14999999999999147
                },
                {
                    "name": "C#5",
                    "midi": 73,
                    "time": 84.29125000000006,
                    "velocity": 0.30708661417322836,
                    "duration": 0.29999999999999716
                },
                {
                    "name": "D#5",
                    "midi": 75,
                    "time": 84.60125000000006,
                    "velocity": 0.3228346456692913,
                    "duration": 0.29999999999999716
                },
                {
                    "name": "D#4",
                    "midi": 63,
                    "time": 84.75000000000007,
                    "velocity": 0.2047244094488189,
                    "duration": 0.14999999999999147
                },
                {
                    "name": "F5",
                    "midi": 77,
                    "time": 84.89500000000007,
                    "velocity": 0.3700787401574803,
                    "duration": 0.29999999999999716
                },
                {
                    "name": "F#5",
                    "midi": 78,
                    "time": 85.21250000000006,
                    "velocity": 0.4094488188976378,
                    "duration": 0.30000000000001137
                },
                {
                    "name": "D#4",
                    "midi": 63,
                    "time": 85.35000000000007,
                    "velocity": 0.2283464566929134,
                    "duration": 0.15000000000000568
                },
                {
                    "name": "F5",
                    "midi": 77,
                    "time": 85.50000000000007,
                    "velocity": 0.3937007874015748,
                    "duration": 0.29999999999999716
                },
                {
                    "name": "D#5",
                    "midi": 75,
                    "time": 85.80000000000007,
                    "velocity": 0.3700787401574803,
                    "duration": 0.45000000000001705
                },
                {
                    "name": "D#4",
                    "midi": 63,
                    "time": 85.95000000000007,
                    "velocity": 0.2125984251968504,
                    "duration": 0.15000000000000568
                },
                {
                    "name": "C#5",
                    "midi": 73,
                    "time": 86.25000000000009,
                    "velocity": 0.33070866141732286,
                    "duration": 0.15000000000000568
                },
                {
                    "name": "C#5",
                    "midi": 73,
                    "time": 86.4125000000001,
                    "velocity": 0.28346456692913385,
                    "duration": 0.2962500000000148
                },
                {
                    "name": "D#4",
                    "midi": 63,
                    "time": 86.5500000000001,
                    "velocity": 0.1968503937007874,
                    "duration": 0.15000000000000568
                },
                {
                    "name": "C5",
                    "midi": 72,
                    "time": 86.7000000000001,
                    "velocity": 0.2677165354330709,
                    "duration": 0.30000000000001137
                },
                {
                    "name": "A#4",
                    "midi": 70,
                    "time": 87.00000000000011,
                    "velocity": 0.28346456692913385,
                    "duration": 0.07500000000000284
                },
                {
                    "name": "C5",
                    "midi": 72,
                    "time": 87.07500000000012,
                    "velocity": 0.28346456692913385,
                    "duration": 0.07500000000000284
                },
                {
                    "name": "A#4",
                    "midi": 70,
                    "time": 87.15000000000012,
                    "velocity": 0.3228346456692913,
                    "duration": 0.30000000000001137
                },
                {
                    "name": "C4",
                    "midi": 60,
                    "time": 87.15000000000012,
                    "velocity": 0.3228346456692913,
                    "duration": 0.15000000000000568
                },
                {
                    "name": "G#4",
                    "midi": 68,
                    "time": 87.45000000000013,
                    "velocity": 0.2677165354330709,
                    "duration": 0.15000000000000568
                },
                {
                    "name": "C#5",
                    "midi": 73,
                    "time": 87.61250000000014,
                    "velocity": 0.28346456692913385,
                    "duration": 1.7874999999999943
                },
                {
                    "name": "C#4",
                    "midi": 61,
                    "time": 87.75000000000014,
                    "velocity": 0.28346456692913385,
                    "duration": 0.5999999999999943
                },
                {
                    "name": "C#4",
                    "midi": 61,
                    "time": 88.35000000000014,
                    "velocity": 0.28346456692913385,
                    "duration": 0.5999999999999943
                },
                {
                    "name": "C#4",
                    "midi": 61,
                    "time": 88.95000000000013,
                    "velocity": 0.28346456692913385,
                    "duration": 0.6000000000000085
                },
                {
                    "name": "C#4",
                    "midi": 61,
                    "time": 89.55000000000014,
                    "velocity": 0.28346456692913385,
                    "duration": 0.15000000000000568
                },
                {
                    "name": "C#4",
                    "midi": 61,
                    "time": 89.70000000000014,
                    "velocity": 0.3464566929133858,
                    "duration": 0.45000000000000284
                },
                {
                    "name": "C#4",
                    "midi": 61,
                    "time": 90.15000000000015,
                    "velocity": 0.28346456692913385,
                    "duration": 0.5999999999999943
                },
                {
                    "name": "C#4",
                    "midi": 61,
                    "time": 90.75000000000014,
                    "velocity": 0.28346456692913385,
                    "duration": 0.5999999999999943
                },
                {
                    "name": "C#4",
                    "midi": 61,
                    "time": 91.35000000000014,
                    "velocity": 0.28346456692913385,
                    "duration": 0.5999999999999943
                },
                {
                    "name": "C#4",
                    "midi": 61,
                    "time": 91.95000000000013,
                    "velocity": 0.28346456692913385,
                    "duration": 0.29999999999999716
                },
                {
                    "name": "C#4",
                    "midi": 61,
                    "time": 92.25000000000013,
                    "velocity": 0.28346456692913385,
                    "duration": 0.45000000000000284
                },
                {
                    "name": "A#3",
                    "midi": 58,
                    "time": 92.55000000000013,
                    "velocity": 0.23622047244094488,
                    "duration": 0.15000000000000568
                },
                {
                    "name": "D#4",
                    "midi": 63,
                    "time": 92.70000000000013,
                    "velocity": 0.2283464566929134,
                    "duration": 0.29999999999999716
                },
                {
                    "name": "F4",
                    "midi": 65,
                    "time": 93.00000000000013,
                    "velocity": 0.29133858267716534,
                    "duration": 0.30000000000001137
                },
                {
                    "name": "A#3",
                    "midi": 58,
                    "time": 93.15000000000013,
                    "velocity": 0.23622047244094488,
                    "duration": 0.15000000000000568
                },
                {
                    "name": "F#4",
                    "midi": 66,
                    "time": 93.30000000000014,
                    "velocity": 0.30708661417322836,
                    "duration": 0.29999999999999716
                },
                {
                    "name": "G#4",
                    "midi": 68,
                    "time": 93.60000000000014,
                    "velocity": 0.3228346456692913,
                    "duration": 0.30000000000001137
                },
                {
                    "name": "A#3",
                    "midi": 58,
                    "time": 93.75000000000014,
                    "velocity": 0.28346456692913385,
                    "duration": 0.15000000000000568
                },
                {
                    "name": "A#4",
                    "midi": 70,
                    "time": 93.90000000000015,
                    "velocity": 0.33858267716535434,
                    "duration": 0.29999999999999716
                },
                {
                    "name": "B4",
                    "midi": 71,
                    "time": 94.20000000000014,
                    "velocity": 0.36220472440944884,
                    "duration": 0.30000000000001137
                },
                {
                    "name": "A#3",
                    "midi": 58,
                    "time": 94.35000000000015,
                    "velocity": 0.23622047244094488,
                    "duration": 0.15000000000000568
                },
                {
                    "name": "C#5",
                    "midi": 73,
                    "time": 94.50000000000016,
                    "velocity": 0.3779527559055118,
                    "duration": 0.29999999999999716
                },
                {
                    "name": "D5",
                    "midi": 74,
                    "time": 94.81250000000016,
                    "velocity": 0.4251968503937008,
                    "duration": 0.2875000000000085
                },
                {
                    "name": "B3",
                    "midi": 59,
                    "time": 94.95000000000016,
                    "velocity": 0.2755905511811024,
                    "duration": 0.15000000000000568
                },
                {
                    "name": "B4",
                    "midi": 71,
                    "time": 95.10000000000016,
                    "velocity": 0.3700787401574803,
                    "duration": 0.29999999999999716
                },
                {
                    "name": "G#4",
                    "midi": 68,
                    "time": 95.40000000000016,
                    "velocity": 0.3543307086614173,
                    "duration": 0.30000000000001137
                },
                {
                    "name": "B3",
                    "midi": 59,
                    "time": 95.55000000000017,
                    "velocity": 0.23622047244094488,
                    "duration": 0.15000000000000568
                },
                {
                    "name": "F4",
                    "midi": 65,
                    "time": 95.70000000000017,
                    "velocity": 0.3228346456692913,
                    "duration": 0.29999999999999716
                },
                {
                    "name": "D4",
                    "midi": 62,
                    "time": 96.00000000000017,
                    "velocity": 0.36220472440944884,
                    "duration": 0.6000000000000085
                },
                {
                    "name": "G#3",
                    "midi": 56,
                    "time": 96.15000000000018,
                    "velocity": 0.29133858267716534,
                    "duration": 0.15000000000000568
                },
                {
                    "name": "B3",
                    "midi": 59,
                    "time": 96.30000000000018,
                    "velocity": 0.3228346456692913,
                    "duration": 0.29999999999999716
                },
                {
                    "name": "G#3",
                    "midi": 56,
                    "time": 96.60000000000018,
                    "velocity": 0.31496062992125984,
                    "duration": 0.15000000000000568
                },
                {
                    "name": "F3",
                    "midi": 53,
                    "time": 96.75000000000018,
                    "velocity": 0.2992125984251969,
                    "duration": 0.15000000000000568
                },
                {
                    "name": "D3",
                    "midi": 50,
                    "time": 96.90000000000019,
                    "velocity": 0.28346456692913385,
                    "duration": 0.15000000000000568
                },
                {
                    "name": "B2",
                    "midi": 47,
                    "time": 97.0500000000002,
                    "velocity": 0.2677165354330709,
                    "duration": 0.15000000000000568
                },
                {
                    "name": "C#4",
                    "midi": 61,
                    "time": 97.2000000000002,
                    "velocity": 0.28346456692913385,
                    "duration": 0.30000000000001137
                },
                {
                    "name": "A#3",
                    "midi": 58,
                    "time": 97.35000000000021,
                    "velocity": 0.23622047244094488,
                    "duration": 0.15000000000000568
                },
                {
                    "name": "D#4",
                    "midi": 63,
                    "time": 97.50000000000021,
                    "velocity": 0.2283464566929134,
                    "duration": 0.29999999999999716
                },
                {
                    "name": "F4",
                    "midi": 65,
                    "time": 97.80000000000021,
                    "velocity": 0.29133858267716534,
                    "duration": 0.30000000000001137
                },
                {
                    "name": "A#3",
                    "midi": 58,
                    "time": 97.95000000000022,
                    "velocity": 0.23622047244094488,
                    "duration": 0.15000000000000568
                },
                {
                    "name": "F#4",
                    "midi": 66,
                    "time": 98.10000000000022,
                    "velocity": 0.30708661417322836,
                    "duration": 0.29999999999999716
                },
                {
                    "name": "G#4",
                    "midi": 68,
                    "time": 98.40000000000022,
                    "velocity": 0.3228346456692913,
                    "duration": 0.30000000000001137
                },
                {
                    "name": "A#3",
                    "midi": 58,
                    "time": 98.55000000000022,
                    "velocity": 0.28346456692913385,
                    "duration": 0.15000000000000568
                },
                {
                    "name": "A#4",
                    "midi": 70,
                    "time": 98.70000000000023,
                    "velocity": 0.33858267716535434,
                    "duration": 0.29999999999999716
                },
                {
                    "name": "B4",
                    "midi": 71,
                    "time": 99.00000000000023,
                    "velocity": 0.3464566929133858,
                    "duration": 0.30000000000001137
                },
                {
                    "name": "A#3",
                    "midi": 58,
                    "time": 99.15000000000023,
                    "velocity": 0.23622047244094488,
                    "duration": 0.15000000000000568
                },
                {
                    "name": "C5",
                    "midi": 72,
                    "time": 99.30000000000024,
                    "velocity": 0.3700787401574803,
                    "duration": 0.29999999999999716
                },
                {
                    "name": "C#5",
                    "midi": 73,
                    "time": 99.60625000000023,
                    "velocity": 0.4251968503937008,
                    "duration": 0.29375000000000284
                },
                {
                    "name": "A#3",
                    "midi": 58,
                    "time": 99.75000000000023,
                    "velocity": 0.2755905511811024,
                    "duration": 0.15000000000000568
                },
                {
                    "name": "A#4",
                    "midi": 70,
                    "time": 99.90000000000023,
                    "velocity": 0.3228346456692913,
                    "duration": 0.29999999999999716
                },
                {
                    "name": "G4",
                    "midi": 67,
                    "time": 100.20000000000023,
                    "velocity": 0.3543307086614173,
                    "duration": 0.30000000000001137
                },
                {
                    "name": "A#3",
                    "midi": 58,
                    "time": 100.35000000000024,
                    "velocity": 0.23622047244094488,
                    "duration": 0.15000000000000568
                },
                {
                    "name": "E4",
                    "midi": 64,
                    "time": 100.50000000000024,
                    "velocity": 0.3228346456692913,
                    "duration": 0.29999999999999716
                },
                {
                    "name": "C#4",
                    "midi": 61,
                    "time": 100.80000000000024,
                    "velocity": 0.33858267716535434,
                    "duration": 0.30000000000001137
                },
                {
                    "name": "G3",
                    "midi": 55,
                    "time": 100.95000000000024,
                    "velocity": 0.25984251968503935,
                    "duration": 0.15000000000000568
                },
                {
                    "name": "A#3",
                    "midi": 58,
                    "time": 101.10000000000025,
                    "velocity": 0.3228346456692913,
                    "duration": 0.29999999999999716
                },
                {
                    "name": "A3",
                    "midi": 57,
                    "time": 101.40000000000025,
                    "velocity": 0.36220472440944884,
                    "duration": 0.5250000000000057
                },
                {
                    "name": "F3",
                    "midi": 53,
                    "time": 101.60000000000025,
                    "velocity": 0.25196850393700787,
                    "duration": 0.32500000000000284
                },
                {
                    "name": "D#3",
                    "midi": 51,
                    "time": 101.80000000000025,
                    "velocity": 0.2125984251968504,
                    "duration": 0.125
                },
                {
                    "name": "A#3",
                    "midi": 58,
                    "time": 101.92500000000025,
                    "velocity": 0.28346456692913385,
                    "duration": 0.07500000000000284
                },
                {
                    "name": "A#3",
                    "midi": 58,
                    "time": 102.00000000000026,
                    "velocity": 0.28346456692913385,
                    "duration": 0.29999999999999716
                },
                {
                    "name": "F3",
                    "midi": 53,
                    "time": 102.00000000000026,
                    "velocity": 0.2677165354330709,
                    "duration": 0.29999999999999716
                },
                {
                    "name": "G3",
                    "midi": 55,
                    "time": 102.30000000000025,
                    "velocity": 0.2755905511811024,
                    "duration": 0.29999999999999716
                },
                {
                    "name": "A3",
                    "midi": 57,
                    "time": 102.60000000000025,
                    "velocity": 0.28346456692913385,
                    "duration": 0.29999999999999716
                },
                {
                    "name": "A#3",
                    "midi": 58,
                    "time": 102.90000000000025,
                    "velocity": 0.29133858267716534,
                    "duration": 0.29999999999999716
                },
                {
                    "name": "C4",
                    "midi": 60,
                    "time": 103.20000000000024,
                    "velocity": 0.2992125984251969,
                    "duration": 0.29999999999999716
                },
                {
                    "name": "D4",
                    "midi": 62,
                    "time": 103.50000000000024,
                    "velocity": 0.33070866141732286,
                    "duration": 0.29999999999999716
                },
                {
                    "name": "D#4",
                    "midi": 63,
                    "time": 103.80000000000024,
                    "velocity": 0.36220472440944884,
                    "duration": 0.29999999999999716
                },
                {
                    "name": "F4",
                    "midi": 65,
                    "time": 104.10000000000024,
                    "velocity": 0.4251968503937008,
                    "duration": 0.29999999999999716
                },
                {
                    "name": "G4",
                    "midi": 67,
                    "time": 104.42375000000024,
                    "velocity": 0.5118110236220472,
                    "duration": 1.176249999999996
                },
                {
                    "name": "F4",
                    "midi": 65,
                    "time": 104.70000000000024,
                    "velocity": 0.4645669291338583,
                    "duration": 0.29999999999999716
                },
                {
                    "name": "D#4",
                    "midi": 63,
                    "time": 105.00000000000024,
                    "velocity": 0.4409448818897638,
                    "duration": 0.29999999999999716
                },
                {
                    "name": "D4",
                    "midi": 62,
                    "time": 105.30000000000024,
                    "velocity": 0.3937007874015748,
                    "duration": 0.29999999999999716
                },
                {
                    "name": "G4",
                    "midi": 67,
                    "time": 105.60000000000024,
                    "velocity": 0.4645669291338583,
                    "duration": 0.5999999999999943
                },
                {
                    "name": "A4",
                    "midi": 69,
                    "time": 106.19500000000023,
                    "velocity": 0.4330708661417323,
                    "duration": 0.29999999999999716
                },
                {
                    "name": "B4",
                    "midi": 71,
                    "time": 106.49625000000023,
                    "velocity": 0.4645669291338583,
                    "duration": 0.30000000000001137
                },
                {
                    "name": "D#4",
                    "midi": 63,
                    "time": 106.72500000000024,
                    "velocity": 0.47244094488188976,
                    "duration": 1.575000000000017
                },
                {
                    "name": "D#5",
                    "midi": 75,
                    "time": 106.80750000000025,
                    "velocity": 0.5433070866141733,
                    "duration": 1.5
                },
                {
                    "name": "D5",
                    "midi": 74,
                    "time": 108.30000000000025,
                    "velocity": 0.4015748031496063,
                    "duration": 0.4199999999999875
                },
                {
                    "name": "C5",
                    "midi": 72,
                    "time": 108.72000000000024,
                    "velocity": 0.4330708661417323,
                    "duration": 0.12000000000000455
                },
                {
                    "name": "A#4",
                    "midi": 70,
                    "time": 108.84000000000024,
                    "velocity": 0.41732283464566927,
                    "duration": 0.12000000000000455
                },
                {
                    "name": "A4",
                    "midi": 69,
                    "time": 108.96000000000025,
                    "velocity": 0.4015748031496063,
                    "duration": 0.12000000000000455
                },
                {
                    "name": "G4",
                    "midi": 67,
                    "time": 109.08000000000025,
                    "velocity": 0.3937007874015748,
                    "duration": 0.12000000000000455
                },
                {
                    "name": "D#4",
                    "midi": 63,
                    "time": 109.20000000000026,
                    "velocity": 0.4645669291338583,
                    "duration": 0.29999999999999716
                },
                {
                    "name": "F4",
                    "midi": 65,
                    "time": 109.21250000000026,
                    "velocity": 0.4645669291338583,
                    "duration": 1.9074999999999847
                },
                {
                    "name": "D4",
                    "midi": 62,
                    "time": 109.50000000000026,
                    "velocity": 0.41732283464566927,
                    "duration": 0.29999999999999716
                },
                {
                    "name": "C4",
                    "midi": 60,
                    "time": 109.80000000000025,
                    "velocity": 0.3858267716535433,
                    "duration": 0.29999999999999716
                },
                {
                    "name": "A#3",
                    "midi": 58,
                    "time": 110.10000000000025,
                    "velocity": 0.3779527559055118,
                    "duration": 0.29999999999999716
                },
                {
                    "name": "G4",
                    "midi": 67,
                    "time": 111.12000000000025,
                    "velocity": 0.33070866141732286,
                    "duration": 0.12000000000000455
                },
                {
                    "name": "A4",
                    "midi": 69,
                    "time": 111.24000000000025,
                    "velocity": 0.36220472440944884,
                    "duration": 0.12000000000000455
                },
                {
                    "name": "A#4",
                    "midi": 70,
                    "time": 111.36000000000026,
                    "velocity": 0.3937007874015748,
                    "duration": 0.12000000000000455
                },
                {
                    "name": "C5",
                    "midi": 72,
                    "time": 111.48000000000026,
                    "velocity": 0.4251968503937008,
                    "duration": 0.12000000000000455
                },
                {
                    "name": "D5",
                    "midi": 74,
                    "time": 111.60000000000026,
                    "velocity": 0.49606299212598426,
                    "duration": 0.30000000000001137
                },
                {
                    "name": "D4",
                    "midi": 62,
                    "time": 111.75000000000027,
                    "velocity": 0.3464566929133858,
                    "duration": 0.15000000000000568
                },
                {
                    "name": "C5",
                    "midi": 72,
                    "time": 111.90000000000028,
                    "velocity": 0.4409448818897638,
                    "duration": 0.29999999999999716
                },
                {
                    "name": "A#4",
                    "midi": 70,
                    "time": 112.20000000000027,
                    "velocity": 0.49606299212598426,
                    "duration": 0.30000000000001137
                },
                {
                    "name": "G5",
                    "midi": 79,
                    "time": 112.21250000000028,
                    "velocity": 0.49606299212598426,
                    "duration": 0.887500000000017
                },
                {
                    "name": "A#3",
                    "midi": 58,
                    "time": 112.35000000000028,
                    "velocity": 0.33070866141732286,
                    "duration": 0.15000000000000568
                },
                {
                    "name": "A4",
                    "midi": 69,
                    "time": 112.50000000000028,
                    "velocity": 0.4251968503937008,
                    "duration": 0.29999999999999716
                },
                {
                    "name": "G4",
                    "midi": 67,
                    "time": 112.80000000000028,
                    "velocity": 0.3779527559055118,
                    "duration": 0.30000000000001137
                },
                {
                    "name": "A#3",
                    "midi": 58,
                    "time": 112.95000000000029,
                    "velocity": 0.29133858267716534,
                    "duration": 1.0500000000000114
                },
                {
                    "name": "F4",
                    "midi": 65,
                    "time": 113.10000000000029,
                    "velocity": 0.3464566929133858,
                    "duration": 0.29999999999999716
                },
                {
                    "name": "F5",
                    "midi": 77,
                    "time": 113.10625000000029,
                    "velocity": 0.4094488188976378,
                    "duration": 0.29375000000000284
                },
                {
                    "name": "E5",
                    "midi": 76,
                    "time": 113.40000000000029,
                    "velocity": 0.4409448818897638,
                    "duration": 0.15000000000000568
                },
                {
                    "name": "E4",
                    "midi": 64,
                    "time": 113.40000000000029,
                    "velocity": 0.3700787401574803,
                    "duration": 0.30000000000001137
                },
                {
                    "name": "F5",
                    "midi": 77,
                    "time": 113.5500000000003,
                    "velocity": 0.3464566929133858,
                    "duration": 0.07500000000000284
                },
                {
                    "name": "E5",
                    "midi": 76,
                    "time": 113.6250000000003,
                    "velocity": 0.29133858267716534,
                    "duration": 0.07500000000000284
                },
                {
                    "name": "D4",
                    "midi": 62,
                    "time": 113.7025000000003,
                    "velocity": 0.3543307086614173,
                    "duration": 0.15000000000000568
                },
                {
                    "name": "D5",
                    "midi": 74,
                    "time": 113.7075000000003,
                    "velocity": 0.41732283464566927,
                    "duration": 0.15000000000000568
                },
                {
                    "name": "C5",
                    "midi": 72,
                    "time": 113.8437500000003,
                    "velocity": 0.3779527559055118,
                    "duration": 0.15000000000000568
                },
                {
                    "name": "C4",
                    "midi": 60,
                    "time": 113.8562500000003,
                    "velocity": 0.31496062992125984,
                    "duration": 0.14999999999999147
                },
                {
                    "name": "C5",
                    "midi": 72,
                    "time": 114.0000000000003,
                    "velocity": 0.41732283464566927,
                    "duration": 0.29999999999999716
                },
                {
                    "name": "C4",
                    "midi": 60,
                    "time": 114.15000000000029,
                    "velocity": 0.25196850393700787,
                    "duration": 0.15000000000000568
                },
                {
                    "name": "A#4",
                    "midi": 70,
                    "time": 114.3000000000003,
                    "velocity": 0.41732283464566927,
                    "duration": 0.29999999999999716
                },
                {
                    "name": "A4",
                    "midi": 69,
                    "time": 114.60000000000029,
                    "velocity": 0.3858267716535433,
                    "duration": 0.30000000000001137
                },
                {
                    "name": "F5",
                    "midi": 77,
                    "time": 114.6087500000003,
                    "velocity": 0.4566929133858268,
                    "duration": 0.8912500000000136
                },
                {
                    "name": "A3",
                    "midi": 57,
                    "time": 114.7500000000003,
                    "velocity": 0.25196850393700787,
                    "duration": 0.15000000000000568
                },
                {
                    "name": "G4",
                    "midi": 67,
                    "time": 114.9000000000003,
                    "velocity": 0.4251968503937008,
                    "duration": 0.29999999999999716
                },
                {
                    "name": "F4",
                    "midi": 65,
                    "time": 115.2000000000003,
                    "velocity": 0.3779527559055118,
                    "duration": 0.30000000000001137
                },
                {
                    "name": "A3",
                    "midi": 57,
                    "time": 115.3500000000003,
                    "velocity": 0.29133858267716534,
                    "duration": 1.0499999999999687
                },
                {
                    "name": "E4",
                    "midi": 64,
                    "time": 115.50000000000031,
                    "velocity": 0.3464566929133858,
                    "duration": 0.29999999999999716
                },
                {
                    "name": "E5",
                    "midi": 76,
                    "time": 115.50000000000031,
                    "velocity": 0.4094488188976378,
                    "duration": 0.29999999999999716
                },
                {
                    "name": "D4",
                    "midi": 62,
                    "time": 115.80000000000031,
                    "velocity": 0.3700787401574803,
                    "duration": 0.29999999999998295
                },
                {
                    "name": "D5",
                    "midi": 74,
                    "time": 115.80000000000031,
                    "velocity": 0.4409448818897638,
                    "duration": 0.15000000000000568
                },
                {
                    "name": "E5",
                    "midi": 76,
                    "time": 115.95000000000032,
                    "velocity": 0.33858267716535434,
                    "duration": 0.037499999999994316
                },
                {
                    "name": "D5",
                    "midi": 74,
                    "time": 115.98750000000031,
                    "velocity": 0.3464566929133858,
                    "duration": 0.037499999999994316
                },
                {
                    "name": "C#5",
                    "midi": 73,
                    "time": 116.0250000000003,
                    "velocity": 0.3543307086614173,
                    "duration": 0.037499999999994316
                },
                {
                    "name": "D5",
                    "midi": 74,
                    "time": 116.0625000000003,
                    "velocity": 0.36220472440944884,
                    "duration": 0.037499999999994316
                },
                {
                    "name": "E4",
                    "midi": 64,
                    "time": 116.0975000000003,
                    "velocity": 0.3543307086614173,
                    "duration": 0.14999999999999147
                },
                {
                    "name": "E5",
                    "midi": 76,
                    "time": 116.10250000000029,
                    "velocity": 0.4251968503937008,
                    "duration": 0.14999999999999147
                },
                {
                    "name": "F4",
                    "midi": 65,
                    "time": 116.24375000000029,
                    "velocity": 0.36220472440944884,
                    "duration": 0.14999999999999147
                },
                {
                    "name": "F5",
                    "midi": 77,
                    "time": 116.25000000000028,
                    "velocity": 0.4330708661417323,
                    "duration": 0.14999999999999147
                },
                {
                    "name": "F5",
                    "midi": 77,
                    "time": 116.40000000000028,
                    "velocity": 0.48031496062992124,
                    "duration": 0.30000000000001137
                },
                {
                    "name": "F4",
                    "midi": 65,
                    "time": 116.55000000000028,
                    "velocity": 0.29133858267716534,
                    "duration": 0.15000000000000568
                },
                {
                    "name": "E5",
                    "midi": 76,
                    "time": 116.70000000000029,
                    "velocity": 0.41732283464566927,
                    "duration": 0.29999999999999716
                },
                {
                    "name": "D5",
                    "midi": 74,
                    "time": 117.00000000000028,
                    "velocity": 0.4566929133858268,
                    "duration": 0.45000000000001705
                },
                {
                    "name": "F4",
                    "midi": 65,
                    "time": 117.15000000000029,
                    "velocity": 0.23622047244094488,
                    "duration": 0.15000000000000568
                },
                {
                    "name": "C5",
                    "midi": 72,
                    "time": 117.4500000000003,
                    "velocity": 0.4094488188976378,
                    "duration": 0.15000000000000568
                },
                {
                    "name": "C5",
                    "midi": 72,
                    "time": 117.6000000000003,
                    "velocity": 0.4566929133858268,
                    "duration": 0.30000000000001137
                },
                {
                    "name": "C4",
                    "midi": 60,
                    "time": 117.75000000000031,
                    "velocity": 0.29133858267716534,
                    "duration": 0.15000000000000568
                },
                {
                    "name": "A#4",
                    "midi": 70,
                    "time": 117.90000000000032,
                    "velocity": 0.41732283464566927,
                    "duration": 0.29999999999999716
                },
                {
                    "name": "A4",
                    "midi": 69,
                    "time": 118.20000000000032,
                    "velocity": 0.4566929133858268,
                    "duration": 0.45000000000001705
                },
                {
                    "name": "C4",
                    "midi": 60,
                    "time": 118.35000000000032,
                    "velocity": 0.2440944881889764,
                    "duration": 0.15000000000000568
                },
                {
                    "name": "G4",
                    "midi": 67,
                    "time": 118.65000000000033,
                    "velocity": 0.4094488188976378,
                    "duration": 0.15000000000000568
                },
                {
                    "name": "G4",
                    "midi": 67,
                    "time": 118.80000000000034,
                    "velocity": 0.33858267716535434,
                    "duration": 1.2000000000000028
                },
                {
                    "name": "A#3",
                    "midi": 58,
                    "time": 118.95000000000034,
                    "velocity": 0.29133858267716534,
                    "duration": 0.5999999999999943
                },
                {
                    "name": "A#3",
                    "midi": 58,
                    "time": 119.55000000000034,
                    "velocity": 0.29133858267716534,
                    "duration": 0.6000000000000085
                },
                {
                    "name": "F4",
                    "midi": 65,
                    "time": 120.00000000000034,
                    "velocity": 0.33858267716535434,
                    "duration": 0.6000000000000085
                },
                {
                    "name": "A3",
                    "midi": 57,
                    "time": 120.15000000000035,
                    "velocity": 0.2440944881889764,
                    "duration": 0.45000000000000284
                },
                {
                    "name": "F4",
                    "midi": 65,
                    "time": 121.20875000000035,
                    "velocity": 0.33858267716535434,
                    "duration": 0.30000000000001137
                },
                {
                    "name": "D#4",
                    "midi": 63,
                    "time": 121.35000000000035,
                    "velocity": 0.23622047244094488,
                    "duration": 0.15000000000000568
                },
                {
                    "name": "G4",
                    "midi": 67,
                    "time": 121.49125000000035,
                    "velocity": 0.33858267716535434,
                    "duration": 0.30000000000001137
                },
                {
                    "name": "A4",
                    "midi": 69,
                    "time": 121.79750000000035,
                    "velocity": 0.33858267716535434,
                    "duration": 0.29999999999999716
                },
                {
                    "name": "D#4",
                    "midi": 63,
                    "time": 121.95000000000036,
                    "velocity": 0.28346456692913385,
                    "duration": 0.14999999999999147
                },
                {
                    "name": "A#4",
                    "midi": 70,
                    "time": 122.10750000000034,
                    "velocity": 0.33858267716535434,
                    "duration": 0.29999999999999716
                },
                {
                    "name": "C5",
                    "midi": 72,
                    "time": 122.39625000000034,
                    "velocity": 0.33858267716535434,
                    "duration": 0.29999999999999716
                },
                {
                    "name": "D#4",
                    "midi": 63,
                    "time": 122.55000000000034,
                    "velocity": 0.2440944881889764,
                    "duration": 0.14999999999999147
                },
                {
                    "name": "D5",
                    "midi": 74,
                    "time": 122.69500000000033,
                    "velocity": 0.36220472440944884,
                    "duration": 0.29999999999999716
                },
                {
                    "name": "D#5",
                    "midi": 75,
                    "time": 123.01000000000033,
                    "velocity": 0.3858267716535433,
                    "duration": 0.30000000000001137
                },
                {
                    "name": "D#4",
                    "midi": 63,
                    "time": 123.15000000000033,
                    "velocity": 0.2440944881889764,
                    "duration": 0.15000000000000568
                },
                {
                    "name": "F5",
                    "midi": 77,
                    "time": 123.30875000000034,
                    "velocity": 0.4409448818897638,
                    "duration": 0.29999999999999716
                },
                {
                    "name": "F#5",
                    "midi": 78,
                    "time": 123.61125000000034,
                    "velocity": 0.4881889763779528,
                    "duration": 0.2887500000000074
                },
                {
                    "name": "D#4",
                    "midi": 63,
                    "time": 123.75000000000034,
                    "velocity": 0.2755905511811024,
                    "duration": 0.15000000000000568
                },
                {
                    "name": "F5",
                    "midi": 77,
                    "time": 123.90000000000035,
                    "velocity": 0.4645669291338583,
                    "duration": 0.29999999999999716
                },
                {
                    "name": "D#5",
                    "midi": 75,
                    "time": 124.20625000000034,
                    "velocity": 0.4409448818897638,
                    "duration": 0.29999999999998295
                },
                {
                    "name": "D#4",
                    "midi": 63,
                    "time": 124.35000000000034,
                    "velocity": 0.25196850393700787,
                    "duration": 0.14999999999999147
                },
                {
                    "name": "C#5",
                    "midi": 73,
                    "time": 124.49375000000033,
                    "velocity": 0.3937007874015748,
                    "duration": 0.29999999999998295
                },
                {
                    "name": "C5",
                    "midi": 72,
                    "time": 124.80125000000031,
                    "velocity": 0.33858267716535434,
                    "duration": 0.30000000000001137
                },
                {
                    "name": "D#4",
                    "midi": 63,
                    "time": 124.95000000000032,
                    "velocity": 0.23622047244094488,
                    "duration": 0.15000000000000568
                },
                {
                    "name": "A#4",
                    "midi": 70,
                    "time": 125.10750000000031,
                    "velocity": 0.3228346456692913,
                    "duration": 0.29999999999999716
                },
                {
                    "name": "A4",
                    "midi": 69,
                    "time": 125.40625000000031,
                    "velocity": 0.33858267716535434,
                    "duration": 0.29999999999999716
                },
                {
                    "name": "D#4",
                    "midi": 63,
                    "time": 125.55000000000031,
                    "velocity": 0.23622047244094488,
                    "duration": 0.15000000000000568
                },
                {
                    "name": "A#4",
                    "midi": 70,
                    "time": 125.69875000000032,
                    "velocity": 0.31496062992125984,
                    "duration": 0.29999999999998295
                },
                {
                    "name": "A4",
                    "midi": 69,
                    "time": 125.9925000000003,
                    "velocity": 0.28346456692913385,
                    "duration": 0.29999999999999716
                },
                {
                    "name": "F4",
                    "midi": 65,
                    "time": 126.0000000000003,
                    "velocity": 0.28346456692913385,
                    "duration": 0.29999999999999716
                },
                {
                    "name": "D#4",
                    "midi": 63,
                    "time": 126.1500000000003,
                    "velocity": 0.1968503937007874,
                    "duration": 0.14999999999999147
                },
                {
                    "name": "G4",
                    "midi": 67,
                    "time": 126.3087500000003,
                    "velocity": 0.28346456692913385,
                    "duration": 0.30000000000001137
                },
                {
                    "name": "A4",
                    "midi": 69,
                    "time": 126.6000000000003,
                    "velocity": 0.28346456692913385,
                    "duration": 0.29999999999999716
                },
                {
                    "name": "D#4",
                    "midi": 63,
                    "time": 126.75000000000031,
                    "velocity": 0.23622047244094488,
                    "duration": 0.14999999999999147
                },
                {
                    "name": "A#4",
                    "midi": 70,
                    "time": 126.8975000000003,
                    "velocity": 0.28346456692913385,
                    "duration": 0.29999999999999716
                },
                {
                    "name": "C5",
                    "midi": 72,
                    "time": 127.20875000000031,
                    "velocity": 0.28346456692913385,
                    "duration": 0.30000000000001137
                },
                {
                    "name": "D#4",
                    "midi": 63,
                    "time": 127.3500000000003,
                    "velocity": 0.2047244094488189,
                    "duration": 0.15000000000000568
                },
                {
                    "name": "C#5",
                    "midi": 73,
                    "time": 127.4912500000003,
                    "velocity": 0.30708661417322836,
                    "duration": 0.30000000000001137
                },
                {
                    "name": "D#5",
                    "midi": 75,
                    "time": 127.80750000000032,
                    "velocity": 0.3228346456692913,
                    "duration": 0.29999999999998295
                },
                {
                    "name": "D#4",
                    "midi": 63,
                    "time": 127.95000000000032,
                    "velocity": 0.2047244094488189,
                    "duration": 0.14999999999999147
                },
                {
                    "name": "F5",
                    "midi": 77,
                    "time": 128.0937500000003,
                    "velocity": 0.3700787401574803,
                    "duration": 0.29999999999998295
                },
                {
                    "name": "F#5",
                    "midi": 78,
                    "time": 128.4125000000003,
                    "velocity": 0.4094488188976378,
                    "duration": 0.29999999999998295
                },
                {
                    "name": "D#4",
                    "midi": 63,
                    "time": 128.5500000000003,
                    "velocity": 0.2283464566929134,
                    "duration": 0.15000000000000568
                },
                {
                    "name": "F5",
                    "midi": 77,
                    "time": 128.7000000000003,
                    "velocity": 0.3937007874015748,
                    "duration": 0.29999999999998295
                },
                {
                    "name": "D#5",
                    "midi": 75,
                    "time": 129.00000000000028,
                    "velocity": 0.3700787401574803,
                    "duration": 0.45000000000001705
                },
                {
                    "name": "D#4",
                    "midi": 63,
                    "time": 129.1500000000003,
                    "velocity": 0.2125984251968504,
                    "duration": 0.15000000000000568
                },
                {
                    "name": "C#5",
                    "midi": 73,
                    "time": 129.4500000000003,
                    "velocity": 0.33070866141732286,
                    "duration": 0.15000000000000568
                },
                {
                    "name": "C#5",
                    "midi": 73,
                    "time": 129.6000000000003,
                    "velocity": 0.28346456692913385,
                    "duration": 0.30000000000001137
                },
                {
                    "name": "D#4",
                    "midi": 63,
                    "time": 129.7500000000003,
                    "velocity": 0.1968503937007874,
                    "duration": 0.15000000000000568
                },
                {
                    "name": "C5",
                    "midi": 72,
                    "time": 129.90000000000032,
                    "velocity": 0.2677165354330709,
                    "duration": 0.30000000000001137
                },
                {
                    "name": "A#4",
                    "midi": 70,
                    "time": 130.20000000000033,
                    "velocity": 0.28346456692913385,
                    "duration": 0.07499999999998863
                },
                {
                    "name": "C5",
                    "midi": 72,
                    "time": 130.27500000000032,
                    "velocity": 0.28346456692913385,
                    "duration": 0.07499999999998863
                },
                {
                    "name": "A#4",
                    "midi": 70,
                    "time": 130.3500000000003,
                    "velocity": 0.28346456692913385,
                    "duration": 0.30000000000001137
                },
                {
                    "name": "C4",
                    "midi": 60,
                    "time": 130.3500000000003,
                    "velocity": 0.1968503937007874,
                    "duration": 0.15000000000000568
                },
                {
                    "name": "G#4",
                    "midi": 68,
                    "time": 130.65000000000032,
                    "velocity": 0.2677165354330709,
                    "duration": 0.15000000000000568
                },
                {
                    "name": "C#5",
                    "midi": 73,
                    "time": 130.80000000000032,
                    "velocity": 0.28346456692913385,
                    "duration": 1.799999999999983
                },
                {
                    "name": "C#4",
                    "midi": 61,
                    "time": 130.95000000000033,
                    "velocity": 0.28346456692913385,
                    "duration": 0.5999999999999943
                },
                {
                    "name": "C#4",
                    "midi": 61,
                    "time": 131.55000000000032,
                    "velocity": 0.28346456692913385,
                    "duration": 0.5999999999999943
                },
                {
                    "name": "C#4",
                    "midi": 61,
                    "time": 132.15000000000032,
                    "velocity": 0.28346456692913385,
                    "duration": 0.5999999999999943
                },
                {
                    "name": "C#4",
                    "midi": 61,
                    "time": 132.7500000000003,
                    "velocity": 0.28346456692913385,
                    "duration": 0.15000000000000568
                },
                {
                    "name": "C#4",
                    "midi": 61,
                    "time": 132.90000000000032,
                    "velocity": 0.33858267716535434,
                    "duration": 0.44999999999998863
                },
                {
                    "name": "C#4",
                    "midi": 61,
                    "time": 133.3500000000003,
                    "velocity": 0.28346456692913385,
                    "duration": 0.5999999999999943
                },
                {
                    "name": "C#4",
                    "midi": 61,
                    "time": 133.9500000000003,
                    "velocity": 0.28346456692913385,
                    "duration": 0.5999999999999943
                },
                {
                    "name": "C#4",
                    "midi": 61,
                    "time": 134.5500000000003,
                    "velocity": 0.28346456692913385,
                    "duration": 0.5999999999999943
                },
                {
                    "name": "C#4",
                    "midi": 61,
                    "time": 135.1500000000003,
                    "velocity": 0.28346456692913385,
                    "duration": 0.30000000000001137
                },
                {
                    "name": "C#4",
                    "midi": 61,
                    "time": 135.4500000000003,
                    "velocity": 0.28346456692913385,
                    "duration": 0.45000000000001705
                },
                {
                    "name": "A#3",
                    "midi": 58,
                    "time": 135.7500000000003,
                    "velocity": 0.23622047244094488,
                    "duration": 0.15000000000000568
                },
                {
                    "name": "D#4",
                    "midi": 63,
                    "time": 135.90000000000032,
                    "velocity": 0.2283464566929134,
                    "duration": 0.30000000000001137
                },
                {
                    "name": "F4",
                    "midi": 65,
                    "time": 136.20000000000033,
                    "velocity": 0.29133858267716534,
                    "duration": 0.30000000000001137
                },
                {
                    "name": "A#3",
                    "midi": 58,
                    "time": 136.35000000000034,
                    "velocity": 0.23622047244094488,
                    "duration": 0.15000000000000568
                },
                {
                    "name": "F#4",
                    "midi": 66,
                    "time": 136.50000000000034,
                    "velocity": 0.30708661417322836,
                    "duration": 0.30000000000001137
                },
                {
                    "name": "G#4",
                    "midi": 68,
                    "time": 136.80000000000035,
                    "velocity": 0.3228346456692913,
                    "duration": 0.30000000000001137
                },
                {
                    "name": "A#3",
                    "midi": 58,
                    "time": 136.95000000000036,
                    "velocity": 0.28346456692913385,
                    "duration": 0.15000000000000568
                },
                {
                    "name": "A#4",
                    "midi": 70,
                    "time": 137.10000000000036,
                    "velocity": 0.33858267716535434,
                    "duration": 0.30000000000001137
                },
                {
                    "name": "B4",
                    "midi": 71,
                    "time": 137.40000000000038,
                    "velocity": 0.3464566929133858,
                    "duration": 0.30000000000001137
                },
                {
                    "name": "A#3",
                    "midi": 58,
                    "time": 137.55000000000038,
                    "velocity": 0.23622047244094488,
                    "duration": 0.15000000000000568
                },
                {
                    "name": "C#5",
                    "midi": 73,
                    "time": 137.7000000000004,
                    "velocity": 0.3700787401574803,
                    "duration": 0.30000000000001137
                },
                {
                    "name": "D5",
                    "midi": 74,
                    "time": 138.0125000000004,
                    "velocity": 0.4251968503937008,
                    "duration": 0.29999999999998295
                },
                {
                    "name": "B3",
                    "midi": 59,
                    "time": 138.15000000000038,
                    "velocity": 0.2755905511811024,
                    "duration": 0.15000000000000568
                },
                {
                    "name": "B4",
                    "midi": 71,
                    "time": 138.30000000000038,
                    "velocity": 0.3228346456692913,
                    "duration": 0.29999999999998295
                },
                {
                    "name": "G#4",
                    "midi": 68,
                    "time": 138.60000000000036,
                    "velocity": 0.3543307086614173,
                    "duration": 0.30000000000001137
                },
                {
                    "name": "B3",
                    "midi": 59,
                    "time": 138.75000000000037,
                    "velocity": 0.23622047244094488,
                    "duration": 0.15000000000000568
                },
                {
                    "name": "F4",
                    "midi": 65,
                    "time": 138.90000000000038,
                    "velocity": 0.3228346456692913,
                    "duration": 0.30000000000001137
                },
                {
                    "name": "D4",
                    "midi": 62,
                    "time": 139.2000000000004,
                    "velocity": 0.36220472440944884,
                    "duration": 0.6000000000000227
                },
                {
                    "name": "G#3",
                    "midi": 56,
                    "time": 139.3500000000004,
                    "velocity": 0.29133858267716534,
                    "duration": 0.15000000000000568
                },
                {
                    "name": "B3",
                    "midi": 59,
                    "time": 139.5000000000004,
                    "velocity": 0.3228346456692913,
                    "duration": 0.30000000000001137
                },
                {
                    "name": "G#3",
                    "midi": 56,
                    "time": 139.8000000000004,
                    "velocity": 0.31496062992125984,
                    "duration": 0.15000000000000568
                },
                {
                    "name": "F3",
                    "midi": 53,
                    "time": 139.95000000000041,
                    "velocity": 0.2992125984251969,
                    "duration": 0.15000000000000568
                },
                {
                    "name": "D3",
                    "midi": 50,
                    "time": 140.10000000000042,
                    "velocity": 0.28346456692913385,
                    "duration": 0.15000000000000568
                },
                {
                    "name": "B2",
                    "midi": 47,
                    "time": 140.25000000000043,
                    "velocity": 0.2677165354330709,
                    "duration": 0.15000000000000568
                },
                {
                    "name": "C#4",
                    "midi": 61,
                    "time": 140.40000000000043,
                    "velocity": 0.28346456692913385,
                    "duration": 0.30000000000001137
                },
                {
                    "name": "A#3",
                    "midi": 58,
                    "time": 140.55000000000044,
                    "velocity": 0.23622047244094488,
                    "duration": 0.15000000000000568
                },
                {
                    "name": "D#4",
                    "midi": 63,
                    "time": 140.70000000000044,
                    "velocity": 0.2283464566929134,
                    "duration": 0.30000000000001137
                },
                {
                    "name": "F4",
                    "midi": 65,
                    "time": 141.00000000000045,
                    "velocity": 0.29133858267716534,
                    "duration": 0.30000000000001137
                },
                {
                    "name": "A#3",
                    "midi": 58,
                    "time": 141.15000000000046,
                    "velocity": 0.23622047244094488,
                    "duration": 0.15000000000000568
                },
                {
                    "name": "F#4",
                    "midi": 66,
                    "time": 141.30000000000047,
                    "velocity": 0.30708661417322836,
                    "duration": 0.30000000000001137
                },
                {
                    "name": "G#4",
                    "midi": 68,
                    "time": 141.60000000000048,
                    "velocity": 0.3228346456692913,
                    "duration": 0.30000000000001137
                },
                {
                    "name": "A#3",
                    "midi": 58,
                    "time": 141.75000000000048,
                    "velocity": 0.28346456692913385,
                    "duration": 0.15000000000000568
                },
                {
                    "name": "A#4",
                    "midi": 70,
                    "time": 141.9000000000005,
                    "velocity": 0.33858267716535434,
                    "duration": 0.30000000000001137
                },
                {
                    "name": "B4",
                    "midi": 71,
                    "time": 142.2000000000005,
                    "velocity": 0.3464566929133858,
                    "duration": 0.30000000000001137
                },
                {
                    "name": "A#3",
                    "midi": 58,
                    "time": 142.3500000000005,
                    "velocity": 0.23622047244094488,
                    "duration": 0.15000000000000568
                },
                {
                    "name": "C5",
                    "midi": 72,
                    "time": 142.5000000000005,
                    "velocity": 0.33858267716535434,
                    "duration": 0.30000000000001137
                },
                {
                    "name": "C#5",
                    "midi": 73,
                    "time": 142.8112500000005,
                    "velocity": 0.3937007874015748,
                    "duration": 0.29999999999998295
                },
                {
                    "name": "A#3",
                    "midi": 58,
                    "time": 142.9500000000005,
                    "velocity": 0.2755905511811024,
                    "duration": 0.15000000000000568
                },
                {
                    "name": "A#4",
                    "midi": 70,
                    "time": 143.1000000000005,
                    "velocity": 0.3228346456692913,
                    "duration": 0.29999999999998295
                },
                {
                    "name": "G4",
                    "midi": 67,
                    "time": 143.4000000000005,
                    "velocity": 0.3543307086614173,
                    "duration": 0.30000000000001137
                },
                {
                    "name": "A#3",
                    "midi": 58,
                    "time": 143.5500000000005,
                    "velocity": 0.23622047244094488,
                    "duration": 0.15000000000000568
                },
                {
                    "name": "E4",
                    "midi": 64,
                    "time": 143.7000000000005,
                    "velocity": 0.3228346456692913,
                    "duration": 0.30000000000001137
                },
                {
                    "name": "C#4",
                    "midi": 61,
                    "time": 144.0000000000005,
                    "velocity": 0.33858267716535434,
                    "duration": 0.30000000000001137
                },
                {
                    "name": "G3",
                    "midi": 55,
                    "time": 144.15000000000052,
                    "velocity": 0.25984251968503935,
                    "duration": 0.15000000000000568
                },
                {
                    "name": "A#3",
                    "midi": 58,
                    "time": 144.30000000000052,
                    "velocity": 0.3228346456692913,
                    "duration": 0.30000000000001137
                },
                {
                    "name": "A3",
                    "midi": 57,
                    "time": 144.60000000000053,
                    "velocity": 0.36220472440944884,
                    "duration": 0.5249999999999773
                },
                {
                    "name": "F3",
                    "midi": 53,
                    "time": 144.80000000000052,
                    "velocity": 0.25196850393700787,
                    "duration": 0.32499999999998863
                },
                {
                    "name": "D#3",
                    "midi": 51,
                    "time": 145.0000000000005,
                    "velocity": 0.2125984251968504,
                    "duration": 0.125
                },
                {
                    "name": "A#3",
                    "midi": 58,
                    "time": 145.1250000000005,
                    "velocity": 0.28346456692913385,
                    "duration": 0.07499999999998863
                },
                {
                    "name": "F3",
                    "midi": 53,
                    "time": 145.2000000000005,
                    "velocity": 0.2677165354330709,
                    "duration": 0.30000000000001137
                },
                {
                    "name": "A#3",
                    "midi": 58,
                    "time": 145.2000000000005,
                    "velocity": 0.28346456692913385,
                    "duration": 0.30000000000001137
                },
                {
                    "name": "G3",
                    "midi": 55,
                    "time": 145.5000000000005,
                    "velocity": 0.2755905511811024,
                    "duration": 0.29999999999998295
                },
                {
                    "name": "A3",
                    "midi": 57,
                    "time": 145.7925000000005,
                    "velocity": 0.28346456692913385,
                    "duration": 0.29999999999998295
                },
                {
                    "name": "A#3",
                    "midi": 58,
                    "time": 146.09875000000048,
                    "velocity": 0.29133858267716534,
                    "duration": 0.30000000000001137
                },
                {
                    "name": "C4",
                    "midi": 60,
                    "time": 146.40375000000049,
                    "velocity": 0.2992125984251969,
                    "duration": 0.30000000000001137
                },
                {
                    "name": "D4",
                    "midi": 62,
                    "time": 146.7025000000005,
                    "velocity": 0.33070866141732286,
                    "duration": 0.29999999999998295
                },
                {
                    "name": "D#4",
                    "midi": 63,
                    "time": 146.9912500000005,
                    "velocity": 0.36220472440944884,
                    "duration": 0.29999999999998295
                },
                {
                    "name": "F4",
                    "midi": 65,
                    "time": 147.30625000000046,
                    "velocity": 0.4251968503937008,
                    "duration": 0.30000000000001137
                },
                {
                    "name": "G4",
                    "midi": 67,
                    "time": 147.61250000000047,
                    "velocity": 0.4881889763779528,
                    "duration": 1.1875000000000284
                },
                {
                    "name": "F4",
                    "midi": 65,
                    "time": 147.90000000000046,
                    "velocity": 0.4645669291338583,
                    "duration": 0.30000000000001137
                },
                {
                    "name": "D#4",
                    "midi": 63,
                    "time": 148.20000000000047,
                    "velocity": 0.4409448818897638,
                    "duration": 0.30000000000001137
                },
                {
                    "name": "D4",
                    "midi": 62,
                    "time": 148.50000000000048,
                    "velocity": 0.3937007874015748,
                    "duration": 0.30000000000001137
                },
                {
                    "name": "G4",
                    "midi": 67,
                    "time": 148.8000000000005,
                    "velocity": 0.4645669291338583,
                    "duration": 0.5999999999999943
                },
                {
                    "name": "A4",
                    "midi": 69,
                    "time": 149.4000000000005,
                    "velocity": 0.4330708661417323,
                    "duration": 0.30000000000001137
                },
                {
                    "name": "B4",
                    "midi": 71,
                    "time": 149.7000000000005,
                    "velocity": 0.4645669291338583,
                    "duration": 0.29999999999998295
                },
                {
                    "name": "D#4",
                    "midi": 63,
                    "time": 149.9250000000005,
                    "velocity": 0.47244094488188976,
                    "duration": 1.5749999999999886
                },
                {
                    "name": "D#5",
                    "midi": 75,
                    "time": 150.00000000000048,
                    "velocity": 0.5433070866141733,
                    "duration": 1.5
                },
                {
                    "name": "D5",
                    "midi": 74,
                    "time": 151.50000000000048,
                    "velocity": 0.4015748031496063,
                    "duration": 0.4199999999999875
                },
                {
                    "name": "C5",
                    "midi": 72,
                    "time": 151.92000000000047,
                    "velocity": 0.4330708661417323,
                    "duration": 0.12000000000000455
                },
                {
                    "name": "A#4",
                    "midi": 70,
                    "time": 152.04000000000048,
                    "velocity": 0.41732283464566927,
                    "duration": 0.12000000000000455
                },
                {
                    "name": "A4",
                    "midi": 69,
                    "time": 152.16000000000048,
                    "velocity": 0.4015748031496063,
                    "duration": 0.12000000000000455
                },
                {
                    "name": "G4",
                    "midi": 67,
                    "time": 152.28000000000048,
                    "velocity": 0.3937007874015748,
                    "duration": 0.12000000000000455
                },
                {
                    "name": "F4",
                    "midi": 65,
                    "time": 152.4000000000005,
                    "velocity": 0.4645669291338583,
                    "duration": 1.9200000000000443
                },
                {
                    "name": "D#4",
                    "midi": 63,
                    "time": 152.4000000000005,
                    "velocity": 0.4645669291338583,
                    "duration": 0.30000000000001137
                },
                {
                    "name": "D4",
                    "midi": 62,
                    "time": 152.7000000000005,
                    "velocity": 0.41732283464566927,
                    "duration": 0.30000000000001137
                },
                {
                    "name": "C4",
                    "midi": 60,
                    "time": 153.0000000000005,
                    "velocity": 0.3858267716535433,
                    "duration": 0.30000000000001137
                },
                {
                    "name": "A#3",
                    "midi": 58,
                    "time": 153.30000000000052,
                    "velocity": 0.3779527559055118,
                    "duration": 0.30000000000001137
                },
                {
                    "name": "G4",
                    "midi": 67,
                    "time": 154.32000000000053,
                    "velocity": 0.33070866141732286,
                    "duration": 0.12000000000000455
                },
                {
                    "name": "A4",
                    "midi": 69,
                    "time": 154.44000000000054,
                    "velocity": 0.36220472440944884,
                    "duration": 0.12000000000000455
                },
                {
                    "name": "A#4",
                    "midi": 70,
                    "time": 154.56000000000054,
                    "velocity": 0.3937007874015748,
                    "duration": 0.12000000000000455
                },
                {
                    "name": "C5",
                    "midi": 72,
                    "time": 154.68000000000055,
                    "velocity": 0.4251968503937008,
                    "duration": 0.12000000000000455
                },
                {
                    "name": "D5",
                    "midi": 74,
                    "time": 154.80000000000055,
                    "velocity": 0.4645669291338583,
                    "duration": 0.30000000000001137
                },
                {
                    "name": "D4",
                    "midi": 62,
                    "time": 154.95000000000056,
                    "velocity": 0.25196850393700787,
                    "duration": 0.15000000000000568
                },
                {
                    "name": "C5",
                    "midi": 72,
                    "time": 155.10000000000056,
                    "velocity": 0.4330708661417323,
                    "duration": 0.30000000000001137
                },
                {
                    "name": "A#4",
                    "midi": 70,
                    "time": 155.40000000000057,
                    "velocity": 0.5118110236220472,
                    "duration": 0.30000000000001137
                },
                {
                    "name": "D4",
                    "midi": 62,
                    "time": 155.55000000000058,
                    "velocity": 0.29133858267716534,
                    "duration": 0.15000000000000568
                },
                {
                    "name": "A4",
                    "midi": 69,
                    "time": 155.70000000000059,
                    "velocity": 0.4251968503937008,
                    "duration": 0.30000000000001137
                },
                {
                    "name": "G5",
                    "midi": 79,
                    "time": 156.01250000000059,
                    "velocity": 0.5433070866141733,
                    "duration": 0.2874999999999943
                },
                {
                    "name": "F5",
                    "midi": 77,
                    "time": 156.30000000000058,
                    "velocity": 0.4409448818897638,
                    "duration": 0.30000000000001137
                },
                {
                    "name": "D#5",
                    "midi": 75,
                    "time": 156.6000000000006,
                    "velocity": 0.5039370078740157,
                    "duration": 0.30000000000001137
                },
                {
                    "name": "F4",
                    "midi": 65,
                    "time": 156.7500000000006,
                    "velocity": 0.25196850393700787,
                    "duration": 0.15000000000000568
                },
                {
                    "name": "D5",
                    "midi": 74,
                    "time": 156.9000000000006,
                    "velocity": 0.4251968503937008,
                    "duration": 0.30000000000001137
                },
                {
                    "name": "C5",
                    "midi": 72,
                    "time": 157.2000000000006,
                    "velocity": 0.4645669291338583,
                    "duration": 0.30000000000001137
                },
                {
                    "name": "C4",
                    "midi": 60,
                    "time": 157.35000000000062,
                    "velocity": 0.25196850393700787,
                    "duration": 0.15000000000000568
                },
                {
                    "name": "A#4",
                    "midi": 70,
                    "time": 157.50000000000063,
                    "velocity": 0.4015748031496063,
                    "duration": 0.30000000000001137
                },
                {
                    "name": "G#4",
                    "midi": 68,
                    "time": 157.80000000000064,
                    "velocity": 0.44881889763779526,
                    "duration": 0.30000000000001137
                },
                {
                    "name": "C4",
                    "midi": 60,
                    "time": 157.95000000000064,
                    "velocity": 0.25196850393700787,
                    "duration": 0.15000000000000568
                },
                {
                    "name": "G4",
                    "midi": 67,
                    "time": 158.10000000000065,
                    "velocity": 0.4094488188976378,
                    "duration": 0.30000000000001137
                },
                {
                    "name": "F5",
                    "midi": 77,
                    "time": 158.41250000000065,
                    "velocity": 0.5118110236220472,
                    "duration": 0.2874999999999943
                },
                {
                    "name": "D#5",
                    "midi": 75,
                    "time": 158.70000000000064,
                    "velocity": 0.4409448818897638,
                    "duration": 0.30000000000001137
                },
                {
                    "name": "D5",
                    "midi": 74,
                    "time": 159.00000000000065,
                    "velocity": 0.5039370078740157,
                    "duration": 0.30000000000001137
                },
                {
                    "name": "D#4",
                    "midi": 63,
                    "time": 159.15000000000066,
                    "velocity": 0.25196850393700787,
                    "duration": 0.15000000000000568
                },
                {
                    "name": "C5",
                    "midi": 72,
                    "time": 159.30000000000067,
                    "velocity": 0.4251968503937008,
                    "duration": 0.30000000000001137
                },
                {
                    "name": "A#4",
                    "midi": 70,
                    "time": 159.60000000000068,
                    "velocity": 0.4645669291338583,
                    "duration": 0.30000000000001137
                },
                {
                    "name": "D4",
                    "midi": 62,
                    "time": 159.75000000000068,
                    "velocity": 0.25196850393700787,
                    "duration": 0.15000000000000568
                },
                {
                    "name": "G#4",
                    "midi": 68,
                    "time": 159.9000000000007,
                    "velocity": 0.4015748031496063,
                    "duration": 0.30000000000001137
                },
                {
                    "name": "G4",
                    "midi": 67,
                    "time": 160.2000000000007,
                    "velocity": 0.44881889763779526,
                    "duration": 0.30000000000001137
                },
                {
                    "name": "G#3",
                    "midi": 56,
                    "time": 160.3500000000007,
                    "velocity": 0.25196850393700787,
                    "duration": 0.15000000000000568
                },
                {
                    "name": "F#4",
                    "midi": 66,
                    "time": 160.5000000000007,
                    "velocity": 0.4094488188976378,
                    "duration": 0.30000000000001137
                },
                {
                    "name": "G4",
                    "midi": 67,
                    "time": 160.80000000000072,
                    "velocity": 0.4645669291338583,
                    "duration": 0.30000000000001137
                },
                {
                    "name": "G3",
                    "midi": 55,
                    "time": 160.95000000000073,
                    "velocity": 0.25196850393700787,
                    "duration": 0.15000000000000568
                },
                {
                    "name": "D#4",
                    "midi": 63,
                    "time": 161.10000000000073,
                    "velocity": 0.4015748031496063,
                    "duration": 0.30000000000001137
                },
                {
                    "name": "D4",
                    "midi": 62,
                    "time": 161.40000000000074,
                    "velocity": 0.41732283464566927,
                    "duration": 0.30000000000001137
                },
                {
                    "name": "G3",
                    "midi": 55,
                    "time": 161.55000000000075,
                    "velocity": 0.25196850393700787,
                    "duration": 0.15000000000000568
                },
                {
                    "name": "C#4",
                    "midi": 61,
                    "time": 161.70000000000076,
                    "velocity": 0.3779527559055118,
                    "duration": 0.30000000000001137
                },
                {
                    "name": "D4",
                    "midi": 62,
                    "time": 162.00000000000077,
                    "velocity": 0.41732283464566927,
                    "duration": 0.19999999999998863
                },
                {
                    "name": "A3",
                    "midi": 57,
                    "time": 162.20000000000076,
                    "velocity": 0.3228346456692913,
                    "duration": 0.19999999999998863
                },
                {
                    "name": "G3",
                    "midi": 55,
                    "time": 162.40000000000074,
                    "velocity": 0.3228346456692913,
                    "duration": 0.19999999999998863
                },
                {
                    "name": "F#3",
                    "midi": 54,
                    "time": 162.60000000000073,
                    "velocity": 0.3779527559055118,
                    "duration": 0.30000000000001137
                },
                {
                    "name": "G3",
                    "midi": 55,
                    "time": 162.90000000000074,
                    "velocity": 0.2677165354330709,
                    "duration": 0.30000000000001137
                },
                {
                    "name": "E3",
                    "midi": 52,
                    "time": 162.90000000000074,
                    "velocity": 0.2204724409448819,
                    "duration": 0.30000000000001137
                },
                {
                    "name": "F#3",
                    "midi": 54,
                    "time": 163.20000000000076,
                    "velocity": 0.31496062992125984,
                    "duration": 0.5999999999999943
                },
                {
                    "name": "A3",
                    "midi": 57,
                    "time": 163.20000000000076,
                    "velocity": 0.3779527559055118,
                    "duration": 0.5999999999999943
                },
                {
                    "name": "D4",
                    "midi": 62,
                    "time": 163.20000000000076,
                    "velocity": 0.3779527559055118,
                    "duration": 0.5999999999999943
                },
                {
                    "name": "D3",
                    "midi": 50,
                    "time": 164.10000000000076,
                    "velocity": 0.36220472440944884,
                    "duration": 0.07499999999998863
                },
                {
                    "name": "G3",
                    "midi": 55,
                    "time": 164.40000000000074,
                    "velocity": 0.3937007874015748,
                    "duration": 0.09999999999999432
                },
                {
                    "name": "D3",
                    "midi": 50,
                    "time": 164.50000000000074,
                    "velocity": 0.2755905511811024,
                    "duration": 0.09999999999999432
                },
                {
                    "name": "A3",
                    "midi": 57,
                    "time": 164.60000000000073,
                    "velocity": 0.2755905511811024,
                    "duration": 0.09999999999999432
                },
                {
                    "name": "A#3",
                    "midi": 58,
                    "time": 164.70000000000073,
                    "velocity": 0.3937007874015748,
                    "duration": 0.07499999999998863
                },
                {
                    "name": "A3",
                    "midi": 57,
                    "time": 165.0000000000007,
                    "velocity": 0.3937007874015748,
                    "duration": 0.09999999999999432
                },
                {
                    "name": "D3",
                    "midi": 50,
                    "time": 165.1000000000007,
                    "velocity": 0.2992125984251969,
                    "duration": 0.09999999999999432
                },
                {
                    "name": "A#3",
                    "midi": 58,
                    "time": 165.2000000000007,
                    "velocity": 0.30708661417322836,
                    "duration": 0.09999999999999432
                },
                {
                    "name": "C4",
                    "midi": 60,
                    "time": 165.3000000000007,
                    "velocity": 0.3937007874015748,
                    "duration": 0.07499999999998863
                },
                {
                    "name": "A#3",
                    "midi": 58,
                    "time": 165.60000000000068,
                    "velocity": 0.3937007874015748,
                    "duration": 0.09999999999999432
                },
                {
                    "name": "D3",
                    "midi": 50,
                    "time": 165.70000000000067,
                    "velocity": 0.28346456692913385,
                    "duration": 0.09999999999999432
                },
                {
                    "name": "C4",
                    "midi": 60,
                    "time": 165.80000000000067,
                    "velocity": 0.28346456692913385,
                    "duration": 0.09999999999999432
                },
                {
                    "name": "D4",
                    "midi": 62,
                    "time": 165.90000000000066,
                    "velocity": 0.3937007874015748,
                    "duration": 0.07499999999998863
                },
                {
                    "name": "G3",
                    "midi": 55,
                    "time": 166.20000000000064,
                    "velocity": 0.3937007874015748,
                    "duration": 0.09999999999999432
                },
                {
                    "name": "D3",
                    "midi": 50,
                    "time": 166.30000000000064,
                    "velocity": 0.29133858267716534,
                    "duration": 0.09999999999999432
                },
                {
                    "name": "A3",
                    "midi": 57,
                    "time": 166.40000000000063,
                    "velocity": 0.29133858267716534,
                    "duration": 0.09999999999999432
                },
                {
                    "name": "A#3",
                    "midi": 58,
                    "time": 166.50000000000063,
                    "velocity": 0.3937007874015748,
                    "duration": 0.07499999999998863
                },
                {
                    "name": "A3",
                    "midi": 57,
                    "time": 166.8000000000006,
                    "velocity": 0.3937007874015748,
                    "duration": 0.09999999999999432
                },
                {
                    "name": "D#3",
                    "midi": 51,
                    "time": 166.9000000000006,
                    "velocity": 0.2992125984251969,
                    "duration": 0.09999999999999432
                },
                {
                    "name": "A#3",
                    "midi": 58,
                    "time": 167.0000000000006,
                    "velocity": 0.2992125984251969,
                    "duration": 0.09999999999999432
                },
                {
                    "name": "C4",
                    "midi": 60,
                    "time": 167.1000000000006,
                    "velocity": 0.3937007874015748,
                    "duration": 0.07499999999998863
                },
                {
                    "name": "F#3",
                    "midi": 54,
                    "time": 167.40000000000057,
                    "velocity": 0.3937007874015748,
                    "duration": 0.09999999999999432
                },
                {
                    "name": "C3",
                    "midi": 48,
                    "time": 167.50000000000057,
                    "velocity": 0.29133858267716534,
                    "duration": 0.09999999999999432
                },
                {
                    "name": "G3",
                    "midi": 55,
                    "time": 167.60000000000056,
                    "velocity": 0.29133858267716534,
                    "duration": 0.09999999999999432
                },
                {
                    "name": "A3",
                    "midi": 57,
                    "time": 167.70000000000056,
                    "velocity": 0.3937007874015748,
                    "duration": 0.07499999999998863
                },
                {
                    "name": "G3",
                    "midi": 55,
                    "time": 168.00000000000054,
                    "velocity": 0.3937007874015748,
                    "duration": 0.09999999999999432
                },
                {
                    "name": "D3",
                    "midi": 50,
                    "time": 168.10000000000053,
                    "velocity": 0.30708661417322836,
                    "duration": 0.09999999999999432
                },
                {
                    "name": "A3",
                    "midi": 57,
                    "time": 168.20000000000053,
                    "velocity": 0.30708661417322836,
                    "duration": 0.09999999999999432
                },
                {
                    "name": "A#3",
                    "midi": 58,
                    "time": 168.30000000000052,
                    "velocity": 0.3937007874015748,
                    "duration": 0.07499999999998863
                },
                {
                    "name": "A3",
                    "midi": 57,
                    "time": 168.6000000000005,
                    "velocity": 0.3937007874015748,
                    "duration": 0.15000000000000568
                },
                {
                    "name": "F#3",
                    "midi": 54,
                    "time": 168.8250000000005,
                    "velocity": 0.3464566929133858,
                    "duration": 0.07499999999998863
                },
                {
                    "name": "D3",
                    "midi": 50,
                    "time": 168.9000000000005,
                    "velocity": 0.4566929133858268,
                    "duration": 0.07499999999998863
                },
                {
                    "name": "G3",
                    "midi": 55,
                    "time": 169.20000000000047,
                    "velocity": 0.3937007874015748,
                    "duration": 0.09999999999999432
                },
                {
                    "name": "D3",
                    "midi": 50,
                    "time": 169.30000000000047,
                    "velocity": 0.29133858267716534,
                    "duration": 0.09999999999999432
                },
                {
                    "name": "A3",
                    "midi": 57,
                    "time": 169.40000000000046,
                    "velocity": 0.29133858267716534,
                    "duration": 0.09999999999999432
                },
                {
                    "name": "A#3",
                    "midi": 58,
                    "time": 169.50000000000045,
                    "velocity": 0.3937007874015748,
                    "duration": 0.07499999999998863
                },
                {
                    "name": "A3",
                    "midi": 57,
                    "time": 169.80000000000044,
                    "velocity": 0.3937007874015748,
                    "duration": 0.09999999999999432
                },
                {
                    "name": "D3",
                    "midi": 50,
                    "time": 169.90000000000043,
                    "velocity": 0.30708661417322836,
                    "duration": 0.09999999999999432
                },
                {
                    "name": "A#3",
                    "midi": 58,
                    "time": 170.00000000000043,
                    "velocity": 0.30708661417322836,
                    "duration": 0.09999999999999432
                },
                {
                    "name": "C4",
                    "midi": 60,
                    "time": 170.10000000000042,
                    "velocity": 0.3937007874015748,
                    "duration": 0.07499999999998863
                },
                {
                    "name": "A#3",
                    "midi": 58,
                    "time": 170.4000000000004,
                    "velocity": 0.3937007874015748,
                    "duration": 0.09999999999999432
                },
                {
                    "name": "D3",
                    "midi": 50,
                    "time": 170.5000000000004,
                    "velocity": 0.29133858267716534,
                    "duration": 0.09999999999999432
                },
                {
                    "name": "C4",
                    "midi": 60,
                    "time": 170.6000000000004,
                    "velocity": 0.29133858267716534,
                    "duration": 0.09999999999999432
                },
                {
                    "name": "D4",
                    "midi": 62,
                    "time": 170.7000000000004,
                    "velocity": 0.3937007874015748,
                    "duration": 0.07499999999998863
                },
                {
                    "name": "G3",
                    "midi": 55,
                    "time": 171.00000000000037,
                    "velocity": 0.3937007874015748,
                    "duration": 0.09999999999999432
                },
                {
                    "name": "D3",
                    "midi": 50,
                    "time": 171.10000000000036,
                    "velocity": 0.30708661417322836,
                    "duration": 0.09999999999999432
                },
                {
                    "name": "A3",
                    "midi": 57,
                    "time": 171.20000000000036,
                    "velocity": 0.30708661417322836,
                    "duration": 0.09999999999999432
                },
                {
                    "name": "A#3",
                    "midi": 58,
                    "time": 171.30000000000035,
                    "velocity": 0.3937007874015748,
                    "duration": 0.07499999999998863
                },
                {
                    "name": "A3",
                    "midi": 57,
                    "time": 171.60000000000034,
                    "velocity": 0.3937007874015748,
                    "duration": 0.09999999999999432
                },
                {
                    "name": "D#3",
                    "midi": 51,
                    "time": 171.70000000000033,
                    "velocity": 0.30708661417322836,
                    "duration": 0.09999999999999432
                },
                {
                    "name": "A#3",
                    "midi": 58,
                    "time": 171.80000000000032,
                    "velocity": 0.30708661417322836,
                    "duration": 0.09999999999999432
                },
                {
                    "name": "C4",
                    "midi": 60,
                    "time": 171.90000000000032,
                    "velocity": 0.3937007874015748,
                    "duration": 0.07499999999998863
                },
                {
                    "name": "B3",
                    "midi": 59,
                    "time": 172.2000000000003,
                    "velocity": 0.3937007874015748,
                    "duration": 0.09999999999999432
                },
                {
                    "name": "D3",
                    "midi": 50,
                    "time": 172.3000000000003,
                    "velocity": 0.2992125984251969,
                    "duration": 0.09999999999999432
                },
                {
                    "name": "C4",
                    "midi": 60,
                    "time": 172.4000000000003,
                    "velocity": 0.2992125984251969,
                    "duration": 0.09999999999999432
                },
                {
                    "name": "D4",
                    "midi": 62,
                    "time": 172.50000000000028,
                    "velocity": 0.3937007874015748,
                    "duration": 0.07499999999998863
                },
                {
                    "name": "C4",
                    "midi": 60,
                    "time": 172.80000000000027,
                    "velocity": 0.3937007874015748,
                    "duration": 0.09999999999999432
                },
                {
                    "name": "G3",
                    "midi": 55,
                    "time": 172.90000000000026,
                    "velocity": 0.33070866141732286,
                    "duration": 0.09999999999999432
                },
                {
                    "name": "D4",
                    "midi": 62,
                    "time": 173.00000000000026,
                    "velocity": 0.3464566929133858,
                    "duration": 0.09999999999999432
                },
                {
                    "name": "D#4",
                    "midi": 63,
                    "time": 173.10000000000025,
                    "velocity": 0.3937007874015748,
                    "duration": 0.07499999999998863
                },
                {
                    "name": "B3",
                    "midi": 59,
                    "time": 173.40000000000023,
                    "velocity": 0.4251968503937008,
                    "duration": 0.09999999999999432
                },
                {
                    "name": "F3",
                    "midi": 53,
                    "time": 173.50000000000023,
                    "velocity": 0.3937007874015748,
                    "duration": 0.09999999999999432
                },
                {
                    "name": "C4",
                    "midi": 60,
                    "time": 173.60000000000022,
                    "velocity": 0.3937007874015748,
                    "duration": 0.09999999999999432
                },
                {
                    "name": "D4",
                    "midi": 62,
                    "time": 173.70000000000022,
                    "velocity": 0.4409448818897638,
                    "duration": 0.07499999999998863
                },
                {
                    "name": "C4",
                    "midi": 60,
                    "time": 174.0000000000002,
                    "velocity": 0.4645669291338583,
                    "duration": 0.09999999999999432
                },
                {
                    "name": "G3",
                    "midi": 55,
                    "time": 174.1000000000002,
                    "velocity": 0.4015748031496063,
                    "duration": 0.09999999999999432
                },
                {
                    "name": "D4",
                    "midi": 62,
                    "time": 174.2000000000002,
                    "velocity": 0.4015748031496063,
                    "duration": 0.09999999999999432
                },
                {
                    "name": "D#4",
                    "midi": 63,
                    "time": 174.30000000000018,
                    "velocity": 0.4645669291338583,
                    "duration": 0.07499999999998863
                },
                {
                    "name": "D#4",
                    "midi": 63,
                    "time": 174.60000000000016,
                    "velocity": 0.49606299212598426,
                    "duration": 0.09999999999999432
                },
                {
                    "name": "G3",
                    "midi": 55,
                    "time": 174.70000000000016,
                    "velocity": 0.41732283464566927,
                    "duration": 0.09999999999999432
                },
                {
                    "name": "F4",
                    "midi": 65,
                    "time": 174.80000000000015,
                    "velocity": 0.4251968503937008,
                    "duration": 0.09999999999999432
                },
                {
                    "name": "G4",
                    "midi": 67,
                    "time": 174.90000000000015,
                    "velocity": 0.48031496062992124,
                    "duration": 0.07499999999998863
                },
                {
                    "name": "F#4",
                    "midi": 66,
                    "time": 175.20000000000013,
                    "velocity": 0.5511811023622047,
                    "duration": 0.09999999999999432
                },
                {
                    "name": "F#3",
                    "midi": 54,
                    "time": 175.30000000000013,
                    "velocity": 0.44881889763779526,
                    "duration": 0.09999999999999432
                },
                {
                    "name": "G4",
                    "midi": 67,
                    "time": 175.40000000000012,
                    "velocity": 0.44881889763779526,
                    "duration": 0.09999999999999432
                },
                {
                    "name": "A4",
                    "midi": 69,
                    "time": 175.5000000000001,
                    "velocity": 0.5590551181102362,
                    "duration": 0.07499999999998863
                },
                {
                    "name": "D4",
                    "midi": 62,
                    "time": 175.8000000000001,
                    "velocity": 0.5275590551181102,
                    "duration": 0.07499999999998863
                },
                {
                    "name": "D4",
                    "midi": 62,
                    "time": 176.10000000000008,
                    "velocity": 0.5748031496062992,
                    "duration": 0.07499999999998863
                },
                {
                    "name": "G4",
                    "midi": 67,
                    "time": 176.40000000000006,
                    "velocity": 0.5039370078740157,
                    "duration": 0.09999999999999432
                },
                {
                    "name": "D4",
                    "midi": 62,
                    "time": 176.50000000000006,
                    "velocity": 0.3858267716535433,
                    "duration": 0.09999999999999432
                },
                {
                    "name": "A4",
                    "midi": 69,
                    "time": 176.60000000000005,
                    "velocity": 0.3858267716535433,
                    "duration": 0.09999999999999432
                },
                {
                    "name": "A#4",
                    "midi": 70,
                    "time": 176.70000000000005,
                    "velocity": 0.5039370078740157,
                    "duration": 0.07499999999998863
                },
                {
                    "name": "A4",
                    "midi": 69,
                    "time": 177.00000000000003,
                    "velocity": 0.5039370078740157,
                    "duration": 0.09999999999999432
                },
                {
                    "name": "D4",
                    "midi": 62,
                    "time": 177.10000000000002,
                    "velocity": 0.3937007874015748,
                    "duration": 0.09999999999999432
                },
                {
                    "name": "A#4",
                    "midi": 70,
                    "time": 177.20000000000002,
                    "velocity": 0.3937007874015748,
                    "duration": 0.09999999999999432
                },
                {
                    "name": "C5",
                    "midi": 72,
                    "time": 177.3,
                    "velocity": 0.5039370078740157,
                    "duration": 0.07499999999998863
                },
                {
                    "name": "A#4",
                    "midi": 70,
                    "time": 177.6,
                    "velocity": 0.5039370078740157,
                    "duration": 0.09999999999999432
                },
                {
                    "name": "D4",
                    "midi": 62,
                    "time": 177.7,
                    "velocity": 0.3858267716535433,
                    "duration": 0.09999999999999432
                },
                {
                    "name": "C5",
                    "midi": 72,
                    "time": 177.79999999999998,
                    "velocity": 0.3858267716535433,
                    "duration": 0.09999999999999432
                },
                {
                    "name": "D5",
                    "midi": 74,
                    "time": 177.89999999999998,
                    "velocity": 0.5039370078740157,
                    "duration": 0.07499999999998863
                },
                {
                    "name": "G4",
                    "midi": 67,
                    "time": 178.19999999999996,
                    "velocity": 0.5039370078740157,
                    "duration": 0.09999999999999432
                },
                {
                    "name": "D4",
                    "midi": 62,
                    "time": 178.29999999999995,
                    "velocity": 0.4015748031496063,
                    "duration": 0.09999999999999432
                },
                {
                    "name": "A4",
                    "midi": 69,
                    "time": 178.39999999999995,
                    "velocity": 0.4015748031496063,
                    "duration": 0.09999999999999432
                },
                {
                    "name": "A#4",
                    "midi": 70,
                    "time": 178.49999999999994,
                    "velocity": 0.5039370078740157,
                    "duration": 0.07499999999998863
                },
                {
                    "name": "A4",
                    "midi": 69,
                    "time": 178.79999999999993,
                    "velocity": 0.5039370078740157,
                    "duration": 0.09999999999999432
                },
                {
                    "name": "D#4",
                    "midi": 63,
                    "time": 178.89999999999992,
                    "velocity": 0.3937007874015748,
                    "duration": 0.09999999999999432
                },
                {
                    "name": "A#4",
                    "midi": 70,
                    "time": 178.99999999999991,
                    "velocity": 0.3937007874015748,
                    "duration": 0.09999999999999432
                },
                {
                    "name": "C5",
                    "midi": 72,
                    "time": 179.0999999999999,
                    "velocity": 0.5039370078740157,
                    "duration": 0.07499999999998863
                },
                {
                    "name": "F#4",
                    "midi": 66,
                    "time": 179.3999999999999,
                    "velocity": 0.5039370078740157,
                    "duration": 0.09999999999999432
                },
                {
                    "name": "C4",
                    "midi": 60,
                    "time": 179.4999999999999,
                    "velocity": 0.3937007874015748,
                    "duration": 0.09999999999999432
                },
                {
                    "name": "G4",
                    "midi": 67,
                    "time": 179.59999999999988,
                    "velocity": 0.3937007874015748,
                    "duration": 0.09999999999999432
                },
                {
                    "name": "A4",
                    "midi": 69,
                    "time": 179.69999999999987,
                    "velocity": 0.5039370078740157,
                    "duration": 0.07499999999998863
                },
                {
                    "name": "G4",
                    "midi": 67,
                    "time": 179.99999999999986,
                    "velocity": 0.5039370078740157,
                    "duration": 0.09999999999999432
                },
                {
                    "name": "D4",
                    "midi": 62,
                    "time": 180.09999999999985,
                    "velocity": 0.4015748031496063,
                    "duration": 0.09999999999999432
                },
                {
                    "name": "A4",
                    "midi": 69,
                    "time": 180.19999999999985,
                    "velocity": 0.4015748031496063,
                    "duration": 0.09999999999999432
                },
                {
                    "name": "A#4",
                    "midi": 70,
                    "time": 180.29999999999984,
                    "velocity": 0.5039370078740157,
                    "duration": 0.07499999999998863
                },
                {
                    "name": "A4",
                    "midi": 69,
                    "time": 180.59999999999982,
                    "velocity": 0.5039370078740157,
                    "duration": 0.15000000000000568
                },
                {
                    "name": "F#4",
                    "midi": 66,
                    "time": 180.82499999999982,
                    "velocity": 0.4094488188976378,
                    "duration": 0.07499999999998863
                },
                {
                    "name": "D4",
                    "midi": 62,
                    "time": 180.8999999999998,
                    "velocity": 0.4881889763779528,
                    "duration": 0.07499999999998863
                },
                {
                    "name": "G4",
                    "midi": 67,
                    "time": 181.1999999999998,
                    "velocity": 0.5039370078740157,
                    "duration": 0.09999999999999432
                },
                {
                    "name": "D4",
                    "midi": 62,
                    "time": 181.29999999999978,
                    "velocity": 0.3858267716535433,
                    "duration": 0.09999999999999432
                },
                {
                    "name": "A4",
                    "midi": 69,
                    "time": 181.39999999999978,
                    "velocity": 0.3858267716535433,
                    "duration": 0.09999999999999432
                },
                {
                    "name": "A#4",
                    "midi": 70,
                    "time": 181.49999999999977,
                    "velocity": 0.5039370078740157,
                    "duration": 0.07499999999998863
                },
                {
                    "name": "A4",
                    "midi": 69,
                    "time": 181.79999999999976,
                    "velocity": 0.5039370078740157,
                    "duration": 0.09999999999999432
                },
                {
                    "name": "D4",
                    "midi": 62,
                    "time": 181.89999999999975,
                    "velocity": 0.4094488188976378,
                    "duration": 0.09999999999999432
                },
                {
                    "name": "A#4",
                    "midi": 70,
                    "time": 181.99999999999974,
                    "velocity": 0.4094488188976378,
                    "duration": 0.09999999999999432
                },
                {
                    "name": "C5",
                    "midi": 72,
                    "time": 182.09999999999974,
                    "velocity": 0.5039370078740157,
                    "duration": 0.07499999999998863
                },
                {
                    "name": "A#4",
                    "midi": 70,
                    "time": 182.39999999999972,
                    "velocity": 0.5039370078740157,
                    "duration": 0.09999999999999432
                },
                {
                    "name": "D4",
                    "midi": 62,
                    "time": 182.49999999999972,
                    "velocity": 0.3858267716535433,
                    "duration": 0.09999999999999432
                },
                {
                    "name": "C5",
                    "midi": 72,
                    "time": 182.5999999999997,
                    "velocity": 0.3858267716535433,
                    "duration": 0.09999999999999432
                },
                {
                    "name": "D5",
                    "midi": 74,
                    "time": 182.6999999999997,
                    "velocity": 0.5039370078740157,
                    "duration": 0.07499999999998863
                },
                {
                    "name": "D#5",
                    "midi": 75,
                    "time": 182.9999999999997,
                    "velocity": 0.5590551181102362,
                    "duration": 0.09999999999999432
                },
                {
                    "name": "G4",
                    "midi": 67,
                    "time": 183.09999999999968,
                    "velocity": 0.4015748031496063,
                    "duration": 0.09999999999999432
                },
                {
                    "name": "F5",
                    "midi": 77,
                    "time": 183.19999999999968,
                    "velocity": 0.4015748031496063,
                    "duration": 0.09999999999999432
                },
                {
                    "name": "G5",
                    "midi": 79,
                    "time": 183.29999999999967,
                    "velocity": 0.5039370078740157,
                    "duration": 0.07499999999998863
                },
                {
                    "name": "A4",
                    "midi": 69,
                    "time": 183.59999999999965,
                    "velocity": 0.4645669291338583,
                    "duration": 0.09999999999999432
                },
                {
                    "name": "C4",
                    "midi": 60,
                    "time": 183.69999999999965,
                    "velocity": 0.36220472440944884,
                    "duration": 0.09999999999999432
                },
                {
                    "name": "A#4",
                    "midi": 70,
                    "time": 183.79999999999964,
                    "velocity": 0.4015748031496063,
                    "duration": 0.09999999999999432
                },
                {
                    "name": "C5",
                    "midi": 72,
                    "time": 183.89999999999964,
                    "velocity": 0.4645669291338583,
                    "duration": 0.07499999999998863
                },
                {
                    "name": "D5",
                    "midi": 74,
                    "time": 184.19999999999962,
                    "velocity": 0.5590551181102362,
                    "duration": 0.09999999999999432
                },
                {
                    "name": "F4",
                    "midi": 65,
                    "time": 184.2999999999996,
                    "velocity": 0.41732283464566927,
                    "duration": 0.09999999999999432
                },
                {
                    "name": "D#5",
                    "midi": 75,
                    "time": 184.3999999999996,
                    "velocity": 0.41732283464566927,
                    "duration": 0.09999999999999432
                },
                {
                    "name": "F5",
                    "midi": 77,
                    "time": 184.4999999999996,
                    "velocity": 0.5118110236220472,
                    "duration": 0.07499999999998863
                },
                {
                    "name": "G4",
                    "midi": 67,
                    "time": 184.79999999999959,
                    "velocity": 0.4645669291338583,
                    "duration": 0.09999999999999432
                },
                {
                    "name": "A#3",
                    "midi": 58,
                    "time": 184.89999999999958,
                    "velocity": 0.3700787401574803,
                    "duration": 0.09999999999999432
                },
                {
                    "name": "A4",
                    "midi": 69,
                    "time": 184.99999999999957,
                    "velocity": 0.3700787401574803,
                    "duration": 0.09999999999999432
                },
                {
                    "name": "A#4",
                    "midi": 70,
                    "time": 185.09999999999957,
                    "velocity": 0.4645669291338583,
                    "duration": 0.07499999999998863
                },
                {
                    "name": "C5",
                    "midi": 72,
                    "time": 185.39999999999955,
                    "velocity": 0.5354330708661418,
                    "duration": 0.09999999999999432
                },
                {
                    "name": "D#4",
                    "midi": 63,
                    "time": 185.49999999999955,
                    "velocity": 0.4251968503937008,
                    "duration": 0.09999999999999432
                },
                {
                    "name": "D5",
                    "midi": 74,
                    "time": 185.59999999999954,
                    "velocity": 0.4251968503937008,
                    "duration": 0.09999999999999432
                },
                {
                    "name": "D#5",
                    "midi": 75,
                    "time": 185.69999999999953,
                    "velocity": 0.5196850393700787,
                    "duration": 0.07499999999998863
                },
                {
                    "name": "F#4",
                    "midi": 66,
                    "time": 185.99999999999952,
                    "velocity": 0.4645669291338583,
                    "duration": 0.09999999999999432
                },
                {
                    "name": "A3",
                    "midi": 57,
                    "time": 186.0999999999995,
                    "velocity": 0.36220472440944884,
                    "duration": 0.09999999999999432
                },
                {
                    "name": "G4",
                    "midi": 67,
                    "time": 186.1999999999995,
                    "velocity": 0.36220472440944884,
                    "duration": 0.09999999999999432
                },
                {
                    "name": "A4",
                    "midi": 69,
                    "time": 186.2999999999995,
                    "velocity": 0.4566929133858268,
                    "duration": 0.07499999999998863
                },
                {
                    "name": "C5",
                    "midi": 72,
                    "time": 186.59999999999948,
                    "velocity": 0.5196850393700787,
                    "duration": 0.09999999999999432
                },
                {
                    "name": "D#4",
                    "midi": 63,
                    "time": 186.69999999999948,
                    "velocity": 0.4015748031496063,
                    "duration": 0.09999999999999432
                },
                {
                    "name": "D5",
                    "midi": 74,
                    "time": 186.79999999999947,
                    "velocity": 0.4015748031496063,
                    "duration": 0.09999999999999432
                },
                {
                    "name": "D#5",
                    "midi": 75,
                    "time": 186.89999999999947,
                    "velocity": 0.5118110236220472,
                    "duration": 0.07499999999998863
                },
                {
                    "name": "F#4",
                    "midi": 66,
                    "time": 187.19999999999945,
                    "velocity": 0.4881889763779528,
                    "duration": 0.09999999999999432
                },
                {
                    "name": "A3",
                    "midi": 57,
                    "time": 187.29999999999944,
                    "velocity": 0.4015748031496063,
                    "duration": 0.09999999999999432
                },
                {
                    "name": "G4",
                    "midi": 67,
                    "time": 187.39999999999944,
                    "velocity": 0.36220472440944884,
                    "duration": 0.09999999999999432
                },
                {
                    "name": "A4",
                    "midi": 69,
                    "time": 187.49999999999943,
                    "velocity": 0.47244094488188976,
                    "duration": 0.07499999999998863
                },
                {
                    "name": "C5",
                    "midi": 72,
                    "time": 187.79999999999941,
                    "velocity": 0.5196850393700787,
                    "duration": 0.09999999999999432
                },
                {
                    "name": "D#4",
                    "midi": 63,
                    "time": 187.8999999999994,
                    "velocity": 0.3937007874015748,
                    "duration": 0.09999999999999432
                },
                {
                    "name": "D5",
                    "midi": 74,
                    "time": 187.9999999999994,
                    "velocity": 0.3937007874015748,
                    "duration": 0.09999999999999432
                },
                {
                    "name": "D#5",
                    "midi": 75,
                    "time": 188.0999999999994,
                    "velocity": 0.5118110236220472,
                    "duration": 0.07499999999998863
                },
                {
                    "name": "F#4",
                    "midi": 66,
                    "time": 188.39999999999938,
                    "velocity": 0.5196850393700787,
                    "duration": 0.09999999999999432
                },
                {
                    "name": "A3",
                    "midi": 57,
                    "time": 188.49999999999937,
                    "velocity": 0.41732283464566927,
                    "duration": 0.09999999999999432
                },
                {
                    "name": "G4",
                    "midi": 67,
                    "time": 188.59999999999937,
                    "velocity": 0.41732283464566927,
                    "duration": 0.09999999999999432
                },
                {
                    "name": "A4",
                    "midi": 69,
                    "time": 188.69999999999936,
                    "velocity": 0.5039370078740157,
                    "duration": 0.07499999999998863
                },
                {
                    "name": "C4",
                    "midi": 60,
                    "time": 188.99999999999935,
                    "velocity": 0.4645669291338583,
                    "duration": 0.09999999999999432
                },
                {
                    "name": "A3",
                    "midi": 57,
                    "time": 189.09999999999934,
                    "velocity": 0.3700787401574803,
                    "duration": 0.09999999999999432
                },
                {
                    "name": "D4",
                    "midi": 62,
                    "time": 189.19999999999933,
                    "velocity": 0.3700787401574803,
                    "duration": 0.09999999999999432
                },
                {
                    "name": "D#4",
                    "midi": 63,
                    "time": 189.29999999999933,
                    "velocity": 0.4409448818897638,
                    "duration": 0.07499999999998863
                },
                {
                    "name": "F#3",
                    "midi": 54,
                    "time": 189.5999999999993,
                    "velocity": 0.4015748031496063,
                    "duration": 0.09999999999999432
                },
                {
                    "name": "D3",
                    "midi": 50,
                    "time": 189.6999999999993,
                    "velocity": 0.33858267716535434,
                    "duration": 0.09999999999999432
                },
                {
                    "name": "G3",
                    "midi": 55,
                    "time": 189.7999999999993,
                    "velocity": 0.33858267716535434,
                    "duration": 0.09999999999999432
                },
                {
                    "name": "A3",
                    "midi": 57,
                    "time": 189.8999999999993,
                    "velocity": 0.4094488188976378,
                    "duration": 0.07499999999998863
                },
                {
                    "name": "D3",
                    "midi": 50,
                    "time": 190.19999999999928,
                    "velocity": 0.3937007874015748,
                    "duration": 0.07499999999998863
                },
                {
                    "name": "D3",
                    "midi": 50,
                    "time": 190.49999999999926,
                    "velocity": 0.4094488188976378,
                    "duration": 0.07499999999998863
                },
                {
                    "name": "G3",
                    "midi": 55,
                    "time": 190.79999999999924,
                    "velocity": 0.3937007874015748,
                    "duration": 0.09999999999999432
                },
                {
                    "name": "D3",
                    "midi": 50,
                    "time": 190.89999999999924,
                    "velocity": 0.2992125984251969,
                    "duration": 0.09999999999999432
                },
                {
                    "name": "A3",
                    "midi": 57,
                    "time": 190.99999999999923,
                    "velocity": 0.30708661417322836,
                    "duration": 0.09999999999999432
                },
                {
                    "name": "A#3",
                    "midi": 58,
                    "time": 191.09999999999923,
                    "velocity": 0.3937007874015748,
                    "duration": 0.07499999999998863
                },
                {
                    "name": "A3",
                    "midi": 57,
                    "time": 191.3999999999992,
                    "velocity": 0.3937007874015748,
                    "duration": 0.09999999999999432
                },
                {
                    "name": "D3",
                    "midi": 50,
                    "time": 191.4999999999992,
                    "velocity": 0.30708661417322836,
                    "duration": 0.09999999999999432
                },
                {
                    "name": "A#3",
                    "midi": 58,
                    "time": 191.5999999999992,
                    "velocity": 0.30708661417322836,
                    "duration": 0.09999999999999432
                },
                {
                    "name": "C4",
                    "midi": 60,
                    "time": 191.6999999999992,
                    "velocity": 0.3937007874015748,
                    "duration": 0.07499999999998863
                },
                {
                    "name": "A#3",
                    "midi": 58,
                    "time": 191.99999999999918,
                    "velocity": 0.3937007874015748,
                    "duration": 0.09999999999999432
                },
                {
                    "name": "D3",
                    "midi": 50,
                    "time": 192.09999999999917,
                    "velocity": 0.2992125984251969,
                    "duration": 0.09999999999999432
                },
                {
                    "name": "C4",
                    "midi": 60,
                    "time": 192.19999999999916,
                    "velocity": 0.2992125984251969,
                    "duration": 0.09999999999999432
                },
                {
                    "name": "D4",
                    "midi": 62,
                    "time": 192.29999999999916,
                    "velocity": 0.4015748031496063,
                    "duration": 0.07499999999998863
                },
                {
                    "name": "G3",
                    "midi": 55,
                    "time": 192.59999999999914,
                    "velocity": 0.4094488188976378,
                    "duration": 0.09999999999999432
                },
                {
                    "name": "D3",
                    "midi": 50,
                    "time": 192.69999999999914,
                    "velocity": 0.33070866141732286,
                    "duration": 0.09999999999999432
                },
                {
                    "name": "A3",
                    "midi": 57,
                    "time": 192.79999999999913,
                    "velocity": 0.33070866141732286,
                    "duration": 0.09999999999999432
                },
                {
                    "name": "A#3",
                    "midi": 58,
                    "time": 192.89999999999912,
                    "velocity": 0.41732283464566927,
                    "duration": 0.07499999999998863
                },
                {
                    "name": "A3",
                    "midi": 57,
                    "time": 193.1999999999991,
                    "velocity": 0.4330708661417323,
                    "duration": 0.09999999999999432
                },
                {
                    "name": "D#3",
                    "midi": 51,
                    "time": 193.2999999999991,
                    "velocity": 0.30708661417322836,
                    "duration": 0.09999999999999432
                },
                {
                    "name": "A#3",
                    "midi": 58,
                    "time": 193.3999999999991,
                    "velocity": 0.33858267716535434,
                    "duration": 0.09999999999999432
                },
                {
                    "name": "C4",
                    "midi": 60,
                    "time": 193.4999999999991,
                    "velocity": 0.4409448818897638,
                    "duration": 0.07499999999998863
                },
                {
                    "name": "B3",
                    "midi": 59,
                    "time": 193.79999999999907,
                    "velocity": 0.44881889763779526,
                    "duration": 0.09999999999999432
                },
                {
                    "name": "F3",
                    "midi": 53,
                    "time": 193.89999999999907,
                    "velocity": 0.33858267716535434,
                    "duration": 0.09999999999999432
                },
                {
                    "name": "C4",
                    "midi": 60,
                    "time": 193.99999999999906,
                    "velocity": 0.36220472440944884,
                    "duration": 0.09999999999999432
                },
                {
                    "name": "D4",
                    "midi": 62,
                    "time": 194.09999999999906,
                    "velocity": 0.4566929133858268,
                    "duration": 0.07499999999998863
                },
                {
                    "name": "C4",
                    "midi": 60,
                    "time": 194.39999999999904,
                    "velocity": 0.47244094488188976,
                    "duration": 0.09999999999999432
                },
                {
                    "name": "D#3",
                    "midi": 51,
                    "time": 194.49999999999903,
                    "velocity": 0.3779527559055118,
                    "duration": 0.09999999999999432
                },
                {
                    "name": "D4",
                    "midi": 62,
                    "time": 194.59999999999903,
                    "velocity": 0.3858267716535433,
                    "duration": 0.09999999999999432
                },
                {
                    "name": "D#4",
                    "midi": 63,
                    "time": 194.69999999999902,
                    "velocity": 0.48031496062992124,
                    "duration": 0.07499999999998863
                },
                {
                    "name": "B3",
                    "midi": 59,
                    "time": 194.999999999999,
                    "velocity": 0.4881889763779528,
                    "duration": 0.09999999999999432
                },
                {
                    "name": "F3",
                    "midi": 53,
                    "time": 195.099999999999,
                    "velocity": 0.4015748031496063,
                    "duration": 0.09999999999999432
                },
                {
                    "name": "C4",
                    "midi": 60,
                    "time": 195.199999999999,
                    "velocity": 0.4094488188976378,
                    "duration": 0.09999999999999432
                },
                {
                    "name": "D4",
                    "midi": 62,
                    "time": 195.299999999999,
                    "velocity": 0.49606299212598426,
                    "duration": 0.07499999999998863
                },
                {
                    "name": "C4",
                    "midi": 60,
                    "time": 195.59999999999897,
                    "velocity": 0.5118110236220472,
                    "duration": 0.09999999999999432
                },
                {
                    "name": "G3",
                    "midi": 55,
                    "time": 195.69999999999897,
                    "velocity": 0.4330708661417323,
                    "duration": 0.09999999999999432
                },
                {
                    "name": "D4",
                    "midi": 62,
                    "time": 195.79999999999896,
                    "velocity": 0.4409448818897638,
                    "duration": 0.09999999999999432
                },
                {
                    "name": "D#4",
                    "midi": 63,
                    "time": 195.89999999999895,
                    "velocity": 0.5196850393700787,
                    "duration": 0.15000000000000568
                },
                {
                    "name": "C4",
                    "midi": 60,
                    "time": 196.04999999999896,
                    "velocity": 0.49606299212598426,
                    "duration": 0.15000000000000568
                },
                {
                    "name": "D4",
                    "midi": 62,
                    "time": 196.19999999999897,
                    "velocity": 0.5354330708661418,
                    "duration": 0.09999999999999432
                },
                {
                    "name": "G3",
                    "midi": 55,
                    "time": 196.29999999999896,
                    "velocity": 0.4645669291338583,
                    "duration": 0.09999999999999432
                },
                {
                    "name": "D#4",
                    "midi": 63,
                    "time": 196.39999999999895,
                    "velocity": 0.4645669291338583,
                    "duration": 0.09999999999999432
                },
                {
                    "name": "F4",
                    "midi": 65,
                    "time": 196.49999999999895,
                    "velocity": 0.5511811023622047,
                    "duration": 0.07499999999998863
                },
                {
                    "name": "E4",
                    "midi": 64,
                    "time": 196.79999999999893,
                    "velocity": 0.5748031496062992,
                    "duration": 0.09999999999999432
                },
                {
                    "name": "G3",
                    "midi": 55,
                    "time": 196.89999999999893,
                    "velocity": 0.49606299212598426,
                    "duration": 0.09999999999999432
                },
                {
                    "name": "F#4",
                    "midi": 66,
                    "time": 196.99999999999892,
                    "velocity": 0.49606299212598426,
                    "duration": 0.09999999999999432
                },
                {
                    "name": "G4",
                    "midi": 67,
                    "time": 197.09999999999891,
                    "velocity": 0.5826771653543307,
                    "duration": 0.15000000000000568
                },
                {
                    "name": "G4",
                    "midi": 67,
                    "time": 197.39999999999893,
                    "velocity": 0.6299212598425197,
                    "duration": 0.09999999999999432
                },
                {
                    "name": "A#3",
                    "midi": 58,
                    "time": 197.49999999999892,
                    "velocity": 0.5511811023622047,
                    "duration": 0.09999999999999432
                },
                {
                    "name": "A4",
                    "midi": 69,
                    "time": 197.59999999999891,
                    "velocity": 0.5433070866141733,
                    "duration": 0.09999999999999432
                },
                {
                    "name": "A#4",
                    "midi": 70,
                    "time": 197.6999999999989,
                    "velocity": 0.6377952755905512,
                    "duration": 0.07499999999998863
                },
                {
                    "name": "D4",
                    "midi": 62,
                    "time": 197.9999999999989,
                    "velocity": 0.5748031496062992,
                    "duration": 0.5999999999999943
                },
                {
                    "name": "D5",
                    "midi": 74,
                    "time": 197.9999999999989,
                    "velocity": 0.6929133858267716,
                    "duration": 0.5999999999999943
                },
                {
                    "name": "A3",
                    "midi": 57,
                    "time": 198.5999999999989,
                    "velocity": 0.5196850393700787,
                    "duration": 0.5999999999999943
                },
                {
                    "name": "D4",
                    "midi": 62,
                    "time": 198.5999999999989,
                    "velocity": 0.5196850393700787,
                    "duration": 0.5999999999999943
                },
                {
                    "name": "F#4",
                    "midi": 66,
                    "time": 198.5999999999989,
                    "velocity": 0.6141732283464567,
                    "duration": 0.5999999999999943
                },
                {
                    "name": "E4",
                    "midi": 64,
                    "time": 199.19999999999888,
                    "velocity": 0.5511811023622047,
                    "duration": 0.09999999999999432
                },
                {
                    "name": "G3",
                    "midi": 55,
                    "time": 199.29999999999887,
                    "velocity": 0.47244094488188976,
                    "duration": 0.09999999999999432
                },
                {
                    "name": "F#4",
                    "midi": 66,
                    "time": 199.39999999999887,
                    "velocity": 0.47244094488188976,
                    "duration": 0.09999999999999432
                },
                {
                    "name": "G4",
                    "midi": 67,
                    "time": 199.49999999999886,
                    "velocity": 0.5590551181102362,
                    "duration": 0.15000000000000568
                },
                {
                    "name": "G4",
                    "midi": 67,
                    "time": 199.79999999999887,
                    "velocity": 0.6062992125984252,
                    "duration": 0.09999999999999432
                },
                {
                    "name": "A#3",
                    "midi": 58,
                    "time": 199.89999999999887,
                    "velocity": 0.5511811023622047,
                    "duration": 0.09999999999999432
                },
                {
                    "name": "A4",
                    "midi": 69,
                    "time": 199.99999999999886,
                    "velocity": 0.5826771653543307,
                    "duration": 0.09999999999999432
                },
                {
                    "name": "A#4",
                    "midi": 70,
                    "time": 200.09999999999886,
                    "velocity": 0.6850393700787402,
                    "duration": 0.07499999999998863
                },
                {
                    "name": "D5",
                    "midi": 74,
                    "time": 200.39999999999884,
                    "velocity": 0.6299212598425197,
                    "duration": 0.5999999999999943
                },
                {
                    "name": "A#4",
                    "midi": 70,
                    "time": 200.39999999999884,
                    "velocity": 0.6299212598425197,
                    "duration": 0.5999999999999943
                },
                {
                    "name": "G5",
                    "midi": 79,
                    "time": 200.39999999999884,
                    "velocity": 0.7401574803149606,
                    "duration": 0.5999999999999943
                },
                {
                    "name": "F#4",
                    "midi": 66,
                    "time": 200.99999999999883,
                    "velocity": 0.5669291338582677,
                    "duration": 0.30000000000001137
                },
                {
                    "name": "A4",
                    "midi": 69,
                    "time": 200.99999999999883,
                    "velocity": 0.5669291338582677,
                    "duration": 0.30000000000001137
                },
                {
                    "name": "D5",
                    "midi": 74,
                    "time": 200.99999999999883,
                    "velocity": 0.6692913385826772,
                    "duration": 0.30000000000001137
                },
                {
                    "name": "F4",
                    "midi": 65,
                    "time": 201.29999999999885,
                    "velocity": 0.6220472440944882,
                    "duration": 0.30000000000001137
                },
                {
                    "name": "G#5",
                    "midi": 80,
                    "time": 201.59999999999886,
                    "velocity": 0.6692913385826772,
                    "duration": 0.09999999999999432
                },
                {
                    "name": "G#4",
                    "midi": 68,
                    "time": 201.69999999999885,
                    "velocity": 0.4330708661417323,
                    "duration": 0.09999999999999432
                },
                {
                    "name": "G#5",
                    "midi": 80,
                    "time": 201.79999999999885,
                    "velocity": 0.5039370078740157,
                    "duration": 0.09999999999999432
                },
                {
                    "name": "F5",
                    "midi": 77,
                    "time": 201.89999999999884,
                    "velocity": 0.6062992125984252,
                    "duration": 0.15000000000000568
                },
                {
                    "name": "F5",
                    "midi": 77,
                    "time": 202.19999999999885,
                    "velocity": 0.6692913385826772,
                    "duration": 0.09999999999999432
                },
                {
                    "name": "F4",
                    "midi": 65,
                    "time": 202.29999999999885,
                    "velocity": 0.4251968503937008,
                    "duration": 0.09999999999999432
                },
                {
                    "name": "D#5",
                    "midi": 75,
                    "time": 202.39999999999884,
                    "velocity": 0.49606299212598426,
                    "duration": 0.09999999999999432
                },
                {
                    "name": "D5",
                    "midi": 74,
                    "time": 202.49999999999883,
                    "velocity": 0.6062992125984252,
                    "duration": 0.15000000000000568
                },
                {
                    "name": "D5",
                    "midi": 74,
                    "time": 202.79999999999885,
                    "velocity": 0.6692913385826772,
                    "duration": 0.09999999999999432
                },
                {
                    "name": "D4",
                    "midi": 62,
                    "time": 202.89999999999884,
                    "velocity": 0.4566929133858268,
                    "duration": 0.09999999999999432
                },
                {
                    "name": "C5",
                    "midi": 72,
                    "time": 202.99999999999883,
                    "velocity": 0.5118110236220472,
                    "duration": 0.09999999999999432
                },
                {
                    "name": "B4",
                    "midi": 71,
                    "time": 203.09999999999883,
                    "velocity": 0.6062992125984252,
                    "duration": 0.15000000000000568
                },
                {
                    "name": "B4",
                    "midi": 71,
                    "time": 203.39999999999884,
                    "velocity": 0.6692913385826772,
                    "duration": 0.09999999999999432
                },
                {
                    "name": "B3",
                    "midi": 59,
                    "time": 203.49999999999883,
                    "velocity": 0.47244094488188976,
                    "duration": 0.09999999999999432
                },
                {
                    "name": "G#4",
                    "midi": 68,
                    "time": 203.59999999999883,
                    "velocity": 0.5118110236220472,
                    "duration": 0.09999999999999432
                },
                {
                    "name": "G4",
                    "midi": 67,
                    "time": 203.69999999999882,
                    "velocity": 0.6062992125984252,
                    "duration": 0.15000000000000568
                },
                {
                    "name": "G4",
                    "midi": 67,
                    "time": 203.99999999999883,
                    "velocity": 0.6692913385826772,
                    "duration": 0.09999999999999432
                },
                {
                    "name": "C4",
                    "midi": 60,
                    "time": 204.09999999999883,
                    "velocity": 0.47244094488188976,
                    "duration": 0.09999999999999432
                },
                {
                    "name": "B4",
                    "midi": 71,
                    "time": 204.19999999999882,
                    "velocity": 0.5275590551181102,
                    "duration": 0.09999999999999432
                },
                {
                    "name": "C5",
                    "midi": 72,
                    "time": 204.29999999999882,
                    "velocity": 0.6062992125984252,
                    "duration": 0.15000000000000568
                },
                {
                    "name": "C5",
                    "midi": 72,
                    "time": 204.59999999999883,
                    "velocity": 0.6771653543307087,
                    "duration": 0.09999999999999432
                },
                {
                    "name": "D#4",
                    "midi": 63,
                    "time": 204.69999999999882,
                    "velocity": 0.4881889763779528,
                    "duration": 0.09999999999999432
                },
                {
                    "name": "D5",
                    "midi": 74,
                    "time": 204.79999999999882,
                    "velocity": 0.5354330708661418,
                    "duration": 0.09999999999999432
                },
                {
                    "name": "D#5",
                    "midi": 75,
                    "time": 204.8999999999988,
                    "velocity": 0.6220472440944882,
                    "duration": 0.15000000000000568
                },
                {
                    "name": "D#5",
                    "midi": 75,
                    "time": 205.19999999999882,
                    "velocity": 0.7401574803149606,
                    "duration": 0.09999999999999432
                },
                {
                    "name": "G4",
                    "midi": 67,
                    "time": 205.29999999999882,
                    "velocity": 0.5669291338582677,
                    "duration": 0.09999999999999432
                },
                {
                    "name": "F5",
                    "midi": 77,
                    "time": 205.3999999999988,
                    "velocity": 0.6062992125984252,
                    "duration": 0.09999999999999432
                },
                {
                    "name": "G5",
                    "midi": 79,
                    "time": 205.4999999999988,
                    "velocity": 0.7244094488188977,
                    "duration": 0.15000000000000568
                },
                {
                    "name": "G5",
                    "midi": 79,
                    "time": 205.79999999999882,
                    "velocity": 0.7086614173228346,
                    "duration": 0.09999999999999432
                },
                {
                    "name": "C5",
                    "midi": 72,
                    "time": 205.8999999999988,
                    "velocity": 0.6377952755905512,
                    "duration": 0.09999999999999432
                },
                {
                    "name": "B5",
                    "midi": 83,
                    "time": 205.9999999999988,
                    "velocity": 0.6535433070866141,
                    "duration": 0.09999999999999432
                },
                {
                    "name": "C6",
                    "midi": 84,
                    "time": 206.0999999999988,
                    "velocity": 0.7637795275590551,
                    "duration": 0.15000000000000568
                },
                {
                    "name": "D#6",
                    "midi": 87,
                    "time": 206.3999999999988,
                    "velocity": 0.7637795275590551,
                    "duration": 0.09999999999999432
                },
                {
                    "name": "D#5",
                    "midi": 75,
                    "time": 206.4999999999988,
                    "velocity": 0.5511811023622047,
                    "duration": 0.09999999999999432
                },
                {
                    "name": "D6",
                    "midi": 86,
                    "time": 206.5999999999988,
                    "velocity": 0.6062992125984252,
                    "duration": 0.09999999999999432
                },
                {
                    "name": "C6",
                    "midi": 84,
                    "time": 206.6999999999988,
                    "velocity": 0.6850393700787402,
                    "duration": 0.15000000000000568
                },
                {
                    "name": "C6",
                    "midi": 84,
                    "time": 206.9999999999988,
                    "velocity": 0.7480314960629921,
                    "duration": 0.09999999999999432
                },
                {
                    "name": "C5",
                    "midi": 72,
                    "time": 207.0999999999988,
                    "velocity": 0.5354330708661418,
                    "duration": 0.09999999999999432
                },
                {
                    "name": "A#5",
                    "midi": 82,
                    "time": 207.1999999999988,
                    "velocity": 0.5826771653543307,
                    "duration": 0.09999999999999432
                },
                {
                    "name": "A5",
                    "midi": 81,
                    "time": 207.2999999999988,
                    "velocity": 0.6614173228346457,
                    "duration": 0.15000000000000568
                },
                {
                    "name": "A5",
                    "midi": 81,
                    "time": 207.5999999999988,
                    "velocity": 0.7165354330708661,
                    "duration": 0.09999999999999432
                },
                {
                    "name": "G4",
                    "midi": 67,
                    "time": 207.6999999999988,
                    "velocity": 0.5039370078740157,
                    "duration": 0.09999999999999432
                },
                {
                    "name": "G5",
                    "midi": 79,
                    "time": 207.7999999999988,
                    "velocity": 0.5590551181102362,
                    "duration": 0.09999999999999432
                },
                {
                    "name": "F#5",
                    "midi": 78,
                    "time": 207.89999999999878,
                    "velocity": 0.6377952755905512,
                    "duration": 0.15000000000000568
                },
                {
                    "name": "F#5",
                    "midi": 78,
                    "time": 208.1999999999988,
                    "velocity": 0.6929133858267716,
                    "duration": 0.09999999999999432
                },
                {
                    "name": "F#4",
                    "midi": 66,
                    "time": 208.2999999999988,
                    "velocity": 0.4881889763779528,
                    "duration": 0.09999999999999432
                },
                {
                    "name": "D#5",
                    "midi": 75,
                    "time": 208.39999999999878,
                    "velocity": 0.5354330708661418,
                    "duration": 0.09999999999999432
                },
                {
                    "name": "D5",
                    "midi": 74,
                    "time": 208.49999999999878,
                    "velocity": 0.6141732283464567,
                    "duration": 0.15000000000000568
                },
                {
                    "name": "A#5",
                    "midi": 82,
                    "time": 208.7999999999988,
                    "velocity": 0.7322834645669292,
                    "duration": 0.09999999999999432
                },
                {
                    "name": "A#4",
                    "midi": 70,
                    "time": 208.89999999999878,
                    "velocity": 0.5275590551181102,
                    "duration": 0.09999999999999432
                },
                {
                    "name": "A5",
                    "midi": 81,
                    "time": 208.99999999999878,
                    "velocity": 0.5826771653543307,
                    "duration": 0.09999999999999432
                },
                {
                    "name": "G5",
                    "midi": 79,
                    "time": 209.09999999999877,
                    "velocity": 0.6535433070866141,
                    "duration": 0.15000000000000568
                },
                {
                    "name": "G5",
                    "midi": 79,
                    "time": 209.39999999999878,
                    "velocity": 0.7165354330708661,
                    "duration": 0.09999999999999432
                },
                {
                    "name": "G4",
                    "midi": 67,
                    "time": 209.49999999999878,
                    "velocity": 0.49606299212598426,
                    "duration": 0.09999999999999432
                },
                {
                    "name": "F5",
                    "midi": 77,
                    "time": 209.59999999999877,
                    "velocity": 0.5590551181102362,
                    "duration": 0.09999999999999432
                },
                {
                    "name": "D#5",
                    "midi": 75,
                    "time": 209.69999999999877,
                    "velocity": 0.6456692913385826,
                    "duration": 0.15000000000000568
                },
                {
                    "name": "A#5",
                    "midi": 82,
                    "time": 209.99999999999878,
                    "velocity": 0.7007874015748031,
                    "duration": 0.09999999999999432
                },
                {
                    "name": "A#4",
                    "midi": 70,
                    "time": 210.09999999999877,
                    "velocity": 0.49606299212598426,
                    "duration": 0.09999999999999432
                },
                {
                    "name": "A5",
                    "midi": 81,
                    "time": 210.19999999999877,
                    "velocity": 0.5354330708661418,
                    "duration": 0.09999999999999432
                },
                {
                    "name": "G5",
                    "midi": 79,
                    "time": 210.29999999999876,
                    "velocity": 0.6299212598425197,
                    "duration": 0.15000000000000568
                },
                {
                    "name": "G5",
                    "midi": 79,
                    "time": 210.59999999999877,
                    "velocity": 0.6850393700787402,
                    "duration": 0.09999999999999432
                },
                {
                    "name": "G4",
                    "midi": 67,
                    "time": 210.69999999999877,
                    "velocity": 0.47244094488188976,
                    "duration": 0.09999999999999432
                },
                {
                    "name": "F5",
                    "midi": 77,
                    "time": 210.79999999999876,
                    "velocity": 0.5275590551181102,
                    "duration": 0.09999999999999432
                },
                {
                    "name": "D#5",
                    "midi": 75,
                    "time": 210.89999999999876,
                    "velocity": 0.6141732283464567,
                    "duration": 0.15000000000000568
                },
                {
                    "name": "A#5",
                    "midi": 82,
                    "time": 211.19999999999877,
                    "velocity": 0.6692913385826772,
                    "duration": 0.09999999999999432
                },
                {
                    "name": "A#4",
                    "midi": 70,
                    "time": 211.29999999999876,
                    "velocity": 0.47244094488188976,
                    "duration": 0.09999999999999432
                },
                {
                    "name": "A5",
                    "midi": 81,
                    "time": 211.39999999999876,
                    "velocity": 0.5275590551181102,
                    "duration": 0.09999999999999432
                },
                {
                    "name": "G5",
                    "midi": 79,
                    "time": 211.49999999999875,
                    "velocity": 0.6062992125984252,
                    "duration": 0.15000000000000568
                },
                {
                    "name": "G5",
                    "midi": 79,
                    "time": 211.79999999999876,
                    "velocity": 0.6692913385826772,
                    "duration": 0.09999999999999432
                },
                {
                    "name": "G4",
                    "midi": 67,
                    "time": 211.89999999999876,
                    "velocity": 0.4566929133858268,
                    "duration": 0.09999999999999432
                },
                {
                    "name": "F5",
                    "midi": 77,
                    "time": 211.99999999999875,
                    "velocity": 0.5039370078740157,
                    "duration": 0.09999999999999432
                },
                {
                    "name": "D#5",
                    "midi": 75,
                    "time": 212.09999999999874,
                    "velocity": 0.5984251968503937,
                    "duration": 0.15000000000000568
                },
                {
                    "name": "D#5",
                    "midi": 75,
                    "time": 212.39999999999876,
                    "velocity": 0.6614173228346457,
                    "duration": 0.09999999999999432
                },
                {
                    "name": "D#4",
                    "midi": 63,
                    "time": 212.49999999999875,
                    "velocity": 0.4645669291338583,
                    "duration": 0.09999999999999432
                },
                {
                    "name": "D5",
                    "midi": 74,
                    "time": 212.59999999999874,
                    "velocity": 0.5118110236220472,
                    "duration": 0.09999999999999432
                },
                {
                    "name": "C5",
                    "midi": 72,
                    "time": 212.69999999999874,
                    "velocity": 0.5905511811023622,
                    "duration": 0.15000000000000568
                },
                {
                    "name": "C5",
                    "midi": 72,
                    "time": 212.99999999999875,
                    "velocity": 0.6535433070866141,
                    "duration": 0.09999999999999432
                },
                {
                    "name": "C4",
                    "midi": 60,
                    "time": 213.09999999999874,
                    "velocity": 0.4330708661417323,
                    "duration": 0.09999999999999432
                },
                {
                    "name": "A#4",
                    "midi": 70,
                    "time": 213.19999999999874,
                    "velocity": 0.4881889763779528,
                    "duration": 0.09999999999999432
                },
                {
                    "name": "A4",
                    "midi": 69,
                    "time": 213.29999999999873,
                    "velocity": 0.5826771653543307,
                    "duration": 0.15000000000000568
                },
                {
                    "name": "A#4",
                    "midi": 70,
                    "time": 213.59999999999874,
                    "velocity": 0.6456692913385826,
                    "duration": 0.09999999999999432
                },
                {
                    "name": "A#3",
                    "midi": 58,
                    "time": 213.69999999999874,
                    "velocity": 0.44881889763779526,
                    "duration": 0.09999999999999432
                },
                {
                    "name": "A4",
                    "midi": 69,
                    "time": 213.79999999999873,
                    "velocity": 0.4881889763779528,
                    "duration": 0.09999999999999432
                },
                {
                    "name": "G4",
                    "midi": 67,
                    "time": 213.89999999999873,
                    "velocity": 0.5748031496062992,
                    "duration": 0.15000000000000568
                },
                {
                    "name": "G4",
                    "midi": 67,
                    "time": 214.19999999999874,
                    "velocity": 0.6377952755905512,
                    "duration": 0.09999999999999432
                },
                {
                    "name": "G3",
                    "midi": 55,
                    "time": 214.29999999999873,
                    "velocity": 0.44881889763779526,
                    "duration": 0.09999999999999432
                },
                {
                    "name": "F4",
                    "midi": 65,
                    "time": 214.39999999999873,
                    "velocity": 0.49606299212598426,
                    "duration": 0.09999999999999432
                },
                {
                    "name": "D#4",
                    "midi": 63,
                    "time": 214.49999999999872,
                    "velocity": 0.5748031496062992,
                    "duration": 0.15000000000000568
                },
                {
                    "name": "A#4",
                    "midi": 70,
                    "time": 214.79999999999873,
                    "velocity": 0.6299212598425197,
                    "duration": 0.09999999999999432
                },
                {
                    "name": "A#3",
                    "midi": 58,
                    "time": 214.89999999999873,
                    "velocity": 0.4409448818897638,
                    "duration": 0.09999999999999432
                },
                {
                    "name": "A4",
                    "midi": 69,
                    "time": 214.99999999999872,
                    "velocity": 0.4881889763779528,
                    "duration": 0.09999999999999432
                },
                {
                    "name": "G4",
                    "midi": 67,
                    "time": 215.09999999999872,
                    "velocity": 0.5669291338582677,
                    "duration": 0.15000000000000568
                },
                {
                    "name": "G4",
                    "midi": 67,
                    "time": 215.39999999999873,
                    "velocity": 0.6220472440944882,
                    "duration": 0.09999999999999432
                },
                {
                    "name": "G3",
                    "midi": 55,
                    "time": 215.49999999999872,
                    "velocity": 0.4251968503937008,
                    "duration": 0.09999999999999432
                },
                {
                    "name": "F4",
                    "midi": 65,
                    "time": 215.59999999999872,
                    "velocity": 0.47244094488188976,
                    "duration": 0.09999999999999432
                },
                {
                    "name": "D#4",
                    "midi": 63,
                    "time": 215.6999999999987,
                    "velocity": 0.5590551181102362,
                    "duration": 0.15000000000000568
                },
                {
                    "name": "A#4",
                    "midi": 70,
                    "time": 215.99999999999872,
                    "velocity": 0.6220472440944882,
                    "duration": 0.09999999999999432
                },
                {
                    "name": "A#3",
                    "midi": 58,
                    "time": 216.09999999999872,
                    "velocity": 0.4409448818897638,
                    "duration": 0.09999999999999432
                },
                {
                    "name": "A4",
                    "midi": 69,
                    "time": 216.1999999999987,
                    "velocity": 0.48031496062992124,
                    "duration": 0.09999999999999432
                },
                {
                    "name": "G4",
                    "midi": 67,
                    "time": 216.2999999999987,
                    "velocity": 0.5590551181102362,
                    "duration": 0.15000000000000568
                },
                {
                    "name": "G4",
                    "midi": 67,
                    "time": 216.59999999999872,
                    "velocity": 0.6141732283464567,
                    "duration": 0.09999999999999432
                },
                {
                    "name": "G3",
                    "midi": 55,
                    "time": 216.6999999999987,
                    "velocity": 0.4094488188976378,
                    "duration": 0.09999999999999432
                },
                {
                    "name": "F4",
                    "midi": 65,
                    "time": 216.7999999999987,
                    "velocity": 0.4645669291338583,
                    "duration": 0.09999999999999432
                },
                {
                    "name": "D#4",
                    "midi": 63,
                    "time": 216.8999999999987,
                    "velocity": 0.5511811023622047,
                    "duration": 0.15000000000000568
                },
                {
                    "name": "D#4",
                    "midi": 63,
                    "time": 217.1999999999987,
                    "velocity": 0.6062992125984252,
                    "duration": 0.09999999999999432
                },
                {
                    "name": "D#3",
                    "midi": 51,
                    "time": 217.2999999999987,
                    "velocity": 0.41732283464566927,
                    "duration": 0.09999999999999432
                },
                {
                    "name": "D4",
                    "midi": 62,
                    "time": 217.3999999999987,
                    "velocity": 0.4566929133858268,
                    "duration": 0.09999999999999432
                },
                {
                    "name": "C4",
                    "midi": 60,
                    "time": 217.4999999999987,
                    "velocity": 0.5511811023622047,
                    "duration": 0.15000000000000568
                },
                {
                    "name": "C4",
                    "midi": 60,
                    "time": 217.7999999999987,
                    "velocity": 0.5984251968503937,
                    "duration": 0.09999999999999432
                },
                {
                    "name": "C3",
                    "midi": 48,
                    "time": 217.8999999999987,
                    "velocity": 0.4566929133858268,
                    "duration": 0.09999999999999432
                },
                {
                    "name": "A#3",
                    "midi": 58,
                    "time": 217.9999999999987,
                    "velocity": 0.47244094488188976,
                    "duration": 0.09999999999999432
                },
                {
                    "name": "A3",
                    "midi": 57,
                    "time": 218.0999999999987,
                    "velocity": 0.5433070866141733,
                    "duration": 0.15000000000000568
                },
                {
                    "name": "A#3",
                    "midi": 58,
                    "time": 218.3999999999987,
                    "velocity": 0.5905511811023622,
                    "duration": 0.09999999999999432
                },
                {
                    "name": "A#2",
                    "midi": 46,
                    "time": 218.4999999999987,
                    "velocity": 0.4251968503937008,
                    "duration": 0.09999999999999432
                },
                {
                    "name": "A3",
                    "midi": 57,
                    "time": 218.5999999999987,
                    "velocity": 0.4566929133858268,
                    "duration": 0.09999999999999432
                },
                {
                    "name": "G3",
                    "midi": 55,
                    "time": 218.69999999999868,
                    "velocity": 0.5354330708661418,
                    "duration": 0.15000000000000568
                },
                {
                    "name": "C4",
                    "midi": 60,
                    "time": 218.9999999999987,
                    "velocity": 0.5826771653543307,
                    "duration": 0.09999999999999432
                },
                {
                    "name": "C3",
                    "midi": 48,
                    "time": 219.0999999999987,
                    "velocity": 0.4566929133858268,
                    "duration": 0.09999999999999432
                },
                {
                    "name": "A#3",
                    "midi": 58,
                    "time": 219.19999999999868,
                    "velocity": 0.4881889763779528,
                    "duration": 0.09999999999999432
                },
                {
                    "name": "A3",
                    "midi": 57,
                    "time": 219.29999999999868,
                    "velocity": 0.5275590551181102,
                    "duration": 0.15000000000000568
                },
                {
                    "name": "A#3",
                    "midi": 58,
                    "time": 219.5999999999987,
                    "velocity": 0.5748031496062992,
                    "duration": 0.09999999999999432
                },
                {
                    "name": "A#2",
                    "midi": 46,
                    "time": 219.69999999999868,
                    "velocity": 0.4094488188976378,
                    "duration": 0.09999999999999432
                },
                {
                    "name": "A3",
                    "midi": 57,
                    "time": 219.79999999999868,
                    "velocity": 0.44881889763779526,
                    "duration": 0.09999999999999432
                },
                {
                    "name": "G3",
                    "midi": 55,
                    "time": 219.89999999999867,
                    "velocity": 0.5196850393700787,
                    "duration": 0.15000000000000568
                },
                {
                    "name": "C4",
                    "midi": 60,
                    "time": 220.19999999999868,
                    "velocity": 0.5748031496062992,
                    "duration": 0.09999999999999432
                },
                {
                    "name": "C3",
                    "midi": 48,
                    "time": 220.29999999999868,
                    "velocity": 0.4251968503937008,
                    "duration": 0.09999999999999432
                },
                {
                    "name": "A#3",
                    "midi": 58,
                    "time": 220.39999999999867,
                    "velocity": 0.4645669291338583,
                    "duration": 0.09999999999999432
                },
                {
                    "name": "A3",
                    "midi": 57,
                    "time": 220.49999999999866,
                    "velocity": 0.5196850393700787,
                    "duration": 0.15000000000000568
                },
                {
                    "name": "D4",
                    "midi": 62,
                    "time": 220.79999999999868,
                    "velocity": 0.5984251968503937,
                    "duration": 0.09999999999999432
                },
                {
                    "name": "A#2",
                    "midi": 46,
                    "time": 220.89999999999867,
                    "velocity": 0.44881889763779526,
                    "duration": 0.09999999999999432
                },
                {
                    "name": "C4",
                    "midi": 60,
                    "time": 220.99999999999866,
                    "velocity": 0.4881889763779528,
                    "duration": 0.09999999999999432
                },
                {
                    "name": "A#3",
                    "midi": 58,
                    "time": 221.09999999999866,
                    "velocity": 0.5511811023622047,
                    "duration": 0.15000000000000568
                },
                {
                    "name": "G4",
                    "midi": 67,
                    "time": 221.39999999999867,
                    "velocity": 0.6220472440944882,
                    "duration": 0.09999999999999432
                },
                {
                    "name": "G3",
                    "midi": 55,
                    "time": 221.49999999999866,
                    "velocity": 0.4566929133858268,
                    "duration": 0.09999999999999432
                },
                {
                    "name": "D#4",
                    "midi": 63,
                    "time": 221.59999999999866,
                    "velocity": 0.5039370078740157,
                    "duration": 0.09999999999999432
                },
                {
                    "name": "D4",
                    "midi": 62,
                    "time": 221.69999999999865,
                    "velocity": 0.5669291338582677,
                    "duration": 0.15000000000000568
                },
                {
                    "name": "A#4",
                    "midi": 70,
                    "time": 221.99999999999866,
                    "velocity": 0.6377952755905512,
                    "duration": 0.09999999999999432
                },
                {
                    "name": "A#3",
                    "midi": 58,
                    "time": 222.09999999999866,
                    "velocity": 0.4881889763779528,
                    "duration": 0.09999999999999432
                },
                {
                    "name": "A4",
                    "midi": 69,
                    "time": 222.19999999999865,
                    "velocity": 0.5354330708661418,
                    "duration": 0.09999999999999432
                },
                {
                    "name": "G4",
                    "midi": 67,
                    "time": 222.29999999999865,
                    "velocity": 0.5826771653543307,
                    "duration": 0.15000000000000568
                },
                {
                    "name": "D5",
                    "midi": 74,
                    "time": 222.59999999999866,
                    "velocity": 0.6614173228346457,
                    "duration": 0.09999999999999432
                },
                {
                    "name": "D4",
                    "midi": 62,
                    "time": 222.69999999999865,
                    "velocity": 0.5039370078740157,
                    "duration": 0.09999999999999432
                },
                {
                    "name": "A#4",
                    "midi": 70,
                    "time": 222.79999999999865,
                    "velocity": 0.5590551181102362,
                    "duration": 0.09999999999999432
                },
                {
                    "name": "A4",
                    "midi": 69,
                    "time": 222.89999999999864,
                    "velocity": 0.6062992125984252,
                    "duration": 0.15000000000000568
                },
                {
                    "name": "G5",
                    "midi": 79,
                    "time": 223.19999999999865,
                    "velocity": 0.6771653543307087,
                    "duration": 0.09999999999999432
                },
                {
                    "name": "G4",
                    "midi": 67,
                    "time": 223.29999999999865,
                    "velocity": 0.5354330708661418,
                    "duration": 0.09999999999999432
                },
                {
                    "name": "D#5",
                    "midi": 75,
                    "time": 223.39999999999864,
                    "velocity": 0.5748031496062992,
                    "duration": 0.09999999999999432
                },
                {
                    "name": "D5",
                    "midi": 74,
                    "time": 223.49999999999864,
                    "velocity": 0.6299212598425197,
                    "duration": 0.15000000000000568
                },
                {
                    "name": "A#5",
                    "midi": 82,
                    "time": 223.79999999999865,
                    "velocity": 0.7007874015748031,
                    "duration": 0.09999999999999432
                },
                {
                    "name": "A#4",
                    "midi": 70,
                    "time": 223.89999999999864,
                    "velocity": 0.5354330708661418,
                    "duration": 0.09999999999999432
                },
                {
                    "name": "A5",
                    "midi": 81,
                    "time": 223.99999999999864,
                    "velocity": 0.5905511811023622,
                    "duration": 0.09999999999999432
                },
                {
                    "name": "G5",
                    "midi": 79,
                    "time": 224.09999999999863,
                    "velocity": 0.6456692913385826,
                    "duration": 0.15000000000000568
                },
                {
                    "name": "D6",
                    "midi": 86,
                    "time": 224.39999999999864,
                    "velocity": 0.7401574803149606,
                    "duration": 0.09999999999999432
                },
                {
                    "name": "D5",
                    "midi": 74,
                    "time": 224.49999999999864,
                    "velocity": 0.5984251968503937,
                    "duration": 0.09999999999999432
                },
                {
                    "name": "C6",
                    "midi": 84,
                    "time": 224.59999999999863,
                    "velocity": 0.6062992125984252,
                    "duration": 0.09999999999999432
                },
                {
                    "name": "A#5",
                    "midi": 82,
                    "time": 224.69999999999862,
                    "velocity": 0.6614173228346457,
                    "duration": 0.15000000000000568
                },
                {
                    "name": "G6",
                    "midi": 91,
                    "time": 224.99999999999864,
                    "velocity": 0.7637795275590551,
                    "duration": 0.09999999999999432
                },
                {
                    "name": "G5",
                    "midi": 79,
                    "time": 225.09999999999863,
                    "velocity": 0.6141732283464567,
                    "duration": 0.09999999999999432
                },
                {
                    "name": "D#6",
                    "midi": 87,
                    "time": 225.19999999999862,
                    "velocity": 0.6220472440944882,
                    "duration": 0.09999999999999432
                },
                {
                    "name": "D6",
                    "midi": 86,
                    "time": 225.29999999999862,
                    "velocity": 0.6850393700787402,
                    "duration": 0.15000000000000568
                },
                {
                    "name": "A#6",
                    "midi": 94,
                    "time": 225.59999999999863,
                    "velocity": 0.8582677165354331,
                    "duration": 0.5999999999999943
                },
                {
                    "name": "A#5",
                    "midi": 82,
                    "time": 225.59999999999863,
                    "velocity": 0.6929133858267716,
                    "duration": 0.5999999999999943
                },
                {
                    "name": "G5",
                    "midi": 79,
                    "time": 226.19999999999862,
                    "velocity": 0.6377952755905512,
                    "duration": 0.5999999999999943
                },
                {
                    "name": "G6",
                    "midi": 91,
                    "time": 226.19999999999862,
                    "velocity": 0.6929133858267716,
                    "duration": 0.5999999999999943
                },
                {
                    "name": "D5",
                    "midi": 74,
                    "time": 226.79999999999862,
                    "velocity": 0.6377952755905512,
                    "duration": 0.5999999999999943
                },
                {
                    "name": "D6",
                    "midi": 86,
                    "time": 226.79999999999862,
                    "velocity": 0.6929133858267716,
                    "duration": 0.5999999999999943
                },
                {
                    "name": "A#4",
                    "midi": 70,
                    "time": 227.3999999999986,
                    "velocity": 0.6377952755905512,
                    "duration": 0.5999999999999943
                },
                {
                    "name": "A#5",
                    "midi": 82,
                    "time": 227.3999999999986,
                    "velocity": 0.6929133858267716,
                    "duration": 0.5999999999999943
                },
                {
                    "name": "G4",
                    "midi": 67,
                    "time": 227.9999999999986,
                    "velocity": 0.6377952755905512,
                    "duration": 0.5999999999999943
                },
                {
                    "name": "G5",
                    "midi": 79,
                    "time": 227.9999999999986,
                    "velocity": 0.6929133858267716,
                    "duration": 0.5999999999999943
                },
                {
                    "name": "D4",
                    "midi": 62,
                    "time": 228.5999999999986,
                    "velocity": 0.6377952755905512,
                    "duration": 0.5999999999999943
                },
                {
                    "name": "D5",
                    "midi": 74,
                    "time": 228.5999999999986,
                    "velocity": 0.6929133858267716,
                    "duration": 0.5999999999999943
                },
                {
                    "name": "A#3",
                    "midi": 58,
                    "time": 229.1999999999986,
                    "velocity": 0.6377952755905512,
                    "duration": 0.5999999999999943
                },
                {
                    "name": "A#4",
                    "midi": 70,
                    "time": 229.1999999999986,
                    "velocity": 0.6929133858267716,
                    "duration": 0.5999999999999943
                },
                {
                    "name": "G3",
                    "midi": 55,
                    "time": 229.7999999999986,
                    "velocity": 0.6377952755905512,
                    "duration": 1.1999999999999886
                },
                {
                    "name": "G4",
                    "midi": 67,
                    "time": 229.7999999999986,
                    "velocity": 0.6929133858267716,
                    "duration": 0.5999999999999943
                },
                {
                    "name": "C4",
                    "midi": 60,
                    "time": 230.39999999999858,
                    "velocity": 0.5196850393700787,
                    "duration": 1.1999999999999886
                },
                {
                    "name": "D#4",
                    "midi": 63,
                    "time": 230.39999999999858,
                    "velocity": 0.6692913385826772,
                    "duration": 1.1999999999999886
                },
                {
                    "name": "G#4",
                    "midi": 68,
                    "time": 230.39999999999858,
                    "velocity": 0.7559055118110236,
                    "duration": 1.1999999999999886
                },
                {
                    "name": "G#3",
                    "midi": 56,
                    "time": 230.99999999999858,
                    "velocity": 0.7244094488188977,
                    "duration": 0.5999999999999943
                },
                {
                    "name": "A3",
                    "midi": 57,
                    "time": 231.59999999999857,
                    "velocity": 0.6141732283464567,
                    "duration": 0.5999999999999943
                },
                {
                    "name": "A4",
                    "midi": 69,
                    "time": 231.59999999999857,
                    "velocity": 0.6692913385826772,
                    "duration": 2.3999999999999773
                },
                {
                    "name": "C4",
                    "midi": 60,
                    "time": 232.19999999999857,
                    "velocity": 0.6141732283464567,
                    "duration": 2.9999999999999716
                },
                {
                    "name": "D#4",
                    "midi": 63,
                    "time": 232.79999999999856,
                    "velocity": 0.6141732283464567,
                    "duration": 2.3999999999999773
                },
                {
                    "name": "F#4",
                    "midi": 66,
                    "time": 233.39999999999856,
                    "velocity": 0.6141732283464567,
                    "duration": 1.799999999999983
                },
                {
                    "name": "A4",
                    "midi": 69,
                    "time": 233.99999999999855,
                    "velocity": 0.6141732283464567,
                    "duration": 1.1999999999999886
                },
                {
                    "name": "C5",
                    "midi": 72,
                    "time": 234.59999999999854,
                    "velocity": 0.6141732283464567,
                    "duration": 0.5999999999999943
                },
                {
                    "name": "D4",
                    "midi": 62,
                    "time": 235.19999999999854,
                    "velocity": 0.6141732283464567,
                    "duration": 0.5999999999999943
                },
                {
                    "name": "G4",
                    "midi": 67,
                    "time": 235.19999999999854,
                    "velocity": 0.6456692913385826,
                    "duration": 0.5999999999999943
                },
                {
                    "name": "A#4",
                    "midi": 70,
                    "time": 235.19999999999854,
                    "velocity": 0.6929133858267716,
                    "duration": 0.5999999999999943
                },
                {
                    "name": "G4",
                    "midi": 67,
                    "time": 235.79999999999853,
                    "velocity": 0.6692913385826772,
                    "duration": 0.5999999999999943
                },
                {
                    "name": "G5",
                    "midi": 79,
                    "time": 235.79999999999853,
                    "velocity": 0.7244094488188977,
                    "duration": 0.5999999999999943
                },
                {
                    "name": "D4",
                    "midi": 62,
                    "time": 236.39999999999853,
                    "velocity": 0.6692913385826772,
                    "duration": 0.5999999999999943
                },
                {
                    "name": "D5",
                    "midi": 74,
                    "time": 236.39999999999853,
                    "velocity": 0.7244094488188977,
                    "duration": 0.5999999999999943
                },
                {
                    "name": "A#3",
                    "midi": 58,
                    "time": 236.99999999999852,
                    "velocity": 0.6692913385826772,
                    "duration": 0.5999999999999943
                },
                {
                    "name": "A#4",
                    "midi": 70,
                    "time": 236.99999999999852,
                    "velocity": 0.7244094488188977,
                    "duration": 0.5999999999999943
                },
                {
                    "name": "G3",
                    "midi": 55,
                    "time": 237.59999999999852,
                    "velocity": 0.6692913385826772,
                    "duration": 0.5999999999999943
                },
                {
                    "name": "G4",
                    "midi": 67,
                    "time": 237.59999999999852,
                    "velocity": 0.7244094488188977,
                    "duration": 0.5999999999999943
                },
                {
                    "name": "D3",
                    "midi": 50,
                    "time": 238.1999999999985,
                    "velocity": 0.6692913385826772,
                    "duration": 0.5999999999999943
                },
                {
                    "name": "D4",
                    "midi": 62,
                    "time": 238.1999999999985,
                    "velocity": 0.7244094488188977,
                    "duration": 0.5999999999999943
                },
                {
                    "name": "A#2",
                    "midi": 46,
                    "time": 238.7999999999985,
                    "velocity": 0.6692913385826772,
                    "duration": 0.5999999999999943
                },
                {
                    "name": "A#3",
                    "midi": 58,
                    "time": 238.7999999999985,
                    "velocity": 0.7244094488188977,
                    "duration": 0.5999999999999943
                },
                {
                    "name": "G2",
                    "midi": 43,
                    "time": 239.3999999999985,
                    "velocity": 0.6692913385826772,
                    "duration": 1.1999999999999886
                },
                {
                    "name": "G3",
                    "midi": 55,
                    "time": 239.3999999999985,
                    "velocity": 0.7244094488188977,
                    "duration": 0.5999999999999943
                },
                {
                    "name": "C3",
                    "midi": 48,
                    "time": 239.9999999999985,
                    "velocity": 0.5354330708661418,
                    "duration": 1.1999999999999886
                },
                {
                    "name": "D#3",
                    "midi": 51,
                    "time": 239.9999999999985,
                    "velocity": 0.6535433070866141,
                    "duration": 1.1999999999999886
                },
                {
                    "name": "G#3",
                    "midi": 56,
                    "time": 239.9999999999985,
                    "velocity": 0.7480314960629921,
                    "duration": 1.1999999999999886
                },
                {
                    "name": "G#2",
                    "midi": 44,
                    "time": 240.5999999999985,
                    "velocity": 0.7244094488188977,
                    "duration": 0.5999999999999943
                },
                {
                    "name": "A2",
                    "midi": 45,
                    "time": 241.19999999999848,
                    "velocity": 0.6141732283464567,
                    "duration": 0.5999999999999943
                },
                {
                    "name": "A3",
                    "midi": 57,
                    "time": 241.19999999999848,
                    "velocity": 0.6692913385826772,
                    "duration": 2.3999999999999773
                },
                {
                    "name": "C3",
                    "midi": 48,
                    "time": 241.79999999999848,
                    "velocity": 0.6141732283464567,
                    "duration": 2.9999999999999716
                },
                {
                    "name": "D#3",
                    "midi": 51,
                    "time": 242.39999999999847,
                    "velocity": 0.6141732283464567,
                    "duration": 2.3999999999999773
                },
                {
                    "name": "F#3",
                    "midi": 54,
                    "time": 242.99999999999847,
                    "velocity": 0.6141732283464567,
                    "duration": 0.5999999999999943
                },
                {
                    "name": "A3",
                    "midi": 57,
                    "time": 243.59999999999846,
                    "velocity": 0.6141732283464567,
                    "duration": 1.1999999999999886
                },
                {
                    "name": "C4",
                    "midi": 60,
                    "time": 244.19999999999845,
                    "velocity": 0.6141732283464567,
                    "duration": 0.5999999999999943
                },
                {
                    "name": "D3",
                    "midi": 50,
                    "time": 244.79999999999845,
                    "velocity": 0.5905511811023622,
                    "duration": 0.5999999999999943
                },
                {
                    "name": "G3",
                    "midi": 55,
                    "time": 244.79999999999845,
                    "velocity": 0.6220472440944882,
                    "duration": 0.5999999999999943
                },
                {
                    "name": "A#3",
                    "midi": 58,
                    "time": 244.79999999999845,
                    "velocity": 0.6929133858267716,
                    "duration": 0.5999999999999943
                },
                {
                    "name": "A#2",
                    "midi": 46,
                    "time": 245.39999999999844,
                    "velocity": 0.6141732283464567,
                    "duration": 0.5999999999999943
                },
                {
                    "name": "D3",
                    "midi": 50,
                    "time": 245.99999999999844,
                    "velocity": 0.6220472440944882,
                    "duration": 0.5999999999999943
                },
                {
                    "name": "G3",
                    "midi": 55,
                    "time": 246.59999999999843,
                    "velocity": 0.6377952755905512,
                    "duration": 0.29750000000001364
                },
                {
                    "name": "A#3",
                    "midi": 58,
                    "time": 247.19999999999845,
                    "velocity": 0.6692913385826772,
                    "duration": 0.5999999999999943
                },
                {
                    "name": "D4",
                    "midi": 62,
                    "time": 247.79999999999845,
                    "velocity": 0.6850393700787402,
                    "duration": 0.5999999999999943
                },
                {
                    "name": "G4",
                    "midi": 67,
                    "time": 248.39999999999844,
                    "velocity": 0.6929133858267716,
                    "duration": 0.5999999999999943
                },
                {
                    "name": "A#4",
                    "midi": 70,
                    "time": 248.99999999999844,
                    "velocity": 0.7165354330708661,
                    "duration": 1.799999999999983
                },
                {
                    "name": "G5",
                    "midi": 79,
                    "time": 249.59999999999843,
                    "velocity": 0.7952755905511811,
                    "duration": 1.1999999999999886
                }
            ],
            "controlChanges": {
                "91": [
                    {
                        "number": 91,
                        "time": 0,
                        "value": 1
                    }
                ]
            },
            "id": 1,
            "name": "Piano right",
            "instrumentNumber": 0,
            "instrument": "acoustic grand piano",
            "instrumentFamily": "piano",
            "channelNumber": 0,
            "isPercussion": false
        },
        {
            "startTime": 1.2,
            "duration": 250.80000000000038,
            "length": 687,
            "notes": [
                {
                    "name": "G2",
                    "midi": 43,
                    "time": 1.2,
                    "velocity": 0.3937007874015748,
                    "duration": 1.8
                },
                {
                    "name": "G1",
                    "midi": 31,
                    "time": 1.2,
                    "velocity": 0.33070866141732286,
                    "duration": 1.8
                },
                {
                    "name": "A#1",
                    "midi": 34,
                    "time": 3.3,
                    "velocity": 0.29133858267716534,
                    "duration": 0.07500000000000018
                },
                {
                    "name": "A#2",
                    "midi": 46,
                    "time": 3.3,
                    "velocity": 0.3464566929133858,
                    "duration": 0.07500000000000018
                },
                {
                    "name": "C3",
                    "midi": 48,
                    "time": 3.6,
                    "velocity": 0.3937007874015748,
                    "duration": 0.1499999999999999
                },
                {
                    "name": "C2",
                    "midi": 36,
                    "time": 3.6,
                    "velocity": 0.33070866141732286,
                    "duration": 0.1499999999999999
                },
                {
                    "name": "D2",
                    "midi": 38,
                    "time": 4.2,
                    "velocity": 0.31496062992125984,
                    "duration": 0.15000000000000036
                },
                {
                    "name": "D3",
                    "midi": 50,
                    "time": 4.2,
                    "velocity": 0.3779527559055118,
                    "duration": 0.15000000000000036
                },
                {
                    "name": "G2",
                    "midi": 43,
                    "time": 4.800000000000001,
                    "velocity": 0.3937007874015748,
                    "duration": 0.2999999999999998
                },
                {
                    "name": "G1",
                    "midi": 31,
                    "time": 4.800000000000001,
                    "velocity": 0.33070866141732286,
                    "duration": 0.2999999999999998
                },
                {
                    "name": "D2",
                    "midi": 38,
                    "time": 5.7,
                    "velocity": 0.3700787401574803,
                    "duration": 0.07500000000000018
                },
                {
                    "name": "G2",
                    "midi": 43,
                    "time": 6,
                    "velocity": 0.3937007874015748,
                    "duration": 1.7999999999999998
                },
                {
                    "name": "G1",
                    "midi": 31,
                    "time": 6,
                    "velocity": 0.33070866141732286,
                    "duration": 1.7999999999999998
                },
                {
                    "name": "A#2",
                    "midi": 46,
                    "time": 8.1,
                    "velocity": 0.3464566929133858,
                    "duration": 0.07499999999999929
                },
                {
                    "name": "A#1",
                    "midi": 34,
                    "time": 8.1,
                    "velocity": 0.29133858267716534,
                    "duration": 0.07499999999999929
                },
                {
                    "name": "C3",
                    "midi": 48,
                    "time": 8.399999999999999,
                    "velocity": 0.3937007874015748,
                    "duration": 0.15000000000000036
                },
                {
                    "name": "C2",
                    "midi": 36,
                    "time": 8.399999999999999,
                    "velocity": 0.33070866141732286,
                    "duration": 0.15000000000000036
                },
                {
                    "name": "D2",
                    "midi": 38,
                    "time": 8.999999999999998,
                    "velocity": 0.31496062992125984,
                    "duration": 0.15000000000000036
                },
                {
                    "name": "D3",
                    "midi": 50,
                    "time": 8.999999999999998,
                    "velocity": 0.3779527559055118,
                    "duration": 0.15000000000000036
                },
                {
                    "name": "D#2",
                    "midi": 39,
                    "time": 9.599999999999998,
                    "velocity": 0.33070866141732286,
                    "duration": 0.3000000000000007
                },
                {
                    "name": "D#3",
                    "midi": 51,
                    "time": 9.599999999999998,
                    "velocity": 0.3937007874015748,
                    "duration": 0.3000000000000007
                },
                {
                    "name": "D2",
                    "midi": 38,
                    "time": 10.499999999999998,
                    "velocity": 0.2755905511811024,
                    "duration": 0.15000000000000036
                },
                {
                    "name": "D3",
                    "midi": 50,
                    "time": 10.499999999999998,
                    "velocity": 0.33070866141732286,
                    "duration": 0.15000000000000036
                },
                {
                    "name": "D#2",
                    "midi": 39,
                    "time": 10.799999999999999,
                    "velocity": 0.36220472440944884,
                    "duration": 0.15000000000000036
                },
                {
                    "name": "D#3",
                    "midi": 51,
                    "time": 10.799999999999999,
                    "velocity": 0.4330708661417323,
                    "duration": 0.15000000000000036
                },
                {
                    "name": "C2",
                    "midi": 36,
                    "time": 11.399999999999999,
                    "velocity": 0.3779527559055118,
                    "duration": 0.15000000000000036
                },
                {
                    "name": "C3",
                    "midi": 48,
                    "time": 11.399999999999999,
                    "velocity": 0.44881889763779526,
                    "duration": 0.15000000000000036
                },
                {
                    "name": "D2",
                    "midi": 38,
                    "time": 11.999999999999998,
                    "velocity": 0.3937007874015748,
                    "duration": 0.3000000000000007
                },
                {
                    "name": "D3",
                    "midi": 50,
                    "time": 11.999999999999998,
                    "velocity": 0.4645669291338583,
                    "duration": 0.3000000000000007
                },
                {
                    "name": "D3",
                    "midi": 50,
                    "time": 12.899999999999999,
                    "velocity": 0.48031496062992124,
                    "duration": 0.07499999999999929
                },
                {
                    "name": "G2",
                    "midi": 43,
                    "time": 13.199999999999998,
                    "velocity": 0.5039370078740157,
                    "duration": 1.1999999999999993
                },
                {
                    "name": "A#2",
                    "midi": 46,
                    "time": 13.199999999999998,
                    "velocity": 0.5039370078740157,
                    "duration": 0.5999999999999996
                },
                {
                    "name": "G3",
                    "midi": 55,
                    "time": 13.199999999999998,
                    "velocity": 0.5984251968503937,
                    "duration": 0.5999999999999996
                },
                {
                    "name": "D3",
                    "midi": 50,
                    "time": 13.799999999999997,
                    "velocity": 0.5354330708661418,
                    "duration": 0.5999999999999996
                },
                {
                    "name": "A3",
                    "midi": 57,
                    "time": 13.799999999999997,
                    "velocity": 0.6299212598425197,
                    "duration": 0.5999999999999996
                },
                {
                    "name": "A#3",
                    "midi": 58,
                    "time": 14.399999999999997,
                    "velocity": 0.6614173228346457,
                    "duration": 0.5999999999999996
                },
                {
                    "name": "G3",
                    "midi": 55,
                    "time": 14.399999999999997,
                    "velocity": 0.5590551181102362,
                    "duration": 0.5999999999999996
                },
                {
                    "name": "G3",
                    "midi": 55,
                    "time": 15.299999999999997,
                    "velocity": 0.5669291338582677,
                    "duration": 0.07499999999999929
                },
                {
                    "name": "A#2",
                    "midi": 46,
                    "time": 15.299999999999997,
                    "velocity": 0.48031496062992124,
                    "duration": 0.07499999999999929
                },
                {
                    "name": "A3",
                    "midi": 57,
                    "time": 15.599999999999996,
                    "velocity": 0.6220472440944882,
                    "duration": 0.5999999999999996
                },
                {
                    "name": "G3",
                    "midi": 55,
                    "time": 15.599999999999996,
                    "velocity": 0.5275590551181102,
                    "duration": 0.5999999999999996
                },
                {
                    "name": "C3",
                    "midi": 48,
                    "time": 15.599999999999996,
                    "velocity": 0.5275590551181102,
                    "duration": 0.5999999999999996
                },
                {
                    "name": "D4",
                    "midi": 62,
                    "time": 16.199999999999996,
                    "velocity": 0.6062992125984252,
                    "duration": 0.6000000000000014
                },
                {
                    "name": "F#3",
                    "midi": 54,
                    "time": 16.199999999999996,
                    "velocity": 0.5196850393700787,
                    "duration": 0.6000000000000014
                },
                {
                    "name": "D3",
                    "midi": 50,
                    "time": 16.199999999999996,
                    "velocity": 0.48031496062992124,
                    "duration": 0.6000000000000014
                },
                {
                    "name": "G3",
                    "midi": 55,
                    "time": 16.799999999999997,
                    "velocity": 0.6377952755905512,
                    "duration": 0.6000000000000014
                },
                {
                    "name": "G2",
                    "midi": 43,
                    "time": 16.799999999999997,
                    "velocity": 0.5354330708661418,
                    "duration": 0.6000000000000014
                },
                {
                    "name": "A#2",
                    "midi": 46,
                    "time": 16.799999999999997,
                    "velocity": 0.5354330708661418,
                    "duration": 0.6000000000000014
                },
                {
                    "name": "D3",
                    "midi": 50,
                    "time": 17.7,
                    "velocity": 0.6377952755905512,
                    "duration": 0.07499999999999929
                },
                {
                    "name": "G2",
                    "midi": 43,
                    "time": 18,
                    "velocity": 0.5354330708661418,
                    "duration": 1.2000000000000028
                },
                {
                    "name": "A#2",
                    "midi": 46,
                    "time": 18,
                    "velocity": 0.5354330708661418,
                    "duration": 0.6000000000000014
                },
                {
                    "name": "G3",
                    "midi": 55,
                    "time": 18,
                    "velocity": 0.6299212598425197,
                    "duration": 0.6000000000000014
                },
                {
                    "name": "D3",
                    "midi": 50,
                    "time": 18.6,
                    "velocity": 0.5354330708661418,
                    "duration": 0.6000000000000014
                },
                {
                    "name": "A3",
                    "midi": 57,
                    "time": 18.6,
                    "velocity": 0.6377952755905512,
                    "duration": 0.6000000000000014
                },
                {
                    "name": "A#3",
                    "midi": 58,
                    "time": 19.200000000000003,
                    "velocity": 0.6692913385826772,
                    "duration": 0.6000000000000014
                },
                {
                    "name": "G3",
                    "midi": 55,
                    "time": 19.200000000000003,
                    "velocity": 0.5669291338582677,
                    "duration": 0.6000000000000014
                },
                {
                    "name": "D#3",
                    "midi": 51,
                    "time": 20.100000000000005,
                    "velocity": 0.41732283464566927,
                    "duration": 0.07499999999999929
                },
                {
                    "name": "D#2",
                    "midi": 39,
                    "time": 20.100000000000005,
                    "velocity": 0.3543307086614173,
                    "duration": 0.07499999999999929
                },
                {
                    "name": "F2",
                    "midi": 41,
                    "time": 20.400000000000006,
                    "velocity": 0.4881889763779528,
                    "duration": 0.14999999999999858
                },
                {
                    "name": "F3",
                    "midi": 53,
                    "time": 20.400000000000006,
                    "velocity": 0.5826771653543307,
                    "duration": 0.14999999999999858
                },
                {
                    "name": "A#1",
                    "midi": 34,
                    "time": 21.000000000000004,
                    "velocity": 0.4330708661417323,
                    "duration": 0.14999999999999858
                },
                {
                    "name": "A#2",
                    "midi": 46,
                    "time": 21.000000000000004,
                    "velocity": 0.5118110236220472,
                    "duration": 0.14999999999999858
                },
                {
                    "name": "D#3",
                    "midi": 51,
                    "time": 21.6,
                    "velocity": 0.5905511811023622,
                    "duration": 0.3000000000000007
                },
                {
                    "name": "D#2",
                    "midi": 39,
                    "time": 21.6,
                    "velocity": 0.49606299212598426,
                    "duration": 0.3000000000000007
                },
                {
                    "name": "A2",
                    "midi": 45,
                    "time": 22.500000000000004,
                    "velocity": 0.6377952755905512,
                    "duration": 0.3000000000000007
                },
                {
                    "name": "A1",
                    "midi": 33,
                    "time": 22.500000000000004,
                    "velocity": 0.5354330708661418,
                    "duration": 0.3000000000000007
                },
                {
                    "name": "D3",
                    "midi": 50,
                    "time": 22.800000000000004,
                    "velocity": 0.5826771653543307,
                    "duration": 0.6000000000000014
                },
                {
                    "name": "D2",
                    "midi": 38,
                    "time": 22.800000000000004,
                    "velocity": 0.4881889763779528,
                    "duration": 0.6000000000000014
                },
                {
                    "name": "G#1",
                    "midi": 32,
                    "time": 23.700000000000006,
                    "velocity": 0.5118110236220472,
                    "duration": 0.3000000000000007
                },
                {
                    "name": "G#2",
                    "midi": 44,
                    "time": 23.700000000000006,
                    "velocity": 0.6062992125984252,
                    "duration": 0.3000000000000007
                },
                {
                    "name": "D3",
                    "midi": 50,
                    "time": 24.000000000000007,
                    "velocity": 0.5354330708661418,
                    "duration": 0.6000000000000014
                },
                {
                    "name": "D2",
                    "midi": 38,
                    "time": 24.000000000000007,
                    "velocity": 0.44881889763779526,
                    "duration": 0.6000000000000014
                },
                {
                    "name": "A1",
                    "midi": 33,
                    "time": 24.90000000000001,
                    "velocity": 0.5118110236220472,
                    "duration": 0.3000000000000007
                },
                {
                    "name": "A2",
                    "midi": 45,
                    "time": 24.90000000000001,
                    "velocity": 0.6062992125984252,
                    "duration": 0.3000000000000007
                },
                {
                    "name": "D3",
                    "midi": 50,
                    "time": 25.20000000000001,
                    "velocity": 0.5354330708661418,
                    "duration": 1.1999999999999993
                },
                {
                    "name": "D2",
                    "midi": 38,
                    "time": 25.20000000000001,
                    "velocity": 0.44881889763779526,
                    "duration": 1.8000000000000007
                },
                {
                    "name": "D2",
                    "midi": 38,
                    "time": 27.30000000000001,
                    "velocity": 0.4094488188976378,
                    "duration": 0.07499999999999929
                },
                {
                    "name": "G1",
                    "midi": 31,
                    "time": 27.600000000000012,
                    "velocity": 0.33070866141732286,
                    "duration": 1.8000000000000007
                },
                {
                    "name": "G2",
                    "midi": 43,
                    "time": 27.600000000000012,
                    "velocity": 0.3937007874015748,
                    "duration": 1.8000000000000007
                },
                {
                    "name": "A#2",
                    "midi": 46,
                    "time": 29.700000000000014,
                    "velocity": 0.3700787401574803,
                    "duration": 0.07499999999999929
                },
                {
                    "name": "A#1",
                    "midi": 34,
                    "time": 29.700000000000014,
                    "velocity": 0.30708661417322836,
                    "duration": 0.07499999999999929
                },
                {
                    "name": "C2",
                    "midi": 36,
                    "time": 30.000000000000014,
                    "velocity": 0.36220472440944884,
                    "duration": 0.6000000000000014
                },
                {
                    "name": "C3",
                    "midi": 48,
                    "time": 30.000000000000014,
                    "velocity": 0.4330708661417323,
                    "duration": 0.6000000000000014
                },
                {
                    "name": "D2",
                    "midi": 38,
                    "time": 30.600000000000016,
                    "velocity": 0.36220472440944884,
                    "duration": 0.6000000000000014
                },
                {
                    "name": "D3",
                    "midi": 50,
                    "time": 30.600000000000016,
                    "velocity": 0.4330708661417323,
                    "duration": 0.6000000000000014
                },
                {
                    "name": "D#3",
                    "midi": 51,
                    "time": 31.200000000000017,
                    "velocity": 0.47244094488188976,
                    "duration": 0.6000000000000014
                },
                {
                    "name": "D#2",
                    "midi": 39,
                    "time": 31.200000000000017,
                    "velocity": 0.3937007874015748,
                    "duration": 0.6000000000000014
                },
                {
                    "name": "D2",
                    "midi": 38,
                    "time": 32.100000000000016,
                    "velocity": 0.3937007874015748,
                    "duration": 0.14999999999999858
                },
                {
                    "name": "D3",
                    "midi": 50,
                    "time": 32.100000000000016,
                    "velocity": 0.47244094488188976,
                    "duration": 0.14999999999999858
                },
                {
                    "name": "C3",
                    "midi": 48,
                    "time": 32.40000000000001,
                    "velocity": 0.5118110236220472,
                    "duration": 0.6000000000000014
                },
                {
                    "name": "C2",
                    "midi": 36,
                    "time": 32.40000000000001,
                    "velocity": 0.4251968503937008,
                    "duration": 0.6000000000000014
                },
                {
                    "name": "D2",
                    "midi": 38,
                    "time": 33.000000000000014,
                    "velocity": 0.4251968503937008,
                    "duration": 0.6000000000000014
                },
                {
                    "name": "D3",
                    "midi": 50,
                    "time": 33.000000000000014,
                    "velocity": 0.5039370078740157,
                    "duration": 0.6000000000000014
                },
                {
                    "name": "C#2",
                    "midi": 37,
                    "time": 33.600000000000016,
                    "velocity": 0.4566929133858268,
                    "duration": 0.8999999999999986
                },
                {
                    "name": "C#3",
                    "midi": 49,
                    "time": 33.600000000000016,
                    "velocity": 0.5511811023622047,
                    "duration": 0.8999999999999986
                },
                {
                    "name": "C#2",
                    "midi": 37,
                    "time": 34.500000000000014,
                    "velocity": 0.4409448818897638,
                    "duration": 0.07500000000000284
                },
                {
                    "name": "C#3",
                    "midi": 49,
                    "time": 34.500000000000014,
                    "velocity": 0.5275590551181102,
                    "duration": 0.07500000000000284
                },
                {
                    "name": "D3",
                    "midi": 50,
                    "time": 34.80000000000002,
                    "velocity": 0.6692913385826772,
                    "duration": 0.6000000000000014
                },
                {
                    "name": "D2",
                    "midi": 38,
                    "time": 34.80000000000002,
                    "velocity": 0.5669291338582677,
                    "duration": 0.6000000000000014
                },
                {
                    "name": "D2",
                    "midi": 38,
                    "time": 35.40000000000002,
                    "velocity": 0.5039370078740157,
                    "duration": 0.6000000000000014
                },
                {
                    "name": "D3",
                    "midi": 50,
                    "time": 35.40000000000002,
                    "velocity": 0.6062992125984252,
                    "duration": 0.6000000000000014
                },
                {
                    "name": "C#3",
                    "midi": 49,
                    "time": 36.00000000000002,
                    "velocity": 0.5511811023622047,
                    "duration": 0.8999999999999986
                },
                {
                    "name": "C#2",
                    "midi": 37,
                    "time": 36.00000000000002,
                    "velocity": 0.4566929133858268,
                    "duration": 0.8999999999999986
                },
                {
                    "name": "C#3",
                    "midi": 49,
                    "time": 36.90000000000002,
                    "velocity": 0.5275590551181102,
                    "duration": 0.07500000000000284
                },
                {
                    "name": "C#2",
                    "midi": 37,
                    "time": 36.90000000000002,
                    "velocity": 0.4409448818897638,
                    "duration": 0.07500000000000284
                },
                {
                    "name": "D2",
                    "midi": 38,
                    "time": 37.200000000000024,
                    "velocity": 0.6220472440944882,
                    "duration": 0.6000000000000014
                },
                {
                    "name": "D3",
                    "midi": 50,
                    "time": 37.200000000000024,
                    "velocity": 0.7322834645669292,
                    "duration": 0.6000000000000014
                },
                {
                    "name": "D2",
                    "midi": 38,
                    "time": 37.800000000000026,
                    "velocity": 0.5511811023622047,
                    "duration": 0.6000000000000014
                },
                {
                    "name": "D3",
                    "midi": 50,
                    "time": 37.800000000000026,
                    "velocity": 0.6614173228346457,
                    "duration": 0.6000000000000014
                },
                {
                    "name": "G2",
                    "midi": 43,
                    "time": 38.40000000000003,
                    "velocity": 0.6614173228346457,
                    "duration": 0.6000000000000014
                },
                {
                    "name": "G1",
                    "midi": 31,
                    "time": 38.40000000000003,
                    "velocity": 0.5511811023622047,
                    "duration": 0.6000000000000014
                },
                {
                    "name": "A#1",
                    "midi": 34,
                    "time": 39.60000000000003,
                    "velocity": 0.3937007874015748,
                    "duration": 1.7999999999999972
                },
                {
                    "name": "A#2",
                    "midi": 46,
                    "time": 39.60000000000003,
                    "velocity": 0.3937007874015748,
                    "duration": 1.7999999999999972
                },
                {
                    "name": "D3",
                    "midi": 50,
                    "time": 39.75000000000003,
                    "velocity": 0.23622047244094488,
                    "duration": 0.14999999999999858
                },
                {
                    "name": "D3",
                    "midi": 50,
                    "time": 40.35000000000003,
                    "velocity": 0.28346456692913385,
                    "duration": 0.14999999999999858
                },
                {
                    "name": "D3",
                    "midi": 50,
                    "time": 40.95000000000003,
                    "velocity": 0.2440944881889764,
                    "duration": 0.14999999999999858
                },
                {
                    "name": "C3",
                    "midi": 48,
                    "time": 41.40000000000003,
                    "velocity": 0.3937007874015748,
                    "duration": 0.5999999999999943
                },
                {
                    "name": "G#1",
                    "midi": 32,
                    "time": 41.40000000000003,
                    "velocity": 0.3937007874015748,
                    "duration": 0.5999999999999943
                },
                {
                    "name": "D3",
                    "midi": 50,
                    "time": 41.550000000000026,
                    "velocity": 0.2440944881889764,
                    "duration": 0.14999999999999858
                },
                {
                    "name": "B2",
                    "midi": 47,
                    "time": 42.00000000000002,
                    "velocity": 0.3937007874015748,
                    "duration": 1.79999999999999
                },
                {
                    "name": "G1",
                    "midi": 31,
                    "time": 42.00000000000002,
                    "velocity": 0.3937007874015748,
                    "duration": 1.79999999999999
                },
                {
                    "name": "D3",
                    "midi": 50,
                    "time": 42.15000000000002,
                    "velocity": 0.2755905511811024,
                    "duration": 0.14999999999999858
                },
                {
                    "name": "D3",
                    "midi": 50,
                    "time": 42.75000000000002,
                    "velocity": 0.25196850393700787,
                    "duration": 0.14999999999999858
                },
                {
                    "name": "C4",
                    "midi": 60,
                    "time": 43.20000000000002,
                    "velocity": 0.33858267716535434,
                    "duration": 0.29999999999999716
                },
                {
                    "name": "D3",
                    "midi": 50,
                    "time": 43.350000000000016,
                    "velocity": 0.23622047244094488,
                    "duration": 0.14999999999999858
                },
                {
                    "name": "B3",
                    "midi": 59,
                    "time": 43.500000000000014,
                    "velocity": 0.3228346456692913,
                    "duration": 0.29999999999999716
                },
                {
                    "name": "A3",
                    "midi": 57,
                    "time": 43.80000000000001,
                    "velocity": 0.33858267716535434,
                    "duration": 0.29999999999999716
                },
                {
                    "name": "D3",
                    "midi": 50,
                    "time": 43.95000000000001,
                    "velocity": 0.23622047244094488,
                    "duration": 0.14999999999999858
                },
                {
                    "name": "G3",
                    "midi": 55,
                    "time": 44.10000000000001,
                    "velocity": 0.31496062992125984,
                    "duration": 0.29999999999999716
                },
                {
                    "name": "C3",
                    "midi": 48,
                    "time": 44.400000000000006,
                    "velocity": 0.3543307086614173,
                    "duration": 0.29999999999999716
                },
                {
                    "name": "C2",
                    "midi": 36,
                    "time": 44.550000000000004,
                    "velocity": 0.2440944881889764,
                    "duration": 0.14999999999999858
                },
                {
                    "name": "D3",
                    "midi": 50,
                    "time": 44.7,
                    "velocity": 0.33070866141732286,
                    "duration": 0.29999999999999716
                },
                {
                    "name": "D#3",
                    "midi": 51,
                    "time": 45,
                    "velocity": 0.3700787401574803,
                    "duration": 0.29999999999999716
                },
                {
                    "name": "C3",
                    "midi": 48,
                    "time": 45.15,
                    "velocity": 0.25196850393700787,
                    "duration": 0.14999999999999858
                },
                {
                    "name": "F3",
                    "midi": 53,
                    "time": 45.3,
                    "velocity": 0.33070866141732286,
                    "duration": 0.29999999999999716
                },
                {
                    "name": "G3",
                    "midi": 55,
                    "time": 45.599999999999994,
                    "velocity": 0.3779527559055118,
                    "duration": 0.29999999999999716
                },
                {
                    "name": "C3",
                    "midi": 48,
                    "time": 45.74999999999999,
                    "velocity": 0.25196850393700787,
                    "duration": 0.14999999999999858
                },
                {
                    "name": "A3",
                    "midi": 57,
                    "time": 45.89999999999999,
                    "velocity": 0.30708661417322836,
                    "duration": 0.29999999999999716
                },
                {
                    "name": "B3",
                    "midi": 59,
                    "time": 46.19999999999999,
                    "velocity": 0.33070866141732286,
                    "duration": 0.20000000000000284
                },
                {
                    "name": "C4",
                    "midi": 60,
                    "time": 46.39999999999999,
                    "velocity": 0.3700787401574803,
                    "duration": 0.20000000000000284
                },
                {
                    "name": "D4",
                    "midi": 62,
                    "time": 46.599999999999994,
                    "velocity": 0.4094488188976378,
                    "duration": 0.20000000000000284
                },
                {
                    "name": "A3",
                    "midi": 57,
                    "time": 46.8,
                    "velocity": 0.44881889763779526,
                    "duration": 1.1999999999999957
                },
                {
                    "name": "F2",
                    "midi": 41,
                    "time": 46.8,
                    "velocity": 0.44881889763779526,
                    "duration": 2.3999999999999844
                },
                {
                    "name": "F3",
                    "midi": 53,
                    "time": 46.949999999999996,
                    "velocity": 0.25196850393700787,
                    "duration": 0.14999999999999858
                },
                {
                    "name": "F3",
                    "midi": 53,
                    "time": 47.55,
                    "velocity": 0.25196850393700787,
                    "duration": 0.14999999999999858
                },
                {
                    "name": "A3",
                    "midi": 57,
                    "time": 47.99999999999999,
                    "velocity": 0.3700787401574803,
                    "duration": 0.29999999999999716
                },
                {
                    "name": "F3",
                    "midi": 53,
                    "time": 48.14999999999999,
                    "velocity": 0.25196850393700787,
                    "duration": 0.14999999999999858
                },
                {
                    "name": "G3",
                    "midi": 55,
                    "time": 48.29999999999999,
                    "velocity": 0.33858267716535434,
                    "duration": 0.29999999999999716
                },
                {
                    "name": "F3",
                    "midi": 53,
                    "time": 48.59999999999999,
                    "velocity": 0.36220472440944884,
                    "duration": 0.14999999999999858
                },
                {
                    "name": "D#3",
                    "midi": 51,
                    "time": 48.749999999999986,
                    "velocity": 0.3543307086614173,
                    "duration": 0.14999999999999858
                },
                {
                    "name": "D3",
                    "midi": 50,
                    "time": 48.899999999999984,
                    "velocity": 0.3464566929133858,
                    "duration": 0.14999999999999858
                },
                {
                    "name": "C3",
                    "midi": 48,
                    "time": 49.04999999999998,
                    "velocity": 0.33070866141732286,
                    "duration": 0.14999999999999858
                },
                {
                    "name": "A#1",
                    "midi": 34,
                    "time": 49.19999999999998,
                    "velocity": 0.2677165354330709,
                    "duration": 0.6000000000000014
                },
                {
                    "name": "A#2",
                    "midi": 46,
                    "time": 49.19999999999998,
                    "velocity": 0.3228346456692913,
                    "duration": 0.6000000000000014
                },
                {
                    "name": "A2",
                    "midi": 45,
                    "time": 51.59999999999998,
                    "velocity": 0.3228346456692913,
                    "duration": 0.6000000000000014
                },
                {
                    "name": "G#3",
                    "midi": 56,
                    "time": 53.399999999999984,
                    "velocity": 0.3228346456692913,
                    "duration": 0.6000000000000014
                },
                {
                    "name": "B2",
                    "midi": 47,
                    "time": 53.399999999999984,
                    "velocity": 0.3228346456692913,
                    "duration": 0.6000000000000014
                },
                {
                    "name": "C4",
                    "midi": 60,
                    "time": 53.999999999999986,
                    "velocity": 0.3228346456692913,
                    "duration": 1.2000000000000028
                },
                {
                    "name": "A3",
                    "midi": 57,
                    "time": 53.999999999999986,
                    "velocity": 0.3228346456692913,
                    "duration": 1.2000000000000028
                },
                {
                    "name": "C3",
                    "midi": 48,
                    "time": 53.999999999999986,
                    "velocity": 0.3228346456692913,
                    "duration": 1.2000000000000028
                },
                {
                    "name": "A#3",
                    "midi": 58,
                    "time": 55.19999999999999,
                    "velocity": 0.3228346456692913,
                    "duration": 1.2000000000000028
                },
                {
                    "name": "E4",
                    "midi": 64,
                    "time": 55.19999999999999,
                    "velocity": 0.3228346456692913,
                    "duration": 1.2000000000000028
                },
                {
                    "name": "C3",
                    "midi": 48,
                    "time": 55.19999999999999,
                    "velocity": 0.3228346456692913,
                    "duration": 1.2000000000000028
                },
                {
                    "name": "F3",
                    "midi": 53,
                    "time": 56.40124999999999,
                    "velocity": 0.33858267716535434,
                    "duration": 0.29999999999999716
                },
                {
                    "name": "C4",
                    "midi": 60,
                    "time": 56.40374999999999,
                    "velocity": 0.33858267716535434,
                    "duration": 1.79999999999999
                },
                {
                    "name": "E3",
                    "midi": 52,
                    "time": 56.69999999999999,
                    "velocity": 0.33858267716535434,
                    "duration": 0.29999999999999716
                },
                {
                    "name": "D3",
                    "midi": 50,
                    "time": 56.99749999999999,
                    "velocity": 0.33858267716535434,
                    "duration": 0.29999999999999716
                },
                {
                    "name": "C3",
                    "midi": 48,
                    "time": 57.29999999999998,
                    "velocity": 0.33858267716535434,
                    "duration": 0.29999999999999716
                },
                {
                    "name": "F3",
                    "midi": 53,
                    "time": 57.60874999999998,
                    "velocity": 0.33858267716535434,
                    "duration": 1.1925000000000026
                },
                {
                    "name": "F2",
                    "midi": 41,
                    "time": 58.19999999999998,
                    "velocity": 0.33858267716535434,
                    "duration": 0.6000000000000014
                },
                {
                    "name": "D#3",
                    "midi": 51,
                    "time": 58.34999999999998,
                    "velocity": 0.2440944881889764,
                    "duration": 0.45000000000000284
                },
                {
                    "name": "F3",
                    "midi": 53,
                    "time": 58.79374999999998,
                    "velocity": 0.33858267716535434,
                    "duration": 0.29999999999999716
                },
                {
                    "name": "A#2",
                    "midi": 46,
                    "time": 58.79999999999998,
                    "velocity": 0.3937007874015748,
                    "duration": 1.799999999999983
                },
                {
                    "name": "A#1",
                    "midi": 34,
                    "time": 58.79999999999998,
                    "velocity": 0.3937007874015748,
                    "duration": 1.799999999999983
                },
                {
                    "name": "D3",
                    "midi": 50,
                    "time": 58.94999999999998,
                    "velocity": 0.23622047244094488,
                    "duration": 0.14999999999999858
                },
                {
                    "name": "G3",
                    "midi": 55,
                    "time": 59.09124999999998,
                    "velocity": 0.33858267716535434,
                    "duration": 0.29999999999999716
                },
                {
                    "name": "A3",
                    "midi": 57,
                    "time": 59.40624999999998,
                    "velocity": 0.33858267716535434,
                    "duration": 0.29999999999999716
                },
                {
                    "name": "D3",
                    "midi": 50,
                    "time": 59.549999999999976,
                    "velocity": 0.28346456692913385,
                    "duration": 0.14999999999999858
                },
                {
                    "name": "A#3",
                    "midi": 58,
                    "time": 59.706249999999976,
                    "velocity": 0.33858267716535434,
                    "duration": 0.29999999999999716
                },
                {
                    "name": "D3",
                    "midi": 50,
                    "time": 60.14999999999997,
                    "velocity": 0.2440944881889764,
                    "duration": 0.14999999999999858
                },
                {
                    "name": "C3",
                    "midi": 48,
                    "time": 60.599999999999966,
                    "velocity": 0.3937007874015748,
                    "duration": 0.5999999999999943
                },
                {
                    "name": "G#1",
                    "midi": 32,
                    "time": 60.599999999999966,
                    "velocity": 0.3937007874015748,
                    "duration": 0.5999999999999943
                },
                {
                    "name": "D3",
                    "midi": 50,
                    "time": 60.749999999999964,
                    "velocity": 0.2440944881889764,
                    "duration": 0.14999999999999858
                },
                {
                    "name": "G1",
                    "midi": 31,
                    "time": 61.19999999999996,
                    "velocity": 0.3937007874015748,
                    "duration": 1.79999999999999
                },
                {
                    "name": "B2",
                    "midi": 47,
                    "time": 61.19999999999996,
                    "velocity": 0.3937007874015748,
                    "duration": 1.79999999999999
                },
                {
                    "name": "D3",
                    "midi": 50,
                    "time": 61.34999999999996,
                    "velocity": 0.2755905511811024,
                    "duration": 0.14999999999999858
                },
                {
                    "name": "D3",
                    "midi": 50,
                    "time": 61.94999999999996,
                    "velocity": 0.25196850393700787,
                    "duration": 0.14999999999999858
                },
                {
                    "name": "C4",
                    "midi": 60,
                    "time": 62.399999999999956,
                    "velocity": 0.33858267716535434,
                    "duration": 0.29999999999999716
                },
                {
                    "name": "D3",
                    "midi": 50,
                    "time": 62.549999999999955,
                    "velocity": 0.23622047244094488,
                    "duration": 0.14999999999999858
                },
                {
                    "name": "B3",
                    "midi": 59,
                    "time": 62.69999999999995,
                    "velocity": 0.3228346456692913,
                    "duration": 0.29999999999999716
                },
                {
                    "name": "A3",
                    "midi": 57,
                    "time": 62.99999999999995,
                    "velocity": 0.33858267716535434,
                    "duration": 0.29999999999999716
                },
                {
                    "name": "D3",
                    "midi": 50,
                    "time": 63.14999999999995,
                    "velocity": 0.23622047244094488,
                    "duration": 0.14999999999999858
                },
                {
                    "name": "G3",
                    "midi": 55,
                    "time": 63.29999999999995,
                    "velocity": 0.31496062992125984,
                    "duration": 0.29999999999999716
                },
                {
                    "name": "C3",
                    "midi": 48,
                    "time": 63.599999999999945,
                    "velocity": 0.3543307086614173,
                    "duration": 0.29999999999999716
                },
                {
                    "name": "C2",
                    "midi": 36,
                    "time": 63.74999999999994,
                    "velocity": 0.2440944881889764,
                    "duration": 0.14999999999999858
                },
                {
                    "name": "D3",
                    "midi": 50,
                    "time": 63.89999999999994,
                    "velocity": 0.33070866141732286,
                    "duration": 0.30000000000000426
                },
                {
                    "name": "D#3",
                    "midi": 51,
                    "time": 64.19999999999995,
                    "velocity": 0.3700787401574803,
                    "duration": 0.30000000000001137
                },
                {
                    "name": "C3",
                    "midi": 48,
                    "time": 64.34999999999995,
                    "velocity": 0.25196850393700787,
                    "duration": 0.15000000000000568
                },
                {
                    "name": "F3",
                    "midi": 53,
                    "time": 64.49999999999996,
                    "velocity": 0.33070866141732286,
                    "duration": 0.29999999999999716
                },
                {
                    "name": "G3",
                    "midi": 55,
                    "time": 64.79999999999995,
                    "velocity": 0.3779527559055118,
                    "duration": 0.30000000000001137
                },
                {
                    "name": "C3",
                    "midi": 48,
                    "time": 64.94999999999996,
                    "velocity": 0.25196850393700787,
                    "duration": 0.15000000000000568
                },
                {
                    "name": "A3",
                    "midi": 57,
                    "time": 65.09999999999997,
                    "velocity": 0.30708661417322836,
                    "duration": 0.29999999999999716
                },
                {
                    "name": "B3",
                    "midi": 59,
                    "time": 65.39999999999996,
                    "velocity": 0.33070866141732286,
                    "duration": 0.20000000000000284
                },
                {
                    "name": "C4",
                    "midi": 60,
                    "time": 65.59999999999997,
                    "velocity": 0.3700787401574803,
                    "duration": 0.20000000000000284
                },
                {
                    "name": "D4",
                    "midi": 62,
                    "time": 65.79999999999997,
                    "velocity": 0.4094488188976378,
                    "duration": 0.20000000000000284
                },
                {
                    "name": "F2",
                    "midi": 41,
                    "time": 65.99999999999997,
                    "velocity": 0.44881889763779526,
                    "duration": 2.400000000000034
                },
                {
                    "name": "A3",
                    "midi": 57,
                    "time": 65.99999999999997,
                    "velocity": 0.44881889763779526,
                    "duration": 1.1962500000000205
                },
                {
                    "name": "F3",
                    "midi": 53,
                    "time": 66.14999999999998,
                    "velocity": 0.25196850393700787,
                    "duration": 0.15000000000000568
                },
                {
                    "name": "F3",
                    "midi": 53,
                    "time": 66.74999999999999,
                    "velocity": 0.25196850393700787,
                    "duration": 0.15000000000000568
                },
                {
                    "name": "A3",
                    "midi": 57,
                    "time": 67.19999999999999,
                    "velocity": 0.3700787401574803,
                    "duration": 0.29999999999999716
                },
                {
                    "name": "F3",
                    "midi": 53,
                    "time": 67.35,
                    "velocity": 0.25196850393700787,
                    "duration": 0.14999999999999147
                },
                {
                    "name": "G3",
                    "midi": 55,
                    "time": 67.49749999999999,
                    "velocity": 0.33858267716535434,
                    "duration": 0.29999999999999716
                },
                {
                    "name": "F3",
                    "midi": 53,
                    "time": 67.79999999999998,
                    "velocity": 0.36220472440944884,
                    "duration": 0.15000000000000568
                },
                {
                    "name": "D#3",
                    "midi": 51,
                    "time": 67.94999999999999,
                    "velocity": 0.3543307086614173,
                    "duration": 0.15000000000000568
                },
                {
                    "name": "D3",
                    "midi": 50,
                    "time": 68.1,
                    "velocity": 0.3464566929133858,
                    "duration": 0.15000000000000568
                },
                {
                    "name": "C3",
                    "midi": 48,
                    "time": 68.25,
                    "velocity": 0.33070866141732286,
                    "duration": 0.15000000000000568
                },
                {
                    "name": "A#2",
                    "midi": 46,
                    "time": 68.4,
                    "velocity": 0.3228346456692913,
                    "duration": 0.5999999999999943
                },
                {
                    "name": "A#1",
                    "midi": 34,
                    "time": 68.4,
                    "velocity": 0.2677165354330709,
                    "duration": 0.5999999999999943
                },
                {
                    "name": "A2",
                    "midi": 45,
                    "time": 70.8,
                    "velocity": 0.3228346456692913,
                    "duration": 0.5999999999999943
                },
                {
                    "name": "B2",
                    "midi": 47,
                    "time": 72.6,
                    "velocity": 0.3228346456692913,
                    "duration": 0.5999999999999943
                },
                {
                    "name": "G#3",
                    "midi": 56,
                    "time": 72.6,
                    "velocity": 0.3228346456692913,
                    "duration": 0.5999999999999943
                },
                {
                    "name": "A3",
                    "midi": 57,
                    "time": 73.19999999999999,
                    "velocity": 0.3228346456692913,
                    "duration": 1.2000000000000028
                },
                {
                    "name": "C3",
                    "midi": 48,
                    "time": 73.19999999999999,
                    "velocity": 0.3228346456692913,
                    "duration": 1.2000000000000028
                },
                {
                    "name": "C4",
                    "midi": 60,
                    "time": 73.19999999999999,
                    "velocity": 0.3228346456692913,
                    "duration": 1.2000000000000028
                },
                {
                    "name": "E4",
                    "midi": 64,
                    "time": 74.39999999999999,
                    "velocity": 0.3228346456692913,
                    "duration": 1.2000000000000028
                },
                {
                    "name": "A#3",
                    "midi": 58,
                    "time": 74.39999999999999,
                    "velocity": 0.3228346456692913,
                    "duration": 1.2000000000000028
                },
                {
                    "name": "C3",
                    "midi": 48,
                    "time": 74.39999999999999,
                    "velocity": 0.3228346456692913,
                    "duration": 1.2000000000000028
                },
                {
                    "name": "F3",
                    "midi": 53,
                    "time": 75.59875,
                    "velocity": 0.33858267716535434,
                    "duration": 0.29999999999999716
                },
                {
                    "name": "C4",
                    "midi": 60,
                    "time": 75.6,
                    "velocity": 0.33858267716535434,
                    "duration": 1.799999999999983
                },
                {
                    "name": "E3",
                    "midi": 52,
                    "time": 75.90875,
                    "velocity": 0.33858267716535434,
                    "duration": 0.29999999999999716
                },
                {
                    "name": "D3",
                    "midi": 50,
                    "time": 76.195,
                    "velocity": 0.33858267716535434,
                    "duration": 0.29999999999999716
                },
                {
                    "name": "C3",
                    "midi": 48,
                    "time": 76.49999999999999,
                    "velocity": 0.33858267716535434,
                    "duration": 0.29999999999999716
                },
                {
                    "name": "F3",
                    "midi": 53,
                    "time": 76.80624999999998,
                    "velocity": 0.33858267716535434,
                    "duration": 0.5999999999999943
                },
                {
                    "name": "F2",
                    "midi": 41,
                    "time": 77.92499999999997,
                    "velocity": 0.3937007874015748,
                    "duration": 2.4750000000000085
                },
                {
                    "name": "A3",
                    "midi": 57,
                    "time": 77.99999999999997,
                    "velocity": 0.3937007874015748,
                    "duration": 2.4000000000000057
                },
                {
                    "name": "D#2",
                    "midi": 39,
                    "time": 80.32499999999997,
                    "velocity": 0.3937007874015748,
                    "duration": 2.4750000000000085
                },
                {
                    "name": "A#3",
                    "midi": 58,
                    "time": 80.39999999999998,
                    "velocity": 0.3937007874015748,
                    "duration": 1.2000000000000028
                },
                {
                    "name": "C3",
                    "midi": 48,
                    "time": 81.59999999999998,
                    "velocity": 0.3937007874015748,
                    "duration": 2.700000000000003
                },
                {
                    "name": "F2",
                    "midi": 41,
                    "time": 82.79999999999998,
                    "velocity": 0.33070866141732286,
                    "duration": 1.5
                },
                {
                    "name": "D#2",
                    "midi": 39,
                    "time": 85.12499999999999,
                    "velocity": 0.33070866141732286,
                    "duration": 1.2750000000000057
                },
                {
                    "name": "A#3",
                    "midi": 58,
                    "time": 85.19999999999999,
                    "velocity": 0.33070866141732286,
                    "duration": 1.2000000000000028
                },
                {
                    "name": "F#2",
                    "midi": 42,
                    "time": 86.39999999999999,
                    "velocity": 0.33070866141732286,
                    "duration": 1.2000000000000028
                },
                {
                    "name": "G#2",
                    "midi": 44,
                    "time": 87.3,
                    "velocity": 0.2677165354330709,
                    "duration": 0.29999999999999716
                },
                {
                    "name": "C#3",
                    "midi": 49,
                    "time": 87.6,
                    "velocity": 0.2677165354330709,
                    "duration": 0.29999999999999716
                },
                {
                    "name": "F2",
                    "midi": 41,
                    "time": 87.6,
                    "velocity": 0.2677165354330709,
                    "duration": 0.5999999999999943
                },
                {
                    "name": "D#3",
                    "midi": 51,
                    "time": 87.89874999999999,
                    "velocity": 0.2283464566929134,
                    "duration": 0.29999999999999716
                },
                {
                    "name": "F3",
                    "midi": 53,
                    "time": 88.1925,
                    "velocity": 0.2677165354330709,
                    "duration": 2.9999999999999716
                },
                {
                    "name": "F#3",
                    "midi": 54,
                    "time": 88.49624999999999,
                    "velocity": 0.2677165354330709,
                    "duration": 0.29999999999999716
                },
                {
                    "name": "G#3",
                    "midi": 56,
                    "time": 88.79624999999999,
                    "velocity": 0.28346456692913385,
                    "duration": 0.29999999999999716
                },
                {
                    "name": "A#3",
                    "midi": 58,
                    "time": 89.09999999999998,
                    "velocity": 0.29133858267716534,
                    "duration": 0.29999999999999716
                },
                {
                    "name": "C4",
                    "midi": 60,
                    "time": 89.40624999999997,
                    "velocity": 0.33070866141732286,
                    "duration": 0.29999999999999716
                },
                {
                    "name": "D4",
                    "midi": 62,
                    "time": 90.01249999999997,
                    "velocity": 0.3543307086614173,
                    "duration": 0.29999999999999716
                },
                {
                    "name": "B3",
                    "midi": 59,
                    "time": 90.29999999999997,
                    "velocity": 0.33070866141732286,
                    "duration": 0.29999999999999716
                },
                {
                    "name": "G#3",
                    "midi": 56,
                    "time": 90.59999999999997,
                    "velocity": 0.2992125984251969,
                    "duration": 0.29999999999999716
                },
                {
                    "name": "F3",
                    "midi": 53,
                    "time": 90.89999999999996,
                    "velocity": 0.29133858267716534,
                    "duration": 0.29999999999999716
                },
                {
                    "name": "C#3",
                    "midi": 49,
                    "time": 91.19999999999996,
                    "velocity": 0.28346456692913385,
                    "duration": 3.4499999999999886
                },
                {
                    "name": "B2",
                    "midi": 47,
                    "time": 91.49999999999996,
                    "velocity": 0.2755905511811024,
                    "duration": 0.29999999999999716
                },
                {
                    "name": "G#2",
                    "midi": 44,
                    "time": 91.79999999999995,
                    "velocity": 0.2677165354330709,
                    "duration": 0.29999999999999716
                },
                {
                    "name": "F2",
                    "midi": 41,
                    "time": 92.09999999999995,
                    "velocity": 0.25984251968503935,
                    "duration": 0.29999999999999716
                },
                {
                    "name": "F#2",
                    "midi": 42,
                    "time": 92.39999999999995,
                    "velocity": 0.28346456692913385,
                    "duration": 2.25
                },
                {
                    "name": "C#3",
                    "midi": 49,
                    "time": 94.64999999999995,
                    "velocity": 0.29133858267716534,
                    "duration": 0.15000000000000568
                },
                {
                    "name": "F#2",
                    "midi": 42,
                    "time": 94.64999999999995,
                    "velocity": 0.29133858267716534,
                    "duration": 2.549999999999997
                },
                {
                    "name": "D3",
                    "midi": 50,
                    "time": 94.79999999999995,
                    "velocity": 0.3543307086614173,
                    "duration": 2.0999999999999943
                },
                {
                    "name": "D4",
                    "midi": 62,
                    "time": 95.39999999999995,
                    "velocity": 0.3858267716535433,
                    "duration": 0.5962499999999977
                },
                {
                    "name": "C#3",
                    "midi": 49,
                    "time": 97.19999999999995,
                    "velocity": 0.28346456692913385,
                    "duration": 2.25
                },
                {
                    "name": "F#2",
                    "midi": 42,
                    "time": 97.19999999999995,
                    "velocity": 0.28346456692913385,
                    "duration": 2.4000000000000057
                },
                {
                    "name": "C#3",
                    "midi": 49,
                    "time": 99.44999999999995,
                    "velocity": 0.29133858267716534,
                    "duration": 0.15000000000000568
                },
                {
                    "name": "E3",
                    "midi": 52,
                    "time": 99.59999999999995,
                    "velocity": 0.3543307086614173,
                    "duration": 1.7999999999999972
                },
                {
                    "name": "C2",
                    "midi": 36,
                    "time": 99.59999999999995,
                    "velocity": 0.3543307086614173,
                    "duration": 1.7999999999999972
                },
                {
                    "name": "C#4",
                    "midi": 61,
                    "time": 100.19999999999995,
                    "velocity": 0.3228346456692913,
                    "duration": 0.5962499999999977
                },
                {
                    "name": "F2",
                    "midi": 41,
                    "time": 101.39999999999995,
                    "velocity": 0.2677165354330709,
                    "duration": 0.5999999999999943
                },
                {
                    "name": "A#1",
                    "midi": 34,
                    "time": 101.99999999999994,
                    "velocity": 0.31496062992125984,
                    "duration": 1.8000000000000256
                },
                {
                    "name": "A#2",
                    "midi": 46,
                    "time": 101.99999999999994,
                    "velocity": 0.31496062992125984,
                    "duration": 1.8000000000000256
                },
                {
                    "name": "D3",
                    "midi": 50,
                    "time": 102.14999999999995,
                    "velocity": 0.1889763779527559,
                    "duration": 0.15000000000000568
                },
                {
                    "name": "D3",
                    "midi": 50,
                    "time": 102.74999999999996,
                    "velocity": 0.23622047244094488,
                    "duration": 0.15000000000000568
                },
                {
                    "name": "D3",
                    "midi": 50,
                    "time": 103.34999999999997,
                    "velocity": 0.2204724409448819,
                    "duration": 0.15000000000000568
                },
                {
                    "name": "C3",
                    "midi": 48,
                    "time": 103.79999999999997,
                    "velocity": 0.3700787401574803,
                    "duration": 0.6000000000000085
                },
                {
                    "name": "G#1",
                    "midi": 32,
                    "time": 103.79999999999997,
                    "velocity": 0.3700787401574803,
                    "duration": 0.6000000000000085
                },
                {
                    "name": "D3",
                    "midi": 50,
                    "time": 103.94999999999997,
                    "velocity": 0.2283464566929134,
                    "duration": 0.15000000000000568
                },
                {
                    "name": "G1",
                    "midi": 31,
                    "time": 104.39999999999998,
                    "velocity": 0.3937007874015748,
                    "duration": 1.8000000000000256
                },
                {
                    "name": "B2",
                    "midi": 47,
                    "time": 104.39999999999998,
                    "velocity": 0.3937007874015748,
                    "duration": 1.8000000000000256
                },
                {
                    "name": "D3",
                    "midi": 50,
                    "time": 104.54999999999998,
                    "velocity": 0.2755905511811024,
                    "duration": 0.15000000000000568
                },
                {
                    "name": "D3",
                    "midi": 50,
                    "time": 105.14999999999999,
                    "velocity": 0.25196850393700787,
                    "duration": 0.15000000000000568
                },
                {
                    "name": "C4",
                    "midi": 60,
                    "time": 105.6,
                    "velocity": 0.33858267716535434,
                    "duration": 0.30000000000001137
                },
                {
                    "name": "D3",
                    "midi": 50,
                    "time": 105.75,
                    "velocity": 0.23622047244094488,
                    "duration": 0.15000000000000568
                },
                {
                    "name": "B3",
                    "midi": 59,
                    "time": 105.9,
                    "velocity": 0.3228346456692913,
                    "duration": 0.29999999999999716
                },
                {
                    "name": "A3",
                    "midi": 57,
                    "time": 106.2,
                    "velocity": 0.33858267716535434,
                    "duration": 0.30000000000001137
                },
                {
                    "name": "D3",
                    "midi": 50,
                    "time": 106.35000000000001,
                    "velocity": 0.23622047244094488,
                    "duration": 0.15000000000000568
                },
                {
                    "name": "G3",
                    "midi": 55,
                    "time": 106.50000000000001,
                    "velocity": 0.31496062992125984,
                    "duration": 0.29999999999999716
                },
                {
                    "name": "C3",
                    "midi": 48,
                    "time": 106.80000000000001,
                    "velocity": 0.3543307086614173,
                    "duration": 0.30000000000001137
                },
                {
                    "name": "C2",
                    "midi": 36,
                    "time": 106.95000000000002,
                    "velocity": 0.2440944881889764,
                    "duration": 0.15000000000000568
                },
                {
                    "name": "D3",
                    "midi": 50,
                    "time": 107.10000000000002,
                    "velocity": 0.33070866141732286,
                    "duration": 0.29999999999999716
                },
                {
                    "name": "D#3",
                    "midi": 51,
                    "time": 107.40000000000002,
                    "velocity": 0.3700787401574803,
                    "duration": 0.30000000000001137
                },
                {
                    "name": "C3",
                    "midi": 48,
                    "time": 107.55000000000003,
                    "velocity": 0.25196850393700787,
                    "duration": 0.15000000000000568
                },
                {
                    "name": "F3",
                    "midi": 53,
                    "time": 107.70000000000003,
                    "velocity": 0.33070866141732286,
                    "duration": 0.29999999999999716
                },
                {
                    "name": "G3",
                    "midi": 55,
                    "time": 108.00000000000003,
                    "velocity": 0.3779527559055118,
                    "duration": 0.30000000000001137
                },
                {
                    "name": "C3",
                    "midi": 48,
                    "time": 108.15000000000003,
                    "velocity": 0.25196850393700787,
                    "duration": 0.15000000000000568
                },
                {
                    "name": "A3",
                    "midi": 57,
                    "time": 108.30000000000004,
                    "velocity": 0.30708661417322836,
                    "duration": 0.29999999999999716
                },
                {
                    "name": "B3",
                    "midi": 59,
                    "time": 108.60000000000004,
                    "velocity": 0.33070866141732286,
                    "duration": 0.20000000000000284
                },
                {
                    "name": "C4",
                    "midi": 60,
                    "time": 108.80000000000004,
                    "velocity": 0.3700787401574803,
                    "duration": 0.20000000000000284
                },
                {
                    "name": "D4",
                    "midi": 62,
                    "time": 109.00000000000004,
                    "velocity": 0.4094488188976378,
                    "duration": 0.20000000000000284
                },
                {
                    "name": "A3",
                    "midi": 57,
                    "time": 109.20000000000005,
                    "velocity": 0.44881889763779526,
                    "duration": 1.200000000000017
                },
                {
                    "name": "F2",
                    "midi": 41,
                    "time": 109.20000000000005,
                    "velocity": 0.44881889763779526,
                    "duration": 2.4000000000000483
                },
                {
                    "name": "F3",
                    "midi": 53,
                    "time": 109.35000000000005,
                    "velocity": 0.25196850393700787,
                    "duration": 0.15000000000000568
                },
                {
                    "name": "F3",
                    "midi": 53,
                    "time": 109.95000000000006,
                    "velocity": 0.25196850393700787,
                    "duration": 0.15000000000000568
                },
                {
                    "name": "A3",
                    "midi": 57,
                    "time": 110.40000000000006,
                    "velocity": 0.3700787401574803,
                    "duration": 0.30000000000001137
                },
                {
                    "name": "F3",
                    "midi": 53,
                    "time": 110.55000000000007,
                    "velocity": 0.25196850393700787,
                    "duration": 0.15000000000000568
                },
                {
                    "name": "G3",
                    "midi": 55,
                    "time": 110.70000000000007,
                    "velocity": 0.33858267716535434,
                    "duration": 0.29999999999999716
                },
                {
                    "name": "F3",
                    "midi": 53,
                    "time": 111.00000000000007,
                    "velocity": 0.36220472440944884,
                    "duration": 0.15000000000000568
                },
                {
                    "name": "D#3",
                    "midi": 51,
                    "time": 111.15000000000008,
                    "velocity": 0.3543307086614173,
                    "duration": 0.15000000000000568
                },
                {
                    "name": "D3",
                    "midi": 50,
                    "time": 111.30000000000008,
                    "velocity": 0.3464566929133858,
                    "duration": 0.15000000000000568
                },
                {
                    "name": "C3",
                    "midi": 48,
                    "time": 111.45000000000009,
                    "velocity": 0.33070866141732286,
                    "duration": 0.15000000000000568
                },
                {
                    "name": "A#2",
                    "midi": 46,
                    "time": 111.6000000000001,
                    "velocity": 0.3228346456692913,
                    "duration": 0.5999999999999943
                },
                {
                    "name": "A#1",
                    "midi": 34,
                    "time": 111.6000000000001,
                    "velocity": 0.2677165354330709,
                    "duration": 0.5999999999999943
                },
                {
                    "name": "A2",
                    "midi": 45,
                    "time": 114.00000000000009,
                    "velocity": 0.3228346456692913,
                    "duration": 0.5999999999999943
                },
                {
                    "name": "B2",
                    "midi": 47,
                    "time": 115.80000000000008,
                    "velocity": 0.3228346456692913,
                    "duration": 0.5999999999999943
                },
                {
                    "name": "G#3",
                    "midi": 56,
                    "time": 115.80000000000008,
                    "velocity": 0.3228346456692913,
                    "duration": 0.5999999999999943
                },
                {
                    "name": "C3",
                    "midi": 48,
                    "time": 116.40000000000008,
                    "velocity": 0.3228346456692913,
                    "duration": 1.2000000000000028
                },
                {
                    "name": "C4",
                    "midi": 60,
                    "time": 116.40000000000008,
                    "velocity": 0.3228346456692913,
                    "duration": 1.2000000000000028
                },
                {
                    "name": "A3",
                    "midi": 57,
                    "time": 116.40000000000008,
                    "velocity": 0.3228346456692913,
                    "duration": 1.2000000000000028
                },
                {
                    "name": "E4",
                    "midi": 64,
                    "time": 117.60000000000008,
                    "velocity": 0.3228346456692913,
                    "duration": 1.2000000000000028
                },
                {
                    "name": "A#3",
                    "midi": 58,
                    "time": 117.60000000000008,
                    "velocity": 0.3228346456692913,
                    "duration": 1.2000000000000028
                },
                {
                    "name": "C3",
                    "midi": 48,
                    "time": 117.60000000000008,
                    "velocity": 0.3228346456692913,
                    "duration": 1.2000000000000028
                },
                {
                    "name": "C4",
                    "midi": 60,
                    "time": 118.80000000000008,
                    "velocity": 0.33858267716535434,
                    "duration": 1.799999999999983
                },
                {
                    "name": "F3",
                    "midi": 53,
                    "time": 118.80000000000008,
                    "velocity": 0.33858267716535434,
                    "duration": 0.29999999999999716
                },
                {
                    "name": "E3",
                    "midi": 52,
                    "time": 119.10000000000008,
                    "velocity": 0.33858267716535434,
                    "duration": 0.29999999999999716
                },
                {
                    "name": "D3",
                    "midi": 50,
                    "time": 119.40000000000008,
                    "velocity": 0.33858267716535434,
                    "duration": 0.29999999999999716
                },
                {
                    "name": "C3",
                    "midi": 48,
                    "time": 119.70000000000007,
                    "velocity": 0.33858267716535434,
                    "duration": 0.29999999999999716
                },
                {
                    "name": "F3",
                    "midi": 53,
                    "time": 120.00000000000007,
                    "velocity": 0.33858267716535434,
                    "duration": 0.5999999999999943
                },
                {
                    "name": "A3",
                    "midi": 57,
                    "time": 121.20000000000006,
                    "velocity": 0.3937007874015748,
                    "duration": 2.4000000000000057
                },
                {
                    "name": "F2",
                    "midi": 41,
                    "time": 121.20000000000006,
                    "velocity": 0.3937007874015748,
                    "duration": 2.4000000000000057
                },
                {
                    "name": "D#2",
                    "midi": 39,
                    "time": 123.52500000000006,
                    "velocity": 0.3937007874015748,
                    "duration": 2.4750000000000085
                },
                {
                    "name": "A#3",
                    "midi": 58,
                    "time": 123.60000000000007,
                    "velocity": 0.3937007874015748,
                    "duration": 1.2000000000000028
                },
                {
                    "name": "C3",
                    "midi": 48,
                    "time": 124.80000000000007,
                    "velocity": 0.3937007874015748,
                    "duration": 2.700000000000003
                },
                {
                    "name": "F2",
                    "midi": 41,
                    "time": 126.00000000000007,
                    "velocity": 0.33070866141732286,
                    "duration": 1.5
                },
                {
                    "name": "D#2",
                    "midi": 39,
                    "time": 128.32500000000007,
                    "velocity": 0.33070866141732286,
                    "duration": 1.2749999999999773
                },
                {
                    "name": "A#3",
                    "midi": 58,
                    "time": 128.40000000000006,
                    "velocity": 0.33070866141732286,
                    "duration": 1.1999999999999886
                },
                {
                    "name": "F#2",
                    "midi": 42,
                    "time": 129.60000000000005,
                    "velocity": 0.33070866141732286,
                    "duration": 1.200000000000017
                },
                {
                    "name": "G#2",
                    "midi": 44,
                    "time": 130.50000000000006,
                    "velocity": 0.2677165354330709,
                    "duration": 0.30000000000001137
                },
                {
                    "name": "C#3",
                    "midi": 49,
                    "time": 130.79875000000007,
                    "velocity": 0.2677165354330709,
                    "duration": 0.30000000000001137
                },
                {
                    "name": "F2",
                    "midi": 41,
                    "time": 130.80000000000007,
                    "velocity": 0.2677165354330709,
                    "duration": 0.6000000000000227
                },
                {
                    "name": "D#3",
                    "midi": 51,
                    "time": 131.10250000000008,
                    "velocity": 0.2283464566929134,
                    "duration": 0.30000000000001137
                },
                {
                    "name": "F3",
                    "midi": 53,
                    "time": 131.4050000000001,
                    "velocity": 0.2677165354330709,
                    "duration": 2.9950000000000045
                },
                {
                    "name": "F#3",
                    "midi": 54,
                    "time": 131.70000000000007,
                    "velocity": 0.2677165354330709,
                    "duration": 0.30000000000001137
                },
                {
                    "name": "G#3",
                    "midi": 56,
                    "time": 132.00625000000008,
                    "velocity": 0.28346456692913385,
                    "duration": 0.30000000000001137
                },
                {
                    "name": "A#3",
                    "midi": 58,
                    "time": 132.3075000000001,
                    "velocity": 0.28346456692913385,
                    "duration": 0.29999999999998295
                },
                {
                    "name": "C4",
                    "midi": 60,
                    "time": 132.59875000000008,
                    "velocity": 0.31496062992125984,
                    "duration": 0.29999999999998295
                },
                {
                    "name": "D4",
                    "midi": 62,
                    "time": 133.21250000000006,
                    "velocity": 0.36220472440944884,
                    "duration": 0.2874999999999943
                },
                {
                    "name": "B3",
                    "midi": 59,
                    "time": 133.50000000000006,
                    "velocity": 0.3464566929133858,
                    "duration": 0.30000000000001137
                },
                {
                    "name": "G#3",
                    "midi": 56,
                    "time": 133.80000000000007,
                    "velocity": 0.2992125984251969,
                    "duration": 0.30000000000001137
                },
                {
                    "name": "F3",
                    "midi": 53,
                    "time": 134.10000000000008,
                    "velocity": 0.29133858267716534,
                    "duration": 0.3050000000000068
                },
                {
                    "name": "C#3",
                    "midi": 49,
                    "time": 134.4000000000001,
                    "velocity": 0.28346456692913385,
                    "duration": 3.450000000000017
                },
                {
                    "name": "B2",
                    "midi": 47,
                    "time": 134.70000000000007,
                    "velocity": 0.2755905511811024,
                    "duration": 0.30000000000001137
                },
                {
                    "name": "G#2",
                    "midi": 44,
                    "time": 135.00000000000009,
                    "velocity": 0.2677165354330709,
                    "duration": 0.30000000000001137
                },
                {
                    "name": "F2",
                    "midi": 41,
                    "time": 135.3000000000001,
                    "velocity": 0.25984251968503935,
                    "duration": 0.30000000000001137
                },
                {
                    "name": "F#2",
                    "midi": 42,
                    "time": 135.6000000000001,
                    "velocity": 0.28346456692913385,
                    "duration": 2.25
                },
                {
                    "name": "C#3",
                    "midi": 49,
                    "time": 137.8500000000001,
                    "velocity": 0.29133858267716534,
                    "duration": 0.15000000000000568
                },
                {
                    "name": "F#2",
                    "midi": 42,
                    "time": 137.8500000000001,
                    "velocity": 0.29133858267716534,
                    "duration": 2.5500000000000114
                },
                {
                    "name": "D3",
                    "midi": 50,
                    "time": 138.0000000000001,
                    "velocity": 0.3543307086614173,
                    "duration": 2.0999999999999943
                },
                {
                    "name": "D4",
                    "midi": 62,
                    "time": 138.6000000000001,
                    "velocity": 0.3858267716535433,
                    "duration": 0.5974999999999966
                },
                {
                    "name": "C#3",
                    "midi": 49,
                    "time": 140.40000000000012,
                    "velocity": 0.28346456692913385,
                    "duration": 2.25
                },
                {
                    "name": "F#2",
                    "midi": 42,
                    "time": 140.40000000000012,
                    "velocity": 0.28346456692913385,
                    "duration": 2.4000000000000057
                },
                {
                    "name": "C#3",
                    "midi": 49,
                    "time": 142.65000000000012,
                    "velocity": 0.29133858267716534,
                    "duration": 0.15000000000000568
                },
                {
                    "name": "C2",
                    "midi": 36,
                    "time": 142.80000000000013,
                    "velocity": 0.3543307086614173,
                    "duration": 1.799999999999983
                },
                {
                    "name": "E3",
                    "midi": 52,
                    "time": 142.80000000000013,
                    "velocity": 0.3543307086614173,
                    "duration": 1.799999999999983
                },
                {
                    "name": "C#4",
                    "midi": 61,
                    "time": 143.40000000000012,
                    "velocity": 0.3228346456692913,
                    "duration": 0.5962499999999977
                },
                {
                    "name": "F2",
                    "midi": 41,
                    "time": 144.6000000000001,
                    "velocity": 0.2677165354330709,
                    "duration": 0.5999999999999943
                },
                {
                    "name": "A#1",
                    "midi": 34,
                    "time": 145.2000000000001,
                    "velocity": 0.31496062992125984,
                    "duration": 1.8000000000000114
                },
                {
                    "name": "A#2",
                    "midi": 46,
                    "time": 145.2000000000001,
                    "velocity": 0.31496062992125984,
                    "duration": 1.8000000000000114
                },
                {
                    "name": "D3",
                    "midi": 50,
                    "time": 145.3500000000001,
                    "velocity": 0.1889763779527559,
                    "duration": 0.15000000000000568
                },
                {
                    "name": "D3",
                    "midi": 50,
                    "time": 145.9500000000001,
                    "velocity": 0.23622047244094488,
                    "duration": 0.15000000000000568
                },
                {
                    "name": "D3",
                    "midi": 50,
                    "time": 146.5500000000001,
                    "velocity": 0.2204724409448819,
                    "duration": 0.15000000000000568
                },
                {
                    "name": "C3",
                    "midi": 48,
                    "time": 147.0000000000001,
                    "velocity": 0.3700787401574803,
                    "duration": 0.6000000000000227
                },
                {
                    "name": "G#1",
                    "midi": 32,
                    "time": 147.0000000000001,
                    "velocity": 0.3700787401574803,
                    "duration": 0.6000000000000227
                },
                {
                    "name": "D3",
                    "midi": 50,
                    "time": 147.15000000000012,
                    "velocity": 0.2283464566929134,
                    "duration": 0.15000000000000568
                },
                {
                    "name": "B2",
                    "midi": 47,
                    "time": 147.60000000000014,
                    "velocity": 0.3937007874015748,
                    "duration": 1.8000000000000398
                },
                {
                    "name": "G1",
                    "midi": 31,
                    "time": 147.60000000000014,
                    "velocity": 0.3937007874015748,
                    "duration": 1.8000000000000398
                },
                {
                    "name": "D3",
                    "midi": 50,
                    "time": 147.75000000000014,
                    "velocity": 0.2755905511811024,
                    "duration": 0.15000000000000568
                },
                {
                    "name": "D3",
                    "midi": 50,
                    "time": 148.35000000000014,
                    "velocity": 0.25196850393700787,
                    "duration": 0.15000000000000568
                },
                {
                    "name": "C4",
                    "midi": 60,
                    "time": 148.80000000000015,
                    "velocity": 0.33858267716535434,
                    "duration": 0.30000000000001137
                },
                {
                    "name": "D3",
                    "midi": 50,
                    "time": 148.95000000000016,
                    "velocity": 0.23622047244094488,
                    "duration": 0.15000000000000568
                },
                {
                    "name": "B3",
                    "midi": 59,
                    "time": 149.10000000000016,
                    "velocity": 0.3228346456692913,
                    "duration": 0.30000000000001137
                },
                {
                    "name": "A3",
                    "midi": 57,
                    "time": 149.40000000000018,
                    "velocity": 0.33858267716535434,
                    "duration": 0.30000000000001137
                },
                {
                    "name": "D3",
                    "midi": 50,
                    "time": 149.55000000000018,
                    "velocity": 0.23622047244094488,
                    "duration": 0.15000000000000568
                },
                {
                    "name": "G3",
                    "midi": 55,
                    "time": 149.7000000000002,
                    "velocity": 0.31496062992125984,
                    "duration": 0.29999999999998295
                },
                {
                    "name": "C3",
                    "midi": 48,
                    "time": 149.99625000000017,
                    "velocity": 0.3543307086614173,
                    "duration": 0.30000000000001137
                },
                {
                    "name": "C2",
                    "midi": 36,
                    "time": 150.15000000000018,
                    "velocity": 0.2440944881889764,
                    "duration": 0.15000000000000568
                },
                {
                    "name": "D3",
                    "midi": 50,
                    "time": 150.2912500000002,
                    "velocity": 0.33070866141732286,
                    "duration": 0.29999999999998295
                },
                {
                    "name": "D#3",
                    "midi": 51,
                    "time": 150.6075000000002,
                    "velocity": 0.3700787401574803,
                    "duration": 0.30000000000001137
                },
                {
                    "name": "C3",
                    "midi": 48,
                    "time": 150.7500000000002,
                    "velocity": 0.25196850393700787,
                    "duration": 0.15000000000000568
                },
                {
                    "name": "F3",
                    "midi": 53,
                    "time": 150.9012500000002,
                    "velocity": 0.33070866141732286,
                    "duration": 0.29999999999998295
                },
                {
                    "name": "G3",
                    "midi": 55,
                    "time": 151.20500000000018,
                    "velocity": 0.3779527559055118,
                    "duration": 0.30000000000001137
                },
                {
                    "name": "C3",
                    "midi": 48,
                    "time": 151.3500000000002,
                    "velocity": 0.25196850393700787,
                    "duration": 0.15000000000000568
                },
                {
                    "name": "A3",
                    "midi": 57,
                    "time": 151.5075000000002,
                    "velocity": 0.30708661417322836,
                    "duration": 0.29999999999998295
                },
                {
                    "name": "B3",
                    "midi": 59,
                    "time": 151.80000000000018,
                    "velocity": 0.33070866141732286,
                    "duration": 0.19999999999998863
                },
                {
                    "name": "C4",
                    "midi": 60,
                    "time": 152.00000000000017,
                    "velocity": 0.3700787401574803,
                    "duration": 0.19999999999998863
                },
                {
                    "name": "D4",
                    "midi": 62,
                    "time": 152.20000000000016,
                    "velocity": 0.4094488188976378,
                    "duration": 0.19999999999998863
                },
                {
                    "name": "A3",
                    "midi": 57,
                    "time": 152.40000000000015,
                    "velocity": 0.44881889763779526,
                    "duration": 1.200000000000017
                },
                {
                    "name": "F2",
                    "midi": 41,
                    "time": 152.40000000000015,
                    "velocity": 0.44881889763779526,
                    "duration": 2.4000000000000625
                },
                {
                    "name": "F3",
                    "midi": 53,
                    "time": 152.55000000000015,
                    "velocity": 0.25196850393700787,
                    "duration": 0.15000000000000568
                },
                {
                    "name": "F3",
                    "midi": 53,
                    "time": 153.15000000000015,
                    "velocity": 0.25196850393700787,
                    "duration": 0.15000000000000568
                },
                {
                    "name": "A3",
                    "midi": 57,
                    "time": 153.60000000000016,
                    "velocity": 0.3700787401574803,
                    "duration": 0.30000000000001137
                },
                {
                    "name": "F3",
                    "midi": 53,
                    "time": 153.75000000000017,
                    "velocity": 0.25196850393700787,
                    "duration": 0.15000000000000568
                },
                {
                    "name": "G3",
                    "midi": 55,
                    "time": 153.90000000000018,
                    "velocity": 0.33858267716535434,
                    "duration": 0.30000000000001137
                },
                {
                    "name": "F3",
                    "midi": 53,
                    "time": 154.2000000000002,
                    "velocity": 0.36220472440944884,
                    "duration": 0.15000000000000568
                },
                {
                    "name": "D#3",
                    "midi": 51,
                    "time": 154.3500000000002,
                    "velocity": 0.3543307086614173,
                    "duration": 0.15000000000000568
                },
                {
                    "name": "D3",
                    "midi": 50,
                    "time": 154.5000000000002,
                    "velocity": 0.3464566929133858,
                    "duration": 0.15000000000000568
                },
                {
                    "name": "C3",
                    "midi": 48,
                    "time": 154.6500000000002,
                    "velocity": 0.33070866141732286,
                    "duration": 0.15000000000000568
                },
                {
                    "name": "A#1",
                    "midi": 34,
                    "time": 154.8000000000002,
                    "velocity": 0.2677165354330709,
                    "duration": 0.5999999999999943
                },
                {
                    "name": "A#2",
                    "midi": 46,
                    "time": 154.8000000000002,
                    "velocity": 0.3228346456692913,
                    "duration": 0.5999999999999943
                },
                {
                    "name": "F#4",
                    "midi": 66,
                    "time": 155.4000000000002,
                    "velocity": 0.31496062992125984,
                    "duration": 0.75
                },
                {
                    "name": "G4",
                    "midi": 67,
                    "time": 156.1500000000002,
                    "velocity": 0.23622047244094488,
                    "duration": 0.44999999999998863
                },
                {
                    "name": "A4",
                    "midi": 69,
                    "time": 156.6000000000002,
                    "velocity": 0.25196850393700787,
                    "duration": 0.30000000000001137
                },
                {
                    "name": "A#4",
                    "midi": 70,
                    "time": 156.9000000000002,
                    "velocity": 0.23622047244094488,
                    "duration": 0.30000000000001137
                },
                {
                    "name": "A#2",
                    "midi": 46,
                    "time": 157.20000000000022,
                    "velocity": 0.3228346456692913,
                    "duration": 0.5999999999999943
                },
                {
                    "name": "D#4",
                    "midi": 63,
                    "time": 157.8000000000002,
                    "velocity": 0.31496062992125984,
                    "duration": 0.75
                },
                {
                    "name": "F4",
                    "midi": 65,
                    "time": 158.5500000000002,
                    "velocity": 0.23622047244094488,
                    "duration": 0.44999999999998863
                },
                {
                    "name": "G4",
                    "midi": 67,
                    "time": 159.0000000000002,
                    "velocity": 0.25196850393700787,
                    "duration": 0.30000000000001137
                },
                {
                    "name": "G#4",
                    "midi": 68,
                    "time": 159.3000000000002,
                    "velocity": 0.23622047244094488,
                    "duration": 0.30000000000001137
                },
                {
                    "name": "A#2",
                    "midi": 46,
                    "time": 159.60000000000022,
                    "velocity": 0.3228346456692913,
                    "duration": 1.200000000000017
                },
                {
                    "name": "A#1",
                    "midi": 34,
                    "time": 160.50000000000023,
                    "velocity": 0.3228346456692913,
                    "duration": 0.30000000000001137
                },
                {
                    "name": "D#2",
                    "midi": 39,
                    "time": 160.80000000000024,
                    "velocity": 0.3228346456692913,
                    "duration": 0.5999999999999943
                },
                {
                    "name": "A1",
                    "midi": 33,
                    "time": 161.40000000000023,
                    "velocity": 0.2283464566929134,
                    "duration": 0.5999999999999943
                },
                {
                    "name": "A2",
                    "midi": 45,
                    "time": 161.40000000000023,
                    "velocity": 0.2755905511811024,
                    "duration": 1.5
                },
                {
                    "name": "D2",
                    "midi": 38,
                    "time": 162.00000000000023,
                    "velocity": 0.28346456692913385,
                    "duration": 1.1999999999999886
                },
                {
                    "name": "A#2",
                    "midi": 46,
                    "time": 162.90000000000023,
                    "velocity": 0.2440944881889764,
                    "duration": 0.29999999999998295
                },
                {
                    "name": "D2",
                    "midi": 38,
                    "time": 163.12500000000023,
                    "velocity": 0.2755905511811024,
                    "duration": 0.674999999999983
                },
                {
                    "name": "A2",
                    "midi": 45,
                    "time": 163.20000000000022,
                    "velocity": 0.3228346456692913,
                    "duration": 0.5999999999999943
                },
                {
                    "name": "D2",
                    "midi": 38,
                    "time": 164.10000000000022,
                    "velocity": 0.33070866141732286,
                    "duration": 0.07499999999998863
                },
                {
                    "name": "G2",
                    "midi": 43,
                    "time": 164.4000000000002,
                    "velocity": 0.3937007874015748,
                    "duration": 1.8000000000000114
                },
                {
                    "name": "G1",
                    "midi": 31,
                    "time": 164.4000000000002,
                    "velocity": 0.33070866141732286,
                    "duration": 1.8000000000000114
                },
                {
                    "name": "A#1",
                    "midi": 34,
                    "time": 166.50000000000023,
                    "velocity": 0.29133858267716534,
                    "duration": 0.07499999999998863
                },
                {
                    "name": "A#2",
                    "midi": 46,
                    "time": 166.50000000000023,
                    "velocity": 0.3464566929133858,
                    "duration": 0.07499999999998863
                },
                {
                    "name": "C2",
                    "midi": 36,
                    "time": 166.8000000000002,
                    "velocity": 0.33070866141732286,
                    "duration": 0.15000000000000568
                },
                {
                    "name": "C3",
                    "midi": 48,
                    "time": 166.8000000000002,
                    "velocity": 0.3937007874015748,
                    "duration": 0.15000000000000568
                },
                {
                    "name": "D2",
                    "midi": 38,
                    "time": 167.4000000000002,
                    "velocity": 0.31496062992125984,
                    "duration": 0.15000000000000568
                },
                {
                    "name": "D3",
                    "midi": 50,
                    "time": 167.4000000000002,
                    "velocity": 0.3779527559055118,
                    "duration": 0.15000000000000568
                },
                {
                    "name": "G1",
                    "midi": 31,
                    "time": 168.0000000000002,
                    "velocity": 0.33070866141732286,
                    "duration": 0.30000000000001137
                },
                {
                    "name": "G2",
                    "midi": 43,
                    "time": 168.0000000000002,
                    "velocity": 0.3937007874015748,
                    "duration": 0.30000000000001137
                },
                {
                    "name": "D2",
                    "midi": 38,
                    "time": 168.9000000000002,
                    "velocity": 0.3858267716535433,
                    "duration": 0.07499999999998863
                },
                {
                    "name": "G1",
                    "midi": 31,
                    "time": 169.2000000000002,
                    "velocity": 0.33070866141732286,
                    "duration": 1.8000000000000114
                },
                {
                    "name": "G2",
                    "midi": 43,
                    "time": 169.2000000000002,
                    "velocity": 0.3937007874015748,
                    "duration": 1.8000000000000114
                },
                {
                    "name": "A#1",
                    "midi": 34,
                    "time": 171.3000000000002,
                    "velocity": 0.29133858267716534,
                    "duration": 0.07499999999998863
                },
                {
                    "name": "A#2",
                    "midi": 46,
                    "time": 171.3000000000002,
                    "velocity": 0.3464566929133858,
                    "duration": 0.07499999999998863
                },
                {
                    "name": "C2",
                    "midi": 36,
                    "time": 171.6000000000002,
                    "velocity": 0.33070866141732286,
                    "duration": 0.15000000000000568
                },
                {
                    "name": "C3",
                    "midi": 48,
                    "time": 171.6000000000002,
                    "velocity": 0.3937007874015748,
                    "duration": 0.15000000000000568
                },
                {
                    "name": "D2",
                    "midi": 38,
                    "time": 172.2000000000002,
                    "velocity": 0.31496062992125984,
                    "duration": 0.15000000000000568
                },
                {
                    "name": "D3",
                    "midi": 50,
                    "time": 172.2000000000002,
                    "velocity": 0.3779527559055118,
                    "duration": 0.15000000000000568
                },
                {
                    "name": "D#3",
                    "midi": 51,
                    "time": 172.80000000000018,
                    "velocity": 0.3937007874015748,
                    "duration": 0.30000000000001137
                },
                {
                    "name": "D#2",
                    "midi": 39,
                    "time": 172.80000000000018,
                    "velocity": 0.33070866141732286,
                    "duration": 0.30000000000001137
                },
                {
                    "name": "D2",
                    "midi": 38,
                    "time": 173.7000000000002,
                    "velocity": 0.2755905511811024,
                    "duration": 0.15000000000000568
                },
                {
                    "name": "D3",
                    "midi": 50,
                    "time": 173.7000000000002,
                    "velocity": 0.33070866141732286,
                    "duration": 0.15000000000000568
                },
                {
                    "name": "D#3",
                    "midi": 51,
                    "time": 174.0000000000002,
                    "velocity": 0.4330708661417323,
                    "duration": 0.15000000000000568
                },
                {
                    "name": "D#2",
                    "midi": 39,
                    "time": 174.0000000000002,
                    "velocity": 0.36220472440944884,
                    "duration": 0.15000000000000568
                },
                {
                    "name": "C3",
                    "midi": 48,
                    "time": 174.6000000000002,
                    "velocity": 0.44881889763779526,
                    "duration": 0.15000000000000568
                },
                {
                    "name": "C2",
                    "midi": 36,
                    "time": 174.6000000000002,
                    "velocity": 0.3779527559055118,
                    "duration": 0.15000000000000568
                },
                {
                    "name": "D2",
                    "midi": 38,
                    "time": 175.2000000000002,
                    "velocity": 0.3937007874015748,
                    "duration": 0.30000000000001137
                },
                {
                    "name": "D3",
                    "midi": 50,
                    "time": 175.2000000000002,
                    "velocity": 0.4645669291338583,
                    "duration": 0.30000000000001137
                },
                {
                    "name": "D3",
                    "midi": 50,
                    "time": 176.1000000000002,
                    "velocity": 0.5511811023622047,
                    "duration": 0.07499999999998863
                },
                {
                    "name": "A#2",
                    "midi": 46,
                    "time": 176.40000000000018,
                    "velocity": 0.5039370078740157,
                    "duration": 0.5999999999999943
                },
                {
                    "name": "G3",
                    "midi": 55,
                    "time": 176.40000000000018,
                    "velocity": 0.5984251968503937,
                    "duration": 0.5999999999999943
                },
                {
                    "name": "G2",
                    "midi": 43,
                    "time": 176.40000000000018,
                    "velocity": 0.5039370078740157,
                    "duration": 1.1999999999999886
                },
                {
                    "name": "A3",
                    "midi": 57,
                    "time": 177.00000000000017,
                    "velocity": 0.6299212598425197,
                    "duration": 0.5999999999999943
                },
                {
                    "name": "D3",
                    "midi": 50,
                    "time": 177.00000000000017,
                    "velocity": 0.5354330708661418,
                    "duration": 0.5999999999999943
                },
                {
                    "name": "G3",
                    "midi": 55,
                    "time": 177.60000000000016,
                    "velocity": 0.5590551181102362,
                    "duration": 0.5999999999999943
                },
                {
                    "name": "A#3",
                    "midi": 58,
                    "time": 177.60000000000016,
                    "velocity": 0.6614173228346457,
                    "duration": 0.5999999999999943
                },
                {
                    "name": "G3",
                    "midi": 55,
                    "time": 178.50000000000017,
                    "velocity": 0.5669291338582677,
                    "duration": 0.07499999999998863
                },
                {
                    "name": "A#2",
                    "midi": 46,
                    "time": 178.50000000000017,
                    "velocity": 0.48031496062992124,
                    "duration": 0.07499999999998863
                },
                {
                    "name": "C3",
                    "midi": 48,
                    "time": 178.80000000000015,
                    "velocity": 0.5275590551181102,
                    "duration": 0.5999999999999943
                },
                {
                    "name": "A3",
                    "midi": 57,
                    "time": 178.80000000000015,
                    "velocity": 0.6220472440944882,
                    "duration": 0.5999999999999943
                },
                {
                    "name": "G3",
                    "midi": 55,
                    "time": 178.80000000000015,
                    "velocity": 0.5275590551181102,
                    "duration": 0.5999999999999943
                },
                {
                    "name": "D4",
                    "midi": 62,
                    "time": 179.40000000000015,
                    "velocity": 0.6062992125984252,
                    "duration": 0.5999999999999943
                },
                {
                    "name": "F#3",
                    "midi": 54,
                    "time": 179.40000000000015,
                    "velocity": 0.5196850393700787,
                    "duration": 0.5999999999999943
                },
                {
                    "name": "D3",
                    "midi": 50,
                    "time": 179.40000000000015,
                    "velocity": 0.48031496062992124,
                    "duration": 0.5999999999999943
                },
                {
                    "name": "G3",
                    "midi": 55,
                    "time": 180.00000000000014,
                    "velocity": 0.6377952755905512,
                    "duration": 0.5999999999999943
                },
                {
                    "name": "A#2",
                    "midi": 46,
                    "time": 180.00000000000014,
                    "velocity": 0.5354330708661418,
                    "duration": 0.5999999999999943
                },
                {
                    "name": "D3",
                    "midi": 50,
                    "time": 180.00000000000014,
                    "velocity": 0.5354330708661418,
                    "duration": 0.5999999999999943
                },
                {
                    "name": "D3",
                    "midi": 50,
                    "time": 180.90000000000015,
                    "velocity": 0.5590551181102362,
                    "duration": 0.07499999999998863
                },
                {
                    "name": "G2",
                    "midi": 43,
                    "time": 181.20000000000013,
                    "velocity": 0.5354330708661418,
                    "duration": 1.1999999999999886
                },
                {
                    "name": "A#2",
                    "midi": 46,
                    "time": 181.20000000000013,
                    "velocity": 0.5354330708661418,
                    "duration": 0.5999999999999943
                },
                {
                    "name": "G3",
                    "midi": 55,
                    "time": 181.20000000000013,
                    "velocity": 0.6299212598425197,
                    "duration": 0.5999999999999943
                },
                {
                    "name": "A3",
                    "midi": 57,
                    "time": 181.80000000000013,
                    "velocity": 0.6377952755905512,
                    "duration": 0.5999999999999943
                },
                {
                    "name": "D3",
                    "midi": 50,
                    "time": 181.80000000000013,
                    "velocity": 0.5354330708661418,
                    "duration": 0.5999999999999943
                },
                {
                    "name": "G3",
                    "midi": 55,
                    "time": 182.40000000000012,
                    "velocity": 0.5669291338582677,
                    "duration": 0.5999999999999943
                },
                {
                    "name": "A#3",
                    "midi": 58,
                    "time": 182.40000000000012,
                    "velocity": 0.6692913385826772,
                    "duration": 0.5999999999999943
                },
                {
                    "name": "D#3",
                    "midi": 51,
                    "time": 183.30000000000013,
                    "velocity": 0.41732283464566927,
                    "duration": 0.07499999999998863
                },
                {
                    "name": "D#2",
                    "midi": 39,
                    "time": 183.30000000000013,
                    "velocity": 0.3543307086614173,
                    "duration": 0.07499999999998863
                },
                {
                    "name": "F3",
                    "midi": 53,
                    "time": 183.6000000000001,
                    "velocity": 0.5826771653543307,
                    "duration": 0.15000000000000568
                },
                {
                    "name": "F2",
                    "midi": 41,
                    "time": 183.6000000000001,
                    "velocity": 0.4881889763779528,
                    "duration": 0.15000000000000568
                },
                {
                    "name": "A#1",
                    "midi": 34,
                    "time": 184.2000000000001,
                    "velocity": 0.4330708661417323,
                    "duration": 0.15000000000000568
                },
                {
                    "name": "A#2",
                    "midi": 46,
                    "time": 184.2000000000001,
                    "velocity": 0.5118110236220472,
                    "duration": 0.15000000000000568
                },
                {
                    "name": "D#3",
                    "midi": 51,
                    "time": 184.8000000000001,
                    "velocity": 0.5905511811023622,
                    "duration": 0.30000000000001137
                },
                {
                    "name": "D#2",
                    "midi": 39,
                    "time": 184.8000000000001,
                    "velocity": 0.49606299212598426,
                    "duration": 0.30000000000001137
                },
                {
                    "name": "A1",
                    "midi": 33,
                    "time": 185.7000000000001,
                    "velocity": 0.5354330708661418,
                    "duration": 0.30000000000001137
                },
                {
                    "name": "A2",
                    "midi": 45,
                    "time": 185.7000000000001,
                    "velocity": 0.6377952755905512,
                    "duration": 0.30000000000001137
                },
                {
                    "name": "D3",
                    "midi": 50,
                    "time": 186.0000000000001,
                    "velocity": 0.5826771653543307,
                    "duration": 0.5999999999999943
                },
                {
                    "name": "D2",
                    "midi": 38,
                    "time": 186.0000000000001,
                    "velocity": 0.4881889763779528,
                    "duration": 0.5999999999999943
                },
                {
                    "name": "G#2",
                    "midi": 44,
                    "time": 186.90000000000012,
                    "velocity": 0.6062992125984252,
                    "duration": 0.30000000000001137
                },
                {
                    "name": "G#1",
                    "midi": 32,
                    "time": 186.90000000000012,
                    "velocity": 0.5118110236220472,
                    "duration": 0.30000000000001137
                },
                {
                    "name": "D3",
                    "midi": 50,
                    "time": 187.20000000000013,
                    "velocity": 0.5354330708661418,
                    "duration": 0.5999999999999943
                },
                {
                    "name": "D2",
                    "midi": 38,
                    "time": 187.20000000000013,
                    "velocity": 0.44881889763779526,
                    "duration": 0.5999999999999943
                },
                {
                    "name": "A1",
                    "midi": 33,
                    "time": 188.10000000000014,
                    "velocity": 0.5118110236220472,
                    "duration": 0.30000000000001137
                },
                {
                    "name": "A2",
                    "midi": 45,
                    "time": 188.10000000000014,
                    "velocity": 0.6062992125984252,
                    "duration": 0.30000000000001137
                },
                {
                    "name": "D2",
                    "midi": 38,
                    "time": 188.40000000000015,
                    "velocity": 0.44881889763779526,
                    "duration": 1.799999999999983
                },
                {
                    "name": "D3",
                    "midi": 50,
                    "time": 188.40000000000015,
                    "velocity": 0.5354330708661418,
                    "duration": 1.1999999999999886
                },
                {
                    "name": "D2",
                    "midi": 38,
                    "time": 190.50000000000014,
                    "velocity": 0.4094488188976378,
                    "duration": 0.07499999999998863
                },
                {
                    "name": "G1",
                    "midi": 31,
                    "time": 190.80000000000013,
                    "velocity": 0.33070866141732286,
                    "duration": 1.8000000000000114
                },
                {
                    "name": "G2",
                    "midi": 43,
                    "time": 190.80000000000013,
                    "velocity": 0.3937007874015748,
                    "duration": 1.8000000000000114
                },
                {
                    "name": "A#2",
                    "midi": 46,
                    "time": 192.90000000000015,
                    "velocity": 0.3700787401574803,
                    "duration": 0.07499999999998863
                },
                {
                    "name": "A#1",
                    "midi": 34,
                    "time": 192.90000000000015,
                    "velocity": 0.30708661417322836,
                    "duration": 0.07499999999998863
                },
                {
                    "name": "C3",
                    "midi": 48,
                    "time": 193.20000000000013,
                    "velocity": 0.4330708661417323,
                    "duration": 0.5999999999999943
                },
                {
                    "name": "C2",
                    "midi": 36,
                    "time": 193.20000000000013,
                    "velocity": 0.36220472440944884,
                    "duration": 0.5999999999999943
                },
                {
                    "name": "D3",
                    "midi": 50,
                    "time": 193.80000000000013,
                    "velocity": 0.4330708661417323,
                    "duration": 0.5999999999999943
                },
                {
                    "name": "D2",
                    "midi": 38,
                    "time": 193.80000000000013,
                    "velocity": 0.36220472440944884,
                    "duration": 0.5999999999999943
                },
                {
                    "name": "D#2",
                    "midi": 39,
                    "time": 194.40000000000012,
                    "velocity": 0.3937007874015748,
                    "duration": 0.5999999999999943
                },
                {
                    "name": "D#3",
                    "midi": 51,
                    "time": 194.40000000000012,
                    "velocity": 0.47244094488188976,
                    "duration": 0.5999999999999943
                },
                {
                    "name": "D2",
                    "midi": 38,
                    "time": 195.30000000000013,
                    "velocity": 0.3937007874015748,
                    "duration": 0.15000000000000568
                },
                {
                    "name": "D3",
                    "midi": 50,
                    "time": 195.30000000000013,
                    "velocity": 0.47244094488188976,
                    "duration": 0.15000000000000568
                },
                {
                    "name": "C3",
                    "midi": 48,
                    "time": 195.60000000000014,
                    "velocity": 0.5118110236220472,
                    "duration": 0.5999999999999943
                },
                {
                    "name": "C2",
                    "midi": 36,
                    "time": 195.60000000000014,
                    "velocity": 0.4251968503937008,
                    "duration": 0.5999999999999943
                },
                {
                    "name": "D3",
                    "midi": 50,
                    "time": 196.20000000000013,
                    "velocity": 0.5118110236220472,
                    "duration": 0.5999999999999943
                },
                {
                    "name": "D2",
                    "midi": 38,
                    "time": 196.20000000000013,
                    "velocity": 0.4330708661417323,
                    "duration": 0.5999999999999943
                },
                {
                    "name": "C#3",
                    "midi": 49,
                    "time": 196.80000000000013,
                    "velocity": 0.5748031496062992,
                    "duration": 0.9000000000000057
                },
                {
                    "name": "C#2",
                    "midi": 37,
                    "time": 196.80000000000013,
                    "velocity": 0.47244094488188976,
                    "duration": 0.9000000000000057
                },
                {
                    "name": "C#2",
                    "midi": 37,
                    "time": 197.70000000000013,
                    "velocity": 0.47244094488188976,
                    "duration": 0.07499999999998863
                },
                {
                    "name": "C#3",
                    "midi": 49,
                    "time": 197.70000000000013,
                    "velocity": 0.5669291338582677,
                    "duration": 0.07499999999998863
                },
                {
                    "name": "D2",
                    "midi": 38,
                    "time": 198.0000000000001,
                    "velocity": 0.5669291338582677,
                    "duration": 0.5999999999999943
                },
                {
                    "name": "D3",
                    "midi": 50,
                    "time": 198.0000000000001,
                    "velocity": 0.6692913385826772,
                    "duration": 0.5999999999999943
                },
                {
                    "name": "D2",
                    "midi": 38,
                    "time": 198.6000000000001,
                    "velocity": 0.5039370078740157,
                    "duration": 0.5999999999999943
                },
                {
                    "name": "D3",
                    "midi": 50,
                    "time": 198.6000000000001,
                    "velocity": 0.6062992125984252,
                    "duration": 0.5999999999999943
                },
                {
                    "name": "C#2",
                    "midi": 37,
                    "time": 199.2000000000001,
                    "velocity": 0.4566929133858268,
                    "duration": 0.9000000000000057
                },
                {
                    "name": "C#3",
                    "midi": 49,
                    "time": 199.2000000000001,
                    "velocity": 0.5511811023622047,
                    "duration": 0.9000000000000057
                },
                {
                    "name": "C#2",
                    "midi": 37,
                    "time": 200.1000000000001,
                    "velocity": 0.4645669291338583,
                    "duration": 0.07499999999998863
                },
                {
                    "name": "C#3",
                    "midi": 49,
                    "time": 200.1000000000001,
                    "velocity": 0.5590551181102362,
                    "duration": 0.07499999999998863
                },
                {
                    "name": "D2",
                    "midi": 38,
                    "time": 200.4000000000001,
                    "velocity": 0.6220472440944882,
                    "duration": 0.5999999999999943
                },
                {
                    "name": "D3",
                    "midi": 50,
                    "time": 200.4000000000001,
                    "velocity": 0.7322834645669292,
                    "duration": 0.5999999999999943
                },
                {
                    "name": "D3",
                    "midi": 50,
                    "time": 201.00000000000009,
                    "velocity": 0.6614173228346457,
                    "duration": 0.5999999999999943
                },
                {
                    "name": "D2",
                    "midi": 38,
                    "time": 201.00000000000009,
                    "velocity": 0.5511811023622047,
                    "duration": 0.5999999999999943
                },
                {
                    "name": "G2",
                    "midi": 43,
                    "time": 201.60000000000008,
                    "velocity": 0.6614173228346457,
                    "duration": 0.6000000000000227
                },
                {
                    "name": "G1",
                    "midi": 31,
                    "time": 201.60000000000008,
                    "velocity": 0.5511811023622047,
                    "duration": 0.6000000000000227
                },
                {
                    "name": "G#3",
                    "midi": 56,
                    "time": 201.9000000000001,
                    "velocity": 0.5669291338582677,
                    "duration": 0.15000000000000568
                },
                {
                    "name": "A4",
                    "midi": 69,
                    "time": 202.2000000000001,
                    "velocity": 0.5511811023622047,
                    "duration": 0.09999999999999432
                },
                {
                    "name": "G#3",
                    "midi": 56,
                    "time": 202.3000000000001,
                    "velocity": 0.4015748031496063,
                    "duration": 0.09999999999999432
                },
                {
                    "name": "A#3",
                    "midi": 58,
                    "time": 202.4000000000001,
                    "velocity": 0.4409448818897638,
                    "duration": 0.09999999999999432
                },
                {
                    "name": "B3",
                    "midi": 59,
                    "time": 202.50000000000009,
                    "velocity": 0.5196850393700787,
                    "duration": 0.15000000000000568
                },
                {
                    "name": "F4",
                    "midi": 65,
                    "time": 202.8000000000001,
                    "velocity": 0.5511811023622047,
                    "duration": 0.09999999999999432
                },
                {
                    "name": "F3",
                    "midi": 53,
                    "time": 202.9000000000001,
                    "velocity": 0.4015748031496063,
                    "duration": 0.09999999999999432
                },
                {
                    "name": "G3",
                    "midi": 55,
                    "time": 203.00000000000009,
                    "velocity": 0.4409448818897638,
                    "duration": 0.09999999999999432
                },
                {
                    "name": "G#3",
                    "midi": 56,
                    "time": 203.10000000000008,
                    "velocity": 0.5196850393700787,
                    "duration": 0.15000000000000568
                },
                {
                    "name": "D4",
                    "midi": 62,
                    "time": 203.4000000000001,
                    "velocity": 0.5511811023622047,
                    "duration": 0.09999999999999432
                },
                {
                    "name": "D3",
                    "midi": 50,
                    "time": 203.50000000000009,
                    "velocity": 0.3937007874015748,
                    "duration": 0.09999999999999432
                },
                {
                    "name": "D#3",
                    "midi": 51,
                    "time": 203.60000000000008,
                    "velocity": 0.4409448818897638,
                    "duration": 0.09999999999999432
                },
                {
                    "name": "F3",
                    "midi": 53,
                    "time": 203.70000000000007,
                    "velocity": 0.5196850393700787,
                    "duration": 0.15000000000000568
                },
                {
                    "name": "D#4",
                    "midi": 63,
                    "time": 204.00000000000009,
                    "velocity": 0.5196850393700787,
                    "duration": 0.15000000000000568
                },
                {
                    "name": "D#3",
                    "midi": 51,
                    "time": 204.00000000000009,
                    "velocity": 0.5196850393700787,
                    "duration": 0.15000000000000568
                },
                {
                    "name": "G1",
                    "midi": 31,
                    "time": 204.60000000000008,
                    "velocity": 0.5905511811023622,
                    "duration": 0.9000000000000057
                },
                {
                    "name": "G2",
                    "midi": 43,
                    "time": 204.60000000000008,
                    "velocity": 0.5905511811023622,
                    "duration": 0.9000000000000057
                },
                {
                    "name": "C2",
                    "midi": 36,
                    "time": 205.50000000000009,
                    "velocity": 0.5275590551181102,
                    "duration": 0.30000000000001137
                },
                {
                    "name": "C3",
                    "midi": 48,
                    "time": 205.50000000000009,
                    "velocity": 0.5275590551181102,
                    "duration": 0.30000000000001137
                },
                {
                    "name": "D#3",
                    "midi": 51,
                    "time": 205.8000000000001,
                    "velocity": 0.5748031496062992,
                    "duration": 0.30000000000001137
                },
                {
                    "name": "D#2",
                    "midi": 39,
                    "time": 205.8000000000001,
                    "velocity": 0.5748031496062992,
                    "duration": 0.30000000000001137
                },
                {
                    "name": "G2",
                    "midi": 43,
                    "time": 206.1000000000001,
                    "velocity": 0.5511811023622047,
                    "duration": 0.15000000000000568
                },
                {
                    "name": "G3",
                    "midi": 55,
                    "time": 206.1000000000001,
                    "velocity": 0.5511811023622047,
                    "duration": 0.15000000000000568
                },
                {
                    "name": "A2",
                    "midi": 45,
                    "time": 206.40000000000012,
                    "velocity": 0.6299212598425197,
                    "duration": 0.6000000000000227
                },
                {
                    "name": "G2",
                    "midi": 43,
                    "time": 206.40000000000012,
                    "velocity": 0.6299212598425197,
                    "duration": 0.6000000000000227
                },
                {
                    "name": "A3",
                    "midi": 57,
                    "time": 206.40000000000012,
                    "velocity": 0.7559055118110236,
                    "duration": 0.6000000000000227
                },
                {
                    "name": "F#4",
                    "midi": 66,
                    "time": 206.70000000000013,
                    "velocity": 0.6456692913385826,
                    "duration": 0.15000000000000568
                },
                {
                    "name": "F#5",
                    "midi": 78,
                    "time": 207.00000000000014,
                    "velocity": 0.6141732283464567,
                    "duration": 0.09999999999999432
                },
                {
                    "name": "F#4",
                    "midi": 66,
                    "time": 207.10000000000014,
                    "velocity": 0.4409448818897638,
                    "duration": 0.09999999999999432
                },
                {
                    "name": "G4",
                    "midi": 67,
                    "time": 207.20000000000013,
                    "velocity": 0.48031496062992124,
                    "duration": 0.09999999999999432
                },
                {
                    "name": "A4",
                    "midi": 69,
                    "time": 207.30000000000013,
                    "velocity": 0.5669291338582677,
                    "duration": 0.15000000000000568
                },
                {
                    "name": "D#5",
                    "midi": 75,
                    "time": 207.60000000000014,
                    "velocity": 0.5905511811023622,
                    "duration": 0.09999999999999432
                },
                {
                    "name": "D#4",
                    "midi": 63,
                    "time": 207.70000000000013,
                    "velocity": 0.4251968503937008,
                    "duration": 0.09999999999999432
                },
                {
                    "name": "F4",
                    "midi": 65,
                    "time": 207.80000000000013,
                    "velocity": 0.4645669291338583,
                    "duration": 0.09999999999999432
                },
                {
                    "name": "F#4",
                    "midi": 66,
                    "time": 207.90000000000012,
                    "velocity": 0.5433070866141733,
                    "duration": 0.15000000000000568
                },
                {
                    "name": "A4",
                    "midi": 69,
                    "time": 208.20000000000013,
                    "velocity": 0.5669291338582677,
                    "duration": 0.09999999999999432
                },
                {
                    "name": "C4",
                    "midi": 60,
                    "time": 208.30000000000013,
                    "velocity": 0.41732283464566927,
                    "duration": 0.09999999999999432
                },
                {
                    "name": "C#4",
                    "midi": 61,
                    "time": 208.40000000000012,
                    "velocity": 0.44881889763779526,
                    "duration": 0.09999999999999432
                },
                {
                    "name": "D4",
                    "midi": 62,
                    "time": 208.5000000000001,
                    "velocity": 0.5275590551181102,
                    "duration": 0.15000000000000568
                },
                {
                    "name": "G3",
                    "midi": 55,
                    "time": 208.80000000000013,
                    "velocity": 0.7244094488188977,
                    "duration": 0.30000000000001137
                },
                {
                    "name": "G2",
                    "midi": 43,
                    "time": 208.80000000000013,
                    "velocity": 0.6062992125984252,
                    "duration": 0.30000000000001137
                },
                {
                    "name": "D#4",
                    "midi": 63,
                    "time": 209.10000000000014,
                    "velocity": 0.6141732283464567,
                    "duration": 0.15000000000000568
                },
                {
                    "name": "D#5",
                    "midi": 75,
                    "time": 209.40000000000015,
                    "velocity": 0.5905511811023622,
                    "duration": 0.09999999999999432
                },
                {
                    "name": "D#4",
                    "midi": 63,
                    "time": 209.50000000000014,
                    "velocity": 0.4330708661417323,
                    "duration": 0.09999999999999432
                },
                {
                    "name": "F4",
                    "midi": 65,
                    "time": 209.60000000000014,
                    "velocity": 0.4645669291338583,
                    "duration": 0.09999999999999432
                },
                {
                    "name": "G4",
                    "midi": 67,
                    "time": 209.70000000000013,
                    "velocity": 0.5511811023622047,
                    "duration": 0.15000000000000568
                },
                {
                    "name": "G3",
                    "midi": 55,
                    "time": 210.00000000000014,
                    "velocity": 0.6929133858267716,
                    "duration": 0.30000000000001137
                },
                {
                    "name": "D#4",
                    "midi": 63,
                    "time": 210.30000000000015,
                    "velocity": 0.5354330708661418,
                    "duration": 0.15000000000000568
                },
                {
                    "name": "D#5",
                    "midi": 75,
                    "time": 210.60000000000016,
                    "velocity": 0.5669291338582677,
                    "duration": 0.09999999999999432
                },
                {
                    "name": "D#4",
                    "midi": 63,
                    "time": 210.70000000000016,
                    "velocity": 0.4015748031496063,
                    "duration": 0.09999999999999432
                },
                {
                    "name": "F4",
                    "midi": 65,
                    "time": 210.80000000000015,
                    "velocity": 0.44881889763779526,
                    "duration": 0.09999999999999432
                },
                {
                    "name": "G4",
                    "midi": 67,
                    "time": 210.90000000000015,
                    "velocity": 0.5275590551181102,
                    "duration": 0.15000000000000568
                },
                {
                    "name": "G3",
                    "midi": 55,
                    "time": 211.20000000000016,
                    "velocity": 0.6614173228346457,
                    "duration": 0.30000000000001137
                },
                {
                    "name": "D#4",
                    "midi": 63,
                    "time": 211.50000000000017,
                    "velocity": 0.5196850393700787,
                    "duration": 0.15000000000000568
                },
                {
                    "name": "D#5",
                    "midi": 75,
                    "time": 211.80000000000018,
                    "velocity": 0.5511811023622047,
                    "duration": 0.09999999999999432
                },
                {
                    "name": "D#4",
                    "midi": 63,
                    "time": 211.90000000000018,
                    "velocity": 0.3937007874015748,
                    "duration": 0.09999999999999432
                },
                {
                    "name": "F4",
                    "midi": 65,
                    "time": 212.00000000000017,
                    "velocity": 0.4330708661417323,
                    "duration": 0.09999999999999432
                },
                {
                    "name": "G4",
                    "midi": 67,
                    "time": 212.10000000000016,
                    "velocity": 0.5118110236220472,
                    "duration": 0.15000000000000568
                },
                {
                    "name": "C5",
                    "midi": 72,
                    "time": 212.40000000000018,
                    "velocity": 0.5433070866141733,
                    "duration": 0.09999999999999432
                },
                {
                    "name": "C4",
                    "midi": 60,
                    "time": 212.50000000000017,
                    "velocity": 0.3858267716535433,
                    "duration": 0.09999999999999432
                },
                {
                    "name": "D4",
                    "midi": 62,
                    "time": 212.60000000000016,
                    "velocity": 0.4251968503937008,
                    "duration": 0.09999999999999432
                },
                {
                    "name": "D#4",
                    "midi": 63,
                    "time": 212.70000000000016,
                    "velocity": 0.5039370078740157,
                    "duration": 0.15000000000000568
                },
                {
                    "name": "F#4",
                    "midi": 66,
                    "time": 213.00000000000017,
                    "velocity": 0.5039370078740157,
                    "duration": 0.30000000000001137
                },
                {
                    "name": "D3",
                    "midi": 50,
                    "time": 213.30000000000018,
                    "velocity": 0.5039370078740157,
                    "duration": 0.15000000000000568
                },
                {
                    "name": "G2",
                    "midi": 43,
                    "time": 213.6000000000002,
                    "velocity": 0.5039370078740157,
                    "duration": 0.30000000000001137
                },
                {
                    "name": "D#3",
                    "midi": 51,
                    "time": 213.9000000000002,
                    "velocity": 0.49606299212598426,
                    "duration": 0.15000000000000568
                },
                {
                    "name": "D#4",
                    "midi": 63,
                    "time": 214.20000000000022,
                    "velocity": 0.5275590551181102,
                    "duration": 0.09999999999999432
                },
                {
                    "name": "D#3",
                    "midi": 51,
                    "time": 214.3000000000002,
                    "velocity": 0.3858267716535433,
                    "duration": 0.09999999999999432
                },
                {
                    "name": "F3",
                    "midi": 53,
                    "time": 214.4000000000002,
                    "velocity": 0.41732283464566927,
                    "duration": 0.09999999999999432
                },
                {
                    "name": "G3",
                    "midi": 55,
                    "time": 214.5000000000002,
                    "velocity": 0.4881889763779528,
                    "duration": 0.15000000000000568
                },
                {
                    "name": "G2",
                    "midi": 43,
                    "time": 214.8000000000002,
                    "velocity": 0.4881889763779528,
                    "duration": 0.30000000000001137
                },
                {
                    "name": "D#3",
                    "midi": 51,
                    "time": 215.10000000000022,
                    "velocity": 0.4881889763779528,
                    "duration": 0.15000000000000568
                },
                {
                    "name": "D#4",
                    "midi": 63,
                    "time": 215.40000000000023,
                    "velocity": 0.5118110236220472,
                    "duration": 0.09999999999999432
                },
                {
                    "name": "D#3",
                    "midi": 51,
                    "time": 215.50000000000023,
                    "velocity": 0.3700787401574803,
                    "duration": 0.09999999999999432
                },
                {
                    "name": "F3",
                    "midi": 53,
                    "time": 215.60000000000022,
                    "velocity": 0.4094488188976378,
                    "duration": 0.09999999999999432
                },
                {
                    "name": "G3",
                    "midi": 55,
                    "time": 215.70000000000022,
                    "velocity": 0.48031496062992124,
                    "duration": 0.15000000000000568
                },
                {
                    "name": "G2",
                    "midi": 43,
                    "time": 216.00000000000023,
                    "velocity": 0.48031496062992124,
                    "duration": 0.30000000000001137
                },
                {
                    "name": "D#3",
                    "midi": 51,
                    "time": 216.30000000000024,
                    "velocity": 0.48031496062992124,
                    "duration": 0.15000000000000568
                },
                {
                    "name": "D#4",
                    "midi": 63,
                    "time": 216.60000000000025,
                    "velocity": 0.5039370078740157,
                    "duration": 0.09999999999999432
                },
                {
                    "name": "D#3",
                    "midi": 51,
                    "time": 216.70000000000024,
                    "velocity": 0.3858267716535433,
                    "duration": 0.09999999999999432
                },
                {
                    "name": "F3",
                    "midi": 53,
                    "time": 216.80000000000024,
                    "velocity": 0.4015748031496063,
                    "duration": 0.09999999999999432
                },
                {
                    "name": "G3",
                    "midi": 55,
                    "time": 216.90000000000023,
                    "velocity": 0.47244094488188976,
                    "duration": 0.15000000000000568
                },
                {
                    "name": "C4",
                    "midi": 60,
                    "time": 217.20000000000024,
                    "velocity": 0.49606299212598426,
                    "duration": 0.09999999999999432
                },
                {
                    "name": "C3",
                    "midi": 48,
                    "time": 217.30000000000024,
                    "velocity": 0.3937007874015748,
                    "duration": 0.09999999999999432
                },
                {
                    "name": "D3",
                    "midi": 50,
                    "time": 217.40000000000023,
                    "velocity": 0.3937007874015748,
                    "duration": 0.09999999999999432
                },
                {
                    "name": "D#3",
                    "midi": 51,
                    "time": 217.50000000000023,
                    "velocity": 0.47244094488188976,
                    "duration": 0.15000000000000568
                },
                {
                    "name": "F#3",
                    "midi": 54,
                    "time": 217.80000000000024,
                    "velocity": 0.4645669291338583,
                    "duration": 0.30000000000001137
                },
                {
                    "name": "D2",
                    "midi": 38,
                    "time": 218.10000000000025,
                    "velocity": 0.4645669291338583,
                    "duration": 0.15000000000000568
                },
                {
                    "name": "G1",
                    "midi": 31,
                    "time": 218.40000000000026,
                    "velocity": 0.4566929133858268,
                    "duration": 0.30000000000001137
                },
                {
                    "name": "D2",
                    "midi": 38,
                    "time": 218.70000000000027,
                    "velocity": 0.4566929133858268,
                    "duration": 0.15000000000000568
                },
                {
                    "name": "F#3",
                    "midi": 54,
                    "time": 219.00000000000028,
                    "velocity": 0.4566929133858268,
                    "duration": 0.30000000000001137
                },
                {
                    "name": "D2",
                    "midi": 38,
                    "time": 219.3000000000003,
                    "velocity": 0.4566929133858268,
                    "duration": 0.15000000000000568
                },
                {
                    "name": "G1",
                    "midi": 31,
                    "time": 219.6000000000003,
                    "velocity": 0.44881889763779526,
                    "duration": 0.30000000000001137
                },
                {
                    "name": "D2",
                    "midi": 38,
                    "time": 219.90000000000032,
                    "velocity": 0.44881889763779526,
                    "duration": 0.15000000000000568
                },
                {
                    "name": "F#3",
                    "midi": 54,
                    "time": 220.20000000000033,
                    "velocity": 0.4409448818897638,
                    "duration": 0.30000000000001137
                },
                {
                    "name": "D2",
                    "midi": 38,
                    "time": 220.50000000000034,
                    "velocity": 0.4409448818897638,
                    "duration": 0.15000000000000568
                },
                {
                    "name": "G1",
                    "midi": 31,
                    "time": 220.80000000000035,
                    "velocity": 0.4645669291338583,
                    "duration": 1.8000000000000114
                },
                {
                    "name": "G2",
                    "midi": 43,
                    "time": 220.80000000000035,
                    "velocity": 0.4645669291338583,
                    "duration": 1.8000000000000114
                },
                {
                    "name": "D2",
                    "midi": 38,
                    "time": 222.90000000000038,
                    "velocity": 0.5196850393700787,
                    "duration": 0.15000000000000568
                },
                {
                    "name": "D3",
                    "midi": 50,
                    "time": 222.90000000000038,
                    "velocity": 0.5196850393700787,
                    "duration": 0.15000000000000568
                },
                {
                    "name": "G1",
                    "midi": 31,
                    "time": 223.2000000000004,
                    "velocity": 0.5275590551181102,
                    "duration": 1.8000000000000114
                },
                {
                    "name": "G2",
                    "midi": 43,
                    "time": 223.2000000000004,
                    "velocity": 0.5275590551181102,
                    "duration": 1.8000000000000114
                },
                {
                    "name": "D2",
                    "midi": 38,
                    "time": 225.3000000000004,
                    "velocity": 0.5826771653543307,
                    "duration": 0.15000000000000568
                },
                {
                    "name": "D3",
                    "midi": 50,
                    "time": 225.3000000000004,
                    "velocity": 0.5826771653543307,
                    "duration": 0.15000000000000568
                },
                {
                    "name": "G1",
                    "midi": 31,
                    "time": 225.60000000000042,
                    "velocity": 0.5354330708661418,
                    "duration": 0.30000000000001137
                },
                {
                    "name": "G2",
                    "midi": 43,
                    "time": 225.60000000000042,
                    "velocity": 0.5984251968503937,
                    "duration": 0.30000000000001137
                },
                {
                    "name": "A#5",
                    "midi": 82,
                    "time": 226.50000000000043,
                    "velocity": 0.6535433070866141,
                    "duration": 0.5999999999999943
                },
                {
                    "name": "G5",
                    "midi": 79,
                    "time": 227.10000000000042,
                    "velocity": 0.6535433070866141,
                    "duration": 0.5999999999999943
                },
                {
                    "name": "D5",
                    "midi": 74,
                    "time": 227.70000000000041,
                    "velocity": 0.6535433070866141,
                    "duration": 0.5999999999999943
                },
                {
                    "name": "A#4",
                    "midi": 70,
                    "time": 228.3000000000004,
                    "velocity": 0.6456692913385826,
                    "duration": 0.5999999999999943
                },
                {
                    "name": "G4",
                    "midi": 67,
                    "time": 228.9000000000004,
                    "velocity": 0.6299212598425197,
                    "duration": 0.5999999999999943
                },
                {
                    "name": "D4",
                    "midi": 62,
                    "time": 229.5000000000004,
                    "velocity": 0.6299212598425197,
                    "duration": 0.5999999999999943
                },
                {
                    "name": "A#3",
                    "midi": 58,
                    "time": 230.1000000000004,
                    "velocity": 0.6299212598425197,
                    "duration": 0.30000000000001137
                },
                {
                    "name": "C3",
                    "midi": 48,
                    "time": 230.4000000000004,
                    "velocity": 0.6141732283464567,
                    "duration": 2.4000000000000057
                },
                {
                    "name": "F#3",
                    "midi": 54,
                    "time": 231.3000000000004,
                    "velocity": 0.5590551181102362,
                    "duration": 0.5999999999999943
                },
                {
                    "name": "D#3",
                    "midi": 51,
                    "time": 231.9000000000004,
                    "velocity": 0.5590551181102362,
                    "duration": 0.5999999999999943
                },
                {
                    "name": "C3",
                    "midi": 48,
                    "time": 232.5000000000004,
                    "velocity": 0.5748031496062992,
                    "duration": 2.700000000000017
                },
                {
                    "name": "A2",
                    "midi": 45,
                    "time": 233.10000000000042,
                    "velocity": 0.5748031496062992,
                    "duration": 0.5999999999999943
                },
                {
                    "name": "F#2",
                    "midi": 42,
                    "time": 233.70000000000041,
                    "velocity": 0.5905511811023622,
                    "duration": 0.5999999999999943
                },
                {
                    "name": "D#2",
                    "midi": 39,
                    "time": 234.3000000000004,
                    "velocity": 0.5984251968503937,
                    "duration": 0.5999999999999943
                },
                {
                    "name": "C2",
                    "midi": 36,
                    "time": 234.9000000000004,
                    "velocity": 0.6220472440944882,
                    "duration": 0.30000000000001137
                },
                {
                    "name": "G1",
                    "midi": 31,
                    "time": 235.20000000000041,
                    "velocity": 0.6141732283464567,
                    "duration": 0.5999999999999943
                },
                {
                    "name": "G2",
                    "midi": 43,
                    "time": 235.20000000000041,
                    "velocity": 0.6692913385826772,
                    "duration": 0.5999999999999943
                },
                {
                    "name": "A#4",
                    "midi": 70,
                    "time": 236.10000000000042,
                    "velocity": 0.6299212598425197,
                    "duration": 0.5999999999999943
                },
                {
                    "name": "G4",
                    "midi": 67,
                    "time": 236.70000000000041,
                    "velocity": 0.6299212598425197,
                    "duration": 0.5999999999999943
                },
                {
                    "name": "D4",
                    "midi": 62,
                    "time": 237.3000000000004,
                    "velocity": 0.6299212598425197,
                    "duration": 0.5999999999999943
                },
                {
                    "name": "A#3",
                    "midi": 58,
                    "time": 237.9000000000004,
                    "velocity": 0.6299212598425197,
                    "duration": 0.5999999999999943
                },
                {
                    "name": "G3",
                    "midi": 55,
                    "time": 238.5000000000004,
                    "velocity": 0.6299212598425197,
                    "duration": 0.5999999999999943
                },
                {
                    "name": "D3",
                    "midi": 50,
                    "time": 239.1000000000004,
                    "velocity": 0.6299212598425197,
                    "duration": 0.5999999999999943
                },
                {
                    "name": "A#2",
                    "midi": 46,
                    "time": 239.7000000000004,
                    "velocity": 0.6299212598425197,
                    "duration": 0.30000000000001137
                },
                {
                    "name": "C2",
                    "midi": 36,
                    "time": 240.0000000000004,
                    "velocity": 0.7874015748031497,
                    "duration": 2.4000000000000057
                },
                {
                    "name": "F#2",
                    "midi": 42,
                    "time": 240.9000000000004,
                    "velocity": 0.6141732283464567,
                    "duration": 0.5999999999999943
                },
                {
                    "name": "D#2",
                    "midi": 39,
                    "time": 241.5000000000004,
                    "velocity": 0.6141732283464567,
                    "duration": 0.5999999999999943
                },
                {
                    "name": "C2",
                    "midi": 36,
                    "time": 242.1000000000004,
                    "velocity": 0.6141732283464567,
                    "duration": 0.30000000000001137
                },
                {
                    "name": "C2",
                    "midi": 36,
                    "time": 242.4000000000004,
                    "velocity": 0.6141732283464567,
                    "duration": 2.4000000000000057
                },
                {
                    "name": "A1",
                    "midi": 33,
                    "time": 242.70000000000041,
                    "velocity": 0.6141732283464567,
                    "duration": 0.5999999999999943
                },
                {
                    "name": "F#1",
                    "midi": 30,
                    "time": 243.3000000000004,
                    "velocity": 0.6141732283464567,
                    "duration": 0.5999999999999943
                },
                {
                    "name": "D#1",
                    "midi": 27,
                    "time": 243.9000000000004,
                    "velocity": 0.6141732283464567,
                    "duration": 0.5999999999999943
                },
                {
                    "name": "C1",
                    "midi": 24,
                    "time": 244.5000000000004,
                    "velocity": 0.6141732283464567,
                    "duration": 0.30000000000001137
                },
                {
                    "name": "G1",
                    "midi": 31,
                    "time": 244.8000000000004,
                    "velocity": 0.6377952755905512,
                    "duration": 0.5999999999999943
                },
                {
                    "name": "D4",
                    "midi": 62,
                    "time": 245.70000000000041,
                    "velocity": 0.6141732283464567,
                    "duration": 0.5999999999999943
                },
                {
                    "name": "A#3",
                    "midi": 58,
                    "time": 246.3000000000004,
                    "velocity": 0.6377952755905512,
                    "duration": 0.5999999999999943
                },
                {
                    "name": "G3",
                    "midi": 55,
                    "time": 246.9000000000004,
                    "velocity": 0.6456692913385826,
                    "duration": 0.5999999999999943
                },
                {
                    "name": "D3",
                    "midi": 50,
                    "time": 247.5000000000004,
                    "velocity": 0.6692913385826772,
                    "duration": 0.5999999999999943
                },
                {
                    "name": "A#2",
                    "midi": 46,
                    "time": 248.1000000000004,
                    "velocity": 0.6929133858267716,
                    "duration": 0.5999999999999943
                },
                {
                    "name": "G2",
                    "midi": 43,
                    "time": 248.7000000000004,
                    "velocity": 0.7401574803149606,
                    "duration": 0.5999999999999943
                },
                {
                    "name": "G1",
                    "midi": 31,
                    "time": 249.30000000000038,
                    "velocity": 0.8110236220472441,
                    "duration": 1.5
                }
            ],
            "controlChanges": {},
            "id": 2,
            "name": "Piano left",
            "instrumentNumber": 0,
            "instrument": "acoustic grand piano",
            "instrumentFamily": "piano",
            "channelNumber": 0,
            "isPercussion": false
        },
        {
            "startTime": 0,
            "duration": 0,
            "length": 0,
            "notes": [],
            "controlChanges": {
                "64": [
                    {
                        "number": 64,
                        "time": 1.2,
                        "value": 1
                    },
                    {
                        "number": 64,
                        "time": 1.515,
                        "value": 0
                    },
                    {
                        "number": 64,
                        "time": 1.8537499999999998,
                        "value": 1
                    },
                    {
                        "number": 64,
                        "time": 2.1125,
                        "value": 0
                    },
                    {
                        "number": 64,
                        "time": 2.42625,
                        "value": 1
                    },
                    {
                        "number": 64,
                        "time": 2.705,
                        "value": 0
                    },
                    {
                        "number": 64,
                        "time": 3.02625,
                        "value": 1
                    },
                    {
                        "number": 64,
                        "time": 3.3125,
                        "value": 0
                    },
                    {
                        "number": 64,
                        "time": 3.61875,
                        "value": 1
                    },
                    {
                        "number": 64,
                        "time": 3.92,
                        "value": 0
                    },
                    {
                        "number": 64,
                        "time": 4.24,
                        "value": 1
                    },
                    {
                        "number": 64,
                        "time": 4.51,
                        "value": 0
                    },
                    {
                        "number": 64,
                        "time": 4.8149999999999995,
                        "value": 1
                    },
                    {
                        "number": 64,
                        "time": 5.1175,
                        "value": 0
                    },
                    {
                        "number": 64,
                        "time": 6,
                        "value": 1
                    },
                    {
                        "number": 64,
                        "time": 6.315,
                        "value": 0
                    },
                    {
                        "number": 64,
                        "time": 6.6537500000000005,
                        "value": 1
                    },
                    {
                        "number": 64,
                        "time": 6.9125000000000005,
                        "value": 0
                    },
                    {
                        "number": 64,
                        "time": 7.22625,
                        "value": 1
                    },
                    {
                        "number": 64,
                        "time": 7.505,
                        "value": 0
                    },
                    {
                        "number": 64,
                        "time": 7.82625,
                        "value": 1
                    },
                    {
                        "number": 64,
                        "time": 8.1125,
                        "value": 0
                    },
                    {
                        "number": 64,
                        "time": 8.418750000000001,
                        "value": 1
                    },
                    {
                        "number": 64,
                        "time": 8.72,
                        "value": 0
                    },
                    {
                        "number": 64,
                        "time": 9.040000000000001,
                        "value": 1
                    },
                    {
                        "number": 64,
                        "time": 9.31,
                        "value": 0
                    },
                    {
                        "number": 64,
                        "time": 9.615,
                        "value": 1
                    },
                    {
                        "number": 64,
                        "time": 9.9175,
                        "value": 0
                    },
                    {
                        "number": 64,
                        "time": 10.221250000000001,
                        "value": 1
                    },
                    {
                        "number": 64,
                        "time": 10.510000000000002,
                        "value": 0
                    },
                    {
                        "number": 64,
                        "time": 10.818750000000001,
                        "value": 1
                    },
                    {
                        "number": 64,
                        "time": 11.120000000000001,
                        "value": 0
                    },
                    {
                        "number": 64,
                        "time": 11.440000000000001,
                        "value": 1
                    },
                    {
                        "number": 64,
                        "time": 11.71,
                        "value": 0
                    },
                    {
                        "number": 64,
                        "time": 12.01875,
                        "value": 1
                    },
                    {
                        "number": 64,
                        "time": 12.32,
                        "value": 0
                    },
                    {
                        "number": 64,
                        "time": 13.2,
                        "value": 1
                    },
                    {
                        "number": 64,
                        "time": 13.518749999999999,
                        "value": 0
                    },
                    {
                        "number": 64,
                        "time": 13.888749999999998,
                        "value": 1
                    },
                    {
                        "number": 64,
                        "time": 14.126249999999999,
                        "value": 0
                    },
                    {
                        "number": 64,
                        "time": 14.466249999999999,
                        "value": 1
                    },
                    {
                        "number": 64,
                        "time": 14.73125,
                        "value": 0
                    },
                    {
                        "number": 64,
                        "time": 15.08875,
                        "value": 1
                    },
                    {
                        "number": 64,
                        "time": 15.3125,
                        "value": 0
                    },
                    {
                        "number": 64,
                        "time": 15.61875,
                        "value": 1
                    },
                    {
                        "number": 64,
                        "time": 15.905000000000001,
                        "value": 0
                    },
                    {
                        "number": 64,
                        "time": 16.240000000000002,
                        "value": 1
                    },
                    {
                        "number": 64,
                        "time": 16.51125,
                        "value": 0
                    },
                    {
                        "number": 64,
                        "time": 16.865000000000002,
                        "value": 1
                    },
                    {
                        "number": 64,
                        "time": 17.117500000000003,
                        "value": 0
                    },
                    {
                        "number": 64,
                        "time": 18.000000000000004,
                        "value": 1
                    },
                    {
                        "number": 64,
                        "time": 18.313750000000002,
                        "value": 0
                    },
                    {
                        "number": 64,
                        "time": 18.653750000000002,
                        "value": 1
                    },
                    {
                        "number": 64,
                        "time": 18.906250000000004,
                        "value": 0
                    },
                    {
                        "number": 64,
                        "time": 19.245000000000005,
                        "value": 1
                    },
                    {
                        "number": 64,
                        "time": 19.505000000000006,
                        "value": 0
                    },
                    {
                        "number": 64,
                        "time": 19.826250000000005,
                        "value": 1
                    },
                    {
                        "number": 64,
                        "time": 20.112500000000004,
                        "value": 0
                    },
                    {
                        "number": 64,
                        "time": 20.418750000000003,
                        "value": 1
                    },
                    {
                        "number": 64,
                        "time": 20.720000000000002,
                        "value": 0
                    },
                    {
                        "number": 64,
                        "time": 21.040000000000003,
                        "value": 1
                    },
                    {
                        "number": 64,
                        "time": 21.310000000000002,
                        "value": 0
                    },
                    {
                        "number": 64,
                        "time": 21.615000000000002,
                        "value": 1
                    },
                    {
                        "number": 64,
                        "time": 21.9175,
                        "value": 0
                    },
                    {
                        "number": 64,
                        "time": 22.22125,
                        "value": 1
                    },
                    {
                        "number": 64,
                        "time": 22.51,
                        "value": 0
                    },
                    {
                        "number": 64,
                        "time": 22.81875,
                        "value": 1
                    },
                    {
                        "number": 64,
                        "time": 23.12,
                        "value": 0
                    },
                    {
                        "number": 64,
                        "time": 23.44,
                        "value": 1
                    },
                    {
                        "number": 64,
                        "time": 23.71,
                        "value": 0
                    },
                    {
                        "number": 64,
                        "time": 24.01875,
                        "value": 1
                    },
                    {
                        "number": 64,
                        "time": 24.32,
                        "value": 0
                    },
                    {
                        "number": 64,
                        "time": 24.67875,
                        "value": 1
                    },
                    {
                        "number": 64,
                        "time": 24.91,
                        "value": 0
                    },
                    {
                        "number": 64,
                        "time": 25.21875,
                        "value": 1
                    },
                    {
                        "number": 64,
                        "time": 25.5125,
                        "value": 0
                    },
                    {
                        "number": 64,
                        "time": 25.88625,
                        "value": 1
                    },
                    {
                        "number": 64,
                        "time": 26.1125,
                        "value": 0
                    },
                    {
                        "number": 64,
                        "time": 26.44375,
                        "value": 1
                    },
                    {
                        "number": 64,
                        "time": 26.720000000000002,
                        "value": 0
                    },
                    {
                        "number": 64,
                        "time": 27.6,
                        "value": 1
                    },
                    {
                        "number": 64,
                        "time": 27.915000000000003,
                        "value": 0
                    },
                    {
                        "number": 64,
                        "time": 28.253750000000004,
                        "value": 1
                    },
                    {
                        "number": 64,
                        "time": 28.512500000000003,
                        "value": 0
                    },
                    {
                        "number": 64,
                        "time": 28.82625,
                        "value": 1
                    },
                    {
                        "number": 64,
                        "time": 29.105,
                        "value": 0
                    },
                    {
                        "number": 64,
                        "time": 29.42625,
                        "value": 1
                    },
                    {
                        "number": 64,
                        "time": 29.7125,
                        "value": 0
                    },
                    {
                        "number": 64,
                        "time": 30.018749999999997,
                        "value": 1
                    },
                    {
                        "number": 64,
                        "time": 30.319999999999997,
                        "value": 0
                    },
                    {
                        "number": 64,
                        "time": 30.639999999999997,
                        "value": 1
                    },
                    {
                        "number": 64,
                        "time": 30.909999999999997,
                        "value": 0
                    },
                    {
                        "number": 64,
                        "time": 31.218749999999996,
                        "value": 1
                    },
                    {
                        "number": 64,
                        "time": 31.519999999999996,
                        "value": 0
                    },
                    {
                        "number": 64,
                        "time": 31.839999999999996,
                        "value": 1
                    },
                    {
                        "number": 64,
                        "time": 32.11,
                        "value": 0
                    },
                    {
                        "number": 64,
                        "time": 32.41875,
                        "value": 1
                    },
                    {
                        "number": 64,
                        "time": 33.005,
                        "value": 0
                    },
                    {
                        "number": 64,
                        "time": 33.08375,
                        "value": 1
                    },
                    {
                        "number": 64,
                        "time": 33.31,
                        "value": 0
                    },
                    {
                        "number": 64,
                        "time": 33.618750000000006,
                        "value": 1
                    },
                    {
                        "number": 64,
                        "time": 33.91250000000001,
                        "value": 0
                    },
                    {
                        "number": 64,
                        "time": 34.28375000000001,
                        "value": 1
                    },
                    {
                        "number": 64,
                        "time": 34.51000000000001,
                        "value": 0
                    },
                    {
                        "number": 64,
                        "time": 36.05750000000001,
                        "value": 1
                    },
                    {
                        "number": 64,
                        "time": 36.31000000000001,
                        "value": 0
                    },
                    {
                        "number": 64,
                        "time": 36.68375000000001,
                        "value": 1
                    },
                    {
                        "number": 64,
                        "time": 36.91000000000001,
                        "value": 0
                    },
                    {
                        "number": 64,
                        "time": 37.32500000000001,
                        "value": 1
                    },
                    {
                        "number": 64,
                        "time": 37.81250000000001,
                        "value": 0
                    },
                    {
                        "number": 64,
                        "time": 37.955000000000005,
                        "value": 1
                    },
                    {
                        "number": 64,
                        "time": 38.40625000000001,
                        "value": 0
                    },
                    {
                        "number": 64,
                        "time": 38.667500000000004,
                        "value": 1
                    },
                    {
                        "number": 64,
                        "time": 39.167500000000004,
                        "value": 0
                    },
                    {
                        "number": 64,
                        "time": 39.6,
                        "value": 1
                    },
                    {
                        "number": 64,
                        "time": 40.206250000000004,
                        "value": 0
                    },
                    {
                        "number": 64,
                        "time": 40.306250000000006,
                        "value": 1
                    },
                    {
                        "number": 64,
                        "time": 40.80375000000001,
                        "value": 0
                    },
                    {
                        "number": 64,
                        "time": 40.932500000000005,
                        "value": 1
                    },
                    {
                        "number": 64,
                        "time": 41.407500000000006,
                        "value": 0
                    },
                    {
                        "number": 64,
                        "time": 41.470000000000006,
                        "value": 1
                    },
                    {
                        "number": 64,
                        "time": 42.00000000000001,
                        "value": 0
                    },
                    {
                        "number": 64,
                        "time": 42.150000000000006,
                        "value": 1
                    },
                    {
                        "number": 64,
                        "time": 42.61500000000001,
                        "value": 0
                    },
                    {
                        "number": 64,
                        "time": 42.73250000000001,
                        "value": 1
                    },
                    {
                        "number": 64,
                        "time": 43.20750000000001,
                        "value": 0
                    },
                    {
                        "number": 64,
                        "time": 43.27125000000001,
                        "value": 1
                    },
                    {
                        "number": 64,
                        "time": 43.80750000000001,
                        "value": 0
                    },
                    {
                        "number": 64,
                        "time": 43.84000000000001,
                        "value": 1
                    },
                    {
                        "number": 64,
                        "time": 44.40000000000001,
                        "value": 0
                    },
                    {
                        "number": 64,
                        "time": 44.54125000000001,
                        "value": 1
                    },
                    {
                        "number": 64,
                        "time": 45.015000000000015,
                        "value": 0
                    },
                    {
                        "number": 64,
                        "time": 45.132500000000014,
                        "value": 1
                    },
                    {
                        "number": 64,
                        "time": 45.600000000000016,
                        "value": 0
                    },
                    {
                        "number": 64,
                        "time": 45.66625000000001,
                        "value": 1
                    },
                    {
                        "number": 64,
                        "time": 46.20750000000001,
                        "value": 0
                    },
                    {
                        "number": 64,
                        "time": 46.266250000000014,
                        "value": 1
                    },
                    {
                        "number": 64,
                        "time": 46.80000000000001,
                        "value": 0
                    },
                    {
                        "number": 64,
                        "time": 46.92375000000001,
                        "value": 1
                    },
                    {
                        "number": 64,
                        "time": 47.41000000000001,
                        "value": 0
                    },
                    {
                        "number": 64,
                        "time": 47.48875000000001,
                        "value": 1
                    },
                    {
                        "number": 64,
                        "time": 48.00625000000001,
                        "value": 0
                    },
                    {
                        "number": 64,
                        "time": 48.07500000000001,
                        "value": 1
                    },
                    {
                        "number": 64,
                        "time": 48.60750000000001,
                        "value": 0
                    },
                    {
                        "number": 64,
                        "time": 48.657500000000006,
                        "value": 1
                    },
                    {
                        "number": 64,
                        "time": 49.2,
                        "value": 0
                    },
                    {
                        "number": 64,
                        "time": 49.306250000000006,
                        "value": 1
                    },
                    {
                        "number": 64,
                        "time": 49.82625000000001,
                        "value": 0
                    },
                    {
                        "number": 64,
                        "time": 49.923750000000005,
                        "value": 1
                    },
                    {
                        "number": 64,
                        "time": 50.400000000000006,
                        "value": 0
                    },
                    {
                        "number": 64,
                        "time": 50.48375000000001,
                        "value": 1
                    },
                    {
                        "number": 64,
                        "time": 51.00750000000001,
                        "value": 0
                    },
                    {
                        "number": 64,
                        "time": 51.05875000000001,
                        "value": 1
                    },
                    {
                        "number": 64,
                        "time": 51.60000000000001,
                        "value": 0
                    },
                    {
                        "number": 64,
                        "time": 51.70625000000001,
                        "value": 1
                    },
                    {
                        "number": 64,
                        "time": 52.226250000000014,
                        "value": 0
                    },
                    {
                        "number": 64,
                        "time": 52.32375000000001,
                        "value": 1
                    },
                    {
                        "number": 64,
                        "time": 52.80000000000001,
                        "value": 0
                    },
                    {
                        "number": 64,
                        "time": 52.88375000000001,
                        "value": 1
                    },
                    {
                        "number": 64,
                        "time": 53.40750000000001,
                        "value": 0
                    },
                    {
                        "number": 64,
                        "time": 53.458750000000016,
                        "value": 1
                    },
                    {
                        "number": 64,
                        "time": 54.000000000000014,
                        "value": 0
                    },
                    {
                        "number": 64,
                        "time": 54.115000000000016,
                        "value": 1
                    },
                    {
                        "number": 64,
                        "time": 54.600000000000016,
                        "value": 0
                    },
                    {
                        "number": 64,
                        "time": 54.69750000000001,
                        "value": 1
                    },
                    {
                        "number": 64,
                        "time": 55.20000000000001,
                        "value": 0
                    },
                    {
                        "number": 64,
                        "time": 55.31500000000001,
                        "value": 1
                    },
                    {
                        "number": 64,
                        "time": 55.80000000000001,
                        "value": 0
                    },
                    {
                        "number": 64,
                        "time": 55.89750000000001,
                        "value": 1
                    },
                    {
                        "number": 64,
                        "time": 56.400000000000006,
                        "value": 0
                    },
                    {
                        "number": 64,
                        "time": 56.532500000000006,
                        "value": 1
                    },
                    {
                        "number": 64,
                        "time": 57.01375000000001,
                        "value": 0
                    },
                    {
                        "number": 64,
                        "time": 57.16750000000001,
                        "value": 1
                    },
                    {
                        "number": 64,
                        "time": 57.60000000000001,
                        "value": 0
                    },
                    {
                        "number": 64,
                        "time": 57.71500000000001,
                        "value": 1
                    },
                    {
                        "number": 64,
                        "time": 58.27125000000001,
                        "value": 0
                    },
                    {
                        "number": 64,
                        "time": 58.41250000000001,
                        "value": 1
                    },
                    {
                        "number": 64,
                        "time": 58.80750000000001,
                        "value": 0
                    },
                    {
                        "number": 64,
                        "time": 58.906250000000014,
                        "value": 1
                    },
                    {
                        "number": 64,
                        "time": 59.406250000000014,
                        "value": 0
                    },
                    {
                        "number": 64,
                        "time": 59.506250000000016,
                        "value": 1
                    },
                    {
                        "number": 64,
                        "time": 60.00375000000002,
                        "value": 0
                    },
                    {
                        "number": 64,
                        "time": 60.132500000000014,
                        "value": 1
                    },
                    {
                        "number": 64,
                        "time": 60.607500000000016,
                        "value": 0
                    },
                    {
                        "number": 64,
                        "time": 60.670000000000016,
                        "value": 1
                    },
                    {
                        "number": 64,
                        "time": 61.20000000000002,
                        "value": 0
                    },
                    {
                        "number": 64,
                        "time": 61.350000000000016,
                        "value": 1
                    },
                    {
                        "number": 64,
                        "time": 61.81500000000002,
                        "value": 0
                    },
                    {
                        "number": 64,
                        "time": 61.93250000000002,
                        "value": 1
                    },
                    {
                        "number": 64,
                        "time": 62.40750000000002,
                        "value": 0
                    },
                    {
                        "number": 64,
                        "time": 62.47125000000002,
                        "value": 1
                    },
                    {
                        "number": 64,
                        "time": 63.00750000000002,
                        "value": 0
                    },
                    {
                        "number": 64,
                        "time": 63.04000000000002,
                        "value": 1
                    },
                    {
                        "number": 64,
                        "time": 63.60000000000002,
                        "value": 0
                    },
                    {
                        "number": 64,
                        "time": 63.74125000000002,
                        "value": 1
                    },
                    {
                        "number": 64,
                        "time": 64.21500000000002,
                        "value": 0
                    },
                    {
                        "number": 64,
                        "time": 64.33250000000002,
                        "value": 1
                    },
                    {
                        "number": 64,
                        "time": 64.80000000000003,
                        "value": 0
                    },
                    {
                        "number": 64,
                        "time": 64.86625000000002,
                        "value": 1
                    },
                    {
                        "number": 64,
                        "time": 65.40750000000003,
                        "value": 0
                    },
                    {
                        "number": 64,
                        "time": 65.46625000000003,
                        "value": 1
                    },
                    {
                        "number": 64,
                        "time": 66.00000000000003,
                        "value": 0
                    },
                    {
                        "number": 64,
                        "time": 66.12375000000003,
                        "value": 1
                    },
                    {
                        "number": 64,
                        "time": 66.61000000000003,
                        "value": 0
                    },
                    {
                        "number": 64,
                        "time": 66.68875000000003,
                        "value": 1
                    },
                    {
                        "number": 64,
                        "time": 67.20625000000003,
                        "value": 0
                    },
                    {
                        "number": 64,
                        "time": 67.27500000000002,
                        "value": 1
                    },
                    {
                        "number": 64,
                        "time": 67.80750000000002,
                        "value": 0
                    },
                    {
                        "number": 64,
                        "time": 67.85750000000002,
                        "value": 1
                    },
                    {
                        "number": 64,
                        "time": 68.40000000000002,
                        "value": 0
                    },
                    {
                        "number": 64,
                        "time": 68.50625000000002,
                        "value": 1
                    },
                    {
                        "number": 64,
                        "time": 69.02625000000002,
                        "value": 0
                    },
                    {
                        "number": 64,
                        "time": 69.12375000000002,
                        "value": 1
                    },
                    {
                        "number": 64,
                        "time": 69.60000000000001,
                        "value": 0
                    },
                    {
                        "number": 64,
                        "time": 69.68375,
                        "value": 1
                    },
                    {
                        "number": 64,
                        "time": 70.20750000000001,
                        "value": 0
                    },
                    {
                        "number": 64,
                        "time": 70.25875,
                        "value": 1
                    },
                    {
                        "number": 64,
                        "time": 70.80000000000001,
                        "value": 0
                    },
                    {
                        "number": 64,
                        "time": 70.90625000000001,
                        "value": 1
                    },
                    {
                        "number": 64,
                        "time": 71.42625000000001,
                        "value": 0
                    },
                    {
                        "number": 64,
                        "time": 71.52375,
                        "value": 1
                    },
                    {
                        "number": 64,
                        "time": 72,
                        "value": 0
                    },
                    {
                        "number": 64,
                        "time": 72.08375,
                        "value": 1
                    },
                    {
                        "number": 64,
                        "time": 72.6075,
                        "value": 0
                    },
                    {
                        "number": 64,
                        "time": 72.65875,
                        "value": 1
                    },
                    {
                        "number": 64,
                        "time": 73.2,
                        "value": 0
                    },
                    {
                        "number": 64,
                        "time": 73.315,
                        "value": 1
                    },
                    {
                        "number": 64,
                        "time": 73.8,
                        "value": 0
                    },
                    {
                        "number": 64,
                        "time": 73.8975,
                        "value": 1
                    },
                    {
                        "number": 64,
                        "time": 74.39999999999999,
                        "value": 0
                    },
                    {
                        "number": 64,
                        "time": 74.51499999999999,
                        "value": 1
                    },
                    {
                        "number": 64,
                        "time": 74.99999999999999,
                        "value": 0
                    },
                    {
                        "number": 64,
                        "time": 75.09749999999998,
                        "value": 1
                    },
                    {
                        "number": 64,
                        "time": 75.59999999999998,
                        "value": 0
                    },
                    {
                        "number": 64,
                        "time": 75.73249999999997,
                        "value": 1
                    },
                    {
                        "number": 64,
                        "time": 76.21374999999998,
                        "value": 0
                    },
                    {
                        "number": 64,
                        "time": 76.36749999999998,
                        "value": 1
                    },
                    {
                        "number": 64,
                        "time": 76.79999999999998,
                        "value": 0
                    },
                    {
                        "number": 64,
                        "time": 76.91499999999998,
                        "value": 1
                    },
                    {
                        "number": 64,
                        "time": 77.47124999999998,
                        "value": 0
                    },
                    {
                        "number": 64,
                        "time": 77.99999999999999,
                        "value": 1
                    },
                    {
                        "number": 64,
                        "time": 78.60624999999999,
                        "value": 0
                    },
                    {
                        "number": 64,
                        "time": 78.70624999999998,
                        "value": 1
                    },
                    {
                        "number": 64,
                        "time": 79.20374999999999,
                        "value": 0
                    },
                    {
                        "number": 64,
                        "time": 79.33249999999998,
                        "value": 1
                    },
                    {
                        "number": 64,
                        "time": 79.80749999999998,
                        "value": 0
                    },
                    {
                        "number": 64,
                        "time": 79.86999999999998,
                        "value": 1
                    },
                    {
                        "number": 64,
                        "time": 80.39999999999998,
                        "value": 0
                    },
                    {
                        "number": 64,
                        "time": 80.54999999999998,
                        "value": 1
                    },
                    {
                        "number": 64,
                        "time": 81.01499999999999,
                        "value": 0
                    },
                    {
                        "number": 64,
                        "time": 81.1325,
                        "value": 1
                    },
                    {
                        "number": 64,
                        "time": 81.60749999999999,
                        "value": 0
                    },
                    {
                        "number": 64,
                        "time": 81.67124999999999,
                        "value": 1
                    },
                    {
                        "number": 64,
                        "time": 82.20749999999998,
                        "value": 0
                    },
                    {
                        "number": 64,
                        "time": 82.23999999999998,
                        "value": 1
                    },
                    {
                        "number": 64,
                        "time": 82.81124999999999,
                        "value": 0
                    },
                    {
                        "number": 64,
                        "time": 82.88874999999999,
                        "value": 1
                    },
                    {
                        "number": 64,
                        "time": 83.40624999999999,
                        "value": 0
                    },
                    {
                        "number": 64,
                        "time": 83.50624999999998,
                        "value": 1
                    },
                    {
                        "number": 64,
                        "time": 84.00374999999998,
                        "value": 0
                    },
                    {
                        "number": 64,
                        "time": 84.13249999999998,
                        "value": 1
                    },
                    {
                        "number": 64,
                        "time": 84.60749999999997,
                        "value": 0
                    },
                    {
                        "number": 64,
                        "time": 84.66999999999997,
                        "value": 1
                    },
                    {
                        "number": 64,
                        "time": 85.19999999999997,
                        "value": 0
                    },
                    {
                        "number": 64,
                        "time": 85.34999999999998,
                        "value": 1
                    },
                    {
                        "number": 64,
                        "time": 85.81499999999998,
                        "value": 0
                    },
                    {
                        "number": 64,
                        "time": 85.93249999999999,
                        "value": 1
                    },
                    {
                        "number": 64,
                        "time": 86.40749999999998,
                        "value": 0
                    },
                    {
                        "number": 64,
                        "time": 86.47124999999998,
                        "value": 1
                    },
                    {
                        "number": 64,
                        "time": 87.00749999999998,
                        "value": 0
                    },
                    {
                        "number": 64,
                        "time": 87.03999999999998,
                        "value": 1
                    },
                    {
                        "number": 64,
                        "time": 87.65749999999998,
                        "value": 0
                    },
                    {
                        "number": 64,
                        "time": 87.75874999999998,
                        "value": 1
                    },
                    {
                        "number": 64,
                        "time": 88.20749999999998,
                        "value": 0
                    },
                    {
                        "number": 64,
                        "time": 88.34999999999998,
                        "value": 1
                    },
                    {
                        "number": 64,
                        "time": 88.80999999999997,
                        "value": 0
                    },
                    {
                        "number": 64,
                        "time": 88.87874999999997,
                        "value": 1
                    },
                    {
                        "number": 64,
                        "time": 89.41499999999996,
                        "value": 0
                    },
                    {
                        "number": 64,
                        "time": 89.48624999999997,
                        "value": 1
                    },
                    {
                        "number": 64,
                        "time": 90.00624999999997,
                        "value": 0
                    },
                    {
                        "number": 64,
                        "time": 90.10749999999996,
                        "value": 1
                    },
                    {
                        "number": 64,
                        "time": 91.20749999999995,
                        "value": 0
                    },
                    {
                        "number": 64,
                        "time": 91.32124999999995,
                        "value": 1
                    },
                    {
                        "number": 64,
                        "time": 92.40874999999996,
                        "value": 0
                    },
                    {
                        "number": 64,
                        "time": 92.56749999999995,
                        "value": 1
                    },
                    {
                        "number": 64,
                        "time": 93.01499999999996,
                        "value": 0
                    },
                    {
                        "number": 64,
                        "time": 93.10624999999996,
                        "value": 1
                    },
                    {
                        "number": 64,
                        "time": 93.60874999999996,
                        "value": 0
                    },
                    {
                        "number": 64,
                        "time": 93.71499999999996,
                        "value": 1
                    },
                    {
                        "number": 64,
                        "time": 94.20874999999997,
                        "value": 0
                    },
                    {
                        "number": 64,
                        "time": 94.28874999999996,
                        "value": 1
                    },
                    {
                        "number": 64,
                        "time": 94.79999999999997,
                        "value": 0
                    },
                    {
                        "number": 64,
                        "time": 94.89999999999996,
                        "value": 1
                    },
                    {
                        "number": 64,
                        "time": 97.20874999999997,
                        "value": 0
                    },
                    {
                        "number": 64,
                        "time": 97.36749999999996,
                        "value": 1
                    },
                    {
                        "number": 64,
                        "time": 97.81499999999997,
                        "value": 0
                    },
                    {
                        "number": 64,
                        "time": 97.90624999999997,
                        "value": 1
                    },
                    {
                        "number": 64,
                        "time": 98.40874999999997,
                        "value": 0
                    },
                    {
                        "number": 64,
                        "time": 98.51499999999997,
                        "value": 1
                    },
                    {
                        "number": 64,
                        "time": 99.00874999999998,
                        "value": 0
                    },
                    {
                        "number": 64,
                        "time": 99.08874999999998,
                        "value": 1
                    },
                    {
                        "number": 64,
                        "time": 99.59999999999998,
                        "value": 0
                    },
                    {
                        "number": 64,
                        "time": 99.69999999999997,
                        "value": 1
                    },
                    {
                        "number": 64,
                        "time": 101.91249999999998,
                        "value": 0
                    },
                    {
                        "number": 64,
                        "time": 102.08874999999998,
                        "value": 1
                    },
                    {
                        "number": 64,
                        "time": 102.60624999999997,
                        "value": 0
                    },
                    {
                        "number": 64,
                        "time": 102.70624999999997,
                        "value": 1
                    },
                    {
                        "number": 64,
                        "time": 103.20374999999997,
                        "value": 0
                    },
                    {
                        "number": 64,
                        "time": 103.33249999999997,
                        "value": 1
                    },
                    {
                        "number": 64,
                        "time": 103.80749999999996,
                        "value": 0
                    },
                    {
                        "number": 64,
                        "time": 103.86999999999996,
                        "value": 1
                    },
                    {
                        "number": 64,
                        "time": 104.39999999999996,
                        "value": 0
                    },
                    {
                        "number": 64,
                        "time": 104.54999999999997,
                        "value": 1
                    },
                    {
                        "number": 64,
                        "time": 105.01499999999997,
                        "value": 0
                    },
                    {
                        "number": 64,
                        "time": 105.13249999999998,
                        "value": 1
                    },
                    {
                        "number": 64,
                        "time": 105.60749999999997,
                        "value": 0
                    },
                    {
                        "number": 64,
                        "time": 105.67124999999997,
                        "value": 1
                    },
                    {
                        "number": 64,
                        "time": 106.20749999999997,
                        "value": 0
                    },
                    {
                        "number": 64,
                        "time": 106.23999999999997,
                        "value": 1
                    },
                    {
                        "number": 64,
                        "time": 106.79999999999997,
                        "value": 0
                    },
                    {
                        "number": 64,
                        "time": 106.94124999999997,
                        "value": 1
                    },
                    {
                        "number": 64,
                        "time": 107.41499999999996,
                        "value": 0
                    },
                    {
                        "number": 64,
                        "time": 107.53249999999997,
                        "value": 1
                    },
                    {
                        "number": 64,
                        "time": 107.99999999999997,
                        "value": 0
                    },
                    {
                        "number": 64,
                        "time": 108.06624999999997,
                        "value": 1
                    },
                    {
                        "number": 64,
                        "time": 108.60749999999997,
                        "value": 0
                    },
                    {
                        "number": 64,
                        "time": 108.66624999999998,
                        "value": 1
                    },
                    {
                        "number": 64,
                        "time": 109.19999999999997,
                        "value": 0
                    },
                    {
                        "number": 64,
                        "time": 109.32374999999998,
                        "value": 1
                    },
                    {
                        "number": 64,
                        "time": 109.80999999999997,
                        "value": 0
                    },
                    {
                        "number": 64,
                        "time": 109.88874999999997,
                        "value": 1
                    },
                    {
                        "number": 64,
                        "time": 110.40624999999997,
                        "value": 0
                    },
                    {
                        "number": 64,
                        "time": 110.47499999999997,
                        "value": 1
                    },
                    {
                        "number": 64,
                        "time": 111.00749999999996,
                        "value": 0
                    },
                    {
                        "number": 64,
                        "time": 111.05749999999996,
                        "value": 1
                    },
                    {
                        "number": 64,
                        "time": 111.59999999999997,
                        "value": 0
                    },
                    {
                        "number": 64,
                        "time": 111.70624999999997,
                        "value": 1
                    },
                    {
                        "number": 64,
                        "time": 112.22624999999996,
                        "value": 0
                    },
                    {
                        "number": 64,
                        "time": 112.32374999999996,
                        "value": 1
                    },
                    {
                        "number": 64,
                        "time": 112.79999999999995,
                        "value": 0
                    },
                    {
                        "number": 64,
                        "time": 112.88374999999995,
                        "value": 1
                    },
                    {
                        "number": 64,
                        "time": 113.40749999999996,
                        "value": 0
                    },
                    {
                        "number": 64,
                        "time": 113.45874999999995,
                        "value": 1
                    },
                    {
                        "number": 64,
                        "time": 113.99999999999996,
                        "value": 0
                    },
                    {
                        "number": 64,
                        "time": 114.10624999999996,
                        "value": 1
                    },
                    {
                        "number": 64,
                        "time": 114.62624999999996,
                        "value": 0
                    },
                    {
                        "number": 64,
                        "time": 114.72374999999995,
                        "value": 1
                    },
                    {
                        "number": 64,
                        "time": 115.19999999999995,
                        "value": 0
                    },
                    {
                        "number": 64,
                        "time": 115.28374999999994,
                        "value": 1
                    },
                    {
                        "number": 64,
                        "time": 115.80749999999995,
                        "value": 0
                    },
                    {
                        "number": 64,
                        "time": 115.85874999999994,
                        "value": 1
                    },
                    {
                        "number": 64,
                        "time": 116.39999999999995,
                        "value": 0
                    },
                    {
                        "number": 64,
                        "time": 116.51499999999994,
                        "value": 1
                    },
                    {
                        "number": 64,
                        "time": 116.99999999999994,
                        "value": 0
                    },
                    {
                        "number": 64,
                        "time": 117.09749999999994,
                        "value": 1
                    },
                    {
                        "number": 64,
                        "time": 117.59999999999994,
                        "value": 0
                    },
                    {
                        "number": 64,
                        "time": 117.71499999999993,
                        "value": 1
                    },
                    {
                        "number": 64,
                        "time": 118.19999999999993,
                        "value": 0
                    },
                    {
                        "number": 64,
                        "time": 118.29749999999993,
                        "value": 1
                    },
                    {
                        "number": 64,
                        "time": 118.79999999999993,
                        "value": 0
                    },
                    {
                        "number": 64,
                        "time": 118.93249999999992,
                        "value": 1
                    },
                    {
                        "number": 64,
                        "time": 119.41374999999992,
                        "value": 0
                    },
                    {
                        "number": 64,
                        "time": 119.56749999999992,
                        "value": 1
                    },
                    {
                        "number": 64,
                        "time": 119.99999999999993,
                        "value": 0
                    },
                    {
                        "number": 64,
                        "time": 120.11499999999992,
                        "value": 1
                    },
                    {
                        "number": 64,
                        "time": 120.67124999999993,
                        "value": 0
                    },
                    {
                        "number": 64,
                        "time": 121.19999999999993,
                        "value": 1
                    },
                    {
                        "number": 64,
                        "time": 121.80624999999993,
                        "value": 0
                    },
                    {
                        "number": 64,
                        "time": 121.90624999999993,
                        "value": 1
                    },
                    {
                        "number": 64,
                        "time": 122.40374999999993,
                        "value": 0
                    },
                    {
                        "number": 64,
                        "time": 122.53249999999993,
                        "value": 1
                    },
                    {
                        "number": 64,
                        "time": 123.00749999999992,
                        "value": 0
                    },
                    {
                        "number": 64,
                        "time": 123.06999999999992,
                        "value": 1
                    },
                    {
                        "number": 64,
                        "time": 123.59999999999992,
                        "value": 0
                    },
                    {
                        "number": 64,
                        "time": 123.74999999999993,
                        "value": 1
                    },
                    {
                        "number": 64,
                        "time": 124.21499999999993,
                        "value": 0
                    },
                    {
                        "number": 64,
                        "time": 124.33249999999994,
                        "value": 1
                    },
                    {
                        "number": 64,
                        "time": 124.80749999999993,
                        "value": 0
                    },
                    {
                        "number": 64,
                        "time": 124.87124999999993,
                        "value": 1
                    },
                    {
                        "number": 64,
                        "time": 125.40749999999993,
                        "value": 0
                    },
                    {
                        "number": 64,
                        "time": 125.43999999999993,
                        "value": 1
                    },
                    {
                        "number": 64,
                        "time": 126.01124999999993,
                        "value": 0
                    },
                    {
                        "number": 64,
                        "time": 126.08874999999993,
                        "value": 1
                    },
                    {
                        "number": 64,
                        "time": 126.60624999999993,
                        "value": 0
                    },
                    {
                        "number": 64,
                        "time": 126.70624999999993,
                        "value": 1
                    },
                    {
                        "number": 64,
                        "time": 127.20374999999993,
                        "value": 0
                    },
                    {
                        "number": 64,
                        "time": 127.33249999999992,
                        "value": 1
                    },
                    {
                        "number": 64,
                        "time": 127.80749999999992,
                        "value": 0
                    },
                    {
                        "number": 64,
                        "time": 127.86999999999992,
                        "value": 1
                    },
                    {
                        "number": 64,
                        "time": 128.39999999999992,
                        "value": 0
                    },
                    {
                        "number": 64,
                        "time": 128.54999999999993,
                        "value": 1
                    },
                    {
                        "number": 64,
                        "time": 129.01499999999993,
                        "value": 0
                    },
                    {
                        "number": 64,
                        "time": 129.13249999999994,
                        "value": 1
                    },
                    {
                        "number": 64,
                        "time": 129.60749999999993,
                        "value": 0
                    },
                    {
                        "number": 64,
                        "time": 129.67124999999993,
                        "value": 1
                    },
                    {
                        "number": 64,
                        "time": 130.20749999999992,
                        "value": 0
                    },
                    {
                        "number": 64,
                        "time": 130.23999999999992,
                        "value": 1
                    },
                    {
                        "number": 64,
                        "time": 130.85749999999993,
                        "value": 0
                    },
                    {
                        "number": 64,
                        "time": 130.95874999999992,
                        "value": 1
                    },
                    {
                        "number": 64,
                        "time": 131.4074999999999,
                        "value": 0
                    },
                    {
                        "number": 64,
                        "time": 131.54999999999993,
                        "value": 1
                    },
                    {
                        "number": 64,
                        "time": 132.00999999999993,
                        "value": 0
                    },
                    {
                        "number": 64,
                        "time": 132.07874999999993,
                        "value": 1
                    },
                    {
                        "number": 64,
                        "time": 132.61499999999992,
                        "value": 0
                    },
                    {
                        "number": 64,
                        "time": 132.68624999999992,
                        "value": 1
                    },
                    {
                        "number": 64,
                        "time": 133.20624999999993,
                        "value": 0
                    },
                    {
                        "number": 64,
                        "time": 133.30749999999992,
                        "value": 1
                    },
                    {
                        "number": 64,
                        "time": 134.4074999999999,
                        "value": 0
                    },
                    {
                        "number": 64,
                        "time": 134.52124999999992,
                        "value": 1
                    },
                    {
                        "number": 64,
                        "time": 135.60874999999993,
                        "value": 0
                    },
                    {
                        "number": 64,
                        "time": 135.76749999999993,
                        "value": 1
                    },
                    {
                        "number": 64,
                        "time": 136.21499999999992,
                        "value": 0
                    },
                    {
                        "number": 64,
                        "time": 136.30624999999992,
                        "value": 1
                    },
                    {
                        "number": 64,
                        "time": 136.80874999999992,
                        "value": 0
                    },
                    {
                        "number": 64,
                        "time": 136.9149999999999,
                        "value": 1
                    },
                    {
                        "number": 64,
                        "time": 137.4087499999999,
                        "value": 0
                    },
                    {
                        "number": 64,
                        "time": 137.48874999999992,
                        "value": 1
                    },
                    {
                        "number": 64,
                        "time": 137.99999999999991,
                        "value": 0
                    },
                    {
                        "number": 64,
                        "time": 138.0999999999999,
                        "value": 1
                    },
                    {
                        "number": 64,
                        "time": 140.4087499999999,
                        "value": 0
                    },
                    {
                        "number": 64,
                        "time": 140.5674999999999,
                        "value": 1
                    },
                    {
                        "number": 64,
                        "time": 141.0149999999999,
                        "value": 0
                    },
                    {
                        "number": 64,
                        "time": 141.1062499999999,
                        "value": 1
                    },
                    {
                        "number": 64,
                        "time": 141.6087499999999,
                        "value": 0
                    },
                    {
                        "number": 64,
                        "time": 141.7149999999999,
                        "value": 1
                    },
                    {
                        "number": 64,
                        "time": 142.2087499999999,
                        "value": 0
                    },
                    {
                        "number": 64,
                        "time": 142.2887499999999,
                        "value": 1
                    },
                    {
                        "number": 64,
                        "time": 142.7999999999999,
                        "value": 0
                    },
                    {
                        "number": 64,
                        "time": 142.8999999999999,
                        "value": 1
                    },
                    {
                        "number": 64,
                        "time": 145.1124999999999,
                        "value": 0
                    },
                    {
                        "number": 64,
                        "time": 145.3499999999999,
                        "value": 1
                    },
                    {
                        "number": 64,
                        "time": 145.80624999999992,
                        "value": 0
                    },
                    {
                        "number": 64,
                        "time": 145.90624999999991,
                        "value": 1
                    },
                    {
                        "number": 64,
                        "time": 146.40374999999992,
                        "value": 0
                    },
                    {
                        "number": 64,
                        "time": 146.5324999999999,
                        "value": 1
                    },
                    {
                        "number": 64,
                        "time": 147.0074999999999,
                        "value": 0
                    },
                    {
                        "number": 64,
                        "time": 147.0699999999999,
                        "value": 1
                    },
                    {
                        "number": 64,
                        "time": 147.5999999999999,
                        "value": 0
                    },
                    {
                        "number": 64,
                        "time": 147.74999999999991,
                        "value": 1
                    },
                    {
                        "number": 64,
                        "time": 148.21499999999992,
                        "value": 0
                    },
                    {
                        "number": 64,
                        "time": 148.33249999999992,
                        "value": 1
                    },
                    {
                        "number": 64,
                        "time": 148.80749999999992,
                        "value": 0
                    },
                    {
                        "number": 64,
                        "time": 148.87124999999992,
                        "value": 1
                    },
                    {
                        "number": 64,
                        "time": 149.4074999999999,
                        "value": 0
                    },
                    {
                        "number": 64,
                        "time": 149.4399999999999,
                        "value": 1
                    },
                    {
                        "number": 64,
                        "time": 149.99999999999991,
                        "value": 0
                    },
                    {
                        "number": 64,
                        "time": 150.14124999999993,
                        "value": 1
                    },
                    {
                        "number": 64,
                        "time": 150.61499999999992,
                        "value": 0
                    },
                    {
                        "number": 64,
                        "time": 150.73249999999993,
                        "value": 1
                    },
                    {
                        "number": 64,
                        "time": 151.19999999999993,
                        "value": 0
                    },
                    {
                        "number": 64,
                        "time": 151.26624999999993,
                        "value": 1
                    },
                    {
                        "number": 64,
                        "time": 151.80749999999992,
                        "value": 0
                    },
                    {
                        "number": 64,
                        "time": 151.86624999999992,
                        "value": 1
                    },
                    {
                        "number": 64,
                        "time": 152.39999999999992,
                        "value": 0
                    },
                    {
                        "number": 64,
                        "time": 152.52374999999992,
                        "value": 1
                    },
                    {
                        "number": 64,
                        "time": 153.00999999999993,
                        "value": 0
                    },
                    {
                        "number": 64,
                        "time": 153.08874999999995,
                        "value": 1
                    },
                    {
                        "number": 64,
                        "time": 153.60624999999996,
                        "value": 0
                    },
                    {
                        "number": 64,
                        "time": 153.67499999999995,
                        "value": 1
                    },
                    {
                        "number": 64,
                        "time": 154.20749999999995,
                        "value": 0
                    },
                    {
                        "number": 64,
                        "time": 154.25749999999996,
                        "value": 1
                    },
                    {
                        "number": 64,
                        "time": 154.79999999999995,
                        "value": 0
                    },
                    {
                        "number": 64,
                        "time": 154.90624999999994,
                        "value": 1
                    },
                    {
                        "number": 64,
                        "time": 155.42624999999995,
                        "value": 0
                    },
                    {
                        "number": 64,
                        "time": 155.52374999999995,
                        "value": 1
                    },
                    {
                        "number": 64,
                        "time": 155.99999999999994,
                        "value": 0
                    },
                    {
                        "number": 64,
                        "time": 156.10624999999993,
                        "value": 1
                    },
                    {
                        "number": 64,
                        "time": 156.62624999999994,
                        "value": 0
                    },
                    {
                        "number": 64,
                        "time": 156.72374999999994,
                        "value": 1
                    },
                    {
                        "number": 64,
                        "time": 157.19999999999993,
                        "value": 0
                    },
                    {
                        "number": 64,
                        "time": 157.30624999999992,
                        "value": 1
                    },
                    {
                        "number": 64,
                        "time": 157.82624999999993,
                        "value": 0
                    },
                    {
                        "number": 64,
                        "time": 157.92374999999993,
                        "value": 1
                    },
                    {
                        "number": 64,
                        "time": 158.39999999999992,
                        "value": 0
                    },
                    {
                        "number": 64,
                        "time": 158.5062499999999,
                        "value": 1
                    },
                    {
                        "number": 64,
                        "time": 159.02624999999992,
                        "value": 0
                    },
                    {
                        "number": 64,
                        "time": 159.12374999999992,
                        "value": 1
                    },
                    {
                        "number": 64,
                        "time": 159.5999999999999,
                        "value": 0
                    },
                    {
                        "number": 64,
                        "time": 159.7062499999999,
                        "value": 1
                    },
                    {
                        "number": 64,
                        "time": 160.2262499999999,
                        "value": 0
                    },
                    {
                        "number": 64,
                        "time": 160.3237499999999,
                        "value": 1
                    },
                    {
                        "number": 64,
                        "time": 160.7999999999999,
                        "value": 0
                    },
                    {
                        "number": 64,
                        "time": 160.9062499999999,
                        "value": 1
                    },
                    {
                        "number": 64,
                        "time": 161.4262499999999,
                        "value": 0
                    },
                    {
                        "number": 64,
                        "time": 161.5237499999999,
                        "value": 1
                    },
                    {
                        "number": 64,
                        "time": 162.00499999999988,
                        "value": 0
                    },
                    {
                        "number": 64,
                        "time": 162.0887499999999,
                        "value": 1
                    },
                    {
                        "number": 64,
                        "time": 162.6149999999999,
                        "value": 0
                    },
                    {
                        "number": 64,
                        "time": 162.7062499999999,
                        "value": 1
                    },
                    {
                        "number": 64,
                        "time": 163.0812499999999,
                        "value": 0
                    },
                    {
                        "number": 64,
                        "time": 163.25124999999989,
                        "value": 1
                    },
                    {
                        "number": 64,
                        "time": 163.7424999999999,
                        "value": 0
                    },
                    {
                        "number": 64,
                        "time": 164.4537499999999,
                        "value": 1
                    },
                    {
                        "number": 64,
                        "time": 164.7149999999999,
                        "value": 0
                    },
                    {
                        "number": 64,
                        "time": 165.0537499999999,
                        "value": 1
                    },
                    {
                        "number": 64,
                        "time": 165.3124999999999,
                        "value": 0
                    },
                    {
                        "number": 64,
                        "time": 165.62624999999989,
                        "value": 1
                    },
                    {
                        "number": 64,
                        "time": 165.9049999999999,
                        "value": 0
                    },
                    {
                        "number": 64,
                        "time": 166.22624999999988,
                        "value": 1
                    },
                    {
                        "number": 64,
                        "time": 166.51249999999987,
                        "value": 0
                    },
                    {
                        "number": 64,
                        "time": 166.81874999999988,
                        "value": 1
                    },
                    {
                        "number": 64,
                        "time": 167.1199999999999,
                        "value": 0
                    },
                    {
                        "number": 64,
                        "time": 167.43999999999988,
                        "value": 1
                    },
                    {
                        "number": 64,
                        "time": 167.7099999999999,
                        "value": 0
                    },
                    {
                        "number": 64,
                        "time": 168.0149999999999,
                        "value": 1
                    },
                    {
                        "number": 64,
                        "time": 168.3174999999999,
                        "value": 0
                    },
                    {
                        "number": 64,
                        "time": 169.1999999999999,
                        "value": 1
                    },
                    {
                        "number": 64,
                        "time": 169.5149999999999,
                        "value": 0
                    },
                    {
                        "number": 64,
                        "time": 169.8537499999999,
                        "value": 1
                    },
                    {
                        "number": 64,
                        "time": 170.1124999999999,
                        "value": 0
                    },
                    {
                        "number": 64,
                        "time": 170.4262499999999,
                        "value": 1
                    },
                    {
                        "number": 64,
                        "time": 170.7049999999999,
                        "value": 0
                    },
                    {
                        "number": 64,
                        "time": 171.0262499999999,
                        "value": 1
                    },
                    {
                        "number": 64,
                        "time": 171.3124999999999,
                        "value": 0
                    },
                    {
                        "number": 64,
                        "time": 171.6187499999999,
                        "value": 1
                    },
                    {
                        "number": 64,
                        "time": 171.9199999999999,
                        "value": 0
                    },
                    {
                        "number": 64,
                        "time": 172.2399999999999,
                        "value": 1
                    },
                    {
                        "number": 64,
                        "time": 172.5099999999999,
                        "value": 0
                    },
                    {
                        "number": 64,
                        "time": 172.8149999999999,
                        "value": 1
                    },
                    {
                        "number": 64,
                        "time": 173.11749999999992,
                        "value": 0
                    },
                    {
                        "number": 64,
                        "time": 173.42124999999993,
                        "value": 1
                    },
                    {
                        "number": 64,
                        "time": 173.70999999999992,
                        "value": 0
                    },
                    {
                        "number": 64,
                        "time": 174.01874999999993,
                        "value": 1
                    },
                    {
                        "number": 64,
                        "time": 174.31999999999994,
                        "value": 0
                    },
                    {
                        "number": 64,
                        "time": 174.63999999999993,
                        "value": 1
                    },
                    {
                        "number": 64,
                        "time": 174.90999999999994,
                        "value": 0
                    },
                    {
                        "number": 64,
                        "time": 175.21874999999994,
                        "value": 1
                    },
                    {
                        "number": 64,
                        "time": 175.51999999999995,
                        "value": 0
                    },
                    {
                        "number": 64,
                        "time": 176.39999999999995,
                        "value": 1
                    },
                    {
                        "number": 64,
                        "time": 176.71874999999994,
                        "value": 0
                    },
                    {
                        "number": 64,
                        "time": 177.08874999999995,
                        "value": 1
                    },
                    {
                        "number": 64,
                        "time": 177.32624999999996,
                        "value": 0
                    },
                    {
                        "number": 64,
                        "time": 177.66624999999996,
                        "value": 1
                    },
                    {
                        "number": 64,
                        "time": 177.93124999999995,
                        "value": 0
                    },
                    {
                        "number": 64,
                        "time": 178.28874999999994,
                        "value": 1
                    },
                    {
                        "number": 64,
                        "time": 178.51249999999993,
                        "value": 0
                    },
                    {
                        "number": 64,
                        "time": 178.81874999999994,
                        "value": 1
                    },
                    {
                        "number": 64,
                        "time": 179.10499999999993,
                        "value": 0
                    },
                    {
                        "number": 64,
                        "time": 179.43999999999994,
                        "value": 1
                    },
                    {
                        "number": 64,
                        "time": 179.71124999999995,
                        "value": 0
                    },
                    {
                        "number": 64,
                        "time": 180.06499999999994,
                        "value": 1
                    },
                    {
                        "number": 64,
                        "time": 180.31749999999994,
                        "value": 0
                    },
                    {
                        "number": 64,
                        "time": 181.19999999999993,
                        "value": 1
                    },
                    {
                        "number": 64,
                        "time": 181.51374999999993,
                        "value": 0
                    },
                    {
                        "number": 64,
                        "time": 181.85374999999993,
                        "value": 1
                    },
                    {
                        "number": 64,
                        "time": 182.10624999999993,
                        "value": 0
                    },
                    {
                        "number": 64,
                        "time": 182.44499999999994,
                        "value": 1
                    },
                    {
                        "number": 64,
                        "time": 182.70499999999993,
                        "value": 0
                    },
                    {
                        "number": 64,
                        "time": 183.02624999999992,
                        "value": 1
                    },
                    {
                        "number": 64,
                        "time": 183.31249999999991,
                        "value": 0
                    },
                    {
                        "number": 64,
                        "time": 183.61874999999992,
                        "value": 1
                    },
                    {
                        "number": 64,
                        "time": 183.91999999999993,
                        "value": 0
                    },
                    {
                        "number": 64,
                        "time": 184.23999999999992,
                        "value": 1
                    },
                    {
                        "number": 64,
                        "time": 184.50999999999993,
                        "value": 0
                    },
                    {
                        "number": 64,
                        "time": 184.81499999999994,
                        "value": 1
                    },
                    {
                        "number": 64,
                        "time": 185.11749999999995,
                        "value": 0
                    },
                    {
                        "number": 64,
                        "time": 185.42124999999996,
                        "value": 1
                    },
                    {
                        "number": 64,
                        "time": 185.70999999999995,
                        "value": 0
                    },
                    {
                        "number": 64,
                        "time": 186.01874999999995,
                        "value": 1
                    },
                    {
                        "number": 64,
                        "time": 186.31999999999996,
                        "value": 0
                    },
                    {
                        "number": 64,
                        "time": 186.63999999999996,
                        "value": 1
                    },
                    {
                        "number": 64,
                        "time": 186.90999999999997,
                        "value": 0
                    },
                    {
                        "number": 64,
                        "time": 187.21874999999997,
                        "value": 1
                    },
                    {
                        "number": 64,
                        "time": 187.51999999999998,
                        "value": 0
                    },
                    {
                        "number": 64,
                        "time": 187.87874999999997,
                        "value": 1
                    },
                    {
                        "number": 64,
                        "time": 188.10999999999996,
                        "value": 0
                    },
                    {
                        "number": 64,
                        "time": 188.41874999999996,
                        "value": 1
                    },
                    {
                        "number": 64,
                        "time": 188.71249999999995,
                        "value": 0
                    },
                    {
                        "number": 64,
                        "time": 189.08624999999995,
                        "value": 1
                    },
                    {
                        "number": 64,
                        "time": 189.31249999999994,
                        "value": 0
                    },
                    {
                        "number": 64,
                        "time": 189.64374999999995,
                        "value": 1
                    },
                    {
                        "number": 64,
                        "time": 189.91999999999996,
                        "value": 0
                    },
                    {
                        "number": 64,
                        "time": 190.79999999999995,
                        "value": 1
                    },
                    {
                        "number": 64,
                        "time": 191.11499999999995,
                        "value": 0
                    },
                    {
                        "number": 64,
                        "time": 191.45374999999996,
                        "value": 1
                    },
                    {
                        "number": 64,
                        "time": 191.71249999999995,
                        "value": 0
                    },
                    {
                        "number": 64,
                        "time": 192.02624999999995,
                        "value": 1
                    },
                    {
                        "number": 64,
                        "time": 192.30499999999995,
                        "value": 0
                    },
                    {
                        "number": 64,
                        "time": 192.62624999999994,
                        "value": 1
                    },
                    {
                        "number": 64,
                        "time": 192.91249999999994,
                        "value": 0
                    },
                    {
                        "number": 64,
                        "time": 193.21874999999994,
                        "value": 1
                    },
                    {
                        "number": 64,
                        "time": 193.51999999999995,
                        "value": 0
                    },
                    {
                        "number": 64,
                        "time": 193.83999999999995,
                        "value": 1
                    },
                    {
                        "number": 64,
                        "time": 194.10999999999996,
                        "value": 0
                    },
                    {
                        "number": 64,
                        "time": 194.41874999999996,
                        "value": 1
                    },
                    {
                        "number": 64,
                        "time": 194.71999999999997,
                        "value": 0
                    },
                    {
                        "number": 64,
                        "time": 195.03999999999996,
                        "value": 1
                    },
                    {
                        "number": 64,
                        "time": 195.30999999999997,
                        "value": 0
                    },
                    {
                        "number": 64,
                        "time": 195.61874999999998,
                        "value": 1
                    },
                    {
                        "number": 64,
                        "time": 196.20499999999998,
                        "value": 0
                    },
                    {
                        "number": 64,
                        "time": 196.28375,
                        "value": 1
                    },
                    {
                        "number": 64,
                        "time": 196.51,
                        "value": 0
                    },
                    {
                        "number": 64,
                        "time": 196.81875,
                        "value": 1
                    },
                    {
                        "number": 64,
                        "time": 197.11249999999998,
                        "value": 0
                    },
                    {
                        "number": 64,
                        "time": 197.48375,
                        "value": 1
                    },
                    {
                        "number": 64,
                        "time": 197.70999999999998,
                        "value": 0
                    },
                    {
                        "number": 64,
                        "time": 199.22875,
                        "value": 1
                    },
                    {
                        "number": 64,
                        "time": 199.51,
                        "value": 0
                    },
                    {
                        "number": 64,
                        "time": 199.88375,
                        "value": 1
                    },
                    {
                        "number": 64,
                        "time": 200.10999999999999,
                        "value": 0
                    },
                    {
                        "number": 64,
                        "time": 200.52499999999998,
                        "value": 1
                    },
                    {
                        "number": 64,
                        "time": 201.0125,
                        "value": 0
                    },
                    {
                        "number": 64,
                        "time": 201.155,
                        "value": 1
                    },
                    {
                        "number": 64,
                        "time": 201.3125,
                        "value": 0
                    },
                    {
                        "number": 64,
                        "time": 201.665,
                        "value": 1
                    },
                    {
                        "number": 64,
                        "time": 201.90375,
                        "value": 0
                    },
                    {
                        "number": 64,
                        "time": 202.26500000000001,
                        "value": 1
                    },
                    {
                        "number": 64,
                        "time": 202.50375000000003,
                        "value": 0
                    },
                    {
                        "number": 64,
                        "time": 202.86500000000004,
                        "value": 1
                    },
                    {
                        "number": 64,
                        "time": 203.10375000000005,
                        "value": 0
                    },
                    {
                        "number": 64,
                        "time": 203.46500000000006,
                        "value": 1
                    },
                    {
                        "number": 64,
                        "time": 203.70375000000007,
                        "value": 0
                    },
                    {
                        "number": 64,
                        "time": 204.02500000000006,
                        "value": 1
                    },
                    {
                        "number": 64,
                        "time": 204.30875000000006,
                        "value": 0
                    },
                    {
                        "number": 64,
                        "time": 204.61125000000007,
                        "value": 1
                    },
                    {
                        "number": 64,
                        "time": 206.26125000000008,
                        "value": 0
                    },
                    {
                        "number": 64,
                        "time": 206.4650000000001,
                        "value": 1
                    },
                    {
                        "number": 64,
                        "time": 206.7037500000001,
                        "value": 0
                    },
                    {
                        "number": 64,
                        "time": 207.0650000000001,
                        "value": 1
                    },
                    {
                        "number": 64,
                        "time": 207.30375000000012,
                        "value": 0
                    },
                    {
                        "number": 64,
                        "time": 207.66500000000013,
                        "value": 1
                    },
                    {
                        "number": 64,
                        "time": 207.90375000000014,
                        "value": 0
                    },
                    {
                        "number": 64,
                        "time": 208.26500000000016,
                        "value": 1
                    },
                    {
                        "number": 64,
                        "time": 208.50375000000017,
                        "value": 0
                    },
                    {
                        "number": 64,
                        "time": 208.86500000000018,
                        "value": 1
                    },
                    {
                        "number": 64,
                        "time": 209.1037500000002,
                        "value": 0
                    },
                    {
                        "number": 64,
                        "time": 209.4650000000002,
                        "value": 1
                    },
                    {
                        "number": 64,
                        "time": 209.7037500000002,
                        "value": 0
                    },
                    {
                        "number": 64,
                        "time": 210.06500000000023,
                        "value": 1
                    },
                    {
                        "number": 64,
                        "time": 210.30375000000024,
                        "value": 0
                    },
                    {
                        "number": 64,
                        "time": 210.66500000000025,
                        "value": 1
                    },
                    {
                        "number": 64,
                        "time": 210.90375000000026,
                        "value": 0
                    },
                    {
                        "number": 64,
                        "time": 211.26500000000027,
                        "value": 1
                    },
                    {
                        "number": 64,
                        "time": 211.50375000000028,
                        "value": 0
                    },
                    {
                        "number": 64,
                        "time": 211.8650000000003,
                        "value": 1
                    },
                    {
                        "number": 64,
                        "time": 212.1037500000003,
                        "value": 0
                    },
                    {
                        "number": 64,
                        "time": 212.46500000000032,
                        "value": 1
                    },
                    {
                        "number": 64,
                        "time": 212.70375000000033,
                        "value": 0
                    },
                    {
                        "number": 64,
                        "time": 213.06500000000034,
                        "value": 1
                    },
                    {
                        "number": 64,
                        "time": 213.30375000000035,
                        "value": 0
                    },
                    {
                        "number": 64,
                        "time": 213.66500000000036,
                        "value": 1
                    },
                    {
                        "number": 64,
                        "time": 213.90375000000037,
                        "value": 0
                    },
                    {
                        "number": 64,
                        "time": 214.26500000000038,
                        "value": 1
                    },
                    {
                        "number": 64,
                        "time": 214.5037500000004,
                        "value": 0
                    },
                    {
                        "number": 64,
                        "time": 214.8650000000004,
                        "value": 1
                    },
                    {
                        "number": 64,
                        "time": 215.10375000000042,
                        "value": 0
                    },
                    {
                        "number": 64,
                        "time": 215.46500000000043,
                        "value": 1
                    },
                    {
                        "number": 64,
                        "time": 215.70375000000044,
                        "value": 0
                    },
                    {
                        "number": 64,
                        "time": 216.06500000000045,
                        "value": 1
                    },
                    {
                        "number": 64,
                        "time": 216.30375000000046,
                        "value": 0
                    },
                    {
                        "number": 64,
                        "time": 216.66500000000048,
                        "value": 1
                    },
                    {
                        "number": 64,
                        "time": 216.90375000000049,
                        "value": 0
                    },
                    {
                        "number": 64,
                        "time": 217.2650000000005,
                        "value": 1
                    },
                    {
                        "number": 64,
                        "time": 217.5037500000005,
                        "value": 0
                    },
                    {
                        "number": 64,
                        "time": 217.86500000000052,
                        "value": 1
                    },
                    {
                        "number": 64,
                        "time": 218.10375000000053,
                        "value": 0
                    },
                    {
                        "number": 64,
                        "time": 218.46500000000054,
                        "value": 1
                    },
                    {
                        "number": 64,
                        "time": 218.70375000000055,
                        "value": 0
                    },
                    {
                        "number": 64,
                        "time": 219.06500000000057,
                        "value": 1
                    },
                    {
                        "number": 64,
                        "time": 219.30375000000058,
                        "value": 0
                    },
                    {
                        "number": 64,
                        "time": 219.6650000000006,
                        "value": 1
                    },
                    {
                        "number": 64,
                        "time": 219.9037500000006,
                        "value": 0
                    },
                    {
                        "number": 64,
                        "time": 220.2650000000006,
                        "value": 1
                    },
                    {
                        "number": 64,
                        "time": 220.50375000000062,
                        "value": 0
                    },
                    {
                        "number": 64,
                        "time": 220.86500000000063,
                        "value": 1
                    },
                    {
                        "number": 64,
                        "time": 221.10375000000064,
                        "value": 0
                    },
                    {
                        "number": 64,
                        "time": 221.46500000000066,
                        "value": 1
                    },
                    {
                        "number": 64,
                        "time": 221.70375000000067,
                        "value": 0
                    },
                    {
                        "number": 64,
                        "time": 222.03500000000068,
                        "value": 1
                    },
                    {
                        "number": 64,
                        "time": 222.31625000000068,
                        "value": 0
                    },
                    {
                        "number": 64,
                        "time": 222.62625000000068,
                        "value": 1
                    },
                    {
                        "number": 64,
                        "time": 222.91250000000068,
                        "value": 0
                    },
                    {
                        "number": 64,
                        "time": 223.26250000000067,
                        "value": 1
                    },
                    {
                        "number": 64,
                        "time": 223.51500000000067,
                        "value": 0
                    },
                    {
                        "number": 64,
                        "time": 223.87500000000068,
                        "value": 1
                    },
                    {
                        "number": 64,
                        "time": 224.1125000000007,
                        "value": 0
                    },
                    {
                        "number": 64,
                        "time": 224.4537500000007,
                        "value": 1
                    },
                    {
                        "number": 64,
                        "time": 224.71500000000069,
                        "value": 0
                    },
                    {
                        "number": 64,
                        "time": 225.0487500000007,
                        "value": 1
                    },
                    {
                        "number": 64,
                        "time": 225.3150000000007,
                        "value": 0
                    },
                    {
                        "number": 64,
                        "time": 225.3712500000007,
                        "value": 1
                    },
                    {
                        "number": 64,
                        "time": 225.6050000000007,
                        "value": 0
                    },
                    {
                        "number": 64,
                        "time": 225.7312500000007,
                        "value": 1
                    },
                    {
                        "number": 64,
                        "time": 230.40250000000069,
                        "value": 0
                    },
                    {
                        "number": 64,
                        "time": 230.68625000000068,
                        "value": 1
                    },
                    {
                        "number": 64,
                        "time": 235.20000000000067,
                        "value": 0
                    },
                    {
                        "number": 64,
                        "time": 240.00250000000068,
                        "value": 0
                    },
                    {
                        "number": 64,
                        "time": 240.28625000000068,
                        "value": 1
                    },
                    {
                        "number": 64,
                        "time": 244.80000000000067,
                        "value": 0
                    },
                    {
                        "number": 64,
                        "time": 245.10000000000068,
                        "value": 1
                    },
                    {
                        "number": 64,
                        "time": 253.20000000000067,
                        "value": 0
                    }
                ]
            },
            "id": 3,
            "name": "Pedale",
            "instrumentNumber": 0,
            "instrument": "acoustic grand piano",
            "instrumentFamily": "piano",
            "channelNumber": 0,
            "isPercussion": false
        },
        {
            "startTime": 0,
            "duration": 0,
            "length": 0,
            "notes": [],
            "controlChanges": {},
            "id": 4,
            "name": "Schumann: Kreisleriana 3"
        },
        {
            "startTime": 0,
            "duration": 0,
            "length": 0,
            "notes": [],
            "controlChanges": {},
            "id": 5,
            "name": "Copyright  2007 by Bernd Krueger"
        },
        {
            "startTime": 0,
            "duration": 0,
            "length": 0,
            "notes": [],
            "controlChanges": {},
            "id": 6,
            "name": "http://www.piano-midi.de/"
        },
        {
            "startTime": 0,
            "duration": 0,
            "length": 0,
            "notes": [],
            "controlChanges": {},
            "id": 7,
            "name": "Edition: 2014-03-27"
        },
        {
            "startTime": 0,
            "duration": 0,
            "length": 0,
            "notes": [],
            "controlChanges": {},
            "id": 8,
            "name": "Spur 8"
        },
        {
            "startTime": 0,
            "duration": 0,
            "length": 0,
            "notes": [],
            "controlChanges": {},
            "id": 9,
            "name": "Spur 9"
        },
        {
            "startTime": 0,
            "duration": 0,
            "length": 0,
            "notes": [],
            "controlChanges": {},
            "id": 10,
            "name": "Spur 10"
        },
        {
            "startTime": 0,
            "duration": 0,
            "length": 0,
            "notes": [],
            "controlChanges": {},
            "id": 11,
            "name": "Spur 11"
        },
        {
            "startTime": 0,
            "duration": 0,
            "length": 0,
            "notes": [],
            "controlChanges": {},
            "id": 12,
            "name": "Spur 12"
        },
        {
            "startTime": 0,
            "duration": 0,
            "length": 0,
            "notes": [],
            "controlChanges": {},
            "id": 13,
            "name": "Spur 13"
        },
        {
            "startTime": 0,
            "duration": 0,
            "length": 0,
            "notes": [],
            "controlChanges": {},
            "id": 14,
            "name": "Spur 14"
        },
        {
            "startTime": 0,
            "duration": 0,
            "length": 0,
            "notes": [],
            "controlChanges": {},
            "id": 15,
            "name": "Spur 15"
        },
        {
            "startTime": 0,
            "duration": 0,
            "length": 0,
            "notes": [],
            "controlChanges": {},
            "id": 16,
            "name": "Spur 16"
        }
    ]
}