{
    "header": {
        "PPQ": 480,
        "timeSignature": [
            3,
            4
        ],
        "bpm": 97.57001868465858,
        "name": "Fantasien"
    },
    "startTime": 0,
    "duration": 368.0433855000089,
    "tracks": [
        {
            "startTime": 0,
            "duration": 0,
            "length": 0,
            "notes": [],
            "controlChanges": {},
            "id": 0,
            "name": "Fantasien"
        },
        {
            "startTime": 1.229886,
            "duration": 368.0433855000089,
            "length": 2032,
            "notes": [
                {
                    "name": "A#3",
                    "midi": 58,
                    "time": 1.229886,
                    "velocity": 0.1968503937007874,
                    "duration": 0.3074715000000001
                },
                {
                    "name": "A#4",
                    "midi": 70,
                    "time": 1.229886,
                    "velocity": 0.33858267716535434,
                    "duration": 0.3074715000000001
                },
                {
                    "name": "C5",
                    "midi": 72,
                    "time": 1.5373575000000002,
                    "velocity": 0.33858267716535434,
                    "duration": 0.3074715000000001
                },
                {
                    "name": "C4",
                    "midi": 60,
                    "time": 1.5373575000000002,
                    "velocity": 0.1968503937007874,
                    "duration": 0.3074715000000001
                },
                {
                    "name": "D4",
                    "midi": 62,
                    "time": 1.8448290000000003,
                    "velocity": 0.2047244094488189,
                    "duration": 0.3074715000000001
                },
                {
                    "name": "D5",
                    "midi": 74,
                    "time": 1.8448290000000003,
                    "velocity": 0.3464566929133858,
                    "duration": 0.3074715000000001
                },
                {
                    "name": "F4",
                    "midi": 65,
                    "time": 2.1523005000000004,
                    "velocity": 0.2204724409448819,
                    "duration": 0.3074715000000001
                },
                {
                    "name": "F5",
                    "midi": 77,
                    "time": 2.1523005000000004,
                    "velocity": 0.41732283464566927,
                    "duration": 0.3074715000000001
                },
                {
                    "name": "G5",
                    "midi": 79,
                    "time": 2.4597720000000005,
                    "velocity": 0.47244094488188976,
                    "duration": 0.3074715000000001
                },
                {
                    "name": "G4",
                    "midi": 67,
                    "time": 2.4597720000000005,
                    "velocity": 0.23622047244094488,
                    "duration": 0.3074715000000001
                },
                {
                    "name": "F5",
                    "midi": 77,
                    "time": 2.7672435000000006,
                    "velocity": 0.33070866141732286,
                    "duration": 0.3074715000000001
                },
                {
                    "name": "F4",
                    "midi": 65,
                    "time": 2.7672435000000006,
                    "velocity": 0.1889763779527559,
                    "duration": 0.3074715000000001
                },
                {
                    "name": "D5",
                    "midi": 74,
                    "time": 3.0747150000000008,
                    "velocity": 0.3464566929133858,
                    "duration": 0.3074715000000001
                },
                {
                    "name": "D4",
                    "midi": 62,
                    "time": 3.0747150000000008,
                    "velocity": 0.2047244094488189,
                    "duration": 0.3074715000000001
                },
                {
                    "name": "A#4",
                    "midi": 70,
                    "time": 3.382186500000001,
                    "velocity": 0.30708661417322836,
                    "duration": 0.3074715000000001
                },
                {
                    "name": "A#3",
                    "midi": 58,
                    "time": 3.382186500000001,
                    "velocity": 0.18110236220472442,
                    "duration": 0.3074715000000001
                },
                {
                    "name": "C4",
                    "midi": 60,
                    "time": 3.689658000000001,
                    "velocity": 0.2125984251968504,
                    "duration": 1.229886
                },
                {
                    "name": "F4",
                    "midi": 65,
                    "time": 3.689658000000001,
                    "velocity": 0.2992125984251969,
                    "duration": 1.229886
                },
                {
                    "name": "A3",
                    "midi": 57,
                    "time": 3.689658000000001,
                    "velocity": 0.2125984251968504,
                    "duration": 1.229886
                },
                {
                    "name": "A#3",
                    "midi": 58,
                    "time": 4.919544000000001,
                    "velocity": 0.23622047244094488,
                    "duration": 0.3074715000000001
                },
                {
                    "name": "A#4",
                    "midi": 70,
                    "time": 4.919544000000001,
                    "velocity": 0.33858267716535434,
                    "duration": 0.3074715000000001
                },
                {
                    "name": "C5",
                    "midi": 72,
                    "time": 5.227015500000001,
                    "velocity": 0.33858267716535434,
                    "duration": 0.3074715000000001
                },
                {
                    "name": "C4",
                    "midi": 60,
                    "time": 5.227015500000001,
                    "velocity": 0.23622047244094488,
                    "duration": 0.3074715000000001
                },
                {
                    "name": "D5",
                    "midi": 74,
                    "time": 5.534487000000001,
                    "velocity": 0.3464566929133858,
                    "duration": 0.3074715000000001
                },
                {
                    "name": "D4",
                    "midi": 62,
                    "time": 5.534487000000001,
                    "velocity": 0.2440944881889764,
                    "duration": 0.3074715000000001
                },
                {
                    "name": "F4",
                    "midi": 65,
                    "time": 5.841958500000001,
                    "velocity": 0.2677165354330709,
                    "duration": 0.3074715000000001
                },
                {
                    "name": "F5",
                    "midi": 77,
                    "time": 5.841958500000001,
                    "velocity": 0.41732283464566927,
                    "duration": 0.3074715000000001
                },
                {
                    "name": "G4",
                    "midi": 67,
                    "time": 6.1494300000000015,
                    "velocity": 0.28346456692913385,
                    "duration": 0.3074715000000001
                },
                {
                    "name": "G5",
                    "midi": 79,
                    "time": 6.1494300000000015,
                    "velocity": 0.4566929133858268,
                    "duration": 0.3074715000000001
                },
                {
                    "name": "F5",
                    "midi": 77,
                    "time": 6.456901500000002,
                    "velocity": 0.33070866141732286,
                    "duration": 0.3074715000000001
                },
                {
                    "name": "F4",
                    "midi": 65,
                    "time": 6.456901500000002,
                    "velocity": 0.2283464566929134,
                    "duration": 0.3074715000000001
                },
                {
                    "name": "D4",
                    "midi": 62,
                    "time": 6.764373000000002,
                    "velocity": 0.2440944881889764,
                    "duration": 0.3074715000000001
                },
                {
                    "name": "D5",
                    "midi": 74,
                    "time": 6.764373000000002,
                    "velocity": 0.3464566929133858,
                    "duration": 0.3074715000000001
                },
                {
                    "name": "A#3",
                    "midi": 58,
                    "time": 7.071844500000002,
                    "velocity": 0.2204724409448819,
                    "duration": 0.3074715000000001
                },
                {
                    "name": "A#4",
                    "midi": 70,
                    "time": 7.071844500000002,
                    "velocity": 0.30708661417322836,
                    "duration": 0.3074715000000001
                },
                {
                    "name": "C4",
                    "midi": 60,
                    "time": 7.379316000000002,
                    "velocity": 0.2125984251968504,
                    "duration": 1.2298859999999996
                },
                {
                    "name": "A3",
                    "midi": 57,
                    "time": 7.379316000000002,
                    "velocity": 0.2125984251968504,
                    "duration": 1.2298859999999996
                },
                {
                    "name": "F4",
                    "midi": 65,
                    "time": 7.379316000000002,
                    "velocity": 0.2992125984251969,
                    "duration": 1.2298859999999996
                },
                {
                    "name": "A#3",
                    "midi": 58,
                    "time": 8.609202000000002,
                    "velocity": 0.23622047244094488,
                    "duration": 0.3074715000000001
                },
                {
                    "name": "A#4",
                    "midi": 70,
                    "time": 8.609202000000002,
                    "velocity": 0.33858267716535434,
                    "duration": 0.3074715000000001
                },
                {
                    "name": "C5",
                    "midi": 72,
                    "time": 8.916673500000002,
                    "velocity": 0.33858267716535434,
                    "duration": 0.3074715000000001
                },
                {
                    "name": "C4",
                    "midi": 60,
                    "time": 8.916673500000002,
                    "velocity": 0.23622047244094488,
                    "duration": 0.3074715000000001
                },
                {
                    "name": "D4",
                    "midi": 62,
                    "time": 9.224145000000002,
                    "velocity": 0.31496062992125984,
                    "duration": 0.3074715000000001
                },
                {
                    "name": "D5",
                    "midi": 74,
                    "time": 9.224145000000002,
                    "velocity": 0.3464566929133858,
                    "duration": 1.6910932499999998
                },
                {
                    "name": "F4",
                    "midi": 65,
                    "time": 9.531616500000002,
                    "velocity": 0.3779527559055118,
                    "duration": 0.3074715000000001
                },
                {
                    "name": "G4",
                    "midi": 67,
                    "time": 9.839088000000002,
                    "velocity": 0.4330708661417323,
                    "duration": 0.3074715000000001
                },
                {
                    "name": "F4",
                    "midi": 65,
                    "time": 10.146559500000002,
                    "velocity": 0.3700787401574803,
                    "duration": 0.3074715000000001
                },
                {
                    "name": "D4",
                    "midi": 62,
                    "time": 10.454031000000002,
                    "velocity": 0.3937007874015748,
                    "duration": 0.3074715000000001
                },
                {
                    "name": "A#3",
                    "midi": 58,
                    "time": 10.761502500000002,
                    "velocity": 0.31496062992125984,
                    "duration": 0.30747149999999834
                },
                {
                    "name": "A#4",
                    "midi": 70,
                    "time": 10.915238250000002,
                    "velocity": 0.41732283464566927,
                    "duration": 0.15373574999999917
                },
                {
                    "name": "F5",
                    "midi": 77,
                    "time": 11.068974,
                    "velocity": 0.4566929133858268,
                    "duration": 1.0761502499999995
                },
                {
                    "name": "F4",
                    "midi": 65,
                    "time": 11.068974,
                    "velocity": 0.2755905511811024,
                    "duration": 0.3074715000000001
                },
                {
                    "name": "A4",
                    "midi": 69,
                    "time": 11.3764455,
                    "velocity": 0.3228346456692913,
                    "duration": 0.3074715000000001
                },
                {
                    "name": "A#4",
                    "midi": 70,
                    "time": 11.683917000000001,
                    "velocity": 0.33070866141732286,
                    "duration": 0.3074715000000001
                },
                {
                    "name": "A4",
                    "midi": 69,
                    "time": 11.991388500000001,
                    "velocity": 0.2677165354330709,
                    "duration": 0.30747149999999834
                },
                {
                    "name": "E5",
                    "midi": 76,
                    "time": 12.14512425,
                    "velocity": 0.44881889763779526,
                    "duration": 0.15373574999999917
                },
                {
                    "name": "F4",
                    "midi": 65,
                    "time": 12.29886,
                    "velocity": 0.25196850393700787,
                    "duration": 0.3074715000000001
                },
                {
                    "name": "D5",
                    "midi": 74,
                    "time": 12.29886,
                    "velocity": 0.4881889763779528,
                    "duration": 0.4612072499999993
                },
                {
                    "name": "C4",
                    "midi": 60,
                    "time": 12.6063315,
                    "velocity": 0.2204724409448819,
                    "duration": 0.30747149999999834
                },
                {
                    "name": "C5",
                    "midi": 72,
                    "time": 12.760067249999999,
                    "velocity": 0.4330708661417323,
                    "duration": 0.15373574999999917
                },
                {
                    "name": "A#3",
                    "midi": 58,
                    "time": 12.913802999999998,
                    "velocity": 0.2677165354330709,
                    "duration": 0.3074715000000001
                },
                {
                    "name": "C5",
                    "midi": 72,
                    "time": 12.913802999999998,
                    "velocity": 0.4645669291338583,
                    "duration": 0.9224145000000004
                },
                {
                    "name": "C4",
                    "midi": 60,
                    "time": 13.221274499999998,
                    "velocity": 0.29133858267716534,
                    "duration": 0.3074715000000001
                },
                {
                    "name": "A4",
                    "midi": 69,
                    "time": 13.528745999999998,
                    "velocity": 0.30708661417322836,
                    "duration": 0.3074715000000001
                },
                {
                    "name": "G4",
                    "midi": 67,
                    "time": 13.836217499999998,
                    "velocity": 0.2283464566929134,
                    "duration": 0.3074715000000001
                },
                {
                    "name": "A#4",
                    "midi": 70,
                    "time": 13.836217499999998,
                    "velocity": 0.3228346456692913,
                    "duration": 0.3074715000000001
                },
                {
                    "name": "A4",
                    "midi": 69,
                    "time": 14.143688999999998,
                    "velocity": 0.36220472440944884,
                    "duration": 0.3074715000000001
                },
                {
                    "name": "E4",
                    "midi": 64,
                    "time": 14.143688999999998,
                    "velocity": 0.29133858267716534,
                    "duration": 0.20498100000000008
                },
                {
                    "name": "C4",
                    "midi": 60,
                    "time": 14.348669999999998,
                    "velocity": 0.2204724409448819,
                    "duration": 0.20498100000000008
                },
                {
                    "name": "G4",
                    "midi": 67,
                    "time": 14.451160499999999,
                    "velocity": 0.3228346456692913,
                    "duration": 0.3074715000000001
                },
                {
                    "name": "A#3",
                    "midi": 58,
                    "time": 14.553650999999999,
                    "velocity": 0.2204724409448819,
                    "duration": 0.20498100000000008
                },
                {
                    "name": "G#3",
                    "midi": 56,
                    "time": 14.758631999999999,
                    "velocity": 0.2283464566929134,
                    "duration": 0.2177923125000003
                },
                {
                    "name": "F4",
                    "midi": 65,
                    "time": 14.758631999999999,
                    "velocity": 0.33070866141732286,
                    "duration": 1.2298859999999987
                },
                {
                    "name": "A3",
                    "midi": 57,
                    "time": 14.963612999999999,
                    "velocity": 0.2125984251968504,
                    "duration": 0.2177923125000003
                },
                {
                    "name": "A#3",
                    "midi": 58,
                    "time": 15.168593999999999,
                    "velocity": 0.2125984251968504,
                    "duration": 0.20498100000000008
                },
                {
                    "name": "A3",
                    "midi": 57,
                    "time": 15.373574999999999,
                    "velocity": 0.2283464566929134,
                    "duration": 0.4612072499999993
                },
                {
                    "name": "A#3",
                    "midi": 58,
                    "time": 15.988517999999997,
                    "velocity": 0.23622047244094488,
                    "duration": 0.3074715000000001
                },
                {
                    "name": "A#4",
                    "midi": 70,
                    "time": 15.988517999999997,
                    "velocity": 0.33858267716535434,
                    "duration": 0.3074715000000001
                },
                {
                    "name": "C4",
                    "midi": 60,
                    "time": 16.295989499999997,
                    "velocity": 0.23622047244094488,
                    "duration": 0.30747149999999834
                },
                {
                    "name": "C5",
                    "midi": 72,
                    "time": 16.295989499999997,
                    "velocity": 0.33858267716535434,
                    "duration": 0.30747149999999834
                },
                {
                    "name": "D5",
                    "midi": 74,
                    "time": 16.603460999999996,
                    "velocity": 0.3464566929133858,
                    "duration": 0.30747149999999834
                },
                {
                    "name": "D4",
                    "midi": 62,
                    "time": 16.603460999999996,
                    "velocity": 0.2440944881889764,
                    "duration": 0.30747149999999834
                },
                {
                    "name": "F5",
                    "midi": 77,
                    "time": 16.910932499999994,
                    "velocity": 0.4094488188976378,
                    "duration": 0.30747149999999834
                },
                {
                    "name": "F4",
                    "midi": 65,
                    "time": 16.910932499999994,
                    "velocity": 0.2677165354330709,
                    "duration": 0.30747149999999834
                },
                {
                    "name": "G4",
                    "midi": 67,
                    "time": 17.218403999999992,
                    "velocity": 0.28346456692913385,
                    "duration": 0.30747149999999834
                },
                {
                    "name": "G5",
                    "midi": 79,
                    "time": 17.218403999999992,
                    "velocity": 0.4566929133858268,
                    "duration": 0.30747149999999834
                },
                {
                    "name": "F5",
                    "midi": 77,
                    "time": 17.52587549999999,
                    "velocity": 0.33070866141732286,
                    "duration": 0.30747149999999834
                },
                {
                    "name": "F4",
                    "midi": 65,
                    "time": 17.52587549999999,
                    "velocity": 0.2283464566929134,
                    "duration": 0.30747149999999834
                },
                {
                    "name": "D5",
                    "midi": 74,
                    "time": 17.83334699999999,
                    "velocity": 0.3464566929133858,
                    "duration": 0.30747149999999834
                },
                {
                    "name": "D4",
                    "midi": 62,
                    "time": 17.83334699999999,
                    "velocity": 0.2440944881889764,
                    "duration": 0.30747149999999834
                },
                {
                    "name": "A#4",
                    "midi": 70,
                    "time": 18.140818499999988,
                    "velocity": 0.30708661417322836,
                    "duration": 0.30747149999999834
                },
                {
                    "name": "A#3",
                    "midi": 58,
                    "time": 18.140818499999988,
                    "velocity": 0.2204724409448819,
                    "duration": 0.30747149999999834
                },
                {
                    "name": "F4",
                    "midi": 65,
                    "time": 18.448289999999986,
                    "velocity": 0.2992125984251969,
                    "duration": 1.2298860000000005
                },
                {
                    "name": "A3",
                    "midi": 57,
                    "time": 18.448289999999986,
                    "velocity": 0.2125984251968504,
                    "duration": 1.2298860000000005
                },
                {
                    "name": "C4",
                    "midi": 60,
                    "time": 18.448289999999986,
                    "velocity": 0.2125984251968504,
                    "duration": 1.2298860000000005
                },
                {
                    "name": "A#4",
                    "midi": 70,
                    "time": 19.678175999999986,
                    "velocity": 0.33858267716535434,
                    "duration": 0.30747149999999834
                },
                {
                    "name": "A#3",
                    "midi": 58,
                    "time": 19.678175999999986,
                    "velocity": 0.23622047244094488,
                    "duration": 0.30747149999999834
                },
                {
                    "name": "C4",
                    "midi": 60,
                    "time": 19.985647499999985,
                    "velocity": 0.23622047244094488,
                    "duration": 0.30747149999999834
                },
                {
                    "name": "C5",
                    "midi": 72,
                    "time": 19.985647499999985,
                    "velocity": 0.33858267716535434,
                    "duration": 0.30747149999999834
                },
                {
                    "name": "D5",
                    "midi": 74,
                    "time": 20.293118999999983,
                    "velocity": 0.3464566929133858,
                    "duration": 0.30747149999999834
                },
                {
                    "name": "D4",
                    "midi": 62,
                    "time": 20.293118999999983,
                    "velocity": 0.2440944881889764,
                    "duration": 0.30747149999999834
                },
                {
                    "name": "F4",
                    "midi": 65,
                    "time": 20.60059049999998,
                    "velocity": 0.2677165354330709,
                    "duration": 0.30747149999999834
                },
                {
                    "name": "F5",
                    "midi": 77,
                    "time": 20.60059049999998,
                    "velocity": 0.4094488188976378,
                    "duration": 0.30747149999999834
                },
                {
                    "name": "G5",
                    "midi": 79,
                    "time": 20.90806199999998,
                    "velocity": 0.4566929133858268,
                    "duration": 0.30747149999999834
                },
                {
                    "name": "G4",
                    "midi": 67,
                    "time": 20.90806199999998,
                    "velocity": 0.28346456692913385,
                    "duration": 0.30747149999999834
                },
                {
                    "name": "F4",
                    "midi": 65,
                    "time": 21.215533499999978,
                    "velocity": 0.2283464566929134,
                    "duration": 0.30747149999999834
                },
                {
                    "name": "F5",
                    "midi": 77,
                    "time": 21.215533499999978,
                    "velocity": 0.33070866141732286,
                    "duration": 0.30747149999999834
                },
                {
                    "name": "D4",
                    "midi": 62,
                    "time": 21.523004999999976,
                    "velocity": 0.2440944881889764,
                    "duration": 0.30747149999999834
                },
                {
                    "name": "D5",
                    "midi": 74,
                    "time": 21.523004999999976,
                    "velocity": 0.3464566929133858,
                    "duration": 0.30747149999999834
                },
                {
                    "name": "A#4",
                    "midi": 70,
                    "time": 21.830476499999975,
                    "velocity": 0.30708661417322836,
                    "duration": 0.30747149999999834
                },
                {
                    "name": "A#3",
                    "midi": 58,
                    "time": 21.830476499999975,
                    "velocity": 0.2204724409448819,
                    "duration": 0.30747149999999834
                },
                {
                    "name": "F4",
                    "midi": 65,
                    "time": 22.137947999999973,
                    "velocity": 0.2992125984251969,
                    "duration": 1.2298860000000005
                },
                {
                    "name": "C4",
                    "midi": 60,
                    "time": 22.137947999999973,
                    "velocity": 0.2125984251968504,
                    "duration": 1.2298860000000005
                },
                {
                    "name": "A3",
                    "midi": 57,
                    "time": 22.137947999999973,
                    "velocity": 0.2125984251968504,
                    "duration": 1.2298860000000005
                },
                {
                    "name": "A#4",
                    "midi": 70,
                    "time": 23.367833999999974,
                    "velocity": 0.33858267716535434,
                    "duration": 0.30747149999999834
                },
                {
                    "name": "A#3",
                    "midi": 58,
                    "time": 23.367833999999974,
                    "velocity": 0.23622047244094488,
                    "duration": 0.30747149999999834
                },
                {
                    "name": "C4",
                    "midi": 60,
                    "time": 23.675305499999972,
                    "velocity": 0.23622047244094488,
                    "duration": 0.30747149999999834
                },
                {
                    "name": "C5",
                    "midi": 72,
                    "time": 23.675305499999972,
                    "velocity": 0.33858267716535434,
                    "duration": 0.30747149999999834
                },
                {
                    "name": "D5",
                    "midi": 74,
                    "time": 23.98277699999997,
                    "velocity": 0.3464566929133858,
                    "duration": 1.6910932499999909
                },
                {
                    "name": "D4",
                    "midi": 62,
                    "time": 23.98277699999997,
                    "velocity": 0.2440944881889764,
                    "duration": 0.30747149999999834
                },
                {
                    "name": "F4",
                    "midi": 65,
                    "time": 24.29024849999997,
                    "velocity": 0.31496062992125984,
                    "duration": 0.30747149999999834
                },
                {
                    "name": "G4",
                    "midi": 67,
                    "time": 24.597719999999967,
                    "velocity": 0.36220472440944884,
                    "duration": 0.30747149999999834
                },
                {
                    "name": "F4",
                    "midi": 65,
                    "time": 24.905191499999965,
                    "velocity": 0.30708661417322836,
                    "duration": 0.30747149999999834
                },
                {
                    "name": "D4",
                    "midi": 62,
                    "time": 25.212662999999964,
                    "velocity": 0.33070866141732286,
                    "duration": 0.30747149999999834
                },
                {
                    "name": "A#3",
                    "midi": 58,
                    "time": 25.520134499999962,
                    "velocity": 0.2677165354330709,
                    "duration": 0.30747149999999834
                },
                {
                    "name": "A#4",
                    "midi": 70,
                    "time": 25.67387024999996,
                    "velocity": 0.41732283464566927,
                    "duration": 0.15373574999999917
                },
                {
                    "name": "F5",
                    "midi": 77,
                    "time": 25.82760599999996,
                    "velocity": 0.4566929133858268,
                    "duration": 1.0761502499999942
                },
                {
                    "name": "F4",
                    "midi": 65,
                    "time": 25.82760599999996,
                    "velocity": 0.2755905511811024,
                    "duration": 0.30747149999999834
                },
                {
                    "name": "A4",
                    "midi": 69,
                    "time": 26.13507749999996,
                    "velocity": 0.3228346456692913,
                    "duration": 0.30747149999999834
                },
                {
                    "name": "A#4",
                    "midi": 70,
                    "time": 26.442548999999957,
                    "velocity": 0.33070866141732286,
                    "duration": 0.30747149999999834
                },
                {
                    "name": "A4",
                    "midi": 69,
                    "time": 26.750020499999955,
                    "velocity": 0.2677165354330709,
                    "duration": 0.30747149999999834
                },
                {
                    "name": "E5",
                    "midi": 76,
                    "time": 26.903756249999955,
                    "velocity": 0.44881889763779526,
                    "duration": 0.15373574999999917
                },
                {
                    "name": "D5",
                    "midi": 74,
                    "time": 27.057491999999954,
                    "velocity": 0.4881889763779528,
                    "duration": 0.4612072499999975
                },
                {
                    "name": "F4",
                    "midi": 65,
                    "time": 27.057491999999954,
                    "velocity": 0.25196850393700787,
                    "duration": 0.30747149999999834
                },
                {
                    "name": "C4",
                    "midi": 60,
                    "time": 27.364963499999952,
                    "velocity": 0.2204724409448819,
                    "duration": 0.30747149999999834
                },
                {
                    "name": "C5",
                    "midi": 72,
                    "time": 27.51869924999995,
                    "velocity": 0.4330708661417323,
                    "duration": 0.15373574999999917
                },
                {
                    "name": "C5",
                    "midi": 72,
                    "time": 27.67243499999995,
                    "velocity": 0.4645669291338583,
                    "duration": 0.922414499999995
                },
                {
                    "name": "A#3",
                    "midi": 58,
                    "time": 27.67243499999995,
                    "velocity": 0.2677165354330709,
                    "duration": 0.30747149999999834
                },
                {
                    "name": "C4",
                    "midi": 60,
                    "time": 27.97990649999995,
                    "velocity": 0.29133858267716534,
                    "duration": 0.30747149999999834
                },
                {
                    "name": "A4",
                    "midi": 69,
                    "time": 28.287377999999947,
                    "velocity": 0.30708661417322836,
                    "duration": 0.30747149999999834
                },
                {
                    "name": "G4",
                    "midi": 67,
                    "time": 28.594849499999945,
                    "velocity": 0.2283464566929134,
                    "duration": 0.30747149999999834
                },
                {
                    "name": "A#4",
                    "midi": 70,
                    "time": 28.594849499999945,
                    "velocity": 0.3228346456692913,
                    "duration": 0.30747149999999834
                },
                {
                    "name": "E4",
                    "midi": 64,
                    "time": 28.902320999999944,
                    "velocity": 0.29133858267716534,
                    "duration": 0.20498100000000008
                },
                {
                    "name": "A4",
                    "midi": 69,
                    "time": 28.902320999999944,
                    "velocity": 0.36220472440944884,
                    "duration": 0.30747149999999834
                },
                {
                    "name": "C4",
                    "midi": 60,
                    "time": 29.107301999999944,
                    "velocity": 0.2204724409448819,
                    "duration": 0.20498099999999653
                },
                {
                    "name": "G4",
                    "midi": 67,
                    "time": 29.209792499999942,
                    "velocity": 0.3228346456692913,
                    "duration": 0.30747149999999834
                },
                {
                    "name": "A#3",
                    "midi": 58,
                    "time": 29.31228299999994,
                    "velocity": 0.2204724409448819,
                    "duration": 0.20498100000000008
                },
                {
                    "name": "G#3",
                    "midi": 56,
                    "time": 29.51726399999994,
                    "velocity": 0.2283464566929134,
                    "duration": 0.21779231249999853
                },
                {
                    "name": "F4",
                    "midi": 65,
                    "time": 29.51726399999994,
                    "velocity": 0.33070866141732286,
                    "duration": 1.2298860000000005
                },
                {
                    "name": "A3",
                    "midi": 57,
                    "time": 29.72224499999994,
                    "velocity": 0.2125984251968504,
                    "duration": 0.21779231249999853
                },
                {
                    "name": "A#3",
                    "midi": 58,
                    "time": 29.92722599999994,
                    "velocity": 0.2125984251968504,
                    "duration": 0.20498100000000008
                },
                {
                    "name": "A3",
                    "midi": 57,
                    "time": 30.13220699999994,
                    "velocity": 0.2283464566929134,
                    "duration": 0.46120725000000107
                },
                {
                    "name": "G#3",
                    "midi": 56,
                    "time": 31.36209299999994,
                    "velocity": 0.3858267716535433,
                    "duration": 0.30747149999999834
                },
                {
                    "name": "A#4",
                    "midi": 70,
                    "time": 31.36209299999994,
                    "velocity": 0.3858267716535433,
                    "duration": 1.8448289999999936
                },
                {
                    "name": "A#3",
                    "midi": 58,
                    "time": 31.66956449999994,
                    "velocity": 0.3228346456692913,
                    "duration": 0.30747149999999834
                },
                {
                    "name": "G4",
                    "midi": 67,
                    "time": 31.977035999999938,
                    "velocity": 0.3543307086614173,
                    "duration": 0.3074715000000019
                },
                {
                    "name": "F4",
                    "midi": 65,
                    "time": 32.28450749999994,
                    "velocity": 0.29133858267716534,
                    "duration": 0.30747149999999834
                },
                {
                    "name": "C4",
                    "midi": 60,
                    "time": 32.59197899999994,
                    "velocity": 0.33858267716535434,
                    "duration": 0.30747149999999834
                },
                {
                    "name": "A#3",
                    "midi": 58,
                    "time": 32.899450499999936,
                    "velocity": 0.29133858267716534,
                    "duration": 0.30747149999999834
                },
                {
                    "name": "A#4",
                    "midi": 70,
                    "time": 33.206921999999935,
                    "velocity": 0.3858267716535433,
                    "duration": 1.84482899999999
                },
                {
                    "name": "G#3",
                    "midi": 56,
                    "time": 33.206921999999935,
                    "velocity": 0.3858267716535433,
                    "duration": 0.30747149999999834
                },
                {
                    "name": "A#3",
                    "midi": 58,
                    "time": 33.51439349999993,
                    "velocity": 0.3228346456692913,
                    "duration": 0.30747149999999834
                },
                {
                    "name": "F4",
                    "midi": 65,
                    "time": 33.82186499999993,
                    "velocity": 0.3858267716535433,
                    "duration": 0.30747149999999834
                },
                {
                    "name": "D#4",
                    "midi": 63,
                    "time": 34.12933649999993,
                    "velocity": 0.2992125984251969,
                    "duration": 0.30747149999999834
                },
                {
                    "name": "C4",
                    "midi": 60,
                    "time": 34.43680799999993,
                    "velocity": 0.36220472440944884,
                    "duration": 0.30747149999999834
                },
                {
                    "name": "A#3",
                    "midi": 58,
                    "time": 34.74427949999993,
                    "velocity": 0.2992125984251969,
                    "duration": 0.30747149999999834
                },
                {
                    "name": "G#3",
                    "midi": 56,
                    "time": 35.051750999999925,
                    "velocity": 0.4251968503937008,
                    "duration": 0.30747149999999834
                },
                {
                    "name": "A#4",
                    "midi": 70,
                    "time": 35.051750999999925,
                    "velocity": 0.4251968503937008,
                    "duration": 0.6149429999999967
                },
                {
                    "name": "E4",
                    "midi": 64,
                    "time": 35.35922249999992,
                    "velocity": 0.3700787401574803,
                    "duration": 0.30747149999999834
                },
                {
                    "name": "A#4",
                    "midi": 70,
                    "time": 35.66669399999992,
                    "velocity": 0.44881889763779526,
                    "duration": 0.6149429999999967
                },
                {
                    "name": "G#3",
                    "midi": 56,
                    "time": 35.66669399999992,
                    "velocity": 0.44881889763779526,
                    "duration": 0.30747149999999834
                },
                {
                    "name": "F4",
                    "midi": 65,
                    "time": 35.97416549999992,
                    "velocity": 0.4094488188976378,
                    "duration": 0.30747149999999834
                },
                {
                    "name": "G#3",
                    "midi": 56,
                    "time": 36.28163699999992,
                    "velocity": 0.4645669291338583,
                    "duration": 0.30747149999999834
                },
                {
                    "name": "A#4",
                    "midi": 70,
                    "time": 36.28163699999992,
                    "velocity": 0.4645669291338583,
                    "duration": 1.84482899999999
                },
                {
                    "name": "F#4",
                    "midi": 66,
                    "time": 36.58910849999992,
                    "velocity": 0.4251968503937008,
                    "duration": 0.30747149999999834
                },
                {
                    "name": "G#3",
                    "midi": 56,
                    "time": 36.896579999999915,
                    "velocity": 0.5118110236220472,
                    "duration": 0.30747149999999834
                },
                {
                    "name": "G#4",
                    "midi": 68,
                    "time": 37.20405149999991,
                    "velocity": 0.3858267716535433,
                    "duration": 0.30747149999999834
                },
                {
                    "name": "G3",
                    "midi": 55,
                    "time": 37.51152299999991,
                    "velocity": 0.4251968503937008,
                    "duration": 0.30747149999999834
                },
                {
                    "name": "G4",
                    "midi": 67,
                    "time": 37.81899449999991,
                    "velocity": 0.3700787401574803,
                    "duration": 0.30747149999999834
                },
                {
                    "name": "D#5",
                    "midi": 75,
                    "time": 38.12646599999991,
                    "velocity": 0.4251968503937008,
                    "duration": 0.30747149999999834
                },
                {
                    "name": "D#4",
                    "midi": 63,
                    "time": 38.12646599999991,
                    "velocity": 0.2992125984251969,
                    "duration": 0.30747149999999834
                },
                {
                    "name": "F4",
                    "midi": 65,
                    "time": 38.43393749999991,
                    "velocity": 0.3228346456692913,
                    "duration": 0.30747149999999834
                },
                {
                    "name": "F5",
                    "midi": 77,
                    "time": 38.43393749999991,
                    "velocity": 0.4566929133858268,
                    "duration": 0.30747149999999834
                },
                {
                    "name": "G4",
                    "midi": 67,
                    "time": 38.741408999999905,
                    "velocity": 0.5039370078740157,
                    "duration": 0.30747149999999834
                },
                {
                    "name": "G5",
                    "midi": 79,
                    "time": 38.741408999999905,
                    "velocity": 0.5039370078740157,
                    "duration": 1.2298859999999934
                },
                {
                    "name": "D#5",
                    "midi": 75,
                    "time": 39.0488804999999,
                    "velocity": 0.3937007874015748,
                    "duration": 0.30747149999999834
                },
                {
                    "name": "F5",
                    "midi": 77,
                    "time": 39.3563519999999,
                    "velocity": 0.4251968503937008,
                    "duration": 0.30747149999999834
                },
                {
                    "name": "D#5",
                    "midi": 75,
                    "time": 39.6638234999999,
                    "velocity": 0.3937007874015748,
                    "duration": 0.23060362500000053
                },
                {
                    "name": "C5",
                    "midi": 72,
                    "time": 39.8944271249999,
                    "velocity": 0.4094488188976378,
                    "duration": 0.38433937499999615
                },
                {
                    "name": "F5",
                    "midi": 77,
                    "time": 39.9712949999999,
                    "velocity": 0.4094488188976378,
                    "duration": 0.30747149999999834
                },
                {
                    "name": "G4",
                    "midi": 67,
                    "time": 40.2787664999999,
                    "velocity": 0.3543307086614173,
                    "duration": 0.30747149999999834
                },
                {
                    "name": "D#5",
                    "midi": 75,
                    "time": 40.2787664999999,
                    "velocity": 0.3543307086614173,
                    "duration": 0.30747149999999834
                },
                {
                    "name": "D5",
                    "midi": 74,
                    "time": 40.586237999999895,
                    "velocity": 0.4409448818897638,
                    "duration": 1.2298859999999934
                },
                {
                    "name": "D4",
                    "midi": 62,
                    "time": 40.586237999999895,
                    "velocity": 0.4409448818897638,
                    "duration": 0.30747149999999834
                },
                {
                    "name": "A#4",
                    "midi": 70,
                    "time": 40.89370949999989,
                    "velocity": 0.30708661417322836,
                    "duration": 0.30747149999999834
                },
                {
                    "name": "C5",
                    "midi": 72,
                    "time": 41.20118099999989,
                    "velocity": 0.3464566929133858,
                    "duration": 0.30747149999999834
                },
                {
                    "name": "A#4",
                    "midi": 70,
                    "time": 41.50865249999989,
                    "velocity": 0.31496062992125984,
                    "duration": 0.23060362500000053
                },
                {
                    "name": "G4",
                    "midi": 67,
                    "time": 41.73925612499989,
                    "velocity": 0.4094488188976378,
                    "duration": 0.38433937499999615
                },
                {
                    "name": "A#4",
                    "midi": 70,
                    "time": 41.81612399999989,
                    "velocity": 0.4094488188976378,
                    "duration": 0.6149429999999967
                },
                {
                    "name": "D4",
                    "midi": 62,
                    "time": 42.12359549999989,
                    "velocity": 0.36220472440944884,
                    "duration": 0.30747149999999834
                },
                {
                    "name": "G4",
                    "midi": 67,
                    "time": 42.431066999999885,
                    "velocity": 0.3937007874015748,
                    "duration": 0.30747149999999834
                },
                {
                    "name": "G5",
                    "midi": 79,
                    "time": 42.431066999999885,
                    "velocity": 0.4645669291338583,
                    "duration": 0.922414499999995
                },
                {
                    "name": "D#5",
                    "midi": 75,
                    "time": 42.73853849999988,
                    "velocity": 0.33070866141732286,
                    "duration": 0.30747149999999834
                },
                {
                    "name": "F5",
                    "midi": 77,
                    "time": 43.04600999999988,
                    "velocity": 0.3543307086614173,
                    "duration": 0.30747149999999834
                },
                {
                    "name": "D#5",
                    "midi": 75,
                    "time": 43.35348149999988,
                    "velocity": 0.3779527559055118,
                    "duration": 0.30747149999999834
                },
                {
                    "name": "G5",
                    "midi": 79,
                    "time": 43.35348149999988,
                    "velocity": 0.3779527559055118,
                    "duration": 0.30747149999999834
                },
                {
                    "name": "F5",
                    "midi": 77,
                    "time": 43.66095299999988,
                    "velocity": 0.4251968503937008,
                    "duration": 0.46120725000000107
                },
                {
                    "name": "C5",
                    "midi": 72,
                    "time": 43.66095299999988,
                    "velocity": 0.3543307086614173,
                    "duration": 0.30747149999999834
                },
                {
                    "name": "G4",
                    "midi": 67,
                    "time": 43.96842449999988,
                    "velocity": 0.31496062992125984,
                    "duration": 0.30747150000000545
                },
                {
                    "name": "D#5",
                    "midi": 75,
                    "time": 44.12216024999988,
                    "velocity": 0.4094488188976378,
                    "duration": 0.15373575000000272
                },
                {
                    "name": "D5",
                    "midi": 74,
                    "time": 44.27589599999988,
                    "velocity": 0.4251968503937008,
                    "duration": 1.2298859999999934
                },
                {
                    "name": "D4",
                    "midi": 62,
                    "time": 44.27589599999988,
                    "velocity": 0.4251968503937008,
                    "duration": 0.30747149999999834
                },
                {
                    "name": "A#4",
                    "midi": 70,
                    "time": 44.58336749999988,
                    "velocity": 0.3543307086614173,
                    "duration": 0.30747149999999834
                },
                {
                    "name": "C5",
                    "midi": 72,
                    "time": 44.89083899999988,
                    "velocity": 0.3858267716535433,
                    "duration": 0.30747149999999834
                },
                {
                    "name": "A#4",
                    "midi": 70,
                    "time": 45.19831049999988,
                    "velocity": 0.36220472440944884,
                    "duration": 0.30747149999999834
                },
                {
                    "name": "D4",
                    "midi": 62,
                    "time": 45.505781999999876,
                    "velocity": 0.25984251968503935,
                    "duration": 0.30747149999999834
                },
                {
                    "name": "G4",
                    "midi": 67,
                    "time": 45.505781999999876,
                    "velocity": 0.3700787401574803,
                    "duration": 0.30747149999999834
                },
                {
                    "name": "A4",
                    "midi": 69,
                    "time": 45.813253499999874,
                    "velocity": 0.33070866141732286,
                    "duration": 0.30747149999999834
                },
                {
                    "name": "C4",
                    "midi": 60,
                    "time": 45.813253499999874,
                    "velocity": 0.23622047244094488,
                    "duration": 0.30747149999999834
                },
                {
                    "name": "A#3",
                    "midi": 58,
                    "time": 46.12072499999987,
                    "velocity": 0.28346456692913385,
                    "duration": 0.30747149999999834
                },
                {
                    "name": "A#4",
                    "midi": 70,
                    "time": 46.12072499999987,
                    "velocity": 0.4330708661417323,
                    "duration": 0.30747149999999834
                },
                {
                    "name": "A4",
                    "midi": 69,
                    "time": 46.42819649999987,
                    "velocity": 0.2677165354330709,
                    "duration": 0.30747149999999834
                },
                {
                    "name": "C5",
                    "midi": 72,
                    "time": 46.42819649999987,
                    "velocity": 0.4015748031496063,
                    "duration": 0.30747149999999834
                },
                {
                    "name": "D5",
                    "midi": 74,
                    "time": 46.73566799999987,
                    "velocity": 0.4094488188976378,
                    "duration": 0.30747149999999834
                },
                {
                    "name": "G4",
                    "midi": 67,
                    "time": 46.73566799999987,
                    "velocity": 0.28346456692913385,
                    "duration": 0.30747149999999834
                },
                {
                    "name": "E5",
                    "midi": 76,
                    "time": 47.04313949999987,
                    "velocity": 0.41732283464566927,
                    "duration": 0.30747149999999834
                },
                {
                    "name": "F4",
                    "midi": 65,
                    "time": 47.04313949999987,
                    "velocity": 0.2992125984251969,
                    "duration": 0.30747149999999834
                },
                {
                    "name": "E4",
                    "midi": 64,
                    "time": 47.350610999999866,
                    "velocity": 0.30708661417322836,
                    "duration": 0.30747149999999834
                },
                {
                    "name": "F5",
                    "midi": 77,
                    "time": 47.350610999999866,
                    "velocity": 0.4409448818897638,
                    "duration": 0.30747149999999834
                },
                {
                    "name": "D5",
                    "midi": 74,
                    "time": 47.658082499999864,
                    "velocity": 0.3228346456692913,
                    "duration": 0.30747149999999834
                },
                {
                    "name": "G5",
                    "midi": 79,
                    "time": 47.658082499999864,
                    "velocity": 0.4566929133858268,
                    "duration": 0.30747149999999834
                },
                {
                    "name": "C5",
                    "midi": 72,
                    "time": 47.96555399999986,
                    "velocity": 0.33858267716535434,
                    "duration": 0.30747149999999834
                },
                {
                    "name": "A5",
                    "midi": 81,
                    "time": 47.96555399999986,
                    "velocity": 0.47244094488188976,
                    "duration": 0.30747149999999834
                },
                {
                    "name": "G5",
                    "midi": 79,
                    "time": 48.27302549999986,
                    "velocity": 0.4566929133858268,
                    "duration": 0.30747149999999834
                },
                {
                    "name": "E5",
                    "midi": 76,
                    "time": 48.27302549999986,
                    "velocity": 0.3228346456692913,
                    "duration": 0.30747149999999834
                },
                {
                    "name": "F5",
                    "midi": 77,
                    "time": 48.58049699999986,
                    "velocity": 0.4409448818897638,
                    "duration": 0.30747149999999834
                },
                {
                    "name": "A4",
                    "midi": 69,
                    "time": 48.58049699999986,
                    "velocity": 0.30708661417322836,
                    "duration": 0.30747149999999834
                },
                {
                    "name": "E5",
                    "midi": 76,
                    "time": 48.88796849999986,
                    "velocity": 0.4251968503937008,
                    "duration": 0.30747149999999834
                },
                {
                    "name": "C5",
                    "midi": 72,
                    "time": 48.88796849999986,
                    "velocity": 0.29133858267716534,
                    "duration": 0.30747149999999834
                },
                {
                    "name": "D5",
                    "midi": 74,
                    "time": 49.195439999999856,
                    "velocity": 0.4015748031496063,
                    "duration": 0.30747149999999834
                },
                {
                    "name": "G4",
                    "midi": 67,
                    "time": 49.195439999999856,
                    "velocity": 0.2755905511811024,
                    "duration": 0.30747149999999834
                },
                {
                    "name": "A4",
                    "midi": 69,
                    "time": 49.502911499999854,
                    "velocity": 0.2755905511811024,
                    "duration": 0.30747149999999834
                },
                {
                    "name": "C5",
                    "midi": 72,
                    "time": 49.502911499999854,
                    "velocity": 0.3858267716535433,
                    "duration": 0.30747149999999834
                },
                {
                    "name": "E4",
                    "midi": 64,
                    "time": 49.81038299999985,
                    "velocity": 0.25984251968503935,
                    "duration": 0.30747149999999834
                },
                {
                    "name": "A#4",
                    "midi": 70,
                    "time": 49.81038299999985,
                    "velocity": 0.3700787401574803,
                    "duration": 0.30747149999999834
                },
                {
                    "name": "F4",
                    "midi": 65,
                    "time": 50.11785449999985,
                    "velocity": 0.2204724409448819,
                    "duration": 0.30747149999999834
                },
                {
                    "name": "A4",
                    "midi": 69,
                    "time": 50.11785449999985,
                    "velocity": 0.31496062992125984,
                    "duration": 0.30747149999999834
                },
                {
                    "name": "G4",
                    "midi": 67,
                    "time": 50.42532599999985,
                    "velocity": 0.36220472440944884,
                    "duration": 0.30747149999999834
                },
                {
                    "name": "C#4",
                    "midi": 61,
                    "time": 50.42532599999985,
                    "velocity": 0.25984251968503935,
                    "duration": 0.30747149999999834
                },
                {
                    "name": "D4",
                    "midi": 62,
                    "time": 50.73279749999985,
                    "velocity": 0.2204724409448819,
                    "duration": 0.30747149999999834
                },
                {
                    "name": "F4",
                    "midi": 65,
                    "time": 50.73279749999985,
                    "velocity": 0.31496062992125984,
                    "duration": 0.30747149999999834
                },
                {
                    "name": "A4",
                    "midi": 69,
                    "time": 51.040268999999846,
                    "velocity": 0.3543307086614173,
                    "duration": 0.30747149999999834
                },
                {
                    "name": "D#4",
                    "midi": 63,
                    "time": 51.040268999999846,
                    "velocity": 0.25196850393700787,
                    "duration": 0.30747149999999834
                },
                {
                    "name": "E4",
                    "midi": 64,
                    "time": 51.347740499999844,
                    "velocity": 0.2204724409448819,
                    "duration": 0.30747149999999834
                },
                {
                    "name": "G4",
                    "midi": 67,
                    "time": 51.347740499999844,
                    "velocity": 0.31496062992125984,
                    "duration": 0.30747149999999834
                },
                {
                    "name": "C4",
                    "midi": 60,
                    "time": 51.65521199999984,
                    "velocity": 0.2283464566929134,
                    "duration": 0.30747149999999834
                },
                {
                    "name": "F4",
                    "midi": 65,
                    "time": 51.65521199999984,
                    "velocity": 0.3228346456692913,
                    "duration": 0.30747149999999834
                },
                {
                    "name": "F#4",
                    "midi": 66,
                    "time": 51.96268349999984,
                    "velocity": 0.25984251968503935,
                    "duration": 0.30747149999999834
                },
                {
                    "name": "D#4",
                    "midi": 63,
                    "time": 51.96268349999984,
                    "velocity": 0.18110236220472442,
                    "duration": 0.30747149999999834
                },
                {
                    "name": "G4",
                    "midi": 67,
                    "time": 52.27015499999984,
                    "velocity": 0.25984251968503935,
                    "duration": 0.15373575000000272
                },
                {
                    "name": "C4",
                    "midi": 60,
                    "time": 52.27015499999984,
                    "velocity": 0.18110236220472442,
                    "duration": 0.15373575000000272
                },
                {
                    "name": "D#4",
                    "midi": 63,
                    "time": 52.42389074999984,
                    "velocity": 0.14960629921259844,
                    "duration": 0.15373575000000272
                },
                {
                    "name": "G#4",
                    "midi": 68,
                    "time": 52.42389074999984,
                    "velocity": 0.2204724409448819,
                    "duration": 0.15373575000000272
                },
                {
                    "name": "D4",
                    "midi": 62,
                    "time": 52.577626499999845,
                    "velocity": 0.18110236220472442,
                    "duration": 0.15373575000000272
                },
                {
                    "name": "A4",
                    "midi": 69,
                    "time": 52.577626499999845,
                    "velocity": 0.25984251968503935,
                    "duration": 0.15373575000000272
                },
                {
                    "name": "C4",
                    "midi": 60,
                    "time": 52.73136224999985,
                    "velocity": 0.14960629921259844,
                    "duration": 0.11530181250000027
                },
                {
                    "name": "F4",
                    "midi": 65,
                    "time": 52.73136224999985,
                    "velocity": 0.2204724409448819,
                    "duration": 0.11530181250000027
                },
                {
                    "name": "A#4",
                    "midi": 70,
                    "time": 52.88509799999985,
                    "velocity": 0.2992125984251969,
                    "duration": 0.30747149999999834
                },
                {
                    "name": "A#3",
                    "midi": 58,
                    "time": 52.88509799999985,
                    "velocity": 0.2125984251968504,
                    "duration": 0.30747149999999834
                },
                {
                    "name": "C4",
                    "midi": 60,
                    "time": 53.19256949999985,
                    "velocity": 0.2125984251968504,
                    "duration": 0.30747149999999834
                },
                {
                    "name": "C5",
                    "midi": 72,
                    "time": 53.19256949999985,
                    "velocity": 0.2992125984251969,
                    "duration": 0.30747149999999834
                },
                {
                    "name": "D5",
                    "midi": 74,
                    "time": 53.50004099999985,
                    "velocity": 0.30708661417322836,
                    "duration": 0.30747149999999834
                },
                {
                    "name": "D4",
                    "midi": 62,
                    "time": 53.50004099999985,
                    "velocity": 0.2204724409448819,
                    "duration": 0.30747149999999834
                },
                {
                    "name": "F4",
                    "midi": 65,
                    "time": 53.807512499999845,
                    "velocity": 0.23622047244094488,
                    "duration": 0.30747149999999834
                },
                {
                    "name": "F5",
                    "midi": 77,
                    "time": 53.807512499999845,
                    "velocity": 0.3700787401574803,
                    "duration": 0.30747149999999834
                },
                {
                    "name": "G5",
                    "midi": 79,
                    "time": 54.11498399999984,
                    "velocity": 0.4409448818897638,
                    "duration": 0.30747149999999834
                },
                {
                    "name": "G4",
                    "midi": 67,
                    "time": 54.11498399999984,
                    "velocity": 0.25196850393700787,
                    "duration": 0.30747149999999834
                },
                {
                    "name": "F5",
                    "midi": 77,
                    "time": 54.42245549999984,
                    "velocity": 0.29133858267716534,
                    "duration": 0.30747149999999834
                },
                {
                    "name": "F4",
                    "midi": 65,
                    "time": 54.42245549999984,
                    "velocity": 0.2047244094488189,
                    "duration": 0.30747149999999834
                },
                {
                    "name": "D4",
                    "midi": 62,
                    "time": 54.72992699999984,
                    "velocity": 0.2204724409448819,
                    "duration": 0.30747149999999834
                },
                {
                    "name": "D5",
                    "midi": 74,
                    "time": 54.72992699999984,
                    "velocity": 0.30708661417322836,
                    "duration": 0.30747149999999834
                },
                {
                    "name": "A#4",
                    "midi": 70,
                    "time": 55.03739849999984,
                    "velocity": 0.2755905511811024,
                    "duration": 0.30747149999999834
                },
                {
                    "name": "A#3",
                    "midi": 58,
                    "time": 55.03739849999984,
                    "velocity": 0.1889763779527559,
                    "duration": 0.30747149999999834
                },
                {
                    "name": "A3",
                    "midi": 57,
                    "time": 55.34486999999984,
                    "velocity": 0.18110236220472442,
                    "duration": 1.2298860000000005
                },
                {
                    "name": "C4",
                    "midi": 60,
                    "time": 55.34486999999984,
                    "velocity": 0.18110236220472442,
                    "duration": 1.2298860000000005
                },
                {
                    "name": "F4",
                    "midi": 65,
                    "time": 55.34486999999984,
                    "velocity": 0.2677165354330709,
                    "duration": 1.2298860000000005
                },
                {
                    "name": "A#4",
                    "midi": 70,
                    "time": 56.57475599999984,
                    "velocity": 0.33858267716535434,
                    "duration": 0.30747149999999834
                },
                {
                    "name": "A#3",
                    "midi": 58,
                    "time": 56.57475599999984,
                    "velocity": 0.23622047244094488,
                    "duration": 0.30747149999999834
                },
                {
                    "name": "C4",
                    "midi": 60,
                    "time": 56.882227499999836,
                    "velocity": 0.23622047244094488,
                    "duration": 0.30747149999999834
                },
                {
                    "name": "C5",
                    "midi": 72,
                    "time": 56.882227499999836,
                    "velocity": 0.33858267716535434,
                    "duration": 0.30747149999999834
                },
                {
                    "name": "D5",
                    "midi": 74,
                    "time": 57.189698999999834,
                    "velocity": 0.3464566929133858,
                    "duration": 0.30747149999999834
                },
                {
                    "name": "D4",
                    "midi": 62,
                    "time": 57.189698999999834,
                    "velocity": 0.2440944881889764,
                    "duration": 0.30747149999999834
                },
                {
                    "name": "F5",
                    "midi": 77,
                    "time": 57.49717049999983,
                    "velocity": 0.4094488188976378,
                    "duration": 0.30747149999999834
                },
                {
                    "name": "F4",
                    "midi": 65,
                    "time": 57.49717049999983,
                    "velocity": 0.2677165354330709,
                    "duration": 0.30747149999999834
                },
                {
                    "name": "G4",
                    "midi": 67,
                    "time": 57.80464199999983,
                    "velocity": 0.28346456692913385,
                    "duration": 0.30747149999999834
                },
                {
                    "name": "G5",
                    "midi": 79,
                    "time": 57.80464199999983,
                    "velocity": 0.44881889763779526,
                    "duration": 0.30747149999999834
                },
                {
                    "name": "F5",
                    "midi": 77,
                    "time": 58.11211349999983,
                    "velocity": 0.33070866141732286,
                    "duration": 0.30747149999999834
                },
                {
                    "name": "F4",
                    "midi": 65,
                    "time": 58.11211349999983,
                    "velocity": 0.2283464566929134,
                    "duration": 0.30747149999999834
                },
                {
                    "name": "D4",
                    "midi": 62,
                    "time": 58.41958499999983,
                    "velocity": 0.2440944881889764,
                    "duration": 0.30747149999999834
                },
                {
                    "name": "D5",
                    "midi": 74,
                    "time": 58.41958499999983,
                    "velocity": 0.3464566929133858,
                    "duration": 0.30747149999999834
                },
                {
                    "name": "A#4",
                    "midi": 70,
                    "time": 58.727056499999826,
                    "velocity": 0.30708661417322836,
                    "duration": 0.30747149999999834
                },
                {
                    "name": "A#3",
                    "midi": 58,
                    "time": 58.727056499999826,
                    "velocity": 0.2204724409448819,
                    "duration": 0.30747149999999834
                },
                {
                    "name": "A3",
                    "midi": 57,
                    "time": 59.034527999999824,
                    "velocity": 0.2125984251968504,
                    "duration": 1.2298860000000005
                },
                {
                    "name": "F4",
                    "midi": 65,
                    "time": 59.034527999999824,
                    "velocity": 0.47244094488188976,
                    "duration": 1.2298860000000005
                },
                {
                    "name": "C4",
                    "midi": 60,
                    "time": 59.034527999999824,
                    "velocity": 0.2677165354330709,
                    "duration": 1.2298860000000005
                },
                {
                    "name": "A#3",
                    "midi": 58,
                    "time": 60.264413999999825,
                    "velocity": 0.18110236220472442,
                    "duration": 0.30747149999999834
                },
                {
                    "name": "A#4",
                    "midi": 70,
                    "time": 60.264413999999825,
                    "velocity": 0.3700787401574803,
                    "duration": 0.30747149999999834
                },
                {
                    "name": "C4",
                    "midi": 60,
                    "time": 60.57188549999982,
                    "velocity": 0.18110236220472442,
                    "duration": 0.30747149999999834
                },
                {
                    "name": "C5",
                    "midi": 72,
                    "time": 60.57188549999982,
                    "velocity": 0.3858267716535433,
                    "duration": 0.30747149999999834
                },
                {
                    "name": "D4",
                    "midi": 62,
                    "time": 60.87935699999982,
                    "velocity": 0.1968503937007874,
                    "duration": 0.30747149999999834
                },
                {
                    "name": "D5",
                    "midi": 74,
                    "time": 60.87935699999982,
                    "velocity": 0.4094488188976378,
                    "duration": 0.30747149999999834
                },
                {
                    "name": "D#5",
                    "midi": 75,
                    "time": 61.18682849999982,
                    "velocity": 0.4251968503937008,
                    "duration": 0.30747149999999834
                },
                {
                    "name": "D#4",
                    "midi": 63,
                    "time": 61.18682849999982,
                    "velocity": 0.2125984251968504,
                    "duration": 0.30747149999999834
                },
                {
                    "name": "F4",
                    "midi": 65,
                    "time": 61.49429999999982,
                    "velocity": 0.2283464566929134,
                    "duration": 0.30747149999999834
                },
                {
                    "name": "F5",
                    "midi": 77,
                    "time": 61.49429999999982,
                    "velocity": 0.4566929133858268,
                    "duration": 0.30747149999999834
                },
                {
                    "name": "F#5",
                    "midi": 78,
                    "time": 61.801771499999816,
                    "velocity": 0.4881889763779528,
                    "duration": 0.30747149999999834
                },
                {
                    "name": "F#4",
                    "midi": 66,
                    "time": 61.801771499999816,
                    "velocity": 0.23622047244094488,
                    "duration": 0.30747149999999834
                },
                {
                    "name": "G5",
                    "midi": 79,
                    "time": 62.109242999999815,
                    "velocity": 0.5433070866141733,
                    "duration": 0.30747149999999834
                },
                {
                    "name": "G4",
                    "midi": 67,
                    "time": 62.109242999999815,
                    "velocity": 0.25984251968503935,
                    "duration": 0.30747149999999834
                },
                {
                    "name": "F5",
                    "midi": 77,
                    "time": 62.41671449999981,
                    "velocity": 0.44881889763779526,
                    "duration": 0.30747149999999834
                },
                {
                    "name": "F4",
                    "midi": 65,
                    "time": 62.41671449999981,
                    "velocity": 0.2283464566929134,
                    "duration": 0.30747149999999834
                },
                {
                    "name": "E4",
                    "midi": 64,
                    "time": 62.72418599999981,
                    "velocity": 0.2204724409448819,
                    "duration": 0.30747149999999834
                },
                {
                    "name": "E5",
                    "midi": 76,
                    "time": 62.72418599999981,
                    "velocity": 0.4330708661417323,
                    "duration": 0.30747149999999834
                },
                {
                    "name": "D4",
                    "midi": 62,
                    "time": 63.03165749999981,
                    "velocity": 0.2047244094488189,
                    "duration": 0.30747149999999834
                },
                {
                    "name": "D5",
                    "midi": 74,
                    "time": 63.03165749999981,
                    "velocity": 0.41732283464566927,
                    "duration": 0.30747149999999834
                },
                {
                    "name": "C4",
                    "midi": 60,
                    "time": 63.33912899999981,
                    "velocity": 0.18110236220472442,
                    "duration": 0.30747149999999834
                },
                {
                    "name": "C5",
                    "midi": 72,
                    "time": 63.33912899999981,
                    "velocity": 0.3937007874015748,
                    "duration": 0.30747149999999834
                },
                {
                    "name": "D4",
                    "midi": 62,
                    "time": 63.646600499999806,
                    "velocity": 0.18110236220472442,
                    "duration": 0.30747149999999834
                },
                {
                    "name": "D5",
                    "midi": 74,
                    "time": 63.646600499999806,
                    "velocity": 0.3700787401574803,
                    "duration": 0.30747149999999834
                },
                {
                    "name": "C4",
                    "midi": 60,
                    "time": 63.954071999999805,
                    "velocity": 0.1732283464566929,
                    "duration": 0.30747149999999834
                },
                {
                    "name": "C5",
                    "midi": 72,
                    "time": 63.954071999999805,
                    "velocity": 0.3543307086614173,
                    "duration": 0.30747149999999834
                },
                {
                    "name": "D4",
                    "midi": 62,
                    "time": 64.2615434999998,
                    "velocity": 0.15748031496062992,
                    "duration": 0.30747150000000545
                },
                {
                    "name": "D5",
                    "midi": 74,
                    "time": 64.2615434999998,
                    "velocity": 0.33070866141732286,
                    "duration": 0.30747150000000545
                },
                {
                    "name": "E4",
                    "midi": 64,
                    "time": 64.56901499999981,
                    "velocity": 0.23622047244094488,
                    "duration": 0.30747150000000545
                },
                {
                    "name": "E5",
                    "midi": 76,
                    "time": 64.56901499999981,
                    "velocity": 0.4015748031496063,
                    "duration": 0.30747150000000545
                },
                {
                    "name": "F4",
                    "midi": 65,
                    "time": 64.87648649999981,
                    "velocity": 0.2440944881889764,
                    "duration": 0.30747150000000545
                },
                {
                    "name": "F5",
                    "midi": 77,
                    "time": 64.87648649999981,
                    "velocity": 0.41732283464566927,
                    "duration": 0.30747150000000545
                },
                {
                    "name": "F#5",
                    "midi": 78,
                    "time": 65.18395799999982,
                    "velocity": 0.44881889763779526,
                    "duration": 0.30747150000000545
                },
                {
                    "name": "F#4",
                    "midi": 66,
                    "time": 65.18395799999982,
                    "velocity": 0.2677165354330709,
                    "duration": 0.30747150000000545
                },
                {
                    "name": "G5",
                    "midi": 79,
                    "time": 65.49142949999982,
                    "velocity": 0.4881889763779528,
                    "duration": 0.30747150000000545
                },
                {
                    "name": "G4",
                    "midi": 67,
                    "time": 65.49142949999982,
                    "velocity": 0.2755905511811024,
                    "duration": 0.30747150000000545
                },
                {
                    "name": "A5",
                    "midi": 81,
                    "time": 65.79890099999983,
                    "velocity": 0.5196850393700787,
                    "duration": 0.30747150000000545
                },
                {
                    "name": "A4",
                    "midi": 69,
                    "time": 65.79890099999983,
                    "velocity": 0.29133858267716534,
                    "duration": 0.30747150000000545
                },
                {
                    "name": "G5",
                    "midi": 79,
                    "time": 66.10637249999984,
                    "velocity": 0.44881889763779526,
                    "duration": 0.30747150000000545
                },
                {
                    "name": "G4",
                    "midi": 67,
                    "time": 66.10637249999984,
                    "velocity": 0.2677165354330709,
                    "duration": 0.30747150000000545
                },
                {
                    "name": "F4",
                    "midi": 65,
                    "time": 66.41384399999984,
                    "velocity": 0.2677165354330709,
                    "duration": 0.30747150000000545
                },
                {
                    "name": "F5",
                    "midi": 77,
                    "time": 66.41384399999984,
                    "velocity": 0.44881889763779526,
                    "duration": 0.30747150000000545
                },
                {
                    "name": "D#5",
                    "midi": 75,
                    "time": 66.72131549999985,
                    "velocity": 0.4251968503937008,
                    "duration": 0.30747150000000545
                },
                {
                    "name": "D#4",
                    "midi": 63,
                    "time": 66.72131549999985,
                    "velocity": 0.2440944881889764,
                    "duration": 0.30747150000000545
                },
                {
                    "name": "D5",
                    "midi": 74,
                    "time": 67.02878699999985,
                    "velocity": 0.4015748031496063,
                    "duration": 0.30747150000000545
                },
                {
                    "name": "D4",
                    "midi": 62,
                    "time": 67.02878699999985,
                    "velocity": 0.2204724409448819,
                    "duration": 0.30747150000000545
                },
                {
                    "name": "C5",
                    "midi": 72,
                    "time": 67.33625849999986,
                    "velocity": 0.3700787401574803,
                    "duration": 0.30747150000000545
                },
                {
                    "name": "C4",
                    "midi": 60,
                    "time": 67.33625849999986,
                    "velocity": 0.2204724409448819,
                    "duration": 0.30747150000000545
                },
                {
                    "name": "A#4",
                    "midi": 70,
                    "time": 67.64372999999986,
                    "velocity": 0.3700787401574803,
                    "duration": 0.30747150000000545
                },
                {
                    "name": "A#3",
                    "midi": 58,
                    "time": 67.64372999999986,
                    "velocity": 0.2204724409448819,
                    "duration": 0.30747150000000545
                },
                {
                    "name": "C4",
                    "midi": 60,
                    "time": 67.95120149999987,
                    "velocity": 0.1889763779527559,
                    "duration": 0.30747150000000545
                },
                {
                    "name": "C5",
                    "midi": 72,
                    "time": 67.95120149999987,
                    "velocity": 0.33070866141732286,
                    "duration": 0.30747150000000545
                },
                {
                    "name": "D4",
                    "midi": 62,
                    "time": 68.25867299999987,
                    "velocity": 0.30708661417322836,
                    "duration": 0.30747150000000545
                },
                {
                    "name": "D5",
                    "midi": 74,
                    "time": 68.25867299999987,
                    "velocity": 0.3700787401574803,
                    "duration": 1.2298860000000218
                },
                {
                    "name": "C5",
                    "midi": 72,
                    "time": 68.56614449999988,
                    "velocity": 0.3937007874015748,
                    "duration": 0.30747150000000545
                },
                {
                    "name": "A#4",
                    "midi": 70,
                    "time": 68.87361599999988,
                    "velocity": 0.3858267716535433,
                    "duration": 0.30747150000000545
                },
                {
                    "name": "A4",
                    "midi": 69,
                    "time": 69.18108749999989,
                    "velocity": 0.3464566929133858,
                    "duration": 0.30747150000000545
                },
                {
                    "name": "G4",
                    "midi": 67,
                    "time": 69.4885589999999,
                    "velocity": 0.3228346456692913,
                    "duration": 0.30747150000000545
                },
                {
                    "name": "D#5",
                    "midi": 75,
                    "time": 69.4885589999999,
                    "velocity": 0.4094488188976378,
                    "duration": 0.30747150000000545
                },
                {
                    "name": "F4",
                    "midi": 65,
                    "time": 69.7960304999999,
                    "velocity": 0.3464566929133858,
                    "duration": 0.30747150000000545
                },
                {
                    "name": "F5",
                    "midi": 77,
                    "time": 69.7960304999999,
                    "velocity": 0.4330708661417323,
                    "duration": 0.30747150000000545
                },
                {
                    "name": "D#4",
                    "midi": 63,
                    "time": 70.1035019999999,
                    "velocity": 0.3700787401574803,
                    "duration": 0.30747150000000545
                },
                {
                    "name": "G5",
                    "midi": 79,
                    "time": 70.1035019999999,
                    "velocity": 0.48031496062992124,
                    "duration": 0.9224145000000163
                },
                {
                    "name": "F4",
                    "midi": 65,
                    "time": 70.41097349999991,
                    "velocity": 0.33858267716535434,
                    "duration": 0.30747150000000545
                },
                {
                    "name": "G4",
                    "midi": 67,
                    "time": 70.71844499999992,
                    "velocity": 0.3700787401574803,
                    "duration": 0.30747150000000545
                },
                {
                    "name": "F5",
                    "midi": 77,
                    "time": 71.02591649999992,
                    "velocity": 0.41732283464566927,
                    "duration": 0.30747150000000545
                },
                {
                    "name": "A4",
                    "midi": 69,
                    "time": 71.02591649999992,
                    "velocity": 0.2992125984251969,
                    "duration": 0.30747150000000545
                },
                {
                    "name": "D#5",
                    "midi": 75,
                    "time": 71.33338799999993,
                    "velocity": 0.4015748031496063,
                    "duration": 0.30747150000000545
                },
                {
                    "name": "A#4",
                    "midi": 70,
                    "time": 71.33338799999993,
                    "velocity": 0.28346456692913385,
                    "duration": 0.30747150000000545
                },
                {
                    "name": "B4",
                    "midi": 71,
                    "time": 71.64085949999993,
                    "velocity": 0.2755905511811024,
                    "duration": 0.30747150000000545
                },
                {
                    "name": "D5",
                    "midi": 74,
                    "time": 71.64085949999993,
                    "velocity": 0.3937007874015748,
                    "duration": 0.30747150000000545
                },
                {
                    "name": "C5",
                    "midi": 72,
                    "time": 71.94833099999994,
                    "velocity": 0.4094488188976378,
                    "duration": 0.538075125000006
                },
                {
                    "name": "A#4",
                    "midi": 70,
                    "time": 72.25580249999994,
                    "velocity": 0.3700787401574803,
                    "duration": 0.15373574999999562
                },
                {
                    "name": "C5",
                    "midi": 72,
                    "time": 72.40953824999994,
                    "velocity": 0.33858267716535434,
                    "duration": 0.15373575000000983
                },
                {
                    "name": "D5",
                    "midi": 74,
                    "time": 72.48640612499995,
                    "velocity": 0.33858267716535434,
                    "duration": 0.07686787500000491
                },
                {
                    "name": "C5",
                    "midi": 72,
                    "time": 72.56327399999995,
                    "velocity": 0.3858267716535433,
                    "duration": 0.30747150000000545
                },
                {
                    "name": "A4",
                    "midi": 69,
                    "time": 72.56327399999995,
                    "velocity": 0.25984251968503935,
                    "duration": 0.30747150000000545
                },
                {
                    "name": "D5",
                    "midi": 74,
                    "time": 72.87074549999996,
                    "velocity": 0.3700787401574803,
                    "duration": 0.30747150000000545
                },
                {
                    "name": "G4",
                    "midi": 67,
                    "time": 72.87074549999996,
                    "velocity": 0.2440944881889764,
                    "duration": 0.30747150000000545
                },
                {
                    "name": "F4",
                    "midi": 65,
                    "time": 73.17821699999996,
                    "velocity": 0.2755905511811024,
                    "duration": 0.30747150000000545
                },
                {
                    "name": "D#5",
                    "midi": 75,
                    "time": 73.17821699999996,
                    "velocity": 0.4251968503937008,
                    "duration": 0.6149430000000109
                },
                {
                    "name": "D#4",
                    "midi": 63,
                    "time": 73.48568849999997,
                    "velocity": 0.30708661417322836,
                    "duration": 0.30747150000000545
                },
                {
                    "name": "D4",
                    "midi": 62,
                    "time": 73.79315999999997,
                    "velocity": 0.3543307086614173,
                    "duration": 0.30747150000000545
                },
                {
                    "name": "F5",
                    "midi": 77,
                    "time": 73.79315999999997,
                    "velocity": 0.4645669291338583,
                    "duration": 0.9224145000000163
                },
                {
                    "name": "D#4",
                    "midi": 63,
                    "time": 74.10063149999998,
                    "velocity": 0.3700787401574803,
                    "duration": 0.30747150000000545
                },
                {
                    "name": "F4",
                    "midi": 65,
                    "time": 74.40810299999998,
                    "velocity": 0.3700787401574803,
                    "duration": 0.30747150000000545
                },
                {
                    "name": "G4",
                    "midi": 67,
                    "time": 74.71557449999999,
                    "velocity": 0.25984251968503935,
                    "duration": 0.30747150000000545
                },
                {
                    "name": "D#5",
                    "midi": 75,
                    "time": 74.71557449999999,
                    "velocity": 0.36220472440944884,
                    "duration": 0.30747150000000545
                },
                {
                    "name": "D5",
                    "midi": 74,
                    "time": 75.023046,
                    "velocity": 0.3700787401574803,
                    "duration": 0.30747150000000545
                },
                {
                    "name": "G#4",
                    "midi": 68,
                    "time": 75.023046,
                    "velocity": 0.2440944881889764,
                    "duration": 0.30747150000000545
                },
                {
                    "name": "C5",
                    "midi": 72,
                    "time": 75.3305175,
                    "velocity": 0.3464566929133858,
                    "duration": 0.30747150000000545
                },
                {
                    "name": "A4",
                    "midi": 69,
                    "time": 75.3305175,
                    "velocity": 0.2440944881889764,
                    "duration": 0.30747150000000545
                },
                {
                    "name": "A#4",
                    "midi": 70,
                    "time": 75.637989,
                    "velocity": 0.3700787401574803,
                    "duration": 0.538075125000006
                },
                {
                    "name": "A4",
                    "midi": 69,
                    "time": 75.94546050000001,
                    "velocity": 0.30708661417322836,
                    "duration": 0.15373574999999562
                },
                {
                    "name": "A#4",
                    "midi": 70,
                    "time": 76.09919625,
                    "velocity": 0.2992125984251969,
                    "duration": 0.15373575000000983
                },
                {
                    "name": "C5",
                    "midi": 72,
                    "time": 76.17606412500001,
                    "velocity": 0.29133858267716534,
                    "duration": 0.07686787500000491
                },
                {
                    "name": "A#4",
                    "midi": 70,
                    "time": 76.25293200000002,
                    "velocity": 0.3543307086614173,
                    "duration": 0.30747150000000545
                },
                {
                    "name": "G4",
                    "midi": 67,
                    "time": 76.25293200000002,
                    "velocity": 0.2125984251968504,
                    "duration": 0.30747150000000545
                },
                {
                    "name": "C5",
                    "midi": 72,
                    "time": 76.56040350000002,
                    "velocity": 0.36220472440944884,
                    "duration": 0.30747150000000545
                },
                {
                    "name": "F4",
                    "midi": 65,
                    "time": 76.56040350000002,
                    "velocity": 0.2204724409448819,
                    "duration": 0.30747150000000545
                },
                {
                    "name": "D#4",
                    "midi": 63,
                    "time": 76.86787500000003,
                    "velocity": 0.2755905511811024,
                    "duration": 0.30747150000000545
                },
                {
                    "name": "D5",
                    "midi": 74,
                    "time": 76.86787500000003,
                    "velocity": 0.3937007874015748,
                    "duration": 0.6149430000000109
                },
                {
                    "name": "D4",
                    "midi": 62,
                    "time": 77.17534650000003,
                    "velocity": 0.2440944881889764,
                    "duration": 0.30747150000000545
                },
                {
                    "name": "D#5",
                    "midi": 75,
                    "time": 77.48281800000004,
                    "velocity": 0.4015748031496063,
                    "duration": 0.30747150000000545
                },
                {
                    "name": "C4",
                    "midi": 60,
                    "time": 77.48281800000004,
                    "velocity": 0.23622047244094488,
                    "duration": 0.30747150000000545
                },
                {
                    "name": "D4",
                    "midi": 62,
                    "time": 77.79028950000004,
                    "velocity": 0.2283464566929134,
                    "duration": 0.30747150000000545
                },
                {
                    "name": "D5",
                    "midi": 74,
                    "time": 77.79028950000004,
                    "velocity": 0.3937007874015748,
                    "duration": 0.30747150000000545
                },
                {
                    "name": "D#4",
                    "midi": 63,
                    "time": 78.09776100000005,
                    "velocity": 0.2204724409448819,
                    "duration": 0.30747150000000545
                },
                {
                    "name": "C5",
                    "midi": 72,
                    "time": 78.09776100000005,
                    "velocity": 0.3779527559055118,
                    "duration": 0.30747150000000545
                },
                {
                    "name": "E4",
                    "midi": 64,
                    "time": 78.40523250000005,
                    "velocity": 0.2204724409448819,
                    "duration": 0.30747150000000545
                },
                {
                    "name": "A#4",
                    "midi": 70,
                    "time": 78.40523250000005,
                    "velocity": 0.3700787401574803,
                    "duration": 0.30747150000000545
                },
                {
                    "name": "F4",
                    "midi": 65,
                    "time": 78.71270400000006,
                    "velocity": 0.2204724409448819,
                    "duration": 0.30747150000000545
                },
                {
                    "name": "A4",
                    "midi": 69,
                    "time": 78.71270400000006,
                    "velocity": 0.36220472440944884,
                    "duration": 0.30747150000000545
                },
                {
                    "name": "D#4",
                    "midi": 63,
                    "time": 79.02017550000006,
                    "velocity": 0.2047244094488189,
                    "duration": 0.30747150000000545
                },
                {
                    "name": "G4",
                    "midi": 67,
                    "time": 79.02017550000006,
                    "velocity": 0.3464566929133858,
                    "duration": 0.30747150000000545
                },
                {
                    "name": "D4",
                    "midi": 62,
                    "time": 79.32764700000007,
                    "velocity": 0.18110236220472442,
                    "duration": 0.30747150000000545
                },
                {
                    "name": "F4",
                    "midi": 65,
                    "time": 79.32764700000007,
                    "velocity": 0.3228346456692913,
                    "duration": 0.30747150000000545
                },
                {
                    "name": "C4",
                    "midi": 60,
                    "time": 79.63511850000008,
                    "velocity": 0.18110236220472442,
                    "duration": 0.30747150000000545
                },
                {
                    "name": "D#4",
                    "midi": 63,
                    "time": 79.63511850000008,
                    "velocity": 0.31496062992125984,
                    "duration": 0.30747150000000545
                },
                {
                    "name": "A#3",
                    "midi": 58,
                    "time": 79.94259000000008,
                    "velocity": 0.18110236220472442,
                    "duration": 0.30747150000000545
                },
                {
                    "name": "D4",
                    "midi": 62,
                    "time": 79.94259000000008,
                    "velocity": 0.30708661417322836,
                    "duration": 0.30747150000000545
                },
                {
                    "name": "A3",
                    "midi": 57,
                    "time": 80.25006150000009,
                    "velocity": 0.1732283464566929,
                    "duration": 0.30747150000000545
                },
                {
                    "name": "C4",
                    "midi": 60,
                    "time": 80.25006150000009,
                    "velocity": 0.2992125984251969,
                    "duration": 0.30747150000000545
                },
                {
                    "name": "G3",
                    "midi": 55,
                    "time": 80.56265752500009,
                    "velocity": 0.16535433070866143,
                    "duration": 0.15373574999999562
                },
                {
                    "name": "A#3",
                    "midi": 58,
                    "time": 80.5665009187501,
                    "velocity": 0.28346456692913385,
                    "duration": 0.15373574999999562
                },
                {
                    "name": "A3",
                    "midi": 57,
                    "time": 80.71126875000009,
                    "velocity": 0.2440944881889764,
                    "duration": 0.15373574999999562
                },
                {
                    "name": "F3",
                    "midi": 53,
                    "time": 80.71126875000009,
                    "velocity": 0.14173228346456693,
                    "duration": 0.15373574999999562
                },
                {
                    "name": "D#3",
                    "midi": 51,
                    "time": 80.86500450000008,
                    "velocity": 0.14960629921259844,
                    "duration": 0.15373574999999562
                },
                {
                    "name": "G3",
                    "midi": 55,
                    "time": 80.86500450000008,
                    "velocity": 0.25984251968503935,
                    "duration": 0.15373574999999562
                },
                {
                    "name": "D3",
                    "midi": 50,
                    "time": 81.01874025000008,
                    "velocity": 0.14960629921259844,
                    "duration": 0.15373574999999562
                },
                {
                    "name": "F3",
                    "midi": 53,
                    "time": 81.01874025000008,
                    "velocity": 0.2677165354330709,
                    "duration": 0.15373574999999562
                },
                {
                    "name": "C3",
                    "midi": 48,
                    "time": 81.17247600000007,
                    "velocity": 0.2125984251968504,
                    "duration": 1.8448290000000043
                },
                {
                    "name": "D#3",
                    "midi": 51,
                    "time": 81.17247600000007,
                    "velocity": 0.2992125984251969,
                    "duration": 1.8448290000000043
                },
                {
                    "name": "F4",
                    "midi": 65,
                    "time": 83.01730500000008,
                    "velocity": 0.2992125984251969,
                    "duration": 1.2298859999999934
                },
                {
                    "name": "F3",
                    "midi": 53,
                    "time": 83.01730500000008,
                    "velocity": 0.2125984251968504,
                    "duration": 1.2298859999999934
                },
                {
                    "name": "A#3",
                    "midi": 58,
                    "time": 83.01730500000008,
                    "velocity": 0.2125984251968504,
                    "duration": 1.2298859999999934
                },
                {
                    "name": "C5",
                    "midi": 72,
                    "time": 84.55466250000008,
                    "velocity": 0.3858267716535433,
                    "duration": 0.30747150000000545
                },
                {
                    "name": "A4",
                    "midi": 69,
                    "time": 84.55466250000008,
                    "velocity": 0.3858267716535433,
                    "duration": 0.30747150000000545
                },
                {
                    "name": "F5",
                    "midi": 77,
                    "time": 84.55466250000008,
                    "velocity": 0.5433070866141733,
                    "duration": 0.30747150000000545
                },
                {
                    "name": "D5",
                    "midi": 74,
                    "time": 84.86213400000008,
                    "velocity": 0.5905511811023622,
                    "duration": 0.15373574999999562
                },
                {
                    "name": "D5",
                    "midi": 74,
                    "time": 85.16960550000007,
                    "velocity": 0.5433070866141733,
                    "duration": 0.30747150000000545
                },
                {
                    "name": "A#4",
                    "midi": 70,
                    "time": 85.16960550000007,
                    "velocity": 0.3858267716535433,
                    "duration": 0.6149429999999967
                },
                {
                    "name": "C5",
                    "midi": 72,
                    "time": 85.47707700000008,
                    "velocity": 0.6141732283464567,
                    "duration": 0.15373574999999562
                },
                {
                    "name": "C5",
                    "midi": 72,
                    "time": 85.78454850000007,
                    "velocity": 0.5433070866141733,
                    "duration": 0.30747150000000545
                },
                {
                    "name": "A4",
                    "midi": 69,
                    "time": 85.78454850000007,
                    "velocity": 0.3858267716535433,
                    "duration": 0.6149430000000109
                },
                {
                    "name": "A#4",
                    "midi": 70,
                    "time": 86.09202000000008,
                    "velocity": 0.6062992125984252,
                    "duration": 0.30747150000000545
                },
                {
                    "name": "F4",
                    "midi": 65,
                    "time": 86.09202000000008,
                    "velocity": 0.3464566929133858,
                    "duration": 0.30747150000000545
                },
                {
                    "name": "E4",
                    "midi": 64,
                    "time": 86.39949150000008,
                    "velocity": 0.3858267716535433,
                    "duration": 0.30747150000000545
                },
                {
                    "name": "G4",
                    "midi": 67,
                    "time": 86.39949150000008,
                    "velocity": 0.5433070866141733,
                    "duration": 0.30747150000000545
                },
                {
                    "name": "C5",
                    "midi": 72,
                    "time": 86.70696300000009,
                    "velocity": 0.5669291338582677,
                    "duration": 0.30747150000001966
                },
                {
                    "name": "D#4",
                    "midi": 63,
                    "time": 86.70696300000009,
                    "velocity": 0.5433070866141733,
                    "duration": 0.07686787500000491
                },
                {
                    "name": "D#4",
                    "midi": 63,
                    "time": 86.8606987500001,
                    "velocity": 0.49606299212598426,
                    "duration": 0.07686787500000491
                },
                {
                    "name": "A#4",
                    "midi": 70,
                    "time": 87.0144345000001,
                    "velocity": 0.3858267716535433,
                    "duration": 0.6149430000000109
                },
                {
                    "name": "D#5",
                    "midi": 75,
                    "time": 87.0144345000001,
                    "velocity": 0.5433070866141733,
                    "duration": 0.30747150000000545
                },
                {
                    "name": "D4",
                    "midi": 62,
                    "time": 87.1681702500001,
                    "velocity": 0.4881889763779528,
                    "duration": 0.07686787500000491
                },
                {
                    "name": "D5",
                    "midi": 74,
                    "time": 87.32190600000011,
                    "velocity": 0.5905511811023622,
                    "duration": 0.15373574999999562
                },
                {
                    "name": "A3",
                    "midi": 57,
                    "time": 87.47564175000011,
                    "velocity": 0.47244094488188976,
                    "duration": 0.07686787500000491
                },
                {
                    "name": "D4",
                    "midi": 62,
                    "time": 87.62937750000012,
                    "velocity": 0.4251968503937008,
                    "duration": 0.07686787500000491
                },
                {
                    "name": "A4",
                    "midi": 69,
                    "time": 87.62937750000012,
                    "velocity": 0.5433070866141733,
                    "duration": 0.30747150000001966
                },
                {
                    "name": "C4",
                    "midi": 60,
                    "time": 87.78311325000013,
                    "velocity": 0.47244094488188976,
                    "duration": 0.07686787500000491
                },
                {
                    "name": "A#3",
                    "midi": 58,
                    "time": 87.93684900000014,
                    "velocity": 0.4251968503937008,
                    "duration": 0.15373574999999562
                },
                {
                    "name": "A#4",
                    "midi": 70,
                    "time": 87.93684900000014,
                    "velocity": 0.5905511811023622,
                    "duration": 0.15373574999999562
                },
                {
                    "name": "F4",
                    "midi": 65,
                    "time": 88.24432050000013,
                    "velocity": 0.3858267716535433,
                    "duration": 0.6149430000000109
                },
                {
                    "name": "C4",
                    "midi": 60,
                    "time": 88.24432050000013,
                    "velocity": 0.33070866141732286,
                    "duration": 0.30747150000000545
                },
                {
                    "name": "A4",
                    "midi": 69,
                    "time": 88.24432050000013,
                    "velocity": 0.5433070866141733,
                    "duration": 0.30747150000000545
                },
                {
                    "name": "G4",
                    "midi": 67,
                    "time": 88.55179200000013,
                    "velocity": 0.5826771653543307,
                    "duration": 0.30747150000000545
                },
                {
                    "name": "D4",
                    "midi": 62,
                    "time": 88.55179200000013,
                    "velocity": 0.3858267716535433,
                    "duration": 0.30747150000000545
                },
                {
                    "name": "C4",
                    "midi": 60,
                    "time": 88.85926350000014,
                    "velocity": 0.3858267716535433,
                    "duration": 0.30747150000000545
                },
                {
                    "name": "E4",
                    "midi": 64,
                    "time": 88.85926350000014,
                    "velocity": 0.5433070866141733,
                    "duration": 0.30747150000000545
                },
                {
                    "name": "F4",
                    "midi": 65,
                    "time": 89.16673500000014,
                    "velocity": 0.5433070866141733,
                    "duration": 0.15373574999999562
                },
                {
                    "name": "A4",
                    "midi": 69,
                    "time": 89.32047075000014,
                    "velocity": 0.4566929133858268,
                    "duration": 0.07686787500000491
                },
                {
                    "name": "F5",
                    "midi": 77,
                    "time": 89.47420650000015,
                    "velocity": 0.5905511811023622,
                    "duration": 0.30747150000001966
                },
                {
                    "name": "C5",
                    "midi": 72,
                    "time": 89.47420650000015,
                    "velocity": 0.4566929133858268,
                    "duration": 0.07686787500000491
                },
                {
                    "name": "F4",
                    "midi": 65,
                    "time": 89.62794225000016,
                    "velocity": 0.4566929133858268,
                    "duration": 0.07686787500000491
                },
                {
                    "name": "A#4",
                    "midi": 70,
                    "time": 89.78167800000017,
                    "velocity": 0.5118110236220472,
                    "duration": 0.07686787500000491
                },
                {
                    "name": "D5",
                    "midi": 74,
                    "time": 89.78167800000017,
                    "velocity": 0.6220472440944882,
                    "duration": 0.15373575000000983
                },
                {
                    "name": "D5",
                    "midi": 74,
                    "time": 90.08914950000018,
                    "velocity": 0.5669291338582677,
                    "duration": 0.30747150000000545
                },
                {
                    "name": "A#4",
                    "midi": 70,
                    "time": 90.08914950000018,
                    "velocity": 0.3858267716535433,
                    "duration": 0.6149429999999967
                },
                {
                    "name": "C5",
                    "midi": 72,
                    "time": 90.39662100000018,
                    "velocity": 0.6220472440944882,
                    "duration": 0.15373574999999562
                },
                {
                    "name": "C5",
                    "midi": 72,
                    "time": 90.70409250000017,
                    "velocity": 0.5433070866141733,
                    "duration": 0.30747150000000545
                },
                {
                    "name": "A4",
                    "midi": 69,
                    "time": 90.70409250000017,
                    "velocity": 0.3858267716535433,
                    "duration": 0.6149430000000109
                },
                {
                    "name": "F4",
                    "midi": 65,
                    "time": 91.01156400000018,
                    "velocity": 0.30708661417322836,
                    "duration": 0.30747150000000545
                },
                {
                    "name": "A#4",
                    "midi": 70,
                    "time": 91.01156400000018,
                    "velocity": 0.5826771653543307,
                    "duration": 0.30747150000000545
                },
                {
                    "name": "E4",
                    "midi": 64,
                    "time": 91.31903550000018,
                    "velocity": 0.3858267716535433,
                    "duration": 0.30747150000000545
                },
                {
                    "name": "G4",
                    "midi": 67,
                    "time": 91.31903550000018,
                    "velocity": 0.5433070866141733,
                    "duration": 0.30747150000000545
                },
                {
                    "name": "C5",
                    "midi": 72,
                    "time": 91.62650700000019,
                    "velocity": 0.5669291338582677,
                    "duration": 0.30747150000001966
                },
                {
                    "name": "D#4",
                    "midi": 63,
                    "time": 91.62650700000019,
                    "velocity": 0.5433070866141733,
                    "duration": 0.07686787500000491
                },
                {
                    "name": "D#4",
                    "midi": 63,
                    "time": 91.7802427500002,
                    "velocity": 0.49606299212598426,
                    "duration": 0.07686787500000491
                },
                {
                    "name": "A#4",
                    "midi": 70,
                    "time": 91.93397850000021,
                    "velocity": 0.3700787401574803,
                    "duration": 0.6149430000000109
                },
                {
                    "name": "D#5",
                    "midi": 75,
                    "time": 91.93397850000021,
                    "velocity": 0.5196850393700787,
                    "duration": 0.30747150000000545
                },
                {
                    "name": "D4",
                    "midi": 62,
                    "time": 92.0877142500002,
                    "velocity": 0.4645669291338583,
                    "duration": 0.07686787500000491
                },
                {
                    "name": "D5",
                    "midi": 74,
                    "time": 92.24145000000021,
                    "velocity": 0.5590551181102362,
                    "duration": 0.15373574999999562
                },
                {
                    "name": "A3",
                    "midi": 57,
                    "time": 92.39518575000021,
                    "velocity": 0.44881889763779526,
                    "duration": 0.07686787500000491
                },
                {
                    "name": "D4",
                    "midi": 62,
                    "time": 92.54892150000022,
                    "velocity": 0.3937007874015748,
                    "duration": 0.07686787500000491
                },
                {
                    "name": "A4",
                    "midi": 69,
                    "time": 92.54892150000022,
                    "velocity": 0.5039370078740157,
                    "duration": 0.30747150000001966
                },
                {
                    "name": "C4",
                    "midi": 60,
                    "time": 92.70265725000023,
                    "velocity": 0.4409448818897638,
                    "duration": 0.07686787500000491
                },
                {
                    "name": "A#4",
                    "midi": 70,
                    "time": 92.85639300000024,
                    "velocity": 0.5511811023622047,
                    "duration": 0.15373574999999562
                },
                {
                    "name": "A#3",
                    "midi": 58,
                    "time": 92.85639300000024,
                    "velocity": 0.3937007874015748,
                    "duration": 0.15373574999999562
                },
                {
                    "name": "F4",
                    "midi": 65,
                    "time": 93.16386450000023,
                    "velocity": 0.3543307086614173,
                    "duration": 0.6149430000000109
                },
                {
                    "name": "C4",
                    "midi": 60,
                    "time": 93.16386450000023,
                    "velocity": 0.2992125984251969,
                    "duration": 0.30747150000000545
                },
                {
                    "name": "A4",
                    "midi": 69,
                    "time": 93.16386450000023,
                    "velocity": 0.49606299212598426,
                    "duration": 0.30747150000000545
                },
                {
                    "name": "G4",
                    "midi": 67,
                    "time": 93.47133600000024,
                    "velocity": 0.5275590551181102,
                    "duration": 0.30747150000000545
                },
                {
                    "name": "D4",
                    "midi": 62,
                    "time": 93.47133600000024,
                    "velocity": 0.3464566929133858,
                    "duration": 0.30747150000000545
                },
                {
                    "name": "C4",
                    "midi": 60,
                    "time": 93.77880750000024,
                    "velocity": 0.3464566929133858,
                    "duration": 0.46120725000000107
                },
                {
                    "name": "E4",
                    "midi": 64,
                    "time": 93.77880750000024,
                    "velocity": 0.48031496062992124,
                    "duration": 0.30747150000000545
                },
                {
                    "name": "F4",
                    "midi": 65,
                    "time": 94.08627900000025,
                    "velocity": 0.47244094488188976,
                    "duration": 0.15373574999999562
                },
                {
                    "name": "A3",
                    "midi": 57,
                    "time": 94.24001475000024,
                    "velocity": 0.3464566929133858,
                    "duration": 0.07686787500000491
                },
                {
                    "name": "C4",
                    "midi": 60,
                    "time": 94.39375050000025,
                    "velocity": 0.41732283464566927,
                    "duration": 0.07686787500000491
                },
                {
                    "name": "F4",
                    "midi": 65,
                    "time": 94.39375050000025,
                    "velocity": 0.41732283464566927,
                    "duration": 0.30747150000001966
                },
                {
                    "name": "F3",
                    "midi": 53,
                    "time": 94.54748625000026,
                    "velocity": 0.3700787401574803,
                    "duration": 0.07686787500000491
                },
                {
                    "name": "A3",
                    "midi": 57,
                    "time": 94.70122200000027,
                    "velocity": 0.33858267716535434,
                    "duration": 0.07686787500000491
                },
                {
                    "name": "C4",
                    "midi": 60,
                    "time": 94.70122200000027,
                    "velocity": 0.4015748031496063,
                    "duration": 0.30747150000001966
                },
                {
                    "name": "C3",
                    "midi": 48,
                    "time": 94.85495775000028,
                    "velocity": 0.36220472440944884,
                    "duration": 0.07686787500000491
                },
                {
                    "name": "D4",
                    "midi": 62,
                    "time": 95.00869350000029,
                    "velocity": 0.4015748031496063,
                    "duration": 0.30747150000001966
                },
                {
                    "name": "A#3",
                    "midi": 58,
                    "time": 95.00869350000029,
                    "velocity": 0.33858267716535434,
                    "duration": 0.07686787500000491
                },
                {
                    "name": "G#3",
                    "midi": 56,
                    "time": 95.1624292500003,
                    "velocity": 0.3543307086614173,
                    "duration": 0.07686787500000491
                },
                {
                    "name": "A#3",
                    "midi": 58,
                    "time": 95.31616500000031,
                    "velocity": 0.33858267716535434,
                    "duration": 0.07686787500000491
                },
                {
                    "name": "D#4",
                    "midi": 63,
                    "time": 95.31616500000031,
                    "velocity": 0.4015748031496063,
                    "duration": 0.30747150000001966
                },
                {
                    "name": "F#3",
                    "midi": 54,
                    "time": 95.46990075000032,
                    "velocity": 0.33858267716535434,
                    "duration": 0.07686787500000491
                },
                {
                    "name": "A#3",
                    "midi": 58,
                    "time": 95.62363650000033,
                    "velocity": 0.4015748031496063,
                    "duration": 0.07686787500000491
                },
                {
                    "name": "D#4",
                    "midi": 63,
                    "time": 95.62363650000033,
                    "velocity": 0.48031496062992124,
                    "duration": 0.30747150000001966
                },
                {
                    "name": "D#3",
                    "midi": 51,
                    "time": 95.77737225000034,
                    "velocity": 0.3779527559055118,
                    "duration": 0.07686787500000491
                },
                {
                    "name": "F#3",
                    "midi": 54,
                    "time": 95.93110800000035,
                    "velocity": 0.3700787401574803,
                    "duration": 0.07686787500000491
                },
                {
                    "name": "A#3",
                    "midi": 58,
                    "time": 95.93110800000035,
                    "velocity": 0.4409448818897638,
                    "duration": 0.30747150000001966
                },
                {
                    "name": "A#2",
                    "midi": 46,
                    "time": 96.08484375000036,
                    "velocity": 0.3858267716535433,
                    "duration": 0.07686787500000491
                },
                {
                    "name": "F3",
                    "midi": 53,
                    "time": 96.23857950000037,
                    "velocity": 0.36220472440944884,
                    "duration": 0.07686787500000491
                },
                {
                    "name": "C4",
                    "midi": 60,
                    "time": 96.23857950000037,
                    "velocity": 0.44881889763779526,
                    "duration": 0.30747150000001966
                },
                {
                    "name": "D#3",
                    "midi": 51,
                    "time": 96.39231525000038,
                    "velocity": 0.3779527559055118,
                    "duration": 0.07686787500000491
                },
                {
                    "name": "C#4",
                    "midi": 61,
                    "time": 96.54605100000039,
                    "velocity": 0.4409448818897638,
                    "duration": 0.30747150000001966
                },
                {
                    "name": "C#3",
                    "midi": 49,
                    "time": 96.54605100000039,
                    "velocity": 0.3543307086614173,
                    "duration": 0.07686787500000491
                },
                {
                    "name": "G#3",
                    "midi": 56,
                    "time": 96.6997867500004,
                    "velocity": 0.3779527559055118,
                    "duration": 0.07686787500000491
                },
                {
                    "name": "A#3",
                    "midi": 58,
                    "time": 96.85352250000041,
                    "velocity": 0.4251968503937008,
                    "duration": 0.07686787500000491
                },
                {
                    "name": "D#4",
                    "midi": 63,
                    "time": 96.85352250000041,
                    "velocity": 0.5039370078740157,
                    "duration": 0.30747150000001966
                },
                {
                    "name": "D#3",
                    "midi": 51,
                    "time": 97.00725825000042,
                    "velocity": 0.4015748031496063,
                    "duration": 0.07686787500000491
                },
                {
                    "name": "F#3",
                    "midi": 54,
                    "time": 97.16099400000043,
                    "velocity": 0.3779527559055118,
                    "duration": 0.07686787500000491
                },
                {
                    "name": "A#3",
                    "midi": 58,
                    "time": 97.16099400000043,
                    "velocity": 0.44881889763779526,
                    "duration": 0.30747150000001966
                },
                {
                    "name": "A#2",
                    "midi": 46,
                    "time": 97.31472975000044,
                    "velocity": 0.4015748031496063,
                    "duration": 0.07686787500000491
                },
                {
                    "name": "C4",
                    "midi": 60,
                    "time": 97.46846550000045,
                    "velocity": 0.4330708661417323,
                    "duration": 0.30747150000001966
                },
                {
                    "name": "F3",
                    "midi": 53,
                    "time": 97.46846550000045,
                    "velocity": 0.36220472440944884,
                    "duration": 0.07686787500000491
                },
                {
                    "name": "D#3",
                    "midi": 51,
                    "time": 97.62220125000046,
                    "velocity": 0.4015748031496063,
                    "duration": 0.07686787500000491
                },
                {
                    "name": "C#3",
                    "midi": 49,
                    "time": 97.77593700000047,
                    "velocity": 0.3228346456692913,
                    "duration": 0.07686787500000491
                },
                {
                    "name": "C#4",
                    "midi": 61,
                    "time": 97.77593700000047,
                    "velocity": 0.44881889763779526,
                    "duration": 0.07686787500000491
                },
                {
                    "name": "C#3",
                    "midi": 49,
                    "time": 97.92967275000048,
                    "velocity": 0.4015748031496063,
                    "duration": 0.15373574999999562
                },
                {
                    "name": "A#3",
                    "midi": 58,
                    "time": 98.08340850000047,
                    "velocity": 0.44881889763779526,
                    "duration": 0.15373574999999562
                },
                {
                    "name": "D#3",
                    "midi": 51,
                    "time": 98.23714425000047,
                    "velocity": 0.4015748031496063,
                    "duration": 0.15373574999999562
                },
                {
                    "name": "D#4",
                    "midi": 63,
                    "time": 98.39088000000046,
                    "velocity": 0.4645669291338583,
                    "duration": 0.15373574999999562
                },
                {
                    "name": "C3",
                    "midi": 48,
                    "time": 98.54461575000046,
                    "velocity": 0.4094488188976378,
                    "duration": 0.15373574999999562
                },
                {
                    "name": "C4",
                    "midi": 60,
                    "time": 98.69835150000046,
                    "velocity": 0.48031496062992124,
                    "duration": 0.15373574999999562
                },
                {
                    "name": "F3",
                    "midi": 53,
                    "time": 98.85208725000045,
                    "velocity": 0.44881889763779526,
                    "duration": 0.15373574999999562
                },
                {
                    "name": "F4",
                    "midi": 65,
                    "time": 99.00582300000045,
                    "velocity": 0.5039370078740157,
                    "duration": 0.15373574999999562
                },
                {
                    "name": "D3",
                    "midi": 50,
                    "time": 99.15955875000044,
                    "velocity": 0.44881889763779526,
                    "duration": 0.15373574999999562
                },
                {
                    "name": "D4",
                    "midi": 62,
                    "time": 99.31329450000044,
                    "velocity": 0.5354330708661418,
                    "duration": 0.15373574999999562
                },
                {
                    "name": "G3",
                    "midi": 55,
                    "time": 99.46703025000043,
                    "velocity": 0.49606299212598426,
                    "duration": 0.15373574999999562
                },
                {
                    "name": "G4",
                    "midi": 67,
                    "time": 99.62076600000043,
                    "velocity": 0.5590551181102362,
                    "duration": 0.15373574999999562
                },
                {
                    "name": "C4",
                    "midi": 60,
                    "time": 99.77450175000043,
                    "velocity": 0.5039370078740157,
                    "duration": 0.15373574999999562
                },
                {
                    "name": "C5",
                    "midi": 72,
                    "time": 99.92823750000042,
                    "velocity": 0.5984251968503937,
                    "duration": 0.15373574999999562
                },
                {
                    "name": "F4",
                    "midi": 65,
                    "time": 100.08197325000042,
                    "velocity": 0.5590551181102362,
                    "duration": 0.15373574999999562
                },
                {
                    "name": "F5",
                    "midi": 77,
                    "time": 100.23570900000041,
                    "velocity": 0.6299212598425197,
                    "duration": 0.15373574999999562
                },
                {
                    "name": "A4",
                    "midi": 69,
                    "time": 100.38944475000041,
                    "velocity": 0.4566929133858268,
                    "duration": 0.07686787500000491
                },
                {
                    "name": "F5",
                    "midi": 77,
                    "time": 100.54318050000042,
                    "velocity": 0.5905511811023622,
                    "duration": 0.30747150000001966
                },
                {
                    "name": "C5",
                    "midi": 72,
                    "time": 100.54318050000042,
                    "velocity": 0.4566929133858268,
                    "duration": 0.07686787500000491
                },
                {
                    "name": "F4",
                    "midi": 65,
                    "time": 100.69691625000043,
                    "velocity": 0.4566929133858268,
                    "duration": 0.07686787500000491
                },
                {
                    "name": "A#4",
                    "midi": 70,
                    "time": 100.85065200000044,
                    "velocity": 0.5118110236220472,
                    "duration": 0.07686787500000491
                },
                {
                    "name": "D5",
                    "midi": 74,
                    "time": 100.85065200000044,
                    "velocity": 0.6220472440944882,
                    "duration": 0.15373575000000983
                },
                {
                    "name": "D5",
                    "midi": 74,
                    "time": 101.15812350000044,
                    "velocity": 0.5669291338582677,
                    "duration": 0.30747150000000545
                },
                {
                    "name": "A#4",
                    "midi": 70,
                    "time": 101.15812350000044,
                    "velocity": 0.3858267716535433,
                    "duration": 0.6149429999999967
                },
                {
                    "name": "C5",
                    "midi": 72,
                    "time": 101.46559500000045,
                    "velocity": 0.6220472440944882,
                    "duration": 0.15373574999999562
                },
                {
                    "name": "A4",
                    "midi": 69,
                    "time": 101.77306650000044,
                    "velocity": 0.3858267716535433,
                    "duration": 0.6149430000000109
                },
                {
                    "name": "C5",
                    "midi": 72,
                    "time": 101.77306650000044,
                    "velocity": 0.5433070866141733,
                    "duration": 0.30747150000000545
                },
                {
                    "name": "A#4",
                    "midi": 70,
                    "time": 102.08053800000044,
                    "velocity": 0.5748031496062992,
                    "duration": 0.30747150000000545
                },
                {
                    "name": "F4",
                    "midi": 65,
                    "time": 102.08053800000044,
                    "velocity": 0.33070866141732286,
                    "duration": 0.30747150000000545
                },
                {
                    "name": "G4",
                    "midi": 67,
                    "time": 102.38800950000045,
                    "velocity": 0.5433070866141733,
                    "duration": 0.30747150000000545
                },
                {
                    "name": "E4",
                    "midi": 64,
                    "time": 102.38800950000045,
                    "velocity": 0.3858267716535433,
                    "duration": 0.30747150000000545
                },
                {
                    "name": "C5",
                    "midi": 72,
                    "time": 102.69548100000046,
                    "velocity": 0.5669291338582677,
                    "duration": 0.30747150000001966
                },
                {
                    "name": "D#4",
                    "midi": 63,
                    "time": 102.69548100000046,
                    "velocity": 0.5433070866141733,
                    "duration": 0.07686787500000491
                },
                {
                    "name": "D#4",
                    "midi": 63,
                    "time": 102.84921675000047,
                    "velocity": 0.49606299212598426,
                    "duration": 0.07686787500000491
                },
                {
                    "name": "A#4",
                    "midi": 70,
                    "time": 103.00295250000048,
                    "velocity": 0.36220472440944884,
                    "duration": 0.6149430000000109
                },
                {
                    "name": "D#5",
                    "midi": 75,
                    "time": 103.00295250000048,
                    "velocity": 0.5118110236220472,
                    "duration": 0.30747150000000545
                },
                {
                    "name": "D4",
                    "midi": 62,
                    "time": 103.15668825000047,
                    "velocity": 0.4566929133858268,
                    "duration": 0.07686787500000491
                },
                {
                    "name": "D5",
                    "midi": 74,
                    "time": 103.31042400000048,
                    "velocity": 0.5511811023622047,
                    "duration": 0.15373574999999562
                },
                {
                    "name": "A3",
                    "midi": 57,
                    "time": 103.46415975000048,
                    "velocity": 0.4330708661417323,
                    "duration": 0.07686787500000491
                },
                {
                    "name": "D4",
                    "midi": 62,
                    "time": 103.61789550000049,
                    "velocity": 0.4094488188976378,
                    "duration": 0.07686787500000491
                },
                {
                    "name": "A4",
                    "midi": 69,
                    "time": 103.61789550000049,
                    "velocity": 0.5039370078740157,
                    "duration": 0.30747150000001966
                },
                {
                    "name": "C4",
                    "midi": 60,
                    "time": 103.7716312500005,
                    "velocity": 0.4330708661417323,
                    "duration": 0.07686787500000491
                },
                {
                    "name": "A#3",
                    "midi": 58,
                    "time": 103.9253670000005,
                    "velocity": 0.3858267716535433,
                    "duration": 0.15373574999999562
                },
                {
                    "name": "A#4",
                    "midi": 70,
                    "time": 103.9253670000005,
                    "velocity": 0.5354330708661418,
                    "duration": 0.15373574999999562
                },
                {
                    "name": "C4",
                    "midi": 60,
                    "time": 104.2328385000005,
                    "velocity": 0.28346456692913385,
                    "duration": 0.30747150000000545
                },
                {
                    "name": "F4",
                    "midi": 65,
                    "time": 104.2328385000005,
                    "velocity": 0.2992125984251969,
                    "duration": 0.6149430000000109
                },
                {
                    "name": "A4",
                    "midi": 69,
                    "time": 104.2328385000005,
                    "velocity": 0.4881889763779528,
                    "duration": 0.30747150000000545
                },
                {
                    "name": "D4",
                    "midi": 62,
                    "time": 104.5403100000005,
                    "velocity": 0.4015748031496063,
                    "duration": 0.30747150000000545
                },
                {
                    "name": "G4",
                    "midi": 67,
                    "time": 104.5403100000005,
                    "velocity": 0.5118110236220472,
                    "duration": 0.30747150000000545
                },
                {
                    "name": "E4",
                    "midi": 64,
                    "time": 104.84778150000051,
                    "velocity": 0.47244094488188976,
                    "duration": 0.30747150000000545
                },
                {
                    "name": "C4",
                    "midi": 60,
                    "time": 104.84778150000051,
                    "velocity": 0.33070866141732286,
                    "duration": 0.46120725000000107
                },
                {
                    "name": "F4",
                    "midi": 65,
                    "time": 105.15525300000051,
                    "velocity": 0.4645669291338583,
                    "duration": 0.15373574999999562
                },
                {
                    "name": "A3",
                    "midi": 57,
                    "time": 105.30898875000051,
                    "velocity": 0.3700787401574803,
                    "duration": 0.07686787500000491
                },
                {
                    "name": "F4",
                    "midi": 65,
                    "time": 105.46272450000052,
                    "velocity": 0.41732283464566927,
                    "duration": 0.30747150000001966
                },
                {
                    "name": "C4",
                    "midi": 60,
                    "time": 105.46272450000052,
                    "velocity": 0.41732283464566927,
                    "duration": 0.07686787500000491
                },
                {
                    "name": "F3",
                    "midi": 53,
                    "time": 105.61646025000053,
                    "velocity": 0.3700787401574803,
                    "duration": 0.07686787500000491
                },
                {
                    "name": "C4",
                    "midi": 60,
                    "time": 105.77019600000054,
                    "velocity": 0.4015748031496063,
                    "duration": 0.30747150000001966
                },
                {
                    "name": "A3",
                    "midi": 57,
                    "time": 105.77019600000054,
                    "velocity": 0.33858267716535434,
                    "duration": 0.07686787500000491
                },
                {
                    "name": "C3",
                    "midi": 48,
                    "time": 105.92393175000055,
                    "velocity": 0.36220472440944884,
                    "duration": 0.07686787500000491
                },
                {
                    "name": "D4",
                    "midi": 62,
                    "time": 106.07766750000056,
                    "velocity": 0.4015748031496063,
                    "duration": 0.30747150000001966
                },
                {
                    "name": "A#3",
                    "midi": 58,
                    "time": 106.07766750000056,
                    "velocity": 0.33858267716535434,
                    "duration": 0.07686787500000491
                },
                {
                    "name": "G#3",
                    "midi": 56,
                    "time": 106.23140325000057,
                    "velocity": 0.3543307086614173,
                    "duration": 0.07686787500000491
                },
                {
                    "name": "D#4",
                    "midi": 63,
                    "time": 106.38513900000058,
                    "velocity": 0.4015748031496063,
                    "duration": 0.30747150000001966
                },
                {
                    "name": "A#3",
                    "midi": 58,
                    "time": 106.38513900000058,
                    "velocity": 0.33858267716535434,
                    "duration": 0.07686787500000491
                },
                {
                    "name": "F#3",
                    "midi": 54,
                    "time": 106.53887475000059,
                    "velocity": 0.36220472440944884,
                    "duration": 0.07686787500000491
                },
                {
                    "name": "A#3",
                    "midi": 58,
                    "time": 106.6926105000006,
                    "velocity": 0.4015748031496063,
                    "duration": 0.07686787500000491
                },
                {
                    "name": "D#4",
                    "midi": 63,
                    "time": 106.6926105000006,
                    "velocity": 0.48031496062992124,
                    "duration": 0.30747150000001966
                },
                {
                    "name": "D#3",
                    "midi": 51,
                    "time": 106.84634625000061,
                    "velocity": 0.3779527559055118,
                    "duration": 0.07686787500000491
                },
                {
                    "name": "A#3",
                    "midi": 58,
                    "time": 107.00008200000062,
                    "velocity": 0.4409448818897638,
                    "duration": 0.30747150000001966
                },
                {
                    "name": "F#3",
                    "midi": 54,
                    "time": 107.00008200000062,
                    "velocity": 0.3700787401574803,
                    "duration": 0.07686787500000491
                },
                {
                    "name": "A#2",
                    "midi": 46,
                    "time": 107.15381775000063,
                    "velocity": 0.3858267716535433,
                    "duration": 0.07686787500000491
                },
                {
                    "name": "C4",
                    "midi": 60,
                    "time": 107.30755350000064,
                    "velocity": 0.44881889763779526,
                    "duration": 0.30747150000001966
                },
                {
                    "name": "F3",
                    "midi": 53,
                    "time": 107.30755350000064,
                    "velocity": 0.3779527559055118,
                    "duration": 0.07686787500000491
                },
                {
                    "name": "D#3",
                    "midi": 51,
                    "time": 107.46128925000065,
                    "velocity": 0.3779527559055118,
                    "duration": 0.07686787500000491
                },
                {
                    "name": "C#3",
                    "midi": 49,
                    "time": 107.61502500000066,
                    "velocity": 0.3700787401574803,
                    "duration": 0.07686787500000491
                },
                {
                    "name": "C#4",
                    "midi": 61,
                    "time": 107.61502500000066,
                    "velocity": 0.4409448818897638,
                    "duration": 0.30747150000001966
                },
                {
                    "name": "G#3",
                    "midi": 56,
                    "time": 107.76876075000067,
                    "velocity": 0.3779527559055118,
                    "duration": 0.07686787500000491
                },
                {
                    "name": "D#4",
                    "midi": 63,
                    "time": 107.92249650000068,
                    "velocity": 0.5039370078740157,
                    "duration": 0.30747150000001966
                },
                {
                    "name": "A#3",
                    "midi": 58,
                    "time": 107.92249650000068,
                    "velocity": 0.4251968503937008,
                    "duration": 0.07686787500000491
                },
                {
                    "name": "D#3",
                    "midi": 51,
                    "time": 108.07623225000069,
                    "velocity": 0.4015748031496063,
                    "duration": 0.07686787500000491
                },
                {
                    "name": "A#3",
                    "midi": 58,
                    "time": 108.2299680000007,
                    "velocity": 0.44881889763779526,
                    "duration": 0.30747150000001966
                },
                {
                    "name": "F#3",
                    "midi": 54,
                    "time": 108.2299680000007,
                    "velocity": 0.3779527559055118,
                    "duration": 0.07686787500000491
                },
                {
                    "name": "A#2",
                    "midi": 46,
                    "time": 108.3837037500007,
                    "velocity": 0.4015748031496063,
                    "duration": 0.07686787500000491
                },
                {
                    "name": "F3",
                    "midi": 53,
                    "time": 108.53743950000072,
                    "velocity": 0.36220472440944884,
                    "duration": 0.07686787500000491
                },
                {
                    "name": "C4",
                    "midi": 60,
                    "time": 108.53743950000072,
                    "velocity": 0.4330708661417323,
                    "duration": 0.30747150000001966
                },
                {
                    "name": "D#3",
                    "midi": 51,
                    "time": 108.69117525000073,
                    "velocity": 0.4015748031496063,
                    "duration": 0.07686787500000491
                },
                {
                    "name": "C#3",
                    "midi": 49,
                    "time": 108.84491100000074,
                    "velocity": 0.3779527559055118,
                    "duration": 0.07686787500000491
                },
                {
                    "name": "C#4",
                    "midi": 61,
                    "time": 108.84491100000074,
                    "velocity": 0.44881889763779526,
                    "duration": 0.07686787500000491
                },
                {
                    "name": "C#3",
                    "midi": 49,
                    "time": 108.99864675000074,
                    "velocity": 0.4015748031496063,
                    "duration": 0.15373574999999562
                },
                {
                    "name": "A#3",
                    "midi": 58,
                    "time": 109.15238250000074,
                    "velocity": 0.44881889763779526,
                    "duration": 0.15373574999999562
                },
                {
                    "name": "D#3",
                    "midi": 51,
                    "time": 109.30611825000074,
                    "velocity": 0.4015748031496063,
                    "duration": 0.15373574999999562
                },
                {
                    "name": "D#4",
                    "midi": 63,
                    "time": 109.45985400000073,
                    "velocity": 0.4645669291338583,
                    "duration": 0.15373574999999562
                },
                {
                    "name": "C3",
                    "midi": 48,
                    "time": 109.61358975000073,
                    "velocity": 0.41732283464566927,
                    "duration": 0.15373574999999562
                },
                {
                    "name": "C4",
                    "midi": 60,
                    "time": 109.76732550000072,
                    "velocity": 0.48031496062992124,
                    "duration": 0.15373574999999562
                },
                {
                    "name": "F3",
                    "midi": 53,
                    "time": 109.92106125000072,
                    "velocity": 0.44881889763779526,
                    "duration": 0.15373574999999562
                },
                {
                    "name": "F4",
                    "midi": 65,
                    "time": 110.07479700000071,
                    "velocity": 0.5039370078740157,
                    "duration": 0.15373574999999562
                },
                {
                    "name": "D3",
                    "midi": 50,
                    "time": 110.22853275000071,
                    "velocity": 0.44881889763779526,
                    "duration": 0.15373574999999562
                },
                {
                    "name": "D4",
                    "midi": 62,
                    "time": 110.3822685000007,
                    "velocity": 0.5275590551181102,
                    "duration": 0.15373574999999562
                },
                {
                    "name": "G3",
                    "midi": 55,
                    "time": 110.5360042500007,
                    "velocity": 0.49606299212598426,
                    "duration": 0.15373574999999562
                },
                {
                    "name": "G4",
                    "midi": 67,
                    "time": 110.6897400000007,
                    "velocity": 0.5511811023622047,
                    "duration": 0.15373574999999562
                },
                {
                    "name": "C4",
                    "midi": 60,
                    "time": 110.84347575000069,
                    "velocity": 0.49606299212598426,
                    "duration": 0.15373574999999562
                },
                {
                    "name": "C5",
                    "midi": 72,
                    "time": 110.99721150000069,
                    "velocity": 0.5905511811023622,
                    "duration": 0.15373574999999562
                },
                {
                    "name": "F4",
                    "midi": 65,
                    "time": 111.15094725000068,
                    "velocity": 0.5511811023622047,
                    "duration": 0.15373574999999562
                },
                {
                    "name": "F5",
                    "midi": 77,
                    "time": 111.30468300000068,
                    "velocity": 0.6141732283464567,
                    "duration": 0.15373574999999562
                },
                {
                    "name": "A4",
                    "midi": 69,
                    "time": 111.45841875000067,
                    "velocity": 0.4015748031496063,
                    "duration": 0.07686787500000491
                },
                {
                    "name": "C5",
                    "midi": 72,
                    "time": 111.61215450000068,
                    "velocity": 0.4566929133858268,
                    "duration": 0.07686787500000491
                },
                {
                    "name": "F5",
                    "midi": 77,
                    "time": 111.61215450000068,
                    "velocity": 0.5905511811023622,
                    "duration": 0.30747150000001966
                },
                {
                    "name": "F4",
                    "midi": 65,
                    "time": 111.7658902500007,
                    "velocity": 0.4566929133858268,
                    "duration": 0.07686787500000491
                },
                {
                    "name": "A#4",
                    "midi": 70,
                    "time": 111.9196260000007,
                    "velocity": 0.5118110236220472,
                    "duration": 0.07686787500000491
                },
                {
                    "name": "D5",
                    "midi": 74,
                    "time": 111.9196260000007,
                    "velocity": 0.6220472440944882,
                    "duration": 0.15373575000000983
                },
                {
                    "name": "A#4",
                    "midi": 70,
                    "time": 112.22709750000071,
                    "velocity": 0.3858267716535433,
                    "duration": 0.6149429999999967
                },
                {
                    "name": "D5",
                    "midi": 74,
                    "time": 112.22709750000071,
                    "velocity": 0.5669291338582677,
                    "duration": 0.30747150000000545
                },
                {
                    "name": "C5",
                    "midi": 72,
                    "time": 112.53456900000072,
                    "velocity": 0.6220472440944882,
                    "duration": 0.15373574999999562
                },
                {
                    "name": "A4",
                    "midi": 69,
                    "time": 112.8420405000007,
                    "velocity": 0.3858267716535433,
                    "duration": 0.6149430000000109
                },
                {
                    "name": "C5",
                    "midi": 72,
                    "time": 112.8420405000007,
                    "velocity": 0.5433070866141733,
                    "duration": 0.30747150000000545
                },
                {
                    "name": "F4",
                    "midi": 65,
                    "time": 113.14951200000071,
                    "velocity": 0.3464566929133858,
                    "duration": 0.30747150000000545
                },
                {
                    "name": "A#4",
                    "midi": 70,
                    "time": 113.14951200000071,
                    "velocity": 0.5590551181102362,
                    "duration": 0.30747150000000545
                },
                {
                    "name": "G4",
                    "midi": 67,
                    "time": 113.45698350000072,
                    "velocity": 0.5433070866141733,
                    "duration": 0.30747150000000545
                },
                {
                    "name": "E4",
                    "midi": 64,
                    "time": 113.45698350000072,
                    "velocity": 0.3858267716535433,
                    "duration": 0.30747150000000545
                },
                {
                    "name": "C5",
                    "midi": 72,
                    "time": 113.76445500000072,
                    "velocity": 0.5669291338582677,
                    "duration": 0.30747150000001966
                },
                {
                    "name": "D#4",
                    "midi": 63,
                    "time": 113.76445500000072,
                    "velocity": 0.5433070866141733,
                    "duration": 0.07686787500000491
                },
                {
                    "name": "D#4",
                    "midi": 63,
                    "time": 113.91819075000073,
                    "velocity": 0.49606299212598426,
                    "duration": 0.07686787500000491
                },
                {
                    "name": "D#5",
                    "midi": 75,
                    "time": 114.07192650000074,
                    "velocity": 0.5118110236220472,
                    "duration": 0.30747150000000545
                },
                {
                    "name": "A#4",
                    "midi": 70,
                    "time": 114.07192650000074,
                    "velocity": 0.4330708661417323,
                    "duration": 0.6149430000000109
                },
                {
                    "name": "D4",
                    "midi": 62,
                    "time": 114.22566225000074,
                    "velocity": 0.4566929133858268,
                    "duration": 0.07686787500000491
                },
                {
                    "name": "D5",
                    "midi": 74,
                    "time": 114.37939800000075,
                    "velocity": 0.5511811023622047,
                    "duration": 0.15373574999999562
                },
                {
                    "name": "A3",
                    "midi": 57,
                    "time": 114.53313375000074,
                    "velocity": 0.4409448818897638,
                    "duration": 0.07686787500000491
                },
                {
                    "name": "D4",
                    "midi": 62,
                    "time": 114.68686950000075,
                    "velocity": 0.41732283464566927,
                    "duration": 0.07686787500000491
                },
                {
                    "name": "A4",
                    "midi": 69,
                    "time": 114.68686950000075,
                    "velocity": 0.5039370078740157,
                    "duration": 0.30747150000001966
                },
                {
                    "name": "C4",
                    "midi": 60,
                    "time": 114.84060525000076,
                    "velocity": 0.4330708661417323,
                    "duration": 0.07686787500000491
                },
                {
                    "name": "A#3",
                    "midi": 58,
                    "time": 114.99434100000077,
                    "velocity": 0.4566929133858268,
                    "duration": 0.15373574999999562
                },
                {
                    "name": "A#4",
                    "midi": 70,
                    "time": 114.99434100000077,
                    "velocity": 0.5433070866141733,
                    "duration": 0.15373574999999562
                },
                {
                    "name": "A4",
                    "midi": 69,
                    "time": 115.30181250000076,
                    "velocity": 0.4881889763779528,
                    "duration": 0.30747150000000545
                },
                {
                    "name": "C4",
                    "midi": 60,
                    "time": 115.30181250000076,
                    "velocity": 0.3464566929133858,
                    "duration": 0.30747150000000545
                },
                {
                    "name": "F4",
                    "midi": 65,
                    "time": 115.30181250000076,
                    "velocity": 0.3464566929133858,
                    "duration": 0.6149430000000109
                },
                {
                    "name": "D4",
                    "midi": 62,
                    "time": 115.60928400000077,
                    "velocity": 0.33858267716535434,
                    "duration": 0.30747150000000545
                },
                {
                    "name": "G4",
                    "midi": 67,
                    "time": 115.60928400000077,
                    "velocity": 0.5118110236220472,
                    "duration": 0.30747150000000545
                },
                {
                    "name": "E4",
                    "midi": 64,
                    "time": 115.91675550000078,
                    "velocity": 0.47244094488188976,
                    "duration": 0.30747150000000545
                },
                {
                    "name": "C4",
                    "midi": 60,
                    "time": 115.91675550000078,
                    "velocity": 0.33858267716535434,
                    "duration": 0.6149430000000109
                },
                {
                    "name": "F4",
                    "midi": 65,
                    "time": 116.22422700000078,
                    "velocity": 0.47244094488188976,
                    "duration": 0.30747150000000545
                },
                {
                    "name": "A#4",
                    "midi": 70,
                    "time": 116.53169850000079,
                    "velocity": 0.33858267716535434,
                    "duration": 0.30747150000000545
                },
                {
                    "name": "A#3",
                    "midi": 58,
                    "time": 116.53169850000079,
                    "velocity": 0.23622047244094488,
                    "duration": 0.30747150000000545
                },
                {
                    "name": "C5",
                    "midi": 72,
                    "time": 116.83917000000079,
                    "velocity": 0.33858267716535434,
                    "duration": 0.30747150000000545
                },
                {
                    "name": "C4",
                    "midi": 60,
                    "time": 116.83917000000079,
                    "velocity": 0.23622047244094488,
                    "duration": 0.30747150000000545
                },
                {
                    "name": "D5",
                    "midi": 74,
                    "time": 117.1466415000008,
                    "velocity": 0.3464566929133858,
                    "duration": 0.30747150000000545
                },
                {
                    "name": "D4",
                    "midi": 62,
                    "time": 117.1466415000008,
                    "velocity": 0.2440944881889764,
                    "duration": 0.30747150000000545
                },
                {
                    "name": "F5",
                    "midi": 77,
                    "time": 117.4541130000008,
                    "velocity": 0.4251968503937008,
                    "duration": 0.30747150000000545
                },
                {
                    "name": "F4",
                    "midi": 65,
                    "time": 117.4541130000008,
                    "velocity": 0.2677165354330709,
                    "duration": 0.30747150000000545
                },
                {
                    "name": "G4",
                    "midi": 67,
                    "time": 117.76158450000081,
                    "velocity": 0.28346456692913385,
                    "duration": 0.30747150000000545
                },
                {
                    "name": "G5",
                    "midi": 79,
                    "time": 117.76158450000081,
                    "velocity": 0.4566929133858268,
                    "duration": 0.30747150000000545
                },
                {
                    "name": "F4",
                    "midi": 65,
                    "time": 118.06905600000081,
                    "velocity": 0.2283464566929134,
                    "duration": 0.30747150000000545
                },
                {
                    "name": "F5",
                    "midi": 77,
                    "time": 118.06905600000081,
                    "velocity": 0.33070866141732286,
                    "duration": 0.30747150000000545
                },
                {
                    "name": "D4",
                    "midi": 62,
                    "time": 118.37652750000082,
                    "velocity": 0.2440944881889764,
                    "duration": 0.30747150000000545
                },
                {
                    "name": "D5",
                    "midi": 74,
                    "time": 118.37652750000082,
                    "velocity": 0.3464566929133858,
                    "duration": 0.30747150000000545
                },
                {
                    "name": "A#4",
                    "midi": 70,
                    "time": 118.68399900000082,
                    "velocity": 0.30708661417322836,
                    "duration": 0.30747150000000545
                },
                {
                    "name": "A#3",
                    "midi": 58,
                    "time": 118.68399900000082,
                    "velocity": 0.2204724409448819,
                    "duration": 0.30747150000000545
                },
                {
                    "name": "F4",
                    "midi": 65,
                    "time": 118.99147050000083,
                    "velocity": 0.2992125984251969,
                    "duration": 1.2298859999999934
                },
                {
                    "name": "A3",
                    "midi": 57,
                    "time": 118.99147050000083,
                    "velocity": 0.2125984251968504,
                    "duration": 1.2298859999999934
                },
                {
                    "name": "C4",
                    "midi": 60,
                    "time": 118.99147050000083,
                    "velocity": 0.2125984251968504,
                    "duration": 1.2298859999999934
                },
                {
                    "name": "A#4",
                    "midi": 70,
                    "time": 120.22135650000082,
                    "velocity": 0.33858267716535434,
                    "duration": 0.30747150000000545
                },
                {
                    "name": "A#3",
                    "midi": 58,
                    "time": 120.22135650000082,
                    "velocity": 0.23622047244094488,
                    "duration": 0.30747150000000545
                },
                {
                    "name": "C4",
                    "midi": 60,
                    "time": 120.52882800000083,
                    "velocity": 0.23622047244094488,
                    "duration": 0.30747150000000545
                },
                {
                    "name": "C5",
                    "midi": 72,
                    "time": 120.52882800000083,
                    "velocity": 0.33858267716535434,
                    "duration": 0.30747150000000545
                },
                {
                    "name": "D5",
                    "midi": 74,
                    "time": 120.83629950000083,
                    "velocity": 0.3464566929133858,
                    "duration": 0.30747150000000545
                },
                {
                    "name": "D4",
                    "midi": 62,
                    "time": 120.83629950000083,
                    "velocity": 0.2440944881889764,
                    "duration": 0.30747150000000545
                },
                {
                    "name": "F4",
                    "midi": 65,
                    "time": 121.14377100000084,
                    "velocity": 0.2677165354330709,
                    "duration": 0.30747150000000545
                },
                {
                    "name": "F5",
                    "midi": 77,
                    "time": 121.14377100000084,
                    "velocity": 0.4015748031496063,
                    "duration": 0.30747150000000545
                },
                {
                    "name": "G5",
                    "midi": 79,
                    "time": 121.45124250000084,
                    "velocity": 0.44881889763779526,
                    "duration": 0.30747150000000545
                },
                {
                    "name": "G4",
                    "midi": 67,
                    "time": 121.45124250000084,
                    "velocity": 0.28346456692913385,
                    "duration": 0.30747150000000545
                },
                {
                    "name": "F4",
                    "midi": 65,
                    "time": 121.75871400000085,
                    "velocity": 0.2283464566929134,
                    "duration": 0.30747150000000545
                },
                {
                    "name": "F5",
                    "midi": 77,
                    "time": 121.75871400000085,
                    "velocity": 0.33070866141732286,
                    "duration": 0.30747150000000545
                },
                {
                    "name": "D5",
                    "midi": 74,
                    "time": 122.06618550000086,
                    "velocity": 0.3464566929133858,
                    "duration": 0.30747150000000545
                },
                {
                    "name": "D4",
                    "midi": 62,
                    "time": 122.06618550000086,
                    "velocity": 0.2440944881889764,
                    "duration": 0.30747150000000545
                },
                {
                    "name": "A#3",
                    "midi": 58,
                    "time": 122.37365700000086,
                    "velocity": 0.2204724409448819,
                    "duration": 0.30747150000000545
                },
                {
                    "name": "A#4",
                    "midi": 70,
                    "time": 122.37365700000086,
                    "velocity": 0.30708661417322836,
                    "duration": 0.30747150000000545
                },
                {
                    "name": "A3",
                    "midi": 57,
                    "time": 122.68112850000087,
                    "velocity": 0.2125984251968504,
                    "duration": 1.2298859999999934
                },
                {
                    "name": "F4",
                    "midi": 65,
                    "time": 122.68112850000087,
                    "velocity": 0.2992125984251969,
                    "duration": 1.2298859999999934
                },
                {
                    "name": "C4",
                    "midi": 60,
                    "time": 122.68112850000087,
                    "velocity": 0.2125984251968504,
                    "duration": 1.2298859999999934
                },
                {
                    "name": "A#4",
                    "midi": 70,
                    "time": 123.91101450000086,
                    "velocity": 0.33858267716535434,
                    "duration": 0.30747150000000545
                },
                {
                    "name": "A#3",
                    "midi": 58,
                    "time": 123.91101450000086,
                    "velocity": 0.23622047244094488,
                    "duration": 0.30747150000000545
                },
                {
                    "name": "C4",
                    "midi": 60,
                    "time": 124.21848600000087,
                    "velocity": 0.23622047244094488,
                    "duration": 0.30747150000000545
                },
                {
                    "name": "C5",
                    "midi": 72,
                    "time": 124.21848600000087,
                    "velocity": 0.33858267716535434,
                    "duration": 0.30747150000000545
                },
                {
                    "name": "D5",
                    "midi": 74,
                    "time": 124.52595750000087,
                    "velocity": 0.3464566929133858,
                    "duration": 1.6910932500000229
                },
                {
                    "name": "D4",
                    "midi": 62,
                    "time": 124.52595750000087,
                    "velocity": 0.29133858267716534,
                    "duration": 0.30747150000000545
                },
                {
                    "name": "F4",
                    "midi": 65,
                    "time": 124.83342900000088,
                    "velocity": 0.3464566929133858,
                    "duration": 0.30747150000000545
                },
                {
                    "name": "G4",
                    "midi": 67,
                    "time": 125.14090050000088,
                    "velocity": 0.4015748031496063,
                    "duration": 0.30747150000000545
                },
                {
                    "name": "F4",
                    "midi": 65,
                    "time": 125.44837200000089,
                    "velocity": 0.33858267716535434,
                    "duration": 0.30747150000000545
                },
                {
                    "name": "D4",
                    "midi": 62,
                    "time": 125.75584350000089,
                    "velocity": 0.36220472440944884,
                    "duration": 0.30747150000000545
                },
                {
                    "name": "A#3",
                    "midi": 58,
                    "time": 126.0633150000009,
                    "velocity": 0.31496062992125984,
                    "duration": 0.30747149999999124
                },
                {
                    "name": "A#4",
                    "midi": 70,
                    "time": 126.2170507500009,
                    "velocity": 0.41732283464566927,
                    "duration": 0.15373574999999562
                },
                {
                    "name": "F4",
                    "midi": 65,
                    "time": 126.37078650000089,
                    "velocity": 0.33070866141732286,
                    "duration": 0.30747150000000545
                },
                {
                    "name": "F5",
                    "midi": 77,
                    "time": 126.37078650000089,
                    "velocity": 0.4566929133858268,
                    "duration": 1.076150250000012
                },
                {
                    "name": "A4",
                    "midi": 69,
                    "time": 126.6782580000009,
                    "velocity": 0.3543307086614173,
                    "duration": 0.30747150000000545
                },
                {
                    "name": "A#4",
                    "midi": 70,
                    "time": 126.9857295000009,
                    "velocity": 0.3700787401574803,
                    "duration": 0.30747150000000545
                },
                {
                    "name": "A4",
                    "midi": 69,
                    "time": 127.2932010000009,
                    "velocity": 0.29133858267716534,
                    "duration": 0.30747149999999124
                },
                {
                    "name": "E5",
                    "midi": 76,
                    "time": 127.4469367500009,
                    "velocity": 0.44881889763779526,
                    "duration": 0.15373574999999562
                },
                {
                    "name": "D5",
                    "midi": 74,
                    "time": 127.6006725000009,
                    "velocity": 0.4881889763779528,
                    "duration": 0.4612072500000153
                },
                {
                    "name": "F4",
                    "midi": 65,
                    "time": 127.6006725000009,
                    "velocity": 0.2992125984251969,
                    "duration": 0.30747150000000545
                },
                {
                    "name": "C4",
                    "midi": 60,
                    "time": 127.9081440000009,
                    "velocity": 0.25984251968503935,
                    "duration": 0.30747150000001966
                },
                {
                    "name": "C5",
                    "midi": 72,
                    "time": 128.0618797500009,
                    "velocity": 0.4330708661417323,
                    "duration": 0.15373575000000983
                },
                {
                    "name": "A#3",
                    "midi": 58,
                    "time": 128.21561550000092,
                    "velocity": 0.31496062992125984,
                    "duration": 0.30747149999999124
                },
                {
                    "name": "C5",
                    "midi": 72,
                    "time": 128.21561550000092,
                    "velocity": 0.4645669291338583,
                    "duration": 0.9224144999999737
                },
                {
                    "name": "C4",
                    "midi": 60,
                    "time": 128.5230870000009,
                    "velocity": 0.29133858267716534,
                    "duration": 0.30747149999999124
                },
                {
                    "name": "A4",
                    "midi": 69,
                    "time": 128.8305585000009,
                    "velocity": 0.30708661417322836,
                    "duration": 0.30747149999999124
                },
                {
                    "name": "G4",
                    "midi": 67,
                    "time": 129.1380300000009,
                    "velocity": 0.2283464566929134,
                    "duration": 0.30747149999999124
                },
                {
                    "name": "A#4",
                    "midi": 70,
                    "time": 129.1380300000009,
                    "velocity": 0.3228346456692913,
                    "duration": 0.30747149999999124
                },
                {
                    "name": "A4",
                    "midi": 69,
                    "time": 129.4455015000009,
                    "velocity": 0.36220472440944884,
                    "duration": 0.30747149999999124
                },
                {
                    "name": "E4",
                    "midi": 64,
                    "time": 129.4455015000009,
                    "velocity": 0.2440944881889764,
                    "duration": 0.20498100000000363
                },
                {
                    "name": "C4",
                    "midi": 60,
                    "time": 129.6504825000009,
                    "velocity": 0.2204724409448819,
                    "duration": 0.2049809999999752
                },
                {
                    "name": "G4",
                    "midi": 67,
                    "time": 129.75297300000088,
                    "velocity": 0.3228346456692913,
                    "duration": 0.30747149999999124
                },
                {
                    "name": "A#3",
                    "midi": 58,
                    "time": 129.85546350000087,
                    "velocity": 0.2204724409448819,
                    "duration": 0.20498100000000363
                },
                {
                    "name": "F4",
                    "midi": 65,
                    "time": 130.06044450000087,
                    "velocity": 0.33070866141732286,
                    "duration": 1.2298860000000218
                },
                {
                    "name": "G#3",
                    "midi": 56,
                    "time": 130.06044450000087,
                    "velocity": 0.2283464566929134,
                    "duration": 0.21779231249999498
                },
                {
                    "name": "A3",
                    "midi": 57,
                    "time": 130.26542550000087,
                    "velocity": 0.2125984251968504,
                    "duration": 0.21779231249999498
                },
                {
                    "name": "A#3",
                    "midi": 58,
                    "time": 130.47040650000088,
                    "velocity": 0.2125984251968504,
                    "duration": 0.20498100000000363
                },
                {
                    "name": "A3",
                    "midi": 57,
                    "time": 130.67538750000088,
                    "velocity": 0.2283464566929134,
                    "duration": 0.46120725000000107
                },
                {
                    "name": "G#3",
                    "midi": 56,
                    "time": 131.9052735000009,
                    "velocity": 0.3858267716535433,
                    "duration": 0.30747149999999124
                },
                {
                    "name": "A#4",
                    "midi": 70,
                    "time": 131.9052735000009,
                    "velocity": 0.3858267716535433,
                    "duration": 1.8448289999999474
                },
                {
                    "name": "A#3",
                    "midi": 58,
                    "time": 132.2127450000009,
                    "velocity": 0.3228346456692913,
                    "duration": 0.30747149999999124
                },
                {
                    "name": "G4",
                    "midi": 67,
                    "time": 132.52021650000088,
                    "velocity": 0.3543307086614173,
                    "duration": 0.30747149999999124
                },
                {
                    "name": "F4",
                    "midi": 65,
                    "time": 132.82768800000088,
                    "velocity": 0.29133858267716534,
                    "duration": 0.30747149999999124
                },
                {
                    "name": "C4",
                    "midi": 60,
                    "time": 133.13515950000087,
                    "velocity": 0.33858267716535434,
                    "duration": 0.30747149999999124
                },
                {
                    "name": "A#3",
                    "midi": 58,
                    "time": 133.44263100000086,
                    "velocity": 0.29133858267716534,
                    "duration": 0.30747149999999124
                },
                {
                    "name": "G#3",
                    "midi": 56,
                    "time": 133.75010250000085,
                    "velocity": 0.3858267716535433,
                    "duration": 0.30747149999999124
                },
                {
                    "name": "A#4",
                    "midi": 70,
                    "time": 133.75010250000085,
                    "velocity": 0.3858267716535433,
                    "duration": 1.8448289999999474
                },
                {
                    "name": "A#3",
                    "midi": 58,
                    "time": 134.05757400000084,
                    "velocity": 0.3228346456692913,
                    "duration": 0.30747149999999124
                },
                {
                    "name": "F4",
                    "midi": 65,
                    "time": 134.36504550000083,
                    "velocity": 0.3858267716535433,
                    "duration": 0.30747149999999124
                },
                {
                    "name": "D#4",
                    "midi": 63,
                    "time": 134.67251700000082,
                    "velocity": 0.2992125984251969,
                    "duration": 0.30747149999999124
                },
                {
                    "name": "C4",
                    "midi": 60,
                    "time": 134.97998850000081,
                    "velocity": 0.36220472440944884,
                    "duration": 0.30747149999999124
                },
                {
                    "name": "A#3",
                    "midi": 58,
                    "time": 135.2874600000008,
                    "velocity": 0.2992125984251969,
                    "duration": 0.30747149999999124
                },
                {
                    "name": "A#4",
                    "midi": 70,
                    "time": 135.5949315000008,
                    "velocity": 0.4251968503937008,
                    "duration": 0.6149429999999825
                },
                {
                    "name": "G#3",
                    "midi": 56,
                    "time": 135.5949315000008,
                    "velocity": 0.4251968503937008,
                    "duration": 0.30747149999999124
                },
                {
                    "name": "E4",
                    "midi": 64,
                    "time": 135.9024030000008,
                    "velocity": 0.3700787401574803,
                    "duration": 0.30747149999999124
                },
                {
                    "name": "G#3",
                    "midi": 56,
                    "time": 136.20987450000078,
                    "velocity": 0.44881889763779526,
                    "duration": 0.30747149999999124
                },
                {
                    "name": "A#4",
                    "midi": 70,
                    "time": 136.20987450000078,
                    "velocity": 0.44881889763779526,
                    "duration": 0.6149429999999825
                },
                {
                    "name": "F4",
                    "midi": 65,
                    "time": 136.51734600000077,
                    "velocity": 0.4094488188976378,
                    "duration": 0.30747149999999124
                },
                {
                    "name": "G#3",
                    "midi": 56,
                    "time": 136.82481750000076,
                    "velocity": 0.4645669291338583,
                    "duration": 0.30747149999999124
                },
                {
                    "name": "A#4",
                    "midi": 70,
                    "time": 136.82481750000076,
                    "velocity": 0.4645669291338583,
                    "duration": 1.8448289999999474
                },
                {
                    "name": "F#4",
                    "midi": 66,
                    "time": 137.13228900000075,
                    "velocity": 0.4251968503937008,
                    "duration": 0.30747149999999124
                },
                {
                    "name": "G#3",
                    "midi": 56,
                    "time": 137.43976050000074,
                    "velocity": 0.5118110236220472,
                    "duration": 0.30747149999999124
                },
                {
                    "name": "G#4",
                    "midi": 68,
                    "time": 137.74723200000074,
                    "velocity": 0.3937007874015748,
                    "duration": 0.30747149999999124
                },
                {
                    "name": "G3",
                    "midi": 55,
                    "time": 138.05470350000073,
                    "velocity": 0.4251968503937008,
                    "duration": 0.30747149999999124
                },
                {
                    "name": "G4",
                    "midi": 67,
                    "time": 138.36217500000072,
                    "velocity": 0.3700787401574803,
                    "duration": 0.30747149999999124
                },
                {
                    "name": "D#4",
                    "midi": 63,
                    "time": 138.6696465000007,
                    "velocity": 0.2992125984251969,
                    "duration": 0.30747149999999124
                },
                {
                    "name": "D#5",
                    "midi": 75,
                    "time": 138.6696465000007,
                    "velocity": 0.4251968503937008,
                    "duration": 0.30747149999999124
                },
                {
                    "name": "F5",
                    "midi": 77,
                    "time": 138.9771180000007,
                    "velocity": 0.4566929133858268,
                    "duration": 0.30747149999999124
                },
                {
                    "name": "F4",
                    "midi": 65,
                    "time": 138.9771180000007,
                    "velocity": 0.3228346456692913,
                    "duration": 0.30747149999999124
                },
                {
                    "name": "G5",
                    "midi": 79,
                    "time": 139.2845895000007,
                    "velocity": 0.5039370078740157,
                    "duration": 1.229885999999965
                },
                {
                    "name": "G4",
                    "midi": 67,
                    "time": 139.2845895000007,
                    "velocity": 0.5039370078740157,
                    "duration": 0.30747149999999124
                },
                {
                    "name": "D#5",
                    "midi": 75,
                    "time": 139.59206100000068,
                    "velocity": 0.3543307086614173,
                    "duration": 0.30747149999999124
                },
                {
                    "name": "F5",
                    "midi": 77,
                    "time": 139.89953250000067,
                    "velocity": 0.3779527559055118,
                    "duration": 0.30747149999999124
                },
                {
                    "name": "D#5",
                    "midi": 75,
                    "time": 140.20700400000067,
                    "velocity": 0.3543307086614173,
                    "duration": 0.23060362499998632
                },
                {
                    "name": "C5",
                    "midi": 72,
                    "time": 140.43760762500065,
                    "velocity": 0.4094488188976378,
                    "duration": 0.38433937499999615
                },
                {
                    "name": "F5",
                    "midi": 77,
                    "time": 140.51447550000066,
                    "velocity": 0.4094488188976378,
                    "duration": 0.30747149999999124
                },
                {
                    "name": "D#5",
                    "midi": 75,
                    "time": 140.82194700000065,
                    "velocity": 0.3543307086614173,
                    "duration": 0.30747149999999124
                },
                {
                    "name": "G4",
                    "midi": 67,
                    "time": 140.82194700000065,
                    "velocity": 0.3543307086614173,
                    "duration": 0.30747149999999124
                },
                {
                    "name": "D5",
                    "midi": 74,
                    "time": 141.12941850000064,
                    "velocity": 0.4409448818897638,
                    "duration": 1.229885999999965
                },
                {
                    "name": "D4",
                    "midi": 62,
                    "time": 141.12941850000064,
                    "velocity": 0.4409448818897638,
                    "duration": 0.30747149999999124
                },
                {
                    "name": "A#4",
                    "midi": 70,
                    "time": 141.43689000000063,
                    "velocity": 0.33070866141732286,
                    "duration": 0.30747149999999124
                },
                {
                    "name": "C5",
                    "midi": 72,
                    "time": 141.74436150000062,
                    "velocity": 0.36220472440944884,
                    "duration": 0.30747149999999124
                },
                {
                    "name": "A#4",
                    "midi": 70,
                    "time": 142.0518330000006,
                    "velocity": 0.33858267716535434,
                    "duration": 0.23060362499998632
                },
                {
                    "name": "G4",
                    "midi": 67,
                    "time": 142.2824366250006,
                    "velocity": 0.4094488188976378,
                    "duration": 0.38433937499999615
                },
                {
                    "name": "A#4",
                    "midi": 70,
                    "time": 142.3593045000006,
                    "velocity": 0.4094488188976378,
                    "duration": 0.6149429999999825
                },
                {
                    "name": "D4",
                    "midi": 62,
                    "time": 142.6667760000006,
                    "velocity": 0.36220472440944884,
                    "duration": 0.30747149999999124
                },
                {
                    "name": "G5",
                    "midi": 79,
                    "time": 142.9742475000006,
                    "velocity": 0.4645669291338583,
                    "duration": 0.9224144999999737
                },
                {
                    "name": "G4",
                    "midi": 67,
                    "time": 142.9742475000006,
                    "velocity": 0.3937007874015748,
                    "duration": 0.30747149999999124
                },
                {
                    "name": "D#5",
                    "midi": 75,
                    "time": 143.28171900000058,
                    "velocity": 0.3543307086614173,
                    "duration": 0.30747149999999124
                },
                {
                    "name": "F5",
                    "midi": 77,
                    "time": 143.58919050000057,
                    "velocity": 0.3779527559055118,
                    "duration": 0.30747149999999124
                },
                {
                    "name": "G5",
                    "midi": 79,
                    "time": 143.89666200000056,
                    "velocity": 0.3779527559055118,
                    "duration": 0.30747149999999124
                },
                {
                    "name": "D#5",
                    "midi": 75,
                    "time": 143.89666200000056,
                    "velocity": 0.33858267716535434,
                    "duration": 0.30747149999999124
                },
                {
                    "name": "F5",
                    "midi": 77,
                    "time": 144.20413350000055,
                    "velocity": 0.4251968503937008,
                    "duration": 0.46120725000000107
                },
                {
                    "name": "C5",
                    "midi": 72,
                    "time": 144.20413350000055,
                    "velocity": 0.3543307086614173,
                    "duration": 0.30747149999999124
                },
                {
                    "name": "G4",
                    "midi": 67,
                    "time": 144.51160500000054,
                    "velocity": 0.3779527559055118,
                    "duration": 0.30747150000001966
                },
                {
                    "name": "D#5",
                    "midi": 75,
                    "time": 144.66534075000055,
                    "velocity": 0.4094488188976378,
                    "duration": 0.15373575000000983
                },
                {
                    "name": "D4",
                    "midi": 62,
                    "time": 144.81907650000056,
                    "velocity": 0.4251968503937008,
                    "duration": 0.30747149999999124
                },
                {
                    "name": "D5",
                    "midi": 74,
                    "time": 144.81907650000056,
                    "velocity": 0.4251968503937008,
                    "duration": 1.229885999999965
                },
                {
                    "name": "A#4",
                    "midi": 70,
                    "time": 145.12654800000055,
                    "velocity": 0.3543307086614173,
                    "duration": 0.30747149999999124
                },
                {
                    "name": "C5",
                    "midi": 72,
                    "time": 145.43401950000055,
                    "velocity": 0.3858267716535433,
                    "duration": 0.30747149999999124
                },
                {
                    "name": "A#4",
                    "midi": 70,
                    "time": 145.74149100000054,
                    "velocity": 0.36220472440944884,
                    "duration": 0.30747149999999124
                },
                {
                    "name": "D4",
                    "midi": 62,
                    "time": 146.04896250000053,
                    "velocity": 0.25984251968503935,
                    "duration": 0.30747149999999124
                },
                {
                    "name": "G4",
                    "midi": 67,
                    "time": 146.04896250000053,
                    "velocity": 0.3700787401574803,
                    "duration": 0.30747149999999124
                },
                {
                    "name": "C4",
                    "midi": 60,
                    "time": 146.35643400000052,
                    "velocity": 0.23622047244094488,
                    "duration": 0.30747149999999124
                },
                {
                    "name": "A4",
                    "midi": 69,
                    "time": 146.35643400000052,
                    "velocity": 0.33070866141732286,
                    "duration": 0.30747149999999124
                },
                {
                    "name": "A#3",
                    "midi": 58,
                    "time": 146.6639055000005,
                    "velocity": 0.2440944881889764,
                    "duration": 0.30747149999999124
                },
                {
                    "name": "A#4",
                    "midi": 70,
                    "time": 146.6639055000005,
                    "velocity": 0.3937007874015748,
                    "duration": 0.30747149999999124
                },
                {
                    "name": "A4",
                    "midi": 69,
                    "time": 146.9713770000005,
                    "velocity": 0.2677165354330709,
                    "duration": 0.30747149999999124
                },
                {
                    "name": "C5",
                    "midi": 72,
                    "time": 146.9713770000005,
                    "velocity": 0.3779527559055118,
                    "duration": 0.30747149999999124
                },
                {
                    "name": "G4",
                    "midi": 67,
                    "time": 147.2788485000005,
                    "velocity": 0.28346456692913385,
                    "duration": 0.30747149999999124
                },
                {
                    "name": "D5",
                    "midi": 74,
                    "time": 147.2788485000005,
                    "velocity": 0.4015748031496063,
                    "duration": 0.30747149999999124
                },
                {
                    "name": "E5",
                    "midi": 76,
                    "time": 147.58632000000048,
                    "velocity": 0.41732283464566927,
                    "duration": 0.30747149999999124
                },
                {
                    "name": "F4",
                    "midi": 65,
                    "time": 147.58632000000048,
                    "velocity": 0.2992125984251969,
                    "duration": 0.30747149999999124
                },
                {
                    "name": "F5",
                    "midi": 77,
                    "time": 147.89379150000048,
                    "velocity": 0.4409448818897638,
                    "duration": 0.30747149999999124
                },
                {
                    "name": "E4",
                    "midi": 64,
                    "time": 147.89379150000048,
                    "velocity": 0.30708661417322836,
                    "duration": 0.30747149999999124
                },
                {
                    "name": "G5",
                    "midi": 79,
                    "time": 148.20126300000047,
                    "velocity": 0.4645669291338583,
                    "duration": 0.30747149999999124
                },
                {
                    "name": "D5",
                    "midi": 74,
                    "time": 148.20126300000047,
                    "velocity": 0.33070866141732286,
                    "duration": 0.30747149999999124
                },
                {
                    "name": "A5",
                    "midi": 81,
                    "time": 148.50873450000046,
                    "velocity": 0.47244094488188976,
                    "duration": 0.30747149999999124
                },
                {
                    "name": "C5",
                    "midi": 72,
                    "time": 148.50873450000046,
                    "velocity": 0.33858267716535434,
                    "duration": 0.30747149999999124
                },
                {
                    "name": "E5",
                    "midi": 76,
                    "time": 148.81620600000045,
                    "velocity": 0.3228346456692913,
                    "duration": 0.30747149999999124
                },
                {
                    "name": "G5",
                    "midi": 79,
                    "time": 148.81620600000045,
                    "velocity": 0.4566929133858268,
                    "duration": 0.30747149999999124
                },
                {
                    "name": "A4",
                    "midi": 69,
                    "time": 149.12367750000044,
                    "velocity": 0.30708661417322836,
                    "duration": 0.30747149999999124
                },
                {
                    "name": "F5",
                    "midi": 77,
                    "time": 149.12367750000044,
                    "velocity": 0.4409448818897638,
                    "duration": 0.30747149999999124
                },
                {
                    "name": "C5",
                    "midi": 72,
                    "time": 149.43114900000043,
                    "velocity": 0.29133858267716534,
                    "duration": 0.30747149999999124
                },
                {
                    "name": "E5",
                    "midi": 76,
                    "time": 149.43114900000043,
                    "velocity": 0.4251968503937008,
                    "duration": 0.30747149999999124
                },
                {
                    "name": "D5",
                    "midi": 74,
                    "time": 149.73862050000042,
                    "velocity": 0.4015748031496063,
                    "duration": 0.30747149999999124
                },
                {
                    "name": "G4",
                    "midi": 67,
                    "time": 149.73862050000042,
                    "velocity": 0.2755905511811024,
                    "duration": 0.30747149999999124
                },
                {
                    "name": "C5",
                    "midi": 72,
                    "time": 150.0460920000004,
                    "velocity": 0.3858267716535433,
                    "duration": 0.30747149999999124
                },
                {
                    "name": "A4",
                    "midi": 69,
                    "time": 150.0460920000004,
                    "velocity": 0.2755905511811024,
                    "duration": 0.30747149999999124
                },
                {
                    "name": "A#4",
                    "midi": 70,
                    "time": 150.3535635000004,
                    "velocity": 0.3700787401574803,
                    "duration": 0.30747149999999124
                },
                {
                    "name": "E4",
                    "midi": 64,
                    "time": 150.3535635000004,
                    "velocity": 0.25984251968503935,
                    "duration": 0.30747149999999124
                },
                {
                    "name": "A4",
                    "midi": 69,
                    "time": 150.6610350000004,
                    "velocity": 0.31496062992125984,
                    "duration": 0.30747149999999124
                },
                {
                    "name": "F4",
                    "midi": 65,
                    "time": 150.6610350000004,
                    "velocity": 0.2204724409448819,
                    "duration": 0.30747149999999124
                },
                {
                    "name": "C#4",
                    "midi": 61,
                    "time": 150.9685065000004,
                    "velocity": 0.25984251968503935,
                    "duration": 0.30747149999999124
                },
                {
                    "name": "G4",
                    "midi": 67,
                    "time": 150.9685065000004,
                    "velocity": 0.36220472440944884,
                    "duration": 0.30747149999999124
                },
                {
                    "name": "D4",
                    "midi": 62,
                    "time": 151.27597800000038,
                    "velocity": 0.2204724409448819,
                    "duration": 0.30747149999999124
                },
                {
                    "name": "F4",
                    "midi": 65,
                    "time": 151.27597800000038,
                    "velocity": 0.31496062992125984,
                    "duration": 0.30747149999999124
                },
                {
                    "name": "A4",
                    "midi": 69,
                    "time": 151.58344950000037,
                    "velocity": 0.3543307086614173,
                    "duration": 0.30747149999999124
                },
                {
                    "name": "D#4",
                    "midi": 63,
                    "time": 151.58344950000037,
                    "velocity": 0.25196850393700787,
                    "duration": 0.30747149999999124
                },
                {
                    "name": "G4",
                    "midi": 67,
                    "time": 151.89092100000036,
                    "velocity": 0.31496062992125984,
                    "duration": 0.30747149999999124
                },
                {
                    "name": "E4",
                    "midi": 64,
                    "time": 151.89092100000036,
                    "velocity": 0.2204724409448819,
                    "duration": 0.30747149999999124
                },
                {
                    "name": "C4",
                    "midi": 60,
                    "time": 152.19839250000035,
                    "velocity": 0.2440944881889764,
                    "duration": 0.30747149999999124
                },
                {
                    "name": "F4",
                    "midi": 65,
                    "time": 152.19839250000035,
                    "velocity": 0.33858267716535434,
                    "duration": 0.30747149999999124
                },
                {
                    "name": "D#4",
                    "midi": 63,
                    "time": 152.50586400000034,
                    "velocity": 0.18110236220472442,
                    "duration": 0.30747149999999124
                },
                {
                    "name": "F#4",
                    "midi": 66,
                    "time": 152.50586400000034,
                    "velocity": 0.2677165354330709,
                    "duration": 0.30747149999999124
                },
                {
                    "name": "G4",
                    "midi": 67,
                    "time": 152.81333550000033,
                    "velocity": 0.25984251968503935,
                    "duration": 0.15373575000000983
                },
                {
                    "name": "C4",
                    "midi": 60,
                    "time": 152.81333550000033,
                    "velocity": 0.18110236220472442,
                    "duration": 0.15373575000000983
                },
                {
                    "name": "D#4",
                    "midi": 63,
                    "time": 152.96707125000034,
                    "velocity": 0.14960629921259844,
                    "duration": 0.15373575000000983
                },
                {
                    "name": "G#4",
                    "midi": 68,
                    "time": 152.96707125000034,
                    "velocity": 0.2204724409448819,
                    "duration": 0.15373575000000983
                },
                {
                    "name": "D4",
                    "midi": 62,
                    "time": 153.12080700000035,
                    "velocity": 0.18110236220472442,
                    "duration": 0.15373575000000983
                },
                {
                    "name": "A4",
                    "midi": 69,
                    "time": 153.12080700000035,
                    "velocity": 0.25984251968503935,
                    "duration": 0.15373575000000983
                },
                {
                    "name": "C4",
                    "midi": 60,
                    "time": 153.27454275000036,
                    "velocity": 0.14960629921259844,
                    "duration": 0.11530181250000737
                },
                {
                    "name": "F4",
                    "midi": 65,
                    "time": 153.27454275000036,
                    "velocity": 0.2204724409448819,
                    "duration": 0.11530181250000737
                },
                {
                    "name": "A#3",
                    "midi": 58,
                    "time": 153.42827850000037,
                    "velocity": 0.2125984251968504,
                    "duration": 0.30747149999999124
                },
                {
                    "name": "A#4",
                    "midi": 70,
                    "time": 153.42827850000037,
                    "velocity": 0.2992125984251969,
                    "duration": 0.30747149999999124
                },
                {
                    "name": "C5",
                    "midi": 72,
                    "time": 153.73575000000037,
                    "velocity": 0.2992125984251969,
                    "duration": 0.30747149999999124
                },
                {
                    "name": "C4",
                    "midi": 60,
                    "time": 153.73575000000037,
                    "velocity": 0.2125984251968504,
                    "duration": 0.30747149999999124
                },
                {
                    "name": "D4",
                    "midi": 62,
                    "time": 154.04322150000036,
                    "velocity": 0.2204724409448819,
                    "duration": 0.30747149999999124
                },
                {
                    "name": "D5",
                    "midi": 74,
                    "time": 154.04322150000036,
                    "velocity": 0.30708661417322836,
                    "duration": 0.30747149999999124
                },
                {
                    "name": "F5",
                    "midi": 77,
                    "time": 154.35069300000035,
                    "velocity": 0.3779527559055118,
                    "duration": 0.30747149999999124
                },
                {
                    "name": "F4",
                    "midi": 65,
                    "time": 154.35069300000035,
                    "velocity": 0.23622047244094488,
                    "duration": 0.30747149999999124
                },
                {
                    "name": "G5",
                    "midi": 79,
                    "time": 154.65816450000034,
                    "velocity": 0.4251968503937008,
                    "duration": 0.30747149999999124
                },
                {
                    "name": "G4",
                    "midi": 67,
                    "time": 154.65816450000034,
                    "velocity": 0.25196850393700787,
                    "duration": 0.30747149999999124
                },
                {
                    "name": "F5",
                    "midi": 77,
                    "time": 154.96563600000033,
                    "velocity": 0.29133858267716534,
                    "duration": 0.30747149999999124
                },
                {
                    "name": "F4",
                    "midi": 65,
                    "time": 154.96563600000033,
                    "velocity": 0.2047244094488189,
                    "duration": 0.30747149999999124
                },
                {
                    "name": "D4",
                    "midi": 62,
                    "time": 155.27310750000032,
                    "velocity": 0.2204724409448819,
                    "duration": 0.30747149999999124
                },
                {
                    "name": "D5",
                    "midi": 74,
                    "time": 155.27310750000032,
                    "velocity": 0.30708661417322836,
                    "duration": 0.30747149999999124
                },
                {
                    "name": "A#4",
                    "midi": 70,
                    "time": 155.5805790000003,
                    "velocity": 0.2755905511811024,
                    "duration": 0.30747149999999124
                },
                {
                    "name": "A#3",
                    "midi": 58,
                    "time": 155.5805790000003,
                    "velocity": 0.1889763779527559,
                    "duration": 0.30747149999999124
                },
                {
                    "name": "A3",
                    "midi": 57,
                    "time": 155.8880505000003,
                    "velocity": 0.18110236220472442,
                    "duration": 1.2298859999999934
                },
                {
                    "name": "C4",
                    "midi": 60,
                    "time": 155.8880505000003,
                    "velocity": 0.18110236220472442,
                    "duration": 1.2298859999999934
                },
                {
                    "name": "F4",
                    "midi": 65,
                    "time": 155.8880505000003,
                    "velocity": 0.2677165354330709,
                    "duration": 1.2298859999999934
                },
                {
                    "name": "A#3",
                    "midi": 58,
                    "time": 157.1179365000003,
                    "velocity": 0.23622047244094488,
                    "duration": 0.30747149999999124
                },
                {
                    "name": "A#4",
                    "midi": 70,
                    "time": 157.1179365000003,
                    "velocity": 0.33858267716535434,
                    "duration": 0.30747149999999124
                },
                {
                    "name": "C4",
                    "midi": 60,
                    "time": 157.4254080000003,
                    "velocity": 0.23622047244094488,
                    "duration": 0.30747149999999124
                },
                {
                    "name": "C5",
                    "midi": 72,
                    "time": 157.4254080000003,
                    "velocity": 0.33858267716535434,
                    "duration": 0.30747149999999124
                },
                {
                    "name": "D5",
                    "midi": 74,
                    "time": 157.73287950000028,
                    "velocity": 0.3464566929133858,
                    "duration": 0.30747149999999124
                },
                {
                    "name": "D4",
                    "midi": 62,
                    "time": 157.73287950000028,
                    "velocity": 0.2440944881889764,
                    "duration": 0.30747149999999124
                },
                {
                    "name": "F4",
                    "midi": 65,
                    "time": 158.04035100000027,
                    "velocity": 0.2677165354330709,
                    "duration": 0.30747149999999124
                },
                {
                    "name": "F5",
                    "midi": 77,
                    "time": 158.04035100000027,
                    "velocity": 0.4251968503937008,
                    "duration": 0.30747149999999124
                },
                {
                    "name": "G4",
                    "midi": 67,
                    "time": 158.34782250000026,
                    "velocity": 0.28346456692913385,
                    "duration": 0.30747149999999124
                },
                {
                    "name": "G5",
                    "midi": 79,
                    "time": 158.34782250000026,
                    "velocity": 0.44881889763779526,
                    "duration": 0.30747149999999124
                },
                {
                    "name": "F5",
                    "midi": 77,
                    "time": 158.65529400000025,
                    "velocity": 0.33070866141732286,
                    "duration": 0.30747149999999124
                },
                {
                    "name": "F4",
                    "midi": 65,
                    "time": 158.65529400000025,
                    "velocity": 0.2283464566929134,
                    "duration": 0.30747149999999124
                },
                {
                    "name": "D5",
                    "midi": 74,
                    "time": 158.96276550000024,
                    "velocity": 0.3464566929133858,
                    "duration": 0.30747149999999124
                },
                {
                    "name": "D4",
                    "midi": 62,
                    "time": 158.96276550000024,
                    "velocity": 0.2440944881889764,
                    "duration": 0.30747149999999124
                },
                {
                    "name": "A#3",
                    "midi": 58,
                    "time": 159.27023700000024,
                    "velocity": 0.2204724409448819,
                    "duration": 0.30747149999999124
                },
                {
                    "name": "A#4",
                    "midi": 70,
                    "time": 159.27023700000024,
                    "velocity": 0.30708661417322836,
                    "duration": 0.30747149999999124
                },
                {
                    "name": "C4",
                    "midi": 60,
                    "time": 159.57770850000023,
                    "velocity": 0.2125984251968504,
                    "duration": 1.2298859999999934
                },
                {
                    "name": "A3",
                    "midi": 57,
                    "time": 159.57770850000023,
                    "velocity": 0.2125984251968504,
                    "duration": 1.2298859999999934
                },
                {
                    "name": "F4",
                    "midi": 65,
                    "time": 159.57770850000023,
                    "velocity": 0.3937007874015748,
                    "duration": 1.2298859999999934
                },
                {
                    "name": "A#4",
                    "midi": 70,
                    "time": 160.80759450000022,
                    "velocity": 0.3700787401574803,
                    "duration": 0.30747149999999124
                },
                {
                    "name": "A#3",
                    "midi": 58,
                    "time": 160.80759450000022,
                    "velocity": 0.25984251968503935,
                    "duration": 0.30747149999999124
                },
                {
                    "name": "C5",
                    "midi": 72,
                    "time": 161.1150660000002,
                    "velocity": 0.3858267716535433,
                    "duration": 0.30747149999999124
                },
                {
                    "name": "C4",
                    "midi": 60,
                    "time": 161.1150660000002,
                    "velocity": 0.2677165354330709,
                    "duration": 0.30747149999999124
                },
                {
                    "name": "D5",
                    "midi": 74,
                    "time": 161.4225375000002,
                    "velocity": 0.4015748031496063,
                    "duration": 0.30747149999999124
                },
                {
                    "name": "D4",
                    "midi": 62,
                    "time": 161.4225375000002,
                    "velocity": 0.28346456692913385,
                    "duration": 0.30747149999999124
                },
                {
                    "name": "D#4",
                    "midi": 63,
                    "time": 161.7300090000002,
                    "velocity": 0.29133858267716534,
                    "duration": 0.30747149999999124
                },
                {
                    "name": "D#5",
                    "midi": 75,
                    "time": 161.7300090000002,
                    "velocity": 0.41732283464566927,
                    "duration": 0.30747149999999124
                },
                {
                    "name": "F5",
                    "midi": 77,
                    "time": 162.03748050000019,
                    "velocity": 0.44881889763779526,
                    "duration": 0.30747149999999124
                },
                {
                    "name": "F4",
                    "midi": 65,
                    "time": 162.03748050000019,
                    "velocity": 0.31496062992125984,
                    "duration": 0.30747149999999124
                },
                {
                    "name": "F#5",
                    "midi": 78,
                    "time": 162.34495200000018,
                    "velocity": 0.4881889763779528,
                    "duration": 0.30747149999999124
                },
                {
                    "name": "F#4",
                    "midi": 66,
                    "time": 162.34495200000018,
                    "velocity": 0.33070866141732286,
                    "duration": 0.30747149999999124
                },
                {
                    "name": "G5",
                    "midi": 79,
                    "time": 162.65242350000017,
                    "velocity": 0.5354330708661418,
                    "duration": 0.30747149999999124
                },
                {
                    "name": "G4",
                    "midi": 67,
                    "time": 162.65242350000017,
                    "velocity": 0.3700787401574803,
                    "duration": 0.30747149999999124
                },
                {
                    "name": "F5",
                    "midi": 77,
                    "time": 162.95989500000016,
                    "velocity": 0.44881889763779526,
                    "duration": 0.30747149999999124
                },
                {
                    "name": "F4",
                    "midi": 65,
                    "time": 162.95989500000016,
                    "velocity": 0.31496062992125984,
                    "duration": 0.30747149999999124
                },
                {
                    "name": "E4",
                    "midi": 64,
                    "time": 163.26736650000015,
                    "velocity": 0.30708661417322836,
                    "duration": 0.30747149999999124
                },
                {
                    "name": "E5",
                    "midi": 76,
                    "time": 163.26736650000015,
                    "velocity": 0.4330708661417323,
                    "duration": 0.30747149999999124
                },
                {
                    "name": "D5",
                    "midi": 74,
                    "time": 163.57483800000014,
                    "velocity": 0.41732283464566927,
                    "duration": 0.30747149999999124
                },
                {
                    "name": "D4",
                    "midi": 62,
                    "time": 163.57483800000014,
                    "velocity": 0.29133858267716534,
                    "duration": 0.30747149999999124
                },
                {
                    "name": "C4",
                    "midi": 60,
                    "time": 163.88230950000013,
                    "velocity": 0.2677165354330709,
                    "duration": 0.30747149999999124
                },
                {
                    "name": "C5",
                    "midi": 72,
                    "time": 163.88230950000013,
                    "velocity": 0.3937007874015748,
                    "duration": 0.30747149999999124
                },
                {
                    "name": "D5",
                    "midi": 74,
                    "time": 164.18978100000012,
                    "velocity": 0.3700787401574803,
                    "duration": 0.30747149999999124
                },
                {
                    "name": "D4",
                    "midi": 62,
                    "time": 164.18978100000012,
                    "velocity": 0.25984251968503935,
                    "duration": 0.30747149999999124
                },
                {
                    "name": "C5",
                    "midi": 72,
                    "time": 164.49725250000012,
                    "velocity": 0.3543307086614173,
                    "duration": 0.30747149999999124
                },
                {
                    "name": "C4",
                    "midi": 60,
                    "time": 164.49725250000012,
                    "velocity": 0.25196850393700787,
                    "duration": 0.30747149999999124
                },
                {
                    "name": "D4",
                    "midi": 62,
                    "time": 164.8047240000001,
                    "velocity": 0.2283464566929134,
                    "duration": 0.30747149999999124
                },
                {
                    "name": "D5",
                    "midi": 74,
                    "time": 164.8047240000001,
                    "velocity": 0.33070866141732286,
                    "duration": 0.30747149999999124
                },
                {
                    "name": "E5",
                    "midi": 76,
                    "time": 165.1121955000001,
                    "velocity": 0.4015748031496063,
                    "duration": 0.30747149999999124
                },
                {
                    "name": "E4",
                    "midi": 64,
                    "time": 165.1121955000001,
                    "velocity": 0.28346456692913385,
                    "duration": 0.30747149999999124
                },
                {
                    "name": "F4",
                    "midi": 65,
                    "time": 165.4196670000001,
                    "velocity": 0.29133858267716534,
                    "duration": 0.30747149999999124
                },
                {
                    "name": "F5",
                    "midi": 77,
                    "time": 165.4196670000001,
                    "velocity": 0.4094488188976378,
                    "duration": 0.30747149999999124
                },
                {
                    "name": "F#4",
                    "midi": 66,
                    "time": 165.72713850000008,
                    "velocity": 0.30708661417322836,
                    "duration": 0.30747149999999124
                },
                {
                    "name": "F#5",
                    "midi": 78,
                    "time": 165.72713850000008,
                    "velocity": 0.4566929133858268,
                    "duration": 0.30747149999999124
                },
                {
                    "name": "G4",
                    "midi": 67,
                    "time": 166.03461000000007,
                    "velocity": 0.31496062992125984,
                    "duration": 0.30747149999999124
                },
                {
                    "name": "G5",
                    "midi": 79,
                    "time": 166.03461000000007,
                    "velocity": 0.47244094488188976,
                    "duration": 0.30747149999999124
                },
                {
                    "name": "A5",
                    "midi": 81,
                    "time": 166.34208150000006,
                    "velocity": 0.5039370078740157,
                    "duration": 0.30747149999999124
                },
                {
                    "name": "A4",
                    "midi": 69,
                    "time": 166.34208150000006,
                    "velocity": 0.33858267716535434,
                    "duration": 0.30747149999999124
                },
                {
                    "name": "G5",
                    "midi": 79,
                    "time": 166.64955300000005,
                    "velocity": 0.4330708661417323,
                    "duration": 0.30747149999999124
                },
                {
                    "name": "G4",
                    "midi": 67,
                    "time": 166.64955300000005,
                    "velocity": 0.30708661417322836,
                    "duration": 0.30747149999999124
                },
                {
                    "name": "F5",
                    "midi": 77,
                    "time": 166.95702450000005,
                    "velocity": 0.4330708661417323,
                    "duration": 0.30747149999999124
                },
                {
                    "name": "F4",
                    "midi": 65,
                    "time": 166.95702450000005,
                    "velocity": 0.30708661417322836,
                    "duration": 0.30747149999999124
                },
                {
                    "name": "D#4",
                    "midi": 63,
                    "time": 167.26449600000004,
                    "velocity": 0.29133858267716534,
                    "duration": 0.30747149999999124
                },
                {
                    "name": "D#5",
                    "midi": 75,
                    "time": 167.26449600000004,
                    "velocity": 0.41732283464566927,
                    "duration": 0.30747149999999124
                },
                {
                    "name": "D4",
                    "midi": 62,
                    "time": 167.57196750000003,
                    "velocity": 0.2677165354330709,
                    "duration": 0.30747149999999124
                },
                {
                    "name": "D5",
                    "midi": 74,
                    "time": 167.57196750000003,
                    "velocity": 0.3937007874015748,
                    "duration": 0.30747149999999124
                },
                {
                    "name": "C4",
                    "midi": 60,
                    "time": 167.87943900000002,
                    "velocity": 0.25984251968503935,
                    "duration": 0.30747149999999124
                },
                {
                    "name": "C5",
                    "midi": 72,
                    "time": 167.87943900000002,
                    "velocity": 0.3700787401574803,
                    "duration": 0.30747149999999124
                },
                {
                    "name": "A#4",
                    "midi": 70,
                    "time": 168.1869105,
                    "velocity": 0.3700787401574803,
                    "duration": 0.30747149999999124
                },
                {
                    "name": "A#3",
                    "midi": 58,
                    "time": 168.1869105,
                    "velocity": 0.25984251968503935,
                    "duration": 0.30747149999999124
                },
                {
                    "name": "C4",
                    "midi": 60,
                    "time": 168.494382,
                    "velocity": 0.2283464566929134,
                    "duration": 0.30747149999999124
                },
                {
                    "name": "C5",
                    "midi": 72,
                    "time": 168.494382,
                    "velocity": 0.33070866141732286,
                    "duration": 0.30747149999999124
                },
                {
                    "name": "D4",
                    "midi": 62,
                    "time": 168.8018535,
                    "velocity": 0.30708661417322836,
                    "duration": 0.30747149999999124
                },
                {
                    "name": "D5",
                    "midi": 74,
                    "time": 168.8018535,
                    "velocity": 0.3700787401574803,
                    "duration": 1.229885999999965
                },
                {
                    "name": "C5",
                    "midi": 72,
                    "time": 169.10932499999998,
                    "velocity": 0.4094488188976378,
                    "duration": 0.30747149999999124
                },
                {
                    "name": "A#4",
                    "midi": 70,
                    "time": 169.41679649999998,
                    "velocity": 0.3858267716535433,
                    "duration": 0.30747149999999124
                },
                {
                    "name": "A4",
                    "midi": 69,
                    "time": 169.72426799999997,
                    "velocity": 0.3464566929133858,
                    "duration": 0.30747149999999124
                },
                {
                    "name": "D#5",
                    "midi": 75,
                    "time": 170.03173949999996,
                    "velocity": 0.3858267716535433,
                    "duration": 0.30747149999999124
                },
                {
                    "name": "G4",
                    "midi": 67,
                    "time": 170.03173949999996,
                    "velocity": 0.2677165354330709,
                    "duration": 0.30747149999999124
                },
                {
                    "name": "F5",
                    "midi": 77,
                    "time": 170.33921099999995,
                    "velocity": 0.4094488188976378,
                    "duration": 0.30747149999999124
                },
                {
                    "name": "F4",
                    "midi": 65,
                    "time": 170.33921099999995,
                    "velocity": 0.29133858267716534,
                    "duration": 0.30747149999999124
                },
                {
                    "name": "D#4",
                    "midi": 63,
                    "time": 170.64668249999994,
                    "velocity": 0.3700787401574803,
                    "duration": 0.30747149999999124
                },
                {
                    "name": "G5",
                    "midi": 79,
                    "time": 170.64668249999994,
                    "velocity": 0.4409448818897638,
                    "duration": 0.9224144999999737
                },
                {
                    "name": "F4",
                    "midi": 65,
                    "time": 170.95415399999993,
                    "velocity": 0.33858267716535434,
                    "duration": 0.30747149999999124
                },
                {
                    "name": "G4",
                    "midi": 67,
                    "time": 171.26162549999992,
                    "velocity": 0.3700787401574803,
                    "duration": 0.30747149999999124
                },
                {
                    "name": "F5",
                    "midi": 77,
                    "time": 171.5690969999999,
                    "velocity": 0.41732283464566927,
                    "duration": 0.30747149999999124
                },
                {
                    "name": "A4",
                    "midi": 69,
                    "time": 171.5690969999999,
                    "velocity": 0.2992125984251969,
                    "duration": 0.30747149999999124
                },
                {
                    "name": "A#4",
                    "midi": 70,
                    "time": 171.8765684999999,
                    "velocity": 0.28346456692913385,
                    "duration": 0.30747149999999124
                },
                {
                    "name": "D#5",
                    "midi": 75,
                    "time": 171.8765684999999,
                    "velocity": 0.4015748031496063,
                    "duration": 0.30747149999999124
                },
                {
                    "name": "D5",
                    "midi": 74,
                    "time": 172.1840399999999,
                    "velocity": 0.3937007874015748,
                    "duration": 0.30747149999999124
                },
                {
                    "name": "B4",
                    "midi": 71,
                    "time": 172.1840399999999,
                    "velocity": 0.2755905511811024,
                    "duration": 0.30747149999999124
                },
                {
                    "name": "C5",
                    "midi": 72,
                    "time": 172.4915114999999,
                    "velocity": 0.4094488188976378,
                    "duration": 0.6149429999999825
                },
                {
                    "name": "A#4",
                    "midi": 70,
                    "time": 172.79898299999988,
                    "velocity": 0.3858267716535433,
                    "duration": 0.30747149999999124
                },
                {
                    "name": "C5",
                    "midi": 72,
                    "time": 173.10645449999987,
                    "velocity": 0.3858267716535433,
                    "duration": 0.30747149999999124
                },
                {
                    "name": "A4",
                    "midi": 69,
                    "time": 173.10645449999987,
                    "velocity": 0.25984251968503935,
                    "duration": 0.30747149999999124
                },
                {
                    "name": "D5",
                    "midi": 74,
                    "time": 173.41392599999986,
                    "velocity": 0.3779527559055118,
                    "duration": 0.30747149999999124
                },
                {
                    "name": "G4",
                    "midi": 67,
                    "time": 173.41392599999986,
                    "velocity": 0.2440944881889764,
                    "duration": 0.30747149999999124
                },
                {
                    "name": "D#5",
                    "midi": 75,
                    "time": 173.72139749999985,
                    "velocity": 0.3937007874015748,
                    "duration": 0.6149429999999825
                },
                {
                    "name": "F4",
                    "midi": 65,
                    "time": 173.72139749999985,
                    "velocity": 0.33070866141732286,
                    "duration": 0.30747149999999124
                },
                {
                    "name": "D#4",
                    "midi": 63,
                    "time": 174.02886899999984,
                    "velocity": 0.3700787401574803,
                    "duration": 0.30747149999999124
                },
                {
                    "name": "F5",
                    "midi": 77,
                    "time": 174.33634049999984,
                    "velocity": 0.4251968503937008,
                    "duration": 0.9224144999999737
                },
                {
                    "name": "D4",
                    "midi": 62,
                    "time": 174.33634049999984,
                    "velocity": 0.3543307086614173,
                    "duration": 0.30747149999999124
                },
                {
                    "name": "D#4",
                    "midi": 63,
                    "time": 174.64381199999983,
                    "velocity": 0.3700787401574803,
                    "duration": 0.30747149999999124
                },
                {
                    "name": "F4",
                    "midi": 65,
                    "time": 174.95128349999982,
                    "velocity": 0.3700787401574803,
                    "duration": 0.30747149999999124
                },
                {
                    "name": "G4",
                    "midi": 67,
                    "time": 175.2587549999998,
                    "velocity": 0.25984251968503935,
                    "duration": 0.30747149999999124
                },
                {
                    "name": "D#5",
                    "midi": 75,
                    "time": 175.2587549999998,
                    "velocity": 0.36220472440944884,
                    "duration": 0.30747149999999124
                },
                {
                    "name": "G#4",
                    "midi": 68,
                    "time": 175.5662264999998,
                    "velocity": 0.25984251968503935,
                    "duration": 0.30747149999999124
                },
                {
                    "name": "D5",
                    "midi": 74,
                    "time": 175.5662264999998,
                    "velocity": 0.3700787401574803,
                    "duration": 0.30747149999999124
                },
                {
                    "name": "A4",
                    "midi": 69,
                    "time": 175.8736979999998,
                    "velocity": 0.2440944881889764,
                    "duration": 0.30747149999999124
                },
                {
                    "name": "C5",
                    "midi": 72,
                    "time": 175.8736979999998,
                    "velocity": 0.3464566929133858,
                    "duration": 0.30747149999999124
                },
                {
                    "name": "A#4",
                    "midi": 70,
                    "time": 176.18116949999978,
                    "velocity": 0.3700787401574803,
                    "duration": 0.538075125000006
                },
                {
                    "name": "A4",
                    "midi": 69,
                    "time": 176.48864099999977,
                    "velocity": 0.30708661417322836,
                    "duration": 0.15373575000000983
                },
                {
                    "name": "A#4",
                    "midi": 70,
                    "time": 176.64237674999978,
                    "velocity": 0.2992125984251969,
                    "duration": 0.15373575000000983
                },
                {
                    "name": "C5",
                    "midi": 72,
                    "time": 176.7192446249998,
                    "velocity": 0.29133858267716534,
                    "duration": 0.07686787500000491
                },
                {
                    "name": "G4",
                    "midi": 67,
                    "time": 176.7961124999998,
                    "velocity": 0.2125984251968504,
                    "duration": 0.30747149999999124
                },
                {
                    "name": "A#4",
                    "midi": 70,
                    "time": 176.7961124999998,
                    "velocity": 0.3779527559055118,
                    "duration": 0.30747149999999124
                },
                {
                    "name": "F4",
                    "midi": 65,
                    "time": 177.10358399999978,
                    "velocity": 0.2204724409448819,
                    "duration": 0.30747149999999124
                },
                {
                    "name": "C5",
                    "midi": 72,
                    "time": 177.10358399999978,
                    "velocity": 0.3858267716535433,
                    "duration": 0.30747149999999124
                },
                {
                    "name": "D#4",
                    "midi": 63,
                    "time": 177.41105549999978,
                    "velocity": 0.3937007874015748,
                    "duration": 0.30747149999999124
                },
                {
                    "name": "D5",
                    "midi": 74,
                    "time": 177.41105549999978,
                    "velocity": 0.4015748031496063,
                    "duration": 0.6149429999999825
                },
                {
                    "name": "D4",
                    "midi": 62,
                    "time": 177.71852699999977,
                    "velocity": 0.3464566929133858,
                    "duration": 0.30747149999999124
                },
                {
                    "name": "C4",
                    "midi": 60,
                    "time": 178.02599849999976,
                    "velocity": 0.23622047244094488,
                    "duration": 0.30747149999999124
                },
                {
                    "name": "D#5",
                    "midi": 75,
                    "time": 178.02599849999976,
                    "velocity": 0.4015748031496063,
                    "duration": 0.30747149999999124
                },
                {
                    "name": "D5",
                    "midi": 74,
                    "time": 178.33346999999975,
                    "velocity": 0.3937007874015748,
                    "duration": 0.30747149999999124
                },
                {
                    "name": "D4",
                    "midi": 62,
                    "time": 178.33346999999975,
                    "velocity": 0.2283464566929134,
                    "duration": 0.30747149999999124
                },
                {
                    "name": "D#4",
                    "midi": 63,
                    "time": 178.64094149999974,
                    "velocity": 0.2204724409448819,
                    "duration": 0.30747149999999124
                },
                {
                    "name": "C5",
                    "midi": 72,
                    "time": 178.64094149999974,
                    "velocity": 0.3779527559055118,
                    "duration": 0.30747149999999124
                },
                {
                    "name": "A#4",
                    "midi": 70,
                    "time": 178.94841299999973,
                    "velocity": 0.3700787401574803,
                    "duration": 0.30747149999999124
                },
                {
                    "name": "E4",
                    "midi": 64,
                    "time": 178.94841299999973,
                    "velocity": 0.2204724409448819,
                    "duration": 0.30747149999999124
                },
                {
                    "name": "A4",
                    "midi": 69,
                    "time": 179.25588449999972,
                    "velocity": 0.36220472440944884,
                    "duration": 0.30747149999999124
                },
                {
                    "name": "F4",
                    "midi": 65,
                    "time": 179.25588449999972,
                    "velocity": 0.2204724409448819,
                    "duration": 0.30747149999999124
                },
                {
                    "name": "G4",
                    "midi": 67,
                    "time": 179.56335599999971,
                    "velocity": 0.3464566929133858,
                    "duration": 0.30747149999999124
                },
                {
                    "name": "D#4",
                    "midi": 63,
                    "time": 179.56335599999971,
                    "velocity": 0.2047244094488189,
                    "duration": 0.30747149999999124
                },
                {
                    "name": "D4",
                    "midi": 62,
                    "time": 179.8708274999997,
                    "velocity": 0.18110236220472442,
                    "duration": 0.30747149999999124
                },
                {
                    "name": "F4",
                    "midi": 65,
                    "time": 179.8708274999997,
                    "velocity": 0.3228346456692913,
                    "duration": 0.30747149999999124
                },
                {
                    "name": "D#4",
                    "midi": 63,
                    "time": 180.1782989999997,
                    "velocity": 0.31496062992125984,
                    "duration": 0.30747149999999124
                },
                {
                    "name": "C4",
                    "midi": 60,
                    "time": 180.1782989999997,
                    "velocity": 0.18110236220472442,
                    "duration": 0.30747149999999124
                },
                {
                    "name": "A#3",
                    "midi": 58,
                    "time": 180.4857704999997,
                    "velocity": 0.18110236220472442,
                    "duration": 0.30747149999999124
                },
                {
                    "name": "D4",
                    "midi": 62,
                    "time": 180.4857704999997,
                    "velocity": 0.30708661417322836,
                    "duration": 0.30747149999999124
                },
                {
                    "name": "C4",
                    "midi": 60,
                    "time": 180.79324199999968,
                    "velocity": 0.2992125984251969,
                    "duration": 0.30747149999999124
                },
                {
                    "name": "A3",
                    "midi": 57,
                    "time": 180.79324199999968,
                    "velocity": 0.1732283464566929,
                    "duration": 0.30747149999999124
                },
                {
                    "name": "G3",
                    "midi": 55,
                    "time": 181.10071349999967,
                    "velocity": 0.16535433070866143,
                    "duration": 0.15373575000000983
                },
                {
                    "name": "A#3",
                    "midi": 58,
                    "time": 181.10071349999967,
                    "velocity": 0.28346456692913385,
                    "duration": 0.15373575000000983
                },
                {
                    "name": "F3",
                    "midi": 53,
                    "time": 181.25444924999968,
                    "velocity": 0.14173228346456693,
                    "duration": 0.15373575000000983
                },
                {
                    "name": "A3",
                    "midi": 57,
                    "time": 181.25444924999968,
                    "velocity": 0.2440944881889764,
                    "duration": 0.15373575000000983
                },
                {
                    "name": "G3",
                    "midi": 55,
                    "time": 181.4081849999997,
                    "velocity": 0.25984251968503935,
                    "duration": 0.15373575000000983
                },
                {
                    "name": "D#3",
                    "midi": 51,
                    "time": 181.4081849999997,
                    "velocity": 0.14960629921259844,
                    "duration": 0.15373575000000983
                },
                {
                    "name": "D3",
                    "midi": 50,
                    "time": 181.5619207499997,
                    "velocity": 0.14960629921259844,
                    "duration": 0.15373575000000983
                },
                {
                    "name": "F3",
                    "midi": 53,
                    "time": 181.5619207499997,
                    "velocity": 0.2677165354330709,
                    "duration": 0.15373575000000983
                },
                {
                    "name": "D#3",
                    "midi": 51,
                    "time": 181.7156564999997,
                    "velocity": 0.2992125984251969,
                    "duration": 1.8448290000000043
                },
                {
                    "name": "C3",
                    "midi": 48,
                    "time": 181.7156564999997,
                    "velocity": 0.1732283464566929,
                    "duration": 1.8448290000000043
                },
                {
                    "name": "F3",
                    "midi": 53,
                    "time": 183.56048549999971,
                    "velocity": 0.2125984251968504,
                    "duration": 0.9224145000000021
                },
                {
                    "name": "A#3",
                    "midi": 58,
                    "time": 183.56048549999971,
                    "velocity": 0.2125984251968504,
                    "duration": 0.9224145000000021
                },
                {
                    "name": "F4",
                    "midi": 65,
                    "time": 183.56048549999971,
                    "velocity": 0.2992125984251969,
                    "duration": 0.9224145000000021
                },
                {
                    "name": "D#4",
                    "midi": 63,
                    "time": 184.7903714999997,
                    "velocity": 0.3779527559055118,
                    "duration": 0.4612072500000295
                },
                {
                    "name": "D#3",
                    "midi": 51,
                    "time": 184.94410724999972,
                    "velocity": 0.3228346456692913,
                    "duration": 0.15373575000000983
                },
                {
                    "name": "A#3",
                    "midi": 58,
                    "time": 185.09784299999973,
                    "velocity": 0.3779527559055118,
                    "duration": 0.15373575000000983
                },
                {
                    "name": "D4",
                    "midi": 62,
                    "time": 185.25157874999974,
                    "velocity": 0.29133858267716534,
                    "duration": 0.15373575000000983
                },
                {
                    "name": "C4",
                    "midi": 60,
                    "time": 185.40531449999975,
                    "velocity": 0.3858267716535433,
                    "duration": 0.4612072500000295
                },
                {
                    "name": "D#3",
                    "midi": 51,
                    "time": 185.55905024999976,
                    "velocity": 0.31496062992125984,
                    "duration": 0.15373575000000983
                },
                {
                    "name": "A3",
                    "midi": 57,
                    "time": 185.71278599999977,
                    "velocity": 0.31496062992125984,
                    "duration": 0.15373575000000983
                },
                {
                    "name": "C4",
                    "midi": 60,
                    "time": 185.86652174999978,
                    "velocity": 0.31496062992125984,
                    "duration": 0.15373575000000983
                },
                {
                    "name": "D#4",
                    "midi": 63,
                    "time": 186.0202574999998,
                    "velocity": 0.3700787401574803,
                    "duration": 0.6149430000000393
                },
                {
                    "name": "A4",
                    "midi": 69,
                    "time": 186.1739932499998,
                    "velocity": 0.31496062992125984,
                    "duration": 0.15373575000000983
                },
                {
                    "name": "C5",
                    "midi": 72,
                    "time": 186.3277289999998,
                    "velocity": 0.36220472440944884,
                    "duration": 0.15373575000000983
                },
                {
                    "name": "D#5",
                    "midi": 75,
                    "time": 186.48146474999982,
                    "velocity": 0.4015748031496063,
                    "duration": 0.15373575000000983
                },
                {
                    "name": "D5",
                    "midi": 74,
                    "time": 186.63520049999983,
                    "velocity": 0.47244094488188976,
                    "duration": 0.4612072500000295
                },
                {
                    "name": "D4",
                    "midi": 62,
                    "time": 186.78893624999984,
                    "velocity": 0.36220472440944884,
                    "duration": 0.15373575000000983
                },
                {
                    "name": "A4",
                    "midi": 69,
                    "time": 186.94267199999985,
                    "velocity": 0.4251968503937008,
                    "duration": 0.15373575000000983
                },
                {
                    "name": "C5",
                    "midi": 72,
                    "time": 187.09640774999986,
                    "velocity": 0.4094488188976378,
                    "duration": 0.15373575000000983
                },
                {
                    "name": "A#4",
                    "midi": 70,
                    "time": 187.25014349999987,
                    "velocity": 0.4566929133858268,
                    "duration": 0.6149430000000393
                },
                {
                    "name": "D4",
                    "midi": 62,
                    "time": 187.40387924999987,
                    "velocity": 0.4015748031496063,
                    "duration": 0.15373575000000983
                },
                {
                    "name": "G4",
                    "midi": 67,
                    "time": 187.55761499999988,
                    "velocity": 0.4094488188976378,
                    "duration": 0.15373575000000983
                },
                {
                    "name": "A#4",
                    "midi": 70,
                    "time": 187.7113507499999,
                    "velocity": 0.4094488188976378,
                    "duration": 0.15373575000000983
                },
                {
                    "name": "D5",
                    "midi": 74,
                    "time": 187.8650864999999,
                    "velocity": 0.4881889763779528,
                    "duration": 0.6149430000000393
                },
                {
                    "name": "G5",
                    "midi": 79,
                    "time": 188.01882224999991,
                    "velocity": 0.3858267716535433,
                    "duration": 0.15373575000000983
                },
                {
                    "name": "A#5",
                    "midi": 82,
                    "time": 188.17255799999992,
                    "velocity": 0.4645669291338583,
                    "duration": 0.15373575000000983
                },
                {
                    "name": "D6",
                    "midi": 86,
                    "time": 188.32629374999993,
                    "velocity": 0.49606299212598426,
                    "duration": 0.15373575000000983
                },
                {
                    "name": "C4",
                    "midi": 60,
                    "time": 188.48002949999994,
                    "velocity": 0.4094488188976378,
                    "duration": 0.4612072500000295
                },
                {
                    "name": "C3",
                    "midi": 48,
                    "time": 188.63376524999995,
                    "velocity": 0.31496062992125984,
                    "duration": 0.15373575000000983
                },
                {
                    "name": "G3",
                    "midi": 55,
                    "time": 188.78750099999996,
                    "velocity": 0.31496062992125984,
                    "duration": 0.15373575000000983
                },
                {
                    "name": "A#3",
                    "midi": 58,
                    "time": 188.94123674999997,
                    "velocity": 0.3464566929133858,
                    "duration": 0.15373575000000983
                },
                {
                    "name": "A3",
                    "midi": 57,
                    "time": 189.09497249999998,
                    "velocity": 0.4015748031496063,
                    "duration": 0.4612072500000295
                },
                {
                    "name": "C3",
                    "midi": 48,
                    "time": 189.24870825,
                    "velocity": 0.28346456692913385,
                    "duration": 0.15373575000000983
                },
                {
                    "name": "F3",
                    "midi": 53,
                    "time": 189.402444,
                    "velocity": 0.28346456692913385,
                    "duration": 0.15373575000000983
                },
                {
                    "name": "A3",
                    "midi": 57,
                    "time": 189.55617975,
                    "velocity": 0.28346456692913385,
                    "duration": 0.15373575000000983
                },
                {
                    "name": "C4",
                    "midi": 60,
                    "time": 189.70991550000002,
                    "velocity": 0.3700787401574803,
                    "duration": 0.6149430000000393
                },
                {
                    "name": "F4",
                    "midi": 65,
                    "time": 189.86365125000003,
                    "velocity": 0.31496062992125984,
                    "duration": 0.15373575000000983
                },
                {
                    "name": "A4",
                    "midi": 69,
                    "time": 190.01738700000004,
                    "velocity": 0.36220472440944884,
                    "duration": 0.15373575000000983
                },
                {
                    "name": "C5",
                    "midi": 72,
                    "time": 190.17112275000005,
                    "velocity": 0.4015748031496063,
                    "duration": 0.15373575000000983
                },
                {
                    "name": "A#4",
                    "midi": 70,
                    "time": 190.32485850000006,
                    "velocity": 0.47244094488188976,
                    "duration": 0.4612072500000295
                },
                {
                    "name": "A#3",
                    "midi": 58,
                    "time": 190.47859425000007,
                    "velocity": 0.3464566929133858,
                    "duration": 0.15373575000000983
                },
                {
                    "name": "F4",
                    "midi": 65,
                    "time": 190.63233000000008,
                    "velocity": 0.3779527559055118,
                    "duration": 0.15373575000000983
                },
                {
                    "name": "A4",
                    "midi": 69,
                    "time": 190.7860657500001,
                    "velocity": 0.4094488188976378,
                    "duration": 0.15373575000000983
                },
                {
                    "name": "G4",
                    "midi": 67,
                    "time": 190.9398015000001,
                    "velocity": 0.4566929133858268,
                    "duration": 0.6149430000000393
                },
                {
                    "name": "A#3",
                    "midi": 58,
                    "time": 191.0935372500001,
                    "velocity": 0.3779527559055118,
                    "duration": 0.15373575000000983
                },
                {
                    "name": "D#4",
                    "midi": 63,
                    "time": 191.24727300000012,
                    "velocity": 0.3779527559055118,
                    "duration": 0.15373575000000983
                },
                {
                    "name": "G4",
                    "midi": 67,
                    "time": 191.40100875000013,
                    "velocity": 0.3779527559055118,
                    "duration": 0.15373575000000983
                },
                {
                    "name": "A#4",
                    "midi": 70,
                    "time": 191.55474450000014,
                    "velocity": 0.4881889763779528,
                    "duration": 0.6149430000000393
                },
                {
                    "name": "D#5",
                    "midi": 75,
                    "time": 191.70848025000015,
                    "velocity": 0.3858267716535433,
                    "duration": 0.15373575000000983
                },
                {
                    "name": "G5",
                    "midi": 79,
                    "time": 191.86221600000016,
                    "velocity": 0.4645669291338583,
                    "duration": 0.15373575000000983
                },
                {
                    "name": "A#5",
                    "midi": 82,
                    "time": 192.01595175000017,
                    "velocity": 0.49606299212598426,
                    "duration": 0.15373575000000983
                },
                {
                    "name": "A3",
                    "midi": 57,
                    "time": 192.16968750000018,
                    "velocity": 0.4251968503937008,
                    "duration": 0.4612072500000295
                },
                {
                    "name": "A2",
                    "midi": 45,
                    "time": 192.3234232500002,
                    "velocity": 0.30708661417322836,
                    "duration": 0.15373575000000983
                },
                {
                    "name": "D#3",
                    "midi": 51,
                    "time": 192.4771590000002,
                    "velocity": 0.30708661417322836,
                    "duration": 0.15373575000000983
                },
                {
                    "name": "G3",
                    "midi": 55,
                    "time": 192.6308947500002,
                    "velocity": 0.3464566929133858,
                    "duration": 0.15373575000000983
                },
                {
                    "name": "F#3",
                    "midi": 54,
                    "time": 192.78463050000022,
                    "velocity": 0.4330708661417323,
                    "duration": 0.4612072500000295
                },
                {
                    "name": "A2",
                    "midi": 45,
                    "time": 192.93836625000023,
                    "velocity": 0.30708661417322836,
                    "duration": 0.15373575000000983
                },
                {
                    "name": "D3",
                    "midi": 50,
                    "time": 193.09210200000024,
                    "velocity": 0.30708661417322836,
                    "duration": 0.15373575000000983
                },
                {
                    "name": "F#3",
                    "midi": 54,
                    "time": 193.24583775000025,
                    "velocity": 0.30708661417322836,
                    "duration": 0.15373575000000983
                },
                {
                    "name": "A3",
                    "midi": 57,
                    "time": 193.39957350000026,
                    "velocity": 0.4015748031496063,
                    "duration": 0.6149430000000393
                },
                {
                    "name": "D4",
                    "midi": 62,
                    "time": 193.55330925000027,
                    "velocity": 0.3464566929133858,
                    "duration": 0.15373575000000983
                },
                {
                    "name": "F#4",
                    "midi": 66,
                    "time": 193.70704500000028,
                    "velocity": 0.3937007874015748,
                    "duration": 0.15373575000000983
                },
                {
                    "name": "A3",
                    "midi": 57,
                    "time": 193.8607807500003,
                    "velocity": 0.4409448818897638,
                    "duration": 0.15373575000000983
                },
                {
                    "name": "A4",
                    "midi": 69,
                    "time": 194.0145165000003,
                    "velocity": 0.4645669291338583,
                    "duration": 0.4612072500000295
                },
                {
                    "name": "A3",
                    "midi": 57,
                    "time": 194.1682522500003,
                    "velocity": 0.3937007874015748,
                    "duration": 0.15373575000000983
                },
                {
                    "name": "E4",
                    "midi": 64,
                    "time": 194.32198800000032,
                    "velocity": 0.3937007874015748,
                    "duration": 0.15373575000000983
                },
                {
                    "name": "G4",
                    "midi": 67,
                    "time": 194.47572375000033,
                    "velocity": 0.4094488188976378,
                    "duration": 0.15373575000000983
                },
                {
                    "name": "F#4",
                    "midi": 66,
                    "time": 194.62945950000034,
                    "velocity": 0.4645669291338583,
                    "duration": 0.4612072500000295
                },
                {
                    "name": "A3",
                    "midi": 57,
                    "time": 194.78319525000035,
                    "velocity": 0.3937007874015748,
                    "duration": 0.15373575000000983
                },
                {
                    "name": "D4",
                    "midi": 62,
                    "time": 194.93693100000036,
                    "velocity": 0.3937007874015748,
                    "duration": 0.15373575000000983
                },
                {
                    "name": "F#4",
                    "midi": 66,
                    "time": 195.09066675000037,
                    "velocity": 0.3937007874015748,
                    "duration": 0.15373575000000983
                },
                {
                    "name": "A4",
                    "midi": 69,
                    "time": 195.24440250000038,
                    "velocity": 0.5275590551181102,
                    "duration": 0.6149430000000393
                },
                {
                    "name": "D5",
                    "midi": 74,
                    "time": 195.3981382500004,
                    "velocity": 0.44881889763779526,
                    "duration": 0.15373575000000983
                },
                {
                    "name": "F#5",
                    "midi": 78,
                    "time": 195.5518740000004,
                    "velocity": 0.5196850393700787,
                    "duration": 0.15373575000000983
                },
                {
                    "name": "A4",
                    "midi": 69,
                    "time": 195.7056097500004,
                    "velocity": 0.5748031496062992,
                    "duration": 0.15373575000000983
                },
                {
                    "name": "A5",
                    "midi": 81,
                    "time": 195.85934550000042,
                    "velocity": 0.5275590551181102,
                    "duration": 0.4612072500000295
                },
                {
                    "name": "A4",
                    "midi": 69,
                    "time": 196.01308125000043,
                    "velocity": 0.48031496062992124,
                    "duration": 0.15373575000000983
                },
                {
                    "name": "E5",
                    "midi": 76,
                    "time": 196.16681700000044,
                    "velocity": 0.49606299212598426,
                    "duration": 0.15373575000000983
                },
                {
                    "name": "G5",
                    "midi": 79,
                    "time": 196.32055275000045,
                    "velocity": 0.5275590551181102,
                    "duration": 0.15373575000000983
                },
                {
                    "name": "F#5",
                    "midi": 78,
                    "time": 196.47428850000045,
                    "velocity": 0.5826771653543307,
                    "duration": 0.4612072500000295
                },
                {
                    "name": "A4",
                    "midi": 69,
                    "time": 196.62802425000046,
                    "velocity": 0.4881889763779528,
                    "duration": 0.15373575000000983
                },
                {
                    "name": "D5",
                    "midi": 74,
                    "time": 196.78176000000047,
                    "velocity": 0.5275590551181102,
                    "duration": 0.15373575000000983
                },
                {
                    "name": "F#5",
                    "midi": 78,
                    "time": 196.93549575000048,
                    "velocity": 0.5590551181102362,
                    "duration": 0.15373575000000983
                },
                {
                    "name": "A5",
                    "midi": 81,
                    "time": 197.0892315000005,
                    "velocity": 0.5905511811023622,
                    "duration": 0.6149430000000393
                },
                {
                    "name": "D6",
                    "midi": 86,
                    "time": 197.2429672500005,
                    "velocity": 0.5354330708661418,
                    "duration": 0.15373575000000983
                },
                {
                    "name": "F#6",
                    "midi": 90,
                    "time": 197.3967030000005,
                    "velocity": 0.5590551181102362,
                    "duration": 0.15373575000000983
                },
                {
                    "name": "A5",
                    "midi": 81,
                    "time": 197.55043875000052,
                    "velocity": 0.5748031496062992,
                    "duration": 0.15373575000000983
                },
                {
                    "name": "A6",
                    "midi": 93,
                    "time": 197.70417450000053,
                    "velocity": 0.6141732283464567,
                    "duration": 0.4612072500000295
                },
                {
                    "name": "A5",
                    "midi": 81,
                    "time": 197.85791025000054,
                    "velocity": 0.5669291338582677,
                    "duration": 0.15373575000000983
                },
                {
                    "name": "E6",
                    "midi": 88,
                    "time": 198.01164600000055,
                    "velocity": 0.5511811023622047,
                    "duration": 0.15373575000000983
                },
                {
                    "name": "G6",
                    "midi": 91,
                    "time": 198.16538175000056,
                    "velocity": 0.5826771653543307,
                    "duration": 0.15373575000000983
                },
                {
                    "name": "F#6",
                    "midi": 90,
                    "time": 198.31911750000057,
                    "velocity": 0.6377952755905512,
                    "duration": 0.30747149999999124
                },
                {
                    "name": "D6",
                    "midi": 86,
                    "time": 198.93406050000056,
                    "velocity": 0.6062992125984252,
                    "duration": 0.46120725000000107
                },
                {
                    "name": "F#5",
                    "midi": 78,
                    "time": 198.93406050000056,
                    "velocity": 0.6062992125984252,
                    "duration": 0.46120725000000107
                },
                {
                    "name": "A5",
                    "midi": 81,
                    "time": 198.93406050000056,
                    "velocity": 0.6062992125984252,
                    "duration": 0.46120725000000107
                },
                {
                    "name": "D#4",
                    "midi": 63,
                    "time": 199.54900350000057,
                    "velocity": 0.3779527559055118,
                    "duration": 0.4612072500000295
                },
                {
                    "name": "D#3",
                    "midi": 51,
                    "time": 199.70273925000058,
                    "velocity": 0.3228346456692913,
                    "duration": 0.15373575000000983
                },
                {
                    "name": "A#3",
                    "midi": 58,
                    "time": 199.8564750000006,
                    "velocity": 0.3779527559055118,
                    "duration": 0.15373575000000983
                },
                {
                    "name": "D4",
                    "midi": 62,
                    "time": 200.0102107500006,
                    "velocity": 0.29133858267716534,
                    "duration": 0.15373575000000983
                },
                {
                    "name": "C4",
                    "midi": 60,
                    "time": 200.1639465000006,
                    "velocity": 0.3858267716535433,
                    "duration": 0.4612072500000295
                },
                {
                    "name": "D#3",
                    "midi": 51,
                    "time": 200.31768225000062,
                    "velocity": 0.31496062992125984,
                    "duration": 0.15373575000000983
                },
                {
                    "name": "A3",
                    "midi": 57,
                    "time": 200.47141800000063,
                    "velocity": 0.31496062992125984,
                    "duration": 0.15373575000000983
                },
                {
                    "name": "C4",
                    "midi": 60,
                    "time": 200.62515375000064,
                    "velocity": 0.31496062992125984,
                    "duration": 0.15373575000000983
                },
                {
                    "name": "D#4",
                    "midi": 63,
                    "time": 200.77888950000064,
                    "velocity": 0.3700787401574803,
                    "duration": 0.6149430000000393
                },
                {
                    "name": "A4",
                    "midi": 69,
                    "time": 200.93262525000065,
                    "velocity": 0.31496062992125984,
                    "duration": 0.15373575000000983
                },
                {
                    "name": "C5",
                    "midi": 72,
                    "time": 201.08636100000066,
                    "velocity": 0.36220472440944884,
                    "duration": 0.15373575000000983
                },
                {
                    "name": "D#5",
                    "midi": 75,
                    "time": 201.24009675000067,
                    "velocity": 0.4015748031496063,
                    "duration": 0.15373575000000983
                },
                {
                    "name": "D5",
                    "midi": 74,
                    "time": 201.39383250000068,
                    "velocity": 0.47244094488188976,
                    "duration": 0.4612072500000295
                },
                {
                    "name": "D4",
                    "midi": 62,
                    "time": 201.5475682500007,
                    "velocity": 0.36220472440944884,
                    "duration": 0.15373575000000983
                },
                {
                    "name": "A4",
                    "midi": 69,
                    "time": 201.7013040000007,
                    "velocity": 0.4251968503937008,
                    "duration": 0.15373575000000983
                },
                {
                    "name": "C5",
                    "midi": 72,
                    "time": 201.8550397500007,
                    "velocity": 0.4094488188976378,
                    "duration": 0.15373575000000983
                },
                {
                    "name": "A#4",
                    "midi": 70,
                    "time": 202.00877550000072,
                    "velocity": 0.4566929133858268,
                    "duration": 0.6149430000000393
                },
                {
                    "name": "D4",
                    "midi": 62,
                    "time": 202.16251125000073,
                    "velocity": 0.4015748031496063,
                    "duration": 0.15373575000000983
                },
                {
                    "name": "G4",
                    "midi": 67,
                    "time": 202.31624700000074,
                    "velocity": 0.4094488188976378,
                    "duration": 0.15373575000000983
                },
                {
                    "name": "A#4",
                    "midi": 70,
                    "time": 202.46998275000075,
                    "velocity": 0.4094488188976378,
                    "duration": 0.15373575000000983
                },
                {
                    "name": "D5",
                    "midi": 74,
                    "time": 202.62371850000076,
                    "velocity": 0.4881889763779528,
                    "duration": 0.6149430000000393
                },
                {
                    "name": "G5",
                    "midi": 79,
                    "time": 202.77745425000077,
                    "velocity": 0.3858267716535433,
                    "duration": 0.15373575000000983
                },
                {
                    "name": "A#5",
                    "midi": 82,
                    "time": 202.93119000000078,
                    "velocity": 0.4645669291338583,
                    "duration": 0.15373575000000983
                },
                {
                    "name": "D6",
                    "midi": 86,
                    "time": 203.0849257500008,
                    "velocity": 0.49606299212598426,
                    "duration": 0.15373575000000983
                },
                {
                    "name": "C4",
                    "midi": 60,
                    "time": 203.2386615000008,
                    "velocity": 0.4094488188976378,
                    "duration": 0.4612072500000295
                },
                {
                    "name": "C3",
                    "midi": 48,
                    "time": 203.3923972500008,
                    "velocity": 0.31496062992125984,
                    "duration": 0.15373575000000983
                },
                {
                    "name": "G3",
                    "midi": 55,
                    "time": 203.54613300000082,
                    "velocity": 0.31496062992125984,
                    "duration": 0.15373575000000983
                },
                {
                    "name": "A#3",
                    "midi": 58,
                    "time": 203.69986875000083,
                    "velocity": 0.3464566929133858,
                    "duration": 0.15373575000000983
                },
                {
                    "name": "A3",
                    "midi": 57,
                    "time": 203.85360450000084,
                    "velocity": 0.4015748031496063,
                    "duration": 0.4612072500000295
                },
                {
                    "name": "C3",
                    "midi": 48,
                    "time": 204.00734025000085,
                    "velocity": 0.28346456692913385,
                    "duration": 0.15373575000000983
                },
                {
                    "name": "F3",
                    "midi": 53,
                    "time": 204.16107600000086,
                    "velocity": 0.28346456692913385,
                    "duration": 0.15373575000000983
                },
                {
                    "name": "A3",
                    "midi": 57,
                    "time": 204.31481175000087,
                    "velocity": 0.28346456692913385,
                    "duration": 0.15373575000000983
                },
                {
                    "name": "C4",
                    "midi": 60,
                    "time": 204.46854750000088,
                    "velocity": 0.3700787401574803,
                    "duration": 0.6149430000000393
                },
                {
                    "name": "F4",
                    "midi": 65,
                    "time": 204.6222832500009,
                    "velocity": 0.31496062992125984,
                    "duration": 0.15373575000000983
                },
                {
                    "name": "A4",
                    "midi": 69,
                    "time": 204.7760190000009,
                    "velocity": 0.36220472440944884,
                    "duration": 0.15373575000000983
                },
                {
                    "name": "C5",
                    "midi": 72,
                    "time": 204.9297547500009,
                    "velocity": 0.4015748031496063,
                    "duration": 0.15373575000000983
                },
                {
                    "name": "A#4",
                    "midi": 70,
                    "time": 205.08349050000092,
                    "velocity": 0.47244094488188976,
                    "duration": 0.4612072500000295
                },
                {
                    "name": "A#3",
                    "midi": 58,
                    "time": 205.23722625000093,
                    "velocity": 0.3464566929133858,
                    "duration": 0.15373575000000983
                },
                {
                    "name": "F4",
                    "midi": 65,
                    "time": 205.39096200000094,
                    "velocity": 0.3779527559055118,
                    "duration": 0.15373575000000983
                },
                {
                    "name": "A4",
                    "midi": 69,
                    "time": 205.54469775000095,
                    "velocity": 0.4094488188976378,
                    "duration": 0.15373575000000983
                },
                {
                    "name": "G4",
                    "midi": 67,
                    "time": 205.69843350000096,
                    "velocity": 0.4566929133858268,
                    "duration": 0.6149430000000393
                },
                {
                    "name": "A#3",
                    "midi": 58,
                    "time": 205.85216925000097,
                    "velocity": 0.3779527559055118,
                    "duration": 0.15373575000000983
                },
                {
                    "name": "D#4",
                    "midi": 63,
                    "time": 206.00590500000098,
                    "velocity": 0.3779527559055118,
                    "duration": 0.15373575000000983
                },
                {
                    "name": "G4",
                    "midi": 67,
                    "time": 206.159640750001,
                    "velocity": 0.3779527559055118,
                    "duration": 0.15373575000000983
                },
                {
                    "name": "A#4",
                    "midi": 70,
                    "time": 206.313376500001,
                    "velocity": 0.4881889763779528,
                    "duration": 0.6149430000000393
                },
                {
                    "name": "D#5",
                    "midi": 75,
                    "time": 206.467112250001,
                    "velocity": 0.3858267716535433,
                    "duration": 0.15373575000000983
                },
                {
                    "name": "G5",
                    "midi": 79,
                    "time": 206.62084800000102,
                    "velocity": 0.4645669291338583,
                    "duration": 0.15373575000000983
                },
                {
                    "name": "A#5",
                    "midi": 82,
                    "time": 206.77458375000103,
                    "velocity": 0.49606299212598426,
                    "duration": 0.15373575000000983
                },
                {
                    "name": "A3",
                    "midi": 57,
                    "time": 206.92831950000104,
                    "velocity": 0.4251968503937008,
                    "duration": 0.4612072500000295
                },
                {
                    "name": "A2",
                    "midi": 45,
                    "time": 207.08205525000105,
                    "velocity": 0.30708661417322836,
                    "duration": 0.15373575000000983
                },
                {
                    "name": "D#3",
                    "midi": 51,
                    "time": 207.23579100000106,
                    "velocity": 0.30708661417322836,
                    "duration": 0.15373575000000983
                },
                {
                    "name": "G3",
                    "midi": 55,
                    "time": 207.38952675000107,
                    "velocity": 0.3464566929133858,
                    "duration": 0.15373575000000983
                },
                {
                    "name": "F#3",
                    "midi": 54,
                    "time": 207.54326250000108,
                    "velocity": 0.4330708661417323,
                    "duration": 0.4612072500000295
                },
                {
                    "name": "A2",
                    "midi": 45,
                    "time": 207.6969982500011,
                    "velocity": 0.30708661417322836,
                    "duration": 0.15373575000000983
                },
                {
                    "name": "D3",
                    "midi": 50,
                    "time": 207.8507340000011,
                    "velocity": 0.30708661417322836,
                    "duration": 0.15373575000000983
                },
                {
                    "name": "F#3",
                    "midi": 54,
                    "time": 208.0044697500011,
                    "velocity": 0.30708661417322836,
                    "duration": 0.15373575000000983
                },
                {
                    "name": "A3",
                    "midi": 57,
                    "time": 208.15820550000112,
                    "velocity": 0.4015748031496063,
                    "duration": 0.6149430000000393
                },
                {
                    "name": "D4",
                    "midi": 62,
                    "time": 208.31194125000113,
                    "velocity": 0.3464566929133858,
                    "duration": 0.15373575000000983
                },
                {
                    "name": "F#4",
                    "midi": 66,
                    "time": 208.46567700000114,
                    "velocity": 0.3937007874015748,
                    "duration": 0.15373575000000983
                },
                {
                    "name": "A3",
                    "midi": 57,
                    "time": 208.61941275000115,
                    "velocity": 0.4409448818897638,
                    "duration": 0.15373575000000983
                },
                {
                    "name": "A4",
                    "midi": 69,
                    "time": 208.77314850000116,
                    "velocity": 0.4645669291338583,
                    "duration": 0.4612072500000295
                },
                {
                    "name": "A3",
                    "midi": 57,
                    "time": 208.92688425000117,
                    "velocity": 0.3937007874015748,
                    "duration": 0.15373575000000983
                },
                {
                    "name": "E4",
                    "midi": 64,
                    "time": 209.08062000000118,
                    "velocity": 0.3937007874015748,
                    "duration": 0.15373575000000983
                },
                {
                    "name": "G4",
                    "midi": 67,
                    "time": 209.23435575000119,
                    "velocity": 0.4094488188976378,
                    "duration": 0.15373575000000983
                },
                {
                    "name": "F#4",
                    "midi": 66,
                    "time": 209.3880915000012,
                    "velocity": 0.4645669291338583,
                    "duration": 0.4612072500000295
                },
                {
                    "name": "A3",
                    "midi": 57,
                    "time": 209.5418272500012,
                    "velocity": 0.3937007874015748,
                    "duration": 0.15373575000000983
                },
                {
                    "name": "D4",
                    "midi": 62,
                    "time": 209.69556300000121,
                    "velocity": 0.3937007874015748,
                    "duration": 0.15373575000000983
                },
                {
                    "name": "F#4",
                    "midi": 66,
                    "time": 209.84929875000122,
                    "velocity": 0.3937007874015748,
                    "duration": 0.15373575000000983
                },
                {
                    "name": "A4",
                    "midi": 69,
                    "time": 210.00303450000123,
                    "velocity": 0.5275590551181102,
                    "duration": 0.6149430000000393
                },
                {
                    "name": "D5",
                    "midi": 74,
                    "time": 210.15677025000124,
                    "velocity": 0.44881889763779526,
                    "duration": 0.15373575000000983
                },
                {
                    "name": "F#5",
                    "midi": 78,
                    "time": 210.31050600000125,
                    "velocity": 0.5196850393700787,
                    "duration": 0.15373575000000983
                },
                {
                    "name": "A4",
                    "midi": 69,
                    "time": 210.46424175000126,
                    "velocity": 0.5748031496062992,
                    "duration": 0.15373575000000983
                },
                {
                    "name": "A5",
                    "midi": 81,
                    "time": 210.61797750000127,
                    "velocity": 0.5275590551181102,
                    "duration": 0.4612072500000295
                },
                {
                    "name": "A4",
                    "midi": 69,
                    "time": 210.77171325000128,
                    "velocity": 0.48031496062992124,
                    "duration": 0.15373575000000983
                },
                {
                    "name": "E5",
                    "midi": 76,
                    "time": 210.9254490000013,
                    "velocity": 0.49606299212598426,
                    "duration": 0.15373575000000983
                },
                {
                    "name": "G5",
                    "midi": 79,
                    "time": 211.0791847500013,
                    "velocity": 0.5275590551181102,
                    "duration": 0.15373575000000983
                },
                {
                    "name": "F#5",
                    "midi": 78,
                    "time": 211.2329205000013,
                    "velocity": 0.5826771653543307,
                    "duration": 0.4612072500000295
                },
                {
                    "name": "A4",
                    "midi": 69,
                    "time": 211.38665625000132,
                    "velocity": 0.4881889763779528,
                    "duration": 0.15373575000000983
                },
                {
                    "name": "D5",
                    "midi": 74,
                    "time": 211.54039200000133,
                    "velocity": 0.5275590551181102,
                    "duration": 0.15373575000000983
                },
                {
                    "name": "F#5",
                    "midi": 78,
                    "time": 211.69412775000134,
                    "velocity": 0.5590551181102362,
                    "duration": 0.15373575000000983
                },
                {
                    "name": "A5",
                    "midi": 81,
                    "time": 211.84786350000135,
                    "velocity": 0.5905511811023622,
                    "duration": 0.6149430000000393
                },
                {
                    "name": "D6",
                    "midi": 86,
                    "time": 212.00159925000136,
                    "velocity": 0.5354330708661418,
                    "duration": 0.15373575000000983
                },
                {
                    "name": "F#6",
                    "midi": 90,
                    "time": 212.15533500000137,
                    "velocity": 0.5590551181102362,
                    "duration": 0.15373575000000983
                },
                {
                    "name": "A5",
                    "midi": 81,
                    "time": 212.30907075000138,
                    "velocity": 0.5748031496062992,
                    "duration": 0.15373575000000983
                },
                {
                    "name": "A6",
                    "midi": 93,
                    "time": 212.4628065000014,
                    "velocity": 0.6141732283464567,
                    "duration": 0.4612072500000295
                },
                {
                    "name": "A5",
                    "midi": 81,
                    "time": 212.6165422500014,
                    "velocity": 0.5669291338582677,
                    "duration": 0.15373575000000983
                },
                {
                    "name": "E6",
                    "midi": 88,
                    "time": 212.7702780000014,
                    "velocity": 0.5511811023622047,
                    "duration": 0.15373575000000983
                },
                {
                    "name": "G6",
                    "midi": 91,
                    "time": 212.92401375000142,
                    "velocity": 0.5826771653543307,
                    "duration": 0.15373575000000983
                },
                {
                    "name": "F#6",
                    "midi": 90,
                    "time": 213.07774950000143,
                    "velocity": 0.6377952755905512,
                    "duration": 0.30747149999999124
                },
                {
                    "name": "A5",
                    "midi": 81,
                    "time": 213.6926925000014,
                    "velocity": 0.5118110236220472,
                    "duration": 0.46120725000000107
                },
                {
                    "name": "F#5",
                    "midi": 78,
                    "time": 213.6926925000014,
                    "velocity": 0.5118110236220472,
                    "duration": 0.46120725000000107
                },
                {
                    "name": "D6",
                    "midi": 86,
                    "time": 213.6926925000014,
                    "velocity": 0.6062992125984252,
                    "duration": 0.46120725000000107
                },
                {
                    "name": "D4",
                    "midi": 62,
                    "time": 214.30763550000142,
                    "velocity": 0.3779527559055118,
                    "duration": 0.4612072500000295
                },
                {
                    "name": "D3",
                    "midi": 50,
                    "time": 214.46137125000143,
                    "velocity": 0.3228346456692913,
                    "duration": 0.15373575000000983
                },
                {
                    "name": "G#3",
                    "midi": 56,
                    "time": 214.61510700000144,
                    "velocity": 0.3779527559055118,
                    "duration": 0.15373575000000983
                },
                {
                    "name": "C4",
                    "midi": 60,
                    "time": 214.76884275000145,
                    "velocity": 0.29133858267716534,
                    "duration": 0.15373575000000983
                },
                {
                    "name": "A#3",
                    "midi": 58,
                    "time": 214.92257850000146,
                    "velocity": 0.3858267716535433,
                    "duration": 0.4612072500000295
                },
                {
                    "name": "D#3",
                    "midi": 51,
                    "time": 215.07631425000147,
                    "velocity": 0.3228346456692913,
                    "duration": 0.15373575000000983
                },
                {
                    "name": "G#3",
                    "midi": 56,
                    "time": 215.23005000000148,
                    "velocity": 0.3858267716535433,
                    "duration": 0.15373575000000983
                },
                {
                    "name": "A#3",
                    "midi": 58,
                    "time": 215.3837857500015,
                    "velocity": 0.41732283464566927,
                    "duration": 0.15373575000000983
                },
                {
                    "name": "G4",
                    "midi": 67,
                    "time": 215.5375215000015,
                    "velocity": 0.49606299212598426,
                    "duration": 0.4612072500000295
                },
                {
                    "name": "E3",
                    "midi": 52,
                    "time": 215.6912572500015,
                    "velocity": 0.31496062992125984,
                    "duration": 0.15373575000000983
                },
                {
                    "name": "A#3",
                    "midi": 58,
                    "time": 215.84499300000152,
                    "velocity": 0.36220472440944884,
                    "duration": 0.15373575000000983
                },
                {
                    "name": "G4",
                    "midi": 67,
                    "time": 215.99872875000153,
                    "velocity": 0.4015748031496063,
                    "duration": 0.15373575000000983
                },
                {
                    "name": "F4",
                    "midi": 65,
                    "time": 216.15246450000154,
                    "velocity": 0.44881889763779526,
                    "duration": 0.4612072500000295
                },
                {
                    "name": "F3",
                    "midi": 53,
                    "time": 216.30620025000155,
                    "velocity": 0.3228346456692913,
                    "duration": 0.15373575000000983
                },
                {
                    "name": "A#3",
                    "midi": 58,
                    "time": 216.45993600000156,
                    "velocity": 0.4094488188976378,
                    "duration": 0.15373575000000983
                },
                {
                    "name": "D#4",
                    "midi": 63,
                    "time": 216.61367175000157,
                    "velocity": 0.29133858267716534,
                    "duration": 0.15373575000000983
                },
                {
                    "name": "D4",
                    "midi": 62,
                    "time": 216.76740750000158,
                    "velocity": 0.41732283464566927,
                    "duration": 0.4612072500000295
                },
                {
                    "name": "G3",
                    "midi": 55,
                    "time": 216.9211432500016,
                    "velocity": 0.3228346456692913,
                    "duration": 0.15373575000000983
                },
                {
                    "name": "A#3",
                    "midi": 58,
                    "time": 217.0748790000016,
                    "velocity": 0.41732283464566927,
                    "duration": 0.15373575000000983
                },
                {
                    "name": "D4",
                    "midi": 62,
                    "time": 217.2286147500016,
                    "velocity": 0.44881889763779526,
                    "duration": 0.15373575000000983
                },
                {
                    "name": "G#4",
                    "midi": 68,
                    "time": 217.38235050000162,
                    "velocity": 0.5275590551181102,
                    "duration": 0.4612072500000295
                },
                {
                    "name": "G#3",
                    "midi": 56,
                    "time": 217.53608625000163,
                    "velocity": 0.3228346456692913,
                    "duration": 0.15373575000000983
                },
                {
                    "name": "D4",
                    "midi": 62,
                    "time": 217.68982200000164,
                    "velocity": 0.3700787401574803,
                    "duration": 0.15373575000000983
                },
                {
                    "name": "G#4",
                    "midi": 68,
                    "time": 217.84355775000165,
                    "velocity": 0.41732283464566927,
                    "duration": 0.15373575000000983
                },
                {
                    "name": "G4",
                    "midi": 67,
                    "time": 217.99729350000166,
                    "velocity": 0.4409448818897638,
                    "duration": 0.4612072500000295
                },
                {
                    "name": "G#3",
                    "midi": 56,
                    "time": 218.15102925000167,
                    "velocity": 0.33070866141732286,
                    "duration": 0.15373575000000983
                },
                {
                    "name": "D4",
                    "midi": 62,
                    "time": 218.30476500000168,
                    "velocity": 0.41732283464566927,
                    "duration": 0.15373575000000983
                },
                {
                    "name": "F4",
                    "midi": 65,
                    "time": 218.4585007500017,
                    "velocity": 0.2992125984251969,
                    "duration": 0.15373575000000983
                },
                {
                    "name": "E4",
                    "midi": 64,
                    "time": 218.6122365000017,
                    "velocity": 0.3937007874015748,
                    "duration": 0.4612072500000295
                },
                {
                    "name": "A#3",
                    "midi": 58,
                    "time": 218.7659722500017,
                    "velocity": 0.4015748031496063,
                    "duration": 0.15373575000000983
                },
                {
                    "name": "C#4",
                    "midi": 61,
                    "time": 218.91970800000172,
                    "velocity": 0.4330708661417323,
                    "duration": 0.15373575000000983
                },
                {
                    "name": "E4",
                    "midi": 64,
                    "time": 219.07344375000173,
                    "velocity": 0.5039370078740157,
                    "duration": 0.15373575000000983
                },
                {
                    "name": "A#4",
                    "midi": 70,
                    "time": 219.22717950000174,
                    "velocity": 0.5590551181102362,
                    "duration": 0.4612072500000295
                },
                {
                    "name": "C#4",
                    "midi": 61,
                    "time": 219.38091525000175,
                    "velocity": 0.3464566929133858,
                    "duration": 0.15373575000000983
                },
                {
                    "name": "E4",
                    "midi": 64,
                    "time": 219.53465100000176,
                    "velocity": 0.3937007874015748,
                    "duration": 0.15373575000000983
                },
                {
                    "name": "A#4",
                    "midi": 70,
                    "time": 219.68838675000177,
                    "velocity": 0.4409448818897638,
                    "duration": 0.15373575000000983
                },
                {
                    "name": "G#4",
                    "midi": 68,
                    "time": 219.84212250000178,
                    "velocity": 0.5275590551181102,
                    "duration": 0.4612072500000295
                },
                {
                    "name": "C#4",
                    "midi": 61,
                    "time": 219.9958582500018,
                    "velocity": 0.3543307086614173,
                    "duration": 0.15373575000000983
                },
                {
                    "name": "E4",
                    "midi": 64,
                    "time": 220.1495940000018,
                    "velocity": 0.4409448818897638,
                    "duration": 0.15373575000000983
                },
                {
                    "name": "G4",
                    "midi": 67,
                    "time": 220.3033297500018,
                    "velocity": 0.31496062992125984,
                    "duration": 0.15373575000000983
                },
                {
                    "name": "F#4",
                    "midi": 66,
                    "time": 220.45706550000182,
                    "velocity": 0.4566929133858268,
                    "duration": 0.4612072500000295
                },
                {
                    "name": "C4",
                    "midi": 60,
                    "time": 220.61080125000183,
                    "velocity": 0.3858267716535433,
                    "duration": 0.15373575000000983
                },
                {
                    "name": "D#4",
                    "midi": 63,
                    "time": 220.76453700000184,
                    "velocity": 0.4409448818897638,
                    "duration": 0.15373575000000983
                },
                {
                    "name": "F#4",
                    "midi": 66,
                    "time": 220.91827275000185,
                    "velocity": 0.4881889763779528,
                    "duration": 0.15373575000000983
                },
                {
                    "name": "C5",
                    "midi": 72,
                    "time": 221.07200850000186,
                    "velocity": 0.5590551181102362,
                    "duration": 0.4612072500000295
                },
                {
                    "name": "D#4",
                    "midi": 63,
                    "time": 221.22574425000187,
                    "velocity": 0.3700787401574803,
                    "duration": 0.15373575000000983
                },
                {
                    "name": "F#4",
                    "midi": 66,
                    "time": 221.37948000000188,
                    "velocity": 0.4251968503937008,
                    "duration": 0.15373575000000983
                },
                {
                    "name": "C5",
                    "midi": 72,
                    "time": 221.5332157500019,
                    "velocity": 0.4645669291338583,
                    "duration": 0.15373575000000983
                },
                {
                    "name": "A#4",
                    "midi": 70,
                    "time": 221.6869515000019,
                    "velocity": 0.4881889763779528,
                    "duration": 0.4612072500000295
                },
                {
                    "name": "D#4",
                    "midi": 63,
                    "time": 221.8406872500019,
                    "velocity": 0.3779527559055118,
                    "duration": 0.15373575000000983
                },
                {
                    "name": "F#4",
                    "midi": 66,
                    "time": 221.99442300000192,
                    "velocity": 0.47244094488188976,
                    "duration": 0.15373575000000983
                },
                {
                    "name": "A4",
                    "midi": 69,
                    "time": 222.14815875000193,
                    "velocity": 0.33070866141732286,
                    "duration": 0.15373575000000983
                },
                {
                    "name": "G#4",
                    "midi": 68,
                    "time": 222.30189450000194,
                    "velocity": 0.5118110236220472,
                    "duration": 0.4612072500000295
                },
                {
                    "name": "D4",
                    "midi": 62,
                    "time": 222.45563025000195,
                    "velocity": 0.41732283464566927,
                    "duration": 0.15373575000000983
                },
                {
                    "name": "F4",
                    "midi": 65,
                    "time": 222.60936600000196,
                    "velocity": 0.48031496062992124,
                    "duration": 0.15373575000000983
                },
                {
                    "name": "A4",
                    "midi": 69,
                    "time": 222.76310175000197,
                    "velocity": 0.5196850393700787,
                    "duration": 0.15373575000000983
                },
                {
                    "name": "D5",
                    "midi": 74,
                    "time": 222.91683750000198,
                    "velocity": 0.5984251968503937,
                    "duration": 0.4612072500000295
                },
                {
                    "name": "F4",
                    "midi": 65,
                    "time": 223.07057325000198,
                    "velocity": 0.4094488188976378,
                    "duration": 0.15373575000000983
                },
                {
                    "name": "A4",
                    "midi": 69,
                    "time": 223.224309000002,
                    "velocity": 0.47244094488188976,
                    "duration": 0.15373575000000983
                },
                {
                    "name": "D5",
                    "midi": 74,
                    "time": 223.378044750002,
                    "velocity": 0.5196850393700787,
                    "duration": 0.15373575000000983
                },
                {
                    "name": "C5",
                    "midi": 72,
                    "time": 223.53178050000201,
                    "velocity": 0.5748031496062992,
                    "duration": 0.4612072500000295
                },
                {
                    "name": "F4",
                    "midi": 65,
                    "time": 223.68551625000202,
                    "velocity": 0.41732283464566927,
                    "duration": 0.15373575000000983
                },
                {
                    "name": "A4",
                    "midi": 69,
                    "time": 223.83925200000203,
                    "velocity": 0.5275590551181102,
                    "duration": 0.15373575000000983
                },
                {
                    "name": "B4",
                    "midi": 71,
                    "time": 223.99298775000204,
                    "velocity": 0.4330708661417323,
                    "duration": 0.15373575000000983
                },
                {
                    "name": "A#4",
                    "midi": 70,
                    "time": 224.14672350000205,
                    "velocity": 0.5433070866141733,
                    "duration": 0.4612072500000295
                },
                {
                    "name": "E4",
                    "midi": 64,
                    "time": 224.30045925000206,
                    "velocity": 0.4566929133858268,
                    "duration": 0.15373575000000983
                },
                {
                    "name": "G4",
                    "midi": 67,
                    "time": 224.45419500000207,
                    "velocity": 0.5196850393700787,
                    "duration": 0.15373575000000983
                },
                {
                    "name": "A#4",
                    "midi": 70,
                    "time": 224.60793075000208,
                    "velocity": 0.5433070866141733,
                    "duration": 0.15373575000000983
                },
                {
                    "name": "E5",
                    "midi": 76,
                    "time": 224.7616665000021,
                    "velocity": 0.6220472440944882,
                    "duration": 0.4612072500000295
                },
                {
                    "name": "G4",
                    "midi": 67,
                    "time": 224.9154022500021,
                    "velocity": 0.4566929133858268,
                    "duration": 0.15373575000000983
                },
                {
                    "name": "A#4",
                    "midi": 70,
                    "time": 225.0691380000021,
                    "velocity": 0.5275590551181102,
                    "duration": 0.15373575000000983
                },
                {
                    "name": "E5",
                    "midi": 76,
                    "time": 225.22287375000212,
                    "velocity": 0.5748031496062992,
                    "duration": 0.15373575000000983
                },
                {
                    "name": "D5",
                    "midi": 74,
                    "time": 225.37660950000213,
                    "velocity": 0.5433070866141733,
                    "duration": 0.4612072500000295
                },
                {
                    "name": "G4",
                    "midi": 67,
                    "time": 225.53034525000214,
                    "velocity": 0.4645669291338583,
                    "duration": 0.15373575000000983
                },
                {
                    "name": "A#4",
                    "midi": 70,
                    "time": 225.68408100000215,
                    "velocity": 0.5511811023622047,
                    "duration": 0.15373575000000983
                },
                {
                    "name": "C#5",
                    "midi": 73,
                    "time": 225.83781675000216,
                    "velocity": 0.4015748031496063,
                    "duration": 0.15373575000000983
                },
                {
                    "name": "D5",
                    "midi": 74,
                    "time": 225.99155250000217,
                    "velocity": 0.5748031496062992,
                    "duration": 0.4612072500000295
                },
                {
                    "name": "F4",
                    "midi": 65,
                    "time": 226.14528825000218,
                    "velocity": 0.4881889763779528,
                    "duration": 0.15373575000000983
                },
                {
                    "name": "A4",
                    "midi": 69,
                    "time": 226.2990240000022,
                    "velocity": 0.5354330708661418,
                    "duration": 0.15373575000000983
                },
                {
                    "name": "D5",
                    "midi": 74,
                    "time": 226.4527597500022,
                    "velocity": 0.5748031496062992,
                    "duration": 0.15373575000000983
                },
                {
                    "name": "A#4",
                    "midi": 70,
                    "time": 226.6064955000022,
                    "velocity": 0.6456692913385826,
                    "duration": 0.4612072500000295
                },
                {
                    "name": "D4",
                    "midi": 62,
                    "time": 226.76023125000222,
                    "velocity": 0.4645669291338583,
                    "duration": 0.15373575000000983
                },
                {
                    "name": "G4",
                    "midi": 67,
                    "time": 226.91396700000223,
                    "velocity": 0.5354330708661418,
                    "duration": 0.15373575000000983
                },
                {
                    "name": "A#4",
                    "midi": 70,
                    "time": 227.06770275000224,
                    "velocity": 0.5905511811023622,
                    "duration": 0.15373575000000983
                },
                {
                    "name": "A4",
                    "midi": 69,
                    "time": 227.22143850000225,
                    "velocity": 0.6456692913385826,
                    "duration": 0.4612072500000295
                },
                {
                    "name": "C#4",
                    "midi": 61,
                    "time": 227.37517425000226,
                    "velocity": 0.41732283464566927,
                    "duration": 0.15373575000000983
                },
                {
                    "name": "E4",
                    "midi": 64,
                    "time": 227.52891000000227,
                    "velocity": 0.4645669291338583,
                    "duration": 0.15373575000000983
                },
                {
                    "name": "A4",
                    "midi": 69,
                    "time": 227.68264575000228,
                    "velocity": 0.5905511811023622,
                    "duration": 0.15373575000000983
                },
                {
                    "name": "D5",
                    "midi": 74,
                    "time": 227.8363815000023,
                    "velocity": 0.6456692913385826,
                    "duration": 0.4612072500000295
                },
                {
                    "name": "D4",
                    "midi": 62,
                    "time": 227.9901172500023,
                    "velocity": 0.41732283464566927,
                    "duration": 0.15373575000000983
                },
                {
                    "name": "A4",
                    "midi": 69,
                    "time": 228.1438530000023,
                    "velocity": 0.4645669291338583,
                    "duration": 0.15373575000000983
                },
                {
                    "name": "C5",
                    "midi": 72,
                    "time": 228.29758875000232,
                    "velocity": 0.5905511811023622,
                    "duration": 0.15373575000000983
                },
                {
                    "name": "A#4",
                    "midi": 70,
                    "time": 228.45132450000233,
                    "velocity": 0.6456692913385826,
                    "duration": 0.4612072500000295
                },
                {
                    "name": "C#4",
                    "midi": 61,
                    "time": 228.60506025000234,
                    "velocity": 0.4330708661417323,
                    "duration": 0.15373575000000983
                },
                {
                    "name": "E4",
                    "midi": 64,
                    "time": 228.75879600000235,
                    "velocity": 0.4645669291338583,
                    "duration": 0.15373575000000983
                },
                {
                    "name": "A4",
                    "midi": 69,
                    "time": 228.91253175000236,
                    "velocity": 0.5905511811023622,
                    "duration": 0.15373575000000983
                },
                {
                    "name": "D5",
                    "midi": 74,
                    "time": 229.06626750000237,
                    "velocity": 0.6456692913385826,
                    "duration": 0.4612072500000295
                },
                {
                    "name": "D4",
                    "midi": 62,
                    "time": 229.22000325000238,
                    "velocity": 0.4251968503937008,
                    "duration": 0.15373575000000983
                },
                {
                    "name": "A4",
                    "midi": 69,
                    "time": 229.3737390000024,
                    "velocity": 0.4645669291338583,
                    "duration": 0.15373575000000983
                },
                {
                    "name": "C5",
                    "midi": 72,
                    "time": 229.5274747500024,
                    "velocity": 0.5905511811023622,
                    "duration": 0.15373575000000983
                },
                {
                    "name": "A#4",
                    "midi": 70,
                    "time": 229.6812105000024,
                    "velocity": 0.6456692913385826,
                    "duration": 0.4612072500000295
                },
                {
                    "name": "C#4",
                    "midi": 61,
                    "time": 229.83494625000242,
                    "velocity": 0.4330708661417323,
                    "duration": 0.15373575000000983
                },
                {
                    "name": "E4",
                    "midi": 64,
                    "time": 229.98868200000243,
                    "velocity": 0.4645669291338583,
                    "duration": 0.15373575000000983
                },
                {
                    "name": "A4",
                    "midi": 69,
                    "time": 230.14241775000244,
                    "velocity": 0.5905511811023622,
                    "duration": 0.15373575000000983
                },
                {
                    "name": "D5",
                    "midi": 74,
                    "time": 230.29615350000245,
                    "velocity": 0.6456692913385826,
                    "duration": 0.4612072500000295
                },
                {
                    "name": "D4",
                    "midi": 62,
                    "time": 230.44988925000246,
                    "velocity": 0.4251968503937008,
                    "duration": 0.15373575000000983
                },
                {
                    "name": "A4",
                    "midi": 69,
                    "time": 230.60362500000247,
                    "velocity": 0.4645669291338583,
                    "duration": 0.15373575000000983
                },
                {
                    "name": "C5",
                    "midi": 72,
                    "time": 230.75736075000248,
                    "velocity": 0.5905511811023622,
                    "duration": 0.15373575000000983
                },
                {
                    "name": "A#4",
                    "midi": 70,
                    "time": 230.9110965000025,
                    "velocity": 0.6456692913385826,
                    "duration": 0.4612072500000295
                },
                {
                    "name": "D4",
                    "midi": 62,
                    "time": 231.0648322500025,
                    "velocity": 0.41732283464566927,
                    "duration": 0.15373575000000983
                },
                {
                    "name": "E4",
                    "midi": 64,
                    "time": 231.2185680000025,
                    "velocity": 0.4645669291338583,
                    "duration": 0.15373575000000983
                },
                {
                    "name": "G4",
                    "midi": 67,
                    "time": 231.37230375000252,
                    "velocity": 0.5905511811023622,
                    "duration": 0.15373575000000983
                },
                {
                    "name": "A4",
                    "midi": 69,
                    "time": 231.52603950000253,
                    "velocity": 0.6456692913385826,
                    "duration": 0.4612072500000295
                },
                {
                    "name": "C#4",
                    "midi": 61,
                    "time": 231.67977525000254,
                    "velocity": 0.4251968503937008,
                    "duration": 0.15373575000000983
                },
                {
                    "name": "E4",
                    "midi": 64,
                    "time": 231.83351100000255,
                    "velocity": 0.4645669291338583,
                    "duration": 0.15373575000000983
                },
                {
                    "name": "A4",
                    "midi": 69,
                    "time": 231.98724675000256,
                    "velocity": 0.5905511811023622,
                    "duration": 0.15373575000000983
                },
                {
                    "name": "D4",
                    "midi": 62,
                    "time": 232.14098250000256,
                    "velocity": 0.6456692913385826,
                    "duration": 0.4612072500000295
                },
                {
                    "name": "F#3",
                    "midi": 54,
                    "time": 232.29471825000257,
                    "velocity": 0.4251968503937008,
                    "duration": 0.15373575000000983
                },
                {
                    "name": "A3",
                    "midi": 57,
                    "time": 232.44845400000258,
                    "velocity": 0.4645669291338583,
                    "duration": 0.15373575000000983
                },
                {
                    "name": "C4",
                    "midi": 60,
                    "time": 232.6021897500026,
                    "velocity": 0.5905511811023622,
                    "duration": 0.15373575000000983
                },
                {
                    "name": "A#3",
                    "midi": 58,
                    "time": 232.7559255000026,
                    "velocity": 0.6456692913385826,
                    "duration": 0.4612072500000295
                },
                {
                    "name": "D3",
                    "midi": 50,
                    "time": 232.9096612500026,
                    "velocity": 0.4251968503937008,
                    "duration": 0.15373575000000983
                },
                {
                    "name": "F#3",
                    "midi": 54,
                    "time": 233.06339700000262,
                    "velocity": 0.4645669291338583,
                    "duration": 0.15373575000000983
                },
                {
                    "name": "A3",
                    "midi": 57,
                    "time": 233.21713275000263,
                    "velocity": 0.6299212598425197,
                    "duration": 0.15373575000000983
                },
                {
                    "name": "D#4",
                    "midi": 63,
                    "time": 233.37086850000264,
                    "velocity": 0.5118110236220472,
                    "duration": 0.4612072500000295
                },
                {
                    "name": "D#3",
                    "midi": 51,
                    "time": 233.52460425000265,
                    "velocity": 0.48031496062992124,
                    "duration": 0.15373575000000983
                },
                {
                    "name": "A#3",
                    "midi": 58,
                    "time": 233.67834000000266,
                    "velocity": 0.5511811023622047,
                    "duration": 0.15373575000000983
                },
                {
                    "name": "D4",
                    "midi": 62,
                    "time": 233.83207575000267,
                    "velocity": 0.41732283464566927,
                    "duration": 0.15373575000000983
                },
                {
                    "name": "C4",
                    "midi": 60,
                    "time": 233.98581150000268,
                    "velocity": 0.5905511811023622,
                    "duration": 0.4612072500000295
                },
                {
                    "name": "D#3",
                    "midi": 51,
                    "time": 234.1395472500027,
                    "velocity": 0.3700787401574803,
                    "duration": 0.15373575000000983
                },
                {
                    "name": "A3",
                    "midi": 57,
                    "time": 234.2932830000027,
                    "velocity": 0.3937007874015748,
                    "duration": 0.15373575000000983
                },
                {
                    "name": "C4",
                    "midi": 60,
                    "time": 234.4470187500027,
                    "velocity": 0.3937007874015748,
                    "duration": 0.15373575000000983
                },
                {
                    "name": "D#4",
                    "midi": 63,
                    "time": 234.60075450000272,
                    "velocity": 0.4566929133858268,
                    "duration": 0.6149430000000393
                },
                {
                    "name": "A4",
                    "midi": 69,
                    "time": 234.75449025000273,
                    "velocity": 0.3937007874015748,
                    "duration": 0.15373575000000983
                },
                {
                    "name": "C5",
                    "midi": 72,
                    "time": 234.90822600000274,
                    "velocity": 0.44881889763779526,
                    "duration": 0.15373575000000983
                },
                {
                    "name": "D#5",
                    "midi": 75,
                    "time": 235.06196175000275,
                    "velocity": 0.49606299212598426,
                    "duration": 0.15373575000000983
                },
                {
                    "name": "D5",
                    "midi": 74,
                    "time": 235.21569750000276,
                    "velocity": 0.5905511811023622,
                    "duration": 0.4612072500000295
                },
                {
                    "name": "D4",
                    "midi": 62,
                    "time": 235.36943325000277,
                    "velocity": 0.44881889763779526,
                    "duration": 0.15373575000000983
                },
                {
                    "name": "A4",
                    "midi": 69,
                    "time": 235.52316900000278,
                    "velocity": 0.5039370078740157,
                    "duration": 0.15373575000000983
                },
                {
                    "name": "C5",
                    "midi": 72,
                    "time": 235.6769047500028,
                    "velocity": 0.4094488188976378,
                    "duration": 0.15373575000000983
                },
                {
                    "name": "A#4",
                    "midi": 70,
                    "time": 235.8306405000028,
                    "velocity": 0.5669291338582677,
                    "duration": 0.6149430000000393
                },
                {
                    "name": "D4",
                    "midi": 62,
                    "time": 235.9843762500028,
                    "velocity": 0.44881889763779526,
                    "duration": 0.15373575000000983
                },
                {
                    "name": "G4",
                    "midi": 67,
                    "time": 236.13811200000282,
                    "velocity": 0.5118110236220472,
                    "duration": 0.15373575000000983
                },
                {
                    "name": "A#4",
                    "midi": 70,
                    "time": 236.29184775000283,
                    "velocity": 0.4645669291338583,
                    "duration": 0.15373575000000983
                },
                {
                    "name": "D5",
                    "midi": 74,
                    "time": 236.44558350000284,
                    "velocity": 0.6062992125984252,
                    "duration": 0.6149430000000393
                },
                {
                    "name": "G5",
                    "midi": 79,
                    "time": 236.59931925000285,
                    "velocity": 0.48031496062992124,
                    "duration": 0.15373575000000983
                },
                {
                    "name": "A#5",
                    "midi": 82,
                    "time": 236.75305500000286,
                    "velocity": 0.5748031496062992,
                    "duration": 0.15373575000000983
                },
                {
                    "name": "D6",
                    "midi": 86,
                    "time": 236.90679075000287,
                    "velocity": 0.6141732283464567,
                    "duration": 0.15373575000000983
                },
                {
                    "name": "C4",
                    "midi": 60,
                    "time": 237.06052650000288,
                    "velocity": 0.5511811023622047,
                    "duration": 0.4612072500000295
                },
                {
                    "name": "C3",
                    "midi": 48,
                    "time": 237.2142622500029,
                    "velocity": 0.3937007874015748,
                    "duration": 0.15373575000000983
                },
                {
                    "name": "G3",
                    "midi": 55,
                    "time": 237.3679980000029,
                    "velocity": 0.3937007874015748,
                    "duration": 0.15373575000000983
                },
                {
                    "name": "A#3",
                    "midi": 58,
                    "time": 237.5217337500029,
                    "velocity": 0.48031496062992124,
                    "duration": 0.15373575000000983
                },
                {
                    "name": "A3",
                    "midi": 57,
                    "time": 237.67546950000292,
                    "velocity": 0.5590551181102362,
                    "duration": 0.4612072500000295
                },
                {
                    "name": "C3",
                    "midi": 48,
                    "time": 237.82920525000293,
                    "velocity": 0.3543307086614173,
                    "duration": 0.15373575000000983
                },
                {
                    "name": "F3",
                    "midi": 53,
                    "time": 237.98294100000294,
                    "velocity": 0.3543307086614173,
                    "duration": 0.15373575000000983
                },
                {
                    "name": "A3",
                    "midi": 57,
                    "time": 238.13667675000295,
                    "velocity": 0.30708661417322836,
                    "duration": 0.15373575000000983
                },
                {
                    "name": "C4",
                    "midi": 60,
                    "time": 238.29041250000296,
                    "velocity": 0.4566929133858268,
                    "duration": 0.6149430000000393
                },
                {
                    "name": "F4",
                    "midi": 65,
                    "time": 238.44414825000297,
                    "velocity": 0.3937007874015748,
                    "duration": 0.15373575000000983
                },
                {
                    "name": "A4",
                    "midi": 69,
                    "time": 238.59788400000298,
                    "velocity": 0.44881889763779526,
                    "duration": 0.15373575000000983
                },
                {
                    "name": "C5",
                    "midi": 72,
                    "time": 238.751619750003,
                    "velocity": 0.49606299212598426,
                    "duration": 0.15373575000000983
                },
                {
                    "name": "A#4",
                    "midi": 70,
                    "time": 238.905355500003,
                    "velocity": 0.5905511811023622,
                    "duration": 0.4612072500000295
                },
                {
                    "name": "A#3",
                    "midi": 58,
                    "time": 239.059091250003,
                    "velocity": 0.4330708661417323,
                    "duration": 0.15373575000000983
                },
                {
                    "name": "F4",
                    "midi": 65,
                    "time": 239.21282700000302,
                    "velocity": 0.47244094488188976,
                    "duration": 0.15373575000000983
                },
                {
                    "name": "A4",
                    "midi": 69,
                    "time": 239.36656275000303,
                    "velocity": 0.5118110236220472,
                    "duration": 0.15373575000000983
                },
                {
                    "name": "G4",
                    "midi": 67,
                    "time": 239.52029850000304,
                    "velocity": 0.5669291338582677,
                    "duration": 0.6149430000000393
                },
                {
                    "name": "A#3",
                    "midi": 58,
                    "time": 239.67403425000305,
                    "velocity": 0.4251968503937008,
                    "duration": 0.15373575000000983
                },
                {
                    "name": "D#4",
                    "midi": 63,
                    "time": 239.82777000000306,
                    "velocity": 0.47244094488188976,
                    "duration": 0.15373575000000983
                },
                {
                    "name": "G4",
                    "midi": 67,
                    "time": 239.98150575000307,
                    "velocity": 0.4330708661417323,
                    "duration": 0.15373575000000983
                },
                {
                    "name": "A#4",
                    "midi": 70,
                    "time": 240.13524150000308,
                    "velocity": 0.6062992125984252,
                    "duration": 0.6149430000000393
                },
                {
                    "name": "D#5",
                    "midi": 75,
                    "time": 240.2889772500031,
                    "velocity": 0.48031496062992124,
                    "duration": 0.15373575000000983
                },
                {
                    "name": "G5",
                    "midi": 79,
                    "time": 240.4427130000031,
                    "velocity": 0.5748031496062992,
                    "duration": 0.15373575000000983
                },
                {
                    "name": "A#5",
                    "midi": 82,
                    "time": 240.5964487500031,
                    "velocity": 0.6141732283464567,
                    "duration": 0.15373575000000983
                },
                {
                    "name": "A3",
                    "midi": 57,
                    "time": 240.75018450000312,
                    "velocity": 0.5275590551181102,
                    "duration": 0.4612072500000295
                },
                {
                    "name": "A2",
                    "midi": 45,
                    "time": 240.90392025000313,
                    "velocity": 0.3543307086614173,
                    "duration": 0.15373575000000983
                },
                {
                    "name": "D#3",
                    "midi": 51,
                    "time": 241.05765600000313,
                    "velocity": 0.3779527559055118,
                    "duration": 0.15373575000000983
                },
                {
                    "name": "G3",
                    "midi": 55,
                    "time": 241.21139175000314,
                    "velocity": 0.4330708661417323,
                    "duration": 0.15373575000000983
                },
                {
                    "name": "F#3",
                    "midi": 54,
                    "time": 241.36512750000315,
                    "velocity": 0.5354330708661418,
                    "duration": 0.4612072500000295
                },
                {
                    "name": "A2",
                    "midi": 45,
                    "time": 241.51886325000316,
                    "velocity": 0.3543307086614173,
                    "duration": 0.15373575000000983
                },
                {
                    "name": "D3",
                    "midi": 50,
                    "time": 241.67259900000317,
                    "velocity": 0.3779527559055118,
                    "duration": 0.15373575000000983
                },
                {
                    "name": "F#3",
                    "midi": 54,
                    "time": 241.82633475000318,
                    "velocity": 0.33070866141732286,
                    "duration": 0.15373575000000983
                },
                {
                    "name": "A3",
                    "midi": 57,
                    "time": 241.9800705000032,
                    "velocity": 0.49606299212598426,
                    "duration": 0.6149430000000393
                },
                {
                    "name": "D4",
                    "midi": 62,
                    "time": 242.1338062500032,
                    "velocity": 0.4330708661417323,
                    "duration": 0.15373575000000983
                },
                {
                    "name": "F#4",
                    "midi": 66,
                    "time": 242.2875420000032,
                    "velocity": 0.4881889763779528,
                    "duration": 0.15373575000000983
                },
                {
                    "name": "A4",
                    "midi": 69,
                    "time": 242.44127775000322,
                    "velocity": 0.5511811023622047,
                    "duration": 0.15373575000000983
                },
                {
                    "name": "D5",
                    "midi": 74,
                    "time": 242.59501350000323,
                    "velocity": 0.5748031496062992,
                    "duration": 0.4612072500000295
                },
                {
                    "name": "D4",
                    "midi": 62,
                    "time": 242.74874925000324,
                    "velocity": 0.4881889763779528,
                    "duration": 0.15373575000000983
                },
                {
                    "name": "A4",
                    "midi": 69,
                    "time": 242.90248500000325,
                    "velocity": 0.4881889763779528,
                    "duration": 0.15373575000000983
                },
                {
                    "name": "C5",
                    "midi": 72,
                    "time": 243.05622075000326,
                    "velocity": 0.5118110236220472,
                    "duration": 0.15373575000000983
                },
                {
                    "name": "A#4",
                    "midi": 70,
                    "time": 243.20995650000327,
                    "velocity": 0.5748031496062992,
                    "duration": 0.4612072500000295
                },
                {
                    "name": "D4",
                    "midi": 62,
                    "time": 243.36369225000328,
                    "velocity": 0.4409448818897638,
                    "duration": 0.15373575000000983
                },
                {
                    "name": "G4",
                    "midi": 67,
                    "time": 243.5174280000033,
                    "velocity": 0.4881889763779528,
                    "duration": 0.15373575000000983
                },
                {
                    "name": "A#4",
                    "midi": 70,
                    "time": 243.6711637500033,
                    "velocity": 0.4330708661417323,
                    "duration": 0.15373575000000983
                },
                {
                    "name": "D5",
                    "midi": 74,
                    "time": 243.8248995000033,
                    "velocity": 0.6062992125984252,
                    "duration": 0.6149430000000393
                },
                {
                    "name": "G5",
                    "midi": 79,
                    "time": 243.97863525000332,
                    "velocity": 0.5590551181102362,
                    "duration": 0.15373575000000983
                },
                {
                    "name": "A#5",
                    "midi": 82,
                    "time": 244.13237100000333,
                    "velocity": 0.5905511811023622,
                    "duration": 0.15373575000000983
                },
                {
                    "name": "D6",
                    "midi": 86,
                    "time": 244.28610675000334,
                    "velocity": 0.6220472440944882,
                    "duration": 0.15373575000000983
                },
                {
                    "name": "G4",
                    "midi": 67,
                    "time": 244.43984250000335,
                    "velocity": 0.6062992125984252,
                    "duration": 0.4612072500000295
                },
                {
                    "name": "G3",
                    "midi": 55,
                    "time": 244.59357825000336,
                    "velocity": 0.5196850393700787,
                    "duration": 0.15373575000000983
                },
                {
                    "name": "D4",
                    "midi": 62,
                    "time": 244.74731400000337,
                    "velocity": 0.5433070866141733,
                    "duration": 0.15373575000000983
                },
                {
                    "name": "F4",
                    "midi": 65,
                    "time": 244.90104975000338,
                    "velocity": 0.5905511811023622,
                    "duration": 0.15373575000000983
                },
                {
                    "name": "D#4",
                    "midi": 63,
                    "time": 245.0547855000034,
                    "velocity": 0.6220472440944882,
                    "duration": 0.4612072500000295
                },
                {
                    "name": "G3",
                    "midi": 55,
                    "time": 245.2085212500034,
                    "velocity": 0.5590551181102362,
                    "duration": 0.15373575000000983
                },
                {
                    "name": "C4",
                    "midi": 60,
                    "time": 245.3622570000034,
                    "velocity": 0.5984251968503937,
                    "duration": 0.15373575000000983
                },
                {
                    "name": "D#4",
                    "midi": 63,
                    "time": 245.51599275000342,
                    "velocity": 0.6141732283464567,
                    "duration": 0.15373575000000983
                },
                {
                    "name": "G4",
                    "midi": 67,
                    "time": 245.66972850000343,
                    "velocity": 0.6456692913385826,
                    "duration": 0.6149430000000393
                },
                {
                    "name": "C5",
                    "midi": 72,
                    "time": 245.82346425000344,
                    "velocity": 0.5354330708661418,
                    "duration": 0.15373575000000983
                },
                {
                    "name": "D#5",
                    "midi": 75,
                    "time": 245.97720000000345,
                    "velocity": 0.5590551181102362,
                    "duration": 0.15373575000000983
                },
                {
                    "name": "G5",
                    "midi": 79,
                    "time": 246.13093575000346,
                    "velocity": 0.5748031496062992,
                    "duration": 0.11530181250000737
                },
                {
                    "name": "F#5",
                    "midi": 78,
                    "time": 246.28467150000347,
                    "velocity": 0.6377952755905512,
                    "duration": 0.6149430000000109
                },
                {
                    "name": "A4",
                    "midi": 69,
                    "time": 246.28467150000347,
                    "velocity": 0.5354330708661418,
                    "duration": 0.6149430000000109
                },
                {
                    "name": "C5",
                    "midi": 72,
                    "time": 246.28467150000347,
                    "velocity": 0.5354330708661418,
                    "duration": 0.6149430000000109
                },
                {
                    "name": "G5",
                    "midi": 79,
                    "time": 246.89961450000348,
                    "velocity": 0.6614173228346457,
                    "duration": 1.076150250000012
                },
                {
                    "name": "A#4",
                    "midi": 70,
                    "time": 246.89961450000348,
                    "velocity": 0.47244094488188976,
                    "duration": 1.076150250000012
                },
                {
                    "name": "D5",
                    "midi": 74,
                    "time": 246.89961450000348,
                    "velocity": 0.5590551181102362,
                    "duration": 1.076150250000012
                },
                {
                    "name": "D4",
                    "midi": 62,
                    "time": 248.1295005000035,
                    "velocity": 0.3779527559055118,
                    "duration": 0.4612072500000295
                },
                {
                    "name": "D3",
                    "midi": 50,
                    "time": 248.2832362500035,
                    "velocity": 0.3228346456692913,
                    "duration": 0.15373575000000983
                },
                {
                    "name": "G#3",
                    "midi": 56,
                    "time": 248.43697200000352,
                    "velocity": 0.3779527559055118,
                    "duration": 0.15373575000000983
                },
                {
                    "name": "C4",
                    "midi": 60,
                    "time": 248.59070775000353,
                    "velocity": 0.29133858267716534,
                    "duration": 0.15373575000000983
                },
                {
                    "name": "A#3",
                    "midi": 58,
                    "time": 248.74444350000354,
                    "velocity": 0.3858267716535433,
                    "duration": 0.4612072500000295
                },
                {
                    "name": "D#3",
                    "midi": 51,
                    "time": 248.89817925000355,
                    "velocity": 0.3228346456692913,
                    "duration": 0.15373575000000983
                },
                {
                    "name": "G#3",
                    "midi": 56,
                    "time": 249.05191500000356,
                    "velocity": 0.3858267716535433,
                    "duration": 0.15373575000000983
                },
                {
                    "name": "A#3",
                    "midi": 58,
                    "time": 249.20565075000357,
                    "velocity": 0.41732283464566927,
                    "duration": 0.15373575000000983
                },
                {
                    "name": "G4",
                    "midi": 67,
                    "time": 249.35938650000358,
                    "velocity": 0.49606299212598426,
                    "duration": 0.4612072500000295
                },
                {
                    "name": "E3",
                    "midi": 52,
                    "time": 249.5131222500036,
                    "velocity": 0.31496062992125984,
                    "duration": 0.15373575000000983
                },
                {
                    "name": "A#3",
                    "midi": 58,
                    "time": 249.6668580000036,
                    "velocity": 0.36220472440944884,
                    "duration": 0.15373575000000983
                },
                {
                    "name": "G4",
                    "midi": 67,
                    "time": 249.8205937500036,
                    "velocity": 0.4015748031496063,
                    "duration": 0.15373575000000983
                },
                {
                    "name": "F4",
                    "midi": 65,
                    "time": 249.97432950000362,
                    "velocity": 0.44881889763779526,
                    "duration": 0.4612072500000295
                },
                {
                    "name": "F3",
                    "midi": 53,
                    "time": 250.12806525000363,
                    "velocity": 0.3228346456692913,
                    "duration": 0.15373575000000983
                },
                {
                    "name": "A#3",
                    "midi": 58,
                    "time": 250.28180100000364,
                    "velocity": 0.4094488188976378,
                    "duration": 0.15373575000000983
                },
                {
                    "name": "D#4",
                    "midi": 63,
                    "time": 250.43553675000365,
                    "velocity": 0.29133858267716534,
                    "duration": 0.15373575000000983
                },
                {
                    "name": "D4",
                    "midi": 62,
                    "time": 250.58927250000366,
                    "velocity": 0.41732283464566927,
                    "duration": 0.4612072500000295
                },
                {
                    "name": "G3",
                    "midi": 55,
                    "time": 250.74300825000367,
                    "velocity": 0.3228346456692913,
                    "duration": 0.15373575000000983
                },
                {
                    "name": "A#3",
                    "midi": 58,
                    "time": 250.89674400000368,
                    "velocity": 0.41732283464566927,
                    "duration": 0.15373575000000983
                },
                {
                    "name": "D4",
                    "midi": 62,
                    "time": 251.0504797500037,
                    "velocity": 0.4094488188976378,
                    "duration": 0.15373575000000983
                },
                {
                    "name": "G#4",
                    "midi": 68,
                    "time": 251.2042155000037,
                    "velocity": 0.5275590551181102,
                    "duration": 0.4612072500000295
                },
                {
                    "name": "G#3",
                    "midi": 56,
                    "time": 251.3579512500037,
                    "velocity": 0.3228346456692913,
                    "duration": 0.15373575000000983
                },
                {
                    "name": "D4",
                    "midi": 62,
                    "time": 251.51168700000372,
                    "velocity": 0.3700787401574803,
                    "duration": 0.15373575000000983
                },
                {
                    "name": "G#4",
                    "midi": 68,
                    "time": 251.66542275000373,
                    "velocity": 0.41732283464566927,
                    "duration": 0.15373575000000983
                },
                {
                    "name": "G4",
                    "midi": 67,
                    "time": 251.81915850000374,
                    "velocity": 0.4409448818897638,
                    "duration": 0.4612072500000295
                },
                {
                    "name": "G#3",
                    "midi": 56,
                    "time": 251.97289425000375,
                    "velocity": 0.33070866141732286,
                    "duration": 0.15373575000000983
                },
                {
                    "name": "D4",
                    "midi": 62,
                    "time": 252.12663000000376,
                    "velocity": 0.41732283464566927,
                    "duration": 0.15373575000000983
                },
                {
                    "name": "F4",
                    "midi": 65,
                    "time": 252.28036575000377,
                    "velocity": 0.2992125984251969,
                    "duration": 0.15373575000000983
                },
                {
                    "name": "E4",
                    "midi": 64,
                    "time": 252.43410150000378,
                    "velocity": 0.3937007874015748,
                    "duration": 0.4612072500000295
                },
                {
                    "name": "A#3",
                    "midi": 58,
                    "time": 252.5878372500038,
                    "velocity": 0.36220472440944884,
                    "duration": 0.15373575000000983
                },
                {
                    "name": "C#4",
                    "midi": 61,
                    "time": 252.7415730000038,
                    "velocity": 0.4330708661417323,
                    "duration": 0.15373575000000983
                },
                {
                    "name": "E4",
                    "midi": 64,
                    "time": 252.8953087500038,
                    "velocity": 0.5039370078740157,
                    "duration": 0.15373575000000983
                },
                {
                    "name": "A#4",
                    "midi": 70,
                    "time": 253.04904450000382,
                    "velocity": 0.5590551181102362,
                    "duration": 0.4612072500000295
                },
                {
                    "name": "C#4",
                    "midi": 61,
                    "time": 253.20278025000383,
                    "velocity": 0.3464566929133858,
                    "duration": 0.15373575000000983
                },
                {
                    "name": "E4",
                    "midi": 64,
                    "time": 253.35651600000384,
                    "velocity": 0.3937007874015748,
                    "duration": 0.15373575000000983
                },
                {
                    "name": "A#4",
                    "midi": 70,
                    "time": 253.51025175000385,
                    "velocity": 0.4409448818897638,
                    "duration": 0.15373575000000983
                },
                {
                    "name": "G#4",
                    "midi": 68,
                    "time": 253.66398750000386,
                    "velocity": 0.5275590551181102,
                    "duration": 0.4612072500000295
                },
                {
                    "name": "C#4",
                    "midi": 61,
                    "time": 253.81772325000387,
                    "velocity": 0.3543307086614173,
                    "duration": 0.15373575000000983
                },
                {
                    "name": "E4",
                    "midi": 64,
                    "time": 253.97145900000388,
                    "velocity": 0.3700787401574803,
                    "duration": 0.15373575000000983
                },
                {
                    "name": "G4",
                    "midi": 67,
                    "time": 254.12519475000389,
                    "velocity": 0.31496062992125984,
                    "duration": 0.15373575000000983
                },
                {
                    "name": "F#4",
                    "midi": 66,
                    "time": 254.2789305000039,
                    "velocity": 0.4566929133858268,
                    "duration": 0.4612072500000295
                },
                {
                    "name": "C4",
                    "midi": 60,
                    "time": 254.4326662500039,
                    "velocity": 0.3858267716535433,
                    "duration": 0.15373575000000983
                },
                {
                    "name": "D#4",
                    "midi": 63,
                    "time": 254.58640200000391,
                    "velocity": 0.4409448818897638,
                    "duration": 0.15373575000000983
                },
                {
                    "name": "F#4",
                    "midi": 66,
                    "time": 254.74013775000392,
                    "velocity": 0.4881889763779528,
                    "duration": 0.15373575000000983
                },
                {
                    "name": "C5",
                    "midi": 72,
                    "time": 254.89387350000393,
                    "velocity": 0.5590551181102362,
                    "duration": 0.4612072500000295
                },
                {
                    "name": "D#4",
                    "midi": 63,
                    "time": 255.04760925000394,
                    "velocity": 0.3700787401574803,
                    "duration": 0.15373575000000983
                },
                {
                    "name": "F#4",
                    "midi": 66,
                    "time": 255.20134500000395,
                    "velocity": 0.4251968503937008,
                    "duration": 0.15373575000000983
                },
                {
                    "name": "C5",
                    "midi": 72,
                    "time": 255.35508075000396,
                    "velocity": 0.4645669291338583,
                    "duration": 0.15373575000000983
                },
                {
                    "name": "A#4",
                    "midi": 70,
                    "time": 255.50881650000397,
                    "velocity": 0.4881889763779528,
                    "duration": 0.4612072500000295
                },
                {
                    "name": "D#4",
                    "midi": 63,
                    "time": 255.66255225000398,
                    "velocity": 0.3779527559055118,
                    "duration": 0.15373575000000983
                },
                {
                    "name": "F#4",
                    "midi": 66,
                    "time": 255.816288000004,
                    "velocity": 0.4409448818897638,
                    "duration": 0.15373575000000983
                },
                {
                    "name": "A4",
                    "midi": 69,
                    "time": 255.970023750004,
                    "velocity": 0.33070866141732286,
                    "duration": 0.1537357499999814
                },
                {
                    "name": "G#4",
                    "midi": 68,
                    "time": 256.123759500004,
                    "velocity": 0.5118110236220472,
                    "duration": 0.4612072500000295
                },
                {
                    "name": "D4",
                    "midi": 62,
                    "time": 256.277495250004,
                    "velocity": 0.3937007874015748,
                    "duration": 0.15373575000000983
                },
                {
                    "name": "F4",
                    "midi": 65,
                    "time": 256.431231000004,
                    "velocity": 0.48031496062992124,
                    "duration": 0.15373575000000983
                },
                {
                    "name": "A4",
                    "midi": 69,
                    "time": 256.584966750004,
                    "velocity": 0.47244094488188976,
                    "duration": 0.15373575000000983
                },
                {
                    "name": "D5",
                    "midi": 74,
                    "time": 256.738702500004,
                    "velocity": 0.5984251968503937,
                    "duration": 0.4612072500000295
                },
                {
                    "name": "F4",
                    "midi": 65,
                    "time": 256.89243825000403,
                    "velocity": 0.4094488188976378,
                    "duration": 0.15373575000000983
                },
                {
                    "name": "A4",
                    "midi": 69,
                    "time": 257.04617400000404,
                    "velocity": 0.47244094488188976,
                    "duration": 0.15373575000000983
                },
                {
                    "name": "D5",
                    "midi": 74,
                    "time": 257.19990975000405,
                    "velocity": 0.5196850393700787,
                    "duration": 0.15373575000000983
                },
                {
                    "name": "C5",
                    "midi": 72,
                    "time": 257.35364550000406,
                    "velocity": 0.5748031496062992,
                    "duration": 0.4612072500000295
                },
                {
                    "name": "F4",
                    "midi": 65,
                    "time": 257.5073812500041,
                    "velocity": 0.41732283464566927,
                    "duration": 0.15373575000000983
                },
                {
                    "name": "A4",
                    "midi": 69,
                    "time": 257.6611170000041,
                    "velocity": 0.44881889763779526,
                    "duration": 0.15373575000000983
                },
                {
                    "name": "B4",
                    "midi": 71,
                    "time": 257.8148527500041,
                    "velocity": 0.36220472440944884,
                    "duration": 0.15373575000000983
                },
                {
                    "name": "A#4",
                    "midi": 70,
                    "time": 257.9685885000041,
                    "velocity": 0.5433070866141733,
                    "duration": 0.4612072500000295
                },
                {
                    "name": "E4",
                    "midi": 64,
                    "time": 258.1223242500041,
                    "velocity": 0.4566929133858268,
                    "duration": 0.15373575000000983
                },
                {
                    "name": "G4",
                    "midi": 67,
                    "time": 258.2760600000041,
                    "velocity": 0.5196850393700787,
                    "duration": 0.15373575000000983
                },
                {
                    "name": "A#4",
                    "midi": 70,
                    "time": 258.42979575000413,
                    "velocity": 0.5433070866141733,
                    "duration": 0.15373575000000983
                },
                {
                    "name": "E5",
                    "midi": 76,
                    "time": 258.58353150000414,
                    "velocity": 0.6220472440944882,
                    "duration": 0.4612072500000295
                },
                {
                    "name": "G4",
                    "midi": 67,
                    "time": 258.73726725000415,
                    "velocity": 0.4566929133858268,
                    "duration": 0.15373575000000983
                },
                {
                    "name": "A#4",
                    "midi": 70,
                    "time": 258.89100300000416,
                    "velocity": 0.5275590551181102,
                    "duration": 0.15373575000000983
                },
                {
                    "name": "E5",
                    "midi": 76,
                    "time": 259.04473875000417,
                    "velocity": 0.5748031496062992,
                    "duration": 0.15373575000000983
                },
                {
                    "name": "D5",
                    "midi": 74,
                    "time": 259.1984745000042,
                    "velocity": 0.5433070866141733,
                    "duration": 0.4612072500000295
                },
                {
                    "name": "G4",
                    "midi": 67,
                    "time": 259.3522102500042,
                    "velocity": 0.4645669291338583,
                    "duration": 0.15373575000000983
                },
                {
                    "name": "A#4",
                    "midi": 70,
                    "time": 259.5059460000042,
                    "velocity": 0.5511811023622047,
                    "duration": 0.15373575000000983
                },
                {
                    "name": "C#5",
                    "midi": 73,
                    "time": 259.6596817500042,
                    "velocity": 0.4015748031496063,
                    "duration": 0.15373575000000983
                },
                {
                    "name": "D5",
                    "midi": 74,
                    "time": 259.8134175000042,
                    "velocity": 0.5748031496062992,
                    "duration": 0.4612072500000295
                },
                {
                    "name": "F4",
                    "midi": 65,
                    "time": 259.96715325000423,
                    "velocity": 0.4881889763779528,
                    "duration": 0.15373575000000983
                },
                {
                    "name": "A4",
                    "midi": 69,
                    "time": 260.12088900000424,
                    "velocity": 0.5354330708661418,
                    "duration": 0.15373575000000983
                },
                {
                    "name": "D5",
                    "midi": 74,
                    "time": 260.27462475000425,
                    "velocity": 0.5748031496062992,
                    "duration": 0.15373575000000983
                },
                {
                    "name": "A#4",
                    "midi": 70,
                    "time": 260.42836050000426,
                    "velocity": 0.6456692913385826,
                    "duration": 0.4612072500000295
                },
                {
                    "name": "D4",
                    "midi": 62,
                    "time": 260.58209625000427,
                    "velocity": 0.4645669291338583,
                    "duration": 0.15373575000000983
                },
                {
                    "name": "G4",
                    "midi": 67,
                    "time": 260.7358320000043,
                    "velocity": 0.5354330708661418,
                    "duration": 0.15373575000000983
                },
                {
                    "name": "A#4",
                    "midi": 70,
                    "time": 260.8895677500043,
                    "velocity": 0.5905511811023622,
                    "duration": 0.15373575000000983
                },
                {
                    "name": "A4",
                    "midi": 69,
                    "time": 261.0433035000043,
                    "velocity": 0.6456692913385826,
                    "duration": 0.4612072500000295
                },
                {
                    "name": "C#4",
                    "midi": 61,
                    "time": 261.1970392500043,
                    "velocity": 0.4330708661417323,
                    "duration": 0.15373575000000983
                },
                {
                    "name": "E4",
                    "midi": 64,
                    "time": 261.3507750000043,
                    "velocity": 0.4645669291338583,
                    "duration": 0.15373575000000983
                },
                {
                    "name": "A4",
                    "midi": 69,
                    "time": 261.50451075000433,
                    "velocity": 0.5905511811023622,
                    "duration": 0.15373575000000983
                },
                {
                    "name": "D5",
                    "midi": 74,
                    "time": 261.65824650000434,
                    "velocity": 0.6456692913385826,
                    "duration": 0.4612072500000295
                },
                {
                    "name": "D4",
                    "midi": 62,
                    "time": 261.81198225000435,
                    "velocity": 0.41732283464566927,
                    "duration": 0.15373575000000983
                },
                {
                    "name": "A4",
                    "midi": 69,
                    "time": 261.96571800000436,
                    "velocity": 0.4645669291338583,
                    "duration": 0.15373575000000983
                },
                {
                    "name": "C5",
                    "midi": 72,
                    "time": 262.11945375000437,
                    "velocity": 0.5905511811023622,
                    "duration": 0.15373575000000983
                },
                {
                    "name": "A#4",
                    "midi": 70,
                    "time": 262.2731895000044,
                    "velocity": 0.6456692913385826,
                    "duration": 0.4612072500000295
                },
                {
                    "name": "C#4",
                    "midi": 61,
                    "time": 262.4269252500044,
                    "velocity": 0.4330708661417323,
                    "duration": 0.15373575000000983
                },
                {
                    "name": "E4",
                    "midi": 64,
                    "time": 262.5806610000044,
                    "velocity": 0.4645669291338583,
                    "duration": 0.15373575000000983
                },
                {
                    "name": "A4",
                    "midi": 69,
                    "time": 262.7343967500044,
                    "velocity": 0.5905511811023622,
                    "duration": 0.15373575000000983
                },
                {
                    "name": "D5",
                    "midi": 74,
                    "time": 262.8881325000044,
                    "velocity": 0.6456692913385826,
                    "duration": 0.4612072500000295
                },
                {
                    "name": "D4",
                    "midi": 62,
                    "time": 263.0418682500044,
                    "velocity": 0.41732283464566927,
                    "duration": 0.15373575000000983
                },
                {
                    "name": "A4",
                    "midi": 69,
                    "time": 263.19560400000444,
                    "velocity": 0.4645669291338583,
                    "duration": 0.15373575000000983
                },
                {
                    "name": "C5",
                    "midi": 72,
                    "time": 263.34933975000445,
                    "velocity": 0.5905511811023622,
                    "duration": 0.15373575000000983
                },
                {
                    "name": "A#4",
                    "midi": 70,
                    "time": 263.50307550000446,
                    "velocity": 0.6456692913385826,
                    "duration": 0.4612072500000295
                },
                {
                    "name": "C#4",
                    "midi": 61,
                    "time": 263.65681125000447,
                    "velocity": 0.4251968503937008,
                    "duration": 0.15373575000000983
                },
                {
                    "name": "E4",
                    "midi": 64,
                    "time": 263.8105470000045,
                    "velocity": 0.4645669291338583,
                    "duration": 0.15373575000000983
                },
                {
                    "name": "A4",
                    "midi": 69,
                    "time": 263.9642827500045,
                    "velocity": 0.5905511811023622,
                    "duration": 0.15373575000000983
                },
                {
                    "name": "D5",
                    "midi": 74,
                    "time": 264.1180185000045,
                    "velocity": 0.6456692913385826,
                    "duration": 0.4612072500000295
                },
                {
                    "name": "D4",
                    "midi": 62,
                    "time": 264.2717542500045,
                    "velocity": 0.41732283464566927,
                    "duration": 0.15373575000000983
                },
                {
                    "name": "A4",
                    "midi": 69,
                    "time": 264.4254900000045,
                    "velocity": 0.4645669291338583,
                    "duration": 0.15373575000000983
                },
                {
                    "name": "C5",
                    "midi": 72,
                    "time": 264.5792257500045,
                    "velocity": 0.5905511811023622,
                    "duration": 0.15373575000000983
                },
                {
                    "name": "A#4",
                    "midi": 70,
                    "time": 264.73296150000454,
                    "velocity": 0.6456692913385826,
                    "duration": 0.4612072500000295
                },
                {
                    "name": "D4",
                    "midi": 62,
                    "time": 264.88669725000454,
                    "velocity": 0.4251968503937008,
                    "duration": 0.15373575000000983
                },
                {
                    "name": "E4",
                    "midi": 64,
                    "time": 265.04043300000455,
                    "velocity": 0.4645669291338583,
                    "duration": 0.15373575000000983
                },
                {
                    "name": "G4",
                    "midi": 67,
                    "time": 265.19416875000456,
                    "velocity": 0.5905511811023622,
                    "duration": 0.15373575000000983
                },
                {
                    "name": "A4",
                    "midi": 69,
                    "time": 265.3479045000046,
                    "velocity": 0.6456692913385826,
                    "duration": 0.4612072500000295
                },
                {
                    "name": "C#4",
                    "midi": 61,
                    "time": 265.5016402500046,
                    "velocity": 0.4251968503937008,
                    "duration": 0.15373575000000983
                },
                {
                    "name": "E4",
                    "midi": 64,
                    "time": 265.6553760000046,
                    "velocity": 0.4645669291338583,
                    "duration": 0.15373575000000983
                },
                {
                    "name": "A4",
                    "midi": 69,
                    "time": 265.8091117500046,
                    "velocity": 0.5905511811023622,
                    "duration": 0.15373575000000983
                },
                {
                    "name": "D4",
                    "midi": 62,
                    "time": 265.9628475000046,
                    "velocity": 0.6456692913385826,
                    "duration": 0.4612072500000295
                },
                {
                    "name": "F#3",
                    "midi": 54,
                    "time": 266.1165832500046,
                    "velocity": 0.4409448818897638,
                    "duration": 0.15373575000000983
                },
                {
                    "name": "A3",
                    "midi": 57,
                    "time": 266.27031900000463,
                    "velocity": 0.4645669291338583,
                    "duration": 0.15373575000000983
                },
                {
                    "name": "C4",
                    "midi": 60,
                    "time": 266.42405475000464,
                    "velocity": 0.5905511811023622,
                    "duration": 0.15373575000000983
                },
                {
                    "name": "A#3",
                    "midi": 58,
                    "time": 266.57779050000465,
                    "velocity": 0.6456692913385826,
                    "duration": 0.4612072500000295
                },
                {
                    "name": "D3",
                    "midi": 50,
                    "time": 266.73152625000466,
                    "velocity": 0.4251968503937008,
                    "duration": 0.15373575000000983
                },
                {
                    "name": "F#3",
                    "midi": 54,
                    "time": 266.8852620000047,
                    "velocity": 0.4645669291338583,
                    "duration": 0.15373575000000983
                },
                {
                    "name": "A3",
                    "midi": 57,
                    "time": 267.0389977500047,
                    "velocity": 0.6299212598425197,
                    "duration": 0.15373575000000983
                },
                {
                    "name": "D#4",
                    "midi": 63,
                    "time": 267.1927335000047,
                    "velocity": 0.5118110236220472,
                    "duration": 0.4612072500000295
                },
                {
                    "name": "D#3",
                    "midi": 51,
                    "time": 267.3464692500047,
                    "velocity": 0.48031496062992124,
                    "duration": 0.15373575000000983
                },
                {
                    "name": "A#3",
                    "midi": 58,
                    "time": 267.5002050000047,
                    "velocity": 0.5511811023622047,
                    "duration": 0.15373575000000983
                },
                {
                    "name": "D4",
                    "midi": 62,
                    "time": 267.6539407500047,
                    "velocity": 0.41732283464566927,
                    "duration": 0.15373575000000983
                },
                {
                    "name": "C4",
                    "midi": 60,
                    "time": 267.80767650000473,
                    "velocity": 0.5905511811023622,
                    "duration": 0.4612072500000295
                },
                {
                    "name": "D#3",
                    "midi": 51,
                    "time": 267.96141225000474,
                    "velocity": 0.3700787401574803,
                    "duration": 0.15373575000000983
                },
                {
                    "name": "A3",
                    "midi": 57,
                    "time": 268.11514800000475,
                    "velocity": 0.3937007874015748,
                    "duration": 0.15373575000000983
                },
                {
                    "name": "C4",
                    "midi": 60,
                    "time": 268.26888375000476,
                    "velocity": 0.33070866141732286,
                    "duration": 0.15373575000000983
                },
                {
                    "name": "D#4",
                    "midi": 63,
                    "time": 268.42261950000477,
                    "velocity": 0.4566929133858268,
                    "duration": 0.6149430000000393
                },
                {
                    "name": "A4",
                    "midi": 69,
                    "time": 268.5763552500048,
                    "velocity": 0.3937007874015748,
                    "duration": 0.15373575000000983
                },
                {
                    "name": "C5",
                    "midi": 72,
                    "time": 268.7300910000048,
                    "velocity": 0.44881889763779526,
                    "duration": 0.15373575000000983
                },
                {
                    "name": "D#5",
                    "midi": 75,
                    "time": 268.8838267500048,
                    "velocity": 0.49606299212598426,
                    "duration": 0.15373575000000983
                },
                {
                    "name": "D5",
                    "midi": 74,
                    "time": 269.0375625000048,
                    "velocity": 0.5905511811023622,
                    "duration": 0.4612072500000295
                },
                {
                    "name": "D4",
                    "midi": 62,
                    "time": 269.1912982500048,
                    "velocity": 0.44881889763779526,
                    "duration": 0.15373575000000983
                },
                {
                    "name": "A4",
                    "midi": 69,
                    "time": 269.34503400000483,
                    "velocity": 0.5118110236220472,
                    "duration": 0.15373575000000983
                },
                {
                    "name": "C5",
                    "midi": 72,
                    "time": 269.49876975000484,
                    "velocity": 0.44881889763779526,
                    "duration": 0.15373575000000983
                },
                {
                    "name": "A#4",
                    "midi": 70,
                    "time": 269.65250550000485,
                    "velocity": 0.5669291338582677,
                    "duration": 0.6149430000000393
                },
                {
                    "name": "D4",
                    "midi": 62,
                    "time": 269.80624125000486,
                    "velocity": 0.44881889763779526,
                    "duration": 0.15373575000000983
                },
                {
                    "name": "G4",
                    "midi": 67,
                    "time": 269.95997700000487,
                    "velocity": 0.5118110236220472,
                    "duration": 0.15373575000000983
                },
                {
                    "name": "A#4",
                    "midi": 70,
                    "time": 270.1137127500049,
                    "velocity": 0.5118110236220472,
                    "duration": 0.15373575000000983
                },
                {
                    "name": "D5",
                    "midi": 74,
                    "time": 270.2674485000049,
                    "velocity": 0.6062992125984252,
                    "duration": 0.6149430000000393
                },
                {
                    "name": "G5",
                    "midi": 79,
                    "time": 270.4211842500049,
                    "velocity": 0.48031496062992124,
                    "duration": 0.15373575000000983
                },
                {
                    "name": "A#5",
                    "midi": 82,
                    "time": 270.5749200000049,
                    "velocity": 0.5748031496062992,
                    "duration": 0.15373575000000983
                },
                {
                    "name": "D6",
                    "midi": 86,
                    "time": 270.7286557500049,
                    "velocity": 0.6141732283464567,
                    "duration": 0.15373575000000983
                },
                {
                    "name": "C4",
                    "midi": 60,
                    "time": 270.8823915000049,
                    "velocity": 0.5511811023622047,
                    "duration": 0.4612072500000295
                },
                {
                    "name": "C3",
                    "midi": 48,
                    "time": 271.03612725000494,
                    "velocity": 0.3937007874015748,
                    "duration": 0.15373575000000983
                },
                {
                    "name": "G3",
                    "midi": 55,
                    "time": 271.18986300000495,
                    "velocity": 0.33858267716535434,
                    "duration": 0.15373575000000983
                },
                {
                    "name": "A#3",
                    "midi": 58,
                    "time": 271.34359875000496,
                    "velocity": 0.48031496062992124,
                    "duration": 0.15373575000000983
                },
                {
                    "name": "A3",
                    "midi": 57,
                    "time": 271.49733450000497,
                    "velocity": 0.5590551181102362,
                    "duration": 0.4612072500000295
                },
                {
                    "name": "C3",
                    "midi": 48,
                    "time": 271.651070250005,
                    "velocity": 0.31496062992125984,
                    "duration": 0.15373575000000983
                },
                {
                    "name": "F3",
                    "midi": 53,
                    "time": 271.804806000005,
                    "velocity": 0.3543307086614173,
                    "duration": 0.15373575000000983
                },
                {
                    "name": "A3",
                    "midi": 57,
                    "time": 271.958541750005,
                    "velocity": 0.3543307086614173,
                    "duration": 0.15373575000000983
                },
                {
                    "name": "C4",
                    "midi": 60,
                    "time": 272.112277500005,
                    "velocity": 0.4566929133858268,
                    "duration": 0.6149430000000393
                },
                {
                    "name": "F4",
                    "midi": 65,
                    "time": 272.266013250005,
                    "velocity": 0.3937007874015748,
                    "duration": 0.15373575000000983
                },
                {
                    "name": "A4",
                    "midi": 69,
                    "time": 272.419749000005,
                    "velocity": 0.44881889763779526,
                    "duration": 0.15373575000000983
                },
                {
                    "name": "C5",
                    "midi": 72,
                    "time": 272.57348475000504,
                    "velocity": 0.49606299212598426,
                    "duration": 0.15373575000000983
                },
                {
                    "name": "A#4",
                    "midi": 70,
                    "time": 272.72722050000505,
                    "velocity": 0.5905511811023622,
                    "duration": 0.4612072500000295
                },
                {
                    "name": "A#3",
                    "midi": 58,
                    "time": 272.88095625000506,
                    "velocity": 0.4330708661417323,
                    "duration": 0.15373575000000983
                },
                {
                    "name": "F4",
                    "midi": 65,
                    "time": 273.03469200000507,
                    "velocity": 0.47244094488188976,
                    "duration": 0.15373575000000983
                },
                {
                    "name": "A4",
                    "midi": 69,
                    "time": 273.1884277500051,
                    "velocity": 0.5118110236220472,
                    "duration": 0.15373575000000983
                },
                {
                    "name": "G4",
                    "midi": 67,
                    "time": 273.3421635000051,
                    "velocity": 0.5669291338582677,
                    "duration": 0.6149430000000393
                },
                {
                    "name": "A#3",
                    "midi": 58,
                    "time": 273.4958992500051,
                    "velocity": 0.4330708661417323,
                    "duration": 0.15373575000000983
                },
                {
                    "name": "D#4",
                    "midi": 63,
                    "time": 273.6496350000051,
                    "velocity": 0.47244094488188976,
                    "duration": 0.15373575000000983
                },
                {
                    "name": "G4",
                    "midi": 67,
                    "time": 273.8033707500051,
                    "velocity": 0.41732283464566927,
                    "duration": 0.15373575000000983
                },
                {
                    "name": "A#4",
                    "midi": 70,
                    "time": 273.9571065000051,
                    "velocity": 0.6062992125984252,
                    "duration": 0.6149430000000393
                },
                {
                    "name": "D#5",
                    "midi": 75,
                    "time": 274.11084225000513,
                    "velocity": 0.48031496062992124,
                    "duration": 0.15373575000000983
                },
                {
                    "name": "G5",
                    "midi": 79,
                    "time": 274.26457800000514,
                    "velocity": 0.5748031496062992,
                    "duration": 0.15373575000000983
                },
                {
                    "name": "A#5",
                    "midi": 82,
                    "time": 274.41831375000515,
                    "velocity": 0.6141732283464567,
                    "duration": 0.15373575000000983
                },
                {
                    "name": "A3",
                    "midi": 57,
                    "time": 274.57204950000516,
                    "velocity": 0.5275590551181102,
                    "duration": 0.4612072500000295
                },
                {
                    "name": "A2",
                    "midi": 45,
                    "time": 274.7257852500052,
                    "velocity": 0.3779527559055118,
                    "duration": 0.15373575000000983
                },
                {
                    "name": "D#3",
                    "midi": 51,
                    "time": 274.8795210000052,
                    "velocity": 0.3779527559055118,
                    "duration": 0.15373575000000983
                },
                {
                    "name": "G3",
                    "midi": 55,
                    "time": 275.0332567500052,
                    "velocity": 0.4330708661417323,
                    "duration": 0.15373575000000983
                },
                {
                    "name": "F#3",
                    "midi": 54,
                    "time": 275.1869925000052,
                    "velocity": 0.5354330708661418,
                    "duration": 0.4612072500000295
                },
                {
                    "name": "A2",
                    "midi": 45,
                    "time": 275.3407282500052,
                    "velocity": 0.3464566929133858,
                    "duration": 0.15373575000000983
                },
                {
                    "name": "D3",
                    "midi": 50,
                    "time": 275.4944640000052,
                    "velocity": 0.3779527559055118,
                    "duration": 0.15373575000000983
                },
                {
                    "name": "F#3",
                    "midi": 54,
                    "time": 275.64819975000523,
                    "velocity": 0.3464566929133858,
                    "duration": 0.15373575000000983
                },
                {
                    "name": "A3",
                    "midi": 57,
                    "time": 275.80193550000524,
                    "velocity": 0.49606299212598426,
                    "duration": 0.6149430000000393
                },
                {
                    "name": "D4",
                    "midi": 62,
                    "time": 275.95567125000525,
                    "velocity": 0.4330708661417323,
                    "duration": 0.15373575000000983
                },
                {
                    "name": "F#4",
                    "midi": 66,
                    "time": 276.10940700000526,
                    "velocity": 0.4881889763779528,
                    "duration": 0.15373575000000983
                },
                {
                    "name": "A4",
                    "midi": 69,
                    "time": 276.2631427500053,
                    "velocity": 0.5511811023622047,
                    "duration": 0.15373575000000983
                },
                {
                    "name": "D5",
                    "midi": 74,
                    "time": 276.4168785000053,
                    "velocity": 0.5748031496062992,
                    "duration": 0.4612072500000295
                },
                {
                    "name": "D4",
                    "midi": 62,
                    "time": 276.5706142500053,
                    "velocity": 0.44881889763779526,
                    "duration": 0.15373575000000983
                },
                {
                    "name": "A4",
                    "midi": 69,
                    "time": 276.7243500000053,
                    "velocity": 0.4881889763779528,
                    "duration": 0.15373575000000983
                },
                {
                    "name": "C5",
                    "midi": 72,
                    "time": 276.8780857500053,
                    "velocity": 0.5118110236220472,
                    "duration": 0.15373575000000983
                },
                {
                    "name": "A#4",
                    "midi": 70,
                    "time": 277.0318215000053,
                    "velocity": 0.5748031496062992,
                    "duration": 0.4612072500000295
                },
                {
                    "name": "D4",
                    "midi": 62,
                    "time": 277.18555725000533,
                    "velocity": 0.4566929133858268,
                    "duration": 0.15373575000000983
                },
                {
                    "name": "G4",
                    "midi": 67,
                    "time": 277.33929300000534,
                    "velocity": 0.4881889763779528,
                    "duration": 0.15373575000000983
                },
                {
                    "name": "A#4",
                    "midi": 70,
                    "time": 277.49302875000535,
                    "velocity": 0.4409448818897638,
                    "duration": 0.15373575000000983
                },
                {
                    "name": "D5",
                    "midi": 74,
                    "time": 277.64676450000536,
                    "velocity": 0.6062992125984252,
                    "duration": 0.6149430000000393
                },
                {
                    "name": "G5",
                    "midi": 79,
                    "time": 277.80050025000537,
                    "velocity": 0.5590551181102362,
                    "duration": 0.15373575000000983
                },
                {
                    "name": "A#5",
                    "midi": 82,
                    "time": 277.9542360000054,
                    "velocity": 0.5905511811023622,
                    "duration": 0.15373575000000983
                },
                {
                    "name": "D6",
                    "midi": 86,
                    "time": 278.1079717500054,
                    "velocity": 0.6220472440944882,
                    "duration": 0.15373575000000983
                },
                {
                    "name": "G4",
                    "midi": 67,
                    "time": 278.2617075000054,
                    "velocity": 0.6062992125984252,
                    "duration": 0.4612072500000295
                },
                {
                    "name": "G3",
                    "midi": 55,
                    "time": 278.4154432500054,
                    "velocity": 0.5196850393700787,
                    "duration": 0.15373575000000983
                },
                {
                    "name": "D4",
                    "midi": 62,
                    "time": 278.5691790000054,
                    "velocity": 0.5433070866141733,
                    "duration": 0.15373575000000983
                },
                {
                    "name": "F4",
                    "midi": 65,
                    "time": 278.72291475000543,
                    "velocity": 0.5905511811023622,
                    "duration": 0.15373575000000983
                },
                {
                    "name": "D#4",
                    "midi": 63,
                    "time": 278.87665050000544,
                    "velocity": 0.6220472440944882,
                    "duration": 0.4612072500000295
                },
                {
                    "name": "G3",
                    "midi": 55,
                    "time": 279.03038625000545,
                    "velocity": 0.5590551181102362,
                    "duration": 0.15373575000000983
                },
                {
                    "name": "C4",
                    "midi": 60,
                    "time": 279.18412200000546,
                    "velocity": 0.5984251968503937,
                    "duration": 0.15373575000000983
                },
                {
                    "name": "D#4",
                    "midi": 63,
                    "time": 279.33785775000547,
                    "velocity": 0.6141732283464567,
                    "duration": 0.15373575000000983
                },
                {
                    "name": "G4",
                    "midi": 67,
                    "time": 279.4915935000055,
                    "velocity": 0.6456692913385826,
                    "duration": 0.6149429999999825
                },
                {
                    "name": "C5",
                    "midi": 72,
                    "time": 279.6453292500055,
                    "velocity": 0.5354330708661418,
                    "duration": 0.15373575000000983
                },
                {
                    "name": "D#5",
                    "midi": 75,
                    "time": 279.7990650000055,
                    "velocity": 0.5590551181102362,
                    "duration": 0.15373575000000983
                },
                {
                    "name": "G5",
                    "midi": 79,
                    "time": 279.9528007500055,
                    "velocity": 0.5748031496062992,
                    "duration": 0.11530181249997895
                },
                {
                    "name": "F#5",
                    "midi": 78,
                    "time": 280.10653650000546,
                    "velocity": 0.6377952755905512,
                    "duration": 0.6149429999999825
                },
                {
                    "name": "A4",
                    "midi": 69,
                    "time": 280.10653650000546,
                    "velocity": 0.5354330708661418,
                    "duration": 0.6149429999999825
                },
                {
                    "name": "C5",
                    "midi": 72,
                    "time": 280.10653650000546,
                    "velocity": 0.5354330708661418,
                    "duration": 0.6149429999999825
                },
                {
                    "name": "D5",
                    "midi": 74,
                    "time": 280.72147950000544,
                    "velocity": 0.5590551181102362,
                    "duration": 1.076150250000012
                },
                {
                    "name": "A#4",
                    "midi": 70,
                    "time": 280.72147950000544,
                    "velocity": 0.47244094488188976,
                    "duration": 1.076150250000012
                },
                {
                    "name": "G5",
                    "midi": 79,
                    "time": 280.72147950000544,
                    "velocity": 0.6614173228346457,
                    "duration": 1.076150250000012
                },
                {
                    "name": "G4",
                    "midi": 67,
                    "time": 281.95136550000547,
                    "velocity": 0.3937007874015748,
                    "duration": 1.2298860000000786
                },
                {
                    "name": "A#3",
                    "midi": 58,
                    "time": 281.95136550000547,
                    "velocity": 0.33070866141732286,
                    "duration": 1.2298860000000786
                },
                {
                    "name": "C#4",
                    "midi": 61,
                    "time": 281.95136550000547,
                    "velocity": 0.3700787401574803,
                    "duration": 0.30747150000001966
                },
                {
                    "name": "D4",
                    "midi": 62,
                    "time": 282.2588370000055,
                    "velocity": 0.3700787401574803,
                    "duration": 0.30747150000001966
                },
                {
                    "name": "D#4",
                    "midi": 63,
                    "time": 282.5663085000055,
                    "velocity": 0.3937007874015748,
                    "duration": 0.30747150000001966
                },
                {
                    "name": "E4",
                    "midi": 64,
                    "time": 282.8737800000055,
                    "velocity": 0.3543307086614173,
                    "duration": 0.30747150000001966
                },
                {
                    "name": "F4",
                    "midi": 65,
                    "time": 283.18125150000554,
                    "velocity": 0.4015748031496063,
                    "duration": 0.30747150000001966
                },
                {
                    "name": "C#4",
                    "midi": 61,
                    "time": 283.18125150000554,
                    "velocity": 0.30708661417322836,
                    "duration": 0.6149430000000393
                },
                {
                    "name": "A3",
                    "midi": 57,
                    "time": 283.18125150000554,
                    "velocity": 0.3700787401574803,
                    "duration": 0.30747150000001966
                },
                {
                    "name": "G3",
                    "midi": 55,
                    "time": 283.48872300000556,
                    "velocity": 0.3464566929133858,
                    "duration": 0.30747150000001966
                },
                {
                    "name": "E4",
                    "midi": 64,
                    "time": 283.48872300000556,
                    "velocity": 0.3779527559055118,
                    "duration": 0.30747150000001966
                },
                {
                    "name": "F3",
                    "midi": 53,
                    "time": 283.7961945000056,
                    "velocity": 0.3779527559055118,
                    "duration": 0.30747150000001966
                },
                {
                    "name": "D4",
                    "midi": 62,
                    "time": 283.7961945000056,
                    "velocity": 0.4094488188976378,
                    "duration": 0.30747150000001966
                },
                {
                    "name": "E3",
                    "midi": 52,
                    "time": 284.1036660000056,
                    "velocity": 0.33858267716535434,
                    "duration": 0.6149430000000393
                },
                {
                    "name": "E4",
                    "midi": 64,
                    "time": 284.1036660000056,
                    "velocity": 0.3700787401574803,
                    "duration": 0.30747150000001966
                },
                {
                    "name": "C#4",
                    "midi": 61,
                    "time": 284.4111375000056,
                    "velocity": 0.41732283464566927,
                    "duration": 0.30747150000001966
                },
                {
                    "name": "D4",
                    "midi": 62,
                    "time": 284.71860900000564,
                    "velocity": 0.3464566929133858,
                    "duration": 0.30747150000001966
                },
                {
                    "name": "D3",
                    "midi": 50,
                    "time": 284.71860900000564,
                    "velocity": 0.31496062992125984,
                    "duration": 0.9224145000000021
                },
                {
                    "name": "A#3",
                    "midi": 58,
                    "time": 285.02608050000566,
                    "velocity": 0.3937007874015748,
                    "duration": 1.8448290000000611
                },
                {
                    "name": "C#3",
                    "midi": 49,
                    "time": 285.64102350000564,
                    "velocity": 0.3543307086614173,
                    "duration": 0.30747150000001966
                },
                {
                    "name": "D3",
                    "midi": 50,
                    "time": 285.94849500000566,
                    "velocity": 0.3228346456692913,
                    "duration": 0.30747150000001966
                },
                {
                    "name": "D#3",
                    "midi": 51,
                    "time": 286.2559665000057,
                    "velocity": 0.3779527559055118,
                    "duration": 0.30747150000001966
                },
                {
                    "name": "E3",
                    "midi": 52,
                    "time": 286.5634380000057,
                    "velocity": 0.30708661417322836,
                    "duration": 0.30747150000001966
                },
                {
                    "name": "A3",
                    "midi": 57,
                    "time": 286.8709095000057,
                    "velocity": 0.3937007874015748,
                    "duration": 0.922414500000059
                },
                {
                    "name": "G3",
                    "midi": 55,
                    "time": 287.17838100000574,
                    "velocity": 0.3464566929133858,
                    "duration": 0.30747150000001966
                },
                {
                    "name": "D3",
                    "midi": 50,
                    "time": 287.48585250000576,
                    "velocity": 0.30708661417322836,
                    "duration": 0.922414500000059
                },
                {
                    "name": "F3",
                    "midi": 53,
                    "time": 287.48585250000576,
                    "velocity": 0.4015748031496063,
                    "duration": 0.30747150000001966
                },
                {
                    "name": "G3",
                    "midi": 55,
                    "time": 287.7933240000058,
                    "velocity": 0.29133858267716534,
                    "duration": 0.6149430000000393
                },
                {
                    "name": "E3",
                    "midi": 52,
                    "time": 288.1007955000058,
                    "velocity": 0.28346456692913385,
                    "duration": 0.30747150000001966
                },
                {
                    "name": "F3",
                    "midi": 53,
                    "time": 288.4082670000058,
                    "velocity": 0.3700787401574803,
                    "duration": 0.30747150000001966
                },
                {
                    "name": "C#3",
                    "midi": 49,
                    "time": 288.4082670000058,
                    "velocity": 0.28346456692913385,
                    "duration": 0.30747150000001966
                },
                {
                    "name": "D3",
                    "midi": 50,
                    "time": 288.71573850000584,
                    "velocity": 0.30708661417322836,
                    "duration": 0.6149429999999825
                },
                {
                    "name": "C#4",
                    "midi": 61,
                    "time": 289.3306815000058,
                    "velocity": 0.3464566929133858,
                    "duration": 0.30747150000001966
                },
                {
                    "name": "A#3",
                    "midi": 58,
                    "time": 289.3306815000058,
                    "velocity": 0.33070866141732286,
                    "duration": 1.2298860000000786
                },
                {
                    "name": "G4",
                    "midi": 67,
                    "time": 289.3306815000058,
                    "velocity": 0.3937007874015748,
                    "duration": 1.2298860000000786
                },
                {
                    "name": "D4",
                    "midi": 62,
                    "time": 289.63815300000584,
                    "velocity": 0.33858267716535434,
                    "duration": 0.30747150000001966
                },
                {
                    "name": "D#4",
                    "midi": 63,
                    "time": 289.94562450000586,
                    "velocity": 0.36220472440944884,
                    "duration": 0.30747150000001966
                },
                {
                    "name": "E4",
                    "midi": 64,
                    "time": 290.2530960000059,
                    "velocity": 0.3228346456692913,
                    "duration": 0.30747150000001966
                },
                {
                    "name": "F4",
                    "midi": 65,
                    "time": 290.5605675000059,
                    "velocity": 0.3700787401574803,
                    "duration": 0.30747150000001966
                },
                {
                    "name": "C#4",
                    "midi": 61,
                    "time": 290.5605675000059,
                    "velocity": 0.30708661417322836,
                    "duration": 0.6149430000000393
                },
                {
                    "name": "A3",
                    "midi": 57,
                    "time": 290.5605675000059,
                    "velocity": 0.3700787401574803,
                    "duration": 0.30747150000001966
                },
                {
                    "name": "G3",
                    "midi": 55,
                    "time": 290.8680390000059,
                    "velocity": 0.3464566929133858,
                    "duration": 0.30747150000001966
                },
                {
                    "name": "E4",
                    "midi": 64,
                    "time": 290.8680390000059,
                    "velocity": 0.3464566929133858,
                    "duration": 0.30747150000001966
                },
                {
                    "name": "F3",
                    "midi": 53,
                    "time": 291.17551050000594,
                    "velocity": 0.3779527559055118,
                    "duration": 0.30747150000001966
                },
                {
                    "name": "D4",
                    "midi": 62,
                    "time": 291.17551050000594,
                    "velocity": 0.3779527559055118,
                    "duration": 0.30747150000001966
                },
                {
                    "name": "E4",
                    "midi": 64,
                    "time": 291.48298200000596,
                    "velocity": 0.33858267716535434,
                    "duration": 0.30747150000001966
                },
                {
                    "name": "G3",
                    "midi": 55,
                    "time": 291.48298200000596,
                    "velocity": 0.28346456692913385,
                    "duration": 0.30747150000001966
                },
                {
                    "name": "C#4",
                    "midi": 61,
                    "time": 291.790453500006,
                    "velocity": 0.3858267716535433,
                    "duration": 0.30747150000001966
                },
                {
                    "name": "E3",
                    "midi": 52,
                    "time": 291.790453500006,
                    "velocity": 0.33858267716535434,
                    "duration": 0.30747150000001966
                },
                {
                    "name": "F3",
                    "midi": 53,
                    "time": 292.097925000006,
                    "velocity": 0.33858267716535434,
                    "duration": 0.30747150000001966
                },
                {
                    "name": "D4",
                    "midi": 62,
                    "time": 292.097925000006,
                    "velocity": 0.31496062992125984,
                    "duration": 0.30747150000001966
                },
                {
                    "name": "D3",
                    "midi": 50,
                    "time": 292.405396500006,
                    "velocity": 0.31496062992125984,
                    "duration": 0.6149429999999825
                },
                {
                    "name": "A#3",
                    "midi": 58,
                    "time": 292.405396500006,
                    "velocity": 0.3937007874015748,
                    "duration": 1.8448290000000611
                },
                {
                    "name": "C#3",
                    "midi": 49,
                    "time": 293.020339500006,
                    "velocity": 0.3858267716535433,
                    "duration": 0.30747150000001966
                },
                {
                    "name": "D3",
                    "midi": 50,
                    "time": 293.327811000006,
                    "velocity": 0.3543307086614173,
                    "duration": 0.30747150000001966
                },
                {
                    "name": "D#3",
                    "midi": 51,
                    "time": 293.63528250000604,
                    "velocity": 0.4094488188976378,
                    "duration": 0.30747150000001966
                },
                {
                    "name": "E3",
                    "midi": 52,
                    "time": 293.94275400000606,
                    "velocity": 0.33070866141732286,
                    "duration": 0.30747150000001966
                },
                {
                    "name": "A3",
                    "midi": 57,
                    "time": 294.2502255000061,
                    "velocity": 0.3937007874015748,
                    "duration": 0.6149430000000393
                },
                {
                    "name": "G3",
                    "midi": 55,
                    "time": 294.5576970000061,
                    "velocity": 0.3464566929133858,
                    "duration": 0.30747150000001966
                },
                {
                    "name": "D3",
                    "midi": 50,
                    "time": 294.8651685000061,
                    "velocity": 0.30708661417322836,
                    "duration": 0.922414500000059
                },
                {
                    "name": "F3",
                    "midi": 53,
                    "time": 294.8651685000061,
                    "velocity": 0.4015748031496063,
                    "duration": 0.30747150000001966
                },
                {
                    "name": "G3",
                    "midi": 55,
                    "time": 295.17264000000614,
                    "velocity": 0.29133858267716534,
                    "duration": 0.30747150000001966
                },
                {
                    "name": "E3",
                    "midi": 52,
                    "time": 295.48011150000616,
                    "velocity": 0.4015748031496063,
                    "duration": 0.30747150000001966
                },
                {
                    "name": "C#3",
                    "midi": 49,
                    "time": 295.7875830000062,
                    "velocity": 0.23622047244094488,
                    "duration": 0.30747150000001966
                },
                {
                    "name": "F3",
                    "midi": 53,
                    "time": 295.7875830000062,
                    "velocity": 0.2677165354330709,
                    "duration": 0.30747150000001966
                },
                {
                    "name": "D3",
                    "midi": 50,
                    "time": 296.0950545000062,
                    "velocity": 0.33070866141732286,
                    "duration": 0.6149429999999825
                },
                {
                    "name": "F3",
                    "midi": 53,
                    "time": 296.7099975000062,
                    "velocity": 0.28346456692913385,
                    "duration": 1.2298860000000218
                },
                {
                    "name": "D4",
                    "midi": 62,
                    "time": 296.7099975000062,
                    "velocity": 0.33858267716535434,
                    "duration": 1.8448290000000611
                },
                {
                    "name": "A3",
                    "midi": 57,
                    "time": 297.9398835000062,
                    "velocity": 0.3543307086614173,
                    "duration": 0.30747150000001966
                },
                {
                    "name": "G3",
                    "midi": 55,
                    "time": 298.2473550000062,
                    "velocity": 0.33858267716535434,
                    "duration": 1.5373575000000415
                },
                {
                    "name": "E4",
                    "midi": 64,
                    "time": 298.55482650000624,
                    "velocity": 0.4015748031496063,
                    "duration": 1.8448290000000611
                },
                {
                    "name": "A#3",
                    "midi": 58,
                    "time": 299.78471250000626,
                    "velocity": 0.3779527559055118,
                    "duration": 0.30747150000001966
                },
                {
                    "name": "A3",
                    "midi": 57,
                    "time": 300.0921840000063,
                    "velocity": 0.3464566929133858,
                    "duration": 1.5373575000000415
                },
                {
                    "name": "F#4",
                    "midi": 66,
                    "time": 300.3996555000063,
                    "velocity": 0.3858267716535433,
                    "duration": 1.2298860000000218
                },
                {
                    "name": "C4",
                    "midi": 60,
                    "time": 301.6295415000063,
                    "velocity": 0.2755905511811024,
                    "duration": 0.30747150000001966
                },
                {
                    "name": "C5",
                    "midi": 72,
                    "time": 301.6295415000063,
                    "velocity": 0.3937007874015748,
                    "duration": 0.30747150000001966
                },
                {
                    "name": "B4",
                    "midi": 71,
                    "time": 301.93701300000635,
                    "velocity": 0.3543307086614173,
                    "duration": 0.30747150000001966
                },
                {
                    "name": "B3",
                    "midi": 59,
                    "time": 301.93701300000635,
                    "velocity": 0.25196850393700787,
                    "duration": 1.5373575000000415
                },
                {
                    "name": "G#4",
                    "midi": 68,
                    "time": 302.24448450000637,
                    "velocity": 0.4015748031496063,
                    "duration": 1.2298860000000218
                },
                {
                    "name": "D5",
                    "midi": 74,
                    "time": 303.4743705000064,
                    "velocity": 0.4409448818897638,
                    "duration": 0.30747150000001966
                },
                {
                    "name": "D4",
                    "midi": 62,
                    "time": 303.4743705000064,
                    "velocity": 0.30708661417322836,
                    "duration": 0.30747150000001966
                },
                {
                    "name": "C#5",
                    "midi": 73,
                    "time": 303.7818420000064,
                    "velocity": 0.4251968503937008,
                    "duration": 0.30747150000001966
                },
                {
                    "name": "C#4",
                    "midi": 61,
                    "time": 303.7818420000064,
                    "velocity": 0.2992125984251969,
                    "duration": 0.30747150000001966
                },
                {
                    "name": "C#5",
                    "midi": 73,
                    "time": 304.0893135000064,
                    "velocity": 0.4409448818897638,
                    "duration": 0.922414500000059
                },
                {
                    "name": "F#4",
                    "midi": 66,
                    "time": 304.0893135000064,
                    "velocity": 0.3700787401574803,
                    "duration": 0.30747150000001966
                },
                {
                    "name": "G#4",
                    "midi": 68,
                    "time": 304.39678500000645,
                    "velocity": 0.3937007874015748,
                    "duration": 0.30747150000001966
                },
                {
                    "name": "A#4",
                    "midi": 70,
                    "time": 304.70425650000647,
                    "velocity": 0.33858267716535434,
                    "duration": 0.30747150000001966
                },
                {
                    "name": "C#5",
                    "midi": 73,
                    "time": 305.0117280000065,
                    "velocity": 0.4094488188976378,
                    "duration": 0.30747150000001966
                },
                {
                    "name": "F#5",
                    "midi": 78,
                    "time": 305.3191995000065,
                    "velocity": 0.48031496062992124,
                    "duration": 0.922414500000059
                },
                {
                    "name": "D#5",
                    "midi": 75,
                    "time": 305.3191995000065,
                    "velocity": 0.4015748031496063,
                    "duration": 0.30747150000001966
                },
                {
                    "name": "C#5",
                    "midi": 73,
                    "time": 305.6266710000065,
                    "velocity": 0.4409448818897638,
                    "duration": 0.30747150000001966
                },
                {
                    "name": "A#4",
                    "midi": 70,
                    "time": 305.93414250000654,
                    "velocity": 0.4015748031496063,
                    "duration": 0.30747150000001966
                },
                {
                    "name": "F#4",
                    "midi": 66,
                    "time": 306.24161400000656,
                    "velocity": 0.3779527559055118,
                    "duration": 0.30747150000001966
                },
                {
                    "name": "C#5",
                    "midi": 73,
                    "time": 306.24161400000656,
                    "velocity": 0.3779527559055118,
                    "duration": 0.30747150000001966
                },
                {
                    "name": "C#5",
                    "midi": 73,
                    "time": 306.5490855000066,
                    "velocity": 0.4330708661417323,
                    "duration": 1.2298860000000218
                },
                {
                    "name": "F4",
                    "midi": 65,
                    "time": 306.5490855000066,
                    "velocity": 0.36220472440944884,
                    "duration": 1.2298860000000218
                },
                {
                    "name": "F#4",
                    "midi": 66,
                    "time": 307.7789715000066,
                    "velocity": 0.4409448818897638,
                    "duration": 0.30747150000001966
                },
                {
                    "name": "C#5",
                    "midi": 73,
                    "time": 307.7789715000066,
                    "velocity": 0.4409448818897638,
                    "duration": 0.922414500000059
                },
                {
                    "name": "G#4",
                    "midi": 68,
                    "time": 308.0864430000066,
                    "velocity": 0.3937007874015748,
                    "duration": 0.30747150000001966
                },
                {
                    "name": "A#4",
                    "midi": 70,
                    "time": 308.39391450000664,
                    "velocity": 0.33858267716535434,
                    "duration": 0.30747150000001966
                },
                {
                    "name": "C#5",
                    "midi": 73,
                    "time": 308.70138600000666,
                    "velocity": 0.4094488188976378,
                    "duration": 0.30747150000001966
                },
                {
                    "name": "D#5",
                    "midi": 75,
                    "time": 309.0088575000067,
                    "velocity": 0.4015748031496063,
                    "duration": 0.30747150000001966
                },
                {
                    "name": "F#5",
                    "midi": 78,
                    "time": 309.0088575000067,
                    "velocity": 0.48031496062992124,
                    "duration": 1.2298860000000786
                },
                {
                    "name": "C#5",
                    "midi": 73,
                    "time": 309.3163290000067,
                    "velocity": 0.4409448818897638,
                    "duration": 0.30747150000001966
                },
                {
                    "name": "A#4",
                    "midi": 70,
                    "time": 309.6238005000067,
                    "velocity": 0.4015748031496063,
                    "duration": 0.30747150000001966
                },
                {
                    "name": "F#4",
                    "midi": 66,
                    "time": 309.93127200000674,
                    "velocity": 0.3779527559055118,
                    "duration": 0.30747150000001966
                },
                {
                    "name": "C#5",
                    "midi": 73,
                    "time": 310.16187562500676,
                    "velocity": 0.4330708661417323,
                    "duration": 0.07174335000001975
                },
                {
                    "name": "C#5",
                    "midi": 73,
                    "time": 310.23874350000676,
                    "velocity": 0.4330708661417323,
                    "duration": 1.2298860000000218
                },
                {
                    "name": "E4",
                    "midi": 64,
                    "time": 310.23874350000676,
                    "velocity": 0.36220472440944884,
                    "duration": 1.2298860000000218
                },
                {
                    "name": "A#3",
                    "midi": 58,
                    "time": 311.4686295000068,
                    "velocity": 0.23622047244094488,
                    "duration": 0.30747150000001966
                },
                {
                    "name": "A#4",
                    "midi": 70,
                    "time": 311.4686295000068,
                    "velocity": 0.33858267716535434,
                    "duration": 0.30747150000001966
                },
                {
                    "name": "C4",
                    "midi": 60,
                    "time": 311.7761010000068,
                    "velocity": 0.23622047244094488,
                    "duration": 0.30747150000001966
                },
                {
                    "name": "C5",
                    "midi": 72,
                    "time": 311.7761010000068,
                    "velocity": 0.33858267716535434,
                    "duration": 0.30747150000001966
                },
                {
                    "name": "D4",
                    "midi": 62,
                    "time": 312.0835725000068,
                    "velocity": 0.2440944881889764,
                    "duration": 0.30747150000001966
                },
                {
                    "name": "D5",
                    "midi": 74,
                    "time": 312.0835725000068,
                    "velocity": 0.3464566929133858,
                    "duration": 0.30747150000001966
                },
                {
                    "name": "F4",
                    "midi": 65,
                    "time": 312.39104400000684,
                    "velocity": 0.2677165354330709,
                    "duration": 0.30747150000001966
                },
                {
                    "name": "F5",
                    "midi": 77,
                    "time": 312.39104400000684,
                    "velocity": 0.4094488188976378,
                    "duration": 0.30747150000001966
                },
                {
                    "name": "G5",
                    "midi": 79,
                    "time": 312.69851550000686,
                    "velocity": 0.44881889763779526,
                    "duration": 0.30747150000001966
                },
                {
                    "name": "G4",
                    "midi": 67,
                    "time": 312.69851550000686,
                    "velocity": 0.28346456692913385,
                    "duration": 0.30747150000001966
                },
                {
                    "name": "F4",
                    "midi": 65,
                    "time": 313.0059870000069,
                    "velocity": 0.2283464566929134,
                    "duration": 0.30747150000001966
                },
                {
                    "name": "F5",
                    "midi": 77,
                    "time": 313.0059870000069,
                    "velocity": 0.33070866141732286,
                    "duration": 0.30747150000001966
                },
                {
                    "name": "D4",
                    "midi": 62,
                    "time": 313.3134585000069,
                    "velocity": 0.2440944881889764,
                    "duration": 0.46120724999997265
                },
                {
                    "name": "D5",
                    "midi": 74,
                    "time": 313.3134585000069,
                    "velocity": 0.3464566929133858,
                    "duration": 0.46120724999997265
                },
                {
                    "name": "A#4",
                    "midi": 70,
                    "time": 313.7746657500069,
                    "velocity": 0.30708661417322836,
                    "duration": 0.15373575000000983
                },
                {
                    "name": "A#3",
                    "midi": 58,
                    "time": 313.7746657500069,
                    "velocity": 0.2204724409448819,
                    "duration": 0.15373575000000983
                },
                {
                    "name": "A#4",
                    "midi": 70,
                    "time": 313.9284015000069,
                    "velocity": 0.3543307086614173,
                    "duration": 1.2298860000000218
                },
                {
                    "name": "A#3",
                    "midi": 58,
                    "time": 313.9284015000069,
                    "velocity": 0.25196850393700787,
                    "duration": 1.2298860000000218
                },
                {
                    "name": "A#3",
                    "midi": 58,
                    "time": 315.1582875000069,
                    "velocity": 0.23622047244094488,
                    "duration": 0.30747150000001966
                },
                {
                    "name": "A#4",
                    "midi": 70,
                    "time": 315.1582875000069,
                    "velocity": 0.33858267716535434,
                    "duration": 0.30747150000001966
                },
                {
                    "name": "C4",
                    "midi": 60,
                    "time": 315.4657590000069,
                    "velocity": 0.23622047244094488,
                    "duration": 0.30747150000001966
                },
                {
                    "name": "C5",
                    "midi": 72,
                    "time": 315.4657590000069,
                    "velocity": 0.33858267716535434,
                    "duration": 0.30747150000001966
                },
                {
                    "name": "D5",
                    "midi": 74,
                    "time": 315.77323050000695,
                    "velocity": 0.3464566929133858,
                    "duration": 0.30747150000001966
                },
                {
                    "name": "D4",
                    "midi": 62,
                    "time": 315.77323050000695,
                    "velocity": 0.2440944881889764,
                    "duration": 0.30747150000001966
                },
                {
                    "name": "F4",
                    "midi": 65,
                    "time": 316.08070200000697,
                    "velocity": 0.2677165354330709,
                    "duration": 0.30747150000001966
                },
                {
                    "name": "F5",
                    "midi": 77,
                    "time": 316.08070200000697,
                    "velocity": 0.4015748031496063,
                    "duration": 0.30747150000001966
                },
                {
                    "name": "G5",
                    "midi": 79,
                    "time": 316.388173500007,
                    "velocity": 0.4409448818897638,
                    "duration": 0.30747150000001966
                },
                {
                    "name": "G4",
                    "midi": 67,
                    "time": 316.388173500007,
                    "velocity": 0.28346456692913385,
                    "duration": 0.30747150000001966
                },
                {
                    "name": "F5",
                    "midi": 77,
                    "time": 316.695645000007,
                    "velocity": 0.33070866141732286,
                    "duration": 0.30747150000001966
                },
                {
                    "name": "F4",
                    "midi": 65,
                    "time": 316.695645000007,
                    "velocity": 0.2283464566929134,
                    "duration": 0.30747150000001966
                },
                {
                    "name": "D5",
                    "midi": 74,
                    "time": 317.003116500007,
                    "velocity": 0.3464566929133858,
                    "duration": 0.46120724999997265
                },
                {
                    "name": "D4",
                    "midi": 62,
                    "time": 317.003116500007,
                    "velocity": 0.2440944881889764,
                    "duration": 0.46120724999997265
                },
                {
                    "name": "A#4",
                    "midi": 70,
                    "time": 317.464323750007,
                    "velocity": 0.30708661417322836,
                    "duration": 0.15373575000000983
                },
                {
                    "name": "A#3",
                    "midi": 58,
                    "time": 317.464323750007,
                    "velocity": 0.2204724409448819,
                    "duration": 0.15373575000000983
                },
                {
                    "name": "A#3",
                    "midi": 58,
                    "time": 317.618059500007,
                    "velocity": 0.25196850393700787,
                    "duration": 1.2298860000000218
                },
                {
                    "name": "A#4",
                    "midi": 70,
                    "time": 317.618059500007,
                    "velocity": 0.3543307086614173,
                    "duration": 1.2298860000000218
                },
                {
                    "name": "A#4",
                    "midi": 70,
                    "time": 318.84794550000703,
                    "velocity": 0.33858267716535434,
                    "duration": 0.30747150000001966
                },
                {
                    "name": "A#3",
                    "midi": 58,
                    "time": 318.84794550000703,
                    "velocity": 0.23622047244094488,
                    "duration": 0.30747150000001966
                },
                {
                    "name": "C4",
                    "midi": 60,
                    "time": 319.15541700000705,
                    "velocity": 0.23622047244094488,
                    "duration": 0.30747150000001966
                },
                {
                    "name": "C5",
                    "midi": 72,
                    "time": 319.15541700000705,
                    "velocity": 0.33858267716535434,
                    "duration": 0.30747150000001966
                },
                {
                    "name": "A#4",
                    "midi": 70,
                    "time": 319.46288850000707,
                    "velocity": 0.3464566929133858,
                    "duration": 0.30747150000001966
                },
                {
                    "name": "A#3",
                    "midi": 58,
                    "time": 319.46288850000707,
                    "velocity": 0.2440944881889764,
                    "duration": 0.30747150000001966
                },
                {
                    "name": "D5",
                    "midi": 74,
                    "time": 319.7703600000071,
                    "velocity": 0.4094488188976378,
                    "duration": 0.30747150000001966
                },
                {
                    "name": "D4",
                    "midi": 62,
                    "time": 319.7703600000071,
                    "velocity": 0.2677165354330709,
                    "duration": 0.30747150000001966
                },
                {
                    "name": "D#5",
                    "midi": 75,
                    "time": 320.0778315000071,
                    "velocity": 0.4409448818897638,
                    "duration": 0.30747150000001966
                },
                {
                    "name": "D#4",
                    "midi": 63,
                    "time": 320.0778315000071,
                    "velocity": 0.28346456692913385,
                    "duration": 0.30747150000001966
                },
                {
                    "name": "D4",
                    "midi": 62,
                    "time": 320.3853030000071,
                    "velocity": 0.2283464566929134,
                    "duration": 0.30747150000001966
                },
                {
                    "name": "D5",
                    "midi": 74,
                    "time": 320.3853030000071,
                    "velocity": 0.33070866141732286,
                    "duration": 0.30747150000001966
                },
                {
                    "name": "A#3",
                    "midi": 58,
                    "time": 320.69277450000715,
                    "velocity": 0.2440944881889764,
                    "duration": 0.46120724999997265
                },
                {
                    "name": "A#4",
                    "midi": 70,
                    "time": 320.69277450000715,
                    "velocity": 0.3464566929133858,
                    "duration": 0.46120724999997265
                },
                {
                    "name": "G4",
                    "midi": 67,
                    "time": 321.1539817500071,
                    "velocity": 0.30708661417322836,
                    "duration": 0.15373575000000983
                },
                {
                    "name": "G3",
                    "midi": 55,
                    "time": 321.1539817500071,
                    "velocity": 0.2204724409448819,
                    "duration": 0.15373575000000983
                },
                {
                    "name": "F4",
                    "midi": 65,
                    "time": 321.30771750000713,
                    "velocity": 0.3543307086614173,
                    "duration": 0.6149429999999825
                },
                {
                    "name": "F3",
                    "midi": 53,
                    "time": 321.30771750000713,
                    "velocity": 0.25196850393700787,
                    "duration": 0.6149429999999825
                },
                {
                    "name": "G4",
                    "midi": 67,
                    "time": 322.48635825000713,
                    "velocity": 0.41732283464566927,
                    "duration": 0.3587167500000419
                },
                {
                    "name": "G5",
                    "midi": 79,
                    "time": 322.53760350000715,
                    "velocity": 0.4645669291338583,
                    "duration": 0.30747150000001966
                },
                {
                    "name": "F4",
                    "midi": 65,
                    "time": 322.84507500000717,
                    "velocity": 0.2992125984251969,
                    "duration": 0.30747150000001966
                },
                {
                    "name": "F5",
                    "midi": 77,
                    "time": 322.84507500000717,
                    "velocity": 0.3543307086614173,
                    "duration": 0.30747150000001966
                },
                {
                    "name": "D#4",
                    "midi": 63,
                    "time": 323.1525465000072,
                    "velocity": 0.31496062992125984,
                    "duration": 0.30747150000001966
                },
                {
                    "name": "D#5",
                    "midi": 75,
                    "time": 323.1525465000072,
                    "velocity": 0.3779527559055118,
                    "duration": 0.15373575000000983
                },
                {
                    "name": "F5",
                    "midi": 77,
                    "time": 323.3062822500072,
                    "velocity": 0.3228346456692913,
                    "duration": 0.07686787500000491
                },
                {
                    "name": "D#5",
                    "midi": 75,
                    "time": 323.3831501250072,
                    "velocity": 0.3228346456692913,
                    "duration": 0.07686787500000491
                },
                {
                    "name": "F#4",
                    "midi": 66,
                    "time": 323.4600180000072,
                    "velocity": 0.29133858267716534,
                    "duration": 0.30747150000001966
                },
                {
                    "name": "D5",
                    "midi": 74,
                    "time": 323.4600180000072,
                    "velocity": 0.4015748031496063,
                    "duration": 0.15373575000000983
                },
                {
                    "name": "C5",
                    "midi": 72,
                    "time": 323.6137537500072,
                    "velocity": 0.3700787401574803,
                    "duration": 0.15373575000000983
                },
                {
                    "name": "A#4",
                    "midi": 70,
                    "time": 323.76748950000723,
                    "velocity": 0.4015748031496063,
                    "duration": 0.6149429999999825
                },
                {
                    "name": "F4",
                    "midi": 65,
                    "time": 323.76748950000723,
                    "velocity": 0.28346456692913385,
                    "duration": 0.6149429999999825
                },
                {
                    "name": "F5",
                    "midi": 77,
                    "time": 323.76748950000723,
                    "velocity": 0.4015748031496063,
                    "duration": 1.229885999999965
                },
                {
                    "name": "A4",
                    "midi": 69,
                    "time": 324.3824325000072,
                    "velocity": 0.3700787401574803,
                    "duration": 0.6149429999999825
                },
                {
                    "name": "D#4",
                    "midi": 63,
                    "time": 324.3824325000072,
                    "velocity": 0.30708661417322836,
                    "duration": 0.6149429999999825
                },
                {
                    "name": "A#4",
                    "midi": 70,
                    "time": 324.9205076250072,
                    "velocity": 0.33858267716535434,
                    "duration": 0.07686787500000491
                },
                {
                    "name": "A#4",
                    "midi": 70,
                    "time": 324.9973755000072,
                    "velocity": 0.3937007874015748,
                    "duration": 0.6149429999999825
                },
                {
                    "name": "D4",
                    "midi": 62,
                    "time": 324.9973755000072,
                    "velocity": 0.33070866141732286,
                    "duration": 0.6149429999999825
                },
                {
                    "name": "G4",
                    "midi": 67,
                    "time": 326.22726150000716,
                    "velocity": 0.33858267716535434,
                    "duration": 0.30747150000001966
                },
                {
                    "name": "D4",
                    "midi": 62,
                    "time": 326.22726150000716,
                    "velocity": 0.23622047244094488,
                    "duration": 0.30747150000001966
                },
                {
                    "name": "C4",
                    "midi": 60,
                    "time": 326.5347330000072,
                    "velocity": 0.2204724409448819,
                    "duration": 0.30747150000001966
                },
                {
                    "name": "A4",
                    "midi": 69,
                    "time": 326.5347330000072,
                    "velocity": 0.30708661417322836,
                    "duration": 0.30747150000001966
                },
                {
                    "name": "A#3",
                    "midi": 58,
                    "time": 326.8422045000072,
                    "velocity": 0.2283464566929134,
                    "duration": 0.30747150000001966
                },
                {
                    "name": "A#4",
                    "midi": 70,
                    "time": 326.8422045000072,
                    "velocity": 0.33070866141732286,
                    "duration": 0.30747150000001966
                },
                {
                    "name": "A4",
                    "midi": 69,
                    "time": 327.1496760000072,
                    "velocity": 0.2440944881889764,
                    "duration": 0.30747150000001966
                },
                {
                    "name": "C5",
                    "midi": 72,
                    "time": 327.1496760000072,
                    "velocity": 0.3464566929133858,
                    "duration": 0.30747150000001966
                },
                {
                    "name": "D5",
                    "midi": 74,
                    "time": 327.45714750000724,
                    "velocity": 0.36220472440944884,
                    "duration": 0.30747150000001966
                },
                {
                    "name": "G4",
                    "midi": 67,
                    "time": 327.45714750000724,
                    "velocity": 0.25984251968503935,
                    "duration": 0.30747150000001966
                },
                {
                    "name": "F4",
                    "midi": 65,
                    "time": 327.76461900000726,
                    "velocity": 0.2677165354330709,
                    "duration": 0.30747150000001966
                },
                {
                    "name": "E5",
                    "midi": 76,
                    "time": 327.76461900000726,
                    "velocity": 0.3779527559055118,
                    "duration": 0.30747150000001966
                },
                {
                    "name": "F5",
                    "midi": 77,
                    "time": 328.0720905000073,
                    "velocity": 0.4015748031496063,
                    "duration": 0.30747150000001966
                },
                {
                    "name": "E4",
                    "midi": 64,
                    "time": 328.0720905000073,
                    "velocity": 0.2755905511811024,
                    "duration": 0.30747150000001966
                },
                {
                    "name": "G5",
                    "midi": 79,
                    "time": 328.3795620000073,
                    "velocity": 0.4251968503937008,
                    "duration": 0.30747150000001966
                },
                {
                    "name": "D5",
                    "midi": 74,
                    "time": 328.3795620000073,
                    "velocity": 0.29133858267716534,
                    "duration": 0.30747150000001966
                },
                {
                    "name": "A5",
                    "midi": 81,
                    "time": 328.6870335000073,
                    "velocity": 0.47244094488188976,
                    "duration": 0.30747150000001966
                },
                {
                    "name": "C5",
                    "midi": 72,
                    "time": 328.6870335000073,
                    "velocity": 0.3543307086614173,
                    "duration": 0.30747150000001966
                },
                {
                    "name": "E5",
                    "midi": 76,
                    "time": 328.99450500000734,
                    "velocity": 0.29133858267716534,
                    "duration": 0.30747150000001966
                },
                {
                    "name": "G5",
                    "midi": 79,
                    "time": 328.99450500000734,
                    "velocity": 0.4094488188976378,
                    "duration": 0.30747150000001966
                },
                {
                    "name": "F5",
                    "midi": 77,
                    "time": 329.30197650000736,
                    "velocity": 0.4015748031496063,
                    "duration": 0.30747150000001966
                },
                {
                    "name": "A4",
                    "midi": 69,
                    "time": 329.30197650000736,
                    "velocity": 0.28346456692913385,
                    "duration": 0.30747150000001966
                },
                {
                    "name": "E5",
                    "midi": 76,
                    "time": 329.6094480000074,
                    "velocity": 0.3937007874015748,
                    "duration": 0.30747150000001966
                },
                {
                    "name": "C5",
                    "midi": 72,
                    "time": 329.6094480000074,
                    "velocity": 0.2755905511811024,
                    "duration": 0.30747150000001966
                },
                {
                    "name": "G4",
                    "midi": 67,
                    "time": 329.9169195000074,
                    "velocity": 0.2677165354330709,
                    "duration": 0.30747150000001966
                },
                {
                    "name": "D5",
                    "midi": 74,
                    "time": 329.9169195000074,
                    "velocity": 0.3858267716535433,
                    "duration": 0.30747150000001966
                },
                {
                    "name": "A4",
                    "midi": 69,
                    "time": 330.2243910000074,
                    "velocity": 0.2283464566929134,
                    "duration": 0.30747150000001966
                },
                {
                    "name": "C5",
                    "midi": 72,
                    "time": 330.2243910000074,
                    "velocity": 0.3779527559055118,
                    "duration": 0.30747150000001966
                },
                {
                    "name": "E4",
                    "midi": 64,
                    "time": 330.53186250000743,
                    "velocity": 0.25984251968503935,
                    "duration": 0.30747150000001966
                },
                {
                    "name": "A#4",
                    "midi": 70,
                    "time": 330.53186250000743,
                    "velocity": 0.3700787401574803,
                    "duration": 0.30747150000001966
                },
                {
                    "name": "F4",
                    "midi": 65,
                    "time": 330.83933400000745,
                    "velocity": 0.2204724409448819,
                    "duration": 0.30747150000001966
                },
                {
                    "name": "A4",
                    "midi": 69,
                    "time": 330.83933400000745,
                    "velocity": 0.31496062992125984,
                    "duration": 0.30747150000001966
                },
                {
                    "name": "C#4",
                    "midi": 61,
                    "time": 331.1468055000075,
                    "velocity": 0.31496062992125984,
                    "duration": 0.30747150000001966
                },
                {
                    "name": "G4",
                    "midi": 67,
                    "time": 331.1468055000075,
                    "velocity": 0.3779527559055118,
                    "duration": 0.30747150000001966
                },
                {
                    "name": "F4",
                    "midi": 65,
                    "time": 331.4542770000075,
                    "velocity": 0.33070866141732286,
                    "duration": 0.30747150000001966
                },
                {
                    "name": "D4",
                    "midi": 62,
                    "time": 331.4542770000075,
                    "velocity": 0.23622047244094488,
                    "duration": 0.30747150000001966
                },
                {
                    "name": "D#4",
                    "midi": 63,
                    "time": 331.7617485000075,
                    "velocity": 0.2677165354330709,
                    "duration": 0.30747150000001966
                },
                {
                    "name": "A4",
                    "midi": 69,
                    "time": 331.7617485000075,
                    "velocity": 0.3858267716535433,
                    "duration": 0.30747150000001966
                },
                {
                    "name": "G4",
                    "midi": 67,
                    "time": 332.06922000000753,
                    "velocity": 0.3464566929133858,
                    "duration": 0.30747150000001966
                },
                {
                    "name": "E4",
                    "midi": 64,
                    "time": 332.06922000000753,
                    "velocity": 0.25196850393700787,
                    "duration": 0.30747150000001966
                },
                {
                    "name": "F4",
                    "midi": 65,
                    "time": 332.37669150000755,
                    "velocity": 0.3464566929133858,
                    "duration": 0.30747150000001966
                },
                {
                    "name": "F5",
                    "midi": 77,
                    "time": 332.37669150000755,
                    "velocity": 0.47244094488188976,
                    "duration": 0.30747150000001966
                },
                {
                    "name": "D#5",
                    "midi": 75,
                    "time": 332.6841630000076,
                    "velocity": 0.4330708661417323,
                    "duration": 0.30747150000001966
                },
                {
                    "name": "D#4",
                    "midi": 63,
                    "time": 332.6841630000076,
                    "velocity": 0.30708661417322836,
                    "duration": 0.30747150000001966
                },
                {
                    "name": "D4",
                    "midi": 62,
                    "time": 332.9916345000076,
                    "velocity": 0.2677165354330709,
                    "duration": 0.30747150000001966
                },
                {
                    "name": "D5",
                    "midi": 74,
                    "time": 332.9916345000076,
                    "velocity": 0.3937007874015748,
                    "duration": 0.30747150000001966
                },
                {
                    "name": "C5",
                    "midi": 72,
                    "time": 333.2991060000076,
                    "velocity": 0.3700787401574803,
                    "duration": 0.30747150000001966
                },
                {
                    "name": "C4",
                    "midi": 60,
                    "time": 333.2991060000076,
                    "velocity": 0.25984251968503935,
                    "duration": 0.30747150000001966
                },
                {
                    "name": "A#3",
                    "midi": 58,
                    "time": 333.60657750000763,
                    "velocity": 0.25984251968503935,
                    "duration": 0.30747150000001966
                },
                {
                    "name": "A#4",
                    "midi": 70,
                    "time": 333.60657750000763,
                    "velocity": 0.3700787401574803,
                    "duration": 0.30747150000001966
                },
                {
                    "name": "C4",
                    "midi": 60,
                    "time": 333.91404900000765,
                    "velocity": 0.2283464566929134,
                    "duration": 0.30747150000001966
                },
                {
                    "name": "C5",
                    "midi": 72,
                    "time": 333.91404900000765,
                    "velocity": 0.33070866141732286,
                    "duration": 0.30747150000001966
                },
                {
                    "name": "D5",
                    "midi": 74,
                    "time": 334.22152050000767,
                    "velocity": 0.3700787401574803,
                    "duration": 1.2298860000000786
                },
                {
                    "name": "D4",
                    "midi": 62,
                    "time": 334.22152050000767,
                    "velocity": 0.30708661417322836,
                    "duration": 0.30747150000001966
                },
                {
                    "name": "C5",
                    "midi": 72,
                    "time": 334.5289920000077,
                    "velocity": 0.4094488188976378,
                    "duration": 0.30747150000001966
                },
                {
                    "name": "A#4",
                    "midi": 70,
                    "time": 334.8364635000077,
                    "velocity": 0.3858267716535433,
                    "duration": 0.30747150000001966
                },
                {
                    "name": "A4",
                    "midi": 69,
                    "time": 335.14393500000773,
                    "velocity": 0.3464566929133858,
                    "duration": 0.30747150000001966
                },
                {
                    "name": "G4",
                    "midi": 67,
                    "time": 335.45140650000775,
                    "velocity": 0.2677165354330709,
                    "duration": 0.30747150000001966
                },
                {
                    "name": "D#5",
                    "midi": 75,
                    "time": 335.45140650000775,
                    "velocity": 0.3858267716535433,
                    "duration": 0.30747150000001966
                },
                {
                    "name": "F5",
                    "midi": 77,
                    "time": 335.75887800000777,
                    "velocity": 0.4094488188976378,
                    "duration": 0.30747150000001966
                },
                {
                    "name": "F4",
                    "midi": 65,
                    "time": 335.75887800000777,
                    "velocity": 0.29133858267716534,
                    "duration": 0.30747150000001966
                },
                {
                    "name": "D#4",
                    "midi": 63,
                    "time": 336.0663495000078,
                    "velocity": 0.3700787401574803,
                    "duration": 0.30747150000001966
                },
                {
                    "name": "G5",
                    "midi": 79,
                    "time": 336.0663495000078,
                    "velocity": 0.4409448818897638,
                    "duration": 0.922414500000059
                },
                {
                    "name": "F4",
                    "midi": 65,
                    "time": 336.3738210000078,
                    "velocity": 0.33858267716535434,
                    "duration": 0.30747150000001966
                },
                {
                    "name": "G4",
                    "midi": 67,
                    "time": 336.6812925000078,
                    "velocity": 0.3700787401574803,
                    "duration": 0.30747150000001966
                },
                {
                    "name": "F5",
                    "midi": 77,
                    "time": 336.98876400000785,
                    "velocity": 0.41732283464566927,
                    "duration": 0.30747150000001966
                },
                {
                    "name": "A4",
                    "midi": 69,
                    "time": 336.98876400000785,
                    "velocity": 0.2992125984251969,
                    "duration": 0.30747150000001966
                },
                {
                    "name": "D#5",
                    "midi": 75,
                    "time": 337.29623550000787,
                    "velocity": 0.4015748031496063,
                    "duration": 0.30747150000001966
                },
                {
                    "name": "A#4",
                    "midi": 70,
                    "time": 337.29623550000787,
                    "velocity": 0.28346456692913385,
                    "duration": 0.30747150000001966
                },
                {
                    "name": "B4",
                    "midi": 71,
                    "time": 337.6037070000079,
                    "velocity": 0.2755905511811024,
                    "duration": 0.30747150000001966
                },
                {
                    "name": "D5",
                    "midi": 74,
                    "time": 337.6037070000079,
                    "velocity": 0.3937007874015748,
                    "duration": 0.30747150000001966
                },
                {
                    "name": "C5",
                    "midi": 72,
                    "time": 337.9111785000079,
                    "velocity": 0.4094488188976378,
                    "duration": 0.6149430000000393
                },
                {
                    "name": "A#4",
                    "midi": 70,
                    "time": 338.2186500000079,
                    "velocity": 0.3700787401574803,
                    "duration": 0.30747150000001966
                },
                {
                    "name": "C5",
                    "midi": 72,
                    "time": 338.52612150000795,
                    "velocity": 0.3700787401574803,
                    "duration": 0.30747150000001966
                },
                {
                    "name": "A4",
                    "midi": 69,
                    "time": 338.52612150000795,
                    "velocity": 0.25984251968503935,
                    "duration": 0.30747150000001966
                },
                {
                    "name": "D5",
                    "midi": 74,
                    "time": 338.83359300000797,
                    "velocity": 0.3464566929133858,
                    "duration": 0.30747150000001966
                },
                {
                    "name": "G4",
                    "midi": 67,
                    "time": 338.83359300000797,
                    "velocity": 0.2440944881889764,
                    "duration": 0.30747150000001966
                },
                {
                    "name": "F4",
                    "midi": 65,
                    "time": 339.141064500008,
                    "velocity": 0.33070866141732286,
                    "duration": 0.30747150000001966
                },
                {
                    "name": "D#5",
                    "midi": 75,
                    "time": 339.141064500008,
                    "velocity": 0.3937007874015748,
                    "duration": 0.6149430000000393
                },
                {
                    "name": "D#4",
                    "midi": 63,
                    "time": 339.448536000008,
                    "velocity": 0.3700787401574803,
                    "duration": 0.30747150000001966
                },
                {
                    "name": "D4",
                    "midi": 62,
                    "time": 339.756007500008,
                    "velocity": 0.3543307086614173,
                    "duration": 0.30747150000001966
                },
                {
                    "name": "F5",
                    "midi": 77,
                    "time": 339.756007500008,
                    "velocity": 0.4251968503937008,
                    "duration": 0.922414500000059
                },
                {
                    "name": "F4",
                    "midi": 65,
                    "time": 340.06347900000804,
                    "velocity": 0.3700787401574803,
                    "duration": 0.30747150000001966
                },
                {
                    "name": "A#4",
                    "midi": 70,
                    "time": 340.37095050000806,
                    "velocity": 0.3700787401574803,
                    "duration": 0.30747150000001966
                },
                {
                    "name": "D5",
                    "midi": 74,
                    "time": 340.6784220000081,
                    "velocity": 0.36220472440944884,
                    "duration": 0.30747150000001966
                },
                {
                    "name": "A#4",
                    "midi": 70,
                    "time": 340.9858935000081,
                    "velocity": 0.30708661417322836,
                    "duration": 0.30747150000001966
                },
                {
                    "name": "A#5",
                    "midi": 82,
                    "time": 340.9858935000081,
                    "velocity": 0.4251968503937008,
                    "duration": 0.30747150000001966
                },
                {
                    "name": "C5",
                    "midi": 72,
                    "time": 341.2933650000081,
                    "velocity": 0.2755905511811024,
                    "duration": 0.30747150000001966
                },
                {
                    "name": "C6",
                    "midi": 84,
                    "time": 341.2933650000081,
                    "velocity": 0.3779527559055118,
                    "duration": 0.30747150000001966
                },
                {
                    "name": "D6",
                    "midi": 86,
                    "time": 341.60083650000814,
                    "velocity": 0.4251968503937008,
                    "duration": 1.2298860000000786
                },
                {
                    "name": "D5",
                    "midi": 74,
                    "time": 341.60083650000814,
                    "velocity": 0.30708661417322836,
                    "duration": 0.30747150000001966
                },
                {
                    "name": "C6",
                    "midi": 84,
                    "time": 341.90830800000816,
                    "velocity": 0.4094488188976378,
                    "duration": 0.30747150000001966
                },
                {
                    "name": "A#5",
                    "midi": 82,
                    "time": 342.2157795000082,
                    "velocity": 0.3858267716535433,
                    "duration": 0.30747150000001966
                },
                {
                    "name": "A5",
                    "midi": 81,
                    "time": 342.5232510000082,
                    "velocity": 0.3464566929133858,
                    "duration": 0.30747150000001966
                },
                {
                    "name": "D#6",
                    "midi": 87,
                    "time": 342.8307225000082,
                    "velocity": 0.4409448818897638,
                    "duration": 0.30747150000001966
                },
                {
                    "name": "G5",
                    "midi": 79,
                    "time": 342.8307225000082,
                    "velocity": 0.3228346456692913,
                    "duration": 0.30747150000001966
                },
                {
                    "name": "F5",
                    "midi": 77,
                    "time": 343.13819400000824,
                    "velocity": 0.3464566929133858,
                    "duration": 0.30747150000001966
                },
                {
                    "name": "F6",
                    "midi": 89,
                    "time": 343.13819400000824,
                    "velocity": 0.4645669291338583,
                    "duration": 0.30747150000001966
                },
                {
                    "name": "G6",
                    "midi": 91,
                    "time": 343.44566550000826,
                    "velocity": 0.5039370078740157,
                    "duration": 0.922414500000059
                },
                {
                    "name": "D#5",
                    "midi": 75,
                    "time": 343.44566550000826,
                    "velocity": 0.3700787401574803,
                    "duration": 0.30747150000001966
                },
                {
                    "name": "F5",
                    "midi": 77,
                    "time": 343.7531370000083,
                    "velocity": 0.33858267716535434,
                    "duration": 0.30747150000001966
                },
                {
                    "name": "G5",
                    "midi": 79,
                    "time": 344.0606085000083,
                    "velocity": 0.3700787401574803,
                    "duration": 0.30747150000001966
                },
                {
                    "name": "A5",
                    "midi": 81,
                    "time": 344.3680800000083,
                    "velocity": 0.3543307086614173,
                    "duration": 0.30747150000001966
                },
                {
                    "name": "F6",
                    "midi": 89,
                    "time": 344.3680800000083,
                    "velocity": 0.47244094488188976,
                    "duration": 0.30747150000001966
                },
                {
                    "name": "D#6",
                    "midi": 87,
                    "time": 344.67555150000834,
                    "velocity": 0.4566929133858268,
                    "duration": 0.30747150000001966
                },
                {
                    "name": "A#5",
                    "midi": 82,
                    "time": 344.67555150000834,
                    "velocity": 0.33858267716535434,
                    "duration": 0.30747150000001966
                },
                {
                    "name": "B5",
                    "midi": 83,
                    "time": 344.98302300000836,
                    "velocity": 0.33070866141732286,
                    "duration": 0.30747150000001966
                },
                {
                    "name": "D6",
                    "midi": 86,
                    "time": 344.98302300000836,
                    "velocity": 0.44881889763779526,
                    "duration": 0.30747150000001966
                },
                {
                    "name": "C6",
                    "midi": 84,
                    "time": 345.2904945000084,
                    "velocity": 0.4645669291338583,
                    "duration": 0.6149430000000393
                },
                {
                    "name": "A#5",
                    "midi": 82,
                    "time": 345.5979660000084,
                    "velocity": 0.4251968503937008,
                    "duration": 0.30747150000001966
                },
                {
                    "name": "C6",
                    "midi": 84,
                    "time": 345.9054375000084,
                    "velocity": 0.4251968503937008,
                    "duration": 0.30747150000001966
                },
                {
                    "name": "A5",
                    "midi": 81,
                    "time": 345.9054375000084,
                    "velocity": 0.30708661417322836,
                    "duration": 0.30747150000001966
                },
                {
                    "name": "G5",
                    "midi": 79,
                    "time": 346.21290900000844,
                    "velocity": 0.29133858267716534,
                    "duration": 0.30747150000001966
                },
                {
                    "name": "D6",
                    "midi": 86,
                    "time": 346.21290900000844,
                    "velocity": 0.3937007874015748,
                    "duration": 0.30747150000001966
                },
                {
                    "name": "F5",
                    "midi": 77,
                    "time": 346.52038050000846,
                    "velocity": 0.33070866141732286,
                    "duration": 0.30747150000001966
                },
                {
                    "name": "D#6",
                    "midi": 87,
                    "time": 346.52038050000846,
                    "velocity": 0.44881889763779526,
                    "duration": 0.6149430000000393
                },
                {
                    "name": "D#5",
                    "midi": 75,
                    "time": 346.8278520000085,
                    "velocity": 0.3700787401574803,
                    "duration": 0.30747150000001966
                },
                {
                    "name": "F6",
                    "midi": 89,
                    "time": 347.1353235000085,
                    "velocity": 0.4881889763779528,
                    "duration": 0.922414500000059
                },
                {
                    "name": "D5",
                    "midi": 74,
                    "time": 347.1353235000085,
                    "velocity": 0.3543307086614173,
                    "duration": 0.30747150000001966
                },
                {
                    "name": "D#5",
                    "midi": 75,
                    "time": 347.4427950000085,
                    "velocity": 0.3700787401574803,
                    "duration": 0.30747150000001966
                },
                {
                    "name": "F5",
                    "midi": 77,
                    "time": 347.75026650000854,
                    "velocity": 0.3700787401574803,
                    "duration": 0.30747150000001966
                },
                {
                    "name": "D#6",
                    "midi": 87,
                    "time": 348.05773800000856,
                    "velocity": 0.4094488188976378,
                    "duration": 0.30747150000001966
                },
                {
                    "name": "G5",
                    "midi": 79,
                    "time": 348.05773800000856,
                    "velocity": 0.30708661417322836,
                    "duration": 0.30747150000001966
                },
                {
                    "name": "G#5",
                    "midi": 80,
                    "time": 348.3652095000086,
                    "velocity": 0.30708661417322836,
                    "duration": 0.30747150000001966
                },
                {
                    "name": "D6",
                    "midi": 86,
                    "time": 348.3652095000086,
                    "velocity": 0.4251968503937008,
                    "duration": 0.30747150000001966
                },
                {
                    "name": "A5",
                    "midi": 81,
                    "time": 348.6726810000086,
                    "velocity": 0.29133858267716534,
                    "duration": 0.30747150000001966
                },
                {
                    "name": "C6",
                    "midi": 84,
                    "time": 348.6726810000086,
                    "velocity": 0.3937007874015748,
                    "duration": 0.30747150000001966
                },
                {
                    "name": "A#5",
                    "midi": 82,
                    "time": 348.9801525000086,
                    "velocity": 0.4251968503937008,
                    "duration": 0.5380751250000344
                },
                {
                    "name": "A5",
                    "midi": 81,
                    "time": 349.28762400000863,
                    "velocity": 0.3464566929133858,
                    "duration": 0.15373575000000983
                },
                {
                    "name": "A#5",
                    "midi": 82,
                    "time": 349.44135975000864,
                    "velocity": 0.2992125984251969,
                    "duration": 0.15373575000000983
                },
                {
                    "name": "C6",
                    "midi": 84,
                    "time": 349.51822762500865,
                    "velocity": 0.29133858267716534,
                    "duration": 0.07686787500000491
                },
                {
                    "name": "A#5",
                    "midi": 82,
                    "time": 349.59509550000865,
                    "velocity": 0.4251968503937008,
                    "duration": 0.30747150000001966
                },
                {
                    "name": "G5",
                    "midi": 79,
                    "time": 349.59509550000865,
                    "velocity": 0.2992125984251969,
                    "duration": 0.30747150000001966
                },
                {
                    "name": "C6",
                    "midi": 84,
                    "time": 349.9025670000087,
                    "velocity": 0.4094488188976378,
                    "duration": 0.30747150000001966
                },
                {
                    "name": "F5",
                    "midi": 77,
                    "time": 349.9025670000087,
                    "velocity": 0.30708661417322836,
                    "duration": 0.30747150000001966
                },
                {
                    "name": "D#5",
                    "midi": 75,
                    "time": 350.2100385000087,
                    "velocity": 0.3937007874015748,
                    "duration": 0.30747150000001966
                },
                {
                    "name": "D6",
                    "midi": 86,
                    "time": 350.2100385000087,
                    "velocity": 0.44881889763779526,
                    "duration": 0.6149430000000393
                },
                {
                    "name": "D5",
                    "midi": 74,
                    "time": 350.5175100000087,
                    "velocity": 0.3464566929133858,
                    "duration": 0.30747150000001966
                },
                {
                    "name": "C5",
                    "midi": 72,
                    "time": 350.82498150000873,
                    "velocity": 0.33858267716535434,
                    "duration": 0.30747150000001966
                },
                {
                    "name": "D#6",
                    "midi": 87,
                    "time": 350.82498150000873,
                    "velocity": 0.4566929133858268,
                    "duration": 0.30747150000001966
                },
                {
                    "name": "D5",
                    "midi": 74,
                    "time": 351.13245300000875,
                    "velocity": 0.33070866141732286,
                    "duration": 0.30747150000001966
                },
                {
                    "name": "D6",
                    "midi": 86,
                    "time": 351.13245300000875,
                    "velocity": 0.44881889763779526,
                    "duration": 0.30747150000001966
                },
                {
                    "name": "D#5",
                    "midi": 75,
                    "time": 351.4399245000088,
                    "velocity": 0.31496062992125984,
                    "duration": 0.30747150000001966
                },
                {
                    "name": "C6",
                    "midi": 84,
                    "time": 351.4399245000088,
                    "velocity": 0.4330708661417323,
                    "duration": 0.30747150000001966
                },
                {
                    "name": "A#5",
                    "midi": 82,
                    "time": 351.7473960000088,
                    "velocity": 0.4251968503937008,
                    "duration": 0.30747150000001966
                },
                {
                    "name": "E5",
                    "midi": 76,
                    "time": 351.7473960000088,
                    "velocity": 0.25984251968503935,
                    "duration": 0.30747150000001966
                },
                {
                    "name": "F5",
                    "midi": 77,
                    "time": 352.0548675000088,
                    "velocity": 0.25984251968503935,
                    "duration": 0.30747150000001966
                },
                {
                    "name": "A5",
                    "midi": 81,
                    "time": 352.0548675000088,
                    "velocity": 0.4094488188976378,
                    "duration": 0.30747150000001966
                },
                {
                    "name": "D#5",
                    "midi": 75,
                    "time": 352.36233900000883,
                    "velocity": 0.2440944881889764,
                    "duration": 0.30747150000001966
                },
                {
                    "name": "G5",
                    "midi": 79,
                    "time": 352.36233900000883,
                    "velocity": 0.3937007874015748,
                    "duration": 0.30747150000001966
                },
                {
                    "name": "F5",
                    "midi": 77,
                    "time": 352.66981050000885,
                    "velocity": 0.36220472440944884,
                    "duration": 0.30747150000001966
                },
                {
                    "name": "D5",
                    "midi": 74,
                    "time": 352.66981050000885,
                    "velocity": 0.2677165354330709,
                    "duration": 0.30747150000001966
                },
                {
                    "name": "F4",
                    "midi": 65,
                    "time": 352.66981050000885,
                    "velocity": 0.2755905511811024,
                    "duration": 0.30747150000001966
                },
                {
                    "name": "D#5",
                    "midi": 75,
                    "time": 352.97728200000887,
                    "velocity": 0.33858267716535434,
                    "duration": 0.30747150000001966
                },
                {
                    "name": "G4",
                    "midi": 67,
                    "time": 352.97728200000887,
                    "velocity": 0.25984251968503935,
                    "duration": 0.30747150000001966
                },
                {
                    "name": "C5",
                    "midi": 72,
                    "time": 352.97728200000887,
                    "velocity": 0.2677165354330709,
                    "duration": 0.30747150000001966
                },
                {
                    "name": "A4",
                    "midi": 69,
                    "time": 353.2078856250089,
                    "velocity": 0.31496062992125984,
                    "duration": 0.07686787500000491
                },
                {
                    "name": "A#4",
                    "midi": 70,
                    "time": 353.2847535000089,
                    "velocity": 0.25984251968503935,
                    "duration": 0.30747150000001966
                },
                {
                    "name": "D5",
                    "midi": 74,
                    "time": 353.2847535000089,
                    "velocity": 0.30708661417322836,
                    "duration": 0.30747150000001966
                },
                {
                    "name": "A4",
                    "midi": 69,
                    "time": 353.5922250000089,
                    "velocity": 0.25196850393700787,
                    "duration": 0.30747150000001966
                },
                {
                    "name": "C5",
                    "midi": 72,
                    "time": 353.5922250000089,
                    "velocity": 0.2992125984251969,
                    "duration": 0.30747150000001966
                },
                {
                    "name": "G4",
                    "midi": 67,
                    "time": 353.89969650000893,
                    "velocity": 0.16535433070866143,
                    "duration": 0.15373575000000983
                },
                {
                    "name": "A#4",
                    "midi": 70,
                    "time": 353.89969650000893,
                    "velocity": 0.28346456692913385,
                    "duration": 0.15373575000000983
                },
                {
                    "name": "F4",
                    "midi": 65,
                    "time": 354.05343225000894,
                    "velocity": 0.14173228346456693,
                    "duration": 0.15373575000000983
                },
                {
                    "name": "A4",
                    "midi": 69,
                    "time": 354.05343225000894,
                    "velocity": 0.2440944881889764,
                    "duration": 0.15373575000000983
                },
                {
                    "name": "G4",
                    "midi": 67,
                    "time": 354.20716800000895,
                    "velocity": 0.29133858267716534,
                    "duration": 0.15373575000000983
                },
                {
                    "name": "D#4",
                    "midi": 63,
                    "time": 354.20716800000895,
                    "velocity": 0.2047244094488189,
                    "duration": 0.15373575000000983
                },
                {
                    "name": "F4",
                    "midi": 65,
                    "time": 354.36090375000896,
                    "velocity": 0.3228346456692913,
                    "duration": 0.15373575000000983
                },
                {
                    "name": "D4",
                    "midi": 62,
                    "time": 354.36090375000896,
                    "velocity": 0.2204724409448819,
                    "duration": 0.15373575000000983
                },
                {
                    "name": "D#4",
                    "midi": 63,
                    "time": 354.51463950000897,
                    "velocity": 0.3543307086614173,
                    "duration": 1.8448290000000043
                },
                {
                    "name": "C4",
                    "midi": 60,
                    "time": 354.51463950000897,
                    "velocity": 0.25196850393700787,
                    "duration": 1.8448290000000043
                },
                {
                    "name": "F5",
                    "midi": 77,
                    "time": 356.359468500009,
                    "velocity": 0.2992125984251969,
                    "duration": 1.8448290000000043
                },
                {
                    "name": "F4",
                    "midi": 65,
                    "time": 356.359468500009,
                    "velocity": 0.2204724409448819,
                    "duration": 1.8448290000000043
                },
                {
                    "name": "A#4",
                    "midi": 70,
                    "time": 356.359468500009,
                    "velocity": 0.25196850393700787,
                    "duration": 1.8448290000000043
                },
                {
                    "name": "D#3",
                    "midi": 51,
                    "time": 358.204297500009,
                    "velocity": 0.2992125984251969,
                    "duration": 1.8448290000000043
                },
                {
                    "name": "C3",
                    "midi": 48,
                    "time": 358.204297500009,
                    "velocity": 0.25196850393700787,
                    "duration": 1.8448290000000043
                },
                {
                    "name": "E3",
                    "midi": 52,
                    "time": 360.049126500009,
                    "velocity": 0.2204724409448819,
                    "duration": 1.5373574999999846
                },
                {
                    "name": "C#3",
                    "midi": 49,
                    "time": 360.049126500009,
                    "velocity": 0.1889763779527559,
                    "duration": 1.5373574999999846
                },
                {
                    "name": "A#3",
                    "midi": 58,
                    "time": 361.893955500009,
                    "velocity": 0.25196850393700787,
                    "duration": 1.8448289999999474
                },
                {
                    "name": "G4",
                    "midi": 67,
                    "time": 361.893955500009,
                    "velocity": 0.2992125984251969,
                    "duration": 0.6149429999999825
                },
                {
                    "name": "A4",
                    "midi": 69,
                    "time": 362.50889850000897,
                    "velocity": 0.2677165354330709,
                    "duration": 0.6149429999999825
                },
                {
                    "name": "A#4",
                    "midi": 70,
                    "time": 363.12384150000895,
                    "velocity": 0.29133858267716534,
                    "duration": 0.6149429999999825
                },
                {
                    "name": "D5",
                    "midi": 74,
                    "time": 363.73878450000893,
                    "velocity": 0.3228346456692913,
                    "duration": 0.6149429999999825
                },
                {
                    "name": "F4",
                    "midi": 65,
                    "time": 363.73878450000893,
                    "velocity": 0.29133858267716534,
                    "duration": 4.304600999999991
                },
                {
                    "name": "C5",
                    "midi": 72,
                    "time": 364.3537275000089,
                    "velocity": 0.3228346456692913,
                    "duration": 0.9224145000000021
                },
                {
                    "name": "A#4",
                    "midi": 70,
                    "time": 365.2761420000089,
                    "velocity": 0.2440944881889764,
                    "duration": 0.30747150000001966
                },
                {
                    "name": "A#3",
                    "midi": 58,
                    "time": 365.58361350000894,
                    "velocity": 0.2440944881889764,
                    "duration": 2.4597719999999867
                },
                {
                    "name": "A#4",
                    "midi": 70,
                    "time": 365.58361350000894,
                    "velocity": 0.2440944881889764,
                    "duration": 2.4597719999999867
                }
            ],
            "controlChanges": {
                "91": [
                    {
                        "number": 91,
                        "time": 0,
                        "value": 1
                    }
                ]
            },
            "id": 1,
            "name": "Piano right",
            "instrumentNumber": 0,
            "instrument": "acoustic grand piano",
            "instrumentFamily": "piano",
            "channelNumber": 0,
            "isPercussion": false
        },
        {
            "startTime": 1.229886,
            "duration": 368.0433855000039,
            "length": 1390,
            "notes": [
                {
                    "name": "D3",
                    "midi": 50,
                    "time": 1.229886,
                    "velocity": 0.25984251968503935,
                    "duration": 0.3074715000000001
                },
                {
                    "name": "F3",
                    "midi": 53,
                    "time": 1.5373575000000002,
                    "velocity": 0.25984251968503935,
                    "duration": 0.3074715000000001
                },
                {
                    "name": "A#3",
                    "midi": 58,
                    "time": 1.8448290000000003,
                    "velocity": 0.2677165354330709,
                    "duration": 0.3074715000000001
                },
                {
                    "name": "A#2",
                    "midi": 46,
                    "time": 1.8448290000000003,
                    "velocity": 0.2204724409448819,
                    "duration": 1.2298860000000005
                },
                {
                    "name": "D4",
                    "midi": 62,
                    "time": 2.1523005000000004,
                    "velocity": 0.28346456692913385,
                    "duration": 0.3074715000000001
                },
                {
                    "name": "D#4",
                    "midi": 63,
                    "time": 2.4597720000000005,
                    "velocity": 0.30708661417322836,
                    "duration": 0.3074715000000001
                },
                {
                    "name": "D4",
                    "midi": 62,
                    "time": 2.7672435000000006,
                    "velocity": 0.3464566929133858,
                    "duration": 0.3049092375
                },
                {
                    "name": "A#3",
                    "midi": 58,
                    "time": 3.0747150000000008,
                    "velocity": 0.33070866141732286,
                    "duration": 0.3049092375
                },
                {
                    "name": "F3",
                    "midi": 53,
                    "time": 3.382186500000001,
                    "velocity": 0.28346456692913385,
                    "duration": 0.3074715000000001
                },
                {
                    "name": "F2",
                    "midi": 41,
                    "time": 3.535922250000001,
                    "velocity": 0.33858267716535434,
                    "duration": 1.38362175
                },
                {
                    "name": "D#3",
                    "midi": 51,
                    "time": 3.689658000000001,
                    "velocity": 0.18110236220472442,
                    "duration": 1.229886
                },
                {
                    "name": "F3",
                    "midi": 53,
                    "time": 3.689658000000001,
                    "velocity": 0.2677165354330709,
                    "duration": 1.229886
                },
                {
                    "name": "D3",
                    "midi": 50,
                    "time": 4.919544000000001,
                    "velocity": 0.30708661417322836,
                    "duration": 0.3074715000000001
                },
                {
                    "name": "F3",
                    "midi": 53,
                    "time": 5.227015500000001,
                    "velocity": 0.30708661417322836,
                    "duration": 0.3074715000000001
                },
                {
                    "name": "A#3",
                    "midi": 58,
                    "time": 5.534487000000001,
                    "velocity": 0.3228346456692913,
                    "duration": 0.3074715000000001
                },
                {
                    "name": "A#2",
                    "midi": 46,
                    "time": 5.534487000000001,
                    "velocity": 0.2677165354330709,
                    "duration": 1.2298860000000005
                },
                {
                    "name": "D4",
                    "midi": 62,
                    "time": 5.841958500000001,
                    "velocity": 0.33858267716535434,
                    "duration": 0.3074715000000001
                },
                {
                    "name": "D#4",
                    "midi": 63,
                    "time": 6.1494300000000015,
                    "velocity": 0.36220472440944884,
                    "duration": 0.3074715000000001
                },
                {
                    "name": "D4",
                    "midi": 62,
                    "time": 6.456901500000002,
                    "velocity": 0.3464566929133858,
                    "duration": 0.30490923750000043
                },
                {
                    "name": "A#3",
                    "midi": 58,
                    "time": 6.764373000000002,
                    "velocity": 0.33070866141732286,
                    "duration": 0.30490923750000043
                },
                {
                    "name": "F3",
                    "midi": 53,
                    "time": 7.071844500000002,
                    "velocity": 0.28346456692913385,
                    "duration": 0.3074715000000001
                },
                {
                    "name": "F2",
                    "midi": 41,
                    "time": 7.225580250000002,
                    "velocity": 0.33858267716535434,
                    "duration": 1.3836217499999997
                },
                {
                    "name": "F3",
                    "midi": 53,
                    "time": 7.379316000000002,
                    "velocity": 0.2677165354330709,
                    "duration": 1.2298859999999996
                },
                {
                    "name": "D#3",
                    "midi": 51,
                    "time": 7.379316000000002,
                    "velocity": 0.2204724409448819,
                    "duration": 1.2298859999999996
                },
                {
                    "name": "D3",
                    "midi": 50,
                    "time": 8.609202000000002,
                    "velocity": 0.30708661417322836,
                    "duration": 0.3074715000000001
                },
                {
                    "name": "F3",
                    "midi": 53,
                    "time": 8.916673500000002,
                    "velocity": 0.30708661417322836,
                    "duration": 0.3074715000000001
                },
                {
                    "name": "A#2",
                    "midi": 46,
                    "time": 9.224145000000002,
                    "velocity": 0.2677165354330709,
                    "duration": 1.2298860000000005
                },
                {
                    "name": "A#3",
                    "midi": 58,
                    "time": 9.224145000000002,
                    "velocity": 0.3228346456692913,
                    "duration": 0.3074715000000001
                },
                {
                    "name": "D4",
                    "midi": 62,
                    "time": 9.531616500000002,
                    "velocity": 0.33858267716535434,
                    "duration": 0.3074715000000001
                },
                {
                    "name": "D#4",
                    "midi": 63,
                    "time": 9.839088000000002,
                    "velocity": 0.3779527559055118,
                    "duration": 0.3074715000000001
                },
                {
                    "name": "D4",
                    "midi": 62,
                    "time": 10.146559500000002,
                    "velocity": 0.3700787401574803,
                    "duration": 0.30490923750000043
                },
                {
                    "name": "A#3",
                    "midi": 58,
                    "time": 10.454031000000002,
                    "velocity": 0.36220472440944884,
                    "duration": 0.30490923750000043
                },
                {
                    "name": "F3",
                    "midi": 53,
                    "time": 10.761502500000002,
                    "velocity": 0.31496062992125984,
                    "duration": 0.3074715000000001
                },
                {
                    "name": "C3",
                    "midi": 48,
                    "time": 11.068974000000003,
                    "velocity": 0.30708661417322836,
                    "duration": 1.2298860000000005
                },
                {
                    "name": "A3",
                    "midi": 57,
                    "time": 11.068974000000003,
                    "velocity": 0.30708661417322836,
                    "duration": 0.3074715000000001
                },
                {
                    "name": "C4",
                    "midi": 60,
                    "time": 11.376445500000003,
                    "velocity": 0.2677165354330709,
                    "duration": 0.3074715000000001
                },
                {
                    "name": "D4",
                    "midi": 62,
                    "time": 11.683917000000003,
                    "velocity": 0.31496062992125984,
                    "duration": 0.3074715000000001
                },
                {
                    "name": "C4",
                    "midi": 60,
                    "time": 11.991388500000003,
                    "velocity": 0.25984251968503935,
                    "duration": 0.3074715000000001
                },
                {
                    "name": "A3",
                    "midi": 57,
                    "time": 12.298860000000003,
                    "velocity": 0.29133858267716534,
                    "duration": 0.3074715000000001
                },
                {
                    "name": "F3",
                    "midi": 53,
                    "time": 12.606331500000003,
                    "velocity": 0.2440944881889764,
                    "duration": 0.30747149999999834
                },
                {
                    "name": "C2",
                    "midi": 36,
                    "time": 12.760067250000002,
                    "velocity": 0.25196850393700787,
                    "duration": 0.15373574999999917
                },
                {
                    "name": "D#3",
                    "midi": 51,
                    "time": 12.913803000000001,
                    "velocity": 0.2125984251968504,
                    "duration": 0.3074715000000001
                },
                {
                    "name": "E3",
                    "midi": 52,
                    "time": 13.221274500000002,
                    "velocity": 0.2440944881889764,
                    "duration": 0.3074715000000001
                },
                {
                    "name": "C4",
                    "midi": 60,
                    "time": 13.528746000000002,
                    "velocity": 0.28346456692913385,
                    "duration": 0.3074715000000001
                },
                {
                    "name": "A#3",
                    "midi": 58,
                    "time": 13.836217500000002,
                    "velocity": 0.25984251968503935,
                    "duration": 0.3074715000000001
                },
                {
                    "name": "G3",
                    "midi": 55,
                    "time": 14.143689000000002,
                    "velocity": 0.2204724409448819,
                    "duration": 0.20498100000000008
                },
                {
                    "name": "E3",
                    "midi": 52,
                    "time": 14.348670000000002,
                    "velocity": 0.1968503937007874,
                    "duration": 0.20498100000000008
                },
                {
                    "name": "C#3",
                    "midi": 49,
                    "time": 14.553651000000002,
                    "velocity": 0.1968503937007874,
                    "duration": 0.20498100000000008
                },
                {
                    "name": "F2",
                    "midi": 41,
                    "time": 14.758632000000002,
                    "velocity": 0.28346456692913385,
                    "duration": 1.2298859999999987
                },
                {
                    "name": "B2",
                    "midi": 47,
                    "time": 14.758632000000002,
                    "velocity": 0.1968503937007874,
                    "duration": 0.2177923125000003
                },
                {
                    "name": "C3",
                    "midi": 48,
                    "time": 14.963613000000002,
                    "velocity": 0.1732283464566929,
                    "duration": 0.2177923125000003
                },
                {
                    "name": "D3",
                    "midi": 50,
                    "time": 15.168594000000002,
                    "velocity": 0.1732283464566929,
                    "duration": 0.20498100000000008
                },
                {
                    "name": "C3",
                    "midi": 48,
                    "time": 15.373575000000002,
                    "velocity": 0.2125984251968504,
                    "duration": 0.4612072499999993
                },
                {
                    "name": "D3",
                    "midi": 50,
                    "time": 15.988518000000001,
                    "velocity": 0.30708661417322836,
                    "duration": 0.3074715000000001
                },
                {
                    "name": "F3",
                    "midi": 53,
                    "time": 16.2959895,
                    "velocity": 0.30708661417322836,
                    "duration": 0.30747149999999834
                },
                {
                    "name": "A#2",
                    "midi": 46,
                    "time": 16.603461,
                    "velocity": 0.2677165354330709,
                    "duration": 1.2298859999999934
                },
                {
                    "name": "A#3",
                    "midi": 58,
                    "time": 16.603461,
                    "velocity": 0.3228346456692913,
                    "duration": 0.30747149999999834
                },
                {
                    "name": "D4",
                    "midi": 62,
                    "time": 16.910932499999998,
                    "velocity": 0.33858267716535434,
                    "duration": 0.30747149999999834
                },
                {
                    "name": "D#4",
                    "midi": 63,
                    "time": 17.218403999999996,
                    "velocity": 0.36220472440944884,
                    "duration": 0.30747149999999834
                },
                {
                    "name": "D4",
                    "midi": 62,
                    "time": 17.525875499999994,
                    "velocity": 0.3464566929133858,
                    "duration": 0.30490923749999865
                },
                {
                    "name": "A#3",
                    "midi": 58,
                    "time": 17.833346999999993,
                    "velocity": 0.33070866141732286,
                    "duration": 0.30490923749999865
                },
                {
                    "name": "F3",
                    "midi": 53,
                    "time": 18.14081849999999,
                    "velocity": 0.28346456692913385,
                    "duration": 0.30747149999999834
                },
                {
                    "name": "F2",
                    "midi": 41,
                    "time": 18.29455424999999,
                    "velocity": 0.33858267716535434,
                    "duration": 1.3836217499999997
                },
                {
                    "name": "F3",
                    "midi": 53,
                    "time": 18.44828999999999,
                    "velocity": 0.2677165354330709,
                    "duration": 1.2298860000000005
                },
                {
                    "name": "D#3",
                    "midi": 51,
                    "time": 18.44828999999999,
                    "velocity": 0.18110236220472442,
                    "duration": 1.2298860000000005
                },
                {
                    "name": "D3",
                    "midi": 50,
                    "time": 19.67817599999999,
                    "velocity": 0.30708661417322836,
                    "duration": 0.30747149999999834
                },
                {
                    "name": "F3",
                    "midi": 53,
                    "time": 19.98564749999999,
                    "velocity": 0.30708661417322836,
                    "duration": 0.30747149999999834
                },
                {
                    "name": "A#3",
                    "midi": 58,
                    "time": 20.293118999999987,
                    "velocity": 0.3228346456692913,
                    "duration": 0.30747149999999834
                },
                {
                    "name": "A#2",
                    "midi": 46,
                    "time": 20.293118999999987,
                    "velocity": 0.2677165354330709,
                    "duration": 1.2298859999999934
                },
                {
                    "name": "D4",
                    "midi": 62,
                    "time": 20.600590499999985,
                    "velocity": 0.33858267716535434,
                    "duration": 0.30747149999999834
                },
                {
                    "name": "D#4",
                    "midi": 63,
                    "time": 20.908061999999983,
                    "velocity": 0.36220472440944884,
                    "duration": 0.30747149999999834
                },
                {
                    "name": "D4",
                    "midi": 62,
                    "time": 21.21553349999998,
                    "velocity": 0.3464566929133858,
                    "duration": 0.30490923749999865
                },
                {
                    "name": "A#3",
                    "midi": 58,
                    "time": 21.52300499999998,
                    "velocity": 0.33070866141732286,
                    "duration": 0.30490923749999865
                },
                {
                    "name": "F3",
                    "midi": 53,
                    "time": 21.83047649999998,
                    "velocity": 0.28346456692913385,
                    "duration": 0.30747149999999834
                },
                {
                    "name": "F2",
                    "midi": 41,
                    "time": 21.984212249999977,
                    "velocity": 0.33858267716535434,
                    "duration": 1.3836217499999997
                },
                {
                    "name": "D#3",
                    "midi": 51,
                    "time": 22.137947999999977,
                    "velocity": 0.2204724409448819,
                    "duration": 1.2298860000000005
                },
                {
                    "name": "F3",
                    "midi": 53,
                    "time": 22.137947999999977,
                    "velocity": 0.2677165354330709,
                    "duration": 1.2298860000000005
                },
                {
                    "name": "D3",
                    "midi": 50,
                    "time": 23.367833999999977,
                    "velocity": 0.30708661417322836,
                    "duration": 0.30747149999999834
                },
                {
                    "name": "F3",
                    "midi": 53,
                    "time": 23.675305499999975,
                    "velocity": 0.30708661417322836,
                    "duration": 0.30747149999999834
                },
                {
                    "name": "A#3",
                    "midi": 58,
                    "time": 23.982776999999974,
                    "velocity": 0.2677165354330709,
                    "duration": 0.30747149999999834
                },
                {
                    "name": "A#2",
                    "midi": 46,
                    "time": 23.982776999999974,
                    "velocity": 0.2677165354330709,
                    "duration": 1.2298859999999934
                },
                {
                    "name": "D4",
                    "midi": 62,
                    "time": 24.290248499999972,
                    "velocity": 0.28346456692913385,
                    "duration": 0.30747149999999834
                },
                {
                    "name": "D#4",
                    "midi": 63,
                    "time": 24.59771999999997,
                    "velocity": 0.31496062992125984,
                    "duration": 0.30747149999999834
                },
                {
                    "name": "D4",
                    "midi": 62,
                    "time": 24.90519149999997,
                    "velocity": 0.30708661417322836,
                    "duration": 0.30490923749999865
                },
                {
                    "name": "A#3",
                    "midi": 58,
                    "time": 25.212662999999967,
                    "velocity": 0.30708661417322836,
                    "duration": 0.30490923749999865
                },
                {
                    "name": "F3",
                    "midi": 53,
                    "time": 25.520134499999966,
                    "velocity": 0.2677165354330709,
                    "duration": 0.30747149999999834
                },
                {
                    "name": "A3",
                    "midi": 57,
                    "time": 25.827605999999964,
                    "velocity": 0.30708661417322836,
                    "duration": 0.30747149999999834
                },
                {
                    "name": "C3",
                    "midi": 48,
                    "time": 25.827605999999964,
                    "velocity": 0.30708661417322836,
                    "duration": 1.2298859999999934
                },
                {
                    "name": "C4",
                    "midi": 60,
                    "time": 26.135077499999962,
                    "velocity": 0.2677165354330709,
                    "duration": 0.30747149999999834
                },
                {
                    "name": "D4",
                    "midi": 62,
                    "time": 26.44254899999996,
                    "velocity": 0.31496062992125984,
                    "duration": 0.30747149999999834
                },
                {
                    "name": "C4",
                    "midi": 60,
                    "time": 26.75002049999996,
                    "velocity": 0.25984251968503935,
                    "duration": 0.30747149999999834
                },
                {
                    "name": "A3",
                    "midi": 57,
                    "time": 27.057491999999957,
                    "velocity": 0.29133858267716534,
                    "duration": 0.30747149999999834
                },
                {
                    "name": "F3",
                    "midi": 53,
                    "time": 27.364963499999956,
                    "velocity": 0.2440944881889764,
                    "duration": 0.30747149999999834
                },
                {
                    "name": "C2",
                    "midi": 36,
                    "time": 27.518699249999955,
                    "velocity": 0.25196850393700787,
                    "duration": 0.15373574999999917
                },
                {
                    "name": "D#3",
                    "midi": 51,
                    "time": 27.672434999999954,
                    "velocity": 0.2125984251968504,
                    "duration": 0.30747149999999834
                },
                {
                    "name": "E3",
                    "midi": 52,
                    "time": 27.979906499999952,
                    "velocity": 0.2440944881889764,
                    "duration": 0.30747149999999834
                },
                {
                    "name": "C4",
                    "midi": 60,
                    "time": 28.28737799999995,
                    "velocity": 0.28346456692913385,
                    "duration": 0.30747149999999834
                },
                {
                    "name": "A#3",
                    "midi": 58,
                    "time": 28.59484949999995,
                    "velocity": 0.25984251968503935,
                    "duration": 0.30747149999999834
                },
                {
                    "name": "G3",
                    "midi": 55,
                    "time": 28.902320999999947,
                    "velocity": 0.2204724409448819,
                    "duration": 0.20498100000000008
                },
                {
                    "name": "E3",
                    "midi": 52,
                    "time": 29.107301999999947,
                    "velocity": 0.1968503937007874,
                    "duration": 0.20498100000000008
                },
                {
                    "name": "C#3",
                    "midi": 49,
                    "time": 29.312282999999947,
                    "velocity": 0.1968503937007874,
                    "duration": 0.20498100000000008
                },
                {
                    "name": "F2",
                    "midi": 41,
                    "time": 29.517263999999948,
                    "velocity": 0.28346456692913385,
                    "duration": 1.2298860000000005
                },
                {
                    "name": "B2",
                    "midi": 47,
                    "time": 29.517263999999948,
                    "velocity": 0.1968503937007874,
                    "duration": 0.21779231249999853
                },
                {
                    "name": "C3",
                    "midi": 48,
                    "time": 29.722244999999948,
                    "velocity": 0.1732283464566929,
                    "duration": 0.21779231249999853
                },
                {
                    "name": "D3",
                    "midi": 50,
                    "time": 29.927225999999948,
                    "velocity": 0.1732283464566929,
                    "duration": 0.20498100000000008
                },
                {
                    "name": "C3",
                    "midi": 48,
                    "time": 30.132206999999948,
                    "velocity": 0.2125984251968504,
                    "duration": 0.46120725000000107
                },
                {
                    "name": "A#2",
                    "midi": 46,
                    "time": 30.747149999999948,
                    "velocity": 0.30708661417322836,
                    "duration": 0.30747149999999834
                },
                {
                    "name": "C3",
                    "midi": 48,
                    "time": 31.054621499999946,
                    "velocity": 0.3464566929133858,
                    "duration": 0.3074715000000019
                },
                {
                    "name": "A#1",
                    "midi": 34,
                    "time": 31.285225124999947,
                    "velocity": 0.3700787401574803,
                    "duration": 0.07686787500000136
                },
                {
                    "name": "D3",
                    "midi": 50,
                    "time": 31.36209299999995,
                    "velocity": 0.4094488188976378,
                    "duration": 1.229885999999997
                },
                {
                    "name": "A#2",
                    "midi": 46,
                    "time": 32.591978999999945,
                    "velocity": 0.30708661417322836,
                    "duration": 0.20498099999999653
                },
                {
                    "name": "C3",
                    "midi": 48,
                    "time": 32.79695999999994,
                    "velocity": 0.3464566929133858,
                    "duration": 0.20498099999999653
                },
                {
                    "name": "D3",
                    "midi": 50,
                    "time": 33.00194099999994,
                    "velocity": 0.3779527559055118,
                    "duration": 0.20498099999999653
                },
                {
                    "name": "C2",
                    "midi": 36,
                    "time": 33.13005412499994,
                    "velocity": 0.3228346456692913,
                    "duration": 0.07686787499999781
                },
                {
                    "name": "D#3",
                    "midi": 51,
                    "time": 33.206921999999935,
                    "velocity": 0.4251968503937008,
                    "duration": 1.2298860000000005
                },
                {
                    "name": "A#2",
                    "midi": 46,
                    "time": 34.436807999999935,
                    "velocity": 0.3464566929133858,
                    "duration": 0.15373575000000272
                },
                {
                    "name": "C3",
                    "midi": 48,
                    "time": 34.59054374999994,
                    "velocity": 0.3700787401574803,
                    "duration": 0.15373575000000272
                },
                {
                    "name": "D3",
                    "midi": 50,
                    "time": 34.74427949999994,
                    "velocity": 0.3937007874015748,
                    "duration": 0.15373575000000272
                },
                {
                    "name": "D#3",
                    "midi": 51,
                    "time": 34.89801524999994,
                    "velocity": 0.41732283464566927,
                    "duration": 0.15373574999999562
                },
                {
                    "name": "C#2",
                    "midi": 37,
                    "time": 34.97488312499994,
                    "velocity": 0.3464566929133858,
                    "duration": 0.07686787499999781
                },
                {
                    "name": "E3",
                    "midi": 52,
                    "time": 35.05175099999994,
                    "velocity": 0.49606299212598426,
                    "duration": 0.6149429999999967
                },
                {
                    "name": "D2",
                    "midi": 38,
                    "time": 35.58982612499994,
                    "velocity": 0.31496062992125984,
                    "duration": 0.07686787499999781
                },
                {
                    "name": "F3",
                    "midi": 53,
                    "time": 35.666693999999936,
                    "velocity": 0.4409448818897638,
                    "duration": 0.6149429999999967
                },
                {
                    "name": "D2",
                    "midi": 38,
                    "time": 36.28163699999993,
                    "velocity": 0.31496062992125984,
                    "duration": 0.6149429999999967
                },
                {
                    "name": "A#2",
                    "midi": 46,
                    "time": 36.28163699999993,
                    "velocity": 0.4566929133858268,
                    "duration": 0.07686787499999781
                },
                {
                    "name": "C3",
                    "midi": 48,
                    "time": 36.35850487499993,
                    "velocity": 0.3700787401574803,
                    "duration": 0.07686787499999781
                },
                {
                    "name": "A#2",
                    "midi": 46,
                    "time": 36.43537274999993,
                    "velocity": 0.44881889763779526,
                    "duration": 0.07686787499999781
                },
                {
                    "name": "C3",
                    "midi": 48,
                    "time": 36.512240624999926,
                    "velocity": 0.4015748031496063,
                    "duration": 0.07686787499999781
                },
                {
                    "name": "A#2",
                    "midi": 46,
                    "time": 36.589108499999924,
                    "velocity": 0.4094488188976378,
                    "duration": 0.10249050000000182
                },
                {
                    "name": "A2",
                    "midi": 45,
                    "time": 36.691598999999925,
                    "velocity": 0.4566929133858268,
                    "duration": 0.10249050000000182
                },
                {
                    "name": "A#2",
                    "midi": 46,
                    "time": 36.79408949999993,
                    "velocity": 0.4015748031496063,
                    "duration": 1.3323765000000023
                },
                {
                    "name": "D#2",
                    "midi": 39,
                    "time": 36.89657999999993,
                    "velocity": 0.4330708661417323,
                    "duration": 1.2298860000000005
                },
                {
                    "name": "G3",
                    "midi": 55,
                    "time": 38.12646599999993,
                    "velocity": 0.3937007874015748,
                    "duration": 0.6149429999999967
                },
                {
                    "name": "A#3",
                    "midi": 58,
                    "time": 38.43393749999993,
                    "velocity": 0.3464566929133858,
                    "duration": 0.30747149999999834
                },
                {
                    "name": "D#4",
                    "midi": 63,
                    "time": 38.741408999999926,
                    "velocity": 0.3937007874015748,
                    "duration": 0.30747149999999834
                },
                {
                    "name": "D#3",
                    "midi": 51,
                    "time": 38.741408999999926,
                    "velocity": 0.33070866141732286,
                    "duration": 1.2298859999999934
                },
                {
                    "name": "G4",
                    "midi": 67,
                    "time": 39.048880499999925,
                    "velocity": 0.2992125984251969,
                    "duration": 0.30747149999999834
                },
                {
                    "name": "G#4",
                    "midi": 68,
                    "time": 39.35635199999992,
                    "velocity": 0.33858267716535434,
                    "duration": 0.30747149999999834
                },
                {
                    "name": "G4",
                    "midi": 67,
                    "time": 39.66382349999992,
                    "velocity": 0.29133858267716534,
                    "duration": 0.30747149999999834
                },
                {
                    "name": "G3",
                    "midi": 55,
                    "time": 39.97129499999992,
                    "velocity": 0.2755905511811024,
                    "duration": 0.6149429999999967
                },
                {
                    "name": "D#4",
                    "midi": 63,
                    "time": 39.97129499999992,
                    "velocity": 0.33070866141732286,
                    "duration": 0.30747149999999834
                },
                {
                    "name": "C4",
                    "midi": 60,
                    "time": 40.27876649999992,
                    "velocity": 0.30708661417322836,
                    "duration": 0.30747149999999834
                },
                {
                    "name": "A#3",
                    "midi": 58,
                    "time": 40.586237999999916,
                    "velocity": 0.3464566929133858,
                    "duration": 0.30747149999999834
                },
                {
                    "name": "G2",
                    "midi": 43,
                    "time": 40.586237999999916,
                    "velocity": 0.29133858267716534,
                    "duration": 1.2298859999999934
                },
                {
                    "name": "D4",
                    "midi": 62,
                    "time": 40.893709499999915,
                    "velocity": 0.25196850393700787,
                    "duration": 0.30747149999999834
                },
                {
                    "name": "D#4",
                    "midi": 63,
                    "time": 41.20118099999991,
                    "velocity": 0.2755905511811024,
                    "duration": 0.30747149999999834
                },
                {
                    "name": "D4",
                    "midi": 62,
                    "time": 41.50865249999991,
                    "velocity": 0.23622047244094488,
                    "duration": 0.30747149999999834
                },
                {
                    "name": "A#3",
                    "midi": 58,
                    "time": 41.81612399999991,
                    "velocity": 0.3228346456692913,
                    "duration": 0.30747149999999834
                },
                {
                    "name": "G3",
                    "midi": 55,
                    "time": 41.81612399999991,
                    "velocity": 0.3228346456692913,
                    "duration": 0.30747149999999834
                },
                {
                    "name": "G3",
                    "midi": 55,
                    "time": 42.12359549999991,
                    "velocity": 0.28346456692913385,
                    "duration": 0.30747149999999834
                },
                {
                    "name": "D#4",
                    "midi": 63,
                    "time": 42.431066999999906,
                    "velocity": 0.33070866141732286,
                    "duration": 0.30747149999999834
                },
                {
                    "name": "C3",
                    "midi": 48,
                    "time": 42.431066999999906,
                    "velocity": 0.2755905511811024,
                    "duration": 1.2298859999999934
                },
                {
                    "name": "G4",
                    "midi": 67,
                    "time": 42.738538499999905,
                    "velocity": 0.25196850393700787,
                    "duration": 0.30747149999999834
                },
                {
                    "name": "G#4",
                    "midi": 68,
                    "time": 43.0460099999999,
                    "velocity": 0.2677165354330709,
                    "duration": 0.30747149999999834
                },
                {
                    "name": "G4",
                    "midi": 67,
                    "time": 43.3534814999999,
                    "velocity": 0.2992125984251969,
                    "duration": 0.30747149999999834
                },
                {
                    "name": "D#4",
                    "midi": 63,
                    "time": 43.6609529999999,
                    "velocity": 0.31496062992125984,
                    "duration": 0.30747149999999834
                },
                {
                    "name": "G3",
                    "midi": 55,
                    "time": 43.6609529999999,
                    "velocity": 0.31496062992125984,
                    "duration": 0.6149429999999967
                },
                {
                    "name": "C4",
                    "midi": 60,
                    "time": 43.9684244999999,
                    "velocity": 0.28346456692913385,
                    "duration": 0.30747149999999834
                },
                {
                    "name": "G2",
                    "midi": 43,
                    "time": 44.275895999999896,
                    "velocity": 0.3228346456692913,
                    "duration": 1.2298859999999934
                },
                {
                    "name": "A#3",
                    "midi": 58,
                    "time": 44.275895999999896,
                    "velocity": 0.3228346456692913,
                    "duration": 0.30747149999999834
                },
                {
                    "name": "D4",
                    "midi": 62,
                    "time": 44.583367499999895,
                    "velocity": 0.2677165354330709,
                    "duration": 0.30747149999999834
                },
                {
                    "name": "D#4",
                    "midi": 63,
                    "time": 44.89083899999989,
                    "velocity": 0.3228346456692913,
                    "duration": 0.30747149999999834
                },
                {
                    "name": "D4",
                    "midi": 62,
                    "time": 45.19831049999989,
                    "velocity": 0.29133858267716534,
                    "duration": 0.30747149999999834
                },
                {
                    "name": "G3",
                    "midi": 55,
                    "time": 45.50578199999989,
                    "velocity": 0.29133858267716534,
                    "duration": 0.6149429999999967
                },
                {
                    "name": "A#3",
                    "midi": 58,
                    "time": 45.50578199999989,
                    "velocity": 0.3464566929133858,
                    "duration": 0.30747149999999834
                },
                {
                    "name": "A3",
                    "midi": 57,
                    "time": 45.81325349999989,
                    "velocity": 0.3464566929133858,
                    "duration": 0.30747149999999834
                },
                {
                    "name": "C3",
                    "midi": 48,
                    "time": 46.12072499999989,
                    "velocity": 0.2283464566929134,
                    "duration": 1.2298859999999934
                },
                {
                    "name": "G3",
                    "midi": 55,
                    "time": 46.12072499999989,
                    "velocity": 0.2755905511811024,
                    "duration": 0.30747149999999834
                },
                {
                    "name": "F3",
                    "midi": 53,
                    "time": 46.428196499999885,
                    "velocity": 0.28346456692913385,
                    "duration": 0.30747149999999834
                },
                {
                    "name": "E3",
                    "midi": 52,
                    "time": 46.73566799999988,
                    "velocity": 0.2992125984251969,
                    "duration": 0.30747149999999834
                },
                {
                    "name": "D3",
                    "midi": 50,
                    "time": 47.04313949999988,
                    "velocity": 0.3228346456692913,
                    "duration": 0.30747149999999834
                },
                {
                    "name": "C3",
                    "midi": 48,
                    "time": 47.35061099999988,
                    "velocity": 0.33858267716535434,
                    "duration": 0.30747149999999834
                },
                {
                    "name": "C2",
                    "midi": 36,
                    "time": 47.35061099999988,
                    "velocity": 0.28346456692913385,
                    "duration": 1.84482899999999
                },
                {
                    "name": "A#2",
                    "midi": 46,
                    "time": 47.65808249999988,
                    "velocity": 0.3464566929133858,
                    "duration": 0.30747149999999834
                },
                {
                    "name": "A2",
                    "midi": 45,
                    "time": 47.96555399999988,
                    "velocity": 0.3700787401574803,
                    "duration": 0.30747149999999834
                },
                {
                    "name": "A#2",
                    "midi": 46,
                    "time": 48.273025499999875,
                    "velocity": 0.3543307086614173,
                    "duration": 0.30747149999999834
                },
                {
                    "name": "C3",
                    "midi": 48,
                    "time": 48.58049699999987,
                    "velocity": 0.33070866141732286,
                    "duration": 0.30747149999999834
                },
                {
                    "name": "D3",
                    "midi": 50,
                    "time": 48.88796849999987,
                    "velocity": 0.3228346456692913,
                    "duration": 0.30747149999999834
                },
                {
                    "name": "C2",
                    "midi": 36,
                    "time": 49.19543999999987,
                    "velocity": 0.25196850393700787,
                    "duration": 0.6149429999999967
                },
                {
                    "name": "E3",
                    "midi": 52,
                    "time": 49.19543999999987,
                    "velocity": 0.2992125984251969,
                    "duration": 0.30747149999999834
                },
                {
                    "name": "F3",
                    "midi": 53,
                    "time": 49.50291149999987,
                    "velocity": 0.29133858267716534,
                    "duration": 0.30747149999999834
                },
                {
                    "name": "C3",
                    "midi": 48,
                    "time": 49.81038299999987,
                    "velocity": 0.2283464566929134,
                    "duration": 1.2298859999999934
                },
                {
                    "name": "G3",
                    "midi": 55,
                    "time": 49.81038299999987,
                    "velocity": 0.2755905511811024,
                    "duration": 0.30747149999999834
                },
                {
                    "name": "A3",
                    "midi": 57,
                    "time": 50.117854499999865,
                    "velocity": 0.2755905511811024,
                    "duration": 0.30747149999999834
                },
                {
                    "name": "A#3",
                    "midi": 58,
                    "time": 50.42532599999986,
                    "velocity": 0.28346456692913385,
                    "duration": 0.30747149999999834
                },
                {
                    "name": "B3",
                    "midi": 59,
                    "time": 50.73279749999986,
                    "velocity": 0.25984251968503935,
                    "duration": 0.30747149999999834
                },
                {
                    "name": "C3",
                    "midi": 48,
                    "time": 51.04026899999986,
                    "velocity": 0.25984251968503935,
                    "duration": 1.8448290000000043
                },
                {
                    "name": "C4",
                    "midi": 60,
                    "time": 51.04026899999986,
                    "velocity": 0.30708661417322836,
                    "duration": 0.30747149999999834
                },
                {
                    "name": "A#3",
                    "midi": 58,
                    "time": 51.34774049999986,
                    "velocity": 0.2677165354330709,
                    "duration": 0.30747149999999834
                },
                {
                    "name": "A3",
                    "midi": 57,
                    "time": 51.65521199999986,
                    "velocity": 0.2755905511811024,
                    "duration": 0.30747149999999834
                },
                {
                    "name": "G#3",
                    "midi": 56,
                    "time": 51.962683499999855,
                    "velocity": 0.2204724409448819,
                    "duration": 0.30747149999999834
                },
                {
                    "name": "G3",
                    "midi": 55,
                    "time": 52.27015499999985,
                    "velocity": 0.2204724409448819,
                    "duration": 0.15373575000000272
                },
                {
                    "name": "F#3",
                    "midi": 54,
                    "time": 52.423890749999856,
                    "velocity": 0.1968503937007874,
                    "duration": 0.15373575000000272
                },
                {
                    "name": "F3",
                    "midi": 53,
                    "time": 52.57762649999986,
                    "velocity": 0.2204724409448819,
                    "duration": 0.15373575000000272
                },
                {
                    "name": "D#3",
                    "midi": 51,
                    "time": 52.73136224999986,
                    "velocity": 0.1889763779527559,
                    "duration": 0.11530181250000027
                },
                {
                    "name": "D3",
                    "midi": 50,
                    "time": 52.885097999999864,
                    "velocity": 0.2755905511811024,
                    "duration": 0.6149429999999967
                },
                {
                    "name": "F3",
                    "midi": 53,
                    "time": 53.19256949999986,
                    "velocity": 0.2755905511811024,
                    "duration": 0.30747149999999834
                },
                {
                    "name": "A#2",
                    "midi": 46,
                    "time": 53.50004099999986,
                    "velocity": 0.23622047244094488,
                    "duration": 1.2298859999999934
                },
                {
                    "name": "A#3",
                    "midi": 58,
                    "time": 53.50004099999986,
                    "velocity": 0.28346456692913385,
                    "duration": 0.30747149999999834
                },
                {
                    "name": "D4",
                    "midi": 62,
                    "time": 53.80751249999986,
                    "velocity": 0.2992125984251969,
                    "duration": 0.30747149999999834
                },
                {
                    "name": "D#4",
                    "midi": 63,
                    "time": 54.11498399999986,
                    "velocity": 0.3228346456692913,
                    "duration": 0.30747149999999834
                },
                {
                    "name": "D4",
                    "midi": 62,
                    "time": 54.422455499999856,
                    "velocity": 0.30708661417322836,
                    "duration": 0.30490923749999865
                },
                {
                    "name": "A#3",
                    "midi": 58,
                    "time": 54.729926999999854,
                    "velocity": 0.29133858267716534,
                    "duration": 0.30490923749999865
                },
                {
                    "name": "F3",
                    "midi": 53,
                    "time": 55.03739849999985,
                    "velocity": 0.25196850393700787,
                    "duration": 0.30747150000000545
                },
                {
                    "name": "F2",
                    "midi": 41,
                    "time": 55.191134249999855,
                    "velocity": 0.2992125984251969,
                    "duration": 1.3836217500000032
                },
                {
                    "name": "D#3",
                    "midi": 51,
                    "time": 55.34486999999986,
                    "velocity": 0.1968503937007874,
                    "duration": 1.2298860000000005
                },
                {
                    "name": "F3",
                    "midi": 53,
                    "time": 55.34486999999986,
                    "velocity": 0.23622047244094488,
                    "duration": 1.2298860000000005
                },
                {
                    "name": "D3",
                    "midi": 50,
                    "time": 56.57475599999986,
                    "velocity": 0.30708661417322836,
                    "duration": 0.30747149999999834
                },
                {
                    "name": "F3",
                    "midi": 53,
                    "time": 56.88222749999986,
                    "velocity": 0.30708661417322836,
                    "duration": 0.30747149999999834
                },
                {
                    "name": "A#3",
                    "midi": 58,
                    "time": 57.189698999999855,
                    "velocity": 0.3228346456692913,
                    "duration": 0.30747149999999834
                },
                {
                    "name": "A#2",
                    "midi": 46,
                    "time": 57.189698999999855,
                    "velocity": 0.5826771653543307,
                    "duration": 1.2298859999999934
                },
                {
                    "name": "D4",
                    "midi": 62,
                    "time": 57.497170499999854,
                    "velocity": 0.33858267716535434,
                    "duration": 0.30747149999999834
                },
                {
                    "name": "D#4",
                    "midi": 63,
                    "time": 57.80464199999985,
                    "velocity": 0.36220472440944884,
                    "duration": 0.30747149999999834
                },
                {
                    "name": "D4",
                    "midi": 62,
                    "time": 58.11211349999985,
                    "velocity": 0.3464566929133858,
                    "duration": 0.30490923749999865
                },
                {
                    "name": "A#2",
                    "midi": 46,
                    "time": 58.41958499999985,
                    "velocity": 0.5511811023622047,
                    "duration": 0.30747149999999834
                },
                {
                    "name": "A#3",
                    "midi": 58,
                    "time": 58.41958499999985,
                    "velocity": 0.33070866141732286,
                    "duration": 0.30490923749999865
                },
                {
                    "name": "F3",
                    "midi": 53,
                    "time": 58.72705649999985,
                    "velocity": 0.28346456692913385,
                    "duration": 0.30747150000000545
                },
                {
                    "name": "D3",
                    "midi": 50,
                    "time": 58.72705649999985,
                    "velocity": 0.5196850393700787,
                    "duration": 0.30747150000000545
                },
                {
                    "name": "F2",
                    "midi": 41,
                    "time": 58.88079224999985,
                    "velocity": 0.33858267716535434,
                    "duration": 0.46120725000000107
                },
                {
                    "name": "D#3",
                    "midi": 51,
                    "time": 59.03452799999985,
                    "velocity": 0.2204724409448819,
                    "duration": 1.2298859999999934
                },
                {
                    "name": "F3",
                    "midi": 53,
                    "time": 59.03452799999985,
                    "velocity": 0.3228346456692913,
                    "duration": 1.2298859999999934
                },
                {
                    "name": "G2",
                    "midi": 43,
                    "time": 59.34199949999985,
                    "velocity": 0.41732283464566927,
                    "duration": 0.30747149999999834
                },
                {
                    "name": "A#2",
                    "midi": 46,
                    "time": 59.64947099999985,
                    "velocity": 0.4645669291338583,
                    "duration": 0.30747149999999834
                },
                {
                    "name": "A2",
                    "midi": 45,
                    "time": 59.95694249999985,
                    "velocity": 0.4251968503937008,
                    "duration": 0.30747149999999834
                },
                {
                    "name": "D3",
                    "midi": 50,
                    "time": 60.264413999999846,
                    "velocity": 0.3464566929133858,
                    "duration": 0.30747149999999834
                },
                {
                    "name": "G#2",
                    "midi": 44,
                    "time": 60.264413999999846,
                    "velocity": 0.29133858267716534,
                    "duration": 0.30747149999999834
                },
                {
                    "name": "D#3",
                    "midi": 51,
                    "time": 60.571885499999844,
                    "velocity": 0.3700787401574803,
                    "duration": 0.30747149999999834
                },
                {
                    "name": "G2",
                    "midi": 43,
                    "time": 60.571885499999844,
                    "velocity": 0.30708661417322836,
                    "duration": 0.30747149999999834
                },
                {
                    "name": "F3",
                    "midi": 53,
                    "time": 60.87935699999984,
                    "velocity": 0.3858267716535433,
                    "duration": 0.30747149999999834
                },
                {
                    "name": "F2",
                    "midi": 41,
                    "time": 60.87935699999984,
                    "velocity": 0.3228346456692913,
                    "duration": 0.5380751249999989
                },
                {
                    "name": "G3",
                    "midi": 55,
                    "time": 61.18682849999984,
                    "velocity": 0.4094488188976378,
                    "duration": 0.30747149999999834
                },
                {
                    "name": "D#2",
                    "midi": 39,
                    "time": 61.41743212499984,
                    "velocity": 0.36220472440944884,
                    "duration": 0.6149429999999967
                },
                {
                    "name": "G#3",
                    "midi": 56,
                    "time": 61.49429999999984,
                    "velocity": 0.4330708661417323,
                    "duration": 0.30747149999999834
                },
                {
                    "name": "A#3",
                    "midi": 58,
                    "time": 61.80177149999984,
                    "velocity": 0.4330708661417323,
                    "duration": 0.30747149999999834
                },
                {
                    "name": "D2",
                    "midi": 38,
                    "time": 62.03237512499984,
                    "velocity": 0.3700787401574803,
                    "duration": 0.6918108749999945
                },
                {
                    "name": "B3",
                    "midi": 59,
                    "time": 62.109242999999836,
                    "velocity": 0.44881889763779526,
                    "duration": 0.30747149999999834
                },
                {
                    "name": "G3",
                    "midi": 55,
                    "time": 62.416714499999834,
                    "velocity": 0.4566929133858268,
                    "duration": 0.30747149999999834
                },
                {
                    "name": "C2",
                    "midi": 36,
                    "time": 62.72418599999983,
                    "velocity": 0.2204724409448819,
                    "duration": 0.30747149999999834
                },
                {
                    "name": "C4",
                    "midi": 60,
                    "time": 62.72418599999983,
                    "velocity": 0.4330708661417323,
                    "duration": 0.30747149999999834
                },
                {
                    "name": "G2",
                    "midi": 43,
                    "time": 63.03165749999983,
                    "velocity": 0.2125984251968504,
                    "duration": 0.30747149999999834
                },
                {
                    "name": "G3",
                    "midi": 55,
                    "time": 63.03165749999983,
                    "velocity": 0.4251968503937008,
                    "duration": 0.30747149999999834
                },
                {
                    "name": "C3",
                    "midi": 48,
                    "time": 63.33912899999983,
                    "velocity": 0.1968503937007874,
                    "duration": 0.30747149999999834
                },
                {
                    "name": "E3",
                    "midi": 52,
                    "time": 63.33912899999983,
                    "velocity": 0.4094488188976378,
                    "duration": 0.30747149999999834
                },
                {
                    "name": "F3",
                    "midi": 53,
                    "time": 63.64660049999983,
                    "velocity": 0.3937007874015748,
                    "duration": 0.30747149999999834
                },
                {
                    "name": "B2",
                    "midi": 47,
                    "time": 63.64660049999983,
                    "velocity": 0.1889763779527559,
                    "duration": 0.30747149999999834
                },
                {
                    "name": "E3",
                    "midi": 52,
                    "time": 63.954071999999826,
                    "velocity": 0.3858267716535433,
                    "duration": 0.30747150000000545
                },
                {
                    "name": "A#2",
                    "midi": 46,
                    "time": 63.954071999999826,
                    "velocity": 0.18110236220472442,
                    "duration": 0.30747150000000545
                },
                {
                    "name": "F3",
                    "midi": 53,
                    "time": 64.26154349999983,
                    "velocity": 0.3700787401574803,
                    "duration": 0.30747150000000545
                },
                {
                    "name": "A2",
                    "midi": 45,
                    "time": 64.26154349999983,
                    "velocity": 0.18110236220472442,
                    "duration": 0.30747150000000545
                },
                {
                    "name": "G2",
                    "midi": 43,
                    "time": 64.56901499999984,
                    "velocity": 0.31496062992125984,
                    "duration": 0.538075125000006
                },
                {
                    "name": "G3",
                    "midi": 55,
                    "time": 64.56901499999984,
                    "velocity": 0.3779527559055118,
                    "duration": 0.30747150000000545
                },
                {
                    "name": "A3",
                    "midi": 57,
                    "time": 64.87648649999984,
                    "velocity": 0.4015748031496063,
                    "duration": 0.30747150000000545
                },
                {
                    "name": "F2",
                    "midi": 41,
                    "time": 65.10709012499984,
                    "velocity": 0.3543307086614173,
                    "duration": 0.6149430000000109
                },
                {
                    "name": "A#3",
                    "midi": 58,
                    "time": 65.18395799999985,
                    "velocity": 0.4251968503937008,
                    "duration": 0.30747150000000545
                },
                {
                    "name": "B3",
                    "midi": 59,
                    "time": 65.49142949999985,
                    "velocity": 0.4251968503937008,
                    "duration": 0.30747150000000545
                },
                {
                    "name": "E2",
                    "midi": 40,
                    "time": 65.72203312499985,
                    "velocity": 0.3700787401574803,
                    "duration": 0.6918108750000158
                },
                {
                    "name": "C4",
                    "midi": 60,
                    "time": 65.79890099999986,
                    "velocity": 0.4251968503937008,
                    "duration": 0.30747150000000545
                },
                {
                    "name": "A#3",
                    "midi": 58,
                    "time": 66.10637249999986,
                    "velocity": 0.4566929133858268,
                    "duration": 0.30747150000000545
                },
                {
                    "name": "A3",
                    "midi": 57,
                    "time": 66.41384399999987,
                    "velocity": 0.44881889763779526,
                    "duration": 0.30747150000000545
                },
                {
                    "name": "F2",
                    "midi": 41,
                    "time": 66.41384399999987,
                    "velocity": 0.2677165354330709,
                    "duration": 0.30747150000000545
                },
                {
                    "name": "G3",
                    "midi": 55,
                    "time": 66.72131549999987,
                    "velocity": 0.4330708661417323,
                    "duration": 0.30747150000000545
                },
                {
                    "name": "G2",
                    "midi": 43,
                    "time": 66.72131549999987,
                    "velocity": 0.25196850393700787,
                    "duration": 0.30747150000000545
                },
                {
                    "name": "G#2",
                    "midi": 44,
                    "time": 67.02878699999988,
                    "velocity": 0.23622047244094488,
                    "duration": 0.30747150000000545
                },
                {
                    "name": "F3",
                    "midi": 53,
                    "time": 67.02878699999988,
                    "velocity": 0.41732283464566927,
                    "duration": 0.30747150000000545
                },
                {
                    "name": "A2",
                    "midi": 45,
                    "time": 67.33625849999989,
                    "velocity": 0.2283464566929134,
                    "duration": 0.30747150000000545
                },
                {
                    "name": "D#3",
                    "midi": 51,
                    "time": 67.33625849999989,
                    "velocity": 0.3937007874015748,
                    "duration": 0.30747150000000545
                },
                {
                    "name": "A#2",
                    "midi": 46,
                    "time": 67.64372999999989,
                    "velocity": 0.2204724409448819,
                    "duration": 0.6149430000000109
                },
                {
                    "name": "D3",
                    "midi": 50,
                    "time": 67.64372999999989,
                    "velocity": 0.29133858267716534,
                    "duration": 0.30747150000000545
                },
                {
                    "name": "F3",
                    "midi": 53,
                    "time": 67.9512014999999,
                    "velocity": 0.31496062992125984,
                    "duration": 0.30747150000000545
                },
                {
                    "name": "A#3",
                    "midi": 58,
                    "time": 68.2586729999999,
                    "velocity": 0.33858267716535434,
                    "duration": 0.30747150000000545
                },
                {
                    "name": "A#1",
                    "midi": 34,
                    "time": 68.2586729999999,
                    "velocity": 0.36220472440944884,
                    "duration": 0.6149430000000109
                },
                {
                    "name": "A3",
                    "midi": 57,
                    "time": 68.56614449999991,
                    "velocity": 0.30708661417322836,
                    "duration": 0.30747150000000545
                },
                {
                    "name": "G3",
                    "midi": 55,
                    "time": 68.87361599999991,
                    "velocity": 0.30708661417322836,
                    "duration": 0.30747150000000545
                },
                {
                    "name": "F3",
                    "midi": 53,
                    "time": 69.18108749999992,
                    "velocity": 0.30708661417322836,
                    "duration": 0.30747150000000545
                },
                {
                    "name": "D#3",
                    "midi": 51,
                    "time": 69.48855899999992,
                    "velocity": 0.30708661417322836,
                    "duration": 0.30747150000000545
                },
                {
                    "name": "A#2",
                    "midi": 46,
                    "time": 69.48855899999992,
                    "velocity": 0.33070866141732286,
                    "duration": 0.6149430000000109
                },
                {
                    "name": "D3",
                    "midi": 50,
                    "time": 69.79603049999993,
                    "velocity": 0.3464566929133858,
                    "duration": 0.30747150000000545
                },
                {
                    "name": "C3",
                    "midi": 48,
                    "time": 70.10350199999993,
                    "velocity": 0.3779527559055118,
                    "duration": 0.30747150000000545
                },
                {
                    "name": "A#1",
                    "midi": 34,
                    "time": 70.10350199999993,
                    "velocity": 0.4094488188976378,
                    "duration": 0.6149430000000109
                },
                {
                    "name": "D3",
                    "midi": 50,
                    "time": 70.41097349999994,
                    "velocity": 0.30708661417322836,
                    "duration": 0.30747150000000545
                },
                {
                    "name": "D#3",
                    "midi": 51,
                    "time": 70.71844499999995,
                    "velocity": 0.30708661417322836,
                    "duration": 0.30747150000000545
                },
                {
                    "name": "F3",
                    "midi": 53,
                    "time": 71.02591649999995,
                    "velocity": 0.28346456692913385,
                    "duration": 0.30747150000000545
                },
                {
                    "name": "A#2",
                    "midi": 46,
                    "time": 71.33338799999996,
                    "velocity": 0.33070866141732286,
                    "duration": 0.6149430000000109
                },
                {
                    "name": "G3",
                    "midi": 55,
                    "time": 71.33338799999996,
                    "velocity": 0.30708661417322836,
                    "duration": 0.30747150000000545
                },
                {
                    "name": "G#3",
                    "midi": 56,
                    "time": 71.64085949999996,
                    "velocity": 0.3464566929133858,
                    "duration": 0.30747150000000545
                },
                {
                    "name": "A#1",
                    "midi": 34,
                    "time": 71.94833099999997,
                    "velocity": 0.33070866141732286,
                    "duration": 0.6149430000000109
                },
                {
                    "name": "A3",
                    "midi": 57,
                    "time": 71.94833099999997,
                    "velocity": 0.30708661417322836,
                    "duration": 0.30747150000000545
                },
                {
                    "name": "G3",
                    "midi": 55,
                    "time": 72.25580249999997,
                    "velocity": 0.30708661417322836,
                    "duration": 0.30747150000000545
                },
                {
                    "name": "F3",
                    "midi": 53,
                    "time": 72.56327399999998,
                    "velocity": 0.3228346456692913,
                    "duration": 0.30747150000000545
                },
                {
                    "name": "D#3",
                    "midi": 51,
                    "time": 72.87074549999998,
                    "velocity": 0.30708661417322836,
                    "duration": 0.30747150000000545
                },
                {
                    "name": "A#2",
                    "midi": 46,
                    "time": 73.17821699999999,
                    "velocity": 0.3779527559055118,
                    "duration": 0.6149430000000109
                },
                {
                    "name": "D3",
                    "midi": 50,
                    "time": 73.17821699999999,
                    "velocity": 0.3464566929133858,
                    "duration": 0.30747150000000545
                },
                {
                    "name": "C3",
                    "midi": 48,
                    "time": 73.4856885,
                    "velocity": 0.2992125984251969,
                    "duration": 0.30747150000000545
                },
                {
                    "name": "A#2",
                    "midi": 46,
                    "time": 73.79316,
                    "velocity": 0.36220472440944884,
                    "duration": 0.30747150000000545
                },
                {
                    "name": "A#1",
                    "midi": 34,
                    "time": 73.79316,
                    "velocity": 0.3937007874015748,
                    "duration": 0.6149430000000109
                },
                {
                    "name": "C3",
                    "midi": 48,
                    "time": 74.1006315,
                    "velocity": 0.2755905511811024,
                    "duration": 0.30747150000000545
                },
                {
                    "name": "D3",
                    "midi": 50,
                    "time": 74.40810300000001,
                    "velocity": 0.30708661417322836,
                    "duration": 0.30747150000000545
                },
                {
                    "name": "D#3",
                    "midi": 51,
                    "time": 74.71557450000002,
                    "velocity": 0.2755905511811024,
                    "duration": 0.30747150000000545
                },
                {
                    "name": "A#2",
                    "midi": 46,
                    "time": 75.02304600000002,
                    "velocity": 0.33070866141732286,
                    "duration": 0.6149430000000109
                },
                {
                    "name": "E3",
                    "midi": 52,
                    "time": 75.02304600000002,
                    "velocity": 0.30708661417322836,
                    "duration": 0.30747150000000545
                },
                {
                    "name": "F3",
                    "midi": 53,
                    "time": 75.33051750000003,
                    "velocity": 0.2755905511811024,
                    "duration": 0.30747150000000545
                },
                {
                    "name": "A#1",
                    "midi": 34,
                    "time": 75.63798900000003,
                    "velocity": 0.33070866141732286,
                    "duration": 0.6149430000000109
                },
                {
                    "name": "G3",
                    "midi": 55,
                    "time": 75.63798900000003,
                    "velocity": 0.30708661417322836,
                    "duration": 0.30747150000000545
                },
                {
                    "name": "F3",
                    "midi": 53,
                    "time": 75.94546050000004,
                    "velocity": 0.2677165354330709,
                    "duration": 0.30747150000000545
                },
                {
                    "name": "D#3",
                    "midi": 51,
                    "time": 76.25293200000004,
                    "velocity": 0.30708661417322836,
                    "duration": 0.30747150000000545
                },
                {
                    "name": "D3",
                    "midi": 50,
                    "time": 76.56040350000005,
                    "velocity": 0.2677165354330709,
                    "duration": 0.30747150000000545
                },
                {
                    "name": "A#2",
                    "midi": 46,
                    "time": 76.79100712500005,
                    "velocity": 0.25984251968503935,
                    "duration": 0.38433937500001036
                },
                {
                    "name": "C3",
                    "midi": 48,
                    "time": 76.86787500000005,
                    "velocity": 0.30708661417322836,
                    "duration": 0.30747150000000545
                },
                {
                    "name": "A#2",
                    "midi": 46,
                    "time": 77.17534650000006,
                    "velocity": 0.3543307086614173,
                    "duration": 0.30747150000000545
                },
                {
                    "name": "A2",
                    "midi": 45,
                    "time": 77.48281800000007,
                    "velocity": 0.30708661417322836,
                    "duration": 0.30747150000000545
                },
                {
                    "name": "A#1",
                    "midi": 34,
                    "time": 77.48281800000007,
                    "velocity": 0.33070866141732286,
                    "duration": 0.30747150000000545
                },
                {
                    "name": "A#2",
                    "midi": 46,
                    "time": 77.79028950000007,
                    "velocity": 0.2992125984251969,
                    "duration": 2.767243500000035
                },
                {
                    "name": "C3",
                    "midi": 48,
                    "time": 78.09776100000008,
                    "velocity": 0.28346456692913385,
                    "duration": 0.30747150000000545
                },
                {
                    "name": "C#3",
                    "midi": 49,
                    "time": 78.40523250000008,
                    "velocity": 0.2755905511811024,
                    "duration": 0.30747150000000545
                },
                {
                    "name": "D3",
                    "midi": 50,
                    "time": 78.71270400000009,
                    "velocity": 0.2992125984251969,
                    "duration": 0.30747150000000545
                },
                {
                    "name": "D#3",
                    "midi": 51,
                    "time": 79.0201755000001,
                    "velocity": 0.2677165354330709,
                    "duration": 0.30747150000000545
                },
                {
                    "name": "F3",
                    "midi": 53,
                    "time": 79.3276470000001,
                    "velocity": 0.2755905511811024,
                    "duration": 0.30747150000000545
                },
                {
                    "name": "G3",
                    "midi": 55,
                    "time": 79.6351185000001,
                    "velocity": 0.25984251968503935,
                    "duration": 0.30747150000000545
                },
                {
                    "name": "A3",
                    "midi": 57,
                    "time": 79.8657221250001,
                    "velocity": 0.31496062992125984,
                    "duration": 0.07686787500000491
                },
                {
                    "name": "D4",
                    "midi": 62,
                    "time": 80.7112687500001,
                    "velocity": 0.28346456692913385,
                    "duration": 0.15373574999999562
                },
                {
                    "name": "D#4",
                    "midi": 63,
                    "time": 80.8650045000001,
                    "velocity": 0.2440944881889764,
                    "duration": 0.15373574999999562
                },
                {
                    "name": "F4",
                    "midi": 65,
                    "time": 81.01874025000009,
                    "velocity": 0.2677165354330709,
                    "duration": 0.15373574999999562
                },
                {
                    "name": "A#3",
                    "midi": 58,
                    "time": 81.17247600000009,
                    "velocity": 0.2125984251968504,
                    "duration": 1.2298859999999934
                },
                {
                    "name": "F#4",
                    "midi": 66,
                    "time": 81.17247600000009,
                    "velocity": 0.2992125984251969,
                    "duration": 1.2298859999999934
                },
                {
                    "name": "F4",
                    "midi": 65,
                    "time": 82.40236200000008,
                    "velocity": 0.2677165354330709,
                    "duration": 0.6149430000000109
                },
                {
                    "name": "A3",
                    "midi": 57,
                    "time": 82.40236200000008,
                    "velocity": 0.2204724409448819,
                    "duration": 0.6149430000000109
                },
                {
                    "name": "A#1",
                    "midi": 34,
                    "time": 82.94043712500009,
                    "velocity": 0.25984251968503935,
                    "duration": 1.3067538749999983
                },
                {
                    "name": "D3",
                    "midi": 50,
                    "time": 83.01730500000009,
                    "velocity": 0.31496062992125984,
                    "duration": 1.2298859999999934
                },
                {
                    "name": "F4",
                    "midi": 65,
                    "time": 84.70839825000009,
                    "velocity": 0.4566929133858268,
                    "duration": 0.15373574999999562
                },
                {
                    "name": "A#4",
                    "midi": 70,
                    "time": 84.86213400000008,
                    "velocity": 0.5118110236220472,
                    "duration": 0.07686787500000491
                },
                {
                    "name": "D4",
                    "midi": 62,
                    "time": 85.01586975000009,
                    "velocity": 0.3858267716535433,
                    "duration": 0.07686787500000491
                },
                {
                    "name": "G4",
                    "midi": 67,
                    "time": 85.1696055000001,
                    "velocity": 0.47244094488188976,
                    "duration": 0.07686787500000491
                },
                {
                    "name": "F4",
                    "midi": 65,
                    "time": 85.32334125000011,
                    "velocity": 0.3858267716535433,
                    "duration": 0.07686787500000491
                },
                {
                    "name": "E4",
                    "midi": 64,
                    "time": 85.47707700000012,
                    "velocity": 0.5118110236220472,
                    "duration": 0.07686787500000491
                },
                {
                    "name": "C4",
                    "midi": 60,
                    "time": 85.63081275000013,
                    "velocity": 0.4330708661417323,
                    "duration": 0.07686787500000491
                },
                {
                    "name": "F4",
                    "midi": 65,
                    "time": 85.78454850000014,
                    "velocity": 0.5826771653543307,
                    "duration": 0.07686787500000491
                },
                {
                    "name": "A3",
                    "midi": 57,
                    "time": 85.93828425000015,
                    "velocity": 0.5118110236220472,
                    "duration": 0.07686787500000491
                },
                {
                    "name": "D4",
                    "midi": 62,
                    "time": 86.09202000000016,
                    "velocity": 0.6141732283464567,
                    "duration": 0.07686787500000491
                },
                {
                    "name": "G3",
                    "midi": 55,
                    "time": 86.24575575000017,
                    "velocity": 0.4409448818897638,
                    "duration": 0.07686787500000491
                },
                {
                    "name": "C4",
                    "midi": 60,
                    "time": 86.39949150000018,
                    "velocity": 0.5905511811023622,
                    "duration": 0.07686787500000491
                },
                {
                    "name": "A#3",
                    "midi": 58,
                    "time": 86.55322725000019,
                    "velocity": 0.41732283464566927,
                    "duration": 0.07686787500000491
                },
                {
                    "name": "A3",
                    "midi": 57,
                    "time": 86.7069630000002,
                    "velocity": 0.5669291338582677,
                    "duration": 0.30747150000000545
                },
                {
                    "name": "G3",
                    "midi": 55,
                    "time": 87.0144345000002,
                    "velocity": 0.6535433070866141,
                    "duration": 0.6149429999999967
                },
                {
                    "name": "F#3",
                    "midi": 54,
                    "time": 87.6293775000002,
                    "velocity": 0.5748031496062992,
                    "duration": 0.30747150000000545
                },
                {
                    "name": "G3",
                    "midi": 55,
                    "time": 87.93684900000021,
                    "velocity": 0.6535433070866141,
                    "duration": 0.15373574999999562
                },
                {
                    "name": "C3",
                    "midi": 48,
                    "time": 88.0905847500002,
                    "velocity": 0.5433070866141733,
                    "duration": 0.07686787500000491
                },
                {
                    "name": "F3",
                    "midi": 53,
                    "time": 88.24432050000021,
                    "velocity": 0.6062992125984252,
                    "duration": 0.07686787500000491
                },
                {
                    "name": "A2",
                    "midi": 45,
                    "time": 88.39805625000022,
                    "velocity": 0.5039370078740157,
                    "duration": 0.07686787500000491
                },
                {
                    "name": "A#2",
                    "midi": 46,
                    "time": 88.55179200000023,
                    "velocity": 0.5590551181102362,
                    "duration": 0.07686787500000491
                },
                {
                    "name": "G2",
                    "midi": 43,
                    "time": 88.70552775000024,
                    "velocity": 0.47244094488188976,
                    "duration": 0.07686787500000491
                },
                {
                    "name": "C3",
                    "midi": 48,
                    "time": 88.85926350000025,
                    "velocity": 0.5433070866141733,
                    "duration": 0.07686787500000491
                },
                {
                    "name": "A#2",
                    "midi": 46,
                    "time": 89.01299925000026,
                    "velocity": 0.4409448818897638,
                    "duration": 0.07686787500000491
                },
                {
                    "name": "A2",
                    "midi": 45,
                    "time": 89.16673500000027,
                    "velocity": 0.5433070866141733,
                    "duration": 0.15373574999999562
                },
                {
                    "name": "F2",
                    "midi": 41,
                    "time": 89.47420650000026,
                    "velocity": 0.7007874015748031,
                    "duration": 0.6149430000000109
                },
                {
                    "name": "F1",
                    "midi": 29,
                    "time": 89.47420650000026,
                    "velocity": 0.6141732283464567,
                    "duration": 0.6149430000000109
                },
                {
                    "name": "D4",
                    "midi": 62,
                    "time": 89.93541375000027,
                    "velocity": 0.44881889763779526,
                    "duration": 0.07686787500000491
                },
                {
                    "name": "G4",
                    "midi": 67,
                    "time": 90.08914950000027,
                    "velocity": 0.47244094488188976,
                    "duration": 0.07686787500000491
                },
                {
                    "name": "F4",
                    "midi": 65,
                    "time": 90.24288525000028,
                    "velocity": 0.4566929133858268,
                    "duration": 0.07686787500000491
                },
                {
                    "name": "E4",
                    "midi": 64,
                    "time": 90.3966210000003,
                    "velocity": 0.5118110236220472,
                    "duration": 0.07686787500000491
                },
                {
                    "name": "C4",
                    "midi": 60,
                    "time": 90.5503567500003,
                    "velocity": 0.4330708661417323,
                    "duration": 0.07686787500000491
                },
                {
                    "name": "F4",
                    "midi": 65,
                    "time": 90.70409250000031,
                    "velocity": 0.5826771653543307,
                    "duration": 0.07686787500000491
                },
                {
                    "name": "A3",
                    "midi": 57,
                    "time": 90.85782825000032,
                    "velocity": 0.4566929133858268,
                    "duration": 0.07686787500000491
                },
                {
                    "name": "D4",
                    "midi": 62,
                    "time": 91.01156400000033,
                    "velocity": 0.5748031496062992,
                    "duration": 0.07686787500000491
                },
                {
                    "name": "G3",
                    "midi": 55,
                    "time": 91.16529975000034,
                    "velocity": 0.4409448818897638,
                    "duration": 0.07686787500000491
                },
                {
                    "name": "C4",
                    "midi": 60,
                    "time": 91.31903550000035,
                    "velocity": 0.5905511811023622,
                    "duration": 0.07686787500000491
                },
                {
                    "name": "A#3",
                    "midi": 58,
                    "time": 91.47277125000036,
                    "velocity": 0.4094488188976378,
                    "duration": 0.07686787500000491
                },
                {
                    "name": "A3",
                    "midi": 57,
                    "time": 91.62650700000037,
                    "velocity": 0.5669291338582677,
                    "duration": 0.30747150000000545
                },
                {
                    "name": "G3",
                    "midi": 55,
                    "time": 91.93397850000038,
                    "velocity": 0.6299212598425197,
                    "duration": 0.6149429999999967
                },
                {
                    "name": "F#3",
                    "midi": 54,
                    "time": 92.54892150000038,
                    "velocity": 0.5039370078740157,
                    "duration": 0.30747150000000545
                },
                {
                    "name": "G3",
                    "midi": 55,
                    "time": 92.85639300000038,
                    "velocity": 0.6141732283464567,
                    "duration": 0.15373574999999562
                },
                {
                    "name": "C3",
                    "midi": 48,
                    "time": 93.01012875000038,
                    "velocity": 0.49606299212598426,
                    "duration": 0.07686787500000491
                },
                {
                    "name": "F3",
                    "midi": 53,
                    "time": 93.16386450000039,
                    "velocity": 0.5511811023622047,
                    "duration": 0.07686787500000491
                },
                {
                    "name": "A2",
                    "midi": 45,
                    "time": 93.3176002500004,
                    "velocity": 0.4566929133858268,
                    "duration": 0.07686787500000491
                },
                {
                    "name": "A#2",
                    "midi": 46,
                    "time": 93.4713360000004,
                    "velocity": 0.5039370078740157,
                    "duration": 0.07686787500000491
                },
                {
                    "name": "G2",
                    "midi": 43,
                    "time": 93.62507175000042,
                    "velocity": 0.4566929133858268,
                    "duration": 0.07686787500000491
                },
                {
                    "name": "C3",
                    "midi": 48,
                    "time": 93.77880750000043,
                    "velocity": 0.48031496062992124,
                    "duration": 0.07686787500000491
                },
                {
                    "name": "A#2",
                    "midi": 46,
                    "time": 93.93254325000044,
                    "velocity": 0.4409448818897638,
                    "duration": 0.07686787500000491
                },
                {
                    "name": "A2",
                    "midi": 45,
                    "time": 94.08627900000045,
                    "velocity": 0.47244094488188976,
                    "duration": 0.15373574999999562
                },
                {
                    "name": "F2",
                    "midi": 41,
                    "time": 94.39375050000044,
                    "velocity": 0.3700787401574803,
                    "duration": 0.6149429999999967
                },
                {
                    "name": "F1",
                    "midi": 29,
                    "time": 94.39375050000044,
                    "velocity": 0.30708661417322836,
                    "duration": 0.6149429999999967
                },
                {
                    "name": "F#2",
                    "midi": 42,
                    "time": 95.62363650000043,
                    "velocity": 0.4409448818897638,
                    "duration": 0.6149429999999967
                },
                {
                    "name": "F#1",
                    "midi": 30,
                    "time": 95.62363650000043,
                    "velocity": 0.30708661417322836,
                    "duration": 0.9224145000000021
                },
                {
                    "name": "G#2",
                    "midi": 44,
                    "time": 96.23857950000043,
                    "velocity": 0.36220472440944884,
                    "duration": 0.30747150000000545
                },
                {
                    "name": "F1",
                    "midi": 29,
                    "time": 96.54605100000043,
                    "velocity": 0.28346456692913385,
                    "duration": 0.30747150000000545
                },
                {
                    "name": "F2",
                    "midi": 41,
                    "time": 96.54605100000043,
                    "velocity": 0.4015748031496063,
                    "duration": 0.30747150000000545
                },
                {
                    "name": "F#2",
                    "midi": 42,
                    "time": 96.85352250000044,
                    "velocity": 0.4409448818897638,
                    "duration": 0.6149429999999967
                },
                {
                    "name": "F#1",
                    "midi": 30,
                    "time": 96.85352250000044,
                    "velocity": 0.30708661417322836,
                    "duration": 0.9224145000000021
                },
                {
                    "name": "G#2",
                    "midi": 44,
                    "time": 97.46846550000043,
                    "velocity": 0.3858267716535433,
                    "duration": 0.30747150000000545
                },
                {
                    "name": "F1",
                    "midi": 29,
                    "time": 97.77593700000044,
                    "velocity": 0.30708661417322836,
                    "duration": 0.30747150000000545
                },
                {
                    "name": "F2",
                    "midi": 41,
                    "time": 97.77593700000044,
                    "velocity": 0.4409448818897638,
                    "duration": 0.30747150000000545
                },
                {
                    "name": "F#1",
                    "midi": 30,
                    "time": 98.08340850000044,
                    "velocity": 0.28346456692913385,
                    "duration": 0.30747150000000545
                },
                {
                    "name": "F#2",
                    "midi": 42,
                    "time": 98.08340850000044,
                    "velocity": 0.4015748031496063,
                    "duration": 0.30747150000000545
                },
                {
                    "name": "G1",
                    "midi": 31,
                    "time": 98.39088000000045,
                    "velocity": 0.33858267716535434,
                    "duration": 0.30747150000000545
                },
                {
                    "name": "G2",
                    "midi": 43,
                    "time": 98.39088000000045,
                    "velocity": 0.47244094488188976,
                    "duration": 0.30747150000000545
                },
                {
                    "name": "G#1",
                    "midi": 32,
                    "time": 98.69835150000046,
                    "velocity": 0.28346456692913385,
                    "duration": 0.30747150000000545
                },
                {
                    "name": "G#2",
                    "midi": 44,
                    "time": 98.69835150000046,
                    "velocity": 0.4094488188976378,
                    "duration": 0.30747150000000545
                },
                {
                    "name": "A2",
                    "midi": 45,
                    "time": 99.00582300000046,
                    "velocity": 0.48031496062992124,
                    "duration": 0.30747150000000545
                },
                {
                    "name": "A1",
                    "midi": 33,
                    "time": 99.00582300000046,
                    "velocity": 0.33858267716535434,
                    "duration": 0.30747150000000545
                },
                {
                    "name": "A#2",
                    "midi": 46,
                    "time": 99.31329450000047,
                    "velocity": 0.4251968503937008,
                    "duration": 0.30747150000000545
                },
                {
                    "name": "A#1",
                    "midi": 34,
                    "time": 99.31329450000047,
                    "velocity": 0.4251968503937008,
                    "duration": 0.30747150000000545
                },
                {
                    "name": "B1",
                    "midi": 35,
                    "time": 99.62076600000047,
                    "velocity": 0.36220472440944884,
                    "duration": 0.30747150000000545
                },
                {
                    "name": "B2",
                    "midi": 47,
                    "time": 99.62076600000047,
                    "velocity": 0.5196850393700787,
                    "duration": 0.30747150000000545
                },
                {
                    "name": "C3",
                    "midi": 48,
                    "time": 99.92823750000048,
                    "velocity": 0.49606299212598426,
                    "duration": 0.30747150000000545
                },
                {
                    "name": "C2",
                    "midi": 36,
                    "time": 99.92823750000048,
                    "velocity": 0.3464566929133858,
                    "duration": 0.30747150000000545
                },
                {
                    "name": "F2",
                    "midi": 41,
                    "time": 100.23570900000048,
                    "velocity": 0.5984251968503937,
                    "duration": 0.7686787500000065
                },
                {
                    "name": "F1",
                    "midi": 29,
                    "time": 100.23570900000048,
                    "velocity": 0.3858267716535433,
                    "duration": 0.7686787500000065
                },
                {
                    "name": "D4",
                    "midi": 62,
                    "time": 101.00438775000049,
                    "velocity": 0.4094488188976378,
                    "duration": 0.07686787500000491
                },
                {
                    "name": "G4",
                    "midi": 67,
                    "time": 101.1581235000005,
                    "velocity": 0.47244094488188976,
                    "duration": 0.07686787500000491
                },
                {
                    "name": "F4",
                    "midi": 65,
                    "time": 101.31185925000051,
                    "velocity": 0.4015748031496063,
                    "duration": 0.07686787500000491
                },
                {
                    "name": "E4",
                    "midi": 64,
                    "time": 101.46559500000052,
                    "velocity": 0.5118110236220472,
                    "duration": 0.07686787500000491
                },
                {
                    "name": "C4",
                    "midi": 60,
                    "time": 101.61933075000053,
                    "velocity": 0.4015748031496063,
                    "duration": 0.07686787500000491
                },
                {
                    "name": "F4",
                    "midi": 65,
                    "time": 101.77306650000054,
                    "velocity": 0.5826771653543307,
                    "duration": 0.07686787500000491
                },
                {
                    "name": "A3",
                    "midi": 57,
                    "time": 101.92680225000055,
                    "velocity": 0.5118110236220472,
                    "duration": 0.07686787500000491
                },
                {
                    "name": "D4",
                    "midi": 62,
                    "time": 102.08053800000056,
                    "velocity": 0.5826771653543307,
                    "duration": 0.07686787500000491
                },
                {
                    "name": "G3",
                    "midi": 55,
                    "time": 102.23427375000057,
                    "velocity": 0.4645669291338583,
                    "duration": 0.07686787500000491
                },
                {
                    "name": "C4",
                    "midi": 60,
                    "time": 102.38800950000058,
                    "velocity": 0.5905511811023622,
                    "duration": 0.07686787500000491
                },
                {
                    "name": "A#3",
                    "midi": 58,
                    "time": 102.54174525000059,
                    "velocity": 0.4330708661417323,
                    "duration": 0.07686787500000491
                },
                {
                    "name": "A3",
                    "midi": 57,
                    "time": 102.6954810000006,
                    "velocity": 0.5669291338582677,
                    "duration": 0.30747150000000545
                },
                {
                    "name": "G3",
                    "midi": 55,
                    "time": 103.0029525000006,
                    "velocity": 0.6141732283464567,
                    "duration": 0.6149429999999967
                },
                {
                    "name": "F#3",
                    "midi": 54,
                    "time": 103.6178955000006,
                    "velocity": 0.5275590551181102,
                    "duration": 0.30747150000000545
                },
                {
                    "name": "G3",
                    "midi": 55,
                    "time": 103.9253670000006,
                    "velocity": 0.5905511811023622,
                    "duration": 0.15373574999999562
                },
                {
                    "name": "C3",
                    "midi": 48,
                    "time": 104.0791027500006,
                    "velocity": 0.4881889763779528,
                    "duration": 0.07686787500000491
                },
                {
                    "name": "F3",
                    "midi": 53,
                    "time": 104.23283850000061,
                    "velocity": 0.5433070866141733,
                    "duration": 0.07686787500000491
                },
                {
                    "name": "A2",
                    "midi": 45,
                    "time": 104.38657425000062,
                    "velocity": 0.4409448818897638,
                    "duration": 0.07686787500000491
                },
                {
                    "name": "A#2",
                    "midi": 46,
                    "time": 104.54031000000063,
                    "velocity": 0.49606299212598426,
                    "duration": 0.07686787500000491
                },
                {
                    "name": "G2",
                    "midi": 43,
                    "time": 104.69404575000064,
                    "velocity": 0.44881889763779526,
                    "duration": 0.07686787500000491
                },
                {
                    "name": "C3",
                    "midi": 48,
                    "time": 104.84778150000065,
                    "velocity": 0.47244094488188976,
                    "duration": 0.07686787500000491
                },
                {
                    "name": "A#2",
                    "midi": 46,
                    "time": 105.00151725000066,
                    "velocity": 0.4251968503937008,
                    "duration": 0.07686787500000491
                },
                {
                    "name": "A2",
                    "midi": 45,
                    "time": 105.15525300000067,
                    "velocity": 0.4645669291338583,
                    "duration": 0.15373574999999562
                },
                {
                    "name": "F1",
                    "midi": 29,
                    "time": 105.46272450000066,
                    "velocity": 0.30708661417322836,
                    "duration": 0.9224145000000021
                },
                {
                    "name": "F2",
                    "midi": 41,
                    "time": 105.46272450000066,
                    "velocity": 0.3700787401574803,
                    "duration": 0.9224145000000021
                },
                {
                    "name": "F#1",
                    "midi": 30,
                    "time": 106.69261050000067,
                    "velocity": 0.30708661417322836,
                    "duration": 0.9224145000000021
                },
                {
                    "name": "F#2",
                    "midi": 42,
                    "time": 106.69261050000067,
                    "velocity": 0.4409448818897638,
                    "duration": 0.6149429999999967
                },
                {
                    "name": "G#2",
                    "midi": 44,
                    "time": 107.30755350000067,
                    "velocity": 0.36220472440944884,
                    "duration": 0.30747150000000545
                },
                {
                    "name": "F2",
                    "midi": 41,
                    "time": 107.61502500000067,
                    "velocity": 0.4015748031496063,
                    "duration": 0.30747150000000545
                },
                {
                    "name": "F1",
                    "midi": 29,
                    "time": 107.61502500000067,
                    "velocity": 0.28346456692913385,
                    "duration": 0.30747150000000545
                },
                {
                    "name": "F#2",
                    "midi": 42,
                    "time": 107.92249650000068,
                    "velocity": 0.4409448818897638,
                    "duration": 0.6149429999999967
                },
                {
                    "name": "F#1",
                    "midi": 30,
                    "time": 107.92249650000068,
                    "velocity": 0.30708661417322836,
                    "duration": 0.9224145000000021
                },
                {
                    "name": "G#2",
                    "midi": 44,
                    "time": 108.53743950000067,
                    "velocity": 0.3858267716535433,
                    "duration": 0.30747150000000545
                },
                {
                    "name": "F2",
                    "midi": 41,
                    "time": 108.84491100000068,
                    "velocity": 0.4409448818897638,
                    "duration": 0.30747150000000545
                },
                {
                    "name": "F1",
                    "midi": 29,
                    "time": 108.84491100000068,
                    "velocity": 0.30708661417322836,
                    "duration": 0.30747150000000545
                },
                {
                    "name": "F#1",
                    "midi": 30,
                    "time": 109.15238250000068,
                    "velocity": 0.3858267716535433,
                    "duration": 0.30747150000000545
                },
                {
                    "name": "F#2",
                    "midi": 42,
                    "time": 109.15238250000068,
                    "velocity": 0.3858267716535433,
                    "duration": 0.30747150000000545
                },
                {
                    "name": "G2",
                    "midi": 43,
                    "time": 109.45985400000069,
                    "velocity": 0.47244094488188976,
                    "duration": 0.30747150000000545
                },
                {
                    "name": "G1",
                    "midi": 31,
                    "time": 109.45985400000069,
                    "velocity": 0.33858267716535434,
                    "duration": 0.30747150000000545
                },
                {
                    "name": "G#2",
                    "midi": 44,
                    "time": 109.7673255000007,
                    "velocity": 0.36220472440944884,
                    "duration": 0.30747150000000545
                },
                {
                    "name": "G#1",
                    "midi": 32,
                    "time": 109.7673255000007,
                    "velocity": 0.36220472440944884,
                    "duration": 0.30747150000000545
                },
                {
                    "name": "A1",
                    "midi": 33,
                    "time": 110.0747970000007,
                    "velocity": 0.33858267716535434,
                    "duration": 0.30747150000000545
                },
                {
                    "name": "A2",
                    "midi": 45,
                    "time": 110.0747970000007,
                    "velocity": 0.48031496062992124,
                    "duration": 0.30747150000000545
                },
                {
                    "name": "A#2",
                    "midi": 46,
                    "time": 110.3822685000007,
                    "velocity": 0.4409448818897638,
                    "duration": 0.30747150000000545
                },
                {
                    "name": "A#1",
                    "midi": 34,
                    "time": 110.3822685000007,
                    "velocity": 0.31496062992125984,
                    "duration": 0.30747150000000545
                },
                {
                    "name": "B1",
                    "midi": 35,
                    "time": 110.68974000000071,
                    "velocity": 0.36220472440944884,
                    "duration": 0.30747150000000545
                },
                {
                    "name": "B2",
                    "midi": 47,
                    "time": 110.68974000000071,
                    "velocity": 0.5118110236220472,
                    "duration": 0.30747150000000545
                },
                {
                    "name": "C3",
                    "midi": 48,
                    "time": 110.99721150000072,
                    "velocity": 0.4881889763779528,
                    "duration": 0.30747150000000545
                },
                {
                    "name": "C2",
                    "midi": 36,
                    "time": 110.99721150000072,
                    "velocity": 0.33858267716535434,
                    "duration": 0.30747150000000545
                },
                {
                    "name": "F1",
                    "midi": 29,
                    "time": 111.30468300000072,
                    "velocity": 0.3700787401574803,
                    "duration": 0.7686787500000065
                },
                {
                    "name": "F2",
                    "midi": 41,
                    "time": 111.30468300000072,
                    "velocity": 0.5826771653543307,
                    "duration": 0.7686787500000065
                },
                {
                    "name": "D4",
                    "midi": 62,
                    "time": 112.07336175000073,
                    "velocity": 0.44881889763779526,
                    "duration": 0.07686787500000491
                },
                {
                    "name": "G4",
                    "midi": 67,
                    "time": 112.22709750000074,
                    "velocity": 0.47244094488188976,
                    "duration": 0.07686787500000491
                },
                {
                    "name": "F4",
                    "midi": 65,
                    "time": 112.38083325000075,
                    "velocity": 0.4015748031496063,
                    "duration": 0.07686787500000491
                },
                {
                    "name": "E4",
                    "midi": 64,
                    "time": 112.53456900000076,
                    "velocity": 0.5118110236220472,
                    "duration": 0.07686787500000491
                },
                {
                    "name": "C4",
                    "midi": 60,
                    "time": 112.68830475000077,
                    "velocity": 0.4094488188976378,
                    "duration": 0.07686787500000491
                },
                {
                    "name": "F4",
                    "midi": 65,
                    "time": 112.84204050000078,
                    "velocity": 0.5826771653543307,
                    "duration": 0.07686787500000491
                },
                {
                    "name": "A3",
                    "midi": 57,
                    "time": 112.99577625000079,
                    "velocity": 0.47244094488188976,
                    "duration": 0.07686787500000491
                },
                {
                    "name": "D4",
                    "midi": 62,
                    "time": 113.1495120000008,
                    "velocity": 0.5590551181102362,
                    "duration": 0.07686787500000491
                },
                {
                    "name": "G3",
                    "midi": 55,
                    "time": 113.3032477500008,
                    "velocity": 0.5196850393700787,
                    "duration": 0.07686787500000491
                },
                {
                    "name": "C4",
                    "midi": 60,
                    "time": 113.45698350000082,
                    "velocity": 0.5905511811023622,
                    "duration": 0.07686787500000491
                },
                {
                    "name": "A#3",
                    "midi": 58,
                    "time": 113.61071925000083,
                    "velocity": 0.47244094488188976,
                    "duration": 0.07686787500000491
                },
                {
                    "name": "A3",
                    "midi": 57,
                    "time": 113.76445500000084,
                    "velocity": 0.5669291338582677,
                    "duration": 0.30747150000000545
                },
                {
                    "name": "G3",
                    "midi": 55,
                    "time": 114.07192650000084,
                    "velocity": 0.6141732283464567,
                    "duration": 0.6149429999999967
                },
                {
                    "name": "F#3",
                    "midi": 54,
                    "time": 114.68686950000084,
                    "velocity": 0.5275590551181102,
                    "duration": 0.30747150000000545
                },
                {
                    "name": "G3",
                    "midi": 55,
                    "time": 114.99434100000084,
                    "velocity": 0.5984251968503937,
                    "duration": 0.15373574999999562
                },
                {
                    "name": "C3",
                    "midi": 48,
                    "time": 115.14807675000084,
                    "velocity": 0.4881889763779528,
                    "duration": 0.07686787500000491
                },
                {
                    "name": "F3",
                    "midi": 53,
                    "time": 115.30181250000085,
                    "velocity": 0.5433070866141733,
                    "duration": 0.07686787500000491
                },
                {
                    "name": "A2",
                    "midi": 45,
                    "time": 115.45554825000086,
                    "velocity": 0.44881889763779526,
                    "duration": 0.07686787500000491
                },
                {
                    "name": "A#2",
                    "midi": 46,
                    "time": 115.60928400000087,
                    "velocity": 0.49606299212598426,
                    "duration": 0.07686787500000491
                },
                {
                    "name": "G2",
                    "midi": 43,
                    "time": 115.76301975000088,
                    "velocity": 0.3858267716535433,
                    "duration": 0.07686787500000491
                },
                {
                    "name": "C3",
                    "midi": 48,
                    "time": 115.91675550000089,
                    "velocity": 0.4251968503937008,
                    "duration": 0.07686787500000491
                },
                {
                    "name": "A#2",
                    "midi": 46,
                    "time": 116.0704912500009,
                    "velocity": 0.25984251968503935,
                    "duration": 0.07686787500000491
                },
                {
                    "name": "F3",
                    "midi": 53,
                    "time": 116.22422700000091,
                    "velocity": 0.33070866141732286,
                    "duration": 0.15373574999999562
                },
                {
                    "name": "A2",
                    "midi": 45,
                    "time": 116.22422700000091,
                    "velocity": 0.33070866141732286,
                    "duration": 0.30747149999999124
                },
                {
                    "name": "D#3",
                    "midi": 51,
                    "time": 116.3779627500009,
                    "velocity": 0.36220472440944884,
                    "duration": 0.15373574999999562
                },
                {
                    "name": "A#2",
                    "midi": 46,
                    "time": 116.5316985000009,
                    "velocity": 0.30708661417322836,
                    "duration": 1.8448290000000327
                },
                {
                    "name": "D3",
                    "midi": 50,
                    "time": 116.5316985000009,
                    "velocity": 0.30708661417322836,
                    "duration": 0.30747150000000545
                },
                {
                    "name": "F3",
                    "midi": 53,
                    "time": 116.8391700000009,
                    "velocity": 0.30708661417322836,
                    "duration": 0.30747150000000545
                },
                {
                    "name": "A#3",
                    "midi": 58,
                    "time": 117.14664150000091,
                    "velocity": 0.3228346456692913,
                    "duration": 0.30747150000000545
                },
                {
                    "name": "D4",
                    "midi": 62,
                    "time": 117.45411300000092,
                    "velocity": 0.33858267716535434,
                    "duration": 0.30747150000000545
                },
                {
                    "name": "D#4",
                    "midi": 63,
                    "time": 117.76158450000092,
                    "velocity": 0.36220472440944884,
                    "duration": 0.30747150000000545
                },
                {
                    "name": "D4",
                    "midi": 62,
                    "time": 118.06905600000093,
                    "velocity": 0.3464566929133858,
                    "duration": 0.30490923749999865
                },
                {
                    "name": "A#3",
                    "midi": 58,
                    "time": 118.37652750000093,
                    "velocity": 0.33070866141732286,
                    "duration": 0.30490923749999865
                },
                {
                    "name": "F3",
                    "midi": 53,
                    "time": 118.68399900000094,
                    "velocity": 0.28346456692913385,
                    "duration": 0.30747149999999124
                },
                {
                    "name": "F2",
                    "midi": 41,
                    "time": 118.83773475000093,
                    "velocity": 0.33858267716535434,
                    "duration": 1.383621749999989
                },
                {
                    "name": "F3",
                    "midi": 53,
                    "time": 118.99147050000093,
                    "velocity": 0.2677165354330709,
                    "duration": 1.2298859999999934
                },
                {
                    "name": "D#3",
                    "midi": 51,
                    "time": 118.99147050000093,
                    "velocity": 0.2204724409448819,
                    "duration": 1.2298859999999934
                },
                {
                    "name": "D3",
                    "midi": 50,
                    "time": 120.22135650000092,
                    "velocity": 0.30708661417322836,
                    "duration": 0.30747150000000545
                },
                {
                    "name": "F3",
                    "midi": 53,
                    "time": 120.52882800000093,
                    "velocity": 0.30708661417322836,
                    "duration": 0.30747150000000545
                },
                {
                    "name": "A#2",
                    "midi": 46,
                    "time": 120.83629950000093,
                    "velocity": 0.2677165354330709,
                    "duration": 1.2298860000000218
                },
                {
                    "name": "A#3",
                    "midi": 58,
                    "time": 120.83629950000093,
                    "velocity": 0.3228346456692913,
                    "duration": 0.30747150000000545
                },
                {
                    "name": "D4",
                    "midi": 62,
                    "time": 121.14377100000094,
                    "velocity": 0.33858267716535434,
                    "duration": 0.30747150000000545
                },
                {
                    "name": "D#4",
                    "midi": 63,
                    "time": 121.45124250000094,
                    "velocity": 0.36220472440944884,
                    "duration": 0.30747150000000545
                },
                {
                    "name": "D4",
                    "midi": 62,
                    "time": 121.75871400000095,
                    "velocity": 0.3464566929133858,
                    "duration": 0.30490923749999865
                },
                {
                    "name": "A#3",
                    "midi": 58,
                    "time": 122.06618550000096,
                    "velocity": 0.33070866141732286,
                    "duration": 0.30490923749999865
                },
                {
                    "name": "F3",
                    "midi": 53,
                    "time": 122.37365700000096,
                    "velocity": 0.28346456692913385,
                    "duration": 0.30747149999999124
                },
                {
                    "name": "F2",
                    "midi": 41,
                    "time": 122.52739275000096,
                    "velocity": 0.33858267716535434,
                    "duration": 1.383621749999989
                },
                {
                    "name": "F3",
                    "midi": 53,
                    "time": 122.68112850000095,
                    "velocity": 0.2677165354330709,
                    "duration": 1.2298859999999934
                },
                {
                    "name": "D#3",
                    "midi": 51,
                    "time": 122.68112850000095,
                    "velocity": 0.2204724409448819,
                    "duration": 1.2298859999999934
                },
                {
                    "name": "D3",
                    "midi": 50,
                    "time": 123.91101450000095,
                    "velocity": 0.30708661417322836,
                    "duration": 0.30747150000000545
                },
                {
                    "name": "F3",
                    "midi": 53,
                    "time": 124.21848600000095,
                    "velocity": 0.30708661417322836,
                    "duration": 0.30747150000000545
                },
                {
                    "name": "A#3",
                    "midi": 58,
                    "time": 124.52595750000096,
                    "velocity": 0.3228346456692913,
                    "duration": 0.30747150000000545
                },
                {
                    "name": "A#2",
                    "midi": 46,
                    "time": 124.52595750000096,
                    "velocity": 0.2677165354330709,
                    "duration": 1.2298860000000218
                },
                {
                    "name": "D4",
                    "midi": 62,
                    "time": 124.83342900000096,
                    "velocity": 0.28346456692913385,
                    "duration": 0.30747150000000545
                },
                {
                    "name": "D#4",
                    "midi": 63,
                    "time": 125.14090050000097,
                    "velocity": 0.31496062992125984,
                    "duration": 0.30747150000000545
                },
                {
                    "name": "D4",
                    "midi": 62,
                    "time": 125.44837200000097,
                    "velocity": 0.30708661417322836,
                    "duration": 0.30490923749999865
                },
                {
                    "name": "A#3",
                    "midi": 58,
                    "time": 125.75584350000098,
                    "velocity": 0.30708661417322836,
                    "duration": 0.30490923749999865
                },
                {
                    "name": "F3",
                    "midi": 53,
                    "time": 126.06331500000098,
                    "velocity": 0.31496062992125984,
                    "duration": 0.30747150000000545
                },
                {
                    "name": "A3",
                    "midi": 57,
                    "time": 126.37078650000099,
                    "velocity": 0.3700787401574803,
                    "duration": 0.30747150000000545
                },
                {
                    "name": "C3",
                    "midi": 48,
                    "time": 126.37078650000099,
                    "velocity": 0.30708661417322836,
                    "duration": 1.2298860000000218
                },
                {
                    "name": "C4",
                    "midi": 60,
                    "time": 126.678258000001,
                    "velocity": 0.2677165354330709,
                    "duration": 0.30747150000000545
                },
                {
                    "name": "D4",
                    "midi": 62,
                    "time": 126.985729500001,
                    "velocity": 0.31496062992125984,
                    "duration": 0.30747150000000545
                },
                {
                    "name": "C4",
                    "midi": 60,
                    "time": 127.293201000001,
                    "velocity": 0.25984251968503935,
                    "duration": 0.30747150000000545
                },
                {
                    "name": "A3",
                    "midi": 57,
                    "time": 127.60067250000101,
                    "velocity": 0.29133858267716534,
                    "duration": 0.30747150000000545
                },
                {
                    "name": "F3",
                    "midi": 53,
                    "time": 127.90814400000102,
                    "velocity": 0.2440944881889764,
                    "duration": 0.30747150000001966
                },
                {
                    "name": "C2",
                    "midi": 36,
                    "time": 128.06187975000103,
                    "velocity": 0.25196850393700787,
                    "duration": 0.15373575000000983
                },
                {
                    "name": "D#3",
                    "midi": 51,
                    "time": 128.21561550000104,
                    "velocity": 0.25196850393700787,
                    "duration": 0.30747149999999124
                },
                {
                    "name": "E3",
                    "midi": 52,
                    "time": 128.52308700000103,
                    "velocity": 0.2440944881889764,
                    "duration": 0.30747149999999124
                },
                {
                    "name": "C4",
                    "midi": 60,
                    "time": 128.83055850000102,
                    "velocity": 0.28346456692913385,
                    "duration": 0.30747149999999124
                },
                {
                    "name": "A#3",
                    "midi": 58,
                    "time": 129.138030000001,
                    "velocity": 0.25984251968503935,
                    "duration": 0.30747149999999124
                },
                {
                    "name": "G3",
                    "midi": 55,
                    "time": 129.445501500001,
                    "velocity": 0.2204724409448819,
                    "duration": 0.20498100000000363
                },
                {
                    "name": "E3",
                    "midi": 52,
                    "time": 129.650482500001,
                    "velocity": 0.1968503937007874,
                    "duration": 0.20498100000000363
                },
                {
                    "name": "C#3",
                    "midi": 49,
                    "time": 129.855463500001,
                    "velocity": 0.1968503937007874,
                    "duration": 0.20498100000000363
                },
                {
                    "name": "F2",
                    "midi": 41,
                    "time": 130.060444500001,
                    "velocity": 0.28346456692913385,
                    "duration": 1.2298860000000218
                },
                {
                    "name": "B2",
                    "midi": 47,
                    "time": 130.060444500001,
                    "velocity": 0.1968503937007874,
                    "duration": 0.21779231249999498
                },
                {
                    "name": "C3",
                    "midi": 48,
                    "time": 130.26542550000102,
                    "velocity": 0.1732283464566929,
                    "duration": 0.21779231249999498
                },
                {
                    "name": "D3",
                    "midi": 50,
                    "time": 130.47040650000102,
                    "velocity": 0.1732283464566929,
                    "duration": 0.20498100000000363
                },
                {
                    "name": "C3",
                    "midi": 48,
                    "time": 130.67538750000102,
                    "velocity": 0.2125984251968504,
                    "duration": 0.46120725000000107
                },
                {
                    "name": "A#2",
                    "midi": 46,
                    "time": 131.29033050000103,
                    "velocity": 0.30708661417322836,
                    "duration": 0.30747149999999124
                },
                {
                    "name": "C3",
                    "midi": 48,
                    "time": 131.59780200000102,
                    "velocity": 0.3464566929133858,
                    "duration": 0.30747149999999124
                },
                {
                    "name": "A#1",
                    "midi": 34,
                    "time": 131.828405625001,
                    "velocity": 0.3700787401574803,
                    "duration": 0.07686787500000491
                },
                {
                    "name": "D3",
                    "midi": 50,
                    "time": 131.90527350000102,
                    "velocity": 0.4094488188976378,
                    "duration": 1.2298859999999934
                },
                {
                    "name": "A#2",
                    "midi": 46,
                    "time": 133.135159500001,
                    "velocity": 0.30708661417322836,
                    "duration": 0.20498100000000363
                },
                {
                    "name": "C3",
                    "midi": 48,
                    "time": 133.340140500001,
                    "velocity": 0.3464566929133858,
                    "duration": 0.20498100000000363
                },
                {
                    "name": "D3",
                    "midi": 50,
                    "time": 133.54512150000102,
                    "velocity": 0.3779527559055118,
                    "duration": 0.20498100000000363
                },
                {
                    "name": "C2",
                    "midi": 36,
                    "time": 133.67323462500102,
                    "velocity": 0.3228346456692913,
                    "duration": 0.07686787500000491
                },
                {
                    "name": "D#3",
                    "midi": 51,
                    "time": 133.75010250000102,
                    "velocity": 0.4251968503937008,
                    "duration": 1.2298859999999934
                },
                {
                    "name": "A#2",
                    "midi": 46,
                    "time": 134.979988500001,
                    "velocity": 0.3464566929133858,
                    "duration": 0.15373575000000983
                },
                {
                    "name": "C3",
                    "midi": 48,
                    "time": 135.13372425000102,
                    "velocity": 0.3700787401574803,
                    "duration": 0.15373575000000983
                },
                {
                    "name": "D3",
                    "midi": 50,
                    "time": 135.28746000000103,
                    "velocity": 0.3937007874015748,
                    "duration": 0.15373575000000983
                },
                {
                    "name": "D#3",
                    "midi": 51,
                    "time": 135.44119575000104,
                    "velocity": 0.41732283464566927,
                    "duration": 0.15373575000000983
                },
                {
                    "name": "C#2",
                    "midi": 37,
                    "time": 135.51806362500105,
                    "velocity": 0.3464566929133858,
                    "duration": 0.07686787500000491
                },
                {
                    "name": "E3",
                    "midi": 52,
                    "time": 135.59493150000105,
                    "velocity": 0.49606299212598426,
                    "duration": 0.6149430000000109
                },
                {
                    "name": "D2",
                    "midi": 38,
                    "time": 136.13300662500106,
                    "velocity": 0.30708661417322836,
                    "duration": 0.07686787500000491
                },
                {
                    "name": "F3",
                    "midi": 53,
                    "time": 136.20987450000106,
                    "velocity": 0.4409448818897638,
                    "duration": 0.6149430000000109
                },
                {
                    "name": "A#2",
                    "midi": 46,
                    "time": 136.82481750000107,
                    "velocity": 0.4566929133858268,
                    "duration": 0.07686787500000491
                },
                {
                    "name": "D2",
                    "midi": 38,
                    "time": 136.82481750000107,
                    "velocity": 0.33070866141732286,
                    "duration": 0.6149429999999825
                },
                {
                    "name": "C3",
                    "midi": 48,
                    "time": 136.90168537500108,
                    "velocity": 0.3700787401574803,
                    "duration": 0.07686787500000491
                },
                {
                    "name": "A#2",
                    "midi": 46,
                    "time": 136.97855325000108,
                    "velocity": 0.44881889763779526,
                    "duration": 0.07686787500000491
                },
                {
                    "name": "C3",
                    "midi": 48,
                    "time": 137.0554211250011,
                    "velocity": 0.4015748031496063,
                    "duration": 0.07686787500000491
                },
                {
                    "name": "A#2",
                    "midi": 46,
                    "time": 137.1322890000011,
                    "velocity": 0.4094488188976378,
                    "duration": 0.1024904999999876
                },
                {
                    "name": "A2",
                    "midi": 45,
                    "time": 137.23477950000108,
                    "velocity": 0.4566929133858268,
                    "duration": 0.1024904999999876
                },
                {
                    "name": "A#2",
                    "midi": 46,
                    "time": 137.33727000000107,
                    "velocity": 0.4015748031496063,
                    "duration": 1.332376499999981
                },
                {
                    "name": "D#2",
                    "midi": 39,
                    "time": 137.43976050000106,
                    "velocity": 0.4330708661417323,
                    "duration": 1.2298859999999934
                },
                {
                    "name": "G3",
                    "midi": 55,
                    "time": 138.66964650000105,
                    "velocity": 0.3937007874015748,
                    "duration": 0.6149429999999825
                },
                {
                    "name": "A#3",
                    "midi": 58,
                    "time": 138.97711800000104,
                    "velocity": 0.3464566929133858,
                    "duration": 0.30747149999999124
                },
                {
                    "name": "D#4",
                    "midi": 63,
                    "time": 139.28458950000103,
                    "velocity": 0.3937007874015748,
                    "duration": 0.30747149999999124
                },
                {
                    "name": "D#3",
                    "midi": 51,
                    "time": 139.28458950000103,
                    "velocity": 0.33070866141732286,
                    "duration": 1.229885999999965
                },
                {
                    "name": "G4",
                    "midi": 67,
                    "time": 139.59206100000102,
                    "velocity": 0.2677165354330709,
                    "duration": 0.30747149999999124
                },
                {
                    "name": "G#4",
                    "midi": 68,
                    "time": 139.89953250000102,
                    "velocity": 0.2992125984251969,
                    "duration": 0.30747149999999124
                },
                {
                    "name": "G4",
                    "midi": 67,
                    "time": 140.207004000001,
                    "velocity": 0.25984251968503935,
                    "duration": 0.30747149999999124
                },
                {
                    "name": "G3",
                    "midi": 55,
                    "time": 140.514475500001,
                    "velocity": 0.2755905511811024,
                    "duration": 0.6149429999999825
                },
                {
                    "name": "D#4",
                    "midi": 63,
                    "time": 140.514475500001,
                    "velocity": 0.33070866141732286,
                    "duration": 0.30747149999999124
                },
                {
                    "name": "C4",
                    "midi": 60,
                    "time": 140.821947000001,
                    "velocity": 0.30708661417322836,
                    "duration": 0.30747149999999124
                },
                {
                    "name": "A#3",
                    "midi": 58,
                    "time": 141.12941850000098,
                    "velocity": 0.3464566929133858,
                    "duration": 0.30747149999999124
                },
                {
                    "name": "G2",
                    "midi": 43,
                    "time": 141.12941850000098,
                    "velocity": 0.29133858267716534,
                    "duration": 1.229885999999965
                },
                {
                    "name": "D4",
                    "midi": 62,
                    "time": 141.43689000000097,
                    "velocity": 0.2677165354330709,
                    "duration": 0.30747149999999124
                },
                {
                    "name": "D#4",
                    "midi": 63,
                    "time": 141.74436150000096,
                    "velocity": 0.29133858267716534,
                    "duration": 0.30747149999999124
                },
                {
                    "name": "D4",
                    "midi": 62,
                    "time": 142.05183300000095,
                    "velocity": 0.25196850393700787,
                    "duration": 0.30747149999999124
                },
                {
                    "name": "A#3",
                    "midi": 58,
                    "time": 142.35930450000095,
                    "velocity": 0.3228346456692913,
                    "duration": 0.30747149999999124
                },
                {
                    "name": "G3",
                    "midi": 55,
                    "time": 142.35930450000095,
                    "velocity": 0.3228346456692913,
                    "duration": 0.30747149999999124
                },
                {
                    "name": "G3",
                    "midi": 55,
                    "time": 142.66677600000094,
                    "velocity": 0.28346456692913385,
                    "duration": 0.30747149999999124
                },
                {
                    "name": "D#4",
                    "midi": 63,
                    "time": 142.97424750000093,
                    "velocity": 0.33070866141732286,
                    "duration": 0.30747149999999124
                },
                {
                    "name": "C3",
                    "midi": 48,
                    "time": 142.97424750000093,
                    "velocity": 0.2755905511811024,
                    "duration": 1.229885999999965
                },
                {
                    "name": "G4",
                    "midi": 67,
                    "time": 143.28171900000092,
                    "velocity": 0.2677165354330709,
                    "duration": 0.30747149999999124
                },
                {
                    "name": "G#4",
                    "midi": 68,
                    "time": 143.5891905000009,
                    "velocity": 0.28346456692913385,
                    "duration": 0.30747149999999124
                },
                {
                    "name": "G4",
                    "midi": 67,
                    "time": 143.8966620000009,
                    "velocity": 0.2677165354330709,
                    "duration": 0.30747149999999124
                },
                {
                    "name": "G3",
                    "midi": 55,
                    "time": 144.2041335000009,
                    "velocity": 0.31496062992125984,
                    "duration": 0.6149429999999825
                },
                {
                    "name": "D#4",
                    "midi": 63,
                    "time": 144.2041335000009,
                    "velocity": 0.31496062992125984,
                    "duration": 0.30747149999999124
                },
                {
                    "name": "C4",
                    "midi": 60,
                    "time": 144.51160500000088,
                    "velocity": 0.28346456692913385,
                    "duration": 0.30747149999999124
                },
                {
                    "name": "A#3",
                    "midi": 58,
                    "time": 144.81907650000088,
                    "velocity": 0.3228346456692913,
                    "duration": 0.30747149999999124
                },
                {
                    "name": "G2",
                    "midi": 43,
                    "time": 144.81907650000088,
                    "velocity": 0.3228346456692913,
                    "duration": 1.229885999999965
                },
                {
                    "name": "D4",
                    "midi": 62,
                    "time": 145.12654800000087,
                    "velocity": 0.2677165354330709,
                    "duration": 0.30747149999999124
                },
                {
                    "name": "D#4",
                    "midi": 63,
                    "time": 145.43401950000086,
                    "velocity": 0.3228346456692913,
                    "duration": 0.30747149999999124
                },
                {
                    "name": "D4",
                    "midi": 62,
                    "time": 145.74149100000085,
                    "velocity": 0.29133858267716534,
                    "duration": 0.30747149999999124
                },
                {
                    "name": "G3",
                    "midi": 55,
                    "time": 146.04896250000084,
                    "velocity": 0.29133858267716534,
                    "duration": 0.6149429999999825
                },
                {
                    "name": "A#3",
                    "midi": 58,
                    "time": 146.04896250000084,
                    "velocity": 0.3464566929133858,
                    "duration": 0.30747149999999124
                },
                {
                    "name": "A3",
                    "midi": 57,
                    "time": 146.35643400000083,
                    "velocity": 0.3464566929133858,
                    "duration": 0.30747149999999124
                },
                {
                    "name": "C3",
                    "midi": 48,
                    "time": 146.66390550000082,
                    "velocity": 0.2283464566929134,
                    "duration": 1.229885999999965
                },
                {
                    "name": "G3",
                    "midi": 55,
                    "time": 146.66390550000082,
                    "velocity": 0.2755905511811024,
                    "duration": 0.30747149999999124
                },
                {
                    "name": "F3",
                    "midi": 53,
                    "time": 146.9713770000008,
                    "velocity": 0.28346456692913385,
                    "duration": 0.30747149999999124
                },
                {
                    "name": "E3",
                    "midi": 52,
                    "time": 147.2788485000008,
                    "velocity": 0.2992125984251969,
                    "duration": 0.30747149999999124
                },
                {
                    "name": "D3",
                    "midi": 50,
                    "time": 147.5863200000008,
                    "velocity": 0.3228346456692913,
                    "duration": 0.30747149999999124
                },
                {
                    "name": "C2",
                    "midi": 36,
                    "time": 147.8937915000008,
                    "velocity": 0.29133858267716534,
                    "duration": 1.8448289999999474
                },
                {
                    "name": "C3",
                    "midi": 48,
                    "time": 147.8937915000008,
                    "velocity": 0.3464566929133858,
                    "duration": 0.30747149999999124
                },
                {
                    "name": "A#2",
                    "midi": 46,
                    "time": 148.20126300000078,
                    "velocity": 0.3543307086614173,
                    "duration": 0.30747149999999124
                },
                {
                    "name": "A2",
                    "midi": 45,
                    "time": 148.50873450000077,
                    "velocity": 0.3700787401574803,
                    "duration": 0.30747149999999124
                },
                {
                    "name": "A#2",
                    "midi": 46,
                    "time": 148.81620600000076,
                    "velocity": 0.3543307086614173,
                    "duration": 0.30747149999999124
                },
                {
                    "name": "C3",
                    "midi": 48,
                    "time": 149.12367750000075,
                    "velocity": 0.33070866141732286,
                    "duration": 0.30747149999999124
                },
                {
                    "name": "D3",
                    "midi": 50,
                    "time": 149.43114900000074,
                    "velocity": 0.3228346456692913,
                    "duration": 0.30747149999999124
                },
                {
                    "name": "C2",
                    "midi": 36,
                    "time": 149.73862050000074,
                    "velocity": 0.25196850393700787,
                    "duration": 0.6149429999999825
                },
                {
                    "name": "E3",
                    "midi": 52,
                    "time": 149.73862050000074,
                    "velocity": 0.2992125984251969,
                    "duration": 0.30747149999999124
                },
                {
                    "name": "F3",
                    "midi": 53,
                    "time": 150.04609200000073,
                    "velocity": 0.29133858267716534,
                    "duration": 0.30747149999999124
                },
                {
                    "name": "C3",
                    "midi": 48,
                    "time": 150.35356350000072,
                    "velocity": 0.2283464566929134,
                    "duration": 1.229885999999965
                },
                {
                    "name": "G3",
                    "midi": 55,
                    "time": 150.35356350000072,
                    "velocity": 0.2755905511811024,
                    "duration": 0.30747149999999124
                },
                {
                    "name": "A3",
                    "midi": 57,
                    "time": 150.6610350000007,
                    "velocity": 0.2755905511811024,
                    "duration": 0.30747149999999124
                },
                {
                    "name": "A#3",
                    "midi": 58,
                    "time": 150.9685065000007,
                    "velocity": 0.28346456692913385,
                    "duration": 0.30747149999999124
                },
                {
                    "name": "B3",
                    "midi": 59,
                    "time": 151.2759780000007,
                    "velocity": 0.25984251968503935,
                    "duration": 0.30747149999999124
                },
                {
                    "name": "C4",
                    "midi": 60,
                    "time": 151.58344950000068,
                    "velocity": 0.30708661417322836,
                    "duration": 0.30747149999999124
                },
                {
                    "name": "C3",
                    "midi": 48,
                    "time": 151.58344950000068,
                    "velocity": 0.25984251968503935,
                    "duration": 1.8448290000000043
                },
                {
                    "name": "A#3",
                    "midi": 58,
                    "time": 151.89092100000067,
                    "velocity": 0.2677165354330709,
                    "duration": 0.30747149999999124
                },
                {
                    "name": "A3",
                    "midi": 57,
                    "time": 152.19839250000066,
                    "velocity": 0.2755905511811024,
                    "duration": 0.30747149999999124
                },
                {
                    "name": "G#3",
                    "midi": 56,
                    "time": 152.50586400000066,
                    "velocity": 0.2204724409448819,
                    "duration": 0.30747149999999124
                },
                {
                    "name": "G3",
                    "midi": 55,
                    "time": 152.81333550000065,
                    "velocity": 0.2204724409448819,
                    "duration": 0.15373575000000983
                },
                {
                    "name": "F#3",
                    "midi": 54,
                    "time": 152.96707125000066,
                    "velocity": 0.1968503937007874,
                    "duration": 0.15373575000000983
                },
                {
                    "name": "F3",
                    "midi": 53,
                    "time": 153.12080700000067,
                    "velocity": 0.2204724409448819,
                    "duration": 0.15373575000000983
                },
                {
                    "name": "D#3",
                    "midi": 51,
                    "time": 153.27454275000068,
                    "velocity": 0.1889763779527559,
                    "duration": 0.11530181250000737
                },
                {
                    "name": "D3",
                    "midi": 50,
                    "time": 153.4282785000007,
                    "velocity": 0.2755905511811024,
                    "duration": 0.6149429999999825
                },
                {
                    "name": "F3",
                    "midi": 53,
                    "time": 153.73575000000068,
                    "velocity": 0.2755905511811024,
                    "duration": 0.30747149999999124
                },
                {
                    "name": "A#3",
                    "midi": 58,
                    "time": 154.04322150000067,
                    "velocity": 0.28346456692913385,
                    "duration": 0.30747149999999124
                },
                {
                    "name": "A#2",
                    "midi": 46,
                    "time": 154.04322150000067,
                    "velocity": 0.23622047244094488,
                    "duration": 1.229885999999965
                },
                {
                    "name": "D4",
                    "midi": 62,
                    "time": 154.35069300000066,
                    "velocity": 0.2992125984251969,
                    "duration": 0.30747149999999124
                },
                {
                    "name": "D#4",
                    "midi": 63,
                    "time": 154.65816450000065,
                    "velocity": 0.3228346456692913,
                    "duration": 0.30747149999999124
                },
                {
                    "name": "D4",
                    "midi": 62,
                    "time": 154.96563600000064,
                    "velocity": 0.30708661417322836,
                    "duration": 0.30490923749999865
                },
                {
                    "name": "A#3",
                    "midi": 58,
                    "time": 155.27310750000063,
                    "velocity": 0.29133858267716534,
                    "duration": 0.30490923749999865
                },
                {
                    "name": "F3",
                    "midi": 53,
                    "time": 155.58057900000063,
                    "velocity": 0.25196850393700787,
                    "duration": 0.30747150000001966
                },
                {
                    "name": "F2",
                    "midi": 41,
                    "time": 155.73431475000064,
                    "velocity": 0.2992125984251969,
                    "duration": 1.3836217500000032
                },
                {
                    "name": "D#3",
                    "midi": 51,
                    "time": 155.88805050000065,
                    "velocity": 0.1968503937007874,
                    "duration": 1.2298859999999934
                },
                {
                    "name": "F3",
                    "midi": 53,
                    "time": 155.88805050000065,
                    "velocity": 0.23622047244094488,
                    "duration": 1.2298859999999934
                },
                {
                    "name": "D3",
                    "midi": 50,
                    "time": 157.11793650000064,
                    "velocity": 0.30708661417322836,
                    "duration": 0.30747149999999124
                },
                {
                    "name": "F3",
                    "midi": 53,
                    "time": 157.42540800000063,
                    "velocity": 0.30708661417322836,
                    "duration": 0.30747149999999124
                },
                {
                    "name": "A#3",
                    "midi": 58,
                    "time": 157.73287950000062,
                    "velocity": 0.3228346456692913,
                    "duration": 0.30747149999999124
                },
                {
                    "name": "A#2",
                    "midi": 46,
                    "time": 157.73287950000062,
                    "velocity": 0.5826771653543307,
                    "duration": 1.229885999999965
                },
                {
                    "name": "D4",
                    "midi": 62,
                    "time": 158.0403510000006,
                    "velocity": 0.33858267716535434,
                    "duration": 0.30747149999999124
                },
                {
                    "name": "D#4",
                    "midi": 63,
                    "time": 158.3478225000006,
                    "velocity": 0.36220472440944884,
                    "duration": 0.30747149999999124
                },
                {
                    "name": "D4",
                    "midi": 62,
                    "time": 158.6552940000006,
                    "velocity": 0.3464566929133858,
                    "duration": 0.30490923749999865
                },
                {
                    "name": "A#2",
                    "midi": 46,
                    "time": 158.9627655000006,
                    "velocity": 0.5511811023622047,
                    "duration": 0.30747149999999124
                },
                {
                    "name": "A#3",
                    "midi": 58,
                    "time": 158.9627655000006,
                    "velocity": 0.33070866141732286,
                    "duration": 0.30490923749999865
                },
                {
                    "name": "D3",
                    "midi": 50,
                    "time": 159.27023700000058,
                    "velocity": 0.5196850393700787,
                    "duration": 0.30747150000001966
                },
                {
                    "name": "F3",
                    "midi": 53,
                    "time": 159.27023700000058,
                    "velocity": 0.28346456692913385,
                    "duration": 0.30747150000001966
                },
                {
                    "name": "F2",
                    "midi": 41,
                    "time": 159.4239727500006,
                    "velocity": 0.33858267716535434,
                    "duration": 0.46120725000000107
                },
                {
                    "name": "F3",
                    "midi": 53,
                    "time": 159.5777085000006,
                    "velocity": 0.3543307086614173,
                    "duration": 1.229885999999965
                },
                {
                    "name": "D#3",
                    "midi": 51,
                    "time": 159.5777085000006,
                    "velocity": 0.2204724409448819,
                    "duration": 1.229885999999965
                },
                {
                    "name": "G2",
                    "midi": 43,
                    "time": 159.8851800000006,
                    "velocity": 0.41732283464566927,
                    "duration": 0.30747149999999124
                },
                {
                    "name": "A#2",
                    "midi": 46,
                    "time": 160.19265150000058,
                    "velocity": 0.4645669291338583,
                    "duration": 0.30747149999999124
                },
                {
                    "name": "A2",
                    "midi": 45,
                    "time": 160.50012300000057,
                    "velocity": 0.4251968503937008,
                    "duration": 0.30747149999999124
                },
                {
                    "name": "G#2",
                    "midi": 44,
                    "time": 160.80759450000056,
                    "velocity": 0.2440944881889764,
                    "duration": 0.30747149999999124
                },
                {
                    "name": "D3",
                    "midi": 50,
                    "time": 160.80759450000056,
                    "velocity": 0.3464566929133858,
                    "duration": 0.30747149999999124
                },
                {
                    "name": "D#3",
                    "midi": 51,
                    "time": 161.11506600000055,
                    "velocity": 0.3700787401574803,
                    "duration": 0.30747149999999124
                },
                {
                    "name": "G2",
                    "midi": 43,
                    "time": 161.11506600000055,
                    "velocity": 0.25984251968503935,
                    "duration": 0.30747149999999124
                },
                {
                    "name": "F2",
                    "midi": 41,
                    "time": 161.42253750000054,
                    "velocity": 0.2677165354330709,
                    "duration": 0.5380751249999776
                },
                {
                    "name": "F3",
                    "midi": 53,
                    "time": 161.42253750000054,
                    "velocity": 0.3779527559055118,
                    "duration": 0.30747149999999124
                },
                {
                    "name": "G3",
                    "midi": 55,
                    "time": 161.73000900000054,
                    "velocity": 0.4015748031496063,
                    "duration": 0.30747149999999124
                },
                {
                    "name": "D#2",
                    "midi": 39,
                    "time": 161.96061262500052,
                    "velocity": 0.3543307086614173,
                    "duration": 0.6149429999999825
                },
                {
                    "name": "G#3",
                    "midi": 56,
                    "time": 162.03748050000053,
                    "velocity": 0.4251968503937008,
                    "duration": 0.30747149999999124
                },
                {
                    "name": "A#3",
                    "midi": 58,
                    "time": 162.34495200000052,
                    "velocity": 0.4330708661417323,
                    "duration": 0.30747149999999124
                },
                {
                    "name": "D2",
                    "midi": 38,
                    "time": 162.5755556250005,
                    "velocity": 0.3464566929133858,
                    "duration": 0.6918108749999874
                },
                {
                    "name": "B3",
                    "midi": 59,
                    "time": 162.6524235000005,
                    "velocity": 0.44881889763779526,
                    "duration": 0.30747149999999124
                },
                {
                    "name": "G3",
                    "midi": 55,
                    "time": 162.9598950000005,
                    "velocity": 0.4566929133858268,
                    "duration": 0.30747149999999124
                },
                {
                    "name": "C2",
                    "midi": 36,
                    "time": 163.2673665000005,
                    "velocity": 0.30708661417322836,
                    "duration": 0.30747149999999124
                },
                {
                    "name": "C4",
                    "midi": 60,
                    "time": 163.2673665000005,
                    "velocity": 0.4330708661417323,
                    "duration": 0.30747149999999124
                },
                {
                    "name": "G3",
                    "midi": 55,
                    "time": 163.57483800000048,
                    "velocity": 0.4251968503937008,
                    "duration": 0.30747149999999124
                },
                {
                    "name": "G2",
                    "midi": 43,
                    "time": 163.57483800000048,
                    "velocity": 0.2992125984251969,
                    "duration": 0.30747149999999124
                },
                {
                    "name": "E3",
                    "midi": 52,
                    "time": 163.88230950000047,
                    "velocity": 0.4094488188976378,
                    "duration": 0.30747149999999124
                },
                {
                    "name": "C3",
                    "midi": 48,
                    "time": 163.88230950000047,
                    "velocity": 0.28346456692913385,
                    "duration": 0.30747149999999124
                },
                {
                    "name": "F3",
                    "midi": 53,
                    "time": 164.18978100000047,
                    "velocity": 0.3937007874015748,
                    "duration": 0.30747149999999124
                },
                {
                    "name": "B2",
                    "midi": 47,
                    "time": 164.18978100000047,
                    "velocity": 0.2755905511811024,
                    "duration": 0.30747149999999124
                },
                {
                    "name": "A#2",
                    "midi": 46,
                    "time": 164.49725250000046,
                    "velocity": 0.2677165354330709,
                    "duration": 0.30747149999999124
                },
                {
                    "name": "E3",
                    "midi": 52,
                    "time": 164.49725250000046,
                    "velocity": 0.3858267716535433,
                    "duration": 0.30747149999999124
                },
                {
                    "name": "F3",
                    "midi": 53,
                    "time": 164.80472400000045,
                    "velocity": 0.3700787401574803,
                    "duration": 0.30747149999999124
                },
                {
                    "name": "A2",
                    "midi": 45,
                    "time": 164.80472400000045,
                    "velocity": 0.25984251968503935,
                    "duration": 0.30747149999999124
                },
                {
                    "name": "G2",
                    "midi": 43,
                    "time": 165.11219550000044,
                    "velocity": 0.2677165354330709,
                    "duration": 0.5380751249999776
                },
                {
                    "name": "G3",
                    "midi": 55,
                    "time": 165.11219550000044,
                    "velocity": 0.3779527559055118,
                    "duration": 0.30747149999999124
                },
                {
                    "name": "A3",
                    "midi": 57,
                    "time": 165.41966700000043,
                    "velocity": 0.3937007874015748,
                    "duration": 0.30747149999999124
                },
                {
                    "name": "F2",
                    "midi": 41,
                    "time": 165.65027062500042,
                    "velocity": 0.3464566929133858,
                    "duration": 0.6149429999999825
                },
                {
                    "name": "A#3",
                    "midi": 58,
                    "time": 165.72713850000042,
                    "velocity": 0.41732283464566927,
                    "duration": 0.30747149999999124
                },
                {
                    "name": "B3",
                    "midi": 59,
                    "time": 166.0346100000004,
                    "velocity": 0.4094488188976378,
                    "duration": 0.30747149999999124
                },
                {
                    "name": "E2",
                    "midi": 40,
                    "time": 166.2652136250004,
                    "velocity": 0.3543307086614173,
                    "duration": 0.6918108749999874
                },
                {
                    "name": "C4",
                    "midi": 60,
                    "time": 166.3420815000004,
                    "velocity": 0.4094488188976378,
                    "duration": 0.30747149999999124
                },
                {
                    "name": "A#3",
                    "midi": 58,
                    "time": 166.6495530000004,
                    "velocity": 0.4409448818897638,
                    "duration": 0.30747149999999124
                },
                {
                    "name": "F2",
                    "midi": 41,
                    "time": 166.9570245000004,
                    "velocity": 0.30708661417322836,
                    "duration": 0.30747149999999124
                },
                {
                    "name": "A3",
                    "midi": 57,
                    "time": 166.9570245000004,
                    "velocity": 0.4330708661417323,
                    "duration": 0.30747149999999124
                },
                {
                    "name": "G2",
                    "midi": 43,
                    "time": 167.26449600000038,
                    "velocity": 0.2992125984251969,
                    "duration": 0.30747149999999124
                },
                {
                    "name": "G3",
                    "midi": 55,
                    "time": 167.26449600000038,
                    "velocity": 0.4251968503937008,
                    "duration": 0.30747149999999124
                },
                {
                    "name": "G#2",
                    "midi": 44,
                    "time": 167.57196750000037,
                    "velocity": 0.28346456692913385,
                    "duration": 0.30747149999999124
                },
                {
                    "name": "F3",
                    "midi": 53,
                    "time": 167.57196750000037,
                    "velocity": 0.4094488188976378,
                    "duration": 0.30747149999999124
                },
                {
                    "name": "D#3",
                    "midi": 51,
                    "time": 167.87943900000036,
                    "velocity": 0.3937007874015748,
                    "duration": 0.30747149999999124
                },
                {
                    "name": "A2",
                    "midi": 45,
                    "time": 167.87943900000036,
                    "velocity": 0.2755905511811024,
                    "duration": 0.30747149999999124
                },
                {
                    "name": "D3",
                    "midi": 50,
                    "time": 168.18691050000035,
                    "velocity": 0.29133858267716534,
                    "duration": 0.30747149999999124
                },
                {
                    "name": "A#2",
                    "midi": 46,
                    "time": 168.18691050000035,
                    "velocity": 0.2677165354330709,
                    "duration": 0.6149429999999825
                },
                {
                    "name": "F3",
                    "midi": 53,
                    "time": 168.49438200000034,
                    "velocity": 0.31496062992125984,
                    "duration": 0.30747149999999124
                },
                {
                    "name": "A#1",
                    "midi": 34,
                    "time": 168.80185350000033,
                    "velocity": 0.36220472440944884,
                    "duration": 0.6149429999999825
                },
                {
                    "name": "A#3",
                    "midi": 58,
                    "time": 168.80185350000033,
                    "velocity": 0.33858267716535434,
                    "duration": 0.30747149999999124
                },
                {
                    "name": "A3",
                    "midi": 57,
                    "time": 169.10932500000033,
                    "velocity": 0.30708661417322836,
                    "duration": 0.30747149999999124
                },
                {
                    "name": "G3",
                    "midi": 55,
                    "time": 169.41679650000032,
                    "velocity": 0.30708661417322836,
                    "duration": 0.30747149999999124
                },
                {
                    "name": "F3",
                    "midi": 53,
                    "time": 169.7242680000003,
                    "velocity": 0.30708661417322836,
                    "duration": 0.30747149999999124
                },
                {
                    "name": "D#3",
                    "midi": 51,
                    "time": 170.0317395000003,
                    "velocity": 0.30708661417322836,
                    "duration": 0.30747149999999124
                },
                {
                    "name": "A#2",
                    "midi": 46,
                    "time": 170.0317395000003,
                    "velocity": 0.33070866141732286,
                    "duration": 0.6149429999999825
                },
                {
                    "name": "D3",
                    "midi": 50,
                    "time": 170.3392110000003,
                    "velocity": 0.3464566929133858,
                    "duration": 0.30747149999999124
                },
                {
                    "name": "A#1",
                    "midi": 34,
                    "time": 170.64668250000028,
                    "velocity": 0.4094488188976378,
                    "duration": 0.6149429999999825
                },
                {
                    "name": "C3",
                    "midi": 48,
                    "time": 170.64668250000028,
                    "velocity": 0.3779527559055118,
                    "duration": 0.30747149999999124
                },
                {
                    "name": "D3",
                    "midi": 50,
                    "time": 170.95415400000027,
                    "velocity": 0.30708661417322836,
                    "duration": 0.30747149999999124
                },
                {
                    "name": "D#3",
                    "midi": 51,
                    "time": 171.26162550000026,
                    "velocity": 0.30708661417322836,
                    "duration": 0.30747149999999124
                },
                {
                    "name": "F3",
                    "midi": 53,
                    "time": 171.56909700000026,
                    "velocity": 0.28346456692913385,
                    "duration": 0.30747149999999124
                },
                {
                    "name": "A#2",
                    "midi": 46,
                    "time": 171.87656850000025,
                    "velocity": 0.33070866141732286,
                    "duration": 0.6149429999999825
                },
                {
                    "name": "G3",
                    "midi": 55,
                    "time": 171.87656850000025,
                    "velocity": 0.30708661417322836,
                    "duration": 0.30747149999999124
                },
                {
                    "name": "G#3",
                    "midi": 56,
                    "time": 172.18404000000024,
                    "velocity": 0.3464566929133858,
                    "duration": 0.30747149999999124
                },
                {
                    "name": "A3",
                    "midi": 57,
                    "time": 172.49151150000023,
                    "velocity": 0.30708661417322836,
                    "duration": 0.30747149999999124
                },
                {
                    "name": "A#1",
                    "midi": 34,
                    "time": 172.49151150000023,
                    "velocity": 0.33070866141732286,
                    "duration": 0.6149429999999825
                },
                {
                    "name": "G3",
                    "midi": 55,
                    "time": 172.79898300000022,
                    "velocity": 0.30708661417322836,
                    "duration": 0.30747149999999124
                },
                {
                    "name": "F3",
                    "midi": 53,
                    "time": 173.1064545000002,
                    "velocity": 0.3228346456692913,
                    "duration": 0.30747149999999124
                },
                {
                    "name": "D#3",
                    "midi": 51,
                    "time": 173.4139260000002,
                    "velocity": 0.30708661417322836,
                    "duration": 0.30747149999999124
                },
                {
                    "name": "A#2",
                    "midi": 46,
                    "time": 173.7213975000002,
                    "velocity": 0.3779527559055118,
                    "duration": 0.6149429999999825
                },
                {
                    "name": "D3",
                    "midi": 50,
                    "time": 173.7213975000002,
                    "velocity": 0.3464566929133858,
                    "duration": 0.30747149999999124
                },
                {
                    "name": "C3",
                    "midi": 48,
                    "time": 174.02886900000018,
                    "velocity": 0.2992125984251969,
                    "duration": 0.30747149999999124
                },
                {
                    "name": "A#2",
                    "midi": 46,
                    "time": 174.33634050000018,
                    "velocity": 0.36220472440944884,
                    "duration": 0.30747149999999124
                },
                {
                    "name": "A#1",
                    "midi": 34,
                    "time": 174.33634050000018,
                    "velocity": 0.3937007874015748,
                    "duration": 0.6149429999999825
                },
                {
                    "name": "C3",
                    "midi": 48,
                    "time": 174.64381200000017,
                    "velocity": 0.2755905511811024,
                    "duration": 0.30747149999999124
                },
                {
                    "name": "D3",
                    "midi": 50,
                    "time": 174.95128350000016,
                    "velocity": 0.30708661417322836,
                    "duration": 0.30747149999999124
                },
                {
                    "name": "D#3",
                    "midi": 51,
                    "time": 175.25875500000015,
                    "velocity": 0.2755905511811024,
                    "duration": 0.30747149999999124
                },
                {
                    "name": "A#2",
                    "midi": 46,
                    "time": 175.56622650000014,
                    "velocity": 0.33070866141732286,
                    "duration": 0.6149429999999825
                },
                {
                    "name": "E3",
                    "midi": 52,
                    "time": 175.56622650000014,
                    "velocity": 0.30708661417322836,
                    "duration": 0.30747149999999124
                },
                {
                    "name": "F3",
                    "midi": 53,
                    "time": 175.87369800000013,
                    "velocity": 0.2755905511811024,
                    "duration": 0.30747149999999124
                },
                {
                    "name": "G3",
                    "midi": 55,
                    "time": 176.18116950000012,
                    "velocity": 0.30708661417322836,
                    "duration": 0.30747149999999124
                },
                {
                    "name": "A#1",
                    "midi": 34,
                    "time": 176.18116950000012,
                    "velocity": 0.33070866141732286,
                    "duration": 0.6149429999999825
                },
                {
                    "name": "F3",
                    "midi": 53,
                    "time": 176.48864100000011,
                    "velocity": 0.2677165354330709,
                    "duration": 0.30747149999999124
                },
                {
                    "name": "D#3",
                    "midi": 51,
                    "time": 176.7961125000001,
                    "velocity": 0.30708661417322836,
                    "duration": 0.30747149999999124
                },
                {
                    "name": "D3",
                    "midi": 50,
                    "time": 177.1035840000001,
                    "velocity": 0.2677165354330709,
                    "duration": 0.30747149999999124
                },
                {
                    "name": "A#2",
                    "midi": 46,
                    "time": 177.33418762500008,
                    "velocity": 0.25984251968503935,
                    "duration": 0.38433937499999615
                },
                {
                    "name": "C3",
                    "midi": 48,
                    "time": 177.4110555000001,
                    "velocity": 0.30708661417322836,
                    "duration": 0.30747149999999124
                },
                {
                    "name": "A#2",
                    "midi": 46,
                    "time": 177.71852700000008,
                    "velocity": 0.3543307086614173,
                    "duration": 0.30747149999999124
                },
                {
                    "name": "A2",
                    "midi": 45,
                    "time": 178.02599850000007,
                    "velocity": 0.30708661417322836,
                    "duration": 0.30747149999999124
                },
                {
                    "name": "A#1",
                    "midi": 34,
                    "time": 178.02599850000007,
                    "velocity": 0.33070866141732286,
                    "duration": 0.30747149999999124
                },
                {
                    "name": "A#2",
                    "midi": 46,
                    "time": 178.33347000000006,
                    "velocity": 0.2992125984251969,
                    "duration": 2.7672434999999496
                },
                {
                    "name": "C3",
                    "midi": 48,
                    "time": 178.64094150000005,
                    "velocity": 0.28346456692913385,
                    "duration": 0.30747149999999124
                },
                {
                    "name": "C#3",
                    "midi": 49,
                    "time": 178.94841300000004,
                    "velocity": 0.2755905511811024,
                    "duration": 0.30747149999999124
                },
                {
                    "name": "D3",
                    "midi": 50,
                    "time": 179.25588450000004,
                    "velocity": 0.2992125984251969,
                    "duration": 0.30747149999999124
                },
                {
                    "name": "D#3",
                    "midi": 51,
                    "time": 179.56335600000003,
                    "velocity": 0.2677165354330709,
                    "duration": 0.30747149999999124
                },
                {
                    "name": "F3",
                    "midi": 53,
                    "time": 179.87082750000002,
                    "velocity": 0.2755905511811024,
                    "duration": 0.30747149999999124
                },
                {
                    "name": "G3",
                    "midi": 55,
                    "time": 180.178299,
                    "velocity": 0.25984251968503935,
                    "duration": 0.30747149999999124
                },
                {
                    "name": "A3",
                    "midi": 57,
                    "time": 180.408902625,
                    "velocity": 0.31496062992125984,
                    "duration": 0.07686787500000491
                },
                {
                    "name": "D4",
                    "midi": 62,
                    "time": 181.25444925000002,
                    "velocity": 0.28346456692913385,
                    "duration": 0.15373575000000983
                },
                {
                    "name": "D#4",
                    "midi": 63,
                    "time": 181.40818500000003,
                    "velocity": 0.2440944881889764,
                    "duration": 0.15373575000000983
                },
                {
                    "name": "F4",
                    "midi": 65,
                    "time": 181.56192075000004,
                    "velocity": 0.2677165354330709,
                    "duration": 0.15373575000000983
                },
                {
                    "name": "F#4",
                    "midi": 66,
                    "time": 181.71565650000005,
                    "velocity": 0.2992125984251969,
                    "duration": 1.2298859999999934
                },
                {
                    "name": "A#3",
                    "midi": 58,
                    "time": 181.71565650000005,
                    "velocity": 0.1732283464566929,
                    "duration": 1.2298859999999934
                },
                {
                    "name": "A3",
                    "midi": 57,
                    "time": 182.94554250000004,
                    "velocity": 0.2204724409448819,
                    "duration": 0.6149430000000109
                },
                {
                    "name": "F4",
                    "midi": 65,
                    "time": 182.94554250000004,
                    "velocity": 0.2677165354330709,
                    "duration": 0.6149430000000109
                },
                {
                    "name": "A#1",
                    "midi": 34,
                    "time": 183.48361762500005,
                    "velocity": 0.25984251968503935,
                    "duration": 0.999282375000007
                },
                {
                    "name": "D3",
                    "midi": 50,
                    "time": 183.56048550000006,
                    "velocity": 0.31496062992125984,
                    "duration": 0.9224145000000021
                },
                {
                    "name": "G1",
                    "midi": 31,
                    "time": 184.79037150000005,
                    "velocity": 0.23622047244094488,
                    "duration": 1.2298859999999934
                },
                {
                    "name": "G2",
                    "midi": 43,
                    "time": 184.79037150000005,
                    "velocity": 0.28346456692913385,
                    "duration": 1.2298859999999934
                },
                {
                    "name": "A1",
                    "midi": 33,
                    "time": 186.02025750000004,
                    "velocity": 0.2125984251968504,
                    "duration": 0.46120725000000107
                },
                {
                    "name": "A2",
                    "midi": 45,
                    "time": 186.02025750000004,
                    "velocity": 0.25984251968503935,
                    "duration": 0.46120725000000107
                },
                {
                    "name": "G1",
                    "midi": 31,
                    "time": 186.48146475000004,
                    "velocity": 0.2047244094488189,
                    "duration": 0.15373575000000983
                },
                {
                    "name": "G2",
                    "midi": 43,
                    "time": 186.48146475000004,
                    "velocity": 0.2440944881889764,
                    "duration": 0.15373575000000983
                },
                {
                    "name": "F#1",
                    "midi": 30,
                    "time": 186.63520050000005,
                    "velocity": 0.23622047244094488,
                    "duration": 0.6149430000000109
                },
                {
                    "name": "F#2",
                    "midi": 42,
                    "time": 186.63520050000005,
                    "velocity": 0.28346456692913385,
                    "duration": 0.6149430000000109
                },
                {
                    "name": "A1",
                    "midi": 33,
                    "time": 187.25014350000006,
                    "velocity": 0.23622047244094488,
                    "duration": 0.6149430000000109
                },
                {
                    "name": "A2",
                    "midi": 45,
                    "time": 187.25014350000006,
                    "velocity": 0.28346456692913385,
                    "duration": 0.6149430000000109
                },
                {
                    "name": "G2",
                    "midi": 43,
                    "time": 187.86508650000007,
                    "velocity": 0.2283464566929134,
                    "duration": 0.6149430000000109
                },
                {
                    "name": "G1",
                    "midi": 31,
                    "time": 187.86508650000007,
                    "velocity": 0.1889763779527559,
                    "duration": 0.6149430000000109
                },
                {
                    "name": "D#2",
                    "midi": 39,
                    "time": 188.4800295000001,
                    "velocity": 0.28346456692913385,
                    "duration": 1.2298859999999934
                },
                {
                    "name": "D#1",
                    "midi": 27,
                    "time": 188.4800295000001,
                    "velocity": 0.23622047244094488,
                    "duration": 1.2298859999999934
                },
                {
                    "name": "F1",
                    "midi": 29,
                    "time": 189.70991550000008,
                    "velocity": 0.2125984251968504,
                    "duration": 0.46120725000000107
                },
                {
                    "name": "F2",
                    "midi": 41,
                    "time": 189.70991550000008,
                    "velocity": 0.25984251968503935,
                    "duration": 0.46120725000000107
                },
                {
                    "name": "D#1",
                    "midi": 27,
                    "time": 190.17112275000008,
                    "velocity": 0.2047244094488189,
                    "duration": 0.15373575000000983
                },
                {
                    "name": "D#2",
                    "midi": 39,
                    "time": 190.17112275000008,
                    "velocity": 0.2440944881889764,
                    "duration": 0.15373575000000983
                },
                {
                    "name": "D1",
                    "midi": 26,
                    "time": 190.3248585000001,
                    "velocity": 0.23622047244094488,
                    "duration": 0.6149430000000109
                },
                {
                    "name": "D2",
                    "midi": 38,
                    "time": 190.3248585000001,
                    "velocity": 0.28346456692913385,
                    "duration": 0.6149430000000109
                },
                {
                    "name": "F1",
                    "midi": 29,
                    "time": 190.9398015000001,
                    "velocity": 0.23622047244094488,
                    "duration": 0.6149430000000109
                },
                {
                    "name": "F2",
                    "midi": 41,
                    "time": 190.9398015000001,
                    "velocity": 0.28346456692913385,
                    "duration": 0.6149430000000109
                },
                {
                    "name": "D#2",
                    "midi": 39,
                    "time": 191.5547445000001,
                    "velocity": 0.2283464566929134,
                    "duration": 0.6149430000000109
                },
                {
                    "name": "D#1",
                    "midi": 27,
                    "time": 191.5547445000001,
                    "velocity": 0.1889763779527559,
                    "duration": 0.6149430000000109
                },
                {
                    "name": "C1",
                    "midi": 24,
                    "time": 192.16968750000012,
                    "velocity": 0.25984251968503935,
                    "duration": 1.2298859999999934
                },
                {
                    "name": "C2",
                    "midi": 36,
                    "time": 192.16968750000012,
                    "velocity": 0.30708661417322836,
                    "duration": 1.2298859999999934
                },
                {
                    "name": "D2",
                    "midi": 38,
                    "time": 193.39957350000012,
                    "velocity": 0.28346456692913385,
                    "duration": 0.46120725000000107
                },
                {
                    "name": "D1",
                    "midi": 26,
                    "time": 193.39957350000012,
                    "velocity": 0.2283464566929134,
                    "duration": 0.46120725000000107
                },
                {
                    "name": "F#2",
                    "midi": 42,
                    "time": 193.86078075000012,
                    "velocity": 0.2677165354330709,
                    "duration": 0.15373575000000983
                },
                {
                    "name": "F#1",
                    "midi": 30,
                    "time": 193.86078075000012,
                    "velocity": 0.2204724409448819,
                    "duration": 0.15373575000000983
                },
                {
                    "name": "A2",
                    "midi": 45,
                    "time": 194.01451650000013,
                    "velocity": 0.3937007874015748,
                    "duration": 1.2298859999999934
                },
                {
                    "name": "A1",
                    "midi": 33,
                    "time": 194.01451650000013,
                    "velocity": 0.33070866141732286,
                    "duration": 1.2298859999999934
                },
                {
                    "name": "D3",
                    "midi": 50,
                    "time": 195.24440250000012,
                    "velocity": 0.3700787401574803,
                    "duration": 0.46120725000000107
                },
                {
                    "name": "D2",
                    "midi": 38,
                    "time": 195.24440250000012,
                    "velocity": 0.30708661417322836,
                    "duration": 0.46120725000000107
                },
                {
                    "name": "F#2",
                    "midi": 42,
                    "time": 195.70560975000012,
                    "velocity": 0.28346456692913385,
                    "duration": 0.15373575000000983
                },
                {
                    "name": "F#3",
                    "midi": 54,
                    "time": 195.70560975000012,
                    "velocity": 0.33070866141732286,
                    "duration": 0.15373575000000983
                },
                {
                    "name": "A2",
                    "midi": 45,
                    "time": 195.85934550000013,
                    "velocity": 0.2992125984251969,
                    "duration": 0.46120725000000107
                },
                {
                    "name": "A3",
                    "midi": 57,
                    "time": 195.85934550000013,
                    "velocity": 0.36220472440944884,
                    "duration": 0.46120725000000107
                },
                {
                    "name": "C#4",
                    "midi": 61,
                    "time": 196.32055275000013,
                    "velocity": 0.4330708661417323,
                    "duration": 0.15373575000000983
                },
                {
                    "name": "C#3",
                    "midi": 49,
                    "time": 196.32055275000013,
                    "velocity": 0.36220472440944884,
                    "duration": 0.15373575000000983
                },
                {
                    "name": "D3",
                    "midi": 50,
                    "time": 196.47428850000014,
                    "velocity": 0.3858267716535433,
                    "duration": 0.30747149999999124
                },
                {
                    "name": "D4",
                    "midi": 62,
                    "time": 196.47428850000014,
                    "velocity": 0.4566929133858268,
                    "duration": 0.30747149999999124
                },
                {
                    "name": "D4",
                    "midi": 62,
                    "time": 197.08923150000012,
                    "velocity": 0.4094488188976378,
                    "duration": 0.46120725000000107
                },
                {
                    "name": "D3",
                    "midi": 50,
                    "time": 197.08923150000012,
                    "velocity": 0.3464566929133858,
                    "duration": 0.46120725000000107
                },
                {
                    "name": "F#3",
                    "midi": 54,
                    "time": 197.55043875000013,
                    "velocity": 0.3858267716535433,
                    "duration": 0.15373575000000983
                },
                {
                    "name": "F#4",
                    "midi": 66,
                    "time": 197.55043875000013,
                    "velocity": 0.4645669291338583,
                    "duration": 0.15373575000000983
                },
                {
                    "name": "A3",
                    "midi": 57,
                    "time": 197.70417450000014,
                    "velocity": 0.4015748031496063,
                    "duration": 0.46120725000000107
                },
                {
                    "name": "A4",
                    "midi": 69,
                    "time": 197.70417450000014,
                    "velocity": 0.48031496062992124,
                    "duration": 0.46120725000000107
                },
                {
                    "name": "C#4",
                    "midi": 61,
                    "time": 198.16538175000014,
                    "velocity": 0.44881889763779526,
                    "duration": 0.15373575000000983
                },
                {
                    "name": "C#5",
                    "midi": 73,
                    "time": 198.16538175000014,
                    "velocity": 0.5354330708661418,
                    "duration": 0.15373575000000983
                },
                {
                    "name": "D4",
                    "midi": 62,
                    "time": 198.31911750000015,
                    "velocity": 0.4645669291338583,
                    "duration": 0.30747149999999124
                },
                {
                    "name": "D5",
                    "midi": 74,
                    "time": 198.31911750000015,
                    "velocity": 0.5511811023622047,
                    "duration": 0.30747149999999124
                },
                {
                    "name": "D5",
                    "midi": 74,
                    "time": 198.93406050000013,
                    "velocity": 0.5590551181102362,
                    "duration": 0.46120725000000107
                },
                {
                    "name": "A4",
                    "midi": 69,
                    "time": 198.93406050000013,
                    "velocity": 0.47244094488188976,
                    "duration": 0.46120725000000107
                },
                {
                    "name": "D4",
                    "midi": 62,
                    "time": 198.93406050000013,
                    "velocity": 0.47244094488188976,
                    "duration": 0.46120725000000107
                },
                {
                    "name": "G2",
                    "midi": 43,
                    "time": 199.54900350000014,
                    "velocity": 0.28346456692913385,
                    "duration": 1.2298859999999934
                },
                {
                    "name": "G1",
                    "midi": 31,
                    "time": 199.54900350000014,
                    "velocity": 0.1968503937007874,
                    "duration": 1.2298859999999934
                },
                {
                    "name": "A2",
                    "midi": 45,
                    "time": 200.77888950000013,
                    "velocity": 0.25984251968503935,
                    "duration": 0.46120725000000107
                },
                {
                    "name": "A1",
                    "midi": 33,
                    "time": 200.77888950000013,
                    "velocity": 0.1732283464566929,
                    "duration": 0.46120725000000107
                },
                {
                    "name": "G2",
                    "midi": 43,
                    "time": 201.24009675000013,
                    "velocity": 0.2440944881889764,
                    "duration": 0.15373575000000983
                },
                {
                    "name": "G1",
                    "midi": 31,
                    "time": 201.24009675000013,
                    "velocity": 0.1732283464566929,
                    "duration": 0.15373575000000983
                },
                {
                    "name": "F#1",
                    "midi": 30,
                    "time": 201.39383250000014,
                    "velocity": 0.1968503937007874,
                    "duration": 0.6149430000000109
                },
                {
                    "name": "F#2",
                    "midi": 42,
                    "time": 201.39383250000014,
                    "velocity": 0.28346456692913385,
                    "duration": 0.6149430000000109
                },
                {
                    "name": "A1",
                    "midi": 33,
                    "time": 202.00877550000016,
                    "velocity": 0.1968503937007874,
                    "duration": 0.6149430000000109
                },
                {
                    "name": "A2",
                    "midi": 45,
                    "time": 202.00877550000016,
                    "velocity": 0.28346456692913385,
                    "duration": 0.6149430000000109
                },
                {
                    "name": "G1",
                    "midi": 31,
                    "time": 202.62371850000017,
                    "velocity": 0.15748031496062992,
                    "duration": 0.6149430000000109
                },
                {
                    "name": "G2",
                    "midi": 43,
                    "time": 202.62371850000017,
                    "velocity": 0.2283464566929134,
                    "duration": 0.6149430000000109
                },
                {
                    "name": "D#1",
                    "midi": 27,
                    "time": 203.23866150000018,
                    "velocity": 0.1968503937007874,
                    "duration": 1.2298859999999934
                },
                {
                    "name": "D#2",
                    "midi": 39,
                    "time": 203.23866150000018,
                    "velocity": 0.28346456692913385,
                    "duration": 1.2298859999999934
                },
                {
                    "name": "F2",
                    "midi": 41,
                    "time": 204.46854750000017,
                    "velocity": 0.25984251968503935,
                    "duration": 0.46120725000000107
                },
                {
                    "name": "F1",
                    "midi": 29,
                    "time": 204.46854750000017,
                    "velocity": 0.1732283464566929,
                    "duration": 0.46120725000000107
                },
                {
                    "name": "D#1",
                    "midi": 27,
                    "time": 204.92975475000017,
                    "velocity": 0.1732283464566929,
                    "duration": 0.15373575000000983
                },
                {
                    "name": "D#2",
                    "midi": 39,
                    "time": 204.92975475000017,
                    "velocity": 0.2440944881889764,
                    "duration": 0.15373575000000983
                },
                {
                    "name": "D1",
                    "midi": 26,
                    "time": 205.08349050000018,
                    "velocity": 0.1968503937007874,
                    "duration": 0.6149430000000109
                },
                {
                    "name": "D2",
                    "midi": 38,
                    "time": 205.08349050000018,
                    "velocity": 0.28346456692913385,
                    "duration": 0.6149430000000109
                },
                {
                    "name": "F1",
                    "midi": 29,
                    "time": 205.6984335000002,
                    "velocity": 0.1968503937007874,
                    "duration": 0.6149430000000109
                },
                {
                    "name": "F2",
                    "midi": 41,
                    "time": 205.6984335000002,
                    "velocity": 0.28346456692913385,
                    "duration": 0.6149430000000109
                },
                {
                    "name": "D#1",
                    "midi": 27,
                    "time": 206.3133765000002,
                    "velocity": 0.15748031496062992,
                    "duration": 0.6149430000000109
                },
                {
                    "name": "D#2",
                    "midi": 39,
                    "time": 206.3133765000002,
                    "velocity": 0.2283464566929134,
                    "duration": 0.6149430000000109
                },
                {
                    "name": "C2",
                    "midi": 36,
                    "time": 206.9283195000002,
                    "velocity": 0.30708661417322836,
                    "duration": 1.2298859999999934
                },
                {
                    "name": "C1",
                    "midi": 24,
                    "time": 206.9283195000002,
                    "velocity": 0.2204724409448819,
                    "duration": 1.2298859999999934
                },
                {
                    "name": "D2",
                    "midi": 38,
                    "time": 208.1582055000002,
                    "velocity": 0.28346456692913385,
                    "duration": 0.46120725000000107
                },
                {
                    "name": "D1",
                    "midi": 26,
                    "time": 208.1582055000002,
                    "velocity": 0.1889763779527559,
                    "duration": 0.46120725000000107
                },
                {
                    "name": "F#2",
                    "midi": 42,
                    "time": 208.6194127500002,
                    "velocity": 0.2677165354330709,
                    "duration": 0.15373575000000983
                },
                {
                    "name": "F#1",
                    "midi": 30,
                    "time": 208.6194127500002,
                    "velocity": 0.18110236220472442,
                    "duration": 0.15373575000000983
                },
                {
                    "name": "A1",
                    "midi": 33,
                    "time": 208.77314850000022,
                    "velocity": 0.2755905511811024,
                    "duration": 1.2298859999999934
                },
                {
                    "name": "A2",
                    "midi": 45,
                    "time": 208.77314850000022,
                    "velocity": 0.3937007874015748,
                    "duration": 1.2298859999999934
                },
                {
                    "name": "D2",
                    "midi": 38,
                    "time": 210.0030345000002,
                    "velocity": 0.25984251968503935,
                    "duration": 0.46120725000000107
                },
                {
                    "name": "D3",
                    "midi": 50,
                    "time": 210.0030345000002,
                    "velocity": 0.3700787401574803,
                    "duration": 0.46120725000000107
                },
                {
                    "name": "F#3",
                    "midi": 54,
                    "time": 210.4642417500002,
                    "velocity": 0.33070866141732286,
                    "duration": 0.15373575000000983
                },
                {
                    "name": "F#2",
                    "midi": 42,
                    "time": 210.4642417500002,
                    "velocity": 0.23622047244094488,
                    "duration": 0.15373575000000983
                },
                {
                    "name": "A3",
                    "midi": 57,
                    "time": 210.61797750000022,
                    "velocity": 0.36220472440944884,
                    "duration": 0.46120725000000107
                },
                {
                    "name": "A2",
                    "midi": 45,
                    "time": 210.61797750000022,
                    "velocity": 0.25196850393700787,
                    "duration": 0.46120725000000107
                },
                {
                    "name": "C#3",
                    "midi": 49,
                    "time": 211.07918475000022,
                    "velocity": 0.30708661417322836,
                    "duration": 0.15373575000000983
                },
                {
                    "name": "C#4",
                    "midi": 61,
                    "time": 211.07918475000022,
                    "velocity": 0.4330708661417323,
                    "duration": 0.15373575000000983
                },
                {
                    "name": "D4",
                    "midi": 62,
                    "time": 211.23292050000023,
                    "velocity": 0.4566929133858268,
                    "duration": 0.30747149999999124
                },
                {
                    "name": "D3",
                    "midi": 50,
                    "time": 211.23292050000023,
                    "velocity": 0.3228346456692913,
                    "duration": 0.30747149999999124
                },
                {
                    "name": "D3",
                    "midi": 50,
                    "time": 211.84786350000022,
                    "velocity": 0.29133858267716534,
                    "duration": 0.46120725000000107
                },
                {
                    "name": "D4",
                    "midi": 62,
                    "time": 211.84786350000022,
                    "velocity": 0.4094488188976378,
                    "duration": 0.46120725000000107
                },
                {
                    "name": "F#3",
                    "midi": 54,
                    "time": 212.30907075000022,
                    "velocity": 0.3228346456692913,
                    "duration": 0.15373575000000983
                },
                {
                    "name": "F#4",
                    "midi": 66,
                    "time": 212.30907075000022,
                    "velocity": 0.4645669291338583,
                    "duration": 0.15373575000000983
                },
                {
                    "name": "A3",
                    "midi": 57,
                    "time": 212.46280650000023,
                    "velocity": 0.33858267716535434,
                    "duration": 0.46120725000000107
                },
                {
                    "name": "A4",
                    "midi": 69,
                    "time": 212.46280650000023,
                    "velocity": 0.48031496062992124,
                    "duration": 0.46120725000000107
                },
                {
                    "name": "C#5",
                    "midi": 73,
                    "time": 212.92401375000023,
                    "velocity": 0.5354330708661418,
                    "duration": 0.15373575000000983
                },
                {
                    "name": "C#4",
                    "midi": 61,
                    "time": 212.92401375000023,
                    "velocity": 0.3779527559055118,
                    "duration": 0.15373575000000983
                },
                {
                    "name": "D4",
                    "midi": 62,
                    "time": 213.07774950000024,
                    "velocity": 0.3937007874015748,
                    "duration": 0.30747149999999124
                },
                {
                    "name": "D5",
                    "midi": 74,
                    "time": 213.07774950000024,
                    "velocity": 0.5511811023622047,
                    "duration": 0.30747149999999124
                },
                {
                    "name": "D5",
                    "midi": 74,
                    "time": 213.69269250000022,
                    "velocity": 0.5590551181102362,
                    "duration": 0.46120725000000107
                },
                {
                    "name": "A4",
                    "midi": 69,
                    "time": 213.69269250000022,
                    "velocity": 0.47244094488188976,
                    "duration": 0.46120725000000107
                },
                {
                    "name": "D4",
                    "midi": 62,
                    "time": 213.69269250000022,
                    "velocity": 0.4015748031496063,
                    "duration": 0.46120725000000107
                },
                {
                    "name": "A#2",
                    "midi": 46,
                    "time": 214.30763550000023,
                    "velocity": 0.28346456692913385,
                    "duration": 1.076150250000012
                },
                {
                    "name": "A#1",
                    "midi": 34,
                    "time": 214.30763550000023,
                    "velocity": 0.1968503937007874,
                    "duration": 1.076150250000012
                },
                {
                    "name": "C2",
                    "midi": 36,
                    "time": 215.38378575000024,
                    "velocity": 0.1732283464566929,
                    "duration": 0.15373575000000983
                },
                {
                    "name": "C3",
                    "midi": 48,
                    "time": 215.38378575000024,
                    "velocity": 0.2440944881889764,
                    "duration": 0.15373575000000983
                },
                {
                    "name": "C#3",
                    "midi": 49,
                    "time": 215.53752150000025,
                    "velocity": 0.33070866141732286,
                    "duration": 0.6149430000000109
                },
                {
                    "name": "C#2",
                    "midi": 37,
                    "time": 215.53752150000025,
                    "velocity": 0.2125984251968504,
                    "duration": 0.6149430000000109
                },
                {
                    "name": "D3",
                    "midi": 50,
                    "time": 216.15246450000026,
                    "velocity": 0.28346456692913385,
                    "duration": 1.076150250000012
                },
                {
                    "name": "D2",
                    "midi": 38,
                    "time": 216.15246450000026,
                    "velocity": 0.1968503937007874,
                    "duration": 1.076150250000012
                },
                {
                    "name": "D#2",
                    "midi": 39,
                    "time": 217.22861475000028,
                    "velocity": 0.1732283464566929,
                    "duration": 0.15373575000000983
                },
                {
                    "name": "D#3",
                    "midi": 51,
                    "time": 217.22861475000028,
                    "velocity": 0.2440944881889764,
                    "duration": 0.15373575000000983
                },
                {
                    "name": "E2",
                    "midi": 40,
                    "time": 217.38235050000029,
                    "velocity": 0.2125984251968504,
                    "duration": 0.6149430000000109
                },
                {
                    "name": "E3",
                    "midi": 52,
                    "time": 217.38235050000029,
                    "velocity": 0.33858267716535434,
                    "duration": 0.6149430000000109
                },
                {
                    "name": "F3",
                    "midi": 53,
                    "time": 217.9972935000003,
                    "velocity": 0.29133858267716534,
                    "duration": 1.076150250000012
                },
                {
                    "name": "F2",
                    "midi": 41,
                    "time": 217.9972935000003,
                    "velocity": 0.2047244094488189,
                    "duration": 1.076150250000012
                },
                {
                    "name": "F#2",
                    "midi": 42,
                    "time": 219.0734437500003,
                    "velocity": 0.1732283464566929,
                    "duration": 0.15373575000000983
                },
                {
                    "name": "F#3",
                    "midi": 54,
                    "time": 219.0734437500003,
                    "velocity": 0.25196850393700787,
                    "duration": 0.15373575000000983
                },
                {
                    "name": "G2",
                    "midi": 43,
                    "time": 219.22717950000032,
                    "velocity": 0.2204724409448819,
                    "duration": 0.6149430000000109
                },
                {
                    "name": "G3",
                    "midi": 55,
                    "time": 219.22717950000032,
                    "velocity": 0.36220472440944884,
                    "duration": 0.6149430000000109
                },
                {
                    "name": "G#3",
                    "midi": 56,
                    "time": 219.84212250000033,
                    "velocity": 0.30708661417322836,
                    "duration": 1.076150250000012
                },
                {
                    "name": "G#2",
                    "midi": 44,
                    "time": 219.84212250000033,
                    "velocity": 0.2125984251968504,
                    "duration": 1.076150250000012
                },
                {
                    "name": "A3",
                    "midi": 57,
                    "time": 220.91827275000034,
                    "velocity": 0.2677165354330709,
                    "duration": 0.15373575000000983
                },
                {
                    "name": "A2",
                    "midi": 45,
                    "time": 220.91827275000034,
                    "velocity": 0.18110236220472442,
                    "duration": 0.15373575000000983
                },
                {
                    "name": "A#3",
                    "midi": 58,
                    "time": 221.07200850000035,
                    "velocity": 0.3858267716535433,
                    "duration": 0.6149430000000109
                },
                {
                    "name": "A#2",
                    "midi": 46,
                    "time": 221.07200850000035,
                    "velocity": 0.23622047244094488,
                    "duration": 0.6149430000000109
                },
                {
                    "name": "C4",
                    "midi": 60,
                    "time": 221.68695150000036,
                    "velocity": 0.3228346456692913,
                    "duration": 1.076150250000012
                },
                {
                    "name": "C3",
                    "midi": 48,
                    "time": 221.68695150000036,
                    "velocity": 0.2204724409448819,
                    "duration": 1.076150250000012
                },
                {
                    "name": "B2",
                    "midi": 47,
                    "time": 222.76310175000037,
                    "velocity": 0.1968503937007874,
                    "duration": 0.15373575000000983
                },
                {
                    "name": "B3",
                    "midi": 59,
                    "time": 222.76310175000037,
                    "velocity": 0.2755905511811024,
                    "duration": 0.15373575000000983
                },
                {
                    "name": "C3",
                    "midi": 48,
                    "time": 222.91683750000038,
                    "velocity": 0.2677165354330709,
                    "duration": 0.6149430000000109
                },
                {
                    "name": "C4",
                    "midi": 60,
                    "time": 222.91683750000038,
                    "velocity": 0.4251968503937008,
                    "duration": 0.6149430000000109
                },
                {
                    "name": "D4",
                    "midi": 62,
                    "time": 223.5317805000004,
                    "velocity": 0.3543307086614173,
                    "duration": 1.076150250000012
                },
                {
                    "name": "D3",
                    "midi": 50,
                    "time": 223.5317805000004,
                    "velocity": 0.25196850393700787,
                    "duration": 1.076150250000012
                },
                {
                    "name": "C#3",
                    "midi": 49,
                    "time": 224.6079307500004,
                    "velocity": 0.2204724409448819,
                    "duration": 0.15373575000000983
                },
                {
                    "name": "C#4",
                    "midi": 61,
                    "time": 224.6079307500004,
                    "velocity": 0.30708661417322836,
                    "duration": 0.15373575000000983
                },
                {
                    "name": "D4",
                    "midi": 62,
                    "time": 224.76166650000042,
                    "velocity": 0.48031496062992124,
                    "duration": 0.6149430000000109
                },
                {
                    "name": "D3",
                    "midi": 50,
                    "time": 224.76166650000042,
                    "velocity": 0.29133858267716534,
                    "duration": 0.6149430000000109
                },
                {
                    "name": "E3",
                    "midi": 52,
                    "time": 225.37660950000043,
                    "velocity": 0.2755905511811024,
                    "duration": 1.076150250000012
                },
                {
                    "name": "E4",
                    "midi": 64,
                    "time": 225.37660950000043,
                    "velocity": 0.3937007874015748,
                    "duration": 1.076150250000012
                },
                {
                    "name": "F3",
                    "midi": 53,
                    "time": 226.45275975000044,
                    "velocity": 0.3464566929133858,
                    "duration": 0.15373575000000983
                },
                {
                    "name": "G3",
                    "midi": 55,
                    "time": 226.60649550000045,
                    "velocity": 0.4881889763779528,
                    "duration": 0.6149430000000109
                },
                {
                    "name": "A3",
                    "midi": 57,
                    "time": 227.22143850000046,
                    "velocity": 0.5118110236220472,
                    "duration": 0.46120725000000107
                },
                {
                    "name": "G3",
                    "midi": 55,
                    "time": 227.68264575000046,
                    "velocity": 0.47244094488188976,
                    "duration": 0.15373575000000983
                },
                {
                    "name": "F3",
                    "midi": 53,
                    "time": 227.83638150000047,
                    "velocity": 0.5118110236220472,
                    "duration": 0.46120725000000107
                },
                {
                    "name": "F#3",
                    "midi": 54,
                    "time": 228.29758875000047,
                    "velocity": 0.47244094488188976,
                    "duration": 0.15373575000000983
                },
                {
                    "name": "A3",
                    "midi": 57,
                    "time": 228.45132450000048,
                    "velocity": 0.5118110236220472,
                    "duration": 0.46120725000000107
                },
                {
                    "name": "G3",
                    "midi": 55,
                    "time": 228.91253175000048,
                    "velocity": 0.47244094488188976,
                    "duration": 0.15373575000000983
                },
                {
                    "name": "F3",
                    "midi": 53,
                    "time": 229.0662675000005,
                    "velocity": 0.5118110236220472,
                    "duration": 0.46120725000000107
                },
                {
                    "name": "F#3",
                    "midi": 54,
                    "time": 229.5274747500005,
                    "velocity": 0.47244094488188976,
                    "duration": 0.15373575000000983
                },
                {
                    "name": "A3",
                    "midi": 57,
                    "time": 229.6812105000005,
                    "velocity": 0.5118110236220472,
                    "duration": 0.46120725000000107
                },
                {
                    "name": "G3",
                    "midi": 55,
                    "time": 230.1424177500005,
                    "velocity": 0.47244094488188976,
                    "duration": 0.15373575000000983
                },
                {
                    "name": "F3",
                    "midi": 53,
                    "time": 230.29615350000051,
                    "velocity": 0.5118110236220472,
                    "duration": 0.46120725000000107
                },
                {
                    "name": "F#3",
                    "midi": 54,
                    "time": 230.75736075000052,
                    "velocity": 0.47244094488188976,
                    "duration": 0.15373575000000983
                },
                {
                    "name": "G3",
                    "midi": 55,
                    "time": 230.91109650000053,
                    "velocity": 0.5118110236220472,
                    "duration": 0.46120725000000107
                },
                {
                    "name": "A#3",
                    "midi": 58,
                    "time": 231.37230375000053,
                    "velocity": 0.47244094488188976,
                    "duration": 0.15373575000000983
                },
                {
                    "name": "A3",
                    "midi": 57,
                    "time": 231.52603950000054,
                    "velocity": 0.5118110236220472,
                    "duration": 0.46120725000000107
                },
                {
                    "name": "A2",
                    "midi": 45,
                    "time": 231.98724675000054,
                    "velocity": 0.47244094488188976,
                    "duration": 0.15373575000000983
                },
                {
                    "name": "D3",
                    "midi": 50,
                    "time": 232.14098250000055,
                    "velocity": 0.5118110236220472,
                    "duration": 0.46120725000000107
                },
                {
                    "name": "C3",
                    "midi": 48,
                    "time": 232.60218975000055,
                    "velocity": 0.47244094488188976,
                    "duration": 0.15373575000000983
                },
                {
                    "name": "A#2",
                    "midi": 46,
                    "time": 232.75592550000056,
                    "velocity": 0.5118110236220472,
                    "duration": 0.46120725000000107
                },
                {
                    "name": "A2",
                    "midi": 45,
                    "time": 233.21713275000056,
                    "velocity": 0.47244094488188976,
                    "duration": 0.15373575000000983
                },
                {
                    "name": "G2",
                    "midi": 43,
                    "time": 233.37086850000057,
                    "velocity": 0.3543307086614173,
                    "duration": 1.2298859999999934
                },
                {
                    "name": "G1",
                    "midi": 31,
                    "time": 233.37086850000057,
                    "velocity": 0.2440944881889764,
                    "duration": 1.2298859999999934
                },
                {
                    "name": "A1",
                    "midi": 33,
                    "time": 234.60075450000056,
                    "velocity": 0.2204724409448819,
                    "duration": 0.46120725000000107
                },
                {
                    "name": "A2",
                    "midi": 45,
                    "time": 234.60075450000056,
                    "velocity": 0.3228346456692913,
                    "duration": 0.46120725000000107
                },
                {
                    "name": "G2",
                    "midi": 43,
                    "time": 235.06196175000056,
                    "velocity": 0.2992125984251969,
                    "duration": 0.15373575000000983
                },
                {
                    "name": "G1",
                    "midi": 31,
                    "time": 235.06196175000056,
                    "velocity": 0.2125984251968504,
                    "duration": 0.15373575000000983
                },
                {
                    "name": "F#1",
                    "midi": 30,
                    "time": 235.21569750000057,
                    "velocity": 0.2440944881889764,
                    "duration": 0.6149430000000109
                },
                {
                    "name": "F#2",
                    "midi": 42,
                    "time": 235.21569750000057,
                    "velocity": 0.3543307086614173,
                    "duration": 0.6149430000000109
                },
                {
                    "name": "A1",
                    "midi": 33,
                    "time": 235.83064050000058,
                    "velocity": 0.2440944881889764,
                    "duration": 0.6149430000000109
                },
                {
                    "name": "A2",
                    "midi": 45,
                    "time": 235.83064050000058,
                    "velocity": 0.3543307086614173,
                    "duration": 0.6149430000000109
                },
                {
                    "name": "G1",
                    "midi": 31,
                    "time": 236.4455835000006,
                    "velocity": 0.1968503937007874,
                    "duration": 0.6149430000000109
                },
                {
                    "name": "G2",
                    "midi": 43,
                    "time": 236.4455835000006,
                    "velocity": 0.28346456692913385,
                    "duration": 0.6149430000000109
                },
                {
                    "name": "D#2",
                    "midi": 39,
                    "time": 237.0605265000006,
                    "velocity": 0.3543307086614173,
                    "duration": 1.2298859999999934
                },
                {
                    "name": "D#1",
                    "midi": 27,
                    "time": 237.0605265000006,
                    "velocity": 0.2440944881889764,
                    "duration": 1.2298859999999934
                },
                {
                    "name": "F1",
                    "midi": 29,
                    "time": 238.2904125000006,
                    "velocity": 0.2204724409448819,
                    "duration": 0.46120725000000107
                },
                {
                    "name": "F2",
                    "midi": 41,
                    "time": 238.2904125000006,
                    "velocity": 0.3228346456692913,
                    "duration": 0.46120725000000107
                },
                {
                    "name": "D#1",
                    "midi": 27,
                    "time": 238.7516197500006,
                    "velocity": 0.2125984251968504,
                    "duration": 0.15373575000000983
                },
                {
                    "name": "D#2",
                    "midi": 39,
                    "time": 238.7516197500006,
                    "velocity": 0.2992125984251969,
                    "duration": 0.15373575000000983
                },
                {
                    "name": "D2",
                    "midi": 38,
                    "time": 238.9053555000006,
                    "velocity": 0.3543307086614173,
                    "duration": 0.6149430000000109
                },
                {
                    "name": "D1",
                    "midi": 26,
                    "time": 238.9053555000006,
                    "velocity": 0.2440944881889764,
                    "duration": 0.6149430000000109
                },
                {
                    "name": "F1",
                    "midi": 29,
                    "time": 239.52029850000062,
                    "velocity": 0.2440944881889764,
                    "duration": 0.6149430000000109
                },
                {
                    "name": "F2",
                    "midi": 41,
                    "time": 239.52029850000062,
                    "velocity": 0.3543307086614173,
                    "duration": 0.6149430000000109
                },
                {
                    "name": "D#1",
                    "midi": 27,
                    "time": 240.13524150000063,
                    "velocity": 0.1968503937007874,
                    "duration": 0.6149430000000109
                },
                {
                    "name": "D#2",
                    "midi": 39,
                    "time": 240.13524150000063,
                    "velocity": 0.28346456692913385,
                    "duration": 0.6149430000000109
                },
                {
                    "name": "C1",
                    "midi": 24,
                    "time": 240.75018450000064,
                    "velocity": 0.2677165354330709,
                    "duration": 1.2298859999999934
                },
                {
                    "name": "C2",
                    "midi": 36,
                    "time": 240.75018450000064,
                    "velocity": 0.3779527559055118,
                    "duration": 1.2298859999999934
                },
                {
                    "name": "D2",
                    "midi": 38,
                    "time": 241.98007050000064,
                    "velocity": 0.3543307086614173,
                    "duration": 0.46120725000000107
                },
                {
                    "name": "D1",
                    "midi": 26,
                    "time": 241.98007050000064,
                    "velocity": 0.23622047244094488,
                    "duration": 0.46120725000000107
                },
                {
                    "name": "E2",
                    "midi": 40,
                    "time": 242.44127775000064,
                    "velocity": 0.33070866141732286,
                    "duration": 0.15373575000000983
                },
                {
                    "name": "E1",
                    "midi": 28,
                    "time": 242.44127775000064,
                    "velocity": 0.2283464566929134,
                    "duration": 0.15373575000000983
                },
                {
                    "name": "F#1",
                    "midi": 30,
                    "time": 242.59501350000065,
                    "velocity": 0.3464566929133858,
                    "duration": 0.6149430000000109
                },
                {
                    "name": "F#2",
                    "midi": 42,
                    "time": 242.59501350000065,
                    "velocity": 0.4881889763779528,
                    "duration": 0.6149430000000109
                },
                {
                    "name": "A1",
                    "midi": 33,
                    "time": 243.20995650000066,
                    "velocity": 0.33070866141732286,
                    "duration": 0.6149430000000109
                },
                {
                    "name": "A2",
                    "midi": 45,
                    "time": 243.20995650000066,
                    "velocity": 0.4645669291338583,
                    "duration": 0.6149430000000109
                },
                {
                    "name": "G2",
                    "midi": 43,
                    "time": 243.82489950000067,
                    "velocity": 0.4566929133858268,
                    "duration": 0.46120725000000107
                },
                {
                    "name": "G1",
                    "midi": 31,
                    "time": 243.82489950000067,
                    "velocity": 0.31496062992125984,
                    "duration": 0.46120725000000107
                },
                {
                    "name": "A1",
                    "midi": 33,
                    "time": 244.28610675000067,
                    "velocity": 0.2992125984251969,
                    "duration": 0.15373575000000983
                },
                {
                    "name": "A2",
                    "midi": 45,
                    "time": 244.28610675000067,
                    "velocity": 0.4094488188976378,
                    "duration": 0.15373575000000983
                },
                {
                    "name": "A#1",
                    "midi": 34,
                    "time": 244.43984250000068,
                    "velocity": 0.30708661417322836,
                    "duration": 0.6149430000000109
                },
                {
                    "name": "A#2",
                    "midi": 46,
                    "time": 244.43984250000068,
                    "velocity": 0.44881889763779526,
                    "duration": 0.6149430000000109
                },
                {
                    "name": "D3",
                    "midi": 50,
                    "time": 245.0547855000007,
                    "velocity": 0.5118110236220472,
                    "duration": 0.6149430000000109
                },
                {
                    "name": "D2",
                    "midi": 38,
                    "time": 245.0547855000007,
                    "velocity": 0.36220472440944884,
                    "duration": 0.6149430000000109
                },
                {
                    "name": "C3",
                    "midi": 48,
                    "time": 245.6697285000007,
                    "velocity": 0.3779527559055118,
                    "duration": 0.46120725000000107
                },
                {
                    "name": "C2",
                    "midi": 36,
                    "time": 245.6697285000007,
                    "velocity": 0.2677165354330709,
                    "duration": 0.46120725000000107
                },
                {
                    "name": "A2",
                    "midi": 45,
                    "time": 246.1309357500007,
                    "velocity": 0.4330708661417323,
                    "duration": 0.11530181250000737
                },
                {
                    "name": "A1",
                    "midi": 33,
                    "time": 246.1309357500007,
                    "velocity": 0.30708661417322836,
                    "duration": 0.11530181250000737
                },
                {
                    "name": "D3",
                    "midi": 50,
                    "time": 246.2846715000007,
                    "velocity": 0.4566929133858268,
                    "duration": 0.6149430000000109
                },
                {
                    "name": "D2",
                    "midi": 38,
                    "time": 246.2846715000007,
                    "velocity": 0.3228346456692913,
                    "duration": 0.6149430000000109
                },
                {
                    "name": "G2",
                    "midi": 43,
                    "time": 246.89961450000072,
                    "velocity": 0.5196850393700787,
                    "duration": 1.076150250000012
                },
                {
                    "name": "G1",
                    "midi": 31,
                    "time": 246.89961450000072,
                    "velocity": 0.3700787401574803,
                    "duration": 1.076150250000012
                },
                {
                    "name": "A#2",
                    "midi": 46,
                    "time": 248.12950050000074,
                    "velocity": 0.28346456692913385,
                    "duration": 1.076150250000012
                },
                {
                    "name": "A#1",
                    "midi": 34,
                    "time": 248.12950050000074,
                    "velocity": 0.1968503937007874,
                    "duration": 1.076150250000012
                },
                {
                    "name": "C3",
                    "midi": 48,
                    "time": 249.20565075000076,
                    "velocity": 0.2440944881889764,
                    "duration": 0.15373575000000983
                },
                {
                    "name": "C2",
                    "midi": 36,
                    "time": 249.20565075000076,
                    "velocity": 0.1732283464566929,
                    "duration": 0.15373575000000983
                },
                {
                    "name": "C#3",
                    "midi": 49,
                    "time": 249.35938650000077,
                    "velocity": 0.33070866141732286,
                    "duration": 0.6149430000000109
                },
                {
                    "name": "C#2",
                    "midi": 37,
                    "time": 249.35938650000077,
                    "velocity": 0.2125984251968504,
                    "duration": 0.6149430000000109
                },
                {
                    "name": "D2",
                    "midi": 38,
                    "time": 249.97432950000078,
                    "velocity": 0.1968503937007874,
                    "duration": 1.076150250000012
                },
                {
                    "name": "D3",
                    "midi": 50,
                    "time": 249.97432950000078,
                    "velocity": 0.28346456692913385,
                    "duration": 1.076150250000012
                },
                {
                    "name": "D#3",
                    "midi": 51,
                    "time": 251.0504797500008,
                    "velocity": 0.2440944881889764,
                    "duration": 0.15373575000000983
                },
                {
                    "name": "D#2",
                    "midi": 39,
                    "time": 251.0504797500008,
                    "velocity": 0.1732283464566929,
                    "duration": 0.15373575000000983
                },
                {
                    "name": "E3",
                    "midi": 52,
                    "time": 251.2042155000008,
                    "velocity": 0.33858267716535434,
                    "duration": 0.6149430000000109
                },
                {
                    "name": "E2",
                    "midi": 40,
                    "time": 251.2042155000008,
                    "velocity": 0.2125984251968504,
                    "duration": 0.6149430000000109
                },
                {
                    "name": "F2",
                    "midi": 41,
                    "time": 251.8191585000008,
                    "velocity": 0.2047244094488189,
                    "duration": 1.076150250000012
                },
                {
                    "name": "F3",
                    "midi": 53,
                    "time": 251.8191585000008,
                    "velocity": 0.29133858267716534,
                    "duration": 1.076150250000012
                },
                {
                    "name": "F#3",
                    "midi": 54,
                    "time": 252.89530875000082,
                    "velocity": 0.25196850393700787,
                    "duration": 0.15373575000000983
                },
                {
                    "name": "F#2",
                    "midi": 42,
                    "time": 252.89530875000082,
                    "velocity": 0.1732283464566929,
                    "duration": 0.15373575000000983
                },
                {
                    "name": "G2",
                    "midi": 43,
                    "time": 253.04904450000083,
                    "velocity": 0.2204724409448819,
                    "duration": 0.6149430000000109
                },
                {
                    "name": "G3",
                    "midi": 55,
                    "time": 253.04904450000083,
                    "velocity": 0.36220472440944884,
                    "duration": 0.6149430000000109
                },
                {
                    "name": "G#2",
                    "midi": 44,
                    "time": 253.66398750000084,
                    "velocity": 0.2125984251968504,
                    "duration": 1.076150250000012
                },
                {
                    "name": "G#3",
                    "midi": 56,
                    "time": 253.66398750000084,
                    "velocity": 0.30708661417322836,
                    "duration": 1.076150250000012
                },
                {
                    "name": "A3",
                    "midi": 57,
                    "time": 254.74013775000086,
                    "velocity": 0.2677165354330709,
                    "duration": 0.15373575000000983
                },
                {
                    "name": "A2",
                    "midi": 45,
                    "time": 254.74013775000086,
                    "velocity": 0.18110236220472442,
                    "duration": 0.15373575000000983
                },
                {
                    "name": "A#3",
                    "midi": 58,
                    "time": 254.89387350000086,
                    "velocity": 0.3858267716535433,
                    "duration": 0.6149430000000109
                },
                {
                    "name": "A#2",
                    "midi": 46,
                    "time": 254.89387350000086,
                    "velocity": 0.23622047244094488,
                    "duration": 0.6149430000000109
                },
                {
                    "name": "C4",
                    "midi": 60,
                    "time": 255.50881650000088,
                    "velocity": 0.3228346456692913,
                    "duration": 1.076150250000012
                },
                {
                    "name": "C3",
                    "midi": 48,
                    "time": 255.50881650000088,
                    "velocity": 0.2204724409448819,
                    "duration": 1.076150250000012
                },
                {
                    "name": "B3",
                    "midi": 59,
                    "time": 256.5849667500009,
                    "velocity": 0.2755905511811024,
                    "duration": 0.15373575000000983
                },
                {
                    "name": "B2",
                    "midi": 47,
                    "time": 256.5849667500009,
                    "velocity": 0.1968503937007874,
                    "duration": 0.15373575000000983
                },
                {
                    "name": "C3",
                    "midi": 48,
                    "time": 256.7387025000009,
                    "velocity": 0.2677165354330709,
                    "duration": 0.6149429999999825
                },
                {
                    "name": "C4",
                    "midi": 60,
                    "time": 256.7387025000009,
                    "velocity": 0.4251968503937008,
                    "duration": 0.6149429999999825
                },
                {
                    "name": "D4",
                    "midi": 62,
                    "time": 257.3536455000009,
                    "velocity": 0.3543307086614173,
                    "duration": 1.076150250000012
                },
                {
                    "name": "D3",
                    "midi": 50,
                    "time": 257.3536455000009,
                    "velocity": 0.25196850393700787,
                    "duration": 1.076150250000012
                },
                {
                    "name": "C#4",
                    "midi": 61,
                    "time": 258.4297957500009,
                    "velocity": 0.30708661417322836,
                    "duration": 0.15373575000000983
                },
                {
                    "name": "C#3",
                    "midi": 49,
                    "time": 258.4297957500009,
                    "velocity": 0.2204724409448819,
                    "duration": 0.15373575000000983
                },
                {
                    "name": "D3",
                    "midi": 50,
                    "time": 258.5835315000009,
                    "velocity": 0.29133858267716534,
                    "duration": 0.6149429999999825
                },
                {
                    "name": "D4",
                    "midi": 62,
                    "time": 258.5835315000009,
                    "velocity": 0.48031496062992124,
                    "duration": 0.6149429999999825
                },
                {
                    "name": "E3",
                    "midi": 52,
                    "time": 259.1984745000009,
                    "velocity": 0.2755905511811024,
                    "duration": 1.076150250000012
                },
                {
                    "name": "E4",
                    "midi": 64,
                    "time": 259.1984745000009,
                    "velocity": 0.3937007874015748,
                    "duration": 1.076150250000012
                },
                {
                    "name": "F3",
                    "midi": 53,
                    "time": 260.2746247500009,
                    "velocity": 0.3464566929133858,
                    "duration": 0.15373575000000983
                },
                {
                    "name": "G3",
                    "midi": 55,
                    "time": 260.4283605000009,
                    "velocity": 0.4881889763779528,
                    "duration": 0.6149429999999825
                },
                {
                    "name": "A3",
                    "midi": 57,
                    "time": 261.0433035000009,
                    "velocity": 0.5118110236220472,
                    "duration": 0.46120724999997265
                },
                {
                    "name": "G3",
                    "midi": 55,
                    "time": 261.50451075000086,
                    "velocity": 0.47244094488188976,
                    "duration": 0.15373575000000983
                },
                {
                    "name": "F3",
                    "midi": 53,
                    "time": 261.65824650000087,
                    "velocity": 0.5118110236220472,
                    "duration": 0.46120724999997265
                },
                {
                    "name": "F#3",
                    "midi": 54,
                    "time": 262.11945375000084,
                    "velocity": 0.47244094488188976,
                    "duration": 0.15373575000000983
                },
                {
                    "name": "A3",
                    "midi": 57,
                    "time": 262.27318950000085,
                    "velocity": 0.5118110236220472,
                    "duration": 0.46120724999997265
                },
                {
                    "name": "G3",
                    "midi": 55,
                    "time": 262.7343967500008,
                    "velocity": 0.47244094488188976,
                    "duration": 0.15373575000000983
                },
                {
                    "name": "F3",
                    "midi": 53,
                    "time": 262.88813250000084,
                    "velocity": 0.5118110236220472,
                    "duration": 0.46120724999997265
                },
                {
                    "name": "F#3",
                    "midi": 54,
                    "time": 263.3493397500008,
                    "velocity": 0.47244094488188976,
                    "duration": 0.15373575000000983
                },
                {
                    "name": "A3",
                    "midi": 57,
                    "time": 263.5030755000008,
                    "velocity": 0.5118110236220472,
                    "duration": 0.46120724999997265
                },
                {
                    "name": "G3",
                    "midi": 55,
                    "time": 263.9642827500008,
                    "velocity": 0.47244094488188976,
                    "duration": 0.15373575000000983
                },
                {
                    "name": "F3",
                    "midi": 53,
                    "time": 264.1180185000008,
                    "velocity": 0.5118110236220472,
                    "duration": 0.46120724999997265
                },
                {
                    "name": "F#3",
                    "midi": 54,
                    "time": 264.5792257500008,
                    "velocity": 0.47244094488188976,
                    "duration": 0.15373575000000983
                },
                {
                    "name": "G3",
                    "midi": 55,
                    "time": 264.7329615000008,
                    "velocity": 0.5118110236220472,
                    "duration": 0.46120724999997265
                },
                {
                    "name": "A#3",
                    "midi": 58,
                    "time": 265.19416875000076,
                    "velocity": 0.47244094488188976,
                    "duration": 0.15373575000000983
                },
                {
                    "name": "A3",
                    "midi": 57,
                    "time": 265.34790450000077,
                    "velocity": 0.5118110236220472,
                    "duration": 0.46120724999997265
                },
                {
                    "name": "A2",
                    "midi": 45,
                    "time": 265.80911175000074,
                    "velocity": 0.47244094488188976,
                    "duration": 0.15373575000000983
                },
                {
                    "name": "D3",
                    "midi": 50,
                    "time": 265.96284750000075,
                    "velocity": 0.5118110236220472,
                    "duration": 0.46120724999997265
                },
                {
                    "name": "C3",
                    "midi": 48,
                    "time": 266.4240547500007,
                    "velocity": 0.47244094488188976,
                    "duration": 0.15373575000000983
                },
                {
                    "name": "A#2",
                    "midi": 46,
                    "time": 266.57779050000073,
                    "velocity": 0.5118110236220472,
                    "duration": 0.46120724999997265
                },
                {
                    "name": "A2",
                    "midi": 45,
                    "time": 267.0389977500007,
                    "velocity": 0.47244094488188976,
                    "duration": 0.15373575000000983
                },
                {
                    "name": "G1",
                    "midi": 31,
                    "time": 267.1927335000007,
                    "velocity": 0.2440944881889764,
                    "duration": 1.2298860000000218
                },
                {
                    "name": "G2",
                    "midi": 43,
                    "time": 267.1927335000007,
                    "velocity": 0.3543307086614173,
                    "duration": 1.2298860000000218
                },
                {
                    "name": "A2",
                    "midi": 45,
                    "time": 268.42261950000074,
                    "velocity": 0.3228346456692913,
                    "duration": 0.46120724999997265
                },
                {
                    "name": "A1",
                    "midi": 33,
                    "time": 268.42261950000074,
                    "velocity": 0.2204724409448819,
                    "duration": 0.46120724999997265
                },
                {
                    "name": "G1",
                    "midi": 31,
                    "time": 268.8838267500007,
                    "velocity": 0.2125984251968504,
                    "duration": 0.15373575000000983
                },
                {
                    "name": "G2",
                    "midi": 43,
                    "time": 268.8838267500007,
                    "velocity": 0.2992125984251969,
                    "duration": 0.15373575000000983
                },
                {
                    "name": "F#2",
                    "midi": 42,
                    "time": 269.0375625000007,
                    "velocity": 0.3543307086614173,
                    "duration": 0.6149429999999825
                },
                {
                    "name": "F#1",
                    "midi": 30,
                    "time": 269.0375625000007,
                    "velocity": 0.2440944881889764,
                    "duration": 0.6149429999999825
                },
                {
                    "name": "A1",
                    "midi": 33,
                    "time": 269.6525055000007,
                    "velocity": 0.2440944881889764,
                    "duration": 0.6149429999999825
                },
                {
                    "name": "A2",
                    "midi": 45,
                    "time": 269.6525055000007,
                    "velocity": 0.3543307086614173,
                    "duration": 0.6149429999999825
                },
                {
                    "name": "G2",
                    "midi": 43,
                    "time": 270.2674485000007,
                    "velocity": 0.28346456692913385,
                    "duration": 0.6149429999999825
                },
                {
                    "name": "G1",
                    "midi": 31,
                    "time": 270.2674485000007,
                    "velocity": 0.1968503937007874,
                    "duration": 0.6149429999999825
                },
                {
                    "name": "D#1",
                    "midi": 27,
                    "time": 270.88239150000067,
                    "velocity": 0.2440944881889764,
                    "duration": 1.2298860000000218
                },
                {
                    "name": "D#2",
                    "midi": 39,
                    "time": 270.88239150000067,
                    "velocity": 0.3543307086614173,
                    "duration": 1.2298860000000218
                },
                {
                    "name": "F2",
                    "midi": 41,
                    "time": 272.1122775000007,
                    "velocity": 0.3228346456692913,
                    "duration": 0.46120724999997265
                },
                {
                    "name": "F1",
                    "midi": 29,
                    "time": 272.1122775000007,
                    "velocity": 0.2204724409448819,
                    "duration": 0.46120724999997265
                },
                {
                    "name": "D#2",
                    "midi": 39,
                    "time": 272.57348475000066,
                    "velocity": 0.2992125984251969,
                    "duration": 0.15373575000000983
                },
                {
                    "name": "D#1",
                    "midi": 27,
                    "time": 272.57348475000066,
                    "velocity": 0.2125984251968504,
                    "duration": 0.15373575000000983
                },
                {
                    "name": "D2",
                    "midi": 38,
                    "time": 272.72722050000067,
                    "velocity": 0.3543307086614173,
                    "duration": 0.6149429999999825
                },
                {
                    "name": "D1",
                    "midi": 26,
                    "time": 272.72722050000067,
                    "velocity": 0.2440944881889764,
                    "duration": 0.6149429999999825
                },
                {
                    "name": "F2",
                    "midi": 41,
                    "time": 273.34216350000065,
                    "velocity": 0.3543307086614173,
                    "duration": 0.6149429999999825
                },
                {
                    "name": "F1",
                    "midi": 29,
                    "time": 273.34216350000065,
                    "velocity": 0.2440944881889764,
                    "duration": 0.6149429999999825
                },
                {
                    "name": "D#1",
                    "midi": 27,
                    "time": 273.95710650000063,
                    "velocity": 0.1968503937007874,
                    "duration": 0.6149429999999825
                },
                {
                    "name": "D#2",
                    "midi": 39,
                    "time": 273.95710650000063,
                    "velocity": 0.28346456692913385,
                    "duration": 0.6149429999999825
                },
                {
                    "name": "C1",
                    "midi": 24,
                    "time": 274.5720495000006,
                    "velocity": 0.2677165354330709,
                    "duration": 1.2298860000000218
                },
                {
                    "name": "C2",
                    "midi": 36,
                    "time": 274.5720495000006,
                    "velocity": 0.3779527559055118,
                    "duration": 1.2298860000000218
                },
                {
                    "name": "D2",
                    "midi": 38,
                    "time": 275.80193550000064,
                    "velocity": 0.3543307086614173,
                    "duration": 0.46120724999997265
                },
                {
                    "name": "D1",
                    "midi": 26,
                    "time": 275.80193550000064,
                    "velocity": 0.23622047244094488,
                    "duration": 0.46120724999997265
                },
                {
                    "name": "E2",
                    "midi": 40,
                    "time": 276.2631427500006,
                    "velocity": 0.33070866141732286,
                    "duration": 0.15373575000000983
                },
                {
                    "name": "E1",
                    "midi": 28,
                    "time": 276.2631427500006,
                    "velocity": 0.2283464566929134,
                    "duration": 0.15373575000000983
                },
                {
                    "name": "F#1",
                    "midi": 30,
                    "time": 276.4168785000006,
                    "velocity": 0.3464566929133858,
                    "duration": 0.6149429999999825
                },
                {
                    "name": "F#2",
                    "midi": 42,
                    "time": 276.4168785000006,
                    "velocity": 0.4881889763779528,
                    "duration": 0.6149429999999825
                },
                {
                    "name": "A2",
                    "midi": 45,
                    "time": 277.0318215000006,
                    "velocity": 0.4645669291338583,
                    "duration": 0.6149429999999825
                },
                {
                    "name": "A1",
                    "midi": 33,
                    "time": 277.0318215000006,
                    "velocity": 0.33070866141732286,
                    "duration": 0.6149429999999825
                },
                {
                    "name": "G1",
                    "midi": 31,
                    "time": 277.6467645000006,
                    "velocity": 0.31496062992125984,
                    "duration": 0.46120724999997265
                },
                {
                    "name": "G2",
                    "midi": 43,
                    "time": 277.6467645000006,
                    "velocity": 0.4566929133858268,
                    "duration": 0.46120724999997265
                },
                {
                    "name": "A2",
                    "midi": 45,
                    "time": 278.10797175000056,
                    "velocity": 0.4094488188976378,
                    "duration": 0.15373575000000983
                },
                {
                    "name": "A1",
                    "midi": 33,
                    "time": 278.10797175000056,
                    "velocity": 0.2992125984251969,
                    "duration": 0.15373575000000983
                },
                {
                    "name": "A#2",
                    "midi": 46,
                    "time": 278.26170750000057,
                    "velocity": 0.44881889763779526,
                    "duration": 0.6149429999999825
                },
                {
                    "name": "A#1",
                    "midi": 34,
                    "time": 278.26170750000057,
                    "velocity": 0.30708661417322836,
                    "duration": 0.6149429999999825
                },
                {
                    "name": "D2",
                    "midi": 38,
                    "time": 278.87665050000055,
                    "velocity": 0.36220472440944884,
                    "duration": 0.6149429999999825
                },
                {
                    "name": "D3",
                    "midi": 50,
                    "time": 278.87665050000055,
                    "velocity": 0.5118110236220472,
                    "duration": 0.6149429999999825
                },
                {
                    "name": "C2",
                    "midi": 36,
                    "time": 279.49159350000053,
                    "velocity": 0.2677165354330709,
                    "duration": 0.46120724999997265
                },
                {
                    "name": "C3",
                    "midi": 48,
                    "time": 279.49159350000053,
                    "velocity": 0.3779527559055118,
                    "duration": 0.46120724999997265
                },
                {
                    "name": "A2",
                    "midi": 45,
                    "time": 279.9528007500005,
                    "velocity": 0.4330708661417323,
                    "duration": 0.11530181249997895
                },
                {
                    "name": "A1",
                    "midi": 33,
                    "time": 279.9528007500005,
                    "velocity": 0.30708661417322836,
                    "duration": 0.11530181249997895
                },
                {
                    "name": "D3",
                    "midi": 50,
                    "time": 280.10653650000046,
                    "velocity": 0.4566929133858268,
                    "duration": 0.6149429999999825
                },
                {
                    "name": "D2",
                    "midi": 38,
                    "time": 280.10653650000046,
                    "velocity": 0.3228346456692913,
                    "duration": 0.6149429999999825
                },
                {
                    "name": "G1",
                    "midi": 31,
                    "time": 280.72147950000044,
                    "velocity": 0.3700787401574803,
                    "duration": 1.076150250000012
                },
                {
                    "name": "G2",
                    "midi": 43,
                    "time": 280.72147950000044,
                    "velocity": 0.5196850393700787,
                    "duration": 1.076150250000012
                },
                {
                    "name": "G3",
                    "midi": 55,
                    "time": 281.95136550000046,
                    "velocity": 0.2677165354330709,
                    "duration": 1.2298860000000218
                },
                {
                    "name": "D#3",
                    "midi": 51,
                    "time": 281.95136550000046,
                    "velocity": 0.31496062992125984,
                    "duration": 0.30747150000001966
                },
                {
                    "name": "D3",
                    "midi": 50,
                    "time": 282.2588370000005,
                    "velocity": 0.2440944881889764,
                    "duration": 0.30747150000001966
                },
                {
                    "name": "C#3",
                    "midi": 49,
                    "time": 282.5663085000005,
                    "velocity": 0.2992125984251969,
                    "duration": 0.6149429999999825
                },
                {
                    "name": "A2",
                    "midi": 45,
                    "time": 283.1812515000005,
                    "velocity": 0.30708661417322836,
                    "duration": 0.6149429999999825
                },
                {
                    "name": "A#2",
                    "midi": 46,
                    "time": 283.79619450000047,
                    "velocity": 0.33858267716535434,
                    "duration": 0.30747150000001966
                },
                {
                    "name": "G2",
                    "midi": 43,
                    "time": 284.1036660000005,
                    "velocity": 0.2992125984251969,
                    "duration": 0.30747150000001966
                },
                {
                    "name": "A2",
                    "midi": 45,
                    "time": 284.4111375000005,
                    "velocity": 0.3464566929133858,
                    "duration": 0.30747150000001966
                },
                {
                    "name": "F2",
                    "midi": 41,
                    "time": 284.7186090000005,
                    "velocity": 0.28346456692913385,
                    "duration": 0.30747150000001966
                },
                {
                    "name": "G2",
                    "midi": 43,
                    "time": 285.02608050000055,
                    "velocity": 0.33070866141732286,
                    "duration": 0.30747150000001966
                },
                {
                    "name": "F2",
                    "midi": 41,
                    "time": 285.33355200000057,
                    "velocity": 0.28346456692913385,
                    "duration": 0.30747150000001966
                },
                {
                    "name": "E2",
                    "midi": 40,
                    "time": 285.6410235000006,
                    "velocity": 0.29133858267716534,
                    "duration": 0.30747150000001966
                },
                {
                    "name": "D2",
                    "midi": 38,
                    "time": 285.9484950000006,
                    "velocity": 0.25196850393700787,
                    "duration": 0.30747150000001966
                },
                {
                    "name": "C2",
                    "midi": 36,
                    "time": 286.2559665000006,
                    "velocity": 0.3464566929133858,
                    "duration": 0.6149429999999825
                },
                {
                    "name": "C#2",
                    "midi": 37,
                    "time": 286.8709095000006,
                    "velocity": 0.31496062992125984,
                    "duration": 0.6149429999999825
                },
                {
                    "name": "D2",
                    "midi": 38,
                    "time": 287.4858525000006,
                    "velocity": 0.2992125984251969,
                    "duration": 0.30747150000001966
                },
                {
                    "name": "G1",
                    "midi": 31,
                    "time": 287.7933240000006,
                    "velocity": 0.25196850393700787,
                    "duration": 0.30747150000001966
                },
                {
                    "name": "A1",
                    "midi": 33,
                    "time": 288.10079550000063,
                    "velocity": 0.31496062992125984,
                    "duration": 0.6149429999999825
                },
                {
                    "name": "D1",
                    "midi": 26,
                    "time": 288.7157385000006,
                    "velocity": 0.2440944881889764,
                    "duration": 0.6149429999999825
                },
                {
                    "name": "D2",
                    "midi": 38,
                    "time": 288.7157385000006,
                    "velocity": 0.29133858267716534,
                    "duration": 0.6149429999999825
                },
                {
                    "name": "D#5",
                    "midi": 75,
                    "time": 289.3306815000006,
                    "velocity": 0.3937007874015748,
                    "duration": 0.30747150000001966
                },
                {
                    "name": "D5",
                    "midi": 74,
                    "time": 289.6381530000006,
                    "velocity": 0.2992125984251969,
                    "duration": 0.30747150000001966
                },
                {
                    "name": "C#5",
                    "midi": 73,
                    "time": 289.94562450000063,
                    "velocity": 0.3700787401574803,
                    "duration": 0.6149429999999825
                },
                {
                    "name": "A4",
                    "midi": 69,
                    "time": 290.5605675000006,
                    "velocity": 0.3779527559055118,
                    "duration": 0.6149429999999825
                },
                {
                    "name": "A#4",
                    "midi": 70,
                    "time": 291.1755105000006,
                    "velocity": 0.41732283464566927,
                    "duration": 0.30747150000001966
                },
                {
                    "name": "G4",
                    "midi": 67,
                    "time": 291.4829820000006,
                    "velocity": 0.3700787401574803,
                    "duration": 0.30747150000001966
                },
                {
                    "name": "A4",
                    "midi": 69,
                    "time": 291.79045350000064,
                    "velocity": 0.4330708661417323,
                    "duration": 0.30747150000001966
                },
                {
                    "name": "F4",
                    "midi": 65,
                    "time": 292.09792500000066,
                    "velocity": 0.3543307086614173,
                    "duration": 0.30747150000001966
                },
                {
                    "name": "G4",
                    "midi": 67,
                    "time": 292.4053965000007,
                    "velocity": 0.4094488188976378,
                    "duration": 0.30747150000001966
                },
                {
                    "name": "F4",
                    "midi": 65,
                    "time": 292.7128680000007,
                    "velocity": 0.3543307086614173,
                    "duration": 0.30747150000001966
                },
                {
                    "name": "E4",
                    "midi": 64,
                    "time": 293.0203395000007,
                    "velocity": 0.36220472440944884,
                    "duration": 0.30747150000001966
                },
                {
                    "name": "D4",
                    "midi": 62,
                    "time": 293.32781100000074,
                    "velocity": 0.31496062992125984,
                    "duration": 0.30747150000001966
                },
                {
                    "name": "C4",
                    "midi": 60,
                    "time": 293.63528250000076,
                    "velocity": 0.3464566929133858,
                    "duration": 0.6149429999999825
                },
                {
                    "name": "C#4",
                    "midi": 61,
                    "time": 294.25022550000074,
                    "velocity": 0.31496062992125984,
                    "duration": 0.6149429999999825
                },
                {
                    "name": "D4",
                    "midi": 62,
                    "time": 294.8651685000007,
                    "velocity": 0.2992125984251969,
                    "duration": 0.30747150000001966
                },
                {
                    "name": "A#3",
                    "midi": 58,
                    "time": 295.17264000000074,
                    "velocity": 0.25196850393700787,
                    "duration": 0.30747150000001966
                },
                {
                    "name": "G3",
                    "midi": 55,
                    "time": 295.48011150000076,
                    "velocity": 0.31496062992125984,
                    "duration": 0.30747150000001966
                },
                {
                    "name": "A3",
                    "midi": 57,
                    "time": 295.7875830000008,
                    "velocity": 0.2204724409448819,
                    "duration": 0.30747150000001966
                },
                {
                    "name": "C3",
                    "midi": 48,
                    "time": 296.4025260000008,
                    "velocity": 0.29133858267716534,
                    "duration": 0.30747150000001966
                },
                {
                    "name": "G#2",
                    "midi": 44,
                    "time": 296.70999750000084,
                    "velocity": 0.2047244094488189,
                    "duration": 0.30747150000001966
                },
                {
                    "name": "A#2",
                    "midi": 46,
                    "time": 296.70999750000084,
                    "velocity": 0.29133858267716534,
                    "duration": 0.30747150000001966
                },
                {
                    "name": "G2",
                    "midi": 43,
                    "time": 297.01746900000086,
                    "velocity": 0.18110236220472442,
                    "duration": 0.30747150000001966
                },
                {
                    "name": "B2",
                    "midi": 47,
                    "time": 297.01746900000086,
                    "velocity": 0.25984251968503935,
                    "duration": 0.30747150000001966
                },
                {
                    "name": "G#2",
                    "midi": 44,
                    "time": 297.3249405000009,
                    "velocity": 0.2204724409448819,
                    "duration": 0.30747150000001966
                },
                {
                    "name": "A#2",
                    "midi": 46,
                    "time": 297.3249405000009,
                    "velocity": 0.30708661417322836,
                    "duration": 0.30747150000001966
                },
                {
                    "name": "B2",
                    "midi": 47,
                    "time": 297.6324120000009,
                    "velocity": 0.28346456692913385,
                    "duration": 0.30747150000001966
                },
                {
                    "name": "G2",
                    "midi": 43,
                    "time": 297.6324120000009,
                    "velocity": 0.23622047244094488,
                    "duration": 0.922414500000059
                },
                {
                    "name": "C3",
                    "midi": 48,
                    "time": 297.9398835000009,
                    "velocity": 0.29133858267716534,
                    "duration": 0.922414500000059
                },
                {
                    "name": "B2",
                    "midi": 47,
                    "time": 298.24735500000094,
                    "velocity": 0.25984251968503935,
                    "duration": 0.30747150000001966
                },
                {
                    "name": "A#2",
                    "midi": 46,
                    "time": 298.55482650000096,
                    "velocity": 0.29133858267716534,
                    "duration": 0.30747150000001966
                },
                {
                    "name": "C#3",
                    "midi": 49,
                    "time": 298.862298000001,
                    "velocity": 0.2677165354330709,
                    "duration": 0.30747150000001966
                },
                {
                    "name": "A2",
                    "midi": 45,
                    "time": 298.862298000001,
                    "velocity": 0.18110236220472442,
                    "duration": 0.30747150000001966
                },
                {
                    "name": "A#2",
                    "midi": 46,
                    "time": 299.169769500001,
                    "velocity": 0.25984251968503935,
                    "duration": 0.30747150000001966
                },
                {
                    "name": "C3",
                    "midi": 48,
                    "time": 299.169769500001,
                    "velocity": 0.29133858267716534,
                    "duration": 0.30747150000001966
                },
                {
                    "name": "A2",
                    "midi": 45,
                    "time": 299.477241000001,
                    "velocity": 0.23622047244094488,
                    "duration": 0.922414500000059
                },
                {
                    "name": "C#3",
                    "midi": 49,
                    "time": 299.477241000001,
                    "velocity": 0.25984251968503935,
                    "duration": 0.30747150000001966
                },
                {
                    "name": "D3",
                    "midi": 50,
                    "time": 299.78471250000104,
                    "velocity": 0.29133858267716534,
                    "duration": 0.30747150000001966
                },
                {
                    "name": "C#3",
                    "midi": 49,
                    "time": 300.09218400000105,
                    "velocity": 0.2755905511811024,
                    "duration": 0.30747150000001966
                },
                {
                    "name": "D3",
                    "midi": 50,
                    "time": 300.3996555000011,
                    "velocity": 0.2047244094488189,
                    "duration": 0.30747150000001966
                },
                {
                    "name": "C4",
                    "midi": 60,
                    "time": 300.3996555000011,
                    "velocity": 0.29133858267716534,
                    "duration": 0.30747150000001966
                },
                {
                    "name": "B3",
                    "midi": 59,
                    "time": 300.7071270000011,
                    "velocity": 0.2755905511811024,
                    "duration": 0.30747150000001966
                },
                {
                    "name": "D#3",
                    "midi": 51,
                    "time": 300.7071270000011,
                    "velocity": 0.1889763779527559,
                    "duration": 0.30747150000001966
                },
                {
                    "name": "D3",
                    "midi": 50,
                    "time": 301.0145985000011,
                    "velocity": 0.2204724409448819,
                    "duration": 0.30747150000001966
                },
                {
                    "name": "C4",
                    "midi": 60,
                    "time": 301.0145985000011,
                    "velocity": 0.30708661417322836,
                    "duration": 0.30747150000001966
                },
                {
                    "name": "B3",
                    "midi": 59,
                    "time": 301.32207000000113,
                    "velocity": 0.29133858267716534,
                    "duration": 0.30747150000001966
                },
                {
                    "name": "D#3",
                    "midi": 51,
                    "time": 301.32207000000113,
                    "velocity": 0.2047244094488189,
                    "duration": 0.922414500000059
                },
                {
                    "name": "A3",
                    "midi": 57,
                    "time": 301.62954150000115,
                    "velocity": 0.3228346456692913,
                    "duration": 0.30747150000001966
                },
                {
                    "name": "G#3",
                    "midi": 56,
                    "time": 301.9370130000012,
                    "velocity": 0.30708661417322836,
                    "duration": 0.922414500000059
                },
                {
                    "name": "E3",
                    "midi": 52,
                    "time": 302.2444845000012,
                    "velocity": 0.2125984251968504,
                    "duration": 0.30747150000001966
                },
                {
                    "name": "D4",
                    "midi": 62,
                    "time": 302.2444845000012,
                    "velocity": 0.33070866141732286,
                    "duration": 0.30747150000001966
                },
                {
                    "name": "C#4",
                    "midi": 61,
                    "time": 302.5519560000012,
                    "velocity": 0.29133858267716534,
                    "duration": 0.30747150000001966
                },
                {
                    "name": "F3",
                    "midi": 53,
                    "time": 302.5519560000012,
                    "velocity": 0.2125984251968504,
                    "duration": 0.30747150000001966
                },
                {
                    "name": "D4",
                    "midi": 62,
                    "time": 302.85942750000123,
                    "velocity": 0.3228346456692913,
                    "duration": 0.30747150000001966
                },
                {
                    "name": "D#3",
                    "midi": 51,
                    "time": 302.85942750000123,
                    "velocity": 0.2204724409448819,
                    "duration": 0.30747150000001966
                },
                {
                    "name": "C#4",
                    "midi": 61,
                    "time": 303.16689900000125,
                    "velocity": 0.2992125984251969,
                    "duration": 0.30747150000001966
                },
                {
                    "name": "F3",
                    "midi": 53,
                    "time": 303.16689900000125,
                    "velocity": 0.2125984251968504,
                    "duration": 0.922414500000059
                },
                {
                    "name": "B3",
                    "midi": 59,
                    "time": 303.47437050000127,
                    "velocity": 0.31496062992125984,
                    "duration": 0.30747150000001966
                },
                {
                    "name": "A#3",
                    "midi": 58,
                    "time": 303.7818420000013,
                    "velocity": 0.29133858267716534,
                    "duration": 0.30747150000001966
                },
                {
                    "name": "F#3",
                    "midi": 54,
                    "time": 304.0893135000013,
                    "velocity": 0.2047244094488189,
                    "duration": 1.2298860000000786
                },
                {
                    "name": "A#3",
                    "midi": 58,
                    "time": 304.0893135000013,
                    "velocity": 0.29133858267716534,
                    "duration": 0.30747150000001966
                },
                {
                    "name": "C#4",
                    "midi": 61,
                    "time": 304.39678500000133,
                    "velocity": 0.29133858267716534,
                    "duration": 0.30747150000001966
                },
                {
                    "name": "F#4",
                    "midi": 66,
                    "time": 304.70425650000135,
                    "velocity": 0.30708661417322836,
                    "duration": 0.30747150000001966
                },
                {
                    "name": "A#4",
                    "midi": 70,
                    "time": 305.01172800000137,
                    "velocity": 0.2992125984251969,
                    "duration": 0.30747150000001966
                },
                {
                    "name": "B4",
                    "midi": 71,
                    "time": 305.3191995000014,
                    "velocity": 0.33858267716535434,
                    "duration": 0.30747150000001966
                },
                {
                    "name": "A#4",
                    "midi": 70,
                    "time": 305.6266710000014,
                    "velocity": 0.3228346456692913,
                    "duration": 0.30747150000001966
                },
                {
                    "name": "F#4",
                    "midi": 66,
                    "time": 305.9341425000014,
                    "velocity": 0.33858267716535434,
                    "duration": 0.30747150000001966
                },
                {
                    "name": "C#4",
                    "midi": 61,
                    "time": 306.24161400000145,
                    "velocity": 0.29133858267716534,
                    "duration": 0.30747150000001966
                },
                {
                    "name": "B3",
                    "midi": 59,
                    "time": 306.54908550000147,
                    "velocity": 0.30708661417322836,
                    "duration": 0.30747150000001966
                },
                {
                    "name": "C#3",
                    "midi": 49,
                    "time": 306.54908550000147,
                    "velocity": 0.2204724409448819,
                    "duration": 1.2298860000000786
                },
                {
                    "name": "C#4",
                    "midi": 61,
                    "time": 306.8565570000015,
                    "velocity": 0.2992125984251969,
                    "duration": 0.30747150000001966
                },
                {
                    "name": "F#4",
                    "midi": 66,
                    "time": 307.1640285000015,
                    "velocity": 0.3464566929133858,
                    "duration": 0.30747150000001966
                },
                {
                    "name": "F4",
                    "midi": 65,
                    "time": 307.4715000000015,
                    "velocity": 0.30708661417322836,
                    "duration": 0.30747150000001966
                },
                {
                    "name": "A#3",
                    "midi": 58,
                    "time": 307.77897150000155,
                    "velocity": 0.29133858267716534,
                    "duration": 0.30747150000001966
                },
                {
                    "name": "F#3",
                    "midi": 54,
                    "time": 307.77897150000155,
                    "velocity": 0.2047244094488189,
                    "duration": 1.2298860000000786
                },
                {
                    "name": "C#4",
                    "midi": 61,
                    "time": 308.08644300000157,
                    "velocity": 0.29133858267716534,
                    "duration": 0.30747150000001966
                },
                {
                    "name": "F#4",
                    "midi": 66,
                    "time": 308.3939145000016,
                    "velocity": 0.30708661417322836,
                    "duration": 0.30747150000001966
                },
                {
                    "name": "A#4",
                    "midi": 70,
                    "time": 308.7013860000016,
                    "velocity": 0.2992125984251969,
                    "duration": 0.30747150000001966
                },
                {
                    "name": "B4",
                    "midi": 71,
                    "time": 309.0088575000016,
                    "velocity": 0.33858267716535434,
                    "duration": 0.30747150000001966
                },
                {
                    "name": "A#4",
                    "midi": 70,
                    "time": 309.31632900000164,
                    "velocity": 0.3228346456692913,
                    "duration": 0.30747150000001966
                },
                {
                    "name": "F#4",
                    "midi": 66,
                    "time": 309.62380050000166,
                    "velocity": 0.33858267716535434,
                    "duration": 0.30747150000001966
                },
                {
                    "name": "C#4",
                    "midi": 61,
                    "time": 309.9312720000017,
                    "velocity": 0.29133858267716534,
                    "duration": 0.30747150000001966
                },
                {
                    "name": "A#3",
                    "midi": 58,
                    "time": 310.2387435000017,
                    "velocity": 0.30708661417322836,
                    "duration": 0.30747150000001966
                },
                {
                    "name": "F#3",
                    "midi": 54,
                    "time": 310.5462150000017,
                    "velocity": 0.2992125984251969,
                    "duration": 0.30747150000001966
                },
                {
                    "name": "C#3",
                    "midi": 49,
                    "time": 310.85368650000174,
                    "velocity": 0.3464566929133858,
                    "duration": 0.30747150000001966
                },
                {
                    "name": "A#2",
                    "midi": 46,
                    "time": 311.16115800000176,
                    "velocity": 0.30708661417322836,
                    "duration": 0.30747150000001966
                },
                {
                    "name": "F2",
                    "midi": 41,
                    "time": 311.4686295000018,
                    "velocity": 0.2677165354330709,
                    "duration": 2.4597720000001573
                },
                {
                    "name": "D3",
                    "midi": 50,
                    "time": 311.4686295000018,
                    "velocity": 0.30708661417322836,
                    "duration": 0.30747150000001966
                },
                {
                    "name": "F3",
                    "midi": 53,
                    "time": 311.7761010000018,
                    "velocity": 0.30708661417322836,
                    "duration": 0.30747150000001966
                },
                {
                    "name": "A#3",
                    "midi": 58,
                    "time": 312.0835725000018,
                    "velocity": 0.3228346456692913,
                    "duration": 0.30747150000001966
                },
                {
                    "name": "D4",
                    "midi": 62,
                    "time": 312.39104400000184,
                    "velocity": 0.33858267716535434,
                    "duration": 0.30747150000001966
                },
                {
                    "name": "D#4",
                    "midi": 63,
                    "time": 312.69851550000186,
                    "velocity": 0.36220472440944884,
                    "duration": 0.30747150000001966
                },
                {
                    "name": "D4",
                    "midi": 62,
                    "time": 313.0059870000019,
                    "velocity": 0.3464566929133858,
                    "duration": 0.30490923749999865
                },
                {
                    "name": "A#3",
                    "midi": 58,
                    "time": 313.3134585000019,
                    "velocity": 0.33070866141732286,
                    "duration": 0.30490923749999865
                },
                {
                    "name": "F3",
                    "midi": 53,
                    "time": 313.6209300000019,
                    "velocity": 0.28346456692913385,
                    "duration": 0.30747150000001966
                },
                {
                    "name": "D3",
                    "midi": 50,
                    "time": 313.92840150000194,
                    "velocity": 0.31496062992125984,
                    "duration": 0.33309412500000235
                },
                {
                    "name": "F#2",
                    "midi": 42,
                    "time": 313.92840150000194,
                    "velocity": 0.2677165354330709,
                    "duration": 1.229885999999908
                },
                {
                    "name": "D#3",
                    "midi": 51,
                    "time": 314.23587300000196,
                    "velocity": 0.2440944881889764,
                    "duration": 0.3330941249999455
                },
                {
                    "name": "D3",
                    "midi": 50,
                    "time": 314.5433445000019,
                    "velocity": 0.28346456692913385,
                    "duration": 0.3330941249999455
                },
                {
                    "name": "C#3",
                    "midi": 49,
                    "time": 314.8508160000019,
                    "velocity": 0.25984251968503935,
                    "duration": 0.3074714999999628
                },
                {
                    "name": "D3",
                    "midi": 50,
                    "time": 315.15828750000185,
                    "velocity": 0.30708661417322836,
                    "duration": 0.30747150000001966
                },
                {
                    "name": "F3",
                    "midi": 53,
                    "time": 315.46575900000187,
                    "velocity": 0.30708661417322836,
                    "duration": 0.30747150000001966
                },
                {
                    "name": "A#3",
                    "midi": 58,
                    "time": 315.7732305000019,
                    "velocity": 0.3228346456692913,
                    "duration": 0.30747150000001966
                },
                {
                    "name": "F2",
                    "midi": 41,
                    "time": 315.7732305000019,
                    "velocity": 0.2677165354330709,
                    "duration": 0.6149430000000393
                },
                {
                    "name": "D4",
                    "midi": 62,
                    "time": 316.0807020000019,
                    "velocity": 0.33858267716535434,
                    "duration": 0.30747150000001966
                },
                {
                    "name": "D#4",
                    "midi": 63,
                    "time": 316.3881735000019,
                    "velocity": 0.36220472440944884,
                    "duration": 0.30747150000001966
                },
                {
                    "name": "D4",
                    "midi": 62,
                    "time": 316.69564500000195,
                    "velocity": 0.3464566929133858,
                    "duration": 0.30490923749999865
                },
                {
                    "name": "A#3",
                    "midi": 58,
                    "time": 317.00311650000197,
                    "velocity": 0.33070866141732286,
                    "duration": 0.30490923749999865
                },
                {
                    "name": "F3",
                    "midi": 53,
                    "time": 317.310588000002,
                    "velocity": 0.28346456692913385,
                    "duration": 0.30747150000001966
                },
                {
                    "name": "D3",
                    "midi": 50,
                    "time": 317.618059500002,
                    "velocity": 0.31496062992125984,
                    "duration": 0.33309412500000235
                },
                {
                    "name": "F#2",
                    "midi": 42,
                    "time": 317.618059500002,
                    "velocity": 0.2677165354330709,
                    "duration": 1.8448289999999474
                },
                {
                    "name": "D#3",
                    "midi": 51,
                    "time": 317.925531000002,
                    "velocity": 0.25196850393700787,
                    "duration": 0.3330941249999455
                },
                {
                    "name": "D3",
                    "midi": 50,
                    "time": 318.233002500002,
                    "velocity": 0.29133858267716534,
                    "duration": 0.3330941249999455
                },
                {
                    "name": "C#3",
                    "midi": 49,
                    "time": 318.54047400000195,
                    "velocity": 0.2440944881889764,
                    "duration": 0.3074714999999628
                },
                {
                    "name": "D3",
                    "midi": 50,
                    "time": 318.8479455000019,
                    "velocity": 0.30708661417322836,
                    "duration": 0.30747150000001966
                },
                {
                    "name": "F3",
                    "midi": 53,
                    "time": 319.15541700000193,
                    "velocity": 0.30708661417322836,
                    "duration": 0.30747150000001966
                },
                {
                    "name": "G2",
                    "midi": 43,
                    "time": 319.46288850000195,
                    "velocity": 0.2677165354330709,
                    "duration": 0.6149430000000393
                },
                {
                    "name": "D3",
                    "midi": 50,
                    "time": 319.46288850000195,
                    "velocity": 0.3228346456692913,
                    "duration": 0.30747150000001966
                },
                {
                    "name": "A#3",
                    "midi": 58,
                    "time": 319.770360000002,
                    "velocity": 0.33858267716535434,
                    "duration": 0.30747150000001966
                },
                {
                    "name": "C4",
                    "midi": 60,
                    "time": 320.077831500002,
                    "velocity": 0.36220472440944884,
                    "duration": 0.30747150000001966
                },
                {
                    "name": "A#3",
                    "midi": 58,
                    "time": 320.385303000002,
                    "velocity": 0.3464566929133858,
                    "duration": 0.30490923749999865
                },
                {
                    "name": "G3",
                    "midi": 55,
                    "time": 320.69277450000203,
                    "velocity": 0.33070866141732286,
                    "duration": 0.30490923749999865
                },
                {
                    "name": "D3",
                    "midi": 50,
                    "time": 321.00024600000205,
                    "velocity": 0.28346456692913385,
                    "duration": 0.30747150000001966
                },
                {
                    "name": "F#2",
                    "midi": 42,
                    "time": 321.30771750000207,
                    "velocity": 0.2677165354330709,
                    "duration": 1.8448290000000043
                },
                {
                    "name": "A#2",
                    "midi": 46,
                    "time": 321.30771750000207,
                    "velocity": 0.31496062992125984,
                    "duration": 0.15373575000000983
                },
                {
                    "name": "C3",
                    "midi": 48,
                    "time": 321.4614532500021,
                    "velocity": 0.2677165354330709,
                    "duration": 0.15373575000000983
                },
                {
                    "name": "A#2",
                    "midi": 46,
                    "time": 321.6151890000021,
                    "velocity": 0.31496062992125984,
                    "duration": 0.15373575000000983
                },
                {
                    "name": "A2",
                    "midi": 45,
                    "time": 321.7689247500021,
                    "velocity": 0.2677165354330709,
                    "duration": 0.15373575000000983
                },
                {
                    "name": "A#2",
                    "midi": 46,
                    "time": 321.9226605000021,
                    "velocity": 0.2677165354330709,
                    "duration": 0.1024904999999876
                },
                {
                    "name": "D3",
                    "midi": 50,
                    "time": 322.0251510000021,
                    "velocity": 0.29133858267716534,
                    "duration": 0.1024904999999876
                },
                {
                    "name": "G3",
                    "midi": 55,
                    "time": 322.1276415000021,
                    "velocity": 0.31496062992125984,
                    "duration": 0.1024904999999876
                },
                {
                    "name": "B2",
                    "midi": 47,
                    "time": 322.2301320000021,
                    "velocity": 0.33858267716535434,
                    "duration": 0.9224145000000021
                },
                {
                    "name": "D3",
                    "midi": 50,
                    "time": 322.33262250000206,
                    "velocity": 0.3700787401574803,
                    "duration": 0.8199240000000145
                },
                {
                    "name": "G3",
                    "midi": 55,
                    "time": 322.43511300000205,
                    "velocity": 0.3858267716535433,
                    "duration": 0.40996200000000727
                },
                {
                    "name": "D4",
                    "midi": 62,
                    "time": 322.53760350000204,
                    "velocity": 0.3464566929133858,
                    "duration": 0.6149430000000393
                },
                {
                    "name": "F3",
                    "midi": 53,
                    "time": 322.84507500000205,
                    "velocity": 0.31496062992125984,
                    "duration": 0.30747150000001966
                },
                {
                    "name": "D#3",
                    "midi": 51,
                    "time": 323.1525465000021,
                    "velocity": 0.2677165354330709,
                    "duration": 0.30747150000001966
                },
                {
                    "name": "C3",
                    "midi": 48,
                    "time": 323.1525465000021,
                    "velocity": 0.2677165354330709,
                    "duration": 0.30747150000001966
                },
                {
                    "name": "C4",
                    "midi": 60,
                    "time": 323.1525465000021,
                    "velocity": 0.33070866141732286,
                    "duration": 0.30747150000001966
                },
                {
                    "name": "A#3",
                    "midi": 58,
                    "time": 323.4600180000021,
                    "velocity": 0.33858267716535434,
                    "duration": 0.30747150000001966
                },
                {
                    "name": "D#3",
                    "midi": 51,
                    "time": 323.4600180000021,
                    "velocity": 0.28346456692913385,
                    "duration": 0.30747150000001966
                },
                {
                    "name": "F3",
                    "midi": 53,
                    "time": 323.7674895000021,
                    "velocity": 0.30708661417322836,
                    "duration": 0.6149429999999825
                },
                {
                    "name": "D4",
                    "midi": 62,
                    "time": 323.7674895000021,
                    "velocity": 0.3700787401574803,
                    "duration": 0.6149429999999825
                },
                {
                    "name": "C4",
                    "midi": 60,
                    "time": 324.3824325000021,
                    "velocity": 0.3464566929133858,
                    "duration": 0.9224145000000021
                },
                {
                    "name": "F2",
                    "midi": 41,
                    "time": 324.3824325000021,
                    "velocity": 0.29133858267716534,
                    "duration": 0.6149429999999825
                },
                {
                    "name": "A#2",
                    "midi": 46,
                    "time": 324.9973755000021,
                    "velocity": 0.33070866141732286,
                    "duration": 0.6149430000000393
                },
                {
                    "name": "A#3",
                    "midi": 58,
                    "time": 325.3048470000021,
                    "velocity": 0.30708661417322836,
                    "duration": 0.30747150000001966
                },
                {
                    "name": "F3",
                    "midi": 53,
                    "time": 325.6123185000021,
                    "velocity": 0.3464566929133858,
                    "duration": 0.30747150000001966
                },
                {
                    "name": "D3",
                    "midi": 50,
                    "time": 325.91979000000214,
                    "velocity": 0.31496062992125984,
                    "duration": 0.30747150000001966
                },
                {
                    "name": "A#3",
                    "midi": 58,
                    "time": 326.22726150000216,
                    "velocity": 0.31496062992125984,
                    "duration": 0.30747150000001966
                },
                {
                    "name": "A#2",
                    "midi": 46,
                    "time": 326.22726150000216,
                    "velocity": 0.2677165354330709,
                    "duration": 0.30747150000001966
                },
                {
                    "name": "A3",
                    "midi": 57,
                    "time": 326.5347330000022,
                    "velocity": 0.31496062992125984,
                    "duration": 0.30747150000001966
                },
                {
                    "name": "G3",
                    "midi": 55,
                    "time": 326.8422045000022,
                    "velocity": 0.25196850393700787,
                    "duration": 0.30747150000001966
                },
                {
                    "name": "C3",
                    "midi": 48,
                    "time": 326.8422045000022,
                    "velocity": 0.2125984251968504,
                    "duration": 1.2298860000000786
                },
                {
                    "name": "F3",
                    "midi": 53,
                    "time": 327.1496760000022,
                    "velocity": 0.25984251968503935,
                    "duration": 0.30747150000001966
                },
                {
                    "name": "E3",
                    "midi": 52,
                    "time": 327.45714750000224,
                    "velocity": 0.2755905511811024,
                    "duration": 0.30747150000001966
                },
                {
                    "name": "D3",
                    "midi": 50,
                    "time": 327.76461900000226,
                    "velocity": 0.29133858267716534,
                    "duration": 0.30747150000001966
                },
                {
                    "name": "C3",
                    "midi": 48,
                    "time": 328.0720905000023,
                    "velocity": 0.30708661417322836,
                    "duration": 0.30747150000001966
                },
                {
                    "name": "C2",
                    "midi": 36,
                    "time": 328.0720905000023,
                    "velocity": 0.25984251968503935,
                    "duration": 1.844829000000118
                },
                {
                    "name": "A#2",
                    "midi": 46,
                    "time": 328.3795620000023,
                    "velocity": 0.31496062992125984,
                    "duration": 0.30747150000001966
                },
                {
                    "name": "A2",
                    "midi": 45,
                    "time": 328.6870335000023,
                    "velocity": 0.3228346456692913,
                    "duration": 0.30747150000001966
                },
                {
                    "name": "A#2",
                    "midi": 46,
                    "time": 328.99450500000233,
                    "velocity": 0.31496062992125984,
                    "duration": 0.30747150000001966
                },
                {
                    "name": "C3",
                    "midi": 48,
                    "time": 329.30197650000235,
                    "velocity": 0.30708661417322836,
                    "duration": 0.30747150000001966
                },
                {
                    "name": "D3",
                    "midi": 50,
                    "time": 329.6094480000024,
                    "velocity": 0.2992125984251969,
                    "duration": 0.30747150000001966
                },
                {
                    "name": "E3",
                    "midi": 52,
                    "time": 329.9169195000024,
                    "velocity": 0.29133858267716534,
                    "duration": 0.30747150000001966
                },
                {
                    "name": "C2",
                    "midi": 36,
                    "time": 329.9169195000024,
                    "velocity": 0.2440944881889764,
                    "duration": 0.6149430000000393
                },
                {
                    "name": "F3",
                    "midi": 53,
                    "time": 330.2243910000024,
                    "velocity": 0.28346456692913385,
                    "duration": 0.30747150000001966
                },
                {
                    "name": "G3",
                    "midi": 55,
                    "time": 330.53186250000243,
                    "velocity": 0.2755905511811024,
                    "duration": 0.30747150000001966
                },
                {
                    "name": "C3",
                    "midi": 48,
                    "time": 330.53186250000243,
                    "velocity": 0.2283464566929134,
                    "duration": 1.2298860000000786
                },
                {
                    "name": "A3",
                    "midi": 57,
                    "time": 330.83933400000245,
                    "velocity": 0.2755905511811024,
                    "duration": 0.30747150000001966
                },
                {
                    "name": "A#3",
                    "midi": 58,
                    "time": 331.1468055000025,
                    "velocity": 0.29133858267716534,
                    "duration": 0.30747150000001966
                },
                {
                    "name": "B3",
                    "midi": 59,
                    "time": 331.4542770000025,
                    "velocity": 0.2755905511811024,
                    "duration": 0.30747150000001966
                },
                {
                    "name": "C4",
                    "midi": 60,
                    "time": 331.7617485000025,
                    "velocity": 0.33070866141732286,
                    "duration": 0.30747150000001966
                },
                {
                    "name": "C3",
                    "midi": 48,
                    "time": 331.7617485000025,
                    "velocity": 0.28346456692913385,
                    "duration": 0.6149430000000393
                },
                {
                    "name": "A#3",
                    "midi": 58,
                    "time": 332.06922000000253,
                    "velocity": 0.2992125984251969,
                    "duration": 0.30747150000001966
                },
                {
                    "name": "F2",
                    "midi": 41,
                    "time": 332.37669150000255,
                    "velocity": 0.30708661417322836,
                    "duration": 0.30747150000001966
                },
                {
                    "name": "A3",
                    "midi": 57,
                    "time": 332.37669150000255,
                    "velocity": 0.4330708661417323,
                    "duration": 0.30747150000001966
                },
                {
                    "name": "G2",
                    "midi": 43,
                    "time": 332.68416300000257,
                    "velocity": 0.2992125984251969,
                    "duration": 0.30747150000001966
                },
                {
                    "name": "G3",
                    "midi": 55,
                    "time": 332.68416300000257,
                    "velocity": 0.4251968503937008,
                    "duration": 0.30747150000001966
                },
                {
                    "name": "F3",
                    "midi": 53,
                    "time": 332.9916345000026,
                    "velocity": 0.4094488188976378,
                    "duration": 0.30747150000001966
                },
                {
                    "name": "G#2",
                    "midi": 44,
                    "time": 332.9916345000026,
                    "velocity": 0.28346456692913385,
                    "duration": 0.30747150000001966
                },
                {
                    "name": "D#3",
                    "midi": 51,
                    "time": 333.2991060000026,
                    "velocity": 0.3937007874015748,
                    "duration": 0.30747150000001966
                },
                {
                    "name": "A2",
                    "midi": 45,
                    "time": 333.2991060000026,
                    "velocity": 0.2755905511811024,
                    "duration": 0.30747150000001966
                },
                {
                    "name": "D3",
                    "midi": 50,
                    "time": 333.60657750000263,
                    "velocity": 0.29133858267716534,
                    "duration": 0.30747150000001966
                },
                {
                    "name": "A#2",
                    "midi": 46,
                    "time": 333.60657750000263,
                    "velocity": 0.31496062992125984,
                    "duration": 0.6149430000000393
                },
                {
                    "name": "F3",
                    "midi": 53,
                    "time": 333.91404900000265,
                    "velocity": 0.31496062992125984,
                    "duration": 0.30747150000001966
                },
                {
                    "name": "A#1",
                    "midi": 34,
                    "time": 334.22152050000267,
                    "velocity": 0.36220472440944884,
                    "duration": 0.6149430000000393
                },
                {
                    "name": "A#3",
                    "midi": 58,
                    "time": 334.22152050000267,
                    "velocity": 0.33858267716535434,
                    "duration": 0.30747150000001966
                },
                {
                    "name": "A3",
                    "midi": 57,
                    "time": 334.5289920000027,
                    "velocity": 0.30708661417322836,
                    "duration": 0.30747150000001966
                },
                {
                    "name": "G3",
                    "midi": 55,
                    "time": 334.8364635000027,
                    "velocity": 0.30708661417322836,
                    "duration": 0.30747150000001966
                },
                {
                    "name": "F3",
                    "midi": 53,
                    "time": 335.1439350000027,
                    "velocity": 0.30708661417322836,
                    "duration": 0.30747150000001966
                },
                {
                    "name": "D#3",
                    "midi": 51,
                    "time": 335.45140650000275,
                    "velocity": 0.30708661417322836,
                    "duration": 0.30747150000001966
                },
                {
                    "name": "A#2",
                    "midi": 46,
                    "time": 335.45140650000275,
                    "velocity": 0.33070866141732286,
                    "duration": 0.6149430000000393
                },
                {
                    "name": "D3",
                    "midi": 50,
                    "time": 335.75887800000277,
                    "velocity": 0.3464566929133858,
                    "duration": 0.30747150000001966
                },
                {
                    "name": "C3",
                    "midi": 48,
                    "time": 336.0663495000028,
                    "velocity": 0.3779527559055118,
                    "duration": 0.30747150000001966
                },
                {
                    "name": "A#1",
                    "midi": 34,
                    "time": 336.0663495000028,
                    "velocity": 0.4094488188976378,
                    "duration": 0.6149430000000393
                },
                {
                    "name": "D3",
                    "midi": 50,
                    "time": 336.3738210000028,
                    "velocity": 0.30708661417322836,
                    "duration": 0.30747150000001966
                },
                {
                    "name": "D#3",
                    "midi": 51,
                    "time": 336.6812925000028,
                    "velocity": 0.30708661417322836,
                    "duration": 0.30747150000001966
                },
                {
                    "name": "F3",
                    "midi": 53,
                    "time": 336.98876400000285,
                    "velocity": 0.28346456692913385,
                    "duration": 0.30747150000001966
                },
                {
                    "name": "G3",
                    "midi": 55,
                    "time": 337.29623550000287,
                    "velocity": 0.30708661417322836,
                    "duration": 0.30747150000001966
                },
                {
                    "name": "A#2",
                    "midi": 46,
                    "time": 337.29623550000287,
                    "velocity": 0.33070866141732286,
                    "duration": 0.6149430000000393
                },
                {
                    "name": "G#3",
                    "midi": 56,
                    "time": 337.6037070000029,
                    "velocity": 0.3464566929133858,
                    "duration": 0.30747150000001966
                },
                {
                    "name": "A3",
                    "midi": 57,
                    "time": 337.9111785000029,
                    "velocity": 0.30708661417322836,
                    "duration": 0.30747150000001966
                },
                {
                    "name": "A#1",
                    "midi": 34,
                    "time": 337.9111785000029,
                    "velocity": 0.33070866141732286,
                    "duration": 0.6149430000000393
                },
                {
                    "name": "G3",
                    "midi": 55,
                    "time": 338.2186500000029,
                    "velocity": 0.30708661417322836,
                    "duration": 0.30747150000001966
                },
                {
                    "name": "F3",
                    "midi": 53,
                    "time": 338.52612150000294,
                    "velocity": 0.3228346456692913,
                    "duration": 0.30747150000001966
                },
                {
                    "name": "D#3",
                    "midi": 51,
                    "time": 338.83359300000296,
                    "velocity": 0.30708661417322836,
                    "duration": 0.30747150000001966
                },
                {
                    "name": "A#2",
                    "midi": 46,
                    "time": 339.141064500003,
                    "velocity": 0.2992125984251969,
                    "duration": 0.6149430000000393
                },
                {
                    "name": "D3",
                    "midi": 50,
                    "time": 339.141064500003,
                    "velocity": 0.3464566929133858,
                    "duration": 0.30747150000001966
                },
                {
                    "name": "C3",
                    "midi": 48,
                    "time": 339.448536000003,
                    "velocity": 0.2992125984251969,
                    "duration": 0.30747150000001966
                },
                {
                    "name": "A#2",
                    "midi": 46,
                    "time": 339.756007500003,
                    "velocity": 0.36220472440944884,
                    "duration": 0.30747150000001966
                },
                {
                    "name": "A#1",
                    "midi": 34,
                    "time": 339.756007500003,
                    "velocity": 0.3937007874015748,
                    "duration": 0.6149430000000393
                },
                {
                    "name": "D3",
                    "midi": 50,
                    "time": 340.06347900000304,
                    "velocity": 0.2755905511811024,
                    "duration": 0.30747150000001966
                },
                {
                    "name": "F3",
                    "midi": 53,
                    "time": 340.37095050000306,
                    "velocity": 0.30708661417322836,
                    "duration": 0.30747150000001966
                },
                {
                    "name": "A#3",
                    "midi": 58,
                    "time": 340.6784220000031,
                    "velocity": 0.2755905511811024,
                    "duration": 0.30747150000001966
                },
                {
                    "name": "A#3",
                    "midi": 58,
                    "time": 340.9858935000031,
                    "velocity": 0.31496062992125984,
                    "duration": 0.6149430000000393
                },
                {
                    "name": "D4",
                    "midi": 62,
                    "time": 340.9858935000031,
                    "velocity": 0.29133858267716534,
                    "duration": 0.30747150000001966
                },
                {
                    "name": "F4",
                    "midi": 65,
                    "time": 341.2933650000031,
                    "velocity": 0.31496062992125984,
                    "duration": 0.30747150000001966
                },
                {
                    "name": "A#4",
                    "midi": 70,
                    "time": 341.60083650000314,
                    "velocity": 0.33858267716535434,
                    "duration": 0.30747150000001966
                },
                {
                    "name": "A#3",
                    "midi": 58,
                    "time": 341.60083650000314,
                    "velocity": 0.36220472440944884,
                    "duration": 1.2298860000000786
                },
                {
                    "name": "A4",
                    "midi": 69,
                    "time": 341.90830800000316,
                    "velocity": 0.30708661417322836,
                    "duration": 0.30747150000001966
                },
                {
                    "name": "G4",
                    "midi": 67,
                    "time": 342.2157795000032,
                    "velocity": 0.30708661417322836,
                    "duration": 0.30747150000001966
                },
                {
                    "name": "F4",
                    "midi": 65,
                    "time": 342.5232510000032,
                    "velocity": 0.30708661417322836,
                    "duration": 0.30747150000001966
                },
                {
                    "name": "D#4",
                    "midi": 63,
                    "time": 342.8307225000032,
                    "velocity": 0.30708661417322836,
                    "duration": 0.30747150000001966
                },
                {
                    "name": "A#3",
                    "midi": 58,
                    "time": 342.8307225000032,
                    "velocity": 0.33070866141732286,
                    "duration": 0.6149430000000393
                },
                {
                    "name": "D4",
                    "midi": 62,
                    "time": 343.13819400000324,
                    "velocity": 0.3464566929133858,
                    "duration": 0.30747150000001966
                },
                {
                    "name": "A#2",
                    "midi": 46,
                    "time": 343.44566550000326,
                    "velocity": 0.4094488188976378,
                    "duration": 0.6149430000000393
                },
                {
                    "name": "C4",
                    "midi": 60,
                    "time": 343.44566550000326,
                    "velocity": 0.3779527559055118,
                    "duration": 0.30747150000001966
                },
                {
                    "name": "D4",
                    "midi": 62,
                    "time": 343.7531370000033,
                    "velocity": 0.30708661417322836,
                    "duration": 0.30747150000001966
                },
                {
                    "name": "D#4",
                    "midi": 63,
                    "time": 344.0606085000033,
                    "velocity": 0.30708661417322836,
                    "duration": 0.30747150000001966
                },
                {
                    "name": "F4",
                    "midi": 65,
                    "time": 344.3680800000033,
                    "velocity": 0.28346456692913385,
                    "duration": 0.30747150000001966
                },
                {
                    "name": "A#3",
                    "midi": 58,
                    "time": 344.67555150000334,
                    "velocity": 0.33070866141732286,
                    "duration": 0.6149430000000393
                },
                {
                    "name": "G4",
                    "midi": 67,
                    "time": 344.67555150000334,
                    "velocity": 0.30708661417322836,
                    "duration": 0.30747150000001966
                },
                {
                    "name": "G#4",
                    "midi": 68,
                    "time": 344.98302300000336,
                    "velocity": 0.3464566929133858,
                    "duration": 0.30747150000001966
                },
                {
                    "name": "A#2",
                    "midi": 46,
                    "time": 345.2904945000034,
                    "velocity": 0.33070866141732286,
                    "duration": 0.6149430000000393
                },
                {
                    "name": "A4",
                    "midi": 69,
                    "time": 345.2904945000034,
                    "velocity": 0.30708661417322836,
                    "duration": 0.30747150000001966
                },
                {
                    "name": "G4",
                    "midi": 67,
                    "time": 345.5979660000034,
                    "velocity": 0.30708661417322836,
                    "duration": 0.30747150000001966
                },
                {
                    "name": "F4",
                    "midi": 65,
                    "time": 345.9054375000034,
                    "velocity": 0.3228346456692913,
                    "duration": 0.30747150000001966
                },
                {
                    "name": "D#4",
                    "midi": 63,
                    "time": 346.21290900000344,
                    "velocity": 0.30708661417322836,
                    "duration": 0.30747150000001966
                },
                {
                    "name": "A#3",
                    "midi": 58,
                    "time": 346.52038050000345,
                    "velocity": 0.3228346456692913,
                    "duration": 0.6149430000000393
                },
                {
                    "name": "D4",
                    "midi": 62,
                    "time": 346.52038050000345,
                    "velocity": 0.3464566929133858,
                    "duration": 0.30747150000001966
                },
                {
                    "name": "C4",
                    "midi": 60,
                    "time": 346.8278520000035,
                    "velocity": 0.2992125984251969,
                    "duration": 0.30747150000001966
                },
                {
                    "name": "A#2",
                    "midi": 46,
                    "time": 347.1353235000035,
                    "velocity": 0.3937007874015748,
                    "duration": 0.6149430000000393
                },
                {
                    "name": "A#3",
                    "midi": 58,
                    "time": 347.1353235000035,
                    "velocity": 0.36220472440944884,
                    "duration": 0.30747150000001966
                },
                {
                    "name": "C4",
                    "midi": 60,
                    "time": 347.4427950000035,
                    "velocity": 0.2755905511811024,
                    "duration": 0.30747150000001966
                },
                {
                    "name": "D4",
                    "midi": 62,
                    "time": 347.75026650000353,
                    "velocity": 0.30708661417322836,
                    "duration": 0.30747150000001966
                },
                {
                    "name": "D#4",
                    "midi": 63,
                    "time": 348.05773800000355,
                    "velocity": 0.2755905511811024,
                    "duration": 0.30747150000001966
                },
                {
                    "name": "E4",
                    "midi": 64,
                    "time": 348.3652095000036,
                    "velocity": 0.30708661417322836,
                    "duration": 0.30747150000001966
                },
                {
                    "name": "A#3",
                    "midi": 58,
                    "time": 348.3652095000036,
                    "velocity": 0.33070866141732286,
                    "duration": 0.6149430000000393
                },
                {
                    "name": "F4",
                    "midi": 65,
                    "time": 348.6726810000036,
                    "velocity": 0.2755905511811024,
                    "duration": 0.30747150000001966
                },
                {
                    "name": "G4",
                    "midi": 67,
                    "time": 348.9801525000036,
                    "velocity": 0.30708661417322836,
                    "duration": 0.30747150000001966
                },
                {
                    "name": "A#2",
                    "midi": 46,
                    "time": 348.9801525000036,
                    "velocity": 0.33070866141732286,
                    "duration": 0.6149430000000393
                },
                {
                    "name": "F4",
                    "midi": 65,
                    "time": 349.28762400000363,
                    "velocity": 0.2677165354330709,
                    "duration": 0.30747150000001966
                },
                {
                    "name": "D#4",
                    "midi": 63,
                    "time": 349.59509550000365,
                    "velocity": 0.30708661417322836,
                    "duration": 0.30747150000001966
                },
                {
                    "name": "D4",
                    "midi": 62,
                    "time": 349.90256700000367,
                    "velocity": 0.2677165354330709,
                    "duration": 0.30747150000001966
                },
                {
                    "name": "A#3",
                    "midi": 58,
                    "time": 350.1331706250037,
                    "velocity": 0.25984251968503935,
                    "duration": 0.3843393750000246
                },
                {
                    "name": "C4",
                    "midi": 60,
                    "time": 350.2100385000037,
                    "velocity": 0.30708661417322836,
                    "duration": 0.30747150000001966
                },
                {
                    "name": "A#3",
                    "midi": 58,
                    "time": 350.5175100000037,
                    "velocity": 0.3543307086614173,
                    "duration": 0.30747150000001966
                },
                {
                    "name": "A#2",
                    "midi": 46,
                    "time": 350.82498150000373,
                    "velocity": 0.33070866141732286,
                    "duration": 0.6149430000000393
                },
                {
                    "name": "A3",
                    "midi": 57,
                    "time": 350.82498150000373,
                    "velocity": 0.30708661417322836,
                    "duration": 0.30747150000001966
                },
                {
                    "name": "A#3",
                    "midi": 58,
                    "time": 351.13245300000375,
                    "velocity": 0.2992125984251969,
                    "duration": 0.30747150000001966
                },
                {
                    "name": "C4",
                    "midi": 60,
                    "time": 351.43992450000377,
                    "velocity": 0.28346456692913385,
                    "duration": 0.30747150000001966
                },
                {
                    "name": "C#4",
                    "midi": 61,
                    "time": 351.7473960000038,
                    "velocity": 0.2755905511811024,
                    "duration": 0.30747150000001966
                },
                {
                    "name": "A#3",
                    "midi": 58,
                    "time": 352.0548675000038,
                    "velocity": 0.2755905511811024,
                    "duration": 1.8448290000000611
                },
                {
                    "name": "D4",
                    "midi": 62,
                    "time": 352.0548675000038,
                    "velocity": 0.2992125984251969,
                    "duration": 0.30747150000001966
                },
                {
                    "name": "D#4",
                    "midi": 63,
                    "time": 352.36233900000383,
                    "velocity": 0.2677165354330709,
                    "duration": 0.30747150000001966
                },
                {
                    "name": "D5",
                    "midi": 74,
                    "time": 354.0534322500039,
                    "velocity": 0.2755905511811024,
                    "duration": 0.15373575000000983
                },
                {
                    "name": "D#5",
                    "midi": 75,
                    "time": 354.2071680000039,
                    "velocity": 0.30708661417322836,
                    "duration": 0.15373575000000983
                },
                {
                    "name": "F5",
                    "midi": 77,
                    "time": 354.3609037500039,
                    "velocity": 0.33070866141732286,
                    "duration": 0.15373575000000983
                },
                {
                    "name": "F#5",
                    "midi": 78,
                    "time": 354.5146395000039,
                    "velocity": 0.36220472440944884,
                    "duration": 1.2298860000000218
                },
                {
                    "name": "A#4",
                    "midi": 70,
                    "time": 354.5146395000039,
                    "velocity": 0.30708661417322836,
                    "duration": 1.2298860000000218
                },
                {
                    "name": "A4",
                    "midi": 69,
                    "time": 355.74452550000393,
                    "velocity": 0.2204724409448819,
                    "duration": 0.6149429999999825
                },
                {
                    "name": "F5",
                    "midi": 77,
                    "time": 355.74452550000393,
                    "velocity": 0.2677165354330709,
                    "duration": 0.6149429999999825
                },
                {
                    "name": "A#2",
                    "midi": 46,
                    "time": 356.2826006250039,
                    "velocity": 0.25984251968503935,
                    "duration": 1.9216968750000092
                },
                {
                    "name": "D4",
                    "midi": 62,
                    "time": 356.3594685000039,
                    "velocity": 0.31496062992125984,
                    "duration": 1.8448290000000043
                },
                {
                    "name": "A#3",
                    "midi": 58,
                    "time": 358.2042975000039,
                    "velocity": 0.25196850393700787,
                    "duration": 3.382186499999989
                },
                {
                    "name": "F#4",
                    "midi": 66,
                    "time": 358.2042975000039,
                    "velocity": 0.2992125984251969,
                    "duration": 3.382186499999989
                },
                {
                    "name": "C2",
                    "midi": 36,
                    "time": 361.7402197500039,
                    "velocity": 0.2677165354330709,
                    "duration": 1.8448290000000043
                },
                {
                    "name": "E3",
                    "midi": 52,
                    "time": 361.8939555000039,
                    "velocity": 0.2677165354330709,
                    "duration": 1.6910932499999944
                },
                {
                    "name": "F2",
                    "midi": 41,
                    "time": 363.5850487500039,
                    "velocity": 0.2755905511811024,
                    "duration": 4.458336750000001
                },
                {
                    "name": "A3",
                    "midi": 57,
                    "time": 363.73878450000393,
                    "velocity": 0.2755905511811024,
                    "duration": 1.8448290000000043
                },
                {
                    "name": "D#3",
                    "midi": 51,
                    "time": 363.73878450000393,
                    "velocity": 0.2755905511811024,
                    "duration": 1.8448290000000043
                },
                {
                    "name": "A#1",
                    "midi": 34,
                    "time": 365.4298777500039,
                    "velocity": 0.2125984251968504,
                    "duration": 2.6135077499999966
                },
                {
                    "name": "D3",
                    "midi": 50,
                    "time": 365.58361350000393,
                    "velocity": 0.2125984251968504,
                    "duration": 2.4597719999999867
                }
            ],
            "controlChanges": {
                "91": [
                    {
                        "number": 91,
                        "time": 0,
                        "value": 1
                    }
                ]
            },
            "id": 2,
            "name": "Piano left",
            "instrumentNumber": 0,
            "instrument": "acoustic grand piano",
            "instrumentFamily": "piano",
            "channelNumber": 0,
            "isPercussion": false
        },
        {
            "startTime": 0,
            "duration": 0,
            "length": 0,
            "notes": [],
            "controlChanges": {
                "64": [
                    {
                        "number": 64,
                        "time": 1.229886,
                        "value": 1
                    },
                    {
                        "number": 64,
                        "time": 1.844829,
                        "value": 0
                    },
                    {
                        "number": 64,
                        "time": 2.0165005875,
                        "value": 1
                    },
                    {
                        "number": 64,
                        "time": 2.4725833125,
                        "value": 0
                    },
                    {
                        "number": 64,
                        "time": 2.64041150625,
                        "value": 1
                    },
                    {
                        "number": 64,
                        "time": 3.0875263125,
                        "value": 0
                    },
                    {
                        "number": 64,
                        "time": 3.1925790750000003,
                        "value": 1
                    },
                    {
                        "number": 64,
                        "time": 3.689658,
                        "value": 0
                    },
                    {
                        "number": 64,
                        "time": 4.919544,
                        "value": 1
                    },
                    {
                        "number": 64,
                        "time": 5.534487,
                        "value": 0
                    },
                    {
                        "number": 64,
                        "time": 5.7061585875,
                        "value": 1
                    },
                    {
                        "number": 64,
                        "time": 6.1622413125,
                        "value": 0
                    },
                    {
                        "number": 64,
                        "time": 6.33006950625,
                        "value": 1
                    },
                    {
                        "number": 64,
                        "time": 6.7771843125,
                        "value": 0
                    },
                    {
                        "number": 64,
                        "time": 6.882237075,
                        "value": 1
                    },
                    {
                        "number": 64,
                        "time": 7.379316,
                        "value": 0
                    },
                    {
                        "number": 64,
                        "time": 8.609202,
                        "value": 1
                    },
                    {
                        "number": 64,
                        "time": 9.224145,
                        "value": 0
                    },
                    {
                        "number": 64,
                        "time": 9.3958165875,
                        "value": 1
                    },
                    {
                        "number": 64,
                        "time": 9.8518993125,
                        "value": 0
                    },
                    {
                        "number": 64,
                        "time": 10.01972750625,
                        "value": 1
                    },
                    {
                        "number": 64,
                        "time": 10.466842312499999,
                        "value": 0
                    },
                    {
                        "number": 64,
                        "time": 10.571895074999999,
                        "value": 1
                    },
                    {
                        "number": 64,
                        "time": 11.068973999999999,
                        "value": 0
                    },
                    {
                        "number": 64,
                        "time": 11.2406455875,
                        "value": 1
                    },
                    {
                        "number": 64,
                        "time": 11.6967283125,
                        "value": 0
                    },
                    {
                        "number": 64,
                        "time": 11.864556506249999,
                        "value": 1
                    },
                    {
                        "number": 64,
                        "time": 12.311671312499998,
                        "value": 0
                    },
                    {
                        "number": 64,
                        "time": 12.416724074999998,
                        "value": 1
                    },
                    {
                        "number": 64,
                        "time": 12.913802999999998,
                        "value": 0
                    },
                    {
                        "number": 64,
                        "time": 13.085474587499998,
                        "value": 1
                    },
                    {
                        "number": 64,
                        "time": 13.541557312499998,
                        "value": 0
                    },
                    {
                        "number": 64,
                        "time": 13.709385506249998,
                        "value": 1
                    },
                    {
                        "number": 64,
                        "time": 14.156500312499997,
                        "value": 0
                    },
                    {
                        "number": 64,
                        "time": 14.261553074999997,
                        "value": 1
                    },
                    {
                        "number": 64,
                        "time": 14.758631999999997,
                        "value": 0
                    },
                    {
                        "number": 64,
                        "time": 16.120474518749997,
                        "value": 1
                    },
                    {
                        "number": 64,
                        "time": 16.603460999999996,
                        "value": 0
                    },
                    {
                        "number": 64,
                        "time": 16.775132587499996,
                        "value": 1
                    },
                    {
                        "number": 64,
                        "time": 17.231215312499998,
                        "value": 0
                    },
                    {
                        "number": 64,
                        "time": 17.39904350625,
                        "value": 1
                    },
                    {
                        "number": 64,
                        "time": 17.8461583125,
                        "value": 0
                    },
                    {
                        "number": 64,
                        "time": 17.951211075,
                        "value": 1
                    },
                    {
                        "number": 64,
                        "time": 18.44829,
                        "value": 0
                    },
                    {
                        "number": 64,
                        "time": 19.678176,
                        "value": 1
                    },
                    {
                        "number": 64,
                        "time": 20.293119,
                        "value": 0
                    },
                    {
                        "number": 64,
                        "time": 20.4647905875,
                        "value": 1
                    },
                    {
                        "number": 64,
                        "time": 20.920873312500003,
                        "value": 0
                    },
                    {
                        "number": 64,
                        "time": 21.088701506250004,
                        "value": 1
                    },
                    {
                        "number": 64,
                        "time": 21.535816312500003,
                        "value": 0
                    },
                    {
                        "number": 64,
                        "time": 21.640869075000005,
                        "value": 1
                    },
                    {
                        "number": 64,
                        "time": 22.137948000000005,
                        "value": 0
                    },
                    {
                        "number": 64,
                        "time": 23.367834000000006,
                        "value": 1
                    },
                    {
                        "number": 64,
                        "time": 23.982777000000006,
                        "value": 0
                    },
                    {
                        "number": 64,
                        "time": 24.154448587500006,
                        "value": 1
                    },
                    {
                        "number": 64,
                        "time": 24.610531312500008,
                        "value": 0
                    },
                    {
                        "number": 64,
                        "time": 24.77835950625001,
                        "value": 1
                    },
                    {
                        "number": 64,
                        "time": 25.22547431250001,
                        "value": 0
                    },
                    {
                        "number": 64,
                        "time": 25.33052707500001,
                        "value": 1
                    },
                    {
                        "number": 64,
                        "time": 25.82760600000001,
                        "value": 0
                    },
                    {
                        "number": 64,
                        "time": 25.99927758750001,
                        "value": 1
                    },
                    {
                        "number": 64,
                        "time": 26.455360312500012,
                        "value": 0
                    },
                    {
                        "number": 64,
                        "time": 26.623188506250013,
                        "value": 1
                    },
                    {
                        "number": 64,
                        "time": 27.070303312500013,
                        "value": 0
                    },
                    {
                        "number": 64,
                        "time": 27.175356075000014,
                        "value": 1
                    },
                    {
                        "number": 64,
                        "time": 27.672435000000014,
                        "value": 0
                    },
                    {
                        "number": 64,
                        "time": 27.844106587500015,
                        "value": 1
                    },
                    {
                        "number": 64,
                        "time": 28.300189312500017,
                        "value": 0
                    },
                    {
                        "number": 64,
                        "time": 28.468017506250018,
                        "value": 1
                    },
                    {
                        "number": 64,
                        "time": 28.915132312500017,
                        "value": 0
                    },
                    {
                        "number": 64,
                        "time": 29.02018507500002,
                        "value": 1
                    },
                    {
                        "number": 64,
                        "time": 29.51726400000002,
                        "value": 0
                    },
                    {
                        "number": 64,
                        "time": 30.22060505625002,
                        "value": 0
                    },
                    {
                        "number": 64,
                        "time": 30.78302167500002,
                        "value": 1
                    },
                    {
                        "number": 64,
                        "time": 31.36209300000002,
                        "value": 0
                    },
                    {
                        "number": 64,
                        "time": 31.429992956250018,
                        "value": 1
                    },
                    {
                        "number": 64,
                        "time": 32.00009636250002,
                        "value": 0
                    },
                    {
                        "number": 64,
                        "time": 32.071839712500015,
                        "value": 1
                    },
                    {
                        "number": 64,
                        "time": 32.63297520000002,
                        "value": 0
                    },
                    {
                        "number": 64,
                        "time": 32.709843075000016,
                        "value": 1
                    },
                    {
                        "number": 64,
                        "time": 33.20692200000001,
                        "value": 0
                    },
                    {
                        "number": 64,
                        "time": 33.27354082500001,
                        "value": 1
                    },
                    {
                        "number": 64,
                        "time": 33.83083291875001,
                        "value": 0
                    },
                    {
                        "number": 64,
                        "time": 33.89232721875001,
                        "value": 1
                    },
                    {
                        "number": 64,
                        "time": 34.43040234375001,
                        "value": 0
                    },
                    {
                        "number": 64,
                        "time": 34.50342682500001,
                        "value": 1
                    },
                    {
                        "number": 64,
                        "time": 35.06584344375001,
                        "value": 0
                    },
                    {
                        "number": 64,
                        "time": 35.11068303750001,
                        "value": 1
                    },
                    {
                        "number": 64,
                        "time": 35.70000341250001,
                        "value": 0
                    },
                    {
                        "number": 64,
                        "time": 35.78455807500001,
                        "value": 1
                    },
                    {
                        "number": 64,
                        "time": 36.29444831250001,
                        "value": 0
                    },
                    {
                        "number": 64,
                        "time": 36.37259731875001,
                        "value": 1
                    },
                    {
                        "number": 64,
                        "time": 36.89658000000001,
                        "value": 0
                    },
                    {
                        "number": 64,
                        "time": 37.08746855625001,
                        "value": 1
                    },
                    {
                        "number": 64,
                        "time": 37.523053181250006,
                        "value": 0
                    },
                    {
                        "number": 64,
                        "time": 37.658853093750004,
                        "value": 1
                    },
                    {
                        "number": 64,
                        "time": 38.13671505000001,
                        "value": 0
                    },
                    {
                        "number": 64,
                        "time": 38.301980981250004,
                        "value": 1
                    },
                    {
                        "number": 64,
                        "time": 38.741409000000004,
                        "value": 0
                    },
                    {
                        "number": 64,
                        "time": 38.888739093750004,
                        "value": 1
                    },
                    {
                        "number": 64,
                        "time": 39.36660105000001,
                        "value": 0
                    },
                    {
                        "number": 64,
                        "time": 39.531866981250005,
                        "value": 1
                    },
                    {
                        "number": 64,
                        "time": 39.987949706250006,
                        "value": 0
                    },
                    {
                        "number": 64,
                        "time": 40.16218355625001,
                        "value": 1
                    },
                    {
                        "number": 64,
                        "time": 40.58623800000001,
                        "value": 0
                    },
                    {
                        "number": 64,
                        "time": 40.82196615000001,
                        "value": 1
                    },
                    {
                        "number": 64,
                        "time": 41.21911683750001,
                        "value": 0
                    },
                    {
                        "number": 64,
                        "time": 41.40103747500001,
                        "value": 1
                    },
                    {
                        "number": 64,
                        "time": 41.84046549375001,
                        "value": 0
                    },
                    {
                        "number": 64,
                        "time": 42.015980475000006,
                        "value": 1
                    },
                    {
                        "number": 64,
                        "time": 42.431067000000006,
                        "value": 0
                    },
                    {
                        "number": 64,
                        "time": 42.548931075000006,
                        "value": 1
                    },
                    {
                        "number": 64,
                        "time": 43.06138357500001,
                        "value": 0
                    },
                    {
                        "number": 64,
                        "time": 43.172841993750005,
                        "value": 1
                    },
                    {
                        "number": 64,
                        "time": 43.67504544375001,
                        "value": 0
                    },
                    {
                        "number": 64,
                        "time": 43.778817075000006,
                        "value": 1
                    },
                    {
                        "number": 64,
                        "time": 44.275896,
                        "value": 0
                    },
                    {
                        "number": 64,
                        "time": 44.493688312500005,
                        "value": 1
                    },
                    {
                        "number": 64,
                        "time": 44.903650312500005,
                        "value": 0
                    },
                    {
                        "number": 64,
                        "time": 45.12656715000001,
                        "value": 1
                    },
                    {
                        "number": 64,
                        "time": 45.434038650000005,
                        "value": 0
                    },
                    {
                        "number": 64,
                        "time": 45.578806481250005,
                        "value": 1
                    },
                    {
                        "number": 64,
                        "time": 46.13225518125,
                        "value": 0
                    },
                    {
                        "number": 64,
                        "time": 46.25268151875,
                        "value": 1
                    },
                    {
                        "number": 64,
                        "time": 46.74463591875,
                        "value": 0
                    },
                    {
                        "number": 64,
                        "time": 46.91118298125,
                        "value": 1
                    },
                    {
                        "number": 64,
                        "time": 47.365984575,
                        "value": 0
                    },
                    {
                        "number": 64,
                        "time": 47.49794109375,
                        "value": 1
                    },
                    {
                        "number": 64,
                        "time": 47.965554,
                        "value": 0
                    },
                    {
                        "number": 64,
                        "time": 48.15644255625,
                        "value": 1
                    },
                    {
                        "number": 64,
                        "time": 48.59074605,
                        "value": 0
                    },
                    {
                        "number": 64,
                        "time": 48.708610125,
                        "value": 1
                    },
                    {
                        "number": 64,
                        "time": 49.2082513125,
                        "value": 0
                    },
                    {
                        "number": 64,
                        "time": 49.38632855625001,
                        "value": 1
                    },
                    {
                        "number": 64,
                        "time": 49.81038300000001,
                        "value": 0
                    },
                    {
                        "number": 64,
                        "time": 50.03073757500001,
                        "value": 1
                    },
                    {
                        "number": 64,
                        "time": 50.444542968750014,
                        "value": 0
                    },
                    {
                        "number": 64,
                        "time": 50.586748537500014,
                        "value": 1
                    },
                    {
                        "number": 64,
                        "time": 51.05436144375001,
                        "value": 0
                    },
                    {
                        "number": 64,
                        "time": 51.21578398125001,
                        "value": 1
                    },
                    {
                        "number": 64,
                        "time": 51.664179918750015,
                        "value": 0
                    },
                    {
                        "number": 64,
                        "time": 51.787168518750015,
                        "value": 1
                    },
                    {
                        "number": 64,
                        "time": 52.285528575000015,
                        "value": 0
                    },
                    {
                        "number": 64,
                        "time": 52.40979830625002,
                        "value": 1
                    },
                    {
                        "number": 64,
                        "time": 52.59171894375002,
                        "value": 0
                    },
                    {
                        "number": 64,
                        "time": 52.68011700000002,
                        "value": 1
                    },
                    {
                        "number": 64,
                        "time": 52.86331876875002,
                        "value": 0
                    },
                    {
                        "number": 64,
                        "time": 53.01321112500002,
                        "value": 1
                    },
                    {
                        "number": 64,
                        "time": 53.50004100000002,
                        "value": 0
                    },
                    {
                        "number": 64,
                        "time": 53.67171258750002,
                        "value": 1
                    },
                    {
                        "number": 64,
                        "time": 54.12779531250002,
                        "value": 0
                    },
                    {
                        "number": 64,
                        "time": 54.29562350625002,
                        "value": 1
                    },
                    {
                        "number": 64,
                        "time": 54.742738312500016,
                        "value": 0
                    },
                    {
                        "number": 64,
                        "time": 54.84779107500002,
                        "value": 1
                    },
                    {
                        "number": 64,
                        "time": 55.344870000000014,
                        "value": 0
                    },
                    {
                        "number": 64,
                        "time": 56.574756000000015,
                        "value": 1
                    },
                    {
                        "number": 64,
                        "time": 57.18969900000001,
                        "value": 0
                    },
                    {
                        "number": 64,
                        "time": 57.36137058750001,
                        "value": 1
                    },
                    {
                        "number": 64,
                        "time": 57.817453312500014,
                        "value": 0
                    },
                    {
                        "number": 64,
                        "time": 57.98528150625001,
                        "value": 1
                    },
                    {
                        "number": 64,
                        "time": 58.43239631250001,
                        "value": 0
                    },
                    {
                        "number": 64,
                        "time": 58.53744907500001,
                        "value": 1
                    },
                    {
                        "number": 64,
                        "time": 59.03452800000001,
                        "value": 0
                    },
                    {
                        "number": 64,
                        "time": 60.26441400000001,
                        "value": 1
                    },
                    {
                        "number": 64,
                        "time": 60.879357000000006,
                        "value": 0
                    },
                    {
                        "number": 64,
                        "time": 61.05102858750001,
                        "value": 1
                    },
                    {
                        "number": 64,
                        "time": 61.50711131250001,
                        "value": 0
                    },
                    {
                        "number": 64,
                        "time": 61.674939506250006,
                        "value": 1
                    },
                    {
                        "number": 64,
                        "time": 62.122054312500005,
                        "value": 0
                    },
                    {
                        "number": 64,
                        "time": 62.227107075000006,
                        "value": 1
                    },
                    {
                        "number": 64,
                        "time": 62.724186,
                        "value": 0
                    },
                    {
                        "number": 64,
                        "time": 62.89970098125,
                        "value": 1
                    },
                    {
                        "number": 64,
                        "time": 63.354502575,
                        "value": 0
                    },
                    {
                        "number": 64,
                        "time": 63.530017556249994,
                        "value": 1
                    },
                    {
                        "number": 64,
                        "time": 63.964321049999995,
                        "value": 0
                    },
                    {
                        "number": 64,
                        "time": 64.20389259375,
                        "value": 1
                    },
                    {
                        "number": 64,
                        "time": 64.569015,
                        "value": 0
                    },
                    {
                        "number": 64,
                        "time": 64.7406865875,
                        "value": 1
                    },
                    {
                        "number": 64,
                        "time": 65.1967693125,
                        "value": 0
                    },
                    {
                        "number": 64,
                        "time": 65.36459750624999,
                        "value": 1
                    },
                    {
                        "number": 64,
                        "time": 65.81171231249999,
                        "value": 0
                    },
                    {
                        "number": 64,
                        "time": 65.91676507499999,
                        "value": 1
                    },
                    {
                        "number": 64,
                        "time": 66.41384399999998,
                        "value": 0
                    },
                    {
                        "number": 64,
                        "time": 66.58935898124999,
                        "value": 1
                    },
                    {
                        "number": 64,
                        "time": 67.04416057499999,
                        "value": 0
                    },
                    {
                        "number": 64,
                        "time": 67.21967555625,
                        "value": 1
                    },
                    {
                        "number": 64,
                        "time": 67.6616658375,
                        "value": 0
                    },
                    {
                        "number": 64,
                        "time": 67.83461855624999,
                        "value": 1
                    },
                    {
                        "number": 64,
                        "time": 68.25867299999999,
                        "value": 0
                    },
                    {
                        "number": 64,
                        "time": 68.43931250624999,
                        "value": 1
                    },
                    {
                        "number": 64,
                        "time": 68.888989575,
                        "value": 0
                    },
                    {
                        "number": 64,
                        "time": 69.10934415,
                        "value": 1
                    },
                    {
                        "number": 64,
                        "time": 69.503932575,
                        "value": 0
                    },
                    {
                        "number": 64,
                        "time": 69.66919850625,
                        "value": 1
                    },
                    {
                        "number": 64,
                        "time": 70.11375105,
                        "value": 0
                    },
                    {
                        "number": 64,
                        "time": 70.27901698125001,
                        "value": 1
                    },
                    {
                        "number": 64,
                        "time": 70.73125631250001,
                        "value": 0
                    },
                    {
                        "number": 64,
                        "time": 70.86577509375,
                        "value": 1
                    },
                    {
                        "number": 64,
                        "time": 71.34363705,
                        "value": 0
                    },
                    {
                        "number": 64,
                        "time": 71.553742575,
                        "value": 1
                    },
                    {
                        "number": 64,
                        "time": 71.9893272,
                        "value": 0
                    },
                    {
                        "number": 64,
                        "time": 72.05210263125001,
                        "value": 1
                    },
                    {
                        "number": 64,
                        "time": 72.578647575,
                        "value": 0
                    },
                    {
                        "number": 64,
                        "time": 72.63629848125001,
                        "value": 1
                    },
                    {
                        "number": 64,
                        "time": 73.18974718125001,
                        "value": 0
                    },
                    {
                        "number": 64,
                        "time": 73.24611695625,
                        "value": 1
                    },
                    {
                        "number": 64,
                        "time": 73.79316,
                        "value": 0
                    },
                    {
                        "number": 64,
                        "time": 73.998141,
                        "value": 1
                    },
                    {
                        "number": 64,
                        "time": 74.4260388375,
                        "value": 0
                    },
                    {
                        "number": 64,
                        "time": 74.613084,
                        "value": 1
                    },
                    {
                        "number": 64,
                        "time": 75.038419575,
                        "value": 0
                    },
                    {
                        "number": 64,
                        "time": 75.18446853750001,
                        "value": 1
                    },
                    {
                        "number": 64,
                        "time": 75.65080031250001,
                        "value": 0
                    },
                    {
                        "number": 64,
                        "time": 75.70588895625,
                        "value": 1
                    },
                    {
                        "number": 64,
                        "time": 76.2708678375,
                        "value": 0
                    },
                    {
                        "number": 64,
                        "time": 76.36567155,
                        "value": 1
                    },
                    {
                        "number": 64,
                        "time": 76.87684291875,
                        "value": 0
                    },
                    {
                        "number": 64,
                        "time": 76.944742875,
                        "value": 1
                    },
                    {
                        "number": 64,
                        "time": 77.4956293125,
                        "value": 0
                    },
                    {
                        "number": 64,
                        "time": 77.6442405375,
                        "value": 1
                    },
                    {
                        "number": 64,
                        "time": 78.11313457499999,
                        "value": 0
                    },
                    {
                        "number": 64,
                        "time": 78.33220801875,
                        "value": 1
                    },
                    {
                        "number": 64,
                        "time": 78.728077575,
                        "value": 0
                    },
                    {
                        "number": 64,
                        "time": 78.90359255625,
                        "value": 1
                    },
                    {
                        "number": 64,
                        "time": 79.34173944375,
                        "value": 0
                    },
                    {
                        "number": 64,
                        "time": 79.3865790375,
                        "value": 1
                    },
                    {
                        "number": 64,
                        "time": 79.9502767875,
                        "value": 0
                    },
                    {
                        "number": 64,
                        "time": 80.0015220375,
                        "value": 1
                    },
                    {
                        "number": 64,
                        "time": 80.56265752499999,
                        "value": 0
                    },
                    {
                        "number": 64,
                        "time": 81.29930799374999,
                        "value": 1
                    },
                    {
                        "number": 64,
                        "time": 82.41004878749999,
                        "value": 0
                    },
                    {
                        "number": 64,
                        "time": 82.47538648124998,
                        "value": 1
                    },
                    {
                        "number": 64,
                        "time": 83.01730499999998,
                        "value": 0
                    },
                    {
                        "number": 64,
                        "time": 83.39395758749998,
                        "value": 1
                    },
                    {
                        "number": 64,
                        "time": 84.21388158749998,
                        "value": 0
                    },
                    {
                        "number": 64,
                        "time": 84.64562281874998,
                        "value": 1
                    },
                    {
                        "number": 64,
                        "time": 84.86213399999998,
                        "value": 0
                    },
                    {
                        "number": 64,
                        "time": 85.83195035624999,
                        "value": 1
                    },
                    {
                        "number": 64,
                        "time": 86.09201999999999,
                        "value": 0
                    },
                    {
                        "number": 64,
                        "time": 86.13942185625,
                        "value": 1
                    },
                    {
                        "number": 64,
                        "time": 86.414865075,
                        "value": 0
                    },
                    {
                        "number": 64,
                        "time": 87.081053325,
                        "value": 1
                    },
                    {
                        "number": 64,
                        "time": 87.321906,
                        "value": 0
                    },
                    {
                        "number": 64,
                        "time": 87.40261726874999,
                        "value": 1
                    },
                    {
                        "number": 64,
                        "time": 87.63962654999999,
                        "value": 0
                    },
                    {
                        "number": 64,
                        "time": 87.67677935625,
                        "value": 1
                    },
                    {
                        "number": 64,
                        "time": 87.92659995,
                        "value": 0
                    },
                    {
                        "number": 64,
                        "time": 87.97400180625,
                        "value": 1
                    },
                    {
                        "number": 64,
                        "time": 88.27378651875,
                        "value": 0
                    },
                    {
                        "number": 64,
                        "time": 88.310939325,
                        "value": 1
                    },
                    {
                        "number": 64,
                        "time": 88.551792,
                        "value": 0
                    },
                    {
                        "number": 64,
                        "time": 88.62481648125001,
                        "value": 1
                    },
                    {
                        "number": 64,
                        "time": 88.88616725625,
                        "value": 0
                    },
                    {
                        "number": 64,
                        "time": 88.94509929375,
                        "value": 1
                    },
                    {
                        "number": 64,
                        "time": 89.202606675,
                        "value": 0
                    },
                    {
                        "number": 64,
                        "time": 89.56516681875,
                        "value": 1
                    },
                    {
                        "number": 64,
                        "time": 89.781678,
                        "value": 0
                    },
                    {
                        "number": 64,
                        "time": 90.75149435625,
                        "value": 1
                    },
                    {
                        "number": 64,
                        "time": 91.011564,
                        "value": 0
                    },
                    {
                        "number": 64,
                        "time": 91.06280925,
                        "value": 1
                    },
                    {
                        "number": 64,
                        "time": 91.31262984375,
                        "value": 0
                    },
                    {
                        "number": 64,
                        "time": 92.000597325,
                        "value": 1
                    },
                    {
                        "number": 64,
                        "time": 92.24145,
                        "value": 0
                    },
                    {
                        "number": 64,
                        "time": 92.32216126875,
                        "value": 1
                    },
                    {
                        "number": 64,
                        "time": 92.55917054999999,
                        "value": 0
                    },
                    {
                        "number": 64,
                        "time": 92.59632335625,
                        "value": 1
                    },
                    {
                        "number": 64,
                        "time": 92.84614395,
                        "value": 0
                    },
                    {
                        "number": 64,
                        "time": 92.89354580625,
                        "value": 1
                    },
                    {
                        "number": 64,
                        "time": 93.19333051875,
                        "value": 0
                    },
                    {
                        "number": 64,
                        "time": 93.23048332500001,
                        "value": 1
                    },
                    {
                        "number": 64,
                        "time": 93.47133600000001,
                        "value": 0
                    },
                    {
                        "number": 64,
                        "time": 93.54436048125001,
                        "value": 1
                    },
                    {
                        "number": 64,
                        "time": 93.80571125625,
                        "value": 0
                    },
                    {
                        "number": 64,
                        "time": 93.86464329375,
                        "value": 1
                    },
                    {
                        "number": 64,
                        "time": 94.122150675,
                        "value": 0
                    },
                    {
                        "number": 64,
                        "time": 94.4116863375,
                        "value": 1
                    },
                    {
                        "number": 64,
                        "time": 94.70506539375,
                        "value": 0
                    },
                    {
                        "number": 64,
                        "time": 94.75246725000001,
                        "value": 1
                    },
                    {
                        "number": 64,
                        "time": 95.34563101875001,
                        "value": 0
                    },
                    {
                        "number": 64,
                        "time": 95.66463270000001,
                        "value": 1
                    },
                    {
                        "number": 64,
                        "time": 95.93110800000001,
                        "value": 0
                    },
                    {
                        "number": 64,
                        "time": 95.97594759375,
                        "value": 1
                    },
                    {
                        "number": 64,
                        "time": 96.56783023125001,
                        "value": 0
                    },
                    {
                        "number": 64,
                        "time": 96.87914512500001,
                        "value": 1
                    },
                    {
                        "number": 64,
                        "time": 97.160994,
                        "value": 0
                    },
                    {
                        "number": 64,
                        "time": 97.2199260375,
                        "value": 1
                    },
                    {
                        "number": 64,
                        "time": 97.7964351,
                        "value": 0
                    },
                    {
                        "number": 64,
                        "time": 98.098782075,
                        "value": 1
                    },
                    {
                        "number": 64,
                        "time": 98.39088,
                        "value": 0
                    },
                    {
                        "number": 64,
                        "time": 98.49977615625,
                        "value": 1
                    },
                    {
                        "number": 64,
                        "time": 98.70731941874999,
                        "value": 0
                    },
                    {
                        "number": 64,
                        "time": 98.80724765624998,
                        "value": 1
                    },
                    {
                        "number": 64,
                        "time": 99.02375883749998,
                        "value": 0
                    },
                    {
                        "number": 64,
                        "time": 99.12368707499998,
                        "value": 1
                    },
                    {
                        "number": 64,
                        "time": 99.33123033749997,
                        "value": 0
                    },
                    {
                        "number": 64,
                        "time": 99.43115857499997,
                        "value": 1
                    },
                    {
                        "number": 64,
                        "time": 99.63101504999997,
                        "value": 0
                    },
                    {
                        "number": 64,
                        "time": 99.73863007499997,
                        "value": 1
                    },
                    {
                        "number": 64,
                        "time": 99.94361107499998,
                        "value": 0
                    },
                    {
                        "number": 64,
                        "time": 100.03713365624998,
                        "value": 1
                    },
                    {
                        "number": 64,
                        "time": 100.27158067499998,
                        "value": 0
                    },
                    {
                        "number": 64,
                        "time": 100.35357307499999,
                        "value": 1
                    },
                    {
                        "number": 64,
                        "time": 100.54830502499999,
                        "value": 0
                    },
                    {
                        "number": 64,
                        "time": 100.63414081874998,
                        "value": 1
                    },
                    {
                        "number": 64,
                        "time": 100.85065199999998,
                        "value": 0
                    },
                    {
                        "number": 64,
                        "time": 101.82046835624999,
                        "value": 1
                    },
                    {
                        "number": 64,
                        "time": 102.08053799999999,
                        "value": 0
                    },
                    {
                        "number": 64,
                        "time": 102.13947003749999,
                        "value": 1
                    },
                    {
                        "number": 64,
                        "time": 102.403383075,
                        "value": 0
                    },
                    {
                        "number": 64,
                        "time": 103.069571325,
                        "value": 1
                    },
                    {
                        "number": 64,
                        "time": 103.310424,
                        "value": 0
                    },
                    {
                        "number": 64,
                        "time": 103.39113526874999,
                        "value": 1
                    },
                    {
                        "number": 64,
                        "time": 103.62814454999999,
                        "value": 0
                    },
                    {
                        "number": 64,
                        "time": 103.66529735625,
                        "value": 1
                    },
                    {
                        "number": 64,
                        "time": 103.93689718124999,
                        "value": 0
                    },
                    {
                        "number": 64,
                        "time": 103.96251980624999,
                        "value": 1
                    },
                    {
                        "number": 64,
                        "time": 104.26230451874999,
                        "value": 0
                    },
                    {
                        "number": 64,
                        "time": 104.29945732499999,
                        "value": 1
                    },
                    {
                        "number": 64,
                        "time": 104.54030999999999,
                        "value": 0
                    },
                    {
                        "number": 64,
                        "time": 104.61333448124999,
                        "value": 1
                    },
                    {
                        "number": 64,
                        "time": 104.87468525624999,
                        "value": 0
                    },
                    {
                        "number": 64,
                        "time": 104.93361729374999,
                        "value": 1
                    },
                    {
                        "number": 64,
                        "time": 105.19112467499998,
                        "value": 0
                    },
                    {
                        "number": 64,
                        "time": 105.48066033749998,
                        "value": 1
                    },
                    {
                        "number": 64,
                        "time": 105.77403939374999,
                        "value": 0
                    },
                    {
                        "number": 64,
                        "time": 105.82144124999999,
                        "value": 1
                    },
                    {
                        "number": 64,
                        "time": 106.41460501875,
                        "value": 0
                    },
                    {
                        "number": 64,
                        "time": 106.7336067,
                        "value": 1
                    },
                    {
                        "number": 64,
                        "time": 107.00008199999999,
                        "value": 0
                    },
                    {
                        "number": 64,
                        "time": 107.04492159374999,
                        "value": 1
                    },
                    {
                        "number": 64,
                        "time": 107.63680423125,
                        "value": 0
                    },
                    {
                        "number": 64,
                        "time": 107.94811912499999,
                        "value": 1
                    },
                    {
                        "number": 64,
                        "time": 108.22996799999999,
                        "value": 0
                    },
                    {
                        "number": 64,
                        "time": 108.28890003749999,
                        "value": 1
                    },
                    {
                        "number": 64,
                        "time": 108.88590719999999,
                        "value": 0
                    },
                    {
                        "number": 64,
                        "time": 109.16775607499999,
                        "value": 1
                    },
                    {
                        "number": 64,
                        "time": 109.45985399999998,
                        "value": 0
                    },
                    {
                        "number": 64,
                        "time": 109.56875015624998,
                        "value": 1
                    },
                    {
                        "number": 64,
                        "time": 109.77629341874997,
                        "value": 0
                    },
                    {
                        "number": 64,
                        "time": 109.87622165624997,
                        "value": 1
                    },
                    {
                        "number": 64,
                        "time": 110.09273283749997,
                        "value": 0
                    },
                    {
                        "number": 64,
                        "time": 110.19266107499996,
                        "value": 1
                    },
                    {
                        "number": 64,
                        "time": 110.40020433749996,
                        "value": 0
                    },
                    {
                        "number": 64,
                        "time": 110.50013257499995,
                        "value": 1
                    },
                    {
                        "number": 64,
                        "time": 110.69998904999996,
                        "value": 0
                    },
                    {
                        "number": 64,
                        "time": 110.80760407499996,
                        "value": 1
                    },
                    {
                        "number": 64,
                        "time": 111.01258507499996,
                        "value": 0
                    },
                    {
                        "number": 64,
                        "time": 111.10610765624996,
                        "value": 1
                    },
                    {
                        "number": 64,
                        "time": 111.34055467499996,
                        "value": 0
                    },
                    {
                        "number": 64,
                        "time": 111.42254707499997,
                        "value": 1
                    },
                    {
                        "number": 64,
                        "time": 111.61727902499997,
                        "value": 0
                    },
                    {
                        "number": 64,
                        "time": 111.70311481874997,
                        "value": 1
                    },
                    {
                        "number": 64,
                        "time": 111.91962599999997,
                        "value": 0
                    },
                    {
                        "number": 64,
                        "time": 112.88944235624997,
                        "value": 1
                    },
                    {
                        "number": 64,
                        "time": 113.14951199999997,
                        "value": 0
                    },
                    {
                        "number": 64,
                        "time": 113.20075724999997,
                        "value": 1
                    },
                    {
                        "number": 64,
                        "time": 113.41726843124997,
                        "value": 0
                    },
                    {
                        "number": 64,
                        "time": 114.13854532499997,
                        "value": 1
                    },
                    {
                        "number": 64,
                        "time": 114.37939799999997,
                        "value": 0
                    },
                    {
                        "number": 64,
                        "time": 114.43064324999996,
                        "value": 1
                    },
                    {
                        "number": 64,
                        "time": 114.69711854999996,
                        "value": 0
                    },
                    {
                        "number": 64,
                        "time": 114.73427135624996,
                        "value": 1
                    },
                    {
                        "number": 64,
                        "time": 114.98409194999996,
                        "value": 0
                    },
                    {
                        "number": 64,
                        "time": 115.03149380624997,
                        "value": 1
                    },
                    {
                        "number": 64,
                        "time": 115.33127851874997,
                        "value": 0
                    },
                    {
                        "number": 64,
                        "time": 115.36843132499997,
                        "value": 1
                    },
                    {
                        "number": 64,
                        "time": 115.60928399999997,
                        "value": 0
                    },
                    {
                        "number": 64,
                        "time": 115.68230848124998,
                        "value": 1
                    },
                    {
                        "number": 64,
                        "time": 115.94365925624997,
                        "value": 0
                    },
                    {
                        "number": 64,
                        "time": 116.00259129374997,
                        "value": 1
                    },
                    {
                        "number": 64,
                        "time": 116.26009867499997,
                        "value": 0
                    },
                    {
                        "number": 64,
                        "time": 116.66365501874996,
                        "value": 1
                    },
                    {
                        "number": 64,
                        "time": 117.14664149999996,
                        "value": 0
                    },
                    {
                        "number": 64,
                        "time": 117.31831308749996,
                        "value": 1
                    },
                    {
                        "number": 64,
                        "time": 117.77439581249996,
                        "value": 0
                    },
                    {
                        "number": 64,
                        "time": 117.94222400624996,
                        "value": 1
                    },
                    {
                        "number": 64,
                        "time": 118.38933881249996,
                        "value": 0
                    },
                    {
                        "number": 64,
                        "time": 118.49439157499995,
                        "value": 1
                    },
                    {
                        "number": 64,
                        "time": 118.99147049999995,
                        "value": 0
                    },
                    {
                        "number": 64,
                        "time": 120.22135649999994,
                        "value": 1
                    },
                    {
                        "number": 64,
                        "time": 120.83629949999994,
                        "value": 0
                    },
                    {
                        "number": 64,
                        "time": 121.00797108749994,
                        "value": 1
                    },
                    {
                        "number": 64,
                        "time": 121.46405381249994,
                        "value": 0
                    },
                    {
                        "number": 64,
                        "time": 121.63188200624994,
                        "value": 1
                    },
                    {
                        "number": 64,
                        "time": 122.07899681249994,
                        "value": 0
                    },
                    {
                        "number": 64,
                        "time": 122.18404957499993,
                        "value": 1
                    },
                    {
                        "number": 64,
                        "time": 122.68112849999993,
                        "value": 0
                    },
                    {
                        "number": 64,
                        "time": 123.91101449999992,
                        "value": 1
                    },
                    {
                        "number": 64,
                        "time": 124.52595749999992,
                        "value": 0
                    },
                    {
                        "number": 64,
                        "time": 124.69762908749992,
                        "value": 1
                    },
                    {
                        "number": 64,
                        "time": 125.15371181249992,
                        "value": 0
                    },
                    {
                        "number": 64,
                        "time": 125.32154000624992,
                        "value": 1
                    },
                    {
                        "number": 64,
                        "time": 125.76865481249992,
                        "value": 0
                    },
                    {
                        "number": 64,
                        "time": 125.87370757499991,
                        "value": 1
                    },
                    {
                        "number": 64,
                        "time": 126.37078649999991,
                        "value": 0
                    },
                    {
                        "number": 64,
                        "time": 126.54245808749991,
                        "value": 1
                    },
                    {
                        "number": 64,
                        "time": 126.99854081249991,
                        "value": 0
                    },
                    {
                        "number": 64,
                        "time": 127.16636900624991,
                        "value": 1
                    },
                    {
                        "number": 64,
                        "time": 127.61348381249991,
                        "value": 0
                    },
                    {
                        "number": 64,
                        "time": 127.7185365749999,
                        "value": 1
                    },
                    {
                        "number": 64,
                        "time": 128.2156154999999,
                        "value": 0
                    },
                    {
                        "number": 64,
                        "time": 128.38728708749989,
                        "value": 1
                    },
                    {
                        "number": 64,
                        "time": 128.84336981249987,
                        "value": 0
                    },
                    {
                        "number": 64,
                        "time": 129.01119800624988,
                        "value": 1
                    },
                    {
                        "number": 64,
                        "time": 129.45831281249988,
                        "value": 0
                    },
                    {
                        "number": 64,
                        "time": 129.5633655749999,
                        "value": 1
                    },
                    {
                        "number": 64,
                        "time": 130.0604444999999,
                        "value": 0
                    },
                    {
                        "number": 64,
                        "time": 130.7637855562499,
                        "value": 0
                    },
                    {
                        "number": 64,
                        "time": 131.3262021749999,
                        "value": 1
                    },
                    {
                        "number": 64,
                        "time": 131.9052734999999,
                        "value": 0
                    },
                    {
                        "number": 64,
                        "time": 131.9731734562499,
                        "value": 1
                    },
                    {
                        "number": 64,
                        "time": 132.5432768624999,
                        "value": 0
                    },
                    {
                        "number": 64,
                        "time": 132.6150202124999,
                        "value": 1
                    },
                    {
                        "number": 64,
                        "time": 133.1761556999999,
                        "value": 0
                    },
                    {
                        "number": 64,
                        "time": 133.2530235749999,
                        "value": 1
                    },
                    {
                        "number": 64,
                        "time": 133.7501024999999,
                        "value": 0
                    },
                    {
                        "number": 64,
                        "time": 133.81672132499992,
                        "value": 1
                    },
                    {
                        "number": 64,
                        "time": 134.3740134187499,
                        "value": 0
                    },
                    {
                        "number": 64,
                        "time": 134.4355077187499,
                        "value": 1
                    },
                    {
                        "number": 64,
                        "time": 134.9838318937499,
                        "value": 0
                    },
                    {
                        "number": 64,
                        "time": 135.0466073249999,
                        "value": 1
                    },
                    {
                        "number": 64,
                        "time": 135.60902394374992,
                        "value": 0
                    },
                    {
                        "number": 64,
                        "time": 135.65386353749992,
                        "value": 1
                    },
                    {
                        "number": 64,
                        "time": 136.24318391249992,
                        "value": 0
                    },
                    {
                        "number": 64,
                        "time": 136.32773857499993,
                        "value": 1
                    },
                    {
                        "number": 64,
                        "time": 136.83762881249993,
                        "value": 0
                    },
                    {
                        "number": 64,
                        "time": 136.91577781874992,
                        "value": 1
                    },
                    {
                        "number": 64,
                        "time": 137.43976049999992,
                        "value": 0
                    },
                    {
                        "number": 64,
                        "time": 137.63064905624992,
                        "value": 1
                    },
                    {
                        "number": 64,
                        "time": 138.0662336812499,
                        "value": 0
                    },
                    {
                        "number": 64,
                        "time": 138.20203359374992,
                        "value": 1
                    },
                    {
                        "number": 64,
                        "time": 138.68502007499993,
                        "value": 0
                    },
                    {
                        "number": 64,
                        "time": 138.91946709374992,
                        "value": 1
                    },
                    {
                        "number": 64,
                        "time": 139.28458949999992,
                        "value": 0
                    },
                    {
                        "number": 64,
                        "time": 139.43191959374994,
                        "value": 1
                    },
                    {
                        "number": 64,
                        "time": 139.90978154999993,
                        "value": 0
                    },
                    {
                        "number": 64,
                        "time": 140.07504748124992,
                        "value": 1
                    },
                    {
                        "number": 64,
                        "time": 140.5311302062499,
                        "value": 0
                    },
                    {
                        "number": 64,
                        "time": 140.70536405624992,
                        "value": 1
                    },
                    {
                        "number": 64,
                        "time": 141.12941849999993,
                        "value": 0
                    },
                    {
                        "number": 64,
                        "time": 141.36514664999993,
                        "value": 1
                    },
                    {
                        "number": 64,
                        "time": 141.76229733749992,
                        "value": 0
                    },
                    {
                        "number": 64,
                        "time": 141.94421797499993,
                        "value": 1
                    },
                    {
                        "number": 64,
                        "time": 142.38364599374992,
                        "value": 0
                    },
                    {
                        "number": 64,
                        "time": 142.5591609749999,
                        "value": 1
                    },
                    {
                        "number": 64,
                        "time": 142.9742474999999,
                        "value": 0
                    },
                    {
                        "number": 64,
                        "time": 143.0921115749999,
                        "value": 1
                    },
                    {
                        "number": 64,
                        "time": 143.6045640749999,
                        "value": 0
                    },
                    {
                        "number": 64,
                        "time": 143.7160224937499,
                        "value": 1
                    },
                    {
                        "number": 64,
                        "time": 144.2182259437499,
                        "value": 0
                    },
                    {
                        "number": 64,
                        "time": 144.3219975749999,
                        "value": 1
                    },
                    {
                        "number": 64,
                        "time": 144.8190764999999,
                        "value": 0
                    },
                    {
                        "number": 64,
                        "time": 145.0368688124999,
                        "value": 1
                    },
                    {
                        "number": 64,
                        "time": 145.4468308124999,
                        "value": 0
                    },
                    {
                        "number": 64,
                        "time": 145.66974764999992,
                        "value": 1
                    },
                    {
                        "number": 64,
                        "time": 145.9772191499999,
                        "value": 0
                    },
                    {
                        "number": 64,
                        "time": 146.1219869812499,
                        "value": 1
                    },
                    {
                        "number": 64,
                        "time": 146.6754356812499,
                        "value": 0
                    },
                    {
                        "number": 64,
                        "time": 146.7958620187499,
                        "value": 1
                    },
                    {
                        "number": 64,
                        "time": 147.28781641874988,
                        "value": 0
                    },
                    {
                        "number": 64,
                        "time": 147.45436348124989,
                        "value": 1
                    },
                    {
                        "number": 64,
                        "time": 147.9091650749999,
                        "value": 0
                    },
                    {
                        "number": 64,
                        "time": 148.0411215937499,
                        "value": 1
                    },
                    {
                        "number": 64,
                        "time": 148.5087344999999,
                        "value": 0
                    },
                    {
                        "number": 64,
                        "time": 148.6996230562499,
                        "value": 1
                    },
                    {
                        "number": 64,
                        "time": 149.1339265499999,
                        "value": 0
                    },
                    {
                        "number": 64,
                        "time": 149.2517906249999,
                        "value": 1
                    },
                    {
                        "number": 64,
                        "time": 149.7514318124999,
                        "value": 0
                    },
                    {
                        "number": 64,
                        "time": 149.9295090562499,
                        "value": 1
                    },
                    {
                        "number": 64,
                        "time": 150.35356349999992,
                        "value": 0
                    },
                    {
                        "number": 64,
                        "time": 150.5739180749999,
                        "value": 1
                    },
                    {
                        "number": 64,
                        "time": 150.98772346874992,
                        "value": 0
                    },
                    {
                        "number": 64,
                        "time": 151.12992903749992,
                        "value": 1
                    },
                    {
                        "number": 64,
                        "time": 151.59754194374992,
                        "value": 0
                    },
                    {
                        "number": 64,
                        "time": 151.7589644812499,
                        "value": 1
                    },
                    {
                        "number": 64,
                        "time": 152.20736041874991,
                        "value": 0
                    },
                    {
                        "number": 64,
                        "time": 152.33034901874993,
                        "value": 1
                    },
                    {
                        "number": 64,
                        "time": 152.82870907499992,
                        "value": 0
                    },
                    {
                        "number": 64,
                        "time": 152.95297880624992,
                        "value": 1
                    },
                    {
                        "number": 64,
                        "time": 153.13489944374993,
                        "value": 0
                    },
                    {
                        "number": 64,
                        "time": 153.22329749999994,
                        "value": 1
                    },
                    {
                        "number": 64,
                        "time": 153.42827849999995,
                        "value": 0
                    },
                    {
                        "number": 64,
                        "time": 153.55639162499995,
                        "value": 1
                    },
                    {
                        "number": 64,
                        "time": 154.04322149999996,
                        "value": 0
                    },
                    {
                        "number": 64,
                        "time": 154.21489308749995,
                        "value": 1
                    },
                    {
                        "number": 64,
                        "time": 154.67097581249993,
                        "value": 0
                    },
                    {
                        "number": 64,
                        "time": 154.83880400624994,
                        "value": 1
                    },
                    {
                        "number": 64,
                        "time": 155.28591881249994,
                        "value": 0
                    },
                    {
                        "number": 64,
                        "time": 155.39097157499995,
                        "value": 1
                    },
                    {
                        "number": 64,
                        "time": 155.88805049999996,
                        "value": 0
                    },
                    {
                        "number": 64,
                        "time": 157.11793649999996,
                        "value": 1
                    },
                    {
                        "number": 64,
                        "time": 157.73287949999997,
                        "value": 0
                    },
                    {
                        "number": 64,
                        "time": 157.90455108749995,
                        "value": 1
                    },
                    {
                        "number": 64,
                        "time": 158.36063381249994,
                        "value": 0
                    },
                    {
                        "number": 64,
                        "time": 158.52846200624995,
                        "value": 1
                    },
                    {
                        "number": 64,
                        "time": 158.97557681249995,
                        "value": 0
                    },
                    {
                        "number": 64,
                        "time": 159.08062957499996,
                        "value": 1
                    },
                    {
                        "number": 64,
                        "time": 159.57770849999997,
                        "value": 0
                    },
                    {
                        "number": 64,
                        "time": 160.80759449999996,
                        "value": 1
                    },
                    {
                        "number": 64,
                        "time": 161.42253749999998,
                        "value": 0
                    },
                    {
                        "number": 64,
                        "time": 161.59420908749996,
                        "value": 1
                    },
                    {
                        "number": 64,
                        "time": 162.05029181249995,
                        "value": 0
                    },
                    {
                        "number": 64,
                        "time": 162.21812000624996,
                        "value": 1
                    },
                    {
                        "number": 64,
                        "time": 162.66523481249996,
                        "value": 0
                    },
                    {
                        "number": 64,
                        "time": 162.77028757499997,
                        "value": 1
                    },
                    {
                        "number": 64,
                        "time": 163.26736649999998,
                        "value": 0
                    },
                    {
                        "number": 64,
                        "time": 163.44288148124997,
                        "value": 1
                    },
                    {
                        "number": 64,
                        "time": 163.89768307499997,
                        "value": 0
                    },
                    {
                        "number": 64,
                        "time": 164.07319805624996,
                        "value": 1
                    },
                    {
                        "number": 64,
                        "time": 164.50750154999997,
                        "value": 0
                    },
                    {
                        "number": 64,
                        "time": 164.74707309374998,
                        "value": 1
                    },
                    {
                        "number": 64,
                        "time": 165.11219549999998,
                        "value": 0
                    },
                    {
                        "number": 64,
                        "time": 165.28386708749997,
                        "value": 1
                    },
                    {
                        "number": 64,
                        "time": 165.73994981249996,
                        "value": 0
                    },
                    {
                        "number": 64,
                        "time": 165.90777800624997,
                        "value": 1
                    },
                    {
                        "number": 64,
                        "time": 166.35489281249997,
                        "value": 0
                    },
                    {
                        "number": 64,
                        "time": 166.45994557499998,
                        "value": 1
                    },
                    {
                        "number": 64,
                        "time": 166.9570245,
                        "value": 0
                    },
                    {
                        "number": 64,
                        "time": 167.13253948124998,
                        "value": 1
                    },
                    {
                        "number": 64,
                        "time": 167.58734107499998,
                        "value": 0
                    },
                    {
                        "number": 64,
                        "time": 167.76285605624997,
                        "value": 1
                    },
                    {
                        "number": 64,
                        "time": 168.2048463375,
                        "value": 0
                    },
                    {
                        "number": 64,
                        "time": 168.37779905624998,
                        "value": 1
                    },
                    {
                        "number": 64,
                        "time": 168.8018535,
                        "value": 0
                    },
                    {
                        "number": 64,
                        "time": 168.98249300625,
                        "value": 1
                    },
                    {
                        "number": 64,
                        "time": 169.432170075,
                        "value": 0
                    },
                    {
                        "number": 64,
                        "time": 169.65252464999998,
                        "value": 1
                    },
                    {
                        "number": 64,
                        "time": 170.04711307499997,
                        "value": 0
                    },
                    {
                        "number": 64,
                        "time": 170.21237900624996,
                        "value": 1
                    },
                    {
                        "number": 64,
                        "time": 170.65693154999997,
                        "value": 0
                    },
                    {
                        "number": 64,
                        "time": 170.82219748124996,
                        "value": 1
                    },
                    {
                        "number": 64,
                        "time": 171.27443681249997,
                        "value": 0
                    },
                    {
                        "number": 64,
                        "time": 171.40895559374997,
                        "value": 1
                    },
                    {
                        "number": 64,
                        "time": 171.88681754999996,
                        "value": 0
                    },
                    {
                        "number": 64,
                        "time": 172.09692307499995,
                        "value": 1
                    },
                    {
                        "number": 64,
                        "time": 172.53250769999994,
                        "value": 0
                    },
                    {
                        "number": 64,
                        "time": 172.59528313124994,
                        "value": 1
                    },
                    {
                        "number": 64,
                        "time": 173.12182807499994,
                        "value": 0
                    },
                    {
                        "number": 64,
                        "time": 173.17947898124993,
                        "value": 1
                    },
                    {
                        "number": 64,
                        "time": 173.73292768124992,
                        "value": 0
                    },
                    {
                        "number": 64,
                        "time": 173.78929745624993,
                        "value": 1
                    },
                    {
                        "number": 64,
                        "time": 174.33634049999992,
                        "value": 0
                    },
                    {
                        "number": 64,
                        "time": 174.54132149999992,
                        "value": 1
                    },
                    {
                        "number": 64,
                        "time": 174.96921933749994,
                        "value": 0
                    },
                    {
                        "number": 64,
                        "time": 175.15626449999993,
                        "value": 1
                    },
                    {
                        "number": 64,
                        "time": 175.58160007499993,
                        "value": 0
                    },
                    {
                        "number": 64,
                        "time": 175.72764903749993,
                        "value": 1
                    },
                    {
                        "number": 64,
                        "time": 176.19398081249992,
                        "value": 0
                    },
                    {
                        "number": 64,
                        "time": 176.2490694562499,
                        "value": 1
                    },
                    {
                        "number": 64,
                        "time": 176.8140483374999,
                        "value": 0
                    },
                    {
                        "number": 64,
                        "time": 176.90885204999992,
                        "value": 1
                    },
                    {
                        "number": 64,
                        "time": 177.42002341874993,
                        "value": 0
                    },
                    {
                        "number": 64,
                        "time": 177.48792337499992,
                        "value": 1
                    },
                    {
                        "number": 64,
                        "time": 178.03880981249992,
                        "value": 0
                    },
                    {
                        "number": 64,
                        "time": 178.18742103749992,
                        "value": 1
                    },
                    {
                        "number": 64,
                        "time": 178.65631507499992,
                        "value": 0
                    },
                    {
                        "number": 64,
                        "time": 178.87538851874993,
                        "value": 1
                    },
                    {
                        "number": 64,
                        "time": 179.27125807499993,
                        "value": 0
                    },
                    {
                        "number": 64,
                        "time": 179.44677305624992,
                        "value": 1
                    },
                    {
                        "number": 64,
                        "time": 179.88491994374994,
                        "value": 0
                    },
                    {
                        "number": 64,
                        "time": 179.92975953749993,
                        "value": 1
                    },
                    {
                        "number": 64,
                        "time": 180.49345728749992,
                        "value": 0
                    },
                    {
                        "number": 64,
                        "time": 180.54470253749992,
                        "value": 1
                    },
                    {
                        "number": 64,
                        "time": 181.10071349999993,
                        "value": 0
                    },
                    {
                        "number": 64,
                        "time": 181.84248849374993,
                        "value": 1
                    },
                    {
                        "number": 64,
                        "time": 182.95322928749994,
                        "value": 0
                    },
                    {
                        "number": 64,
                        "time": 183.01856698124993,
                        "value": 1
                    },
                    {
                        "number": 64,
                        "time": 183.56048549999994,
                        "value": 0
                    },
                    {
                        "number": 64,
                        "time": 183.93713808749993,
                        "value": 1
                    },
                    {
                        "number": 64,
                        "time": 184.75578095624994,
                        "value": 0
                    },
                    {
                        "number": 64,
                        "time": 184.90823557499994,
                        "value": 1
                    },
                    {
                        "number": 64,
                        "time": 185.41428241874993,
                        "value": 0
                    },
                    {
                        "number": 64,
                        "time": 185.55905024999993,
                        "value": 1
                    },
                    {
                        "number": 64,
                        "time": 186.66338538749991,
                        "value": 0
                    },
                    {
                        "number": 64,
                        "time": 186.78893624999992,
                        "value": 1
                    },
                    {
                        "number": 64,
                        "time": 187.27704725624992,
                        "value": 0
                    },
                    {
                        "number": 64,
                        "time": 187.3590396562499,
                        "value": 1
                    },
                    {
                        "number": 64,
                        "time": 188.5056521249999,
                        "value": 0
                    },
                    {
                        "number": 64,
                        "time": 188.7106331249999,
                        "value": 1
                    },
                    {
                        "number": 64,
                        "time": 189.10394041874991,
                        "value": 0
                    },
                    {
                        "number": 64,
                        "time": 189.2487082499999,
                        "value": 1
                    },
                    {
                        "number": 64,
                        "time": 190.3530433874999,
                        "value": 0
                    },
                    {
                        "number": 64,
                        "time": 190.4785942499999,
                        "value": 1
                    },
                    {
                        "number": 64,
                        "time": 190.9667052562499,
                        "value": 0
                    },
                    {
                        "number": 64,
                        "time": 191.04869765624989,
                        "value": 1
                    },
                    {
                        "number": 64,
                        "time": 192.19531012499988,
                        "value": 0
                    },
                    {
                        "number": 64,
                        "time": 192.40029112499988,
                        "value": 1
                    },
                    {
                        "number": 64,
                        "time": 192.7935984187499,
                        "value": 0
                    },
                    {
                        "number": 64,
                        "time": 192.9383662499999,
                        "value": 1
                    },
                    {
                        "number": 64,
                        "time": 194.04013912499988,
                        "value": 0
                    },
                    {
                        "number": 64,
                        "time": 194.2451201249999,
                        "value": 1
                    },
                    {
                        "number": 64,
                        "time": 194.6384274187499,
                        "value": 0
                    },
                    {
                        "number": 64,
                        "time": 194.7831952499999,
                        "value": 1
                    },
                    {
                        "number": 64,
                        "time": 195.8849681249999,
                        "value": 0
                    },
                    {
                        "number": 64,
                        "time": 196.0899491249999,
                        "value": 1
                    },
                    {
                        "number": 64,
                        "time": 196.4832564187499,
                        "value": 0
                    },
                    {
                        "number": 64,
                        "time": 196.6280242499999,
                        "value": 1
                    },
                    {
                        "number": 64,
                        "time": 197.1007616812499,
                        "value": 0
                    },
                    {
                        "number": 64,
                        "time": 197.19940878749992,
                        "value": 1
                    },
                    {
                        "number": 64,
                        "time": 197.72979712499992,
                        "value": 0
                    },
                    {
                        "number": 64,
                        "time": 197.93477812499992,
                        "value": 1
                    },
                    {
                        "number": 64,
                        "time": 198.31911749999992,
                        "value": 0
                    },
                    {
                        "number": 64,
                        "time": 198.3280854187499,
                        "value": 0
                    },
                    {
                        "number": 64,
                        "time": 198.4728532499999,
                        "value": 1
                    },
                    {
                        "number": 64,
                        "time": 199.2876527249999,
                        "value": 0
                    },
                    {
                        "number": 64,
                        "time": 199.6668675749999,
                        "value": 1
                    },
                    {
                        "number": 64,
                        "time": 200.1729144187499,
                        "value": 0
                    },
                    {
                        "number": 64,
                        "time": 200.3176822499999,
                        "value": 1
                    },
                    {
                        "number": 64,
                        "time": 201.4220173874999,
                        "value": 0
                    },
                    {
                        "number": 64,
                        "time": 201.5475682499999,
                        "value": 1
                    },
                    {
                        "number": 64,
                        "time": 202.0356792562499,
                        "value": 0
                    },
                    {
                        "number": 64,
                        "time": 202.11767165624988,
                        "value": 1
                    },
                    {
                        "number": 64,
                        "time": 203.26428412499988,
                        "value": 0
                    },
                    {
                        "number": 64,
                        "time": 203.46926512499988,
                        "value": 1
                    },
                    {
                        "number": 64,
                        "time": 203.8625724187499,
                        "value": 0
                    },
                    {
                        "number": 64,
                        "time": 204.00734024999988,
                        "value": 1
                    },
                    {
                        "number": 64,
                        "time": 205.11167538749987,
                        "value": 0
                    },
                    {
                        "number": 64,
                        "time": 205.23722624999988,
                        "value": 1
                    },
                    {
                        "number": 64,
                        "time": 205.72533725624987,
                        "value": 0
                    },
                    {
                        "number": 64,
                        "time": 205.80732965624986,
                        "value": 1
                    },
                    {
                        "number": 64,
                        "time": 206.95394212499986,
                        "value": 0
                    },
                    {
                        "number": 64,
                        "time": 207.15892312499986,
                        "value": 1
                    },
                    {
                        "number": 64,
                        "time": 207.55223041874987,
                        "value": 0
                    },
                    {
                        "number": 64,
                        "time": 207.69699824999987,
                        "value": 1
                    },
                    {
                        "number": 64,
                        "time": 208.79877112499986,
                        "value": 0
                    },
                    {
                        "number": 64,
                        "time": 209.00375212499986,
                        "value": 1
                    },
                    {
                        "number": 64,
                        "time": 209.39705941874988,
                        "value": 0
                    },
                    {
                        "number": 64,
                        "time": 209.54182724999987,
                        "value": 1
                    },
                    {
                        "number": 64,
                        "time": 210.64360012499986,
                        "value": 0
                    },
                    {
                        "number": 64,
                        "time": 210.84858112499987,
                        "value": 1
                    },
                    {
                        "number": 64,
                        "time": 211.24188841874988,
                        "value": 0
                    },
                    {
                        "number": 64,
                        "time": 211.38665624999987,
                        "value": 1
                    },
                    {
                        "number": 64,
                        "time": 212.48842912499987,
                        "value": 0
                    },
                    {
                        "number": 64,
                        "time": 212.69341012499987,
                        "value": 1
                    },
                    {
                        "number": 64,
                        "time": 213.08671741874988,
                        "value": 0
                    },
                    {
                        "number": 64,
                        "time": 213.23148524999988,
                        "value": 1
                    },
                    {
                        "number": 64,
                        "time": 214.0091319187499,
                        "value": 0
                    },
                    {
                        "number": 64,
                        "time": 214.4254995749999,
                        "value": 1
                    },
                    {
                        "number": 64,
                        "time": 215.5631441249999,
                        "value": 0
                    },
                    {
                        "number": 64,
                        "time": 215.66947801874988,
                        "value": 1
                    },
                    {
                        "number": 64,
                        "time": 216.1691192062499,
                        "value": 0
                    },
                    {
                        "number": 64,
                        "time": 216.32797948124988,
                        "value": 1
                    },
                    {
                        "number": 64,
                        "time": 217.40797312499987,
                        "value": 0
                    },
                    {
                        "number": 64,
                        "time": 217.52968059374987,
                        "value": 1
                    },
                    {
                        "number": 64,
                        "time": 218.01394820624986,
                        "value": 0
                    },
                    {
                        "number": 64,
                        "time": 218.17280848124986,
                        "value": 1
                    },
                    {
                        "number": 64,
                        "time": 219.25280212499985,
                        "value": 0
                    },
                    {
                        "number": 64,
                        "time": 219.38860203749985,
                        "value": 1
                    },
                    {
                        "number": 64,
                        "time": 219.85877720624984,
                        "value": 0
                    },
                    {
                        "number": 64,
                        "time": 220.01763748124984,
                        "value": 1
                    },
                    {
                        "number": 64,
                        "time": 221.09763112499982,
                        "value": 0
                    },
                    {
                        "number": 64,
                        "time": 221.21165180624982,
                        "value": 1
                    },
                    {
                        "number": 64,
                        "time": 221.70360620624982,
                        "value": 0
                    },
                    {
                        "number": 64,
                        "time": 221.81122123124982,
                        "value": 1
                    },
                    {
                        "number": 64,
                        "time": 222.94246012499983,
                        "value": 0
                    },
                    {
                        "number": 64,
                        "time": 223.05648080624982,
                        "value": 1
                    },
                    {
                        "number": 64,
                        "time": 223.54843520624982,
                        "value": 0
                    },
                    {
                        "number": 64,
                        "time": 223.70729548124982,
                        "value": 1
                    },
                    {
                        "number": 64,
                        "time": 224.7872891249998,
                        "value": 0
                    },
                    {
                        "number": 64,
                        "time": 224.9089965937498,
                        "value": 1
                    },
                    {
                        "number": 64,
                        "time": 225.3932642062498,
                        "value": 0
                    },
                    {
                        "number": 64,
                        "time": 225.5521244812498,
                        "value": 1
                    },
                    {
                        "number": 64,
                        "time": 226.63211812499978,
                        "value": 0
                    },
                    {
                        "number": 64,
                        "time": 226.74613880624977,
                        "value": 1
                    },
                    {
                        "number": 64,
                        "time": 227.23553094374978,
                        "value": 0
                    },
                    {
                        "number": 64,
                        "time": 227.35339501874978,
                        "value": 1
                    },
                    {
                        "number": 64,
                        "time": 227.84919281249978,
                        "value": 0
                    },
                    {
                        "number": 64,
                        "time": 227.9683380187498,
                        "value": 1
                    },
                    {
                        "number": 64,
                        "time": 228.4654169437498,
                        "value": 0
                    },
                    {
                        "number": 64,
                        "time": 228.5615017874998,
                        "value": 1
                    },
                    {
                        "number": 64,
                        "time": 229.08035994374978,
                        "value": 0
                    },
                    {
                        "number": 64,
                        "time": 229.23537682499978,
                        "value": 1
                    },
                    {
                        "number": 64,
                        "time": 229.69145954999976,
                        "value": 0
                    },
                    {
                        "number": 64,
                        "time": 229.79138778749976,
                        "value": 1
                    },
                    {
                        "number": 64,
                        "time": 230.30896481249977,
                        "value": 0
                    },
                    {
                        "number": 64,
                        "time": 230.44348359374976,
                        "value": 1
                    },
                    {
                        "number": 64,
                        "time": 230.92647007499977,
                        "value": 0
                    },
                    {
                        "number": 64,
                        "time": 231.12376428749977,
                        "value": 1
                    },
                    {
                        "number": 64,
                        "time": 231.54269420624976,
                        "value": 0
                    },
                    {
                        "number": 64,
                        "time": 231.62852999999976,
                        "value": 1
                    },
                    {
                        "number": 64,
                        "time": 232.15763720624975,
                        "value": 0
                    },
                    {
                        "number": 64,
                        "time": 232.29471824999973,
                        "value": 1
                    },
                    {
                        "number": 64,
                        "time": 232.77129907499975,
                        "value": 0
                    },
                    {
                        "number": 64,
                        "time": 232.86610278749976,
                        "value": 1
                    },
                    {
                        "number": 64,
                        "time": 233.37855528749975,
                        "value": 0
                    },
                    {
                        "number": 64,
                        "time": 233.48873257499974,
                        "value": 1
                    },
                    {
                        "number": 64,
                        "time": 233.99477941874974,
                        "value": 0
                    },
                    {
                        "number": 64,
                        "time": 234.13954724999974,
                        "value": 1
                    },
                    {
                        "number": 64,
                        "time": 235.24388238749972,
                        "value": 0
                    },
                    {
                        "number": 64,
                        "time": 235.36943324999973,
                        "value": 1
                    },
                    {
                        "number": 64,
                        "time": 235.85754425624972,
                        "value": 0
                    },
                    {
                        "number": 64,
                        "time": 235.93953665624971,
                        "value": 1
                    },
                    {
                        "number": 64,
                        "time": 237.0861491249997,
                        "value": 0
                    },
                    {
                        "number": 64,
                        "time": 237.2911301249997,
                        "value": 1
                    },
                    {
                        "number": 64,
                        "time": 237.68443741874972,
                        "value": 0
                    },
                    {
                        "number": 64,
                        "time": 237.82920524999972,
                        "value": 1
                    },
                    {
                        "number": 64,
                        "time": 238.9719743249997,
                        "value": 0
                    },
                    {
                        "number": 64,
                        "time": 239.0590912499997,
                        "value": 1
                    },
                    {
                        "number": 64,
                        "time": 239.5472022562497,
                        "value": 0
                    },
                    {
                        "number": 64,
                        "time": 239.6291946562497,
                        "value": 1
                    },
                    {
                        "number": 64,
                        "time": 240.7758071249997,
                        "value": 0
                    },
                    {
                        "number": 64,
                        "time": 240.9807881249997,
                        "value": 1
                    },
                    {
                        "number": 64,
                        "time": 241.3740954187497,
                        "value": 0
                    },
                    {
                        "number": 64,
                        "time": 241.5188632499997,
                        "value": 1
                    },
                    {
                        "number": 64,
                        "time": 242.6206361249997,
                        "value": 0
                    },
                    {
                        "number": 64,
                        "time": 242.8256171249997,
                        "value": 1
                    },
                    {
                        "number": 64,
                        "time": 243.2189244187497,
                        "value": 0
                    },
                    {
                        "number": 64,
                        "time": 243.3636922499997,
                        "value": 1
                    },
                    {
                        "number": 64,
                        "time": 244.4654651249997,
                        "value": 0
                    },
                    {
                        "number": 64,
                        "time": 244.6704461249997,
                        "value": 1
                    },
                    {
                        "number": 64,
                        "time": 245.0637534187497,
                        "value": 0
                    },
                    {
                        "number": 64,
                        "time": 245.2085212499997,
                        "value": 1
                    },
                    {
                        "number": 64,
                        "time": 245.6825398124997,
                        "value": 0
                    },
                    {
                        "number": 64,
                        "time": 245.7504397687497,
                        "value": 1
                    },
                    {
                        "number": 64,
                        "time": 246.2462375624997,
                        "value": 0
                    },
                    {
                        "number": 64,
                        "time": 246.51527512499968,
                        "value": 1
                    },
                    {
                        "number": 64,
                        "time": 246.89961449999967,
                        "value": 0
                    },
                    {
                        "number": 64,
                        "time": 246.90858241874966,
                        "value": 0
                    },
                    {
                        "number": 64,
                        "time": 247.20708599999966,
                        "value": 1
                    },
                    {
                        "number": 64,
                        "time": 247.86814972499965,
                        "value": 0
                    },
                    {
                        "number": 64,
                        "time": 248.24736457499966,
                        "value": 1
                    },
                    {
                        "number": 64,
                        "time": 249.38500912499967,
                        "value": 0
                    },
                    {
                        "number": 64,
                        "time": 249.49902980624967,
                        "value": 1
                    },
                    {
                        "number": 64,
                        "time": 249.99098420624966,
                        "value": 0
                    },
                    {
                        "number": 64,
                        "time": 250.14984448124966,
                        "value": 1
                    },
                    {
                        "number": 64,
                        "time": 251.22983812499965,
                        "value": 0
                    },
                    {
                        "number": 64,
                        "time": 251.35154559374965,
                        "value": 1
                    },
                    {
                        "number": 64,
                        "time": 251.83581320624964,
                        "value": 0
                    },
                    {
                        "number": 64,
                        "time": 251.99467348124963,
                        "value": 1
                    },
                    {
                        "number": 64,
                        "time": 253.07466712499962,
                        "value": 0
                    },
                    {
                        "number": 64,
                        "time": 253.18868780624962,
                        "value": 1
                    },
                    {
                        "number": 64,
                        "time": 253.68064220624962,
                        "value": 0
                    },
                    {
                        "number": 64,
                        "time": 253.8395024812496,
                        "value": 1
                    },
                    {
                        "number": 64,
                        "time": 254.9194961249996,
                        "value": 0
                    },
                    {
                        "number": 64,
                        "time": 255.0412035937496,
                        "value": 1
                    },
                    {
                        "number": 64,
                        "time": 255.5254712062496,
                        "value": 0
                    },
                    {
                        "number": 64,
                        "time": 255.6843314812496,
                        "value": 1
                    },
                    {
                        "number": 64,
                        "time": 256.7643251249996,
                        "value": 0
                    },
                    {
                        "number": 64,
                        "time": 256.94368349999957,
                        "value": 1
                    },
                    {
                        "number": 64,
                        "time": 257.37030020624957,
                        "value": 0
                    },
                    {
                        "number": 64,
                        "time": 257.52916048124956,
                        "value": 1
                    },
                    {
                        "number": 64,
                        "time": 258.6091541249996,
                        "value": 0
                    },
                    {
                        "number": 64,
                        "time": 258.7231748062496,
                        "value": 1
                    },
                    {
                        "number": 64,
                        "time": 259.21512920624957,
                        "value": 0
                    },
                    {
                        "number": 64,
                        "time": 259.37398948124957,
                        "value": 1
                    },
                    {
                        "number": 64,
                        "time": 260.4539831249996,
                        "value": 0
                    },
                    {
                        "number": 64,
                        "time": 260.5820962499996,
                        "value": 1
                    },
                    {
                        "number": 64,
                        "time": 261.0573959437496,
                        "value": 0
                    },
                    {
                        "number": 64,
                        "time": 261.1752600187496,
                        "value": 1
                    },
                    {
                        "number": 64,
                        "time": 261.6710578124996,
                        "value": 0
                    },
                    {
                        "number": 64,
                        "time": 261.7902030187496,
                        "value": 1
                    },
                    {
                        "number": 64,
                        "time": 262.2872819437496,
                        "value": 0
                    },
                    {
                        "number": 64,
                        "time": 262.3833667874996,
                        "value": 1
                    },
                    {
                        "number": 64,
                        "time": 262.9022249437496,
                        "value": 0
                    },
                    {
                        "number": 64,
                        "time": 263.0572418249996,
                        "value": 1
                    },
                    {
                        "number": 64,
                        "time": 263.5133245499996,
                        "value": 0
                    },
                    {
                        "number": 64,
                        "time": 263.6132527874996,
                        "value": 1
                    },
                    {
                        "number": 64,
                        "time": 264.1308298124996,
                        "value": 0
                    },
                    {
                        "number": 64,
                        "time": 264.2653485937496,
                        "value": 1
                    },
                    {
                        "number": 64,
                        "time": 264.7483350749996,
                        "value": 0
                    },
                    {
                        "number": 64,
                        "time": 264.9456292874996,
                        "value": 1
                    },
                    {
                        "number": 64,
                        "time": 265.3645592062496,
                        "value": 0
                    },
                    {
                        "number": 64,
                        "time": 265.4503949999996,
                        "value": 1
                    },
                    {
                        "number": 64,
                        "time": 265.9795022062496,
                        "value": 0
                    },
                    {
                        "number": 64,
                        "time": 266.1165832499996,
                        "value": 1
                    },
                    {
                        "number": 64,
                        "time": 266.5931640749996,
                        "value": 0
                    },
                    {
                        "number": 64,
                        "time": 266.6879677874996,
                        "value": 1
                    },
                    {
                        "number": 64,
                        "time": 267.2004202874996,
                        "value": 0
                    },
                    {
                        "number": 64,
                        "time": 267.3105975749996,
                        "value": 1
                    },
                    {
                        "number": 64,
                        "time": 267.8166444187496,
                        "value": 0
                    },
                    {
                        "number": 64,
                        "time": 267.9614122499996,
                        "value": 1
                    },
                    {
                        "number": 64,
                        "time": 269.1041813249996,
                        "value": 0
                    },
                    {
                        "number": 64,
                        "time": 269.1912982499996,
                        "value": 1
                    },
                    {
                        "number": 64,
                        "time": 269.6794092562496,
                        "value": 0
                    },
                    {
                        "number": 64,
                        "time": 269.7614016562496,
                        "value": 1
                    },
                    {
                        "number": 64,
                        "time": 270.90801412499957,
                        "value": 0
                    },
                    {
                        "number": 64,
                        "time": 271.11299512499954,
                        "value": 1
                    },
                    {
                        "number": 64,
                        "time": 271.50630241874956,
                        "value": 0
                    },
                    {
                        "number": 64,
                        "time": 271.6510702499996,
                        "value": 1
                    },
                    {
                        "number": 64,
                        "time": 272.7554053874996,
                        "value": 0
                    },
                    {
                        "number": 64,
                        "time": 272.8809562499996,
                        "value": 1
                    },
                    {
                        "number": 64,
                        "time": 273.3690672562496,
                        "value": 0
                    },
                    {
                        "number": 64,
                        "time": 273.4510596562496,
                        "value": 1
                    },
                    {
                        "number": 64,
                        "time": 274.5976721249996,
                        "value": 0
                    },
                    {
                        "number": 64,
                        "time": 274.80265312499955,
                        "value": 1
                    },
                    {
                        "number": 64,
                        "time": 275.19596041874956,
                        "value": 0
                    },
                    {
                        "number": 64,
                        "time": 275.3407282499996,
                        "value": 1
                    },
                    {
                        "number": 64,
                        "time": 276.4425011249996,
                        "value": 0
                    },
                    {
                        "number": 64,
                        "time": 276.64748212499956,
                        "value": 1
                    },
                    {
                        "number": 64,
                        "time": 277.04078941874957,
                        "value": 0
                    },
                    {
                        "number": 64,
                        "time": 277.1855572499996,
                        "value": 1
                    },
                    {
                        "number": 64,
                        "time": 278.2873301249996,
                        "value": 0
                    },
                    {
                        "number": 64,
                        "time": 278.49231112499956,
                        "value": 1
                    },
                    {
                        "number": 64,
                        "time": 278.8856184187496,
                        "value": 0
                    },
                    {
                        "number": 64,
                        "time": 279.0303862499996,
                        "value": 1
                    },
                    {
                        "number": 64,
                        "time": 279.5044048124996,
                        "value": 0
                    },
                    {
                        "number": 64,
                        "time": 279.57230476874963,
                        "value": 1
                    },
                    {
                        "number": 64,
                        "time": 280.03479314999964,
                        "value": 0
                    },
                    {
                        "number": 64,
                        "time": 280.3371401249996,
                        "value": 1
                    },
                    {
                        "number": 64,
                        "time": 280.72147949999965,
                        "value": 0
                    },
                    {
                        "number": 64,
                        "time": 280.73044741874963,
                        "value": 0
                    },
                    {
                        "number": 64,
                        "time": 281.0289509999996,
                        "value": 1
                    },
                    {
                        "number": 64,
                        "time": 281.6900147249996,
                        "value": 0
                    },
                    {
                        "number": 64,
                        "time": 282.0154220624996,
                        "value": 1
                    },
                    {
                        "number": 64,
                        "time": 282.56630849999965,
                        "value": 0
                    },
                    {
                        "number": 64,
                        "time": 282.8161290937496,
                        "value": 1
                    },
                    {
                        "number": 64,
                        "time": 283.20046846874965,
                        "value": 0
                    },
                    {
                        "number": 64,
                        "time": 283.43107209374966,
                        "value": 1
                    },
                    {
                        "number": 64,
                        "time": 283.8115680749997,
                        "value": 0
                    },
                    {
                        "number": 64,
                        "time": 284.01654907499966,
                        "value": 1
                    },
                    {
                        "number": 64,
                        "time": 284.41113749999965,
                        "value": 0
                    },
                    {
                        "number": 64,
                        "time": 284.58665248124964,
                        "value": 1
                    },
                    {
                        "number": 64,
                        "time": 285.04145407499965,
                        "value": 0
                    },
                    {
                        "number": 64,
                        "time": 285.23106149999967,
                        "value": 1
                    },
                    {
                        "number": 64,
                        "time": 285.64999141874966,
                        "value": 0
                    },
                    {
                        "number": 64,
                        "time": 285.87547051874964,
                        "value": 1
                    },
                    {
                        "number": 64,
                        "time": 286.25596649999966,
                        "value": 0
                    },
                    {
                        "number": 64,
                        "time": 286.47632107499965,
                        "value": 1
                    },
                    {
                        "number": 64,
                        "time": 286.88628307499965,
                        "value": 0
                    },
                    {
                        "number": 64,
                        "time": 287.03233203749966,
                        "value": 1
                    },
                    {
                        "number": 64,
                        "time": 287.49994494374965,
                        "value": 0
                    },
                    {
                        "number": 64,
                        "time": 287.69083349999966,
                        "value": 1
                    },
                    {
                        "number": 64,
                        "time": 288.1123256812497,
                        "value": 0
                    },
                    {
                        "number": 64,
                        "time": 288.27631048124965,
                        "value": 1
                    },
                    {
                        "number": 64,
                        "time": 288.73111207499966,
                        "value": 0
                    },
                    {
                        "number": 64,
                        "time": 288.9655590937497,
                        "value": 1
                    },
                    {
                        "number": 64,
                        "time": 289.34477394374966,
                        "value": 0
                    },
                    {
                        "number": 64,
                        "time": 289.5215700562497,
                        "value": 1
                    },
                    {
                        "number": 64,
                        "time": 289.9533112874997,
                        "value": 0
                    },
                    {
                        "number": 64,
                        "time": 290.09295459374965,
                        "value": 1
                    },
                    {
                        "number": 64,
                        "time": 290.56953541874964,
                        "value": 0
                    },
                    {
                        "number": 64,
                        "time": 290.73608248124964,
                        "value": 1
                    },
                    {
                        "number": 64,
                        "time": 291.19088407499964,
                        "value": 0
                    },
                    {
                        "number": 64,
                        "time": 291.38049149999966,
                        "value": 1
                    },
                    {
                        "number": 64,
                        "time": 291.7981402874997,
                        "value": 0
                    },
                    {
                        "number": 64,
                        "time": 291.93778359374966,
                        "value": 1
                    },
                    {
                        "number": 64,
                        "time": 292.4194889437497,
                        "value": 0
                    },
                    {
                        "number": 64,
                        "time": 292.6103774999997,
                        "value": 1
                    },
                    {
                        "number": 64,
                        "time": 293.0357130749997,
                        "value": 0
                    },
                    {
                        "number": 64,
                        "time": 293.2112280562497,
                        "value": 1
                    },
                    {
                        "number": 64,
                        "time": 293.6352824999997,
                        "value": 0
                    },
                    {
                        "number": 64,
                        "time": 293.85563707499966,
                        "value": 1
                    },
                    {
                        "number": 64,
                        "time": 294.2643179437497,
                        "value": 0
                    },
                    {
                        "number": 64,
                        "time": 294.5000460937497,
                        "value": 1
                    },
                    {
                        "number": 64,
                        "time": 294.87926094374967,
                        "value": 0
                    },
                    {
                        "number": 64,
                        "time": 295.0560570562497,
                        "value": 1
                    },
                    {
                        "number": 64,
                        "time": 295.4903605499997,
                        "value": 0
                    },
                    {
                        "number": 64,
                        "time": 295.6287227249997,
                        "value": 1
                    },
                    {
                        "number": 64,
                        "time": 296.11042807499973,
                        "value": 0
                    },
                    {
                        "number": 64,
                        "time": 296.24366572499974,
                        "value": 1
                    },
                    {
                        "number": 64,
                        "time": 296.72024654999973,
                        "value": 0
                    },
                    {
                        "number": 64,
                        "time": 296.8432351499997,
                        "value": 1
                    },
                    {
                        "number": 64,
                        "time": 297.3326272874997,
                        "value": 0
                    },
                    {
                        "number": 64,
                        "time": 297.4415234437497,
                        "value": 1
                    },
                    {
                        "number": 64,
                        "time": 297.94757028749973,
                        "value": 0
                    },
                    {
                        "number": 64,
                        "time": 298.05646644374974,
                        "value": 1
                    },
                    {
                        "number": 64,
                        "time": 298.57276233749974,
                        "value": 0
                    },
                    {
                        "number": 64,
                        "time": 298.6880641499997,
                        "value": 1
                    },
                    {
                        "number": 64,
                        "time": 299.1736128937497,
                        "value": 0
                    },
                    {
                        "number": 64,
                        "time": 299.3452844812497,
                        "value": 1
                    },
                    {
                        "number": 64,
                        "time": 299.8000860749997,
                        "value": 0
                    },
                    {
                        "number": 64,
                        "time": 299.9896934999997,
                        "value": 1
                    },
                    {
                        "number": 64,
                        "time": 300.4137479437497,
                        "value": 0
                    },
                    {
                        "number": 64,
                        "time": 300.56107803749967,
                        "value": 1
                    },
                    {
                        "number": 64,
                        "time": 301.0197230249997,
                        "value": 0
                    },
                    {
                        "number": 64,
                        "time": 301.17602103749965,
                        "value": 1
                    },
                    {
                        "number": 64,
                        "time": 301.64363394374965,
                        "value": 0
                    },
                    {
                        "number": 64,
                        "time": 301.84989607499966,
                        "value": 1
                    },
                    {
                        "number": 64,
                        "time": 302.2508901562497,
                        "value": 0
                    },
                    {
                        "number": 64,
                        "time": 302.3918145937497,
                        "value": 1
                    },
                    {
                        "number": 64,
                        "time": 302.8671142874997,
                        "value": 0
                    },
                    {
                        "number": 64,
                        "time": 303.0503160562497,
                        "value": 1
                    },
                    {
                        "number": 64,
                        "time": 303.4897440749997,
                        "value": 0
                    },
                    {
                        "number": 64,
                        "time": 303.6357930374997,
                        "value": 1
                    },
                    {
                        "number": 64,
                        "time": 304.1034059437497,
                        "value": 0
                    },
                    {
                        "number": 64,
                        "time": 304.2212700187497,
                        "value": 1
                    },
                    {
                        "number": 64,
                        "time": 305.3332919437497,
                        "value": 0
                    },
                    {
                        "number": 64,
                        "time": 305.5395540749997,
                        "value": 1
                    },
                    {
                        "number": 64,
                        "time": 306.5644590749997,
                        "value": 0
                    },
                    {
                        "number": 64,
                        "time": 306.6669495749997,
                        "value": 1
                    },
                    {
                        "number": 64,
                        "time": 307.7930639437497,
                        "value": 0
                    },
                    {
                        "number": 64,
                        "time": 307.9109280187497,
                        "value": 1
                    },
                    {
                        "number": 64,
                        "time": 309.0229499437497,
                        "value": 0
                    },
                    {
                        "number": 64,
                        "time": 309.22921207499974,
                        "value": 1
                    },
                    {
                        "number": 64,
                        "time": 310.2541170749997,
                        "value": 0
                    },
                    {
                        "number": 64,
                        "time": 310.3566075749997,
                        "value": 1
                    },
                    {
                        "number": 64,
                        "time": 311.4532559249997,
                        "value": 0
                    },
                    {
                        "number": 64,
                        "time": 311.63005203749975,
                        "value": 1
                    },
                    {
                        "number": 64,
                        "time": 312.0835724999998,
                        "value": 0
                    },
                    {
                        "number": 64,
                        "time": 312.25524408749976,
                        "value": 1
                    },
                    {
                        "number": 64,
                        "time": 312.71132681249975,
                        "value": 0
                    },
                    {
                        "number": 64,
                        "time": 312.87915500624973,
                        "value": 1
                    },
                    {
                        "number": 64,
                        "time": 313.32626981249973,
                        "value": 0
                    },
                    {
                        "number": 64,
                        "time": 313.43132257499974,
                        "value": 1
                    },
                    {
                        "number": 64,
                        "time": 313.9284014999997,
                        "value": 0
                    },
                    {
                        "number": 64,
                        "time": 315.2902440187497,
                        "value": 1
                    },
                    {
                        "number": 64,
                        "time": 315.7732304999997,
                        "value": 0
                    },
                    {
                        "number": 64,
                        "time": 315.9449020874997,
                        "value": 1
                    },
                    {
                        "number": 64,
                        "time": 316.4009848124997,
                        "value": 0
                    },
                    {
                        "number": 64,
                        "time": 316.5688130062497,
                        "value": 1
                    },
                    {
                        "number": 64,
                        "time": 317.0159278124997,
                        "value": 0
                    },
                    {
                        "number": 64,
                        "time": 317.1209805749997,
                        "value": 1
                    },
                    {
                        "number": 64,
                        "time": 317.6180594999997,
                        "value": 0
                    },
                    {
                        "number": 64,
                        "time": 318.97990201874967,
                        "value": 1
                    },
                    {
                        "number": 64,
                        "time": 319.4628884999997,
                        "value": 0
                    },
                    {
                        "number": 64,
                        "time": 319.63456008749966,
                        "value": 1
                    },
                    {
                        "number": 64,
                        "time": 320.09064281249965,
                        "value": 0
                    },
                    {
                        "number": 64,
                        "time": 320.25847100624964,
                        "value": 1
                    },
                    {
                        "number": 64,
                        "time": 320.70558581249963,
                        "value": 0
                    },
                    {
                        "number": 64,
                        "time": 320.81063857499964,
                        "value": 1
                    },
                    {
                        "number": 64,
                        "time": 321.3077174999996,
                        "value": 0
                    },
                    {
                        "number": 64,
                        "time": 321.98159253749964,
                        "value": 1
                    },
                    {
                        "number": 64,
                        "time": 322.58756761874963,
                        "value": 0
                    },
                    {
                        "number": 64,
                        "time": 323.1704823374996,
                        "value": 1
                    },
                    {
                        "number": 64,
                        "time": 323.4702670499996,
                        "value": 0
                    },
                    {
                        "number": 64,
                        "time": 323.5330424812496,
                        "value": 1
                    },
                    {
                        "number": 64,
                        "time": 323.78286307499957,
                        "value": 0
                    },
                    {
                        "number": 64,
                        "time": 323.91738185624956,
                        "value": 1
                    },
                    {
                        "number": 64,
                        "time": 324.3952438124996,
                        "value": 0
                    },
                    {
                        "number": 64,
                        "time": 324.4733928187496,
                        "value": 1
                    },
                    {
                        "number": 64,
                        "time": 324.9973754999996,
                        "value": 0
                    },
                    {
                        "number": 64,
                        "time": 325.2151678124996,
                        "value": 1
                    },
                    {
                        "number": 64,
                        "time": 326.1721728562496,
                        "value": 0
                    },
                    {
                        "number": 64,
                        "time": 326.37202933124956,
                        "value": 1
                    },
                    {
                        "number": 64,
                        "time": 326.8537346812496,
                        "value": 0
                    },
                    {
                        "number": 64,
                        "time": 326.9741610187496,
                        "value": 1
                    },
                    {
                        "number": 64,
                        "time": 327.4661154187496,
                        "value": 0
                    },
                    {
                        "number": 64,
                        "time": 327.6326624812496,
                        "value": 1
                    },
                    {
                        "number": 64,
                        "time": 328.0874640749996,
                        "value": 0
                    },
                    {
                        "number": 64,
                        "time": 328.2194205937496,
                        "value": 1
                    },
                    {
                        "number": 64,
                        "time": 328.6870334999996,
                        "value": 0
                    },
                    {
                        "number": 64,
                        "time": 328.8779220562496,
                        "value": 1
                    },
                    {
                        "number": 64,
                        "time": 329.3122255499996,
                        "value": 0
                    },
                    {
                        "number": 64,
                        "time": 329.4300896249996,
                        "value": 1
                    },
                    {
                        "number": 64,
                        "time": 329.9297308124996,
                        "value": 0
                    },
                    {
                        "number": 64,
                        "time": 330.1078080562496,
                        "value": 1
                    },
                    {
                        "number": 64,
                        "time": 330.5318624999996,
                        "value": 0
                    },
                    {
                        "number": 64,
                        "time": 330.7522170749996,
                        "value": 1
                    },
                    {
                        "number": 64,
                        "time": 331.1660224687496,
                        "value": 0
                    },
                    {
                        "number": 64,
                        "time": 331.3082280374996,
                        "value": 1
                    },
                    {
                        "number": 64,
                        "time": 331.7758409437496,
                        "value": 0
                    },
                    {
                        "number": 64,
                        "time": 331.9372634812496,
                        "value": 1
                    },
                    {
                        "number": 64,
                        "time": 332.3766914999996,
                        "value": 0
                    },
                    {
                        "number": 64,
                        "time": 332.5522064812496,
                        "value": 1
                    },
                    {
                        "number": 64,
                        "time": 333.0070080749996,
                        "value": 0
                    },
                    {
                        "number": 64,
                        "time": 333.1825230562496,
                        "value": 1
                    },
                    {
                        "number": 64,
                        "time": 333.6245133374996,
                        "value": 0
                    },
                    {
                        "number": 64,
                        "time": 333.7974660562496,
                        "value": 1
                    },
                    {
                        "number": 64,
                        "time": 334.2215204999996,
                        "value": 0
                    },
                    {
                        "number": 64,
                        "time": 334.4021600062496,
                        "value": 1
                    },
                    {
                        "number": 64,
                        "time": 334.8518370749996,
                        "value": 0
                    },
                    {
                        "number": 64,
                        "time": 335.0721916499996,
                        "value": 1
                    },
                    {
                        "number": 64,
                        "time": 335.4667800749996,
                        "value": 0
                    },
                    {
                        "number": 64,
                        "time": 335.6320460062496,
                        "value": 1
                    },
                    {
                        "number": 64,
                        "time": 336.0765985499996,
                        "value": 0
                    },
                    {
                        "number": 64,
                        "time": 336.2418644812496,
                        "value": 1
                    },
                    {
                        "number": 64,
                        "time": 336.6941038124996,
                        "value": 0
                    },
                    {
                        "number": 64,
                        "time": 336.82862259374957,
                        "value": 1
                    },
                    {
                        "number": 64,
                        "time": 337.3064845499996,
                        "value": 0
                    },
                    {
                        "number": 64,
                        "time": 337.5165900749996,
                        "value": 1
                    },
                    {
                        "number": 64,
                        "time": 337.9521746999996,
                        "value": 0
                    },
                    {
                        "number": 64,
                        "time": 338.0149501312496,
                        "value": 1
                    },
                    {
                        "number": 64,
                        "time": 338.5414950749996,
                        "value": 0
                    },
                    {
                        "number": 64,
                        "time": 338.5991459812496,
                        "value": 1
                    },
                    {
                        "number": 64,
                        "time": 339.1525946812496,
                        "value": 0
                    },
                    {
                        "number": 64,
                        "time": 339.2089644562496,
                        "value": 1
                    },
                    {
                        "number": 64,
                        "time": 339.7560074999996,
                        "value": 0
                    },
                    {
                        "number": 64,
                        "time": 339.9609884999996,
                        "value": 1
                    },
                    {
                        "number": 64,
                        "time": 340.38888633749957,
                        "value": 0
                    },
                    {
                        "number": 64,
                        "time": 340.57593149999957,
                        "value": 1
                    },
                    {
                        "number": 64,
                        "time": 341.00382933749955,
                        "value": 0
                    },
                    {
                        "number": 64,
                        "time": 341.1767820562496,
                        "value": 1
                    },
                    {
                        "number": 64,
                        "time": 341.60083649999956,
                        "value": 0
                    },
                    {
                        "number": 64,
                        "time": 341.78147600624953,
                        "value": 1
                    },
                    {
                        "number": 64,
                        "time": 342.23115307499955,
                        "value": 0
                    },
                    {
                        "number": 64,
                        "time": 342.45150764999954,
                        "value": 1
                    },
                    {
                        "number": 64,
                        "time": 342.84609607499954,
                        "value": 0
                    },
                    {
                        "number": 64,
                        "time": 343.01136200624956,
                        "value": 1
                    },
                    {
                        "number": 64,
                        "time": 343.45591454999953,
                        "value": 0
                    },
                    {
                        "number": 64,
                        "time": 343.62118048124955,
                        "value": 1
                    },
                    {
                        "number": 64,
                        "time": 344.07341981249954,
                        "value": 0
                    },
                    {
                        "number": 64,
                        "time": 344.20793859374953,
                        "value": 1
                    },
                    {
                        "number": 64,
                        "time": 344.68580054999956,
                        "value": 0
                    },
                    {
                        "number": 64,
                        "time": 344.8959060749996,
                        "value": 1
                    },
                    {
                        "number": 64,
                        "time": 345.33149069999956,
                        "value": 0
                    },
                    {
                        "number": 64,
                        "time": 345.39426613124954,
                        "value": 1
                    },
                    {
                        "number": 64,
                        "time": 345.92081107499956,
                        "value": 0
                    },
                    {
                        "number": 64,
                        "time": 345.97846198124955,
                        "value": 1
                    },
                    {
                        "number": 64,
                        "time": 346.53191068124954,
                        "value": 0
                    },
                    {
                        "number": 64,
                        "time": 346.58828045624955,
                        "value": 1
                    },
                    {
                        "number": 64,
                        "time": 347.1353234999996,
                        "value": 0
                    },
                    {
                        "number": 64,
                        "time": 347.34030449999955,
                        "value": 1
                    },
                    {
                        "number": 64,
                        "time": 347.76820233749953,
                        "value": 0
                    },
                    {
                        "number": 64,
                        "time": 347.95524749999953,
                        "value": 1
                    },
                    {
                        "number": 64,
                        "time": 348.38058307499955,
                        "value": 0
                    },
                    {
                        "number": 64,
                        "time": 348.52663203749955,
                        "value": 1
                    },
                    {
                        "number": 64,
                        "time": 348.99296381249957,
                        "value": 0
                    },
                    {
                        "number": 64,
                        "time": 349.0480524562496,
                        "value": 1
                    },
                    {
                        "number": 64,
                        "time": 349.6130313374996,
                        "value": 0
                    },
                    {
                        "number": 64,
                        "time": 349.7078350499996,
                        "value": 1
                    },
                    {
                        "number": 64,
                        "time": 350.2190064187496,
                        "value": 0
                    },
                    {
                        "number": 64,
                        "time": 350.2869063749996,
                        "value": 1
                    },
                    {
                        "number": 64,
                        "time": 350.83779281249963,
                        "value": 0
                    },
                    {
                        "number": 64,
                        "time": 350.98640403749965,
                        "value": 1
                    },
                    {
                        "number": 64,
                        "time": 351.45529807499963,
                        "value": 0
                    },
                    {
                        "number": 64,
                        "time": 351.67437151874964,
                        "value": 1
                    },
                    {
                        "number": 64,
                        "time": 352.0702410749996,
                        "value": 0
                    },
                    {
                        "number": 64,
                        "time": 352.2457560562496,
                        "value": 1
                    },
                    {
                        "number": 64,
                        "time": 352.6839029437496,
                        "value": 0
                    },
                    {
                        "number": 64,
                        "time": 352.7287425374996,
                        "value": 1
                    },
                    {
                        "number": 64,
                        "time": 353.29244028749963,
                        "value": 0
                    },
                    {
                        "number": 64,
                        "time": 353.34368553749965,
                        "value": 1
                    },
                    {
                        "number": 64,
                        "time": 353.82795314999964,
                        "value": 0
                    },
                    {
                        "number": 64,
                        "time": 354.64147149374963,
                        "value": 1
                    },
                    {
                        "number": 64,
                        "time": 355.7522122874996,
                        "value": 0
                    },
                    {
                        "number": 64,
                        "time": 355.8175499812496,
                        "value": 1
                    },
                    {
                        "number": 64,
                        "time": 356.3594684999996,
                        "value": 0
                    },
                    {
                        "number": 64,
                        "time": 356.7361210874996,
                        "value": 1
                    },
                    {
                        "number": 64,
                        "time": 358.2042974999996,
                        "value": 0
                    },
                    {
                        "number": 64,
                        "time": 358.9217309999996,
                        "value": 1
                    },
                    {
                        "number": 64,
                        "time": 360.0491264999996,
                        "value": 0
                    },
                    {
                        "number": 64,
                        "time": 360.3565979999996,
                        "value": 1
                    },
                    {
                        "number": 64,
                        "time": 361.4596520062496,
                        "value": 0
                    },
                    {
                        "number": 64,
                        "time": 361.9118913374996,
                        "value": 1
                    },
                    {
                        "number": 64,
                        "time": 363.7387844999996,
                        "value": 0
                    },
                    {
                        "number": 64,
                        "time": 363.8476806562496,
                        "value": 1
                    },
                    {
                        "number": 64,
                        "time": 365.5836134999996,
                        "value": 0
                    },
                    {
                        "number": 64,
                        "time": 366.0281660437496,
                        "value": 1
                    },
                    {
                        "number": 64,
                        "time": 370.4262896249996,
                        "value": 0
                    }
                ]
            },
            "id": 3,
            "name": "Pedale",
            "instrumentNumber": 0,
            "instrument": "acoustic grand piano",
            "instrumentFamily": "piano",
            "channelNumber": 0,
            "isPercussion": false
        },
        {
            "startTime": 0,
            "duration": 0,
            "length": 0,
            "notes": [],
            "controlChanges": {},
            "id": 4,
            "name": "Schumann: Kreisleriana 2"
        },
        {
            "startTime": 0,
            "duration": 0,
            "length": 0,
            "notes": [],
            "controlChanges": {},
            "id": 5,
            "name": "Copyright  2007 by Bernd Krueger"
        },
        {
            "startTime": 0,
            "duration": 0,
            "length": 0,
            "notes": [],
            "controlChanges": {},
            "id": 6,
            "name": "http://www.piano-midi.de/"
        },
        {
            "startTime": 0,
            "duration": 0,
            "length": 0,
            "notes": [],
            "controlChanges": {},
            "id": 7,
            "name": "Edition: 2014-03-27"
        },
        {
            "startTime": 0,
            "duration": 0,
            "length": 0,
            "notes": [],
            "controlChanges": {},
            "id": 8,
            "name": "Spur 8"
        },
        {
            "startTime": 0,
            "duration": 0,
            "length": 0,
            "notes": [],
            "controlChanges": {},
            "id": 9,
            "name": "Spur 9"
        },
        {
            "startTime": 0,
            "duration": 0,
            "length": 0,
            "notes": [],
            "controlChanges": {},
            "id": 10,
            "name": "Spur 10"
        },
        {
            "startTime": 0,
            "duration": 0,
            "length": 0,
            "notes": [],
            "controlChanges": {},
            "id": 11,
            "name": "Spur 11"
        },
        {
            "startTime": 0,
            "duration": 0,
            "length": 0,
            "notes": [],
            "controlChanges": {},
            "id": 12,
            "name": "Spur 12"
        },
        {
            "startTime": 0,
            "duration": 0,
            "length": 0,
            "notes": [],
            "controlChanges": {},
            "id": 13,
            "name": "Spur 13"
        },
        {
            "startTime": 0,
            "duration": 0,
            "length": 0,
            "notes": [],
            "controlChanges": {},
            "id": 14,
            "name": "Spur 14"
        },
        {
            "startTime": 0,
            "duration": 0,
            "length": 0,
            "notes": [],
            "controlChanges": {},
            "id": 15,
            "name": "Spur 15"
        },
        {
            "startTime": 0,
            "duration": 0,
            "length": 0,
            "notes": [],
            "controlChanges": {},
            "id": 16,
            "name": "Spur 16"
        }
    ]
}