{
    "header": {
        "PPQ": 480,
        "timeSignature": [
            2,
            8
        ],
        "bpm": 26.000003466667128,
        "name": "Fast zu ernst"
    },
    "startTime": 0,
    "duration": 133.8461359999996,
    "tracks": [
        {
            "startTime": 0,
            "duration": 0,
            "length": 0,
            "notes": [],
            "controlChanges": {},
            "id": 0,
            "name": "Fast zu ernst"
        },
        {
            "startTime": 1.7307690000000002,
            "duration": 133.84613599999946,
            "length": 154,
            "notes": [
                {
                    "name": "D#4",
                    "midi": 63,
                    "time": 1.7307690000000002,
                    "velocity": 0.3700787401574803,
                    "duration": 1.153846
                },
                {
                    "name": "G#4",
                    "midi": 68,
                    "time": 2.884615,
                    "velocity": 0.41732283464566927,
                    "duration": 1.1538459999999997
                },
                {
                    "name": "B3",
                    "midi": 59,
                    "time": 3.461538,
                    "velocity": 0.2047244094488189,
                    "duration": 1.1538459999999997
                },
                {
                    "name": "B4",
                    "midi": 71,
                    "time": 4.038461,
                    "velocity": 0.3543307086614173,
                    "duration": 1.1538459999999997
                },
                {
                    "name": "A#4",
                    "midi": 70,
                    "time": 5.192307,
                    "velocity": 0.3937007874015748,
                    "duration": 1.1538459999999997
                },
                {
                    "name": "C#4",
                    "midi": 61,
                    "time": 5.769229999999999,
                    "velocity": 0.2125984251968504,
                    "duration": 1.1538459999999997
                },
                {
                    "name": "G4",
                    "midi": 67,
                    "time": 6.346152999999999,
                    "velocity": 0.36220472440944884,
                    "duration": 1.1538459999999997
                },
                {
                    "name": "G#4",
                    "midi": 68,
                    "time": 7.499998999999999,
                    "velocity": 0.3937007874015748,
                    "duration": 1.1538460000000015
                },
                {
                    "name": "B3",
                    "midi": 59,
                    "time": 8.076922,
                    "velocity": 0.2204724409448819,
                    "duration": 1.1538460000000015
                },
                {
                    "name": "A#4",
                    "midi": 70,
                    "time": 8.653845,
                    "velocity": 0.4015748031496063,
                    "duration": 1.1538460000000015
                },
                {
                    "name": "B4",
                    "midi": 71,
                    "time": 9.807691000000002,
                    "velocity": 0.41732283464566927,
                    "duration": 1.1538460000000015
                },
                {
                    "name": "B3",
                    "midi": 59,
                    "time": 10.384614000000003,
                    "velocity": 0.23622047244094488,
                    "duration": 1.1538460000000015
                },
                {
                    "name": "C#5",
                    "midi": 73,
                    "time": 10.961537000000003,
                    "velocity": 0.4015748031496063,
                    "duration": 1.1538460000000015
                },
                {
                    "name": "D#5",
                    "midi": 75,
                    "time": 12.115383000000005,
                    "velocity": 0.3464566929133858,
                    "duration": 1.1538460000000015
                },
                {
                    "name": "D#4",
                    "midi": 63,
                    "time": 12.692306000000006,
                    "velocity": 0.2204724409448819,
                    "duration": 1.1538460000000015
                },
                {
                    "name": "E5",
                    "midi": 76,
                    "time": 13.269229000000006,
                    "velocity": 0.2992125984251969,
                    "duration": 1.1538460000000015
                },
                {
                    "name": "C#5",
                    "midi": 73,
                    "time": 14.423075000000008,
                    "velocity": 0.3228346456692913,
                    "duration": 1.1538460000000015
                },
                {
                    "name": "E4",
                    "midi": 64,
                    "time": 14.999998000000009,
                    "velocity": 0.2047244094488189,
                    "duration": 1.1538460000000015
                },
                {
                    "name": "D#5",
                    "midi": 75,
                    "time": 15.57692100000001,
                    "velocity": 0.29133858267716534,
                    "duration": 1.1538460000000015
                },
                {
                    "name": "B4",
                    "midi": 71,
                    "time": 16.73076700000001,
                    "velocity": 0.28346456692913385,
                    "duration": 1.1538460000000015
                },
                {
                    "name": "D#4",
                    "midi": 63,
                    "time": 17.30769000000001,
                    "velocity": 0.2283464566929134,
                    "duration": 2.3076919999999994
                },
                {
                    "name": "F#4",
                    "midi": 66,
                    "time": 20.19230500000001,
                    "velocity": 0.3700787401574803,
                    "duration": 1.1538460000000015
                },
                {
                    "name": "B4",
                    "midi": 71,
                    "time": 21.346151000000013,
                    "velocity": 0.41732283464566927,
                    "duration": 1.1538460000000015
                },
                {
                    "name": "D#4",
                    "midi": 63,
                    "time": 21.923074000000014,
                    "velocity": 0.2047244094488189,
                    "duration": 1.1538460000000015
                },
                {
                    "name": "D#5",
                    "midi": 75,
                    "time": 22.499997000000015,
                    "velocity": 0.3543307086614173,
                    "duration": 1.1538460000000015
                },
                {
                    "name": "C#5",
                    "midi": 73,
                    "time": 23.653843000000016,
                    "velocity": 0.3937007874015748,
                    "duration": 1.1538460000000015
                },
                {
                    "name": "E4",
                    "midi": 64,
                    "time": 24.230766000000017,
                    "velocity": 0.2125984251968504,
                    "duration": 1.1538460000000015
                },
                {
                    "name": "A#4",
                    "midi": 70,
                    "time": 24.807689000000018,
                    "velocity": 0.36220472440944884,
                    "duration": 1.1538460000000015
                },
                {
                    "name": "B4",
                    "midi": 71,
                    "time": 25.96153500000002,
                    "velocity": 0.3937007874015748,
                    "duration": 1.1538460000000015
                },
                {
                    "name": "D#4",
                    "midi": 63,
                    "time": 26.53845800000002,
                    "velocity": 0.2204724409448819,
                    "duration": 1.1538460000000015
                },
                {
                    "name": "C#5",
                    "midi": 73,
                    "time": 27.11538100000002,
                    "velocity": 0.4015748031496063,
                    "duration": 1.1538460000000015
                },
                {
                    "name": "D#5",
                    "midi": 75,
                    "time": 28.269227000000022,
                    "velocity": 0.41732283464566927,
                    "duration": 1.1538460000000015
                },
                {
                    "name": "D#4",
                    "midi": 63,
                    "time": 28.846150000000023,
                    "velocity": 0.23622047244094488,
                    "duration": 1.1538460000000015
                },
                {
                    "name": "F5",
                    "midi": 77,
                    "time": 29.423073000000024,
                    "velocity": 0.44881889763779526,
                    "duration": 1.1538460000000015
                },
                {
                    "name": "F#5",
                    "midi": 78,
                    "time": 30.576919000000025,
                    "velocity": 0.48031496062992124,
                    "duration": 1.1538460000000015
                },
                {
                    "name": "F#4",
                    "midi": 66,
                    "time": 31.153842000000026,
                    "velocity": 0.2755905511811024,
                    "duration": 1.1538460000000015
                },
                {
                    "name": "G#5",
                    "midi": 80,
                    "time": 31.730765000000027,
                    "velocity": 0.4094488188976378,
                    "duration": 1.1538460000000015
                },
                {
                    "name": "F5",
                    "midi": 77,
                    "time": 32.88461100000003,
                    "velocity": 0.4330708661417323,
                    "duration": 1.1538460000000015
                },
                {
                    "name": "G#4",
                    "midi": 68,
                    "time": 33.46153400000003,
                    "velocity": 0.2047244094488189,
                    "duration": 1.1538460000000015
                },
                {
                    "name": "F#5",
                    "midi": 78,
                    "time": 34.03845700000003,
                    "velocity": 0.3464566929133858,
                    "duration": 1.1538460000000015
                },
                {
                    "name": "D#5",
                    "midi": 75,
                    "time": 35.19230300000003,
                    "velocity": 0.2677165354330709,
                    "duration": 2.8846150000000037
                },
                {
                    "name": "F#4",
                    "midi": 66,
                    "time": 35.76922600000003,
                    "velocity": 0.2047244094488189,
                    "duration": 2.307692000000003
                },
                {
                    "name": "D#5",
                    "midi": 75,
                    "time": 38.653841000000035,
                    "velocity": 0.3779527559055118,
                    "duration": 1.1538460000000015
                },
                {
                    "name": "E5",
                    "midi": 76,
                    "time": 39.80768700000004,
                    "velocity": 0.4015748031496063,
                    "duration": 1.1538460000000015
                },
                {
                    "name": "G4",
                    "midi": 67,
                    "time": 40.38461000000004,
                    "velocity": 0.2125984251968504,
                    "duration": 1.1538460000000015
                },
                {
                    "name": "C#5",
                    "midi": 73,
                    "time": 40.96153300000004,
                    "velocity": 0.3543307086614173,
                    "duration": 1.1538460000000015
                },
                {
                    "name": "D#5",
                    "midi": 75,
                    "time": 42.11537900000004,
                    "velocity": 0.3779527559055118,
                    "duration": 1.1538460000000015
                },
                {
                    "name": "G#4",
                    "midi": 68,
                    "time": 42.69230200000004,
                    "velocity": 0.2204724409448819,
                    "duration": 1.1538460000000015
                },
                {
                    "name": "B4",
                    "midi": 71,
                    "time": 43.26922500000004,
                    "velocity": 0.3543307086614173,
                    "duration": 1.1538460000000015
                },
                {
                    "name": "B4",
                    "midi": 71,
                    "time": 44.42307100000004,
                    "velocity": 0.3464566929133858,
                    "duration": 1.1538460000000015
                },
                {
                    "name": "D4",
                    "midi": 62,
                    "time": 44.999994000000044,
                    "velocity": 0.2125984251968504,
                    "duration": 1.1538460000000015
                },
                {
                    "name": "G#4",
                    "midi": 68,
                    "time": 45.576917000000044,
                    "velocity": 0.30708661417322836,
                    "duration": 1.1538460000000015
                },
                {
                    "name": "G4",
                    "midi": 67,
                    "time": 46.730763000000046,
                    "velocity": 0.2755905511811024,
                    "duration": 1.1538460000000015
                },
                {
                    "name": "D#4",
                    "midi": 63,
                    "time": 47.30768600000005,
                    "velocity": 0.2047244094488189,
                    "duration": 2.307692000000003
                },
                {
                    "name": "A#4",
                    "midi": 70,
                    "time": 47.88460900000005,
                    "velocity": 0.1968503937007874,
                    "duration": 1.7307690000000022
                },
                {
                    "name": "D#4",
                    "midi": 63,
                    "time": 50.19230100000005,
                    "velocity": 0.3543307086614173,
                    "duration": 1.139422924999998
                },
                {
                    "name": "G#4",
                    "midi": 68,
                    "time": 51.34614700000005,
                    "velocity": 0.4015748031496063,
                    "duration": 1.1538460000000015
                },
                {
                    "name": "B3",
                    "midi": 59,
                    "time": 51.92307000000005,
                    "velocity": 0.2204724409448819,
                    "duration": 1.1538460000000015
                },
                {
                    "name": "A#4",
                    "midi": 70,
                    "time": 52.49999300000005,
                    "velocity": 0.41732283464566927,
                    "duration": 1.1538460000000015
                },
                {
                    "name": "B4",
                    "midi": 71,
                    "time": 53.653839000000055,
                    "velocity": 0.4330708661417323,
                    "duration": 1.1538460000000015
                },
                {
                    "name": "C#4",
                    "midi": 61,
                    "time": 54.230762000000055,
                    "velocity": 0.2204724409448819,
                    "duration": 1.1538460000000015
                },
                {
                    "name": "C#5",
                    "midi": 73,
                    "time": 54.807685000000056,
                    "velocity": 0.4094488188976378,
                    "duration": 1.1538460000000015
                },
                {
                    "name": "D#5",
                    "midi": 75,
                    "time": 55.96153100000006,
                    "velocity": 0.4330708661417323,
                    "duration": 1.1538460000000015
                },
                {
                    "name": "C#4",
                    "midi": 61,
                    "time": 56.53845400000006,
                    "velocity": 0.25984251968503935,
                    "duration": 1.1538460000000015
                },
                {
                    "name": "C#5",
                    "midi": 73,
                    "time": 57.11537700000006,
                    "velocity": 0.41732283464566927,
                    "duration": 1.1538460000000015
                },
                {
                    "name": "B4",
                    "midi": 71,
                    "time": 58.26922300000006,
                    "velocity": 0.3937007874015748,
                    "duration": 0.5769230000000007
                },
                {
                    "name": "B3",
                    "midi": 59,
                    "time": 58.84614600000006,
                    "velocity": 0.2125984251968504,
                    "duration": 1.1538460000000015
                },
                {
                    "name": "B4",
                    "midi": 71,
                    "time": 59.42306900000006,
                    "velocity": 0.36220472440944884,
                    "duration": 1.1538460000000015
                },
                {
                    "name": "B4",
                    "midi": 71,
                    "time": 60.576915000000064,
                    "velocity": 0.3858267716535433,
                    "duration": 1.1538460000000015
                },
                {
                    "name": "C#4",
                    "midi": 61,
                    "time": 61.153838000000064,
                    "velocity": 0.33070866141732286,
                    "duration": 0.8653844999999976
                },
                {
                    "name": "A#4",
                    "midi": 70,
                    "time": 61.730761000000065,
                    "velocity": 0.36220472440944884,
                    "duration": 1.1538459999999944
                },
                {
                    "name": "D#4",
                    "midi": 63,
                    "time": 62.01922250000006,
                    "velocity": 0.29133858267716534,
                    "duration": 0.8653844999999976
                },
                {
                    "name": "G#4",
                    "midi": 68,
                    "time": 62.88460700000006,
                    "velocity": 0.36220472440944884,
                    "duration": 1.1538460000000015
                },
                {
                    "name": "B3",
                    "midi": 59,
                    "time": 63.46153000000006,
                    "velocity": 0.2047244094488189,
                    "duration": 1.1538459999999944
                },
                {
                    "name": "B4",
                    "midi": 71,
                    "time": 64.03845300000006,
                    "velocity": 0.3464566929133858,
                    "duration": 1.1538459999999873
                },
                {
                    "name": "A#4",
                    "midi": 70,
                    "time": 65.19229900000005,
                    "velocity": 0.36220472440944884,
                    "duration": 1.1538459999999873
                },
                {
                    "name": "C#4",
                    "midi": 61,
                    "time": 65.76922200000004,
                    "velocity": 0.2125984251968504,
                    "duration": 1.1538459999999873
                },
                {
                    "name": "G4",
                    "midi": 67,
                    "time": 66.34614500000004,
                    "velocity": 0.36220472440944884,
                    "duration": 1.1538459999999873
                },
                {
                    "name": "G#4",
                    "midi": 68,
                    "time": 67.49999100000002,
                    "velocity": 0.3937007874015748,
                    "duration": 1.1538459999999873
                },
                {
                    "name": "B3",
                    "midi": 59,
                    "time": 68.07691400000002,
                    "velocity": 0.2204724409448819,
                    "duration": 1.1538459999999873
                },
                {
                    "name": "A#4",
                    "midi": 70,
                    "time": 68.65383700000001,
                    "velocity": 0.4015748031496063,
                    "duration": 1.1538459999999873
                },
                {
                    "name": "B4",
                    "midi": 71,
                    "time": 69.807683,
                    "velocity": 0.41732283464566927,
                    "duration": 1.1538459999999873
                },
                {
                    "name": "B3",
                    "midi": 59,
                    "time": 70.38460599999999,
                    "velocity": 0.23622047244094488,
                    "duration": 1.1538459999999873
                },
                {
                    "name": "C#5",
                    "midi": 73,
                    "time": 70.96152899999998,
                    "velocity": 0.4015748031496063,
                    "duration": 1.1538459999999873
                },
                {
                    "name": "D#5",
                    "midi": 75,
                    "time": 72.11537499999997,
                    "velocity": 0.3464566929133858,
                    "duration": 1.1538459999999873
                },
                {
                    "name": "D#4",
                    "midi": 63,
                    "time": 72.69229799999997,
                    "velocity": 0.2204724409448819,
                    "duration": 1.1538459999999873
                },
                {
                    "name": "E5",
                    "midi": 76,
                    "time": 73.26922099999996,
                    "velocity": 0.2992125984251969,
                    "duration": 1.1538459999999873
                },
                {
                    "name": "C#5",
                    "midi": 73,
                    "time": 74.42306699999995,
                    "velocity": 0.3228346456692913,
                    "duration": 1.1538459999999873
                },
                {
                    "name": "E4",
                    "midi": 64,
                    "time": 74.99998999999994,
                    "velocity": 0.2047244094488189,
                    "duration": 1.1538459999999873
                },
                {
                    "name": "D#5",
                    "midi": 75,
                    "time": 75.57691299999993,
                    "velocity": 0.29133858267716534,
                    "duration": 1.1538459999999873
                },
                {
                    "name": "B4",
                    "midi": 71,
                    "time": 76.73075899999992,
                    "velocity": 0.28346456692913385,
                    "duration": 2.8846149999999966
                },
                {
                    "name": "D#4",
                    "midi": 63,
                    "time": 77.30768199999991,
                    "velocity": 0.2283464566929134,
                    "duration": 2.307692000000003
                },
                {
                    "name": "F#4",
                    "midi": 66,
                    "time": 80.19229699999991,
                    "velocity": 0.4015748031496063,
                    "duration": 1.1538460000000015
                },
                {
                    "name": "B4",
                    "midi": 71,
                    "time": 81.34614299999991,
                    "velocity": 0.41732283464566927,
                    "duration": 1.1538459999999873
                },
                {
                    "name": "D#4",
                    "midi": 63,
                    "time": 81.9230659999999,
                    "velocity": 0.2047244094488189,
                    "duration": 1.1538459999999873
                },
                {
                    "name": "D#5",
                    "midi": 75,
                    "time": 82.4999889999999,
                    "velocity": 0.3543307086614173,
                    "duration": 1.1538459999999873
                },
                {
                    "name": "C#5",
                    "midi": 73,
                    "time": 83.65383499999989,
                    "velocity": 0.3937007874015748,
                    "duration": 1.1538459999999873
                },
                {
                    "name": "E4",
                    "midi": 64,
                    "time": 84.23075799999988,
                    "velocity": 0.2125984251968504,
                    "duration": 1.1538459999999873
                },
                {
                    "name": "A#4",
                    "midi": 70,
                    "time": 84.80768099999987,
                    "velocity": 0.36220472440944884,
                    "duration": 1.1538459999999873
                },
                {
                    "name": "B4",
                    "midi": 71,
                    "time": 85.96152699999986,
                    "velocity": 0.3937007874015748,
                    "duration": 1.1538459999999873
                },
                {
                    "name": "D#4",
                    "midi": 63,
                    "time": 86.53844999999986,
                    "velocity": 0.2204724409448819,
                    "duration": 1.1538459999999873
                },
                {
                    "name": "C#5",
                    "midi": 73,
                    "time": 87.11537299999985,
                    "velocity": 0.4015748031496063,
                    "duration": 1.1538459999999873
                },
                {
                    "name": "D#5",
                    "midi": 75,
                    "time": 88.26921899999984,
                    "velocity": 0.41732283464566927,
                    "duration": 1.1538459999999873
                },
                {
                    "name": "D#4",
                    "midi": 63,
                    "time": 88.84614199999983,
                    "velocity": 0.23622047244094488,
                    "duration": 1.1538459999999873
                },
                {
                    "name": "F5",
                    "midi": 77,
                    "time": 89.42306499999982,
                    "velocity": 0.44881889763779526,
                    "duration": 1.1538459999999873
                },
                {
                    "name": "F#5",
                    "midi": 78,
                    "time": 90.57691099999981,
                    "velocity": 0.48031496062992124,
                    "duration": 1.1538459999999873
                },
                {
                    "name": "F#4",
                    "midi": 66,
                    "time": 91.1538339999998,
                    "velocity": 0.2755905511811024,
                    "duration": 1.1538459999999873
                },
                {
                    "name": "G#5",
                    "midi": 80,
                    "time": 91.7307569999998,
                    "velocity": 0.4094488188976378,
                    "duration": 1.1538459999999873
                },
                {
                    "name": "F5",
                    "midi": 77,
                    "time": 92.88460299999979,
                    "velocity": 0.4330708661417323,
                    "duration": 1.1538459999999873
                },
                {
                    "name": "G#4",
                    "midi": 68,
                    "time": 93.46152599999978,
                    "velocity": 0.2047244094488189,
                    "duration": 1.1538459999999873
                },
                {
                    "name": "F#5",
                    "midi": 78,
                    "time": 94.03844899999977,
                    "velocity": 0.3464566929133858,
                    "duration": 1.1538459999999873
                },
                {
                    "name": "D#5",
                    "midi": 75,
                    "time": 95.19229499999976,
                    "velocity": 0.2677165354330709,
                    "duration": 2.8846149999999966
                },
                {
                    "name": "F#4",
                    "midi": 66,
                    "time": 95.76921799999975,
                    "velocity": 0.2047244094488189,
                    "duration": 2.307692000000003
                },
                {
                    "name": "D#5",
                    "midi": 75,
                    "time": 98.65383299999975,
                    "velocity": 0.3779527559055118,
                    "duration": 1.1538460000000015
                },
                {
                    "name": "E5",
                    "midi": 76,
                    "time": 99.80767899999975,
                    "velocity": 0.4015748031496063,
                    "duration": 1.1538459999999873
                },
                {
                    "name": "G4",
                    "midi": 67,
                    "time": 100.38460199999975,
                    "velocity": 0.2125984251968504,
                    "duration": 1.1538459999999873
                },
                {
                    "name": "C#5",
                    "midi": 73,
                    "time": 100.96152499999974,
                    "velocity": 0.3543307086614173,
                    "duration": 1.1538459999999873
                },
                {
                    "name": "D#5",
                    "midi": 75,
                    "time": 102.11537099999973,
                    "velocity": 0.3779527559055118,
                    "duration": 1.1538459999999873
                },
                {
                    "name": "G#4",
                    "midi": 68,
                    "time": 102.69229399999972,
                    "velocity": 0.2204724409448819,
                    "duration": 1.1538459999999873
                },
                {
                    "name": "B4",
                    "midi": 71,
                    "time": 103.26921699999971,
                    "velocity": 0.3543307086614173,
                    "duration": 1.1538459999999873
                },
                {
                    "name": "B4",
                    "midi": 71,
                    "time": 104.4230629999997,
                    "velocity": 0.3464566929133858,
                    "duration": 1.1538459999999873
                },
                {
                    "name": "D4",
                    "midi": 62,
                    "time": 104.9999859999997,
                    "velocity": 0.2125984251968504,
                    "duration": 1.1538459999999873
                },
                {
                    "name": "G#4",
                    "midi": 68,
                    "time": 105.57690899999969,
                    "velocity": 0.30708661417322836,
                    "duration": 1.1538459999999873
                },
                {
                    "name": "G4",
                    "midi": 67,
                    "time": 106.73075499999968,
                    "velocity": 0.2992125984251969,
                    "duration": 1.1538459999999873
                },
                {
                    "name": "D#4",
                    "midi": 63,
                    "time": 107.30767799999967,
                    "velocity": 0.2047244094488189,
                    "duration": 2.3076919999999888
                },
                {
                    "name": "A#4",
                    "midi": 70,
                    "time": 107.88460099999966,
                    "velocity": 0.1968503937007874,
                    "duration": 1.7307689999999951
                },
                {
                    "name": "D#4",
                    "midi": 63,
                    "time": 110.19229299999965,
                    "velocity": 0.3543307086614173,
                    "duration": 1.1394229250000052
                },
                {
                    "name": "G#4",
                    "midi": 68,
                    "time": 111.34613899999965,
                    "velocity": 0.4015748031496063,
                    "duration": 1.1538459999999873
                },
                {
                    "name": "B3",
                    "midi": 59,
                    "time": 111.92306199999965,
                    "velocity": 0.2204724409448819,
                    "duration": 1.1538459999999873
                },
                {
                    "name": "A#4",
                    "midi": 70,
                    "time": 112.49998499999964,
                    "velocity": 0.41732283464566927,
                    "duration": 1.1538459999999873
                },
                {
                    "name": "B4",
                    "midi": 71,
                    "time": 113.65383099999963,
                    "velocity": 0.4330708661417323,
                    "duration": 1.1538459999999873
                },
                {
                    "name": "C#4",
                    "midi": 61,
                    "time": 114.23075399999962,
                    "velocity": 0.2204724409448819,
                    "duration": 1.1538459999999873
                },
                {
                    "name": "C#5",
                    "midi": 73,
                    "time": 114.80767699999961,
                    "velocity": 0.4094488188976378,
                    "duration": 1.1538459999999873
                },
                {
                    "name": "D#5",
                    "midi": 75,
                    "time": 115.9615229999996,
                    "velocity": 0.4330708661417323,
                    "duration": 1.1538459999999873
                },
                {
                    "name": "C#4",
                    "midi": 61,
                    "time": 116.5384459999996,
                    "velocity": 0.25984251968503935,
                    "duration": 1.1538459999999873
                },
                {
                    "name": "C#5",
                    "midi": 73,
                    "time": 117.11536899999959,
                    "velocity": 0.41732283464566927,
                    "duration": 1.1538459999999873
                },
                {
                    "name": "B4",
                    "midi": 71,
                    "time": 118.26921499999958,
                    "velocity": 0.3937007874015748,
                    "duration": 0.5769229999999936
                },
                {
                    "name": "B3",
                    "midi": 59,
                    "time": 118.84613799999957,
                    "velocity": 0.2125984251968504,
                    "duration": 1.1538459999999873
                },
                {
                    "name": "B4",
                    "midi": 71,
                    "time": 119.42306099999956,
                    "velocity": 0.36220472440944884,
                    "duration": 1.1538459999999873
                },
                {
                    "name": "B4",
                    "midi": 71,
                    "time": 120.57690699999955,
                    "velocity": 0.3858267716535433,
                    "duration": 1.1538459999999873
                },
                {
                    "name": "C#4",
                    "midi": 61,
                    "time": 121.15382999999954,
                    "velocity": 0.33070866141732286,
                    "duration": 0.8653844999999905
                },
                {
                    "name": "A#4",
                    "midi": 70,
                    "time": 121.73075299999954,
                    "velocity": 0.36220472440944884,
                    "duration": 1.1538460000000015
                },
                {
                    "name": "D#4",
                    "midi": 63,
                    "time": 122.01921449999953,
                    "velocity": 0.3228346456692913,
                    "duration": 0.8653845000000047
                },
                {
                    "name": "G#4",
                    "midi": 68,
                    "time": 122.88459899999954,
                    "velocity": 0.36220472440944884,
                    "duration": 1.1538459999999873
                },
                {
                    "name": "B3",
                    "midi": 59,
                    "time": 123.46152199999953,
                    "velocity": 0.2283464566929134,
                    "duration": 1.1538459999999873
                },
                {
                    "name": "A#4",
                    "midi": 70,
                    "time": 124.03844499999953,
                    "velocity": 0.3937007874015748,
                    "duration": 1.1538459999999873
                },
                {
                    "name": "B4",
                    "midi": 71,
                    "time": 125.19229099999951,
                    "velocity": 0.4094488188976378,
                    "duration": 1.1538459999999873
                },
                {
                    "name": "B3",
                    "midi": 59,
                    "time": 125.76921399999951,
                    "velocity": 0.2677165354330709,
                    "duration": 1.1538459999999873
                },
                {
                    "name": "D#5",
                    "midi": 75,
                    "time": 126.3461369999995,
                    "velocity": 0.4409448818897638,
                    "duration": 1.1538459999999873
                },
                {
                    "name": "G#5",
                    "midi": 80,
                    "time": 127.49998299999949,
                    "velocity": 0.48031496062992124,
                    "duration": 1.1538460000000015
                },
                {
                    "name": "A#3",
                    "midi": 58,
                    "time": 128.6538289999995,
                    "velocity": 0.3700787401574803,
                    "duration": 1.1538459999999873
                },
                {
                    "name": "B3",
                    "midi": 59,
                    "time": 129.80767499999948,
                    "velocity": 0.2992125984251969,
                    "duration": 1.1538459999999873
                },
                {
                    "name": "D#4",
                    "midi": 63,
                    "time": 130.96152099999946,
                    "velocity": 0.28346456692913385,
                    "duration": 2.8846149999999966
                },
                {
                    "name": "G#4",
                    "midi": 68,
                    "time": 131.53844399999946,
                    "velocity": 0.2283464566929134,
                    "duration": 2.307692000000003
                }
            ],
            "controlChanges": {
                "7": [
                    {
                        "number": 7,
                        "time": 0,
                        "value": 0.7874015748031497
                    }
                ],
                "10": [
                    {
                        "number": 10,
                        "time": 0,
                        "value": 0.5039370078740157
                    }
                ],
                "91": [
                    {
                        "number": 91,
                        "time": 1.7259613083333336,
                        "value": 1
                    }
                ]
            },
            "id": 1,
            "name": "Piano right",
            "instrumentNumber": 0,
            "instrument": "acoustic grand piano",
            "instrumentFamily": "piano",
            "channelNumber": 0,
            "isPercussion": false
        },
        {
            "startTime": 2.3076920000000003,
            "duration": 133.8461359999996,
            "length": 203,
            "notes": [
                {
                    "name": "G#2",
                    "midi": 44,
                    "time": 2.3076920000000003,
                    "velocity": 0.2283464566929134,
                    "duration": 0.5769229999999999
                },
                {
                    "name": "D#4",
                    "midi": 63,
                    "time": 2.884615,
                    "velocity": 0.2755905511811024,
                    "duration": 0.5769229999999999
                },
                {
                    "name": "G#3",
                    "midi": 56,
                    "time": 3.461538,
                    "velocity": 0.18110236220472442,
                    "duration": 0.5769229999999999
                },
                {
                    "name": "D#3",
                    "midi": 51,
                    "time": 4.038461,
                    "velocity": 0.2283464566929134,
                    "duration": 0.5769229999999999
                },
                {
                    "name": "G#2",
                    "midi": 44,
                    "time": 4.615384,
                    "velocity": 0.25984251968503935,
                    "duration": 0.5769229999999999
                },
                {
                    "name": "D#4",
                    "midi": 63,
                    "time": 5.192307,
                    "velocity": 0.2125984251968504,
                    "duration": 0.5769229999999999
                },
                {
                    "name": "G3",
                    "midi": 55,
                    "time": 5.769229999999999,
                    "velocity": 0.2047244094488189,
                    "duration": 0.5769229999999999
                },
                {
                    "name": "D#3",
                    "midi": 51,
                    "time": 6.346152999999999,
                    "velocity": 0.23622047244094488,
                    "duration": 0.5769229999999999
                },
                {
                    "name": "G#2",
                    "midi": 44,
                    "time": 6.923075999999999,
                    "velocity": 0.23622047244094488,
                    "duration": 0.5769229999999999
                },
                {
                    "name": "D#4",
                    "midi": 63,
                    "time": 7.499998999999999,
                    "velocity": 0.28346456692913385,
                    "duration": 0.5769230000000007
                },
                {
                    "name": "G#3",
                    "midi": 56,
                    "time": 8.076922,
                    "velocity": 0.2047244094488189,
                    "duration": 0.5769230000000007
                },
                {
                    "name": "D#3",
                    "midi": 51,
                    "time": 8.653845,
                    "velocity": 0.2204724409448819,
                    "duration": 0.5769230000000007
                },
                {
                    "name": "G2",
                    "midi": 43,
                    "time": 9.230768000000001,
                    "velocity": 0.23622047244094488,
                    "duration": 0.5769230000000007
                },
                {
                    "name": "E4",
                    "midi": 64,
                    "time": 9.807691000000002,
                    "velocity": 0.2755905511811024,
                    "duration": 0.576922999999999
                },
                {
                    "name": "C#4",
                    "midi": 61,
                    "time": 10.384614000000001,
                    "velocity": 0.2047244094488189,
                    "duration": 0.5769230000000007
                },
                {
                    "name": "E3",
                    "midi": 52,
                    "time": 10.961537000000002,
                    "velocity": 0.25984251968503935,
                    "duration": 0.5769230000000007
                },
                {
                    "name": "F#2",
                    "midi": 42,
                    "time": 11.538460000000002,
                    "velocity": 0.2755905511811024,
                    "duration": 0.5769230000000007
                },
                {
                    "name": "F#4",
                    "midi": 66,
                    "time": 12.115383000000003,
                    "velocity": 0.2992125984251969,
                    "duration": 0.576922999999999
                },
                {
                    "name": "B3",
                    "midi": 59,
                    "time": 12.692306000000002,
                    "velocity": 0.1889763779527559,
                    "duration": 0.5769230000000007
                },
                {
                    "name": "F#3",
                    "midi": 54,
                    "time": 13.269229000000003,
                    "velocity": 0.2283464566929134,
                    "duration": 0.5769230000000007
                },
                {
                    "name": "F#2",
                    "midi": 42,
                    "time": 13.846152000000004,
                    "velocity": 0.25984251968503935,
                    "duration": 0.5769230000000007
                },
                {
                    "name": "F#4",
                    "midi": 66,
                    "time": 14.423075000000004,
                    "velocity": 0.2125984251968504,
                    "duration": 0.5769230000000007
                },
                {
                    "name": "A#3",
                    "midi": 58,
                    "time": 14.999998000000005,
                    "velocity": 0.2125984251968504,
                    "duration": 0.5769230000000007
                },
                {
                    "name": "F#3",
                    "midi": 54,
                    "time": 15.576921000000006,
                    "velocity": 0.2125984251968504,
                    "duration": 0.5769230000000007
                },
                {
                    "name": "B2",
                    "midi": 47,
                    "time": 16.153844000000007,
                    "velocity": 0.2204724409448819,
                    "duration": 0.5769230000000007
                },
                {
                    "name": "F#4",
                    "midi": 66,
                    "time": 16.730767000000007,
                    "velocity": 0.23622047244094488,
                    "duration": 2.884615
                },
                {
                    "name": "B3",
                    "midi": 59,
                    "time": 17.307690000000008,
                    "velocity": 0.2204724409448819,
                    "duration": 2.3076919999999994
                },
                {
                    "name": "F#3",
                    "midi": 54,
                    "time": 17.88461300000001,
                    "velocity": 0.2047244094488189,
                    "duration": 1.7307689999999987
                },
                {
                    "name": "B2",
                    "midi": 47,
                    "time": 20.76922800000001,
                    "velocity": 0.2283464566929134,
                    "duration": 0.5769230000000007
                },
                {
                    "name": "F#4",
                    "midi": 66,
                    "time": 21.34615100000001,
                    "velocity": 0.2677165354330709,
                    "duration": 0.5769230000000007
                },
                {
                    "name": "B3",
                    "midi": 59,
                    "time": 21.92307400000001,
                    "velocity": 0.18110236220472442,
                    "duration": 0.5769230000000007
                },
                {
                    "name": "F#3",
                    "midi": 54,
                    "time": 22.49999700000001,
                    "velocity": 0.2283464566929134,
                    "duration": 0.5769230000000007
                },
                {
                    "name": "B2",
                    "midi": 47,
                    "time": 23.076920000000012,
                    "velocity": 0.25984251968503935,
                    "duration": 0.5769230000000007
                },
                {
                    "name": "G4",
                    "midi": 67,
                    "time": 23.653843000000013,
                    "velocity": 0.2125984251968504,
                    "duration": 1.7307690000000022
                },
                {
                    "name": "C#4",
                    "midi": 61,
                    "time": 24.230766000000013,
                    "velocity": 0.2047244094488189,
                    "duration": 0.5769230000000007
                },
                {
                    "name": "F#3",
                    "midi": 54,
                    "time": 24.807689000000014,
                    "velocity": 0.23622047244094488,
                    "duration": 0.5769230000000007
                },
                {
                    "name": "B2",
                    "midi": 47,
                    "time": 25.384612000000015,
                    "velocity": 0.23622047244094488,
                    "duration": 0.5769230000000007
                },
                {
                    "name": "F#4",
                    "midi": 66,
                    "time": 25.961535000000016,
                    "velocity": 0.2677165354330709,
                    "duration": 0.5769230000000007
                },
                {
                    "name": "B3",
                    "midi": 59,
                    "time": 26.538458000000016,
                    "velocity": 0.2047244094488189,
                    "duration": 0.5769230000000007
                },
                {
                    "name": "F#3",
                    "midi": 54,
                    "time": 27.115381000000017,
                    "velocity": 0.2204724409448819,
                    "duration": 0.5769230000000007
                },
                {
                    "name": "G#2",
                    "midi": 44,
                    "time": 27.692304000000018,
                    "velocity": 0.23622047244094488,
                    "duration": 0.5769230000000007
                },
                {
                    "name": "F4",
                    "midi": 65,
                    "time": 28.26922700000002,
                    "velocity": 0.2755905511811024,
                    "duration": 0.5769230000000007
                },
                {
                    "name": "B3",
                    "midi": 59,
                    "time": 28.84615000000002,
                    "velocity": 0.2047244094488189,
                    "duration": 0.5769230000000007
                },
                {
                    "name": "F3",
                    "midi": 53,
                    "time": 29.42307300000002,
                    "velocity": 0.25984251968503935,
                    "duration": 0.5769230000000007
                },
                {
                    "name": "A#2",
                    "midi": 46,
                    "time": 29.99999600000002,
                    "velocity": 0.2755905511811024,
                    "duration": 0.5769230000000007
                },
                {
                    "name": "A#4",
                    "midi": 70,
                    "time": 30.57691900000002,
                    "velocity": 0.2992125984251969,
                    "duration": 0.5769230000000007
                },
                {
                    "name": "D#4",
                    "midi": 63,
                    "time": 31.153842000000022,
                    "velocity": 0.1889763779527559,
                    "duration": 0.5769230000000007
                },
                {
                    "name": "A#3",
                    "midi": 58,
                    "time": 31.730765000000023,
                    "velocity": 0.2283464566929134,
                    "duration": 0.5769229999999972
                },
                {
                    "name": "A#2",
                    "midi": 46,
                    "time": 32.30768800000002,
                    "velocity": 0.25984251968503935,
                    "duration": 0.5769230000000007
                },
                {
                    "name": "B4",
                    "midi": 71,
                    "time": 32.88461100000002,
                    "velocity": 0.2125984251968504,
                    "duration": 1.7307690000000022
                },
                {
                    "name": "D4",
                    "midi": 62,
                    "time": 33.46153400000002,
                    "velocity": 0.2125984251968504,
                    "duration": 0.5769230000000007
                },
                {
                    "name": "A#3",
                    "midi": 58,
                    "time": 34.03845700000002,
                    "velocity": 0.2125984251968504,
                    "duration": 0.5769230000000007
                },
                {
                    "name": "D#3",
                    "midi": 51,
                    "time": 34.61538000000002,
                    "velocity": 0.2204724409448819,
                    "duration": 0.5769230000000007
                },
                {
                    "name": "A#4",
                    "midi": 70,
                    "time": 35.192303000000024,
                    "velocity": 0.2125984251968504,
                    "duration": 2.8846150000000037
                },
                {
                    "name": "D#4",
                    "midi": 63,
                    "time": 35.769226000000025,
                    "velocity": 0.2047244094488189,
                    "duration": 2.307692000000003
                },
                {
                    "name": "A#3",
                    "midi": 58,
                    "time": 36.346149000000025,
                    "velocity": 0.2047244094488189,
                    "duration": 1.7307690000000022
                },
                {
                    "name": "D#3",
                    "midi": 51,
                    "time": 39.23076400000003,
                    "velocity": 0.2204724409448819,
                    "duration": 0.5769230000000007
                },
                {
                    "name": "A#4",
                    "midi": 70,
                    "time": 39.80768700000003,
                    "velocity": 0.2440944881889764,
                    "duration": 0.5769230000000007
                },
                {
                    "name": "E4",
                    "midi": 64,
                    "time": 40.38461000000003,
                    "velocity": 0.1889763779527559,
                    "duration": 0.5769230000000007
                },
                {
                    "name": "C#4",
                    "midi": 61,
                    "time": 40.96153300000003,
                    "velocity": 0.23622047244094488,
                    "duration": 0.5769230000000007
                },
                {
                    "name": "D#3",
                    "midi": 51,
                    "time": 41.53845600000003,
                    "velocity": 0.2125984251968504,
                    "duration": 0.5769230000000007
                },
                {
                    "name": "B4",
                    "midi": 71,
                    "time": 42.11537900000003,
                    "velocity": 0.23622047244094488,
                    "duration": 0.5769230000000007
                },
                {
                    "name": "D#4",
                    "midi": 63,
                    "time": 42.69230200000003,
                    "velocity": 0.1968503937007874,
                    "duration": 0.5769230000000007
                },
                {
                    "name": "B3",
                    "midi": 59,
                    "time": 43.269225000000034,
                    "velocity": 0.2204724409448819,
                    "duration": 0.5769230000000007
                },
                {
                    "name": "D#3",
                    "midi": 51,
                    "time": 43.846148000000035,
                    "velocity": 0.2204724409448819,
                    "duration": 0.5769230000000007
                },
                {
                    "name": "F4",
                    "midi": 65,
                    "time": 44.423071000000036,
                    "velocity": 0.2283464566929134,
                    "duration": 0.5769230000000078
                },
                {
                    "name": "B3",
                    "midi": 59,
                    "time": 44.999994000000044,
                    "velocity": 0.1889763779527559,
                    "duration": 0.5769230000000007
                },
                {
                    "name": "G#3",
                    "midi": 56,
                    "time": 45.576917000000044,
                    "velocity": 0.2204724409448819,
                    "duration": 0.5769230000000007
                },
                {
                    "name": "D#2",
                    "midi": 39,
                    "time": 46.153840000000045,
                    "velocity": 0.25984251968503935,
                    "duration": 0.5769230000000007
                },
                {
                    "name": "G4",
                    "midi": 67,
                    "time": 46.730763000000046,
                    "velocity": 0.2204724409448819,
                    "duration": 2.8846149999999895
                },
                {
                    "name": "A#3",
                    "midi": 58,
                    "time": 47.30768600000004,
                    "velocity": 0.18110236220472442,
                    "duration": 2.307691999999996
                },
                {
                    "name": "G#2",
                    "midi": 44,
                    "time": 50.76922400000004,
                    "velocity": 0.2125984251968504,
                    "duration": 0.5769230000000007
                },
                {
                    "name": "D#4",
                    "midi": 63,
                    "time": 51.34614700000004,
                    "velocity": 0.2125984251968504,
                    "duration": 0.5769230000000007
                },
                {
                    "name": "G#3",
                    "midi": 56,
                    "time": 51.92307000000004,
                    "velocity": 0.1732283464566929,
                    "duration": 0.5769230000000007
                },
                {
                    "name": "D#3",
                    "midi": 51,
                    "time": 52.49999300000004,
                    "velocity": 0.2125984251968504,
                    "duration": 0.5769230000000007
                },
                {
                    "name": "E2",
                    "midi": 40,
                    "time": 53.07691600000004,
                    "velocity": 0.2677165354330709,
                    "duration": 0.5769230000000007
                },
                {
                    "name": "E4",
                    "midi": 64,
                    "time": 53.65383900000004,
                    "velocity": 0.2283464566929134,
                    "duration": 1.7307690000000093
                },
                {
                    "name": "G#3",
                    "midi": 56,
                    "time": 54.23076200000005,
                    "velocity": 0.1732283464566929,
                    "duration": 0.5769230000000007
                },
                {
                    "name": "B3",
                    "midi": 59,
                    "time": 54.23076200000005,
                    "velocity": 0.1732283464566929,
                    "duration": 1.1538460000000015
                },
                {
                    "name": "G3",
                    "midi": 55,
                    "time": 54.80768500000005,
                    "velocity": 0.2125984251968504,
                    "duration": 0.5769230000000007
                },
                {
                    "name": "F#2",
                    "midi": 42,
                    "time": 55.38460800000005,
                    "velocity": 0.23622047244094488,
                    "duration": 0.5769230000000007
                },
                {
                    "name": "E4",
                    "midi": 64,
                    "time": 55.96153100000005,
                    "velocity": 0.2440944881889764,
                    "duration": 1.7307690000000022
                },
                {
                    "name": "F#3",
                    "midi": 54,
                    "time": 56.53845400000005,
                    "velocity": 0.1732283464566929,
                    "duration": 0.5769230000000007
                },
                {
                    "name": "A#3",
                    "midi": 58,
                    "time": 56.53845400000005,
                    "velocity": 0.1732283464566929,
                    "duration": 1.1538460000000015
                },
                {
                    "name": "E3",
                    "midi": 52,
                    "time": 57.11537700000005,
                    "velocity": 0.2125984251968504,
                    "duration": 0.5769230000000007
                },
                {
                    "name": "B1",
                    "midi": 35,
                    "time": 57.69230000000005,
                    "velocity": 0.33070866141732286,
                    "duration": 0.5769230000000007
                },
                {
                    "name": "D#4",
                    "midi": 63,
                    "time": 58.26922300000005,
                    "velocity": 0.2125984251968504,
                    "duration": 0.5769230000000078
                },
                {
                    "name": "F#3",
                    "midi": 54,
                    "time": 58.84614600000006,
                    "velocity": 0.1968503937007874,
                    "duration": 0.5769230000000007
                },
                {
                    "name": "D#3",
                    "midi": 51,
                    "time": 59.42306900000006,
                    "velocity": 0.2125984251968504,
                    "duration": 0.5769230000000007
                },
                {
                    "name": "D#2",
                    "midi": 39,
                    "time": 59.99999200000006,
                    "velocity": 0.3464566929133858,
                    "duration": 0.5769230000000007
                },
                {
                    "name": "D#4",
                    "midi": 63,
                    "time": 60.576915000000064,
                    "velocity": 0.2125984251968504,
                    "duration": 0.5769230000000007
                },
                {
                    "name": "G3",
                    "midi": 55,
                    "time": 61.153838000000064,
                    "velocity": 0.2125984251968504,
                    "duration": 0.5769230000000007
                },
                {
                    "name": "D#3",
                    "midi": 51,
                    "time": 61.730761000000065,
                    "velocity": 0.2125984251968504,
                    "duration": 0.5769230000000007
                },
                {
                    "name": "G#2",
                    "midi": 44,
                    "time": 62.307684000000066,
                    "velocity": 0.25984251968503935,
                    "duration": 0.5769230000000007
                },
                {
                    "name": "D#4",
                    "midi": 63,
                    "time": 62.88460700000007,
                    "velocity": 0.25984251968503935,
                    "duration": 0.5769230000000007
                },
                {
                    "name": "G#3",
                    "midi": 56,
                    "time": 63.46153000000007,
                    "velocity": 0.18110236220472442,
                    "duration": 0.5769229999999936
                },
                {
                    "name": "D#3",
                    "midi": 51,
                    "time": 64.03845300000006,
                    "velocity": 0.2283464566929134,
                    "duration": 0.5769229999999936
                },
                {
                    "name": "G#2",
                    "midi": 44,
                    "time": 64.61537600000005,
                    "velocity": 0.25984251968503935,
                    "duration": 0.5769229999999936
                },
                {
                    "name": "D#4",
                    "midi": 63,
                    "time": 65.19229900000005,
                    "velocity": 0.2125984251968504,
                    "duration": 0.5769229999999936
                },
                {
                    "name": "G3",
                    "midi": 55,
                    "time": 65.76922200000004,
                    "velocity": 0.2047244094488189,
                    "duration": 0.5769229999999936
                },
                {
                    "name": "D#3",
                    "midi": 51,
                    "time": 66.34614500000004,
                    "velocity": 0.23622047244094488,
                    "duration": 0.5769229999999936
                },
                {
                    "name": "G#2",
                    "midi": 44,
                    "time": 66.92306800000003,
                    "velocity": 0.23622047244094488,
                    "duration": 0.5769229999999936
                },
                {
                    "name": "D#4",
                    "midi": 63,
                    "time": 67.49999100000002,
                    "velocity": 0.28346456692913385,
                    "duration": 0.5769229999999936
                },
                {
                    "name": "G#3",
                    "midi": 56,
                    "time": 68.07691400000002,
                    "velocity": 0.2047244094488189,
                    "duration": 0.5769229999999936
                },
                {
                    "name": "D#3",
                    "midi": 51,
                    "time": 68.65383700000001,
                    "velocity": 0.2204724409448819,
                    "duration": 0.5769229999999936
                },
                {
                    "name": "G2",
                    "midi": 43,
                    "time": 69.23076,
                    "velocity": 0.23622047244094488,
                    "duration": 0.5769229999999936
                },
                {
                    "name": "E4",
                    "midi": 64,
                    "time": 69.807683,
                    "velocity": 0.2755905511811024,
                    "duration": 0.5769230000000078
                },
                {
                    "name": "C#4",
                    "midi": 61,
                    "time": 70.384606,
                    "velocity": 0.2047244094488189,
                    "duration": 0.5769229999999936
                },
                {
                    "name": "E3",
                    "midi": 52,
                    "time": 70.961529,
                    "velocity": 0.25984251968503935,
                    "duration": 0.5769229999999936
                },
                {
                    "name": "F#2",
                    "midi": 42,
                    "time": 71.53845199999999,
                    "velocity": 0.31496062992125984,
                    "duration": 0.5769229999999936
                },
                {
                    "name": "F#4",
                    "midi": 66,
                    "time": 72.11537499999999,
                    "velocity": 0.2992125984251969,
                    "duration": 0.5769229999999936
                },
                {
                    "name": "B3",
                    "midi": 59,
                    "time": 72.69229799999998,
                    "velocity": 0.1889763779527559,
                    "duration": 0.5769229999999936
                },
                {
                    "name": "F#3",
                    "midi": 54,
                    "time": 73.26922099999997,
                    "velocity": 0.2283464566929134,
                    "duration": 0.5769229999999936
                },
                {
                    "name": "F#2",
                    "midi": 42,
                    "time": 73.84614399999997,
                    "velocity": 0.28346456692913385,
                    "duration": 0.5769229999999936
                },
                {
                    "name": "F#4",
                    "midi": 66,
                    "time": 74.42306699999996,
                    "velocity": 0.2125984251968504,
                    "duration": 0.5769230000000078
                },
                {
                    "name": "A#3",
                    "midi": 58,
                    "time": 74.99998999999997,
                    "velocity": 0.2125984251968504,
                    "duration": 0.5769229999999936
                },
                {
                    "name": "F#3",
                    "midi": 54,
                    "time": 75.57691299999996,
                    "velocity": 0.2125984251968504,
                    "duration": 0.5769229999999936
                },
                {
                    "name": "B2",
                    "midi": 47,
                    "time": 76.15383599999996,
                    "velocity": 0.2204724409448819,
                    "duration": 0.5769229999999936
                },
                {
                    "name": "F#4",
                    "midi": 66,
                    "time": 76.73075899999995,
                    "velocity": 0.23622047244094488,
                    "duration": 2.8846149999999824
                },
                {
                    "name": "B3",
                    "midi": 59,
                    "time": 77.30768199999994,
                    "velocity": 0.2204724409448819,
                    "duration": 2.3076919999999888
                },
                {
                    "name": "F#3",
                    "midi": 54,
                    "time": 77.88460499999994,
                    "velocity": 0.2047244094488189,
                    "duration": 1.7307689999999951
                },
                {
                    "name": "B2",
                    "midi": 47,
                    "time": 80.76921999999993,
                    "velocity": 0.2283464566929134,
                    "duration": 0.5769229999999936
                },
                {
                    "name": "F#4",
                    "midi": 66,
                    "time": 81.34614299999993,
                    "velocity": 0.2677165354330709,
                    "duration": 0.5769229999999936
                },
                {
                    "name": "B3",
                    "midi": 59,
                    "time": 81.92306599999992,
                    "velocity": 0.18110236220472442,
                    "duration": 0.5769229999999936
                },
                {
                    "name": "F#3",
                    "midi": 54,
                    "time": 82.49998899999991,
                    "velocity": 0.2283464566929134,
                    "duration": 0.5769229999999936
                },
                {
                    "name": "B2",
                    "midi": 47,
                    "time": 83.07691199999991,
                    "velocity": 0.25984251968503935,
                    "duration": 0.5769229999999936
                },
                {
                    "name": "G4",
                    "midi": 67,
                    "time": 83.6538349999999,
                    "velocity": 0.2125984251968504,
                    "duration": 1.730768999999981
                },
                {
                    "name": "C#4",
                    "midi": 61,
                    "time": 84.2307579999999,
                    "velocity": 0.2047244094488189,
                    "duration": 0.5769229999999936
                },
                {
                    "name": "F#3",
                    "midi": 54,
                    "time": 84.80768099999989,
                    "velocity": 0.23622047244094488,
                    "duration": 0.5769229999999936
                },
                {
                    "name": "B2",
                    "midi": 47,
                    "time": 85.38460399999988,
                    "velocity": 0.23622047244094488,
                    "duration": 0.5769229999999936
                },
                {
                    "name": "F#4",
                    "midi": 66,
                    "time": 85.96152699999988,
                    "velocity": 0.2677165354330709,
                    "duration": 0.5769230000000078
                },
                {
                    "name": "B3",
                    "midi": 59,
                    "time": 86.53844999999988,
                    "velocity": 0.2047244094488189,
                    "duration": 0.5769229999999936
                },
                {
                    "name": "F#3",
                    "midi": 54,
                    "time": 87.11537299999988,
                    "velocity": 0.2204724409448819,
                    "duration": 0.5769229999999936
                },
                {
                    "name": "G#2",
                    "midi": 44,
                    "time": 87.69229599999987,
                    "velocity": 0.23622047244094488,
                    "duration": 0.5769229999999936
                },
                {
                    "name": "F4",
                    "midi": 65,
                    "time": 88.26921899999986,
                    "velocity": 0.2755905511811024,
                    "duration": 0.5769230000000078
                },
                {
                    "name": "B3",
                    "midi": 59,
                    "time": 88.84614199999987,
                    "velocity": 0.2047244094488189,
                    "duration": 0.5769229999999936
                },
                {
                    "name": "F3",
                    "midi": 53,
                    "time": 89.42306499999987,
                    "velocity": 0.25984251968503935,
                    "duration": 0.5769229999999936
                },
                {
                    "name": "A#2",
                    "midi": 46,
                    "time": 89.99998799999986,
                    "velocity": 0.2755905511811024,
                    "duration": 0.5769229999999936
                },
                {
                    "name": "A#4",
                    "midi": 70,
                    "time": 90.57691099999985,
                    "velocity": 0.2992125984251969,
                    "duration": 0.5769229999999936
                },
                {
                    "name": "D#4",
                    "midi": 63,
                    "time": 91.15383399999985,
                    "velocity": 0.1889763779527559,
                    "duration": 0.5769229999999936
                },
                {
                    "name": "A#3",
                    "midi": 58,
                    "time": 91.73075699999984,
                    "velocity": 0.2283464566929134,
                    "duration": 0.5769229999999936
                },
                {
                    "name": "A#2",
                    "midi": 46,
                    "time": 92.30767999999983,
                    "velocity": 0.25984251968503935,
                    "duration": 0.5769229999999936
                },
                {
                    "name": "B4",
                    "midi": 71,
                    "time": 92.88460299999983,
                    "velocity": 0.2125984251968504,
                    "duration": 1.7307689999999951
                },
                {
                    "name": "D4",
                    "midi": 62,
                    "time": 93.46152599999984,
                    "velocity": 0.2125984251968504,
                    "duration": 0.5769229999999936
                },
                {
                    "name": "A#3",
                    "midi": 58,
                    "time": 94.03844899999983,
                    "velocity": 0.2125984251968504,
                    "duration": 0.5769229999999936
                },
                {
                    "name": "D#3",
                    "midi": 51,
                    "time": 94.61537199999982,
                    "velocity": 0.2204724409448819,
                    "duration": 0.5769229999999936
                },
                {
                    "name": "A#4",
                    "midi": 70,
                    "time": 95.19229499999982,
                    "velocity": 0.2125984251968504,
                    "duration": 2.8846149999999966
                },
                {
                    "name": "D#4",
                    "midi": 63,
                    "time": 95.76921799999981,
                    "velocity": 0.2047244094488189,
                    "duration": 2.307692000000003
                },
                {
                    "name": "A#3",
                    "midi": 58,
                    "time": 96.3461409999998,
                    "velocity": 0.2047244094488189,
                    "duration": 1.7307690000000093
                },
                {
                    "name": "D#3",
                    "midi": 51,
                    "time": 99.23075599999981,
                    "velocity": 0.2204724409448819,
                    "duration": 0.5769229999999936
                },
                {
                    "name": "A#4",
                    "midi": 70,
                    "time": 99.80767899999981,
                    "velocity": 0.2440944881889764,
                    "duration": 0.5769229999999936
                },
                {
                    "name": "E4",
                    "midi": 64,
                    "time": 100.3846019999998,
                    "velocity": 0.1889763779527559,
                    "duration": 0.5769229999999936
                },
                {
                    "name": "C#4",
                    "midi": 61,
                    "time": 100.9615249999998,
                    "velocity": 0.23622047244094488,
                    "duration": 0.5769229999999936
                },
                {
                    "name": "D#3",
                    "midi": 51,
                    "time": 101.53844799999979,
                    "velocity": 0.2125984251968504,
                    "duration": 0.5769229999999936
                },
                {
                    "name": "B4",
                    "midi": 71,
                    "time": 102.11537099999978,
                    "velocity": 0.23622047244094488,
                    "duration": 0.5769230000000078
                },
                {
                    "name": "D#4",
                    "midi": 63,
                    "time": 102.69229399999979,
                    "velocity": 0.1968503937007874,
                    "duration": 0.5769229999999936
                },
                {
                    "name": "B3",
                    "midi": 59,
                    "time": 103.26921699999978,
                    "velocity": 0.2204724409448819,
                    "duration": 0.5769229999999936
                },
                {
                    "name": "D#3",
                    "midi": 51,
                    "time": 103.84613999999978,
                    "velocity": 0.2204724409448819,
                    "duration": 0.5769229999999936
                },
                {
                    "name": "F4",
                    "midi": 65,
                    "time": 104.42306299999977,
                    "velocity": 0.2283464566929134,
                    "duration": 0.5769229999999936
                },
                {
                    "name": "B3",
                    "midi": 59,
                    "time": 104.99998599999977,
                    "velocity": 0.1889763779527559,
                    "duration": 0.5769229999999936
                },
                {
                    "name": "G#3",
                    "midi": 56,
                    "time": 105.57690899999976,
                    "velocity": 0.2204724409448819,
                    "duration": 0.5769229999999936
                },
                {
                    "name": "D#2",
                    "midi": 39,
                    "time": 106.15383199999975,
                    "velocity": 0.25984251968503935,
                    "duration": 0.5769229999999936
                },
                {
                    "name": "G4",
                    "midi": 67,
                    "time": 106.73075499999975,
                    "velocity": 0.2204724409448819,
                    "duration": 2.8846149999999966
                },
                {
                    "name": "A#3",
                    "midi": 58,
                    "time": 107.30767799999974,
                    "velocity": 0.18110236220472442,
                    "duration": 2.307692000000003
                },
                {
                    "name": "G#2",
                    "midi": 44,
                    "time": 110.76921599999974,
                    "velocity": 0.2125984251968504,
                    "duration": 0.5769229999999936
                },
                {
                    "name": "D#4",
                    "midi": 63,
                    "time": 111.34613899999974,
                    "velocity": 0.2125984251968504,
                    "duration": 0.5769229999999936
                },
                {
                    "name": "G#3",
                    "midi": 56,
                    "time": 111.92306199999973,
                    "velocity": 0.1732283464566929,
                    "duration": 0.5769229999999936
                },
                {
                    "name": "D#3",
                    "midi": 51,
                    "time": 112.49998499999973,
                    "velocity": 0.2125984251968504,
                    "duration": 0.5769229999999936
                },
                {
                    "name": "E2",
                    "midi": 40,
                    "time": 113.07690799999972,
                    "velocity": 0.2677165354330709,
                    "duration": 0.5769229999999936
                },
                {
                    "name": "E4",
                    "midi": 64,
                    "time": 113.65383099999971,
                    "velocity": 0.2283464566929134,
                    "duration": 1.730768999999981
                },
                {
                    "name": "B3",
                    "midi": 59,
                    "time": 114.2307539999997,
                    "velocity": 0.1732283464566929,
                    "duration": 1.1538459999999873
                },
                {
                    "name": "G#3",
                    "midi": 56,
                    "time": 114.2307539999997,
                    "velocity": 0.1732283464566929,
                    "duration": 0.5769229999999936
                },
                {
                    "name": "G3",
                    "midi": 55,
                    "time": 114.8076769999997,
                    "velocity": 0.2125984251968504,
                    "duration": 0.5769229999999936
                },
                {
                    "name": "F#2",
                    "midi": 42,
                    "time": 115.3845999999997,
                    "velocity": 0.23622047244094488,
                    "duration": 0.5769229999999936
                },
                {
                    "name": "E4",
                    "midi": 64,
                    "time": 115.96152299999969,
                    "velocity": 0.2440944881889764,
                    "duration": 1.7307689999999951
                },
                {
                    "name": "A#3",
                    "midi": 58,
                    "time": 116.5384459999997,
                    "velocity": 0.1732283464566929,
                    "duration": 1.1538459999999873
                },
                {
                    "name": "F#3",
                    "midi": 54,
                    "time": 116.5384459999997,
                    "velocity": 0.1732283464566929,
                    "duration": 0.5769229999999936
                },
                {
                    "name": "E3",
                    "midi": 52,
                    "time": 117.11536899999969,
                    "velocity": 0.2125984251968504,
                    "duration": 0.5769229999999936
                },
                {
                    "name": "B1",
                    "midi": 35,
                    "time": 117.69229199999968,
                    "velocity": 0.3464566929133858,
                    "duration": 0.5769229999999936
                },
                {
                    "name": "D#4",
                    "midi": 63,
                    "time": 118.26921499999968,
                    "velocity": 0.2125984251968504,
                    "duration": 0.5769229999999936
                },
                {
                    "name": "F#3",
                    "midi": 54,
                    "time": 118.84613799999967,
                    "velocity": 0.1968503937007874,
                    "duration": 0.5769229999999936
                },
                {
                    "name": "D#3",
                    "midi": 51,
                    "time": 119.42306099999966,
                    "velocity": 0.2125984251968504,
                    "duration": 0.5769229999999936
                },
                {
                    "name": "D#2",
                    "midi": 39,
                    "time": 119.99998399999966,
                    "velocity": 0.3464566929133858,
                    "duration": 0.5769229999999936
                },
                {
                    "name": "D#4",
                    "midi": 63,
                    "time": 120.57690699999965,
                    "velocity": 0.2125984251968504,
                    "duration": 0.5769229999999936
                },
                {
                    "name": "G3",
                    "midi": 55,
                    "time": 121.15382999999964,
                    "velocity": 0.2125984251968504,
                    "duration": 0.5769229999999936
                },
                {
                    "name": "D#3",
                    "midi": 51,
                    "time": 121.73075299999964,
                    "velocity": 0.2125984251968504,
                    "duration": 0.5769229999999936
                },
                {
                    "name": "G#2",
                    "midi": 44,
                    "time": 122.30767599999963,
                    "velocity": 0.25984251968503935,
                    "duration": 0.5769229999999936
                },
                {
                    "name": "D#4",
                    "midi": 63,
                    "time": 122.88459899999962,
                    "velocity": 0.25984251968503935,
                    "duration": 0.5769230000000078
                },
                {
                    "name": "G#3",
                    "midi": 56,
                    "time": 123.46152199999963,
                    "velocity": 0.18110236220472442,
                    "duration": 0.5769229999999936
                },
                {
                    "name": "D#3",
                    "midi": 51,
                    "time": 124.03844499999963,
                    "velocity": 0.2283464566929134,
                    "duration": 0.5769229999999936
                },
                {
                    "name": "G#2",
                    "midi": 44,
                    "time": 124.61536799999962,
                    "velocity": 0.25984251968503935,
                    "duration": 0.5769229999999936
                },
                {
                    "name": "D#4",
                    "midi": 63,
                    "time": 125.19229099999961,
                    "velocity": 0.2755905511811024,
                    "duration": 0.5769229999999936
                },
                {
                    "name": "G#3",
                    "midi": 56,
                    "time": 125.76921399999961,
                    "velocity": 0.2204724409448819,
                    "duration": 0.5769229999999936
                },
                {
                    "name": "D#3",
                    "midi": 51,
                    "time": 126.3461369999996,
                    "velocity": 0.2440944881889764,
                    "duration": 0.5769229999999936
                },
                {
                    "name": "G#2",
                    "midi": 44,
                    "time": 126.9230599999996,
                    "velocity": 0.25984251968503935,
                    "duration": 0.5769229999999936
                },
                {
                    "name": "D#4",
                    "midi": 63,
                    "time": 127.49998299999959,
                    "velocity": 0.31496062992125984,
                    "duration": 0.5769230000000221
                },
                {
                    "name": "G#3",
                    "midi": 56,
                    "time": 128.0769059999996,
                    "velocity": 0.25984251968503935,
                    "duration": 0.5769229999999936
                },
                {
                    "name": "D#3",
                    "midi": 51,
                    "time": 128.6538289999996,
                    "velocity": 0.2440944881889764,
                    "duration": 0.5769229999999936
                },
                {
                    "name": "G#2",
                    "midi": 44,
                    "time": 129.2307519999996,
                    "velocity": 0.23622047244094488,
                    "duration": 0.5769229999999936
                },
                {
                    "name": "D#4",
                    "midi": 63,
                    "time": 129.8076749999996,
                    "velocity": 0.25984251968503935,
                    "duration": 0.5769230000000221
                },
                {
                    "name": "G#3",
                    "midi": 56,
                    "time": 130.3845979999996,
                    "velocity": 0.23622047244094488,
                    "duration": 0.5769229999999936
                },
                {
                    "name": "D#3",
                    "midi": 51,
                    "time": 130.9615209999996,
                    "velocity": 0.2283464566929134,
                    "duration": 0.5769229999999936
                },
                {
                    "name": "G#1",
                    "midi": 32,
                    "time": 131.5384439999996,
                    "velocity": 0.23622047244094488,
                    "duration": 2.307692000000003
                }
            ],
            "controlChanges": {
                "7": [
                    {
                        "number": 7,
                        "time": 0,
                        "value": 0.7874015748031497
                    }
                ],
                "10": [
                    {
                        "number": 10,
                        "time": 0,
                        "value": 0.5039370078740157
                    }
                ],
                "64": [
                    {
                        "number": 64,
                        "time": 1.7259613083333336,
                        "value": 0
                    },
                    {
                        "number": 64,
                        "time": 2.884615,
                        "value": 1
                    },
                    {
                        "number": 64,
                        "time": 5.225960841666666,
                        "value": 0
                    },
                    {
                        "number": 64,
                        "time": 5.442306966666666,
                        "value": 1
                    },
                    {
                        "number": 64,
                        "time": 7.519229766666665,
                        "value": 0
                    },
                    {
                        "number": 64,
                        "time": 7.8846143333333325,
                        "value": 1
                    },
                    {
                        "number": 64,
                        "time": 9.822114075000002,
                        "value": 0
                    },
                    {
                        "number": 64,
                        "time": 10.028844816666668,
                        "value": 1
                    },
                    {
                        "number": 64,
                        "time": 12.14903684166667,
                        "value": 0
                    },
                    {
                        "number": 64,
                        "time": 12.384613733333335,
                        "value": 1
                    },
                    {
                        "number": 64,
                        "time": 14.451921150000004,
                        "value": 0
                    },
                    {
                        "number": 64,
                        "time": 14.692305733333338,
                        "value": 1
                    },
                    {
                        "number": 64,
                        "time": 16.778843916666673,
                        "value": 0
                    },
                    {
                        "number": 64,
                        "time": 17.105766950000007,
                        "value": 1
                    },
                    {
                        "number": 64,
                        "time": 19.480766633333342,
                        "value": 0
                    },
                    {
                        "number": 64,
                        "time": 21.34615100000001,
                        "value": 1
                    },
                    {
                        "number": 64,
                        "time": 23.706727608333345,
                        "value": 0
                    },
                    {
                        "number": 64,
                        "time": 24.197112158333347,
                        "value": 1
                    },
                    {
                        "number": 64,
                        "time": 25.975958075000015,
                        "value": 0
                    },
                    {
                        "number": 64,
                        "time": 26.197111891666683,
                        "value": 1
                    },
                    {
                        "number": 64,
                        "time": 28.298073150000018,
                        "value": 0
                    },
                    {
                        "number": 64,
                        "time": 28.68268848333335,
                        "value": 1
                    },
                    {
                        "number": 64,
                        "time": 30.629803608333354,
                        "value": 0
                    },
                    {
                        "number": 64,
                        "time": 30.990380483333354,
                        "value": 1
                    },
                    {
                        "number": 64,
                        "time": 32.90384176666669,
                        "value": 0
                    },
                    {
                        "number": 64,
                        "time": 33.12980327500002,
                        "value": 1
                    },
                    {
                        "number": 64,
                        "time": 35.221149150000024,
                        "value": 0
                    },
                    {
                        "number": 64,
                        "time": 35.63461063333336,
                        "value": 1
                    },
                    {
                        "number": 64,
                        "time": 38.07691800000003,
                        "value": 0
                    },
                    {
                        "number": 64,
                        "time": 39.80768700000003,
                        "value": 1
                    },
                    {
                        "number": 64,
                        "time": 42.1490328416667,
                        "value": 0
                    },
                    {
                        "number": 64,
                        "time": 42.6249943166667,
                        "value": 1
                    },
                    {
                        "number": 64,
                        "time": 44.47595560833337,
                        "value": 0
                    },
                    {
                        "number": 64,
                        "time": 44.64422481666671,
                        "value": 1
                    },
                    {
                        "number": 64,
                        "time": 46.759609150000045,
                        "value": 0
                    },
                    {
                        "number": 64,
                        "time": 46.999993733333376,
                        "value": 1
                    },
                    {
                        "number": 64,
                        "time": 48.66345505000004,
                        "value": 0
                    },
                    {
                        "number": 64,
                        "time": 51.34614700000004,
                        "value": 1
                    },
                    {
                        "number": 64,
                        "time": 53.69710822500004,
                        "value": 0
                    },
                    {
                        "number": 64,
                        "time": 54.14903124166671,
                        "value": 1
                    },
                    {
                        "number": 64,
                        "time": 56.02883868333338,
                        "value": 0
                    },
                    {
                        "number": 64,
                        "time": 56.47114631666672,
                        "value": 1
                    },
                    {
                        "number": 64,
                        "time": 58.30287684166672,
                        "value": 0
                    },
                    {
                        "number": 64,
                        "time": 58.74518447500006,
                        "value": 1
                    },
                    {
                        "number": 64,
                        "time": 60.6297996083334,
                        "value": 0
                    },
                    {
                        "number": 64,
                        "time": 60.764414975000065,
                        "value": 1
                    },
                    {
                        "number": 64,
                        "time": 62.942299300000066,
                        "value": 0
                    },
                    {
                        "number": 64,
                        "time": 63.2259531083334,
                        "value": 1
                    },
                    {
                        "number": 64,
                        "time": 65.23076053333338,
                        "value": 0
                    },
                    {
                        "number": 64,
                        "time": 65.38460666666671,
                        "value": 1
                    },
                    {
                        "number": 64,
                        "time": 67.55287560833335,
                        "value": 0
                    },
                    {
                        "number": 64,
                        "time": 67.77402942500002,
                        "value": 1
                    },
                    {
                        "number": 64,
                        "time": 69.83652915,
                        "value": 0
                    },
                    {
                        "number": 64,
                        "time": 70.052875275,
                        "value": 1
                    },
                    {
                        "number": 64,
                        "time": 72.18749037499998,
                        "value": 0
                    },
                    {
                        "number": 64,
                        "time": 72.52402879166665,
                        "value": 1
                    },
                    {
                        "number": 64,
                        "time": 74.4903746833333,
                        "value": 0
                    },
                    {
                        "number": 64,
                        "time": 74.83172079166664,
                        "value": 1
                    },
                    {
                        "number": 64,
                        "time": 76.76441284166661,
                        "value": 0
                    },
                    {
                        "number": 64,
                        "time": 77.03845126666661,
                        "value": 1
                    },
                    {
                        "number": 64,
                        "time": 79.48075863333327,
                        "value": 0
                    },
                    {
                        "number": 64,
                        "time": 81.34614299999993,
                        "value": 1
                    },
                    {
                        "number": 64,
                        "time": 83.7259503749999,
                        "value": 0
                    },
                    {
                        "number": 64,
                        "time": 83.99518110833323,
                        "value": 1
                    },
                    {
                        "number": 64,
                        "time": 86.0144116083332,
                        "value": 0
                    },
                    {
                        "number": 64,
                        "time": 86.33652694999988,
                        "value": 1
                    },
                    {
                        "number": 64,
                        "time": 88.29806514999987,
                        "value": 0
                    },
                    {
                        "number": 64,
                        "time": 88.49037281666654,
                        "value": 1
                    },
                    {
                        "number": 64,
                        "time": 90.62979560833318,
                        "value": 0
                    },
                    {
                        "number": 64,
                        "time": 90.82210327499985,
                        "value": 1
                    },
                    {
                        "number": 64,
                        "time": 92.96633375833316,
                        "value": 0
                    },
                    {
                        "number": 64,
                        "time": 93.18748757499984,
                        "value": 1
                    },
                    {
                        "number": 64,
                        "time": 95.20671807499981,
                        "value": 0
                    },
                    {
                        "number": 64,
                        "time": 95.60094879166648,
                        "value": 1
                    },
                    {
                        "number": 64,
                        "time": 97.97594847499981,
                        "value": 0
                    },
                    {
                        "number": 64,
                        "time": 99.80767899999981,
                        "value": 1
                    },
                    {
                        "number": 64,
                        "time": 102.14902484166645,
                        "value": 0
                    },
                    {
                        "number": 64,
                        "time": 102.35094789166645,
                        "value": 1
                    },
                    {
                        "number": 64,
                        "time": 104.43748607499977,
                        "value": 0
                    },
                    {
                        "number": 64,
                        "time": 104.61537066666644,
                        "value": 1
                    },
                    {
                        "number": 64,
                        "time": 106.78844729999975,
                        "value": 0
                    },
                    {
                        "number": 64,
                        "time": 107.13940879166641,
                        "value": 1
                    },
                    {
                        "number": 64,
                        "time": 109.71633152499975,
                        "value": 0
                    },
                    {
                        "number": 64,
                        "time": 111.34613899999974,
                        "value": 1
                    },
                    {
                        "number": 64,
                        "time": 113.68748484166638,
                        "value": 0
                    },
                    {
                        "number": 64,
                        "time": 114.09133094166637,
                        "value": 1
                    },
                    {
                        "number": 64,
                        "time": 115.99998453333302,
                        "value": 0
                    },
                    {
                        "number": 64,
                        "time": 116.33652294999969,
                        "value": 1
                    },
                    {
                        "number": 64,
                        "time": 118.30286884166634,
                        "value": 0
                    },
                    {
                        "number": 64,
                        "time": 118.610561108333,
                        "value": 1
                    },
                    {
                        "number": 64,
                        "time": 120.61056084166631,
                        "value": 0
                    },
                    {
                        "number": 64,
                        "time": 120.74517620833298,
                        "value": 1
                    },
                    {
                        "number": 64,
                        "time": 122.89421438333297,
                        "value": 0
                    },
                    {
                        "number": 64,
                        "time": 123.12017589166629,
                        "value": 1
                    },
                    {
                        "number": 64,
                        "time": 125.20671407499961,
                        "value": 0
                    },
                    {
                        "number": 64,
                        "time": 125.3942140499996,
                        "value": 1
                    },
                    {
                        "number": 64,
                        "time": 127.5288291499996,
                        "value": 0
                    },
                    {
                        "number": 64,
                        "time": 127.90863679166627,
                        "value": 1
                    },
                    {
                        "number": 64,
                        "time": 129.85575191666626,
                        "value": 0
                    },
                    {
                        "number": 64,
                        "time": 130.24998263333293,
                        "value": 1
                    },
                    {
                        "number": 64,
                        "time": 135.5769049999996,
                        "value": 0
                    }
                ],
                "91": [
                    {
                        "number": 91,
                        "time": 1.7259613083333336,
                        "value": 1
                    }
                ]
            },
            "id": 2,
            "name": "Piano left",
            "instrumentNumber": 0,
            "instrument": "acoustic grand piano",
            "instrumentFamily": "piano",
            "channelNumber": 0,
            "isPercussion": false
        },
        {
            "startTime": 0,
            "duration": 0,
            "length": 0,
            "notes": [],
            "controlChanges": {},
            "id": 3,
            "name": "Schumann: Scenes from Childhood Op. 15"
        },
        {
            "startTime": 0,
            "duration": 0,
            "length": 0,
            "notes": [],
            "controlChanges": {},
            "id": 4,
            "name": "Copyright  1997 by Bernd Krueger"
        },
        {
            "startTime": 0,
            "duration": 0,
            "length": 0,
            "notes": [],
            "controlChanges": {},
            "id": 5,
            "name": "http://www.piano-midi.de"
        },
        {
            "startTime": 0,
            "duration": 0,
            "length": 0,
            "notes": [],
            "controlChanges": {},
            "id": 6,
            "name": "Edition: 2014-03-26"
        }
    ]
}