{
    "header": {
        "PPQ": 480,
        "timeSignature": [
            4,
            4
        ],
        "bpm": 100,
        "name": "Träumerei"
    },
    "startTime": 0,
    "duration": 79.19999999999992,
    "tracks": [
        {
            "startTime": 0,
            "duration": 0,
            "length": 0,
            "notes": [],
            "controlChanges": {},
            "id": 0,
            "name": "Träumerei"
        },
        {
            "startTime": 1.8,
            "duration": 79.19999999999983,
            "length": 255,
            "notes": [
                {
                    "name": "C4",
                    "midi": 60,
                    "time": 1.8,
                    "velocity": 0.4015748031496063,
                    "duration": 0.5999999999999999
                },
                {
                    "name": "F4",
                    "midi": 65,
                    "time": 2.4,
                    "velocity": 0.4566929133858268,
                    "duration": 1.5
                },
                {
                    "name": "F3",
                    "midi": 53,
                    "time": 3,
                    "velocity": 0.2047244094488189,
                    "duration": 1.7999999999999998
                },
                {
                    "name": "C4",
                    "midi": 60,
                    "time": 3,
                    "velocity": 0.2047244094488189,
                    "duration": 1.7999999999999998
                },
                {
                    "name": "E4",
                    "midi": 64,
                    "time": 3.9,
                    "velocity": 0.3543307086614173,
                    "duration": 0.30000000000000027
                },
                {
                    "name": "F4",
                    "midi": 65,
                    "time": 4.2,
                    "velocity": 0.3779527559055118,
                    "duration": 0.2999999999999998
                },
                {
                    "name": "A4",
                    "midi": 69,
                    "time": 4.5,
                    "velocity": 0.3858267716535433,
                    "duration": 0.2999999999999998
                },
                {
                    "name": "C5",
                    "midi": 72,
                    "time": 4.8,
                    "velocity": 0.4094488188976378,
                    "duration": 0.2999999999999998
                },
                {
                    "name": "F5",
                    "midi": 77,
                    "time": 5.1,
                    "velocity": 0.4094488188976378,
                    "duration": 0.28749999999999964
                },
                {
                    "name": "F4",
                    "midi": 65,
                    "time": 5.3999999999999995,
                    "velocity": 0.2992125984251969,
                    "duration": 2.3999999999999995
                },
                {
                    "name": "F5",
                    "midi": 77,
                    "time": 5.4125,
                    "velocity": 0.3937007874015748,
                    "duration": 1.1999999999999993
                },
                {
                    "name": "E5",
                    "midi": 76,
                    "time": 6.606249999999999,
                    "velocity": 0.30708661417322836,
                    "duration": 0.2999999999999998
                },
                {
                    "name": "D5",
                    "midi": 74,
                    "time": 6.906249999999999,
                    "velocity": 0.2992125984251969,
                    "duration": 0.2999999999999998
                },
                {
                    "name": "C5",
                    "midi": 72,
                    "time": 7.199999999999999,
                    "velocity": 0.33070866141732286,
                    "duration": 0.2999999999999998
                },
                {
                    "name": "F5",
                    "midi": 77,
                    "time": 7.499999999999999,
                    "velocity": 0.2992125984251969,
                    "duration": 0.2999999999999998
                },
                {
                    "name": "E4",
                    "midi": 64,
                    "time": 7.799999999999999,
                    "velocity": 0.33070866141732286,
                    "duration": 1.2000000000000028
                },
                {
                    "name": "G4",
                    "midi": 67,
                    "time": 7.799999999999999,
                    "velocity": 0.33070866141732286,
                    "duration": 0.3000000000000007
                },
                {
                    "name": "A4",
                    "midi": 69,
                    "time": 8.1,
                    "velocity": 0.33070866141732286,
                    "duration": 0.3000000000000007
                },
                {
                    "name": "A#4",
                    "midi": 70,
                    "time": 8.4,
                    "velocity": 0.3779527559055118,
                    "duration": 0.3000000000000007
                },
                {
                    "name": "D5",
                    "midi": 74,
                    "time": 8.700000000000001,
                    "velocity": 0.31496062992125984,
                    "duration": 0.3000000000000007
                },
                {
                    "name": "C4",
                    "midi": 60,
                    "time": 9.000000000000002,
                    "velocity": 0.36220472440944884,
                    "duration": 1.2000000000000028
                },
                {
                    "name": "F4",
                    "midi": 65,
                    "time": 9.000000000000002,
                    "velocity": 0.36220472440944884,
                    "duration": 0.3000000000000007
                },
                {
                    "name": "E4",
                    "midi": 64,
                    "time": 9.300000000000002,
                    "velocity": 0.36220472440944884,
                    "duration": 0.3000000000000007
                },
                {
                    "name": "G4",
                    "midi": 67,
                    "time": 9.300000000000002,
                    "velocity": 0.36220472440944884,
                    "duration": 0.3000000000000007
                },
                {
                    "name": "F4",
                    "midi": 65,
                    "time": 9.600000000000003,
                    "velocity": 0.3858267716535433,
                    "duration": 0.3000000000000007
                },
                {
                    "name": "A4",
                    "midi": 69,
                    "time": 9.600000000000003,
                    "velocity": 0.3858267716535433,
                    "duration": 0.3000000000000007
                },
                {
                    "name": "C5",
                    "midi": 72,
                    "time": 9.900000000000004,
                    "velocity": 0.2992125984251969,
                    "duration": 0.3000000000000007
                },
                {
                    "name": "C4",
                    "midi": 60,
                    "time": 10.200000000000005,
                    "velocity": 0.3543307086614173,
                    "duration": 1.1999999999999993
                },
                {
                    "name": "E4",
                    "midi": 64,
                    "time": 10.200000000000005,
                    "velocity": 0.3543307086614173,
                    "duration": 1.1999999999999993
                },
                {
                    "name": "G4",
                    "midi": 67,
                    "time": 10.200000000000005,
                    "velocity": 0.3543307086614173,
                    "duration": 1.1999999999999993
                },
                {
                    "name": "C4",
                    "midi": 60,
                    "time": 11.425000000000004,
                    "velocity": 0.4015748031496063,
                    "duration": 0.5749999999999993
                },
                {
                    "name": "F4",
                    "midi": 65,
                    "time": 12.000000000000004,
                    "velocity": 0.4566929133858268,
                    "duration": 1.5
                },
                {
                    "name": "F3",
                    "midi": 53,
                    "time": 12.600000000000003,
                    "velocity": 0.2047244094488189,
                    "duration": 1.8000000000000025
                },
                {
                    "name": "C4",
                    "midi": 60,
                    "time": 12.600000000000003,
                    "velocity": 0.2047244094488189,
                    "duration": 1.8000000000000025
                },
                {
                    "name": "E4",
                    "midi": 64,
                    "time": 13.500000000000004,
                    "velocity": 0.3543307086614173,
                    "duration": 0.3000000000000007
                },
                {
                    "name": "F4",
                    "midi": 65,
                    "time": 13.800000000000004,
                    "velocity": 0.3779527559055118,
                    "duration": 0.3000000000000007
                },
                {
                    "name": "A4",
                    "midi": 69,
                    "time": 14.100000000000005,
                    "velocity": 0.3858267716535433,
                    "duration": 0.3000000000000007
                },
                {
                    "name": "C5",
                    "midi": 72,
                    "time": 14.400000000000006,
                    "velocity": 0.4094488188976378,
                    "duration": 0.3000000000000007
                },
                {
                    "name": "A5",
                    "midi": 81,
                    "time": 14.700000000000006,
                    "velocity": 0.4015748031496063,
                    "duration": 0.28749999999999964
                },
                {
                    "name": "A4",
                    "midi": 69,
                    "time": 15.000000000000005,
                    "velocity": 0.25984251968503935,
                    "duration": 2.7000000000000046
                },
                {
                    "name": "A5",
                    "midi": 81,
                    "time": 15.000000000000005,
                    "velocity": 0.3858267716535433,
                    "duration": 0.9000000000000004
                },
                {
                    "name": "G4",
                    "midi": 67,
                    "time": 15.000000000000005,
                    "velocity": 0.25984251968503935,
                    "duration": 1.8000000000000025
                },
                {
                    "name": "G5",
                    "midi": 79,
                    "time": 15.900000000000006,
                    "velocity": 0.36220472440944884,
                    "duration": 0.3000000000000007
                },
                {
                    "name": "F5",
                    "midi": 77,
                    "time": 16.200000000000006,
                    "velocity": 0.36220472440944884,
                    "duration": 0.3000000000000007
                },
                {
                    "name": "E5",
                    "midi": 76,
                    "time": 16.500000000000007,
                    "velocity": 0.36220472440944884,
                    "duration": 0.3000000000000007
                },
                {
                    "name": "F5",
                    "midi": 77,
                    "time": 16.800000000000008,
                    "velocity": 0.4330708661417323,
                    "duration": 0.3000000000000007
                },
                {
                    "name": "A5",
                    "midi": 81,
                    "time": 17.10000000000001,
                    "velocity": 0.3543307086614173,
                    "duration": 0.3000000000000007
                },
                {
                    "name": "D5",
                    "midi": 74,
                    "time": 17.40000000000001,
                    "velocity": 0.3858267716535433,
                    "duration": 0.3000000000000007
                },
                {
                    "name": "G#4",
                    "midi": 68,
                    "time": 17.70000000000001,
                    "velocity": 0.3464566929133858,
                    "duration": 0.3000000000000007
                },
                {
                    "name": "F5",
                    "midi": 77,
                    "time": 17.70000000000001,
                    "velocity": 0.3464566929133858,
                    "duration": 0.3000000000000007
                },
                {
                    "name": "G4",
                    "midi": 67,
                    "time": 18.00000000000001,
                    "velocity": 0.3779527559055118,
                    "duration": 0.3000000000000007
                },
                {
                    "name": "E5",
                    "midi": 76,
                    "time": 18.00000000000001,
                    "velocity": 0.3779527559055118,
                    "duration": 0.9000000000000021
                },
                {
                    "name": "C5",
                    "midi": 72,
                    "time": 18.30000000000001,
                    "velocity": 0.2992125984251969,
                    "duration": 0.3000000000000007
                },
                {
                    "name": "E4",
                    "midi": 64,
                    "time": 18.600000000000012,
                    "velocity": 0.2992125984251969,
                    "duration": 0.3000000000000007
                },
                {
                    "name": "F#4",
                    "midi": 66,
                    "time": 18.900000000000013,
                    "velocity": 0.2992125984251969,
                    "duration": 0.3000000000000007
                },
                {
                    "name": "D#5",
                    "midi": 75,
                    "time": 18.900000000000013,
                    "velocity": 0.2992125984251969,
                    "duration": 0.3000000000000007
                },
                {
                    "name": "F4",
                    "midi": 65,
                    "time": 19.200000000000014,
                    "velocity": 0.3464566929133858,
                    "duration": 1.1999999999999993
                },
                {
                    "name": "D5",
                    "midi": 74,
                    "time": 19.200000000000014,
                    "velocity": 0.3464566929133858,
                    "duration": 0.6000000000000014
                },
                {
                    "name": "E5",
                    "midi": 76,
                    "time": 19.800000000000015,
                    "velocity": 0.33070866141732286,
                    "duration": 0.4499999999999993
                },
                {
                    "name": "C5",
                    "midi": 72,
                    "time": 20.250000000000014,
                    "velocity": 0.2755905511811024,
                    "duration": 0.14999999999999858
                },
                {
                    "name": "E4",
                    "midi": 64,
                    "time": 20.400000000000013,
                    "velocity": 0.2992125984251969,
                    "duration": 0.6000000000000014
                },
                {
                    "name": "C5",
                    "midi": 72,
                    "time": 20.400000000000013,
                    "velocity": 0.2992125984251969,
                    "duration": 1.2000000000000028
                },
                {
                    "name": "C4",
                    "midi": 60,
                    "time": 21.312500000000014,
                    "velocity": 0.4015748031496063,
                    "duration": 0.2875000000000014
                },
                {
                    "name": "F4",
                    "midi": 65,
                    "time": 21.600000000000016,
                    "velocity": 0.4566929133858268,
                    "duration": 1.5
                },
                {
                    "name": "F3",
                    "midi": 53,
                    "time": 22.200000000000017,
                    "velocity": 0.2047244094488189,
                    "duration": 1.8000000000000007
                },
                {
                    "name": "C4",
                    "midi": 60,
                    "time": 22.200000000000017,
                    "velocity": 0.2047244094488189,
                    "duration": 1.8000000000000007
                },
                {
                    "name": "E4",
                    "midi": 64,
                    "time": 23.100000000000016,
                    "velocity": 0.3543307086614173,
                    "duration": 0.3000000000000007
                },
                {
                    "name": "F4",
                    "midi": 65,
                    "time": 23.400000000000016,
                    "velocity": 0.3779527559055118,
                    "duration": 0.3000000000000007
                },
                {
                    "name": "A4",
                    "midi": 69,
                    "time": 23.700000000000017,
                    "velocity": 0.3858267716535433,
                    "duration": 0.3000000000000007
                },
                {
                    "name": "C5",
                    "midi": 72,
                    "time": 24.000000000000018,
                    "velocity": 0.4094488188976378,
                    "duration": 0.3000000000000007
                },
                {
                    "name": "F5",
                    "midi": 77,
                    "time": 24.30000000000002,
                    "velocity": 0.4094488188976378,
                    "duration": 0.2875000000000014
                },
                {
                    "name": "F4",
                    "midi": 65,
                    "time": 24.60000000000002,
                    "velocity": 0.2992125984251969,
                    "duration": 2.400000000000002
                },
                {
                    "name": "F5",
                    "midi": 77,
                    "time": 24.61250000000002,
                    "velocity": 0.3937007874015748,
                    "duration": 1.2000000000000028
                },
                {
                    "name": "E5",
                    "midi": 76,
                    "time": 25.80625000000002,
                    "velocity": 0.29133858267716534,
                    "duration": 0.3000000000000007
                },
                {
                    "name": "D5",
                    "midi": 74,
                    "time": 26.10625000000002,
                    "velocity": 0.28346456692913385,
                    "duration": 0.2937499999999993
                },
                {
                    "name": "C5",
                    "midi": 72,
                    "time": 26.40000000000002,
                    "velocity": 0.33070866141732286,
                    "duration": 0.3000000000000007
                },
                {
                    "name": "F5",
                    "midi": 77,
                    "time": 26.70000000000002,
                    "velocity": 0.2992125984251969,
                    "duration": 0.3000000000000007
                },
                {
                    "name": "E4",
                    "midi": 64,
                    "time": 27.00000000000002,
                    "velocity": 0.33070866141732286,
                    "duration": 1.2000000000000028
                },
                {
                    "name": "G4",
                    "midi": 67,
                    "time": 27.00000000000002,
                    "velocity": 0.31496062992125984,
                    "duration": 0.3000000000000007
                },
                {
                    "name": "A4",
                    "midi": 69,
                    "time": 27.300000000000022,
                    "velocity": 0.31496062992125984,
                    "duration": 0.3000000000000007
                },
                {
                    "name": "A#4",
                    "midi": 70,
                    "time": 27.600000000000023,
                    "velocity": 0.36220472440944884,
                    "duration": 0.3000000000000007
                },
                {
                    "name": "D5",
                    "midi": 74,
                    "time": 27.900000000000023,
                    "velocity": 0.2992125984251969,
                    "duration": 0.3000000000000007
                },
                {
                    "name": "C4",
                    "midi": 60,
                    "time": 28.200000000000024,
                    "velocity": 0.36220472440944884,
                    "duration": 1.2000000000000028
                },
                {
                    "name": "F4",
                    "midi": 65,
                    "time": 28.200000000000024,
                    "velocity": 0.36220472440944884,
                    "duration": 0.3000000000000007
                },
                {
                    "name": "E4",
                    "midi": 64,
                    "time": 28.500000000000025,
                    "velocity": 0.36220472440944884,
                    "duration": 0.3000000000000007
                },
                {
                    "name": "G4",
                    "midi": 67,
                    "time": 28.500000000000025,
                    "velocity": 0.36220472440944884,
                    "duration": 0.3000000000000007
                },
                {
                    "name": "F4",
                    "midi": 65,
                    "time": 28.800000000000026,
                    "velocity": 0.3858267716535433,
                    "duration": 0.3000000000000007
                },
                {
                    "name": "A4",
                    "midi": 69,
                    "time": 28.800000000000026,
                    "velocity": 0.3858267716535433,
                    "duration": 0.3000000000000007
                },
                {
                    "name": "C5",
                    "midi": 72,
                    "time": 29.100000000000026,
                    "velocity": 0.2992125984251969,
                    "duration": 0.3000000000000007
                },
                {
                    "name": "C4",
                    "midi": 60,
                    "time": 29.400000000000027,
                    "velocity": 0.3543307086614173,
                    "duration": 1.1999999999999993
                },
                {
                    "name": "E4",
                    "midi": 64,
                    "time": 29.400000000000027,
                    "velocity": 0.3543307086614173,
                    "duration": 1.1999999999999993
                },
                {
                    "name": "G4",
                    "midi": 67,
                    "time": 29.400000000000027,
                    "velocity": 0.3543307086614173,
                    "duration": 1.1999999999999993
                },
                {
                    "name": "C4",
                    "midi": 60,
                    "time": 30.625000000000025,
                    "velocity": 0.4015748031496063,
                    "duration": 0.5749999999999993
                },
                {
                    "name": "F4",
                    "midi": 65,
                    "time": 31.200000000000024,
                    "velocity": 0.4566929133858268,
                    "duration": 1.5
                },
                {
                    "name": "F3",
                    "midi": 53,
                    "time": 31.800000000000026,
                    "velocity": 0.2047244094488189,
                    "duration": 1.79999999999999
                },
                {
                    "name": "C4",
                    "midi": 60,
                    "time": 31.800000000000026,
                    "velocity": 0.2047244094488189,
                    "duration": 1.79999999999999
                },
                {
                    "name": "E4",
                    "midi": 64,
                    "time": 32.700000000000024,
                    "velocity": 0.3543307086614173,
                    "duration": 0.29999999999999716
                },
                {
                    "name": "F4",
                    "midi": 65,
                    "time": 33.00000000000002,
                    "velocity": 0.3779527559055118,
                    "duration": 0.29999999999999716
                },
                {
                    "name": "A4",
                    "midi": 69,
                    "time": 33.30000000000002,
                    "velocity": 0.3858267716535433,
                    "duration": 0.29999999999999716
                },
                {
                    "name": "C5",
                    "midi": 72,
                    "time": 33.600000000000016,
                    "velocity": 0.4094488188976378,
                    "duration": 0.29999999999999716
                },
                {
                    "name": "A5",
                    "midi": 81,
                    "time": 33.90000000000001,
                    "velocity": 0.4015748031496063,
                    "duration": 0.2875000000000014
                },
                {
                    "name": "A4",
                    "midi": 69,
                    "time": 34.20000000000002,
                    "velocity": 0.25984251968503935,
                    "duration": 2.6999999999999815
                },
                {
                    "name": "A5",
                    "midi": 81,
                    "time": 34.20000000000002,
                    "velocity": 0.3858267716535433,
                    "duration": 0.8999999999999986
                },
                {
                    "name": "G4",
                    "midi": 67,
                    "time": 34.20000000000002,
                    "velocity": 0.25984251968503935,
                    "duration": 1.79999999999999
                },
                {
                    "name": "G5",
                    "midi": 79,
                    "time": 35.100000000000016,
                    "velocity": 0.36220472440944884,
                    "duration": 0.29999999999999716
                },
                {
                    "name": "F5",
                    "midi": 77,
                    "time": 35.40000000000001,
                    "velocity": 0.36220472440944884,
                    "duration": 0.29999999999999716
                },
                {
                    "name": "E5",
                    "midi": 76,
                    "time": 35.70000000000001,
                    "velocity": 0.36220472440944884,
                    "duration": 0.29999999999999716
                },
                {
                    "name": "F5",
                    "midi": 77,
                    "time": 36.00000000000001,
                    "velocity": 0.4330708661417323,
                    "duration": 0.29999999999999716
                },
                {
                    "name": "A5",
                    "midi": 81,
                    "time": 36.300000000000004,
                    "velocity": 0.3543307086614173,
                    "duration": 0.29999999999999716
                },
                {
                    "name": "D5",
                    "midi": 74,
                    "time": 36.6,
                    "velocity": 0.3858267716535433,
                    "duration": 0.29999999999999716
                },
                {
                    "name": "G#4",
                    "midi": 68,
                    "time": 36.9,
                    "velocity": 0.3464566929133858,
                    "duration": 0.29999999999999716
                },
                {
                    "name": "F5",
                    "midi": 77,
                    "time": 36.9,
                    "velocity": 0.3464566929133858,
                    "duration": 0.29999999999999716
                },
                {
                    "name": "G4",
                    "midi": 67,
                    "time": 37.199999999999996,
                    "velocity": 0.3779527559055118,
                    "duration": 0.29999999999999716
                },
                {
                    "name": "E5",
                    "midi": 76,
                    "time": 37.199999999999996,
                    "velocity": 0.3779527559055118,
                    "duration": 0.8999999999999915
                },
                {
                    "name": "C5",
                    "midi": 72,
                    "time": 37.49999999999999,
                    "velocity": 0.2992125984251969,
                    "duration": 0.29999999999999716
                },
                {
                    "name": "E4",
                    "midi": 64,
                    "time": 37.79999999999999,
                    "velocity": 0.2992125984251969,
                    "duration": 0.29999999999999716
                },
                {
                    "name": "F#4",
                    "midi": 66,
                    "time": 38.09999999999999,
                    "velocity": 0.2992125984251969,
                    "duration": 0.29999999999999716
                },
                {
                    "name": "D#5",
                    "midi": 75,
                    "time": 38.09999999999999,
                    "velocity": 0.2992125984251969,
                    "duration": 0.29999999999999716
                },
                {
                    "name": "F4",
                    "midi": 65,
                    "time": 38.399999999999984,
                    "velocity": 0.3464566929133858,
                    "duration": 1.2000000000000028
                },
                {
                    "name": "D5",
                    "midi": 74,
                    "time": 38.399999999999984,
                    "velocity": 0.3464566929133858,
                    "duration": 0.6000000000000014
                },
                {
                    "name": "E5",
                    "midi": 76,
                    "time": 38.999999999999986,
                    "velocity": 0.33070866141732286,
                    "duration": 0.45000000000000284
                },
                {
                    "name": "C5",
                    "midi": 72,
                    "time": 39.44999999999999,
                    "velocity": 0.2755905511811024,
                    "duration": 0.14999999999999858
                },
                {
                    "name": "E4",
                    "midi": 64,
                    "time": 39.59999999999999,
                    "velocity": 0.2992125984251969,
                    "duration": 0.6000000000000014
                },
                {
                    "name": "C5",
                    "midi": 72,
                    "time": 39.59999999999999,
                    "velocity": 0.2992125984251969,
                    "duration": 1.2000000000000028
                },
                {
                    "name": "C4",
                    "midi": 60,
                    "time": 40.51249999999999,
                    "velocity": 0.4409448818897638,
                    "duration": 0.2875000000000014
                },
                {
                    "name": "F4",
                    "midi": 65,
                    "time": 40.79999999999999,
                    "velocity": 0.49606299212598426,
                    "duration": 1.5
                },
                {
                    "name": "F3",
                    "midi": 53,
                    "time": 41.39999999999999,
                    "velocity": 0.2204724409448819,
                    "duration": 1.79999999999999
                },
                {
                    "name": "C4",
                    "midi": 60,
                    "time": 41.39999999999999,
                    "velocity": 0.2204724409448819,
                    "duration": 1.79999999999999
                },
                {
                    "name": "E4",
                    "midi": 64,
                    "time": 42.29999999999999,
                    "velocity": 0.3858267716535433,
                    "duration": 0.29999999999999716
                },
                {
                    "name": "F4",
                    "midi": 65,
                    "time": 42.59999999999999,
                    "velocity": 0.4094488188976378,
                    "duration": 0.29999999999999716
                },
                {
                    "name": "A4",
                    "midi": 69,
                    "time": 42.899999999999984,
                    "velocity": 0.41732283464566927,
                    "duration": 0.29999999999999716
                },
                {
                    "name": "C5",
                    "midi": 72,
                    "time": 43.19999999999998,
                    "velocity": 0.4094488188976378,
                    "duration": 0.29999999999999716
                },
                {
                    "name": "A#4",
                    "midi": 70,
                    "time": 43.49999999999998,
                    "velocity": 0.3228346456692913,
                    "duration": 0.2875000000000014
                },
                {
                    "name": "D#5",
                    "midi": 75,
                    "time": 43.49999999999998,
                    "velocity": 0.4015748031496063,
                    "duration": 0.2875000000000014
                },
                {
                    "name": "A4",
                    "midi": 69,
                    "time": 43.79999999999998,
                    "velocity": 0.3228346456692913,
                    "duration": 1.1999999999999957
                },
                {
                    "name": "D#5",
                    "midi": 75,
                    "time": 43.79999999999998,
                    "velocity": 0.4409448818897638,
                    "duration": 1.1999999999999957
                },
                {
                    "name": "F#4",
                    "midi": 66,
                    "time": 44.69999999999998,
                    "velocity": 0.3779527559055118,
                    "duration": 0.29999999999999716
                },
                {
                    "name": "A4",
                    "midi": 69,
                    "time": 44.99999999999998,
                    "velocity": 0.2992125984251969,
                    "duration": 0.5999999999999943
                },
                {
                    "name": "D5",
                    "midi": 74,
                    "time": 44.99999999999998,
                    "velocity": 0.3937007874015748,
                    "duration": 0.29999999999999716
                },
                {
                    "name": "C5",
                    "midi": 72,
                    "time": 45.299999999999976,
                    "velocity": 0.4015748031496063,
                    "duration": 0.29999999999999716
                },
                {
                    "name": "A#4",
                    "midi": 70,
                    "time": 45.59999999999997,
                    "velocity": 0.4330708661417323,
                    "duration": 0.29999999999999716
                },
                {
                    "name": "D5",
                    "midi": 74,
                    "time": 45.89999999999997,
                    "velocity": 0.3858267716535433,
                    "duration": 0.29999999999999716
                },
                {
                    "name": "G4",
                    "midi": 67,
                    "time": 46.19999999999997,
                    "velocity": 0.41732283464566927,
                    "duration": 0.29999999999999716
                },
                {
                    "name": "D#4",
                    "midi": 63,
                    "time": 46.499999999999964,
                    "velocity": 0.3779527559055118,
                    "duration": 0.29999999999999716
                },
                {
                    "name": "A4",
                    "midi": 69,
                    "time": 46.499999999999964,
                    "velocity": 0.3779527559055118,
                    "duration": 0.29999999999999716
                },
                {
                    "name": "D4",
                    "midi": 62,
                    "time": 46.79999999999996,
                    "velocity": 0.4094488188976378,
                    "duration": 0.29999999999999716
                },
                {
                    "name": "A#4",
                    "midi": 70,
                    "time": 46.79999999999996,
                    "velocity": 0.4094488188976378,
                    "duration": 0.8999999999999915
                },
                {
                    "name": "G4",
                    "midi": 67,
                    "time": 47.09999999999996,
                    "velocity": 0.3228346456692913,
                    "duration": 0.29999999999999716
                },
                {
                    "name": "A#3",
                    "midi": 58,
                    "time": 47.399999999999956,
                    "velocity": 0.3228346456692913,
                    "duration": 0.29999999999999716
                },
                {
                    "name": "C4",
                    "midi": 60,
                    "time": 47.69999999999995,
                    "velocity": 0.3228346456692913,
                    "duration": 0.29999999999999716
                },
                {
                    "name": "A4",
                    "midi": 69,
                    "time": 47.69999999999995,
                    "velocity": 0.3228346456692913,
                    "duration": 0.29999999999999716
                },
                {
                    "name": "G4",
                    "midi": 67,
                    "time": 47.99999999999995,
                    "velocity": 0.3779527559055118,
                    "duration": 0.8999999999999986
                },
                {
                    "name": "C4",
                    "midi": 60,
                    "time": 48.89999999999995,
                    "velocity": 0.3228346456692913,
                    "duration": 0.29999999999999716
                },
                {
                    "name": "D4",
                    "midi": 62,
                    "time": 48.89999999999995,
                    "velocity": 0.3228346456692913,
                    "duration": 0.29625000000000057
                },
                {
                    "name": "A#3",
                    "midi": 58,
                    "time": 49.199999999999946,
                    "velocity": 0.3228346456692913,
                    "duration": 0.6000000000000014
                },
                {
                    "name": "D4",
                    "midi": 62,
                    "time": 49.199999999999946,
                    "velocity": 0.3228346456692913,
                    "duration": 0.6000000000000014
                },
                {
                    "name": "F4",
                    "midi": 65,
                    "time": 50.11249999999995,
                    "velocity": 0.33070866141732286,
                    "duration": 0.2875000000000014
                },
                {
                    "name": "A#4",
                    "midi": 70,
                    "time": 50.39999999999995,
                    "velocity": 0.4015748031496063,
                    "duration": 1.5
                },
                {
                    "name": "A#3",
                    "midi": 58,
                    "time": 50.99999999999995,
                    "velocity": 0.2204724409448819,
                    "duration": 1.79999999999999
                },
                {
                    "name": "F4",
                    "midi": 65,
                    "time": 50.99999999999995,
                    "velocity": 0.2204724409448819,
                    "duration": 1.79999999999999
                },
                {
                    "name": "A4",
                    "midi": 69,
                    "time": 51.89999999999995,
                    "velocity": 0.31496062992125984,
                    "duration": 0.29999999999999716
                },
                {
                    "name": "A#4",
                    "midi": 70,
                    "time": 52.199999999999946,
                    "velocity": 0.3464566929133858,
                    "duration": 0.29999999999999716
                },
                {
                    "name": "D5",
                    "midi": 74,
                    "time": 52.49999999999994,
                    "velocity": 0.3543307086614173,
                    "duration": 0.29999999999999716
                },
                {
                    "name": "F5",
                    "midi": 77,
                    "time": 52.79999999999994,
                    "velocity": 0.3464566929133858,
                    "duration": 0.6000000000000014
                },
                {
                    "name": "A#5",
                    "midi": 82,
                    "time": 53.09999999999994,
                    "velocity": 0.36220472440944884,
                    "duration": 0.2875000000000014
                },
                {
                    "name": "E5",
                    "midi": 76,
                    "time": 53.39999999999994,
                    "velocity": 0.28346456692913385,
                    "duration": 1.1999999999999957
                },
                {
                    "name": "A#5",
                    "midi": 82,
                    "time": 53.39999999999994,
                    "velocity": 0.36220472440944884,
                    "duration": 1.1999999999999957
                },
                {
                    "name": "C#5",
                    "midi": 73,
                    "time": 54.29999999999994,
                    "velocity": 0.28346456692913385,
                    "duration": 0.29999999999999716
                },
                {
                    "name": "E5",
                    "midi": 76,
                    "time": 54.59999999999994,
                    "velocity": 0.28346456692913385,
                    "duration": 0.6000000000000014
                },
                {
                    "name": "A5",
                    "midi": 81,
                    "time": 54.60624999999994,
                    "velocity": 0.31496062992125984,
                    "duration": 0.29999999999999716
                },
                {
                    "name": "G5",
                    "midi": 79,
                    "time": 54.906249999999936,
                    "velocity": 0.29133858267716534,
                    "duration": 0.29375000000000284
                },
                {
                    "name": "F5",
                    "midi": 77,
                    "time": 55.19999999999994,
                    "velocity": 0.3543307086614173,
                    "duration": 0.29999999999999716
                },
                {
                    "name": "A5",
                    "midi": 81,
                    "time": 55.499999999999936,
                    "velocity": 0.33070866141732286,
                    "duration": 0.29999999999999716
                },
                {
                    "name": "D5",
                    "midi": 74,
                    "time": 55.79999999999993,
                    "velocity": 0.3543307086614173,
                    "duration": 0.29999999999999716
                },
                {
                    "name": "A#4",
                    "midi": 70,
                    "time": 56.09999999999993,
                    "velocity": 0.31496062992125984,
                    "duration": 0.29999999999999716
                },
                {
                    "name": "E5",
                    "midi": 76,
                    "time": 56.09999999999993,
                    "velocity": 0.31496062992125984,
                    "duration": 0.29999999999999716
                },
                {
                    "name": "A4",
                    "midi": 69,
                    "time": 56.39999999999993,
                    "velocity": 0.28346456692913385,
                    "duration": 0.29999999999999716
                },
                {
                    "name": "F5",
                    "midi": 77,
                    "time": 56.39999999999993,
                    "velocity": 0.3464566929133858,
                    "duration": 0.8999999999999915
                },
                {
                    "name": "D5",
                    "midi": 74,
                    "time": 56.699999999999925,
                    "velocity": 0.29133858267716534,
                    "duration": 0.29999999999999716
                },
                {
                    "name": "F4",
                    "midi": 65,
                    "time": 56.99999999999992,
                    "velocity": 0.29133858267716534,
                    "duration": 0.29999999999999716
                },
                {
                    "name": "G4",
                    "midi": 67,
                    "time": 57.29999999999992,
                    "velocity": 0.29133858267716534,
                    "duration": 0.29999999999999716
                },
                {
                    "name": "E5",
                    "midi": 76,
                    "time": 57.29999999999992,
                    "velocity": 0.29133858267716534,
                    "duration": 0.29999999999999716
                },
                {
                    "name": "F4",
                    "midi": 65,
                    "time": 57.599999999999916,
                    "velocity": 0.31496062992125984,
                    "duration": 0.29999999999999716
                },
                {
                    "name": "D5",
                    "midi": 74,
                    "time": 57.599999999999916,
                    "velocity": 0.33070866141732286,
                    "duration": 0.8999999999999915
                },
                {
                    "name": "A4",
                    "midi": 69,
                    "time": 57.89999999999991,
                    "velocity": 0.2992125984251969,
                    "duration": 0.29999999999999716
                },
                {
                    "name": "G4",
                    "midi": 67,
                    "time": 58.49999999999991,
                    "velocity": 0.28346456692913385,
                    "duration": 0.29999999999999716
                },
                {
                    "name": "A4",
                    "midi": 69,
                    "time": 58.49999999999991,
                    "velocity": 0.28346456692913385,
                    "duration": 0.5999999999999943
                },
                {
                    "name": "F4",
                    "midi": 65,
                    "time": 58.799999999999905,
                    "velocity": 0.2755905511811024,
                    "duration": 0.5999999999999943
                },
                {
                    "name": "E4",
                    "midi": 64,
                    "time": 59.3999999999999,
                    "velocity": 0.2283464566929134,
                    "duration": 0.45000000000000284
                },
                {
                    "name": "G4",
                    "midi": 67,
                    "time": 59.3999999999999,
                    "velocity": 0.23622047244094488,
                    "duration": 0.45000000000000284
                },
                {
                    "name": "C4",
                    "midi": 60,
                    "time": 59.8499999999999,
                    "velocity": 0.2677165354330709,
                    "duration": 0.14999999999999858
                },
                {
                    "name": "F4",
                    "midi": 65,
                    "time": 59.9999999999999,
                    "velocity": 0.36220472440944884,
                    "duration": 1.5
                },
                {
                    "name": "F3",
                    "midi": 53,
                    "time": 60.5999999999999,
                    "velocity": 0.18110236220472442,
                    "duration": 1.79999999999999
                },
                {
                    "name": "C4",
                    "midi": 60,
                    "time": 60.5999999999999,
                    "velocity": 0.18110236220472442,
                    "duration": 1.79999999999999
                },
                {
                    "name": "E4",
                    "midi": 64,
                    "time": 61.4999999999999,
                    "velocity": 0.31496062992125984,
                    "duration": 0.29999999999999716
                },
                {
                    "name": "F4",
                    "midi": 65,
                    "time": 61.7999999999999,
                    "velocity": 0.33858267716535434,
                    "duration": 0.29999999999999716
                },
                {
                    "name": "A4",
                    "midi": 69,
                    "time": 62.099999999999895,
                    "velocity": 0.3464566929133858,
                    "duration": 0.29999999999999716
                },
                {
                    "name": "C5",
                    "midi": 72,
                    "time": 62.39999999999989,
                    "velocity": 0.36220472440944884,
                    "duration": 0.29999999999999716
                },
                {
                    "name": "F5",
                    "midi": 77,
                    "time": 62.69999999999989,
                    "velocity": 0.36220472440944884,
                    "duration": 0.2875000000000014
                },
                {
                    "name": "F4",
                    "midi": 65,
                    "time": 62.99999999999989,
                    "velocity": 0.2677165354330709,
                    "duration": 2.3999999999999986
                },
                {
                    "name": "F5",
                    "midi": 77,
                    "time": 63.012499999999896,
                    "velocity": 0.3543307086614173,
                    "duration": 1.1999999999999957
                },
                {
                    "name": "E5",
                    "midi": 76,
                    "time": 64.2087499999999,
                    "velocity": 0.2440944881889764,
                    "duration": 0.29999999999999716
                },
                {
                    "name": "D5",
                    "midi": 74,
                    "time": 64.5062499999999,
                    "velocity": 0.2283464566929134,
                    "duration": 0.29375000000000284
                },
                {
                    "name": "C5",
                    "midi": 72,
                    "time": 64.7999999999999,
                    "velocity": 0.29133858267716534,
                    "duration": 0.29999999999999716
                },
                {
                    "name": "F5",
                    "midi": 77,
                    "time": 65.0999999999999,
                    "velocity": 0.2677165354330709,
                    "duration": 0.29999999999999716
                },
                {
                    "name": "E4",
                    "midi": 64,
                    "time": 65.39999999999989,
                    "velocity": 0.29133858267716534,
                    "duration": 1.1999999999999886
                },
                {
                    "name": "G4",
                    "midi": 67,
                    "time": 65.39999999999989,
                    "velocity": 0.28346456692913385,
                    "duration": 0.29999999999999716
                },
                {
                    "name": "A4",
                    "midi": 69,
                    "time": 65.69999999999989,
                    "velocity": 0.28346456692913385,
                    "duration": 0.29999999999999716
                },
                {
                    "name": "A#4",
                    "midi": 70,
                    "time": 65.99999999999989,
                    "velocity": 0.3228346456692913,
                    "duration": 0.29999999999999716
                },
                {
                    "name": "D5",
                    "midi": 74,
                    "time": 66.29999999999988,
                    "velocity": 0.2677165354330709,
                    "duration": 0.29999999999999716
                },
                {
                    "name": "C4",
                    "midi": 60,
                    "time": 66.59999999999988,
                    "velocity": 0.3228346456692913,
                    "duration": 1.1999999999999886
                },
                {
                    "name": "F4",
                    "midi": 65,
                    "time": 66.59999999999988,
                    "velocity": 0.3228346456692913,
                    "duration": 0.29999999999999716
                },
                {
                    "name": "E4",
                    "midi": 64,
                    "time": 66.89999999999988,
                    "velocity": 0.3228346456692913,
                    "duration": 0.29999999999999716
                },
                {
                    "name": "G4",
                    "midi": 67,
                    "time": 66.89999999999988,
                    "velocity": 0.3228346456692913,
                    "duration": 0.29999999999999716
                },
                {
                    "name": "F4",
                    "midi": 65,
                    "time": 67.19999999999987,
                    "velocity": 0.3464566929133858,
                    "duration": 0.29999999999999716
                },
                {
                    "name": "A4",
                    "midi": 69,
                    "time": 67.19999999999987,
                    "velocity": 0.3464566929133858,
                    "duration": 0.29999999999999716
                },
                {
                    "name": "C5",
                    "midi": 72,
                    "time": 67.49999999999987,
                    "velocity": 0.2677165354330709,
                    "duration": 0.29999999999999716
                },
                {
                    "name": "C4",
                    "midi": 60,
                    "time": 67.79999999999987,
                    "velocity": 0.31496062992125984,
                    "duration": 1.2000000000000028
                },
                {
                    "name": "E4",
                    "midi": 64,
                    "time": 67.79999999999987,
                    "velocity": 0.31496062992125984,
                    "duration": 1.2000000000000028
                },
                {
                    "name": "G4",
                    "midi": 67,
                    "time": 67.79999999999987,
                    "velocity": 0.31496062992125984,
                    "duration": 1.2000000000000028
                },
                {
                    "name": "C4",
                    "midi": 60,
                    "time": 69.02499999999988,
                    "velocity": 0.3543307086614173,
                    "duration": 0.5750000000000028
                },
                {
                    "name": "F4",
                    "midi": 65,
                    "time": 69.59999999999988,
                    "velocity": 0.4094488188976378,
                    "duration": 1.5
                },
                {
                    "name": "F3",
                    "midi": 53,
                    "time": 70.19999999999987,
                    "velocity": 0.18110236220472442,
                    "duration": 1.7999999999999972
                },
                {
                    "name": "C4",
                    "midi": 60,
                    "time": 70.19999999999987,
                    "velocity": 0.18110236220472442,
                    "duration": 1.7999999999999972
                },
                {
                    "name": "E4",
                    "midi": 64,
                    "time": 71.09999999999988,
                    "velocity": 0.31496062992125984,
                    "duration": 0.29999999999999716
                },
                {
                    "name": "F4",
                    "midi": 65,
                    "time": 71.39999999999988,
                    "velocity": 0.33858267716535434,
                    "duration": 0.29999999999999716
                },
                {
                    "name": "A4",
                    "midi": 69,
                    "time": 71.69999999999987,
                    "velocity": 0.3464566929133858,
                    "duration": 0.29999999999999716
                },
                {
                    "name": "C5",
                    "midi": 72,
                    "time": 71.99999999999987,
                    "velocity": 0.36220472440944884,
                    "duration": 0.29999999999999716
                },
                {
                    "name": "A5",
                    "midi": 81,
                    "time": 72.29999999999987,
                    "velocity": 0.3543307086614173,
                    "duration": 0.2874999999999943
                },
                {
                    "name": "D5",
                    "midi": 74,
                    "time": 72.59999999999987,
                    "velocity": 0.2283464566929134,
                    "duration": 1.7999999999999972
                },
                {
                    "name": "F4",
                    "midi": 65,
                    "time": 72.59999999999987,
                    "velocity": 0.2283464566929134,
                    "duration": 1.7999999999999972
                },
                {
                    "name": "A5",
                    "midi": 81,
                    "time": 72.59999999999987,
                    "velocity": 0.25196850393700787,
                    "duration": 0.9000000000000057
                },
                {
                    "name": "G4",
                    "midi": 67,
                    "time": 72.59999999999987,
                    "velocity": 0.2283464566929134,
                    "duration": 1.7999999999999972
                },
                {
                    "name": "G5",
                    "midi": 79,
                    "time": 73.49999999999987,
                    "velocity": 0.28346456692913385,
                    "duration": 0.29999999999999716
                },
                {
                    "name": "F5",
                    "midi": 77,
                    "time": 73.79999999999987,
                    "velocity": 0.28346456692913385,
                    "duration": 0.29999999999999716
                },
                {
                    "name": "D5",
                    "midi": 74,
                    "time": 74.09999999999987,
                    "velocity": 0.28346456692913385,
                    "duration": 0.29999999999999716
                },
                {
                    "name": "C5",
                    "midi": 72,
                    "time": 74.39999999999986,
                    "velocity": 0.30708661417322836,
                    "duration": 0.29999999999999716
                },
                {
                    "name": "F5",
                    "midi": 77,
                    "time": 74.69999999999986,
                    "velocity": 0.2755905511811024,
                    "duration": 0.29999999999999716
                },
                {
                    "name": "E4",
                    "midi": 64,
                    "time": 74.99999999999986,
                    "velocity": 0.2283464566929134,
                    "duration": 1.1999999999999886
                },
                {
                    "name": "G4",
                    "midi": 67,
                    "time": 74.99999999999986,
                    "velocity": 0.28346456692913385,
                    "duration": 0.29999999999999716
                },
                {
                    "name": "A4",
                    "midi": 69,
                    "time": 75.29999999999986,
                    "velocity": 0.28346456692913385,
                    "duration": 0.29999999999999716
                },
                {
                    "name": "A#4",
                    "midi": 70,
                    "time": 75.59999999999985,
                    "velocity": 0.33858267716535434,
                    "duration": 0.29999999999999716
                },
                {
                    "name": "D5",
                    "midi": 74,
                    "time": 75.89999999999985,
                    "velocity": 0.2677165354330709,
                    "duration": 0.29999999999999716
                },
                {
                    "name": "D4",
                    "midi": 62,
                    "time": 76.19999999999985,
                    "velocity": 0.25196850393700787,
                    "duration": 1.1999999999999886
                },
                {
                    "name": "G4",
                    "midi": 67,
                    "time": 76.19999999999985,
                    "velocity": 0.25196850393700787,
                    "duration": 0.29999999999999716
                },
                {
                    "name": "A4",
                    "midi": 69,
                    "time": 76.49999999999984,
                    "velocity": 0.25196850393700787,
                    "duration": 0.29999999999999716
                },
                {
                    "name": "F#4",
                    "midi": 66,
                    "time": 76.49999999999984,
                    "velocity": 0.25196850393700787,
                    "duration": 0.29999999999999716
                },
                {
                    "name": "A#4",
                    "midi": 70,
                    "time": 76.79999999999984,
                    "velocity": 0.28346456692913385,
                    "duration": 0.29999999999999716
                },
                {
                    "name": "D5",
                    "midi": 74,
                    "time": 77.09999999999984,
                    "velocity": 0.25984251968503935,
                    "duration": 0.29999999999999716
                },
                {
                    "name": "A#3",
                    "midi": 58,
                    "time": 77.39999999999984,
                    "velocity": 0.2283464566929134,
                    "duration": 0.5999999999999943
                },
                {
                    "name": "D4",
                    "midi": 62,
                    "time": 77.39999999999984,
                    "velocity": 0.2283464566929134,
                    "duration": 0.29999999999999716
                },
                {
                    "name": "C4",
                    "midi": 60,
                    "time": 77.69999999999983,
                    "velocity": 0.2283464566929134,
                    "duration": 1.5
                },
                {
                    "name": "E4",
                    "midi": 64,
                    "time": 77.69999999999983,
                    "velocity": 0.2283464566929134,
                    "duration": 0.29999999999999716
                },
                {
                    "name": "A3",
                    "midi": 57,
                    "time": 77.99999999999983,
                    "velocity": 0.2283464566929134,
                    "duration": 1.2000000000000028
                },
                {
                    "name": "F4",
                    "midi": 65,
                    "time": 77.99999999999983,
                    "velocity": 0.2283464566929134,
                    "duration": 1.2000000000000028
                }
            ],
            "controlChanges": {
                "7": [
                    {
                        "number": 7,
                        "time": 0,
                        "value": 0.7874015748031497
                    }
                ],
                "10": [
                    {
                        "number": 10,
                        "time": 0,
                        "value": 0.5039370078740157
                    }
                ],
                "91": [
                    {
                        "number": 91,
                        "time": 0,
                        "value": 1
                    },
                    {
                        "number": 91,
                        "time": 1.79875,
                        "value": 1
                    }
                ]
            },
            "id": 1,
            "name": "Piano right",
            "instrumentNumber": 0,
            "instrument": "acoustic grand piano",
            "instrumentFamily": "piano",
            "channelNumber": 0,
            "isPercussion": false
        },
        {
            "startTime": 2.4,
            "duration": 79.19999999999992,
            "length": 201,
            "notes": [
                {
                    "name": "F2",
                    "midi": 41,
                    "time": 2.4,
                    "velocity": 0.36220472440944884,
                    "duration": 3.0000000000000004
                },
                {
                    "name": "C3",
                    "midi": 48,
                    "time": 3,
                    "velocity": 0.1732283464566929,
                    "duration": 2.4000000000000004
                },
                {
                    "name": "A3",
                    "midi": 57,
                    "time": 3,
                    "velocity": 0.1732283464566929,
                    "duration": 2.4000000000000004
                },
                {
                    "name": "A#2",
                    "midi": 46,
                    "time": 5.25,
                    "velocity": 0.2440944881889764,
                    "duration": 0.08750000000000036
                },
                {
                    "name": "F3",
                    "midi": 53,
                    "time": 5.325,
                    "velocity": 0.2755905511811024,
                    "duration": 1.875
                },
                {
                    "name": "D4",
                    "midi": 62,
                    "time": 5.4125000000000005,
                    "velocity": 0.30708661417322836,
                    "duration": 1.2000000000000002
                },
                {
                    "name": "C4",
                    "midi": 60,
                    "time": 6.6000000000000005,
                    "velocity": 0.28346456692913385,
                    "duration": 0.2999999999999998
                },
                {
                    "name": "A#3",
                    "midi": 58,
                    "time": 6.9,
                    "velocity": 0.2677165354330709,
                    "duration": 0.2999999999999998
                },
                {
                    "name": "C3",
                    "midi": 48,
                    "time": 7.2,
                    "velocity": 0.25984251968503935,
                    "duration": 0.6000000000000005
                },
                {
                    "name": "A3",
                    "midi": 57,
                    "time": 7.2,
                    "velocity": 0.25984251968503935,
                    "duration": 0.6000000000000005
                },
                {
                    "name": "A#3",
                    "midi": 58,
                    "time": 7.800000000000001,
                    "velocity": 0.2992125984251969,
                    "duration": 0.3000000000000007
                },
                {
                    "name": "C3",
                    "midi": 48,
                    "time": 7.800000000000001,
                    "velocity": 0.2992125984251969,
                    "duration": 1.200000000000001
                },
                {
                    "name": "A3",
                    "midi": 57,
                    "time": 8.100000000000001,
                    "velocity": 0.2992125984251969,
                    "duration": 0.3000000000000007
                },
                {
                    "name": "G3",
                    "midi": 55,
                    "time": 8.400000000000002,
                    "velocity": 0.33070866141732286,
                    "duration": 0.5999999999999996
                },
                {
                    "name": "A2",
                    "midi": 45,
                    "time": 9.000000000000002,
                    "velocity": 0.28346456692913385,
                    "duration": 0.3000000000000007
                },
                {
                    "name": "F3",
                    "midi": 53,
                    "time": 9.000000000000002,
                    "velocity": 0.28346456692913385,
                    "duration": 0.3000000000000007
                },
                {
                    "name": "C3",
                    "midi": 48,
                    "time": 9.300000000000002,
                    "velocity": 0.30708661417322836,
                    "duration": 0.3000000000000007
                },
                {
                    "name": "G3",
                    "midi": 55,
                    "time": 9.300000000000002,
                    "velocity": 0.30708661417322836,
                    "duration": 0.3000000000000007
                },
                {
                    "name": "F3",
                    "midi": 53,
                    "time": 9.600000000000003,
                    "velocity": 0.33070866141732286,
                    "duration": 0.5999999999999996
                },
                {
                    "name": "A3",
                    "midi": 57,
                    "time": 9.600000000000003,
                    "velocity": 0.33070866141732286,
                    "duration": 0.5999999999999996
                },
                {
                    "name": "C3",
                    "midi": 48,
                    "time": 10.200000000000003,
                    "velocity": 0.30708661417322836,
                    "duration": 0.29999999999999893
                },
                {
                    "name": "G3",
                    "midi": 55,
                    "time": 10.200000000000003,
                    "velocity": 0.30708661417322836,
                    "duration": 1.200000000000001
                },
                {
                    "name": "D3",
                    "midi": 50,
                    "time": 10.500000000000002,
                    "velocity": 0.3937007874015748,
                    "duration": 0.3000000000000007
                },
                {
                    "name": "C3",
                    "midi": 48,
                    "time": 10.800000000000002,
                    "velocity": 0.3700787401574803,
                    "duration": 0.3000000000000007
                },
                {
                    "name": "A#2",
                    "midi": 46,
                    "time": 11.100000000000003,
                    "velocity": 0.3700787401574803,
                    "duration": 0.3000000000000007
                },
                {
                    "name": "G2",
                    "midi": 43,
                    "time": 11.400000000000004,
                    "velocity": 0.3779527559055118,
                    "duration": 0.3000000000000007
                },
                {
                    "name": "A2",
                    "midi": 45,
                    "time": 11.700000000000005,
                    "velocity": 0.3779527559055118,
                    "duration": 0.3000000000000007
                },
                {
                    "name": "F2",
                    "midi": 41,
                    "time": 12.000000000000005,
                    "velocity": 0.36220472440944884,
                    "duration": 2.9999999999999982
                },
                {
                    "name": "C3",
                    "midi": 48,
                    "time": 12.600000000000005,
                    "velocity": 0.1732283464566929,
                    "duration": 2.3999999999999986
                },
                {
                    "name": "A3",
                    "midi": 57,
                    "time": 12.600000000000005,
                    "velocity": 0.1732283464566929,
                    "duration": 2.3999999999999986
                },
                {
                    "name": "C#3",
                    "midi": 49,
                    "time": 14.850000000000005,
                    "velocity": 0.2204724409448819,
                    "duration": 0.08749999999999858
                },
                {
                    "name": "A3",
                    "midi": 57,
                    "time": 14.925000000000004,
                    "velocity": 0.23622047244094488,
                    "duration": 2.7749999999999986
                },
                {
                    "name": "E4",
                    "midi": 64,
                    "time": 15.000000000000004,
                    "velocity": 0.2755905511811024,
                    "duration": 1.8000000000000007
                },
                {
                    "name": "D3",
                    "midi": 50,
                    "time": 16.800000000000004,
                    "velocity": 0.25984251968503935,
                    "duration": 0.8999999999999986
                },
                {
                    "name": "D4",
                    "midi": 62,
                    "time": 16.800000000000004,
                    "velocity": 0.25984251968503935,
                    "duration": 0.8999999999999986
                },
                {
                    "name": "C4",
                    "midi": 60,
                    "time": 17.700000000000003,
                    "velocity": 0.2283464566929134,
                    "duration": 1.2000000000000028
                },
                {
                    "name": "F3",
                    "midi": 53,
                    "time": 17.700000000000003,
                    "velocity": 0.2283464566929134,
                    "duration": 0.3000000000000007
                },
                {
                    "name": "G3",
                    "midi": 55,
                    "time": 18.000000000000004,
                    "velocity": 0.25984251968503935,
                    "duration": 0.9000000000000021
                },
                {
                    "name": "A3",
                    "midi": 57,
                    "time": 18.900000000000006,
                    "velocity": 0.25984251968503935,
                    "duration": 0.3000000000000007
                },
                {
                    "name": "C4",
                    "midi": 60,
                    "time": 18.900000000000006,
                    "velocity": 0.25984251968503935,
                    "duration": 0.3000000000000007
                },
                {
                    "name": "B3",
                    "midi": 59,
                    "time": 19.200000000000006,
                    "velocity": 0.28346456692913385,
                    "duration": 0.3000000000000007
                },
                {
                    "name": "G3",
                    "midi": 55,
                    "time": 19.200000000000006,
                    "velocity": 0.28346456692913385,
                    "duration": 1.2000000000000028
                },
                {
                    "name": "G4",
                    "midi": 67,
                    "time": 19.500000000000007,
                    "velocity": 0.25984251968503935,
                    "duration": 0.3000000000000007
                },
                {
                    "name": "A3",
                    "midi": 57,
                    "time": 19.800000000000008,
                    "velocity": 0.25984251968503935,
                    "duration": 0.3000000000000007
                },
                {
                    "name": "B3",
                    "midi": 59,
                    "time": 20.10000000000001,
                    "velocity": 0.25984251968503935,
                    "duration": 0.3000000000000007
                },
                {
                    "name": "C3",
                    "midi": 48,
                    "time": 20.40000000000001,
                    "velocity": 0.29133858267716534,
                    "duration": 0.3000000000000007
                },
                {
                    "name": "C4",
                    "midi": 60,
                    "time": 20.40000000000001,
                    "velocity": 0.29133858267716534,
                    "duration": 0.3000000000000007
                },
                {
                    "name": "D3",
                    "midi": 50,
                    "time": 20.70000000000001,
                    "velocity": 0.36220472440944884,
                    "duration": 0.3000000000000007
                },
                {
                    "name": "A#2",
                    "midi": 46,
                    "time": 21.00000000000001,
                    "velocity": 0.3228346456692913,
                    "duration": 0.3000000000000007
                },
                {
                    "name": "G2",
                    "midi": 43,
                    "time": 21.30000000000001,
                    "velocity": 0.31496062992125984,
                    "duration": 0.3000000000000007
                },
                {
                    "name": "F2",
                    "midi": 41,
                    "time": 21.600000000000012,
                    "velocity": 0.36220472440944884,
                    "duration": 2.9999999999999964
                },
                {
                    "name": "C3",
                    "midi": 48,
                    "time": 22.20000000000001,
                    "velocity": 0.1732283464566929,
                    "duration": 2.3999999999999986
                },
                {
                    "name": "A3",
                    "midi": 57,
                    "time": 22.20000000000001,
                    "velocity": 0.1732283464566929,
                    "duration": 2.3999999999999986
                },
                {
                    "name": "A#2",
                    "midi": 46,
                    "time": 24.45000000000001,
                    "velocity": 0.2440944881889764,
                    "duration": 0.08749999999999858
                },
                {
                    "name": "F3",
                    "midi": 53,
                    "time": 24.52500000000001,
                    "velocity": 0.2755905511811024,
                    "duration": 1.8749999999999964
                },
                {
                    "name": "D4",
                    "midi": 62,
                    "time": 24.612500000000008,
                    "velocity": 0.30708661417322836,
                    "duration": 1.1999999999999993
                },
                {
                    "name": "C4",
                    "midi": 60,
                    "time": 25.800000000000008,
                    "velocity": 0.2677165354330709,
                    "duration": 0.29999999999999716
                },
                {
                    "name": "A#3",
                    "midi": 58,
                    "time": 26.100000000000005,
                    "velocity": 0.2440944881889764,
                    "duration": 0.3000000000000007
                },
                {
                    "name": "C3",
                    "midi": 48,
                    "time": 26.400000000000006,
                    "velocity": 0.25984251968503935,
                    "duration": 0.5999999999999979
                },
                {
                    "name": "A3",
                    "midi": 57,
                    "time": 26.400000000000006,
                    "velocity": 0.25984251968503935,
                    "duration": 0.5999999999999979
                },
                {
                    "name": "A#3",
                    "midi": 58,
                    "time": 27.000000000000004,
                    "velocity": 0.29133858267716534,
                    "duration": 0.3000000000000007
                },
                {
                    "name": "C3",
                    "midi": 48,
                    "time": 27.000000000000004,
                    "velocity": 0.2992125984251969,
                    "duration": 1.2000000000000028
                },
                {
                    "name": "A3",
                    "midi": 57,
                    "time": 27.300000000000004,
                    "velocity": 0.29133858267716534,
                    "duration": 0.3000000000000007
                },
                {
                    "name": "G3",
                    "midi": 55,
                    "time": 27.600000000000005,
                    "velocity": 0.31496062992125984,
                    "duration": 0.6000000000000014
                },
                {
                    "name": "A2",
                    "midi": 45,
                    "time": 28.200000000000006,
                    "velocity": 0.28346456692913385,
                    "duration": 0.3000000000000007
                },
                {
                    "name": "F3",
                    "midi": 53,
                    "time": 28.200000000000006,
                    "velocity": 0.28346456692913385,
                    "duration": 0.3000000000000007
                },
                {
                    "name": "C3",
                    "midi": 48,
                    "time": 28.500000000000007,
                    "velocity": 0.30708661417322836,
                    "duration": 0.3000000000000007
                },
                {
                    "name": "G3",
                    "midi": 55,
                    "time": 28.500000000000007,
                    "velocity": 0.30708661417322836,
                    "duration": 0.3000000000000007
                },
                {
                    "name": "F3",
                    "midi": 53,
                    "time": 28.800000000000008,
                    "velocity": 0.33070866141732286,
                    "duration": 0.6000000000000014
                },
                {
                    "name": "A3",
                    "midi": 57,
                    "time": 28.800000000000008,
                    "velocity": 0.33070866141732286,
                    "duration": 0.6000000000000014
                },
                {
                    "name": "C3",
                    "midi": 48,
                    "time": 29.40000000000001,
                    "velocity": 0.30708661417322836,
                    "duration": 0.29999999999999716
                },
                {
                    "name": "G3",
                    "midi": 55,
                    "time": 29.40000000000001,
                    "velocity": 0.30708661417322836,
                    "duration": 1.1999999999999993
                },
                {
                    "name": "D3",
                    "midi": 50,
                    "time": 29.700000000000006,
                    "velocity": 0.3937007874015748,
                    "duration": 0.3000000000000007
                },
                {
                    "name": "C3",
                    "midi": 48,
                    "time": 30.000000000000007,
                    "velocity": 0.3700787401574803,
                    "duration": 0.3000000000000007
                },
                {
                    "name": "A#2",
                    "midi": 46,
                    "time": 30.300000000000008,
                    "velocity": 0.3700787401574803,
                    "duration": 0.3000000000000007
                },
                {
                    "name": "G2",
                    "midi": 43,
                    "time": 30.60000000000001,
                    "velocity": 0.3779527559055118,
                    "duration": 0.3000000000000007
                },
                {
                    "name": "A2",
                    "midi": 45,
                    "time": 30.90000000000001,
                    "velocity": 0.3779527559055118,
                    "duration": 0.3000000000000007
                },
                {
                    "name": "F2",
                    "midi": 41,
                    "time": 31.20000000000001,
                    "velocity": 0.36220472440944884,
                    "duration": 3
                },
                {
                    "name": "C3",
                    "midi": 48,
                    "time": 31.800000000000008,
                    "velocity": 0.1732283464566929,
                    "duration": 2.400000000000002
                },
                {
                    "name": "A3",
                    "midi": 57,
                    "time": 31.800000000000008,
                    "velocity": 0.1732283464566929,
                    "duration": 2.400000000000002
                },
                {
                    "name": "C#3",
                    "midi": 49,
                    "time": 34.05000000000001,
                    "velocity": 0.2204724409448819,
                    "duration": 0.08749999999999858
                },
                {
                    "name": "A3",
                    "midi": 57,
                    "time": 34.12500000000001,
                    "velocity": 0.23622047244094488,
                    "duration": 2.7749999999999986
                },
                {
                    "name": "E4",
                    "midi": 64,
                    "time": 34.20000000000001,
                    "velocity": 0.2755905511811024,
                    "duration": 1.7999999999999972
                },
                {
                    "name": "D3",
                    "midi": 50,
                    "time": 36.00000000000001,
                    "velocity": 0.25984251968503935,
                    "duration": 0.8999999999999986
                },
                {
                    "name": "D4",
                    "midi": 62,
                    "time": 36.00000000000001,
                    "velocity": 0.25984251968503935,
                    "duration": 0.8999999999999986
                },
                {
                    "name": "C4",
                    "midi": 60,
                    "time": 36.900000000000006,
                    "velocity": 0.2283464566929134,
                    "duration": 1.1999999999999957
                },
                {
                    "name": "F3",
                    "midi": 53,
                    "time": 36.900000000000006,
                    "velocity": 0.2283464566929134,
                    "duration": 0.29999999999999716
                },
                {
                    "name": "G3",
                    "midi": 55,
                    "time": 37.2,
                    "velocity": 0.25984251968503935,
                    "duration": 0.8999999999999986
                },
                {
                    "name": "A3",
                    "midi": 57,
                    "time": 38.1,
                    "velocity": 0.25984251968503935,
                    "duration": 0.29999999999999716
                },
                {
                    "name": "C4",
                    "midi": 60,
                    "time": 38.1,
                    "velocity": 0.25984251968503935,
                    "duration": 0.29999999999999716
                },
                {
                    "name": "B3",
                    "midi": 59,
                    "time": 38.4,
                    "velocity": 0.28346456692913385,
                    "duration": 0.29999999999999716
                },
                {
                    "name": "G3",
                    "midi": 55,
                    "time": 38.4,
                    "velocity": 0.28346456692913385,
                    "duration": 1.1999999999999886
                },
                {
                    "name": "G4",
                    "midi": 67,
                    "time": 38.699999999999996,
                    "velocity": 0.25984251968503935,
                    "duration": 0.29999999999999716
                },
                {
                    "name": "A3",
                    "midi": 57,
                    "time": 38.99999999999999,
                    "velocity": 0.25984251968503935,
                    "duration": 0.29999999999999716
                },
                {
                    "name": "B3",
                    "midi": 59,
                    "time": 39.29999999999999,
                    "velocity": 0.25984251968503935,
                    "duration": 0.29999999999999716
                },
                {
                    "name": "C3",
                    "midi": 48,
                    "time": 39.59999999999999,
                    "velocity": 0.29133858267716534,
                    "duration": 0.29999999999999716
                },
                {
                    "name": "C4",
                    "midi": 60,
                    "time": 39.59999999999999,
                    "velocity": 0.29133858267716534,
                    "duration": 0.29999999999999716
                },
                {
                    "name": "D3",
                    "midi": 50,
                    "time": 39.899999999999984,
                    "velocity": 0.36220472440944884,
                    "duration": 0.29999999999999716
                },
                {
                    "name": "A#2",
                    "midi": 46,
                    "time": 40.19999999999998,
                    "velocity": 0.33070866141732286,
                    "duration": 0.29999999999999716
                },
                {
                    "name": "G2",
                    "midi": 43,
                    "time": 40.49999999999998,
                    "velocity": 0.31496062992125984,
                    "duration": 0.29999999999999716
                },
                {
                    "name": "F2",
                    "midi": 41,
                    "time": 40.799999999999976,
                    "velocity": 0.3937007874015748,
                    "duration": 2.4000000000000057
                },
                {
                    "name": "C3",
                    "midi": 48,
                    "time": 41.39999999999998,
                    "velocity": 0.1889763779527559,
                    "duration": 1.8000000000000043
                },
                {
                    "name": "A3",
                    "midi": 57,
                    "time": 41.39999999999998,
                    "velocity": 0.1889763779527559,
                    "duration": 1.8000000000000043
                },
                {
                    "name": "C3",
                    "midi": 48,
                    "time": 43.499999999999986,
                    "velocity": 0.28346456692913385,
                    "duration": 0.29999999999999716
                },
                {
                    "name": "G3",
                    "midi": 55,
                    "time": 43.499999999999986,
                    "velocity": 0.30708661417322836,
                    "duration": 0.29999999999999716
                },
                {
                    "name": "F#3",
                    "midi": 54,
                    "time": 43.79999999999998,
                    "velocity": 0.3228346456692913,
                    "duration": 0.29999999999999716
                },
                {
                    "name": "D3",
                    "midi": 50,
                    "time": 43.79999999999998,
                    "velocity": 0.3228346456692913,
                    "duration": 1.499999999999993
                },
                {
                    "name": "A3",
                    "midi": 57,
                    "time": 44.09999999999998,
                    "velocity": 0.3228346456692913,
                    "duration": 0.29999999999999716
                },
                {
                    "name": "D4",
                    "midi": 62,
                    "time": 44.39999999999998,
                    "velocity": 0.3464566929133858,
                    "duration": 2.1000000000000014
                },
                {
                    "name": "F#3",
                    "midi": 54,
                    "time": 45.299999999999976,
                    "velocity": 0.3228346456692913,
                    "duration": 0.29999999999999716
                },
                {
                    "name": "G3",
                    "midi": 55,
                    "time": 45.59999999999997,
                    "velocity": 0.36220472440944884,
                    "duration": 0.9000000000000057
                },
                {
                    "name": "F#3",
                    "midi": 54,
                    "time": 46.49999999999998,
                    "velocity": 0.30708661417322836,
                    "duration": 0.29999999999999716
                },
                {
                    "name": "C3",
                    "midi": 48,
                    "time": 46.49999999999998,
                    "velocity": 0.30708661417322836,
                    "duration": 0.29999999999999716
                },
                {
                    "name": "D3",
                    "midi": 50,
                    "time": 46.799999999999976,
                    "velocity": 0.3464566929133858,
                    "duration": 0.8999999999999986
                },
                {
                    "name": "G3",
                    "midi": 55,
                    "time": 46.799999999999976,
                    "velocity": 0.3464566929133858,
                    "duration": 0.8999999999999986
                },
                {
                    "name": "D#3",
                    "midi": 51,
                    "time": 47.699999999999974,
                    "velocity": 0.31496062992125984,
                    "duration": 0.29999999999999716
                },
                {
                    "name": "A#3",
                    "midi": 58,
                    "time": 47.99999999999997,
                    "velocity": 0.3543307086614173,
                    "duration": 0.29999999999999716
                },
                {
                    "name": "D3",
                    "midi": 50,
                    "time": 47.99999999999997,
                    "velocity": 0.3543307086614173,
                    "duration": 0.8999999999999915
                },
                {
                    "name": "D4",
                    "midi": 62,
                    "time": 48.29999999999997,
                    "velocity": 0.31496062992125984,
                    "duration": 0.29999999999999716
                },
                {
                    "name": "G3",
                    "midi": 55,
                    "time": 48.599999999999966,
                    "velocity": 0.31496062992125984,
                    "duration": 0.29999999999999716
                },
                {
                    "name": "D3",
                    "midi": 50,
                    "time": 48.89999999999996,
                    "velocity": 0.29133858267716534,
                    "duration": 0.6000000000000014
                },
                {
                    "name": "A3",
                    "midi": 57,
                    "time": 48.89999999999996,
                    "velocity": 0.29133858267716534,
                    "duration": 0.6000000000000014
                },
                {
                    "name": "G3",
                    "midi": 55,
                    "time": 49.499999999999964,
                    "velocity": 0.33070866141732286,
                    "duration": 0.29999999999999716
                },
                {
                    "name": "G2",
                    "midi": 43,
                    "time": 49.79999999999996,
                    "velocity": 0.3464566929133858,
                    "duration": 0.29999999999999716
                },
                {
                    "name": "A2",
                    "midi": 45,
                    "time": 50.09999999999996,
                    "velocity": 0.2992125984251969,
                    "duration": 0.29999999999999716
                },
                {
                    "name": "A#1",
                    "midi": 34,
                    "time": 50.399999999999956,
                    "velocity": 0.33070866141732286,
                    "duration": 0.6000000000000014
                },
                {
                    "name": "F3",
                    "midi": 53,
                    "time": 50.99999999999996,
                    "velocity": 0.1889763779527559,
                    "duration": 1.8000000000000043
                },
                {
                    "name": "D4",
                    "midi": 62,
                    "time": 50.99999999999996,
                    "velocity": 0.1889763779527559,
                    "duration": 1.8000000000000043
                },
                {
                    "name": "G3",
                    "midi": 55,
                    "time": 53.09999999999996,
                    "velocity": 0.2204724409448819,
                    "duration": 0.29999999999999716
                },
                {
                    "name": "D4",
                    "midi": 62,
                    "time": 53.09999999999996,
                    "velocity": 0.2204724409448819,
                    "duration": 0.29999999999999716
                },
                {
                    "name": "C#4",
                    "midi": 61,
                    "time": 53.399999999999956,
                    "velocity": 0.2125984251968504,
                    "duration": 0.30000000000000426
                },
                {
                    "name": "A3",
                    "midi": 57,
                    "time": 53.399999999999956,
                    "velocity": 0.1968503937007874,
                    "duration": 1.5
                },
                {
                    "name": "E4",
                    "midi": 64,
                    "time": 53.69999999999996,
                    "velocity": 0.2283464566929134,
                    "duration": 0.29999999999999716
                },
                {
                    "name": "A4",
                    "midi": 69,
                    "time": 53.99999999999996,
                    "velocity": 0.23622047244094488,
                    "duration": 2.1000000000000014
                },
                {
                    "name": "C#4",
                    "midi": 61,
                    "time": 54.899999999999956,
                    "velocity": 0.25984251968503935,
                    "duration": 0.29999999999999716
                },
                {
                    "name": "D4",
                    "midi": 62,
                    "time": 55.19999999999995,
                    "velocity": 0.3228346456692913,
                    "duration": 0.9000000000000057
                },
                {
                    "name": "C#4",
                    "midi": 61,
                    "time": 56.09999999999996,
                    "velocity": 0.2440944881889764,
                    "duration": 0.29999999999999716
                },
                {
                    "name": "G3",
                    "midi": 55,
                    "time": 56.09999999999996,
                    "velocity": 0.2440944881889764,
                    "duration": 0.29999999999999716
                },
                {
                    "name": "A3",
                    "midi": 57,
                    "time": 56.399999999999956,
                    "velocity": 0.29133858267716534,
                    "duration": 0.9000000000000057
                },
                {
                    "name": "D4",
                    "midi": 62,
                    "time": 56.399999999999956,
                    "velocity": 0.29133858267716534,
                    "duration": 0.9000000000000057
                },
                {
                    "name": "A#3",
                    "midi": 58,
                    "time": 57.29999999999996,
                    "velocity": 0.2283464566929134,
                    "duration": 0.29999999999999716
                },
                {
                    "name": "A3",
                    "midi": 57,
                    "time": 57.59999999999996,
                    "velocity": 0.2677165354330709,
                    "duration": 1.1999999999999886
                },
                {
                    "name": "D4",
                    "midi": 62,
                    "time": 58.19999999999995,
                    "velocity": 0.29133858267716534,
                    "duration": 0.29999999999999716
                },
                {
                    "name": "C#4",
                    "midi": 61,
                    "time": 58.49999999999995,
                    "velocity": 0.2440944881889764,
                    "duration": 0.29999999999999716
                },
                {
                    "name": "E4",
                    "midi": 64,
                    "time": 58.49999999999995,
                    "velocity": 0.2440944881889764,
                    "duration": 0.29999999999999716
                },
                {
                    "name": "D4",
                    "midi": 62,
                    "time": 58.79999999999995,
                    "velocity": 0.28346456692913385,
                    "duration": 0.5999999999999943
                },
                {
                    "name": "A3",
                    "midi": 57,
                    "time": 58.79999999999995,
                    "velocity": 0.23622047244094488,
                    "duration": 0.29999999999999716
                },
                {
                    "name": "A#3",
                    "midi": 58,
                    "time": 59.099999999999945,
                    "velocity": 0.23622047244094488,
                    "duration": 0.5999999999999943
                },
                {
                    "name": "C4",
                    "midi": 60,
                    "time": 59.39999999999994,
                    "velocity": 0.23622047244094488,
                    "duration": 0.29999999999999716
                },
                {
                    "name": "C3",
                    "midi": 48,
                    "time": 59.69999999999994,
                    "velocity": 0.25196850393700787,
                    "duration": 0.29999999999999716
                },
                {
                    "name": "F2",
                    "midi": 41,
                    "time": 59.999999999999936,
                    "velocity": 0.29133858267716534,
                    "duration": 3.000000000000007
                },
                {
                    "name": "C3",
                    "midi": 48,
                    "time": 60.59999999999994,
                    "velocity": 0.14960629921259844,
                    "duration": 2.4000000000000057
                },
                {
                    "name": "A3",
                    "midi": 57,
                    "time": 60.59999999999994,
                    "velocity": 0.14960629921259844,
                    "duration": 2.4000000000000057
                },
                {
                    "name": "A#2",
                    "midi": 46,
                    "time": 62.84999999999994,
                    "velocity": 0.2125984251968504,
                    "duration": 0.08750000000000568
                },
                {
                    "name": "F3",
                    "midi": 53,
                    "time": 62.92499999999994,
                    "velocity": 0.2440944881889764,
                    "duration": 1.875
                },
                {
                    "name": "D4",
                    "midi": 62,
                    "time": 63.012499999999946,
                    "velocity": 0.2755905511811024,
                    "duration": 1.2000000000000028
                },
                {
                    "name": "C4",
                    "midi": 60,
                    "time": 64.19999999999995,
                    "velocity": 0.2283464566929134,
                    "duration": 0.29999999999999716
                },
                {
                    "name": "A#3",
                    "midi": 58,
                    "time": 64.49999999999994,
                    "velocity": 0.2125984251968504,
                    "duration": 0.29999999999999716
                },
                {
                    "name": "C3",
                    "midi": 48,
                    "time": 64.79999999999994,
                    "velocity": 0.2283464566929134,
                    "duration": 0.6000000000000085
                },
                {
                    "name": "A3",
                    "midi": 57,
                    "time": 64.79999999999994,
                    "velocity": 0.2283464566929134,
                    "duration": 0.6000000000000085
                },
                {
                    "name": "A#3",
                    "midi": 58,
                    "time": 65.39999999999995,
                    "velocity": 0.25984251968503935,
                    "duration": 0.29999999999999716
                },
                {
                    "name": "C3",
                    "midi": 48,
                    "time": 65.39999999999995,
                    "velocity": 0.2677165354330709,
                    "duration": 1.1999999999999886
                },
                {
                    "name": "A3",
                    "midi": 57,
                    "time": 65.69999999999995,
                    "velocity": 0.25984251968503935,
                    "duration": 0.29999999999999716
                },
                {
                    "name": "G3",
                    "midi": 55,
                    "time": 65.99999999999994,
                    "velocity": 0.28346456692913385,
                    "duration": 0.5999999999999943
                },
                {
                    "name": "A2",
                    "midi": 45,
                    "time": 66.59999999999994,
                    "velocity": 0.25196850393700787,
                    "duration": 0.29999999999999716
                },
                {
                    "name": "F3",
                    "midi": 53,
                    "time": 66.59999999999994,
                    "velocity": 0.25196850393700787,
                    "duration": 0.29999999999999716
                },
                {
                    "name": "C3",
                    "midi": 48,
                    "time": 66.89999999999993,
                    "velocity": 0.2755905511811024,
                    "duration": 0.29999999999999716
                },
                {
                    "name": "G3",
                    "midi": 55,
                    "time": 66.89999999999993,
                    "velocity": 0.2755905511811024,
                    "duration": 0.29999999999999716
                },
                {
                    "name": "F3",
                    "midi": 53,
                    "time": 67.19999999999993,
                    "velocity": 0.29133858267716534,
                    "duration": 0.5999999999999943
                },
                {
                    "name": "A3",
                    "midi": 57,
                    "time": 67.19999999999993,
                    "velocity": 0.29133858267716534,
                    "duration": 0.5999999999999943
                },
                {
                    "name": "C3",
                    "midi": 48,
                    "time": 67.79999999999993,
                    "velocity": 0.2755905511811024,
                    "duration": 0.30000000000001137
                },
                {
                    "name": "G3",
                    "midi": 55,
                    "time": 67.79999999999993,
                    "velocity": 0.2755905511811024,
                    "duration": 1.2000000000000028
                },
                {
                    "name": "D3",
                    "midi": 50,
                    "time": 68.09999999999994,
                    "velocity": 0.3543307086614173,
                    "duration": 0.29999999999999716
                },
                {
                    "name": "C3",
                    "midi": 48,
                    "time": 68.39999999999993,
                    "velocity": 0.33070866141732286,
                    "duration": 0.29999999999999716
                },
                {
                    "name": "A#2",
                    "midi": 46,
                    "time": 68.69999999999993,
                    "velocity": 0.33070866141732286,
                    "duration": 0.29999999999999716
                },
                {
                    "name": "G2",
                    "midi": 43,
                    "time": 68.99999999999993,
                    "velocity": 0.33858267716535434,
                    "duration": 0.29999999999999716
                },
                {
                    "name": "A2",
                    "midi": 45,
                    "time": 69.29999999999993,
                    "velocity": 0.33858267716535434,
                    "duration": 0.29999999999999716
                },
                {
                    "name": "F2",
                    "midi": 41,
                    "time": 69.59999999999992,
                    "velocity": 0.3228346456692913,
                    "duration": 3
                },
                {
                    "name": "C3",
                    "midi": 48,
                    "time": 70.19999999999992,
                    "velocity": 0.14960629921259844,
                    "duration": 2.4000000000000057
                },
                {
                    "name": "A3",
                    "midi": 57,
                    "time": 70.19999999999992,
                    "velocity": 0.14960629921259844,
                    "duration": 2.4000000000000057
                },
                {
                    "name": "G2",
                    "midi": 43,
                    "time": 72.59999999999992,
                    "velocity": 0.2047244094488189,
                    "duration": 1.7999999999999972
                },
                {
                    "name": "B2",
                    "midi": 47,
                    "time": 72.59999999999992,
                    "velocity": 0.2047244094488189,
                    "duration": 1.7999999999999972
                },
                {
                    "name": "B3",
                    "midi": 59,
                    "time": 72.59999999999992,
                    "velocity": 0.2047244094488189,
                    "duration": 1.7999999999999972
                },
                {
                    "name": "A3",
                    "midi": 57,
                    "time": 74.39999999999992,
                    "velocity": 0.2283464566929134,
                    "duration": 0.5999999999999943
                },
                {
                    "name": "C3",
                    "midi": 48,
                    "time": 74.39999999999992,
                    "velocity": 0.2283464566929134,
                    "duration": 0.5999999999999943
                },
                {
                    "name": "C4",
                    "midi": 60,
                    "time": 74.39999999999992,
                    "velocity": 0.2283464566929134,
                    "duration": 0.5999999999999943
                },
                {
                    "name": "A#3",
                    "midi": 58,
                    "time": 74.99999999999991,
                    "velocity": 0.2283464566929134,
                    "duration": 0.30000000000001137
                },
                {
                    "name": "C4",
                    "midi": 60,
                    "time": 74.99999999999991,
                    "velocity": 0.2283464566929134,
                    "duration": 1.2000000000000028
                },
                {
                    "name": "C3",
                    "midi": 48,
                    "time": 74.99999999999991,
                    "velocity": 0.2283464566929134,
                    "duration": 1.2000000000000028
                },
                {
                    "name": "A3",
                    "midi": 57,
                    "time": 75.29999999999993,
                    "velocity": 0.2283464566929134,
                    "duration": 0.29999999999999716
                },
                {
                    "name": "G3",
                    "midi": 55,
                    "time": 75.59999999999992,
                    "velocity": 0.2283464566929134,
                    "duration": 0.5999999999999943
                },
                {
                    "name": "A#2",
                    "midi": 46,
                    "time": 76.19999999999992,
                    "velocity": 0.2125984251968504,
                    "duration": 0.29999999999999716
                },
                {
                    "name": "G3",
                    "midi": 55,
                    "time": 76.19999999999992,
                    "velocity": 0.2125984251968504,
                    "duration": 0.29999999999999716
                },
                {
                    "name": "D3",
                    "midi": 50,
                    "time": 76.49999999999991,
                    "velocity": 0.2125984251968504,
                    "duration": 0.29999999999999716
                },
                {
                    "name": "A3",
                    "midi": 57,
                    "time": 76.49999999999991,
                    "velocity": 0.2125984251968504,
                    "duration": 0.29999999999999716
                },
                {
                    "name": "A#3",
                    "midi": 58,
                    "time": 76.79999999999991,
                    "velocity": 0.25196850393700787,
                    "duration": 0.6000000000000085
                },
                {
                    "name": "G3",
                    "midi": 55,
                    "time": 76.79999999999991,
                    "velocity": 0.25196850393700787,
                    "duration": 0.6000000000000085
                },
                {
                    "name": "C3",
                    "midi": 48,
                    "time": 77.39999999999992,
                    "velocity": 0.2047244094488189,
                    "duration": 1.7999999999999972
                },
                {
                    "name": "G3",
                    "midi": 55,
                    "time": 77.39999999999992,
                    "velocity": 0.2047244094488189,
                    "duration": 0.5999999999999943
                },
                {
                    "name": "C2",
                    "midi": 36,
                    "time": 77.69999999999992,
                    "velocity": 0.2047244094488189,
                    "duration": 0.29999999999999716
                },
                {
                    "name": "F2",
                    "midi": 41,
                    "time": 77.99999999999991,
                    "velocity": 0.2047244094488189,
                    "duration": 1.2000000000000028
                }
            ],
            "controlChanges": {
                "7": [
                    {
                        "number": 7,
                        "time": 0,
                        "value": 0.7874015748031497
                    }
                ],
                "10": [
                    {
                        "number": 10,
                        "time": 0,
                        "value": 0.5039370078740157
                    }
                ],
                "64": [
                    {
                        "number": 64,
                        "time": 0,
                        "value": 0
                    },
                    {
                        "number": 64,
                        "time": 1.86625,
                        "value": 1
                    },
                    {
                        "number": 64,
                        "time": 3.91,
                        "value": 0
                    },
                    {
                        "number": 64,
                        "time": 4.2700000000000005,
                        "value": 1
                    },
                    {
                        "number": 64,
                        "time": 5.255,
                        "value": 0
                    },
                    {
                        "number": 64,
                        "time": 5.31625,
                        "value": 1
                    },
                    {
                        "number": 64,
                        "time": 6.612500000000001,
                        "value": 0
                    },
                    {
                        "number": 64,
                        "time": 7.2525,
                        "value": 1
                    },
                    {
                        "number": 64,
                        "time": 7.807500000000001,
                        "value": 0
                    },
                    {
                        "number": 64,
                        "time": 8.558750000000002,
                        "value": 1
                    },
                    {
                        "number": 64,
                        "time": 9.003750000000002,
                        "value": 0
                    },
                    {
                        "number": 64,
                        "time": 9.750000000000004,
                        "value": 1
                    },
                    {
                        "number": 64,
                        "time": 10.206250000000002,
                        "value": 0
                    },
                    {
                        "number": 64,
                        "time": 12.247500000000006,
                        "value": 1
                    },
                    {
                        "number": 64,
                        "time": 13.512500000000005,
                        "value": 0
                    },
                    {
                        "number": 64,
                        "time": 14.100000000000005,
                        "value": 1
                    },
                    {
                        "number": 64,
                        "time": 14.852500000000004,
                        "value": 0
                    },
                    {
                        "number": 64,
                        "time": 14.895000000000005,
                        "value": 1
                    },
                    {
                        "number": 64,
                        "time": 16.210000000000004,
                        "value": 0
                    },
                    {
                        "number": 64,
                        "time": 16.875000000000004,
                        "value": 1
                    },
                    {
                        "number": 64,
                        "time": 17.418750000000003,
                        "value": 0
                    },
                    {
                        "number": 64,
                        "time": 18.171250000000004,
                        "value": 1
                    },
                    {
                        "number": 64,
                        "time": 18.616250000000004,
                        "value": 0
                    },
                    {
                        "number": 64,
                        "time": 19.262500000000006,
                        "value": 1
                    },
                    {
                        "number": 64,
                        "time": 19.803750000000008,
                        "value": 0
                    },
                    {
                        "number": 64,
                        "time": 21.77625000000001,
                        "value": 1
                    },
                    {
                        "number": 64,
                        "time": 23.10250000000001,
                        "value": 0
                    },
                    {
                        "number": 64,
                        "time": 23.52375000000001,
                        "value": 1
                    },
                    {
                        "number": 64,
                        "time": 24.47750000000001,
                        "value": 0
                    },
                    {
                        "number": 64,
                        "time": 24.52125000000001,
                        "value": 1
                    },
                    {
                        "number": 64,
                        "time": 25.817500000000006,
                        "value": 0
                    },
                    {
                        "number": 64,
                        "time": 26.550000000000004,
                        "value": 1
                    },
                    {
                        "number": 64,
                        "time": 27.008750000000003,
                        "value": 0
                    },
                    {
                        "number": 64,
                        "time": 27.723750000000006,
                        "value": 1
                    },
                    {
                        "number": 64,
                        "time": 28.205000000000005,
                        "value": 0
                    },
                    {
                        "number": 64,
                        "time": 28.92375000000001,
                        "value": 1
                    },
                    {
                        "number": 64,
                        "time": 29.417500000000008,
                        "value": 0
                    },
                    {
                        "number": 64,
                        "time": 31.37625000000001,
                        "value": 1
                    },
                    {
                        "number": 64,
                        "time": 32.70375000000001,
                        "value": 0
                    },
                    {
                        "number": 64,
                        "time": 33.05250000000001,
                        "value": 1
                    },
                    {
                        "number": 64,
                        "time": 34.06000000000001,
                        "value": 0
                    },
                    {
                        "number": 64,
                        "time": 34.12500000000001,
                        "value": 1
                    },
                    {
                        "number": 64,
                        "time": 35.12125000000001,
                        "value": 0
                    },
                    {
                        "number": 64,
                        "time": 36.150000000000006,
                        "value": 1
                    },
                    {
                        "number": 64,
                        "time": 36.61000000000001,
                        "value": 0
                    },
                    {
                        "number": 64,
                        "time": 37.32875,
                        "value": 1
                    },
                    {
                        "number": 64,
                        "time": 37.81,
                        "value": 0
                    },
                    {
                        "number": 64,
                        "time": 38.55,
                        "value": 1
                    },
                    {
                        "number": 64,
                        "time": 39.01499999999999,
                        "value": 0
                    },
                    {
                        "number": 64,
                        "time": 41.012499999999974,
                        "value": 1
                    },
                    {
                        "number": 64,
                        "time": 42.30374999999998,
                        "value": 0
                    },
                    {
                        "number": 64,
                        "time": 42.86499999999998,
                        "value": 1
                    },
                    {
                        "number": 64,
                        "time": 43.19999999999998,
                        "value": 0
                    },
                    {
                        "number": 64,
                        "time": 43.414999999999985,
                        "value": 1
                    },
                    {
                        "number": 64,
                        "time": 43.80874999999998,
                        "value": 0
                    },
                    {
                        "number": 64,
                        "time": 45.771249999999974,
                        "value": 1
                    },
                    {
                        "number": 64,
                        "time": 46.222499999999975,
                        "value": 0
                    },
                    {
                        "number": 64,
                        "time": 46.971249999999976,
                        "value": 1
                    },
                    {
                        "number": 64,
                        "time": 47.417499999999976,
                        "value": 0
                    },
                    {
                        "number": 64,
                        "time": 48.14999999999997,
                        "value": 1
                    },
                    {
                        "number": 64,
                        "time": 48.602499999999964,
                        "value": 0
                    },
                    {
                        "number": 64,
                        "time": 50.57624999999996,
                        "value": 1
                    },
                    {
                        "number": 64,
                        "time": 51.90374999999996,
                        "value": 0
                    },
                    {
                        "number": 64,
                        "time": 52.32374999999996,
                        "value": 1
                    },
                    {
                        "number": 64,
                        "time": 52.79999999999996,
                        "value": 0
                    },
                    {
                        "number": 64,
                        "time": 52.97124999999996,
                        "value": 1
                    },
                    {
                        "number": 64,
                        "time": 53.41374999999996,
                        "value": 0
                    },
                    {
                        "number": 64,
                        "time": 55.274999999999956,
                        "value": 1
                    },
                    {
                        "number": 64,
                        "time": 55.81874999999996,
                        "value": 0
                    },
                    {
                        "number": 64,
                        "time": 56.47499999999996,
                        "value": 1
                    },
                    {
                        "number": 64,
                        "time": 57.01374999999996,
                        "value": 0
                    },
                    {
                        "number": 64,
                        "time": 57.697499999999955,
                        "value": 1
                    },
                    {
                        "number": 64,
                        "time": 58.20874999999995,
                        "value": 0
                    },
                    {
                        "number": 64,
                        "time": 59.85874999999994,
                        "value": 1
                    },
                    {
                        "number": 64,
                        "time": 61.50249999999994,
                        "value": 0
                    },
                    {
                        "number": 64,
                        "time": 61.81749999999994,
                        "value": 1
                    },
                    {
                        "number": 64,
                        "time": 62.39999999999994,
                        "value": 0
                    },
                    {
                        "number": 64,
                        "time": 62.44749999999994,
                        "value": 1
                    },
                    {
                        "number": 64,
                        "time": 62.84624999999994,
                        "value": 0
                    },
                    {
                        "number": 64,
                        "time": 62.91249999999994,
                        "value": 1
                    },
                    {
                        "number": 64,
                        "time": 64.21874999999994,
                        "value": 0
                    },
                    {
                        "number": 64,
                        "time": 64.88874999999994,
                        "value": 1
                    },
                    {
                        "number": 64,
                        "time": 65.41749999999995,
                        "value": 0
                    },
                    {
                        "number": 64,
                        "time": 66.15874999999994,
                        "value": 1
                    },
                    {
                        "number": 64,
                        "time": 66.60499999999993,
                        "value": 0
                    },
                    {
                        "number": 64,
                        "time": 67.32374999999993,
                        "value": 1
                    },
                    {
                        "number": 64,
                        "time": 67.80874999999993,
                        "value": 0
                    },
                    {
                        "number": 64,
                        "time": 69.75874999999992,
                        "value": 1
                    },
                    {
                        "number": 64,
                        "time": 71.11749999999992,
                        "value": 0
                    },
                    {
                        "number": 64,
                        "time": 71.55874999999992,
                        "value": 1
                    },
                    {
                        "number": 64,
                        "time": 72.61249999999993,
                        "value": 0
                    },
                    {
                        "number": 64,
                        "time": 72.82999999999993,
                        "value": 1
                    },
                    {
                        "number": 64,
                        "time": 73.50374999999993,
                        "value": 0
                    },
                    {
                        "number": 64,
                        "time": 73.97624999999992,
                        "value": 1
                    },
                    {
                        "number": 64,
                        "time": 74.39999999999992,
                        "value": 0
                    },
                    {
                        "number": 64,
                        "time": 74.52874999999992,
                        "value": 1
                    },
                    {
                        "number": 64,
                        "time": 75.00999999999992,
                        "value": 0
                    },
                    {
                        "number": 64,
                        "time": 75.78624999999992,
                        "value": 1
                    },
                    {
                        "number": 64,
                        "time": 76.21624999999992,
                        "value": 0
                    },
                    {
                        "number": 64,
                        "time": 76.90624999999991,
                        "value": 1
                    },
                    {
                        "number": 64,
                        "time": 77.41749999999992,
                        "value": 0
                    },
                    {
                        "number": 64,
                        "time": 78.12374999999992,
                        "value": 1
                    },
                    {
                        "number": 64,
                        "time": 81.19999999999992,
                        "value": 0
                    }
                ],
                "91": [
                    {
                        "number": 91,
                        "time": 1.79875,
                        "value": 1
                    }
                ]
            },
            "id": 2,
            "name": "Piano left",
            "instrumentNumber": 0,
            "instrument": "acoustic grand piano",
            "instrumentFamily": "piano",
            "channelNumber": 0,
            "isPercussion": false
        },
        {
            "startTime": 0,
            "duration": 0,
            "length": 0,
            "notes": [],
            "controlChanges": {},
            "id": 3,
            "name": "Schumann: Scenes from Childhood Op. 15"
        },
        {
            "startTime": 0,
            "duration": 0,
            "length": 0,
            "notes": [],
            "controlChanges": {},
            "id": 4,
            "name": "Copyright © 1997 by Bernd Krueger"
        },
        {
            "startTime": 0,
            "duration": 0,
            "length": 0,
            "notes": [],
            "controlChanges": {},
            "id": 5,
            "name": "http://www.piano-midi.de"
        },
        {
            "startTime": 0,
            "duration": 0,
            "length": 0,
            "notes": [],
            "controlChanges": {},
            "id": 6,
            "name": "Edition:2014-03-26"
        }
    ]
}