{
    "header": {
        "PPQ": 48,
        "bpm": 120,
        "timeSignature": [
            2,
            4
        ],
        "name": "[SC55]Jv[XæêÔz·²^pKj[j@      by "
    },
    "startTime": 0,
    "duration": 77.7916666666667,
    "tracks": [
        {
            "startTime": 0,
            "duration": 0,
            "length": 0,
            "notes": [],
            "controlChanges": {},
            "id": 0,
            "name": "[SC55]Jv[XæêÔz·²^pKj[j@      by "
        },
        {
            "startTime": 1.5,
            "duration": 77.54166666666677,
            "length": 250,
            "notes": [
                {
                    "name": "E4",
                    "midi": 64,
                    "time": 1.5,
                    "velocity": 0.9448818897637795,
                    "duration": 0.04166666666666674
                },
                {
                    "name": "E4",
                    "midi": 64,
                    "time": 1.9375,
                    "velocity": 0.9448818897637795,
                    "duration": 0.04166666666666674
                },
                {
                    "name": "D#4",
                    "midi": 63,
                    "time": 2,
                    "velocity": 0.9448818897637795,
                    "duration": 0.04166666666666652
                },
                {
                    "name": "D#4",
                    "midi": 63,
                    "time": 2.4375,
                    "velocity": 0.9448818897637795,
                    "duration": 0.04166666666666652
                },
                {
                    "name": "E4",
                    "midi": 64,
                    "time": 2.5,
                    "velocity": 0.9448818897637795,
                    "duration": 0.04166666666666652
                },
                {
                    "name": "E4",
                    "midi": 64,
                    "time": 2.9375,
                    "velocity": 0.9448818897637795,
                    "duration": 0.04166666666666652
                },
                {
                    "name": "B3",
                    "midi": 59,
                    "time": 3,
                    "velocity": 0.9448818897637795,
                    "duration": 0.04166666666666652
                },
                {
                    "name": "B3",
                    "midi": 59,
                    "time": 3.4375,
                    "velocity": 0.9448818897637795,
                    "duration": 0.04166666666666652
                },
                {
                    "name": "E4",
                    "midi": 64,
                    "time": 3.5,
                    "velocity": 0.9448818897637795,
                    "duration": 0.04166666666666652
                },
                {
                    "name": "E4",
                    "midi": 64,
                    "time": 3.9375,
                    "velocity": 0.9448818897637795,
                    "duration": 0.04166666666666652
                },
                {
                    "name": "D#4",
                    "midi": 63,
                    "time": 4,
                    "velocity": 0.9448818897637795,
                    "duration": 0.04166666666666696
                },
                {
                    "name": "D#4",
                    "midi": 63,
                    "time": 4.4375,
                    "velocity": 0.9448818897637795,
                    "duration": 0.04166666666666696
                },
                {
                    "name": "E4",
                    "midi": 64,
                    "time": 4.5,
                    "velocity": 0.9448818897637795,
                    "duration": 0.04166666666666696
                },
                {
                    "name": "E4",
                    "midi": 64,
                    "time": 4.9375,
                    "velocity": 0.9448818897637795,
                    "duration": 0.04166666666666696
                },
                {
                    "name": "B3",
                    "midi": 59,
                    "time": 5,
                    "velocity": 0.9448818897637795,
                    "duration": 0.04166666666666696
                },
                {
                    "name": "B3",
                    "midi": 59,
                    "time": 5.4375,
                    "velocity": 0.9448818897637795,
                    "duration": 0.04166666666666696
                },
                {
                    "name": "G#3",
                    "midi": 56,
                    "time": 5.5,
                    "velocity": 0.9448818897637795,
                    "duration": 0.04166666666666696
                },
                {
                    "name": "G#3",
                    "midi": 56,
                    "time": 5.9375,
                    "velocity": 0.9448818897637795,
                    "duration": 0.04166666666666696
                },
                {
                    "name": "A3",
                    "midi": 57,
                    "time": 6,
                    "velocity": 0.9448818897637795,
                    "duration": 0.04166666666666696
                },
                {
                    "name": "A#3",
                    "midi": 58,
                    "time": 6.5,
                    "velocity": 0.9448818897637795,
                    "duration": 0.04166666666666696
                },
                {
                    "name": "A#3",
                    "midi": 58,
                    "time": 6.9375,
                    "velocity": 0.9448818897637795,
                    "duration": 0.04166666666666696
                },
                {
                    "name": "B3",
                    "midi": 59,
                    "time": 7,
                    "velocity": 0.9448818897637795,
                    "duration": 0.04166666666666696
                },
                {
                    "name": "D#4",
                    "midi": 63,
                    "time": 7.5,
                    "velocity": 0.9448818897637795,
                    "duration": 0.04166666666666696
                },
                {
                    "name": "D#4",
                    "midi": 63,
                    "time": 7.9375,
                    "velocity": 0.9448818897637795,
                    "duration": 0.04166666666666696
                },
                {
                    "name": "E4",
                    "midi": 64,
                    "time": 8,
                    "velocity": 0.9448818897637795,
                    "duration": 0.041666666666666075
                },
                {
                    "name": "E4",
                    "midi": 64,
                    "time": 8.4375,
                    "velocity": 0.9448818897637795,
                    "duration": 0.041666666666666075
                },
                {
                    "name": "F#4",
                    "midi": 66,
                    "time": 8.5,
                    "velocity": 0.9448818897637795,
                    "duration": 0.041666666666666075
                },
                {
                    "name": "F#4",
                    "midi": 66,
                    "time": 8.9375,
                    "velocity": 0.9448818897637795,
                    "duration": 0.041666666666666075
                },
                {
                    "name": "G#4",
                    "midi": 68,
                    "time": 9,
                    "velocity": 0.9448818897637795,
                    "duration": 0.041666666666666075
                },
                {
                    "name": "G#4",
                    "midi": 68,
                    "time": 9.4375,
                    "velocity": 0.9448818897637795,
                    "duration": 0.041666666666666075
                },
                {
                    "name": "A4",
                    "midi": 69,
                    "time": 9.5,
                    "velocity": 0.9448818897637795,
                    "duration": 0.041666666666666075
                },
                {
                    "name": "A4",
                    "midi": 69,
                    "time": 9.9375,
                    "velocity": 0.9448818897637795,
                    "duration": 0.041666666666666075
                },
                {
                    "name": "A#4",
                    "midi": 70,
                    "time": 10,
                    "velocity": 0.9448818897637795,
                    "duration": 0.041666666666666075
                },
                {
                    "name": "A#4",
                    "midi": 70,
                    "time": 10.4375,
                    "velocity": 0.9448818897637795,
                    "duration": 0.041666666666666075
                },
                {
                    "name": "C#5",
                    "midi": 73,
                    "time": 10.499999999999998,
                    "velocity": 0.9448818897637795,
                    "duration": 0.041666666666666075
                },
                {
                    "name": "C#5",
                    "midi": 73,
                    "time": 10.937499999999998,
                    "velocity": 0.9448818897637795,
                    "duration": 0.041666666666666075
                },
                {
                    "name": "A#4",
                    "midi": 70,
                    "time": 10.999999999999998,
                    "velocity": 0.9448818897637795,
                    "duration": 0.041666666666666075
                },
                {
                    "name": "A#4",
                    "midi": 70,
                    "time": 11.437499999999998,
                    "velocity": 0.9448818897637795,
                    "duration": 0.041666666666666075
                },
                {
                    "name": "G4",
                    "midi": 67,
                    "time": 11.499999999999998,
                    "velocity": 0.9448818897637795,
                    "duration": 0.041666666666666075
                },
                {
                    "name": "G4",
                    "midi": 67,
                    "time": 11.937499999999998,
                    "velocity": 0.9448818897637795,
                    "duration": 0.041666666666666075
                },
                {
                    "name": "E4",
                    "midi": 64,
                    "time": 11.999999999999998,
                    "velocity": 0.9448818897637795,
                    "duration": 0.041666666666666075
                },
                {
                    "name": "E4",
                    "midi": 64,
                    "time": 12.437499999999998,
                    "velocity": 0.9448818897637795,
                    "duration": 0.041666666666666075
                },
                {
                    "name": "C#4",
                    "midi": 61,
                    "time": 12.499999999999998,
                    "velocity": 0.9448818897637795,
                    "duration": 0.041666666666666075
                },
                {
                    "name": "C#4",
                    "midi": 61,
                    "time": 12.937499999999998,
                    "velocity": 0.9448818897637795,
                    "duration": 0.041666666666666075
                },
                {
                    "name": "B3",
                    "midi": 59,
                    "time": 12.999999999999996,
                    "velocity": 0.9448818897637795,
                    "duration": 0.041666666666666075
                },
                {
                    "name": "A3",
                    "midi": 57,
                    "time": 13.499999999999996,
                    "velocity": 0.9448818897637795,
                    "duration": 0.041666666666666075
                },
                {
                    "name": "A3",
                    "midi": 57,
                    "time": 13.937499999999996,
                    "velocity": 0.9448818897637795,
                    "duration": 0.041666666666666075
                },
                {
                    "name": "G#3",
                    "midi": 56,
                    "time": 13.999999999999996,
                    "velocity": 0.9448818897637795,
                    "duration": 0.041666666666666075
                },
                {
                    "name": "A3",
                    "midi": 57,
                    "time": 14.499999999999996,
                    "velocity": 0.9448818897637795,
                    "duration": 0.041666666666666075
                },
                {
                    "name": "A3",
                    "midi": 57,
                    "time": 14.937499999999996,
                    "velocity": 0.9448818897637795,
                    "duration": 0.041666666666666075
                },
                {
                    "name": "A3",
                    "midi": 57,
                    "time": 14.999999999999996,
                    "velocity": 0.9448818897637795,
                    "duration": 0.041666666666666075
                },
                {
                    "name": "A3",
                    "midi": 57,
                    "time": 15.499999999999996,
                    "velocity": 0.9448818897637795,
                    "duration": 0.08333333333333393
                },
                {
                    "name": "B3",
                    "midi": 59,
                    "time": 15.749999999999996,
                    "velocity": 0.9448818897637795,
                    "duration": 0.08333333333333393
                },
                {
                    "name": "C#4",
                    "midi": 61,
                    "time": 15.999999999999996,
                    "velocity": 0.9448818897637795,
                    "duration": 0.08333333333333215
                },
                {
                    "name": "C4",
                    "midi": 60,
                    "time": 16.249999999999996,
                    "velocity": 0.9448818897637795,
                    "duration": 0.08333333333333215
                },
                {
                    "name": "B3",
                    "midi": 59,
                    "time": 16.499999999999996,
                    "velocity": 0.9448818897637795,
                    "duration": 0.08333333333333215
                },
                {
                    "name": "B3",
                    "midi": 59,
                    "time": 16.749999999999996,
                    "velocity": 0.9448818897637795,
                    "duration": 0.08333333333333215
                },
                {
                    "name": "E4",
                    "midi": 64,
                    "time": 16.999999999999996,
                    "velocity": 0.9448818897637795,
                    "duration": 0.2291666666666714
                },
                {
                    "name": "E4",
                    "midi": 64,
                    "time": 17.625,
                    "velocity": 0.9448818897637795,
                    "duration": 0.04166666666666785
                },
                {
                    "name": "E4",
                    "midi": 64,
                    "time": 18.0625,
                    "velocity": 0.9448818897637795,
                    "duration": 0.04166666666666785
                },
                {
                    "name": "D#4",
                    "midi": 63,
                    "time": 18.125,
                    "velocity": 0.9448818897637795,
                    "duration": 0.04166666666666785
                },
                {
                    "name": "D#4",
                    "midi": 63,
                    "time": 18.5625,
                    "velocity": 0.9448818897637795,
                    "duration": 0.04166666666666785
                },
                {
                    "name": "E4",
                    "midi": 64,
                    "time": 18.625,
                    "velocity": 0.9448818897637795,
                    "duration": 0.04166666666666785
                },
                {
                    "name": "E4",
                    "midi": 64,
                    "time": 19.0625,
                    "velocity": 0.9448818897637795,
                    "duration": 0.04166666666666785
                },
                {
                    "name": "B3",
                    "midi": 59,
                    "time": 19.125,
                    "velocity": 0.9448818897637795,
                    "duration": 0.04166666666666785
                },
                {
                    "name": "B3",
                    "midi": 59,
                    "time": 19.5625,
                    "velocity": 0.9448818897637795,
                    "duration": 0.04166666666666785
                },
                {
                    "name": "E4",
                    "midi": 64,
                    "time": 19.625,
                    "velocity": 0.9448818897637795,
                    "duration": 0.04166666666666785
                },
                {
                    "name": "E4",
                    "midi": 64,
                    "time": 20.0625,
                    "velocity": 0.9448818897637795,
                    "duration": 0.04166666666666785
                },
                {
                    "name": "D#4",
                    "midi": 63,
                    "time": 20.125,
                    "velocity": 0.9448818897637795,
                    "duration": 0.04166666666666785
                },
                {
                    "name": "D#4",
                    "midi": 63,
                    "time": 20.5625,
                    "velocity": 0.9448818897637795,
                    "duration": 0.04166666666666785
                },
                {
                    "name": "E4",
                    "midi": 64,
                    "time": 20.625,
                    "velocity": 0.9448818897637795,
                    "duration": 0.04166666666666785
                },
                {
                    "name": "E4",
                    "midi": 64,
                    "time": 21.0625,
                    "velocity": 0.9448818897637795,
                    "duration": 0.04166666666666785
                },
                {
                    "name": "B3",
                    "midi": 59,
                    "time": 21.125,
                    "velocity": 0.9448818897637795,
                    "duration": 0.04166666666666785
                },
                {
                    "name": "B3",
                    "midi": 59,
                    "time": 21.5625,
                    "velocity": 0.9448818897637795,
                    "duration": 0.04166666666666785
                },
                {
                    "name": "B3",
                    "midi": 59,
                    "time": 21.625,
                    "velocity": 0.9448818897637795,
                    "duration": 0.04166666666666785
                },
                {
                    "name": "B3",
                    "midi": 59,
                    "time": 22.0625,
                    "velocity": 0.9448818897637795,
                    "duration": 0.04166666666666785
                },
                {
                    "name": "A3",
                    "midi": 57,
                    "time": 22.125,
                    "velocity": 0.9448818897637795,
                    "duration": 0.04166666666666785
                },
                {
                    "name": "A3",
                    "midi": 57,
                    "time": 22.5625,
                    "velocity": 0.9448818897637795,
                    "duration": 0.04166666666666785
                },
                {
                    "name": "A3",
                    "midi": 57,
                    "time": 22.625,
                    "velocity": 0.9448818897637795,
                    "duration": 0.04166666666666785
                },
                {
                    "name": "A3",
                    "midi": 57,
                    "time": 23.0625,
                    "velocity": 0.9448818897637795,
                    "duration": 0.04166666666666785
                },
                {
                    "name": "C4",
                    "midi": 60,
                    "time": 25.125,
                    "velocity": 0.9448818897637795,
                    "duration": 0.04166666666666785
                },
                {
                    "name": "C#4",
                    "midi": 61,
                    "time": 25.375000000000004,
                    "velocity": 0.9448818897637795,
                    "duration": 0.0833333333333357
                },
                {
                    "name": "D4",
                    "midi": 62,
                    "time": 25.625000000000007,
                    "velocity": 0.9448818897637795,
                    "duration": 0.04166666666666785
                },
                {
                    "name": "D#4",
                    "midi": 63,
                    "time": 25.875000000000007,
                    "velocity": 0.9448818897637795,
                    "duration": 0.08333333333333215
                },
                {
                    "name": "D#4",
                    "midi": 63,
                    "time": 26.125000000000007,
                    "velocity": 0.9448818897637795,
                    "duration": 0.0416666666666643
                },
                {
                    "name": "F4",
                    "midi": 65,
                    "time": 26.375000000000004,
                    "velocity": 0.9448818897637795,
                    "duration": 0.08333333333333215
                },
                {
                    "name": "G4",
                    "midi": 67,
                    "time": 26.625000000000004,
                    "velocity": 0.9448818897637795,
                    "duration": 0.08333333333333215
                },
                {
                    "name": "A4",
                    "midi": 69,
                    "time": 26.875,
                    "velocity": 0.9448818897637795,
                    "duration": 0.08333333333333215
                },
                {
                    "name": "B4",
                    "midi": 71,
                    "time": 27.125,
                    "velocity": 0.9448818897637795,
                    "duration": 0.0833333333333357
                },
                {
                    "name": "C5",
                    "midi": 72,
                    "time": 27.375000000000004,
                    "velocity": 0.9448818897637795,
                    "duration": 0.08333333333333215
                },
                {
                    "name": "C#5",
                    "midi": 73,
                    "time": 27.625,
                    "velocity": 0.9448818897637795,
                    "duration": 0.04166666666666785
                },
                {
                    "name": "C#4",
                    "midi": 61,
                    "time": 28.041666666666668,
                    "velocity": 0.9448818897637795,
                    "duration": 0.08333333333333215
                },
                {
                    "name": "G#3",
                    "midi": 56,
                    "time": 35.166666666666664,
                    "velocity": 0.9448818897637795,
                    "duration": 0.0416666666666643
                },
                {
                    "name": "G#3",
                    "midi": 56,
                    "time": 35.604166666666664,
                    "velocity": 0.9448818897637795,
                    "duration": 0.0416666666666643
                },
                {
                    "name": "G#3",
                    "midi": 56,
                    "time": 35.666666666666664,
                    "velocity": 0.9448818897637795,
                    "duration": 0.0416666666666643
                },
                {
                    "name": "G#3",
                    "midi": 56,
                    "time": 36.104166666666664,
                    "velocity": 0.9448818897637795,
                    "duration": 0.0416666666666643
                },
                {
                    "name": "G#3",
                    "midi": 56,
                    "time": 36.166666666666664,
                    "velocity": 0.9448818897637795,
                    "duration": 0.0416666666666643
                },
                {
                    "name": "A3",
                    "midi": 57,
                    "time": 37.166666666666664,
                    "velocity": 0.9448818897637795,
                    "duration": 0.0416666666666643
                },
                {
                    "name": "A3",
                    "midi": 57,
                    "time": 37.604166666666664,
                    "velocity": 0.9448818897637795,
                    "duration": 0.0416666666666643
                },
                {
                    "name": "A3",
                    "midi": 57,
                    "time": 37.666666666666664,
                    "velocity": 0.9448818897637795,
                    "duration": 0.0416666666666643
                },
                {
                    "name": "A3",
                    "midi": 57,
                    "time": 38.104166666666664,
                    "velocity": 0.9448818897637795,
                    "duration": 0.0416666666666643
                },
                {
                    "name": "A3",
                    "midi": 57,
                    "time": 38.166666666666664,
                    "velocity": 0.9448818897637795,
                    "duration": 0.0416666666666643
                },
                {
                    "name": "A#3",
                    "midi": 58,
                    "time": 39.166666666666664,
                    "velocity": 0.9448818897637795,
                    "duration": 0.0416666666666643
                },
                {
                    "name": "A#3",
                    "midi": 58,
                    "time": 39.60416666666666,
                    "velocity": 0.9448818897637795,
                    "duration": 0.0416666666666643
                },
                {
                    "name": "A#3",
                    "midi": 58,
                    "time": 39.66666666666666,
                    "velocity": 0.9448818897637795,
                    "duration": 0.0416666666666643
                },
                {
                    "name": "A#3",
                    "midi": 58,
                    "time": 40.10416666666666,
                    "velocity": 0.9448818897637795,
                    "duration": 0.0416666666666643
                },
                {
                    "name": "A#3",
                    "midi": 58,
                    "time": 40.16666666666666,
                    "velocity": 0.9448818897637795,
                    "duration": 0.0416666666666643
                },
                {
                    "name": "A#3",
                    "midi": 58,
                    "time": 40.60416666666666,
                    "velocity": 0.9448818897637795,
                    "duration": 0.0416666666666643
                },
                {
                    "name": "A#3",
                    "midi": 58,
                    "time": 40.66666666666666,
                    "velocity": 0.9448818897637795,
                    "duration": 0.0416666666666643
                },
                {
                    "name": "A#3",
                    "midi": 58,
                    "time": 41.10416666666665,
                    "velocity": 0.9448818897637795,
                    "duration": 0.0416666666666643
                },
                {
                    "name": "B3",
                    "midi": 59,
                    "time": 41.16666666666665,
                    "velocity": 0.9448818897637795,
                    "duration": 0.0416666666666643
                },
                {
                    "name": "B3",
                    "midi": 59,
                    "time": 41.60416666666664,
                    "velocity": 0.9448818897637795,
                    "duration": 0.0416666666666643
                },
                {
                    "name": "B3",
                    "midi": 59,
                    "time": 41.66666666666664,
                    "velocity": 0.9448818897637795,
                    "duration": 0.0416666666666643
                },
                {
                    "name": "B3",
                    "midi": 59,
                    "time": 42.10416666666664,
                    "velocity": 0.9448818897637795,
                    "duration": 0.0416666666666643
                },
                {
                    "name": "B3",
                    "midi": 59,
                    "time": 42.16666666666664,
                    "velocity": 0.9448818897637795,
                    "duration": 0.0416666666666643
                },
                {
                    "name": "B3",
                    "midi": 59,
                    "time": 42.604166666666636,
                    "velocity": 0.9448818897637795,
                    "duration": 0.0416666666666643
                },
                {
                    "name": "B3",
                    "midi": 59,
                    "time": 42.666666666666636,
                    "velocity": 0.9448818897637795,
                    "duration": 0.0416666666666643
                },
                {
                    "name": "B3",
                    "midi": 59,
                    "time": 43.104166666666636,
                    "velocity": 0.9448818897637795,
                    "duration": 0.0416666666666643
                },
                {
                    "name": "C4",
                    "midi": 60,
                    "time": 43.166666666666636,
                    "velocity": 0.9448818897637795,
                    "duration": 0.0416666666666643
                },
                {
                    "name": "C4",
                    "midi": 60,
                    "time": 43.604166666666636,
                    "velocity": 0.9448818897637795,
                    "duration": 0.0416666666666643
                },
                {
                    "name": "C4",
                    "midi": 60,
                    "time": 43.666666666666636,
                    "velocity": 0.9448818897637795,
                    "duration": 0.0416666666666643
                },
                {
                    "name": "C4",
                    "midi": 60,
                    "time": 44.104166666666636,
                    "velocity": 0.9448818897637795,
                    "duration": 0.0416666666666643
                },
                {
                    "name": "C4",
                    "midi": 60,
                    "time": 44.166666666666636,
                    "velocity": 0.9448818897637795,
                    "duration": 0.0416666666666643
                },
                {
                    "name": "C4",
                    "midi": 60,
                    "time": 44.604166666666636,
                    "velocity": 0.9448818897637795,
                    "duration": 0.0416666666666643
                },
                {
                    "name": "C4",
                    "midi": 60,
                    "time": 44.666666666666636,
                    "velocity": 0.9448818897637795,
                    "duration": 0.0416666666666643
                },
                {
                    "name": "C4",
                    "midi": 60,
                    "time": 45.104166666666636,
                    "velocity": 0.9448818897637795,
                    "duration": 0.0416666666666643
                },
                {
                    "name": "C#4",
                    "midi": 61,
                    "time": 45.66666666666663,
                    "velocity": 0.9448818897637795,
                    "duration": 0.0416666666666643
                },
                {
                    "name": "C#4",
                    "midi": 61,
                    "time": 46.10416666666663,
                    "velocity": 0.9448818897637795,
                    "duration": 0.0416666666666643
                },
                {
                    "name": "C4",
                    "midi": 60,
                    "time": 46.16666666666663,
                    "velocity": 0.9448818897637795,
                    "duration": 0.0416666666666643
                },
                {
                    "name": "C4",
                    "midi": 60,
                    "time": 46.60416666666663,
                    "velocity": 0.9448818897637795,
                    "duration": 0.0416666666666643
                },
                {
                    "name": "C#4",
                    "midi": 61,
                    "time": 46.66666666666663,
                    "velocity": 0.9448818897637795,
                    "duration": 0.0416666666666643
                },
                {
                    "name": "C#4",
                    "midi": 61,
                    "time": 47.10416666666663,
                    "velocity": 0.9448818897637795,
                    "duration": 0.0416666666666643
                },
                {
                    "name": "G#3",
                    "midi": 56,
                    "time": 47.16666666666663,
                    "velocity": 0.9448818897637795,
                    "duration": 0.0416666666666643
                },
                {
                    "name": "G#3",
                    "midi": 56,
                    "time": 47.60416666666663,
                    "velocity": 0.9448818897637795,
                    "duration": 0.0416666666666643
                },
                {
                    "name": "C#4",
                    "midi": 61,
                    "time": 47.66666666666663,
                    "velocity": 0.9448818897637795,
                    "duration": 0.0416666666666643
                },
                {
                    "name": "C4",
                    "midi": 60,
                    "time": 48.10416666666663,
                    "velocity": 0.9448818897637795,
                    "duration": 0.0416666666666643
                },
                {
                    "name": "C4",
                    "midi": 60,
                    "time": 48.16666666666663,
                    "velocity": 0.9448818897637795,
                    "duration": 0.0416666666666643
                },
                {
                    "name": "C4",
                    "midi": 60,
                    "time": 48.60416666666663,
                    "velocity": 0.9448818897637795,
                    "duration": 0.0416666666666643
                },
                {
                    "name": "C#4",
                    "midi": 61,
                    "time": 48.66666666666663,
                    "velocity": 0.9448818897637795,
                    "duration": 0.0416666666666643
                },
                {
                    "name": "C#4",
                    "midi": 61,
                    "time": 49.10416666666663,
                    "velocity": 0.9448818897637795,
                    "duration": 0.0416666666666643
                },
                {
                    "name": "G#3",
                    "midi": 56,
                    "time": 49.16666666666663,
                    "velocity": 0.9448818897637795,
                    "duration": 0.0416666666666643
                },
                {
                    "name": "G#3",
                    "midi": 56,
                    "time": 49.60416666666663,
                    "velocity": 0.9448818897637795,
                    "duration": 0.0416666666666643
                },
                {
                    "name": "C#4",
                    "midi": 61,
                    "time": 49.66666666666663,
                    "velocity": 0.9448818897637795,
                    "duration": 0.0416666666666643
                },
                {
                    "name": "C#4",
                    "midi": 61,
                    "time": 50.104166666666615,
                    "velocity": 0.9448818897637795,
                    "duration": 0.0416666666666643
                },
                {
                    "name": "B3",
                    "midi": 59,
                    "time": 50.166666666666615,
                    "velocity": 0.9448818897637795,
                    "duration": 0.0416666666666643
                },
                {
                    "name": "B3",
                    "midi": 59,
                    "time": 50.6041666666666,
                    "velocity": 0.9448818897637795,
                    "duration": 0.0416666666666643
                },
                {
                    "name": "A3",
                    "midi": 57,
                    "time": 50.6666666666666,
                    "velocity": 0.9448818897637795,
                    "duration": 0.0416666666666643
                },
                {
                    "name": "A3",
                    "midi": 57,
                    "time": 51.104166666666586,
                    "velocity": 0.9448818897637795,
                    "duration": 0.0416666666666643
                },
                {
                    "name": "A#3",
                    "midi": 58,
                    "time": 51.16666666666658,
                    "velocity": 0.9448818897637795,
                    "duration": 0.0416666666666643
                },
                {
                    "name": "A#3",
                    "midi": 58,
                    "time": 51.60416666666658,
                    "velocity": 0.9448818897637795,
                    "duration": 0.0416666666666643
                },
                {
                    "name": "B3",
                    "midi": 59,
                    "time": 51.66666666666658,
                    "velocity": 0.9448818897637795,
                    "duration": 0.0833333333333357
                },
                {
                    "name": "A3",
                    "midi": 57,
                    "time": 51.91666666666658,
                    "velocity": 0.9448818897637795,
                    "duration": 0.0833333333333357
                },
                {
                    "name": "G#3",
                    "midi": 56,
                    "time": 52.16666666666658,
                    "velocity": 0.9448818897637795,
                    "duration": 0.0833333333333357
                },
                {
                    "name": "A3",
                    "midi": 57,
                    "time": 52.41666666666658,
                    "velocity": 0.9448818897637795,
                    "duration": 0.0833333333333357
                },
                {
                    "name": "B3",
                    "midi": 59,
                    "time": 52.66666666666658,
                    "velocity": 0.9448818897637795,
                    "duration": 0.0833333333333357
                },
                {
                    "name": "B3",
                    "midi": 59,
                    "time": 52.91666666666658,
                    "velocity": 0.9448818897637795,
                    "duration": 0.0833333333333357
                },
                {
                    "name": "E4",
                    "midi": 64,
                    "time": 53.16666666666658,
                    "velocity": 0.9448818897637795,
                    "duration": 0.2291666666666572
                },
                {
                    "name": "E4",
                    "midi": 64,
                    "time": 53.79166666666657,
                    "velocity": 0.9448818897637795,
                    "duration": 0.0416666666666643
                },
                {
                    "name": "E4",
                    "midi": 64,
                    "time": 54.22916666666657,
                    "velocity": 0.9448818897637795,
                    "duration": 0.0416666666666643
                },
                {
                    "name": "E4",
                    "midi": 64,
                    "time": 54.29166666666657,
                    "velocity": 0.9448818897637795,
                    "duration": 0.0416666666666643
                },
                {
                    "name": "E4",
                    "midi": 64,
                    "time": 54.72916666666657,
                    "velocity": 0.9448818897637795,
                    "duration": 0.0416666666666643
                },
                {
                    "name": "E4",
                    "midi": 64,
                    "time": 54.79166666666657,
                    "velocity": 0.9448818897637795,
                    "duration": 0.0416666666666643
                },
                {
                    "name": "E4",
                    "midi": 64,
                    "time": 55.22916666666657,
                    "velocity": 0.9448818897637795,
                    "duration": 0.0416666666666643
                },
                {
                    "name": "E4",
                    "midi": 64,
                    "time": 55.29166666666657,
                    "velocity": 0.9448818897637795,
                    "duration": 0.0416666666666643
                },
                {
                    "name": "B3",
                    "midi": 59,
                    "time": 56.29166666666657,
                    "velocity": 0.9448818897637795,
                    "duration": 0.0416666666666643
                },
                {
                    "name": "B3",
                    "midi": 59,
                    "time": 56.72916666666657,
                    "velocity": 0.9448818897637795,
                    "duration": 0.0416666666666643
                },
                {
                    "name": "B3",
                    "midi": 59,
                    "time": 56.79166666666657,
                    "velocity": 0.9448818897637795,
                    "duration": 0.0416666666666643
                },
                {
                    "name": "B3",
                    "midi": 59,
                    "time": 57.22916666666657,
                    "velocity": 0.9448818897637795,
                    "duration": 0.0416666666666643
                },
                {
                    "name": "E4",
                    "midi": 64,
                    "time": 57.29166666666657,
                    "velocity": 0.9448818897637795,
                    "duration": 0.0416666666666643
                },
                {
                    "name": "E4",
                    "midi": 64,
                    "time": 57.79166666666657,
                    "velocity": 0.9448818897637795,
                    "duration": 0.0416666666666643
                },
                {
                    "name": "E4",
                    "midi": 64,
                    "time": 58.22916666666657,
                    "velocity": 0.9448818897637795,
                    "duration": 0.0416666666666643
                },
                {
                    "name": "E4",
                    "midi": 64,
                    "time": 58.29166666666657,
                    "velocity": 0.9448818897637795,
                    "duration": 0.0416666666666643
                },
                {
                    "name": "E4",
                    "midi": 64,
                    "time": 58.72916666666657,
                    "velocity": 0.9448818897637795,
                    "duration": 0.0416666666666643
                },
                {
                    "name": "E4",
                    "midi": 64,
                    "time": 58.79166666666657,
                    "velocity": 0.9448818897637795,
                    "duration": 0.0416666666666643
                },
                {
                    "name": "E4",
                    "midi": 64,
                    "time": 59.22916666666657,
                    "velocity": 0.9448818897637795,
                    "duration": 0.0416666666666643
                },
                {
                    "name": "E4",
                    "midi": 64,
                    "time": 59.29166666666657,
                    "velocity": 0.9448818897637795,
                    "duration": 0.0416666666666643
                },
                {
                    "name": "E4",
                    "midi": 64,
                    "time": 59.54166666666657,
                    "velocity": 0.9448818897637795,
                    "duration": 0.0416666666666643
                },
                {
                    "name": "F#4",
                    "midi": 66,
                    "time": 59.6249999999999,
                    "velocity": 0.9448818897637795,
                    "duration": 0.0416666666666643
                },
                {
                    "name": "G#4",
                    "midi": 68,
                    "time": 59.70833333333323,
                    "velocity": 0.9448818897637795,
                    "duration": 0.0416666666666643
                },
                {
                    "name": "B4",
                    "midi": 71,
                    "time": 60.29166666666656,
                    "velocity": 0.9448818897637795,
                    "duration": 0.0416666666666643
                },
                {
                    "name": "B4",
                    "midi": 71,
                    "time": 60.72916666666656,
                    "velocity": 0.9448818897637795,
                    "duration": 0.0416666666666643
                },
                {
                    "name": "B4",
                    "midi": 71,
                    "time": 60.79166666666656,
                    "velocity": 0.9448818897637795,
                    "duration": 0.0416666666666643
                },
                {
                    "name": "B4",
                    "midi": 71,
                    "time": 61.22916666666656,
                    "velocity": 0.9448818897637795,
                    "duration": 0.0416666666666643
                },
                {
                    "name": "E4",
                    "midi": 64,
                    "time": 61.29166666666656,
                    "velocity": 0.9448818897637795,
                    "duration": 0.0416666666666643
                },
                {
                    "name": "E4",
                    "midi": 64,
                    "time": 61.72916666666656,
                    "velocity": 0.9448818897637795,
                    "duration": 0.0416666666666643
                },
                {
                    "name": "E4",
                    "midi": 64,
                    "time": 61.79166666666656,
                    "velocity": 0.9448818897637795,
                    "duration": 0.0416666666666643
                },
                {
                    "name": "E4",
                    "midi": 64,
                    "time": 62.22916666666656,
                    "velocity": 0.9448818897637795,
                    "duration": 0.0416666666666643
                },
                {
                    "name": "E4",
                    "midi": 64,
                    "time": 62.29166666666656,
                    "velocity": 0.9448818897637795,
                    "duration": 0.0416666666666643
                },
                {
                    "name": "E4",
                    "midi": 64,
                    "time": 62.72916666666656,
                    "velocity": 0.9448818897637795,
                    "duration": 0.0416666666666643
                },
                {
                    "name": "E4",
                    "midi": 64,
                    "time": 62.79166666666656,
                    "velocity": 0.9448818897637795,
                    "duration": 0.0416666666666643
                },
                {
                    "name": "E4",
                    "midi": 64,
                    "time": 63.22916666666656,
                    "velocity": 0.9448818897637795,
                    "duration": 0.0416666666666643
                },
                {
                    "name": "E4",
                    "midi": 64,
                    "time": 63.29166666666656,
                    "velocity": 0.9448818897637795,
                    "duration": 0.0416666666666643
                },
                {
                    "name": "E4",
                    "midi": 64,
                    "time": 63.72916666666656,
                    "velocity": 0.9448818897637795,
                    "duration": 0.0416666666666643
                },
                {
                    "name": "C#4",
                    "midi": 61,
                    "time": 63.79166666666656,
                    "velocity": 0.9448818897637795,
                    "duration": 0.0416666666666643
                },
                {
                    "name": "C#4",
                    "midi": 61,
                    "time": 64.04166666666656,
                    "velocity": 0.9448818897637795,
                    "duration": 0.125
                },
                {
                    "name": "A#3",
                    "midi": 58,
                    "time": 64.16666666666656,
                    "velocity": 0.9448818897637795,
                    "duration": 0.1041666666666714
                },
                {
                    "name": "B3",
                    "midi": 59,
                    "time": 64.29166666666656,
                    "velocity": 0.9448818897637795,
                    "duration": 0.041666666666671404
                },
                {
                    "name": "E4",
                    "midi": 64,
                    "time": 65.1249999999999,
                    "velocity": 0.9448818897637795,
                    "duration": 0.041666666666671404
                },
                {
                    "name": "D#4",
                    "midi": 63,
                    "time": 65.20833333333324,
                    "velocity": 0.9448818897637795,
                    "duration": 0.041666666666671404
                },
                {
                    "name": "E4",
                    "midi": 64,
                    "time": 65.29166666666659,
                    "velocity": 0.9448818897637795,
                    "duration": 0.041666666666671404
                },
                {
                    "name": "E4",
                    "midi": 64,
                    "time": 65.72916666666659,
                    "velocity": 0.9448818897637795,
                    "duration": 0.041666666666671404
                },
                {
                    "name": "E4",
                    "midi": 64,
                    "time": 65.79166666666659,
                    "velocity": 0.9448818897637795,
                    "duration": 0.041666666666671404
                },
                {
                    "name": "E4",
                    "midi": 64,
                    "time": 66.22916666666659,
                    "velocity": 0.9448818897637795,
                    "duration": 0.041666666666671404
                },
                {
                    "name": "E4",
                    "midi": 64,
                    "time": 66.29166666666659,
                    "velocity": 0.9448818897637795,
                    "duration": 0.041666666666671404
                },
                {
                    "name": "E4",
                    "midi": 64,
                    "time": 66.72916666666659,
                    "velocity": 0.9448818897637795,
                    "duration": 0.041666666666671404
                },
                {
                    "name": "E4",
                    "midi": 64,
                    "time": 66.79166666666659,
                    "velocity": 0.9448818897637795,
                    "duration": 0.041666666666671404
                },
                {
                    "name": "E4",
                    "midi": 64,
                    "time": 67.22916666666659,
                    "velocity": 0.9448818897637795,
                    "duration": 0.041666666666671404
                },
                {
                    "name": "E4",
                    "midi": 64,
                    "time": 67.29166666666659,
                    "velocity": 0.9448818897637795,
                    "duration": 0.041666666666671404
                },
                {
                    "name": "E4",
                    "midi": 64,
                    "time": 67.72916666666659,
                    "velocity": 0.9448818897637795,
                    "duration": 0.041666666666671404
                },
                {
                    "name": "C4",
                    "midi": 60,
                    "time": 67.79166666666659,
                    "velocity": 0.9448818897637795,
                    "duration": 0.041666666666671404
                },
                {
                    "name": "B3",
                    "midi": 59,
                    "time": 68.29166666666659,
                    "velocity": 0.9448818897637795,
                    "duration": 0.041666666666671404
                },
                {
                    "name": "B3",
                    "midi": 59,
                    "time": 68.62499999999993,
                    "velocity": 0.9448818897637795,
                    "duration": 0.041666666666671404
                },
                {
                    "name": "C#4",
                    "midi": 61,
                    "time": 68.70833333333327,
                    "velocity": 0.9448818897637795,
                    "duration": 0.041666666666671404
                },
                {
                    "name": "D#4",
                    "midi": 63,
                    "time": 68.79166666666661,
                    "velocity": 0.9448818897637795,
                    "duration": 0.041666666666671404
                },
                {
                    "name": "E4",
                    "midi": 64,
                    "time": 68.87499999999996,
                    "velocity": 0.9448818897637795,
                    "duration": 0.041666666666671404
                },
                {
                    "name": "F#4",
                    "midi": 66,
                    "time": 68.9583333333333,
                    "velocity": 0.9448818897637795,
                    "duration": 0.041666666666671404
                },
                {
                    "name": "G#4",
                    "midi": 68,
                    "time": 69.04166666666664,
                    "velocity": 0.9448818897637795,
                    "duration": 0.041666666666671404
                },
                {
                    "name": "A4",
                    "midi": 69,
                    "time": 69.12499999999999,
                    "velocity": 0.9448818897637795,
                    "duration": 0.041666666666671404
                },
                {
                    "name": "B4",
                    "midi": 71,
                    "time": 69.20833333333333,
                    "velocity": 0.9448818897637795,
                    "duration": 0.041666666666671404
                },
                {
                    "name": "E5",
                    "midi": 76,
                    "time": 69.29166666666667,
                    "velocity": 0.9448818897637795,
                    "duration": 0.041666666666671404
                },
                {
                    "name": "E5",
                    "midi": 76,
                    "time": 69.72916666666667,
                    "velocity": 0.9448818897637795,
                    "duration": 0.041666666666671404
                },
                {
                    "name": "E5",
                    "midi": 76,
                    "time": 69.79166666666667,
                    "velocity": 0.9448818897637795,
                    "duration": 0.041666666666671404
                },
                {
                    "name": "E5",
                    "midi": 76,
                    "time": 70.22916666666667,
                    "velocity": 0.9448818897637795,
                    "duration": 0.041666666666671404
                },
                {
                    "name": "E5",
                    "midi": 76,
                    "time": 70.29166666666667,
                    "velocity": 0.9448818897637795,
                    "duration": 0.041666666666671404
                },
                {
                    "name": "E5",
                    "midi": 76,
                    "time": 70.72916666666667,
                    "velocity": 0.9448818897637795,
                    "duration": 0.041666666666671404
                },
                {
                    "name": "D#5",
                    "midi": 75,
                    "time": 70.79166666666667,
                    "velocity": 0.9448818897637795,
                    "duration": 0.041666666666671404
                },
                {
                    "name": "D#5",
                    "midi": 75,
                    "time": 71.22916666666667,
                    "velocity": 0.9448818897637795,
                    "duration": 0.041666666666671404
                },
                {
                    "name": "C#5",
                    "midi": 73,
                    "time": 71.29166666666667,
                    "velocity": 0.9448818897637795,
                    "duration": 0.041666666666671404
                },
                {
                    "name": "C#5",
                    "midi": 73,
                    "time": 71.72916666666667,
                    "velocity": 0.9448818897637795,
                    "duration": 0.041666666666671404
                },
                {
                    "name": "B4",
                    "midi": 71,
                    "time": 71.79166666666667,
                    "velocity": 0.9448818897637795,
                    "duration": 0.041666666666671404
                },
                {
                    "name": "B4",
                    "midi": 71,
                    "time": 72.22916666666667,
                    "velocity": 0.9448818897637795,
                    "duration": 0.041666666666671404
                },
                {
                    "name": "A4",
                    "midi": 69,
                    "time": 72.29166666666667,
                    "velocity": 0.9448818897637795,
                    "duration": 0.041666666666671404
                },
                {
                    "name": "A4",
                    "midi": 69,
                    "time": 72.72916666666667,
                    "velocity": 0.9448818897637795,
                    "duration": 0.041666666666671404
                },
                {
                    "name": "F#4",
                    "midi": 66,
                    "time": 72.79166666666667,
                    "velocity": 0.9448818897637795,
                    "duration": 0.041666666666671404
                },
                {
                    "name": "F#4",
                    "midi": 66,
                    "time": 73.22916666666667,
                    "velocity": 0.9448818897637795,
                    "duration": 0.041666666666671404
                },
                {
                    "name": "E4",
                    "midi": 64,
                    "time": 73.29166666666667,
                    "velocity": 0.9448818897637795,
                    "duration": 0.041666666666671404
                },
                {
                    "name": "E4",
                    "midi": 64,
                    "time": 73.72916666666669,
                    "velocity": 0.9448818897637795,
                    "duration": 0.041666666666671404
                },
                {
                    "name": "F4",
                    "midi": 65,
                    "time": 73.79166666666669,
                    "velocity": 0.9448818897637795,
                    "duration": 0.041666666666671404
                },
                {
                    "name": "F4",
                    "midi": 65,
                    "time": 74.2291666666667,
                    "velocity": 0.9448818897637795,
                    "duration": 0.041666666666671404
                },
                {
                    "name": "E4",
                    "midi": 64,
                    "time": 74.2916666666667,
                    "velocity": 0.9448818897637795,
                    "duration": 0.041666666666671404
                },
                {
                    "name": "E4",
                    "midi": 64,
                    "time": 74.72916666666671,
                    "velocity": 0.9448818897637795,
                    "duration": 0.041666666666671404
                },
                {
                    "name": "F4",
                    "midi": 65,
                    "time": 74.79166666666671,
                    "velocity": 0.9448818897637795,
                    "duration": 0.041666666666671404
                },
                {
                    "name": "F4",
                    "midi": 65,
                    "time": 75.22916666666673,
                    "velocity": 0.9448818897637795,
                    "duration": 0.041666666666671404
                },
                {
                    "name": "E4",
                    "midi": 64,
                    "time": 75.29166666666674,
                    "velocity": 0.9448818897637795,
                    "duration": 0.0833333333333286
                },
                {
                    "name": "E4",
                    "midi": 64,
                    "time": 75.79166666666674,
                    "velocity": 0.9448818897637795,
                    "duration": 0.0833333333333286
                },
                {
                    "name": "E4",
                    "midi": 64,
                    "time": 76.29166666666674,
                    "velocity": 0.9448818897637795,
                    "duration": 0.041666666666671404
                },
                {
                    "name": "G#4",
                    "midi": 68,
                    "time": 76.72916666666674,
                    "velocity": 0.9448818897637795,
                    "duration": 0.041666666666671404
                },
                {
                    "name": "E4",
                    "midi": 64,
                    "time": 76.79166666666674,
                    "velocity": 0.9448818897637795,
                    "duration": 0.041666666666671404
                },
                {
                    "name": "G#4",
                    "midi": 68,
                    "time": 77.22916666666674,
                    "velocity": 0.9448818897637795,
                    "duration": 0.041666666666671404
                },
                {
                    "name": "E4",
                    "midi": 64,
                    "time": 77.29166666666674,
                    "velocity": 0.9448818897637795,
                    "duration": 0.2500000000000284
                }
            ],
            "controlChanges": {
                "1": [
                    {
                        "number": 1,
                        "time": 16.999999999999996,
                        "value": 0
                    },
                    {
                        "number": 1,
                        "time": 17.010416666666664,
                        "value": 0.023622047244094488
                    },
                    {
                        "number": 1,
                        "time": 17.020833333333332,
                        "value": 0.047244094488188976
                    },
                    {
                        "number": 1,
                        "time": 17.03125,
                        "value": 0.05511811023622047
                    },
                    {
                        "number": 1,
                        "time": 17.041666666666668,
                        "value": 0.07086614173228346
                    },
                    {
                        "number": 1,
                        "time": 17.052083333333336,
                        "value": 0.07874015748031496
                    },
                    {
                        "number": 1,
                        "time": 17.062500000000004,
                        "value": 0.08661417322834646
                    },
                    {
                        "number": 1,
                        "time": 17.083333333333336,
                        "value": 0.09448818897637795
                    },
                    {
                        "number": 1,
                        "time": 17.114583333333336,
                        "value": 0.10236220472440945
                    },
                    {
                        "number": 1,
                        "time": 17.5,
                        "value": 0
                    },
                    {
                        "number": 1,
                        "time": 53.16666666666658,
                        "value": 0
                    },
                    {
                        "number": 1,
                        "time": 53.17708333333324,
                        "value": 0.023622047244094488
                    },
                    {
                        "number": 1,
                        "time": 53.18749999999991,
                        "value": 0.047244094488188976
                    },
                    {
                        "number": 1,
                        "time": 53.19791666666657,
                        "value": 0.05511811023622047
                    },
                    {
                        "number": 1,
                        "time": 53.208333333333236,
                        "value": 0.07086614173228346
                    },
                    {
                        "number": 1,
                        "time": 53.2187499999999,
                        "value": 0.07874015748031496
                    },
                    {
                        "number": 1,
                        "time": 53.229166666666565,
                        "value": 0.08661417322834646
                    },
                    {
                        "number": 1,
                        "time": 53.2499999999999,
                        "value": 0.09448818897637795
                    },
                    {
                        "number": 1,
                        "time": 53.2812499999999,
                        "value": 0.10236220472440945
                    },
                    {
                        "number": 1,
                        "time": 53.41666666666657,
                        "value": 0
                    },
                    {
                        "number": 1,
                        "time": 77.29166666666674,
                        "value": 0
                    },
                    {
                        "number": 1,
                        "time": 77.35416666666674,
                        "value": 0.023622047244094488
                    },
                    {
                        "number": 1,
                        "time": 77.36458333333341,
                        "value": 0.031496062992125984
                    },
                    {
                        "number": 1,
                        "time": 77.37500000000009,
                        "value": 0.047244094488188976
                    },
                    {
                        "number": 1,
                        "time": 77.38541666666676,
                        "value": 0.05511811023622047
                    },
                    {
                        "number": 1,
                        "time": 77.39583333333343,
                        "value": 0.06299212598425197
                    },
                    {
                        "number": 1,
                        "time": 77.4062500000001,
                        "value": 0.07086614173228346
                    },
                    {
                        "number": 1,
                        "time": 77.41666666666677,
                        "value": 0.07874015748031496
                    },
                    {
                        "number": 1,
                        "time": 77.42708333333344,
                        "value": 0.08661417322834646
                    },
                    {
                        "number": 1,
                        "time": 77.43750000000011,
                        "value": 0.09448818897637795
                    },
                    {
                        "number": 1,
                        "time": 77.45833333333344,
                        "value": 0.10236220472440945
                    },
                    {
                        "number": 1,
                        "time": 77.47916666666677,
                        "value": 0.11023622047244094
                    },
                    {
                        "number": 1,
                        "time": 77.51041666666677,
                        "value": 0.11811023622047244
                    },
                    {
                        "number": 1,
                        "time": 77.5625000000001,
                        "value": 0.12598425196850394
                    }
                ],
                "6": [
                    {
                        "number": 6,
                        "time": 0.28125,
                        "value": 0.4881889763779528
                    },
                    {
                        "number": 6,
                        "time": 0.30208333333333337,
                        "value": 0.3858267716535433
                    }
                ],
                "7": [
                    {
                        "number": 7,
                        "time": 0.22916666666666666,
                        "value": 0.9448818897637795
                    }
                ],
                "11": [
                    {
                        "number": 11,
                        "time": 1,
                        "value": 0.7874015748031497
                    },
                    {
                        "number": 11,
                        "time": 8,
                        "value": 0.7874015748031497
                    },
                    {
                        "number": 11,
                        "time": 8.125,
                        "value": 0.7952755905511811
                    },
                    {
                        "number": 11,
                        "time": 8.25,
                        "value": 0.8031496062992126
                    },
                    {
                        "number": 11,
                        "time": 8.375,
                        "value": 0.8110236220472441
                    },
                    {
                        "number": 11,
                        "time": 8.5,
                        "value": 0.8188976377952756
                    },
                    {
                        "number": 11,
                        "time": 8.625,
                        "value": 0.8267716535433071
                    },
                    {
                        "number": 11,
                        "time": 8.75,
                        "value": 0.8346456692913385
                    },
                    {
                        "number": 11,
                        "time": 8.875,
                        "value": 0.84251968503937
                    },
                    {
                        "number": 11,
                        "time": 9,
                        "value": 0.8503937007874016
                    },
                    {
                        "number": 11,
                        "time": 9.125,
                        "value": 0.8582677165354331
                    },
                    {
                        "number": 11,
                        "time": 9.25,
                        "value": 0.8661417322834646
                    },
                    {
                        "number": 11,
                        "time": 9.375,
                        "value": 0.8740157480314961
                    },
                    {
                        "number": 11,
                        "time": 9.5,
                        "value": 0.8818897637795275
                    },
                    {
                        "number": 11,
                        "time": 9.625,
                        "value": 0.889763779527559
                    },
                    {
                        "number": 11,
                        "time": 9.75,
                        "value": 0.8976377952755905
                    },
                    {
                        "number": 11,
                        "time": 9.875,
                        "value": 0.905511811023622
                    },
                    {
                        "number": 11,
                        "time": 10,
                        "value": 0.9133858267716536
                    },
                    {
                        "number": 11,
                        "time": 10.125,
                        "value": 0.9212598425196851
                    },
                    {
                        "number": 11,
                        "time": 10.25,
                        "value": 0.9291338582677166
                    },
                    {
                        "number": 11,
                        "time": 10.375,
                        "value": 0.937007874015748
                    },
                    {
                        "number": 11,
                        "time": 10.489583333333332,
                        "value": 0.9448818897637795
                    },
                    {
                        "number": 11,
                        "time": 10.499999999999998,
                        "value": 0.9448818897637795
                    },
                    {
                        "number": 11,
                        "time": 10.624999999999998,
                        "value": 0.937007874015748
                    },
                    {
                        "number": 11,
                        "time": 10.749999999999998,
                        "value": 0.9291338582677166
                    },
                    {
                        "number": 11,
                        "time": 10.874999999999998,
                        "value": 0.9212598425196851
                    },
                    {
                        "number": 11,
                        "time": 10.999999999999998,
                        "value": 0.9133858267716536
                    },
                    {
                        "number": 11,
                        "time": 11.124999999999998,
                        "value": 0.905511811023622
                    },
                    {
                        "number": 11,
                        "time": 11.249999999999998,
                        "value": 0.8976377952755905
                    },
                    {
                        "number": 11,
                        "time": 11.374999999999998,
                        "value": 0.889763779527559
                    },
                    {
                        "number": 11,
                        "time": 11.499999999999998,
                        "value": 0.8818897637795275
                    },
                    {
                        "number": 11,
                        "time": 11.624999999999998,
                        "value": 0.8740157480314961
                    },
                    {
                        "number": 11,
                        "time": 11.749999999999998,
                        "value": 0.8661417322834646
                    },
                    {
                        "number": 11,
                        "time": 11.874999999999998,
                        "value": 0.8582677165354331
                    },
                    {
                        "number": 11,
                        "time": 11.999999999999998,
                        "value": 0.8503937007874016
                    },
                    {
                        "number": 11,
                        "time": 12.124999999999998,
                        "value": 0.84251968503937
                    },
                    {
                        "number": 11,
                        "time": 12.249999999999998,
                        "value": 0.8346456692913385
                    },
                    {
                        "number": 11,
                        "time": 12.374999999999998,
                        "value": 0.8267716535433071
                    },
                    {
                        "number": 11,
                        "time": 12.499999999999998,
                        "value": 0.8188976377952756
                    },
                    {
                        "number": 11,
                        "time": 12.624999999999998,
                        "value": 0.8110236220472441
                    },
                    {
                        "number": 11,
                        "time": 12.749999999999998,
                        "value": 0.8031496062992126
                    },
                    {
                        "number": 11,
                        "time": 12.874999999999998,
                        "value": 0.7952755905511811
                    },
                    {
                        "number": 11,
                        "time": 12.98958333333333,
                        "value": 0.7874015748031497
                    },
                    {
                        "number": 11,
                        "time": 12.999999999999996,
                        "value": 0.7874015748031497
                    },
                    {
                        "number": 11,
                        "time": 13.124999999999996,
                        "value": 0.7952755905511811
                    },
                    {
                        "number": 11,
                        "time": 13.249999999999996,
                        "value": 0.8031496062992126
                    },
                    {
                        "number": 11,
                        "time": 13.374999999999996,
                        "value": 0.8110236220472441
                    },
                    {
                        "number": 11,
                        "time": 13.499999999999996,
                        "value": 0.8188976377952756
                    },
                    {
                        "number": 11,
                        "time": 13.624999999999996,
                        "value": 0.8267716535433071
                    },
                    {
                        "number": 11,
                        "time": 13.749999999999996,
                        "value": 0.8346456692913385
                    },
                    {
                        "number": 11,
                        "time": 13.874999999999996,
                        "value": 0.84251968503937
                    },
                    {
                        "number": 11,
                        "time": 13.999999999999996,
                        "value": 0.8503937007874016
                    },
                    {
                        "number": 11,
                        "time": 14.124999999999996,
                        "value": 0.8582677165354331
                    },
                    {
                        "number": 11,
                        "time": 14.249999999999996,
                        "value": 0.8661417322834646
                    },
                    {
                        "number": 11,
                        "time": 14.374999999999996,
                        "value": 0.8740157480314961
                    },
                    {
                        "number": 11,
                        "time": 14.499999999999996,
                        "value": 0.8818897637795275
                    },
                    {
                        "number": 11,
                        "time": 14.624999999999996,
                        "value": 0.889763779527559
                    },
                    {
                        "number": 11,
                        "time": 14.749999999999996,
                        "value": 0.8976377952755905
                    },
                    {
                        "number": 11,
                        "time": 14.874999999999996,
                        "value": 0.905511811023622
                    },
                    {
                        "number": 11,
                        "time": 14.999999999999996,
                        "value": 0.9133858267716536
                    },
                    {
                        "number": 11,
                        "time": 15.124999999999996,
                        "value": 0.9212598425196851
                    },
                    {
                        "number": 11,
                        "time": 15.249999999999996,
                        "value": 0.9291338582677166
                    },
                    {
                        "number": 11,
                        "time": 15.374999999999996,
                        "value": 0.937007874015748
                    },
                    {
                        "number": 11,
                        "time": 15.48958333333333,
                        "value": 0.9448818897637795
                    },
                    {
                        "number": 11,
                        "time": 17.625,
                        "value": 0.7874015748031497
                    },
                    {
                        "number": 11,
                        "time": 25.125,
                        "value": 0.7874015748031497
                    },
                    {
                        "number": 11,
                        "time": 25.270833333333336,
                        "value": 0.7952755905511811
                    },
                    {
                        "number": 11,
                        "time": 25.41666666666667,
                        "value": 0.8031496062992126
                    },
                    {
                        "number": 11,
                        "time": 25.562500000000007,
                        "value": 0.8110236220472441
                    },
                    {
                        "number": 11,
                        "time": 25.708333333333343,
                        "value": 0.8188976377952756
                    },
                    {
                        "number": 11,
                        "time": 25.854166666666675,
                        "value": 0.8267716535433071
                    },
                    {
                        "number": 11,
                        "time": 26.000000000000007,
                        "value": 0.8346456692913385
                    },
                    {
                        "number": 11,
                        "time": 26.14583333333334,
                        "value": 0.84251968503937
                    },
                    {
                        "number": 11,
                        "time": 26.29166666666667,
                        "value": 0.8503937007874016
                    },
                    {
                        "number": 11,
                        "time": 26.437500000000004,
                        "value": 0.8582677165354331
                    },
                    {
                        "number": 11,
                        "time": 26.583333333333336,
                        "value": 0.8661417322834646
                    },
                    {
                        "number": 11,
                        "time": 26.729166666666668,
                        "value": 0.8740157480314961
                    },
                    {
                        "number": 11,
                        "time": 26.875,
                        "value": 0.8818897637795275
                    },
                    {
                        "number": 11,
                        "time": 27.020833333333332,
                        "value": 0.889763779527559
                    },
                    {
                        "number": 11,
                        "time": 27.166666666666668,
                        "value": 0.8976377952755905
                    },
                    {
                        "number": 11,
                        "time": 27.312500000000004,
                        "value": 0.905511811023622
                    },
                    {
                        "number": 11,
                        "time": 27.458333333333336,
                        "value": 0.9133858267716536
                    },
                    {
                        "number": 11,
                        "time": 27.604166666666668,
                        "value": 0.9212598425196851
                    },
                    {
                        "number": 11,
                        "time": 27.75,
                        "value": 0.9291338582677166
                    },
                    {
                        "number": 11,
                        "time": 27.895833333333332,
                        "value": 0.937007874015748
                    },
                    {
                        "number": 11,
                        "time": 28.03125,
                        "value": 0.9448818897637795
                    },
                    {
                        "number": 11,
                        "time": 28.041666666666668,
                        "value": 0.7874015748031497
                    },
                    {
                        "number": 11,
                        "time": 39.166666666666664,
                        "value": 0.7874015748031497
                    },
                    {
                        "number": 11,
                        "time": 39.46874999999999,
                        "value": 0.7952755905511811
                    },
                    {
                        "number": 11,
                        "time": 39.77083333333332,
                        "value": 0.8031496062992126
                    },
                    {
                        "number": 11,
                        "time": 40.07291666666666,
                        "value": 0.8110236220472441
                    },
                    {
                        "number": 11,
                        "time": 40.36458333333332,
                        "value": 0.8188976377952756
                    },
                    {
                        "number": 11,
                        "time": 40.66666666666666,
                        "value": 0.8267716535433071
                    },
                    {
                        "number": 11,
                        "time": 40.968749999999986,
                        "value": 0.8346456692913385
                    },
                    {
                        "number": 11,
                        "time": 41.270833333333314,
                        "value": 0.84251968503937
                    },
                    {
                        "number": 11,
                        "time": 41.56249999999998,
                        "value": 0.8503937007874016
                    },
                    {
                        "number": 11,
                        "time": 41.86458333333331,
                        "value": 0.8582677165354331
                    },
                    {
                        "number": 11,
                        "time": 42.16666666666664,
                        "value": 0.8661417322834646
                    },
                    {
                        "number": 11,
                        "time": 42.46874999999997,
                        "value": 0.8740157480314961
                    },
                    {
                        "number": 11,
                        "time": 42.760416666666636,
                        "value": 0.8818897637795275
                    },
                    {
                        "number": 11,
                        "time": 43.06249999999997,
                        "value": 0.889763779527559
                    },
                    {
                        "number": 11,
                        "time": 43.3645833333333,
                        "value": 0.8976377952755905
                    },
                    {
                        "number": 11,
                        "time": 43.666666666666636,
                        "value": 0.905511811023622
                    },
                    {
                        "number": 11,
                        "time": 43.9583333333333,
                        "value": 0.9133858267716536
                    },
                    {
                        "number": 11,
                        "time": 44.260416666666636,
                        "value": 0.9212598425196851
                    },
                    {
                        "number": 11,
                        "time": 44.56249999999997,
                        "value": 0.9291338582677166
                    },
                    {
                        "number": 11,
                        "time": 44.8645833333333,
                        "value": 0.937007874015748
                    },
                    {
                        "number": 11,
                        "time": 45.156249999999964,
                        "value": 0.9448818897637795
                    },
                    {
                        "number": 11,
                        "time": 45.624999999999964,
                        "value": 0.7086614173228346
                    },
                    {
                        "number": 11,
                        "time": 47.66666666666663,
                        "value": 0.7874015748031497
                    },
                    {
                        "number": 11,
                        "time": 49.66666666666663,
                        "value": 0.7874015748031497
                    },
                    {
                        "number": 11,
                        "time": 49.74999999999996,
                        "value": 0.7952755905511811
                    },
                    {
                        "number": 11,
                        "time": 49.82291666666662,
                        "value": 0.8031496062992126
                    },
                    {
                        "number": 11,
                        "time": 49.895833333333286,
                        "value": 0.8110236220472441
                    },
                    {
                        "number": 11,
                        "time": 49.96874999999995,
                        "value": 0.8188976377952756
                    },
                    {
                        "number": 11,
                        "time": 50.041666666666615,
                        "value": 0.8267716535433071
                    },
                    {
                        "number": 11,
                        "time": 50.11458333333328,
                        "value": 0.8346456692913385
                    },
                    {
                        "number": 11,
                        "time": 50.197916666666615,
                        "value": 0.84251968503937
                    },
                    {
                        "number": 11,
                        "time": 50.27083333333328,
                        "value": 0.8503937007874016
                    },
                    {
                        "number": 11,
                        "time": 50.34374999999994,
                        "value": 0.8582677165354331
                    },
                    {
                        "number": 11,
                        "time": 50.41666666666661,
                        "value": 0.8661417322834646
                    },
                    {
                        "number": 11,
                        "time": 50.48958333333327,
                        "value": 0.8740157480314961
                    },
                    {
                        "number": 11,
                        "time": 50.562499999999936,
                        "value": 0.8818897637795275
                    },
                    {
                        "number": 11,
                        "time": 50.6354166666666,
                        "value": 0.889763779527559
                    },
                    {
                        "number": 11,
                        "time": 50.71874999999993,
                        "value": 0.8976377952755905
                    },
                    {
                        "number": 11,
                        "time": 50.79166666666659,
                        "value": 0.905511811023622
                    },
                    {
                        "number": 11,
                        "time": 50.86458333333326,
                        "value": 0.9133858267716536
                    },
                    {
                        "number": 11,
                        "time": 50.93749999999992,
                        "value": 0.9212598425196851
                    },
                    {
                        "number": 11,
                        "time": 51.010416666666586,
                        "value": 0.9291338582677166
                    },
                    {
                        "number": 11,
                        "time": 51.08333333333325,
                        "value": 0.937007874015748
                    },
                    {
                        "number": 11,
                        "time": 51.156249999999915,
                        "value": 0.9448818897637795
                    },
                    {
                        "number": 11,
                        "time": 53.79166666666657,
                        "value": 0.7874015748031497
                    },
                    {
                        "number": 11,
                        "time": 73.29166666666667,
                        "value": 0.7874015748031497
                    },
                    {
                        "number": 11,
                        "time": 73.39583333333334,
                        "value": 0.7952755905511811
                    },
                    {
                        "number": 11,
                        "time": 73.50000000000001,
                        "value": 0.8031496062992126
                    },
                    {
                        "number": 11,
                        "time": 73.59375000000001,
                        "value": 0.8110236220472441
                    },
                    {
                        "number": 11,
                        "time": 73.69791666666669,
                        "value": 0.8188976377952756
                    },
                    {
                        "number": 11,
                        "time": 73.79166666666669,
                        "value": 0.8267716535433071
                    },
                    {
                        "number": 11,
                        "time": 73.89583333333336,
                        "value": 0.8346456692913385
                    },
                    {
                        "number": 11,
                        "time": 73.98958333333336,
                        "value": 0.84251968503937
                    },
                    {
                        "number": 11,
                        "time": 74.09375000000003,
                        "value": 0.8503937007874016
                    },
                    {
                        "number": 11,
                        "time": 74.18750000000003,
                        "value": 0.8582677165354331
                    },
                    {
                        "number": 11,
                        "time": 74.2916666666667,
                        "value": 0.8661417322834646
                    },
                    {
                        "number": 11,
                        "time": 74.39583333333337,
                        "value": 0.8740157480314961
                    },
                    {
                        "number": 11,
                        "time": 74.48958333333337,
                        "value": 0.8818897637795275
                    },
                    {
                        "number": 11,
                        "time": 74.59375000000004,
                        "value": 0.889763779527559
                    },
                    {
                        "number": 11,
                        "time": 74.68750000000004,
                        "value": 0.8976377952755905
                    },
                    {
                        "number": 11,
                        "time": 74.79166666666671,
                        "value": 0.905511811023622
                    },
                    {
                        "number": 11,
                        "time": 74.88541666666671,
                        "value": 0.9133858267716536
                    },
                    {
                        "number": 11,
                        "time": 74.98958333333339,
                        "value": 0.9212598425196851
                    },
                    {
                        "number": 11,
                        "time": 75.08333333333339,
                        "value": 0.9291338582677166
                    },
                    {
                        "number": 11,
                        "time": 75.18750000000006,
                        "value": 0.937007874015748
                    },
                    {
                        "number": 11,
                        "time": 75.28125000000007,
                        "value": 0.9448818897637795
                    }
                ],
                "32": [
                    {
                        "number": 32,
                        "time": 0.20833333333333334,
                        "value": 0.007874015748031496
                    }
                ],
                "91": [
                    {
                        "number": 91,
                        "time": 0.23958333333333331,
                        "value": 0.31496062992125984
                    }
                ],
                "93": [
                    {
                        "number": 93,
                        "time": 0.24999999999999997,
                        "value": 0.15748031496062992
                    }
                ],
                "98": [
                    {
                        "number": 98,
                        "time": 0.2708333333333333,
                        "value": 0.7795275590551181
                    },
                    {
                        "number": 98,
                        "time": 0.2916666666666667,
                        "value": 0.25196850393700787
                    }
                ],
                "99": [
                    {
                        "number": 99,
                        "time": 0.26041666666666663,
                        "value": 0.007874015748031496
                    }
                ]
            },
            "id": 1,
            "name": "G",
            "instrumentNumber": 40,
            "instrument": "violin",
            "instrumentFamily": "strings",
            "channelNumber": 0,
            "isPercussion": false
        },
        {
            "startTime": 1.5625000000000002,
            "duration": 77.72916666666671,
            "length": 282,
            "notes": [
                {
                    "name": "G#4",
                    "midi": 68,
                    "time": 1.5625000000000002,
                    "velocity": 0.9448818897637795,
                    "duration": 0.04166666666666674
                },
                {
                    "name": "G#4",
                    "midi": 68,
                    "time": 1.8750000000000002,
                    "velocity": 0.9448818897637795,
                    "duration": 0.04166666666666674
                },
                {
                    "name": "F#4",
                    "midi": 66,
                    "time": 2.0625000000000004,
                    "velocity": 0.9448818897637795,
                    "duration": 0.04166666666666652
                },
                {
                    "name": "F#4",
                    "midi": 66,
                    "time": 2.3750000000000004,
                    "velocity": 0.9448818897637795,
                    "duration": 0.04166666666666652
                },
                {
                    "name": "G#4",
                    "midi": 68,
                    "time": 2.5625000000000004,
                    "velocity": 0.9448818897637795,
                    "duration": 0.04166666666666652
                },
                {
                    "name": "G#4",
                    "midi": 68,
                    "time": 2.8750000000000004,
                    "velocity": 0.9448818897637795,
                    "duration": 0.04166666666666652
                },
                {
                    "name": "F#4",
                    "midi": 66,
                    "time": 3.0625000000000004,
                    "velocity": 0.9448818897637795,
                    "duration": 0.04166666666666652
                },
                {
                    "name": "F#4",
                    "midi": 66,
                    "time": 3.3750000000000004,
                    "velocity": 0.9448818897637795,
                    "duration": 0.04166666666666652
                },
                {
                    "name": "G#4",
                    "midi": 68,
                    "time": 3.5625000000000004,
                    "velocity": 0.9448818897637795,
                    "duration": 0.04166666666666652
                },
                {
                    "name": "G#4",
                    "midi": 68,
                    "time": 3.8750000000000004,
                    "velocity": 0.9448818897637795,
                    "duration": 0.04166666666666652
                },
                {
                    "name": "F#4",
                    "midi": 66,
                    "time": 4.0625,
                    "velocity": 0.9448818897637795,
                    "duration": 0.04166666666666696
                },
                {
                    "name": "F#4",
                    "midi": 66,
                    "time": 4.375,
                    "velocity": 0.9448818897637795,
                    "duration": 0.04166666666666696
                },
                {
                    "name": "G#4",
                    "midi": 68,
                    "time": 4.5625,
                    "velocity": 0.9448818897637795,
                    "duration": 0.04166666666666696
                },
                {
                    "name": "G#4",
                    "midi": 68,
                    "time": 4.875,
                    "velocity": 0.9448818897637795,
                    "duration": 0.04166666666666696
                },
                {
                    "name": "F#4",
                    "midi": 66,
                    "time": 5.0625,
                    "velocity": 0.9448818897637795,
                    "duration": 0.04166666666666696
                },
                {
                    "name": "F#4",
                    "midi": 66,
                    "time": 5.375,
                    "velocity": 0.9448818897637795,
                    "duration": 0.04166666666666696
                },
                {
                    "name": "E4",
                    "midi": 64,
                    "time": 5.5625,
                    "velocity": 0.9448818897637795,
                    "duration": 0.04166666666666696
                },
                {
                    "name": "E4",
                    "midi": 64,
                    "time": 5.875,
                    "velocity": 0.9448818897637795,
                    "duration": 0.04166666666666696
                },
                {
                    "name": "E4",
                    "midi": 64,
                    "time": 6.0625,
                    "velocity": 0.9448818897637795,
                    "duration": 0.04166666666666696
                },
                {
                    "name": "F#4",
                    "midi": 66,
                    "time": 6.5625,
                    "velocity": 0.9448818897637795,
                    "duration": 0.04166666666666696
                },
                {
                    "name": "F#4",
                    "midi": 66,
                    "time": 6.875,
                    "velocity": 0.9448818897637795,
                    "duration": 0.04166666666666696
                },
                {
                    "name": "F#4",
                    "midi": 66,
                    "time": 7.0625,
                    "velocity": 0.9448818897637795,
                    "duration": 0.04166666666666696
                },
                {
                    "name": "B4",
                    "midi": 71,
                    "time": 7.5625,
                    "velocity": 0.9448818897637795,
                    "duration": 0.04166666666666696
                },
                {
                    "name": "B4",
                    "midi": 71,
                    "time": 7.875,
                    "velocity": 0.9448818897637795,
                    "duration": 0.04166666666666696
                },
                {
                    "name": "B4",
                    "midi": 71,
                    "time": 8.0625,
                    "velocity": 0.9448818897637795,
                    "duration": 0.041666666666666075
                },
                {
                    "name": "B4",
                    "midi": 71,
                    "time": 8.375,
                    "velocity": 0.9448818897637795,
                    "duration": 0.041666666666666075
                },
                {
                    "name": "D#5",
                    "midi": 75,
                    "time": 8.5625,
                    "velocity": 0.9448818897637795,
                    "duration": 0.041666666666666075
                },
                {
                    "name": "D#5",
                    "midi": 75,
                    "time": 8.875,
                    "velocity": 0.9448818897637795,
                    "duration": 0.041666666666666075
                },
                {
                    "name": "E5",
                    "midi": 76,
                    "time": 9.0625,
                    "velocity": 0.9448818897637795,
                    "duration": 0.041666666666666075
                },
                {
                    "name": "E5",
                    "midi": 76,
                    "time": 9.375,
                    "velocity": 0.9448818897637795,
                    "duration": 0.041666666666666075
                },
                {
                    "name": "E5",
                    "midi": 76,
                    "time": 9.5625,
                    "velocity": 0.9448818897637795,
                    "duration": 0.041666666666666075
                },
                {
                    "name": "E5",
                    "midi": 76,
                    "time": 9.875,
                    "velocity": 0.9448818897637795,
                    "duration": 0.041666666666666075
                },
                {
                    "name": "G5",
                    "midi": 79,
                    "time": 10.0625,
                    "velocity": 0.9448818897637795,
                    "duration": 0.041666666666666075
                },
                {
                    "name": "G5",
                    "midi": 79,
                    "time": 10.375,
                    "velocity": 0.9448818897637795,
                    "duration": 0.041666666666666075
                },
                {
                    "name": "A#5",
                    "midi": 82,
                    "time": 10.562499999999998,
                    "velocity": 0.9448818897637795,
                    "duration": 0.041666666666666075
                },
                {
                    "name": "A#5",
                    "midi": 82,
                    "time": 10.874999999999998,
                    "velocity": 0.9448818897637795,
                    "duration": 0.041666666666666075
                },
                {
                    "name": "G5",
                    "midi": 79,
                    "time": 11.062499999999998,
                    "velocity": 0.9448818897637795,
                    "duration": 0.041666666666666075
                },
                {
                    "name": "G5",
                    "midi": 79,
                    "time": 11.374999999999998,
                    "velocity": 0.9448818897637795,
                    "duration": 0.041666666666666075
                },
                {
                    "name": "E5",
                    "midi": 76,
                    "time": 11.562499999999998,
                    "velocity": 0.9448818897637795,
                    "duration": 0.041666666666666075
                },
                {
                    "name": "E5",
                    "midi": 76,
                    "time": 11.874999999999998,
                    "velocity": 0.9448818897637795,
                    "duration": 0.041666666666666075
                },
                {
                    "name": "C#5",
                    "midi": 73,
                    "time": 12.062499999999998,
                    "velocity": 0.9448818897637795,
                    "duration": 0.041666666666666075
                },
                {
                    "name": "C#5",
                    "midi": 73,
                    "time": 12.374999999999998,
                    "velocity": 0.9448818897637795,
                    "duration": 0.041666666666666075
                },
                {
                    "name": "A#4",
                    "midi": 70,
                    "time": 12.562499999999998,
                    "velocity": 0.9448818897637795,
                    "duration": 0.041666666666666075
                },
                {
                    "name": "A#4",
                    "midi": 70,
                    "time": 12.874999999999998,
                    "velocity": 0.9448818897637795,
                    "duration": 0.041666666666666075
                },
                {
                    "name": "F#4",
                    "midi": 66,
                    "time": 13.062499999999996,
                    "velocity": 0.9448818897637795,
                    "duration": 0.041666666666666075
                },
                {
                    "name": "D#4",
                    "midi": 63,
                    "time": 13.562499999999996,
                    "velocity": 0.9448818897637795,
                    "duration": 0.041666666666666075
                },
                {
                    "name": "D#4",
                    "midi": 63,
                    "time": 13.874999999999996,
                    "velocity": 0.9448818897637795,
                    "duration": 0.041666666666666075
                },
                {
                    "name": "E4",
                    "midi": 64,
                    "time": 14.062499999999996,
                    "velocity": 0.9448818897637795,
                    "duration": 0.041666666666666075
                },
                {
                    "name": "D#4",
                    "midi": 63,
                    "time": 14.562499999999996,
                    "velocity": 0.9448818897637795,
                    "duration": 0.041666666666666075
                },
                {
                    "name": "D#4",
                    "midi": 63,
                    "time": 14.874999999999996,
                    "velocity": 0.9448818897637795,
                    "duration": 0.041666666666666075
                },
                {
                    "name": "E4",
                    "midi": 64,
                    "time": 15.062499999999996,
                    "velocity": 0.9448818897637795,
                    "duration": 0.041666666666666075
                },
                {
                    "name": "E4",
                    "midi": 64,
                    "time": 15.624999999999996,
                    "velocity": 0.9448818897637795,
                    "duration": 0.09375
                },
                {
                    "name": "G#4",
                    "midi": 68,
                    "time": 15.874999999999996,
                    "velocity": 0.9448818897637795,
                    "duration": 0.09375
                },
                {
                    "name": "A4",
                    "midi": 69,
                    "time": 16.124999999999996,
                    "velocity": 0.9448818897637795,
                    "duration": 0.09375
                },
                {
                    "name": "A#4",
                    "midi": 70,
                    "time": 16.374999999999996,
                    "velocity": 0.9448818897637795,
                    "duration": 0.09375
                },
                {
                    "name": "G#4",
                    "midi": 68,
                    "time": 16.624999999999996,
                    "velocity": 0.9448818897637795,
                    "duration": 0.09375
                },
                {
                    "name": "F#4",
                    "midi": 66,
                    "time": 16.874999999999996,
                    "velocity": 0.9448818897637795,
                    "duration": 0.09375
                },
                {
                    "name": "B4",
                    "midi": 71,
                    "time": 17.249999999999996,
                    "velocity": 0.9448818897637795,
                    "duration": 0.2291666666666785
                },
                {
                    "name": "G4",
                    "midi": 67,
                    "time": 17.687500000000007,
                    "velocity": 0.9448818897637795,
                    "duration": 0.04166666666666785
                },
                {
                    "name": "G4",
                    "midi": 67,
                    "time": 18.000000000000007,
                    "velocity": 0.9448818897637795,
                    "duration": 0.04166666666666785
                },
                {
                    "name": "F#4",
                    "midi": 66,
                    "time": 18.187500000000007,
                    "velocity": 0.9448818897637795,
                    "duration": 0.04166666666666785
                },
                {
                    "name": "F#4",
                    "midi": 66,
                    "time": 18.500000000000007,
                    "velocity": 0.9448818897637795,
                    "duration": 0.04166666666666785
                },
                {
                    "name": "G4",
                    "midi": 67,
                    "time": 18.687500000000007,
                    "velocity": 0.9448818897637795,
                    "duration": 0.04166666666666785
                },
                {
                    "name": "G4",
                    "midi": 67,
                    "time": 19.000000000000007,
                    "velocity": 0.9448818897637795,
                    "duration": 0.04166666666666785
                },
                {
                    "name": "F#4",
                    "midi": 66,
                    "time": 19.187500000000007,
                    "velocity": 0.9448818897637795,
                    "duration": 0.04166666666666785
                },
                {
                    "name": "F#4",
                    "midi": 66,
                    "time": 19.500000000000007,
                    "velocity": 0.9448818897637795,
                    "duration": 0.04166666666666785
                },
                {
                    "name": "G4",
                    "midi": 67,
                    "time": 19.687500000000007,
                    "velocity": 0.9448818897637795,
                    "duration": 0.04166666666666785
                },
                {
                    "name": "G4",
                    "midi": 67,
                    "time": 20.000000000000007,
                    "velocity": 0.9448818897637795,
                    "duration": 0.04166666666666785
                },
                {
                    "name": "F#4",
                    "midi": 66,
                    "time": 20.187500000000007,
                    "velocity": 0.9448818897637795,
                    "duration": 0.04166666666666785
                },
                {
                    "name": "F#4",
                    "midi": 66,
                    "time": 20.500000000000007,
                    "velocity": 0.9448818897637795,
                    "duration": 0.04166666666666785
                },
                {
                    "name": "G4",
                    "midi": 67,
                    "time": 20.687500000000007,
                    "velocity": 0.9448818897637795,
                    "duration": 0.04166666666666785
                },
                {
                    "name": "G4",
                    "midi": 67,
                    "time": 21.000000000000007,
                    "velocity": 0.9448818897637795,
                    "duration": 0.04166666666666785
                },
                {
                    "name": "F#4",
                    "midi": 66,
                    "time": 21.187500000000007,
                    "velocity": 0.9448818897637795,
                    "duration": 0.04166666666666785
                },
                {
                    "name": "F#4",
                    "midi": 66,
                    "time": 21.500000000000007,
                    "velocity": 0.9448818897637795,
                    "duration": 0.04166666666666785
                },
                {
                    "name": "F#4",
                    "midi": 66,
                    "time": 21.687500000000007,
                    "velocity": 0.9448818897637795,
                    "duration": 0.04166666666666785
                },
                {
                    "name": "F#4",
                    "midi": 66,
                    "time": 22.000000000000007,
                    "velocity": 0.9448818897637795,
                    "duration": 0.04166666666666785
                },
                {
                    "name": "F#4",
                    "midi": 66,
                    "time": 22.187500000000007,
                    "velocity": 0.9448818897637795,
                    "duration": 0.04166666666666785
                },
                {
                    "name": "F#4",
                    "midi": 66,
                    "time": 22.500000000000007,
                    "velocity": 0.9448818897637795,
                    "duration": 0.04166666666666785
                },
                {
                    "name": "F#4",
                    "midi": 66,
                    "time": 22.687500000000007,
                    "velocity": 0.9448818897637795,
                    "duration": 0.04166666666666785
                },
                {
                    "name": "F#4",
                    "midi": 66,
                    "time": 23.000000000000007,
                    "velocity": 0.9448818897637795,
                    "duration": 0.04166666666666785
                },
                {
                    "name": "G4",
                    "midi": 67,
                    "time": 25.187500000000007,
                    "velocity": 0.9448818897637795,
                    "duration": 0.04166666666666785
                },
                {
                    "name": "A4",
                    "midi": 69,
                    "time": 25.500000000000007,
                    "velocity": 0.9448818897637795,
                    "duration": 0.08333333333333215
                },
                {
                    "name": "A4",
                    "midi": 69,
                    "time": 25.687500000000007,
                    "velocity": 0.9448818897637795,
                    "duration": 0.0416666666666643
                },
                {
                    "name": "B4",
                    "midi": 71,
                    "time": 26.000000000000004,
                    "velocity": 0.9448818897637795,
                    "duration": 0.08333333333333215
                },
                {
                    "name": "B4",
                    "midi": 71,
                    "time": 26.187500000000004,
                    "velocity": 0.9448818897637795,
                    "duration": 0.04166666666666785
                },
                {
                    "name": "D5",
                    "midi": 74,
                    "time": 26.500000000000004,
                    "velocity": 0.9448818897637795,
                    "duration": 0.08333333333333215
                },
                {
                    "name": "D5",
                    "midi": 74,
                    "time": 26.75,
                    "velocity": 0.9448818897637795,
                    "duration": 0.08333333333333215
                },
                {
                    "name": "F#5",
                    "midi": 78,
                    "time": 27,
                    "velocity": 0.9448818897637795,
                    "duration": 0.08333333333333215
                },
                {
                    "name": "G5",
                    "midi": 79,
                    "time": 27.249999999999996,
                    "velocity": 0.9448818897637795,
                    "duration": 0.08333333333333215
                },
                {
                    "name": "G5",
                    "midi": 79,
                    "time": 27.499999999999996,
                    "velocity": 0.9448818897637795,
                    "duration": 0.08333333333333215
                },
                {
                    "name": "A#5",
                    "midi": 82,
                    "time": 27.687499999999993,
                    "velocity": 0.9448818897637795,
                    "duration": 0.04166666666666785
                },
                {
                    "name": "B4",
                    "midi": 71,
                    "time": 28.83333333333333,
                    "velocity": 0.9448818897637795,
                    "duration": 0.04166666666666785
                },
                {
                    "name": "C5",
                    "midi": 72,
                    "time": 28.916666666666664,
                    "velocity": 0.9448818897637795,
                    "duration": 0.04166666666666785
                },
                {
                    "name": "G4",
                    "midi": 67,
                    "time": 29,
                    "velocity": 0.9448818897637795,
                    "duration": 0.04166666666666785
                },
                {
                    "name": "F#4",
                    "midi": 66,
                    "time": 29.083333333333336,
                    "velocity": 0.9448818897637795,
                    "duration": 0.04166666666666785
                },
                {
                    "name": "D#4",
                    "midi": 63,
                    "time": 29.72916666666667,
                    "velocity": 0.9448818897637795,
                    "duration": 0.04166666666666785
                },
                {
                    "name": "D#4",
                    "midi": 63,
                    "time": 30.04166666666667,
                    "velocity": 0.9448818897637795,
                    "duration": 0.04166666666666785
                },
                {
                    "name": "B4",
                    "midi": 71,
                    "time": 30.83333333333334,
                    "velocity": 0.9448818897637795,
                    "duration": 0.04166666666666785
                },
                {
                    "name": "C5",
                    "midi": 72,
                    "time": 30.916666666666675,
                    "velocity": 0.9448818897637795,
                    "duration": 0.04166666666666785
                },
                {
                    "name": "G4",
                    "midi": 67,
                    "time": 31.00000000000001,
                    "velocity": 0.9448818897637795,
                    "duration": 0.04166666666666785
                },
                {
                    "name": "F#4",
                    "midi": 66,
                    "time": 31.083333333333346,
                    "velocity": 0.9448818897637795,
                    "duration": 0.04166666666666785
                },
                {
                    "name": "D#4",
                    "midi": 63,
                    "time": 31.729166666666682,
                    "velocity": 0.9448818897637795,
                    "duration": 0.04166666666666785
                },
                {
                    "name": "D#4",
                    "midi": 63,
                    "time": 32.041666666666686,
                    "velocity": 0.9448818897637795,
                    "duration": 0.0416666666666643
                },
                {
                    "name": "B4",
                    "midi": 71,
                    "time": 32.83333333333335,
                    "velocity": 0.9448818897637795,
                    "duration": 0.0416666666666643
                },
                {
                    "name": "C5",
                    "midi": 72,
                    "time": 32.91666666666668,
                    "velocity": 0.9448818897637795,
                    "duration": 0.0416666666666643
                },
                {
                    "name": "G4",
                    "midi": 67,
                    "time": 33.00000000000001,
                    "velocity": 0.9448818897637795,
                    "duration": 0.0416666666666643
                },
                {
                    "name": "F#4",
                    "midi": 66,
                    "time": 33.083333333333336,
                    "velocity": 0.9448818897637795,
                    "duration": 0.0416666666666643
                },
                {
                    "name": "D#4",
                    "midi": 63,
                    "time": 34.166666666666664,
                    "velocity": 0.9448818897637795,
                    "duration": 0.0416666666666643
                },
                {
                    "name": "C5",
                    "midi": 72,
                    "time": 34.83333333333333,
                    "velocity": 0.9448818897637795,
                    "duration": 0.0416666666666643
                },
                {
                    "name": "A#4",
                    "midi": 70,
                    "time": 34.91666666666666,
                    "velocity": 0.9448818897637795,
                    "duration": 0.0416666666666643
                },
                {
                    "name": "G#4",
                    "midi": 68,
                    "time": 34.999999999999986,
                    "velocity": 0.9448818897637795,
                    "duration": 0.0416666666666643
                },
                {
                    "name": "G4",
                    "midi": 67,
                    "time": 35.083333333333314,
                    "velocity": 0.9448818897637795,
                    "duration": 0.0416666666666643
                },
                {
                    "name": "D#4",
                    "midi": 63,
                    "time": 35.22916666666664,
                    "velocity": 0.9448818897637795,
                    "duration": 0.0416666666666643
                },
                {
                    "name": "D#4",
                    "midi": 63,
                    "time": 35.54166666666664,
                    "velocity": 0.9448818897637795,
                    "duration": 0.0416666666666643
                },
                {
                    "name": "D#4",
                    "midi": 63,
                    "time": 35.72916666666664,
                    "velocity": 0.9448818897637795,
                    "duration": 0.0416666666666643
                },
                {
                    "name": "D#4",
                    "midi": 63,
                    "time": 36.04166666666664,
                    "velocity": 0.9448818897637795,
                    "duration": 0.0416666666666643
                },
                {
                    "name": "E4",
                    "midi": 64,
                    "time": 36.16666666666664,
                    "velocity": 0.9448818897637795,
                    "duration": 0.0416666666666643
                },
                {
                    "name": "B4",
                    "midi": 71,
                    "time": 36.91666666666664,
                    "velocity": 0.9448818897637795,
                    "duration": 0.0416666666666643
                },
                {
                    "name": "C#5",
                    "midi": 73,
                    "time": 36.99999999999997,
                    "velocity": 0.9448818897637795,
                    "duration": 0.0416666666666643
                },
                {
                    "name": "G#4",
                    "midi": 68,
                    "time": 37.0833333333333,
                    "velocity": 0.9448818897637795,
                    "duration": 0.0416666666666643
                },
                {
                    "name": "E4",
                    "midi": 64,
                    "time": 37.22916666666663,
                    "velocity": 0.9448818897637795,
                    "duration": 0.0416666666666643
                },
                {
                    "name": "E4",
                    "midi": 64,
                    "time": 37.54166666666663,
                    "velocity": 0.9448818897637795,
                    "duration": 0.0416666666666643
                },
                {
                    "name": "E4",
                    "midi": 64,
                    "time": 37.72916666666663,
                    "velocity": 0.9448818897637795,
                    "duration": 0.0416666666666643
                },
                {
                    "name": "E4",
                    "midi": 64,
                    "time": 38.04166666666663,
                    "velocity": 0.9448818897637795,
                    "duration": 0.0416666666666643
                },
                {
                    "name": "F4",
                    "midi": 65,
                    "time": 38.16666666666663,
                    "velocity": 0.9448818897637795,
                    "duration": 0.0416666666666643
                },
                {
                    "name": "C5",
                    "midi": 72,
                    "time": 38.91666666666663,
                    "velocity": 0.9448818897637795,
                    "duration": 0.0416666666666643
                },
                {
                    "name": "A#4",
                    "midi": 70,
                    "time": 38.99999999999996,
                    "velocity": 0.9448818897637795,
                    "duration": 0.0416666666666643
                },
                {
                    "name": "F4",
                    "midi": 65,
                    "time": 39.22916666666662,
                    "velocity": 0.9448818897637795,
                    "duration": 0.0416666666666643
                },
                {
                    "name": "F4",
                    "midi": 65,
                    "time": 39.541666666666615,
                    "velocity": 0.9448818897637795,
                    "duration": 0.0416666666666643
                },
                {
                    "name": "F4",
                    "midi": 65,
                    "time": 39.729166666666615,
                    "velocity": 0.9448818897637795,
                    "duration": 0.0416666666666643
                },
                {
                    "name": "F4",
                    "midi": 65,
                    "time": 40.041666666666615,
                    "velocity": 0.9448818897637795,
                    "duration": 0.0416666666666643
                },
                {
                    "name": "F#4",
                    "midi": 66,
                    "time": 40.229166666666615,
                    "velocity": 0.9448818897637795,
                    "duration": 0.0416666666666643
                },
                {
                    "name": "F#4",
                    "midi": 66,
                    "time": 40.541666666666615,
                    "velocity": 0.9448818897637795,
                    "duration": 0.0416666666666643
                },
                {
                    "name": "F#4",
                    "midi": 66,
                    "time": 40.729166666666615,
                    "velocity": 0.9448818897637795,
                    "duration": 0.0416666666666643
                },
                {
                    "name": "F#4",
                    "midi": 66,
                    "time": 41.04166666666661,
                    "velocity": 0.9448818897637795,
                    "duration": 0.0416666666666643
                },
                {
                    "name": "F#4",
                    "midi": 66,
                    "time": 41.22916666666661,
                    "velocity": 0.9448818897637795,
                    "duration": 0.0416666666666643
                },
                {
                    "name": "F#4",
                    "midi": 66,
                    "time": 41.54166666666661,
                    "velocity": 0.9448818897637795,
                    "duration": 0.041666666666671404
                },
                {
                    "name": "F#4",
                    "midi": 66,
                    "time": 41.729166666666615,
                    "velocity": 0.9448818897637795,
                    "duration": 0.0416666666666643
                },
                {
                    "name": "F#4",
                    "midi": 66,
                    "time": 42.041666666666615,
                    "velocity": 0.9448818897637795,
                    "duration": 0.0416666666666643
                },
                {
                    "name": "G4",
                    "midi": 67,
                    "time": 42.229166666666615,
                    "velocity": 0.9448818897637795,
                    "duration": 0.0416666666666643
                },
                {
                    "name": "G4",
                    "midi": 67,
                    "time": 42.54166666666661,
                    "velocity": 0.9448818897637795,
                    "duration": 0.0416666666666643
                },
                {
                    "name": "G4",
                    "midi": 67,
                    "time": 42.72916666666661,
                    "velocity": 0.9448818897637795,
                    "duration": 0.0416666666666643
                },
                {
                    "name": "G4",
                    "midi": 67,
                    "time": 43.04166666666661,
                    "velocity": 0.9448818897637795,
                    "duration": 0.041666666666671404
                },
                {
                    "name": "G4",
                    "midi": 67,
                    "time": 43.229166666666615,
                    "velocity": 0.9448818897637795,
                    "duration": 0.0416666666666643
                },
                {
                    "name": "G4",
                    "midi": 67,
                    "time": 43.541666666666615,
                    "velocity": 0.9448818897637795,
                    "duration": 0.0416666666666643
                },
                {
                    "name": "G4",
                    "midi": 67,
                    "time": 43.729166666666615,
                    "velocity": 0.9448818897637795,
                    "duration": 0.0416666666666643
                },
                {
                    "name": "G4",
                    "midi": 67,
                    "time": 44.041666666666615,
                    "velocity": 0.9448818897637795,
                    "duration": 0.0416666666666643
                },
                {
                    "name": "G#4",
                    "midi": 68,
                    "time": 44.229166666666615,
                    "velocity": 0.9448818897637795,
                    "duration": 0.0416666666666643
                },
                {
                    "name": "G#4",
                    "midi": 68,
                    "time": 44.541666666666615,
                    "velocity": 0.9448818897637795,
                    "duration": 0.041666666666671404
                },
                {
                    "name": "G#4",
                    "midi": 68,
                    "time": 44.72916666666662,
                    "velocity": 0.9448818897637795,
                    "duration": 0.0416666666666643
                },
                {
                    "name": "G#4",
                    "midi": 68,
                    "time": 45.04166666666662,
                    "velocity": 0.9448818897637795,
                    "duration": 0.0416666666666643
                },
                {
                    "name": "F4",
                    "midi": 65,
                    "time": 45.729166666666615,
                    "velocity": 0.9448818897637795,
                    "duration": 0.0416666666666643
                },
                {
                    "name": "F4",
                    "midi": 65,
                    "time": 46.041666666666615,
                    "velocity": 0.9448818897637795,
                    "duration": 0.0416666666666643
                },
                {
                    "name": "D#4",
                    "midi": 63,
                    "time": 46.229166666666615,
                    "velocity": 0.9448818897637795,
                    "duration": 0.0416666666666643
                },
                {
                    "name": "D#4",
                    "midi": 63,
                    "time": 46.541666666666615,
                    "velocity": 0.9448818897637795,
                    "duration": 0.0416666666666643
                },
                {
                    "name": "F4",
                    "midi": 65,
                    "time": 46.729166666666615,
                    "velocity": 0.9448818897637795,
                    "duration": 0.0416666666666643
                },
                {
                    "name": "F4",
                    "midi": 65,
                    "time": 47.041666666666615,
                    "velocity": 0.9448818897637795,
                    "duration": 0.0416666666666643
                },
                {
                    "name": "D#4",
                    "midi": 63,
                    "time": 47.229166666666615,
                    "velocity": 0.9448818897637795,
                    "duration": 0.0416666666666643
                },
                {
                    "name": "D#4",
                    "midi": 63,
                    "time": 47.541666666666615,
                    "velocity": 0.9448818897637795,
                    "duration": 0.0416666666666643
                },
                {
                    "name": "E4",
                    "midi": 64,
                    "time": 47.729166666666615,
                    "velocity": 0.9448818897637795,
                    "duration": 0.0416666666666643
                },
                {
                    "name": "D#4",
                    "midi": 63,
                    "time": 48.041666666666615,
                    "velocity": 0.9448818897637795,
                    "duration": 0.0416666666666643
                },
                {
                    "name": "D#4",
                    "midi": 63,
                    "time": 48.229166666666615,
                    "velocity": 0.9448818897637795,
                    "duration": 0.0416666666666643
                },
                {
                    "name": "D#4",
                    "midi": 63,
                    "time": 48.541666666666615,
                    "velocity": 0.9448818897637795,
                    "duration": 0.0416666666666643
                },
                {
                    "name": "E4",
                    "midi": 64,
                    "time": 48.729166666666615,
                    "velocity": 0.9448818897637795,
                    "duration": 0.0416666666666643
                },
                {
                    "name": "E4",
                    "midi": 64,
                    "time": 49.041666666666615,
                    "velocity": 0.9448818897637795,
                    "duration": 0.0416666666666643
                },
                {
                    "name": "D#4",
                    "midi": 63,
                    "time": 49.229166666666615,
                    "velocity": 0.9448818897637795,
                    "duration": 0.0416666666666643
                },
                {
                    "name": "D#4",
                    "midi": 63,
                    "time": 49.541666666666615,
                    "velocity": 0.9448818897637795,
                    "duration": 0.0416666666666643
                },
                {
                    "name": "E4",
                    "midi": 64,
                    "time": 49.729166666666615,
                    "velocity": 0.9448818897637795,
                    "duration": 0.041666666666671404
                },
                {
                    "name": "E4",
                    "midi": 64,
                    "time": 50.041666666666615,
                    "velocity": 0.9448818897637795,
                    "duration": 0.0416666666666643
                },
                {
                    "name": "G#4",
                    "midi": 68,
                    "time": 50.229166666666615,
                    "velocity": 0.9448818897637795,
                    "duration": 0.0416666666666643
                },
                {
                    "name": "G#4",
                    "midi": 68,
                    "time": 50.54166666666661,
                    "velocity": 0.9448818897637795,
                    "duration": 0.041666666666671404
                },
                {
                    "name": "E4",
                    "midi": 64,
                    "time": 50.729166666666615,
                    "velocity": 0.9448818897637795,
                    "duration": 0.0416666666666643
                },
                {
                    "name": "E4",
                    "midi": 64,
                    "time": 51.04166666666661,
                    "velocity": 0.9448818897637795,
                    "duration": 0.0416666666666643
                },
                {
                    "name": "G4",
                    "midi": 67,
                    "time": 51.2291666666666,
                    "velocity": 0.9448818897637795,
                    "duration": 0.0416666666666643
                },
                {
                    "name": "G4",
                    "midi": 67,
                    "time": 51.5416666666666,
                    "velocity": 0.9448818897637795,
                    "duration": 0.0416666666666643
                },
                {
                    "name": "F#4",
                    "midi": 66,
                    "time": 51.7916666666666,
                    "velocity": 0.9448818897637795,
                    "duration": 0.09375
                },
                {
                    "name": "F#4",
                    "midi": 66,
                    "time": 52.0416666666666,
                    "velocity": 0.9448818897637795,
                    "duration": 0.09375
                },
                {
                    "name": "E4",
                    "midi": 64,
                    "time": 52.2916666666666,
                    "velocity": 0.9448818897637795,
                    "duration": 0.09375
                },
                {
                    "name": "E4",
                    "midi": 64,
                    "time": 52.5416666666666,
                    "velocity": 0.9448818897637795,
                    "duration": 0.09375
                },
                {
                    "name": "G#4",
                    "midi": 68,
                    "time": 52.7916666666666,
                    "velocity": 0.9448818897637795,
                    "duration": 0.09375
                },
                {
                    "name": "F#4",
                    "midi": 66,
                    "time": 53.0416666666666,
                    "velocity": 0.9448818897637795,
                    "duration": 0.09375
                },
                {
                    "name": "B4",
                    "midi": 71,
                    "time": 53.4166666666666,
                    "velocity": 0.9448818897637795,
                    "duration": 0.22916666666664298
                },
                {
                    "name": "G#4",
                    "midi": 68,
                    "time": 53.85416666666658,
                    "velocity": 0.9448818897637795,
                    "duration": 0.0416666666666643
                },
                {
                    "name": "G#4",
                    "midi": 68,
                    "time": 54.16666666666658,
                    "velocity": 0.9448818897637795,
                    "duration": 0.0416666666666643
                },
                {
                    "name": "A4",
                    "midi": 69,
                    "time": 54.35416666666658,
                    "velocity": 0.9448818897637795,
                    "duration": 0.0416666666666643
                },
                {
                    "name": "A4",
                    "midi": 69,
                    "time": 54.66666666666658,
                    "velocity": 0.9448818897637795,
                    "duration": 0.0416666666666643
                },
                {
                    "name": "G4",
                    "midi": 67,
                    "time": 54.85416666666658,
                    "velocity": 0.9448818897637795,
                    "duration": 0.0416666666666643
                },
                {
                    "name": "G4",
                    "midi": 67,
                    "time": 55.16666666666658,
                    "velocity": 0.9448818897637795,
                    "duration": 0.0416666666666643
                },
                {
                    "name": "G#4",
                    "midi": 68,
                    "time": 55.35416666666658,
                    "velocity": 0.9448818897637795,
                    "duration": 0.0416666666666643
                },
                {
                    "name": "G#4",
                    "midi": 68,
                    "time": 56.35416666666658,
                    "velocity": 0.9448818897637795,
                    "duration": 0.0416666666666643
                },
                {
                    "name": "G#4",
                    "midi": 68,
                    "time": 56.66666666666658,
                    "velocity": 0.9448818897637795,
                    "duration": 0.0416666666666643
                },
                {
                    "name": "F#4",
                    "midi": 66,
                    "time": 56.85416666666658,
                    "velocity": 0.9448818897637795,
                    "duration": 0.0416666666666643
                },
                {
                    "name": "F#4",
                    "midi": 66,
                    "time": 57.16666666666658,
                    "velocity": 0.9448818897637795,
                    "duration": 0.0416666666666643
                },
                {
                    "name": "G#4",
                    "midi": 68,
                    "time": 57.35416666666658,
                    "velocity": 0.9448818897637795,
                    "duration": 0.0416666666666643
                },
                {
                    "name": "B4",
                    "midi": 71,
                    "time": 57.85416666666658,
                    "velocity": 0.9448818897637795,
                    "duration": 0.0416666666666643
                },
                {
                    "name": "B4",
                    "midi": 71,
                    "time": 58.16666666666658,
                    "velocity": 0.9448818897637795,
                    "duration": 0.0416666666666643
                },
                {
                    "name": "C5",
                    "midi": 72,
                    "time": 58.35416666666658,
                    "velocity": 0.9448818897637795,
                    "duration": 0.0416666666666643
                },
                {
                    "name": "C5",
                    "midi": 72,
                    "time": 58.66666666666658,
                    "velocity": 0.9448818897637795,
                    "duration": 0.0416666666666643
                },
                {
                    "name": "A#4",
                    "midi": 70,
                    "time": 58.85416666666658,
                    "velocity": 0.9448818897637795,
                    "duration": 0.0416666666666643
                },
                {
                    "name": "A#4",
                    "midi": 70,
                    "time": 59.16666666666658,
                    "velocity": 0.9448818897637795,
                    "duration": 0.0416666666666643
                },
                {
                    "name": "B4",
                    "midi": 71,
                    "time": 59.35416666666658,
                    "velocity": 0.9448818897637795,
                    "duration": 0.0416666666666643
                },
                {
                    "name": "G#4",
                    "midi": 68,
                    "time": 59.54166666666658,
                    "velocity": 0.9448818897637795,
                    "duration": 0.0416666666666643
                },
                {
                    "name": "A4",
                    "midi": 69,
                    "time": 59.62499999999991,
                    "velocity": 0.9448818897637795,
                    "duration": 0.0416666666666643
                },
                {
                    "name": "B4",
                    "midi": 71,
                    "time": 59.708333333333236,
                    "velocity": 0.9448818897637795,
                    "duration": 0.0416666666666643
                },
                {
                    "name": "A4",
                    "midi": 69,
                    "time": 59.791666666666565,
                    "velocity": 0.9448818897637795,
                    "duration": 0.0416666666666643
                },
                {
                    "name": "B4",
                    "midi": 71,
                    "time": 59.87499999999989,
                    "velocity": 0.9448818897637795,
                    "duration": 0.0416666666666643
                },
                {
                    "name": "C#5",
                    "midi": 73,
                    "time": 59.95833333333322,
                    "velocity": 0.9448818897637795,
                    "duration": 0.0416666666666643
                },
                {
                    "name": "D#5",
                    "midi": 75,
                    "time": 60.04166666666655,
                    "velocity": 0.9448818897637795,
                    "duration": 0.0416666666666643
                },
                {
                    "name": "E5",
                    "midi": 76,
                    "time": 60.12499999999988,
                    "velocity": 0.9448818897637795,
                    "duration": 0.0416666666666643
                },
                {
                    "name": "F#5",
                    "midi": 78,
                    "time": 60.20833333333321,
                    "velocity": 0.9448818897637795,
                    "duration": 0.0416666666666643
                },
                {
                    "name": "E5",
                    "midi": 76,
                    "time": 60.354166666666536,
                    "velocity": 0.9448818897637795,
                    "duration": 0.0416666666666643
                },
                {
                    "name": "E5",
                    "midi": 76,
                    "time": 60.666666666666536,
                    "velocity": 0.9448818897637795,
                    "duration": 0.0416666666666643
                },
                {
                    "name": "D#5",
                    "midi": 75,
                    "time": 60.854166666666536,
                    "velocity": 0.9448818897637795,
                    "duration": 0.0416666666666643
                },
                {
                    "name": "D#5",
                    "midi": 75,
                    "time": 61.166666666666536,
                    "velocity": 0.9448818897637795,
                    "duration": 0.0416666666666643
                },
                {
                    "name": "B4",
                    "midi": 71,
                    "time": 61.354166666666536,
                    "velocity": 0.9448818897637795,
                    "duration": 0.0416666666666643
                },
                {
                    "name": "B4",
                    "midi": 71,
                    "time": 61.666666666666536,
                    "velocity": 0.9448818897637795,
                    "duration": 0.0416666666666643
                },
                {
                    "name": "C5",
                    "midi": 72,
                    "time": 61.854166666666536,
                    "velocity": 0.9448818897637795,
                    "duration": 0.0416666666666643
                },
                {
                    "name": "C5",
                    "midi": 72,
                    "time": 62.166666666666536,
                    "velocity": 0.9448818897637795,
                    "duration": 0.0416666666666643
                },
                {
                    "name": "B4",
                    "midi": 71,
                    "time": 62.354166666666536,
                    "velocity": 0.9448818897637795,
                    "duration": 0.0416666666666643
                },
                {
                    "name": "B4",
                    "midi": 71,
                    "time": 62.666666666666536,
                    "velocity": 0.9448818897637795,
                    "duration": 0.0416666666666643
                },
                {
                    "name": "C5",
                    "midi": 72,
                    "time": 62.854166666666536,
                    "velocity": 0.9448818897637795,
                    "duration": 0.0416666666666643
                },
                {
                    "name": "C5",
                    "midi": 72,
                    "time": 63.166666666666536,
                    "velocity": 0.9448818897637795,
                    "duration": 0.0416666666666643
                },
                {
                    "name": "B4",
                    "midi": 71,
                    "time": 63.354166666666536,
                    "velocity": 0.9448818897637795,
                    "duration": 0.0416666666666643
                },
                {
                    "name": "B4",
                    "midi": 71,
                    "time": 63.666666666666536,
                    "velocity": 0.9448818897637795,
                    "duration": 0.0416666666666643
                },
                {
                    "name": "A#4",
                    "midi": 70,
                    "time": 63.854166666666536,
                    "velocity": 0.9448818897637795,
                    "duration": 0.0416666666666643
                },
                {
                    "name": "B4",
                    "midi": 71,
                    "time": 64.79166666666653,
                    "velocity": 0.9448818897637795,
                    "duration": 0.041666666666671404
                },
                {
                    "name": "C#5",
                    "midi": 73,
                    "time": 64.87499999999987,
                    "velocity": 0.9448818897637795,
                    "duration": 0.041666666666671404
                },
                {
                    "name": "G#4",
                    "midi": 68,
                    "time": 64.95833333333321,
                    "velocity": 0.9448818897637795,
                    "duration": 0.041666666666671404
                },
                {
                    "name": "F#4",
                    "midi": 66,
                    "time": 65.04166666666656,
                    "velocity": 0.9448818897637795,
                    "duration": 0.041666666666671404
                },
                {
                    "name": "G#4",
                    "midi": 68,
                    "time": 65.1249999999999,
                    "velocity": 0.9448818897637795,
                    "duration": 0.041666666666671404
                },
                {
                    "name": "F#4",
                    "midi": 66,
                    "time": 65.20833333333324,
                    "velocity": 0.9448818897637795,
                    "duration": 0.041666666666671404
                },
                {
                    "name": "G#4",
                    "midi": 68,
                    "time": 65.35416666666659,
                    "velocity": 0.9448818897637795,
                    "duration": 0.041666666666671404
                },
                {
                    "name": "G#4",
                    "midi": 68,
                    "time": 65.66666666666659,
                    "velocity": 0.9448818897637795,
                    "duration": 0.041666666666671404
                },
                {
                    "name": "A4",
                    "midi": 69,
                    "time": 65.85416666666659,
                    "velocity": 0.9448818897637795,
                    "duration": 0.041666666666671404
                },
                {
                    "name": "A4",
                    "midi": 69,
                    "time": 66.16666666666659,
                    "velocity": 0.9448818897637795,
                    "duration": 0.041666666666671404
                },
                {
                    "name": "G#4",
                    "midi": 68,
                    "time": 66.35416666666659,
                    "velocity": 0.9448818897637795,
                    "duration": 0.041666666666671404
                },
                {
                    "name": "G#4",
                    "midi": 68,
                    "time": 66.66666666666659,
                    "velocity": 0.9448818897637795,
                    "duration": 0.041666666666671404
                },
                {
                    "name": "A4",
                    "midi": 69,
                    "time": 66.85416666666659,
                    "velocity": 0.9448818897637795,
                    "duration": 0.041666666666671404
                },
                {
                    "name": "A4",
                    "midi": 69,
                    "time": 67.16666666666659,
                    "velocity": 0.9448818897637795,
                    "duration": 0.041666666666671404
                },
                {
                    "name": "G#4",
                    "midi": 68,
                    "time": 67.35416666666659,
                    "velocity": 0.9448818897637795,
                    "duration": 0.041666666666671404
                },
                {
                    "name": "G#4",
                    "midi": 68,
                    "time": 67.66666666666659,
                    "velocity": 0.9448818897637795,
                    "duration": 0.041666666666671404
                },
                {
                    "name": "G4",
                    "midi": 67,
                    "time": 67.85416666666659,
                    "velocity": 0.9448818897637795,
                    "duration": 0.041666666666671404
                },
                {
                    "name": "G#4",
                    "midi": 68,
                    "time": 68.45833333333326,
                    "velocity": 0.9448818897637795,
                    "duration": 0.041666666666671404
                },
                {
                    "name": "D#4",
                    "midi": 63,
                    "time": 68.62499999999993,
                    "velocity": 0.9448818897637795,
                    "duration": 0.041666666666671404
                },
                {
                    "name": "E4",
                    "midi": 64,
                    "time": 68.70833333333327,
                    "velocity": 0.9448818897637795,
                    "duration": 0.041666666666671404
                },
                {
                    "name": "F#4",
                    "midi": 66,
                    "time": 68.79166666666661,
                    "velocity": 0.9448818897637795,
                    "duration": 0.041666666666671404
                },
                {
                    "name": "G#4",
                    "midi": 68,
                    "time": 68.87499999999996,
                    "velocity": 0.9448818897637795,
                    "duration": 0.041666666666671404
                },
                {
                    "name": "A4",
                    "midi": 69,
                    "time": 68.9583333333333,
                    "velocity": 0.9448818897637795,
                    "duration": 0.041666666666671404
                },
                {
                    "name": "B4",
                    "midi": 71,
                    "time": 69.04166666666664,
                    "velocity": 0.9448818897637795,
                    "duration": 0.041666666666671404
                },
                {
                    "name": "C#5",
                    "midi": 73,
                    "time": 69.12499999999999,
                    "velocity": 0.9448818897637795,
                    "duration": 0.041666666666671404
                },
                {
                    "name": "D#5",
                    "midi": 75,
                    "time": 69.20833333333333,
                    "velocity": 0.9448818897637795,
                    "duration": 0.041666666666671404
                },
                {
                    "name": "G#5",
                    "midi": 80,
                    "time": 69.35416666666667,
                    "velocity": 0.9448818897637795,
                    "duration": 0.041666666666671404
                },
                {
                    "name": "G#5",
                    "midi": 80,
                    "time": 69.66666666666667,
                    "velocity": 0.9448818897637795,
                    "duration": 0.041666666666671404
                },
                {
                    "name": "A5",
                    "midi": 81,
                    "time": 69.85416666666667,
                    "velocity": 0.9448818897637795,
                    "duration": 0.041666666666671404
                },
                {
                    "name": "A5",
                    "midi": 81,
                    "time": 70.16666666666667,
                    "velocity": 0.9448818897637795,
                    "duration": 0.041666666666671404
                },
                {
                    "name": "G#5",
                    "midi": 80,
                    "time": 70.35416666666667,
                    "velocity": 0.9448818897637795,
                    "duration": 0.041666666666671404
                },
                {
                    "name": "G#5",
                    "midi": 80,
                    "time": 70.66666666666667,
                    "velocity": 0.9448818897637795,
                    "duration": 0.041666666666671404
                },
                {
                    "name": "F#5",
                    "midi": 78,
                    "time": 70.85416666666667,
                    "velocity": 0.9448818897637795,
                    "duration": 0.041666666666671404
                },
                {
                    "name": "F#5",
                    "midi": 78,
                    "time": 71.16666666666667,
                    "velocity": 0.9448818897637795,
                    "duration": 0.041666666666671404
                },
                {
                    "name": "E5",
                    "midi": 76,
                    "time": 71.35416666666667,
                    "velocity": 0.9448818897637795,
                    "duration": 0.041666666666671404
                },
                {
                    "name": "E5",
                    "midi": 76,
                    "time": 71.66666666666667,
                    "velocity": 0.9448818897637795,
                    "duration": 0.041666666666671404
                },
                {
                    "name": "D#5",
                    "midi": 75,
                    "time": 71.85416666666667,
                    "velocity": 0.9448818897637795,
                    "duration": 0.041666666666671404
                },
                {
                    "name": "D#5",
                    "midi": 75,
                    "time": 72.16666666666667,
                    "velocity": 0.9448818897637795,
                    "duration": 0.041666666666671404
                },
                {
                    "name": "C#5",
                    "midi": 73,
                    "time": 72.35416666666667,
                    "velocity": 0.9448818897637795,
                    "duration": 0.041666666666671404
                },
                {
                    "name": "C#5",
                    "midi": 73,
                    "time": 72.66666666666667,
                    "velocity": 0.9448818897637795,
                    "duration": 0.041666666666671404
                },
                {
                    "name": "A4",
                    "midi": 69,
                    "time": 72.85416666666667,
                    "velocity": 0.9448818897637795,
                    "duration": 0.041666666666671404
                },
                {
                    "name": "A4",
                    "midi": 69,
                    "time": 73.16666666666667,
                    "velocity": 0.9448818897637795,
                    "duration": 0.041666666666671404
                },
                {
                    "name": "G#4",
                    "midi": 68,
                    "time": 73.35416666666667,
                    "velocity": 0.9448818897637795,
                    "duration": 0.041666666666671404
                },
                {
                    "name": "G#4",
                    "midi": 68,
                    "time": 73.66666666666669,
                    "velocity": 0.9448818897637795,
                    "duration": 0.041666666666671404
                },
                {
                    "name": "A4",
                    "midi": 69,
                    "time": 73.85416666666669,
                    "velocity": 0.9448818897637795,
                    "duration": 0.041666666666671404
                },
                {
                    "name": "A4",
                    "midi": 69,
                    "time": 74.1666666666667,
                    "velocity": 0.9448818897637795,
                    "duration": 0.04166666666665719
                },
                {
                    "name": "G#4",
                    "midi": 68,
                    "time": 74.35416666666669,
                    "velocity": 0.9448818897637795,
                    "duration": 0.041666666666671404
                },
                {
                    "name": "G#4",
                    "midi": 68,
                    "time": 74.6666666666667,
                    "velocity": 0.9448818897637795,
                    "duration": 0.04166666666665719
                },
                {
                    "name": "A4",
                    "midi": 69,
                    "time": 74.85416666666669,
                    "velocity": 0.9448818897637795,
                    "duration": 0.041666666666671404
                },
                {
                    "name": "A4",
                    "midi": 69,
                    "time": 75.16666666666669,
                    "velocity": 0.9448818897637795,
                    "duration": 0.04166666666665719
                },
                {
                    "name": "G#4",
                    "midi": 68,
                    "time": 75.41666666666669,
                    "velocity": 0.9448818897637795,
                    "duration": 0.0833333333333286
                },
                {
                    "name": "G#4",
                    "midi": 68,
                    "time": 75.91666666666669,
                    "velocity": 0.9448818897637795,
                    "duration": 0.0833333333333286
                },
                {
                    "name": "G#4",
                    "midi": 68,
                    "time": 76.35416666666669,
                    "velocity": 0.9448818897637795,
                    "duration": 0.041666666666671404
                },
                {
                    "name": "B4",
                    "midi": 71,
                    "time": 76.66666666666669,
                    "velocity": 0.9448818897637795,
                    "duration": 0.041666666666671404
                },
                {
                    "name": "G#4",
                    "midi": 68,
                    "time": 76.85416666666669,
                    "velocity": 0.9448818897637795,
                    "duration": 0.041666666666671404
                },
                {
                    "name": "B4",
                    "midi": 71,
                    "time": 77.16666666666669,
                    "velocity": 0.9448818897637795,
                    "duration": 0.041666666666671404
                },
                {
                    "name": "G#4",
                    "midi": 68,
                    "time": 77.35416666666669,
                    "velocity": 0.9448818897637795,
                    "duration": 0.3750000000000284
                }
            ],
            "controlChanges": {
                "1": [
                    {
                        "number": 1,
                        "time": 17.249999999999996,
                        "value": 0
                    },
                    {
                        "number": 1,
                        "time": 17.260416666666664,
                        "value": 0.03937007874015748
                    },
                    {
                        "number": 1,
                        "time": 17.270833333333332,
                        "value": 0.06299212598425197
                    },
                    {
                        "number": 1,
                        "time": 17.28125,
                        "value": 0.07874015748031496
                    },
                    {
                        "number": 1,
                        "time": 17.291666666666668,
                        "value": 0.09448818897637795
                    },
                    {
                        "number": 1,
                        "time": 17.302083333333336,
                        "value": 0.10236220472440945
                    },
                    {
                        "number": 1,
                        "time": 17.312500000000004,
                        "value": 0.11023622047244094
                    },
                    {
                        "number": 1,
                        "time": 17.32291666666667,
                        "value": 0.11811023622047244
                    },
                    {
                        "number": 1,
                        "time": 17.33333333333334,
                        "value": 0.12598425196850394
                    },
                    {
                        "number": 1,
                        "time": 17.343750000000007,
                        "value": 0.13385826771653545
                    },
                    {
                        "number": 1,
                        "time": 17.375000000000007,
                        "value": 0.14173228346456693
                    },
                    {
                        "number": 1,
                        "time": 17.500000000000007,
                        "value": 0
                    },
                    {
                        "number": 1,
                        "time": 53.4166666666666,
                        "value": 0
                    },
                    {
                        "number": 1,
                        "time": 53.427083333333265,
                        "value": 0.03937007874015748
                    },
                    {
                        "number": 1,
                        "time": 53.43749999999993,
                        "value": 0.06299212598425197
                    },
                    {
                        "number": 1,
                        "time": 53.44791666666659,
                        "value": 0.07874015748031496
                    },
                    {
                        "number": 1,
                        "time": 53.45833333333326,
                        "value": 0.09448818897637795
                    },
                    {
                        "number": 1,
                        "time": 53.46874999999992,
                        "value": 0.10236220472440945
                    },
                    {
                        "number": 1,
                        "time": 53.479166666666586,
                        "value": 0.11023622047244094
                    },
                    {
                        "number": 1,
                        "time": 53.48958333333325,
                        "value": 0.11811023622047244
                    },
                    {
                        "number": 1,
                        "time": 53.499999999999915,
                        "value": 0.12598425196850394
                    },
                    {
                        "number": 1,
                        "time": 53.51041666666658,
                        "value": 0.13385826771653545
                    },
                    {
                        "number": 1,
                        "time": 53.54166666666658,
                        "value": 0.14173228346456693
                    },
                    {
                        "number": 1,
                        "time": 53.66666666666658,
                        "value": 0
                    },
                    {
                        "number": 1,
                        "time": 77.35416666666669,
                        "value": 0
                    },
                    {
                        "number": 1,
                        "time": 77.36458333333336,
                        "value": 0.023622047244094488
                    },
                    {
                        "number": 1,
                        "time": 77.37500000000003,
                        "value": 0.03937007874015748
                    },
                    {
                        "number": 1,
                        "time": 77.3854166666667,
                        "value": 0.05511811023622047
                    },
                    {
                        "number": 1,
                        "time": 77.39583333333337,
                        "value": 0.07086614173228346
                    },
                    {
                        "number": 1,
                        "time": 77.40625000000004,
                        "value": 0.07874015748031496
                    },
                    {
                        "number": 1,
                        "time": 77.41666666666671,
                        "value": 0.09448818897637795
                    },
                    {
                        "number": 1,
                        "time": 77.42708333333339,
                        "value": 0.10236220472440945
                    },
                    {
                        "number": 1,
                        "time": 77.43750000000006,
                        "value": 0.11023622047244094
                    },
                    {
                        "number": 1,
                        "time": 77.44791666666673,
                        "value": 0.11811023622047244
                    },
                    {
                        "number": 1,
                        "time": 77.46875000000006,
                        "value": 0.12598425196850394
                    },
                    {
                        "number": 1,
                        "time": 77.47916666666673,
                        "value": 0.13385826771653545
                    },
                    {
                        "number": 1,
                        "time": 77.50000000000006,
                        "value": 0.14173228346456693
                    },
                    {
                        "number": 1,
                        "time": 77.53125000000006,
                        "value": 0.14960629921259844
                    },
                    {
                        "number": 1,
                        "time": 77.58333333333339,
                        "value": 0.15748031496062992
                    }
                ],
                "6": [
                    {
                        "number": 6,
                        "time": 0.3854166666666668,
                        "value": 0.4881889763779528
                    },
                    {
                        "number": 6,
                        "time": 0.40625000000000017,
                        "value": 0.4251968503937008
                    }
                ],
                "7": [
                    {
                        "number": 7,
                        "time": 0.33333333333333337,
                        "value": 0.9448818897637795
                    }
                ],
                "11": [
                    {
                        "number": 11,
                        "time": 1.0000000000000002,
                        "value": 0.7874015748031497
                    },
                    {
                        "number": 11,
                        "time": 8,
                        "value": 0.7874015748031497
                    },
                    {
                        "number": 11,
                        "time": 8.125,
                        "value": 0.7952755905511811
                    },
                    {
                        "number": 11,
                        "time": 8.25,
                        "value": 0.8031496062992126
                    },
                    {
                        "number": 11,
                        "time": 8.375,
                        "value": 0.8110236220472441
                    },
                    {
                        "number": 11,
                        "time": 8.5,
                        "value": 0.8188976377952756
                    },
                    {
                        "number": 11,
                        "time": 8.625,
                        "value": 0.8267716535433071
                    },
                    {
                        "number": 11,
                        "time": 8.75,
                        "value": 0.8346456692913385
                    },
                    {
                        "number": 11,
                        "time": 8.875,
                        "value": 0.84251968503937
                    },
                    {
                        "number": 11,
                        "time": 9,
                        "value": 0.8503937007874016
                    },
                    {
                        "number": 11,
                        "time": 9.125,
                        "value": 0.8582677165354331
                    },
                    {
                        "number": 11,
                        "time": 9.25,
                        "value": 0.8661417322834646
                    },
                    {
                        "number": 11,
                        "time": 9.375,
                        "value": 0.8740157480314961
                    },
                    {
                        "number": 11,
                        "time": 9.5,
                        "value": 0.8818897637795275
                    },
                    {
                        "number": 11,
                        "time": 9.625,
                        "value": 0.889763779527559
                    },
                    {
                        "number": 11,
                        "time": 9.75,
                        "value": 0.8976377952755905
                    },
                    {
                        "number": 11,
                        "time": 9.875,
                        "value": 0.905511811023622
                    },
                    {
                        "number": 11,
                        "time": 10,
                        "value": 0.9133858267716536
                    },
                    {
                        "number": 11,
                        "time": 10.125,
                        "value": 0.9212598425196851
                    },
                    {
                        "number": 11,
                        "time": 10.25,
                        "value": 0.9291338582677166
                    },
                    {
                        "number": 11,
                        "time": 10.375,
                        "value": 0.937007874015748
                    },
                    {
                        "number": 11,
                        "time": 10.489583333333332,
                        "value": 0.9448818897637795
                    },
                    {
                        "number": 11,
                        "time": 10.624999999999998,
                        "value": 0.937007874015748
                    },
                    {
                        "number": 11,
                        "time": 10.749999999999998,
                        "value": 0.9291338582677166
                    },
                    {
                        "number": 11,
                        "time": 10.874999999999998,
                        "value": 0.9212598425196851
                    },
                    {
                        "number": 11,
                        "time": 10.999999999999998,
                        "value": 0.9133858267716536
                    },
                    {
                        "number": 11,
                        "time": 11.124999999999998,
                        "value": 0.905511811023622
                    },
                    {
                        "number": 11,
                        "time": 11.249999999999998,
                        "value": 0.8976377952755905
                    },
                    {
                        "number": 11,
                        "time": 11.374999999999998,
                        "value": 0.889763779527559
                    },
                    {
                        "number": 11,
                        "time": 11.499999999999998,
                        "value": 0.8818897637795275
                    },
                    {
                        "number": 11,
                        "time": 11.624999999999998,
                        "value": 0.8740157480314961
                    },
                    {
                        "number": 11,
                        "time": 11.749999999999998,
                        "value": 0.8661417322834646
                    },
                    {
                        "number": 11,
                        "time": 11.874999999999998,
                        "value": 0.8582677165354331
                    },
                    {
                        "number": 11,
                        "time": 11.999999999999998,
                        "value": 0.8503937007874016
                    },
                    {
                        "number": 11,
                        "time": 12.124999999999998,
                        "value": 0.84251968503937
                    },
                    {
                        "number": 11,
                        "time": 12.249999999999998,
                        "value": 0.8346456692913385
                    },
                    {
                        "number": 11,
                        "time": 12.374999999999998,
                        "value": 0.8267716535433071
                    },
                    {
                        "number": 11,
                        "time": 12.499999999999998,
                        "value": 0.8188976377952756
                    },
                    {
                        "number": 11,
                        "time": 12.624999999999998,
                        "value": 0.8110236220472441
                    },
                    {
                        "number": 11,
                        "time": 12.749999999999998,
                        "value": 0.8031496062992126
                    },
                    {
                        "number": 11,
                        "time": 12.874999999999998,
                        "value": 0.7952755905511811
                    },
                    {
                        "number": 11,
                        "time": 12.98958333333333,
                        "value": 0.7874015748031497
                    },
                    {
                        "number": 11,
                        "time": 12.999999999999996,
                        "value": 0.7874015748031497
                    },
                    {
                        "number": 11,
                        "time": 13.124999999999996,
                        "value": 0.7952755905511811
                    },
                    {
                        "number": 11,
                        "time": 13.249999999999996,
                        "value": 0.8031496062992126
                    },
                    {
                        "number": 11,
                        "time": 13.374999999999996,
                        "value": 0.8110236220472441
                    },
                    {
                        "number": 11,
                        "time": 13.499999999999996,
                        "value": 0.8188976377952756
                    },
                    {
                        "number": 11,
                        "time": 13.624999999999996,
                        "value": 0.8267716535433071
                    },
                    {
                        "number": 11,
                        "time": 13.749999999999996,
                        "value": 0.8346456692913385
                    },
                    {
                        "number": 11,
                        "time": 13.874999999999996,
                        "value": 0.84251968503937
                    },
                    {
                        "number": 11,
                        "time": 13.999999999999996,
                        "value": 0.8503937007874016
                    },
                    {
                        "number": 11,
                        "time": 14.124999999999996,
                        "value": 0.8582677165354331
                    },
                    {
                        "number": 11,
                        "time": 14.249999999999996,
                        "value": 0.8661417322834646
                    },
                    {
                        "number": 11,
                        "time": 14.374999999999996,
                        "value": 0.8740157480314961
                    },
                    {
                        "number": 11,
                        "time": 14.499999999999996,
                        "value": 0.8818897637795275
                    },
                    {
                        "number": 11,
                        "time": 14.624999999999996,
                        "value": 0.889763779527559
                    },
                    {
                        "number": 11,
                        "time": 14.749999999999996,
                        "value": 0.8976377952755905
                    },
                    {
                        "number": 11,
                        "time": 14.874999999999996,
                        "value": 0.905511811023622
                    },
                    {
                        "number": 11,
                        "time": 14.999999999999996,
                        "value": 0.9133858267716536
                    },
                    {
                        "number": 11,
                        "time": 15.124999999999996,
                        "value": 0.9212598425196851
                    },
                    {
                        "number": 11,
                        "time": 15.249999999999996,
                        "value": 0.9291338582677166
                    },
                    {
                        "number": 11,
                        "time": 15.374999999999996,
                        "value": 0.937007874015748
                    },
                    {
                        "number": 11,
                        "time": 15.48958333333333,
                        "value": 0.9448818897637795
                    },
                    {
                        "number": 11,
                        "time": 17.625000000000007,
                        "value": 0.7874015748031497
                    },
                    {
                        "number": 11,
                        "time": 25.125000000000007,
                        "value": 0.7874015748031497
                    },
                    {
                        "number": 11,
                        "time": 25.270833333333343,
                        "value": 0.7952755905511811
                    },
                    {
                        "number": 11,
                        "time": 25.416666666666675,
                        "value": 0.8031496062992126
                    },
                    {
                        "number": 11,
                        "time": 25.562500000000007,
                        "value": 0.8110236220472441
                    },
                    {
                        "number": 11,
                        "time": 25.70833333333334,
                        "value": 0.8188976377952756
                    },
                    {
                        "number": 11,
                        "time": 25.85416666666667,
                        "value": 0.8267716535433071
                    },
                    {
                        "number": 11,
                        "time": 26.000000000000004,
                        "value": 0.8346456692913385
                    },
                    {
                        "number": 11,
                        "time": 26.145833333333336,
                        "value": 0.84251968503937
                    },
                    {
                        "number": 11,
                        "time": 26.29166666666667,
                        "value": 0.8503937007874016
                    },
                    {
                        "number": 11,
                        "time": 26.437500000000004,
                        "value": 0.8582677165354331
                    },
                    {
                        "number": 11,
                        "time": 26.583333333333336,
                        "value": 0.8661417322834646
                    },
                    {
                        "number": 11,
                        "time": 26.729166666666668,
                        "value": 0.8740157480314961
                    },
                    {
                        "number": 11,
                        "time": 26.875,
                        "value": 0.8818897637795275
                    },
                    {
                        "number": 11,
                        "time": 27.020833333333332,
                        "value": 0.889763779527559
                    },
                    {
                        "number": 11,
                        "time": 27.166666666666664,
                        "value": 0.8976377952755905
                    },
                    {
                        "number": 11,
                        "time": 27.312499999999996,
                        "value": 0.905511811023622
                    },
                    {
                        "number": 11,
                        "time": 27.45833333333333,
                        "value": 0.9133858267716536
                    },
                    {
                        "number": 11,
                        "time": 27.60416666666666,
                        "value": 0.9212598425196851
                    },
                    {
                        "number": 11,
                        "time": 27.749999999999993,
                        "value": 0.9291338582677166
                    },
                    {
                        "number": 11,
                        "time": 27.895833333333325,
                        "value": 0.937007874015748
                    },
                    {
                        "number": 11,
                        "time": 28.031249999999993,
                        "value": 0.9448818897637795
                    },
                    {
                        "number": 11,
                        "time": 28.04166666666666,
                        "value": 0.7874015748031497
                    },
                    {
                        "number": 11,
                        "time": 39.16666666666662,
                        "value": 0.7874015748031497
                    },
                    {
                        "number": 11,
                        "time": 39.46874999999995,
                        "value": 0.7952755905511811
                    },
                    {
                        "number": 11,
                        "time": 39.77083333333328,
                        "value": 0.8031496062992126
                    },
                    {
                        "number": 11,
                        "time": 40.072916666666615,
                        "value": 0.8110236220472441
                    },
                    {
                        "number": 11,
                        "time": 40.36458333333328,
                        "value": 0.8188976377952756
                    },
                    {
                        "number": 11,
                        "time": 40.666666666666615,
                        "value": 0.8267716535433071
                    },
                    {
                        "number": 11,
                        "time": 40.96874999999994,
                        "value": 0.8346456692913385
                    },
                    {
                        "number": 11,
                        "time": 41.27083333333327,
                        "value": 0.84251968503937
                    },
                    {
                        "number": 11,
                        "time": 41.56249999999994,
                        "value": 0.8503937007874016
                    },
                    {
                        "number": 11,
                        "time": 41.86458333333328,
                        "value": 0.8582677165354331
                    },
                    {
                        "number": 11,
                        "time": 42.166666666666615,
                        "value": 0.8661417322834646
                    },
                    {
                        "number": 11,
                        "time": 42.46874999999994,
                        "value": 0.8740157480314961
                    },
                    {
                        "number": 11,
                        "time": 42.76041666666661,
                        "value": 0.8818897637795275
                    },
                    {
                        "number": 11,
                        "time": 43.06249999999994,
                        "value": 0.889763779527559
                    },
                    {
                        "number": 11,
                        "time": 43.36458333333328,
                        "value": 0.8976377952755905
                    },
                    {
                        "number": 11,
                        "time": 43.666666666666615,
                        "value": 0.905511811023622
                    },
                    {
                        "number": 11,
                        "time": 43.95833333333328,
                        "value": 0.9133858267716536
                    },
                    {
                        "number": 11,
                        "time": 44.260416666666615,
                        "value": 0.9212598425196851
                    },
                    {
                        "number": 11,
                        "time": 44.56249999999995,
                        "value": 0.9291338582677166
                    },
                    {
                        "number": 11,
                        "time": 44.864583333333286,
                        "value": 0.937007874015748
                    },
                    {
                        "number": 11,
                        "time": 45.15624999999995,
                        "value": 0.9448818897637795
                    },
                    {
                        "number": 11,
                        "time": 45.666666666666615,
                        "value": 0.7086614173228346
                    },
                    {
                        "number": 11,
                        "time": 47.729166666666615,
                        "value": 0.7874015748031497
                    },
                    {
                        "number": 11,
                        "time": 49.666666666666615,
                        "value": 0.7874015748031497
                    },
                    {
                        "number": 11,
                        "time": 49.74999999999995,
                        "value": 0.7952755905511811
                    },
                    {
                        "number": 11,
                        "time": 49.82291666666662,
                        "value": 0.8031496062992126
                    },
                    {
                        "number": 11,
                        "time": 49.895833333333286,
                        "value": 0.8110236220472441
                    },
                    {
                        "number": 11,
                        "time": 49.96874999999995,
                        "value": 0.8188976377952756
                    },
                    {
                        "number": 11,
                        "time": 50.041666666666615,
                        "value": 0.8267716535433071
                    },
                    {
                        "number": 11,
                        "time": 50.11458333333328,
                        "value": 0.8346456692913385
                    },
                    {
                        "number": 11,
                        "time": 50.197916666666615,
                        "value": 0.84251968503937
                    },
                    {
                        "number": 11,
                        "time": 50.27083333333328,
                        "value": 0.8503937007874016
                    },
                    {
                        "number": 11,
                        "time": 50.34374999999994,
                        "value": 0.8582677165354331
                    },
                    {
                        "number": 11,
                        "time": 50.41666666666661,
                        "value": 0.8661417322834646
                    },
                    {
                        "number": 11,
                        "time": 50.48958333333327,
                        "value": 0.8740157480314961
                    },
                    {
                        "number": 11,
                        "time": 50.56249999999994,
                        "value": 0.8818897637795275
                    },
                    {
                        "number": 11,
                        "time": 50.635416666666615,
                        "value": 0.889763779527559
                    },
                    {
                        "number": 11,
                        "time": 50.71874999999995,
                        "value": 0.8976377952755905
                    },
                    {
                        "number": 11,
                        "time": 50.791666666666615,
                        "value": 0.905511811023622
                    },
                    {
                        "number": 11,
                        "time": 50.86458333333328,
                        "value": 0.9133858267716536
                    },
                    {
                        "number": 11,
                        "time": 50.93749999999994,
                        "value": 0.9212598425196851
                    },
                    {
                        "number": 11,
                        "time": 51.01041666666661,
                        "value": 0.9291338582677166
                    },
                    {
                        "number": 11,
                        "time": 51.08333333333327,
                        "value": 0.937007874015748
                    },
                    {
                        "number": 11,
                        "time": 51.156249999999936,
                        "value": 0.9448818897637795
                    },
                    {
                        "number": 11,
                        "time": 53.79166666666658,
                        "value": 0.7874015748031497
                    },
                    {
                        "number": 11,
                        "time": 73.29166666666667,
                        "value": 0.7874015748031497
                    },
                    {
                        "number": 11,
                        "time": 73.39583333333334,
                        "value": 0.7952755905511811
                    },
                    {
                        "number": 11,
                        "time": 73.50000000000001,
                        "value": 0.8031496062992126
                    },
                    {
                        "number": 11,
                        "time": 73.59375000000001,
                        "value": 0.8110236220472441
                    },
                    {
                        "number": 11,
                        "time": 73.69791666666669,
                        "value": 0.8188976377952756
                    },
                    {
                        "number": 11,
                        "time": 73.79166666666669,
                        "value": 0.8267716535433071
                    },
                    {
                        "number": 11,
                        "time": 73.89583333333336,
                        "value": 0.8346456692913385
                    },
                    {
                        "number": 11,
                        "time": 73.98958333333336,
                        "value": 0.84251968503937
                    },
                    {
                        "number": 11,
                        "time": 74.09375000000003,
                        "value": 0.8503937007874016
                    },
                    {
                        "number": 11,
                        "time": 74.18750000000003,
                        "value": 0.8582677165354331
                    },
                    {
                        "number": 11,
                        "time": 74.29166666666669,
                        "value": 0.8661417322834646
                    },
                    {
                        "number": 11,
                        "time": 74.39583333333336,
                        "value": 0.8740157480314961
                    },
                    {
                        "number": 11,
                        "time": 74.48958333333336,
                        "value": 0.8818897637795275
                    },
                    {
                        "number": 11,
                        "time": 74.59375000000003,
                        "value": 0.889763779527559
                    },
                    {
                        "number": 11,
                        "time": 74.68750000000003,
                        "value": 0.8976377952755905
                    },
                    {
                        "number": 11,
                        "time": 74.79166666666669,
                        "value": 0.905511811023622
                    },
                    {
                        "number": 11,
                        "time": 74.88541666666669,
                        "value": 0.9133858267716536
                    },
                    {
                        "number": 11,
                        "time": 74.98958333333336,
                        "value": 0.9212598425196851
                    },
                    {
                        "number": 11,
                        "time": 75.08333333333336,
                        "value": 0.9291338582677166
                    },
                    {
                        "number": 11,
                        "time": 75.18750000000001,
                        "value": 0.937007874015748
                    },
                    {
                        "number": 11,
                        "time": 75.28125000000001,
                        "value": 0.9448818897637795
                    }
                ],
                "32": [
                    {
                        "number": 32,
                        "time": 0.3125,
                        "value": 0.007874015748031496
                    }
                ],
                "91": [
                    {
                        "number": 91,
                        "time": 0.34375000000000006,
                        "value": 0.31496062992125984
                    }
                ],
                "93": [
                    {
                        "number": 93,
                        "time": 0.35416666666666674,
                        "value": 0.11811023622047244
                    }
                ],
                "98": [
                    {
                        "number": 98,
                        "time": 0.3750000000000001,
                        "value": 0.7795275590551181
                    },
                    {
                        "number": 98,
                        "time": 0.3958333333333335,
                        "value": 0.25196850393700787
                    }
                ],
                "99": [
                    {
                        "number": 99,
                        "time": 0.3645833333333334,
                        "value": 0.007874015748031496
                    }
                ]
            },
            "id": 2,
            "name": "D",
            "instrumentNumber": 40,
            "instrument": "violin",
            "instrumentFamily": "strings",
            "channelNumber": 1,
            "isPercussion": false
        },
        {
            "startTime": 1.625,
            "duration": 77.79166666666653,
            "length": 331,
            "notes": [
                {
                    "name": "B4",
                    "midi": 71,
                    "time": 1.625,
                    "velocity": 0.9448818897637795,
                    "duration": 0.04166666666666674
                },
                {
                    "name": "B4",
                    "midi": 71,
                    "time": 1.8125,
                    "velocity": 0.9448818897637795,
                    "duration": 0.04166666666666674
                },
                {
                    "name": "B4",
                    "midi": 71,
                    "time": 2.125,
                    "velocity": 0.9448818897637795,
                    "duration": 0.04166666666666652
                },
                {
                    "name": "B4",
                    "midi": 71,
                    "time": 2.3125,
                    "velocity": 0.9448818897637795,
                    "duration": 0.04166666666666652
                },
                {
                    "name": "B4",
                    "midi": 71,
                    "time": 2.625,
                    "velocity": 0.9448818897637795,
                    "duration": 0.04166666666666652
                },
                {
                    "name": "B4",
                    "midi": 71,
                    "time": 2.8125,
                    "velocity": 0.9448818897637795,
                    "duration": 0.04166666666666652
                },
                {
                    "name": "D#5",
                    "midi": 75,
                    "time": 3.125,
                    "velocity": 0.9448818897637795,
                    "duration": 0.04166666666666652
                },
                {
                    "name": "D#5",
                    "midi": 75,
                    "time": 3.3125,
                    "velocity": 0.9448818897637795,
                    "duration": 0.04166666666666652
                },
                {
                    "name": "B4",
                    "midi": 71,
                    "time": 3.625,
                    "velocity": 0.9448818897637795,
                    "duration": 0.04166666666666652
                },
                {
                    "name": "B4",
                    "midi": 71,
                    "time": 3.8125,
                    "velocity": 0.9448818897637795,
                    "duration": 0.04166666666666652
                },
                {
                    "name": "B4",
                    "midi": 71,
                    "time": 4.125,
                    "velocity": 0.9448818897637795,
                    "duration": 0.04166666666666696
                },
                {
                    "name": "B4",
                    "midi": 71,
                    "time": 4.3125,
                    "velocity": 0.9448818897637795,
                    "duration": 0.04166666666666696
                },
                {
                    "name": "B4",
                    "midi": 71,
                    "time": 4.625,
                    "velocity": 0.9448818897637795,
                    "duration": 0.04166666666666696
                },
                {
                    "name": "B4",
                    "midi": 71,
                    "time": 4.8125,
                    "velocity": 0.9448818897637795,
                    "duration": 0.04166666666666696
                },
                {
                    "name": "D#5",
                    "midi": 75,
                    "time": 5.125,
                    "velocity": 0.9448818897637795,
                    "duration": 0.04166666666666696
                },
                {
                    "name": "D#5",
                    "midi": 75,
                    "time": 5.3125,
                    "velocity": 0.9448818897637795,
                    "duration": 0.04166666666666696
                },
                {
                    "name": "B4",
                    "midi": 71,
                    "time": 5.625,
                    "velocity": 0.9448818897637795,
                    "duration": 0.04166666666666696
                },
                {
                    "name": "B4",
                    "midi": 71,
                    "time": 5.8125,
                    "velocity": 0.9448818897637795,
                    "duration": 0.04166666666666696
                },
                {
                    "name": "C#5",
                    "midi": 73,
                    "time": 6.125,
                    "velocity": 0.9448818897637795,
                    "duration": 0.04166666666666696
                },
                {
                    "name": "C#5",
                    "midi": 73,
                    "time": 6.625,
                    "velocity": 0.9448818897637795,
                    "duration": 0.04166666666666696
                },
                {
                    "name": "C#5",
                    "midi": 73,
                    "time": 6.8125,
                    "velocity": 0.9448818897637795,
                    "duration": 0.04166666666666696
                },
                {
                    "name": "D#5",
                    "midi": 75,
                    "time": 7.125,
                    "velocity": 0.9448818897637795,
                    "duration": 0.04166666666666696
                },
                {
                    "name": "F#5",
                    "midi": 78,
                    "time": 7.625,
                    "velocity": 0.9448818897637795,
                    "duration": 0.04166666666666696
                },
                {
                    "name": "F#5",
                    "midi": 78,
                    "time": 7.8125,
                    "velocity": 0.9448818897637795,
                    "duration": 0.04166666666666696
                },
                {
                    "name": "G#5",
                    "midi": 80,
                    "time": 8.125,
                    "velocity": 0.9448818897637795,
                    "duration": 0.041666666666666075
                },
                {
                    "name": "G#5",
                    "midi": 80,
                    "time": 8.3125,
                    "velocity": 0.9448818897637795,
                    "duration": 0.041666666666666075
                },
                {
                    "name": "B5",
                    "midi": 83,
                    "time": 8.625,
                    "velocity": 0.9448818897637795,
                    "duration": 0.041666666666666075
                },
                {
                    "name": "B5",
                    "midi": 83,
                    "time": 8.8125,
                    "velocity": 0.9448818897637795,
                    "duration": 0.041666666666666075
                },
                {
                    "name": "B5",
                    "midi": 83,
                    "time": 9.125,
                    "velocity": 0.9448818897637795,
                    "duration": 0.041666666666666075
                },
                {
                    "name": "B5",
                    "midi": 83,
                    "time": 9.3125,
                    "velocity": 0.9448818897637795,
                    "duration": 0.041666666666666075
                },
                {
                    "name": "C#6",
                    "midi": 85,
                    "time": 9.625,
                    "velocity": 0.9448818897637795,
                    "duration": 0.041666666666666075
                },
                {
                    "name": "C#6",
                    "midi": 85,
                    "time": 9.8125,
                    "velocity": 0.9448818897637795,
                    "duration": 0.041666666666666075
                },
                {
                    "name": "E6",
                    "midi": 88,
                    "time": 10.125,
                    "velocity": 0.9448818897637795,
                    "duration": 0.041666666666666075
                },
                {
                    "name": "E6",
                    "midi": 88,
                    "time": 10.3125,
                    "velocity": 0.9448818897637795,
                    "duration": 0.041666666666666075
                },
                {
                    "name": "G6",
                    "midi": 91,
                    "time": 10.625,
                    "velocity": 0.9448818897637795,
                    "duration": 0.041666666666666075
                },
                {
                    "name": "G6",
                    "midi": 91,
                    "time": 10.8125,
                    "velocity": 0.9448818897637795,
                    "duration": 0.041666666666666075
                },
                {
                    "name": "E6",
                    "midi": 88,
                    "time": 11.125,
                    "velocity": 0.9448818897637795,
                    "duration": 0.041666666666666075
                },
                {
                    "name": "E6",
                    "midi": 88,
                    "time": 11.3125,
                    "velocity": 0.9448818897637795,
                    "duration": 0.041666666666666075
                },
                {
                    "name": "C#6",
                    "midi": 85,
                    "time": 11.625,
                    "velocity": 0.9448818897637795,
                    "duration": 0.041666666666666075
                },
                {
                    "name": "C#6",
                    "midi": 85,
                    "time": 11.8125,
                    "velocity": 0.9448818897637795,
                    "duration": 0.041666666666666075
                },
                {
                    "name": "A#5",
                    "midi": 82,
                    "time": 12.125,
                    "velocity": 0.9448818897637795,
                    "duration": 0.041666666666666075
                },
                {
                    "name": "A#5",
                    "midi": 82,
                    "time": 12.3125,
                    "velocity": 0.9448818897637795,
                    "duration": 0.041666666666666075
                },
                {
                    "name": "G5",
                    "midi": 79,
                    "time": 12.625,
                    "velocity": 0.9448818897637795,
                    "duration": 0.041666666666666075
                },
                {
                    "name": "G5",
                    "midi": 79,
                    "time": 12.8125,
                    "velocity": 0.9448818897637795,
                    "duration": 0.041666666666666075
                },
                {
                    "name": "D#5",
                    "midi": 75,
                    "time": 13.125,
                    "velocity": 0.9448818897637795,
                    "duration": 0.041666666666666075
                },
                {
                    "name": "B4",
                    "midi": 71,
                    "time": 13.625,
                    "velocity": 0.9448818897637795,
                    "duration": 0.041666666666666075
                },
                {
                    "name": "B4",
                    "midi": 71,
                    "time": 13.8125,
                    "velocity": 0.9448818897637795,
                    "duration": 0.041666666666666075
                },
                {
                    "name": "B4",
                    "midi": 71,
                    "time": 14.125,
                    "velocity": 0.9448818897637795,
                    "duration": 0.041666666666666075
                },
                {
                    "name": "B4",
                    "midi": 71,
                    "time": 14.625,
                    "velocity": 0.9448818897637795,
                    "duration": 0.041666666666666075
                },
                {
                    "name": "B4",
                    "midi": 71,
                    "time": 14.8125,
                    "velocity": 0.9448818897637795,
                    "duration": 0.041666666666666075
                },
                {
                    "name": "B4",
                    "midi": 71,
                    "time": 15.125,
                    "velocity": 0.9448818897637795,
                    "duration": 0.041666666666666075
                },
                {
                    "name": "C#5",
                    "midi": 73,
                    "time": 15.625,
                    "velocity": 0.9448818897637795,
                    "duration": 0.09375
                },
                {
                    "name": "E5",
                    "midi": 76,
                    "time": 15.875,
                    "velocity": 0.9448818897637795,
                    "duration": 0.09375
                },
                {
                    "name": "E5",
                    "midi": 76,
                    "time": 16.125,
                    "velocity": 0.9448818897637795,
                    "duration": 0.09375
                },
                {
                    "name": "E5",
                    "midi": 76,
                    "time": 16.375,
                    "velocity": 0.9448818897637795,
                    "duration": 0.09375
                },
                {
                    "name": "E5",
                    "midi": 76,
                    "time": 16.625,
                    "velocity": 0.9448818897637795,
                    "duration": 0.09375
                },
                {
                    "name": "D#5",
                    "midi": 75,
                    "time": 16.875,
                    "velocity": 0.9448818897637795,
                    "duration": 0.09375
                },
                {
                    "name": "G#5",
                    "midi": 80,
                    "time": 17.25,
                    "velocity": 0.9448818897637795,
                    "duration": 0.2291666666666785
                },
                {
                    "name": "B4",
                    "midi": 71,
                    "time": 17.75000000000001,
                    "velocity": 0.9448818897637795,
                    "duration": 0.04166666666666785
                },
                {
                    "name": "B4",
                    "midi": 71,
                    "time": 17.93750000000001,
                    "velocity": 0.9448818897637795,
                    "duration": 0.04166666666666785
                },
                {
                    "name": "B4",
                    "midi": 71,
                    "time": 18.25000000000001,
                    "velocity": 0.9448818897637795,
                    "duration": 0.04166666666666785
                },
                {
                    "name": "B4",
                    "midi": 71,
                    "time": 18.43750000000001,
                    "velocity": 0.9448818897637795,
                    "duration": 0.04166666666666785
                },
                {
                    "name": "B4",
                    "midi": 71,
                    "time": 18.75000000000001,
                    "velocity": 0.9448818897637795,
                    "duration": 0.04166666666666785
                },
                {
                    "name": "B4",
                    "midi": 71,
                    "time": 18.93750000000001,
                    "velocity": 0.9448818897637795,
                    "duration": 0.04166666666666785
                },
                {
                    "name": "D#5",
                    "midi": 75,
                    "time": 19.25000000000001,
                    "velocity": 0.9448818897637795,
                    "duration": 0.04166666666666785
                },
                {
                    "name": "D#5",
                    "midi": 75,
                    "time": 19.43750000000001,
                    "velocity": 0.9448818897637795,
                    "duration": 0.04166666666666785
                },
                {
                    "name": "B4",
                    "midi": 71,
                    "time": 19.75000000000001,
                    "velocity": 0.9448818897637795,
                    "duration": 0.04166666666666785
                },
                {
                    "name": "B4",
                    "midi": 71,
                    "time": 19.93750000000001,
                    "velocity": 0.9448818897637795,
                    "duration": 0.04166666666666785
                },
                {
                    "name": "B4",
                    "midi": 71,
                    "time": 20.25000000000001,
                    "velocity": 0.9448818897637795,
                    "duration": 0.04166666666666785
                },
                {
                    "name": "B4",
                    "midi": 71,
                    "time": 20.43750000000001,
                    "velocity": 0.9448818897637795,
                    "duration": 0.04166666666666785
                },
                {
                    "name": "B4",
                    "midi": 71,
                    "time": 20.75000000000001,
                    "velocity": 0.9448818897637795,
                    "duration": 0.04166666666666785
                },
                {
                    "name": "B4",
                    "midi": 71,
                    "time": 20.93750000000001,
                    "velocity": 0.9448818897637795,
                    "duration": 0.04166666666666785
                },
                {
                    "name": "D#5",
                    "midi": 75,
                    "time": 21.25000000000001,
                    "velocity": 0.9448818897637795,
                    "duration": 0.04166666666666785
                },
                {
                    "name": "D#5",
                    "midi": 75,
                    "time": 21.43750000000001,
                    "velocity": 0.9448818897637795,
                    "duration": 0.04166666666666785
                },
                {
                    "name": "D5",
                    "midi": 74,
                    "time": 21.75000000000001,
                    "velocity": 0.9448818897637795,
                    "duration": 0.04166666666666785
                },
                {
                    "name": "D5",
                    "midi": 74,
                    "time": 21.93750000000001,
                    "velocity": 0.9448818897637795,
                    "duration": 0.04166666666666785
                },
                {
                    "name": "D5",
                    "midi": 74,
                    "time": 22.25000000000001,
                    "velocity": 0.9448818897637795,
                    "duration": 0.04166666666666785
                },
                {
                    "name": "D5",
                    "midi": 74,
                    "time": 22.43750000000001,
                    "velocity": 0.9448818897637795,
                    "duration": 0.04166666666666785
                },
                {
                    "name": "D5",
                    "midi": 74,
                    "time": 22.75000000000001,
                    "velocity": 0.9448818897637795,
                    "duration": 0.04166666666666785
                },
                {
                    "name": "D5",
                    "midi": 74,
                    "time": 22.93750000000001,
                    "velocity": 0.9448818897637795,
                    "duration": 0.04166666666666785
                },
                {
                    "name": "B4",
                    "midi": 71,
                    "time": 23.25000000000001,
                    "velocity": 0.9448818897637795,
                    "duration": 0.04166666666666785
                },
                {
                    "name": "B4",
                    "midi": 71,
                    "time": 23.43750000000001,
                    "velocity": 0.9448818897637795,
                    "duration": 0.04166666666666785
                },
                {
                    "name": "D5",
                    "midi": 74,
                    "time": 23.75000000000001,
                    "velocity": 0.9448818897637795,
                    "duration": 0.04166666666666785
                },
                {
                    "name": "D5",
                    "midi": 74,
                    "time": 23.93750000000001,
                    "velocity": 0.9448818897637795,
                    "duration": 0.04166666666666785
                },
                {
                    "name": "G5",
                    "midi": 79,
                    "time": 24.25000000000001,
                    "velocity": 0.9448818897637795,
                    "duration": 0.04166666666666785
                },
                {
                    "name": "G5",
                    "midi": 79,
                    "time": 24.43750000000001,
                    "velocity": 0.9448818897637795,
                    "duration": 0.04166666666666785
                },
                {
                    "name": "B5",
                    "midi": 83,
                    "time": 24.75000000000001,
                    "velocity": 0.9448818897637795,
                    "duration": 0.04166666666666785
                },
                {
                    "name": "B5",
                    "midi": 83,
                    "time": 24.93750000000001,
                    "velocity": 0.9448818897637795,
                    "duration": 0.04166666666666785
                },
                {
                    "name": "E5",
                    "midi": 76,
                    "time": 25.25000000000001,
                    "velocity": 0.9448818897637795,
                    "duration": 0.0416666666666643
                },
                {
                    "name": "G5",
                    "midi": 79,
                    "time": 25.500000000000007,
                    "velocity": 0.9448818897637795,
                    "duration": 0.08333333333333215
                },
                {
                    "name": "F#5",
                    "midi": 78,
                    "time": 25.750000000000007,
                    "velocity": 0.9448818897637795,
                    "duration": 0.04166666666666785
                },
                {
                    "name": "A5",
                    "midi": 81,
                    "time": 26.000000000000007,
                    "velocity": 0.9448818897637795,
                    "duration": 0.08333333333333215
                },
                {
                    "name": "G5",
                    "midi": 79,
                    "time": 26.250000000000007,
                    "velocity": 0.9448818897637795,
                    "duration": 0.04166666666666785
                },
                {
                    "name": "A5",
                    "midi": 81,
                    "time": 26.500000000000007,
                    "velocity": 0.9448818897637795,
                    "duration": 0.08333333333333215
                },
                {
                    "name": "B5",
                    "midi": 83,
                    "time": 26.750000000000004,
                    "velocity": 0.9448818897637795,
                    "duration": 0.08333333333333215
                },
                {
                    "name": "D6",
                    "midi": 86,
                    "time": 27.000000000000004,
                    "velocity": 0.9448818897637795,
                    "duration": 0.08333333333333215
                },
                {
                    "name": "D6",
                    "midi": 86,
                    "time": 27.25,
                    "velocity": 0.9448818897637795,
                    "duration": 0.08333333333333215
                },
                {
                    "name": "E6",
                    "midi": 88,
                    "time": 27.5,
                    "velocity": 0.9448818897637795,
                    "duration": 0.08333333333333215
                },
                {
                    "name": "B5",
                    "midi": 83,
                    "time": 28.249999999999996,
                    "velocity": 0.9448818897637795,
                    "duration": 0.04166666666666785
                },
                {
                    "name": "A5",
                    "midi": 81,
                    "time": 28.333333333333332,
                    "velocity": 0.9448818897637795,
                    "duration": 0.04166666666666785
                },
                {
                    "name": "G5",
                    "midi": 79,
                    "time": 28.416666666666668,
                    "velocity": 0.9448818897637795,
                    "duration": 0.04166666666666785
                },
                {
                    "name": "F#5",
                    "midi": 78,
                    "time": 28.500000000000004,
                    "velocity": 0.9448818897637795,
                    "duration": 0.04166666666666785
                },
                {
                    "name": "G5",
                    "midi": 79,
                    "time": 28.58333333333334,
                    "velocity": 0.9448818897637795,
                    "duration": 0.04166666666666785
                },
                {
                    "name": "D5",
                    "midi": 74,
                    "time": 28.666666666666675,
                    "velocity": 0.9448818897637795,
                    "duration": 0.04166666666666785
                },
                {
                    "name": "C5",
                    "midi": 72,
                    "time": 28.75000000000001,
                    "velocity": 0.9448818897637795,
                    "duration": 0.04166666666666785
                },
                {
                    "name": "D5",
                    "midi": 74,
                    "time": 28.833333333333346,
                    "velocity": 0.9448818897637795,
                    "duration": 0.04166666666666785
                },
                {
                    "name": "B4",
                    "midi": 71,
                    "time": 29.000000000000014,
                    "velocity": 0.9448818897637795,
                    "duration": 0.04166666666666785
                },
                {
                    "name": "B4",
                    "midi": 71,
                    "time": 29.291666666666682,
                    "velocity": 0.9448818897637795,
                    "duration": 0.04166666666666785
                },
                {
                    "name": "B4",
                    "midi": 71,
                    "time": 29.479166666666682,
                    "velocity": 0.9448818897637795,
                    "duration": 0.04166666666666785
                },
                {
                    "name": "C5",
                    "midi": 72,
                    "time": 29.791666666666682,
                    "velocity": 0.9448818897637795,
                    "duration": 0.04166666666666785
                },
                {
                    "name": "C5",
                    "midi": 72,
                    "time": 29.979166666666682,
                    "velocity": 0.9448818897637795,
                    "duration": 0.04166666666666785
                },
                {
                    "name": "B5",
                    "midi": 83,
                    "time": 30.250000000000018,
                    "velocity": 0.9448818897637795,
                    "duration": 0.04166666666666785
                },
                {
                    "name": "A5",
                    "midi": 81,
                    "time": 30.333333333333353,
                    "velocity": 0.9448818897637795,
                    "duration": 0.04166666666666785
                },
                {
                    "name": "G5",
                    "midi": 79,
                    "time": 30.41666666666669,
                    "velocity": 0.9448818897637795,
                    "duration": 0.04166666666666785
                },
                {
                    "name": "F#5",
                    "midi": 78,
                    "time": 30.500000000000025,
                    "velocity": 0.9448818897637795,
                    "duration": 0.04166666666666785
                },
                {
                    "name": "G5",
                    "midi": 79,
                    "time": 30.58333333333336,
                    "velocity": 0.9448818897637795,
                    "duration": 0.04166666666666785
                },
                {
                    "name": "D5",
                    "midi": 74,
                    "time": 30.666666666666696,
                    "velocity": 0.9448818897637795,
                    "duration": 0.04166666666666785
                },
                {
                    "name": "C5",
                    "midi": 72,
                    "time": 30.750000000000032,
                    "velocity": 0.9448818897637795,
                    "duration": 0.04166666666666785
                },
                {
                    "name": "D5",
                    "midi": 74,
                    "time": 30.833333333333368,
                    "velocity": 0.9448818897637795,
                    "duration": 0.04166666666666785
                },
                {
                    "name": "B4",
                    "midi": 71,
                    "time": 31.000000000000036,
                    "velocity": 0.9448818897637795,
                    "duration": 0.04166666666666785
                },
                {
                    "name": "B4",
                    "midi": 71,
                    "time": 31.291666666666703,
                    "velocity": 0.9448818897637795,
                    "duration": 0.04166666666666785
                },
                {
                    "name": "B4",
                    "midi": 71,
                    "time": 31.479166666666703,
                    "velocity": 0.9448818897637795,
                    "duration": 0.04166666666666785
                },
                {
                    "name": "C5",
                    "midi": 72,
                    "time": 31.791666666666703,
                    "velocity": 0.9448818897637795,
                    "duration": 0.04166666666666785
                },
                {
                    "name": "C5",
                    "midi": 72,
                    "time": 31.979166666666703,
                    "velocity": 0.9448818897637795,
                    "duration": 0.04166666666666785
                },
                {
                    "name": "B5",
                    "midi": 83,
                    "time": 32.250000000000036,
                    "velocity": 0.9448818897637795,
                    "duration": 0.0416666666666643
                },
                {
                    "name": "A5",
                    "midi": 81,
                    "time": 32.333333333333364,
                    "velocity": 0.9448818897637795,
                    "duration": 0.0416666666666643
                },
                {
                    "name": "G5",
                    "midi": 79,
                    "time": 32.41666666666669,
                    "velocity": 0.9448818897637795,
                    "duration": 0.0416666666666643
                },
                {
                    "name": "F#5",
                    "midi": 78,
                    "time": 32.50000000000002,
                    "velocity": 0.9448818897637795,
                    "duration": 0.0416666666666643
                },
                {
                    "name": "G5",
                    "midi": 79,
                    "time": 32.58333333333335,
                    "velocity": 0.9448818897637795,
                    "duration": 0.0416666666666643
                },
                {
                    "name": "D5",
                    "midi": 74,
                    "time": 32.66666666666668,
                    "velocity": 0.9448818897637795,
                    "duration": 0.0416666666666643
                },
                {
                    "name": "C5",
                    "midi": 72,
                    "time": 32.75000000000001,
                    "velocity": 0.9448818897637795,
                    "duration": 0.0416666666666643
                },
                {
                    "name": "D5",
                    "midi": 74,
                    "time": 32.833333333333336,
                    "velocity": 0.9448818897637795,
                    "duration": 0.0416666666666643
                },
                {
                    "name": "B4",
                    "midi": 71,
                    "time": 33,
                    "velocity": 0.9448818897637795,
                    "duration": 0.0416666666666643
                },
                {
                    "name": "B4",
                    "midi": 71,
                    "time": 33.291666666666664,
                    "velocity": 0.9448818897637795,
                    "duration": 0.0416666666666643
                },
                {
                    "name": "B4",
                    "midi": 71,
                    "time": 33.479166666666664,
                    "velocity": 0.9448818897637795,
                    "duration": 0.0416666666666643
                },
                {
                    "name": "A#4",
                    "midi": 70,
                    "time": 33.791666666666664,
                    "velocity": 0.9448818897637795,
                    "duration": 0.0416666666666643
                },
                {
                    "name": "A#4",
                    "midi": 70,
                    "time": 33.979166666666664,
                    "velocity": 0.9448818897637795,
                    "duration": 0.0416666666666643
                },
                {
                    "name": "A#5",
                    "midi": 82,
                    "time": 34.24999999999999,
                    "velocity": 0.9448818897637795,
                    "duration": 0.0416666666666643
                },
                {
                    "name": "G#5",
                    "midi": 80,
                    "time": 34.33333333333332,
                    "velocity": 0.9448818897637795,
                    "duration": 0.0416666666666643
                },
                {
                    "name": "G5",
                    "midi": 79,
                    "time": 34.41666666666665,
                    "velocity": 0.9448818897637795,
                    "duration": 0.0416666666666643
                },
                {
                    "name": "G5",
                    "midi": 79,
                    "time": 34.49999999999998,
                    "velocity": 0.9448818897637795,
                    "duration": 0.0416666666666643
                },
                {
                    "name": "F5",
                    "midi": 77,
                    "time": 34.58333333333331,
                    "velocity": 0.9448818897637795,
                    "duration": 0.0416666666666643
                },
                {
                    "name": "D#5",
                    "midi": 75,
                    "time": 34.666666666666636,
                    "velocity": 0.9448818897637795,
                    "duration": 0.0416666666666643
                },
                {
                    "name": "C#5",
                    "midi": 73,
                    "time": 34.749999999999964,
                    "velocity": 0.9448818897637795,
                    "duration": 0.0416666666666643
                },
                {
                    "name": "D#5",
                    "midi": 75,
                    "time": 34.83333333333329,
                    "velocity": 0.9448818897637795,
                    "duration": 0.0416666666666643
                },
                {
                    "name": "C#5",
                    "midi": 73,
                    "time": 34.91666666666662,
                    "velocity": 0.9448818897637795,
                    "duration": 0.0416666666666643
                },
                {
                    "name": "C5",
                    "midi": 72,
                    "time": 34.99999999999995,
                    "velocity": 0.9448818897637795,
                    "duration": 0.0416666666666643
                },
                {
                    "name": "A#4",
                    "midi": 70,
                    "time": 35.08333333333328,
                    "velocity": 0.9448818897637795,
                    "duration": 0.0416666666666643
                },
                {
                    "name": "C5",
                    "midi": 72,
                    "time": 35.29166666666661,
                    "velocity": 0.9448818897637795,
                    "duration": 0.0416666666666643
                },
                {
                    "name": "C5",
                    "midi": 72,
                    "time": 35.47916666666661,
                    "velocity": 0.9448818897637795,
                    "duration": 0.0416666666666643
                },
                {
                    "name": "B4",
                    "midi": 71,
                    "time": 35.79166666666661,
                    "velocity": 0.9448818897637795,
                    "duration": 0.0416666666666643
                },
                {
                    "name": "B4",
                    "midi": 71,
                    "time": 35.97916666666661,
                    "velocity": 0.9448818897637795,
                    "duration": 0.0416666666666643
                },
                {
                    "name": "B5",
                    "midi": 83,
                    "time": 36.249999999999936,
                    "velocity": 0.9448818897637795,
                    "duration": 0.0416666666666643
                },
                {
                    "name": "A5",
                    "midi": 81,
                    "time": 36.333333333333265,
                    "velocity": 0.9448818897637795,
                    "duration": 0.0416666666666643
                },
                {
                    "name": "G#5",
                    "midi": 80,
                    "time": 36.41666666666659,
                    "velocity": 0.9448818897637795,
                    "duration": 0.0416666666666643
                },
                {
                    "name": "G#5",
                    "midi": 80,
                    "time": 36.49999999999992,
                    "velocity": 0.9448818897637795,
                    "duration": 0.0416666666666643
                },
                {
                    "name": "F#5",
                    "midi": 78,
                    "time": 36.58333333333325,
                    "velocity": 0.9448818897637795,
                    "duration": 0.0416666666666643
                },
                {
                    "name": "G#5",
                    "midi": 80,
                    "time": 36.66666666666658,
                    "velocity": 0.9448818897637795,
                    "duration": 0.0416666666666643
                },
                {
                    "name": "D5",
                    "midi": 74,
                    "time": 36.74999999999991,
                    "velocity": 0.9448818897637795,
                    "duration": 0.0416666666666643
                },
                {
                    "name": "C#5",
                    "midi": 73,
                    "time": 36.833333333333236,
                    "velocity": 0.9448818897637795,
                    "duration": 0.0416666666666643
                },
                {
                    "name": "D5",
                    "midi": 74,
                    "time": 36.916666666666565,
                    "velocity": 0.9448818897637795,
                    "duration": 0.0416666666666643
                },
                {
                    "name": "B4",
                    "midi": 71,
                    "time": 37.08333333333323,
                    "velocity": 0.9448818897637795,
                    "duration": 0.0416666666666643
                },
                {
                    "name": "C#5",
                    "midi": 73,
                    "time": 37.29166666666656,
                    "velocity": 0.9448818897637795,
                    "duration": 0.0416666666666643
                },
                {
                    "name": "C#5",
                    "midi": 73,
                    "time": 37.47916666666656,
                    "velocity": 0.9448818897637795,
                    "duration": 0.0416666666666643
                },
                {
                    "name": "C5",
                    "midi": 72,
                    "time": 37.79166666666656,
                    "velocity": 0.9448818897637795,
                    "duration": 0.0416666666666643
                },
                {
                    "name": "C5",
                    "midi": 72,
                    "time": 37.97916666666656,
                    "velocity": 0.9448818897637795,
                    "duration": 0.0416666666666643
                },
                {
                    "name": "C6",
                    "midi": 84,
                    "time": 38.249999999999886,
                    "velocity": 0.9448818897637795,
                    "duration": 0.0416666666666643
                },
                {
                    "name": "A#5",
                    "midi": 82,
                    "time": 38.333333333333215,
                    "velocity": 0.9448818897637795,
                    "duration": 0.0416666666666643
                },
                {
                    "name": "A5",
                    "midi": 81,
                    "time": 38.41666666666654,
                    "velocity": 0.9448818897637795,
                    "duration": 0.0416666666666643
                },
                {
                    "name": "A5",
                    "midi": 81,
                    "time": 38.49999999999987,
                    "velocity": 0.9448818897637795,
                    "duration": 0.0416666666666643
                },
                {
                    "name": "G5",
                    "midi": 79,
                    "time": 38.5833333333332,
                    "velocity": 0.9448818897637795,
                    "duration": 0.0416666666666643
                },
                {
                    "name": "F5",
                    "midi": 77,
                    "time": 38.66666666666653,
                    "velocity": 0.9448818897637795,
                    "duration": 0.0416666666666643
                },
                {
                    "name": "D#5",
                    "midi": 75,
                    "time": 38.74999999999986,
                    "velocity": 0.9448818897637795,
                    "duration": 0.0416666666666643
                },
                {
                    "name": "D5",
                    "midi": 74,
                    "time": 38.83333333333319,
                    "velocity": 0.9448818897637795,
                    "duration": 0.0416666666666643
                },
                {
                    "name": "D#5",
                    "midi": 75,
                    "time": 38.916666666666515,
                    "velocity": 0.9448818897637795,
                    "duration": 0.0416666666666643
                },
                {
                    "name": "D5",
                    "midi": 74,
                    "time": 38.999999999999844,
                    "velocity": 0.9448818897637795,
                    "duration": 0.0416666666666643
                },
                {
                    "name": "D5",
                    "midi": 74,
                    "time": 39.29166666666651,
                    "velocity": 0.9448818897637795,
                    "duration": 0.0416666666666643
                },
                {
                    "name": "D5",
                    "midi": 74,
                    "time": 39.4791666666665,
                    "velocity": 0.9448818897637795,
                    "duration": 0.0416666666666643
                },
                {
                    "name": "C#5",
                    "midi": 73,
                    "time": 39.7916666666665,
                    "velocity": 0.9448818897637795,
                    "duration": 0.0416666666666643
                },
                {
                    "name": "C#5",
                    "midi": 73,
                    "time": 39.9791666666665,
                    "velocity": 0.9448818897637795,
                    "duration": 0.0416666666666643
                },
                {
                    "name": "C#5",
                    "midi": 73,
                    "time": 40.2916666666665,
                    "velocity": 0.9448818897637795,
                    "duration": 0.0416666666666643
                },
                {
                    "name": "C#5",
                    "midi": 73,
                    "time": 40.4791666666665,
                    "velocity": 0.9448818897637795,
                    "duration": 0.0416666666666643
                },
                {
                    "name": "E5",
                    "midi": 76,
                    "time": 40.7916666666665,
                    "velocity": 0.9448818897637795,
                    "duration": 0.0416666666666643
                },
                {
                    "name": "E5",
                    "midi": 76,
                    "time": 40.979166666666494,
                    "velocity": 0.9448818897637795,
                    "duration": 0.0416666666666643
                },
                {
                    "name": "D#5",
                    "midi": 75,
                    "time": 41.291666666666494,
                    "velocity": 0.9448818897637795,
                    "duration": 0.0416666666666643
                },
                {
                    "name": "D#5",
                    "midi": 75,
                    "time": 41.479166666666494,
                    "velocity": 0.9448818897637795,
                    "duration": 0.0416666666666643
                },
                {
                    "name": "D5",
                    "midi": 74,
                    "time": 41.79166666666649,
                    "velocity": 0.9448818897637795,
                    "duration": 0.0416666666666643
                },
                {
                    "name": "D5",
                    "midi": 74,
                    "time": 41.97916666666649,
                    "velocity": 0.9448818897637795,
                    "duration": 0.0416666666666643
                },
                {
                    "name": "D5",
                    "midi": 74,
                    "time": 42.29166666666649,
                    "velocity": 0.9448818897637795,
                    "duration": 0.0416666666666643
                },
                {
                    "name": "D5",
                    "midi": 74,
                    "time": 42.47916666666648,
                    "velocity": 0.9448818897637795,
                    "duration": 0.0416666666666643
                },
                {
                    "name": "F5",
                    "midi": 77,
                    "time": 42.79166666666648,
                    "velocity": 0.9448818897637795,
                    "duration": 0.0416666666666643
                },
                {
                    "name": "F5",
                    "midi": 77,
                    "time": 42.97916666666648,
                    "velocity": 0.9448818897637795,
                    "duration": 0.0416666666666643
                },
                {
                    "name": "E5",
                    "midi": 76,
                    "time": 43.29166666666647,
                    "velocity": 0.9448818897637795,
                    "duration": 0.0416666666666643
                },
                {
                    "name": "E5",
                    "midi": 76,
                    "time": 43.47916666666647,
                    "velocity": 0.9448818897637795,
                    "duration": 0.0416666666666643
                },
                {
                    "name": "D#5",
                    "midi": 75,
                    "time": 43.79166666666647,
                    "velocity": 0.9448818897637795,
                    "duration": 0.0416666666666643
                },
                {
                    "name": "D#5",
                    "midi": 75,
                    "time": 43.97916666666647,
                    "velocity": 0.9448818897637795,
                    "duration": 0.0416666666666643
                },
                {
                    "name": "D#5",
                    "midi": 75,
                    "time": 44.29166666666647,
                    "velocity": 0.9448818897637795,
                    "duration": 0.0416666666666643
                },
                {
                    "name": "D#5",
                    "midi": 75,
                    "time": 44.47916666666647,
                    "velocity": 0.9448818897637795,
                    "duration": 0.0416666666666643
                },
                {
                    "name": "F#5",
                    "midi": 78,
                    "time": 44.791666666666465,
                    "velocity": 0.9448818897637795,
                    "duration": 0.0416666666666643
                },
                {
                    "name": "F#5",
                    "midi": 78,
                    "time": 44.979166666666465,
                    "velocity": 0.9448818897637795,
                    "duration": 0.0416666666666643
                },
                {
                    "name": "C#5",
                    "midi": 73,
                    "time": 45.79166666666646,
                    "velocity": 0.9448818897637795,
                    "duration": 0.0416666666666643
                },
                {
                    "name": "C#5",
                    "midi": 73,
                    "time": 45.97916666666646,
                    "velocity": 0.9448818897637795,
                    "duration": 0.0416666666666643
                },
                {
                    "name": "D#5",
                    "midi": 75,
                    "time": 46.29166666666646,
                    "velocity": 0.9448818897637795,
                    "duration": 0.0416666666666643
                },
                {
                    "name": "D#5",
                    "midi": 75,
                    "time": 46.47916666666646,
                    "velocity": 0.9448818897637795,
                    "duration": 0.0416666666666643
                },
                {
                    "name": "C#5",
                    "midi": 73,
                    "time": 46.79166666666646,
                    "velocity": 0.9448818897637795,
                    "duration": 0.0416666666666643
                },
                {
                    "name": "C#5",
                    "midi": 73,
                    "time": 46.97916666666646,
                    "velocity": 0.9448818897637795,
                    "duration": 0.0416666666666643
                },
                {
                    "name": "C5",
                    "midi": 72,
                    "time": 47.29166666666646,
                    "velocity": 0.9448818897637795,
                    "duration": 0.0416666666666643
                },
                {
                    "name": "C5",
                    "midi": 72,
                    "time": 47.47916666666646,
                    "velocity": 0.9448818897637795,
                    "duration": 0.0416666666666643
                },
                {
                    "name": "C#5",
                    "midi": 73,
                    "time": 47.79166666666646,
                    "velocity": 0.9448818897637795,
                    "duration": 0.0416666666666643
                },
                {
                    "name": "C#5",
                    "midi": 73,
                    "time": 47.97916666666646,
                    "velocity": 0.9448818897637795,
                    "duration": 0.0416666666666643
                },
                {
                    "name": "D#5",
                    "midi": 75,
                    "time": 48.29166666666646,
                    "velocity": 0.9448818897637795,
                    "duration": 0.0416666666666643
                },
                {
                    "name": "D#5",
                    "midi": 75,
                    "time": 48.47916666666646,
                    "velocity": 0.9448818897637795,
                    "duration": 0.0416666666666643
                },
                {
                    "name": "C#5",
                    "midi": 73,
                    "time": 48.79166666666646,
                    "velocity": 0.9448818897637795,
                    "duration": 0.0416666666666643
                },
                {
                    "name": "C#5",
                    "midi": 73,
                    "time": 48.97916666666646,
                    "velocity": 0.9448818897637795,
                    "duration": 0.0416666666666643
                },
                {
                    "name": "C5",
                    "midi": 72,
                    "time": 49.29166666666646,
                    "velocity": 0.9448818897637795,
                    "duration": 0.0416666666666643
                },
                {
                    "name": "C5",
                    "midi": 72,
                    "time": 49.47916666666646,
                    "velocity": 0.9448818897637795,
                    "duration": 0.0416666666666643
                },
                {
                    "name": "C#5",
                    "midi": 73,
                    "time": 49.79166666666646,
                    "velocity": 0.9448818897637795,
                    "duration": 0.0416666666666643
                },
                {
                    "name": "C#5",
                    "midi": 73,
                    "time": 49.97916666666645,
                    "velocity": 0.9448818897637795,
                    "duration": 0.0416666666666643
                },
                {
                    "name": "D5",
                    "midi": 74,
                    "time": 50.29166666666645,
                    "velocity": 0.9448818897637795,
                    "duration": 0.0416666666666643
                },
                {
                    "name": "D5",
                    "midi": 74,
                    "time": 50.479166666666444,
                    "velocity": 0.9448818897637795,
                    "duration": 0.0416666666666643
                },
                {
                    "name": "C#5",
                    "midi": 73,
                    "time": 50.79166666666644,
                    "velocity": 0.9448818897637795,
                    "duration": 0.0416666666666643
                },
                {
                    "name": "C#5",
                    "midi": 73,
                    "time": 50.97916666666643,
                    "velocity": 0.9448818897637795,
                    "duration": 0.0416666666666643
                },
                {
                    "name": "E5",
                    "midi": 76,
                    "time": 51.29166666666642,
                    "velocity": 0.9448818897637795,
                    "duration": 0.0416666666666643
                },
                {
                    "name": "E5",
                    "midi": 76,
                    "time": 51.47916666666642,
                    "velocity": 0.9448818897637795,
                    "duration": 0.0416666666666643
                },
                {
                    "name": "D#5",
                    "midi": 75,
                    "time": 51.79166666666642,
                    "velocity": 0.9448818897637795,
                    "duration": 0.09375
                },
                {
                    "name": "D#5",
                    "midi": 75,
                    "time": 52.04166666666642,
                    "velocity": 0.9448818897637795,
                    "duration": 0.09375
                },
                {
                    "name": "B4",
                    "midi": 71,
                    "time": 52.29166666666642,
                    "velocity": 0.9448818897637795,
                    "duration": 0.09375
                },
                {
                    "name": "C#5",
                    "midi": 73,
                    "time": 52.54166666666642,
                    "velocity": 0.9448818897637795,
                    "duration": 0.09375
                },
                {
                    "name": "E5",
                    "midi": 76,
                    "time": 52.79166666666642,
                    "velocity": 0.9448818897637795,
                    "duration": 0.09375
                },
                {
                    "name": "D#5",
                    "midi": 75,
                    "time": 53.04166666666642,
                    "velocity": 0.9448818897637795,
                    "duration": 0.09375
                },
                {
                    "name": "G#5",
                    "midi": 80,
                    "time": 53.41666666666642,
                    "velocity": 0.9448818897637795,
                    "duration": 0.22916666666664298
                },
                {
                    "name": "B4",
                    "midi": 71,
                    "time": 53.9166666666664,
                    "velocity": 0.9448818897637795,
                    "duration": 0.0416666666666643
                },
                {
                    "name": "B4",
                    "midi": 71,
                    "time": 54.1041666666664,
                    "velocity": 0.9448818897637795,
                    "duration": 0.0416666666666643
                },
                {
                    "name": "C5",
                    "midi": 72,
                    "time": 54.4166666666664,
                    "velocity": 0.9448818897637795,
                    "duration": 0.0416666666666643
                },
                {
                    "name": "C5",
                    "midi": 72,
                    "time": 54.6041666666664,
                    "velocity": 0.9448818897637795,
                    "duration": 0.0416666666666643
                },
                {
                    "name": "A#4",
                    "midi": 70,
                    "time": 54.9166666666664,
                    "velocity": 0.9448818897637795,
                    "duration": 0.0416666666666643
                },
                {
                    "name": "A#4",
                    "midi": 70,
                    "time": 55.1041666666664,
                    "velocity": 0.9448818897637795,
                    "duration": 0.0416666666666643
                },
                {
                    "name": "B4",
                    "midi": 71,
                    "time": 55.4166666666664,
                    "velocity": 0.9448818897637795,
                    "duration": 0.0416666666666643
                },
                {
                    "name": "G#5",
                    "midi": 80,
                    "time": 55.5416666666664,
                    "velocity": 0.9448818897637795,
                    "duration": 0.0416666666666643
                },
                {
                    "name": "F#5",
                    "midi": 78,
                    "time": 55.62499999999973,
                    "velocity": 0.9448818897637795,
                    "duration": 0.0416666666666643
                },
                {
                    "name": "G#5",
                    "midi": 80,
                    "time": 55.70833333333306,
                    "velocity": 0.9448818897637795,
                    "duration": 0.0416666666666643
                },
                {
                    "name": "A5",
                    "midi": 81,
                    "time": 55.79166666666639,
                    "velocity": 0.9448818897637795,
                    "duration": 0.0416666666666643
                },
                {
                    "name": "G#5",
                    "midi": 80,
                    "time": 55.874999999999716,
                    "velocity": 0.9448818897637795,
                    "duration": 0.0416666666666643
                },
                {
                    "name": "F#5",
                    "midi": 78,
                    "time": 55.958333333333044,
                    "velocity": 0.9448818897637795,
                    "duration": 0.0416666666666643
                },
                {
                    "name": "G#5",
                    "midi": 80,
                    "time": 56.04166666666637,
                    "velocity": 0.9448818897637795,
                    "duration": 0.0416666666666643
                },
                {
                    "name": "D#5",
                    "midi": 75,
                    "time": 56.1249999999997,
                    "velocity": 0.9448818897637795,
                    "duration": 0.0416666666666643
                },
                {
                    "name": "C#5",
                    "midi": 73,
                    "time": 56.20833333333303,
                    "velocity": 0.9448818897637795,
                    "duration": 0.0416666666666643
                },
                {
                    "name": "E5",
                    "midi": 76,
                    "time": 56.41666666666636,
                    "velocity": 0.9448818897637795,
                    "duration": 0.0416666666666643
                },
                {
                    "name": "E5",
                    "midi": 76,
                    "time": 56.60416666666636,
                    "velocity": 0.9448818897637795,
                    "duration": 0.0416666666666643
                },
                {
                    "name": "D#5",
                    "midi": 75,
                    "time": 56.91666666666636,
                    "velocity": 0.9448818897637795,
                    "duration": 0.0416666666666643
                },
                {
                    "name": "D#5",
                    "midi": 75,
                    "time": 57.10416666666636,
                    "velocity": 0.9448818897637795,
                    "duration": 0.0416666666666643
                },
                {
                    "name": "B4",
                    "midi": 71,
                    "time": 57.41666666666636,
                    "velocity": 0.9448818897637795,
                    "duration": 0.0416666666666643
                },
                {
                    "name": "G#5",
                    "midi": 80,
                    "time": 57.91666666666636,
                    "velocity": 0.9448818897637795,
                    "duration": 0.0416666666666643
                },
                {
                    "name": "G#5",
                    "midi": 80,
                    "time": 58.10416666666636,
                    "velocity": 0.9448818897637795,
                    "duration": 0.0416666666666643
                },
                {
                    "name": "A5",
                    "midi": 81,
                    "time": 58.41666666666636,
                    "velocity": 0.9448818897637795,
                    "duration": 0.0416666666666643
                },
                {
                    "name": "A5",
                    "midi": 81,
                    "time": 58.60416666666636,
                    "velocity": 0.9448818897637795,
                    "duration": 0.0416666666666643
                },
                {
                    "name": "G5",
                    "midi": 79,
                    "time": 58.91666666666636,
                    "velocity": 0.9448818897637795,
                    "duration": 0.0416666666666643
                },
                {
                    "name": "G5",
                    "midi": 79,
                    "time": 59.10416666666636,
                    "velocity": 0.9448818897637795,
                    "duration": 0.0416666666666643
                },
                {
                    "name": "G#5",
                    "midi": 80,
                    "time": 59.41666666666636,
                    "velocity": 0.9448818897637795,
                    "duration": 0.0416666666666643
                },
                {
                    "name": "C#5",
                    "midi": 73,
                    "time": 59.79166666666636,
                    "velocity": 0.9448818897637795,
                    "duration": 0.0416666666666643
                },
                {
                    "name": "D#5",
                    "midi": 75,
                    "time": 59.87499999999969,
                    "velocity": 0.9448818897637795,
                    "duration": 0.0416666666666643
                },
                {
                    "name": "E5",
                    "midi": 76,
                    "time": 59.958333333333016,
                    "velocity": 0.9448818897637795,
                    "duration": 0.0416666666666643
                },
                {
                    "name": "F#5",
                    "midi": 78,
                    "time": 60.041666666666345,
                    "velocity": 0.9448818897637795,
                    "duration": 0.0416666666666643
                },
                {
                    "name": "G#5",
                    "midi": 80,
                    "time": 60.12499999999967,
                    "velocity": 0.9448818897637795,
                    "duration": 0.0416666666666643
                },
                {
                    "name": "A5",
                    "midi": 81,
                    "time": 60.208333333333,
                    "velocity": 0.9448818897637795,
                    "duration": 0.0416666666666643
                },
                {
                    "name": "G#5",
                    "midi": 80,
                    "time": 60.41666666666633,
                    "velocity": 0.9448818897637795,
                    "duration": 0.0416666666666643
                },
                {
                    "name": "G#5",
                    "midi": 80,
                    "time": 60.60416666666633,
                    "velocity": 0.9448818897637795,
                    "duration": 0.0416666666666643
                },
                {
                    "name": "F#5",
                    "midi": 78,
                    "time": 60.91666666666633,
                    "velocity": 0.9448818897637795,
                    "duration": 0.0416666666666643
                },
                {
                    "name": "F#5",
                    "midi": 78,
                    "time": 61.10416666666633,
                    "velocity": 0.9448818897637795,
                    "duration": 0.0416666666666643
                },
                {
                    "name": "G#5",
                    "midi": 80,
                    "time": 61.41666666666633,
                    "velocity": 0.9448818897637795,
                    "duration": 0.0416666666666643
                },
                {
                    "name": "G#5",
                    "midi": 80,
                    "time": 61.60416666666633,
                    "velocity": 0.9448818897637795,
                    "duration": 0.0416666666666643
                },
                {
                    "name": "A5",
                    "midi": 81,
                    "time": 61.91666666666633,
                    "velocity": 0.9448818897637795,
                    "duration": 0.0416666666666643
                },
                {
                    "name": "A5",
                    "midi": 81,
                    "time": 62.10416666666633,
                    "velocity": 0.9448818897637795,
                    "duration": 0.0416666666666643
                },
                {
                    "name": "G#5",
                    "midi": 80,
                    "time": 62.41666666666633,
                    "velocity": 0.9448818897637795,
                    "duration": 0.0416666666666643
                },
                {
                    "name": "G#5",
                    "midi": 80,
                    "time": 62.60416666666633,
                    "velocity": 0.9448818897637795,
                    "duration": 0.0416666666666643
                },
                {
                    "name": "A5",
                    "midi": 81,
                    "time": 62.91666666666633,
                    "velocity": 0.9448818897637795,
                    "duration": 0.0416666666666643
                },
                {
                    "name": "A5",
                    "midi": 81,
                    "time": 63.10416666666633,
                    "velocity": 0.9448818897637795,
                    "duration": 0.0416666666666643
                },
                {
                    "name": "G#5",
                    "midi": 80,
                    "time": 63.41666666666633,
                    "velocity": 0.9448818897637795,
                    "duration": 0.0416666666666643
                },
                {
                    "name": "G#5",
                    "midi": 80,
                    "time": 63.60416666666633,
                    "velocity": 0.9448818897637795,
                    "duration": 0.0416666666666643
                },
                {
                    "name": "G5",
                    "midi": 79,
                    "time": 63.91666666666633,
                    "velocity": 0.9448818897637795,
                    "duration": 0.0416666666666643
                },
                {
                    "name": "G#5",
                    "midi": 80,
                    "time": 64.37499999999966,
                    "velocity": 0.9448818897637795,
                    "duration": 0.041666666666671404
                },
                {
                    "name": "F#5",
                    "midi": 78,
                    "time": 64.458333333333,
                    "velocity": 0.9448818897637795,
                    "duration": 0.041666666666671404
                },
                {
                    "name": "G#5",
                    "midi": 80,
                    "time": 64.54166666666634,
                    "velocity": 0.9448818897637795,
                    "duration": 0.041666666666671404
                },
                {
                    "name": "D#5",
                    "midi": 75,
                    "time": 64.62499999999969,
                    "velocity": 0.9448818897637795,
                    "duration": 0.041666666666671404
                },
                {
                    "name": "C#5",
                    "midi": 73,
                    "time": 64.70833333333303,
                    "velocity": 0.9448818897637795,
                    "duration": 0.041666666666671404
                },
                {
                    "name": "D#5",
                    "midi": 75,
                    "time": 64.79166666666637,
                    "velocity": 0.9448818897637795,
                    "duration": 0.041666666666671404
                },
                {
                    "name": "B4",
                    "midi": 71,
                    "time": 64.95833333333304,
                    "velocity": 0.9448818897637795,
                    "duration": 0.041666666666671404
                },
                {
                    "name": "B4",
                    "midi": 71,
                    "time": 65.41666666666639,
                    "velocity": 0.9448818897637795,
                    "duration": 0.041666666666671404
                },
                {
                    "name": "B4",
                    "midi": 71,
                    "time": 65.60416666666639,
                    "velocity": 0.9448818897637795,
                    "duration": 0.041666666666671404
                },
                {
                    "name": "C5",
                    "midi": 72,
                    "time": 65.91666666666639,
                    "velocity": 0.9448818897637795,
                    "duration": 0.041666666666671404
                },
                {
                    "name": "C5",
                    "midi": 72,
                    "time": 66.10416666666639,
                    "velocity": 0.9448818897637795,
                    "duration": 0.041666666666671404
                },
                {
                    "name": "B4",
                    "midi": 71,
                    "time": 66.41666666666639,
                    "velocity": 0.9448818897637795,
                    "duration": 0.041666666666671404
                },
                {
                    "name": "B4",
                    "midi": 71,
                    "time": 66.60416666666639,
                    "velocity": 0.9448818897637795,
                    "duration": 0.041666666666671404
                },
                {
                    "name": "C5",
                    "midi": 72,
                    "time": 66.91666666666639,
                    "velocity": 0.9448818897637795,
                    "duration": 0.041666666666671404
                },
                {
                    "name": "C5",
                    "midi": 72,
                    "time": 67.10416666666639,
                    "velocity": 0.9448818897637795,
                    "duration": 0.041666666666671404
                },
                {
                    "name": "B4",
                    "midi": 71,
                    "time": 67.41666666666639,
                    "velocity": 0.9448818897637795,
                    "duration": 0.041666666666671404
                },
                {
                    "name": "B4",
                    "midi": 71,
                    "time": 67.60416666666639,
                    "velocity": 0.9448818897637795,
                    "duration": 0.041666666666671404
                },
                {
                    "name": "A#4",
                    "midi": 70,
                    "time": 67.91666666666639,
                    "velocity": 0.9448818897637795,
                    "duration": 0.041666666666671404
                },
                {
                    "name": "B4",
                    "midi": 71,
                    "time": 68.37499999999973,
                    "velocity": 0.9448818897637795,
                    "duration": 0.041666666666671404
                },
                {
                    "name": "B4",
                    "midi": 71,
                    "time": 68.45833333333307,
                    "velocity": 0.9448818897637795,
                    "duration": 0.041666666666671404
                },
                {
                    "name": "B5",
                    "midi": 83,
                    "time": 69.41666666666642,
                    "velocity": 0.9448818897637795,
                    "duration": 0.041666666666671404
                },
                {
                    "name": "B5",
                    "midi": 83,
                    "time": 69.60416666666642,
                    "velocity": 0.9448818897637795,
                    "duration": 0.041666666666671404
                },
                {
                    "name": "C6",
                    "midi": 84,
                    "time": 69.91666666666642,
                    "velocity": 0.9448818897637795,
                    "duration": 0.041666666666671404
                },
                {
                    "name": "C6",
                    "midi": 84,
                    "time": 70.10416666666642,
                    "velocity": 0.9448818897637795,
                    "duration": 0.041666666666671404
                },
                {
                    "name": "B5",
                    "midi": 83,
                    "time": 70.41666666666642,
                    "velocity": 0.9448818897637795,
                    "duration": 0.041666666666671404
                },
                {
                    "name": "B5",
                    "midi": 83,
                    "time": 70.60416666666642,
                    "velocity": 0.9448818897637795,
                    "duration": 0.041666666666671404
                },
                {
                    "name": "B5",
                    "midi": 83,
                    "time": 70.91666666666642,
                    "velocity": 0.9448818897637795,
                    "duration": 0.041666666666671404
                },
                {
                    "name": "B5",
                    "midi": 83,
                    "time": 71.10416666666642,
                    "velocity": 0.9448818897637795,
                    "duration": 0.041666666666671404
                },
                {
                    "name": "A5",
                    "midi": 81,
                    "time": 71.41666666666642,
                    "velocity": 0.9448818897637795,
                    "duration": 0.041666666666671404
                },
                {
                    "name": "A5",
                    "midi": 81,
                    "time": 71.60416666666642,
                    "velocity": 0.9448818897637795,
                    "duration": 0.041666666666671404
                },
                {
                    "name": "G#5",
                    "midi": 80,
                    "time": 71.91666666666642,
                    "velocity": 0.9448818897637795,
                    "duration": 0.041666666666671404
                },
                {
                    "name": "G#5",
                    "midi": 80,
                    "time": 72.10416666666642,
                    "velocity": 0.9448818897637795,
                    "duration": 0.041666666666671404
                },
                {
                    "name": "F#5",
                    "midi": 78,
                    "time": 72.41666666666642,
                    "velocity": 0.9448818897637795,
                    "duration": 0.041666666666671404
                },
                {
                    "name": "F#5",
                    "midi": 78,
                    "time": 72.60416666666642,
                    "velocity": 0.9448818897637795,
                    "duration": 0.041666666666671404
                },
                {
                    "name": "D#5",
                    "midi": 75,
                    "time": 72.91666666666642,
                    "velocity": 0.9448818897637795,
                    "duration": 0.041666666666671404
                },
                {
                    "name": "D#5",
                    "midi": 75,
                    "time": 73.10416666666642,
                    "velocity": 0.9448818897637795,
                    "duration": 0.041666666666671404
                },
                {
                    "name": "E5",
                    "midi": 76,
                    "time": 73.41666666666642,
                    "velocity": 0.9448818897637795,
                    "duration": 0.041666666666671404
                },
                {
                    "name": "E5",
                    "midi": 76,
                    "time": 73.60416666666643,
                    "velocity": 0.9448818897637795,
                    "duration": 0.041666666666671404
                },
                {
                    "name": "D#5",
                    "midi": 75,
                    "time": 73.91666666666643,
                    "velocity": 0.9448818897637795,
                    "duration": 0.041666666666671404
                },
                {
                    "name": "D#5",
                    "midi": 75,
                    "time": 74.10416666666644,
                    "velocity": 0.9448818897637795,
                    "duration": 0.041666666666671404
                },
                {
                    "name": "E5",
                    "midi": 76,
                    "time": 74.41666666666646,
                    "velocity": 0.9448818897637795,
                    "duration": 0.041666666666671404
                },
                {
                    "name": "E5",
                    "midi": 76,
                    "time": 74.60416666666647,
                    "velocity": 0.9448818897637795,
                    "duration": 0.041666666666671404
                },
                {
                    "name": "D#5",
                    "midi": 75,
                    "time": 74.91666666666649,
                    "velocity": 0.9448818897637795,
                    "duration": 0.041666666666671404
                },
                {
                    "name": "D#5",
                    "midi": 75,
                    "time": 75.10416666666649,
                    "velocity": 0.9448818897637795,
                    "duration": 0.041666666666671404
                },
                {
                    "name": "E5",
                    "midi": 76,
                    "time": 75.4166666666665,
                    "velocity": 0.9448818897637795,
                    "duration": 0.0833333333333286
                },
                {
                    "name": "G#5",
                    "midi": 80,
                    "time": 75.9166666666665,
                    "velocity": 0.9448818897637795,
                    "duration": 0.0833333333333286
                },
                {
                    "name": "E5",
                    "midi": 76,
                    "time": 76.4166666666665,
                    "velocity": 0.9448818897637795,
                    "duration": 0.041666666666671404
                },
                {
                    "name": "G#5",
                    "midi": 80,
                    "time": 76.6041666666665,
                    "velocity": 0.9448818897637795,
                    "duration": 0.041666666666671404
                },
                {
                    "name": "E5",
                    "midi": 76,
                    "time": 76.9166666666665,
                    "velocity": 0.9448818897637795,
                    "duration": 0.041666666666671404
                },
                {
                    "name": "G#5",
                    "midi": 80,
                    "time": 77.1041666666665,
                    "velocity": 0.9448818897637795,
                    "duration": 0.041666666666671404
                },
                {
                    "name": "E5",
                    "midi": 76,
                    "time": 77.37499999999984,
                    "velocity": 0.9448818897637795,
                    "duration": 0.4166666666666856
                }
            ],
            "controlChanges": {
                "1": [
                    {
                        "number": 1,
                        "time": 17.25,
                        "value": 0
                    },
                    {
                        "number": 1,
                        "time": 17.260416666666668,
                        "value": 0.03937007874015748
                    },
                    {
                        "number": 1,
                        "time": 17.270833333333336,
                        "value": 0.06299212598425197
                    },
                    {
                        "number": 1,
                        "time": 17.281250000000004,
                        "value": 0.07874015748031496
                    },
                    {
                        "number": 1,
                        "time": 17.29166666666667,
                        "value": 0.09448818897637795
                    },
                    {
                        "number": 1,
                        "time": 17.30208333333334,
                        "value": 0.10236220472440945
                    },
                    {
                        "number": 1,
                        "time": 17.312500000000007,
                        "value": 0.11023622047244094
                    },
                    {
                        "number": 1,
                        "time": 17.322916666666675,
                        "value": 0.11811023622047244
                    },
                    {
                        "number": 1,
                        "time": 17.333333333333343,
                        "value": 0.12598425196850394
                    },
                    {
                        "number": 1,
                        "time": 17.34375000000001,
                        "value": 0.13385826771653545
                    },
                    {
                        "number": 1,
                        "time": 17.37500000000001,
                        "value": 0.14173228346456693
                    },
                    {
                        "number": 1,
                        "time": 17.50000000000001,
                        "value": 0
                    },
                    {
                        "number": 1,
                        "time": 53.41666666666642,
                        "value": 0
                    },
                    {
                        "number": 1,
                        "time": 53.42708333333309,
                        "value": 0.03937007874015748
                    },
                    {
                        "number": 1,
                        "time": 53.43749999999975,
                        "value": 0.06299212598425197
                    },
                    {
                        "number": 1,
                        "time": 53.447916666666416,
                        "value": 0.07874015748031496
                    },
                    {
                        "number": 1,
                        "time": 53.45833333333308,
                        "value": 0.09448818897637795
                    },
                    {
                        "number": 1,
                        "time": 53.468749999999744,
                        "value": 0.10236220472440945
                    },
                    {
                        "number": 1,
                        "time": 53.47916666666641,
                        "value": 0.11023622047244094
                    },
                    {
                        "number": 1,
                        "time": 53.48958333333307,
                        "value": 0.11811023622047244
                    },
                    {
                        "number": 1,
                        "time": 53.49999999999974,
                        "value": 0.12598425196850394
                    },
                    {
                        "number": 1,
                        "time": 53.5104166666664,
                        "value": 0.13385826771653545
                    },
                    {
                        "number": 1,
                        "time": 53.5416666666664,
                        "value": 0.14173228346456693
                    },
                    {
                        "number": 1,
                        "time": 53.6666666666664,
                        "value": 0
                    },
                    {
                        "number": 1,
                        "time": 77.3541666666665,
                        "value": 0
                    },
                    {
                        "number": 1,
                        "time": 77.36458333333317,
                        "value": 0.023622047244094488
                    },
                    {
                        "number": 1,
                        "time": 77.37499999999984,
                        "value": 0.03937007874015748
                    },
                    {
                        "number": 1,
                        "time": 77.38541666666652,
                        "value": 0.05511811023622047
                    },
                    {
                        "number": 1,
                        "time": 77.39583333333319,
                        "value": 0.07086614173228346
                    },
                    {
                        "number": 1,
                        "time": 77.40624999999986,
                        "value": 0.07874015748031496
                    },
                    {
                        "number": 1,
                        "time": 77.41666666666653,
                        "value": 0.09448818897637795
                    },
                    {
                        "number": 1,
                        "time": 77.4270833333332,
                        "value": 0.10236220472440945
                    },
                    {
                        "number": 1,
                        "time": 77.43749999999987,
                        "value": 0.11023622047244094
                    },
                    {
                        "number": 1,
                        "time": 77.44791666666654,
                        "value": 0.11811023622047244
                    },
                    {
                        "number": 1,
                        "time": 77.46874999999987,
                        "value": 0.12598425196850394
                    },
                    {
                        "number": 1,
                        "time": 77.47916666666654,
                        "value": 0.13385826771653545
                    },
                    {
                        "number": 1,
                        "time": 77.49999999999987,
                        "value": 0.14173228346456693
                    },
                    {
                        "number": 1,
                        "time": 77.53124999999987,
                        "value": 0.14960629921259844
                    },
                    {
                        "number": 1,
                        "time": 77.5833333333332,
                        "value": 0.15748031496062992
                    }
                ],
                "6": [
                    {
                        "number": 6,
                        "time": 0.4895833333333335,
                        "value": 0.4881889763779528
                    },
                    {
                        "number": 6,
                        "time": 0.5104166666666667,
                        "value": 0.4645669291338583
                    }
                ],
                "7": [
                    {
                        "number": 7,
                        "time": 0.43750000000000006,
                        "value": 0.9448818897637795
                    }
                ],
                "11": [
                    {
                        "number": 11,
                        "time": 1,
                        "value": 0.7874015748031497
                    },
                    {
                        "number": 11,
                        "time": 8,
                        "value": 0.7874015748031497
                    },
                    {
                        "number": 11,
                        "time": 8.125,
                        "value": 0.7952755905511811
                    },
                    {
                        "number": 11,
                        "time": 8.25,
                        "value": 0.8031496062992126
                    },
                    {
                        "number": 11,
                        "time": 8.375,
                        "value": 0.8110236220472441
                    },
                    {
                        "number": 11,
                        "time": 8.5,
                        "value": 0.8188976377952756
                    },
                    {
                        "number": 11,
                        "time": 8.625,
                        "value": 0.8267716535433071
                    },
                    {
                        "number": 11,
                        "time": 8.75,
                        "value": 0.8346456692913385
                    },
                    {
                        "number": 11,
                        "time": 8.875,
                        "value": 0.84251968503937
                    },
                    {
                        "number": 11,
                        "time": 9,
                        "value": 0.8503937007874016
                    },
                    {
                        "number": 11,
                        "time": 9.125,
                        "value": 0.8582677165354331
                    },
                    {
                        "number": 11,
                        "time": 9.25,
                        "value": 0.8661417322834646
                    },
                    {
                        "number": 11,
                        "time": 9.375,
                        "value": 0.8740157480314961
                    },
                    {
                        "number": 11,
                        "time": 9.5,
                        "value": 0.8818897637795275
                    },
                    {
                        "number": 11,
                        "time": 9.625,
                        "value": 0.889763779527559
                    },
                    {
                        "number": 11,
                        "time": 9.75,
                        "value": 0.8976377952755905
                    },
                    {
                        "number": 11,
                        "time": 9.875,
                        "value": 0.905511811023622
                    },
                    {
                        "number": 11,
                        "time": 10,
                        "value": 0.9133858267716536
                    },
                    {
                        "number": 11,
                        "time": 10.125,
                        "value": 0.9212598425196851
                    },
                    {
                        "number": 11,
                        "time": 10.25,
                        "value": 0.9291338582677166
                    },
                    {
                        "number": 11,
                        "time": 10.375,
                        "value": 0.937007874015748
                    },
                    {
                        "number": 11,
                        "time": 10.489583333333334,
                        "value": 0.9448818897637795
                    },
                    {
                        "number": 11,
                        "time": 10.625,
                        "value": 0.937007874015748
                    },
                    {
                        "number": 11,
                        "time": 10.75,
                        "value": 0.9291338582677166
                    },
                    {
                        "number": 11,
                        "time": 10.875,
                        "value": 0.9212598425196851
                    },
                    {
                        "number": 11,
                        "time": 11,
                        "value": 0.9133858267716536
                    },
                    {
                        "number": 11,
                        "time": 11.125,
                        "value": 0.905511811023622
                    },
                    {
                        "number": 11,
                        "time": 11.25,
                        "value": 0.8976377952755905
                    },
                    {
                        "number": 11,
                        "time": 11.375,
                        "value": 0.889763779527559
                    },
                    {
                        "number": 11,
                        "time": 11.5,
                        "value": 0.8818897637795275
                    },
                    {
                        "number": 11,
                        "time": 11.625,
                        "value": 0.8740157480314961
                    },
                    {
                        "number": 11,
                        "time": 11.75,
                        "value": 0.8661417322834646
                    },
                    {
                        "number": 11,
                        "time": 11.875,
                        "value": 0.8582677165354331
                    },
                    {
                        "number": 11,
                        "time": 12,
                        "value": 0.8503937007874016
                    },
                    {
                        "number": 11,
                        "time": 12.125,
                        "value": 0.84251968503937
                    },
                    {
                        "number": 11,
                        "time": 12.25,
                        "value": 0.8346456692913385
                    },
                    {
                        "number": 11,
                        "time": 12.375,
                        "value": 0.8267716535433071
                    },
                    {
                        "number": 11,
                        "time": 12.5,
                        "value": 0.8188976377952756
                    },
                    {
                        "number": 11,
                        "time": 12.625,
                        "value": 0.8110236220472441
                    },
                    {
                        "number": 11,
                        "time": 12.75,
                        "value": 0.8031496062992126
                    },
                    {
                        "number": 11,
                        "time": 12.875,
                        "value": 0.7952755905511811
                    },
                    {
                        "number": 11,
                        "time": 12.989583333333334,
                        "value": 0.7874015748031497
                    },
                    {
                        "number": 11,
                        "time": 13,
                        "value": 0.7874015748031497
                    },
                    {
                        "number": 11,
                        "time": 13.125,
                        "value": 0.7952755905511811
                    },
                    {
                        "number": 11,
                        "time": 13.25,
                        "value": 0.8031496062992126
                    },
                    {
                        "number": 11,
                        "time": 13.375,
                        "value": 0.8110236220472441
                    },
                    {
                        "number": 11,
                        "time": 13.5,
                        "value": 0.8188976377952756
                    },
                    {
                        "number": 11,
                        "time": 13.625,
                        "value": 0.8267716535433071
                    },
                    {
                        "number": 11,
                        "time": 13.75,
                        "value": 0.8346456692913385
                    },
                    {
                        "number": 11,
                        "time": 13.875,
                        "value": 0.84251968503937
                    },
                    {
                        "number": 11,
                        "time": 14,
                        "value": 0.8503937007874016
                    },
                    {
                        "number": 11,
                        "time": 14.125,
                        "value": 0.8582677165354331
                    },
                    {
                        "number": 11,
                        "time": 14.25,
                        "value": 0.8661417322834646
                    },
                    {
                        "number": 11,
                        "time": 14.375,
                        "value": 0.8740157480314961
                    },
                    {
                        "number": 11,
                        "time": 14.5,
                        "value": 0.8818897637795275
                    },
                    {
                        "number": 11,
                        "time": 14.625,
                        "value": 0.889763779527559
                    },
                    {
                        "number": 11,
                        "time": 14.75,
                        "value": 0.8976377952755905
                    },
                    {
                        "number": 11,
                        "time": 14.875,
                        "value": 0.905511811023622
                    },
                    {
                        "number": 11,
                        "time": 15,
                        "value": 0.9133858267716536
                    },
                    {
                        "number": 11,
                        "time": 15.125,
                        "value": 0.9212598425196851
                    },
                    {
                        "number": 11,
                        "time": 15.25,
                        "value": 0.9291338582677166
                    },
                    {
                        "number": 11,
                        "time": 15.375,
                        "value": 0.937007874015748
                    },
                    {
                        "number": 11,
                        "time": 15.489583333333334,
                        "value": 0.9448818897637795
                    },
                    {
                        "number": 11,
                        "time": 17.62500000000001,
                        "value": 0.7874015748031497
                    },
                    {
                        "number": 11,
                        "time": 25.12500000000001,
                        "value": 0.7874015748031497
                    },
                    {
                        "number": 11,
                        "time": 25.270833333333343,
                        "value": 0.7952755905511811
                    },
                    {
                        "number": 11,
                        "time": 25.416666666666675,
                        "value": 0.8031496062992126
                    },
                    {
                        "number": 11,
                        "time": 25.562500000000007,
                        "value": 0.8110236220472441
                    },
                    {
                        "number": 11,
                        "time": 25.70833333333334,
                        "value": 0.8188976377952756
                    },
                    {
                        "number": 11,
                        "time": 25.854166666666675,
                        "value": 0.8267716535433071
                    },
                    {
                        "number": 11,
                        "time": 26.000000000000007,
                        "value": 0.8346456692913385
                    },
                    {
                        "number": 11,
                        "time": 26.14583333333334,
                        "value": 0.84251968503937
                    },
                    {
                        "number": 11,
                        "time": 26.291666666666675,
                        "value": 0.8503937007874016
                    },
                    {
                        "number": 11,
                        "time": 26.437500000000007,
                        "value": 0.8582677165354331
                    },
                    {
                        "number": 11,
                        "time": 26.58333333333334,
                        "value": 0.8661417322834646
                    },
                    {
                        "number": 11,
                        "time": 26.72916666666667,
                        "value": 0.8740157480314961
                    },
                    {
                        "number": 11,
                        "time": 26.875000000000004,
                        "value": 0.8818897637795275
                    },
                    {
                        "number": 11,
                        "time": 27.020833333333336,
                        "value": 0.889763779527559
                    },
                    {
                        "number": 11,
                        "time": 27.166666666666668,
                        "value": 0.8976377952755905
                    },
                    {
                        "number": 11,
                        "time": 27.3125,
                        "value": 0.905511811023622
                    },
                    {
                        "number": 11,
                        "time": 27.458333333333332,
                        "value": 0.9133858267716536
                    },
                    {
                        "number": 11,
                        "time": 27.604166666666664,
                        "value": 0.9212598425196851
                    },
                    {
                        "number": 11,
                        "time": 27.749999999999996,
                        "value": 0.9291338582677166
                    },
                    {
                        "number": 11,
                        "time": 27.89583333333333,
                        "value": 0.937007874015748
                    },
                    {
                        "number": 11,
                        "time": 28.031249999999996,
                        "value": 0.9448818897637795
                    },
                    {
                        "number": 11,
                        "time": 28.041666666666664,
                        "value": 0.7874015748031497
                    },
                    {
                        "number": 11,
                        "time": 39.16666666666651,
                        "value": 0.7874015748031497
                    },
                    {
                        "number": 11,
                        "time": 39.46874999999984,
                        "value": 0.7952755905511811
                    },
                    {
                        "number": 11,
                        "time": 39.770833333333165,
                        "value": 0.8031496062992126
                    },
                    {
                        "number": 11,
                        "time": 40.0729166666665,
                        "value": 0.8110236220472441
                    },
                    {
                        "number": 11,
                        "time": 40.364583333333165,
                        "value": 0.8188976377952756
                    },
                    {
                        "number": 11,
                        "time": 40.6666666666665,
                        "value": 0.8267716535433071
                    },
                    {
                        "number": 11,
                        "time": 40.96874999999983,
                        "value": 0.8346456692913385
                    },
                    {
                        "number": 11,
                        "time": 41.27083333333316,
                        "value": 0.84251968503937
                    },
                    {
                        "number": 11,
                        "time": 41.56249999999982,
                        "value": 0.8503937007874016
                    },
                    {
                        "number": 11,
                        "time": 41.86458333333315,
                        "value": 0.8582677165354331
                    },
                    {
                        "number": 11,
                        "time": 42.16666666666649,
                        "value": 0.8661417322834646
                    },
                    {
                        "number": 11,
                        "time": 42.468749999999815,
                        "value": 0.8740157480314961
                    },
                    {
                        "number": 11,
                        "time": 42.76041666666648,
                        "value": 0.8818897637795275
                    },
                    {
                        "number": 11,
                        "time": 43.06249999999981,
                        "value": 0.889763779527559
                    },
                    {
                        "number": 11,
                        "time": 43.36458333333314,
                        "value": 0.8976377952755905
                    },
                    {
                        "number": 11,
                        "time": 43.66666666666647,
                        "value": 0.905511811023622
                    },
                    {
                        "number": 11,
                        "time": 43.95833333333314,
                        "value": 0.9133858267716536
                    },
                    {
                        "number": 11,
                        "time": 44.26041666666647,
                        "value": 0.9212598425196851
                    },
                    {
                        "number": 11,
                        "time": 44.5624999999998,
                        "value": 0.9291338582677166
                    },
                    {
                        "number": 11,
                        "time": 44.86458333333313,
                        "value": 0.937007874015748
                    },
                    {
                        "number": 11,
                        "time": 45.156249999999794,
                        "value": 0.9448818897637795
                    },
                    {
                        "number": 11,
                        "time": 45.66666666666646,
                        "value": 0.7086614173228346
                    },
                    {
                        "number": 11,
                        "time": 47.79166666666646,
                        "value": 0.7874015748031497
                    },
                    {
                        "number": 11,
                        "time": 49.66666666666646,
                        "value": 0.7874015748031497
                    },
                    {
                        "number": 11,
                        "time": 49.749999999999794,
                        "value": 0.7952755905511811
                    },
                    {
                        "number": 11,
                        "time": 49.82291666666646,
                        "value": 0.8031496062992126
                    },
                    {
                        "number": 11,
                        "time": 49.89583333333312,
                        "value": 0.8110236220472441
                    },
                    {
                        "number": 11,
                        "time": 49.96874999999979,
                        "value": 0.8188976377952756
                    },
                    {
                        "number": 11,
                        "time": 50.04166666666645,
                        "value": 0.8267716535433071
                    },
                    {
                        "number": 11,
                        "time": 50.114583333333115,
                        "value": 0.8346456692913385
                    },
                    {
                        "number": 11,
                        "time": 50.19791666666645,
                        "value": 0.84251968503937
                    },
                    {
                        "number": 11,
                        "time": 50.270833333333115,
                        "value": 0.8503937007874016
                    },
                    {
                        "number": 11,
                        "time": 50.34374999999978,
                        "value": 0.8582677165354331
                    },
                    {
                        "number": 11,
                        "time": 50.416666666666444,
                        "value": 0.8661417322834646
                    },
                    {
                        "number": 11,
                        "time": 50.48958333333311,
                        "value": 0.8740157480314961
                    },
                    {
                        "number": 11,
                        "time": 50.56249999999977,
                        "value": 0.8818897637795275
                    },
                    {
                        "number": 11,
                        "time": 50.63541666666644,
                        "value": 0.889763779527559
                    },
                    {
                        "number": 11,
                        "time": 50.71874999999977,
                        "value": 0.8976377952755905
                    },
                    {
                        "number": 11,
                        "time": 50.79166666666644,
                        "value": 0.905511811023622
                    },
                    {
                        "number": 11,
                        "time": 50.8645833333331,
                        "value": 0.9133858267716536
                    },
                    {
                        "number": 11,
                        "time": 50.937499999999766,
                        "value": 0.9212598425196851
                    },
                    {
                        "number": 11,
                        "time": 51.01041666666643,
                        "value": 0.9291338582677166
                    },
                    {
                        "number": 11,
                        "time": 51.083333333333094,
                        "value": 0.937007874015748
                    },
                    {
                        "number": 11,
                        "time": 51.15624999999976,
                        "value": 0.9448818897637795
                    },
                    {
                        "number": 11,
                        "time": 53.7916666666664,
                        "value": 0.7874015748031497
                    },
                    {
                        "number": 11,
                        "time": 73.29166666666642,
                        "value": 0.7874015748031497
                    },
                    {
                        "number": 11,
                        "time": 73.39583333333309,
                        "value": 0.7952755905511811
                    },
                    {
                        "number": 11,
                        "time": 73.49999999999976,
                        "value": 0.8031496062992126
                    },
                    {
                        "number": 11,
                        "time": 73.59374999999976,
                        "value": 0.8110236220472441
                    },
                    {
                        "number": 11,
                        "time": 73.69791666666643,
                        "value": 0.8188976377952756
                    },
                    {
                        "number": 11,
                        "time": 73.79166666666643,
                        "value": 0.8267716535433071
                    },
                    {
                        "number": 11,
                        "time": 73.8958333333331,
                        "value": 0.8346456692913385
                    },
                    {
                        "number": 11,
                        "time": 73.9895833333331,
                        "value": 0.84251968503937
                    },
                    {
                        "number": 11,
                        "time": 74.09374999999977,
                        "value": 0.8503937007874016
                    },
                    {
                        "number": 11,
                        "time": 74.18749999999979,
                        "value": 0.8582677165354331
                    },
                    {
                        "number": 11,
                        "time": 74.29166666666646,
                        "value": 0.8661417322834646
                    },
                    {
                        "number": 11,
                        "time": 74.39583333333313,
                        "value": 0.8740157480314961
                    },
                    {
                        "number": 11,
                        "time": 74.48958333333313,
                        "value": 0.8818897637795275
                    },
                    {
                        "number": 11,
                        "time": 74.5937499999998,
                        "value": 0.889763779527559
                    },
                    {
                        "number": 11,
                        "time": 74.68749999999982,
                        "value": 0.8976377952755905
                    },
                    {
                        "number": 11,
                        "time": 74.79166666666649,
                        "value": 0.905511811023622
                    },
                    {
                        "number": 11,
                        "time": 74.88541666666649,
                        "value": 0.9133858267716536
                    },
                    {
                        "number": 11,
                        "time": 74.98958333333316,
                        "value": 0.9212598425196851
                    },
                    {
                        "number": 11,
                        "time": 75.08333333333316,
                        "value": 0.9291338582677166
                    },
                    {
                        "number": 11,
                        "time": 75.18749999999983,
                        "value": 0.937007874015748
                    },
                    {
                        "number": 11,
                        "time": 75.28124999999983,
                        "value": 0.9448818897637795
                    }
                ],
                "32": [
                    {
                        "number": 32,
                        "time": 0.4166666666666667,
                        "value": 0.007874015748031496
                    }
                ],
                "91": [
                    {
                        "number": 91,
                        "time": 0.44791666666666674,
                        "value": 0.31496062992125984
                    }
                ],
                "93": [
                    {
                        "number": 93,
                        "time": 0.4583333333333334,
                        "value": 0.07874015748031496
                    }
                ],
                "98": [
                    {
                        "number": 98,
                        "time": 0.4791666666666668,
                        "value": 0.7795275590551181
                    },
                    {
                        "number": 98,
                        "time": 0.5000000000000001,
                        "value": 0.25196850393700787
                    }
                ],
                "99": [
                    {
                        "number": 99,
                        "time": 0.4687500000000001,
                        "value": 0.007874015748031496
                    }
                ]
            },
            "id": 3,
            "name": "A",
            "instrumentNumber": 40,
            "instrument": "violin",
            "instrumentFamily": "strings",
            "channelNumber": 2,
            "isPercussion": false
        },
        {
            "startTime": 2.1874999999999996,
            "duration": 68.58333333333316,
            "length": 242,
            "notes": [
                {
                    "name": "F#5",
                    "midi": 78,
                    "time": 2.1874999999999996,
                    "velocity": 0.9448818897637795,
                    "duration": 0.04166666666666652
                },
                {
                    "name": "F#5",
                    "midi": 78,
                    "time": 2.2499999999999996,
                    "velocity": 0.9448818897637795,
                    "duration": 0.04166666666666652
                },
                {
                    "name": "B5",
                    "midi": 83,
                    "time": 3.1874999999999996,
                    "velocity": 0.9448818897637795,
                    "duration": 0.04166666666666652
                },
                {
                    "name": "B5",
                    "midi": 83,
                    "time": 3.2499999999999996,
                    "velocity": 0.9448818897637795,
                    "duration": 0.04166666666666652
                },
                {
                    "name": "F#5",
                    "midi": 78,
                    "time": 4.187499999999999,
                    "velocity": 0.9448818897637795,
                    "duration": 0.04166666666666696
                },
                {
                    "name": "F#5",
                    "midi": 78,
                    "time": 4.249999999999999,
                    "velocity": 0.9448818897637795,
                    "duration": 0.04166666666666696
                },
                {
                    "name": "B5",
                    "midi": 83,
                    "time": 5.187499999999999,
                    "velocity": 0.9448818897637795,
                    "duration": 0.04166666666666696
                },
                {
                    "name": "B5",
                    "midi": 83,
                    "time": 5.249999999999999,
                    "velocity": 0.9448818897637795,
                    "duration": 0.04166666666666696
                },
                {
                    "name": "G#5",
                    "midi": 80,
                    "time": 5.687499999999999,
                    "velocity": 0.9448818897637795,
                    "duration": 0.04166666666666696
                },
                {
                    "name": "G#5",
                    "midi": 80,
                    "time": 5.749999999999999,
                    "velocity": 0.9448818897637795,
                    "duration": 0.04166666666666696
                },
                {
                    "name": "A5",
                    "midi": 81,
                    "time": 6.187499999999999,
                    "velocity": 0.9448818897637795,
                    "duration": 0.04166666666666696
                },
                {
                    "name": "C#6",
                    "midi": 85,
                    "time": 6.249999999999999,
                    "velocity": 0.9448818897637795,
                    "duration": 0.08333333333333304
                },
                {
                    "name": "E6",
                    "midi": 88,
                    "time": 6.374999999999999,
                    "velocity": 0.9448818897637795,
                    "duration": 0.08333333333333304
                },
                {
                    "name": "A#5",
                    "midi": 82,
                    "time": 6.687499999999999,
                    "velocity": 0.9448818897637795,
                    "duration": 0.04166666666666696
                },
                {
                    "name": "A#5",
                    "midi": 82,
                    "time": 6.749999999999999,
                    "velocity": 0.9448818897637795,
                    "duration": 0.04166666666666696
                },
                {
                    "name": "B5",
                    "midi": 83,
                    "time": 7.187499999999999,
                    "velocity": 0.9448818897637795,
                    "duration": 0.04166666666666696
                },
                {
                    "name": "D#6",
                    "midi": 87,
                    "time": 7.249999999999999,
                    "velocity": 0.9448818897637795,
                    "duration": 0.08333333333333304
                },
                {
                    "name": "F#6",
                    "midi": 90,
                    "time": 7.374999999999999,
                    "velocity": 0.9448818897637795,
                    "duration": 0.08333333333333304
                },
                {
                    "name": "D#6",
                    "midi": 87,
                    "time": 7.687499999999999,
                    "velocity": 0.9448818897637795,
                    "duration": 0.04166666666666696
                },
                {
                    "name": "D#6",
                    "midi": 87,
                    "time": 7.749999999999999,
                    "velocity": 0.9448818897637795,
                    "duration": 0.04166666666666696
                },
                {
                    "name": "E6",
                    "midi": 88,
                    "time": 8.1875,
                    "velocity": 0.9448818897637795,
                    "duration": 0.041666666666666075
                },
                {
                    "name": "E6",
                    "midi": 88,
                    "time": 8.25,
                    "velocity": 0.9448818897637795,
                    "duration": 0.041666666666666075
                },
                {
                    "name": "F#6",
                    "midi": 90,
                    "time": 8.6875,
                    "velocity": 0.9448818897637795,
                    "duration": 0.041666666666666075
                },
                {
                    "name": "F#6",
                    "midi": 90,
                    "time": 8.75,
                    "velocity": 0.9448818897637795,
                    "duration": 0.041666666666666075
                },
                {
                    "name": "G#6",
                    "midi": 92,
                    "time": 9.1875,
                    "velocity": 0.9448818897637795,
                    "duration": 0.041666666666666075
                },
                {
                    "name": "G#6",
                    "midi": 92,
                    "time": 9.25,
                    "velocity": 0.9448818897637795,
                    "duration": 0.041666666666666075
                },
                {
                    "name": "A6",
                    "midi": 93,
                    "time": 9.6875,
                    "velocity": 0.9448818897637795,
                    "duration": 0.041666666666666075
                },
                {
                    "name": "A6",
                    "midi": 93,
                    "time": 9.75,
                    "velocity": 0.9448818897637795,
                    "duration": 0.041666666666666075
                },
                {
                    "name": "C#7",
                    "midi": 97,
                    "time": 10.1875,
                    "velocity": 0.9448818897637795,
                    "duration": 0.041666666666666075
                },
                {
                    "name": "C#7",
                    "midi": 97,
                    "time": 10.25,
                    "velocity": 0.9448818897637795,
                    "duration": 0.041666666666666075
                },
                {
                    "name": "E7",
                    "midi": 100,
                    "time": 10.6875,
                    "velocity": 0.9448818897637795,
                    "duration": 0.041666666666666075
                },
                {
                    "name": "E7",
                    "midi": 100,
                    "time": 10.75,
                    "velocity": 0.9448818897637795,
                    "duration": 0.041666666666666075
                },
                {
                    "name": "C#7",
                    "midi": 97,
                    "time": 11.1875,
                    "velocity": 0.9448818897637795,
                    "duration": 0.041666666666666075
                },
                {
                    "name": "C#7",
                    "midi": 97,
                    "time": 11.25,
                    "velocity": 0.9448818897637795,
                    "duration": 0.041666666666666075
                },
                {
                    "name": "A#6",
                    "midi": 94,
                    "time": 11.6875,
                    "velocity": 0.9448818897637795,
                    "duration": 0.041666666666666075
                },
                {
                    "name": "A#6",
                    "midi": 94,
                    "time": 11.75,
                    "velocity": 0.9448818897637795,
                    "duration": 0.041666666666666075
                },
                {
                    "name": "G6",
                    "midi": 91,
                    "time": 12.1875,
                    "velocity": 0.9448818897637795,
                    "duration": 0.041666666666666075
                },
                {
                    "name": "G6",
                    "midi": 91,
                    "time": 12.25,
                    "velocity": 0.9448818897637795,
                    "duration": 0.041666666666666075
                },
                {
                    "name": "E6",
                    "midi": 88,
                    "time": 12.6875,
                    "velocity": 0.9448818897637795,
                    "duration": 0.041666666666666075
                },
                {
                    "name": "E6",
                    "midi": 88,
                    "time": 12.75,
                    "velocity": 0.9448818897637795,
                    "duration": 0.041666666666666075
                },
                {
                    "name": "B5",
                    "midi": 83,
                    "time": 13.1875,
                    "velocity": 0.9448818897637795,
                    "duration": 0.041666666666666075
                },
                {
                    "name": "D#6",
                    "midi": 87,
                    "time": 13.25,
                    "velocity": 0.9448818897637795,
                    "duration": 0.08333333333333393
                },
                {
                    "name": "F#6",
                    "midi": 90,
                    "time": 13.375,
                    "velocity": 0.9448818897637795,
                    "duration": 0.08333333333333393
                },
                {
                    "name": "F#5",
                    "midi": 78,
                    "time": 13.6875,
                    "velocity": 0.9448818897637795,
                    "duration": 0.041666666666666075
                },
                {
                    "name": "F#5",
                    "midi": 78,
                    "time": 13.75,
                    "velocity": 0.9448818897637795,
                    "duration": 0.041666666666666075
                },
                {
                    "name": "G#5",
                    "midi": 80,
                    "time": 14.1875,
                    "velocity": 0.9448818897637795,
                    "duration": 0.041666666666666075
                },
                {
                    "name": "B5",
                    "midi": 83,
                    "time": 14.25,
                    "velocity": 0.9448818897637795,
                    "duration": 0.08333333333333393
                },
                {
                    "name": "E6",
                    "midi": 88,
                    "time": 14.375,
                    "velocity": 0.9448818897637795,
                    "duration": 0.08333333333333393
                },
                {
                    "name": "F#5",
                    "midi": 78,
                    "time": 14.6875,
                    "velocity": 0.9448818897637795,
                    "duration": 0.041666666666666075
                },
                {
                    "name": "F#5",
                    "midi": 78,
                    "time": 14.75,
                    "velocity": 0.9448818897637795,
                    "duration": 0.041666666666666075
                },
                {
                    "name": "G#5",
                    "midi": 80,
                    "time": 15.1875,
                    "velocity": 0.9448818897637795,
                    "duration": 0.041666666666666075
                },
                {
                    "name": "B5",
                    "midi": 83,
                    "time": 15.25,
                    "velocity": 0.9448818897637795,
                    "duration": 0.08333333333333393
                },
                {
                    "name": "E6",
                    "midi": 88,
                    "time": 15.375,
                    "velocity": 0.9448818897637795,
                    "duration": 0.08333333333333393
                },
                {
                    "name": "A5",
                    "midi": 81,
                    "time": 15.625,
                    "velocity": 0.9448818897637795,
                    "duration": 0.09375
                },
                {
                    "name": "B5",
                    "midi": 83,
                    "time": 15.875,
                    "velocity": 0.9448818897637795,
                    "duration": 0.09375
                },
                {
                    "name": "C#6",
                    "midi": 85,
                    "time": 16.125,
                    "velocity": 0.9448818897637795,
                    "duration": 0.09375
                },
                {
                    "name": "C6",
                    "midi": 84,
                    "time": 16.375,
                    "velocity": 0.9448818897637795,
                    "duration": 0.09375
                },
                {
                    "name": "B5",
                    "midi": 83,
                    "time": 16.625,
                    "velocity": 0.9448818897637795,
                    "duration": 0.09375
                },
                {
                    "name": "B5",
                    "midi": 83,
                    "time": 16.875,
                    "velocity": 0.9448818897637795,
                    "duration": 0.09375
                },
                {
                    "name": "E6",
                    "midi": 88,
                    "time": 17.25,
                    "velocity": 0.9448818897637795,
                    "duration": 0.2291666666666785
                },
                {
                    "name": "F#5",
                    "midi": 78,
                    "time": 18.31250000000001,
                    "velocity": 0.9448818897637795,
                    "duration": 0.04166666666666785
                },
                {
                    "name": "F#5",
                    "midi": 78,
                    "time": 18.37500000000001,
                    "velocity": 0.9448818897637795,
                    "duration": 0.04166666666666785
                },
                {
                    "name": "B5",
                    "midi": 83,
                    "time": 19.31250000000001,
                    "velocity": 0.9448818897637795,
                    "duration": 0.04166666666666785
                },
                {
                    "name": "B5",
                    "midi": 83,
                    "time": 19.37500000000001,
                    "velocity": 0.9448818897637795,
                    "duration": 0.04166666666666785
                },
                {
                    "name": "F#5",
                    "midi": 78,
                    "time": 20.31250000000001,
                    "velocity": 0.9448818897637795,
                    "duration": 0.04166666666666785
                },
                {
                    "name": "F#5",
                    "midi": 78,
                    "time": 20.37500000000001,
                    "velocity": 0.9448818897637795,
                    "duration": 0.04166666666666785
                },
                {
                    "name": "B5",
                    "midi": 83,
                    "time": 21.31250000000001,
                    "velocity": 0.9448818897637795,
                    "duration": 0.04166666666666785
                },
                {
                    "name": "B5",
                    "midi": 83,
                    "time": 21.37500000000001,
                    "velocity": 0.9448818897637795,
                    "duration": 0.04166666666666785
                },
                {
                    "name": "B5",
                    "midi": 83,
                    "time": 21.81250000000001,
                    "velocity": 0.9448818897637795,
                    "duration": 0.04166666666666785
                },
                {
                    "name": "B5",
                    "midi": 83,
                    "time": 21.87500000000001,
                    "velocity": 0.9448818897637795,
                    "duration": 0.04166666666666785
                },
                {
                    "name": "C6",
                    "midi": 84,
                    "time": 22.31250000000001,
                    "velocity": 0.9448818897637795,
                    "duration": 0.04166666666666785
                },
                {
                    "name": "C6",
                    "midi": 84,
                    "time": 22.37500000000001,
                    "velocity": 0.9448818897637795,
                    "duration": 0.04166666666666785
                },
                {
                    "name": "A5",
                    "midi": 81,
                    "time": 22.81250000000001,
                    "velocity": 0.9448818897637795,
                    "duration": 0.04166666666666785
                },
                {
                    "name": "A5",
                    "midi": 81,
                    "time": 22.87500000000001,
                    "velocity": 0.9448818897637795,
                    "duration": 0.04166666666666785
                },
                {
                    "name": "D6",
                    "midi": 86,
                    "time": 23.31250000000001,
                    "velocity": 0.9448818897637795,
                    "duration": 0.04166666666666785
                },
                {
                    "name": "D6",
                    "midi": 86,
                    "time": 23.37500000000001,
                    "velocity": 0.9448818897637795,
                    "duration": 0.04166666666666785
                },
                {
                    "name": "G6",
                    "midi": 91,
                    "time": 23.81250000000001,
                    "velocity": 0.9448818897637795,
                    "duration": 0.04166666666666785
                },
                {
                    "name": "G6",
                    "midi": 91,
                    "time": 23.87500000000001,
                    "velocity": 0.9448818897637795,
                    "duration": 0.04166666666666785
                },
                {
                    "name": "B6",
                    "midi": 95,
                    "time": 24.31250000000001,
                    "velocity": 0.9448818897637795,
                    "duration": 0.04166666666666785
                },
                {
                    "name": "B6",
                    "midi": 95,
                    "time": 24.37500000000001,
                    "velocity": 0.9448818897637795,
                    "duration": 0.04166666666666785
                },
                {
                    "name": "D7",
                    "midi": 98,
                    "time": 24.81250000000001,
                    "velocity": 0.9448818897637795,
                    "duration": 0.04166666666666785
                },
                {
                    "name": "D7",
                    "midi": 98,
                    "time": 24.87500000000001,
                    "velocity": 0.9448818897637795,
                    "duration": 0.04166666666666785
                },
                {
                    "name": "C6",
                    "midi": 84,
                    "time": 25.31250000000001,
                    "velocity": 0.9448818897637795,
                    "duration": 0.04166666666666785
                },
                {
                    "name": "E6",
                    "midi": 88,
                    "time": 25.50000000000001,
                    "velocity": 0.9448818897637795,
                    "duration": 0.08333333333333215
                },
                {
                    "name": "D6",
                    "midi": 86,
                    "time": 25.81250000000001,
                    "velocity": 0.9448818897637795,
                    "duration": 0.04166666666666785
                },
                {
                    "name": "F#6",
                    "midi": 90,
                    "time": 26.00000000000001,
                    "velocity": 0.9448818897637795,
                    "duration": 0.08333333333333215
                },
                {
                    "name": "E6",
                    "midi": 88,
                    "time": 26.312500000000007,
                    "velocity": 0.9448818897637795,
                    "duration": 0.04166666666666785
                },
                {
                    "name": "F#6",
                    "midi": 90,
                    "time": 26.500000000000007,
                    "velocity": 0.9448818897637795,
                    "duration": 0.08333333333333215
                },
                {
                    "name": "G6",
                    "midi": 91,
                    "time": 26.750000000000004,
                    "velocity": 0.9448818897637795,
                    "duration": 0.08333333333333215
                },
                {
                    "name": "A6",
                    "midi": 93,
                    "time": 27.000000000000004,
                    "velocity": 0.9448818897637795,
                    "duration": 0.08333333333333215
                },
                {
                    "name": "B6",
                    "midi": 95,
                    "time": 27.25,
                    "velocity": 0.9448818897637795,
                    "duration": 0.08333333333333215
                },
                {
                    "name": "C7",
                    "midi": 96,
                    "time": 27.5,
                    "velocity": 0.9448818897637795,
                    "duration": 0.08333333333333215
                },
                {
                    "name": "G6",
                    "midi": 91,
                    "time": 27.749999999999996,
                    "velocity": 0.9448818897637795,
                    "duration": 0.04166666666666785
                },
                {
                    "name": "E7",
                    "midi": 100,
                    "time": 27.812499999999996,
                    "velocity": 0.9448818897637795,
                    "duration": 0.04166666666666785
                },
                {
                    "name": "G7",
                    "midi": 103,
                    "time": 27.874999999999996,
                    "velocity": 0.9448818897637795,
                    "duration": 0.08333333333333215
                },
                {
                    "name": "D6",
                    "midi": 86,
                    "time": 28.249999999999996,
                    "velocity": 0.9448818897637795,
                    "duration": 0.04166666666666785
                },
                {
                    "name": "C6",
                    "midi": 84,
                    "time": 28.333333333333332,
                    "velocity": 0.9448818897637795,
                    "duration": 0.04166666666666785
                },
                {
                    "name": "B5",
                    "midi": 83,
                    "time": 28.416666666666668,
                    "velocity": 0.9448818897637795,
                    "duration": 0.04166666666666785
                },
                {
                    "name": "A5",
                    "midi": 81,
                    "time": 28.500000000000004,
                    "velocity": 0.9448818897637795,
                    "duration": 0.04166666666666785
                },
                {
                    "name": "F#5",
                    "midi": 78,
                    "time": 28.66666666666667,
                    "velocity": 0.9448818897637795,
                    "duration": 0.04166666666666785
                },
                {
                    "name": "G5",
                    "midi": 79,
                    "time": 29.35416666666667,
                    "velocity": 0.9448818897637795,
                    "duration": 0.04166666666666785
                },
                {
                    "name": "G5",
                    "midi": 79,
                    "time": 29.41666666666667,
                    "velocity": 0.9448818897637795,
                    "duration": 0.04166666666666785
                },
                {
                    "name": "F#5",
                    "midi": 78,
                    "time": 29.85416666666667,
                    "velocity": 0.9448818897637795,
                    "duration": 0.04166666666666785
                },
                {
                    "name": "F#5",
                    "midi": 78,
                    "time": 29.91666666666667,
                    "velocity": 0.9448818897637795,
                    "duration": 0.04166666666666785
                },
                {
                    "name": "D6",
                    "midi": 86,
                    "time": 30.250000000000007,
                    "velocity": 0.9448818897637795,
                    "duration": 0.04166666666666785
                },
                {
                    "name": "C6",
                    "midi": 84,
                    "time": 30.333333333333343,
                    "velocity": 0.9448818897637795,
                    "duration": 0.04166666666666785
                },
                {
                    "name": "B5",
                    "midi": 83,
                    "time": 30.41666666666668,
                    "velocity": 0.9448818897637795,
                    "duration": 0.04166666666666785
                },
                {
                    "name": "A5",
                    "midi": 81,
                    "time": 30.500000000000014,
                    "velocity": 0.9448818897637795,
                    "duration": 0.04166666666666785
                },
                {
                    "name": "F#5",
                    "midi": 78,
                    "time": 30.666666666666682,
                    "velocity": 0.9448818897637795,
                    "duration": 0.04166666666666785
                },
                {
                    "name": "G5",
                    "midi": 79,
                    "time": 31.354166666666682,
                    "velocity": 0.9448818897637795,
                    "duration": 0.04166666666666785
                },
                {
                    "name": "G5",
                    "midi": 79,
                    "time": 31.416666666666682,
                    "velocity": 0.9448818897637795,
                    "duration": 0.04166666666666785
                },
                {
                    "name": "F#5",
                    "midi": 78,
                    "time": 31.854166666666682,
                    "velocity": 0.9448818897637795,
                    "duration": 0.04166666666666785
                },
                {
                    "name": "F#5",
                    "midi": 78,
                    "time": 31.916666666666682,
                    "velocity": 0.9448818897637795,
                    "duration": 0.04166666666666785
                },
                {
                    "name": "D6",
                    "midi": 86,
                    "time": 32.250000000000014,
                    "velocity": 0.9448818897637795,
                    "duration": 0.0416666666666643
                },
                {
                    "name": "C6",
                    "midi": 84,
                    "time": 32.33333333333334,
                    "velocity": 0.9448818897637795,
                    "duration": 0.0416666666666643
                },
                {
                    "name": "B5",
                    "midi": 83,
                    "time": 32.41666666666667,
                    "velocity": 0.9448818897637795,
                    "duration": 0.0416666666666643
                },
                {
                    "name": "A5",
                    "midi": 81,
                    "time": 32.5,
                    "velocity": 0.9448818897637795,
                    "duration": 0.0416666666666643
                },
                {
                    "name": "F#5",
                    "midi": 78,
                    "time": 32.666666666666664,
                    "velocity": 0.9448818897637795,
                    "duration": 0.0416666666666643
                },
                {
                    "name": "G5",
                    "midi": 79,
                    "time": 33.354166666666664,
                    "velocity": 0.9448818897637795,
                    "duration": 0.0416666666666643
                },
                {
                    "name": "G5",
                    "midi": 79,
                    "time": 33.416666666666664,
                    "velocity": 0.9448818897637795,
                    "duration": 0.0416666666666643
                },
                {
                    "name": "G5",
                    "midi": 79,
                    "time": 33.854166666666664,
                    "velocity": 0.9448818897637795,
                    "duration": 0.0416666666666643
                },
                {
                    "name": "G5",
                    "midi": 79,
                    "time": 33.916666666666664,
                    "velocity": 0.9448818897637795,
                    "duration": 0.0416666666666643
                },
                {
                    "name": "C#6",
                    "midi": 85,
                    "time": 34.24999999999999,
                    "velocity": 0.9448818897637795,
                    "duration": 0.0416666666666643
                },
                {
                    "name": "C6",
                    "midi": 84,
                    "time": 34.33333333333332,
                    "velocity": 0.9448818897637795,
                    "duration": 0.0416666666666643
                },
                {
                    "name": "A#5",
                    "midi": 82,
                    "time": 34.41666666666665,
                    "velocity": 0.9448818897637795,
                    "duration": 0.0416666666666643
                },
                {
                    "name": "A#5",
                    "midi": 82,
                    "time": 34.49999999999998,
                    "velocity": 0.9448818897637795,
                    "duration": 0.0416666666666643
                },
                {
                    "name": "G#5",
                    "midi": 80,
                    "time": 34.58333333333331,
                    "velocity": 0.9448818897637795,
                    "duration": 0.0416666666666643
                },
                {
                    "name": "G5",
                    "midi": 79,
                    "time": 34.666666666666636,
                    "velocity": 0.9448818897637795,
                    "duration": 0.0416666666666643
                },
                {
                    "name": "F5",
                    "midi": 77,
                    "time": 34.749999999999964,
                    "velocity": 0.9448818897637795,
                    "duration": 0.0416666666666643
                },
                {
                    "name": "G#5",
                    "midi": 80,
                    "time": 35.35416666666663,
                    "velocity": 0.9448818897637795,
                    "duration": 0.0416666666666643
                },
                {
                    "name": "G#5",
                    "midi": 80,
                    "time": 35.41666666666663,
                    "velocity": 0.9448818897637795,
                    "duration": 0.0416666666666643
                },
                {
                    "name": "G#5",
                    "midi": 80,
                    "time": 35.85416666666663,
                    "velocity": 0.9448818897637795,
                    "duration": 0.0416666666666643
                },
                {
                    "name": "G#5",
                    "midi": 80,
                    "time": 35.91666666666663,
                    "velocity": 0.9448818897637795,
                    "duration": 0.0416666666666643
                },
                {
                    "name": "D6",
                    "midi": 86,
                    "time": 36.24999999999996,
                    "velocity": 0.9448818897637795,
                    "duration": 0.0416666666666643
                },
                {
                    "name": "C#6",
                    "midi": 85,
                    "time": 36.333333333333286,
                    "velocity": 0.9448818897637795,
                    "duration": 0.0416666666666643
                },
                {
                    "name": "B5",
                    "midi": 83,
                    "time": 36.416666666666615,
                    "velocity": 0.9448818897637795,
                    "duration": 0.0416666666666643
                },
                {
                    "name": "B5",
                    "midi": 83,
                    "time": 36.49999999999994,
                    "velocity": 0.9448818897637795,
                    "duration": 0.0416666666666643
                },
                {
                    "name": "A5",
                    "midi": 81,
                    "time": 36.58333333333327,
                    "velocity": 0.9448818897637795,
                    "duration": 0.0416666666666643
                },
                {
                    "name": "F#5",
                    "midi": 78,
                    "time": 36.749999999999936,
                    "velocity": 0.9448818897637795,
                    "duration": 0.0416666666666643
                },
                {
                    "name": "A5",
                    "midi": 81,
                    "time": 37.3541666666666,
                    "velocity": 0.9448818897637795,
                    "duration": 0.0416666666666643
                },
                {
                    "name": "A5",
                    "midi": 81,
                    "time": 37.4166666666666,
                    "velocity": 0.9448818897637795,
                    "duration": 0.0416666666666643
                },
                {
                    "name": "A5",
                    "midi": 81,
                    "time": 37.8541666666666,
                    "velocity": 0.9448818897637795,
                    "duration": 0.0416666666666643
                },
                {
                    "name": "A5",
                    "midi": 81,
                    "time": 37.9166666666666,
                    "velocity": 0.9448818897637795,
                    "duration": 0.0416666666666643
                },
                {
                    "name": "D#6",
                    "midi": 87,
                    "time": 38.24999999999993,
                    "velocity": 0.9448818897637795,
                    "duration": 0.0416666666666643
                },
                {
                    "name": "D6",
                    "midi": 86,
                    "time": 38.33333333333326,
                    "velocity": 0.9448818897637795,
                    "duration": 0.0416666666666643
                },
                {
                    "name": "C6",
                    "midi": 84,
                    "time": 38.416666666666586,
                    "velocity": 0.9448818897637795,
                    "duration": 0.0416666666666643
                },
                {
                    "name": "C6",
                    "midi": 84,
                    "time": 38.499999999999915,
                    "velocity": 0.9448818897637795,
                    "duration": 0.0416666666666643
                },
                {
                    "name": "A#5",
                    "midi": 82,
                    "time": 38.58333333333324,
                    "velocity": 0.9448818897637795,
                    "duration": 0.0416666666666643
                },
                {
                    "name": "A5",
                    "midi": 81,
                    "time": 38.66666666666657,
                    "velocity": 0.9448818897637795,
                    "duration": 0.0416666666666643
                },
                {
                    "name": "G5",
                    "midi": 79,
                    "time": 38.7499999999999,
                    "velocity": 0.9448818897637795,
                    "duration": 0.0416666666666643
                },
                {
                    "name": "F5",
                    "midi": 77,
                    "time": 38.83333333333323,
                    "velocity": 0.9448818897637795,
                    "duration": 0.0416666666666643
                },
                {
                    "name": "A#5",
                    "midi": 82,
                    "time": 39.35416666666656,
                    "velocity": 0.9448818897637795,
                    "duration": 0.0416666666666643
                },
                {
                    "name": "A#5",
                    "midi": 82,
                    "time": 39.41666666666656,
                    "velocity": 0.9448818897637795,
                    "duration": 0.0416666666666643
                },
                {
                    "name": "A#5",
                    "midi": 82,
                    "time": 39.85416666666656,
                    "velocity": 0.9448818897637795,
                    "duration": 0.0416666666666643
                },
                {
                    "name": "A#5",
                    "midi": 82,
                    "time": 39.91666666666656,
                    "velocity": 0.9448818897637795,
                    "duration": 0.0416666666666643
                },
                {
                    "name": "A#5",
                    "midi": 82,
                    "time": 40.35416666666656,
                    "velocity": 0.9448818897637795,
                    "duration": 0.0416666666666643
                },
                {
                    "name": "A#5",
                    "midi": 82,
                    "time": 40.41666666666656,
                    "velocity": 0.9448818897637795,
                    "duration": 0.0416666666666643
                },
                {
                    "name": "C#6",
                    "midi": 85,
                    "time": 40.85416666666656,
                    "velocity": 0.9448818897637795,
                    "duration": 0.0416666666666643
                },
                {
                    "name": "C#6",
                    "midi": 85,
                    "time": 40.91666666666656,
                    "velocity": 0.9448818897637795,
                    "duration": 0.0416666666666643
                },
                {
                    "name": "B5",
                    "midi": 83,
                    "time": 41.35416666666656,
                    "velocity": 0.9448818897637795,
                    "duration": 0.0416666666666643
                },
                {
                    "name": "B5",
                    "midi": 83,
                    "time": 41.41666666666656,
                    "velocity": 0.9448818897637795,
                    "duration": 0.0416666666666643
                },
                {
                    "name": "B5",
                    "midi": 83,
                    "time": 41.85416666666655,
                    "velocity": 0.9448818897637795,
                    "duration": 0.0416666666666643
                },
                {
                    "name": "B5",
                    "midi": 83,
                    "time": 41.91666666666655,
                    "velocity": 0.9448818897637795,
                    "duration": 0.0416666666666643
                },
                {
                    "name": "B5",
                    "midi": 83,
                    "time": 42.35416666666655,
                    "velocity": 0.9448818897637795,
                    "duration": 0.0416666666666643
                },
                {
                    "name": "B5",
                    "midi": 83,
                    "time": 42.41666666666655,
                    "velocity": 0.9448818897637795,
                    "duration": 0.0416666666666643
                },
                {
                    "name": "D6",
                    "midi": 86,
                    "time": 42.85416666666654,
                    "velocity": 0.9448818897637795,
                    "duration": 0.0416666666666643
                },
                {
                    "name": "D6",
                    "midi": 86,
                    "time": 42.91666666666654,
                    "velocity": 0.9448818897637795,
                    "duration": 0.0416666666666643
                },
                {
                    "name": "C6",
                    "midi": 84,
                    "time": 43.354166666666536,
                    "velocity": 0.9448818897637795,
                    "duration": 0.0416666666666643
                },
                {
                    "name": "C6",
                    "midi": 84,
                    "time": 43.416666666666536,
                    "velocity": 0.9448818897637795,
                    "duration": 0.0416666666666643
                },
                {
                    "name": "C6",
                    "midi": 84,
                    "time": 43.854166666666536,
                    "velocity": 0.9448818897637795,
                    "duration": 0.0416666666666643
                },
                {
                    "name": "C6",
                    "midi": 84,
                    "time": 43.916666666666536,
                    "velocity": 0.9448818897637795,
                    "duration": 0.0416666666666643
                },
                {
                    "name": "C6",
                    "midi": 84,
                    "time": 44.354166666666536,
                    "velocity": 0.9448818897637795,
                    "duration": 0.0416666666666643
                },
                {
                    "name": "C6",
                    "midi": 84,
                    "time": 44.416666666666536,
                    "velocity": 0.9448818897637795,
                    "duration": 0.0416666666666643
                },
                {
                    "name": "D#6",
                    "midi": 87,
                    "time": 44.85416666666653,
                    "velocity": 0.9448818897637795,
                    "duration": 0.0416666666666643
                },
                {
                    "name": "D#6",
                    "midi": 87,
                    "time": 44.91666666666653,
                    "velocity": 0.9448818897637795,
                    "duration": 0.0416666666666643
                },
                {
                    "name": "F5",
                    "midi": 77,
                    "time": 45.85416666666652,
                    "velocity": 0.9448818897637795,
                    "duration": 0.0416666666666643
                },
                {
                    "name": "F5",
                    "midi": 77,
                    "time": 45.91666666666652,
                    "velocity": 0.9448818897637795,
                    "duration": 0.0416666666666643
                },
                {
                    "name": "F#5",
                    "midi": 78,
                    "time": 46.35416666666652,
                    "velocity": 0.9448818897637795,
                    "duration": 0.0416666666666643
                },
                {
                    "name": "F#5",
                    "midi": 78,
                    "time": 46.41666666666652,
                    "velocity": 0.9448818897637795,
                    "duration": 0.0416666666666643
                },
                {
                    "name": "F5",
                    "midi": 77,
                    "time": 46.85416666666652,
                    "velocity": 0.9448818897637795,
                    "duration": 0.0416666666666643
                },
                {
                    "name": "F5",
                    "midi": 77,
                    "time": 46.91666666666652,
                    "velocity": 0.9448818897637795,
                    "duration": 0.0416666666666643
                },
                {
                    "name": "G#5",
                    "midi": 80,
                    "time": 47.35416666666652,
                    "velocity": 0.9448818897637795,
                    "duration": 0.0416666666666643
                },
                {
                    "name": "G#5",
                    "midi": 80,
                    "time": 47.41666666666652,
                    "velocity": 0.9448818897637795,
                    "duration": 0.0416666666666643
                },
                {
                    "name": "F#5",
                    "midi": 78,
                    "time": 48.35416666666652,
                    "velocity": 0.9448818897637795,
                    "duration": 0.0416666666666643
                },
                {
                    "name": "F#5",
                    "midi": 78,
                    "time": 48.41666666666652,
                    "velocity": 0.9448818897637795,
                    "duration": 0.0416666666666643
                },
                {
                    "name": "G#5",
                    "midi": 80,
                    "time": 49.35416666666652,
                    "velocity": 0.9448818897637795,
                    "duration": 0.0416666666666643
                },
                {
                    "name": "G#5",
                    "midi": 80,
                    "time": 49.41666666666652,
                    "velocity": 0.9448818897637795,
                    "duration": 0.0416666666666643
                },
                {
                    "name": "A5",
                    "midi": 81,
                    "time": 50.8541666666665,
                    "velocity": 0.9448818897637795,
                    "duration": 0.0416666666666643
                },
                {
                    "name": "A5",
                    "midi": 81,
                    "time": 50.9166666666665,
                    "velocity": 0.9448818897637795,
                    "duration": 0.041666666666671404
                },
                {
                    "name": "C#6",
                    "midi": 85,
                    "time": 51.3541666666665,
                    "velocity": 0.9448818897637795,
                    "duration": 0.0416666666666643
                },
                {
                    "name": "C#6",
                    "midi": 85,
                    "time": 51.4166666666665,
                    "velocity": 0.9448818897637795,
                    "duration": 0.0416666666666643
                },
                {
                    "name": "B5",
                    "midi": 83,
                    "time": 51.7916666666665,
                    "velocity": 0.9448818897637795,
                    "duration": 0.09375
                },
                {
                    "name": "B5",
                    "midi": 83,
                    "time": 52.0416666666665,
                    "velocity": 0.9448818897637795,
                    "duration": 0.09375
                },
                {
                    "name": "G#5",
                    "midi": 80,
                    "time": 52.2916666666665,
                    "velocity": 0.9448818897637795,
                    "duration": 0.09375
                },
                {
                    "name": "A5",
                    "midi": 81,
                    "time": 52.5416666666665,
                    "velocity": 0.9448818897637795,
                    "duration": 0.09375
                },
                {
                    "name": "B5",
                    "midi": 83,
                    "time": 52.7916666666665,
                    "velocity": 0.9448818897637795,
                    "duration": 0.09375
                },
                {
                    "name": "B5",
                    "midi": 83,
                    "time": 53.0416666666665,
                    "velocity": 0.9448818897637795,
                    "duration": 0.09375
                },
                {
                    "name": "E6",
                    "midi": 88,
                    "time": 53.4166666666665,
                    "velocity": 0.9448818897637795,
                    "duration": 0.22916666666664298
                },
                {
                    "name": "B5",
                    "midi": 83,
                    "time": 55.54166666666648,
                    "velocity": 0.9448818897637795,
                    "duration": 0.0416666666666643
                },
                {
                    "name": "A5",
                    "midi": 81,
                    "time": 55.62499999999981,
                    "velocity": 0.9448818897637795,
                    "duration": 0.0416666666666643
                },
                {
                    "name": "C#6",
                    "midi": 85,
                    "time": 55.79166666666647,
                    "velocity": 0.9448818897637795,
                    "duration": 0.0416666666666643
                },
                {
                    "name": "B5",
                    "midi": 83,
                    "time": 55.8749999999998,
                    "velocity": 0.9448818897637795,
                    "duration": 0.0416666666666643
                },
                {
                    "name": "A5",
                    "midi": 81,
                    "time": 55.95833333333313,
                    "velocity": 0.9448818897637795,
                    "duration": 0.0416666666666643
                },
                {
                    "name": "F#5",
                    "midi": 78,
                    "time": 56.124999999999794,
                    "velocity": 0.9448818897637795,
                    "duration": 0.0416666666666643
                },
                {
                    "name": "B5",
                    "midi": 83,
                    "time": 56.47916666666646,
                    "velocity": 0.9448818897637795,
                    "duration": 0.0416666666666643
                },
                {
                    "name": "B5",
                    "midi": 83,
                    "time": 56.54166666666646,
                    "velocity": 0.9448818897637795,
                    "duration": 0.0416666666666643
                },
                {
                    "name": "B5",
                    "midi": 83,
                    "time": 56.97916666666646,
                    "velocity": 0.9448818897637795,
                    "duration": 0.0416666666666643
                },
                {
                    "name": "B5",
                    "midi": 83,
                    "time": 57.04166666666646,
                    "velocity": 0.9448818897637795,
                    "duration": 0.0416666666666643
                },
                {
                    "name": "G#6",
                    "midi": 92,
                    "time": 57.54166666666646,
                    "velocity": 0.9448818897637795,
                    "duration": 0.0833333333333357
                },
                {
                    "name": "E6",
                    "midi": 88,
                    "time": 57.66666666666646,
                    "velocity": 0.9448818897637795,
                    "duration": 0.0833333333333357
                },
                {
                    "name": "E6",
                    "midi": 88,
                    "time": 57.97916666666646,
                    "velocity": 0.9448818897637795,
                    "duration": 0.0416666666666643
                },
                {
                    "name": "E6",
                    "midi": 88,
                    "time": 58.04166666666646,
                    "velocity": 0.9448818897637795,
                    "duration": 0.0416666666666643
                },
                {
                    "name": "E6",
                    "midi": 88,
                    "time": 58.47916666666646,
                    "velocity": 0.9448818897637795,
                    "duration": 0.0416666666666643
                },
                {
                    "name": "E6",
                    "midi": 88,
                    "time": 58.54166666666646,
                    "velocity": 0.9448818897637795,
                    "duration": 0.0416666666666643
                },
                {
                    "name": "E6",
                    "midi": 88,
                    "time": 58.97916666666646,
                    "velocity": 0.9448818897637795,
                    "duration": 0.0416666666666643
                },
                {
                    "name": "E6",
                    "midi": 88,
                    "time": 59.04166666666646,
                    "velocity": 0.9448818897637795,
                    "duration": 0.0416666666666643
                },
                {
                    "name": "E6",
                    "midi": 88,
                    "time": 59.47916666666646,
                    "velocity": 0.9448818897637795,
                    "duration": 0.0416666666666643
                },
                {
                    "name": "E6",
                    "midi": 88,
                    "time": 60.47916666666646,
                    "velocity": 0.9448818897637795,
                    "duration": 0.0416666666666643
                },
                {
                    "name": "E6",
                    "midi": 88,
                    "time": 60.54166666666646,
                    "velocity": 0.9448818897637795,
                    "duration": 0.0416666666666643
                },
                {
                    "name": "D#6",
                    "midi": 87,
                    "time": 60.97916666666646,
                    "velocity": 0.9448818897637795,
                    "duration": 0.0416666666666643
                },
                {
                    "name": "D#6",
                    "midi": 87,
                    "time": 61.04166666666646,
                    "velocity": 0.9448818897637795,
                    "duration": 0.0416666666666643
                },
                {
                    "name": "E6",
                    "midi": 88,
                    "time": 61.47916666666646,
                    "velocity": 0.9448818897637795,
                    "duration": 0.0416666666666643
                },
                {
                    "name": "G#6",
                    "midi": 92,
                    "time": 61.54166666666646,
                    "velocity": 0.9448818897637795,
                    "duration": 0.0416666666666643
                },
                {
                    "name": "E6",
                    "midi": 88,
                    "time": 61.97916666666646,
                    "velocity": 0.9448818897637795,
                    "duration": 0.0416666666666643
                },
                {
                    "name": "A6",
                    "midi": 93,
                    "time": 62.04166666666646,
                    "velocity": 0.9448818897637795,
                    "duration": 0.0416666666666643
                },
                {
                    "name": "E6",
                    "midi": 88,
                    "time": 62.47916666666646,
                    "velocity": 0.9448818897637795,
                    "duration": 0.0416666666666643
                },
                {
                    "name": "G#6",
                    "midi": 92,
                    "time": 62.54166666666646,
                    "velocity": 0.9448818897637795,
                    "duration": 0.0416666666666643
                },
                {
                    "name": "E6",
                    "midi": 88,
                    "time": 62.97916666666646,
                    "velocity": 0.9448818897637795,
                    "duration": 0.0416666666666643
                },
                {
                    "name": "A6",
                    "midi": 93,
                    "time": 63.04166666666646,
                    "velocity": 0.9448818897637795,
                    "duration": 0.0416666666666643
                },
                {
                    "name": "E6",
                    "midi": 88,
                    "time": 63.47916666666646,
                    "velocity": 0.9448818897637795,
                    "duration": 0.0416666666666643
                },
                {
                    "name": "G#6",
                    "midi": 92,
                    "time": 63.54166666666646,
                    "velocity": 0.9448818897637795,
                    "duration": 0.0416666666666643
                },
                {
                    "name": "E6",
                    "midi": 88,
                    "time": 63.97916666666646,
                    "velocity": 0.9448818897637795,
                    "duration": 0.041666666666671404
                },
                {
                    "name": "B5",
                    "midi": 83,
                    "time": 64.3749999999998,
                    "velocity": 0.9448818897637795,
                    "duration": 0.041666666666671404
                },
                {
                    "name": "A5",
                    "midi": 81,
                    "time": 64.45833333333314,
                    "velocity": 0.9448818897637795,
                    "duration": 0.041666666666671404
                },
                {
                    "name": "F#5",
                    "midi": 78,
                    "time": 64.62499999999982,
                    "velocity": 0.9448818897637795,
                    "duration": 0.041666666666671404
                },
                {
                    "name": "G#5",
                    "midi": 80,
                    "time": 65.54166666666649,
                    "velocity": 0.9448818897637795,
                    "duration": 0.041666666666671404
                },
                {
                    "name": "A5",
                    "midi": 81,
                    "time": 66.04166666666649,
                    "velocity": 0.9448818897637795,
                    "duration": 0.041666666666671404
                },
                {
                    "name": "G#5",
                    "midi": 80,
                    "time": 66.54166666666649,
                    "velocity": 0.9448818897637795,
                    "duration": 0.041666666666671404
                },
                {
                    "name": "A5",
                    "midi": 81,
                    "time": 67.04166666666649,
                    "velocity": 0.9448818897637795,
                    "duration": 0.041666666666671404
                },
                {
                    "name": "G#5",
                    "midi": 80,
                    "time": 67.54166666666649,
                    "velocity": 0.9448818897637795,
                    "duration": 0.041666666666671404
                },
                {
                    "name": "G5",
                    "midi": 79,
                    "time": 68.04166666666649,
                    "velocity": 0.9448818897637795,
                    "duration": 0.125
                },
                {
                    "name": "B5",
                    "midi": 83,
                    "time": 68.54166666666649,
                    "velocity": 0.9448818897637795,
                    "duration": 0.041666666666671404
                }
            ],
            "controlChanges": {
                "1": [
                    {
                        "number": 1,
                        "time": 17.25,
                        "value": 0
                    },
                    {
                        "number": 1,
                        "time": 17.260416666666668,
                        "value": 0.03937007874015748
                    },
                    {
                        "number": 1,
                        "time": 17.270833333333336,
                        "value": 0.06299212598425197
                    },
                    {
                        "number": 1,
                        "time": 17.281250000000004,
                        "value": 0.07874015748031496
                    },
                    {
                        "number": 1,
                        "time": 17.29166666666667,
                        "value": 0.09448818897637795
                    },
                    {
                        "number": 1,
                        "time": 17.30208333333334,
                        "value": 0.10236220472440945
                    },
                    {
                        "number": 1,
                        "time": 17.312500000000007,
                        "value": 0.11023622047244094
                    },
                    {
                        "number": 1,
                        "time": 17.322916666666675,
                        "value": 0.11811023622047244
                    },
                    {
                        "number": 1,
                        "time": 17.333333333333343,
                        "value": 0.12598425196850394
                    },
                    {
                        "number": 1,
                        "time": 17.34375000000001,
                        "value": 0.13385826771653545
                    },
                    {
                        "number": 1,
                        "time": 17.37500000000001,
                        "value": 0.14173228346456693
                    },
                    {
                        "number": 1,
                        "time": 17.50000000000001,
                        "value": 0
                    },
                    {
                        "number": 1,
                        "time": 53.4166666666665,
                        "value": 0
                    },
                    {
                        "number": 1,
                        "time": 53.427083333333165,
                        "value": 0.03937007874015748
                    },
                    {
                        "number": 1,
                        "time": 53.43749999999983,
                        "value": 0.06299212598425197
                    },
                    {
                        "number": 1,
                        "time": 53.447916666666494,
                        "value": 0.07874015748031496
                    },
                    {
                        "number": 1,
                        "time": 53.45833333333316,
                        "value": 0.09448818897637795
                    },
                    {
                        "number": 1,
                        "time": 53.46874999999982,
                        "value": 0.10236220472440945
                    },
                    {
                        "number": 1,
                        "time": 53.47916666666649,
                        "value": 0.11023622047244094
                    },
                    {
                        "number": 1,
                        "time": 53.48958333333315,
                        "value": 0.11811023622047244
                    },
                    {
                        "number": 1,
                        "time": 53.499999999999815,
                        "value": 0.12598425196850394
                    },
                    {
                        "number": 1,
                        "time": 53.51041666666648,
                        "value": 0.13385826771653545
                    },
                    {
                        "number": 1,
                        "time": 53.54166666666648,
                        "value": 0.14173228346456693
                    },
                    {
                        "number": 1,
                        "time": 53.66666666666648,
                        "value": 0
                    }
                ],
                "6": [
                    {
                        "number": 6,
                        "time": 0.5937499999999998,
                        "value": 0.4881889763779528
                    },
                    {
                        "number": 6,
                        "time": 0.614583333333333,
                        "value": 0.5039370078740157
                    }
                ],
                "7": [
                    {
                        "number": 7,
                        "time": 0.5416666666666666,
                        "value": 0.9448818897637795
                    }
                ],
                "11": [
                    {
                        "number": 11,
                        "time": 1.0104166666666663,
                        "value": 0.7874015748031497
                    },
                    {
                        "number": 11,
                        "time": 7.999999999999999,
                        "value": 0.7874015748031497
                    },
                    {
                        "number": 11,
                        "time": 8.125,
                        "value": 0.7952755905511811
                    },
                    {
                        "number": 11,
                        "time": 8.25,
                        "value": 0.8031496062992126
                    },
                    {
                        "number": 11,
                        "time": 8.375,
                        "value": 0.8110236220472441
                    },
                    {
                        "number": 11,
                        "time": 8.5,
                        "value": 0.8188976377952756
                    },
                    {
                        "number": 11,
                        "time": 8.625,
                        "value": 0.8267716535433071
                    },
                    {
                        "number": 11,
                        "time": 8.75,
                        "value": 0.8346456692913385
                    },
                    {
                        "number": 11,
                        "time": 8.875,
                        "value": 0.84251968503937
                    },
                    {
                        "number": 11,
                        "time": 9,
                        "value": 0.8503937007874016
                    },
                    {
                        "number": 11,
                        "time": 9.125,
                        "value": 0.8582677165354331
                    },
                    {
                        "number": 11,
                        "time": 9.25,
                        "value": 0.8661417322834646
                    },
                    {
                        "number": 11,
                        "time": 9.375,
                        "value": 0.8740157480314961
                    },
                    {
                        "number": 11,
                        "time": 9.5,
                        "value": 0.8818897637795275
                    },
                    {
                        "number": 11,
                        "time": 9.625,
                        "value": 0.889763779527559
                    },
                    {
                        "number": 11,
                        "time": 9.75,
                        "value": 0.8976377952755905
                    },
                    {
                        "number": 11,
                        "time": 9.875,
                        "value": 0.905511811023622
                    },
                    {
                        "number": 11,
                        "time": 10,
                        "value": 0.9133858267716536
                    },
                    {
                        "number": 11,
                        "time": 10.125,
                        "value": 0.9212598425196851
                    },
                    {
                        "number": 11,
                        "time": 10.25,
                        "value": 0.9291338582677166
                    },
                    {
                        "number": 11,
                        "time": 10.375,
                        "value": 0.937007874015748
                    },
                    {
                        "number": 11,
                        "time": 10.489583333333334,
                        "value": 0.9448818897637795
                    },
                    {
                        "number": 11,
                        "time": 10.625,
                        "value": 0.937007874015748
                    },
                    {
                        "number": 11,
                        "time": 10.75,
                        "value": 0.9291338582677166
                    },
                    {
                        "number": 11,
                        "time": 10.875,
                        "value": 0.9212598425196851
                    },
                    {
                        "number": 11,
                        "time": 11,
                        "value": 0.9133858267716536
                    },
                    {
                        "number": 11,
                        "time": 11.125,
                        "value": 0.905511811023622
                    },
                    {
                        "number": 11,
                        "time": 11.25,
                        "value": 0.8976377952755905
                    },
                    {
                        "number": 11,
                        "time": 11.375,
                        "value": 0.889763779527559
                    },
                    {
                        "number": 11,
                        "time": 11.5,
                        "value": 0.8818897637795275
                    },
                    {
                        "number": 11,
                        "time": 11.625,
                        "value": 0.8740157480314961
                    },
                    {
                        "number": 11,
                        "time": 11.75,
                        "value": 0.8661417322834646
                    },
                    {
                        "number": 11,
                        "time": 11.875,
                        "value": 0.8582677165354331
                    },
                    {
                        "number": 11,
                        "time": 12,
                        "value": 0.8503937007874016
                    },
                    {
                        "number": 11,
                        "time": 12.125,
                        "value": 0.84251968503937
                    },
                    {
                        "number": 11,
                        "time": 12.25,
                        "value": 0.8346456692913385
                    },
                    {
                        "number": 11,
                        "time": 12.375,
                        "value": 0.8267716535433071
                    },
                    {
                        "number": 11,
                        "time": 12.5,
                        "value": 0.8188976377952756
                    },
                    {
                        "number": 11,
                        "time": 12.625,
                        "value": 0.8110236220472441
                    },
                    {
                        "number": 11,
                        "time": 12.75,
                        "value": 0.8031496062992126
                    },
                    {
                        "number": 11,
                        "time": 12.875,
                        "value": 0.7952755905511811
                    },
                    {
                        "number": 11,
                        "time": 12.989583333333334,
                        "value": 0.7874015748031497
                    },
                    {
                        "number": 11,
                        "time": 13,
                        "value": 0.7874015748031497
                    },
                    {
                        "number": 11,
                        "time": 13.125,
                        "value": 0.7952755905511811
                    },
                    {
                        "number": 11,
                        "time": 13.25,
                        "value": 0.8031496062992126
                    },
                    {
                        "number": 11,
                        "time": 13.375,
                        "value": 0.8110236220472441
                    },
                    {
                        "number": 11,
                        "time": 13.5,
                        "value": 0.8188976377952756
                    },
                    {
                        "number": 11,
                        "time": 13.625,
                        "value": 0.8267716535433071
                    },
                    {
                        "number": 11,
                        "time": 13.75,
                        "value": 0.8346456692913385
                    },
                    {
                        "number": 11,
                        "time": 13.875,
                        "value": 0.84251968503937
                    },
                    {
                        "number": 11,
                        "time": 14,
                        "value": 0.8503937007874016
                    },
                    {
                        "number": 11,
                        "time": 14.125,
                        "value": 0.8582677165354331
                    },
                    {
                        "number": 11,
                        "time": 14.25,
                        "value": 0.8661417322834646
                    },
                    {
                        "number": 11,
                        "time": 14.375,
                        "value": 0.8740157480314961
                    },
                    {
                        "number": 11,
                        "time": 14.5,
                        "value": 0.8818897637795275
                    },
                    {
                        "number": 11,
                        "time": 14.625,
                        "value": 0.889763779527559
                    },
                    {
                        "number": 11,
                        "time": 14.75,
                        "value": 0.8976377952755905
                    },
                    {
                        "number": 11,
                        "time": 14.875,
                        "value": 0.905511811023622
                    },
                    {
                        "number": 11,
                        "time": 15,
                        "value": 0.9133858267716536
                    },
                    {
                        "number": 11,
                        "time": 15.125,
                        "value": 0.9212598425196851
                    },
                    {
                        "number": 11,
                        "time": 15.25,
                        "value": 0.9291338582677166
                    },
                    {
                        "number": 11,
                        "time": 15.375,
                        "value": 0.937007874015748
                    },
                    {
                        "number": 11,
                        "time": 15.489583333333334,
                        "value": 0.9448818897637795
                    },
                    {
                        "number": 11,
                        "time": 17.62500000000001,
                        "value": 0.7874015748031497
                    },
                    {
                        "number": 11,
                        "time": 25.12500000000001,
                        "value": 0.7874015748031497
                    },
                    {
                        "number": 11,
                        "time": 25.270833333333343,
                        "value": 0.7952755905511811
                    },
                    {
                        "number": 11,
                        "time": 25.41666666666668,
                        "value": 0.8031496062992126
                    },
                    {
                        "number": 11,
                        "time": 25.56250000000001,
                        "value": 0.8110236220472441
                    },
                    {
                        "number": 11,
                        "time": 25.708333333333343,
                        "value": 0.8188976377952756
                    },
                    {
                        "number": 11,
                        "time": 25.85416666666668,
                        "value": 0.8267716535433071
                    },
                    {
                        "number": 11,
                        "time": 26.00000000000001,
                        "value": 0.8346456692913385
                    },
                    {
                        "number": 11,
                        "time": 26.145833333333343,
                        "value": 0.84251968503937
                    },
                    {
                        "number": 11,
                        "time": 26.291666666666675,
                        "value": 0.8503937007874016
                    },
                    {
                        "number": 11,
                        "time": 26.437500000000007,
                        "value": 0.8582677165354331
                    },
                    {
                        "number": 11,
                        "time": 26.58333333333334,
                        "value": 0.8661417322834646
                    },
                    {
                        "number": 11,
                        "time": 26.72916666666667,
                        "value": 0.8740157480314961
                    },
                    {
                        "number": 11,
                        "time": 26.875000000000004,
                        "value": 0.8818897637795275
                    },
                    {
                        "number": 11,
                        "time": 27.020833333333336,
                        "value": 0.889763779527559
                    },
                    {
                        "number": 11,
                        "time": 27.166666666666668,
                        "value": 0.8976377952755905
                    },
                    {
                        "number": 11,
                        "time": 27.3125,
                        "value": 0.905511811023622
                    },
                    {
                        "number": 11,
                        "time": 27.458333333333332,
                        "value": 0.9133858267716536
                    },
                    {
                        "number": 11,
                        "time": 27.604166666666664,
                        "value": 0.9212598425196851
                    },
                    {
                        "number": 11,
                        "time": 27.749999999999996,
                        "value": 0.9291338582677166
                    },
                    {
                        "number": 11,
                        "time": 27.89583333333333,
                        "value": 0.937007874015748
                    },
                    {
                        "number": 11,
                        "time": 28.031249999999996,
                        "value": 0.9448818897637795
                    },
                    {
                        "number": 11,
                        "time": 28.041666666666664,
                        "value": 0.7874015748031497
                    },
                    {
                        "number": 11,
                        "time": 39.16666666666656,
                        "value": 0.7874015748031497
                    },
                    {
                        "number": 11,
                        "time": 39.468749999999886,
                        "value": 0.7952755905511811
                    },
                    {
                        "number": 11,
                        "time": 39.77083333333322,
                        "value": 0.8031496062992126
                    },
                    {
                        "number": 11,
                        "time": 40.07291666666656,
                        "value": 0.8110236220472441
                    },
                    {
                        "number": 11,
                        "time": 40.36458333333322,
                        "value": 0.8188976377952756
                    },
                    {
                        "number": 11,
                        "time": 40.66666666666656,
                        "value": 0.8267716535433071
                    },
                    {
                        "number": 11,
                        "time": 40.968749999999886,
                        "value": 0.8346456692913385
                    },
                    {
                        "number": 11,
                        "time": 41.27083333333322,
                        "value": 0.84251968503937
                    },
                    {
                        "number": 11,
                        "time": 41.562499999999886,
                        "value": 0.8503937007874016
                    },
                    {
                        "number": 11,
                        "time": 41.864583333333215,
                        "value": 0.8582677165354331
                    },
                    {
                        "number": 11,
                        "time": 42.16666666666655,
                        "value": 0.8661417322834646
                    },
                    {
                        "number": 11,
                        "time": 42.46874999999988,
                        "value": 0.8740157480314961
                    },
                    {
                        "number": 11,
                        "time": 42.76041666666654,
                        "value": 0.8818897637795275
                    },
                    {
                        "number": 11,
                        "time": 43.06249999999987,
                        "value": 0.889763779527559
                    },
                    {
                        "number": 11,
                        "time": 43.3645833333332,
                        "value": 0.8976377952755905
                    },
                    {
                        "number": 11,
                        "time": 43.666666666666536,
                        "value": 0.905511811023622
                    },
                    {
                        "number": 11,
                        "time": 43.9583333333332,
                        "value": 0.9133858267716536
                    },
                    {
                        "number": 11,
                        "time": 44.260416666666536,
                        "value": 0.9212598425196851
                    },
                    {
                        "number": 11,
                        "time": 44.562499999999865,
                        "value": 0.9291338582677166
                    },
                    {
                        "number": 11,
                        "time": 44.864583333333194,
                        "value": 0.937007874015748
                    },
                    {
                        "number": 11,
                        "time": 45.15624999999986,
                        "value": 0.9448818897637795
                    },
                    {
                        "number": 11,
                        "time": 45.66666666666652,
                        "value": 0.7086614173228346
                    },
                    {
                        "number": 11,
                        "time": 48.16666666666652,
                        "value": 0.7874015748031497
                    },
                    {
                        "number": 11,
                        "time": 49.66666666666652,
                        "value": 0.7874015748031497
                    },
                    {
                        "number": 11,
                        "time": 49.74999999999986,
                        "value": 0.7952755905511811
                    },
                    {
                        "number": 11,
                        "time": 49.82291666666652,
                        "value": 0.8031496062992126
                    },
                    {
                        "number": 11,
                        "time": 49.89583333333319,
                        "value": 0.8110236220472441
                    },
                    {
                        "number": 11,
                        "time": 49.96874999999985,
                        "value": 0.8188976377952756
                    },
                    {
                        "number": 11,
                        "time": 50.041666666666515,
                        "value": 0.8267716535433071
                    },
                    {
                        "number": 11,
                        "time": 50.11458333333318,
                        "value": 0.8346456692913385
                    },
                    {
                        "number": 11,
                        "time": 50.197916666666515,
                        "value": 0.84251968503937
                    },
                    {
                        "number": 11,
                        "time": 50.27083333333318,
                        "value": 0.8503937007874016
                    },
                    {
                        "number": 11,
                        "time": 50.343749999999844,
                        "value": 0.8582677165354331
                    },
                    {
                        "number": 11,
                        "time": 50.41666666666651,
                        "value": 0.8661417322834646
                    },
                    {
                        "number": 11,
                        "time": 50.48958333333317,
                        "value": 0.8740157480314961
                    },
                    {
                        "number": 11,
                        "time": 50.56249999999984,
                        "value": 0.8818897637795275
                    },
                    {
                        "number": 11,
                        "time": 50.6354166666665,
                        "value": 0.889763779527559
                    },
                    {
                        "number": 11,
                        "time": 50.71874999999984,
                        "value": 0.8976377952755905
                    },
                    {
                        "number": 11,
                        "time": 50.7916666666665,
                        "value": 0.905511811023622
                    },
                    {
                        "number": 11,
                        "time": 50.864583333333165,
                        "value": 0.9133858267716536
                    },
                    {
                        "number": 11,
                        "time": 50.93749999999984,
                        "value": 0.9212598425196851
                    },
                    {
                        "number": 11,
                        "time": 51.01041666666651,
                        "value": 0.9291338582677166
                    },
                    {
                        "number": 11,
                        "time": 51.08333333333317,
                        "value": 0.937007874015748
                    },
                    {
                        "number": 11,
                        "time": 51.15624999999984,
                        "value": 0.9448818897637795
                    },
                    {
                        "number": 11,
                        "time": 53.79166666666648,
                        "value": 0.7874015748031497
                    }
                ],
                "32": [
                    {
                        "number": 32,
                        "time": 0.5208333333333334,
                        "value": 0.007874015748031496
                    }
                ],
                "91": [
                    {
                        "number": 91,
                        "time": 0.5520833333333333,
                        "value": 0.31496062992125984
                    }
                ],
                "93": [
                    {
                        "number": 93,
                        "time": 0.5624999999999999,
                        "value": 0.03937007874015748
                    }
                ],
                "98": [
                    {
                        "number": 98,
                        "time": 0.5833333333333331,
                        "value": 0.7795275590551181
                    },
                    {
                        "number": 98,
                        "time": 0.6041666666666664,
                        "value": 0.25196850393700787
                    }
                ],
                "99": [
                    {
                        "number": 99,
                        "time": 0.5729166666666665,
                        "value": 0.007874015748031496
                    }
                ]
            },
            "id": 4,
            "name": "E",
            "instrumentNumber": 40,
            "instrument": "violin",
            "instrumentFamily": "strings",
            "channelNumber": 3,
            "isPercussion": false
        },
        {
            "startTime": 23.125,
            "duration": 34.208333333333336,
            "length": 23,
            "notes": [
                {
                    "name": "G3",
                    "midi": 55,
                    "time": 23.125,
                    "velocity": 0.9448818897637795,
                    "duration": 0.04166666666666785
                },
                {
                    "name": "G3",
                    "midi": 55,
                    "time": 23.5625,
                    "velocity": 0.9448818897637795,
                    "duration": 0.04166666666666785
                },
                {
                    "name": "G3",
                    "midi": 55,
                    "time": 23.625,
                    "velocity": 0.9448818897637795,
                    "duration": 0.04166666666666785
                },
                {
                    "name": "G3",
                    "midi": 55,
                    "time": 24.0625,
                    "velocity": 0.9448818897637795,
                    "duration": 0.04166666666666785
                },
                {
                    "name": "G3",
                    "midi": 55,
                    "time": 24.125,
                    "velocity": 0.9448818897637795,
                    "duration": 0.04166666666666785
                },
                {
                    "name": "G3",
                    "midi": 55,
                    "time": 24.5625,
                    "velocity": 0.9448818897637795,
                    "duration": 0.04166666666666785
                },
                {
                    "name": "G3",
                    "midi": 55,
                    "time": 24.625,
                    "velocity": 0.9448818897637795,
                    "duration": 0.04166666666666785
                },
                {
                    "name": "G3",
                    "midi": 55,
                    "time": 25.0625,
                    "velocity": 0.9448818897637795,
                    "duration": 0.04166666666666785
                },
                {
                    "name": "G3",
                    "midi": 55,
                    "time": 29.166666666666668,
                    "velocity": 0.9448818897637795,
                    "duration": 0.04166666666666785
                },
                {
                    "name": "G3",
                    "midi": 55,
                    "time": 29.604166666666668,
                    "velocity": 0.9448818897637795,
                    "duration": 0.04166666666666785
                },
                {
                    "name": "G3",
                    "midi": 55,
                    "time": 29.666666666666668,
                    "velocity": 0.9448818897637795,
                    "duration": 0.04166666666666785
                },
                {
                    "name": "G3",
                    "midi": 55,
                    "time": 30.104166666666668,
                    "velocity": 0.9448818897637795,
                    "duration": 0.04166666666666785
                },
                {
                    "name": "G3",
                    "midi": 55,
                    "time": 30.166666666666668,
                    "velocity": 0.9448818897637795,
                    "duration": 0.04166666666666785
                },
                {
                    "name": "G3",
                    "midi": 55,
                    "time": 31.166666666666668,
                    "velocity": 0.9448818897637795,
                    "duration": 0.04166666666666785
                },
                {
                    "name": "G3",
                    "midi": 55,
                    "time": 31.604166666666668,
                    "velocity": 0.9448818897637795,
                    "duration": 0.04166666666666785
                },
                {
                    "name": "G3",
                    "midi": 55,
                    "time": 31.666666666666668,
                    "velocity": 0.9448818897637795,
                    "duration": 0.04166666666666785
                },
                {
                    "name": "G3",
                    "midi": 55,
                    "time": 32.10416666666667,
                    "velocity": 0.9448818897637795,
                    "duration": 0.0416666666666643
                },
                {
                    "name": "G3",
                    "midi": 55,
                    "time": 32.16666666666667,
                    "velocity": 0.9448818897637795,
                    "duration": 0.0416666666666643
                },
                {
                    "name": "G3",
                    "midi": 55,
                    "time": 33.16666666666667,
                    "velocity": 0.9448818897637795,
                    "duration": 0.0416666666666643
                },
                {
                    "name": "G3",
                    "midi": 55,
                    "time": 33.60416666666667,
                    "velocity": 0.9448818897637795,
                    "duration": 0.0416666666666643
                },
                {
                    "name": "G3",
                    "midi": 55,
                    "time": 33.66666666666667,
                    "velocity": 0.9448818897637795,
                    "duration": 0.0416666666666643
                },
                {
                    "name": "G3",
                    "midi": 55,
                    "time": 34.10416666666667,
                    "velocity": 0.9448818897637795,
                    "duration": 0.0416666666666643
                },
                {
                    "name": "G3",
                    "midi": 55,
                    "time": 34.16666666666667,
                    "velocity": 0.9448818897637795,
                    "duration": 0.0416666666666643
                }
            ],
            "controlChanges": {
                "6": [
                    {
                        "number": 6,
                        "time": 0.6979166666666664,
                        "value": 0.4881889763779528
                    },
                    {
                        "number": 6,
                        "time": 0.7187499999999997,
                        "value": 0.3858267716535433
                    },
                    {
                        "number": 6,
                        "time": 0.7395833333333329,
                        "value": 0.5826771653543307
                    }
                ],
                "7": [
                    {
                        "number": 7,
                        "time": 0.6458333333333333,
                        "value": 0.9448818897637795
                    }
                ],
                "11": [
                    {
                        "number": 11,
                        "time": 1.020833333333333,
                        "value": 0.7874015748031497
                    }
                ],
                "32": [
                    {
                        "number": 32,
                        "time": 0.625,
                        "value": 0.007874015748031496
                    }
                ],
                "91": [
                    {
                        "number": 91,
                        "time": 0.6562499999999999,
                        "value": 0.31496062992125984
                    }
                ],
                "93": [
                    {
                        "number": 93,
                        "time": 0.6666666666666665,
                        "value": 0.15748031496062992
                    }
                ],
                "98": [
                    {
                        "number": 98,
                        "time": 0.6874999999999998,
                        "value": 0.7795275590551181
                    },
                    {
                        "number": 98,
                        "time": 0.708333333333333,
                        "value": 0.25196850393700787
                    },
                    {
                        "number": 98,
                        "time": 0.7291666666666663,
                        "value": 0.8031496062992126
                    }
                ],
                "99": [
                    {
                        "number": 99,
                        "time": 0.6770833333333331,
                        "value": 0.007874015748031496
                    }
                ]
            },
            "id": 5,
            "name": "G-OPEN",
            "instrumentNumber": 40,
            "instrument": "violin",
            "instrumentFamily": "strings",
            "channelNumber": 4,
            "isPercussion": false
        },
        {
            "startTime": 23.1875,
            "duration": 34.083333333333336,
            "length": 19,
            "notes": [
                {
                    "name": "D4",
                    "midi": 62,
                    "time": 23.1875,
                    "velocity": 0.9448818897637795,
                    "duration": 0.04166666666666785
                },
                {
                    "name": "D4",
                    "midi": 62,
                    "time": 23.5,
                    "velocity": 0.9448818897637795,
                    "duration": 0.04166666666666785
                },
                {
                    "name": "D4",
                    "midi": 62,
                    "time": 23.6875,
                    "velocity": 0.9448818897637795,
                    "duration": 0.04166666666666785
                },
                {
                    "name": "D4",
                    "midi": 62,
                    "time": 24,
                    "velocity": 0.9448818897637795,
                    "duration": 0.04166666666666785
                },
                {
                    "name": "D4",
                    "midi": 62,
                    "time": 24.1875,
                    "velocity": 0.9448818897637795,
                    "duration": 0.04166666666666785
                },
                {
                    "name": "D4",
                    "midi": 62,
                    "time": 24.5,
                    "velocity": 0.9448818897637795,
                    "duration": 0.04166666666666785
                },
                {
                    "name": "D4",
                    "midi": 62,
                    "time": 24.6875,
                    "velocity": 0.9448818897637795,
                    "duration": 0.04166666666666785
                },
                {
                    "name": "D4",
                    "midi": 62,
                    "time": 25,
                    "velocity": 0.9448818897637795,
                    "duration": 0.04166666666666785
                },
                {
                    "name": "D4",
                    "midi": 62,
                    "time": 28.166666666666668,
                    "velocity": 0.9448818897637795,
                    "duration": 0.04166666666666785
                },
                {
                    "name": "D4",
                    "midi": 62,
                    "time": 29.229166666666668,
                    "velocity": 0.9448818897637795,
                    "duration": 0.04166666666666785
                },
                {
                    "name": "D4",
                    "midi": 62,
                    "time": 29.541666666666668,
                    "velocity": 0.9448818897637795,
                    "duration": 0.04166666666666785
                },
                {
                    "name": "D4",
                    "midi": 62,
                    "time": 30.166666666666668,
                    "velocity": 0.9448818897637795,
                    "duration": 0.04166666666666785
                },
                {
                    "name": "D4",
                    "midi": 62,
                    "time": 31.229166666666668,
                    "velocity": 0.9448818897637795,
                    "duration": 0.04166666666666785
                },
                {
                    "name": "D4",
                    "midi": 62,
                    "time": 31.541666666666668,
                    "velocity": 0.9448818897637795,
                    "duration": 0.04166666666666785
                },
                {
                    "name": "D4",
                    "midi": 62,
                    "time": 32.16666666666667,
                    "velocity": 0.9448818897637795,
                    "duration": 0.0416666666666643
                },
                {
                    "name": "D4",
                    "midi": 62,
                    "time": 33.22916666666667,
                    "velocity": 0.9448818897637795,
                    "duration": 0.0416666666666643
                },
                {
                    "name": "D4",
                    "midi": 62,
                    "time": 33.54166666666667,
                    "velocity": 0.9448818897637795,
                    "duration": 0.0416666666666643
                },
                {
                    "name": "D4",
                    "midi": 62,
                    "time": 33.72916666666667,
                    "velocity": 0.9448818897637795,
                    "duration": 0.0416666666666643
                },
                {
                    "name": "D4",
                    "midi": 62,
                    "time": 34.04166666666667,
                    "velocity": 0.9448818897637795,
                    "duration": 0.0416666666666643
                }
            ],
            "controlChanges": {
                "6": [
                    {
                        "number": 6,
                        "time": 0.802083333333333,
                        "value": 0.4881889763779528
                    },
                    {
                        "number": 6,
                        "time": 0.8229166666666663,
                        "value": 0.4251968503937008
                    },
                    {
                        "number": 6,
                        "time": 0.8437499999999996,
                        "value": 0.5826771653543307
                    }
                ],
                "7": [
                    {
                        "number": 7,
                        "time": 0.7499999999999999,
                        "value": 0.9448818897637795
                    }
                ],
                "11": [
                    {
                        "number": 11,
                        "time": 1.0208333333333328,
                        "value": 0.7874015748031497
                    }
                ],
                "32": [
                    {
                        "number": 32,
                        "time": 0.7291666666666666,
                        "value": 0.007874015748031496
                    }
                ],
                "91": [
                    {
                        "number": 91,
                        "time": 0.7604166666666665,
                        "value": 0.31496062992125984
                    }
                ],
                "93": [
                    {
                        "number": 93,
                        "time": 0.7708333333333331,
                        "value": 0.11811023622047244
                    }
                ],
                "98": [
                    {
                        "number": 98,
                        "time": 0.7916666666666664,
                        "value": 0.7795275590551181
                    },
                    {
                        "number": 98,
                        "time": 0.8124999999999997,
                        "value": 0.25196850393700787
                    },
                    {
                        "number": 98,
                        "time": 0.8333333333333329,
                        "value": 0.8031496062992126
                    }
                ],
                "99": [
                    {
                        "number": 99,
                        "time": 0.7812499999999998,
                        "value": 0.007874015748031496
                    }
                ]
            },
            "id": 6,
            "name": "D-OPEN",
            "instrumentNumber": 40,
            "instrument": "violin",
            "instrumentFamily": "strings",
            "channelNumber": 5,
            "isPercussion": false
        },
        {
            "startTime": 28.916666666666664,
            "duration": 65.08333333333334,
            "length": 10,
            "notes": [
                {
                    "name": "A4",
                    "midi": 69,
                    "time": 28.916666666666664,
                    "velocity": 0.9448818897637795,
                    "duration": 0.04166666666666785
                },
                {
                    "name": "A4",
                    "midi": 69,
                    "time": 29.083333333333332,
                    "velocity": 0.9448818897637795,
                    "duration": 0.04166666666666785
                },
                {
                    "name": "A4",
                    "midi": 69,
                    "time": 30.916666666666668,
                    "velocity": 0.9448818897637795,
                    "duration": 0.04166666666666785
                },
                {
                    "name": "A4",
                    "midi": 69,
                    "time": 31.083333333333336,
                    "velocity": 0.9448818897637795,
                    "duration": 0.04166666666666785
                },
                {
                    "name": "A4",
                    "midi": 69,
                    "time": 32.91666666666667,
                    "velocity": 0.9448818897637795,
                    "duration": 0.0416666666666643
                },
                {
                    "name": "A4",
                    "midi": 69,
                    "time": 33.083333333333336,
                    "velocity": 0.9448818897637795,
                    "duration": 0.0416666666666643
                },
                {
                    "name": "A4",
                    "midi": 69,
                    "time": 37,
                    "velocity": 0.9448818897637795,
                    "duration": 0.0416666666666643
                },
                {
                    "name": "A4",
                    "midi": 69,
                    "time": 39.08333333333333,
                    "velocity": 0.9448818897637795,
                    "duration": 0.0416666666666643
                },
                {
                    "name": "A4",
                    "midi": 69,
                    "time": 64.875,
                    "velocity": 0.9448818897637795,
                    "duration": 0.041666666666671404
                },
                {
                    "name": "A4",
                    "midi": 69,
                    "time": 65.04166666666667,
                    "velocity": 0.9448818897637795,
                    "duration": 0.041666666666671404
                }
            ],
            "controlChanges": {
                "6": [
                    {
                        "number": 6,
                        "time": 0.9062499999999998,
                        "value": 0.4881889763779528
                    },
                    {
                        "number": 6,
                        "time": 0.927083333333333,
                        "value": 0.4645669291338583
                    },
                    {
                        "number": 6,
                        "time": 0.9479166666666663,
                        "value": 0.5826771653543307
                    }
                ],
                "7": [
                    {
                        "number": 7,
                        "time": 0.8541666666666666,
                        "value": 0.9448818897637795
                    }
                ],
                "11": [
                    {
                        "number": 11,
                        "time": 1.020833333333333,
                        "value": 0.7874015748031497
                    }
                ],
                "32": [
                    {
                        "number": 32,
                        "time": 0.8333333333333334,
                        "value": 0.007874015748031496
                    }
                ],
                "91": [
                    {
                        "number": 91,
                        "time": 0.8645833333333333,
                        "value": 0.31496062992125984
                    }
                ],
                "93": [
                    {
                        "number": 93,
                        "time": 0.8749999999999999,
                        "value": 0.07874015748031496
                    }
                ],
                "98": [
                    {
                        "number": 98,
                        "time": 0.8958333333333331,
                        "value": 0.7795275590551181
                    },
                    {
                        "number": 98,
                        "time": 0.9166666666666664,
                        "value": 0.25196850393700787
                    },
                    {
                        "number": 98,
                        "time": 0.9374999999999997,
                        "value": 0.8031496062992126
                    }
                ],
                "99": [
                    {
                        "number": 99,
                        "time": 0.8854166666666665,
                        "value": 0.007874015748031496
                    }
                ]
            },
            "id": 7,
            "name": "A-OPEN",
            "instrumentNumber": 40,
            "instrument": "violin",
            "instrumentFamily": "strings",
            "channelNumber": 6,
            "isPercussion": false
        },
        {
            "startTime": 1.6875000000000002,
            "duration": 77.7916666666667,
            "length": 84,
            "notes": [
                {
                    "name": "E5",
                    "midi": 76,
                    "time": 1.6875000000000002,
                    "velocity": 0.9448818897637795,
                    "duration": 0.04166666666666674
                },
                {
                    "name": "E5",
                    "midi": 76,
                    "time": 1.7500000000000002,
                    "velocity": 0.9448818897637795,
                    "duration": 0.04166666666666674
                },
                {
                    "name": "E5",
                    "midi": 76,
                    "time": 2.6875000000000004,
                    "velocity": 0.9448818897637795,
                    "duration": 0.04166666666666652
                },
                {
                    "name": "E5",
                    "midi": 76,
                    "time": 2.7500000000000004,
                    "velocity": 0.9448818897637795,
                    "duration": 0.04166666666666652
                },
                {
                    "name": "E5",
                    "midi": 76,
                    "time": 3.6875000000000004,
                    "velocity": 0.9448818897637795,
                    "duration": 0.04166666666666652
                },
                {
                    "name": "E5",
                    "midi": 76,
                    "time": 3.7500000000000004,
                    "velocity": 0.9448818897637795,
                    "duration": 0.04166666666666652
                },
                {
                    "name": "E5",
                    "midi": 76,
                    "time": 4.6875,
                    "velocity": 0.9448818897637795,
                    "duration": 0.04166666666666696
                },
                {
                    "name": "E5",
                    "midi": 76,
                    "time": 4.75,
                    "velocity": 0.9448818897637795,
                    "duration": 0.04166666666666696
                },
                {
                    "name": "E5",
                    "midi": 76,
                    "time": 17.8125,
                    "velocity": 0.9448818897637795,
                    "duration": 0.04166666666666785
                },
                {
                    "name": "E5",
                    "midi": 76,
                    "time": 17.875,
                    "velocity": 0.9448818897637795,
                    "duration": 0.04166666666666785
                },
                {
                    "name": "E5",
                    "midi": 76,
                    "time": 18.8125,
                    "velocity": 0.9448818897637795,
                    "duration": 0.04166666666666785
                },
                {
                    "name": "E5",
                    "midi": 76,
                    "time": 18.875,
                    "velocity": 0.9448818897637795,
                    "duration": 0.04166666666666785
                },
                {
                    "name": "E5",
                    "midi": 76,
                    "time": 19.8125,
                    "velocity": 0.9448818897637795,
                    "duration": 0.04166666666666785
                },
                {
                    "name": "E5",
                    "midi": 76,
                    "time": 19.875,
                    "velocity": 0.9448818897637795,
                    "duration": 0.04166666666666785
                },
                {
                    "name": "E5",
                    "midi": 76,
                    "time": 20.8125,
                    "velocity": 0.9448818897637795,
                    "duration": 0.04166666666666785
                },
                {
                    "name": "E5",
                    "midi": 76,
                    "time": 20.875,
                    "velocity": 0.9448818897637795,
                    "duration": 0.04166666666666785
                },
                {
                    "name": "E5",
                    "midi": 76,
                    "time": 28.583333333333336,
                    "velocity": 0.9448818897637795,
                    "duration": 0.04166666666666785
                },
                {
                    "name": "E5",
                    "midi": 76,
                    "time": 28.750000000000004,
                    "velocity": 0.9448818897637795,
                    "duration": 0.04166666666666785
                },
                {
                    "name": "E5",
                    "midi": 76,
                    "time": 30.58333333333334,
                    "velocity": 0.9448818897637795,
                    "duration": 0.04166666666666785
                },
                {
                    "name": "E5",
                    "midi": 76,
                    "time": 30.750000000000007,
                    "velocity": 0.9448818897637795,
                    "duration": 0.04166666666666785
                },
                {
                    "name": "E5",
                    "midi": 76,
                    "time": 32.58333333333334,
                    "velocity": 0.9448818897637795,
                    "duration": 0.0416666666666643
                },
                {
                    "name": "E5",
                    "midi": 76,
                    "time": 32.75000000000001,
                    "velocity": 0.9448818897637795,
                    "duration": 0.0416666666666643
                },
                {
                    "name": "E5",
                    "midi": 76,
                    "time": 36.66666666666667,
                    "velocity": 0.9448818897637795,
                    "duration": 0.0416666666666643
                },
                {
                    "name": "E5",
                    "midi": 76,
                    "time": 36.833333333333336,
                    "velocity": 0.9448818897637795,
                    "duration": 0.0416666666666643
                },
                {
                    "name": "E5",
                    "midi": 76,
                    "time": 47.854166666666664,
                    "velocity": 0.9448818897637795,
                    "duration": 0.0416666666666643
                },
                {
                    "name": "E5",
                    "midi": 76,
                    "time": 47.916666666666664,
                    "velocity": 0.9448818897637795,
                    "duration": 0.0416666666666643
                },
                {
                    "name": "E5",
                    "midi": 76,
                    "time": 48.854166666666664,
                    "velocity": 0.9448818897637795,
                    "duration": 0.0416666666666643
                },
                {
                    "name": "E5",
                    "midi": 76,
                    "time": 48.916666666666664,
                    "velocity": 0.9448818897637795,
                    "duration": 0.0416666666666643
                },
                {
                    "name": "E5",
                    "midi": 76,
                    "time": 49.854166666666664,
                    "velocity": 0.9448818897637795,
                    "duration": 0.0416666666666643
                },
                {
                    "name": "E5",
                    "midi": 76,
                    "time": 49.916666666666664,
                    "velocity": 0.9448818897637795,
                    "duration": 0.0416666666666643
                },
                {
                    "name": "E5",
                    "midi": 76,
                    "time": 50.35416666666665,
                    "velocity": 0.9448818897637795,
                    "duration": 0.0416666666666643
                },
                {
                    "name": "E5",
                    "midi": 76,
                    "time": 50.41666666666665,
                    "velocity": 0.9448818897637795,
                    "duration": 0.0416666666666643
                },
                {
                    "name": "E5",
                    "midi": 76,
                    "time": 53.97916666666663,
                    "velocity": 0.9448818897637795,
                    "duration": 0.0416666666666643
                },
                {
                    "name": "E5",
                    "midi": 76,
                    "time": 54.04166666666663,
                    "velocity": 0.9448818897637795,
                    "duration": 0.0416666666666643
                },
                {
                    "name": "E5",
                    "midi": 76,
                    "time": 54.47916666666663,
                    "velocity": 0.9448818897637795,
                    "duration": 0.0416666666666643
                },
                {
                    "name": "E5",
                    "midi": 76,
                    "time": 54.54166666666663,
                    "velocity": 0.9448818897637795,
                    "duration": 0.0416666666666643
                },
                {
                    "name": "E5",
                    "midi": 76,
                    "time": 54.97916666666663,
                    "velocity": 0.9448818897637795,
                    "duration": 0.0416666666666643
                },
                {
                    "name": "E5",
                    "midi": 76,
                    "time": 55.04166666666663,
                    "velocity": 0.9448818897637795,
                    "duration": 0.0416666666666643
                },
                {
                    "name": "E5",
                    "midi": 76,
                    "time": 55.47916666666663,
                    "velocity": 0.9448818897637795,
                    "duration": 0.0416666666666643
                },
                {
                    "name": "E5",
                    "midi": 76,
                    "time": 55.70833333333329,
                    "velocity": 0.9448818897637795,
                    "duration": 0.0416666666666643
                },
                {
                    "name": "E5",
                    "midi": 76,
                    "time": 56.04166666666662,
                    "velocity": 0.9448818897637795,
                    "duration": 0.0416666666666643
                },
                {
                    "name": "E5",
                    "midi": 76,
                    "time": 56.208333333333286,
                    "velocity": 0.9448818897637795,
                    "duration": 0.0416666666666643
                },
                {
                    "name": "E5",
                    "midi": 76,
                    "time": 57.479166666666615,
                    "velocity": 0.9448818897637795,
                    "duration": 0.0416666666666643
                },
                {
                    "name": "E5",
                    "midi": 76,
                    "time": 64.54166666666661,
                    "velocity": 0.9448818897637795,
                    "duration": 0.041666666666671404
                },
                {
                    "name": "E5",
                    "midi": 76,
                    "time": 64.70833333333329,
                    "velocity": 0.9448818897637795,
                    "duration": 0.041666666666671404
                },
                {
                    "name": "E5",
                    "midi": 76,
                    "time": 65.47916666666663,
                    "velocity": 0.9448818897637795,
                    "duration": 0.041666666666671404
                },
                {
                    "name": "E5",
                    "midi": 76,
                    "time": 65.97916666666663,
                    "velocity": 0.9448818897637795,
                    "duration": 0.041666666666671404
                },
                {
                    "name": "E5",
                    "midi": 76,
                    "time": 66.47916666666663,
                    "velocity": 0.9448818897637795,
                    "duration": 0.041666666666671404
                },
                {
                    "name": "E5",
                    "midi": 76,
                    "time": 66.97916666666663,
                    "velocity": 0.9448818897637795,
                    "duration": 0.041666666666671404
                },
                {
                    "name": "E5",
                    "midi": 76,
                    "time": 67.47916666666663,
                    "velocity": 0.9448818897637795,
                    "duration": 0.041666666666671404
                },
                {
                    "name": "E5",
                    "midi": 76,
                    "time": 67.97916666666663,
                    "velocity": 0.9448818897637795,
                    "duration": 0.041666666666671404
                },
                {
                    "name": "E5",
                    "midi": 76,
                    "time": 68.16666666666663,
                    "velocity": 0.9448818897637795,
                    "duration": 0.1041666666666714
                },
                {
                    "name": "E5",
                    "midi": 76,
                    "time": 68.37499999999997,
                    "velocity": 0.9448818897637795,
                    "duration": 0.041666666666671404
                },
                {
                    "name": "E5",
                    "midi": 76,
                    "time": 69.47916666666664,
                    "velocity": 0.9448818897637795,
                    "duration": 0.041666666666671404
                },
                {
                    "name": "E5",
                    "midi": 76,
                    "time": 69.54166666666664,
                    "velocity": 0.9448818897637795,
                    "duration": 0.041666666666671404
                },
                {
                    "name": "E5",
                    "midi": 76,
                    "time": 69.97916666666664,
                    "velocity": 0.9448818897637795,
                    "duration": 0.041666666666671404
                },
                {
                    "name": "E5",
                    "midi": 76,
                    "time": 70.04166666666664,
                    "velocity": 0.9448818897637795,
                    "duration": 0.041666666666671404
                },
                {
                    "name": "E5",
                    "midi": 76,
                    "time": 70.47916666666664,
                    "velocity": 0.9448818897637795,
                    "duration": 0.041666666666671404
                },
                {
                    "name": "E5",
                    "midi": 76,
                    "time": 70.54166666666664,
                    "velocity": 0.9448818897637795,
                    "duration": 0.041666666666671404
                },
                {
                    "name": "E5",
                    "midi": 76,
                    "time": 70.97916666666664,
                    "velocity": 0.9448818897637795,
                    "duration": 0.041666666666671404
                },
                {
                    "name": "E5",
                    "midi": 76,
                    "time": 71.04166666666664,
                    "velocity": 0.9448818897637795,
                    "duration": 0.041666666666671404
                },
                {
                    "name": "E5",
                    "midi": 76,
                    "time": 71.47916666666664,
                    "velocity": 0.9448818897637795,
                    "duration": 0.041666666666671404
                },
                {
                    "name": "E5",
                    "midi": 76,
                    "time": 71.54166666666664,
                    "velocity": 0.9448818897637795,
                    "duration": 0.041666666666671404
                },
                {
                    "name": "E5",
                    "midi": 76,
                    "time": 71.97916666666664,
                    "velocity": 0.9448818897637795,
                    "duration": 0.041666666666671404
                },
                {
                    "name": "E5",
                    "midi": 76,
                    "time": 72.04166666666664,
                    "velocity": 0.9448818897637795,
                    "duration": 0.041666666666671404
                },
                {
                    "name": "E5",
                    "midi": 76,
                    "time": 72.47916666666664,
                    "velocity": 0.9448818897637795,
                    "duration": 0.041666666666671404
                },
                {
                    "name": "E5",
                    "midi": 76,
                    "time": 72.54166666666664,
                    "velocity": 0.9448818897637795,
                    "duration": 0.041666666666671404
                },
                {
                    "name": "E5",
                    "midi": 76,
                    "time": 72.97916666666664,
                    "velocity": 0.9448818897637795,
                    "duration": 0.041666666666671404
                },
                {
                    "name": "E5",
                    "midi": 76,
                    "time": 73.04166666666664,
                    "velocity": 0.9448818897637795,
                    "duration": 0.041666666666671404
                },
                {
                    "name": "E5",
                    "midi": 76,
                    "time": 73.47916666666664,
                    "velocity": 0.9448818897637795,
                    "duration": 0.04166666666665719
                },
                {
                    "name": "E5",
                    "midi": 76,
                    "time": 73.54166666666663,
                    "velocity": 0.9448818897637795,
                    "duration": 0.041666666666671404
                },
                {
                    "name": "E5",
                    "midi": 76,
                    "time": 73.97916666666664,
                    "velocity": 0.9448818897637795,
                    "duration": 0.041666666666671404
                },
                {
                    "name": "E5",
                    "midi": 76,
                    "time": 74.04166666666664,
                    "velocity": 0.9448818897637795,
                    "duration": 0.041666666666671404
                },
                {
                    "name": "E5",
                    "midi": 76,
                    "time": 74.47916666666666,
                    "velocity": 0.9448818897637795,
                    "duration": 0.041666666666671404
                },
                {
                    "name": "E5",
                    "midi": 76,
                    "time": 74.54166666666666,
                    "velocity": 0.9448818897637795,
                    "duration": 0.041666666666671404
                },
                {
                    "name": "E5",
                    "midi": 76,
                    "time": 74.97916666666667,
                    "velocity": 0.9448818897637795,
                    "duration": 0.041666666666671404
                },
                {
                    "name": "E5",
                    "midi": 76,
                    "time": 75.04166666666667,
                    "velocity": 0.9448818897637795,
                    "duration": 0.041666666666671404
                },
                {
                    "name": "E5",
                    "midi": 76,
                    "time": 75.41666666666669,
                    "velocity": 0.9448818897637795,
                    "duration": 0.0833333333333286
                },
                {
                    "name": "E5",
                    "midi": 76,
                    "time": 75.91666666666669,
                    "velocity": 0.9448818897637795,
                    "duration": 0.0833333333333286
                },
                {
                    "name": "E5",
                    "midi": 76,
                    "time": 76.47916666666669,
                    "velocity": 0.9448818897637795,
                    "duration": 0.041666666666671404
                },
                {
                    "name": "E5",
                    "midi": 76,
                    "time": 76.54166666666669,
                    "velocity": 0.9448818897637795,
                    "duration": 0.041666666666671404
                },
                {
                    "name": "E5",
                    "midi": 76,
                    "time": 76.97916666666669,
                    "velocity": 0.9448818897637795,
                    "duration": 0.041666666666671404
                },
                {
                    "name": "E5",
                    "midi": 76,
                    "time": 77.04166666666669,
                    "velocity": 0.9448818897637795,
                    "duration": 0.041666666666671404
                },
                {
                    "name": "E5",
                    "midi": 76,
                    "time": 77.37500000000003,
                    "velocity": 0.9448818897637795,
                    "duration": 0.4166666666666714
                }
            ],
            "controlChanges": {
                "6": [
                    {
                        "number": 6,
                        "time": 1.0104166666666665,
                        "value": 0.4881889763779528
                    },
                    {
                        "number": 6,
                        "time": 1.03125,
                        "value": 0.5039370078740157
                    },
                    {
                        "number": 6,
                        "time": 1.0520833333333335,
                        "value": 0.5826771653543307
                    }
                ],
                "7": [
                    {
                        "number": 7,
                        "time": 0.9583333333333333,
                        "value": 0.9448818897637795
                    }
                ],
                "11": [
                    {
                        "number": 11,
                        "time": 1.0625000000000002,
                        "value": 0.7874015748031497
                    },
                    {
                        "number": 11,
                        "time": 49.666666666666664,
                        "value": 0.7874015748031497
                    },
                    {
                        "number": 11,
                        "time": 49.75,
                        "value": 0.7952755905511811
                    },
                    {
                        "number": 11,
                        "time": 49.822916666666664,
                        "value": 0.8031496062992126
                    },
                    {
                        "number": 11,
                        "time": 49.89583333333333,
                        "value": 0.8110236220472441
                    },
                    {
                        "number": 11,
                        "time": 49.96874999999999,
                        "value": 0.8188976377952756
                    },
                    {
                        "number": 11,
                        "time": 50.04166666666666,
                        "value": 0.8267716535433071
                    },
                    {
                        "number": 11,
                        "time": 50.11458333333332,
                        "value": 0.8346456692913385
                    },
                    {
                        "number": 11,
                        "time": 50.19791666666666,
                        "value": 0.84251968503937
                    },
                    {
                        "number": 11,
                        "time": 50.27083333333332,
                        "value": 0.8503937007874016
                    },
                    {
                        "number": 11,
                        "time": 50.343749999999986,
                        "value": 0.8582677165354331
                    },
                    {
                        "number": 11,
                        "time": 50.41666666666665,
                        "value": 0.8661417322834646
                    },
                    {
                        "number": 11,
                        "time": 50.489583333333314,
                        "value": 0.8740157480314961
                    },
                    {
                        "number": 11,
                        "time": 50.56249999999998,
                        "value": 0.8818897637795275
                    },
                    {
                        "number": 11,
                        "time": 50.63541666666664,
                        "value": 0.889763779527559
                    },
                    {
                        "number": 11,
                        "time": 50.71874999999998,
                        "value": 0.8976377952755905
                    },
                    {
                        "number": 11,
                        "time": 50.79166666666664,
                        "value": 0.905511811023622
                    },
                    {
                        "number": 11,
                        "time": 50.86458333333331,
                        "value": 0.9133858267716536
                    },
                    {
                        "number": 11,
                        "time": 50.93749999999997,
                        "value": 0.9212598425196851
                    },
                    {
                        "number": 11,
                        "time": 51.010416666666636,
                        "value": 0.9291338582677166
                    },
                    {
                        "number": 11,
                        "time": 51.0833333333333,
                        "value": 0.937007874015748
                    },
                    {
                        "number": 11,
                        "time": 51.156249999999964,
                        "value": 0.9448818897637795
                    },
                    {
                        "number": 11,
                        "time": 53.16666666666663,
                        "value": 0.7874015748031497
                    },
                    {
                        "number": 11,
                        "time": 73.29166666666664,
                        "value": 0.7874015748031497
                    },
                    {
                        "number": 11,
                        "time": 73.39583333333331,
                        "value": 0.7952755905511811
                    },
                    {
                        "number": 11,
                        "time": 73.49999999999997,
                        "value": 0.8031496062992126
                    },
                    {
                        "number": 11,
                        "time": 73.59374999999997,
                        "value": 0.8110236220472441
                    },
                    {
                        "number": 11,
                        "time": 73.69791666666664,
                        "value": 0.8188976377952756
                    },
                    {
                        "number": 11,
                        "time": 73.79166666666664,
                        "value": 0.8267716535433071
                    },
                    {
                        "number": 11,
                        "time": 73.89583333333331,
                        "value": 0.8346456692913385
                    },
                    {
                        "number": 11,
                        "time": 73.98958333333331,
                        "value": 0.84251968503937
                    },
                    {
                        "number": 11,
                        "time": 74.09374999999999,
                        "value": 0.8503937007874016
                    },
                    {
                        "number": 11,
                        "time": 74.18749999999999,
                        "value": 0.8582677165354331
                    },
                    {
                        "number": 11,
                        "time": 74.29166666666666,
                        "value": 0.8661417322834646
                    },
                    {
                        "number": 11,
                        "time": 74.39583333333333,
                        "value": 0.8740157480314961
                    },
                    {
                        "number": 11,
                        "time": 74.48958333333333,
                        "value": 0.8818897637795275
                    },
                    {
                        "number": 11,
                        "time": 74.59375,
                        "value": 0.889763779527559
                    },
                    {
                        "number": 11,
                        "time": 74.6875,
                        "value": 0.8976377952755905
                    },
                    {
                        "number": 11,
                        "time": 74.79166666666667,
                        "value": 0.905511811023622
                    },
                    {
                        "number": 11,
                        "time": 74.88541666666667,
                        "value": 0.9133858267716536
                    },
                    {
                        "number": 11,
                        "time": 74.98958333333334,
                        "value": 0.9212598425196851
                    },
                    {
                        "number": 11,
                        "time": 75.08333333333334,
                        "value": 0.9291338582677166
                    },
                    {
                        "number": 11,
                        "time": 75.18750000000001,
                        "value": 0.937007874015748
                    },
                    {
                        "number": 11,
                        "time": 75.28125000000001,
                        "value": 0.9448818897637795
                    }
                ],
                "32": [
                    {
                        "number": 32,
                        "time": 0.9375,
                        "value": 0.007874015748031496
                    }
                ],
                "91": [
                    {
                        "number": 91,
                        "time": 0.9687499999999999,
                        "value": 0.31496062992125984
                    }
                ],
                "93": [
                    {
                        "number": 93,
                        "time": 0.9791666666666665,
                        "value": 0.03937007874015748
                    }
                ],
                "98": [
                    {
                        "number": 98,
                        "time": 0.9999999999999998,
                        "value": 0.7795275590551181
                    },
                    {
                        "number": 98,
                        "time": 1.0208333333333333,
                        "value": 0.25196850393700787
                    },
                    {
                        "number": 98,
                        "time": 1.0416666666666667,
                        "value": 0.8031496062992126
                    }
                ],
                "99": [
                    {
                        "number": 99,
                        "time": 0.9895833333333331,
                        "value": 0.007874015748031496
                    }
                ]
            },
            "id": 8,
            "name": "E-OPEN",
            "instrumentNumber": 40,
            "instrument": "violin",
            "instrumentFamily": "strings",
            "channelNumber": 7,
            "isPercussion": false
        },
        {
            "startTime": 0,
            "duration": 0,
            "length": 0,
            "notes": [],
            "controlChanges": {},
            "id": 9,
            "name": "TEMPO"
        }
    ]
}