{
    "header": {
        "PPQ": 480,
        "timeSignature": [
            3,
            4
        ],
        "bpm": 150,
        "name": "Impromptu Nr. 4 As Dur"
    },
    "startTime": 0,
    "duration": 391.60000000000105,
    "tracks": [
        {
            "startTime": 0,
            "duration": 0,
            "length": 0,
            "notes": [],
            "controlChanges": {},
            "id": 0,
            "name": "Impromptu Nr. 4 As Dur"
        },
        {
            "startTime": 0.0033333333333333335,
            "duration": 391.60000000000105,
            "length": 3267,
            "notes": [
                {
                    "name": "B5",
                    "midi": 83,
                    "time": 0.0033333333333333335,
                    "velocity": 0.31496062992125984,
                    "duration": 0.1
                },
                {
                    "name": "D#6",
                    "midi": 87,
                    "time": 0.1,
                    "velocity": 0.2677165354330709,
                    "duration": 0.1
                },
                {
                    "name": "B5",
                    "midi": 83,
                    "time": 0.2,
                    "velocity": 0.31496062992125984,
                    "duration": 0.10000000000000003
                },
                {
                    "name": "G#5",
                    "midi": 80,
                    "time": 0.30000000000000004,
                    "velocity": 0.2677165354330709,
                    "duration": 0.07500000000000001
                },
                {
                    "name": "G#5",
                    "midi": 80,
                    "time": 0.4000000000000001,
                    "velocity": 0.31496062992125984,
                    "duration": 0.10000000000000003
                },
                {
                    "name": "B5",
                    "midi": 83,
                    "time": 0.5000000000000001,
                    "velocity": 0.2677165354330709,
                    "duration": 0.09999999999999998
                },
                {
                    "name": "G#5",
                    "midi": 80,
                    "time": 0.6000000000000001,
                    "velocity": 0.31496062992125984,
                    "duration": 0.09999999999999998
                },
                {
                    "name": "D#5",
                    "midi": 75,
                    "time": 0.7000000000000001,
                    "velocity": 0.2677165354330709,
                    "duration": 0.07500000000000007
                },
                {
                    "name": "D#5",
                    "midi": 75,
                    "time": 0.8000000000000002,
                    "velocity": 0.31496062992125984,
                    "duration": 0.09999999999999998
                },
                {
                    "name": "G#5",
                    "midi": 80,
                    "time": 0.9000000000000001,
                    "velocity": 0.2677165354330709,
                    "duration": 0.10000000000000009
                },
                {
                    "name": "D#5",
                    "midi": 75,
                    "time": 1.0000000000000002,
                    "velocity": 0.31496062992125984,
                    "duration": 0.10000000000000009
                },
                {
                    "name": "B4",
                    "midi": 71,
                    "time": 1.1000000000000003,
                    "velocity": 0.2677165354330709,
                    "duration": 0.07499999999999996
                },
                {
                    "name": "B4",
                    "midi": 71,
                    "time": 1.2000000000000002,
                    "velocity": 0.31496062992125984,
                    "duration": 0.10000000000000009
                },
                {
                    "name": "D#5",
                    "midi": 75,
                    "time": 1.3000000000000003,
                    "velocity": 0.2677165354330709,
                    "duration": 0.10000000000000009
                },
                {
                    "name": "B4",
                    "midi": 71,
                    "time": 1.4000000000000004,
                    "velocity": 0.31496062992125984,
                    "duration": 0.10000000000000009
                },
                {
                    "name": "G#4",
                    "midi": 68,
                    "time": 1.5000000000000004,
                    "velocity": 0.2677165354330709,
                    "duration": 0.07499999999999996
                },
                {
                    "name": "G#4",
                    "midi": 68,
                    "time": 1.6000000000000003,
                    "velocity": 0.31496062992125984,
                    "duration": 0.10000000000000009
                },
                {
                    "name": "B4",
                    "midi": 71,
                    "time": 1.7000000000000004,
                    "velocity": 0.2677165354330709,
                    "duration": 0.10000000000000009
                },
                {
                    "name": "G#4",
                    "midi": 68,
                    "time": 1.8000000000000005,
                    "velocity": 0.31496062992125984,
                    "duration": 0.10000000000000009
                },
                {
                    "name": "D#4",
                    "midi": 63,
                    "time": 1.9000000000000006,
                    "velocity": 0.2677165354330709,
                    "duration": 0.09999999999999987
                },
                {
                    "name": "G4",
                    "midi": 67,
                    "time": 2.0000000000000004,
                    "velocity": 0.23622047244094488,
                    "duration": 0.20000000000000018
                },
                {
                    "name": "A#4",
                    "midi": 70,
                    "time": 2.0000000000000004,
                    "velocity": 0.28346456692913385,
                    "duration": 0.20000000000000018
                },
                {
                    "name": "B5",
                    "midi": 83,
                    "time": 2.400000000000001,
                    "velocity": 0.31496062992125984,
                    "duration": 0.10000000000000009
                },
                {
                    "name": "D#6",
                    "midi": 87,
                    "time": 2.500000000000001,
                    "velocity": 0.2677165354330709,
                    "duration": 0.10000000000000009
                },
                {
                    "name": "B5",
                    "midi": 83,
                    "time": 2.600000000000001,
                    "velocity": 0.31496062992125984,
                    "duration": 0.10000000000000009
                },
                {
                    "name": "G#5",
                    "midi": 80,
                    "time": 2.700000000000001,
                    "velocity": 0.2677165354330709,
                    "duration": 0.07500000000000018
                },
                {
                    "name": "G#5",
                    "midi": 80,
                    "time": 2.800000000000001,
                    "velocity": 0.31496062992125984,
                    "duration": 0.10000000000000009
                },
                {
                    "name": "B5",
                    "midi": 83,
                    "time": 2.9000000000000012,
                    "velocity": 0.2677165354330709,
                    "duration": 0.10000000000000009
                },
                {
                    "name": "G#5",
                    "midi": 80,
                    "time": 3.0000000000000013,
                    "velocity": 0.31496062992125984,
                    "duration": 0.10000000000000009
                },
                {
                    "name": "D#5",
                    "midi": 75,
                    "time": 3.1000000000000014,
                    "velocity": 0.2677165354330709,
                    "duration": 0.07500000000000018
                },
                {
                    "name": "D#5",
                    "midi": 75,
                    "time": 3.2000000000000015,
                    "velocity": 0.31496062992125984,
                    "duration": 0.10000000000000009
                },
                {
                    "name": "G#5",
                    "midi": 80,
                    "time": 3.3000000000000016,
                    "velocity": 0.2677165354330709,
                    "duration": 0.10000000000000009
                },
                {
                    "name": "D#5",
                    "midi": 75,
                    "time": 3.4000000000000017,
                    "velocity": 0.31496062992125984,
                    "duration": 0.10000000000000009
                },
                {
                    "name": "B4",
                    "midi": 71,
                    "time": 3.5000000000000018,
                    "velocity": 0.2677165354330709,
                    "duration": 0.07500000000000018
                },
                {
                    "name": "B4",
                    "midi": 71,
                    "time": 3.600000000000002,
                    "velocity": 0.31496062992125984,
                    "duration": 0.10000000000000009
                },
                {
                    "name": "D#5",
                    "midi": 75,
                    "time": 3.700000000000002,
                    "velocity": 0.2677165354330709,
                    "duration": 0.10000000000000009
                },
                {
                    "name": "B4",
                    "midi": 71,
                    "time": 3.800000000000002,
                    "velocity": 0.31496062992125984,
                    "duration": 0.10000000000000009
                },
                {
                    "name": "G#4",
                    "midi": 68,
                    "time": 3.900000000000002,
                    "velocity": 0.2677165354330709,
                    "duration": 0.07500000000000018
                },
                {
                    "name": "G#4",
                    "midi": 68,
                    "time": 4.000000000000003,
                    "velocity": 0.31496062992125984,
                    "duration": 0.09999999999999964
                },
                {
                    "name": "B4",
                    "midi": 71,
                    "time": 4.100000000000002,
                    "velocity": 0.2677165354330709,
                    "duration": 0.09999999999999964
                },
                {
                    "name": "G#4",
                    "midi": 68,
                    "time": 4.200000000000002,
                    "velocity": 0.31496062992125984,
                    "duration": 0.09999999999999964
                },
                {
                    "name": "D#4",
                    "midi": 63,
                    "time": 4.300000000000002,
                    "velocity": 0.2677165354330709,
                    "duration": 0.09999999999999964
                },
                {
                    "name": "G4",
                    "midi": 67,
                    "time": 4.400000000000001,
                    "velocity": 0.23622047244094488,
                    "duration": 0.20000000000000018
                },
                {
                    "name": "A#4",
                    "midi": 70,
                    "time": 4.400000000000001,
                    "velocity": 0.28346456692913385,
                    "duration": 0.20000000000000018
                },
                {
                    "name": "G#4",
                    "midi": 68,
                    "time": 4.800000000000002,
                    "velocity": 0.2440944881889764,
                    "duration": 0.3799999999999999
                },
                {
                    "name": "B4",
                    "midi": 71,
                    "time": 4.800000000000002,
                    "velocity": 0.2440944881889764,
                    "duration": 0.3799999999999999
                },
                {
                    "name": "G4",
                    "midi": 67,
                    "time": 5.200000000000001,
                    "velocity": 0.2440944881889764,
                    "duration": 0.3799999999999999
                },
                {
                    "name": "A#4",
                    "midi": 70,
                    "time": 5.200000000000001,
                    "velocity": 0.2440944881889764,
                    "duration": 0.3799999999999999
                },
                {
                    "name": "E5",
                    "midi": 76,
                    "time": 5.200000000000001,
                    "velocity": 0.2440944881889764,
                    "duration": 0.3799999999999999
                },
                {
                    "name": "G4",
                    "midi": 67,
                    "time": 5.6000000000000005,
                    "velocity": 0.28346456692913385,
                    "duration": 0.3799999999999999
                },
                {
                    "name": "A#4",
                    "midi": 70,
                    "time": 5.6000000000000005,
                    "velocity": 0.28346456692913385,
                    "duration": 0.3799999999999999
                },
                {
                    "name": "E5",
                    "midi": 76,
                    "time": 5.6000000000000005,
                    "velocity": 0.28346456692913385,
                    "duration": 0.3799999999999999
                },
                {
                    "name": "G4",
                    "midi": 67,
                    "time": 6,
                    "velocity": 0.29133858267716534,
                    "duration": 0.3799999999999999
                },
                {
                    "name": "A#4",
                    "midi": 70,
                    "time": 6,
                    "velocity": 0.29133858267716534,
                    "duration": 0.3799999999999999
                },
                {
                    "name": "E5",
                    "midi": 76,
                    "time": 6,
                    "velocity": 0.29133858267716534,
                    "duration": 0.3799999999999999
                },
                {
                    "name": "G4",
                    "midi": 67,
                    "time": 6.3999999999999995,
                    "velocity": 0.2440944881889764,
                    "duration": 0.3799999999999999
                },
                {
                    "name": "A#4",
                    "midi": 70,
                    "time": 6.3999999999999995,
                    "velocity": 0.2440944881889764,
                    "duration": 0.3799999999999999
                },
                {
                    "name": "D#5",
                    "midi": 75,
                    "time": 6.3999999999999995,
                    "velocity": 0.2440944881889764,
                    "duration": 0.3799999999999999
                },
                {
                    "name": "G4",
                    "midi": 67,
                    "time": 6.799999999999999,
                    "velocity": 0.2440944881889764,
                    "duration": 0.3799999999999999
                },
                {
                    "name": "A#4",
                    "midi": 70,
                    "time": 6.799999999999999,
                    "velocity": 0.2440944881889764,
                    "duration": 0.3799999999999999
                },
                {
                    "name": "C#5",
                    "midi": 73,
                    "time": 6.799999999999999,
                    "velocity": 0.2440944881889764,
                    "duration": 0.3799999999999999
                },
                {
                    "name": "B5",
                    "midi": 83,
                    "time": 7.199999999999998,
                    "velocity": 0.31496062992125984,
                    "duration": 0.09999999999999964
                },
                {
                    "name": "D#6",
                    "midi": 87,
                    "time": 7.299999999999998,
                    "velocity": 0.2677165354330709,
                    "duration": 0.09999999999999964
                },
                {
                    "name": "B5",
                    "midi": 83,
                    "time": 7.399999999999998,
                    "velocity": 0.31496062992125984,
                    "duration": 0.09999999999999964
                },
                {
                    "name": "G#5",
                    "midi": 80,
                    "time": 7.499999999999997,
                    "velocity": 0.2677165354330709,
                    "duration": 0.07500000000000018
                },
                {
                    "name": "G#5",
                    "midi": 80,
                    "time": 7.599999999999998,
                    "velocity": 0.31496062992125984,
                    "duration": 0.09999999999999964
                },
                {
                    "name": "B5",
                    "midi": 83,
                    "time": 7.6999999999999975,
                    "velocity": 0.2677165354330709,
                    "duration": 0.09999999999999964
                },
                {
                    "name": "G#5",
                    "midi": 80,
                    "time": 7.799999999999997,
                    "velocity": 0.31496062992125984,
                    "duration": 0.09999999999999964
                },
                {
                    "name": "D#5",
                    "midi": 75,
                    "time": 7.899999999999997,
                    "velocity": 0.2677165354330709,
                    "duration": 0.07500000000000018
                },
                {
                    "name": "D#5",
                    "midi": 75,
                    "time": 7.999999999999997,
                    "velocity": 0.31496062992125984,
                    "duration": 0.10000000000000053
                },
                {
                    "name": "G#5",
                    "midi": 80,
                    "time": 8.099999999999998,
                    "velocity": 0.2677165354330709,
                    "duration": 0.09999999999999964
                },
                {
                    "name": "D#5",
                    "midi": 75,
                    "time": 8.199999999999998,
                    "velocity": 0.31496062992125984,
                    "duration": 0.09999999999999964
                },
                {
                    "name": "B4",
                    "midi": 71,
                    "time": 8.299999999999997,
                    "velocity": 0.2677165354330709,
                    "duration": 0.07499999999999929
                },
                {
                    "name": "B4",
                    "midi": 71,
                    "time": 8.399999999999997,
                    "velocity": 0.31496062992125984,
                    "duration": 0.09999999999999964
                },
                {
                    "name": "D#5",
                    "midi": 75,
                    "time": 8.499999999999996,
                    "velocity": 0.2677165354330709,
                    "duration": 0.09999999999999964
                },
                {
                    "name": "B4",
                    "midi": 71,
                    "time": 8.599999999999996,
                    "velocity": 0.31496062992125984,
                    "duration": 0.09999999999999964
                },
                {
                    "name": "G#4",
                    "midi": 68,
                    "time": 8.699999999999996,
                    "velocity": 0.2677165354330709,
                    "duration": 0.07499999999999929
                },
                {
                    "name": "G#4",
                    "midi": 68,
                    "time": 8.799999999999995,
                    "velocity": 0.31496062992125984,
                    "duration": 0.09999999999999964
                },
                {
                    "name": "B4",
                    "midi": 71,
                    "time": 8.899999999999995,
                    "velocity": 0.2677165354330709,
                    "duration": 0.09999999999999964
                },
                {
                    "name": "G#4",
                    "midi": 68,
                    "time": 8.999999999999995,
                    "velocity": 0.31496062992125984,
                    "duration": 0.09999999999999964
                },
                {
                    "name": "D#4",
                    "midi": 63,
                    "time": 9.099999999999994,
                    "velocity": 0.2677165354330709,
                    "duration": 0.09999999999999964
                },
                {
                    "name": "G4",
                    "midi": 67,
                    "time": 9.199999999999994,
                    "velocity": 0.23622047244094488,
                    "duration": 0.1999999999999993
                },
                {
                    "name": "A#4",
                    "midi": 70,
                    "time": 9.199999999999994,
                    "velocity": 0.28346456692913385,
                    "duration": 0.1999999999999993
                },
                {
                    "name": "B5",
                    "midi": 83,
                    "time": 9.599999999999993,
                    "velocity": 0.31496062992125984,
                    "duration": 0.09999999999999964
                },
                {
                    "name": "D#6",
                    "midi": 87,
                    "time": 9.699999999999992,
                    "velocity": 0.2677165354330709,
                    "duration": 0.09999999999999964
                },
                {
                    "name": "B5",
                    "midi": 83,
                    "time": 9.799999999999992,
                    "velocity": 0.31496062992125984,
                    "duration": 0.09999999999999964
                },
                {
                    "name": "G#5",
                    "midi": 80,
                    "time": 9.899999999999991,
                    "velocity": 0.2677165354330709,
                    "duration": 0.07499999999999929
                },
                {
                    "name": "G#5",
                    "midi": 80,
                    "time": 9.999999999999991,
                    "velocity": 0.31496062992125984,
                    "duration": 0.09999999999999964
                },
                {
                    "name": "B5",
                    "midi": 83,
                    "time": 10.09999999999999,
                    "velocity": 0.2677165354330709,
                    "duration": 0.09999999999999964
                },
                {
                    "name": "G#5",
                    "midi": 80,
                    "time": 10.19999999999999,
                    "velocity": 0.31496062992125984,
                    "duration": 0.09999999999999964
                },
                {
                    "name": "D#5",
                    "midi": 75,
                    "time": 10.29999999999999,
                    "velocity": 0.2677165354330709,
                    "duration": 0.07499999999999929
                },
                {
                    "name": "D#5",
                    "midi": 75,
                    "time": 10.39999999999999,
                    "velocity": 0.31496062992125984,
                    "duration": 0.09999999999999964
                },
                {
                    "name": "G#5",
                    "midi": 80,
                    "time": 10.49999999999999,
                    "velocity": 0.2677165354330709,
                    "duration": 0.09999999999999964
                },
                {
                    "name": "D#5",
                    "midi": 75,
                    "time": 10.599999999999989,
                    "velocity": 0.31496062992125984,
                    "duration": 0.09999999999999964
                },
                {
                    "name": "B4",
                    "midi": 71,
                    "time": 10.699999999999989,
                    "velocity": 0.2677165354330709,
                    "duration": 0.07499999999999929
                },
                {
                    "name": "B4",
                    "midi": 71,
                    "time": 10.799999999999988,
                    "velocity": 0.31496062992125984,
                    "duration": 0.09999999999999964
                },
                {
                    "name": "D#5",
                    "midi": 75,
                    "time": 10.899999999999988,
                    "velocity": 0.2677165354330709,
                    "duration": 0.09999999999999964
                },
                {
                    "name": "B4",
                    "midi": 71,
                    "time": 10.999999999999988,
                    "velocity": 0.31496062992125984,
                    "duration": 0.09999999999999964
                },
                {
                    "name": "G#4",
                    "midi": 68,
                    "time": 11.099999999999987,
                    "velocity": 0.2677165354330709,
                    "duration": 0.07499999999999929
                },
                {
                    "name": "G#4",
                    "midi": 68,
                    "time": 11.199999999999987,
                    "velocity": 0.31496062992125984,
                    "duration": 0.09999999999999964
                },
                {
                    "name": "B4",
                    "midi": 71,
                    "time": 11.299999999999986,
                    "velocity": 0.2677165354330709,
                    "duration": 0.09999999999999964
                },
                {
                    "name": "G#4",
                    "midi": 68,
                    "time": 11.399999999999986,
                    "velocity": 0.31496062992125984,
                    "duration": 0.09999999999999964
                },
                {
                    "name": "D#4",
                    "midi": 63,
                    "time": 11.499999999999986,
                    "velocity": 0.2677165354330709,
                    "duration": 0.09999999999999964
                },
                {
                    "name": "A#4",
                    "midi": 70,
                    "time": 11.599999999999985,
                    "velocity": 0.28346456692913385,
                    "duration": 0.1999999999999993
                },
                {
                    "name": "G4",
                    "midi": 67,
                    "time": 11.599999999999985,
                    "velocity": 0.23622047244094488,
                    "duration": 0.1999999999999993
                },
                {
                    "name": "G#4",
                    "midi": 68,
                    "time": 11.999999999999984,
                    "velocity": 0.2440944881889764,
                    "duration": 0.3800000000000008
                },
                {
                    "name": "B4",
                    "midi": 71,
                    "time": 11.999999999999984,
                    "velocity": 0.2440944881889764,
                    "duration": 0.3800000000000008
                },
                {
                    "name": "E5",
                    "midi": 76,
                    "time": 12.399999999999984,
                    "velocity": 0.2440944881889764,
                    "duration": 0.3800000000000008
                },
                {
                    "name": "A#4",
                    "midi": 70,
                    "time": 12.399999999999984,
                    "velocity": 0.2440944881889764,
                    "duration": 0.3800000000000008
                },
                {
                    "name": "F#4",
                    "midi": 66,
                    "time": 12.399999999999984,
                    "velocity": 0.2440944881889764,
                    "duration": 0.3800000000000008
                },
                {
                    "name": "F#4",
                    "midi": 66,
                    "time": 12.799999999999985,
                    "velocity": 0.28346456692913385,
                    "duration": 0.3800000000000008
                },
                {
                    "name": "A#4",
                    "midi": 70,
                    "time": 12.799999999999985,
                    "velocity": 0.28346456692913385,
                    "duration": 0.3800000000000008
                },
                {
                    "name": "E5",
                    "midi": 76,
                    "time": 12.799999999999985,
                    "velocity": 0.28346456692913385,
                    "duration": 0.3800000000000008
                },
                {
                    "name": "F#4",
                    "midi": 66,
                    "time": 13.199999999999985,
                    "velocity": 0.29133858267716534,
                    "duration": 0.3800000000000008
                },
                {
                    "name": "A#4",
                    "midi": 70,
                    "time": 13.199999999999985,
                    "velocity": 0.29133858267716534,
                    "duration": 0.3800000000000008
                },
                {
                    "name": "E5",
                    "midi": 76,
                    "time": 13.199999999999985,
                    "velocity": 0.29133858267716534,
                    "duration": 0.3800000000000008
                },
                {
                    "name": "D#5",
                    "midi": 75,
                    "time": 13.599999999999985,
                    "velocity": 0.2440944881889764,
                    "duration": 0.3800000000000008
                },
                {
                    "name": "A#4",
                    "midi": 70,
                    "time": 13.599999999999985,
                    "velocity": 0.2440944881889764,
                    "duration": 0.3800000000000008
                },
                {
                    "name": "F#4",
                    "midi": 66,
                    "time": 13.599999999999985,
                    "velocity": 0.2440944881889764,
                    "duration": 0.3800000000000008
                },
                {
                    "name": "A#4",
                    "midi": 70,
                    "time": 13.999999999999986,
                    "velocity": 0.2440944881889764,
                    "duration": 0.3800000000000008
                },
                {
                    "name": "F#4",
                    "midi": 66,
                    "time": 13.999999999999986,
                    "velocity": 0.2440944881889764,
                    "duration": 0.3800000000000008
                },
                {
                    "name": "D5",
                    "midi": 74,
                    "time": 13.999999999999986,
                    "velocity": 0.2440944881889764,
                    "duration": 0.3800000000000008
                },
                {
                    "name": "D#6",
                    "midi": 87,
                    "time": 14.399999999999986,
                    "velocity": 0.3937007874015748,
                    "duration": 0.09999999999999964
                },
                {
                    "name": "F#6",
                    "midi": 90,
                    "time": 14.499999999999986,
                    "velocity": 0.33070866141732286,
                    "duration": 0.09999999999999964
                },
                {
                    "name": "D#6",
                    "midi": 87,
                    "time": 14.599999999999985,
                    "velocity": 0.3937007874015748,
                    "duration": 0.09999999999999964
                },
                {
                    "name": "B5",
                    "midi": 83,
                    "time": 14.699999999999985,
                    "velocity": 0.33070866141732286,
                    "duration": 0.07499999999999929
                },
                {
                    "name": "B5",
                    "midi": 83,
                    "time": 14.799999999999985,
                    "velocity": 0.3937007874015748,
                    "duration": 0.09999999999999964
                },
                {
                    "name": "D#6",
                    "midi": 87,
                    "time": 14.899999999999984,
                    "velocity": 0.33070866141732286,
                    "duration": 0.09999999999999964
                },
                {
                    "name": "B5",
                    "midi": 83,
                    "time": 14.999999999999984,
                    "velocity": 0.3937007874015748,
                    "duration": 0.09999999999999964
                },
                {
                    "name": "F#5",
                    "midi": 78,
                    "time": 15.099999999999984,
                    "velocity": 0.33070866141732286,
                    "duration": 0.07499999999999929
                },
                {
                    "name": "F#5",
                    "midi": 78,
                    "time": 15.199999999999983,
                    "velocity": 0.3937007874015748,
                    "duration": 0.09999999999999964
                },
                {
                    "name": "B5",
                    "midi": 83,
                    "time": 15.299999999999983,
                    "velocity": 0.33070866141732286,
                    "duration": 0.09999999999999964
                },
                {
                    "name": "F#5",
                    "midi": 78,
                    "time": 15.399999999999983,
                    "velocity": 0.3937007874015748,
                    "duration": 0.09999999999999964
                },
                {
                    "name": "D#5",
                    "midi": 75,
                    "time": 15.499999999999982,
                    "velocity": 0.33070866141732286,
                    "duration": 0.07499999999999929
                },
                {
                    "name": "D#5",
                    "midi": 75,
                    "time": 15.599999999999982,
                    "velocity": 0.3937007874015748,
                    "duration": 0.09999999999999964
                },
                {
                    "name": "F#5",
                    "midi": 78,
                    "time": 15.699999999999982,
                    "velocity": 0.33070866141732286,
                    "duration": 0.09999999999999964
                },
                {
                    "name": "D#5",
                    "midi": 75,
                    "time": 15.799999999999981,
                    "velocity": 0.3937007874015748,
                    "duration": 0.09999999999999964
                },
                {
                    "name": "B4",
                    "midi": 71,
                    "time": 15.89999999999998,
                    "velocity": 0.33070866141732286,
                    "duration": 0.07499999999999929
                },
                {
                    "name": "B4",
                    "midi": 71,
                    "time": 15.99999999999998,
                    "velocity": 0.3937007874015748,
                    "duration": 0.09999999999999964
                },
                {
                    "name": "D#5",
                    "midi": 75,
                    "time": 16.09999999999998,
                    "velocity": 0.33070866141732286,
                    "duration": 0.10000000000000142
                },
                {
                    "name": "B4",
                    "midi": 71,
                    "time": 16.19999999999998,
                    "velocity": 0.3937007874015748,
                    "duration": 0.10000000000000142
                },
                {
                    "name": "F#4",
                    "midi": 66,
                    "time": 16.299999999999983,
                    "velocity": 0.33070866141732286,
                    "duration": 0.10000000000000142
                },
                {
                    "name": "A#4",
                    "midi": 70,
                    "time": 16.399999999999984,
                    "velocity": 0.29133858267716534,
                    "duration": 0.1999999999999993
                },
                {
                    "name": "C#5",
                    "midi": 73,
                    "time": 16.399999999999984,
                    "velocity": 0.3543307086614173,
                    "duration": 0.1999999999999993
                },
                {
                    "name": "D#6",
                    "midi": 87,
                    "time": 16.799999999999983,
                    "velocity": 0.3937007874015748,
                    "duration": 0.10000000000000142
                },
                {
                    "name": "F#6",
                    "midi": 90,
                    "time": 16.899999999999984,
                    "velocity": 0.33070866141732286,
                    "duration": 0.10000000000000142
                },
                {
                    "name": "D#6",
                    "midi": 87,
                    "time": 16.999999999999986,
                    "velocity": 0.3937007874015748,
                    "duration": 0.10000000000000142
                },
                {
                    "name": "B5",
                    "midi": 83,
                    "time": 17.099999999999987,
                    "velocity": 0.33070866141732286,
                    "duration": 0.07499999999999929
                },
                {
                    "name": "B5",
                    "midi": 83,
                    "time": 17.199999999999985,
                    "velocity": 0.3937007874015748,
                    "duration": 0.10000000000000142
                },
                {
                    "name": "D#6",
                    "midi": 87,
                    "time": 17.299999999999986,
                    "velocity": 0.33070866141732286,
                    "duration": 0.10000000000000142
                },
                {
                    "name": "B5",
                    "midi": 83,
                    "time": 17.399999999999988,
                    "velocity": 0.3937007874015748,
                    "duration": 0.10000000000000142
                },
                {
                    "name": "F#5",
                    "midi": 78,
                    "time": 17.49999999999999,
                    "velocity": 0.33070866141732286,
                    "duration": 0.07499999999999929
                },
                {
                    "name": "F#5",
                    "midi": 78,
                    "time": 17.599999999999987,
                    "velocity": 0.3937007874015748,
                    "duration": 0.10000000000000142
                },
                {
                    "name": "B5",
                    "midi": 83,
                    "time": 17.69999999999999,
                    "velocity": 0.33070866141732286,
                    "duration": 0.10000000000000142
                },
                {
                    "name": "F#5",
                    "midi": 78,
                    "time": 17.79999999999999,
                    "velocity": 0.3937007874015748,
                    "duration": 0.10000000000000142
                },
                {
                    "name": "D#5",
                    "midi": 75,
                    "time": 17.89999999999999,
                    "velocity": 0.33070866141732286,
                    "duration": 0.07499999999999929
                },
                {
                    "name": "D#5",
                    "midi": 75,
                    "time": 17.99999999999999,
                    "velocity": 0.3937007874015748,
                    "duration": 0.10000000000000142
                },
                {
                    "name": "F#5",
                    "midi": 78,
                    "time": 18.09999999999999,
                    "velocity": 0.33070866141732286,
                    "duration": 0.10000000000000142
                },
                {
                    "name": "D#5",
                    "midi": 75,
                    "time": 18.199999999999992,
                    "velocity": 0.3937007874015748,
                    "duration": 0.10000000000000142
                },
                {
                    "name": "B4",
                    "midi": 71,
                    "time": 18.299999999999994,
                    "velocity": 0.33070866141732286,
                    "duration": 0.07499999999999929
                },
                {
                    "name": "B4",
                    "midi": 71,
                    "time": 18.39999999999999,
                    "velocity": 0.3937007874015748,
                    "duration": 0.10000000000000142
                },
                {
                    "name": "D#5",
                    "midi": 75,
                    "time": 18.499999999999993,
                    "velocity": 0.33070866141732286,
                    "duration": 0.10000000000000142
                },
                {
                    "name": "B4",
                    "midi": 71,
                    "time": 18.599999999999994,
                    "velocity": 0.3937007874015748,
                    "duration": 0.10000000000000142
                },
                {
                    "name": "F#4",
                    "midi": 66,
                    "time": 18.699999999999996,
                    "velocity": 0.33070866141732286,
                    "duration": 0.10000000000000142
                },
                {
                    "name": "A#4",
                    "midi": 70,
                    "time": 18.799999999999997,
                    "velocity": 0.29133858267716534,
                    "duration": 0.1999999999999993
                },
                {
                    "name": "C#5",
                    "midi": 73,
                    "time": 18.799999999999997,
                    "velocity": 0.3543307086614173,
                    "duration": 0.1999999999999993
                },
                {
                    "name": "B4",
                    "midi": 71,
                    "time": 19.199999999999996,
                    "velocity": 0.3228346456692913,
                    "duration": 0.379999999999999
                },
                {
                    "name": "D#5",
                    "midi": 75,
                    "time": 19.199999999999996,
                    "velocity": 0.3228346456692913,
                    "duration": 0.379999999999999
                },
                {
                    "name": "A#4",
                    "midi": 70,
                    "time": 19.599999999999994,
                    "velocity": 0.3700787401574803,
                    "duration": 0.379999999999999
                },
                {
                    "name": "G#5",
                    "midi": 80,
                    "time": 19.599999999999994,
                    "velocity": 0.3700787401574803,
                    "duration": 0.379999999999999
                },
                {
                    "name": "C#5",
                    "midi": 73,
                    "time": 19.599999999999994,
                    "velocity": 0.3700787401574803,
                    "duration": 0.379999999999999
                },
                {
                    "name": "G#5",
                    "midi": 80,
                    "time": 19.999999999999993,
                    "velocity": 0.3779527559055118,
                    "duration": 0.379999999999999
                },
                {
                    "name": "C#5",
                    "midi": 73,
                    "time": 19.999999999999993,
                    "velocity": 0.3779527559055118,
                    "duration": 0.379999999999999
                },
                {
                    "name": "A#4",
                    "midi": 70,
                    "time": 19.999999999999993,
                    "velocity": 0.3779527559055118,
                    "duration": 0.379999999999999
                },
                {
                    "name": "G#5",
                    "midi": 80,
                    "time": 20.39999999999999,
                    "velocity": 0.3858267716535433,
                    "duration": 0.379999999999999
                },
                {
                    "name": "C#5",
                    "midi": 73,
                    "time": 20.39999999999999,
                    "velocity": 0.3858267716535433,
                    "duration": 0.379999999999999
                },
                {
                    "name": "A#4",
                    "midi": 70,
                    "time": 20.39999999999999,
                    "velocity": 0.3858267716535433,
                    "duration": 0.379999999999999
                },
                {
                    "name": "F#5",
                    "midi": 78,
                    "time": 20.79999999999999,
                    "velocity": 0.30708661417322836,
                    "duration": 0.379999999999999
                },
                {
                    "name": "A#4",
                    "midi": 70,
                    "time": 20.79999999999999,
                    "velocity": 0.30708661417322836,
                    "duration": 0.379999999999999
                },
                {
                    "name": "D#5",
                    "midi": 75,
                    "time": 20.79999999999999,
                    "velocity": 0.30708661417322836,
                    "duration": 0.379999999999999
                },
                {
                    "name": "E5",
                    "midi": 76,
                    "time": 21.19999999999999,
                    "velocity": 0.30708661417322836,
                    "duration": 0.379999999999999
                },
                {
                    "name": "A#4",
                    "midi": 70,
                    "time": 21.19999999999999,
                    "velocity": 0.30708661417322836,
                    "duration": 0.379999999999999
                },
                {
                    "name": "D6",
                    "midi": 86,
                    "time": 21.599999999999987,
                    "velocity": 0.3937007874015748,
                    "duration": 0.10000000000000142
                },
                {
                    "name": "F#6",
                    "midi": 90,
                    "time": 21.69999999999999,
                    "velocity": 0.33070866141732286,
                    "duration": 0.10000000000000142
                },
                {
                    "name": "D6",
                    "midi": 86,
                    "time": 21.79999999999999,
                    "velocity": 0.3937007874015748,
                    "duration": 0.10000000000000142
                },
                {
                    "name": "B5",
                    "midi": 83,
                    "time": 21.89999999999999,
                    "velocity": 0.33070866141732286,
                    "duration": 0.07499999999999929
                },
                {
                    "name": "B5",
                    "midi": 83,
                    "time": 21.99999999999999,
                    "velocity": 0.3937007874015748,
                    "duration": 0.10000000000000142
                },
                {
                    "name": "D6",
                    "midi": 86,
                    "time": 22.09999999999999,
                    "velocity": 0.33070866141732286,
                    "duration": 0.10000000000000142
                },
                {
                    "name": "B5",
                    "midi": 83,
                    "time": 22.199999999999992,
                    "velocity": 0.3937007874015748,
                    "duration": 0.10000000000000142
                },
                {
                    "name": "F#5",
                    "midi": 78,
                    "time": 22.299999999999994,
                    "velocity": 0.33070866141732286,
                    "duration": 0.07499999999999929
                },
                {
                    "name": "F#5",
                    "midi": 78,
                    "time": 22.39999999999999,
                    "velocity": 0.3937007874015748,
                    "duration": 0.10000000000000142
                },
                {
                    "name": "B5",
                    "midi": 83,
                    "time": 22.499999999999993,
                    "velocity": 0.33070866141732286,
                    "duration": 0.10000000000000142
                },
                {
                    "name": "F#5",
                    "midi": 78,
                    "time": 22.599999999999994,
                    "velocity": 0.3937007874015748,
                    "duration": 0.10000000000000142
                },
                {
                    "name": "D5",
                    "midi": 74,
                    "time": 22.699999999999996,
                    "velocity": 0.33070866141732286,
                    "duration": 0.07499999999999929
                },
                {
                    "name": "D5",
                    "midi": 74,
                    "time": 22.799999999999994,
                    "velocity": 0.3937007874015748,
                    "duration": 0.10000000000000142
                },
                {
                    "name": "F#5",
                    "midi": 78,
                    "time": 22.899999999999995,
                    "velocity": 0.33070866141732286,
                    "duration": 0.10000000000000142
                },
                {
                    "name": "D5",
                    "midi": 74,
                    "time": 22.999999999999996,
                    "velocity": 0.3937007874015748,
                    "duration": 0.10000000000000142
                },
                {
                    "name": "B4",
                    "midi": 71,
                    "time": 23.099999999999998,
                    "velocity": 0.33070866141732286,
                    "duration": 0.07499999999999929
                },
                {
                    "name": "B4",
                    "midi": 71,
                    "time": 23.199999999999996,
                    "velocity": 0.3937007874015748,
                    "duration": 0.10000000000000142
                },
                {
                    "name": "D5",
                    "midi": 74,
                    "time": 23.299999999999997,
                    "velocity": 0.33070866141732286,
                    "duration": 0.10000000000000142
                },
                {
                    "name": "B4",
                    "midi": 71,
                    "time": 23.4,
                    "velocity": 0.3937007874015748,
                    "duration": 0.10000000000000142
                },
                {
                    "name": "F#4",
                    "midi": 66,
                    "time": 23.5,
                    "velocity": 0.33070866141732286,
                    "duration": 0.10000000000000142
                },
                {
                    "name": "C#5",
                    "midi": 73,
                    "time": 23.6,
                    "velocity": 0.3543307086614173,
                    "duration": 0.1999999999999993
                },
                {
                    "name": "A#4",
                    "midi": 70,
                    "time": 23.6,
                    "velocity": 0.29133858267716534,
                    "duration": 0.1999999999999993
                },
                {
                    "name": "D6",
                    "midi": 86,
                    "time": 24,
                    "velocity": 0.3937007874015748,
                    "duration": 0.10000000000000142
                },
                {
                    "name": "F#6",
                    "midi": 90,
                    "time": 24.1,
                    "velocity": 0.33070866141732286,
                    "duration": 0.10000000000000142
                },
                {
                    "name": "D6",
                    "midi": 86,
                    "time": 24.200000000000003,
                    "velocity": 0.3937007874015748,
                    "duration": 0.10000000000000142
                },
                {
                    "name": "B5",
                    "midi": 83,
                    "time": 24.300000000000004,
                    "velocity": 0.33070866141732286,
                    "duration": 0.07499999999999929
                },
                {
                    "name": "B5",
                    "midi": 83,
                    "time": 24.400000000000002,
                    "velocity": 0.3937007874015748,
                    "duration": 0.10000000000000142
                },
                {
                    "name": "D6",
                    "midi": 86,
                    "time": 24.500000000000004,
                    "velocity": 0.33070866141732286,
                    "duration": 0.10000000000000142
                },
                {
                    "name": "B5",
                    "midi": 83,
                    "time": 24.600000000000005,
                    "velocity": 0.3937007874015748,
                    "duration": 0.10000000000000142
                },
                {
                    "name": "F#5",
                    "midi": 78,
                    "time": 24.700000000000006,
                    "velocity": 0.33070866141732286,
                    "duration": 0.07499999999999929
                },
                {
                    "name": "F#5",
                    "midi": 78,
                    "time": 24.800000000000004,
                    "velocity": 0.3937007874015748,
                    "duration": 0.10000000000000142
                },
                {
                    "name": "B5",
                    "midi": 83,
                    "time": 24.900000000000006,
                    "velocity": 0.33858267716535434,
                    "duration": 0.10000000000000142
                },
                {
                    "name": "F#5",
                    "midi": 78,
                    "time": 25.000000000000007,
                    "velocity": 0.3937007874015748,
                    "duration": 0.10000000000000142
                },
                {
                    "name": "D5",
                    "midi": 74,
                    "time": 25.10000000000001,
                    "velocity": 0.33070866141732286,
                    "duration": 0.07499999999999929
                },
                {
                    "name": "D5",
                    "midi": 74,
                    "time": 25.200000000000006,
                    "velocity": 0.3937007874015748,
                    "duration": 0.10000000000000142
                },
                {
                    "name": "F#5",
                    "midi": 78,
                    "time": 25.300000000000008,
                    "velocity": 0.33070866141732286,
                    "duration": 0.10000000000000142
                },
                {
                    "name": "D5",
                    "midi": 74,
                    "time": 25.40000000000001,
                    "velocity": 0.3937007874015748,
                    "duration": 0.10000000000000142
                },
                {
                    "name": "B4",
                    "midi": 71,
                    "time": 25.50000000000001,
                    "velocity": 0.33070866141732286,
                    "duration": 0.07499999999999929
                },
                {
                    "name": "B4",
                    "midi": 71,
                    "time": 25.60000000000001,
                    "velocity": 0.3937007874015748,
                    "duration": 0.10000000000000142
                },
                {
                    "name": "D5",
                    "midi": 74,
                    "time": 25.70000000000001,
                    "velocity": 0.33070866141732286,
                    "duration": 0.10000000000000142
                },
                {
                    "name": "B4",
                    "midi": 71,
                    "time": 25.80000000000001,
                    "velocity": 0.3937007874015748,
                    "duration": 0.10000000000000142
                },
                {
                    "name": "F#4",
                    "midi": 66,
                    "time": 25.900000000000013,
                    "velocity": 0.33070866141732286,
                    "duration": 0.10000000000000142
                },
                {
                    "name": "A#4",
                    "midi": 70,
                    "time": 26.000000000000014,
                    "velocity": 0.3543307086614173,
                    "duration": 0.1999999999999993
                },
                {
                    "name": "C#5",
                    "midi": 73,
                    "time": 26.000000000000014,
                    "velocity": 0.3543307086614173,
                    "duration": 0.1999999999999993
                },
                {
                    "name": "D5",
                    "midi": 74,
                    "time": 26.400000000000013,
                    "velocity": 0.3228346456692913,
                    "duration": 0.379999999999999
                },
                {
                    "name": "F#4",
                    "midi": 66,
                    "time": 26.400000000000013,
                    "velocity": 0.3228346456692913,
                    "duration": 0.379999999999999
                },
                {
                    "name": "B4",
                    "midi": 71,
                    "time": 26.400000000000013,
                    "velocity": 0.3228346456692913,
                    "duration": 0.379999999999999
                },
                {
                    "name": "C#5",
                    "midi": 73,
                    "time": 26.80000000000001,
                    "velocity": 0.3937007874015748,
                    "duration": 0.379999999999999
                },
                {
                    "name": "E5",
                    "midi": 76,
                    "time": 26.80000000000001,
                    "velocity": 0.3937007874015748,
                    "duration": 0.379999999999999
                },
                {
                    "name": "B5",
                    "midi": 83,
                    "time": 26.80000000000001,
                    "velocity": 0.3937007874015748,
                    "duration": 0.379999999999999
                },
                {
                    "name": "B5",
                    "midi": 83,
                    "time": 27.20000000000001,
                    "velocity": 0.3779527559055118,
                    "duration": 0.379999999999999
                },
                {
                    "name": "E5",
                    "midi": 76,
                    "time": 27.20000000000001,
                    "velocity": 0.3779527559055118,
                    "duration": 0.379999999999999
                },
                {
                    "name": "C#5",
                    "midi": 73,
                    "time": 27.20000000000001,
                    "velocity": 0.3779527559055118,
                    "duration": 0.379999999999999
                },
                {
                    "name": "B5",
                    "midi": 83,
                    "time": 27.60000000000001,
                    "velocity": 0.36220472440944884,
                    "duration": 0.379999999999999
                },
                {
                    "name": "C#5",
                    "midi": 73,
                    "time": 27.60000000000001,
                    "velocity": 0.36220472440944884,
                    "duration": 0.379999999999999
                },
                {
                    "name": "E5",
                    "midi": 76,
                    "time": 27.60000000000001,
                    "velocity": 0.36220472440944884,
                    "duration": 0.379999999999999
                },
                {
                    "name": "C#5",
                    "midi": 73,
                    "time": 28.000000000000007,
                    "velocity": 0.3464566929133858,
                    "duration": 0.379999999999999
                },
                {
                    "name": "F#5",
                    "midi": 78,
                    "time": 28.000000000000007,
                    "velocity": 0.3464566929133858,
                    "duration": 0.379999999999999
                },
                {
                    "name": "A5",
                    "midi": 81,
                    "time": 28.000000000000007,
                    "velocity": 0.3464566929133858,
                    "duration": 0.379999999999999
                },
                {
                    "name": "C#5",
                    "midi": 73,
                    "time": 28.400000000000006,
                    "velocity": 0.33070866141732286,
                    "duration": 0.379999999999999
                },
                {
                    "name": "G5",
                    "midi": 79,
                    "time": 28.400000000000006,
                    "velocity": 0.33070866141732286,
                    "duration": 0.379999999999999
                },
                {
                    "name": "D5",
                    "midi": 74,
                    "time": 28.800000000000004,
                    "velocity": 0.2992125984251969,
                    "duration": 0.379999999999999
                },
                {
                    "name": "F#5",
                    "midi": 78,
                    "time": 28.800000000000004,
                    "velocity": 0.2992125984251969,
                    "duration": 0.379999999999999
                },
                {
                    "name": "G5",
                    "midi": 79,
                    "time": 29.200000000000003,
                    "velocity": 0.36220472440944884,
                    "duration": 0.379999999999999
                },
                {
                    "name": "C#5",
                    "midi": 73,
                    "time": 29.200000000000003,
                    "velocity": 0.36220472440944884,
                    "duration": 0.379999999999999
                },
                {
                    "name": "A#4",
                    "midi": 70,
                    "time": 29.200000000000003,
                    "velocity": 0.36220472440944884,
                    "duration": 0.379999999999999
                },
                {
                    "name": "G5",
                    "midi": 79,
                    "time": 29.6,
                    "velocity": 0.36220472440944884,
                    "duration": 0.379999999999999
                },
                {
                    "name": "C#5",
                    "midi": 73,
                    "time": 29.6,
                    "velocity": 0.36220472440944884,
                    "duration": 0.379999999999999
                },
                {
                    "name": "A#4",
                    "midi": 70,
                    "time": 29.6,
                    "velocity": 0.36220472440944884,
                    "duration": 0.379999999999999
                },
                {
                    "name": "C#5",
                    "midi": 73,
                    "time": 30,
                    "velocity": 0.36220472440944884,
                    "duration": 0.379999999999999
                },
                {
                    "name": "A#4",
                    "midi": 70,
                    "time": 30,
                    "velocity": 0.36220472440944884,
                    "duration": 0.379999999999999
                },
                {
                    "name": "G5",
                    "midi": 79,
                    "time": 30,
                    "velocity": 0.36220472440944884,
                    "duration": 0.379999999999999
                },
                {
                    "name": "A#4",
                    "midi": 70,
                    "time": 30.4,
                    "velocity": 0.3464566929133858,
                    "duration": 0.379999999999999
                },
                {
                    "name": "C#5",
                    "midi": 73,
                    "time": 30.4,
                    "velocity": 0.3464566929133858,
                    "duration": 0.379999999999999
                },
                {
                    "name": "F#5",
                    "midi": 78,
                    "time": 30.4,
                    "velocity": 0.3464566929133858,
                    "duration": 0.379999999999999
                },
                {
                    "name": "E5",
                    "midi": 76,
                    "time": 30.799999999999997,
                    "velocity": 0.33070866141732286,
                    "duration": 0.379999999999999
                },
                {
                    "name": "C#5",
                    "midi": 73,
                    "time": 30.799999999999997,
                    "velocity": 0.33070866141732286,
                    "duration": 0.379999999999999
                },
                {
                    "name": "D#5",
                    "midi": 75,
                    "time": 31.199999999999996,
                    "velocity": 0.3228346456692913,
                    "duration": 0.379999999999999
                },
                {
                    "name": "B4",
                    "midi": 71,
                    "time": 31.199999999999996,
                    "velocity": 0.3228346456692913,
                    "duration": 0.379999999999999
                },
                {
                    "name": "E5",
                    "midi": 76,
                    "time": 31.599999999999994,
                    "velocity": 0.3858267716535433,
                    "duration": 0.379999999999999
                },
                {
                    "name": "E4",
                    "midi": 64,
                    "time": 31.599999999999994,
                    "velocity": 0.3858267716535433,
                    "duration": 0.379999999999999
                },
                {
                    "name": "G#4",
                    "midi": 68,
                    "time": 31.599999999999994,
                    "velocity": 0.3858267716535433,
                    "duration": 0.379999999999999
                },
                {
                    "name": "E5",
                    "midi": 76,
                    "time": 31.999999999999993,
                    "velocity": 0.3858267716535433,
                    "duration": 0.38000000000000256
                },
                {
                    "name": "G#4",
                    "midi": 68,
                    "time": 31.999999999999993,
                    "velocity": 0.3858267716535433,
                    "duration": 0.38000000000000256
                },
                {
                    "name": "E4",
                    "midi": 64,
                    "time": 31.999999999999993,
                    "velocity": 0.3858267716535433,
                    "duration": 0.38000000000000256
                },
                {
                    "name": "G#4",
                    "midi": 68,
                    "time": 32.4,
                    "velocity": 0.3858267716535433,
                    "duration": 0.38000000000000256
                },
                {
                    "name": "E4",
                    "midi": 64,
                    "time": 32.4,
                    "velocity": 0.3858267716535433,
                    "duration": 0.38000000000000256
                },
                {
                    "name": "E5",
                    "midi": 76,
                    "time": 32.4,
                    "velocity": 0.3858267716535433,
                    "duration": 0.38000000000000256
                },
                {
                    "name": "D#4",
                    "midi": 63,
                    "time": 32.800000000000004,
                    "velocity": 0.3858267716535433,
                    "duration": 0.38000000000000256
                },
                {
                    "name": "D#5",
                    "midi": 75,
                    "time": 32.800000000000004,
                    "velocity": 0.3858267716535433,
                    "duration": 0.38000000000000256
                },
                {
                    "name": "G#4",
                    "midi": 68,
                    "time": 32.800000000000004,
                    "velocity": 0.3858267716535433,
                    "duration": 0.38000000000000256
                },
                {
                    "name": "G#4",
                    "midi": 68,
                    "time": 33.20000000000001,
                    "velocity": 0.3700787401574803,
                    "duration": 0.38000000000000256
                },
                {
                    "name": "C#5",
                    "midi": 73,
                    "time": 33.20000000000001,
                    "velocity": 0.3700787401574803,
                    "duration": 0.38000000000000256
                },
                {
                    "name": "C#4",
                    "midi": 61,
                    "time": 33.20000000000001,
                    "velocity": 0.3700787401574803,
                    "duration": 0.38000000000000256
                },
                {
                    "name": "B4",
                    "midi": 71,
                    "time": 33.600000000000016,
                    "velocity": 0.3779527559055118,
                    "duration": 0.38000000000000256
                },
                {
                    "name": "G#4",
                    "midi": 68,
                    "time": 33.600000000000016,
                    "velocity": 0.3779527559055118,
                    "duration": 0.38000000000000256
                },
                {
                    "name": "D#4",
                    "midi": 63,
                    "time": 33.600000000000016,
                    "velocity": 0.3779527559055118,
                    "duration": 0.38000000000000256
                },
                {
                    "name": "D#4",
                    "midi": 63,
                    "time": 34.00000000000002,
                    "velocity": 0.3779527559055118,
                    "duration": 0.38000000000000256
                },
                {
                    "name": "G#4",
                    "midi": 68,
                    "time": 34.00000000000002,
                    "velocity": 0.3779527559055118,
                    "duration": 0.38000000000000256
                },
                {
                    "name": "B4",
                    "midi": 71,
                    "time": 34.00000000000002,
                    "velocity": 0.3779527559055118,
                    "duration": 0.38000000000000256
                },
                {
                    "name": "D#4",
                    "midi": 63,
                    "time": 34.40000000000003,
                    "velocity": 0.3779527559055118,
                    "duration": 0.38000000000000256
                },
                {
                    "name": "G#4",
                    "midi": 68,
                    "time": 34.40000000000003,
                    "velocity": 0.3779527559055118,
                    "duration": 0.38000000000000256
                },
                {
                    "name": "B4",
                    "midi": 71,
                    "time": 34.40000000000003,
                    "velocity": 0.3779527559055118,
                    "duration": 0.38000000000000256
                },
                {
                    "name": "A#4",
                    "midi": 70,
                    "time": 34.80000000000003,
                    "velocity": 0.25984251968503935,
                    "duration": 0.38000000000000256
                },
                {
                    "name": "G4",
                    "midi": 67,
                    "time": 34.80000000000003,
                    "velocity": 0.25984251968503935,
                    "duration": 0.38000000000000256
                },
                {
                    "name": "D#4",
                    "midi": 63,
                    "time": 34.80000000000003,
                    "velocity": 0.25984251968503935,
                    "duration": 0.38000000000000256
                },
                {
                    "name": "A#4",
                    "midi": 70,
                    "time": 35.20000000000004,
                    "velocity": 0.2677165354330709,
                    "duration": 0.38000000000000256
                },
                {
                    "name": "D#4",
                    "midi": 63,
                    "time": 35.20000000000004,
                    "velocity": 0.2677165354330709,
                    "duration": 0.38000000000000256
                },
                {
                    "name": "G4",
                    "midi": 67,
                    "time": 35.20000000000004,
                    "velocity": 0.2677165354330709,
                    "duration": 0.38000000000000256
                },
                {
                    "name": "D#4",
                    "midi": 63,
                    "time": 35.600000000000044,
                    "velocity": 0.2677165354330709,
                    "duration": 0.38000000000000256
                },
                {
                    "name": "G4",
                    "midi": 67,
                    "time": 35.600000000000044,
                    "velocity": 0.2677165354330709,
                    "duration": 0.38000000000000256
                },
                {
                    "name": "A#4",
                    "midi": 70,
                    "time": 35.600000000000044,
                    "velocity": 0.2677165354330709,
                    "duration": 0.38000000000000256
                },
                {
                    "name": "C6",
                    "midi": 84,
                    "time": 36.00000000000005,
                    "velocity": 0.31496062992125984,
                    "duration": 0.10000000000000142
                },
                {
                    "name": "D#6",
                    "midi": 87,
                    "time": 36.10000000000005,
                    "velocity": 0.2677165354330709,
                    "duration": 0.10000000000000142
                },
                {
                    "name": "C6",
                    "midi": 84,
                    "time": 36.20000000000005,
                    "velocity": 0.31496062992125984,
                    "duration": 0.10000000000000142
                },
                {
                    "name": "G#5",
                    "midi": 80,
                    "time": 36.300000000000054,
                    "velocity": 0.2677165354330709,
                    "duration": 0.07500000000000284
                },
                {
                    "name": "G#5",
                    "midi": 80,
                    "time": 36.400000000000055,
                    "velocity": 0.31496062992125984,
                    "duration": 0.10000000000000142
                },
                {
                    "name": "C6",
                    "midi": 84,
                    "time": 36.50000000000006,
                    "velocity": 0.2677165354330709,
                    "duration": 0.10000000000000142
                },
                {
                    "name": "G#5",
                    "midi": 80,
                    "time": 36.60000000000006,
                    "velocity": 0.31496062992125984,
                    "duration": 0.10000000000000142
                },
                {
                    "name": "D#5",
                    "midi": 75,
                    "time": 36.70000000000006,
                    "velocity": 0.2677165354330709,
                    "duration": 0.07500000000000284
                },
                {
                    "name": "D#5",
                    "midi": 75,
                    "time": 36.80000000000006,
                    "velocity": 0.31496062992125984,
                    "duration": 0.10000000000000142
                },
                {
                    "name": "G#5",
                    "midi": 80,
                    "time": 36.90000000000006,
                    "velocity": 0.2677165354330709,
                    "duration": 0.10000000000000142
                },
                {
                    "name": "D#5",
                    "midi": 75,
                    "time": 37.000000000000064,
                    "velocity": 0.31496062992125984,
                    "duration": 0.10000000000000142
                },
                {
                    "name": "C5",
                    "midi": 72,
                    "time": 37.100000000000065,
                    "velocity": 0.2677165354330709,
                    "duration": 0.07500000000000284
                },
                {
                    "name": "C5",
                    "midi": 72,
                    "time": 37.20000000000007,
                    "velocity": 0.31496062992125984,
                    "duration": 0.10000000000000142
                },
                {
                    "name": "D#5",
                    "midi": 75,
                    "time": 37.30000000000007,
                    "velocity": 0.2677165354330709,
                    "duration": 0.10000000000000142
                },
                {
                    "name": "C5",
                    "midi": 72,
                    "time": 37.40000000000007,
                    "velocity": 0.31496062992125984,
                    "duration": 0.10000000000000142
                },
                {
                    "name": "G#4",
                    "midi": 68,
                    "time": 37.50000000000007,
                    "velocity": 0.2677165354330709,
                    "duration": 0.07500000000000284
                },
                {
                    "name": "G#4",
                    "midi": 68,
                    "time": 37.60000000000007,
                    "velocity": 0.31496062992125984,
                    "duration": 0.10000000000000142
                },
                {
                    "name": "C5",
                    "midi": 72,
                    "time": 37.700000000000074,
                    "velocity": 0.2677165354330709,
                    "duration": 0.10000000000000142
                },
                {
                    "name": "G#4",
                    "midi": 68,
                    "time": 37.800000000000075,
                    "velocity": 0.31496062992125984,
                    "duration": 0.10000000000000142
                },
                {
                    "name": "D#4",
                    "midi": 63,
                    "time": 37.90000000000008,
                    "velocity": 0.2677165354330709,
                    "duration": 0.10000000000000142
                },
                {
                    "name": "G4",
                    "midi": 67,
                    "time": 38.00000000000008,
                    "velocity": 0.23622047244094488,
                    "duration": 0.20000000000000284
                },
                {
                    "name": "A#4",
                    "midi": 70,
                    "time": 38.00000000000008,
                    "velocity": 0.28346456692913385,
                    "duration": 0.20000000000000284
                },
                {
                    "name": "C6",
                    "midi": 84,
                    "time": 38.400000000000084,
                    "velocity": 0.31496062992125984,
                    "duration": 0.10000000000000142
                },
                {
                    "name": "D#6",
                    "midi": 87,
                    "time": 38.500000000000085,
                    "velocity": 0.2677165354330709,
                    "duration": 0.10000000000000142
                },
                {
                    "name": "C6",
                    "midi": 84,
                    "time": 38.60000000000009,
                    "velocity": 0.31496062992125984,
                    "duration": 0.10000000000000142
                },
                {
                    "name": "G#5",
                    "midi": 80,
                    "time": 38.70000000000009,
                    "velocity": 0.2677165354330709,
                    "duration": 0.07500000000000284
                },
                {
                    "name": "G#5",
                    "midi": 80,
                    "time": 38.80000000000009,
                    "velocity": 0.31496062992125984,
                    "duration": 0.10000000000000142
                },
                {
                    "name": "C6",
                    "midi": 84,
                    "time": 38.90000000000009,
                    "velocity": 0.2677165354330709,
                    "duration": 0.10000000000000142
                },
                {
                    "name": "G#5",
                    "midi": 80,
                    "time": 39.00000000000009,
                    "velocity": 0.31496062992125984,
                    "duration": 0.10000000000000142
                },
                {
                    "name": "D#5",
                    "midi": 75,
                    "time": 39.100000000000094,
                    "velocity": 0.2677165354330709,
                    "duration": 0.07500000000000284
                },
                {
                    "name": "D#5",
                    "midi": 75,
                    "time": 39.200000000000095,
                    "velocity": 0.31496062992125984,
                    "duration": 0.10000000000000142
                },
                {
                    "name": "G#5",
                    "midi": 80,
                    "time": 39.3000000000001,
                    "velocity": 0.2677165354330709,
                    "duration": 0.10000000000000142
                },
                {
                    "name": "D#5",
                    "midi": 75,
                    "time": 39.4000000000001,
                    "velocity": 0.31496062992125984,
                    "duration": 0.10000000000000142
                },
                {
                    "name": "C5",
                    "midi": 72,
                    "time": 39.5000000000001,
                    "velocity": 0.2677165354330709,
                    "duration": 0.07500000000000284
                },
                {
                    "name": "C5",
                    "midi": 72,
                    "time": 39.6000000000001,
                    "velocity": 0.31496062992125984,
                    "duration": 0.10000000000000142
                },
                {
                    "name": "D#5",
                    "midi": 75,
                    "time": 39.7000000000001,
                    "velocity": 0.2677165354330709,
                    "duration": 0.10000000000000142
                },
                {
                    "name": "C5",
                    "midi": 72,
                    "time": 39.800000000000104,
                    "velocity": 0.31496062992125984,
                    "duration": 0.10000000000000142
                },
                {
                    "name": "G#4",
                    "midi": 68,
                    "time": 39.900000000000105,
                    "velocity": 0.2677165354330709,
                    "duration": 0.07500000000000284
                },
                {
                    "name": "G#4",
                    "midi": 68,
                    "time": 40.00000000000011,
                    "velocity": 0.31496062992125984,
                    "duration": 0.10000000000000142
                },
                {
                    "name": "C5",
                    "midi": 72,
                    "time": 40.10000000000011,
                    "velocity": 0.2677165354330709,
                    "duration": 0.10000000000000142
                },
                {
                    "name": "G#4",
                    "midi": 68,
                    "time": 40.20000000000011,
                    "velocity": 0.31496062992125984,
                    "duration": 0.10000000000000142
                },
                {
                    "name": "D#4",
                    "midi": 63,
                    "time": 40.30000000000011,
                    "velocity": 0.2677165354330709,
                    "duration": 0.10000000000000142
                },
                {
                    "name": "G4",
                    "midi": 67,
                    "time": 40.40000000000011,
                    "velocity": 0.28346456692913385,
                    "duration": 0.20000000000000284
                },
                {
                    "name": "A#4",
                    "midi": 70,
                    "time": 40.40000000000011,
                    "velocity": 0.28346456692913385,
                    "duration": 0.20000000000000284
                },
                {
                    "name": "D#6",
                    "midi": 87,
                    "time": 40.80000000000012,
                    "velocity": 0.3543307086614173,
                    "duration": 0.10000000000000142
                },
                {
                    "name": "G#6",
                    "midi": 92,
                    "time": 40.90000000000012,
                    "velocity": 0.2992125984251969,
                    "duration": 0.10000000000000142
                },
                {
                    "name": "D#6",
                    "midi": 87,
                    "time": 41.00000000000012,
                    "velocity": 0.3543307086614173,
                    "duration": 0.10000000000000142
                },
                {
                    "name": "C6",
                    "midi": 84,
                    "time": 41.10000000000012,
                    "velocity": 0.2992125984251969,
                    "duration": 0.07500000000000284
                },
                {
                    "name": "C6",
                    "midi": 84,
                    "time": 41.200000000000124,
                    "velocity": 0.3543307086614173,
                    "duration": 0.10000000000000142
                },
                {
                    "name": "D#6",
                    "midi": 87,
                    "time": 41.300000000000125,
                    "velocity": 0.2992125984251969,
                    "duration": 0.10000000000000142
                },
                {
                    "name": "C6",
                    "midi": 84,
                    "time": 41.40000000000013,
                    "velocity": 0.3543307086614173,
                    "duration": 0.10000000000000142
                },
                {
                    "name": "G#5",
                    "midi": 80,
                    "time": 41.50000000000013,
                    "velocity": 0.2992125984251969,
                    "duration": 0.07500000000000284
                },
                {
                    "name": "G#5",
                    "midi": 80,
                    "time": 41.60000000000013,
                    "velocity": 0.3543307086614173,
                    "duration": 0.10000000000000142
                },
                {
                    "name": "C6",
                    "midi": 84,
                    "time": 41.70000000000013,
                    "velocity": 0.2992125984251969,
                    "duration": 0.10000000000000142
                },
                {
                    "name": "G#5",
                    "midi": 80,
                    "time": 41.80000000000013,
                    "velocity": 0.3543307086614173,
                    "duration": 0.10000000000000142
                },
                {
                    "name": "D#5",
                    "midi": 75,
                    "time": 41.900000000000134,
                    "velocity": 0.2992125984251969,
                    "duration": 0.07500000000000284
                },
                {
                    "name": "D#5",
                    "midi": 75,
                    "time": 42.000000000000135,
                    "velocity": 0.3543307086614173,
                    "duration": 0.10000000000000142
                },
                {
                    "name": "G#5",
                    "midi": 80,
                    "time": 42.100000000000136,
                    "velocity": 0.2992125984251969,
                    "duration": 0.10000000000000142
                },
                {
                    "name": "D#5",
                    "midi": 75,
                    "time": 42.20000000000014,
                    "velocity": 0.3543307086614173,
                    "duration": 0.10000000000000142
                },
                {
                    "name": "C5",
                    "midi": 72,
                    "time": 42.30000000000014,
                    "velocity": 0.2992125984251969,
                    "duration": 0.07500000000000284
                },
                {
                    "name": "C5",
                    "midi": 72,
                    "time": 42.40000000000014,
                    "velocity": 0.3543307086614173,
                    "duration": 0.10000000000000142
                },
                {
                    "name": "D#5",
                    "midi": 75,
                    "time": 42.50000000000014,
                    "velocity": 0.2992125984251969,
                    "duration": 0.10000000000000142
                },
                {
                    "name": "C5",
                    "midi": 72,
                    "time": 42.60000000000014,
                    "velocity": 0.3543307086614173,
                    "duration": 0.10000000000000142
                },
                {
                    "name": "G#4",
                    "midi": 68,
                    "time": 42.700000000000145,
                    "velocity": 0.2992125984251969,
                    "duration": 0.10000000000000142
                },
                {
                    "name": "G4",
                    "midi": 67,
                    "time": 42.800000000000146,
                    "velocity": 0.31496062992125984,
                    "duration": 0.20000000000000284
                },
                {
                    "name": "A#4",
                    "midi": 70,
                    "time": 42.800000000000146,
                    "velocity": 0.31496062992125984,
                    "duration": 0.20000000000000284
                },
                {
                    "name": "D#6",
                    "midi": 87,
                    "time": 43.20000000000015,
                    "velocity": 0.3937007874015748,
                    "duration": 0.10000000000000142
                },
                {
                    "name": "G#6",
                    "midi": 92,
                    "time": 43.30000000000015,
                    "velocity": 0.33070866141732286,
                    "duration": 0.10000000000000142
                },
                {
                    "name": "D#6",
                    "midi": 87,
                    "time": 43.400000000000155,
                    "velocity": 0.3937007874015748,
                    "duration": 0.10000000000000142
                },
                {
                    "name": "C6",
                    "midi": 84,
                    "time": 43.500000000000156,
                    "velocity": 0.33070866141732286,
                    "duration": 0.07500000000000284
                },
                {
                    "name": "C6",
                    "midi": 84,
                    "time": 43.60000000000016,
                    "velocity": 0.3937007874015748,
                    "duration": 0.10000000000000142
                },
                {
                    "name": "D#6",
                    "midi": 87,
                    "time": 43.70000000000016,
                    "velocity": 0.33070866141732286,
                    "duration": 0.10000000000000142
                },
                {
                    "name": "C6",
                    "midi": 84,
                    "time": 43.80000000000016,
                    "velocity": 0.3937007874015748,
                    "duration": 0.10000000000000142
                },
                {
                    "name": "G#5",
                    "midi": 80,
                    "time": 43.90000000000016,
                    "velocity": 0.33070866141732286,
                    "duration": 0.07500000000000284
                },
                {
                    "name": "G#5",
                    "midi": 80,
                    "time": 44.00000000000016,
                    "velocity": 0.3937007874015748,
                    "duration": 0.10000000000000142
                },
                {
                    "name": "C6",
                    "midi": 84,
                    "time": 44.100000000000165,
                    "velocity": 0.33070866141732286,
                    "duration": 0.10000000000000142
                },
                {
                    "name": "G#5",
                    "midi": 80,
                    "time": 44.200000000000166,
                    "velocity": 0.3937007874015748,
                    "duration": 0.10000000000000142
                },
                {
                    "name": "D#5",
                    "midi": 75,
                    "time": 44.30000000000017,
                    "velocity": 0.33070866141732286,
                    "duration": 0.07500000000000284
                },
                {
                    "name": "D#5",
                    "midi": 75,
                    "time": 44.40000000000017,
                    "velocity": 0.3937007874015748,
                    "duration": 0.10000000000000142
                },
                {
                    "name": "G#5",
                    "midi": 80,
                    "time": 44.50000000000017,
                    "velocity": 0.33070866141732286,
                    "duration": 0.10000000000000142
                },
                {
                    "name": "D#5",
                    "midi": 75,
                    "time": 44.60000000000017,
                    "velocity": 0.3937007874015748,
                    "duration": 0.10000000000000142
                },
                {
                    "name": "C5",
                    "midi": 72,
                    "time": 44.70000000000017,
                    "velocity": 0.33070866141732286,
                    "duration": 0.07500000000000284
                },
                {
                    "name": "C5",
                    "midi": 72,
                    "time": 44.800000000000175,
                    "velocity": 0.3937007874015748,
                    "duration": 0.10000000000000142
                },
                {
                    "name": "D#5",
                    "midi": 75,
                    "time": 44.900000000000176,
                    "velocity": 0.33070866141732286,
                    "duration": 0.10000000000000142
                },
                {
                    "name": "C5",
                    "midi": 72,
                    "time": 45.00000000000018,
                    "velocity": 0.3937007874015748,
                    "duration": 0.10000000000000142
                },
                {
                    "name": "G#4",
                    "midi": 68,
                    "time": 45.10000000000018,
                    "velocity": 0.33070866141732286,
                    "duration": 0.10000000000000142
                },
                {
                    "name": "G4",
                    "midi": 67,
                    "time": 45.20000000000018,
                    "velocity": 0.3543307086614173,
                    "duration": 0.20000000000000284
                },
                {
                    "name": "A#4",
                    "midi": 70,
                    "time": 45.20000000000018,
                    "velocity": 0.3543307086614173,
                    "duration": 0.20000000000000284
                },
                {
                    "name": "C5",
                    "midi": 72,
                    "time": 45.600000000000186,
                    "velocity": 0.31496062992125984,
                    "duration": 0.10000000000000142
                },
                {
                    "name": "D#5",
                    "midi": 75,
                    "time": 45.70000000000019,
                    "velocity": 0.2677165354330709,
                    "duration": 0.10000000000000142
                },
                {
                    "name": "C5",
                    "midi": 72,
                    "time": 45.80000000000019,
                    "velocity": 0.31496062992125984,
                    "duration": 0.10000000000000142
                },
                {
                    "name": "G#4",
                    "midi": 68,
                    "time": 45.90000000000019,
                    "velocity": 0.2677165354330709,
                    "duration": 0.07500000000000284
                },
                {
                    "name": "G#4",
                    "midi": 68,
                    "time": 46.00000000000019,
                    "velocity": 0.31496062992125984,
                    "duration": 0.10000000000000142
                },
                {
                    "name": "C5",
                    "midi": 72,
                    "time": 46.10000000000019,
                    "velocity": 0.2677165354330709,
                    "duration": 0.10000000000000142
                },
                {
                    "name": "G#4",
                    "midi": 68,
                    "time": 46.200000000000195,
                    "velocity": 0.31496062992125984,
                    "duration": 0.10000000000000142
                },
                {
                    "name": "D#4",
                    "midi": 63,
                    "time": 46.300000000000196,
                    "velocity": 0.2677165354330709,
                    "duration": 0.10000000000000142
                },
                {
                    "name": "G#4",
                    "midi": 68,
                    "time": 46.4000000000002,
                    "velocity": 0.31496062992125984,
                    "duration": 0.10000000000000142
                },
                {
                    "name": "C#5",
                    "midi": 73,
                    "time": 46.800000000000196,
                    "velocity": 0.31496062992125984,
                    "duration": 0.10000000000000142
                },
                {
                    "name": "F5",
                    "midi": 77,
                    "time": 46.9000000000002,
                    "velocity": 0.2677165354330709,
                    "duration": 0.10000000000000142
                },
                {
                    "name": "C#5",
                    "midi": 73,
                    "time": 47.0000000000002,
                    "velocity": 0.31496062992125984,
                    "duration": 0.10000000000000142
                },
                {
                    "name": "G#4",
                    "midi": 68,
                    "time": 47.1000000000002,
                    "velocity": 0.2677165354330709,
                    "duration": 0.07500000000000284
                },
                {
                    "name": "G#4",
                    "midi": 68,
                    "time": 47.2000000000002,
                    "velocity": 0.31496062992125984,
                    "duration": 0.10000000000000142
                },
                {
                    "name": "C#5",
                    "midi": 73,
                    "time": 47.3000000000002,
                    "velocity": 0.2677165354330709,
                    "duration": 0.10000000000000142
                },
                {
                    "name": "G#4",
                    "midi": 68,
                    "time": 47.400000000000205,
                    "velocity": 0.31496062992125984,
                    "duration": 0.10000000000000142
                },
                {
                    "name": "F4",
                    "midi": 65,
                    "time": 47.500000000000206,
                    "velocity": 0.2677165354330709,
                    "duration": 0.10000000000000142
                },
                {
                    "name": "G#4",
                    "midi": 68,
                    "time": 47.60000000000021,
                    "velocity": 0.31496062992125984,
                    "duration": 0.10000000000000142
                },
                {
                    "name": "D#5",
                    "midi": 75,
                    "time": 48.000000000000206,
                    "velocity": 0.31496062992125984,
                    "duration": 0.10000000000000142
                },
                {
                    "name": "G5",
                    "midi": 79,
                    "time": 48.10000000000021,
                    "velocity": 0.2677165354330709,
                    "duration": 0.10000000000000142
                },
                {
                    "name": "D#5",
                    "midi": 75,
                    "time": 48.20000000000021,
                    "velocity": 0.31496062992125984,
                    "duration": 0.10000000000000142
                },
                {
                    "name": "A#4",
                    "midi": 70,
                    "time": 48.30000000000021,
                    "velocity": 0.2677165354330709,
                    "duration": 0.07500000000000284
                },
                {
                    "name": "A#4",
                    "midi": 70,
                    "time": 48.40000000000021,
                    "velocity": 0.31496062992125984,
                    "duration": 0.10000000000000142
                },
                {
                    "name": "D#5",
                    "midi": 75,
                    "time": 48.50000000000021,
                    "velocity": 0.2677165354330709,
                    "duration": 0.10000000000000142
                },
                {
                    "name": "A#4",
                    "midi": 70,
                    "time": 48.600000000000215,
                    "velocity": 0.31496062992125984,
                    "duration": 0.10000000000000142
                },
                {
                    "name": "G4",
                    "midi": 67,
                    "time": 48.700000000000216,
                    "velocity": 0.2677165354330709,
                    "duration": 0.10000000000000142
                },
                {
                    "name": "A#4",
                    "midi": 70,
                    "time": 48.80000000000022,
                    "velocity": 0.31496062992125984,
                    "duration": 0.10000000000000142
                },
                {
                    "name": "D#5",
                    "midi": 75,
                    "time": 49.200000000000216,
                    "velocity": 0.31496062992125984,
                    "duration": 0.10000000000000142
                },
                {
                    "name": "G#5",
                    "midi": 80,
                    "time": 49.30000000000022,
                    "velocity": 0.2677165354330709,
                    "duration": 0.10000000000000142
                },
                {
                    "name": "D#5",
                    "midi": 75,
                    "time": 49.40000000000022,
                    "velocity": 0.31496062992125984,
                    "duration": 0.10000000000000142
                },
                {
                    "name": "C5",
                    "midi": 72,
                    "time": 49.50000000000022,
                    "velocity": 0.2677165354330709,
                    "duration": 0.07500000000000284
                },
                {
                    "name": "C5",
                    "midi": 72,
                    "time": 49.60000000000022,
                    "velocity": 0.31496062992125984,
                    "duration": 0.10000000000000142
                },
                {
                    "name": "D#5",
                    "midi": 75,
                    "time": 49.70000000000022,
                    "velocity": 0.2677165354330709,
                    "duration": 0.10000000000000142
                },
                {
                    "name": "C5",
                    "midi": 72,
                    "time": 49.800000000000225,
                    "velocity": 0.31496062992125984,
                    "duration": 0.10000000000000142
                },
                {
                    "name": "G#4",
                    "midi": 68,
                    "time": 49.900000000000226,
                    "velocity": 0.2677165354330709,
                    "duration": 0.10000000000000142
                },
                {
                    "name": "C5",
                    "midi": 72,
                    "time": 50.00000000000023,
                    "velocity": 0.31496062992125984,
                    "duration": 0.10000000000000142
                },
                {
                    "name": "C6",
                    "midi": 84,
                    "time": 50.400000000000226,
                    "velocity": 0.4094488188976378,
                    "duration": 0.10000000000000142
                },
                {
                    "name": "D#6",
                    "midi": 87,
                    "time": 50.50000000000023,
                    "velocity": 0.3464566929133858,
                    "duration": 0.10000000000000142
                },
                {
                    "name": "C6",
                    "midi": 84,
                    "time": 50.60000000000023,
                    "velocity": 0.4094488188976378,
                    "duration": 0.10000000000000142
                },
                {
                    "name": "G#5",
                    "midi": 80,
                    "time": 50.70000000000023,
                    "velocity": 0.3464566929133858,
                    "duration": 0.07500000000000284
                },
                {
                    "name": "G#5",
                    "midi": 80,
                    "time": 50.80000000000023,
                    "velocity": 0.4094488188976378,
                    "duration": 0.10000000000000142
                },
                {
                    "name": "C6",
                    "midi": 84,
                    "time": 50.90000000000023,
                    "velocity": 0.3464566929133858,
                    "duration": 0.10000000000000142
                },
                {
                    "name": "G#5",
                    "midi": 80,
                    "time": 51.000000000000234,
                    "velocity": 0.4094488188976378,
                    "duration": 0.10000000000000142
                },
                {
                    "name": "D#5",
                    "midi": 75,
                    "time": 51.100000000000236,
                    "velocity": 0.3464566929133858,
                    "duration": 0.10000000000000142
                },
                {
                    "name": "G#5",
                    "midi": 80,
                    "time": 51.20000000000024,
                    "velocity": 0.4094488188976378,
                    "duration": 0.10000000000000142
                },
                {
                    "name": "C#6",
                    "midi": 85,
                    "time": 51.600000000000236,
                    "velocity": 0.47244094488188976,
                    "duration": 0.10000000000000142
                },
                {
                    "name": "F6",
                    "midi": 89,
                    "time": 51.70000000000024,
                    "velocity": 0.4015748031496063,
                    "duration": 0.10000000000000142
                },
                {
                    "name": "C#6",
                    "midi": 85,
                    "time": 51.80000000000024,
                    "velocity": 0.47244094488188976,
                    "duration": 0.10000000000000142
                },
                {
                    "name": "G#5",
                    "midi": 80,
                    "time": 51.90000000000024,
                    "velocity": 0.4015748031496063,
                    "duration": 0.07500000000000284
                },
                {
                    "name": "G#5",
                    "midi": 80,
                    "time": 52.00000000000024,
                    "velocity": 0.47244094488188976,
                    "duration": 0.10000000000000142
                },
                {
                    "name": "C#6",
                    "midi": 85,
                    "time": 52.10000000000024,
                    "velocity": 0.4015748031496063,
                    "duration": 0.10000000000000142
                },
                {
                    "name": "G#5",
                    "midi": 80,
                    "time": 52.200000000000244,
                    "velocity": 0.47244094488188976,
                    "duration": 0.10000000000000142
                },
                {
                    "name": "F5",
                    "midi": 77,
                    "time": 52.300000000000246,
                    "velocity": 0.4015748031496063,
                    "duration": 0.10000000000000142
                },
                {
                    "name": "G#5",
                    "midi": 80,
                    "time": 52.40000000000025,
                    "velocity": 0.47244094488188976,
                    "duration": 0.10000000000000142
                },
                {
                    "name": "D#6",
                    "midi": 87,
                    "time": 52.800000000000246,
                    "velocity": 0.5511811023622047,
                    "duration": 0.10000000000000142
                },
                {
                    "name": "G6",
                    "midi": 91,
                    "time": 52.90000000000025,
                    "velocity": 0.4645669291338583,
                    "duration": 0.10000000000000142
                },
                {
                    "name": "D#6",
                    "midi": 87,
                    "time": 53.00000000000025,
                    "velocity": 0.5511811023622047,
                    "duration": 0.10000000000000142
                },
                {
                    "name": "A#5",
                    "midi": 82,
                    "time": 53.10000000000025,
                    "velocity": 0.4645669291338583,
                    "duration": 0.07500000000000284
                },
                {
                    "name": "A#5",
                    "midi": 82,
                    "time": 53.20000000000025,
                    "velocity": 0.5511811023622047,
                    "duration": 0.10000000000000142
                },
                {
                    "name": "D#6",
                    "midi": 87,
                    "time": 53.30000000000025,
                    "velocity": 0.4645669291338583,
                    "duration": 0.10000000000000142
                },
                {
                    "name": "A#5",
                    "midi": 82,
                    "time": 53.400000000000254,
                    "velocity": 0.5511811023622047,
                    "duration": 0.10000000000000142
                },
                {
                    "name": "G5",
                    "midi": 79,
                    "time": 53.500000000000256,
                    "velocity": 0.4645669291338583,
                    "duration": 0.10000000000000142
                },
                {
                    "name": "A#5",
                    "midi": 82,
                    "time": 53.60000000000026,
                    "velocity": 0.5511811023622047,
                    "duration": 0.20000000000000284
                },
                {
                    "name": "D#6",
                    "midi": 87,
                    "time": 54.00000000000026,
                    "velocity": 0.6299212598425197,
                    "duration": 0.10000000000000142
                },
                {
                    "name": "G#6",
                    "midi": 92,
                    "time": 54.100000000000264,
                    "velocity": 0.5354330708661418,
                    "duration": 0.10000000000000142
                },
                {
                    "name": "D#6",
                    "midi": 87,
                    "time": 54.200000000000266,
                    "velocity": 0.6299212598425197,
                    "duration": 0.10000000000000142
                },
                {
                    "name": "C6",
                    "midi": 84,
                    "time": 54.30000000000027,
                    "velocity": 0.5354330708661418,
                    "duration": 0.07500000000000284
                },
                {
                    "name": "C6",
                    "midi": 84,
                    "time": 54.40000000000027,
                    "velocity": 0.6299212598425197,
                    "duration": 0.10000000000000142
                },
                {
                    "name": "D#6",
                    "midi": 87,
                    "time": 54.50000000000027,
                    "velocity": 0.5354330708661418,
                    "duration": 0.10000000000000142
                },
                {
                    "name": "C6",
                    "midi": 84,
                    "time": 54.60000000000027,
                    "velocity": 0.6299212598425197,
                    "duration": 0.10000000000000142
                },
                {
                    "name": "G#5",
                    "midi": 80,
                    "time": 54.70000000000027,
                    "velocity": 0.5354330708661418,
                    "duration": 0.10000000000000142
                },
                {
                    "name": "C6",
                    "midi": 84,
                    "time": 54.800000000000274,
                    "velocity": 0.6299212598425197,
                    "duration": 0.20000000000000284
                },
                {
                    "name": "C5",
                    "midi": 72,
                    "time": 55.20000000000028,
                    "velocity": 0.31496062992125984,
                    "duration": 0.10000000000000142
                },
                {
                    "name": "D#5",
                    "midi": 75,
                    "time": 55.30000000000028,
                    "velocity": 0.2677165354330709,
                    "duration": 0.10000000000000142
                },
                {
                    "name": "C5",
                    "midi": 72,
                    "time": 55.40000000000028,
                    "velocity": 0.31496062992125984,
                    "duration": 0.10000000000000142
                },
                {
                    "name": "G#4",
                    "midi": 68,
                    "time": 55.500000000000284,
                    "velocity": 0.2677165354330709,
                    "duration": 0.07500000000000284
                },
                {
                    "name": "G#4",
                    "midi": 68,
                    "time": 55.600000000000286,
                    "velocity": 0.31496062992125984,
                    "duration": 0.10000000000000142
                },
                {
                    "name": "C5",
                    "midi": 72,
                    "time": 55.70000000000029,
                    "velocity": 0.2677165354330709,
                    "duration": 0.10000000000000142
                },
                {
                    "name": "G#4",
                    "midi": 68,
                    "time": 55.80000000000029,
                    "velocity": 0.31496062992125984,
                    "duration": 0.10000000000000142
                },
                {
                    "name": "D#4",
                    "midi": 63,
                    "time": 55.90000000000029,
                    "velocity": 0.2677165354330709,
                    "duration": 0.10000000000000142
                },
                {
                    "name": "G#4",
                    "midi": 68,
                    "time": 56.00000000000029,
                    "velocity": 0.31496062992125984,
                    "duration": 0.20000000000000284
                },
                {
                    "name": "C#5",
                    "midi": 73,
                    "time": 56.4000000000003,
                    "velocity": 0.31496062992125984,
                    "duration": 0.10000000000000142
                },
                {
                    "name": "F5",
                    "midi": 77,
                    "time": 56.5000000000003,
                    "velocity": 0.2677165354330709,
                    "duration": 0.10000000000000142
                },
                {
                    "name": "C#5",
                    "midi": 73,
                    "time": 56.6000000000003,
                    "velocity": 0.31496062992125984,
                    "duration": 0.10000000000000142
                },
                {
                    "name": "G#4",
                    "midi": 68,
                    "time": 56.7000000000003,
                    "velocity": 0.2677165354330709,
                    "duration": 0.07500000000000284
                },
                {
                    "name": "G#4",
                    "midi": 68,
                    "time": 56.8000000000003,
                    "velocity": 0.31496062992125984,
                    "duration": 0.10000000000000142
                },
                {
                    "name": "C#5",
                    "midi": 73,
                    "time": 56.900000000000304,
                    "velocity": 0.2677165354330709,
                    "duration": 0.10000000000000142
                },
                {
                    "name": "G#4",
                    "midi": 68,
                    "time": 57.000000000000306,
                    "velocity": 0.31496062992125984,
                    "duration": 0.10000000000000142
                },
                {
                    "name": "F4",
                    "midi": 65,
                    "time": 57.10000000000031,
                    "velocity": 0.2677165354330709,
                    "duration": 0.10000000000000142
                },
                {
                    "name": "G#4",
                    "midi": 68,
                    "time": 57.20000000000031,
                    "velocity": 0.31496062992125984,
                    "duration": 0.20000000000000284
                },
                {
                    "name": "D#5",
                    "midi": 75,
                    "time": 57.600000000000314,
                    "velocity": 0.31496062992125984,
                    "duration": 0.10000000000000142
                },
                {
                    "name": "G5",
                    "midi": 79,
                    "time": 57.700000000000315,
                    "velocity": 0.2677165354330709,
                    "duration": 0.10000000000000142
                },
                {
                    "name": "D#5",
                    "midi": 75,
                    "time": 57.80000000000032,
                    "velocity": 0.31496062992125984,
                    "duration": 0.10000000000000142
                },
                {
                    "name": "A#4",
                    "midi": 70,
                    "time": 57.90000000000032,
                    "velocity": 0.2677165354330709,
                    "duration": 0.07500000000000284
                },
                {
                    "name": "A#4",
                    "midi": 70,
                    "time": 58.00000000000032,
                    "velocity": 0.31496062992125984,
                    "duration": 0.10000000000000142
                },
                {
                    "name": "D#5",
                    "midi": 75,
                    "time": 58.10000000000032,
                    "velocity": 0.2677165354330709,
                    "duration": 0.10000000000000142
                },
                {
                    "name": "A#4",
                    "midi": 70,
                    "time": 58.20000000000032,
                    "velocity": 0.31496062992125984,
                    "duration": 0.10000000000000142
                },
                {
                    "name": "G4",
                    "midi": 67,
                    "time": 58.300000000000324,
                    "velocity": 0.2677165354330709,
                    "duration": 0.10000000000000142
                },
                {
                    "name": "A#4",
                    "midi": 70,
                    "time": 58.400000000000325,
                    "velocity": 0.31496062992125984,
                    "duration": 0.20000000000000284
                },
                {
                    "name": "D#5",
                    "midi": 75,
                    "time": 58.80000000000033,
                    "velocity": 0.31496062992125984,
                    "duration": 0.10000000000000142
                },
                {
                    "name": "G#5",
                    "midi": 80,
                    "time": 58.90000000000033,
                    "velocity": 0.2677165354330709,
                    "duration": 0.10000000000000142
                },
                {
                    "name": "D#5",
                    "midi": 75,
                    "time": 59.000000000000334,
                    "velocity": 0.31496062992125984,
                    "duration": 0.10000000000000142
                },
                {
                    "name": "C5",
                    "midi": 72,
                    "time": 59.100000000000335,
                    "velocity": 0.2677165354330709,
                    "duration": 0.07500000000000284
                },
                {
                    "name": "C5",
                    "midi": 72,
                    "time": 59.20000000000034,
                    "velocity": 0.31496062992125984,
                    "duration": 0.10000000000000142
                },
                {
                    "name": "D#5",
                    "midi": 75,
                    "time": 59.30000000000034,
                    "velocity": 0.2677165354330709,
                    "duration": 0.10000000000000142
                },
                {
                    "name": "C5",
                    "midi": 72,
                    "time": 59.40000000000034,
                    "velocity": 0.31496062992125984,
                    "duration": 0.10000000000000142
                },
                {
                    "name": "G#4",
                    "midi": 68,
                    "time": 59.50000000000034,
                    "velocity": 0.2677165354330709,
                    "duration": 0.10000000000000142
                },
                {
                    "name": "C5",
                    "midi": 72,
                    "time": 59.60000000000034,
                    "velocity": 0.31496062992125984,
                    "duration": 0.20000000000000284
                },
                {
                    "name": "C6",
                    "midi": 84,
                    "time": 60.00000000000035,
                    "velocity": 0.4094488188976378,
                    "duration": 0.10000000000000142
                },
                {
                    "name": "D#6",
                    "midi": 87,
                    "time": 60.10000000000035,
                    "velocity": 0.3464566929133858,
                    "duration": 0.10000000000000142
                },
                {
                    "name": "C6",
                    "midi": 84,
                    "time": 60.20000000000035,
                    "velocity": 0.4094488188976378,
                    "duration": 0.10000000000000142
                },
                {
                    "name": "G#5",
                    "midi": 80,
                    "time": 60.30000000000035,
                    "velocity": 0.3464566929133858,
                    "duration": 0.07500000000000284
                },
                {
                    "name": "G#5",
                    "midi": 80,
                    "time": 60.400000000000354,
                    "velocity": 0.4094488188976378,
                    "duration": 0.10000000000000142
                },
                {
                    "name": "C6",
                    "midi": 84,
                    "time": 60.500000000000355,
                    "velocity": 0.3464566929133858,
                    "duration": 0.10000000000000142
                },
                {
                    "name": "G#5",
                    "midi": 80,
                    "time": 60.60000000000036,
                    "velocity": 0.4094488188976378,
                    "duration": 0.10000000000000142
                },
                {
                    "name": "D#5",
                    "midi": 75,
                    "time": 60.70000000000036,
                    "velocity": 0.3464566929133858,
                    "duration": 0.10000000000000142
                },
                {
                    "name": "G#5",
                    "midi": 80,
                    "time": 60.80000000000036,
                    "velocity": 0.4094488188976378,
                    "duration": 0.20000000000000284
                },
                {
                    "name": "C#6",
                    "midi": 85,
                    "time": 61.200000000000365,
                    "velocity": 0.4330708661417323,
                    "duration": 0.10000000000000142
                },
                {
                    "name": "F6",
                    "midi": 89,
                    "time": 61.30000000000037,
                    "velocity": 0.36220472440944884,
                    "duration": 0.10000000000000142
                },
                {
                    "name": "C#6",
                    "midi": 85,
                    "time": 61.40000000000037,
                    "velocity": 0.4330708661417323,
                    "duration": 0.10000000000000142
                },
                {
                    "name": "G#5",
                    "midi": 80,
                    "time": 61.50000000000037,
                    "velocity": 0.36220472440944884,
                    "duration": 0.07500000000000284
                },
                {
                    "name": "G#5",
                    "midi": 80,
                    "time": 61.60000000000037,
                    "velocity": 0.4330708661417323,
                    "duration": 0.10000000000000142
                },
                {
                    "name": "C#6",
                    "midi": 85,
                    "time": 61.70000000000037,
                    "velocity": 0.36220472440944884,
                    "duration": 0.10000000000000142
                },
                {
                    "name": "G#5",
                    "midi": 80,
                    "time": 61.800000000000374,
                    "velocity": 0.4330708661417323,
                    "duration": 0.10000000000000142
                },
                {
                    "name": "F5",
                    "midi": 77,
                    "time": 61.900000000000375,
                    "velocity": 0.36220472440944884,
                    "duration": 0.10000000000000142
                },
                {
                    "name": "G#5",
                    "midi": 80,
                    "time": 62.00000000000038,
                    "velocity": 0.4330708661417323,
                    "duration": 0.20000000000000284
                },
                {
                    "name": "D#6",
                    "midi": 87,
                    "time": 62.40000000000038,
                    "velocity": 0.4881889763779528,
                    "duration": 0.10000000000000142
                },
                {
                    "name": "G6",
                    "midi": 91,
                    "time": 62.500000000000384,
                    "velocity": 0.4094488188976378,
                    "duration": 0.10000000000000142
                },
                {
                    "name": "D#6",
                    "midi": 87,
                    "time": 62.600000000000385,
                    "velocity": 0.4881889763779528,
                    "duration": 0.10000000000000142
                },
                {
                    "name": "A#5",
                    "midi": 82,
                    "time": 62.70000000000039,
                    "velocity": 0.4094488188976378,
                    "duration": 0.07500000000000284
                },
                {
                    "name": "A#5",
                    "midi": 82,
                    "time": 62.80000000000039,
                    "velocity": 0.4881889763779528,
                    "duration": 0.10000000000000142
                },
                {
                    "name": "D#6",
                    "midi": 87,
                    "time": 62.90000000000039,
                    "velocity": 0.4094488188976378,
                    "duration": 0.10000000000000142
                },
                {
                    "name": "A#5",
                    "midi": 82,
                    "time": 63.00000000000039,
                    "velocity": 0.4881889763779528,
                    "duration": 0.10000000000000142
                },
                {
                    "name": "G5",
                    "midi": 79,
                    "time": 63.10000000000039,
                    "velocity": 0.4094488188976378,
                    "duration": 0.10000000000000142
                },
                {
                    "name": "A#5",
                    "midi": 82,
                    "time": 63.200000000000394,
                    "velocity": 0.4881889763779528,
                    "duration": 0.20000000000000284
                },
                {
                    "name": "D#6",
                    "midi": 87,
                    "time": 63.6000000000004,
                    "velocity": 0.5511811023622047,
                    "duration": 0.10000000000000142
                },
                {
                    "name": "G#6",
                    "midi": 92,
                    "time": 63.7000000000004,
                    "velocity": 0.4645669291338583,
                    "duration": 0.10000000000000142
                },
                {
                    "name": "D#6",
                    "midi": 87,
                    "time": 63.8000000000004,
                    "velocity": 0.5511811023622047,
                    "duration": 0.10000000000000142
                },
                {
                    "name": "C6",
                    "midi": 84,
                    "time": 63.900000000000404,
                    "velocity": 0.4566929133858268,
                    "duration": 0.07500000000000284
                },
                {
                    "name": "C6",
                    "midi": 84,
                    "time": 64.00000000000041,
                    "velocity": 0.5511811023622047,
                    "duration": 0.09999999999999432
                },
                {
                    "name": "D#6",
                    "midi": 87,
                    "time": 64.1000000000004,
                    "velocity": 0.4645669291338583,
                    "duration": 0.09999999999999432
                },
                {
                    "name": "C6",
                    "midi": 84,
                    "time": 64.2000000000004,
                    "velocity": 0.5511811023622047,
                    "duration": 0.09999999999999432
                },
                {
                    "name": "G#5",
                    "midi": 80,
                    "time": 64.3000000000004,
                    "velocity": 0.4645669291338583,
                    "duration": 0.09999999999999432
                },
                {
                    "name": "C6",
                    "midi": 84,
                    "time": 64.40000000000039,
                    "velocity": 0.5511811023622047,
                    "duration": 0.20000000000000284
                },
                {
                    "name": "D#6",
                    "midi": 87,
                    "time": 64.8000000000004,
                    "velocity": 0.6062992125984252,
                    "duration": 0.09999999999999432
                },
                {
                    "name": "G6",
                    "midi": 91,
                    "time": 64.90000000000039,
                    "velocity": 0.5118110236220472,
                    "duration": 0.09999999999999432
                },
                {
                    "name": "D#6",
                    "midi": 87,
                    "time": 65.00000000000038,
                    "velocity": 0.6062992125984252,
                    "duration": 0.09999999999999432
                },
                {
                    "name": "A#5",
                    "midi": 82,
                    "time": 65.10000000000038,
                    "velocity": 0.5118110236220472,
                    "duration": 0.07500000000000284
                },
                {
                    "name": "A#5",
                    "midi": 82,
                    "time": 65.20000000000039,
                    "velocity": 0.6062992125984252,
                    "duration": 0.09999999999999432
                },
                {
                    "name": "D#6",
                    "midi": 87,
                    "time": 65.30000000000038,
                    "velocity": 0.5118110236220472,
                    "duration": 0.09999999999999432
                },
                {
                    "name": "A#5",
                    "midi": 82,
                    "time": 65.40000000000038,
                    "velocity": 0.6062992125984252,
                    "duration": 0.09999999999999432
                },
                {
                    "name": "G5",
                    "midi": 79,
                    "time": 65.50000000000037,
                    "velocity": 0.5118110236220472,
                    "duration": 0.09999999999999432
                },
                {
                    "name": "A#5",
                    "midi": 82,
                    "time": 65.60000000000036,
                    "velocity": 0.6062992125984252,
                    "duration": 0.20000000000000284
                },
                {
                    "name": "D#6",
                    "midi": 87,
                    "time": 66.00000000000037,
                    "velocity": 0.6141732283464567,
                    "duration": 0.09999999999999432
                },
                {
                    "name": "G#6",
                    "midi": 92,
                    "time": 66.10000000000036,
                    "velocity": 0.5196850393700787,
                    "duration": 0.09999999999999432
                },
                {
                    "name": "D#6",
                    "midi": 87,
                    "time": 66.20000000000036,
                    "velocity": 0.6141732283464567,
                    "duration": 0.09999999999999432
                },
                {
                    "name": "C6",
                    "midi": 84,
                    "time": 66.30000000000035,
                    "velocity": 0.5196850393700787,
                    "duration": 0.07500000000000284
                },
                {
                    "name": "C6",
                    "midi": 84,
                    "time": 66.40000000000036,
                    "velocity": 0.6141732283464567,
                    "duration": 0.09999999999999432
                },
                {
                    "name": "D#6",
                    "midi": 87,
                    "time": 66.50000000000036,
                    "velocity": 0.5196850393700787,
                    "duration": 0.09999999999999432
                },
                {
                    "name": "C6",
                    "midi": 84,
                    "time": 66.60000000000035,
                    "velocity": 0.6141732283464567,
                    "duration": 0.09999999999999432
                },
                {
                    "name": "G#5",
                    "midi": 80,
                    "time": 66.70000000000034,
                    "velocity": 0.5196850393700787,
                    "duration": 0.09999999999999432
                },
                {
                    "name": "C6",
                    "midi": 84,
                    "time": 66.80000000000034,
                    "velocity": 0.6141732283464567,
                    "duration": 0.20000000000000284
                },
                {
                    "name": "F6",
                    "midi": 89,
                    "time": 67.20000000000034,
                    "velocity": 0.6141732283464567,
                    "duration": 0.09999999999999432
                },
                {
                    "name": "A6",
                    "midi": 93,
                    "time": 67.30000000000034,
                    "velocity": 0.5275590551181102,
                    "duration": 0.09999999999999432
                },
                {
                    "name": "F6",
                    "midi": 89,
                    "time": 67.40000000000033,
                    "velocity": 0.6141732283464567,
                    "duration": 0.09999999999999432
                },
                {
                    "name": "C6",
                    "midi": 84,
                    "time": 67.50000000000033,
                    "velocity": 0.5275590551181102,
                    "duration": 0.07500000000000284
                },
                {
                    "name": "C6",
                    "midi": 84,
                    "time": 67.60000000000034,
                    "velocity": 0.6141732283464567,
                    "duration": 0.09999999999999432
                },
                {
                    "name": "F6",
                    "midi": 89,
                    "time": 67.70000000000033,
                    "velocity": 0.5275590551181102,
                    "duration": 0.09999999999999432
                },
                {
                    "name": "C6",
                    "midi": 84,
                    "time": 67.80000000000032,
                    "velocity": 0.6141732283464567,
                    "duration": 0.09999999999999432
                },
                {
                    "name": "A5",
                    "midi": 81,
                    "time": 67.90000000000032,
                    "velocity": 0.5275590551181102,
                    "duration": 0.09999999999999432
                },
                {
                    "name": "C6",
                    "midi": 84,
                    "time": 68.00000000000031,
                    "velocity": 0.6141732283464567,
                    "duration": 0.20000000000000284
                },
                {
                    "name": "F6",
                    "midi": 89,
                    "time": 68.40000000000032,
                    "velocity": 0.6141732283464567,
                    "duration": 0.09999999999999432
                },
                {
                    "name": "A#6",
                    "midi": 94,
                    "time": 68.50000000000031,
                    "velocity": 0.5275590551181102,
                    "duration": 0.09999999999999432
                },
                {
                    "name": "F6",
                    "midi": 89,
                    "time": 68.6000000000003,
                    "velocity": 0.6141732283464567,
                    "duration": 0.09999999999999432
                },
                {
                    "name": "C#6",
                    "midi": 85,
                    "time": 68.7000000000003,
                    "velocity": 0.5275590551181102,
                    "duration": 0.07500000000000284
                },
                {
                    "name": "C#6",
                    "midi": 85,
                    "time": 68.80000000000031,
                    "velocity": 0.6141732283464567,
                    "duration": 0.09999999999999432
                },
                {
                    "name": "F6",
                    "midi": 89,
                    "time": 68.9000000000003,
                    "velocity": 0.5275590551181102,
                    "duration": 0.09999999999999432
                },
                {
                    "name": "C#6",
                    "midi": 85,
                    "time": 69.0000000000003,
                    "velocity": 0.6141732283464567,
                    "duration": 0.09999999999999432
                },
                {
                    "name": "A#5",
                    "midi": 82,
                    "time": 69.10000000000029,
                    "velocity": 0.5275590551181102,
                    "duration": 0.09999999999999432
                },
                {
                    "name": "C#6",
                    "midi": 85,
                    "time": 69.20000000000029,
                    "velocity": 0.6141732283464567,
                    "duration": 0.20000000000000284
                },
                {
                    "name": "F6",
                    "midi": 89,
                    "time": 69.60000000000029,
                    "velocity": 0.6141732283464567,
                    "duration": 0.09999999999999432
                },
                {
                    "name": "A6",
                    "midi": 93,
                    "time": 69.70000000000029,
                    "velocity": 0.5275590551181102,
                    "duration": 0.09999999999999432
                },
                {
                    "name": "F6",
                    "midi": 89,
                    "time": 69.80000000000028,
                    "velocity": 0.6141732283464567,
                    "duration": 0.09999999999999432
                },
                {
                    "name": "C6",
                    "midi": 84,
                    "time": 69.90000000000028,
                    "velocity": 0.5275590551181102,
                    "duration": 0.07500000000000284
                },
                {
                    "name": "C6",
                    "midi": 84,
                    "time": 70.00000000000028,
                    "velocity": 0.6141732283464567,
                    "duration": 0.09999999999999432
                },
                {
                    "name": "F6",
                    "midi": 89,
                    "time": 70.10000000000028,
                    "velocity": 0.5275590551181102,
                    "duration": 0.09999999999999432
                },
                {
                    "name": "C6",
                    "midi": 84,
                    "time": 70.20000000000027,
                    "velocity": 0.6141732283464567,
                    "duration": 0.09999999999999432
                },
                {
                    "name": "A5",
                    "midi": 81,
                    "time": 70.30000000000027,
                    "velocity": 0.5275590551181102,
                    "duration": 0.09999999999999432
                },
                {
                    "name": "C6",
                    "midi": 84,
                    "time": 70.40000000000026,
                    "velocity": 0.6141732283464567,
                    "duration": 0.20000000000000284
                },
                {
                    "name": "F6",
                    "midi": 89,
                    "time": 70.80000000000027,
                    "velocity": 0.6141732283464567,
                    "duration": 0.09999999999999432
                },
                {
                    "name": "A#6",
                    "midi": 94,
                    "time": 70.90000000000026,
                    "velocity": 0.5275590551181102,
                    "duration": 0.09999999999999432
                },
                {
                    "name": "F6",
                    "midi": 89,
                    "time": 71.00000000000026,
                    "velocity": 0.6141732283464567,
                    "duration": 0.09999999999999432
                },
                {
                    "name": "C#6",
                    "midi": 85,
                    "time": 71.10000000000025,
                    "velocity": 0.5275590551181102,
                    "duration": 0.07500000000000284
                },
                {
                    "name": "C#6",
                    "midi": 85,
                    "time": 71.20000000000026,
                    "velocity": 0.6141732283464567,
                    "duration": 0.09999999999999432
                },
                {
                    "name": "F6",
                    "midi": 89,
                    "time": 71.30000000000025,
                    "velocity": 0.5275590551181102,
                    "duration": 0.09999999999999432
                },
                {
                    "name": "C#6",
                    "midi": 85,
                    "time": 71.40000000000025,
                    "velocity": 0.6141732283464567,
                    "duration": 0.09999999999999432
                },
                {
                    "name": "A#5",
                    "midi": 82,
                    "time": 71.50000000000024,
                    "velocity": 0.5275590551181102,
                    "duration": 0.09999999999999432
                },
                {
                    "name": "C#6",
                    "midi": 85,
                    "time": 71.60000000000024,
                    "velocity": 0.6141732283464567,
                    "duration": 0.20000000000000284
                },
                {
                    "name": "G#6",
                    "midi": 92,
                    "time": 72.00000000000024,
                    "velocity": 0.6141732283464567,
                    "duration": 0.09999999999999432
                },
                {
                    "name": "C7",
                    "midi": 96,
                    "time": 72.10000000000024,
                    "velocity": 0.5275590551181102,
                    "duration": 0.09999999999999432
                },
                {
                    "name": "G#6",
                    "midi": 92,
                    "time": 72.20000000000023,
                    "velocity": 0.6141732283464567,
                    "duration": 0.09999999999999432
                },
                {
                    "name": "D#6",
                    "midi": 87,
                    "time": 72.30000000000022,
                    "velocity": 0.5275590551181102,
                    "duration": 0.07500000000000284
                },
                {
                    "name": "D#6",
                    "midi": 87,
                    "time": 72.40000000000023,
                    "velocity": 0.6141732283464567,
                    "duration": 0.09999999999999432
                },
                {
                    "name": "G#6",
                    "midi": 92,
                    "time": 72.50000000000023,
                    "velocity": 0.5275590551181102,
                    "duration": 0.09999999999999432
                },
                {
                    "name": "D#6",
                    "midi": 87,
                    "time": 72.60000000000022,
                    "velocity": 0.6141732283464567,
                    "duration": 0.09999999999999432
                },
                {
                    "name": "C6",
                    "midi": 84,
                    "time": 72.70000000000022,
                    "velocity": 0.5275590551181102,
                    "duration": 0.09999999999999432
                },
                {
                    "name": "D#6",
                    "midi": 87,
                    "time": 72.80000000000021,
                    "velocity": 0.6141732283464567,
                    "duration": 0.20000000000000284
                },
                {
                    "name": "G#6",
                    "midi": 92,
                    "time": 73.20000000000022,
                    "velocity": 0.6141732283464567,
                    "duration": 0.09999999999999432
                },
                {
                    "name": "C#7",
                    "midi": 97,
                    "time": 73.30000000000021,
                    "velocity": 0.5275590551181102,
                    "duration": 0.09999999999999432
                },
                {
                    "name": "G#6",
                    "midi": 92,
                    "time": 73.4000000000002,
                    "velocity": 0.6141732283464567,
                    "duration": 0.09999999999999432
                },
                {
                    "name": "F6",
                    "midi": 89,
                    "time": 73.5000000000002,
                    "velocity": 0.5275590551181102,
                    "duration": 0.07500000000000284
                },
                {
                    "name": "F6",
                    "midi": 89,
                    "time": 73.60000000000021,
                    "velocity": 0.6220472440944882,
                    "duration": 0.09999999999999432
                },
                {
                    "name": "G#6",
                    "midi": 92,
                    "time": 73.7000000000002,
                    "velocity": 0.5354330708661418,
                    "duration": 0.09999999999999432
                },
                {
                    "name": "F6",
                    "midi": 89,
                    "time": 73.8000000000002,
                    "velocity": 0.6299212598425197,
                    "duration": 0.09999999999999432
                },
                {
                    "name": "C#6",
                    "midi": 85,
                    "time": 73.90000000000019,
                    "velocity": 0.5354330708661418,
                    "duration": 0.09999999999999432
                },
                {
                    "name": "F6",
                    "midi": 89,
                    "time": 74.00000000000018,
                    "velocity": 0.6377952755905512,
                    "duration": 0.20000000000000284
                },
                {
                    "name": "G#6",
                    "midi": 92,
                    "time": 74.40000000000019,
                    "velocity": 0.6456692913385826,
                    "duration": 0.09999999999999432
                },
                {
                    "name": "C7",
                    "midi": 96,
                    "time": 74.50000000000018,
                    "velocity": 0.5511811023622047,
                    "duration": 0.09999999999999432
                },
                {
                    "name": "G#6",
                    "midi": 92,
                    "time": 74.60000000000018,
                    "velocity": 0.6535433070866141,
                    "duration": 0.09999999999999432
                },
                {
                    "name": "D#6",
                    "midi": 87,
                    "time": 74.70000000000017,
                    "velocity": 0.5590551181102362,
                    "duration": 0.07500000000000284
                },
                {
                    "name": "D#6",
                    "midi": 87,
                    "time": 74.80000000000018,
                    "velocity": 0.6614173228346457,
                    "duration": 0.09999999999999432
                },
                {
                    "name": "G#6",
                    "midi": 92,
                    "time": 74.90000000000018,
                    "velocity": 0.5669291338582677,
                    "duration": 0.09999999999999432
                },
                {
                    "name": "D#6",
                    "midi": 87,
                    "time": 75.00000000000017,
                    "velocity": 0.6692913385826772,
                    "duration": 0.09999999999999432
                },
                {
                    "name": "C6",
                    "midi": 84,
                    "time": 75.10000000000016,
                    "velocity": 0.5669291338582677,
                    "duration": 0.09999999999999432
                },
                {
                    "name": "D#6",
                    "midi": 87,
                    "time": 75.20000000000016,
                    "velocity": 0.6692913385826772,
                    "duration": 0.20000000000000284
                },
                {
                    "name": "G#6",
                    "midi": 92,
                    "time": 75.60000000000016,
                    "velocity": 0.6771653543307087,
                    "duration": 0.09999999999999432
                },
                {
                    "name": "C#7",
                    "midi": 97,
                    "time": 75.70000000000016,
                    "velocity": 0.5748031496062992,
                    "duration": 0.09999999999999432
                },
                {
                    "name": "G#6",
                    "midi": 92,
                    "time": 75.80000000000015,
                    "velocity": 0.6771653543307087,
                    "duration": 0.09999999999999432
                },
                {
                    "name": "F6",
                    "midi": 89,
                    "time": 75.90000000000015,
                    "velocity": 0.5748031496062992,
                    "duration": 0.07500000000000284
                },
                {
                    "name": "F6",
                    "midi": 89,
                    "time": 76.00000000000016,
                    "velocity": 0.6771653543307087,
                    "duration": 0.09999999999999432
                },
                {
                    "name": "G#6",
                    "midi": 92,
                    "time": 76.10000000000015,
                    "velocity": 0.5748031496062992,
                    "duration": 0.09999999999999432
                },
                {
                    "name": "F6",
                    "midi": 89,
                    "time": 76.20000000000014,
                    "velocity": 0.6771653543307087,
                    "duration": 0.09999999999999432
                },
                {
                    "name": "C#6",
                    "midi": 85,
                    "time": 76.30000000000014,
                    "velocity": 0.5748031496062992,
                    "duration": 0.07500000000000284
                },
                {
                    "name": "C#6",
                    "midi": 85,
                    "time": 76.40000000000015,
                    "velocity": 0.6771653543307087,
                    "duration": 0.09999999999999432
                },
                {
                    "name": "F6",
                    "midi": 89,
                    "time": 76.50000000000014,
                    "velocity": 0.5748031496062992,
                    "duration": 0.09999999999999432
                },
                {
                    "name": "C#6",
                    "midi": 85,
                    "time": 76.60000000000014,
                    "velocity": 0.6771653543307087,
                    "duration": 0.09999999999999432
                },
                {
                    "name": "G#5",
                    "midi": 80,
                    "time": 76.70000000000013,
                    "velocity": 0.5748031496062992,
                    "duration": 0.07500000000000284
                },
                {
                    "name": "G#5",
                    "midi": 80,
                    "time": 76.80000000000014,
                    "velocity": 0.6771653543307087,
                    "duration": 0.09999999999999432
                },
                {
                    "name": "C#6",
                    "midi": 85,
                    "time": 76.90000000000013,
                    "velocity": 0.5748031496062992,
                    "duration": 0.09999999999999432
                },
                {
                    "name": "G#5",
                    "midi": 80,
                    "time": 77.00000000000013,
                    "velocity": 0.6771653543307087,
                    "duration": 0.09999999999999432
                },
                {
                    "name": "F5",
                    "midi": 77,
                    "time": 77.10000000000012,
                    "velocity": 0.5748031496062992,
                    "duration": 0.07500000000000284
                },
                {
                    "name": "F5",
                    "midi": 77,
                    "time": 77.20000000000013,
                    "velocity": 0.6771653543307087,
                    "duration": 0.09999999999999432
                },
                {
                    "name": "G#5",
                    "midi": 80,
                    "time": 77.30000000000013,
                    "velocity": 0.5748031496062992,
                    "duration": 0.09999999999999432
                },
                {
                    "name": "F5",
                    "midi": 77,
                    "time": 77.40000000000012,
                    "velocity": 0.6771653543307087,
                    "duration": 0.09999999999999432
                },
                {
                    "name": "C#5",
                    "midi": 73,
                    "time": 77.50000000000011,
                    "velocity": 0.5748031496062992,
                    "duration": 0.07500000000000284
                },
                {
                    "name": "C#5",
                    "midi": 73,
                    "time": 77.60000000000012,
                    "velocity": 0.6771653543307087,
                    "duration": 0.09999999999999432
                },
                {
                    "name": "F5",
                    "midi": 77,
                    "time": 77.70000000000012,
                    "velocity": 0.5748031496062992,
                    "duration": 0.09999999999999432
                },
                {
                    "name": "C#5",
                    "midi": 73,
                    "time": 77.80000000000011,
                    "velocity": 0.6771653543307087,
                    "duration": 0.09999999999999432
                },
                {
                    "name": "G#4",
                    "midi": 68,
                    "time": 77.9000000000001,
                    "velocity": 0.5748031496062992,
                    "duration": 0.09999999999999432
                },
                {
                    "name": "G#5",
                    "midi": 80,
                    "time": 78.0000000000001,
                    "velocity": 0.6771653543307087,
                    "duration": 0.09999999999999432
                },
                {
                    "name": "C#6",
                    "midi": 85,
                    "time": 78.1000000000001,
                    "velocity": 0.5748031496062992,
                    "duration": 0.09999999999999432
                },
                {
                    "name": "G#5",
                    "midi": 80,
                    "time": 78.20000000000009,
                    "velocity": 0.6771653543307087,
                    "duration": 0.09999999999999432
                },
                {
                    "name": "F5",
                    "midi": 77,
                    "time": 78.30000000000008,
                    "velocity": 0.5748031496062992,
                    "duration": 0.07500000000000284
                },
                {
                    "name": "F5",
                    "midi": 77,
                    "time": 78.40000000000009,
                    "velocity": 0.6771653543307087,
                    "duration": 0.09999999999999432
                },
                {
                    "name": "G#5",
                    "midi": 80,
                    "time": 78.50000000000009,
                    "velocity": 0.5748031496062992,
                    "duration": 0.09999999999999432
                },
                {
                    "name": "F5",
                    "midi": 77,
                    "time": 78.60000000000008,
                    "velocity": 0.6771653543307087,
                    "duration": 0.09999999999999432
                },
                {
                    "name": "C#5",
                    "midi": 73,
                    "time": 78.70000000000007,
                    "velocity": 0.5748031496062992,
                    "duration": 0.07500000000000284
                },
                {
                    "name": "C#5",
                    "midi": 73,
                    "time": 78.80000000000008,
                    "velocity": 0.6771653543307087,
                    "duration": 0.09999999999999432
                },
                {
                    "name": "F5",
                    "midi": 77,
                    "time": 78.90000000000008,
                    "velocity": 0.5748031496062992,
                    "duration": 0.09999999999999432
                },
                {
                    "name": "C#5",
                    "midi": 73,
                    "time": 79.00000000000007,
                    "velocity": 0.6771653543307087,
                    "duration": 0.09999999999999432
                },
                {
                    "name": "G#4",
                    "midi": 68,
                    "time": 79.10000000000007,
                    "velocity": 0.5748031496062992,
                    "duration": 0.07500000000000284
                },
                {
                    "name": "G#4",
                    "midi": 68,
                    "time": 79.20000000000007,
                    "velocity": 0.6771653543307087,
                    "duration": 0.09999999999999432
                },
                {
                    "name": "C#5",
                    "midi": 73,
                    "time": 79.30000000000007,
                    "velocity": 0.5748031496062992,
                    "duration": 0.09999999999999432
                },
                {
                    "name": "G#4",
                    "midi": 68,
                    "time": 79.40000000000006,
                    "velocity": 0.6771653543307087,
                    "duration": 0.09999999999999432
                },
                {
                    "name": "F4",
                    "midi": 65,
                    "time": 79.50000000000006,
                    "velocity": 0.5748031496062992,
                    "duration": 0.07500000000000284
                },
                {
                    "name": "F4",
                    "midi": 65,
                    "time": 79.60000000000007,
                    "velocity": 0.6771653543307087,
                    "duration": 0.09999999999999432
                },
                {
                    "name": "G#4",
                    "midi": 68,
                    "time": 79.70000000000006,
                    "velocity": 0.5748031496062992,
                    "duration": 0.09999999999999432
                },
                {
                    "name": "F4",
                    "midi": 65,
                    "time": 79.80000000000005,
                    "velocity": 0.6771653543307087,
                    "duration": 0.09999999999999432
                },
                {
                    "name": "C#4",
                    "midi": 61,
                    "time": 79.90000000000005,
                    "velocity": 0.5748031496062992,
                    "duration": 0.07500000000000284
                },
                {
                    "name": "C#4",
                    "midi": 61,
                    "time": 80.00000000000006,
                    "velocity": 0.6771653543307087,
                    "duration": 0.09999999999999432
                },
                {
                    "name": "F4",
                    "midi": 65,
                    "time": 80.10000000000005,
                    "velocity": 0.5748031496062992,
                    "duration": 0.09999999999999432
                },
                {
                    "name": "C#4",
                    "midi": 61,
                    "time": 80.20000000000005,
                    "velocity": 0.6771653543307087,
                    "duration": 0.09999999999999432
                },
                {
                    "name": "G#3",
                    "midi": 56,
                    "time": 80.30000000000004,
                    "velocity": 0.5748031496062992,
                    "duration": 0.09999999999999432
                },
                {
                    "name": "C#4",
                    "midi": 61,
                    "time": 80.40000000000003,
                    "velocity": 0.6929133858267716,
                    "duration": 0.09999999999999432
                },
                {
                    "name": "E4",
                    "midi": 64,
                    "time": 80.50000000000003,
                    "velocity": 0.5354330708661418,
                    "duration": 0.09999999999999432
                },
                {
                    "name": "C#4",
                    "midi": 61,
                    "time": 80.60000000000002,
                    "velocity": 0.6299212598425197,
                    "duration": 0.09999999999999432
                },
                {
                    "name": "A#3",
                    "midi": 58,
                    "time": 80.70000000000002,
                    "velocity": 0.5354330708661418,
                    "duration": 0.07500000000000284
                },
                {
                    "name": "A#3",
                    "midi": 58,
                    "time": 80.80000000000003,
                    "velocity": 0.6299212598425197,
                    "duration": 0.09999999999999432
                },
                {
                    "name": "C#4",
                    "midi": 61,
                    "time": 80.90000000000002,
                    "velocity": 0.5354330708661418,
                    "duration": 0.09999999999999432
                },
                {
                    "name": "A#3",
                    "midi": 58,
                    "time": 81.00000000000001,
                    "velocity": 0.6299212598425197,
                    "duration": 0.09999999999999432
                },
                {
                    "name": "G3",
                    "midi": 55,
                    "time": 81.10000000000001,
                    "velocity": 0.5354330708661418,
                    "duration": 0.09999999999999432
                },
                {
                    "name": "C#4",
                    "midi": 61,
                    "time": 81.2,
                    "velocity": 0.7007874015748031,
                    "duration": 0.09999999999999432
                },
                {
                    "name": "E4",
                    "midi": 64,
                    "time": 81.3,
                    "velocity": 0.5354330708661418,
                    "duration": 0.09999999999999432
                },
                {
                    "name": "C#4",
                    "midi": 61,
                    "time": 81.39999999999999,
                    "velocity": 0.6299212598425197,
                    "duration": 0.09999999999999432
                },
                {
                    "name": "A#3",
                    "midi": 58,
                    "time": 81.49999999999999,
                    "velocity": 0.5354330708661418,
                    "duration": 0.07500000000000284
                },
                {
                    "name": "A#3",
                    "midi": 58,
                    "time": 81.6,
                    "velocity": 0.6299212598425197,
                    "duration": 0.09999999999999432
                },
                {
                    "name": "C#4",
                    "midi": 61,
                    "time": 81.69999999999999,
                    "velocity": 0.5354330708661418,
                    "duration": 0.09999999999999432
                },
                {
                    "name": "A#3",
                    "midi": 58,
                    "time": 81.79999999999998,
                    "velocity": 0.6299212598425197,
                    "duration": 0.09999999999999432
                },
                {
                    "name": "G3",
                    "midi": 55,
                    "time": 81.89999999999998,
                    "velocity": 0.5354330708661418,
                    "duration": 0.09999999999999432
                },
                {
                    "name": "C#4",
                    "midi": 61,
                    "time": 81.99999999999997,
                    "velocity": 0.6929133858267716,
                    "duration": 0.09999999999999432
                },
                {
                    "name": "E4",
                    "midi": 64,
                    "time": 82.09999999999997,
                    "velocity": 0.5354330708661418,
                    "duration": 0.09999999999999432
                },
                {
                    "name": "C#4",
                    "midi": 61,
                    "time": 82.19999999999996,
                    "velocity": 0.6299212598425197,
                    "duration": 0.09999999999999432
                },
                {
                    "name": "A#3",
                    "midi": 58,
                    "time": 82.29999999999995,
                    "velocity": 0.5354330708661418,
                    "duration": 0.07500000000000284
                },
                {
                    "name": "A#3",
                    "midi": 58,
                    "time": 82.39999999999996,
                    "velocity": 0.6299212598425197,
                    "duration": 0.09999999999999432
                },
                {
                    "name": "C#4",
                    "midi": 61,
                    "time": 82.49999999999996,
                    "velocity": 0.5354330708661418,
                    "duration": 0.09999999999999432
                },
                {
                    "name": "A#3",
                    "midi": 58,
                    "time": 82.59999999999995,
                    "velocity": 0.6299212598425197,
                    "duration": 0.09999999999999432
                },
                {
                    "name": "G3",
                    "midi": 55,
                    "time": 82.69999999999995,
                    "velocity": 0.5354330708661418,
                    "duration": 0.09999999999999432
                },
                {
                    "name": "C#4",
                    "midi": 61,
                    "time": 82.79999999999994,
                    "velocity": 0.6299212598425197,
                    "duration": 0.09999999999999432
                },
                {
                    "name": "D#4",
                    "midi": 63,
                    "time": 82.89999999999993,
                    "velocity": 0.5354330708661418,
                    "duration": 0.09999999999999432
                },
                {
                    "name": "C#4",
                    "midi": 61,
                    "time": 82.99999999999993,
                    "velocity": 0.6220472440944882,
                    "duration": 0.09999999999999432
                },
                {
                    "name": "A#3",
                    "midi": 58,
                    "time": 83.09999999999992,
                    "velocity": 0.5196850393700787,
                    "duration": 0.07500000000000284
                },
                {
                    "name": "A#3",
                    "midi": 58,
                    "time": 83.19999999999993,
                    "velocity": 0.6062992125984252,
                    "duration": 0.09999999999999432
                },
                {
                    "name": "C#4",
                    "midi": 61,
                    "time": 83.29999999999993,
                    "velocity": 0.5118110236220472,
                    "duration": 0.09999999999999432
                },
                {
                    "name": "A#3",
                    "midi": 58,
                    "time": 83.39999999999992,
                    "velocity": 0.5984251968503937,
                    "duration": 0.09999999999999432
                },
                {
                    "name": "G3",
                    "midi": 55,
                    "time": 83.49999999999991,
                    "velocity": 0.49606299212598426,
                    "duration": 0.09999999999999432
                },
                {
                    "name": "C#4",
                    "midi": 61,
                    "time": 83.59999999999991,
                    "velocity": 0.6456692913385826,
                    "duration": 0.09999999999999432
                },
                {
                    "name": "D#4",
                    "midi": 63,
                    "time": 83.6999999999999,
                    "velocity": 0.5039370078740157,
                    "duration": 0.09999999999999432
                },
                {
                    "name": "C#4",
                    "midi": 61,
                    "time": 83.7999999999999,
                    "velocity": 0.5905511811023622,
                    "duration": 0.09999999999999432
                },
                {
                    "name": "A#3",
                    "midi": 58,
                    "time": 83.89999999999989,
                    "velocity": 0.48031496062992124,
                    "duration": 0.07500000000000284
                },
                {
                    "name": "A#3",
                    "midi": 58,
                    "time": 83.9999999999999,
                    "velocity": 0.5984251968503937,
                    "duration": 0.09999999999999432
                },
                {
                    "name": "C#4",
                    "midi": 61,
                    "time": 84.0999999999999,
                    "velocity": 0.49606299212598426,
                    "duration": 0.09999999999999432
                },
                {
                    "name": "A#3",
                    "midi": 58,
                    "time": 84.19999999999989,
                    "velocity": 0.5748031496062992,
                    "duration": 0.09999999999999432
                },
                {
                    "name": "G3",
                    "midi": 55,
                    "time": 84.29999999999988,
                    "velocity": 0.4645669291338583,
                    "duration": 0.09999999999999432
                },
                {
                    "name": "C#4",
                    "midi": 61,
                    "time": 84.39999999999988,
                    "velocity": 0.5984251968503937,
                    "duration": 0.09999999999999432
                },
                {
                    "name": "D#4",
                    "midi": 63,
                    "time": 84.49999999999987,
                    "velocity": 0.44881889763779526,
                    "duration": 0.09999999999999432
                },
                {
                    "name": "C#4",
                    "midi": 61,
                    "time": 84.59999999999987,
                    "velocity": 0.5196850393700787,
                    "duration": 0.09999999999999432
                },
                {
                    "name": "A#3",
                    "midi": 58,
                    "time": 84.69999999999986,
                    "velocity": 0.4330708661417323,
                    "duration": 0.07500000000000284
                },
                {
                    "name": "A#3",
                    "midi": 58,
                    "time": 84.79999999999987,
                    "velocity": 0.49606299212598426,
                    "duration": 0.09999999999999432
                },
                {
                    "name": "C#4",
                    "midi": 61,
                    "time": 84.89999999999986,
                    "velocity": 0.4094488188976378,
                    "duration": 0.09999999999999432
                },
                {
                    "name": "A#3",
                    "midi": 58,
                    "time": 84.99999999999986,
                    "velocity": 0.47244094488188976,
                    "duration": 0.09999999999999432
                },
                {
                    "name": "G3",
                    "midi": 55,
                    "time": 85.09999999999985,
                    "velocity": 0.3858267716535433,
                    "duration": 0.09999999999999432
                },
                {
                    "name": "D#4",
                    "midi": 63,
                    "time": 85.19999999999985,
                    "velocity": 0.3937007874015748,
                    "duration": 0.4000000000000199
                },
                {
                    "name": "C4",
                    "midi": 60,
                    "time": 85.33333333333319,
                    "velocity": 0.31496062992125984,
                    "duration": 0.13333333333333997
                },
                {
                    "name": "G#3",
                    "midi": 56,
                    "time": 85.46666666666653,
                    "velocity": 0.31496062992125984,
                    "duration": 0.13333333333333997
                },
                {
                    "name": "G#4",
                    "midi": 68,
                    "time": 85.59999999999987,
                    "velocity": 0.3937007874015748,
                    "duration": 0.4000000000000199
                },
                {
                    "name": "D#4",
                    "midi": 63,
                    "time": 85.7333333333332,
                    "velocity": 0.31496062992125984,
                    "duration": 0.13333333333333997
                },
                {
                    "name": "C4",
                    "midi": 60,
                    "time": 85.86666666666655,
                    "velocity": 0.31496062992125984,
                    "duration": 0.13333333333333997
                },
                {
                    "name": "G4",
                    "midi": 67,
                    "time": 85.99999999999989,
                    "velocity": 0.3937007874015748,
                    "duration": 0.4000000000000199
                },
                {
                    "name": "D#4",
                    "midi": 63,
                    "time": 86.13333333333323,
                    "velocity": 0.31496062992125984,
                    "duration": 0.13333333333333997
                },
                {
                    "name": "C4",
                    "midi": 60,
                    "time": 86.26666666666657,
                    "velocity": 0.31496062992125984,
                    "duration": 0.13333333333333997
                },
                {
                    "name": "F4",
                    "midi": 65,
                    "time": 86.3999999999999,
                    "velocity": 0.3937007874015748,
                    "duration": 0.4000000000000199
                },
                {
                    "name": "C#4",
                    "midi": 61,
                    "time": 86.53333333333325,
                    "velocity": 0.31496062992125984,
                    "duration": 0.13333333333333997
                },
                {
                    "name": "G#3",
                    "midi": 56,
                    "time": 86.66666666666659,
                    "velocity": 0.31496062992125984,
                    "duration": 0.13333333333333997
                },
                {
                    "name": "C#5",
                    "midi": 73,
                    "time": 86.79999999999993,
                    "velocity": 0.3937007874015748,
                    "duration": 0.4000000000000199
                },
                {
                    "name": "F4",
                    "midi": 65,
                    "time": 86.93333333333327,
                    "velocity": 0.31496062992125984,
                    "duration": 0.13333333333333997
                },
                {
                    "name": "C#4",
                    "midi": 61,
                    "time": 87.0666666666666,
                    "velocity": 0.31496062992125984,
                    "duration": 0.13333333333333997
                },
                {
                    "name": "A#4",
                    "midi": 70,
                    "time": 87.19999999999995,
                    "velocity": 0.3937007874015748,
                    "duration": 0.4000000000000199
                },
                {
                    "name": "F4",
                    "midi": 65,
                    "time": 87.33333333333329,
                    "velocity": 0.31496062992125984,
                    "duration": 0.13333333333333997
                },
                {
                    "name": "C#4",
                    "midi": 61,
                    "time": 87.46666666666663,
                    "velocity": 0.31496062992125984,
                    "duration": 0.13333333333333997
                },
                {
                    "name": "A#4",
                    "midi": 70,
                    "time": 87.59999999999997,
                    "velocity": 0.3937007874015748,
                    "duration": 0.4000000000000199
                },
                {
                    "name": "D#4",
                    "midi": 63,
                    "time": 87.7333333333333,
                    "velocity": 0.31496062992125984,
                    "duration": 0.13333333333333997
                },
                {
                    "name": "C#4",
                    "midi": 61,
                    "time": 87.86666666666665,
                    "velocity": 0.31496062992125984,
                    "duration": 0.13333333333333997
                },
                {
                    "name": "G#4",
                    "midi": 68,
                    "time": 87.99999999999999,
                    "velocity": 0.3937007874015748,
                    "duration": 0.4000000000000199
                },
                {
                    "name": "D#4",
                    "midi": 63,
                    "time": 88.13333333333333,
                    "velocity": 0.31496062992125984,
                    "duration": 0.13333333333333997
                },
                {
                    "name": "C4",
                    "midi": 60,
                    "time": 88.26666666666667,
                    "velocity": 0.31496062992125984,
                    "duration": 0.13333333333333997
                },
                {
                    "name": "G#4",
                    "midi": 68,
                    "time": 88.4,
                    "velocity": 0.3937007874015748,
                    "duration": 0.4000000000000199
                },
                {
                    "name": "D#4",
                    "midi": 63,
                    "time": 88.53333333333335,
                    "velocity": 0.31496062992125984,
                    "duration": 0.13333333333333997
                },
                {
                    "name": "C4",
                    "midi": 60,
                    "time": 88.66666666666669,
                    "velocity": 0.31496062992125984,
                    "duration": 0.13333333333333997
                },
                {
                    "name": "G#4",
                    "midi": 68,
                    "time": 88.80000000000003,
                    "velocity": 0.3937007874015748,
                    "duration": 0.4000000000000199
                },
                {
                    "name": "D#4",
                    "midi": 63,
                    "time": 88.93333333333337,
                    "velocity": 0.31496062992125984,
                    "duration": 0.13333333333333997
                },
                {
                    "name": "C4",
                    "midi": 60,
                    "time": 89.0666666666667,
                    "velocity": 0.31496062992125984,
                    "duration": 0.13333333333333997
                },
                {
                    "name": "G4",
                    "midi": 67,
                    "time": 89.20000000000005,
                    "velocity": 0.3937007874015748,
                    "duration": 0.4000000000000199
                },
                {
                    "name": "D#4",
                    "midi": 63,
                    "time": 89.33333333333339,
                    "velocity": 0.31496062992125984,
                    "duration": 0.13333333333333997
                },
                {
                    "name": "A#3",
                    "midi": 58,
                    "time": 89.46666666666673,
                    "velocity": 0.31496062992125984,
                    "duration": 0.13333333333333997
                },
                {
                    "name": "G4",
                    "midi": 67,
                    "time": 89.60000000000007,
                    "velocity": 0.3937007874015748,
                    "duration": 0.4000000000000199
                },
                {
                    "name": "D#4",
                    "midi": 63,
                    "time": 89.7333333333334,
                    "velocity": 0.31496062992125984,
                    "duration": 0.13333333333333997
                },
                {
                    "name": "A#3",
                    "midi": 58,
                    "time": 89.86666666666675,
                    "velocity": 0.31496062992125984,
                    "duration": 0.13333333333333997
                },
                {
                    "name": "D#4",
                    "midi": 63,
                    "time": 90.00000000000009,
                    "velocity": 0.3937007874015748,
                    "duration": 0.4000000000000199
                },
                {
                    "name": "C4",
                    "midi": 60,
                    "time": 90.13333333333343,
                    "velocity": 0.31496062992125984,
                    "duration": 0.13333333333333997
                },
                {
                    "name": "G#3",
                    "midi": 56,
                    "time": 90.26666666666677,
                    "velocity": 0.31496062992125984,
                    "duration": 0.13333333333333997
                },
                {
                    "name": "G#4",
                    "midi": 68,
                    "time": 90.4000000000001,
                    "velocity": 0.3937007874015748,
                    "duration": 0.4000000000000199
                },
                {
                    "name": "D#4",
                    "midi": 63,
                    "time": 90.53333333333345,
                    "velocity": 0.31496062992125984,
                    "duration": 0.13333333333333997
                },
                {
                    "name": "C4",
                    "midi": 60,
                    "time": 90.66666666666679,
                    "velocity": 0.31496062992125984,
                    "duration": 0.13333333333333997
                },
                {
                    "name": "G4",
                    "midi": 67,
                    "time": 90.80000000000013,
                    "velocity": 0.3937007874015748,
                    "duration": 0.4000000000000199
                },
                {
                    "name": "D#4",
                    "midi": 63,
                    "time": 90.93333333333347,
                    "velocity": 0.31496062992125984,
                    "duration": 0.13333333333333997
                },
                {
                    "name": "C4",
                    "midi": 60,
                    "time": 91.0666666666668,
                    "velocity": 0.31496062992125984,
                    "duration": 0.13333333333333997
                },
                {
                    "name": "F4",
                    "midi": 65,
                    "time": 91.20000000000014,
                    "velocity": 0.3937007874015748,
                    "duration": 0.4000000000000199
                },
                {
                    "name": "C#4",
                    "midi": 61,
                    "time": 91.33333333333348,
                    "velocity": 0.31496062992125984,
                    "duration": 0.13333333333333997
                },
                {
                    "name": "G#3",
                    "midi": 56,
                    "time": 91.46666666666682,
                    "velocity": 0.31496062992125984,
                    "duration": 0.13333333333333997
                },
                {
                    "name": "F5",
                    "midi": 77,
                    "time": 91.60000000000016,
                    "velocity": 0.3937007874015748,
                    "duration": 0.4000000000000199
                },
                {
                    "name": "G#4",
                    "midi": 68,
                    "time": 91.7333333333335,
                    "velocity": 0.31496062992125984,
                    "duration": 0.13333333333333997
                },
                {
                    "name": "F4",
                    "midi": 65,
                    "time": 91.86666666666684,
                    "velocity": 0.31496062992125984,
                    "duration": 0.13333333333333997
                },
                {
                    "name": "C#5",
                    "midi": 73,
                    "time": 92.00000000000018,
                    "velocity": 0.3937007874015748,
                    "duration": 0.4000000000000199
                },
                {
                    "name": "F4",
                    "midi": 65,
                    "time": 92.13333333333352,
                    "velocity": 0.31496062992125984,
                    "duration": 0.13333333333333997
                },
                {
                    "name": "C#4",
                    "midi": 61,
                    "time": 92.26666666666686,
                    "velocity": 0.31496062992125984,
                    "duration": 0.13333333333333997
                },
                {
                    "name": "C#5",
                    "midi": 73,
                    "time": 92.4000000000002,
                    "velocity": 0.3937007874015748,
                    "duration": 0.4000000000000199
                },
                {
                    "name": "G#4",
                    "midi": 68,
                    "time": 92.53333333333354,
                    "velocity": 0.31496062992125984,
                    "duration": 0.13333333333333997
                },
                {
                    "name": "D#4",
                    "midi": 63,
                    "time": 92.66666666666688,
                    "velocity": 0.31496062992125984,
                    "duration": 0.13333333333333997
                },
                {
                    "name": "C5",
                    "midi": 72,
                    "time": 92.80000000000022,
                    "velocity": 0.3937007874015748,
                    "duration": 0.4000000000000199
                },
                {
                    "name": "G#4",
                    "midi": 68,
                    "time": 92.93333333333356,
                    "velocity": 0.31496062992125984,
                    "duration": 0.13333333333333997
                },
                {
                    "name": "D#4",
                    "midi": 63,
                    "time": 93.0666666666669,
                    "velocity": 0.31496062992125984,
                    "duration": 0.13333333333333997
                },
                {
                    "name": "C5",
                    "midi": 72,
                    "time": 93.20000000000024,
                    "velocity": 0.3937007874015748,
                    "duration": 0.4000000000000199
                },
                {
                    "name": "G#4",
                    "midi": 68,
                    "time": 93.33333333333358,
                    "velocity": 0.31496062992125984,
                    "duration": 0.13333333333333997
                },
                {
                    "name": "D#4",
                    "midi": 63,
                    "time": 93.46666666666692,
                    "velocity": 0.31496062992125984,
                    "duration": 0.13333333333333997
                },
                {
                    "name": "C5",
                    "midi": 72,
                    "time": 93.60000000000026,
                    "velocity": 0.3937007874015748,
                    "duration": 0.4000000000000199
                },
                {
                    "name": "D#4",
                    "midi": 63,
                    "time": 93.7333333333336,
                    "velocity": 0.31496062992125984,
                    "duration": 0.13333333333333997
                },
                {
                    "name": "C#4",
                    "midi": 61,
                    "time": 93.86666666666694,
                    "velocity": 0.31496062992125984,
                    "duration": 0.13333333333333997
                },
                {
                    "name": "A#4",
                    "midi": 70,
                    "time": 94.00000000000028,
                    "velocity": 0.3937007874015748,
                    "duration": 0.4000000000000199
                },
                {
                    "name": "D#4",
                    "midi": 63,
                    "time": 94.13333333333362,
                    "velocity": 0.31496062992125984,
                    "duration": 0.13333333333333997
                },
                {
                    "name": "C#4",
                    "midi": 61,
                    "time": 94.26666666666696,
                    "velocity": 0.31496062992125984,
                    "duration": 0.13333333333333997
                },
                {
                    "name": "A#4",
                    "midi": 70,
                    "time": 94.4000000000003,
                    "velocity": 0.3937007874015748,
                    "duration": 0.4000000000000199
                },
                {
                    "name": "D#4",
                    "midi": 63,
                    "time": 94.53333333333364,
                    "velocity": 0.31496062992125984,
                    "duration": 0.13333333333333997
                },
                {
                    "name": "C#4",
                    "midi": 61,
                    "time": 94.66666666666698,
                    "velocity": 0.31496062992125984,
                    "duration": 0.13333333333333997
                },
                {
                    "name": "C5",
                    "midi": 72,
                    "time": 94.80000000000032,
                    "velocity": 0.3779527559055118,
                    "duration": 0.09999999999999432
                },
                {
                    "name": "D#5",
                    "midi": 75,
                    "time": 94.90000000000032,
                    "velocity": 0.31496062992125984,
                    "duration": 0.09999999999999432
                },
                {
                    "name": "C5",
                    "midi": 72,
                    "time": 95.00000000000031,
                    "velocity": 0.3779527559055118,
                    "duration": 0.09999999999999432
                },
                {
                    "name": "G#4",
                    "midi": 68,
                    "time": 95.1000000000003,
                    "velocity": 0.31496062992125984,
                    "duration": 0.07500000000000284
                },
                {
                    "name": "G#4",
                    "midi": 68,
                    "time": 95.20000000000032,
                    "velocity": 0.3779527559055118,
                    "duration": 0.09999999999999432
                },
                {
                    "name": "C5",
                    "midi": 72,
                    "time": 95.30000000000031,
                    "velocity": 0.31496062992125984,
                    "duration": 0.09999999999999432
                },
                {
                    "name": "G#4",
                    "midi": 68,
                    "time": 95.4000000000003,
                    "velocity": 0.3779527559055118,
                    "duration": 0.09999999999999432
                },
                {
                    "name": "D#4",
                    "midi": 63,
                    "time": 95.5000000000003,
                    "velocity": 0.31496062992125984,
                    "duration": 0.09999999999999432
                },
                {
                    "name": "G#4",
                    "midi": 68,
                    "time": 95.60000000000029,
                    "velocity": 0.3779527559055118,
                    "duration": 0.20000000000000284
                },
                {
                    "name": "C#5",
                    "midi": 73,
                    "time": 96.0000000000003,
                    "velocity": 0.3779527559055118,
                    "duration": 0.09999999999999432
                },
                {
                    "name": "F5",
                    "midi": 77,
                    "time": 96.10000000000029,
                    "velocity": 0.31496062992125984,
                    "duration": 0.09999999999999432
                },
                {
                    "name": "C#5",
                    "midi": 73,
                    "time": 96.20000000000029,
                    "velocity": 0.3779527559055118,
                    "duration": 0.09999999999999432
                },
                {
                    "name": "G#4",
                    "midi": 68,
                    "time": 96.30000000000028,
                    "velocity": 0.31496062992125984,
                    "duration": 0.07500000000000284
                },
                {
                    "name": "G#4",
                    "midi": 68,
                    "time": 96.40000000000029,
                    "velocity": 0.3779527559055118,
                    "duration": 0.09999999999999432
                },
                {
                    "name": "C#5",
                    "midi": 73,
                    "time": 96.50000000000028,
                    "velocity": 0.31496062992125984,
                    "duration": 0.09999999999999432
                },
                {
                    "name": "G#4",
                    "midi": 68,
                    "time": 96.60000000000028,
                    "velocity": 0.3779527559055118,
                    "duration": 0.09999999999999432
                },
                {
                    "name": "F4",
                    "midi": 65,
                    "time": 96.70000000000027,
                    "velocity": 0.31496062992125984,
                    "duration": 0.09999999999999432
                },
                {
                    "name": "G#4",
                    "midi": 68,
                    "time": 96.80000000000027,
                    "velocity": 0.3779527559055118,
                    "duration": 0.20000000000000284
                },
                {
                    "name": "D#5",
                    "midi": 75,
                    "time": 97.20000000000027,
                    "velocity": 0.3779527559055118,
                    "duration": 0.09999999999999432
                },
                {
                    "name": "G5",
                    "midi": 79,
                    "time": 97.30000000000027,
                    "velocity": 0.31496062992125984,
                    "duration": 0.09999999999999432
                },
                {
                    "name": "D#5",
                    "midi": 75,
                    "time": 97.40000000000026,
                    "velocity": 0.3779527559055118,
                    "duration": 0.09999999999999432
                },
                {
                    "name": "A#4",
                    "midi": 70,
                    "time": 97.50000000000026,
                    "velocity": 0.31496062992125984,
                    "duration": 0.07500000000000284
                },
                {
                    "name": "A#4",
                    "midi": 70,
                    "time": 97.60000000000026,
                    "velocity": 0.3779527559055118,
                    "duration": 0.09999999999999432
                },
                {
                    "name": "D#5",
                    "midi": 75,
                    "time": 97.70000000000026,
                    "velocity": 0.31496062992125984,
                    "duration": 0.09999999999999432
                },
                {
                    "name": "A#4",
                    "midi": 70,
                    "time": 97.80000000000025,
                    "velocity": 0.3779527559055118,
                    "duration": 0.09999999999999432
                },
                {
                    "name": "G4",
                    "midi": 67,
                    "time": 97.90000000000025,
                    "velocity": 0.31496062992125984,
                    "duration": 0.09999999999999432
                },
                {
                    "name": "A#4",
                    "midi": 70,
                    "time": 98.00000000000024,
                    "velocity": 0.3779527559055118,
                    "duration": 0.20000000000000284
                },
                {
                    "name": "D#5",
                    "midi": 75,
                    "time": 98.40000000000025,
                    "velocity": 0.3779527559055118,
                    "duration": 0.09999999999999432
                },
                {
                    "name": "G#5",
                    "midi": 80,
                    "time": 98.50000000000024,
                    "velocity": 0.31496062992125984,
                    "duration": 0.09999999999999432
                },
                {
                    "name": "D#5",
                    "midi": 75,
                    "time": 98.60000000000024,
                    "velocity": 0.3779527559055118,
                    "duration": 0.09999999999999432
                },
                {
                    "name": "C5",
                    "midi": 72,
                    "time": 98.70000000000023,
                    "velocity": 0.31496062992125984,
                    "duration": 0.07500000000000284
                },
                {
                    "name": "C5",
                    "midi": 72,
                    "time": 98.80000000000024,
                    "velocity": 0.3779527559055118,
                    "duration": 0.09999999999999432
                },
                {
                    "name": "D#5",
                    "midi": 75,
                    "time": 98.90000000000023,
                    "velocity": 0.31496062992125984,
                    "duration": 0.09999999999999432
                },
                {
                    "name": "C5",
                    "midi": 72,
                    "time": 99.00000000000023,
                    "velocity": 0.3779527559055118,
                    "duration": 0.09999999999999432
                },
                {
                    "name": "G#4",
                    "midi": 68,
                    "time": 99.10000000000022,
                    "velocity": 0.31496062992125984,
                    "duration": 0.09999999999999432
                },
                {
                    "name": "C5",
                    "midi": 72,
                    "time": 99.20000000000022,
                    "velocity": 0.3779527559055118,
                    "duration": 0.20000000000000284
                },
                {
                    "name": "C6",
                    "midi": 84,
                    "time": 99.60000000000022,
                    "velocity": 0.5039370078740157,
                    "duration": 0.09999999999999432
                },
                {
                    "name": "D#6",
                    "midi": 87,
                    "time": 99.70000000000022,
                    "velocity": 0.4251968503937008,
                    "duration": 0.09999999999999432
                },
                {
                    "name": "C6",
                    "midi": 84,
                    "time": 99.80000000000021,
                    "velocity": 0.5039370078740157,
                    "duration": 0.09999999999999432
                },
                {
                    "name": "G#5",
                    "midi": 80,
                    "time": 99.9000000000002,
                    "velocity": 0.4251968503937008,
                    "duration": 0.07500000000000284
                },
                {
                    "name": "G#5",
                    "midi": 80,
                    "time": 100.00000000000021,
                    "velocity": 0.5039370078740157,
                    "duration": 0.09999999999999432
                },
                {
                    "name": "C6",
                    "midi": 84,
                    "time": 100.10000000000021,
                    "velocity": 0.4251968503937008,
                    "duration": 0.09999999999999432
                },
                {
                    "name": "G#5",
                    "midi": 80,
                    "time": 100.2000000000002,
                    "velocity": 0.5039370078740157,
                    "duration": 0.09999999999999432
                },
                {
                    "name": "D#5",
                    "midi": 75,
                    "time": 100.3000000000002,
                    "velocity": 0.4251968503937008,
                    "duration": 0.09999999999999432
                },
                {
                    "name": "G#5",
                    "midi": 80,
                    "time": 100.40000000000019,
                    "velocity": 0.5039370078740157,
                    "duration": 0.20000000000000284
                },
                {
                    "name": "C#6",
                    "midi": 85,
                    "time": 100.8000000000002,
                    "velocity": 0.5669291338582677,
                    "duration": 0.09999999999999432
                },
                {
                    "name": "F6",
                    "midi": 89,
                    "time": 100.90000000000019,
                    "velocity": 0.48031496062992124,
                    "duration": 0.09999999999999432
                },
                {
                    "name": "C#6",
                    "midi": 85,
                    "time": 101.00000000000018,
                    "velocity": 0.5669291338582677,
                    "duration": 0.09999999999999432
                },
                {
                    "name": "G#5",
                    "midi": 80,
                    "time": 101.10000000000018,
                    "velocity": 0.48031496062992124,
                    "duration": 0.07500000000000284
                },
                {
                    "name": "G#5",
                    "midi": 80,
                    "time": 101.20000000000019,
                    "velocity": 0.5669291338582677,
                    "duration": 0.09999999999999432
                },
                {
                    "name": "C#6",
                    "midi": 85,
                    "time": 101.30000000000018,
                    "velocity": 0.48031496062992124,
                    "duration": 0.09999999999999432
                },
                {
                    "name": "G#5",
                    "midi": 80,
                    "time": 101.40000000000018,
                    "velocity": 0.5669291338582677,
                    "duration": 0.09999999999999432
                },
                {
                    "name": "F5",
                    "midi": 77,
                    "time": 101.50000000000017,
                    "velocity": 0.48031496062992124,
                    "duration": 0.09999999999999432
                },
                {
                    "name": "G#5",
                    "midi": 80,
                    "time": 101.60000000000016,
                    "velocity": 0.5669291338582677,
                    "duration": 0.20000000000000284
                },
                {
                    "name": "D#6",
                    "midi": 87,
                    "time": 102.00000000000017,
                    "velocity": 0.6614173228346457,
                    "duration": 0.09999999999999432
                },
                {
                    "name": "G6",
                    "midi": 91,
                    "time": 102.10000000000016,
                    "velocity": 0.5590551181102362,
                    "duration": 0.09999999999999432
                },
                {
                    "name": "D#6",
                    "midi": 87,
                    "time": 102.20000000000016,
                    "velocity": 0.6614173228346457,
                    "duration": 0.09999999999999432
                },
                {
                    "name": "A#5",
                    "midi": 82,
                    "time": 102.30000000000015,
                    "velocity": 0.5590551181102362,
                    "duration": 0.07500000000000284
                },
                {
                    "name": "A#5",
                    "midi": 82,
                    "time": 102.40000000000016,
                    "velocity": 0.6614173228346457,
                    "duration": 0.09999999999999432
                },
                {
                    "name": "D#6",
                    "midi": 87,
                    "time": 102.50000000000016,
                    "velocity": 0.5590551181102362,
                    "duration": 0.09999999999999432
                },
                {
                    "name": "A#5",
                    "midi": 82,
                    "time": 102.60000000000015,
                    "velocity": 0.6614173228346457,
                    "duration": 0.09999999999999432
                },
                {
                    "name": "G5",
                    "midi": 79,
                    "time": 102.70000000000014,
                    "velocity": 0.5590551181102362,
                    "duration": 0.09999999999999432
                },
                {
                    "name": "A#5",
                    "midi": 82,
                    "time": 102.80000000000014,
                    "velocity": 0.6614173228346457,
                    "duration": 0.20000000000000284
                },
                {
                    "name": "D#6",
                    "midi": 87,
                    "time": 103.20000000000014,
                    "velocity": 0.7165354330708661,
                    "duration": 0.09999999999999432
                },
                {
                    "name": "G#6",
                    "midi": 92,
                    "time": 103.30000000000014,
                    "velocity": 0.5984251968503937,
                    "duration": 0.09999999999999432
                },
                {
                    "name": "D#6",
                    "midi": 87,
                    "time": 103.40000000000013,
                    "velocity": 0.7165354330708661,
                    "duration": 0.09999999999999432
                },
                {
                    "name": "C6",
                    "midi": 84,
                    "time": 103.50000000000013,
                    "velocity": 0.5984251968503937,
                    "duration": 0.07500000000000284
                },
                {
                    "name": "C6",
                    "midi": 84,
                    "time": 103.60000000000014,
                    "velocity": 0.7165354330708661,
                    "duration": 0.09999999999999432
                },
                {
                    "name": "D#6",
                    "midi": 87,
                    "time": 103.70000000000013,
                    "velocity": 0.5984251968503937,
                    "duration": 0.09999999999999432
                },
                {
                    "name": "C6",
                    "midi": 84,
                    "time": 103.80000000000013,
                    "velocity": 0.7165354330708661,
                    "duration": 0.09999999999999432
                },
                {
                    "name": "G#5",
                    "midi": 80,
                    "time": 103.90000000000012,
                    "velocity": 0.5984251968503937,
                    "duration": 0.09999999999999432
                },
                {
                    "name": "C6",
                    "midi": 84,
                    "time": 104.00000000000011,
                    "velocity": 0.7165354330708661,
                    "duration": 0.20000000000000284
                },
                {
                    "name": "C5",
                    "midi": 72,
                    "time": 104.40000000000012,
                    "velocity": 0.3779527559055118,
                    "duration": 0.09999999999999432
                },
                {
                    "name": "D#5",
                    "midi": 75,
                    "time": 104.50000000000011,
                    "velocity": 0.31496062992125984,
                    "duration": 0.09999999999999432
                },
                {
                    "name": "C5",
                    "midi": 72,
                    "time": 104.60000000000011,
                    "velocity": 0.3779527559055118,
                    "duration": 0.09999999999999432
                },
                {
                    "name": "G#4",
                    "midi": 68,
                    "time": 104.7000000000001,
                    "velocity": 0.31496062992125984,
                    "duration": 0.07500000000000284
                },
                {
                    "name": "G#4",
                    "midi": 68,
                    "time": 104.80000000000011,
                    "velocity": 0.3779527559055118,
                    "duration": 0.09999999999999432
                },
                {
                    "name": "C5",
                    "midi": 72,
                    "time": 104.9000000000001,
                    "velocity": 0.31496062992125984,
                    "duration": 0.09999999999999432
                },
                {
                    "name": "G#4",
                    "midi": 68,
                    "time": 105.0000000000001,
                    "velocity": 0.3779527559055118,
                    "duration": 0.09999999999999432
                },
                {
                    "name": "D#4",
                    "midi": 63,
                    "time": 105.1000000000001,
                    "velocity": 0.31496062992125984,
                    "duration": 0.09999999999999432
                },
                {
                    "name": "G#4",
                    "midi": 68,
                    "time": 105.20000000000009,
                    "velocity": 0.3779527559055118,
                    "duration": 0.20000000000000284
                },
                {
                    "name": "C#5",
                    "midi": 73,
                    "time": 105.6000000000001,
                    "velocity": 0.3779527559055118,
                    "duration": 0.09999999999999432
                },
                {
                    "name": "F5",
                    "midi": 77,
                    "time": 105.70000000000009,
                    "velocity": 0.31496062992125984,
                    "duration": 0.09999999999999432
                },
                {
                    "name": "C#5",
                    "midi": 73,
                    "time": 105.80000000000008,
                    "velocity": 0.3779527559055118,
                    "duration": 0.09999999999999432
                },
                {
                    "name": "G#4",
                    "midi": 68,
                    "time": 105.90000000000008,
                    "velocity": 0.31496062992125984,
                    "duration": 0.07500000000000284
                },
                {
                    "name": "G#4",
                    "midi": 68,
                    "time": 106.00000000000009,
                    "velocity": 0.3779527559055118,
                    "duration": 0.09999999999999432
                },
                {
                    "name": "C#5",
                    "midi": 73,
                    "time": 106.10000000000008,
                    "velocity": 0.31496062992125984,
                    "duration": 0.09999999999999432
                },
                {
                    "name": "G#4",
                    "midi": 68,
                    "time": 106.20000000000007,
                    "velocity": 0.3779527559055118,
                    "duration": 0.09999999999999432
                },
                {
                    "name": "F4",
                    "midi": 65,
                    "time": 106.30000000000007,
                    "velocity": 0.31496062992125984,
                    "duration": 0.09999999999999432
                },
                {
                    "name": "G#4",
                    "midi": 68,
                    "time": 106.40000000000006,
                    "velocity": 0.3779527559055118,
                    "duration": 0.20000000000000284
                },
                {
                    "name": "D#5",
                    "midi": 75,
                    "time": 106.80000000000007,
                    "velocity": 0.3779527559055118,
                    "duration": 0.09999999999999432
                },
                {
                    "name": "G5",
                    "midi": 79,
                    "time": 106.90000000000006,
                    "velocity": 0.31496062992125984,
                    "duration": 0.09999999999999432
                },
                {
                    "name": "D#5",
                    "midi": 75,
                    "time": 107.00000000000006,
                    "velocity": 0.3779527559055118,
                    "duration": 0.09999999999999432
                },
                {
                    "name": "A#4",
                    "midi": 70,
                    "time": 107.10000000000005,
                    "velocity": 0.31496062992125984,
                    "duration": 0.07500000000000284
                },
                {
                    "name": "A#4",
                    "midi": 70,
                    "time": 107.20000000000006,
                    "velocity": 0.3779527559055118,
                    "duration": 0.09999999999999432
                },
                {
                    "name": "D#5",
                    "midi": 75,
                    "time": 107.30000000000005,
                    "velocity": 0.31496062992125984,
                    "duration": 0.09999999999999432
                },
                {
                    "name": "A#4",
                    "midi": 70,
                    "time": 107.40000000000005,
                    "velocity": 0.3779527559055118,
                    "duration": 0.09999999999999432
                },
                {
                    "name": "G4",
                    "midi": 67,
                    "time": 107.50000000000004,
                    "velocity": 0.31496062992125984,
                    "duration": 0.09999999999999432
                },
                {
                    "name": "A#4",
                    "midi": 70,
                    "time": 107.60000000000004,
                    "velocity": 0.3779527559055118,
                    "duration": 0.20000000000000284
                },
                {
                    "name": "D#5",
                    "midi": 75,
                    "time": 108.00000000000004,
                    "velocity": 0.3779527559055118,
                    "duration": 0.09999999999999432
                },
                {
                    "name": "G#5",
                    "midi": 80,
                    "time": 108.10000000000004,
                    "velocity": 0.31496062992125984,
                    "duration": 0.09999999999999432
                },
                {
                    "name": "D#5",
                    "midi": 75,
                    "time": 108.20000000000003,
                    "velocity": 0.3779527559055118,
                    "duration": 0.09999999999999432
                },
                {
                    "name": "C5",
                    "midi": 72,
                    "time": 108.30000000000003,
                    "velocity": 0.31496062992125984,
                    "duration": 0.07500000000000284
                },
                {
                    "name": "C5",
                    "midi": 72,
                    "time": 108.40000000000003,
                    "velocity": 0.3779527559055118,
                    "duration": 0.09999999999999432
                },
                {
                    "name": "D#5",
                    "midi": 75,
                    "time": 108.50000000000003,
                    "velocity": 0.31496062992125984,
                    "duration": 0.09999999999999432
                },
                {
                    "name": "C5",
                    "midi": 72,
                    "time": 108.60000000000002,
                    "velocity": 0.3779527559055118,
                    "duration": 0.09999999999999432
                },
                {
                    "name": "G#4",
                    "midi": 68,
                    "time": 108.70000000000002,
                    "velocity": 0.31496062992125984,
                    "duration": 0.09999999999999432
                },
                {
                    "name": "C5",
                    "midi": 72,
                    "time": 108.80000000000001,
                    "velocity": 0.3779527559055118,
                    "duration": 0.20000000000000284
                },
                {
                    "name": "C6",
                    "midi": 84,
                    "time": 109.20000000000002,
                    "velocity": 0.5354330708661418,
                    "duration": 0.09999999999999432
                },
                {
                    "name": "D#6",
                    "midi": 87,
                    "time": 109.30000000000001,
                    "velocity": 0.44881889763779526,
                    "duration": 0.09999999999999432
                },
                {
                    "name": "C6",
                    "midi": 84,
                    "time": 109.4,
                    "velocity": 0.5354330708661418,
                    "duration": 0.09999999999999432
                },
                {
                    "name": "G#5",
                    "midi": 80,
                    "time": 109.5,
                    "velocity": 0.44881889763779526,
                    "duration": 0.07500000000000284
                },
                {
                    "name": "G#5",
                    "midi": 80,
                    "time": 109.60000000000001,
                    "velocity": 0.5354330708661418,
                    "duration": 0.09999999999999432
                },
                {
                    "name": "C6",
                    "midi": 84,
                    "time": 109.7,
                    "velocity": 0.44881889763779526,
                    "duration": 0.09999999999999432
                },
                {
                    "name": "G#5",
                    "midi": 80,
                    "time": 109.8,
                    "velocity": 0.5354330708661418,
                    "duration": 0.09999999999999432
                },
                {
                    "name": "D#5",
                    "midi": 75,
                    "time": 109.89999999999999,
                    "velocity": 0.44881889763779526,
                    "duration": 0.09999999999999432
                },
                {
                    "name": "G#5",
                    "midi": 80,
                    "time": 109.99999999999999,
                    "velocity": 0.5354330708661418,
                    "duration": 0.20000000000000284
                },
                {
                    "name": "C#6",
                    "midi": 85,
                    "time": 110.39999999999999,
                    "velocity": 0.5354330708661418,
                    "duration": 0.09999999999999432
                },
                {
                    "name": "F6",
                    "midi": 89,
                    "time": 110.49999999999999,
                    "velocity": 0.44881889763779526,
                    "duration": 0.09999999999999432
                },
                {
                    "name": "C#6",
                    "midi": 85,
                    "time": 110.59999999999998,
                    "velocity": 0.5354330708661418,
                    "duration": 0.09999999999999432
                },
                {
                    "name": "G#5",
                    "midi": 80,
                    "time": 110.69999999999997,
                    "velocity": 0.44881889763779526,
                    "duration": 0.07500000000000284
                },
                {
                    "name": "G#5",
                    "midi": 80,
                    "time": 110.79999999999998,
                    "velocity": 0.5354330708661418,
                    "duration": 0.09999999999999432
                },
                {
                    "name": "C#6",
                    "midi": 85,
                    "time": 110.89999999999998,
                    "velocity": 0.44881889763779526,
                    "duration": 0.09999999999999432
                },
                {
                    "name": "G#5",
                    "midi": 80,
                    "time": 110.99999999999997,
                    "velocity": 0.5354330708661418,
                    "duration": 0.09999999999999432
                },
                {
                    "name": "F5",
                    "midi": 77,
                    "time": 111.09999999999997,
                    "velocity": 0.44881889763779526,
                    "duration": 0.09999999999999432
                },
                {
                    "name": "G#5",
                    "midi": 80,
                    "time": 111.19999999999996,
                    "velocity": 0.5354330708661418,
                    "duration": 0.20000000000000284
                },
                {
                    "name": "D#6",
                    "midi": 87,
                    "time": 111.59999999999997,
                    "velocity": 0.5354330708661418,
                    "duration": 0.09999999999999432
                },
                {
                    "name": "G6",
                    "midi": 91,
                    "time": 111.69999999999996,
                    "velocity": 0.44881889763779526,
                    "duration": 0.09999999999999432
                },
                {
                    "name": "D#6",
                    "midi": 87,
                    "time": 111.79999999999995,
                    "velocity": 0.5354330708661418,
                    "duration": 0.09999999999999432
                },
                {
                    "name": "A#5",
                    "midi": 82,
                    "time": 111.89999999999995,
                    "velocity": 0.44881889763779526,
                    "duration": 0.07500000000000284
                },
                {
                    "name": "A#5",
                    "midi": 82,
                    "time": 111.99999999999996,
                    "velocity": 0.5354330708661418,
                    "duration": 0.09999999999999432
                },
                {
                    "name": "D#6",
                    "midi": 87,
                    "time": 112.09999999999995,
                    "velocity": 0.44881889763779526,
                    "duration": 0.09999999999999432
                },
                {
                    "name": "A#5",
                    "midi": 82,
                    "time": 112.19999999999995,
                    "velocity": 0.5354330708661418,
                    "duration": 0.09999999999999432
                },
                {
                    "name": "G5",
                    "midi": 79,
                    "time": 112.29999999999994,
                    "velocity": 0.44881889763779526,
                    "duration": 0.09999999999999432
                },
                {
                    "name": "A#5",
                    "midi": 82,
                    "time": 112.39999999999993,
                    "velocity": 0.5354330708661418,
                    "duration": 0.20000000000000284
                },
                {
                    "name": "D#6",
                    "midi": 87,
                    "time": 112.79999999999994,
                    "velocity": 0.6299212598425197,
                    "duration": 0.09999999999999432
                },
                {
                    "name": "G#6",
                    "midi": 92,
                    "time": 112.89999999999993,
                    "velocity": 0.5354330708661418,
                    "duration": 0.09999999999999432
                },
                {
                    "name": "D#6",
                    "midi": 87,
                    "time": 112.99999999999993,
                    "velocity": 0.6299212598425197,
                    "duration": 0.09999999999999432
                },
                {
                    "name": "C6",
                    "midi": 84,
                    "time": 113.09999999999992,
                    "velocity": 0.5354330708661418,
                    "duration": 0.07500000000000284
                },
                {
                    "name": "C6",
                    "midi": 84,
                    "time": 113.19999999999993,
                    "velocity": 0.6299212598425197,
                    "duration": 0.09999999999999432
                },
                {
                    "name": "D#6",
                    "midi": 87,
                    "time": 113.29999999999993,
                    "velocity": 0.5354330708661418,
                    "duration": 0.09999999999999432
                },
                {
                    "name": "C6",
                    "midi": 84,
                    "time": 113.39999999999992,
                    "velocity": 0.6299212598425197,
                    "duration": 0.09999999999999432
                },
                {
                    "name": "G#5",
                    "midi": 80,
                    "time": 113.49999999999991,
                    "velocity": 0.5354330708661418,
                    "duration": 0.09999999999999432
                },
                {
                    "name": "C6",
                    "midi": 84,
                    "time": 113.59999999999991,
                    "velocity": 0.6299212598425197,
                    "duration": 0.20000000000000284
                },
                {
                    "name": "D#6",
                    "midi": 87,
                    "time": 113.99999999999991,
                    "velocity": 0.6614173228346457,
                    "duration": 0.09999999999999432
                },
                {
                    "name": "G6",
                    "midi": 91,
                    "time": 114.09999999999991,
                    "velocity": 0.5590551181102362,
                    "duration": 0.09999999999999432
                },
                {
                    "name": "D#6",
                    "midi": 87,
                    "time": 114.1999999999999,
                    "velocity": 0.6614173228346457,
                    "duration": 0.09999999999999432
                },
                {
                    "name": "A#5",
                    "midi": 82,
                    "time": 114.2999999999999,
                    "velocity": 0.5590551181102362,
                    "duration": 0.07500000000000284
                },
                {
                    "name": "A#5",
                    "midi": 82,
                    "time": 114.3999999999999,
                    "velocity": 0.6614173228346457,
                    "duration": 0.09999999999999432
                },
                {
                    "name": "D#6",
                    "midi": 87,
                    "time": 114.4999999999999,
                    "velocity": 0.5590551181102362,
                    "duration": 0.09999999999999432
                },
                {
                    "name": "A#5",
                    "midi": 82,
                    "time": 114.5999999999999,
                    "velocity": 0.6614173228346457,
                    "duration": 0.09999999999999432
                },
                {
                    "name": "G5",
                    "midi": 79,
                    "time": 114.69999999999989,
                    "velocity": 0.5590551181102362,
                    "duration": 0.09999999999999432
                },
                {
                    "name": "A#5",
                    "midi": 82,
                    "time": 114.79999999999988,
                    "velocity": 0.6614173228346457,
                    "duration": 0.20000000000000284
                },
                {
                    "name": "D#6",
                    "midi": 87,
                    "time": 115.19999999999989,
                    "velocity": 0.7086614173228346,
                    "duration": 0.09999999999999432
                },
                {
                    "name": "G#6",
                    "midi": 92,
                    "time": 115.29999999999988,
                    "velocity": 0.5984251968503937,
                    "duration": 0.09999999999999432
                },
                {
                    "name": "D#6",
                    "midi": 87,
                    "time": 115.39999999999988,
                    "velocity": 0.7086614173228346,
                    "duration": 0.09999999999999432
                },
                {
                    "name": "C6",
                    "midi": 84,
                    "time": 115.49999999999987,
                    "velocity": 0.5984251968503937,
                    "duration": 0.07500000000000284
                },
                {
                    "name": "C6",
                    "midi": 84,
                    "time": 115.59999999999988,
                    "velocity": 0.7086614173228346,
                    "duration": 0.09999999999999432
                },
                {
                    "name": "D#6",
                    "midi": 87,
                    "time": 115.69999999999987,
                    "velocity": 0.5984251968503937,
                    "duration": 0.09999999999999432
                },
                {
                    "name": "C6",
                    "midi": 84,
                    "time": 115.79999999999987,
                    "velocity": 0.7086614173228346,
                    "duration": 0.09999999999999432
                },
                {
                    "name": "G#5",
                    "midi": 80,
                    "time": 115.89999999999986,
                    "velocity": 0.5984251968503937,
                    "duration": 0.09999999999999432
                },
                {
                    "name": "C6",
                    "midi": 84,
                    "time": 115.99999999999986,
                    "velocity": 0.7086614173228346,
                    "duration": 0.20000000000000284
                },
                {
                    "name": "D#6",
                    "midi": 87,
                    "time": 116.39999999999986,
                    "velocity": 0.7559055118110236,
                    "duration": 0.09999999999999432
                },
                {
                    "name": "G6",
                    "midi": 91,
                    "time": 116.49999999999986,
                    "velocity": 0.6377952755905512,
                    "duration": 0.09999999999999432
                },
                {
                    "name": "D#6",
                    "midi": 87,
                    "time": 116.59999999999985,
                    "velocity": 0.7559055118110236,
                    "duration": 0.09999999999999432
                },
                {
                    "name": "A#5",
                    "midi": 82,
                    "time": 116.69999999999985,
                    "velocity": 0.6377952755905512,
                    "duration": 0.07500000000000284
                },
                {
                    "name": "A#5",
                    "midi": 82,
                    "time": 116.79999999999986,
                    "velocity": 0.7559055118110236,
                    "duration": 0.09999999999999432
                },
                {
                    "name": "D#6",
                    "midi": 87,
                    "time": 116.89999999999985,
                    "velocity": 0.6377952755905512,
                    "duration": 0.09999999999999432
                },
                {
                    "name": "A#5",
                    "midi": 82,
                    "time": 116.99999999999984,
                    "velocity": 0.7559055118110236,
                    "duration": 0.09999999999999432
                },
                {
                    "name": "G5",
                    "midi": 79,
                    "time": 117.09999999999984,
                    "velocity": 0.6377952755905512,
                    "duration": 0.09999999999999432
                },
                {
                    "name": "A#5",
                    "midi": 82,
                    "time": 117.19999999999983,
                    "velocity": 0.7559055118110236,
                    "duration": 0.20000000000000284
                },
                {
                    "name": "D#6",
                    "midi": 87,
                    "time": 117.59999999999984,
                    "velocity": 0.7559055118110236,
                    "duration": 0.09999999999999432
                },
                {
                    "name": "G#6",
                    "midi": 92,
                    "time": 117.69999999999983,
                    "velocity": 0.6377952755905512,
                    "duration": 0.09999999999999432
                },
                {
                    "name": "D#6",
                    "midi": 87,
                    "time": 117.79999999999983,
                    "velocity": 0.7559055118110236,
                    "duration": 0.09999999999999432
                },
                {
                    "name": "C6",
                    "midi": 84,
                    "time": 117.89999999999982,
                    "velocity": 0.6377952755905512,
                    "duration": 0.07500000000000284
                },
                {
                    "name": "C6",
                    "midi": 84,
                    "time": 117.99999999999983,
                    "velocity": 0.7559055118110236,
                    "duration": 0.09999999999999432
                },
                {
                    "name": "D#6",
                    "midi": 87,
                    "time": 118.09999999999982,
                    "velocity": 0.6377952755905512,
                    "duration": 0.09999999999999432
                },
                {
                    "name": "C6",
                    "midi": 84,
                    "time": 118.19999999999982,
                    "velocity": 0.7559055118110236,
                    "duration": 0.09999999999999432
                },
                {
                    "name": "G#5",
                    "midi": 80,
                    "time": 118.29999999999981,
                    "velocity": 0.6377952755905512,
                    "duration": 0.07500000000000284
                },
                {
                    "name": "G#5",
                    "midi": 80,
                    "time": 118.39999999999982,
                    "velocity": 0.7559055118110236,
                    "duration": 0.09999999999999432
                },
                {
                    "name": "C6",
                    "midi": 84,
                    "time": 118.49999999999982,
                    "velocity": 0.6377952755905512,
                    "duration": 0.09999999999999432
                },
                {
                    "name": "G#5",
                    "midi": 80,
                    "time": 118.59999999999981,
                    "velocity": 0.7559055118110236,
                    "duration": 0.09999999999999432
                },
                {
                    "name": "D#5",
                    "midi": 75,
                    "time": 118.6999999999998,
                    "velocity": 0.6377952755905512,
                    "duration": 0.07500000000000284
                },
                {
                    "name": "D#5",
                    "midi": 75,
                    "time": 118.79999999999981,
                    "velocity": 0.7559055118110236,
                    "duration": 0.09999999999999432
                },
                {
                    "name": "G#5",
                    "midi": 80,
                    "time": 118.8999999999998,
                    "velocity": 0.6377952755905512,
                    "duration": 0.09999999999999432
                },
                {
                    "name": "D#5",
                    "midi": 75,
                    "time": 118.9999999999998,
                    "velocity": 0.7559055118110236,
                    "duration": 0.09999999999999432
                },
                {
                    "name": "C5",
                    "midi": 72,
                    "time": 119.0999999999998,
                    "velocity": 0.6377952755905512,
                    "duration": 0.07500000000000284
                },
                {
                    "name": "C5",
                    "midi": 72,
                    "time": 119.1999999999998,
                    "velocity": 0.7559055118110236,
                    "duration": 0.09999999999999432
                },
                {
                    "name": "D#5",
                    "midi": 75,
                    "time": 119.2999999999998,
                    "velocity": 0.6377952755905512,
                    "duration": 0.09999999999999432
                },
                {
                    "name": "C5",
                    "midi": 72,
                    "time": 119.39999999999979,
                    "velocity": 0.7559055118110236,
                    "duration": 0.09999999999999432
                },
                {
                    "name": "G#4",
                    "midi": 68,
                    "time": 119.49999999999979,
                    "velocity": 0.6377952755905512,
                    "duration": 0.07500000000000284
                },
                {
                    "name": "G#4",
                    "midi": 68,
                    "time": 119.5999999999998,
                    "velocity": 0.7559055118110236,
                    "duration": 0.09999999999999432
                },
                {
                    "name": "C5",
                    "midi": 72,
                    "time": 119.69999999999979,
                    "velocity": 0.6377952755905512,
                    "duration": 0.09999999999999432
                },
                {
                    "name": "G#4",
                    "midi": 68,
                    "time": 119.79999999999978,
                    "velocity": 0.7559055118110236,
                    "duration": 0.09999999999999432
                },
                {
                    "name": "D#4",
                    "midi": 63,
                    "time": 119.89999999999978,
                    "velocity": 0.6299212598425197,
                    "duration": 0.09999999999999432
                },
                {
                    "name": "D#5",
                    "midi": 75,
                    "time": 119.99999999999977,
                    "velocity": 0.7480314960629921,
                    "duration": 0.09999999999999432
                },
                {
                    "name": "G#5",
                    "midi": 80,
                    "time": 120.09999999999977,
                    "velocity": 0.6220472440944882,
                    "duration": 0.09999999999999432
                },
                {
                    "name": "D#5",
                    "midi": 75,
                    "time": 120.19999999999976,
                    "velocity": 0.7322834645669292,
                    "duration": 0.09999999999999432
                },
                {
                    "name": "C5",
                    "midi": 72,
                    "time": 120.29999999999976,
                    "velocity": 0.6062992125984252,
                    "duration": 0.07500000000000284
                },
                {
                    "name": "C5",
                    "midi": 72,
                    "time": 120.39999999999976,
                    "velocity": 0.7165354330708661,
                    "duration": 0.09999999999999432
                },
                {
                    "name": "D#5",
                    "midi": 75,
                    "time": 120.49999999999976,
                    "velocity": 0.5984251968503937,
                    "duration": 0.09999999999999432
                },
                {
                    "name": "C5",
                    "midi": 72,
                    "time": 120.59999999999975,
                    "velocity": 0.7007874015748031,
                    "duration": 0.09999999999999432
                },
                {
                    "name": "G#4",
                    "midi": 68,
                    "time": 120.69999999999975,
                    "velocity": 0.5905511811023622,
                    "duration": 0.07500000000000284
                },
                {
                    "name": "G#4",
                    "midi": 68,
                    "time": 120.79999999999976,
                    "velocity": 0.6850393700787402,
                    "duration": 0.09999999999999432
                },
                {
                    "name": "C5",
                    "midi": 72,
                    "time": 120.89999999999975,
                    "velocity": 0.5748031496062992,
                    "duration": 0.09999999999999432
                },
                {
                    "name": "G#4",
                    "midi": 68,
                    "time": 120.99999999999974,
                    "velocity": 0.6692913385826772,
                    "duration": 0.09999999999999432
                },
                {
                    "name": "D#4",
                    "midi": 63,
                    "time": 121.09999999999974,
                    "velocity": 0.5590551181102362,
                    "duration": 0.07500000000000284
                },
                {
                    "name": "D#4",
                    "midi": 63,
                    "time": 121.19999999999975,
                    "velocity": 0.6535433070866141,
                    "duration": 0.09999999999999432
                },
                {
                    "name": "G#4",
                    "midi": 68,
                    "time": 121.29999999999974,
                    "velocity": 0.5511811023622047,
                    "duration": 0.09999999999999432
                },
                {
                    "name": "D#4",
                    "midi": 63,
                    "time": 121.39999999999974,
                    "velocity": 0.6220472440944882,
                    "duration": 0.09999999999999432
                },
                {
                    "name": "C4",
                    "midi": 60,
                    "time": 121.49999999999973,
                    "velocity": 0.5354330708661418,
                    "duration": 0.07500000000000284
                },
                {
                    "name": "C4",
                    "midi": 60,
                    "time": 121.59999999999974,
                    "velocity": 0.6062992125984252,
                    "duration": 0.09999999999999432
                },
                {
                    "name": "D#4",
                    "midi": 63,
                    "time": 121.69999999999973,
                    "velocity": 0.5196850393700787,
                    "duration": 0.09999999999999432
                },
                {
                    "name": "C4",
                    "midi": 60,
                    "time": 121.79999999999973,
                    "velocity": 0.5905511811023622,
                    "duration": 0.09999999999999432
                },
                {
                    "name": "G#3",
                    "midi": 56,
                    "time": 121.89999999999972,
                    "velocity": 0.4881889763779528,
                    "duration": 0.09999999999999432
                },
                {
                    "name": "D#4",
                    "midi": 63,
                    "time": 121.99999999999972,
                    "velocity": 0.5511811023622047,
                    "duration": 0.09999999999999432
                },
                {
                    "name": "G#4",
                    "midi": 68,
                    "time": 122.09999999999971,
                    "velocity": 0.44881889763779526,
                    "duration": 0.09999999999999432
                },
                {
                    "name": "D#4",
                    "midi": 63,
                    "time": 122.1999999999997,
                    "velocity": 0.5118110236220472,
                    "duration": 0.09999999999999432
                },
                {
                    "name": "C4",
                    "midi": 60,
                    "time": 122.2999999999997,
                    "velocity": 0.41732283464566927,
                    "duration": 0.09999999999999432
                },
                {
                    "name": "G#3",
                    "midi": 56,
                    "time": 122.3999999999997,
                    "velocity": 0.47244094488188976,
                    "duration": 0.09999999999999432
                },
                {
                    "name": "C4",
                    "midi": 60,
                    "time": 122.49999999999969,
                    "velocity": 0.4015748031496063,
                    "duration": 0.09999999999999432
                },
                {
                    "name": "G#3",
                    "midi": 56,
                    "time": 122.59999999999968,
                    "velocity": 0.47244094488188976,
                    "duration": 0.09999999999999432
                },
                {
                    "name": "D#3",
                    "midi": 51,
                    "time": 122.69999999999968,
                    "velocity": 0.4015748031496063,
                    "duration": 0.09999999999999432
                },
                {
                    "name": "G#3",
                    "midi": 56,
                    "time": 122.79999999999967,
                    "velocity": 0.47244094488188976,
                    "duration": 0.09999999999999432
                },
                {
                    "name": "C4",
                    "midi": 60,
                    "time": 122.89999999999966,
                    "velocity": 0.4015748031496063,
                    "duration": 0.09999999999999432
                },
                {
                    "name": "G#3",
                    "midi": 56,
                    "time": 122.99999999999966,
                    "velocity": 0.47244094488188976,
                    "duration": 0.09999999999999432
                },
                {
                    "name": "D#3",
                    "midi": 51,
                    "time": 123.09999999999965,
                    "velocity": 0.4015748031496063,
                    "duration": 0.09999999999999432
                },
                {
                    "name": "G#3",
                    "midi": 56,
                    "time": 123.19999999999965,
                    "velocity": 0.47244094488188976,
                    "duration": 0.09999999999999432
                },
                {
                    "name": "C4",
                    "midi": 60,
                    "time": 123.29999999999964,
                    "velocity": 0.4015748031496063,
                    "duration": 0.09999999999999432
                },
                {
                    "name": "G#3",
                    "midi": 56,
                    "time": 123.39999999999964,
                    "velocity": 0.47244094488188976,
                    "duration": 0.09999999999999432
                },
                {
                    "name": "D#3",
                    "midi": 51,
                    "time": 123.49999999999963,
                    "velocity": 0.4015748031496063,
                    "duration": 0.09999999999999432
                },
                {
                    "name": "G#3",
                    "midi": 56,
                    "time": 123.59999999999962,
                    "velocity": 0.47244094488188976,
                    "duration": 0.09999999999999432
                },
                {
                    "name": "C4",
                    "midi": 60,
                    "time": 123.69999999999962,
                    "velocity": 0.4015748031496063,
                    "duration": 0.09999999999999432
                },
                {
                    "name": "G#3",
                    "midi": 56,
                    "time": 123.79999999999961,
                    "velocity": 0.47244094488188976,
                    "duration": 0.09999999999999432
                },
                {
                    "name": "D#3",
                    "midi": 51,
                    "time": 123.89999999999961,
                    "velocity": 0.4015748031496063,
                    "duration": 0.09999999999999432
                },
                {
                    "name": "G#3",
                    "midi": 56,
                    "time": 123.9999999999996,
                    "velocity": 0.47244094488188976,
                    "duration": 0.09999999999999432
                },
                {
                    "name": "C4",
                    "midi": 60,
                    "time": 124.0999999999996,
                    "velocity": 0.4015748031496063,
                    "duration": 0.09999999999999432
                },
                {
                    "name": "G#3",
                    "midi": 56,
                    "time": 124.19999999999959,
                    "velocity": 0.47244094488188976,
                    "duration": 0.09999999999999432
                },
                {
                    "name": "D#3",
                    "midi": 51,
                    "time": 124.29999999999959,
                    "velocity": 0.4015748031496063,
                    "duration": 0.09999999999999432
                },
                {
                    "name": "G#3",
                    "midi": 56,
                    "time": 124.39999999999958,
                    "velocity": 0.47244094488188976,
                    "duration": 0.09999999999999432
                },
                {
                    "name": "C4",
                    "midi": 60,
                    "time": 124.49999999999957,
                    "velocity": 0.4015748031496063,
                    "duration": 0.09999999999999432
                },
                {
                    "name": "G#3",
                    "midi": 56,
                    "time": 124.59999999999957,
                    "velocity": 0.47244094488188976,
                    "duration": 0.09999999999999432
                },
                {
                    "name": "D#3",
                    "midi": 51,
                    "time": 124.69999999999956,
                    "velocity": 0.4015748031496063,
                    "duration": 0.09999999999999432
                },
                {
                    "name": "G#4",
                    "midi": 68,
                    "time": 124.79999999999956,
                    "velocity": 0.47244094488188976,
                    "duration": 2.3999999999998636
                },
                {
                    "name": "D#4",
                    "midi": 63,
                    "time": 124.79999999999956,
                    "velocity": 0.47244094488188976,
                    "duration": 0.09999999999999432
                },
                {
                    "name": "F#4",
                    "midi": 66,
                    "time": 124.89999999999955,
                    "velocity": 0.4015748031496063,
                    "duration": 0.09999999999999432
                },
                {
                    "name": "D#4",
                    "midi": 63,
                    "time": 124.99999999999955,
                    "velocity": 0.4645669291338583,
                    "duration": 0.09999999999999432
                },
                {
                    "name": "G#3",
                    "midi": 56,
                    "time": 125.09999999999954,
                    "velocity": 0.3858267716535433,
                    "duration": 0.09999999999999432
                },
                {
                    "name": "D#4",
                    "midi": 63,
                    "time": 125.19999999999953,
                    "velocity": 0.44881889763779526,
                    "duration": 0.09999999999999432
                },
                {
                    "name": "F#4",
                    "midi": 66,
                    "time": 125.29999999999953,
                    "velocity": 0.3700787401574803,
                    "duration": 0.09999999999999432
                },
                {
                    "name": "D#4",
                    "midi": 63,
                    "time": 125.39999999999952,
                    "velocity": 0.4330708661417323,
                    "duration": 0.09999999999999432
                },
                {
                    "name": "G#3",
                    "midi": 56,
                    "time": 125.49999999999952,
                    "velocity": 0.36220472440944884,
                    "duration": 0.09999999999999432
                },
                {
                    "name": "D#4",
                    "midi": 63,
                    "time": 125.59999999999951,
                    "velocity": 0.4251968503937008,
                    "duration": 0.09999999999999432
                },
                {
                    "name": "F#4",
                    "midi": 66,
                    "time": 125.6999999999995,
                    "velocity": 0.3543307086614173,
                    "duration": 0.09999999999999432
                },
                {
                    "name": "D#4",
                    "midi": 63,
                    "time": 125.7999999999995,
                    "velocity": 0.4094488188976378,
                    "duration": 0.09999999999999432
                },
                {
                    "name": "G#3",
                    "midi": 56,
                    "time": 125.8999999999995,
                    "velocity": 0.33858267716535434,
                    "duration": 0.09999999999999432
                },
                {
                    "name": "D#4",
                    "midi": 63,
                    "time": 125.99999999999949,
                    "velocity": 0.3937007874015748,
                    "duration": 0.09999999999999432
                },
                {
                    "name": "F#4",
                    "midi": 66,
                    "time": 126.09999999999948,
                    "velocity": 0.33070866141732286,
                    "duration": 0.09999999999999432
                },
                {
                    "name": "D#4",
                    "midi": 63,
                    "time": 126.19999999999948,
                    "velocity": 0.3858267716535433,
                    "duration": 0.09999999999999432
                },
                {
                    "name": "G#3",
                    "midi": 56,
                    "time": 126.29999999999947,
                    "velocity": 0.31496062992125984,
                    "duration": 0.09999999999999432
                },
                {
                    "name": "D#4",
                    "midi": 63,
                    "time": 126.39999999999947,
                    "velocity": 0.3700787401574803,
                    "duration": 0.09999999999999432
                },
                {
                    "name": "F#4",
                    "midi": 66,
                    "time": 126.49999999999946,
                    "velocity": 0.30708661417322836,
                    "duration": 0.09999999999999432
                },
                {
                    "name": "D#4",
                    "midi": 63,
                    "time": 126.59999999999945,
                    "velocity": 0.3543307086614173,
                    "duration": 0.09999999999999432
                },
                {
                    "name": "G#3",
                    "midi": 56,
                    "time": 126.69999999999945,
                    "velocity": 0.2992125984251969,
                    "duration": 0.09999999999999432
                },
                {
                    "name": "D#4",
                    "midi": 63,
                    "time": 126.79999999999944,
                    "velocity": 0.3464566929133858,
                    "duration": 0.09999999999999432
                },
                {
                    "name": "F#4",
                    "midi": 66,
                    "time": 126.89999999999944,
                    "velocity": 0.28346456692913385,
                    "duration": 0.09999999999999432
                },
                {
                    "name": "D#4",
                    "midi": 63,
                    "time": 126.99999999999943,
                    "velocity": 0.33070866141732286,
                    "duration": 0.09999999999999432
                },
                {
                    "name": "G#3",
                    "midi": 56,
                    "time": 127.09999999999943,
                    "velocity": 0.2677165354330709,
                    "duration": 0.09999999999999432
                },
                {
                    "name": "G#4",
                    "midi": 68,
                    "time": 127.19999999999942,
                    "velocity": 0.48031496062992124,
                    "duration": 1.1999999999999886
                },
                {
                    "name": "G#3",
                    "midi": 56,
                    "time": 127.39999999999942,
                    "velocity": 0.2125984251968504,
                    "duration": 0.18999999999999773
                },
                {
                    "name": "E4",
                    "midi": 64,
                    "time": 127.39999999999942,
                    "velocity": 0.2125984251968504,
                    "duration": 0.18999999999999773
                },
                {
                    "name": "G#3",
                    "midi": 56,
                    "time": 127.59999999999943,
                    "velocity": 0.2047244094488189,
                    "duration": 0.18999999999999773
                },
                {
                    "name": "E4",
                    "midi": 64,
                    "time": 127.59999999999943,
                    "velocity": 0.2047244094488189,
                    "duration": 0.18999999999999773
                },
                {
                    "name": "G#3",
                    "midi": 56,
                    "time": 127.79999999999943,
                    "velocity": 0.2047244094488189,
                    "duration": 0.18999999999999773
                },
                {
                    "name": "E4",
                    "midi": 64,
                    "time": 127.79999999999943,
                    "velocity": 0.2047244094488189,
                    "duration": 0.18999999999999773
                },
                {
                    "name": "G#3",
                    "midi": 56,
                    "time": 127.99999999999943,
                    "velocity": 0.2047244094488189,
                    "duration": 0.18999999999999773
                },
                {
                    "name": "E4",
                    "midi": 64,
                    "time": 127.99999999999943,
                    "velocity": 0.2047244094488189,
                    "duration": 0.18999999999999773
                },
                {
                    "name": "G#3",
                    "midi": 56,
                    "time": 128.19999999999942,
                    "velocity": 0.2047244094488189,
                    "duration": 0.18999999999999773
                },
                {
                    "name": "E4",
                    "midi": 64,
                    "time": 128.19999999999942,
                    "velocity": 0.2047244094488189,
                    "duration": 0.18999999999999773
                },
                {
                    "name": "G#4",
                    "midi": 68,
                    "time": 128.3999999999994,
                    "velocity": 0.48031496062992124,
                    "duration": 0.39999999999997726
                },
                {
                    "name": "G#3",
                    "midi": 56,
                    "time": 128.5999999999994,
                    "velocity": 0.2047244094488189,
                    "duration": 0.18999999999999773
                },
                {
                    "name": "E4",
                    "midi": 64,
                    "time": 128.5999999999994,
                    "velocity": 0.2047244094488189,
                    "duration": 0.19999999999998863
                },
                {
                    "name": "A4",
                    "midi": 69,
                    "time": 128.7999999999994,
                    "velocity": 0.4645669291338583,
                    "duration": 0.39999999999997726
                },
                {
                    "name": "A3",
                    "midi": 57,
                    "time": 128.99999999999937,
                    "velocity": 0.2125984251968504,
                    "duration": 0.18999999999999773
                },
                {
                    "name": "E4",
                    "midi": 64,
                    "time": 128.99999999999937,
                    "velocity": 0.2125984251968504,
                    "duration": 0.19999999999998863
                },
                {
                    "name": "G#4",
                    "midi": 68,
                    "time": 129.19999999999936,
                    "velocity": 0.4645669291338583,
                    "duration": 0.39999999999997726
                },
                {
                    "name": "G#3",
                    "midi": 56,
                    "time": 129.39999999999935,
                    "velocity": 0.2047244094488189,
                    "duration": 0.18999999999999773
                },
                {
                    "name": "E4",
                    "midi": 64,
                    "time": 129.39999999999935,
                    "velocity": 0.2047244094488189,
                    "duration": 0.19999999999998863
                },
                {
                    "name": "A4",
                    "midi": 69,
                    "time": 129.59999999999934,
                    "velocity": 0.47244094488188976,
                    "duration": 1.1999999999999318
                },
                {
                    "name": "A3",
                    "midi": 57,
                    "time": 129.79999999999933,
                    "velocity": 0.2047244094488189,
                    "duration": 0.18999999999999773
                },
                {
                    "name": "F#4",
                    "midi": 66,
                    "time": 129.79999999999933,
                    "velocity": 0.2047244094488189,
                    "duration": 0.18999999999999773
                },
                {
                    "name": "A3",
                    "midi": 57,
                    "time": 129.99999999999932,
                    "velocity": 0.2047244094488189,
                    "duration": 0.18999999999999773
                },
                {
                    "name": "F#4",
                    "midi": 66,
                    "time": 129.99999999999932,
                    "velocity": 0.2047244094488189,
                    "duration": 0.18999999999999773
                },
                {
                    "name": "A3",
                    "midi": 57,
                    "time": 130.1999999999993,
                    "velocity": 0.2047244094488189,
                    "duration": 0.18999999999999773
                },
                {
                    "name": "F#4",
                    "midi": 66,
                    "time": 130.1999999999993,
                    "velocity": 0.2047244094488189,
                    "duration": 0.18999999999999773
                },
                {
                    "name": "A3",
                    "midi": 57,
                    "time": 130.3999999999993,
                    "velocity": 0.2047244094488189,
                    "duration": 0.18999999999999773
                },
                {
                    "name": "F#4",
                    "midi": 66,
                    "time": 130.3999999999993,
                    "velocity": 0.2047244094488189,
                    "duration": 0.18999999999999773
                },
                {
                    "name": "A3",
                    "midi": 57,
                    "time": 130.59999999999928,
                    "velocity": 0.2047244094488189,
                    "duration": 0.18999999999999773
                },
                {
                    "name": "F#4",
                    "midi": 66,
                    "time": 130.59999999999928,
                    "velocity": 0.2047244094488189,
                    "duration": 0.18999999999999773
                },
                {
                    "name": "G#4",
                    "midi": 68,
                    "time": 130.79999999999927,
                    "velocity": 0.4645669291338583,
                    "duration": 1.1999999999999318
                },
                {
                    "name": "G#3",
                    "midi": 56,
                    "time": 130.99999999999926,
                    "velocity": 0.2204724409448819,
                    "duration": 0.18999999999999773
                },
                {
                    "name": "F#4",
                    "midi": 66,
                    "time": 130.99999999999926,
                    "velocity": 0.2204724409448819,
                    "duration": 0.18999999999999773
                },
                {
                    "name": "G#3",
                    "midi": 56,
                    "time": 131.19999999999925,
                    "velocity": 0.2283464566929134,
                    "duration": 0.18999999999999773
                },
                {
                    "name": "F#4",
                    "midi": 66,
                    "time": 131.19999999999925,
                    "velocity": 0.2283464566929134,
                    "duration": 0.18999999999999773
                },
                {
                    "name": "G#3",
                    "midi": 56,
                    "time": 131.39999999999924,
                    "velocity": 0.2283464566929134,
                    "duration": 0.18999999999999773
                },
                {
                    "name": "F#4",
                    "midi": 66,
                    "time": 131.39999999999924,
                    "velocity": 0.2283464566929134,
                    "duration": 0.18999999999999773
                },
                {
                    "name": "G#3",
                    "midi": 56,
                    "time": 131.59999999999923,
                    "velocity": 0.2283464566929134,
                    "duration": 0.18999999999999773
                },
                {
                    "name": "F#4",
                    "midi": 66,
                    "time": 131.59999999999923,
                    "velocity": 0.2283464566929134,
                    "duration": 0.18999999999999773
                },
                {
                    "name": "G#3",
                    "midi": 56,
                    "time": 131.79999999999922,
                    "velocity": 0.2283464566929134,
                    "duration": 0.18999999999999773
                },
                {
                    "name": "F#4",
                    "midi": 66,
                    "time": 131.79999999999922,
                    "velocity": 0.2283464566929134,
                    "duration": 0.18999999999999773
                },
                {
                    "name": "G#4",
                    "midi": 68,
                    "time": 131.9999999999992,
                    "velocity": 0.47244094488188976,
                    "duration": 1.1999999999999318
                },
                {
                    "name": "G#3",
                    "midi": 56,
                    "time": 132.1999999999992,
                    "velocity": 0.2047244094488189,
                    "duration": 0.18999999999999773
                },
                {
                    "name": "E4",
                    "midi": 64,
                    "time": 132.1999999999992,
                    "velocity": 0.2047244094488189,
                    "duration": 0.18999999999999773
                },
                {
                    "name": "G#3",
                    "midi": 56,
                    "time": 132.39999999999918,
                    "velocity": 0.2047244094488189,
                    "duration": 0.18999999999999773
                },
                {
                    "name": "E4",
                    "midi": 64,
                    "time": 132.39999999999918,
                    "velocity": 0.2047244094488189,
                    "duration": 0.18999999999999773
                },
                {
                    "name": "G#3",
                    "midi": 56,
                    "time": 132.59999999999917,
                    "velocity": 0.2047244094488189,
                    "duration": 0.18999999999999773
                },
                {
                    "name": "E4",
                    "midi": 64,
                    "time": 132.59999999999917,
                    "velocity": 0.2047244094488189,
                    "duration": 0.18999999999999773
                },
                {
                    "name": "G#3",
                    "midi": 56,
                    "time": 132.79999999999916,
                    "velocity": 0.2047244094488189,
                    "duration": 0.18999999999999773
                },
                {
                    "name": "E4",
                    "midi": 64,
                    "time": 132.79999999999916,
                    "velocity": 0.2047244094488189,
                    "duration": 0.18999999999999773
                },
                {
                    "name": "G#3",
                    "midi": 56,
                    "time": 132.99999999999915,
                    "velocity": 0.2125984251968504,
                    "duration": 0.18999999999999773
                },
                {
                    "name": "E4",
                    "midi": 64,
                    "time": 132.99999999999915,
                    "velocity": 0.2125984251968504,
                    "duration": 0.18999999999999773
                },
                {
                    "name": "E5",
                    "midi": 76,
                    "time": 133.19999999999914,
                    "velocity": 0.5354330708661418,
                    "duration": 0.39999999999997726
                },
                {
                    "name": "E4",
                    "midi": 64,
                    "time": 133.39999999999912,
                    "velocity": 0.2204724409448819,
                    "duration": 0.18999999999999773
                },
                {
                    "name": "G#4",
                    "midi": 68,
                    "time": 133.39999999999912,
                    "velocity": 0.2204724409448819,
                    "duration": 0.18999999999999773
                },
                {
                    "name": "D#5",
                    "midi": 75,
                    "time": 133.5999999999991,
                    "velocity": 0.49606299212598426,
                    "duration": 0.39999999999997726
                },
                {
                    "name": "D#4",
                    "midi": 63,
                    "time": 133.7999999999991,
                    "velocity": 0.2125984251968504,
                    "duration": 0.18999999999999773
                },
                {
                    "name": "G#4",
                    "midi": 68,
                    "time": 133.7999999999991,
                    "velocity": 0.2125984251968504,
                    "duration": 0.18999999999999773
                },
                {
                    "name": "C#5",
                    "midi": 73,
                    "time": 133.9999999999991,
                    "velocity": 0.47244094488188976,
                    "duration": 0.39999999999997726
                },
                {
                    "name": "C#4",
                    "midi": 61,
                    "time": 134.19999999999908,
                    "velocity": 0.2125984251968504,
                    "duration": 0.18999999999999773
                },
                {
                    "name": "G#4",
                    "midi": 68,
                    "time": 134.19999999999908,
                    "velocity": 0.2125984251968504,
                    "duration": 0.18999999999999773
                },
                {
                    "name": "C#5",
                    "midi": 73,
                    "time": 134.39999999999907,
                    "velocity": 0.47244094488188976,
                    "duration": 1.1999999999999318
                },
                {
                    "name": "C#4",
                    "midi": 61,
                    "time": 134.59999999999906,
                    "velocity": 0.2125984251968504,
                    "duration": 0.18999999999999773
                },
                {
                    "name": "G#4",
                    "midi": 68,
                    "time": 134.59999999999906,
                    "velocity": 0.2125984251968504,
                    "duration": 0.18999999999999773
                },
                {
                    "name": "C#4",
                    "midi": 61,
                    "time": 134.79999999999905,
                    "velocity": 0.2125984251968504,
                    "duration": 0.18999999999999773
                },
                {
                    "name": "G#4",
                    "midi": 68,
                    "time": 134.79999999999905,
                    "velocity": 0.2125984251968504,
                    "duration": 0.18999999999999773
                },
                {
                    "name": "C#4",
                    "midi": 61,
                    "time": 134.99999999999903,
                    "velocity": 0.2125984251968504,
                    "duration": 0.18999999999999773
                },
                {
                    "name": "G#4",
                    "midi": 68,
                    "time": 134.99999999999903,
                    "velocity": 0.2125984251968504,
                    "duration": 0.18999999999999773
                },
                {
                    "name": "C#4",
                    "midi": 61,
                    "time": 135.19999999999902,
                    "velocity": 0.2125984251968504,
                    "duration": 0.18999999999999773
                },
                {
                    "name": "G#4",
                    "midi": 68,
                    "time": 135.19999999999902,
                    "velocity": 0.2125984251968504,
                    "duration": 0.18999999999999773
                },
                {
                    "name": "C#4",
                    "midi": 61,
                    "time": 135.399999999999,
                    "velocity": 0.2125984251968504,
                    "duration": 0.18999999999999773
                },
                {
                    "name": "G#4",
                    "midi": 68,
                    "time": 135.399999999999,
                    "velocity": 0.2125984251968504,
                    "duration": 0.18999999999999773
                },
                {
                    "name": "C5",
                    "midi": 72,
                    "time": 135.599999999999,
                    "velocity": 0.48031496062992124,
                    "duration": 1.1999999999999318
                },
                {
                    "name": "C4",
                    "midi": 60,
                    "time": 135.799999999999,
                    "velocity": 0.2125984251968504,
                    "duration": 0.18999999999999773
                },
                {
                    "name": "G#4",
                    "midi": 68,
                    "time": 135.799999999999,
                    "velocity": 0.2125984251968504,
                    "duration": 0.18999999999999773
                },
                {
                    "name": "C4",
                    "midi": 60,
                    "time": 135.99999999999898,
                    "velocity": 0.2125984251968504,
                    "duration": 0.18999999999999773
                },
                {
                    "name": "G#4",
                    "midi": 68,
                    "time": 135.99999999999898,
                    "velocity": 0.2125984251968504,
                    "duration": 0.18999999999999773
                },
                {
                    "name": "C4",
                    "midi": 60,
                    "time": 136.19999999999897,
                    "velocity": 0.2125984251968504,
                    "duration": 0.18999999999999773
                },
                {
                    "name": "G#4",
                    "midi": 68,
                    "time": 136.19999999999897,
                    "velocity": 0.2125984251968504,
                    "duration": 0.18999999999999773
                },
                {
                    "name": "C4",
                    "midi": 60,
                    "time": 136.39999999999895,
                    "velocity": 0.2125984251968504,
                    "duration": 0.18999999999999773
                },
                {
                    "name": "G#4",
                    "midi": 68,
                    "time": 136.39999999999895,
                    "velocity": 0.2125984251968504,
                    "duration": 0.18999999999999773
                },
                {
                    "name": "C4",
                    "midi": 60,
                    "time": 136.59999999999894,
                    "velocity": 0.2125984251968504,
                    "duration": 0.18999999999999773
                },
                {
                    "name": "G#4",
                    "midi": 68,
                    "time": 136.59999999999894,
                    "velocity": 0.2125984251968504,
                    "duration": 0.18999999999999773
                },
                {
                    "name": "C5",
                    "midi": 72,
                    "time": 136.79999999999893,
                    "velocity": 0.4566929133858268,
                    "duration": 0.39999999999997726
                },
                {
                    "name": "C4",
                    "midi": 60,
                    "time": 136.99999999999892,
                    "velocity": 0.2755905511811024,
                    "duration": 0.18999999999999773
                },
                {
                    "name": "A4",
                    "midi": 69,
                    "time": 136.99999999999892,
                    "velocity": 0.2755905511811024,
                    "duration": 0.18999999999999773
                },
                {
                    "name": "C#5",
                    "midi": 73,
                    "time": 137.1999999999989,
                    "velocity": 0.5354330708661418,
                    "duration": 1.1999999999999318
                },
                {
                    "name": "C#4",
                    "midi": 61,
                    "time": 137.3999999999989,
                    "velocity": 0.2755905511811024,
                    "duration": 0.18999999999999773
                },
                {
                    "name": "A4",
                    "midi": 69,
                    "time": 137.3999999999989,
                    "velocity": 0.2755905511811024,
                    "duration": 0.18999999999999773
                },
                {
                    "name": "C#4",
                    "midi": 61,
                    "time": 137.5999999999989,
                    "velocity": 0.2755905511811024,
                    "duration": 0.18999999999999773
                },
                {
                    "name": "A4",
                    "midi": 69,
                    "time": 137.5999999999989,
                    "velocity": 0.2755905511811024,
                    "duration": 0.18999999999999773
                },
                {
                    "name": "C#4",
                    "midi": 61,
                    "time": 137.79999999999887,
                    "velocity": 0.2755905511811024,
                    "duration": 0.18999999999999773
                },
                {
                    "name": "A4",
                    "midi": 69,
                    "time": 137.79999999999887,
                    "velocity": 0.2755905511811024,
                    "duration": 0.18999999999999773
                },
                {
                    "name": "C#4",
                    "midi": 61,
                    "time": 137.99999999999886,
                    "velocity": 0.2755905511811024,
                    "duration": 0.18999999999999773
                },
                {
                    "name": "A4",
                    "midi": 69,
                    "time": 137.99999999999886,
                    "velocity": 0.2755905511811024,
                    "duration": 0.18999999999999773
                },
                {
                    "name": "C#4",
                    "midi": 61,
                    "time": 138.19999999999885,
                    "velocity": 0.2755905511811024,
                    "duration": 0.18999999999999773
                },
                {
                    "name": "A4",
                    "midi": 69,
                    "time": 138.19999999999885,
                    "velocity": 0.2755905511811024,
                    "duration": 0.18999999999999773
                },
                {
                    "name": "C#5",
                    "midi": 73,
                    "time": 138.39999999999884,
                    "velocity": 0.5511811023622047,
                    "duration": 0.39999999999997726
                },
                {
                    "name": "C#4",
                    "midi": 61,
                    "time": 138.59999999999883,
                    "velocity": 0.2755905511811024,
                    "duration": 0.18999999999999773
                },
                {
                    "name": "A4",
                    "midi": 69,
                    "time": 138.59999999999883,
                    "velocity": 0.2755905511811024,
                    "duration": 0.18999999999999773
                },
                {
                    "name": "C#5",
                    "midi": 73,
                    "time": 138.79999999999882,
                    "velocity": 0.5433070866141733,
                    "duration": 0.39999999999997726
                },
                {
                    "name": "C#4",
                    "midi": 61,
                    "time": 138.9999999999988,
                    "velocity": 0.2755905511811024,
                    "duration": 0.18999999999999773
                },
                {
                    "name": "A4",
                    "midi": 69,
                    "time": 138.9999999999988,
                    "velocity": 0.2755905511811024,
                    "duration": 0.18999999999999773
                },
                {
                    "name": "C#5",
                    "midi": 73,
                    "time": 139.1999999999988,
                    "velocity": 0.5511811023622047,
                    "duration": 0.39999999999997726
                },
                {
                    "name": "C#4",
                    "midi": 61,
                    "time": 139.39999999999878,
                    "velocity": 0.3464566929133858,
                    "duration": 0.18999999999999773
                },
                {
                    "name": "G#4",
                    "midi": 68,
                    "time": 139.39999999999878,
                    "velocity": 0.3464566929133858,
                    "duration": 0.18999999999999773
                },
                {
                    "name": "D5",
                    "midi": 74,
                    "time": 139.59999999999877,
                    "velocity": 0.6141732283464567,
                    "duration": 1.1999999999999318
                },
                {
                    "name": "D4",
                    "midi": 62,
                    "time": 139.79999999999876,
                    "velocity": 0.3464566929133858,
                    "duration": 0.18999999999999773
                },
                {
                    "name": "G#4",
                    "midi": 68,
                    "time": 139.79999999999876,
                    "velocity": 0.3464566929133858,
                    "duration": 0.18999999999999773
                },
                {
                    "name": "D4",
                    "midi": 62,
                    "time": 139.99999999999875,
                    "velocity": 0.3464566929133858,
                    "duration": 0.18999999999999773
                },
                {
                    "name": "G#4",
                    "midi": 68,
                    "time": 139.99999999999875,
                    "velocity": 0.3464566929133858,
                    "duration": 0.18999999999999773
                },
                {
                    "name": "D4",
                    "midi": 62,
                    "time": 140.19999999999874,
                    "velocity": 0.3464566929133858,
                    "duration": 0.18999999999999773
                },
                {
                    "name": "G#4",
                    "midi": 68,
                    "time": 140.19999999999874,
                    "velocity": 0.3464566929133858,
                    "duration": 0.18999999999999773
                },
                {
                    "name": "D4",
                    "midi": 62,
                    "time": 140.39999999999873,
                    "velocity": 0.3464566929133858,
                    "duration": 0.18999999999999773
                },
                {
                    "name": "G#4",
                    "midi": 68,
                    "time": 140.39999999999873,
                    "velocity": 0.3464566929133858,
                    "duration": 0.18999999999999773
                },
                {
                    "name": "D4",
                    "midi": 62,
                    "time": 140.59999999999872,
                    "velocity": 0.3464566929133858,
                    "duration": 0.18999999999999773
                },
                {
                    "name": "G#4",
                    "midi": 68,
                    "time": 140.59999999999872,
                    "velocity": 0.3464566929133858,
                    "duration": 0.18999999999999773
                },
                {
                    "name": "D5",
                    "midi": 74,
                    "time": 140.7999999999987,
                    "velocity": 0.6377952755905512,
                    "duration": 0.39999999999997726
                },
                {
                    "name": "D4",
                    "midi": 62,
                    "time": 140.9999999999987,
                    "velocity": 0.3464566929133858,
                    "duration": 0.19999999999998863
                },
                {
                    "name": "G#4",
                    "midi": 68,
                    "time": 140.9999999999987,
                    "velocity": 0.3464566929133858,
                    "duration": 0.19999999999998863
                },
                {
                    "name": "D5",
                    "midi": 74,
                    "time": 141.19999999999868,
                    "velocity": 0.6299212598425197,
                    "duration": 0.39999999999997726
                },
                {
                    "name": "D4",
                    "midi": 62,
                    "time": 141.39999999999867,
                    "velocity": 0.3464566929133858,
                    "duration": 0.19999999999998863
                },
                {
                    "name": "G#4",
                    "midi": 68,
                    "time": 141.39999999999867,
                    "velocity": 0.3464566929133858,
                    "duration": 0.19999999999998863
                },
                {
                    "name": "E5",
                    "midi": 76,
                    "time": 141.59999999999866,
                    "velocity": 0.6929133858267716,
                    "duration": 0.39999999999997726
                },
                {
                    "name": "E4",
                    "midi": 64,
                    "time": 141.79999999999865,
                    "velocity": 0.4015748031496063,
                    "duration": 0.18999999999999773
                },
                {
                    "name": "G#4",
                    "midi": 68,
                    "time": 141.79999999999865,
                    "velocity": 0.4015748031496063,
                    "duration": 0.18999999999999773
                },
                {
                    "name": "D#5",
                    "midi": 75,
                    "time": 141.99999999999864,
                    "velocity": 0.6614173228346457,
                    "duration": 0.7999999999999545
                },
                {
                    "name": "D#4",
                    "midi": 63,
                    "time": 142.19999999999862,
                    "velocity": 0.4015748031496063,
                    "duration": 0.18999999999999773
                },
                {
                    "name": "G#4",
                    "midi": 68,
                    "time": 142.19999999999862,
                    "velocity": 0.4015748031496063,
                    "duration": 0.18999999999999773
                },
                {
                    "name": "D#4",
                    "midi": 63,
                    "time": 142.3999999999986,
                    "velocity": 0.3464566929133858,
                    "duration": 0.18999999999999773
                },
                {
                    "name": "G#4",
                    "midi": 68,
                    "time": 142.3999999999986,
                    "velocity": 0.3464566929133858,
                    "duration": 0.18999999999999773
                },
                {
                    "name": "D#4",
                    "midi": 63,
                    "time": 142.5999999999986,
                    "velocity": 0.4015748031496063,
                    "duration": 0.18999999999999773
                },
                {
                    "name": "G#4",
                    "midi": 68,
                    "time": 142.5999999999986,
                    "velocity": 0.4015748031496063,
                    "duration": 0.18999999999999773
                },
                {
                    "name": "E5",
                    "midi": 76,
                    "time": 142.7999999999986,
                    "velocity": 0.6929133858267716,
                    "duration": 0.39999999999997726
                },
                {
                    "name": "E4",
                    "midi": 64,
                    "time": 142.99999999999858,
                    "velocity": 0.4094488188976378,
                    "duration": 0.18999999999999773
                },
                {
                    "name": "G4",
                    "midi": 67,
                    "time": 142.99999999999858,
                    "velocity": 0.4094488188976378,
                    "duration": 0.18999999999999773
                },
                {
                    "name": "D#5",
                    "midi": 75,
                    "time": 143.19999999999857,
                    "velocity": 0.6614173228346457,
                    "duration": 0.7999999999999545
                },
                {
                    "name": "D#4",
                    "midi": 63,
                    "time": 143.39999999999856,
                    "velocity": 0.4094488188976378,
                    "duration": 0.18999999999999773
                },
                {
                    "name": "G4",
                    "midi": 67,
                    "time": 143.39999999999856,
                    "velocity": 0.4094488188976378,
                    "duration": 0.18999999999999773
                },
                {
                    "name": "D#4",
                    "midi": 63,
                    "time": 143.59999999999854,
                    "velocity": 0.4094488188976378,
                    "duration": 0.18999999999999773
                },
                {
                    "name": "G4",
                    "midi": 67,
                    "time": 143.59999999999854,
                    "velocity": 0.4094488188976378,
                    "duration": 0.18999999999999773
                },
                {
                    "name": "D#4",
                    "midi": 63,
                    "time": 143.79999999999853,
                    "velocity": 0.4094488188976378,
                    "duration": 0.18999999999999773
                },
                {
                    "name": "G4",
                    "midi": 67,
                    "time": 143.79999999999853,
                    "velocity": 0.4094488188976378,
                    "duration": 0.18999999999999773
                },
                {
                    "name": "G#4",
                    "midi": 68,
                    "time": 143.99999999999852,
                    "velocity": 0.5748031496062992,
                    "duration": 1.1999999999999318
                },
                {
                    "name": "B3",
                    "midi": 59,
                    "time": 144.1999999999985,
                    "velocity": 0.2047244094488189,
                    "duration": 0.18999999999999773
                },
                {
                    "name": "D#4",
                    "midi": 63,
                    "time": 144.1999999999985,
                    "velocity": 0.2047244094488189,
                    "duration": 0.18999999999999773
                },
                {
                    "name": "B3",
                    "midi": 59,
                    "time": 144.3999999999985,
                    "velocity": 0.2047244094488189,
                    "duration": 0.18999999999999773
                },
                {
                    "name": "D#4",
                    "midi": 63,
                    "time": 144.3999999999985,
                    "velocity": 0.2047244094488189,
                    "duration": 0.18999999999999773
                },
                {
                    "name": "B3",
                    "midi": 59,
                    "time": 144.5999999999985,
                    "velocity": 0.2047244094488189,
                    "duration": 0.18999999999999773
                },
                {
                    "name": "D#4",
                    "midi": 63,
                    "time": 144.5999999999985,
                    "velocity": 0.2047244094488189,
                    "duration": 0.18999999999999773
                },
                {
                    "name": "B3",
                    "midi": 59,
                    "time": 144.79999999999848,
                    "velocity": 0.2047244094488189,
                    "duration": 0.18999999999999773
                },
                {
                    "name": "D#4",
                    "midi": 63,
                    "time": 144.79999999999848,
                    "velocity": 0.2047244094488189,
                    "duration": 0.18999999999999773
                },
                {
                    "name": "B3",
                    "midi": 59,
                    "time": 144.99999999999847,
                    "velocity": 0.2047244094488189,
                    "duration": 0.18999999999999773
                },
                {
                    "name": "D#4",
                    "midi": 63,
                    "time": 144.99999999999847,
                    "velocity": 0.2047244094488189,
                    "duration": 0.18999999999999773
                },
                {
                    "name": "G#4",
                    "midi": 68,
                    "time": 145.19999999999845,
                    "velocity": 0.4094488188976378,
                    "duration": 1.1999999999999318
                },
                {
                    "name": "C4",
                    "midi": 60,
                    "time": 145.39999999999844,
                    "velocity": 0.1889763779527559,
                    "duration": 0.18999999999999773
                },
                {
                    "name": "F#4",
                    "midi": 66,
                    "time": 145.39999999999844,
                    "velocity": 0.1889763779527559,
                    "duration": 0.18999999999999773
                },
                {
                    "name": "D#4",
                    "midi": 63,
                    "time": 145.39999999999844,
                    "velocity": 0.1889763779527559,
                    "duration": 0.18999999999999773
                },
                {
                    "name": "C4",
                    "midi": 60,
                    "time": 145.59999999999843,
                    "velocity": 0.2204724409448819,
                    "duration": 0.18999999999999773
                },
                {
                    "name": "D#4",
                    "midi": 63,
                    "time": 145.59999999999843,
                    "velocity": 0.2204724409448819,
                    "duration": 0.18999999999999773
                },
                {
                    "name": "F#4",
                    "midi": 66,
                    "time": 145.59999999999843,
                    "velocity": 0.2204724409448819,
                    "duration": 0.18999999999999773
                },
                {
                    "name": "C4",
                    "midi": 60,
                    "time": 145.79999999999842,
                    "velocity": 0.2755905511811024,
                    "duration": 0.18999999999999773
                },
                {
                    "name": "D#4",
                    "midi": 63,
                    "time": 145.79999999999842,
                    "velocity": 0.2755905511811024,
                    "duration": 0.18999999999999773
                },
                {
                    "name": "F#4",
                    "midi": 66,
                    "time": 145.79999999999842,
                    "velocity": 0.2755905511811024,
                    "duration": 0.18999999999999773
                },
                {
                    "name": "C4",
                    "midi": 60,
                    "time": 145.9999999999984,
                    "velocity": 0.23622047244094488,
                    "duration": 0.18999999999999773
                },
                {
                    "name": "D#4",
                    "midi": 63,
                    "time": 145.9999999999984,
                    "velocity": 0.23622047244094488,
                    "duration": 0.18999999999999773
                },
                {
                    "name": "F#4",
                    "midi": 66,
                    "time": 145.9999999999984,
                    "velocity": 0.23622047244094488,
                    "duration": 0.18999999999999773
                },
                {
                    "name": "C4",
                    "midi": 60,
                    "time": 146.1999999999984,
                    "velocity": 0.2047244094488189,
                    "duration": 0.18999999999999773
                },
                {
                    "name": "D#4",
                    "midi": 63,
                    "time": 146.1999999999984,
                    "velocity": 0.2047244094488189,
                    "duration": 0.18999999999999773
                },
                {
                    "name": "F#4",
                    "midi": 66,
                    "time": 146.1999999999984,
                    "velocity": 0.2047244094488189,
                    "duration": 0.18999999999999773
                },
                {
                    "name": "G#4",
                    "midi": 68,
                    "time": 146.39999999999839,
                    "velocity": 0.48031496062992124,
                    "duration": 1.1999999999999318
                },
                {
                    "name": "G#3",
                    "midi": 56,
                    "time": 146.59999999999837,
                    "velocity": 0.2125984251968504,
                    "duration": 0.18999999999999773
                },
                {
                    "name": "E4",
                    "midi": 64,
                    "time": 146.59999999999837,
                    "velocity": 0.2125984251968504,
                    "duration": 0.18999999999999773
                },
                {
                    "name": "G#3",
                    "midi": 56,
                    "time": 146.79999999999836,
                    "velocity": 0.2047244094488189,
                    "duration": 0.18999999999999773
                },
                {
                    "name": "E4",
                    "midi": 64,
                    "time": 146.79999999999836,
                    "velocity": 0.2047244094488189,
                    "duration": 0.18999999999999773
                },
                {
                    "name": "G#3",
                    "midi": 56,
                    "time": 146.99999999999835,
                    "velocity": 0.2047244094488189,
                    "duration": 0.18999999999999773
                },
                {
                    "name": "E4",
                    "midi": 64,
                    "time": 146.99999999999835,
                    "velocity": 0.2047244094488189,
                    "duration": 0.18999999999999773
                },
                {
                    "name": "G#3",
                    "midi": 56,
                    "time": 147.19999999999834,
                    "velocity": 0.2047244094488189,
                    "duration": 0.18999999999999773
                },
                {
                    "name": "E4",
                    "midi": 64,
                    "time": 147.19999999999834,
                    "velocity": 0.2047244094488189,
                    "duration": 0.18999999999999773
                },
                {
                    "name": "G#3",
                    "midi": 56,
                    "time": 147.39999999999833,
                    "velocity": 0.2047244094488189,
                    "duration": 0.18999999999999773
                },
                {
                    "name": "E4",
                    "midi": 64,
                    "time": 147.39999999999833,
                    "velocity": 0.2047244094488189,
                    "duration": 0.18999999999999773
                },
                {
                    "name": "G#4",
                    "midi": 68,
                    "time": 147.59999999999832,
                    "velocity": 0.48031496062992124,
                    "duration": 0.39999999999997726
                },
                {
                    "name": "G#3",
                    "midi": 56,
                    "time": 147.7999999999983,
                    "velocity": 0.2047244094488189,
                    "duration": 0.18999999999999773
                },
                {
                    "name": "E4",
                    "midi": 64,
                    "time": 147.7999999999983,
                    "velocity": 0.2047244094488189,
                    "duration": 0.18999999999999773
                },
                {
                    "name": "A4",
                    "midi": 69,
                    "time": 147.9999999999983,
                    "velocity": 0.4645669291338583,
                    "duration": 0.39999999999997726
                },
                {
                    "name": "A3",
                    "midi": 57,
                    "time": 148.19999999999828,
                    "velocity": 0.2125984251968504,
                    "duration": 0.18999999999999773
                },
                {
                    "name": "E4",
                    "midi": 64,
                    "time": 148.19999999999828,
                    "velocity": 0.2125984251968504,
                    "duration": 0.18999999999999773
                },
                {
                    "name": "G#4",
                    "midi": 68,
                    "time": 148.39999999999827,
                    "velocity": 0.4645669291338583,
                    "duration": 0.39999999999997726
                },
                {
                    "name": "G#3",
                    "midi": 56,
                    "time": 148.59999999999826,
                    "velocity": 0.2047244094488189,
                    "duration": 0.18999999999999773
                },
                {
                    "name": "E4",
                    "midi": 64,
                    "time": 148.59999999999826,
                    "velocity": 0.2047244094488189,
                    "duration": 0.18999999999999773
                },
                {
                    "name": "A4",
                    "midi": 69,
                    "time": 148.79999999999825,
                    "velocity": 0.47244094488188976,
                    "duration": 1.1999999999999318
                },
                {
                    "name": "A3",
                    "midi": 57,
                    "time": 148.99999999999824,
                    "velocity": 0.2047244094488189,
                    "duration": 0.18999999999999773
                },
                {
                    "name": "F#4",
                    "midi": 66,
                    "time": 148.99999999999824,
                    "velocity": 0.2047244094488189,
                    "duration": 0.18999999999999773
                },
                {
                    "name": "A3",
                    "midi": 57,
                    "time": 149.19999999999823,
                    "velocity": 0.2047244094488189,
                    "duration": 0.18999999999999773
                },
                {
                    "name": "F#4",
                    "midi": 66,
                    "time": 149.19999999999823,
                    "velocity": 0.2047244094488189,
                    "duration": 0.18999999999999773
                },
                {
                    "name": "A3",
                    "midi": 57,
                    "time": 149.39999999999822,
                    "velocity": 0.2047244094488189,
                    "duration": 0.18999999999999773
                },
                {
                    "name": "F#4",
                    "midi": 66,
                    "time": 149.39999999999822,
                    "velocity": 0.2047244094488189,
                    "duration": 0.18999999999999773
                },
                {
                    "name": "A3",
                    "midi": 57,
                    "time": 149.5999999999982,
                    "velocity": 0.2047244094488189,
                    "duration": 0.18999999999999773
                },
                {
                    "name": "F#4",
                    "midi": 66,
                    "time": 149.5999999999982,
                    "velocity": 0.2047244094488189,
                    "duration": 0.18999999999999773
                },
                {
                    "name": "A3",
                    "midi": 57,
                    "time": 149.7999999999982,
                    "velocity": 0.2047244094488189,
                    "duration": 0.18999999999999773
                },
                {
                    "name": "F#4",
                    "midi": 66,
                    "time": 149.7999999999982,
                    "velocity": 0.2047244094488189,
                    "duration": 0.18999999999999773
                },
                {
                    "name": "G#4",
                    "midi": 68,
                    "time": 149.99999999999818,
                    "velocity": 0.4645669291338583,
                    "duration": 1.1999999999999318
                },
                {
                    "name": "G#3",
                    "midi": 56,
                    "time": 150.19999999999817,
                    "velocity": 0.2204724409448819,
                    "duration": 0.18999999999999773
                },
                {
                    "name": "F#4",
                    "midi": 66,
                    "time": 150.19999999999817,
                    "velocity": 0.2204724409448819,
                    "duration": 0.18999999999999773
                },
                {
                    "name": "G#3",
                    "midi": 56,
                    "time": 150.39999999999816,
                    "velocity": 0.2283464566929134,
                    "duration": 0.18999999999999773
                },
                {
                    "name": "F#4",
                    "midi": 66,
                    "time": 150.39999999999816,
                    "velocity": 0.2283464566929134,
                    "duration": 0.18999999999999773
                },
                {
                    "name": "G#3",
                    "midi": 56,
                    "time": 150.59999999999815,
                    "velocity": 0.2283464566929134,
                    "duration": 0.18999999999999773
                },
                {
                    "name": "F#4",
                    "midi": 66,
                    "time": 150.59999999999815,
                    "velocity": 0.2283464566929134,
                    "duration": 0.18999999999999773
                },
                {
                    "name": "G#3",
                    "midi": 56,
                    "time": 150.79999999999814,
                    "velocity": 0.2283464566929134,
                    "duration": 0.18999999999999773
                },
                {
                    "name": "F#4",
                    "midi": 66,
                    "time": 150.79999999999814,
                    "velocity": 0.2283464566929134,
                    "duration": 0.18999999999999773
                },
                {
                    "name": "G#3",
                    "midi": 56,
                    "time": 150.99999999999812,
                    "velocity": 0.2283464566929134,
                    "duration": 0.18999999999999773
                },
                {
                    "name": "F#4",
                    "midi": 66,
                    "time": 150.99999999999812,
                    "velocity": 0.2283464566929134,
                    "duration": 0.18999999999999773
                },
                {
                    "name": "G#4",
                    "midi": 68,
                    "time": 151.1999999999981,
                    "velocity": 0.47244094488188976,
                    "duration": 1.1999999999999318
                },
                {
                    "name": "G#3",
                    "midi": 56,
                    "time": 151.3999999999981,
                    "velocity": 0.2047244094488189,
                    "duration": 0.18999999999999773
                },
                {
                    "name": "E4",
                    "midi": 64,
                    "time": 151.3999999999981,
                    "velocity": 0.2047244094488189,
                    "duration": 0.18999999999999773
                },
                {
                    "name": "G#3",
                    "midi": 56,
                    "time": 151.5999999999981,
                    "velocity": 0.2047244094488189,
                    "duration": 0.18999999999999773
                },
                {
                    "name": "E4",
                    "midi": 64,
                    "time": 151.5999999999981,
                    "velocity": 0.2047244094488189,
                    "duration": 0.18999999999999773
                },
                {
                    "name": "G#3",
                    "midi": 56,
                    "time": 151.79999999999808,
                    "velocity": 0.2047244094488189,
                    "duration": 0.18999999999999773
                },
                {
                    "name": "E4",
                    "midi": 64,
                    "time": 151.79999999999808,
                    "velocity": 0.2047244094488189,
                    "duration": 0.18999999999999773
                },
                {
                    "name": "G#3",
                    "midi": 56,
                    "time": 151.99999999999807,
                    "velocity": 0.2047244094488189,
                    "duration": 0.18999999999999773
                },
                {
                    "name": "E4",
                    "midi": 64,
                    "time": 151.99999999999807,
                    "velocity": 0.2047244094488189,
                    "duration": 0.18999999999999773
                },
                {
                    "name": "G#3",
                    "midi": 56,
                    "time": 152.19999999999806,
                    "velocity": 0.2125984251968504,
                    "duration": 0.18999999999999773
                },
                {
                    "name": "E4",
                    "midi": 64,
                    "time": 152.19999999999806,
                    "velocity": 0.2125984251968504,
                    "duration": 0.18999999999999773
                },
                {
                    "name": "E5",
                    "midi": 76,
                    "time": 152.39999999999804,
                    "velocity": 0.5511811023622047,
                    "duration": 0.39999999999997726
                },
                {
                    "name": "E4",
                    "midi": 64,
                    "time": 152.59999999999803,
                    "velocity": 0.2204724409448819,
                    "duration": 0.18999999999999773
                },
                {
                    "name": "G#4",
                    "midi": 68,
                    "time": 152.59999999999803,
                    "velocity": 0.2204724409448819,
                    "duration": 0.18999999999999773
                },
                {
                    "name": "D#5",
                    "midi": 75,
                    "time": 152.79999999999802,
                    "velocity": 0.5039370078740157,
                    "duration": 0.39999999999997726
                },
                {
                    "name": "D#4",
                    "midi": 63,
                    "time": 152.999999999998,
                    "velocity": 0.2125984251968504,
                    "duration": 0.18999999999999773
                },
                {
                    "name": "G#4",
                    "midi": 68,
                    "time": 152.999999999998,
                    "velocity": 0.2125984251968504,
                    "duration": 0.18999999999999773
                },
                {
                    "name": "C#5",
                    "midi": 73,
                    "time": 153.199999999998,
                    "velocity": 0.47244094488188976,
                    "duration": 0.39999999999997726
                },
                {
                    "name": "C#4",
                    "midi": 61,
                    "time": 153.399999999998,
                    "velocity": 0.2125984251968504,
                    "duration": 0.18999999999999773
                },
                {
                    "name": "G#4",
                    "midi": 68,
                    "time": 153.399999999998,
                    "velocity": 0.2125984251968504,
                    "duration": 0.18999999999999773
                },
                {
                    "name": "C#5",
                    "midi": 73,
                    "time": 153.59999999999798,
                    "velocity": 0.47244094488188976,
                    "duration": 1.1999999999999318
                },
                {
                    "name": "C#4",
                    "midi": 61,
                    "time": 153.79999999999797,
                    "velocity": 0.2125984251968504,
                    "duration": 0.18999999999999773
                },
                {
                    "name": "G#4",
                    "midi": 68,
                    "time": 153.79999999999797,
                    "velocity": 0.2125984251968504,
                    "duration": 0.18999999999999773
                },
                {
                    "name": "C#4",
                    "midi": 61,
                    "time": 153.99999999999795,
                    "velocity": 0.2125984251968504,
                    "duration": 0.18999999999999773
                },
                {
                    "name": "G#4",
                    "midi": 68,
                    "time": 153.99999999999795,
                    "velocity": 0.2125984251968504,
                    "duration": 0.18999999999999773
                },
                {
                    "name": "C#4",
                    "midi": 61,
                    "time": 154.19999999999794,
                    "velocity": 0.2125984251968504,
                    "duration": 0.18999999999999773
                },
                {
                    "name": "G#4",
                    "midi": 68,
                    "time": 154.19999999999794,
                    "velocity": 0.2125984251968504,
                    "duration": 0.18999999999999773
                },
                {
                    "name": "C#4",
                    "midi": 61,
                    "time": 154.39999999999793,
                    "velocity": 0.2125984251968504,
                    "duration": 0.18999999999999773
                },
                {
                    "name": "G#4",
                    "midi": 68,
                    "time": 154.39999999999793,
                    "velocity": 0.2125984251968504,
                    "duration": 0.18999999999999773
                },
                {
                    "name": "C#4",
                    "midi": 61,
                    "time": 154.59999999999792,
                    "velocity": 0.2125984251968504,
                    "duration": 0.18999999999999773
                },
                {
                    "name": "G#4",
                    "midi": 68,
                    "time": 154.59999999999792,
                    "velocity": 0.2125984251968504,
                    "duration": 0.18999999999999773
                },
                {
                    "name": "C5",
                    "midi": 72,
                    "time": 154.7999999999979,
                    "velocity": 0.48031496062992124,
                    "duration": 1.1999999999999318
                },
                {
                    "name": "C4",
                    "midi": 60,
                    "time": 154.9999999999979,
                    "velocity": 0.2125984251968504,
                    "duration": 0.18999999999999773
                },
                {
                    "name": "G#4",
                    "midi": 68,
                    "time": 154.9999999999979,
                    "velocity": 0.2125984251968504,
                    "duration": 0.18999999999999773
                },
                {
                    "name": "C4",
                    "midi": 60,
                    "time": 155.19999999999789,
                    "velocity": 0.2125984251968504,
                    "duration": 0.18999999999999773
                },
                {
                    "name": "G#4",
                    "midi": 68,
                    "time": 155.19999999999789,
                    "velocity": 0.2125984251968504,
                    "duration": 0.18999999999999773
                },
                {
                    "name": "C4",
                    "midi": 60,
                    "time": 155.39999999999787,
                    "velocity": 0.2125984251968504,
                    "duration": 0.18999999999999773
                },
                {
                    "name": "G#4",
                    "midi": 68,
                    "time": 155.39999999999787,
                    "velocity": 0.2125984251968504,
                    "duration": 0.18999999999999773
                },
                {
                    "name": "C4",
                    "midi": 60,
                    "time": 155.59999999999786,
                    "velocity": 0.2125984251968504,
                    "duration": 0.18999999999999773
                },
                {
                    "name": "G#4",
                    "midi": 68,
                    "time": 155.59999999999786,
                    "velocity": 0.2125984251968504,
                    "duration": 0.18999999999999773
                },
                {
                    "name": "C4",
                    "midi": 60,
                    "time": 155.79999999999785,
                    "velocity": 0.2125984251968504,
                    "duration": 0.18999999999999773
                },
                {
                    "name": "G#4",
                    "midi": 68,
                    "time": 155.79999999999785,
                    "velocity": 0.2125984251968504,
                    "duration": 0.18999999999999773
                },
                {
                    "name": "C5",
                    "midi": 72,
                    "time": 155.99999999999784,
                    "velocity": 0.4566929133858268,
                    "duration": 0.39999999999997726
                },
                {
                    "name": "C4",
                    "midi": 60,
                    "time": 156.19999999999783,
                    "velocity": 0.2755905511811024,
                    "duration": 0.19999999999998863
                },
                {
                    "name": "A4",
                    "midi": 69,
                    "time": 156.19999999999783,
                    "velocity": 0.2755905511811024,
                    "duration": 0.19999999999998863
                },
                {
                    "name": "C#5",
                    "midi": 73,
                    "time": 156.39999999999782,
                    "velocity": 0.5354330708661418,
                    "duration": 1.1999999999999318
                },
                {
                    "name": "C#4",
                    "midi": 61,
                    "time": 156.5999999999978,
                    "velocity": 0.2755905511811024,
                    "duration": 0.18999999999999773
                },
                {
                    "name": "A4",
                    "midi": 69,
                    "time": 156.5999999999978,
                    "velocity": 0.2755905511811024,
                    "duration": 0.18999999999999773
                },
                {
                    "name": "C#4",
                    "midi": 61,
                    "time": 156.7999999999978,
                    "velocity": 0.2755905511811024,
                    "duration": 0.18999999999999773
                },
                {
                    "name": "A4",
                    "midi": 69,
                    "time": 156.7999999999978,
                    "velocity": 0.2755905511811024,
                    "duration": 0.18999999999999773
                },
                {
                    "name": "C#4",
                    "midi": 61,
                    "time": 156.99999999999778,
                    "velocity": 0.2755905511811024,
                    "duration": 0.18999999999999773
                },
                {
                    "name": "A4",
                    "midi": 69,
                    "time": 156.99999999999778,
                    "velocity": 0.2755905511811024,
                    "duration": 0.18999999999999773
                },
                {
                    "name": "C#4",
                    "midi": 61,
                    "time": 157.19999999999777,
                    "velocity": 0.2755905511811024,
                    "duration": 0.19999999999998863
                },
                {
                    "name": "A4",
                    "midi": 69,
                    "time": 157.19999999999777,
                    "velocity": 0.2755905511811024,
                    "duration": 0.19999999999998863
                },
                {
                    "name": "C#4",
                    "midi": 61,
                    "time": 157.39999999999776,
                    "velocity": 0.2755905511811024,
                    "duration": 0.19999999999998863
                },
                {
                    "name": "A4",
                    "midi": 69,
                    "time": 157.39999999999776,
                    "velocity": 0.2755905511811024,
                    "duration": 0.19999999999998863
                },
                {
                    "name": "C#5",
                    "midi": 73,
                    "time": 157.59999999999775,
                    "velocity": 0.5511811023622047,
                    "duration": 0.39999999999997726
                },
                {
                    "name": "C#4",
                    "midi": 61,
                    "time": 157.79999999999774,
                    "velocity": 0.2755905511811024,
                    "duration": 0.19999999999998863
                },
                {
                    "name": "A4",
                    "midi": 69,
                    "time": 157.79999999999774,
                    "velocity": 0.2755905511811024,
                    "duration": 0.19999999999998863
                },
                {
                    "name": "C#5",
                    "midi": 73,
                    "time": 157.99999999999773,
                    "velocity": 0.5433070866141733,
                    "duration": 0.39999999999997726
                },
                {
                    "name": "C#4",
                    "midi": 61,
                    "time": 158.19999999999771,
                    "velocity": 0.2755905511811024,
                    "duration": 0.19999999999998863
                },
                {
                    "name": "A4",
                    "midi": 69,
                    "time": 158.19999999999771,
                    "velocity": 0.2755905511811024,
                    "duration": 0.19999999999998863
                },
                {
                    "name": "C#5",
                    "midi": 73,
                    "time": 158.3999999999977,
                    "velocity": 0.5511811023622047,
                    "duration": 0.39999999999997726
                },
                {
                    "name": "C#4",
                    "midi": 61,
                    "time": 158.5999999999977,
                    "velocity": 0.3464566929133858,
                    "duration": 0.18999999999999773
                },
                {
                    "name": "G#4",
                    "midi": 68,
                    "time": 158.5999999999977,
                    "velocity": 0.3464566929133858,
                    "duration": 0.18999999999999773
                },
                {
                    "name": "D5",
                    "midi": 74,
                    "time": 158.79999999999768,
                    "velocity": 0.6141732283464567,
                    "duration": 1.1999999999999318
                },
                {
                    "name": "D4",
                    "midi": 62,
                    "time": 158.99999999999767,
                    "velocity": 0.3464566929133858,
                    "duration": 0.18999999999999773
                },
                {
                    "name": "G#4",
                    "midi": 68,
                    "time": 158.99999999999767,
                    "velocity": 0.3464566929133858,
                    "duration": 0.18999999999999773
                },
                {
                    "name": "D4",
                    "midi": 62,
                    "time": 159.19999999999766,
                    "velocity": 0.3464566929133858,
                    "duration": 0.18999999999999773
                },
                {
                    "name": "G#4",
                    "midi": 68,
                    "time": 159.19999999999766,
                    "velocity": 0.3464566929133858,
                    "duration": 0.18999999999999773
                },
                {
                    "name": "D4",
                    "midi": 62,
                    "time": 159.39999999999765,
                    "velocity": 0.3464566929133858,
                    "duration": 0.18999999999999773
                },
                {
                    "name": "G#4",
                    "midi": 68,
                    "time": 159.39999999999765,
                    "velocity": 0.3464566929133858,
                    "duration": 0.18999999999999773
                },
                {
                    "name": "D4",
                    "midi": 62,
                    "time": 159.59999999999764,
                    "velocity": 0.3464566929133858,
                    "duration": 0.18999999999999773
                },
                {
                    "name": "G#4",
                    "midi": 68,
                    "time": 159.59999999999764,
                    "velocity": 0.3464566929133858,
                    "duration": 0.18999999999999773
                },
                {
                    "name": "D4",
                    "midi": 62,
                    "time": 159.79999999999762,
                    "velocity": 0.3464566929133858,
                    "duration": 0.18999999999999773
                },
                {
                    "name": "G#4",
                    "midi": 68,
                    "time": 159.79999999999762,
                    "velocity": 0.3464566929133858,
                    "duration": 0.18999999999999773
                },
                {
                    "name": "D5",
                    "midi": 74,
                    "time": 159.9999999999976,
                    "velocity": 0.6299212598425197,
                    "duration": 0.39999999999997726
                },
                {
                    "name": "D4",
                    "midi": 62,
                    "time": 160.1999999999976,
                    "velocity": 0.3464566929133858,
                    "duration": 0.19999999999998863
                },
                {
                    "name": "G#4",
                    "midi": 68,
                    "time": 160.1999999999976,
                    "velocity": 0.3464566929133858,
                    "duration": 0.19999999999998863
                },
                {
                    "name": "D5",
                    "midi": 74,
                    "time": 160.3999999999976,
                    "velocity": 0.5905511811023622,
                    "duration": 0.39999999999997726
                },
                {
                    "name": "D4",
                    "midi": 62,
                    "time": 160.59999999999758,
                    "velocity": 0.3464566929133858,
                    "duration": 0.19999999999998863
                },
                {
                    "name": "G#4",
                    "midi": 68,
                    "time": 160.59999999999758,
                    "velocity": 0.3464566929133858,
                    "duration": 0.19999999999998863
                },
                {
                    "name": "E5",
                    "midi": 76,
                    "time": 160.79999999999757,
                    "velocity": 0.6929133858267716,
                    "duration": 0.39999999999997726
                },
                {
                    "name": "E4",
                    "midi": 64,
                    "time": 160.99999999999756,
                    "velocity": 0.4015748031496063,
                    "duration": 0.18999999999999773
                },
                {
                    "name": "G#4",
                    "midi": 68,
                    "time": 160.99999999999756,
                    "velocity": 0.4015748031496063,
                    "duration": 0.18999999999999773
                },
                {
                    "name": "D#5",
                    "midi": 75,
                    "time": 161.19999999999754,
                    "velocity": 0.6535433070866141,
                    "duration": 0.7999999999999545
                },
                {
                    "name": "D#4",
                    "midi": 63,
                    "time": 161.39999999999753,
                    "velocity": 0.4015748031496063,
                    "duration": 0.18999999999999773
                },
                {
                    "name": "G#4",
                    "midi": 68,
                    "time": 161.39999999999753,
                    "velocity": 0.4015748031496063,
                    "duration": 0.18999999999999773
                },
                {
                    "name": "D#4",
                    "midi": 63,
                    "time": 161.59999999999752,
                    "velocity": 0.3464566929133858,
                    "duration": 0.18999999999999773
                },
                {
                    "name": "G#4",
                    "midi": 68,
                    "time": 161.59999999999752,
                    "velocity": 0.3464566929133858,
                    "duration": 0.18999999999999773
                },
                {
                    "name": "D#4",
                    "midi": 63,
                    "time": 161.7999999999975,
                    "velocity": 0.4015748031496063,
                    "duration": 0.18999999999999773
                },
                {
                    "name": "G#4",
                    "midi": 68,
                    "time": 161.7999999999975,
                    "velocity": 0.4015748031496063,
                    "duration": 0.18999999999999773
                },
                {
                    "name": "E5",
                    "midi": 76,
                    "time": 161.9999999999975,
                    "velocity": 0.6929133858267716,
                    "duration": 0.39999999999997726
                },
                {
                    "name": "E4",
                    "midi": 64,
                    "time": 162.1999999999975,
                    "velocity": 0.4094488188976378,
                    "duration": 0.18999999999999773
                },
                {
                    "name": "G4",
                    "midi": 67,
                    "time": 162.1999999999975,
                    "velocity": 0.4094488188976378,
                    "duration": 0.18999999999999773
                },
                {
                    "name": "D#5",
                    "midi": 75,
                    "time": 162.39999999999748,
                    "velocity": 0.6535433070866141,
                    "duration": 0.7999999999999545
                },
                {
                    "name": "D#4",
                    "midi": 63,
                    "time": 162.59999999999746,
                    "velocity": 0.4094488188976378,
                    "duration": 0.18999999999999773
                },
                {
                    "name": "G4",
                    "midi": 67,
                    "time": 162.59999999999746,
                    "velocity": 0.4094488188976378,
                    "duration": 0.18999999999999773
                },
                {
                    "name": "D#4",
                    "midi": 63,
                    "time": 162.79999999999745,
                    "velocity": 0.4094488188976378,
                    "duration": 0.18999999999999773
                },
                {
                    "name": "G4",
                    "midi": 67,
                    "time": 162.79999999999745,
                    "velocity": 0.4094488188976378,
                    "duration": 0.18999999999999773
                },
                {
                    "name": "D#4",
                    "midi": 63,
                    "time": 162.99999999999744,
                    "velocity": 0.4094488188976378,
                    "duration": 0.18999999999999773
                },
                {
                    "name": "G4",
                    "midi": 67,
                    "time": 162.99999999999744,
                    "velocity": 0.4094488188976378,
                    "duration": 0.18999999999999773
                },
                {
                    "name": "G#4",
                    "midi": 68,
                    "time": 163.19999999999743,
                    "velocity": 0.5511811023622047,
                    "duration": 1.599999999999909
                },
                {
                    "name": "B3",
                    "midi": 59,
                    "time": 163.39999999999742,
                    "velocity": 0.2047244094488189,
                    "duration": 0.18999999999999773
                },
                {
                    "name": "D#4",
                    "midi": 63,
                    "time": 163.39999999999742,
                    "velocity": 0.2047244094488189,
                    "duration": 0.18999999999999773
                },
                {
                    "name": "B3",
                    "midi": 59,
                    "time": 163.5999999999974,
                    "velocity": 0.2047244094488189,
                    "duration": 0.18999999999999773
                },
                {
                    "name": "D#4",
                    "midi": 63,
                    "time": 163.5999999999974,
                    "velocity": 0.2047244094488189,
                    "duration": 0.18999999999999773
                },
                {
                    "name": "B3",
                    "midi": 59,
                    "time": 163.7999999999974,
                    "velocity": 0.2047244094488189,
                    "duration": 0.18999999999999773
                },
                {
                    "name": "D#4",
                    "midi": 63,
                    "time": 163.7999999999974,
                    "velocity": 0.2047244094488189,
                    "duration": 0.18999999999999773
                },
                {
                    "name": "B3",
                    "midi": 59,
                    "time": 163.99999999999739,
                    "velocity": 0.2047244094488189,
                    "duration": 0.18999999999999773
                },
                {
                    "name": "D#4",
                    "midi": 63,
                    "time": 163.99999999999739,
                    "velocity": 0.2047244094488189,
                    "duration": 0.18999999999999773
                },
                {
                    "name": "B3",
                    "midi": 59,
                    "time": 164.19999999999737,
                    "velocity": 0.2047244094488189,
                    "duration": 0.18999999999999773
                },
                {
                    "name": "D#4",
                    "midi": 63,
                    "time": 164.19999999999737,
                    "velocity": 0.2047244094488189,
                    "duration": 0.18999999999999773
                },
                {
                    "name": "B3",
                    "midi": 59,
                    "time": 164.39999999999736,
                    "velocity": 0.2047244094488189,
                    "duration": 0.18999999999999773
                },
                {
                    "name": "D#4",
                    "midi": 63,
                    "time": 164.39999999999736,
                    "velocity": 0.2047244094488189,
                    "duration": 0.18999999999999773
                },
                {
                    "name": "B3",
                    "midi": 59,
                    "time": 164.59999999999735,
                    "velocity": 0.2047244094488189,
                    "duration": 0.18999999999999773
                },
                {
                    "name": "D#4",
                    "midi": 63,
                    "time": 164.59999999999735,
                    "velocity": 0.2047244094488189,
                    "duration": 0.18999999999999773
                },
                {
                    "name": "G#4",
                    "midi": 68,
                    "time": 164.79999999999734,
                    "velocity": 0.3779527559055118,
                    "duration": 0.39999999999997726
                },
                {
                    "name": "B3",
                    "midi": 59,
                    "time": 164.99999999999733,
                    "velocity": 0.2047244094488189,
                    "duration": 0.19999999999998863
                },
                {
                    "name": "D#4",
                    "midi": 63,
                    "time": 164.99999999999733,
                    "velocity": 0.2047244094488189,
                    "duration": 0.19999999999998863
                },
                {
                    "name": "G#4",
                    "midi": 68,
                    "time": 165.19999999999732,
                    "velocity": 0.33070866141732286,
                    "duration": 0.39999999999997726
                },
                {
                    "name": "B3",
                    "midi": 59,
                    "time": 165.3999999999973,
                    "velocity": 0.2047244094488189,
                    "duration": 0.19999999999998863
                },
                {
                    "name": "D#4",
                    "midi": 63,
                    "time": 165.3999999999973,
                    "velocity": 0.2047244094488189,
                    "duration": 0.19999999999998863
                },
                {
                    "name": "G#4",
                    "midi": 68,
                    "time": 165.5999999999973,
                    "velocity": 0.4645669291338583,
                    "duration": 0.39999999999997726
                },
                {
                    "name": "D#4",
                    "midi": 63,
                    "time": 165.79999999999728,
                    "velocity": 0.2047244094488189,
                    "duration": 0.18999999999999773
                },
                {
                    "name": "C4",
                    "midi": 60,
                    "time": 165.79999999999728,
                    "velocity": 0.2047244094488189,
                    "duration": 0.18999999999999773
                },
                {
                    "name": "A4",
                    "midi": 69,
                    "time": 165.99999999999727,
                    "velocity": 0.48031496062992124,
                    "duration": 1.1999999999999318
                },
                {
                    "name": "C4",
                    "midi": 60,
                    "time": 166.19999999999726,
                    "velocity": 0.2047244094488189,
                    "duration": 0.18999999999999773
                },
                {
                    "name": "D#4",
                    "midi": 63,
                    "time": 166.19999999999726,
                    "velocity": 0.2047244094488189,
                    "duration": 0.18999999999999773
                },
                {
                    "name": "C4",
                    "midi": 60,
                    "time": 166.39999999999725,
                    "velocity": 0.2047244094488189,
                    "duration": 0.18999999999999773
                },
                {
                    "name": "D#4",
                    "midi": 63,
                    "time": 166.39999999999725,
                    "velocity": 0.2047244094488189,
                    "duration": 0.18999999999999773
                },
                {
                    "name": "C4",
                    "midi": 60,
                    "time": 166.59999999999724,
                    "velocity": 0.2047244094488189,
                    "duration": 0.18999999999999773
                },
                {
                    "name": "D#4",
                    "midi": 63,
                    "time": 166.59999999999724,
                    "velocity": 0.2047244094488189,
                    "duration": 0.18999999999999773
                },
                {
                    "name": "C4",
                    "midi": 60,
                    "time": 166.79999999999723,
                    "velocity": 0.2047244094488189,
                    "duration": 0.18999999999999773
                },
                {
                    "name": "D#4",
                    "midi": 63,
                    "time": 166.79999999999723,
                    "velocity": 0.2047244094488189,
                    "duration": 0.18999999999999773
                },
                {
                    "name": "C4",
                    "midi": 60,
                    "time": 166.99999999999721,
                    "velocity": 0.2047244094488189,
                    "duration": 0.18999999999999773
                },
                {
                    "name": "D#4",
                    "midi": 63,
                    "time": 166.99999999999721,
                    "velocity": 0.2047244094488189,
                    "duration": 0.18999999999999773
                },
                {
                    "name": "G#4",
                    "midi": 68,
                    "time": 167.1999999999972,
                    "velocity": 0.47244094488188976,
                    "duration": 0.39999999999997726
                },
                {
                    "name": "C4",
                    "midi": 60,
                    "time": 167.3999999999972,
                    "velocity": 0.2047244094488189,
                    "duration": 0.18999999999999773
                },
                {
                    "name": "D#4",
                    "midi": 63,
                    "time": 167.3999999999972,
                    "velocity": 0.2047244094488189,
                    "duration": 0.18999999999999773
                },
                {
                    "name": "F#4",
                    "midi": 66,
                    "time": 167.59999999999718,
                    "velocity": 0.4409448818897638,
                    "duration": 0.39999999999997726
                },
                {
                    "name": "C4",
                    "midi": 60,
                    "time": 167.79999999999717,
                    "velocity": 0.2677165354330709,
                    "duration": 0.18999999999999773
                },
                {
                    "name": "D#4",
                    "midi": 63,
                    "time": 167.79999999999717,
                    "velocity": 0.2047244094488189,
                    "duration": 0.18999999999999773
                },
                {
                    "name": "E4",
                    "midi": 64,
                    "time": 167.99999999999716,
                    "velocity": 0.5511811023622047,
                    "duration": 0.39999999999997726
                },
                {
                    "name": "G#3",
                    "midi": 56,
                    "time": 168.19999999999715,
                    "velocity": 0.2047244094488189,
                    "duration": 0.18999999999999773
                },
                {
                    "name": "C#4",
                    "midi": 61,
                    "time": 168.19999999999715,
                    "velocity": 0.2047244094488189,
                    "duration": 0.18999999999999773
                },
                {
                    "name": "G#4",
                    "midi": 68,
                    "time": 168.39999999999714,
                    "velocity": 0.5039370078740157,
                    "duration": 0.39999999999997726
                },
                {
                    "name": "E4",
                    "midi": 64,
                    "time": 168.59999999999712,
                    "velocity": 0.2283464566929134,
                    "duration": 0.18999999999999773
                },
                {
                    "name": "C#4",
                    "midi": 61,
                    "time": 168.59999999999712,
                    "velocity": 0.2283464566929134,
                    "duration": 0.18999999999999773
                },
                {
                    "name": "C#5",
                    "midi": 73,
                    "time": 168.7999999999971,
                    "velocity": 0.5354330708661418,
                    "duration": 0.39999999999997726
                },
                {
                    "name": "E4",
                    "midi": 64,
                    "time": 168.9999999999971,
                    "velocity": 0.2440944881889764,
                    "duration": 0.18999999999999773
                },
                {
                    "name": "G#4",
                    "midi": 68,
                    "time": 168.9999999999971,
                    "velocity": 0.2440944881889764,
                    "duration": 0.18999999999999773
                },
                {
                    "name": "E5",
                    "midi": 76,
                    "time": 169.1999999999971,
                    "velocity": 0.6062992125984252,
                    "duration": 0.39999999999997726
                },
                {
                    "name": "G#4",
                    "midi": 68,
                    "time": 169.39999999999708,
                    "velocity": 0.2677165354330709,
                    "duration": 0.18999999999999773
                },
                {
                    "name": "C#5",
                    "midi": 73,
                    "time": 169.39999999999708,
                    "velocity": 0.2677165354330709,
                    "duration": 0.18999999999999773
                },
                {
                    "name": "G#5",
                    "midi": 80,
                    "time": 169.59999999999707,
                    "velocity": 0.5905511811023622,
                    "duration": 0.39999999999997726
                },
                {
                    "name": "C#5",
                    "midi": 73,
                    "time": 169.79999999999706,
                    "velocity": 0.29133858267716534,
                    "duration": 0.18999999999999773
                },
                {
                    "name": "E5",
                    "midi": 76,
                    "time": 169.79999999999706,
                    "velocity": 0.29133858267716534,
                    "duration": 0.18999999999999773
                },
                {
                    "name": "C#6",
                    "midi": 85,
                    "time": 169.99999999999704,
                    "velocity": 0.6220472440944882,
                    "duration": 0.39999999999997726
                },
                {
                    "name": "E5",
                    "midi": 76,
                    "time": 170.19999999999703,
                    "velocity": 0.30708661417322836,
                    "duration": 0.18999999999999773
                },
                {
                    "name": "G#5",
                    "midi": 80,
                    "time": 170.19999999999703,
                    "velocity": 0.30708661417322836,
                    "duration": 0.18999999999999773
                },
                {
                    "name": "D#6",
                    "midi": 87,
                    "time": 170.39999999999702,
                    "velocity": 0.7795275590551181,
                    "duration": 0.39999999999997726
                },
                {
                    "name": "D#5",
                    "midi": 75,
                    "time": 170.599999999997,
                    "velocity": 0.4015748031496063,
                    "duration": 0.18999999999999773
                },
                {
                    "name": "G5",
                    "midi": 79,
                    "time": 170.599999999997,
                    "velocity": 0.4015748031496063,
                    "duration": 0.18999999999999773
                },
                {
                    "name": "E6",
                    "midi": 88,
                    "time": 170.799999999997,
                    "velocity": 0.7559055118110236,
                    "duration": 1.1999999999999318
                },
                {
                    "name": "G5",
                    "midi": 79,
                    "time": 170.999999999997,
                    "velocity": 0.3543307086614173,
                    "duration": 0.18999999999999773
                },
                {
                    "name": "E5",
                    "midi": 76,
                    "time": 170.999999999997,
                    "velocity": 0.3543307086614173,
                    "duration": 0.18999999999999773
                },
                {
                    "name": "G5",
                    "midi": 79,
                    "time": 171.19999999999698,
                    "velocity": 0.31496062992125984,
                    "duration": 0.18999999999999773
                },
                {
                    "name": "E5",
                    "midi": 76,
                    "time": 171.19999999999698,
                    "velocity": 0.31496062992125984,
                    "duration": 0.18999999999999773
                },
                {
                    "name": "G5",
                    "midi": 79,
                    "time": 171.39999999999696,
                    "velocity": 0.30708661417322836,
                    "duration": 0.18999999999999773
                },
                {
                    "name": "E5",
                    "midi": 76,
                    "time": 171.39999999999696,
                    "velocity": 0.30708661417322836,
                    "duration": 0.18999999999999773
                },
                {
                    "name": "G5",
                    "midi": 79,
                    "time": 171.59999999999695,
                    "velocity": 0.29133858267716534,
                    "duration": 0.18999999999999773
                },
                {
                    "name": "E5",
                    "midi": 76,
                    "time": 171.59999999999695,
                    "velocity": 0.29133858267716534,
                    "duration": 0.18999999999999773
                },
                {
                    "name": "E5",
                    "midi": 76,
                    "time": 171.79999999999694,
                    "velocity": 0.29133858267716534,
                    "duration": 0.18999999999999773
                },
                {
                    "name": "G5",
                    "midi": 79,
                    "time": 171.79999999999694,
                    "velocity": 0.29133858267716534,
                    "duration": 0.18999999999999773
                },
                {
                    "name": "D#6",
                    "midi": 87,
                    "time": 171.99999999999693,
                    "velocity": 0.6929133858267716,
                    "duration": 0.39999999999997726
                },
                {
                    "name": "D#5",
                    "midi": 75,
                    "time": 172.19999999999692,
                    "velocity": 0.2440944881889764,
                    "duration": 0.18999999999999773
                },
                {
                    "name": "G5",
                    "midi": 79,
                    "time": 172.19999999999692,
                    "velocity": 0.2440944881889764,
                    "duration": 0.18999999999999773
                },
                {
                    "name": "C#6",
                    "midi": 85,
                    "time": 172.3999999999969,
                    "velocity": 0.6377952755905512,
                    "duration": 0.39999999999997726
                },
                {
                    "name": "C#5",
                    "midi": 73,
                    "time": 172.5999999999969,
                    "velocity": 0.2204724409448819,
                    "duration": 0.18999999999999773
                },
                {
                    "name": "G5",
                    "midi": 79,
                    "time": 172.5999999999969,
                    "velocity": 0.2204724409448819,
                    "duration": 0.18999999999999773
                },
                {
                    "name": "C#6",
                    "midi": 85,
                    "time": 172.79999999999688,
                    "velocity": 0.5354330708661418,
                    "duration": 0.39999999999997726
                },
                {
                    "name": "D#5",
                    "midi": 75,
                    "time": 172.99999999999687,
                    "velocity": 0.2047244094488189,
                    "duration": 0.18999999999999773
                },
                {
                    "name": "G#5",
                    "midi": 80,
                    "time": 172.99999999999687,
                    "velocity": 0.2047244094488189,
                    "duration": 0.18999999999999773
                },
                {
                    "name": "C6",
                    "midi": 84,
                    "time": 173.19999999999686,
                    "velocity": 0.4645669291338583,
                    "duration": 0.39999999999997726
                },
                {
                    "name": "D#5",
                    "midi": 75,
                    "time": 173.39999999999685,
                    "velocity": 0.2047244094488189,
                    "duration": 0.18999999999999773
                },
                {
                    "name": "G#5",
                    "midi": 80,
                    "time": 173.39999999999685,
                    "velocity": 0.2047244094488189,
                    "duration": 0.18999999999999773
                },
                {
                    "name": "G#5",
                    "midi": 80,
                    "time": 173.59999999999684,
                    "velocity": 0.4566929133858268,
                    "duration": 0.39999999999997726
                },
                {
                    "name": "C5",
                    "midi": 72,
                    "time": 173.79999999999683,
                    "velocity": 0.2047244094488189,
                    "duration": 0.18999999999999773
                },
                {
                    "name": "D#5",
                    "midi": 75,
                    "time": 173.79999999999683,
                    "velocity": 0.2047244094488189,
                    "duration": 0.18999999999999773
                },
                {
                    "name": "D#5",
                    "midi": 75,
                    "time": 173.99999999999682,
                    "velocity": 0.4566929133858268,
                    "duration": 0.39999999999997726
                },
                {
                    "name": "G#4",
                    "midi": 68,
                    "time": 174.1999999999968,
                    "velocity": 0.2047244094488189,
                    "duration": 0.18999999999999773
                },
                {
                    "name": "C5",
                    "midi": 72,
                    "time": 174.1999999999968,
                    "velocity": 0.2047244094488189,
                    "duration": 0.18999999999999773
                },
                {
                    "name": "C5",
                    "midi": 72,
                    "time": 174.3999999999968,
                    "velocity": 0.4566929133858268,
                    "duration": 0.39999999999997726
                },
                {
                    "name": "D#4",
                    "midi": 63,
                    "time": 174.59999999999678,
                    "velocity": 0.2047244094488189,
                    "duration": 0.18999999999999773
                },
                {
                    "name": "G#4",
                    "midi": 68,
                    "time": 174.59999999999678,
                    "velocity": 0.2047244094488189,
                    "duration": 0.18999999999999773
                },
                {
                    "name": "G#4",
                    "midi": 68,
                    "time": 174.79999999999677,
                    "velocity": 0.4566929133858268,
                    "duration": 0.39999999999997726
                },
                {
                    "name": "C4",
                    "midi": 60,
                    "time": 174.99999999999676,
                    "velocity": 0.2047244094488189,
                    "duration": 0.18999999999999773
                },
                {
                    "name": "D#4",
                    "midi": 63,
                    "time": 174.99999999999676,
                    "velocity": 0.2047244094488189,
                    "duration": 0.18999999999999773
                },
                {
                    "name": "G#4",
                    "midi": 68,
                    "time": 175.19999999999675,
                    "velocity": 0.4645669291338583,
                    "duration": 0.39999999999997726
                },
                {
                    "name": "D#4",
                    "midi": 63,
                    "time": 175.39999999999674,
                    "velocity": 0.2047244094488189,
                    "duration": 0.18999999999999773
                },
                {
                    "name": "C4",
                    "midi": 60,
                    "time": 175.39999999999674,
                    "velocity": 0.2047244094488189,
                    "duration": 0.18999999999999773
                },
                {
                    "name": "A4",
                    "midi": 69,
                    "time": 175.59999999999673,
                    "velocity": 0.48031496062992124,
                    "duration": 1.1999999999999318
                },
                {
                    "name": "C4",
                    "midi": 60,
                    "time": 175.79999999999671,
                    "velocity": 0.2047244094488189,
                    "duration": 0.18999999999999773
                },
                {
                    "name": "D#4",
                    "midi": 63,
                    "time": 175.79999999999671,
                    "velocity": 0.2047244094488189,
                    "duration": 0.18999999999999773
                },
                {
                    "name": "C4",
                    "midi": 60,
                    "time": 175.9999999999967,
                    "velocity": 0.2047244094488189,
                    "duration": 0.18999999999999773
                },
                {
                    "name": "D#4",
                    "midi": 63,
                    "time": 175.9999999999967,
                    "velocity": 0.2047244094488189,
                    "duration": 0.18999999999999773
                },
                {
                    "name": "C4",
                    "midi": 60,
                    "time": 176.1999999999967,
                    "velocity": 0.2047244094488189,
                    "duration": 0.18999999999999773
                },
                {
                    "name": "D#4",
                    "midi": 63,
                    "time": 176.1999999999967,
                    "velocity": 0.2047244094488189,
                    "duration": 0.18999999999999773
                },
                {
                    "name": "C4",
                    "midi": 60,
                    "time": 176.39999999999668,
                    "velocity": 0.2047244094488189,
                    "duration": 0.18999999999999773
                },
                {
                    "name": "D#4",
                    "midi": 63,
                    "time": 176.39999999999668,
                    "velocity": 0.2047244094488189,
                    "duration": 0.18999999999999773
                },
                {
                    "name": "C4",
                    "midi": 60,
                    "time": 176.59999999999667,
                    "velocity": 0.2047244094488189,
                    "duration": 0.18999999999999773
                },
                {
                    "name": "D#4",
                    "midi": 63,
                    "time": 176.59999999999667,
                    "velocity": 0.2047244094488189,
                    "duration": 0.18999999999999773
                },
                {
                    "name": "G#4",
                    "midi": 68,
                    "time": 176.79999999999666,
                    "velocity": 0.47244094488188976,
                    "duration": 0.39999999999997726
                },
                {
                    "name": "C4",
                    "midi": 60,
                    "time": 176.99999999999665,
                    "velocity": 0.2047244094488189,
                    "duration": 0.18999999999999773
                },
                {
                    "name": "D#4",
                    "midi": 63,
                    "time": 176.99999999999665,
                    "velocity": 0.2047244094488189,
                    "duration": 0.18999999999999773
                },
                {
                    "name": "F#4",
                    "midi": 66,
                    "time": 177.19999999999663,
                    "velocity": 0.4409448818897638,
                    "duration": 0.39999999999997726
                },
                {
                    "name": "C4",
                    "midi": 60,
                    "time": 177.39999999999662,
                    "velocity": 0.2677165354330709,
                    "duration": 0.19999999999998863
                },
                {
                    "name": "D#4",
                    "midi": 63,
                    "time": 177.39999999999662,
                    "velocity": 0.2047244094488189,
                    "duration": 0.19999999999998863
                },
                {
                    "name": "E4",
                    "midi": 64,
                    "time": 177.5999999999966,
                    "velocity": 0.5511811023622047,
                    "duration": 0.39999999999997726
                },
                {
                    "name": "G#3",
                    "midi": 56,
                    "time": 177.7999999999966,
                    "velocity": 0.2047244094488189,
                    "duration": 0.18999999999999773
                },
                {
                    "name": "C#4",
                    "midi": 61,
                    "time": 177.7999999999966,
                    "velocity": 0.2047244094488189,
                    "duration": 0.18999999999999773
                },
                {
                    "name": "G#4",
                    "midi": 68,
                    "time": 177.9999999999966,
                    "velocity": 0.5039370078740157,
                    "duration": 0.39999999999997726
                },
                {
                    "name": "E4",
                    "midi": 64,
                    "time": 178.19999999999658,
                    "velocity": 0.2283464566929134,
                    "duration": 0.18999999999999773
                },
                {
                    "name": "C#4",
                    "midi": 61,
                    "time": 178.19999999999658,
                    "velocity": 0.2283464566929134,
                    "duration": 0.18999999999999773
                },
                {
                    "name": "C#5",
                    "midi": 73,
                    "time": 178.39999999999657,
                    "velocity": 0.5354330708661418,
                    "duration": 0.39999999999997726
                },
                {
                    "name": "E4",
                    "midi": 64,
                    "time": 178.59999999999656,
                    "velocity": 0.2440944881889764,
                    "duration": 0.18999999999999773
                },
                {
                    "name": "G#4",
                    "midi": 68,
                    "time": 178.59999999999656,
                    "velocity": 0.2440944881889764,
                    "duration": 0.18999999999999773
                },
                {
                    "name": "E5",
                    "midi": 76,
                    "time": 178.79999999999654,
                    "velocity": 0.6062992125984252,
                    "duration": 0.39999999999997726
                },
                {
                    "name": "G#4",
                    "midi": 68,
                    "time": 178.99999999999653,
                    "velocity": 0.2677165354330709,
                    "duration": 0.18999999999999773
                },
                {
                    "name": "C#5",
                    "midi": 73,
                    "time": 178.99999999999653,
                    "velocity": 0.2677165354330709,
                    "duration": 0.18999999999999773
                },
                {
                    "name": "G#5",
                    "midi": 80,
                    "time": 179.19999999999652,
                    "velocity": 0.5905511811023622,
                    "duration": 0.39999999999997726
                },
                {
                    "name": "C#5",
                    "midi": 73,
                    "time": 179.3999999999965,
                    "velocity": 0.29133858267716534,
                    "duration": 0.18999999999999773
                },
                {
                    "name": "E5",
                    "midi": 76,
                    "time": 179.3999999999965,
                    "velocity": 0.29133858267716534,
                    "duration": 0.18999999999999773
                },
                {
                    "name": "C#6",
                    "midi": 85,
                    "time": 179.5999999999965,
                    "velocity": 0.6220472440944882,
                    "duration": 0.39999999999997726
                },
                {
                    "name": "E5",
                    "midi": 76,
                    "time": 179.7999999999965,
                    "velocity": 0.30708661417322836,
                    "duration": 0.18999999999999773
                },
                {
                    "name": "G#5",
                    "midi": 80,
                    "time": 179.7999999999965,
                    "velocity": 0.30708661417322836,
                    "duration": 0.18999999999999773
                },
                {
                    "name": "D#6",
                    "midi": 87,
                    "time": 179.99999999999648,
                    "velocity": 0.7795275590551181,
                    "duration": 0.39999999999997726
                },
                {
                    "name": "D#5",
                    "midi": 75,
                    "time": 180.19999999999646,
                    "velocity": 0.4015748031496063,
                    "duration": 0.18999999999999773
                },
                {
                    "name": "G5",
                    "midi": 79,
                    "time": 180.19999999999646,
                    "velocity": 0.4015748031496063,
                    "duration": 0.18999999999999773
                },
                {
                    "name": "E6",
                    "midi": 88,
                    "time": 180.39999999999645,
                    "velocity": 0.7559055118110236,
                    "duration": 1.1999999999999318
                },
                {
                    "name": "G5",
                    "midi": 79,
                    "time": 180.59999999999644,
                    "velocity": 0.3543307086614173,
                    "duration": 0.18999999999999773
                },
                {
                    "name": "E5",
                    "midi": 76,
                    "time": 180.59999999999644,
                    "velocity": 0.3543307086614173,
                    "duration": 0.18999999999999773
                },
                {
                    "name": "G5",
                    "midi": 79,
                    "time": 180.79999999999643,
                    "velocity": 0.31496062992125984,
                    "duration": 0.18999999999999773
                },
                {
                    "name": "E5",
                    "midi": 76,
                    "time": 180.79999999999643,
                    "velocity": 0.31496062992125984,
                    "duration": 0.18999999999999773
                },
                {
                    "name": "G5",
                    "midi": 79,
                    "time": 180.99999999999642,
                    "velocity": 0.30708661417322836,
                    "duration": 0.18999999999999773
                },
                {
                    "name": "E5",
                    "midi": 76,
                    "time": 180.99999999999642,
                    "velocity": 0.30708661417322836,
                    "duration": 0.18999999999999773
                },
                {
                    "name": "G5",
                    "midi": 79,
                    "time": 181.1999999999964,
                    "velocity": 0.29133858267716534,
                    "duration": 0.18999999999999773
                },
                {
                    "name": "E5",
                    "midi": 76,
                    "time": 181.1999999999964,
                    "velocity": 0.29133858267716534,
                    "duration": 0.18999999999999773
                },
                {
                    "name": "E5",
                    "midi": 76,
                    "time": 181.3999999999964,
                    "velocity": 0.29133858267716534,
                    "duration": 0.18999999999999773
                },
                {
                    "name": "G5",
                    "midi": 79,
                    "time": 181.3999999999964,
                    "velocity": 0.29133858267716534,
                    "duration": 0.18999999999999773
                },
                {
                    "name": "D#6",
                    "midi": 87,
                    "time": 181.59999999999638,
                    "velocity": 0.6929133858267716,
                    "duration": 0.39999999999997726
                },
                {
                    "name": "D#5",
                    "midi": 75,
                    "time": 181.79999999999637,
                    "velocity": 0.2440944881889764,
                    "duration": 0.18999999999999773
                },
                {
                    "name": "G5",
                    "midi": 79,
                    "time": 181.79999999999637,
                    "velocity": 0.2440944881889764,
                    "duration": 0.18999999999999773
                },
                {
                    "name": "C#6",
                    "midi": 85,
                    "time": 181.99999999999636,
                    "velocity": 0.6377952755905512,
                    "duration": 0.39999999999997726
                },
                {
                    "name": "C#5",
                    "midi": 73,
                    "time": 182.19999999999635,
                    "velocity": 0.2204724409448819,
                    "duration": 0.19999999999998863
                },
                {
                    "name": "G5",
                    "midi": 79,
                    "time": 182.19999999999635,
                    "velocity": 0.2204724409448819,
                    "duration": 0.19999999999998863
                },
                {
                    "name": "C#6",
                    "midi": 85,
                    "time": 182.39999999999634,
                    "velocity": 0.5590551181102362,
                    "duration": 1.1999999999999318
                },
                {
                    "name": "C#5",
                    "midi": 73,
                    "time": 182.59999999999633,
                    "velocity": 0.18110236220472442,
                    "duration": 0.18999999999999773
                },
                {
                    "name": "E5",
                    "midi": 76,
                    "time": 182.59999999999633,
                    "velocity": 0.18110236220472442,
                    "duration": 0.18999999999999773
                },
                {
                    "name": "G#5",
                    "midi": 80,
                    "time": 182.59999999999633,
                    "velocity": 0.2125984251968504,
                    "duration": 0.18999999999999773
                },
                {
                    "name": "C#5",
                    "midi": 73,
                    "time": 182.79999999999632,
                    "velocity": 0.18110236220472442,
                    "duration": 0.18999999999999773
                },
                {
                    "name": "E5",
                    "midi": 76,
                    "time": 182.79999999999632,
                    "velocity": 0.18110236220472442,
                    "duration": 0.18999999999999773
                },
                {
                    "name": "G#5",
                    "midi": 80,
                    "time": 182.79999999999632,
                    "velocity": 0.2125984251968504,
                    "duration": 0.18999999999999773
                },
                {
                    "name": "C#5",
                    "midi": 73,
                    "time": 182.9999999999963,
                    "velocity": 0.18110236220472442,
                    "duration": 0.18999999999999773
                },
                {
                    "name": "E5",
                    "midi": 76,
                    "time": 182.9999999999963,
                    "velocity": 0.18110236220472442,
                    "duration": 0.18999999999999773
                },
                {
                    "name": "G#5",
                    "midi": 80,
                    "time": 182.9999999999963,
                    "velocity": 0.2125984251968504,
                    "duration": 0.18999999999999773
                },
                {
                    "name": "C#5",
                    "midi": 73,
                    "time": 183.1999999999963,
                    "velocity": 0.18110236220472442,
                    "duration": 0.18999999999999773
                },
                {
                    "name": "E5",
                    "midi": 76,
                    "time": 183.1999999999963,
                    "velocity": 0.18110236220472442,
                    "duration": 0.18999999999999773
                },
                {
                    "name": "G#5",
                    "midi": 80,
                    "time": 183.1999999999963,
                    "velocity": 0.2125984251968504,
                    "duration": 0.18999999999999773
                },
                {
                    "name": "C#5",
                    "midi": 73,
                    "time": 183.39999999999628,
                    "velocity": 0.15748031496062992,
                    "duration": 0.18999999999999773
                },
                {
                    "name": "E5",
                    "midi": 76,
                    "time": 183.39999999999628,
                    "velocity": 0.15748031496062992,
                    "duration": 0.18999999999999773
                },
                {
                    "name": "G#5",
                    "midi": 80,
                    "time": 183.39999999999628,
                    "velocity": 0.1968503937007874,
                    "duration": 0.18999999999999773
                },
                {
                    "name": "G#5",
                    "midi": 80,
                    "time": 183.59999999999627,
                    "velocity": 0.47244094488188976,
                    "duration": 1.1999999999999318
                },
                {
                    "name": "C5",
                    "midi": 72,
                    "time": 183.79999999999626,
                    "velocity": 0.1732283464566929,
                    "duration": 0.18999999999999773
                },
                {
                    "name": "D#5",
                    "midi": 75,
                    "time": 183.79999999999626,
                    "velocity": 0.1732283464566929,
                    "duration": 0.18999999999999773
                },
                {
                    "name": "C5",
                    "midi": 72,
                    "time": 183.99999999999625,
                    "velocity": 0.15748031496062992,
                    "duration": 0.18999999999999773
                },
                {
                    "name": "D#5",
                    "midi": 75,
                    "time": 183.99999999999625,
                    "velocity": 0.15748031496062992,
                    "duration": 0.18999999999999773
                },
                {
                    "name": "C5",
                    "midi": 72,
                    "time": 184.19999999999624,
                    "velocity": 0.15748031496062992,
                    "duration": 0.18999999999999773
                },
                {
                    "name": "D#5",
                    "midi": 75,
                    "time": 184.19999999999624,
                    "velocity": 0.15748031496062992,
                    "duration": 0.18999999999999773
                },
                {
                    "name": "C5",
                    "midi": 72,
                    "time": 184.39999999999623,
                    "velocity": 0.15748031496062992,
                    "duration": 0.18999999999999773
                },
                {
                    "name": "D#5",
                    "midi": 75,
                    "time": 184.39999999999623,
                    "velocity": 0.15748031496062992,
                    "duration": 0.18999999999999773
                },
                {
                    "name": "C5",
                    "midi": 72,
                    "time": 184.59999999999621,
                    "velocity": 0.15748031496062992,
                    "duration": 0.18999999999999773
                },
                {
                    "name": "D#5",
                    "midi": 75,
                    "time": 184.59999999999621,
                    "velocity": 0.15748031496062992,
                    "duration": 0.18999999999999773
                },
                {
                    "name": "G#4",
                    "midi": 68,
                    "time": 184.7999999999962,
                    "velocity": 0.3779527559055118,
                    "duration": 1.1999999999999318
                },
                {
                    "name": "F4",
                    "midi": 65,
                    "time": 184.9999999999962,
                    "velocity": 0.2125984251968504,
                    "duration": 0.18999999999999773
                },
                {
                    "name": "G#3",
                    "midi": 56,
                    "time": 184.9999999999962,
                    "velocity": 0.2125984251968504,
                    "duration": 0.18999999999999773
                },
                {
                    "name": "F4",
                    "midi": 65,
                    "time": 185.19999999999618,
                    "velocity": 0.2047244094488189,
                    "duration": 0.18999999999999773
                },
                {
                    "name": "G#3",
                    "midi": 56,
                    "time": 185.19999999999618,
                    "velocity": 0.2047244094488189,
                    "duration": 0.18999999999999773
                },
                {
                    "name": "F4",
                    "midi": 65,
                    "time": 185.39999999999617,
                    "velocity": 0.2047244094488189,
                    "duration": 0.18999999999999773
                },
                {
                    "name": "G#3",
                    "midi": 56,
                    "time": 185.39999999999617,
                    "velocity": 0.2047244094488189,
                    "duration": 0.18999999999999773
                },
                {
                    "name": "F4",
                    "midi": 65,
                    "time": 185.59999999999616,
                    "velocity": 0.2047244094488189,
                    "duration": 0.18999999999999773
                },
                {
                    "name": "G#3",
                    "midi": 56,
                    "time": 185.59999999999616,
                    "velocity": 0.2047244094488189,
                    "duration": 0.18999999999999773
                },
                {
                    "name": "F4",
                    "midi": 65,
                    "time": 185.79999999999615,
                    "velocity": 0.2047244094488189,
                    "duration": 0.19999999999998863
                },
                {
                    "name": "G#3",
                    "midi": 56,
                    "time": 185.79999999999615,
                    "velocity": 0.2047244094488189,
                    "duration": 0.19999999999998863
                },
                {
                    "name": "G#4",
                    "midi": 68,
                    "time": 185.99999999999613,
                    "velocity": 0.3543307086614173,
                    "duration": 0.39999999999997726
                },
                {
                    "name": "F4",
                    "midi": 65,
                    "time": 186.19999999999612,
                    "velocity": 0.2047244094488189,
                    "duration": 0.18999999999999773
                },
                {
                    "name": "G#3",
                    "midi": 56,
                    "time": 186.19999999999612,
                    "velocity": 0.2047244094488189,
                    "duration": 0.18999999999999773
                },
                {
                    "name": "A#4",
                    "midi": 70,
                    "time": 186.3999999999961,
                    "velocity": 0.4094488188976378,
                    "duration": 0.39999999999997726
                },
                {
                    "name": "A#3",
                    "midi": 58,
                    "time": 186.5999999999961,
                    "velocity": 0.2125984251968504,
                    "duration": 0.18999999999999773
                },
                {
                    "name": "F4",
                    "midi": 65,
                    "time": 186.5999999999961,
                    "velocity": 0.2125984251968504,
                    "duration": 0.18999999999999773
                },
                {
                    "name": "G#4",
                    "midi": 68,
                    "time": 186.7999999999961,
                    "velocity": 0.3543307086614173,
                    "duration": 0.39999999999997726
                },
                {
                    "name": "F4",
                    "midi": 65,
                    "time": 186.99999999999608,
                    "velocity": 0.2047244094488189,
                    "duration": 0.19999999999998863
                },
                {
                    "name": "G#3",
                    "midi": 56,
                    "time": 186.99999999999608,
                    "velocity": 0.2047244094488189,
                    "duration": 0.18999999999999773
                },
                {
                    "name": "A#4",
                    "midi": 70,
                    "time": 187.19999999999607,
                    "velocity": 0.44881889763779526,
                    "duration": 1.1999999999999318
                },
                {
                    "name": "G#3",
                    "midi": 56,
                    "time": 187.39999999999606,
                    "velocity": 0.2047244094488189,
                    "duration": 0.18999999999999773
                },
                {
                    "name": "F#4",
                    "midi": 66,
                    "time": 187.39999999999606,
                    "velocity": 0.2047244094488189,
                    "duration": 0.18999999999999773
                },
                {
                    "name": "G#3",
                    "midi": 56,
                    "time": 187.59999999999604,
                    "velocity": 0.2047244094488189,
                    "duration": 0.18999999999999773
                },
                {
                    "name": "F#4",
                    "midi": 66,
                    "time": 187.59999999999604,
                    "velocity": 0.2047244094488189,
                    "duration": 0.18999999999999773
                },
                {
                    "name": "G#3",
                    "midi": 56,
                    "time": 187.79999999999603,
                    "velocity": 0.2047244094488189,
                    "duration": 0.18999999999999773
                },
                {
                    "name": "F#4",
                    "midi": 66,
                    "time": 187.79999999999603,
                    "velocity": 0.2047244094488189,
                    "duration": 0.18999999999999773
                },
                {
                    "name": "G#3",
                    "midi": 56,
                    "time": 187.99999999999602,
                    "velocity": 0.2047244094488189,
                    "duration": 0.18999999999999773
                },
                {
                    "name": "F#4",
                    "midi": 66,
                    "time": 187.99999999999602,
                    "velocity": 0.2047244094488189,
                    "duration": 0.18999999999999773
                },
                {
                    "name": "G#3",
                    "midi": 56,
                    "time": 188.199999999996,
                    "velocity": 0.2047244094488189,
                    "duration": 0.18999999999999773
                },
                {
                    "name": "F#4",
                    "midi": 66,
                    "time": 188.199999999996,
                    "velocity": 0.2047244094488189,
                    "duration": 0.18999999999999773
                },
                {
                    "name": "G#4",
                    "midi": 68,
                    "time": 188.399999999996,
                    "velocity": 0.3937007874015748,
                    "duration": 1.1999999999999318
                },
                {
                    "name": "G#3",
                    "midi": 56,
                    "time": 188.599999999996,
                    "velocity": 0.2204724409448819,
                    "duration": 0.18999999999999773
                },
                {
                    "name": "F#4",
                    "midi": 66,
                    "time": 188.599999999996,
                    "velocity": 0.2204724409448819,
                    "duration": 0.18999999999999773
                },
                {
                    "name": "G#3",
                    "midi": 56,
                    "time": 188.79999999999598,
                    "velocity": 0.2283464566929134,
                    "duration": 0.18999999999999773
                },
                {
                    "name": "F#4",
                    "midi": 66,
                    "time": 188.79999999999598,
                    "velocity": 0.2283464566929134,
                    "duration": 0.18999999999999773
                },
                {
                    "name": "G#3",
                    "midi": 56,
                    "time": 188.99999999999596,
                    "velocity": 0.2283464566929134,
                    "duration": 0.18999999999999773
                },
                {
                    "name": "F#4",
                    "midi": 66,
                    "time": 188.99999999999596,
                    "velocity": 0.2283464566929134,
                    "duration": 0.18999999999999773
                },
                {
                    "name": "G#3",
                    "midi": 56,
                    "time": 189.19999999999595,
                    "velocity": 0.2283464566929134,
                    "duration": 0.18999999999999773
                },
                {
                    "name": "F#4",
                    "midi": 66,
                    "time": 189.19999999999595,
                    "velocity": 0.2283464566929134,
                    "duration": 0.18999999999999773
                },
                {
                    "name": "G#3",
                    "midi": 56,
                    "time": 189.39999999999594,
                    "velocity": 0.2283464566929134,
                    "duration": 0.18999999999999773
                },
                {
                    "name": "F#4",
                    "midi": 66,
                    "time": 189.39999999999594,
                    "velocity": 0.2283464566929134,
                    "duration": 0.18999999999999773
                },
                {
                    "name": "G#4",
                    "midi": 68,
                    "time": 189.59999999999593,
                    "velocity": 0.4094488188976378,
                    "duration": 1.1999999999999318
                },
                {
                    "name": "F4",
                    "midi": 65,
                    "time": 189.79999999999592,
                    "velocity": 0.2047244094488189,
                    "duration": 0.18999999999999773
                },
                {
                    "name": "G#3",
                    "midi": 56,
                    "time": 189.79999999999592,
                    "velocity": 0.2047244094488189,
                    "duration": 0.18999999999999773
                },
                {
                    "name": "F4",
                    "midi": 65,
                    "time": 189.9999999999959,
                    "velocity": 0.2047244094488189,
                    "duration": 0.18999999999999773
                },
                {
                    "name": "G#3",
                    "midi": 56,
                    "time": 189.9999999999959,
                    "velocity": 0.2047244094488189,
                    "duration": 0.18999999999999773
                },
                {
                    "name": "F4",
                    "midi": 65,
                    "time": 190.1999999999959,
                    "velocity": 0.2047244094488189,
                    "duration": 0.18999999999999773
                },
                {
                    "name": "G#3",
                    "midi": 56,
                    "time": 190.1999999999959,
                    "velocity": 0.2047244094488189,
                    "duration": 0.18999999999999773
                },
                {
                    "name": "F4",
                    "midi": 65,
                    "time": 190.39999999999588,
                    "velocity": 0.2047244094488189,
                    "duration": 0.18999999999999773
                },
                {
                    "name": "G#3",
                    "midi": 56,
                    "time": 190.39999999999588,
                    "velocity": 0.2047244094488189,
                    "duration": 0.18999999999999773
                },
                {
                    "name": "F4",
                    "midi": 65,
                    "time": 190.59999999999587,
                    "velocity": 0.2125984251968504,
                    "duration": 0.18999999999999773
                },
                {
                    "name": "G#3",
                    "midi": 56,
                    "time": 190.59999999999587,
                    "velocity": 0.2125984251968504,
                    "duration": 0.18999999999999773
                },
                {
                    "name": "F5",
                    "midi": 77,
                    "time": 190.79999999999586,
                    "velocity": 0.5039370078740157,
                    "duration": 0.39999999999997726
                },
                {
                    "name": "F4",
                    "midi": 65,
                    "time": 190.99999999999585,
                    "velocity": 0.2204724409448819,
                    "duration": 0.18999999999999773
                },
                {
                    "name": "G#4",
                    "midi": 68,
                    "time": 190.99999999999585,
                    "velocity": 0.2204724409448819,
                    "duration": 0.18999999999999773
                },
                {
                    "name": "D#5",
                    "midi": 75,
                    "time": 191.19999999999584,
                    "velocity": 0.4645669291338583,
                    "duration": 0.39999999999997726
                },
                {
                    "name": "D#4",
                    "midi": 63,
                    "time": 191.39999999999583,
                    "velocity": 0.2125984251968504,
                    "duration": 0.18999999999999773
                },
                {
                    "name": "G#4",
                    "midi": 68,
                    "time": 191.39999999999583,
                    "velocity": 0.2125984251968504,
                    "duration": 0.18999999999999773
                },
                {
                    "name": "C#5",
                    "midi": 73,
                    "time": 191.59999999999582,
                    "velocity": 0.47244094488188976,
                    "duration": 0.39999999999997726
                },
                {
                    "name": "C#4",
                    "midi": 61,
                    "time": 191.7999999999958,
                    "velocity": 0.2125984251968504,
                    "duration": 0.18999999999999773
                },
                {
                    "name": "G#4",
                    "midi": 68,
                    "time": 191.7999999999958,
                    "velocity": 0.2125984251968504,
                    "duration": 0.18999999999999773
                },
                {
                    "name": "C#5",
                    "midi": 73,
                    "time": 191.9999999999958,
                    "velocity": 0.47244094488188976,
                    "duration": 1.1999999999999318
                },
                {
                    "name": "C#4",
                    "midi": 61,
                    "time": 192.19999999999578,
                    "velocity": 0.2125984251968504,
                    "duration": 0.18999999999999773
                },
                {
                    "name": "G#4",
                    "midi": 68,
                    "time": 192.19999999999578,
                    "velocity": 0.2125984251968504,
                    "duration": 0.18999999999999773
                },
                {
                    "name": "C#4",
                    "midi": 61,
                    "time": 192.39999999999577,
                    "velocity": 0.2125984251968504,
                    "duration": 0.18999999999999773
                },
                {
                    "name": "G#4",
                    "midi": 68,
                    "time": 192.39999999999577,
                    "velocity": 0.2125984251968504,
                    "duration": 0.18999999999999773
                },
                {
                    "name": "C#4",
                    "midi": 61,
                    "time": 192.59999999999576,
                    "velocity": 0.2125984251968504,
                    "duration": 0.18999999999999773
                },
                {
                    "name": "G#4",
                    "midi": 68,
                    "time": 192.59999999999576,
                    "velocity": 0.2125984251968504,
                    "duration": 0.18999999999999773
                },
                {
                    "name": "C#4",
                    "midi": 61,
                    "time": 192.79999999999575,
                    "velocity": 0.2125984251968504,
                    "duration": 0.18999999999999773
                },
                {
                    "name": "G#4",
                    "midi": 68,
                    "time": 192.79999999999575,
                    "velocity": 0.2125984251968504,
                    "duration": 0.18999999999999773
                },
                {
                    "name": "C#4",
                    "midi": 61,
                    "time": 192.99999999999574,
                    "velocity": 0.2125984251968504,
                    "duration": 0.18999999999999773
                },
                {
                    "name": "G#4",
                    "midi": 68,
                    "time": 192.99999999999574,
                    "velocity": 0.2125984251968504,
                    "duration": 0.18999999999999773
                },
                {
                    "name": "C5",
                    "midi": 72,
                    "time": 193.19999999999573,
                    "velocity": 0.48031496062992124,
                    "duration": 1.1999999999999318
                },
                {
                    "name": "C4",
                    "midi": 60,
                    "time": 193.3999999999957,
                    "velocity": 0.2125984251968504,
                    "duration": 0.18999999999999773
                },
                {
                    "name": "G#4",
                    "midi": 68,
                    "time": 193.3999999999957,
                    "velocity": 0.2125984251968504,
                    "duration": 0.18999999999999773
                },
                {
                    "name": "C4",
                    "midi": 60,
                    "time": 193.5999999999957,
                    "velocity": 0.2125984251968504,
                    "duration": 0.18999999999999773
                },
                {
                    "name": "G#4",
                    "midi": 68,
                    "time": 193.5999999999957,
                    "velocity": 0.2125984251968504,
                    "duration": 0.18999999999999773
                },
                {
                    "name": "C4",
                    "midi": 60,
                    "time": 193.7999999999957,
                    "velocity": 0.2125984251968504,
                    "duration": 0.18999999999999773
                },
                {
                    "name": "G#4",
                    "midi": 68,
                    "time": 193.7999999999957,
                    "velocity": 0.2125984251968504,
                    "duration": 0.18999999999999773
                },
                {
                    "name": "C4",
                    "midi": 60,
                    "time": 193.99999999999568,
                    "velocity": 0.2125984251968504,
                    "duration": 0.18999999999999773
                },
                {
                    "name": "G#4",
                    "midi": 68,
                    "time": 193.99999999999568,
                    "velocity": 0.2125984251968504,
                    "duration": 0.18999999999999773
                },
                {
                    "name": "C4",
                    "midi": 60,
                    "time": 194.19999999999567,
                    "velocity": 0.2125984251968504,
                    "duration": 0.18999999999999773
                },
                {
                    "name": "G#4",
                    "midi": 68,
                    "time": 194.19999999999567,
                    "velocity": 0.2125984251968504,
                    "duration": 0.18999999999999773
                },
                {
                    "name": "C5",
                    "midi": 72,
                    "time": 194.39999999999566,
                    "velocity": 0.4566929133858268,
                    "duration": 0.39999999999997726
                },
                {
                    "name": "C4",
                    "midi": 60,
                    "time": 194.59999999999565,
                    "velocity": 0.2755905511811024,
                    "duration": 0.18999999999999773
                },
                {
                    "name": "A4",
                    "midi": 69,
                    "time": 194.59999999999565,
                    "velocity": 0.2755905511811024,
                    "duration": 0.18999999999999773
                },
                {
                    "name": "C#5",
                    "midi": 73,
                    "time": 194.79999999999563,
                    "velocity": 0.5354330708661418,
                    "duration": 1.1999999999999318
                },
                {
                    "name": "C#4",
                    "midi": 61,
                    "time": 194.99999999999562,
                    "velocity": 0.2755905511811024,
                    "duration": 0.18999999999999773
                },
                {
                    "name": "A4",
                    "midi": 69,
                    "time": 194.99999999999562,
                    "velocity": 0.2755905511811024,
                    "duration": 0.18999999999999773
                },
                {
                    "name": "C#4",
                    "midi": 61,
                    "time": 195.1999999999956,
                    "velocity": 0.2755905511811024,
                    "duration": 0.18999999999999773
                },
                {
                    "name": "A4",
                    "midi": 69,
                    "time": 195.1999999999956,
                    "velocity": 0.2755905511811024,
                    "duration": 0.18999999999999773
                },
                {
                    "name": "C#4",
                    "midi": 61,
                    "time": 195.3999999999956,
                    "velocity": 0.2755905511811024,
                    "duration": 0.18999999999999773
                },
                {
                    "name": "A4",
                    "midi": 69,
                    "time": 195.3999999999956,
                    "velocity": 0.2755905511811024,
                    "duration": 0.18999999999999773
                },
                {
                    "name": "C#4",
                    "midi": 61,
                    "time": 195.5999999999956,
                    "velocity": 0.2755905511811024,
                    "duration": 0.18999999999999773
                },
                {
                    "name": "A4",
                    "midi": 69,
                    "time": 195.5999999999956,
                    "velocity": 0.2755905511811024,
                    "duration": 0.18999999999999773
                },
                {
                    "name": "C#4",
                    "midi": 61,
                    "time": 195.79999999999558,
                    "velocity": 0.2755905511811024,
                    "duration": 0.18999999999999773
                },
                {
                    "name": "A4",
                    "midi": 69,
                    "time": 195.79999999999558,
                    "velocity": 0.2755905511811024,
                    "duration": 0.18999999999999773
                },
                {
                    "name": "C#5",
                    "midi": 73,
                    "time": 195.99999999999557,
                    "velocity": 0.5511811023622047,
                    "duration": 0.39999999999997726
                },
                {
                    "name": "C#4",
                    "midi": 61,
                    "time": 196.19999999999555,
                    "velocity": 0.2755905511811024,
                    "duration": 0.19999999999998863
                },
                {
                    "name": "A4",
                    "midi": 69,
                    "time": 196.19999999999555,
                    "velocity": 0.2755905511811024,
                    "duration": 0.19999999999998863
                },
                {
                    "name": "C#5",
                    "midi": 73,
                    "time": 196.39999999999554,
                    "velocity": 0.5433070866141733,
                    "duration": 0.39999999999997726
                },
                {
                    "name": "C#4",
                    "midi": 61,
                    "time": 196.59999999999553,
                    "velocity": 0.2755905511811024,
                    "duration": 0.19999999999998863
                },
                {
                    "name": "A4",
                    "midi": 69,
                    "time": 196.59999999999553,
                    "velocity": 0.2755905511811024,
                    "duration": 0.19999999999998863
                },
                {
                    "name": "C#5",
                    "midi": 73,
                    "time": 196.79999999999552,
                    "velocity": 0.5511811023622047,
                    "duration": 0.39999999999997726
                },
                {
                    "name": "C#4",
                    "midi": 61,
                    "time": 196.9999999999955,
                    "velocity": 0.3464566929133858,
                    "duration": 0.18999999999999773
                },
                {
                    "name": "G#4",
                    "midi": 68,
                    "time": 196.9999999999955,
                    "velocity": 0.3464566929133858,
                    "duration": 0.18999999999999773
                },
                {
                    "name": "D5",
                    "midi": 74,
                    "time": 197.1999999999955,
                    "velocity": 0.6141732283464567,
                    "duration": 1.1999999999999318
                },
                {
                    "name": "D4",
                    "midi": 62,
                    "time": 197.3999999999955,
                    "velocity": 0.3464566929133858,
                    "duration": 0.18999999999999773
                },
                {
                    "name": "G#4",
                    "midi": 68,
                    "time": 197.3999999999955,
                    "velocity": 0.3464566929133858,
                    "duration": 0.18999999999999773
                },
                {
                    "name": "D4",
                    "midi": 62,
                    "time": 197.59999999999548,
                    "velocity": 0.3464566929133858,
                    "duration": 0.18999999999999773
                },
                {
                    "name": "G#4",
                    "midi": 68,
                    "time": 197.59999999999548,
                    "velocity": 0.3464566929133858,
                    "duration": 0.18999999999999773
                },
                {
                    "name": "D4",
                    "midi": 62,
                    "time": 197.79999999999546,
                    "velocity": 0.3464566929133858,
                    "duration": 0.18999999999999773
                },
                {
                    "name": "G#4",
                    "midi": 68,
                    "time": 197.79999999999546,
                    "velocity": 0.3464566929133858,
                    "duration": 0.18999999999999773
                },
                {
                    "name": "D4",
                    "midi": 62,
                    "time": 197.99999999999545,
                    "velocity": 0.3464566929133858,
                    "duration": 0.18999999999999773
                },
                {
                    "name": "G#4",
                    "midi": 68,
                    "time": 197.99999999999545,
                    "velocity": 0.3464566929133858,
                    "duration": 0.18999999999999773
                },
                {
                    "name": "D4",
                    "midi": 62,
                    "time": 198.19999999999544,
                    "velocity": 0.3464566929133858,
                    "duration": 0.18999999999999773
                },
                {
                    "name": "G#4",
                    "midi": 68,
                    "time": 198.19999999999544,
                    "velocity": 0.3464566929133858,
                    "duration": 0.18999999999999773
                },
                {
                    "name": "D5",
                    "midi": 74,
                    "time": 198.39999999999543,
                    "velocity": 0.5905511811023622,
                    "duration": 0.39999999999997726
                },
                {
                    "name": "D4",
                    "midi": 62,
                    "time": 198.59999999999542,
                    "velocity": 0.3464566929133858,
                    "duration": 0.19999999999998863
                },
                {
                    "name": "G#4",
                    "midi": 68,
                    "time": 198.59999999999542,
                    "velocity": 0.3464566929133858,
                    "duration": 0.19999999999998863
                },
                {
                    "name": "D5",
                    "midi": 74,
                    "time": 198.7999999999954,
                    "velocity": 0.5905511811023622,
                    "duration": 0.39999999999997726
                },
                {
                    "name": "D4",
                    "midi": 62,
                    "time": 198.9999999999954,
                    "velocity": 0.3464566929133858,
                    "duration": 0.19999999999998863
                },
                {
                    "name": "G#4",
                    "midi": 68,
                    "time": 198.9999999999954,
                    "velocity": 0.3464566929133858,
                    "duration": 0.19999999999998863
                },
                {
                    "name": "F5",
                    "midi": 77,
                    "time": 199.19999999999538,
                    "velocity": 0.6614173228346457,
                    "duration": 0.39999999999997726
                },
                {
                    "name": "F4",
                    "midi": 65,
                    "time": 199.39999999999537,
                    "velocity": 0.36220472440944884,
                    "duration": 0.18999999999999773
                },
                {
                    "name": "D5",
                    "midi": 74,
                    "time": 199.39999999999537,
                    "velocity": 0.36220472440944884,
                    "duration": 0.18999999999999773
                },
                {
                    "name": "F#5",
                    "midi": 78,
                    "time": 199.59999999999536,
                    "velocity": 0.6929133858267716,
                    "duration": 1.1999999999999318
                },
                {
                    "name": "F#4",
                    "midi": 66,
                    "time": 199.79999999999535,
                    "velocity": 0.3779527559055118,
                    "duration": 0.18999999999999773
                },
                {
                    "name": "D5",
                    "midi": 74,
                    "time": 199.79999999999535,
                    "velocity": 0.3779527559055118,
                    "duration": 0.18999999999999773
                },
                {
                    "name": "F#4",
                    "midi": 66,
                    "time": 199.99999999999534,
                    "velocity": 0.3700787401574803,
                    "duration": 0.18999999999999773
                },
                {
                    "name": "D5",
                    "midi": 74,
                    "time": 199.99999999999534,
                    "velocity": 0.3700787401574803,
                    "duration": 0.18999999999999773
                },
                {
                    "name": "F#4",
                    "midi": 66,
                    "time": 200.19999999999533,
                    "velocity": 0.3700787401574803,
                    "duration": 0.18999999999999773
                },
                {
                    "name": "D5",
                    "midi": 74,
                    "time": 200.19999999999533,
                    "velocity": 0.3700787401574803,
                    "duration": 0.18999999999999773
                },
                {
                    "name": "F#4",
                    "midi": 66,
                    "time": 200.39999999999532,
                    "velocity": 0.3700787401574803,
                    "duration": 0.18999999999999773
                },
                {
                    "name": "D5",
                    "midi": 74,
                    "time": 200.39999999999532,
                    "velocity": 0.3700787401574803,
                    "duration": 0.18999999999999773
                },
                {
                    "name": "F#4",
                    "midi": 66,
                    "time": 200.5999999999953,
                    "velocity": 0.3700787401574803,
                    "duration": 0.18999999999999773
                },
                {
                    "name": "D5",
                    "midi": 74,
                    "time": 200.5999999999953,
                    "velocity": 0.3700787401574803,
                    "duration": 0.18999999999999773
                },
                {
                    "name": "F#5",
                    "midi": 78,
                    "time": 200.7999999999953,
                    "velocity": 0.6771653543307087,
                    "duration": 0.39999999999997726
                },
                {
                    "name": "F#4",
                    "midi": 66,
                    "time": 200.99999999999528,
                    "velocity": 0.3779527559055118,
                    "duration": 0.19999999999998863
                },
                {
                    "name": "D5",
                    "midi": 74,
                    "time": 200.99999999999528,
                    "velocity": 0.3779527559055118,
                    "duration": 0.19999999999998863
                },
                {
                    "name": "F#5",
                    "midi": 78,
                    "time": 201.19999999999527,
                    "velocity": 0.6771653543307087,
                    "duration": 0.39999999999997726
                },
                {
                    "name": "F#4",
                    "midi": 66,
                    "time": 201.39999999999526,
                    "velocity": 0.3700787401574803,
                    "duration": 0.19999999999998863
                },
                {
                    "name": "D5",
                    "midi": 74,
                    "time": 201.39999999999526,
                    "velocity": 0.3700787401574803,
                    "duration": 0.19999999999998863
                },
                {
                    "name": "F#5",
                    "midi": 78,
                    "time": 201.59999999999525,
                    "velocity": 0.6771653543307087,
                    "duration": 0.39999999999997726
                },
                {
                    "name": "F#4",
                    "midi": 66,
                    "time": 201.79999999999524,
                    "velocity": 0.3700787401574803,
                    "duration": 0.19999999999998863
                },
                {
                    "name": "C#5",
                    "midi": 73,
                    "time": 201.79999999999524,
                    "velocity": 0.3700787401574803,
                    "duration": 0.19999999999998863
                },
                {
                    "name": "G5",
                    "midi": 79,
                    "time": 201.99999999999523,
                    "velocity": 0.7559055118110236,
                    "duration": 1.1999999999999318
                },
                {
                    "name": "G4",
                    "midi": 67,
                    "time": 202.1999999999952,
                    "velocity": 0.3858267716535433,
                    "duration": 0.18999999999999773
                },
                {
                    "name": "C#5",
                    "midi": 73,
                    "time": 202.1999999999952,
                    "velocity": 0.3858267716535433,
                    "duration": 0.18999999999999773
                },
                {
                    "name": "G4",
                    "midi": 67,
                    "time": 202.3999999999952,
                    "velocity": 0.3858267716535433,
                    "duration": 0.18999999999999773
                },
                {
                    "name": "C#5",
                    "midi": 73,
                    "time": 202.3999999999952,
                    "velocity": 0.3858267716535433,
                    "duration": 0.18999999999999773
                },
                {
                    "name": "G4",
                    "midi": 67,
                    "time": 202.5999999999952,
                    "velocity": 0.3858267716535433,
                    "duration": 0.18999999999999773
                },
                {
                    "name": "C#5",
                    "midi": 73,
                    "time": 202.5999999999952,
                    "velocity": 0.3858267716535433,
                    "duration": 0.18999999999999773
                },
                {
                    "name": "G4",
                    "midi": 67,
                    "time": 202.79999999999518,
                    "velocity": 0.3858267716535433,
                    "duration": 0.18999999999999773
                },
                {
                    "name": "C#5",
                    "midi": 73,
                    "time": 202.79999999999518,
                    "velocity": 0.3858267716535433,
                    "duration": 0.18999999999999773
                },
                {
                    "name": "G4",
                    "midi": 67,
                    "time": 202.99999999999517,
                    "velocity": 0.3858267716535433,
                    "duration": 0.18999999999999773
                },
                {
                    "name": "C#5",
                    "midi": 73,
                    "time": 202.99999999999517,
                    "velocity": 0.3858267716535433,
                    "duration": 0.18999999999999773
                },
                {
                    "name": "G5",
                    "midi": 79,
                    "time": 203.19999999999516,
                    "velocity": 0.7322834645669292,
                    "duration": 0.39999999999997726
                },
                {
                    "name": "G4",
                    "midi": 67,
                    "time": 203.39999999999515,
                    "velocity": 0.3779527559055118,
                    "duration": 0.19999999999998863
                },
                {
                    "name": "C#5",
                    "midi": 73,
                    "time": 203.39999999999515,
                    "velocity": 0.3779527559055118,
                    "duration": 0.19999999999998863
                },
                {
                    "name": "G5",
                    "midi": 79,
                    "time": 203.59999999999513,
                    "velocity": 0.7559055118110236,
                    "duration": 0.39999999999997726
                },
                {
                    "name": "G4",
                    "midi": 67,
                    "time": 203.79999999999512,
                    "velocity": 0.3937007874015748,
                    "duration": 0.19999999999998863
                },
                {
                    "name": "C#5",
                    "midi": 73,
                    "time": 203.79999999999512,
                    "velocity": 0.3937007874015748,
                    "duration": 0.19999999999998863
                },
                {
                    "name": "A5",
                    "midi": 81,
                    "time": 203.9999999999951,
                    "velocity": 0.7716535433070866,
                    "duration": 0.39999999999997726
                },
                {
                    "name": "C#5",
                    "midi": 73,
                    "time": 204.1999999999951,
                    "velocity": 0.4015748031496063,
                    "duration": 0.18999999999999773
                },
                {
                    "name": "A4",
                    "midi": 69,
                    "time": 204.1999999999951,
                    "velocity": 0.4015748031496063,
                    "duration": 0.18999999999999773
                },
                {
                    "name": "G#5",
                    "midi": 80,
                    "time": 204.3999999999951,
                    "velocity": 0.7480314960629921,
                    "duration": 0.7999999999999545
                },
                {
                    "name": "G#4",
                    "midi": 68,
                    "time": 204.59999999999508,
                    "velocity": 0.4015748031496063,
                    "duration": 0.18999999999999773
                },
                {
                    "name": "C#5",
                    "midi": 73,
                    "time": 204.59999999999508,
                    "velocity": 0.4015748031496063,
                    "duration": 0.18999999999999773
                },
                {
                    "name": "G#4",
                    "midi": 68,
                    "time": 204.79999999999507,
                    "velocity": 0.3464566929133858,
                    "duration": 0.18999999999999773
                },
                {
                    "name": "C#5",
                    "midi": 73,
                    "time": 204.79999999999507,
                    "velocity": 0.3464566929133858,
                    "duration": 0.18999999999999773
                },
                {
                    "name": "G#4",
                    "midi": 68,
                    "time": 204.99999999999505,
                    "velocity": 0.4015748031496063,
                    "duration": 0.18999999999999773
                },
                {
                    "name": "C#5",
                    "midi": 73,
                    "time": 204.99999999999505,
                    "velocity": 0.4015748031496063,
                    "duration": 0.18999999999999773
                },
                {
                    "name": "A5",
                    "midi": 81,
                    "time": 205.19999999999504,
                    "velocity": 0.7637795275590551,
                    "duration": 0.39999999999997726
                },
                {
                    "name": "A4",
                    "midi": 69,
                    "time": 205.39999999999503,
                    "velocity": 0.4094488188976378,
                    "duration": 0.18999999999999773
                },
                {
                    "name": "C5",
                    "midi": 72,
                    "time": 205.39999999999503,
                    "velocity": 0.4094488188976378,
                    "duration": 0.18999999999999773
                },
                {
                    "name": "G#5",
                    "midi": 80,
                    "time": 205.59999999999502,
                    "velocity": 0.7322834645669292,
                    "duration": 0.7999999999999545
                },
                {
                    "name": "G#4",
                    "midi": 68,
                    "time": 205.799999999995,
                    "velocity": 0.4094488188976378,
                    "duration": 0.18999999999999773
                },
                {
                    "name": "C5",
                    "midi": 72,
                    "time": 205.799999999995,
                    "velocity": 0.4094488188976378,
                    "duration": 0.18999999999999773
                },
                {
                    "name": "G#4",
                    "midi": 68,
                    "time": 205.999999999995,
                    "velocity": 0.4094488188976378,
                    "duration": 0.18999999999999773
                },
                {
                    "name": "C5",
                    "midi": 72,
                    "time": 205.999999999995,
                    "velocity": 0.4094488188976378,
                    "duration": 0.18999999999999773
                },
                {
                    "name": "G#4",
                    "midi": 68,
                    "time": 206.199999999995,
                    "velocity": 0.4094488188976378,
                    "duration": 0.18999999999999773
                },
                {
                    "name": "C5",
                    "midi": 72,
                    "time": 206.199999999995,
                    "velocity": 0.4094488188976378,
                    "duration": 0.18999999999999773
                },
                {
                    "name": "C#5",
                    "midi": 73,
                    "time": 206.39999999999498,
                    "velocity": 0.6771653543307087,
                    "duration": 1.599999999999909
                },
                {
                    "name": "G#4",
                    "midi": 68,
                    "time": 206.59999999999496,
                    "velocity": 0.3464566929133858,
                    "duration": 0.18999999999999773
                },
                {
                    "name": "C#4",
                    "midi": 61,
                    "time": 206.59999999999496,
                    "velocity": 0.3464566929133858,
                    "duration": 0.18999999999999773
                },
                {
                    "name": "E4",
                    "midi": 64,
                    "time": 206.59999999999496,
                    "velocity": 0.3464566929133858,
                    "duration": 0.18999999999999773
                },
                {
                    "name": "G#4",
                    "midi": 68,
                    "time": 206.79999999999495,
                    "velocity": 0.3464566929133858,
                    "duration": 0.18999999999999773
                },
                {
                    "name": "C#4",
                    "midi": 61,
                    "time": 206.79999999999495,
                    "velocity": 0.3464566929133858,
                    "duration": 0.18999999999999773
                },
                {
                    "name": "E4",
                    "midi": 64,
                    "time": 206.79999999999495,
                    "velocity": 0.3464566929133858,
                    "duration": 0.18999999999999773
                },
                {
                    "name": "G#4",
                    "midi": 68,
                    "time": 206.99999999999494,
                    "velocity": 0.3464566929133858,
                    "duration": 0.18999999999999773
                },
                {
                    "name": "C#4",
                    "midi": 61,
                    "time": 206.99999999999494,
                    "velocity": 0.3464566929133858,
                    "duration": 0.18999999999999773
                },
                {
                    "name": "E4",
                    "midi": 64,
                    "time": 206.99999999999494,
                    "velocity": 0.3464566929133858,
                    "duration": 0.18999999999999773
                },
                {
                    "name": "G#4",
                    "midi": 68,
                    "time": 207.19999999999493,
                    "velocity": 0.3464566929133858,
                    "duration": 0.18999999999999773
                },
                {
                    "name": "C#4",
                    "midi": 61,
                    "time": 207.19999999999493,
                    "velocity": 0.3464566929133858,
                    "duration": 0.18999999999999773
                },
                {
                    "name": "E4",
                    "midi": 64,
                    "time": 207.19999999999493,
                    "velocity": 0.3464566929133858,
                    "duration": 0.18999999999999773
                },
                {
                    "name": "G#4",
                    "midi": 68,
                    "time": 207.39999999999492,
                    "velocity": 0.3464566929133858,
                    "duration": 0.18999999999999773
                },
                {
                    "name": "C#4",
                    "midi": 61,
                    "time": 207.39999999999492,
                    "velocity": 0.3464566929133858,
                    "duration": 0.18999999999999773
                },
                {
                    "name": "E4",
                    "midi": 64,
                    "time": 207.39999999999492,
                    "velocity": 0.3464566929133858,
                    "duration": 0.18999999999999773
                },
                {
                    "name": "G#4",
                    "midi": 68,
                    "time": 207.5999999999949,
                    "velocity": 0.3464566929133858,
                    "duration": 0.18999999999999773
                },
                {
                    "name": "C#4",
                    "midi": 61,
                    "time": 207.5999999999949,
                    "velocity": 0.3464566929133858,
                    "duration": 0.18999999999999773
                },
                {
                    "name": "E4",
                    "midi": 64,
                    "time": 207.5999999999949,
                    "velocity": 0.3464566929133858,
                    "duration": 0.18999999999999773
                },
                {
                    "name": "G#4",
                    "midi": 68,
                    "time": 207.7999999999949,
                    "velocity": 0.3464566929133858,
                    "duration": 0.18999999999999773
                },
                {
                    "name": "C#4",
                    "midi": 61,
                    "time": 207.7999999999949,
                    "velocity": 0.3464566929133858,
                    "duration": 0.18999999999999773
                },
                {
                    "name": "E4",
                    "midi": 64,
                    "time": 207.7999999999949,
                    "velocity": 0.3464566929133858,
                    "duration": 0.18999999999999773
                },
                {
                    "name": "G#4",
                    "midi": 68,
                    "time": 207.99999999999488,
                    "velocity": 0.3779527559055118,
                    "duration": 0.39999999999997726
                },
                {
                    "name": "C#4",
                    "midi": 61,
                    "time": 208.19999999999487,
                    "velocity": 0.2047244094488189,
                    "duration": 0.18999999999999773
                },
                {
                    "name": "E4",
                    "midi": 64,
                    "time": 208.19999999999487,
                    "velocity": 0.2047244094488189,
                    "duration": 0.18999999999999773
                },
                {
                    "name": "G#4",
                    "midi": 68,
                    "time": 208.39999999999486,
                    "velocity": 0.33070866141732286,
                    "duration": 0.39999999999997726
                },
                {
                    "name": "C#4",
                    "midi": 61,
                    "time": 208.59999999999485,
                    "velocity": 0.2047244094488189,
                    "duration": 0.18999999999999773
                },
                {
                    "name": "E4",
                    "midi": 64,
                    "time": 208.59999999999485,
                    "velocity": 0.2047244094488189,
                    "duration": 0.18999999999999773
                },
                {
                    "name": "G#4",
                    "midi": 68,
                    "time": 208.79999999999484,
                    "velocity": 0.4645669291338583,
                    "duration": 0.39999999999997726
                },
                {
                    "name": "D#4",
                    "midi": 63,
                    "time": 208.99999999999483,
                    "velocity": 0.2047244094488189,
                    "duration": 0.18999999999999773
                },
                {
                    "name": "C4",
                    "midi": 60,
                    "time": 208.99999999999483,
                    "velocity": 0.2047244094488189,
                    "duration": 0.18999999999999773
                },
                {
                    "name": "A4",
                    "midi": 69,
                    "time": 209.19999999999482,
                    "velocity": 0.48031496062992124,
                    "duration": 1.1999999999999318
                },
                {
                    "name": "C4",
                    "midi": 60,
                    "time": 209.3999999999948,
                    "velocity": 0.2047244094488189,
                    "duration": 0.18999999999999773
                },
                {
                    "name": "D#4",
                    "midi": 63,
                    "time": 209.3999999999948,
                    "velocity": 0.2047244094488189,
                    "duration": 0.18999999999999773
                },
                {
                    "name": "C4",
                    "midi": 60,
                    "time": 209.5999999999948,
                    "velocity": 0.2047244094488189,
                    "duration": 0.18999999999999773
                },
                {
                    "name": "D#4",
                    "midi": 63,
                    "time": 209.5999999999948,
                    "velocity": 0.2047244094488189,
                    "duration": 0.18999999999999773
                },
                {
                    "name": "C4",
                    "midi": 60,
                    "time": 209.79999999999478,
                    "velocity": 0.2047244094488189,
                    "duration": 0.18999999999999773
                },
                {
                    "name": "D#4",
                    "midi": 63,
                    "time": 209.79999999999478,
                    "velocity": 0.2047244094488189,
                    "duration": 0.18999999999999773
                },
                {
                    "name": "C4",
                    "midi": 60,
                    "time": 209.99999999999477,
                    "velocity": 0.2047244094488189,
                    "duration": 0.18999999999999773
                },
                {
                    "name": "D#4",
                    "midi": 63,
                    "time": 209.99999999999477,
                    "velocity": 0.2047244094488189,
                    "duration": 0.18999999999999773
                },
                {
                    "name": "C4",
                    "midi": 60,
                    "time": 210.19999999999476,
                    "velocity": 0.2047244094488189,
                    "duration": 0.18999999999999773
                },
                {
                    "name": "D#4",
                    "midi": 63,
                    "time": 210.19999999999476,
                    "velocity": 0.2047244094488189,
                    "duration": 0.18999999999999773
                },
                {
                    "name": "G#4",
                    "midi": 68,
                    "time": 210.39999999999475,
                    "velocity": 0.47244094488188976,
                    "duration": 0.39999999999997726
                },
                {
                    "name": "C4",
                    "midi": 60,
                    "time": 210.59999999999474,
                    "velocity": 0.2047244094488189,
                    "duration": 0.18999999999999773
                },
                {
                    "name": "D#4",
                    "midi": 63,
                    "time": 210.59999999999474,
                    "velocity": 0.2047244094488189,
                    "duration": 0.18999999999999773
                },
                {
                    "name": "F#4",
                    "midi": 66,
                    "time": 210.79999999999472,
                    "velocity": 0.4409448818897638,
                    "duration": 0.39999999999997726
                },
                {
                    "name": "C4",
                    "midi": 60,
                    "time": 210.9999999999947,
                    "velocity": 0.2677165354330709,
                    "duration": 0.18999999999999773
                },
                {
                    "name": "D#4",
                    "midi": 63,
                    "time": 210.9999999999947,
                    "velocity": 0.2047244094488189,
                    "duration": 0.18999999999999773
                },
                {
                    "name": "E4",
                    "midi": 64,
                    "time": 211.1999999999947,
                    "velocity": 0.5433070866141733,
                    "duration": 0.39999999999997726
                },
                {
                    "name": "G#3",
                    "midi": 56,
                    "time": 211.3999999999947,
                    "velocity": 0.2047244094488189,
                    "duration": 0.18999999999999773
                },
                {
                    "name": "C#4",
                    "midi": 61,
                    "time": 211.3999999999947,
                    "velocity": 0.2047244094488189,
                    "duration": 0.18999999999999773
                },
                {
                    "name": "G#4",
                    "midi": 68,
                    "time": 211.59999999999468,
                    "velocity": 0.5039370078740157,
                    "duration": 0.39999999999997726
                },
                {
                    "name": "E4",
                    "midi": 64,
                    "time": 211.79999999999467,
                    "velocity": 0.2283464566929134,
                    "duration": 0.18999999999999773
                },
                {
                    "name": "C#4",
                    "midi": 61,
                    "time": 211.79999999999467,
                    "velocity": 0.2283464566929134,
                    "duration": 0.18999999999999773
                },
                {
                    "name": "C#5",
                    "midi": 73,
                    "time": 211.99999999999466,
                    "velocity": 0.5354330708661418,
                    "duration": 0.39999999999997726
                },
                {
                    "name": "E4",
                    "midi": 64,
                    "time": 212.19999999999465,
                    "velocity": 0.2440944881889764,
                    "duration": 0.18999999999999773
                },
                {
                    "name": "G#4",
                    "midi": 68,
                    "time": 212.19999999999465,
                    "velocity": 0.2440944881889764,
                    "duration": 0.18999999999999773
                },
                {
                    "name": "E5",
                    "midi": 76,
                    "time": 212.39999999999463,
                    "velocity": 0.6062992125984252,
                    "duration": 0.39999999999997726
                },
                {
                    "name": "G#4",
                    "midi": 68,
                    "time": 212.59999999999462,
                    "velocity": 0.2677165354330709,
                    "duration": 0.18999999999999773
                },
                {
                    "name": "C#5",
                    "midi": 73,
                    "time": 212.59999999999462,
                    "velocity": 0.2677165354330709,
                    "duration": 0.18999999999999773
                },
                {
                    "name": "G#5",
                    "midi": 80,
                    "time": 212.7999999999946,
                    "velocity": 0.5905511811023622,
                    "duration": 0.39999999999997726
                },
                {
                    "name": "C#5",
                    "midi": 73,
                    "time": 212.9999999999946,
                    "velocity": 0.29133858267716534,
                    "duration": 0.18999999999999773
                },
                {
                    "name": "E5",
                    "midi": 76,
                    "time": 212.9999999999946,
                    "velocity": 0.29133858267716534,
                    "duration": 0.18999999999999773
                },
                {
                    "name": "C#6",
                    "midi": 85,
                    "time": 213.1999999999946,
                    "velocity": 0.6220472440944882,
                    "duration": 0.39999999999997726
                },
                {
                    "name": "E5",
                    "midi": 76,
                    "time": 213.39999999999458,
                    "velocity": 0.30708661417322836,
                    "duration": 0.18999999999999773
                },
                {
                    "name": "G#5",
                    "midi": 80,
                    "time": 213.39999999999458,
                    "velocity": 0.30708661417322836,
                    "duration": 0.18999999999999773
                },
                {
                    "name": "D#6",
                    "midi": 87,
                    "time": 213.59999999999457,
                    "velocity": 0.7795275590551181,
                    "duration": 0.39999999999997726
                },
                {
                    "name": "D#5",
                    "midi": 75,
                    "time": 213.79999999999455,
                    "velocity": 0.4015748031496063,
                    "duration": 0.18999999999999773
                },
                {
                    "name": "G5",
                    "midi": 79,
                    "time": 213.79999999999455,
                    "velocity": 0.4015748031496063,
                    "duration": 0.18999999999999773
                },
                {
                    "name": "E6",
                    "midi": 88,
                    "time": 213.99999999999454,
                    "velocity": 0.7559055118110236,
                    "duration": 1.1999999999999318
                },
                {
                    "name": "G5",
                    "midi": 79,
                    "time": 214.19999999999453,
                    "velocity": 0.3543307086614173,
                    "duration": 0.18999999999999773
                },
                {
                    "name": "E5",
                    "midi": 76,
                    "time": 214.19999999999453,
                    "velocity": 0.3543307086614173,
                    "duration": 0.18999999999999773
                },
                {
                    "name": "G5",
                    "midi": 79,
                    "time": 214.39999999999452,
                    "velocity": 0.31496062992125984,
                    "duration": 0.18999999999999773
                },
                {
                    "name": "E5",
                    "midi": 76,
                    "time": 214.39999999999452,
                    "velocity": 0.31496062992125984,
                    "duration": 0.18999999999999773
                },
                {
                    "name": "G5",
                    "midi": 79,
                    "time": 214.5999999999945,
                    "velocity": 0.30708661417322836,
                    "duration": 0.18999999999999773
                },
                {
                    "name": "E5",
                    "midi": 76,
                    "time": 214.5999999999945,
                    "velocity": 0.30708661417322836,
                    "duration": 0.18999999999999773
                },
                {
                    "name": "G5",
                    "midi": 79,
                    "time": 214.7999999999945,
                    "velocity": 0.29133858267716534,
                    "duration": 0.18999999999999773
                },
                {
                    "name": "E5",
                    "midi": 76,
                    "time": 214.7999999999945,
                    "velocity": 0.29133858267716534,
                    "duration": 0.18999999999999773
                },
                {
                    "name": "E5",
                    "midi": 76,
                    "time": 214.9999999999945,
                    "velocity": 0.29133858267716534,
                    "duration": 0.18999999999999773
                },
                {
                    "name": "G5",
                    "midi": 79,
                    "time": 214.9999999999945,
                    "velocity": 0.29133858267716534,
                    "duration": 0.18999999999999773
                },
                {
                    "name": "D#6",
                    "midi": 87,
                    "time": 215.19999999999447,
                    "velocity": 0.6929133858267716,
                    "duration": 0.39999999999997726
                },
                {
                    "name": "D#5",
                    "midi": 75,
                    "time": 215.39999999999446,
                    "velocity": 0.2440944881889764,
                    "duration": 0.18999999999999773
                },
                {
                    "name": "G5",
                    "midi": 79,
                    "time": 215.39999999999446,
                    "velocity": 0.2440944881889764,
                    "duration": 0.18999999999999773
                },
                {
                    "name": "C#6",
                    "midi": 85,
                    "time": 215.59999999999445,
                    "velocity": 0.6377952755905512,
                    "duration": 0.39999999999997726
                },
                {
                    "name": "C#5",
                    "midi": 73,
                    "time": 215.79999999999444,
                    "velocity": 0.2204724409448819,
                    "duration": 0.18999999999999773
                },
                {
                    "name": "G5",
                    "midi": 79,
                    "time": 215.79999999999444,
                    "velocity": 0.2204724409448819,
                    "duration": 0.18999999999999773
                },
                {
                    "name": "C#6",
                    "midi": 85,
                    "time": 215.99999999999443,
                    "velocity": 0.5354330708661418,
                    "duration": 0.39999999999997726
                },
                {
                    "name": "D#5",
                    "midi": 75,
                    "time": 216.19999999999442,
                    "velocity": 0.2047244094488189,
                    "duration": 0.19999999999998863
                },
                {
                    "name": "G#5",
                    "midi": 80,
                    "time": 216.19999999999442,
                    "velocity": 0.2047244094488189,
                    "duration": 0.19999999999998863
                },
                {
                    "name": "C6",
                    "midi": 84,
                    "time": 216.3999999999944,
                    "velocity": 0.4645669291338583,
                    "duration": 0.39999999999997726
                },
                {
                    "name": "D#5",
                    "midi": 75,
                    "time": 216.5999999999944,
                    "velocity": 0.2047244094488189,
                    "duration": 0.19999999999998863
                },
                {
                    "name": "G#5",
                    "midi": 80,
                    "time": 216.5999999999944,
                    "velocity": 0.2047244094488189,
                    "duration": 0.19999999999998863
                },
                {
                    "name": "G#5",
                    "midi": 80,
                    "time": 216.79999999999438,
                    "velocity": 0.4566929133858268,
                    "duration": 0.39999999999997726
                },
                {
                    "name": "C5",
                    "midi": 72,
                    "time": 216.99999999999437,
                    "velocity": 0.2047244094488189,
                    "duration": 0.18999999999999773
                },
                {
                    "name": "D#5",
                    "midi": 75,
                    "time": 216.99999999999437,
                    "velocity": 0.2047244094488189,
                    "duration": 0.18999999999999773
                },
                {
                    "name": "D#5",
                    "midi": 75,
                    "time": 217.19999999999436,
                    "velocity": 0.4566929133858268,
                    "duration": 0.39999999999997726
                },
                {
                    "name": "G#4",
                    "midi": 68,
                    "time": 217.39999999999435,
                    "velocity": 0.2047244094488189,
                    "duration": 0.18999999999999773
                },
                {
                    "name": "C5",
                    "midi": 72,
                    "time": 217.39999999999435,
                    "velocity": 0.2047244094488189,
                    "duration": 0.18999999999999773
                },
                {
                    "name": "C5",
                    "midi": 72,
                    "time": 217.59999999999434,
                    "velocity": 0.4566929133858268,
                    "duration": 0.39999999999997726
                },
                {
                    "name": "D#4",
                    "midi": 63,
                    "time": 217.79999999999433,
                    "velocity": 0.2047244094488189,
                    "duration": 0.18999999999999773
                },
                {
                    "name": "G#4",
                    "midi": 68,
                    "time": 217.79999999999433,
                    "velocity": 0.2047244094488189,
                    "duration": 0.18999999999999773
                },
                {
                    "name": "G#4",
                    "midi": 68,
                    "time": 217.99999999999432,
                    "velocity": 0.4566929133858268,
                    "duration": 0.39999999999997726
                },
                {
                    "name": "C4",
                    "midi": 60,
                    "time": 218.1999999999943,
                    "velocity": 0.2047244094488189,
                    "duration": 0.18999999999999773
                },
                {
                    "name": "D#4",
                    "midi": 63,
                    "time": 218.1999999999943,
                    "velocity": 0.2047244094488189,
                    "duration": 0.18999999999999773
                },
                {
                    "name": "G#4",
                    "midi": 68,
                    "time": 218.3999999999943,
                    "velocity": 0.4645669291338583,
                    "duration": 0.39999999999997726
                },
                {
                    "name": "D#4",
                    "midi": 63,
                    "time": 218.59999999999428,
                    "velocity": 0.2047244094488189,
                    "duration": 0.18999999999999773
                },
                {
                    "name": "C4",
                    "midi": 60,
                    "time": 218.59999999999428,
                    "velocity": 0.2047244094488189,
                    "duration": 0.18999999999999773
                },
                {
                    "name": "A4",
                    "midi": 69,
                    "time": 218.79999999999427,
                    "velocity": 0.48031496062992124,
                    "duration": 1.1999999999999318
                },
                {
                    "name": "C4",
                    "midi": 60,
                    "time": 218.99999999999426,
                    "velocity": 0.2047244094488189,
                    "duration": 0.18999999999999773
                },
                {
                    "name": "D#4",
                    "midi": 63,
                    "time": 218.99999999999426,
                    "velocity": 0.2047244094488189,
                    "duration": 0.18999999999999773
                },
                {
                    "name": "C4",
                    "midi": 60,
                    "time": 219.19999999999425,
                    "velocity": 0.2047244094488189,
                    "duration": 0.18999999999999773
                },
                {
                    "name": "D#4",
                    "midi": 63,
                    "time": 219.19999999999425,
                    "velocity": 0.2047244094488189,
                    "duration": 0.18999999999999773
                },
                {
                    "name": "C4",
                    "midi": 60,
                    "time": 219.39999999999424,
                    "velocity": 0.2047244094488189,
                    "duration": 0.18999999999999773
                },
                {
                    "name": "D#4",
                    "midi": 63,
                    "time": 219.39999999999424,
                    "velocity": 0.2047244094488189,
                    "duration": 0.18999999999999773
                },
                {
                    "name": "C4",
                    "midi": 60,
                    "time": 219.59999999999422,
                    "velocity": 0.2047244094488189,
                    "duration": 0.18999999999999773
                },
                {
                    "name": "D#4",
                    "midi": 63,
                    "time": 219.59999999999422,
                    "velocity": 0.2047244094488189,
                    "duration": 0.18999999999999773
                },
                {
                    "name": "C4",
                    "midi": 60,
                    "time": 219.7999999999942,
                    "velocity": 0.2047244094488189,
                    "duration": 0.18999999999999773
                },
                {
                    "name": "D#4",
                    "midi": 63,
                    "time": 219.7999999999942,
                    "velocity": 0.2047244094488189,
                    "duration": 0.18999999999999773
                },
                {
                    "name": "G#4",
                    "midi": 68,
                    "time": 219.9999999999942,
                    "velocity": 0.47244094488188976,
                    "duration": 0.39999999999997726
                },
                {
                    "name": "C4",
                    "midi": 60,
                    "time": 220.1999999999942,
                    "velocity": 0.2047244094488189,
                    "duration": 0.18999999999999773
                },
                {
                    "name": "D#4",
                    "midi": 63,
                    "time": 220.1999999999942,
                    "velocity": 0.2047244094488189,
                    "duration": 0.18999999999999773
                },
                {
                    "name": "F#4",
                    "midi": 66,
                    "time": 220.39999999999418,
                    "velocity": 0.4409448818897638,
                    "duration": 0.39999999999997726
                },
                {
                    "name": "C4",
                    "midi": 60,
                    "time": 220.59999999999417,
                    "velocity": 0.2677165354330709,
                    "duration": 0.18999999999999773
                },
                {
                    "name": "D#4",
                    "midi": 63,
                    "time": 220.59999999999417,
                    "velocity": 0.2047244094488189,
                    "duration": 0.18999999999999773
                },
                {
                    "name": "E4",
                    "midi": 64,
                    "time": 220.79999999999416,
                    "velocity": 0.5354330708661418,
                    "duration": 0.39999999999997726
                },
                {
                    "name": "G#3",
                    "midi": 56,
                    "time": 220.99999999999415,
                    "velocity": 0.2047244094488189,
                    "duration": 0.18999999999999773
                },
                {
                    "name": "C#4",
                    "midi": 61,
                    "time": 220.99999999999415,
                    "velocity": 0.2047244094488189,
                    "duration": 0.18999999999999773
                },
                {
                    "name": "G#4",
                    "midi": 68,
                    "time": 221.19999999999413,
                    "velocity": 0.5039370078740157,
                    "duration": 0.39999999999997726
                },
                {
                    "name": "E4",
                    "midi": 64,
                    "time": 221.39999999999412,
                    "velocity": 0.2283464566929134,
                    "duration": 0.18999999999999773
                },
                {
                    "name": "C#4",
                    "midi": 61,
                    "time": 221.39999999999412,
                    "velocity": 0.2283464566929134,
                    "duration": 0.18999999999999773
                },
                {
                    "name": "C#5",
                    "midi": 73,
                    "time": 221.5999999999941,
                    "velocity": 0.5354330708661418,
                    "duration": 0.39999999999997726
                },
                {
                    "name": "E4",
                    "midi": 64,
                    "time": 221.7999999999941,
                    "velocity": 0.2440944881889764,
                    "duration": 0.18999999999999773
                },
                {
                    "name": "G#4",
                    "midi": 68,
                    "time": 221.7999999999941,
                    "velocity": 0.2440944881889764,
                    "duration": 0.18999999999999773
                },
                {
                    "name": "E5",
                    "midi": 76,
                    "time": 221.9999999999941,
                    "velocity": 0.5590551181102362,
                    "duration": 0.39999999999997726
                },
                {
                    "name": "G#4",
                    "midi": 68,
                    "time": 222.19999999999408,
                    "velocity": 0.2677165354330709,
                    "duration": 0.18999999999999773
                },
                {
                    "name": "C#5",
                    "midi": 73,
                    "time": 222.19999999999408,
                    "velocity": 0.2677165354330709,
                    "duration": 0.18999999999999773
                },
                {
                    "name": "G#5",
                    "midi": 80,
                    "time": 222.39999999999407,
                    "velocity": 0.5905511811023622,
                    "duration": 0.39999999999997726
                },
                {
                    "name": "C#5",
                    "midi": 73,
                    "time": 222.59999999999405,
                    "velocity": 0.29133858267716534,
                    "duration": 0.18999999999999773
                },
                {
                    "name": "E5",
                    "midi": 76,
                    "time": 222.59999999999405,
                    "velocity": 0.29133858267716534,
                    "duration": 0.18999999999999773
                },
                {
                    "name": "C#6",
                    "midi": 85,
                    "time": 222.79999999999404,
                    "velocity": 0.6220472440944882,
                    "duration": 0.39999999999997726
                },
                {
                    "name": "E5",
                    "midi": 76,
                    "time": 222.99999999999403,
                    "velocity": 0.30708661417322836,
                    "duration": 0.18999999999999773
                },
                {
                    "name": "G#5",
                    "midi": 80,
                    "time": 222.99999999999403,
                    "velocity": 0.30708661417322836,
                    "duration": 0.18999999999999773
                },
                {
                    "name": "D#6",
                    "midi": 87,
                    "time": 223.19999999999402,
                    "velocity": 0.7795275590551181,
                    "duration": 0.39999999999997726
                },
                {
                    "name": "D#5",
                    "midi": 75,
                    "time": 223.399999999994,
                    "velocity": 0.4015748031496063,
                    "duration": 0.18999999999999773
                },
                {
                    "name": "G5",
                    "midi": 79,
                    "time": 223.399999999994,
                    "velocity": 0.4015748031496063,
                    "duration": 0.18999999999999773
                },
                {
                    "name": "E6",
                    "midi": 88,
                    "time": 223.599999999994,
                    "velocity": 0.7559055118110236,
                    "duration": 1.1999999999999318
                },
                {
                    "name": "G5",
                    "midi": 79,
                    "time": 223.799999999994,
                    "velocity": 0.3543307086614173,
                    "duration": 0.18999999999999773
                },
                {
                    "name": "E5",
                    "midi": 76,
                    "time": 223.799999999994,
                    "velocity": 0.3543307086614173,
                    "duration": 0.18999999999999773
                },
                {
                    "name": "G5",
                    "midi": 79,
                    "time": 223.99999999999397,
                    "velocity": 0.31496062992125984,
                    "duration": 0.18999999999999773
                },
                {
                    "name": "E5",
                    "midi": 76,
                    "time": 223.99999999999397,
                    "velocity": 0.31496062992125984,
                    "duration": 0.18999999999999773
                },
                {
                    "name": "G5",
                    "midi": 79,
                    "time": 224.19999999999396,
                    "velocity": 0.30708661417322836,
                    "duration": 0.18999999999999773
                },
                {
                    "name": "E5",
                    "midi": 76,
                    "time": 224.19999999999396,
                    "velocity": 0.30708661417322836,
                    "duration": 0.18999999999999773
                },
                {
                    "name": "G5",
                    "midi": 79,
                    "time": 224.39999999999395,
                    "velocity": 0.29133858267716534,
                    "duration": 0.18999999999999773
                },
                {
                    "name": "E5",
                    "midi": 76,
                    "time": 224.39999999999395,
                    "velocity": 0.29133858267716534,
                    "duration": 0.18999999999999773
                },
                {
                    "name": "E5",
                    "midi": 76,
                    "time": 224.59999999999394,
                    "velocity": 0.29133858267716534,
                    "duration": 0.18999999999999773
                },
                {
                    "name": "G5",
                    "midi": 79,
                    "time": 224.59999999999394,
                    "velocity": 0.29133858267716534,
                    "duration": 0.18999999999999773
                },
                {
                    "name": "D#6",
                    "midi": 87,
                    "time": 224.79999999999393,
                    "velocity": 0.6929133858267716,
                    "duration": 0.39999999999997726
                },
                {
                    "name": "D#5",
                    "midi": 75,
                    "time": 224.99999999999392,
                    "velocity": 0.2440944881889764,
                    "duration": 0.18999999999999773
                },
                {
                    "name": "G5",
                    "midi": 79,
                    "time": 224.99999999999392,
                    "velocity": 0.2440944881889764,
                    "duration": 0.18999999999999773
                },
                {
                    "name": "C#6",
                    "midi": 85,
                    "time": 225.1999999999939,
                    "velocity": 0.6377952755905512,
                    "duration": 0.39999999999997726
                },
                {
                    "name": "C#5",
                    "midi": 73,
                    "time": 225.3999999999939,
                    "velocity": 0.2204724409448819,
                    "duration": 0.18999999999999773
                },
                {
                    "name": "G5",
                    "midi": 79,
                    "time": 225.3999999999939,
                    "velocity": 0.2204724409448819,
                    "duration": 0.18999999999999773
                },
                {
                    "name": "C#6",
                    "midi": 85,
                    "time": 225.59999999999388,
                    "velocity": 0.5590551181102362,
                    "duration": 1.1999999999999318
                },
                {
                    "name": "C#5",
                    "midi": 73,
                    "time": 225.79999999999387,
                    "velocity": 0.2125984251968504,
                    "duration": 0.18999999999999773
                },
                {
                    "name": "E5",
                    "midi": 76,
                    "time": 225.79999999999387,
                    "velocity": 0.2125984251968504,
                    "duration": 0.18999999999999773
                },
                {
                    "name": "G#5",
                    "midi": 80,
                    "time": 225.79999999999387,
                    "velocity": 0.2125984251968504,
                    "duration": 0.18999999999999773
                },
                {
                    "name": "C#5",
                    "midi": 73,
                    "time": 225.99999999999386,
                    "velocity": 0.2125984251968504,
                    "duration": 0.18999999999999773
                },
                {
                    "name": "E5",
                    "midi": 76,
                    "time": 225.99999999999386,
                    "velocity": 0.2125984251968504,
                    "duration": 0.18999999999999773
                },
                {
                    "name": "G#5",
                    "midi": 80,
                    "time": 225.99999999999386,
                    "velocity": 0.2125984251968504,
                    "duration": 0.18999999999999773
                },
                {
                    "name": "C#5",
                    "midi": 73,
                    "time": 226.19999999999385,
                    "velocity": 0.2125984251968504,
                    "duration": 0.18999999999999773
                },
                {
                    "name": "E5",
                    "midi": 76,
                    "time": 226.19999999999385,
                    "velocity": 0.2125984251968504,
                    "duration": 0.18999999999999773
                },
                {
                    "name": "G#5",
                    "midi": 80,
                    "time": 226.19999999999385,
                    "velocity": 0.2125984251968504,
                    "duration": 0.18999999999999773
                },
                {
                    "name": "C#5",
                    "midi": 73,
                    "time": 226.39999999999384,
                    "velocity": 0.2125984251968504,
                    "duration": 0.18999999999999773
                },
                {
                    "name": "E5",
                    "midi": 76,
                    "time": 226.39999999999384,
                    "velocity": 0.2125984251968504,
                    "duration": 0.18999999999999773
                },
                {
                    "name": "G#5",
                    "midi": 80,
                    "time": 226.39999999999384,
                    "velocity": 0.2125984251968504,
                    "duration": 0.18999999999999773
                },
                {
                    "name": "C#5",
                    "midi": 73,
                    "time": 226.59999999999383,
                    "velocity": 0.1968503937007874,
                    "duration": 0.18999999999999773
                },
                {
                    "name": "E5",
                    "midi": 76,
                    "time": 226.59999999999383,
                    "velocity": 0.1968503937007874,
                    "duration": 0.18999999999999773
                },
                {
                    "name": "G#5",
                    "midi": 80,
                    "time": 226.59999999999383,
                    "velocity": 0.1968503937007874,
                    "duration": 0.18999999999999773
                },
                {
                    "name": "G#5",
                    "midi": 80,
                    "time": 226.79999999999382,
                    "velocity": 0.4881889763779528,
                    "duration": 1.1999999999999318
                },
                {
                    "name": "C5",
                    "midi": 72,
                    "time": 226.9999999999938,
                    "velocity": 0.1732283464566929,
                    "duration": 0.18999999999999773
                },
                {
                    "name": "D#5",
                    "midi": 75,
                    "time": 226.9999999999938,
                    "velocity": 0.1732283464566929,
                    "duration": 0.18999999999999773
                },
                {
                    "name": "C5",
                    "midi": 72,
                    "time": 227.1999999999938,
                    "velocity": 0.15748031496062992,
                    "duration": 0.18999999999999773
                },
                {
                    "name": "D#5",
                    "midi": 75,
                    "time": 227.1999999999938,
                    "velocity": 0.15748031496062992,
                    "duration": 0.18999999999999773
                },
                {
                    "name": "C5",
                    "midi": 72,
                    "time": 227.39999999999378,
                    "velocity": 0.15748031496062992,
                    "duration": 0.18999999999999773
                },
                {
                    "name": "D#5",
                    "midi": 75,
                    "time": 227.39999999999378,
                    "velocity": 0.15748031496062992,
                    "duration": 0.18999999999999773
                },
                {
                    "name": "C5",
                    "midi": 72,
                    "time": 227.59999999999377,
                    "velocity": 0.15748031496062992,
                    "duration": 0.18999999999999773
                },
                {
                    "name": "D#5",
                    "midi": 75,
                    "time": 227.59999999999377,
                    "velocity": 0.15748031496062992,
                    "duration": 0.18999999999999773
                },
                {
                    "name": "C5",
                    "midi": 72,
                    "time": 227.79999999999376,
                    "velocity": 0.15748031496062992,
                    "duration": 0.18999999999999773
                },
                {
                    "name": "D#5",
                    "midi": 75,
                    "time": 227.79999999999376,
                    "velocity": 0.15748031496062992,
                    "duration": 0.18999999999999773
                },
                {
                    "name": "G#4",
                    "midi": 68,
                    "time": 227.99999999999375,
                    "velocity": 0.3779527559055118,
                    "duration": 1.1999999999999318
                },
                {
                    "name": "F4",
                    "midi": 65,
                    "time": 228.19999999999374,
                    "velocity": 0.2125984251968504,
                    "duration": 0.18999999999999773
                },
                {
                    "name": "G#3",
                    "midi": 56,
                    "time": 228.19999999999374,
                    "velocity": 0.2125984251968504,
                    "duration": 0.18999999999999773
                },
                {
                    "name": "F4",
                    "midi": 65,
                    "time": 228.39999999999372,
                    "velocity": 0.2047244094488189,
                    "duration": 0.18999999999999773
                },
                {
                    "name": "G#3",
                    "midi": 56,
                    "time": 228.39999999999372,
                    "velocity": 0.2047244094488189,
                    "duration": 0.18999999999999773
                },
                {
                    "name": "F4",
                    "midi": 65,
                    "time": 228.5999999999937,
                    "velocity": 0.2047244094488189,
                    "duration": 0.18999999999999773
                },
                {
                    "name": "G#3",
                    "midi": 56,
                    "time": 228.5999999999937,
                    "velocity": 0.2047244094488189,
                    "duration": 0.18999999999999773
                },
                {
                    "name": "F4",
                    "midi": 65,
                    "time": 228.7999999999937,
                    "velocity": 0.2047244094488189,
                    "duration": 0.18999999999999773
                },
                {
                    "name": "G#3",
                    "midi": 56,
                    "time": 228.7999999999937,
                    "velocity": 0.2047244094488189,
                    "duration": 0.18999999999999773
                },
                {
                    "name": "F4",
                    "midi": 65,
                    "time": 228.9999999999937,
                    "velocity": 0.2047244094488189,
                    "duration": 0.18999999999999773
                },
                {
                    "name": "G#3",
                    "midi": 56,
                    "time": 228.9999999999937,
                    "velocity": 0.2047244094488189,
                    "duration": 0.18999999999999773
                },
                {
                    "name": "G#4",
                    "midi": 68,
                    "time": 229.19999999999368,
                    "velocity": 0.3937007874015748,
                    "duration": 0.39999999999997726
                },
                {
                    "name": "F4",
                    "midi": 65,
                    "time": 229.39999999999367,
                    "velocity": 0.2047244094488189,
                    "duration": 0.18999999999999773
                },
                {
                    "name": "G#3",
                    "midi": 56,
                    "time": 229.39999999999367,
                    "velocity": 0.2047244094488189,
                    "duration": 0.18999999999999773
                },
                {
                    "name": "A#4",
                    "midi": 70,
                    "time": 229.59999999999366,
                    "velocity": 0.4094488188976378,
                    "duration": 0.39999999999997726
                },
                {
                    "name": "A#3",
                    "midi": 58,
                    "time": 229.79999999999364,
                    "velocity": 0.2125984251968504,
                    "duration": 0.18999999999999773
                },
                {
                    "name": "F4",
                    "midi": 65,
                    "time": 229.79999999999364,
                    "velocity": 0.2125984251968504,
                    "duration": 0.18999999999999773
                },
                {
                    "name": "G#4",
                    "midi": 68,
                    "time": 229.99999999999363,
                    "velocity": 0.3543307086614173,
                    "duration": 0.39999999999997726
                },
                {
                    "name": "F4",
                    "midi": 65,
                    "time": 230.19999999999362,
                    "velocity": 0.2047244094488189,
                    "duration": 0.18999999999999773
                },
                {
                    "name": "G#3",
                    "midi": 56,
                    "time": 230.19999999999362,
                    "velocity": 0.2047244094488189,
                    "duration": 0.18999999999999773
                },
                {
                    "name": "A#4",
                    "midi": 70,
                    "time": 230.3999999999936,
                    "velocity": 0.44881889763779526,
                    "duration": 1.1999999999999318
                },
                {
                    "name": "G#3",
                    "midi": 56,
                    "time": 230.5999999999936,
                    "velocity": 0.2047244094488189,
                    "duration": 0.18999999999999773
                },
                {
                    "name": "F#4",
                    "midi": 66,
                    "time": 230.5999999999936,
                    "velocity": 0.2047244094488189,
                    "duration": 0.18999999999999773
                },
                {
                    "name": "G#3",
                    "midi": 56,
                    "time": 230.7999999999936,
                    "velocity": 0.2047244094488189,
                    "duration": 0.18999999999999773
                },
                {
                    "name": "F#4",
                    "midi": 66,
                    "time": 230.7999999999936,
                    "velocity": 0.2047244094488189,
                    "duration": 0.18999999999999773
                },
                {
                    "name": "G#3",
                    "midi": 56,
                    "time": 230.99999999999358,
                    "velocity": 0.2047244094488189,
                    "duration": 0.18999999999999773
                },
                {
                    "name": "F#4",
                    "midi": 66,
                    "time": 230.99999999999358,
                    "velocity": 0.2047244094488189,
                    "duration": 0.18999999999999773
                },
                {
                    "name": "G#3",
                    "midi": 56,
                    "time": 231.19999999999357,
                    "velocity": 0.2047244094488189,
                    "duration": 0.18999999999999773
                },
                {
                    "name": "F#4",
                    "midi": 66,
                    "time": 231.19999999999357,
                    "velocity": 0.2047244094488189,
                    "duration": 0.18999999999999773
                },
                {
                    "name": "G#3",
                    "midi": 56,
                    "time": 231.39999999999355,
                    "velocity": 0.2047244094488189,
                    "duration": 0.19999999999998863
                },
                {
                    "name": "F#4",
                    "midi": 66,
                    "time": 231.39999999999355,
                    "velocity": 0.2047244094488189,
                    "duration": 0.19999999999998863
                },
                {
                    "name": "G#4",
                    "midi": 68,
                    "time": 231.59999999999354,
                    "velocity": 0.3937007874015748,
                    "duration": 1.1999999999999318
                },
                {
                    "name": "G#3",
                    "midi": 56,
                    "time": 231.79999999999353,
                    "velocity": 0.2204724409448819,
                    "duration": 0.18999999999999773
                },
                {
                    "name": "F#4",
                    "midi": 66,
                    "time": 231.79999999999353,
                    "velocity": 0.2204724409448819,
                    "duration": 0.18999999999999773
                },
                {
                    "name": "G#3",
                    "midi": 56,
                    "time": 231.99999999999352,
                    "velocity": 0.2283464566929134,
                    "duration": 0.18999999999999773
                },
                {
                    "name": "F#4",
                    "midi": 66,
                    "time": 231.99999999999352,
                    "velocity": 0.2283464566929134,
                    "duration": 0.18999999999999773
                },
                {
                    "name": "G#3",
                    "midi": 56,
                    "time": 232.1999999999935,
                    "velocity": 0.2283464566929134,
                    "duration": 0.18999999999999773
                },
                {
                    "name": "F#4",
                    "midi": 66,
                    "time": 232.1999999999935,
                    "velocity": 0.2283464566929134,
                    "duration": 0.18999999999999773
                },
                {
                    "name": "G#3",
                    "midi": 56,
                    "time": 232.3999999999935,
                    "velocity": 0.2283464566929134,
                    "duration": 0.18999999999999773
                },
                {
                    "name": "F#4",
                    "midi": 66,
                    "time": 232.3999999999935,
                    "velocity": 0.2283464566929134,
                    "duration": 0.18999999999999773
                },
                {
                    "name": "G#3",
                    "midi": 56,
                    "time": 232.59999999999349,
                    "velocity": 0.2283464566929134,
                    "duration": 0.18999999999999773
                },
                {
                    "name": "F#4",
                    "midi": 66,
                    "time": 232.59999999999349,
                    "velocity": 0.2283464566929134,
                    "duration": 0.18999999999999773
                },
                {
                    "name": "G#4",
                    "midi": 68,
                    "time": 232.79999999999347,
                    "velocity": 0.4094488188976378,
                    "duration": 1.1999999999999318
                },
                {
                    "name": "F4",
                    "midi": 65,
                    "time": 232.99999999999346,
                    "velocity": 0.2047244094488189,
                    "duration": 0.18999999999999773
                },
                {
                    "name": "G#3",
                    "midi": 56,
                    "time": 232.99999999999346,
                    "velocity": 0.2047244094488189,
                    "duration": 0.18999999999999773
                },
                {
                    "name": "F4",
                    "midi": 65,
                    "time": 233.19999999999345,
                    "velocity": 0.2047244094488189,
                    "duration": 0.18999999999999773
                },
                {
                    "name": "G#3",
                    "midi": 56,
                    "time": 233.19999999999345,
                    "velocity": 0.2047244094488189,
                    "duration": 0.18999999999999773
                },
                {
                    "name": "F4",
                    "midi": 65,
                    "time": 233.39999999999344,
                    "velocity": 0.2047244094488189,
                    "duration": 0.18999999999999773
                },
                {
                    "name": "G#3",
                    "midi": 56,
                    "time": 233.39999999999344,
                    "velocity": 0.2047244094488189,
                    "duration": 0.18999999999999773
                },
                {
                    "name": "F4",
                    "midi": 65,
                    "time": 233.59999999999343,
                    "velocity": 0.2047244094488189,
                    "duration": 0.18999999999999773
                },
                {
                    "name": "G#3",
                    "midi": 56,
                    "time": 233.59999999999343,
                    "velocity": 0.2047244094488189,
                    "duration": 0.18999999999999773
                },
                {
                    "name": "F4",
                    "midi": 65,
                    "time": 233.79999999999342,
                    "velocity": 0.2125984251968504,
                    "duration": 0.19999999999998863
                },
                {
                    "name": "G#3",
                    "midi": 56,
                    "time": 233.79999999999342,
                    "velocity": 0.2125984251968504,
                    "duration": 0.19999999999998863
                },
                {
                    "name": "F5",
                    "midi": 77,
                    "time": 233.9999999999934,
                    "velocity": 0.5196850393700787,
                    "duration": 0.39999999999997726
                },
                {
                    "name": "F4",
                    "midi": 65,
                    "time": 234.1999999999934,
                    "velocity": 0.2204724409448819,
                    "duration": 0.18999999999999773
                },
                {
                    "name": "G#4",
                    "midi": 68,
                    "time": 234.1999999999934,
                    "velocity": 0.2204724409448819,
                    "duration": 0.18999999999999773
                },
                {
                    "name": "D#5",
                    "midi": 75,
                    "time": 234.39999999999338,
                    "velocity": 0.4881889763779528,
                    "duration": 0.39999999999997726
                },
                {
                    "name": "D#4",
                    "midi": 63,
                    "time": 234.59999999999337,
                    "velocity": 0.2125984251968504,
                    "duration": 0.18999999999999773
                },
                {
                    "name": "G#4",
                    "midi": 68,
                    "time": 234.59999999999337,
                    "velocity": 0.2125984251968504,
                    "duration": 0.18999999999999773
                },
                {
                    "name": "C#5",
                    "midi": 73,
                    "time": 234.79999999999336,
                    "velocity": 0.47244094488188976,
                    "duration": 0.39999999999997726
                },
                {
                    "name": "C#4",
                    "midi": 61,
                    "time": 234.99999999999335,
                    "velocity": 0.2125984251968504,
                    "duration": 0.18999999999999773
                },
                {
                    "name": "G#4",
                    "midi": 68,
                    "time": 234.99999999999335,
                    "velocity": 0.2125984251968504,
                    "duration": 0.18999999999999773
                },
                {
                    "name": "C#5",
                    "midi": 73,
                    "time": 235.19999999999334,
                    "velocity": 0.47244094488188976,
                    "duration": 1.1999999999999318
                },
                {
                    "name": "C#4",
                    "midi": 61,
                    "time": 235.39999999999333,
                    "velocity": 0.2125984251968504,
                    "duration": 0.18999999999999773
                },
                {
                    "name": "G#4",
                    "midi": 68,
                    "time": 235.39999999999333,
                    "velocity": 0.2125984251968504,
                    "duration": 0.18999999999999773
                },
                {
                    "name": "C#4",
                    "midi": 61,
                    "time": 235.59999999999332,
                    "velocity": 0.2125984251968504,
                    "duration": 0.18999999999999773
                },
                {
                    "name": "G#4",
                    "midi": 68,
                    "time": 235.59999999999332,
                    "velocity": 0.2125984251968504,
                    "duration": 0.18999999999999773
                },
                {
                    "name": "C#4",
                    "midi": 61,
                    "time": 235.7999999999933,
                    "velocity": 0.2125984251968504,
                    "duration": 0.18999999999999773
                },
                {
                    "name": "G#4",
                    "midi": 68,
                    "time": 235.7999999999933,
                    "velocity": 0.2125984251968504,
                    "duration": 0.18999999999999773
                },
                {
                    "name": "C#4",
                    "midi": 61,
                    "time": 235.9999999999933,
                    "velocity": 0.2125984251968504,
                    "duration": 0.18999999999999773
                },
                {
                    "name": "G#4",
                    "midi": 68,
                    "time": 235.9999999999933,
                    "velocity": 0.2125984251968504,
                    "duration": 0.18999999999999773
                },
                {
                    "name": "C#4",
                    "midi": 61,
                    "time": 236.19999999999328,
                    "velocity": 0.2125984251968504,
                    "duration": 0.18999999999999773
                },
                {
                    "name": "G#4",
                    "midi": 68,
                    "time": 236.19999999999328,
                    "velocity": 0.2125984251968504,
                    "duration": 0.18999999999999773
                },
                {
                    "name": "C5",
                    "midi": 72,
                    "time": 236.39999999999327,
                    "velocity": 0.48031496062992124,
                    "duration": 1.1999999999999318
                },
                {
                    "name": "C4",
                    "midi": 60,
                    "time": 236.59999999999326,
                    "velocity": 0.2125984251968504,
                    "duration": 0.18999999999999773
                },
                {
                    "name": "G#4",
                    "midi": 68,
                    "time": 236.59999999999326,
                    "velocity": 0.2125984251968504,
                    "duration": 0.18999999999999773
                },
                {
                    "name": "C4",
                    "midi": 60,
                    "time": 236.79999999999325,
                    "velocity": 0.2125984251968504,
                    "duration": 0.18999999999999773
                },
                {
                    "name": "G#4",
                    "midi": 68,
                    "time": 236.79999999999325,
                    "velocity": 0.2125984251968504,
                    "duration": 0.18999999999999773
                },
                {
                    "name": "C4",
                    "midi": 60,
                    "time": 236.99999999999324,
                    "velocity": 0.2125984251968504,
                    "duration": 0.18999999999999773
                },
                {
                    "name": "G#4",
                    "midi": 68,
                    "time": 236.99999999999324,
                    "velocity": 0.2125984251968504,
                    "duration": 0.18999999999999773
                },
                {
                    "name": "C4",
                    "midi": 60,
                    "time": 237.19999999999322,
                    "velocity": 0.2125984251968504,
                    "duration": 0.18999999999999773
                },
                {
                    "name": "G#4",
                    "midi": 68,
                    "time": 237.19999999999322,
                    "velocity": 0.2125984251968504,
                    "duration": 0.18999999999999773
                },
                {
                    "name": "C4",
                    "midi": 60,
                    "time": 237.3999999999932,
                    "velocity": 0.2125984251968504,
                    "duration": 0.18999999999999773
                },
                {
                    "name": "G#4",
                    "midi": 68,
                    "time": 237.3999999999932,
                    "velocity": 0.2125984251968504,
                    "duration": 0.18999999999999773
                },
                {
                    "name": "C5",
                    "midi": 72,
                    "time": 237.5999999999932,
                    "velocity": 0.4566929133858268,
                    "duration": 0.39999999999997726
                },
                {
                    "name": "C4",
                    "midi": 60,
                    "time": 237.7999999999932,
                    "velocity": 0.2755905511811024,
                    "duration": 0.18999999999999773
                },
                {
                    "name": "A4",
                    "midi": 69,
                    "time": 237.7999999999932,
                    "velocity": 0.2755905511811024,
                    "duration": 0.18999999999999773
                },
                {
                    "name": "C#5",
                    "midi": 73,
                    "time": 237.99999999999318,
                    "velocity": 0.5354330708661418,
                    "duration": 1.1999999999999318
                },
                {
                    "name": "C#4",
                    "midi": 61,
                    "time": 238.19999999999317,
                    "velocity": 0.2755905511811024,
                    "duration": 0.18999999999999773
                },
                {
                    "name": "A4",
                    "midi": 69,
                    "time": 238.19999999999317,
                    "velocity": 0.2755905511811024,
                    "duration": 0.18999999999999773
                },
                {
                    "name": "C#4",
                    "midi": 61,
                    "time": 238.39999999999316,
                    "velocity": 0.2755905511811024,
                    "duration": 0.18999999999999773
                },
                {
                    "name": "A4",
                    "midi": 69,
                    "time": 238.39999999999316,
                    "velocity": 0.2755905511811024,
                    "duration": 0.18999999999999773
                },
                {
                    "name": "C#4",
                    "midi": 61,
                    "time": 238.59999999999314,
                    "velocity": 0.2755905511811024,
                    "duration": 0.18999999999999773
                },
                {
                    "name": "A4",
                    "midi": 69,
                    "time": 238.59999999999314,
                    "velocity": 0.2755905511811024,
                    "duration": 0.18999999999999773
                },
                {
                    "name": "C#4",
                    "midi": 61,
                    "time": 238.79999999999313,
                    "velocity": 0.2755905511811024,
                    "duration": 0.18999999999999773
                },
                {
                    "name": "A4",
                    "midi": 69,
                    "time": 238.79999999999313,
                    "velocity": 0.2755905511811024,
                    "duration": 0.18999999999999773
                },
                {
                    "name": "C#4",
                    "midi": 61,
                    "time": 238.99999999999312,
                    "velocity": 0.2755905511811024,
                    "duration": 0.18999999999999773
                },
                {
                    "name": "A4",
                    "midi": 69,
                    "time": 238.99999999999312,
                    "velocity": 0.2755905511811024,
                    "duration": 0.18999999999999773
                },
                {
                    "name": "C#5",
                    "midi": 73,
                    "time": 239.1999999999931,
                    "velocity": 0.5511811023622047,
                    "duration": 0.39999999999997726
                },
                {
                    "name": "C#4",
                    "midi": 61,
                    "time": 239.3999999999931,
                    "velocity": 0.2755905511811024,
                    "duration": 0.19999999999998863
                },
                {
                    "name": "A4",
                    "midi": 69,
                    "time": 239.3999999999931,
                    "velocity": 0.2755905511811024,
                    "duration": 0.19999999999998863
                },
                {
                    "name": "C#5",
                    "midi": 73,
                    "time": 239.5999999999931,
                    "velocity": 0.5433070866141733,
                    "duration": 0.39999999999997726
                },
                {
                    "name": "C#4",
                    "midi": 61,
                    "time": 239.79999999999308,
                    "velocity": 0.2755905511811024,
                    "duration": 0.19999999999998863
                },
                {
                    "name": "A4",
                    "midi": 69,
                    "time": 239.79999999999308,
                    "velocity": 0.2755905511811024,
                    "duration": 0.19999999999998863
                },
                {
                    "name": "C#5",
                    "midi": 73,
                    "time": 239.99999999999307,
                    "velocity": 0.5511811023622047,
                    "duration": 0.39999999999997726
                },
                {
                    "name": "C#4",
                    "midi": 61,
                    "time": 240.19999999999305,
                    "velocity": 0.3464566929133858,
                    "duration": 0.18999999999999773
                },
                {
                    "name": "G#4",
                    "midi": 68,
                    "time": 240.19999999999305,
                    "velocity": 0.3464566929133858,
                    "duration": 0.18999999999999773
                },
                {
                    "name": "D5",
                    "midi": 74,
                    "time": 240.39999999999304,
                    "velocity": 0.6141732283464567,
                    "duration": 1.1999999999999318
                },
                {
                    "name": "D4",
                    "midi": 62,
                    "time": 240.59999999999303,
                    "velocity": 0.3464566929133858,
                    "duration": 0.18999999999999773
                },
                {
                    "name": "G#4",
                    "midi": 68,
                    "time": 240.59999999999303,
                    "velocity": 0.3464566929133858,
                    "duration": 0.18999999999999773
                },
                {
                    "name": "D4",
                    "midi": 62,
                    "time": 240.79999999999302,
                    "velocity": 0.3464566929133858,
                    "duration": 0.18999999999999773
                },
                {
                    "name": "G#4",
                    "midi": 68,
                    "time": 240.79999999999302,
                    "velocity": 0.3464566929133858,
                    "duration": 0.18999999999999773
                },
                {
                    "name": "D4",
                    "midi": 62,
                    "time": 240.999999999993,
                    "velocity": 0.3464566929133858,
                    "duration": 0.18999999999999773
                },
                {
                    "name": "G#4",
                    "midi": 68,
                    "time": 240.999999999993,
                    "velocity": 0.3464566929133858,
                    "duration": 0.18999999999999773
                },
                {
                    "name": "D4",
                    "midi": 62,
                    "time": 241.199999999993,
                    "velocity": 0.3464566929133858,
                    "duration": 0.18999999999999773
                },
                {
                    "name": "G#4",
                    "midi": 68,
                    "time": 241.199999999993,
                    "velocity": 0.3464566929133858,
                    "duration": 0.18999999999999773
                },
                {
                    "name": "D4",
                    "midi": 62,
                    "time": 241.39999999999299,
                    "velocity": 0.3464566929133858,
                    "duration": 0.18999999999999773
                },
                {
                    "name": "G#4",
                    "midi": 68,
                    "time": 241.39999999999299,
                    "velocity": 0.3464566929133858,
                    "duration": 0.18999999999999773
                },
                {
                    "name": "D5",
                    "midi": 74,
                    "time": 241.59999999999297,
                    "velocity": 0.5905511811023622,
                    "duration": 0.39999999999997726
                },
                {
                    "name": "D4",
                    "midi": 62,
                    "time": 241.79999999999296,
                    "velocity": 0.3464566929133858,
                    "duration": 0.19999999999998863
                },
                {
                    "name": "G#4",
                    "midi": 68,
                    "time": 241.79999999999296,
                    "velocity": 0.3464566929133858,
                    "duration": 0.19999999999998863
                },
                {
                    "name": "D5",
                    "midi": 74,
                    "time": 241.99999999999295,
                    "velocity": 0.5905511811023622,
                    "duration": 0.39999999999997726
                },
                {
                    "name": "D4",
                    "midi": 62,
                    "time": 242.19999999999294,
                    "velocity": 0.3464566929133858,
                    "duration": 0.19999999999998863
                },
                {
                    "name": "G#4",
                    "midi": 68,
                    "time": 242.19999999999294,
                    "velocity": 0.3464566929133858,
                    "duration": 0.19999999999998863
                },
                {
                    "name": "F5",
                    "midi": 77,
                    "time": 242.39999999999293,
                    "velocity": 0.6614173228346457,
                    "duration": 0.39999999999997726
                },
                {
                    "name": "F4",
                    "midi": 65,
                    "time": 242.59999999999292,
                    "velocity": 0.36220472440944884,
                    "duration": 0.18999999999999773
                },
                {
                    "name": "D5",
                    "midi": 74,
                    "time": 242.59999999999292,
                    "velocity": 0.36220472440944884,
                    "duration": 0.18999999999999773
                },
                {
                    "name": "F#5",
                    "midi": 78,
                    "time": 242.7999999999929,
                    "velocity": 0.6929133858267716,
                    "duration": 1.1999999999999318
                },
                {
                    "name": "F#4",
                    "midi": 66,
                    "time": 242.9999999999929,
                    "velocity": 0.3779527559055118,
                    "duration": 0.18999999999999773
                },
                {
                    "name": "D5",
                    "midi": 74,
                    "time": 242.9999999999929,
                    "velocity": 0.3779527559055118,
                    "duration": 0.18999999999999773
                },
                {
                    "name": "F#4",
                    "midi": 66,
                    "time": 243.19999999999288,
                    "velocity": 0.3700787401574803,
                    "duration": 0.18999999999999773
                },
                {
                    "name": "D5",
                    "midi": 74,
                    "time": 243.19999999999288,
                    "velocity": 0.3700787401574803,
                    "duration": 0.18999999999999773
                },
                {
                    "name": "F#4",
                    "midi": 66,
                    "time": 243.39999999999287,
                    "velocity": 0.3700787401574803,
                    "duration": 0.18999999999999773
                },
                {
                    "name": "D5",
                    "midi": 74,
                    "time": 243.39999999999287,
                    "velocity": 0.3700787401574803,
                    "duration": 0.18999999999999773
                },
                {
                    "name": "F#4",
                    "midi": 66,
                    "time": 243.59999999999286,
                    "velocity": 0.3700787401574803,
                    "duration": 0.18999999999999773
                },
                {
                    "name": "D5",
                    "midi": 74,
                    "time": 243.59999999999286,
                    "velocity": 0.3700787401574803,
                    "duration": 0.18999999999999773
                },
                {
                    "name": "F#4",
                    "midi": 66,
                    "time": 243.79999999999285,
                    "velocity": 0.3700787401574803,
                    "duration": 0.18999999999999773
                },
                {
                    "name": "D5",
                    "midi": 74,
                    "time": 243.79999999999285,
                    "velocity": 0.3700787401574803,
                    "duration": 0.18999999999999773
                },
                {
                    "name": "F#5",
                    "midi": 78,
                    "time": 243.99999999999284,
                    "velocity": 0.6771653543307087,
                    "duration": 0.39999999999997726
                },
                {
                    "name": "F#4",
                    "midi": 66,
                    "time": 244.19999999999283,
                    "velocity": 0.3779527559055118,
                    "duration": 0.19999999999998863
                },
                {
                    "name": "D5",
                    "midi": 74,
                    "time": 244.19999999999283,
                    "velocity": 0.3779527559055118,
                    "duration": 0.19999999999998863
                },
                {
                    "name": "F#5",
                    "midi": 78,
                    "time": 244.39999999999281,
                    "velocity": 0.6771653543307087,
                    "duration": 0.39999999999997726
                },
                {
                    "name": "F#4",
                    "midi": 66,
                    "time": 244.5999999999928,
                    "velocity": 0.3700787401574803,
                    "duration": 0.19999999999998863
                },
                {
                    "name": "D5",
                    "midi": 74,
                    "time": 244.5999999999928,
                    "velocity": 0.3700787401574803,
                    "duration": 0.19999999999998863
                },
                {
                    "name": "F#5",
                    "midi": 78,
                    "time": 244.7999999999928,
                    "velocity": 0.6771653543307087,
                    "duration": 0.39999999999997726
                },
                {
                    "name": "F#4",
                    "midi": 66,
                    "time": 244.99999999999278,
                    "velocity": 0.3700787401574803,
                    "duration": 0.19999999999998863
                },
                {
                    "name": "C#5",
                    "midi": 73,
                    "time": 244.99999999999278,
                    "velocity": 0.3700787401574803,
                    "duration": 0.19999999999998863
                },
                {
                    "name": "G5",
                    "midi": 79,
                    "time": 245.19999999999277,
                    "velocity": 0.7559055118110236,
                    "duration": 1.1999999999999318
                },
                {
                    "name": "G4",
                    "midi": 67,
                    "time": 245.39999999999276,
                    "velocity": 0.3858267716535433,
                    "duration": 0.18999999999999773
                },
                {
                    "name": "C#5",
                    "midi": 73,
                    "time": 245.39999999999276,
                    "velocity": 0.3858267716535433,
                    "duration": 0.18999999999999773
                },
                {
                    "name": "G4",
                    "midi": 67,
                    "time": 245.59999999999275,
                    "velocity": 0.3858267716535433,
                    "duration": 0.18999999999999773
                },
                {
                    "name": "C#5",
                    "midi": 73,
                    "time": 245.59999999999275,
                    "velocity": 0.3858267716535433,
                    "duration": 0.18999999999999773
                },
                {
                    "name": "G4",
                    "midi": 67,
                    "time": 245.79999999999274,
                    "velocity": 0.3858267716535433,
                    "duration": 0.18999999999999773
                },
                {
                    "name": "C#5",
                    "midi": 73,
                    "time": 245.79999999999274,
                    "velocity": 0.3858267716535433,
                    "duration": 0.18999999999999773
                },
                {
                    "name": "G4",
                    "midi": 67,
                    "time": 245.99999999999272,
                    "velocity": 0.3858267716535433,
                    "duration": 0.18999999999999773
                },
                {
                    "name": "C#5",
                    "midi": 73,
                    "time": 245.99999999999272,
                    "velocity": 0.3858267716535433,
                    "duration": 0.18999999999999773
                },
                {
                    "name": "G4",
                    "midi": 67,
                    "time": 246.1999999999927,
                    "velocity": 0.3858267716535433,
                    "duration": 0.18999999999999773
                },
                {
                    "name": "C#5",
                    "midi": 73,
                    "time": 246.1999999999927,
                    "velocity": 0.3858267716535433,
                    "duration": 0.18999999999999773
                },
                {
                    "name": "G5",
                    "midi": 79,
                    "time": 246.3999999999927,
                    "velocity": 0.7401574803149606,
                    "duration": 0.39999999999997726
                },
                {
                    "name": "G4",
                    "midi": 67,
                    "time": 246.5999999999927,
                    "velocity": 0.3779527559055118,
                    "duration": 0.19999999999998863
                },
                {
                    "name": "C#5",
                    "midi": 73,
                    "time": 246.5999999999927,
                    "velocity": 0.3779527559055118,
                    "duration": 0.19999999999998863
                },
                {
                    "name": "G5",
                    "midi": 79,
                    "time": 246.79999999999268,
                    "velocity": 0.7637795275590551,
                    "duration": 0.39999999999997726
                },
                {
                    "name": "G4",
                    "midi": 67,
                    "time": 246.99999999999267,
                    "velocity": 0.3937007874015748,
                    "duration": 0.19999999999998863
                },
                {
                    "name": "C#5",
                    "midi": 73,
                    "time": 246.99999999999267,
                    "velocity": 0.3937007874015748,
                    "duration": 0.19999999999998863
                },
                {
                    "name": "A5",
                    "midi": 81,
                    "time": 247.19999999999266,
                    "velocity": 0.7795275590551181,
                    "duration": 0.39999999999997726
                },
                {
                    "name": "C#5",
                    "midi": 73,
                    "time": 247.39999999999264,
                    "velocity": 0.4015748031496063,
                    "duration": 0.18999999999999773
                },
                {
                    "name": "A4",
                    "midi": 69,
                    "time": 247.39999999999264,
                    "velocity": 0.4015748031496063,
                    "duration": 0.18999999999999773
                },
                {
                    "name": "G#5",
                    "midi": 80,
                    "time": 247.59999999999263,
                    "velocity": 0.7559055118110236,
                    "duration": 0.7999999999999545
                },
                {
                    "name": "G#4",
                    "midi": 68,
                    "time": 247.79999999999262,
                    "velocity": 0.4015748031496063,
                    "duration": 0.18999999999999773
                },
                {
                    "name": "C#5",
                    "midi": 73,
                    "time": 247.79999999999262,
                    "velocity": 0.4015748031496063,
                    "duration": 0.18999999999999773
                },
                {
                    "name": "G#4",
                    "midi": 68,
                    "time": 247.9999999999926,
                    "velocity": 0.3464566929133858,
                    "duration": 0.18999999999999773
                },
                {
                    "name": "C#5",
                    "midi": 73,
                    "time": 247.9999999999926,
                    "velocity": 0.3464566929133858,
                    "duration": 0.18999999999999773
                },
                {
                    "name": "G#4",
                    "midi": 68,
                    "time": 248.1999999999926,
                    "velocity": 0.4015748031496063,
                    "duration": 0.18999999999999773
                },
                {
                    "name": "C#5",
                    "midi": 73,
                    "time": 248.1999999999926,
                    "velocity": 0.4015748031496063,
                    "duration": 0.18999999999999773
                },
                {
                    "name": "A5",
                    "midi": 81,
                    "time": 248.3999999999926,
                    "velocity": 0.7795275590551181,
                    "duration": 0.39999999999997726
                },
                {
                    "name": "A4",
                    "midi": 69,
                    "time": 248.59999999999258,
                    "velocity": 0.4094488188976378,
                    "duration": 0.18999999999999773
                },
                {
                    "name": "C5",
                    "midi": 72,
                    "time": 248.59999999999258,
                    "velocity": 0.4094488188976378,
                    "duration": 0.18999999999999773
                },
                {
                    "name": "G#5",
                    "midi": 80,
                    "time": 248.79999999999256,
                    "velocity": 0.7480314960629921,
                    "duration": 0.7999999999999545
                },
                {
                    "name": "G#4",
                    "midi": 68,
                    "time": 248.99999999999255,
                    "velocity": 0.4094488188976378,
                    "duration": 0.18999999999999773
                },
                {
                    "name": "C5",
                    "midi": 72,
                    "time": 248.99999999999255,
                    "velocity": 0.4094488188976378,
                    "duration": 0.18999999999999773
                },
                {
                    "name": "G#4",
                    "midi": 68,
                    "time": 249.19999999999254,
                    "velocity": 0.4094488188976378,
                    "duration": 0.18999999999999773
                },
                {
                    "name": "C5",
                    "midi": 72,
                    "time": 249.19999999999254,
                    "velocity": 0.4094488188976378,
                    "duration": 0.18999999999999773
                },
                {
                    "name": "G#4",
                    "midi": 68,
                    "time": 249.39999999999253,
                    "velocity": 0.4094488188976378,
                    "duration": 0.18999999999999773
                },
                {
                    "name": "C5",
                    "midi": 72,
                    "time": 249.39999999999253,
                    "velocity": 0.4094488188976378,
                    "duration": 0.18999999999999773
                },
                {
                    "name": "C#5",
                    "midi": 73,
                    "time": 249.59999999999252,
                    "velocity": 0.6771653543307087,
                    "duration": 1.599999999999909
                },
                {
                    "name": "G#4",
                    "midi": 68,
                    "time": 249.7999999999925,
                    "velocity": 0.3464566929133858,
                    "duration": 0.18999999999999773
                },
                {
                    "name": "C#4",
                    "midi": 61,
                    "time": 249.7999999999925,
                    "velocity": 0.3464566929133858,
                    "duration": 0.18999999999999773
                },
                {
                    "name": "E4",
                    "midi": 64,
                    "time": 249.7999999999925,
                    "velocity": 0.3464566929133858,
                    "duration": 0.18999999999999773
                },
                {
                    "name": "G#4",
                    "midi": 68,
                    "time": 249.9999999999925,
                    "velocity": 0.3464566929133858,
                    "duration": 0.18999999999999773
                },
                {
                    "name": "C#4",
                    "midi": 61,
                    "time": 249.9999999999925,
                    "velocity": 0.3464566929133858,
                    "duration": 0.18999999999999773
                },
                {
                    "name": "E4",
                    "midi": 64,
                    "time": 249.9999999999925,
                    "velocity": 0.3464566929133858,
                    "duration": 0.18999999999999773
                },
                {
                    "name": "G#4",
                    "midi": 68,
                    "time": 250.19999999999249,
                    "velocity": 0.3464566929133858,
                    "duration": 0.18999999999999773
                },
                {
                    "name": "C#4",
                    "midi": 61,
                    "time": 250.19999999999249,
                    "velocity": 0.3464566929133858,
                    "duration": 0.18999999999999773
                },
                {
                    "name": "E4",
                    "midi": 64,
                    "time": 250.19999999999249,
                    "velocity": 0.3464566929133858,
                    "duration": 0.18999999999999773
                },
                {
                    "name": "G#4",
                    "midi": 68,
                    "time": 250.39999999999247,
                    "velocity": 0.3464566929133858,
                    "duration": 0.18999999999999773
                },
                {
                    "name": "C#4",
                    "midi": 61,
                    "time": 250.39999999999247,
                    "velocity": 0.3464566929133858,
                    "duration": 0.18999999999999773
                },
                {
                    "name": "E4",
                    "midi": 64,
                    "time": 250.39999999999247,
                    "velocity": 0.3464566929133858,
                    "duration": 0.18999999999999773
                },
                {
                    "name": "G#4",
                    "midi": 68,
                    "time": 250.59999999999246,
                    "velocity": 0.3464566929133858,
                    "duration": 0.18999999999999773
                },
                {
                    "name": "C#4",
                    "midi": 61,
                    "time": 250.59999999999246,
                    "velocity": 0.3464566929133858,
                    "duration": 0.18999999999999773
                },
                {
                    "name": "E4",
                    "midi": 64,
                    "time": 250.59999999999246,
                    "velocity": 0.3464566929133858,
                    "duration": 0.18999999999999773
                },
                {
                    "name": "G#4",
                    "midi": 68,
                    "time": 250.79999999999245,
                    "velocity": 0.3464566929133858,
                    "duration": 0.18999999999999773
                },
                {
                    "name": "C#4",
                    "midi": 61,
                    "time": 250.79999999999245,
                    "velocity": 0.3464566929133858,
                    "duration": 0.18999999999999773
                },
                {
                    "name": "E4",
                    "midi": 64,
                    "time": 250.79999999999245,
                    "velocity": 0.3464566929133858,
                    "duration": 0.18999999999999773
                },
                {
                    "name": "G#4",
                    "midi": 68,
                    "time": 250.99999999999244,
                    "velocity": 0.3464566929133858,
                    "duration": 0.18999999999999773
                },
                {
                    "name": "C#4",
                    "midi": 61,
                    "time": 250.99999999999244,
                    "velocity": 0.3464566929133858,
                    "duration": 0.18999999999999773
                },
                {
                    "name": "E4",
                    "midi": 64,
                    "time": 250.99999999999244,
                    "velocity": 0.3464566929133858,
                    "duration": 0.18999999999999773
                },
                {
                    "name": "G#4",
                    "midi": 68,
                    "time": 251.19999999999243,
                    "velocity": 0.3779527559055118,
                    "duration": 0.39999999999997726
                },
                {
                    "name": "C#4",
                    "midi": 61,
                    "time": 251.39999999999242,
                    "velocity": 0.2047244094488189,
                    "duration": 0.18999999999999773
                },
                {
                    "name": "E4",
                    "midi": 64,
                    "time": 251.39999999999242,
                    "velocity": 0.2047244094488189,
                    "duration": 0.18999999999999773
                },
                {
                    "name": "G#4",
                    "midi": 68,
                    "time": 251.5999999999924,
                    "velocity": 0.33070866141732286,
                    "duration": 0.39999999999997726
                },
                {
                    "name": "C#4",
                    "midi": 61,
                    "time": 251.7999999999924,
                    "velocity": 0.2047244094488189,
                    "duration": 0.18999999999999773
                },
                {
                    "name": "E4",
                    "midi": 64,
                    "time": 251.7999999999924,
                    "velocity": 0.2047244094488189,
                    "duration": 0.18999999999999773
                },
                {
                    "name": "G#4",
                    "midi": 68,
                    "time": 251.99999999999238,
                    "velocity": 0.33070866141732286,
                    "duration": 1.599999999999909
                },
                {
                    "name": "C#4",
                    "midi": 61,
                    "time": 252.19999999999237,
                    "velocity": 0.2047244094488189,
                    "duration": 0.18999999999999773
                },
                {
                    "name": "E4",
                    "midi": 64,
                    "time": 252.19999999999237,
                    "velocity": 0.2047244094488189,
                    "duration": 0.18999999999999773
                },
                {
                    "name": "C#4",
                    "midi": 61,
                    "time": 252.39999999999236,
                    "velocity": 0.2047244094488189,
                    "duration": 0.18999999999999773
                },
                {
                    "name": "E4",
                    "midi": 64,
                    "time": 252.39999999999236,
                    "velocity": 0.2047244094488189,
                    "duration": 0.18999999999999773
                },
                {
                    "name": "C#4",
                    "midi": 61,
                    "time": 252.59999999999235,
                    "velocity": 0.2047244094488189,
                    "duration": 0.18999999999999773
                },
                {
                    "name": "E4",
                    "midi": 64,
                    "time": 252.59999999999235,
                    "velocity": 0.2047244094488189,
                    "duration": 0.18999999999999773
                },
                {
                    "name": "C#4",
                    "midi": 61,
                    "time": 252.79999999999234,
                    "velocity": 0.2047244094488189,
                    "duration": 0.18999999999999773
                },
                {
                    "name": "E4",
                    "midi": 64,
                    "time": 252.79999999999234,
                    "velocity": 0.2047244094488189,
                    "duration": 0.18999999999999773
                },
                {
                    "name": "C#4",
                    "midi": 61,
                    "time": 252.99999999999233,
                    "velocity": 0.2047244094488189,
                    "duration": 0.18999999999999773
                },
                {
                    "name": "E4",
                    "midi": 64,
                    "time": 252.99999999999233,
                    "velocity": 0.2047244094488189,
                    "duration": 0.18999999999999773
                },
                {
                    "name": "C#4",
                    "midi": 61,
                    "time": 253.19999999999231,
                    "velocity": 0.2047244094488189,
                    "duration": 0.18999999999999773
                },
                {
                    "name": "E4",
                    "midi": 64,
                    "time": 253.19999999999231,
                    "velocity": 0.2047244094488189,
                    "duration": 0.18999999999999773
                },
                {
                    "name": "C#4",
                    "midi": 61,
                    "time": 253.3999999999923,
                    "velocity": 0.2047244094488189,
                    "duration": 0.18999999999999773
                },
                {
                    "name": "E4",
                    "midi": 64,
                    "time": 253.3999999999923,
                    "velocity": 0.2047244094488189,
                    "duration": 0.18999999999999773
                },
                {
                    "name": "G#4",
                    "midi": 68,
                    "time": 253.5999999999923,
                    "velocity": 0.33070866141732286,
                    "duration": 0.39999999999997726
                },
                {
                    "name": "C#4",
                    "midi": 61,
                    "time": 253.79999999999228,
                    "velocity": 0.2047244094488189,
                    "duration": 0.18999999999999773
                },
                {
                    "name": "E4",
                    "midi": 64,
                    "time": 253.79999999999228,
                    "velocity": 0.2047244094488189,
                    "duration": 0.18999999999999773
                },
                {
                    "name": "A#4",
                    "midi": 70,
                    "time": 253.99999999999227,
                    "velocity": 0.33070866141732286,
                    "duration": 0.39999999999997726
                },
                {
                    "name": "C#4",
                    "midi": 61,
                    "time": 254.19999999999226,
                    "velocity": 0.2047244094488189,
                    "duration": 0.18999999999999773
                },
                {
                    "name": "E4",
                    "midi": 64,
                    "time": 254.19999999999226,
                    "velocity": 0.2047244094488189,
                    "duration": 0.18999999999999773
                },
                {
                    "name": "G#4",
                    "midi": 68,
                    "time": 254.39999999999225,
                    "velocity": 0.29133858267716534,
                    "duration": 2.3999999999998636
                },
                {
                    "name": "A#3",
                    "midi": 58,
                    "time": 254.59999999999224,
                    "velocity": 0.2047244094488189,
                    "duration": 0.18999999999999773
                },
                {
                    "name": "C#4",
                    "midi": 61,
                    "time": 254.59999999999224,
                    "velocity": 0.2047244094488189,
                    "duration": 0.18999999999999773
                },
                {
                    "name": "A#3",
                    "midi": 58,
                    "time": 254.79999999999222,
                    "velocity": 0.2047244094488189,
                    "duration": 0.18999999999999773
                },
                {
                    "name": "C#4",
                    "midi": 61,
                    "time": 254.79999999999222,
                    "velocity": 0.2047244094488189,
                    "duration": 0.18999999999999773
                },
                {
                    "name": "A#3",
                    "midi": 58,
                    "time": 254.9999999999922,
                    "velocity": 0.1968503937007874,
                    "duration": 0.18999999999999773
                },
                {
                    "name": "C#4",
                    "midi": 61,
                    "time": 254.9999999999922,
                    "velocity": 0.1968503937007874,
                    "duration": 0.18999999999999773
                },
                {
                    "name": "A#3",
                    "midi": 58,
                    "time": 255.1999999999922,
                    "velocity": 0.1968503937007874,
                    "duration": 0.18999999999999773
                },
                {
                    "name": "C#4",
                    "midi": 61,
                    "time": 255.1999999999922,
                    "velocity": 0.1968503937007874,
                    "duration": 0.18999999999999773
                },
                {
                    "name": "A#3",
                    "midi": 58,
                    "time": 255.3999999999922,
                    "velocity": 0.1889763779527559,
                    "duration": 0.18999999999999773
                },
                {
                    "name": "C#4",
                    "midi": 61,
                    "time": 255.3999999999922,
                    "velocity": 0.1889763779527559,
                    "duration": 0.18999999999999773
                },
                {
                    "name": "A#3",
                    "midi": 58,
                    "time": 255.59999999999218,
                    "velocity": 0.1889763779527559,
                    "duration": 0.18999999999999773
                },
                {
                    "name": "C#4",
                    "midi": 61,
                    "time": 255.59999999999218,
                    "velocity": 0.1889763779527559,
                    "duration": 0.18999999999999773
                },
                {
                    "name": "A#3",
                    "midi": 58,
                    "time": 255.79999999999217,
                    "velocity": 0.1889763779527559,
                    "duration": 0.18999999999999773
                },
                {
                    "name": "C#4",
                    "midi": 61,
                    "time": 255.79999999999217,
                    "velocity": 0.1889763779527559,
                    "duration": 0.18999999999999773
                },
                {
                    "name": "A#3",
                    "midi": 58,
                    "time": 255.99999999999216,
                    "velocity": 0.18110236220472442,
                    "duration": 0.18999999999999773
                },
                {
                    "name": "C#4",
                    "midi": 61,
                    "time": 255.99999999999216,
                    "velocity": 0.18110236220472442,
                    "duration": 0.18999999999999773
                },
                {
                    "name": "A#3",
                    "midi": 58,
                    "time": 256.19999999999214,
                    "velocity": 0.18110236220472442,
                    "duration": 0.18999999999999773
                },
                {
                    "name": "C#4",
                    "midi": 61,
                    "time": 256.19999999999214,
                    "velocity": 0.18110236220472442,
                    "duration": 0.18999999999999773
                },
                {
                    "name": "A#3",
                    "midi": 58,
                    "time": 256.39999999999213,
                    "velocity": 0.1732283464566929,
                    "duration": 0.18999999999999773
                },
                {
                    "name": "C#4",
                    "midi": 61,
                    "time": 256.39999999999213,
                    "velocity": 0.1732283464566929,
                    "duration": 0.18999999999999773
                },
                {
                    "name": "A#3",
                    "midi": 58,
                    "time": 256.5999999999921,
                    "velocity": 0.1732283464566929,
                    "duration": 0.18999999999999773
                },
                {
                    "name": "C#4",
                    "midi": 61,
                    "time": 256.5999999999921,
                    "velocity": 0.1732283464566929,
                    "duration": 0.18999999999999773
                },
                {
                    "name": "G4",
                    "midi": 67,
                    "time": 256.7999999999921,
                    "velocity": 0.2440944881889764,
                    "duration": 2.3999999999998636
                },
                {
                    "name": "A#3",
                    "midi": 58,
                    "time": 256.9999999999921,
                    "velocity": 0.1732283464566929,
                    "duration": 0.18999999999999773
                },
                {
                    "name": "C#4",
                    "midi": 61,
                    "time": 256.9999999999921,
                    "velocity": 0.1732283464566929,
                    "duration": 0.18999999999999773
                },
                {
                    "name": "A#3",
                    "midi": 58,
                    "time": 257.1999999999921,
                    "velocity": 0.1732283464566929,
                    "duration": 0.18999999999999773
                },
                {
                    "name": "C#4",
                    "midi": 61,
                    "time": 257.1999999999921,
                    "velocity": 0.1732283464566929,
                    "duration": 0.18999999999999773
                },
                {
                    "name": "A#3",
                    "midi": 58,
                    "time": 257.3999999999921,
                    "velocity": 0.15748031496062992,
                    "duration": 0.18999999999999773
                },
                {
                    "name": "C#4",
                    "midi": 61,
                    "time": 257.3999999999921,
                    "velocity": 0.15748031496062992,
                    "duration": 0.18999999999999773
                },
                {
                    "name": "A#3",
                    "midi": 58,
                    "time": 257.59999999999206,
                    "velocity": 0.15748031496062992,
                    "duration": 0.18999999999999773
                },
                {
                    "name": "C#4",
                    "midi": 61,
                    "time": 257.59999999999206,
                    "velocity": 0.15748031496062992,
                    "duration": 0.18999999999999773
                },
                {
                    "name": "A#3",
                    "midi": 58,
                    "time": 257.79999999999205,
                    "velocity": 0.14960629921259844,
                    "duration": 0.18999999999999773
                },
                {
                    "name": "C#4",
                    "midi": 61,
                    "time": 257.79999999999205,
                    "velocity": 0.14960629921259844,
                    "duration": 0.18999999999999773
                },
                {
                    "name": "A#3",
                    "midi": 58,
                    "time": 257.99999999999204,
                    "velocity": 0.14960629921259844,
                    "duration": 0.18999999999999773
                },
                {
                    "name": "C#4",
                    "midi": 61,
                    "time": 257.99999999999204,
                    "velocity": 0.14960629921259844,
                    "duration": 0.18999999999999773
                },
                {
                    "name": "A#3",
                    "midi": 58,
                    "time": 258.19999999999203,
                    "velocity": 0.14960629921259844,
                    "duration": 0.18999999999999773
                },
                {
                    "name": "C#4",
                    "midi": 61,
                    "time": 258.19999999999203,
                    "velocity": 0.14960629921259844,
                    "duration": 0.18999999999999773
                },
                {
                    "name": "A#3",
                    "midi": 58,
                    "time": 258.399999999992,
                    "velocity": 0.14173228346456693,
                    "duration": 0.18999999999999773
                },
                {
                    "name": "C#4",
                    "midi": 61,
                    "time": 258.399999999992,
                    "velocity": 0.14173228346456693,
                    "duration": 0.18999999999999773
                },
                {
                    "name": "A#3",
                    "midi": 58,
                    "time": 258.599999999992,
                    "velocity": 0.14173228346456693,
                    "duration": 0.18999999999999773
                },
                {
                    "name": "C#4",
                    "midi": 61,
                    "time": 258.599999999992,
                    "velocity": 0.14173228346456693,
                    "duration": 0.18999999999999773
                },
                {
                    "name": "A#3",
                    "midi": 58,
                    "time": 258.799999999992,
                    "velocity": 0.13385826771653545,
                    "duration": 0.18999999999999773
                },
                {
                    "name": "C#4",
                    "midi": 61,
                    "time": 258.799999999992,
                    "velocity": 0.13385826771653545,
                    "duration": 0.18999999999999773
                },
                {
                    "name": "A#3",
                    "midi": 58,
                    "time": 258.999999999992,
                    "velocity": 0.13385826771653545,
                    "duration": 0.18999999999999773
                },
                {
                    "name": "C#4",
                    "midi": 61,
                    "time": 258.999999999992,
                    "velocity": 0.13385826771653545,
                    "duration": 0.18999999999999773
                },
                {
                    "name": "G4",
                    "midi": 67,
                    "time": 259.199999999992,
                    "velocity": 0.3228346456692913,
                    "duration": 0.0999999999999659
                },
                {
                    "name": "A#4",
                    "midi": 70,
                    "time": 259.29999999999194,
                    "velocity": 0.2677165354330709,
                    "duration": 0.10000000000002274
                },
                {
                    "name": "G4",
                    "midi": 67,
                    "time": 259.39999999999196,
                    "velocity": 0.3228346456692913,
                    "duration": 0.10000000000002274
                },
                {
                    "name": "E4",
                    "midi": 64,
                    "time": 259.499999999992,
                    "velocity": 0.2677165354330709,
                    "duration": 0.10000000000002274
                },
                {
                    "name": "A#4",
                    "midi": 70,
                    "time": 259.599999999992,
                    "velocity": 0.3228346456692913,
                    "duration": 0.10000000000002274
                },
                {
                    "name": "C#5",
                    "midi": 73,
                    "time": 259.69999999999203,
                    "velocity": 0.2677165354330709,
                    "duration": 0.10000000000002274
                },
                {
                    "name": "A#4",
                    "midi": 70,
                    "time": 259.79999999999205,
                    "velocity": 0.3228346456692913,
                    "duration": 0.10000000000002274
                },
                {
                    "name": "G4",
                    "midi": 67,
                    "time": 259.8999999999921,
                    "velocity": 0.2677165354330709,
                    "duration": 0.10000000000002274
                },
                {
                    "name": "C#5",
                    "midi": 73,
                    "time": 259.9999999999921,
                    "velocity": 0.3228346456692913,
                    "duration": 0.10000000000002274
                },
                {
                    "name": "E5",
                    "midi": 76,
                    "time": 260.0999999999921,
                    "velocity": 0.2677165354330709,
                    "duration": 0.10000000000002274
                },
                {
                    "name": "C#5",
                    "midi": 73,
                    "time": 260.19999999999214,
                    "velocity": 0.3228346456692913,
                    "duration": 0.10000000000002274
                },
                {
                    "name": "A#4",
                    "midi": 70,
                    "time": 260.29999999999217,
                    "velocity": 0.2677165354330709,
                    "duration": 0.10000000000002274
                },
                {
                    "name": "E5",
                    "midi": 76,
                    "time": 260.3999999999922,
                    "velocity": 0.31496062992125984,
                    "duration": 0.10000000000002274
                },
                {
                    "name": "G5",
                    "midi": 79,
                    "time": 260.4999999999922,
                    "velocity": 0.28346456692913385,
                    "duration": 0.10000000000002274
                },
                {
                    "name": "E5",
                    "midi": 76,
                    "time": 260.59999999999224,
                    "velocity": 0.36220472440944884,
                    "duration": 0.10000000000002274
                },
                {
                    "name": "C#5",
                    "midi": 73,
                    "time": 260.69999999999226,
                    "velocity": 0.33070866141732286,
                    "duration": 0.10000000000002274
                },
                {
                    "name": "G5",
                    "midi": 79,
                    "time": 260.7999999999923,
                    "velocity": 0.41732283464566927,
                    "duration": 0.10000000000002274
                },
                {
                    "name": "A#5",
                    "midi": 82,
                    "time": 260.8999999999923,
                    "velocity": 0.3700787401574803,
                    "duration": 0.10000000000002274
                },
                {
                    "name": "G5",
                    "midi": 79,
                    "time": 260.9999999999923,
                    "velocity": 0.47244094488188976,
                    "duration": 0.10000000000002274
                },
                {
                    "name": "E5",
                    "midi": 76,
                    "time": 261.09999999999235,
                    "velocity": 0.41732283464566927,
                    "duration": 0.10000000000002274
                },
                {
                    "name": "A#5",
                    "midi": 82,
                    "time": 261.1999999999924,
                    "velocity": 0.5196850393700787,
                    "duration": 0.10000000000002274
                },
                {
                    "name": "C#6",
                    "midi": 85,
                    "time": 261.2999999999924,
                    "velocity": 0.4645669291338583,
                    "duration": 0.10000000000002274
                },
                {
                    "name": "A#5",
                    "midi": 82,
                    "time": 261.3999999999924,
                    "velocity": 0.5748031496062992,
                    "duration": 0.10000000000002274
                },
                {
                    "name": "G5",
                    "midi": 79,
                    "time": 261.49999999999244,
                    "velocity": 0.5039370078740157,
                    "duration": 0.10000000000002274
                },
                {
                    "name": "C#6",
                    "midi": 85,
                    "time": 261.59999999999246,
                    "velocity": 0.6299212598425197,
                    "duration": 0.10000000000002274
                },
                {
                    "name": "E6",
                    "midi": 88,
                    "time": 261.6999999999925,
                    "velocity": 0.5354330708661418,
                    "duration": 0.10000000000002274
                },
                {
                    "name": "C#6",
                    "midi": 85,
                    "time": 261.7999999999925,
                    "velocity": 0.6220472440944882,
                    "duration": 0.10000000000002274
                },
                {
                    "name": "A#5",
                    "midi": 82,
                    "time": 261.89999999999253,
                    "velocity": 0.5196850393700787,
                    "duration": 0.10000000000002274
                },
                {
                    "name": "C#6",
                    "midi": 85,
                    "time": 261.99999999999255,
                    "velocity": 0.6062992125984252,
                    "duration": 0.10000000000002274
                },
                {
                    "name": "E6",
                    "midi": 88,
                    "time": 262.0999999999926,
                    "velocity": 0.5039370078740157,
                    "duration": 0.10000000000002274
                },
                {
                    "name": "C#6",
                    "midi": 85,
                    "time": 262.1999999999926,
                    "velocity": 0.5905511811023622,
                    "duration": 0.10000000000002274
                },
                {
                    "name": "A#5",
                    "midi": 82,
                    "time": 262.2999999999926,
                    "velocity": 0.49606299212598426,
                    "duration": 0.10000000000002274
                },
                {
                    "name": "C#6",
                    "midi": 85,
                    "time": 262.39999999999264,
                    "velocity": 0.5826771653543307,
                    "duration": 0.10000000000002274
                },
                {
                    "name": "E6",
                    "midi": 88,
                    "time": 262.49999999999267,
                    "velocity": 0.4881889763779528,
                    "duration": 0.10000000000002274
                },
                {
                    "name": "C#6",
                    "midi": 85,
                    "time": 262.5999999999927,
                    "velocity": 0.5669291338582677,
                    "duration": 0.10000000000002274
                },
                {
                    "name": "A#5",
                    "midi": 82,
                    "time": 262.6999999999927,
                    "velocity": 0.47244094488188976,
                    "duration": 0.10000000000002274
                },
                {
                    "name": "C#6",
                    "midi": 85,
                    "time": 262.79999999999274,
                    "velocity": 0.5511811023622047,
                    "duration": 0.10000000000002274
                },
                {
                    "name": "E6",
                    "midi": 88,
                    "time": 262.89999999999276,
                    "velocity": 0.4645669291338583,
                    "duration": 0.10000000000002274
                },
                {
                    "name": "C#6",
                    "midi": 85,
                    "time": 262.9999999999928,
                    "velocity": 0.5433070866141733,
                    "duration": 0.10000000000002274
                },
                {
                    "name": "A#5",
                    "midi": 82,
                    "time": 263.0999999999928,
                    "velocity": 0.44881889763779526,
                    "duration": 0.10000000000002274
                },
                {
                    "name": "C#6",
                    "midi": 85,
                    "time": 263.1999999999928,
                    "velocity": 0.5275590551181102,
                    "duration": 0.10000000000002274
                },
                {
                    "name": "E6",
                    "midi": 88,
                    "time": 263.29999999999285,
                    "velocity": 0.4409448818897638,
                    "duration": 0.10000000000002274
                },
                {
                    "name": "C#6",
                    "midi": 85,
                    "time": 263.3999999999929,
                    "velocity": 0.5118110236220472,
                    "duration": 0.10000000000002274
                },
                {
                    "name": "A#5",
                    "midi": 82,
                    "time": 263.4999999999929,
                    "velocity": 0.4330708661417323,
                    "duration": 0.10000000000002274
                },
                {
                    "name": "C#6",
                    "midi": 85,
                    "time": 263.5999999999929,
                    "velocity": 0.5039370078740157,
                    "duration": 0.10000000000002274
                },
                {
                    "name": "E6",
                    "midi": 88,
                    "time": 263.69999999999294,
                    "velocity": 0.41732283464566927,
                    "duration": 0.10000000000002274
                },
                {
                    "name": "C#6",
                    "midi": 85,
                    "time": 263.79999999999296,
                    "velocity": 0.4881889763779528,
                    "duration": 0.10000000000002274
                },
                {
                    "name": "A#5",
                    "midi": 82,
                    "time": 263.899999999993,
                    "velocity": 0.4015748031496063,
                    "duration": 0.10000000000002274
                },
                {
                    "name": "C#6",
                    "midi": 85,
                    "time": 263.999999999993,
                    "velocity": 0.47244094488188976,
                    "duration": 0.10000000000002274
                },
                {
                    "name": "D#6",
                    "midi": 87,
                    "time": 264.09999999999303,
                    "velocity": 0.4015748031496063,
                    "duration": 0.10000000000002274
                },
                {
                    "name": "C#6",
                    "midi": 85,
                    "time": 264.19999999999305,
                    "velocity": 0.4645669291338583,
                    "duration": 0.10000000000002274
                },
                {
                    "name": "A#5",
                    "midi": 82,
                    "time": 264.2999999999931,
                    "velocity": 0.3858267716535433,
                    "duration": 0.10000000000002274
                },
                {
                    "name": "C#6",
                    "midi": 85,
                    "time": 264.3999999999931,
                    "velocity": 0.44881889763779526,
                    "duration": 0.10000000000002274
                },
                {
                    "name": "D#6",
                    "midi": 87,
                    "time": 264.4999999999931,
                    "velocity": 0.3700787401574803,
                    "duration": 0.10000000000002274
                },
                {
                    "name": "C#6",
                    "midi": 85,
                    "time": 264.59999999999314,
                    "velocity": 0.4330708661417323,
                    "duration": 0.10000000000002274
                },
                {
                    "name": "A#5",
                    "midi": 82,
                    "time": 264.69999999999317,
                    "velocity": 0.36220472440944884,
                    "duration": 0.10000000000002274
                },
                {
                    "name": "C#6",
                    "midi": 85,
                    "time": 264.7999999999932,
                    "velocity": 0.4251968503937008,
                    "duration": 0.10000000000002274
                },
                {
                    "name": "D#6",
                    "midi": 87,
                    "time": 264.8999999999932,
                    "velocity": 0.3543307086614173,
                    "duration": 0.10000000000002274
                },
                {
                    "name": "C#6",
                    "midi": 85,
                    "time": 264.99999999999324,
                    "velocity": 0.4094488188976378,
                    "duration": 0.10000000000002274
                },
                {
                    "name": "A#5",
                    "midi": 82,
                    "time": 265.09999999999326,
                    "velocity": 0.33858267716535434,
                    "duration": 0.10000000000002274
                },
                {
                    "name": "C#6",
                    "midi": 85,
                    "time": 265.1999999999933,
                    "velocity": 0.3937007874015748,
                    "duration": 0.10000000000002274
                },
                {
                    "name": "D#6",
                    "midi": 87,
                    "time": 265.2999999999933,
                    "velocity": 0.33070866141732286,
                    "duration": 0.10000000000002274
                },
                {
                    "name": "C#6",
                    "midi": 85,
                    "time": 265.3999999999933,
                    "velocity": 0.3858267716535433,
                    "duration": 0.10000000000002274
                },
                {
                    "name": "A#5",
                    "midi": 82,
                    "time": 265.49999999999335,
                    "velocity": 0.31496062992125984,
                    "duration": 0.10000000000002274
                },
                {
                    "name": "C#6",
                    "midi": 85,
                    "time": 265.5999999999934,
                    "velocity": 0.3700787401574803,
                    "duration": 0.10000000000002274
                },
                {
                    "name": "D#6",
                    "midi": 87,
                    "time": 265.6999999999934,
                    "velocity": 0.30708661417322836,
                    "duration": 0.10000000000002274
                },
                {
                    "name": "C#6",
                    "midi": 85,
                    "time": 265.7999999999934,
                    "velocity": 0.3543307086614173,
                    "duration": 0.10000000000002274
                },
                {
                    "name": "A#5",
                    "midi": 82,
                    "time": 265.89999999999344,
                    "velocity": 0.2992125984251969,
                    "duration": 0.10000000000002274
                },
                {
                    "name": "C#6",
                    "midi": 85,
                    "time": 265.99999999999346,
                    "velocity": 0.3464566929133858,
                    "duration": 0.10000000000002274
                },
                {
                    "name": "D#6",
                    "midi": 87,
                    "time": 266.0999999999935,
                    "velocity": 0.28346456692913385,
                    "duration": 0.10000000000002274
                },
                {
                    "name": "C#6",
                    "midi": 85,
                    "time": 266.1999999999935,
                    "velocity": 0.33070866141732286,
                    "duration": 0.10000000000002274
                },
                {
                    "name": "A#5",
                    "midi": 82,
                    "time": 266.29999999999353,
                    "velocity": 0.2677165354330709,
                    "duration": 0.10000000000002274
                },
                {
                    "name": "B5",
                    "midi": 83,
                    "time": 266.39999999999355,
                    "velocity": 0.31496062992125984,
                    "duration": 0.10000000000002274
                },
                {
                    "name": "D#6",
                    "midi": 87,
                    "time": 266.4999999999936,
                    "velocity": 0.2677165354330709,
                    "duration": 0.10000000000002274
                },
                {
                    "name": "B5",
                    "midi": 83,
                    "time": 266.5999999999936,
                    "velocity": 0.31496062992125984,
                    "duration": 0.10000000000002274
                },
                {
                    "name": "G#5",
                    "midi": 80,
                    "time": 266.6999999999936,
                    "velocity": 0.2677165354330709,
                    "duration": 0.07499999999998863
                },
                {
                    "name": "G#5",
                    "midi": 80,
                    "time": 266.7999999999936,
                    "velocity": 0.31496062992125984,
                    "duration": 0.10000000000002274
                },
                {
                    "name": "B5",
                    "midi": 83,
                    "time": 266.8999999999936,
                    "velocity": 0.2677165354330709,
                    "duration": 0.10000000000002274
                },
                {
                    "name": "G#5",
                    "midi": 80,
                    "time": 266.99999999999363,
                    "velocity": 0.31496062992125984,
                    "duration": 0.10000000000002274
                },
                {
                    "name": "D#5",
                    "midi": 75,
                    "time": 267.09999999999366,
                    "velocity": 0.2677165354330709,
                    "duration": 0.07499999999998863
                },
                {
                    "name": "D#5",
                    "midi": 75,
                    "time": 267.1999999999936,
                    "velocity": 0.31496062992125984,
                    "duration": 0.10000000000002274
                },
                {
                    "name": "G#5",
                    "midi": 80,
                    "time": 267.29999999999364,
                    "velocity": 0.2677165354330709,
                    "duration": 0.10000000000002274
                },
                {
                    "name": "D#5",
                    "midi": 75,
                    "time": 267.39999999999367,
                    "velocity": 0.31496062992125984,
                    "duration": 0.10000000000002274
                },
                {
                    "name": "B4",
                    "midi": 71,
                    "time": 267.4999999999937,
                    "velocity": 0.2677165354330709,
                    "duration": 0.07499999999998863
                },
                {
                    "name": "B4",
                    "midi": 71,
                    "time": 267.59999999999366,
                    "velocity": 0.31496062992125984,
                    "duration": 0.10000000000002274
                },
                {
                    "name": "D#5",
                    "midi": 75,
                    "time": 267.6999999999937,
                    "velocity": 0.2677165354330709,
                    "duration": 0.10000000000002274
                },
                {
                    "name": "B4",
                    "midi": 71,
                    "time": 267.7999999999937,
                    "velocity": 0.31496062992125984,
                    "duration": 0.10000000000002274
                },
                {
                    "name": "G#4",
                    "midi": 68,
                    "time": 267.8999999999937,
                    "velocity": 0.2677165354330709,
                    "duration": 0.07499999999998863
                },
                {
                    "name": "G#4",
                    "midi": 68,
                    "time": 267.9999999999937,
                    "velocity": 0.31496062992125984,
                    "duration": 0.10000000000002274
                },
                {
                    "name": "B4",
                    "midi": 71,
                    "time": 268.0999999999937,
                    "velocity": 0.2677165354330709,
                    "duration": 0.10000000000002274
                },
                {
                    "name": "G#4",
                    "midi": 68,
                    "time": 268.19999999999374,
                    "velocity": 0.31496062992125984,
                    "duration": 0.10000000000002274
                },
                {
                    "name": "D#4",
                    "midi": 63,
                    "time": 268.29999999999376,
                    "velocity": 0.2677165354330709,
                    "duration": 0.10000000000002274
                },
                {
                    "name": "G4",
                    "midi": 67,
                    "time": 268.3999999999938,
                    "velocity": 0.23622047244094488,
                    "duration": 0.19999999999998863
                },
                {
                    "name": "A#4",
                    "midi": 70,
                    "time": 268.3999999999938,
                    "velocity": 0.28346456692913385,
                    "duration": 0.19999999999998863
                },
                {
                    "name": "B5",
                    "midi": 83,
                    "time": 268.79999999999376,
                    "velocity": 0.31496062992125984,
                    "duration": 0.10000000000002274
                },
                {
                    "name": "D#6",
                    "midi": 87,
                    "time": 268.8999999999938,
                    "velocity": 0.2677165354330709,
                    "duration": 0.10000000000002274
                },
                {
                    "name": "B5",
                    "midi": 83,
                    "time": 268.9999999999938,
                    "velocity": 0.31496062992125984,
                    "duration": 0.10000000000002274
                },
                {
                    "name": "G#5",
                    "midi": 80,
                    "time": 269.0999999999938,
                    "velocity": 0.2677165354330709,
                    "duration": 0.07499999999998863
                },
                {
                    "name": "G#5",
                    "midi": 80,
                    "time": 269.1999999999938,
                    "velocity": 0.31496062992125984,
                    "duration": 0.10000000000002274
                },
                {
                    "name": "B5",
                    "midi": 83,
                    "time": 269.2999999999938,
                    "velocity": 0.2677165354330709,
                    "duration": 0.10000000000002274
                },
                {
                    "name": "G#5",
                    "midi": 80,
                    "time": 269.39999999999384,
                    "velocity": 0.31496062992125984,
                    "duration": 0.10000000000002274
                },
                {
                    "name": "D#5",
                    "midi": 75,
                    "time": 269.49999999999386,
                    "velocity": 0.2677165354330709,
                    "duration": 0.07499999999998863
                },
                {
                    "name": "D#5",
                    "midi": 75,
                    "time": 269.5999999999938,
                    "velocity": 0.31496062992125984,
                    "duration": 0.10000000000002274
                },
                {
                    "name": "G#5",
                    "midi": 80,
                    "time": 269.69999999999385,
                    "velocity": 0.2677165354330709,
                    "duration": 0.10000000000002274
                },
                {
                    "name": "D#5",
                    "midi": 75,
                    "time": 269.7999999999939,
                    "velocity": 0.31496062992125984,
                    "duration": 0.10000000000002274
                },
                {
                    "name": "B4",
                    "midi": 71,
                    "time": 269.8999999999939,
                    "velocity": 0.2677165354330709,
                    "duration": 0.07499999999998863
                },
                {
                    "name": "B4",
                    "midi": 71,
                    "time": 269.99999999999386,
                    "velocity": 0.31496062992125984,
                    "duration": 0.10000000000002274
                },
                {
                    "name": "D#5",
                    "midi": 75,
                    "time": 270.0999999999939,
                    "velocity": 0.2677165354330709,
                    "duration": 0.10000000000002274
                },
                {
                    "name": "B4",
                    "midi": 71,
                    "time": 270.1999999999939,
                    "velocity": 0.31496062992125984,
                    "duration": 0.10000000000002274
                },
                {
                    "name": "G#4",
                    "midi": 68,
                    "time": 270.29999999999393,
                    "velocity": 0.2677165354330709,
                    "duration": 0.07499999999998863
                },
                {
                    "name": "G#4",
                    "midi": 68,
                    "time": 270.3999999999939,
                    "velocity": 0.31496062992125984,
                    "duration": 0.10000000000002274
                },
                {
                    "name": "B4",
                    "midi": 71,
                    "time": 270.4999999999939,
                    "velocity": 0.2677165354330709,
                    "duration": 0.10000000000002274
                },
                {
                    "name": "G#4",
                    "midi": 68,
                    "time": 270.59999999999394,
                    "velocity": 0.31496062992125984,
                    "duration": 0.10000000000002274
                },
                {
                    "name": "D#4",
                    "midi": 63,
                    "time": 270.69999999999396,
                    "velocity": 0.2677165354330709,
                    "duration": 0.10000000000002274
                },
                {
                    "name": "G4",
                    "midi": 67,
                    "time": 270.799999999994,
                    "velocity": 0.23622047244094488,
                    "duration": 0.19999999999998863
                },
                {
                    "name": "A#4",
                    "midi": 70,
                    "time": 270.799999999994,
                    "velocity": 0.28346456692913385,
                    "duration": 0.19999999999998863
                },
                {
                    "name": "G#4",
                    "midi": 68,
                    "time": 271.19999999999396,
                    "velocity": 0.2440944881889764,
                    "duration": 0.37999999999999545
                },
                {
                    "name": "B4",
                    "midi": 71,
                    "time": 271.19999999999396,
                    "velocity": 0.2440944881889764,
                    "duration": 0.37999999999999545
                },
                {
                    "name": "G4",
                    "midi": 67,
                    "time": 271.59999999999394,
                    "velocity": 0.2440944881889764,
                    "duration": 0.37999999999999545
                },
                {
                    "name": "A#4",
                    "midi": 70,
                    "time": 271.59999999999394,
                    "velocity": 0.2440944881889764,
                    "duration": 0.37999999999999545
                },
                {
                    "name": "E5",
                    "midi": 76,
                    "time": 271.59999999999394,
                    "velocity": 0.2440944881889764,
                    "duration": 0.37999999999999545
                },
                {
                    "name": "G4",
                    "midi": 67,
                    "time": 271.9999999999939,
                    "velocity": 0.28346456692913385,
                    "duration": 0.37999999999999545
                },
                {
                    "name": "A#4",
                    "midi": 70,
                    "time": 271.9999999999939,
                    "velocity": 0.28346456692913385,
                    "duration": 0.37999999999999545
                },
                {
                    "name": "E5",
                    "midi": 76,
                    "time": 271.9999999999939,
                    "velocity": 0.28346456692913385,
                    "duration": 0.37999999999999545
                },
                {
                    "name": "A#4",
                    "midi": 70,
                    "time": 272.3999999999939,
                    "velocity": 0.29133858267716534,
                    "duration": 0.37999999999999545
                },
                {
                    "name": "G4",
                    "midi": 67,
                    "time": 272.3999999999939,
                    "velocity": 0.29133858267716534,
                    "duration": 0.37999999999999545
                },
                {
                    "name": "E5",
                    "midi": 76,
                    "time": 272.3999999999939,
                    "velocity": 0.29133858267716534,
                    "duration": 0.37999999999999545
                },
                {
                    "name": "G4",
                    "midi": 67,
                    "time": 272.7999999999939,
                    "velocity": 0.2440944881889764,
                    "duration": 0.37999999999999545
                },
                {
                    "name": "A#4",
                    "midi": 70,
                    "time": 272.7999999999939,
                    "velocity": 0.2440944881889764,
                    "duration": 0.37999999999999545
                },
                {
                    "name": "D#5",
                    "midi": 75,
                    "time": 272.7999999999939,
                    "velocity": 0.2440944881889764,
                    "duration": 0.37999999999999545
                },
                {
                    "name": "G4",
                    "midi": 67,
                    "time": 273.19999999999385,
                    "velocity": 0.2440944881889764,
                    "duration": 0.37999999999999545
                },
                {
                    "name": "A#4",
                    "midi": 70,
                    "time": 273.19999999999385,
                    "velocity": 0.2440944881889764,
                    "duration": 0.37999999999999545
                },
                {
                    "name": "C#5",
                    "midi": 73,
                    "time": 273.19999999999385,
                    "velocity": 0.2440944881889764,
                    "duration": 0.37999999999999545
                },
                {
                    "name": "B5",
                    "midi": 83,
                    "time": 273.5999999999938,
                    "velocity": 0.31496062992125984,
                    "duration": 0.10000000000002274
                },
                {
                    "name": "D#6",
                    "midi": 87,
                    "time": 273.69999999999385,
                    "velocity": 0.2677165354330709,
                    "duration": 0.10000000000002274
                },
                {
                    "name": "B5",
                    "midi": 83,
                    "time": 273.7999999999939,
                    "velocity": 0.31496062992125984,
                    "duration": 0.10000000000002274
                },
                {
                    "name": "G#5",
                    "midi": 80,
                    "time": 273.8999999999939,
                    "velocity": 0.2677165354330709,
                    "duration": 0.07499999999998863
                },
                {
                    "name": "G#5",
                    "midi": 80,
                    "time": 273.99999999999386,
                    "velocity": 0.31496062992125984,
                    "duration": 0.10000000000002274
                },
                {
                    "name": "B5",
                    "midi": 83,
                    "time": 274.0999999999939,
                    "velocity": 0.2677165354330709,
                    "duration": 0.10000000000002274
                },
                {
                    "name": "G#5",
                    "midi": 80,
                    "time": 274.1999999999939,
                    "velocity": 0.31496062992125984,
                    "duration": 0.10000000000002274
                },
                {
                    "name": "D#5",
                    "midi": 75,
                    "time": 274.29999999999393,
                    "velocity": 0.2677165354330709,
                    "duration": 0.07499999999998863
                },
                {
                    "name": "D#5",
                    "midi": 75,
                    "time": 274.3999999999939,
                    "velocity": 0.31496062992125984,
                    "duration": 0.10000000000002274
                },
                {
                    "name": "G#5",
                    "midi": 80,
                    "time": 274.4999999999939,
                    "velocity": 0.2677165354330709,
                    "duration": 0.10000000000002274
                },
                {
                    "name": "D#5",
                    "midi": 75,
                    "time": 274.59999999999394,
                    "velocity": 0.31496062992125984,
                    "duration": 0.10000000000002274
                },
                {
                    "name": "B4",
                    "midi": 71,
                    "time": 274.69999999999396,
                    "velocity": 0.2677165354330709,
                    "duration": 0.07499999999998863
                },
                {
                    "name": "B4",
                    "midi": 71,
                    "time": 274.79999999999393,
                    "velocity": 0.31496062992125984,
                    "duration": 0.10000000000002274
                },
                {
                    "name": "D#5",
                    "midi": 75,
                    "time": 274.89999999999395,
                    "velocity": 0.2677165354330709,
                    "duration": 0.10000000000002274
                },
                {
                    "name": "B4",
                    "midi": 71,
                    "time": 274.999999999994,
                    "velocity": 0.31496062992125984,
                    "duration": 0.10000000000002274
                },
                {
                    "name": "G#4",
                    "midi": 68,
                    "time": 275.099999999994,
                    "velocity": 0.2677165354330709,
                    "duration": 0.07499999999998863
                },
                {
                    "name": "G#4",
                    "midi": 68,
                    "time": 275.19999999999396,
                    "velocity": 0.31496062992125984,
                    "duration": 0.10000000000002274
                },
                {
                    "name": "B4",
                    "midi": 71,
                    "time": 275.299999999994,
                    "velocity": 0.2677165354330709,
                    "duration": 0.10000000000002274
                },
                {
                    "name": "G#4",
                    "midi": 68,
                    "time": 275.399999999994,
                    "velocity": 0.31496062992125984,
                    "duration": 0.10000000000002274
                },
                {
                    "name": "D#4",
                    "midi": 63,
                    "time": 275.49999999999403,
                    "velocity": 0.2677165354330709,
                    "duration": 0.10000000000002274
                },
                {
                    "name": "G4",
                    "midi": 67,
                    "time": 275.59999999999405,
                    "velocity": 0.23622047244094488,
                    "duration": 0.19999999999998863
                },
                {
                    "name": "A#4",
                    "midi": 70,
                    "time": 275.59999999999405,
                    "velocity": 0.28346456692913385,
                    "duration": 0.19999999999998863
                },
                {
                    "name": "B5",
                    "midi": 83,
                    "time": 275.99999999999403,
                    "velocity": 0.31496062992125984,
                    "duration": 0.10000000000002274
                },
                {
                    "name": "D#6",
                    "midi": 87,
                    "time": 276.09999999999405,
                    "velocity": 0.2677165354330709,
                    "duration": 0.10000000000002274
                },
                {
                    "name": "B5",
                    "midi": 83,
                    "time": 276.1999999999941,
                    "velocity": 0.31496062992125984,
                    "duration": 0.10000000000002274
                },
                {
                    "name": "G#5",
                    "midi": 80,
                    "time": 276.2999999999941,
                    "velocity": 0.2677165354330709,
                    "duration": 0.07499999999998863
                },
                {
                    "name": "G#5",
                    "midi": 80,
                    "time": 276.39999999999407,
                    "velocity": 0.31496062992125984,
                    "duration": 0.10000000000002274
                },
                {
                    "name": "B5",
                    "midi": 83,
                    "time": 276.4999999999941,
                    "velocity": 0.2677165354330709,
                    "duration": 0.10000000000002274
                },
                {
                    "name": "G#5",
                    "midi": 80,
                    "time": 276.5999999999941,
                    "velocity": 0.31496062992125984,
                    "duration": 0.10000000000002274
                },
                {
                    "name": "D#5",
                    "midi": 75,
                    "time": 276.69999999999413,
                    "velocity": 0.2677165354330709,
                    "duration": 0.07499999999998863
                },
                {
                    "name": "D#5",
                    "midi": 75,
                    "time": 276.7999999999941,
                    "velocity": 0.31496062992125984,
                    "duration": 0.10000000000002274
                },
                {
                    "name": "G#5",
                    "midi": 80,
                    "time": 276.8999999999941,
                    "velocity": 0.2677165354330709,
                    "duration": 0.10000000000002274
                },
                {
                    "name": "D#5",
                    "midi": 75,
                    "time": 276.99999999999415,
                    "velocity": 0.31496062992125984,
                    "duration": 0.10000000000002274
                },
                {
                    "name": "B4",
                    "midi": 71,
                    "time": 277.09999999999417,
                    "velocity": 0.2677165354330709,
                    "duration": 0.07499999999998863
                },
                {
                    "name": "B4",
                    "midi": 71,
                    "time": 277.19999999999413,
                    "velocity": 0.31496062992125984,
                    "duration": 0.10000000000002274
                },
                {
                    "name": "D#5",
                    "midi": 75,
                    "time": 277.29999999999416,
                    "velocity": 0.2677165354330709,
                    "duration": 0.10000000000002274
                },
                {
                    "name": "B4",
                    "midi": 71,
                    "time": 277.3999999999942,
                    "velocity": 0.31496062992125984,
                    "duration": 0.10000000000002274
                },
                {
                    "name": "G#4",
                    "midi": 68,
                    "time": 277.4999999999942,
                    "velocity": 0.2677165354330709,
                    "duration": 0.07499999999998863
                },
                {
                    "name": "G#4",
                    "midi": 68,
                    "time": 277.59999999999417,
                    "velocity": 0.31496062992125984,
                    "duration": 0.10000000000002274
                },
                {
                    "name": "B4",
                    "midi": 71,
                    "time": 277.6999999999942,
                    "velocity": 0.2677165354330709,
                    "duration": 0.10000000000002274
                },
                {
                    "name": "G#4",
                    "midi": 68,
                    "time": 277.7999999999942,
                    "velocity": 0.31496062992125984,
                    "duration": 0.10000000000002274
                },
                {
                    "name": "D#4",
                    "midi": 63,
                    "time": 277.89999999999424,
                    "velocity": 0.2677165354330709,
                    "duration": 0.10000000000002274
                },
                {
                    "name": "G4",
                    "midi": 67,
                    "time": 277.99999999999426,
                    "velocity": 0.23622047244094488,
                    "duration": 0.19999999999998863
                },
                {
                    "name": "A#4",
                    "midi": 70,
                    "time": 277.99999999999426,
                    "velocity": 0.28346456692913385,
                    "duration": 0.19999999999998863
                },
                {
                    "name": "G#4",
                    "midi": 68,
                    "time": 278.39999999999424,
                    "velocity": 0.2440944881889764,
                    "duration": 0.37999999999999545
                },
                {
                    "name": "B4",
                    "midi": 71,
                    "time": 278.39999999999424,
                    "velocity": 0.2440944881889764,
                    "duration": 0.37999999999999545
                },
                {
                    "name": "F#4",
                    "midi": 66,
                    "time": 278.7999999999942,
                    "velocity": 0.2440944881889764,
                    "duration": 0.37999999999999545
                },
                {
                    "name": "A#4",
                    "midi": 70,
                    "time": 278.7999999999942,
                    "velocity": 0.2440944881889764,
                    "duration": 0.37999999999999545
                },
                {
                    "name": "E5",
                    "midi": 76,
                    "time": 278.7999999999942,
                    "velocity": 0.2440944881889764,
                    "duration": 0.37999999999999545
                },
                {
                    "name": "F#4",
                    "midi": 66,
                    "time": 279.1999999999942,
                    "velocity": 0.28346456692913385,
                    "duration": 0.37999999999999545
                },
                {
                    "name": "A#4",
                    "midi": 70,
                    "time": 279.1999999999942,
                    "velocity": 0.28346456692913385,
                    "duration": 0.37999999999999545
                },
                {
                    "name": "E5",
                    "midi": 76,
                    "time": 279.1999999999942,
                    "velocity": 0.28346456692913385,
                    "duration": 0.37999999999999545
                },
                {
                    "name": "F#4",
                    "midi": 66,
                    "time": 279.59999999999417,
                    "velocity": 0.29133858267716534,
                    "duration": 0.37999999999999545
                },
                {
                    "name": "A#4",
                    "midi": 70,
                    "time": 279.59999999999417,
                    "velocity": 0.29133858267716534,
                    "duration": 0.37999999999999545
                },
                {
                    "name": "E5",
                    "midi": 76,
                    "time": 279.59999999999417,
                    "velocity": 0.29133858267716534,
                    "duration": 0.37999999999999545
                },
                {
                    "name": "F#4",
                    "midi": 66,
                    "time": 279.99999999999415,
                    "velocity": 0.2440944881889764,
                    "duration": 0.37999999999999545
                },
                {
                    "name": "A#4",
                    "midi": 70,
                    "time": 279.99999999999415,
                    "velocity": 0.2440944881889764,
                    "duration": 0.37999999999999545
                },
                {
                    "name": "D#5",
                    "midi": 75,
                    "time": 279.99999999999415,
                    "velocity": 0.2440944881889764,
                    "duration": 0.37999999999999545
                },
                {
                    "name": "F#4",
                    "midi": 66,
                    "time": 280.3999999999941,
                    "velocity": 0.2440944881889764,
                    "duration": 0.37999999999999545
                },
                {
                    "name": "D5",
                    "midi": 74,
                    "time": 280.3999999999941,
                    "velocity": 0.2440944881889764,
                    "duration": 0.37999999999999545
                },
                {
                    "name": "A#4",
                    "midi": 70,
                    "time": 280.3999999999941,
                    "velocity": 0.2440944881889764,
                    "duration": 0.37999999999999545
                },
                {
                    "name": "D#6",
                    "midi": 87,
                    "time": 280.7999999999941,
                    "velocity": 0.3937007874015748,
                    "duration": 0.10000000000002274
                },
                {
                    "name": "F#6",
                    "midi": 90,
                    "time": 280.8999999999941,
                    "velocity": 0.33070866141732286,
                    "duration": 0.10000000000002274
                },
                {
                    "name": "D#6",
                    "midi": 87,
                    "time": 280.99999999999415,
                    "velocity": 0.3937007874015748,
                    "duration": 0.10000000000002274
                },
                {
                    "name": "B5",
                    "midi": 83,
                    "time": 281.09999999999417,
                    "velocity": 0.33070866141732286,
                    "duration": 0.07499999999998863
                },
                {
                    "name": "B5",
                    "midi": 83,
                    "time": 281.19999999999413,
                    "velocity": 0.3937007874015748,
                    "duration": 0.10000000000002274
                },
                {
                    "name": "D#6",
                    "midi": 87,
                    "time": 281.29999999999416,
                    "velocity": 0.33070866141732286,
                    "duration": 0.10000000000002274
                },
                {
                    "name": "B5",
                    "midi": 83,
                    "time": 281.3999999999942,
                    "velocity": 0.3937007874015748,
                    "duration": 0.10000000000002274
                },
                {
                    "name": "F#5",
                    "midi": 78,
                    "time": 281.4999999999942,
                    "velocity": 0.33070866141732286,
                    "duration": 0.07499999999998863
                },
                {
                    "name": "F#5",
                    "midi": 78,
                    "time": 281.59999999999417,
                    "velocity": 0.3937007874015748,
                    "duration": 0.10000000000002274
                },
                {
                    "name": "B5",
                    "midi": 83,
                    "time": 281.6999999999942,
                    "velocity": 0.33070866141732286,
                    "duration": 0.10000000000002274
                },
                {
                    "name": "F#5",
                    "midi": 78,
                    "time": 281.7999999999942,
                    "velocity": 0.3937007874015748,
                    "duration": 0.10000000000002274
                },
                {
                    "name": "D#5",
                    "midi": 75,
                    "time": 281.89999999999424,
                    "velocity": 0.33070866141732286,
                    "duration": 0.07499999999998863
                },
                {
                    "name": "D#5",
                    "midi": 75,
                    "time": 281.9999999999942,
                    "velocity": 0.3937007874015748,
                    "duration": 0.10000000000002274
                },
                {
                    "name": "F#5",
                    "midi": 78,
                    "time": 282.0999999999942,
                    "velocity": 0.33070866141732286,
                    "duration": 0.10000000000002274
                },
                {
                    "name": "D#5",
                    "midi": 75,
                    "time": 282.19999999999425,
                    "velocity": 0.3937007874015748,
                    "duration": 0.10000000000002274
                },
                {
                    "name": "B4",
                    "midi": 71,
                    "time": 282.29999999999427,
                    "velocity": 0.33070866141732286,
                    "duration": 0.07499999999998863
                },
                {
                    "name": "B4",
                    "midi": 71,
                    "time": 282.39999999999424,
                    "velocity": 0.3937007874015748,
                    "duration": 0.10000000000002274
                },
                {
                    "name": "D#5",
                    "midi": 75,
                    "time": 282.49999999999426,
                    "velocity": 0.33070866141732286,
                    "duration": 0.10000000000002274
                },
                {
                    "name": "B4",
                    "midi": 71,
                    "time": 282.5999999999943,
                    "velocity": 0.3937007874015748,
                    "duration": 0.10000000000002274
                },
                {
                    "name": "F#4",
                    "midi": 66,
                    "time": 282.6999999999943,
                    "velocity": 0.33070866141732286,
                    "duration": 0.10000000000002274
                },
                {
                    "name": "A#4",
                    "midi": 70,
                    "time": 282.7999999999943,
                    "velocity": 0.29133858267716534,
                    "duration": 0.19999999999998863
                },
                {
                    "name": "C#5",
                    "midi": 73,
                    "time": 282.7999999999943,
                    "velocity": 0.3543307086614173,
                    "duration": 0.19999999999998863
                },
                {
                    "name": "D#6",
                    "midi": 87,
                    "time": 283.1999999999943,
                    "velocity": 0.3937007874015748,
                    "duration": 0.10000000000002274
                },
                {
                    "name": "F#6",
                    "midi": 90,
                    "time": 283.2999999999943,
                    "velocity": 0.33070866141732286,
                    "duration": 0.10000000000002274
                },
                {
                    "name": "D#6",
                    "midi": 87,
                    "time": 283.39999999999435,
                    "velocity": 0.3937007874015748,
                    "duration": 0.10000000000002274
                },
                {
                    "name": "B5",
                    "midi": 83,
                    "time": 283.4999999999944,
                    "velocity": 0.33070866141732286,
                    "duration": 0.07499999999998863
                },
                {
                    "name": "B5",
                    "midi": 83,
                    "time": 283.59999999999434,
                    "velocity": 0.3937007874015748,
                    "duration": 0.10000000000002274
                },
                {
                    "name": "D#6",
                    "midi": 87,
                    "time": 283.69999999999436,
                    "velocity": 0.33070866141732286,
                    "duration": 0.10000000000002274
                },
                {
                    "name": "B5",
                    "midi": 83,
                    "time": 283.7999999999944,
                    "velocity": 0.3937007874015748,
                    "duration": 0.10000000000002274
                },
                {
                    "name": "F#5",
                    "midi": 78,
                    "time": 283.8999999999944,
                    "velocity": 0.33070866141732286,
                    "duration": 0.07499999999998863
                },
                {
                    "name": "F#5",
                    "midi": 78,
                    "time": 283.9999999999944,
                    "velocity": 0.3937007874015748,
                    "duration": 0.10000000000002274
                },
                {
                    "name": "B5",
                    "midi": 83,
                    "time": 284.0999999999944,
                    "velocity": 0.33070866141732286,
                    "duration": 0.10000000000002274
                },
                {
                    "name": "F#5",
                    "midi": 78,
                    "time": 284.1999999999944,
                    "velocity": 0.3937007874015748,
                    "duration": 0.10000000000002274
                },
                {
                    "name": "D#5",
                    "midi": 75,
                    "time": 284.29999999999444,
                    "velocity": 0.33070866141732286,
                    "duration": 0.07499999999998863
                },
                {
                    "name": "D#5",
                    "midi": 75,
                    "time": 284.3999999999944,
                    "velocity": 0.3937007874015748,
                    "duration": 0.10000000000002274
                },
                {
                    "name": "F#5",
                    "midi": 78,
                    "time": 284.49999999999443,
                    "velocity": 0.33070866141732286,
                    "duration": 0.10000000000002274
                },
                {
                    "name": "D#5",
                    "midi": 75,
                    "time": 284.59999999999445,
                    "velocity": 0.3937007874015748,
                    "duration": 0.10000000000002274
                },
                {
                    "name": "B4",
                    "midi": 71,
                    "time": 284.6999999999945,
                    "velocity": 0.33070866141732286,
                    "duration": 0.07499999999998863
                },
                {
                    "name": "B4",
                    "midi": 71,
                    "time": 284.79999999999444,
                    "velocity": 0.3937007874015748,
                    "duration": 0.10000000000002274
                },
                {
                    "name": "D#5",
                    "midi": 75,
                    "time": 284.89999999999446,
                    "velocity": 0.33070866141732286,
                    "duration": 0.10000000000002274
                },
                {
                    "name": "B4",
                    "midi": 71,
                    "time": 284.9999999999945,
                    "velocity": 0.3937007874015748,
                    "duration": 0.10000000000002274
                },
                {
                    "name": "F#4",
                    "midi": 66,
                    "time": 285.0999999999945,
                    "velocity": 0.33070866141732286,
                    "duration": 0.10000000000002274
                },
                {
                    "name": "A#4",
                    "midi": 70,
                    "time": 285.19999999999453,
                    "velocity": 0.29133858267716534,
                    "duration": 0.19999999999998863
                },
                {
                    "name": "C#5",
                    "midi": 73,
                    "time": 285.19999999999453,
                    "velocity": 0.3543307086614173,
                    "duration": 0.19999999999998863
                },
                {
                    "name": "B4",
                    "midi": 71,
                    "time": 285.5999999999945,
                    "velocity": 0.3228346456692913,
                    "duration": 0.37999999999999545
                },
                {
                    "name": "D#5",
                    "midi": 75,
                    "time": 285.5999999999945,
                    "velocity": 0.3228346456692913,
                    "duration": 0.37999999999999545
                },
                {
                    "name": "A#4",
                    "midi": 70,
                    "time": 285.9999999999945,
                    "velocity": 0.3700787401574803,
                    "duration": 0.37999999999999545
                },
                {
                    "name": "C#5",
                    "midi": 73,
                    "time": 285.9999999999945,
                    "velocity": 0.3700787401574803,
                    "duration": 0.37999999999999545
                },
                {
                    "name": "G#5",
                    "midi": 80,
                    "time": 285.9999999999945,
                    "velocity": 0.3700787401574803,
                    "duration": 0.37999999999999545
                },
                {
                    "name": "A#4",
                    "midi": 70,
                    "time": 286.39999999999446,
                    "velocity": 0.3779527559055118,
                    "duration": 0.37999999999999545
                },
                {
                    "name": "C#5",
                    "midi": 73,
                    "time": 286.39999999999446,
                    "velocity": 0.3779527559055118,
                    "duration": 0.37999999999999545
                },
                {
                    "name": "G#5",
                    "midi": 80,
                    "time": 286.39999999999446,
                    "velocity": 0.3779527559055118,
                    "duration": 0.37999999999999545
                },
                {
                    "name": "A#4",
                    "midi": 70,
                    "time": 286.79999999999444,
                    "velocity": 0.3858267716535433,
                    "duration": 0.37999999999999545
                },
                {
                    "name": "C#5",
                    "midi": 73,
                    "time": 286.79999999999444,
                    "velocity": 0.3858267716535433,
                    "duration": 0.37999999999999545
                },
                {
                    "name": "G#5",
                    "midi": 80,
                    "time": 286.79999999999444,
                    "velocity": 0.3858267716535433,
                    "duration": 0.37999999999999545
                },
                {
                    "name": "F#5",
                    "midi": 78,
                    "time": 287.1999999999944,
                    "velocity": 0.30708661417322836,
                    "duration": 0.37999999999999545
                },
                {
                    "name": "A#4",
                    "midi": 70,
                    "time": 287.1999999999944,
                    "velocity": 0.30708661417322836,
                    "duration": 0.37999999999999545
                },
                {
                    "name": "D#5",
                    "midi": 75,
                    "time": 287.1999999999944,
                    "velocity": 0.30708661417322836,
                    "duration": 0.37999999999999545
                },
                {
                    "name": "E5",
                    "midi": 76,
                    "time": 287.5999999999944,
                    "velocity": 0.30708661417322836,
                    "duration": 0.37999999999999545
                },
                {
                    "name": "A#4",
                    "midi": 70,
                    "time": 287.5999999999944,
                    "velocity": 0.30708661417322836,
                    "duration": 0.37999999999999545
                },
                {
                    "name": "D6",
                    "midi": 86,
                    "time": 287.9999999999944,
                    "velocity": 0.3937007874015748,
                    "duration": 0.10000000000002274
                },
                {
                    "name": "F#6",
                    "midi": 90,
                    "time": 288.0999999999944,
                    "velocity": 0.33070866141732286,
                    "duration": 0.10000000000002274
                },
                {
                    "name": "D6",
                    "midi": 86,
                    "time": 288.1999999999944,
                    "velocity": 0.3937007874015748,
                    "duration": 0.10000000000002274
                },
                {
                    "name": "B5",
                    "midi": 83,
                    "time": 288.29999999999444,
                    "velocity": 0.33070866141732286,
                    "duration": 0.07499999999998863
                },
                {
                    "name": "B5",
                    "midi": 83,
                    "time": 288.3999999999944,
                    "velocity": 0.3937007874015748,
                    "duration": 0.10000000000002274
                },
                {
                    "name": "D6",
                    "midi": 86,
                    "time": 288.49999999999443,
                    "velocity": 0.33070866141732286,
                    "duration": 0.10000000000002274
                },
                {
                    "name": "B5",
                    "midi": 83,
                    "time": 288.59999999999445,
                    "velocity": 0.3937007874015748,
                    "duration": 0.10000000000002274
                },
                {
                    "name": "F#5",
                    "midi": 78,
                    "time": 288.6999999999945,
                    "velocity": 0.33070866141732286,
                    "duration": 0.07499999999998863
                },
                {
                    "name": "F#5",
                    "midi": 78,
                    "time": 288.79999999999444,
                    "velocity": 0.3937007874015748,
                    "duration": 0.10000000000002274
                },
                {
                    "name": "B5",
                    "midi": 83,
                    "time": 288.89999999999446,
                    "velocity": 0.33070866141732286,
                    "duration": 0.10000000000002274
                },
                {
                    "name": "F#5",
                    "midi": 78,
                    "time": 288.9999999999945,
                    "velocity": 0.3937007874015748,
                    "duration": 0.10000000000002274
                },
                {
                    "name": "D5",
                    "midi": 74,
                    "time": 289.0999999999945,
                    "velocity": 0.33070866141732286,
                    "duration": 0.07499999999998863
                },
                {
                    "name": "D5",
                    "midi": 74,
                    "time": 289.1999999999945,
                    "velocity": 0.3937007874015748,
                    "duration": 0.10000000000002274
                },
                {
                    "name": "F#5",
                    "midi": 78,
                    "time": 289.2999999999945,
                    "velocity": 0.33070866141732286,
                    "duration": 0.10000000000002274
                },
                {
                    "name": "D5",
                    "midi": 74,
                    "time": 289.3999999999945,
                    "velocity": 0.3937007874015748,
                    "duration": 0.10000000000002274
                },
                {
                    "name": "B4",
                    "midi": 71,
                    "time": 289.49999999999454,
                    "velocity": 0.33070866141732286,
                    "duration": 0.07499999999998863
                },
                {
                    "name": "B4",
                    "midi": 71,
                    "time": 289.5999999999945,
                    "velocity": 0.3937007874015748,
                    "duration": 0.10000000000002274
                },
                {
                    "name": "D5",
                    "midi": 74,
                    "time": 289.69999999999453,
                    "velocity": 0.33070866141732286,
                    "duration": 0.10000000000002274
                },
                {
                    "name": "B4",
                    "midi": 71,
                    "time": 289.79999999999455,
                    "velocity": 0.3937007874015748,
                    "duration": 0.10000000000002274
                },
                {
                    "name": "F#4",
                    "midi": 66,
                    "time": 289.8999999999946,
                    "velocity": 0.33070866141732286,
                    "duration": 0.10000000000002274
                },
                {
                    "name": "A#4",
                    "midi": 70,
                    "time": 289.9999999999946,
                    "velocity": 0.29133858267716534,
                    "duration": 0.19999999999998863
                },
                {
                    "name": "C#5",
                    "midi": 73,
                    "time": 289.9999999999946,
                    "velocity": 0.3543307086614173,
                    "duration": 0.19999999999998863
                },
                {
                    "name": "D6",
                    "midi": 86,
                    "time": 290.3999999999946,
                    "velocity": 0.3937007874015748,
                    "duration": 0.10000000000002274
                },
                {
                    "name": "F#6",
                    "midi": 90,
                    "time": 290.4999999999946,
                    "velocity": 0.33070866141732286,
                    "duration": 0.10000000000002274
                },
                {
                    "name": "D6",
                    "midi": 86,
                    "time": 290.5999999999946,
                    "velocity": 0.3937007874015748,
                    "duration": 0.10000000000002274
                },
                {
                    "name": "B5",
                    "midi": 83,
                    "time": 290.69999999999465,
                    "velocity": 0.33070866141732286,
                    "duration": 0.07499999999998863
                },
                {
                    "name": "B5",
                    "midi": 83,
                    "time": 290.7999999999946,
                    "velocity": 0.3937007874015748,
                    "duration": 0.10000000000002274
                },
                {
                    "name": "D6",
                    "midi": 86,
                    "time": 290.89999999999463,
                    "velocity": 0.33070866141732286,
                    "duration": 0.10000000000002274
                },
                {
                    "name": "B5",
                    "midi": 83,
                    "time": 290.99999999999466,
                    "velocity": 0.3937007874015748,
                    "duration": 0.10000000000002274
                },
                {
                    "name": "F#5",
                    "midi": 78,
                    "time": 291.0999999999947,
                    "velocity": 0.33070866141732286,
                    "duration": 0.07499999999998863
                },
                {
                    "name": "F#5",
                    "midi": 78,
                    "time": 291.19999999999465,
                    "velocity": 0.3937007874015748,
                    "duration": 0.10000000000002274
                },
                {
                    "name": "B5",
                    "midi": 83,
                    "time": 291.29999999999467,
                    "velocity": 0.33070866141732286,
                    "duration": 0.10000000000002274
                },
                {
                    "name": "F#5",
                    "midi": 78,
                    "time": 291.3999999999947,
                    "velocity": 0.3937007874015748,
                    "duration": 0.10000000000002274
                },
                {
                    "name": "D5",
                    "midi": 74,
                    "time": 291.4999999999947,
                    "velocity": 0.33070866141732286,
                    "duration": 0.07499999999998863
                },
                {
                    "name": "D5",
                    "midi": 74,
                    "time": 291.5999999999947,
                    "velocity": 0.3937007874015748,
                    "duration": 0.10000000000002274
                },
                {
                    "name": "F#5",
                    "midi": 78,
                    "time": 291.6999999999947,
                    "velocity": 0.33070866141732286,
                    "duration": 0.10000000000002274
                },
                {
                    "name": "D5",
                    "midi": 74,
                    "time": 291.7999999999947,
                    "velocity": 0.3937007874015748,
                    "duration": 0.10000000000002274
                },
                {
                    "name": "B4",
                    "midi": 71,
                    "time": 291.89999999999475,
                    "velocity": 0.33070866141732286,
                    "duration": 0.07499999999998863
                },
                {
                    "name": "B4",
                    "midi": 71,
                    "time": 291.9999999999947,
                    "velocity": 0.3937007874015748,
                    "duration": 0.10000000000002274
                },
                {
                    "name": "D5",
                    "midi": 74,
                    "time": 292.09999999999474,
                    "velocity": 0.33070866141732286,
                    "duration": 0.10000000000002274
                },
                {
                    "name": "B4",
                    "midi": 71,
                    "time": 292.19999999999476,
                    "velocity": 0.3937007874015748,
                    "duration": 0.10000000000002274
                },
                {
                    "name": "F#4",
                    "midi": 66,
                    "time": 292.2999999999948,
                    "velocity": 0.33070866141732286,
                    "duration": 0.10000000000002274
                },
                {
                    "name": "A#4",
                    "midi": 70,
                    "time": 292.3999999999948,
                    "velocity": 0.29133858267716534,
                    "duration": 0.19999999999998863
                },
                {
                    "name": "C#5",
                    "midi": 73,
                    "time": 292.3999999999948,
                    "velocity": 0.3543307086614173,
                    "duration": 0.19999999999998863
                },
                {
                    "name": "D5",
                    "midi": 74,
                    "time": 292.7999999999948,
                    "velocity": 0.3228346456692913,
                    "duration": 0.37999999999999545
                },
                {
                    "name": "F#4",
                    "midi": 66,
                    "time": 292.7999999999948,
                    "velocity": 0.3228346456692913,
                    "duration": 0.37999999999999545
                },
                {
                    "name": "B4",
                    "midi": 71,
                    "time": 292.7999999999948,
                    "velocity": 0.3228346456692913,
                    "duration": 0.37999999999999545
                },
                {
                    "name": "C#5",
                    "midi": 73,
                    "time": 293.19999999999476,
                    "velocity": 0.3937007874015748,
                    "duration": 0.37999999999999545
                },
                {
                    "name": "E5",
                    "midi": 76,
                    "time": 293.19999999999476,
                    "velocity": 0.3937007874015748,
                    "duration": 0.37999999999999545
                },
                {
                    "name": "B5",
                    "midi": 83,
                    "time": 293.19999999999476,
                    "velocity": 0.3937007874015748,
                    "duration": 0.37999999999999545
                },
                {
                    "name": "C#5",
                    "midi": 73,
                    "time": 293.59999999999474,
                    "velocity": 0.3779527559055118,
                    "duration": 0.37999999999999545
                },
                {
                    "name": "E5",
                    "midi": 76,
                    "time": 293.59999999999474,
                    "velocity": 0.3779527559055118,
                    "duration": 0.37999999999999545
                },
                {
                    "name": "B5",
                    "midi": 83,
                    "time": 293.59999999999474,
                    "velocity": 0.3779527559055118,
                    "duration": 0.37999999999999545
                },
                {
                    "name": "C#5",
                    "midi": 73,
                    "time": 293.9999999999947,
                    "velocity": 0.36220472440944884,
                    "duration": 0.37999999999999545
                },
                {
                    "name": "E5",
                    "midi": 76,
                    "time": 293.9999999999947,
                    "velocity": 0.36220472440944884,
                    "duration": 0.37999999999999545
                },
                {
                    "name": "B5",
                    "midi": 83,
                    "time": 293.9999999999947,
                    "velocity": 0.36220472440944884,
                    "duration": 0.37999999999999545
                },
                {
                    "name": "C#5",
                    "midi": 73,
                    "time": 294.3999999999947,
                    "velocity": 0.3464566929133858,
                    "duration": 0.37999999999999545
                },
                {
                    "name": "F#5",
                    "midi": 78,
                    "time": 294.3999999999947,
                    "velocity": 0.3464566929133858,
                    "duration": 0.37999999999999545
                },
                {
                    "name": "A5",
                    "midi": 81,
                    "time": 294.3999999999947,
                    "velocity": 0.3464566929133858,
                    "duration": 0.37999999999999545
                },
                {
                    "name": "C#5",
                    "midi": 73,
                    "time": 294.79999999999467,
                    "velocity": 0.33070866141732286,
                    "duration": 0.37999999999999545
                },
                {
                    "name": "G5",
                    "midi": 79,
                    "time": 294.79999999999467,
                    "velocity": 0.33070866141732286,
                    "duration": 0.37999999999999545
                },
                {
                    "name": "D5",
                    "midi": 74,
                    "time": 295.19999999999465,
                    "velocity": 0.2992125984251969,
                    "duration": 0.37999999999999545
                },
                {
                    "name": "F#5",
                    "midi": 78,
                    "time": 295.19999999999465,
                    "velocity": 0.2992125984251969,
                    "duration": 0.37999999999999545
                },
                {
                    "name": "A#4",
                    "midi": 70,
                    "time": 295.5999999999946,
                    "velocity": 0.36220472440944884,
                    "duration": 0.37999999999999545
                },
                {
                    "name": "C#5",
                    "midi": 73,
                    "time": 295.5999999999946,
                    "velocity": 0.36220472440944884,
                    "duration": 0.37999999999999545
                },
                {
                    "name": "G5",
                    "midi": 79,
                    "time": 295.5999999999946,
                    "velocity": 0.36220472440944884,
                    "duration": 0.37999999999999545
                },
                {
                    "name": "A#4",
                    "midi": 70,
                    "time": 295.9999999999946,
                    "velocity": 0.36220472440944884,
                    "duration": 0.37999999999999545
                },
                {
                    "name": "C#5",
                    "midi": 73,
                    "time": 295.9999999999946,
                    "velocity": 0.36220472440944884,
                    "duration": 0.37999999999999545
                },
                {
                    "name": "G5",
                    "midi": 79,
                    "time": 295.9999999999946,
                    "velocity": 0.36220472440944884,
                    "duration": 0.37999999999999545
                },
                {
                    "name": "C#5",
                    "midi": 73,
                    "time": 296.3999999999946,
                    "velocity": 0.36220472440944884,
                    "duration": 0.37999999999999545
                },
                {
                    "name": "G5",
                    "midi": 79,
                    "time": 296.3999999999946,
                    "velocity": 0.36220472440944884,
                    "duration": 0.37999999999999545
                },
                {
                    "name": "A#4",
                    "midi": 70,
                    "time": 296.3999999999946,
                    "velocity": 0.36220472440944884,
                    "duration": 0.37999999999999545
                },
                {
                    "name": "F#5",
                    "midi": 78,
                    "time": 296.79999999999455,
                    "velocity": 0.3464566929133858,
                    "duration": 0.37999999999999545
                },
                {
                    "name": "C#5",
                    "midi": 73,
                    "time": 296.79999999999455,
                    "velocity": 0.3464566929133858,
                    "duration": 0.37999999999999545
                },
                {
                    "name": "A#4",
                    "midi": 70,
                    "time": 296.79999999999455,
                    "velocity": 0.3464566929133858,
                    "duration": 0.37999999999999545
                },
                {
                    "name": "E5",
                    "midi": 76,
                    "time": 297.19999999999453,
                    "velocity": 0.33070866141732286,
                    "duration": 0.37999999999999545
                },
                {
                    "name": "C#5",
                    "midi": 73,
                    "time": 297.19999999999453,
                    "velocity": 0.33070866141732286,
                    "duration": 0.37999999999999545
                },
                {
                    "name": "D#5",
                    "midi": 75,
                    "time": 297.5999999999945,
                    "velocity": 0.3228346456692913,
                    "duration": 0.37999999999999545
                },
                {
                    "name": "B4",
                    "midi": 71,
                    "time": 297.5999999999945,
                    "velocity": 0.3228346456692913,
                    "duration": 0.37999999999999545
                },
                {
                    "name": "G#4",
                    "midi": 68,
                    "time": 297.9999999999945,
                    "velocity": 0.3858267716535433,
                    "duration": 0.37999999999999545
                },
                {
                    "name": "E4",
                    "midi": 64,
                    "time": 297.9999999999945,
                    "velocity": 0.3858267716535433,
                    "duration": 0.37999999999999545
                },
                {
                    "name": "E5",
                    "midi": 76,
                    "time": 297.9999999999945,
                    "velocity": 0.3858267716535433,
                    "duration": 0.37999999999999545
                },
                {
                    "name": "E5",
                    "midi": 76,
                    "time": 298.39999999999446,
                    "velocity": 0.3858267716535433,
                    "duration": 0.37999999999999545
                },
                {
                    "name": "G#4",
                    "midi": 68,
                    "time": 298.39999999999446,
                    "velocity": 0.3858267716535433,
                    "duration": 0.37999999999999545
                },
                {
                    "name": "E4",
                    "midi": 64,
                    "time": 298.39999999999446,
                    "velocity": 0.3858267716535433,
                    "duration": 0.37999999999999545
                },
                {
                    "name": "G#4",
                    "midi": 68,
                    "time": 298.79999999999444,
                    "velocity": 0.3858267716535433,
                    "duration": 0.37999999999999545
                },
                {
                    "name": "E4",
                    "midi": 64,
                    "time": 298.79999999999444,
                    "velocity": 0.3858267716535433,
                    "duration": 0.37999999999999545
                },
                {
                    "name": "E5",
                    "midi": 76,
                    "time": 298.79999999999444,
                    "velocity": 0.3858267716535433,
                    "duration": 0.37999999999999545
                },
                {
                    "name": "D#5",
                    "midi": 75,
                    "time": 299.1999999999944,
                    "velocity": 0.3858267716535433,
                    "duration": 0.37999999999999545
                },
                {
                    "name": "G#4",
                    "midi": 68,
                    "time": 299.1999999999944,
                    "velocity": 0.3858267716535433,
                    "duration": 0.37999999999999545
                },
                {
                    "name": "D#4",
                    "midi": 63,
                    "time": 299.1999999999944,
                    "velocity": 0.3858267716535433,
                    "duration": 0.37999999999999545
                },
                {
                    "name": "C#4",
                    "midi": 61,
                    "time": 299.5999999999944,
                    "velocity": 0.3700787401574803,
                    "duration": 0.37999999999999545
                },
                {
                    "name": "C#5",
                    "midi": 73,
                    "time": 299.5999999999944,
                    "velocity": 0.3700787401574803,
                    "duration": 0.37999999999999545
                },
                {
                    "name": "G#4",
                    "midi": 68,
                    "time": 299.5999999999944,
                    "velocity": 0.3700787401574803,
                    "duration": 0.37999999999999545
                },
                {
                    "name": "D#4",
                    "midi": 63,
                    "time": 299.9999999999944,
                    "velocity": 0.3779527559055118,
                    "duration": 0.37999999999999545
                },
                {
                    "name": "G#4",
                    "midi": 68,
                    "time": 299.9999999999944,
                    "velocity": 0.3779527559055118,
                    "duration": 0.37999999999999545
                },
                {
                    "name": "B4",
                    "midi": 71,
                    "time": 299.9999999999944,
                    "velocity": 0.3779527559055118,
                    "duration": 0.37999999999999545
                },
                {
                    "name": "D#4",
                    "midi": 63,
                    "time": 300.39999999999435,
                    "velocity": 0.3779527559055118,
                    "duration": 0.37999999999999545
                },
                {
                    "name": "G#4",
                    "midi": 68,
                    "time": 300.39999999999435,
                    "velocity": 0.3779527559055118,
                    "duration": 0.37999999999999545
                },
                {
                    "name": "B4",
                    "midi": 71,
                    "time": 300.39999999999435,
                    "velocity": 0.3779527559055118,
                    "duration": 0.37999999999999545
                },
                {
                    "name": "D#4",
                    "midi": 63,
                    "time": 300.7999999999943,
                    "velocity": 0.3779527559055118,
                    "duration": 0.37999999999999545
                },
                {
                    "name": "G#4",
                    "midi": 68,
                    "time": 300.7999999999943,
                    "velocity": 0.3779527559055118,
                    "duration": 0.37999999999999545
                },
                {
                    "name": "B4",
                    "midi": 71,
                    "time": 300.7999999999943,
                    "velocity": 0.3779527559055118,
                    "duration": 0.37999999999999545
                },
                {
                    "name": "D#4",
                    "midi": 63,
                    "time": 301.1999999999943,
                    "velocity": 0.25984251968503935,
                    "duration": 0.37999999999999545
                },
                {
                    "name": "G4",
                    "midi": 67,
                    "time": 301.1999999999943,
                    "velocity": 0.25984251968503935,
                    "duration": 0.37999999999999545
                },
                {
                    "name": "A#4",
                    "midi": 70,
                    "time": 301.1999999999943,
                    "velocity": 0.25984251968503935,
                    "duration": 0.37999999999999545
                },
                {
                    "name": "D#4",
                    "midi": 63,
                    "time": 301.5999999999943,
                    "velocity": 0.2677165354330709,
                    "duration": 0.37999999999999545
                },
                {
                    "name": "G4",
                    "midi": 67,
                    "time": 301.5999999999943,
                    "velocity": 0.2677165354330709,
                    "duration": 0.37999999999999545
                },
                {
                    "name": "A#4",
                    "midi": 70,
                    "time": 301.5999999999943,
                    "velocity": 0.2677165354330709,
                    "duration": 0.37999999999999545
                },
                {
                    "name": "D#4",
                    "midi": 63,
                    "time": 301.99999999999426,
                    "velocity": 0.2677165354330709,
                    "duration": 0.37999999999999545
                },
                {
                    "name": "G4",
                    "midi": 67,
                    "time": 301.99999999999426,
                    "velocity": 0.2677165354330709,
                    "duration": 0.37999999999999545
                },
                {
                    "name": "A#4",
                    "midi": 70,
                    "time": 301.99999999999426,
                    "velocity": 0.2677165354330709,
                    "duration": 0.37999999999999545
                },
                {
                    "name": "C6",
                    "midi": 84,
                    "time": 302.39999999999424,
                    "velocity": 0.31496062992125984,
                    "duration": 0.10000000000002274
                },
                {
                    "name": "D#6",
                    "midi": 87,
                    "time": 302.49999999999426,
                    "velocity": 0.2677165354330709,
                    "duration": 0.10000000000002274
                },
                {
                    "name": "C6",
                    "midi": 84,
                    "time": 302.5999999999943,
                    "velocity": 0.31496062992125984,
                    "duration": 0.10000000000002274
                },
                {
                    "name": "G#5",
                    "midi": 80,
                    "time": 302.6999999999943,
                    "velocity": 0.2677165354330709,
                    "duration": 0.07499999999998863
                },
                {
                    "name": "G#5",
                    "midi": 80,
                    "time": 302.79999999999427,
                    "velocity": 0.31496062992125984,
                    "duration": 0.10000000000002274
                },
                {
                    "name": "C6",
                    "midi": 84,
                    "time": 302.8999999999943,
                    "velocity": 0.2677165354330709,
                    "duration": 0.10000000000002274
                },
                {
                    "name": "G#5",
                    "midi": 80,
                    "time": 302.9999999999943,
                    "velocity": 0.31496062992125984,
                    "duration": 0.10000000000002274
                },
                {
                    "name": "D#5",
                    "midi": 75,
                    "time": 303.09999999999434,
                    "velocity": 0.2677165354330709,
                    "duration": 0.07499999999998863
                },
                {
                    "name": "D#5",
                    "midi": 75,
                    "time": 303.1999999999943,
                    "velocity": 0.31496062992125984,
                    "duration": 0.10000000000002274
                },
                {
                    "name": "G#5",
                    "midi": 80,
                    "time": 303.2999999999943,
                    "velocity": 0.2677165354330709,
                    "duration": 0.10000000000002274
                },
                {
                    "name": "D#5",
                    "midi": 75,
                    "time": 303.39999999999435,
                    "velocity": 0.31496062992125984,
                    "duration": 0.10000000000002274
                },
                {
                    "name": "C5",
                    "midi": 72,
                    "time": 303.4999999999944,
                    "velocity": 0.2677165354330709,
                    "duration": 0.07499999999998863
                },
                {
                    "name": "C5",
                    "midi": 72,
                    "time": 303.59999999999434,
                    "velocity": 0.31496062992125984,
                    "duration": 0.10000000000002274
                },
                {
                    "name": "D#5",
                    "midi": 75,
                    "time": 303.69999999999436,
                    "velocity": 0.2677165354330709,
                    "duration": 0.10000000000002274
                },
                {
                    "name": "C5",
                    "midi": 72,
                    "time": 303.7999999999944,
                    "velocity": 0.31496062992125984,
                    "duration": 0.10000000000002274
                },
                {
                    "name": "G#4",
                    "midi": 68,
                    "time": 303.8999999999944,
                    "velocity": 0.2677165354330709,
                    "duration": 0.07499999999998863
                },
                {
                    "name": "G#4",
                    "midi": 68,
                    "time": 303.9999999999944,
                    "velocity": 0.31496062992125984,
                    "duration": 0.10000000000002274
                },
                {
                    "name": "C5",
                    "midi": 72,
                    "time": 304.0999999999944,
                    "velocity": 0.2677165354330709,
                    "duration": 0.10000000000002274
                },
                {
                    "name": "G#4",
                    "midi": 68,
                    "time": 304.1999999999944,
                    "velocity": 0.31496062992125984,
                    "duration": 0.10000000000002274
                },
                {
                    "name": "D#4",
                    "midi": 63,
                    "time": 304.29999999999444,
                    "velocity": 0.2677165354330709,
                    "duration": 0.10000000000002274
                },
                {
                    "name": "G4",
                    "midi": 67,
                    "time": 304.39999999999446,
                    "velocity": 0.23622047244094488,
                    "duration": 0.19999999999998863
                },
                {
                    "name": "A#4",
                    "midi": 70,
                    "time": 304.39999999999446,
                    "velocity": 0.28346456692913385,
                    "duration": 0.19999999999998863
                },
                {
                    "name": "C6",
                    "midi": 84,
                    "time": 304.79999999999444,
                    "velocity": 0.31496062992125984,
                    "duration": 0.10000000000002274
                },
                {
                    "name": "D#6",
                    "midi": 87,
                    "time": 304.89999999999446,
                    "velocity": 0.2677165354330709,
                    "duration": 0.10000000000002274
                },
                {
                    "name": "C6",
                    "midi": 84,
                    "time": 304.9999999999945,
                    "velocity": 0.31496062992125984,
                    "duration": 0.10000000000002274
                },
                {
                    "name": "G#5",
                    "midi": 80,
                    "time": 305.0999999999945,
                    "velocity": 0.2677165354330709,
                    "duration": 0.07499999999998863
                },
                {
                    "name": "G#5",
                    "midi": 80,
                    "time": 305.1999999999945,
                    "velocity": 0.31496062992125984,
                    "duration": 0.10000000000002274
                },
                {
                    "name": "C6",
                    "midi": 84,
                    "time": 305.2999999999945,
                    "velocity": 0.2677165354330709,
                    "duration": 0.10000000000002274
                },
                {
                    "name": "G#5",
                    "midi": 80,
                    "time": 305.3999999999945,
                    "velocity": 0.31496062992125984,
                    "duration": 0.10000000000002274
                },
                {
                    "name": "D#5",
                    "midi": 75,
                    "time": 305.49999999999454,
                    "velocity": 0.2677165354330709,
                    "duration": 0.07499999999998863
                },
                {
                    "name": "D#5",
                    "midi": 75,
                    "time": 305.5999999999945,
                    "velocity": 0.31496062992125984,
                    "duration": 0.10000000000002274
                },
                {
                    "name": "G#5",
                    "midi": 80,
                    "time": 305.69999999999453,
                    "velocity": 0.2677165354330709,
                    "duration": 0.10000000000002274
                },
                {
                    "name": "D#5",
                    "midi": 75,
                    "time": 305.79999999999455,
                    "velocity": 0.31496062992125984,
                    "duration": 0.10000000000002274
                },
                {
                    "name": "C5",
                    "midi": 72,
                    "time": 305.8999999999946,
                    "velocity": 0.2677165354330709,
                    "duration": 0.07499999999998863
                },
                {
                    "name": "C5",
                    "midi": 72,
                    "time": 305.99999999999454,
                    "velocity": 0.31496062992125984,
                    "duration": 0.10000000000002274
                },
                {
                    "name": "D#5",
                    "midi": 75,
                    "time": 306.09999999999457,
                    "velocity": 0.2677165354330709,
                    "duration": 0.10000000000002274
                },
                {
                    "name": "C5",
                    "midi": 72,
                    "time": 306.1999999999946,
                    "velocity": 0.31496062992125984,
                    "duration": 0.10000000000002274
                },
                {
                    "name": "G#4",
                    "midi": 68,
                    "time": 306.2999999999946,
                    "velocity": 0.2677165354330709,
                    "duration": 0.07499999999998863
                },
                {
                    "name": "G#4",
                    "midi": 68,
                    "time": 306.3999999999946,
                    "velocity": 0.31496062992125984,
                    "duration": 0.10000000000002274
                },
                {
                    "name": "C5",
                    "midi": 72,
                    "time": 306.4999999999946,
                    "velocity": 0.2677165354330709,
                    "duration": 0.10000000000002274
                },
                {
                    "name": "G#4",
                    "midi": 68,
                    "time": 306.5999999999946,
                    "velocity": 0.31496062992125984,
                    "duration": 0.10000000000002274
                },
                {
                    "name": "D#4",
                    "midi": 63,
                    "time": 306.69999999999465,
                    "velocity": 0.2677165354330709,
                    "duration": 0.10000000000002274
                },
                {
                    "name": "G4",
                    "midi": 67,
                    "time": 306.79999999999467,
                    "velocity": 0.23622047244094488,
                    "duration": 0.19999999999998863
                },
                {
                    "name": "A#4",
                    "midi": 70,
                    "time": 306.79999999999467,
                    "velocity": 0.28346456692913385,
                    "duration": 0.19999999999998863
                },
                {
                    "name": "D#6",
                    "midi": 87,
                    "time": 307.19999999999465,
                    "velocity": 0.3543307086614173,
                    "duration": 0.10000000000002274
                },
                {
                    "name": "G#6",
                    "midi": 92,
                    "time": 307.29999999999467,
                    "velocity": 0.2992125984251969,
                    "duration": 0.10000000000002274
                },
                {
                    "name": "D#6",
                    "midi": 87,
                    "time": 307.3999999999947,
                    "velocity": 0.3543307086614173,
                    "duration": 0.10000000000002274
                },
                {
                    "name": "C6",
                    "midi": 84,
                    "time": 307.4999999999947,
                    "velocity": 0.2992125984251969,
                    "duration": 0.07499999999998863
                },
                {
                    "name": "C6",
                    "midi": 84,
                    "time": 307.5999999999947,
                    "velocity": 0.3543307086614173,
                    "duration": 0.10000000000002274
                },
                {
                    "name": "D#6",
                    "midi": 87,
                    "time": 307.6999999999947,
                    "velocity": 0.2992125984251969,
                    "duration": 0.10000000000002274
                },
                {
                    "name": "C6",
                    "midi": 84,
                    "time": 307.7999999999947,
                    "velocity": 0.3543307086614173,
                    "duration": 0.10000000000002274
                },
                {
                    "name": "G#5",
                    "midi": 80,
                    "time": 307.89999999999475,
                    "velocity": 0.2992125984251969,
                    "duration": 0.07499999999998863
                },
                {
                    "name": "G#5",
                    "midi": 80,
                    "time": 307.9999999999947,
                    "velocity": 0.3543307086614173,
                    "duration": 0.10000000000002274
                },
                {
                    "name": "C6",
                    "midi": 84,
                    "time": 308.09999999999474,
                    "velocity": 0.2992125984251969,
                    "duration": 0.10000000000002274
                },
                {
                    "name": "G#5",
                    "midi": 80,
                    "time": 308.19999999999476,
                    "velocity": 0.3543307086614173,
                    "duration": 0.10000000000002274
                },
                {
                    "name": "D#5",
                    "midi": 75,
                    "time": 308.2999999999948,
                    "velocity": 0.2992125984251969,
                    "duration": 0.07499999999998863
                },
                {
                    "name": "D#5",
                    "midi": 75,
                    "time": 308.39999999999475,
                    "velocity": 0.3543307086614173,
                    "duration": 0.10000000000002274
                },
                {
                    "name": "G#5",
                    "midi": 80,
                    "time": 308.49999999999477,
                    "velocity": 0.2992125984251969,
                    "duration": 0.10000000000002274
                },
                {
                    "name": "D#5",
                    "midi": 75,
                    "time": 308.5999999999948,
                    "velocity": 0.3543307086614173,
                    "duration": 0.10000000000002274
                },
                {
                    "name": "C5",
                    "midi": 72,
                    "time": 308.6999999999948,
                    "velocity": 0.2992125984251969,
                    "duration": 0.07499999999998863
                },
                {
                    "name": "C5",
                    "midi": 72,
                    "time": 308.7999999999948,
                    "velocity": 0.3543307086614173,
                    "duration": 0.10000000000002274
                },
                {
                    "name": "D#5",
                    "midi": 75,
                    "time": 308.8999999999948,
                    "velocity": 0.2992125984251969,
                    "duration": 0.10000000000002274
                },
                {
                    "name": "C5",
                    "midi": 72,
                    "time": 308.9999999999948,
                    "velocity": 0.3543307086614173,
                    "duration": 0.10000000000002274
                },
                {
                    "name": "G#4",
                    "midi": 68,
                    "time": 309.09999999999485,
                    "velocity": 0.2992125984251969,
                    "duration": 0.10000000000002274
                },
                {
                    "name": "G4",
                    "midi": 67,
                    "time": 309.1999999999949,
                    "velocity": 0.31496062992125984,
                    "duration": 0.19999999999998863
                },
                {
                    "name": "A#4",
                    "midi": 70,
                    "time": 309.1999999999949,
                    "velocity": 0.31496062992125984,
                    "duration": 0.19999999999998863
                },
                {
                    "name": "D#6",
                    "midi": 87,
                    "time": 309.59999999999485,
                    "velocity": 0.3937007874015748,
                    "duration": 0.10000000000002274
                },
                {
                    "name": "G#6",
                    "midi": 92,
                    "time": 309.6999999999949,
                    "velocity": 0.33070866141732286,
                    "duration": 0.10000000000002274
                },
                {
                    "name": "D#6",
                    "midi": 87,
                    "time": 309.7999999999949,
                    "velocity": 0.3937007874015748,
                    "duration": 0.10000000000002274
                },
                {
                    "name": "C6",
                    "midi": 84,
                    "time": 309.8999999999949,
                    "velocity": 0.33070866141732286,
                    "duration": 0.07499999999998863
                },
                {
                    "name": "C6",
                    "midi": 84,
                    "time": 309.9999999999949,
                    "velocity": 0.3937007874015748,
                    "duration": 0.10000000000002274
                },
                {
                    "name": "D#6",
                    "midi": 87,
                    "time": 310.0999999999949,
                    "velocity": 0.33070866141732286,
                    "duration": 0.10000000000002274
                },
                {
                    "name": "C6",
                    "midi": 84,
                    "time": 310.19999999999493,
                    "velocity": 0.3937007874015748,
                    "duration": 0.10000000000002274
                },
                {
                    "name": "G#5",
                    "midi": 80,
                    "time": 310.29999999999495,
                    "velocity": 0.33070866141732286,
                    "duration": 0.07499999999998863
                },
                {
                    "name": "G#5",
                    "midi": 80,
                    "time": 310.3999999999949,
                    "velocity": 0.3937007874015748,
                    "duration": 0.10000000000002274
                },
                {
                    "name": "C6",
                    "midi": 84,
                    "time": 310.49999999999494,
                    "velocity": 0.33070866141732286,
                    "duration": 0.10000000000002274
                },
                {
                    "name": "G#5",
                    "midi": 80,
                    "time": 310.59999999999496,
                    "velocity": 0.3937007874015748,
                    "duration": 0.10000000000002274
                },
                {
                    "name": "D#5",
                    "midi": 75,
                    "time": 310.699999999995,
                    "velocity": 0.33070866141732286,
                    "duration": 0.07499999999998863
                },
                {
                    "name": "D#5",
                    "midi": 75,
                    "time": 310.79999999999495,
                    "velocity": 0.3937007874015748,
                    "duration": 0.10000000000002274
                },
                {
                    "name": "G#5",
                    "midi": 80,
                    "time": 310.899999999995,
                    "velocity": 0.33070866141732286,
                    "duration": 0.10000000000002274
                },
                {
                    "name": "D#5",
                    "midi": 75,
                    "time": 310.999999999995,
                    "velocity": 0.3937007874015748,
                    "duration": 0.10000000000002274
                },
                {
                    "name": "C5",
                    "midi": 72,
                    "time": 311.099999999995,
                    "velocity": 0.33070866141732286,
                    "duration": 0.07499999999998863
                },
                {
                    "name": "C5",
                    "midi": 72,
                    "time": 311.199999999995,
                    "velocity": 0.3937007874015748,
                    "duration": 0.10000000000002274
                },
                {
                    "name": "D#5",
                    "midi": 75,
                    "time": 311.299999999995,
                    "velocity": 0.33070866141732286,
                    "duration": 0.10000000000002274
                },
                {
                    "name": "C5",
                    "midi": 72,
                    "time": 311.39999999999503,
                    "velocity": 0.3937007874015748,
                    "duration": 0.10000000000002274
                },
                {
                    "name": "G#4",
                    "midi": 68,
                    "time": 311.49999999999505,
                    "velocity": 0.33070866141732286,
                    "duration": 0.10000000000002274
                },
                {
                    "name": "G4",
                    "midi": 67,
                    "time": 311.5999999999951,
                    "velocity": 0.3543307086614173,
                    "duration": 0.19999999999998863
                },
                {
                    "name": "A#4",
                    "midi": 70,
                    "time": 311.5999999999951,
                    "velocity": 0.3543307086614173,
                    "duration": 0.19999999999998863
                },
                {
                    "name": "C5",
                    "midi": 72,
                    "time": 311.99999999999505,
                    "velocity": 0.31496062992125984,
                    "duration": 0.10000000000002274
                },
                {
                    "name": "D#5",
                    "midi": 75,
                    "time": 312.0999999999951,
                    "velocity": 0.2677165354330709,
                    "duration": 0.10000000000002274
                },
                {
                    "name": "C5",
                    "midi": 72,
                    "time": 312.1999999999951,
                    "velocity": 0.31496062992125984,
                    "duration": 0.10000000000002274
                },
                {
                    "name": "G#4",
                    "midi": 68,
                    "time": 312.2999999999951,
                    "velocity": 0.2677165354330709,
                    "duration": 0.07499999999998863
                },
                {
                    "name": "G#4",
                    "midi": 68,
                    "time": 312.3999999999951,
                    "velocity": 0.31496062992125984,
                    "duration": 0.10000000000002274
                },
                {
                    "name": "C5",
                    "midi": 72,
                    "time": 312.4999999999951,
                    "velocity": 0.2677165354330709,
                    "duration": 0.10000000000002274
                },
                {
                    "name": "G#4",
                    "midi": 68,
                    "time": 312.59999999999513,
                    "velocity": 0.31496062992125984,
                    "duration": 0.10000000000002274
                },
                {
                    "name": "D#4",
                    "midi": 63,
                    "time": 312.69999999999516,
                    "velocity": 0.2677165354330709,
                    "duration": 0.10000000000002274
                },
                {
                    "name": "G#4",
                    "midi": 68,
                    "time": 312.7999999999952,
                    "velocity": 0.31496062992125984,
                    "duration": 0.10000000000002274
                },
                {
                    "name": "C#5",
                    "midi": 73,
                    "time": 313.1999999999952,
                    "velocity": 0.31496062992125984,
                    "duration": 0.10000000000002274
                },
                {
                    "name": "F5",
                    "midi": 77,
                    "time": 313.29999999999524,
                    "velocity": 0.2677165354330709,
                    "duration": 0.10000000000002274
                },
                {
                    "name": "C#5",
                    "midi": 73,
                    "time": 313.39999999999526,
                    "velocity": 0.31496062992125984,
                    "duration": 0.10000000000002274
                },
                {
                    "name": "G#4",
                    "midi": 68,
                    "time": 313.4999999999953,
                    "velocity": 0.2677165354330709,
                    "duration": 0.07499999999998863
                },
                {
                    "name": "G#4",
                    "midi": 68,
                    "time": 313.59999999999525,
                    "velocity": 0.31496062992125984,
                    "duration": 0.10000000000002274
                },
                {
                    "name": "C#5",
                    "midi": 73,
                    "time": 313.69999999999527,
                    "velocity": 0.2677165354330709,
                    "duration": 0.10000000000002274
                },
                {
                    "name": "G#4",
                    "midi": 68,
                    "time": 313.7999999999953,
                    "velocity": 0.31496062992125984,
                    "duration": 0.10000000000002274
                },
                {
                    "name": "F4",
                    "midi": 65,
                    "time": 313.8999999999953,
                    "velocity": 0.2677165354330709,
                    "duration": 0.10000000000002274
                },
                {
                    "name": "G#4",
                    "midi": 68,
                    "time": 313.99999999999534,
                    "velocity": 0.31496062992125984,
                    "duration": 0.10000000000002274
                },
                {
                    "name": "D#5",
                    "midi": 75,
                    "time": 314.3999999999954,
                    "velocity": 0.31496062992125984,
                    "duration": 0.10000000000002274
                },
                {
                    "name": "G5",
                    "midi": 79,
                    "time": 314.4999999999954,
                    "velocity": 0.2677165354330709,
                    "duration": 0.10000000000002274
                },
                {
                    "name": "D#5",
                    "midi": 75,
                    "time": 314.5999999999954,
                    "velocity": 0.31496062992125984,
                    "duration": 0.10000000000002274
                },
                {
                    "name": "A#4",
                    "midi": 70,
                    "time": 314.69999999999544,
                    "velocity": 0.2677165354330709,
                    "duration": 0.07499999999998863
                },
                {
                    "name": "A#4",
                    "midi": 70,
                    "time": 314.7999999999954,
                    "velocity": 0.31496062992125984,
                    "duration": 0.10000000000002274
                },
                {
                    "name": "D#5",
                    "midi": 75,
                    "time": 314.89999999999543,
                    "velocity": 0.2677165354330709,
                    "duration": 0.10000000000002274
                },
                {
                    "name": "A#4",
                    "midi": 70,
                    "time": 314.99999999999545,
                    "velocity": 0.31496062992125984,
                    "duration": 0.10000000000002274
                },
                {
                    "name": "G4",
                    "midi": 67,
                    "time": 315.0999999999955,
                    "velocity": 0.2677165354330709,
                    "duration": 0.10000000000002274
                },
                {
                    "name": "A#4",
                    "midi": 70,
                    "time": 315.1999999999955,
                    "velocity": 0.31496062992125984,
                    "duration": 0.10000000000002274
                },
                {
                    "name": "D#5",
                    "midi": 75,
                    "time": 315.59999999999553,
                    "velocity": 0.31496062992125984,
                    "duration": 0.10000000000002274
                },
                {
                    "name": "G#5",
                    "midi": 80,
                    "time": 315.69999999999555,
                    "velocity": 0.2677165354330709,
                    "duration": 0.10000000000002274
                },
                {
                    "name": "D#5",
                    "midi": 75,
                    "time": 315.7999999999956,
                    "velocity": 0.31496062992125984,
                    "duration": 0.10000000000002274
                },
                {
                    "name": "C5",
                    "midi": 72,
                    "time": 315.8999999999956,
                    "velocity": 0.2677165354330709,
                    "duration": 0.07499999999998863
                },
                {
                    "name": "C5",
                    "midi": 72,
                    "time": 315.99999999999557,
                    "velocity": 0.31496062992125984,
                    "duration": 0.10000000000002274
                },
                {
                    "name": "D#5",
                    "midi": 75,
                    "time": 316.0999999999956,
                    "velocity": 0.2677165354330709,
                    "duration": 0.10000000000002274
                },
                {
                    "name": "C5",
                    "midi": 72,
                    "time": 316.1999999999956,
                    "velocity": 0.31496062992125984,
                    "duration": 0.10000000000002274
                },
                {
                    "name": "G#4",
                    "midi": 68,
                    "time": 316.29999999999563,
                    "velocity": 0.2677165354330709,
                    "duration": 0.10000000000002274
                },
                {
                    "name": "C5",
                    "midi": 72,
                    "time": 316.39999999999566,
                    "velocity": 0.31496062992125984,
                    "duration": 0.10000000000002274
                },
                {
                    "name": "C6",
                    "midi": 84,
                    "time": 316.7999999999957,
                    "velocity": 0.41732283464566927,
                    "duration": 0.10000000000002274
                },
                {
                    "name": "D#6",
                    "midi": 87,
                    "time": 316.8999999999957,
                    "velocity": 0.3543307086614173,
                    "duration": 0.10000000000002274
                },
                {
                    "name": "C6",
                    "midi": 84,
                    "time": 316.99999999999574,
                    "velocity": 0.41732283464566927,
                    "duration": 0.10000000000002274
                },
                {
                    "name": "G#5",
                    "midi": 80,
                    "time": 317.09999999999576,
                    "velocity": 0.3543307086614173,
                    "duration": 0.07499999999998863
                },
                {
                    "name": "G#5",
                    "midi": 80,
                    "time": 317.1999999999957,
                    "velocity": 0.41732283464566927,
                    "duration": 0.10000000000002274
                },
                {
                    "name": "C6",
                    "midi": 84,
                    "time": 317.29999999999575,
                    "velocity": 0.3543307086614173,
                    "duration": 0.10000000000002274
                },
                {
                    "name": "G#5",
                    "midi": 80,
                    "time": 317.39999999999577,
                    "velocity": 0.41732283464566927,
                    "duration": 0.10000000000002274
                },
                {
                    "name": "D#5",
                    "midi": 75,
                    "time": 317.4999999999958,
                    "velocity": 0.3543307086614173,
                    "duration": 0.10000000000002274
                },
                {
                    "name": "G#5",
                    "midi": 80,
                    "time": 317.5999999999958,
                    "velocity": 0.41732283464566927,
                    "duration": 0.10000000000002274
                },
                {
                    "name": "C#6",
                    "midi": 85,
                    "time": 317.99999999999585,
                    "velocity": 0.47244094488188976,
                    "duration": 0.10000000000002274
                },
                {
                    "name": "F6",
                    "midi": 89,
                    "time": 318.0999999999959,
                    "velocity": 0.4015748031496063,
                    "duration": 0.10000000000002274
                },
                {
                    "name": "C#6",
                    "midi": 85,
                    "time": 318.1999999999959,
                    "velocity": 0.47244094488188976,
                    "duration": 0.10000000000002274
                },
                {
                    "name": "G#5",
                    "midi": 80,
                    "time": 318.2999999999959,
                    "velocity": 0.4015748031496063,
                    "duration": 0.07499999999998863
                },
                {
                    "name": "G#5",
                    "midi": 80,
                    "time": 318.3999999999959,
                    "velocity": 0.47244094488188976,
                    "duration": 0.10000000000002274
                },
                {
                    "name": "C#6",
                    "midi": 85,
                    "time": 318.4999999999959,
                    "velocity": 0.4015748031496063,
                    "duration": 0.10000000000002274
                },
                {
                    "name": "G#5",
                    "midi": 80,
                    "time": 318.59999999999593,
                    "velocity": 0.47244094488188976,
                    "duration": 0.10000000000002274
                },
                {
                    "name": "F5",
                    "midi": 77,
                    "time": 318.69999999999595,
                    "velocity": 0.4015748031496063,
                    "duration": 0.10000000000002274
                },
                {
                    "name": "G#5",
                    "midi": 80,
                    "time": 318.799999999996,
                    "velocity": 0.47244094488188976,
                    "duration": 0.10000000000002274
                },
                {
                    "name": "D#6",
                    "midi": 87,
                    "time": 319.199999999996,
                    "velocity": 0.5511811023622047,
                    "duration": 0.10000000000002274
                },
                {
                    "name": "G6",
                    "midi": 91,
                    "time": 319.29999999999603,
                    "velocity": 0.4645669291338583,
                    "duration": 0.10000000000002274
                },
                {
                    "name": "D#6",
                    "midi": 87,
                    "time": 319.39999999999606,
                    "velocity": 0.5511811023622047,
                    "duration": 0.10000000000002274
                },
                {
                    "name": "A#5",
                    "midi": 82,
                    "time": 319.4999999999961,
                    "velocity": 0.4645669291338583,
                    "duration": 0.07499999999998863
                },
                {
                    "name": "A#5",
                    "midi": 82,
                    "time": 319.59999999999604,
                    "velocity": 0.5511811023622047,
                    "duration": 0.10000000000002274
                },
                {
                    "name": "D#6",
                    "midi": 87,
                    "time": 319.69999999999607,
                    "velocity": 0.4645669291338583,
                    "duration": 0.10000000000002274
                },
                {
                    "name": "A#5",
                    "midi": 82,
                    "time": 319.7999999999961,
                    "velocity": 0.5511811023622047,
                    "duration": 0.10000000000002274
                },
                {
                    "name": "G5",
                    "midi": 79,
                    "time": 319.8999999999961,
                    "velocity": 0.4645669291338583,
                    "duration": 0.10000000000002274
                },
                {
                    "name": "A#5",
                    "midi": 82,
                    "time": 319.99999999999613,
                    "velocity": 0.5511811023622047,
                    "duration": 0.19999999999998863
                },
                {
                    "name": "D#6",
                    "midi": 87,
                    "time": 320.3999999999961,
                    "velocity": 0.6299212598425197,
                    "duration": 0.10000000000002274
                },
                {
                    "name": "G#6",
                    "midi": 92,
                    "time": 320.49999999999613,
                    "velocity": 0.5354330708661418,
                    "duration": 0.10000000000002274
                },
                {
                    "name": "D#6",
                    "midi": 87,
                    "time": 320.59999999999616,
                    "velocity": 0.6299212598425197,
                    "duration": 0.10000000000002274
                },
                {
                    "name": "C6",
                    "midi": 84,
                    "time": 320.6999999999962,
                    "velocity": 0.5354330708661418,
                    "duration": 0.07499999999998863
                },
                {
                    "name": "C6",
                    "midi": 84,
                    "time": 320.79999999999615,
                    "velocity": 0.6299212598425197,
                    "duration": 0.10000000000002274
                },
                {
                    "name": "D#6",
                    "midi": 87,
                    "time": 320.89999999999617,
                    "velocity": 0.5354330708661418,
                    "duration": 0.10000000000002274
                },
                {
                    "name": "C6",
                    "midi": 84,
                    "time": 320.9999999999962,
                    "velocity": 0.6299212598425197,
                    "duration": 0.10000000000002274
                },
                {
                    "name": "G#5",
                    "midi": 80,
                    "time": 321.0999999999962,
                    "velocity": 0.5354330708661418,
                    "duration": 0.10000000000002274
                },
                {
                    "name": "C6",
                    "midi": 84,
                    "time": 321.19999999999624,
                    "velocity": 0.6299212598425197,
                    "duration": 0.19999999999998863
                },
                {
                    "name": "C5",
                    "midi": 72,
                    "time": 321.5999999999962,
                    "velocity": 0.31496062992125984,
                    "duration": 0.10000000000002274
                },
                {
                    "name": "D#5",
                    "midi": 75,
                    "time": 321.69999999999624,
                    "velocity": 0.2677165354330709,
                    "duration": 0.10000000000002274
                },
                {
                    "name": "C5",
                    "midi": 72,
                    "time": 321.79999999999626,
                    "velocity": 0.31496062992125984,
                    "duration": 0.10000000000002274
                },
                {
                    "name": "G#4",
                    "midi": 68,
                    "time": 321.8999999999963,
                    "velocity": 0.2677165354330709,
                    "duration": 0.07499999999998863
                },
                {
                    "name": "G#4",
                    "midi": 68,
                    "time": 321.99999999999625,
                    "velocity": 0.31496062992125984,
                    "duration": 0.10000000000002274
                },
                {
                    "name": "C5",
                    "midi": 72,
                    "time": 322.09999999999627,
                    "velocity": 0.2677165354330709,
                    "duration": 0.10000000000002274
                },
                {
                    "name": "G#4",
                    "midi": 68,
                    "time": 322.1999999999963,
                    "velocity": 0.31496062992125984,
                    "duration": 0.10000000000002274
                },
                {
                    "name": "D#4",
                    "midi": 63,
                    "time": 322.2999999999963,
                    "velocity": 0.2677165354330709,
                    "duration": 0.10000000000002274
                },
                {
                    "name": "G#4",
                    "midi": 68,
                    "time": 322.39999999999634,
                    "velocity": 0.31496062992125984,
                    "duration": 0.19999999999998863
                },
                {
                    "name": "C#5",
                    "midi": 73,
                    "time": 322.7999999999963,
                    "velocity": 0.31496062992125984,
                    "duration": 0.10000000000002274
                },
                {
                    "name": "F5",
                    "midi": 77,
                    "time": 322.89999999999634,
                    "velocity": 0.2677165354330709,
                    "duration": 0.10000000000002274
                },
                {
                    "name": "C#5",
                    "midi": 73,
                    "time": 322.99999999999636,
                    "velocity": 0.31496062992125984,
                    "duration": 0.10000000000002274
                },
                {
                    "name": "G#4",
                    "midi": 68,
                    "time": 323.0999999999964,
                    "velocity": 0.2677165354330709,
                    "duration": 0.07499999999998863
                },
                {
                    "name": "G#4",
                    "midi": 68,
                    "time": 323.19999999999635,
                    "velocity": 0.31496062992125984,
                    "duration": 0.10000000000002274
                },
                {
                    "name": "C#5",
                    "midi": 73,
                    "time": 323.2999999999964,
                    "velocity": 0.2677165354330709,
                    "duration": 0.10000000000002274
                },
                {
                    "name": "G#4",
                    "midi": 68,
                    "time": 323.3999999999964,
                    "velocity": 0.31496062992125984,
                    "duration": 0.10000000000002274
                },
                {
                    "name": "F4",
                    "midi": 65,
                    "time": 323.4999999999964,
                    "velocity": 0.2677165354330709,
                    "duration": 0.10000000000002274
                },
                {
                    "name": "G#4",
                    "midi": 68,
                    "time": 323.59999999999644,
                    "velocity": 0.31496062992125984,
                    "duration": 0.19999999999998863
                },
                {
                    "name": "D#5",
                    "midi": 75,
                    "time": 323.9999999999964,
                    "velocity": 0.31496062992125984,
                    "duration": 0.10000000000002274
                },
                {
                    "name": "G5",
                    "midi": 79,
                    "time": 324.09999999999644,
                    "velocity": 0.2677165354330709,
                    "duration": 0.10000000000002274
                },
                {
                    "name": "D#5",
                    "midi": 75,
                    "time": 324.19999999999646,
                    "velocity": 0.31496062992125984,
                    "duration": 0.10000000000002274
                },
                {
                    "name": "A#4",
                    "midi": 70,
                    "time": 324.2999999999965,
                    "velocity": 0.2677165354330709,
                    "duration": 0.07499999999998863
                },
                {
                    "name": "A#4",
                    "midi": 70,
                    "time": 324.39999999999645,
                    "velocity": 0.31496062992125984,
                    "duration": 0.10000000000002274
                },
                {
                    "name": "D#5",
                    "midi": 75,
                    "time": 324.4999999999965,
                    "velocity": 0.2677165354330709,
                    "duration": 0.10000000000002274
                },
                {
                    "name": "A#4",
                    "midi": 70,
                    "time": 324.5999999999965,
                    "velocity": 0.31496062992125984,
                    "duration": 0.10000000000002274
                },
                {
                    "name": "G4",
                    "midi": 67,
                    "time": 324.6999999999965,
                    "velocity": 0.2677165354330709,
                    "duration": 0.10000000000002274
                },
                {
                    "name": "A#4",
                    "midi": 70,
                    "time": 324.79999999999654,
                    "velocity": 0.31496062992125984,
                    "duration": 0.19999999999998863
                },
                {
                    "name": "D#5",
                    "midi": 75,
                    "time": 325.1999999999965,
                    "velocity": 0.31496062992125984,
                    "duration": 0.10000000000002274
                },
                {
                    "name": "G#5",
                    "midi": 80,
                    "time": 325.29999999999654,
                    "velocity": 0.2677165354330709,
                    "duration": 0.10000000000002274
                },
                {
                    "name": "D#5",
                    "midi": 75,
                    "time": 325.39999999999657,
                    "velocity": 0.31496062992125984,
                    "duration": 0.10000000000002274
                },
                {
                    "name": "C5",
                    "midi": 72,
                    "time": 325.4999999999966,
                    "velocity": 0.2677165354330709,
                    "duration": 0.07499999999998863
                },
                {
                    "name": "C5",
                    "midi": 72,
                    "time": 325.59999999999656,
                    "velocity": 0.31496062992125984,
                    "duration": 0.10000000000002274
                },
                {
                    "name": "D#5",
                    "midi": 75,
                    "time": 325.6999999999966,
                    "velocity": 0.2677165354330709,
                    "duration": 0.10000000000002274
                },
                {
                    "name": "C5",
                    "midi": 72,
                    "time": 325.7999999999966,
                    "velocity": 0.31496062992125984,
                    "duration": 0.10000000000002274
                },
                {
                    "name": "G#4",
                    "midi": 68,
                    "time": 325.8999999999966,
                    "velocity": 0.2677165354330709,
                    "duration": 0.10000000000002274
                },
                {
                    "name": "C5",
                    "midi": 72,
                    "time": 325.99999999999665,
                    "velocity": 0.31496062992125984,
                    "duration": 0.19999999999998863
                },
                {
                    "name": "C6",
                    "midi": 84,
                    "time": 326.3999999999966,
                    "velocity": 0.3937007874015748,
                    "duration": 0.10000000000002274
                },
                {
                    "name": "D#6",
                    "midi": 87,
                    "time": 326.49999999999665,
                    "velocity": 0.33070866141732286,
                    "duration": 0.10000000000002274
                },
                {
                    "name": "C6",
                    "midi": 84,
                    "time": 326.59999999999667,
                    "velocity": 0.3937007874015748,
                    "duration": 0.10000000000002274
                },
                {
                    "name": "G#5",
                    "midi": 80,
                    "time": 326.6999999999967,
                    "velocity": 0.33070866141732286,
                    "duration": 0.07499999999998863
                },
                {
                    "name": "G#5",
                    "midi": 80,
                    "time": 326.79999999999666,
                    "velocity": 0.3937007874015748,
                    "duration": 0.10000000000002274
                },
                {
                    "name": "C6",
                    "midi": 84,
                    "time": 326.8999999999967,
                    "velocity": 0.33070866141732286,
                    "duration": 0.10000000000002274
                },
                {
                    "name": "G#5",
                    "midi": 80,
                    "time": 326.9999999999967,
                    "velocity": 0.3937007874015748,
                    "duration": 0.10000000000002274
                },
                {
                    "name": "D#5",
                    "midi": 75,
                    "time": 327.0999999999967,
                    "velocity": 0.33070866141732286,
                    "duration": 0.10000000000002274
                },
                {
                    "name": "G#5",
                    "midi": 80,
                    "time": 327.19999999999675,
                    "velocity": 0.3937007874015748,
                    "duration": 0.19999999999998863
                },
                {
                    "name": "C#6",
                    "midi": 85,
                    "time": 327.5999999999967,
                    "velocity": 0.4409448818897638,
                    "duration": 0.10000000000002274
                },
                {
                    "name": "F6",
                    "midi": 89,
                    "time": 327.69999999999675,
                    "velocity": 0.3700787401574803,
                    "duration": 0.10000000000002274
                },
                {
                    "name": "C#6",
                    "midi": 85,
                    "time": 327.79999999999677,
                    "velocity": 0.4409448818897638,
                    "duration": 0.10000000000002274
                },
                {
                    "name": "G#5",
                    "midi": 80,
                    "time": 327.8999999999968,
                    "velocity": 0.3700787401574803,
                    "duration": 0.07499999999998863
                },
                {
                    "name": "G#5",
                    "midi": 80,
                    "time": 327.99999999999676,
                    "velocity": 0.4409448818897638,
                    "duration": 0.10000000000002274
                },
                {
                    "name": "C#6",
                    "midi": 85,
                    "time": 328.0999999999968,
                    "velocity": 0.3700787401574803,
                    "duration": 0.10000000000002274
                },
                {
                    "name": "G#5",
                    "midi": 80,
                    "time": 328.1999999999968,
                    "velocity": 0.4409448818897638,
                    "duration": 0.10000000000002274
                },
                {
                    "name": "F5",
                    "midi": 77,
                    "time": 328.2999999999968,
                    "velocity": 0.3700787401574803,
                    "duration": 0.10000000000002274
                },
                {
                    "name": "G#5",
                    "midi": 80,
                    "time": 328.39999999999685,
                    "velocity": 0.4409448818897638,
                    "duration": 0.19999999999998863
                },
                {
                    "name": "D#6",
                    "midi": 87,
                    "time": 328.7999999999968,
                    "velocity": 0.47244094488188976,
                    "duration": 0.10000000000002274
                },
                {
                    "name": "G6",
                    "midi": 91,
                    "time": 328.89999999999685,
                    "velocity": 0.4015748031496063,
                    "duration": 0.10000000000002274
                },
                {
                    "name": "D#6",
                    "midi": 87,
                    "time": 328.9999999999969,
                    "velocity": 0.47244094488188976,
                    "duration": 0.10000000000002274
                },
                {
                    "name": "A#5",
                    "midi": 82,
                    "time": 329.0999999999969,
                    "velocity": 0.4015748031496063,
                    "duration": 0.07499999999998863
                },
                {
                    "name": "A#5",
                    "midi": 82,
                    "time": 329.19999999999686,
                    "velocity": 0.47244094488188976,
                    "duration": 0.10000000000002274
                },
                {
                    "name": "D#6",
                    "midi": 87,
                    "time": 329.2999999999969,
                    "velocity": 0.4015748031496063,
                    "duration": 0.10000000000002274
                },
                {
                    "name": "A#5",
                    "midi": 82,
                    "time": 329.3999999999969,
                    "velocity": 0.47244094488188976,
                    "duration": 0.10000000000002274
                },
                {
                    "name": "G5",
                    "midi": 79,
                    "time": 329.49999999999693,
                    "velocity": 0.4015748031496063,
                    "duration": 0.10000000000002274
                },
                {
                    "name": "A#5",
                    "midi": 82,
                    "time": 329.59999999999695,
                    "velocity": 0.47244094488188976,
                    "duration": 0.19999999999998863
                },
                {
                    "name": "D#6",
                    "midi": 87,
                    "time": 329.99999999999693,
                    "velocity": 0.5511811023622047,
                    "duration": 0.10000000000002274
                },
                {
                    "name": "G#6",
                    "midi": 92,
                    "time": 330.09999999999695,
                    "velocity": 0.4645669291338583,
                    "duration": 0.10000000000002274
                },
                {
                    "name": "D#6",
                    "midi": 87,
                    "time": 330.199999999997,
                    "velocity": 0.5511811023622047,
                    "duration": 0.10000000000002274
                },
                {
                    "name": "C6",
                    "midi": 84,
                    "time": 330.299999999997,
                    "velocity": 0.4645669291338583,
                    "duration": 0.07499999999998863
                },
                {
                    "name": "C6",
                    "midi": 84,
                    "time": 330.39999999999696,
                    "velocity": 0.5511811023622047,
                    "duration": 0.10000000000002274
                },
                {
                    "name": "D#6",
                    "midi": 87,
                    "time": 330.499999999997,
                    "velocity": 0.4645669291338583,
                    "duration": 0.10000000000002274
                },
                {
                    "name": "C6",
                    "midi": 84,
                    "time": 330.599999999997,
                    "velocity": 0.5511811023622047,
                    "duration": 0.10000000000002274
                },
                {
                    "name": "G#5",
                    "midi": 80,
                    "time": 330.69999999999703,
                    "velocity": 0.4645669291338583,
                    "duration": 0.10000000000002274
                },
                {
                    "name": "C6",
                    "midi": 84,
                    "time": 330.79999999999706,
                    "velocity": 0.5511811023622047,
                    "duration": 0.19999999999998863
                },
                {
                    "name": "D#6",
                    "midi": 87,
                    "time": 331.19999999999703,
                    "velocity": 0.5984251968503937,
                    "duration": 0.10000000000002274
                },
                {
                    "name": "G6",
                    "midi": 91,
                    "time": 331.29999999999706,
                    "velocity": 0.5039370078740157,
                    "duration": 0.10000000000002274
                },
                {
                    "name": "D#6",
                    "midi": 87,
                    "time": 331.3999999999971,
                    "velocity": 0.5984251968503937,
                    "duration": 0.10000000000002274
                },
                {
                    "name": "A#5",
                    "midi": 82,
                    "time": 331.4999999999971,
                    "velocity": 0.5039370078740157,
                    "duration": 0.07499999999998863
                },
                {
                    "name": "A#5",
                    "midi": 82,
                    "time": 331.59999999999707,
                    "velocity": 0.5984251968503937,
                    "duration": 0.10000000000002274
                },
                {
                    "name": "D#6",
                    "midi": 87,
                    "time": 331.6999999999971,
                    "velocity": 0.5039370078740157,
                    "duration": 0.10000000000002274
                },
                {
                    "name": "A#5",
                    "midi": 82,
                    "time": 331.7999999999971,
                    "velocity": 0.5984251968503937,
                    "duration": 0.10000000000002274
                },
                {
                    "name": "G5",
                    "midi": 79,
                    "time": 331.89999999999714,
                    "velocity": 0.5039370078740157,
                    "duration": 0.10000000000002274
                },
                {
                    "name": "A#5",
                    "midi": 82,
                    "time": 331.99999999999716,
                    "velocity": 0.5984251968503937,
                    "duration": 0.19999999999998863
                },
                {
                    "name": "D#6",
                    "midi": 87,
                    "time": 332.39999999999714,
                    "velocity": 0.6299212598425197,
                    "duration": 0.10000000000002274
                },
                {
                    "name": "G#6",
                    "midi": 92,
                    "time": 332.49999999999716,
                    "velocity": 0.5275590551181102,
                    "duration": 0.10000000000002274
                },
                {
                    "name": "D#6",
                    "midi": 87,
                    "time": 332.5999999999972,
                    "velocity": 0.6299212598425197,
                    "duration": 0.10000000000002274
                },
                {
                    "name": "C6",
                    "midi": 84,
                    "time": 332.6999999999972,
                    "velocity": 0.5275590551181102,
                    "duration": 0.07499999999998863
                },
                {
                    "name": "C6",
                    "midi": 84,
                    "time": 332.79999999999717,
                    "velocity": 0.6299212598425197,
                    "duration": 0.10000000000002274
                },
                {
                    "name": "D#6",
                    "midi": 87,
                    "time": 332.8999999999972,
                    "velocity": 0.5275590551181102,
                    "duration": 0.10000000000002274
                },
                {
                    "name": "C6",
                    "midi": 84,
                    "time": 332.9999999999972,
                    "velocity": 0.6299212598425197,
                    "duration": 0.10000000000002274
                },
                {
                    "name": "G#5",
                    "midi": 80,
                    "time": 333.09999999999724,
                    "velocity": 0.5275590551181102,
                    "duration": 0.10000000000002274
                },
                {
                    "name": "C6",
                    "midi": 84,
                    "time": 333.19999999999726,
                    "velocity": 0.6299212598425197,
                    "duration": 0.19999999999998863
                },
                {
                    "name": "F6",
                    "midi": 89,
                    "time": 333.59999999999724,
                    "velocity": 0.6220472440944882,
                    "duration": 0.10000000000002274
                },
                {
                    "name": "A6",
                    "midi": 93,
                    "time": 333.69999999999726,
                    "velocity": 0.5275590551181102,
                    "duration": 0.10000000000002274
                },
                {
                    "name": "F6",
                    "midi": 89,
                    "time": 333.7999999999973,
                    "velocity": 0.6220472440944882,
                    "duration": 0.10000000000002274
                },
                {
                    "name": "C6",
                    "midi": 84,
                    "time": 333.8999999999973,
                    "velocity": 0.5275590551181102,
                    "duration": 0.07499999999998863
                },
                {
                    "name": "C6",
                    "midi": 84,
                    "time": 333.99999999999727,
                    "velocity": 0.6220472440944882,
                    "duration": 0.10000000000002274
                },
                {
                    "name": "F6",
                    "midi": 89,
                    "time": 334.0999999999973,
                    "velocity": 0.5275590551181102,
                    "duration": 0.10000000000002274
                },
                {
                    "name": "C6",
                    "midi": 84,
                    "time": 334.1999999999973,
                    "velocity": 0.6220472440944882,
                    "duration": 0.10000000000002274
                },
                {
                    "name": "A5",
                    "midi": 81,
                    "time": 334.29999999999734,
                    "velocity": 0.5275590551181102,
                    "duration": 0.10000000000002274
                },
                {
                    "name": "C6",
                    "midi": 84,
                    "time": 334.39999999999736,
                    "velocity": 0.6220472440944882,
                    "duration": 0.19999999999998863
                },
                {
                    "name": "F6",
                    "midi": 89,
                    "time": 334.79999999999734,
                    "velocity": 0.6299212598425197,
                    "duration": 0.10000000000002274
                },
                {
                    "name": "A#6",
                    "midi": 94,
                    "time": 334.89999999999736,
                    "velocity": 0.5354330708661418,
                    "duration": 0.10000000000002274
                },
                {
                    "name": "F6",
                    "midi": 89,
                    "time": 334.9999999999974,
                    "velocity": 0.6299212598425197,
                    "duration": 0.10000000000002274
                },
                {
                    "name": "C#6",
                    "midi": 85,
                    "time": 335.0999999999974,
                    "velocity": 0.5354330708661418,
                    "duration": 0.07499999999998863
                },
                {
                    "name": "C#6",
                    "midi": 85,
                    "time": 335.1999999999974,
                    "velocity": 0.6299212598425197,
                    "duration": 0.10000000000002274
                },
                {
                    "name": "F6",
                    "midi": 89,
                    "time": 335.2999999999974,
                    "velocity": 0.5354330708661418,
                    "duration": 0.10000000000002274
                },
                {
                    "name": "C#6",
                    "midi": 85,
                    "time": 335.3999999999974,
                    "velocity": 0.6299212598425197,
                    "duration": 0.10000000000002274
                },
                {
                    "name": "A#5",
                    "midi": 82,
                    "time": 335.49999999999744,
                    "velocity": 0.5354330708661418,
                    "duration": 0.10000000000002274
                },
                {
                    "name": "C#6",
                    "midi": 85,
                    "time": 335.59999999999746,
                    "velocity": 0.6299212598425197,
                    "duration": 0.19999999999998863
                },
                {
                    "name": "F6",
                    "midi": 89,
                    "time": 335.99999999999744,
                    "velocity": 0.6299212598425197,
                    "duration": 0.10000000000002274
                },
                {
                    "name": "A6",
                    "midi": 93,
                    "time": 336.09999999999746,
                    "velocity": 0.5354330708661418,
                    "duration": 0.10000000000002274
                },
                {
                    "name": "F6",
                    "midi": 89,
                    "time": 336.1999999999975,
                    "velocity": 0.6299212598425197,
                    "duration": 0.10000000000002274
                },
                {
                    "name": "C6",
                    "midi": 84,
                    "time": 336.2999999999975,
                    "velocity": 0.5354330708661418,
                    "duration": 0.07499999999998863
                },
                {
                    "name": "C6",
                    "midi": 84,
                    "time": 336.3999999999975,
                    "velocity": 0.6299212598425197,
                    "duration": 0.10000000000002274
                },
                {
                    "name": "F6",
                    "midi": 89,
                    "time": 336.4999999999975,
                    "velocity": 0.5354330708661418,
                    "duration": 0.10000000000002274
                },
                {
                    "name": "C6",
                    "midi": 84,
                    "time": 336.5999999999975,
                    "velocity": 0.6299212598425197,
                    "duration": 0.10000000000002274
                },
                {
                    "name": "A5",
                    "midi": 81,
                    "time": 336.69999999999754,
                    "velocity": 0.5354330708661418,
                    "duration": 0.10000000000002274
                },
                {
                    "name": "C6",
                    "midi": 84,
                    "time": 336.79999999999757,
                    "velocity": 0.6299212598425197,
                    "duration": 0.19999999999998863
                },
                {
                    "name": "F6",
                    "midi": 89,
                    "time": 337.19999999999754,
                    "velocity": 0.6299212598425197,
                    "duration": 0.10000000000002274
                },
                {
                    "name": "A#6",
                    "midi": 94,
                    "time": 337.29999999999757,
                    "velocity": 0.5354330708661418,
                    "duration": 0.10000000000002274
                },
                {
                    "name": "F6",
                    "midi": 89,
                    "time": 337.3999999999976,
                    "velocity": 0.6299212598425197,
                    "duration": 0.10000000000002274
                },
                {
                    "name": "C#6",
                    "midi": 85,
                    "time": 337.4999999999976,
                    "velocity": 0.5354330708661418,
                    "duration": 0.07499999999998863
                },
                {
                    "name": "C#6",
                    "midi": 85,
                    "time": 337.5999999999976,
                    "velocity": 0.6299212598425197,
                    "duration": 0.10000000000002274
                },
                {
                    "name": "F6",
                    "midi": 89,
                    "time": 337.6999999999976,
                    "velocity": 0.5354330708661418,
                    "duration": 0.10000000000002274
                },
                {
                    "name": "C#6",
                    "midi": 85,
                    "time": 337.7999999999976,
                    "velocity": 0.6299212598425197,
                    "duration": 0.10000000000002274
                },
                {
                    "name": "A#5",
                    "midi": 82,
                    "time": 337.89999999999765,
                    "velocity": 0.5354330708661418,
                    "duration": 0.10000000000002274
                },
                {
                    "name": "C#6",
                    "midi": 85,
                    "time": 337.99999999999767,
                    "velocity": 0.6299212598425197,
                    "duration": 0.19999999999998863
                },
                {
                    "name": "G#6",
                    "midi": 92,
                    "time": 338.39999999999765,
                    "velocity": 0.6299212598425197,
                    "duration": 0.10000000000002274
                },
                {
                    "name": "C7",
                    "midi": 96,
                    "time": 338.49999999999767,
                    "velocity": 0.5354330708661418,
                    "duration": 0.10000000000002274
                },
                {
                    "name": "G#6",
                    "midi": 92,
                    "time": 338.5999999999977,
                    "velocity": 0.6299212598425197,
                    "duration": 0.10000000000002274
                },
                {
                    "name": "D#6",
                    "midi": 87,
                    "time": 338.6999999999977,
                    "velocity": 0.5354330708661418,
                    "duration": 0.07499999999998863
                },
                {
                    "name": "D#6",
                    "midi": 87,
                    "time": 338.7999999999977,
                    "velocity": 0.6299212598425197,
                    "duration": 0.10000000000002274
                },
                {
                    "name": "G#6",
                    "midi": 92,
                    "time": 338.8999999999977,
                    "velocity": 0.5354330708661418,
                    "duration": 0.10000000000002274
                },
                {
                    "name": "D#6",
                    "midi": 87,
                    "time": 338.9999999999977,
                    "velocity": 0.6299212598425197,
                    "duration": 0.10000000000002274
                },
                {
                    "name": "C6",
                    "midi": 84,
                    "time": 339.09999999999775,
                    "velocity": 0.5354330708661418,
                    "duration": 0.10000000000002274
                },
                {
                    "name": "D#6",
                    "midi": 87,
                    "time": 339.1999999999978,
                    "velocity": 0.6299212598425197,
                    "duration": 0.19999999999998863
                },
                {
                    "name": "G#6",
                    "midi": 92,
                    "time": 339.59999999999775,
                    "velocity": 0.6299212598425197,
                    "duration": 0.10000000000002274
                },
                {
                    "name": "C#7",
                    "midi": 97,
                    "time": 339.6999999999978,
                    "velocity": 0.5354330708661418,
                    "duration": 0.10000000000002274
                },
                {
                    "name": "G#6",
                    "midi": 92,
                    "time": 339.7999999999978,
                    "velocity": 0.6299212598425197,
                    "duration": 0.10000000000002274
                },
                {
                    "name": "F6",
                    "midi": 89,
                    "time": 339.8999999999978,
                    "velocity": 0.5354330708661418,
                    "duration": 0.07499999999998863
                },
                {
                    "name": "F6",
                    "midi": 89,
                    "time": 339.9999999999978,
                    "velocity": 0.6377952755905512,
                    "duration": 0.10000000000002274
                },
                {
                    "name": "G#6",
                    "midi": 92,
                    "time": 340.0999999999978,
                    "velocity": 0.5433070866141733,
                    "duration": 0.10000000000002274
                },
                {
                    "name": "F6",
                    "midi": 89,
                    "time": 340.19999999999783,
                    "velocity": 0.6456692913385826,
                    "duration": 0.10000000000002274
                },
                {
                    "name": "C#6",
                    "midi": 85,
                    "time": 340.29999999999785,
                    "velocity": 0.5433070866141733,
                    "duration": 0.10000000000002274
                },
                {
                    "name": "F6",
                    "midi": 89,
                    "time": 340.3999999999979,
                    "velocity": 0.6535433070866141,
                    "duration": 0.19999999999998863
                },
                {
                    "name": "G#6",
                    "midi": 92,
                    "time": 340.79999999999785,
                    "velocity": 0.6614173228346457,
                    "duration": 0.10000000000002274
                },
                {
                    "name": "C7",
                    "midi": 96,
                    "time": 340.8999999999979,
                    "velocity": 0.5590551181102362,
                    "duration": 0.10000000000002274
                },
                {
                    "name": "G#6",
                    "midi": 92,
                    "time": 340.9999999999979,
                    "velocity": 0.6692913385826772,
                    "duration": 0.10000000000002274
                },
                {
                    "name": "D#6",
                    "midi": 87,
                    "time": 341.0999999999979,
                    "velocity": 0.5669291338582677,
                    "duration": 0.07499999999998863
                },
                {
                    "name": "D#6",
                    "midi": 87,
                    "time": 341.1999999999979,
                    "velocity": 0.6771653543307087,
                    "duration": 0.10000000000002274
                },
                {
                    "name": "G#6",
                    "midi": 92,
                    "time": 341.2999999999979,
                    "velocity": 0.5748031496062992,
                    "duration": 0.10000000000002274
                },
                {
                    "name": "D#6",
                    "midi": 87,
                    "time": 341.39999999999793,
                    "velocity": 0.6850393700787402,
                    "duration": 0.10000000000002274
                },
                {
                    "name": "C6",
                    "midi": 84,
                    "time": 341.49999999999795,
                    "velocity": 0.5748031496062992,
                    "duration": 0.10000000000002274
                },
                {
                    "name": "D#6",
                    "midi": 87,
                    "time": 341.599999999998,
                    "velocity": 0.6850393700787402,
                    "duration": 0.19999999999998863
                },
                {
                    "name": "G#6",
                    "midi": 92,
                    "time": 341.99999999999795,
                    "velocity": 0.6929133858267716,
                    "duration": 0.10000000000002274
                },
                {
                    "name": "C#7",
                    "midi": 97,
                    "time": 342.099999999998,
                    "velocity": 0.5826771653543307,
                    "duration": 0.10000000000002274
                },
                {
                    "name": "G#6",
                    "midi": 92,
                    "time": 342.199999999998,
                    "velocity": 0.6929133858267716,
                    "duration": 0.10000000000002274
                },
                {
                    "name": "F6",
                    "midi": 89,
                    "time": 342.299999999998,
                    "velocity": 0.5826771653543307,
                    "duration": 0.07499999999998863
                },
                {
                    "name": "F6",
                    "midi": 89,
                    "time": 342.399999999998,
                    "velocity": 0.6929133858267716,
                    "duration": 0.10000000000002274
                },
                {
                    "name": "G#6",
                    "midi": 92,
                    "time": 342.499999999998,
                    "velocity": 0.5826771653543307,
                    "duration": 0.10000000000002274
                },
                {
                    "name": "F6",
                    "midi": 89,
                    "time": 342.59999999999803,
                    "velocity": 0.6929133858267716,
                    "duration": 0.10000000000002274
                },
                {
                    "name": "C#6",
                    "midi": 85,
                    "time": 342.69999999999806,
                    "velocity": 0.5826771653543307,
                    "duration": 0.07499999999998863
                },
                {
                    "name": "C#6",
                    "midi": 85,
                    "time": 342.799999999998,
                    "velocity": 0.6929133858267716,
                    "duration": 0.10000000000002274
                },
                {
                    "name": "F6",
                    "midi": 89,
                    "time": 342.89999999999804,
                    "velocity": 0.5826771653543307,
                    "duration": 0.10000000000002274
                },
                {
                    "name": "C#6",
                    "midi": 85,
                    "time": 342.99999999999807,
                    "velocity": 0.6929133858267716,
                    "duration": 0.10000000000002274
                },
                {
                    "name": "G#5",
                    "midi": 80,
                    "time": 343.0999999999981,
                    "velocity": 0.5826771653543307,
                    "duration": 0.07499999999998863
                },
                {
                    "name": "G#5",
                    "midi": 80,
                    "time": 343.19999999999806,
                    "velocity": 0.6929133858267716,
                    "duration": 0.10000000000002274
                },
                {
                    "name": "C#6",
                    "midi": 85,
                    "time": 343.2999999999981,
                    "velocity": 0.5826771653543307,
                    "duration": 0.10000000000002274
                },
                {
                    "name": "G#5",
                    "midi": 80,
                    "time": 343.3999999999981,
                    "velocity": 0.6929133858267716,
                    "duration": 0.10000000000002274
                },
                {
                    "name": "F5",
                    "midi": 77,
                    "time": 343.4999999999981,
                    "velocity": 0.5826771653543307,
                    "duration": 0.07499999999998863
                },
                {
                    "name": "F5",
                    "midi": 77,
                    "time": 343.5999999999981,
                    "velocity": 0.6929133858267716,
                    "duration": 0.10000000000002274
                },
                {
                    "name": "G#5",
                    "midi": 80,
                    "time": 343.6999999999981,
                    "velocity": 0.5826771653543307,
                    "duration": 0.10000000000002274
                },
                {
                    "name": "F5",
                    "midi": 77,
                    "time": 343.79999999999814,
                    "velocity": 0.6929133858267716,
                    "duration": 0.10000000000002274
                },
                {
                    "name": "C#5",
                    "midi": 73,
                    "time": 343.89999999999816,
                    "velocity": 0.5826771653543307,
                    "duration": 0.07499999999998863
                },
                {
                    "name": "C#5",
                    "midi": 73,
                    "time": 343.9999999999981,
                    "velocity": 0.6929133858267716,
                    "duration": 0.10000000000002274
                },
                {
                    "name": "F5",
                    "midi": 77,
                    "time": 344.09999999999815,
                    "velocity": 0.5826771653543307,
                    "duration": 0.10000000000002274
                },
                {
                    "name": "C#5",
                    "midi": 73,
                    "time": 344.19999999999817,
                    "velocity": 0.6929133858267716,
                    "duration": 0.10000000000002274
                },
                {
                    "name": "G#4",
                    "midi": 68,
                    "time": 344.2999999999982,
                    "velocity": 0.5826771653543307,
                    "duration": 0.07499999999998863
                },
                {
                    "name": "G#5",
                    "midi": 80,
                    "time": 344.39999999999816,
                    "velocity": 0.6929133858267716,
                    "duration": 0.10000000000002274
                },
                {
                    "name": "C#6",
                    "midi": 85,
                    "time": 344.4999999999982,
                    "velocity": 0.5826771653543307,
                    "duration": 0.10000000000002274
                },
                {
                    "name": "G#5",
                    "midi": 80,
                    "time": 344.5999999999982,
                    "velocity": 0.6929133858267716,
                    "duration": 0.10000000000002274
                },
                {
                    "name": "F5",
                    "midi": 77,
                    "time": 344.6999999999982,
                    "velocity": 0.5826771653543307,
                    "duration": 0.07499999999998863
                },
                {
                    "name": "F5",
                    "midi": 77,
                    "time": 344.7999999999982,
                    "velocity": 0.6929133858267716,
                    "duration": 0.10000000000002274
                },
                {
                    "name": "G#5",
                    "midi": 80,
                    "time": 344.8999999999982,
                    "velocity": 0.5826771653543307,
                    "duration": 0.10000000000002274
                },
                {
                    "name": "F5",
                    "midi": 77,
                    "time": 344.99999999999824,
                    "velocity": 0.6929133858267716,
                    "duration": 0.10000000000002274
                },
                {
                    "name": "C#5",
                    "midi": 73,
                    "time": 345.09999999999826,
                    "velocity": 0.5826771653543307,
                    "duration": 0.07499999999998863
                },
                {
                    "name": "C#5",
                    "midi": 73,
                    "time": 345.1999999999982,
                    "velocity": 0.6929133858267716,
                    "duration": 0.10000000000002274
                },
                {
                    "name": "F5",
                    "midi": 77,
                    "time": 345.29999999999825,
                    "velocity": 0.5826771653543307,
                    "duration": 0.10000000000002274
                },
                {
                    "name": "C#5",
                    "midi": 73,
                    "time": 345.3999999999983,
                    "velocity": 0.6929133858267716,
                    "duration": 0.10000000000002274
                },
                {
                    "name": "G#4",
                    "midi": 68,
                    "time": 345.4999999999983,
                    "velocity": 0.5826771653543307,
                    "duration": 0.07499999999998863
                },
                {
                    "name": "G#4",
                    "midi": 68,
                    "time": 345.59999999999826,
                    "velocity": 0.6929133858267716,
                    "duration": 0.10000000000002274
                },
                {
                    "name": "C#5",
                    "midi": 73,
                    "time": 345.6999999999983,
                    "velocity": 0.5826771653543307,
                    "duration": 0.10000000000002274
                },
                {
                    "name": "G#4",
                    "midi": 68,
                    "time": 345.7999999999983,
                    "velocity": 0.6929133858267716,
                    "duration": 0.10000000000002274
                },
                {
                    "name": "F4",
                    "midi": 65,
                    "time": 345.89999999999833,
                    "velocity": 0.5826771653543307,
                    "duration": 0.07499999999998863
                },
                {
                    "name": "F4",
                    "midi": 65,
                    "time": 345.9999999999983,
                    "velocity": 0.6929133858267716,
                    "duration": 0.10000000000002274
                },
                {
                    "name": "G#4",
                    "midi": 68,
                    "time": 346.0999999999983,
                    "velocity": 0.5826771653543307,
                    "duration": 0.10000000000002274
                },
                {
                    "name": "F4",
                    "midi": 65,
                    "time": 346.19999999999834,
                    "velocity": 0.6929133858267716,
                    "duration": 0.10000000000002274
                },
                {
                    "name": "C#4",
                    "midi": 61,
                    "time": 346.29999999999836,
                    "velocity": 0.5826771653543307,
                    "duration": 0.07499999999998863
                },
                {
                    "name": "C#4",
                    "midi": 61,
                    "time": 346.39999999999833,
                    "velocity": 0.6929133858267716,
                    "duration": 0.10000000000002274
                },
                {
                    "name": "F4",
                    "midi": 65,
                    "time": 346.49999999999835,
                    "velocity": 0.5826771653543307,
                    "duration": 0.10000000000002274
                },
                {
                    "name": "C#4",
                    "midi": 61,
                    "time": 346.5999999999984,
                    "velocity": 0.6929133858267716,
                    "duration": 0.10000000000002274
                },
                {
                    "name": "G#3",
                    "midi": 56,
                    "time": 346.6999999999984,
                    "velocity": 0.5826771653543307,
                    "duration": 0.10000000000002274
                },
                {
                    "name": "C#4",
                    "midi": 61,
                    "time": 346.7999999999984,
                    "velocity": 0.7086614173228346,
                    "duration": 0.10000000000002274
                },
                {
                    "name": "E4",
                    "midi": 64,
                    "time": 346.89999999999844,
                    "velocity": 0.5433070866141733,
                    "duration": 0.10000000000002274
                },
                {
                    "name": "C#4",
                    "midi": 61,
                    "time": 346.99999999999847,
                    "velocity": 0.6456692913385826,
                    "duration": 0.10000000000002274
                },
                {
                    "name": "A#3",
                    "midi": 58,
                    "time": 347.0999999999985,
                    "velocity": 0.5433070866141733,
                    "duration": 0.07499999999998863
                },
                {
                    "name": "A#3",
                    "midi": 58,
                    "time": 347.19999999999845,
                    "velocity": 0.6456692913385826,
                    "duration": 0.10000000000002274
                },
                {
                    "name": "C#4",
                    "midi": 61,
                    "time": 347.2999999999985,
                    "velocity": 0.5433070866141733,
                    "duration": 0.10000000000002274
                },
                {
                    "name": "A#3",
                    "midi": 58,
                    "time": 347.3999999999985,
                    "velocity": 0.6456692913385826,
                    "duration": 0.10000000000002274
                },
                {
                    "name": "G3",
                    "midi": 55,
                    "time": 347.4999999999985,
                    "velocity": 0.5433070866141733,
                    "duration": 0.10000000000002274
                },
                {
                    "name": "C#4",
                    "midi": 61,
                    "time": 347.59999999999854,
                    "velocity": 0.7165354330708661,
                    "duration": 0.10000000000002274
                },
                {
                    "name": "E4",
                    "midi": 64,
                    "time": 347.69999999999857,
                    "velocity": 0.5433070866141733,
                    "duration": 0.10000000000002274
                },
                {
                    "name": "C#4",
                    "midi": 61,
                    "time": 347.7999999999986,
                    "velocity": 0.6456692913385826,
                    "duration": 0.10000000000002274
                },
                {
                    "name": "A#3",
                    "midi": 58,
                    "time": 347.8999999999986,
                    "velocity": 0.5433070866141733,
                    "duration": 0.07499999999998863
                },
                {
                    "name": "A#3",
                    "midi": 58,
                    "time": 347.9999999999986,
                    "velocity": 0.6456692913385826,
                    "duration": 0.10000000000002274
                },
                {
                    "name": "C#4",
                    "midi": 61,
                    "time": 348.0999999999986,
                    "velocity": 0.5433070866141733,
                    "duration": 0.10000000000002274
                },
                {
                    "name": "A#3",
                    "midi": 58,
                    "time": 348.1999999999986,
                    "velocity": 0.6456692913385826,
                    "duration": 0.10000000000002274
                },
                {
                    "name": "G3",
                    "midi": 55,
                    "time": 348.29999999999865,
                    "velocity": 0.5433070866141733,
                    "duration": 0.10000000000002274
                },
                {
                    "name": "C#4",
                    "midi": 61,
                    "time": 348.39999999999867,
                    "velocity": 0.7086614173228346,
                    "duration": 0.10000000000002274
                },
                {
                    "name": "E4",
                    "midi": 64,
                    "time": 348.4999999999987,
                    "velocity": 0.5433070866141733,
                    "duration": 0.10000000000002274
                },
                {
                    "name": "C#4",
                    "midi": 61,
                    "time": 348.5999999999987,
                    "velocity": 0.6456692913385826,
                    "duration": 0.10000000000002274
                },
                {
                    "name": "A#3",
                    "midi": 58,
                    "time": 348.69999999999874,
                    "velocity": 0.5433070866141733,
                    "duration": 0.10000000000002274
                },
                {
                    "name": "A#3",
                    "midi": 58,
                    "time": 348.79999999999876,
                    "velocity": 0.6456692913385826,
                    "duration": 0.10000000000002274
                },
                {
                    "name": "C#4",
                    "midi": 61,
                    "time": 348.8999999999988,
                    "velocity": 0.5433070866141733,
                    "duration": 0.10000000000002274
                },
                {
                    "name": "A#3",
                    "midi": 58,
                    "time": 348.9999999999988,
                    "velocity": 0.6456692913385826,
                    "duration": 0.10000000000002274
                },
                {
                    "name": "G3",
                    "midi": 55,
                    "time": 349.09999999999883,
                    "velocity": 0.5433070866141733,
                    "duration": 0.10000000000002274
                },
                {
                    "name": "C#4",
                    "midi": 61,
                    "time": 349.19999999999885,
                    "velocity": 0.6377952755905512,
                    "duration": 0.10000000000002274
                },
                {
                    "name": "D#4",
                    "midi": 63,
                    "time": 349.2999999999989,
                    "velocity": 0.5354330708661418,
                    "duration": 0.10000000000002274
                },
                {
                    "name": "C#4",
                    "midi": 61,
                    "time": 349.3999999999989,
                    "velocity": 0.6377952755905512,
                    "duration": 0.10000000000002274
                },
                {
                    "name": "A#3",
                    "midi": 58,
                    "time": 349.4999999999989,
                    "velocity": 0.5275590551181102,
                    "duration": 0.07499999999998863
                },
                {
                    "name": "A#3",
                    "midi": 58,
                    "time": 349.5999999999989,
                    "velocity": 0.6299212598425197,
                    "duration": 0.10000000000002274
                },
                {
                    "name": "C#4",
                    "midi": 61,
                    "time": 349.6999999999989,
                    "velocity": 0.5196850393700787,
                    "duration": 0.10000000000002274
                },
                {
                    "name": "A#3",
                    "midi": 58,
                    "time": 349.79999999999893,
                    "velocity": 0.6220472440944882,
                    "duration": 0.10000000000002274
                },
                {
                    "name": "G3",
                    "midi": 55,
                    "time": 349.89999999999895,
                    "velocity": 0.5196850393700787,
                    "duration": 0.10000000000002274
                },
                {
                    "name": "C#4",
                    "midi": 61,
                    "time": 349.999999999999,
                    "velocity": 0.6614173228346457,
                    "duration": 0.10000000000002274
                },
                {
                    "name": "D#4",
                    "midi": 63,
                    "time": 350.099999999999,
                    "velocity": 0.5118110236220472,
                    "duration": 0.10000000000002274
                },
                {
                    "name": "C#4",
                    "midi": 61,
                    "time": 350.199999999999,
                    "velocity": 0.5984251968503937,
                    "duration": 0.10000000000002274
                },
                {
                    "name": "A#3",
                    "midi": 58,
                    "time": 350.29999999999905,
                    "velocity": 0.4881889763779528,
                    "duration": 0.07499999999998863
                },
                {
                    "name": "A#3",
                    "midi": 58,
                    "time": 350.399999999999,
                    "velocity": 0.5984251968503937,
                    "duration": 0.10000000000002274
                },
                {
                    "name": "C#4",
                    "midi": 61,
                    "time": 350.49999999999903,
                    "velocity": 0.49606299212598426,
                    "duration": 0.10000000000002274
                },
                {
                    "name": "A#3",
                    "midi": 58,
                    "time": 350.59999999999906,
                    "velocity": 0.5748031496062992,
                    "duration": 0.10000000000002274
                },
                {
                    "name": "G3",
                    "midi": 55,
                    "time": 350.6999999999991,
                    "velocity": 0.4645669291338583,
                    "duration": 0.10000000000002274
                },
                {
                    "name": "C#4",
                    "midi": 61,
                    "time": 350.7999999999991,
                    "velocity": 0.5984251968503937,
                    "duration": 0.10000000000002274
                },
                {
                    "name": "D#4",
                    "midi": 63,
                    "time": 350.8999999999991,
                    "velocity": 0.44881889763779526,
                    "duration": 0.10000000000002274
                },
                {
                    "name": "C#4",
                    "midi": 61,
                    "time": 350.99999999999915,
                    "velocity": 0.5196850393700787,
                    "duration": 0.10000000000002274
                },
                {
                    "name": "A#3",
                    "midi": 58,
                    "time": 351.09999999999917,
                    "velocity": 0.4330708661417323,
                    "duration": 0.07499999999998863
                },
                {
                    "name": "A#3",
                    "midi": 58,
                    "time": 351.19999999999914,
                    "velocity": 0.49606299212598426,
                    "duration": 0.10000000000002274
                },
                {
                    "name": "C#4",
                    "midi": 61,
                    "time": 351.29999999999916,
                    "velocity": 0.4094488188976378,
                    "duration": 0.10000000000002274
                },
                {
                    "name": "A#3",
                    "midi": 58,
                    "time": 351.3999999999992,
                    "velocity": 0.47244094488188976,
                    "duration": 0.10000000000002274
                },
                {
                    "name": "G3",
                    "midi": 55,
                    "time": 351.4999999999992,
                    "velocity": 0.3858267716535433,
                    "duration": 0.10000000000002274
                },
                {
                    "name": "D#4",
                    "midi": 63,
                    "time": 351.5999999999992,
                    "velocity": 0.3937007874015748,
                    "duration": 0.39999999999997726
                },
                {
                    "name": "C4",
                    "midi": 60,
                    "time": 351.73333333333255,
                    "velocity": 0.31496062992125984,
                    "duration": 0.13333333333332575
                },
                {
                    "name": "G#3",
                    "midi": 56,
                    "time": 351.8666666666659,
                    "velocity": 0.31496062992125984,
                    "duration": 0.13333333333332575
                },
                {
                    "name": "G#4",
                    "midi": 68,
                    "time": 351.9999999999992,
                    "velocity": 0.3937007874015748,
                    "duration": 0.39999999999997726
                },
                {
                    "name": "D#4",
                    "midi": 63,
                    "time": 352.13333333333253,
                    "velocity": 0.31496062992125984,
                    "duration": 0.13333333333332575
                },
                {
                    "name": "C4",
                    "midi": 60,
                    "time": 352.26666666666586,
                    "velocity": 0.31496062992125984,
                    "duration": 0.13333333333332575
                },
                {
                    "name": "G4",
                    "midi": 67,
                    "time": 352.3999999999992,
                    "velocity": 0.3937007874015748,
                    "duration": 0.39999999999997726
                },
                {
                    "name": "D#4",
                    "midi": 63,
                    "time": 352.5333333333325,
                    "velocity": 0.31496062992125984,
                    "duration": 0.13333333333332575
                },
                {
                    "name": "C4",
                    "midi": 60,
                    "time": 352.66666666666583,
                    "velocity": 0.31496062992125984,
                    "duration": 0.13333333333332575
                },
                {
                    "name": "F4",
                    "midi": 65,
                    "time": 352.79999999999916,
                    "velocity": 0.3937007874015748,
                    "duration": 0.39999999999997726
                },
                {
                    "name": "C#4",
                    "midi": 61,
                    "time": 352.9333333333325,
                    "velocity": 0.31496062992125984,
                    "duration": 0.13333333333332575
                },
                {
                    "name": "G#3",
                    "midi": 56,
                    "time": 353.0666666666658,
                    "velocity": 0.31496062992125984,
                    "duration": 0.13333333333332575
                },
                {
                    "name": "C#5",
                    "midi": 73,
                    "time": 353.19999999999914,
                    "velocity": 0.3937007874015748,
                    "duration": 0.39999999999997726
                },
                {
                    "name": "F4",
                    "midi": 65,
                    "time": 353.33333333333246,
                    "velocity": 0.31496062992125984,
                    "duration": 0.13333333333332575
                },
                {
                    "name": "C#4",
                    "midi": 61,
                    "time": 353.4666666666658,
                    "velocity": 0.31496062992125984,
                    "duration": 0.13333333333332575
                },
                {
                    "name": "A#4",
                    "midi": 70,
                    "time": 353.5999999999991,
                    "velocity": 0.3937007874015748,
                    "duration": 0.39999999999997726
                },
                {
                    "name": "F4",
                    "midi": 65,
                    "time": 353.73333333333244,
                    "velocity": 0.31496062992125984,
                    "duration": 0.13333333333332575
                },
                {
                    "name": "C#4",
                    "midi": 61,
                    "time": 353.86666666666576,
                    "velocity": 0.31496062992125984,
                    "duration": 0.13333333333332575
                },
                {
                    "name": "A#4",
                    "midi": 70,
                    "time": 353.9999999999991,
                    "velocity": 0.3937007874015748,
                    "duration": 0.39999999999997726
                },
                {
                    "name": "D#4",
                    "midi": 63,
                    "time": 354.1333333333324,
                    "velocity": 0.31496062992125984,
                    "duration": 0.13333333333332575
                },
                {
                    "name": "C#4",
                    "midi": 61,
                    "time": 354.26666666666574,
                    "velocity": 0.31496062992125984,
                    "duration": 0.13333333333332575
                },
                {
                    "name": "G#4",
                    "midi": 68,
                    "time": 354.39999999999907,
                    "velocity": 0.3937007874015748,
                    "duration": 0.39999999999997726
                },
                {
                    "name": "D#4",
                    "midi": 63,
                    "time": 354.5333333333324,
                    "velocity": 0.31496062992125984,
                    "duration": 0.13333333333332575
                },
                {
                    "name": "C4",
                    "midi": 60,
                    "time": 354.6666666666657,
                    "velocity": 0.31496062992125984,
                    "duration": 0.13333333333332575
                },
                {
                    "name": "G#4",
                    "midi": 68,
                    "time": 354.79999999999905,
                    "velocity": 0.3937007874015748,
                    "duration": 0.39999999999997726
                },
                {
                    "name": "D#4",
                    "midi": 63,
                    "time": 354.93333333333237,
                    "velocity": 0.31496062992125984,
                    "duration": 0.13333333333332575
                },
                {
                    "name": "C4",
                    "midi": 60,
                    "time": 355.0666666666657,
                    "velocity": 0.31496062992125984,
                    "duration": 0.13333333333332575
                },
                {
                    "name": "G#4",
                    "midi": 68,
                    "time": 355.199999999999,
                    "velocity": 0.3937007874015748,
                    "duration": 0.39999999999997726
                },
                {
                    "name": "D#4",
                    "midi": 63,
                    "time": 355.33333333333235,
                    "velocity": 0.31496062992125984,
                    "duration": 0.13333333333332575
                },
                {
                    "name": "C4",
                    "midi": 60,
                    "time": 355.4666666666657,
                    "velocity": 0.31496062992125984,
                    "duration": 0.13333333333332575
                },
                {
                    "name": "G4",
                    "midi": 67,
                    "time": 355.599999999999,
                    "velocity": 0.3937007874015748,
                    "duration": 0.39999999999997726
                },
                {
                    "name": "D#4",
                    "midi": 63,
                    "time": 355.7333333333323,
                    "velocity": 0.31496062992125984,
                    "duration": 0.13333333333332575
                },
                {
                    "name": "A#3",
                    "midi": 58,
                    "time": 355.86666666666565,
                    "velocity": 0.31496062992125984,
                    "duration": 0.13333333333332575
                },
                {
                    "name": "G4",
                    "midi": 67,
                    "time": 355.999999999999,
                    "velocity": 0.3937007874015748,
                    "duration": 0.39999999999997726
                },
                {
                    "name": "D#4",
                    "midi": 63,
                    "time": 356.1333333333323,
                    "velocity": 0.31496062992125984,
                    "duration": 0.13333333333332575
                },
                {
                    "name": "A#3",
                    "midi": 58,
                    "time": 356.2666666666656,
                    "velocity": 0.31496062992125984,
                    "duration": 0.13333333333332575
                },
                {
                    "name": "D#4",
                    "midi": 63,
                    "time": 356.39999999999895,
                    "velocity": 0.3937007874015748,
                    "duration": 0.39999999999997726
                },
                {
                    "name": "C4",
                    "midi": 60,
                    "time": 356.5333333333323,
                    "velocity": 0.31496062992125984,
                    "duration": 0.13333333333332575
                },
                {
                    "name": "G#3",
                    "midi": 56,
                    "time": 356.6666666666656,
                    "velocity": 0.31496062992125984,
                    "duration": 0.13333333333332575
                },
                {
                    "name": "G#4",
                    "midi": 68,
                    "time": 356.79999999999893,
                    "velocity": 0.3937007874015748,
                    "duration": 0.39999999999997726
                },
                {
                    "name": "D#4",
                    "midi": 63,
                    "time": 356.93333333333226,
                    "velocity": 0.31496062992125984,
                    "duration": 0.13333333333332575
                },
                {
                    "name": "C4",
                    "midi": 60,
                    "time": 357.0666666666656,
                    "velocity": 0.31496062992125984,
                    "duration": 0.13333333333332575
                },
                {
                    "name": "G4",
                    "midi": 67,
                    "time": 357.1999999999989,
                    "velocity": 0.3937007874015748,
                    "duration": 0.39999999999997726
                },
                {
                    "name": "D#4",
                    "midi": 63,
                    "time": 357.33333333333223,
                    "velocity": 0.31496062992125984,
                    "duration": 0.13333333333332575
                },
                {
                    "name": "C4",
                    "midi": 60,
                    "time": 357.46666666666556,
                    "velocity": 0.31496062992125984,
                    "duration": 0.13333333333332575
                },
                {
                    "name": "F4",
                    "midi": 65,
                    "time": 357.5999999999989,
                    "velocity": 0.3937007874015748,
                    "duration": 0.39999999999997726
                },
                {
                    "name": "C#4",
                    "midi": 61,
                    "time": 357.7333333333322,
                    "velocity": 0.31496062992125984,
                    "duration": 0.13333333333332575
                },
                {
                    "name": "G#3",
                    "midi": 56,
                    "time": 357.86666666666554,
                    "velocity": 0.31496062992125984,
                    "duration": 0.13333333333332575
                },
                {
                    "name": "F5",
                    "midi": 77,
                    "time": 357.99999999999886,
                    "velocity": 0.3937007874015748,
                    "duration": 0.39999999999997726
                },
                {
                    "name": "G#4",
                    "midi": 68,
                    "time": 358.1333333333322,
                    "velocity": 0.31496062992125984,
                    "duration": 0.13333333333332575
                },
                {
                    "name": "F4",
                    "midi": 65,
                    "time": 358.2666666666655,
                    "velocity": 0.31496062992125984,
                    "duration": 0.13333333333332575
                },
                {
                    "name": "C#5",
                    "midi": 73,
                    "time": 358.39999999999884,
                    "velocity": 0.3937007874015748,
                    "duration": 0.39999999999997726
                },
                {
                    "name": "F4",
                    "midi": 65,
                    "time": 358.53333333333217,
                    "velocity": 0.31496062992125984,
                    "duration": 0.13333333333332575
                },
                {
                    "name": "C#4",
                    "midi": 61,
                    "time": 358.6666666666655,
                    "velocity": 0.31496062992125984,
                    "duration": 0.13333333333332575
                },
                {
                    "name": "C#5",
                    "midi": 73,
                    "time": 358.7999999999988,
                    "velocity": 0.3937007874015748,
                    "duration": 0.39999999999997726
                },
                {
                    "name": "G#4",
                    "midi": 68,
                    "time": 358.93333333333214,
                    "velocity": 0.31496062992125984,
                    "duration": 0.13333333333332575
                },
                {
                    "name": "D#4",
                    "midi": 63,
                    "time": 359.06666666666547,
                    "velocity": 0.31496062992125984,
                    "duration": 0.13333333333332575
                },
                {
                    "name": "C5",
                    "midi": 72,
                    "time": 359.1999999999988,
                    "velocity": 0.3937007874015748,
                    "duration": 0.39999999999997726
                },
                {
                    "name": "G#4",
                    "midi": 68,
                    "time": 359.3333333333321,
                    "velocity": 0.31496062992125984,
                    "duration": 0.13333333333332575
                },
                {
                    "name": "D#4",
                    "midi": 63,
                    "time": 359.46666666666545,
                    "velocity": 0.31496062992125984,
                    "duration": 0.13333333333332575
                },
                {
                    "name": "C5",
                    "midi": 72,
                    "time": 359.5999999999988,
                    "velocity": 0.3937007874015748,
                    "duration": 0.39999999999997726
                },
                {
                    "name": "G#4",
                    "midi": 68,
                    "time": 359.7333333333321,
                    "velocity": 0.31496062992125984,
                    "duration": 0.13333333333332575
                },
                {
                    "name": "D#4",
                    "midi": 63,
                    "time": 359.8666666666654,
                    "velocity": 0.31496062992125984,
                    "duration": 0.13333333333332575
                },
                {
                    "name": "C5",
                    "midi": 72,
                    "time": 359.99999999999875,
                    "velocity": 0.3937007874015748,
                    "duration": 0.39999999999997726
                },
                {
                    "name": "D#4",
                    "midi": 63,
                    "time": 360.1333333333321,
                    "velocity": 0.31496062992125984,
                    "duration": 0.13333333333332575
                },
                {
                    "name": "C#4",
                    "midi": 61,
                    "time": 360.2666666666654,
                    "velocity": 0.31496062992125984,
                    "duration": 0.13333333333332575
                },
                {
                    "name": "A#4",
                    "midi": 70,
                    "time": 360.3999999999987,
                    "velocity": 0.3937007874015748,
                    "duration": 0.39999999999997726
                },
                {
                    "name": "D#4",
                    "midi": 63,
                    "time": 360.53333333333205,
                    "velocity": 0.31496062992125984,
                    "duration": 0.13333333333332575
                },
                {
                    "name": "C#4",
                    "midi": 61,
                    "time": 360.6666666666654,
                    "velocity": 0.31496062992125984,
                    "duration": 0.13333333333332575
                },
                {
                    "name": "A#4",
                    "midi": 70,
                    "time": 360.7999999999987,
                    "velocity": 0.3937007874015748,
                    "duration": 0.39999999999997726
                },
                {
                    "name": "D#4",
                    "midi": 63,
                    "time": 360.93333333333203,
                    "velocity": 0.31496062992125984,
                    "duration": 0.13333333333332575
                },
                {
                    "name": "C#4",
                    "midi": 61,
                    "time": 361.06666666666536,
                    "velocity": 0.31496062992125984,
                    "duration": 0.13333333333332575
                },
                {
                    "name": "C5",
                    "midi": 72,
                    "time": 361.1999999999987,
                    "velocity": 0.3779527559055118,
                    "duration": 0.0999999999999659
                },
                {
                    "name": "D#5",
                    "midi": 75,
                    "time": 361.29999999999865,
                    "velocity": 0.31496062992125984,
                    "duration": 0.10000000000002274
                },
                {
                    "name": "C5",
                    "midi": 72,
                    "time": 361.39999999999867,
                    "velocity": 0.3779527559055118,
                    "duration": 0.10000000000002274
                },
                {
                    "name": "G#4",
                    "midi": 68,
                    "time": 361.4999999999987,
                    "velocity": 0.31496062992125984,
                    "duration": 0.07499999999998863
                },
                {
                    "name": "G#4",
                    "midi": 68,
                    "time": 361.59999999999866,
                    "velocity": 0.3779527559055118,
                    "duration": 0.10000000000002274
                },
                {
                    "name": "C5",
                    "midi": 72,
                    "time": 361.6999999999987,
                    "velocity": 0.31496062992125984,
                    "duration": 0.10000000000002274
                },
                {
                    "name": "G#4",
                    "midi": 68,
                    "time": 361.7999999999987,
                    "velocity": 0.3779527559055118,
                    "duration": 0.10000000000002274
                },
                {
                    "name": "D#4",
                    "midi": 63,
                    "time": 361.8999999999987,
                    "velocity": 0.31496062992125984,
                    "duration": 0.10000000000002274
                },
                {
                    "name": "G#4",
                    "midi": 68,
                    "time": 361.99999999999875,
                    "velocity": 0.3779527559055118,
                    "duration": 0.19999999999998863
                },
                {
                    "name": "C#5",
                    "midi": 73,
                    "time": 362.3999999999987,
                    "velocity": 0.3779527559055118,
                    "duration": 0.10000000000002274
                },
                {
                    "name": "F5",
                    "midi": 77,
                    "time": 362.49999999999875,
                    "velocity": 0.31496062992125984,
                    "duration": 0.10000000000002274
                },
                {
                    "name": "C#5",
                    "midi": 73,
                    "time": 362.5999999999988,
                    "velocity": 0.3779527559055118,
                    "duration": 0.10000000000002274
                },
                {
                    "name": "G#4",
                    "midi": 68,
                    "time": 362.6999999999988,
                    "velocity": 0.31496062992125984,
                    "duration": 0.07499999999998863
                },
                {
                    "name": "G#4",
                    "midi": 68,
                    "time": 362.79999999999876,
                    "velocity": 0.3779527559055118,
                    "duration": 0.10000000000002274
                },
                {
                    "name": "C#5",
                    "midi": 73,
                    "time": 362.8999999999988,
                    "velocity": 0.31496062992125984,
                    "duration": 0.10000000000002274
                },
                {
                    "name": "G#4",
                    "midi": 68,
                    "time": 362.9999999999988,
                    "velocity": 0.3779527559055118,
                    "duration": 0.10000000000002274
                },
                {
                    "name": "F4",
                    "midi": 65,
                    "time": 363.09999999999883,
                    "velocity": 0.31496062992125984,
                    "duration": 0.10000000000002274
                },
                {
                    "name": "G#4",
                    "midi": 68,
                    "time": 363.19999999999885,
                    "velocity": 0.3779527559055118,
                    "duration": 0.19999999999998863
                },
                {
                    "name": "D#5",
                    "midi": 75,
                    "time": 363.59999999999883,
                    "velocity": 0.3779527559055118,
                    "duration": 0.10000000000002274
                },
                {
                    "name": "G5",
                    "midi": 79,
                    "time": 363.69999999999885,
                    "velocity": 0.31496062992125984,
                    "duration": 0.10000000000002274
                },
                {
                    "name": "D#5",
                    "midi": 75,
                    "time": 363.7999999999989,
                    "velocity": 0.3779527559055118,
                    "duration": 0.10000000000002274
                },
                {
                    "name": "A#4",
                    "midi": 70,
                    "time": 363.8999999999989,
                    "velocity": 0.31496062992125984,
                    "duration": 0.07499999999998863
                },
                {
                    "name": "A#4",
                    "midi": 70,
                    "time": 363.99999999999886,
                    "velocity": 0.3779527559055118,
                    "duration": 0.10000000000002274
                },
                {
                    "name": "D#5",
                    "midi": 75,
                    "time": 364.0999999999989,
                    "velocity": 0.31496062992125984,
                    "duration": 0.10000000000002274
                },
                {
                    "name": "A#4",
                    "midi": 70,
                    "time": 364.1999999999989,
                    "velocity": 0.3779527559055118,
                    "duration": 0.10000000000002274
                },
                {
                    "name": "G4",
                    "midi": 67,
                    "time": 364.29999999999893,
                    "velocity": 0.31496062992125984,
                    "duration": 0.10000000000002274
                },
                {
                    "name": "A#4",
                    "midi": 70,
                    "time": 364.39999999999895,
                    "velocity": 0.3779527559055118,
                    "duration": 0.19999999999998863
                },
                {
                    "name": "D#5",
                    "midi": 75,
                    "time": 364.79999999999893,
                    "velocity": 0.3779527559055118,
                    "duration": 0.10000000000002274
                },
                {
                    "name": "G#5",
                    "midi": 80,
                    "time": 364.89999999999895,
                    "velocity": 0.31496062992125984,
                    "duration": 0.10000000000002274
                },
                {
                    "name": "D#5",
                    "midi": 75,
                    "time": 364.999999999999,
                    "velocity": 0.3779527559055118,
                    "duration": 0.10000000000002274
                },
                {
                    "name": "C5",
                    "midi": 72,
                    "time": 365.099999999999,
                    "velocity": 0.31496062992125984,
                    "duration": 0.07499999999998863
                },
                {
                    "name": "C5",
                    "midi": 72,
                    "time": 365.19999999999897,
                    "velocity": 0.3779527559055118,
                    "duration": 0.10000000000002274
                },
                {
                    "name": "D#5",
                    "midi": 75,
                    "time": 365.299999999999,
                    "velocity": 0.31496062992125984,
                    "duration": 0.10000000000002274
                },
                {
                    "name": "C5",
                    "midi": 72,
                    "time": 365.399999999999,
                    "velocity": 0.3779527559055118,
                    "duration": 0.10000000000002274
                },
                {
                    "name": "G#4",
                    "midi": 68,
                    "time": 365.49999999999903,
                    "velocity": 0.31496062992125984,
                    "duration": 0.10000000000002274
                },
                {
                    "name": "C5",
                    "midi": 72,
                    "time": 365.59999999999906,
                    "velocity": 0.3779527559055118,
                    "duration": 0.19999999999998863
                },
                {
                    "name": "C6",
                    "midi": 84,
                    "time": 365.99999999999903,
                    "velocity": 0.47244094488188976,
                    "duration": 0.10000000000002274
                },
                {
                    "name": "D#6",
                    "midi": 87,
                    "time": 366.09999999999906,
                    "velocity": 0.4015748031496063,
                    "duration": 0.10000000000002274
                },
                {
                    "name": "C6",
                    "midi": 84,
                    "time": 366.1999999999991,
                    "velocity": 0.47244094488188976,
                    "duration": 0.10000000000002274
                },
                {
                    "name": "G#5",
                    "midi": 80,
                    "time": 366.2999999999991,
                    "velocity": 0.4015748031496063,
                    "duration": 0.07499999999998863
                },
                {
                    "name": "G#5",
                    "midi": 80,
                    "time": 366.39999999999907,
                    "velocity": 0.47244094488188976,
                    "duration": 0.10000000000002274
                },
                {
                    "name": "C6",
                    "midi": 84,
                    "time": 366.4999999999991,
                    "velocity": 0.4015748031496063,
                    "duration": 0.10000000000002274
                },
                {
                    "name": "G#5",
                    "midi": 80,
                    "time": 366.5999999999991,
                    "velocity": 0.47244094488188976,
                    "duration": 0.10000000000002274
                },
                {
                    "name": "D#5",
                    "midi": 75,
                    "time": 366.69999999999914,
                    "velocity": 0.4015748031496063,
                    "duration": 0.10000000000002274
                },
                {
                    "name": "G#5",
                    "midi": 80,
                    "time": 366.79999999999916,
                    "velocity": 0.47244094488188976,
                    "duration": 0.19999999999998863
                },
                {
                    "name": "C#6",
                    "midi": 85,
                    "time": 367.19999999999914,
                    "velocity": 0.5669291338582677,
                    "duration": 0.10000000000002274
                },
                {
                    "name": "F6",
                    "midi": 89,
                    "time": 367.29999999999916,
                    "velocity": 0.48031496062992124,
                    "duration": 0.10000000000002274
                },
                {
                    "name": "C#6",
                    "midi": 85,
                    "time": 367.3999999999992,
                    "velocity": 0.5669291338582677,
                    "duration": 0.10000000000002274
                },
                {
                    "name": "G#5",
                    "midi": 80,
                    "time": 367.4999999999992,
                    "velocity": 0.48031496062992124,
                    "duration": 0.07499999999998863
                },
                {
                    "name": "G#5",
                    "midi": 80,
                    "time": 367.59999999999917,
                    "velocity": 0.5669291338582677,
                    "duration": 0.10000000000002274
                },
                {
                    "name": "C#6",
                    "midi": 85,
                    "time": 367.6999999999992,
                    "velocity": 0.48031496062992124,
                    "duration": 0.10000000000002274
                },
                {
                    "name": "G#5",
                    "midi": 80,
                    "time": 367.7999999999992,
                    "velocity": 0.5669291338582677,
                    "duration": 0.10000000000002274
                },
                {
                    "name": "F5",
                    "midi": 77,
                    "time": 367.89999999999924,
                    "velocity": 0.48031496062992124,
                    "duration": 0.10000000000002274
                },
                {
                    "name": "G#5",
                    "midi": 80,
                    "time": 367.99999999999926,
                    "velocity": 0.5669291338582677,
                    "duration": 0.19999999999998863
                },
                {
                    "name": "D#6",
                    "midi": 87,
                    "time": 368.39999999999924,
                    "velocity": 0.6614173228346457,
                    "duration": 0.10000000000002274
                },
                {
                    "name": "G6",
                    "midi": 91,
                    "time": 368.49999999999926,
                    "velocity": 0.5590551181102362,
                    "duration": 0.10000000000002274
                },
                {
                    "name": "D#6",
                    "midi": 87,
                    "time": 368.5999999999993,
                    "velocity": 0.6614173228346457,
                    "duration": 0.10000000000002274
                },
                {
                    "name": "A#5",
                    "midi": 82,
                    "time": 368.6999999999993,
                    "velocity": 0.5590551181102362,
                    "duration": 0.07499999999998863
                },
                {
                    "name": "A#5",
                    "midi": 82,
                    "time": 368.7999999999993,
                    "velocity": 0.6614173228346457,
                    "duration": 0.10000000000002274
                },
                {
                    "name": "D#6",
                    "midi": 87,
                    "time": 368.8999999999993,
                    "velocity": 0.5590551181102362,
                    "duration": 0.10000000000002274
                },
                {
                    "name": "A#5",
                    "midi": 82,
                    "time": 368.9999999999993,
                    "velocity": 0.6614173228346457,
                    "duration": 0.10000000000002274
                },
                {
                    "name": "G5",
                    "midi": 79,
                    "time": 369.09999999999934,
                    "velocity": 0.5590551181102362,
                    "duration": 0.10000000000002274
                },
                {
                    "name": "A#5",
                    "midi": 82,
                    "time": 369.19999999999936,
                    "velocity": 0.6614173228346457,
                    "duration": 0.19999999999998863
                },
                {
                    "name": "D#6",
                    "midi": 87,
                    "time": 369.59999999999934,
                    "velocity": 0.7322834645669292,
                    "duration": 0.10000000000002274
                },
                {
                    "name": "G#6",
                    "midi": 92,
                    "time": 369.69999999999936,
                    "velocity": 0.6220472440944882,
                    "duration": 0.10000000000002274
                },
                {
                    "name": "D#6",
                    "midi": 87,
                    "time": 369.7999999999994,
                    "velocity": 0.7322834645669292,
                    "duration": 0.10000000000002274
                },
                {
                    "name": "C6",
                    "midi": 84,
                    "time": 369.8999999999994,
                    "velocity": 0.6220472440944882,
                    "duration": 0.07499999999998863
                },
                {
                    "name": "C6",
                    "midi": 84,
                    "time": 369.9999999999994,
                    "velocity": 0.7322834645669292,
                    "duration": 0.10000000000002274
                },
                {
                    "name": "D#6",
                    "midi": 87,
                    "time": 370.0999999999994,
                    "velocity": 0.6220472440944882,
                    "duration": 0.10000000000002274
                },
                {
                    "name": "C6",
                    "midi": 84,
                    "time": 370.1999999999994,
                    "velocity": 0.7322834645669292,
                    "duration": 0.10000000000002274
                },
                {
                    "name": "G#5",
                    "midi": 80,
                    "time": 370.29999999999944,
                    "velocity": 0.6220472440944882,
                    "duration": 0.10000000000002274
                },
                {
                    "name": "C6",
                    "midi": 84,
                    "time": 370.39999999999947,
                    "velocity": 0.7322834645669292,
                    "duration": 0.19999999999998863
                },
                {
                    "name": "C5",
                    "midi": 72,
                    "time": 370.79999999999944,
                    "velocity": 0.3779527559055118,
                    "duration": 0.10000000000002274
                },
                {
                    "name": "D#5",
                    "midi": 75,
                    "time": 370.89999999999947,
                    "velocity": 0.31496062992125984,
                    "duration": 0.10000000000002274
                },
                {
                    "name": "C5",
                    "midi": 72,
                    "time": 370.9999999999995,
                    "velocity": 0.3779527559055118,
                    "duration": 0.10000000000002274
                },
                {
                    "name": "G#4",
                    "midi": 68,
                    "time": 371.0999999999995,
                    "velocity": 0.31496062992125984,
                    "duration": 0.07499999999998863
                },
                {
                    "name": "G#4",
                    "midi": 68,
                    "time": 371.1999999999995,
                    "velocity": 0.3779527559055118,
                    "duration": 0.10000000000002274
                },
                {
                    "name": "C5",
                    "midi": 72,
                    "time": 371.2999999999995,
                    "velocity": 0.31496062992125984,
                    "duration": 0.10000000000002274
                },
                {
                    "name": "G#4",
                    "midi": 68,
                    "time": 371.3999999999995,
                    "velocity": 0.3779527559055118,
                    "duration": 0.10000000000002274
                },
                {
                    "name": "D#4",
                    "midi": 63,
                    "time": 371.49999999999955,
                    "velocity": 0.31496062992125984,
                    "duration": 0.10000000000002274
                },
                {
                    "name": "G#4",
                    "midi": 68,
                    "time": 371.59999999999957,
                    "velocity": 0.3779527559055118,
                    "duration": 0.19999999999998863
                },
                {
                    "name": "C#5",
                    "midi": 73,
                    "time": 371.99999999999955,
                    "velocity": 0.3779527559055118,
                    "duration": 0.10000000000002274
                },
                {
                    "name": "F5",
                    "midi": 77,
                    "time": 372.09999999999957,
                    "velocity": 0.31496062992125984,
                    "duration": 0.10000000000002274
                },
                {
                    "name": "C#5",
                    "midi": 73,
                    "time": 372.1999999999996,
                    "velocity": 0.3779527559055118,
                    "duration": 0.10000000000002274
                },
                {
                    "name": "G#4",
                    "midi": 68,
                    "time": 372.2999999999996,
                    "velocity": 0.31496062992125984,
                    "duration": 0.07499999999998863
                },
                {
                    "name": "G#4",
                    "midi": 68,
                    "time": 372.3999999999996,
                    "velocity": 0.3779527559055118,
                    "duration": 0.10000000000002274
                },
                {
                    "name": "C#5",
                    "midi": 73,
                    "time": 372.4999999999996,
                    "velocity": 0.31496062992125984,
                    "duration": 0.10000000000002274
                },
                {
                    "name": "G#4",
                    "midi": 68,
                    "time": 372.5999999999996,
                    "velocity": 0.3779527559055118,
                    "duration": 0.10000000000002274
                },
                {
                    "name": "F4",
                    "midi": 65,
                    "time": 372.69999999999965,
                    "velocity": 0.31496062992125984,
                    "duration": 0.10000000000002274
                },
                {
                    "name": "G#4",
                    "midi": 68,
                    "time": 372.79999999999967,
                    "velocity": 0.3779527559055118,
                    "duration": 0.19999999999998863
                },
                {
                    "name": "D#5",
                    "midi": 75,
                    "time": 373.19999999999965,
                    "velocity": 0.3779527559055118,
                    "duration": 0.10000000000002274
                },
                {
                    "name": "G5",
                    "midi": 79,
                    "time": 373.29999999999967,
                    "velocity": 0.31496062992125984,
                    "duration": 0.10000000000002274
                },
                {
                    "name": "D#5",
                    "midi": 75,
                    "time": 373.3999999999997,
                    "velocity": 0.3779527559055118,
                    "duration": 0.10000000000002274
                },
                {
                    "name": "A#4",
                    "midi": 70,
                    "time": 373.4999999999997,
                    "velocity": 0.31496062992125984,
                    "duration": 0.07499999999998863
                },
                {
                    "name": "A#4",
                    "midi": 70,
                    "time": 373.5999999999997,
                    "velocity": 0.3779527559055118,
                    "duration": 0.10000000000002274
                },
                {
                    "name": "D#5",
                    "midi": 75,
                    "time": 373.6999999999997,
                    "velocity": 0.31496062992125984,
                    "duration": 0.10000000000002274
                },
                {
                    "name": "A#4",
                    "midi": 70,
                    "time": 373.7999999999997,
                    "velocity": 0.3779527559055118,
                    "duration": 0.10000000000002274
                },
                {
                    "name": "G4",
                    "midi": 67,
                    "time": 373.89999999999975,
                    "velocity": 0.31496062992125984,
                    "duration": 0.10000000000002274
                },
                {
                    "name": "A#4",
                    "midi": 70,
                    "time": 373.9999999999998,
                    "velocity": 0.3779527559055118,
                    "duration": 0.19999999999998863
                },
                {
                    "name": "D#5",
                    "midi": 75,
                    "time": 374.39999999999975,
                    "velocity": 0.3779527559055118,
                    "duration": 0.10000000000002274
                },
                {
                    "name": "G#5",
                    "midi": 80,
                    "time": 374.4999999999998,
                    "velocity": 0.31496062992125984,
                    "duration": 0.10000000000002274
                },
                {
                    "name": "D#5",
                    "midi": 75,
                    "time": 374.5999999999998,
                    "velocity": 0.3779527559055118,
                    "duration": 0.10000000000002274
                },
                {
                    "name": "C5",
                    "midi": 72,
                    "time": 374.6999999999998,
                    "velocity": 0.31496062992125984,
                    "duration": 0.07499999999998863
                },
                {
                    "name": "C5",
                    "midi": 72,
                    "time": 374.7999999999998,
                    "velocity": 0.3779527559055118,
                    "duration": 0.10000000000002274
                },
                {
                    "name": "D#5",
                    "midi": 75,
                    "time": 374.8999999999998,
                    "velocity": 0.31496062992125984,
                    "duration": 0.10000000000002274
                },
                {
                    "name": "C5",
                    "midi": 72,
                    "time": 374.99999999999983,
                    "velocity": 0.3779527559055118,
                    "duration": 0.10000000000002274
                },
                {
                    "name": "G#4",
                    "midi": 68,
                    "time": 375.09999999999985,
                    "velocity": 0.31496062992125984,
                    "duration": 0.10000000000002274
                },
                {
                    "name": "C5",
                    "midi": 72,
                    "time": 375.1999999999999,
                    "velocity": 0.3779527559055118,
                    "duration": 0.19999999999998863
                },
                {
                    "name": "C6",
                    "midi": 84,
                    "time": 375.59999999999985,
                    "velocity": 0.5354330708661418,
                    "duration": 0.10000000000002274
                },
                {
                    "name": "D#6",
                    "midi": 87,
                    "time": 375.6999999999999,
                    "velocity": 0.44881889763779526,
                    "duration": 0.10000000000002274
                },
                {
                    "name": "C6",
                    "midi": 84,
                    "time": 375.7999999999999,
                    "velocity": 0.5354330708661418,
                    "duration": 0.10000000000002274
                },
                {
                    "name": "G#5",
                    "midi": 80,
                    "time": 375.8999999999999,
                    "velocity": 0.44881889763779526,
                    "duration": 0.07499999999998863
                },
                {
                    "name": "G#5",
                    "midi": 80,
                    "time": 375.9999999999999,
                    "velocity": 0.5354330708661418,
                    "duration": 0.10000000000002274
                },
                {
                    "name": "C6",
                    "midi": 84,
                    "time": 376.0999999999999,
                    "velocity": 0.44881889763779526,
                    "duration": 0.10000000000002274
                },
                {
                    "name": "G#5",
                    "midi": 80,
                    "time": 376.19999999999993,
                    "velocity": 0.5354330708661418,
                    "duration": 0.10000000000002274
                },
                {
                    "name": "D#5",
                    "midi": 75,
                    "time": 376.29999999999995,
                    "velocity": 0.44881889763779526,
                    "duration": 0.10000000000002274
                },
                {
                    "name": "G#5",
                    "midi": 80,
                    "time": 376.4,
                    "velocity": 0.5354330708661418,
                    "duration": 0.19999999999998863
                },
                {
                    "name": "C#6",
                    "midi": 85,
                    "time": 376.79999999999995,
                    "velocity": 0.5354330708661418,
                    "duration": 0.10000000000002274
                },
                {
                    "name": "F6",
                    "midi": 89,
                    "time": 376.9,
                    "velocity": 0.44881889763779526,
                    "duration": 0.10000000000002274
                },
                {
                    "name": "C#6",
                    "midi": 85,
                    "time": 377,
                    "velocity": 0.5354330708661418,
                    "duration": 0.10000000000002274
                },
                {
                    "name": "G#5",
                    "midi": 80,
                    "time": 377.1,
                    "velocity": 0.44881889763779526,
                    "duration": 0.07499999999998863
                },
                {
                    "name": "G#5",
                    "midi": 80,
                    "time": 377.2,
                    "velocity": 0.5354330708661418,
                    "duration": 0.10000000000002274
                },
                {
                    "name": "C#6",
                    "midi": 85,
                    "time": 377.3,
                    "velocity": 0.44881889763779526,
                    "duration": 0.10000000000002274
                },
                {
                    "name": "G#5",
                    "midi": 80,
                    "time": 377.40000000000003,
                    "velocity": 0.5354330708661418,
                    "duration": 0.10000000000002274
                },
                {
                    "name": "F5",
                    "midi": 77,
                    "time": 377.50000000000006,
                    "velocity": 0.44881889763779526,
                    "duration": 0.10000000000002274
                },
                {
                    "name": "G#5",
                    "midi": 80,
                    "time": 377.6000000000001,
                    "velocity": 0.5354330708661418,
                    "duration": 0.19999999999998863
                },
                {
                    "name": "D#6",
                    "midi": 87,
                    "time": 378.00000000000006,
                    "velocity": 0.5354330708661418,
                    "duration": 0.10000000000002274
                },
                {
                    "name": "G6",
                    "midi": 91,
                    "time": 378.1000000000001,
                    "velocity": 0.44881889763779526,
                    "duration": 0.10000000000002274
                },
                {
                    "name": "D#6",
                    "midi": 87,
                    "time": 378.2000000000001,
                    "velocity": 0.5354330708661418,
                    "duration": 0.10000000000002274
                },
                {
                    "name": "A#5",
                    "midi": 82,
                    "time": 378.3000000000001,
                    "velocity": 0.44881889763779526,
                    "duration": 0.07499999999998863
                },
                {
                    "name": "A#5",
                    "midi": 82,
                    "time": 378.4000000000001,
                    "velocity": 0.5354330708661418,
                    "duration": 0.10000000000002274
                },
                {
                    "name": "D#6",
                    "midi": 87,
                    "time": 378.5000000000001,
                    "velocity": 0.44881889763779526,
                    "duration": 0.10000000000002274
                },
                {
                    "name": "A#5",
                    "midi": 82,
                    "time": 378.60000000000014,
                    "velocity": 0.5354330708661418,
                    "duration": 0.10000000000002274
                },
                {
                    "name": "G5",
                    "midi": 79,
                    "time": 378.70000000000016,
                    "velocity": 0.44881889763779526,
                    "duration": 0.10000000000002274
                },
                {
                    "name": "A#5",
                    "midi": 82,
                    "time": 378.8000000000002,
                    "velocity": 0.5354330708661418,
                    "duration": 0.19999999999998863
                },
                {
                    "name": "D#6",
                    "midi": 87,
                    "time": 379.20000000000016,
                    "velocity": 0.6456692913385826,
                    "duration": 0.10000000000002274
                },
                {
                    "name": "G#6",
                    "midi": 92,
                    "time": 379.3000000000002,
                    "velocity": 0.5433070866141733,
                    "duration": 0.10000000000002274
                },
                {
                    "name": "D#6",
                    "midi": 87,
                    "time": 379.4000000000002,
                    "velocity": 0.6456692913385826,
                    "duration": 0.10000000000002274
                },
                {
                    "name": "C6",
                    "midi": 84,
                    "time": 379.5000000000002,
                    "velocity": 0.5433070866141733,
                    "duration": 0.07499999999998863
                },
                {
                    "name": "C6",
                    "midi": 84,
                    "time": 379.6000000000002,
                    "velocity": 0.6456692913385826,
                    "duration": 0.10000000000002274
                },
                {
                    "name": "D#6",
                    "midi": 87,
                    "time": 379.7000000000002,
                    "velocity": 0.5433070866141733,
                    "duration": 0.10000000000002274
                },
                {
                    "name": "C6",
                    "midi": 84,
                    "time": 379.80000000000024,
                    "velocity": 0.6456692913385826,
                    "duration": 0.10000000000002274
                },
                {
                    "name": "G#5",
                    "midi": 80,
                    "time": 379.90000000000026,
                    "velocity": 0.5433070866141733,
                    "duration": 0.10000000000002274
                },
                {
                    "name": "C6",
                    "midi": 84,
                    "time": 380.0000000000003,
                    "velocity": 0.6456692913385826,
                    "duration": 0.19999999999998863
                },
                {
                    "name": "D#6",
                    "midi": 87,
                    "time": 380.40000000000026,
                    "velocity": 0.6771653543307087,
                    "duration": 0.10000000000002274
                },
                {
                    "name": "G6",
                    "midi": 91,
                    "time": 380.5000000000003,
                    "velocity": 0.5669291338582677,
                    "duration": 0.10000000000002274
                },
                {
                    "name": "D#6",
                    "midi": 87,
                    "time": 380.6000000000003,
                    "velocity": 0.6771653543307087,
                    "duration": 0.10000000000002274
                },
                {
                    "name": "A#5",
                    "midi": 82,
                    "time": 380.70000000000033,
                    "velocity": 0.5669291338582677,
                    "duration": 0.07499999999998863
                },
                {
                    "name": "A#5",
                    "midi": 82,
                    "time": 380.8000000000003,
                    "velocity": 0.6771653543307087,
                    "duration": 0.10000000000002274
                },
                {
                    "name": "D#6",
                    "midi": 87,
                    "time": 380.9000000000003,
                    "velocity": 0.5669291338582677,
                    "duration": 0.10000000000002274
                },
                {
                    "name": "A#5",
                    "midi": 82,
                    "time": 381.00000000000034,
                    "velocity": 0.6771653543307087,
                    "duration": 0.10000000000002274
                },
                {
                    "name": "G5",
                    "midi": 79,
                    "time": 381.10000000000036,
                    "velocity": 0.5669291338582677,
                    "duration": 0.10000000000002274
                },
                {
                    "name": "A#5",
                    "midi": 82,
                    "time": 381.2000000000004,
                    "velocity": 0.6771653543307087,
                    "duration": 0.19999999999998863
                },
                {
                    "name": "D#6",
                    "midi": 87,
                    "time": 381.60000000000036,
                    "velocity": 0.7244094488188977,
                    "duration": 0.10000000000002274
                },
                {
                    "name": "G#6",
                    "midi": 92,
                    "time": 381.7000000000004,
                    "velocity": 0.6062992125984252,
                    "duration": 0.10000000000002274
                },
                {
                    "name": "D#6",
                    "midi": 87,
                    "time": 381.8000000000004,
                    "velocity": 0.7244094488188977,
                    "duration": 0.10000000000002274
                },
                {
                    "name": "C6",
                    "midi": 84,
                    "time": 381.90000000000043,
                    "velocity": 0.6062992125984252,
                    "duration": 0.07499999999998863
                },
                {
                    "name": "C6",
                    "midi": 84,
                    "time": 382.0000000000004,
                    "velocity": 0.7244094488188977,
                    "duration": 0.10000000000002274
                },
                {
                    "name": "D#6",
                    "midi": 87,
                    "time": 382.1000000000004,
                    "velocity": 0.6062992125984252,
                    "duration": 0.10000000000002274
                },
                {
                    "name": "C6",
                    "midi": 84,
                    "time": 382.20000000000044,
                    "velocity": 0.7244094488188977,
                    "duration": 0.10000000000002274
                },
                {
                    "name": "G#5",
                    "midi": 80,
                    "time": 382.30000000000047,
                    "velocity": 0.6062992125984252,
                    "duration": 0.10000000000002274
                },
                {
                    "name": "C6",
                    "midi": 84,
                    "time": 382.4000000000005,
                    "velocity": 0.7244094488188977,
                    "duration": 0.19999999999998863
                },
                {
                    "name": "D#6",
                    "midi": 87,
                    "time": 382.80000000000047,
                    "velocity": 0.7716535433070866,
                    "duration": 0.10000000000002274
                },
                {
                    "name": "G6",
                    "midi": 91,
                    "time": 382.9000000000005,
                    "velocity": 0.6535433070866141,
                    "duration": 0.10000000000002274
                },
                {
                    "name": "D#6",
                    "midi": 87,
                    "time": 383.0000000000005,
                    "velocity": 0.7716535433070866,
                    "duration": 0.10000000000002274
                },
                {
                    "name": "A#5",
                    "midi": 82,
                    "time": 383.10000000000053,
                    "velocity": 0.6535433070866141,
                    "duration": 0.07499999999998863
                },
                {
                    "name": "A#5",
                    "midi": 82,
                    "time": 383.2000000000005,
                    "velocity": 0.7716535433070866,
                    "duration": 0.10000000000002274
                },
                {
                    "name": "D#6",
                    "midi": 87,
                    "time": 383.3000000000005,
                    "velocity": 0.6535433070866141,
                    "duration": 0.10000000000002274
                },
                {
                    "name": "A#5",
                    "midi": 82,
                    "time": 383.40000000000055,
                    "velocity": 0.7716535433070866,
                    "duration": 0.10000000000002274
                },
                {
                    "name": "G5",
                    "midi": 79,
                    "time": 383.50000000000057,
                    "velocity": 0.6535433070866141,
                    "duration": 0.10000000000002274
                },
                {
                    "name": "A#5",
                    "midi": 82,
                    "time": 383.6000000000006,
                    "velocity": 0.7716535433070866,
                    "duration": 0.19999999999998863
                },
                {
                    "name": "D#6",
                    "midi": 87,
                    "time": 384.00000000000057,
                    "velocity": 0.7716535433070866,
                    "duration": 0.10000000000002274
                },
                {
                    "name": "G#6",
                    "midi": 92,
                    "time": 384.1000000000006,
                    "velocity": 0.6535433070866141,
                    "duration": 0.10000000000002274
                },
                {
                    "name": "D#6",
                    "midi": 87,
                    "time": 384.2000000000006,
                    "velocity": 0.7716535433070866,
                    "duration": 0.10000000000002274
                },
                {
                    "name": "C6",
                    "midi": 84,
                    "time": 384.30000000000064,
                    "velocity": 0.6535433070866141,
                    "duration": 0.07499999999998863
                },
                {
                    "name": "C6",
                    "midi": 84,
                    "time": 384.4000000000006,
                    "velocity": 0.7716535433070866,
                    "duration": 0.10000000000002274
                },
                {
                    "name": "D#6",
                    "midi": 87,
                    "time": 384.5000000000006,
                    "velocity": 0.6535433070866141,
                    "duration": 0.10000000000002274
                },
                {
                    "name": "C6",
                    "midi": 84,
                    "time": 384.60000000000065,
                    "velocity": 0.7716535433070866,
                    "duration": 0.10000000000002274
                },
                {
                    "name": "G#5",
                    "midi": 80,
                    "time": 384.70000000000067,
                    "velocity": 0.6535433070866141,
                    "duration": 0.07499999999998863
                },
                {
                    "name": "G#5",
                    "midi": 80,
                    "time": 384.80000000000064,
                    "velocity": 0.7716535433070866,
                    "duration": 0.10000000000002274
                },
                {
                    "name": "C6",
                    "midi": 84,
                    "time": 384.90000000000066,
                    "velocity": 0.6535433070866141,
                    "duration": 0.10000000000002274
                },
                {
                    "name": "G#5",
                    "midi": 80,
                    "time": 385.0000000000007,
                    "velocity": 0.7716535433070866,
                    "duration": 0.10000000000002274
                },
                {
                    "name": "D#5",
                    "midi": 75,
                    "time": 385.1000000000007,
                    "velocity": 0.6535433070866141,
                    "duration": 0.07499999999998863
                },
                {
                    "name": "D#5",
                    "midi": 75,
                    "time": 385.20000000000067,
                    "velocity": 0.7716535433070866,
                    "duration": 0.10000000000002274
                },
                {
                    "name": "G#5",
                    "midi": 80,
                    "time": 385.3000000000007,
                    "velocity": 0.6535433070866141,
                    "duration": 0.10000000000002274
                },
                {
                    "name": "D#5",
                    "midi": 75,
                    "time": 385.4000000000007,
                    "velocity": 0.7716535433070866,
                    "duration": 0.10000000000002274
                },
                {
                    "name": "C5",
                    "midi": 72,
                    "time": 385.50000000000074,
                    "velocity": 0.6535433070866141,
                    "duration": 0.07499999999998863
                },
                {
                    "name": "C5",
                    "midi": 72,
                    "time": 385.6000000000007,
                    "velocity": 0.7716535433070866,
                    "duration": 0.10000000000002274
                },
                {
                    "name": "D#5",
                    "midi": 75,
                    "time": 385.7000000000007,
                    "velocity": 0.6535433070866141,
                    "duration": 0.10000000000002274
                },
                {
                    "name": "C5",
                    "midi": 72,
                    "time": 385.80000000000075,
                    "velocity": 0.7716535433070866,
                    "duration": 0.10000000000002274
                },
                {
                    "name": "G#4",
                    "midi": 68,
                    "time": 385.9000000000008,
                    "velocity": 0.6535433070866141,
                    "duration": 0.07499999999998863
                },
                {
                    "name": "G#4",
                    "midi": 68,
                    "time": 386.00000000000074,
                    "velocity": 0.7716535433070866,
                    "duration": 0.10000000000002274
                },
                {
                    "name": "C5",
                    "midi": 72,
                    "time": 386.10000000000076,
                    "velocity": 0.6535433070866141,
                    "duration": 0.10000000000002274
                },
                {
                    "name": "G#4",
                    "midi": 68,
                    "time": 386.2000000000008,
                    "velocity": 0.7716535433070866,
                    "duration": 0.10000000000002274
                },
                {
                    "name": "D#4",
                    "midi": 63,
                    "time": 386.3000000000008,
                    "velocity": 0.6535433070866141,
                    "duration": 0.07499999999998863
                },
                {
                    "name": "D#5",
                    "midi": 75,
                    "time": 386.4000000000008,
                    "velocity": 0.7716535433070866,
                    "duration": 0.10000000000002274
                },
                {
                    "name": "G#5",
                    "midi": 80,
                    "time": 386.5000000000008,
                    "velocity": 0.6535433070866141,
                    "duration": 0.10000000000002274
                },
                {
                    "name": "D#5",
                    "midi": 75,
                    "time": 386.6000000000008,
                    "velocity": 0.7637795275590551,
                    "duration": 0.10000000000002274
                },
                {
                    "name": "C5",
                    "midi": 72,
                    "time": 386.70000000000084,
                    "velocity": 0.6456692913385826,
                    "duration": 0.07499999999998863
                },
                {
                    "name": "C5",
                    "midi": 72,
                    "time": 386.8000000000008,
                    "velocity": 0.7559055118110236,
                    "duration": 0.10000000000002274
                },
                {
                    "name": "D#5",
                    "midi": 75,
                    "time": 386.90000000000083,
                    "velocity": 0.6299212598425197,
                    "duration": 0.10000000000002274
                },
                {
                    "name": "C5",
                    "midi": 72,
                    "time": 387.00000000000085,
                    "velocity": 0.7401574803149606,
                    "duration": 0.10000000000002274
                },
                {
                    "name": "G#4",
                    "midi": 68,
                    "time": 387.1000000000009,
                    "velocity": 0.6220472440944882,
                    "duration": 0.07499999999998863
                },
                {
                    "name": "G#4",
                    "midi": 68,
                    "time": 387.20000000000084,
                    "velocity": 0.7322834645669292,
                    "duration": 0.10000000000002274
                },
                {
                    "name": "C5",
                    "midi": 72,
                    "time": 387.30000000000086,
                    "velocity": 0.6141732283464567,
                    "duration": 0.10000000000002274
                },
                {
                    "name": "G#4",
                    "midi": 68,
                    "time": 387.4000000000009,
                    "velocity": 0.7244094488188977,
                    "duration": 0.10000000000002274
                },
                {
                    "name": "D#4",
                    "midi": 63,
                    "time": 387.5000000000009,
                    "velocity": 0.5984251968503937,
                    "duration": 0.07499999999998863
                },
                {
                    "name": "D#4",
                    "midi": 63,
                    "time": 387.6000000000009,
                    "velocity": 0.7086614173228346,
                    "duration": 0.10000000000002274
                },
                {
                    "name": "G#4",
                    "midi": 68,
                    "time": 387.7000000000009,
                    "velocity": 0.5984251968503937,
                    "duration": 0.10000000000002274
                },
                {
                    "name": "D#4",
                    "midi": 63,
                    "time": 387.8000000000009,
                    "velocity": 0.7007874015748031,
                    "duration": 0.10000000000002274
                },
                {
                    "name": "C4",
                    "midi": 60,
                    "time": 387.90000000000094,
                    "velocity": 0.5826771653543307,
                    "duration": 0.07499999999998863
                },
                {
                    "name": "C4",
                    "midi": 60,
                    "time": 388.0000000000009,
                    "velocity": 0.6850393700787402,
                    "duration": 0.10000000000002274
                },
                {
                    "name": "D#4",
                    "midi": 63,
                    "time": 388.10000000000093,
                    "velocity": 0.5748031496062992,
                    "duration": 0.10000000000002274
                },
                {
                    "name": "C4",
                    "midi": 60,
                    "time": 388.20000000000095,
                    "velocity": 0.6771653543307087,
                    "duration": 0.10000000000002274
                },
                {
                    "name": "G#3",
                    "midi": 56,
                    "time": 388.300000000001,
                    "velocity": 0.5669291338582677,
                    "duration": 0.10000000000002274
                },
                {
                    "name": "D#4",
                    "midi": 63,
                    "time": 388.400000000001,
                    "velocity": 0.6692913385826772,
                    "duration": 0.10000000000002274
                },
                {
                    "name": "G#4",
                    "midi": 68,
                    "time": 388.500000000001,
                    "velocity": 0.5511811023622047,
                    "duration": 0.10000000000002274
                },
                {
                    "name": "D#4",
                    "midi": 63,
                    "time": 388.60000000000105,
                    "velocity": 0.6535433070866141,
                    "duration": 0.10000000000002274
                },
                {
                    "name": "C4",
                    "midi": 60,
                    "time": 388.70000000000107,
                    "velocity": 0.5433070866141733,
                    "duration": 0.10000000000002274
                },
                {
                    "name": "G#3",
                    "midi": 56,
                    "time": 388.8000000000011,
                    "velocity": 0.6377952755905512,
                    "duration": 0.39999999999997726
                },
                {
                    "name": "D#6",
                    "midi": 87,
                    "time": 390.0000000000011,
                    "velocity": 0.8818897637795275,
                    "duration": 0.39999999999997726
                },
                {
                    "name": "A#5",
                    "midi": 82,
                    "time": 390.0000000000011,
                    "velocity": 0.8031496062992126,
                    "duration": 0.39999999999997726
                },
                {
                    "name": "G5",
                    "midi": 79,
                    "time": 390.0000000000011,
                    "velocity": 0.8031496062992126,
                    "duration": 0.39999999999997726
                },
                {
                    "name": "D#5",
                    "midi": 75,
                    "time": 390.0000000000011,
                    "velocity": 0.8031496062992126,
                    "duration": 0.39999999999997726
                },
                {
                    "name": "C6",
                    "midi": 84,
                    "time": 391.20000000000107,
                    "velocity": 0.8503937007874016,
                    "duration": 0.39999999999997726
                },
                {
                    "name": "G#5",
                    "midi": 80,
                    "time": 391.20000000000107,
                    "velocity": 0.7716535433070866,
                    "duration": 0.39999999999997726
                },
                {
                    "name": "C5",
                    "midi": 72,
                    "time": 391.20000000000107,
                    "velocity": 0.7716535433070866,
                    "duration": 0.39999999999997726
                },
                {
                    "name": "D#5",
                    "midi": 75,
                    "time": 391.20000000000107,
                    "velocity": 0.7716535433070866,
                    "duration": 0.39999999999997726
                }
            ],
            "controlChanges": {
                "7": [
                    {
                        "number": 7,
                        "time": 0,
                        "value": 0.7874015748031497
                    }
                ],
                "10": [
                    {
                        "number": 10,
                        "time": 0,
                        "value": 0.5039370078740157
                    }
                ],
                "91": [
                    {
                        "number": 91,
                        "time": 0,
                        "value": 1
                    },
                    {
                        "number": 91,
                        "time": 14.399999999999986,
                        "value": 1
                    },
                    {
                        "number": 91,
                        "time": 16.799999999999983,
                        "value": 1
                    },
                    {
                        "number": 91,
                        "time": 21.599999999999987,
                        "value": 1
                    },
                    {
                        "number": 91,
                        "time": 24,
                        "value": 1
                    },
                    {
                        "number": 91,
                        "time": 36.00000000000005,
                        "value": 1
                    },
                    {
                        "number": 91,
                        "time": 38.400000000000084,
                        "value": 1
                    },
                    {
                        "number": 91,
                        "time": 40.80000000000012,
                        "value": 1
                    },
                    {
                        "number": 91,
                        "time": 43.20000000000015,
                        "value": 1
                    },
                    {
                        "number": 91,
                        "time": 94.80666666666698,
                        "value": 0.9921259842519685
                    },
                    {
                        "number": 91,
                        "time": 127.21333333333276,
                        "value": 1
                    },
                    {
                        "number": 91,
                        "time": 146.4133333333317,
                        "value": 1
                    },
                    {
                        "number": 91,
                        "time": 184.81333333332952,
                        "value": 1
                    },
                    {
                        "number": 91,
                        "time": 228.01333333332707,
                        "value": 1
                    },
                    {
                        "number": 91,
                        "time": 259.20666666665863,
                        "value": 1
                    },
                    {
                        "number": 91,
                        "time": 266.39999999999355,
                        "value": 1
                    },
                    {
                        "number": 91,
                        "time": 280.7999999999941,
                        "value": 1
                    },
                    {
                        "number": 91,
                        "time": 283.1999999999943,
                        "value": 1
                    },
                    {
                        "number": 91,
                        "time": 287.9999999999944,
                        "value": 1
                    },
                    {
                        "number": 91,
                        "time": 290.3999999999946,
                        "value": 1
                    },
                    {
                        "number": 91,
                        "time": 302.39999999999424,
                        "value": 1
                    },
                    {
                        "number": 91,
                        "time": 304.79999999999444,
                        "value": 1
                    },
                    {
                        "number": 91,
                        "time": 307.19999999999465,
                        "value": 1
                    },
                    {
                        "number": 91,
                        "time": 309.59999999999485,
                        "value": 1
                    },
                    {
                        "number": 91,
                        "time": 361.20666666666534,
                        "value": 0.9921259842519685
                    }
                ]
            },
            "id": 1,
            "name": "Piano right",
            "instrumentNumber": 0,
            "instrument": "acoustic grand piano",
            "instrumentFamily": "piano",
            "channelNumber": 0,
            "isPercussion": false
        },
        {
            "startTime": 0.0033333333333333335,
            "duration": 391.5999999999913,
            "length": 2449,
            "notes": [
                {
                    "name": "G#2",
                    "midi": 44,
                    "time": 0.0033333333333333335,
                    "velocity": 0.31496062992125984,
                    "duration": 0.2
                },
                {
                    "name": "G#3",
                    "midi": 56,
                    "time": 0.4,
                    "velocity": 0.2677165354330709,
                    "duration": 1.6
                },
                {
                    "name": "D#4",
                    "midi": 63,
                    "time": 0.4,
                    "velocity": 0.31496062992125984,
                    "duration": 1.6
                },
                {
                    "name": "B3",
                    "midi": 59,
                    "time": 0.4,
                    "velocity": 0.2677165354330709,
                    "duration": 1.6
                },
                {
                    "name": "A#3",
                    "midi": 58,
                    "time": 2,
                    "velocity": 0.2204724409448819,
                    "duration": 0.20000000000000018
                },
                {
                    "name": "D#3",
                    "midi": 51,
                    "time": 2,
                    "velocity": 0.2204724409448819,
                    "duration": 0.20000000000000018
                },
                {
                    "name": "D#4",
                    "midi": 63,
                    "time": 2,
                    "velocity": 0.2677165354330709,
                    "duration": 0.20000000000000018
                },
                {
                    "name": "G#2",
                    "midi": 44,
                    "time": 2.4000000000000004,
                    "velocity": 0.31496062992125984,
                    "duration": 0.19999999999999973
                },
                {
                    "name": "G#3",
                    "midi": 56,
                    "time": 2.8000000000000003,
                    "velocity": 0.2677165354330709,
                    "duration": 1.6
                },
                {
                    "name": "D#4",
                    "midi": 63,
                    "time": 2.8000000000000003,
                    "velocity": 0.31496062992125984,
                    "duration": 1.6
                },
                {
                    "name": "B3",
                    "midi": 59,
                    "time": 2.8000000000000003,
                    "velocity": 0.2677165354330709,
                    "duration": 1.6
                },
                {
                    "name": "D#3",
                    "midi": 51,
                    "time": 4.4,
                    "velocity": 0.2204724409448819,
                    "duration": 0.20000000000000018
                },
                {
                    "name": "D#4",
                    "midi": 63,
                    "time": 4.4,
                    "velocity": 0.2677165354330709,
                    "duration": 0.20000000000000018
                },
                {
                    "name": "A#3",
                    "midi": 58,
                    "time": 4.4,
                    "velocity": 0.2204724409448819,
                    "duration": 0.20000000000000018
                },
                {
                    "name": "D#4",
                    "midi": 63,
                    "time": 4.800000000000001,
                    "velocity": 0.2125984251968504,
                    "duration": 0.3799999999999999
                },
                {
                    "name": "G#3",
                    "midi": 56,
                    "time": 4.800000000000001,
                    "velocity": 0.2125984251968504,
                    "duration": 0.3799999999999999
                },
                {
                    "name": "B3",
                    "midi": 59,
                    "time": 4.800000000000001,
                    "velocity": 0.2125984251968504,
                    "duration": 0.3799999999999999
                },
                {
                    "name": "D#3",
                    "midi": 51,
                    "time": 5.2,
                    "velocity": 0.2125984251968504,
                    "duration": 0.3799999999999999
                },
                {
                    "name": "A#3",
                    "midi": 58,
                    "time": 5.2,
                    "velocity": 0.2125984251968504,
                    "duration": 0.3799999999999999
                },
                {
                    "name": "E4",
                    "midi": 64,
                    "time": 5.2,
                    "velocity": 0.2125984251968504,
                    "duration": 0.3799999999999999
                },
                {
                    "name": "A#3",
                    "midi": 58,
                    "time": 5.6,
                    "velocity": 0.2440944881889764,
                    "duration": 0.3799999999999999
                },
                {
                    "name": "E4",
                    "midi": 64,
                    "time": 5.6,
                    "velocity": 0.2440944881889764,
                    "duration": 0.3799999999999999
                },
                {
                    "name": "D#3",
                    "midi": 51,
                    "time": 5.6,
                    "velocity": 0.2440944881889764,
                    "duration": 0.3799999999999999
                },
                {
                    "name": "D#3",
                    "midi": 51,
                    "time": 5.999999999999999,
                    "velocity": 0.2440944881889764,
                    "duration": 0.3799999999999999
                },
                {
                    "name": "E4",
                    "midi": 64,
                    "time": 5.999999999999999,
                    "velocity": 0.2440944881889764,
                    "duration": 0.3799999999999999
                },
                {
                    "name": "A#3",
                    "midi": 58,
                    "time": 5.999999999999999,
                    "velocity": 0.2440944881889764,
                    "duration": 0.3799999999999999
                },
                {
                    "name": "A#3",
                    "midi": 58,
                    "time": 6.399999999999999,
                    "velocity": 0.1968503937007874,
                    "duration": 0.3799999999999999
                },
                {
                    "name": "D#3",
                    "midi": 51,
                    "time": 6.399999999999999,
                    "velocity": 0.1968503937007874,
                    "duration": 0.3799999999999999
                },
                {
                    "name": "D#4",
                    "midi": 63,
                    "time": 6.399999999999999,
                    "velocity": 0.1968503937007874,
                    "duration": 0.3799999999999999
                },
                {
                    "name": "C#4",
                    "midi": 61,
                    "time": 6.799999999999998,
                    "velocity": 0.1968503937007874,
                    "duration": 0.3799999999999999
                },
                {
                    "name": "A#3",
                    "midi": 58,
                    "time": 6.799999999999998,
                    "velocity": 0.1968503937007874,
                    "duration": 0.3799999999999999
                },
                {
                    "name": "D#3",
                    "midi": 51,
                    "time": 6.799999999999998,
                    "velocity": 0.1968503937007874,
                    "duration": 0.3799999999999999
                },
                {
                    "name": "G#2",
                    "midi": 44,
                    "time": 7.1999999999999975,
                    "velocity": 0.31496062992125984,
                    "duration": 0.20000000000000018
                },
                {
                    "name": "G#3",
                    "midi": 56,
                    "time": 7.599999999999998,
                    "velocity": 0.2677165354330709,
                    "duration": 1.5999999999999996
                },
                {
                    "name": "D#4",
                    "midi": 63,
                    "time": 7.599999999999998,
                    "velocity": 0.31496062992125984,
                    "duration": 1.5999999999999996
                },
                {
                    "name": "B3",
                    "midi": 59,
                    "time": 7.599999999999998,
                    "velocity": 0.2677165354330709,
                    "duration": 1.5999999999999996
                },
                {
                    "name": "D#3",
                    "midi": 51,
                    "time": 9.199999999999998,
                    "velocity": 0.2047244094488189,
                    "duration": 0.20000000000000107
                },
                {
                    "name": "D#4",
                    "midi": 63,
                    "time": 9.199999999999998,
                    "velocity": 0.2440944881889764,
                    "duration": 0.20000000000000107
                },
                {
                    "name": "A#3",
                    "midi": 58,
                    "time": 9.199999999999998,
                    "velocity": 0.2047244094488189,
                    "duration": 0.20000000000000107
                },
                {
                    "name": "G#2",
                    "midi": 44,
                    "time": 9.599999999999998,
                    "velocity": 0.31496062992125984,
                    "duration": 0.1999999999999993
                },
                {
                    "name": "B3",
                    "midi": 59,
                    "time": 9.999999999999996,
                    "velocity": 0.2677165354330709,
                    "duration": 1.5999999999999996
                },
                {
                    "name": "D#4",
                    "midi": 63,
                    "time": 9.999999999999996,
                    "velocity": 0.31496062992125984,
                    "duration": 1.5999999999999996
                },
                {
                    "name": "G#3",
                    "midi": 56,
                    "time": 9.999999999999996,
                    "velocity": 0.2677165354330709,
                    "duration": 1.5999999999999996
                },
                {
                    "name": "A#3",
                    "midi": 58,
                    "time": 11.599999999999996,
                    "velocity": 0.2125984251968504,
                    "duration": 0.20000000000000107
                },
                {
                    "name": "D#4",
                    "midi": 63,
                    "time": 11.599999999999996,
                    "velocity": 0.25196850393700787,
                    "duration": 0.20000000000000107
                },
                {
                    "name": "D#3",
                    "midi": 51,
                    "time": 11.599999999999996,
                    "velocity": 0.2125984251968504,
                    "duration": 0.20000000000000107
                },
                {
                    "name": "B3",
                    "midi": 59,
                    "time": 11.999999999999996,
                    "velocity": 0.2125984251968504,
                    "duration": 0.3800000000000008
                },
                {
                    "name": "G#3",
                    "midi": 56,
                    "time": 11.999999999999996,
                    "velocity": 0.2125984251968504,
                    "duration": 0.3800000000000008
                },
                {
                    "name": "D#4",
                    "midi": 63,
                    "time": 11.999999999999996,
                    "velocity": 0.2125984251968504,
                    "duration": 0.3800000000000008
                },
                {
                    "name": "E4",
                    "midi": 64,
                    "time": 12.399999999999997,
                    "velocity": 0.2125984251968504,
                    "duration": 0.3800000000000008
                },
                {
                    "name": "F#3",
                    "midi": 54,
                    "time": 12.399999999999997,
                    "velocity": 0.2125984251968504,
                    "duration": 0.3800000000000008
                },
                {
                    "name": "A#3",
                    "midi": 58,
                    "time": 12.399999999999997,
                    "velocity": 0.2125984251968504,
                    "duration": 0.3800000000000008
                },
                {
                    "name": "F#3",
                    "midi": 54,
                    "time": 12.799999999999997,
                    "velocity": 0.2440944881889764,
                    "duration": 0.3800000000000008
                },
                {
                    "name": "E4",
                    "midi": 64,
                    "time": 12.799999999999997,
                    "velocity": 0.2440944881889764,
                    "duration": 0.3800000000000008
                },
                {
                    "name": "A#3",
                    "midi": 58,
                    "time": 12.799999999999997,
                    "velocity": 0.2440944881889764,
                    "duration": 0.3800000000000008
                },
                {
                    "name": "A#3",
                    "midi": 58,
                    "time": 13.199999999999998,
                    "velocity": 0.2440944881889764,
                    "duration": 0.3800000000000008
                },
                {
                    "name": "E4",
                    "midi": 64,
                    "time": 13.199999999999998,
                    "velocity": 0.2440944881889764,
                    "duration": 0.3800000000000008
                },
                {
                    "name": "F#3",
                    "midi": 54,
                    "time": 13.199999999999998,
                    "velocity": 0.2440944881889764,
                    "duration": 0.3800000000000008
                },
                {
                    "name": "F#3",
                    "midi": 54,
                    "time": 13.599999999999998,
                    "velocity": 0.1968503937007874,
                    "duration": 0.3800000000000008
                },
                {
                    "name": "D#4",
                    "midi": 63,
                    "time": 13.599999999999998,
                    "velocity": 0.1968503937007874,
                    "duration": 0.3800000000000008
                },
                {
                    "name": "A#3",
                    "midi": 58,
                    "time": 13.599999999999998,
                    "velocity": 0.1968503937007874,
                    "duration": 0.3800000000000008
                },
                {
                    "name": "D4",
                    "midi": 62,
                    "time": 13.999999999999998,
                    "velocity": 0.1968503937007874,
                    "duration": 0.3800000000000008
                },
                {
                    "name": "F#3",
                    "midi": 54,
                    "time": 13.999999999999998,
                    "velocity": 0.1968503937007874,
                    "duration": 0.3800000000000008
                },
                {
                    "name": "A#3",
                    "midi": 58,
                    "time": 13.999999999999998,
                    "velocity": 0.1968503937007874,
                    "duration": 0.3800000000000008
                },
                {
                    "name": "B2",
                    "midi": 47,
                    "time": 14.399999999999999,
                    "velocity": 0.3937007874015748,
                    "duration": 0.1999999999999993
                },
                {
                    "name": "D#4",
                    "midi": 63,
                    "time": 14.799999999999997,
                    "velocity": 0.3937007874015748,
                    "duration": 1.6000000000000014
                },
                {
                    "name": "F#3",
                    "midi": 54,
                    "time": 14.799999999999997,
                    "velocity": 0.33070866141732286,
                    "duration": 1.6000000000000014
                },
                {
                    "name": "B3",
                    "midi": 59,
                    "time": 14.799999999999997,
                    "velocity": 0.33070866141732286,
                    "duration": 1.6000000000000014
                },
                {
                    "name": "F#3",
                    "midi": 54,
                    "time": 16.4,
                    "velocity": 0.2755905511811024,
                    "duration": 0.1999999999999993
                },
                {
                    "name": "E4",
                    "midi": 64,
                    "time": 16.4,
                    "velocity": 0.3228346456692913,
                    "duration": 0.1999999999999993
                },
                {
                    "name": "B2",
                    "midi": 47,
                    "time": 16.799999999999997,
                    "velocity": 0.3937007874015748,
                    "duration": 0.20000000000000284
                },
                {
                    "name": "B3",
                    "midi": 59,
                    "time": 17.2,
                    "velocity": 0.33070866141732286,
                    "duration": 1.6000000000000014
                },
                {
                    "name": "D#4",
                    "midi": 63,
                    "time": 17.2,
                    "velocity": 0.3937007874015748,
                    "duration": 1.6000000000000014
                },
                {
                    "name": "F#3",
                    "midi": 54,
                    "time": 17.2,
                    "velocity": 0.33070866141732286,
                    "duration": 1.6000000000000014
                },
                {
                    "name": "E4",
                    "midi": 64,
                    "time": 18.8,
                    "velocity": 0.3228346456692913,
                    "duration": 0.1999999999999993
                },
                {
                    "name": "F#3",
                    "midi": 54,
                    "time": 18.8,
                    "velocity": 0.2755905511811024,
                    "duration": 0.1999999999999993
                },
                {
                    "name": "B3",
                    "midi": 59,
                    "time": 19.2,
                    "velocity": 0.28346456692913385,
                    "duration": 0.379999999999999
                },
                {
                    "name": "D#4",
                    "midi": 63,
                    "time": 19.2,
                    "velocity": 0.28346456692913385,
                    "duration": 0.379999999999999
                },
                {
                    "name": "F#3",
                    "midi": 54,
                    "time": 19.599999999999998,
                    "velocity": 0.3228346456692913,
                    "duration": 0.379999999999999
                },
                {
                    "name": "E4",
                    "midi": 64,
                    "time": 19.599999999999998,
                    "velocity": 0.3228346456692913,
                    "duration": 0.379999999999999
                },
                {
                    "name": "F#3",
                    "midi": 54,
                    "time": 19.999999999999996,
                    "velocity": 0.3543307086614173,
                    "duration": 0.379999999999999
                },
                {
                    "name": "E4",
                    "midi": 64,
                    "time": 19.999999999999996,
                    "velocity": 0.3543307086614173,
                    "duration": 0.379999999999999
                },
                {
                    "name": "F#3",
                    "midi": 54,
                    "time": 20.399999999999995,
                    "velocity": 0.3543307086614173,
                    "duration": 0.379999999999999
                },
                {
                    "name": "E4",
                    "midi": 64,
                    "time": 20.399999999999995,
                    "velocity": 0.3543307086614173,
                    "duration": 0.379999999999999
                },
                {
                    "name": "D#4",
                    "midi": 63,
                    "time": 20.799999999999994,
                    "velocity": 0.28346456692913385,
                    "duration": 0.379999999999999
                },
                {
                    "name": "F#3",
                    "midi": 54,
                    "time": 20.799999999999994,
                    "velocity": 0.28346456692913385,
                    "duration": 0.379999999999999
                },
                {
                    "name": "C#4",
                    "midi": 61,
                    "time": 21.199999999999992,
                    "velocity": 0.28346456692913385,
                    "duration": 0.379999999999999
                },
                {
                    "name": "F#3",
                    "midi": 54,
                    "time": 21.199999999999992,
                    "velocity": 0.28346456692913385,
                    "duration": 0.379999999999999
                },
                {
                    "name": "B2",
                    "midi": 47,
                    "time": 21.59999999999999,
                    "velocity": 0.3937007874015748,
                    "duration": 0.1999999999999993
                },
                {
                    "name": "B3",
                    "midi": 59,
                    "time": 21.99999999999999,
                    "velocity": 0.33070866141732286,
                    "duration": 1.6000000000000014
                },
                {
                    "name": "D4",
                    "midi": 62,
                    "time": 21.99999999999999,
                    "velocity": 0.3937007874015748,
                    "duration": 1.6000000000000014
                },
                {
                    "name": "F#3",
                    "midi": 54,
                    "time": 21.99999999999999,
                    "velocity": 0.33070866141732286,
                    "duration": 1.6000000000000014
                },
                {
                    "name": "F#3",
                    "midi": 54,
                    "time": 23.59999999999999,
                    "velocity": 0.2677165354330709,
                    "duration": 0.1999999999999993
                },
                {
                    "name": "E4",
                    "midi": 64,
                    "time": 23.59999999999999,
                    "velocity": 0.31496062992125984,
                    "duration": 0.1999999999999993
                },
                {
                    "name": "B2",
                    "midi": 47,
                    "time": 23.99999999999999,
                    "velocity": 0.3937007874015748,
                    "duration": 0.20000000000000284
                },
                {
                    "name": "D4",
                    "midi": 62,
                    "time": 24.39999999999999,
                    "velocity": 0.3937007874015748,
                    "duration": 1.6000000000000014
                },
                {
                    "name": "F#3",
                    "midi": 54,
                    "time": 24.39999999999999,
                    "velocity": 0.33070866141732286,
                    "duration": 1.6000000000000014
                },
                {
                    "name": "B3",
                    "midi": 59,
                    "time": 24.39999999999999,
                    "velocity": 0.33070866141732286,
                    "duration": 1.6000000000000014
                },
                {
                    "name": "F#3",
                    "midi": 54,
                    "time": 25.999999999999993,
                    "velocity": 0.2755905511811024,
                    "duration": 0.1999999999999993
                },
                {
                    "name": "E4",
                    "midi": 64,
                    "time": 25.999999999999993,
                    "velocity": 0.3228346456692913,
                    "duration": 0.1999999999999993
                },
                {
                    "name": "D4",
                    "midi": 62,
                    "time": 26.39999999999999,
                    "velocity": 0.31496062992125984,
                    "duration": 0.379999999999999
                },
                {
                    "name": "B3",
                    "midi": 59,
                    "time": 26.39999999999999,
                    "velocity": 0.31496062992125984,
                    "duration": 0.379999999999999
                },
                {
                    "name": "A3",
                    "midi": 57,
                    "time": 26.79999999999999,
                    "velocity": 0.3543307086614173,
                    "duration": 0.379999999999999
                },
                {
                    "name": "G4",
                    "midi": 67,
                    "time": 26.79999999999999,
                    "velocity": 0.3543307086614173,
                    "duration": 0.379999999999999
                },
                {
                    "name": "A3",
                    "midi": 57,
                    "time": 27.19999999999999,
                    "velocity": 0.33858267716535434,
                    "duration": 0.379999999999999
                },
                {
                    "name": "G4",
                    "midi": 67,
                    "time": 27.19999999999999,
                    "velocity": 0.33858267716535434,
                    "duration": 0.379999999999999
                },
                {
                    "name": "G4",
                    "midi": 67,
                    "time": 27.599999999999987,
                    "velocity": 0.3228346456692913,
                    "duration": 0.379999999999999
                },
                {
                    "name": "A3",
                    "midi": 57,
                    "time": 27.599999999999987,
                    "velocity": 0.3228346456692913,
                    "duration": 0.379999999999999
                },
                {
                    "name": "F#4",
                    "midi": 66,
                    "time": 27.999999999999986,
                    "velocity": 0.30708661417322836,
                    "duration": 0.379999999999999
                },
                {
                    "name": "A3",
                    "midi": 57,
                    "time": 27.999999999999986,
                    "velocity": 0.30708661417322836,
                    "duration": 0.379999999999999
                },
                {
                    "name": "E4",
                    "midi": 64,
                    "time": 28.399999999999984,
                    "velocity": 0.29133858267716534,
                    "duration": 0.379999999999999
                },
                {
                    "name": "A3",
                    "midi": 57,
                    "time": 28.399999999999984,
                    "velocity": 0.29133858267716534,
                    "duration": 0.379999999999999
                },
                {
                    "name": "B3",
                    "midi": 59,
                    "time": 28.799999999999983,
                    "velocity": 0.28346456692913385,
                    "duration": 0.379999999999999
                },
                {
                    "name": "D4",
                    "midi": 62,
                    "time": 28.799999999999983,
                    "velocity": 0.28346456692913385,
                    "duration": 0.379999999999999
                },
                {
                    "name": "E4",
                    "midi": 64,
                    "time": 29.19999999999998,
                    "velocity": 0.33070866141732286,
                    "duration": 0.379999999999999
                },
                {
                    "name": "F#3",
                    "midi": 54,
                    "time": 29.19999999999998,
                    "velocity": 0.33070866141732286,
                    "duration": 0.379999999999999
                },
                {
                    "name": "E4",
                    "midi": 64,
                    "time": 29.59999999999998,
                    "velocity": 0.3228346456692913,
                    "duration": 0.379999999999999
                },
                {
                    "name": "F#3",
                    "midi": 54,
                    "time": 29.59999999999998,
                    "velocity": 0.3228346456692913,
                    "duration": 0.379999999999999
                },
                {
                    "name": "E4",
                    "midi": 64,
                    "time": 29.99999999999998,
                    "velocity": 0.3228346456692913,
                    "duration": 0.379999999999999
                },
                {
                    "name": "F#3",
                    "midi": 54,
                    "time": 29.99999999999998,
                    "velocity": 0.3228346456692913,
                    "duration": 0.379999999999999
                },
                {
                    "name": "F#3",
                    "midi": 54,
                    "time": 30.399999999999977,
                    "velocity": 0.30708661417322836,
                    "duration": 0.379999999999999
                },
                {
                    "name": "C#4",
                    "midi": 61,
                    "time": 30.399999999999977,
                    "velocity": 0.30708661417322836,
                    "duration": 0.379999999999999
                },
                {
                    "name": "F#3",
                    "midi": 54,
                    "time": 30.799999999999976,
                    "velocity": 0.29133858267716534,
                    "duration": 0.379999999999999
                },
                {
                    "name": "A#3",
                    "midi": 58,
                    "time": 30.799999999999976,
                    "velocity": 0.29133858267716534,
                    "duration": 0.379999999999999
                },
                {
                    "name": "G#3",
                    "midi": 56,
                    "time": 31.199999999999974,
                    "velocity": 0.28346456692913385,
                    "duration": 0.379999999999999
                },
                {
                    "name": "B3",
                    "midi": 59,
                    "time": 31.199999999999974,
                    "velocity": 0.28346456692913385,
                    "duration": 0.379999999999999
                },
                {
                    "name": "G#3",
                    "midi": 56,
                    "time": 31.599999999999973,
                    "velocity": 0.3464566929133858,
                    "duration": 0.379999999999999
                },
                {
                    "name": "C#4",
                    "midi": 61,
                    "time": 31.599999999999973,
                    "velocity": 0.3464566929133858,
                    "duration": 0.379999999999999
                },
                {
                    "name": "C#3",
                    "midi": 49,
                    "time": 31.599999999999973,
                    "velocity": 0.3464566929133858,
                    "duration": 0.379999999999999
                },
                {
                    "name": "C#3",
                    "midi": 49,
                    "time": 31.99999999999997,
                    "velocity": 0.33070866141732286,
                    "duration": 0.38000000000000256
                },
                {
                    "name": "C#4",
                    "midi": 61,
                    "time": 31.99999999999997,
                    "velocity": 0.33070866141732286,
                    "duration": 0.38000000000000256
                },
                {
                    "name": "G#3",
                    "midi": 56,
                    "time": 31.99999999999997,
                    "velocity": 0.33070866141732286,
                    "duration": 0.38000000000000256
                },
                {
                    "name": "C#4",
                    "midi": 61,
                    "time": 32.39999999999998,
                    "velocity": 0.3464566929133858,
                    "duration": 0.38000000000000256
                },
                {
                    "name": "C#3",
                    "midi": 49,
                    "time": 32.39999999999998,
                    "velocity": 0.3464566929133858,
                    "duration": 0.38000000000000256
                },
                {
                    "name": "G#3",
                    "midi": 56,
                    "time": 32.39999999999998,
                    "velocity": 0.3464566929133858,
                    "duration": 0.38000000000000256
                },
                {
                    "name": "D#3",
                    "midi": 51,
                    "time": 32.79999999999998,
                    "velocity": 0.33858267716535434,
                    "duration": 0.38000000000000256
                },
                {
                    "name": "G#3",
                    "midi": 56,
                    "time": 32.79999999999998,
                    "velocity": 0.33858267716535434,
                    "duration": 0.38000000000000256
                },
                {
                    "name": "B3",
                    "midi": 59,
                    "time": 32.79999999999998,
                    "velocity": 0.33858267716535434,
                    "duration": 0.38000000000000256
                },
                {
                    "name": "E3",
                    "midi": 52,
                    "time": 33.19999999999999,
                    "velocity": 0.33070866141732286,
                    "duration": 0.38000000000000256
                },
                {
                    "name": "G#3",
                    "midi": 56,
                    "time": 33.19999999999999,
                    "velocity": 0.33070866141732286,
                    "duration": 0.38000000000000256
                },
                {
                    "name": "G#3",
                    "midi": 56,
                    "time": 33.599999999999994,
                    "velocity": 0.3228346456692913,
                    "duration": 0.38000000000000256
                },
                {
                    "name": "D#3",
                    "midi": 51,
                    "time": 33.599999999999994,
                    "velocity": 0.3228346456692913,
                    "duration": 0.38000000000000256
                },
                {
                    "name": "B3",
                    "midi": 59,
                    "time": 33.599999999999994,
                    "velocity": 0.3228346456692913,
                    "duration": 0.38000000000000256
                },
                {
                    "name": "G#3",
                    "midi": 56,
                    "time": 34,
                    "velocity": 0.31496062992125984,
                    "duration": 0.38000000000000256
                },
                {
                    "name": "B3",
                    "midi": 59,
                    "time": 34,
                    "velocity": 0.31496062992125984,
                    "duration": 0.38000000000000256
                },
                {
                    "name": "D#3",
                    "midi": 51,
                    "time": 34,
                    "velocity": 0.31496062992125984,
                    "duration": 0.38000000000000256
                },
                {
                    "name": "D#3",
                    "midi": 51,
                    "time": 34.400000000000006,
                    "velocity": 0.31496062992125984,
                    "duration": 0.38000000000000256
                },
                {
                    "name": "B3",
                    "midi": 59,
                    "time": 34.400000000000006,
                    "velocity": 0.31496062992125984,
                    "duration": 0.38000000000000256
                },
                {
                    "name": "G#3",
                    "midi": 56,
                    "time": 34.400000000000006,
                    "velocity": 0.31496062992125984,
                    "duration": 0.38000000000000256
                },
                {
                    "name": "G3",
                    "midi": 55,
                    "time": 34.80000000000001,
                    "velocity": 0.2440944881889764,
                    "duration": 0.38000000000000256
                },
                {
                    "name": "D#3",
                    "midi": 51,
                    "time": 34.80000000000001,
                    "velocity": 0.2440944881889764,
                    "duration": 0.38000000000000256
                },
                {
                    "name": "A#3",
                    "midi": 58,
                    "time": 34.80000000000001,
                    "velocity": 0.2440944881889764,
                    "duration": 0.38000000000000256
                },
                {
                    "name": "D#3",
                    "midi": 51,
                    "time": 35.20000000000002,
                    "velocity": 0.23622047244094488,
                    "duration": 0.38000000000000256
                },
                {
                    "name": "A#3",
                    "midi": 58,
                    "time": 35.20000000000002,
                    "velocity": 0.23622047244094488,
                    "duration": 0.38000000000000256
                },
                {
                    "name": "G3",
                    "midi": 55,
                    "time": 35.20000000000002,
                    "velocity": 0.23622047244094488,
                    "duration": 0.38000000000000256
                },
                {
                    "name": "G3",
                    "midi": 55,
                    "time": 35.60000000000002,
                    "velocity": 0.2283464566929134,
                    "duration": 0.38000000000000256
                },
                {
                    "name": "A#3",
                    "midi": 58,
                    "time": 35.60000000000002,
                    "velocity": 0.2283464566929134,
                    "duration": 0.38000000000000256
                },
                {
                    "name": "D#3",
                    "midi": 51,
                    "time": 35.60000000000002,
                    "velocity": 0.2283464566929134,
                    "duration": 0.38000000000000256
                },
                {
                    "name": "G#2",
                    "midi": 44,
                    "time": 36.00000000000003,
                    "velocity": 0.31496062992125984,
                    "duration": 0.3999999999999986
                },
                {
                    "name": "C4",
                    "midi": 60,
                    "time": 36.40000000000003,
                    "velocity": 0.31496062992125984,
                    "duration": 1.6000000000000014
                },
                {
                    "name": "G#3",
                    "midi": 56,
                    "time": 36.40000000000003,
                    "velocity": 0.2677165354330709,
                    "duration": 1.6000000000000014
                },
                {
                    "name": "D#3",
                    "midi": 51,
                    "time": 36.40000000000003,
                    "velocity": 0.2677165354330709,
                    "duration": 1.6000000000000014
                },
                {
                    "name": "C#4",
                    "midi": 61,
                    "time": 38.00000000000003,
                    "velocity": 0.25196850393700787,
                    "duration": 0.20000000000000284
                },
                {
                    "name": "D#3",
                    "midi": 51,
                    "time": 38.00000000000003,
                    "velocity": 0.2125984251968504,
                    "duration": 0.20000000000000284
                },
                {
                    "name": "G#2",
                    "midi": 44,
                    "time": 38.400000000000034,
                    "velocity": 0.31496062992125984,
                    "duration": 0.3999999999999986
                },
                {
                    "name": "D#3",
                    "midi": 51,
                    "time": 38.80000000000003,
                    "velocity": 0.2677165354330709,
                    "duration": 1.6000000000000014
                },
                {
                    "name": "G#3",
                    "midi": 56,
                    "time": 38.80000000000003,
                    "velocity": 0.2677165354330709,
                    "duration": 1.6000000000000014
                },
                {
                    "name": "C4",
                    "midi": 60,
                    "time": 38.80000000000003,
                    "velocity": 0.31496062992125984,
                    "duration": 1.6000000000000014
                },
                {
                    "name": "D#3",
                    "midi": 51,
                    "time": 40.400000000000034,
                    "velocity": 0.2204724409448819,
                    "duration": 0.20000000000000284
                },
                {
                    "name": "C#4",
                    "midi": 61,
                    "time": 40.400000000000034,
                    "velocity": 0.2677165354330709,
                    "duration": 0.20000000000000284
                },
                {
                    "name": "G#2",
                    "midi": 44,
                    "time": 40.80000000000004,
                    "velocity": 0.3543307086614173,
                    "duration": 0.3999999999999986
                },
                {
                    "name": "D#3",
                    "midi": 51,
                    "time": 41.20000000000004,
                    "velocity": 0.3228346456692913,
                    "duration": 1.6000000000000014
                },
                {
                    "name": "G#3",
                    "midi": 56,
                    "time": 41.20000000000004,
                    "velocity": 0.3228346456692913,
                    "duration": 1.6000000000000014
                },
                {
                    "name": "C4",
                    "midi": 60,
                    "time": 41.20000000000004,
                    "velocity": 0.3858267716535433,
                    "duration": 1.6000000000000014
                },
                {
                    "name": "D#3",
                    "midi": 51,
                    "time": 42.80000000000004,
                    "velocity": 0.25984251968503935,
                    "duration": 0.19999999999999574
                },
                {
                    "name": "C#4",
                    "midi": 61,
                    "time": 42.80000000000004,
                    "velocity": 0.30708661417322836,
                    "duration": 0.19999999999999574
                },
                {
                    "name": "G#2",
                    "midi": 44,
                    "time": 43.20000000000004,
                    "velocity": 0.3937007874015748,
                    "duration": 0.3999999999999986
                },
                {
                    "name": "C4",
                    "midi": 60,
                    "time": 43.60000000000004,
                    "velocity": 0.3779527559055118,
                    "duration": 1.6000000000000014
                },
                {
                    "name": "D#3",
                    "midi": 51,
                    "time": 43.60000000000004,
                    "velocity": 0.31496062992125984,
                    "duration": 1.6000000000000014
                },
                {
                    "name": "G#3",
                    "midi": 56,
                    "time": 43.60000000000004,
                    "velocity": 0.31496062992125984,
                    "duration": 1.6000000000000014
                },
                {
                    "name": "C#4",
                    "midi": 61,
                    "time": 45.20000000000004,
                    "velocity": 0.2992125984251969,
                    "duration": 0.20000000000000284
                },
                {
                    "name": "D#3",
                    "midi": 51,
                    "time": 45.20000000000004,
                    "velocity": 0.25196850393700787,
                    "duration": 0.20000000000000284
                },
                {
                    "name": "G#2",
                    "midi": 44,
                    "time": 45.600000000000044,
                    "velocity": 0.31496062992125984,
                    "duration": 0.3999999999999986
                },
                {
                    "name": "C4",
                    "midi": 60,
                    "time": 46.00000000000004,
                    "velocity": 0.25984251968503935,
                    "duration": 0.7999999999999972
                },
                {
                    "name": "G#3",
                    "midi": 56,
                    "time": 46.00000000000004,
                    "velocity": 0.2125984251968504,
                    "duration": 0.7999999999999972
                },
                {
                    "name": "F#3",
                    "midi": 54,
                    "time": 46.00000000000004,
                    "velocity": 0.2125984251968504,
                    "duration": 0.7999999999999972
                },
                {
                    "name": "C#3",
                    "midi": 49,
                    "time": 46.80000000000004,
                    "velocity": 0.31496062992125984,
                    "duration": 0.3999999999999986
                },
                {
                    "name": "C#4",
                    "midi": 61,
                    "time": 47.20000000000004,
                    "velocity": 0.2283464566929134,
                    "duration": 0.7999999999999972
                },
                {
                    "name": "F3",
                    "midi": 53,
                    "time": 47.20000000000004,
                    "velocity": 0.1968503937007874,
                    "duration": 0.7999999999999972
                },
                {
                    "name": "G#3",
                    "midi": 56,
                    "time": 47.20000000000004,
                    "velocity": 0.1968503937007874,
                    "duration": 0.7999999999999972
                },
                {
                    "name": "D#2",
                    "midi": 39,
                    "time": 48.000000000000036,
                    "velocity": 0.31496062992125984,
                    "duration": 0.4000000000000057
                },
                {
                    "name": "D#3",
                    "midi": 51,
                    "time": 48.40000000000004,
                    "velocity": 0.2283464566929134,
                    "duration": 0.7999999999999972
                },
                {
                    "name": "A#3",
                    "midi": 58,
                    "time": 48.40000000000004,
                    "velocity": 0.2283464566929134,
                    "duration": 0.7999999999999972
                },
                {
                    "name": "C#4",
                    "midi": 61,
                    "time": 48.40000000000004,
                    "velocity": 0.2755905511811024,
                    "duration": 0.7999999999999972
                },
                {
                    "name": "G#2",
                    "midi": 44,
                    "time": 49.20000000000004,
                    "velocity": 0.31496062992125984,
                    "duration": 0.3999999999999986
                },
                {
                    "name": "G#3",
                    "midi": 56,
                    "time": 49.60000000000004,
                    "velocity": 0.2440944881889764,
                    "duration": 0.7999999999999972
                },
                {
                    "name": "D#3",
                    "midi": 51,
                    "time": 49.60000000000004,
                    "velocity": 0.2440944881889764,
                    "duration": 0.7999999999999972
                },
                {
                    "name": "C4",
                    "midi": 60,
                    "time": 49.60000000000004,
                    "velocity": 0.29133858267716534,
                    "duration": 0.7999999999999972
                },
                {
                    "name": "G#2",
                    "midi": 44,
                    "time": 50.400000000000034,
                    "velocity": 0.4094488188976378,
                    "duration": 0.3999999999999986
                },
                {
                    "name": "C4",
                    "midi": 60,
                    "time": 50.80000000000003,
                    "velocity": 0.33858267716535434,
                    "duration": 0.7999999999999972
                },
                {
                    "name": "F#3",
                    "midi": 54,
                    "time": 50.80000000000003,
                    "velocity": 0.2755905511811024,
                    "duration": 0.7999999999999972
                },
                {
                    "name": "G#3",
                    "midi": 56,
                    "time": 50.80000000000003,
                    "velocity": 0.2755905511811024,
                    "duration": 0.7999999999999972
                },
                {
                    "name": "C#3",
                    "midi": 49,
                    "time": 51.60000000000003,
                    "velocity": 0.47244094488188976,
                    "duration": 0.3999999999999986
                },
                {
                    "name": "C#4",
                    "midi": 61,
                    "time": 52.00000000000003,
                    "velocity": 0.4094488188976378,
                    "duration": 0.7999999999999972
                },
                {
                    "name": "F3",
                    "midi": 53,
                    "time": 52.00000000000003,
                    "velocity": 0.3464566929133858,
                    "duration": 0.7999999999999972
                },
                {
                    "name": "G#3",
                    "midi": 56,
                    "time": 52.00000000000003,
                    "velocity": 0.3464566929133858,
                    "duration": 0.7999999999999972
                },
                {
                    "name": "D#2",
                    "midi": 39,
                    "time": 52.800000000000026,
                    "velocity": 0.5511811023622047,
                    "duration": 0.4000000000000057
                },
                {
                    "name": "A#3",
                    "midi": 58,
                    "time": 53.20000000000003,
                    "velocity": 0.4015748031496063,
                    "duration": 0.7999999999999972
                },
                {
                    "name": "D#3",
                    "midi": 51,
                    "time": 53.20000000000003,
                    "velocity": 0.4015748031496063,
                    "duration": 0.7999999999999972
                },
                {
                    "name": "C#4",
                    "midi": 61,
                    "time": 53.20000000000003,
                    "velocity": 0.48031496062992124,
                    "duration": 0.7999999999999972
                },
                {
                    "name": "G#2",
                    "midi": 44,
                    "time": 54.00000000000003,
                    "velocity": 0.5984251968503937,
                    "duration": 0.3999999999999986
                },
                {
                    "name": "G#3",
                    "midi": 56,
                    "time": 54.40000000000003,
                    "velocity": 0.41732283464566927,
                    "duration": 0.7999999999999972
                },
                {
                    "name": "C4",
                    "midi": 60,
                    "time": 54.40000000000003,
                    "velocity": 0.49606299212598426,
                    "duration": 0.7999999999999972
                },
                {
                    "name": "D#3",
                    "midi": 51,
                    "time": 54.40000000000003,
                    "velocity": 0.41732283464566927,
                    "duration": 0.7999999999999972
                },
                {
                    "name": "G#2",
                    "midi": 44,
                    "time": 55.200000000000024,
                    "velocity": 0.2677165354330709,
                    "duration": 1.2000000000000028
                },
                {
                    "name": "D#3",
                    "midi": 51,
                    "time": 55.200000000000024,
                    "velocity": 0.3937007874015748,
                    "duration": 0.3999999999999986
                },
                {
                    "name": "G#3",
                    "midi": 56,
                    "time": 55.60000000000002,
                    "velocity": 0.47244094488188976,
                    "duration": 0.6000000000000014
                },
                {
                    "name": "G3",
                    "midi": 55,
                    "time": 56.200000000000024,
                    "velocity": 0.3937007874015748,
                    "duration": 0.20000000000000284
                },
                {
                    "name": "F3",
                    "midi": 53,
                    "time": 56.40000000000003,
                    "velocity": 0.3937007874015748,
                    "duration": 0.3999999999999986
                },
                {
                    "name": "C#3",
                    "midi": 49,
                    "time": 56.40000000000003,
                    "velocity": 0.2677165354330709,
                    "duration": 1.2000000000000028
                },
                {
                    "name": "C#4",
                    "midi": 61,
                    "time": 56.800000000000026,
                    "velocity": 0.47244094488188976,
                    "duration": 0.6000000000000014
                },
                {
                    "name": "C4",
                    "midi": 60,
                    "time": 57.40000000000003,
                    "velocity": 0.3937007874015748,
                    "duration": 0.20000000000000284
                },
                {
                    "name": "A#3",
                    "midi": 58,
                    "time": 57.60000000000003,
                    "velocity": 0.3937007874015748,
                    "duration": 0.3999999999999986
                },
                {
                    "name": "D#3",
                    "midi": 51,
                    "time": 57.60000000000003,
                    "velocity": 0.2677165354330709,
                    "duration": 1.2000000000000028
                },
                {
                    "name": "D#4",
                    "midi": 63,
                    "time": 58.00000000000003,
                    "velocity": 0.47244094488188976,
                    "duration": 0.6000000000000014
                },
                {
                    "name": "C#4",
                    "midi": 61,
                    "time": 58.60000000000003,
                    "velocity": 0.3937007874015748,
                    "duration": 0.20000000000000284
                },
                {
                    "name": "G#3",
                    "midi": 56,
                    "time": 58.80000000000003,
                    "velocity": 0.2677165354330709,
                    "duration": 1.1999999999999886
                },
                {
                    "name": "C4",
                    "midi": 60,
                    "time": 58.80000000000003,
                    "velocity": 0.3937007874015748,
                    "duration": 0.3999999999999915
                },
                {
                    "name": "D#4",
                    "midi": 63,
                    "time": 59.200000000000024,
                    "velocity": 0.47244094488188976,
                    "duration": 0.7999999999999972
                },
                {
                    "name": "G#2",
                    "midi": 44,
                    "time": 60.00000000000002,
                    "velocity": 0.4330708661417323,
                    "duration": 1.2000000000000028
                },
                {
                    "name": "D#3",
                    "midi": 51,
                    "time": 60.00000000000002,
                    "velocity": 0.5118110236220472,
                    "duration": 0.3999999999999986
                },
                {
                    "name": "G#3",
                    "midi": 56,
                    "time": 60.40000000000002,
                    "velocity": 0.5748031496062992,
                    "duration": 0.6000000000000014
                },
                {
                    "name": "G3",
                    "midi": 55,
                    "time": 61.00000000000002,
                    "velocity": 0.47244094488188976,
                    "duration": 0.20000000000000284
                },
                {
                    "name": "F3",
                    "midi": 53,
                    "time": 61.200000000000024,
                    "velocity": 0.5275590551181102,
                    "duration": 0.4000000000000057
                },
                {
                    "name": "C#3",
                    "midi": 49,
                    "time": 61.200000000000024,
                    "velocity": 0.4409448818897638,
                    "duration": 1.20000000000001
                },
                {
                    "name": "C#4",
                    "midi": 61,
                    "time": 61.60000000000003,
                    "velocity": 0.5984251968503937,
                    "duration": 0.6000000000000014
                },
                {
                    "name": "C4",
                    "midi": 60,
                    "time": 62.20000000000003,
                    "velocity": 0.5196850393700787,
                    "duration": 0.20000000000000284
                },
                {
                    "name": "A#3",
                    "midi": 58,
                    "time": 62.400000000000034,
                    "velocity": 0.5590551181102362,
                    "duration": 0.4000000000000057
                },
                {
                    "name": "D#3",
                    "midi": 51,
                    "time": 62.400000000000034,
                    "velocity": 0.47244094488188976,
                    "duration": 1.20000000000001
                },
                {
                    "name": "D#4",
                    "midi": 63,
                    "time": 62.80000000000004,
                    "velocity": 0.6220472440944882,
                    "duration": 0.6000000000000014
                },
                {
                    "name": "C#4",
                    "midi": 61,
                    "time": 63.40000000000004,
                    "velocity": 0.5433070866141733,
                    "duration": 0.20000000000000284
                },
                {
                    "name": "G#3",
                    "midi": 56,
                    "time": 63.600000000000044,
                    "velocity": 0.48031496062992124,
                    "duration": 1.1999999999999957
                },
                {
                    "name": "C4",
                    "midi": 60,
                    "time": 63.600000000000044,
                    "velocity": 0.5748031496062992,
                    "duration": 0.3999999999999986
                },
                {
                    "name": "D#4",
                    "midi": 63,
                    "time": 64.00000000000004,
                    "velocity": 0.6456692913385826,
                    "duration": 0.5999999999999943
                },
                {
                    "name": "C4",
                    "midi": 60,
                    "time": 64.60000000000004,
                    "velocity": 0.5669291338582677,
                    "duration": 0.20000000000000284
                },
                {
                    "name": "A#3",
                    "midi": 58,
                    "time": 64.80000000000004,
                    "velocity": 0.6062992125984252,
                    "duration": 0.4000000000000057
                },
                {
                    "name": "D#3",
                    "midi": 51,
                    "time": 64.80000000000004,
                    "velocity": 0.5196850393700787,
                    "duration": 1.2000000000000028
                },
                {
                    "name": "D#4",
                    "midi": 63,
                    "time": 65.20000000000005,
                    "velocity": 0.6614173228346457,
                    "duration": 0.5999999999999943
                },
                {
                    "name": "C#4",
                    "midi": 61,
                    "time": 65.80000000000004,
                    "velocity": 0.6220472440944882,
                    "duration": 0.20000000000000284
                },
                {
                    "name": "G#3",
                    "midi": 56,
                    "time": 66.00000000000004,
                    "velocity": 0.5196850393700787,
                    "duration": 1.2000000000000028
                },
                {
                    "name": "C4",
                    "midi": 60,
                    "time": 66.00000000000004,
                    "velocity": 0.6141732283464567,
                    "duration": 0.4000000000000057
                },
                {
                    "name": "D#4",
                    "midi": 63,
                    "time": 66.40000000000005,
                    "velocity": 0.6535433070866141,
                    "duration": 0.5999999999999943
                },
                {
                    "name": "C4",
                    "midi": 60,
                    "time": 67.00000000000004,
                    "velocity": 0.5984251968503937,
                    "duration": 0.20000000000000284
                },
                {
                    "name": "C4",
                    "midi": 60,
                    "time": 67.20000000000005,
                    "velocity": 0.5984251968503937,
                    "duration": 0.3999999999999915
                },
                {
                    "name": "F3",
                    "midi": 53,
                    "time": 67.20000000000005,
                    "velocity": 0.49606299212598426,
                    "duration": 1.1999999999999886
                },
                {
                    "name": "F4",
                    "midi": 65,
                    "time": 67.60000000000004,
                    "velocity": 0.6456692913385826,
                    "duration": 0.5999999999999943
                },
                {
                    "name": "D#4",
                    "midi": 63,
                    "time": 68.20000000000003,
                    "velocity": 0.5669291338582677,
                    "duration": 0.20000000000000284
                },
                {
                    "name": "A#3",
                    "midi": 58,
                    "time": 68.40000000000003,
                    "velocity": 0.5039370078740157,
                    "duration": 1.1999999999999886
                },
                {
                    "name": "C#4",
                    "midi": 61,
                    "time": 68.40000000000003,
                    "velocity": 0.5984251968503937,
                    "duration": 0.3999999999999915
                },
                {
                    "name": "F4",
                    "midi": 65,
                    "time": 68.80000000000003,
                    "velocity": 0.6456692913385826,
                    "duration": 0.5999999999999943
                },
                {
                    "name": "C#4",
                    "midi": 61,
                    "time": 69.40000000000002,
                    "velocity": 0.5669291338582677,
                    "duration": 0.20000000000000284
                },
                {
                    "name": "F3",
                    "midi": 53,
                    "time": 69.60000000000002,
                    "velocity": 0.4881889763779528,
                    "duration": 1.1999999999999886
                },
                {
                    "name": "C4",
                    "midi": 60,
                    "time": 69.60000000000002,
                    "velocity": 0.5905511811023622,
                    "duration": 0.3999999999999915
                },
                {
                    "name": "F4",
                    "midi": 65,
                    "time": 70.00000000000001,
                    "velocity": 0.6377952755905512,
                    "duration": 0.5999999999999943
                },
                {
                    "name": "D#4",
                    "midi": 63,
                    "time": 70.60000000000001,
                    "velocity": 0.5669291338582677,
                    "duration": 0.20000000000000284
                },
                {
                    "name": "A#3",
                    "midi": 58,
                    "time": 70.80000000000001,
                    "velocity": 0.4645669291338583,
                    "duration": 1.2000000000000028
                },
                {
                    "name": "C#4",
                    "midi": 61,
                    "time": 70.80000000000001,
                    "velocity": 0.6062992125984252,
                    "duration": 0.4000000000000057
                },
                {
                    "name": "F4",
                    "midi": 65,
                    "time": 71.20000000000002,
                    "velocity": 0.6377952755905512,
                    "duration": 0.5999999999999943
                },
                {
                    "name": "C#4",
                    "midi": 61,
                    "time": 71.80000000000001,
                    "velocity": 0.5748031496062992,
                    "duration": 0.20000000000000284
                },
                {
                    "name": "D#4",
                    "midi": 63,
                    "time": 72.00000000000001,
                    "velocity": 0.6062992125984252,
                    "duration": 0.3999999999999915
                },
                {
                    "name": "G#3",
                    "midi": 56,
                    "time": 72.00000000000001,
                    "velocity": 0.4645669291338583,
                    "duration": 1.1999999999999886
                },
                {
                    "name": "G#4",
                    "midi": 68,
                    "time": 72.4,
                    "velocity": 0.6377952755905512,
                    "duration": 0.5999999999999943
                },
                {
                    "name": "F#4",
                    "midi": 66,
                    "time": 73,
                    "velocity": 0.5748031496062992,
                    "duration": 0.20000000000000284
                },
                {
                    "name": "C#4",
                    "midi": 61,
                    "time": 73.2,
                    "velocity": 0.5275590551181102,
                    "duration": 1.1999999999999886
                },
                {
                    "name": "F4",
                    "midi": 65,
                    "time": 73.2,
                    "velocity": 0.6299212598425197,
                    "duration": 0.3999999999999915
                },
                {
                    "name": "G#4",
                    "midi": 68,
                    "time": 73.6,
                    "velocity": 0.6535433070866141,
                    "duration": 0.5999999999999943
                },
                {
                    "name": "F4",
                    "midi": 65,
                    "time": 74.19999999999999,
                    "velocity": 0.5905511811023622,
                    "duration": 0.20000000000000284
                },
                {
                    "name": "D#4",
                    "midi": 63,
                    "time": 74.39999999999999,
                    "velocity": 0.6141732283464567,
                    "duration": 0.3999999999999915
                },
                {
                    "name": "G#3",
                    "midi": 56,
                    "time": 74.39999999999999,
                    "velocity": 0.5196850393700787,
                    "duration": 1.1999999999999886
                },
                {
                    "name": "G#4",
                    "midi": 68,
                    "time": 74.79999999999998,
                    "velocity": 0.6614173228346457,
                    "duration": 0.5999999999999943
                },
                {
                    "name": "F#4",
                    "midi": 66,
                    "time": 75.39999999999998,
                    "velocity": 0.5984251968503937,
                    "duration": 0.20000000000000284
                },
                {
                    "name": "C#4",
                    "midi": 61,
                    "time": 75.59999999999998,
                    "velocity": 0.6692913385826772,
                    "duration": 0.4000000000000057
                },
                {
                    "name": "F4",
                    "midi": 65,
                    "time": 75.59999999999998,
                    "velocity": 0.6692913385826772,
                    "duration": 0.4000000000000057
                },
                {
                    "name": "G#4",
                    "midi": 68,
                    "time": 77.99999999999999,
                    "velocity": 0.6614173228346457,
                    "duration": 0.20000000000000284
                },
                {
                    "name": "F4",
                    "midi": 65,
                    "time": 78.39999999999999,
                    "velocity": 0.6220472440944882,
                    "duration": 0.20000000000000284
                },
                {
                    "name": "C#4",
                    "midi": 61,
                    "time": 78.8,
                    "velocity": 0.6220472440944882,
                    "duration": 0.20000000000000284
                },
                {
                    "name": "G#3",
                    "midi": 56,
                    "time": 79.2,
                    "velocity": 0.6456692913385826,
                    "duration": 0.20000000000000284
                },
                {
                    "name": "F3",
                    "midi": 53,
                    "time": 79.60000000000001,
                    "velocity": 0.6220472440944882,
                    "duration": 0.20000000000000284
                },
                {
                    "name": "C#3",
                    "midi": 49,
                    "time": 80.00000000000001,
                    "velocity": 0.6220472440944882,
                    "duration": 0.20000000000000284
                },
                {
                    "name": "E3",
                    "midi": 52,
                    "time": 80.40000000000002,
                    "velocity": 0.5354330708661418,
                    "duration": 0.792500000000004
                },
                {
                    "name": "A#2",
                    "midi": 46,
                    "time": 80.40000000000002,
                    "velocity": 0.4566929133858268,
                    "duration": 0.792500000000004
                },
                {
                    "name": "C#3",
                    "midi": 49,
                    "time": 80.40000000000002,
                    "velocity": 0.4566929133858268,
                    "duration": 0.792500000000004
                },
                {
                    "name": "G2",
                    "midi": 43,
                    "time": 80.40000000000002,
                    "velocity": 0.4566929133858268,
                    "duration": 0.792500000000004
                },
                {
                    "name": "E3",
                    "midi": 52,
                    "time": 81.20000000000002,
                    "velocity": 0.5354330708661418,
                    "duration": 0.7924999999999898
                },
                {
                    "name": "A#2",
                    "midi": 46,
                    "time": 81.20000000000002,
                    "velocity": 0.4566929133858268,
                    "duration": 0.7924999999999898
                },
                {
                    "name": "G2",
                    "midi": 43,
                    "time": 81.20000000000002,
                    "velocity": 0.4566929133858268,
                    "duration": 0.7924999999999898
                },
                {
                    "name": "C#3",
                    "midi": 49,
                    "time": 81.20000000000002,
                    "velocity": 0.4566929133858268,
                    "duration": 0.7924999999999898
                },
                {
                    "name": "E3",
                    "midi": 52,
                    "time": 82,
                    "velocity": 0.5354330708661418,
                    "duration": 0.792500000000004
                },
                {
                    "name": "A#2",
                    "midi": 46,
                    "time": 82,
                    "velocity": 0.4566929133858268,
                    "duration": 0.792500000000004
                },
                {
                    "name": "C#3",
                    "midi": 49,
                    "time": 82,
                    "velocity": 0.4566929133858268,
                    "duration": 0.792500000000004
                },
                {
                    "name": "G2",
                    "midi": 43,
                    "time": 82,
                    "velocity": 0.4566929133858268,
                    "duration": 0.792500000000004
                },
                {
                    "name": "D#3",
                    "midi": 51,
                    "time": 82.8,
                    "velocity": 0.48031496062992124,
                    "duration": 0.7924999999999898
                },
                {
                    "name": "A#2",
                    "midi": 46,
                    "time": 82.8,
                    "velocity": 0.4015748031496063,
                    "duration": 0.7924999999999898
                },
                {
                    "name": "C#3",
                    "midi": 49,
                    "time": 82.8,
                    "velocity": 0.4015748031496063,
                    "duration": 0.7924999999999898
                },
                {
                    "name": "G2",
                    "midi": 43,
                    "time": 82.8,
                    "velocity": 0.4015748031496063,
                    "duration": 0.7924999999999898
                },
                {
                    "name": "D#3",
                    "midi": 51,
                    "time": 83.59999999999998,
                    "velocity": 0.3937007874015748,
                    "duration": 0.7924999999999898
                },
                {
                    "name": "A#2",
                    "midi": 46,
                    "time": 83.59999999999998,
                    "velocity": 0.33070866141732286,
                    "duration": 0.7924999999999898
                },
                {
                    "name": "G2",
                    "midi": 43,
                    "time": 83.59999999999998,
                    "velocity": 0.33070866141732286,
                    "duration": 0.7924999999999898
                },
                {
                    "name": "C#3",
                    "midi": 49,
                    "time": 83.59999999999998,
                    "velocity": 0.33070866141732286,
                    "duration": 0.7924999999999898
                },
                {
                    "name": "D#3",
                    "midi": 51,
                    "time": 84.39999999999996,
                    "velocity": 0.3543307086614173,
                    "duration": 0.8000000000000114
                },
                {
                    "name": "A#2",
                    "midi": 46,
                    "time": 84.39999999999996,
                    "velocity": 0.2992125984251969,
                    "duration": 0.8000000000000114
                },
                {
                    "name": "C#3",
                    "midi": 49,
                    "time": 84.39999999999996,
                    "velocity": 0.2992125984251969,
                    "duration": 0.8000000000000114
                },
                {
                    "name": "G2",
                    "midi": 43,
                    "time": 84.39999999999996,
                    "velocity": 0.2992125984251969,
                    "duration": 0.8000000000000114
                },
                {
                    "name": "G#2",
                    "midi": 44,
                    "time": 85.19999999999997,
                    "velocity": 0.31496062992125984,
                    "duration": 0.7999999999999972
                },
                {
                    "name": "C3",
                    "midi": 48,
                    "time": 85.99999999999997,
                    "velocity": 0.31496062992125984,
                    "duration": 0.4000000000000057
                },
                {
                    "name": "C#3",
                    "midi": 49,
                    "time": 86.39999999999998,
                    "velocity": 0.31496062992125984,
                    "duration": 0.3999999999999915
                },
                {
                    "name": "A#2",
                    "midi": 46,
                    "time": 86.79999999999997,
                    "velocity": 0.31496062992125984,
                    "duration": 0.4000000000000057
                },
                {
                    "name": "C#3",
                    "midi": 49,
                    "time": 87.19999999999997,
                    "velocity": 0.31496062992125984,
                    "duration": 0.4000000000000057
                },
                {
                    "name": "D#3",
                    "midi": 51,
                    "time": 87.59999999999998,
                    "velocity": 0.31496062992125984,
                    "duration": 1.200000000000017
                },
                {
                    "name": "D#2",
                    "midi": 39,
                    "time": 88.8,
                    "velocity": 0.31496062992125984,
                    "duration": 1.2000000000000028
                },
                {
                    "name": "G#2",
                    "midi": 44,
                    "time": 90,
                    "velocity": 0.31496062992125984,
                    "duration": 0.7999999999999972
                },
                {
                    "name": "C3",
                    "midi": 48,
                    "time": 90.8,
                    "velocity": 0.31496062992125984,
                    "duration": 0.4000000000000057
                },
                {
                    "name": "C#3",
                    "midi": 49,
                    "time": 91.2,
                    "velocity": 0.31496062992125984,
                    "duration": 0.3999999999999915
                },
                {
                    "name": "A#2",
                    "midi": 46,
                    "time": 91.6,
                    "velocity": 0.31496062992125984,
                    "duration": 0.4000000000000057
                },
                {
                    "name": "A#3",
                    "midi": 58,
                    "time": 92,
                    "velocity": 0.31496062992125984,
                    "duration": 0.799999999999983
                },
                {
                    "name": "C#3",
                    "midi": 49,
                    "time": 92,
                    "velocity": 0.31496062992125984,
                    "duration": 0.3999999999999915
                },
                {
                    "name": "D#3",
                    "midi": 51,
                    "time": 92.39999999999999,
                    "velocity": 0.31496062992125984,
                    "duration": 1.2000000000000028
                },
                {
                    "name": "G#3",
                    "midi": 56,
                    "time": 92.79999999999998,
                    "velocity": 0.31496062992125984,
                    "duration": 0.4000000000000057
                },
                {
                    "name": "G#3",
                    "midi": 56,
                    "time": 93.19999999999999,
                    "velocity": 0.31496062992125984,
                    "duration": 0.8000000000000114
                },
                {
                    "name": "D#3",
                    "midi": 51,
                    "time": 93.6,
                    "velocity": 0.31496062992125984,
                    "duration": 1.200000000000017
                },
                {
                    "name": "G3",
                    "midi": 55,
                    "time": 94,
                    "velocity": 0.31496062992125984,
                    "duration": 0.4000000000000057
                },
                {
                    "name": "G3",
                    "midi": 55,
                    "time": 94.4,
                    "velocity": 0.31496062992125984,
                    "duration": 0.4000000000000057
                },
                {
                    "name": "G#2",
                    "midi": 44,
                    "time": 94.80000000000001,
                    "velocity": 0.3779527559055118,
                    "duration": 0.29999999999999716
                },
                {
                    "name": "C4",
                    "midi": 60,
                    "time": 95.2,
                    "velocity": 0.30708661417322836,
                    "duration": 0.7999999999999972
                },
                {
                    "name": "G#3",
                    "midi": 56,
                    "time": 95.2,
                    "velocity": 0.25984251968503935,
                    "duration": 0.7999999999999972
                },
                {
                    "name": "F#3",
                    "midi": 54,
                    "time": 95.2,
                    "velocity": 0.25984251968503935,
                    "duration": 0.7999999999999972
                },
                {
                    "name": "C#3",
                    "midi": 49,
                    "time": 96,
                    "velocity": 0.3779527559055118,
                    "duration": 0.29999999999999716
                },
                {
                    "name": "G#3",
                    "midi": 56,
                    "time": 96.39999999999999,
                    "velocity": 0.2283464566929134,
                    "duration": 0.7999999999999972
                },
                {
                    "name": "C#4",
                    "midi": 61,
                    "time": 96.39999999999999,
                    "velocity": 0.2755905511811024,
                    "duration": 0.7999999999999972
                },
                {
                    "name": "F3",
                    "midi": 53,
                    "time": 96.39999999999999,
                    "velocity": 0.2283464566929134,
                    "duration": 0.7999999999999972
                },
                {
                    "name": "D#2",
                    "midi": 39,
                    "time": 97.19999999999999,
                    "velocity": 0.3779527559055118,
                    "duration": 0.29999999999999716
                },
                {
                    "name": "C#4",
                    "midi": 61,
                    "time": 97.59999999999998,
                    "velocity": 0.33070866141732286,
                    "duration": 0.7999999999999972
                },
                {
                    "name": "A#3",
                    "midi": 58,
                    "time": 97.59999999999998,
                    "velocity": 0.2755905511811024,
                    "duration": 0.7999999999999972
                },
                {
                    "name": "D#3",
                    "midi": 51,
                    "time": 97.59999999999998,
                    "velocity": 0.2755905511811024,
                    "duration": 0.7999999999999972
                },
                {
                    "name": "G#2",
                    "midi": 44,
                    "time": 98.39999999999998,
                    "velocity": 0.3779527559055118,
                    "duration": 0.29999999999999716
                },
                {
                    "name": "C4",
                    "midi": 60,
                    "time": 98.79999999999997,
                    "velocity": 0.3464566929133858,
                    "duration": 0.7999999999999972
                },
                {
                    "name": "D#3",
                    "midi": 51,
                    "time": 98.79999999999997,
                    "velocity": 0.29133858267716534,
                    "duration": 0.7999999999999972
                },
                {
                    "name": "G#3",
                    "midi": 56,
                    "time": 98.79999999999997,
                    "velocity": 0.29133858267716534,
                    "duration": 0.7999999999999972
                },
                {
                    "name": "G#2",
                    "midi": 44,
                    "time": 99.59999999999997,
                    "velocity": 0.47244094488188976,
                    "duration": 0.29999999999999716
                },
                {
                    "name": "F#3",
                    "midi": 54,
                    "time": 99.99999999999996,
                    "velocity": 0.3228346456692913,
                    "duration": 0.7999999999999972
                },
                {
                    "name": "G#3",
                    "midi": 56,
                    "time": 99.99999999999996,
                    "velocity": 0.3228346456692913,
                    "duration": 0.7999999999999972
                },
                {
                    "name": "C4",
                    "midi": 60,
                    "time": 99.99999999999996,
                    "velocity": 0.3858267716535433,
                    "duration": 0.7999999999999972
                },
                {
                    "name": "C#3",
                    "midi": 49,
                    "time": 100.79999999999995,
                    "velocity": 0.5669291338582677,
                    "duration": 0.29999999999999716
                },
                {
                    "name": "C#4",
                    "midi": 61,
                    "time": 101.19999999999995,
                    "velocity": 0.4881889763779528,
                    "duration": 0.7999999999999972
                },
                {
                    "name": "F3",
                    "midi": 53,
                    "time": 101.19999999999995,
                    "velocity": 0.4094488188976378,
                    "duration": 0.7999999999999972
                },
                {
                    "name": "G#3",
                    "midi": 56,
                    "time": 101.19999999999995,
                    "velocity": 0.4094488188976378,
                    "duration": 0.7999999999999972
                },
                {
                    "name": "D#2",
                    "midi": 39,
                    "time": 101.99999999999994,
                    "velocity": 0.6614173228346457,
                    "duration": 0.29999999999999716
                },
                {
                    "name": "C#4",
                    "midi": 61,
                    "time": 102.39999999999993,
                    "velocity": 0.5748031496062992,
                    "duration": 0.8000000000000114
                },
                {
                    "name": "D#3",
                    "midi": 51,
                    "time": 102.39999999999993,
                    "velocity": 0.4881889763779528,
                    "duration": 0.8000000000000114
                },
                {
                    "name": "A#3",
                    "midi": 58,
                    "time": 102.39999999999993,
                    "velocity": 0.4881889763779528,
                    "duration": 0.8000000000000114
                },
                {
                    "name": "G#2",
                    "midi": 44,
                    "time": 103.19999999999995,
                    "velocity": 0.6929133858267716,
                    "duration": 0.29999999999999716
                },
                {
                    "name": "C4",
                    "midi": 60,
                    "time": 103.59999999999994,
                    "velocity": 0.5984251968503937,
                    "duration": 0.7999999999999972
                },
                {
                    "name": "D#3",
                    "midi": 51,
                    "time": 103.59999999999994,
                    "velocity": 0.5039370078740157,
                    "duration": 0.7999999999999972
                },
                {
                    "name": "G#3",
                    "midi": 56,
                    "time": 103.59999999999994,
                    "velocity": 0.5039370078740157,
                    "duration": 0.7999999999999972
                },
                {
                    "name": "D#3",
                    "midi": 51,
                    "time": 104.39999999999993,
                    "velocity": 0.47244094488188976,
                    "duration": 0.3999999999999915
                },
                {
                    "name": "G#2",
                    "midi": 44,
                    "time": 104.39999999999993,
                    "velocity": 0.31496062992125984,
                    "duration": 1.1999999999999886
                },
                {
                    "name": "G#3",
                    "midi": 56,
                    "time": 104.79999999999993,
                    "velocity": 0.5669291338582677,
                    "duration": 0.5999999999999943
                },
                {
                    "name": "G3",
                    "midi": 55,
                    "time": 105.39999999999992,
                    "velocity": 0.47244094488188976,
                    "duration": 0.20000000000000284
                },
                {
                    "name": "C#3",
                    "midi": 49,
                    "time": 105.59999999999992,
                    "velocity": 0.31496062992125984,
                    "duration": 1.2000000000000028
                },
                {
                    "name": "F3",
                    "midi": 53,
                    "time": 105.59999999999992,
                    "velocity": 0.47244094488188976,
                    "duration": 0.4000000000000057
                },
                {
                    "name": "C#4",
                    "midi": 61,
                    "time": 105.99999999999993,
                    "velocity": 0.5669291338582677,
                    "duration": 0.5999999999999943
                },
                {
                    "name": "C4",
                    "midi": 60,
                    "time": 106.59999999999992,
                    "velocity": 0.47244094488188976,
                    "duration": 0.20000000000000284
                },
                {
                    "name": "D#3",
                    "midi": 51,
                    "time": 106.79999999999993,
                    "velocity": 0.31496062992125984,
                    "duration": 1.1999999999999886
                },
                {
                    "name": "A#3",
                    "midi": 58,
                    "time": 106.79999999999993,
                    "velocity": 0.47244094488188976,
                    "duration": 0.3999999999999915
                },
                {
                    "name": "D#4",
                    "midi": 63,
                    "time": 107.19999999999992,
                    "velocity": 0.5669291338582677,
                    "duration": 0.5999999999999943
                },
                {
                    "name": "C#4",
                    "midi": 61,
                    "time": 107.79999999999991,
                    "velocity": 0.47244094488188976,
                    "duration": 0.20000000000000284
                },
                {
                    "name": "G#3",
                    "midi": 56,
                    "time": 107.99999999999991,
                    "velocity": 0.31496062992125984,
                    "duration": 1.1999999999999886
                },
                {
                    "name": "C4",
                    "midi": 60,
                    "time": 107.99999999999991,
                    "velocity": 0.47244094488188976,
                    "duration": 0.3999999999999915
                },
                {
                    "name": "D#4",
                    "midi": 63,
                    "time": 108.3999999999999,
                    "velocity": 0.5669291338582677,
                    "duration": 0.7999999999999972
                },
                {
                    "name": "G#2",
                    "midi": 44,
                    "time": 109.1999999999999,
                    "velocity": 0.44881889763779526,
                    "duration": 1.2000000000000028
                },
                {
                    "name": "D#3",
                    "midi": 51,
                    "time": 109.1999999999999,
                    "velocity": 0.5354330708661418,
                    "duration": 0.4000000000000057
                },
                {
                    "name": "G#3",
                    "midi": 56,
                    "time": 109.59999999999991,
                    "velocity": 0.6141732283464567,
                    "duration": 0.5999999999999943
                },
                {
                    "name": "G3",
                    "midi": 55,
                    "time": 110.1999999999999,
                    "velocity": 0.5354330708661418,
                    "duration": 0.20000000000000284
                },
                {
                    "name": "C#3",
                    "midi": 49,
                    "time": 110.3999999999999,
                    "velocity": 0.44881889763779526,
                    "duration": 1.2000000000000028
                },
                {
                    "name": "F3",
                    "midi": 53,
                    "time": 110.3999999999999,
                    "velocity": 0.5354330708661418,
                    "duration": 0.4000000000000057
                },
                {
                    "name": "C#4",
                    "midi": 61,
                    "time": 110.79999999999991,
                    "velocity": 0.6220472440944882,
                    "duration": 0.5999999999999943
                },
                {
                    "name": "C4",
                    "midi": 60,
                    "time": 111.3999999999999,
                    "velocity": 0.5354330708661418,
                    "duration": 0.20000000000000284
                },
                {
                    "name": "D#3",
                    "midi": 51,
                    "time": 111.59999999999991,
                    "velocity": 0.4645669291338583,
                    "duration": 1.1999999999999886
                },
                {
                    "name": "A#3",
                    "midi": 58,
                    "time": 111.59999999999991,
                    "velocity": 0.5590551181102362,
                    "duration": 0.3999999999999915
                },
                {
                    "name": "D#4",
                    "midi": 63,
                    "time": 111.9999999999999,
                    "velocity": 0.6377952755905512,
                    "duration": 0.5999999999999943
                },
                {
                    "name": "C#4",
                    "midi": 61,
                    "time": 112.5999999999999,
                    "velocity": 0.5354330708661418,
                    "duration": 0.20000000000000284
                },
                {
                    "name": "C4",
                    "midi": 60,
                    "time": 112.7999999999999,
                    "velocity": 0.5984251968503937,
                    "duration": 0.4000000000000057
                },
                {
                    "name": "G#3",
                    "midi": 56,
                    "time": 112.7999999999999,
                    "velocity": 0.5039370078740157,
                    "duration": 1.2000000000000028
                },
                {
                    "name": "D#4",
                    "midi": 63,
                    "time": 113.1999999999999,
                    "velocity": 0.6771653543307087,
                    "duration": 0.5999999999999943
                },
                {
                    "name": "C4",
                    "midi": 60,
                    "time": 113.7999999999999,
                    "velocity": 0.6299212598425197,
                    "duration": 0.20000000000000284
                },
                {
                    "name": "A#3",
                    "midi": 58,
                    "time": 113.9999999999999,
                    "velocity": 0.6299212598425197,
                    "duration": 0.4000000000000057
                },
                {
                    "name": "D#3",
                    "midi": 51,
                    "time": 113.9999999999999,
                    "velocity": 0.47244094488188976,
                    "duration": 1.2000000000000028
                },
                {
                    "name": "D#4",
                    "midi": 63,
                    "time": 114.3999999999999,
                    "velocity": 0.6929133858267716,
                    "duration": 0.5999999999999943
                },
                {
                    "name": "C#4",
                    "midi": 61,
                    "time": 114.9999999999999,
                    "velocity": 0.6299212598425197,
                    "duration": 0.20000000000000284
                },
                {
                    "name": "G#3",
                    "midi": 56,
                    "time": 115.1999999999999,
                    "velocity": 0.5748031496062992,
                    "duration": 1.2000000000000028
                },
                {
                    "name": "C4",
                    "midi": 60,
                    "time": 115.1999999999999,
                    "velocity": 0.6771653543307087,
                    "duration": 0.4000000000000057
                },
                {
                    "name": "D#4",
                    "midi": 63,
                    "time": 115.59999999999991,
                    "velocity": 0.7322834645669292,
                    "duration": 0.5999999999999943
                },
                {
                    "name": "C4",
                    "midi": 60,
                    "time": 116.1999999999999,
                    "velocity": 0.6692913385826772,
                    "duration": 0.20000000000000284
                },
                {
                    "name": "A#3",
                    "midi": 58,
                    "time": 116.3999999999999,
                    "velocity": 0.7007874015748031,
                    "duration": 0.3999999999999915
                },
                {
                    "name": "D#3",
                    "midi": 51,
                    "time": 116.3999999999999,
                    "velocity": 0.5905511811023622,
                    "duration": 1.1999999999999886
                },
                {
                    "name": "D#4",
                    "midi": 63,
                    "time": 116.7999999999999,
                    "velocity": 0.7480314960629921,
                    "duration": 0.5999999999999943
                },
                {
                    "name": "C#4",
                    "midi": 61,
                    "time": 117.39999999999989,
                    "velocity": 0.6850393700787402,
                    "duration": 0.20000000000000284
                },
                {
                    "name": "G#3",
                    "midi": 56,
                    "time": 117.5999999999999,
                    "velocity": 0.6377952755905512,
                    "duration": 0.3999999999999915
                },
                {
                    "name": "C4",
                    "midi": 60,
                    "time": 117.5999999999999,
                    "velocity": 0.7559055118110236,
                    "duration": 0.3999999999999915
                },
                {
                    "name": "D#4",
                    "midi": 63,
                    "time": 119.99999999999989,
                    "velocity": 0.7795275590551181,
                    "duration": 0.20000000000000284
                },
                {
                    "name": "C4",
                    "midi": 60,
                    "time": 120.39999999999989,
                    "velocity": 0.7795275590551181,
                    "duration": 0.20000000000000284
                },
                {
                    "name": "G#3",
                    "midi": 56,
                    "time": 120.7999999999999,
                    "velocity": 0.7322834645669292,
                    "duration": 0.20000000000000284
                },
                {
                    "name": "D#3",
                    "midi": 51,
                    "time": 121.1999999999999,
                    "velocity": 0.6929133858267716,
                    "duration": 0.20000000000000284
                },
                {
                    "name": "C3",
                    "midi": 48,
                    "time": 121.59999999999991,
                    "velocity": 0.6614173228346457,
                    "duration": 0.20000000000000284
                },
                {
                    "name": "D#3",
                    "midi": 51,
                    "time": 121.99999999999991,
                    "velocity": 0.6299212598425197,
                    "duration": 0.20000000000000284
                },
                {
                    "name": "G#2",
                    "midi": 44,
                    "time": 122.39999999999992,
                    "velocity": 0.5669291338582677,
                    "duration": 0.3999999999999915
                },
                {
                    "name": "C2",
                    "midi": 36,
                    "time": 124.79999999999991,
                    "velocity": 0.47244094488188976,
                    "duration": 2.3999999999999915
                },
                {
                    "name": "C3",
                    "midi": 48,
                    "time": 124.79999999999991,
                    "velocity": 0.47244094488188976,
                    "duration": 2.3999999999999915
                },
                {
                    "name": "G#2",
                    "midi": 44,
                    "time": 124.79999999999991,
                    "velocity": 0.47244094488188976,
                    "duration": 2.3999999999999915
                },
                {
                    "name": "C#2",
                    "midi": 37,
                    "time": 127.1999999999999,
                    "velocity": 0.33070866141732286,
                    "duration": 0.20000000000000284
                },
                {
                    "name": "E3",
                    "midi": 52,
                    "time": 127.3999999999999,
                    "velocity": 0.2047244094488189,
                    "duration": 0.18999999999999773
                },
                {
                    "name": "C#3",
                    "midi": 49,
                    "time": 127.3999999999999,
                    "velocity": 0.1732283464566929,
                    "duration": 0.18999999999999773
                },
                {
                    "name": "G#2",
                    "midi": 44,
                    "time": 127.3999999999999,
                    "velocity": 0.1732283464566929,
                    "duration": 0.18999999999999773
                },
                {
                    "name": "G#2",
                    "midi": 44,
                    "time": 127.59999999999991,
                    "velocity": 0.1732283464566929,
                    "duration": 0.18999999999999773
                },
                {
                    "name": "C#3",
                    "midi": 49,
                    "time": 127.59999999999991,
                    "velocity": 0.1732283464566929,
                    "duration": 0.18999999999999773
                },
                {
                    "name": "E3",
                    "midi": 52,
                    "time": 127.59999999999991,
                    "velocity": 0.2047244094488189,
                    "duration": 0.18999999999999773
                },
                {
                    "name": "G#2",
                    "midi": 44,
                    "time": 127.79999999999991,
                    "velocity": 0.1732283464566929,
                    "duration": 0.18999999999999773
                },
                {
                    "name": "C#3",
                    "midi": 49,
                    "time": 127.79999999999991,
                    "velocity": 0.1732283464566929,
                    "duration": 0.18999999999999773
                },
                {
                    "name": "E3",
                    "midi": 52,
                    "time": 127.79999999999991,
                    "velocity": 0.2047244094488189,
                    "duration": 0.18999999999999773
                },
                {
                    "name": "G#2",
                    "midi": 44,
                    "time": 127.99999999999991,
                    "velocity": 0.1732283464566929,
                    "duration": 0.18999999999999773
                },
                {
                    "name": "C#3",
                    "midi": 49,
                    "time": 127.99999999999991,
                    "velocity": 0.1732283464566929,
                    "duration": 0.18999999999999773
                },
                {
                    "name": "E3",
                    "midi": 52,
                    "time": 127.99999999999991,
                    "velocity": 0.2047244094488189,
                    "duration": 0.18999999999999773
                },
                {
                    "name": "G#2",
                    "midi": 44,
                    "time": 128.1999999999999,
                    "velocity": 0.1732283464566929,
                    "duration": 0.18999999999999773
                },
                {
                    "name": "C#3",
                    "midi": 49,
                    "time": 128.1999999999999,
                    "velocity": 0.1732283464566929,
                    "duration": 0.18999999999999773
                },
                {
                    "name": "E3",
                    "midi": 52,
                    "time": 128.1999999999999,
                    "velocity": 0.2047244094488189,
                    "duration": 0.18999999999999773
                },
                {
                    "name": "G#2",
                    "midi": 44,
                    "time": 128.3999999999999,
                    "velocity": 0.1732283464566929,
                    "duration": 0.18999999999999773
                },
                {
                    "name": "C#3",
                    "midi": 49,
                    "time": 128.3999999999999,
                    "velocity": 0.1732283464566929,
                    "duration": 0.18999999999999773
                },
                {
                    "name": "E3",
                    "midi": 52,
                    "time": 128.3999999999999,
                    "velocity": 0.2047244094488189,
                    "duration": 0.18999999999999773
                },
                {
                    "name": "G#2",
                    "midi": 44,
                    "time": 128.59999999999988,
                    "velocity": 0.1732283464566929,
                    "duration": 0.18999999999999773
                },
                {
                    "name": "C#3",
                    "midi": 49,
                    "time": 128.59999999999988,
                    "velocity": 0.1732283464566929,
                    "duration": 0.18999999999999773
                },
                {
                    "name": "E3",
                    "midi": 52,
                    "time": 128.59999999999988,
                    "velocity": 0.2047244094488189,
                    "duration": 0.18999999999999773
                },
                {
                    "name": "G#2",
                    "midi": 44,
                    "time": 128.79999999999987,
                    "velocity": 0.1732283464566929,
                    "duration": 0.18999999999999773
                },
                {
                    "name": "C#3",
                    "midi": 49,
                    "time": 128.79999999999987,
                    "velocity": 0.1732283464566929,
                    "duration": 0.18999999999999773
                },
                {
                    "name": "E3",
                    "midi": 52,
                    "time": 128.79999999999987,
                    "velocity": 0.2047244094488189,
                    "duration": 0.18999999999999773
                },
                {
                    "name": "G#2",
                    "midi": 44,
                    "time": 128.99999999999986,
                    "velocity": 0.1732283464566929,
                    "duration": 0.18999999999999773
                },
                {
                    "name": "C#3",
                    "midi": 49,
                    "time": 128.99999999999986,
                    "velocity": 0.1732283464566929,
                    "duration": 0.18999999999999773
                },
                {
                    "name": "E3",
                    "midi": 52,
                    "time": 128.99999999999986,
                    "velocity": 0.2047244094488189,
                    "duration": 0.18999999999999773
                },
                {
                    "name": "G#2",
                    "midi": 44,
                    "time": 129.19999999999985,
                    "velocity": 0.1732283464566929,
                    "duration": 0.18999999999999773
                },
                {
                    "name": "C#3",
                    "midi": 49,
                    "time": 129.19999999999985,
                    "velocity": 0.1732283464566929,
                    "duration": 0.18999999999999773
                },
                {
                    "name": "E3",
                    "midi": 52,
                    "time": 129.19999999999985,
                    "velocity": 0.2047244094488189,
                    "duration": 0.18999999999999773
                },
                {
                    "name": "C#3",
                    "midi": 49,
                    "time": 129.39999999999984,
                    "velocity": 0.1732283464566929,
                    "duration": 0.18999999999999773
                },
                {
                    "name": "G#2",
                    "midi": 44,
                    "time": 129.39999999999984,
                    "velocity": 0.1732283464566929,
                    "duration": 0.18999999999999773
                },
                {
                    "name": "E3",
                    "midi": 52,
                    "time": 129.39999999999984,
                    "velocity": 0.2047244094488189,
                    "duration": 0.18999999999999773
                },
                {
                    "name": "C2",
                    "midi": 36,
                    "time": 129.59999999999982,
                    "velocity": 0.3228346456692913,
                    "duration": 0.18999999999999773
                },
                {
                    "name": "D#3",
                    "midi": 51,
                    "time": 129.7999999999998,
                    "velocity": 0.1732283464566929,
                    "duration": 0.18999999999999773
                },
                {
                    "name": "F#3",
                    "midi": 54,
                    "time": 129.7999999999998,
                    "velocity": 0.2047244094488189,
                    "duration": 0.18999999999999773
                },
                {
                    "name": "G#2",
                    "midi": 44,
                    "time": 129.7999999999998,
                    "velocity": 0.1732283464566929,
                    "duration": 0.18999999999999773
                },
                {
                    "name": "G#2",
                    "midi": 44,
                    "time": 129.9999999999998,
                    "velocity": 0.1732283464566929,
                    "duration": 0.18999999999999773
                },
                {
                    "name": "D#3",
                    "midi": 51,
                    "time": 129.9999999999998,
                    "velocity": 0.1732283464566929,
                    "duration": 0.18999999999999773
                },
                {
                    "name": "F#3",
                    "midi": 54,
                    "time": 129.9999999999998,
                    "velocity": 0.2047244094488189,
                    "duration": 0.18999999999999773
                },
                {
                    "name": "G#2",
                    "midi": 44,
                    "time": 130.1999999999998,
                    "velocity": 0.1732283464566929,
                    "duration": 0.18999999999999773
                },
                {
                    "name": "D#3",
                    "midi": 51,
                    "time": 130.1999999999998,
                    "velocity": 0.1732283464566929,
                    "duration": 0.18999999999999773
                },
                {
                    "name": "F#3",
                    "midi": 54,
                    "time": 130.1999999999998,
                    "velocity": 0.2047244094488189,
                    "duration": 0.18999999999999773
                },
                {
                    "name": "G#2",
                    "midi": 44,
                    "time": 130.39999999999978,
                    "velocity": 0.1732283464566929,
                    "duration": 0.18999999999999773
                },
                {
                    "name": "D#3",
                    "midi": 51,
                    "time": 130.39999999999978,
                    "velocity": 0.1732283464566929,
                    "duration": 0.18999999999999773
                },
                {
                    "name": "F#3",
                    "midi": 54,
                    "time": 130.39999999999978,
                    "velocity": 0.2047244094488189,
                    "duration": 0.18999999999999773
                },
                {
                    "name": "G#2",
                    "midi": 44,
                    "time": 130.59999999999977,
                    "velocity": 0.1732283464566929,
                    "duration": 0.18999999999999773
                },
                {
                    "name": "D#3",
                    "midi": 51,
                    "time": 130.59999999999977,
                    "velocity": 0.1732283464566929,
                    "duration": 0.18999999999999773
                },
                {
                    "name": "F#3",
                    "midi": 54,
                    "time": 130.59999999999977,
                    "velocity": 0.2047244094488189,
                    "duration": 0.18999999999999773
                },
                {
                    "name": "G#2",
                    "midi": 44,
                    "time": 130.79999999999976,
                    "velocity": 0.1732283464566929,
                    "duration": 0.18999999999999773
                },
                {
                    "name": "D#3",
                    "midi": 51,
                    "time": 130.79999999999976,
                    "velocity": 0.1732283464566929,
                    "duration": 0.18999999999999773
                },
                {
                    "name": "F#3",
                    "midi": 54,
                    "time": 130.79999999999976,
                    "velocity": 0.2047244094488189,
                    "duration": 0.18999999999999773
                },
                {
                    "name": "G#2",
                    "midi": 44,
                    "time": 130.99999999999974,
                    "velocity": 0.1732283464566929,
                    "duration": 0.18999999999999773
                },
                {
                    "name": "D#3",
                    "midi": 51,
                    "time": 130.99999999999974,
                    "velocity": 0.1732283464566929,
                    "duration": 0.18999999999999773
                },
                {
                    "name": "F#3",
                    "midi": 54,
                    "time": 130.99999999999974,
                    "velocity": 0.2047244094488189,
                    "duration": 0.18999999999999773
                },
                {
                    "name": "G#2",
                    "midi": 44,
                    "time": 131.19999999999973,
                    "velocity": 0.1732283464566929,
                    "duration": 0.18999999999999773
                },
                {
                    "name": "D#3",
                    "midi": 51,
                    "time": 131.19999999999973,
                    "velocity": 0.1732283464566929,
                    "duration": 0.18999999999999773
                },
                {
                    "name": "F#3",
                    "midi": 54,
                    "time": 131.19999999999973,
                    "velocity": 0.2047244094488189,
                    "duration": 0.18999999999999773
                },
                {
                    "name": "G#2",
                    "midi": 44,
                    "time": 131.39999999999972,
                    "velocity": 0.1732283464566929,
                    "duration": 0.18999999999999773
                },
                {
                    "name": "D#3",
                    "midi": 51,
                    "time": 131.39999999999972,
                    "velocity": 0.1732283464566929,
                    "duration": 0.18999999999999773
                },
                {
                    "name": "F#3",
                    "midi": 54,
                    "time": 131.39999999999972,
                    "velocity": 0.2047244094488189,
                    "duration": 0.18999999999999773
                },
                {
                    "name": "D#3",
                    "midi": 51,
                    "time": 131.5999999999997,
                    "velocity": 0.1732283464566929,
                    "duration": 0.18999999999999773
                },
                {
                    "name": "G#2",
                    "midi": 44,
                    "time": 131.5999999999997,
                    "velocity": 0.1732283464566929,
                    "duration": 0.18999999999999773
                },
                {
                    "name": "F#3",
                    "midi": 54,
                    "time": 131.5999999999997,
                    "velocity": 0.2047244094488189,
                    "duration": 0.18999999999999773
                },
                {
                    "name": "G#2",
                    "midi": 44,
                    "time": 131.7999999999997,
                    "velocity": 0.1732283464566929,
                    "duration": 0.18999999999999773
                },
                {
                    "name": "D#3",
                    "midi": 51,
                    "time": 131.7999999999997,
                    "velocity": 0.1732283464566929,
                    "duration": 0.18999999999999773
                },
                {
                    "name": "F#3",
                    "midi": 54,
                    "time": 131.7999999999997,
                    "velocity": 0.2047244094488189,
                    "duration": 0.18999999999999773
                },
                {
                    "name": "C#2",
                    "midi": 37,
                    "time": 131.9999999999997,
                    "velocity": 0.31496062992125984,
                    "duration": 0.18999999999999773
                },
                {
                    "name": "E3",
                    "midi": 52,
                    "time": 132.19999999999968,
                    "velocity": 0.2047244094488189,
                    "duration": 0.18999999999999773
                },
                {
                    "name": "C#3",
                    "midi": 49,
                    "time": 132.19999999999968,
                    "velocity": 0.1732283464566929,
                    "duration": 0.18999999999999773
                },
                {
                    "name": "G#2",
                    "midi": 44,
                    "time": 132.19999999999968,
                    "velocity": 0.1732283464566929,
                    "duration": 0.18999999999999773
                },
                {
                    "name": "G#2",
                    "midi": 44,
                    "time": 132.39999999999966,
                    "velocity": 0.1732283464566929,
                    "duration": 0.18999999999999773
                },
                {
                    "name": "C#3",
                    "midi": 49,
                    "time": 132.39999999999966,
                    "velocity": 0.1732283464566929,
                    "duration": 0.18999999999999773
                },
                {
                    "name": "E3",
                    "midi": 52,
                    "time": 132.39999999999966,
                    "velocity": 0.2047244094488189,
                    "duration": 0.18999999999999773
                },
                {
                    "name": "G#2",
                    "midi": 44,
                    "time": 132.59999999999965,
                    "velocity": 0.1732283464566929,
                    "duration": 0.18999999999999773
                },
                {
                    "name": "C#3",
                    "midi": 49,
                    "time": 132.59999999999965,
                    "velocity": 0.1732283464566929,
                    "duration": 0.18999999999999773
                },
                {
                    "name": "E3",
                    "midi": 52,
                    "time": 132.59999999999965,
                    "velocity": 0.2047244094488189,
                    "duration": 0.18999999999999773
                },
                {
                    "name": "G#2",
                    "midi": 44,
                    "time": 132.79999999999964,
                    "velocity": 0.1732283464566929,
                    "duration": 0.18999999999999773
                },
                {
                    "name": "C#3",
                    "midi": 49,
                    "time": 132.79999999999964,
                    "velocity": 0.1732283464566929,
                    "duration": 0.18999999999999773
                },
                {
                    "name": "E3",
                    "midi": 52,
                    "time": 132.79999999999964,
                    "velocity": 0.2047244094488189,
                    "duration": 0.18999999999999773
                },
                {
                    "name": "G#2",
                    "midi": 44,
                    "time": 132.99999999999963,
                    "velocity": 0.1732283464566929,
                    "duration": 0.18999999999999773
                },
                {
                    "name": "C#3",
                    "midi": 49,
                    "time": 132.99999999999963,
                    "velocity": 0.1732283464566929,
                    "duration": 0.18999999999999773
                },
                {
                    "name": "E3",
                    "midi": 52,
                    "time": 132.99999999999963,
                    "velocity": 0.2047244094488189,
                    "duration": 0.18999999999999773
                },
                {
                    "name": "G#2",
                    "midi": 44,
                    "time": 133.19999999999962,
                    "velocity": 0.1732283464566929,
                    "duration": 0.18999999999999773
                },
                {
                    "name": "C#3",
                    "midi": 49,
                    "time": 133.19999999999962,
                    "velocity": 0.1732283464566929,
                    "duration": 0.18999999999999773
                },
                {
                    "name": "E3",
                    "midi": 52,
                    "time": 133.19999999999962,
                    "velocity": 0.2047244094488189,
                    "duration": 0.18999999999999773
                },
                {
                    "name": "G#2",
                    "midi": 44,
                    "time": 133.3999999999996,
                    "velocity": 0.1732283464566929,
                    "duration": 0.18999999999999773
                },
                {
                    "name": "C#3",
                    "midi": 49,
                    "time": 133.3999999999996,
                    "velocity": 0.1732283464566929,
                    "duration": 0.18999999999999773
                },
                {
                    "name": "E3",
                    "midi": 52,
                    "time": 133.3999999999996,
                    "velocity": 0.2047244094488189,
                    "duration": 0.18999999999999773
                },
                {
                    "name": "G#2",
                    "midi": 44,
                    "time": 133.5999999999996,
                    "velocity": 0.1732283464566929,
                    "duration": 0.18999999999999773
                },
                {
                    "name": "C#3",
                    "midi": 49,
                    "time": 133.5999999999996,
                    "velocity": 0.1732283464566929,
                    "duration": 0.18999999999999773
                },
                {
                    "name": "E3",
                    "midi": 52,
                    "time": 133.5999999999996,
                    "velocity": 0.2047244094488189,
                    "duration": 0.18999999999999773
                },
                {
                    "name": "G#2",
                    "midi": 44,
                    "time": 133.79999999999959,
                    "velocity": 0.1732283464566929,
                    "duration": 0.18999999999999773
                },
                {
                    "name": "C#3",
                    "midi": 49,
                    "time": 133.79999999999959,
                    "velocity": 0.1732283464566929,
                    "duration": 0.18999999999999773
                },
                {
                    "name": "E3",
                    "midi": 52,
                    "time": 133.79999999999959,
                    "velocity": 0.2047244094488189,
                    "duration": 0.18999999999999773
                },
                {
                    "name": "G#2",
                    "midi": 44,
                    "time": 133.99999999999957,
                    "velocity": 0.1732283464566929,
                    "duration": 0.18999999999999773
                },
                {
                    "name": "C#3",
                    "midi": 49,
                    "time": 133.99999999999957,
                    "velocity": 0.1732283464566929,
                    "duration": 0.18999999999999773
                },
                {
                    "name": "E3",
                    "midi": 52,
                    "time": 133.99999999999957,
                    "velocity": 0.2047244094488189,
                    "duration": 0.18999999999999773
                },
                {
                    "name": "C#3",
                    "midi": 49,
                    "time": 134.19999999999956,
                    "velocity": 0.1732283464566929,
                    "duration": 0.18999999999999773
                },
                {
                    "name": "G#2",
                    "midi": 44,
                    "time": 134.19999999999956,
                    "velocity": 0.1732283464566929,
                    "duration": 0.18999999999999773
                },
                {
                    "name": "E3",
                    "midi": 52,
                    "time": 134.19999999999956,
                    "velocity": 0.2047244094488189,
                    "duration": 0.18999999999999773
                },
                {
                    "name": "D#2",
                    "midi": 39,
                    "time": 134.39999999999955,
                    "velocity": 0.30708661417322836,
                    "duration": 0.18999999999999773
                },
                {
                    "name": "D#3",
                    "midi": 51,
                    "time": 134.59999999999954,
                    "velocity": 0.1732283464566929,
                    "duration": 0.18999999999999773
                },
                {
                    "name": "F#3",
                    "midi": 54,
                    "time": 134.59999999999954,
                    "velocity": 0.2047244094488189,
                    "duration": 0.18999999999999773
                },
                {
                    "name": "G#2",
                    "midi": 44,
                    "time": 134.59999999999954,
                    "velocity": 0.1732283464566929,
                    "duration": 0.18999999999999773
                },
                {
                    "name": "G#2",
                    "midi": 44,
                    "time": 134.79999999999953,
                    "velocity": 0.1732283464566929,
                    "duration": 0.18999999999999773
                },
                {
                    "name": "D#3",
                    "midi": 51,
                    "time": 134.79999999999953,
                    "velocity": 0.1732283464566929,
                    "duration": 0.18999999999999773
                },
                {
                    "name": "F#3",
                    "midi": 54,
                    "time": 134.79999999999953,
                    "velocity": 0.2047244094488189,
                    "duration": 0.18999999999999773
                },
                {
                    "name": "G#2",
                    "midi": 44,
                    "time": 134.99999999999952,
                    "velocity": 0.1732283464566929,
                    "duration": 0.18999999999999773
                },
                {
                    "name": "D#3",
                    "midi": 51,
                    "time": 134.99999999999952,
                    "velocity": 0.1732283464566929,
                    "duration": 0.18999999999999773
                },
                {
                    "name": "F#3",
                    "midi": 54,
                    "time": 134.99999999999952,
                    "velocity": 0.2047244094488189,
                    "duration": 0.18999999999999773
                },
                {
                    "name": "G#2",
                    "midi": 44,
                    "time": 135.1999999999995,
                    "velocity": 0.1732283464566929,
                    "duration": 0.18999999999999773
                },
                {
                    "name": "D#3",
                    "midi": 51,
                    "time": 135.1999999999995,
                    "velocity": 0.1732283464566929,
                    "duration": 0.18999999999999773
                },
                {
                    "name": "F#3",
                    "midi": 54,
                    "time": 135.1999999999995,
                    "velocity": 0.2047244094488189,
                    "duration": 0.18999999999999773
                },
                {
                    "name": "G#2",
                    "midi": 44,
                    "time": 135.3999999999995,
                    "velocity": 0.1732283464566929,
                    "duration": 0.18999999999999773
                },
                {
                    "name": "D#3",
                    "midi": 51,
                    "time": 135.3999999999995,
                    "velocity": 0.1732283464566929,
                    "duration": 0.18999999999999773
                },
                {
                    "name": "F#3",
                    "midi": 54,
                    "time": 135.3999999999995,
                    "velocity": 0.2047244094488189,
                    "duration": 0.18999999999999773
                },
                {
                    "name": "G#2",
                    "midi": 44,
                    "time": 135.59999999999948,
                    "velocity": 0.1732283464566929,
                    "duration": 0.18999999999999773
                },
                {
                    "name": "D#3",
                    "midi": 51,
                    "time": 135.59999999999948,
                    "velocity": 0.1732283464566929,
                    "duration": 0.18999999999999773
                },
                {
                    "name": "F#3",
                    "midi": 54,
                    "time": 135.59999999999948,
                    "velocity": 0.2047244094488189,
                    "duration": 0.18999999999999773
                },
                {
                    "name": "G#2",
                    "midi": 44,
                    "time": 135.79999999999947,
                    "velocity": 0.1732283464566929,
                    "duration": 0.18999999999999773
                },
                {
                    "name": "D#3",
                    "midi": 51,
                    "time": 135.79999999999947,
                    "velocity": 0.1732283464566929,
                    "duration": 0.18999999999999773
                },
                {
                    "name": "F#3",
                    "midi": 54,
                    "time": 135.79999999999947,
                    "velocity": 0.2047244094488189,
                    "duration": 0.18999999999999773
                },
                {
                    "name": "G#2",
                    "midi": 44,
                    "time": 135.99999999999946,
                    "velocity": 0.1732283464566929,
                    "duration": 0.18999999999999773
                },
                {
                    "name": "D#3",
                    "midi": 51,
                    "time": 135.99999999999946,
                    "velocity": 0.1732283464566929,
                    "duration": 0.18999999999999773
                },
                {
                    "name": "F#3",
                    "midi": 54,
                    "time": 135.99999999999946,
                    "velocity": 0.2047244094488189,
                    "duration": 0.18999999999999773
                },
                {
                    "name": "G#2",
                    "midi": 44,
                    "time": 136.19999999999945,
                    "velocity": 0.1732283464566929,
                    "duration": 0.18999999999999773
                },
                {
                    "name": "D#3",
                    "midi": 51,
                    "time": 136.19999999999945,
                    "velocity": 0.1732283464566929,
                    "duration": 0.18999999999999773
                },
                {
                    "name": "F#3",
                    "midi": 54,
                    "time": 136.19999999999945,
                    "velocity": 0.2047244094488189,
                    "duration": 0.18999999999999773
                },
                {
                    "name": "D#3",
                    "midi": 51,
                    "time": 136.39999999999944,
                    "velocity": 0.1732283464566929,
                    "duration": 0.18999999999999773
                },
                {
                    "name": "G#2",
                    "midi": 44,
                    "time": 136.39999999999944,
                    "velocity": 0.1732283464566929,
                    "duration": 0.18999999999999773
                },
                {
                    "name": "F#3",
                    "midi": 54,
                    "time": 136.39999999999944,
                    "velocity": 0.2047244094488189,
                    "duration": 0.18999999999999773
                },
                {
                    "name": "G#2",
                    "midi": 44,
                    "time": 136.59999999999943,
                    "velocity": 0.1732283464566929,
                    "duration": 0.18999999999999773
                },
                {
                    "name": "D#3",
                    "midi": 51,
                    "time": 136.59999999999943,
                    "velocity": 0.1732283464566929,
                    "duration": 0.18999999999999773
                },
                {
                    "name": "F#3",
                    "midi": 54,
                    "time": 136.59999999999943,
                    "velocity": 0.2047244094488189,
                    "duration": 0.18999999999999773
                },
                {
                    "name": "E2",
                    "midi": 40,
                    "time": 136.79999999999941,
                    "velocity": 0.33070866141732286,
                    "duration": 0.18999999999999773
                },
                {
                    "name": "E3",
                    "midi": 52,
                    "time": 136.9999999999994,
                    "velocity": 0.2755905511811024,
                    "duration": 0.18999999999999773
                },
                {
                    "name": "A2",
                    "midi": 45,
                    "time": 136.9999999999994,
                    "velocity": 0.2283464566929134,
                    "duration": 0.18999999999999773
                },
                {
                    "name": "A2",
                    "midi": 45,
                    "time": 137.1999999999994,
                    "velocity": 0.2283464566929134,
                    "duration": 0.18999999999999773
                },
                {
                    "name": "E3",
                    "midi": 52,
                    "time": 137.1999999999994,
                    "velocity": 0.2755905511811024,
                    "duration": 0.18999999999999773
                },
                {
                    "name": "A2",
                    "midi": 45,
                    "time": 137.39999999999938,
                    "velocity": 0.2283464566929134,
                    "duration": 0.18999999999999773
                },
                {
                    "name": "E3",
                    "midi": 52,
                    "time": 137.39999999999938,
                    "velocity": 0.2755905511811024,
                    "duration": 0.18999999999999773
                },
                {
                    "name": "A2",
                    "midi": 45,
                    "time": 137.59999999999937,
                    "velocity": 0.2283464566929134,
                    "duration": 0.18999999999999773
                },
                {
                    "name": "E3",
                    "midi": 52,
                    "time": 137.59999999999937,
                    "velocity": 0.2755905511811024,
                    "duration": 0.18999999999999773
                },
                {
                    "name": "A2",
                    "midi": 45,
                    "time": 137.79999999999936,
                    "velocity": 0.2283464566929134,
                    "duration": 0.18999999999999773
                },
                {
                    "name": "E3",
                    "midi": 52,
                    "time": 137.79999999999936,
                    "velocity": 0.2755905511811024,
                    "duration": 0.18999999999999773
                },
                {
                    "name": "E3",
                    "midi": 52,
                    "time": 137.99999999999935,
                    "velocity": 0.2755905511811024,
                    "duration": 0.18999999999999773
                },
                {
                    "name": "A2",
                    "midi": 45,
                    "time": 137.99999999999935,
                    "velocity": 0.2283464566929134,
                    "duration": 0.18999999999999773
                },
                {
                    "name": "A2",
                    "midi": 45,
                    "time": 138.19999999999933,
                    "velocity": 0.2283464566929134,
                    "duration": 0.18999999999999773
                },
                {
                    "name": "E3",
                    "midi": 52,
                    "time": 138.19999999999933,
                    "velocity": 0.2755905511811024,
                    "duration": 0.18999999999999773
                },
                {
                    "name": "E2",
                    "midi": 40,
                    "time": 138.39999999999932,
                    "velocity": 0.2755905511811024,
                    "duration": 0.39999999999997726
                },
                {
                    "name": "E3",
                    "midi": 52,
                    "time": 138.5999999999993,
                    "velocity": 0.2755905511811024,
                    "duration": 0.18999999999999773
                },
                {
                    "name": "A2",
                    "midi": 45,
                    "time": 138.5999999999993,
                    "velocity": 0.2283464566929134,
                    "duration": 0.18999999999999773
                },
                {
                    "name": "E2",
                    "midi": 40,
                    "time": 138.7999999999993,
                    "velocity": 0.2755905511811024,
                    "duration": 0.39999999999997726
                },
                {
                    "name": "E3",
                    "midi": 52,
                    "time": 138.9999999999993,
                    "velocity": 0.2755905511811024,
                    "duration": 0.18999999999999773
                },
                {
                    "name": "A2",
                    "midi": 45,
                    "time": 138.9999999999993,
                    "velocity": 0.2283464566929134,
                    "duration": 0.18999999999999773
                },
                {
                    "name": "B1",
                    "midi": 35,
                    "time": 139.19999999999928,
                    "velocity": 0.4094488188976378,
                    "duration": 0.18999999999999773
                },
                {
                    "name": "B2",
                    "midi": 47,
                    "time": 139.39999999999927,
                    "velocity": 0.3464566929133858,
                    "duration": 0.18999999999999773
                },
                {
                    "name": "E2",
                    "midi": 40,
                    "time": 139.39999999999927,
                    "velocity": 0.29133858267716534,
                    "duration": 0.18999999999999773
                },
                {
                    "name": "E2",
                    "midi": 40,
                    "time": 139.59999999999926,
                    "velocity": 0.29133858267716534,
                    "duration": 0.18999999999999773
                },
                {
                    "name": "B2",
                    "midi": 47,
                    "time": 139.59999999999926,
                    "velocity": 0.3464566929133858,
                    "duration": 0.18999999999999773
                },
                {
                    "name": "E2",
                    "midi": 40,
                    "time": 139.79999999999924,
                    "velocity": 0.29133858267716534,
                    "duration": 0.18999999999999773
                },
                {
                    "name": "B2",
                    "midi": 47,
                    "time": 139.79999999999924,
                    "velocity": 0.3464566929133858,
                    "duration": 0.18999999999999773
                },
                {
                    "name": "B2",
                    "midi": 47,
                    "time": 139.99999999999923,
                    "velocity": 0.3464566929133858,
                    "duration": 0.18999999999999773
                },
                {
                    "name": "E2",
                    "midi": 40,
                    "time": 139.99999999999923,
                    "velocity": 0.29133858267716534,
                    "duration": 0.18999999999999773
                },
                {
                    "name": "E2",
                    "midi": 40,
                    "time": 140.19999999999922,
                    "velocity": 0.29133858267716534,
                    "duration": 0.18999999999999773
                },
                {
                    "name": "B2",
                    "midi": 47,
                    "time": 140.19999999999922,
                    "velocity": 0.3464566929133858,
                    "duration": 0.18999999999999773
                },
                {
                    "name": "E2",
                    "midi": 40,
                    "time": 140.3999999999992,
                    "velocity": 0.29133858267716534,
                    "duration": 0.18999999999999773
                },
                {
                    "name": "B2",
                    "midi": 47,
                    "time": 140.3999999999992,
                    "velocity": 0.3464566929133858,
                    "duration": 0.18999999999999773
                },
                {
                    "name": "E2",
                    "midi": 40,
                    "time": 140.5999999999992,
                    "velocity": 0.29133858267716534,
                    "duration": 0.18999999999999773
                },
                {
                    "name": "B2",
                    "midi": 47,
                    "time": 140.5999999999992,
                    "velocity": 0.3464566929133858,
                    "duration": 0.18999999999999773
                },
                {
                    "name": "B1",
                    "midi": 35,
                    "time": 140.7999999999992,
                    "velocity": 0.3464566929133858,
                    "duration": 0.39999999999997726
                },
                {
                    "name": "E2",
                    "midi": 40,
                    "time": 140.99999999999918,
                    "velocity": 0.29133858267716534,
                    "duration": 0.19999999999998863
                },
                {
                    "name": "B2",
                    "midi": 47,
                    "time": 140.99999999999918,
                    "velocity": 0.3464566929133858,
                    "duration": 0.19999999999998863
                },
                {
                    "name": "E2",
                    "midi": 40,
                    "time": 141.19999999999916,
                    "velocity": 0.3464566929133858,
                    "duration": 0.39999999999997726
                },
                {
                    "name": "E3",
                    "midi": 52,
                    "time": 141.39999999999915,
                    "velocity": 0.3464566929133858,
                    "duration": 0.19999999999998863
                },
                {
                    "name": "B2",
                    "midi": 47,
                    "time": 141.39999999999915,
                    "velocity": 0.29133858267716534,
                    "duration": 0.19999999999998863
                },
                {
                    "name": "D#2",
                    "midi": 39,
                    "time": 141.59999999999914,
                    "velocity": 0.48031496062992124,
                    "duration": 1.1999999999999602
                },
                {
                    "name": "D#3",
                    "midi": 51,
                    "time": 141.79999999999916,
                    "velocity": 0.3543307086614173,
                    "duration": 0.18999999999999773
                },
                {
                    "name": "B2",
                    "midi": 47,
                    "time": 141.79999999999916,
                    "velocity": 0.30708661417322836,
                    "duration": 0.18999999999999773
                },
                {
                    "name": "B2",
                    "midi": 47,
                    "time": 141.99999999999915,
                    "velocity": 0.30708661417322836,
                    "duration": 0.18999999999999773
                },
                {
                    "name": "D#3",
                    "midi": 51,
                    "time": 141.99999999999915,
                    "velocity": 0.3543307086614173,
                    "duration": 0.18999999999999773
                },
                {
                    "name": "B2",
                    "midi": 47,
                    "time": 142.19999999999914,
                    "velocity": 0.30708661417322836,
                    "duration": 0.18999999999999773
                },
                {
                    "name": "D#3",
                    "midi": 51,
                    "time": 142.19999999999914,
                    "velocity": 0.36220472440944884,
                    "duration": 0.18999999999999773
                },
                {
                    "name": "B2",
                    "midi": 47,
                    "time": 142.39999999999912,
                    "velocity": 0.36220472440944884,
                    "duration": 0.18999999999999773
                },
                {
                    "name": "D#3",
                    "midi": 51,
                    "time": 142.39999999999912,
                    "velocity": 0.36220472440944884,
                    "duration": 0.18999999999999773
                },
                {
                    "name": "B2",
                    "midi": 47,
                    "time": 142.5999999999991,
                    "velocity": 0.30708661417322836,
                    "duration": 0.18999999999999773
                },
                {
                    "name": "D#3",
                    "midi": 51,
                    "time": 142.5999999999991,
                    "velocity": 0.36220472440944884,
                    "duration": 0.18999999999999773
                },
                {
                    "name": "D#2",
                    "midi": 39,
                    "time": 142.7999999999991,
                    "velocity": 0.48031496062992124,
                    "duration": 1.1999999999999602
                },
                {
                    "name": "C#3",
                    "midi": 49,
                    "time": 142.9999999999991,
                    "velocity": 0.30708661417322836,
                    "duration": 0.18999999999999773
                },
                {
                    "name": "D#3",
                    "midi": 51,
                    "time": 142.9999999999991,
                    "velocity": 0.36220472440944884,
                    "duration": 0.18999999999999773
                },
                {
                    "name": "A#2",
                    "midi": 46,
                    "time": 142.9999999999991,
                    "velocity": 0.30708661417322836,
                    "duration": 0.18999999999999773
                },
                {
                    "name": "D#3",
                    "midi": 51,
                    "time": 143.19999999999908,
                    "velocity": 0.36220472440944884,
                    "duration": 0.19000000000002615
                },
                {
                    "name": "C#3",
                    "midi": 49,
                    "time": 143.19999999999908,
                    "velocity": 0.30708661417322836,
                    "duration": 0.19000000000002615
                },
                {
                    "name": "A#2",
                    "midi": 46,
                    "time": 143.19999999999908,
                    "velocity": 0.30708661417322836,
                    "duration": 0.19000000000002615
                },
                {
                    "name": "D#3",
                    "midi": 51,
                    "time": 143.3999999999991,
                    "velocity": 0.36220472440944884,
                    "duration": 0.18999999999999773
                },
                {
                    "name": "C#3",
                    "midi": 49,
                    "time": 143.3999999999991,
                    "velocity": 0.30708661417322836,
                    "duration": 0.18999999999999773
                },
                {
                    "name": "A#2",
                    "midi": 46,
                    "time": 143.3999999999991,
                    "velocity": 0.30708661417322836,
                    "duration": 0.18999999999999773
                },
                {
                    "name": "D#3",
                    "midi": 51,
                    "time": 143.59999999999908,
                    "velocity": 0.3543307086614173,
                    "duration": 0.18999999999999773
                },
                {
                    "name": "C#3",
                    "midi": 49,
                    "time": 143.59999999999908,
                    "velocity": 0.3543307086614173,
                    "duration": 0.18999999999999773
                },
                {
                    "name": "A#2",
                    "midi": 46,
                    "time": 143.59999999999908,
                    "velocity": 0.30708661417322836,
                    "duration": 0.18999999999999773
                },
                {
                    "name": "D#3",
                    "midi": 51,
                    "time": 143.79999999999907,
                    "velocity": 0.3543307086614173,
                    "duration": 0.18999999999999773
                },
                {
                    "name": "C#3",
                    "midi": 49,
                    "time": 143.79999999999907,
                    "velocity": 0.3543307086614173,
                    "duration": 0.18999999999999773
                },
                {
                    "name": "A#2",
                    "midi": 46,
                    "time": 143.79999999999907,
                    "velocity": 0.3543307086614173,
                    "duration": 0.18999999999999773
                },
                {
                    "name": "G#2",
                    "midi": 44,
                    "time": 143.99999999999906,
                    "velocity": 0.4094488188976378,
                    "duration": 1.1999999999999318
                },
                {
                    "name": "D#3",
                    "midi": 51,
                    "time": 144.19999999999905,
                    "velocity": 0.2047244094488189,
                    "duration": 0.18999999999999773
                },
                {
                    "name": "B2",
                    "midi": 47,
                    "time": 144.19999999999905,
                    "velocity": 0.1732283464566929,
                    "duration": 0.18999999999999773
                },
                {
                    "name": "D#3",
                    "midi": 51,
                    "time": 144.39999999999904,
                    "velocity": 0.2047244094488189,
                    "duration": 0.18999999999999773
                },
                {
                    "name": "B2",
                    "midi": 47,
                    "time": 144.39999999999904,
                    "velocity": 0.1732283464566929,
                    "duration": 0.18999999999999773
                },
                {
                    "name": "D#3",
                    "midi": 51,
                    "time": 144.59999999999903,
                    "velocity": 0.2047244094488189,
                    "duration": 0.18999999999999773
                },
                {
                    "name": "B2",
                    "midi": 47,
                    "time": 144.59999999999903,
                    "velocity": 0.1732283464566929,
                    "duration": 0.18999999999999773
                },
                {
                    "name": "D#3",
                    "midi": 51,
                    "time": 144.79999999999902,
                    "velocity": 0.2047244094488189,
                    "duration": 0.18999999999999773
                },
                {
                    "name": "B2",
                    "midi": 47,
                    "time": 144.79999999999902,
                    "velocity": 0.2047244094488189,
                    "duration": 0.18999999999999773
                },
                {
                    "name": "D#3",
                    "midi": 51,
                    "time": 144.999999999999,
                    "velocity": 0.2047244094488189,
                    "duration": 0.18999999999999773
                },
                {
                    "name": "B2",
                    "midi": 47,
                    "time": 144.999999999999,
                    "velocity": 0.1732283464566929,
                    "duration": 0.18999999999999773
                },
                {
                    "name": "G#2",
                    "midi": 44,
                    "time": 145.199999999999,
                    "velocity": 0.4094488188976378,
                    "duration": 1.1999999999999318
                },
                {
                    "name": "D#3",
                    "midi": 51,
                    "time": 145.39999999999898,
                    "velocity": 0.1732283464566929,
                    "duration": 0.18999999999999773
                },
                {
                    "name": "F#3",
                    "midi": 54,
                    "time": 145.39999999999898,
                    "velocity": 0.2047244094488189,
                    "duration": 0.18999999999999773
                },
                {
                    "name": "F#3",
                    "midi": 54,
                    "time": 145.59999999999897,
                    "velocity": 0.2283464566929134,
                    "duration": 0.18999999999999773
                },
                {
                    "name": "D#3",
                    "midi": 51,
                    "time": 145.59999999999897,
                    "velocity": 0.1889763779527559,
                    "duration": 0.18999999999999773
                },
                {
                    "name": "F#3",
                    "midi": 54,
                    "time": 145.79999999999896,
                    "velocity": 0.2755905511811024,
                    "duration": 0.18999999999999773
                },
                {
                    "name": "D#3",
                    "midi": 51,
                    "time": 145.79999999999896,
                    "velocity": 0.2283464566929134,
                    "duration": 0.18999999999999773
                },
                {
                    "name": "F#3",
                    "midi": 54,
                    "time": 145.99999999999895,
                    "velocity": 0.2755905511811024,
                    "duration": 0.18999999999999773
                },
                {
                    "name": "D#3",
                    "midi": 51,
                    "time": 145.99999999999895,
                    "velocity": 0.2283464566929134,
                    "duration": 0.18999999999999773
                },
                {
                    "name": "F#3",
                    "midi": 54,
                    "time": 146.19999999999894,
                    "velocity": 0.2283464566929134,
                    "duration": 0.18999999999999773
                },
                {
                    "name": "D#3",
                    "midi": 51,
                    "time": 146.19999999999894,
                    "velocity": 0.1889763779527559,
                    "duration": 0.18999999999999773
                },
                {
                    "name": "C#2",
                    "midi": 37,
                    "time": 146.39999999999893,
                    "velocity": 0.33070866141732286,
                    "duration": 0.18999999999999773
                },
                {
                    "name": "E3",
                    "midi": 52,
                    "time": 146.59999999999891,
                    "velocity": 0.2047244094488189,
                    "duration": 0.18999999999999773
                },
                {
                    "name": "C#3",
                    "midi": 49,
                    "time": 146.59999999999891,
                    "velocity": 0.1732283464566929,
                    "duration": 0.18999999999999773
                },
                {
                    "name": "G#2",
                    "midi": 44,
                    "time": 146.59999999999891,
                    "velocity": 0.1732283464566929,
                    "duration": 0.18999999999999773
                },
                {
                    "name": "G#2",
                    "midi": 44,
                    "time": 146.7999999999989,
                    "velocity": 0.1732283464566929,
                    "duration": 0.18999999999999773
                },
                {
                    "name": "C#3",
                    "midi": 49,
                    "time": 146.7999999999989,
                    "velocity": 0.1732283464566929,
                    "duration": 0.18999999999999773
                },
                {
                    "name": "E3",
                    "midi": 52,
                    "time": 146.7999999999989,
                    "velocity": 0.2047244094488189,
                    "duration": 0.18999999999999773
                },
                {
                    "name": "G#2",
                    "midi": 44,
                    "time": 146.9999999999989,
                    "velocity": 0.1732283464566929,
                    "duration": 0.18999999999999773
                },
                {
                    "name": "C#3",
                    "midi": 49,
                    "time": 146.9999999999989,
                    "velocity": 0.1732283464566929,
                    "duration": 0.18999999999999773
                },
                {
                    "name": "E3",
                    "midi": 52,
                    "time": 146.9999999999989,
                    "velocity": 0.2047244094488189,
                    "duration": 0.18999999999999773
                },
                {
                    "name": "G#2",
                    "midi": 44,
                    "time": 147.19999999999888,
                    "velocity": 0.1732283464566929,
                    "duration": 0.18999999999999773
                },
                {
                    "name": "C#3",
                    "midi": 49,
                    "time": 147.19999999999888,
                    "velocity": 0.1732283464566929,
                    "duration": 0.18999999999999773
                },
                {
                    "name": "E3",
                    "midi": 52,
                    "time": 147.19999999999888,
                    "velocity": 0.2047244094488189,
                    "duration": 0.18999999999999773
                },
                {
                    "name": "G#2",
                    "midi": 44,
                    "time": 147.39999999999887,
                    "velocity": 0.1732283464566929,
                    "duration": 0.18999999999999773
                },
                {
                    "name": "C#3",
                    "midi": 49,
                    "time": 147.39999999999887,
                    "velocity": 0.1732283464566929,
                    "duration": 0.18999999999999773
                },
                {
                    "name": "E3",
                    "midi": 52,
                    "time": 147.39999999999887,
                    "velocity": 0.2047244094488189,
                    "duration": 0.18999999999999773
                },
                {
                    "name": "G#2",
                    "midi": 44,
                    "time": 147.59999999999886,
                    "velocity": 0.1732283464566929,
                    "duration": 0.18999999999999773
                },
                {
                    "name": "C#3",
                    "midi": 49,
                    "time": 147.59999999999886,
                    "velocity": 0.1732283464566929,
                    "duration": 0.18999999999999773
                },
                {
                    "name": "E3",
                    "midi": 52,
                    "time": 147.59999999999886,
                    "velocity": 0.2047244094488189,
                    "duration": 0.18999999999999773
                },
                {
                    "name": "G#2",
                    "midi": 44,
                    "time": 147.79999999999885,
                    "velocity": 0.1732283464566929,
                    "duration": 0.18999999999999773
                },
                {
                    "name": "C#3",
                    "midi": 49,
                    "time": 147.79999999999885,
                    "velocity": 0.1732283464566929,
                    "duration": 0.18999999999999773
                },
                {
                    "name": "E3",
                    "midi": 52,
                    "time": 147.79999999999885,
                    "velocity": 0.2047244094488189,
                    "duration": 0.18999999999999773
                },
                {
                    "name": "G#2",
                    "midi": 44,
                    "time": 147.99999999999883,
                    "velocity": 0.1732283464566929,
                    "duration": 0.18999999999999773
                },
                {
                    "name": "C#3",
                    "midi": 49,
                    "time": 147.99999999999883,
                    "velocity": 0.1732283464566929,
                    "duration": 0.18999999999999773
                },
                {
                    "name": "E3",
                    "midi": 52,
                    "time": 147.99999999999883,
                    "velocity": 0.2047244094488189,
                    "duration": 0.18999999999999773
                },
                {
                    "name": "G#2",
                    "midi": 44,
                    "time": 148.19999999999882,
                    "velocity": 0.1732283464566929,
                    "duration": 0.18999999999999773
                },
                {
                    "name": "C#3",
                    "midi": 49,
                    "time": 148.19999999999882,
                    "velocity": 0.1732283464566929,
                    "duration": 0.18999999999999773
                },
                {
                    "name": "E3",
                    "midi": 52,
                    "time": 148.19999999999882,
                    "velocity": 0.2047244094488189,
                    "duration": 0.18999999999999773
                },
                {
                    "name": "G#2",
                    "midi": 44,
                    "time": 148.3999999999988,
                    "velocity": 0.1732283464566929,
                    "duration": 0.18999999999999773
                },
                {
                    "name": "C#3",
                    "midi": 49,
                    "time": 148.3999999999988,
                    "velocity": 0.1732283464566929,
                    "duration": 0.18999999999999773
                },
                {
                    "name": "E3",
                    "midi": 52,
                    "time": 148.3999999999988,
                    "velocity": 0.2047244094488189,
                    "duration": 0.18999999999999773
                },
                {
                    "name": "C#3",
                    "midi": 49,
                    "time": 148.5999999999988,
                    "velocity": 0.1732283464566929,
                    "duration": 0.18999999999999773
                },
                {
                    "name": "G#2",
                    "midi": 44,
                    "time": 148.5999999999988,
                    "velocity": 0.1732283464566929,
                    "duration": 0.18999999999999773
                },
                {
                    "name": "E3",
                    "midi": 52,
                    "time": 148.5999999999988,
                    "velocity": 0.2047244094488189,
                    "duration": 0.18999999999999773
                },
                {
                    "name": "C2",
                    "midi": 36,
                    "time": 148.7999999999988,
                    "velocity": 0.3228346456692913,
                    "duration": 0.18999999999999773
                },
                {
                    "name": "D#3",
                    "midi": 51,
                    "time": 148.99999999999878,
                    "velocity": 0.1732283464566929,
                    "duration": 0.18999999999999773
                },
                {
                    "name": "F#3",
                    "midi": 54,
                    "time": 148.99999999999878,
                    "velocity": 0.2047244094488189,
                    "duration": 0.18999999999999773
                },
                {
                    "name": "G#2",
                    "midi": 44,
                    "time": 148.99999999999878,
                    "velocity": 0.1732283464566929,
                    "duration": 0.18999999999999773
                },
                {
                    "name": "G#2",
                    "midi": 44,
                    "time": 149.19999999999877,
                    "velocity": 0.1732283464566929,
                    "duration": 0.18999999999999773
                },
                {
                    "name": "D#3",
                    "midi": 51,
                    "time": 149.19999999999877,
                    "velocity": 0.1732283464566929,
                    "duration": 0.18999999999999773
                },
                {
                    "name": "F#3",
                    "midi": 54,
                    "time": 149.19999999999877,
                    "velocity": 0.2047244094488189,
                    "duration": 0.18999999999999773
                },
                {
                    "name": "G#2",
                    "midi": 44,
                    "time": 149.39999999999876,
                    "velocity": 0.1732283464566929,
                    "duration": 0.18999999999999773
                },
                {
                    "name": "D#3",
                    "midi": 51,
                    "time": 149.39999999999876,
                    "velocity": 0.1732283464566929,
                    "duration": 0.18999999999999773
                },
                {
                    "name": "F#3",
                    "midi": 54,
                    "time": 149.39999999999876,
                    "velocity": 0.2047244094488189,
                    "duration": 0.18999999999999773
                },
                {
                    "name": "G#2",
                    "midi": 44,
                    "time": 149.59999999999874,
                    "velocity": 0.1732283464566929,
                    "duration": 0.18999999999999773
                },
                {
                    "name": "D#3",
                    "midi": 51,
                    "time": 149.59999999999874,
                    "velocity": 0.1732283464566929,
                    "duration": 0.18999999999999773
                },
                {
                    "name": "F#3",
                    "midi": 54,
                    "time": 149.59999999999874,
                    "velocity": 0.2047244094488189,
                    "duration": 0.18999999999999773
                },
                {
                    "name": "G#2",
                    "midi": 44,
                    "time": 149.79999999999873,
                    "velocity": 0.1732283464566929,
                    "duration": 0.18999999999999773
                },
                {
                    "name": "D#3",
                    "midi": 51,
                    "time": 149.79999999999873,
                    "velocity": 0.1732283464566929,
                    "duration": 0.18999999999999773
                },
                {
                    "name": "F#3",
                    "midi": 54,
                    "time": 149.79999999999873,
                    "velocity": 0.2047244094488189,
                    "duration": 0.18999999999999773
                },
                {
                    "name": "G#2",
                    "midi": 44,
                    "time": 149.99999999999872,
                    "velocity": 0.1732283464566929,
                    "duration": 0.18999999999999773
                },
                {
                    "name": "D#3",
                    "midi": 51,
                    "time": 149.99999999999872,
                    "velocity": 0.1732283464566929,
                    "duration": 0.18999999999999773
                },
                {
                    "name": "F#3",
                    "midi": 54,
                    "time": 149.99999999999872,
                    "velocity": 0.2047244094488189,
                    "duration": 0.18999999999999773
                },
                {
                    "name": "G#2",
                    "midi": 44,
                    "time": 150.1999999999987,
                    "velocity": 0.1732283464566929,
                    "duration": 0.18999999999999773
                },
                {
                    "name": "D#3",
                    "midi": 51,
                    "time": 150.1999999999987,
                    "velocity": 0.1732283464566929,
                    "duration": 0.18999999999999773
                },
                {
                    "name": "F#3",
                    "midi": 54,
                    "time": 150.1999999999987,
                    "velocity": 0.2047244094488189,
                    "duration": 0.18999999999999773
                },
                {
                    "name": "G#2",
                    "midi": 44,
                    "time": 150.3999999999987,
                    "velocity": 0.1732283464566929,
                    "duration": 0.18999999999999773
                },
                {
                    "name": "D#3",
                    "midi": 51,
                    "time": 150.3999999999987,
                    "velocity": 0.1732283464566929,
                    "duration": 0.18999999999999773
                },
                {
                    "name": "F#3",
                    "midi": 54,
                    "time": 150.3999999999987,
                    "velocity": 0.2047244094488189,
                    "duration": 0.18999999999999773
                },
                {
                    "name": "G#2",
                    "midi": 44,
                    "time": 150.5999999999987,
                    "velocity": 0.1732283464566929,
                    "duration": 0.18999999999999773
                },
                {
                    "name": "D#3",
                    "midi": 51,
                    "time": 150.5999999999987,
                    "velocity": 0.1732283464566929,
                    "duration": 0.18999999999999773
                },
                {
                    "name": "F#3",
                    "midi": 54,
                    "time": 150.5999999999987,
                    "velocity": 0.2047244094488189,
                    "duration": 0.18999999999999773
                },
                {
                    "name": "D#3",
                    "midi": 51,
                    "time": 150.79999999999868,
                    "velocity": 0.1732283464566929,
                    "duration": 0.18999999999999773
                },
                {
                    "name": "G#2",
                    "midi": 44,
                    "time": 150.79999999999868,
                    "velocity": 0.1732283464566929,
                    "duration": 0.18999999999999773
                },
                {
                    "name": "F#3",
                    "midi": 54,
                    "time": 150.79999999999868,
                    "velocity": 0.2047244094488189,
                    "duration": 0.18999999999999773
                },
                {
                    "name": "G#2",
                    "midi": 44,
                    "time": 150.99999999999866,
                    "velocity": 0.1732283464566929,
                    "duration": 0.18999999999999773
                },
                {
                    "name": "D#3",
                    "midi": 51,
                    "time": 150.99999999999866,
                    "velocity": 0.1732283464566929,
                    "duration": 0.18999999999999773
                },
                {
                    "name": "F#3",
                    "midi": 54,
                    "time": 150.99999999999866,
                    "velocity": 0.2047244094488189,
                    "duration": 0.18999999999999773
                },
                {
                    "name": "C#2",
                    "midi": 37,
                    "time": 151.19999999999865,
                    "velocity": 0.31496062992125984,
                    "duration": 0.18999999999999773
                },
                {
                    "name": "E3",
                    "midi": 52,
                    "time": 151.39999999999864,
                    "velocity": 0.2047244094488189,
                    "duration": 0.18999999999999773
                },
                {
                    "name": "C#3",
                    "midi": 49,
                    "time": 151.39999999999864,
                    "velocity": 0.1732283464566929,
                    "duration": 0.18999999999999773
                },
                {
                    "name": "G#2",
                    "midi": 44,
                    "time": 151.39999999999864,
                    "velocity": 0.1732283464566929,
                    "duration": 0.18999999999999773
                },
                {
                    "name": "G#2",
                    "midi": 44,
                    "time": 151.59999999999863,
                    "velocity": 0.1732283464566929,
                    "duration": 0.18999999999999773
                },
                {
                    "name": "C#3",
                    "midi": 49,
                    "time": 151.59999999999863,
                    "velocity": 0.1732283464566929,
                    "duration": 0.18999999999999773
                },
                {
                    "name": "E3",
                    "midi": 52,
                    "time": 151.59999999999863,
                    "velocity": 0.2047244094488189,
                    "duration": 0.18999999999999773
                },
                {
                    "name": "G#2",
                    "midi": 44,
                    "time": 151.79999999999862,
                    "velocity": 0.1732283464566929,
                    "duration": 0.18999999999999773
                },
                {
                    "name": "C#3",
                    "midi": 49,
                    "time": 151.79999999999862,
                    "velocity": 0.1732283464566929,
                    "duration": 0.18999999999999773
                },
                {
                    "name": "E3",
                    "midi": 52,
                    "time": 151.79999999999862,
                    "velocity": 0.2047244094488189,
                    "duration": 0.18999999999999773
                },
                {
                    "name": "G#2",
                    "midi": 44,
                    "time": 151.9999999999986,
                    "velocity": 0.1732283464566929,
                    "duration": 0.18999999999999773
                },
                {
                    "name": "C#3",
                    "midi": 49,
                    "time": 151.9999999999986,
                    "velocity": 0.1732283464566929,
                    "duration": 0.18999999999999773
                },
                {
                    "name": "E3",
                    "midi": 52,
                    "time": 151.9999999999986,
                    "velocity": 0.2047244094488189,
                    "duration": 0.18999999999999773
                },
                {
                    "name": "G#2",
                    "midi": 44,
                    "time": 152.1999999999986,
                    "velocity": 0.1732283464566929,
                    "duration": 0.18999999999999773
                },
                {
                    "name": "C#3",
                    "midi": 49,
                    "time": 152.1999999999986,
                    "velocity": 0.1732283464566929,
                    "duration": 0.18999999999999773
                },
                {
                    "name": "E3",
                    "midi": 52,
                    "time": 152.1999999999986,
                    "velocity": 0.2047244094488189,
                    "duration": 0.18999999999999773
                },
                {
                    "name": "G#2",
                    "midi": 44,
                    "time": 152.39999999999858,
                    "velocity": 0.1732283464566929,
                    "duration": 0.18999999999999773
                },
                {
                    "name": "C#3",
                    "midi": 49,
                    "time": 152.39999999999858,
                    "velocity": 0.1732283464566929,
                    "duration": 0.18999999999999773
                },
                {
                    "name": "E3",
                    "midi": 52,
                    "time": 152.39999999999858,
                    "velocity": 0.2047244094488189,
                    "duration": 0.18999999999999773
                },
                {
                    "name": "G#2",
                    "midi": 44,
                    "time": 152.59999999999857,
                    "velocity": 0.1732283464566929,
                    "duration": 0.18999999999999773
                },
                {
                    "name": "C#3",
                    "midi": 49,
                    "time": 152.59999999999857,
                    "velocity": 0.1732283464566929,
                    "duration": 0.18999999999999773
                },
                {
                    "name": "E3",
                    "midi": 52,
                    "time": 152.59999999999857,
                    "velocity": 0.2047244094488189,
                    "duration": 0.18999999999999773
                },
                {
                    "name": "G#2",
                    "midi": 44,
                    "time": 152.79999999999856,
                    "velocity": 0.1732283464566929,
                    "duration": 0.18999999999999773
                },
                {
                    "name": "C#3",
                    "midi": 49,
                    "time": 152.79999999999856,
                    "velocity": 0.1732283464566929,
                    "duration": 0.18999999999999773
                },
                {
                    "name": "E3",
                    "midi": 52,
                    "time": 152.79999999999856,
                    "velocity": 0.2047244094488189,
                    "duration": 0.18999999999999773
                },
                {
                    "name": "G#2",
                    "midi": 44,
                    "time": 152.99999999999855,
                    "velocity": 0.1732283464566929,
                    "duration": 0.18999999999999773
                },
                {
                    "name": "C#3",
                    "midi": 49,
                    "time": 152.99999999999855,
                    "velocity": 0.1732283464566929,
                    "duration": 0.18999999999999773
                },
                {
                    "name": "E3",
                    "midi": 52,
                    "time": 152.99999999999855,
                    "velocity": 0.2047244094488189,
                    "duration": 0.18999999999999773
                },
                {
                    "name": "G#2",
                    "midi": 44,
                    "time": 153.19999999999854,
                    "velocity": 0.1732283464566929,
                    "duration": 0.18999999999999773
                },
                {
                    "name": "C#3",
                    "midi": 49,
                    "time": 153.19999999999854,
                    "velocity": 0.1732283464566929,
                    "duration": 0.18999999999999773
                },
                {
                    "name": "E3",
                    "midi": 52,
                    "time": 153.19999999999854,
                    "velocity": 0.2047244094488189,
                    "duration": 0.18999999999999773
                },
                {
                    "name": "C#3",
                    "midi": 49,
                    "time": 153.39999999999853,
                    "velocity": 0.1732283464566929,
                    "duration": 0.18999999999999773
                },
                {
                    "name": "G#2",
                    "midi": 44,
                    "time": 153.39999999999853,
                    "velocity": 0.1732283464566929,
                    "duration": 0.18999999999999773
                },
                {
                    "name": "E3",
                    "midi": 52,
                    "time": 153.39999999999853,
                    "velocity": 0.2047244094488189,
                    "duration": 0.18999999999999773
                },
                {
                    "name": "D#2",
                    "midi": 39,
                    "time": 153.59999999999852,
                    "velocity": 0.30708661417322836,
                    "duration": 0.18999999999999773
                },
                {
                    "name": "D#3",
                    "midi": 51,
                    "time": 153.7999999999985,
                    "velocity": 0.1732283464566929,
                    "duration": 0.18999999999999773
                },
                {
                    "name": "F#3",
                    "midi": 54,
                    "time": 153.7999999999985,
                    "velocity": 0.2047244094488189,
                    "duration": 0.18999999999999773
                },
                {
                    "name": "G#2",
                    "midi": 44,
                    "time": 153.7999999999985,
                    "velocity": 0.1732283464566929,
                    "duration": 0.18999999999999773
                },
                {
                    "name": "G#2",
                    "midi": 44,
                    "time": 153.9999999999985,
                    "velocity": 0.1732283464566929,
                    "duration": 0.18999999999999773
                },
                {
                    "name": "D#3",
                    "midi": 51,
                    "time": 153.9999999999985,
                    "velocity": 0.1732283464566929,
                    "duration": 0.18999999999999773
                },
                {
                    "name": "F#3",
                    "midi": 54,
                    "time": 153.9999999999985,
                    "velocity": 0.2047244094488189,
                    "duration": 0.18999999999999773
                },
                {
                    "name": "G#2",
                    "midi": 44,
                    "time": 154.19999999999848,
                    "velocity": 0.1732283464566929,
                    "duration": 0.18999999999999773
                },
                {
                    "name": "D#3",
                    "midi": 51,
                    "time": 154.19999999999848,
                    "velocity": 0.1732283464566929,
                    "duration": 0.18999999999999773
                },
                {
                    "name": "F#3",
                    "midi": 54,
                    "time": 154.19999999999848,
                    "velocity": 0.2047244094488189,
                    "duration": 0.18999999999999773
                },
                {
                    "name": "G#2",
                    "midi": 44,
                    "time": 154.39999999999847,
                    "velocity": 0.1732283464566929,
                    "duration": 0.18999999999999773
                },
                {
                    "name": "D#3",
                    "midi": 51,
                    "time": 154.39999999999847,
                    "velocity": 0.1732283464566929,
                    "duration": 0.18999999999999773
                },
                {
                    "name": "F#3",
                    "midi": 54,
                    "time": 154.39999999999847,
                    "velocity": 0.2047244094488189,
                    "duration": 0.18999999999999773
                },
                {
                    "name": "G#2",
                    "midi": 44,
                    "time": 154.59999999999846,
                    "velocity": 0.1732283464566929,
                    "duration": 0.18999999999999773
                },
                {
                    "name": "D#3",
                    "midi": 51,
                    "time": 154.59999999999846,
                    "velocity": 0.1732283464566929,
                    "duration": 0.18999999999999773
                },
                {
                    "name": "F#3",
                    "midi": 54,
                    "time": 154.59999999999846,
                    "velocity": 0.2047244094488189,
                    "duration": 0.18999999999999773
                },
                {
                    "name": "G#2",
                    "midi": 44,
                    "time": 154.79999999999845,
                    "velocity": 0.1732283464566929,
                    "duration": 0.18999999999999773
                },
                {
                    "name": "D#3",
                    "midi": 51,
                    "time": 154.79999999999845,
                    "velocity": 0.1732283464566929,
                    "duration": 0.18999999999999773
                },
                {
                    "name": "F#3",
                    "midi": 54,
                    "time": 154.79999999999845,
                    "velocity": 0.2047244094488189,
                    "duration": 0.18999999999999773
                },
                {
                    "name": "G#2",
                    "midi": 44,
                    "time": 154.99999999999844,
                    "velocity": 0.1732283464566929,
                    "duration": 0.18999999999999773
                },
                {
                    "name": "D#3",
                    "midi": 51,
                    "time": 154.99999999999844,
                    "velocity": 0.1732283464566929,
                    "duration": 0.18999999999999773
                },
                {
                    "name": "F#3",
                    "midi": 54,
                    "time": 154.99999999999844,
                    "velocity": 0.2047244094488189,
                    "duration": 0.18999999999999773
                },
                {
                    "name": "G#2",
                    "midi": 44,
                    "time": 155.19999999999843,
                    "velocity": 0.1732283464566929,
                    "duration": 0.18999999999999773
                },
                {
                    "name": "D#3",
                    "midi": 51,
                    "time": 155.19999999999843,
                    "velocity": 0.1732283464566929,
                    "duration": 0.18999999999999773
                },
                {
                    "name": "F#3",
                    "midi": 54,
                    "time": 155.19999999999843,
                    "velocity": 0.2047244094488189,
                    "duration": 0.18999999999999773
                },
                {
                    "name": "G#2",
                    "midi": 44,
                    "time": 155.3999999999984,
                    "velocity": 0.1732283464566929,
                    "duration": 0.18999999999999773
                },
                {
                    "name": "D#3",
                    "midi": 51,
                    "time": 155.3999999999984,
                    "velocity": 0.1732283464566929,
                    "duration": 0.18999999999999773
                },
                {
                    "name": "F#3",
                    "midi": 54,
                    "time": 155.3999999999984,
                    "velocity": 0.2047244094488189,
                    "duration": 0.18999999999999773
                },
                {
                    "name": "D#3",
                    "midi": 51,
                    "time": 155.5999999999984,
                    "velocity": 0.1732283464566929,
                    "duration": 0.18999999999999773
                },
                {
                    "name": "G#2",
                    "midi": 44,
                    "time": 155.5999999999984,
                    "velocity": 0.1732283464566929,
                    "duration": 0.18999999999999773
                },
                {
                    "name": "F#3",
                    "midi": 54,
                    "time": 155.5999999999984,
                    "velocity": 0.2047244094488189,
                    "duration": 0.18999999999999773
                },
                {
                    "name": "G#2",
                    "midi": 44,
                    "time": 155.7999999999984,
                    "velocity": 0.1732283464566929,
                    "duration": 0.18999999999999773
                },
                {
                    "name": "D#3",
                    "midi": 51,
                    "time": 155.7999999999984,
                    "velocity": 0.1732283464566929,
                    "duration": 0.18999999999999773
                },
                {
                    "name": "F#3",
                    "midi": 54,
                    "time": 155.7999999999984,
                    "velocity": 0.2047244094488189,
                    "duration": 0.18999999999999773
                },
                {
                    "name": "E2",
                    "midi": 40,
                    "time": 155.99999999999838,
                    "velocity": 0.33070866141732286,
                    "duration": 0.18999999999999773
                },
                {
                    "name": "E3",
                    "midi": 52,
                    "time": 156.19999999999837,
                    "velocity": 0.2755905511811024,
                    "duration": 0.18999999999999773
                },
                {
                    "name": "A2",
                    "midi": 45,
                    "time": 156.19999999999837,
                    "velocity": 0.2283464566929134,
                    "duration": 0.18999999999999773
                },
                {
                    "name": "A2",
                    "midi": 45,
                    "time": 156.39999999999836,
                    "velocity": 0.2283464566929134,
                    "duration": 0.18999999999999773
                },
                {
                    "name": "E3",
                    "midi": 52,
                    "time": 156.39999999999836,
                    "velocity": 0.2755905511811024,
                    "duration": 0.18999999999999773
                },
                {
                    "name": "A2",
                    "midi": 45,
                    "time": 156.59999999999835,
                    "velocity": 0.2283464566929134,
                    "duration": 0.18999999999999773
                },
                {
                    "name": "E3",
                    "midi": 52,
                    "time": 156.59999999999835,
                    "velocity": 0.2755905511811024,
                    "duration": 0.18999999999999773
                },
                {
                    "name": "A2",
                    "midi": 45,
                    "time": 156.79999999999833,
                    "velocity": 0.2283464566929134,
                    "duration": 0.18999999999999773
                },
                {
                    "name": "E3",
                    "midi": 52,
                    "time": 156.79999999999833,
                    "velocity": 0.2755905511811024,
                    "duration": 0.18999999999999773
                },
                {
                    "name": "A2",
                    "midi": 45,
                    "time": 156.99999999999832,
                    "velocity": 0.2283464566929134,
                    "duration": 0.18999999999999773
                },
                {
                    "name": "E3",
                    "midi": 52,
                    "time": 156.99999999999832,
                    "velocity": 0.2755905511811024,
                    "duration": 0.18999999999999773
                },
                {
                    "name": "E3",
                    "midi": 52,
                    "time": 157.1999999999983,
                    "velocity": 0.2755905511811024,
                    "duration": 0.19999999999998863
                },
                {
                    "name": "A2",
                    "midi": 45,
                    "time": 157.1999999999983,
                    "velocity": 0.2283464566929134,
                    "duration": 0.19999999999998863
                },
                {
                    "name": "A2",
                    "midi": 45,
                    "time": 157.3999999999983,
                    "velocity": 0.2283464566929134,
                    "duration": 0.19999999999998863
                },
                {
                    "name": "E3",
                    "midi": 52,
                    "time": 157.3999999999983,
                    "velocity": 0.2755905511811024,
                    "duration": 0.19999999999998863
                },
                {
                    "name": "E2",
                    "midi": 40,
                    "time": 157.5999999999983,
                    "velocity": 0.2755905511811024,
                    "duration": 0.39999999999997726
                },
                {
                    "name": "E3",
                    "midi": 52,
                    "time": 157.79999999999828,
                    "velocity": 0.2755905511811024,
                    "duration": 0.19999999999998863
                },
                {
                    "name": "A2",
                    "midi": 45,
                    "time": 157.79999999999828,
                    "velocity": 0.2283464566929134,
                    "duration": 0.19999999999998863
                },
                {
                    "name": "E2",
                    "midi": 40,
                    "time": 157.99999999999827,
                    "velocity": 0.2755905511811024,
                    "duration": 0.39999999999997726
                },
                {
                    "name": "E3",
                    "midi": 52,
                    "time": 158.19999999999825,
                    "velocity": 0.2755905511811024,
                    "duration": 0.19999999999998863
                },
                {
                    "name": "A2",
                    "midi": 45,
                    "time": 158.19999999999825,
                    "velocity": 0.2283464566929134,
                    "duration": 0.19999999999998863
                },
                {
                    "name": "B1",
                    "midi": 35,
                    "time": 158.39999999999824,
                    "velocity": 0.4094488188976378,
                    "duration": 0.18999999999999773
                },
                {
                    "name": "B2",
                    "midi": 47,
                    "time": 158.59999999999823,
                    "velocity": 0.3464566929133858,
                    "duration": 0.18999999999999773
                },
                {
                    "name": "E2",
                    "midi": 40,
                    "time": 158.59999999999823,
                    "velocity": 0.29133858267716534,
                    "duration": 0.18999999999999773
                },
                {
                    "name": "E2",
                    "midi": 40,
                    "time": 158.79999999999822,
                    "velocity": 0.29133858267716534,
                    "duration": 0.18999999999999773
                },
                {
                    "name": "B2",
                    "midi": 47,
                    "time": 158.79999999999822,
                    "velocity": 0.3464566929133858,
                    "duration": 0.18999999999999773
                },
                {
                    "name": "E2",
                    "midi": 40,
                    "time": 158.9999999999982,
                    "velocity": 0.29133858267716534,
                    "duration": 0.18999999999999773
                },
                {
                    "name": "B2",
                    "midi": 47,
                    "time": 158.9999999999982,
                    "velocity": 0.3464566929133858,
                    "duration": 0.18999999999999773
                },
                {
                    "name": "B2",
                    "midi": 47,
                    "time": 159.1999999999982,
                    "velocity": 0.3464566929133858,
                    "duration": 0.18999999999999773
                },
                {
                    "name": "E2",
                    "midi": 40,
                    "time": 159.1999999999982,
                    "velocity": 0.29133858267716534,
                    "duration": 0.18999999999999773
                },
                {
                    "name": "E2",
                    "midi": 40,
                    "time": 159.3999999999982,
                    "velocity": 0.29133858267716534,
                    "duration": 0.18999999999999773
                },
                {
                    "name": "B2",
                    "midi": 47,
                    "time": 159.3999999999982,
                    "velocity": 0.3464566929133858,
                    "duration": 0.18999999999999773
                },
                {
                    "name": "E2",
                    "midi": 40,
                    "time": 159.59999999999818,
                    "velocity": 0.29133858267716534,
                    "duration": 0.18999999999999773
                },
                {
                    "name": "B2",
                    "midi": 47,
                    "time": 159.59999999999818,
                    "velocity": 0.3464566929133858,
                    "duration": 0.18999999999999773
                },
                {
                    "name": "E2",
                    "midi": 40,
                    "time": 159.79999999999816,
                    "velocity": 0.29133858267716534,
                    "duration": 0.18999999999999773
                },
                {
                    "name": "B2",
                    "midi": 47,
                    "time": 159.79999999999816,
                    "velocity": 0.3464566929133858,
                    "duration": 0.18999999999999773
                },
                {
                    "name": "B1",
                    "midi": 35,
                    "time": 159.99999999999815,
                    "velocity": 0.3464566929133858,
                    "duration": 0.39999999999997726
                },
                {
                    "name": "E2",
                    "midi": 40,
                    "time": 160.19999999999814,
                    "velocity": 0.29133858267716534,
                    "duration": 0.19999999999998863
                },
                {
                    "name": "B2",
                    "midi": 47,
                    "time": 160.19999999999814,
                    "velocity": 0.3464566929133858,
                    "duration": 0.19999999999998863
                },
                {
                    "name": "E2",
                    "midi": 40,
                    "time": 160.39999999999813,
                    "velocity": 0.3464566929133858,
                    "duration": 0.39999999999997726
                },
                {
                    "name": "E3",
                    "midi": 52,
                    "time": 160.59999999999812,
                    "velocity": 0.3464566929133858,
                    "duration": 0.19999999999998863
                },
                {
                    "name": "B2",
                    "midi": 47,
                    "time": 160.59999999999812,
                    "velocity": 0.3464566929133858,
                    "duration": 0.19999999999998863
                },
                {
                    "name": "D#2",
                    "midi": 39,
                    "time": 160.7999999999981,
                    "velocity": 0.48031496062992124,
                    "duration": 1.1999999999999318
                },
                {
                    "name": "D#3",
                    "midi": 51,
                    "time": 160.9999999999981,
                    "velocity": 0.3543307086614173,
                    "duration": 0.18999999999999773
                },
                {
                    "name": "B2",
                    "midi": 47,
                    "time": 160.9999999999981,
                    "velocity": 0.30708661417322836,
                    "duration": 0.18999999999999773
                },
                {
                    "name": "B2",
                    "midi": 47,
                    "time": 161.19999999999808,
                    "velocity": 0.30708661417322836,
                    "duration": 0.18999999999999773
                },
                {
                    "name": "D#3",
                    "midi": 51,
                    "time": 161.19999999999808,
                    "velocity": 0.3543307086614173,
                    "duration": 0.18999999999999773
                },
                {
                    "name": "B2",
                    "midi": 47,
                    "time": 161.39999999999807,
                    "velocity": 0.30708661417322836,
                    "duration": 0.18999999999999773
                },
                {
                    "name": "D#3",
                    "midi": 51,
                    "time": 161.39999999999807,
                    "velocity": 0.36220472440944884,
                    "duration": 0.18999999999999773
                },
                {
                    "name": "B2",
                    "midi": 47,
                    "time": 161.59999999999806,
                    "velocity": 0.30708661417322836,
                    "duration": 0.18999999999999773
                },
                {
                    "name": "D#3",
                    "midi": 51,
                    "time": 161.59999999999806,
                    "velocity": 0.36220472440944884,
                    "duration": 0.18999999999999773
                },
                {
                    "name": "B2",
                    "midi": 47,
                    "time": 161.79999999999805,
                    "velocity": 0.30708661417322836,
                    "duration": 0.19999999999998863
                },
                {
                    "name": "D#3",
                    "midi": 51,
                    "time": 161.79999999999805,
                    "velocity": 0.36220472440944884,
                    "duration": 0.19999999999998863
                },
                {
                    "name": "D#2",
                    "midi": 39,
                    "time": 161.99999999999804,
                    "velocity": 0.48031496062992124,
                    "duration": 1.1999999999999318
                },
                {
                    "name": "C#3",
                    "midi": 49,
                    "time": 162.19999999999803,
                    "velocity": 0.30708661417322836,
                    "duration": 0.18999999999999773
                },
                {
                    "name": "D#3",
                    "midi": 51,
                    "time": 162.19999999999803,
                    "velocity": 0.36220472440944884,
                    "duration": 0.18999999999999773
                },
                {
                    "name": "A#2",
                    "midi": 46,
                    "time": 162.19999999999803,
                    "velocity": 0.30708661417322836,
                    "duration": 0.18999999999999773
                },
                {
                    "name": "D#3",
                    "midi": 51,
                    "time": 162.39999999999802,
                    "velocity": 0.36220472440944884,
                    "duration": 0.18999999999999773
                },
                {
                    "name": "C#3",
                    "midi": 49,
                    "time": 162.39999999999802,
                    "velocity": 0.30708661417322836,
                    "duration": 0.18999999999999773
                },
                {
                    "name": "A#2",
                    "midi": 46,
                    "time": 162.39999999999802,
                    "velocity": 0.30708661417322836,
                    "duration": 0.18999999999999773
                },
                {
                    "name": "D#3",
                    "midi": 51,
                    "time": 162.599999999998,
                    "velocity": 0.36220472440944884,
                    "duration": 0.18999999999999773
                },
                {
                    "name": "C#3",
                    "midi": 49,
                    "time": 162.599999999998,
                    "velocity": 0.30708661417322836,
                    "duration": 0.18999999999999773
                },
                {
                    "name": "A#2",
                    "midi": 46,
                    "time": 162.599999999998,
                    "velocity": 0.30708661417322836,
                    "duration": 0.18999999999999773
                },
                {
                    "name": "D#3",
                    "midi": 51,
                    "time": 162.799999999998,
                    "velocity": 0.3543307086614173,
                    "duration": 0.18999999999999773
                },
                {
                    "name": "C#3",
                    "midi": 49,
                    "time": 162.799999999998,
                    "velocity": 0.30708661417322836,
                    "duration": 0.18999999999999773
                },
                {
                    "name": "A#2",
                    "midi": 46,
                    "time": 162.799999999998,
                    "velocity": 0.30708661417322836,
                    "duration": 0.18999999999999773
                },
                {
                    "name": "D#3",
                    "midi": 51,
                    "time": 162.99999999999798,
                    "velocity": 0.3543307086614173,
                    "duration": 0.18999999999999773
                },
                {
                    "name": "C#3",
                    "midi": 49,
                    "time": 162.99999999999798,
                    "velocity": 0.30708661417322836,
                    "duration": 0.18999999999999773
                },
                {
                    "name": "A#2",
                    "midi": 46,
                    "time": 162.99999999999798,
                    "velocity": 0.30708661417322836,
                    "duration": 0.18999999999999773
                },
                {
                    "name": "G#2",
                    "midi": 44,
                    "time": 163.19999999999797,
                    "velocity": 0.4094488188976378,
                    "duration": 1.599999999999909
                },
                {
                    "name": "G#3",
                    "midi": 56,
                    "time": 163.39999999999796,
                    "velocity": 0.2047244094488189,
                    "duration": 0.18999999999999773
                },
                {
                    "name": "D#3",
                    "midi": 51,
                    "time": 163.39999999999796,
                    "velocity": 0.1732283464566929,
                    "duration": 0.18999999999999773
                },
                {
                    "name": "G#3",
                    "midi": 56,
                    "time": 163.59999999999795,
                    "velocity": 0.2047244094488189,
                    "duration": 0.18999999999999773
                },
                {
                    "name": "D#3",
                    "midi": 51,
                    "time": 163.59999999999795,
                    "velocity": 0.1732283464566929,
                    "duration": 0.18999999999999773
                },
                {
                    "name": "G#3",
                    "midi": 56,
                    "time": 163.79999999999794,
                    "velocity": 0.2047244094488189,
                    "duration": 0.18999999999999773
                },
                {
                    "name": "D#3",
                    "midi": 51,
                    "time": 163.79999999999794,
                    "velocity": 0.1732283464566929,
                    "duration": 0.18999999999999773
                },
                {
                    "name": "G#3",
                    "midi": 56,
                    "time": 163.99999999999793,
                    "velocity": 0.2047244094488189,
                    "duration": 0.18999999999999773
                },
                {
                    "name": "D#3",
                    "midi": 51,
                    "time": 163.99999999999793,
                    "velocity": 0.1732283464566929,
                    "duration": 0.18999999999999773
                },
                {
                    "name": "G#3",
                    "midi": 56,
                    "time": 164.1999999999979,
                    "velocity": 0.2047244094488189,
                    "duration": 0.18999999999999773
                },
                {
                    "name": "D#3",
                    "midi": 51,
                    "time": 164.1999999999979,
                    "velocity": 0.1732283464566929,
                    "duration": 0.18999999999999773
                },
                {
                    "name": "D#3",
                    "midi": 51,
                    "time": 164.3999999999979,
                    "velocity": 0.1732283464566929,
                    "duration": 0.18999999999999773
                },
                {
                    "name": "G#3",
                    "midi": 56,
                    "time": 164.3999999999979,
                    "velocity": 0.2047244094488189,
                    "duration": 0.18999999999999773
                },
                {
                    "name": "D#3",
                    "midi": 51,
                    "time": 164.5999999999979,
                    "velocity": 0.1732283464566929,
                    "duration": 0.18999999999999773
                },
                {
                    "name": "G#3",
                    "midi": 56,
                    "time": 164.5999999999979,
                    "velocity": 0.2047244094488189,
                    "duration": 0.18999999999999773
                },
                {
                    "name": "G#2",
                    "midi": 44,
                    "time": 164.79999999999788,
                    "velocity": 0.2047244094488189,
                    "duration": 0.39999999999997726
                },
                {
                    "name": "D#3",
                    "midi": 51,
                    "time": 164.99999999999787,
                    "velocity": 0.1732283464566929,
                    "duration": 0.19999999999998863
                },
                {
                    "name": "G#3",
                    "midi": 56,
                    "time": 164.99999999999787,
                    "velocity": 0.2047244094488189,
                    "duration": 0.19999999999998863
                },
                {
                    "name": "G#2",
                    "midi": 44,
                    "time": 165.19999999999786,
                    "velocity": 0.2047244094488189,
                    "duration": 0.39999999999997726
                },
                {
                    "name": "D#3",
                    "midi": 51,
                    "time": 165.39999999999785,
                    "velocity": 0.1732283464566929,
                    "duration": 0.19999999999998863
                },
                {
                    "name": "G#3",
                    "midi": 56,
                    "time": 165.39999999999785,
                    "velocity": 0.2047244094488189,
                    "duration": 0.19999999999998863
                },
                {
                    "name": "G#1",
                    "midi": 32,
                    "time": 165.59999999999783,
                    "velocity": 0.2047244094488189,
                    "duration": 0.18999999999999773
                },
                {
                    "name": "F#3",
                    "midi": 54,
                    "time": 165.79999999999782,
                    "velocity": 0.2047244094488189,
                    "duration": 0.18999999999999773
                },
                {
                    "name": "D#3",
                    "midi": 51,
                    "time": 165.79999999999782,
                    "velocity": 0.1732283464566929,
                    "duration": 0.18999999999999773
                },
                {
                    "name": "G#2",
                    "midi": 44,
                    "time": 165.79999999999782,
                    "velocity": 0.1732283464566929,
                    "duration": 0.18999999999999773
                },
                {
                    "name": "F#3",
                    "midi": 54,
                    "time": 165.9999999999978,
                    "velocity": 0.2047244094488189,
                    "duration": 0.18999999999999773
                },
                {
                    "name": "D#3",
                    "midi": 51,
                    "time": 165.9999999999978,
                    "velocity": 0.1732283464566929,
                    "duration": 0.18999999999999773
                },
                {
                    "name": "G#2",
                    "midi": 44,
                    "time": 165.9999999999978,
                    "velocity": 0.1732283464566929,
                    "duration": 0.18999999999999773
                },
                {
                    "name": "F#3",
                    "midi": 54,
                    "time": 166.1999999999978,
                    "velocity": 0.2047244094488189,
                    "duration": 0.18999999999999773
                },
                {
                    "name": "D#3",
                    "midi": 51,
                    "time": 166.1999999999978,
                    "velocity": 0.1732283464566929,
                    "duration": 0.18999999999999773
                },
                {
                    "name": "G#2",
                    "midi": 44,
                    "time": 166.1999999999978,
                    "velocity": 0.1732283464566929,
                    "duration": 0.18999999999999773
                },
                {
                    "name": "G#2",
                    "midi": 44,
                    "time": 166.3999999999978,
                    "velocity": 0.1732283464566929,
                    "duration": 0.18999999999999773
                },
                {
                    "name": "D#3",
                    "midi": 51,
                    "time": 166.3999999999978,
                    "velocity": 0.1732283464566929,
                    "duration": 0.18999999999999773
                },
                {
                    "name": "F#3",
                    "midi": 54,
                    "time": 166.3999999999978,
                    "velocity": 0.2047244094488189,
                    "duration": 0.18999999999999773
                },
                {
                    "name": "D#3",
                    "midi": 51,
                    "time": 166.59999999999778,
                    "velocity": 0.1732283464566929,
                    "duration": 0.18999999999999773
                },
                {
                    "name": "G#2",
                    "midi": 44,
                    "time": 166.59999999999778,
                    "velocity": 0.1732283464566929,
                    "duration": 0.18999999999999773
                },
                {
                    "name": "F#3",
                    "midi": 54,
                    "time": 166.59999999999778,
                    "velocity": 0.2047244094488189,
                    "duration": 0.18999999999999773
                },
                {
                    "name": "G#2",
                    "midi": 44,
                    "time": 166.79999999999777,
                    "velocity": 0.1732283464566929,
                    "duration": 0.18999999999999773
                },
                {
                    "name": "D#3",
                    "midi": 51,
                    "time": 166.79999999999777,
                    "velocity": 0.1732283464566929,
                    "duration": 0.18999999999999773
                },
                {
                    "name": "F#3",
                    "midi": 54,
                    "time": 166.79999999999777,
                    "velocity": 0.2047244094488189,
                    "duration": 0.18999999999999773
                },
                {
                    "name": "F#3",
                    "midi": 54,
                    "time": 166.99999999999775,
                    "velocity": 0.2047244094488189,
                    "duration": 0.18999999999999773
                },
                {
                    "name": "D#3",
                    "midi": 51,
                    "time": 166.99999999999775,
                    "velocity": 0.1732283464566929,
                    "duration": 0.18999999999999773
                },
                {
                    "name": "G#2",
                    "midi": 44,
                    "time": 166.99999999999775,
                    "velocity": 0.1732283464566929,
                    "duration": 0.18999999999999773
                },
                {
                    "name": "F#3",
                    "midi": 54,
                    "time": 167.19999999999774,
                    "velocity": 0.2047244094488189,
                    "duration": 0.18999999999999773
                },
                {
                    "name": "D#3",
                    "midi": 51,
                    "time": 167.19999999999774,
                    "velocity": 0.1732283464566929,
                    "duration": 0.18999999999999773
                },
                {
                    "name": "G#2",
                    "midi": 44,
                    "time": 167.19999999999774,
                    "velocity": 0.1732283464566929,
                    "duration": 0.18999999999999773
                },
                {
                    "name": "F#3",
                    "midi": 54,
                    "time": 167.39999999999773,
                    "velocity": 0.2047244094488189,
                    "duration": 0.18999999999999773
                },
                {
                    "name": "D#3",
                    "midi": 51,
                    "time": 167.39999999999773,
                    "velocity": 0.1732283464566929,
                    "duration": 0.18999999999999773
                },
                {
                    "name": "G#2",
                    "midi": 44,
                    "time": 167.39999999999773,
                    "velocity": 0.1732283464566929,
                    "duration": 0.18999999999999773
                },
                {
                    "name": "G#2",
                    "midi": 44,
                    "time": 167.59999999999772,
                    "velocity": 0.1732283464566929,
                    "duration": 0.18999999999999773
                },
                {
                    "name": "D#3",
                    "midi": 51,
                    "time": 167.59999999999772,
                    "velocity": 0.1732283464566929,
                    "duration": 0.18999999999999773
                },
                {
                    "name": "F#3",
                    "midi": 54,
                    "time": 167.59999999999772,
                    "velocity": 0.2047244094488189,
                    "duration": 0.18999999999999773
                },
                {
                    "name": "D#3",
                    "midi": 51,
                    "time": 167.7999999999977,
                    "velocity": 0.1732283464566929,
                    "duration": 0.18999999999999773
                },
                {
                    "name": "G#2",
                    "midi": 44,
                    "time": 167.7999999999977,
                    "velocity": 0.1732283464566929,
                    "duration": 0.18999999999999773
                },
                {
                    "name": "F#3",
                    "midi": 54,
                    "time": 167.7999999999977,
                    "velocity": 0.2047244094488189,
                    "duration": 0.18999999999999773
                },
                {
                    "name": "G#1",
                    "midi": 32,
                    "time": 167.9999999999977,
                    "velocity": 0.2047244094488189,
                    "duration": 0.18999999999999773
                },
                {
                    "name": "E3",
                    "midi": 52,
                    "time": 168.1999999999977,
                    "velocity": 0.2047244094488189,
                    "duration": 0.18999999999999773
                },
                {
                    "name": "C#3",
                    "midi": 49,
                    "time": 168.1999999999977,
                    "velocity": 0.1732283464566929,
                    "duration": 0.18999999999999773
                },
                {
                    "name": "G#2",
                    "midi": 44,
                    "time": 168.1999999999977,
                    "velocity": 0.1732283464566929,
                    "duration": 0.18999999999999773
                },
                {
                    "name": "G#2",
                    "midi": 44,
                    "time": 168.39999999999768,
                    "velocity": 0.1889763779527559,
                    "duration": 0.18999999999999773
                },
                {
                    "name": "C#3",
                    "midi": 49,
                    "time": 168.39999999999768,
                    "velocity": 0.1889763779527559,
                    "duration": 0.18999999999999773
                },
                {
                    "name": "E3",
                    "midi": 52,
                    "time": 168.39999999999768,
                    "velocity": 0.2204724409448819,
                    "duration": 0.18999999999999773
                },
                {
                    "name": "G#2",
                    "midi": 44,
                    "time": 168.59999999999766,
                    "velocity": 0.1889763779527559,
                    "duration": 0.18999999999999773
                },
                {
                    "name": "C#3",
                    "midi": 49,
                    "time": 168.59999999999766,
                    "velocity": 0.1889763779527559,
                    "duration": 0.18999999999999773
                },
                {
                    "name": "E3",
                    "midi": 52,
                    "time": 168.59999999999766,
                    "velocity": 0.2283464566929134,
                    "duration": 0.18999999999999773
                },
                {
                    "name": "G#2",
                    "midi": 44,
                    "time": 168.79999999999765,
                    "velocity": 0.2047244094488189,
                    "duration": 0.18999999999999773
                },
                {
                    "name": "C#3",
                    "midi": 49,
                    "time": 168.79999999999765,
                    "velocity": 0.2047244094488189,
                    "duration": 0.18999999999999773
                },
                {
                    "name": "E3",
                    "midi": 52,
                    "time": 168.79999999999765,
                    "velocity": 0.23622047244094488,
                    "duration": 0.18999999999999773
                },
                {
                    "name": "E3",
                    "midi": 52,
                    "time": 168.99999999999764,
                    "velocity": 0.2440944881889764,
                    "duration": 0.18999999999999773
                },
                {
                    "name": "G#2",
                    "midi": 44,
                    "time": 168.99999999999764,
                    "velocity": 0.2047244094488189,
                    "duration": 0.18999999999999773
                },
                {
                    "name": "C#3",
                    "midi": 49,
                    "time": 168.99999999999764,
                    "velocity": 0.2047244094488189,
                    "duration": 0.18999999999999773
                },
                {
                    "name": "G#2",
                    "midi": 44,
                    "time": 169.19999999999763,
                    "velocity": 0.2204724409448819,
                    "duration": 0.18999999999999773
                },
                {
                    "name": "C#3",
                    "midi": 49,
                    "time": 169.19999999999763,
                    "velocity": 0.2204724409448819,
                    "duration": 0.18999999999999773
                },
                {
                    "name": "E3",
                    "midi": 52,
                    "time": 169.19999999999763,
                    "velocity": 0.2677165354330709,
                    "duration": 0.18999999999999773
                },
                {
                    "name": "C#3",
                    "midi": 49,
                    "time": 169.39999999999762,
                    "velocity": 0.2283464566929134,
                    "duration": 0.18999999999999773
                },
                {
                    "name": "G#2",
                    "midi": 44,
                    "time": 169.39999999999762,
                    "velocity": 0.2283464566929134,
                    "duration": 0.18999999999999773
                },
                {
                    "name": "E3",
                    "midi": 52,
                    "time": 169.39999999999762,
                    "velocity": 0.2755905511811024,
                    "duration": 0.18999999999999773
                },
                {
                    "name": "G#2",
                    "midi": 44,
                    "time": 169.5999999999976,
                    "velocity": 0.23622047244094488,
                    "duration": 0.18999999999999773
                },
                {
                    "name": "C#3",
                    "midi": 49,
                    "time": 169.5999999999976,
                    "velocity": 0.23622047244094488,
                    "duration": 0.18999999999999773
                },
                {
                    "name": "E3",
                    "midi": 52,
                    "time": 169.5999999999976,
                    "velocity": 0.28346456692913385,
                    "duration": 0.18999999999999773
                },
                {
                    "name": "E3",
                    "midi": 52,
                    "time": 169.7999999999976,
                    "velocity": 0.29133858267716534,
                    "duration": 0.18999999999999773
                },
                {
                    "name": "G#2",
                    "midi": 44,
                    "time": 169.7999999999976,
                    "velocity": 0.23622047244094488,
                    "duration": 0.18999999999999773
                },
                {
                    "name": "C#3",
                    "midi": 49,
                    "time": 169.7999999999976,
                    "velocity": 0.23622047244094488,
                    "duration": 0.18999999999999773
                },
                {
                    "name": "G#2",
                    "midi": 44,
                    "time": 169.99999999999758,
                    "velocity": 0.25984251968503935,
                    "duration": 0.18999999999999773
                },
                {
                    "name": "C#3",
                    "midi": 49,
                    "time": 169.99999999999758,
                    "velocity": 0.25984251968503935,
                    "duration": 0.18999999999999773
                },
                {
                    "name": "E3",
                    "midi": 52,
                    "time": 169.99999999999758,
                    "velocity": 0.30708661417322836,
                    "duration": 0.18999999999999773
                },
                {
                    "name": "E3",
                    "midi": 52,
                    "time": 170.19999999999757,
                    "velocity": 0.30708661417322836,
                    "duration": 0.18999999999999773
                },
                {
                    "name": "G#2",
                    "midi": 44,
                    "time": 170.19999999999757,
                    "velocity": 0.2677165354330709,
                    "duration": 0.18999999999999773
                },
                {
                    "name": "C#3",
                    "midi": 49,
                    "time": 170.19999999999757,
                    "velocity": 0.2677165354330709,
                    "duration": 0.18999999999999773
                },
                {
                    "name": "A1",
                    "midi": 33,
                    "time": 170.39999999999756,
                    "velocity": 0.3700787401574803,
                    "duration": 0.18999999999999773
                },
                {
                    "name": "E3",
                    "midi": 52,
                    "time": 170.59999999999755,
                    "velocity": 0.33070866141732286,
                    "duration": 0.18999999999999773
                },
                {
                    "name": "C#3",
                    "midi": 49,
                    "time": 170.59999999999755,
                    "velocity": 0.2755905511811024,
                    "duration": 0.18999999999999773
                },
                {
                    "name": "A2",
                    "midi": 45,
                    "time": 170.59999999999755,
                    "velocity": 0.2755905511811024,
                    "duration": 0.18999999999999773
                },
                {
                    "name": "A2",
                    "midi": 45,
                    "time": 170.79999999999754,
                    "velocity": 0.2992125984251969,
                    "duration": 0.18999999999999773
                },
                {
                    "name": "C#3",
                    "midi": 49,
                    "time": 170.79999999999754,
                    "velocity": 0.2992125984251969,
                    "duration": 0.18999999999999773
                },
                {
                    "name": "E3",
                    "midi": 52,
                    "time": 170.79999999999754,
                    "velocity": 0.3543307086614173,
                    "duration": 0.18999999999999773
                },
                {
                    "name": "E3",
                    "midi": 52,
                    "time": 170.99999999999753,
                    "velocity": 0.3464566929133858,
                    "duration": 0.18999999999999773
                },
                {
                    "name": "A2",
                    "midi": 45,
                    "time": 170.99999999999753,
                    "velocity": 0.28346456692913385,
                    "duration": 0.18999999999999773
                },
                {
                    "name": "C#3",
                    "midi": 49,
                    "time": 170.99999999999753,
                    "velocity": 0.28346456692913385,
                    "duration": 0.18999999999999773
                },
                {
                    "name": "E3",
                    "midi": 52,
                    "time": 171.19999999999752,
                    "velocity": 0.31496062992125984,
                    "duration": 0.18999999999999773
                },
                {
                    "name": "A2",
                    "midi": 45,
                    "time": 171.19999999999752,
                    "velocity": 0.2677165354330709,
                    "duration": 0.18999999999999773
                },
                {
                    "name": "C#3",
                    "midi": 49,
                    "time": 171.19999999999752,
                    "velocity": 0.2677165354330709,
                    "duration": 0.18999999999999773
                },
                {
                    "name": "E3",
                    "midi": 52,
                    "time": 171.3999999999975,
                    "velocity": 0.30708661417322836,
                    "duration": 0.18999999999999773
                },
                {
                    "name": "A2",
                    "midi": 45,
                    "time": 171.3999999999975,
                    "velocity": 0.25984251968503935,
                    "duration": 0.18999999999999773
                },
                {
                    "name": "C#3",
                    "midi": 49,
                    "time": 171.3999999999975,
                    "velocity": 0.25984251968503935,
                    "duration": 0.18999999999999773
                },
                {
                    "name": "E3",
                    "midi": 52,
                    "time": 171.5999999999975,
                    "velocity": 0.29133858267716534,
                    "duration": 0.18999999999999773
                },
                {
                    "name": "A2",
                    "midi": 45,
                    "time": 171.5999999999975,
                    "velocity": 0.23622047244094488,
                    "duration": 0.18999999999999773
                },
                {
                    "name": "C#3",
                    "midi": 49,
                    "time": 171.5999999999975,
                    "velocity": 0.23622047244094488,
                    "duration": 0.18999999999999773
                },
                {
                    "name": "A2",
                    "midi": 45,
                    "time": 171.79999999999748,
                    "velocity": 0.2283464566929134,
                    "duration": 0.18999999999999773
                },
                {
                    "name": "C#3",
                    "midi": 49,
                    "time": 171.79999999999748,
                    "velocity": 0.2283464566929134,
                    "duration": 0.18999999999999773
                },
                {
                    "name": "E3",
                    "midi": 52,
                    "time": 171.79999999999748,
                    "velocity": 0.2755905511811024,
                    "duration": 0.18999999999999773
                },
                {
                    "name": "D#3",
                    "midi": 51,
                    "time": 171.99999999999747,
                    "velocity": 0.2677165354330709,
                    "duration": 0.1899999999999693
                },
                {
                    "name": "A2",
                    "midi": 45,
                    "time": 171.99999999999747,
                    "velocity": 0.2204724409448819,
                    "duration": 0.1899999999999693
                },
                {
                    "name": "D#3",
                    "midi": 51,
                    "time": 172.19999999999743,
                    "velocity": 0.2440944881889764,
                    "duration": 0.18999999999999773
                },
                {
                    "name": "A2",
                    "midi": 45,
                    "time": 172.19999999999743,
                    "velocity": 0.2047244094488189,
                    "duration": 0.18999999999999773
                },
                {
                    "name": "D#3",
                    "midi": 51,
                    "time": 172.39999999999742,
                    "velocity": 0.23622047244094488,
                    "duration": 0.18999999999999773
                },
                {
                    "name": "A2",
                    "midi": 45,
                    "time": 172.39999999999742,
                    "velocity": 0.1968503937007874,
                    "duration": 0.18999999999999773
                },
                {
                    "name": "D#3",
                    "midi": 51,
                    "time": 172.5999999999974,
                    "velocity": 0.2204724409448819,
                    "duration": 0.18999999999999773
                },
                {
                    "name": "A2",
                    "midi": 45,
                    "time": 172.5999999999974,
                    "velocity": 0.1889763779527559,
                    "duration": 0.18999999999999773
                },
                {
                    "name": "G#1",
                    "midi": 32,
                    "time": 172.7999999999974,
                    "velocity": 0.2047244094488189,
                    "duration": 0.18999999999999773
                },
                {
                    "name": "G#2",
                    "midi": 44,
                    "time": 172.99999999999739,
                    "velocity": 0.2047244094488189,
                    "duration": 0.18999999999999773
                },
                {
                    "name": "C3",
                    "midi": 48,
                    "time": 173.19999999999737,
                    "velocity": 0.1732283464566929,
                    "duration": 0.18999999999999773
                },
                {
                    "name": "D#3",
                    "midi": 51,
                    "time": 173.19999999999737,
                    "velocity": 0.2047244094488189,
                    "duration": 0.18999999999999773
                },
                {
                    "name": "G#2",
                    "midi": 44,
                    "time": 173.19999999999737,
                    "velocity": 0.1732283464566929,
                    "duration": 0.18999999999999773
                },
                {
                    "name": "C3",
                    "midi": 48,
                    "time": 173.39999999999736,
                    "velocity": 0.1732283464566929,
                    "duration": 0.18999999999999773
                },
                {
                    "name": "D#3",
                    "midi": 51,
                    "time": 173.39999999999736,
                    "velocity": 0.2047244094488189,
                    "duration": 0.18999999999999773
                },
                {
                    "name": "G#2",
                    "midi": 44,
                    "time": 173.39999999999736,
                    "velocity": 0.1732283464566929,
                    "duration": 0.18999999999999773
                },
                {
                    "name": "C3",
                    "midi": 48,
                    "time": 173.59999999999735,
                    "velocity": 0.1732283464566929,
                    "duration": 0.18999999999999773
                },
                {
                    "name": "D#3",
                    "midi": 51,
                    "time": 173.59999999999735,
                    "velocity": 0.2047244094488189,
                    "duration": 0.18999999999999773
                },
                {
                    "name": "G#2",
                    "midi": 44,
                    "time": 173.59999999999735,
                    "velocity": 0.1732283464566929,
                    "duration": 0.18999999999999773
                },
                {
                    "name": "C3",
                    "midi": 48,
                    "time": 173.79999999999734,
                    "velocity": 0.1732283464566929,
                    "duration": 0.18999999999999773
                },
                {
                    "name": "D#3",
                    "midi": 51,
                    "time": 173.79999999999734,
                    "velocity": 0.2047244094488189,
                    "duration": 0.18999999999999773
                },
                {
                    "name": "G#2",
                    "midi": 44,
                    "time": 173.79999999999734,
                    "velocity": 0.1732283464566929,
                    "duration": 0.18999999999999773
                },
                {
                    "name": "C3",
                    "midi": 48,
                    "time": 173.99999999999733,
                    "velocity": 0.1732283464566929,
                    "duration": 0.18999999999999773
                },
                {
                    "name": "D#3",
                    "midi": 51,
                    "time": 173.99999999999733,
                    "velocity": 0.2047244094488189,
                    "duration": 0.18999999999999773
                },
                {
                    "name": "G#2",
                    "midi": 44,
                    "time": 173.99999999999733,
                    "velocity": 0.1732283464566929,
                    "duration": 0.18999999999999773
                },
                {
                    "name": "C3",
                    "midi": 48,
                    "time": 174.19999999999732,
                    "velocity": 0.1732283464566929,
                    "duration": 0.18999999999999773
                },
                {
                    "name": "D#3",
                    "midi": 51,
                    "time": 174.19999999999732,
                    "velocity": 0.2047244094488189,
                    "duration": 0.18999999999999773
                },
                {
                    "name": "G#2",
                    "midi": 44,
                    "time": 174.19999999999732,
                    "velocity": 0.1732283464566929,
                    "duration": 0.18999999999999773
                },
                {
                    "name": "C3",
                    "midi": 48,
                    "time": 174.3999999999973,
                    "velocity": 0.1732283464566929,
                    "duration": 0.18999999999999773
                },
                {
                    "name": "D#3",
                    "midi": 51,
                    "time": 174.3999999999973,
                    "velocity": 0.2047244094488189,
                    "duration": 0.18999999999999773
                },
                {
                    "name": "G#2",
                    "midi": 44,
                    "time": 174.3999999999973,
                    "velocity": 0.1732283464566929,
                    "duration": 0.18999999999999773
                },
                {
                    "name": "C3",
                    "midi": 48,
                    "time": 174.5999999999973,
                    "velocity": 0.1732283464566929,
                    "duration": 0.18999999999999773
                },
                {
                    "name": "D#3",
                    "midi": 51,
                    "time": 174.5999999999973,
                    "velocity": 0.2047244094488189,
                    "duration": 0.18999999999999773
                },
                {
                    "name": "G#2",
                    "midi": 44,
                    "time": 174.5999999999973,
                    "velocity": 0.1732283464566929,
                    "duration": 0.18999999999999773
                },
                {
                    "name": "C3",
                    "midi": 48,
                    "time": 174.79999999999728,
                    "velocity": 0.1732283464566929,
                    "duration": 0.18999999999999773
                },
                {
                    "name": "D#3",
                    "midi": 51,
                    "time": 174.79999999999728,
                    "velocity": 0.2047244094488189,
                    "duration": 0.18999999999999773
                },
                {
                    "name": "G#2",
                    "midi": 44,
                    "time": 174.79999999999728,
                    "velocity": 0.1732283464566929,
                    "duration": 0.18999999999999773
                },
                {
                    "name": "C3",
                    "midi": 48,
                    "time": 174.99999999999727,
                    "velocity": 0.1732283464566929,
                    "duration": 0.18999999999999773
                },
                {
                    "name": "D#3",
                    "midi": 51,
                    "time": 174.99999999999727,
                    "velocity": 0.2047244094488189,
                    "duration": 0.18999999999999773
                },
                {
                    "name": "G#2",
                    "midi": 44,
                    "time": 174.99999999999727,
                    "velocity": 0.1732283464566929,
                    "duration": 0.18999999999999773
                },
                {
                    "name": "G#1",
                    "midi": 32,
                    "time": 175.19999999999726,
                    "velocity": 0.2047244094488189,
                    "duration": 0.1899999999999693
                },
                {
                    "name": "F#3",
                    "midi": 54,
                    "time": 175.39999999999722,
                    "velocity": 0.2047244094488189,
                    "duration": 0.18999999999999773
                },
                {
                    "name": "D#3",
                    "midi": 51,
                    "time": 175.39999999999722,
                    "velocity": 0.1732283464566929,
                    "duration": 0.18999999999999773
                },
                {
                    "name": "G#2",
                    "midi": 44,
                    "time": 175.39999999999722,
                    "velocity": 0.1732283464566929,
                    "duration": 0.18999999999999773
                },
                {
                    "name": "F#3",
                    "midi": 54,
                    "time": 175.5999999999972,
                    "velocity": 0.2047244094488189,
                    "duration": 0.1899999999999693
                },
                {
                    "name": "D#3",
                    "midi": 51,
                    "time": 175.5999999999972,
                    "velocity": 0.1732283464566929,
                    "duration": 0.1899999999999693
                },
                {
                    "name": "G#2",
                    "midi": 44,
                    "time": 175.5999999999972,
                    "velocity": 0.1732283464566929,
                    "duration": 0.1899999999999693
                },
                {
                    "name": "F#3",
                    "midi": 54,
                    "time": 175.79999999999717,
                    "velocity": 0.2047244094488189,
                    "duration": 0.18999999999999773
                },
                {
                    "name": "D#3",
                    "midi": 51,
                    "time": 175.79999999999717,
                    "velocity": 0.1732283464566929,
                    "duration": 0.18999999999999773
                },
                {
                    "name": "G#2",
                    "midi": 44,
                    "time": 175.79999999999717,
                    "velocity": 0.1732283464566929,
                    "duration": 0.18999999999999773
                },
                {
                    "name": "G#2",
                    "midi": 44,
                    "time": 175.99999999999716,
                    "velocity": 0.1732283464566929,
                    "duration": 0.18999999999999773
                },
                {
                    "name": "D#3",
                    "midi": 51,
                    "time": 175.99999999999716,
                    "velocity": 0.1732283464566929,
                    "duration": 0.18999999999999773
                },
                {
                    "name": "F#3",
                    "midi": 54,
                    "time": 175.99999999999716,
                    "velocity": 0.2047244094488189,
                    "duration": 0.18999999999999773
                },
                {
                    "name": "D#3",
                    "midi": 51,
                    "time": 176.19999999999715,
                    "velocity": 0.1732283464566929,
                    "duration": 0.18999999999999773
                },
                {
                    "name": "G#2",
                    "midi": 44,
                    "time": 176.19999999999715,
                    "velocity": 0.1732283464566929,
                    "duration": 0.18999999999999773
                },
                {
                    "name": "F#3",
                    "midi": 54,
                    "time": 176.19999999999715,
                    "velocity": 0.2047244094488189,
                    "duration": 0.18999999999999773
                },
                {
                    "name": "G#2",
                    "midi": 44,
                    "time": 176.39999999999714,
                    "velocity": 0.1732283464566929,
                    "duration": 0.18999999999999773
                },
                {
                    "name": "D#3",
                    "midi": 51,
                    "time": 176.39999999999714,
                    "velocity": 0.1732283464566929,
                    "duration": 0.18999999999999773
                },
                {
                    "name": "F#3",
                    "midi": 54,
                    "time": 176.39999999999714,
                    "velocity": 0.2047244094488189,
                    "duration": 0.18999999999999773
                },
                {
                    "name": "F#3",
                    "midi": 54,
                    "time": 176.59999999999712,
                    "velocity": 0.2047244094488189,
                    "duration": 0.18999999999999773
                },
                {
                    "name": "D#3",
                    "midi": 51,
                    "time": 176.59999999999712,
                    "velocity": 0.1732283464566929,
                    "duration": 0.18999999999999773
                },
                {
                    "name": "G#2",
                    "midi": 44,
                    "time": 176.59999999999712,
                    "velocity": 0.1732283464566929,
                    "duration": 0.18999999999999773
                },
                {
                    "name": "F#3",
                    "midi": 54,
                    "time": 176.7999999999971,
                    "velocity": 0.2047244094488189,
                    "duration": 0.18999999999999773
                },
                {
                    "name": "D#3",
                    "midi": 51,
                    "time": 176.7999999999971,
                    "velocity": 0.1732283464566929,
                    "duration": 0.18999999999999773
                },
                {
                    "name": "G#2",
                    "midi": 44,
                    "time": 176.7999999999971,
                    "velocity": 0.1732283464566929,
                    "duration": 0.18999999999999773
                },
                {
                    "name": "F#3",
                    "midi": 54,
                    "time": 176.9999999999971,
                    "velocity": 0.2047244094488189,
                    "duration": 0.18999999999999773
                },
                {
                    "name": "D#3",
                    "midi": 51,
                    "time": 176.9999999999971,
                    "velocity": 0.1732283464566929,
                    "duration": 0.18999999999999773
                },
                {
                    "name": "G#2",
                    "midi": 44,
                    "time": 176.9999999999971,
                    "velocity": 0.1732283464566929,
                    "duration": 0.18999999999999773
                },
                {
                    "name": "G#2",
                    "midi": 44,
                    "time": 177.1999999999971,
                    "velocity": 0.1732283464566929,
                    "duration": 0.18999999999999773
                },
                {
                    "name": "D#3",
                    "midi": 51,
                    "time": 177.1999999999971,
                    "velocity": 0.1732283464566929,
                    "duration": 0.18999999999999773
                },
                {
                    "name": "F#3",
                    "midi": 54,
                    "time": 177.1999999999971,
                    "velocity": 0.2047244094488189,
                    "duration": 0.18999999999999773
                },
                {
                    "name": "D#3",
                    "midi": 51,
                    "time": 177.39999999999708,
                    "velocity": 0.1732283464566929,
                    "duration": 0.18999999999999773
                },
                {
                    "name": "G#2",
                    "midi": 44,
                    "time": 177.39999999999708,
                    "velocity": 0.1732283464566929,
                    "duration": 0.18999999999999773
                },
                {
                    "name": "F#3",
                    "midi": 54,
                    "time": 177.39999999999708,
                    "velocity": 0.2047244094488189,
                    "duration": 0.18999999999999773
                },
                {
                    "name": "G#1",
                    "midi": 32,
                    "time": 177.59999999999707,
                    "velocity": 0.2047244094488189,
                    "duration": 0.18999999999999773
                },
                {
                    "name": "E3",
                    "midi": 52,
                    "time": 177.79999999999706,
                    "velocity": 0.2047244094488189,
                    "duration": 0.19000000000002615
                },
                {
                    "name": "C#3",
                    "midi": 49,
                    "time": 177.79999999999706,
                    "velocity": 0.1732283464566929,
                    "duration": 0.19000000000002615
                },
                {
                    "name": "G#2",
                    "midi": 44,
                    "time": 177.79999999999706,
                    "velocity": 0.1732283464566929,
                    "duration": 0.19000000000002615
                },
                {
                    "name": "G#2",
                    "midi": 44,
                    "time": 177.99999999999707,
                    "velocity": 0.1732283464566929,
                    "duration": 0.18999999999999773
                },
                {
                    "name": "C#3",
                    "midi": 49,
                    "time": 177.99999999999707,
                    "velocity": 0.1732283464566929,
                    "duration": 0.18999999999999773
                },
                {
                    "name": "E3",
                    "midi": 52,
                    "time": 177.99999999999707,
                    "velocity": 0.2047244094488189,
                    "duration": 0.18999999999999773
                },
                {
                    "name": "G#2",
                    "midi": 44,
                    "time": 178.19999999999706,
                    "velocity": 0.1732283464566929,
                    "duration": 0.18999999999999773
                },
                {
                    "name": "C#3",
                    "midi": 49,
                    "time": 178.19999999999706,
                    "velocity": 0.1732283464566929,
                    "duration": 0.18999999999999773
                },
                {
                    "name": "E3",
                    "midi": 52,
                    "time": 178.19999999999706,
                    "velocity": 0.2047244094488189,
                    "duration": 0.18999999999999773
                },
                {
                    "name": "G#2",
                    "midi": 44,
                    "time": 178.39999999999705,
                    "velocity": 0.1732283464566929,
                    "duration": 0.18999999999999773
                },
                {
                    "name": "C#3",
                    "midi": 49,
                    "time": 178.39999999999705,
                    "velocity": 0.1732283464566929,
                    "duration": 0.18999999999999773
                },
                {
                    "name": "E3",
                    "midi": 52,
                    "time": 178.39999999999705,
                    "velocity": 0.2047244094488189,
                    "duration": 0.18999999999999773
                },
                {
                    "name": "G#2",
                    "midi": 44,
                    "time": 178.59999999999704,
                    "velocity": 0.1732283464566929,
                    "duration": 0.18999999999999773
                },
                {
                    "name": "C#3",
                    "midi": 49,
                    "time": 178.59999999999704,
                    "velocity": 0.1732283464566929,
                    "duration": 0.18999999999999773
                },
                {
                    "name": "E3",
                    "midi": 52,
                    "time": 178.59999999999704,
                    "velocity": 0.2047244094488189,
                    "duration": 0.18999999999999773
                },
                {
                    "name": "G#2",
                    "midi": 44,
                    "time": 178.79999999999703,
                    "velocity": 0.1732283464566929,
                    "duration": 0.18999999999999773
                },
                {
                    "name": "C#3",
                    "midi": 49,
                    "time": 178.79999999999703,
                    "velocity": 0.1732283464566929,
                    "duration": 0.18999999999999773
                },
                {
                    "name": "E3",
                    "midi": 52,
                    "time": 178.79999999999703,
                    "velocity": 0.2047244094488189,
                    "duration": 0.18999999999999773
                },
                {
                    "name": "C#3",
                    "midi": 49,
                    "time": 178.99999999999702,
                    "velocity": 0.1889763779527559,
                    "duration": 0.18999999999999773
                },
                {
                    "name": "G#2",
                    "midi": 44,
                    "time": 178.99999999999702,
                    "velocity": 0.1889763779527559,
                    "duration": 0.18999999999999773
                },
                {
                    "name": "E3",
                    "midi": 52,
                    "time": 178.99999999999702,
                    "velocity": 0.2204724409448819,
                    "duration": 0.18999999999999773
                },
                {
                    "name": "G#2",
                    "midi": 44,
                    "time": 179.199999999997,
                    "velocity": 0.2047244094488189,
                    "duration": 0.18999999999999773
                },
                {
                    "name": "C#3",
                    "midi": 49,
                    "time": 179.199999999997,
                    "velocity": 0.2047244094488189,
                    "duration": 0.18999999999999773
                },
                {
                    "name": "E3",
                    "midi": 52,
                    "time": 179.199999999997,
                    "velocity": 0.23622047244094488,
                    "duration": 0.18999999999999773
                },
                {
                    "name": "G#2",
                    "midi": 44,
                    "time": 179.399999999997,
                    "velocity": 0.2283464566929134,
                    "duration": 0.18999999999999773
                },
                {
                    "name": "C#3",
                    "midi": 49,
                    "time": 179.399999999997,
                    "velocity": 0.2283464566929134,
                    "duration": 0.18999999999999773
                },
                {
                    "name": "E3",
                    "midi": 52,
                    "time": 179.399999999997,
                    "velocity": 0.2755905511811024,
                    "duration": 0.18999999999999773
                },
                {
                    "name": "G#2",
                    "midi": 44,
                    "time": 179.59999999999698,
                    "velocity": 0.23622047244094488,
                    "duration": 0.18999999999999773
                },
                {
                    "name": "C#3",
                    "midi": 49,
                    "time": 179.59999999999698,
                    "velocity": 0.23622047244094488,
                    "duration": 0.18999999999999773
                },
                {
                    "name": "E3",
                    "midi": 52,
                    "time": 179.59999999999698,
                    "velocity": 0.29133858267716534,
                    "duration": 0.18999999999999773
                },
                {
                    "name": "G#2",
                    "midi": 44,
                    "time": 179.79999999999697,
                    "velocity": 0.2677165354330709,
                    "duration": 0.18999999999999773
                },
                {
                    "name": "C#3",
                    "midi": 49,
                    "time": 179.79999999999697,
                    "velocity": 0.2677165354330709,
                    "duration": 0.18999999999999773
                },
                {
                    "name": "E3",
                    "midi": 52,
                    "time": 179.79999999999697,
                    "velocity": 0.30708661417322836,
                    "duration": 0.18999999999999773
                },
                {
                    "name": "A1",
                    "midi": 33,
                    "time": 179.99999999999696,
                    "velocity": 0.3228346456692913,
                    "duration": 0.18999999999999773
                },
                {
                    "name": "E3",
                    "midi": 52,
                    "time": 180.19999999999695,
                    "velocity": 0.3228346456692913,
                    "duration": 0.18999999999999773
                },
                {
                    "name": "C#3",
                    "midi": 49,
                    "time": 180.19999999999695,
                    "velocity": 0.2755905511811024,
                    "duration": 0.18999999999999773
                },
                {
                    "name": "A2",
                    "midi": 45,
                    "time": 180.19999999999695,
                    "velocity": 0.2755905511811024,
                    "duration": 0.18999999999999773
                },
                {
                    "name": "A2",
                    "midi": 45,
                    "time": 180.39999999999694,
                    "velocity": 0.28346456692913385,
                    "duration": 0.18999999999999773
                },
                {
                    "name": "C#3",
                    "midi": 49,
                    "time": 180.39999999999694,
                    "velocity": 0.28346456692913385,
                    "duration": 0.18999999999999773
                },
                {
                    "name": "E3",
                    "midi": 52,
                    "time": 180.39999999999694,
                    "velocity": 0.3464566929133858,
                    "duration": 0.18999999999999773
                },
                {
                    "name": "A2",
                    "midi": 45,
                    "time": 180.59999999999692,
                    "velocity": 0.2755905511811024,
                    "duration": 0.18999999999999773
                },
                {
                    "name": "C#3",
                    "midi": 49,
                    "time": 180.59999999999692,
                    "velocity": 0.2755905511811024,
                    "duration": 0.18999999999999773
                },
                {
                    "name": "E3",
                    "midi": 52,
                    "time": 180.59999999999692,
                    "velocity": 0.33070866141732286,
                    "duration": 0.18999999999999773
                },
                {
                    "name": "A2",
                    "midi": 45,
                    "time": 180.7999999999969,
                    "velocity": 0.2677165354330709,
                    "duration": 0.18999999999999773
                },
                {
                    "name": "C#3",
                    "midi": 49,
                    "time": 180.7999999999969,
                    "velocity": 0.2677165354330709,
                    "duration": 0.18999999999999773
                },
                {
                    "name": "E3",
                    "midi": 52,
                    "time": 180.7999999999969,
                    "velocity": 0.31496062992125984,
                    "duration": 0.18999999999999773
                },
                {
                    "name": "A2",
                    "midi": 45,
                    "time": 180.9999999999969,
                    "velocity": 0.25984251968503935,
                    "duration": 0.18999999999999773
                },
                {
                    "name": "C#3",
                    "midi": 49,
                    "time": 180.9999999999969,
                    "velocity": 0.25984251968503935,
                    "duration": 0.18999999999999773
                },
                {
                    "name": "E3",
                    "midi": 52,
                    "time": 180.9999999999969,
                    "velocity": 0.30708661417322836,
                    "duration": 0.18999999999999773
                },
                {
                    "name": "A2",
                    "midi": 45,
                    "time": 181.1999999999969,
                    "velocity": 0.23622047244094488,
                    "duration": 0.18999999999999773
                },
                {
                    "name": "C#3",
                    "midi": 49,
                    "time": 181.1999999999969,
                    "velocity": 0.23622047244094488,
                    "duration": 0.18999999999999773
                },
                {
                    "name": "E3",
                    "midi": 52,
                    "time": 181.1999999999969,
                    "velocity": 0.29133858267716534,
                    "duration": 0.18999999999999773
                },
                {
                    "name": "A2",
                    "midi": 45,
                    "time": 181.39999999999688,
                    "velocity": 0.2283464566929134,
                    "duration": 0.18999999999999773
                },
                {
                    "name": "C#3",
                    "midi": 49,
                    "time": 181.39999999999688,
                    "velocity": 0.2283464566929134,
                    "duration": 0.18999999999999773
                },
                {
                    "name": "E3",
                    "midi": 52,
                    "time": 181.39999999999688,
                    "velocity": 0.2755905511811024,
                    "duration": 0.18999999999999773
                },
                {
                    "name": "A2",
                    "midi": 45,
                    "time": 181.59999999999687,
                    "velocity": 0.2204724409448819,
                    "duration": 0.18999999999999773
                },
                {
                    "name": "C#3",
                    "midi": 49,
                    "time": 181.59999999999687,
                    "velocity": 0.2204724409448819,
                    "duration": 0.18999999999999773
                },
                {
                    "name": "E3",
                    "midi": 52,
                    "time": 181.59999999999687,
                    "velocity": 0.2677165354330709,
                    "duration": 0.18999999999999773
                },
                {
                    "name": "A2",
                    "midi": 45,
                    "time": 181.79999999999686,
                    "velocity": 0.2047244094488189,
                    "duration": 0.18999999999999773
                },
                {
                    "name": "C#3",
                    "midi": 49,
                    "time": 181.79999999999686,
                    "velocity": 0.2047244094488189,
                    "duration": 0.18999999999999773
                },
                {
                    "name": "E3",
                    "midi": 52,
                    "time": 181.79999999999686,
                    "velocity": 0.2440944881889764,
                    "duration": 0.18999999999999773
                },
                {
                    "name": "A2",
                    "midi": 45,
                    "time": 181.99999999999685,
                    "velocity": 0.1968503937007874,
                    "duration": 0.18999999999999773
                },
                {
                    "name": "C#3",
                    "midi": 49,
                    "time": 181.99999999999685,
                    "velocity": 0.1968503937007874,
                    "duration": 0.18999999999999773
                },
                {
                    "name": "E3",
                    "midi": 52,
                    "time": 181.99999999999685,
                    "velocity": 0.23622047244094488,
                    "duration": 0.18999999999999773
                },
                {
                    "name": "A2",
                    "midi": 45,
                    "time": 182.19999999999683,
                    "velocity": 0.1889763779527559,
                    "duration": 0.18999999999999773
                },
                {
                    "name": "C#3",
                    "midi": 49,
                    "time": 182.19999999999683,
                    "velocity": 0.1889763779527559,
                    "duration": 0.18999999999999773
                },
                {
                    "name": "E3",
                    "midi": 52,
                    "time": 182.19999999999683,
                    "velocity": 0.2204724409448819,
                    "duration": 0.18999999999999773
                },
                {
                    "name": "G#1",
                    "midi": 32,
                    "time": 182.39999999999682,
                    "velocity": 0.2125984251968504,
                    "duration": 0.18999999999999773
                },
                {
                    "name": "E3",
                    "midi": 52,
                    "time": 182.5999999999968,
                    "velocity": 0.2047244094488189,
                    "duration": 0.18999999999999773
                },
                {
                    "name": "C#3",
                    "midi": 49,
                    "time": 182.5999999999968,
                    "velocity": 0.1732283464566929,
                    "duration": 0.18999999999999773
                },
                {
                    "name": "G#2",
                    "midi": 44,
                    "time": 182.5999999999968,
                    "velocity": 0.1732283464566929,
                    "duration": 0.18999999999999773
                },
                {
                    "name": "E3",
                    "midi": 52,
                    "time": 182.7999999999968,
                    "velocity": 0.2047244094488189,
                    "duration": 0.18999999999999773
                },
                {
                    "name": "C#3",
                    "midi": 49,
                    "time": 182.7999999999968,
                    "velocity": 0.1732283464566929,
                    "duration": 0.18999999999999773
                },
                {
                    "name": "G#2",
                    "midi": 44,
                    "time": 182.7999999999968,
                    "velocity": 0.1732283464566929,
                    "duration": 0.18999999999999773
                },
                {
                    "name": "E3",
                    "midi": 52,
                    "time": 182.9999999999968,
                    "velocity": 0.2047244094488189,
                    "duration": 0.18999999999999773
                },
                {
                    "name": "C#3",
                    "midi": 49,
                    "time": 182.9999999999968,
                    "velocity": 0.1732283464566929,
                    "duration": 0.18999999999999773
                },
                {
                    "name": "G#2",
                    "midi": 44,
                    "time": 182.9999999999968,
                    "velocity": 0.1732283464566929,
                    "duration": 0.18999999999999773
                },
                {
                    "name": "E3",
                    "midi": 52,
                    "time": 183.19999999999678,
                    "velocity": 0.2047244094488189,
                    "duration": 0.18999999999999773
                },
                {
                    "name": "C#3",
                    "midi": 49,
                    "time": 183.19999999999678,
                    "velocity": 0.1732283464566929,
                    "duration": 0.18999999999999773
                },
                {
                    "name": "G#2",
                    "midi": 44,
                    "time": 183.19999999999678,
                    "velocity": 0.1732283464566929,
                    "duration": 0.18999999999999773
                },
                {
                    "name": "E3",
                    "midi": 52,
                    "time": 183.39999999999677,
                    "velocity": 0.2047244094488189,
                    "duration": 0.18999999999999773
                },
                {
                    "name": "C#3",
                    "midi": 49,
                    "time": 183.39999999999677,
                    "velocity": 0.1732283464566929,
                    "duration": 0.18999999999999773
                },
                {
                    "name": "G#2",
                    "midi": 44,
                    "time": 183.39999999999677,
                    "velocity": 0.1732283464566929,
                    "duration": 0.18999999999999773
                },
                {
                    "name": "G#1",
                    "midi": 32,
                    "time": 183.59999999999675,
                    "velocity": 0.2047244094488189,
                    "duration": 0.18999999999999773
                },
                {
                    "name": "D#3",
                    "midi": 51,
                    "time": 183.79999999999674,
                    "velocity": 0.1889763779527559,
                    "duration": 0.18999999999999773
                },
                {
                    "name": "C3",
                    "midi": 48,
                    "time": 183.79999999999674,
                    "velocity": 0.14960629921259844,
                    "duration": 0.18999999999999773
                },
                {
                    "name": "G#2",
                    "midi": 44,
                    "time": 183.79999999999674,
                    "velocity": 0.14960629921259844,
                    "duration": 0.18999999999999773
                },
                {
                    "name": "D#3",
                    "midi": 51,
                    "time": 183.99999999999673,
                    "velocity": 0.1889763779527559,
                    "duration": 0.18999999999999773
                },
                {
                    "name": "C3",
                    "midi": 48,
                    "time": 183.99999999999673,
                    "velocity": 0.14960629921259844,
                    "duration": 0.18999999999999773
                },
                {
                    "name": "G#2",
                    "midi": 44,
                    "time": 183.99999999999673,
                    "velocity": 0.14960629921259844,
                    "duration": 0.18999999999999773
                },
                {
                    "name": "D#3",
                    "midi": 51,
                    "time": 184.19999999999672,
                    "velocity": 0.1732283464566929,
                    "duration": 0.18999999999999773
                },
                {
                    "name": "C3",
                    "midi": 48,
                    "time": 184.19999999999672,
                    "velocity": 0.14173228346456693,
                    "duration": 0.18999999999999773
                },
                {
                    "name": "G#2",
                    "midi": 44,
                    "time": 184.19999999999672,
                    "velocity": 0.14173228346456693,
                    "duration": 0.18999999999999773
                },
                {
                    "name": "D#3",
                    "midi": 51,
                    "time": 184.3999999999967,
                    "velocity": 0.1732283464566929,
                    "duration": 0.18999999999999773
                },
                {
                    "name": "C3",
                    "midi": 48,
                    "time": 184.3999999999967,
                    "velocity": 0.13385826771653545,
                    "duration": 0.18999999999999773
                },
                {
                    "name": "G#2",
                    "midi": 44,
                    "time": 184.3999999999967,
                    "velocity": 0.13385826771653545,
                    "duration": 0.18999999999999773
                },
                {
                    "name": "D#3",
                    "midi": 51,
                    "time": 184.5999999999967,
                    "velocity": 0.1732283464566929,
                    "duration": 0.18999999999999773
                },
                {
                    "name": "C3",
                    "midi": 48,
                    "time": 184.5999999999967,
                    "velocity": 0.13385826771653545,
                    "duration": 0.18999999999999773
                },
                {
                    "name": "G#2",
                    "midi": 44,
                    "time": 184.5999999999967,
                    "velocity": 0.13385826771653545,
                    "duration": 0.18999999999999773
                },
                {
                    "name": "C#2",
                    "midi": 37,
                    "time": 184.7999999999967,
                    "velocity": 0.33070866141732286,
                    "duration": 0.18999999999999773
                },
                {
                    "name": "F3",
                    "midi": 53,
                    "time": 184.99999999999667,
                    "velocity": 0.2047244094488189,
                    "duration": 0.18999999999999773
                },
                {
                    "name": "C#3",
                    "midi": 49,
                    "time": 184.99999999999667,
                    "velocity": 0.1732283464566929,
                    "duration": 0.18999999999999773
                },
                {
                    "name": "G#2",
                    "midi": 44,
                    "time": 184.99999999999667,
                    "velocity": 0.1732283464566929,
                    "duration": 0.18999999999999773
                },
                {
                    "name": "F3",
                    "midi": 53,
                    "time": 185.19999999999666,
                    "velocity": 0.2047244094488189,
                    "duration": 0.18999999999999773
                },
                {
                    "name": "G#2",
                    "midi": 44,
                    "time": 185.19999999999666,
                    "velocity": 0.1732283464566929,
                    "duration": 0.18999999999999773
                },
                {
                    "name": "C#3",
                    "midi": 49,
                    "time": 185.19999999999666,
                    "velocity": 0.1732283464566929,
                    "duration": 0.18999999999999773
                },
                {
                    "name": "F3",
                    "midi": 53,
                    "time": 185.39999999999665,
                    "velocity": 0.2047244094488189,
                    "duration": 0.18999999999999773
                },
                {
                    "name": "G#2",
                    "midi": 44,
                    "time": 185.39999999999665,
                    "velocity": 0.1732283464566929,
                    "duration": 0.18999999999999773
                },
                {
                    "name": "C#3",
                    "midi": 49,
                    "time": 185.39999999999665,
                    "velocity": 0.1732283464566929,
                    "duration": 0.18999999999999773
                },
                {
                    "name": "F3",
                    "midi": 53,
                    "time": 185.59999999999664,
                    "velocity": 0.2047244094488189,
                    "duration": 0.18999999999999773
                },
                {
                    "name": "G#2",
                    "midi": 44,
                    "time": 185.59999999999664,
                    "velocity": 0.1732283464566929,
                    "duration": 0.18999999999999773
                },
                {
                    "name": "C#3",
                    "midi": 49,
                    "time": 185.59999999999664,
                    "velocity": 0.1732283464566929,
                    "duration": 0.18999999999999773
                },
                {
                    "name": "F3",
                    "midi": 53,
                    "time": 185.79999999999663,
                    "velocity": 0.2047244094488189,
                    "duration": 0.18999999999999773
                },
                {
                    "name": "G#2",
                    "midi": 44,
                    "time": 185.79999999999663,
                    "velocity": 0.1732283464566929,
                    "duration": 0.18999999999999773
                },
                {
                    "name": "C#3",
                    "midi": 49,
                    "time": 185.79999999999663,
                    "velocity": 0.1732283464566929,
                    "duration": 0.18999999999999773
                },
                {
                    "name": "F3",
                    "midi": 53,
                    "time": 185.99999999999662,
                    "velocity": 0.2047244094488189,
                    "duration": 0.18999999999999773
                },
                {
                    "name": "G#2",
                    "midi": 44,
                    "time": 185.99999999999662,
                    "velocity": 0.1732283464566929,
                    "duration": 0.18999999999999773
                },
                {
                    "name": "C#3",
                    "midi": 49,
                    "time": 185.99999999999662,
                    "velocity": 0.1732283464566929,
                    "duration": 0.18999999999999773
                },
                {
                    "name": "F3",
                    "midi": 53,
                    "time": 186.1999999999966,
                    "velocity": 0.2047244094488189,
                    "duration": 0.18999999999999773
                },
                {
                    "name": "G#2",
                    "midi": 44,
                    "time": 186.1999999999966,
                    "velocity": 0.1732283464566929,
                    "duration": 0.18999999999999773
                },
                {
                    "name": "C#3",
                    "midi": 49,
                    "time": 186.1999999999966,
                    "velocity": 0.1732283464566929,
                    "duration": 0.18999999999999773
                },
                {
                    "name": "F3",
                    "midi": 53,
                    "time": 186.3999999999966,
                    "velocity": 0.2047244094488189,
                    "duration": 0.18999999999999773
                },
                {
                    "name": "G#2",
                    "midi": 44,
                    "time": 186.3999999999966,
                    "velocity": 0.1732283464566929,
                    "duration": 0.18999999999999773
                },
                {
                    "name": "C#3",
                    "midi": 49,
                    "time": 186.3999999999966,
                    "velocity": 0.1732283464566929,
                    "duration": 0.18999999999999773
                },
                {
                    "name": "F3",
                    "midi": 53,
                    "time": 186.59999999999658,
                    "velocity": 0.2047244094488189,
                    "duration": 0.18999999999999773
                },
                {
                    "name": "G#2",
                    "midi": 44,
                    "time": 186.59999999999658,
                    "velocity": 0.1732283464566929,
                    "duration": 0.18999999999999773
                },
                {
                    "name": "C#3",
                    "midi": 49,
                    "time": 186.59999999999658,
                    "velocity": 0.1732283464566929,
                    "duration": 0.18999999999999773
                },
                {
                    "name": "F3",
                    "midi": 53,
                    "time": 186.79999999999657,
                    "velocity": 0.2047244094488189,
                    "duration": 0.18999999999999773
                },
                {
                    "name": "G#2",
                    "midi": 44,
                    "time": 186.79999999999657,
                    "velocity": 0.1732283464566929,
                    "duration": 0.18999999999999773
                },
                {
                    "name": "C#3",
                    "midi": 49,
                    "time": 186.79999999999657,
                    "velocity": 0.1732283464566929,
                    "duration": 0.18999999999999773
                },
                {
                    "name": "F3",
                    "midi": 53,
                    "time": 186.99999999999656,
                    "velocity": 0.2047244094488189,
                    "duration": 0.18999999999999773
                },
                {
                    "name": "C#3",
                    "midi": 49,
                    "time": 186.99999999999656,
                    "velocity": 0.1732283464566929,
                    "duration": 0.18999999999999773
                },
                {
                    "name": "G#2",
                    "midi": 44,
                    "time": 186.99999999999656,
                    "velocity": 0.1732283464566929,
                    "duration": 0.18999999999999773
                },
                {
                    "name": "C2",
                    "midi": 36,
                    "time": 187.19999999999655,
                    "velocity": 0.3228346456692913,
                    "duration": 0.18999999999999773
                },
                {
                    "name": "D#3",
                    "midi": 51,
                    "time": 187.39999999999654,
                    "velocity": 0.1732283464566929,
                    "duration": 0.18999999999999773
                },
                {
                    "name": "F#3",
                    "midi": 54,
                    "time": 187.39999999999654,
                    "velocity": 0.2047244094488189,
                    "duration": 0.18999999999999773
                },
                {
                    "name": "G#2",
                    "midi": 44,
                    "time": 187.39999999999654,
                    "velocity": 0.1732283464566929,
                    "duration": 0.18999999999999773
                },
                {
                    "name": "G#2",
                    "midi": 44,
                    "time": 187.59999999999653,
                    "velocity": 0.1732283464566929,
                    "duration": 0.18999999999999773
                },
                {
                    "name": "D#3",
                    "midi": 51,
                    "time": 187.59999999999653,
                    "velocity": 0.1732283464566929,
                    "duration": 0.18999999999999773
                },
                {
                    "name": "F#3",
                    "midi": 54,
                    "time": 187.59999999999653,
                    "velocity": 0.2047244094488189,
                    "duration": 0.18999999999999773
                },
                {
                    "name": "G#2",
                    "midi": 44,
                    "time": 187.79999999999652,
                    "velocity": 0.1732283464566929,
                    "duration": 0.18999999999999773
                },
                {
                    "name": "D#3",
                    "midi": 51,
                    "time": 187.79999999999652,
                    "velocity": 0.1732283464566929,
                    "duration": 0.18999999999999773
                },
                {
                    "name": "F#3",
                    "midi": 54,
                    "time": 187.79999999999652,
                    "velocity": 0.2047244094488189,
                    "duration": 0.18999999999999773
                },
                {
                    "name": "G#2",
                    "midi": 44,
                    "time": 187.9999999999965,
                    "velocity": 0.1732283464566929,
                    "duration": 0.18999999999999773
                },
                {
                    "name": "D#3",
                    "midi": 51,
                    "time": 187.9999999999965,
                    "velocity": 0.1732283464566929,
                    "duration": 0.18999999999999773
                },
                {
                    "name": "F#3",
                    "midi": 54,
                    "time": 187.9999999999965,
                    "velocity": 0.2047244094488189,
                    "duration": 0.18999999999999773
                },
                {
                    "name": "G#2",
                    "midi": 44,
                    "time": 188.1999999999965,
                    "velocity": 0.1732283464566929,
                    "duration": 0.18999999999999773
                },
                {
                    "name": "D#3",
                    "midi": 51,
                    "time": 188.1999999999965,
                    "velocity": 0.1732283464566929,
                    "duration": 0.18999999999999773
                },
                {
                    "name": "F#3",
                    "midi": 54,
                    "time": 188.1999999999965,
                    "velocity": 0.2047244094488189,
                    "duration": 0.18999999999999773
                },
                {
                    "name": "G#2",
                    "midi": 44,
                    "time": 188.39999999999648,
                    "velocity": 0.1732283464566929,
                    "duration": 0.18999999999999773
                },
                {
                    "name": "D#3",
                    "midi": 51,
                    "time": 188.39999999999648,
                    "velocity": 0.1732283464566929,
                    "duration": 0.18999999999999773
                },
                {
                    "name": "F#3",
                    "midi": 54,
                    "time": 188.39999999999648,
                    "velocity": 0.2047244094488189,
                    "duration": 0.18999999999999773
                },
                {
                    "name": "G#2",
                    "midi": 44,
                    "time": 188.59999999999647,
                    "velocity": 0.1732283464566929,
                    "duration": 0.18999999999999773
                },
                {
                    "name": "D#3",
                    "midi": 51,
                    "time": 188.59999999999647,
                    "velocity": 0.1732283464566929,
                    "duration": 0.18999999999999773
                },
                {
                    "name": "F#3",
                    "midi": 54,
                    "time": 188.59999999999647,
                    "velocity": 0.2047244094488189,
                    "duration": 0.18999999999999773
                },
                {
                    "name": "G#2",
                    "midi": 44,
                    "time": 188.79999999999646,
                    "velocity": 0.1732283464566929,
                    "duration": 0.18999999999999773
                },
                {
                    "name": "D#3",
                    "midi": 51,
                    "time": 188.79999999999646,
                    "velocity": 0.1732283464566929,
                    "duration": 0.18999999999999773
                },
                {
                    "name": "F#3",
                    "midi": 54,
                    "time": 188.79999999999646,
                    "velocity": 0.2047244094488189,
                    "duration": 0.18999999999999773
                },
                {
                    "name": "G#2",
                    "midi": 44,
                    "time": 188.99999999999645,
                    "velocity": 0.1732283464566929,
                    "duration": 0.18999999999999773
                },
                {
                    "name": "D#3",
                    "midi": 51,
                    "time": 188.99999999999645,
                    "velocity": 0.1732283464566929,
                    "duration": 0.18999999999999773
                },
                {
                    "name": "F#3",
                    "midi": 54,
                    "time": 188.99999999999645,
                    "velocity": 0.2047244094488189,
                    "duration": 0.18999999999999773
                },
                {
                    "name": "D#3",
                    "midi": 51,
                    "time": 189.19999999999644,
                    "velocity": 0.1732283464566929,
                    "duration": 0.18999999999999773
                },
                {
                    "name": "G#2",
                    "midi": 44,
                    "time": 189.19999999999644,
                    "velocity": 0.1732283464566929,
                    "duration": 0.18999999999999773
                },
                {
                    "name": "F#3",
                    "midi": 54,
                    "time": 189.19999999999644,
                    "velocity": 0.2047244094488189,
                    "duration": 0.18999999999999773
                },
                {
                    "name": "G#2",
                    "midi": 44,
                    "time": 189.39999999999642,
                    "velocity": 0.1732283464566929,
                    "duration": 0.18999999999999773
                },
                {
                    "name": "D#3",
                    "midi": 51,
                    "time": 189.39999999999642,
                    "velocity": 0.1732283464566929,
                    "duration": 0.18999999999999773
                },
                {
                    "name": "F#3",
                    "midi": 54,
                    "time": 189.39999999999642,
                    "velocity": 0.2047244094488189,
                    "duration": 0.18999999999999773
                },
                {
                    "name": "C#2",
                    "midi": 37,
                    "time": 189.5999999999964,
                    "velocity": 0.31496062992125984,
                    "duration": 0.18999999999999773
                },
                {
                    "name": "F3",
                    "midi": 53,
                    "time": 189.7999999999964,
                    "velocity": 0.2047244094488189,
                    "duration": 0.18999999999999773
                },
                {
                    "name": "C#3",
                    "midi": 49,
                    "time": 189.7999999999964,
                    "velocity": 0.1732283464566929,
                    "duration": 0.18999999999999773
                },
                {
                    "name": "G#2",
                    "midi": 44,
                    "time": 189.7999999999964,
                    "velocity": 0.1732283464566929,
                    "duration": 0.18999999999999773
                },
                {
                    "name": "F3",
                    "midi": 53,
                    "time": 189.9999999999964,
                    "velocity": 0.2047244094488189,
                    "duration": 0.18999999999999773
                },
                {
                    "name": "G#2",
                    "midi": 44,
                    "time": 189.9999999999964,
                    "velocity": 0.1732283464566929,
                    "duration": 0.18999999999999773
                },
                {
                    "name": "C#3",
                    "midi": 49,
                    "time": 189.9999999999964,
                    "velocity": 0.1732283464566929,
                    "duration": 0.18999999999999773
                },
                {
                    "name": "F3",
                    "midi": 53,
                    "time": 190.19999999999638,
                    "velocity": 0.2047244094488189,
                    "duration": 0.18999999999999773
                },
                {
                    "name": "G#2",
                    "midi": 44,
                    "time": 190.19999999999638,
                    "velocity": 0.1732283464566929,
                    "duration": 0.18999999999999773
                },
                {
                    "name": "C#3",
                    "midi": 49,
                    "time": 190.19999999999638,
                    "velocity": 0.1732283464566929,
                    "duration": 0.18999999999999773
                },
                {
                    "name": "F3",
                    "midi": 53,
                    "time": 190.39999999999637,
                    "velocity": 0.2047244094488189,
                    "duration": 0.18999999999999773
                },
                {
                    "name": "G#2",
                    "midi": 44,
                    "time": 190.39999999999637,
                    "velocity": 0.1732283464566929,
                    "duration": 0.18999999999999773
                },
                {
                    "name": "C#3",
                    "midi": 49,
                    "time": 190.39999999999637,
                    "velocity": 0.1732283464566929,
                    "duration": 0.18999999999999773
                },
                {
                    "name": "F3",
                    "midi": 53,
                    "time": 190.59999999999636,
                    "velocity": 0.2047244094488189,
                    "duration": 0.18999999999999773
                },
                {
                    "name": "G#2",
                    "midi": 44,
                    "time": 190.59999999999636,
                    "velocity": 0.1732283464566929,
                    "duration": 0.18999999999999773
                },
                {
                    "name": "C#3",
                    "midi": 49,
                    "time": 190.59999999999636,
                    "velocity": 0.1732283464566929,
                    "duration": 0.18999999999999773
                },
                {
                    "name": "F3",
                    "midi": 53,
                    "time": 190.79999999999634,
                    "velocity": 0.2047244094488189,
                    "duration": 0.1899999999999693
                },
                {
                    "name": "G#2",
                    "midi": 44,
                    "time": 190.79999999999634,
                    "velocity": 0.1732283464566929,
                    "duration": 0.1899999999999693
                },
                {
                    "name": "C#3",
                    "midi": 49,
                    "time": 190.79999999999634,
                    "velocity": 0.1732283464566929,
                    "duration": 0.1899999999999693
                },
                {
                    "name": "F3",
                    "midi": 53,
                    "time": 190.9999999999963,
                    "velocity": 0.2047244094488189,
                    "duration": 0.18999999999999773
                },
                {
                    "name": "G#2",
                    "midi": 44,
                    "time": 190.9999999999963,
                    "velocity": 0.1732283464566929,
                    "duration": 0.18999999999999773
                },
                {
                    "name": "C#3",
                    "midi": 49,
                    "time": 190.9999999999963,
                    "velocity": 0.1732283464566929,
                    "duration": 0.18999999999999773
                },
                {
                    "name": "F3",
                    "midi": 53,
                    "time": 191.1999999999963,
                    "velocity": 0.2047244094488189,
                    "duration": 0.18999999999999773
                },
                {
                    "name": "G#2",
                    "midi": 44,
                    "time": 191.1999999999963,
                    "velocity": 0.1732283464566929,
                    "duration": 0.18999999999999773
                },
                {
                    "name": "C#3",
                    "midi": 49,
                    "time": 191.1999999999963,
                    "velocity": 0.1732283464566929,
                    "duration": 0.18999999999999773
                },
                {
                    "name": "F3",
                    "midi": 53,
                    "time": 191.39999999999628,
                    "velocity": 0.2047244094488189,
                    "duration": 0.18999999999999773
                },
                {
                    "name": "G#2",
                    "midi": 44,
                    "time": 191.39999999999628,
                    "velocity": 0.1732283464566929,
                    "duration": 0.18999999999999773
                },
                {
                    "name": "C#3",
                    "midi": 49,
                    "time": 191.39999999999628,
                    "velocity": 0.1732283464566929,
                    "duration": 0.18999999999999773
                },
                {
                    "name": "F3",
                    "midi": 53,
                    "time": 191.59999999999627,
                    "velocity": 0.2047244094488189,
                    "duration": 0.18999999999999773
                },
                {
                    "name": "G#2",
                    "midi": 44,
                    "time": 191.59999999999627,
                    "velocity": 0.1732283464566929,
                    "duration": 0.18999999999999773
                },
                {
                    "name": "C#3",
                    "midi": 49,
                    "time": 191.59999999999627,
                    "velocity": 0.1732283464566929,
                    "duration": 0.18999999999999773
                },
                {
                    "name": "F3",
                    "midi": 53,
                    "time": 191.79999999999626,
                    "velocity": 0.2047244094488189,
                    "duration": 0.18999999999999773
                },
                {
                    "name": "C#3",
                    "midi": 49,
                    "time": 191.79999999999626,
                    "velocity": 0.1732283464566929,
                    "duration": 0.18999999999999773
                },
                {
                    "name": "G#2",
                    "midi": 44,
                    "time": 191.79999999999626,
                    "velocity": 0.1732283464566929,
                    "duration": 0.18999999999999773
                },
                {
                    "name": "D#2",
                    "midi": 39,
                    "time": 191.99999999999625,
                    "velocity": 0.30708661417322836,
                    "duration": 0.18999999999999773
                },
                {
                    "name": "D#3",
                    "midi": 51,
                    "time": 192.19999999999624,
                    "velocity": 0.1732283464566929,
                    "duration": 0.18999999999999773
                },
                {
                    "name": "F#3",
                    "midi": 54,
                    "time": 192.19999999999624,
                    "velocity": 0.2047244094488189,
                    "duration": 0.18999999999999773
                },
                {
                    "name": "G#2",
                    "midi": 44,
                    "time": 192.19999999999624,
                    "velocity": 0.1732283464566929,
                    "duration": 0.18999999999999773
                },
                {
                    "name": "G#2",
                    "midi": 44,
                    "time": 192.39999999999623,
                    "velocity": 0.1732283464566929,
                    "duration": 0.18999999999999773
                },
                {
                    "name": "D#3",
                    "midi": 51,
                    "time": 192.39999999999623,
                    "velocity": 0.1732283464566929,
                    "duration": 0.18999999999999773
                },
                {
                    "name": "F#3",
                    "midi": 54,
                    "time": 192.39999999999623,
                    "velocity": 0.2047244094488189,
                    "duration": 0.18999999999999773
                },
                {
                    "name": "G#2",
                    "midi": 44,
                    "time": 192.59999999999621,
                    "velocity": 0.1732283464566929,
                    "duration": 0.18999999999999773
                },
                {
                    "name": "D#3",
                    "midi": 51,
                    "time": 192.59999999999621,
                    "velocity": 0.1732283464566929,
                    "duration": 0.18999999999999773
                },
                {
                    "name": "F#3",
                    "midi": 54,
                    "time": 192.59999999999621,
                    "velocity": 0.2047244094488189,
                    "duration": 0.18999999999999773
                },
                {
                    "name": "G#2",
                    "midi": 44,
                    "time": 192.7999999999962,
                    "velocity": 0.1732283464566929,
                    "duration": 0.18999999999999773
                },
                {
                    "name": "D#3",
                    "midi": 51,
                    "time": 192.7999999999962,
                    "velocity": 0.1732283464566929,
                    "duration": 0.18999999999999773
                },
                {
                    "name": "F#3",
                    "midi": 54,
                    "time": 192.7999999999962,
                    "velocity": 0.2047244094488189,
                    "duration": 0.18999999999999773
                },
                {
                    "name": "G#2",
                    "midi": 44,
                    "time": 192.9999999999962,
                    "velocity": 0.1732283464566929,
                    "duration": 0.18999999999999773
                },
                {
                    "name": "D#3",
                    "midi": 51,
                    "time": 192.9999999999962,
                    "velocity": 0.1732283464566929,
                    "duration": 0.18999999999999773
                },
                {
                    "name": "F#3",
                    "midi": 54,
                    "time": 192.9999999999962,
                    "velocity": 0.2047244094488189,
                    "duration": 0.18999999999999773
                },
                {
                    "name": "G#2",
                    "midi": 44,
                    "time": 193.19999999999618,
                    "velocity": 0.1732283464566929,
                    "duration": 0.18999999999999773
                },
                {
                    "name": "D#3",
                    "midi": 51,
                    "time": 193.19999999999618,
                    "velocity": 0.1732283464566929,
                    "duration": 0.18999999999999773
                },
                {
                    "name": "F#3",
                    "midi": 54,
                    "time": 193.19999999999618,
                    "velocity": 0.2047244094488189,
                    "duration": 0.18999999999999773
                },
                {
                    "name": "G#2",
                    "midi": 44,
                    "time": 193.39999999999617,
                    "velocity": 0.1732283464566929,
                    "duration": 0.18999999999999773
                },
                {
                    "name": "D#3",
                    "midi": 51,
                    "time": 193.39999999999617,
                    "velocity": 0.1732283464566929,
                    "duration": 0.18999999999999773
                },
                {
                    "name": "F#3",
                    "midi": 54,
                    "time": 193.39999999999617,
                    "velocity": 0.2047244094488189,
                    "duration": 0.18999999999999773
                },
                {
                    "name": "G#2",
                    "midi": 44,
                    "time": 193.59999999999616,
                    "velocity": 0.1732283464566929,
                    "duration": 0.18999999999999773
                },
                {
                    "name": "D#3",
                    "midi": 51,
                    "time": 193.59999999999616,
                    "velocity": 0.1732283464566929,
                    "duration": 0.18999999999999773
                },
                {
                    "name": "F#3",
                    "midi": 54,
                    "time": 193.59999999999616,
                    "velocity": 0.2047244094488189,
                    "duration": 0.18999999999999773
                },
                {
                    "name": "G#2",
                    "midi": 44,
                    "time": 193.79999999999615,
                    "velocity": 0.1732283464566929,
                    "duration": 0.18999999999999773
                },
                {
                    "name": "D#3",
                    "midi": 51,
                    "time": 193.79999999999615,
                    "velocity": 0.1732283464566929,
                    "duration": 0.18999999999999773
                },
                {
                    "name": "F#3",
                    "midi": 54,
                    "time": 193.79999999999615,
                    "velocity": 0.2047244094488189,
                    "duration": 0.18999999999999773
                },
                {
                    "name": "D#3",
                    "midi": 51,
                    "time": 193.99999999999613,
                    "velocity": 0.1732283464566929,
                    "duration": 0.18999999999999773
                },
                {
                    "name": "G#2",
                    "midi": 44,
                    "time": 193.99999999999613,
                    "velocity": 0.1732283464566929,
                    "duration": 0.18999999999999773
                },
                {
                    "name": "F#3",
                    "midi": 54,
                    "time": 193.99999999999613,
                    "velocity": 0.2047244094488189,
                    "duration": 0.18999999999999773
                },
                {
                    "name": "G#2",
                    "midi": 44,
                    "time": 194.19999999999612,
                    "velocity": 0.1732283464566929,
                    "duration": 0.18999999999999773
                },
                {
                    "name": "D#3",
                    "midi": 51,
                    "time": 194.19999999999612,
                    "velocity": 0.1732283464566929,
                    "duration": 0.18999999999999773
                },
                {
                    "name": "F#3",
                    "midi": 54,
                    "time": 194.19999999999612,
                    "velocity": 0.2047244094488189,
                    "duration": 0.18999999999999773
                },
                {
                    "name": "E2",
                    "midi": 40,
                    "time": 194.3999999999961,
                    "velocity": 0.33070866141732286,
                    "duration": 0.18999999999999773
                },
                {
                    "name": "E3",
                    "midi": 52,
                    "time": 194.5999999999961,
                    "velocity": 0.2755905511811024,
                    "duration": 0.18999999999999773
                },
                {
                    "name": "A2",
                    "midi": 45,
                    "time": 194.5999999999961,
                    "velocity": 0.2283464566929134,
                    "duration": 0.18999999999999773
                },
                {
                    "name": "A2",
                    "midi": 45,
                    "time": 194.7999999999961,
                    "velocity": 0.2283464566929134,
                    "duration": 0.18999999999999773
                },
                {
                    "name": "E3",
                    "midi": 52,
                    "time": 194.7999999999961,
                    "velocity": 0.2755905511811024,
                    "duration": 0.18999999999999773
                },
                {
                    "name": "A2",
                    "midi": 45,
                    "time": 194.99999999999608,
                    "velocity": 0.2283464566929134,
                    "duration": 0.18999999999999773
                },
                {
                    "name": "E3",
                    "midi": 52,
                    "time": 194.99999999999608,
                    "velocity": 0.2755905511811024,
                    "duration": 0.18999999999999773
                },
                {
                    "name": "A2",
                    "midi": 45,
                    "time": 195.19999999999607,
                    "velocity": 0.2283464566929134,
                    "duration": 0.18999999999999773
                },
                {
                    "name": "E3",
                    "midi": 52,
                    "time": 195.19999999999607,
                    "velocity": 0.2755905511811024,
                    "duration": 0.18999999999999773
                },
                {
                    "name": "A2",
                    "midi": 45,
                    "time": 195.39999999999606,
                    "velocity": 0.2283464566929134,
                    "duration": 0.18999999999999773
                },
                {
                    "name": "E3",
                    "midi": 52,
                    "time": 195.39999999999606,
                    "velocity": 0.2755905511811024,
                    "duration": 0.18999999999999773
                },
                {
                    "name": "E3",
                    "midi": 52,
                    "time": 195.59999999999604,
                    "velocity": 0.2755905511811024,
                    "duration": 0.18999999999999773
                },
                {
                    "name": "A2",
                    "midi": 45,
                    "time": 195.59999999999604,
                    "velocity": 0.2283464566929134,
                    "duration": 0.18999999999999773
                },
                {
                    "name": "A2",
                    "midi": 45,
                    "time": 195.79999999999603,
                    "velocity": 0.2283464566929134,
                    "duration": 0.18999999999999773
                },
                {
                    "name": "E3",
                    "midi": 52,
                    "time": 195.79999999999603,
                    "velocity": 0.2755905511811024,
                    "duration": 0.18999999999999773
                },
                {
                    "name": "E2",
                    "midi": 40,
                    "time": 195.99999999999602,
                    "velocity": 0.2755905511811024,
                    "duration": 0.39999999999997726
                },
                {
                    "name": "E3",
                    "midi": 52,
                    "time": 196.199999999996,
                    "velocity": 0.2755905511811024,
                    "duration": 0.19999999999998863
                },
                {
                    "name": "A2",
                    "midi": 45,
                    "time": 196.199999999996,
                    "velocity": 0.2283464566929134,
                    "duration": 0.19999999999998863
                },
                {
                    "name": "E2",
                    "midi": 40,
                    "time": 196.399999999996,
                    "velocity": 0.2755905511811024,
                    "duration": 0.39999999999997726
                },
                {
                    "name": "E3",
                    "midi": 52,
                    "time": 196.599999999996,
                    "velocity": 0.2755905511811024,
                    "duration": 0.19999999999998863
                },
                {
                    "name": "A2",
                    "midi": 45,
                    "time": 196.599999999996,
                    "velocity": 0.2283464566929134,
                    "duration": 0.19999999999998863
                },
                {
                    "name": "B1",
                    "midi": 35,
                    "time": 196.79999999999598,
                    "velocity": 0.33070866141732286,
                    "duration": 0.18999999999999773
                },
                {
                    "name": "B2",
                    "midi": 47,
                    "time": 196.99999999999596,
                    "velocity": 0.2992125984251969,
                    "duration": 0.18999999999999773
                },
                {
                    "name": "E2",
                    "midi": 40,
                    "time": 196.99999999999596,
                    "velocity": 0.2440944881889764,
                    "duration": 0.18999999999999773
                },
                {
                    "name": "E2",
                    "midi": 40,
                    "time": 197.19999999999595,
                    "velocity": 0.2440944881889764,
                    "duration": 0.18999999999999773
                },
                {
                    "name": "B2",
                    "midi": 47,
                    "time": 197.19999999999595,
                    "velocity": 0.2992125984251969,
                    "duration": 0.18999999999999773
                },
                {
                    "name": "E2",
                    "midi": 40,
                    "time": 197.39999999999594,
                    "velocity": 0.2440944881889764,
                    "duration": 0.18999999999999773
                },
                {
                    "name": "B2",
                    "midi": 47,
                    "time": 197.39999999999594,
                    "velocity": 0.2992125984251969,
                    "duration": 0.18999999999999773
                },
                {
                    "name": "B2",
                    "midi": 47,
                    "time": 197.59999999999593,
                    "velocity": 0.2992125984251969,
                    "duration": 0.18999999999999773
                },
                {
                    "name": "E2",
                    "midi": 40,
                    "time": 197.59999999999593,
                    "velocity": 0.2440944881889764,
                    "duration": 0.18999999999999773
                },
                {
                    "name": "E2",
                    "midi": 40,
                    "time": 197.79999999999592,
                    "velocity": 0.2440944881889764,
                    "duration": 0.18999999999999773
                },
                {
                    "name": "B2",
                    "midi": 47,
                    "time": 197.79999999999592,
                    "velocity": 0.2992125984251969,
                    "duration": 0.18999999999999773
                },
                {
                    "name": "E2",
                    "midi": 40,
                    "time": 197.9999999999959,
                    "velocity": 0.2677165354330709,
                    "duration": 0.18999999999999773
                },
                {
                    "name": "B2",
                    "midi": 47,
                    "time": 197.9999999999959,
                    "velocity": 0.30708661417322836,
                    "duration": 0.18999999999999773
                },
                {
                    "name": "E2",
                    "midi": 40,
                    "time": 198.1999999999959,
                    "velocity": 0.2677165354330709,
                    "duration": 0.18999999999999773
                },
                {
                    "name": "B2",
                    "midi": 47,
                    "time": 198.1999999999959,
                    "velocity": 0.30708661417322836,
                    "duration": 0.18999999999999773
                },
                {
                    "name": "B1",
                    "midi": 35,
                    "time": 198.39999999999588,
                    "velocity": 0.30708661417322836,
                    "duration": 0.39999999999997726
                },
                {
                    "name": "E2",
                    "midi": 40,
                    "time": 198.59999999999587,
                    "velocity": 0.2677165354330709,
                    "duration": 0.19999999999998863
                },
                {
                    "name": "B2",
                    "midi": 47,
                    "time": 198.59999999999587,
                    "velocity": 0.30708661417322836,
                    "duration": 0.19999999999998863
                },
                {
                    "name": "B1",
                    "midi": 35,
                    "time": 198.79999999999586,
                    "velocity": 0.30708661417322836,
                    "duration": 0.39999999999997726
                },
                {
                    "name": "B2",
                    "midi": 47,
                    "time": 198.99999999999585,
                    "velocity": 0.30708661417322836,
                    "duration": 0.19999999999998863
                },
                {
                    "name": "E2",
                    "midi": 40,
                    "time": 198.99999999999585,
                    "velocity": 0.2677165354330709,
                    "duration": 0.19999999999998863
                },
                {
                    "name": "D2",
                    "midi": 38,
                    "time": 199.19999999999584,
                    "velocity": 0.3858267716535433,
                    "duration": 0.19999999999998863
                },
                {
                    "name": "A2",
                    "midi": 45,
                    "time": 199.39999999999583,
                    "velocity": 0.2755905511811024,
                    "duration": 0.18999999999999773
                },
                {
                    "name": "D3",
                    "midi": 50,
                    "time": 199.39999999999583,
                    "velocity": 0.33070866141732286,
                    "duration": 0.18999999999999773
                },
                {
                    "name": "A2",
                    "midi": 45,
                    "time": 199.59999999999582,
                    "velocity": 0.2755905511811024,
                    "duration": 0.1899999999999693
                },
                {
                    "name": "D3",
                    "midi": 50,
                    "time": 199.59999999999582,
                    "velocity": 0.33070866141732286,
                    "duration": 0.1899999999999693
                },
                {
                    "name": "A2",
                    "midi": 45,
                    "time": 199.79999999999578,
                    "velocity": 0.2755905511811024,
                    "duration": 0.18999999999999773
                },
                {
                    "name": "D3",
                    "midi": 50,
                    "time": 199.79999999999578,
                    "velocity": 0.33070866141732286,
                    "duration": 0.18999999999999773
                },
                {
                    "name": "A2",
                    "midi": 45,
                    "time": 199.99999999999577,
                    "velocity": 0.2755905511811024,
                    "duration": 0.18999999999999773
                },
                {
                    "name": "D3",
                    "midi": 50,
                    "time": 199.99999999999577,
                    "velocity": 0.33070866141732286,
                    "duration": 0.18999999999999773
                },
                {
                    "name": "A2",
                    "midi": 45,
                    "time": 200.19999999999575,
                    "velocity": 0.2755905511811024,
                    "duration": 0.18999999999999773
                },
                {
                    "name": "D3",
                    "midi": 50,
                    "time": 200.19999999999575,
                    "velocity": 0.33070866141732286,
                    "duration": 0.18999999999999773
                },
                {
                    "name": "D3",
                    "midi": 50,
                    "time": 200.39999999999574,
                    "velocity": 0.36220472440944884,
                    "duration": 0.18999999999999773
                },
                {
                    "name": "A2",
                    "midi": 45,
                    "time": 200.39999999999574,
                    "velocity": 0.30708661417322836,
                    "duration": 0.18999999999999773
                },
                {
                    "name": "D3",
                    "midi": 50,
                    "time": 200.59999999999573,
                    "velocity": 0.3543307086614173,
                    "duration": 0.18999999999999773
                },
                {
                    "name": "A2",
                    "midi": 45,
                    "time": 200.59999999999573,
                    "velocity": 0.2992125984251969,
                    "duration": 0.18999999999999773
                },
                {
                    "name": "D2",
                    "midi": 38,
                    "time": 200.79999999999572,
                    "velocity": 0.3543307086614173,
                    "duration": 0.39999999999997726
                },
                {
                    "name": "D3",
                    "midi": 50,
                    "time": 200.9999999999957,
                    "velocity": 0.3543307086614173,
                    "duration": 0.19999999999998863
                },
                {
                    "name": "A2",
                    "midi": 45,
                    "time": 200.9999999999957,
                    "velocity": 0.2992125984251969,
                    "duration": 0.19999999999998863
                },
                {
                    "name": "D2",
                    "midi": 38,
                    "time": 201.1999999999957,
                    "velocity": 0.3543307086614173,
                    "duration": 0.39999999999997726
                },
                {
                    "name": "D3",
                    "midi": 50,
                    "time": 201.39999999999569,
                    "velocity": 0.3543307086614173,
                    "duration": 0.19999999999998863
                },
                {
                    "name": "A2",
                    "midi": 45,
                    "time": 201.39999999999569,
                    "velocity": 0.2992125984251969,
                    "duration": 0.19999999999998863
                },
                {
                    "name": "A1",
                    "midi": 33,
                    "time": 201.59999999999567,
                    "velocity": 0.3543307086614173,
                    "duration": 0.4000000000000057
                },
                {
                    "name": "A2",
                    "midi": 45,
                    "time": 201.7999999999957,
                    "velocity": 0.3543307086614173,
                    "duration": 0.19999999999998863
                },
                {
                    "name": "E2",
                    "midi": 40,
                    "time": 201.7999999999957,
                    "velocity": 0.2992125984251969,
                    "duration": 0.19999999999998863
                },
                {
                    "name": "A1",
                    "midi": 33,
                    "time": 201.99999999999568,
                    "velocity": 0.3543307086614173,
                    "duration": 0.20000000000001705
                },
                {
                    "name": "A2",
                    "midi": 45,
                    "time": 202.1999999999957,
                    "velocity": 0.3543307086614173,
                    "duration": 0.18999999999999773
                },
                {
                    "name": "E2",
                    "midi": 40,
                    "time": 202.1999999999957,
                    "velocity": 0.2992125984251969,
                    "duration": 0.18999999999999773
                },
                {
                    "name": "A2",
                    "midi": 45,
                    "time": 202.39999999999569,
                    "velocity": 0.3543307086614173,
                    "duration": 0.18999999999999773
                },
                {
                    "name": "E2",
                    "midi": 40,
                    "time": 202.39999999999569,
                    "velocity": 0.2992125984251969,
                    "duration": 0.18999999999999773
                },
                {
                    "name": "A2",
                    "midi": 45,
                    "time": 202.59999999999567,
                    "velocity": 0.3543307086614173,
                    "duration": 0.18999999999999773
                },
                {
                    "name": "E2",
                    "midi": 40,
                    "time": 202.59999999999567,
                    "velocity": 0.2992125984251969,
                    "duration": 0.18999999999999773
                },
                {
                    "name": "A2",
                    "midi": 45,
                    "time": 202.79999999999566,
                    "velocity": 0.3858267716535433,
                    "duration": 0.18999999999999773
                },
                {
                    "name": "E2",
                    "midi": 40,
                    "time": 202.79999999999566,
                    "velocity": 0.3228346456692913,
                    "duration": 0.18999999999999773
                },
                {
                    "name": "A2",
                    "midi": 45,
                    "time": 202.99999999999565,
                    "velocity": 0.3858267716535433,
                    "duration": 0.18999999999999773
                },
                {
                    "name": "E2",
                    "midi": 40,
                    "time": 202.99999999999565,
                    "velocity": 0.3228346456692913,
                    "duration": 0.18999999999999773
                },
                {
                    "name": "A1",
                    "midi": 33,
                    "time": 203.19999999999564,
                    "velocity": 0.3858267716535433,
                    "duration": 0.39999999999997726
                },
                {
                    "name": "A2",
                    "midi": 45,
                    "time": 203.39999999999563,
                    "velocity": 0.3858267716535433,
                    "duration": 0.19999999999998863
                },
                {
                    "name": "E2",
                    "midi": 40,
                    "time": 203.39999999999563,
                    "velocity": 0.3228346456692913,
                    "duration": 0.19999999999998863
                },
                {
                    "name": "A1",
                    "midi": 33,
                    "time": 203.59999999999562,
                    "velocity": 0.3858267716535433,
                    "duration": 0.39999999999997726
                },
                {
                    "name": "A2",
                    "midi": 45,
                    "time": 203.7999999999956,
                    "velocity": 0.3858267716535433,
                    "duration": 0.19999999999998863
                },
                {
                    "name": "E2",
                    "midi": 40,
                    "time": 203.7999999999956,
                    "velocity": 0.3228346456692913,
                    "duration": 0.19999999999998863
                },
                {
                    "name": "G#1",
                    "midi": 32,
                    "time": 203.9999999999956,
                    "velocity": 0.48031496062992124,
                    "duration": 0.18999999999999773
                },
                {
                    "name": "G#2",
                    "midi": 44,
                    "time": 204.19999999999558,
                    "velocity": 0.3464566929133858,
                    "duration": 0.18999999999999773
                },
                {
                    "name": "C#3",
                    "midi": 49,
                    "time": 204.19999999999558,
                    "velocity": 0.3464566929133858,
                    "duration": 0.18999999999999773
                },
                {
                    "name": "E3",
                    "midi": 52,
                    "time": 204.19999999999558,
                    "velocity": 0.4015748031496063,
                    "duration": 0.18999999999999773
                },
                {
                    "name": "G#2",
                    "midi": 44,
                    "time": 204.39999999999557,
                    "velocity": 0.3464566929133858,
                    "duration": 0.18999999999999773
                },
                {
                    "name": "C#3",
                    "midi": 49,
                    "time": 204.39999999999557,
                    "velocity": 0.3464566929133858,
                    "duration": 0.18999999999999773
                },
                {
                    "name": "E3",
                    "midi": 52,
                    "time": 204.39999999999557,
                    "velocity": 0.4015748031496063,
                    "duration": 0.18999999999999773
                },
                {
                    "name": "G#2",
                    "midi": 44,
                    "time": 204.59999999999556,
                    "velocity": 0.3464566929133858,
                    "duration": 0.18999999999999773
                },
                {
                    "name": "C#3",
                    "midi": 49,
                    "time": 204.59999999999556,
                    "velocity": 0.3464566929133858,
                    "duration": 0.18999999999999773
                },
                {
                    "name": "E3",
                    "midi": 52,
                    "time": 204.59999999999556,
                    "velocity": 0.4094488188976378,
                    "duration": 0.18999999999999773
                },
                {
                    "name": "G#2",
                    "midi": 44,
                    "time": 204.79999999999555,
                    "velocity": 0.3464566929133858,
                    "duration": 0.18999999999999773
                },
                {
                    "name": "C#3",
                    "midi": 49,
                    "time": 204.79999999999555,
                    "velocity": 0.3464566929133858,
                    "duration": 0.18999999999999773
                },
                {
                    "name": "E3",
                    "midi": 52,
                    "time": 204.79999999999555,
                    "velocity": 0.4094488188976378,
                    "duration": 0.18999999999999773
                },
                {
                    "name": "G#2",
                    "midi": 44,
                    "time": 204.99999999999554,
                    "velocity": 0.3464566929133858,
                    "duration": 0.18999999999999773
                },
                {
                    "name": "C#3",
                    "midi": 49,
                    "time": 204.99999999999554,
                    "velocity": 0.3464566929133858,
                    "duration": 0.18999999999999773
                },
                {
                    "name": "E3",
                    "midi": 52,
                    "time": 204.99999999999554,
                    "velocity": 0.4094488188976378,
                    "duration": 0.18999999999999773
                },
                {
                    "name": "G#1",
                    "midi": 32,
                    "time": 205.19999999999553,
                    "velocity": 0.48031496062992124,
                    "duration": 0.18999999999999773
                },
                {
                    "name": "G#2",
                    "midi": 44,
                    "time": 205.39999999999552,
                    "velocity": 0.3464566929133858,
                    "duration": 0.18999999999999773
                },
                {
                    "name": "D#3",
                    "midi": 51,
                    "time": 205.39999999999552,
                    "velocity": 0.3464566929133858,
                    "duration": 0.18999999999999773
                },
                {
                    "name": "F#3",
                    "midi": 54,
                    "time": 205.39999999999552,
                    "velocity": 0.4094488188976378,
                    "duration": 0.18999999999999773
                },
                {
                    "name": "G#2",
                    "midi": 44,
                    "time": 205.5999999999955,
                    "velocity": 0.3464566929133858,
                    "duration": 0.1899999999999693
                },
                {
                    "name": "D#3",
                    "midi": 51,
                    "time": 205.5999999999955,
                    "velocity": 0.3464566929133858,
                    "duration": 0.1899999999999693
                },
                {
                    "name": "F#3",
                    "midi": 54,
                    "time": 205.5999999999955,
                    "velocity": 0.4094488188976378,
                    "duration": 0.1899999999999693
                },
                {
                    "name": "G#2",
                    "midi": 44,
                    "time": 205.79999999999546,
                    "velocity": 0.3464566929133858,
                    "duration": 0.18999999999999773
                },
                {
                    "name": "D#3",
                    "midi": 51,
                    "time": 205.79999999999546,
                    "velocity": 0.3464566929133858,
                    "duration": 0.18999999999999773
                },
                {
                    "name": "F#3",
                    "midi": 54,
                    "time": 205.79999999999546,
                    "velocity": 0.4094488188976378,
                    "duration": 0.18999999999999773
                },
                {
                    "name": "G#2",
                    "midi": 44,
                    "time": 205.99999999999545,
                    "velocity": 0.3464566929133858,
                    "duration": 0.18999999999999773
                },
                {
                    "name": "D#3",
                    "midi": 51,
                    "time": 205.99999999999545,
                    "velocity": 0.3464566929133858,
                    "duration": 0.18999999999999773
                },
                {
                    "name": "F#3",
                    "midi": 54,
                    "time": 205.99999999999545,
                    "velocity": 0.4015748031496063,
                    "duration": 0.18999999999999773
                },
                {
                    "name": "G#2",
                    "midi": 44,
                    "time": 206.19999999999544,
                    "velocity": 0.3464566929133858,
                    "duration": 0.18999999999999773
                },
                {
                    "name": "D#3",
                    "midi": 51,
                    "time": 206.19999999999544,
                    "velocity": 0.3464566929133858,
                    "duration": 0.18999999999999773
                },
                {
                    "name": "F#3",
                    "midi": 54,
                    "time": 206.19999999999544,
                    "velocity": 0.4015748031496063,
                    "duration": 0.18999999999999773
                },
                {
                    "name": "C#2",
                    "midi": 37,
                    "time": 206.39999999999543,
                    "velocity": 0.4094488188976378,
                    "duration": 0.18999999999999773
                },
                {
                    "name": "G#2",
                    "midi": 44,
                    "time": 206.59999999999542,
                    "velocity": 0.2677165354330709,
                    "duration": 0.18999999999999773
                },
                {
                    "name": "C#3",
                    "midi": 49,
                    "time": 206.59999999999542,
                    "velocity": 0.2677165354330709,
                    "duration": 0.18999999999999773
                },
                {
                    "name": "E3",
                    "midi": 52,
                    "time": 206.59999999999542,
                    "velocity": 0.31496062992125984,
                    "duration": 0.18999999999999773
                },
                {
                    "name": "G#2",
                    "midi": 44,
                    "time": 206.7999999999954,
                    "velocity": 0.2677165354330709,
                    "duration": 0.18999999999999773
                },
                {
                    "name": "C#3",
                    "midi": 49,
                    "time": 206.7999999999954,
                    "velocity": 0.2677165354330709,
                    "duration": 0.18999999999999773
                },
                {
                    "name": "E3",
                    "midi": 52,
                    "time": 206.7999999999954,
                    "velocity": 0.31496062992125984,
                    "duration": 0.18999999999999773
                },
                {
                    "name": "G#2",
                    "midi": 44,
                    "time": 206.9999999999954,
                    "velocity": 0.2677165354330709,
                    "duration": 0.18999999999999773
                },
                {
                    "name": "C#3",
                    "midi": 49,
                    "time": 206.9999999999954,
                    "velocity": 0.2677165354330709,
                    "duration": 0.18999999999999773
                },
                {
                    "name": "E3",
                    "midi": 52,
                    "time": 206.9999999999954,
                    "velocity": 0.31496062992125984,
                    "duration": 0.18999999999999773
                },
                {
                    "name": "G#2",
                    "midi": 44,
                    "time": 207.19999999999538,
                    "velocity": 0.2677165354330709,
                    "duration": 0.18999999999999773
                },
                {
                    "name": "C#3",
                    "midi": 49,
                    "time": 207.19999999999538,
                    "velocity": 0.2677165354330709,
                    "duration": 0.18999999999999773
                },
                {
                    "name": "E3",
                    "midi": 52,
                    "time": 207.19999999999538,
                    "velocity": 0.31496062992125984,
                    "duration": 0.18999999999999773
                },
                {
                    "name": "G#2",
                    "midi": 44,
                    "time": 207.39999999999537,
                    "velocity": 0.2677165354330709,
                    "duration": 0.18999999999999773
                },
                {
                    "name": "C#3",
                    "midi": 49,
                    "time": 207.39999999999537,
                    "velocity": 0.2677165354330709,
                    "duration": 0.18999999999999773
                },
                {
                    "name": "E3",
                    "midi": 52,
                    "time": 207.39999999999537,
                    "velocity": 0.31496062992125984,
                    "duration": 0.18999999999999773
                },
                {
                    "name": "C#3",
                    "midi": 49,
                    "time": 207.59999999999536,
                    "velocity": 0.2677165354330709,
                    "duration": 0.18999999999999773
                },
                {
                    "name": "G#2",
                    "midi": 44,
                    "time": 207.59999999999536,
                    "velocity": 0.2677165354330709,
                    "duration": 0.18999999999999773
                },
                {
                    "name": "E3",
                    "midi": 52,
                    "time": 207.59999999999536,
                    "velocity": 0.30708661417322836,
                    "duration": 0.18999999999999773
                },
                {
                    "name": "G#2",
                    "midi": 44,
                    "time": 207.79999999999535,
                    "velocity": 0.2677165354330709,
                    "duration": 0.18999999999999773
                },
                {
                    "name": "C#3",
                    "midi": 49,
                    "time": 207.79999999999535,
                    "velocity": 0.2677165354330709,
                    "duration": 0.18999999999999773
                },
                {
                    "name": "E3",
                    "midi": 52,
                    "time": 207.79999999999535,
                    "velocity": 0.30708661417322836,
                    "duration": 0.18999999999999773
                },
                {
                    "name": "G#2",
                    "midi": 44,
                    "time": 207.99999999999534,
                    "velocity": 0.23622047244094488,
                    "duration": 0.18999999999999773
                },
                {
                    "name": "C#3",
                    "midi": 49,
                    "time": 207.99999999999534,
                    "velocity": 0.23622047244094488,
                    "duration": 0.18999999999999773
                },
                {
                    "name": "E3",
                    "midi": 52,
                    "time": 207.99999999999534,
                    "velocity": 0.29133858267716534,
                    "duration": 0.18999999999999773
                },
                {
                    "name": "G#2",
                    "midi": 44,
                    "time": 208.19999999999533,
                    "velocity": 0.23622047244094488,
                    "duration": 0.18999999999999773
                },
                {
                    "name": "C#3",
                    "midi": 49,
                    "time": 208.19999999999533,
                    "velocity": 0.23622047244094488,
                    "duration": 0.18999999999999773
                },
                {
                    "name": "E3",
                    "midi": 52,
                    "time": 208.19999999999533,
                    "velocity": 0.28346456692913385,
                    "duration": 0.18999999999999773
                },
                {
                    "name": "G#2",
                    "midi": 44,
                    "time": 208.39999999999532,
                    "velocity": 0.2204724409448819,
                    "duration": 0.18999999999999773
                },
                {
                    "name": "C#3",
                    "midi": 49,
                    "time": 208.39999999999532,
                    "velocity": 0.2204724409448819,
                    "duration": 0.18999999999999773
                },
                {
                    "name": "E3",
                    "midi": 52,
                    "time": 208.39999999999532,
                    "velocity": 0.2677165354330709,
                    "duration": 0.18999999999999773
                },
                {
                    "name": "G#2",
                    "midi": 44,
                    "time": 208.5999999999953,
                    "velocity": 0.1968503937007874,
                    "duration": 0.18999999999999773
                },
                {
                    "name": "C#3",
                    "midi": 49,
                    "time": 208.5999999999953,
                    "velocity": 0.1968503937007874,
                    "duration": 0.18999999999999773
                },
                {
                    "name": "E3",
                    "midi": 52,
                    "time": 208.5999999999953,
                    "velocity": 0.23622047244094488,
                    "duration": 0.18999999999999773
                },
                {
                    "name": "G#1",
                    "midi": 32,
                    "time": 208.7999999999953,
                    "velocity": 0.2047244094488189,
                    "duration": 0.18999999999999773
                },
                {
                    "name": "F#3",
                    "midi": 54,
                    "time": 208.99999999999528,
                    "velocity": 0.2047244094488189,
                    "duration": 0.18999999999999773
                },
                {
                    "name": "D#3",
                    "midi": 51,
                    "time": 208.99999999999528,
                    "velocity": 0.1732283464566929,
                    "duration": 0.18999999999999773
                },
                {
                    "name": "G#2",
                    "midi": 44,
                    "time": 208.99999999999528,
                    "velocity": 0.1732283464566929,
                    "duration": 0.18999999999999773
                },
                {
                    "name": "F#3",
                    "midi": 54,
                    "time": 209.19999999999527,
                    "velocity": 0.2047244094488189,
                    "duration": 0.19000000000002615
                },
                {
                    "name": "D#3",
                    "midi": 51,
                    "time": 209.19999999999527,
                    "velocity": 0.1732283464566929,
                    "duration": 0.19000000000002615
                },
                {
                    "name": "G#2",
                    "midi": 44,
                    "time": 209.19999999999527,
                    "velocity": 0.1732283464566929,
                    "duration": 0.19000000000002615
                },
                {
                    "name": "F#3",
                    "midi": 54,
                    "time": 209.3999999999953,
                    "velocity": 0.2047244094488189,
                    "duration": 0.18999999999999773
                },
                {
                    "name": "D#3",
                    "midi": 51,
                    "time": 209.3999999999953,
                    "velocity": 0.1732283464566929,
                    "duration": 0.18999999999999773
                },
                {
                    "name": "G#2",
                    "midi": 44,
                    "time": 209.3999999999953,
                    "velocity": 0.1732283464566929,
                    "duration": 0.18999999999999773
                },
                {
                    "name": "G#2",
                    "midi": 44,
                    "time": 209.59999999999528,
                    "velocity": 0.1732283464566929,
                    "duration": 0.18999999999999773
                },
                {
                    "name": "D#3",
                    "midi": 51,
                    "time": 209.59999999999528,
                    "velocity": 0.1732283464566929,
                    "duration": 0.18999999999999773
                },
                {
                    "name": "F#3",
                    "midi": 54,
                    "time": 209.59999999999528,
                    "velocity": 0.2047244094488189,
                    "duration": 0.18999999999999773
                },
                {
                    "name": "D#3",
                    "midi": 51,
                    "time": 209.79999999999526,
                    "velocity": 0.1732283464566929,
                    "duration": 0.18999999999999773
                },
                {
                    "name": "G#2",
                    "midi": 44,
                    "time": 209.79999999999526,
                    "velocity": 0.1732283464566929,
                    "duration": 0.18999999999999773
                },
                {
                    "name": "F#3",
                    "midi": 54,
                    "time": 209.79999999999526,
                    "velocity": 0.2047244094488189,
                    "duration": 0.18999999999999773
                },
                {
                    "name": "G#2",
                    "midi": 44,
                    "time": 209.99999999999525,
                    "velocity": 0.1732283464566929,
                    "duration": 0.18999999999999773
                },
                {
                    "name": "D#3",
                    "midi": 51,
                    "time": 209.99999999999525,
                    "velocity": 0.1732283464566929,
                    "duration": 0.18999999999999773
                },
                {
                    "name": "F#3",
                    "midi": 54,
                    "time": 209.99999999999525,
                    "velocity": 0.2047244094488189,
                    "duration": 0.18999999999999773
                },
                {
                    "name": "F#3",
                    "midi": 54,
                    "time": 210.19999999999524,
                    "velocity": 0.2047244094488189,
                    "duration": 0.18999999999999773
                },
                {
                    "name": "D#3",
                    "midi": 51,
                    "time": 210.19999999999524,
                    "velocity": 0.1732283464566929,
                    "duration": 0.18999999999999773
                },
                {
                    "name": "G#2",
                    "midi": 44,
                    "time": 210.19999999999524,
                    "velocity": 0.1732283464566929,
                    "duration": 0.18999999999999773
                },
                {
                    "name": "F#3",
                    "midi": 54,
                    "time": 210.39999999999523,
                    "velocity": 0.2047244094488189,
                    "duration": 0.18999999999999773
                },
                {
                    "name": "D#3",
                    "midi": 51,
                    "time": 210.39999999999523,
                    "velocity": 0.1732283464566929,
                    "duration": 0.18999999999999773
                },
                {
                    "name": "G#2",
                    "midi": 44,
                    "time": 210.39999999999523,
                    "velocity": 0.1732283464566929,
                    "duration": 0.18999999999999773
                },
                {
                    "name": "F#3",
                    "midi": 54,
                    "time": 210.59999999999522,
                    "velocity": 0.2047244094488189,
                    "duration": 0.18999999999999773
                },
                {
                    "name": "D#3",
                    "midi": 51,
                    "time": 210.59999999999522,
                    "velocity": 0.1732283464566929,
                    "duration": 0.18999999999999773
                },
                {
                    "name": "G#2",
                    "midi": 44,
                    "time": 210.59999999999522,
                    "velocity": 0.1732283464566929,
                    "duration": 0.18999999999999773
                },
                {
                    "name": "G#2",
                    "midi": 44,
                    "time": 210.7999999999952,
                    "velocity": 0.1732283464566929,
                    "duration": 0.18999999999999773
                },
                {
                    "name": "D#3",
                    "midi": 51,
                    "time": 210.7999999999952,
                    "velocity": 0.1732283464566929,
                    "duration": 0.18999999999999773
                },
                {
                    "name": "F#3",
                    "midi": 54,
                    "time": 210.7999999999952,
                    "velocity": 0.2047244094488189,
                    "duration": 0.18999999999999773
                },
                {
                    "name": "D#3",
                    "midi": 51,
                    "time": 210.9999999999952,
                    "velocity": 0.1732283464566929,
                    "duration": 0.18999999999999773
                },
                {
                    "name": "G#2",
                    "midi": 44,
                    "time": 210.9999999999952,
                    "velocity": 0.1732283464566929,
                    "duration": 0.18999999999999773
                },
                {
                    "name": "F#3",
                    "midi": 54,
                    "time": 210.9999999999952,
                    "velocity": 0.2047244094488189,
                    "duration": 0.18999999999999773
                },
                {
                    "name": "G#1",
                    "midi": 32,
                    "time": 211.19999999999519,
                    "velocity": 0.2047244094488189,
                    "duration": 0.18999999999999773
                },
                {
                    "name": "E3",
                    "midi": 52,
                    "time": 211.39999999999517,
                    "velocity": 0.2047244094488189,
                    "duration": 0.18999999999999773
                },
                {
                    "name": "C#3",
                    "midi": 49,
                    "time": 211.39999999999517,
                    "velocity": 0.1732283464566929,
                    "duration": 0.18999999999999773
                },
                {
                    "name": "G#2",
                    "midi": 44,
                    "time": 211.39999999999517,
                    "velocity": 0.1732283464566929,
                    "duration": 0.18999999999999773
                },
                {
                    "name": "G#2",
                    "midi": 44,
                    "time": 211.59999999999516,
                    "velocity": 0.1889763779527559,
                    "duration": 0.18999999999999773
                },
                {
                    "name": "C#3",
                    "midi": 49,
                    "time": 211.59999999999516,
                    "velocity": 0.1889763779527559,
                    "duration": 0.18999999999999773
                },
                {
                    "name": "E3",
                    "midi": 52,
                    "time": 211.59999999999516,
                    "velocity": 0.2204724409448819,
                    "duration": 0.18999999999999773
                },
                {
                    "name": "G#2",
                    "midi": 44,
                    "time": 211.79999999999515,
                    "velocity": 0.1889763779527559,
                    "duration": 0.18999999999999773
                },
                {
                    "name": "C#3",
                    "midi": 49,
                    "time": 211.79999999999515,
                    "velocity": 0.1889763779527559,
                    "duration": 0.18999999999999773
                },
                {
                    "name": "E3",
                    "midi": 52,
                    "time": 211.79999999999515,
                    "velocity": 0.2283464566929134,
                    "duration": 0.18999999999999773
                },
                {
                    "name": "G#2",
                    "midi": 44,
                    "time": 211.99999999999514,
                    "velocity": 0.2047244094488189,
                    "duration": 0.18999999999999773
                },
                {
                    "name": "C#3",
                    "midi": 49,
                    "time": 211.99999999999514,
                    "velocity": 0.2047244094488189,
                    "duration": 0.18999999999999773
                },
                {
                    "name": "E3",
                    "midi": 52,
                    "time": 211.99999999999514,
                    "velocity": 0.23622047244094488,
                    "duration": 0.18999999999999773
                },
                {
                    "name": "E3",
                    "midi": 52,
                    "time": 212.19999999999513,
                    "velocity": 0.2440944881889764,
                    "duration": 0.18999999999999773
                },
                {
                    "name": "G#2",
                    "midi": 44,
                    "time": 212.19999999999513,
                    "velocity": 0.2047244094488189,
                    "duration": 0.18999999999999773
                },
                {
                    "name": "C#3",
                    "midi": 49,
                    "time": 212.19999999999513,
                    "velocity": 0.2047244094488189,
                    "duration": 0.18999999999999773
                },
                {
                    "name": "G#2",
                    "midi": 44,
                    "time": 212.39999999999512,
                    "velocity": 0.2204724409448819,
                    "duration": 0.18999999999999773
                },
                {
                    "name": "C#3",
                    "midi": 49,
                    "time": 212.39999999999512,
                    "velocity": 0.2204724409448819,
                    "duration": 0.18999999999999773
                },
                {
                    "name": "E3",
                    "midi": 52,
                    "time": 212.39999999999512,
                    "velocity": 0.2677165354330709,
                    "duration": 0.18999999999999773
                },
                {
                    "name": "C#3",
                    "midi": 49,
                    "time": 212.5999999999951,
                    "velocity": 0.2283464566929134,
                    "duration": 0.18999999999999773
                },
                {
                    "name": "G#2",
                    "midi": 44,
                    "time": 212.5999999999951,
                    "velocity": 0.2283464566929134,
                    "duration": 0.18999999999999773
                },
                {
                    "name": "E3",
                    "midi": 52,
                    "time": 212.5999999999951,
                    "velocity": 0.2755905511811024,
                    "duration": 0.18999999999999773
                },
                {
                    "name": "G#2",
                    "midi": 44,
                    "time": 212.7999999999951,
                    "velocity": 0.23622047244094488,
                    "duration": 0.18999999999999773
                },
                {
                    "name": "C#3",
                    "midi": 49,
                    "time": 212.7999999999951,
                    "velocity": 0.23622047244094488,
                    "duration": 0.18999999999999773
                },
                {
                    "name": "E3",
                    "midi": 52,
                    "time": 212.7999999999951,
                    "velocity": 0.28346456692913385,
                    "duration": 0.18999999999999773
                },
                {
                    "name": "E3",
                    "midi": 52,
                    "time": 212.99999999999508,
                    "velocity": 0.29133858267716534,
                    "duration": 0.18999999999999773
                },
                {
                    "name": "G#2",
                    "midi": 44,
                    "time": 212.99999999999508,
                    "velocity": 0.23622047244094488,
                    "duration": 0.18999999999999773
                },
                {
                    "name": "C#3",
                    "midi": 49,
                    "time": 212.99999999999508,
                    "velocity": 0.23622047244094488,
                    "duration": 0.18999999999999773
                },
                {
                    "name": "G#2",
                    "midi": 44,
                    "time": 213.19999999999507,
                    "velocity": 0.25984251968503935,
                    "duration": 0.18999999999999773
                },
                {
                    "name": "C#3",
                    "midi": 49,
                    "time": 213.19999999999507,
                    "velocity": 0.25984251968503935,
                    "duration": 0.18999999999999773
                },
                {
                    "name": "E3",
                    "midi": 52,
                    "time": 213.19999999999507,
                    "velocity": 0.30708661417322836,
                    "duration": 0.18999999999999773
                },
                {
                    "name": "E3",
                    "midi": 52,
                    "time": 213.39999999999506,
                    "velocity": 0.30708661417322836,
                    "duration": 0.18999999999999773
                },
                {
                    "name": "G#2",
                    "midi": 44,
                    "time": 213.39999999999506,
                    "velocity": 0.2677165354330709,
                    "duration": 0.18999999999999773
                },
                {
                    "name": "C#3",
                    "midi": 49,
                    "time": 213.39999999999506,
                    "velocity": 0.2677165354330709,
                    "duration": 0.18999999999999773
                },
                {
                    "name": "A1",
                    "midi": 33,
                    "time": 213.59999999999505,
                    "velocity": 0.3700787401574803,
                    "duration": 0.18999999999999773
                },
                {
                    "name": "E3",
                    "midi": 52,
                    "time": 213.79999999999504,
                    "velocity": 0.33070866141732286,
                    "duration": 0.18999999999999773
                },
                {
                    "name": "C#3",
                    "midi": 49,
                    "time": 213.79999999999504,
                    "velocity": 0.2755905511811024,
                    "duration": 0.18999999999999773
                },
                {
                    "name": "A2",
                    "midi": 45,
                    "time": 213.79999999999504,
                    "velocity": 0.2755905511811024,
                    "duration": 0.18999999999999773
                },
                {
                    "name": "A2",
                    "midi": 45,
                    "time": 213.99999999999503,
                    "velocity": 0.2992125984251969,
                    "duration": 0.18999999999999773
                },
                {
                    "name": "C#3",
                    "midi": 49,
                    "time": 213.99999999999503,
                    "velocity": 0.2992125984251969,
                    "duration": 0.18999999999999773
                },
                {
                    "name": "E3",
                    "midi": 52,
                    "time": 213.99999999999503,
                    "velocity": 0.3543307086614173,
                    "duration": 0.18999999999999773
                },
                {
                    "name": "E3",
                    "midi": 52,
                    "time": 214.19999999999501,
                    "velocity": 0.3464566929133858,
                    "duration": 0.18999999999999773
                },
                {
                    "name": "A2",
                    "midi": 45,
                    "time": 214.19999999999501,
                    "velocity": 0.28346456692913385,
                    "duration": 0.18999999999999773
                },
                {
                    "name": "C#3",
                    "midi": 49,
                    "time": 214.19999999999501,
                    "velocity": 0.28346456692913385,
                    "duration": 0.18999999999999773
                },
                {
                    "name": "E3",
                    "midi": 52,
                    "time": 214.399999999995,
                    "velocity": 0.31496062992125984,
                    "duration": 0.18999999999999773
                },
                {
                    "name": "A2",
                    "midi": 45,
                    "time": 214.399999999995,
                    "velocity": 0.2677165354330709,
                    "duration": 0.18999999999999773
                },
                {
                    "name": "C#3",
                    "midi": 49,
                    "time": 214.399999999995,
                    "velocity": 0.2677165354330709,
                    "duration": 0.18999999999999773
                },
                {
                    "name": "E3",
                    "midi": 52,
                    "time": 214.599999999995,
                    "velocity": 0.30708661417322836,
                    "duration": 0.18999999999999773
                },
                {
                    "name": "A2",
                    "midi": 45,
                    "time": 214.599999999995,
                    "velocity": 0.25984251968503935,
                    "duration": 0.18999999999999773
                },
                {
                    "name": "C#3",
                    "midi": 49,
                    "time": 214.599999999995,
                    "velocity": 0.25984251968503935,
                    "duration": 0.18999999999999773
                },
                {
                    "name": "E3",
                    "midi": 52,
                    "time": 214.79999999999498,
                    "velocity": 0.29133858267716534,
                    "duration": 0.18999999999999773
                },
                {
                    "name": "A2",
                    "midi": 45,
                    "time": 214.79999999999498,
                    "velocity": 0.23622047244094488,
                    "duration": 0.18999999999999773
                },
                {
                    "name": "C#3",
                    "midi": 49,
                    "time": 214.79999999999498,
                    "velocity": 0.23622047244094488,
                    "duration": 0.18999999999999773
                },
                {
                    "name": "A2",
                    "midi": 45,
                    "time": 214.99999999999497,
                    "velocity": 0.2283464566929134,
                    "duration": 0.18999999999999773
                },
                {
                    "name": "C#3",
                    "midi": 49,
                    "time": 214.99999999999497,
                    "velocity": 0.2283464566929134,
                    "duration": 0.18999999999999773
                },
                {
                    "name": "E3",
                    "midi": 52,
                    "time": 214.99999999999497,
                    "velocity": 0.2755905511811024,
                    "duration": 0.18999999999999773
                },
                {
                    "name": "D#3",
                    "midi": 51,
                    "time": 215.19999999999496,
                    "velocity": 0.2677165354330709,
                    "duration": 0.18999999999999773
                },
                {
                    "name": "A2",
                    "midi": 45,
                    "time": 215.19999999999496,
                    "velocity": 0.2204724409448819,
                    "duration": 0.18999999999999773
                },
                {
                    "name": "D#3",
                    "midi": 51,
                    "time": 215.39999999999495,
                    "velocity": 0.2440944881889764,
                    "duration": 0.18999999999999773
                },
                {
                    "name": "A2",
                    "midi": 45,
                    "time": 215.39999999999495,
                    "velocity": 0.2047244094488189,
                    "duration": 0.18999999999999773
                },
                {
                    "name": "D#3",
                    "midi": 51,
                    "time": 215.59999999999494,
                    "velocity": 0.23622047244094488,
                    "duration": 0.18999999999999773
                },
                {
                    "name": "A2",
                    "midi": 45,
                    "time": 215.59999999999494,
                    "velocity": 0.1968503937007874,
                    "duration": 0.18999999999999773
                },
                {
                    "name": "D#3",
                    "midi": 51,
                    "time": 215.79999999999492,
                    "velocity": 0.2204724409448819,
                    "duration": 0.18999999999999773
                },
                {
                    "name": "A2",
                    "midi": 45,
                    "time": 215.79999999999492,
                    "velocity": 0.1889763779527559,
                    "duration": 0.18999999999999773
                },
                {
                    "name": "G#1",
                    "midi": 32,
                    "time": 215.9999999999949,
                    "velocity": 0.2047244094488189,
                    "duration": 0.18999999999999773
                },
                {
                    "name": "G#2",
                    "midi": 44,
                    "time": 216.1999999999949,
                    "velocity": 0.2047244094488189,
                    "duration": 0.18999999999999773
                },
                {
                    "name": "C3",
                    "midi": 48,
                    "time": 216.3999999999949,
                    "velocity": 0.2047244094488189,
                    "duration": 0.18999999999999773
                },
                {
                    "name": "D#3",
                    "midi": 51,
                    "time": 216.3999999999949,
                    "velocity": 0.2047244094488189,
                    "duration": 0.18999999999999773
                },
                {
                    "name": "G#2",
                    "midi": 44,
                    "time": 216.3999999999949,
                    "velocity": 0.2047244094488189,
                    "duration": 0.18999999999999773
                },
                {
                    "name": "C3",
                    "midi": 48,
                    "time": 216.59999999999488,
                    "velocity": 0.1732283464566929,
                    "duration": 0.18999999999999773
                },
                {
                    "name": "D#3",
                    "midi": 51,
                    "time": 216.59999999999488,
                    "velocity": 0.2047244094488189,
                    "duration": 0.18999999999999773
                },
                {
                    "name": "G#2",
                    "midi": 44,
                    "time": 216.59999999999488,
                    "velocity": 0.1732283464566929,
                    "duration": 0.18999999999999773
                },
                {
                    "name": "C3",
                    "midi": 48,
                    "time": 216.79999999999487,
                    "velocity": 0.1732283464566929,
                    "duration": 0.18999999999999773
                },
                {
                    "name": "D#3",
                    "midi": 51,
                    "time": 216.79999999999487,
                    "velocity": 0.2047244094488189,
                    "duration": 0.18999999999999773
                },
                {
                    "name": "G#2",
                    "midi": 44,
                    "time": 216.79999999999487,
                    "velocity": 0.1732283464566929,
                    "duration": 0.18999999999999773
                },
                {
                    "name": "C3",
                    "midi": 48,
                    "time": 216.99999999999486,
                    "velocity": 0.1732283464566929,
                    "duration": 0.18999999999999773
                },
                {
                    "name": "D#3",
                    "midi": 51,
                    "time": 216.99999999999486,
                    "velocity": 0.2047244094488189,
                    "duration": 0.18999999999999773
                },
                {
                    "name": "G#2",
                    "midi": 44,
                    "time": 216.99999999999486,
                    "velocity": 0.1732283464566929,
                    "duration": 0.18999999999999773
                },
                {
                    "name": "C3",
                    "midi": 48,
                    "time": 217.19999999999484,
                    "velocity": 0.1732283464566929,
                    "duration": 0.18999999999999773
                },
                {
                    "name": "D#3",
                    "midi": 51,
                    "time": 217.19999999999484,
                    "velocity": 0.2047244094488189,
                    "duration": 0.18999999999999773
                },
                {
                    "name": "G#2",
                    "midi": 44,
                    "time": 217.19999999999484,
                    "velocity": 0.1732283464566929,
                    "duration": 0.18999999999999773
                },
                {
                    "name": "C3",
                    "midi": 48,
                    "time": 217.39999999999483,
                    "velocity": 0.1732283464566929,
                    "duration": 0.18999999999999773
                },
                {
                    "name": "D#3",
                    "midi": 51,
                    "time": 217.39999999999483,
                    "velocity": 0.2047244094488189,
                    "duration": 0.18999999999999773
                },
                {
                    "name": "G#2",
                    "midi": 44,
                    "time": 217.39999999999483,
                    "velocity": 0.1732283464566929,
                    "duration": 0.18999999999999773
                },
                {
                    "name": "C3",
                    "midi": 48,
                    "time": 217.59999999999482,
                    "velocity": 0.1732283464566929,
                    "duration": 0.18999999999999773
                },
                {
                    "name": "D#3",
                    "midi": 51,
                    "time": 217.59999999999482,
                    "velocity": 0.2047244094488189,
                    "duration": 0.18999999999999773
                },
                {
                    "name": "G#2",
                    "midi": 44,
                    "time": 217.59999999999482,
                    "velocity": 0.1732283464566929,
                    "duration": 0.18999999999999773
                },
                {
                    "name": "C3",
                    "midi": 48,
                    "time": 217.7999999999948,
                    "velocity": 0.1732283464566929,
                    "duration": 0.18999999999999773
                },
                {
                    "name": "D#3",
                    "midi": 51,
                    "time": 217.7999999999948,
                    "velocity": 0.2047244094488189,
                    "duration": 0.18999999999999773
                },
                {
                    "name": "G#2",
                    "midi": 44,
                    "time": 217.7999999999948,
                    "velocity": 0.1732283464566929,
                    "duration": 0.18999999999999773
                },
                {
                    "name": "C3",
                    "midi": 48,
                    "time": 217.9999999999948,
                    "velocity": 0.1732283464566929,
                    "duration": 0.18999999999999773
                },
                {
                    "name": "D#3",
                    "midi": 51,
                    "time": 217.9999999999948,
                    "velocity": 0.2047244094488189,
                    "duration": 0.18999999999999773
                },
                {
                    "name": "G#2",
                    "midi": 44,
                    "time": 217.9999999999948,
                    "velocity": 0.1732283464566929,
                    "duration": 0.18999999999999773
                },
                {
                    "name": "C3",
                    "midi": 48,
                    "time": 218.1999999999948,
                    "velocity": 0.1732283464566929,
                    "duration": 0.18999999999999773
                },
                {
                    "name": "D#3",
                    "midi": 51,
                    "time": 218.1999999999948,
                    "velocity": 0.2047244094488189,
                    "duration": 0.18999999999999773
                },
                {
                    "name": "G#2",
                    "midi": 44,
                    "time": 218.1999999999948,
                    "velocity": 0.1732283464566929,
                    "duration": 0.18999999999999773
                },
                {
                    "name": "G#1",
                    "midi": 32,
                    "time": 218.39999999999478,
                    "velocity": 0.2047244094488189,
                    "duration": 0.18999999999999773
                },
                {
                    "name": "F#3",
                    "midi": 54,
                    "time": 218.59999999999476,
                    "velocity": 0.2047244094488189,
                    "duration": 0.18999999999999773
                },
                {
                    "name": "D#3",
                    "midi": 51,
                    "time": 218.59999999999476,
                    "velocity": 0.1732283464566929,
                    "duration": 0.18999999999999773
                },
                {
                    "name": "G#2",
                    "midi": 44,
                    "time": 218.59999999999476,
                    "velocity": 0.1732283464566929,
                    "duration": 0.18999999999999773
                },
                {
                    "name": "F#3",
                    "midi": 54,
                    "time": 218.79999999999475,
                    "velocity": 0.2047244094488189,
                    "duration": 0.19000000000002615
                },
                {
                    "name": "D#3",
                    "midi": 51,
                    "time": 218.79999999999475,
                    "velocity": 0.1732283464566929,
                    "duration": 0.19000000000002615
                },
                {
                    "name": "G#2",
                    "midi": 44,
                    "time": 218.79999999999475,
                    "velocity": 0.1732283464566929,
                    "duration": 0.19000000000002615
                },
                {
                    "name": "F#3",
                    "midi": 54,
                    "time": 218.99999999999477,
                    "velocity": 0.2047244094488189,
                    "duration": 0.18999999999999773
                },
                {
                    "name": "D#3",
                    "midi": 51,
                    "time": 218.99999999999477,
                    "velocity": 0.1732283464566929,
                    "duration": 0.18999999999999773
                },
                {
                    "name": "G#2",
                    "midi": 44,
                    "time": 218.99999999999477,
                    "velocity": 0.1732283464566929,
                    "duration": 0.18999999999999773
                },
                {
                    "name": "G#2",
                    "midi": 44,
                    "time": 219.19999999999476,
                    "velocity": 0.1732283464566929,
                    "duration": 0.18999999999999773
                },
                {
                    "name": "D#3",
                    "midi": 51,
                    "time": 219.19999999999476,
                    "velocity": 0.1732283464566929,
                    "duration": 0.18999999999999773
                },
                {
                    "name": "F#3",
                    "midi": 54,
                    "time": 219.19999999999476,
                    "velocity": 0.2047244094488189,
                    "duration": 0.18999999999999773
                },
                {
                    "name": "D#3",
                    "midi": 51,
                    "time": 219.39999999999475,
                    "velocity": 0.1732283464566929,
                    "duration": 0.18999999999999773
                },
                {
                    "name": "G#2",
                    "midi": 44,
                    "time": 219.39999999999475,
                    "velocity": 0.1732283464566929,
                    "duration": 0.18999999999999773
                },
                {
                    "name": "F#3",
                    "midi": 54,
                    "time": 219.39999999999475,
                    "velocity": 0.2047244094488189,
                    "duration": 0.18999999999999773
                },
                {
                    "name": "G#2",
                    "midi": 44,
                    "time": 219.59999999999474,
                    "velocity": 0.1732283464566929,
                    "duration": 0.18999999999999773
                },
                {
                    "name": "D#3",
                    "midi": 51,
                    "time": 219.59999999999474,
                    "velocity": 0.1732283464566929,
                    "duration": 0.18999999999999773
                },
                {
                    "name": "F#3",
                    "midi": 54,
                    "time": 219.59999999999474,
                    "velocity": 0.2047244094488189,
                    "duration": 0.18999999999999773
                },
                {
                    "name": "F#3",
                    "midi": 54,
                    "time": 219.79999999999472,
                    "velocity": 0.2047244094488189,
                    "duration": 0.18999999999999773
                },
                {
                    "name": "D#3",
                    "midi": 51,
                    "time": 219.79999999999472,
                    "velocity": 0.1732283464566929,
                    "duration": 0.18999999999999773
                },
                {
                    "name": "G#2",
                    "midi": 44,
                    "time": 219.79999999999472,
                    "velocity": 0.1732283464566929,
                    "duration": 0.18999999999999773
                },
                {
                    "name": "F#3",
                    "midi": 54,
                    "time": 219.9999999999947,
                    "velocity": 0.2047244094488189,
                    "duration": 0.18999999999999773
                },
                {
                    "name": "D#3",
                    "midi": 51,
                    "time": 219.9999999999947,
                    "velocity": 0.1732283464566929,
                    "duration": 0.18999999999999773
                },
                {
                    "name": "G#2",
                    "midi": 44,
                    "time": 219.9999999999947,
                    "velocity": 0.1732283464566929,
                    "duration": 0.18999999999999773
                },
                {
                    "name": "F#3",
                    "midi": 54,
                    "time": 220.1999999999947,
                    "velocity": 0.2047244094488189,
                    "duration": 0.18999999999999773
                },
                {
                    "name": "D#3",
                    "midi": 51,
                    "time": 220.1999999999947,
                    "velocity": 0.1732283464566929,
                    "duration": 0.18999999999999773
                },
                {
                    "name": "G#2",
                    "midi": 44,
                    "time": 220.1999999999947,
                    "velocity": 0.1732283464566929,
                    "duration": 0.18999999999999773
                },
                {
                    "name": "G#2",
                    "midi": 44,
                    "time": 220.3999999999947,
                    "velocity": 0.1732283464566929,
                    "duration": 0.18999999999999773
                },
                {
                    "name": "D#3",
                    "midi": 51,
                    "time": 220.3999999999947,
                    "velocity": 0.1732283464566929,
                    "duration": 0.18999999999999773
                },
                {
                    "name": "F#3",
                    "midi": 54,
                    "time": 220.3999999999947,
                    "velocity": 0.2047244094488189,
                    "duration": 0.18999999999999773
                },
                {
                    "name": "D#3",
                    "midi": 51,
                    "time": 220.59999999999468,
                    "velocity": 0.1732283464566929,
                    "duration": 0.18999999999999773
                },
                {
                    "name": "G#2",
                    "midi": 44,
                    "time": 220.59999999999468,
                    "velocity": 0.1732283464566929,
                    "duration": 0.18999999999999773
                },
                {
                    "name": "F#3",
                    "midi": 54,
                    "time": 220.59999999999468,
                    "velocity": 0.2047244094488189,
                    "duration": 0.18999999999999773
                },
                {
                    "name": "G#1",
                    "midi": 32,
                    "time": 220.79999999999467,
                    "velocity": 0.2047244094488189,
                    "duration": 0.18999999999999773
                },
                {
                    "name": "E3",
                    "midi": 52,
                    "time": 220.99999999999466,
                    "velocity": 0.2047244094488189,
                    "duration": 0.19000000000002615
                },
                {
                    "name": "C#3",
                    "midi": 49,
                    "time": 220.99999999999466,
                    "velocity": 0.1732283464566929,
                    "duration": 0.19000000000002615
                },
                {
                    "name": "G#2",
                    "midi": 44,
                    "time": 220.99999999999466,
                    "velocity": 0.1732283464566929,
                    "duration": 0.19000000000002615
                },
                {
                    "name": "G#2",
                    "midi": 44,
                    "time": 221.19999999999467,
                    "velocity": 0.1732283464566929,
                    "duration": 0.18999999999999773
                },
                {
                    "name": "C#3",
                    "midi": 49,
                    "time": 221.19999999999467,
                    "velocity": 0.1732283464566929,
                    "duration": 0.18999999999999773
                },
                {
                    "name": "E3",
                    "midi": 52,
                    "time": 221.19999999999467,
                    "velocity": 0.2047244094488189,
                    "duration": 0.18999999999999773
                },
                {
                    "name": "G#2",
                    "midi": 44,
                    "time": 221.39999999999466,
                    "velocity": 0.1732283464566929,
                    "duration": 0.18999999999999773
                },
                {
                    "name": "C#3",
                    "midi": 49,
                    "time": 221.39999999999466,
                    "velocity": 0.1732283464566929,
                    "duration": 0.18999999999999773
                },
                {
                    "name": "E3",
                    "midi": 52,
                    "time": 221.39999999999466,
                    "velocity": 0.2047244094488189,
                    "duration": 0.18999999999999773
                },
                {
                    "name": "G#2",
                    "midi": 44,
                    "time": 221.59999999999465,
                    "velocity": 0.1732283464566929,
                    "duration": 0.18999999999999773
                },
                {
                    "name": "C#3",
                    "midi": 49,
                    "time": 221.59999999999465,
                    "velocity": 0.1732283464566929,
                    "duration": 0.18999999999999773
                },
                {
                    "name": "E3",
                    "midi": 52,
                    "time": 221.59999999999465,
                    "velocity": 0.2047244094488189,
                    "duration": 0.18999999999999773
                },
                {
                    "name": "G#2",
                    "midi": 44,
                    "time": 221.79999999999464,
                    "velocity": 0.1732283464566929,
                    "duration": 0.18999999999999773
                },
                {
                    "name": "C#3",
                    "midi": 49,
                    "time": 221.79999999999464,
                    "velocity": 0.1732283464566929,
                    "duration": 0.18999999999999773
                },
                {
                    "name": "E3",
                    "midi": 52,
                    "time": 221.79999999999464,
                    "velocity": 0.2047244094488189,
                    "duration": 0.18999999999999773
                },
                {
                    "name": "G#2",
                    "midi": 44,
                    "time": 221.99999999999463,
                    "velocity": 0.1732283464566929,
                    "duration": 0.18999999999999773
                },
                {
                    "name": "C#3",
                    "midi": 49,
                    "time": 221.99999999999463,
                    "velocity": 0.1732283464566929,
                    "duration": 0.18999999999999773
                },
                {
                    "name": "E3",
                    "midi": 52,
                    "time": 221.99999999999463,
                    "velocity": 0.2047244094488189,
                    "duration": 0.18999999999999773
                },
                {
                    "name": "C#3",
                    "midi": 49,
                    "time": 222.19999999999462,
                    "velocity": 0.1889763779527559,
                    "duration": 0.18999999999999773
                },
                {
                    "name": "G#2",
                    "midi": 44,
                    "time": 222.19999999999462,
                    "velocity": 0.1889763779527559,
                    "duration": 0.18999999999999773
                },
                {
                    "name": "E3",
                    "midi": 52,
                    "time": 222.19999999999462,
                    "velocity": 0.2204724409448819,
                    "duration": 0.18999999999999773
                },
                {
                    "name": "G#2",
                    "midi": 44,
                    "time": 222.3999999999946,
                    "velocity": 0.2047244094488189,
                    "duration": 0.18999999999999773
                },
                {
                    "name": "C#3",
                    "midi": 49,
                    "time": 222.3999999999946,
                    "velocity": 0.2047244094488189,
                    "duration": 0.18999999999999773
                },
                {
                    "name": "E3",
                    "midi": 52,
                    "time": 222.3999999999946,
                    "velocity": 0.23622047244094488,
                    "duration": 0.18999999999999773
                },
                {
                    "name": "G#2",
                    "midi": 44,
                    "time": 222.5999999999946,
                    "velocity": 0.2283464566929134,
                    "duration": 0.18999999999999773
                },
                {
                    "name": "C#3",
                    "midi": 49,
                    "time": 222.5999999999946,
                    "velocity": 0.2283464566929134,
                    "duration": 0.18999999999999773
                },
                {
                    "name": "E3",
                    "midi": 52,
                    "time": 222.5999999999946,
                    "velocity": 0.2755905511811024,
                    "duration": 0.18999999999999773
                },
                {
                    "name": "G#2",
                    "midi": 44,
                    "time": 222.79999999999458,
                    "velocity": 0.23622047244094488,
                    "duration": 0.18999999999999773
                },
                {
                    "name": "C#3",
                    "midi": 49,
                    "time": 222.79999999999458,
                    "velocity": 0.23622047244094488,
                    "duration": 0.18999999999999773
                },
                {
                    "name": "E3",
                    "midi": 52,
                    "time": 222.79999999999458,
                    "velocity": 0.29133858267716534,
                    "duration": 0.18999999999999773
                },
                {
                    "name": "G#2",
                    "midi": 44,
                    "time": 222.99999999999457,
                    "velocity": 0.2677165354330709,
                    "duration": 0.18999999999999773
                },
                {
                    "name": "C#3",
                    "midi": 49,
                    "time": 222.99999999999457,
                    "velocity": 0.2677165354330709,
                    "duration": 0.18999999999999773
                },
                {
                    "name": "E3",
                    "midi": 52,
                    "time": 222.99999999999457,
                    "velocity": 0.30708661417322836,
                    "duration": 0.18999999999999773
                },
                {
                    "name": "A1",
                    "midi": 33,
                    "time": 223.19999999999456,
                    "velocity": 0.3228346456692913,
                    "duration": 0.1899999999999693
                },
                {
                    "name": "E3",
                    "midi": 52,
                    "time": 223.39999999999452,
                    "velocity": 0.3228346456692913,
                    "duration": 0.18999999999999773
                },
                {
                    "name": "C#3",
                    "midi": 49,
                    "time": 223.39999999999452,
                    "velocity": 0.2755905511811024,
                    "duration": 0.18999999999999773
                },
                {
                    "name": "A2",
                    "midi": 45,
                    "time": 223.39999999999452,
                    "velocity": 0.2755905511811024,
                    "duration": 0.18999999999999773
                },
                {
                    "name": "A2",
                    "midi": 45,
                    "time": 223.5999999999945,
                    "velocity": 0.28346456692913385,
                    "duration": 0.1899999999999693
                },
                {
                    "name": "C#3",
                    "midi": 49,
                    "time": 223.5999999999945,
                    "velocity": 0.28346456692913385,
                    "duration": 0.1899999999999693
                },
                {
                    "name": "E3",
                    "midi": 52,
                    "time": 223.5999999999945,
                    "velocity": 0.3464566929133858,
                    "duration": 0.1899999999999693
                },
                {
                    "name": "A2",
                    "midi": 45,
                    "time": 223.79999999999447,
                    "velocity": 0.2755905511811024,
                    "duration": 0.18999999999999773
                },
                {
                    "name": "C#3",
                    "midi": 49,
                    "time": 223.79999999999447,
                    "velocity": 0.2755905511811024,
                    "duration": 0.18999999999999773
                },
                {
                    "name": "E3",
                    "midi": 52,
                    "time": 223.79999999999447,
                    "velocity": 0.33070866141732286,
                    "duration": 0.18999999999999773
                },
                {
                    "name": "A2",
                    "midi": 45,
                    "time": 223.99999999999446,
                    "velocity": 0.2677165354330709,
                    "duration": 0.18999999999999773
                },
                {
                    "name": "C#3",
                    "midi": 49,
                    "time": 223.99999999999446,
                    "velocity": 0.2677165354330709,
                    "duration": 0.18999999999999773
                },
                {
                    "name": "E3",
                    "midi": 52,
                    "time": 223.99999999999446,
                    "velocity": 0.31496062992125984,
                    "duration": 0.18999999999999773
                },
                {
                    "name": "A2",
                    "midi": 45,
                    "time": 224.19999999999445,
                    "velocity": 0.25984251968503935,
                    "duration": 0.18999999999999773
                },
                {
                    "name": "C#3",
                    "midi": 49,
                    "time": 224.19999999999445,
                    "velocity": 0.25984251968503935,
                    "duration": 0.18999999999999773
                },
                {
                    "name": "E3",
                    "midi": 52,
                    "time": 224.19999999999445,
                    "velocity": 0.30708661417322836,
                    "duration": 0.18999999999999773
                },
                {
                    "name": "A2",
                    "midi": 45,
                    "time": 224.39999999999444,
                    "velocity": 0.23622047244094488,
                    "duration": 0.18999999999999773
                },
                {
                    "name": "C#3",
                    "midi": 49,
                    "time": 224.39999999999444,
                    "velocity": 0.23622047244094488,
                    "duration": 0.18999999999999773
                },
                {
                    "name": "E3",
                    "midi": 52,
                    "time": 224.39999999999444,
                    "velocity": 0.29133858267716534,
                    "duration": 0.18999999999999773
                },
                {
                    "name": "A2",
                    "midi": 45,
                    "time": 224.59999999999442,
                    "velocity": 0.2283464566929134,
                    "duration": 0.18999999999999773
                },
                {
                    "name": "C#3",
                    "midi": 49,
                    "time": 224.59999999999442,
                    "velocity": 0.2283464566929134,
                    "duration": 0.18999999999999773
                },
                {
                    "name": "E3",
                    "midi": 52,
                    "time": 224.59999999999442,
                    "velocity": 0.2755905511811024,
                    "duration": 0.18999999999999773
                },
                {
                    "name": "A2",
                    "midi": 45,
                    "time": 224.7999999999944,
                    "velocity": 0.2204724409448819,
                    "duration": 0.18999999999999773
                },
                {
                    "name": "C#3",
                    "midi": 49,
                    "time": 224.7999999999944,
                    "velocity": 0.2204724409448819,
                    "duration": 0.18999999999999773
                },
                {
                    "name": "E3",
                    "midi": 52,
                    "time": 224.7999999999944,
                    "velocity": 0.2677165354330709,
                    "duration": 0.18999999999999773
                },
                {
                    "name": "A2",
                    "midi": 45,
                    "time": 224.9999999999944,
                    "velocity": 0.2047244094488189,
                    "duration": 0.18999999999999773
                },
                {
                    "name": "C#3",
                    "midi": 49,
                    "time": 224.9999999999944,
                    "velocity": 0.2047244094488189,
                    "duration": 0.18999999999999773
                },
                {
                    "name": "E3",
                    "midi": 52,
                    "time": 224.9999999999944,
                    "velocity": 0.2440944881889764,
                    "duration": 0.18999999999999773
                },
                {
                    "name": "A2",
                    "midi": 45,
                    "time": 225.1999999999944,
                    "velocity": 0.1968503937007874,
                    "duration": 0.18999999999999773
                },
                {
                    "name": "C#3",
                    "midi": 49,
                    "time": 225.1999999999944,
                    "velocity": 0.1968503937007874,
                    "duration": 0.18999999999999773
                },
                {
                    "name": "E3",
                    "midi": 52,
                    "time": 225.1999999999944,
                    "velocity": 0.23622047244094488,
                    "duration": 0.18999999999999773
                },
                {
                    "name": "A2",
                    "midi": 45,
                    "time": 225.39999999999438,
                    "velocity": 0.1889763779527559,
                    "duration": 0.18999999999999773
                },
                {
                    "name": "C#3",
                    "midi": 49,
                    "time": 225.39999999999438,
                    "velocity": 0.1889763779527559,
                    "duration": 0.18999999999999773
                },
                {
                    "name": "E3",
                    "midi": 52,
                    "time": 225.39999999999438,
                    "velocity": 0.2204724409448819,
                    "duration": 0.18999999999999773
                },
                {
                    "name": "G#1",
                    "midi": 32,
                    "time": 225.59999999999437,
                    "velocity": 0.2125984251968504,
                    "duration": 0.18999999999999773
                },
                {
                    "name": "E3",
                    "midi": 52,
                    "time": 225.79999999999436,
                    "velocity": 0.2047244094488189,
                    "duration": 0.18999999999999773
                },
                {
                    "name": "C#3",
                    "midi": 49,
                    "time": 225.79999999999436,
                    "velocity": 0.1732283464566929,
                    "duration": 0.18999999999999773
                },
                {
                    "name": "G#2",
                    "midi": 44,
                    "time": 225.79999999999436,
                    "velocity": 0.1732283464566929,
                    "duration": 0.18999999999999773
                },
                {
                    "name": "E3",
                    "midi": 52,
                    "time": 225.99999999999434,
                    "velocity": 0.2047244094488189,
                    "duration": 0.18999999999999773
                },
                {
                    "name": "C#3",
                    "midi": 49,
                    "time": 225.99999999999434,
                    "velocity": 0.1732283464566929,
                    "duration": 0.18999999999999773
                },
                {
                    "name": "G#2",
                    "midi": 44,
                    "time": 225.99999999999434,
                    "velocity": 0.1732283464566929,
                    "duration": 0.18999999999999773
                },
                {
                    "name": "E3",
                    "midi": 52,
                    "time": 226.19999999999433,
                    "velocity": 0.2047244094488189,
                    "duration": 0.18999999999999773
                },
                {
                    "name": "C#3",
                    "midi": 49,
                    "time": 226.19999999999433,
                    "velocity": 0.1732283464566929,
                    "duration": 0.18999999999999773
                },
                {
                    "name": "G#2",
                    "midi": 44,
                    "time": 226.19999999999433,
                    "velocity": 0.1732283464566929,
                    "duration": 0.18999999999999773
                },
                {
                    "name": "E3",
                    "midi": 52,
                    "time": 226.39999999999432,
                    "velocity": 0.2047244094488189,
                    "duration": 0.18999999999999773
                },
                {
                    "name": "C#3",
                    "midi": 49,
                    "time": 226.39999999999432,
                    "velocity": 0.1732283464566929,
                    "duration": 0.18999999999999773
                },
                {
                    "name": "G#2",
                    "midi": 44,
                    "time": 226.39999999999432,
                    "velocity": 0.1732283464566929,
                    "duration": 0.18999999999999773
                },
                {
                    "name": "E3",
                    "midi": 52,
                    "time": 226.5999999999943,
                    "velocity": 0.2047244094488189,
                    "duration": 0.18999999999999773
                },
                {
                    "name": "C#3",
                    "midi": 49,
                    "time": 226.5999999999943,
                    "velocity": 0.1732283464566929,
                    "duration": 0.18999999999999773
                },
                {
                    "name": "G#2",
                    "midi": 44,
                    "time": 226.5999999999943,
                    "velocity": 0.1732283464566929,
                    "duration": 0.18999999999999773
                },
                {
                    "name": "G#1",
                    "midi": 32,
                    "time": 226.7999999999943,
                    "velocity": 0.2047244094488189,
                    "duration": 0.18999999999999773
                },
                {
                    "name": "D#3",
                    "midi": 51,
                    "time": 226.9999999999943,
                    "velocity": 0.1889763779527559,
                    "duration": 0.18999999999999773
                },
                {
                    "name": "C3",
                    "midi": 48,
                    "time": 226.9999999999943,
                    "velocity": 0.14960629921259844,
                    "duration": 0.18999999999999773
                },
                {
                    "name": "G#2",
                    "midi": 44,
                    "time": 226.9999999999943,
                    "velocity": 0.14960629921259844,
                    "duration": 0.18999999999999773
                },
                {
                    "name": "D#3",
                    "midi": 51,
                    "time": 227.19999999999428,
                    "velocity": 0.1889763779527559,
                    "duration": 0.18999999999999773
                },
                {
                    "name": "C3",
                    "midi": 48,
                    "time": 227.19999999999428,
                    "velocity": 0.14960629921259844,
                    "duration": 0.18999999999999773
                },
                {
                    "name": "G#2",
                    "midi": 44,
                    "time": 227.19999999999428,
                    "velocity": 0.14960629921259844,
                    "duration": 0.18999999999999773
                },
                {
                    "name": "D#3",
                    "midi": 51,
                    "time": 227.39999999999426,
                    "velocity": 0.1732283464566929,
                    "duration": 0.18999999999999773
                },
                {
                    "name": "C3",
                    "midi": 48,
                    "time": 227.39999999999426,
                    "velocity": 0.14173228346456693,
                    "duration": 0.18999999999999773
                },
                {
                    "name": "G#2",
                    "midi": 44,
                    "time": 227.39999999999426,
                    "velocity": 0.14173228346456693,
                    "duration": 0.18999999999999773
                },
                {
                    "name": "D#3",
                    "midi": 51,
                    "time": 227.59999999999425,
                    "velocity": 0.1732283464566929,
                    "duration": 0.18999999999999773
                },
                {
                    "name": "C3",
                    "midi": 48,
                    "time": 227.59999999999425,
                    "velocity": 0.13385826771653545,
                    "duration": 0.18999999999999773
                },
                {
                    "name": "G#2",
                    "midi": 44,
                    "time": 227.59999999999425,
                    "velocity": 0.13385826771653545,
                    "duration": 0.18999999999999773
                },
                {
                    "name": "D#3",
                    "midi": 51,
                    "time": 227.79999999999424,
                    "velocity": 0.1732283464566929,
                    "duration": 0.18999999999999773
                },
                {
                    "name": "C3",
                    "midi": 48,
                    "time": 227.79999999999424,
                    "velocity": 0.13385826771653545,
                    "duration": 0.18999999999999773
                },
                {
                    "name": "G#2",
                    "midi": 44,
                    "time": 227.79999999999424,
                    "velocity": 0.13385826771653545,
                    "duration": 0.18999999999999773
                },
                {
                    "name": "C#2",
                    "midi": 37,
                    "time": 227.99999999999423,
                    "velocity": 0.33070866141732286,
                    "duration": 0.18999999999999773
                },
                {
                    "name": "F3",
                    "midi": 53,
                    "time": 228.19999999999422,
                    "velocity": 0.2047244094488189,
                    "duration": 0.18999999999999773
                },
                {
                    "name": "C#3",
                    "midi": 49,
                    "time": 228.19999999999422,
                    "velocity": 0.1732283464566929,
                    "duration": 0.18999999999999773
                },
                {
                    "name": "G#2",
                    "midi": 44,
                    "time": 228.19999999999422,
                    "velocity": 0.1732283464566929,
                    "duration": 0.18999999999999773
                },
                {
                    "name": "F3",
                    "midi": 53,
                    "time": 228.3999999999942,
                    "velocity": 0.2047244094488189,
                    "duration": 0.18999999999999773
                },
                {
                    "name": "G#2",
                    "midi": 44,
                    "time": 228.3999999999942,
                    "velocity": 0.1732283464566929,
                    "duration": 0.18999999999999773
                },
                {
                    "name": "C#3",
                    "midi": 49,
                    "time": 228.3999999999942,
                    "velocity": 0.1732283464566929,
                    "duration": 0.18999999999999773
                },
                {
                    "name": "F3",
                    "midi": 53,
                    "time": 228.5999999999942,
                    "velocity": 0.2047244094488189,
                    "duration": 0.18999999999999773
                },
                {
                    "name": "G#2",
                    "midi": 44,
                    "time": 228.5999999999942,
                    "velocity": 0.1732283464566929,
                    "duration": 0.18999999999999773
                },
                {
                    "name": "C#3",
                    "midi": 49,
                    "time": 228.5999999999942,
                    "velocity": 0.1732283464566929,
                    "duration": 0.18999999999999773
                },
                {
                    "name": "F3",
                    "midi": 53,
                    "time": 228.79999999999418,
                    "velocity": 0.2047244094488189,
                    "duration": 0.18999999999999773
                },
                {
                    "name": "G#2",
                    "midi": 44,
                    "time": 228.79999999999418,
                    "velocity": 0.1732283464566929,
                    "duration": 0.18999999999999773
                },
                {
                    "name": "C#3",
                    "midi": 49,
                    "time": 228.79999999999418,
                    "velocity": 0.1732283464566929,
                    "duration": 0.18999999999999773
                },
                {
                    "name": "F3",
                    "midi": 53,
                    "time": 228.99999999999417,
                    "velocity": 0.2047244094488189,
                    "duration": 0.18999999999999773
                },
                {
                    "name": "G#2",
                    "midi": 44,
                    "time": 228.99999999999417,
                    "velocity": 0.1732283464566929,
                    "duration": 0.18999999999999773
                },
                {
                    "name": "C#3",
                    "midi": 49,
                    "time": 228.99999999999417,
                    "velocity": 0.1732283464566929,
                    "duration": 0.18999999999999773
                },
                {
                    "name": "F3",
                    "midi": 53,
                    "time": 229.19999999999416,
                    "velocity": 0.2047244094488189,
                    "duration": 0.18999999999999773
                },
                {
                    "name": "G#2",
                    "midi": 44,
                    "time": 229.19999999999416,
                    "velocity": 0.1732283464566929,
                    "duration": 0.18999999999999773
                },
                {
                    "name": "C#3",
                    "midi": 49,
                    "time": 229.19999999999416,
                    "velocity": 0.1732283464566929,
                    "duration": 0.18999999999999773
                },
                {
                    "name": "F3",
                    "midi": 53,
                    "time": 229.39999999999415,
                    "velocity": 0.2047244094488189,
                    "duration": 0.18999999999999773
                },
                {
                    "name": "G#2",
                    "midi": 44,
                    "time": 229.39999999999415,
                    "velocity": 0.1732283464566929,
                    "duration": 0.18999999999999773
                },
                {
                    "name": "C#3",
                    "midi": 49,
                    "time": 229.39999999999415,
                    "velocity": 0.1732283464566929,
                    "duration": 0.18999999999999773
                },
                {
                    "name": "F3",
                    "midi": 53,
                    "time": 229.59999999999414,
                    "velocity": 0.2047244094488189,
                    "duration": 0.18999999999999773
                },
                {
                    "name": "G#2",
                    "midi": 44,
                    "time": 229.59999999999414,
                    "velocity": 0.1732283464566929,
                    "duration": 0.18999999999999773
                },
                {
                    "name": "C#3",
                    "midi": 49,
                    "time": 229.59999999999414,
                    "velocity": 0.1732283464566929,
                    "duration": 0.18999999999999773
                },
                {
                    "name": "F3",
                    "midi": 53,
                    "time": 229.79999999999413,
                    "velocity": 0.2047244094488189,
                    "duration": 0.18999999999999773
                },
                {
                    "name": "G#2",
                    "midi": 44,
                    "time": 229.79999999999413,
                    "velocity": 0.1732283464566929,
                    "duration": 0.18999999999999773
                },
                {
                    "name": "C#3",
                    "midi": 49,
                    "time": 229.79999999999413,
                    "velocity": 0.1732283464566929,
                    "duration": 0.18999999999999773
                },
                {
                    "name": "F3",
                    "midi": 53,
                    "time": 229.99999999999412,
                    "velocity": 0.2047244094488189,
                    "duration": 0.18999999999999773
                },
                {
                    "name": "G#2",
                    "midi": 44,
                    "time": 229.99999999999412,
                    "velocity": 0.1732283464566929,
                    "duration": 0.18999999999999773
                },
                {
                    "name": "C#3",
                    "midi": 49,
                    "time": 229.99999999999412,
                    "velocity": 0.1732283464566929,
                    "duration": 0.18999999999999773
                },
                {
                    "name": "F3",
                    "midi": 53,
                    "time": 230.1999999999941,
                    "velocity": 0.2047244094488189,
                    "duration": 0.18999999999999773
                },
                {
                    "name": "C#3",
                    "midi": 49,
                    "time": 230.1999999999941,
                    "velocity": 0.1732283464566929,
                    "duration": 0.18999999999999773
                },
                {
                    "name": "G#2",
                    "midi": 44,
                    "time": 230.1999999999941,
                    "velocity": 0.1732283464566929,
                    "duration": 0.18999999999999773
                },
                {
                    "name": "C2",
                    "midi": 36,
                    "time": 230.3999999999941,
                    "velocity": 0.3228346456692913,
                    "duration": 0.18999999999999773
                },
                {
                    "name": "D#3",
                    "midi": 51,
                    "time": 230.59999999999408,
                    "velocity": 0.1732283464566929,
                    "duration": 0.18999999999999773
                },
                {
                    "name": "F#3",
                    "midi": 54,
                    "time": 230.59999999999408,
                    "velocity": 0.2047244094488189,
                    "duration": 0.18999999999999773
                },
                {
                    "name": "G#2",
                    "midi": 44,
                    "time": 230.59999999999408,
                    "velocity": 0.1732283464566929,
                    "duration": 0.18999999999999773
                },
                {
                    "name": "G#2",
                    "midi": 44,
                    "time": 230.79999999999407,
                    "velocity": 0.1732283464566929,
                    "duration": 0.18999999999999773
                },
                {
                    "name": "D#3",
                    "midi": 51,
                    "time": 230.79999999999407,
                    "velocity": 0.1732283464566929,
                    "duration": 0.18999999999999773
                },
                {
                    "name": "F#3",
                    "midi": 54,
                    "time": 230.79999999999407,
                    "velocity": 0.2047244094488189,
                    "duration": 0.18999999999999773
                },
                {
                    "name": "G#2",
                    "midi": 44,
                    "time": 230.99999999999406,
                    "velocity": 0.1732283464566929,
                    "duration": 0.18999999999999773
                },
                {
                    "name": "D#3",
                    "midi": 51,
                    "time": 230.99999999999406,
                    "velocity": 0.1732283464566929,
                    "duration": 0.18999999999999773
                },
                {
                    "name": "F#3",
                    "midi": 54,
                    "time": 230.99999999999406,
                    "velocity": 0.2047244094488189,
                    "duration": 0.18999999999999773
                },
                {
                    "name": "G#2",
                    "midi": 44,
                    "time": 231.19999999999405,
                    "velocity": 0.1732283464566929,
                    "duration": 0.18999999999999773
                },
                {
                    "name": "D#3",
                    "midi": 51,
                    "time": 231.19999999999405,
                    "velocity": 0.1732283464566929,
                    "duration": 0.18999999999999773
                },
                {
                    "name": "F#3",
                    "midi": 54,
                    "time": 231.19999999999405,
                    "velocity": 0.2047244094488189,
                    "duration": 0.18999999999999773
                },
                {
                    "name": "G#2",
                    "midi": 44,
                    "time": 231.39999999999404,
                    "velocity": 0.1732283464566929,
                    "duration": 0.18999999999999773
                },
                {
                    "name": "D#3",
                    "midi": 51,
                    "time": 231.39999999999404,
                    "velocity": 0.1732283464566929,
                    "duration": 0.18999999999999773
                },
                {
                    "name": "F#3",
                    "midi": 54,
                    "time": 231.39999999999404,
                    "velocity": 0.2047244094488189,
                    "duration": 0.18999999999999773
                },
                {
                    "name": "G#2",
                    "midi": 44,
                    "time": 231.59999999999403,
                    "velocity": 0.1732283464566929,
                    "duration": 0.18999999999999773
                },
                {
                    "name": "D#3",
                    "midi": 51,
                    "time": 231.59999999999403,
                    "velocity": 0.1732283464566929,
                    "duration": 0.18999999999999773
                },
                {
                    "name": "F#3",
                    "midi": 54,
                    "time": 231.59999999999403,
                    "velocity": 0.2047244094488189,
                    "duration": 0.18999999999999773
                },
                {
                    "name": "G#2",
                    "midi": 44,
                    "time": 231.79999999999401,
                    "velocity": 0.1732283464566929,
                    "duration": 0.18999999999999773
                },
                {
                    "name": "D#3",
                    "midi": 51,
                    "time": 231.79999999999401,
                    "velocity": 0.1732283464566929,
                    "duration": 0.18999999999999773
                },
                {
                    "name": "F#3",
                    "midi": 54,
                    "time": 231.79999999999401,
                    "velocity": 0.2047244094488189,
                    "duration": 0.18999999999999773
                },
                {
                    "name": "G#2",
                    "midi": 44,
                    "time": 231.999999999994,
                    "velocity": 0.1732283464566929,
                    "duration": 0.18999999999999773
                },
                {
                    "name": "D#3",
                    "midi": 51,
                    "time": 231.999999999994,
                    "velocity": 0.1732283464566929,
                    "duration": 0.18999999999999773
                },
                {
                    "name": "F#3",
                    "midi": 54,
                    "time": 231.999999999994,
                    "velocity": 0.2047244094488189,
                    "duration": 0.18999999999999773
                },
                {
                    "name": "G#2",
                    "midi": 44,
                    "time": 232.199999999994,
                    "velocity": 0.1732283464566929,
                    "duration": 0.18999999999999773
                },
                {
                    "name": "D#3",
                    "midi": 51,
                    "time": 232.199999999994,
                    "velocity": 0.1732283464566929,
                    "duration": 0.18999999999999773
                },
                {
                    "name": "F#3",
                    "midi": 54,
                    "time": 232.199999999994,
                    "velocity": 0.2047244094488189,
                    "duration": 0.18999999999999773
                },
                {
                    "name": "D#3",
                    "midi": 51,
                    "time": 232.39999999999398,
                    "velocity": 0.1732283464566929,
                    "duration": 0.18999999999999773
                },
                {
                    "name": "G#2",
                    "midi": 44,
                    "time": 232.39999999999398,
                    "velocity": 0.1732283464566929,
                    "duration": 0.18999999999999773
                },
                {
                    "name": "F#3",
                    "midi": 54,
                    "time": 232.39999999999398,
                    "velocity": 0.2047244094488189,
                    "duration": 0.18999999999999773
                },
                {
                    "name": "G#2",
                    "midi": 44,
                    "time": 232.59999999999397,
                    "velocity": 0.1732283464566929,
                    "duration": 0.18999999999999773
                },
                {
                    "name": "D#3",
                    "midi": 51,
                    "time": 232.59999999999397,
                    "velocity": 0.1732283464566929,
                    "duration": 0.18999999999999773
                },
                {
                    "name": "F#3",
                    "midi": 54,
                    "time": 232.59999999999397,
                    "velocity": 0.2047244094488189,
                    "duration": 0.18999999999999773
                },
                {
                    "name": "C#2",
                    "midi": 37,
                    "time": 232.79999999999396,
                    "velocity": 0.31496062992125984,
                    "duration": 0.18999999999999773
                },
                {
                    "name": "F3",
                    "midi": 53,
                    "time": 232.99999999999395,
                    "velocity": 0.2047244094488189,
                    "duration": 0.18999999999999773
                },
                {
                    "name": "C#3",
                    "midi": 49,
                    "time": 232.99999999999395,
                    "velocity": 0.1732283464566929,
                    "duration": 0.18999999999999773
                },
                {
                    "name": "G#2",
                    "midi": 44,
                    "time": 232.99999999999395,
                    "velocity": 0.1732283464566929,
                    "duration": 0.18999999999999773
                },
                {
                    "name": "F3",
                    "midi": 53,
                    "time": 233.19999999999393,
                    "velocity": 0.2047244094488189,
                    "duration": 0.18999999999999773
                },
                {
                    "name": "G#2",
                    "midi": 44,
                    "time": 233.19999999999393,
                    "velocity": 0.1732283464566929,
                    "duration": 0.18999999999999773
                },
                {
                    "name": "C#3",
                    "midi": 49,
                    "time": 233.19999999999393,
                    "velocity": 0.1732283464566929,
                    "duration": 0.18999999999999773
                },
                {
                    "name": "F3",
                    "midi": 53,
                    "time": 233.39999999999392,
                    "velocity": 0.2047244094488189,
                    "duration": 0.18999999999999773
                },
                {
                    "name": "G#2",
                    "midi": 44,
                    "time": 233.39999999999392,
                    "velocity": 0.1732283464566929,
                    "duration": 0.18999999999999773
                },
                {
                    "name": "C#3",
                    "midi": 49,
                    "time": 233.39999999999392,
                    "velocity": 0.1732283464566929,
                    "duration": 0.18999999999999773
                },
                {
                    "name": "F3",
                    "midi": 53,
                    "time": 233.5999999999939,
                    "velocity": 0.2047244094488189,
                    "duration": 0.18999999999999773
                },
                {
                    "name": "G#2",
                    "midi": 44,
                    "time": 233.5999999999939,
                    "velocity": 0.1732283464566929,
                    "duration": 0.18999999999999773
                },
                {
                    "name": "C#3",
                    "midi": 49,
                    "time": 233.5999999999939,
                    "velocity": 0.1732283464566929,
                    "duration": 0.18999999999999773
                },
                {
                    "name": "F3",
                    "midi": 53,
                    "time": 233.7999999999939,
                    "velocity": 0.2047244094488189,
                    "duration": 0.18999999999999773
                },
                {
                    "name": "G#2",
                    "midi": 44,
                    "time": 233.7999999999939,
                    "velocity": 0.1732283464566929,
                    "duration": 0.18999999999999773
                },
                {
                    "name": "C#3",
                    "midi": 49,
                    "time": 233.7999999999939,
                    "velocity": 0.1732283464566929,
                    "duration": 0.18999999999999773
                },
                {
                    "name": "F3",
                    "midi": 53,
                    "time": 233.9999999999939,
                    "velocity": 0.2047244094488189,
                    "duration": 0.18999999999999773
                },
                {
                    "name": "G#2",
                    "midi": 44,
                    "time": 233.9999999999939,
                    "velocity": 0.1732283464566929,
                    "duration": 0.18999999999999773
                },
                {
                    "name": "C#3",
                    "midi": 49,
                    "time": 233.9999999999939,
                    "velocity": 0.1732283464566929,
                    "duration": 0.18999999999999773
                },
                {
                    "name": "F3",
                    "midi": 53,
                    "time": 234.19999999999388,
                    "velocity": 0.2047244094488189,
                    "duration": 0.18999999999999773
                },
                {
                    "name": "G#2",
                    "midi": 44,
                    "time": 234.19999999999388,
                    "velocity": 0.1732283464566929,
                    "duration": 0.18999999999999773
                },
                {
                    "name": "C#3",
                    "midi": 49,
                    "time": 234.19999999999388,
                    "velocity": 0.1732283464566929,
                    "duration": 0.18999999999999773
                },
                {
                    "name": "F3",
                    "midi": 53,
                    "time": 234.39999999999387,
                    "velocity": 0.2047244094488189,
                    "duration": 0.18999999999999773
                },
                {
                    "name": "G#2",
                    "midi": 44,
                    "time": 234.39999999999387,
                    "velocity": 0.1732283464566929,
                    "duration": 0.18999999999999773
                },
                {
                    "name": "C#3",
                    "midi": 49,
                    "time": 234.39999999999387,
                    "velocity": 0.1732283464566929,
                    "duration": 0.18999999999999773
                },
                {
                    "name": "F3",
                    "midi": 53,
                    "time": 234.59999999999386,
                    "velocity": 0.2047244094488189,
                    "duration": 0.18999999999999773
                },
                {
                    "name": "G#2",
                    "midi": 44,
                    "time": 234.59999999999386,
                    "velocity": 0.1732283464566929,
                    "duration": 0.18999999999999773
                },
                {
                    "name": "C#3",
                    "midi": 49,
                    "time": 234.59999999999386,
                    "velocity": 0.1732283464566929,
                    "duration": 0.18999999999999773
                },
                {
                    "name": "F3",
                    "midi": 53,
                    "time": 234.79999999999384,
                    "velocity": 0.2047244094488189,
                    "duration": 0.18999999999999773
                },
                {
                    "name": "G#2",
                    "midi": 44,
                    "time": 234.79999999999384,
                    "velocity": 0.1732283464566929,
                    "duration": 0.18999999999999773
                },
                {
                    "name": "C#3",
                    "midi": 49,
                    "time": 234.79999999999384,
                    "velocity": 0.1732283464566929,
                    "duration": 0.18999999999999773
                },
                {
                    "name": "F3",
                    "midi": 53,
                    "time": 234.99999999999383,
                    "velocity": 0.2047244094488189,
                    "duration": 0.18999999999999773
                },
                {
                    "name": "C#3",
                    "midi": 49,
                    "time": 234.99999999999383,
                    "velocity": 0.1732283464566929,
                    "duration": 0.18999999999999773
                },
                {
                    "name": "G#2",
                    "midi": 44,
                    "time": 234.99999999999383,
                    "velocity": 0.1732283464566929,
                    "duration": 0.18999999999999773
                },
                {
                    "name": "D#2",
                    "midi": 39,
                    "time": 235.19999999999382,
                    "velocity": 0.30708661417322836,
                    "duration": 0.18999999999999773
                },
                {
                    "name": "D#3",
                    "midi": 51,
                    "time": 235.3999999999938,
                    "velocity": 0.1732283464566929,
                    "duration": 0.18999999999999773
                },
                {
                    "name": "F#3",
                    "midi": 54,
                    "time": 235.3999999999938,
                    "velocity": 0.2047244094488189,
                    "duration": 0.18999999999999773
                },
                {
                    "name": "G#2",
                    "midi": 44,
                    "time": 235.3999999999938,
                    "velocity": 0.1732283464566929,
                    "duration": 0.18999999999999773
                },
                {
                    "name": "G#2",
                    "midi": 44,
                    "time": 235.5999999999938,
                    "velocity": 0.1732283464566929,
                    "duration": 0.18999999999999773
                },
                {
                    "name": "D#3",
                    "midi": 51,
                    "time": 235.5999999999938,
                    "velocity": 0.1732283464566929,
                    "duration": 0.18999999999999773
                },
                {
                    "name": "F#3",
                    "midi": 54,
                    "time": 235.5999999999938,
                    "velocity": 0.2047244094488189,
                    "duration": 0.18999999999999773
                },
                {
                    "name": "G#2",
                    "midi": 44,
                    "time": 235.7999999999938,
                    "velocity": 0.1732283464566929,
                    "duration": 0.18999999999999773
                },
                {
                    "name": "D#3",
                    "midi": 51,
                    "time": 235.7999999999938,
                    "velocity": 0.1732283464566929,
                    "duration": 0.18999999999999773
                },
                {
                    "name": "F#3",
                    "midi": 54,
                    "time": 235.7999999999938,
                    "velocity": 0.2047244094488189,
                    "duration": 0.18999999999999773
                },
                {
                    "name": "G#2",
                    "midi": 44,
                    "time": 235.99999999999378,
                    "velocity": 0.1732283464566929,
                    "duration": 0.18999999999999773
                },
                {
                    "name": "D#3",
                    "midi": 51,
                    "time": 235.99999999999378,
                    "velocity": 0.1732283464566929,
                    "duration": 0.18999999999999773
                },
                {
                    "name": "F#3",
                    "midi": 54,
                    "time": 235.99999999999378,
                    "velocity": 0.2047244094488189,
                    "duration": 0.18999999999999773
                },
                {
                    "name": "G#2",
                    "midi": 44,
                    "time": 236.19999999999376,
                    "velocity": 0.1732283464566929,
                    "duration": 0.18999999999999773
                },
                {
                    "name": "D#3",
                    "midi": 51,
                    "time": 236.19999999999376,
                    "velocity": 0.1732283464566929,
                    "duration": 0.18999999999999773
                },
                {
                    "name": "F#3",
                    "midi": 54,
                    "time": 236.19999999999376,
                    "velocity": 0.2047244094488189,
                    "duration": 0.18999999999999773
                },
                {
                    "name": "G#2",
                    "midi": 44,
                    "time": 236.39999999999375,
                    "velocity": 0.1732283464566929,
                    "duration": 0.18999999999999773
                },
                {
                    "name": "D#3",
                    "midi": 51,
                    "time": 236.39999999999375,
                    "velocity": 0.1732283464566929,
                    "duration": 0.18999999999999773
                },
                {
                    "name": "F#3",
                    "midi": 54,
                    "time": 236.39999999999375,
                    "velocity": 0.2047244094488189,
                    "duration": 0.18999999999999773
                },
                {
                    "name": "G#2",
                    "midi": 44,
                    "time": 236.59999999999374,
                    "velocity": 0.1732283464566929,
                    "duration": 0.18999999999999773
                },
                {
                    "name": "D#3",
                    "midi": 51,
                    "time": 236.59999999999374,
                    "velocity": 0.1732283464566929,
                    "duration": 0.18999999999999773
                },
                {
                    "name": "F#3",
                    "midi": 54,
                    "time": 236.59999999999374,
                    "velocity": 0.2047244094488189,
                    "duration": 0.18999999999999773
                },
                {
                    "name": "G#2",
                    "midi": 44,
                    "time": 236.79999999999373,
                    "velocity": 0.1732283464566929,
                    "duration": 0.18999999999999773
                },
                {
                    "name": "D#3",
                    "midi": 51,
                    "time": 236.79999999999373,
                    "velocity": 0.1732283464566929,
                    "duration": 0.18999999999999773
                },
                {
                    "name": "F#3",
                    "midi": 54,
                    "time": 236.79999999999373,
                    "velocity": 0.2047244094488189,
                    "duration": 0.18999999999999773
                },
                {
                    "name": "G#2",
                    "midi": 44,
                    "time": 236.99999999999372,
                    "velocity": 0.1732283464566929,
                    "duration": 0.18999999999999773
                },
                {
                    "name": "D#3",
                    "midi": 51,
                    "time": 236.99999999999372,
                    "velocity": 0.1732283464566929,
                    "duration": 0.18999999999999773
                },
                {
                    "name": "F#3",
                    "midi": 54,
                    "time": 236.99999999999372,
                    "velocity": 0.2047244094488189,
                    "duration": 0.18999999999999773
                },
                {
                    "name": "D#3",
                    "midi": 51,
                    "time": 237.1999999999937,
                    "velocity": 0.1732283464566929,
                    "duration": 0.18999999999999773
                },
                {
                    "name": "G#2",
                    "midi": 44,
                    "time": 237.1999999999937,
                    "velocity": 0.1732283464566929,
                    "duration": 0.18999999999999773
                },
                {
                    "name": "F#3",
                    "midi": 54,
                    "time": 237.1999999999937,
                    "velocity": 0.2047244094488189,
                    "duration": 0.18999999999999773
                },
                {
                    "name": "G#2",
                    "midi": 44,
                    "time": 237.3999999999937,
                    "velocity": 0.1732283464566929,
                    "duration": 0.18999999999999773
                },
                {
                    "name": "D#3",
                    "midi": 51,
                    "time": 237.3999999999937,
                    "velocity": 0.1732283464566929,
                    "duration": 0.18999999999999773
                },
                {
                    "name": "F#3",
                    "midi": 54,
                    "time": 237.3999999999937,
                    "velocity": 0.2047244094488189,
                    "duration": 0.18999999999999773
                },
                {
                    "name": "E2",
                    "midi": 40,
                    "time": 237.59999999999368,
                    "velocity": 0.33070866141732286,
                    "duration": 0.18999999999999773
                },
                {
                    "name": "E3",
                    "midi": 52,
                    "time": 237.79999999999367,
                    "velocity": 0.2755905511811024,
                    "duration": 0.18999999999999773
                },
                {
                    "name": "A2",
                    "midi": 45,
                    "time": 237.79999999999367,
                    "velocity": 0.2283464566929134,
                    "duration": 0.18999999999999773
                },
                {
                    "name": "A2",
                    "midi": 45,
                    "time": 237.99999999999366,
                    "velocity": 0.2283464566929134,
                    "duration": 0.18999999999999773
                },
                {
                    "name": "E3",
                    "midi": 52,
                    "time": 237.99999999999366,
                    "velocity": 0.2755905511811024,
                    "duration": 0.18999999999999773
                },
                {
                    "name": "A2",
                    "midi": 45,
                    "time": 238.19999999999365,
                    "velocity": 0.2283464566929134,
                    "duration": 0.18999999999999773
                },
                {
                    "name": "E3",
                    "midi": 52,
                    "time": 238.19999999999365,
                    "velocity": 0.2755905511811024,
                    "duration": 0.18999999999999773
                },
                {
                    "name": "A2",
                    "midi": 45,
                    "time": 238.39999999999364,
                    "velocity": 0.2283464566929134,
                    "duration": 0.18999999999999773
                },
                {
                    "name": "E3",
                    "midi": 52,
                    "time": 238.39999999999364,
                    "velocity": 0.2755905511811024,
                    "duration": 0.18999999999999773
                },
                {
                    "name": "A2",
                    "midi": 45,
                    "time": 238.59999999999363,
                    "velocity": 0.2283464566929134,
                    "duration": 0.18999999999999773
                },
                {
                    "name": "E3",
                    "midi": 52,
                    "time": 238.59999999999363,
                    "velocity": 0.2755905511811024,
                    "duration": 0.18999999999999773
                },
                {
                    "name": "E3",
                    "midi": 52,
                    "time": 238.79999999999362,
                    "velocity": 0.2755905511811024,
                    "duration": 0.18999999999999773
                },
                {
                    "name": "A2",
                    "midi": 45,
                    "time": 238.79999999999362,
                    "velocity": 0.2283464566929134,
                    "duration": 0.18999999999999773
                },
                {
                    "name": "A2",
                    "midi": 45,
                    "time": 238.9999999999936,
                    "velocity": 0.2283464566929134,
                    "duration": 0.18999999999999773
                },
                {
                    "name": "E3",
                    "midi": 52,
                    "time": 238.9999999999936,
                    "velocity": 0.2755905511811024,
                    "duration": 0.18999999999999773
                },
                {
                    "name": "E2",
                    "midi": 40,
                    "time": 239.1999999999936,
                    "velocity": 0.2755905511811024,
                    "duration": 0.39999999999997726
                },
                {
                    "name": "E3",
                    "midi": 52,
                    "time": 239.39999999999358,
                    "velocity": 0.2755905511811024,
                    "duration": 0.19999999999998863
                },
                {
                    "name": "A2",
                    "midi": 45,
                    "time": 239.39999999999358,
                    "velocity": 0.2283464566929134,
                    "duration": 0.19999999999998863
                },
                {
                    "name": "E2",
                    "midi": 40,
                    "time": 239.59999999999357,
                    "velocity": 0.2755905511811024,
                    "duration": 0.39999999999997726
                },
                {
                    "name": "E3",
                    "midi": 52,
                    "time": 239.79999999999356,
                    "velocity": 0.2755905511811024,
                    "duration": 0.19999999999998863
                },
                {
                    "name": "A2",
                    "midi": 45,
                    "time": 239.79999999999356,
                    "velocity": 0.2283464566929134,
                    "duration": 0.19999999999998863
                },
                {
                    "name": "B1",
                    "midi": 35,
                    "time": 239.99999999999355,
                    "velocity": 0.33070866141732286,
                    "duration": 0.18999999999999773
                },
                {
                    "name": "B2",
                    "midi": 47,
                    "time": 240.19999999999354,
                    "velocity": 0.2992125984251969,
                    "duration": 0.18999999999999773
                },
                {
                    "name": "E2",
                    "midi": 40,
                    "time": 240.19999999999354,
                    "velocity": 0.2440944881889764,
                    "duration": 0.18999999999999773
                },
                {
                    "name": "E2",
                    "midi": 40,
                    "time": 240.39999999999353,
                    "velocity": 0.2440944881889764,
                    "duration": 0.18999999999999773
                },
                {
                    "name": "B2",
                    "midi": 47,
                    "time": 240.39999999999353,
                    "velocity": 0.2992125984251969,
                    "duration": 0.18999999999999773
                },
                {
                    "name": "E2",
                    "midi": 40,
                    "time": 240.5999999999935,
                    "velocity": 0.2440944881889764,
                    "duration": 0.18999999999999773
                },
                {
                    "name": "B2",
                    "midi": 47,
                    "time": 240.5999999999935,
                    "velocity": 0.2992125984251969,
                    "duration": 0.18999999999999773
                },
                {
                    "name": "B2",
                    "midi": 47,
                    "time": 240.7999999999935,
                    "velocity": 0.2992125984251969,
                    "duration": 0.18999999999999773
                },
                {
                    "name": "E2",
                    "midi": 40,
                    "time": 240.7999999999935,
                    "velocity": 0.2440944881889764,
                    "duration": 0.18999999999999773
                },
                {
                    "name": "E2",
                    "midi": 40,
                    "time": 240.9999999999935,
                    "velocity": 0.2440944881889764,
                    "duration": 0.18999999999999773
                },
                {
                    "name": "B2",
                    "midi": 47,
                    "time": 240.9999999999935,
                    "velocity": 0.2992125984251969,
                    "duration": 0.18999999999999773
                },
                {
                    "name": "E2",
                    "midi": 40,
                    "time": 241.19999999999348,
                    "velocity": 0.2677165354330709,
                    "duration": 0.18999999999999773
                },
                {
                    "name": "B2",
                    "midi": 47,
                    "time": 241.19999999999348,
                    "velocity": 0.30708661417322836,
                    "duration": 0.18999999999999773
                },
                {
                    "name": "E2",
                    "midi": 40,
                    "time": 241.39999999999347,
                    "velocity": 0.2677165354330709,
                    "duration": 0.18999999999999773
                },
                {
                    "name": "B2",
                    "midi": 47,
                    "time": 241.39999999999347,
                    "velocity": 0.30708661417322836,
                    "duration": 0.18999999999999773
                },
                {
                    "name": "B1",
                    "midi": 35,
                    "time": 241.59999999999346,
                    "velocity": 0.30708661417322836,
                    "duration": 0.39999999999997726
                },
                {
                    "name": "E2",
                    "midi": 40,
                    "time": 241.79999999999345,
                    "velocity": 0.2677165354330709,
                    "duration": 0.19999999999998863
                },
                {
                    "name": "B2",
                    "midi": 47,
                    "time": 241.79999999999345,
                    "velocity": 0.30708661417322836,
                    "duration": 0.19999999999998863
                },
                {
                    "name": "B1",
                    "midi": 35,
                    "time": 241.99999999999343,
                    "velocity": 0.30708661417322836,
                    "duration": 0.39999999999997726
                },
                {
                    "name": "B2",
                    "midi": 47,
                    "time": 242.19999999999342,
                    "velocity": 0.30708661417322836,
                    "duration": 0.19999999999998863
                },
                {
                    "name": "E2",
                    "midi": 40,
                    "time": 242.19999999999342,
                    "velocity": 0.2677165354330709,
                    "duration": 0.19999999999998863
                },
                {
                    "name": "D2",
                    "midi": 38,
                    "time": 242.3999999999934,
                    "velocity": 0.3858267716535433,
                    "duration": 0.18999999999999773
                },
                {
                    "name": "A2",
                    "midi": 45,
                    "time": 242.5999999999934,
                    "velocity": 0.2755905511811024,
                    "duration": 0.18999999999999773
                },
                {
                    "name": "D3",
                    "midi": 50,
                    "time": 242.5999999999934,
                    "velocity": 0.33070866141732286,
                    "duration": 0.18999999999999773
                },
                {
                    "name": "A2",
                    "midi": 45,
                    "time": 242.7999999999934,
                    "velocity": 0.2755905511811024,
                    "duration": 0.18999999999999773
                },
                {
                    "name": "D3",
                    "midi": 50,
                    "time": 242.7999999999934,
                    "velocity": 0.33070866141732286,
                    "duration": 0.18999999999999773
                },
                {
                    "name": "A2",
                    "midi": 45,
                    "time": 242.99999999999338,
                    "velocity": 0.2755905511811024,
                    "duration": 0.18999999999999773
                },
                {
                    "name": "D3",
                    "midi": 50,
                    "time": 242.99999999999338,
                    "velocity": 0.33070866141732286,
                    "duration": 0.18999999999999773
                },
                {
                    "name": "A2",
                    "midi": 45,
                    "time": 243.19999999999337,
                    "velocity": 0.2755905511811024,
                    "duration": 0.18999999999999773
                },
                {
                    "name": "D3",
                    "midi": 50,
                    "time": 243.19999999999337,
                    "velocity": 0.33070866141732286,
                    "duration": 0.18999999999999773
                },
                {
                    "name": "A2",
                    "midi": 45,
                    "time": 243.39999999999336,
                    "velocity": 0.2755905511811024,
                    "duration": 0.18999999999999773
                },
                {
                    "name": "D3",
                    "midi": 50,
                    "time": 243.39999999999336,
                    "velocity": 0.33070866141732286,
                    "duration": 0.18999999999999773
                },
                {
                    "name": "D3",
                    "midi": 50,
                    "time": 243.59999999999334,
                    "velocity": 0.36220472440944884,
                    "duration": 0.18999999999999773
                },
                {
                    "name": "A2",
                    "midi": 45,
                    "time": 243.59999999999334,
                    "velocity": 0.30708661417322836,
                    "duration": 0.18999999999999773
                },
                {
                    "name": "D3",
                    "midi": 50,
                    "time": 243.79999999999333,
                    "velocity": 0.3543307086614173,
                    "duration": 0.18999999999999773
                },
                {
                    "name": "A2",
                    "midi": 45,
                    "time": 243.79999999999333,
                    "velocity": 0.2992125984251969,
                    "duration": 0.18999999999999773
                },
                {
                    "name": "D2",
                    "midi": 38,
                    "time": 243.99999999999332,
                    "velocity": 0.3543307086614173,
                    "duration": 0.39999999999997726
                },
                {
                    "name": "D3",
                    "midi": 50,
                    "time": 244.1999999999933,
                    "velocity": 0.3543307086614173,
                    "duration": 0.19999999999998863
                },
                {
                    "name": "A2",
                    "midi": 45,
                    "time": 244.1999999999933,
                    "velocity": 0.2992125984251969,
                    "duration": 0.19999999999998863
                },
                {
                    "name": "D2",
                    "midi": 38,
                    "time": 244.3999999999933,
                    "velocity": 0.3543307086614173,
                    "duration": 0.39999999999997726
                },
                {
                    "name": "D3",
                    "midi": 50,
                    "time": 244.5999999999933,
                    "velocity": 0.3543307086614173,
                    "duration": 0.19999999999998863
                },
                {
                    "name": "A2",
                    "midi": 45,
                    "time": 244.5999999999933,
                    "velocity": 0.2992125984251969,
                    "duration": 0.19999999999998863
                },
                {
                    "name": "A1",
                    "midi": 33,
                    "time": 244.79999999999328,
                    "velocity": 0.3543307086614173,
                    "duration": 0.4000000000000057
                },
                {
                    "name": "A2",
                    "midi": 45,
                    "time": 244.9999999999933,
                    "velocity": 0.3543307086614173,
                    "duration": 0.19999999999998863
                },
                {
                    "name": "E2",
                    "midi": 40,
                    "time": 244.9999999999933,
                    "velocity": 0.2992125984251969,
                    "duration": 0.19999999999998863
                },
                {
                    "name": "A1",
                    "midi": 33,
                    "time": 245.19999999999328,
                    "velocity": 0.3543307086614173,
                    "duration": 0.19999999999998863
                },
                {
                    "name": "A2",
                    "midi": 45,
                    "time": 245.39999999999327,
                    "velocity": 0.3543307086614173,
                    "duration": 0.18999999999999773
                },
                {
                    "name": "E2",
                    "midi": 40,
                    "time": 245.39999999999327,
                    "velocity": 0.2992125984251969,
                    "duration": 0.18999999999999773
                },
                {
                    "name": "A2",
                    "midi": 45,
                    "time": 245.59999999999326,
                    "velocity": 0.3543307086614173,
                    "duration": 0.18999999999999773
                },
                {
                    "name": "E2",
                    "midi": 40,
                    "time": 245.59999999999326,
                    "velocity": 0.2992125984251969,
                    "duration": 0.18999999999999773
                },
                {
                    "name": "A2",
                    "midi": 45,
                    "time": 245.79999999999325,
                    "velocity": 0.3543307086614173,
                    "duration": 0.18999999999999773
                },
                {
                    "name": "E2",
                    "midi": 40,
                    "time": 245.79999999999325,
                    "velocity": 0.2992125984251969,
                    "duration": 0.18999999999999773
                },
                {
                    "name": "A2",
                    "midi": 45,
                    "time": 245.99999999999324,
                    "velocity": 0.3858267716535433,
                    "duration": 0.18999999999999773
                },
                {
                    "name": "E2",
                    "midi": 40,
                    "time": 245.99999999999324,
                    "velocity": 0.3228346456692913,
                    "duration": 0.18999999999999773
                },
                {
                    "name": "A2",
                    "midi": 45,
                    "time": 246.19999999999322,
                    "velocity": 0.3858267716535433,
                    "duration": 0.18999999999999773
                },
                {
                    "name": "E2",
                    "midi": 40,
                    "time": 246.19999999999322,
                    "velocity": 0.3228346456692913,
                    "duration": 0.18999999999999773
                },
                {
                    "name": "A1",
                    "midi": 33,
                    "time": 246.3999999999932,
                    "velocity": 0.3858267716535433,
                    "duration": 0.39999999999997726
                },
                {
                    "name": "A2",
                    "midi": 45,
                    "time": 246.5999999999932,
                    "velocity": 0.3858267716535433,
                    "duration": 0.19999999999998863
                },
                {
                    "name": "E2",
                    "midi": 40,
                    "time": 246.5999999999932,
                    "velocity": 0.3228346456692913,
                    "duration": 0.19999999999998863
                },
                {
                    "name": "A1",
                    "midi": 33,
                    "time": 246.7999999999932,
                    "velocity": 0.3858267716535433,
                    "duration": 0.39999999999997726
                },
                {
                    "name": "A2",
                    "midi": 45,
                    "time": 246.99999999999318,
                    "velocity": 0.3858267716535433,
                    "duration": 0.19999999999998863
                },
                {
                    "name": "E2",
                    "midi": 40,
                    "time": 246.99999999999318,
                    "velocity": 0.3228346456692913,
                    "duration": 0.19999999999998863
                },
                {
                    "name": "G#1",
                    "midi": 32,
                    "time": 247.19999999999317,
                    "velocity": 0.48031496062992124,
                    "duration": 0.18999999999999773
                },
                {
                    "name": "G#2",
                    "midi": 44,
                    "time": 247.39999999999316,
                    "velocity": 0.3464566929133858,
                    "duration": 0.18999999999999773
                },
                {
                    "name": "C#3",
                    "midi": 49,
                    "time": 247.39999999999316,
                    "velocity": 0.3464566929133858,
                    "duration": 0.18999999999999773
                },
                {
                    "name": "E3",
                    "midi": 52,
                    "time": 247.39999999999316,
                    "velocity": 0.4015748031496063,
                    "duration": 0.18999999999999773
                },
                {
                    "name": "G#2",
                    "midi": 44,
                    "time": 247.59999999999314,
                    "velocity": 0.3464566929133858,
                    "duration": 0.18999999999999773
                },
                {
                    "name": "C#3",
                    "midi": 49,
                    "time": 247.59999999999314,
                    "velocity": 0.3464566929133858,
                    "duration": 0.18999999999999773
                },
                {
                    "name": "E3",
                    "midi": 52,
                    "time": 247.59999999999314,
                    "velocity": 0.4015748031496063,
                    "duration": 0.18999999999999773
                },
                {
                    "name": "G#2",
                    "midi": 44,
                    "time": 247.79999999999313,
                    "velocity": 0.3464566929133858,
                    "duration": 0.18999999999999773
                },
                {
                    "name": "C#3",
                    "midi": 49,
                    "time": 247.79999999999313,
                    "velocity": 0.3464566929133858,
                    "duration": 0.18999999999999773
                },
                {
                    "name": "E3",
                    "midi": 52,
                    "time": 247.79999999999313,
                    "velocity": 0.4094488188976378,
                    "duration": 0.18999999999999773
                },
                {
                    "name": "G#2",
                    "midi": 44,
                    "time": 247.99999999999312,
                    "velocity": 0.3464566929133858,
                    "duration": 0.18999999999999773
                },
                {
                    "name": "C#3",
                    "midi": 49,
                    "time": 247.99999999999312,
                    "velocity": 0.3464566929133858,
                    "duration": 0.18999999999999773
                },
                {
                    "name": "E3",
                    "midi": 52,
                    "time": 247.99999999999312,
                    "velocity": 0.4094488188976378,
                    "duration": 0.18999999999999773
                },
                {
                    "name": "G#2",
                    "midi": 44,
                    "time": 248.1999999999931,
                    "velocity": 0.3464566929133858,
                    "duration": 0.18999999999999773
                },
                {
                    "name": "C#3",
                    "midi": 49,
                    "time": 248.1999999999931,
                    "velocity": 0.3464566929133858,
                    "duration": 0.18999999999999773
                },
                {
                    "name": "E3",
                    "midi": 52,
                    "time": 248.1999999999931,
                    "velocity": 0.4094488188976378,
                    "duration": 0.18999999999999773
                },
                {
                    "name": "G#1",
                    "midi": 32,
                    "time": 248.3999999999931,
                    "velocity": 0.48031496062992124,
                    "duration": 0.18999999999999773
                },
                {
                    "name": "G#2",
                    "midi": 44,
                    "time": 248.5999999999931,
                    "velocity": 0.3464566929133858,
                    "duration": 0.18999999999999773
                },
                {
                    "name": "D#3",
                    "midi": 51,
                    "time": 248.5999999999931,
                    "velocity": 0.3464566929133858,
                    "duration": 0.18999999999999773
                },
                {
                    "name": "F#3",
                    "midi": 54,
                    "time": 248.5999999999931,
                    "velocity": 0.4094488188976378,
                    "duration": 0.18999999999999773
                },
                {
                    "name": "G#2",
                    "midi": 44,
                    "time": 248.79999999999308,
                    "velocity": 0.3464566929133858,
                    "duration": 0.1899999999999693
                },
                {
                    "name": "D#3",
                    "midi": 51,
                    "time": 248.79999999999308,
                    "velocity": 0.3464566929133858,
                    "duration": 0.1899999999999693
                },
                {
                    "name": "F#3",
                    "midi": 54,
                    "time": 248.79999999999308,
                    "velocity": 0.4094488188976378,
                    "duration": 0.1899999999999693
                },
                {
                    "name": "G#2",
                    "midi": 44,
                    "time": 248.99999999999304,
                    "velocity": 0.3464566929133858,
                    "duration": 0.18999999999999773
                },
                {
                    "name": "D#3",
                    "midi": 51,
                    "time": 248.99999999999304,
                    "velocity": 0.3464566929133858,
                    "duration": 0.18999999999999773
                },
                {
                    "name": "F#3",
                    "midi": 54,
                    "time": 248.99999999999304,
                    "velocity": 0.4094488188976378,
                    "duration": 0.18999999999999773
                },
                {
                    "name": "G#2",
                    "midi": 44,
                    "time": 249.19999999999303,
                    "velocity": 0.3464566929133858,
                    "duration": 0.18999999999999773
                },
                {
                    "name": "D#3",
                    "midi": 51,
                    "time": 249.19999999999303,
                    "velocity": 0.3464566929133858,
                    "duration": 0.18999999999999773
                },
                {
                    "name": "F#3",
                    "midi": 54,
                    "time": 249.19999999999303,
                    "velocity": 0.4015748031496063,
                    "duration": 0.18999999999999773
                },
                {
                    "name": "G#2",
                    "midi": 44,
                    "time": 249.399999999993,
                    "velocity": 0.3464566929133858,
                    "duration": 0.18999999999999773
                },
                {
                    "name": "D#3",
                    "midi": 51,
                    "time": 249.399999999993,
                    "velocity": 0.3464566929133858,
                    "duration": 0.18999999999999773
                },
                {
                    "name": "F#3",
                    "midi": 54,
                    "time": 249.399999999993,
                    "velocity": 0.4015748031496063,
                    "duration": 0.18999999999999773
                },
                {
                    "name": "C#2",
                    "midi": 37,
                    "time": 249.599999999993,
                    "velocity": 0.4094488188976378,
                    "duration": 0.18999999999999773
                },
                {
                    "name": "G#2",
                    "midi": 44,
                    "time": 249.799999999993,
                    "velocity": 0.2677165354330709,
                    "duration": 0.19000000000002615
                },
                {
                    "name": "C#3",
                    "midi": 49,
                    "time": 249.799999999993,
                    "velocity": 0.2677165354330709,
                    "duration": 0.19000000000002615
                },
                {
                    "name": "E3",
                    "midi": 52,
                    "time": 249.799999999993,
                    "velocity": 0.31496062992125984,
                    "duration": 0.19000000000002615
                },
                {
                    "name": "G#2",
                    "midi": 44,
                    "time": 249.999999999993,
                    "velocity": 0.2677165354330709,
                    "duration": 0.18999999999999773
                },
                {
                    "name": "C#3",
                    "midi": 49,
                    "time": 249.999999999993,
                    "velocity": 0.2677165354330709,
                    "duration": 0.18999999999999773
                },
                {
                    "name": "E3",
                    "midi": 52,
                    "time": 249.999999999993,
                    "velocity": 0.31496062992125984,
                    "duration": 0.18999999999999773
                },
                {
                    "name": "G#2",
                    "midi": 44,
                    "time": 250.199999999993,
                    "velocity": 0.2677165354330709,
                    "duration": 0.18999999999999773
                },
                {
                    "name": "C#3",
                    "midi": 49,
                    "time": 250.199999999993,
                    "velocity": 0.2677165354330709,
                    "duration": 0.18999999999999773
                },
                {
                    "name": "E3",
                    "midi": 52,
                    "time": 250.199999999993,
                    "velocity": 0.31496062992125984,
                    "duration": 0.18999999999999773
                },
                {
                    "name": "G#2",
                    "midi": 44,
                    "time": 250.39999999999299,
                    "velocity": 0.2677165354330709,
                    "duration": 0.18999999999999773
                },
                {
                    "name": "C#3",
                    "midi": 49,
                    "time": 250.39999999999299,
                    "velocity": 0.2677165354330709,
                    "duration": 0.18999999999999773
                },
                {
                    "name": "E3",
                    "midi": 52,
                    "time": 250.39999999999299,
                    "velocity": 0.31496062992125984,
                    "duration": 0.18999999999999773
                },
                {
                    "name": "G#2",
                    "midi": 44,
                    "time": 250.59999999999297,
                    "velocity": 0.2677165354330709,
                    "duration": 0.18999999999999773
                },
                {
                    "name": "C#3",
                    "midi": 49,
                    "time": 250.59999999999297,
                    "velocity": 0.2677165354330709,
                    "duration": 0.18999999999999773
                },
                {
                    "name": "E3",
                    "midi": 52,
                    "time": 250.59999999999297,
                    "velocity": 0.31496062992125984,
                    "duration": 0.18999999999999773
                },
                {
                    "name": "C#3",
                    "midi": 49,
                    "time": 250.79999999999296,
                    "velocity": 0.2677165354330709,
                    "duration": 0.18999999999999773
                },
                {
                    "name": "G#2",
                    "midi": 44,
                    "time": 250.79999999999296,
                    "velocity": 0.2677165354330709,
                    "duration": 0.18999999999999773
                },
                {
                    "name": "E3",
                    "midi": 52,
                    "time": 250.79999999999296,
                    "velocity": 0.30708661417322836,
                    "duration": 0.18999999999999773
                },
                {
                    "name": "G#2",
                    "midi": 44,
                    "time": 250.99999999999295,
                    "velocity": 0.2677165354330709,
                    "duration": 0.18999999999999773
                },
                {
                    "name": "C#3",
                    "midi": 49,
                    "time": 250.99999999999295,
                    "velocity": 0.2677165354330709,
                    "duration": 0.18999999999999773
                },
                {
                    "name": "E3",
                    "midi": 52,
                    "time": 250.99999999999295,
                    "velocity": 0.30708661417322836,
                    "duration": 0.18999999999999773
                },
                {
                    "name": "G#2",
                    "midi": 44,
                    "time": 251.19999999999294,
                    "velocity": 0.23622047244094488,
                    "duration": 0.18999999999999773
                },
                {
                    "name": "C#3",
                    "midi": 49,
                    "time": 251.19999999999294,
                    "velocity": 0.23622047244094488,
                    "duration": 0.18999999999999773
                },
                {
                    "name": "E3",
                    "midi": 52,
                    "time": 251.19999999999294,
                    "velocity": 0.29133858267716534,
                    "duration": 0.18999999999999773
                },
                {
                    "name": "G#2",
                    "midi": 44,
                    "time": 251.39999999999293,
                    "velocity": 0.23622047244094488,
                    "duration": 0.18999999999999773
                },
                {
                    "name": "C#3",
                    "midi": 49,
                    "time": 251.39999999999293,
                    "velocity": 0.23622047244094488,
                    "duration": 0.18999999999999773
                },
                {
                    "name": "E3",
                    "midi": 52,
                    "time": 251.39999999999293,
                    "velocity": 0.28346456692913385,
                    "duration": 0.18999999999999773
                },
                {
                    "name": "G#2",
                    "midi": 44,
                    "time": 251.59999999999292,
                    "velocity": 0.2204724409448819,
                    "duration": 0.18999999999999773
                },
                {
                    "name": "C#3",
                    "midi": 49,
                    "time": 251.59999999999292,
                    "velocity": 0.2204724409448819,
                    "duration": 0.18999999999999773
                },
                {
                    "name": "E3",
                    "midi": 52,
                    "time": 251.59999999999292,
                    "velocity": 0.2677165354330709,
                    "duration": 0.18999999999999773
                },
                {
                    "name": "G#2",
                    "midi": 44,
                    "time": 251.7999999999929,
                    "velocity": 0.1968503937007874,
                    "duration": 0.18999999999999773
                },
                {
                    "name": "C#3",
                    "midi": 49,
                    "time": 251.7999999999929,
                    "velocity": 0.1968503937007874,
                    "duration": 0.18999999999999773
                },
                {
                    "name": "E3",
                    "midi": 52,
                    "time": 251.7999999999929,
                    "velocity": 0.23622047244094488,
                    "duration": 0.18999999999999773
                },
                {
                    "name": "C#2",
                    "midi": 37,
                    "time": 251.9999999999929,
                    "velocity": 0.2047244094488189,
                    "duration": 0.18999999999999773
                },
                {
                    "name": "E3",
                    "midi": 52,
                    "time": 252.19999999999288,
                    "velocity": 0.2047244094488189,
                    "duration": 0.18999999999999773
                },
                {
                    "name": "C#3",
                    "midi": 49,
                    "time": 252.19999999999288,
                    "velocity": 0.1732283464566929,
                    "duration": 0.18999999999999773
                },
                {
                    "name": "E3",
                    "midi": 52,
                    "time": 252.39999999999287,
                    "velocity": 0.2047244094488189,
                    "duration": 0.18999999999999773
                },
                {
                    "name": "C#3",
                    "midi": 49,
                    "time": 252.39999999999287,
                    "velocity": 0.1732283464566929,
                    "duration": 0.18999999999999773
                },
                {
                    "name": "E3",
                    "midi": 52,
                    "time": 252.59999999999286,
                    "velocity": 0.2047244094488189,
                    "duration": 0.18999999999999773
                },
                {
                    "name": "C#3",
                    "midi": 49,
                    "time": 252.59999999999286,
                    "velocity": 0.1732283464566929,
                    "duration": 0.18999999999999773
                },
                {
                    "name": "E3",
                    "midi": 52,
                    "time": 252.79999999999285,
                    "velocity": 0.2047244094488189,
                    "duration": 0.18999999999999773
                },
                {
                    "name": "C#3",
                    "midi": 49,
                    "time": 252.79999999999285,
                    "velocity": 0.1732283464566929,
                    "duration": 0.18999999999999773
                },
                {
                    "name": "E3",
                    "midi": 52,
                    "time": 252.99999999999284,
                    "velocity": 0.2047244094488189,
                    "duration": 0.18999999999999773
                },
                {
                    "name": "C#3",
                    "midi": 49,
                    "time": 252.99999999999284,
                    "velocity": 0.1732283464566929,
                    "duration": 0.18999999999999773
                },
                {
                    "name": "C#3",
                    "midi": 49,
                    "time": 253.19999999999283,
                    "velocity": 0.1732283464566929,
                    "duration": 0.18999999999999773
                },
                {
                    "name": "E3",
                    "midi": 52,
                    "time": 253.19999999999283,
                    "velocity": 0.2047244094488189,
                    "duration": 0.18999999999999773
                },
                {
                    "name": "C#3",
                    "midi": 49,
                    "time": 253.39999999999281,
                    "velocity": 0.1732283464566929,
                    "duration": 0.18999999999999773
                },
                {
                    "name": "E3",
                    "midi": 52,
                    "time": 253.39999999999281,
                    "velocity": 0.2047244094488189,
                    "duration": 0.18999999999999773
                },
                {
                    "name": "C#3",
                    "midi": 49,
                    "time": 253.5999999999928,
                    "velocity": 0.1732283464566929,
                    "duration": 0.18999999999999773
                },
                {
                    "name": "E3",
                    "midi": 52,
                    "time": 253.5999999999928,
                    "velocity": 0.2047244094488189,
                    "duration": 0.18999999999999773
                },
                {
                    "name": "C#3",
                    "midi": 49,
                    "time": 253.7999999999928,
                    "velocity": 0.1732283464566929,
                    "duration": 0.18999999999999773
                },
                {
                    "name": "E3",
                    "midi": 52,
                    "time": 253.7999999999928,
                    "velocity": 0.2047244094488189,
                    "duration": 0.18999999999999773
                },
                {
                    "name": "C#3",
                    "midi": 49,
                    "time": 253.99999999999278,
                    "velocity": 0.1732283464566929,
                    "duration": 0.18999999999999773
                },
                {
                    "name": "E3",
                    "midi": 52,
                    "time": 253.99999999999278,
                    "velocity": 0.2047244094488189,
                    "duration": 0.18999999999999773
                },
                {
                    "name": "C#3",
                    "midi": 49,
                    "time": 254.19999999999277,
                    "velocity": 0.1732283464566929,
                    "duration": 0.18999999999999773
                },
                {
                    "name": "E3",
                    "midi": 52,
                    "time": 254.19999999999277,
                    "velocity": 0.2047244094488189,
                    "duration": 0.18999999999999773
                },
                {
                    "name": "D#2",
                    "midi": 39,
                    "time": 254.39999999999276,
                    "velocity": 0.2047244094488189,
                    "duration": 0.18999999999999773
                },
                {
                    "name": "D#3",
                    "midi": 51,
                    "time": 254.59999999999275,
                    "velocity": 0.2047244094488189,
                    "duration": 0.18999999999999773
                },
                {
                    "name": "D#3",
                    "midi": 51,
                    "time": 254.79999999999274,
                    "velocity": 0.2047244094488189,
                    "duration": 0.18999999999999773
                },
                {
                    "name": "D#3",
                    "midi": 51,
                    "time": 254.99999999999272,
                    "velocity": 0.1968503937007874,
                    "duration": 0.18999999999999773
                },
                {
                    "name": "D#3",
                    "midi": 51,
                    "time": 255.1999999999927,
                    "velocity": 0.1968503937007874,
                    "duration": 0.18999999999999773
                },
                {
                    "name": "D#3",
                    "midi": 51,
                    "time": 255.3999999999927,
                    "velocity": 0.1889763779527559,
                    "duration": 0.18999999999999773
                },
                {
                    "name": "D#3",
                    "midi": 51,
                    "time": 255.5999999999927,
                    "velocity": 0.1889763779527559,
                    "duration": 0.18999999999999773
                },
                {
                    "name": "D#3",
                    "midi": 51,
                    "time": 255.79999999999268,
                    "velocity": 0.1889763779527559,
                    "duration": 0.18999999999999773
                },
                {
                    "name": "D#3",
                    "midi": 51,
                    "time": 255.99999999999267,
                    "velocity": 0.18110236220472442,
                    "duration": 0.18999999999999773
                },
                {
                    "name": "D#3",
                    "midi": 51,
                    "time": 256.19999999999266,
                    "velocity": 0.18110236220472442,
                    "duration": 0.18999999999999773
                },
                {
                    "name": "D#3",
                    "midi": 51,
                    "time": 256.39999999999264,
                    "velocity": 0.1732283464566929,
                    "duration": 0.18999999999999773
                },
                {
                    "name": "D#3",
                    "midi": 51,
                    "time": 256.59999999999263,
                    "velocity": 0.1732283464566929,
                    "duration": 0.18999999999999773
                },
                {
                    "name": "D#2",
                    "midi": 39,
                    "time": 256.7999999999926,
                    "velocity": 0.1732283464566929,
                    "duration": 0.18999999999999773
                },
                {
                    "name": "D#3",
                    "midi": 51,
                    "time": 256.9999999999926,
                    "velocity": 0.1732283464566929,
                    "duration": 0.18999999999999773
                },
                {
                    "name": "D#3",
                    "midi": 51,
                    "time": 257.1999999999926,
                    "velocity": 0.1732283464566929,
                    "duration": 0.18999999999999773
                },
                {
                    "name": "D#3",
                    "midi": 51,
                    "time": 257.3999999999926,
                    "velocity": 0.15748031496062992,
                    "duration": 0.18999999999999773
                },
                {
                    "name": "D#3",
                    "midi": 51,
                    "time": 257.5999999999926,
                    "velocity": 0.15748031496062992,
                    "duration": 0.18999999999999773
                },
                {
                    "name": "D#3",
                    "midi": 51,
                    "time": 257.79999999999256,
                    "velocity": 0.14960629921259844,
                    "duration": 0.18999999999999773
                },
                {
                    "name": "D#3",
                    "midi": 51,
                    "time": 257.99999999999255,
                    "velocity": 0.14960629921259844,
                    "duration": 0.18999999999999773
                },
                {
                    "name": "D#3",
                    "midi": 51,
                    "time": 258.19999999999254,
                    "velocity": 0.14960629921259844,
                    "duration": 0.18999999999999773
                },
                {
                    "name": "D#3",
                    "midi": 51,
                    "time": 258.39999999999253,
                    "velocity": 0.14173228346456693,
                    "duration": 0.18999999999999773
                },
                {
                    "name": "D#3",
                    "midi": 51,
                    "time": 258.5999999999925,
                    "velocity": 0.14173228346456693,
                    "duration": 0.18999999999999773
                },
                {
                    "name": "D#3",
                    "midi": 51,
                    "time": 258.7999999999925,
                    "velocity": 0.13385826771653545,
                    "duration": 0.18999999999999773
                },
                {
                    "name": "D#3",
                    "midi": 51,
                    "time": 258.9999999999925,
                    "velocity": 0.13385826771653545,
                    "duration": 0.18999999999999773
                },
                {
                    "name": "D#2",
                    "midi": 39,
                    "time": 259.1999999999925,
                    "velocity": 0.36220472440944884,
                    "duration": 0.30000000000001137
                },
                {
                    "name": "C#4",
                    "midi": 61,
                    "time": 259.5999999999925,
                    "velocity": 0.33070866141732286,
                    "duration": 2
                },
                {
                    "name": "A#3",
                    "midi": 58,
                    "time": 259.5999999999925,
                    "velocity": 0.2755905511811024,
                    "duration": 2
                },
                {
                    "name": "D#3",
                    "midi": 51,
                    "time": 259.5999999999925,
                    "velocity": 0.2755905511811024,
                    "duration": 2
                },
                {
                    "name": "G3",
                    "midi": 55,
                    "time": 261.5999999999925,
                    "velocity": 0.4015748031496063,
                    "duration": 2.3999999999999773
                },
                {
                    "name": "D#3",
                    "midi": 51,
                    "time": 261.5999999999925,
                    "velocity": 0.4015748031496063,
                    "duration": 2.3999999999999773
                },
                {
                    "name": "A#3",
                    "midi": 58,
                    "time": 261.5999999999925,
                    "velocity": 0.4015748031496063,
                    "duration": 2.3999999999999773
                },
                {
                    "name": "C#4",
                    "midi": 61,
                    "time": 261.5999999999925,
                    "velocity": 0.47244094488188976,
                    "duration": 2.3999999999999773
                },
                {
                    "name": "D#3",
                    "midi": 51,
                    "time": 263.9999999999925,
                    "velocity": 0.33070866141732286,
                    "duration": 2.3999999999999773
                },
                {
                    "name": "C#4",
                    "midi": 61,
                    "time": 263.9999999999925,
                    "velocity": 0.3937007874015748,
                    "duration": 2.3999999999999773
                },
                {
                    "name": "A#3",
                    "midi": 58,
                    "time": 263.9999999999925,
                    "velocity": 0.33070866141732286,
                    "duration": 2.3999999999999773
                },
                {
                    "name": "G3",
                    "midi": 55,
                    "time": 263.9999999999925,
                    "velocity": 0.33070866141732286,
                    "duration": 2.3999999999999773
                },
                {
                    "name": "G#2",
                    "midi": 44,
                    "time": 266.3999999999925,
                    "velocity": 0.31496062992125984,
                    "duration": 0.19999999999998863
                },
                {
                    "name": "B3",
                    "midi": 59,
                    "time": 266.79999999999245,
                    "velocity": 0.2677165354330709,
                    "duration": 1.6000000000000227
                },
                {
                    "name": "G#3",
                    "midi": 56,
                    "time": 266.79999999999245,
                    "velocity": 0.2677165354330709,
                    "duration": 1.6000000000000227
                },
                {
                    "name": "D#4",
                    "midi": 63,
                    "time": 266.79999999999245,
                    "velocity": 0.31496062992125984,
                    "duration": 1.6000000000000227
                },
                {
                    "name": "D#3",
                    "midi": 51,
                    "time": 268.3999999999925,
                    "velocity": 0.2125984251968504,
                    "duration": 0.19999999999998863
                },
                {
                    "name": "A#3",
                    "midi": 58,
                    "time": 268.3999999999925,
                    "velocity": 0.2125984251968504,
                    "duration": 0.19999999999998863
                },
                {
                    "name": "D#4",
                    "midi": 63,
                    "time": 268.3999999999925,
                    "velocity": 0.25984251968503935,
                    "duration": 0.19999999999998863
                },
                {
                    "name": "G#2",
                    "midi": 44,
                    "time": 268.79999999999245,
                    "velocity": 0.31496062992125984,
                    "duration": 0.19999999999998863
                },
                {
                    "name": "B3",
                    "midi": 59,
                    "time": 269.19999999999243,
                    "velocity": 0.2677165354330709,
                    "duration": 1.6000000000000227
                },
                {
                    "name": "G#3",
                    "midi": 56,
                    "time": 269.19999999999243,
                    "velocity": 0.2677165354330709,
                    "duration": 1.6000000000000227
                },
                {
                    "name": "D#4",
                    "midi": 63,
                    "time": 269.19999999999243,
                    "velocity": 0.31496062992125984,
                    "duration": 1.6000000000000227
                },
                {
                    "name": "D#3",
                    "midi": 51,
                    "time": 270.79999999999245,
                    "velocity": 0.2125984251968504,
                    "duration": 0.19999999999998863
                },
                {
                    "name": "A#3",
                    "midi": 58,
                    "time": 270.79999999999245,
                    "velocity": 0.2125984251968504,
                    "duration": 0.19999999999998863
                },
                {
                    "name": "D#4",
                    "midi": 63,
                    "time": 270.79999999999245,
                    "velocity": 0.25984251968503935,
                    "duration": 0.19999999999998863
                },
                {
                    "name": "D#4",
                    "midi": 63,
                    "time": 271.19999999999243,
                    "velocity": 0.2125984251968504,
                    "duration": 0.37999999999999545
                },
                {
                    "name": "B3",
                    "midi": 59,
                    "time": 271.19999999999243,
                    "velocity": 0.2125984251968504,
                    "duration": 0.37999999999999545
                },
                {
                    "name": "G#3",
                    "midi": 56,
                    "time": 271.19999999999243,
                    "velocity": 0.2125984251968504,
                    "duration": 0.37999999999999545
                },
                {
                    "name": "D#3",
                    "midi": 51,
                    "time": 271.5999999999924,
                    "velocity": 0.2125984251968504,
                    "duration": 0.37999999999999545
                },
                {
                    "name": "E4",
                    "midi": 64,
                    "time": 271.5999999999924,
                    "velocity": 0.2125984251968504,
                    "duration": 0.37999999999999545
                },
                {
                    "name": "A#3",
                    "midi": 58,
                    "time": 271.5999999999924,
                    "velocity": 0.2125984251968504,
                    "duration": 0.37999999999999545
                },
                {
                    "name": "D#3",
                    "midi": 51,
                    "time": 271.9999999999924,
                    "velocity": 0.2440944881889764,
                    "duration": 0.37999999999999545
                },
                {
                    "name": "A#3",
                    "midi": 58,
                    "time": 271.9999999999924,
                    "velocity": 0.2440944881889764,
                    "duration": 0.37999999999999545
                },
                {
                    "name": "E4",
                    "midi": 64,
                    "time": 271.9999999999924,
                    "velocity": 0.2440944881889764,
                    "duration": 0.37999999999999545
                },
                {
                    "name": "D#3",
                    "midi": 51,
                    "time": 272.39999999999236,
                    "velocity": 0.2440944881889764,
                    "duration": 0.37999999999999545
                },
                {
                    "name": "A#3",
                    "midi": 58,
                    "time": 272.39999999999236,
                    "velocity": 0.2440944881889764,
                    "duration": 0.37999999999999545
                },
                {
                    "name": "E4",
                    "midi": 64,
                    "time": 272.39999999999236,
                    "velocity": 0.2440944881889764,
                    "duration": 0.37999999999999545
                },
                {
                    "name": "D#3",
                    "midi": 51,
                    "time": 272.79999999999234,
                    "velocity": 0.1968503937007874,
                    "duration": 0.37999999999999545
                },
                {
                    "name": "A#3",
                    "midi": 58,
                    "time": 272.79999999999234,
                    "velocity": 0.1968503937007874,
                    "duration": 0.37999999999999545
                },
                {
                    "name": "D#4",
                    "midi": 63,
                    "time": 272.79999999999234,
                    "velocity": 0.1968503937007874,
                    "duration": 0.37999999999999545
                },
                {
                    "name": "C#4",
                    "midi": 61,
                    "time": 273.1999999999923,
                    "velocity": 0.1968503937007874,
                    "duration": 0.37999999999999545
                },
                {
                    "name": "D#3",
                    "midi": 51,
                    "time": 273.1999999999923,
                    "velocity": 0.1968503937007874,
                    "duration": 0.37999999999999545
                },
                {
                    "name": "A#3",
                    "midi": 58,
                    "time": 273.1999999999923,
                    "velocity": 0.1968503937007874,
                    "duration": 0.37999999999999545
                },
                {
                    "name": "G#2",
                    "midi": 44,
                    "time": 273.5999999999923,
                    "velocity": 0.31496062992125984,
                    "duration": 0.20000000000004547
                },
                {
                    "name": "B3",
                    "midi": 59,
                    "time": 273.9999999999923,
                    "velocity": 0.2677165354330709,
                    "duration": 1.6000000000000227
                },
                {
                    "name": "G#3",
                    "midi": 56,
                    "time": 273.9999999999923,
                    "velocity": 0.2677165354330709,
                    "duration": 1.6000000000000227
                },
                {
                    "name": "D#4",
                    "midi": 63,
                    "time": 273.9999999999923,
                    "velocity": 0.31496062992125984,
                    "duration": 1.6000000000000227
                },
                {
                    "name": "D#3",
                    "midi": 51,
                    "time": 275.59999999999235,
                    "velocity": 0.2125984251968504,
                    "duration": 0.19999999999998863
                },
                {
                    "name": "A#3",
                    "midi": 58,
                    "time": 275.59999999999235,
                    "velocity": 0.2125984251968504,
                    "duration": 0.19999999999998863
                },
                {
                    "name": "D#4",
                    "midi": 63,
                    "time": 275.59999999999235,
                    "velocity": 0.25196850393700787,
                    "duration": 0.19999999999998863
                },
                {
                    "name": "G#2",
                    "midi": 44,
                    "time": 275.9999999999923,
                    "velocity": 0.31496062992125984,
                    "duration": 0.20000000000004547
                },
                {
                    "name": "B3",
                    "midi": 59,
                    "time": 276.39999999999236,
                    "velocity": 0.2677165354330709,
                    "duration": 1.6000000000000227
                },
                {
                    "name": "G#3",
                    "midi": 56,
                    "time": 276.39999999999236,
                    "velocity": 0.2677165354330709,
                    "duration": 1.6000000000000227
                },
                {
                    "name": "D#4",
                    "midi": 63,
                    "time": 276.39999999999236,
                    "velocity": 0.31496062992125984,
                    "duration": 1.6000000000000227
                },
                {
                    "name": "D#3",
                    "midi": 51,
                    "time": 277.9999999999924,
                    "velocity": 0.2125984251968504,
                    "duration": 0.19999999999998863
                },
                {
                    "name": "A#3",
                    "midi": 58,
                    "time": 277.9999999999924,
                    "velocity": 0.2125984251968504,
                    "duration": 0.19999999999998863
                },
                {
                    "name": "D#4",
                    "midi": 63,
                    "time": 277.9999999999924,
                    "velocity": 0.25196850393700787,
                    "duration": 0.19999999999998863
                },
                {
                    "name": "D#4",
                    "midi": 63,
                    "time": 278.39999999999236,
                    "velocity": 0.2125984251968504,
                    "duration": 0.37999999999999545
                },
                {
                    "name": "B3",
                    "midi": 59,
                    "time": 278.39999999999236,
                    "velocity": 0.2125984251968504,
                    "duration": 0.37999999999999545
                },
                {
                    "name": "G#3",
                    "midi": 56,
                    "time": 278.39999999999236,
                    "velocity": 0.2125984251968504,
                    "duration": 0.37999999999999545
                },
                {
                    "name": "F#3",
                    "midi": 54,
                    "time": 278.79999999999234,
                    "velocity": 0.2125984251968504,
                    "duration": 0.37999999999999545
                },
                {
                    "name": "E4",
                    "midi": 64,
                    "time": 278.79999999999234,
                    "velocity": 0.2125984251968504,
                    "duration": 0.37999999999999545
                },
                {
                    "name": "A#3",
                    "midi": 58,
                    "time": 278.79999999999234,
                    "velocity": 0.2125984251968504,
                    "duration": 0.37999999999999545
                },
                {
                    "name": "F#3",
                    "midi": 54,
                    "time": 279.1999999999923,
                    "velocity": 0.2440944881889764,
                    "duration": 0.37999999999999545
                },
                {
                    "name": "A#3",
                    "midi": 58,
                    "time": 279.1999999999923,
                    "velocity": 0.2440944881889764,
                    "duration": 0.37999999999999545
                },
                {
                    "name": "E4",
                    "midi": 64,
                    "time": 279.1999999999923,
                    "velocity": 0.2440944881889764,
                    "duration": 0.37999999999999545
                },
                {
                    "name": "F#3",
                    "midi": 54,
                    "time": 279.5999999999923,
                    "velocity": 0.2440944881889764,
                    "duration": 0.37999999999999545
                },
                {
                    "name": "A#3",
                    "midi": 58,
                    "time": 279.5999999999923,
                    "velocity": 0.2440944881889764,
                    "duration": 0.37999999999999545
                },
                {
                    "name": "E4",
                    "midi": 64,
                    "time": 279.5999999999923,
                    "velocity": 0.2440944881889764,
                    "duration": 0.37999999999999545
                },
                {
                    "name": "F#3",
                    "midi": 54,
                    "time": 279.99999999999227,
                    "velocity": 0.1968503937007874,
                    "duration": 0.37999999999999545
                },
                {
                    "name": "A#3",
                    "midi": 58,
                    "time": 279.99999999999227,
                    "velocity": 0.1968503937007874,
                    "duration": 0.37999999999999545
                },
                {
                    "name": "D#4",
                    "midi": 63,
                    "time": 279.99999999999227,
                    "velocity": 0.1968503937007874,
                    "duration": 0.37999999999999545
                },
                {
                    "name": "F#3",
                    "midi": 54,
                    "time": 280.39999999999225,
                    "velocity": 0.1968503937007874,
                    "duration": 0.37999999999999545
                },
                {
                    "name": "D4",
                    "midi": 62,
                    "time": 280.39999999999225,
                    "velocity": 0.1968503937007874,
                    "duration": 0.37999999999999545
                },
                {
                    "name": "A#3",
                    "midi": 58,
                    "time": 280.39999999999225,
                    "velocity": 0.1968503937007874,
                    "duration": 0.37999999999999545
                },
                {
                    "name": "B2",
                    "midi": 47,
                    "time": 280.7999999999922,
                    "velocity": 0.3937007874015748,
                    "duration": 0.19999999999998863
                },
                {
                    "name": "D#4",
                    "midi": 63,
                    "time": 281.1999999999922,
                    "velocity": 0.3937007874015748,
                    "duration": 1.6000000000000227
                },
                {
                    "name": "B3",
                    "midi": 59,
                    "time": 281.1999999999922,
                    "velocity": 0.33070866141732286,
                    "duration": 1.6000000000000227
                },
                {
                    "name": "F#3",
                    "midi": 54,
                    "time": 281.1999999999922,
                    "velocity": 0.33070866141732286,
                    "duration": 1.6000000000000227
                },
                {
                    "name": "E4",
                    "midi": 64,
                    "time": 282.7999999999922,
                    "velocity": 0.3228346456692913,
                    "duration": 0.19999999999998863
                },
                {
                    "name": "F#3",
                    "midi": 54,
                    "time": 282.7999999999922,
                    "velocity": 0.2755905511811024,
                    "duration": 0.19999999999998863
                },
                {
                    "name": "B2",
                    "midi": 47,
                    "time": 283.1999999999922,
                    "velocity": 0.3937007874015748,
                    "duration": 0.19999999999998863
                },
                {
                    "name": "D#4",
                    "midi": 63,
                    "time": 283.5999999999922,
                    "velocity": 0.3937007874015748,
                    "duration": 1.6000000000000227
                },
                {
                    "name": "B3",
                    "midi": 59,
                    "time": 283.5999999999922,
                    "velocity": 0.33070866141732286,
                    "duration": 1.6000000000000227
                },
                {
                    "name": "F#3",
                    "midi": 54,
                    "time": 283.5999999999922,
                    "velocity": 0.33070866141732286,
                    "duration": 1.6000000000000227
                },
                {
                    "name": "E4",
                    "midi": 64,
                    "time": 285.1999999999922,
                    "velocity": 0.3228346456692913,
                    "duration": 0.19999999999998863
                },
                {
                    "name": "F#3",
                    "midi": 54,
                    "time": 285.1999999999922,
                    "velocity": 0.2755905511811024,
                    "duration": 0.19999999999998863
                },
                {
                    "name": "D#4",
                    "midi": 63,
                    "time": 285.5999999999922,
                    "velocity": 0.28346456692913385,
                    "duration": 0.37999999999999545
                },
                {
                    "name": "B3",
                    "midi": 59,
                    "time": 285.5999999999922,
                    "velocity": 0.28346456692913385,
                    "duration": 0.37999999999999545
                },
                {
                    "name": "F#3",
                    "midi": 54,
                    "time": 285.99999999999216,
                    "velocity": 0.3228346456692913,
                    "duration": 0.37999999999999545
                },
                {
                    "name": "E4",
                    "midi": 64,
                    "time": 285.99999999999216,
                    "velocity": 0.3228346456692913,
                    "duration": 0.37999999999999545
                },
                {
                    "name": "F#3",
                    "midi": 54,
                    "time": 286.39999999999213,
                    "velocity": 0.3543307086614173,
                    "duration": 0.37999999999999545
                },
                {
                    "name": "E4",
                    "midi": 64,
                    "time": 286.39999999999213,
                    "velocity": 0.3543307086614173,
                    "duration": 0.37999999999999545
                },
                {
                    "name": "F#3",
                    "midi": 54,
                    "time": 286.7999999999921,
                    "velocity": 0.3543307086614173,
                    "duration": 0.37999999999999545
                },
                {
                    "name": "E4",
                    "midi": 64,
                    "time": 286.7999999999921,
                    "velocity": 0.3543307086614173,
                    "duration": 0.37999999999999545
                },
                {
                    "name": "D#4",
                    "midi": 63,
                    "time": 287.1999999999921,
                    "velocity": 0.28346456692913385,
                    "duration": 0.37999999999999545
                },
                {
                    "name": "F#3",
                    "midi": 54,
                    "time": 287.1999999999921,
                    "velocity": 0.28346456692913385,
                    "duration": 0.37999999999999545
                },
                {
                    "name": "C#4",
                    "midi": 61,
                    "time": 287.59999999999206,
                    "velocity": 0.28346456692913385,
                    "duration": 0.37999999999999545
                },
                {
                    "name": "F#3",
                    "midi": 54,
                    "time": 287.59999999999206,
                    "velocity": 0.28346456692913385,
                    "duration": 0.37999999999999545
                },
                {
                    "name": "B2",
                    "midi": 47,
                    "time": 287.99999999999204,
                    "velocity": 0.3937007874015748,
                    "duration": 0.19999999999998863
                },
                {
                    "name": "D4",
                    "midi": 62,
                    "time": 288.399999999992,
                    "velocity": 0.3937007874015748,
                    "duration": 1.6000000000000227
                },
                {
                    "name": "B3",
                    "midi": 59,
                    "time": 288.399999999992,
                    "velocity": 0.33070866141732286,
                    "duration": 1.6000000000000227
                },
                {
                    "name": "F#3",
                    "midi": 54,
                    "time": 288.399999999992,
                    "velocity": 0.33070866141732286,
                    "duration": 1.6000000000000227
                },
                {
                    "name": "E4",
                    "midi": 64,
                    "time": 289.99999999999204,
                    "velocity": 0.33070866141732286,
                    "duration": 0.19999999999998863
                },
                {
                    "name": "F#3",
                    "midi": 54,
                    "time": 289.99999999999204,
                    "velocity": 0.2755905511811024,
                    "duration": 0.19999999999998863
                },
                {
                    "name": "B2",
                    "midi": 47,
                    "time": 290.399999999992,
                    "velocity": 0.3937007874015748,
                    "duration": 0.19999999999998863
                },
                {
                    "name": "D4",
                    "midi": 62,
                    "time": 290.799999999992,
                    "velocity": 0.3937007874015748,
                    "duration": 1.6000000000000227
                },
                {
                    "name": "B3",
                    "midi": 59,
                    "time": 290.799999999992,
                    "velocity": 0.33070866141732286,
                    "duration": 1.6000000000000227
                },
                {
                    "name": "F#3",
                    "midi": 54,
                    "time": 290.799999999992,
                    "velocity": 0.33070866141732286,
                    "duration": 1.6000000000000227
                },
                {
                    "name": "E4",
                    "midi": 64,
                    "time": 292.399999999992,
                    "velocity": 0.3228346456692913,
                    "duration": 0.19999999999998863
                },
                {
                    "name": "F#3",
                    "midi": 54,
                    "time": 292.399999999992,
                    "velocity": 0.2755905511811024,
                    "duration": 0.19999999999998863
                },
                {
                    "name": "D4",
                    "midi": 62,
                    "time": 292.799999999992,
                    "velocity": 0.31496062992125984,
                    "duration": 0.37999999999999545
                },
                {
                    "name": "B3",
                    "midi": 59,
                    "time": 292.799999999992,
                    "velocity": 0.31496062992125984,
                    "duration": 0.37999999999999545
                },
                {
                    "name": "A3",
                    "midi": 57,
                    "time": 293.199999999992,
                    "velocity": 0.3543307086614173,
                    "duration": 0.37999999999999545
                },
                {
                    "name": "G4",
                    "midi": 67,
                    "time": 293.199999999992,
                    "velocity": 0.3543307086614173,
                    "duration": 0.37999999999999545
                },
                {
                    "name": "A3",
                    "midi": 57,
                    "time": 293.59999999999195,
                    "velocity": 0.33858267716535434,
                    "duration": 0.37999999999999545
                },
                {
                    "name": "G4",
                    "midi": 67,
                    "time": 293.59999999999195,
                    "velocity": 0.33858267716535434,
                    "duration": 0.37999999999999545
                },
                {
                    "name": "A3",
                    "midi": 57,
                    "time": 293.9999999999919,
                    "velocity": 0.3228346456692913,
                    "duration": 0.37999999999999545
                },
                {
                    "name": "G4",
                    "midi": 67,
                    "time": 293.9999999999919,
                    "velocity": 0.3228346456692913,
                    "duration": 0.37999999999999545
                },
                {
                    "name": "A3",
                    "midi": 57,
                    "time": 294.3999999999919,
                    "velocity": 0.30708661417322836,
                    "duration": 0.37999999999999545
                },
                {
                    "name": "F#4",
                    "midi": 66,
                    "time": 294.3999999999919,
                    "velocity": 0.30708661417322836,
                    "duration": 0.37999999999999545
                },
                {
                    "name": "A3",
                    "midi": 57,
                    "time": 294.7999999999919,
                    "velocity": 0.29133858267716534,
                    "duration": 0.37999999999999545
                },
                {
                    "name": "E4",
                    "midi": 64,
                    "time": 294.7999999999919,
                    "velocity": 0.29133858267716534,
                    "duration": 0.37999999999999545
                },
                {
                    "name": "D4",
                    "midi": 62,
                    "time": 295.19999999999186,
                    "velocity": 0.28346456692913385,
                    "duration": 0.37999999999999545
                },
                {
                    "name": "B3",
                    "midi": 59,
                    "time": 295.19999999999186,
                    "velocity": 0.28346456692913385,
                    "duration": 0.37999999999999545
                },
                {
                    "name": "F#3",
                    "midi": 54,
                    "time": 295.59999999999184,
                    "velocity": 0.33070866141732286,
                    "duration": 0.37999999999999545
                },
                {
                    "name": "E4",
                    "midi": 64,
                    "time": 295.59999999999184,
                    "velocity": 0.33070866141732286,
                    "duration": 0.37999999999999545
                },
                {
                    "name": "F#3",
                    "midi": 54,
                    "time": 295.9999999999918,
                    "velocity": 0.3228346456692913,
                    "duration": 0.37999999999999545
                },
                {
                    "name": "E4",
                    "midi": 64,
                    "time": 295.9999999999918,
                    "velocity": 0.3228346456692913,
                    "duration": 0.37999999999999545
                },
                {
                    "name": "F#3",
                    "midi": 54,
                    "time": 296.3999999999918,
                    "velocity": 0.3228346456692913,
                    "duration": 0.37999999999999545
                },
                {
                    "name": "E4",
                    "midi": 64,
                    "time": 296.3999999999918,
                    "velocity": 0.3228346456692913,
                    "duration": 0.37999999999999545
                },
                {
                    "name": "C#4",
                    "midi": 61,
                    "time": 296.79999999999177,
                    "velocity": 0.30708661417322836,
                    "duration": 0.37999999999999545
                },
                {
                    "name": "F#3",
                    "midi": 54,
                    "time": 296.79999999999177,
                    "velocity": 0.30708661417322836,
                    "duration": 0.37999999999999545
                },
                {
                    "name": "A#3",
                    "midi": 58,
                    "time": 297.19999999999175,
                    "velocity": 0.29133858267716534,
                    "duration": 0.37999999999999545
                },
                {
                    "name": "F#3",
                    "midi": 54,
                    "time": 297.19999999999175,
                    "velocity": 0.29133858267716534,
                    "duration": 0.37999999999999545
                },
                {
                    "name": "B3",
                    "midi": 59,
                    "time": 297.5999999999917,
                    "velocity": 0.28346456692913385,
                    "duration": 0.37999999999999545
                },
                {
                    "name": "G#3",
                    "midi": 56,
                    "time": 297.5999999999917,
                    "velocity": 0.28346456692913385,
                    "duration": 0.37999999999999545
                },
                {
                    "name": "C#3",
                    "midi": 49,
                    "time": 297.9999999999917,
                    "velocity": 0.3464566929133858,
                    "duration": 0.37999999999999545
                },
                {
                    "name": "G#3",
                    "midi": 56,
                    "time": 297.9999999999917,
                    "velocity": 0.3464566929133858,
                    "duration": 0.37999999999999545
                },
                {
                    "name": "C#4",
                    "midi": 61,
                    "time": 297.9999999999917,
                    "velocity": 0.3464566929133858,
                    "duration": 0.37999999999999545
                },
                {
                    "name": "C#3",
                    "midi": 49,
                    "time": 298.3999999999917,
                    "velocity": 0.33070866141732286,
                    "duration": 0.37999999999999545
                },
                {
                    "name": "G#3",
                    "midi": 56,
                    "time": 298.3999999999917,
                    "velocity": 0.33070866141732286,
                    "duration": 0.37999999999999545
                },
                {
                    "name": "C#4",
                    "midi": 61,
                    "time": 298.3999999999917,
                    "velocity": 0.33070866141732286,
                    "duration": 0.37999999999999545
                },
                {
                    "name": "C#3",
                    "midi": 49,
                    "time": 298.79999999999166,
                    "velocity": 0.3464566929133858,
                    "duration": 0.37999999999999545
                },
                {
                    "name": "C#4",
                    "midi": 61,
                    "time": 298.79999999999166,
                    "velocity": 0.3464566929133858,
                    "duration": 0.37999999999999545
                },
                {
                    "name": "G#3",
                    "midi": 56,
                    "time": 298.79999999999166,
                    "velocity": 0.3464566929133858,
                    "duration": 0.37999999999999545
                },
                {
                    "name": "D#3",
                    "midi": 51,
                    "time": 299.19999999999163,
                    "velocity": 0.33858267716535434,
                    "duration": 0.37999999999999545
                },
                {
                    "name": "B3",
                    "midi": 59,
                    "time": 299.19999999999163,
                    "velocity": 0.33858267716535434,
                    "duration": 0.37999999999999545
                },
                {
                    "name": "G#3",
                    "midi": 56,
                    "time": 299.19999999999163,
                    "velocity": 0.33858267716535434,
                    "duration": 0.37999999999999545
                },
                {
                    "name": "G#3",
                    "midi": 56,
                    "time": 299.5999999999916,
                    "velocity": 0.33070866141732286,
                    "duration": 0.37999999999999545
                },
                {
                    "name": "E3",
                    "midi": 52,
                    "time": 299.5999999999916,
                    "velocity": 0.33070866141732286,
                    "duration": 0.37999999999999545
                },
                {
                    "name": "D#3",
                    "midi": 51,
                    "time": 299.9999999999916,
                    "velocity": 0.3228346456692913,
                    "duration": 0.37999999999999545
                },
                {
                    "name": "G#3",
                    "midi": 56,
                    "time": 299.9999999999916,
                    "velocity": 0.3228346456692913,
                    "duration": 0.37999999999999545
                },
                {
                    "name": "B3",
                    "midi": 59,
                    "time": 299.9999999999916,
                    "velocity": 0.3228346456692913,
                    "duration": 0.37999999999999545
                },
                {
                    "name": "D#3",
                    "midi": 51,
                    "time": 300.39999999999156,
                    "velocity": 0.31496062992125984,
                    "duration": 0.37999999999999545
                },
                {
                    "name": "G#3",
                    "midi": 56,
                    "time": 300.39999999999156,
                    "velocity": 0.31496062992125984,
                    "duration": 0.37999999999999545
                },
                {
                    "name": "B3",
                    "midi": 59,
                    "time": 300.39999999999156,
                    "velocity": 0.31496062992125984,
                    "duration": 0.37999999999999545
                },
                {
                    "name": "D#3",
                    "midi": 51,
                    "time": 300.79999999999154,
                    "velocity": 0.31496062992125984,
                    "duration": 0.37999999999999545
                },
                {
                    "name": "G#3",
                    "midi": 56,
                    "time": 300.79999999999154,
                    "velocity": 0.31496062992125984,
                    "duration": 0.37999999999999545
                },
                {
                    "name": "B3",
                    "midi": 59,
                    "time": 300.79999999999154,
                    "velocity": 0.31496062992125984,
                    "duration": 0.37999999999999545
                },
                {
                    "name": "D#3",
                    "midi": 51,
                    "time": 301.1999999999915,
                    "velocity": 0.2440944881889764,
                    "duration": 0.37999999999999545
                },
                {
                    "name": "G3",
                    "midi": 55,
                    "time": 301.1999999999915,
                    "velocity": 0.2440944881889764,
                    "duration": 0.37999999999999545
                },
                {
                    "name": "A#3",
                    "midi": 58,
                    "time": 301.1999999999915,
                    "velocity": 0.2440944881889764,
                    "duration": 0.37999999999999545
                },
                {
                    "name": "D#3",
                    "midi": 51,
                    "time": 301.5999999999915,
                    "velocity": 0.23622047244094488,
                    "duration": 0.37999999999999545
                },
                {
                    "name": "G3",
                    "midi": 55,
                    "time": 301.5999999999915,
                    "velocity": 0.23622047244094488,
                    "duration": 0.37999999999999545
                },
                {
                    "name": "A#3",
                    "midi": 58,
                    "time": 301.5999999999915,
                    "velocity": 0.23622047244094488,
                    "duration": 0.37999999999999545
                },
                {
                    "name": "D#3",
                    "midi": 51,
                    "time": 301.9999999999915,
                    "velocity": 0.2283464566929134,
                    "duration": 0.37999999999999545
                },
                {
                    "name": "G3",
                    "midi": 55,
                    "time": 301.9999999999915,
                    "velocity": 0.2283464566929134,
                    "duration": 0.37999999999999545
                },
                {
                    "name": "A#3",
                    "midi": 58,
                    "time": 301.9999999999915,
                    "velocity": 0.2283464566929134,
                    "duration": 0.37999999999999545
                },
                {
                    "name": "G#2",
                    "midi": 44,
                    "time": 302.39999999999145,
                    "velocity": 0.31496062992125984,
                    "duration": 0.39999999999997726
                },
                {
                    "name": "D#3",
                    "midi": 51,
                    "time": 302.7999999999914,
                    "velocity": 0.2677165354330709,
                    "duration": 1.6000000000000227
                },
                {
                    "name": "C4",
                    "midi": 60,
                    "time": 302.7999999999914,
                    "velocity": 0.31496062992125984,
                    "duration": 1.6000000000000227
                },
                {
                    "name": "G#3",
                    "midi": 56,
                    "time": 302.7999999999914,
                    "velocity": 0.2677165354330709,
                    "duration": 1.6000000000000227
                },
                {
                    "name": "C#4",
                    "midi": 61,
                    "time": 304.39999999999145,
                    "velocity": 0.25196850393700787,
                    "duration": 0.19999999999998863
                },
                {
                    "name": "D#3",
                    "midi": 51,
                    "time": 304.39999999999145,
                    "velocity": 0.2125984251968504,
                    "duration": 0.19999999999998863
                },
                {
                    "name": "G#2",
                    "midi": 44,
                    "time": 304.7999999999914,
                    "velocity": 0.31496062992125984,
                    "duration": 0.4000000000000341
                },
                {
                    "name": "D#3",
                    "midi": 51,
                    "time": 305.19999999999146,
                    "velocity": 0.2677165354330709,
                    "duration": 1.6000000000000227
                },
                {
                    "name": "C4",
                    "midi": 60,
                    "time": 305.19999999999146,
                    "velocity": 0.31496062992125984,
                    "duration": 1.6000000000000227
                },
                {
                    "name": "G#3",
                    "midi": 56,
                    "time": 305.19999999999146,
                    "velocity": 0.2677165354330709,
                    "duration": 1.6000000000000227
                },
                {
                    "name": "C#4",
                    "midi": 61,
                    "time": 306.7999999999915,
                    "velocity": 0.25196850393700787,
                    "duration": 0.19999999999998863
                },
                {
                    "name": "D#3",
                    "midi": 51,
                    "time": 306.7999999999915,
                    "velocity": 0.2125984251968504,
                    "duration": 0.19999999999998863
                },
                {
                    "name": "G#2",
                    "midi": 44,
                    "time": 307.19999999999146,
                    "velocity": 0.3543307086614173,
                    "duration": 0.39999999999997726
                },
                {
                    "name": "D#3",
                    "midi": 51,
                    "time": 307.59999999999144,
                    "velocity": 0.3228346456692913,
                    "duration": 1.6000000000000227
                },
                {
                    "name": "C4",
                    "midi": 60,
                    "time": 307.59999999999144,
                    "velocity": 0.3858267716535433,
                    "duration": 1.6000000000000227
                },
                {
                    "name": "G#3",
                    "midi": 56,
                    "time": 307.59999999999144,
                    "velocity": 0.3228346456692913,
                    "duration": 1.6000000000000227
                },
                {
                    "name": "C#4",
                    "midi": 61,
                    "time": 309.19999999999146,
                    "velocity": 0.28346456692913385,
                    "duration": 0.19999999999998863
                },
                {
                    "name": "D#3",
                    "midi": 51,
                    "time": 309.19999999999146,
                    "velocity": 0.23622047244094488,
                    "duration": 0.19999999999998863
                },
                {
                    "name": "G#2",
                    "midi": 44,
                    "time": 309.59999999999144,
                    "velocity": 0.3937007874015748,
                    "duration": 0.4000000000000341
                },
                {
                    "name": "D#3",
                    "midi": 51,
                    "time": 309.9999999999915,
                    "velocity": 0.31496062992125984,
                    "duration": 1.6000000000000227
                },
                {
                    "name": "C4",
                    "midi": 60,
                    "time": 309.9999999999915,
                    "velocity": 0.3779527559055118,
                    "duration": 1.6000000000000227
                },
                {
                    "name": "G#3",
                    "midi": 56,
                    "time": 309.9999999999915,
                    "velocity": 0.31496062992125984,
                    "duration": 1.6000000000000227
                },
                {
                    "name": "C#4",
                    "midi": 61,
                    "time": 311.5999999999915,
                    "velocity": 0.31496062992125984,
                    "duration": 0.19999999999998863
                },
                {
                    "name": "D#3",
                    "midi": 51,
                    "time": 311.5999999999915,
                    "velocity": 0.2677165354330709,
                    "duration": 0.19999999999998863
                },
                {
                    "name": "G#2",
                    "midi": 44,
                    "time": 311.9999999999915,
                    "velocity": 0.31496062992125984,
                    "duration": 0.39999999999997726
                },
                {
                    "name": "F#3",
                    "midi": 54,
                    "time": 312.39999999999145,
                    "velocity": 0.2125984251968504,
                    "duration": 0.8000000000000114
                },
                {
                    "name": "C4",
                    "midi": 60,
                    "time": 312.39999999999145,
                    "velocity": 0.25984251968503935,
                    "duration": 0.8000000000000114
                },
                {
                    "name": "G#3",
                    "midi": 56,
                    "time": 312.39999999999145,
                    "velocity": 0.2125984251968504,
                    "duration": 0.8000000000000114
                },
                {
                    "name": "C#3",
                    "midi": 49,
                    "time": 313.19999999999146,
                    "velocity": 0.31496062992125984,
                    "duration": 0.39999999999997726
                },
                {
                    "name": "C#4",
                    "midi": 61,
                    "time": 313.59999999999144,
                    "velocity": 0.2283464566929134,
                    "duration": 0.8000000000000114
                },
                {
                    "name": "G#3",
                    "midi": 56,
                    "time": 313.59999999999144,
                    "velocity": 0.1968503937007874,
                    "duration": 0.8000000000000114
                },
                {
                    "name": "F3",
                    "midi": 53,
                    "time": 313.59999999999144,
                    "velocity": 0.1968503937007874,
                    "duration": 0.8000000000000114
                },
                {
                    "name": "D#2",
                    "midi": 39,
                    "time": 314.39999999999145,
                    "velocity": 0.31496062992125984,
                    "duration": 0.39999999999997726
                },
                {
                    "name": "D#3",
                    "midi": 51,
                    "time": 314.7999999999914,
                    "velocity": 0.2283464566929134,
                    "duration": 0.8000000000000114
                },
                {
                    "name": "C#4",
                    "midi": 61,
                    "time": 314.7999999999914,
                    "velocity": 0.2755905511811024,
                    "duration": 0.8000000000000114
                },
                {
                    "name": "A#3",
                    "midi": 58,
                    "time": 314.7999999999914,
                    "velocity": 0.2283464566929134,
                    "duration": 0.8000000000000114
                },
                {
                    "name": "G#2",
                    "midi": 44,
                    "time": 315.59999999999144,
                    "velocity": 0.31496062992125984,
                    "duration": 0.39999999999997726
                },
                {
                    "name": "C4",
                    "midi": 60,
                    "time": 315.9999999999914,
                    "velocity": 0.29133858267716534,
                    "duration": 0.8000000000000114
                },
                {
                    "name": "G#3",
                    "midi": 56,
                    "time": 315.9999999999914,
                    "velocity": 0.2440944881889764,
                    "duration": 0.8000000000000114
                },
                {
                    "name": "D#3",
                    "midi": 51,
                    "time": 315.9999999999914,
                    "velocity": 0.2440944881889764,
                    "duration": 0.8000000000000114
                },
                {
                    "name": "G#2",
                    "midi": 44,
                    "time": 316.7999999999914,
                    "velocity": 0.3937007874015748,
                    "duration": 0.39999999999997726
                },
                {
                    "name": "F#3",
                    "midi": 54,
                    "time": 317.1999999999914,
                    "velocity": 0.2677165354330709,
                    "duration": 0.8000000000000114
                },
                {
                    "name": "C4",
                    "midi": 60,
                    "time": 317.1999999999914,
                    "velocity": 0.3228346456692913,
                    "duration": 0.8000000000000114
                },
                {
                    "name": "G#3",
                    "midi": 56,
                    "time": 317.1999999999914,
                    "velocity": 0.2677165354330709,
                    "duration": 0.8000000000000114
                },
                {
                    "name": "C#3",
                    "midi": 49,
                    "time": 317.9999999999914,
                    "velocity": 0.47244094488188976,
                    "duration": 0.39999999999997726
                },
                {
                    "name": "G#3",
                    "midi": 56,
                    "time": 318.3999999999914,
                    "velocity": 0.3464566929133858,
                    "duration": 0.8000000000000114
                },
                {
                    "name": "C#4",
                    "midi": 61,
                    "time": 318.3999999999914,
                    "velocity": 0.4094488188976378,
                    "duration": 0.8000000000000114
                },
                {
                    "name": "F3",
                    "midi": 53,
                    "time": 318.3999999999914,
                    "velocity": 0.3464566929133858,
                    "duration": 0.8000000000000114
                },
                {
                    "name": "D#2",
                    "midi": 39,
                    "time": 319.1999999999914,
                    "velocity": 0.5511811023622047,
                    "duration": 0.39999999999997726
                },
                {
                    "name": "C#4",
                    "midi": 61,
                    "time": 319.5999999999914,
                    "velocity": 0.48031496062992124,
                    "duration": 0.8000000000000114
                },
                {
                    "name": "A#3",
                    "midi": 58,
                    "time": 319.5999999999914,
                    "velocity": 0.4015748031496063,
                    "duration": 0.8000000000000114
                },
                {
                    "name": "D#3",
                    "midi": 51,
                    "time": 319.5999999999914,
                    "velocity": 0.4015748031496063,
                    "duration": 0.8000000000000114
                },
                {
                    "name": "G#2",
                    "midi": 44,
                    "time": 320.3999999999914,
                    "velocity": 0.5984251968503937,
                    "duration": 0.4000000000000341
                },
                {
                    "name": "C4",
                    "midi": 60,
                    "time": 320.7999999999914,
                    "velocity": 0.49606299212598426,
                    "duration": 0.8000000000000114
                },
                {
                    "name": "G#3",
                    "midi": 56,
                    "time": 320.7999999999914,
                    "velocity": 0.41732283464566927,
                    "duration": 0.8000000000000114
                },
                {
                    "name": "D#3",
                    "midi": 51,
                    "time": 320.7999999999914,
                    "velocity": 0.41732283464566927,
                    "duration": 0.8000000000000114
                },
                {
                    "name": "D#3",
                    "midi": 51,
                    "time": 321.59999999999144,
                    "velocity": 0.3937007874015748,
                    "duration": 0.39999999999997726
                },
                {
                    "name": "G#2",
                    "midi": 44,
                    "time": 321.59999999999144,
                    "velocity": 0.2677165354330709,
                    "duration": 1.1999999999999886
                },
                {
                    "name": "G#3",
                    "midi": 56,
                    "time": 321.9999999999914,
                    "velocity": 0.47244094488188976,
                    "duration": 0.6000000000000227
                },
                {
                    "name": "G3",
                    "midi": 55,
                    "time": 322.59999999999144,
                    "velocity": 0.3937007874015748,
                    "duration": 0.19999999999998863
                },
                {
                    "name": "F3",
                    "midi": 53,
                    "time": 322.7999999999914,
                    "velocity": 0.3937007874015748,
                    "duration": 0.4000000000000341
                },
                {
                    "name": "C#3",
                    "midi": 49,
                    "time": 322.7999999999914,
                    "velocity": 0.2677165354330709,
                    "duration": 1.2000000000000455
                },
                {
                    "name": "C#4",
                    "midi": 61,
                    "time": 323.19999999999146,
                    "velocity": 0.47244094488188976,
                    "duration": 0.6000000000000227
                },
                {
                    "name": "C4",
                    "midi": 60,
                    "time": 323.7999999999915,
                    "velocity": 0.3937007874015748,
                    "duration": 0.19999999999998863
                },
                {
                    "name": "A#3",
                    "midi": 58,
                    "time": 323.9999999999915,
                    "velocity": 0.3937007874015748,
                    "duration": 0.39999999999997726
                },
                {
                    "name": "D#3",
                    "midi": 51,
                    "time": 323.9999999999915,
                    "velocity": 0.2677165354330709,
                    "duration": 1.1999999999999886
                },
                {
                    "name": "D#4",
                    "midi": 63,
                    "time": 324.39999999999145,
                    "velocity": 0.47244094488188976,
                    "duration": 0.6000000000000227
                },
                {
                    "name": "C#4",
                    "midi": 61,
                    "time": 324.9999999999915,
                    "velocity": 0.3937007874015748,
                    "duration": 0.19999999999998863
                },
                {
                    "name": "C4",
                    "midi": 60,
                    "time": 325.19999999999146,
                    "velocity": 0.3937007874015748,
                    "duration": 0.39999999999997726
                },
                {
                    "name": "G#3",
                    "midi": 56,
                    "time": 325.19999999999146,
                    "velocity": 0.2677165354330709,
                    "duration": 1.1999999999999886
                },
                {
                    "name": "D#4",
                    "midi": 63,
                    "time": 325.59999999999144,
                    "velocity": 0.47244094488188976,
                    "duration": 0.8000000000000114
                },
                {
                    "name": "D#3",
                    "midi": 51,
                    "time": 326.39999999999145,
                    "velocity": 0.5196850393700787,
                    "duration": 0.4000000000000341
                },
                {
                    "name": "G#2",
                    "midi": 44,
                    "time": 326.39999999999145,
                    "velocity": 0.4409448818897638,
                    "duration": 1.2000000000000455
                },
                {
                    "name": "G#3",
                    "midi": 56,
                    "time": 326.7999999999915,
                    "velocity": 0.5748031496062992,
                    "duration": 0.6000000000000227
                },
                {
                    "name": "G3",
                    "midi": 55,
                    "time": 327.3999999999915,
                    "velocity": 0.47244094488188976,
                    "duration": 0.19999999999998863
                },
                {
                    "name": "F3",
                    "midi": 53,
                    "time": 327.5999999999915,
                    "velocity": 0.5354330708661418,
                    "duration": 0.39999999999997726
                },
                {
                    "name": "C#3",
                    "midi": 49,
                    "time": 327.5999999999915,
                    "velocity": 0.44881889763779526,
                    "duration": 1.1999999999999886
                },
                {
                    "name": "C#4",
                    "midi": 61,
                    "time": 327.9999999999915,
                    "velocity": 0.5984251968503937,
                    "duration": 0.6000000000000227
                },
                {
                    "name": "C4",
                    "midi": 60,
                    "time": 328.5999999999915,
                    "velocity": 0.5511811023622047,
                    "duration": 0.19999999999998863
                },
                {
                    "name": "A#3",
                    "midi": 58,
                    "time": 328.7999999999915,
                    "velocity": 0.5669291338582677,
                    "duration": 0.4000000000000341
                },
                {
                    "name": "D#3",
                    "midi": 51,
                    "time": 328.7999999999915,
                    "velocity": 0.48031496062992124,
                    "duration": 1.2000000000000455
                },
                {
                    "name": "D#4",
                    "midi": 63,
                    "time": 329.1999999999915,
                    "velocity": 0.6141732283464567,
                    "duration": 0.6000000000000227
                },
                {
                    "name": "C#4",
                    "midi": 61,
                    "time": 329.79999999999154,
                    "velocity": 0.5590551181102362,
                    "duration": 0.19999999999998863
                },
                {
                    "name": "C4",
                    "midi": 60,
                    "time": 329.99999999999153,
                    "velocity": 0.5669291338582677,
                    "duration": 0.4000000000000341
                },
                {
                    "name": "G#3",
                    "midi": 56,
                    "time": 329.99999999999153,
                    "velocity": 0.47244094488188976,
                    "duration": 1.2000000000000455
                },
                {
                    "name": "D#4",
                    "midi": 63,
                    "time": 330.39999999999156,
                    "velocity": 0.6220472440944882,
                    "duration": 0.6000000000000227
                },
                {
                    "name": "C4",
                    "midi": 60,
                    "time": 330.9999999999916,
                    "velocity": 0.5433070866141733,
                    "duration": 0.19999999999998863
                },
                {
                    "name": "A#3",
                    "midi": 58,
                    "time": 331.1999999999916,
                    "velocity": 0.6141732283464567,
                    "duration": 0.4000000000000341
                },
                {
                    "name": "D#3",
                    "midi": 51,
                    "time": 331.1999999999916,
                    "velocity": 0.5196850393700787,
                    "duration": 1.2000000000000455
                },
                {
                    "name": "D#4",
                    "midi": 63,
                    "time": 331.5999999999916,
                    "velocity": 0.6771653543307087,
                    "duration": 0.6000000000000227
                },
                {
                    "name": "C#4",
                    "midi": 61,
                    "time": 332.19999999999163,
                    "velocity": 0.6220472440944882,
                    "duration": 0.19999999999998863
                },
                {
                    "name": "C4",
                    "midi": 60,
                    "time": 332.3999999999916,
                    "velocity": 0.6299212598425197,
                    "duration": 0.4000000000000341
                },
                {
                    "name": "G#3",
                    "midi": 56,
                    "time": 332.3999999999916,
                    "velocity": 0.5275590551181102,
                    "duration": 1.2000000000000455
                },
                {
                    "name": "D#4",
                    "midi": 63,
                    "time": 332.79999999999166,
                    "velocity": 0.6850393700787402,
                    "duration": 0.6000000000000227
                },
                {
                    "name": "C4",
                    "midi": 60,
                    "time": 333.3999999999917,
                    "velocity": 0.6141732283464567,
                    "duration": 0.19999999999998863
                },
                {
                    "name": "F3",
                    "midi": 53,
                    "time": 333.59999999999167,
                    "velocity": 0.48031496062992124,
                    "duration": 1.2000000000000455
                },
                {
                    "name": "C4",
                    "midi": 60,
                    "time": 333.59999999999167,
                    "velocity": 0.5826771653543307,
                    "duration": 0.4000000000000341
                },
                {
                    "name": "F4",
                    "midi": 65,
                    "time": 333.9999999999917,
                    "velocity": 0.6220472440944882,
                    "duration": 0.6000000000000227
                },
                {
                    "name": "D#4",
                    "midi": 63,
                    "time": 334.5999999999917,
                    "velocity": 0.5590551181102362,
                    "duration": 0.19999999999998863
                },
                {
                    "name": "C#4",
                    "midi": 61,
                    "time": 334.7999999999917,
                    "velocity": 0.5984251968503937,
                    "duration": 0.39999999999997726
                },
                {
                    "name": "A#3",
                    "midi": 58,
                    "time": 334.7999999999917,
                    "velocity": 0.4566929133858268,
                    "duration": 1.1999999999999886
                },
                {
                    "name": "F4",
                    "midi": 65,
                    "time": 335.1999999999917,
                    "velocity": 0.6299212598425197,
                    "duration": 0.6000000000000227
                },
                {
                    "name": "C#4",
                    "midi": 61,
                    "time": 335.7999999999917,
                    "velocity": 0.5590551181102362,
                    "duration": 0.19999999999998863
                },
                {
                    "name": "C4",
                    "midi": 60,
                    "time": 335.9999999999917,
                    "velocity": 0.5984251968503937,
                    "duration": 0.39999999999997726
                },
                {
                    "name": "F3",
                    "midi": 53,
                    "time": 335.9999999999917,
                    "velocity": 0.4566929133858268,
                    "duration": 1.1999999999999886
                },
                {
                    "name": "F4",
                    "midi": 65,
                    "time": 336.3999999999917,
                    "velocity": 0.6299212598425197,
                    "duration": 0.6000000000000227
                },
                {
                    "name": "D#4",
                    "midi": 63,
                    "time": 336.9999999999917,
                    "velocity": 0.5590551181102362,
                    "duration": 0.19999999999998863
                },
                {
                    "name": "C#4",
                    "midi": 61,
                    "time": 337.1999999999917,
                    "velocity": 0.5984251968503937,
                    "duration": 0.4000000000000341
                },
                {
                    "name": "A#3",
                    "midi": 58,
                    "time": 337.1999999999917,
                    "velocity": 0.4566929133858268,
                    "duration": 1.2000000000000455
                },
                {
                    "name": "F4",
                    "midi": 65,
                    "time": 337.5999999999917,
                    "velocity": 0.6220472440944882,
                    "duration": 0.6000000000000227
                },
                {
                    "name": "C#4",
                    "midi": 61,
                    "time": 338.19999999999175,
                    "velocity": 0.5590551181102362,
                    "duration": 0.19999999999998863
                },
                {
                    "name": "D#4",
                    "midi": 63,
                    "time": 338.39999999999173,
                    "velocity": 0.5984251968503937,
                    "duration": 0.4000000000000341
                },
                {
                    "name": "G#3",
                    "midi": 56,
                    "time": 338.39999999999173,
                    "velocity": 0.4566929133858268,
                    "duration": 1.2000000000000455
                },
                {
                    "name": "G#4",
                    "midi": 68,
                    "time": 338.79999999999177,
                    "velocity": 0.6299212598425197,
                    "duration": 0.6000000000000227
                },
                {
                    "name": "F#4",
                    "midi": 66,
                    "time": 339.3999999999918,
                    "velocity": 0.5748031496062992,
                    "duration": 0.19999999999998863
                },
                {
                    "name": "C#4",
                    "midi": 61,
                    "time": 339.5999999999918,
                    "velocity": 0.5118110236220472,
                    "duration": 1.2000000000000455
                },
                {
                    "name": "F4",
                    "midi": 65,
                    "time": 339.5999999999918,
                    "velocity": 0.6141732283464567,
                    "duration": 0.4000000000000341
                },
                {
                    "name": "G#4",
                    "midi": 68,
                    "time": 339.9999999999918,
                    "velocity": 0.6377952755905512,
                    "duration": 0.6000000000000227
                },
                {
                    "name": "F4",
                    "midi": 65,
                    "time": 340.59999999999184,
                    "velocity": 0.5669291338582677,
                    "duration": 0.19999999999998863
                },
                {
                    "name": "D#4",
                    "midi": 63,
                    "time": 340.7999999999918,
                    "velocity": 0.5984251968503937,
                    "duration": 0.4000000000000341
                },
                {
                    "name": "G#3",
                    "midi": 56,
                    "time": 340.7999999999918,
                    "velocity": 0.5039370078740157,
                    "duration": 1.2000000000000455
                },
                {
                    "name": "G#4",
                    "midi": 68,
                    "time": 341.19999999999186,
                    "velocity": 0.6456692913385826,
                    "duration": 0.6000000000000227
                },
                {
                    "name": "F#4",
                    "midi": 66,
                    "time": 341.7999999999919,
                    "velocity": 0.5590551181102362,
                    "duration": 0.19999999999998863
                },
                {
                    "name": "F4",
                    "midi": 65,
                    "time": 341.99999999999187,
                    "velocity": 0.6299212598425197,
                    "duration": 0.39999999999997726
                },
                {
                    "name": "C#4",
                    "midi": 61,
                    "time": 341.99999999999187,
                    "velocity": 0.5275590551181102,
                    "duration": 0.39999999999997726
                },
                {
                    "name": "G#4",
                    "midi": 68,
                    "time": 344.39999999999185,
                    "velocity": 0.6929133858267716,
                    "duration": 0.19999999999998863
                },
                {
                    "name": "F4",
                    "midi": 65,
                    "time": 344.7999999999918,
                    "velocity": 0.6614173228346457,
                    "duration": 0.19999999999998863
                },
                {
                    "name": "C#4",
                    "midi": 61,
                    "time": 345.1999999999918,
                    "velocity": 0.6614173228346457,
                    "duration": 0.19999999999998863
                },
                {
                    "name": "G#3",
                    "midi": 56,
                    "time": 345.5999999999918,
                    "velocity": 0.6929133858267716,
                    "duration": 0.19999999999998863
                },
                {
                    "name": "F3",
                    "midi": 53,
                    "time": 345.99999999999176,
                    "velocity": 0.6614173228346457,
                    "duration": 0.19999999999998863
                },
                {
                    "name": "C#3",
                    "midi": 49,
                    "time": 346.39999999999173,
                    "velocity": 0.6614173228346457,
                    "duration": 0.19999999999998863
                },
                {
                    "name": "E3",
                    "midi": 52,
                    "time": 346.7999999999917,
                    "velocity": 0.5511811023622047,
                    "duration": 0.7916666666666856
                },
                {
                    "name": "C#3",
                    "midi": 49,
                    "time": 346.7999999999917,
                    "velocity": 0.4645669291338583,
                    "duration": 0.7925000000000182
                },
                {
                    "name": "A#2",
                    "midi": 46,
                    "time": 346.7999999999917,
                    "velocity": 0.4645669291338583,
                    "duration": 0.7925000000000182
                },
                {
                    "name": "G2",
                    "midi": 43,
                    "time": 346.7999999999917,
                    "velocity": 0.4645669291338583,
                    "duration": 0.7925000000000182
                },
                {
                    "name": "E3",
                    "midi": 52,
                    "time": 347.5999999999917,
                    "velocity": 0.5511811023622047,
                    "duration": 0.7924999999999613
                },
                {
                    "name": "C#3",
                    "midi": 49,
                    "time": 347.5999999999917,
                    "velocity": 0.4645669291338583,
                    "duration": 0.7924999999999613
                },
                {
                    "name": "A#2",
                    "midi": 46,
                    "time": 347.5999999999917,
                    "velocity": 0.4645669291338583,
                    "duration": 0.7924999999999613
                },
                {
                    "name": "G2",
                    "midi": 43,
                    "time": 347.5999999999917,
                    "velocity": 0.4645669291338583,
                    "duration": 0.7924999999999613
                },
                {
                    "name": "E3",
                    "midi": 52,
                    "time": 348.3999999999917,
                    "velocity": 0.5511811023622047,
                    "duration": 0.7924999999999613
                },
                {
                    "name": "C#3",
                    "midi": 49,
                    "time": 348.3999999999917,
                    "velocity": 0.4645669291338583,
                    "duration": 0.7924999999999613
                },
                {
                    "name": "A#2",
                    "midi": 46,
                    "time": 348.3999999999917,
                    "velocity": 0.4645669291338583,
                    "duration": 0.7924999999999613
                },
                {
                    "name": "G2",
                    "midi": 43,
                    "time": 348.3999999999917,
                    "velocity": 0.4645669291338583,
                    "duration": 0.7924999999999613
                },
                {
                    "name": "D#3",
                    "midi": 51,
                    "time": 349.19999999999163,
                    "velocity": 0.5118110236220472,
                    "duration": 0.7925000000000182
                },
                {
                    "name": "C#3",
                    "midi": 49,
                    "time": 349.19999999999163,
                    "velocity": 0.4330708661417323,
                    "duration": 0.7925000000000182
                },
                {
                    "name": "A#2",
                    "midi": 46,
                    "time": 349.19999999999163,
                    "velocity": 0.4330708661417323,
                    "duration": 0.7925000000000182
                },
                {
                    "name": "G2",
                    "midi": 43,
                    "time": 349.19999999999163,
                    "velocity": 0.4330708661417323,
                    "duration": 0.7925000000000182
                },
                {
                    "name": "D#3",
                    "midi": 51,
                    "time": 349.99999999999164,
                    "velocity": 0.4015748031496063,
                    "duration": 0.7924999999999613
                },
                {
                    "name": "C#3",
                    "midi": 49,
                    "time": 349.99999999999164,
                    "velocity": 0.33858267716535434,
                    "duration": 0.7924999999999613
                },
                {
                    "name": "A#2",
                    "midi": 46,
                    "time": 349.99999999999164,
                    "velocity": 0.33858267716535434,
                    "duration": 0.7924999999999613
                },
                {
                    "name": "G2",
                    "midi": 43,
                    "time": 349.99999999999164,
                    "velocity": 0.33858267716535434,
                    "duration": 0.7924999999999613
                },
                {
                    "name": "D#3",
                    "midi": 51,
                    "time": 350.7999999999916,
                    "velocity": 0.3543307086614173,
                    "duration": 0.7924999999999613
                },
                {
                    "name": "C#3",
                    "midi": 49,
                    "time": 350.7999999999916,
                    "velocity": 0.2992125984251969,
                    "duration": 0.7924999999999613
                },
                {
                    "name": "A#2",
                    "midi": 46,
                    "time": 350.7999999999916,
                    "velocity": 0.2992125984251969,
                    "duration": 0.7924999999999613
                },
                {
                    "name": "G2",
                    "midi": 43,
                    "time": 350.7999999999916,
                    "velocity": 0.2992125984251969,
                    "duration": 0.7924999999999613
                },
                {
                    "name": "G#2",
                    "midi": 44,
                    "time": 351.59999999999155,
                    "velocity": 0.31496062992125984,
                    "duration": 0.8000000000000114
                },
                {
                    "name": "C3",
                    "midi": 48,
                    "time": 352.39999999999156,
                    "velocity": 0.31496062992125984,
                    "duration": 0.39999999999997726
                },
                {
                    "name": "C#3",
                    "midi": 49,
                    "time": 352.79999999999154,
                    "velocity": 0.31496062992125984,
                    "duration": 0.39999999999997726
                },
                {
                    "name": "A#2",
                    "midi": 46,
                    "time": 353.1999999999915,
                    "velocity": 0.31496062992125984,
                    "duration": 0.39999999999997726
                },
                {
                    "name": "C#3",
                    "midi": 49,
                    "time": 353.5999999999915,
                    "velocity": 0.31496062992125984,
                    "duration": 0.39999999999997726
                },
                {
                    "name": "D#3",
                    "midi": 51,
                    "time": 353.9999999999915,
                    "velocity": 0.31496062992125984,
                    "duration": 1.1999999999999318
                },
                {
                    "name": "D#2",
                    "midi": 39,
                    "time": 355.1999999999914,
                    "velocity": 0.31496062992125984,
                    "duration": 1.1999999999999318
                },
                {
                    "name": "G#2",
                    "midi": 44,
                    "time": 356.39999999999134,
                    "velocity": 0.31496062992125984,
                    "duration": 0.8000000000000114
                },
                {
                    "name": "C3",
                    "midi": 48,
                    "time": 357.19999999999135,
                    "velocity": 0.31496062992125984,
                    "duration": 0.39999999999997726
                },
                {
                    "name": "C#3",
                    "midi": 49,
                    "time": 357.5999999999913,
                    "velocity": 0.31496062992125984,
                    "duration": 0.39999999999997726
                },
                {
                    "name": "A#2",
                    "midi": 46,
                    "time": 357.9999999999913,
                    "velocity": 0.31496062992125984,
                    "duration": 0.4000000000000341
                },
                {
                    "name": "A#3",
                    "midi": 58,
                    "time": 358.39999999999134,
                    "velocity": 0.31496062992125984,
                    "duration": 0.7999999999999545
                },
                {
                    "name": "C#3",
                    "midi": 49,
                    "time": 358.39999999999134,
                    "velocity": 0.31496062992125984,
                    "duration": 0.39999999999997726
                },
                {
                    "name": "D#3",
                    "midi": 51,
                    "time": 358.7999999999913,
                    "velocity": 0.31496062992125984,
                    "duration": 1.1999999999999318
                },
                {
                    "name": "G#3",
                    "midi": 56,
                    "time": 359.1999999999913,
                    "velocity": 0.31496062992125984,
                    "duration": 0.39999999999997726
                },
                {
                    "name": "G#3",
                    "midi": 56,
                    "time": 359.59999999999127,
                    "velocity": 0.31496062992125984,
                    "duration": 0.7999999999999545
                },
                {
                    "name": "D#3",
                    "midi": 51,
                    "time": 359.99999999999125,
                    "velocity": 0.31496062992125984,
                    "duration": 1.1999999999999318
                },
                {
                    "name": "G3",
                    "midi": 55,
                    "time": 360.3999999999912,
                    "velocity": 0.31496062992125984,
                    "duration": 0.39999999999997726
                },
                {
                    "name": "G3",
                    "midi": 55,
                    "time": 360.7999999999912,
                    "velocity": 0.31496062992125984,
                    "duration": 0.39999999999997726
                },
                {
                    "name": "G#2",
                    "midi": 44,
                    "time": 361.1999999999912,
                    "velocity": 0.3779527559055118,
                    "duration": 0.30000000000001137
                },
                {
                    "name": "F#3",
                    "midi": 54,
                    "time": 361.5999999999912,
                    "velocity": 0.28346456692913385,
                    "duration": 0.7999999999999545
                },
                {
                    "name": "C4",
                    "midi": 60,
                    "time": 361.5999999999912,
                    "velocity": 0.30708661417322836,
                    "duration": 0.7999999999999545
                },
                {
                    "name": "G#3",
                    "midi": 56,
                    "time": 361.5999999999912,
                    "velocity": 0.28346456692913385,
                    "duration": 0.7999999999999545
                },
                {
                    "name": "C#3",
                    "midi": 49,
                    "time": 362.39999999999117,
                    "velocity": 0.3779527559055118,
                    "duration": 0.30000000000001137
                },
                {
                    "name": "C#4",
                    "midi": 61,
                    "time": 362.7999999999912,
                    "velocity": 0.2755905511811024,
                    "duration": 0.8000000000000114
                },
                {
                    "name": "G#3",
                    "midi": 56,
                    "time": 362.7999999999912,
                    "velocity": 0.25196850393700787,
                    "duration": 0.8000000000000114
                },
                {
                    "name": "F3",
                    "midi": 53,
                    "time": 362.7999999999912,
                    "velocity": 0.25196850393700787,
                    "duration": 0.8000000000000114
                },
                {
                    "name": "D#2",
                    "midi": 39,
                    "time": 363.5999999999912,
                    "velocity": 0.3779527559055118,
                    "duration": 0.2999999999999545
                },
                {
                    "name": "D#3",
                    "midi": 51,
                    "time": 363.9999999999912,
                    "velocity": 0.2677165354330709,
                    "duration": 0.8000000000000114
                },
                {
                    "name": "C#4",
                    "midi": 61,
                    "time": 363.9999999999912,
                    "velocity": 0.29133858267716534,
                    "duration": 0.8000000000000114
                },
                {
                    "name": "A#3",
                    "midi": 58,
                    "time": 363.9999999999912,
                    "velocity": 0.2677165354330709,
                    "duration": 0.8000000000000114
                },
                {
                    "name": "G#2",
                    "midi": 44,
                    "time": 364.7999999999912,
                    "velocity": 0.3779527559055118,
                    "duration": 0.30000000000001137
                },
                {
                    "name": "C4",
                    "midi": 60,
                    "time": 365.19999999999123,
                    "velocity": 0.30708661417322836,
                    "duration": 0.8000000000000114
                },
                {
                    "name": "G#3",
                    "midi": 56,
                    "time": 365.19999999999123,
                    "velocity": 0.28346456692913385,
                    "duration": 0.8000000000000114
                },
                {
                    "name": "D#3",
                    "midi": 51,
                    "time": 365.19999999999123,
                    "velocity": 0.28346456692913385,
                    "duration": 0.8000000000000114
                },
                {
                    "name": "G#2",
                    "midi": 44,
                    "time": 365.99999999999125,
                    "velocity": 0.47244094488188976,
                    "duration": 0.30000000000001137
                },
                {
                    "name": "F#3",
                    "midi": 54,
                    "time": 366.3999999999913,
                    "velocity": 0.3543307086614173,
                    "duration": 0.7999999999999545
                },
                {
                    "name": "C4",
                    "midi": 60,
                    "time": 366.3999999999913,
                    "velocity": 0.3858267716535433,
                    "duration": 0.7999999999999545
                },
                {
                    "name": "G#3",
                    "midi": 56,
                    "time": 366.3999999999913,
                    "velocity": 0.3543307086614173,
                    "duration": 0.7999999999999545
                },
                {
                    "name": "C#3",
                    "midi": 49,
                    "time": 367.19999999999123,
                    "velocity": 0.5669291338582677,
                    "duration": 0.30000000000001137
                },
                {
                    "name": "G#3",
                    "midi": 56,
                    "time": 367.59999999999127,
                    "velocity": 0.44881889763779526,
                    "duration": 0.8000000000000114
                },
                {
                    "name": "C#4",
                    "midi": 61,
                    "time": 367.59999999999127,
                    "velocity": 0.4881889763779528,
                    "duration": 0.8000000000000114
                },
                {
                    "name": "F3",
                    "midi": 53,
                    "time": 367.59999999999127,
                    "velocity": 0.44881889763779526,
                    "duration": 0.8000000000000114
                },
                {
                    "name": "D#2",
                    "midi": 39,
                    "time": 368.3999999999913,
                    "velocity": 0.6614173228346457,
                    "duration": 0.30000000000001137
                },
                {
                    "name": "C#4",
                    "midi": 61,
                    "time": 368.7999999999913,
                    "velocity": 0.5748031496062992,
                    "duration": 0.7999999999999545
                },
                {
                    "name": "A#3",
                    "midi": 58,
                    "time": 368.7999999999913,
                    "velocity": 0.5354330708661418,
                    "duration": 0.7999999999999545
                },
                {
                    "name": "D#3",
                    "midi": 51,
                    "time": 368.7999999999913,
                    "velocity": 0.5354330708661418,
                    "duration": 0.7999999999999545
                },
                {
                    "name": "G#2",
                    "midi": 44,
                    "time": 369.59999999999127,
                    "velocity": 0.6929133858267716,
                    "duration": 0.30000000000001137
                },
                {
                    "name": "C4",
                    "midi": 60,
                    "time": 369.9999999999913,
                    "velocity": 0.5984251968503937,
                    "duration": 0.8000000000000114
                },
                {
                    "name": "G#3",
                    "midi": 56,
                    "time": 369.9999999999913,
                    "velocity": 0.5511811023622047,
                    "duration": 0.8000000000000114
                },
                {
                    "name": "D#3",
                    "midi": 51,
                    "time": 369.9999999999913,
                    "velocity": 0.5511811023622047,
                    "duration": 0.8000000000000114
                },
                {
                    "name": "D#3",
                    "midi": 51,
                    "time": 370.7999999999913,
                    "velocity": 0.47244094488188976,
                    "duration": 0.39999999999997726
                },
                {
                    "name": "G#2",
                    "midi": 44,
                    "time": 370.7999999999913,
                    "velocity": 0.3779527559055118,
                    "duration": 1.1999999999999886
                },
                {
                    "name": "G#3",
                    "midi": 56,
                    "time": 371.1999999999913,
                    "velocity": 0.5669291338582677,
                    "duration": 0.6000000000000227
                },
                {
                    "name": "G3",
                    "midi": 55,
                    "time": 371.7999999999913,
                    "velocity": 0.47244094488188976,
                    "duration": 0.19999999999998863
                },
                {
                    "name": "F3",
                    "midi": 53,
                    "time": 371.9999999999913,
                    "velocity": 0.47244094488188976,
                    "duration": 0.39999999999997726
                },
                {
                    "name": "C#3",
                    "midi": 49,
                    "time": 371.9999999999913,
                    "velocity": 0.3779527559055118,
                    "duration": 1.1999999999999886
                },
                {
                    "name": "C#4",
                    "midi": 61,
                    "time": 372.3999999999913,
                    "velocity": 0.5669291338582677,
                    "duration": 0.6000000000000227
                },
                {
                    "name": "C4",
                    "midi": 60,
                    "time": 372.9999999999913,
                    "velocity": 0.47244094488188976,
                    "duration": 0.19999999999998863
                },
                {
                    "name": "A#3",
                    "midi": 58,
                    "time": 373.1999999999913,
                    "velocity": 0.47244094488188976,
                    "duration": 0.4000000000000341
                },
                {
                    "name": "D#3",
                    "midi": 51,
                    "time": 373.1999999999913,
                    "velocity": 0.3779527559055118,
                    "duration": 1.2000000000000455
                },
                {
                    "name": "D#4",
                    "midi": 63,
                    "time": 373.5999999999913,
                    "velocity": 0.5669291338582677,
                    "duration": 0.6000000000000227
                },
                {
                    "name": "C#4",
                    "midi": 61,
                    "time": 374.19999999999135,
                    "velocity": 0.47244094488188976,
                    "duration": 0.19999999999998863
                },
                {
                    "name": "C4",
                    "midi": 60,
                    "time": 374.39999999999134,
                    "velocity": 0.47244094488188976,
                    "duration": 0.4000000000000341
                },
                {
                    "name": "G#3",
                    "midi": 56,
                    "time": 374.39999999999134,
                    "velocity": 0.3779527559055118,
                    "duration": 1.2000000000000455
                },
                {
                    "name": "D#4",
                    "midi": 63,
                    "time": 374.79999999999137,
                    "velocity": 0.5669291338582677,
                    "duration": 0.8000000000000114
                },
                {
                    "name": "D#3",
                    "midi": 51,
                    "time": 375.5999999999914,
                    "velocity": 0.6299212598425197,
                    "duration": 0.39999999999997726
                },
                {
                    "name": "G#2",
                    "midi": 44,
                    "time": 375.5999999999914,
                    "velocity": 0.5354330708661418,
                    "duration": 1.1999999999999886
                },
                {
                    "name": "G#3",
                    "midi": 56,
                    "time": 375.99999999999136,
                    "velocity": 0.6220472440944882,
                    "duration": 0.6000000000000227
                },
                {
                    "name": "G3",
                    "midi": 55,
                    "time": 376.5999999999914,
                    "velocity": 0.5354330708661418,
                    "duration": 0.19999999999998863
                },
                {
                    "name": "F3",
                    "midi": 53,
                    "time": 376.79999999999137,
                    "velocity": 0.5905511811023622,
                    "duration": 0.39999999999997726
                },
                {
                    "name": "C#3",
                    "midi": 49,
                    "time": 376.79999999999137,
                    "velocity": 0.49606299212598426,
                    "duration": 1.1999999999999886
                },
                {
                    "name": "C#4",
                    "midi": 61,
                    "time": 377.19999999999135,
                    "velocity": 0.6220472440944882,
                    "duration": 0.6000000000000227
                },
                {
                    "name": "C4",
                    "midi": 60,
                    "time": 377.79999999999137,
                    "velocity": 0.5354330708661418,
                    "duration": 0.19999999999998863
                },
                {
                    "name": "A#3",
                    "midi": 58,
                    "time": 377.99999999999136,
                    "velocity": 0.6141732283464567,
                    "duration": 0.4000000000000341
                },
                {
                    "name": "D#3",
                    "midi": 51,
                    "time": 377.99999999999136,
                    "velocity": 0.5196850393700787,
                    "duration": 1.2000000000000455
                },
                {
                    "name": "D#4",
                    "midi": 63,
                    "time": 378.3999999999914,
                    "velocity": 0.6692913385826772,
                    "duration": 0.6000000000000227
                },
                {
                    "name": "C#4",
                    "midi": 61,
                    "time": 378.9999999999914,
                    "velocity": 0.5354330708661418,
                    "duration": 0.19999999999998863
                },
                {
                    "name": "C4",
                    "midi": 60,
                    "time": 379.1999999999914,
                    "velocity": 0.6062992125984252,
                    "duration": 0.4000000000000341
                },
                {
                    "name": "G#3",
                    "midi": 56,
                    "time": 379.1999999999914,
                    "velocity": 0.5118110236220472,
                    "duration": 1.2000000000000455
                },
                {
                    "name": "D#4",
                    "midi": 63,
                    "time": 379.59999999999144,
                    "velocity": 0.6692913385826772,
                    "duration": 0.6000000000000227
                },
                {
                    "name": "C4",
                    "midi": 60,
                    "time": 380.19999999999146,
                    "velocity": 0.6062992125984252,
                    "duration": 0.19999999999998863
                },
                {
                    "name": "A#3",
                    "midi": 58,
                    "time": 380.39999999999145,
                    "velocity": 0.6456692913385826,
                    "duration": 0.39999999999997726
                },
                {
                    "name": "D#3",
                    "midi": 51,
                    "time": 380.39999999999145,
                    "velocity": 0.4881889763779528,
                    "duration": 1.1999999999999886
                },
                {
                    "name": "D#4",
                    "midi": 63,
                    "time": 380.7999999999914,
                    "velocity": 0.7086614173228346,
                    "duration": 0.6000000000000227
                },
                {
                    "name": "C#4",
                    "midi": 61,
                    "time": 381.39999999999145,
                    "velocity": 0.6456692913385826,
                    "duration": 0.19999999999998863
                },
                {
                    "name": "C4",
                    "midi": 60,
                    "time": 381.59999999999144,
                    "velocity": 0.7086614173228346,
                    "duration": 0.39999999999997726
                },
                {
                    "name": "G#3",
                    "midi": 56,
                    "time": 381.59999999999144,
                    "velocity": 0.5433070866141733,
                    "duration": 1.1999999999999886
                },
                {
                    "name": "D#4",
                    "midi": 63,
                    "time": 381.9999999999914,
                    "velocity": 0.7401574803149606,
                    "duration": 0.6000000000000227
                },
                {
                    "name": "C4",
                    "midi": 60,
                    "time": 382.59999999999144,
                    "velocity": 0.7086614173228346,
                    "duration": 0.19999999999998863
                },
                {
                    "name": "A#3",
                    "midi": 58,
                    "time": 382.7999999999914,
                    "velocity": 0.7401574803149606,
                    "duration": 0.39999999999997726
                },
                {
                    "name": "D#3",
                    "midi": 51,
                    "time": 382.7999999999914,
                    "velocity": 0.6220472440944882,
                    "duration": 1.1999999999999886
                },
                {
                    "name": "D#4",
                    "midi": 63,
                    "time": 383.1999999999914,
                    "velocity": 0.7559055118110236,
                    "duration": 0.6000000000000227
                },
                {
                    "name": "C#4",
                    "midi": 61,
                    "time": 383.7999999999914,
                    "velocity": 0.7165354330708661,
                    "duration": 0.19999999999998863
                },
                {
                    "name": "G#3",
                    "midi": 56,
                    "time": 383.9999999999914,
                    "velocity": 0.6535433070866141,
                    "duration": 0.4000000000000341
                },
                {
                    "name": "C4",
                    "midi": 60,
                    "time": 383.9999999999914,
                    "velocity": 0.7716535433070866,
                    "duration": 0.4000000000000341
                },
                {
                    "name": "D#4",
                    "midi": 63,
                    "time": 386.39999999999145,
                    "velocity": 0.7716535433070866,
                    "duration": 0.20000000000004547
                },
                {
                    "name": "C4",
                    "midi": 60,
                    "time": 386.7999999999915,
                    "velocity": 0.7559055118110236,
                    "duration": 0.19999999999998863
                },
                {
                    "name": "G#3",
                    "midi": 56,
                    "time": 387.19999999999146,
                    "velocity": 0.7322834645669292,
                    "duration": 0.19999999999998863
                },
                {
                    "name": "D#3",
                    "midi": 51,
                    "time": 387.59999999999144,
                    "velocity": 0.7165354330708661,
                    "duration": 0.19999999999998863
                },
                {
                    "name": "C3",
                    "midi": 48,
                    "time": 387.9999999999914,
                    "velocity": 0.6929133858267716,
                    "duration": 0.19999999999998863
                },
                {
                    "name": "D#3",
                    "midi": 51,
                    "time": 388.3999999999914,
                    "velocity": 0.6692913385826772,
                    "duration": 0.19999999999998863
                },
                {
                    "name": "G#2",
                    "midi": 44,
                    "time": 388.79999999999137,
                    "velocity": 0.6456692913385826,
                    "duration": 0.4000000000000341
                },
                {
                    "name": "D#2",
                    "midi": 39,
                    "time": 389.99999999999136,
                    "velocity": 0.7165354330708661,
                    "duration": 0.4000000000000341
                },
                {
                    "name": "D#3",
                    "midi": 51,
                    "time": 389.99999999999136,
                    "velocity": 0.7165354330708661,
                    "duration": 0.4000000000000341
                },
                {
                    "name": "G#1",
                    "midi": 32,
                    "time": 391.19999999999135,
                    "velocity": 0.6929133858267716,
                    "duration": 0.39999999999997726
                },
                {
                    "name": "G#2",
                    "midi": 44,
                    "time": 391.19999999999135,
                    "velocity": 0.6929133858267716,
                    "duration": 0.39999999999997726
                }
            ],
            "controlChanges": {
                "7": [
                    {
                        "number": 7,
                        "time": 0,
                        "value": 0.7874015748031497
                    }
                ],
                "10": [
                    {
                        "number": 10,
                        "time": 0,
                        "value": 0.5039370078740157
                    }
                ],
                "64": [
                    {
                        "number": 64,
                        "time": 0.013333333333333336,
                        "value": 1
                    },
                    {
                        "number": 64,
                        "time": 2.0433333333333334,
                        "value": 0
                    },
                    {
                        "number": 64,
                        "time": 2.4133333333333336,
                        "value": 1
                    },
                    {
                        "number": 64,
                        "time": 4.430000000000001,
                        "value": 0
                    },
                    {
                        "number": 64,
                        "time": 7.257499999999998,
                        "value": 1
                    },
                    {
                        "number": 64,
                        "time": 9.224999999999998,
                        "value": 0
                    },
                    {
                        "number": 64,
                        "time": 9.623333333333331,
                        "value": 1
                    },
                    {
                        "number": 64,
                        "time": 11.61333333333333,
                        "value": 0
                    },
                    {
                        "number": 64,
                        "time": 14.399999999999999,
                        "value": 1
                    },
                    {
                        "number": 64,
                        "time": 16.409166666666664,
                        "value": 0
                    },
                    {
                        "number": 64,
                        "time": 16.83,
                        "value": 1
                    },
                    {
                        "number": 64,
                        "time": 18.80666666666667,
                        "value": 0
                    },
                    {
                        "number": 64,
                        "time": 21.666666666666657,
                        "value": 1
                    },
                    {
                        "number": 64,
                        "time": 23.609166666666656,
                        "value": 0
                    },
                    {
                        "number": 64,
                        "time": 24.02999999999999,
                        "value": 1
                    },
                    {
                        "number": 64,
                        "time": 26.00916666666666,
                        "value": 0
                    },
                    {
                        "number": 64,
                        "time": 36.07083333333336,
                        "value": 1
                    },
                    {
                        "number": 64,
                        "time": 38.005833333333364,
                        "value": 0
                    },
                    {
                        "number": 64,
                        "time": 38.4166666666667,
                        "value": 1
                    },
                    {
                        "number": 64,
                        "time": 40.4066666666667,
                        "value": 0
                    },
                    {
                        "number": 64,
                        "time": 40.816666666666706,
                        "value": 1
                    },
                    {
                        "number": 64,
                        "time": 42.81000000000004,
                        "value": 0
                    },
                    {
                        "number": 64,
                        "time": 43.22333333333337,
                        "value": 1
                    },
                    {
                        "number": 64,
                        "time": 45.20833333333337,
                        "value": 0
                    },
                    {
                        "number": 64,
                        "time": 45.61666666666671,
                        "value": 1
                    },
                    {
                        "number": 64,
                        "time": 46.47666666666671,
                        "value": 0
                    },
                    {
                        "number": 64,
                        "time": 46.80000000000004,
                        "value": 1
                    },
                    {
                        "number": 64,
                        "time": 47.67000000000004,
                        "value": 0
                    },
                    {
                        "number": 64,
                        "time": 48.036666666666704,
                        "value": 1
                    },
                    {
                        "number": 64,
                        "time": 48.886666666666706,
                        "value": 0
                    },
                    {
                        "number": 64,
                        "time": 49.23000000000004,
                        "value": 1
                    },
                    {
                        "number": 64,
                        "time": 50.06333333333337,
                        "value": 0
                    },
                    {
                        "number": 64,
                        "time": 50.42333333333337,
                        "value": 1
                    },
                    {
                        "number": 64,
                        "time": 51.27000000000003,
                        "value": 0
                    },
                    {
                        "number": 64,
                        "time": 51.60000000000003,
                        "value": 1
                    },
                    {
                        "number": 64,
                        "time": 52.46333333333336,
                        "value": 0
                    },
                    {
                        "number": 64,
                        "time": 52.81333333333336,
                        "value": 1
                    },
                    {
                        "number": 64,
                        "time": 53.613333333333365,
                        "value": 0
                    },
                    {
                        "number": 64,
                        "time": 54.02333333333336,
                        "value": 1
                    },
                    {
                        "number": 64,
                        "time": 54.88666666666669,
                        "value": 0
                    },
                    {
                        "number": 64,
                        "time": 55.21666666666669,
                        "value": 1
                    },
                    {
                        "number": 64,
                        "time": 56.40500000000003,
                        "value": 0
                    },
                    {
                        "number": 64,
                        "time": 56.52333333333336,
                        "value": 1
                    },
                    {
                        "number": 64,
                        "time": 57.60000000000003,
                        "value": 0
                    },
                    {
                        "number": 64,
                        "time": 57.71750000000003,
                        "value": 1
                    },
                    {
                        "number": 64,
                        "time": 58.80333333333336,
                        "value": 0
                    },
                    {
                        "number": 64,
                        "time": 58.876666666666694,
                        "value": 1
                    },
                    {
                        "number": 64,
                        "time": 59.67000000000002,
                        "value": 0
                    },
                    {
                        "number": 64,
                        "time": 60.01333333333336,
                        "value": 1
                    },
                    {
                        "number": 64,
                        "time": 61.204166666666694,
                        "value": 0
                    },
                    {
                        "number": 64,
                        "time": 61.33000000000003,
                        "value": 1
                    },
                    {
                        "number": 64,
                        "time": 62.40500000000004,
                        "value": 0
                    },
                    {
                        "number": 64,
                        "time": 62.511666666666706,
                        "value": 1
                    },
                    {
                        "number": 64,
                        "time": 63.603333333333374,
                        "value": 0
                    },
                    {
                        "number": 64,
                        "time": 63.70583333333337,
                        "value": 1
                    },
                    {
                        "number": 64,
                        "time": 64.80250000000004,
                        "value": 0
                    },
                    {
                        "number": 64,
                        "time": 64.90583333333338,
                        "value": 1
                    },
                    {
                        "number": 64,
                        "time": 66.00333333333337,
                        "value": 0
                    },
                    {
                        "number": 64,
                        "time": 66.10583333333338,
                        "value": 1
                    },
                    {
                        "number": 64,
                        "time": 67.20250000000004,
                        "value": 0
                    },
                    {
                        "number": 64,
                        "time": 67.31416666666671,
                        "value": 1
                    },
                    {
                        "number": 64,
                        "time": 68.40333333333336,
                        "value": 0
                    },
                    {
                        "number": 64,
                        "time": 68.50000000000003,
                        "value": 1
                    },
                    {
                        "number": 64,
                        "time": 69.60333333333335,
                        "value": 0
                    },
                    {
                        "number": 64,
                        "time": 69.68583333333335,
                        "value": 1
                    },
                    {
                        "number": 64,
                        "time": 70.805,
                        "value": 0
                    },
                    {
                        "number": 64,
                        "time": 70.89416666666668,
                        "value": 1
                    },
                    {
                        "number": 64,
                        "time": 72.00500000000001,
                        "value": 0
                    },
                    {
                        "number": 64,
                        "time": 72.13000000000001,
                        "value": 1
                    },
                    {
                        "number": 64,
                        "time": 73.2025,
                        "value": 0
                    },
                    {
                        "number": 64,
                        "time": 73.3175,
                        "value": 1
                    },
                    {
                        "number": 64,
                        "time": 74.40499999999999,
                        "value": 0
                    },
                    {
                        "number": 64,
                        "time": 74.51166666666666,
                        "value": 1
                    },
                    {
                        "number": 64,
                        "time": 75.60333333333331,
                        "value": 0
                    },
                    {
                        "number": 64,
                        "time": 75.74166666666665,
                        "value": 1
                    },
                    {
                        "number": 64,
                        "time": 78.00333333333332,
                        "value": 0
                    },
                    {
                        "number": 64,
                        "time": 78.11166666666665,
                        "value": 1
                    },
                    {
                        "number": 64,
                        "time": 80.40916666666669,
                        "value": 0
                    },
                    {
                        "number": 64,
                        "time": 80.51916666666669,
                        "value": 1
                    },
                    {
                        "number": 64,
                        "time": 81.20583333333335,
                        "value": 0
                    },
                    {
                        "number": 64,
                        "time": 81.28583333333334,
                        "value": 1
                    },
                    {
                        "number": 64,
                        "time": 82.01083333333334,
                        "value": 0
                    },
                    {
                        "number": 64,
                        "time": 82.09083333333334,
                        "value": 1
                    },
                    {
                        "number": 64,
                        "time": 82.80499999999999,
                        "value": 0
                    },
                    {
                        "number": 64,
                        "time": 82.88833333333332,
                        "value": 1
                    },
                    {
                        "number": 64,
                        "time": 83.60083333333331,
                        "value": 0
                    },
                    {
                        "number": 64,
                        "time": 83.69999999999997,
                        "value": 1
                    },
                    {
                        "number": 64,
                        "time": 84.41166666666663,
                        "value": 0
                    },
                    {
                        "number": 64,
                        "time": 84.49999999999997,
                        "value": 1
                    },
                    {
                        "number": 64,
                        "time": 85.19999999999997,
                        "value": 0
                    },
                    {
                        "number": 64,
                        "time": 85.27666666666664,
                        "value": 1
                    },
                    {
                        "number": 64,
                        "time": 85.60999999999997,
                        "value": 0
                    },
                    {
                        "number": 64,
                        "time": 85.69999999999997,
                        "value": 1
                    },
                    {
                        "number": 64,
                        "time": 86.00999999999998,
                        "value": 0
                    },
                    {
                        "number": 64,
                        "time": 86.09416666666664,
                        "value": 1
                    },
                    {
                        "number": 64,
                        "time": 86.40416666666664,
                        "value": 0
                    },
                    {
                        "number": 64,
                        "time": 86.4708333333333,
                        "value": 1
                    },
                    {
                        "number": 64,
                        "time": 86.81166666666664,
                        "value": 0
                    },
                    {
                        "number": 64,
                        "time": 86.89416666666664,
                        "value": 1
                    },
                    {
                        "number": 64,
                        "time": 87.20999999999998,
                        "value": 0
                    },
                    {
                        "number": 64,
                        "time": 87.27666666666664,
                        "value": 1
                    },
                    {
                        "number": 64,
                        "time": 87.61083333333332,
                        "value": 0
                    },
                    {
                        "number": 64,
                        "time": 87.70583333333332,
                        "value": 1
                    },
                    {
                        "number": 64,
                        "time": 88.01249999999999,
                        "value": 0
                    },
                    {
                        "number": 64,
                        "time": 88.1,
                        "value": 1
                    },
                    {
                        "number": 64,
                        "time": 88.41,
                        "value": 0
                    },
                    {
                        "number": 64,
                        "time": 88.47666666666666,
                        "value": 1
                    },
                    {
                        "number": 64,
                        "time": 88.80499999999999,
                        "value": 0
                    },
                    {
                        "number": 64,
                        "time": 88.87666666666667,
                        "value": 1
                    },
                    {
                        "number": 64,
                        "time": 89.21,
                        "value": 0
                    },
                    {
                        "number": 64,
                        "time": 89.28833333333333,
                        "value": 1
                    },
                    {
                        "number": 64,
                        "time": 89.61,
                        "value": 0
                    },
                    {
                        "number": 64,
                        "time": 89.67666666666666,
                        "value": 1
                    },
                    {
                        "number": 64,
                        "time": 90.00666666666666,
                        "value": 0
                    },
                    {
                        "number": 64,
                        "time": 90.07083333333333,
                        "value": 1
                    },
                    {
                        "number": 64,
                        "time": 90.41166666666666,
                        "value": 0
                    },
                    {
                        "number": 64,
                        "time": 90.48833333333333,
                        "value": 1
                    },
                    {
                        "number": 64,
                        "time": 90.81166666666667,
                        "value": 0
                    },
                    {
                        "number": 64,
                        "time": 90.89416666666666,
                        "value": 1
                    },
                    {
                        "number": 64,
                        "time": 91.205,
                        "value": 0
                    },
                    {
                        "number": 64,
                        "time": 91.2825,
                        "value": 1
                    },
                    {
                        "number": 64,
                        "time": 91.61166666666666,
                        "value": 0
                    },
                    {
                        "number": 64,
                        "time": 91.67666666666666,
                        "value": 1
                    },
                    {
                        "number": 64,
                        "time": 92.0075,
                        "value": 0
                    },
                    {
                        "number": 64,
                        "time": 92.08833333333332,
                        "value": 1
                    },
                    {
                        "number": 64,
                        "time": 92.39999999999999,
                        "value": 0
                    },
                    {
                        "number": 64,
                        "time": 92.48249999999999,
                        "value": 1
                    },
                    {
                        "number": 64,
                        "time": 92.81166666666665,
                        "value": 0
                    },
                    {
                        "number": 64,
                        "time": 92.8825,
                        "value": 1
                    },
                    {
                        "number": 64,
                        "time": 93.21,
                        "value": 0
                    },
                    {
                        "number": 64,
                        "time": 93.28833333333333,
                        "value": 1
                    },
                    {
                        "number": 64,
                        "time": 93.61083333333333,
                        "value": 0
                    },
                    {
                        "number": 64,
                        "time": 93.6825,
                        "value": 1
                    },
                    {
                        "number": 64,
                        "time": 94.01166666666667,
                        "value": 0
                    },
                    {
                        "number": 64,
                        "time": 94.09416666666667,
                        "value": 1
                    },
                    {
                        "number": 64,
                        "time": 94.41000000000001,
                        "value": 0
                    },
                    {
                        "number": 64,
                        "time": 94.50583333333334,
                        "value": 1
                    },
                    {
                        "number": 64,
                        "time": 94.80000000000001,
                        "value": 0
                    },
                    {
                        "number": 64,
                        "time": 94.92333333333335,
                        "value": 1
                    },
                    {
                        "number": 64,
                        "time": 95.75333333333333,
                        "value": 0
                    },
                    {
                        "number": 64,
                        "time": 96.00666666666666,
                        "value": 1
                    },
                    {
                        "number": 64,
                        "time": 96.92333333333332,
                        "value": 0
                    },
                    {
                        "number": 64,
                        "time": 97.21333333333332,
                        "value": 1
                    },
                    {
                        "number": 64,
                        "time": 98.08249999999998,
                        "value": 0
                    },
                    {
                        "number": 64,
                        "time": 98.41666666666664,
                        "value": 1
                    },
                    {
                        "number": 64,
                        "time": 99.28249999999997,
                        "value": 0
                    },
                    {
                        "number": 64,
                        "time": 99.61666666666663,
                        "value": 1
                    },
                    {
                        "number": 64,
                        "time": 100.55916666666663,
                        "value": 0
                    },
                    {
                        "number": 64,
                        "time": 100.81333333333329,
                        "value": 1
                    },
                    {
                        "number": 64,
                        "time": 101.76499999999994,
                        "value": 0
                    },
                    {
                        "number": 64,
                        "time": 102.02333333333327,
                        "value": 1
                    },
                    {
                        "number": 64,
                        "time": 102.97083333333327,
                        "value": 0
                    },
                    {
                        "number": 64,
                        "time": 103.21666666666661,
                        "value": 1
                    },
                    {
                        "number": 64,
                        "time": 104.11749999999994,
                        "value": 0
                    },
                    {
                        "number": 64,
                        "time": 104.42333333333326,
                        "value": 1
                    },
                    {
                        "number": 64,
                        "time": 105.60583333333325,
                        "value": 0
                    },
                    {
                        "number": 64,
                        "time": 105.72333333333326,
                        "value": 1
                    },
                    {
                        "number": 64,
                        "time": 106.80499999999992,
                        "value": 0
                    },
                    {
                        "number": 64,
                        "time": 106.92999999999992,
                        "value": 1
                    },
                    {
                        "number": 64,
                        "time": 108.00666666666658,
                        "value": 0
                    },
                    {
                        "number": 64,
                        "time": 108.12333333333324,
                        "value": 1
                    },
                    {
                        "number": 64,
                        "time": 108.97666666666657,
                        "value": 0
                    },
                    {
                        "number": 64,
                        "time": 109.21666666666657,
                        "value": 1
                    },
                    {
                        "number": 64,
                        "time": 110.40416666666657,
                        "value": 0
                    },
                    {
                        "number": 64,
                        "time": 110.52333333333324,
                        "value": 1
                    },
                    {
                        "number": 64,
                        "time": 111.60416666666657,
                        "value": 0
                    },
                    {
                        "number": 64,
                        "time": 111.7174999999999,
                        "value": 1
                    },
                    {
                        "number": 64,
                        "time": 112.8049999999999,
                        "value": 0
                    },
                    {
                        "number": 64,
                        "time": 112.92333333333323,
                        "value": 1
                    },
                    {
                        "number": 64,
                        "time": 114.0049999999999,
                        "value": 0
                    },
                    {
                        "number": 64,
                        "time": 114.09416666666657,
                        "value": 1
                    },
                    {
                        "number": 64,
                        "time": 115.2049999999999,
                        "value": 0
                    },
                    {
                        "number": 64,
                        "time": 115.34166666666657,
                        "value": 1
                    },
                    {
                        "number": 64,
                        "time": 116.40666666666657,
                        "value": 0
                    },
                    {
                        "number": 64,
                        "time": 116.5299999999999,
                        "value": 1
                    },
                    {
                        "number": 64,
                        "time": 117.60333333333323,
                        "value": 0
                    },
                    {
                        "number": 64,
                        "time": 117.69999999999989,
                        "value": 1
                    },
                    {
                        "number": 64,
                        "time": 119.99999999999989,
                        "value": 0
                    },
                    {
                        "number": 64,
                        "time": 120.12333333333322,
                        "value": 1
                    },
                    {
                        "number": 64,
                        "time": 122.40499999999992,
                        "value": 0
                    },
                    {
                        "number": 64,
                        "time": 122.48833333333324,
                        "value": 1
                    },
                    {
                        "number": 64,
                        "time": 124.80416666666657,
                        "value": 0
                    },
                    {
                        "number": 64,
                        "time": 124.8999999999999,
                        "value": 1
                    },
                    {
                        "number": 64,
                        "time": 127.20166666666657,
                        "value": 0
                    },
                    {
                        "number": 64,
                        "time": 127.38833333333324,
                        "value": 0.9921259842519685
                    },
                    {
                        "number": 64,
                        "time": 128.40333333333322,
                        "value": 0
                    },
                    {
                        "number": 64,
                        "time": 128.50583333333321,
                        "value": 1
                    },
                    {
                        "number": 64,
                        "time": 129.60333333333315,
                        "value": 0
                    },
                    {
                        "number": 64,
                        "time": 129.68583333333316,
                        "value": 0.9921259842519685
                    },
                    {
                        "number": 64,
                        "time": 130.80249999999975,
                        "value": 0
                    },
                    {
                        "number": 64,
                        "time": 130.90583333333308,
                        "value": 1
                    },
                    {
                        "number": 64,
                        "time": 132.00249999999969,
                        "value": 0
                    },
                    {
                        "number": 64,
                        "time": 132.12999999999968,
                        "value": 0.9921259842519685
                    },
                    {
                        "number": 64,
                        "time": 133.19999999999962,
                        "value": 0.007874015748031496
                    },
                    {
                        "number": 64,
                        "time": 133.30583333333294,
                        "value": 1
                    },
                    {
                        "number": 64,
                        "time": 134.39999999999955,
                        "value": 0
                    },
                    {
                        "number": 64,
                        "time": 134.59999999999954,
                        "value": 0.9921259842519685
                    },
                    {
                        "number": 64,
                        "time": 135.60249999999948,
                        "value": 0
                    },
                    {
                        "number": 64,
                        "time": 135.68583333333282,
                        "value": 1
                    },
                    {
                        "number": 64,
                        "time": 136.80333333333274,
                        "value": 0
                    },
                    {
                        "number": 64,
                        "time": 136.88583333333276,
                        "value": 0.9763779527559056
                    },
                    {
                        "number": 64,
                        "time": 137.21166666666605,
                        "value": 0
                    },
                    {
                        "number": 64,
                        "time": 137.3624999999994,
                        "value": 0.9763779527559056
                    },
                    {
                        "number": 64,
                        "time": 139.20249999999928,
                        "value": 0
                    },
                    {
                        "number": 64,
                        "time": 139.30499999999927,
                        "value": 0.9921259842519685
                    },
                    {
                        "number": 64,
                        "time": 139.61083333333258,
                        "value": 0
                    },
                    {
                        "number": 64,
                        "time": 139.76249999999925,
                        "value": 0.9763779527559056
                    },
                    {
                        "number": 64,
                        "time": 140.80583333333252,
                        "value": 0
                    },
                    {
                        "number": 64,
                        "time": 140.89583333333252,
                        "value": 0.9921259842519685
                    },
                    {
                        "number": 64,
                        "time": 141.6041666666658,
                        "value": 0
                    },
                    {
                        "number": 64,
                        "time": 141.68249999999915,
                        "value": 1
                    },
                    {
                        "number": 64,
                        "time": 142.01666666666583,
                        "value": 0
                    },
                    {
                        "number": 64,
                        "time": 142.15333333333248,
                        "value": 1
                    },
                    {
                        "number": 64,
                        "time": 142.8049999999991,
                        "value": 0
                    },
                    {
                        "number": 64,
                        "time": 142.87583333333242,
                        "value": 0.9921259842519685
                    },
                    {
                        "number": 64,
                        "time": 143.21833333333242,
                        "value": 0
                    },
                    {
                        "number": 64,
                        "time": 143.29666666666577,
                        "value": 0.9921259842519685
                    },
                    {
                        "number": 64,
                        "time": 144.00499999999906,
                        "value": 0
                    },
                    {
                        "number": 64,
                        "time": 144.12999999999906,
                        "value": 1
                    },
                    {
                        "number": 64,
                        "time": 145.20666666666565,
                        "value": 0
                    },
                    {
                        "number": 64,
                        "time": 145.30499999999898,
                        "value": 1
                    },
                    {
                        "number": 64,
                        "time": 146.4041666666656,
                        "value": 0
                    },
                    {
                        "number": 64,
                        "time": 146.55333333333226,
                        "value": 0.9921259842519685
                    },
                    {
                        "number": 64,
                        "time": 147.60499999999885,
                        "value": 0
                    },
                    {
                        "number": 64,
                        "time": 147.72999999999885,
                        "value": 0.9921259842519685
                    },
                    {
                        "number": 64,
                        "time": 148.80666666666545,
                        "value": 0
                    },
                    {
                        "number": 64,
                        "time": 148.97166666666544,
                        "value": 0.9921259842519685
                    },
                    {
                        "number": 64,
                        "time": 150.00416666666538,
                        "value": 0
                    },
                    {
                        "number": 64,
                        "time": 150.15333333333206,
                        "value": 0.9921259842519685
                    },
                    {
                        "number": 64,
                        "time": 151.20333333333198,
                        "value": 0
                    },
                    {
                        "number": 64,
                        "time": 151.37666666666533,
                        "value": 0.9921259842519685
                    },
                    {
                        "number": 64,
                        "time": 152.40499999999858,
                        "value": 0.007874015748031496
                    },
                    {
                        "number": 64,
                        "time": 152.5058333333319,
                        "value": 0.9921259842519685
                    },
                    {
                        "number": 64,
                        "time": 153.60416666666518,
                        "value": 0
                    },
                    {
                        "number": 64,
                        "time": 153.7649999999985,
                        "value": 0.9921259842519685
                    },
                    {
                        "number": 64,
                        "time": 154.80499999999844,
                        "value": 0
                    },
                    {
                        "number": 64,
                        "time": 154.93333333333177,
                        "value": 0.9921259842519685
                    },
                    {
                        "number": 64,
                        "time": 156.00416666666504,
                        "value": 0
                    },
                    {
                        "number": 64,
                        "time": 156.0958333333317,
                        "value": 0.9763779527559056
                    },
                    {
                        "number": 64,
                        "time": 156.40999999999835,
                        "value": 0
                    },
                    {
                        "number": 64,
                        "time": 156.56249999999835,
                        "value": 0.9921259842519685
                    },
                    {
                        "number": 64,
                        "time": 158.40249999999824,
                        "value": 0
                    },
                    {
                        "number": 64,
                        "time": 158.5241666666649,
                        "value": 0.9921259842519685
                    },
                    {
                        "number": 64,
                        "time": 158.80416666666488,
                        "value": 0
                    },
                    {
                        "number": 64,
                        "time": 158.93333333333155,
                        "value": 0.9921259842519685
                    },
                    {
                        "number": 64,
                        "time": 160.00333333333148,
                        "value": 0
                    },
                    {
                        "number": 64,
                        "time": 160.1716666666648,
                        "value": 0.9921259842519685
                    },
                    {
                        "number": 64,
                        "time": 160.80583333333144,
                        "value": 0
                    },
                    {
                        "number": 64,
                        "time": 160.94166666666476,
                        "value": 0.9921259842519685
                    },
                    {
                        "number": 64,
                        "time": 162.0041666666647,
                        "value": 0
                    },
                    {
                        "number": 64,
                        "time": 162.0966666666647,
                        "value": 0.9921259842519685
                    },
                    {
                        "number": 64,
                        "time": 162.41166666666467,
                        "value": 0
                    },
                    {
                        "number": 64,
                        "time": 162.49666666666468,
                        "value": 1
                    },
                    {
                        "number": 64,
                        "time": 163.20249999999797,
                        "value": 0
                    },
                    {
                        "number": 64,
                        "time": 163.3883333333313,
                        "value": 1
                    },
                    {
                        "number": 64,
                        "time": 165.59999999999783,
                        "value": 0
                    },
                    {
                        "number": 64,
                        "time": 165.7241666666645,
                        "value": 0.984251968503937
                    },
                    {
                        "number": 64,
                        "time": 166.0099999999978,
                        "value": 0.007874015748031496
                    },
                    {
                        "number": 64,
                        "time": 166.12416666666448,
                        "value": 0.9921259842519685
                    },
                    {
                        "number": 64,
                        "time": 168.0024999999977,
                        "value": 0
                    },
                    {
                        "number": 64,
                        "time": 168.21166666666434,
                        "value": 1
                    },
                    {
                        "number": 64,
                        "time": 170.4033333333309,
                        "value": 0
                    },
                    {
                        "number": 64,
                        "time": 170.5333333333309,
                        "value": 0.984251968503937
                    },
                    {
                        "number": 64,
                        "time": 170.8091666666642,
                        "value": 0
                    },
                    {
                        "number": 64,
                        "time": 170.9716666666642,
                        "value": 0.9921259842519685
                    },
                    {
                        "number": 64,
                        "time": 172.00999999999746,
                        "value": 0
                    },
                    {
                        "number": 64,
                        "time": 172.11749999999745,
                        "value": 0.9921259842519685
                    },
                    {
                        "number": 64,
                        "time": 172.8049999999974,
                        "value": 0
                    },
                    {
                        "number": 64,
                        "time": 172.99999999999739,
                        "value": 0.9921259842519685
                    },
                    {
                        "number": 64,
                        "time": 175.20499999999726,
                        "value": 0
                    },
                    {
                        "number": 64,
                        "time": 175.3141666666639,
                        "value": 0.9763779527559056
                    },
                    {
                        "number": 64,
                        "time": 175.6099999999972,
                        "value": 0
                    },
                    {
                        "number": 64,
                        "time": 175.78083333333052,
                        "value": 0.9921259842519685
                    },
                    {
                        "number": 64,
                        "time": 176.8099999999971,
                        "value": 0
                    },
                    {
                        "number": 64,
                        "time": 176.95249999999712,
                        "value": 0.9921259842519685
                    },
                    {
                        "number": 64,
                        "time": 177.60249999999706,
                        "value": 0
                    },
                    {
                        "number": 64,
                        "time": 177.84749999999707,
                        "value": 1
                    },
                    {
                        "number": 64,
                        "time": 180.00249999999696,
                        "value": 0
                    },
                    {
                        "number": 64,
                        "time": 180.11416666666364,
                        "value": 0.984251968503937
                    },
                    {
                        "number": 64,
                        "time": 180.40333333333027,
                        "value": 0
                    },
                    {
                        "number": 64,
                        "time": 180.5241666666636,
                        "value": 1
                    },
                    {
                        "number": 64,
                        "time": 181.60999999999686,
                        "value": 0
                    },
                    {
                        "number": 64,
                        "time": 181.72416666666354,
                        "value": 1
                    },
                    {
                        "number": 64,
                        "time": 182.40416666666349,
                        "value": 0
                    },
                    {
                        "number": 64,
                        "time": 182.62333333333015,
                        "value": 0.984251968503937
                    },
                    {
                        "number": 64,
                        "time": 183.60499999999675,
                        "value": 0
                    },
                    {
                        "number": 64,
                        "time": 183.76249999999675,
                        "value": 0.9921259842519685
                    },
                    {
                        "number": 64,
                        "time": 184.80499999999668,
                        "value": 0
                    },
                    {
                        "number": 64,
                        "time": 184.93333333333,
                        "value": 0.9921259842519685
                    },
                    {
                        "number": 64,
                        "time": 186.00416666666328,
                        "value": 0
                    },
                    {
                        "number": 64,
                        "time": 186.12416666666329,
                        "value": 0.984251968503937
                    },
                    {
                        "number": 64,
                        "time": 187.20333333332988,
                        "value": 0
                    },
                    {
                        "number": 64,
                        "time": 187.3716666666632,
                        "value": 0.9921259842519685
                    },
                    {
                        "number": 64,
                        "time": 188.40416666666314,
                        "value": 0
                    },
                    {
                        "number": 64,
                        "time": 188.52999999999648,
                        "value": 0.984251968503937
                    },
                    {
                        "number": 64,
                        "time": 189.60416666666308,
                        "value": 0
                    },
                    {
                        "number": 64,
                        "time": 189.7624999999964,
                        "value": 0.9921259842519685
                    },
                    {
                        "number": 64,
                        "time": 190.806666666663,
                        "value": 0.007874015748031496
                    },
                    {
                        "number": 64,
                        "time": 190.94333333332966,
                        "value": 0.984251968503937
                    },
                    {
                        "number": 64,
                        "time": 192.00583333332958,
                        "value": 0
                    },
                    {
                        "number": 64,
                        "time": 192.22333333332958,
                        "value": 0.9921259842519685
                    },
                    {
                        "number": 64,
                        "time": 193.20749999999617,
                        "value": 0
                    },
                    {
                        "number": 64,
                        "time": 193.32416666666285,
                        "value": 0.984251968503937
                    },
                    {
                        "number": 64,
                        "time": 194.40333333332944,
                        "value": 0
                    },
                    {
                        "number": 64,
                        "time": 194.55249999999612,
                        "value": 0.9763779527559056
                    },
                    {
                        "number": 64,
                        "time": 194.80999999999608,
                        "value": 0
                    },
                    {
                        "number": 64,
                        "time": 194.9524999999961,
                        "value": 0.984251968503937
                    },
                    {
                        "number": 64,
                        "time": 196.8033333333293,
                        "value": 0
                    },
                    {
                        "number": 64,
                        "time": 196.8958333333293,
                        "value": 0.9921259842519685
                    },
                    {
                        "number": 64,
                        "time": 197.1633333333293,
                        "value": 0
                    },
                    {
                        "number": 64,
                        "time": 197.25666666666262,
                        "value": 0.984251968503937
                    },
                    {
                        "number": 64,
                        "time": 198.40916666666254,
                        "value": 0
                    },
                    {
                        "number": 64,
                        "time": 198.52416666666255,
                        "value": 0.984251968503937
                    },
                    {
                        "number": 64,
                        "time": 199.2041666666625,
                        "value": 0
                    },
                    {
                        "number": 64,
                        "time": 199.30499999999583,
                        "value": 0.9921259842519685
                    },
                    {
                        "number": 64,
                        "time": 199.6149999999958,
                        "value": 0
                    },
                    {
                        "number": 64,
                        "time": 199.7524999999958,
                        "value": 0.9921259842519685
                    },
                    {
                        "number": 64,
                        "time": 200.8074999999957,
                        "value": 0
                    },
                    {
                        "number": 64,
                        "time": 200.89583333332905,
                        "value": 0.9921259842519685
                    },
                    {
                        "number": 64,
                        "time": 201.60416666666234,
                        "value": 0
                    },
                    {
                        "number": 64,
                        "time": 201.68583333332901,
                        "value": 0.9921259842519685
                    },
                    {
                        "number": 64,
                        "time": 202.01833333332902,
                        "value": 0
                    },
                    {
                        "number": 64,
                        "time": 202.1624999999957,
                        "value": 0.9921259842519685
                    },
                    {
                        "number": 64,
                        "time": 203.20499999999564,
                        "value": 0
                    },
                    {
                        "number": 64,
                        "time": 203.30499999999563,
                        "value": 0.9921259842519685
                    },
                    {
                        "number": 64,
                        "time": 204.0049999999956,
                        "value": 0
                    },
                    {
                        "number": 64,
                        "time": 204.2358333333289,
                        "value": 0.9921259842519685
                    },
                    {
                        "number": 64,
                        "time": 205.20333333332886,
                        "value": 0
                    },
                    {
                        "number": 64,
                        "time": 205.31083333332884,
                        "value": 0.9921259842519685
                    },
                    {
                        "number": 64,
                        "time": 205.61083333332883,
                        "value": 0
                    },
                    {
                        "number": 64,
                        "time": 205.74499999999549,
                        "value": 0.9921259842519685
                    },
                    {
                        "number": 64,
                        "time": 206.40249999999543,
                        "value": 0
                    },
                    {
                        "number": 64,
                        "time": 206.59999999999542,
                        "value": 1
                    },
                    {
                        "number": 64,
                        "time": 208.8049999999953,
                        "value": 0
                    },
                    {
                        "number": 64,
                        "time": 208.92416666666196,
                        "value": 0.984251968503937
                    },
                    {
                        "number": 64,
                        "time": 209.21583333332862,
                        "value": 0.007874015748031496
                    },
                    {
                        "number": 64,
                        "time": 209.39083333332863,
                        "value": 1
                    },
                    {
                        "number": 64,
                        "time": 211.20416666666185,
                        "value": 0
                    },
                    {
                        "number": 64,
                        "time": 211.45916666666184,
                        "value": 1
                    },
                    {
                        "number": 64,
                        "time": 213.60583333332838,
                        "value": 0
                    },
                    {
                        "number": 64,
                        "time": 213.72416666666172,
                        "value": 0.984251968503937
                    },
                    {
                        "number": 64,
                        "time": 214.00916666666168,
                        "value": 0
                    },
                    {
                        "number": 64,
                        "time": 214.15249999999503,
                        "value": 1
                    },
                    {
                        "number": 64,
                        "time": 215.20666666666162,
                        "value": 0
                    },
                    {
                        "number": 64,
                        "time": 215.32416666666163,
                        "value": 1
                    },
                    {
                        "number": 64,
                        "time": 216.0049999999949,
                        "value": 0
                    },
                    {
                        "number": 64,
                        "time": 216.1999999999949,
                        "value": 0.9921259842519685
                    },
                    {
                        "number": 64,
                        "time": 218.4033333333281,
                        "value": 0
                    },
                    {
                        "number": 64,
                        "time": 218.55249999999478,
                        "value": 0.9763779527559056
                    },
                    {
                        "number": 64,
                        "time": 218.81749999999477,
                        "value": 0
                    },
                    {
                        "number": 64,
                        "time": 218.90499999999477,
                        "value": 0.9921259842519685
                    },
                    {
                        "number": 64,
                        "time": 220.80249999999467,
                        "value": 0
                    },
                    {
                        "number": 64,
                        "time": 221.04749999999467,
                        "value": 1
                    },
                    {
                        "number": 64,
                        "time": 223.20416666666122,
                        "value": 0
                    },
                    {
                        "number": 64,
                        "time": 223.34333333332788,
                        "value": 0.984251968503937
                    },
                    {
                        "number": 64,
                        "time": 223.61333333332783,
                        "value": 0
                    },
                    {
                        "number": 64,
                        "time": 223.71416666666116,
                        "value": 0.9921259842519685
                    },
                    {
                        "number": 64,
                        "time": 224.80666666666107,
                        "value": 0
                    },
                    {
                        "number": 64,
                        "time": 224.90333333332774,
                        "value": 0.9921259842519685
                    },
                    {
                        "number": 64,
                        "time": 225.6033333333277,
                        "value": 0
                    },
                    {
                        "number": 64,
                        "time": 225.77666666666104,
                        "value": 0.984251968503937
                    },
                    {
                        "number": 64,
                        "time": 226.8024999999943,
                        "value": 0
                    },
                    {
                        "number": 64,
                        "time": 226.99083333332763,
                        "value": 0.9921259842519685
                    },
                    {
                        "number": 64,
                        "time": 228.00333333332756,
                        "value": 0
                    },
                    {
                        "number": 64,
                        "time": 228.17166666666088,
                        "value": 0.9921259842519685
                    },
                    {
                        "number": 64,
                        "time": 229.20416666666083,
                        "value": 0
                    },
                    {
                        "number": 64,
                        "time": 229.32416666666083,
                        "value": 0.984251968503937
                    },
                    {
                        "number": 64,
                        "time": 230.40416666666076,
                        "value": 0
                    },
                    {
                        "number": 64,
                        "time": 230.58083333332743,
                        "value": 0.9921259842519685
                    },
                    {
                        "number": 64,
                        "time": 231.60499999999402,
                        "value": 0
                    },
                    {
                        "number": 64,
                        "time": 231.82333333332735,
                        "value": 0.984251968503937
                    },
                    {
                        "number": 64,
                        "time": 232.80499999999395,
                        "value": 0
                    },
                    {
                        "number": 64,
                        "time": 232.95249999999396,
                        "value": 0.9921259842519685
                    },
                    {
                        "number": 64,
                        "time": 234.00416666666055,
                        "value": 0.007874015748031496
                    },
                    {
                        "number": 64,
                        "time": 234.16249999999388,
                        "value": 0.984251968503937
                    },
                    {
                        "number": 64,
                        "time": 235.20333333332715,
                        "value": 0
                    },
                    {
                        "number": 64,
                        "time": 235.41166666666047,
                        "value": 0.9921259842519685
                    },
                    {
                        "number": 64,
                        "time": 236.40249999999375,
                        "value": 0
                    },
                    {
                        "number": 64,
                        "time": 236.5433333333271,
                        "value": 0.984251968503937
                    },
                    {
                        "number": 64,
                        "time": 237.60499999999368,
                        "value": 0
                    },
                    {
                        "number": 64,
                        "time": 237.69583333332702,
                        "value": 0.9763779527559056
                    },
                    {
                        "number": 64,
                        "time": 238.00916666666032,
                        "value": 0
                    },
                    {
                        "number": 64,
                        "time": 238.16249999999366,
                        "value": 0.984251968503937
                    },
                    {
                        "number": 64,
                        "time": 240.00249999999355,
                        "value": 0
                    },
                    {
                        "number": 64,
                        "time": 240.09583333332688,
                        "value": 0.9921259842519685
                    },
                    {
                        "number": 64,
                        "time": 240.41083333332685,
                        "value": 0
                    },
                    {
                        "number": 64,
                        "time": 240.55249999999353,
                        "value": 0.984251968503937
                    },
                    {
                        "number": 64,
                        "time": 242.4024999999934,
                        "value": 0
                    },
                    {
                        "number": 64,
                        "time": 242.5049999999934,
                        "value": 0.9921259842519685
                    },
                    {
                        "number": 64,
                        "time": 242.81166666666005,
                        "value": 0
                    },
                    {
                        "number": 64,
                        "time": 242.97166666666004,
                        "value": 0.984251968503937
                    },
                    {
                        "number": 64,
                        "time": 244.0074999999933,
                        "value": 0
                    },
                    {
                        "number": 64,
                        "time": 244.11416666665997,
                        "value": 0.984251968503937
                    },
                    {
                        "number": 64,
                        "time": 244.80749999999327,
                        "value": 0
                    },
                    {
                        "number": 64,
                        "time": 244.88583333332662,
                        "value": 0.9921259842519685
                    },
                    {
                        "number": 64,
                        "time": 245.20999999999327,
                        "value": 0
                    },
                    {
                        "number": 64,
                        "time": 245.31416666665993,
                        "value": 0.9921259842519685
                    },
                    {
                        "number": 64,
                        "time": 246.4099999999932,
                        "value": 0
                    },
                    {
                        "number": 64,
                        "time": 246.53333333332654,
                        "value": 0.9921259842519685
                    },
                    {
                        "number": 64,
                        "time": 247.20749999999316,
                        "value": 0
                    },
                    {
                        "number": 64,
                        "time": 247.36499999999316,
                        "value": 0.9921259842519685
                    },
                    {
                        "number": 64,
                        "time": 247.60749999999314,
                        "value": 0
                    },
                    {
                        "number": 64,
                        "time": 247.76499999999314,
                        "value": 0.9921259842519685
                    },
                    {
                        "number": 64,
                        "time": 248.40666666665976,
                        "value": 0
                    },
                    {
                        "number": 64,
                        "time": 248.49666666665976,
                        "value": 0.9921259842519685
                    },
                    {
                        "number": 64,
                        "time": 248.8108333333264,
                        "value": 0
                    },
                    {
                        "number": 64,
                        "time": 248.94499999999306,
                        "value": 0.9921259842519685
                    },
                    {
                        "number": 64,
                        "time": 249.60583333332633,
                        "value": 0
                    },
                    {
                        "number": 64,
                        "time": 249.847499999993,
                        "value": 1
                    },
                    {
                        "number": 64,
                        "time": 252.01166666665955,
                        "value": 0
                    },
                    {
                        "number": 64,
                        "time": 252.2824999999929,
                        "value": 0.9921259842519685
                    },
                    {
                        "number": 64,
                        "time": 254.41083333332608,
                        "value": 0
                    },
                    {
                        "number": 64,
                        "time": 254.5716666666594,
                        "value": 0.984251968503937
                    },
                    {
                        "number": 64,
                        "time": 256.8049999999926,
                        "value": 0
                    },
                    {
                        "number": 64,
                        "time": 256.94333333332594,
                        "value": 1
                    },
                    {
                        "number": 64,
                        "time": 259.1999999999925,
                        "value": 0
                    },
                    {
                        "number": 64,
                        "time": 259.2999999999925,
                        "value": 1
                    },
                    {
                        "number": 64,
                        "time": 261.6049999999925,
                        "value": 0
                    },
                    {
                        "number": 64,
                        "time": 261.68583333332583,
                        "value": 1
                    },
                    {
                        "number": 64,
                        "time": 264.0099999999925,
                        "value": 0
                    },
                    {
                        "number": 64,
                        "time": 264.14166666665915,
                        "value": 1
                    },
                    {
                        "number": 64,
                        "time": 266.3999999999925,
                        "value": 0
                    },
                    {
                        "number": 64,
                        "time": 266.4766666666591,
                        "value": 1
                    },
                    {
                        "number": 64,
                        "time": 268.4141666666591,
                        "value": 0
                    },
                    {
                        "number": 64,
                        "time": 268.8133333333258,
                        "value": 1
                    },
                    {
                        "number": 64,
                        "time": 270.8091666666591,
                        "value": 0
                    },
                    {
                        "number": 64,
                        "time": 273.63333333332565,
                        "value": 1
                    },
                    {
                        "number": 64,
                        "time": 275.609166666659,
                        "value": 0
                    },
                    {
                        "number": 64,
                        "time": 276.036666666659,
                        "value": 1
                    },
                    {
                        "number": 64,
                        "time": 278.00916666665904,
                        "value": 0
                    },
                    {
                        "number": 64,
                        "time": 280.85249999999223,
                        "value": 1
                    },
                    {
                        "number": 64,
                        "time": 282.8124999999922,
                        "value": 0
                    },
                    {
                        "number": 64,
                        "time": 283.2133333333255,
                        "value": 1
                    },
                    {
                        "number": 64,
                        "time": 285.2108333333255,
                        "value": 0
                    },
                    {
                        "number": 64,
                        "time": 288.029999999992,
                        "value": 1
                    },
                    {
                        "number": 64,
                        "time": 290.00583333332537,
                        "value": 0
                    },
                    {
                        "number": 64,
                        "time": 290.419999999992,
                        "value": 1
                    },
                    {
                        "number": 64,
                        "time": 292.4091666666587,
                        "value": 0
                    },
                    {
                        "number": 64,
                        "time": 302.4366666666581,
                        "value": 1
                    },
                    {
                        "number": 64,
                        "time": 304.4141666666581,
                        "value": 0
                    },
                    {
                        "number": 64,
                        "time": 304.83999999999145,
                        "value": 1
                    },
                    {
                        "number": 64,
                        "time": 306.81749999999147,
                        "value": 0
                    },
                    {
                        "number": 64,
                        "time": 307.22999999999143,
                        "value": 1
                    },
                    {
                        "number": 64,
                        "time": 309.2158333333248,
                        "value": 0
                    },
                    {
                        "number": 64,
                        "time": 309.6466666666581,
                        "value": 1
                    },
                    {
                        "number": 64,
                        "time": 311.6058333333248,
                        "value": 0
                    },
                    {
                        "number": 64,
                        "time": 312.00666666665813,
                        "value": 1
                    },
                    {
                        "number": 64,
                        "time": 312.80666666665815,
                        "value": 0
                    },
                    {
                        "number": 64,
                        "time": 313.2133333333248,
                        "value": 1
                    },
                    {
                        "number": 64,
                        "time": 314.0133333333248,
                        "value": 0
                    },
                    {
                        "number": 64,
                        "time": 314.4166666666581,
                        "value": 1
                    },
                    {
                        "number": 64,
                        "time": 315.2166666666581,
                        "value": 0
                    },
                    {
                        "number": 64,
                        "time": 315.6299999999914,
                        "value": 1
                    },
                    {
                        "number": 64,
                        "time": 316.4299999999914,
                        "value": 0
                    },
                    {
                        "number": 64,
                        "time": 316.8299999999914,
                        "value": 1
                    },
                    {
                        "number": 64,
                        "time": 317.6299999999914,
                        "value": 0
                    },
                    {
                        "number": 64,
                        "time": 318.01666666665807,
                        "value": 1
                    },
                    {
                        "number": 64,
                        "time": 318.8166666666581,
                        "value": 0
                    },
                    {
                        "number": 64,
                        "time": 319.2299999999914,
                        "value": 1
                    },
                    {
                        "number": 64,
                        "time": 320.0299999999914,
                        "value": 0
                    },
                    {
                        "number": 64,
                        "time": 320.4366666666581,
                        "value": 1
                    },
                    {
                        "number": 64,
                        "time": 321.2366666666581,
                        "value": 0
                    },
                    {
                        "number": 64,
                        "time": 321.62333333332475,
                        "value": 1
                    },
                    {
                        "number": 64,
                        "time": 322.8049999999914,
                        "value": 0
                    },
                    {
                        "number": 64,
                        "time": 322.9116666666581,
                        "value": 1
                    },
                    {
                        "number": 64,
                        "time": 324.00249999999147,
                        "value": 0
                    },
                    {
                        "number": 64,
                        "time": 324.1233333333248,
                        "value": 1
                    },
                    {
                        "number": 64,
                        "time": 325.2058333333248,
                        "value": 0
                    },
                    {
                        "number": 64,
                        "time": 325.2766666666581,
                        "value": 1
                    },
                    {
                        "number": 64,
                        "time": 326.40499999999145,
                        "value": 0
                    },
                    {
                        "number": 64,
                        "time": 326.5058333333248,
                        "value": 1
                    },
                    {
                        "number": 64,
                        "time": 327.6049999999915,
                        "value": 0
                    },
                    {
                        "number": 64,
                        "time": 327.69416666665813,
                        "value": 1
                    },
                    {
                        "number": 64,
                        "time": 328.8049999999915,
                        "value": 0
                    },
                    {
                        "number": 64,
                        "time": 328.90583333332484,
                        "value": 1
                    },
                    {
                        "number": 64,
                        "time": 330.0049999999915,
                        "value": 0
                    },
                    {
                        "number": 64,
                        "time": 330.09999999999155,
                        "value": 1
                    },
                    {
                        "number": 64,
                        "time": 331.20499999999157,
                        "value": 0
                    },
                    {
                        "number": 64,
                        "time": 331.3058333333249,
                        "value": 1
                    },
                    {
                        "number": 64,
                        "time": 332.4041666666583,
                        "value": 0
                    },
                    {
                        "number": 64,
                        "time": 332.5174999999916,
                        "value": 1
                    },
                    {
                        "number": 64,
                        "time": 333.60499999999166,
                        "value": 0
                    },
                    {
                        "number": 64,
                        "time": 333.71416666665834,
                        "value": 1
                    },
                    {
                        "number": 64,
                        "time": 334.80583333332504,
                        "value": 0
                    },
                    {
                        "number": 64,
                        "time": 334.89416666665835,
                        "value": 1
                    },
                    {
                        "number": 64,
                        "time": 336.0049999999917,
                        "value": 0
                    },
                    {
                        "number": 64,
                        "time": 336.090833333325,
                        "value": 1
                    },
                    {
                        "number": 64,
                        "time": 337.2049999999917,
                        "value": 0
                    },
                    {
                        "number": 64,
                        "time": 337.30583333332504,
                        "value": 1
                    },
                    {
                        "number": 64,
                        "time": 338.4041666666584,
                        "value": 0
                    },
                    {
                        "number": 64,
                        "time": 338.5116666666584,
                        "value": 1
                    },
                    {
                        "number": 64,
                        "time": 339.6049999999918,
                        "value": 0
                    },
                    {
                        "number": 64,
                        "time": 339.71166666665846,
                        "value": 1
                    },
                    {
                        "number": 64,
                        "time": 340.8049999999918,
                        "value": 0
                    },
                    {
                        "number": 64,
                        "time": 340.9058333333252,
                        "value": 1
                    },
                    {
                        "number": 64,
                        "time": 342.00416666665853,
                        "value": 0
                    },
                    {
                        "number": 64,
                        "time": 342.06499999999187,
                        "value": 1
                    },
                    {
                        "number": 64,
                        "time": 344.4083333333252,
                        "value": 0
                    },
                    {
                        "number": 64,
                        "time": 344.4999999999918,
                        "value": 1
                    },
                    {
                        "number": 64,
                        "time": 346.80583333332504,
                        "value": 0
                    },
                    {
                        "number": 64,
                        "time": 346.9241666666584,
                        "value": 1
                    },
                    {
                        "number": 64,
                        "time": 347.6141666666584,
                        "value": 0
                    },
                    {
                        "number": 64,
                        "time": 347.7049999999917,
                        "value": 1
                    },
                    {
                        "number": 64,
                        "time": 348.40999999999167,
                        "value": 0
                    },
                    {
                        "number": 64,
                        "time": 348.495833333325,
                        "value": 1
                    },
                    {
                        "number": 64,
                        "time": 349.2166666666583,
                        "value": 0
                    },
                    {
                        "number": 64,
                        "time": 349.3299999999916,
                        "value": 1
                    },
                    {
                        "number": 64,
                        "time": 350.01333333332497,
                        "value": 0
                    },
                    {
                        "number": 64,
                        "time": 350.0941666666583,
                        "value": 1
                    },
                    {
                        "number": 64,
                        "time": 350.8058333333249,
                        "value": 0
                    },
                    {
                        "number": 64,
                        "time": 350.9474999999916,
                        "value": 1
                    },
                    {
                        "number": 64,
                        "time": 351.59999999999155,
                        "value": 0
                    },
                    {
                        "number": 64,
                        "time": 351.66499999999155,
                        "value": 1
                    },
                    {
                        "number": 64,
                        "time": 352.01166666665824,
                        "value": 0
                    },
                    {
                        "number": 64,
                        "time": 352.07666666665824,
                        "value": 1
                    },
                    {
                        "number": 64,
                        "time": 352.4133333333249,
                        "value": 0
                    },
                    {
                        "number": 64,
                        "time": 352.4941666666582,
                        "value": 1
                    },
                    {
                        "number": 64,
                        "time": 352.80999999999153,
                        "value": 0
                    },
                    {
                        "number": 64,
                        "time": 352.8824999999915,
                        "value": 1
                    },
                    {
                        "number": 64,
                        "time": 353.21083333332484,
                        "value": 0
                    },
                    {
                        "number": 64,
                        "time": 353.2999999999915,
                        "value": 1
                    },
                    {
                        "number": 64,
                        "time": 353.61166666665815,
                        "value": 0
                    },
                    {
                        "number": 64,
                        "time": 353.6883333333248,
                        "value": 1
                    },
                    {
                        "number": 64,
                        "time": 353.9999999999915,
                        "value": 0
                    },
                    {
                        "number": 64,
                        "time": 354.08249999999146,
                        "value": 1
                    },
                    {
                        "number": 64,
                        "time": 354.40999999999144,
                        "value": 0
                    },
                    {
                        "number": 64,
                        "time": 354.48833333332476,
                        "value": 1
                    },
                    {
                        "number": 64,
                        "time": 354.8099999999914,
                        "value": 0
                    },
                    {
                        "number": 64,
                        "time": 354.8824999999914,
                        "value": 1
                    },
                    {
                        "number": 64,
                        "time": 355.20416666665807,
                        "value": 0
                    },
                    {
                        "number": 64,
                        "time": 355.27666666665806,
                        "value": 1
                    },
                    {
                        "number": 64,
                        "time": 355.61166666665804,
                        "value": 0
                    },
                    {
                        "number": 64,
                        "time": 355.68249999999136,
                        "value": 1
                    },
                    {
                        "number": 64,
                        "time": 356.00999999999135,
                        "value": 0
                    },
                    {
                        "number": 64,
                        "time": 356.08833333332467,
                        "value": 1
                    },
                    {
                        "number": 64,
                        "time": 356.4099999999913,
                        "value": 0
                    },
                    {
                        "number": 64,
                        "time": 356.46499999999133,
                        "value": 1
                    },
                    {
                        "number": 64,
                        "time": 356.81249999999136,
                        "value": 0
                    },
                    {
                        "number": 64,
                        "time": 356.90583333332467,
                        "value": 1
                    },
                    {
                        "number": 64,
                        "time": 357.2108333333247,
                        "value": 0
                    },
                    {
                        "number": 64,
                        "time": 357.2999999999913,
                        "value": 1
                    },
                    {
                        "number": 64,
                        "time": 357.606666666658,
                        "value": 0
                    },
                    {
                        "number": 64,
                        "time": 357.6824999999913,
                        "value": 1
                    },
                    {
                        "number": 64,
                        "time": 358.0108333333246,
                        "value": 0
                    },
                    {
                        "number": 64,
                        "time": 358.111666666658,
                        "value": 1
                    },
                    {
                        "number": 64,
                        "time": 358.409166666658,
                        "value": 0
                    },
                    {
                        "number": 64,
                        "time": 358.476666666658,
                        "value": 1
                    },
                    {
                        "number": 64,
                        "time": 358.81083333332464,
                        "value": 0
                    },
                    {
                        "number": 64,
                        "time": 358.87666666665797,
                        "value": 1
                    },
                    {
                        "number": 64,
                        "time": 359.2058333333246,
                        "value": 0
                    },
                    {
                        "number": 64,
                        "time": 359.2649999999913,
                        "value": 1
                    },
                    {
                        "number": 64,
                        "time": 359.6083333333246,
                        "value": 0
                    },
                    {
                        "number": 64,
                        "time": 359.65916666665794,
                        "value": 1
                    },
                    {
                        "number": 64,
                        "time": 360.00999999999124,
                        "value": 0
                    },
                    {
                        "number": 64,
                        "time": 360.06499999999124,
                        "value": 1
                    },
                    {
                        "number": 64,
                        "time": 360.4116666666579,
                        "value": 0
                    },
                    {
                        "number": 64,
                        "time": 360.49416666665786,
                        "value": 1
                    },
                    {
                        "number": 64,
                        "time": 360.8099999999912,
                        "value": 0
                    },
                    {
                        "number": 64,
                        "time": 360.87666666665785,
                        "value": 1
                    },
                    {
                        "number": 64,
                        "time": 361.2024999999912,
                        "value": 0
                    },
                    {
                        "number": 64,
                        "time": 361.30583333332453,
                        "value": 1
                    },
                    {
                        "number": 64,
                        "time": 362.1883333333245,
                        "value": 0
                    },
                    {
                        "number": 64,
                        "time": 362.4166666666578,
                        "value": 1
                    },
                    {
                        "number": 64,
                        "time": 363.3708333333245,
                        "value": 0
                    },
                    {
                        "number": 64,
                        "time": 363.6299999999912,
                        "value": 1
                    },
                    {
                        "number": 64,
                        "time": 364.5058333333245,
                        "value": 0
                    },
                    {
                        "number": 64,
                        "time": 364.8133333333245,
                        "value": 1
                    },
                    {
                        "number": 64,
                        "time": 365.7533333333246,
                        "value": 0
                    },
                    {
                        "number": 64,
                        "time": 366.0166666666579,
                        "value": 1
                    },
                    {
                        "number": 64,
                        "time": 366.9233333333246,
                        "value": 0
                    },
                    {
                        "number": 64,
                        "time": 367.2366666666579,
                        "value": 1
                    },
                    {
                        "number": 64,
                        "time": 368.14166666665795,
                        "value": 0
                    },
                    {
                        "number": 64,
                        "time": 368.43666666665797,
                        "value": 1
                    },
                    {
                        "number": 64,
                        "time": 369.3233333333246,
                        "value": 0
                    },
                    {
                        "number": 64,
                        "time": 369.6399999999913,
                        "value": 1
                    },
                    {
                        "number": 64,
                        "time": 370.55333333332464,
                        "value": 0
                    },
                    {
                        "number": 64,
                        "time": 370.8233333333246,
                        "value": 1
                    },
                    {
                        "number": 64,
                        "time": 372.0049999999913,
                        "value": 0
                    },
                    {
                        "number": 64,
                        "time": 372.1299999999913,
                        "value": 1
                    },
                    {
                        "number": 64,
                        "time": 373.2049999999913,
                        "value": 0
                    },
                    {
                        "number": 64,
                        "time": 373.31166666665797,
                        "value": 1
                    },
                    {
                        "number": 64,
                        "time": 374.406666666658,
                        "value": 0
                    },
                    {
                        "number": 64,
                        "time": 374.511666666658,
                        "value": 1
                    },
                    {
                        "number": 64,
                        "time": 375.4058333333247,
                        "value": 0
                    },
                    {
                        "number": 64,
                        "time": 375.5999999999914,
                        "value": 1
                    },
                    {
                        "number": 64,
                        "time": 376.80666666665803,
                        "value": 0
                    },
                    {
                        "number": 64,
                        "time": 376.8883333333247,
                        "value": 1
                    },
                    {
                        "number": 64,
                        "time": 378.00499999999136,
                        "value": 0
                    },
                    {
                        "number": 64,
                        "time": 378.1708333333247,
                        "value": 1
                    },
                    {
                        "number": 64,
                        "time": 379.2049999999914,
                        "value": 0
                    },
                    {
                        "number": 64,
                        "time": 379.30583333332476,
                        "value": 1
                    },
                    {
                        "number": 64,
                        "time": 380.4058333333248,
                        "value": 0
                    },
                    {
                        "number": 64,
                        "time": 380.5416666666581,
                        "value": 1
                    },
                    {
                        "number": 64,
                        "time": 381.60583333332477,
                        "value": 0
                    },
                    {
                        "number": 64,
                        "time": 381.67083333332477,
                        "value": 1
                    },
                    {
                        "number": 64,
                        "time": 382.8049999999914,
                        "value": 0
                    },
                    {
                        "number": 64,
                        "time": 382.92333333332476,
                        "value": 1
                    },
                    {
                        "number": 64,
                        "time": 384.00333333332475,
                        "value": 0
                    },
                    {
                        "number": 64,
                        "time": 384.10583333332477,
                        "value": 1
                    },
                    {
                        "number": 64,
                        "time": 386.40249999999145,
                        "value": 0
                    },
                    {
                        "number": 64,
                        "time": 386.5058333333248,
                        "value": 1
                    },
                    {
                        "number": 64,
                        "time": 388.80249999999137,
                        "value": 0
                    },
                    {
                        "number": 64,
                        "time": 388.9783333333247,
                        "value": 1
                    },
                    {
                        "number": 64,
                        "time": 389.2899999999914,
                        "value": 0
                    },
                    {
                        "number": 64,
                        "time": 390.1099999999914,
                        "value": 1
                    },
                    {
                        "number": 64,
                        "time": 390.4233333333247,
                        "value": 0
                    },
                    {
                        "number": 64,
                        "time": 391.266666666658,
                        "value": 1
                    },
                    {
                        "number": 64,
                        "time": 391.5999999999913,
                        "value": 0
                    }
                ],
                "91": [
                    {
                        "number": 91,
                        "time": 0,
                        "value": 1
                    },
                    {
                        "number": 91,
                        "time": 14.406666666666665,
                        "value": 0.9921259842519685
                    },
                    {
                        "number": 91,
                        "time": 16.806666666666665,
                        "value": 0.9921259842519685
                    },
                    {
                        "number": 91,
                        "time": 21.60666666666666,
                        "value": 0.9921259842519685
                    },
                    {
                        "number": 91,
                        "time": 24.006666666666657,
                        "value": 0.9921259842519685
                    },
                    {
                        "number": 91,
                        "time": 36.006666666666696,
                        "value": 0.9921259842519685
                    },
                    {
                        "number": 91,
                        "time": 38.4066666666667,
                        "value": 0.9921259842519685
                    },
                    {
                        "number": 91,
                        "time": 40.80666666666671,
                        "value": 0.9921259842519685
                    },
                    {
                        "number": 91,
                        "time": 43.206666666666706,
                        "value": 0.9921259842519685
                    },
                    {
                        "number": 91,
                        "time": 94.80000000000001,
                        "value": 0.984251968503937
                    },
                    {
                        "number": 91,
                        "time": 127.20666666666656,
                        "value": 1
                    },
                    {
                        "number": 91,
                        "time": 146.4066666666656,
                        "value": 1
                    },
                    {
                        "number": 91,
                        "time": 184.80666666666335,
                        "value": 1
                    },
                    {
                        "number": 91,
                        "time": 228.0066666666609,
                        "value": 1
                    },
                    {
                        "number": 91,
                        "time": 259.1999999999925,
                        "value": 0.9921259842519685
                    },
                    {
                        "number": 91,
                        "time": 266.40666666665913,
                        "value": 0.9921259842519685
                    },
                    {
                        "number": 91,
                        "time": 280.8066666666589,
                        "value": 0.9921259842519685
                    },
                    {
                        "number": 91,
                        "time": 283.20666666665886,
                        "value": 0.9921259842519685
                    },
                    {
                        "number": 91,
                        "time": 288.0066666666587,
                        "value": 0.9921259842519685
                    },
                    {
                        "number": 91,
                        "time": 290.4066666666587,
                        "value": 0.9921259842519685
                    },
                    {
                        "number": 91,
                        "time": 302.4066666666581,
                        "value": 0.9921259842519685
                    },
                    {
                        "number": 91,
                        "time": 304.8066666666581,
                        "value": 0.9921259842519685
                    },
                    {
                        "number": 91,
                        "time": 307.2066666666581,
                        "value": 0.9921259842519685
                    },
                    {
                        "number": 91,
                        "time": 309.6066666666581,
                        "value": 0.9921259842519685
                    },
                    {
                        "number": 91,
                        "time": 361.1999999999912,
                        "value": 0.984251968503937
                    }
                ]
            },
            "id": 2,
            "name": "Piano left",
            "instrumentNumber": 0,
            "instrument": "acoustic grand piano",
            "instrumentFamily": "piano",
            "channelNumber": 0,
            "isPercussion": false
        },
        {
            "startTime": 0,
            "duration": 0,
            "length": 0,
            "notes": [],
            "controlChanges": {},
            "id": 3,
            "name": "Schubert: Impromptus No.4 in Ab, Op. 90 - D 899"
        },
        {
            "startTime": 0,
            "duration": 0,
            "length": 0,
            "notes": [],
            "controlChanges": {},
            "id": 4,
            "name": "Copyright  1996 by Bernd Krueger"
        },
        {
            "startTime": 0,
            "duration": 0,
            "length": 0,
            "notes": [],
            "controlChanges": {},
            "id": 5,
            "name": "http://www.piano-midi.de"
        },
        {
            "startTime": 0,
            "duration": 0,
            "length": 0,
            "notes": [],
            "controlChanges": {},
            "id": 6,
            "name": "Edition: 2014-03-19"
        }
    ]
}