{
    "header": {
        "PPQ": 480,
        "timeSignature": [
            3,
            4
        ],
        "bpm": 100.49998743750157,
        "name": "Impromptu Nr. 2 As-Dur"
    },
    "startTime": 0,
    "duration": 427.46274000000017,
    "tracks": [
        {
            "startTime": 0,
            "duration": 0,
            "length": 0,
            "notes": [],
            "controlChanges": {},
            "id": 0,
            "name": "Impromptu Nr. 2 As-Dur"
        },
        {
            "startTime": 1.19403,
            "duration": 427.46274000000017,
            "length": 1850,
            "notes": [
                {
                    "name": "D#4",
                    "midi": 63,
                    "time": 1.19403,
                    "velocity": 0.36220472440944884,
                    "duration": 0.5907960937500001
                },
                {
                    "name": "G#4",
                    "midi": 68,
                    "time": 1.791045,
                    "velocity": 0.36220472440944884,
                    "duration": 0.5907960937499999
                },
                {
                    "name": "C4",
                    "midi": 60,
                    "time": 1.791045,
                    "velocity": 0.2677165354330709,
                    "duration": 0.5907960937499999
                },
                {
                    "name": "D#4",
                    "midi": 63,
                    "time": 1.791045,
                    "velocity": 0.2677165354330709,
                    "duration": 0.5907960937499999
                },
                {
                    "name": "G#4",
                    "midi": 68,
                    "time": 2.38806,
                    "velocity": 0.36220472440944884,
                    "duration": 0.8955224999999998
                },
                {
                    "name": "C4",
                    "midi": 60,
                    "time": 2.38806,
                    "velocity": 0.2677165354330709,
                    "duration": 1.1940299999999997
                },
                {
                    "name": "D#4",
                    "midi": 63,
                    "time": 2.38806,
                    "velocity": 0.2677165354330709,
                    "duration": 1.1940299999999997
                },
                {
                    "name": "A#4",
                    "midi": 70,
                    "time": 3.2835824999999996,
                    "velocity": 0.30708661417322836,
                    "duration": 0.2985074999999999
                },
                {
                    "name": "C#4",
                    "midi": 61,
                    "time": 3.5820899999999996,
                    "velocity": 0.2677165354330709,
                    "duration": 0.5907960937500003
                },
                {
                    "name": "D#4",
                    "midi": 63,
                    "time": 3.5820899999999996,
                    "velocity": 0.2677165354330709,
                    "duration": 0.5907960937500003
                },
                {
                    "name": "G#4",
                    "midi": 68,
                    "time": 3.5820899999999996,
                    "velocity": 0.36220472440944884,
                    "duration": 0.5907960937500003
                },
                {
                    "name": "C#4",
                    "midi": 61,
                    "time": 4.179105,
                    "velocity": 0.2677165354330709,
                    "duration": 1.1940299999999997
                },
                {
                    "name": "G4",
                    "midi": 67,
                    "time": 4.179105,
                    "velocity": 0.36220472440944884,
                    "duration": 0.8955225000000002
                },
                {
                    "name": "D#4",
                    "midi": 63,
                    "time": 4.179105,
                    "velocity": 0.2677165354330709,
                    "duration": 1.1940299999999997
                },
                {
                    "name": "A#4",
                    "midi": 70,
                    "time": 5.0746275,
                    "velocity": 0.29133858267716534,
                    "duration": 0.29601993749999966
                },
                {
                    "name": "A#4",
                    "midi": 70,
                    "time": 5.3731349999999996,
                    "velocity": 0.36220472440944884,
                    "duration": 0.5907960937499999
                },
                {
                    "name": "D#4",
                    "midi": 63,
                    "time": 5.970149999999999,
                    "velocity": 0.2992125984251969,
                    "duration": 0.5907960937499999
                },
                {
                    "name": "G#4",
                    "midi": 68,
                    "time": 5.970149999999999,
                    "velocity": 0.4015748031496063,
                    "duration": 0.5907960937499999
                },
                {
                    "name": "D#4",
                    "midi": 63,
                    "time": 6.567164999999999,
                    "velocity": 0.30708661417322836,
                    "duration": 0.5907960937499999
                },
                {
                    "name": "C#4",
                    "midi": 61,
                    "time": 6.567164999999999,
                    "velocity": 0.30708661417322836,
                    "duration": 0.5907960937499999
                },
                {
                    "name": "A#4",
                    "midi": 70,
                    "time": 6.567164999999999,
                    "velocity": 0.4094488188976378,
                    "duration": 0.5907960937499999
                },
                {
                    "name": "D#4",
                    "midi": 63,
                    "time": 7.164179999999999,
                    "velocity": 0.31496062992125984,
                    "duration": 1.1940300000000006
                },
                {
                    "name": "C4",
                    "midi": 60,
                    "time": 7.164179999999999,
                    "velocity": 0.31496062992125984,
                    "duration": 1.1940300000000006
                },
                {
                    "name": "C5",
                    "midi": 72,
                    "time": 7.164179999999999,
                    "velocity": 0.4330708661417323,
                    "duration": 1.1940300000000006
                },
                {
                    "name": "D#4",
                    "midi": 63,
                    "time": 8.35821,
                    "velocity": 0.4330708661417323,
                    "duration": 0.5907960937500008
                },
                {
                    "name": "C5",
                    "midi": 72,
                    "time": 8.955225,
                    "velocity": 0.5196850393700787,
                    "duration": 0.5907960937500008
                },
                {
                    "name": "C4",
                    "midi": 60,
                    "time": 8.955225,
                    "velocity": 0.3858267716535433,
                    "duration": 0.5907960937500008
                },
                {
                    "name": "D#4",
                    "midi": 63,
                    "time": 8.955225,
                    "velocity": 0.3858267716535433,
                    "duration": 0.5907960937500008
                },
                {
                    "name": "D#4",
                    "midi": 63,
                    "time": 9.552240000000001,
                    "velocity": 0.3937007874015748,
                    "duration": 0.8955225000000002
                },
                {
                    "name": "C4",
                    "midi": 60,
                    "time": 9.552240000000001,
                    "velocity": 0.3937007874015748,
                    "duration": 0.8955225000000002
                },
                {
                    "name": "C5",
                    "midi": 72,
                    "time": 9.552240000000001,
                    "velocity": 0.5275590551181102,
                    "duration": 0.8955225000000002
                },
                {
                    "name": "C#4",
                    "midi": 61,
                    "time": 10.447762500000001,
                    "velocity": 0.33070866141732286,
                    "duration": 0.2985074999999995
                },
                {
                    "name": "C#5",
                    "midi": 73,
                    "time": 10.447762500000001,
                    "velocity": 0.44881889763779526,
                    "duration": 0.2985074999999995
                },
                {
                    "name": "D#4",
                    "midi": 63,
                    "time": 10.447762500000001,
                    "velocity": 0.33070866141732286,
                    "duration": 0.2985074999999995
                },
                {
                    "name": "D#4",
                    "midi": 63,
                    "time": 10.74627,
                    "velocity": 0.3779527559055118,
                    "duration": 0.5907960937500008
                },
                {
                    "name": "C5",
                    "midi": 72,
                    "time": 10.74627,
                    "velocity": 0.5118110236220472,
                    "duration": 0.5907960937500008
                },
                {
                    "name": "C4",
                    "midi": 60,
                    "time": 10.74627,
                    "velocity": 0.3779527559055118,
                    "duration": 0.5907960937500008
                },
                {
                    "name": "A#3",
                    "midi": 58,
                    "time": 11.343285000000002,
                    "velocity": 0.33858267716535434,
                    "duration": 0.8955225000000002
                },
                {
                    "name": "D#4",
                    "midi": 63,
                    "time": 11.343285000000002,
                    "velocity": 0.33858267716535434,
                    "duration": 0.8955225000000002
                },
                {
                    "name": "A#4",
                    "midi": 70,
                    "time": 11.343285000000002,
                    "velocity": 0.4566929133858268,
                    "duration": 0.8955225000000002
                },
                {
                    "name": "C5",
                    "midi": 72,
                    "time": 12.238807500000002,
                    "velocity": 0.4094488188976378,
                    "duration": 0.2985074999999995
                },
                {
                    "name": "D#4",
                    "midi": 63,
                    "time": 12.238807500000002,
                    "velocity": 0.30708661417322836,
                    "duration": 0.2985074999999995
                },
                {
                    "name": "C4",
                    "midi": 60,
                    "time": 12.238807500000002,
                    "velocity": 0.30708661417322836,
                    "duration": 0.2985074999999995
                },
                {
                    "name": "A#3",
                    "midi": 58,
                    "time": 12.537315000000001,
                    "velocity": 0.3228346456692913,
                    "duration": 0.5907960937500008
                },
                {
                    "name": "D#4",
                    "midi": 63,
                    "time": 12.537315000000001,
                    "velocity": 0.3228346456692913,
                    "duration": 0.5907960937500008
                },
                {
                    "name": "A#4",
                    "midi": 70,
                    "time": 12.537315000000001,
                    "velocity": 0.4409448818897638,
                    "duration": 0.5907960937500008
                },
                {
                    "name": "D#4",
                    "midi": 63,
                    "time": 13.134330000000002,
                    "velocity": 0.30708661417322836,
                    "duration": 0.5907960937500008
                },
                {
                    "name": "G#4",
                    "midi": 68,
                    "time": 13.134330000000002,
                    "velocity": 0.4094488188976378,
                    "duration": 0.5907960937500008
                },
                {
                    "name": "G#3",
                    "midi": 56,
                    "time": 13.134330000000002,
                    "velocity": 0.30708661417322836,
                    "duration": 0.5907960937500008
                },
                {
                    "name": "D#5",
                    "midi": 75,
                    "time": 13.731345000000003,
                    "velocity": 0.5196850393700787,
                    "duration": 0.4477612499999992
                },
                {
                    "name": "D#4",
                    "midi": 63,
                    "time": 13.731345000000003,
                    "velocity": 0.3858267716535433,
                    "duration": 0.597014999999999
                },
                {
                    "name": "A#4",
                    "midi": 70,
                    "time": 13.731345000000003,
                    "velocity": 0.3858267716535433,
                    "duration": 0.597014999999999
                },
                {
                    "name": "C#5",
                    "midi": 73,
                    "time": 14.179106250000002,
                    "velocity": 0.4645669291338583,
                    "duration": 0.14925374999999974
                },
                {
                    "name": "G#4",
                    "midi": 68,
                    "time": 14.328360000000002,
                    "velocity": 0.29133858267716534,
                    "duration": 1.1940299999999997
                },
                {
                    "name": "C5",
                    "midi": 72,
                    "time": 14.328360000000002,
                    "velocity": 0.3937007874015748,
                    "duration": 1.1940299999999997
                },
                {
                    "name": "D#4",
                    "midi": 63,
                    "time": 14.328360000000002,
                    "velocity": 0.29133858267716534,
                    "duration": 1.1940299999999997
                },
                {
                    "name": "D#5",
                    "midi": 75,
                    "time": 15.522390000000001,
                    "velocity": 0.4409448818897638,
                    "duration": 0.5907960937500008
                },
                {
                    "name": "D#5",
                    "midi": 75,
                    "time": 16.119405000000004,
                    "velocity": 0.2677165354330709,
                    "duration": 0.5907960937500008
                },
                {
                    "name": "C5",
                    "midi": 72,
                    "time": 16.119405000000004,
                    "velocity": 0.2677165354330709,
                    "duration": 0.5907960937500008
                },
                {
                    "name": "G#5",
                    "midi": 80,
                    "time": 16.119405000000004,
                    "velocity": 0.4251968503937008,
                    "duration": 0.5907960937500008
                },
                {
                    "name": "D#5",
                    "midi": 75,
                    "time": 16.716420000000006,
                    "velocity": 0.2677165354330709,
                    "duration": 1.194029999999998
                },
                {
                    "name": "C5",
                    "midi": 72,
                    "time": 16.716420000000006,
                    "velocity": 0.2677165354330709,
                    "duration": 1.194029999999998
                },
                {
                    "name": "G#5",
                    "midi": 80,
                    "time": 16.716420000000006,
                    "velocity": 0.44881889763779526,
                    "duration": 0.8955224999999984
                },
                {
                    "name": "A#5",
                    "midi": 82,
                    "time": 17.611942500000005,
                    "velocity": 0.3937007874015748,
                    "duration": 0.2985074999999995
                },
                {
                    "name": "C#5",
                    "midi": 73,
                    "time": 17.910450000000004,
                    "velocity": 0.2677165354330709,
                    "duration": 0.5907960937500008
                },
                {
                    "name": "G#5",
                    "midi": 80,
                    "time": 17.910450000000004,
                    "velocity": 0.44881889763779526,
                    "duration": 0.5907960937500008
                },
                {
                    "name": "D#5",
                    "midi": 75,
                    "time": 17.910450000000004,
                    "velocity": 0.2677165354330709,
                    "duration": 0.5907960937500008
                },
                {
                    "name": "G5",
                    "midi": 79,
                    "time": 18.507465000000007,
                    "velocity": 0.44881889763779526,
                    "duration": 0.8955224999999984
                },
                {
                    "name": "D#5",
                    "midi": 75,
                    "time": 18.507465000000007,
                    "velocity": 0.2677165354330709,
                    "duration": 1.194029999999998
                },
                {
                    "name": "C#5",
                    "midi": 73,
                    "time": 18.507465000000007,
                    "velocity": 0.2677165354330709,
                    "duration": 1.194029999999998
                },
                {
                    "name": "A#5",
                    "midi": 82,
                    "time": 19.402987500000005,
                    "velocity": 0.44881889763779526,
                    "duration": 0.2985074999999995
                },
                {
                    "name": "A#5",
                    "midi": 82,
                    "time": 19.701495000000005,
                    "velocity": 0.44881889763779526,
                    "duration": 0.5907960937500008
                },
                {
                    "name": "G#5",
                    "midi": 80,
                    "time": 20.298510000000007,
                    "velocity": 0.4645669291338583,
                    "duration": 0.5907960937500008
                },
                {
                    "name": "D#5",
                    "midi": 75,
                    "time": 20.298510000000007,
                    "velocity": 0.2755905511811024,
                    "duration": 0.5907960937500008
                },
                {
                    "name": "C#5",
                    "midi": 73,
                    "time": 20.89552500000001,
                    "velocity": 0.29133858267716534,
                    "duration": 0.5907960937500008
                },
                {
                    "name": "A#5",
                    "midi": 82,
                    "time": 20.89552500000001,
                    "velocity": 0.4881889763779528,
                    "duration": 0.5907960937500008
                },
                {
                    "name": "D#5",
                    "midi": 75,
                    "time": 20.89552500000001,
                    "velocity": 0.29133858267716534,
                    "duration": 0.5907960937500008
                },
                {
                    "name": "D#5",
                    "midi": 75,
                    "time": 21.492540000000012,
                    "velocity": 0.31496062992125984,
                    "duration": 1.1940300000000015
                },
                {
                    "name": "C5",
                    "midi": 72,
                    "time": 21.492540000000012,
                    "velocity": 0.31496062992125984,
                    "duration": 1.1940300000000015
                },
                {
                    "name": "C6",
                    "midi": 84,
                    "time": 21.492540000000012,
                    "velocity": 0.5196850393700787,
                    "duration": 1.1940300000000015
                },
                {
                    "name": "D#5",
                    "midi": 75,
                    "time": 22.686570000000014,
                    "velocity": 0.5118110236220472,
                    "duration": 0.5907960937500008
                },
                {
                    "name": "C6",
                    "midi": 84,
                    "time": 23.283585000000016,
                    "velocity": 0.5748031496062992,
                    "duration": 0.5907960937500008
                },
                {
                    "name": "D#5",
                    "midi": 75,
                    "time": 23.283585000000016,
                    "velocity": 0.3464566929133858,
                    "duration": 0.5907960937500008
                },
                {
                    "name": "C5",
                    "midi": 72,
                    "time": 23.283585000000016,
                    "velocity": 0.3464566929133858,
                    "duration": 0.5907960937500008
                },
                {
                    "name": "D#5",
                    "midi": 75,
                    "time": 23.88060000000002,
                    "velocity": 0.3464566929133858,
                    "duration": 1.194029999999998
                },
                {
                    "name": "C5",
                    "midi": 72,
                    "time": 23.88060000000002,
                    "velocity": 0.3464566929133858,
                    "duration": 1.194029999999998
                },
                {
                    "name": "C6",
                    "midi": 84,
                    "time": 23.88060000000002,
                    "velocity": 0.5826771653543307,
                    "duration": 0.8955224999999984
                },
                {
                    "name": "C#6",
                    "midi": 85,
                    "time": 24.776122500000017,
                    "velocity": 0.5275590551181102,
                    "duration": 0.2985074999999995
                },
                {
                    "name": "C5",
                    "midi": 72,
                    "time": 25.074630000000017,
                    "velocity": 0.29133858267716534,
                    "duration": 0.5907960937500008
                },
                {
                    "name": "C6",
                    "midi": 84,
                    "time": 25.074630000000017,
                    "velocity": 0.4566929133858268,
                    "duration": 0.5907960937500008
                },
                {
                    "name": "E5",
                    "midi": 76,
                    "time": 25.074630000000017,
                    "velocity": 0.29133858267716534,
                    "duration": 0.5907960937500008
                },
                {
                    "name": "E5",
                    "midi": 76,
                    "time": 25.67164500000002,
                    "velocity": 0.28346456692913385,
                    "duration": 1.194029999999998
                },
                {
                    "name": "C5",
                    "midi": 72,
                    "time": 25.67164500000002,
                    "velocity": 0.28346456692913385,
                    "duration": 1.194029999999998
                },
                {
                    "name": "A#5",
                    "midi": 82,
                    "time": 25.67164500000002,
                    "velocity": 0.4094488188976378,
                    "duration": 0.8955224999999984
                },
                {
                    "name": "C6",
                    "midi": 84,
                    "time": 26.567167500000018,
                    "velocity": 0.4251968503937008,
                    "duration": 0.2985074999999995
                },
                {
                    "name": "C5",
                    "midi": 72,
                    "time": 26.865675000000017,
                    "velocity": 0.28346456692913385,
                    "duration": 0.5907960937500008
                },
                {
                    "name": "A#5",
                    "midi": 82,
                    "time": 26.865675000000017,
                    "velocity": 0.3858267716535433,
                    "duration": 0.5907960937500008
                },
                {
                    "name": "F5",
                    "midi": 77,
                    "time": 26.865675000000017,
                    "velocity": 0.28346456692913385,
                    "duration": 0.5907960937500008
                },
                {
                    "name": "G#5",
                    "midi": 80,
                    "time": 27.46269000000002,
                    "velocity": 0.3700787401574803,
                    "duration": 0.19900499999999965
                },
                {
                    "name": "C5",
                    "midi": 72,
                    "time": 27.46269000000002,
                    "velocity": 0.2677165354330709,
                    "duration": 0.5907960937500008
                },
                {
                    "name": "F5",
                    "midi": 77,
                    "time": 27.46269000000002,
                    "velocity": 0.2677165354330709,
                    "duration": 0.5907960937500008
                },
                {
                    "name": "A#5",
                    "midi": 82,
                    "time": 27.66169500000002,
                    "velocity": 0.4094488188976378,
                    "duration": 0.09950249999999983
                },
                {
                    "name": "G#5",
                    "midi": 80,
                    "time": 27.76119750000002,
                    "velocity": 0.4094488188976378,
                    "duration": 0.09950249999999983
                },
                {
                    "name": "G5",
                    "midi": 79,
                    "time": 27.86070000000002,
                    "velocity": 0.4094488188976378,
                    "duration": 0.09950249999999983
                },
                {
                    "name": "G#5",
                    "midi": 80,
                    "time": 27.96020250000002,
                    "velocity": 0.4094488188976378,
                    "duration": 0.09950250000000338
                },
                {
                    "name": "C#5",
                    "midi": 73,
                    "time": 28.059705000000022,
                    "velocity": 0.30708661417322836,
                    "duration": 0.597014999999999
                },
                {
                    "name": "G5",
                    "midi": 79,
                    "time": 28.059705000000022,
                    "velocity": 0.30708661417322836,
                    "duration": 0.597014999999999
                },
                {
                    "name": "C6",
                    "midi": 84,
                    "time": 28.059705000000022,
                    "velocity": 0.5275590551181102,
                    "duration": 0.4477612499999992
                },
                {
                    "name": "A#5",
                    "midi": 82,
                    "time": 28.50746625000002,
                    "velocity": 0.49606299212598426,
                    "duration": 0.14925374999999974
                },
                {
                    "name": "G#5",
                    "midi": 80,
                    "time": 28.65672000000002,
                    "velocity": 0.4409448818897638,
                    "duration": 1.1940300000000015
                },
                {
                    "name": "C5",
                    "midi": 72,
                    "time": 28.65672000000002,
                    "velocity": 0.28346456692913385,
                    "duration": 1.1940300000000015
                },
                {
                    "name": "D#4",
                    "midi": 63,
                    "time": 29.850750000000023,
                    "velocity": 0.36220472440944884,
                    "duration": 0.5907960937500008
                },
                {
                    "name": "C4",
                    "midi": 60,
                    "time": 30.447765000000025,
                    "velocity": 0.2677165354330709,
                    "duration": 0.5907960937500008
                },
                {
                    "name": "D#4",
                    "midi": 63,
                    "time": 30.447765000000025,
                    "velocity": 0.2677165354330709,
                    "duration": 0.5907960937500008
                },
                {
                    "name": "G#4",
                    "midi": 68,
                    "time": 30.447765000000025,
                    "velocity": 0.36220472440944884,
                    "duration": 0.5907960937500008
                },
                {
                    "name": "G#4",
                    "midi": 68,
                    "time": 31.044780000000028,
                    "velocity": 0.36220472440944884,
                    "duration": 0.8955224999999984
                },
                {
                    "name": "C4",
                    "midi": 60,
                    "time": 31.044780000000028,
                    "velocity": 0.2677165354330709,
                    "duration": 1.1940300000000015
                },
                {
                    "name": "D#4",
                    "midi": 63,
                    "time": 31.044780000000028,
                    "velocity": 0.2677165354330709,
                    "duration": 1.1940300000000015
                },
                {
                    "name": "A#4",
                    "midi": 70,
                    "time": 31.940302500000026,
                    "velocity": 0.30708661417322836,
                    "duration": 0.29850750000000303
                },
                {
                    "name": "C#4",
                    "midi": 61,
                    "time": 32.23881000000003,
                    "velocity": 0.2677165354330709,
                    "duration": 0.5907960937500008
                },
                {
                    "name": "G#4",
                    "midi": 68,
                    "time": 32.23881000000003,
                    "velocity": 0.36220472440944884,
                    "duration": 0.5907960937500008
                },
                {
                    "name": "D#4",
                    "midi": 63,
                    "time": 32.23881000000003,
                    "velocity": 0.2677165354330709,
                    "duration": 0.5907960937500008
                },
                {
                    "name": "G4",
                    "midi": 67,
                    "time": 32.83582500000003,
                    "velocity": 0.36220472440944884,
                    "duration": 0.8955224999999984
                },
                {
                    "name": "D#4",
                    "midi": 63,
                    "time": 32.83582500000003,
                    "velocity": 0.2677165354330709,
                    "duration": 1.194029999999998
                },
                {
                    "name": "C#4",
                    "midi": 61,
                    "time": 32.83582500000003,
                    "velocity": 0.2677165354330709,
                    "duration": 1.194029999999998
                },
                {
                    "name": "A#4",
                    "midi": 70,
                    "time": 33.73134750000003,
                    "velocity": 0.29133858267716534,
                    "duration": 0.2960199374999988
                },
                {
                    "name": "A#4",
                    "midi": 70,
                    "time": 34.029855000000026,
                    "velocity": 0.36220472440944884,
                    "duration": 0.5907960937500008
                },
                {
                    "name": "D#4",
                    "midi": 63,
                    "time": 34.626870000000025,
                    "velocity": 0.2992125984251969,
                    "duration": 0.5907960937500008
                },
                {
                    "name": "G#4",
                    "midi": 68,
                    "time": 34.626870000000025,
                    "velocity": 0.4015748031496063,
                    "duration": 0.5907960937500008
                },
                {
                    "name": "D#4",
                    "midi": 63,
                    "time": 35.223885000000024,
                    "velocity": 0.30708661417322836,
                    "duration": 0.5907960937500008
                },
                {
                    "name": "C#4",
                    "midi": 61,
                    "time": 35.223885000000024,
                    "velocity": 0.30708661417322836,
                    "duration": 0.5907960937500008
                },
                {
                    "name": "A#4",
                    "midi": 70,
                    "time": 35.223885000000024,
                    "velocity": 0.4094488188976378,
                    "duration": 0.5907960937500008
                },
                {
                    "name": "C5",
                    "midi": 72,
                    "time": 35.82090000000002,
                    "velocity": 0.4330708661417323,
                    "duration": 1.194029999999998
                },
                {
                    "name": "D#4",
                    "midi": 63,
                    "time": 35.82090000000002,
                    "velocity": 0.31496062992125984,
                    "duration": 1.194029999999998
                },
                {
                    "name": "C4",
                    "midi": 60,
                    "time": 35.82090000000002,
                    "velocity": 0.31496062992125984,
                    "duration": 1.194029999999998
                },
                {
                    "name": "D#4",
                    "midi": 63,
                    "time": 37.01493000000002,
                    "velocity": 0.4330708661417323,
                    "duration": 0.5907960937500008
                },
                {
                    "name": "C4",
                    "midi": 60,
                    "time": 37.61194500000002,
                    "velocity": 0.3858267716535433,
                    "duration": 0.5907960937500008
                },
                {
                    "name": "D#4",
                    "midi": 63,
                    "time": 37.61194500000002,
                    "velocity": 0.3858267716535433,
                    "duration": 0.5907960937500008
                },
                {
                    "name": "C5",
                    "midi": 72,
                    "time": 37.61194500000002,
                    "velocity": 0.5196850393700787,
                    "duration": 0.5907960937500008
                },
                {
                    "name": "D#4",
                    "midi": 63,
                    "time": 38.20896000000002,
                    "velocity": 0.3937007874015748,
                    "duration": 0.8955224999999984
                },
                {
                    "name": "C4",
                    "midi": 60,
                    "time": 38.20896000000002,
                    "velocity": 0.3937007874015748,
                    "duration": 0.8955224999999984
                },
                {
                    "name": "C5",
                    "midi": 72,
                    "time": 38.20896000000002,
                    "velocity": 0.5275590551181102,
                    "duration": 0.8955224999999984
                },
                {
                    "name": "D#4",
                    "midi": 63,
                    "time": 39.10448250000002,
                    "velocity": 0.33070866141732286,
                    "duration": 0.2985074999999995
                },
                {
                    "name": "C#4",
                    "midi": 61,
                    "time": 39.10448250000002,
                    "velocity": 0.33070866141732286,
                    "duration": 0.2985074999999995
                },
                {
                    "name": "C#5",
                    "midi": 73,
                    "time": 39.10448250000002,
                    "velocity": 0.44881889763779526,
                    "duration": 0.2985074999999995
                },
                {
                    "name": "C4",
                    "midi": 60,
                    "time": 39.40299000000002,
                    "velocity": 0.3779527559055118,
                    "duration": 0.5907960937500008
                },
                {
                    "name": "D#4",
                    "midi": 63,
                    "time": 39.40299000000002,
                    "velocity": 0.3779527559055118,
                    "duration": 0.5907960937500008
                },
                {
                    "name": "C5",
                    "midi": 72,
                    "time": 39.40299000000002,
                    "velocity": 0.5118110236220472,
                    "duration": 0.5907960937500008
                },
                {
                    "name": "A#4",
                    "midi": 70,
                    "time": 40.000005000000016,
                    "velocity": 0.4566929133858268,
                    "duration": 0.8955224999999984
                },
                {
                    "name": "D#4",
                    "midi": 63,
                    "time": 40.000005000000016,
                    "velocity": 0.33858267716535434,
                    "duration": 0.8955224999999984
                },
                {
                    "name": "A#3",
                    "midi": 58,
                    "time": 40.000005000000016,
                    "velocity": 0.33858267716535434,
                    "duration": 0.8955224999999984
                },
                {
                    "name": "C5",
                    "midi": 72,
                    "time": 40.895527500000014,
                    "velocity": 0.4094488188976378,
                    "duration": 0.2985074999999995
                },
                {
                    "name": "D#4",
                    "midi": 63,
                    "time": 40.895527500000014,
                    "velocity": 0.30708661417322836,
                    "duration": 0.2985074999999995
                },
                {
                    "name": "C4",
                    "midi": 60,
                    "time": 40.895527500000014,
                    "velocity": 0.30708661417322836,
                    "duration": 0.2985074999999995
                },
                {
                    "name": "A#3",
                    "midi": 58,
                    "time": 41.194035000000014,
                    "velocity": 0.3228346456692913,
                    "duration": 0.5907960937500008
                },
                {
                    "name": "D#4",
                    "midi": 63,
                    "time": 41.194035000000014,
                    "velocity": 0.3228346456692913,
                    "duration": 0.5907960937500008
                },
                {
                    "name": "A#4",
                    "midi": 70,
                    "time": 41.194035000000014,
                    "velocity": 0.4409448818897638,
                    "duration": 0.5907960937500008
                },
                {
                    "name": "G#3",
                    "midi": 56,
                    "time": 41.79105000000001,
                    "velocity": 0.30708661417322836,
                    "duration": 0.5907960937500008
                },
                {
                    "name": "D#4",
                    "midi": 63,
                    "time": 41.79105000000001,
                    "velocity": 0.30708661417322836,
                    "duration": 0.5907960937500008
                },
                {
                    "name": "G#4",
                    "midi": 68,
                    "time": 41.79105000000001,
                    "velocity": 0.4094488188976378,
                    "duration": 0.5907960937500008
                },
                {
                    "name": "A#4",
                    "midi": 70,
                    "time": 42.38806500000001,
                    "velocity": 0.4409448818897638,
                    "duration": 0.597014999999999
                },
                {
                    "name": "D#4",
                    "midi": 63,
                    "time": 42.38806500000001,
                    "velocity": 0.3858267716535433,
                    "duration": 0.597014999999999
                },
                {
                    "name": "D#5",
                    "midi": 75,
                    "time": 42.38806500000001,
                    "velocity": 0.5196850393700787,
                    "duration": 0.4477612499999992
                },
                {
                    "name": "C#5",
                    "midi": 73,
                    "time": 42.83582625000001,
                    "velocity": 0.47244094488188976,
                    "duration": 0.14925374999999974
                },
                {
                    "name": "D#4",
                    "midi": 63,
                    "time": 42.98508000000001,
                    "velocity": 0.29133858267716534,
                    "duration": 1.194029999999998
                },
                {
                    "name": "G#4",
                    "midi": 68,
                    "time": 42.98508000000001,
                    "velocity": 0.29133858267716534,
                    "duration": 1.194029999999998
                },
                {
                    "name": "C5",
                    "midi": 72,
                    "time": 42.98508000000001,
                    "velocity": 0.3937007874015748,
                    "duration": 1.194029999999998
                },
                {
                    "name": "D#5",
                    "midi": 75,
                    "time": 44.17911000000001,
                    "velocity": 0.4409448818897638,
                    "duration": 0.5907960937500008
                },
                {
                    "name": "G#5",
                    "midi": 80,
                    "time": 44.77612500000001,
                    "velocity": 0.4251968503937008,
                    "duration": 0.5907960937500008
                },
                {
                    "name": "D#5",
                    "midi": 75,
                    "time": 44.77612500000001,
                    "velocity": 0.2677165354330709,
                    "duration": 0.5907960937500008
                },
                {
                    "name": "C5",
                    "midi": 72,
                    "time": 44.77612500000001,
                    "velocity": 0.2677165354330709,
                    "duration": 0.5907960937500008
                },
                {
                    "name": "C5",
                    "midi": 72,
                    "time": 45.37314000000001,
                    "velocity": 0.2677165354330709,
                    "duration": 1.194029999999998
                },
                {
                    "name": "G#5",
                    "midi": 80,
                    "time": 45.37314000000001,
                    "velocity": 0.44881889763779526,
                    "duration": 0.8955224999999984
                },
                {
                    "name": "D#5",
                    "midi": 75,
                    "time": 45.37314000000001,
                    "velocity": 0.2677165354330709,
                    "duration": 1.194029999999998
                },
                {
                    "name": "A#5",
                    "midi": 82,
                    "time": 46.268662500000005,
                    "velocity": 0.41732283464566927,
                    "duration": 0.2985074999999995
                },
                {
                    "name": "C#5",
                    "midi": 73,
                    "time": 46.567170000000004,
                    "velocity": 0.2677165354330709,
                    "duration": 0.5907960937500008
                },
                {
                    "name": "G#5",
                    "midi": 80,
                    "time": 46.567170000000004,
                    "velocity": 0.44881889763779526,
                    "duration": 0.5907960937500008
                },
                {
                    "name": "D#5",
                    "midi": 75,
                    "time": 46.567170000000004,
                    "velocity": 0.2677165354330709,
                    "duration": 0.5907960937500008
                },
                {
                    "name": "C#5",
                    "midi": 73,
                    "time": 47.164185,
                    "velocity": 0.2677165354330709,
                    "duration": 1.194029999999998
                },
                {
                    "name": "G5",
                    "midi": 79,
                    "time": 47.164185,
                    "velocity": 0.44881889763779526,
                    "duration": 0.8955224999999984
                },
                {
                    "name": "D#5",
                    "midi": 75,
                    "time": 47.164185,
                    "velocity": 0.2677165354330709,
                    "duration": 1.194029999999998
                },
                {
                    "name": "A#5",
                    "midi": 82,
                    "time": 48.0597075,
                    "velocity": 0.44881889763779526,
                    "duration": 0.2960199374999988
                },
                {
                    "name": "A#5",
                    "midi": 82,
                    "time": 48.358215,
                    "velocity": 0.44881889763779526,
                    "duration": 0.5907960937500008
                },
                {
                    "name": "D#5",
                    "midi": 75,
                    "time": 48.95523,
                    "velocity": 0.2755905511811024,
                    "duration": 0.5907960937500008
                },
                {
                    "name": "G#5",
                    "midi": 80,
                    "time": 48.95523,
                    "velocity": 0.4645669291338583,
                    "duration": 0.5907960937500008
                },
                {
                    "name": "D#5",
                    "midi": 75,
                    "time": 49.552245,
                    "velocity": 0.29133858267716534,
                    "duration": 0.5907960937500008
                },
                {
                    "name": "A#5",
                    "midi": 82,
                    "time": 49.552245,
                    "velocity": 0.4881889763779528,
                    "duration": 0.5907960937500008
                },
                {
                    "name": "C#5",
                    "midi": 73,
                    "time": 49.552245,
                    "velocity": 0.29133858267716534,
                    "duration": 0.5907960937500008
                },
                {
                    "name": "D#5",
                    "midi": 75,
                    "time": 50.14926,
                    "velocity": 0.31496062992125984,
                    "duration": 1.194029999999998
                },
                {
                    "name": "C5",
                    "midi": 72,
                    "time": 50.14926,
                    "velocity": 0.31496062992125984,
                    "duration": 1.194029999999998
                },
                {
                    "name": "C6",
                    "midi": 84,
                    "time": 50.14926,
                    "velocity": 0.5196850393700787,
                    "duration": 1.194029999999998
                },
                {
                    "name": "D#5",
                    "midi": 75,
                    "time": 51.343289999999996,
                    "velocity": 0.5118110236220472,
                    "duration": 0.5907960937500008
                },
                {
                    "name": "C5",
                    "midi": 72,
                    "time": 51.940304999999995,
                    "velocity": 0.3464566929133858,
                    "duration": 0.5907960937500008
                },
                {
                    "name": "C6",
                    "midi": 84,
                    "time": 51.940304999999995,
                    "velocity": 0.5748031496062992,
                    "duration": 0.5907960937500008
                },
                {
                    "name": "D#5",
                    "midi": 75,
                    "time": 51.940304999999995,
                    "velocity": 0.3464566929133858,
                    "duration": 0.5907960937500008
                },
                {
                    "name": "D#5",
                    "midi": 75,
                    "time": 52.537319999999994,
                    "velocity": 0.3464566929133858,
                    "duration": 1.194029999999998
                },
                {
                    "name": "C6",
                    "midi": 84,
                    "time": 52.537319999999994,
                    "velocity": 0.5826771653543307,
                    "duration": 0.8955224999999984
                },
                {
                    "name": "C5",
                    "midi": 72,
                    "time": 52.537319999999994,
                    "velocity": 0.3464566929133858,
                    "duration": 1.194029999999998
                },
                {
                    "name": "C#6",
                    "midi": 85,
                    "time": 53.43284249999999,
                    "velocity": 0.5118110236220472,
                    "duration": 0.2985074999999995
                },
                {
                    "name": "C6",
                    "midi": 84,
                    "time": 53.73134999999999,
                    "velocity": 0.4566929133858268,
                    "duration": 0.5907960937500008
                },
                {
                    "name": "E5",
                    "midi": 76,
                    "time": 53.73134999999999,
                    "velocity": 0.29133858267716534,
                    "duration": 0.5907960937500008
                },
                {
                    "name": "C5",
                    "midi": 72,
                    "time": 53.73134999999999,
                    "velocity": 0.29133858267716534,
                    "duration": 0.5907960937500008
                },
                {
                    "name": "A#5",
                    "midi": 82,
                    "time": 54.32836499999999,
                    "velocity": 0.4094488188976378,
                    "duration": 0.8955224999999984
                },
                {
                    "name": "E5",
                    "midi": 76,
                    "time": 54.32836499999999,
                    "velocity": 0.28346456692913385,
                    "duration": 1.194029999999998
                },
                {
                    "name": "C5",
                    "midi": 72,
                    "time": 54.32836499999999,
                    "velocity": 0.28346456692913385,
                    "duration": 1.194029999999998
                },
                {
                    "name": "C6",
                    "midi": 84,
                    "time": 55.22388749999999,
                    "velocity": 0.4251968503937008,
                    "duration": 0.2985074999999995
                },
                {
                    "name": "F5",
                    "midi": 77,
                    "time": 55.52239499999999,
                    "velocity": 0.28346456692913385,
                    "duration": 0.597014999999999
                },
                {
                    "name": "A#5",
                    "midi": 82,
                    "time": 55.52239499999999,
                    "velocity": 0.3858267716535433,
                    "duration": 0.597014999999999
                },
                {
                    "name": "C5",
                    "midi": 72,
                    "time": 55.52239499999999,
                    "velocity": 0.28346456692913385,
                    "duration": 0.597014999999999
                },
                {
                    "name": "G#5",
                    "midi": 80,
                    "time": 56.11940999999999,
                    "velocity": 0.3700787401574803,
                    "duration": 0.19900499999999965
                },
                {
                    "name": "C5",
                    "midi": 72,
                    "time": 56.11940999999999,
                    "velocity": 0.2677165354330709,
                    "duration": 0.597014999999999
                },
                {
                    "name": "F5",
                    "midi": 77,
                    "time": 56.11940999999999,
                    "velocity": 0.2677165354330709,
                    "duration": 0.597014999999999
                },
                {
                    "name": "A#5",
                    "midi": 82,
                    "time": 56.31841499999999,
                    "velocity": 0.4094488188976378,
                    "duration": 0.09950249999999983
                },
                {
                    "name": "G#5",
                    "midi": 80,
                    "time": 56.41791749999999,
                    "velocity": 0.4094488188976378,
                    "duration": 0.09950249999999983
                },
                {
                    "name": "G5",
                    "midi": 79,
                    "time": 56.51741999999999,
                    "velocity": 0.4094488188976378,
                    "duration": 0.09950249999999983
                },
                {
                    "name": "G#5",
                    "midi": 80,
                    "time": 56.61692249999999,
                    "velocity": 0.4094488188976378,
                    "duration": 0.09950249999999983
                },
                {
                    "name": "C#5",
                    "midi": 73,
                    "time": 56.71642499999999,
                    "velocity": 0.30708661417322836,
                    "duration": 0.597014999999999
                },
                {
                    "name": "C6",
                    "midi": 84,
                    "time": 56.71642499999999,
                    "velocity": 0.5275590551181102,
                    "duration": 0.4477612499999992
                },
                {
                    "name": "G5",
                    "midi": 79,
                    "time": 56.71642499999999,
                    "velocity": 0.30708661417322836,
                    "duration": 0.597014999999999
                },
                {
                    "name": "A#5",
                    "midi": 82,
                    "time": 57.164186249999986,
                    "velocity": 0.49606299212598426,
                    "duration": 0.14925374999999974
                },
                {
                    "name": "C5",
                    "midi": 72,
                    "time": 57.313439999999986,
                    "velocity": 0.28346456692913385,
                    "duration": 1.194029999999998
                },
                {
                    "name": "G#5",
                    "midi": 80,
                    "time": 57.313439999999986,
                    "velocity": 0.4330708661417323,
                    "duration": 1.194029999999998
                },
                {
                    "name": "D#4",
                    "midi": 63,
                    "time": 58.80597749999998,
                    "velocity": 0.5354330708661418,
                    "duration": 0.2960199374999988
                },
                {
                    "name": "G#4",
                    "midi": 68,
                    "time": 58.80597749999998,
                    "velocity": 0.5354330708661418,
                    "duration": 0.2960199374999988
                },
                {
                    "name": "D#5",
                    "midi": 75,
                    "time": 58.80597749999998,
                    "velocity": 0.6299212598425197,
                    "duration": 0.2960199374999988
                },
                {
                    "name": "D#4",
                    "midi": 63,
                    "time": 59.10448499999998,
                    "velocity": 0.6062992125984252,
                    "duration": 0.5907960937500008
                },
                {
                    "name": "D#5",
                    "midi": 75,
                    "time": 59.10448499999998,
                    "velocity": 0.7165354330708661,
                    "duration": 0.5907960937500008
                },
                {
                    "name": "G#4",
                    "midi": 68,
                    "time": 59.10448499999998,
                    "velocity": 0.6062992125984252,
                    "duration": 0.5907960937500008
                },
                {
                    "name": "G#4",
                    "midi": 68,
                    "time": 59.70149999999998,
                    "velocity": 0.5826771653543307,
                    "duration": 0.8868160312499995
                },
                {
                    "name": "D#4",
                    "midi": 63,
                    "time": 59.70149999999998,
                    "velocity": 0.5826771653543307,
                    "duration": 0.8868160312499995
                },
                {
                    "name": "D#5",
                    "midi": 75,
                    "time": 59.70149999999998,
                    "velocity": 0.6929133858267716,
                    "duration": 0.8868160312499995
                },
                {
                    "name": "D#4",
                    "midi": 63,
                    "time": 60.59702249999998,
                    "velocity": 0.5354330708661418,
                    "duration": 0.2960199374999988
                },
                {
                    "name": "C5",
                    "midi": 72,
                    "time": 60.59702249999998,
                    "velocity": 0.6299212598425197,
                    "duration": 0.2960199374999988
                },
                {
                    "name": "C4",
                    "midi": 60,
                    "time": 60.59702249999998,
                    "velocity": 0.5354330708661418,
                    "duration": 0.2960199374999988
                },
                {
                    "name": "D#4",
                    "midi": 63,
                    "time": 60.89552999999998,
                    "velocity": 0.6062992125984252,
                    "duration": 0.5907960937500008
                },
                {
                    "name": "C5",
                    "midi": 72,
                    "time": 60.89552999999998,
                    "velocity": 0.7165354330708661,
                    "duration": 0.5907960937500008
                },
                {
                    "name": "C4",
                    "midi": 60,
                    "time": 60.89552999999998,
                    "velocity": 0.6062992125984252,
                    "duration": 0.5907960937500008
                },
                {
                    "name": "C4",
                    "midi": 60,
                    "time": 61.49254499999998,
                    "velocity": 0.5748031496062992,
                    "duration": 0.8868160312499995
                },
                {
                    "name": "D#4",
                    "midi": 63,
                    "time": 61.49254499999998,
                    "velocity": 0.5748031496062992,
                    "duration": 0.8868160312499995
                },
                {
                    "name": "C5",
                    "midi": 72,
                    "time": 61.49254499999998,
                    "velocity": 0.6771653543307087,
                    "duration": 0.8868160312499995
                },
                {
                    "name": "F4",
                    "midi": 65,
                    "time": 62.38806749999998,
                    "velocity": 0.5275590551181102,
                    "duration": 0.2985074999999995
                },
                {
                    "name": "G#4",
                    "midi": 68,
                    "time": 62.38806749999998,
                    "velocity": 0.6220472440944882,
                    "duration": 0.2985074999999995
                },
                {
                    "name": "C4",
                    "midi": 60,
                    "time": 62.38806749999998,
                    "velocity": 0.5275590551181102,
                    "duration": 0.2985074999999995
                },
                {
                    "name": "F4",
                    "midi": 65,
                    "time": 62.686574999999976,
                    "velocity": 0.5275590551181102,
                    "duration": 0.4477612499999992
                },
                {
                    "name": "G#4",
                    "midi": 68,
                    "time": 62.686574999999976,
                    "velocity": 0.6220472440944882,
                    "duration": 0.4477612499999992
                },
                {
                    "name": "C4",
                    "midi": 60,
                    "time": 62.686574999999976,
                    "velocity": 0.5275590551181102,
                    "duration": 0.4477612499999992
                },
                {
                    "name": "C#4",
                    "midi": 61,
                    "time": 63.283589999999975,
                    "velocity": 0.5354330708661418,
                    "duration": 0.4477612499999992
                },
                {
                    "name": "D#4",
                    "midi": 63,
                    "time": 63.283589999999975,
                    "velocity": 0.5354330708661418,
                    "duration": 0.4477612499999992
                },
                {
                    "name": "A#4",
                    "midi": 70,
                    "time": 63.283589999999975,
                    "velocity": 0.6299212598425197,
                    "duration": 0.4477612499999992
                },
                {
                    "name": "D#4",
                    "midi": 63,
                    "time": 63.880604999999974,
                    "velocity": 0.5354330708661418,
                    "duration": 0.4477612499999992
                },
                {
                    "name": "C#4",
                    "midi": 61,
                    "time": 63.880604999999974,
                    "velocity": 0.5354330708661418,
                    "duration": 0.4477612499999992
                },
                {
                    "name": "G4",
                    "midi": 67,
                    "time": 63.880604999999974,
                    "velocity": 0.5354330708661418,
                    "duration": 0.4477612499999992
                },
                {
                    "name": "C#5",
                    "midi": 73,
                    "time": 63.880604999999974,
                    "velocity": 0.6299212598425197,
                    "duration": 0.4477612499999992
                },
                {
                    "name": "A#4",
                    "midi": 70,
                    "time": 63.880604999999974,
                    "velocity": 0.5354330708661418,
                    "duration": 0.4477612499999992
                },
                {
                    "name": "C5",
                    "midi": 72,
                    "time": 64.47761999999997,
                    "velocity": 0.6299212598425197,
                    "duration": 1.4925374999999974
                },
                {
                    "name": "C4",
                    "midi": 60,
                    "time": 64.47761999999997,
                    "velocity": 0.5354330708661418,
                    "duration": 1.4925374999999974
                },
                {
                    "name": "D#4",
                    "midi": 63,
                    "time": 64.47761999999997,
                    "velocity": 0.5354330708661418,
                    "duration": 1.4925374999999974
                },
                {
                    "name": "G#4",
                    "midi": 68,
                    "time": 64.47761999999997,
                    "velocity": 0.6299212598425197,
                    "duration": 1.4925374999999974
                },
                {
                    "name": "F5",
                    "midi": 77,
                    "time": 65.97015749999997,
                    "velocity": 0.7322834645669292,
                    "duration": 0.2960199375000059
                },
                {
                    "name": "F4",
                    "midi": 65,
                    "time": 65.97015749999997,
                    "velocity": 0.6220472440944882,
                    "duration": 0.2960199375000059
                },
                {
                    "name": "G#4",
                    "midi": 68,
                    "time": 65.97015749999997,
                    "velocity": 0.6220472440944882,
                    "duration": 0.2960199375000059
                },
                {
                    "name": "F4",
                    "midi": 65,
                    "time": 66.26866499999997,
                    "velocity": 0.6692913385826772,
                    "duration": 0.5907960937500008
                },
                {
                    "name": "F5",
                    "midi": 77,
                    "time": 66.26866499999997,
                    "velocity": 0.7874015748031497,
                    "duration": 0.5907960937500008
                },
                {
                    "name": "G#4",
                    "midi": 68,
                    "time": 66.26866499999997,
                    "velocity": 0.6692913385826772,
                    "duration": 0.5907960937500008
                },
                {
                    "name": "G#4",
                    "midi": 68,
                    "time": 66.86567999999997,
                    "velocity": 0.6692913385826772,
                    "duration": 0.8868160312500066
                },
                {
                    "name": "F4",
                    "midi": 65,
                    "time": 66.86567999999997,
                    "velocity": 0.6692913385826772,
                    "duration": 0.8868160312500066
                },
                {
                    "name": "F5",
                    "midi": 77,
                    "time": 66.86567999999997,
                    "velocity": 0.7874015748031497,
                    "duration": 0.8868160312500066
                },
                {
                    "name": "C#5",
                    "midi": 73,
                    "time": 67.76120249999998,
                    "velocity": 0.7322834645669292,
                    "duration": 0.2960199375000059
                },
                {
                    "name": "F4",
                    "midi": 65,
                    "time": 67.76120249999998,
                    "velocity": 0.6220472440944882,
                    "duration": 0.2960199375000059
                },
                {
                    "name": "G#4",
                    "midi": 68,
                    "time": 67.76120249999998,
                    "velocity": 0.6220472440944882,
                    "duration": 0.2960199375000059
                },
                {
                    "name": "F4",
                    "midi": 65,
                    "time": 68.05970999999998,
                    "velocity": 0.6692913385826772,
                    "duration": 0.5907960937500008
                },
                {
                    "name": "G#4",
                    "midi": 68,
                    "time": 68.05970999999998,
                    "velocity": 0.6692913385826772,
                    "duration": 0.5907960937500008
                },
                {
                    "name": "C#5",
                    "midi": 73,
                    "time": 68.05970999999998,
                    "velocity": 0.7874015748031497,
                    "duration": 0.5907960937500008
                },
                {
                    "name": "F4",
                    "midi": 65,
                    "time": 68.65672499999998,
                    "velocity": 0.6692913385826772,
                    "duration": 0.8868160312500066
                },
                {
                    "name": "G#4",
                    "midi": 68,
                    "time": 68.65672499999998,
                    "velocity": 0.6692913385826772,
                    "duration": 0.8868160312500066
                },
                {
                    "name": "C#5",
                    "midi": 73,
                    "time": 68.65672499999998,
                    "velocity": 0.7874015748031497,
                    "duration": 0.8868160312500066
                },
                {
                    "name": "F4",
                    "midi": 65,
                    "time": 69.5522475,
                    "velocity": 0.6220472440944882,
                    "duration": 0.2960199375000059
                },
                {
                    "name": "G#4",
                    "midi": 68,
                    "time": 69.5522475,
                    "velocity": 0.7322834645669292,
                    "duration": 0.2960199375000059
                },
                {
                    "name": "G#4",
                    "midi": 68,
                    "time": 69.85075499999999,
                    "velocity": 0.7795275590551181,
                    "duration": 0.4477612499999992
                },
                {
                    "name": "F4",
                    "midi": 65,
                    "time": 69.85075499999999,
                    "velocity": 0.6614173228346457,
                    "duration": 0.4477612499999992
                },
                {
                    "name": "F#4",
                    "midi": 66,
                    "time": 70.44776999999999,
                    "velocity": 0.6614173228346457,
                    "duration": 0.4477612499999992
                },
                {
                    "name": "A4",
                    "midi": 69,
                    "time": 70.44776999999999,
                    "velocity": 0.6614173228346457,
                    "duration": 0.4477612499999992
                },
                {
                    "name": "C#5",
                    "midi": 73,
                    "time": 70.44776999999999,
                    "velocity": 0.7795275590551181,
                    "duration": 0.4477612499999992
                },
                {
                    "name": "F#4",
                    "midi": 66,
                    "time": 71.04478499999999,
                    "velocity": 0.6614173228346457,
                    "duration": 0.4477612499999992
                },
                {
                    "name": "F#5",
                    "midi": 78,
                    "time": 71.04478499999999,
                    "velocity": 0.7795275590551181,
                    "duration": 0.4477612499999992
                },
                {
                    "name": "A4",
                    "midi": 69,
                    "time": 71.04478499999999,
                    "velocity": 0.6614173228346457,
                    "duration": 0.4477612499999992
                },
                {
                    "name": "C#5",
                    "midi": 73,
                    "time": 71.04478499999999,
                    "velocity": 0.6614173228346457,
                    "duration": 0.4477612499999992
                },
                {
                    "name": "F5",
                    "midi": 77,
                    "time": 71.64179999999999,
                    "velocity": 0.7795275590551181,
                    "duration": 1.4925374999999974
                },
                {
                    "name": "F4",
                    "midi": 65,
                    "time": 71.64179999999999,
                    "velocity": 0.6614173228346457,
                    "duration": 1.194029999999998
                },
                {
                    "name": "G#4",
                    "midi": 68,
                    "time": 71.64179999999999,
                    "velocity": 0.6614173228346457,
                    "duration": 1.4925374999999974
                },
                {
                    "name": "C#5",
                    "midi": 73,
                    "time": 71.64179999999999,
                    "velocity": 0.6614173228346457,
                    "duration": 1.4925374999999974
                },
                {
                    "name": "F#5",
                    "midi": 78,
                    "time": 73.13433749999999,
                    "velocity": 0.8031496062992126,
                    "duration": 0.2960199375000059
                },
                {
                    "name": "F#4",
                    "midi": 66,
                    "time": 73.13433749999999,
                    "velocity": 0.6771653543307087,
                    "duration": 0.2960199375000059
                },
                {
                    "name": "C#5",
                    "midi": 73,
                    "time": 73.13433749999999,
                    "velocity": 0.6771653543307087,
                    "duration": 0.2960199375000059
                },
                {
                    "name": "F#5",
                    "midi": 78,
                    "time": 73.43284499999999,
                    "velocity": 0.8110236220472441,
                    "duration": 1.791044999999997
                },
                {
                    "name": "C#5",
                    "midi": 73,
                    "time": 73.43284499999999,
                    "velocity": 0.6850393700787402,
                    "duration": 1.791044999999997
                },
                {
                    "name": "F#4",
                    "midi": 66,
                    "time": 73.43284499999999,
                    "velocity": 0.6850393700787402,
                    "duration": 1.791044999999997
                },
                {
                    "name": "E5",
                    "midi": 76,
                    "time": 75.22388999999998,
                    "velocity": 0.48031496062992124,
                    "duration": 0.597014999999999
                },
                {
                    "name": "G4",
                    "midi": 67,
                    "time": 75.22388999999998,
                    "velocity": 0.4015748031496063,
                    "duration": 1.4925374999999974
                },
                {
                    "name": "C#5",
                    "midi": 73,
                    "time": 75.22388999999998,
                    "velocity": 0.4015748031496063,
                    "duration": 1.194029999999998
                },
                {
                    "name": "D#5",
                    "midi": 75,
                    "time": 75.82090499999998,
                    "velocity": 0.48031496062992124,
                    "duration": 0.597014999999999
                },
                {
                    "name": "C#5",
                    "midi": 73,
                    "time": 76.41791999999998,
                    "velocity": 0.47244094488188976,
                    "duration": 0.2985074999999995
                },
                {
                    "name": "C#4",
                    "midi": 61,
                    "time": 76.71642749999998,
                    "velocity": 0.44881889763779526,
                    "duration": 0.14925374999999974
                },
                {
                    "name": "G#4",
                    "midi": 68,
                    "time": 76.71642749999998,
                    "velocity": 0.5354330708661418,
                    "duration": 0.14925374999999974
                },
                {
                    "name": "G#4",
                    "midi": 68,
                    "time": 77.01493499999998,
                    "velocity": 0.5354330708661418,
                    "duration": 1.4925374999999974
                },
                {
                    "name": "C#4",
                    "midi": 61,
                    "time": 77.01493499999998,
                    "velocity": 0.44881889763779526,
                    "duration": 1.7910450000000253
                },
                {
                    "name": "A#4",
                    "midi": 70,
                    "time": 78.50747249999998,
                    "velocity": 0.2755905511811024,
                    "duration": 0.07462687500000698
                },
                {
                    "name": "G#4",
                    "midi": 68,
                    "time": 78.58209937499998,
                    "velocity": 0.2755905511811024,
                    "duration": 0.07462687500000698
                },
                {
                    "name": "G4",
                    "midi": 67,
                    "time": 78.65672624999999,
                    "velocity": 0.2755905511811024,
                    "duration": 0.07462687500000698
                },
                {
                    "name": "G#4",
                    "midi": 68,
                    "time": 78.731353125,
                    "velocity": 0.2755905511811024,
                    "duration": 0.07462687500000698
                },
                {
                    "name": "G#4",
                    "midi": 68,
                    "time": 78.80598,
                    "velocity": 0.4094488188976378,
                    "duration": 1.791044999999997
                },
                {
                    "name": "D4",
                    "midi": 62,
                    "time": 78.95523375,
                    "velocity": 0.4094488188976378,
                    "duration": 1.6417912499999971
                },
                {
                    "name": "B4",
                    "midi": 71,
                    "time": 78.95523375,
                    "velocity": 0.4094488188976378,
                    "duration": 0.4477612499999992
                },
                {
                    "name": "A#4",
                    "midi": 70,
                    "time": 79.402995,
                    "velocity": 0.41732283464566927,
                    "duration": 0.597014999999999
                },
                {
                    "name": "G#4",
                    "midi": 68,
                    "time": 80.00001,
                    "velocity": 0.41732283464566927,
                    "duration": 0.597014999999999
                },
                {
                    "name": "C4",
                    "midi": 60,
                    "time": 80.597025,
                    "velocity": 0.2677165354330709,
                    "duration": 1.791044999999997
                },
                {
                    "name": "D#4",
                    "midi": 63,
                    "time": 80.597025,
                    "velocity": 0.31496062992125984,
                    "duration": 0.5907960937500008
                },
                {
                    "name": "G#3",
                    "midi": 56,
                    "time": 80.597025,
                    "velocity": 0.2677165354330709,
                    "duration": 1.791044999999997
                },
                {
                    "name": "D#4",
                    "midi": 63,
                    "time": 81.19404,
                    "velocity": 0.31496062992125984,
                    "duration": 1.194029999999998
                },
                {
                    "name": "G3",
                    "midi": 55,
                    "time": 82.38807,
                    "velocity": 0.2677165354330709,
                    "duration": 1.194029999999998
                },
                {
                    "name": "A#3",
                    "midi": 58,
                    "time": 82.38807,
                    "velocity": 0.2677165354330709,
                    "duration": 1.194029999999998
                },
                {
                    "name": "D#4",
                    "midi": 63,
                    "time": 82.38807,
                    "velocity": 0.31496062992125984,
                    "duration": 0.5907960937500008
                },
                {
                    "name": "C#4",
                    "midi": 61,
                    "time": 82.38807,
                    "velocity": 0.2677165354330709,
                    "duration": 1.194029999999998
                },
                {
                    "name": "D#4",
                    "midi": 63,
                    "time": 82.985085,
                    "velocity": 0.31496062992125984,
                    "duration": 0.5907960937500008
                },
                {
                    "name": "D#4",
                    "midi": 63,
                    "time": 83.5821,
                    "velocity": 0.31496062992125984,
                    "duration": 0.5907960937500008
                },
                {
                    "name": "G#4",
                    "midi": 68,
                    "time": 84.179115,
                    "velocity": 0.36220472440944884,
                    "duration": 0.5907960937500008
                },
                {
                    "name": "D#4",
                    "midi": 63,
                    "time": 84.179115,
                    "velocity": 0.2677165354330709,
                    "duration": 0.5907960937500008
                },
                {
                    "name": "C4",
                    "midi": 60,
                    "time": 84.179115,
                    "velocity": 0.2677165354330709,
                    "duration": 0.5907960937500008
                },
                {
                    "name": "G#4",
                    "midi": 68,
                    "time": 84.77613,
                    "velocity": 0.36220472440944884,
                    "duration": 0.8955224999999984
                },
                {
                    "name": "D#4",
                    "midi": 63,
                    "time": 84.77613,
                    "velocity": 0.2677165354330709,
                    "duration": 1.194029999999998
                },
                {
                    "name": "C4",
                    "midi": 60,
                    "time": 84.77613,
                    "velocity": 0.2677165354330709,
                    "duration": 1.194029999999998
                },
                {
                    "name": "A#4",
                    "midi": 70,
                    "time": 85.6716525,
                    "velocity": 0.30708661417322836,
                    "duration": 0.2985074999999995
                },
                {
                    "name": "D#4",
                    "midi": 63,
                    "time": 85.97015999999999,
                    "velocity": 0.2677165354330709,
                    "duration": 0.5907960937500008
                },
                {
                    "name": "C#4",
                    "midi": 61,
                    "time": 85.97015999999999,
                    "velocity": 0.2677165354330709,
                    "duration": 0.5907960937500008
                },
                {
                    "name": "G#4",
                    "midi": 68,
                    "time": 85.97015999999999,
                    "velocity": 0.36220472440944884,
                    "duration": 0.5907960937500008
                },
                {
                    "name": "C#4",
                    "midi": 61,
                    "time": 86.56717499999999,
                    "velocity": 0.2677165354330709,
                    "duration": 1.194029999999998
                },
                {
                    "name": "D#4",
                    "midi": 63,
                    "time": 86.56717499999999,
                    "velocity": 0.2677165354330709,
                    "duration": 1.194029999999998
                },
                {
                    "name": "G4",
                    "midi": 67,
                    "time": 86.56717499999999,
                    "velocity": 0.36220472440944884,
                    "duration": 0.8955224999999984
                },
                {
                    "name": "A#4",
                    "midi": 70,
                    "time": 87.46269749999999,
                    "velocity": 0.29133858267716534,
                    "duration": 0.2960199375000059
                },
                {
                    "name": "A#4",
                    "midi": 70,
                    "time": 87.76120499999999,
                    "velocity": 0.36220472440944884,
                    "duration": 0.5907960937500008
                },
                {
                    "name": "D#4",
                    "midi": 63,
                    "time": 88.35821999999999,
                    "velocity": 0.2992125984251969,
                    "duration": 0.5907960937500008
                },
                {
                    "name": "G#4",
                    "midi": 68,
                    "time": 88.35821999999999,
                    "velocity": 0.4015748031496063,
                    "duration": 0.5907960937500008
                },
                {
                    "name": "D#4",
                    "midi": 63,
                    "time": 88.95523499999999,
                    "velocity": 0.30708661417322836,
                    "duration": 0.5907960937500008
                },
                {
                    "name": "A#4",
                    "midi": 70,
                    "time": 88.95523499999999,
                    "velocity": 0.4094488188976378,
                    "duration": 0.5907960937500008
                },
                {
                    "name": "C#4",
                    "midi": 61,
                    "time": 88.95523499999999,
                    "velocity": 0.30708661417322836,
                    "duration": 0.5907960937500008
                },
                {
                    "name": "D#4",
                    "midi": 63,
                    "time": 89.55224999999999,
                    "velocity": 0.31496062992125984,
                    "duration": 1.194029999999998
                },
                {
                    "name": "C5",
                    "midi": 72,
                    "time": 89.55224999999999,
                    "velocity": 0.4330708661417323,
                    "duration": 1.194029999999998
                },
                {
                    "name": "C4",
                    "midi": 60,
                    "time": 89.55224999999999,
                    "velocity": 0.31496062992125984,
                    "duration": 1.194029999999998
                },
                {
                    "name": "D#4",
                    "midi": 63,
                    "time": 90.74627999999998,
                    "velocity": 0.4094488188976378,
                    "duration": 0.5907960937500008
                },
                {
                    "name": "D#4",
                    "midi": 63,
                    "time": 91.34329499999998,
                    "velocity": 0.41732283464566927,
                    "duration": 0.5907960937500008
                },
                {
                    "name": "C4",
                    "midi": 60,
                    "time": 91.34329499999998,
                    "velocity": 0.41732283464566927,
                    "duration": 0.5907960937500008
                },
                {
                    "name": "C5",
                    "midi": 72,
                    "time": 91.34329499999998,
                    "velocity": 0.5669291338582677,
                    "duration": 0.5907960937500008
                },
                {
                    "name": "C5",
                    "midi": 72,
                    "time": 91.94030999999998,
                    "velocity": 0.5669291338582677,
                    "duration": 0.8955224999999984
                },
                {
                    "name": "D#4",
                    "midi": 63,
                    "time": 91.94030999999998,
                    "velocity": 0.41732283464566927,
                    "duration": 0.8955224999999984
                },
                {
                    "name": "C4",
                    "midi": 60,
                    "time": 91.94030999999998,
                    "velocity": 0.41732283464566927,
                    "duration": 0.8955224999999984
                },
                {
                    "name": "C#4",
                    "midi": 61,
                    "time": 92.83583249999998,
                    "velocity": 0.4015748031496063,
                    "duration": 0.2960199375000059
                },
                {
                    "name": "A#3",
                    "midi": 58,
                    "time": 92.83583249999998,
                    "velocity": 0.4015748031496063,
                    "duration": 0.2960199375000059
                },
                {
                    "name": "A#4",
                    "midi": 70,
                    "time": 92.83583249999998,
                    "velocity": 0.5511811023622047,
                    "duration": 0.2960199375000059
                },
                {
                    "name": "A#4",
                    "midi": 70,
                    "time": 93.13433999999998,
                    "velocity": 0.5905511811023622,
                    "duration": 0.5907960937500008
                },
                {
                    "name": "A#3",
                    "midi": 58,
                    "time": 93.13433999999998,
                    "velocity": 0.4409448818897638,
                    "duration": 0.5907960937500008
                },
                {
                    "name": "C#4",
                    "midi": 61,
                    "time": 93.13433999999998,
                    "velocity": 0.4409448818897638,
                    "duration": 0.5907960937500008
                },
                {
                    "name": "C4",
                    "midi": 60,
                    "time": 93.73135499999998,
                    "velocity": 0.41732283464566927,
                    "duration": 0.8955224999999984
                },
                {
                    "name": "A4",
                    "midi": 69,
                    "time": 93.73135499999998,
                    "velocity": 0.5590551181102362,
                    "duration": 0.8955224999999984
                },
                {
                    "name": "A3",
                    "midi": 57,
                    "time": 93.73135499999998,
                    "velocity": 0.41732283464566927,
                    "duration": 0.8955224999999984
                },
                {
                    "name": "C#4",
                    "midi": 61,
                    "time": 94.62687749999998,
                    "velocity": 0.3937007874015748,
                    "duration": 0.2960199375000059
                },
                {
                    "name": "A#3",
                    "midi": 58,
                    "time": 94.62687749999998,
                    "velocity": 0.3937007874015748,
                    "duration": 0.2960199375000059
                },
                {
                    "name": "A#4",
                    "midi": 70,
                    "time": 94.62687749999998,
                    "velocity": 0.5275590551181102,
                    "duration": 0.2960199375000059
                },
                {
                    "name": "C#4",
                    "midi": 61,
                    "time": 94.92538499999998,
                    "velocity": 0.4094488188976378,
                    "duration": 0.597014999999999
                },
                {
                    "name": "A#4",
                    "midi": 70,
                    "time": 94.92538499999998,
                    "velocity": 0.5590551181102362,
                    "duration": 0.597014999999999
                },
                {
                    "name": "A#3",
                    "midi": 58,
                    "time": 94.92538499999998,
                    "velocity": 0.4094488188976378,
                    "duration": 0.597014999999999
                },
                {
                    "name": "G#4",
                    "midi": 68,
                    "time": 95.52239999999998,
                    "velocity": 0.4645669291338583,
                    "duration": 0.597014999999999
                },
                {
                    "name": "C4",
                    "midi": 60,
                    "time": 95.52239999999998,
                    "velocity": 0.33858267716535434,
                    "duration": 0.597014999999999
                },
                {
                    "name": "G#3",
                    "midi": 56,
                    "time": 95.52239999999998,
                    "velocity": 0.33858267716535434,
                    "duration": 0.597014999999999
                },
                {
                    "name": "G4",
                    "midi": 67,
                    "time": 96.11941499999998,
                    "velocity": 0.47244094488188976,
                    "duration": 0.5373134999999962
                },
                {
                    "name": "G3",
                    "midi": 55,
                    "time": 96.11941499999998,
                    "velocity": 0.3464566929133858,
                    "duration": 0.5373134999999962
                },
                {
                    "name": "A#3",
                    "midi": 58,
                    "time": 96.11941499999998,
                    "velocity": 0.3464566929133858,
                    "duration": 0.5373134999999962
                },
                {
                    "name": "C4",
                    "midi": 60,
                    "time": 96.71642999999997,
                    "velocity": 0.33858267716535434,
                    "duration": 1.194029999999998
                },
                {
                    "name": "G#4",
                    "midi": 68,
                    "time": 96.71642999999997,
                    "velocity": 0.4645669291338583,
                    "duration": 1.194029999999998
                },
                {
                    "name": "G#3",
                    "midi": 56,
                    "time": 96.71642999999997,
                    "velocity": 0.33858267716535434,
                    "duration": 1.194029999999998
                },
                {
                    "name": "D#5",
                    "midi": 75,
                    "time": 97.91045999999997,
                    "velocity": 0.4409448818897638,
                    "duration": 0.5907960937500008
                },
                {
                    "name": "G#5",
                    "midi": 80,
                    "time": 98.50747499999997,
                    "velocity": 0.4251968503937008,
                    "duration": 0.5907960937500008
                },
                {
                    "name": "C5",
                    "midi": 72,
                    "time": 98.50747499999997,
                    "velocity": 0.2677165354330709,
                    "duration": 0.5907960937500008
                },
                {
                    "name": "D#5",
                    "midi": 75,
                    "time": 98.50747499999997,
                    "velocity": 0.2677165354330709,
                    "duration": 0.5907960937500008
                },
                {
                    "name": "G#5",
                    "midi": 80,
                    "time": 99.10448999999997,
                    "velocity": 0.44881889763779526,
                    "duration": 0.8955224999999984
                },
                {
                    "name": "D#5",
                    "midi": 75,
                    "time": 99.10448999999997,
                    "velocity": 0.2677165354330709,
                    "duration": 1.194029999999998
                },
                {
                    "name": "C5",
                    "midi": 72,
                    "time": 99.10448999999997,
                    "velocity": 0.2677165354330709,
                    "duration": 1.194029999999998
                },
                {
                    "name": "A#5",
                    "midi": 82,
                    "time": 100.00001249999997,
                    "velocity": 0.4094488188976378,
                    "duration": 0.2960199375000059
                },
                {
                    "name": "G#5",
                    "midi": 80,
                    "time": 100.29851999999997,
                    "velocity": 0.44881889763779526,
                    "duration": 0.5907960937500008
                },
                {
                    "name": "C#5",
                    "midi": 73,
                    "time": 100.29851999999997,
                    "velocity": 0.2677165354330709,
                    "duration": 0.5907960937500008
                },
                {
                    "name": "D#5",
                    "midi": 75,
                    "time": 100.29851999999997,
                    "velocity": 0.2677165354330709,
                    "duration": 0.5907960937500008
                },
                {
                    "name": "D#5",
                    "midi": 75,
                    "time": 100.89553499999997,
                    "velocity": 0.2677165354330709,
                    "duration": 1.194029999999998
                },
                {
                    "name": "C#5",
                    "midi": 73,
                    "time": 100.89553499999997,
                    "velocity": 0.2677165354330709,
                    "duration": 1.194029999999998
                },
                {
                    "name": "G5",
                    "midi": 79,
                    "time": 100.89553499999997,
                    "velocity": 0.44881889763779526,
                    "duration": 0.8955224999999984
                },
                {
                    "name": "A#5",
                    "midi": 82,
                    "time": 101.79105749999997,
                    "velocity": 0.44881889763779526,
                    "duration": 0.2960199375000059
                },
                {
                    "name": "A#5",
                    "midi": 82,
                    "time": 102.08956499999996,
                    "velocity": 0.44881889763779526,
                    "duration": 0.5907960937500008
                },
                {
                    "name": "G#5",
                    "midi": 80,
                    "time": 102.68657999999996,
                    "velocity": 0.4645669291338583,
                    "duration": 0.5907960937500008
                },
                {
                    "name": "D#5",
                    "midi": 75,
                    "time": 102.68657999999996,
                    "velocity": 0.2755905511811024,
                    "duration": 0.5907960937500008
                },
                {
                    "name": "A#5",
                    "midi": 82,
                    "time": 103.28359499999996,
                    "velocity": 0.4881889763779528,
                    "duration": 0.5907960937500008
                },
                {
                    "name": "D#5",
                    "midi": 75,
                    "time": 103.28359499999996,
                    "velocity": 0.29133858267716534,
                    "duration": 0.5907960937500008
                },
                {
                    "name": "C#5",
                    "midi": 73,
                    "time": 103.28359499999996,
                    "velocity": 0.29133858267716534,
                    "duration": 0.5907960937500008
                },
                {
                    "name": "D#5",
                    "midi": 75,
                    "time": 103.88060999999996,
                    "velocity": 0.31496062992125984,
                    "duration": 1.194029999999998
                },
                {
                    "name": "C5",
                    "midi": 72,
                    "time": 103.88060999999996,
                    "velocity": 0.31496062992125984,
                    "duration": 1.194029999999998
                },
                {
                    "name": "C6",
                    "midi": 84,
                    "time": 103.88060999999996,
                    "velocity": 0.5196850393700787,
                    "duration": 1.194029999999998
                },
                {
                    "name": "D#5",
                    "midi": 75,
                    "time": 105.07463999999996,
                    "velocity": 0.5669291338582677,
                    "duration": 0.5907960937500008
                },
                {
                    "name": "D#5",
                    "midi": 75,
                    "time": 105.67165499999996,
                    "velocity": 0.41732283464566927,
                    "duration": 0.5907960937500008
                },
                {
                    "name": "C6",
                    "midi": 84,
                    "time": 105.67165499999996,
                    "velocity": 0.5669291338582677,
                    "duration": 0.5907960937500008
                },
                {
                    "name": "C5",
                    "midi": 72,
                    "time": 105.67165499999996,
                    "velocity": 0.41732283464566927,
                    "duration": 0.5907960937500008
                },
                {
                    "name": "C5",
                    "midi": 72,
                    "time": 106.26866999999996,
                    "velocity": 0.41732283464566927,
                    "duration": 0.8955224999999984
                },
                {
                    "name": "D#5",
                    "midi": 75,
                    "time": 106.26866999999996,
                    "velocity": 0.41732283464566927,
                    "duration": 0.8955224999999984
                },
                {
                    "name": "C6",
                    "midi": 84,
                    "time": 106.26866999999996,
                    "velocity": 0.5669291338582677,
                    "duration": 0.8955224999999984
                },
                {
                    "name": "A#5",
                    "midi": 82,
                    "time": 107.16419249999996,
                    "velocity": 0.5511811023622047,
                    "duration": 0.2960199375000059
                },
                {
                    "name": "C#5",
                    "midi": 73,
                    "time": 107.16419249999996,
                    "velocity": 0.4015748031496063,
                    "duration": 0.2960199375000059
                },
                {
                    "name": "A#4",
                    "midi": 70,
                    "time": 107.16419249999996,
                    "velocity": 0.4015748031496063,
                    "duration": 0.2960199375000059
                },
                {
                    "name": "A#4",
                    "midi": 70,
                    "time": 107.46269999999996,
                    "velocity": 0.4409448818897638,
                    "duration": 0.5907960937500008
                },
                {
                    "name": "A#5",
                    "midi": 82,
                    "time": 107.46269999999996,
                    "velocity": 0.5905511811023622,
                    "duration": 0.5907960937500008
                },
                {
                    "name": "C#5",
                    "midi": 73,
                    "time": 107.46269999999996,
                    "velocity": 0.4409448818897638,
                    "duration": 0.5907960937500008
                },
                {
                    "name": "A5",
                    "midi": 81,
                    "time": 108.05971499999995,
                    "velocity": 0.5590551181102362,
                    "duration": 0.8868160312500066
                },
                {
                    "name": "A4",
                    "midi": 69,
                    "time": 108.05971499999995,
                    "velocity": 0.41732283464566927,
                    "duration": 0.8868160312500066
                },
                {
                    "name": "C5",
                    "midi": 72,
                    "time": 108.05971499999995,
                    "velocity": 0.41732283464566927,
                    "duration": 0.8868160312500066
                },
                {
                    "name": "A#5",
                    "midi": 82,
                    "time": 108.95523749999997,
                    "velocity": 0.5275590551181102,
                    "duration": 0.2960199375000059
                },
                {
                    "name": "A#4",
                    "midi": 70,
                    "time": 108.95523749999997,
                    "velocity": 0.3937007874015748,
                    "duration": 0.2960199375000059
                },
                {
                    "name": "C#5",
                    "midi": 73,
                    "time": 108.95523749999997,
                    "velocity": 0.3937007874015748,
                    "duration": 0.2960199375000059
                },
                {
                    "name": "A#4",
                    "midi": 70,
                    "time": 109.25374499999997,
                    "velocity": 0.4094488188976378,
                    "duration": 0.5907960937500008
                },
                {
                    "name": "C#5",
                    "midi": 73,
                    "time": 109.25374499999997,
                    "velocity": 0.4094488188976378,
                    "duration": 0.5907960937500008
                },
                {
                    "name": "A#5",
                    "midi": 82,
                    "time": 109.25374499999997,
                    "velocity": 0.5590551181102362,
                    "duration": 0.5907960937500008
                },
                {
                    "name": "G#5",
                    "midi": 80,
                    "time": 109.85075999999997,
                    "velocity": 0.4645669291338583,
                    "duration": 0.5907960937500008
                },
                {
                    "name": "C5",
                    "midi": 72,
                    "time": 109.85075999999997,
                    "velocity": 0.33858267716535434,
                    "duration": 0.5907960937500008
                },
                {
                    "name": "G#4",
                    "midi": 68,
                    "time": 109.85075999999997,
                    "velocity": 0.33858267716535434,
                    "duration": 0.5907960937500008
                },
                {
                    "name": "G5",
                    "midi": 79,
                    "time": 110.44777499999996,
                    "velocity": 0.47244094488188976,
                    "duration": 0.5373134999999962
                },
                {
                    "name": "A#4",
                    "midi": 70,
                    "time": 110.44777499999996,
                    "velocity": 0.3464566929133858,
                    "duration": 0.5373134999999962
                },
                {
                    "name": "G4",
                    "midi": 67,
                    "time": 110.44777499999996,
                    "velocity": 0.3464566929133858,
                    "duration": 0.5373134999999962
                },
                {
                    "name": "G#4",
                    "midi": 68,
                    "time": 111.04478999999996,
                    "velocity": 0.33858267716535434,
                    "duration": 1.194029999999998
                },
                {
                    "name": "G#5",
                    "midi": 80,
                    "time": 111.04478999999996,
                    "velocity": 0.4645669291338583,
                    "duration": 1.194029999999998
                },
                {
                    "name": "C5",
                    "midi": 72,
                    "time": 111.04478999999996,
                    "velocity": 0.33858267716535434,
                    "duration": 1.194029999999998
                },
                {
                    "name": "D#5",
                    "midi": 75,
                    "time": 112.53732749999996,
                    "velocity": 0.6299212598425197,
                    "duration": 0.2960199375000059
                },
                {
                    "name": "D#4",
                    "midi": 63,
                    "time": 112.53732749999996,
                    "velocity": 0.5354330708661418,
                    "duration": 0.2960199375000059
                },
                {
                    "name": "G#4",
                    "midi": 68,
                    "time": 112.53732749999996,
                    "velocity": 0.5354330708661418,
                    "duration": 0.2960199375000059
                },
                {
                    "name": "D#4",
                    "midi": 63,
                    "time": 112.83583499999996,
                    "velocity": 0.6062992125984252,
                    "duration": 0.5907960937500008
                },
                {
                    "name": "G#4",
                    "midi": 68,
                    "time": 112.83583499999996,
                    "velocity": 0.6062992125984252,
                    "duration": 0.5907960937500008
                },
                {
                    "name": "D#5",
                    "midi": 75,
                    "time": 112.83583499999996,
                    "velocity": 0.7165354330708661,
                    "duration": 0.5907960937500008
                },
                {
                    "name": "D#4",
                    "midi": 63,
                    "time": 113.43284999999996,
                    "velocity": 0.5826771653543307,
                    "duration": 0.8868160312500066
                },
                {
                    "name": "D#5",
                    "midi": 75,
                    "time": 113.43284999999996,
                    "velocity": 0.6929133858267716,
                    "duration": 0.8868160312500066
                },
                {
                    "name": "G#4",
                    "midi": 68,
                    "time": 113.43284999999996,
                    "velocity": 0.5826771653543307,
                    "duration": 0.8868160312500066
                },
                {
                    "name": "C4",
                    "midi": 60,
                    "time": 114.32837249999997,
                    "velocity": 0.5354330708661418,
                    "duration": 0.2960199375000059
                },
                {
                    "name": "D#4",
                    "midi": 63,
                    "time": 114.32837249999997,
                    "velocity": 0.5354330708661418,
                    "duration": 0.2960199375000059
                },
                {
                    "name": "C5",
                    "midi": 72,
                    "time": 114.32837249999997,
                    "velocity": 0.6299212598425197,
                    "duration": 0.2960199375000059
                },
                {
                    "name": "C4",
                    "midi": 60,
                    "time": 114.62687999999997,
                    "velocity": 0.6062992125984252,
                    "duration": 0.5907960937500008
                },
                {
                    "name": "C5",
                    "midi": 72,
                    "time": 114.62687999999997,
                    "velocity": 0.7165354330708661,
                    "duration": 0.5907960937500008
                },
                {
                    "name": "D#4",
                    "midi": 63,
                    "time": 114.62687999999997,
                    "velocity": 0.6062992125984252,
                    "duration": 0.5907960937500008
                },
                {
                    "name": "C5",
                    "midi": 72,
                    "time": 115.22389499999997,
                    "velocity": 0.6771653543307087,
                    "duration": 0.8868160312500066
                },
                {
                    "name": "D#4",
                    "midi": 63,
                    "time": 115.22389499999997,
                    "velocity": 0.5748031496062992,
                    "duration": 0.8868160312500066
                },
                {
                    "name": "C4",
                    "midi": 60,
                    "time": 115.22389499999997,
                    "velocity": 0.5748031496062992,
                    "duration": 0.8868160312500066
                },
                {
                    "name": "G#4",
                    "midi": 68,
                    "time": 116.11941749999998,
                    "velocity": 0.6220472440944882,
                    "duration": 0.2960199375000059
                },
                {
                    "name": "F4",
                    "midi": 65,
                    "time": 116.11941749999998,
                    "velocity": 0.5275590551181102,
                    "duration": 0.2960199375000059
                },
                {
                    "name": "C4",
                    "midi": 60,
                    "time": 116.11941749999998,
                    "velocity": 0.5275590551181102,
                    "duration": 0.2960199375000059
                },
                {
                    "name": "C4",
                    "midi": 60,
                    "time": 116.41792499999998,
                    "velocity": 0.5275590551181102,
                    "duration": 0.4477612499999992
                },
                {
                    "name": "F4",
                    "midi": 65,
                    "time": 116.41792499999998,
                    "velocity": 0.5275590551181102,
                    "duration": 0.4477612499999992
                },
                {
                    "name": "G#4",
                    "midi": 68,
                    "time": 116.41792499999998,
                    "velocity": 0.6220472440944882,
                    "duration": 0.4477612499999992
                },
                {
                    "name": "D#4",
                    "midi": 63,
                    "time": 117.01493999999998,
                    "velocity": 0.5354330708661418,
                    "duration": 0.4477612499999992
                },
                {
                    "name": "C#4",
                    "midi": 61,
                    "time": 117.01493999999998,
                    "velocity": 0.5354330708661418,
                    "duration": 0.4477612499999992
                },
                {
                    "name": "A#4",
                    "midi": 70,
                    "time": 117.01493999999998,
                    "velocity": 0.6299212598425197,
                    "duration": 0.4477612499999992
                },
                {
                    "name": "C#4",
                    "midi": 61,
                    "time": 117.61195499999998,
                    "velocity": 0.5354330708661418,
                    "duration": 0.4477612499999992
                },
                {
                    "name": "A#4",
                    "midi": 70,
                    "time": 117.61195499999998,
                    "velocity": 0.5354330708661418,
                    "duration": 0.4477612499999992
                },
                {
                    "name": "C#5",
                    "midi": 73,
                    "time": 117.61195499999998,
                    "velocity": 0.6299212598425197,
                    "duration": 0.4477612499999992
                },
                {
                    "name": "D#4",
                    "midi": 63,
                    "time": 117.61195499999998,
                    "velocity": 0.5354330708661418,
                    "duration": 0.4477612499999992
                },
                {
                    "name": "G4",
                    "midi": 67,
                    "time": 117.61195499999998,
                    "velocity": 0.5354330708661418,
                    "duration": 0.4477612499999992
                },
                {
                    "name": "C5",
                    "midi": 72,
                    "time": 118.20896999999998,
                    "velocity": 0.6299212598425197,
                    "duration": 1.4925374999999974
                },
                {
                    "name": "C4",
                    "midi": 60,
                    "time": 118.20896999999998,
                    "velocity": 0.5354330708661418,
                    "duration": 1.4925374999999974
                },
                {
                    "name": "D#4",
                    "midi": 63,
                    "time": 118.20896999999998,
                    "velocity": 0.5354330708661418,
                    "duration": 1.4925374999999974
                },
                {
                    "name": "G#4",
                    "midi": 68,
                    "time": 118.20896999999998,
                    "velocity": 0.6299212598425197,
                    "duration": 1.4925374999999974
                },
                {
                    "name": "G#4",
                    "midi": 68,
                    "time": 119.70150749999998,
                    "velocity": 0.6220472440944882,
                    "duration": 0.2960199375000059
                },
                {
                    "name": "F4",
                    "midi": 65,
                    "time": 119.70150749999998,
                    "velocity": 0.6220472440944882,
                    "duration": 0.2960199375000059
                },
                {
                    "name": "F5",
                    "midi": 77,
                    "time": 119.70150749999998,
                    "velocity": 0.7322834645669292,
                    "duration": 0.2960199375000059
                },
                {
                    "name": "G#4",
                    "midi": 68,
                    "time": 120.00001499999998,
                    "velocity": 0.6692913385826772,
                    "duration": 0.5907960937500008
                },
                {
                    "name": "F4",
                    "midi": 65,
                    "time": 120.00001499999998,
                    "velocity": 0.6692913385826772,
                    "duration": 0.5907960937500008
                },
                {
                    "name": "F5",
                    "midi": 77,
                    "time": 120.00001499999998,
                    "velocity": 0.7874015748031497,
                    "duration": 0.5907960937500008
                },
                {
                    "name": "F4",
                    "midi": 65,
                    "time": 120.59702999999998,
                    "velocity": 0.6692913385826772,
                    "duration": 0.8868160312500066
                },
                {
                    "name": "F5",
                    "midi": 77,
                    "time": 120.59702999999998,
                    "velocity": 0.7874015748031497,
                    "duration": 0.8868160312500066
                },
                {
                    "name": "G#4",
                    "midi": 68,
                    "time": 120.59702999999998,
                    "velocity": 0.6692913385826772,
                    "duration": 0.8868160312500066
                },
                {
                    "name": "F4",
                    "midi": 65,
                    "time": 121.49255249999999,
                    "velocity": 0.6220472440944882,
                    "duration": 0.2960199375000059
                },
                {
                    "name": "C#5",
                    "midi": 73,
                    "time": 121.49255249999999,
                    "velocity": 0.7322834645669292,
                    "duration": 0.2960199375000059
                },
                {
                    "name": "G#4",
                    "midi": 68,
                    "time": 121.49255249999999,
                    "velocity": 0.6220472440944882,
                    "duration": 0.2960199375000059
                },
                {
                    "name": "F4",
                    "midi": 65,
                    "time": 121.79105999999999,
                    "velocity": 0.6692913385826772,
                    "duration": 0.5907960937500008
                },
                {
                    "name": "G#4",
                    "midi": 68,
                    "time": 121.79105999999999,
                    "velocity": 0.6692913385826772,
                    "duration": 0.5907960937500008
                },
                {
                    "name": "C#5",
                    "midi": 73,
                    "time": 121.79105999999999,
                    "velocity": 0.7874015748031497,
                    "duration": 0.5907960937500008
                },
                {
                    "name": "C#5",
                    "midi": 73,
                    "time": 122.38807499999999,
                    "velocity": 0.7874015748031497,
                    "duration": 0.8868160312500066
                },
                {
                    "name": "G#4",
                    "midi": 68,
                    "time": 122.38807499999999,
                    "velocity": 0.6692913385826772,
                    "duration": 0.8868160312500066
                },
                {
                    "name": "F4",
                    "midi": 65,
                    "time": 122.38807499999999,
                    "velocity": 0.6692913385826772,
                    "duration": 0.8868160312500066
                },
                {
                    "name": "F4",
                    "midi": 65,
                    "time": 123.2835975,
                    "velocity": 0.6220472440944882,
                    "duration": 0.2960199375000059
                },
                {
                    "name": "G#4",
                    "midi": 68,
                    "time": 123.2835975,
                    "velocity": 0.7322834645669292,
                    "duration": 0.2960199375000059
                },
                {
                    "name": "G#4",
                    "midi": 68,
                    "time": 123.582105,
                    "velocity": 0.7795275590551181,
                    "duration": 0.4477612499999992
                },
                {
                    "name": "F4",
                    "midi": 65,
                    "time": 123.582105,
                    "velocity": 0.6614173228346457,
                    "duration": 0.4477612499999992
                },
                {
                    "name": "C#5",
                    "midi": 73,
                    "time": 124.17912,
                    "velocity": 0.7795275590551181,
                    "duration": 0.4477612499999992
                },
                {
                    "name": "A4",
                    "midi": 69,
                    "time": 124.17912,
                    "velocity": 0.6614173228346457,
                    "duration": 0.4477612499999992
                },
                {
                    "name": "F#4",
                    "midi": 66,
                    "time": 124.17912,
                    "velocity": 0.6614173228346457,
                    "duration": 0.4477612499999992
                },
                {
                    "name": "F#5",
                    "midi": 78,
                    "time": 124.776135,
                    "velocity": 0.7795275590551181,
                    "duration": 0.4477612499999992
                },
                {
                    "name": "F#4",
                    "midi": 66,
                    "time": 124.776135,
                    "velocity": 0.6614173228346457,
                    "duration": 0.4477612499999992
                },
                {
                    "name": "A4",
                    "midi": 69,
                    "time": 124.776135,
                    "velocity": 0.6614173228346457,
                    "duration": 0.4477612499999992
                },
                {
                    "name": "C#5",
                    "midi": 73,
                    "time": 124.776135,
                    "velocity": 0.7795275590551181,
                    "duration": 0.4477612499999992
                },
                {
                    "name": "F4",
                    "midi": 65,
                    "time": 125.37315,
                    "velocity": 0.6614173228346457,
                    "duration": 1.4925374999999974
                },
                {
                    "name": "G#4",
                    "midi": 68,
                    "time": 125.37315,
                    "velocity": 0.6614173228346457,
                    "duration": 1.4925374999999974
                },
                {
                    "name": "C#5",
                    "midi": 73,
                    "time": 125.37315,
                    "velocity": 0.6614173228346457,
                    "duration": 1.4925374999999974
                },
                {
                    "name": "F5",
                    "midi": 77,
                    "time": 125.37315,
                    "velocity": 0.7795275590551181,
                    "duration": 1.4925374999999974
                },
                {
                    "name": "C#5",
                    "midi": 73,
                    "time": 126.86568749999999,
                    "velocity": 0.6771653543307087,
                    "duration": 0.2960199375000059
                },
                {
                    "name": "F#5",
                    "midi": 78,
                    "time": 126.86568749999999,
                    "velocity": 0.8031496062992126,
                    "duration": 0.2960199375000059
                },
                {
                    "name": "F#4",
                    "midi": 66,
                    "time": 126.86568749999999,
                    "velocity": 0.6771653543307087,
                    "duration": 0.2960199375000059
                },
                {
                    "name": "F#5",
                    "midi": 78,
                    "time": 127.16419499999999,
                    "velocity": 0.8110236220472441,
                    "duration": 1.791045000000011
                },
                {
                    "name": "F#4",
                    "midi": 66,
                    "time": 127.16419499999999,
                    "velocity": 0.6850393700787402,
                    "duration": 1.791045000000011
                },
                {
                    "name": "C#5",
                    "midi": 73,
                    "time": 127.16419499999999,
                    "velocity": 0.6850393700787402,
                    "duration": 1.791045000000011
                },
                {
                    "name": "E5",
                    "midi": 76,
                    "time": 128.95524,
                    "velocity": 0.48031496062992124,
                    "duration": 0.597014999999999
                },
                {
                    "name": "C#5",
                    "midi": 73,
                    "time": 128.95524,
                    "velocity": 0.4015748031496063,
                    "duration": 1.194029999999998
                },
                {
                    "name": "G4",
                    "midi": 67,
                    "time": 128.95524,
                    "velocity": 0.4015748031496063,
                    "duration": 1.4925374999999974
                },
                {
                    "name": "D#5",
                    "midi": 75,
                    "time": 129.552255,
                    "velocity": 0.48031496062992124,
                    "duration": 0.597014999999999
                },
                {
                    "name": "C#5",
                    "midi": 73,
                    "time": 130.14927,
                    "velocity": 0.47244094488188976,
                    "duration": 0.2985074999999995
                },
                {
                    "name": "C#4",
                    "midi": 61,
                    "time": 130.4477775,
                    "velocity": 0.44881889763779526,
                    "duration": 0.14925375000001395
                },
                {
                    "name": "G#4",
                    "midi": 68,
                    "time": 130.4477775,
                    "velocity": 0.5354330708661418,
                    "duration": 0.14925375000001395
                },
                {
                    "name": "C#4",
                    "midi": 61,
                    "time": 130.74628500000003,
                    "velocity": 0.44881889763779526,
                    "duration": 1.7910450000000253
                },
                {
                    "name": "G#4",
                    "midi": 68,
                    "time": 130.74628500000003,
                    "velocity": 0.5354330708661418,
                    "duration": 1.4925374999999974
                },
                {
                    "name": "A#4",
                    "midi": 70,
                    "time": 132.23882250000003,
                    "velocity": 0.2755905511811024,
                    "duration": 0.07462687500000698
                },
                {
                    "name": "G#4",
                    "midi": 68,
                    "time": 132.31344937500003,
                    "velocity": 0.2755905511811024,
                    "duration": 0.07462687500000698
                },
                {
                    "name": "G4",
                    "midi": 67,
                    "time": 132.38807625000004,
                    "velocity": 0.2755905511811024,
                    "duration": 0.07462687500000698
                },
                {
                    "name": "G#4",
                    "midi": 68,
                    "time": 132.46270312500005,
                    "velocity": 0.2755905511811024,
                    "duration": 0.07462687500000698
                },
                {
                    "name": "G#4",
                    "midi": 68,
                    "time": 132.53733000000005,
                    "velocity": 0.4094488188976378,
                    "duration": 1.7910450000000253
                },
                {
                    "name": "B4",
                    "midi": 71,
                    "time": 132.68658375000007,
                    "velocity": 0.4094488188976378,
                    "duration": 0.44776125000001343
                },
                {
                    "name": "D4",
                    "midi": 62,
                    "time": 132.68658375000007,
                    "velocity": 0.4094488188976378,
                    "duration": 1.6417912500000114
                },
                {
                    "name": "A#4",
                    "midi": 70,
                    "time": 133.13434500000008,
                    "velocity": 0.41732283464566927,
                    "duration": 0.597014999999999
                },
                {
                    "name": "G#4",
                    "midi": 68,
                    "time": 133.73136000000008,
                    "velocity": 0.41732283464566927,
                    "duration": 0.597014999999999
                },
                {
                    "name": "G#3",
                    "midi": 56,
                    "time": 134.32837500000008,
                    "velocity": 0.2677165354330709,
                    "duration": 1.791044999999997
                },
                {
                    "name": "D#4",
                    "midi": 63,
                    "time": 134.32837500000008,
                    "velocity": 0.31496062992125984,
                    "duration": 0.5907960937499865
                },
                {
                    "name": "C4",
                    "midi": 60,
                    "time": 134.32837500000008,
                    "velocity": 0.2677165354330709,
                    "duration": 1.791044999999997
                },
                {
                    "name": "D#4",
                    "midi": 63,
                    "time": 134.92539000000008,
                    "velocity": 0.31496062992125984,
                    "duration": 1.194029999999998
                },
                {
                    "name": "C#4",
                    "midi": 61,
                    "time": 136.11942000000008,
                    "velocity": 0.31496062992125984,
                    "duration": 1.194029999999998
                },
                {
                    "name": "A#3",
                    "midi": 58,
                    "time": 136.11942000000008,
                    "velocity": 0.2677165354330709,
                    "duration": 1.194029999999998
                },
                {
                    "name": "G3",
                    "midi": 55,
                    "time": 136.11942000000008,
                    "velocity": 0.2677165354330709,
                    "duration": 1.194029999999998
                },
                {
                    "name": "D#4",
                    "midi": 63,
                    "time": 136.11942000000008,
                    "velocity": 0.31496062992125984,
                    "duration": 0.5907960937499865
                },
                {
                    "name": "D#4",
                    "midi": 63,
                    "time": 136.71643500000008,
                    "velocity": 0.31496062992125984,
                    "duration": 0.5907960937499865
                },
                {
                    "name": "D#4",
                    "midi": 63,
                    "time": 137.31345000000007,
                    "velocity": 0.31496062992125984,
                    "duration": 0.5907960937499865
                },
                {
                    "name": "C4",
                    "midi": 60,
                    "time": 137.91046500000007,
                    "velocity": 0.2677165354330709,
                    "duration": 0.5907960937499865
                },
                {
                    "name": "G#4",
                    "midi": 68,
                    "time": 137.91046500000007,
                    "velocity": 0.36220472440944884,
                    "duration": 0.5907960937499865
                },
                {
                    "name": "D#4",
                    "midi": 63,
                    "time": 137.91046500000007,
                    "velocity": 0.2677165354330709,
                    "duration": 0.5907960937499865
                },
                {
                    "name": "C4",
                    "midi": 60,
                    "time": 138.50748000000007,
                    "velocity": 0.2677165354330709,
                    "duration": 1.194029999999998
                },
                {
                    "name": "D#4",
                    "midi": 63,
                    "time": 138.50748000000007,
                    "velocity": 0.2677165354330709,
                    "duration": 1.194029999999998
                },
                {
                    "name": "G#4",
                    "midi": 68,
                    "time": 138.50748000000007,
                    "velocity": 0.36220472440944884,
                    "duration": 0.8955224999999984
                },
                {
                    "name": "A#4",
                    "midi": 70,
                    "time": 139.40300250000007,
                    "velocity": 0.30708661417322836,
                    "duration": 0.2985074999999995
                },
                {
                    "name": "D#4",
                    "midi": 63,
                    "time": 139.70151000000007,
                    "velocity": 0.2677165354330709,
                    "duration": 0.5907960937499865
                },
                {
                    "name": "C#4",
                    "midi": 61,
                    "time": 139.70151000000007,
                    "velocity": 0.2677165354330709,
                    "duration": 0.5907960937499865
                },
                {
                    "name": "G#4",
                    "midi": 68,
                    "time": 139.70151000000007,
                    "velocity": 0.36220472440944884,
                    "duration": 0.5907960937499865
                },
                {
                    "name": "G4",
                    "midi": 67,
                    "time": 140.29852500000007,
                    "velocity": 0.36220472440944884,
                    "duration": 0.8955224999999984
                },
                {
                    "name": "C#4",
                    "midi": 61,
                    "time": 140.29852500000007,
                    "velocity": 0.2677165354330709,
                    "duration": 1.194029999999998
                },
                {
                    "name": "D#4",
                    "midi": 63,
                    "time": 140.29852500000007,
                    "velocity": 0.2677165354330709,
                    "duration": 1.194029999999998
                },
                {
                    "name": "A#4",
                    "midi": 70,
                    "time": 141.19404750000007,
                    "velocity": 0.29133858267716534,
                    "duration": 0.2985074999999995
                },
                {
                    "name": "A#4",
                    "midi": 70,
                    "time": 141.49255500000007,
                    "velocity": 0.36220472440944884,
                    "duration": 0.5907960937499865
                },
                {
                    "name": "D#4",
                    "midi": 63,
                    "time": 142.08957000000007,
                    "velocity": 0.2992125984251969,
                    "duration": 0.5907960937499865
                },
                {
                    "name": "G#4",
                    "midi": 68,
                    "time": 142.08957000000007,
                    "velocity": 0.4015748031496063,
                    "duration": 0.5907960937499865
                },
                {
                    "name": "C#4",
                    "midi": 61,
                    "time": 142.68658500000006,
                    "velocity": 0.30708661417322836,
                    "duration": 0.5907960937499865
                },
                {
                    "name": "A#4",
                    "midi": 70,
                    "time": 142.68658500000006,
                    "velocity": 0.4094488188976378,
                    "duration": 0.5907960937499865
                },
                {
                    "name": "D#4",
                    "midi": 63,
                    "time": 142.68658500000006,
                    "velocity": 0.30708661417322836,
                    "duration": 0.5907960937499865
                },
                {
                    "name": "D#4",
                    "midi": 63,
                    "time": 143.28360000000006,
                    "velocity": 0.31496062992125984,
                    "duration": 1.194029999999998
                },
                {
                    "name": "C4",
                    "midi": 60,
                    "time": 143.28360000000006,
                    "velocity": 0.31496062992125984,
                    "duration": 1.194029999999998
                },
                {
                    "name": "C5",
                    "midi": 72,
                    "time": 143.28360000000006,
                    "velocity": 0.4330708661417323,
                    "duration": 1.194029999999998
                },
                {
                    "name": "D#4",
                    "midi": 63,
                    "time": 144.47763000000006,
                    "velocity": 0.4094488188976378,
                    "duration": 0.5907960937499865
                },
                {
                    "name": "C5",
                    "midi": 72,
                    "time": 145.07464500000006,
                    "velocity": 0.5669291338582677,
                    "duration": 0.5907960937499865
                },
                {
                    "name": "D#4",
                    "midi": 63,
                    "time": 145.07464500000006,
                    "velocity": 0.41732283464566927,
                    "duration": 0.5907960937499865
                },
                {
                    "name": "C4",
                    "midi": 60,
                    "time": 145.07464500000006,
                    "velocity": 0.41732283464566927,
                    "duration": 0.5907960937499865
                },
                {
                    "name": "C4",
                    "midi": 60,
                    "time": 145.67166000000006,
                    "velocity": 0.41732283464566927,
                    "duration": 0.8955224999999984
                },
                {
                    "name": "D#4",
                    "midi": 63,
                    "time": 145.67166000000006,
                    "velocity": 0.41732283464566927,
                    "duration": 0.8955224999999984
                },
                {
                    "name": "C5",
                    "midi": 72,
                    "time": 145.67166000000006,
                    "velocity": 0.5669291338582677,
                    "duration": 0.8955224999999984
                },
                {
                    "name": "A#4",
                    "midi": 70,
                    "time": 146.56718250000006,
                    "velocity": 0.5511811023622047,
                    "duration": 0.2960199375000059
                },
                {
                    "name": "C#4",
                    "midi": 61,
                    "time": 146.56718250000006,
                    "velocity": 0.4015748031496063,
                    "duration": 0.2960199375000059
                },
                {
                    "name": "A#3",
                    "midi": 58,
                    "time": 146.56718250000006,
                    "velocity": 0.4015748031496063,
                    "duration": 0.2960199375000059
                },
                {
                    "name": "A#3",
                    "midi": 58,
                    "time": 146.86569000000006,
                    "velocity": 0.4409448818897638,
                    "duration": 0.5907960937499865
                },
                {
                    "name": "C#4",
                    "midi": 61,
                    "time": 146.86569000000006,
                    "velocity": 0.4409448818897638,
                    "duration": 0.5907960937499865
                },
                {
                    "name": "A#4",
                    "midi": 70,
                    "time": 146.86569000000006,
                    "velocity": 0.5905511811023622,
                    "duration": 0.5907960937499865
                },
                {
                    "name": "A4",
                    "midi": 69,
                    "time": 147.46270500000006,
                    "velocity": 0.5590551181102362,
                    "duration": 0.8955224999999984
                },
                {
                    "name": "C4",
                    "midi": 60,
                    "time": 147.46270500000006,
                    "velocity": 0.41732283464566927,
                    "duration": 0.8955224999999984
                },
                {
                    "name": "A3",
                    "midi": 57,
                    "time": 147.46270500000006,
                    "velocity": 0.41732283464566927,
                    "duration": 0.8955224999999984
                },
                {
                    "name": "C#4",
                    "midi": 61,
                    "time": 148.35822750000005,
                    "velocity": 0.3937007874015748,
                    "duration": 0.2960199375000059
                },
                {
                    "name": "A#4",
                    "midi": 70,
                    "time": 148.35822750000005,
                    "velocity": 0.5275590551181102,
                    "duration": 0.2960199375000059
                },
                {
                    "name": "A#3",
                    "midi": 58,
                    "time": 148.35822750000005,
                    "velocity": 0.3937007874015748,
                    "duration": 0.2960199375000059
                },
                {
                    "name": "C#4",
                    "midi": 61,
                    "time": 148.65673500000005,
                    "velocity": 0.4094488188976378,
                    "duration": 0.5907960937499865
                },
                {
                    "name": "A#3",
                    "midi": 58,
                    "time": 148.65673500000005,
                    "velocity": 0.4094488188976378,
                    "duration": 0.5907960937499865
                },
                {
                    "name": "A#4",
                    "midi": 70,
                    "time": 148.65673500000005,
                    "velocity": 0.5590551181102362,
                    "duration": 0.5907960937499865
                },
                {
                    "name": "C4",
                    "midi": 60,
                    "time": 149.25375000000005,
                    "velocity": 0.33858267716535434,
                    "duration": 0.5907960937499865
                },
                {
                    "name": "G#4",
                    "midi": 68,
                    "time": 149.25375000000005,
                    "velocity": 0.4645669291338583,
                    "duration": 0.5907960937499865
                },
                {
                    "name": "G#3",
                    "midi": 56,
                    "time": 149.25375000000005,
                    "velocity": 0.33858267716535434,
                    "duration": 0.5907960937499865
                },
                {
                    "name": "A#3",
                    "midi": 58,
                    "time": 149.85076500000005,
                    "velocity": 0.3464566929133858,
                    "duration": 0.5373135000000104
                },
                {
                    "name": "G3",
                    "midi": 55,
                    "time": 149.85076500000005,
                    "velocity": 0.3464566929133858,
                    "duration": 0.5373135000000104
                },
                {
                    "name": "G4",
                    "midi": 67,
                    "time": 149.85076500000005,
                    "velocity": 0.47244094488188976,
                    "duration": 0.5373135000000104
                },
                {
                    "name": "G#3",
                    "midi": 56,
                    "time": 150.44778000000005,
                    "velocity": 0.33858267716535434,
                    "duration": 1.194029999999998
                },
                {
                    "name": "G#4",
                    "midi": 68,
                    "time": 150.44778000000005,
                    "velocity": 0.4645669291338583,
                    "duration": 1.194029999999998
                },
                {
                    "name": "C4",
                    "midi": 60,
                    "time": 150.44778000000005,
                    "velocity": 0.33858267716535434,
                    "duration": 1.194029999999998
                },
                {
                    "name": "D#5",
                    "midi": 75,
                    "time": 151.64181000000005,
                    "velocity": 0.4409448818897638,
                    "duration": 0.5907960937499865
                },
                {
                    "name": "D#5",
                    "midi": 75,
                    "time": 152.23882500000005,
                    "velocity": 0.2677165354330709,
                    "duration": 0.5907960937499865
                },
                {
                    "name": "G#5",
                    "midi": 80,
                    "time": 152.23882500000005,
                    "velocity": 0.4251968503937008,
                    "duration": 0.5907960937499865
                },
                {
                    "name": "C5",
                    "midi": 72,
                    "time": 152.23882500000005,
                    "velocity": 0.2677165354330709,
                    "duration": 0.5907960937499865
                },
                {
                    "name": "C5",
                    "midi": 72,
                    "time": 152.83584000000005,
                    "velocity": 0.2677165354330709,
                    "duration": 1.194029999999998
                },
                {
                    "name": "D#5",
                    "midi": 75,
                    "time": 152.83584000000005,
                    "velocity": 0.2677165354330709,
                    "duration": 1.194029999999998
                },
                {
                    "name": "G#5",
                    "midi": 80,
                    "time": 152.83584000000005,
                    "velocity": 0.44881889763779526,
                    "duration": 0.8955224999999984
                },
                {
                    "name": "A#5",
                    "midi": 82,
                    "time": 153.73136250000005,
                    "velocity": 0.4094488188976378,
                    "duration": 0.2985074999999995
                },
                {
                    "name": "D#5",
                    "midi": 75,
                    "time": 154.02987000000005,
                    "velocity": 0.2677165354330709,
                    "duration": 0.5907960937499865
                },
                {
                    "name": "C#5",
                    "midi": 73,
                    "time": 154.02987000000005,
                    "velocity": 0.2677165354330709,
                    "duration": 0.5907960937499865
                },
                {
                    "name": "G#5",
                    "midi": 80,
                    "time": 154.02987000000005,
                    "velocity": 0.44881889763779526,
                    "duration": 0.5907960937499865
                },
                {
                    "name": "C#5",
                    "midi": 73,
                    "time": 154.62688500000004,
                    "velocity": 0.2677165354330709,
                    "duration": 1.194029999999998
                },
                {
                    "name": "G5",
                    "midi": 79,
                    "time": 154.62688500000004,
                    "velocity": 0.44881889763779526,
                    "duration": 0.8955224999999984
                },
                {
                    "name": "D#5",
                    "midi": 75,
                    "time": 154.62688500000004,
                    "velocity": 0.2677165354330709,
                    "duration": 1.194029999999998
                },
                {
                    "name": "A#5",
                    "midi": 82,
                    "time": 155.52240750000004,
                    "velocity": 0.44881889763779526,
                    "duration": 0.2960199375000059
                },
                {
                    "name": "A#5",
                    "midi": 82,
                    "time": 155.82091500000004,
                    "velocity": 0.44881889763779526,
                    "duration": 0.5907960937499865
                },
                {
                    "name": "D#5",
                    "midi": 75,
                    "time": 156.41793000000004,
                    "velocity": 0.2755905511811024,
                    "duration": 0.5907960937499865
                },
                {
                    "name": "G#5",
                    "midi": 80,
                    "time": 156.41793000000004,
                    "velocity": 0.4645669291338583,
                    "duration": 0.5907960937499865
                },
                {
                    "name": "D#5",
                    "midi": 75,
                    "time": 157.01494500000004,
                    "velocity": 0.29133858267716534,
                    "duration": 0.5907960937499865
                },
                {
                    "name": "C#5",
                    "midi": 73,
                    "time": 157.01494500000004,
                    "velocity": 0.29133858267716534,
                    "duration": 0.5907960937499865
                },
                {
                    "name": "A#5",
                    "midi": 82,
                    "time": 157.01494500000004,
                    "velocity": 0.4881889763779528,
                    "duration": 0.5907960937499865
                },
                {
                    "name": "C6",
                    "midi": 84,
                    "time": 157.61196000000004,
                    "velocity": 0.5196850393700787,
                    "duration": 1.194029999999998
                },
                {
                    "name": "D#5",
                    "midi": 75,
                    "time": 157.61196000000004,
                    "velocity": 0.31496062992125984,
                    "duration": 1.194029999999998
                },
                {
                    "name": "C5",
                    "midi": 72,
                    "time": 157.61196000000004,
                    "velocity": 0.31496062992125984,
                    "duration": 1.194029999999998
                },
                {
                    "name": "D#5",
                    "midi": 75,
                    "time": 158.80599000000004,
                    "velocity": 0.5669291338582677,
                    "duration": 0.5907960937499865
                },
                {
                    "name": "C5",
                    "midi": 72,
                    "time": 159.40300500000004,
                    "velocity": 0.41732283464566927,
                    "duration": 0.5907960937499865
                },
                {
                    "name": "D#5",
                    "midi": 75,
                    "time": 159.40300500000004,
                    "velocity": 0.41732283464566927,
                    "duration": 0.5907960937499865
                },
                {
                    "name": "C6",
                    "midi": 84,
                    "time": 159.40300500000004,
                    "velocity": 0.5669291338582677,
                    "duration": 0.5907960937499865
                },
                {
                    "name": "C6",
                    "midi": 84,
                    "time": 160.00002000000003,
                    "velocity": 0.5669291338582677,
                    "duration": 0.8955224999999984
                },
                {
                    "name": "D#5",
                    "midi": 75,
                    "time": 160.00002000000003,
                    "velocity": 0.41732283464566927,
                    "duration": 0.8955224999999984
                },
                {
                    "name": "C5",
                    "midi": 72,
                    "time": 160.00002000000003,
                    "velocity": 0.41732283464566927,
                    "duration": 0.8955224999999984
                },
                {
                    "name": "A#4",
                    "midi": 70,
                    "time": 160.89554250000003,
                    "velocity": 0.4015748031496063,
                    "duration": 0.2960199375000059
                },
                {
                    "name": "C#5",
                    "midi": 73,
                    "time": 160.89554250000003,
                    "velocity": 0.4015748031496063,
                    "duration": 0.2960199375000059
                },
                {
                    "name": "A#5",
                    "midi": 82,
                    "time": 160.89554250000003,
                    "velocity": 0.5511811023622047,
                    "duration": 0.2960199375000059
                },
                {
                    "name": "A#5",
                    "midi": 82,
                    "time": 161.19405000000003,
                    "velocity": 0.5905511811023622,
                    "duration": 0.5907960937499865
                },
                {
                    "name": "C#5",
                    "midi": 73,
                    "time": 161.19405000000003,
                    "velocity": 0.4409448818897638,
                    "duration": 0.5907960937499865
                },
                {
                    "name": "A#4",
                    "midi": 70,
                    "time": 161.19405000000003,
                    "velocity": 0.4409448818897638,
                    "duration": 0.5907960937499865
                },
                {
                    "name": "C5",
                    "midi": 72,
                    "time": 161.79106500000003,
                    "velocity": 0.41732283464566927,
                    "duration": 0.8955224999999984
                },
                {
                    "name": "A5",
                    "midi": 81,
                    "time": 161.79106500000003,
                    "velocity": 0.5590551181102362,
                    "duration": 0.8955224999999984
                },
                {
                    "name": "A4",
                    "midi": 69,
                    "time": 161.79106500000003,
                    "velocity": 0.41732283464566927,
                    "duration": 0.8955224999999984
                },
                {
                    "name": "C#5",
                    "midi": 73,
                    "time": 162.68658750000003,
                    "velocity": 0.3937007874015748,
                    "duration": 0.2960199375000059
                },
                {
                    "name": "A#4",
                    "midi": 70,
                    "time": 162.68658750000003,
                    "velocity": 0.3937007874015748,
                    "duration": 0.2960199375000059
                },
                {
                    "name": "A#5",
                    "midi": 82,
                    "time": 162.68658750000003,
                    "velocity": 0.5354330708661418,
                    "duration": 0.2960199375000059
                },
                {
                    "name": "A#5",
                    "midi": 82,
                    "time": 162.98509500000003,
                    "velocity": 0.5590551181102362,
                    "duration": 0.597014999999999
                },
                {
                    "name": "A#4",
                    "midi": 70,
                    "time": 162.98509500000003,
                    "velocity": 0.41732283464566927,
                    "duration": 0.597014999999999
                },
                {
                    "name": "C#5",
                    "midi": 73,
                    "time": 162.98509500000003,
                    "velocity": 0.41732283464566927,
                    "duration": 0.597014999999999
                },
                {
                    "name": "G#5",
                    "midi": 80,
                    "time": 163.58211000000003,
                    "velocity": 0.4645669291338583,
                    "duration": 0.597014999999999
                },
                {
                    "name": "G#4",
                    "midi": 68,
                    "time": 163.58211000000003,
                    "velocity": 0.33858267716535434,
                    "duration": 0.597014999999999
                },
                {
                    "name": "C5",
                    "midi": 72,
                    "time": 163.58211000000003,
                    "velocity": 0.33858267716535434,
                    "duration": 0.597014999999999
                },
                {
                    "name": "A#4",
                    "midi": 70,
                    "time": 164.17912500000003,
                    "velocity": 0.3543307086614173,
                    "duration": 0.5373135000000104
                },
                {
                    "name": "G5",
                    "midi": 79,
                    "time": 164.17912500000003,
                    "velocity": 0.47244094488188976,
                    "duration": 0.5373135000000104
                },
                {
                    "name": "G4",
                    "midi": 67,
                    "time": 164.17912500000003,
                    "velocity": 0.3543307086614173,
                    "duration": 0.5373135000000104
                },
                {
                    "name": "C5",
                    "midi": 72,
                    "time": 164.77614000000003,
                    "velocity": 0.3464566929133858,
                    "duration": 1.194029999999998
                },
                {
                    "name": "G#5",
                    "midi": 80,
                    "time": 164.77614000000003,
                    "velocity": 0.47244094488188976,
                    "duration": 1.194029999999998
                },
                {
                    "name": "G#4",
                    "midi": 68,
                    "time": 164.77614000000003,
                    "velocity": 0.3464566929133858,
                    "duration": 1.194029999999998
                },
                {
                    "name": "G#3",
                    "midi": 56,
                    "time": 165.97017000000002,
                    "velocity": 0.4094488188976378,
                    "duration": 0.597014999999999
                },
                {
                    "name": "F3",
                    "midi": 53,
                    "time": 166.56718500000002,
                    "velocity": 0.4094488188976378,
                    "duration": 0.19900499999999965
                },
                {
                    "name": "G#3",
                    "midi": 56,
                    "time": 166.76619000000002,
                    "velocity": 0.4094488188976378,
                    "duration": 0.19900499999999965
                },
                {
                    "name": "C#4",
                    "midi": 61,
                    "time": 166.96519500000002,
                    "velocity": 0.3700787401574803,
                    "duration": 0.19900499999999965
                },
                {
                    "name": "F4",
                    "midi": 65,
                    "time": 167.16420000000002,
                    "velocity": 0.4645669291338583,
                    "duration": 0.19900499999999965
                },
                {
                    "name": "C#4",
                    "midi": 61,
                    "time": 167.36320500000002,
                    "velocity": 0.4094488188976378,
                    "duration": 0.19900499999999965
                },
                {
                    "name": "G#3",
                    "midi": 56,
                    "time": 167.56221000000002,
                    "velocity": 0.3779527559055118,
                    "duration": 0.19900499999999965
                },
                {
                    "name": "F3",
                    "midi": 53,
                    "time": 167.76121500000002,
                    "velocity": 0.4094488188976378,
                    "duration": 0.19900499999999965
                },
                {
                    "name": "G#3",
                    "midi": 56,
                    "time": 167.96022000000002,
                    "velocity": 0.3937007874015748,
                    "duration": 0.19900499999999965
                },
                {
                    "name": "C#4",
                    "midi": 61,
                    "time": 168.15922500000002,
                    "velocity": 0.3937007874015748,
                    "duration": 0.19900499999999965
                },
                {
                    "name": "G#3",
                    "midi": 56,
                    "time": 168.35823000000002,
                    "velocity": 0.4094488188976378,
                    "duration": 0.19900499999999965
                },
                {
                    "name": "C#4",
                    "midi": 61,
                    "time": 168.55723500000002,
                    "velocity": 0.3937007874015748,
                    "duration": 0.19900499999999965
                },
                {
                    "name": "F4",
                    "midi": 65,
                    "time": 168.75624000000002,
                    "velocity": 0.3937007874015748,
                    "duration": 0.19900499999999965
                },
                {
                    "name": "G#4",
                    "midi": 68,
                    "time": 168.95524500000002,
                    "velocity": 0.48031496062992124,
                    "duration": 0.19900499999999965
                },
                {
                    "name": "F4",
                    "midi": 65,
                    "time": 169.15425000000002,
                    "velocity": 0.4094488188976378,
                    "duration": 0.19900499999999965
                },
                {
                    "name": "C#4",
                    "midi": 61,
                    "time": 169.35325500000002,
                    "velocity": 0.3858267716535433,
                    "duration": 0.19900499999999965
                },
                {
                    "name": "G#3",
                    "midi": 56,
                    "time": 169.55226000000002,
                    "velocity": 0.4094488188976378,
                    "duration": 0.19900499999999965
                },
                {
                    "name": "C#4",
                    "midi": 61,
                    "time": 169.75126500000002,
                    "velocity": 0.3937007874015748,
                    "duration": 0.19900499999999965
                },
                {
                    "name": "F4",
                    "midi": 65,
                    "time": 169.95027000000002,
                    "velocity": 0.3937007874015748,
                    "duration": 0.19900499999999965
                },
                {
                    "name": "D4",
                    "midi": 62,
                    "time": 170.14927500000002,
                    "velocity": 0.4094488188976378,
                    "duration": 0.19900499999999965
                },
                {
                    "name": "F4",
                    "midi": 65,
                    "time": 170.34828000000002,
                    "velocity": 0.3858267716535433,
                    "duration": 0.19900499999999965
                },
                {
                    "name": "G#4",
                    "midi": 68,
                    "time": 170.54728500000002,
                    "velocity": 0.3858267716535433,
                    "duration": 0.19900499999999965
                },
                {
                    "name": "D#4",
                    "midi": 63,
                    "time": 170.74629000000002,
                    "velocity": 0.4094488188976378,
                    "duration": 0.19900499999999965
                },
                {
                    "name": "F#4",
                    "midi": 66,
                    "time": 170.94529500000002,
                    "velocity": 0.4094488188976378,
                    "duration": 0.19900499999999965
                },
                {
                    "name": "G#4",
                    "midi": 68,
                    "time": 171.14430000000002,
                    "velocity": 0.4094488188976378,
                    "duration": 0.19900499999999965
                },
                {
                    "name": "D#4",
                    "midi": 63,
                    "time": 171.34330500000002,
                    "velocity": 0.4251968503937008,
                    "duration": 0.19900499999999965
                },
                {
                    "name": "F#4",
                    "midi": 66,
                    "time": 171.54231000000001,
                    "velocity": 0.44881889763779526,
                    "duration": 0.19900499999999965
                },
                {
                    "name": "A4",
                    "midi": 69,
                    "time": 171.74131500000001,
                    "velocity": 0.44881889763779526,
                    "duration": 0.19900499999999965
                },
                {
                    "name": "C4",
                    "midi": 60,
                    "time": 171.94032,
                    "velocity": 0.49606299212598426,
                    "duration": 0.19900499999999965
                },
                {
                    "name": "F#4",
                    "midi": 66,
                    "time": 172.139325,
                    "velocity": 0.4566929133858268,
                    "duration": 0.19900499999999965
                },
                {
                    "name": "A#4",
                    "midi": 70,
                    "time": 172.33833,
                    "velocity": 0.4330708661417323,
                    "duration": 0.19900499999999965
                },
                {
                    "name": "C4",
                    "midi": 60,
                    "time": 172.537335,
                    "velocity": 0.4094488188976378,
                    "duration": 0.19900499999999965
                },
                {
                    "name": "F4",
                    "midi": 65,
                    "time": 172.73634,
                    "velocity": 0.3858267716535433,
                    "duration": 0.19900499999999965
                },
                {
                    "name": "G#4",
                    "midi": 68,
                    "time": 172.935345,
                    "velocity": 0.3937007874015748,
                    "duration": 0.19900499999999965
                },
                {
                    "name": "C4",
                    "midi": 60,
                    "time": 173.13435,
                    "velocity": 0.4094488188976378,
                    "duration": 0.19900499999999965
                },
                {
                    "name": "D#4",
                    "midi": 63,
                    "time": 173.333355,
                    "velocity": 0.3858267716535433,
                    "duration": 0.19900499999999965
                },
                {
                    "name": "F#4",
                    "midi": 66,
                    "time": 173.53236,
                    "velocity": 0.3858267716535433,
                    "duration": 0.19900499999999965
                },
                {
                    "name": "F4",
                    "midi": 65,
                    "time": 173.731365,
                    "velocity": 0.4094488188976378,
                    "duration": 0.19900499999999965
                },
                {
                    "name": "G#4",
                    "midi": 68,
                    "time": 173.93037,
                    "velocity": 0.3858267716535433,
                    "duration": 0.19900499999999965
                },
                {
                    "name": "C#5",
                    "midi": 73,
                    "time": 174.129375,
                    "velocity": 0.3858267716535433,
                    "duration": 0.19900499999999965
                },
                {
                    "name": "F5",
                    "midi": 77,
                    "time": 174.32838,
                    "velocity": 0.4645669291338583,
                    "duration": 0.19900499999999965
                },
                {
                    "name": "C#5",
                    "midi": 73,
                    "time": 174.527385,
                    "velocity": 0.3937007874015748,
                    "duration": 0.19900499999999965
                },
                {
                    "name": "G#4",
                    "midi": 68,
                    "time": 174.72639,
                    "velocity": 0.4094488188976378,
                    "duration": 0.19900499999999965
                },
                {
                    "name": "F4",
                    "midi": 65,
                    "time": 174.925395,
                    "velocity": 0.4094488188976378,
                    "duration": 0.19900499999999965
                },
                {
                    "name": "G#4",
                    "midi": 68,
                    "time": 175.1244,
                    "velocity": 0.3937007874015748,
                    "duration": 0.19900499999999965
                },
                {
                    "name": "C#5",
                    "midi": 73,
                    "time": 175.323405,
                    "velocity": 0.3937007874015748,
                    "duration": 0.19900499999999965
                },
                {
                    "name": "G#4",
                    "midi": 68,
                    "time": 175.52241,
                    "velocity": 0.4094488188976378,
                    "duration": 0.19900499999999965
                },
                {
                    "name": "C#5",
                    "midi": 73,
                    "time": 175.721415,
                    "velocity": 0.3858267716535433,
                    "duration": 0.19900499999999965
                },
                {
                    "name": "F5",
                    "midi": 77,
                    "time": 175.92042,
                    "velocity": 0.3858267716535433,
                    "duration": 0.19900499999999965
                },
                {
                    "name": "G#5",
                    "midi": 80,
                    "time": 176.119425,
                    "velocity": 0.4645669291338583,
                    "duration": 0.19900499999999965
                },
                {
                    "name": "F5",
                    "midi": 77,
                    "time": 176.31843,
                    "velocity": 0.3937007874015748,
                    "duration": 0.19900499999999965
                },
                {
                    "name": "C#5",
                    "midi": 73,
                    "time": 176.517435,
                    "velocity": 0.3937007874015748,
                    "duration": 0.19900499999999965
                },
                {
                    "name": "G#4",
                    "midi": 68,
                    "time": 176.71644,
                    "velocity": 0.4094488188976378,
                    "duration": 0.19900499999999965
                },
                {
                    "name": "C#5",
                    "midi": 73,
                    "time": 176.915445,
                    "velocity": 0.3858267716535433,
                    "duration": 0.19900499999999965
                },
                {
                    "name": "F5",
                    "midi": 77,
                    "time": 177.11445,
                    "velocity": 0.3858267716535433,
                    "duration": 0.19900499999999965
                },
                {
                    "name": "D5",
                    "midi": 74,
                    "time": 177.313455,
                    "velocity": 0.4094488188976378,
                    "duration": 0.19900499999999965
                },
                {
                    "name": "F5",
                    "midi": 77,
                    "time": 177.51246,
                    "velocity": 0.3937007874015748,
                    "duration": 0.19900499999999965
                },
                {
                    "name": "G#5",
                    "midi": 80,
                    "time": 177.711465,
                    "velocity": 0.3937007874015748,
                    "duration": 0.19900499999999965
                },
                {
                    "name": "D#5",
                    "midi": 75,
                    "time": 177.91047,
                    "velocity": 0.4094488188976378,
                    "duration": 0.19900499999999965
                },
                {
                    "name": "F#5",
                    "midi": 78,
                    "time": 178.109475,
                    "velocity": 0.3858267716535433,
                    "duration": 0.19900499999999965
                },
                {
                    "name": "G#5",
                    "midi": 80,
                    "time": 178.30848,
                    "velocity": 0.3858267716535433,
                    "duration": 0.19900499999999965
                },
                {
                    "name": "D#5",
                    "midi": 75,
                    "time": 178.507485,
                    "velocity": 0.4251968503937008,
                    "duration": 0.19900499999999965
                },
                {
                    "name": "F#5",
                    "midi": 78,
                    "time": 178.70649,
                    "velocity": 0.44881889763779526,
                    "duration": 0.19900499999999965
                },
                {
                    "name": "A5",
                    "midi": 81,
                    "time": 178.905495,
                    "velocity": 0.4645669291338583,
                    "duration": 0.19900499999999965
                },
                {
                    "name": "C5",
                    "midi": 72,
                    "time": 179.1045,
                    "velocity": 0.49606299212598426,
                    "duration": 0.19900499999999965
                },
                {
                    "name": "F#5",
                    "midi": 78,
                    "time": 179.303505,
                    "velocity": 0.4566929133858268,
                    "duration": 0.19900499999999965
                },
                {
                    "name": "A#5",
                    "midi": 82,
                    "time": 179.50251,
                    "velocity": 0.4330708661417323,
                    "duration": 0.19900499999999965
                },
                {
                    "name": "C5",
                    "midi": 72,
                    "time": 179.701515,
                    "velocity": 0.4094488188976378,
                    "duration": 0.19900499999999965
                },
                {
                    "name": "F5",
                    "midi": 77,
                    "time": 179.90052,
                    "velocity": 0.3937007874015748,
                    "duration": 0.19900499999999965
                },
                {
                    "name": "G#5",
                    "midi": 80,
                    "time": 180.099525,
                    "velocity": 0.3937007874015748,
                    "duration": 0.19900499999999965
                },
                {
                    "name": "C5",
                    "midi": 72,
                    "time": 180.29853,
                    "velocity": 0.4094488188976378,
                    "duration": 0.19900499999999965
                },
                {
                    "name": "D#5",
                    "midi": 75,
                    "time": 180.497535,
                    "velocity": 0.3858267716535433,
                    "duration": 0.19900499999999965
                },
                {
                    "name": "F#5",
                    "midi": 78,
                    "time": 180.69654,
                    "velocity": 0.3858267716535433,
                    "duration": 0.19900499999999965
                },
                {
                    "name": "C5",
                    "midi": 72,
                    "time": 180.895545,
                    "velocity": 0.4015748031496063,
                    "duration": 0.19900499999999965
                },
                {
                    "name": "D#5",
                    "midi": 75,
                    "time": 181.09455,
                    "velocity": 0.3779527559055118,
                    "duration": 0.19900499999999965
                },
                {
                    "name": "F5",
                    "midi": 77,
                    "time": 181.293555,
                    "velocity": 0.3937007874015748,
                    "duration": 0.19900499999999965
                },
                {
                    "name": "A#4",
                    "midi": 70,
                    "time": 181.49256,
                    "velocity": 0.3858267716535433,
                    "duration": 0.19900499999999965
                },
                {
                    "name": "C#5",
                    "midi": 73,
                    "time": 181.691565,
                    "velocity": 0.3464566929133858,
                    "duration": 0.19900499999999965
                },
                {
                    "name": "F5",
                    "midi": 77,
                    "time": 181.89057,
                    "velocity": 0.3464566929133858,
                    "duration": 0.19900499999999965
                },
                {
                    "name": "G#4",
                    "midi": 68,
                    "time": 182.089575,
                    "velocity": 0.36220472440944884,
                    "duration": 0.19900499999999965
                },
                {
                    "name": "C5",
                    "midi": 72,
                    "time": 182.28858,
                    "velocity": 0.33858267716535434,
                    "duration": 0.19900499999999965
                },
                {
                    "name": "F5",
                    "midi": 77,
                    "time": 182.487585,
                    "velocity": 0.33858267716535434,
                    "duration": 0.19900499999999965
                },
                {
                    "name": "G#4",
                    "midi": 68,
                    "time": 182.68659,
                    "velocity": 0.3464566929133858,
                    "duration": 0.19900499999999965
                },
                {
                    "name": "A#4",
                    "midi": 70,
                    "time": 182.885595,
                    "velocity": 0.31496062992125984,
                    "duration": 0.19900499999999965
                },
                {
                    "name": "F5",
                    "midi": 77,
                    "time": 183.0846,
                    "velocity": 0.3228346456692913,
                    "duration": 0.19900499999999965
                },
                {
                    "name": "F#4",
                    "midi": 66,
                    "time": 183.283605,
                    "velocity": 0.3228346456692913,
                    "duration": 0.19900499999999965
                },
                {
                    "name": "A#4",
                    "midi": 70,
                    "time": 183.48261,
                    "velocity": 0.2992125984251969,
                    "duration": 0.19900499999999965
                },
                {
                    "name": "D#5",
                    "midi": 75,
                    "time": 183.681615,
                    "velocity": 0.2992125984251969,
                    "duration": 0.19900499999999965
                },
                {
                    "name": "F4",
                    "midi": 65,
                    "time": 183.88062,
                    "velocity": 0.30708661417322836,
                    "duration": 0.19900499999999965
                },
                {
                    "name": "A#4",
                    "midi": 70,
                    "time": 184.079625,
                    "velocity": 0.2677165354330709,
                    "duration": 0.19900499999999965
                },
                {
                    "name": "C#5",
                    "midi": 73,
                    "time": 184.27863,
                    "velocity": 0.2677165354330709,
                    "duration": 0.19900499999999965
                },
                {
                    "name": "D#4",
                    "midi": 63,
                    "time": 184.477635,
                    "velocity": 0.28346456692913385,
                    "duration": 0.19900499999999965
                },
                {
                    "name": "G#4",
                    "midi": 68,
                    "time": 184.67664,
                    "velocity": 0.2755905511811024,
                    "duration": 0.19900499999999965
                },
                {
                    "name": "C5",
                    "midi": 72,
                    "time": 184.875645,
                    "velocity": 0.2677165354330709,
                    "duration": 0.19900499999999965
                },
                {
                    "name": "F4",
                    "midi": 65,
                    "time": 185.07465,
                    "velocity": 0.2677165354330709,
                    "duration": 0.19900499999999965
                },
                {
                    "name": "G#4",
                    "midi": 68,
                    "time": 185.273655,
                    "velocity": 0.25984251968503935,
                    "duration": 0.19900499999999965
                },
                {
                    "name": "C#5",
                    "midi": 73,
                    "time": 185.47266,
                    "velocity": 0.25984251968503935,
                    "duration": 0.19900499999999965
                },
                {
                    "name": "F#4",
                    "midi": 66,
                    "time": 185.671665,
                    "velocity": 0.2677165354330709,
                    "duration": 0.19900499999999965
                },
                {
                    "name": "G#4",
                    "midi": 68,
                    "time": 185.87067,
                    "velocity": 0.2677165354330709,
                    "duration": 0.19900499999999965
                },
                {
                    "name": "D#5",
                    "midi": 75,
                    "time": 186.069675,
                    "velocity": 0.2677165354330709,
                    "duration": 0.19900499999999965
                },
                {
                    "name": "F4",
                    "midi": 65,
                    "time": 186.26868,
                    "velocity": 0.2677165354330709,
                    "duration": 0.19900499999999965
                },
                {
                    "name": "G#4",
                    "midi": 68,
                    "time": 186.467685,
                    "velocity": 0.25984251968503935,
                    "duration": 0.19900499999999965
                },
                {
                    "name": "C#5",
                    "midi": 73,
                    "time": 186.66669,
                    "velocity": 0.25984251968503935,
                    "duration": 0.19900499999999965
                },
                {
                    "name": "G#4",
                    "midi": 68,
                    "time": 186.865695,
                    "velocity": 0.2677165354330709,
                    "duration": 0.19900499999999965
                },
                {
                    "name": "F4",
                    "midi": 65,
                    "time": 187.0647,
                    "velocity": 0.2440944881889764,
                    "duration": 0.19900499999999965
                },
                {
                    "name": "C#4",
                    "midi": 61,
                    "time": 187.263705,
                    "velocity": 0.2440944881889764,
                    "duration": 0.19900499999999965
                },
                {
                    "name": "F4",
                    "midi": 65,
                    "time": 187.46271,
                    "velocity": 0.2677165354330709,
                    "duration": 0.19900499999999965
                },
                {
                    "name": "C#4",
                    "midi": 61,
                    "time": 187.661715,
                    "velocity": 0.25196850393700787,
                    "duration": 0.19900499999999965
                },
                {
                    "name": "G#3",
                    "midi": 56,
                    "time": 187.86072,
                    "velocity": 0.25196850393700787,
                    "duration": 0.19900499999999965
                },
                {
                    "name": "F3",
                    "midi": 53,
                    "time": 188.059725,
                    "velocity": 0.4094488188976378,
                    "duration": 0.19900499999999965
                },
                {
                    "name": "G#3",
                    "midi": 56,
                    "time": 188.25872999999999,
                    "velocity": 0.4015748031496063,
                    "duration": 0.19900499999999965
                },
                {
                    "name": "C#4",
                    "midi": 61,
                    "time": 188.45773499999999,
                    "velocity": 0.4015748031496063,
                    "duration": 0.19900499999999965
                },
                {
                    "name": "F4",
                    "midi": 65,
                    "time": 188.65673999999999,
                    "velocity": 0.4645669291338583,
                    "duration": 0.19900499999999965
                },
                {
                    "name": "C#4",
                    "midi": 61,
                    "time": 188.85574499999998,
                    "velocity": 0.3937007874015748,
                    "duration": 0.19900499999999965
                },
                {
                    "name": "G#3",
                    "midi": 56,
                    "time": 189.05474999999998,
                    "velocity": 0.3937007874015748,
                    "duration": 0.19900499999999965
                },
                {
                    "name": "F3",
                    "midi": 53,
                    "time": 189.25375499999998,
                    "velocity": 0.4094488188976378,
                    "duration": 0.19900499999999965
                },
                {
                    "name": "G#3",
                    "midi": 56,
                    "time": 189.45275999999998,
                    "velocity": 0.3858267716535433,
                    "duration": 0.19900499999999965
                },
                {
                    "name": "C#4",
                    "midi": 61,
                    "time": 189.65176499999998,
                    "velocity": 0.3858267716535433,
                    "duration": 0.19900499999999965
                },
                {
                    "name": "G#3",
                    "midi": 56,
                    "time": 189.85076999999998,
                    "velocity": 0.4094488188976378,
                    "duration": 0.19900499999999965
                },
                {
                    "name": "C#4",
                    "midi": 61,
                    "time": 190.04977499999998,
                    "velocity": 0.3858267716535433,
                    "duration": 0.19900499999999965
                },
                {
                    "name": "F4",
                    "midi": 65,
                    "time": 190.24877999999998,
                    "velocity": 0.3858267716535433,
                    "duration": 0.19900499999999965
                },
                {
                    "name": "G#4",
                    "midi": 68,
                    "time": 190.44778499999998,
                    "velocity": 0.48031496062992124,
                    "duration": 0.19900499999999965
                },
                {
                    "name": "F4",
                    "midi": 65,
                    "time": 190.64678999999998,
                    "velocity": 0.3858267716535433,
                    "duration": 0.19900499999999965
                },
                {
                    "name": "C#4",
                    "midi": 61,
                    "time": 190.84579499999998,
                    "velocity": 0.3858267716535433,
                    "duration": 0.19900499999999965
                },
                {
                    "name": "G#3",
                    "midi": 56,
                    "time": 191.04479999999998,
                    "velocity": 0.4094488188976378,
                    "duration": 0.19900499999999965
                },
                {
                    "name": "C#4",
                    "midi": 61,
                    "time": 191.24380499999998,
                    "velocity": 0.3779527559055118,
                    "duration": 0.19900499999999965
                },
                {
                    "name": "F4",
                    "midi": 65,
                    "time": 191.44280999999998,
                    "velocity": 0.3779527559055118,
                    "duration": 0.19900499999999965
                },
                {
                    "name": "D4",
                    "midi": 62,
                    "time": 191.64181499999998,
                    "velocity": 0.4094488188976378,
                    "duration": 0.19900499999999965
                },
                {
                    "name": "F4",
                    "midi": 65,
                    "time": 191.84081999999998,
                    "velocity": 0.3779527559055118,
                    "duration": 0.19900499999999965
                },
                {
                    "name": "G#4",
                    "midi": 68,
                    "time": 192.03982499999998,
                    "velocity": 0.3779527559055118,
                    "duration": 0.19900499999999965
                },
                {
                    "name": "D#4",
                    "midi": 63,
                    "time": 192.23882999999998,
                    "velocity": 0.4094488188976378,
                    "duration": 0.19900499999999965
                },
                {
                    "name": "F#4",
                    "midi": 66,
                    "time": 192.43783499999998,
                    "velocity": 0.3858267716535433,
                    "duration": 0.19900499999999965
                },
                {
                    "name": "G#4",
                    "midi": 68,
                    "time": 192.63683999999998,
                    "velocity": 0.3937007874015748,
                    "duration": 0.19900499999999965
                },
                {
                    "name": "D#4",
                    "midi": 63,
                    "time": 192.83584499999998,
                    "velocity": 0.4251968503937008,
                    "duration": 0.19900499999999965
                },
                {
                    "name": "F#4",
                    "midi": 66,
                    "time": 193.03484999999998,
                    "velocity": 0.44881889763779526,
                    "duration": 0.19900499999999965
                },
                {
                    "name": "A4",
                    "midi": 69,
                    "time": 193.23385499999998,
                    "velocity": 0.4409448818897638,
                    "duration": 0.19900499999999965
                },
                {
                    "name": "C4",
                    "midi": 60,
                    "time": 193.43285999999998,
                    "velocity": 0.49606299212598426,
                    "duration": 0.19900499999999965
                },
                {
                    "name": "F#4",
                    "midi": 66,
                    "time": 193.63186499999998,
                    "velocity": 0.4566929133858268,
                    "duration": 0.19900499999999965
                },
                {
                    "name": "A#4",
                    "midi": 70,
                    "time": 193.83086999999998,
                    "velocity": 0.4330708661417323,
                    "duration": 0.19900499999999965
                },
                {
                    "name": "C4",
                    "midi": 60,
                    "time": 194.02987499999998,
                    "velocity": 0.4094488188976378,
                    "duration": 0.19900499999999965
                },
                {
                    "name": "F4",
                    "midi": 65,
                    "time": 194.22887999999998,
                    "velocity": 0.3858267716535433,
                    "duration": 0.19900499999999965
                },
                {
                    "name": "G#4",
                    "midi": 68,
                    "time": 194.42788499999997,
                    "velocity": 0.3858267716535433,
                    "duration": 0.19900499999999965
                },
                {
                    "name": "C4",
                    "midi": 60,
                    "time": 194.62688999999997,
                    "velocity": 0.4094488188976378,
                    "duration": 0.19900499999999965
                },
                {
                    "name": "D#4",
                    "midi": 63,
                    "time": 194.82589499999997,
                    "velocity": 0.3937007874015748,
                    "duration": 0.19900499999999965
                },
                {
                    "name": "F#4",
                    "midi": 66,
                    "time": 195.02489999999997,
                    "velocity": 0.3937007874015748,
                    "duration": 0.19900499999999965
                },
                {
                    "name": "F4",
                    "midi": 65,
                    "time": 195.22390499999997,
                    "velocity": 0.4094488188976378,
                    "duration": 0.19900499999999965
                },
                {
                    "name": "G#4",
                    "midi": 68,
                    "time": 195.42290999999997,
                    "velocity": 0.3937007874015748,
                    "duration": 0.19900499999999965
                },
                {
                    "name": "C#5",
                    "midi": 73,
                    "time": 195.62191499999997,
                    "velocity": 0.3937007874015748,
                    "duration": 0.19900499999999965
                },
                {
                    "name": "F5",
                    "midi": 77,
                    "time": 195.82091999999997,
                    "velocity": 0.4645669291338583,
                    "duration": 0.19900499999999965
                },
                {
                    "name": "C#5",
                    "midi": 73,
                    "time": 196.01992499999997,
                    "velocity": 0.3858267716535433,
                    "duration": 0.19900499999999965
                },
                {
                    "name": "G#4",
                    "midi": 68,
                    "time": 196.21892999999997,
                    "velocity": 0.3858267716535433,
                    "duration": 0.19900499999999965
                },
                {
                    "name": "F4",
                    "midi": 65,
                    "time": 196.41793499999997,
                    "velocity": 0.4094488188976378,
                    "duration": 0.19900499999999965
                },
                {
                    "name": "G#4",
                    "midi": 68,
                    "time": 196.61693999999997,
                    "velocity": 0.3858267716535433,
                    "duration": 0.19900499999999965
                },
                {
                    "name": "C#5",
                    "midi": 73,
                    "time": 196.81594499999997,
                    "velocity": 0.3858267716535433,
                    "duration": 0.19900499999999965
                },
                {
                    "name": "G#4",
                    "midi": 68,
                    "time": 197.01494999999997,
                    "velocity": 0.4094488188976378,
                    "duration": 0.19900499999999965
                },
                {
                    "name": "C#5",
                    "midi": 73,
                    "time": 197.21395499999997,
                    "velocity": 0.3858267716535433,
                    "duration": 0.19900499999999965
                },
                {
                    "name": "F5",
                    "midi": 77,
                    "time": 197.41295999999997,
                    "velocity": 0.3858267716535433,
                    "duration": 0.19900499999999965
                },
                {
                    "name": "G#5",
                    "midi": 80,
                    "time": 197.61196499999997,
                    "velocity": 0.48031496062992124,
                    "duration": 0.19900499999999965
                },
                {
                    "name": "F5",
                    "midi": 77,
                    "time": 197.81096999999997,
                    "velocity": 0.3858267716535433,
                    "duration": 0.19900499999999965
                },
                {
                    "name": "C#5",
                    "midi": 73,
                    "time": 198.00997499999997,
                    "velocity": 0.3858267716535433,
                    "duration": 0.19900499999999965
                },
                {
                    "name": "G#4",
                    "midi": 68,
                    "time": 198.20897999999997,
                    "velocity": 0.4094488188976378,
                    "duration": 0.19900499999999965
                },
                {
                    "name": "C#5",
                    "midi": 73,
                    "time": 198.40798499999997,
                    "velocity": 0.3858267716535433,
                    "duration": 0.19900499999999965
                },
                {
                    "name": "F5",
                    "midi": 77,
                    "time": 198.60698999999997,
                    "velocity": 0.3858267716535433,
                    "duration": 0.19900499999999965
                },
                {
                    "name": "D5",
                    "midi": 74,
                    "time": 198.80599499999997,
                    "velocity": 0.4094488188976378,
                    "duration": 0.19900499999999965
                },
                {
                    "name": "F5",
                    "midi": 77,
                    "time": 199.00499999999997,
                    "velocity": 0.3937007874015748,
                    "duration": 0.19900499999999965
                },
                {
                    "name": "G#5",
                    "midi": 80,
                    "time": 199.20400499999997,
                    "velocity": 0.3937007874015748,
                    "duration": 0.19900499999999965
                },
                {
                    "name": "D#5",
                    "midi": 75,
                    "time": 199.40300999999997,
                    "velocity": 0.4094488188976378,
                    "duration": 0.19900499999999965
                },
                {
                    "name": "F#5",
                    "midi": 78,
                    "time": 199.60201499999997,
                    "velocity": 0.3858267716535433,
                    "duration": 0.19900499999999965
                },
                {
                    "name": "G#5",
                    "midi": 80,
                    "time": 199.80101999999997,
                    "velocity": 0.3858267716535433,
                    "duration": 0.19900499999999965
                },
                {
                    "name": "D#5",
                    "midi": 75,
                    "time": 200.00002499999997,
                    "velocity": 0.4251968503937008,
                    "duration": 0.19900499999999965
                },
                {
                    "name": "F#5",
                    "midi": 78,
                    "time": 200.19902999999996,
                    "velocity": 0.44881889763779526,
                    "duration": 0.19900499999999965
                },
                {
                    "name": "A5",
                    "midi": 81,
                    "time": 200.39803499999996,
                    "velocity": 0.4409448818897638,
                    "duration": 0.19900499999999965
                },
                {
                    "name": "C5",
                    "midi": 72,
                    "time": 200.59703999999996,
                    "velocity": 0.49606299212598426,
                    "duration": 0.19900499999999965
                },
                {
                    "name": "F#5",
                    "midi": 78,
                    "time": 200.79604499999996,
                    "velocity": 0.4566929133858268,
                    "duration": 0.19900499999999965
                },
                {
                    "name": "A#5",
                    "midi": 82,
                    "time": 200.99504999999996,
                    "velocity": 0.4330708661417323,
                    "duration": 0.19900499999999965
                },
                {
                    "name": "C5",
                    "midi": 72,
                    "time": 201.19405499999996,
                    "velocity": 0.4094488188976378,
                    "duration": 0.19900499999999965
                },
                {
                    "name": "F5",
                    "midi": 77,
                    "time": 201.39305999999996,
                    "velocity": 0.3779527559055118,
                    "duration": 0.19900499999999965
                },
                {
                    "name": "G#5",
                    "midi": 80,
                    "time": 201.59206499999996,
                    "velocity": 0.3779527559055118,
                    "duration": 0.19900499999999965
                },
                {
                    "name": "C5",
                    "midi": 72,
                    "time": 201.79106999999996,
                    "velocity": 0.4094488188976378,
                    "duration": 0.19900499999999965
                },
                {
                    "name": "D#5",
                    "midi": 75,
                    "time": 201.99007499999996,
                    "velocity": 0.3779527559055118,
                    "duration": 0.19900499999999965
                },
                {
                    "name": "F#5",
                    "midi": 78,
                    "time": 202.18907999999996,
                    "velocity": 0.3779527559055118,
                    "duration": 0.19900499999999965
                },
                {
                    "name": "C5",
                    "midi": 72,
                    "time": 202.38808499999996,
                    "velocity": 0.4015748031496063,
                    "duration": 0.19900499999999965
                },
                {
                    "name": "D#5",
                    "midi": 75,
                    "time": 202.58708999999996,
                    "velocity": 0.36220472440944884,
                    "duration": 0.19900499999999965
                },
                {
                    "name": "F5",
                    "midi": 77,
                    "time": 202.78609499999996,
                    "velocity": 0.36220472440944884,
                    "duration": 0.19900499999999965
                },
                {
                    "name": "A#4",
                    "midi": 70,
                    "time": 202.98509999999996,
                    "velocity": 0.3858267716535433,
                    "duration": 0.19900499999999965
                },
                {
                    "name": "C#5",
                    "midi": 73,
                    "time": 203.18410499999996,
                    "velocity": 0.3543307086614173,
                    "duration": 0.19900499999999965
                },
                {
                    "name": "F5",
                    "midi": 77,
                    "time": 203.38310999999996,
                    "velocity": 0.3543307086614173,
                    "duration": 0.19900499999999965
                },
                {
                    "name": "G#4",
                    "midi": 68,
                    "time": 203.58211499999996,
                    "velocity": 0.36220472440944884,
                    "duration": 0.19900499999999965
                },
                {
                    "name": "C5",
                    "midi": 72,
                    "time": 203.78111999999996,
                    "velocity": 0.33070866141732286,
                    "duration": 0.19900499999999965
                },
                {
                    "name": "F5",
                    "midi": 77,
                    "time": 203.98012499999996,
                    "velocity": 0.33070866141732286,
                    "duration": 0.19900499999999965
                },
                {
                    "name": "G#4",
                    "midi": 68,
                    "time": 204.17912999999996,
                    "velocity": 0.3464566929133858,
                    "duration": 0.19900499999999965
                },
                {
                    "name": "A#4",
                    "midi": 70,
                    "time": 204.37813499999996,
                    "velocity": 0.3228346456692913,
                    "duration": 0.19900499999999965
                },
                {
                    "name": "F5",
                    "midi": 77,
                    "time": 204.57713999999996,
                    "velocity": 0.3228346456692913,
                    "duration": 0.19900499999999965
                },
                {
                    "name": "F#4",
                    "midi": 66,
                    "time": 204.77614499999996,
                    "velocity": 0.3228346456692913,
                    "duration": 0.19900499999999965
                },
                {
                    "name": "A#4",
                    "midi": 70,
                    "time": 204.97514999999996,
                    "velocity": 0.31496062992125984,
                    "duration": 0.19900499999999965
                },
                {
                    "name": "D#5",
                    "midi": 75,
                    "time": 205.17415499999996,
                    "velocity": 0.2992125984251969,
                    "duration": 0.19900499999999965
                },
                {
                    "name": "F4",
                    "midi": 65,
                    "time": 205.37315999999996,
                    "velocity": 0.30708661417322836,
                    "duration": 0.19900499999999965
                },
                {
                    "name": "A#4",
                    "midi": 70,
                    "time": 205.57216499999996,
                    "velocity": 0.2755905511811024,
                    "duration": 0.19900499999999965
                },
                {
                    "name": "C#5",
                    "midi": 73,
                    "time": 205.77116999999996,
                    "velocity": 0.2677165354330709,
                    "duration": 0.19900499999999965
                },
                {
                    "name": "D#4",
                    "midi": 63,
                    "time": 205.97017499999995,
                    "velocity": 0.28346456692913385,
                    "duration": 0.19900499999999965
                },
                {
                    "name": "G#4",
                    "midi": 68,
                    "time": 206.16917999999995,
                    "velocity": 0.2677165354330709,
                    "duration": 0.19900499999999965
                },
                {
                    "name": "C5",
                    "midi": 72,
                    "time": 206.36818499999995,
                    "velocity": 0.2677165354330709,
                    "duration": 0.19900499999999965
                },
                {
                    "name": "F4",
                    "midi": 65,
                    "time": 206.56718999999995,
                    "velocity": 0.2677165354330709,
                    "duration": 0.19900499999999965
                },
                {
                    "name": "G#4",
                    "midi": 68,
                    "time": 206.76619499999995,
                    "velocity": 0.25196850393700787,
                    "duration": 0.19900499999999965
                },
                {
                    "name": "C#5",
                    "midi": 73,
                    "time": 206.96519999999995,
                    "velocity": 0.25196850393700787,
                    "duration": 0.19900499999999965
                },
                {
                    "name": "F#4",
                    "midi": 66,
                    "time": 207.16420499999995,
                    "velocity": 0.2677165354330709,
                    "duration": 0.19900499999999965
                },
                {
                    "name": "G#4",
                    "midi": 68,
                    "time": 207.36320999999995,
                    "velocity": 0.25196850393700787,
                    "duration": 0.19900499999999965
                },
                {
                    "name": "D#5",
                    "midi": 75,
                    "time": 207.56221499999995,
                    "velocity": 0.25196850393700787,
                    "duration": 0.19900499999999965
                },
                {
                    "name": "F4",
                    "midi": 65,
                    "time": 207.76121999999995,
                    "velocity": 0.2677165354330709,
                    "duration": 0.19900499999999965
                },
                {
                    "name": "G#4",
                    "midi": 68,
                    "time": 207.96022499999995,
                    "velocity": 0.25196850393700787,
                    "duration": 0.19900499999999965
                },
                {
                    "name": "C#5",
                    "midi": 73,
                    "time": 208.15922999999995,
                    "velocity": 0.25196850393700787,
                    "duration": 0.19900499999999965
                },
                {
                    "name": "G#4",
                    "midi": 68,
                    "time": 208.35823499999995,
                    "velocity": 0.2677165354330709,
                    "duration": 0.19900499999999965
                },
                {
                    "name": "F4",
                    "midi": 65,
                    "time": 208.55723999999995,
                    "velocity": 0.2440944881889764,
                    "duration": 0.19900499999999965
                },
                {
                    "name": "C#4",
                    "midi": 61,
                    "time": 208.75624499999995,
                    "velocity": 0.2440944881889764,
                    "duration": 0.19900499999999965
                },
                {
                    "name": "F4",
                    "midi": 65,
                    "time": 208.95524999999995,
                    "velocity": 0.2677165354330709,
                    "duration": 0.19900499999999965
                },
                {
                    "name": "C#4",
                    "midi": 61,
                    "time": 209.15425499999995,
                    "velocity": 0.25196850393700787,
                    "duration": 0.19900499999999965
                },
                {
                    "name": "G#3",
                    "midi": 56,
                    "time": 209.35325999999995,
                    "velocity": 0.25196850393700787,
                    "duration": 0.19900499999999965
                },
                {
                    "name": "E3",
                    "midi": 52,
                    "time": 209.55226499999995,
                    "velocity": 0.5826771653543307,
                    "duration": 0.19900499999999965
                },
                {
                    "name": "G#3",
                    "midi": 56,
                    "time": 209.75126999999995,
                    "velocity": 0.5354330708661418,
                    "duration": 0.19900499999999965
                },
                {
                    "name": "C#4",
                    "midi": 61,
                    "time": 209.95027499999995,
                    "velocity": 0.5354330708661418,
                    "duration": 0.19900499999999965
                },
                {
                    "name": "E4",
                    "midi": 64,
                    "time": 210.14927999999995,
                    "velocity": 0.6614173228346457,
                    "duration": 0.19900499999999965
                },
                {
                    "name": "C#4",
                    "midi": 61,
                    "time": 210.34828499999995,
                    "velocity": 0.5433070866141733,
                    "duration": 0.19900499999999965
                },
                {
                    "name": "G#3",
                    "midi": 56,
                    "time": 210.54728999999995,
                    "velocity": 0.5433070866141733,
                    "duration": 0.19900499999999965
                },
                {
                    "name": "E3",
                    "midi": 52,
                    "time": 210.74629499999995,
                    "velocity": 0.5826771653543307,
                    "duration": 0.19900499999999965
                },
                {
                    "name": "G#3",
                    "midi": 56,
                    "time": 210.94529999999995,
                    "velocity": 0.5511811023622047,
                    "duration": 0.19900499999999965
                },
                {
                    "name": "C#4",
                    "midi": 61,
                    "time": 211.14430499999995,
                    "velocity": 0.5511811023622047,
                    "duration": 0.19900499999999965
                },
                {
                    "name": "G#3",
                    "midi": 56,
                    "time": 211.34330999999995,
                    "velocity": 0.5826771653543307,
                    "duration": 0.19900499999999965
                },
                {
                    "name": "C#4",
                    "midi": 61,
                    "time": 211.54231499999995,
                    "velocity": 0.5354330708661418,
                    "duration": 0.19900499999999965
                },
                {
                    "name": "E4",
                    "midi": 64,
                    "time": 211.74131999999994,
                    "velocity": 0.5354330708661418,
                    "duration": 0.19900499999999965
                },
                {
                    "name": "G#4",
                    "midi": 68,
                    "time": 211.94032499999994,
                    "velocity": 0.6692913385826772,
                    "duration": 0.19900499999999965
                },
                {
                    "name": "E4",
                    "midi": 64,
                    "time": 212.13932999999994,
                    "velocity": 0.5354330708661418,
                    "duration": 0.19900499999999965
                },
                {
                    "name": "C#4",
                    "midi": 61,
                    "time": 212.33833499999994,
                    "velocity": 0.5354330708661418,
                    "duration": 0.19900499999999965
                },
                {
                    "name": "G#3",
                    "midi": 56,
                    "time": 212.53733999999994,
                    "velocity": 0.5826771653543307,
                    "duration": 0.19900499999999965
                },
                {
                    "name": "C#4",
                    "midi": 61,
                    "time": 212.73634499999994,
                    "velocity": 0.5354330708661418,
                    "duration": 0.19900499999999965
                },
                {
                    "name": "E4",
                    "midi": 64,
                    "time": 212.93534999999994,
                    "velocity": 0.5354330708661418,
                    "duration": 0.19900499999999965
                },
                {
                    "name": "D4",
                    "midi": 62,
                    "time": 213.13435499999994,
                    "velocity": 0.5826771653543307,
                    "duration": 0.19900499999999965
                },
                {
                    "name": "F4",
                    "midi": 65,
                    "time": 213.33335999999994,
                    "velocity": 0.5433070866141733,
                    "duration": 0.19900499999999965
                },
                {
                    "name": "G#4",
                    "midi": 68,
                    "time": 213.53236499999994,
                    "velocity": 0.5433070866141733,
                    "duration": 0.19900499999999965
                },
                {
                    "name": "D#4",
                    "midi": 63,
                    "time": 213.73136999999994,
                    "velocity": 0.5826771653543307,
                    "duration": 0.19900499999999965
                },
                {
                    "name": "F#4",
                    "midi": 66,
                    "time": 213.93037499999994,
                    "velocity": 0.5275590551181102,
                    "duration": 0.19900499999999965
                },
                {
                    "name": "G#4",
                    "midi": 68,
                    "time": 214.12937999999994,
                    "velocity": 0.5433070866141733,
                    "duration": 0.19900499999999965
                },
                {
                    "name": "D4",
                    "midi": 62,
                    "time": 214.32838499999994,
                    "velocity": 0.5984251968503937,
                    "duration": 0.19900499999999965
                },
                {
                    "name": "F4",
                    "midi": 65,
                    "time": 214.52738999999994,
                    "velocity": 0.6141732283464567,
                    "duration": 0.19900499999999965
                },
                {
                    "name": "G#4",
                    "midi": 68,
                    "time": 214.72639499999994,
                    "velocity": 0.6377952755905512,
                    "duration": 0.19900499999999965
                },
                {
                    "name": "D#4",
                    "midi": 63,
                    "time": 214.92539999999994,
                    "velocity": 0.7086614173228346,
                    "duration": 0.19900499999999965
                },
                {
                    "name": "F#4",
                    "midi": 66,
                    "time": 215.12440499999994,
                    "velocity": 0.6456692913385826,
                    "duration": 0.19900499999999965
                },
                {
                    "name": "A4",
                    "midi": 69,
                    "time": 215.32340999999994,
                    "velocity": 0.6141732283464567,
                    "duration": 0.19900499999999965
                },
                {
                    "name": "C4",
                    "midi": 60,
                    "time": 215.52241499999994,
                    "velocity": 0.5826771653543307,
                    "duration": 0.19900499999999965
                },
                {
                    "name": "E4",
                    "midi": 64,
                    "time": 215.72141999999994,
                    "velocity": 0.5511811023622047,
                    "duration": 0.19900499999999965
                },
                {
                    "name": "G#4",
                    "midi": 68,
                    "time": 215.92042499999994,
                    "velocity": 0.5511811023622047,
                    "duration": 0.19900499999999965
                },
                {
                    "name": "C4",
                    "midi": 60,
                    "time": 216.11942999999994,
                    "velocity": 0.5826771653543307,
                    "duration": 0.19900499999999965
                },
                {
                    "name": "D#4",
                    "midi": 63,
                    "time": 216.31843499999994,
                    "velocity": 0.5433070866141733,
                    "duration": 0.19900499999999965
                },
                {
                    "name": "F#4",
                    "midi": 66,
                    "time": 216.51743999999994,
                    "velocity": 0.5433070866141733,
                    "duration": 0.19900499999999965
                },
                {
                    "name": "E4",
                    "midi": 64,
                    "time": 216.71644499999994,
                    "velocity": 0.5826771653543307,
                    "duration": 0.19900499999999965
                },
                {
                    "name": "G#4",
                    "midi": 68,
                    "time": 216.91544999999994,
                    "velocity": 0.5354330708661418,
                    "duration": 0.19900499999999965
                },
                {
                    "name": "C#5",
                    "midi": 73,
                    "time": 217.11445499999994,
                    "velocity": 0.5433070866141733,
                    "duration": 0.19900499999999965
                },
                {
                    "name": "E5",
                    "midi": 76,
                    "time": 217.31345999999994,
                    "velocity": 0.6614173228346457,
                    "duration": 0.19900499999999965
                },
                {
                    "name": "C#5",
                    "midi": 73,
                    "time": 217.51246499999993,
                    "velocity": 0.5433070866141733,
                    "duration": 0.19900499999999965
                },
                {
                    "name": "G#4",
                    "midi": 68,
                    "time": 217.71146999999993,
                    "velocity": 0.5433070866141733,
                    "duration": 0.19900499999999965
                },
                {
                    "name": "E4",
                    "midi": 64,
                    "time": 217.91047499999993,
                    "velocity": 0.5826771653543307,
                    "duration": 0.19900499999999965
                },
                {
                    "name": "G#4",
                    "midi": 68,
                    "time": 218.10947999999993,
                    "velocity": 0.5433070866141733,
                    "duration": 0.19900499999999965
                },
                {
                    "name": "C#5",
                    "midi": 73,
                    "time": 218.30848499999993,
                    "velocity": 0.5433070866141733,
                    "duration": 0.19900499999999965
                },
                {
                    "name": "G#4",
                    "midi": 68,
                    "time": 218.50748999999993,
                    "velocity": 0.5826771653543307,
                    "duration": 0.19900499999999965
                },
                {
                    "name": "C#5",
                    "midi": 73,
                    "time": 218.70649499999993,
                    "velocity": 0.5354330708661418,
                    "duration": 0.19900499999999965
                },
                {
                    "name": "E5",
                    "midi": 76,
                    "time": 218.90549999999993,
                    "velocity": 0.5354330708661418,
                    "duration": 0.19900499999999965
                },
                {
                    "name": "G#5",
                    "midi": 80,
                    "time": 219.10450499999993,
                    "velocity": 0.6535433070866141,
                    "duration": 0.19900499999999965
                },
                {
                    "name": "E5",
                    "midi": 76,
                    "time": 219.30350999999993,
                    "velocity": 0.5511811023622047,
                    "duration": 0.19900499999999965
                },
                {
                    "name": "C#5",
                    "midi": 73,
                    "time": 219.50251499999993,
                    "velocity": 0.5511811023622047,
                    "duration": 0.19900499999999965
                },
                {
                    "name": "G#4",
                    "midi": 68,
                    "time": 219.70151999999993,
                    "velocity": 0.5826771653543307,
                    "duration": 0.19900499999999965
                },
                {
                    "name": "C#5",
                    "midi": 73,
                    "time": 219.90052499999993,
                    "velocity": 0.5433070866141733,
                    "duration": 0.19900499999999965
                },
                {
                    "name": "E5",
                    "midi": 76,
                    "time": 220.09952999999993,
                    "velocity": 0.5433070866141733,
                    "duration": 0.19900499999999965
                },
                {
                    "name": "D#5",
                    "midi": 75,
                    "time": 220.29853499999993,
                    "velocity": 0.5826771653543307,
                    "duration": 0.19900499999999965
                },
                {
                    "name": "F#5",
                    "midi": 78,
                    "time": 220.49753999999993,
                    "velocity": 0.5433070866141733,
                    "duration": 0.19900499999999965
                },
                {
                    "name": "G#5",
                    "midi": 80,
                    "time": 220.69654499999993,
                    "velocity": 0.5433070866141733,
                    "duration": 0.19900499999999965
                },
                {
                    "name": "D#5",
                    "midi": 75,
                    "time": 220.89554999999993,
                    "velocity": 0.5826771653543307,
                    "duration": 0.19900499999999965
                },
                {
                    "name": "F#5",
                    "midi": 78,
                    "time": 221.09455499999993,
                    "velocity": 0.5511811023622047,
                    "duration": 0.19900499999999965
                },
                {
                    "name": "A#5",
                    "midi": 82,
                    "time": 221.29355999999993,
                    "velocity": 0.5511811023622047,
                    "duration": 0.19900499999999965
                },
                {
                    "name": "D#5",
                    "midi": 75,
                    "time": 221.49256499999993,
                    "velocity": 0.5984251968503937,
                    "duration": 0.19900499999999965
                },
                {
                    "name": "F#5",
                    "midi": 78,
                    "time": 221.69156999999993,
                    "velocity": 0.6377952755905512,
                    "duration": 0.19900499999999965
                },
                {
                    "name": "C6",
                    "midi": 84,
                    "time": 221.89057499999993,
                    "velocity": 0.6850393700787402,
                    "duration": 0.19900499999999965
                },
                {
                    "name": "C#5",
                    "midi": 73,
                    "time": 222.08957999999993,
                    "velocity": 0.6850393700787402,
                    "duration": 0.19900499999999965
                },
                {
                    "name": "E5",
                    "midi": 76,
                    "time": 222.28858499999993,
                    "velocity": 0.6456692913385826,
                    "duration": 0.19900499999999965
                },
                {
                    "name": "C#6",
                    "midi": 85,
                    "time": 222.48758999999993,
                    "velocity": 0.6456692913385826,
                    "duration": 0.19900499999999965
                },
                {
                    "name": "D#5",
                    "midi": 75,
                    "time": 222.68659499999993,
                    "velocity": 0.6850393700787402,
                    "duration": 0.19900499999999965
                },
                {
                    "name": "F#5",
                    "midi": 78,
                    "time": 222.88559999999993,
                    "velocity": 0.6535433070866141,
                    "duration": 0.19900499999999965
                },
                {
                    "name": "D#6",
                    "midi": 87,
                    "time": 223.08460499999993,
                    "velocity": 0.6535433070866141,
                    "duration": 0.19900499999999965
                },
                {
                    "name": "E5",
                    "midi": 76,
                    "time": 223.28360999999992,
                    "velocity": 0.6850393700787402,
                    "duration": 0.19900499999999965
                },
                {
                    "name": "G#5",
                    "midi": 80,
                    "time": 223.48261499999992,
                    "velocity": 0.6456692913385826,
                    "duration": 0.19900499999999965
                },
                {
                    "name": "E6",
                    "midi": 88,
                    "time": 223.68161999999992,
                    "velocity": 0.6456692913385826,
                    "duration": 0.19900499999999965
                },
                {
                    "name": "F#5",
                    "midi": 78,
                    "time": 223.88062499999992,
                    "velocity": 0.6850393700787402,
                    "duration": 0.19900499999999965
                },
                {
                    "name": "A5",
                    "midi": 81,
                    "time": 224.07962999999992,
                    "velocity": 0.6614173228346457,
                    "duration": 0.19900499999999965
                },
                {
                    "name": "F#6",
                    "midi": 90,
                    "time": 224.27863499999992,
                    "velocity": 0.6692913385826772,
                    "duration": 0.19900499999999965
                },
                {
                    "name": "G#5",
                    "midi": 80,
                    "time": 224.47763999999992,
                    "velocity": 0.7244094488188977,
                    "duration": 0.19900499999999965
                },
                {
                    "name": "B5",
                    "midi": 83,
                    "time": 224.67664499999992,
                    "velocity": 0.7086614173228346,
                    "duration": 0.19900499999999965
                },
                {
                    "name": "G#6",
                    "midi": 92,
                    "time": 224.87564999999992,
                    "velocity": 0.7086614173228346,
                    "duration": 0.19900499999999965
                },
                {
                    "name": "A5",
                    "midi": 81,
                    "time": 225.07465499999992,
                    "velocity": 0.7716535433070866,
                    "duration": 0.19900499999999965
                },
                {
                    "name": "C#6",
                    "midi": 85,
                    "time": 225.27365999999992,
                    "velocity": 0.7086614173228346,
                    "duration": 0.19900499999999965
                },
                {
                    "name": "A6",
                    "midi": 93,
                    "time": 225.47266499999992,
                    "velocity": 0.7401574803149606,
                    "duration": 0.19900499999999965
                },
                {
                    "name": "G#5",
                    "midi": 80,
                    "time": 225.67166999999992,
                    "velocity": 0.8110236220472441,
                    "duration": 0.19900499999999965
                },
                {
                    "name": "E6",
                    "midi": 88,
                    "time": 225.87067499999992,
                    "velocity": 0.7637795275590551,
                    "duration": 0.19900499999999965
                },
                {
                    "name": "G#6",
                    "midi": 92,
                    "time": 226.06967999999992,
                    "velocity": 0.7637795275590551,
                    "duration": 0.19900499999999965
                },
                {
                    "name": "A5",
                    "midi": 81,
                    "time": 226.26868499999992,
                    "velocity": 0.8267716535433071,
                    "duration": 0.19900499999999965
                },
                {
                    "name": "F#6",
                    "midi": 90,
                    "time": 226.46768999999992,
                    "velocity": 0.7559055118110236,
                    "duration": 0.19900499999999965
                },
                {
                    "name": "A6",
                    "midi": 93,
                    "time": 226.66669499999992,
                    "velocity": 0.7559055118110236,
                    "duration": 0.19900499999999965
                },
                {
                    "name": "B5",
                    "midi": 83,
                    "time": 226.86569999999992,
                    "velocity": 0.8582677165354331,
                    "duration": 0.19900499999999965
                },
                {
                    "name": "G#6",
                    "midi": 92,
                    "time": 227.06470499999992,
                    "velocity": 0.7952755905511811,
                    "duration": 0.19900499999999965
                },
                {
                    "name": "B6",
                    "midi": 95,
                    "time": 227.26370999999992,
                    "velocity": 0.7952755905511811,
                    "duration": 0.19900499999999965
                },
                {
                    "name": "C#6",
                    "midi": 85,
                    "time": 227.46271499999992,
                    "velocity": 0.8976377952755905,
                    "duration": 0.19900499999999965
                },
                {
                    "name": "E6",
                    "midi": 88,
                    "time": 227.66171999999992,
                    "velocity": 0.8110236220472441,
                    "duration": 0.19900499999999965
                },
                {
                    "name": "A6",
                    "midi": 93,
                    "time": 227.86072499999992,
                    "velocity": 0.8031496062992126,
                    "duration": 0.19900499999999965
                },
                {
                    "name": "C#7",
                    "midi": 97,
                    "time": 228.05972999999992,
                    "velocity": 0.8976377952755905,
                    "duration": 0.19900499999999965
                },
                {
                    "name": "A6",
                    "midi": 93,
                    "time": 228.25873499999992,
                    "velocity": 0.7795275590551181,
                    "duration": 0.19900499999999965
                },
                {
                    "name": "E6",
                    "midi": 88,
                    "time": 228.45773999999992,
                    "velocity": 0.7795275590551181,
                    "duration": 0.19900499999999965
                },
                {
                    "name": "A6",
                    "midi": 93,
                    "time": 228.65674499999992,
                    "velocity": 0.8346456692913385,
                    "duration": 0.19900499999999965
                },
                {
                    "name": "E6",
                    "midi": 88,
                    "time": 228.85574999999992,
                    "velocity": 0.7559055118110236,
                    "duration": 0.19900499999999965
                },
                {
                    "name": "C#6",
                    "midi": 85,
                    "time": 229.05475499999991,
                    "velocity": 0.7952755905511811,
                    "duration": 0.19900499999999965
                },
                {
                    "name": "A5",
                    "midi": 81,
                    "time": 229.25375999999991,
                    "velocity": 0.8267716535433071,
                    "duration": 0.19900499999999965
                },
                {
                    "name": "C#6",
                    "midi": 85,
                    "time": 229.4527649999999,
                    "velocity": 0.7637795275590551,
                    "duration": 0.19900499999999965
                },
                {
                    "name": "E6",
                    "midi": 88,
                    "time": 229.6517699999999,
                    "velocity": 0.7874015748031497,
                    "duration": 0.19900499999999965
                },
                {
                    "name": "A6",
                    "midi": 93,
                    "time": 229.8507749999999,
                    "velocity": 0.889763779527559,
                    "duration": 0.19900499999999965
                },
                {
                    "name": "E6",
                    "midi": 88,
                    "time": 230.0497799999999,
                    "velocity": 0.7559055118110236,
                    "duration": 0.19900499999999965
                },
                {
                    "name": "C#6",
                    "midi": 85,
                    "time": 230.2487849999999,
                    "velocity": 0.7559055118110236,
                    "duration": 0.19900499999999965
                },
                {
                    "name": "E6",
                    "midi": 88,
                    "time": 230.4477899999999,
                    "velocity": 0.8267716535433071,
                    "duration": 0.19900499999999965
                },
                {
                    "name": "C#6",
                    "midi": 85,
                    "time": 230.6467949999999,
                    "velocity": 0.7874015748031497,
                    "duration": 0.19900499999999965
                },
                {
                    "name": "A5",
                    "midi": 81,
                    "time": 230.8457999999999,
                    "velocity": 0.7480314960629921,
                    "duration": 0.19900499999999965
                },
                {
                    "name": "C#5",
                    "midi": 73,
                    "time": 231.0448049999999,
                    "velocity": 0.8188976377952756,
                    "duration": 0.19900499999999965
                },
                {
                    "name": "E5",
                    "midi": 76,
                    "time": 231.2438099999999,
                    "velocity": 0.7874015748031497,
                    "duration": 0.19900499999999965
                },
                {
                    "name": "A5",
                    "midi": 81,
                    "time": 231.4428149999999,
                    "velocity": 0.7480314960629921,
                    "duration": 0.19900499999999965
                },
                {
                    "name": "C#6",
                    "midi": 85,
                    "time": 231.6418199999999,
                    "velocity": 0.8976377952755905,
                    "duration": 0.19900499999999965
                },
                {
                    "name": "A5",
                    "midi": 81,
                    "time": 231.8408249999999,
                    "velocity": 0.7480314960629921,
                    "duration": 0.19900499999999965
                },
                {
                    "name": "E5",
                    "midi": 76,
                    "time": 232.0398299999999,
                    "velocity": 0.7716535433070866,
                    "duration": 0.19900499999999965
                },
                {
                    "name": "A5",
                    "midi": 81,
                    "time": 232.2388349999999,
                    "velocity": 0.8110236220472441,
                    "duration": 0.19900499999999965
                },
                {
                    "name": "E5",
                    "midi": 76,
                    "time": 232.4378399999999,
                    "velocity": 0.7480314960629921,
                    "duration": 0.19900499999999965
                },
                {
                    "name": "C#5",
                    "midi": 73,
                    "time": 232.6368449999999,
                    "velocity": 0.7480314960629921,
                    "duration": 0.19900499999999965
                },
                {
                    "name": "A4",
                    "midi": 69,
                    "time": 232.8358499999999,
                    "velocity": 0.8110236220472441,
                    "duration": 0.19900499999999965
                },
                {
                    "name": "C#5",
                    "midi": 73,
                    "time": 233.0348549999999,
                    "velocity": 0.7480314960629921,
                    "duration": 0.19900499999999965
                },
                {
                    "name": "E5",
                    "midi": 76,
                    "time": 233.2338599999999,
                    "velocity": 0.7480314960629921,
                    "duration": 0.19900499999999965
                },
                {
                    "name": "A5",
                    "midi": 81,
                    "time": 233.4328649999999,
                    "velocity": 0.8976377952755905,
                    "duration": 0.19900499999999965
                },
                {
                    "name": "E5",
                    "midi": 76,
                    "time": 233.6318699999999,
                    "velocity": 0.7716535433070866,
                    "duration": 0.19900499999999965
                },
                {
                    "name": "C#5",
                    "midi": 73,
                    "time": 233.8308749999999,
                    "velocity": 0.7716535433070866,
                    "duration": 0.19900499999999965
                },
                {
                    "name": "E5",
                    "midi": 76,
                    "time": 234.0298799999999,
                    "velocity": 0.8031496062992126,
                    "duration": 0.19900499999999965
                },
                {
                    "name": "C#5",
                    "midi": 73,
                    "time": 234.2288849999999,
                    "velocity": 0.7716535433070866,
                    "duration": 0.19900499999999965
                },
                {
                    "name": "A4",
                    "midi": 69,
                    "time": 234.4278899999999,
                    "velocity": 0.7716535433070866,
                    "duration": 0.19900499999999965
                },
                {
                    "name": "E5",
                    "midi": 76,
                    "time": 234.6268949999999,
                    "velocity": 0.8031496062992126,
                    "duration": 0.19900499999999965
                },
                {
                    "name": "C#5",
                    "midi": 73,
                    "time": 234.8258999999999,
                    "velocity": 0.7637795275590551,
                    "duration": 0.19900499999999965
                },
                {
                    "name": "A4",
                    "midi": 69,
                    "time": 235.0249049999999,
                    "velocity": 0.7637795275590551,
                    "duration": 0.19900499999999965
                },
                {
                    "name": "C#5",
                    "midi": 73,
                    "time": 235.2239099999999,
                    "velocity": 0.889763779527559,
                    "duration": 0.19900499999999965
                },
                {
                    "name": "A4",
                    "midi": 69,
                    "time": 235.4229149999999,
                    "velocity": 0.7637795275590551,
                    "duration": 0.19900499999999965
                },
                {
                    "name": "E4",
                    "midi": 64,
                    "time": 235.6219199999999,
                    "velocity": 0.7637795275590551,
                    "duration": 0.19900499999999965
                },
                {
                    "name": "A4",
                    "midi": 69,
                    "time": 235.8209249999999,
                    "velocity": 0.8031496062992126,
                    "duration": 0.19900499999999965
                },
                {
                    "name": "E4",
                    "midi": 64,
                    "time": 236.0199299999999,
                    "velocity": 0.7637795275590551,
                    "duration": 0.19900499999999965
                },
                {
                    "name": "C#4",
                    "midi": 61,
                    "time": 236.2189349999999,
                    "velocity": 0.7637795275590551,
                    "duration": 0.19900499999999965
                },
                {
                    "name": "A4",
                    "midi": 69,
                    "time": 236.4179399999999,
                    "velocity": 0.7795275590551181,
                    "duration": 0.19900499999999965
                },
                {
                    "name": "E4",
                    "midi": 64,
                    "time": 236.6169449999999,
                    "velocity": 0.7322834645669292,
                    "duration": 0.19900499999999965
                },
                {
                    "name": "C#4",
                    "midi": 61,
                    "time": 236.8159499999999,
                    "velocity": 0.6850393700787402,
                    "duration": 0.19900499999999965
                },
                {
                    "name": "E4",
                    "midi": 64,
                    "time": 237.0149549999999,
                    "velocity": 0.6377952755905512,
                    "duration": 0.19900499999999965
                },
                {
                    "name": "C#4",
                    "midi": 61,
                    "time": 237.2139599999999,
                    "velocity": 0.6141732283464567,
                    "duration": 0.19900499999999965
                },
                {
                    "name": "A3",
                    "midi": 57,
                    "time": 237.4129649999999,
                    "velocity": 0.5669291338582677,
                    "duration": 0.19900499999999965
                },
                {
                    "name": "C#4",
                    "midi": 61,
                    "time": 237.6119699999999,
                    "velocity": 0.5275590551181102,
                    "duration": 0.19900499999999965
                },
                {
                    "name": "A3",
                    "midi": 57,
                    "time": 237.8109749999999,
                    "velocity": 0.48031496062992124,
                    "duration": 0.19900499999999965
                },
                {
                    "name": "E3",
                    "midi": 52,
                    "time": 238.0099799999999,
                    "velocity": 0.4251968503937008,
                    "duration": 0.19900499999999965
                },
                {
                    "name": "C#3",
                    "midi": 49,
                    "time": 238.2089849999999,
                    "velocity": 0.4094488188976378,
                    "duration": 0.19900499999999965
                },
                {
                    "name": "E3",
                    "midi": 52,
                    "time": 238.4079899999999,
                    "velocity": 0.3937007874015748,
                    "duration": 0.19900499999999965
                },
                {
                    "name": "A3",
                    "midi": 57,
                    "time": 238.6069949999999,
                    "velocity": 0.3937007874015748,
                    "duration": 0.19900499999999965
                },
                {
                    "name": "C#4",
                    "midi": 61,
                    "time": 238.8059999999999,
                    "velocity": 0.4015748031496063,
                    "duration": 0.19900499999999965
                },
                {
                    "name": "A3",
                    "midi": 57,
                    "time": 239.0050049999999,
                    "velocity": 0.3700787401574803,
                    "duration": 0.19900499999999965
                },
                {
                    "name": "E3",
                    "midi": 52,
                    "time": 239.2040099999999,
                    "velocity": 0.3779527559055118,
                    "duration": 0.19900499999999965
                },
                {
                    "name": "C#3",
                    "midi": 49,
                    "time": 239.4030149999999,
                    "velocity": 0.4015748031496063,
                    "duration": 0.19900499999999965
                },
                {
                    "name": "E3",
                    "midi": 52,
                    "time": 239.6020199999999,
                    "velocity": 0.3700787401574803,
                    "duration": 0.19900499999999965
                },
                {
                    "name": "A3",
                    "midi": 57,
                    "time": 239.8010249999999,
                    "velocity": 0.3700787401574803,
                    "duration": 0.19900499999999965
                },
                {
                    "name": "C#3",
                    "midi": 49,
                    "time": 240.0000299999999,
                    "velocity": 0.4015748031496063,
                    "duration": 0.19900499999999965
                },
                {
                    "name": "F#3",
                    "midi": 54,
                    "time": 240.1990349999999,
                    "velocity": 0.3858267716535433,
                    "duration": 0.19900499999999965
                },
                {
                    "name": "A3",
                    "midi": 57,
                    "time": 240.3980399999999,
                    "velocity": 0.3858267716535433,
                    "duration": 0.19900499999999965
                },
                {
                    "name": "C#4",
                    "midi": 61,
                    "time": 240.5970449999999,
                    "velocity": 0.4094488188976378,
                    "duration": 0.19900499999999965
                },
                {
                    "name": "A3",
                    "midi": 57,
                    "time": 240.7960499999999,
                    "velocity": 0.3858267716535433,
                    "duration": 0.19900499999999965
                },
                {
                    "name": "F#3",
                    "midi": 54,
                    "time": 240.9950549999999,
                    "velocity": 0.3858267716535433,
                    "duration": 0.19900499999999965
                },
                {
                    "name": "C#3",
                    "midi": 49,
                    "time": 241.1940599999999,
                    "velocity": 0.4094488188976378,
                    "duration": 0.19900499999999965
                },
                {
                    "name": "F#3",
                    "midi": 54,
                    "time": 241.3930649999999,
                    "velocity": 0.3779527559055118,
                    "duration": 0.19900499999999965
                },
                {
                    "name": "A3",
                    "midi": 57,
                    "time": 241.5920699999999,
                    "velocity": 0.3779527559055118,
                    "duration": 0.19900499999999965
                },
                {
                    "name": "C#3",
                    "midi": 49,
                    "time": 241.7910749999999,
                    "velocity": 0.4015748031496063,
                    "duration": 0.19900499999999965
                },
                {
                    "name": "F3",
                    "midi": 53,
                    "time": 241.9900799999999,
                    "velocity": 0.3779527559055118,
                    "duration": 0.19900499999999965
                },
                {
                    "name": "G#3",
                    "midi": 56,
                    "time": 242.1890849999999,
                    "velocity": 0.3779527559055118,
                    "duration": 0.19900499999999965
                },
                {
                    "name": "C#4",
                    "midi": 61,
                    "time": 242.3880899999999,
                    "velocity": 0.3937007874015748,
                    "duration": 0.19900499999999965
                },
                {
                    "name": "G#3",
                    "midi": 56,
                    "time": 242.5870949999999,
                    "velocity": 0.3543307086614173,
                    "duration": 0.19900499999999965
                },
                {
                    "name": "F3",
                    "midi": 53,
                    "time": 242.7860999999999,
                    "velocity": 0.3543307086614173,
                    "duration": 0.19900499999999965
                },
                {
                    "name": "C#3",
                    "midi": 49,
                    "time": 242.9851049999999,
                    "velocity": 0.3779527559055118,
                    "duration": 0.19900499999999965
                },
                {
                    "name": "F3",
                    "midi": 53,
                    "time": 243.1841099999999,
                    "velocity": 0.3543307086614173,
                    "duration": 0.19900499999999965
                },
                {
                    "name": "G#3",
                    "midi": 56,
                    "time": 243.3831149999999,
                    "velocity": 0.3543307086614173,
                    "duration": 0.19900499999999965
                },
                {
                    "name": "D#3",
                    "midi": 51,
                    "time": 243.5821199999999,
                    "velocity": 0.36220472440944884,
                    "duration": 0.19900499999999965
                },
                {
                    "name": "F#3",
                    "midi": 54,
                    "time": 243.7811249999999,
                    "velocity": 0.33070866141732286,
                    "duration": 0.19900499999999965
                },
                {
                    "name": "G#3",
                    "midi": 56,
                    "time": 243.9801299999999,
                    "velocity": 0.33070866141732286,
                    "duration": 0.19900499999999965
                },
                {
                    "name": "C4",
                    "midi": 60,
                    "time": 244.1791349999999,
                    "velocity": 0.3543307086614173,
                    "duration": 0.19900499999999965
                },
                {
                    "name": "G#3",
                    "midi": 56,
                    "time": 244.3781399999999,
                    "velocity": 0.3228346456692913,
                    "duration": 0.19900499999999965
                },
                {
                    "name": "F#3",
                    "midi": 54,
                    "time": 244.5771449999999,
                    "velocity": 0.3228346456692913,
                    "duration": 0.19900499999999965
                },
                {
                    "name": "D#3",
                    "midi": 51,
                    "time": 244.7761499999999,
                    "velocity": 0.3464566929133858,
                    "duration": 0.19900499999999965
                },
                {
                    "name": "F#3",
                    "midi": 54,
                    "time": 244.9751549999999,
                    "velocity": 0.31496062992125984,
                    "duration": 0.19900499999999965
                },
                {
                    "name": "G#3",
                    "midi": 56,
                    "time": 245.1741599999999,
                    "velocity": 0.3228346456692913,
                    "duration": 0.19900499999999965
                },
                {
                    "name": "F3",
                    "midi": 53,
                    "time": 245.3731649999999,
                    "velocity": 0.4094488188976378,
                    "duration": 0.19900499999999965
                },
                {
                    "name": "G#3",
                    "midi": 56,
                    "time": 245.5721699999999,
                    "velocity": 0.3700787401574803,
                    "duration": 0.19900499999999965
                },
                {
                    "name": "C#4",
                    "midi": 61,
                    "time": 245.7711749999999,
                    "velocity": 0.3700787401574803,
                    "duration": 0.19900499999999965
                },
                {
                    "name": "F4",
                    "midi": 65,
                    "time": 245.97017999999989,
                    "velocity": 0.4645669291338583,
                    "duration": 0.19900499999999965
                },
                {
                    "name": "C#4",
                    "midi": 61,
                    "time": 246.16918499999989,
                    "velocity": 0.3779527559055118,
                    "duration": 0.19900499999999965
                },
                {
                    "name": "G#3",
                    "midi": 56,
                    "time": 246.36818999999988,
                    "velocity": 0.3779527559055118,
                    "duration": 0.19900499999999965
                },
                {
                    "name": "F3",
                    "midi": 53,
                    "time": 246.56719499999988,
                    "velocity": 0.4094488188976378,
                    "duration": 0.19900499999999965
                },
                {
                    "name": "G#3",
                    "midi": 56,
                    "time": 246.76619999999988,
                    "velocity": 0.3779527559055118,
                    "duration": 0.19900499999999965
                },
                {
                    "name": "C#4",
                    "midi": 61,
                    "time": 246.96520499999988,
                    "velocity": 0.3779527559055118,
                    "duration": 0.19900499999999965
                },
                {
                    "name": "G#3",
                    "midi": 56,
                    "time": 247.16420999999988,
                    "velocity": 0.4094488188976378,
                    "duration": 0.19900499999999965
                },
                {
                    "name": "C#4",
                    "midi": 61,
                    "time": 247.36321499999988,
                    "velocity": 0.3779527559055118,
                    "duration": 0.19900499999999965
                },
                {
                    "name": "F4",
                    "midi": 65,
                    "time": 247.56221999999988,
                    "velocity": 0.3779527559055118,
                    "duration": 0.19900499999999965
                },
                {
                    "name": "G#4",
                    "midi": 68,
                    "time": 247.76122499999988,
                    "velocity": 0.48031496062992124,
                    "duration": 0.19900499999999965
                },
                {
                    "name": "F4",
                    "midi": 65,
                    "time": 247.96022999999988,
                    "velocity": 0.3700787401574803,
                    "duration": 0.19900499999999965
                },
                {
                    "name": "C#4",
                    "midi": 61,
                    "time": 248.15923499999988,
                    "velocity": 0.3700787401574803,
                    "duration": 0.19900499999999965
                },
                {
                    "name": "G#3",
                    "midi": 56,
                    "time": 248.35823999999988,
                    "velocity": 0.4094488188976378,
                    "duration": 0.19900499999999965
                },
                {
                    "name": "C#4",
                    "midi": 61,
                    "time": 248.55724499999988,
                    "velocity": 0.3700787401574803,
                    "duration": 0.19900499999999965
                },
                {
                    "name": "F4",
                    "midi": 65,
                    "time": 248.75624999999988,
                    "velocity": 0.3700787401574803,
                    "duration": 0.19900499999999965
                },
                {
                    "name": "D4",
                    "midi": 62,
                    "time": 248.95525499999988,
                    "velocity": 0.4094488188976378,
                    "duration": 0.19900499999999965
                },
                {
                    "name": "F4",
                    "midi": 65,
                    "time": 249.15425999999988,
                    "velocity": 0.3779527559055118,
                    "duration": 0.19900499999999965
                },
                {
                    "name": "G#4",
                    "midi": 68,
                    "time": 249.35326499999988,
                    "velocity": 0.3779527559055118,
                    "duration": 0.19900499999999965
                },
                {
                    "name": "D#4",
                    "midi": 63,
                    "time": 249.55226999999988,
                    "velocity": 0.4094488188976378,
                    "duration": 0.19900499999999965
                },
                {
                    "name": "F#4",
                    "midi": 66,
                    "time": 249.75127499999988,
                    "velocity": 0.3779527559055118,
                    "duration": 0.19900499999999965
                },
                {
                    "name": "G#4",
                    "midi": 68,
                    "time": 249.95027999999988,
                    "velocity": 0.3779527559055118,
                    "duration": 0.19900499999999965
                },
                {
                    "name": "D#4",
                    "midi": 63,
                    "time": 250.14928499999988,
                    "velocity": 0.4251968503937008,
                    "duration": 0.19900499999999965
                },
                {
                    "name": "F#4",
                    "midi": 66,
                    "time": 250.34828999999988,
                    "velocity": 0.44881889763779526,
                    "duration": 0.19900499999999965
                },
                {
                    "name": "A4",
                    "midi": 69,
                    "time": 250.54729499999988,
                    "velocity": 0.4409448818897638,
                    "duration": 0.19900499999999965
                },
                {
                    "name": "C4",
                    "midi": 60,
                    "time": 250.74629999999988,
                    "velocity": 0.49606299212598426,
                    "duration": 0.19900499999999965
                },
                {
                    "name": "F#4",
                    "midi": 66,
                    "time": 250.94530499999988,
                    "velocity": 0.4566929133858268,
                    "duration": 0.19900499999999965
                },
                {
                    "name": "A#4",
                    "midi": 70,
                    "time": 251.14430999999988,
                    "velocity": 0.4330708661417323,
                    "duration": 0.19900499999999965
                },
                {
                    "name": "C4",
                    "midi": 60,
                    "time": 251.34331499999988,
                    "velocity": 0.4094488188976378,
                    "duration": 0.19900499999999965
                },
                {
                    "name": "F4",
                    "midi": 65,
                    "time": 251.54231999999988,
                    "velocity": 0.3700787401574803,
                    "duration": 0.19900499999999965
                },
                {
                    "name": "G#4",
                    "midi": 68,
                    "time": 251.74132499999988,
                    "velocity": 0.3700787401574803,
                    "duration": 0.19900499999999965
                },
                {
                    "name": "C4",
                    "midi": 60,
                    "time": 251.94032999999988,
                    "velocity": 0.4094488188976378,
                    "duration": 0.19900499999999965
                },
                {
                    "name": "D#4",
                    "midi": 63,
                    "time": 252.13933499999987,
                    "velocity": 0.3858267716535433,
                    "duration": 0.19900499999999965
                },
                {
                    "name": "F#4",
                    "midi": 66,
                    "time": 252.33833999999987,
                    "velocity": 0.3858267716535433,
                    "duration": 0.19900499999999965
                },
                {
                    "name": "F4",
                    "midi": 65,
                    "time": 252.53734499999987,
                    "velocity": 0.4094488188976378,
                    "duration": 0.19900499999999965
                },
                {
                    "name": "G#4",
                    "midi": 68,
                    "time": 252.73634999999987,
                    "velocity": 0.3858267716535433,
                    "duration": 0.19900499999999965
                },
                {
                    "name": "C#5",
                    "midi": 73,
                    "time": 252.93535499999987,
                    "velocity": 0.3858267716535433,
                    "duration": 0.19900499999999965
                },
                {
                    "name": "F5",
                    "midi": 77,
                    "time": 253.13435999999987,
                    "velocity": 0.4645669291338583,
                    "duration": 0.19900499999999965
                },
                {
                    "name": "C#5",
                    "midi": 73,
                    "time": 253.33336499999987,
                    "velocity": 0.3858267716535433,
                    "duration": 0.19900499999999965
                },
                {
                    "name": "G#4",
                    "midi": 68,
                    "time": 253.53236999999987,
                    "velocity": 0.4094488188976378,
                    "duration": 0.19900499999999965
                },
                {
                    "name": "F4",
                    "midi": 65,
                    "time": 253.73137499999987,
                    "velocity": 0.4094488188976378,
                    "duration": 0.19900499999999965
                },
                {
                    "name": "G#4",
                    "midi": 68,
                    "time": 253.93037999999987,
                    "velocity": 0.3858267716535433,
                    "duration": 0.19900499999999965
                },
                {
                    "name": "C#5",
                    "midi": 73,
                    "time": 254.12938499999987,
                    "velocity": 0.3858267716535433,
                    "duration": 0.19900499999999965
                },
                {
                    "name": "G#4",
                    "midi": 68,
                    "time": 254.32838999999987,
                    "velocity": 0.4094488188976378,
                    "duration": 0.19900499999999965
                },
                {
                    "name": "C#5",
                    "midi": 73,
                    "time": 254.52739499999987,
                    "velocity": 0.3858267716535433,
                    "duration": 0.19900499999999965
                },
                {
                    "name": "F5",
                    "midi": 77,
                    "time": 254.72639999999987,
                    "velocity": 0.3858267716535433,
                    "duration": 0.19900499999999965
                },
                {
                    "name": "G#5",
                    "midi": 80,
                    "time": 254.92540499999987,
                    "velocity": 0.48031496062992124,
                    "duration": 0.19900499999999965
                },
                {
                    "name": "F5",
                    "midi": 77,
                    "time": 255.12440999999987,
                    "velocity": 0.3937007874015748,
                    "duration": 0.19900499999999965
                },
                {
                    "name": "C#5",
                    "midi": 73,
                    "time": 255.32341499999987,
                    "velocity": 0.3937007874015748,
                    "duration": 0.19900499999999965
                },
                {
                    "name": "G#4",
                    "midi": 68,
                    "time": 255.52241999999987,
                    "velocity": 0.4094488188976378,
                    "duration": 0.19900499999999965
                },
                {
                    "name": "C#5",
                    "midi": 73,
                    "time": 255.72142499999987,
                    "velocity": 0.3779527559055118,
                    "duration": 0.19900499999999965
                },
                {
                    "name": "F5",
                    "midi": 77,
                    "time": 255.92042999999987,
                    "velocity": 0.4094488188976378,
                    "duration": 0.19900500000002808
                },
                {
                    "name": "D5",
                    "midi": 74,
                    "time": 256.1194349999999,
                    "velocity": 0.4094488188976378,
                    "duration": 0.19900499999999965
                },
                {
                    "name": "F5",
                    "midi": 77,
                    "time": 256.3184399999999,
                    "velocity": 0.3858267716535433,
                    "duration": 0.19900499999999965
                },
                {
                    "name": "G#5",
                    "midi": 80,
                    "time": 256.5174449999999,
                    "velocity": 0.4094488188976378,
                    "duration": 0.19900499999999965
                },
                {
                    "name": "D#5",
                    "midi": 75,
                    "time": 256.7164499999999,
                    "velocity": 0.4094488188976378,
                    "duration": 0.19900499999999965
                },
                {
                    "name": "F#5",
                    "midi": 78,
                    "time": 256.9154549999999,
                    "velocity": 0.3858267716535433,
                    "duration": 0.19900499999999965
                },
                {
                    "name": "G#5",
                    "midi": 80,
                    "time": 257.1144599999999,
                    "velocity": 0.3858267716535433,
                    "duration": 0.19900499999999965
                },
                {
                    "name": "D#5",
                    "midi": 75,
                    "time": 257.3134649999999,
                    "velocity": 0.4251968503937008,
                    "duration": 0.19900499999999965
                },
                {
                    "name": "F#5",
                    "midi": 78,
                    "time": 257.5124699999999,
                    "velocity": 0.44881889763779526,
                    "duration": 0.19900499999999965
                },
                {
                    "name": "A5",
                    "midi": 81,
                    "time": 257.7114749999999,
                    "velocity": 0.44881889763779526,
                    "duration": 0.19900499999999965
                },
                {
                    "name": "C5",
                    "midi": 72,
                    "time": 257.9104799999999,
                    "velocity": 0.49606299212598426,
                    "duration": 0.19900499999999965
                },
                {
                    "name": "F#5",
                    "midi": 78,
                    "time": 258.1094849999999,
                    "velocity": 0.4566929133858268,
                    "duration": 0.19900499999999965
                },
                {
                    "name": "A#5",
                    "midi": 82,
                    "time": 258.3084899999999,
                    "velocity": 0.4330708661417323,
                    "duration": 0.19900499999999965
                },
                {
                    "name": "C5",
                    "midi": 72,
                    "time": 258.5074949999999,
                    "velocity": 0.4094488188976378,
                    "duration": 0.19900499999999965
                },
                {
                    "name": "F5",
                    "midi": 77,
                    "time": 258.7064999999999,
                    "velocity": 0.3779527559055118,
                    "duration": 0.19900499999999965
                },
                {
                    "name": "G#5",
                    "midi": 80,
                    "time": 258.9055049999999,
                    "velocity": 0.3779527559055118,
                    "duration": 0.19900499999999965
                },
                {
                    "name": "C5",
                    "midi": 72,
                    "time": 259.1045099999999,
                    "velocity": 0.4094488188976378,
                    "duration": 0.19900499999999965
                },
                {
                    "name": "D#5",
                    "midi": 75,
                    "time": 259.3035149999999,
                    "velocity": 0.3858267716535433,
                    "duration": 0.19900499999999965
                },
                {
                    "name": "F#5",
                    "midi": 78,
                    "time": 259.5025199999999,
                    "velocity": 0.3858267716535433,
                    "duration": 0.19900499999999965
                },
                {
                    "name": "C5",
                    "midi": 72,
                    "time": 259.7015249999999,
                    "velocity": 0.4015748031496063,
                    "duration": 0.19900499999999965
                },
                {
                    "name": "D#5",
                    "midi": 75,
                    "time": 259.9005299999999,
                    "velocity": 0.36220472440944884,
                    "duration": 0.19900499999999965
                },
                {
                    "name": "F5",
                    "midi": 77,
                    "time": 260.0995349999999,
                    "velocity": 0.36220472440944884,
                    "duration": 0.19900499999999965
                },
                {
                    "name": "A#4",
                    "midi": 70,
                    "time": 260.2985399999999,
                    "velocity": 0.3858267716535433,
                    "duration": 0.19900499999999965
                },
                {
                    "name": "C#5",
                    "midi": 73,
                    "time": 260.4975449999999,
                    "velocity": 0.3543307086614173,
                    "duration": 0.19900499999999965
                },
                {
                    "name": "F5",
                    "midi": 77,
                    "time": 260.6965499999999,
                    "velocity": 0.3543307086614173,
                    "duration": 0.19900499999999965
                },
                {
                    "name": "G#4",
                    "midi": 68,
                    "time": 260.8955549999999,
                    "velocity": 0.36220472440944884,
                    "duration": 0.19900499999999965
                },
                {
                    "name": "C5",
                    "midi": 72,
                    "time": 261.0945599999999,
                    "velocity": 0.33070866141732286,
                    "duration": 0.19900499999999965
                },
                {
                    "name": "F5",
                    "midi": 77,
                    "time": 261.2935649999999,
                    "velocity": 0.33070866141732286,
                    "duration": 0.19900499999999965
                },
                {
                    "name": "G#4",
                    "midi": 68,
                    "time": 261.4925699999999,
                    "velocity": 0.3464566929133858,
                    "duration": 0.19900499999999965
                },
                {
                    "name": "A#4",
                    "midi": 70,
                    "time": 261.6915749999999,
                    "velocity": 0.30708661417322836,
                    "duration": 0.19900499999999965
                },
                {
                    "name": "F5",
                    "midi": 77,
                    "time": 261.8905799999999,
                    "velocity": 0.30708661417322836,
                    "duration": 0.19900499999999965
                },
                {
                    "name": "F#4",
                    "midi": 66,
                    "time": 262.0895849999999,
                    "velocity": 0.3228346456692913,
                    "duration": 0.19900499999999965
                },
                {
                    "name": "A#4",
                    "midi": 70,
                    "time": 262.2885899999999,
                    "velocity": 0.29133858267716534,
                    "duration": 0.19900499999999965
                },
                {
                    "name": "D#5",
                    "midi": 75,
                    "time": 262.4875949999999,
                    "velocity": 0.29133858267716534,
                    "duration": 0.19900499999999965
                },
                {
                    "name": "F4",
                    "midi": 65,
                    "time": 262.6865999999999,
                    "velocity": 0.30708661417322836,
                    "duration": 0.19900499999999965
                },
                {
                    "name": "A#4",
                    "midi": 70,
                    "time": 262.8856049999999,
                    "velocity": 0.2755905511811024,
                    "duration": 0.19900499999999965
                },
                {
                    "name": "C#5",
                    "midi": 73,
                    "time": 263.0846099999999,
                    "velocity": 0.2755905511811024,
                    "duration": 0.19900499999999965
                },
                {
                    "name": "D#4",
                    "midi": 63,
                    "time": 263.2836149999999,
                    "velocity": 0.28346456692913385,
                    "duration": 0.19900499999999965
                },
                {
                    "name": "G#4",
                    "midi": 68,
                    "time": 263.4826199999999,
                    "velocity": 0.25196850393700787,
                    "duration": 0.19900499999999965
                },
                {
                    "name": "C5",
                    "midi": 72,
                    "time": 263.6816249999999,
                    "velocity": 0.2677165354330709,
                    "duration": 0.19900499999999965
                },
                {
                    "name": "F4",
                    "midi": 65,
                    "time": 263.8806299999999,
                    "velocity": 0.2677165354330709,
                    "duration": 0.19900499999999965
                },
                {
                    "name": "G#4",
                    "midi": 68,
                    "time": 264.0796349999999,
                    "velocity": 0.25984251968503935,
                    "duration": 0.19900499999999965
                },
                {
                    "name": "C#5",
                    "midi": 73,
                    "time": 264.2786399999999,
                    "velocity": 0.25984251968503935,
                    "duration": 0.19900499999999965
                },
                {
                    "name": "F#4",
                    "midi": 66,
                    "time": 264.4776449999999,
                    "velocity": 0.2677165354330709,
                    "duration": 0.19900499999999965
                },
                {
                    "name": "G#4",
                    "midi": 68,
                    "time": 264.6766499999999,
                    "velocity": 0.25984251968503935,
                    "duration": 0.19900499999999965
                },
                {
                    "name": "D#5",
                    "midi": 75,
                    "time": 264.8756549999999,
                    "velocity": 0.25984251968503935,
                    "duration": 0.19900499999999965
                },
                {
                    "name": "F4",
                    "midi": 65,
                    "time": 265.0746599999999,
                    "velocity": 0.2677165354330709,
                    "duration": 0.19900499999999965
                },
                {
                    "name": "G#4",
                    "midi": 68,
                    "time": 265.2736649999999,
                    "velocity": 0.25196850393700787,
                    "duration": 0.19900499999999965
                },
                {
                    "name": "C#5",
                    "midi": 73,
                    "time": 265.4726699999999,
                    "velocity": 0.2440944881889764,
                    "duration": 0.19900499999999965
                },
                {
                    "name": "G#4",
                    "midi": 68,
                    "time": 265.6716749999999,
                    "velocity": 0.2677165354330709,
                    "duration": 0.19900499999999965
                },
                {
                    "name": "F4",
                    "midi": 65,
                    "time": 265.8706799999999,
                    "velocity": 0.2283464566929134,
                    "duration": 0.19900499999999965
                },
                {
                    "name": "C#4",
                    "midi": 61,
                    "time": 266.0696849999999,
                    "velocity": 0.2283464566929134,
                    "duration": 0.19900499999999965
                },
                {
                    "name": "F4",
                    "midi": 65,
                    "time": 266.2686899999999,
                    "velocity": 0.2677165354330709,
                    "duration": 0.19900499999999965
                },
                {
                    "name": "C#4",
                    "midi": 61,
                    "time": 266.4676949999999,
                    "velocity": 0.2283464566929134,
                    "duration": 0.19900499999999965
                },
                {
                    "name": "G#3",
                    "midi": 56,
                    "time": 266.6666999999999,
                    "velocity": 0.2283464566929134,
                    "duration": 0.19900499999999965
                },
                {
                    "name": "E3",
                    "midi": 52,
                    "time": 266.8657049999999,
                    "velocity": 0.5826771653543307,
                    "duration": 0.19900499999999965
                },
                {
                    "name": "G#3",
                    "midi": 56,
                    "time": 267.0647099999999,
                    "velocity": 0.5354330708661418,
                    "duration": 0.19900499999999965
                },
                {
                    "name": "C#4",
                    "midi": 61,
                    "time": 267.2637149999999,
                    "velocity": 0.5354330708661418,
                    "duration": 0.19900499999999965
                },
                {
                    "name": "E4",
                    "midi": 64,
                    "time": 267.4627199999999,
                    "velocity": 0.6614173228346457,
                    "duration": 0.19900499999999965
                },
                {
                    "name": "C#4",
                    "midi": 61,
                    "time": 267.6617249999999,
                    "velocity": 0.5433070866141733,
                    "duration": 0.19900499999999965
                },
                {
                    "name": "G#3",
                    "midi": 56,
                    "time": 267.8607299999999,
                    "velocity": 0.5433070866141733,
                    "duration": 0.19900499999999965
                },
                {
                    "name": "E3",
                    "midi": 52,
                    "time": 268.0597349999999,
                    "velocity": 0.5826771653543307,
                    "duration": 0.19900499999999965
                },
                {
                    "name": "G#3",
                    "midi": 56,
                    "time": 268.2587399999999,
                    "velocity": 0.5511811023622047,
                    "duration": 0.19900499999999965
                },
                {
                    "name": "C#4",
                    "midi": 61,
                    "time": 268.4577449999999,
                    "velocity": 0.5511811023622047,
                    "duration": 0.19900499999999965
                },
                {
                    "name": "G#3",
                    "midi": 56,
                    "time": 268.6567499999999,
                    "velocity": 0.5826771653543307,
                    "duration": 0.19900499999999965
                },
                {
                    "name": "C#4",
                    "midi": 61,
                    "time": 268.8557549999999,
                    "velocity": 0.5354330708661418,
                    "duration": 0.19900499999999965
                },
                {
                    "name": "E4",
                    "midi": 64,
                    "time": 269.0547599999999,
                    "velocity": 0.5354330708661418,
                    "duration": 0.19900499999999965
                },
                {
                    "name": "G#4",
                    "midi": 68,
                    "time": 269.2537649999999,
                    "velocity": 0.6692913385826772,
                    "duration": 0.19900499999999965
                },
                {
                    "name": "E4",
                    "midi": 64,
                    "time": 269.4527699999999,
                    "velocity": 0.5354330708661418,
                    "duration": 0.19900499999999965
                },
                {
                    "name": "C#4",
                    "midi": 61,
                    "time": 269.6517749999999,
                    "velocity": 0.5354330708661418,
                    "duration": 0.19900499999999965
                },
                {
                    "name": "G#3",
                    "midi": 56,
                    "time": 269.8507799999999,
                    "velocity": 0.5826771653543307,
                    "duration": 0.19900499999999965
                },
                {
                    "name": "C#4",
                    "midi": 61,
                    "time": 270.0497849999999,
                    "velocity": 0.5354330708661418,
                    "duration": 0.19900499999999965
                },
                {
                    "name": "E4",
                    "midi": 64,
                    "time": 270.2487899999999,
                    "velocity": 0.5354330708661418,
                    "duration": 0.19900499999999965
                },
                {
                    "name": "D4",
                    "midi": 62,
                    "time": 270.44779499999987,
                    "velocity": 0.5826771653543307,
                    "duration": 0.19900499999999965
                },
                {
                    "name": "F4",
                    "midi": 65,
                    "time": 270.64679999999987,
                    "velocity": 0.5433070866141733,
                    "duration": 0.19900499999999965
                },
                {
                    "name": "G#4",
                    "midi": 68,
                    "time": 270.84580499999987,
                    "velocity": 0.5433070866141733,
                    "duration": 0.19900499999999965
                },
                {
                    "name": "D#4",
                    "midi": 63,
                    "time": 271.04480999999987,
                    "velocity": 0.5826771653543307,
                    "duration": 0.19900499999999965
                },
                {
                    "name": "F#4",
                    "midi": 66,
                    "time": 271.24381499999987,
                    "velocity": 0.5275590551181102,
                    "duration": 0.19900499999999965
                },
                {
                    "name": "G#4",
                    "midi": 68,
                    "time": 271.44281999999987,
                    "velocity": 0.5433070866141733,
                    "duration": 0.19900499999999965
                },
                {
                    "name": "D4",
                    "midi": 62,
                    "time": 271.64182499999987,
                    "velocity": 0.5984251968503937,
                    "duration": 0.19900499999999965
                },
                {
                    "name": "F4",
                    "midi": 65,
                    "time": 271.84082999999987,
                    "velocity": 0.6141732283464567,
                    "duration": 0.19900499999999965
                },
                {
                    "name": "G#4",
                    "midi": 68,
                    "time": 272.03983499999987,
                    "velocity": 0.6377952755905512,
                    "duration": 0.19900499999999965
                },
                {
                    "name": "D#4",
                    "midi": 63,
                    "time": 272.23883999999987,
                    "velocity": 0.7086614173228346,
                    "duration": 0.19900499999999965
                },
                {
                    "name": "F#4",
                    "midi": 66,
                    "time": 272.43784499999987,
                    "velocity": 0.6456692913385826,
                    "duration": 0.19900499999999965
                },
                {
                    "name": "A4",
                    "midi": 69,
                    "time": 272.63684999999987,
                    "velocity": 0.6141732283464567,
                    "duration": 0.19900499999999965
                },
                {
                    "name": "C4",
                    "midi": 60,
                    "time": 272.83585499999987,
                    "velocity": 0.5826771653543307,
                    "duration": 0.19900499999999965
                },
                {
                    "name": "E4",
                    "midi": 64,
                    "time": 273.03485999999987,
                    "velocity": 0.5511811023622047,
                    "duration": 0.19900499999999965
                },
                {
                    "name": "G#4",
                    "midi": 68,
                    "time": 273.23386499999987,
                    "velocity": 0.5511811023622047,
                    "duration": 0.19900499999999965
                },
                {
                    "name": "C4",
                    "midi": 60,
                    "time": 273.43286999999987,
                    "velocity": 0.5826771653543307,
                    "duration": 0.19900499999999965
                },
                {
                    "name": "D#4",
                    "midi": 63,
                    "time": 273.63187499999987,
                    "velocity": 0.5433070866141733,
                    "duration": 0.19900499999999965
                },
                {
                    "name": "F#4",
                    "midi": 66,
                    "time": 273.83087999999987,
                    "velocity": 0.5433070866141733,
                    "duration": 0.19900499999999965
                },
                {
                    "name": "E4",
                    "midi": 64,
                    "time": 274.02988499999987,
                    "velocity": 0.5826771653543307,
                    "duration": 0.19900499999999965
                },
                {
                    "name": "G#4",
                    "midi": 68,
                    "time": 274.22888999999986,
                    "velocity": 0.5354330708661418,
                    "duration": 0.19900499999999965
                },
                {
                    "name": "C#5",
                    "midi": 73,
                    "time": 274.42789499999986,
                    "velocity": 0.5433070866141733,
                    "duration": 0.19900499999999965
                },
                {
                    "name": "E5",
                    "midi": 76,
                    "time": 274.62689999999986,
                    "velocity": 0.6614173228346457,
                    "duration": 0.19900499999999965
                },
                {
                    "name": "C#5",
                    "midi": 73,
                    "time": 274.82590499999986,
                    "velocity": 0.5433070866141733,
                    "duration": 0.19900499999999965
                },
                {
                    "name": "G#4",
                    "midi": 68,
                    "time": 275.02490999999986,
                    "velocity": 0.5433070866141733,
                    "duration": 0.19900499999999965
                },
                {
                    "name": "E4",
                    "midi": 64,
                    "time": 275.22391499999986,
                    "velocity": 0.5826771653543307,
                    "duration": 0.19900499999999965
                },
                {
                    "name": "G#4",
                    "midi": 68,
                    "time": 275.42291999999986,
                    "velocity": 0.5433070866141733,
                    "duration": 0.19900499999999965
                },
                {
                    "name": "C#5",
                    "midi": 73,
                    "time": 275.62192499999986,
                    "velocity": 0.5433070866141733,
                    "duration": 0.19900499999999965
                },
                {
                    "name": "G#4",
                    "midi": 68,
                    "time": 275.82092999999986,
                    "velocity": 0.5826771653543307,
                    "duration": 0.19900499999999965
                },
                {
                    "name": "C#5",
                    "midi": 73,
                    "time": 276.01993499999986,
                    "velocity": 0.5354330708661418,
                    "duration": 0.19900499999999965
                },
                {
                    "name": "E5",
                    "midi": 76,
                    "time": 276.21893999999986,
                    "velocity": 0.5354330708661418,
                    "duration": 0.19900499999999965
                },
                {
                    "name": "G#5",
                    "midi": 80,
                    "time": 276.41794499999986,
                    "velocity": 0.6535433070866141,
                    "duration": 0.19900499999999965
                },
                {
                    "name": "E5",
                    "midi": 76,
                    "time": 276.61694999999986,
                    "velocity": 0.5511811023622047,
                    "duration": 0.19900499999999965
                },
                {
                    "name": "C#5",
                    "midi": 73,
                    "time": 276.81595499999986,
                    "velocity": 0.5511811023622047,
                    "duration": 0.19900499999999965
                },
                {
                    "name": "G#4",
                    "midi": 68,
                    "time": 277.01495999999986,
                    "velocity": 0.5826771653543307,
                    "duration": 0.19900499999999965
                },
                {
                    "name": "C#5",
                    "midi": 73,
                    "time": 277.21396499999986,
                    "velocity": 0.5433070866141733,
                    "duration": 0.19900499999999965
                },
                {
                    "name": "E5",
                    "midi": 76,
                    "time": 277.41296999999986,
                    "velocity": 0.5433070866141733,
                    "duration": 0.19900499999999965
                },
                {
                    "name": "D#5",
                    "midi": 75,
                    "time": 277.61197499999986,
                    "velocity": 0.5826771653543307,
                    "duration": 0.19900499999999965
                },
                {
                    "name": "F#5",
                    "midi": 78,
                    "time": 277.81097999999986,
                    "velocity": 0.5433070866141733,
                    "duration": 0.19900499999999965
                },
                {
                    "name": "G#5",
                    "midi": 80,
                    "time": 278.00998499999986,
                    "velocity": 0.5433070866141733,
                    "duration": 0.19900499999999965
                },
                {
                    "name": "D#5",
                    "midi": 75,
                    "time": 278.20898999999986,
                    "velocity": 0.5826771653543307,
                    "duration": 0.19900499999999965
                },
                {
                    "name": "F#5",
                    "midi": 78,
                    "time": 278.40799499999986,
                    "velocity": 0.5511811023622047,
                    "duration": 0.19900499999999965
                },
                {
                    "name": "A#5",
                    "midi": 82,
                    "time": 278.60699999999986,
                    "velocity": 0.5511811023622047,
                    "duration": 0.19900499999999965
                },
                {
                    "name": "D#5",
                    "midi": 75,
                    "time": 278.80600499999986,
                    "velocity": 0.5984251968503937,
                    "duration": 0.19900499999999965
                },
                {
                    "name": "F#5",
                    "midi": 78,
                    "time": 279.00500999999986,
                    "velocity": 0.6377952755905512,
                    "duration": 0.19900499999999965
                },
                {
                    "name": "C6",
                    "midi": 84,
                    "time": 279.20401499999986,
                    "velocity": 0.6850393700787402,
                    "duration": 0.19900499999999965
                },
                {
                    "name": "C#5",
                    "midi": 73,
                    "time": 279.40301999999986,
                    "velocity": 0.6850393700787402,
                    "duration": 0.19900499999999965
                },
                {
                    "name": "E5",
                    "midi": 76,
                    "time": 279.60202499999986,
                    "velocity": 0.6456692913385826,
                    "duration": 0.19900499999999965
                },
                {
                    "name": "C#6",
                    "midi": 85,
                    "time": 279.80102999999986,
                    "velocity": 0.6456692913385826,
                    "duration": 0.19900499999999965
                },
                {
                    "name": "D#5",
                    "midi": 75,
                    "time": 280.00003499999985,
                    "velocity": 0.6850393700787402,
                    "duration": 0.19900499999999965
                },
                {
                    "name": "F#5",
                    "midi": 78,
                    "time": 280.19903999999985,
                    "velocity": 0.6535433070866141,
                    "duration": 0.19900499999999965
                },
                {
                    "name": "D#6",
                    "midi": 87,
                    "time": 280.39804499999985,
                    "velocity": 0.6535433070866141,
                    "duration": 0.19900499999999965
                },
                {
                    "name": "E5",
                    "midi": 76,
                    "time": 280.59704999999985,
                    "velocity": 0.6850393700787402,
                    "duration": 0.19900499999999965
                },
                {
                    "name": "G#5",
                    "midi": 80,
                    "time": 280.79605499999985,
                    "velocity": 0.6456692913385826,
                    "duration": 0.19900499999999965
                },
                {
                    "name": "E6",
                    "midi": 88,
                    "time": 280.99505999999985,
                    "velocity": 0.6456692913385826,
                    "duration": 0.19900499999999965
                },
                {
                    "name": "F#5",
                    "midi": 78,
                    "time": 281.19406499999985,
                    "velocity": 0.6850393700787402,
                    "duration": 0.19900499999999965
                },
                {
                    "name": "A5",
                    "midi": 81,
                    "time": 281.39306999999985,
                    "velocity": 0.6614173228346457,
                    "duration": 0.19900499999999965
                },
                {
                    "name": "F#6",
                    "midi": 90,
                    "time": 281.59207499999985,
                    "velocity": 0.6692913385826772,
                    "duration": 0.19900499999999965
                },
                {
                    "name": "G#5",
                    "midi": 80,
                    "time": 281.79107999999985,
                    "velocity": 0.7244094488188977,
                    "duration": 0.19900499999999965
                },
                {
                    "name": "B5",
                    "midi": 83,
                    "time": 281.99008499999985,
                    "velocity": 0.7086614173228346,
                    "duration": 0.19900499999999965
                },
                {
                    "name": "G#6",
                    "midi": 92,
                    "time": 282.18908999999985,
                    "velocity": 0.7086614173228346,
                    "duration": 0.19900499999999965
                },
                {
                    "name": "A5",
                    "midi": 81,
                    "time": 282.38809499999985,
                    "velocity": 0.7716535433070866,
                    "duration": 0.19900499999999965
                },
                {
                    "name": "C#6",
                    "midi": 85,
                    "time": 282.58709999999985,
                    "velocity": 0.7086614173228346,
                    "duration": 0.19900499999999965
                },
                {
                    "name": "A6",
                    "midi": 93,
                    "time": 282.78610499999985,
                    "velocity": 0.7401574803149606,
                    "duration": 0.19900499999999965
                },
                {
                    "name": "G#5",
                    "midi": 80,
                    "time": 282.98510999999985,
                    "velocity": 0.8110236220472441,
                    "duration": 0.19900499999999965
                },
                {
                    "name": "E6",
                    "midi": 88,
                    "time": 283.18411499999985,
                    "velocity": 0.7637795275590551,
                    "duration": 0.19900499999999965
                },
                {
                    "name": "G#6",
                    "midi": 92,
                    "time": 283.38311999999985,
                    "velocity": 0.7637795275590551,
                    "duration": 0.19900499999999965
                },
                {
                    "name": "A5",
                    "midi": 81,
                    "time": 283.58212499999985,
                    "velocity": 0.8267716535433071,
                    "duration": 0.19900499999999965
                },
                {
                    "name": "F#6",
                    "midi": 90,
                    "time": 283.78112999999985,
                    "velocity": 0.7559055118110236,
                    "duration": 0.19900499999999965
                },
                {
                    "name": "A6",
                    "midi": 93,
                    "time": 283.98013499999985,
                    "velocity": 0.7559055118110236,
                    "duration": 0.19900499999999965
                },
                {
                    "name": "B5",
                    "midi": 83,
                    "time": 284.17913999999985,
                    "velocity": 0.8582677165354331,
                    "duration": 0.19900499999999965
                },
                {
                    "name": "G#6",
                    "midi": 92,
                    "time": 284.37814499999985,
                    "velocity": 0.7952755905511811,
                    "duration": 0.19900499999999965
                },
                {
                    "name": "B6",
                    "midi": 95,
                    "time": 284.57714999999985,
                    "velocity": 0.7952755905511811,
                    "duration": 0.19900499999999965
                },
                {
                    "name": "C#6",
                    "midi": 85,
                    "time": 284.77615499999985,
                    "velocity": 0.8976377952755905,
                    "duration": 0.19900499999999965
                },
                {
                    "name": "E6",
                    "midi": 88,
                    "time": 284.97515999999985,
                    "velocity": 0.8110236220472441,
                    "duration": 0.19900499999999965
                },
                {
                    "name": "A6",
                    "midi": 93,
                    "time": 285.17416499999985,
                    "velocity": 0.8031496062992126,
                    "duration": 0.19900499999999965
                },
                {
                    "name": "C#7",
                    "midi": 97,
                    "time": 285.37316999999985,
                    "velocity": 0.8976377952755905,
                    "duration": 0.19900499999999965
                },
                {
                    "name": "A6",
                    "midi": 93,
                    "time": 285.57217499999985,
                    "velocity": 0.7795275590551181,
                    "duration": 0.19900499999999965
                },
                {
                    "name": "E6",
                    "midi": 88,
                    "time": 285.77117999999984,
                    "velocity": 0.7795275590551181,
                    "duration": 0.19900499999999965
                },
                {
                    "name": "A6",
                    "midi": 93,
                    "time": 285.97018499999984,
                    "velocity": 0.8346456692913385,
                    "duration": 0.19900499999999965
                },
                {
                    "name": "E6",
                    "midi": 88,
                    "time": 286.16918999999984,
                    "velocity": 0.7559055118110236,
                    "duration": 0.19900499999999965
                },
                {
                    "name": "C#6",
                    "midi": 85,
                    "time": 286.36819499999984,
                    "velocity": 0.7952755905511811,
                    "duration": 0.19900499999999965
                },
                {
                    "name": "A5",
                    "midi": 81,
                    "time": 286.56719999999984,
                    "velocity": 0.8267716535433071,
                    "duration": 0.19900499999999965
                },
                {
                    "name": "C#6",
                    "midi": 85,
                    "time": 286.76620499999984,
                    "velocity": 0.7637795275590551,
                    "duration": 0.19900499999999965
                },
                {
                    "name": "E6",
                    "midi": 88,
                    "time": 286.96520999999984,
                    "velocity": 0.7874015748031497,
                    "duration": 0.19900499999999965
                },
                {
                    "name": "A6",
                    "midi": 93,
                    "time": 287.16421499999984,
                    "velocity": 0.889763779527559,
                    "duration": 0.19900499999999965
                },
                {
                    "name": "E6",
                    "midi": 88,
                    "time": 287.36321999999984,
                    "velocity": 0.7559055118110236,
                    "duration": 0.19900499999999965
                },
                {
                    "name": "C#6",
                    "midi": 85,
                    "time": 287.56222499999984,
                    "velocity": 0.7559055118110236,
                    "duration": 0.19900499999999965
                },
                {
                    "name": "E6",
                    "midi": 88,
                    "time": 287.76122999999984,
                    "velocity": 0.8267716535433071,
                    "duration": 0.19900499999999965
                },
                {
                    "name": "C#6",
                    "midi": 85,
                    "time": 287.96023499999984,
                    "velocity": 0.7874015748031497,
                    "duration": 0.19900499999999965
                },
                {
                    "name": "A5",
                    "midi": 81,
                    "time": 288.15923999999984,
                    "velocity": 0.7480314960629921,
                    "duration": 0.19900499999999965
                },
                {
                    "name": "C#5",
                    "midi": 73,
                    "time": 288.35824499999984,
                    "velocity": 0.8188976377952756,
                    "duration": 0.19900499999999965
                },
                {
                    "name": "E5",
                    "midi": 76,
                    "time": 288.55724999999984,
                    "velocity": 0.7874015748031497,
                    "duration": 0.19900499999999965
                },
                {
                    "name": "A5",
                    "midi": 81,
                    "time": 288.75625499999984,
                    "velocity": 0.7480314960629921,
                    "duration": 0.19900499999999965
                },
                {
                    "name": "C#6",
                    "midi": 85,
                    "time": 288.95525999999984,
                    "velocity": 0.8976377952755905,
                    "duration": 0.19900499999999965
                },
                {
                    "name": "A5",
                    "midi": 81,
                    "time": 289.15426499999984,
                    "velocity": 0.7480314960629921,
                    "duration": 0.19900499999999965
                },
                {
                    "name": "E5",
                    "midi": 76,
                    "time": 289.35326999999984,
                    "velocity": 0.7716535433070866,
                    "duration": 0.19900499999999965
                },
                {
                    "name": "A5",
                    "midi": 81,
                    "time": 289.55227499999984,
                    "velocity": 0.8110236220472441,
                    "duration": 0.19900499999999965
                },
                {
                    "name": "E5",
                    "midi": 76,
                    "time": 289.75127999999984,
                    "velocity": 0.7480314960629921,
                    "duration": 0.19900499999999965
                },
                {
                    "name": "C#5",
                    "midi": 73,
                    "time": 289.95028499999984,
                    "velocity": 0.7480314960629921,
                    "duration": 0.19900499999999965
                },
                {
                    "name": "A4",
                    "midi": 69,
                    "time": 290.14928999999984,
                    "velocity": 0.8110236220472441,
                    "duration": 0.19900499999999965
                },
                {
                    "name": "C#5",
                    "midi": 73,
                    "time": 290.34829499999984,
                    "velocity": 0.7480314960629921,
                    "duration": 0.19900499999999965
                },
                {
                    "name": "E5",
                    "midi": 76,
                    "time": 290.54729999999984,
                    "velocity": 0.7480314960629921,
                    "duration": 0.19900499999999965
                },
                {
                    "name": "A5",
                    "midi": 81,
                    "time": 290.74630499999984,
                    "velocity": 0.8976377952755905,
                    "duration": 0.19900499999999965
                },
                {
                    "name": "E5",
                    "midi": 76,
                    "time": 290.94530999999984,
                    "velocity": 0.7716535433070866,
                    "duration": 0.19900499999999965
                },
                {
                    "name": "C#5",
                    "midi": 73,
                    "time": 291.14431499999984,
                    "velocity": 0.7716535433070866,
                    "duration": 0.19900499999999965
                },
                {
                    "name": "E5",
                    "midi": 76,
                    "time": 291.34331999999984,
                    "velocity": 0.8031496062992126,
                    "duration": 0.19900499999999965
                },
                {
                    "name": "C#5",
                    "midi": 73,
                    "time": 291.54232499999983,
                    "velocity": 0.7716535433070866,
                    "duration": 0.19900499999999965
                },
                {
                    "name": "A4",
                    "midi": 69,
                    "time": 291.74132999999983,
                    "velocity": 0.7716535433070866,
                    "duration": 0.19900499999999965
                },
                {
                    "name": "E5",
                    "midi": 76,
                    "time": 291.94033499999983,
                    "velocity": 0.8031496062992126,
                    "duration": 0.19900499999999965
                },
                {
                    "name": "C#5",
                    "midi": 73,
                    "time": 292.13933999999983,
                    "velocity": 0.7637795275590551,
                    "duration": 0.19900499999999965
                },
                {
                    "name": "A4",
                    "midi": 69,
                    "time": 292.33834499999983,
                    "velocity": 0.7637795275590551,
                    "duration": 0.19900499999999965
                },
                {
                    "name": "C#5",
                    "midi": 73,
                    "time": 292.53734999999983,
                    "velocity": 0.889763779527559,
                    "duration": 0.19900499999999965
                },
                {
                    "name": "A4",
                    "midi": 69,
                    "time": 292.73635499999983,
                    "velocity": 0.7637795275590551,
                    "duration": 0.19900499999999965
                },
                {
                    "name": "E4",
                    "midi": 64,
                    "time": 292.93535999999983,
                    "velocity": 0.7637795275590551,
                    "duration": 0.19900499999999965
                },
                {
                    "name": "A4",
                    "midi": 69,
                    "time": 293.13436499999983,
                    "velocity": 0.8031496062992126,
                    "duration": 0.19900499999999965
                },
                {
                    "name": "E4",
                    "midi": 64,
                    "time": 293.33336999999983,
                    "velocity": 0.7637795275590551,
                    "duration": 0.19900499999999965
                },
                {
                    "name": "C#4",
                    "midi": 61,
                    "time": 293.53237499999983,
                    "velocity": 0.7637795275590551,
                    "duration": 0.19900499999999965
                },
                {
                    "name": "A4",
                    "midi": 69,
                    "time": 293.73137999999983,
                    "velocity": 0.7795275590551181,
                    "duration": 0.19900499999999965
                },
                {
                    "name": "E4",
                    "midi": 64,
                    "time": 293.93038499999983,
                    "velocity": 0.7322834645669292,
                    "duration": 0.19900499999999965
                },
                {
                    "name": "C#4",
                    "midi": 61,
                    "time": 294.12938999999983,
                    "velocity": 0.6850393700787402,
                    "duration": 0.19900499999999965
                },
                {
                    "name": "E4",
                    "midi": 64,
                    "time": 294.32839499999983,
                    "velocity": 0.6377952755905512,
                    "duration": 0.19900499999999965
                },
                {
                    "name": "C#4",
                    "midi": 61,
                    "time": 294.52739999999983,
                    "velocity": 0.6141732283464567,
                    "duration": 0.19900499999999965
                },
                {
                    "name": "A3",
                    "midi": 57,
                    "time": 294.72640499999983,
                    "velocity": 0.5669291338582677,
                    "duration": 0.19900499999999965
                },
                {
                    "name": "C#4",
                    "midi": 61,
                    "time": 294.92540999999983,
                    "velocity": 0.5275590551181102,
                    "duration": 0.19900499999999965
                },
                {
                    "name": "A3",
                    "midi": 57,
                    "time": 295.12441499999983,
                    "velocity": 0.48031496062992124,
                    "duration": 0.19900499999999965
                },
                {
                    "name": "E3",
                    "midi": 52,
                    "time": 295.3234199999998,
                    "velocity": 0.4251968503937008,
                    "duration": 0.19900499999999965
                },
                {
                    "name": "C#3",
                    "midi": 49,
                    "time": 295.5224249999998,
                    "velocity": 0.4094488188976378,
                    "duration": 0.19900499999999965
                },
                {
                    "name": "E3",
                    "midi": 52,
                    "time": 295.7214299999998,
                    "velocity": 0.3937007874015748,
                    "duration": 0.19900499999999965
                },
                {
                    "name": "A3",
                    "midi": 57,
                    "time": 295.9204349999998,
                    "velocity": 0.3937007874015748,
                    "duration": 0.19900499999999965
                },
                {
                    "name": "C#4",
                    "midi": 61,
                    "time": 296.1194399999998,
                    "velocity": 0.4015748031496063,
                    "duration": 0.19900499999999965
                },
                {
                    "name": "A3",
                    "midi": 57,
                    "time": 296.3184449999998,
                    "velocity": 0.3700787401574803,
                    "duration": 0.19900499999999965
                },
                {
                    "name": "E3",
                    "midi": 52,
                    "time": 296.5174499999998,
                    "velocity": 0.3779527559055118,
                    "duration": 0.19900499999999965
                },
                {
                    "name": "C#3",
                    "midi": 49,
                    "time": 296.7164549999998,
                    "velocity": 0.4015748031496063,
                    "duration": 0.19900499999999965
                },
                {
                    "name": "E3",
                    "midi": 52,
                    "time": 296.9154599999998,
                    "velocity": 0.3700787401574803,
                    "duration": 0.19900499999999965
                },
                {
                    "name": "A3",
                    "midi": 57,
                    "time": 297.1144649999998,
                    "velocity": 0.3700787401574803,
                    "duration": 0.19900499999999965
                },
                {
                    "name": "C#3",
                    "midi": 49,
                    "time": 297.3134699999998,
                    "velocity": 0.4015748031496063,
                    "duration": 0.19900499999999965
                },
                {
                    "name": "F#3",
                    "midi": 54,
                    "time": 297.5124749999998,
                    "velocity": 0.3858267716535433,
                    "duration": 0.19900499999999965
                },
                {
                    "name": "A3",
                    "midi": 57,
                    "time": 297.7114799999998,
                    "velocity": 0.3858267716535433,
                    "duration": 0.19900499999999965
                },
                {
                    "name": "C#4",
                    "midi": 61,
                    "time": 297.9104849999998,
                    "velocity": 0.4094488188976378,
                    "duration": 0.19900499999999965
                },
                {
                    "name": "A3",
                    "midi": 57,
                    "time": 298.1094899999998,
                    "velocity": 0.3858267716535433,
                    "duration": 0.19900499999999965
                },
                {
                    "name": "F#3",
                    "midi": 54,
                    "time": 298.3084949999998,
                    "velocity": 0.3858267716535433,
                    "duration": 0.19900499999999965
                },
                {
                    "name": "C#3",
                    "midi": 49,
                    "time": 298.5074999999998,
                    "velocity": 0.4094488188976378,
                    "duration": 0.19900499999999965
                },
                {
                    "name": "F#3",
                    "midi": 54,
                    "time": 298.7065049999998,
                    "velocity": 0.3779527559055118,
                    "duration": 0.19900499999999965
                },
                {
                    "name": "A3",
                    "midi": 57,
                    "time": 298.9055099999998,
                    "velocity": 0.3779527559055118,
                    "duration": 0.19900499999999965
                },
                {
                    "name": "C#3",
                    "midi": 49,
                    "time": 299.1045149999998,
                    "velocity": 0.4015748031496063,
                    "duration": 0.19900499999999965
                },
                {
                    "name": "F3",
                    "midi": 53,
                    "time": 299.3035199999998,
                    "velocity": 0.3779527559055118,
                    "duration": 0.19900499999999965
                },
                {
                    "name": "G#3",
                    "midi": 56,
                    "time": 299.5025249999998,
                    "velocity": 0.3779527559055118,
                    "duration": 0.19900499999999965
                },
                {
                    "name": "C#4",
                    "midi": 61,
                    "time": 299.7015299999998,
                    "velocity": 0.3937007874015748,
                    "duration": 0.19900499999999965
                },
                {
                    "name": "G#3",
                    "midi": 56,
                    "time": 299.9005349999998,
                    "velocity": 0.3543307086614173,
                    "duration": 0.19900499999999965
                },
                {
                    "name": "F3",
                    "midi": 53,
                    "time": 300.0995399999998,
                    "velocity": 0.3543307086614173,
                    "duration": 0.19900499999999965
                },
                {
                    "name": "C#3",
                    "midi": 49,
                    "time": 300.2985449999998,
                    "velocity": 0.3779527559055118,
                    "duration": 0.19900499999999965
                },
                {
                    "name": "F3",
                    "midi": 53,
                    "time": 300.4975499999998,
                    "velocity": 0.3543307086614173,
                    "duration": 0.19900499999999965
                },
                {
                    "name": "G#3",
                    "midi": 56,
                    "time": 300.6965549999998,
                    "velocity": 0.3543307086614173,
                    "duration": 0.19900499999999965
                },
                {
                    "name": "D#3",
                    "midi": 51,
                    "time": 300.8955599999998,
                    "velocity": 0.36220472440944884,
                    "duration": 0.19900499999999965
                },
                {
                    "name": "F#3",
                    "midi": 54,
                    "time": 301.0945649999998,
                    "velocity": 0.33070866141732286,
                    "duration": 0.19900499999999965
                },
                {
                    "name": "G#3",
                    "midi": 56,
                    "time": 301.2935699999998,
                    "velocity": 0.33070866141732286,
                    "duration": 0.19900499999999965
                },
                {
                    "name": "C4",
                    "midi": 60,
                    "time": 301.4925749999998,
                    "velocity": 0.3543307086614173,
                    "duration": 0.19900499999999965
                },
                {
                    "name": "G#3",
                    "midi": 56,
                    "time": 301.6915799999998,
                    "velocity": 0.3228346456692913,
                    "duration": 0.19900499999999965
                },
                {
                    "name": "F#3",
                    "midi": 54,
                    "time": 301.8905849999998,
                    "velocity": 0.3228346456692913,
                    "duration": 0.19900499999999965
                },
                {
                    "name": "D#3",
                    "midi": 51,
                    "time": 302.0895899999998,
                    "velocity": 0.3464566929133858,
                    "duration": 0.19900499999999965
                },
                {
                    "name": "F#3",
                    "midi": 54,
                    "time": 302.2885949999998,
                    "velocity": 0.31496062992125984,
                    "duration": 0.19900499999999965
                },
                {
                    "name": "G#3",
                    "midi": 56,
                    "time": 302.4875999999998,
                    "velocity": 0.3228346456692913,
                    "duration": 0.19900499999999965
                },
                {
                    "name": "F3",
                    "midi": 53,
                    "time": 302.6866049999998,
                    "velocity": 0.4094488188976378,
                    "duration": 0.19900499999999965
                },
                {
                    "name": "G#3",
                    "midi": 56,
                    "time": 302.8856099999998,
                    "velocity": 0.3700787401574803,
                    "duration": 0.19900499999999965
                },
                {
                    "name": "C#4",
                    "midi": 61,
                    "time": 303.0846149999998,
                    "velocity": 0.3700787401574803,
                    "duration": 0.19900499999999965
                },
                {
                    "name": "F4",
                    "midi": 65,
                    "time": 303.2836199999998,
                    "velocity": 0.4645669291338583,
                    "duration": 0.19900499999999965
                },
                {
                    "name": "C#4",
                    "midi": 61,
                    "time": 303.4826249999998,
                    "velocity": 0.3779527559055118,
                    "duration": 0.19900499999999965
                },
                {
                    "name": "G#3",
                    "midi": 56,
                    "time": 303.6816299999998,
                    "velocity": 0.3779527559055118,
                    "duration": 0.19900499999999965
                },
                {
                    "name": "F3",
                    "midi": 53,
                    "time": 303.8806349999998,
                    "velocity": 0.4094488188976378,
                    "duration": 0.19900499999999965
                },
                {
                    "name": "G#3",
                    "midi": 56,
                    "time": 304.0796399999998,
                    "velocity": 0.3779527559055118,
                    "duration": 0.19900499999999965
                },
                {
                    "name": "C#4",
                    "midi": 61,
                    "time": 304.2786449999998,
                    "velocity": 0.3779527559055118,
                    "duration": 0.19900499999999965
                },
                {
                    "name": "G#3",
                    "midi": 56,
                    "time": 304.4776499999998,
                    "velocity": 0.4094488188976378,
                    "duration": 0.19900499999999965
                },
                {
                    "name": "C#4",
                    "midi": 61,
                    "time": 304.6766549999998,
                    "velocity": 0.3779527559055118,
                    "duration": 0.19900499999999965
                },
                {
                    "name": "F4",
                    "midi": 65,
                    "time": 304.8756599999998,
                    "velocity": 0.3779527559055118,
                    "duration": 0.19900499999999965
                },
                {
                    "name": "G#4",
                    "midi": 68,
                    "time": 305.0746649999998,
                    "velocity": 0.48031496062992124,
                    "duration": 0.19900499999999965
                },
                {
                    "name": "F4",
                    "midi": 65,
                    "time": 305.2736699999998,
                    "velocity": 0.3700787401574803,
                    "duration": 0.19900499999999965
                },
                {
                    "name": "C#4",
                    "midi": 61,
                    "time": 305.4726749999998,
                    "velocity": 0.3700787401574803,
                    "duration": 0.19900499999999965
                },
                {
                    "name": "G#3",
                    "midi": 56,
                    "time": 305.6716799999998,
                    "velocity": 0.4094488188976378,
                    "duration": 0.19900499999999965
                },
                {
                    "name": "C#4",
                    "midi": 61,
                    "time": 305.8706849999998,
                    "velocity": 0.3700787401574803,
                    "duration": 0.19900499999999965
                },
                {
                    "name": "F4",
                    "midi": 65,
                    "time": 306.0696899999998,
                    "velocity": 0.3700787401574803,
                    "duration": 0.19900499999999965
                },
                {
                    "name": "D4",
                    "midi": 62,
                    "time": 306.2686949999998,
                    "velocity": 0.4094488188976378,
                    "duration": 0.19900499999999965
                },
                {
                    "name": "F4",
                    "midi": 65,
                    "time": 306.4676999999998,
                    "velocity": 0.3779527559055118,
                    "duration": 0.19900499999999965
                },
                {
                    "name": "G#4",
                    "midi": 68,
                    "time": 306.6667049999998,
                    "velocity": 0.3779527559055118,
                    "duration": 0.19900499999999965
                },
                {
                    "name": "D#4",
                    "midi": 63,
                    "time": 306.8657099999998,
                    "velocity": 0.4094488188976378,
                    "duration": 0.19900499999999965
                },
                {
                    "name": "F#4",
                    "midi": 66,
                    "time": 307.0647149999998,
                    "velocity": 0.3779527559055118,
                    "duration": 0.19900499999999965
                },
                {
                    "name": "G#4",
                    "midi": 68,
                    "time": 307.2637199999998,
                    "velocity": 0.3779527559055118,
                    "duration": 0.19900499999999965
                },
                {
                    "name": "D#4",
                    "midi": 63,
                    "time": 307.4627249999998,
                    "velocity": 0.4251968503937008,
                    "duration": 0.19900499999999965
                },
                {
                    "name": "F#4",
                    "midi": 66,
                    "time": 307.6617299999998,
                    "velocity": 0.44881889763779526,
                    "duration": 0.19900499999999965
                },
                {
                    "name": "A4",
                    "midi": 69,
                    "time": 307.8607349999998,
                    "velocity": 0.4409448818897638,
                    "duration": 0.19900499999999965
                },
                {
                    "name": "C4",
                    "midi": 60,
                    "time": 308.0597399999998,
                    "velocity": 0.49606299212598426,
                    "duration": 0.19900499999999965
                },
                {
                    "name": "F#4",
                    "midi": 66,
                    "time": 308.2587449999998,
                    "velocity": 0.4566929133858268,
                    "duration": 0.19900499999999965
                },
                {
                    "name": "A#4",
                    "midi": 70,
                    "time": 308.4577499999998,
                    "velocity": 0.4330708661417323,
                    "duration": 0.19900499999999965
                },
                {
                    "name": "C4",
                    "midi": 60,
                    "time": 308.6567549999998,
                    "velocity": 0.4094488188976378,
                    "duration": 0.19900499999999965
                },
                {
                    "name": "F4",
                    "midi": 65,
                    "time": 308.8557599999998,
                    "velocity": 0.3700787401574803,
                    "duration": 0.19900499999999965
                },
                {
                    "name": "G#4",
                    "midi": 68,
                    "time": 309.0547649999998,
                    "velocity": 0.3700787401574803,
                    "duration": 0.19900499999999965
                },
                {
                    "name": "C4",
                    "midi": 60,
                    "time": 309.2537699999998,
                    "velocity": 0.4094488188976378,
                    "duration": 0.19900499999999965
                },
                {
                    "name": "D#4",
                    "midi": 63,
                    "time": 309.4527749999998,
                    "velocity": 0.3858267716535433,
                    "duration": 0.19900499999999965
                },
                {
                    "name": "F#4",
                    "midi": 66,
                    "time": 309.6517799999998,
                    "velocity": 0.3858267716535433,
                    "duration": 0.19900499999999965
                },
                {
                    "name": "F4",
                    "midi": 65,
                    "time": 309.8507849999998,
                    "velocity": 0.4094488188976378,
                    "duration": 0.19900499999999965
                },
                {
                    "name": "G#4",
                    "midi": 68,
                    "time": 310.0497899999998,
                    "velocity": 0.3858267716535433,
                    "duration": 0.19900499999999965
                },
                {
                    "name": "C#5",
                    "midi": 73,
                    "time": 310.2487949999998,
                    "velocity": 0.3858267716535433,
                    "duration": 0.19900499999999965
                },
                {
                    "name": "F5",
                    "midi": 77,
                    "time": 310.4477999999998,
                    "velocity": 0.4645669291338583,
                    "duration": 0.19900499999999965
                },
                {
                    "name": "C#5",
                    "midi": 73,
                    "time": 310.6468049999998,
                    "velocity": 0.3858267716535433,
                    "duration": 0.19900499999999965
                },
                {
                    "name": "G#4",
                    "midi": 68,
                    "time": 310.8458099999998,
                    "velocity": 0.4094488188976378,
                    "duration": 0.19900499999999965
                },
                {
                    "name": "F4",
                    "midi": 65,
                    "time": 311.0448149999998,
                    "velocity": 0.4094488188976378,
                    "duration": 0.19900499999999965
                },
                {
                    "name": "G#4",
                    "midi": 68,
                    "time": 311.2438199999998,
                    "velocity": 0.3858267716535433,
                    "duration": 0.19900499999999965
                },
                {
                    "name": "C#5",
                    "midi": 73,
                    "time": 311.4428249999998,
                    "velocity": 0.3858267716535433,
                    "duration": 0.19900499999999965
                },
                {
                    "name": "G#4",
                    "midi": 68,
                    "time": 311.6418299999998,
                    "velocity": 0.4094488188976378,
                    "duration": 0.19900499999999965
                },
                {
                    "name": "C#5",
                    "midi": 73,
                    "time": 311.8408349999998,
                    "velocity": 0.3858267716535433,
                    "duration": 0.19900499999999965
                },
                {
                    "name": "F5",
                    "midi": 77,
                    "time": 312.0398399999998,
                    "velocity": 0.3858267716535433,
                    "duration": 0.19900499999999965
                },
                {
                    "name": "G#5",
                    "midi": 80,
                    "time": 312.2388449999998,
                    "velocity": 0.48031496062992124,
                    "duration": 0.19900499999999965
                },
                {
                    "name": "F5",
                    "midi": 77,
                    "time": 312.4378499999998,
                    "velocity": 0.3937007874015748,
                    "duration": 0.19900499999999965
                },
                {
                    "name": "C#5",
                    "midi": 73,
                    "time": 312.6368549999998,
                    "velocity": 0.3937007874015748,
                    "duration": 0.19900499999999965
                },
                {
                    "name": "G#4",
                    "midi": 68,
                    "time": 312.8358599999998,
                    "velocity": 0.4094488188976378,
                    "duration": 0.19900499999999965
                },
                {
                    "name": "C#5",
                    "midi": 73,
                    "time": 313.0348649999998,
                    "velocity": 0.3779527559055118,
                    "duration": 0.19900499999999965
                },
                {
                    "name": "F5",
                    "midi": 77,
                    "time": 313.2338699999998,
                    "velocity": 0.4094488188976378,
                    "duration": 0.19900499999999965
                },
                {
                    "name": "D5",
                    "midi": 74,
                    "time": 313.4328749999998,
                    "velocity": 0.4094488188976378,
                    "duration": 0.19900499999999965
                },
                {
                    "name": "F5",
                    "midi": 77,
                    "time": 313.6318799999998,
                    "velocity": 0.3858267716535433,
                    "duration": 0.19900499999999965
                },
                {
                    "name": "G#5",
                    "midi": 80,
                    "time": 313.8308849999998,
                    "velocity": 0.4094488188976378,
                    "duration": 0.19900499999999965
                },
                {
                    "name": "D#5",
                    "midi": 75,
                    "time": 314.0298899999998,
                    "velocity": 0.4094488188976378,
                    "duration": 0.19900499999999965
                },
                {
                    "name": "F#5",
                    "midi": 78,
                    "time": 314.2288949999998,
                    "velocity": 0.3858267716535433,
                    "duration": 0.19900499999999965
                },
                {
                    "name": "G#5",
                    "midi": 80,
                    "time": 314.4278999999998,
                    "velocity": 0.3858267716535433,
                    "duration": 0.19900499999999965
                },
                {
                    "name": "D#5",
                    "midi": 75,
                    "time": 314.6269049999998,
                    "velocity": 0.4251968503937008,
                    "duration": 0.19900499999999965
                },
                {
                    "name": "F#5",
                    "midi": 78,
                    "time": 314.8259099999998,
                    "velocity": 0.44881889763779526,
                    "duration": 0.19900499999999965
                },
                {
                    "name": "A5",
                    "midi": 81,
                    "time": 315.0249149999998,
                    "velocity": 0.44881889763779526,
                    "duration": 0.19900499999999965
                },
                {
                    "name": "C5",
                    "midi": 72,
                    "time": 315.2239199999998,
                    "velocity": 0.49606299212598426,
                    "duration": 0.19900499999999965
                },
                {
                    "name": "F#5",
                    "midi": 78,
                    "time": 315.4229249999998,
                    "velocity": 0.4566929133858268,
                    "duration": 0.19900499999999965
                },
                {
                    "name": "A#5",
                    "midi": 82,
                    "time": 315.6219299999998,
                    "velocity": 0.4330708661417323,
                    "duration": 0.19900499999999965
                },
                {
                    "name": "C5",
                    "midi": 72,
                    "time": 315.8209349999998,
                    "velocity": 0.4094488188976378,
                    "duration": 0.19900499999999965
                },
                {
                    "name": "F5",
                    "midi": 77,
                    "time": 316.0199399999998,
                    "velocity": 0.3779527559055118,
                    "duration": 0.19900499999999965
                },
                {
                    "name": "G#5",
                    "midi": 80,
                    "time": 316.2189449999998,
                    "velocity": 0.3779527559055118,
                    "duration": 0.19900499999999965
                },
                {
                    "name": "C5",
                    "midi": 72,
                    "time": 316.4179499999998,
                    "velocity": 0.4094488188976378,
                    "duration": 0.19900499999999965
                },
                {
                    "name": "D#5",
                    "midi": 75,
                    "time": 316.6169549999998,
                    "velocity": 0.3858267716535433,
                    "duration": 0.19900499999999965
                },
                {
                    "name": "F#5",
                    "midi": 78,
                    "time": 316.8159599999998,
                    "velocity": 0.3858267716535433,
                    "duration": 0.19900499999999965
                },
                {
                    "name": "C5",
                    "midi": 72,
                    "time": 317.0149649999998,
                    "velocity": 0.4015748031496063,
                    "duration": 0.19900499999999965
                },
                {
                    "name": "D#5",
                    "midi": 75,
                    "time": 317.2139699999998,
                    "velocity": 0.36220472440944884,
                    "duration": 0.19900499999999965
                },
                {
                    "name": "F5",
                    "midi": 77,
                    "time": 317.4129749999998,
                    "velocity": 0.36220472440944884,
                    "duration": 0.19900499999999965
                },
                {
                    "name": "A#4",
                    "midi": 70,
                    "time": 317.6119799999998,
                    "velocity": 0.3858267716535433,
                    "duration": 0.19900499999999965
                },
                {
                    "name": "C#5",
                    "midi": 73,
                    "time": 317.8109849999998,
                    "velocity": 0.3543307086614173,
                    "duration": 0.19900499999999965
                },
                {
                    "name": "F5",
                    "midi": 77,
                    "time": 318.0099899999998,
                    "velocity": 0.3543307086614173,
                    "duration": 0.19900499999999965
                },
                {
                    "name": "G#4",
                    "midi": 68,
                    "time": 318.2089949999998,
                    "velocity": 0.36220472440944884,
                    "duration": 0.19900499999999965
                },
                {
                    "name": "C5",
                    "midi": 72,
                    "time": 318.4079999999998,
                    "velocity": 0.33070866141732286,
                    "duration": 0.19900499999999965
                },
                {
                    "name": "F5",
                    "midi": 77,
                    "time": 318.6070049999998,
                    "velocity": 0.33070866141732286,
                    "duration": 0.19900499999999965
                },
                {
                    "name": "G#4",
                    "midi": 68,
                    "time": 318.8060099999998,
                    "velocity": 0.3464566929133858,
                    "duration": 0.19900499999999965
                },
                {
                    "name": "A#4",
                    "midi": 70,
                    "time": 319.0050149999998,
                    "velocity": 0.30708661417322836,
                    "duration": 0.19900499999999965
                },
                {
                    "name": "F5",
                    "midi": 77,
                    "time": 319.2040199999998,
                    "velocity": 0.30708661417322836,
                    "duration": 0.19900499999999965
                },
                {
                    "name": "F#4",
                    "midi": 66,
                    "time": 319.4030249999998,
                    "velocity": 0.3228346456692913,
                    "duration": 0.19900499999999965
                },
                {
                    "name": "A#4",
                    "midi": 70,
                    "time": 319.6020299999998,
                    "velocity": 0.29133858267716534,
                    "duration": 0.19900499999999965
                },
                {
                    "name": "D#5",
                    "midi": 75,
                    "time": 319.8010349999998,
                    "velocity": 0.29133858267716534,
                    "duration": 0.19900499999999965
                },
                {
                    "name": "F4",
                    "midi": 65,
                    "time": 320.0000399999998,
                    "velocity": 0.30708661417322836,
                    "duration": 0.19900499999999965
                },
                {
                    "name": "A#4",
                    "midi": 70,
                    "time": 320.1990449999998,
                    "velocity": 0.2755905511811024,
                    "duration": 0.19900499999999965
                },
                {
                    "name": "C#5",
                    "midi": 73,
                    "time": 320.3980499999998,
                    "velocity": 0.2755905511811024,
                    "duration": 0.19900499999999965
                },
                {
                    "name": "D#4",
                    "midi": 63,
                    "time": 320.5970549999998,
                    "velocity": 0.28346456692913385,
                    "duration": 0.19900499999999965
                },
                {
                    "name": "G#4",
                    "midi": 68,
                    "time": 320.7960599999998,
                    "velocity": 0.25196850393700787,
                    "duration": 0.19900499999999965
                },
                {
                    "name": "C5",
                    "midi": 72,
                    "time": 320.9950649999998,
                    "velocity": 0.2677165354330709,
                    "duration": 0.19900499999999965
                },
                {
                    "name": "F4",
                    "midi": 65,
                    "time": 321.1940699999998,
                    "velocity": 0.2677165354330709,
                    "duration": 0.19900499999999965
                },
                {
                    "name": "G#4",
                    "midi": 68,
                    "time": 321.3930749999998,
                    "velocity": 0.25984251968503935,
                    "duration": 0.19900499999999965
                },
                {
                    "name": "C#5",
                    "midi": 73,
                    "time": 321.5920799999998,
                    "velocity": 0.25984251968503935,
                    "duration": 0.19900499999999965
                },
                {
                    "name": "F#4",
                    "midi": 66,
                    "time": 321.7910849999998,
                    "velocity": 0.2677165354330709,
                    "duration": 0.19900499999999965
                },
                {
                    "name": "G#4",
                    "midi": 68,
                    "time": 321.9900899999998,
                    "velocity": 0.25984251968503935,
                    "duration": 0.19900499999999965
                },
                {
                    "name": "D#5",
                    "midi": 75,
                    "time": 322.1890949999998,
                    "velocity": 0.25984251968503935,
                    "duration": 0.19900499999999965
                },
                {
                    "name": "F4",
                    "midi": 65,
                    "time": 322.3880999999998,
                    "velocity": 0.2677165354330709,
                    "duration": 0.19900499999999965
                },
                {
                    "name": "G#4",
                    "midi": 68,
                    "time": 322.5871049999998,
                    "velocity": 0.25196850393700787,
                    "duration": 0.19900499999999965
                },
                {
                    "name": "C#5",
                    "midi": 73,
                    "time": 322.7861099999998,
                    "velocity": 0.2440944881889764,
                    "duration": 0.19900499999999965
                },
                {
                    "name": "G#4",
                    "midi": 68,
                    "time": 322.9851149999998,
                    "velocity": 0.2677165354330709,
                    "duration": 0.19900499999999965
                },
                {
                    "name": "F4",
                    "midi": 65,
                    "time": 323.1841199999998,
                    "velocity": 0.2283464566929134,
                    "duration": 0.19900499999999965
                },
                {
                    "name": "C#4",
                    "midi": 61,
                    "time": 323.3831249999998,
                    "velocity": 0.2283464566929134,
                    "duration": 0.19900499999999965
                },
                {
                    "name": "F4",
                    "midi": 65,
                    "time": 323.5821299999998,
                    "velocity": 0.2677165354330709,
                    "duration": 0.19900499999999965
                },
                {
                    "name": "C#4",
                    "midi": 61,
                    "time": 323.7811349999998,
                    "velocity": 0.2283464566929134,
                    "duration": 0.19900499999999965
                },
                {
                    "name": "G#3",
                    "midi": 56,
                    "time": 323.9801399999998,
                    "velocity": 0.2283464566929134,
                    "duration": 0.19900499999999965
                },
                {
                    "name": "F3",
                    "midi": 53,
                    "time": 324.1791449999998,
                    "velocity": 0.28346456692913385,
                    "duration": 0.19900499999999965
                },
                {
                    "name": "G#3",
                    "midi": 56,
                    "time": 324.3781499999998,
                    "velocity": 0.25196850393700787,
                    "duration": 0.19900499999999965
                },
                {
                    "name": "C#4",
                    "midi": 61,
                    "time": 324.5771549999998,
                    "velocity": 0.25196850393700787,
                    "duration": 0.19900499999999965
                },
                {
                    "name": "F4",
                    "midi": 65,
                    "time": 324.7761599999998,
                    "velocity": 0.28346456692913385,
                    "duration": 0.19900499999999965
                },
                {
                    "name": "C#4",
                    "midi": 61,
                    "time": 324.9751649999998,
                    "velocity": 0.2283464566929134,
                    "duration": 0.19900499999999965
                },
                {
                    "name": "G#3",
                    "midi": 56,
                    "time": 325.1741699999998,
                    "velocity": 0.2440944881889764,
                    "duration": 0.19900499999999965
                },
                {
                    "name": "F3",
                    "midi": 53,
                    "time": 325.3731749999998,
                    "velocity": 0.2755905511811024,
                    "duration": 0.19900499999999965
                },
                {
                    "name": "G#3",
                    "midi": 56,
                    "time": 325.5721799999998,
                    "velocity": 0.2440944881889764,
                    "duration": 0.19900499999999965
                },
                {
                    "name": "C#4",
                    "midi": 61,
                    "time": 325.7711849999998,
                    "velocity": 0.2440944881889764,
                    "duration": 0.19900499999999965
                },
                {
                    "name": "F3",
                    "midi": 53,
                    "time": 325.9701899999998,
                    "velocity": 0.2677165354330709,
                    "duration": 0.19900499999999965
                },
                {
                    "name": "G#3",
                    "midi": 56,
                    "time": 326.1691949999998,
                    "velocity": 0.23622047244094488,
                    "duration": 0.19900499999999965
                },
                {
                    "name": "C#4",
                    "midi": 61,
                    "time": 326.3681999999998,
                    "velocity": 0.23622047244094488,
                    "duration": 0.19900499999999965
                },
                {
                    "name": "F4",
                    "midi": 65,
                    "time": 326.5672049999998,
                    "velocity": 0.2677165354330709,
                    "duration": 0.19900499999999965
                },
                {
                    "name": "C#4",
                    "midi": 61,
                    "time": 326.7662099999998,
                    "velocity": 0.23622047244094488,
                    "duration": 0.19900499999999965
                },
                {
                    "name": "G#3",
                    "midi": 56,
                    "time": 326.9652149999998,
                    "velocity": 0.23622047244094488,
                    "duration": 0.19900499999999965
                },
                {
                    "name": "F3",
                    "midi": 53,
                    "time": 327.1642199999998,
                    "velocity": 0.2677165354330709,
                    "duration": 0.19900499999999965
                },
                {
                    "name": "G#3",
                    "midi": 56,
                    "time": 327.3632249999998,
                    "velocity": 0.23622047244094488,
                    "duration": 0.19900499999999965
                },
                {
                    "name": "C#4",
                    "midi": 61,
                    "time": 327.5622299999998,
                    "velocity": 0.23622047244094488,
                    "duration": 0.19900499999999965
                },
                {
                    "name": "E3",
                    "midi": 52,
                    "time": 327.7612349999998,
                    "velocity": 0.25984251968503935,
                    "duration": 0.19900499999999965
                },
                {
                    "name": "G#3",
                    "midi": 56,
                    "time": 327.96023999999977,
                    "velocity": 0.2204724409448819,
                    "duration": 0.19900499999999965
                },
                {
                    "name": "C#4",
                    "midi": 61,
                    "time": 328.15924499999977,
                    "velocity": 0.2204724409448819,
                    "duration": 0.19900499999999965
                },
                {
                    "name": "E4",
                    "midi": 64,
                    "time": 328.35824999999977,
                    "velocity": 0.25196850393700787,
                    "duration": 0.19900499999999965
                },
                {
                    "name": "C#4",
                    "midi": 61,
                    "time": 328.55725499999977,
                    "velocity": 0.2204724409448819,
                    "duration": 0.19900499999999965
                },
                {
                    "name": "G#3",
                    "midi": 56,
                    "time": 328.75625999999977,
                    "velocity": 0.2204724409448819,
                    "duration": 0.19900499999999965
                },
                {
                    "name": "E3",
                    "midi": 52,
                    "time": 328.95526499999977,
                    "velocity": 0.25196850393700787,
                    "duration": 0.19900499999999965
                },
                {
                    "name": "G#3",
                    "midi": 56,
                    "time": 329.15426999999977,
                    "velocity": 0.2125984251968504,
                    "duration": 0.19900499999999965
                },
                {
                    "name": "C#4",
                    "midi": 61,
                    "time": 329.35327499999977,
                    "velocity": 0.2204724409448819,
                    "duration": 0.19900499999999965
                },
                {
                    "name": "E3",
                    "midi": 52,
                    "time": 329.55227999999977,
                    "velocity": 0.2440944881889764,
                    "duration": 0.19900499999999965
                },
                {
                    "name": "A#3",
                    "midi": 58,
                    "time": 329.75128499999977,
                    "velocity": 0.2125984251968504,
                    "duration": 0.19900499999999965
                },
                {
                    "name": "C#4",
                    "midi": 61,
                    "time": 329.95028999999977,
                    "velocity": 0.2125984251968504,
                    "duration": 0.19900499999999965
                },
                {
                    "name": "E4",
                    "midi": 64,
                    "time": 330.14929499999977,
                    "velocity": 0.23622047244094488,
                    "duration": 0.19900499999999965
                },
                {
                    "name": "C#4",
                    "midi": 61,
                    "time": 330.34829999999977,
                    "velocity": 0.2125984251968504,
                    "duration": 0.19900499999999965
                },
                {
                    "name": "A#3",
                    "midi": 58,
                    "time": 330.54730499999977,
                    "velocity": 0.2125984251968504,
                    "duration": 0.19900499999999965
                },
                {
                    "name": "E3",
                    "midi": 52,
                    "time": 330.74630999999977,
                    "velocity": 0.2283464566929134,
                    "duration": 0.19900499999999965
                },
                {
                    "name": "A#3",
                    "midi": 58,
                    "time": 330.94531499999977,
                    "velocity": 0.2125984251968504,
                    "duration": 0.19900499999999965
                },
                {
                    "name": "C#4",
                    "midi": 61,
                    "time": 331.14431999999977,
                    "velocity": 0.2125984251968504,
                    "duration": 0.19900499999999965
                },
                {
                    "name": "D#3",
                    "midi": 51,
                    "time": 331.34332499999977,
                    "velocity": 0.2283464566929134,
                    "duration": 0.19900499999999965
                },
                {
                    "name": "A#3",
                    "midi": 58,
                    "time": 331.54232999999977,
                    "velocity": 0.2125984251968504,
                    "duration": 0.19900499999999965
                },
                {
                    "name": "C#4",
                    "midi": 61,
                    "time": 331.74133499999976,
                    "velocity": 0.2125984251968504,
                    "duration": 0.19900499999999965
                },
                {
                    "name": "D#4",
                    "midi": 63,
                    "time": 331.94033999999976,
                    "velocity": 0.2204724409448819,
                    "duration": 0.19900499999999965
                },
                {
                    "name": "C#4",
                    "midi": 61,
                    "time": 332.13934499999976,
                    "velocity": 0.2125984251968504,
                    "duration": 0.19900499999999965
                },
                {
                    "name": "A#3",
                    "midi": 58,
                    "time": 332.33834999999976,
                    "velocity": 0.2125984251968504,
                    "duration": 0.19900499999999965
                },
                {
                    "name": "D#3",
                    "midi": 51,
                    "time": 332.53735499999976,
                    "velocity": 0.2204724409448819,
                    "duration": 0.19900499999999965
                },
                {
                    "name": "A#3",
                    "midi": 58,
                    "time": 332.73635999999976,
                    "velocity": 0.18110236220472442,
                    "duration": 0.19900499999999965
                },
                {
                    "name": "C#4",
                    "midi": 61,
                    "time": 332.93536499999976,
                    "velocity": 0.18110236220472442,
                    "duration": 0.19900499999999965
                },
                {
                    "name": "D#3",
                    "midi": 51,
                    "time": 333.13436999999976,
                    "velocity": 0.2204724409448819,
                    "duration": 0.19900499999999965
                },
                {
                    "name": "A#3",
                    "midi": 58,
                    "time": 333.33337499999976,
                    "velocity": 0.1889763779527559,
                    "duration": 0.19900499999999965
                },
                {
                    "name": "C#4",
                    "midi": 61,
                    "time": 333.53237999999976,
                    "velocity": 0.1889763779527559,
                    "duration": 0.19900499999999965
                },
                {
                    "name": "D#4",
                    "midi": 63,
                    "time": 333.73138499999976,
                    "velocity": 0.2125984251968504,
                    "duration": 0.19900499999999965
                },
                {
                    "name": "C#4",
                    "midi": 61,
                    "time": 333.93038999999976,
                    "velocity": 0.1968503937007874,
                    "duration": 0.19900499999999965
                },
                {
                    "name": "A#3",
                    "midi": 58,
                    "time": 334.12939499999976,
                    "velocity": 0.1968503937007874,
                    "duration": 0.19900499999999965
                },
                {
                    "name": "D#3",
                    "midi": 51,
                    "time": 334.32839999999976,
                    "velocity": 0.2047244094488189,
                    "duration": 0.19900499999999965
                },
                {
                    "name": "A#3",
                    "midi": 58,
                    "time": 334.52740499999976,
                    "velocity": 0.2047244094488189,
                    "duration": 0.19900499999999965
                },
                {
                    "name": "C#4",
                    "midi": 61,
                    "time": 334.72640999999976,
                    "velocity": 0.2047244094488189,
                    "duration": 0.19900499999999965
                },
                {
                    "name": "D#4",
                    "midi": 63,
                    "time": 334.92541499999976,
                    "velocity": 0.2992125984251969,
                    "duration": 0.5907960937499865
                },
                {
                    "name": "D#4",
                    "midi": 63,
                    "time": 335.52242999999976,
                    "velocity": 0.30708661417322836,
                    "duration": 0.5907960937499865
                },
                {
                    "name": "D#4",
                    "midi": 63,
                    "time": 336.11944499999976,
                    "velocity": 0.30708661417322836,
                    "duration": 0.5907960937499865
                },
                {
                    "name": "D#4",
                    "midi": 63,
                    "time": 336.71645999999976,
                    "velocity": 0.31496062992125984,
                    "duration": 0.5907960937499865
                },
                {
                    "name": "D#4",
                    "midi": 63,
                    "time": 337.31347499999976,
                    "velocity": 0.31496062992125984,
                    "duration": 0.5907960937499865
                },
                {
                    "name": "D#4",
                    "midi": 63,
                    "time": 337.91048999999975,
                    "velocity": 0.36220472440944884,
                    "duration": 0.5907960937499865
                },
                {
                    "name": "G#4",
                    "midi": 68,
                    "time": 338.50750499999975,
                    "velocity": 0.36220472440944884,
                    "duration": 0.5907960937499865
                },
                {
                    "name": "D#4",
                    "midi": 63,
                    "time": 338.50750499999975,
                    "velocity": 0.2677165354330709,
                    "duration": 0.5907960937499865
                },
                {
                    "name": "C4",
                    "midi": 60,
                    "time": 338.50750499999975,
                    "velocity": 0.2677165354330709,
                    "duration": 0.5907960937499865
                },
                {
                    "name": "D#4",
                    "midi": 63,
                    "time": 339.10451999999975,
                    "velocity": 0.2677165354330709,
                    "duration": 1.1940300000000548
                },
                {
                    "name": "G#4",
                    "midi": 68,
                    "time": 339.10451999999975,
                    "velocity": 0.36220472440944884,
                    "duration": 0.8955225000000269
                },
                {
                    "name": "C4",
                    "midi": 60,
                    "time": 339.10451999999975,
                    "velocity": 0.2677165354330709,
                    "duration": 1.1940300000000548
                },
                {
                    "name": "A#4",
                    "midi": 70,
                    "time": 340.0000424999998,
                    "velocity": 0.30708661417322836,
                    "duration": 0.2985075000000279
                },
                {
                    "name": "C#4",
                    "midi": 61,
                    "time": 340.2985499999998,
                    "velocity": 0.2677165354330709,
                    "duration": 0.5907960937499865
                },
                {
                    "name": "G#4",
                    "midi": 68,
                    "time": 340.2985499999998,
                    "velocity": 0.36220472440944884,
                    "duration": 0.5907960937499865
                },
                {
                    "name": "D#4",
                    "midi": 63,
                    "time": 340.2985499999998,
                    "velocity": 0.2677165354330709,
                    "duration": 0.5907960937499865
                },
                {
                    "name": "D#4",
                    "midi": 63,
                    "time": 340.8955649999998,
                    "velocity": 0.2677165354330709,
                    "duration": 1.194029999999998
                },
                {
                    "name": "C#4",
                    "midi": 61,
                    "time": 340.8955649999998,
                    "velocity": 0.2677165354330709,
                    "duration": 1.194029999999998
                },
                {
                    "name": "G4",
                    "midi": 67,
                    "time": 340.8955649999998,
                    "velocity": 0.36220472440944884,
                    "duration": 0.8955225000000269
                },
                {
                    "name": "A#4",
                    "midi": 70,
                    "time": 341.79108749999983,
                    "velocity": 0.29133858267716534,
                    "duration": 0.29601993749997746
                },
                {
                    "name": "A#4",
                    "midi": 70,
                    "time": 342.0895949999998,
                    "velocity": 0.36220472440944884,
                    "duration": 0.5907960937499865
                },
                {
                    "name": "D#4",
                    "midi": 63,
                    "time": 342.6866099999998,
                    "velocity": 0.2992125984251969,
                    "duration": 0.5907960937499865
                },
                {
                    "name": "G#4",
                    "midi": 68,
                    "time": 342.6866099999998,
                    "velocity": 0.4015748031496063,
                    "duration": 0.5907960937499865
                },
                {
                    "name": "C#4",
                    "midi": 61,
                    "time": 343.2836249999998,
                    "velocity": 0.30708661417322836,
                    "duration": 0.5907960937499865
                },
                {
                    "name": "D#4",
                    "midi": 63,
                    "time": 343.2836249999998,
                    "velocity": 0.30708661417322836,
                    "duration": 0.5907960937499865
                },
                {
                    "name": "A#4",
                    "midi": 70,
                    "time": 343.2836249999998,
                    "velocity": 0.4094488188976378,
                    "duration": 0.5907960937499865
                },
                {
                    "name": "C5",
                    "midi": 72,
                    "time": 343.8806399999998,
                    "velocity": 0.4330708661417323,
                    "duration": 1.194029999999998
                },
                {
                    "name": "C4",
                    "midi": 60,
                    "time": 343.8806399999998,
                    "velocity": 0.31496062992125984,
                    "duration": 1.194029999999998
                },
                {
                    "name": "D#4",
                    "midi": 63,
                    "time": 343.8806399999998,
                    "velocity": 0.31496062992125984,
                    "duration": 1.194029999999998
                },
                {
                    "name": "D#4",
                    "midi": 63,
                    "time": 345.0746699999998,
                    "velocity": 0.4645669291338583,
                    "duration": 0.5907960937499865
                },
                {
                    "name": "C5",
                    "midi": 72,
                    "time": 345.6716849999998,
                    "velocity": 0.5669291338582677,
                    "duration": 0.5907960937499865
                },
                {
                    "name": "C4",
                    "midi": 60,
                    "time": 345.6716849999998,
                    "velocity": 0.4251968503937008,
                    "duration": 0.5907960937499865
                },
                {
                    "name": "D#4",
                    "midi": 63,
                    "time": 345.6716849999998,
                    "velocity": 0.4251968503937008,
                    "duration": 0.5907960937499865
                },
                {
                    "name": "D#4",
                    "midi": 63,
                    "time": 346.2686999999998,
                    "velocity": 0.4330708661417323,
                    "duration": 0.8955225000000269
                },
                {
                    "name": "C4",
                    "midi": 60,
                    "time": 346.2686999999998,
                    "velocity": 0.4330708661417323,
                    "duration": 0.8955225000000269
                },
                {
                    "name": "C5",
                    "midi": 72,
                    "time": 346.2686999999998,
                    "velocity": 0.5748031496062992,
                    "duration": 0.8955225000000269
                },
                {
                    "name": "C#4",
                    "midi": 61,
                    "time": 347.1642224999998,
                    "velocity": 0.36220472440944884,
                    "duration": 0.29601993749997746
                },
                {
                    "name": "C#5",
                    "midi": 73,
                    "time": 347.1642224999998,
                    "velocity": 0.49606299212598426,
                    "duration": 0.29601993749997746
                },
                {
                    "name": "D#4",
                    "midi": 63,
                    "time": 347.1642224999998,
                    "velocity": 0.36220472440944884,
                    "duration": 0.29601993749997746
                },
                {
                    "name": "C5",
                    "midi": 72,
                    "time": 347.4627299999998,
                    "velocity": 0.5590551181102362,
                    "duration": 0.5907960937499865
                },
                {
                    "name": "C4",
                    "midi": 60,
                    "time": 347.4627299999998,
                    "velocity": 0.4094488188976378,
                    "duration": 0.5907960937499865
                },
                {
                    "name": "D#4",
                    "midi": 63,
                    "time": 347.4627299999998,
                    "velocity": 0.4094488188976378,
                    "duration": 0.5907960937499865
                },
                {
                    "name": "A#4",
                    "midi": 70,
                    "time": 348.0597449999998,
                    "velocity": 0.5039370078740157,
                    "duration": 0.8955225000000269
                },
                {
                    "name": "D#4",
                    "midi": 63,
                    "time": 348.0597449999998,
                    "velocity": 0.3700787401574803,
                    "duration": 0.8955225000000269
                },
                {
                    "name": "A#3",
                    "midi": 58,
                    "time": 348.0597449999998,
                    "velocity": 0.3700787401574803,
                    "duration": 0.8955225000000269
                },
                {
                    "name": "C4",
                    "midi": 60,
                    "time": 348.9552674999998,
                    "velocity": 0.30708661417322836,
                    "duration": 0.29601993749997746
                },
                {
                    "name": "C5",
                    "midi": 72,
                    "time": 348.9552674999998,
                    "velocity": 0.4094488188976378,
                    "duration": 0.29601993749997746
                },
                {
                    "name": "D#4",
                    "midi": 63,
                    "time": 348.9552674999998,
                    "velocity": 0.30708661417322836,
                    "duration": 0.29601993749997746
                },
                {
                    "name": "A#4",
                    "midi": 70,
                    "time": 349.2537749999998,
                    "velocity": 0.4409448818897638,
                    "duration": 0.5907960937499865
                },
                {
                    "name": "D#4",
                    "midi": 63,
                    "time": 349.2537749999998,
                    "velocity": 0.3228346456692913,
                    "duration": 0.5907960937499865
                },
                {
                    "name": "A#3",
                    "midi": 58,
                    "time": 349.2537749999998,
                    "velocity": 0.3228346456692913,
                    "duration": 0.5907960937499865
                },
                {
                    "name": "G#4",
                    "midi": 68,
                    "time": 349.8507899999998,
                    "velocity": 0.4094488188976378,
                    "duration": 0.5907960937499865
                },
                {
                    "name": "G#3",
                    "midi": 56,
                    "time": 349.8507899999998,
                    "velocity": 0.30708661417322836,
                    "duration": 0.5907960937499865
                },
                {
                    "name": "D#4",
                    "midi": 63,
                    "time": 349.8507899999998,
                    "velocity": 0.30708661417322836,
                    "duration": 0.5907960937499865
                },
                {
                    "name": "A#4",
                    "midi": 70,
                    "time": 350.4478049999998,
                    "velocity": 0.4409448818897638,
                    "duration": 0.597014999999999
                },
                {
                    "name": "D#5",
                    "midi": 75,
                    "time": 350.4478049999998,
                    "velocity": 0.5196850393700787,
                    "duration": 0.447761249999985
                },
                {
                    "name": "D#4",
                    "midi": 63,
                    "time": 350.4478049999998,
                    "velocity": 0.3858267716535433,
                    "duration": 0.597014999999999
                },
                {
                    "name": "C#5",
                    "midi": 73,
                    "time": 350.8955662499998,
                    "velocity": 0.4645669291338583,
                    "duration": 0.14925375000001395
                },
                {
                    "name": "D#4",
                    "midi": 63,
                    "time": 351.0448199999998,
                    "velocity": 0.28346456692913385,
                    "duration": 1.194029999999998
                },
                {
                    "name": "C5",
                    "midi": 72,
                    "time": 351.0448199999998,
                    "velocity": 0.3858267716535433,
                    "duration": 1.194029999999998
                },
                {
                    "name": "G#4",
                    "midi": 68,
                    "time": 351.0448199999998,
                    "velocity": 0.28346456692913385,
                    "duration": 1.194029999999998
                },
                {
                    "name": "D#5",
                    "midi": 75,
                    "time": 352.2388499999998,
                    "velocity": 0.4409448818897638,
                    "duration": 0.5907960937499865
                },
                {
                    "name": "D#5",
                    "midi": 75,
                    "time": 352.8358649999998,
                    "velocity": 0.2677165354330709,
                    "duration": 0.5907960937499865
                },
                {
                    "name": "G#5",
                    "midi": 80,
                    "time": 352.8358649999998,
                    "velocity": 0.4251968503937008,
                    "duration": 0.5907960937499865
                },
                {
                    "name": "C5",
                    "midi": 72,
                    "time": 352.8358649999998,
                    "velocity": 0.2677165354330709,
                    "duration": 0.5907960937499865
                },
                {
                    "name": "D#5",
                    "midi": 75,
                    "time": 353.4328799999998,
                    "velocity": 0.2677165354330709,
                    "duration": 1.1940300000000548
                },
                {
                    "name": "G#5",
                    "midi": 80,
                    "time": 353.4328799999998,
                    "velocity": 0.44881889763779526,
                    "duration": 0.8955225000000269
                },
                {
                    "name": "C5",
                    "midi": 72,
                    "time": 353.4328799999998,
                    "velocity": 0.2677165354330709,
                    "duration": 1.1940300000000548
                },
                {
                    "name": "A#5",
                    "midi": 82,
                    "time": 354.3284024999998,
                    "velocity": 0.41732283464566927,
                    "duration": 0.2985075000000279
                },
                {
                    "name": "C#5",
                    "midi": 73,
                    "time": 354.62690999999984,
                    "velocity": 0.2677165354330709,
                    "duration": 0.5907960937499865
                },
                {
                    "name": "G#5",
                    "midi": 80,
                    "time": 354.62690999999984,
                    "velocity": 0.44881889763779526,
                    "duration": 0.5907960937499865
                },
                {
                    "name": "D#5",
                    "midi": 75,
                    "time": 354.62690999999984,
                    "velocity": 0.2677165354330709,
                    "duration": 0.5907960937499865
                },
                {
                    "name": "G5",
                    "midi": 79,
                    "time": 355.22392499999984,
                    "velocity": 0.44881889763779526,
                    "duration": 0.8955225000000269
                },
                {
                    "name": "D#5",
                    "midi": 75,
                    "time": 355.22392499999984,
                    "velocity": 0.2677165354330709,
                    "duration": 1.1940300000000548
                },
                {
                    "name": "C#5",
                    "midi": 73,
                    "time": 355.22392499999984,
                    "velocity": 0.2677165354330709,
                    "duration": 1.1940300000000548
                },
                {
                    "name": "A#5",
                    "midi": 82,
                    "time": 356.11944749999986,
                    "velocity": 0.44881889763779526,
                    "duration": 0.2985075000000279
                },
                {
                    "name": "A#5",
                    "midi": 82,
                    "time": 356.4179549999999,
                    "velocity": 0.44881889763779526,
                    "duration": 0.5907960937499865
                },
                {
                    "name": "D#5",
                    "midi": 75,
                    "time": 357.0149699999999,
                    "velocity": 0.2755905511811024,
                    "duration": 0.5907960937499865
                },
                {
                    "name": "G#5",
                    "midi": 80,
                    "time": 357.0149699999999,
                    "velocity": 0.4645669291338583,
                    "duration": 0.5907960937499865
                },
                {
                    "name": "C#5",
                    "midi": 73,
                    "time": 357.6119849999999,
                    "velocity": 0.29133858267716534,
                    "duration": 0.5907960937499865
                },
                {
                    "name": "A#5",
                    "midi": 82,
                    "time": 357.6119849999999,
                    "velocity": 0.4881889763779528,
                    "duration": 0.5907960937499865
                },
                {
                    "name": "D#5",
                    "midi": 75,
                    "time": 357.6119849999999,
                    "velocity": 0.29133858267716534,
                    "duration": 0.5907960937499865
                },
                {
                    "name": "D#5",
                    "midi": 75,
                    "time": 358.2089999999999,
                    "velocity": 0.31496062992125984,
                    "duration": 1.194029999999998
                },
                {
                    "name": "C6",
                    "midi": 84,
                    "time": 358.2089999999999,
                    "velocity": 0.5196850393700787,
                    "duration": 1.194029999999998
                },
                {
                    "name": "C5",
                    "midi": 72,
                    "time": 358.2089999999999,
                    "velocity": 0.31496062992125984,
                    "duration": 1.194029999999998
                },
                {
                    "name": "D#5",
                    "midi": 75,
                    "time": 359.4030299999999,
                    "velocity": 0.5118110236220472,
                    "duration": 0.5907960937499865
                },
                {
                    "name": "C6",
                    "midi": 84,
                    "time": 360.0000449999999,
                    "velocity": 0.5748031496062992,
                    "duration": 0.5907960937499865
                },
                {
                    "name": "C5",
                    "midi": 72,
                    "time": 360.0000449999999,
                    "velocity": 0.3464566929133858,
                    "duration": 0.5907960937499865
                },
                {
                    "name": "D#5",
                    "midi": 75,
                    "time": 360.0000449999999,
                    "velocity": 0.3464566929133858,
                    "duration": 0.5907960937499865
                },
                {
                    "name": "C5",
                    "midi": 72,
                    "time": 360.5970599999999,
                    "velocity": 0.3464566929133858,
                    "duration": 1.1940300000000548
                },
                {
                    "name": "D#5",
                    "midi": 75,
                    "time": 360.5970599999999,
                    "velocity": 0.3464566929133858,
                    "duration": 1.1940300000000548
                },
                {
                    "name": "C6",
                    "midi": 84,
                    "time": 360.5970599999999,
                    "velocity": 0.5826771653543307,
                    "duration": 0.8955225000000269
                },
                {
                    "name": "C#6",
                    "midi": 85,
                    "time": 361.4925824999999,
                    "velocity": 0.5511811023622047,
                    "duration": 0.2985075000000279
                },
                {
                    "name": "C5",
                    "midi": 72,
                    "time": 361.79108999999994,
                    "velocity": 0.29133858267716534,
                    "duration": 0.5907960937499865
                },
                {
                    "name": "C6",
                    "midi": 84,
                    "time": 361.79108999999994,
                    "velocity": 0.4645669291338583,
                    "duration": 0.5907960937499865
                },
                {
                    "name": "E5",
                    "midi": 76,
                    "time": 361.79108999999994,
                    "velocity": 0.29133858267716534,
                    "duration": 0.5907960937499865
                },
                {
                    "name": "E5",
                    "midi": 76,
                    "time": 362.38810499999994,
                    "velocity": 0.28346456692913385,
                    "duration": 1.1940300000000548
                },
                {
                    "name": "C5",
                    "midi": 72,
                    "time": 362.38810499999994,
                    "velocity": 0.28346456692913385,
                    "duration": 1.1940300000000548
                },
                {
                    "name": "A#5",
                    "midi": 82,
                    "time": 362.38810499999994,
                    "velocity": 0.4094488188976378,
                    "duration": 0.8955225000000269
                },
                {
                    "name": "C6",
                    "midi": 84,
                    "time": 363.28362749999997,
                    "velocity": 0.4251968503937008,
                    "duration": 0.2985075000000279
                },
                {
                    "name": "C5",
                    "midi": 72,
                    "time": 363.582135,
                    "velocity": 0.28346456692913385,
                    "duration": 0.5907960937499865
                },
                {
                    "name": "F5",
                    "midi": 77,
                    "time": 363.582135,
                    "velocity": 0.28346456692913385,
                    "duration": 0.5907960937499865
                },
                {
                    "name": "A#5",
                    "midi": 82,
                    "time": 363.582135,
                    "velocity": 0.3858267716535433,
                    "duration": 0.5907960937499865
                },
                {
                    "name": "C5",
                    "midi": 72,
                    "time": 364.17915,
                    "velocity": 0.2677165354330709,
                    "duration": 0.5907960937501002
                },
                {
                    "name": "F5",
                    "midi": 77,
                    "time": 364.17915,
                    "velocity": 0.2677165354330709,
                    "duration": 0.5907960937501002
                },
                {
                    "name": "G#5",
                    "midi": 80,
                    "time": 364.17915,
                    "velocity": 0.3700787401574803,
                    "duration": 0.19900499999999965
                },
                {
                    "name": "A#5",
                    "midi": 82,
                    "time": 364.378155,
                    "velocity": 0.4094488188976378,
                    "duration": 0.09950250000002825
                },
                {
                    "name": "G#5",
                    "midi": 80,
                    "time": 364.4776575,
                    "velocity": 0.4015748031496063,
                    "duration": 0.09950250000002825
                },
                {
                    "name": "G5",
                    "midi": 79,
                    "time": 364.57716000000005,
                    "velocity": 0.4015748031496063,
                    "duration": 0.09950250000002825
                },
                {
                    "name": "G#5",
                    "midi": 80,
                    "time": 364.6766625000001,
                    "velocity": 0.4015748031496063,
                    "duration": 0.09950250000002825
                },
                {
                    "name": "C#5",
                    "midi": 73,
                    "time": 364.7761650000001,
                    "velocity": 0.29133858267716534,
                    "duration": 0.597014999999999
                },
                {
                    "name": "G5",
                    "midi": 79,
                    "time": 364.7761650000001,
                    "velocity": 0.29133858267716534,
                    "duration": 0.597014999999999
                },
                {
                    "name": "C6",
                    "midi": 84,
                    "time": 364.7761650000001,
                    "velocity": 0.5039370078740157,
                    "duration": 0.447761249999985
                },
                {
                    "name": "A#5",
                    "midi": 82,
                    "time": 365.2239262500001,
                    "velocity": 0.4881889763779528,
                    "duration": 0.14925375000001395
                },
                {
                    "name": "C5",
                    "midi": 72,
                    "time": 365.3731800000001,
                    "velocity": 0.2755905511811024,
                    "duration": 1.194029999999998
                },
                {
                    "name": "G#5",
                    "midi": 80,
                    "time": 365.3731800000001,
                    "velocity": 0.4251968503937008,
                    "duration": 1.194029999999998
                },
                {
                    "name": "D#5",
                    "midi": 75,
                    "time": 366.86571750000013,
                    "velocity": 0.6299212598425197,
                    "duration": 0.29601993749997746
                },
                {
                    "name": "D#4",
                    "midi": 63,
                    "time": 366.86571750000013,
                    "velocity": 0.5354330708661418,
                    "duration": 0.29601993749997746
                },
                {
                    "name": "G#4",
                    "midi": 68,
                    "time": 366.86571750000013,
                    "velocity": 0.5354330708661418,
                    "duration": 0.29601993749997746
                },
                {
                    "name": "D#5",
                    "midi": 75,
                    "time": 367.1642250000001,
                    "velocity": 0.7165354330708661,
                    "duration": 0.5907960937499865
                },
                {
                    "name": "D#4",
                    "midi": 63,
                    "time": 367.1642250000001,
                    "velocity": 0.6062992125984252,
                    "duration": 0.5907960937499865
                },
                {
                    "name": "G#4",
                    "midi": 68,
                    "time": 367.1642250000001,
                    "velocity": 0.6062992125984252,
                    "duration": 0.5907960937499865
                },
                {
                    "name": "G#4",
                    "midi": 68,
                    "time": 367.7612400000001,
                    "velocity": 0.5826771653543307,
                    "duration": 0.8868160312500208
                },
                {
                    "name": "D#5",
                    "midi": 75,
                    "time": 367.7612400000001,
                    "velocity": 0.6929133858267716,
                    "duration": 0.8868160312500208
                },
                {
                    "name": "D#4",
                    "midi": 63,
                    "time": 367.7612400000001,
                    "velocity": 0.5826771653543307,
                    "duration": 0.8868160312500208
                },
                {
                    "name": "C4",
                    "midi": 60,
                    "time": 368.6567625000001,
                    "velocity": 0.5354330708661418,
                    "duration": 0.29601993749997746
                },
                {
                    "name": "C5",
                    "midi": 72,
                    "time": 368.6567625000001,
                    "velocity": 0.6299212598425197,
                    "duration": 0.29601993749997746
                },
                {
                    "name": "D#4",
                    "midi": 63,
                    "time": 368.6567625000001,
                    "velocity": 0.5354330708661418,
                    "duration": 0.29601993749997746
                },
                {
                    "name": "C5",
                    "midi": 72,
                    "time": 368.9552700000001,
                    "velocity": 0.7165354330708661,
                    "duration": 0.5907960937499865
                },
                {
                    "name": "D#4",
                    "midi": 63,
                    "time": 368.9552700000001,
                    "velocity": 0.6062992125984252,
                    "duration": 0.5907960937499865
                },
                {
                    "name": "C4",
                    "midi": 60,
                    "time": 368.9552700000001,
                    "velocity": 0.6062992125984252,
                    "duration": 0.5907960937499865
                },
                {
                    "name": "D#4",
                    "midi": 63,
                    "time": 369.5522850000001,
                    "velocity": 0.5748031496062992,
                    "duration": 0.8868160312500208
                },
                {
                    "name": "C4",
                    "midi": 60,
                    "time": 369.5522850000001,
                    "velocity": 0.5748031496062992,
                    "duration": 0.8868160312500208
                },
                {
                    "name": "C5",
                    "midi": 72,
                    "time": 369.5522850000001,
                    "velocity": 0.6771653543307087,
                    "duration": 0.8868160312500208
                },
                {
                    "name": "F4",
                    "midi": 65,
                    "time": 370.4478075000001,
                    "velocity": 0.5275590551181102,
                    "duration": 0.29601993749997746
                },
                {
                    "name": "C4",
                    "midi": 60,
                    "time": 370.4478075000001,
                    "velocity": 0.5275590551181102,
                    "duration": 0.29601993749997746
                },
                {
                    "name": "G#4",
                    "midi": 68,
                    "time": 370.4478075000001,
                    "velocity": 0.6220472440944882,
                    "duration": 0.29601993749997746
                },
                {
                    "name": "F4",
                    "midi": 65,
                    "time": 370.7463150000001,
                    "velocity": 0.5275590551181102,
                    "duration": 0.447761249999985
                },
                {
                    "name": "G#4",
                    "midi": 68,
                    "time": 370.7463150000001,
                    "velocity": 0.6220472440944882,
                    "duration": 0.447761249999985
                },
                {
                    "name": "C4",
                    "midi": 60,
                    "time": 370.7463150000001,
                    "velocity": 0.5275590551181102,
                    "duration": 0.447761249999985
                },
                {
                    "name": "C#4",
                    "midi": 61,
                    "time": 371.3433300000001,
                    "velocity": 0.5354330708661418,
                    "duration": 0.447761249999985
                },
                {
                    "name": "A#4",
                    "midi": 70,
                    "time": 371.3433300000001,
                    "velocity": 0.6299212598425197,
                    "duration": 0.447761249999985
                },
                {
                    "name": "D#4",
                    "midi": 63,
                    "time": 371.3433300000001,
                    "velocity": 0.5354330708661418,
                    "duration": 0.447761249999985
                },
                {
                    "name": "C#4",
                    "midi": 61,
                    "time": 371.9403450000001,
                    "velocity": 0.5354330708661418,
                    "duration": 0.447761249999985
                },
                {
                    "name": "G4",
                    "midi": 67,
                    "time": 371.9403450000001,
                    "velocity": 0.5354330708661418,
                    "duration": 0.447761249999985
                },
                {
                    "name": "D#4",
                    "midi": 63,
                    "time": 371.9403450000001,
                    "velocity": 0.5354330708661418,
                    "duration": 0.447761249999985
                },
                {
                    "name": "C#5",
                    "midi": 73,
                    "time": 371.9403450000001,
                    "velocity": 0.6299212598425197,
                    "duration": 0.447761249999985
                },
                {
                    "name": "A#4",
                    "midi": 70,
                    "time": 371.9403450000001,
                    "velocity": 0.5354330708661418,
                    "duration": 0.447761249999985
                },
                {
                    "name": "C4",
                    "midi": 60,
                    "time": 372.5373600000001,
                    "velocity": 0.5354330708661418,
                    "duration": 1.4925375000000258
                },
                {
                    "name": "D#4",
                    "midi": 63,
                    "time": 372.5373600000001,
                    "velocity": 0.5354330708661418,
                    "duration": 1.4925375000000258
                },
                {
                    "name": "G#4",
                    "midi": 68,
                    "time": 372.5373600000001,
                    "velocity": 0.6299212598425197,
                    "duration": 1.4925375000000258
                },
                {
                    "name": "C5",
                    "midi": 72,
                    "time": 372.5373600000001,
                    "velocity": 0.6299212598425197,
                    "duration": 1.4925375000000258
                },
                {
                    "name": "F5",
                    "midi": 77,
                    "time": 374.0298975000001,
                    "velocity": 0.7322834645669292,
                    "duration": 0.29601993749997746
                },
                {
                    "name": "F4",
                    "midi": 65,
                    "time": 374.0298975000001,
                    "velocity": 0.6220472440944882,
                    "duration": 0.29601993749997746
                },
                {
                    "name": "G#4",
                    "midi": 68,
                    "time": 374.0298975000001,
                    "velocity": 0.6220472440944882,
                    "duration": 0.29601993749997746
                },
                {
                    "name": "F4",
                    "midi": 65,
                    "time": 374.3284050000001,
                    "velocity": 0.6692913385826772,
                    "duration": 0.5907960937499865
                },
                {
                    "name": "F5",
                    "midi": 77,
                    "time": 374.3284050000001,
                    "velocity": 0.7874015748031497,
                    "duration": 0.5907960937499865
                },
                {
                    "name": "G#4",
                    "midi": 68,
                    "time": 374.3284050000001,
                    "velocity": 0.6692913385826772,
                    "duration": 0.5907960937499865
                },
                {
                    "name": "G#4",
                    "midi": 68,
                    "time": 374.9254200000001,
                    "velocity": 0.6692913385826772,
                    "duration": 0.8868160312500208
                },
                {
                    "name": "F5",
                    "midi": 77,
                    "time": 374.9254200000001,
                    "velocity": 0.7874015748031497,
                    "duration": 0.8868160312500208
                },
                {
                    "name": "F4",
                    "midi": 65,
                    "time": 374.9254200000001,
                    "velocity": 0.6692913385826772,
                    "duration": 0.8868160312500208
                },
                {
                    "name": "G#4",
                    "midi": 68,
                    "time": 375.8209425000001,
                    "velocity": 0.6220472440944882,
                    "duration": 0.29601993749997746
                },
                {
                    "name": "C#5",
                    "midi": 73,
                    "time": 375.8209425000001,
                    "velocity": 0.7322834645669292,
                    "duration": 0.29601993749997746
                },
                {
                    "name": "F4",
                    "midi": 65,
                    "time": 375.8209425000001,
                    "velocity": 0.6220472440944882,
                    "duration": 0.29601993749997746
                },
                {
                    "name": "G#4",
                    "midi": 68,
                    "time": 376.1194500000001,
                    "velocity": 0.6692913385826772,
                    "duration": 0.5907960937499865
                },
                {
                    "name": "C#5",
                    "midi": 73,
                    "time": 376.1194500000001,
                    "velocity": 0.7874015748031497,
                    "duration": 0.5907960937499865
                },
                {
                    "name": "F4",
                    "midi": 65,
                    "time": 376.1194500000001,
                    "velocity": 0.6692913385826772,
                    "duration": 0.5907960937499865
                },
                {
                    "name": "G#4",
                    "midi": 68,
                    "time": 376.7164650000001,
                    "velocity": 0.6692913385826772,
                    "duration": 0.8868160312500208
                },
                {
                    "name": "C#5",
                    "midi": 73,
                    "time": 376.7164650000001,
                    "velocity": 0.7874015748031497,
                    "duration": 0.8868160312500208
                },
                {
                    "name": "F4",
                    "midi": 65,
                    "time": 376.7164650000001,
                    "velocity": 0.6692913385826772,
                    "duration": 0.8868160312500208
                },
                {
                    "name": "G#4",
                    "midi": 68,
                    "time": 377.6119875000001,
                    "velocity": 0.7322834645669292,
                    "duration": 0.29601993749997746
                },
                {
                    "name": "F4",
                    "midi": 65,
                    "time": 377.6119875000001,
                    "velocity": 0.6220472440944882,
                    "duration": 0.29601993749997746
                },
                {
                    "name": "F4",
                    "midi": 65,
                    "time": 377.9104950000001,
                    "velocity": 0.6614173228346457,
                    "duration": 0.447761249999985
                },
                {
                    "name": "G#4",
                    "midi": 68,
                    "time": 377.9104950000001,
                    "velocity": 0.7795275590551181,
                    "duration": 0.447761249999985
                },
                {
                    "name": "A4",
                    "midi": 69,
                    "time": 378.5075100000001,
                    "velocity": 0.6614173228346457,
                    "duration": 0.447761249999985
                },
                {
                    "name": "F#4",
                    "midi": 66,
                    "time": 378.5075100000001,
                    "velocity": 0.6614173228346457,
                    "duration": 0.447761249999985
                },
                {
                    "name": "C#5",
                    "midi": 73,
                    "time": 378.5075100000001,
                    "velocity": 0.7795275590551181,
                    "duration": 0.447761249999985
                },
                {
                    "name": "A4",
                    "midi": 69,
                    "time": 379.1045250000001,
                    "velocity": 0.6614173228346457,
                    "duration": 0.447761249999985
                },
                {
                    "name": "C#5",
                    "midi": 73,
                    "time": 379.1045250000001,
                    "velocity": 0.7795275590551181,
                    "duration": 0.447761249999985
                },
                {
                    "name": "F#5",
                    "midi": 78,
                    "time": 379.1045250000001,
                    "velocity": 0.7795275590551181,
                    "duration": 0.447761249999985
                },
                {
                    "name": "F#4",
                    "midi": 66,
                    "time": 379.1045250000001,
                    "velocity": 0.6614173228346457,
                    "duration": 0.447761249999985
                },
                {
                    "name": "G#4",
                    "midi": 68,
                    "time": 379.7015400000001,
                    "velocity": 0.6614173228346457,
                    "duration": 1.4925375000000258
                },
                {
                    "name": "C#5",
                    "midi": 73,
                    "time": 379.7015400000001,
                    "velocity": 0.6614173228346457,
                    "duration": 1.4925375000000258
                },
                {
                    "name": "F4",
                    "midi": 65,
                    "time": 379.7015400000001,
                    "velocity": 0.6614173228346457,
                    "duration": 1.4925375000000258
                },
                {
                    "name": "F5",
                    "midi": 77,
                    "time": 379.7015400000001,
                    "velocity": 0.7795275590551181,
                    "duration": 1.4925375000000258
                },
                {
                    "name": "F#4",
                    "midi": 66,
                    "time": 381.1940775000001,
                    "velocity": 0.6771653543307087,
                    "duration": 0.29601993749997746
                },
                {
                    "name": "C#5",
                    "midi": 73,
                    "time": 381.1940775000001,
                    "velocity": 0.6771653543307087,
                    "duration": 0.29601993749997746
                },
                {
                    "name": "F#5",
                    "midi": 78,
                    "time": 381.1940775000001,
                    "velocity": 0.8031496062992126,
                    "duration": 0.29601993749997746
                },
                {
                    "name": "C#5",
                    "midi": 73,
                    "time": 381.4925850000001,
                    "velocity": 0.6850393700787402,
                    "duration": 1.791044999999997
                },
                {
                    "name": "F#5",
                    "midi": 78,
                    "time": 381.4925850000001,
                    "velocity": 0.8110236220472441,
                    "duration": 1.791044999999997
                },
                {
                    "name": "F#4",
                    "midi": 66,
                    "time": 381.4925850000001,
                    "velocity": 0.6850393700787402,
                    "duration": 1.791044999999997
                },
                {
                    "name": "E5",
                    "midi": 76,
                    "time": 383.2836300000001,
                    "velocity": 0.48031496062992124,
                    "duration": 0.597014999999999
                },
                {
                    "name": "C#5",
                    "midi": 73,
                    "time": 383.2836300000001,
                    "velocity": 0.4015748031496063,
                    "duration": 1.194029999999998
                },
                {
                    "name": "G4",
                    "midi": 67,
                    "time": 383.2836300000001,
                    "velocity": 0.4015748031496063,
                    "duration": 1.4925375000000258
                },
                {
                    "name": "D#5",
                    "midi": 75,
                    "time": 383.8806450000001,
                    "velocity": 0.48031496062992124,
                    "duration": 0.597014999999999
                },
                {
                    "name": "C#5",
                    "midi": 73,
                    "time": 384.47766000000007,
                    "velocity": 0.47244094488188976,
                    "duration": 0.2985075000000279
                },
                {
                    "name": "C#4",
                    "midi": 61,
                    "time": 384.7761675000001,
                    "velocity": 0.44881889763779526,
                    "duration": 0.14925375000001395
                },
                {
                    "name": "G#4",
                    "midi": 68,
                    "time": 384.7761675000001,
                    "velocity": 0.5354330708661418,
                    "duration": 0.14925375000001395
                },
                {
                    "name": "C#4",
                    "midi": 61,
                    "time": 385.0746750000001,
                    "velocity": 0.44881889763779526,
                    "duration": 1.79104499999994
                },
                {
                    "name": "G#4",
                    "midi": 68,
                    "time": 385.0746750000001,
                    "velocity": 0.5354330708661418,
                    "duration": 1.4925375000000258
                },
                {
                    "name": "A#4",
                    "midi": 70,
                    "time": 386.56721250000015,
                    "velocity": 0.2755905511811024,
                    "duration": 0.07462687499997855
                },
                {
                    "name": "G#4",
                    "midi": 68,
                    "time": 386.64183937500013,
                    "velocity": 0.2755905511811024,
                    "duration": 0.07462687499997855
                },
                {
                    "name": "G4",
                    "midi": 67,
                    "time": 386.7164662500001,
                    "velocity": 0.2755905511811024,
                    "duration": 0.07462687499997855
                },
                {
                    "name": "G#4",
                    "midi": 68,
                    "time": 386.7910931250001,
                    "velocity": 0.2755905511811024,
                    "duration": 0.07462687499997855
                },
                {
                    "name": "G#4",
                    "midi": 68,
                    "time": 386.86572000000007,
                    "velocity": 0.4094488188976378,
                    "duration": 1.791044999999997
                },
                {
                    "name": "B4",
                    "midi": 71,
                    "time": 387.0149737500001,
                    "velocity": 0.4094488188976378,
                    "duration": 0.447761249999985
                },
                {
                    "name": "D4",
                    "midi": 62,
                    "time": 387.0149737500001,
                    "velocity": 0.4094488188976378,
                    "duration": 1.641791249999983
                },
                {
                    "name": "A#4",
                    "midi": 70,
                    "time": 387.46273500000007,
                    "velocity": 0.41732283464566927,
                    "duration": 0.597014999999999
                },
                {
                    "name": "G#4",
                    "midi": 68,
                    "time": 388.05975000000007,
                    "velocity": 0.41732283464566927,
                    "duration": 0.597014999999999
                },
                {
                    "name": "C4",
                    "midi": 60,
                    "time": 388.65676500000006,
                    "velocity": 0.2677165354330709,
                    "duration": 1.791044999999997
                },
                {
                    "name": "D#4",
                    "midi": 63,
                    "time": 388.65676500000006,
                    "velocity": 0.31496062992125984,
                    "duration": 0.5907960937499865
                },
                {
                    "name": "G#3",
                    "midi": 56,
                    "time": 388.65676500000006,
                    "velocity": 0.2677165354330709,
                    "duration": 1.791044999999997
                },
                {
                    "name": "D#4",
                    "midi": 63,
                    "time": 389.25378000000006,
                    "velocity": 0.31496062992125984,
                    "duration": 1.194029999999998
                },
                {
                    "name": "G3",
                    "midi": 55,
                    "time": 390.44781000000006,
                    "velocity": 0.2677165354330709,
                    "duration": 1.194029999999998
                },
                {
                    "name": "A#3",
                    "midi": 58,
                    "time": 390.44781000000006,
                    "velocity": 0.2677165354330709,
                    "duration": 1.194029999999998
                },
                {
                    "name": "C#4",
                    "midi": 61,
                    "time": 390.44781000000006,
                    "velocity": 0.31496062992125984,
                    "duration": 1.194029999999998
                },
                {
                    "name": "D#4",
                    "midi": 63,
                    "time": 390.44781000000006,
                    "velocity": 0.31496062992125984,
                    "duration": 0.5907960937499865
                },
                {
                    "name": "D#4",
                    "midi": 63,
                    "time": 391.04482500000006,
                    "velocity": 0.31496062992125984,
                    "duration": 0.5907960937499865
                },
                {
                    "name": "D#4",
                    "midi": 63,
                    "time": 391.64184000000006,
                    "velocity": 0.31496062992125984,
                    "duration": 0.5907960937499865
                },
                {
                    "name": "C4",
                    "midi": 60,
                    "time": 392.23885500000006,
                    "velocity": 0.2677165354330709,
                    "duration": 0.5907960937499865
                },
                {
                    "name": "D#4",
                    "midi": 63,
                    "time": 392.23885500000006,
                    "velocity": 0.2677165354330709,
                    "duration": 0.5907960937499865
                },
                {
                    "name": "G#4",
                    "midi": 68,
                    "time": 392.23885500000006,
                    "velocity": 0.36220472440944884,
                    "duration": 0.5907960937499865
                },
                {
                    "name": "G#4",
                    "midi": 68,
                    "time": 392.83587000000006,
                    "velocity": 0.36220472440944884,
                    "duration": 0.8955225000000269
                },
                {
                    "name": "D#4",
                    "midi": 63,
                    "time": 392.83587000000006,
                    "velocity": 0.2677165354330709,
                    "duration": 1.1940300000000548
                },
                {
                    "name": "C4",
                    "midi": 60,
                    "time": 392.83587000000006,
                    "velocity": 0.2677165354330709,
                    "duration": 1.1940300000000548
                },
                {
                    "name": "A#4",
                    "midi": 70,
                    "time": 393.7313925000001,
                    "velocity": 0.30708661417322836,
                    "duration": 0.2985075000000279
                },
                {
                    "name": "C#4",
                    "midi": 61,
                    "time": 394.0299000000001,
                    "velocity": 0.2677165354330709,
                    "duration": 0.5907960937499865
                },
                {
                    "name": "D#4",
                    "midi": 63,
                    "time": 394.0299000000001,
                    "velocity": 0.2677165354330709,
                    "duration": 0.5907960937499865
                },
                {
                    "name": "G#4",
                    "midi": 68,
                    "time": 394.0299000000001,
                    "velocity": 0.36220472440944884,
                    "duration": 0.5907960937499865
                },
                {
                    "name": "G4",
                    "midi": 67,
                    "time": 394.6269150000001,
                    "velocity": 0.36220472440944884,
                    "duration": 0.8955225000000269
                },
                {
                    "name": "D#4",
                    "midi": 63,
                    "time": 394.6269150000001,
                    "velocity": 0.2677165354330709,
                    "duration": 1.1940300000000548
                },
                {
                    "name": "C#4",
                    "midi": 61,
                    "time": 394.6269150000001,
                    "velocity": 0.2677165354330709,
                    "duration": 1.1940300000000548
                },
                {
                    "name": "A#4",
                    "midi": 70,
                    "time": 395.52243750000014,
                    "velocity": 0.29133858267716534,
                    "duration": 0.2985075000000279
                },
                {
                    "name": "A#4",
                    "midi": 70,
                    "time": 395.82094500000017,
                    "velocity": 0.36220472440944884,
                    "duration": 0.5907960937499865
                },
                {
                    "name": "G#4",
                    "midi": 68,
                    "time": 396.41796000000016,
                    "velocity": 0.4015748031496063,
                    "duration": 0.5907960937499865
                },
                {
                    "name": "D#4",
                    "midi": 63,
                    "time": 396.41796000000016,
                    "velocity": 0.2992125984251969,
                    "duration": 0.5907960937499865
                },
                {
                    "name": "D#4",
                    "midi": 63,
                    "time": 397.01497500000016,
                    "velocity": 0.30708661417322836,
                    "duration": 0.5907960937499865
                },
                {
                    "name": "A#4",
                    "midi": 70,
                    "time": 397.01497500000016,
                    "velocity": 0.4094488188976378,
                    "duration": 0.5907960937499865
                },
                {
                    "name": "C#4",
                    "midi": 61,
                    "time": 397.01497500000016,
                    "velocity": 0.30708661417322836,
                    "duration": 0.5907960937499865
                },
                {
                    "name": "C4",
                    "midi": 60,
                    "time": 397.61199000000016,
                    "velocity": 0.31496062992125984,
                    "duration": 1.194029999999998
                },
                {
                    "name": "C5",
                    "midi": 72,
                    "time": 397.61199000000016,
                    "velocity": 0.4330708661417323,
                    "duration": 1.194029999999998
                },
                {
                    "name": "D#4",
                    "midi": 63,
                    "time": 397.61199000000016,
                    "velocity": 0.31496062992125984,
                    "duration": 1.194029999999998
                },
                {
                    "name": "D#4",
                    "midi": 63,
                    "time": 398.80602000000016,
                    "velocity": 0.4094488188976378,
                    "duration": 0.5907960937499865
                },
                {
                    "name": "D#4",
                    "midi": 63,
                    "time": 399.40303500000016,
                    "velocity": 0.41732283464566927,
                    "duration": 0.5907960937499865
                },
                {
                    "name": "C5",
                    "midi": 72,
                    "time": 399.40303500000016,
                    "velocity": 0.5669291338582677,
                    "duration": 0.5907960937499865
                },
                {
                    "name": "C4",
                    "midi": 60,
                    "time": 399.40303500000016,
                    "velocity": 0.41732283464566927,
                    "duration": 0.5907960937499865
                },
                {
                    "name": "C5",
                    "midi": 72,
                    "time": 400.00005000000016,
                    "velocity": 0.5669291338582677,
                    "duration": 0.8955225000000269
                },
                {
                    "name": "D#4",
                    "midi": 63,
                    "time": 400.00005000000016,
                    "velocity": 0.41732283464566927,
                    "duration": 0.8955225000000269
                },
                {
                    "name": "C4",
                    "midi": 60,
                    "time": 400.00005000000016,
                    "velocity": 0.41732283464566927,
                    "duration": 0.8955225000000269
                },
                {
                    "name": "C#4",
                    "midi": 61,
                    "time": 400.8955725000002,
                    "velocity": 0.4015748031496063,
                    "duration": 0.29601993749997746
                },
                {
                    "name": "A#4",
                    "midi": 70,
                    "time": 400.8955725000002,
                    "velocity": 0.5511811023622047,
                    "duration": 0.29601993749997746
                },
                {
                    "name": "A#3",
                    "midi": 58,
                    "time": 400.8955725000002,
                    "velocity": 0.4015748031496063,
                    "duration": 0.29601993749997746
                },
                {
                    "name": "A#3",
                    "midi": 58,
                    "time": 401.19408000000016,
                    "velocity": 0.4409448818897638,
                    "duration": 0.5907960937499865
                },
                {
                    "name": "A#4",
                    "midi": 70,
                    "time": 401.19408000000016,
                    "velocity": 0.5905511811023622,
                    "duration": 0.5907960937499865
                },
                {
                    "name": "C#4",
                    "midi": 61,
                    "time": 401.19408000000016,
                    "velocity": 0.4409448818897638,
                    "duration": 0.5907960937499865
                },
                {
                    "name": "C4",
                    "midi": 60,
                    "time": 401.79109500000015,
                    "velocity": 0.41732283464566927,
                    "duration": 0.8955225000000269
                },
                {
                    "name": "A4",
                    "midi": 69,
                    "time": 401.79109500000015,
                    "velocity": 0.5590551181102362,
                    "duration": 0.8955225000000269
                },
                {
                    "name": "A3",
                    "midi": 57,
                    "time": 401.79109500000015,
                    "velocity": 0.41732283464566927,
                    "duration": 0.8955225000000269
                },
                {
                    "name": "A#3",
                    "midi": 58,
                    "time": 402.6866175000002,
                    "velocity": 0.3937007874015748,
                    "duration": 0.29601993749997746
                },
                {
                    "name": "C#4",
                    "midi": 61,
                    "time": 402.6866175000002,
                    "velocity": 0.3937007874015748,
                    "duration": 0.29601993749997746
                },
                {
                    "name": "A#4",
                    "midi": 70,
                    "time": 402.6866175000002,
                    "velocity": 0.5275590551181102,
                    "duration": 0.29601993749997746
                },
                {
                    "name": "A#4",
                    "midi": 70,
                    "time": 402.98512500000015,
                    "velocity": 0.5590551181102362,
                    "duration": 0.597014999999999
                },
                {
                    "name": "A#3",
                    "midi": 58,
                    "time": 402.98512500000015,
                    "velocity": 0.4094488188976378,
                    "duration": 0.597014999999999
                },
                {
                    "name": "C#4",
                    "midi": 61,
                    "time": 402.98512500000015,
                    "velocity": 0.4094488188976378,
                    "duration": 0.597014999999999
                },
                {
                    "name": "G#3",
                    "midi": 56,
                    "time": 403.58214000000015,
                    "velocity": 0.33858267716535434,
                    "duration": 0.597014999999999
                },
                {
                    "name": "C4",
                    "midi": 60,
                    "time": 403.58214000000015,
                    "velocity": 0.33858267716535434,
                    "duration": 0.597014999999999
                },
                {
                    "name": "G#4",
                    "midi": 68,
                    "time": 403.58214000000015,
                    "velocity": 0.4645669291338583,
                    "duration": 0.597014999999999
                },
                {
                    "name": "G3",
                    "midi": 55,
                    "time": 404.17915500000015,
                    "velocity": 0.3464566929133858,
                    "duration": 0.537313499999982
                },
                {
                    "name": "A#3",
                    "midi": 58,
                    "time": 404.17915500000015,
                    "velocity": 0.3464566929133858,
                    "duration": 0.537313499999982
                },
                {
                    "name": "G4",
                    "midi": 67,
                    "time": 404.17915500000015,
                    "velocity": 0.47244094488188976,
                    "duration": 0.537313499999982
                },
                {
                    "name": "G#3",
                    "midi": 56,
                    "time": 404.77617000000015,
                    "velocity": 0.33858267716535434,
                    "duration": 1.194029999999998
                },
                {
                    "name": "G#4",
                    "midi": 68,
                    "time": 404.77617000000015,
                    "velocity": 0.4645669291338583,
                    "duration": 1.194029999999998
                },
                {
                    "name": "C4",
                    "midi": 60,
                    "time": 404.77617000000015,
                    "velocity": 0.33858267716535434,
                    "duration": 1.194029999999998
                },
                {
                    "name": "D#5",
                    "midi": 75,
                    "time": 405.97020000000015,
                    "velocity": 0.4409448818897638,
                    "duration": 0.5907960937499865
                },
                {
                    "name": "D#5",
                    "midi": 75,
                    "time": 406.56721500000015,
                    "velocity": 0.2677165354330709,
                    "duration": 0.5907960937499865
                },
                {
                    "name": "G#5",
                    "midi": 80,
                    "time": 406.56721500000015,
                    "velocity": 0.4251968503937008,
                    "duration": 0.5907960937499865
                },
                {
                    "name": "C5",
                    "midi": 72,
                    "time": 406.56721500000015,
                    "velocity": 0.2677165354330709,
                    "duration": 0.5907960937499865
                },
                {
                    "name": "D#5",
                    "midi": 75,
                    "time": 407.16423000000015,
                    "velocity": 0.2677165354330709,
                    "duration": 1.1940300000000548
                },
                {
                    "name": "G#5",
                    "midi": 80,
                    "time": 407.16423000000015,
                    "velocity": 0.44881889763779526,
                    "duration": 0.8955225000000269
                },
                {
                    "name": "C5",
                    "midi": 72,
                    "time": 407.16423000000015,
                    "velocity": 0.2677165354330709,
                    "duration": 1.1940300000000548
                },
                {
                    "name": "A#5",
                    "midi": 82,
                    "time": 408.0597525000002,
                    "velocity": 0.4094488188976378,
                    "duration": 0.2985075000000279
                },
                {
                    "name": "G#5",
                    "midi": 80,
                    "time": 408.3582600000002,
                    "velocity": 0.44881889763779526,
                    "duration": 0.5907960937499865
                },
                {
                    "name": "C#5",
                    "midi": 73,
                    "time": 408.3582600000002,
                    "velocity": 0.2677165354330709,
                    "duration": 0.5907960937499865
                },
                {
                    "name": "D#5",
                    "midi": 75,
                    "time": 408.3582600000002,
                    "velocity": 0.2677165354330709,
                    "duration": 0.5907960937499865
                },
                {
                    "name": "C#5",
                    "midi": 73,
                    "time": 408.9552750000002,
                    "velocity": 0.2677165354330709,
                    "duration": 1.194029999999998
                },
                {
                    "name": "G5",
                    "midi": 79,
                    "time": 408.9552750000002,
                    "velocity": 0.44881889763779526,
                    "duration": 0.8955225000000269
                },
                {
                    "name": "D#5",
                    "midi": 75,
                    "time": 408.9552750000002,
                    "velocity": 0.2677165354330709,
                    "duration": 1.194029999999998
                },
                {
                    "name": "A#5",
                    "midi": 82,
                    "time": 409.8507975000002,
                    "velocity": 0.44881889763779526,
                    "duration": 0.29601993749997746
                },
                {
                    "name": "A#5",
                    "midi": 82,
                    "time": 410.1493050000002,
                    "velocity": 0.44881889763779526,
                    "duration": 0.5907960937499865
                },
                {
                    "name": "G#5",
                    "midi": 80,
                    "time": 410.7463200000002,
                    "velocity": 0.4645669291338583,
                    "duration": 0.5907960937499865
                },
                {
                    "name": "D#5",
                    "midi": 75,
                    "time": 410.7463200000002,
                    "velocity": 0.2755905511811024,
                    "duration": 0.5907960937499865
                },
                {
                    "name": "A#5",
                    "midi": 82,
                    "time": 411.3433350000002,
                    "velocity": 0.4881889763779528,
                    "duration": 0.5907960937499865
                },
                {
                    "name": "D#5",
                    "midi": 75,
                    "time": 411.3433350000002,
                    "velocity": 0.29133858267716534,
                    "duration": 0.5907960937499865
                },
                {
                    "name": "C#5",
                    "midi": 73,
                    "time": 411.3433350000002,
                    "velocity": 0.29133858267716534,
                    "duration": 0.5907960937499865
                },
                {
                    "name": "D#5",
                    "midi": 75,
                    "time": 411.9403500000002,
                    "velocity": 0.31496062992125984,
                    "duration": 1.194029999999998
                },
                {
                    "name": "C5",
                    "midi": 72,
                    "time": 411.9403500000002,
                    "velocity": 0.31496062992125984,
                    "duration": 1.194029999999998
                },
                {
                    "name": "C6",
                    "midi": 84,
                    "time": 411.9403500000002,
                    "velocity": 0.5196850393700787,
                    "duration": 1.194029999999998
                },
                {
                    "name": "D#5",
                    "midi": 75,
                    "time": 413.1343800000002,
                    "velocity": 0.5669291338582677,
                    "duration": 0.5907960937499865
                },
                {
                    "name": "C6",
                    "midi": 84,
                    "time": 413.7313950000002,
                    "velocity": 0.5669291338582677,
                    "duration": 0.5907960937499865
                },
                {
                    "name": "D#5",
                    "midi": 75,
                    "time": 413.7313950000002,
                    "velocity": 0.41732283464566927,
                    "duration": 0.5907960937499865
                },
                {
                    "name": "C5",
                    "midi": 72,
                    "time": 413.7313950000002,
                    "velocity": 0.41732283464566927,
                    "duration": 0.5907960937499865
                },
                {
                    "name": "C5",
                    "midi": 72,
                    "time": 414.3284100000002,
                    "velocity": 0.41732283464566927,
                    "duration": 0.8955225000000269
                },
                {
                    "name": "D#5",
                    "midi": 75,
                    "time": 414.3284100000002,
                    "velocity": 0.41732283464566927,
                    "duration": 0.8955225000000269
                },
                {
                    "name": "C6",
                    "midi": 84,
                    "time": 414.3284100000002,
                    "velocity": 0.5669291338582677,
                    "duration": 0.8955225000000269
                },
                {
                    "name": "C#5",
                    "midi": 73,
                    "time": 415.2239325000002,
                    "velocity": 0.4015748031496063,
                    "duration": 0.29601993749997746
                },
                {
                    "name": "A#5",
                    "midi": 82,
                    "time": 415.2239325000002,
                    "velocity": 0.5511811023622047,
                    "duration": 0.29601993749997746
                },
                {
                    "name": "A#4",
                    "midi": 70,
                    "time": 415.2239325000002,
                    "velocity": 0.4015748031496063,
                    "duration": 0.29601993749997746
                },
                {
                    "name": "A#5",
                    "midi": 82,
                    "time": 415.5224400000002,
                    "velocity": 0.5905511811023622,
                    "duration": 0.5907960937499865
                },
                {
                    "name": "C#5",
                    "midi": 73,
                    "time": 415.5224400000002,
                    "velocity": 0.4409448818897638,
                    "duration": 0.5907960937499865
                },
                {
                    "name": "A#4",
                    "midi": 70,
                    "time": 415.5224400000002,
                    "velocity": 0.4409448818897638,
                    "duration": 0.5907960937499865
                },
                {
                    "name": "C5",
                    "midi": 72,
                    "time": 416.1194550000002,
                    "velocity": 0.41732283464566927,
                    "duration": 0.8955225000000269
                },
                {
                    "name": "A5",
                    "midi": 81,
                    "time": 416.1194550000002,
                    "velocity": 0.5590551181102362,
                    "duration": 0.8955225000000269
                },
                {
                    "name": "A4",
                    "midi": 69,
                    "time": 416.1194550000002,
                    "velocity": 0.41732283464566927,
                    "duration": 0.8955225000000269
                },
                {
                    "name": "A#4",
                    "midi": 70,
                    "time": 417.0149775000002,
                    "velocity": 0.3937007874015748,
                    "duration": 0.29601993749997746
                },
                {
                    "name": "A#5",
                    "midi": 82,
                    "time": 417.0149775000002,
                    "velocity": 0.5275590551181102,
                    "duration": 0.29601993749997746
                },
                {
                    "name": "C#5",
                    "midi": 73,
                    "time": 417.0149775000002,
                    "velocity": 0.3937007874015748,
                    "duration": 0.29601993749997746
                },
                {
                    "name": "A#5",
                    "midi": 82,
                    "time": 417.3134850000002,
                    "velocity": 0.5590551181102362,
                    "duration": 0.5907960937499865
                },
                {
                    "name": "C#5",
                    "midi": 73,
                    "time": 417.3134850000002,
                    "velocity": 0.4094488188976378,
                    "duration": 0.5907960937499865
                },
                {
                    "name": "A#4",
                    "midi": 70,
                    "time": 417.3134850000002,
                    "velocity": 0.4094488188976378,
                    "duration": 0.5907960937499865
                },
                {
                    "name": "G#4",
                    "midi": 68,
                    "time": 417.9105000000002,
                    "velocity": 0.33858267716535434,
                    "duration": 0.5907960937499865
                },
                {
                    "name": "G#5",
                    "midi": 80,
                    "time": 417.9105000000002,
                    "velocity": 0.4645669291338583,
                    "duration": 0.5907960937499865
                },
                {
                    "name": "C5",
                    "midi": 72,
                    "time": 417.9105000000002,
                    "velocity": 0.33858267716535434,
                    "duration": 0.5907960937499865
                },
                {
                    "name": "G5",
                    "midi": 79,
                    "time": 418.5075150000002,
                    "velocity": 0.47244094488188976,
                    "duration": 0.537313499999982
                },
                {
                    "name": "A#4",
                    "midi": 70,
                    "time": 418.5075150000002,
                    "velocity": 0.3464566929133858,
                    "duration": 0.537313499999982
                },
                {
                    "name": "G4",
                    "midi": 67,
                    "time": 418.5075150000002,
                    "velocity": 0.3464566929133858,
                    "duration": 0.537313499999982
                },
                {
                    "name": "G#4",
                    "midi": 68,
                    "time": 419.1045300000002,
                    "velocity": 0.33858267716535434,
                    "duration": 1.194029999999998
                },
                {
                    "name": "G#5",
                    "midi": 80,
                    "time": 419.1045300000002,
                    "velocity": 0.4645669291338583,
                    "duration": 1.194029999999998
                },
                {
                    "name": "C5",
                    "midi": 72,
                    "time": 419.1045300000002,
                    "velocity": 0.33858267716535434,
                    "duration": 1.194029999999998
                },
                {
                    "name": "A#4",
                    "midi": 70,
                    "time": 420.5970675000002,
                    "velocity": 0.5748031496062992,
                    "duration": 0.29601993749997746
                },
                {
                    "name": "C#4",
                    "midi": 61,
                    "time": 420.5970675000002,
                    "velocity": 0.4015748031496063,
                    "duration": 0.29601993749997746
                },
                {
                    "name": "A#3",
                    "midi": 58,
                    "time": 420.5970675000002,
                    "velocity": 0.4015748031496063,
                    "duration": 0.29601993749997746
                },
                {
                    "name": "C#4",
                    "midi": 61,
                    "time": 420.8955750000002,
                    "velocity": 0.3937007874015748,
                    "duration": 0.597014999999999
                },
                {
                    "name": "A#3",
                    "midi": 58,
                    "time": 420.8955750000002,
                    "velocity": 0.3937007874015748,
                    "duration": 0.597014999999999
                },
                {
                    "name": "A#4",
                    "midi": 70,
                    "time": 420.8955750000002,
                    "velocity": 0.5669291338582677,
                    "duration": 0.597014999999999
                },
                {
                    "name": "G#4",
                    "midi": 68,
                    "time": 421.4925900000002,
                    "velocity": 0.47244094488188976,
                    "duration": 0.597014999999999
                },
                {
                    "name": "G#3",
                    "midi": 56,
                    "time": 421.4925900000002,
                    "velocity": 0.33070866141732286,
                    "duration": 0.597014999999999
                },
                {
                    "name": "C4",
                    "midi": 60,
                    "time": 421.4925900000002,
                    "velocity": 0.33070866141732286,
                    "duration": 0.597014999999999
                },
                {
                    "name": "G3",
                    "midi": 55,
                    "time": 422.0896050000002,
                    "velocity": 0.30708661417322836,
                    "duration": 0.537313499999982
                },
                {
                    "name": "G4",
                    "midi": 67,
                    "time": 422.0896050000002,
                    "velocity": 0.4330708661417323,
                    "duration": 0.537313499999982
                },
                {
                    "name": "A#3",
                    "midi": 58,
                    "time": 422.0896050000002,
                    "velocity": 0.30708661417322836,
                    "duration": 0.537313499999982
                },
                {
                    "name": "G#4",
                    "midi": 68,
                    "time": 422.6866200000002,
                    "velocity": 0.41732283464566927,
                    "duration": 1.4925375000000258
                },
                {
                    "name": "C4",
                    "midi": 60,
                    "time": 422.6866200000002,
                    "velocity": 0.29133858267716534,
                    "duration": 1.4925375000000258
                },
                {
                    "name": "G#3",
                    "midi": 56,
                    "time": 422.6866200000002,
                    "velocity": 0.29133858267716534,
                    "duration": 1.4925375000000258
                },
                {
                    "name": "C#4",
                    "midi": 61,
                    "time": 424.1791575000002,
                    "velocity": 0.4409448818897638,
                    "duration": 0.29601993749997746
                },
                {
                    "name": "C#5",
                    "midi": 73,
                    "time": 424.1791575000002,
                    "velocity": 0.6220472440944882,
                    "duration": 0.29601993749997746
                },
                {
                    "name": "A#4",
                    "midi": 70,
                    "time": 424.1791575000002,
                    "velocity": 0.5275590551181102,
                    "duration": 0.29601993749997746
                },
                {
                    "name": "C#4",
                    "midi": 61,
                    "time": 424.4776650000002,
                    "velocity": 0.4409448818897638,
                    "duration": 0.597014999999999
                },
                {
                    "name": "A#4",
                    "midi": 70,
                    "time": 424.4776650000002,
                    "velocity": 0.5275590551181102,
                    "duration": 0.597014999999999
                },
                {
                    "name": "C#5",
                    "midi": 73,
                    "time": 424.4776650000002,
                    "velocity": 0.6220472440944882,
                    "duration": 0.597014999999999
                },
                {
                    "name": "G#4",
                    "midi": 68,
                    "time": 425.07468000000017,
                    "velocity": 0.4645669291338583,
                    "duration": 0.597014999999999
                },
                {
                    "name": "C4",
                    "midi": 60,
                    "time": 425.07468000000017,
                    "velocity": 0.3937007874015748,
                    "duration": 0.597014999999999
                },
                {
                    "name": "C5",
                    "midi": 72,
                    "time": 425.07468000000017,
                    "velocity": 0.5511811023622047,
                    "duration": 0.597014999999999
                },
                {
                    "name": "A#3",
                    "midi": 58,
                    "time": 425.67169500000017,
                    "velocity": 0.3543307086614173,
                    "duration": 0.537313499999982
                },
                {
                    "name": "G4",
                    "midi": 67,
                    "time": 425.67169500000017,
                    "velocity": 0.4251968503937008,
                    "duration": 0.537313499999982
                },
                {
                    "name": "A#4",
                    "midi": 70,
                    "time": 425.67169500000017,
                    "velocity": 0.5039370078740157,
                    "duration": 0.537313499999982
                },
                {
                    "name": "G#3",
                    "midi": 56,
                    "time": 426.26871000000017,
                    "velocity": 0.33858267716535434,
                    "duration": 1.194029999999998
                },
                {
                    "name": "G#4",
                    "midi": 68,
                    "time": 426.26871000000017,
                    "velocity": 0.48031496062992124,
                    "duration": 1.194029999999998
                }
            ],
            "controlChanges": {
                "7": [
                    {
                        "number": 7,
                        "time": 0,
                        "value": 0.6299212598425197
                    }
                ],
                "91": [
                    {
                        "number": 91,
                        "time": 0,
                        "value": 0.9763779527559056
                    },
                    {
                        "number": 91,
                        "time": 166.56718500000002,
                        "value": 1
                    },
                    {
                        "number": 91,
                        "time": 188.059725,
                        "value": 1
                    },
                    {
                        "number": 91,
                        "time": 209.55226499999995,
                        "value": 1
                    },
                    {
                        "number": 91,
                        "time": 245.3731649999999,
                        "value": 1
                    },
                    {
                        "number": 91,
                        "time": 266.8657049999999,
                        "value": 1
                    },
                    {
                        "number": 91,
                        "time": 302.6866049999998,
                        "value": 1
                    },
                    {
                        "number": 91,
                        "time": 336.71645999999976,
                        "value": 0.9921259842519685
                    }
                ]
            },
            "id": 1,
            "name": "Right ",
            "instrumentNumber": 0,
            "instrument": "acoustic grand piano",
            "instrumentFamily": "piano",
            "channelNumber": 0,
            "isPercussion": false
        },
        {
            "startTime": 1.19403,
            "duration": 427.46274000000005,
            "length": 885,
            "notes": [
                {
                    "name": "D#3",
                    "midi": 51,
                    "time": 1.19403,
                    "velocity": 0.2125984251968504,
                    "duration": 0.5907960937500001
                },
                {
                    "name": "D#3",
                    "midi": 51,
                    "time": 1.791045,
                    "velocity": 0.2125984251968504,
                    "duration": 0.5907960937499999
                },
                {
                    "name": "G#2",
                    "midi": 44,
                    "time": 1.791045,
                    "velocity": 0.2125984251968504,
                    "duration": 1.791045
                },
                {
                    "name": "D#3",
                    "midi": 51,
                    "time": 2.38806,
                    "velocity": 0.2125984251968504,
                    "duration": 1.1940300000000001
                },
                {
                    "name": "D#3",
                    "midi": 51,
                    "time": 3.58209,
                    "velocity": 0.2125984251968504,
                    "duration": 0.5907960937499999
                },
                {
                    "name": "A#2",
                    "midi": 46,
                    "time": 3.58209,
                    "velocity": 0.2125984251968504,
                    "duration": 1.7910449999999996
                },
                {
                    "name": "D#3",
                    "midi": 51,
                    "time": 4.179105,
                    "velocity": 0.2125984251968504,
                    "duration": 1.1940299999999997
                },
                {
                    "name": "D#3",
                    "midi": 51,
                    "time": 5.3731349999999996,
                    "velocity": 0.2125984251968504,
                    "duration": 0.5907960937499999
                },
                {
                    "name": "C3",
                    "midi": 48,
                    "time": 5.3731349999999996,
                    "velocity": 0.2125984251968504,
                    "duration": 1.1940299999999997
                },
                {
                    "name": "D#3",
                    "midi": 51,
                    "time": 5.970149999999999,
                    "velocity": 0.2125984251968504,
                    "duration": 0.5907960937499999
                },
                {
                    "name": "G2",
                    "midi": 43,
                    "time": 6.567164999999999,
                    "velocity": 0.2125984251968504,
                    "duration": 0.5970149999999999
                },
                {
                    "name": "D#3",
                    "midi": 51,
                    "time": 6.567164999999999,
                    "velocity": 0.2125984251968504,
                    "duration": 0.5907960937499999
                },
                {
                    "name": "G#2",
                    "midi": 44,
                    "time": 7.164179999999999,
                    "velocity": 0.2125984251968504,
                    "duration": 1.1940300000000006
                },
                {
                    "name": "D#3",
                    "midi": 51,
                    "time": 7.164179999999999,
                    "velocity": 0.2125984251968504,
                    "duration": 1.1940300000000006
                },
                {
                    "name": "D#3",
                    "midi": 51,
                    "time": 8.35821,
                    "velocity": 0.2440944881889764,
                    "duration": 0.5907960937500008
                },
                {
                    "name": "G#2",
                    "midi": 44,
                    "time": 8.955225,
                    "velocity": 0.2440944881889764,
                    "duration": 1.7910450000000004
                },
                {
                    "name": "D#3",
                    "midi": 51,
                    "time": 8.955225,
                    "velocity": 0.2440944881889764,
                    "duration": 0.5907960937500008
                },
                {
                    "name": "D#3",
                    "midi": 51,
                    "time": 9.552240000000001,
                    "velocity": 0.2440944881889764,
                    "duration": 1.1940299999999997
                },
                {
                    "name": "D#3",
                    "midi": 51,
                    "time": 10.74627,
                    "velocity": 0.2440944881889764,
                    "duration": 0.5907960937500008
                },
                {
                    "name": "C#3",
                    "midi": 49,
                    "time": 10.74627,
                    "velocity": 0.2440944881889764,
                    "duration": 1.7910450000000004
                },
                {
                    "name": "D#3",
                    "midi": 51,
                    "time": 11.343285000000002,
                    "velocity": 0.2440944881889764,
                    "duration": 1.1940299999999997
                },
                {
                    "name": "D#3",
                    "midi": 51,
                    "time": 12.537315000000001,
                    "velocity": 0.2440944881889764,
                    "duration": 0.5907960937500008
                },
                {
                    "name": "C3",
                    "midi": 48,
                    "time": 12.537315000000001,
                    "velocity": 0.2440944881889764,
                    "duration": 1.1940300000000015
                },
                {
                    "name": "D#3",
                    "midi": 51,
                    "time": 13.134330000000002,
                    "velocity": 0.2440944881889764,
                    "duration": 0.5907960937500008
                },
                {
                    "name": "G2",
                    "midi": 43,
                    "time": 13.731345000000003,
                    "velocity": 0.2440944881889764,
                    "duration": 0.5970150000000007
                },
                {
                    "name": "D#3",
                    "midi": 51,
                    "time": 13.731345000000003,
                    "velocity": 0.2440944881889764,
                    "duration": 0.5970150000000007
                },
                {
                    "name": "G#2",
                    "midi": 44,
                    "time": 14.328360000000004,
                    "velocity": 0.2283464566929134,
                    "duration": 1.1940299999999997
                },
                {
                    "name": "D#3",
                    "midi": 51,
                    "time": 14.328360000000004,
                    "velocity": 0.2283464566929134,
                    "duration": 1.1940299999999997
                },
                {
                    "name": "D#3",
                    "midi": 51,
                    "time": 15.522390000000003,
                    "velocity": 0.2125984251968504,
                    "duration": 0.590796093749999
                },
                {
                    "name": "G#2",
                    "midi": 44,
                    "time": 16.119405000000004,
                    "velocity": 0.2125984251968504,
                    "duration": 1.791045000000004
                },
                {
                    "name": "D#3",
                    "midi": 51,
                    "time": 16.119405000000004,
                    "velocity": 0.2125984251968504,
                    "duration": 0.5907960937500008
                },
                {
                    "name": "D#3",
                    "midi": 51,
                    "time": 16.716420000000006,
                    "velocity": 0.2125984251968504,
                    "duration": 1.1940300000000015
                },
                {
                    "name": "A#2",
                    "midi": 46,
                    "time": 17.910450000000008,
                    "velocity": 0.2125984251968504,
                    "duration": 1.791045000000004
                },
                {
                    "name": "D#3",
                    "midi": 51,
                    "time": 17.910450000000008,
                    "velocity": 0.2125984251968504,
                    "duration": 0.5907960937500008
                },
                {
                    "name": "D#3",
                    "midi": 51,
                    "time": 18.50746500000001,
                    "velocity": 0.2125984251968504,
                    "duration": 1.1940300000000015
                },
                {
                    "name": "D#3",
                    "midi": 51,
                    "time": 19.701495000000012,
                    "velocity": 0.2125984251968504,
                    "duration": 0.5907960937500008
                },
                {
                    "name": "C3",
                    "midi": 48,
                    "time": 19.701495000000012,
                    "velocity": 0.2125984251968504,
                    "duration": 1.194030000000005
                },
                {
                    "name": "D#3",
                    "midi": 51,
                    "time": 20.298510000000014,
                    "velocity": 0.2204724409448819,
                    "duration": 0.5907960937500008
                },
                {
                    "name": "G2",
                    "midi": 43,
                    "time": 20.895525000000017,
                    "velocity": 0.2283464566929134,
                    "duration": 0.5907960937500008
                },
                {
                    "name": "D#3",
                    "midi": 51,
                    "time": 20.895525000000017,
                    "velocity": 0.2283464566929134,
                    "duration": 0.5907960937500008
                },
                {
                    "name": "G#2",
                    "midi": 44,
                    "time": 21.49254000000002,
                    "velocity": 0.25196850393700787,
                    "duration": 1.1940300000000015
                },
                {
                    "name": "D#3",
                    "midi": 51,
                    "time": 21.49254000000002,
                    "velocity": 0.25196850393700787,
                    "duration": 1.1940300000000015
                },
                {
                    "name": "D#3",
                    "midi": 51,
                    "time": 22.68657000000002,
                    "velocity": 0.2440944881889764,
                    "duration": 0.5907960937500008
                },
                {
                    "name": "G#2",
                    "midi": 44,
                    "time": 23.283585000000024,
                    "velocity": 0.2677165354330709,
                    "duration": 1.791045000000004
                },
                {
                    "name": "D#3",
                    "midi": 51,
                    "time": 23.283585000000024,
                    "velocity": 0.2677165354330709,
                    "duration": 0.5907960937500008
                },
                {
                    "name": "D#3",
                    "midi": 51,
                    "time": 23.880600000000026,
                    "velocity": 0.2755905511811024,
                    "duration": 1.1940300000000015
                },
                {
                    "name": "G2",
                    "midi": 43,
                    "time": 25.074630000000028,
                    "velocity": 0.2440944881889764,
                    "duration": 1.791045000000004
                },
                {
                    "name": "C3",
                    "midi": 48,
                    "time": 25.074630000000028,
                    "velocity": 0.2440944881889764,
                    "duration": 0.5907960937500008
                },
                {
                    "name": "C3",
                    "midi": 48,
                    "time": 25.67164500000003,
                    "velocity": 0.2440944881889764,
                    "duration": 1.1940300000000015
                },
                {
                    "name": "C3",
                    "midi": 48,
                    "time": 26.86567500000003,
                    "velocity": 0.2440944881889764,
                    "duration": 0.5907960937500008
                },
                {
                    "name": "F2",
                    "midi": 41,
                    "time": 26.86567500000003,
                    "velocity": 0.2440944881889764,
                    "duration": 1.194030000000005
                },
                {
                    "name": "C3",
                    "midi": 48,
                    "time": 27.462690000000034,
                    "velocity": 0.2440944881889764,
                    "duration": 0.5907960937500008
                },
                {
                    "name": "D#3",
                    "midi": 51,
                    "time": 28.059705000000037,
                    "velocity": 0.2440944881889764,
                    "duration": 0.597014999999999
                },
                {
                    "name": "D#2",
                    "midi": 39,
                    "time": 28.059705000000037,
                    "velocity": 0.2440944881889764,
                    "duration": 0.597014999999999
                },
                {
                    "name": "G#2",
                    "midi": 44,
                    "time": 28.656720000000035,
                    "velocity": 0.2283464566929134,
                    "duration": 1.1940300000000015
                },
                {
                    "name": "D#3",
                    "midi": 51,
                    "time": 28.656720000000035,
                    "velocity": 0.2283464566929134,
                    "duration": 1.1940300000000015
                },
                {
                    "name": "D#3",
                    "midi": 51,
                    "time": 29.850750000000037,
                    "velocity": 0.2125984251968504,
                    "duration": 0.5907960937500008
                },
                {
                    "name": "G#2",
                    "midi": 44,
                    "time": 30.44776500000004,
                    "velocity": 0.2125984251968504,
                    "duration": 1.791045000000004
                },
                {
                    "name": "D#3",
                    "midi": 51,
                    "time": 30.44776500000004,
                    "velocity": 0.2125984251968504,
                    "duration": 0.5907960937500008
                },
                {
                    "name": "D#3",
                    "midi": 51,
                    "time": 31.044780000000042,
                    "velocity": 0.2125984251968504,
                    "duration": 1.1940300000000015
                },
                {
                    "name": "A#2",
                    "midi": 46,
                    "time": 32.23881000000004,
                    "velocity": 0.2125984251968504,
                    "duration": 1.791044999999997
                },
                {
                    "name": "D#3",
                    "midi": 51,
                    "time": 32.23881000000004,
                    "velocity": 0.2125984251968504,
                    "duration": 0.5907960937500008
                },
                {
                    "name": "D#3",
                    "midi": 51,
                    "time": 32.83582500000004,
                    "velocity": 0.2125984251968504,
                    "duration": 1.194029999999998
                },
                {
                    "name": "D#3",
                    "midi": 51,
                    "time": 34.02985500000004,
                    "velocity": 0.2125984251968504,
                    "duration": 0.5907960937500008
                },
                {
                    "name": "C3",
                    "midi": 48,
                    "time": 34.02985500000004,
                    "velocity": 0.2125984251968504,
                    "duration": 1.1828359687499983
                },
                {
                    "name": "D#3",
                    "midi": 51,
                    "time": 34.62687000000004,
                    "velocity": 0.2125984251968504,
                    "duration": 0.5907960937500008
                },
                {
                    "name": "D#3",
                    "midi": 51,
                    "time": 35.22388500000004,
                    "velocity": 0.2125984251968504,
                    "duration": 0.5907960937500008
                },
                {
                    "name": "G2",
                    "midi": 43,
                    "time": 35.22388500000004,
                    "velocity": 0.2125984251968504,
                    "duration": 0.5907960937500008
                },
                {
                    "name": "G#2",
                    "midi": 44,
                    "time": 35.82090000000004,
                    "velocity": 0.2125984251968504,
                    "duration": 1.194029999999998
                },
                {
                    "name": "D#3",
                    "midi": 51,
                    "time": 35.82090000000004,
                    "velocity": 0.2125984251968504,
                    "duration": 1.194029999999998
                },
                {
                    "name": "D#3",
                    "midi": 51,
                    "time": 37.014930000000035,
                    "velocity": 0.2440944881889764,
                    "duration": 0.5907960937500008
                },
                {
                    "name": "D#3",
                    "midi": 51,
                    "time": 37.611945000000034,
                    "velocity": 0.2440944881889764,
                    "duration": 0.5907960937500008
                },
                {
                    "name": "G#2",
                    "midi": 44,
                    "time": 37.611945000000034,
                    "velocity": 0.2440944881889764,
                    "duration": 1.791044999999997
                },
                {
                    "name": "D#3",
                    "midi": 51,
                    "time": 38.20896000000003,
                    "velocity": 0.2440944881889764,
                    "duration": 1.194029999999998
                },
                {
                    "name": "D#3",
                    "midi": 51,
                    "time": 39.40299000000003,
                    "velocity": 0.2440944881889764,
                    "duration": 0.5907960937500008
                },
                {
                    "name": "C#3",
                    "midi": 49,
                    "time": 39.40299000000003,
                    "velocity": 0.2440944881889764,
                    "duration": 1.791044999999997
                },
                {
                    "name": "D#3",
                    "midi": 51,
                    "time": 40.00000500000003,
                    "velocity": 0.2440944881889764,
                    "duration": 1.194029999999998
                },
                {
                    "name": "C3",
                    "midi": 48,
                    "time": 41.19403500000003,
                    "velocity": 0.2440944881889764,
                    "duration": 1.194029999999998
                },
                {
                    "name": "D#3",
                    "midi": 51,
                    "time": 41.19403500000003,
                    "velocity": 0.2440944881889764,
                    "duration": 0.5907960937500008
                },
                {
                    "name": "D#3",
                    "midi": 51,
                    "time": 41.79105000000003,
                    "velocity": 0.2440944881889764,
                    "duration": 0.5907960937500008
                },
                {
                    "name": "G2",
                    "midi": 43,
                    "time": 42.388065000000026,
                    "velocity": 0.2440944881889764,
                    "duration": 0.597014999999999
                },
                {
                    "name": "D#3",
                    "midi": 51,
                    "time": 42.388065000000026,
                    "velocity": 0.2440944881889764,
                    "duration": 0.597014999999999
                },
                {
                    "name": "G#2",
                    "midi": 44,
                    "time": 42.985080000000025,
                    "velocity": 0.2283464566929134,
                    "duration": 1.194029999999998
                },
                {
                    "name": "D#3",
                    "midi": 51,
                    "time": 42.985080000000025,
                    "velocity": 0.2283464566929134,
                    "duration": 1.194029999999998
                },
                {
                    "name": "D#3",
                    "midi": 51,
                    "time": 44.17911000000002,
                    "velocity": 0.2125984251968504,
                    "duration": 0.5907960937500008
                },
                {
                    "name": "D#3",
                    "midi": 51,
                    "time": 44.77612500000002,
                    "velocity": 0.2125984251968504,
                    "duration": 0.5907960937500008
                },
                {
                    "name": "G#2",
                    "midi": 44,
                    "time": 44.77612500000002,
                    "velocity": 0.2125984251968504,
                    "duration": 1.791044999999997
                },
                {
                    "name": "D#3",
                    "midi": 51,
                    "time": 45.37314000000002,
                    "velocity": 0.2125984251968504,
                    "duration": 1.194029999999998
                },
                {
                    "name": "D#3",
                    "midi": 51,
                    "time": 46.56717000000002,
                    "velocity": 0.2125984251968504,
                    "duration": 0.5907960937500008
                },
                {
                    "name": "A#2",
                    "midi": 46,
                    "time": 46.56717000000002,
                    "velocity": 0.2125984251968504,
                    "duration": 1.791044999999997
                },
                {
                    "name": "D#3",
                    "midi": 51,
                    "time": 47.16418500000002,
                    "velocity": 0.2125984251968504,
                    "duration": 1.194029999999998
                },
                {
                    "name": "D#3",
                    "midi": 51,
                    "time": 48.358215000000015,
                    "velocity": 0.2125984251968504,
                    "duration": 0.5907960937500008
                },
                {
                    "name": "C3",
                    "midi": 48,
                    "time": 48.358215000000015,
                    "velocity": 0.2125984251968504,
                    "duration": 1.194029999999998
                },
                {
                    "name": "D#3",
                    "midi": 51,
                    "time": 48.955230000000014,
                    "velocity": 0.2204724409448819,
                    "duration": 0.5907960937500008
                },
                {
                    "name": "G2",
                    "midi": 43,
                    "time": 49.55224500000001,
                    "velocity": 0.2283464566929134,
                    "duration": 0.5907960937500008
                },
                {
                    "name": "D#3",
                    "midi": 51,
                    "time": 49.55224500000001,
                    "velocity": 0.2283464566929134,
                    "duration": 0.5907960937500008
                },
                {
                    "name": "D#3",
                    "midi": 51,
                    "time": 50.14926000000001,
                    "velocity": 0.25196850393700787,
                    "duration": 1.194029999999998
                },
                {
                    "name": "G#2",
                    "midi": 44,
                    "time": 50.14926000000001,
                    "velocity": 0.25196850393700787,
                    "duration": 1.194029999999998
                },
                {
                    "name": "D#3",
                    "midi": 51,
                    "time": 51.34329000000001,
                    "velocity": 0.2440944881889764,
                    "duration": 0.5907960937500008
                },
                {
                    "name": "D#3",
                    "midi": 51,
                    "time": 51.94030500000001,
                    "velocity": 0.2677165354330709,
                    "duration": 0.5907960937500008
                },
                {
                    "name": "G#2",
                    "midi": 44,
                    "time": 51.94030500000001,
                    "velocity": 0.2677165354330709,
                    "duration": 1.791044999999997
                },
                {
                    "name": "D#3",
                    "midi": 51,
                    "time": 52.53732000000001,
                    "velocity": 0.2755905511811024,
                    "duration": 1.194029999999998
                },
                {
                    "name": "G2",
                    "midi": 43,
                    "time": 53.731350000000006,
                    "velocity": 0.2440944881889764,
                    "duration": 1.791044999999997
                },
                {
                    "name": "C3",
                    "midi": 48,
                    "time": 53.731350000000006,
                    "velocity": 0.2440944881889764,
                    "duration": 0.5907960937500008
                },
                {
                    "name": "C3",
                    "midi": 48,
                    "time": 54.328365000000005,
                    "velocity": 0.2440944881889764,
                    "duration": 1.194029999999998
                },
                {
                    "name": "F2",
                    "midi": 41,
                    "time": 55.522395,
                    "velocity": 0.2440944881889764,
                    "duration": 1.194029999999998
                },
                {
                    "name": "C3",
                    "midi": 48,
                    "time": 55.522395,
                    "velocity": 0.2440944881889764,
                    "duration": 0.597014999999999
                },
                {
                    "name": "C3",
                    "midi": 48,
                    "time": 56.11941,
                    "velocity": 0.2440944881889764,
                    "duration": 0.597014999999999
                },
                {
                    "name": "D#3",
                    "midi": 51,
                    "time": 56.716425,
                    "velocity": 0.2440944881889764,
                    "duration": 0.597014999999999
                },
                {
                    "name": "D#2",
                    "midi": 39,
                    "time": 56.716425,
                    "velocity": 0.2440944881889764,
                    "duration": 0.597014999999999
                },
                {
                    "name": "G#2",
                    "midi": 44,
                    "time": 57.31344,
                    "velocity": 0.2204724409448819,
                    "duration": 1.194029999999998
                },
                {
                    "name": "D#3",
                    "midi": 51,
                    "time": 57.31344,
                    "velocity": 0.2204724409448819,
                    "duration": 1.194029999999998
                },
                {
                    "name": "G#3",
                    "midi": 56,
                    "time": 58.8059775,
                    "velocity": 0.4251968503937008,
                    "duration": 0.2960199374999988
                },
                {
                    "name": "C4",
                    "midi": 60,
                    "time": 58.8059775,
                    "velocity": 0.5039370078740157,
                    "duration": 0.2960199374999988
                },
                {
                    "name": "C3",
                    "midi": 48,
                    "time": 58.8059775,
                    "velocity": 0.4251968503937008,
                    "duration": 0.2960199374999988
                },
                {
                    "name": "C4",
                    "midi": 60,
                    "time": 59.104485,
                    "velocity": 0.5748031496062992,
                    "duration": 0.5907960937500008
                },
                {
                    "name": "C3",
                    "midi": 48,
                    "time": 59.104485,
                    "velocity": 0.4881889763779528,
                    "duration": 0.5907960937500008
                },
                {
                    "name": "G#3",
                    "midi": 56,
                    "time": 59.104485,
                    "velocity": 0.4881889763779528,
                    "duration": 0.5907960937500008
                },
                {
                    "name": "G#3",
                    "midi": 56,
                    "time": 59.701499999999996,
                    "velocity": 0.4645669291338583,
                    "duration": 0.8868160312499995
                },
                {
                    "name": "C4",
                    "midi": 60,
                    "time": 59.701499999999996,
                    "velocity": 0.5511811023622047,
                    "duration": 0.8868160312499995
                },
                {
                    "name": "C3",
                    "midi": 48,
                    "time": 59.701499999999996,
                    "velocity": 0.4645669291338583,
                    "duration": 0.8868160312499995
                },
                {
                    "name": "G#3",
                    "midi": 56,
                    "time": 60.597022499999994,
                    "velocity": 0.5039370078740157,
                    "duration": 0.2960199374999988
                },
                {
                    "name": "D#3",
                    "midi": 51,
                    "time": 60.597022499999994,
                    "velocity": 0.4251968503937008,
                    "duration": 0.2960199374999988
                },
                {
                    "name": "G#2",
                    "midi": 44,
                    "time": 60.597022499999994,
                    "velocity": 0.4251968503937008,
                    "duration": 0.2960199374999988
                },
                {
                    "name": "G#2",
                    "midi": 44,
                    "time": 60.895529999999994,
                    "velocity": 0.48031496062992124,
                    "duration": 0.5907960937500008
                },
                {
                    "name": "D#3",
                    "midi": 51,
                    "time": 60.895529999999994,
                    "velocity": 0.48031496062992124,
                    "duration": 0.5907960937500008
                },
                {
                    "name": "G#3",
                    "midi": 56,
                    "time": 60.895529999999994,
                    "velocity": 0.5669291338582677,
                    "duration": 0.5907960937500008
                },
                {
                    "name": "G#3",
                    "midi": 56,
                    "time": 61.49254499999999,
                    "velocity": 0.5511811023622047,
                    "duration": 0.8868160312499995
                },
                {
                    "name": "D#3",
                    "midi": 51,
                    "time": 61.49254499999999,
                    "velocity": 0.4645669291338583,
                    "duration": 0.8868160312499995
                },
                {
                    "name": "G#2",
                    "midi": 44,
                    "time": 61.49254499999999,
                    "velocity": 0.4645669291338583,
                    "duration": 0.8868160312499995
                },
                {
                    "name": "F2",
                    "midi": 41,
                    "time": 62.38806749999999,
                    "velocity": 0.4251968503937008,
                    "duration": 0.2985074999999995
                },
                {
                    "name": "F3",
                    "midi": 53,
                    "time": 62.38806749999999,
                    "velocity": 0.5039370078740157,
                    "duration": 0.2985074999999995
                },
                {
                    "name": "F2",
                    "midi": 41,
                    "time": 62.68657499999999,
                    "velocity": 0.4251968503937008,
                    "duration": 0.4477612499999992
                },
                {
                    "name": "F3",
                    "midi": 53,
                    "time": 62.68657499999999,
                    "velocity": 0.5039370078740157,
                    "duration": 0.4477612499999992
                },
                {
                    "name": "G3",
                    "midi": 55,
                    "time": 63.28358999999999,
                    "velocity": 0.5039370078740157,
                    "duration": 0.4477612499999992
                },
                {
                    "name": "G2",
                    "midi": 43,
                    "time": 63.28358999999999,
                    "velocity": 0.4251968503937008,
                    "duration": 0.4477612499999992
                },
                {
                    "name": "D#2",
                    "midi": 39,
                    "time": 63.88060499999999,
                    "velocity": 0.4251968503937008,
                    "duration": 0.4477612499999992
                },
                {
                    "name": "D#3",
                    "midi": 51,
                    "time": 63.88060499999999,
                    "velocity": 0.5039370078740157,
                    "duration": 0.4477612499999992
                },
                {
                    "name": "G#3",
                    "midi": 56,
                    "time": 64.47761999999999,
                    "velocity": 0.5039370078740157,
                    "duration": 1.4925374999999974
                },
                {
                    "name": "G#2",
                    "midi": 44,
                    "time": 64.47761999999999,
                    "velocity": 0.4251968503937008,
                    "duration": 1.4925374999999974
                },
                {
                    "name": "D#3",
                    "midi": 51,
                    "time": 64.47761999999999,
                    "velocity": 0.4251968503937008,
                    "duration": 1.4925374999999974
                },
                {
                    "name": "G#2",
                    "midi": 44,
                    "time": 65.97015749999998,
                    "velocity": 0.5354330708661418,
                    "duration": 0.2960199375000059
                },
                {
                    "name": "C#2",
                    "midi": 37,
                    "time": 65.97015749999998,
                    "velocity": 0.5354330708661418,
                    "duration": 0.2960199375000059
                },
                {
                    "name": "C#3",
                    "midi": 49,
                    "time": 65.97015749999998,
                    "velocity": 0.6299212598425197,
                    "duration": 0.2960199375000059
                },
                {
                    "name": "G#2",
                    "midi": 44,
                    "time": 66.26866499999998,
                    "velocity": 0.5354330708661418,
                    "duration": 0.5907960937500008
                },
                {
                    "name": "C#2",
                    "midi": 37,
                    "time": 66.26866499999998,
                    "velocity": 0.5354330708661418,
                    "duration": 0.5907960937500008
                },
                {
                    "name": "C#3",
                    "midi": 49,
                    "time": 66.26866499999998,
                    "velocity": 0.6299212598425197,
                    "duration": 0.5907960937500008
                },
                {
                    "name": "C#2",
                    "midi": 37,
                    "time": 66.86567999999998,
                    "velocity": 0.5354330708661418,
                    "duration": 0.8868160312500066
                },
                {
                    "name": "G#2",
                    "midi": 44,
                    "time": 66.86567999999998,
                    "velocity": 0.5354330708661418,
                    "duration": 0.8868160312500066
                },
                {
                    "name": "C#3",
                    "midi": 49,
                    "time": 66.86567999999998,
                    "velocity": 0.6299212598425197,
                    "duration": 0.8868160312500066
                },
                {
                    "name": "C#2",
                    "midi": 37,
                    "time": 67.7612025,
                    "velocity": 0.5354330708661418,
                    "duration": 0.2960199375000059
                },
                {
                    "name": "C#3",
                    "midi": 49,
                    "time": 67.7612025,
                    "velocity": 0.6299212598425197,
                    "duration": 0.2960199375000059
                },
                {
                    "name": "G#2",
                    "midi": 44,
                    "time": 67.7612025,
                    "velocity": 0.5354330708661418,
                    "duration": 0.2960199375000059
                },
                {
                    "name": "G#2",
                    "midi": 44,
                    "time": 68.05971,
                    "velocity": 0.5354330708661418,
                    "duration": 0.5907960937500008
                },
                {
                    "name": "C#2",
                    "midi": 37,
                    "time": 68.05971,
                    "velocity": 0.5354330708661418,
                    "duration": 0.5907960937500008
                },
                {
                    "name": "C#3",
                    "midi": 49,
                    "time": 68.05971,
                    "velocity": 0.6299212598425197,
                    "duration": 0.5907960937500008
                },
                {
                    "name": "C#3",
                    "midi": 49,
                    "time": 68.656725,
                    "velocity": 0.6299212598425197,
                    "duration": 0.8868160312500066
                },
                {
                    "name": "G#2",
                    "midi": 44,
                    "time": 68.656725,
                    "velocity": 0.5354330708661418,
                    "duration": 0.8868160312500066
                },
                {
                    "name": "C#2",
                    "midi": 37,
                    "time": 68.656725,
                    "velocity": 0.5354330708661418,
                    "duration": 0.8868160312500066
                },
                {
                    "name": "C#3",
                    "midi": 49,
                    "time": 69.55224750000001,
                    "velocity": 0.6299212598425197,
                    "duration": 0.2960199375000059
                },
                {
                    "name": "C#2",
                    "midi": 37,
                    "time": 69.55224750000001,
                    "velocity": 0.5354330708661418,
                    "duration": 0.2960199375000059
                },
                {
                    "name": "C#2",
                    "midi": 37,
                    "time": 69.850755,
                    "velocity": 0.5354330708661418,
                    "duration": 0.4477612499999992
                },
                {
                    "name": "C#3",
                    "midi": 49,
                    "time": 69.850755,
                    "velocity": 0.6299212598425197,
                    "duration": 0.4477612499999992
                },
                {
                    "name": "A2",
                    "midi": 45,
                    "time": 70.44777,
                    "velocity": 0.6299212598425197,
                    "duration": 0.4477612499999992
                },
                {
                    "name": "A1",
                    "midi": 33,
                    "time": 70.44777,
                    "velocity": 0.5354330708661418,
                    "duration": 0.4477612499999992
                },
                {
                    "name": "F#1",
                    "midi": 30,
                    "time": 71.044785,
                    "velocity": 0.5354330708661418,
                    "duration": 0.4477612499999992
                },
                {
                    "name": "F#2",
                    "midi": 42,
                    "time": 71.044785,
                    "velocity": 0.6299212598425197,
                    "duration": 0.4477612499999992
                },
                {
                    "name": "C#2",
                    "midi": 37,
                    "time": 71.6418,
                    "velocity": 0.5354330708661418,
                    "duration": 1.4925374999999974
                },
                {
                    "name": "C#3",
                    "midi": 49,
                    "time": 71.6418,
                    "velocity": 0.6299212598425197,
                    "duration": 1.4925374999999974
                },
                {
                    "name": "A2",
                    "midi": 45,
                    "time": 73.1343375,
                    "velocity": 0.6299212598425197,
                    "duration": 0.2960199375000059
                },
                {
                    "name": "A1",
                    "midi": 33,
                    "time": 73.1343375,
                    "velocity": 0.5354330708661418,
                    "duration": 0.2960199375000059
                },
                {
                    "name": "A2",
                    "midi": 45,
                    "time": 73.432845,
                    "velocity": 0.6299212598425197,
                    "duration": 3.2835824999999943
                },
                {
                    "name": "A1",
                    "midi": 33,
                    "time": 73.432845,
                    "velocity": 0.5354330708661418,
                    "duration": 3.2835824999999943
                },
                {
                    "name": "E3",
                    "midi": 52,
                    "time": 76.7164275,
                    "velocity": 0.4251968503937008,
                    "duration": 0.14925374999999974
                },
                {
                    "name": "E2",
                    "midi": 40,
                    "time": 76.7164275,
                    "velocity": 0.3543307086614173,
                    "duration": 0.14925374999999974
                },
                {
                    "name": "E3",
                    "midi": 52,
                    "time": 77.014935,
                    "velocity": 0.4251968503937008,
                    "duration": 3.582089999999994
                },
                {
                    "name": "E2",
                    "midi": 40,
                    "time": 77.014935,
                    "velocity": 0.3543307086614173,
                    "duration": 3.582089999999994
                },
                {
                    "name": "D#3",
                    "midi": 51,
                    "time": 80.59702499999999,
                    "velocity": 0.2125984251968504,
                    "duration": 0.5907960937500008
                },
                {
                    "name": "D#2",
                    "midi": 39,
                    "time": 80.59702499999999,
                    "velocity": 0.2125984251968504,
                    "duration": 1.791044999999997
                },
                {
                    "name": "D#3",
                    "midi": 51,
                    "time": 81.19403999999999,
                    "velocity": 0.2125984251968504,
                    "duration": 1.194029999999998
                },
                {
                    "name": "D#2",
                    "midi": 39,
                    "time": 82.38806999999998,
                    "velocity": 0.2125984251968504,
                    "duration": 1.194029999999998
                },
                {
                    "name": "D#3",
                    "midi": 51,
                    "time": 82.38806999999998,
                    "velocity": 0.2125984251968504,
                    "duration": 0.5907960937500008
                },
                {
                    "name": "D#3",
                    "midi": 51,
                    "time": 82.98508499999998,
                    "velocity": 0.2125984251968504,
                    "duration": 0.5907960937500008
                },
                {
                    "name": "D#3",
                    "midi": 51,
                    "time": 83.58209999999998,
                    "velocity": 0.2125984251968504,
                    "duration": 0.5907960937500008
                },
                {
                    "name": "D#3",
                    "midi": 51,
                    "time": 84.17911499999998,
                    "velocity": 0.2125984251968504,
                    "duration": 0.5907960937500008
                },
                {
                    "name": "G#2",
                    "midi": 44,
                    "time": 84.17911499999998,
                    "velocity": 0.2125984251968504,
                    "duration": 1.791044999999997
                },
                {
                    "name": "D#3",
                    "midi": 51,
                    "time": 84.77612999999998,
                    "velocity": 0.2125984251968504,
                    "duration": 1.194029999999998
                },
                {
                    "name": "A#2",
                    "midi": 46,
                    "time": 85.97015999999998,
                    "velocity": 0.2125984251968504,
                    "duration": 1.791044999999997
                },
                {
                    "name": "D#3",
                    "midi": 51,
                    "time": 85.97015999999998,
                    "velocity": 0.2125984251968504,
                    "duration": 0.5907960937500008
                },
                {
                    "name": "D#3",
                    "midi": 51,
                    "time": 86.56717499999998,
                    "velocity": 0.2125984251968504,
                    "duration": 1.194029999999998
                },
                {
                    "name": "D#3",
                    "midi": 51,
                    "time": 87.76120499999998,
                    "velocity": 0.2125984251968504,
                    "duration": 0.5907960937500008
                },
                {
                    "name": "C3",
                    "midi": 48,
                    "time": 87.76120499999998,
                    "velocity": 0.2125984251968504,
                    "duration": 1.194029999999998
                },
                {
                    "name": "D#3",
                    "midi": 51,
                    "time": 88.35821999999997,
                    "velocity": 0.2125984251968504,
                    "duration": 0.5907960937500008
                },
                {
                    "name": "D#3",
                    "midi": 51,
                    "time": 88.95523499999997,
                    "velocity": 0.2125984251968504,
                    "duration": 0.5907960937500008
                },
                {
                    "name": "G2",
                    "midi": 43,
                    "time": 88.95523499999997,
                    "velocity": 0.2125984251968504,
                    "duration": 0.5907960937500008
                },
                {
                    "name": "D#3",
                    "midi": 51,
                    "time": 89.55224999999997,
                    "velocity": 0.2125984251968504,
                    "duration": 1.194029999999998
                },
                {
                    "name": "G#2",
                    "midi": 44,
                    "time": 89.55224999999997,
                    "velocity": 0.2125984251968504,
                    "duration": 1.194029999999998
                },
                {
                    "name": "D#3",
                    "midi": 51,
                    "time": 90.74627999999997,
                    "velocity": 0.2283464566929134,
                    "duration": 0.5907960937500008
                },
                {
                    "name": "D#3",
                    "midi": 51,
                    "time": 91.34329499999997,
                    "velocity": 0.28346456692913385,
                    "duration": 0.5907960937500008
                },
                {
                    "name": "F#2",
                    "midi": 42,
                    "time": 91.34329499999997,
                    "velocity": 0.28346456692913385,
                    "duration": 1.791044999999997
                },
                {
                    "name": "D#3",
                    "midi": 51,
                    "time": 91.94030999999997,
                    "velocity": 0.29133858267716534,
                    "duration": 1.194029999999998
                },
                {
                    "name": "F2",
                    "midi": 41,
                    "time": 93.13433999999997,
                    "velocity": 0.29133858267716534,
                    "duration": 1.4925374999999974
                },
                {
                    "name": "D#3",
                    "midi": 51,
                    "time": 93.13433999999997,
                    "velocity": 0.29133858267716534,
                    "duration": 0.5907960937500008
                },
                {
                    "name": "D#3",
                    "midi": 51,
                    "time": 93.73135499999997,
                    "velocity": 0.2755905511811024,
                    "duration": 0.8955224999999984
                },
                {
                    "name": "E2",
                    "midi": 40,
                    "time": 94.62687749999996,
                    "velocity": 0.2755905511811024,
                    "duration": 0.2960199375000059
                },
                {
                    "name": "C#3",
                    "midi": 49,
                    "time": 94.62687749999996,
                    "velocity": 0.2755905511811024,
                    "duration": 0.2960199375000059
                },
                {
                    "name": "E2",
                    "midi": 40,
                    "time": 94.92538499999996,
                    "velocity": 0.2755905511811024,
                    "duration": 0.597014999999999
                },
                {
                    "name": "C#3",
                    "midi": 49,
                    "time": 94.92538499999996,
                    "velocity": 0.2755905511811024,
                    "duration": 0.597014999999999
                },
                {
                    "name": "D#3",
                    "midi": 51,
                    "time": 95.52239999999996,
                    "velocity": 0.2283464566929134,
                    "duration": 0.597014999999999
                },
                {
                    "name": "D#2",
                    "midi": 39,
                    "time": 95.52239999999996,
                    "velocity": 0.2204724409448819,
                    "duration": 0.597014999999999
                },
                {
                    "name": "D#3",
                    "midi": 51,
                    "time": 96.11941499999996,
                    "velocity": 0.23622047244094488,
                    "duration": 0.5373134999999962
                },
                {
                    "name": "C#3",
                    "midi": 49,
                    "time": 96.11941499999996,
                    "velocity": 0.23622047244094488,
                    "duration": 0.5373134999999962
                },
                {
                    "name": "D#2",
                    "midi": 39,
                    "time": 96.11941499999996,
                    "velocity": 0.23622047244094488,
                    "duration": 0.5373134999999962
                },
                {
                    "name": "C3",
                    "midi": 48,
                    "time": 96.71642999999996,
                    "velocity": 0.2204724409448819,
                    "duration": 1.194029999999998
                },
                {
                    "name": "D#3",
                    "midi": 51,
                    "time": 96.71642999999996,
                    "velocity": 0.2204724409448819,
                    "duration": 1.194029999999998
                },
                {
                    "name": "G#2",
                    "midi": 44,
                    "time": 96.71642999999996,
                    "velocity": 0.2204724409448819,
                    "duration": 1.194029999999998
                },
                {
                    "name": "D#3",
                    "midi": 51,
                    "time": 97.91045999999996,
                    "velocity": 0.2125984251968504,
                    "duration": 0.5907960937500008
                },
                {
                    "name": "D#3",
                    "midi": 51,
                    "time": 98.50747499999996,
                    "velocity": 0.2125984251968504,
                    "duration": 0.5907960937500008
                },
                {
                    "name": "G#2",
                    "midi": 44,
                    "time": 98.50747499999996,
                    "velocity": 0.2125984251968504,
                    "duration": 1.791044999999997
                },
                {
                    "name": "D#3",
                    "midi": 51,
                    "time": 99.10448999999996,
                    "velocity": 0.2125984251968504,
                    "duration": 1.194029999999998
                },
                {
                    "name": "D#3",
                    "midi": 51,
                    "time": 100.29851999999995,
                    "velocity": 0.2125984251968504,
                    "duration": 0.5907960937500008
                },
                {
                    "name": "A#2",
                    "midi": 46,
                    "time": 100.29851999999995,
                    "velocity": 0.2125984251968504,
                    "duration": 1.791044999999997
                },
                {
                    "name": "D#3",
                    "midi": 51,
                    "time": 100.89553499999995,
                    "velocity": 0.2125984251968504,
                    "duration": 1.194029999999998
                },
                {
                    "name": "D#3",
                    "midi": 51,
                    "time": 102.08956499999995,
                    "velocity": 0.2125984251968504,
                    "duration": 0.5907960937500008
                },
                {
                    "name": "C3",
                    "midi": 48,
                    "time": 102.08956499999995,
                    "velocity": 0.2125984251968504,
                    "duration": 1.194029999999998
                },
                {
                    "name": "D#3",
                    "midi": 51,
                    "time": 102.68657999999995,
                    "velocity": 0.2204724409448819,
                    "duration": 0.5907960937500008
                },
                {
                    "name": "G2",
                    "midi": 43,
                    "time": 103.28359499999995,
                    "velocity": 0.2283464566929134,
                    "duration": 0.5907960937500008
                },
                {
                    "name": "D#3",
                    "midi": 51,
                    "time": 103.28359499999995,
                    "velocity": 0.2283464566929134,
                    "duration": 0.5907960937500008
                },
                {
                    "name": "G#2",
                    "midi": 44,
                    "time": 103.88060999999995,
                    "velocity": 0.25196850393700787,
                    "duration": 1.194029999999998
                },
                {
                    "name": "D#3",
                    "midi": 51,
                    "time": 103.88060999999995,
                    "velocity": 0.25196850393700787,
                    "duration": 1.194029999999998
                },
                {
                    "name": "D#3",
                    "midi": 51,
                    "time": 105.07463999999995,
                    "velocity": 0.29133858267716534,
                    "duration": 0.5907960937500008
                },
                {
                    "name": "D#3",
                    "midi": 51,
                    "time": 105.67165499999994,
                    "velocity": 0.28346456692913385,
                    "duration": 0.5907960937500008
                },
                {
                    "name": "F#2",
                    "midi": 42,
                    "time": 105.67165499999994,
                    "velocity": 0.28346456692913385,
                    "duration": 1.791044999999997
                },
                {
                    "name": "D#3",
                    "midi": 51,
                    "time": 106.26866999999994,
                    "velocity": 0.29133858267716534,
                    "duration": 1.194029999999998
                },
                {
                    "name": "F2",
                    "midi": 41,
                    "time": 107.46269999999994,
                    "velocity": 0.29133858267716534,
                    "duration": 1.4925375000000116
                },
                {
                    "name": "D#3",
                    "midi": 51,
                    "time": 107.46269999999994,
                    "velocity": 0.29133858267716534,
                    "duration": 0.5907960937500008
                },
                {
                    "name": "D#3",
                    "midi": 51,
                    "time": 108.05971499999994,
                    "velocity": 0.2755905511811024,
                    "duration": 0.8868160312500066
                },
                {
                    "name": "C#3",
                    "midi": 49,
                    "time": 108.95523749999995,
                    "velocity": 0.2755905511811024,
                    "duration": 0.2960199375000059
                },
                {
                    "name": "E2",
                    "midi": 40,
                    "time": 108.95523749999995,
                    "velocity": 0.2755905511811024,
                    "duration": 0.2960199375000059
                },
                {
                    "name": "C#3",
                    "midi": 49,
                    "time": 109.25374499999995,
                    "velocity": 0.2755905511811024,
                    "duration": 0.5907960937500008
                },
                {
                    "name": "E2",
                    "midi": 40,
                    "time": 109.25374499999995,
                    "velocity": 0.2755905511811024,
                    "duration": 0.5907960937500008
                },
                {
                    "name": "D#3",
                    "midi": 51,
                    "time": 109.85075999999995,
                    "velocity": 0.2283464566929134,
                    "duration": 0.5907960937500008
                },
                {
                    "name": "D#2",
                    "midi": 39,
                    "time": 109.85075999999995,
                    "velocity": 0.2204724409448819,
                    "duration": 0.5907960937500008
                },
                {
                    "name": "D#3",
                    "midi": 51,
                    "time": 110.44777499999995,
                    "velocity": 0.23622047244094488,
                    "duration": 0.5373134999999962
                },
                {
                    "name": "C#3",
                    "midi": 49,
                    "time": 110.44777499999995,
                    "velocity": 0.23622047244094488,
                    "duration": 0.5373134999999962
                },
                {
                    "name": "D#2",
                    "midi": 39,
                    "time": 110.44777499999995,
                    "velocity": 0.23622047244094488,
                    "duration": 0.5373134999999962
                },
                {
                    "name": "C3",
                    "midi": 48,
                    "time": 111.04478999999995,
                    "velocity": 0.2204724409448819,
                    "duration": 1.194029999999998
                },
                {
                    "name": "D#3",
                    "midi": 51,
                    "time": 111.04478999999995,
                    "velocity": 0.2204724409448819,
                    "duration": 1.194029999999998
                },
                {
                    "name": "G#2",
                    "midi": 44,
                    "time": 111.04478999999995,
                    "velocity": 0.2204724409448819,
                    "duration": 1.194029999999998
                },
                {
                    "name": "G#3",
                    "midi": 56,
                    "time": 112.53732749999995,
                    "velocity": 0.4251968503937008,
                    "duration": 0.2960199375000059
                },
                {
                    "name": "C4",
                    "midi": 60,
                    "time": 112.53732749999995,
                    "velocity": 0.5039370078740157,
                    "duration": 0.2960199375000059
                },
                {
                    "name": "C3",
                    "midi": 48,
                    "time": 112.53732749999995,
                    "velocity": 0.4251968503937008,
                    "duration": 0.2960199375000059
                },
                {
                    "name": "G#3",
                    "midi": 56,
                    "time": 112.83583499999995,
                    "velocity": 0.4881889763779528,
                    "duration": 0.5907960937500008
                },
                {
                    "name": "C3",
                    "midi": 48,
                    "time": 112.83583499999995,
                    "velocity": 0.4881889763779528,
                    "duration": 0.5907960937500008
                },
                {
                    "name": "C4",
                    "midi": 60,
                    "time": 112.83583499999995,
                    "velocity": 0.5748031496062992,
                    "duration": 0.5907960937500008
                },
                {
                    "name": "C3",
                    "midi": 48,
                    "time": 113.43284999999995,
                    "velocity": 0.4645669291338583,
                    "duration": 0.8868160312500066
                },
                {
                    "name": "G#3",
                    "midi": 56,
                    "time": 113.43284999999995,
                    "velocity": 0.4645669291338583,
                    "duration": 0.8868160312500066
                },
                {
                    "name": "C4",
                    "midi": 60,
                    "time": 113.43284999999995,
                    "velocity": 0.5511811023622047,
                    "duration": 0.8868160312500066
                },
                {
                    "name": "D#3",
                    "midi": 51,
                    "time": 114.32837249999996,
                    "velocity": 0.4251968503937008,
                    "duration": 0.2960199375000059
                },
                {
                    "name": "G#2",
                    "midi": 44,
                    "time": 114.32837249999996,
                    "velocity": 0.4251968503937008,
                    "duration": 0.2960199375000059
                },
                {
                    "name": "G#3",
                    "midi": 56,
                    "time": 114.32837249999996,
                    "velocity": 0.5039370078740157,
                    "duration": 0.2960199375000059
                },
                {
                    "name": "D#3",
                    "midi": 51,
                    "time": 114.62687999999996,
                    "velocity": 0.48031496062992124,
                    "duration": 0.5907960937500008
                },
                {
                    "name": "G#3",
                    "midi": 56,
                    "time": 114.62687999999996,
                    "velocity": 0.5669291338582677,
                    "duration": 0.5907960937500008
                },
                {
                    "name": "G#2",
                    "midi": 44,
                    "time": 114.62687999999996,
                    "velocity": 0.48031496062992124,
                    "duration": 0.5907960937500008
                },
                {
                    "name": "D#3",
                    "midi": 51,
                    "time": 115.22389499999996,
                    "velocity": 0.4645669291338583,
                    "duration": 0.8868160312500066
                },
                {
                    "name": "G#3",
                    "midi": 56,
                    "time": 115.22389499999996,
                    "velocity": 0.5511811023622047,
                    "duration": 0.8868160312500066
                },
                {
                    "name": "G#2",
                    "midi": 44,
                    "time": 115.22389499999996,
                    "velocity": 0.4645669291338583,
                    "duration": 0.8868160312500066
                },
                {
                    "name": "F2",
                    "midi": 41,
                    "time": 116.11941749999997,
                    "velocity": 0.4251968503937008,
                    "duration": 0.2960199375000059
                },
                {
                    "name": "F3",
                    "midi": 53,
                    "time": 116.11941749999997,
                    "velocity": 0.5039370078740157,
                    "duration": 0.2960199375000059
                },
                {
                    "name": "F2",
                    "midi": 41,
                    "time": 116.41792499999997,
                    "velocity": 0.4251968503937008,
                    "duration": 0.4477612499999992
                },
                {
                    "name": "F3",
                    "midi": 53,
                    "time": 116.41792499999997,
                    "velocity": 0.5039370078740157,
                    "duration": 0.4477612499999992
                },
                {
                    "name": "G3",
                    "midi": 55,
                    "time": 117.01493999999997,
                    "velocity": 0.5039370078740157,
                    "duration": 0.4477612499999992
                },
                {
                    "name": "G2",
                    "midi": 43,
                    "time": 117.01493999999997,
                    "velocity": 0.4251968503937008,
                    "duration": 0.4477612499999992
                },
                {
                    "name": "D#2",
                    "midi": 39,
                    "time": 117.61195499999997,
                    "velocity": 0.4251968503937008,
                    "duration": 0.4477612499999992
                },
                {
                    "name": "D#3",
                    "midi": 51,
                    "time": 117.61195499999997,
                    "velocity": 0.5039370078740157,
                    "duration": 0.4477612499999992
                },
                {
                    "name": "D#3",
                    "midi": 51,
                    "time": 118.20896999999997,
                    "velocity": 0.4251968503937008,
                    "duration": 1.4925374999999974
                },
                {
                    "name": "G#3",
                    "midi": 56,
                    "time": 118.20896999999997,
                    "velocity": 0.5039370078740157,
                    "duration": 1.4925374999999974
                },
                {
                    "name": "G#2",
                    "midi": 44,
                    "time": 118.20896999999997,
                    "velocity": 0.4251968503937008,
                    "duration": 1.4925374999999974
                },
                {
                    "name": "C#2",
                    "midi": 37,
                    "time": 119.70150749999996,
                    "velocity": 0.5354330708661418,
                    "duration": 0.2960199375000059
                },
                {
                    "name": "G#2",
                    "midi": 44,
                    "time": 119.70150749999996,
                    "velocity": 0.5354330708661418,
                    "duration": 0.2960199375000059
                },
                {
                    "name": "C#3",
                    "midi": 49,
                    "time": 119.70150749999996,
                    "velocity": 0.6299212598425197,
                    "duration": 0.2960199375000059
                },
                {
                    "name": "C#2",
                    "midi": 37,
                    "time": 120.00001499999996,
                    "velocity": 0.5354330708661418,
                    "duration": 0.5907960937500008
                },
                {
                    "name": "C#3",
                    "midi": 49,
                    "time": 120.00001499999996,
                    "velocity": 0.6299212598425197,
                    "duration": 0.5907960937500008
                },
                {
                    "name": "G#2",
                    "midi": 44,
                    "time": 120.00001499999996,
                    "velocity": 0.5354330708661418,
                    "duration": 0.5907960937500008
                },
                {
                    "name": "C#3",
                    "midi": 49,
                    "time": 120.59702999999996,
                    "velocity": 0.6299212598425197,
                    "duration": 0.8868160312500066
                },
                {
                    "name": "C#2",
                    "midi": 37,
                    "time": 120.59702999999996,
                    "velocity": 0.5354330708661418,
                    "duration": 0.8868160312500066
                },
                {
                    "name": "G#2",
                    "midi": 44,
                    "time": 120.59702999999996,
                    "velocity": 0.5354330708661418,
                    "duration": 0.8868160312500066
                },
                {
                    "name": "G#2",
                    "midi": 44,
                    "time": 121.49255249999997,
                    "velocity": 0.5354330708661418,
                    "duration": 0.2960199375000059
                },
                {
                    "name": "C#3",
                    "midi": 49,
                    "time": 121.49255249999997,
                    "velocity": 0.6299212598425197,
                    "duration": 0.2960199375000059
                },
                {
                    "name": "C#2",
                    "midi": 37,
                    "time": 121.49255249999997,
                    "velocity": 0.5354330708661418,
                    "duration": 0.2960199375000059
                },
                {
                    "name": "G#2",
                    "midi": 44,
                    "time": 121.79105999999997,
                    "velocity": 0.5354330708661418,
                    "duration": 0.5907960937500008
                },
                {
                    "name": "C#3",
                    "midi": 49,
                    "time": 121.79105999999997,
                    "velocity": 0.6299212598425197,
                    "duration": 0.5907960937500008
                },
                {
                    "name": "C#2",
                    "midi": 37,
                    "time": 121.79105999999997,
                    "velocity": 0.5354330708661418,
                    "duration": 0.5907960937500008
                },
                {
                    "name": "G#2",
                    "midi": 44,
                    "time": 122.38807499999997,
                    "velocity": 0.5354330708661418,
                    "duration": 0.8868160312500066
                },
                {
                    "name": "C#3",
                    "midi": 49,
                    "time": 122.38807499999997,
                    "velocity": 0.6299212598425197,
                    "duration": 0.8868160312500066
                },
                {
                    "name": "C#2",
                    "midi": 37,
                    "time": 122.38807499999997,
                    "velocity": 0.5354330708661418,
                    "duration": 0.8868160312500066
                },
                {
                    "name": "C#2",
                    "midi": 37,
                    "time": 123.28359749999998,
                    "velocity": 0.5354330708661418,
                    "duration": 0.2960199375000059
                },
                {
                    "name": "C#3",
                    "midi": 49,
                    "time": 123.28359749999998,
                    "velocity": 0.6299212598425197,
                    "duration": 0.2960199375000059
                },
                {
                    "name": "C#3",
                    "midi": 49,
                    "time": 123.58210499999998,
                    "velocity": 0.6299212598425197,
                    "duration": 0.4477612499999992
                },
                {
                    "name": "C#2",
                    "midi": 37,
                    "time": 123.58210499999998,
                    "velocity": 0.5354330708661418,
                    "duration": 0.4477612499999992
                },
                {
                    "name": "A2",
                    "midi": 45,
                    "time": 124.17911999999998,
                    "velocity": 0.6299212598425197,
                    "duration": 0.4477612499999992
                },
                {
                    "name": "A1",
                    "midi": 33,
                    "time": 124.17911999999998,
                    "velocity": 0.5354330708661418,
                    "duration": 0.4477612499999992
                },
                {
                    "name": "F#2",
                    "midi": 42,
                    "time": 124.77613499999998,
                    "velocity": 0.6299212598425197,
                    "duration": 0.4477612499999992
                },
                {
                    "name": "F#1",
                    "midi": 30,
                    "time": 124.77613499999998,
                    "velocity": 0.5354330708661418,
                    "duration": 0.4477612499999992
                },
                {
                    "name": "C#2",
                    "midi": 37,
                    "time": 125.37314999999998,
                    "velocity": 0.5354330708661418,
                    "duration": 1.4925374999999974
                },
                {
                    "name": "C#3",
                    "midi": 49,
                    "time": 125.37314999999998,
                    "velocity": 0.6299212598425197,
                    "duration": 1.4925374999999974
                },
                {
                    "name": "A1",
                    "midi": 33,
                    "time": 126.86568749999998,
                    "velocity": 0.5354330708661418,
                    "duration": 0.2960199375000059
                },
                {
                    "name": "A2",
                    "midi": 45,
                    "time": 126.86568749999998,
                    "velocity": 0.6299212598425197,
                    "duration": 0.2960199375000059
                },
                {
                    "name": "A2",
                    "midi": 45,
                    "time": 127.16419499999998,
                    "velocity": 0.6299212598425197,
                    "duration": 3.2835824999999943
                },
                {
                    "name": "A1",
                    "midi": 33,
                    "time": 127.16419499999998,
                    "velocity": 0.5354330708661418,
                    "duration": 3.2835824999999943
                },
                {
                    "name": "E3",
                    "midi": 52,
                    "time": 130.44777749999997,
                    "velocity": 0.4251968503937008,
                    "duration": 0.14925375000001395
                },
                {
                    "name": "E2",
                    "midi": 40,
                    "time": 130.44777749999997,
                    "velocity": 0.3543307086614173,
                    "duration": 0.14925375000001395
                },
                {
                    "name": "E2",
                    "midi": 40,
                    "time": 130.746285,
                    "velocity": 0.3543307086614173,
                    "duration": 3.582089999999994
                },
                {
                    "name": "E3",
                    "midi": 52,
                    "time": 130.746285,
                    "velocity": 0.4251968503937008,
                    "duration": 3.582089999999994
                },
                {
                    "name": "D#3",
                    "midi": 51,
                    "time": 134.328375,
                    "velocity": 0.2125984251968504,
                    "duration": 0.5907960937499865
                },
                {
                    "name": "D#2",
                    "midi": 39,
                    "time": 134.328375,
                    "velocity": 0.2125984251968504,
                    "duration": 1.791044999999997
                },
                {
                    "name": "D#3",
                    "midi": 51,
                    "time": 134.92539,
                    "velocity": 0.2125984251968504,
                    "duration": 1.194029999999998
                },
                {
                    "name": "D#3",
                    "midi": 51,
                    "time": 136.11942,
                    "velocity": 0.2125984251968504,
                    "duration": 0.5907960937499865
                },
                {
                    "name": "D#2",
                    "midi": 39,
                    "time": 136.11942,
                    "velocity": 0.2125984251968504,
                    "duration": 1.194029999999998
                },
                {
                    "name": "D#3",
                    "midi": 51,
                    "time": 136.716435,
                    "velocity": 0.2125984251968504,
                    "duration": 0.5907960937499865
                },
                {
                    "name": "D#3",
                    "midi": 51,
                    "time": 137.31345,
                    "velocity": 0.2125984251968504,
                    "duration": 0.5907960937499865
                },
                {
                    "name": "G#2",
                    "midi": 44,
                    "time": 137.910465,
                    "velocity": 0.2125984251968504,
                    "duration": 1.791044999999997
                },
                {
                    "name": "D#3",
                    "midi": 51,
                    "time": 137.910465,
                    "velocity": 0.2125984251968504,
                    "duration": 0.5907960937499865
                },
                {
                    "name": "D#3",
                    "midi": 51,
                    "time": 138.50748,
                    "velocity": 0.2125984251968504,
                    "duration": 1.194029999999998
                },
                {
                    "name": "D#3",
                    "midi": 51,
                    "time": 139.70150999999998,
                    "velocity": 0.2125984251968504,
                    "duration": 0.5907960937499865
                },
                {
                    "name": "A#2",
                    "midi": 46,
                    "time": 139.70150999999998,
                    "velocity": 0.2125984251968504,
                    "duration": 1.791044999999997
                },
                {
                    "name": "D#3",
                    "midi": 51,
                    "time": 140.29852499999998,
                    "velocity": 0.2125984251968504,
                    "duration": 1.194029999999998
                },
                {
                    "name": "D#3",
                    "midi": 51,
                    "time": 141.49255499999998,
                    "velocity": 0.2125984251968504,
                    "duration": 0.5907960937499865
                },
                {
                    "name": "C3",
                    "midi": 48,
                    "time": 141.49255499999998,
                    "velocity": 0.2125984251968504,
                    "duration": 1.1828359687499983
                },
                {
                    "name": "D#3",
                    "midi": 51,
                    "time": 142.08956999999998,
                    "velocity": 0.2125984251968504,
                    "duration": 0.5907960937499865
                },
                {
                    "name": "D#3",
                    "midi": 51,
                    "time": 142.68658499999998,
                    "velocity": 0.2125984251968504,
                    "duration": 0.5907960937499865
                },
                {
                    "name": "G2",
                    "midi": 43,
                    "time": 142.68658499999998,
                    "velocity": 0.2125984251968504,
                    "duration": 0.5907960937499865
                },
                {
                    "name": "D#3",
                    "midi": 51,
                    "time": 143.28359999999998,
                    "velocity": 0.2125984251968504,
                    "duration": 1.194029999999998
                },
                {
                    "name": "G#2",
                    "midi": 44,
                    "time": 143.28359999999998,
                    "velocity": 0.2125984251968504,
                    "duration": 1.194029999999998
                },
                {
                    "name": "D#3",
                    "midi": 51,
                    "time": 144.47762999999998,
                    "velocity": 0.2283464566929134,
                    "duration": 0.5907960937499865
                },
                {
                    "name": "D#3",
                    "midi": 51,
                    "time": 145.07464499999998,
                    "velocity": 0.28346456692913385,
                    "duration": 0.5907960937499865
                },
                {
                    "name": "F#2",
                    "midi": 42,
                    "time": 145.07464499999998,
                    "velocity": 0.28346456692913385,
                    "duration": 1.791044999999997
                },
                {
                    "name": "D#3",
                    "midi": 51,
                    "time": 145.67165999999997,
                    "velocity": 0.29133858267716534,
                    "duration": 1.194029999999998
                },
                {
                    "name": "D#3",
                    "midi": 51,
                    "time": 146.86568999999997,
                    "velocity": 0.29133858267716534,
                    "duration": 0.5907960937499865
                },
                {
                    "name": "F2",
                    "midi": 41,
                    "time": 146.86568999999997,
                    "velocity": 0.29133858267716534,
                    "duration": 1.4925374999999974
                },
                {
                    "name": "D#3",
                    "midi": 51,
                    "time": 147.46270499999997,
                    "velocity": 0.2755905511811024,
                    "duration": 0.8955224999999984
                },
                {
                    "name": "E2",
                    "midi": 40,
                    "time": 148.35822749999997,
                    "velocity": 0.2755905511811024,
                    "duration": 0.2960199375000059
                },
                {
                    "name": "C#3",
                    "midi": 49,
                    "time": 148.35822749999997,
                    "velocity": 0.2755905511811024,
                    "duration": 0.2960199375000059
                },
                {
                    "name": "C#3",
                    "midi": 49,
                    "time": 148.65673499999997,
                    "velocity": 0.2755905511811024,
                    "duration": 0.5907960937499865
                },
                {
                    "name": "E2",
                    "midi": 40,
                    "time": 148.65673499999997,
                    "velocity": 0.2755905511811024,
                    "duration": 0.5907960937499865
                },
                {
                    "name": "D#2",
                    "midi": 39,
                    "time": 149.25374999999997,
                    "velocity": 0.2204724409448819,
                    "duration": 0.5907960937499865
                },
                {
                    "name": "D#3",
                    "midi": 51,
                    "time": 149.25374999999997,
                    "velocity": 0.2283464566929134,
                    "duration": 0.5907960937499865
                },
                {
                    "name": "D#2",
                    "midi": 39,
                    "time": 149.85076499999997,
                    "velocity": 0.23622047244094488,
                    "duration": 0.5373135000000104
                },
                {
                    "name": "C#3",
                    "midi": 49,
                    "time": 149.85076499999997,
                    "velocity": 0.23622047244094488,
                    "duration": 0.5373135000000104
                },
                {
                    "name": "D#3",
                    "midi": 51,
                    "time": 149.85076499999997,
                    "velocity": 0.23622047244094488,
                    "duration": 0.5373135000000104
                },
                {
                    "name": "D#3",
                    "midi": 51,
                    "time": 150.44777999999997,
                    "velocity": 0.2204724409448819,
                    "duration": 1.194029999999998
                },
                {
                    "name": "C3",
                    "midi": 48,
                    "time": 150.44777999999997,
                    "velocity": 0.2204724409448819,
                    "duration": 1.194029999999998
                },
                {
                    "name": "G#2",
                    "midi": 44,
                    "time": 150.44777999999997,
                    "velocity": 0.2204724409448819,
                    "duration": 1.194029999999998
                },
                {
                    "name": "D#3",
                    "midi": 51,
                    "time": 151.64180999999996,
                    "velocity": 0.2125984251968504,
                    "duration": 0.5907960937499865
                },
                {
                    "name": "G#2",
                    "midi": 44,
                    "time": 152.23882499999996,
                    "velocity": 0.2125984251968504,
                    "duration": 1.791044999999997
                },
                {
                    "name": "D#3",
                    "midi": 51,
                    "time": 152.23882499999996,
                    "velocity": 0.2125984251968504,
                    "duration": 0.5907960937499865
                },
                {
                    "name": "D#3",
                    "midi": 51,
                    "time": 152.83583999999996,
                    "velocity": 0.2125984251968504,
                    "duration": 1.194029999999998
                },
                {
                    "name": "A#2",
                    "midi": 46,
                    "time": 154.02986999999996,
                    "velocity": 0.2125984251968504,
                    "duration": 1.791044999999997
                },
                {
                    "name": "D#3",
                    "midi": 51,
                    "time": 154.02986999999996,
                    "velocity": 0.2125984251968504,
                    "duration": 0.5907960937499865
                },
                {
                    "name": "D#3",
                    "midi": 51,
                    "time": 154.62688499999996,
                    "velocity": 0.2125984251968504,
                    "duration": 1.194029999999998
                },
                {
                    "name": "C3",
                    "midi": 48,
                    "time": 155.82091499999996,
                    "velocity": 0.2125984251968504,
                    "duration": 1.194029999999998
                },
                {
                    "name": "D#3",
                    "midi": 51,
                    "time": 155.82091499999996,
                    "velocity": 0.2125984251968504,
                    "duration": 0.5907960937499865
                },
                {
                    "name": "D#3",
                    "midi": 51,
                    "time": 156.41792999999996,
                    "velocity": 0.2204724409448819,
                    "duration": 0.5907960937499865
                },
                {
                    "name": "G2",
                    "midi": 43,
                    "time": 157.01494499999995,
                    "velocity": 0.2283464566929134,
                    "duration": 0.5907960937499865
                },
                {
                    "name": "D#3",
                    "midi": 51,
                    "time": 157.01494499999995,
                    "velocity": 0.2283464566929134,
                    "duration": 0.5907960937499865
                },
                {
                    "name": "G#2",
                    "midi": 44,
                    "time": 157.61195999999995,
                    "velocity": 0.25196850393700787,
                    "duration": 1.194029999999998
                },
                {
                    "name": "D#3",
                    "midi": 51,
                    "time": 157.61195999999995,
                    "velocity": 0.25196850393700787,
                    "duration": 1.194029999999998
                },
                {
                    "name": "D#3",
                    "midi": 51,
                    "time": 158.80598999999995,
                    "velocity": 0.29133858267716534,
                    "duration": 0.5907960937499865
                },
                {
                    "name": "D#3",
                    "midi": 51,
                    "time": 159.40300499999995,
                    "velocity": 0.28346456692913385,
                    "duration": 0.5907960937499865
                },
                {
                    "name": "F#2",
                    "midi": 42,
                    "time": 159.40300499999995,
                    "velocity": 0.28346456692913385,
                    "duration": 1.791044999999997
                },
                {
                    "name": "D#3",
                    "midi": 51,
                    "time": 160.00001999999995,
                    "velocity": 0.29133858267716534,
                    "duration": 1.194029999999998
                },
                {
                    "name": "F2",
                    "midi": 41,
                    "time": 161.19404999999995,
                    "velocity": 0.29133858267716534,
                    "duration": 1.4925374999999974
                },
                {
                    "name": "D#3",
                    "midi": 51,
                    "time": 161.19404999999995,
                    "velocity": 0.29133858267716534,
                    "duration": 0.5907960937499865
                },
                {
                    "name": "D#3",
                    "midi": 51,
                    "time": 161.79106499999995,
                    "velocity": 0.2755905511811024,
                    "duration": 0.8955224999999984
                },
                {
                    "name": "E2",
                    "midi": 40,
                    "time": 162.68658749999994,
                    "velocity": 0.28346456692913385,
                    "duration": 0.2960199375000059
                },
                {
                    "name": "C#3",
                    "midi": 49,
                    "time": 162.68658749999994,
                    "velocity": 0.28346456692913385,
                    "duration": 0.2960199375000059
                },
                {
                    "name": "C#3",
                    "midi": 49,
                    "time": 162.98509499999994,
                    "velocity": 0.2755905511811024,
                    "duration": 0.597014999999999
                },
                {
                    "name": "E2",
                    "midi": 40,
                    "time": 162.98509499999994,
                    "velocity": 0.2755905511811024,
                    "duration": 0.597014999999999
                },
                {
                    "name": "D#3",
                    "midi": 51,
                    "time": 163.58210999999994,
                    "velocity": 0.2283464566929134,
                    "duration": 0.597014999999999
                },
                {
                    "name": "D#2",
                    "midi": 39,
                    "time": 163.58210999999994,
                    "velocity": 0.2204724409448819,
                    "duration": 0.597014999999999
                },
                {
                    "name": "D#3",
                    "midi": 51,
                    "time": 164.17912499999994,
                    "velocity": 0.23622047244094488,
                    "duration": 0.5373135000000104
                },
                {
                    "name": "C#3",
                    "midi": 49,
                    "time": 164.17912499999994,
                    "velocity": 0.23622047244094488,
                    "duration": 0.5373135000000104
                },
                {
                    "name": "D#2",
                    "midi": 39,
                    "time": 164.17912499999994,
                    "velocity": 0.23622047244094488,
                    "duration": 0.5373135000000104
                },
                {
                    "name": "C3",
                    "midi": 48,
                    "time": 164.77613999999994,
                    "velocity": 0.2283464566929134,
                    "duration": 1.194029999999998
                },
                {
                    "name": "D#3",
                    "midi": 51,
                    "time": 164.77613999999994,
                    "velocity": 0.2283464566929134,
                    "duration": 1.194029999999998
                },
                {
                    "name": "G#2",
                    "midi": 44,
                    "time": 164.77613999999994,
                    "velocity": 0.2283464566929134,
                    "duration": 1.194029999999998
                },
                {
                    "name": "G#2",
                    "midi": 44,
                    "time": 165.97016999999994,
                    "velocity": 0.4015748031496063,
                    "duration": 0.597014999999999
                },
                {
                    "name": "C#2",
                    "midi": 37,
                    "time": 166.56718499999994,
                    "velocity": 0.4015748031496063,
                    "duration": 1.791044999999997
                },
                {
                    "name": "G#2",
                    "midi": 44,
                    "time": 167.16419999999994,
                    "velocity": 0.47244094488188976,
                    "duration": 1.791044999999997
                },
                {
                    "name": "F2",
                    "midi": 41,
                    "time": 168.35822999999993,
                    "velocity": 0.4015748031496063,
                    "duration": 1.791044999999997
                },
                {
                    "name": "G#2",
                    "midi": 44,
                    "time": 168.95524499999993,
                    "velocity": 0.48031496062992124,
                    "duration": 1.791044999999997
                },
                {
                    "name": "C2",
                    "midi": 36,
                    "time": 170.14927499999993,
                    "velocity": 0.4094488188976378,
                    "duration": 1.791044999999997
                },
                {
                    "name": "G#2",
                    "midi": 44,
                    "time": 170.74628999999993,
                    "velocity": 0.4645669291338583,
                    "duration": 1.791044999999997
                },
                {
                    "name": "G#1",
                    "midi": 32,
                    "time": 171.94031999999993,
                    "velocity": 0.4094488188976378,
                    "duration": 1.791044999999997
                },
                {
                    "name": "G#2",
                    "midi": 44,
                    "time": 172.53733499999993,
                    "velocity": 0.4645669291338583,
                    "duration": 1.791044999999997
                },
                {
                    "name": "C#2",
                    "midi": 37,
                    "time": 173.73136499999993,
                    "velocity": 0.4015748031496063,
                    "duration": 1.791044999999997
                },
                {
                    "name": "G#2",
                    "midi": 44,
                    "time": 174.32837999999992,
                    "velocity": 0.47244094488188976,
                    "duration": 1.791044999999997
                },
                {
                    "name": "F2",
                    "midi": 41,
                    "time": 175.52240999999992,
                    "velocity": 0.4015748031496063,
                    "duration": 1.791044999999997
                },
                {
                    "name": "G#2",
                    "midi": 44,
                    "time": 176.11942499999992,
                    "velocity": 0.48031496062992124,
                    "duration": 1.791044999999997
                },
                {
                    "name": "C2",
                    "midi": 36,
                    "time": 177.31345499999992,
                    "velocity": 0.4094488188976378,
                    "duration": 1.791044999999997
                },
                {
                    "name": "G#2",
                    "midi": 44,
                    "time": 177.91046999999992,
                    "velocity": 0.4645669291338583,
                    "duration": 1.791044999999997
                },
                {
                    "name": "G#1",
                    "midi": 32,
                    "time": 179.10449999999992,
                    "velocity": 0.4094488188976378,
                    "duration": 1.791044999999997
                },
                {
                    "name": "G#2",
                    "midi": 44,
                    "time": 179.70151499999992,
                    "velocity": 0.4645669291338583,
                    "duration": 1.194029999999998
                },
                {
                    "name": "A#1",
                    "midi": 34,
                    "time": 180.8955449999999,
                    "velocity": 0.4015748031496063,
                    "duration": 1.791044999999997
                },
                {
                    "name": "A#2",
                    "midi": 46,
                    "time": 181.4925599999999,
                    "velocity": 0.3858267716535433,
                    "duration": 1.194029999999998
                },
                {
                    "name": "D#2",
                    "midi": 39,
                    "time": 182.6865899999999,
                    "velocity": 0.3464566929133858,
                    "duration": 1.194029999999998
                },
                {
                    "name": "D#3",
                    "midi": 51,
                    "time": 183.2836049999999,
                    "velocity": 0.3228346456692913,
                    "duration": 0.597014999999999
                },
                {
                    "name": "F#3",
                    "midi": 54,
                    "time": 183.8806199999999,
                    "velocity": 0.30708661417322836,
                    "duration": 0.597014999999999
                },
                {
                    "name": "F#2",
                    "midi": 42,
                    "time": 183.8806199999999,
                    "velocity": 0.30708661417322836,
                    "duration": 0.597014999999999
                },
                {
                    "name": "G#2",
                    "midi": 44,
                    "time": 184.4776349999999,
                    "velocity": 0.28346456692913385,
                    "duration": 1.791044999999997
                },
                {
                    "name": "G#3",
                    "midi": 56,
                    "time": 185.0746499999999,
                    "velocity": 0.2677165354330709,
                    "duration": 2.388059999999996
                },
                {
                    "name": "C#3",
                    "midi": 49,
                    "time": 186.2686799999999,
                    "velocity": 0.2677165354330709,
                    "duration": 1.194029999999998
                },
                {
                    "name": "C#2",
                    "midi": 37,
                    "time": 188.0597249999999,
                    "velocity": 0.4015748031496063,
                    "duration": 1.791044999999997
                },
                {
                    "name": "G#2",
                    "midi": 44,
                    "time": 188.6567399999999,
                    "velocity": 0.47244094488188976,
                    "duration": 1.791044999999997
                },
                {
                    "name": "F2",
                    "midi": 41,
                    "time": 189.8507699999999,
                    "velocity": 0.4015748031496063,
                    "duration": 1.791044999999997
                },
                {
                    "name": "G#2",
                    "midi": 44,
                    "time": 190.4477849999999,
                    "velocity": 0.48031496062992124,
                    "duration": 1.791044999999997
                },
                {
                    "name": "C2",
                    "midi": 36,
                    "time": 191.6418149999999,
                    "velocity": 0.4094488188976378,
                    "duration": 1.791044999999997
                },
                {
                    "name": "G#2",
                    "midi": 44,
                    "time": 192.2388299999999,
                    "velocity": 0.4645669291338583,
                    "duration": 1.791044999999997
                },
                {
                    "name": "G#1",
                    "midi": 32,
                    "time": 193.4328599999999,
                    "velocity": 0.4094488188976378,
                    "duration": 1.791044999999997
                },
                {
                    "name": "G#2",
                    "midi": 44,
                    "time": 194.0298749999999,
                    "velocity": 0.4645669291338583,
                    "duration": 1.791044999999997
                },
                {
                    "name": "C#2",
                    "midi": 37,
                    "time": 195.2239049999999,
                    "velocity": 0.4015748031496063,
                    "duration": 1.791044999999997
                },
                {
                    "name": "G#2",
                    "midi": 44,
                    "time": 195.8209199999999,
                    "velocity": 0.47244094488188976,
                    "duration": 1.791044999999997
                },
                {
                    "name": "F2",
                    "midi": 41,
                    "time": 197.01494999999989,
                    "velocity": 0.4015748031496063,
                    "duration": 1.791044999999997
                },
                {
                    "name": "G#2",
                    "midi": 44,
                    "time": 197.61196499999988,
                    "velocity": 0.48031496062992124,
                    "duration": 1.791044999999997
                },
                {
                    "name": "C2",
                    "midi": 36,
                    "time": 198.80599499999988,
                    "velocity": 0.4094488188976378,
                    "duration": 1.791044999999997
                },
                {
                    "name": "G#2",
                    "midi": 44,
                    "time": 199.40300999999988,
                    "velocity": 0.4645669291338583,
                    "duration": 1.791044999999997
                },
                {
                    "name": "G#1",
                    "midi": 32,
                    "time": 200.59703999999988,
                    "velocity": 0.4094488188976378,
                    "duration": 1.791044999999997
                },
                {
                    "name": "G#2",
                    "midi": 44,
                    "time": 201.19405499999988,
                    "velocity": 0.4645669291338583,
                    "duration": 1.194029999999998
                },
                {
                    "name": "A#1",
                    "midi": 34,
                    "time": 202.38808499999988,
                    "velocity": 0.4015748031496063,
                    "duration": 1.791044999999997
                },
                {
                    "name": "A#2",
                    "midi": 46,
                    "time": 202.98509999999987,
                    "velocity": 0.3858267716535433,
                    "duration": 1.194029999999998
                },
                {
                    "name": "D#2",
                    "midi": 39,
                    "time": 204.17912999999987,
                    "velocity": 0.3464566929133858,
                    "duration": 1.194029999999998
                },
                {
                    "name": "D#3",
                    "midi": 51,
                    "time": 204.77614499999987,
                    "velocity": 0.3228346456692913,
                    "duration": 0.597014999999999
                },
                {
                    "name": "F#2",
                    "midi": 42,
                    "time": 205.37315999999987,
                    "velocity": 0.30708661417322836,
                    "duration": 0.597014999999999
                },
                {
                    "name": "F#3",
                    "midi": 54,
                    "time": 205.37315999999987,
                    "velocity": 0.30708661417322836,
                    "duration": 0.597014999999999
                },
                {
                    "name": "G#2",
                    "midi": 44,
                    "time": 205.97017499999987,
                    "velocity": 0.28346456692913385,
                    "duration": 1.791044999999997
                },
                {
                    "name": "G#3",
                    "midi": 56,
                    "time": 206.56718999999987,
                    "velocity": 0.2677165354330709,
                    "duration": 2.388059999999996
                },
                {
                    "name": "C#3",
                    "midi": 49,
                    "time": 207.76121999999987,
                    "velocity": 0.2677165354330709,
                    "duration": 1.194029999999998
                },
                {
                    "name": "C#2",
                    "midi": 37,
                    "time": 209.55226499999986,
                    "velocity": 0.5748031496062992,
                    "duration": 1.791044999999997
                },
                {
                    "name": "G#2",
                    "midi": 44,
                    "time": 210.14927999999986,
                    "velocity": 0.6692913385826772,
                    "duration": 1.791044999999997
                },
                {
                    "name": "E2",
                    "midi": 40,
                    "time": 211.34330999999986,
                    "velocity": 0.5748031496062992,
                    "duration": 1.791044999999997
                },
                {
                    "name": "G#2",
                    "midi": 44,
                    "time": 211.94032499999986,
                    "velocity": 0.6771653543307087,
                    "duration": 1.791044999999997
                },
                {
                    "name": "C2",
                    "midi": 36,
                    "time": 213.13435499999986,
                    "velocity": 0.5826771653543307,
                    "duration": 1.791044999999997
                },
                {
                    "name": "G#2",
                    "midi": 44,
                    "time": 213.73136999999986,
                    "velocity": 0.6614173228346457,
                    "duration": 1.791044999999997
                },
                {
                    "name": "G#1",
                    "midi": 32,
                    "time": 214.92539999999985,
                    "velocity": 0.5826771653543307,
                    "duration": 1.791044999999997
                },
                {
                    "name": "G#2",
                    "midi": 44,
                    "time": 215.52241499999985,
                    "velocity": 0.6614173228346457,
                    "duration": 1.791044999999997
                },
                {
                    "name": "C#2",
                    "midi": 37,
                    "time": 216.71644499999985,
                    "velocity": 0.5748031496062992,
                    "duration": 1.791044999999997
                },
                {
                    "name": "G#2",
                    "midi": 44,
                    "time": 217.31345999999985,
                    "velocity": 0.6692913385826772,
                    "duration": 1.791044999999997
                },
                {
                    "name": "E2",
                    "midi": 40,
                    "time": 218.50748999999985,
                    "velocity": 0.5748031496062992,
                    "duration": 1.791044999999997
                },
                {
                    "name": "G#2",
                    "midi": 44,
                    "time": 219.10450499999985,
                    "velocity": 0.6771653543307087,
                    "duration": 1.791044999999997
                },
                {
                    "name": "G#1",
                    "midi": 32,
                    "time": 220.29853499999984,
                    "velocity": 0.5826771653543307,
                    "duration": 1.791044999999997
                },
                {
                    "name": "G#2",
                    "midi": 44,
                    "time": 220.89554999999984,
                    "velocity": 0.6614173228346457,
                    "duration": 1.791044999999997
                },
                {
                    "name": "C#2",
                    "midi": 37,
                    "time": 222.08957999999984,
                    "velocity": 0.5748031496062992,
                    "duration": 1.791044999999997
                },
                {
                    "name": "G#2",
                    "midi": 44,
                    "time": 222.68659499999984,
                    "velocity": 0.6850393700787402,
                    "duration": 1.194029999999998
                },
                {
                    "name": "F#1",
                    "midi": 30,
                    "time": 223.88062499999984,
                    "velocity": 0.6850393700787402,
                    "duration": 1.791044999999997
                },
                {
                    "name": "F#2",
                    "midi": 42,
                    "time": 224.47763999999984,
                    "velocity": 0.7244094488188977,
                    "duration": 1.194029999999998
                },
                {
                    "name": "E2",
                    "midi": 40,
                    "time": 225.67166999999984,
                    "velocity": 0.7401574803149606,
                    "duration": 1.791044999999997
                },
                {
                    "name": "E3",
                    "midi": 52,
                    "time": 226.26868499999983,
                    "velocity": 0.7795275590551181,
                    "duration": 1.194029999999998
                },
                {
                    "name": "A2",
                    "midi": 45,
                    "time": 227.46271499999983,
                    "velocity": 0.8031496062992126,
                    "duration": 0.2985074999999995
                },
                {
                    "name": "E2",
                    "midi": 40,
                    "time": 227.46271499999983,
                    "velocity": 0.6771653543307087,
                    "duration": 0.2985074999999995
                },
                {
                    "name": "A1",
                    "midi": 33,
                    "time": 227.46271499999983,
                    "velocity": 0.6771653543307087,
                    "duration": 0.2985074999999995
                },
                {
                    "name": "A1",
                    "midi": 33,
                    "time": 228.05972999999983,
                    "velocity": 0.7086614173228346,
                    "duration": 1.194029999999998
                },
                {
                    "name": "E2",
                    "midi": 40,
                    "time": 228.05972999999983,
                    "velocity": 0.7086614173228346,
                    "duration": 1.194029999999998
                },
                {
                    "name": "A2",
                    "midi": 45,
                    "time": 228.05972999999983,
                    "velocity": 0.84251968503937,
                    "duration": 1.194029999999998
                },
                {
                    "name": "A2",
                    "midi": 45,
                    "time": 229.25375999999983,
                    "velocity": 0.8031496062992126,
                    "duration": 0.2985074999999995
                },
                {
                    "name": "A1",
                    "midi": 33,
                    "time": 229.25375999999983,
                    "velocity": 0.6771653543307087,
                    "duration": 0.2985074999999995
                },
                {
                    "name": "E2",
                    "midi": 40,
                    "time": 229.25375999999983,
                    "velocity": 0.6771653543307087,
                    "duration": 0.2985074999999995
                },
                {
                    "name": "A1",
                    "midi": 33,
                    "time": 229.85077499999983,
                    "velocity": 0.7244094488188977,
                    "duration": 1.194029999999998
                },
                {
                    "name": "A2",
                    "midi": 45,
                    "time": 229.85077499999983,
                    "velocity": 0.8582677165354331,
                    "duration": 1.194029999999998
                },
                {
                    "name": "E2",
                    "midi": 40,
                    "time": 229.85077499999983,
                    "velocity": 0.7244094488188977,
                    "duration": 1.194029999999998
                },
                {
                    "name": "A1",
                    "midi": 33,
                    "time": 231.04480499999983,
                    "velocity": 0.6771653543307087,
                    "duration": 0.2985074999999995
                },
                {
                    "name": "A2",
                    "midi": 45,
                    "time": 231.04480499999983,
                    "velocity": 0.8031496062992126,
                    "duration": 0.2985074999999995
                },
                {
                    "name": "E2",
                    "midi": 40,
                    "time": 231.04480499999983,
                    "velocity": 0.6771653543307087,
                    "duration": 0.2985074999999995
                },
                {
                    "name": "E2",
                    "midi": 40,
                    "time": 231.64181999999983,
                    "velocity": 0.7165354330708661,
                    "duration": 1.194029999999998
                },
                {
                    "name": "A2",
                    "midi": 45,
                    "time": 231.64181999999983,
                    "velocity": 0.8503937007874016,
                    "duration": 1.194029999999998
                },
                {
                    "name": "A1",
                    "midi": 33,
                    "time": 231.64181999999983,
                    "velocity": 0.7165354330708661,
                    "duration": 1.194029999999998
                },
                {
                    "name": "A1",
                    "midi": 33,
                    "time": 232.83584999999982,
                    "velocity": 0.6771653543307087,
                    "duration": 0.2985074999999995
                },
                {
                    "name": "A2",
                    "midi": 45,
                    "time": 232.83584999999982,
                    "velocity": 0.8031496062992126,
                    "duration": 0.2985074999999995
                },
                {
                    "name": "E2",
                    "midi": 40,
                    "time": 232.83584999999982,
                    "velocity": 0.6771653543307087,
                    "duration": 0.2985074999999995
                },
                {
                    "name": "E2",
                    "midi": 40,
                    "time": 233.43286499999982,
                    "velocity": 0.7244094488188977,
                    "duration": 1.791044999999997
                },
                {
                    "name": "A2",
                    "midi": 45,
                    "time": 233.43286499999982,
                    "velocity": 0.8582677165354331,
                    "duration": 1.791044999999997
                },
                {
                    "name": "A1",
                    "midi": 33,
                    "time": 233.43286499999982,
                    "velocity": 0.7244094488188977,
                    "duration": 1.791044999999997
                },
                {
                    "name": "A2",
                    "midi": 45,
                    "time": 235.22390999999982,
                    "velocity": 0.6614173228346457,
                    "duration": 0.597014999999999
                },
                {
                    "name": "E2",
                    "midi": 40,
                    "time": 235.22390999999982,
                    "velocity": 0.5590551181102362,
                    "duration": 0.597014999999999
                },
                {
                    "name": "A1",
                    "midi": 33,
                    "time": 235.22390999999982,
                    "velocity": 0.5590551181102362,
                    "duration": 0.597014999999999
                },
                {
                    "name": "A2",
                    "midi": 45,
                    "time": 235.82092499999982,
                    "velocity": 0.6771653543307087,
                    "duration": 0.597014999999999
                },
                {
                    "name": "A1",
                    "midi": 33,
                    "time": 235.82092499999982,
                    "velocity": 0.5748031496062992,
                    "duration": 0.597014999999999
                },
                {
                    "name": "E2",
                    "midi": 40,
                    "time": 235.82092499999982,
                    "velocity": 0.5748031496062992,
                    "duration": 0.597014999999999
                },
                {
                    "name": "E2",
                    "midi": 40,
                    "time": 236.41793999999982,
                    "velocity": 0.5354330708661418,
                    "duration": 0.597014999999999
                },
                {
                    "name": "A2",
                    "midi": 45,
                    "time": 236.41793999999982,
                    "velocity": 0.6299212598425197,
                    "duration": 0.597014999999999
                },
                {
                    "name": "A1",
                    "midi": 33,
                    "time": 236.41793999999982,
                    "velocity": 0.5354330708661418,
                    "duration": 0.597014999999999
                },
                {
                    "name": "A1",
                    "midi": 33,
                    "time": 237.01495499999982,
                    "velocity": 0.5039370078740157,
                    "duration": 0.597014999999999
                },
                {
                    "name": "E2",
                    "midi": 40,
                    "time": 237.01495499999982,
                    "velocity": 0.5039370078740157,
                    "duration": 0.597014999999999
                },
                {
                    "name": "A2",
                    "midi": 45,
                    "time": 237.01495499999982,
                    "velocity": 0.5984251968503937,
                    "duration": 0.597014999999999
                },
                {
                    "name": "E2",
                    "midi": 40,
                    "time": 237.61196999999981,
                    "velocity": 0.48031496062992124,
                    "duration": 0.597014999999999
                },
                {
                    "name": "A1",
                    "midi": 33,
                    "time": 237.61196999999981,
                    "velocity": 0.48031496062992124,
                    "duration": 0.597014999999999
                },
                {
                    "name": "A2",
                    "midi": 45,
                    "time": 237.61196999999981,
                    "velocity": 0.5669291338582677,
                    "duration": 0.597014999999999
                },
                {
                    "name": "A1",
                    "midi": 33,
                    "time": 238.2089849999998,
                    "velocity": 0.5354330708661418,
                    "duration": 1.791044999999997
                },
                {
                    "name": "F#1",
                    "midi": 30,
                    "time": 240.0000299999998,
                    "velocity": 0.2992125984251969,
                    "duration": 0.09950249999999983
                },
                {
                    "name": "G#1",
                    "midi": 32,
                    "time": 240.0995324999998,
                    "velocity": 0.25984251968503935,
                    "duration": 0.09950249999999983
                },
                {
                    "name": "F#1",
                    "midi": 30,
                    "time": 240.1990349999998,
                    "velocity": 0.2992125984251969,
                    "duration": 0.09950249999999983
                },
                {
                    "name": "G#1",
                    "midi": 32,
                    "time": 240.2972937187498,
                    "velocity": 0.25196850393700787,
                    "duration": 0.09950249999999983
                },
                {
                    "name": "F#1",
                    "midi": 30,
                    "time": 240.3967962187498,
                    "velocity": 0.2992125984251969,
                    "duration": 0.09950249999999983
                },
                {
                    "name": "G#1",
                    "midi": 32,
                    "time": 240.4962987187498,
                    "velocity": 0.25984251968503935,
                    "duration": 0.09950249999999983
                },
                {
                    "name": "F#1",
                    "midi": 30,
                    "time": 240.5958012187498,
                    "velocity": 0.2992125984251969,
                    "duration": 0.09950249999999983
                },
                {
                    "name": "G#1",
                    "midi": 32,
                    "time": 240.69405993749982,
                    "velocity": 0.2677165354330709,
                    "duration": 0.09950249999999983
                },
                {
                    "name": "F#1",
                    "midi": 30,
                    "time": 240.7948062187498,
                    "velocity": 0.2992125984251969,
                    "duration": 0.09950249999999983
                },
                {
                    "name": "G#1",
                    "midi": 32,
                    "time": 240.89306493749982,
                    "velocity": 0.2677165354330709,
                    "duration": 0.09950249999999983
                },
                {
                    "name": "F#1",
                    "midi": 30,
                    "time": 240.99256743749982,
                    "velocity": 0.2992125984251969,
                    "duration": 0.09950249999999983
                },
                {
                    "name": "G#1",
                    "midi": 32,
                    "time": 241.09206993749982,
                    "velocity": 0.2677165354330709,
                    "duration": 0.09950249999999983
                },
                {
                    "name": "F#1",
                    "midi": 30,
                    "time": 241.1940599999998,
                    "velocity": 0.2992125984251969,
                    "duration": 0.11940300000000548
                },
                {
                    "name": "G#1",
                    "midi": 32,
                    "time": 241.3134629999998,
                    "velocity": 0.2677165354330709,
                    "duration": 0.11940300000000548
                },
                {
                    "name": "F#1",
                    "midi": 30,
                    "time": 241.43286599999982,
                    "velocity": 0.2992125984251969,
                    "duration": 0.11940300000000548
                },
                {
                    "name": "F1",
                    "midi": 29,
                    "time": 241.55226899999982,
                    "velocity": 0.2755905511811024,
                    "duration": 0.11940300000000548
                },
                {
                    "name": "F#1",
                    "midi": 30,
                    "time": 241.67167199999983,
                    "velocity": 0.2755905511811024,
                    "duration": 0.11940300000000548
                },
                {
                    "name": "G#1",
                    "midi": 32,
                    "time": 241.79107499999984,
                    "velocity": 0.33858267716535434,
                    "duration": 3.582089999999994
                },
                {
                    "name": "C#2",
                    "midi": 37,
                    "time": 245.37316499999983,
                    "velocity": 0.4015748031496063,
                    "duration": 1.791044999999997
                },
                {
                    "name": "G#2",
                    "midi": 44,
                    "time": 245.97017999999983,
                    "velocity": 0.47244094488188976,
                    "duration": 1.791044999999997
                },
                {
                    "name": "F2",
                    "midi": 41,
                    "time": 247.16420999999983,
                    "velocity": 0.4015748031496063,
                    "duration": 1.791044999999997
                },
                {
                    "name": "G#2",
                    "midi": 44,
                    "time": 247.76122499999983,
                    "velocity": 0.48031496062992124,
                    "duration": 1.791044999999997
                },
                {
                    "name": "C2",
                    "midi": 36,
                    "time": 248.95525499999982,
                    "velocity": 0.4094488188976378,
                    "duration": 1.791044999999997
                },
                {
                    "name": "G#2",
                    "midi": 44,
                    "time": 249.55226999999982,
                    "velocity": 0.4645669291338583,
                    "duration": 1.791044999999997
                },
                {
                    "name": "G#1",
                    "midi": 32,
                    "time": 250.74629999999982,
                    "velocity": 0.4094488188976378,
                    "duration": 1.791044999999997
                },
                {
                    "name": "G#2",
                    "midi": 44,
                    "time": 251.34331499999982,
                    "velocity": 0.4645669291338583,
                    "duration": 1.791044999999997
                },
                {
                    "name": "C#2",
                    "midi": 37,
                    "time": 252.53734499999982,
                    "velocity": 0.4015748031496063,
                    "duration": 1.791044999999997
                },
                {
                    "name": "G#2",
                    "midi": 44,
                    "time": 253.13435999999982,
                    "velocity": 0.47244094488188976,
                    "duration": 1.791044999999997
                },
                {
                    "name": "F2",
                    "midi": 41,
                    "time": 254.3283899999998,
                    "velocity": 0.4015748031496063,
                    "duration": 1.7910450000000253
                },
                {
                    "name": "G#2",
                    "midi": 44,
                    "time": 254.9254049999998,
                    "velocity": 0.48031496062992124,
                    "duration": 1.7910450000000253
                },
                {
                    "name": "C2",
                    "midi": 36,
                    "time": 256.11943499999984,
                    "velocity": 0.4094488188976378,
                    "duration": 1.791044999999997
                },
                {
                    "name": "G#2",
                    "midi": 44,
                    "time": 256.71644999999984,
                    "velocity": 0.4645669291338583,
                    "duration": 1.791044999999997
                },
                {
                    "name": "G#1",
                    "midi": 32,
                    "time": 257.91047999999984,
                    "velocity": 0.4094488188976378,
                    "duration": 1.791044999999997
                },
                {
                    "name": "G#2",
                    "midi": 44,
                    "time": 258.50749499999984,
                    "velocity": 0.4645669291338583,
                    "duration": 1.194029999999998
                },
                {
                    "name": "A#1",
                    "midi": 34,
                    "time": 259.70152499999983,
                    "velocity": 0.4015748031496063,
                    "duration": 1.791044999999997
                },
                {
                    "name": "A#2",
                    "midi": 46,
                    "time": 260.29853999999983,
                    "velocity": 0.3858267716535433,
                    "duration": 1.194029999999998
                },
                {
                    "name": "D#2",
                    "midi": 39,
                    "time": 261.49256999999983,
                    "velocity": 0.3464566929133858,
                    "duration": 1.194029999999998
                },
                {
                    "name": "D#3",
                    "midi": 51,
                    "time": 262.08958499999983,
                    "velocity": 0.3228346456692913,
                    "duration": 0.597014999999999
                },
                {
                    "name": "F#2",
                    "midi": 42,
                    "time": 262.6865999999998,
                    "velocity": 0.30708661417322836,
                    "duration": 0.597014999999999
                },
                {
                    "name": "F#3",
                    "midi": 54,
                    "time": 262.6865999999998,
                    "velocity": 0.30708661417322836,
                    "duration": 0.597014999999999
                },
                {
                    "name": "G#2",
                    "midi": 44,
                    "time": 263.2836149999998,
                    "velocity": 0.28346456692913385,
                    "duration": 1.791044999999997
                },
                {
                    "name": "G#3",
                    "midi": 56,
                    "time": 263.8806299999998,
                    "velocity": 0.2677165354330709,
                    "duration": 2.388059999999996
                },
                {
                    "name": "C#3",
                    "midi": 49,
                    "time": 265.0746599999998,
                    "velocity": 0.2677165354330709,
                    "duration": 1.194029999999998
                },
                {
                    "name": "C#2",
                    "midi": 37,
                    "time": 266.8657049999998,
                    "velocity": 0.5748031496062992,
                    "duration": 1.791044999999997
                },
                {
                    "name": "G#2",
                    "midi": 44,
                    "time": 267.4627199999998,
                    "velocity": 0.6692913385826772,
                    "duration": 1.791044999999997
                },
                {
                    "name": "E2",
                    "midi": 40,
                    "time": 268.6567499999998,
                    "velocity": 0.5748031496062992,
                    "duration": 1.791044999999997
                },
                {
                    "name": "G#2",
                    "midi": 44,
                    "time": 269.2537649999998,
                    "velocity": 0.6771653543307087,
                    "duration": 1.791044999999997
                },
                {
                    "name": "C2",
                    "midi": 36,
                    "time": 270.4477949999998,
                    "velocity": 0.5826771653543307,
                    "duration": 1.791044999999997
                },
                {
                    "name": "G#2",
                    "midi": 44,
                    "time": 271.0448099999998,
                    "velocity": 0.6614173228346457,
                    "duration": 1.791044999999997
                },
                {
                    "name": "G#1",
                    "midi": 32,
                    "time": 272.2388399999998,
                    "velocity": 0.5826771653543307,
                    "duration": 1.791044999999997
                },
                {
                    "name": "G#2",
                    "midi": 44,
                    "time": 272.8358549999998,
                    "velocity": 0.6614173228346457,
                    "duration": 1.791044999999997
                },
                {
                    "name": "C#2",
                    "midi": 37,
                    "time": 274.0298849999998,
                    "velocity": 0.5748031496062992,
                    "duration": 1.791044999999997
                },
                {
                    "name": "G#2",
                    "midi": 44,
                    "time": 274.6268999999998,
                    "velocity": 0.6692913385826772,
                    "duration": 1.791044999999997
                },
                {
                    "name": "E2",
                    "midi": 40,
                    "time": 275.8209299999998,
                    "velocity": 0.5748031496062992,
                    "duration": 1.791044999999997
                },
                {
                    "name": "G#2",
                    "midi": 44,
                    "time": 276.4179449999998,
                    "velocity": 0.6771653543307087,
                    "duration": 1.791044999999997
                },
                {
                    "name": "G#1",
                    "midi": 32,
                    "time": 277.6119749999998,
                    "velocity": 0.5826771653543307,
                    "duration": 1.791044999999997
                },
                {
                    "name": "G#2",
                    "midi": 44,
                    "time": 278.2089899999998,
                    "velocity": 0.6614173228346457,
                    "duration": 1.791044999999997
                },
                {
                    "name": "C#2",
                    "midi": 37,
                    "time": 279.4030199999998,
                    "velocity": 0.5748031496062992,
                    "duration": 1.791044999999997
                },
                {
                    "name": "G#2",
                    "midi": 44,
                    "time": 280.0000349999998,
                    "velocity": 0.6850393700787402,
                    "duration": 1.194029999999998
                },
                {
                    "name": "F#1",
                    "midi": 30,
                    "time": 281.1940649999998,
                    "velocity": 0.6850393700787402,
                    "duration": 1.791044999999997
                },
                {
                    "name": "F#2",
                    "midi": 42,
                    "time": 281.7910799999998,
                    "velocity": 0.7244094488188977,
                    "duration": 1.194029999999998
                },
                {
                    "name": "E2",
                    "midi": 40,
                    "time": 282.9851099999998,
                    "velocity": 0.7401574803149606,
                    "duration": 1.791044999999997
                },
                {
                    "name": "E3",
                    "midi": 52,
                    "time": 283.5821249999998,
                    "velocity": 0.7795275590551181,
                    "duration": 1.194029999999998
                },
                {
                    "name": "A1",
                    "midi": 33,
                    "time": 284.7761549999998,
                    "velocity": 0.6771653543307087,
                    "duration": 0.2985075000000279
                },
                {
                    "name": "A2",
                    "midi": 45,
                    "time": 284.7761549999998,
                    "velocity": 0.8031496062992126,
                    "duration": 0.2985075000000279
                },
                {
                    "name": "E2",
                    "midi": 40,
                    "time": 284.7761549999998,
                    "velocity": 0.6771653543307087,
                    "duration": 0.2985075000000279
                },
                {
                    "name": "A2",
                    "midi": 45,
                    "time": 285.37316999999985,
                    "velocity": 0.84251968503937,
                    "duration": 1.194029999999998
                },
                {
                    "name": "A1",
                    "midi": 33,
                    "time": 285.37316999999985,
                    "velocity": 0.7086614173228346,
                    "duration": 1.194029999999998
                },
                {
                    "name": "E2",
                    "midi": 40,
                    "time": 285.37316999999985,
                    "velocity": 0.7086614173228346,
                    "duration": 1.194029999999998
                },
                {
                    "name": "E2",
                    "midi": 40,
                    "time": 286.56719999999984,
                    "velocity": 0.6771653543307087,
                    "duration": 0.2985075000000279
                },
                {
                    "name": "A2",
                    "midi": 45,
                    "time": 286.56719999999984,
                    "velocity": 0.8031496062992126,
                    "duration": 0.2985075000000279
                },
                {
                    "name": "A1",
                    "midi": 33,
                    "time": 286.56719999999984,
                    "velocity": 0.6771653543307087,
                    "duration": 0.2985075000000279
                },
                {
                    "name": "E2",
                    "midi": 40,
                    "time": 287.1642149999999,
                    "velocity": 0.7244094488188977,
                    "duration": 1.194029999999998
                },
                {
                    "name": "A1",
                    "midi": 33,
                    "time": 287.1642149999999,
                    "velocity": 0.7244094488188977,
                    "duration": 1.194029999999998
                },
                {
                    "name": "A2",
                    "midi": 45,
                    "time": 287.1642149999999,
                    "velocity": 0.8582677165354331,
                    "duration": 1.194029999999998
                },
                {
                    "name": "E2",
                    "midi": 40,
                    "time": 288.3582449999999,
                    "velocity": 0.6771653543307087,
                    "duration": 0.2985075000000279
                },
                {
                    "name": "A2",
                    "midi": 45,
                    "time": 288.3582449999999,
                    "velocity": 0.8031496062992126,
                    "duration": 0.2985075000000279
                },
                {
                    "name": "A1",
                    "midi": 33,
                    "time": 288.3582449999999,
                    "velocity": 0.6771653543307087,
                    "duration": 0.2985075000000279
                },
                {
                    "name": "E2",
                    "midi": 40,
                    "time": 288.95525999999995,
                    "velocity": 0.7165354330708661,
                    "duration": 1.194029999999998
                },
                {
                    "name": "A1",
                    "midi": 33,
                    "time": 288.95525999999995,
                    "velocity": 0.7165354330708661,
                    "duration": 1.194029999999998
                },
                {
                    "name": "A2",
                    "midi": 45,
                    "time": 288.95525999999995,
                    "velocity": 0.8503937007874016,
                    "duration": 1.194029999999998
                },
                {
                    "name": "A1",
                    "midi": 33,
                    "time": 290.14928999999995,
                    "velocity": 0.6771653543307087,
                    "duration": 0.2985075000000279
                },
                {
                    "name": "E2",
                    "midi": 40,
                    "time": 290.14928999999995,
                    "velocity": 0.6771653543307087,
                    "duration": 0.2985075000000279
                },
                {
                    "name": "A2",
                    "midi": 45,
                    "time": 290.14928999999995,
                    "velocity": 0.8031496062992126,
                    "duration": 0.2985075000000279
                },
                {
                    "name": "E2",
                    "midi": 40,
                    "time": 290.746305,
                    "velocity": 0.7244094488188977,
                    "duration": 1.791044999999997
                },
                {
                    "name": "A1",
                    "midi": 33,
                    "time": 290.746305,
                    "velocity": 0.7244094488188977,
                    "duration": 1.791044999999997
                },
                {
                    "name": "A2",
                    "midi": 45,
                    "time": 290.746305,
                    "velocity": 0.8582677165354331,
                    "duration": 1.791044999999997
                },
                {
                    "name": "A2",
                    "midi": 45,
                    "time": 292.53735,
                    "velocity": 0.6614173228346457,
                    "duration": 0.597014999999999
                },
                {
                    "name": "E2",
                    "midi": 40,
                    "time": 292.53735,
                    "velocity": 0.5590551181102362,
                    "duration": 0.597014999999999
                },
                {
                    "name": "A1",
                    "midi": 33,
                    "time": 292.53735,
                    "velocity": 0.5590551181102362,
                    "duration": 0.597014999999999
                },
                {
                    "name": "A2",
                    "midi": 45,
                    "time": 293.134365,
                    "velocity": 0.6771653543307087,
                    "duration": 0.597014999999999
                },
                {
                    "name": "A1",
                    "midi": 33,
                    "time": 293.134365,
                    "velocity": 0.5748031496062992,
                    "duration": 0.597014999999999
                },
                {
                    "name": "E2",
                    "midi": 40,
                    "time": 293.134365,
                    "velocity": 0.5748031496062992,
                    "duration": 0.597014999999999
                },
                {
                    "name": "A2",
                    "midi": 45,
                    "time": 293.73138,
                    "velocity": 0.6299212598425197,
                    "duration": 0.597014999999999
                },
                {
                    "name": "E2",
                    "midi": 40,
                    "time": 293.73138,
                    "velocity": 0.5354330708661418,
                    "duration": 0.597014999999999
                },
                {
                    "name": "A1",
                    "midi": 33,
                    "time": 293.73138,
                    "velocity": 0.5354330708661418,
                    "duration": 0.597014999999999
                },
                {
                    "name": "A1",
                    "midi": 33,
                    "time": 294.328395,
                    "velocity": 0.5039370078740157,
                    "duration": 0.597014999999999
                },
                {
                    "name": "A2",
                    "midi": 45,
                    "time": 294.328395,
                    "velocity": 0.5984251968503937,
                    "duration": 0.597014999999999
                },
                {
                    "name": "E2",
                    "midi": 40,
                    "time": 294.328395,
                    "velocity": 0.5039370078740157,
                    "duration": 0.597014999999999
                },
                {
                    "name": "E2",
                    "midi": 40,
                    "time": 294.92541,
                    "velocity": 0.48031496062992124,
                    "duration": 0.597014999999999
                },
                {
                    "name": "A2",
                    "midi": 45,
                    "time": 294.92541,
                    "velocity": 0.5669291338582677,
                    "duration": 0.597014999999999
                },
                {
                    "name": "A1",
                    "midi": 33,
                    "time": 294.92541,
                    "velocity": 0.48031496062992124,
                    "duration": 0.597014999999999
                },
                {
                    "name": "A1",
                    "midi": 33,
                    "time": 295.522425,
                    "velocity": 0.5354330708661418,
                    "duration": 1.791044999999997
                },
                {
                    "name": "F#1",
                    "midi": 30,
                    "time": 297.31347,
                    "velocity": 0.2992125984251969,
                    "duration": 0.09950250000002825
                },
                {
                    "name": "G#1",
                    "midi": 32,
                    "time": 297.4129725,
                    "velocity": 0.25984251968503935,
                    "duration": 0.09950250000002825
                },
                {
                    "name": "F#1",
                    "midi": 30,
                    "time": 297.51247500000005,
                    "velocity": 0.2992125984251969,
                    "duration": 0.09950250000002825
                },
                {
                    "name": "G#1",
                    "midi": 32,
                    "time": 297.61073371875005,
                    "velocity": 0.25196850393700787,
                    "duration": 0.09950250000002825
                },
                {
                    "name": "F#1",
                    "midi": 30,
                    "time": 297.7102362187501,
                    "velocity": 0.2992125984251969,
                    "duration": 0.09950250000002825
                },
                {
                    "name": "G#1",
                    "midi": 32,
                    "time": 297.8097387187501,
                    "velocity": 0.25984251968503935,
                    "duration": 0.09950250000002825
                },
                {
                    "name": "F#1",
                    "midi": 30,
                    "time": 297.90924121875014,
                    "velocity": 0.2992125984251969,
                    "duration": 0.09950250000002825
                },
                {
                    "name": "G#1",
                    "midi": 32,
                    "time": 298.00749993750014,
                    "velocity": 0.2677165354330709,
                    "duration": 0.09950250000002825
                },
                {
                    "name": "F#1",
                    "midi": 30,
                    "time": 298.1082462187502,
                    "velocity": 0.2992125984251969,
                    "duration": 0.09950250000002825
                },
                {
                    "name": "G#1",
                    "midi": 32,
                    "time": 298.2065049375002,
                    "velocity": 0.2677165354330709,
                    "duration": 0.09950250000002825
                },
                {
                    "name": "F#1",
                    "midi": 30,
                    "time": 298.3060074375002,
                    "velocity": 0.2992125984251969,
                    "duration": 0.09950250000002825
                },
                {
                    "name": "G#1",
                    "midi": 32,
                    "time": 298.40550993750026,
                    "velocity": 0.2677165354330709,
                    "duration": 0.09950250000002825
                },
                {
                    "name": "F#1",
                    "midi": 30,
                    "time": 298.5075000000003,
                    "velocity": 0.2992125984251969,
                    "duration": 0.11940299999997706
                },
                {
                    "name": "G#1",
                    "midi": 32,
                    "time": 298.62690300000025,
                    "velocity": 0.2677165354330709,
                    "duration": 0.11940299999997706
                },
                {
                    "name": "F#1",
                    "midi": 30,
                    "time": 298.74630600000023,
                    "velocity": 0.2992125984251969,
                    "duration": 0.11940299999997706
                },
                {
                    "name": "F1",
                    "midi": 29,
                    "time": 298.8657090000002,
                    "velocity": 0.2755905511811024,
                    "duration": 0.11940299999997706
                },
                {
                    "name": "F#1",
                    "midi": 30,
                    "time": 298.9851120000002,
                    "velocity": 0.2755905511811024,
                    "duration": 0.11940299999997706
                },
                {
                    "name": "G#1",
                    "midi": 32,
                    "time": 299.10451500000016,
                    "velocity": 0.3543307086614173,
                    "duration": 3.582089999999994
                },
                {
                    "name": "C#2",
                    "midi": 37,
                    "time": 302.68660500000016,
                    "velocity": 0.4015748031496063,
                    "duration": 1.791044999999997
                },
                {
                    "name": "G#2",
                    "midi": 44,
                    "time": 303.28362000000016,
                    "velocity": 0.47244094488188976,
                    "duration": 1.791044999999997
                },
                {
                    "name": "F2",
                    "midi": 41,
                    "time": 304.47765000000015,
                    "velocity": 0.4015748031496063,
                    "duration": 1.791044999999997
                },
                {
                    "name": "G#2",
                    "midi": 44,
                    "time": 305.07466500000015,
                    "velocity": 0.48031496062992124,
                    "duration": 1.791044999999997
                },
                {
                    "name": "C2",
                    "midi": 36,
                    "time": 306.26869500000015,
                    "velocity": 0.4094488188976378,
                    "duration": 1.791044999999997
                },
                {
                    "name": "G#2",
                    "midi": 44,
                    "time": 306.86571000000015,
                    "velocity": 0.4645669291338583,
                    "duration": 1.791044999999997
                },
                {
                    "name": "G#1",
                    "midi": 32,
                    "time": 308.05974000000015,
                    "velocity": 0.4094488188976378,
                    "duration": 1.791044999999997
                },
                {
                    "name": "G#2",
                    "midi": 44,
                    "time": 308.65675500000015,
                    "velocity": 0.4645669291338583,
                    "duration": 1.791044999999997
                },
                {
                    "name": "C#2",
                    "midi": 37,
                    "time": 309.85078500000014,
                    "velocity": 0.4015748031496063,
                    "duration": 1.791044999999997
                },
                {
                    "name": "G#2",
                    "midi": 44,
                    "time": 310.44780000000014,
                    "velocity": 0.47244094488188976,
                    "duration": 1.791044999999997
                },
                {
                    "name": "F2",
                    "midi": 41,
                    "time": 311.64183000000014,
                    "velocity": 0.4015748031496063,
                    "duration": 1.791044999999997
                },
                {
                    "name": "G#2",
                    "midi": 44,
                    "time": 312.23884500000014,
                    "velocity": 0.48031496062992124,
                    "duration": 1.791044999999997
                },
                {
                    "name": "C2",
                    "midi": 36,
                    "time": 313.43287500000014,
                    "velocity": 0.4094488188976378,
                    "duration": 1.791044999999997
                },
                {
                    "name": "G#2",
                    "midi": 44,
                    "time": 314.02989000000014,
                    "velocity": 0.4645669291338583,
                    "duration": 1.791044999999997
                },
                {
                    "name": "G#1",
                    "midi": 32,
                    "time": 315.22392000000013,
                    "velocity": 0.4094488188976378,
                    "duration": 1.791044999999997
                },
                {
                    "name": "G#2",
                    "midi": 44,
                    "time": 315.82093500000013,
                    "velocity": 0.4645669291338583,
                    "duration": 1.194029999999998
                },
                {
                    "name": "A#1",
                    "midi": 34,
                    "time": 317.01496500000013,
                    "velocity": 0.4015748031496063,
                    "duration": 1.791044999999997
                },
                {
                    "name": "A#2",
                    "midi": 46,
                    "time": 317.61198000000013,
                    "velocity": 0.3858267716535433,
                    "duration": 1.194029999999998
                },
                {
                    "name": "D#2",
                    "midi": 39,
                    "time": 318.80601000000013,
                    "velocity": 0.3464566929133858,
                    "duration": 1.194029999999998
                },
                {
                    "name": "D#3",
                    "midi": 51,
                    "time": 319.4030250000001,
                    "velocity": 0.3228346456692913,
                    "duration": 0.597014999999999
                },
                {
                    "name": "F#2",
                    "midi": 42,
                    "time": 320.0000400000001,
                    "velocity": 0.30708661417322836,
                    "duration": 0.597014999999999
                },
                {
                    "name": "F#3",
                    "midi": 54,
                    "time": 320.0000400000001,
                    "velocity": 0.30708661417322836,
                    "duration": 0.597014999999999
                },
                {
                    "name": "G#2",
                    "midi": 44,
                    "time": 320.5970550000001,
                    "velocity": 0.28346456692913385,
                    "duration": 1.791044999999997
                },
                {
                    "name": "G#3",
                    "midi": 56,
                    "time": 321.1940700000001,
                    "velocity": 0.2677165354330709,
                    "duration": 2.388059999999996
                },
                {
                    "name": "C#3",
                    "midi": 49,
                    "time": 322.3881000000001,
                    "velocity": 0.2677165354330709,
                    "duration": 1.194029999999998
                },
                {
                    "name": "G#2",
                    "midi": 44,
                    "time": 324.1791450000001,
                    "velocity": 0.2125984251968504,
                    "duration": 3.582089999999994
                },
                {
                    "name": "C#2",
                    "midi": 37,
                    "time": 324.1791450000001,
                    "velocity": 0.2125984251968504,
                    "duration": 3.582089999999994
                },
                {
                    "name": "C#3",
                    "midi": 49,
                    "time": 324.1791450000001,
                    "velocity": 0.25196850393700787,
                    "duration": 3.582089999999994
                },
                {
                    "name": "C#3",
                    "midi": 49,
                    "time": 327.7612350000001,
                    "velocity": 0.2440944881889764,
                    "duration": 1.791044999999997
                },
                {
                    "name": "C#2",
                    "midi": 37,
                    "time": 327.7612350000001,
                    "velocity": 0.2047244094488189,
                    "duration": 1.791044999999997
                },
                {
                    "name": "A#2",
                    "midi": 46,
                    "time": 329.5522800000001,
                    "velocity": 0.2440944881889764,
                    "duration": 1.791044999999997
                },
                {
                    "name": "A#1",
                    "midi": 34,
                    "time": 329.5522800000001,
                    "velocity": 0.2047244094488189,
                    "duration": 1.791044999999997
                },
                {
                    "name": "D#2",
                    "midi": 39,
                    "time": 331.3433250000001,
                    "velocity": 0.2047244094488189,
                    "duration": 1.791044999999997
                },
                {
                    "name": "G2",
                    "midi": 43,
                    "time": 331.3433250000001,
                    "velocity": 0.2440944881889764,
                    "duration": 1.791044999999997
                },
                {
                    "name": "G1",
                    "midi": 31,
                    "time": 331.3433250000001,
                    "velocity": 0.2047244094488189,
                    "duration": 1.791044999999997
                },
                {
                    "name": "G1",
                    "midi": 31,
                    "time": 333.1343700000001,
                    "velocity": 0.2047244094488189,
                    "duration": 1.791044999999997
                },
                {
                    "name": "D#2",
                    "midi": 39,
                    "time": 333.1343700000001,
                    "velocity": 0.2047244094488189,
                    "duration": 1.791044999999997
                },
                {
                    "name": "G2",
                    "midi": 43,
                    "time": 333.1343700000001,
                    "velocity": 0.2440944881889764,
                    "duration": 1.791044999999997
                },
                {
                    "name": "G2",
                    "midi": 43,
                    "time": 334.9254150000001,
                    "velocity": 0.1732283464566929,
                    "duration": 1.194029999999998
                },
                {
                    "name": "C#4",
                    "midi": 61,
                    "time": 334.9254150000001,
                    "velocity": 0.2047244094488189,
                    "duration": 1.194029999999998
                },
                {
                    "name": "D#3",
                    "midi": 51,
                    "time": 334.9254150000001,
                    "velocity": 0.2047244094488189,
                    "duration": 1.194029999999998
                },
                {
                    "name": "G1",
                    "midi": 31,
                    "time": 334.9254150000001,
                    "velocity": 0.1732283464566929,
                    "duration": 1.194029999999998
                },
                {
                    "name": "D#2",
                    "midi": 39,
                    "time": 334.9254150000001,
                    "velocity": 0.1732283464566929,
                    "duration": 1.194029999999998
                },
                {
                    "name": "A#3",
                    "midi": 58,
                    "time": 334.9254150000001,
                    "velocity": 0.2047244094488189,
                    "duration": 1.194029999999998
                },
                {
                    "name": "D#3",
                    "midi": 51,
                    "time": 336.1194450000001,
                    "velocity": 0.2125984251968504,
                    "duration": 0.5907960937500434
                },
                {
                    "name": "D#3",
                    "midi": 51,
                    "time": 336.71646000000015,
                    "velocity": 0.2125984251968504,
                    "duration": 0.5907960937499865
                },
                {
                    "name": "D#3",
                    "midi": 51,
                    "time": 337.31347500000015,
                    "velocity": 0.2125984251968504,
                    "duration": 0.5907960937499865
                },
                {
                    "name": "D#3",
                    "midi": 51,
                    "time": 337.91049000000015,
                    "velocity": 0.2125984251968504,
                    "duration": 0.5907960937499865
                },
                {
                    "name": "D#3",
                    "midi": 51,
                    "time": 338.50750500000015,
                    "velocity": 0.2125984251968504,
                    "duration": 0.5907960937499865
                },
                {
                    "name": "G#2",
                    "midi": 44,
                    "time": 338.50750500000015,
                    "velocity": 0.2125984251968504,
                    "duration": 1.791044999999997
                },
                {
                    "name": "D#3",
                    "midi": 51,
                    "time": 339.10452000000015,
                    "velocity": 0.2125984251968504,
                    "duration": 1.194029999999998
                },
                {
                    "name": "A#2",
                    "midi": 46,
                    "time": 340.29855000000015,
                    "velocity": 0.2125984251968504,
                    "duration": 1.791044999999997
                },
                {
                    "name": "D#3",
                    "midi": 51,
                    "time": 340.29855000000015,
                    "velocity": 0.2125984251968504,
                    "duration": 0.5907960937499865
                },
                {
                    "name": "D#3",
                    "midi": 51,
                    "time": 340.89556500000015,
                    "velocity": 0.2125984251968504,
                    "duration": 1.194029999999998
                },
                {
                    "name": "C3",
                    "midi": 48,
                    "time": 342.08959500000014,
                    "velocity": 0.2125984251968504,
                    "duration": 1.194029999999998
                },
                {
                    "name": "D#3",
                    "midi": 51,
                    "time": 342.08959500000014,
                    "velocity": 0.2125984251968504,
                    "duration": 0.5907960937499865
                },
                {
                    "name": "D#3",
                    "midi": 51,
                    "time": 342.68661000000014,
                    "velocity": 0.2125984251968504,
                    "duration": 0.5907960937499865
                },
                {
                    "name": "D#3",
                    "midi": 51,
                    "time": 343.28362500000014,
                    "velocity": 0.2125984251968504,
                    "duration": 0.5907960937499865
                },
                {
                    "name": "G2",
                    "midi": 43,
                    "time": 343.28362500000014,
                    "velocity": 0.2125984251968504,
                    "duration": 0.5907960937499865
                },
                {
                    "name": "D#3",
                    "midi": 51,
                    "time": 343.88064000000014,
                    "velocity": 0.2125984251968504,
                    "duration": 1.194029999999998
                },
                {
                    "name": "G#2",
                    "midi": 44,
                    "time": 343.88064000000014,
                    "velocity": 0.2125984251968504,
                    "duration": 1.194029999999998
                },
                {
                    "name": "D#3",
                    "midi": 51,
                    "time": 345.07467000000014,
                    "velocity": 0.25984251968503935,
                    "duration": 0.5907960937499865
                },
                {
                    "name": "D#3",
                    "midi": 51,
                    "time": 345.67168500000014,
                    "velocity": 0.25984251968503935,
                    "duration": 0.5907960937499865
                },
                {
                    "name": "G#2",
                    "midi": 44,
                    "time": 345.67168500000014,
                    "velocity": 0.25984251968503935,
                    "duration": 1.791044999999997
                },
                {
                    "name": "D#3",
                    "midi": 51,
                    "time": 346.26870000000014,
                    "velocity": 0.25984251968503935,
                    "duration": 1.194029999999998
                },
                {
                    "name": "C#3",
                    "midi": 49,
                    "time": 347.46273000000014,
                    "velocity": 0.25984251968503935,
                    "duration": 1.791044999999997
                },
                {
                    "name": "D#3",
                    "midi": 51,
                    "time": 347.46273000000014,
                    "velocity": 0.25984251968503935,
                    "duration": 0.5907960937499865
                },
                {
                    "name": "D#3",
                    "midi": 51,
                    "time": 348.05974500000013,
                    "velocity": 0.25984251968503935,
                    "duration": 1.194029999999998
                },
                {
                    "name": "D#3",
                    "midi": 51,
                    "time": 349.25377500000013,
                    "velocity": 0.2440944881889764,
                    "duration": 0.5907960937499865
                },
                {
                    "name": "C3",
                    "midi": 48,
                    "time": 349.25377500000013,
                    "velocity": 0.2440944881889764,
                    "duration": 1.194029999999998
                },
                {
                    "name": "D#3",
                    "midi": 51,
                    "time": 349.85079000000013,
                    "velocity": 0.2440944881889764,
                    "duration": 0.5907960937499865
                },
                {
                    "name": "G2",
                    "midi": 43,
                    "time": 350.44780500000013,
                    "velocity": 0.2440944881889764,
                    "duration": 0.597014999999999
                },
                {
                    "name": "D#3",
                    "midi": 51,
                    "time": 350.44780500000013,
                    "velocity": 0.2440944881889764,
                    "duration": 0.597014999999999
                },
                {
                    "name": "D#3",
                    "midi": 51,
                    "time": 351.04482000000013,
                    "velocity": 0.2283464566929134,
                    "duration": 1.194029999999998
                },
                {
                    "name": "G#2",
                    "midi": 44,
                    "time": 351.04482000000013,
                    "velocity": 0.2283464566929134,
                    "duration": 1.194029999999998
                },
                {
                    "name": "D#3",
                    "midi": 51,
                    "time": 352.2388500000001,
                    "velocity": 0.2125984251968504,
                    "duration": 0.5907960937499865
                },
                {
                    "name": "G#2",
                    "midi": 44,
                    "time": 352.8358650000001,
                    "velocity": 0.2125984251968504,
                    "duration": 1.791044999999997
                },
                {
                    "name": "D#3",
                    "midi": 51,
                    "time": 352.8358650000001,
                    "velocity": 0.2125984251968504,
                    "duration": 0.5907960937499865
                },
                {
                    "name": "D#3",
                    "midi": 51,
                    "time": 353.4328800000001,
                    "velocity": 0.2125984251968504,
                    "duration": 1.194029999999998
                },
                {
                    "name": "A#2",
                    "midi": 46,
                    "time": 354.6269100000001,
                    "velocity": 0.2125984251968504,
                    "duration": 1.791044999999997
                },
                {
                    "name": "D#3",
                    "midi": 51,
                    "time": 354.6269100000001,
                    "velocity": 0.2125984251968504,
                    "duration": 0.5907960937499865
                },
                {
                    "name": "D#3",
                    "midi": 51,
                    "time": 355.2239250000001,
                    "velocity": 0.2125984251968504,
                    "duration": 0.597014999999999
                },
                {
                    "name": "D#3",
                    "midi": 51,
                    "time": 356.4179550000001,
                    "velocity": 0.2125984251968504,
                    "duration": 0.5907960937499865
                },
                {
                    "name": "C3",
                    "midi": 48,
                    "time": 356.4179550000001,
                    "velocity": 0.2125984251968504,
                    "duration": 1.194029999999998
                },
                {
                    "name": "D#3",
                    "midi": 51,
                    "time": 357.0149700000001,
                    "velocity": 0.2204724409448819,
                    "duration": 0.5907960937499865
                },
                {
                    "name": "D#3",
                    "midi": 51,
                    "time": 357.6119850000001,
                    "velocity": 0.2283464566929134,
                    "duration": 0.5907960937499865
                },
                {
                    "name": "G2",
                    "midi": 43,
                    "time": 357.6119850000001,
                    "velocity": 0.2283464566929134,
                    "duration": 0.5907960937499865
                },
                {
                    "name": "D#3",
                    "midi": 51,
                    "time": 358.2090000000001,
                    "velocity": 0.25196850393700787,
                    "duration": 1.194029999999998
                },
                {
                    "name": "G#2",
                    "midi": 44,
                    "time": 358.2090000000001,
                    "velocity": 0.25196850393700787,
                    "duration": 1.194029999999998
                },
                {
                    "name": "D#3",
                    "midi": 51,
                    "time": 359.4030300000001,
                    "velocity": 0.2440944881889764,
                    "duration": 0.5907960937499865
                },
                {
                    "name": "G#2",
                    "midi": 44,
                    "time": 360.0000450000001,
                    "velocity": 0.2677165354330709,
                    "duration": 1.791044999999997
                },
                {
                    "name": "D#3",
                    "midi": 51,
                    "time": 360.0000450000001,
                    "velocity": 0.2677165354330709,
                    "duration": 0.5907960937499865
                },
                {
                    "name": "D#3",
                    "midi": 51,
                    "time": 360.5970600000001,
                    "velocity": 0.2755905511811024,
                    "duration": 1.194029999999998
                },
                {
                    "name": "G2",
                    "midi": 43,
                    "time": 361.7910900000001,
                    "velocity": 0.2440944881889764,
                    "duration": 1.791044999999997
                },
                {
                    "name": "C3",
                    "midi": 48,
                    "time": 361.7910900000001,
                    "velocity": 0.2440944881889764,
                    "duration": 0.5907960937499865
                },
                {
                    "name": "C3",
                    "midi": 48,
                    "time": 362.3881050000001,
                    "velocity": 0.2440944881889764,
                    "duration": 1.194029999999998
                },
                {
                    "name": "F2",
                    "midi": 41,
                    "time": 363.5821350000001,
                    "velocity": 0.2440944881889764,
                    "duration": 1.194029999999998
                },
                {
                    "name": "C3",
                    "midi": 48,
                    "time": 363.5821350000001,
                    "velocity": 0.2440944881889764,
                    "duration": 0.5907960937499865
                },
                {
                    "name": "C3",
                    "midi": 48,
                    "time": 364.1791500000001,
                    "velocity": 0.2440944881889764,
                    "duration": 0.5907960937499865
                },
                {
                    "name": "D#2",
                    "midi": 39,
                    "time": 364.7761650000001,
                    "velocity": 0.2283464566929134,
                    "duration": 0.597014999999999
                },
                {
                    "name": "D#3",
                    "midi": 51,
                    "time": 364.7761650000001,
                    "velocity": 0.2283464566929134,
                    "duration": 0.597014999999999
                },
                {
                    "name": "D#3",
                    "midi": 51,
                    "time": 365.3731800000001,
                    "velocity": 0.2204724409448819,
                    "duration": 1.194029999999998
                },
                {
                    "name": "G#2",
                    "midi": 44,
                    "time": 365.3731800000001,
                    "velocity": 0.2204724409448819,
                    "duration": 1.194029999999998
                },
                {
                    "name": "G#3",
                    "midi": 56,
                    "time": 366.86571750000013,
                    "velocity": 0.4251968503937008,
                    "duration": 0.29601993749997746
                },
                {
                    "name": "C4",
                    "midi": 60,
                    "time": 366.86571750000013,
                    "velocity": 0.5039370078740157,
                    "duration": 0.29601993749997746
                },
                {
                    "name": "C3",
                    "midi": 48,
                    "time": 366.86571750000013,
                    "velocity": 0.4251968503937008,
                    "duration": 0.29601993749997746
                },
                {
                    "name": "C4",
                    "midi": 60,
                    "time": 367.1642250000001,
                    "velocity": 0.5748031496062992,
                    "duration": 0.5907960937499865
                },
                {
                    "name": "G#3",
                    "midi": 56,
                    "time": 367.1642250000001,
                    "velocity": 0.4881889763779528,
                    "duration": 0.5907960937499865
                },
                {
                    "name": "C3",
                    "midi": 48,
                    "time": 367.1642250000001,
                    "velocity": 0.4881889763779528,
                    "duration": 0.5907960937499865
                },
                {
                    "name": "C3",
                    "midi": 48,
                    "time": 367.7612400000001,
                    "velocity": 0.4645669291338583,
                    "duration": 0.8868160312500208
                },
                {
                    "name": "G#3",
                    "midi": 56,
                    "time": 367.7612400000001,
                    "velocity": 0.4645669291338583,
                    "duration": 0.8868160312500208
                },
                {
                    "name": "C4",
                    "midi": 60,
                    "time": 367.7612400000001,
                    "velocity": 0.5511811023622047,
                    "duration": 0.8868160312500208
                },
                {
                    "name": "G#2",
                    "midi": 44,
                    "time": 368.6567625000001,
                    "velocity": 0.4251968503937008,
                    "duration": 0.29601993749997746
                },
                {
                    "name": "D#3",
                    "midi": 51,
                    "time": 368.6567625000001,
                    "velocity": 0.4251968503937008,
                    "duration": 0.29601993749997746
                },
                {
                    "name": "G#3",
                    "midi": 56,
                    "time": 368.6567625000001,
                    "velocity": 0.5039370078740157,
                    "duration": 0.29601993749997746
                },
                {
                    "name": "G#2",
                    "midi": 44,
                    "time": 368.9552700000001,
                    "velocity": 0.48031496062992124,
                    "duration": 0.5907960937499865
                },
                {
                    "name": "G#3",
                    "midi": 56,
                    "time": 368.9552700000001,
                    "velocity": 0.5669291338582677,
                    "duration": 0.5907960937499865
                },
                {
                    "name": "D#3",
                    "midi": 51,
                    "time": 368.9552700000001,
                    "velocity": 0.48031496062992124,
                    "duration": 0.5907960937499865
                },
                {
                    "name": "G#2",
                    "midi": 44,
                    "time": 369.5522850000001,
                    "velocity": 0.4645669291338583,
                    "duration": 0.8868160312500208
                },
                {
                    "name": "D#3",
                    "midi": 51,
                    "time": 369.5522850000001,
                    "velocity": 0.4645669291338583,
                    "duration": 0.8868160312500208
                },
                {
                    "name": "G#3",
                    "midi": 56,
                    "time": 369.5522850000001,
                    "velocity": 0.5511811023622047,
                    "duration": 0.8868160312500208
                },
                {
                    "name": "F3",
                    "midi": 53,
                    "time": 370.4478075000001,
                    "velocity": 0.5039370078740157,
                    "duration": 0.29601993749997746
                },
                {
                    "name": "F2",
                    "midi": 41,
                    "time": 370.4478075000001,
                    "velocity": 0.4251968503937008,
                    "duration": 0.29601993749997746
                },
                {
                    "name": "F2",
                    "midi": 41,
                    "time": 370.7463150000001,
                    "velocity": 0.4251968503937008,
                    "duration": 0.447761249999985
                },
                {
                    "name": "F3",
                    "midi": 53,
                    "time": 370.7463150000001,
                    "velocity": 0.5039370078740157,
                    "duration": 0.447761249999985
                },
                {
                    "name": "G2",
                    "midi": 43,
                    "time": 371.3433300000001,
                    "velocity": 0.4251968503937008,
                    "duration": 0.447761249999985
                },
                {
                    "name": "G3",
                    "midi": 55,
                    "time": 371.3433300000001,
                    "velocity": 0.5039370078740157,
                    "duration": 0.447761249999985
                },
                {
                    "name": "D#2",
                    "midi": 39,
                    "time": 371.9403450000001,
                    "velocity": 0.4251968503937008,
                    "duration": 0.447761249999985
                },
                {
                    "name": "D#3",
                    "midi": 51,
                    "time": 371.9403450000001,
                    "velocity": 0.5039370078740157,
                    "duration": 0.447761249999985
                },
                {
                    "name": "G#2",
                    "midi": 44,
                    "time": 372.5373600000001,
                    "velocity": 0.4251968503937008,
                    "duration": 1.4925375000000258
                },
                {
                    "name": "D#3",
                    "midi": 51,
                    "time": 372.5373600000001,
                    "velocity": 0.4251968503937008,
                    "duration": 1.4925375000000258
                },
                {
                    "name": "G#3",
                    "midi": 56,
                    "time": 372.5373600000001,
                    "velocity": 0.5039370078740157,
                    "duration": 1.4925375000000258
                },
                {
                    "name": "C#2",
                    "midi": 37,
                    "time": 374.0298975000001,
                    "velocity": 0.5354330708661418,
                    "duration": 0.29601993749997746
                },
                {
                    "name": "G#2",
                    "midi": 44,
                    "time": 374.0298975000001,
                    "velocity": 0.5354330708661418,
                    "duration": 0.29601993749997746
                },
                {
                    "name": "C#3",
                    "midi": 49,
                    "time": 374.0298975000001,
                    "velocity": 0.6299212598425197,
                    "duration": 0.29601993749997746
                },
                {
                    "name": "C#3",
                    "midi": 49,
                    "time": 374.3284050000001,
                    "velocity": 0.6299212598425197,
                    "duration": 0.5907960937499865
                },
                {
                    "name": "G#2",
                    "midi": 44,
                    "time": 374.3284050000001,
                    "velocity": 0.5354330708661418,
                    "duration": 0.5907960937499865
                },
                {
                    "name": "C#2",
                    "midi": 37,
                    "time": 374.3284050000001,
                    "velocity": 0.5354330708661418,
                    "duration": 0.5907960937499865
                },
                {
                    "name": "G#2",
                    "midi": 44,
                    "time": 374.9254200000001,
                    "velocity": 0.5354330708661418,
                    "duration": 0.8868160312500208
                },
                {
                    "name": "C#2",
                    "midi": 37,
                    "time": 374.9254200000001,
                    "velocity": 0.5354330708661418,
                    "duration": 0.8868160312500208
                },
                {
                    "name": "C#3",
                    "midi": 49,
                    "time": 374.9254200000001,
                    "velocity": 0.6299212598425197,
                    "duration": 0.8868160312500208
                },
                {
                    "name": "C#3",
                    "midi": 49,
                    "time": 375.8209425000001,
                    "velocity": 0.6299212598425197,
                    "duration": 0.29601993749997746
                },
                {
                    "name": "C#2",
                    "midi": 37,
                    "time": 375.8209425000001,
                    "velocity": 0.5354330708661418,
                    "duration": 0.29601993749997746
                },
                {
                    "name": "G#2",
                    "midi": 44,
                    "time": 375.8209425000001,
                    "velocity": 0.5354330708661418,
                    "duration": 0.29601993749997746
                },
                {
                    "name": "C#3",
                    "midi": 49,
                    "time": 376.1194500000001,
                    "velocity": 0.6299212598425197,
                    "duration": 0.5907960937499865
                },
                {
                    "name": "G#2",
                    "midi": 44,
                    "time": 376.1194500000001,
                    "velocity": 0.5354330708661418,
                    "duration": 0.5907960937499865
                },
                {
                    "name": "C#2",
                    "midi": 37,
                    "time": 376.1194500000001,
                    "velocity": 0.5354330708661418,
                    "duration": 0.5907960937499865
                },
                {
                    "name": "C#2",
                    "midi": 37,
                    "time": 376.7164650000001,
                    "velocity": 0.5354330708661418,
                    "duration": 0.8868160312500208
                },
                {
                    "name": "G#2",
                    "midi": 44,
                    "time": 376.7164650000001,
                    "velocity": 0.5354330708661418,
                    "duration": 0.8868160312500208
                },
                {
                    "name": "C#3",
                    "midi": 49,
                    "time": 376.7164650000001,
                    "velocity": 0.6299212598425197,
                    "duration": 0.8868160312500208
                },
                {
                    "name": "C#2",
                    "midi": 37,
                    "time": 377.6119875000001,
                    "velocity": 0.5354330708661418,
                    "duration": 0.29601993749997746
                },
                {
                    "name": "C#3",
                    "midi": 49,
                    "time": 377.6119875000001,
                    "velocity": 0.6299212598425197,
                    "duration": 0.29601993749997746
                },
                {
                    "name": "C#3",
                    "midi": 49,
                    "time": 377.9104950000001,
                    "velocity": 0.6299212598425197,
                    "duration": 0.447761249999985
                },
                {
                    "name": "C#2",
                    "midi": 37,
                    "time": 377.9104950000001,
                    "velocity": 0.5354330708661418,
                    "duration": 0.447761249999985
                },
                {
                    "name": "A1",
                    "midi": 33,
                    "time": 378.5075100000001,
                    "velocity": 0.5354330708661418,
                    "duration": 0.447761249999985
                },
                {
                    "name": "A2",
                    "midi": 45,
                    "time": 378.5075100000001,
                    "velocity": 0.6299212598425197,
                    "duration": 0.447761249999985
                },
                {
                    "name": "F#2",
                    "midi": 42,
                    "time": 379.1045250000001,
                    "velocity": 0.6299212598425197,
                    "duration": 0.447761249999985
                },
                {
                    "name": "F#1",
                    "midi": 30,
                    "time": 379.1045250000001,
                    "velocity": 0.5354330708661418,
                    "duration": 0.447761249999985
                },
                {
                    "name": "C#3",
                    "midi": 49,
                    "time": 379.7015400000001,
                    "velocity": 0.6299212598425197,
                    "duration": 1.4925375000000258
                },
                {
                    "name": "C#2",
                    "midi": 37,
                    "time": 379.7015400000001,
                    "velocity": 0.5354330708661418,
                    "duration": 1.4925375000000258
                },
                {
                    "name": "A1",
                    "midi": 33,
                    "time": 381.1940775000001,
                    "velocity": 0.5354330708661418,
                    "duration": 0.29601993749997746
                },
                {
                    "name": "A2",
                    "midi": 45,
                    "time": 381.1940775000001,
                    "velocity": 0.6299212598425197,
                    "duration": 0.29601993749997746
                },
                {
                    "name": "A1",
                    "midi": 33,
                    "time": 381.4925850000001,
                    "velocity": 0.5354330708661418,
                    "duration": 3.2835825000000227
                },
                {
                    "name": "A2",
                    "midi": 45,
                    "time": 381.4925850000001,
                    "velocity": 0.6299212598425197,
                    "duration": 3.2835825000000227
                },
                {
                    "name": "E3",
                    "midi": 52,
                    "time": 384.7761675000001,
                    "velocity": 0.4251968503937008,
                    "duration": 0.14925375000001395
                },
                {
                    "name": "E2",
                    "midi": 40,
                    "time": 384.7761675000001,
                    "velocity": 0.3543307086614173,
                    "duration": 0.14925375000001395
                },
                {
                    "name": "E2",
                    "midi": 40,
                    "time": 385.0746750000001,
                    "velocity": 0.3543307086614173,
                    "duration": 3.582089999999994
                },
                {
                    "name": "E3",
                    "midi": 52,
                    "time": 385.0746750000001,
                    "velocity": 0.4251968503937008,
                    "duration": 3.582089999999994
                },
                {
                    "name": "D#2",
                    "midi": 39,
                    "time": 388.6567650000001,
                    "velocity": 0.2125984251968504,
                    "duration": 1.791044999999997
                },
                {
                    "name": "D#3",
                    "midi": 51,
                    "time": 388.6567650000001,
                    "velocity": 0.2125984251968504,
                    "duration": 0.5907960937499865
                },
                {
                    "name": "D#3",
                    "midi": 51,
                    "time": 389.2537800000001,
                    "velocity": 0.2125984251968504,
                    "duration": 1.194029999999998
                },
                {
                    "name": "D#3",
                    "midi": 51,
                    "time": 390.4478100000001,
                    "velocity": 0.2125984251968504,
                    "duration": 0.5907960937499865
                },
                {
                    "name": "D#2",
                    "midi": 39,
                    "time": 390.4478100000001,
                    "velocity": 0.2125984251968504,
                    "duration": 1.194029999999998
                },
                {
                    "name": "D#3",
                    "midi": 51,
                    "time": 391.0448250000001,
                    "velocity": 0.2125984251968504,
                    "duration": 0.5907960937499865
                },
                {
                    "name": "D#3",
                    "midi": 51,
                    "time": 391.6418400000001,
                    "velocity": 0.2125984251968504,
                    "duration": 0.5907960937499865
                },
                {
                    "name": "G#2",
                    "midi": 44,
                    "time": 392.2388550000001,
                    "velocity": 0.2125984251968504,
                    "duration": 1.791044999999997
                },
                {
                    "name": "D#3",
                    "midi": 51,
                    "time": 392.2388550000001,
                    "velocity": 0.2125984251968504,
                    "duration": 0.5907960937499865
                },
                {
                    "name": "D#3",
                    "midi": 51,
                    "time": 392.8358700000001,
                    "velocity": 0.2125984251968504,
                    "duration": 1.194029999999998
                },
                {
                    "name": "D#3",
                    "midi": 51,
                    "time": 394.0299000000001,
                    "velocity": 0.2125984251968504,
                    "duration": 0.5907960937499865
                },
                {
                    "name": "A#2",
                    "midi": 46,
                    "time": 394.0299000000001,
                    "velocity": 0.2125984251968504,
                    "duration": 1.791044999999997
                },
                {
                    "name": "D#3",
                    "midi": 51,
                    "time": 394.6269150000001,
                    "velocity": 0.2125984251968504,
                    "duration": 1.194029999999998
                },
                {
                    "name": "C3",
                    "midi": 48,
                    "time": 395.8209450000001,
                    "velocity": 0.2125984251968504,
                    "duration": 1.1828359687499983
                },
                {
                    "name": "D#3",
                    "midi": 51,
                    "time": 395.8209450000001,
                    "velocity": 0.2125984251968504,
                    "duration": 0.5907960937499865
                },
                {
                    "name": "D#3",
                    "midi": 51,
                    "time": 396.4179600000001,
                    "velocity": 0.2125984251968504,
                    "duration": 0.5907960937499865
                },
                {
                    "name": "D#3",
                    "midi": 51,
                    "time": 397.0149750000001,
                    "velocity": 0.2125984251968504,
                    "duration": 0.5907960937499865
                },
                {
                    "name": "G2",
                    "midi": 43,
                    "time": 397.0149750000001,
                    "velocity": 0.2125984251968504,
                    "duration": 0.5907960937499865
                },
                {
                    "name": "G#2",
                    "midi": 44,
                    "time": 397.6119900000001,
                    "velocity": 0.2125984251968504,
                    "duration": 1.194029999999998
                },
                {
                    "name": "D#3",
                    "midi": 51,
                    "time": 397.6119900000001,
                    "velocity": 0.2125984251968504,
                    "duration": 1.194029999999998
                },
                {
                    "name": "D#3",
                    "midi": 51,
                    "time": 398.8060200000001,
                    "velocity": 0.2283464566929134,
                    "duration": 0.5907960937499865
                },
                {
                    "name": "D#3",
                    "midi": 51,
                    "time": 399.4030350000001,
                    "velocity": 0.28346456692913385,
                    "duration": 0.5907960937499865
                },
                {
                    "name": "F#2",
                    "midi": 42,
                    "time": 399.4030350000001,
                    "velocity": 0.28346456692913385,
                    "duration": 1.791044999999997
                },
                {
                    "name": "D#3",
                    "midi": 51,
                    "time": 400.0000500000001,
                    "velocity": 0.29133858267716534,
                    "duration": 1.194029999999998
                },
                {
                    "name": "D#3",
                    "midi": 51,
                    "time": 401.1940800000001,
                    "velocity": 0.29133858267716534,
                    "duration": 0.5907960937499865
                },
                {
                    "name": "F2",
                    "midi": 41,
                    "time": 401.1940800000001,
                    "velocity": 0.29133858267716534,
                    "duration": 1.4925375000000258
                },
                {
                    "name": "D#3",
                    "midi": 51,
                    "time": 401.7910950000001,
                    "velocity": 0.2755905511811024,
                    "duration": 0.8955225000000269
                },
                {
                    "name": "C#3",
                    "midi": 49,
                    "time": 402.6866175000001,
                    "velocity": 0.2755905511811024,
                    "duration": 0.29601993749997746
                },
                {
                    "name": "E2",
                    "midi": 40,
                    "time": 402.6866175000001,
                    "velocity": 0.2755905511811024,
                    "duration": 0.29601993749997746
                },
                {
                    "name": "E2",
                    "midi": 40,
                    "time": 402.9851250000001,
                    "velocity": 0.2755905511811024,
                    "duration": 0.597014999999999
                },
                {
                    "name": "C#3",
                    "midi": 49,
                    "time": 402.9851250000001,
                    "velocity": 0.2755905511811024,
                    "duration": 0.597014999999999
                },
                {
                    "name": "D#2",
                    "midi": 39,
                    "time": 403.5821400000001,
                    "velocity": 0.2204724409448819,
                    "duration": 0.597014999999999
                },
                {
                    "name": "D#3",
                    "midi": 51,
                    "time": 403.5821400000001,
                    "velocity": 0.2283464566929134,
                    "duration": 0.597014999999999
                },
                {
                    "name": "D#2",
                    "midi": 39,
                    "time": 404.1791550000001,
                    "velocity": 0.23622047244094488,
                    "duration": 0.537313499999982
                },
                {
                    "name": "C#3",
                    "midi": 49,
                    "time": 404.1791550000001,
                    "velocity": 0.23622047244094488,
                    "duration": 0.537313499999982
                },
                {
                    "name": "D#3",
                    "midi": 51,
                    "time": 404.1791550000001,
                    "velocity": 0.23622047244094488,
                    "duration": 0.537313499999982
                },
                {
                    "name": "D#3",
                    "midi": 51,
                    "time": 404.7761700000001,
                    "velocity": 0.2204724409448819,
                    "duration": 1.194029999999998
                },
                {
                    "name": "G#2",
                    "midi": 44,
                    "time": 404.7761700000001,
                    "velocity": 0.2204724409448819,
                    "duration": 1.194029999999998
                },
                {
                    "name": "C3",
                    "midi": 48,
                    "time": 404.7761700000001,
                    "velocity": 0.2204724409448819,
                    "duration": 1.194029999999998
                },
                {
                    "name": "D#3",
                    "midi": 51,
                    "time": 405.9702000000001,
                    "velocity": 0.2125984251968504,
                    "duration": 0.5907960937499865
                },
                {
                    "name": "G#2",
                    "midi": 44,
                    "time": 406.5672150000001,
                    "velocity": 0.2125984251968504,
                    "duration": 1.791044999999997
                },
                {
                    "name": "D#3",
                    "midi": 51,
                    "time": 406.5672150000001,
                    "velocity": 0.2125984251968504,
                    "duration": 0.5907960937499865
                },
                {
                    "name": "D#3",
                    "midi": 51,
                    "time": 407.1642300000001,
                    "velocity": 0.2125984251968504,
                    "duration": 1.194029999999998
                },
                {
                    "name": "A#2",
                    "midi": 46,
                    "time": 408.3582600000001,
                    "velocity": 0.2125984251968504,
                    "duration": 1.791044999999997
                },
                {
                    "name": "D#3",
                    "midi": 51,
                    "time": 408.3582600000001,
                    "velocity": 0.2125984251968504,
                    "duration": 0.5907960937499865
                },
                {
                    "name": "D#3",
                    "midi": 51,
                    "time": 408.9552750000001,
                    "velocity": 0.2125984251968504,
                    "duration": 1.194029999999998
                },
                {
                    "name": "D#3",
                    "midi": 51,
                    "time": 410.1493050000001,
                    "velocity": 0.2125984251968504,
                    "duration": 0.5907960937499865
                },
                {
                    "name": "C3",
                    "midi": 48,
                    "time": 410.1493050000001,
                    "velocity": 0.2125984251968504,
                    "duration": 1.194029999999998
                },
                {
                    "name": "D#3",
                    "midi": 51,
                    "time": 410.7463200000001,
                    "velocity": 0.2204724409448819,
                    "duration": 0.5907960937499865
                },
                {
                    "name": "G2",
                    "midi": 43,
                    "time": 411.3433350000001,
                    "velocity": 0.2283464566929134,
                    "duration": 0.5907960937499865
                },
                {
                    "name": "D#3",
                    "midi": 51,
                    "time": 411.3433350000001,
                    "velocity": 0.2283464566929134,
                    "duration": 0.5907960937499865
                },
                {
                    "name": "G#2",
                    "midi": 44,
                    "time": 411.9403500000001,
                    "velocity": 0.25196850393700787,
                    "duration": 1.194029999999998
                },
                {
                    "name": "D#3",
                    "midi": 51,
                    "time": 411.9403500000001,
                    "velocity": 0.25196850393700787,
                    "duration": 1.194029999999998
                },
                {
                    "name": "D#3",
                    "midi": 51,
                    "time": 413.1343800000001,
                    "velocity": 0.29133858267716534,
                    "duration": 0.5907960937499865
                },
                {
                    "name": "D#3",
                    "midi": 51,
                    "time": 413.7313950000001,
                    "velocity": 0.28346456692913385,
                    "duration": 0.5907960937499865
                },
                {
                    "name": "F#2",
                    "midi": 42,
                    "time": 413.7313950000001,
                    "velocity": 0.28346456692913385,
                    "duration": 1.791044999999997
                },
                {
                    "name": "D#3",
                    "midi": 51,
                    "time": 414.3284100000001,
                    "velocity": 0.29133858267716534,
                    "duration": 1.194029999999998
                },
                {
                    "name": "F2",
                    "midi": 41,
                    "time": 415.5224400000001,
                    "velocity": 0.29133858267716534,
                    "duration": 1.4925375000000258
                },
                {
                    "name": "D#3",
                    "midi": 51,
                    "time": 415.5224400000001,
                    "velocity": 0.29133858267716534,
                    "duration": 0.5907960937499865
                },
                {
                    "name": "D#3",
                    "midi": 51,
                    "time": 416.1194550000001,
                    "velocity": 0.2755905511811024,
                    "duration": 0.8955225000000269
                },
                {
                    "name": "E2",
                    "midi": 40,
                    "time": 417.0149775000001,
                    "velocity": 0.2755905511811024,
                    "duration": 0.29601993749997746
                },
                {
                    "name": "C#3",
                    "midi": 49,
                    "time": 417.0149775000001,
                    "velocity": 0.2755905511811024,
                    "duration": 0.29601993749997746
                },
                {
                    "name": "C#3",
                    "midi": 49,
                    "time": 417.31348500000007,
                    "velocity": 0.2755905511811024,
                    "duration": 0.5907960937499865
                },
                {
                    "name": "E2",
                    "midi": 40,
                    "time": 417.31348500000007,
                    "velocity": 0.2755905511811024,
                    "duration": 0.5907960937499865
                },
                {
                    "name": "D#2",
                    "midi": 39,
                    "time": 417.91050000000007,
                    "velocity": 0.2204724409448819,
                    "duration": 0.5907960937499865
                },
                {
                    "name": "D#3",
                    "midi": 51,
                    "time": 417.91050000000007,
                    "velocity": 0.2283464566929134,
                    "duration": 0.5907960937499865
                },
                {
                    "name": "D#2",
                    "midi": 39,
                    "time": 418.50751500000007,
                    "velocity": 0.23622047244094488,
                    "duration": 0.537313499999982
                },
                {
                    "name": "D#3",
                    "midi": 51,
                    "time": 418.50751500000007,
                    "velocity": 0.23622047244094488,
                    "duration": 0.537313499999982
                },
                {
                    "name": "C#3",
                    "midi": 49,
                    "time": 418.50751500000007,
                    "velocity": 0.23622047244094488,
                    "duration": 0.537313499999982
                },
                {
                    "name": "D#3",
                    "midi": 51,
                    "time": 419.10453000000007,
                    "velocity": 0.2204724409448819,
                    "duration": 1.194029999999998
                },
                {
                    "name": "C3",
                    "midi": 48,
                    "time": 419.10453000000007,
                    "velocity": 0.2204724409448819,
                    "duration": 1.194029999999998
                },
                {
                    "name": "G#2",
                    "midi": 44,
                    "time": 419.10453000000007,
                    "velocity": 0.2204724409448819,
                    "duration": 1.194029999999998
                },
                {
                    "name": "E2",
                    "midi": 40,
                    "time": 420.5970675000001,
                    "velocity": 0.2755905511811024,
                    "duration": 0.29601993749997746
                },
                {
                    "name": "C#3",
                    "midi": 49,
                    "time": 420.5970675000001,
                    "velocity": 0.2755905511811024,
                    "duration": 0.29601993749997746
                },
                {
                    "name": "C#3",
                    "midi": 49,
                    "time": 420.89557500000006,
                    "velocity": 0.2755905511811024,
                    "duration": 0.597014999999999
                },
                {
                    "name": "E2",
                    "midi": 40,
                    "time": 420.89557500000006,
                    "velocity": 0.2755905511811024,
                    "duration": 0.597014999999999
                },
                {
                    "name": "D#2",
                    "midi": 39,
                    "time": 421.49259000000006,
                    "velocity": 0.2204724409448819,
                    "duration": 0.597014999999999
                },
                {
                    "name": "D#3",
                    "midi": 51,
                    "time": 421.49259000000006,
                    "velocity": 0.2283464566929134,
                    "duration": 0.597014999999999
                },
                {
                    "name": "C#3",
                    "midi": 49,
                    "time": 422.08960500000006,
                    "velocity": 0.23622047244094488,
                    "duration": 0.537313499999982
                },
                {
                    "name": "D#3",
                    "midi": 51,
                    "time": 422.08960500000006,
                    "velocity": 0.23622047244094488,
                    "duration": 0.537313499999982
                },
                {
                    "name": "D#2",
                    "midi": 39,
                    "time": 422.08960500000006,
                    "velocity": 0.23622047244094488,
                    "duration": 0.537313499999982
                },
                {
                    "name": "D#3",
                    "midi": 51,
                    "time": 422.68662000000006,
                    "velocity": 0.2204724409448819,
                    "duration": 1.4925375000000258
                },
                {
                    "name": "G#2",
                    "midi": 44,
                    "time": 422.68662000000006,
                    "velocity": 0.2204724409448819,
                    "duration": 1.4925375000000258
                },
                {
                    "name": "C3",
                    "midi": 48,
                    "time": 422.68662000000006,
                    "velocity": 0.2204724409448819,
                    "duration": 1.4925375000000258
                },
                {
                    "name": "C#3",
                    "midi": 49,
                    "time": 424.1791575000001,
                    "velocity": 0.2755905511811024,
                    "duration": 0.29601993749997746
                },
                {
                    "name": "A#2",
                    "midi": 46,
                    "time": 424.1791575000001,
                    "velocity": 0.2755905511811024,
                    "duration": 0.29601993749997746
                },
                {
                    "name": "E2",
                    "midi": 40,
                    "time": 424.1791575000001,
                    "velocity": 0.2755905511811024,
                    "duration": 0.29601993749997746
                },
                {
                    "name": "C#3",
                    "midi": 49,
                    "time": 424.47766500000006,
                    "velocity": 0.2755905511811024,
                    "duration": 0.597014999999999
                },
                {
                    "name": "E2",
                    "midi": 40,
                    "time": 424.47766500000006,
                    "velocity": 0.2755905511811024,
                    "duration": 0.597014999999999
                },
                {
                    "name": "A#2",
                    "midi": 46,
                    "time": 424.47766500000006,
                    "velocity": 0.2755905511811024,
                    "duration": 0.597014999999999
                },
                {
                    "name": "D#3",
                    "midi": 51,
                    "time": 425.07468000000006,
                    "velocity": 0.2204724409448819,
                    "duration": 0.597014999999999
                },
                {
                    "name": "D#2",
                    "midi": 39,
                    "time": 425.07468000000006,
                    "velocity": 0.2125984251968504,
                    "duration": 0.597014999999999
                },
                {
                    "name": "C3",
                    "midi": 48,
                    "time": 425.07468000000006,
                    "velocity": 0.2125984251968504,
                    "duration": 0.597014999999999
                },
                {
                    "name": "C#3",
                    "midi": 49,
                    "time": 425.67169500000006,
                    "velocity": 0.2283464566929134,
                    "duration": 0.537313499999982
                },
                {
                    "name": "D#2",
                    "midi": 39,
                    "time": 425.67169500000006,
                    "velocity": 0.2283464566929134,
                    "duration": 0.537313499999982
                },
                {
                    "name": "D#3",
                    "midi": 51,
                    "time": 425.67169500000006,
                    "velocity": 0.2283464566929134,
                    "duration": 0.537313499999982
                },
                {
                    "name": "D#3",
                    "midi": 51,
                    "time": 426.26871000000006,
                    "velocity": 0.2204724409448819,
                    "duration": 1.194029999999998
                },
                {
                    "name": "G#2",
                    "midi": 44,
                    "time": 426.26871000000006,
                    "velocity": 0.2204724409448819,
                    "duration": 1.194029999999998
                },
                {
                    "name": "C3",
                    "midi": 48,
                    "time": 426.26871000000006,
                    "velocity": 0.2204724409448819,
                    "duration": 1.194029999999998
                }
            ],
            "controlChanges": {
                "7": [
                    {
                        "number": 7,
                        "time": 0,
                        "value": 0.6299212598425197
                    }
                ],
                "91": [
                    {
                        "number": 91,
                        "time": 0,
                        "value": 0.9921259842519685
                    },
                    {
                        "number": 91,
                        "time": 166.56718499999994,
                        "value": 0.9921259842519685
                    },
                    {
                        "number": 91,
                        "time": 188.0597249999999,
                        "value": 0.9921259842519685
                    },
                    {
                        "number": 91,
                        "time": 209.55226499999986,
                        "value": 0.9921259842519685
                    },
                    {
                        "number": 91,
                        "time": 245.37316499999983,
                        "value": 0.9921259842519685
                    },
                    {
                        "number": 91,
                        "time": 266.8657049999998,
                        "value": 0.9921259842519685
                    },
                    {
                        "number": 91,
                        "time": 302.68660500000016,
                        "value": 0.9921259842519685
                    },
                    {
                        "number": 91,
                        "time": 336.7065097500001,
                        "value": 0.9921259842519685
                    }
                ]
            },
            "id": 2,
            "name": "Left",
            "instrumentNumber": 0,
            "instrument": "acoustic grand piano",
            "instrumentFamily": "piano",
            "channelNumber": 0,
            "isPercussion": false
        },
        {
            "startTime": 0,
            "duration": 0,
            "length": 0,
            "notes": [],
            "controlChanges": {
                "64": [
                    {
                        "number": 64,
                        "time": 1.268656875,
                        "value": 1
                    },
                    {
                        "number": 64,
                        "time": 3.5945278125,
                        "value": 0
                    },
                    {
                        "number": 64,
                        "time": 3.8805975,
                        "value": 1
                    },
                    {
                        "number": 64,
                        "time": 4.194030375,
                        "value": 0
                    },
                    {
                        "number": 64,
                        "time": 4.442786624999999,
                        "value": 1
                    },
                    {
                        "number": 64,
                        "time": 5.3855728124999995,
                        "value": 0
                    },
                    {
                        "number": 64,
                        "time": 5.844528093749999,
                        "value": 1
                    },
                    {
                        "number": 64,
                        "time": 7.1716426874999994,
                        "value": 0
                    },
                    {
                        "number": 64,
                        "time": 7.6293541875,
                        "value": 1
                    },
                    {
                        "number": 64,
                        "time": 8.968906593749999,
                        "value": 0
                    },
                    {
                        "number": 64,
                        "time": 9.191543437499998,
                        "value": 1
                    },
                    {
                        "number": 64,
                        "time": 10.754976468749998,
                        "value": 0
                    },
                    {
                        "number": 64,
                        "time": 11.044777499999999,
                        "value": 1
                    },
                    {
                        "number": 64,
                        "time": 11.359454156249999,
                        "value": 0
                    },
                    {
                        "number": 64,
                        "time": 11.606966624999998,
                        "value": 1
                    },
                    {
                        "number": 64,
                        "time": 12.547265249999999,
                        "value": 0
                    },
                    {
                        "number": 64,
                        "time": 12.740051343749998,
                        "value": 1
                    },
                    {
                        "number": 64,
                        "time": 13.149255375,
                        "value": 0
                    },
                    {
                        "number": 64,
                        "time": 13.309703156249999,
                        "value": 1
                    },
                    {
                        "number": 64,
                        "time": 13.746270374999998,
                        "value": 0
                    },
                    {
                        "number": 64,
                        "time": 13.915424624999998,
                        "value": 1
                    },
                    {
                        "number": 64,
                        "time": 14.340797812499998,
                        "value": 0
                    },
                    {
                        "number": 64,
                        "time": 14.992539187499998,
                        "value": 1
                    },
                    {
                        "number": 64,
                        "time": 16.12811146875,
                        "value": 0
                    },
                    {
                        "number": 64,
                        "time": 16.4004995625,
                        "value": 1
                    },
                    {
                        "number": 64,
                        "time": 17.91915646875,
                        "value": 0
                    },
                    {
                        "number": 64,
                        "time": 18.26244009375,
                        "value": 1
                    },
                    {
                        "number": 64,
                        "time": 18.52114659375,
                        "value": 0
                    },
                    {
                        "number": 64,
                        "time": 18.73632075,
                        "value": 1
                    },
                    {
                        "number": 64,
                        "time": 19.701495,
                        "value": 0
                    },
                    {
                        "number": 64,
                        "time": 20.17288809375,
                        "value": 1
                    },
                    {
                        "number": 64,
                        "time": 21.50124646875,
                        "value": 0
                    },
                    {
                        "number": 64,
                        "time": 21.957714187500002,
                        "value": 1
                    },
                    {
                        "number": 64,
                        "time": 23.29353525,
                        "value": 0
                    },
                    {
                        "number": 64,
                        "time": 23.5820925,
                        "value": 1
                    },
                    {
                        "number": 64,
                        "time": 25.0820926875,
                        "value": 0
                    },
                    {
                        "number": 64,
                        "time": 25.3557245625,
                        "value": 1
                    },
                    {
                        "number": 64,
                        "time": 26.8830879375,
                        "value": 0
                    },
                    {
                        "number": 64,
                        "time": 26.949008343750002,
                        "value": 1
                    },
                    {
                        "number": 64,
                        "time": 27.477615375000003,
                        "value": 0
                    },
                    {
                        "number": 64,
                        "time": 27.550998468750002,
                        "value": 1
                    },
                    {
                        "number": 64,
                        "time": 28.074630375,
                        "value": 0
                    },
                    {
                        "number": 64,
                        "time": 28.143038343750003,
                        "value": 1
                    },
                    {
                        "number": 64,
                        "time": 28.669157812500004,
                        "value": 0
                    },
                    {
                        "number": 64,
                        "time": 29.121894187500004,
                        "value": 1
                    },
                    {
                        "number": 64,
                        "time": 29.850750000000005,
                        "value": 0
                    },
                    {
                        "number": 64,
                        "time": 30.074630625000005,
                        "value": 1
                    },
                    {
                        "number": 64,
                        "time": 32.251247812500004,
                        "value": 0
                    },
                    {
                        "number": 64,
                        "time": 32.53731750000001,
                        "value": 1
                    },
                    {
                        "number": 64,
                        "time": 32.850750375000004,
                        "value": 0
                    },
                    {
                        "number": 64,
                        "time": 33.099506625000004,
                        "value": 1
                    },
                    {
                        "number": 64,
                        "time": 34.0422928125,
                        "value": 0
                    },
                    {
                        "number": 64,
                        "time": 34.50124809375,
                        "value": 1
                    },
                    {
                        "number": 64,
                        "time": 35.8283626875,
                        "value": 0
                    },
                    {
                        "number": 64,
                        "time": 36.2860741875,
                        "value": 1
                    },
                    {
                        "number": 64,
                        "time": 37.62562659375,
                        "value": 0
                    },
                    {
                        "number": 64,
                        "time": 37.8482634375,
                        "value": 1
                    },
                    {
                        "number": 64,
                        "time": 39.41169646875,
                        "value": 0
                    },
                    {
                        "number": 64,
                        "time": 39.7014975,
                        "value": 1
                    },
                    {
                        "number": 64,
                        "time": 40.01617415625,
                        "value": 0
                    },
                    {
                        "number": 64,
                        "time": 40.263686625000005,
                        "value": 1
                    },
                    {
                        "number": 64,
                        "time": 41.20398525,
                        "value": 0
                    },
                    {
                        "number": 64,
                        "time": 41.396771343750004,
                        "value": 1
                    },
                    {
                        "number": 64,
                        "time": 41.805975375,
                        "value": 0
                    },
                    {
                        "number": 64,
                        "time": 41.96642315625,
                        "value": 1
                    },
                    {
                        "number": 64,
                        "time": 42.402990375,
                        "value": 0
                    },
                    {
                        "number": 64,
                        "time": 42.572144625,
                        "value": 1
                    },
                    {
                        "number": 64,
                        "time": 42.9975178125,
                        "value": 0
                    },
                    {
                        "number": 64,
                        "time": 43.6492591875,
                        "value": 1
                    },
                    {
                        "number": 64,
                        "time": 44.78483146875,
                        "value": 0
                    },
                    {
                        "number": 64,
                        "time": 45.0572195625,
                        "value": 1
                    },
                    {
                        "number": 64,
                        "time": 46.57587646875,
                        "value": 0
                    },
                    {
                        "number": 64,
                        "time": 46.91916009375,
                        "value": 1
                    },
                    {
                        "number": 64,
                        "time": 47.177866593750004,
                        "value": 0
                    },
                    {
                        "number": 64,
                        "time": 47.393040750000004,
                        "value": 1
                    },
                    {
                        "number": 64,
                        "time": 48.358215,
                        "value": 0
                    },
                    {
                        "number": 64,
                        "time": 48.829608093750004,
                        "value": 1
                    },
                    {
                        "number": 64,
                        "time": 50.157966468750004,
                        "value": 0
                    },
                    {
                        "number": 64,
                        "time": 50.6144341875,
                        "value": 1
                    },
                    {
                        "number": 64,
                        "time": 51.950255250000005,
                        "value": 0
                    },
                    {
                        "number": 64,
                        "time": 52.2388125,
                        "value": 1
                    },
                    {
                        "number": 64,
                        "time": 53.7388126875,
                        "value": 0
                    },
                    {
                        "number": 64,
                        "time": 54.0124445625,
                        "value": 1
                    },
                    {
                        "number": 64,
                        "time": 55.5398079375,
                        "value": 0
                    },
                    {
                        "number": 64,
                        "time": 55.60572834375,
                        "value": 1
                    },
                    {
                        "number": 64,
                        "time": 56.134335375,
                        "value": 0
                    },
                    {
                        "number": 64,
                        "time": 56.20771846875,
                        "value": 1
                    },
                    {
                        "number": 64,
                        "time": 56.731350375000005,
                        "value": 0
                    },
                    {
                        "number": 64,
                        "time": 56.79975834375001,
                        "value": 1
                    },
                    {
                        "number": 64,
                        "time": 57.3258778125,
                        "value": 0
                    },
                    {
                        "number": 64,
                        "time": 57.629360437500004,
                        "value": 1
                    },
                    {
                        "number": 64,
                        "time": 58.507470000000005,
                        "value": 0
                    },
                    {
                        "number": 64,
                        "time": 58.830853125000004,
                        "value": 1
                    },
                    {
                        "number": 64,
                        "time": 62.686575000000005,
                        "value": 0
                    },
                    {
                        "number": 64,
                        "time": 65.9179186875,
                        "value": 1
                    },
                    {
                        "number": 64,
                        "time": 69.850755,
                        "value": 0
                    },
                    {
                        "number": 64,
                        "time": 73.12314346875,
                        "value": 1
                    },
                    {
                        "number": 64,
                        "time": 75.22389,
                        "value": 0
                    },
                    {
                        "number": 64,
                        "time": 76.74503446874999,
                        "value": 1
                    },
                    {
                        "number": 64,
                        "time": 78.80597999999999,
                        "value": 0
                    },
                    {
                        "number": 64,
                        "time": 80.76369168749999,
                        "value": 1
                    },
                    {
                        "number": 64,
                        "time": 82.40050781249998,
                        "value": 0
                    },
                    {
                        "number": 64,
                        "time": 82.78607999999998,
                        "value": 1
                    },
                    {
                        "number": 64,
                        "time": 84.17911499999998,
                        "value": 0
                    },
                    {
                        "number": 64,
                        "time": 84.44279662499999,
                        "value": 1
                    },
                    {
                        "number": 64,
                        "time": 85.98259781249999,
                        "value": 0
                    },
                    {
                        "number": 64,
                        "time": 86.2512545625,
                        "value": 1
                    },
                    {
                        "number": 64,
                        "time": 86.57961281249999,
                        "value": 0
                    },
                    {
                        "number": 64,
                        "time": 86.8482695625,
                        "value": 1
                    },
                    {
                        "number": 64,
                        "time": 87.76742390624999,
                        "value": 0
                    },
                    {
                        "number": 64,
                        "time": 88.17040903124999,
                        "value": 1
                    },
                    {
                        "number": 64,
                        "time": 89.55224999999999,
                        "value": 0
                    },
                    {
                        "number": 64,
                        "time": 90.01742418749998,
                        "value": 1
                    },
                    {
                        "number": 64,
                        "time": 91.34329499999998,
                        "value": 0
                    },
                    {
                        "number": 64,
                        "time": 91.67662837499998,
                        "value": 1
                    },
                    {
                        "number": 64,
                        "time": 93.14677781249998,
                        "value": 0
                    },
                    {
                        "number": 64,
                        "time": 93.39055893749997,
                        "value": 1
                    },
                    {
                        "number": 64,
                        "time": 93.74628037499997,
                        "value": 0
                    },
                    {
                        "number": 64,
                        "time": 93.95896696874996,
                        "value": 1
                    },
                    {
                        "number": 64,
                        "time": 94.63309640624996,
                        "value": 0
                    },
                    {
                        "number": 64,
                        "time": 98.51245012499996,
                        "value": 0
                    },
                    {
                        "number": 64,
                        "time": 98.77115662499996,
                        "value": 1
                    },
                    {
                        "number": 64,
                        "time": 100.30971403124997,
                        "value": 0
                    },
                    {
                        "number": 64,
                        "time": 100.59702749999997,
                        "value": 1
                    },
                    {
                        "number": 64,
                        "time": 100.91170415624997,
                        "value": 0
                    },
                    {
                        "number": 64,
                        "time": 101.19404249999997,
                        "value": 1
                    },
                    {
                        "number": 64,
                        "time": 102.10075903124996,
                        "value": 0
                    },
                    {
                        "number": 64,
                        "time": 102.49876903124996,
                        "value": 1
                    },
                    {
                        "number": 64,
                        "time": 103.88931646874997,
                        "value": 0
                    },
                    {
                        "number": 64,
                        "time": 104.27861999999996,
                        "value": 1
                    },
                    {
                        "number": 64,
                        "time": 105.67165499999996,
                        "value": 0
                    },
                    {
                        "number": 64,
                        "time": 106.00498837499995,
                        "value": 1
                    },
                    {
                        "number": 64,
                        "time": 107.47513781249995,
                        "value": 0
                    },
                    {
                        "number": 64,
                        "time": 107.71891893749995,
                        "value": 1
                    },
                    {
                        "number": 64,
                        "time": 108.07464037499994,
                        "value": 0
                    },
                    {
                        "number": 64,
                        "time": 108.28732696874994,
                        "value": 1
                    },
                    {
                        "number": 64,
                        "time": 109.25374499999994,
                        "value": 0
                    },
                    {
                        "number": 64,
                        "time": 112.56220312499994,
                        "value": 1
                    },
                    {
                        "number": 64,
                        "time": 116.12936774999994,
                        "value": 0
                    },
                    {
                        "number": 64,
                        "time": 119.64926868749994,
                        "value": 1
                    },
                    {
                        "number": 64,
                        "time": 123.58210499999994,
                        "value": 0
                    },
                    {
                        "number": 64,
                        "time": 126.85449346874994,
                        "value": 1
                    },
                    {
                        "number": 64,
                        "time": 128.95523999999995,
                        "value": 0
                    },
                    {
                        "number": 64,
                        "time": 130.47638446874996,
                        "value": 1
                    },
                    {
                        "number": 64,
                        "time": 132.53732999999997,
                        "value": 0
                    },
                    {
                        "number": 64,
                        "time": 134.49504168749996,
                        "value": 1
                    },
                    {
                        "number": 64,
                        "time": 136.13185781249996,
                        "value": 0
                    },
                    {
                        "number": 64,
                        "time": 136.51742999999996,
                        "value": 1
                    },
                    {
                        "number": 64,
                        "time": 137.91046499999996,
                        "value": 0
                    },
                    {
                        "number": 64,
                        "time": 138.17414662499996,
                        "value": 1
                    },
                    {
                        "number": 64,
                        "time": 139.71394781249995,
                        "value": 0
                    },
                    {
                        "number": 64,
                        "time": 139.98260456249994,
                        "value": 1
                    },
                    {
                        "number": 64,
                        "time": 140.31096281249995,
                        "value": 0
                    },
                    {
                        "number": 64,
                        "time": 140.57961956249994,
                        "value": 1
                    },
                    {
                        "number": 64,
                        "time": 141.49877390624994,
                        "value": 0
                    },
                    {
                        "number": 64,
                        "time": 141.90175903124992,
                        "value": 1
                    },
                    {
                        "number": 64,
                        "time": 143.28359999999992,
                        "value": 0
                    },
                    {
                        "number": 64,
                        "time": 143.74877418749992,
                        "value": 1
                    },
                    {
                        "number": 64,
                        "time": 145.07464499999992,
                        "value": 0
                    },
                    {
                        "number": 64,
                        "time": 145.4079783749999,
                        "value": 1
                    },
                    {
                        "number": 64,
                        "time": 146.8781278124999,
                        "value": 0
                    },
                    {
                        "number": 64,
                        "time": 147.1219089374999,
                        "value": 1
                    },
                    {
                        "number": 64,
                        "time": 147.4776303749999,
                        "value": 0
                    },
                    {
                        "number": 64,
                        "time": 147.6903169687499,
                        "value": 1
                    },
                    {
                        "number": 64,
                        "time": 148.3644464062499,
                        "value": 0
                    },
                    {
                        "number": 64,
                        "time": 152.2438001249999,
                        "value": 0
                    },
                    {
                        "number": 64,
                        "time": 152.50250662499988,
                        "value": 1
                    },
                    {
                        "number": 64,
                        "time": 154.04106403124987,
                        "value": 0
                    },
                    {
                        "number": 64,
                        "time": 154.32837749999987,
                        "value": 1
                    },
                    {
                        "number": 64,
                        "time": 154.64305415624986,
                        "value": 0
                    },
                    {
                        "number": 64,
                        "time": 154.92539249999987,
                        "value": 1
                    },
                    {
                        "number": 64,
                        "time": 155.83210903124987,
                        "value": 0
                    },
                    {
                        "number": 64,
                        "time": 156.23011903124987,
                        "value": 1
                    },
                    {
                        "number": 64,
                        "time": 157.62066646874987,
                        "value": 0
                    },
                    {
                        "number": 64,
                        "time": 158.20897499999987,
                        "value": 1
                    },
                    {
                        "number": 64,
                        "time": 159.40300499999987,
                        "value": 0
                    },
                    {
                        "number": 64,
                        "time": 159.73633837499986,
                        "value": 1
                    },
                    {
                        "number": 64,
                        "time": 161.20648781249986,
                        "value": 0
                    },
                    {
                        "number": 64,
                        "time": 161.45026893749986,
                        "value": 1
                    },
                    {
                        "number": 64,
                        "time": 161.80599037499985,
                        "value": 0
                    },
                    {
                        "number": 64,
                        "time": 162.01867696874984,
                        "value": 1
                    },
                    {
                        "number": 64,
                        "time": 162.98509499999983,
                        "value": 0
                    },
                    {
                        "number": 64,
                        "time": 166.70773228124983,
                        "value": 1
                    },
                    {
                        "number": 64,
                        "time": 168.37439915624984,
                        "value": 0
                    },
                    {
                        "number": 64,
                        "time": 168.56096634374984,
                        "value": 1
                    },
                    {
                        "number": 64,
                        "time": 170.14927499999985,
                        "value": 0
                    },
                    {
                        "number": 64,
                        "time": 170.23882724999984,
                        "value": 1
                    },
                    {
                        "number": 64,
                        "time": 170.76121537499984,
                        "value": 0
                    },
                    {
                        "number": 64,
                        "time": 170.86569299999982,
                        "value": 1
                    },
                    {
                        "number": 64,
                        "time": 171.35823037499983,
                        "value": 0
                    },
                    {
                        "number": 64,
                        "time": 171.47514581249985,
                        "value": 1
                    },
                    {
                        "number": 64,
                        "time": 171.90425034374985,
                        "value": 0
                    },
                    {
                        "number": 64,
                        "time": 172.05474787499986,
                        "value": 1
                    },
                    {
                        "number": 64,
                        "time": 172.55350415624986,
                        "value": 0
                    },
                    {
                        "number": 64,
                        "time": 172.66046934374987,
                        "value": 1
                    },
                    {
                        "number": 64,
                        "time": 173.14803159374986,
                        "value": 0
                    },
                    {
                        "number": 64,
                        "time": 173.24877787499986,
                        "value": 1
                    },
                    {
                        "number": 64,
                        "time": 173.73385256249986,
                        "value": 0
                    },
                    {
                        "number": 64,
                        "time": 173.89803168749987,
                        "value": 1
                    },
                    {
                        "number": 64,
                        "time": 175.52987268749987,
                        "value": 0
                    },
                    {
                        "number": 64,
                        "time": 175.63683787499988,
                        "value": 1
                    },
                    {
                        "number": 64,
                        "time": 177.31843012499988,
                        "value": 0
                    },
                    {
                        "number": 64,
                        "time": 177.42166396874987,
                        "value": 1
                    },
                    {
                        "number": 64,
                        "time": 177.92539537499988,
                        "value": 0
                    },
                    {
                        "number": 64,
                        "time": 178.0000222499999,
                        "value": 1
                    },
                    {
                        "number": 64,
                        "time": 178.52365415624988,
                        "value": 0
                    },
                    {
                        "number": 64,
                        "time": 178.61569396874987,
                        "value": 1
                    },
                    {
                        "number": 64,
                        "time": 179.10823134374988,
                        "value": 0
                    },
                    {
                        "number": 64,
                        "time": 179.21892787499988,
                        "value": 1
                    },
                    {
                        "number": 64,
                        "time": 179.71644037499988,
                        "value": 0
                    },
                    {
                        "number": 64,
                        "time": 179.84206228124987,
                        "value": 1
                    },
                    {
                        "number": 64,
                        "time": 180.31345537499988,
                        "value": 0
                    },
                    {
                        "number": 64,
                        "time": 180.4303708124999,
                        "value": 1
                    },
                    {
                        "number": 64,
                        "time": 180.9030076874999,
                        "value": 0
                    },
                    {
                        "number": 64,
                        "time": 181.01867934374988,
                        "value": 1
                    },
                    {
                        "number": 64,
                        "time": 181.50748537499987,
                        "value": 0
                    },
                    {
                        "number": 64,
                        "time": 181.61569434374988,
                        "value": 1
                    },
                    {
                        "number": 64,
                        "time": 182.10574415624987,
                        "value": 0
                    },
                    {
                        "number": 64,
                        "time": 182.23012228124986,
                        "value": 1
                    },
                    {
                        "number": 64,
                        "time": 182.70649049999986,
                        "value": 0
                    },
                    {
                        "number": 64,
                        "time": 182.82713728124986,
                        "value": 1
                    },
                    {
                        "number": 64,
                        "time": 183.29853037499987,
                        "value": 0
                    },
                    {
                        "number": 64,
                        "time": 183.44156521874987,
                        "value": 1
                    },
                    {
                        "number": 64,
                        "time": 183.89554537499987,
                        "value": 0
                    },
                    {
                        "number": 64,
                        "time": 184.01246081249988,
                        "value": 1
                    },
                    {
                        "number": 64,
                        "time": 184.4838539062499,
                        "value": 0
                    },
                    {
                        "number": 64,
                        "time": 184.6181822812499,
                        "value": 1
                    },
                    {
                        "number": 64,
                        "time": 185.0895753749999,
                        "value": 0
                    },
                    {
                        "number": 64,
                        "time": 185.2064908124999,
                        "value": 1
                    },
                    {
                        "number": 64,
                        "time": 185.6903217187499,
                        "value": 0
                    },
                    {
                        "number": 64,
                        "time": 185.8122122812499,
                        "value": 1
                    },
                    {
                        "number": 64,
                        "time": 186.27489890624992,
                        "value": 0
                    },
                    {
                        "number": 64,
                        "time": 186.38310787499992,
                        "value": 1
                    },
                    {
                        "number": 64,
                        "time": 188.06843146874994,
                        "value": 0
                    },
                    {
                        "number": 64,
                        "time": 188.20027228124994,
                        "value": 1
                    },
                    {
                        "number": 64,
                        "time": 189.85076999999993,
                        "value": 0
                    },
                    {
                        "number": 64,
                        "time": 189.99131728124993,
                        "value": 1
                    },
                    {
                        "number": 64,
                        "time": 191.64181499999992,
                        "value": 0
                    },
                    {
                        "number": 64,
                        "time": 191.73136724999992,
                        "value": 1
                    },
                    {
                        "number": 64,
                        "time": 192.2537553749999,
                        "value": 0
                    },
                    {
                        "number": 64,
                        "time": 192.3582329999999,
                        "value": 1
                    },
                    {
                        "number": 64,
                        "time": 192.8507703749999,
                        "value": 0
                    },
                    {
                        "number": 64,
                        "time": 192.96768581249992,
                        "value": 1
                    },
                    {
                        "number": 64,
                        "time": 193.39679034374993,
                        "value": 0
                    },
                    {
                        "number": 64,
                        "time": 193.54728787499994,
                        "value": 1
                    },
                    {
                        "number": 64,
                        "time": 194.04604415624993,
                        "value": 0
                    },
                    {
                        "number": 64,
                        "time": 194.15300934374994,
                        "value": 1
                    },
                    {
                        "number": 64,
                        "time": 194.64057159374994,
                        "value": 0
                    },
                    {
                        "number": 64,
                        "time": 194.74131787499994,
                        "value": 1
                    },
                    {
                        "number": 64,
                        "time": 195.22639256249994,
                        "value": 0
                    },
                    {
                        "number": 64,
                        "time": 195.39057168749994,
                        "value": 1
                    },
                    {
                        "number": 64,
                        "time": 197.02241268749995,
                        "value": 0
                    },
                    {
                        "number": 64,
                        "time": 197.12937787499996,
                        "value": 1
                    },
                    {
                        "number": 64,
                        "time": 198.81097012499995,
                        "value": 0
                    },
                    {
                        "number": 64,
                        "time": 198.91420396874994,
                        "value": 1
                    },
                    {
                        "number": 64,
                        "time": 199.41793537499996,
                        "value": 0
                    },
                    {
                        "number": 64,
                        "time": 199.49256224999996,
                        "value": 1
                    },
                    {
                        "number": 64,
                        "time": 200.01619415624995,
                        "value": 0
                    },
                    {
                        "number": 64,
                        "time": 200.10823396874994,
                        "value": 1
                    },
                    {
                        "number": 64,
                        "time": 200.60077134374995,
                        "value": 0
                    },
                    {
                        "number": 64,
                        "time": 200.71146787499995,
                        "value": 1
                    },
                    {
                        "number": 64,
                        "time": 201.20898037499995,
                        "value": 0
                    },
                    {
                        "number": 64,
                        "time": 201.33460228124994,
                        "value": 1
                    },
                    {
                        "number": 64,
                        "time": 201.80599537499995,
                        "value": 0
                    },
                    {
                        "number": 64,
                        "time": 201.92291081249996,
                        "value": 1
                    },
                    {
                        "number": 64,
                        "time": 202.39554768749997,
                        "value": 0
                    },
                    {
                        "number": 64,
                        "time": 202.51121934374996,
                        "value": 1
                    },
                    {
                        "number": 64,
                        "time": 203.00002537499995,
                        "value": 0
                    },
                    {
                        "number": 64,
                        "time": 203.10823434374996,
                        "value": 1
                    },
                    {
                        "number": 64,
                        "time": 203.59828415624995,
                        "value": 0
                    },
                    {
                        "number": 64,
                        "time": 203.72266228124994,
                        "value": 1
                    },
                    {
                        "number": 64,
                        "time": 204.19903049999994,
                        "value": 0
                    },
                    {
                        "number": 64,
                        "time": 204.31967728124994,
                        "value": 1
                    },
                    {
                        "number": 64,
                        "time": 204.79107037499995,
                        "value": 0
                    },
                    {
                        "number": 64,
                        "time": 204.93410521874995,
                        "value": 1
                    },
                    {
                        "number": 64,
                        "time": 205.38808537499995,
                        "value": 0
                    },
                    {
                        "number": 64,
                        "time": 205.50500081249996,
                        "value": 1
                    },
                    {
                        "number": 64,
                        "time": 205.97639390624997,
                        "value": 0
                    },
                    {
                        "number": 64,
                        "time": 206.11072228124996,
                        "value": 1
                    },
                    {
                        "number": 64,
                        "time": 206.58211537499997,
                        "value": 0
                    },
                    {
                        "number": 64,
                        "time": 206.69903081249998,
                        "value": 1
                    },
                    {
                        "number": 64,
                        "time": 207.18286171875,
                        "value": 0
                    },
                    {
                        "number": 64,
                        "time": 207.30475228125,
                        "value": 1
                    },
                    {
                        "number": 64,
                        "time": 207.76743890625,
                        "value": 0
                    },
                    {
                        "number": 64,
                        "time": 207.875647875,
                        "value": 1
                    },
                    {
                        "number": 64,
                        "time": 209.552265,
                        "value": 0
                    },
                    {
                        "number": 64,
                        "time": 209.68783715625,
                        "value": 1
                    },
                    {
                        "number": 64,
                        "time": 211.34331,
                        "value": 0
                    },
                    {
                        "number": 64,
                        "time": 211.47888215625,
                        "value": 1
                    },
                    {
                        "number": 64,
                        "time": 213.1418176875,
                        "value": 0
                    },
                    {
                        "number": 64,
                        "time": 213.2661958125,
                        "value": 1
                    },
                    {
                        "number": 64,
                        "time": 213.746295375,
                        "value": 0
                    },
                    {
                        "number": 64,
                        "time": 213.8632108125,
                        "value": 1
                    },
                    {
                        "number": 64,
                        "time": 214.34455415625,
                        "value": 0
                    },
                    {
                        "number": 64,
                        "time": 214.4602258125,
                        "value": 1
                    },
                    {
                        "number": 64,
                        "time": 214.9254,
                        "value": 0
                    },
                    {
                        "number": 64,
                        "time": 215.01868359374998,
                        "value": 1
                    },
                    {
                        "number": 64,
                        "time": 215.53858415624998,
                        "value": 0
                    },
                    {
                        "number": 64,
                        "time": 215.62938018749998,
                        "value": 1
                    },
                    {
                        "number": 64,
                        "time": 216.13559915624998,
                        "value": 0
                    },
                    {
                        "number": 64,
                        "time": 216.25500215625,
                        "value": 1
                    },
                    {
                        "number": 64,
                        "time": 216.72763903125,
                        "value": 0
                    },
                    {
                        "number": 64,
                        "time": 216.83709178125,
                        "value": 1
                    },
                    {
                        "number": 64,
                        "time": 218.51744025,
                        "value": 0
                    },
                    {
                        "number": 64,
                        "time": 218.6144551875,
                        "value": 1
                    },
                    {
                        "number": 64,
                        "time": 220.313460375,
                        "value": 0
                    },
                    {
                        "number": 64,
                        "time": 220.43908228125,
                        "value": 1
                    },
                    {
                        "number": 64,
                        "time": 220.910475375,
                        "value": 0
                    },
                    {
                        "number": 64,
                        "time": 221.02739081250002,
                        "value": 1
                    },
                    {
                        "number": 64,
                        "time": 221.507490375,
                        "value": 0
                    },
                    {
                        "number": 64,
                        "time": 221.606992875,
                        "value": 1
                    },
                    {
                        "number": 64,
                        "time": 222.09331134375,
                        "value": 0
                    },
                    {
                        "number": 64,
                        "time": 222.22515215625,
                        "value": 1
                    },
                    {
                        "number": 64,
                        "time": 222.70276415625,
                        "value": 0
                    },
                    {
                        "number": 64,
                        "time": 222.81470446875,
                        "value": 1
                    },
                    {
                        "number": 64,
                        "time": 223.29977915625,
                        "value": 0
                    },
                    {
                        "number": 64,
                        "time": 223.40425678124998,
                        "value": 1
                    },
                    {
                        "number": 64,
                        "time": 223.88933146875,
                        "value": 0
                    },
                    {
                        "number": 64,
                        "time": 224.00127178124998,
                        "value": 1
                    },
                    {
                        "number": 64,
                        "time": 224.49380915625,
                        "value": 0
                    },
                    {
                        "number": 64,
                        "time": 224.60574946875,
                        "value": 1
                    },
                    {
                        "number": 64,
                        "time": 225.09082415625,
                        "value": 0
                    },
                    {
                        "number": 64,
                        "time": 225.21022715625,
                        "value": 1
                    },
                    {
                        "number": 64,
                        "time": 225.79977946875,
                        "value": 0
                    },
                    {
                        "number": 64,
                        "time": 225.90674465625,
                        "value": 1
                    },
                    {
                        "number": 64,
                        "time": 226.2811228125,
                        "value": 0
                    },
                    {
                        "number": 64,
                        "time": 226.38933178125,
                        "value": 1
                    },
                    {
                        "number": 64,
                        "time": 226.88311293750002,
                        "value": 0
                    },
                    {
                        "number": 64,
                        "time": 226.99380946875002,
                        "value": 1
                    },
                    {
                        "number": 64,
                        "time": 227.4701776875,
                        "value": 0
                    },
                    {
                        "number": 64,
                        "time": 227.5622175,
                        "value": 1
                    },
                    {
                        "number": 64,
                        "time": 238.208985,
                        "value": 0
                    },
                    {
                        "number": 64,
                        "time": 238.35201984375,
                        "value": 1
                    },
                    {
                        "number": 64,
                        "time": 240.00003,
                        "value": 0
                    },
                    {
                        "number": 64,
                        "time": 240.064706625,
                        "value": 1
                    },
                    {
                        "number": 64,
                        "time": 241.791075,
                        "value": 0
                    },
                    {
                        "number": 64,
                        "time": 241.91420934375,
                        "value": 1
                    },
                    {
                        "number": 64,
                        "time": 243.5895826875,
                        "value": 0
                    },
                    {
                        "number": 64,
                        "time": 243.74008021875002,
                        "value": 1
                    },
                    {
                        "number": 64,
                        "time": 245.38187146875003,
                        "value": 0
                    },
                    {
                        "number": 64,
                        "time": 245.54853815625003,
                        "value": 1
                    },
                    {
                        "number": 64,
                        "time": 247.18286671875003,
                        "value": 0
                    },
                    {
                        "number": 64,
                        "time": 247.33087668750002,
                        "value": 1
                    },
                    {
                        "number": 64,
                        "time": 248.960230125,
                        "value": 0
                    },
                    {
                        "number": 64,
                        "time": 249.08087690625,
                        "value": 1
                    },
                    {
                        "number": 64,
                        "time": 249.5696829375,
                        "value": 0
                    },
                    {
                        "number": 64,
                        "time": 249.66047896875,
                        "value": 1
                    },
                    {
                        "number": 64,
                        "time": 250.16545415625,
                        "value": 0
                    },
                    {
                        "number": 64,
                        "time": 250.2512750625,
                        "value": 1
                    },
                    {
                        "number": 64,
                        "time": 250.75500646875003,
                        "value": 0
                    },
                    {
                        "number": 64,
                        "time": 250.89555375000003,
                        "value": 1
                    },
                    {
                        "number": 64,
                        "time": 251.36072793750003,
                        "value": 0
                    },
                    {
                        "number": 64,
                        "time": 251.48386228125003,
                        "value": 1
                    },
                    {
                        "number": 64,
                        "time": 251.95649915625003,
                        "value": 0
                    },
                    {
                        "number": 64,
                        "time": 252.08087728125003,
                        "value": 1
                    },
                    {
                        "number": 64,
                        "time": 252.54232012500003,
                        "value": 0
                    },
                    {
                        "number": 64,
                        "time": 252.68659875000003,
                        "value": 1
                    },
                    {
                        "number": 64,
                        "time": 254.34331537500003,
                        "value": 0
                    },
                    {
                        "number": 64,
                        "time": 254.43411140625003,
                        "value": 1
                    },
                    {
                        "number": 64,
                        "time": 256.12316634375003,
                        "value": 0
                    },
                    {
                        "number": 64,
                        "time": 256.22764396875004,
                        "value": 1
                    },
                    {
                        "number": 64,
                        "time": 256.73261915625005,
                        "value": 0
                    },
                    {
                        "number": 64,
                        "time": 256.83585300000004,
                        "value": 1
                    },
                    {
                        "number": 64,
                        "time": 257.32963415625005,
                        "value": 0
                    },
                    {
                        "number": 64,
                        "time": 257.42167396875004,
                        "value": 1
                    },
                    {
                        "number": 64,
                        "time": 257.91669890625,
                        "value": 0
                    },
                    {
                        "number": 64,
                        "time": 258.05102728125,
                        "value": 1
                    },
                    {
                        "number": 64,
                        "time": 258.5249079375,
                        "value": 0
                    },
                    {
                        "number": 64,
                        "time": 258.6393358125,
                        "value": 1
                    },
                    {
                        "number": 64,
                        "time": 259.1219229375,
                        "value": 0
                    },
                    {
                        "number": 64,
                        "time": 259.20152493750004,
                        "value": 1
                    },
                    {
                        "number": 64,
                        "time": 259.70525634375,
                        "value": 0
                    },
                    {
                        "number": 64,
                        "time": 259.80724640625004,
                        "value": 1
                    },
                    {
                        "number": 64,
                        "time": 260.31470915625005,
                        "value": 0
                    },
                    {
                        "number": 64,
                        "time": 260.43038081250006,
                        "value": 1
                    },
                    {
                        "number": 64,
                        "time": 260.91545550000006,
                        "value": 0
                    },
                    {
                        "number": 64,
                        "time": 261.0535152187501,
                        "value": 1
                    },
                    {
                        "number": 64,
                        "time": 261.50998293750007,
                        "value": 0
                    },
                    {
                        "number": 64,
                        "time": 261.61570434375005,
                        "value": 1
                    },
                    {
                        "number": 64,
                        "time": 262.10699793750007,
                        "value": 0
                    },
                    {
                        "number": 64,
                        "time": 262.22142581250006,
                        "value": 1
                    },
                    {
                        "number": 64,
                        "time": 262.70525671875004,
                        "value": 0
                    },
                    {
                        "number": 64,
                        "time": 262.80973434375005,
                        "value": 1
                    },
                    {
                        "number": 64,
                        "time": 263.29232146875006,
                        "value": 0
                    },
                    {
                        "number": 64,
                        "time": 263.4415752187501,
                        "value": 1
                    },
                    {
                        "number": 64,
                        "time": 263.8992867187501,
                        "value": 0
                    },
                    {
                        "number": 64,
                        "time": 264.0124708125001,
                        "value": 1
                    },
                    {
                        "number": 64,
                        "time": 264.4975455000001,
                        "value": 0
                    },
                    {
                        "number": 64,
                        "time": 264.6094858125001,
                        "value": 1
                    },
                    {
                        "number": 64,
                        "time": 265.0796351250001,
                        "value": 0
                    },
                    {
                        "number": 64,
                        "time": 265.2413266875001,
                        "value": 1
                    },
                    {
                        "number": 64,
                        "time": 266.8657050000001,
                        "value": 0
                    },
                    {
                        "number": 64,
                        "time": 267.0012771562501,
                        "value": 1
                    },
                    {
                        "number": 64,
                        "time": 268.6567500000001,
                        "value": 0
                    },
                    {
                        "number": 64,
                        "time": 268.7923221562501,
                        "value": 1
                    },
                    {
                        "number": 64,
                        "time": 270.45525768750014,
                        "value": 0
                    },
                    {
                        "number": 64,
                        "time": 270.57963581250016,
                        "value": 1
                    },
                    {
                        "number": 64,
                        "time": 271.0597353750002,
                        "value": 0
                    },
                    {
                        "number": 64,
                        "time": 271.17665081250016,
                        "value": 1
                    },
                    {
                        "number": 64,
                        "time": 271.65799415625014,
                        "value": 0
                    },
                    {
                        "number": 64,
                        "time": 271.77366581250016,
                        "value": 1
                    },
                    {
                        "number": 64,
                        "time": 272.23884000000015,
                        "value": 0
                    },
                    {
                        "number": 64,
                        "time": 272.33212359375017,
                        "value": 1
                    },
                    {
                        "number": 64,
                        "time": 272.8520241562502,
                        "value": 0
                    },
                    {
                        "number": 64,
                        "time": 272.9428201875002,
                        "value": 1
                    },
                    {
                        "number": 64,
                        "time": 273.4490391562502,
                        "value": 0
                    },
                    {
                        "number": 64,
                        "time": 273.56844215625017,
                        "value": 1
                    },
                    {
                        "number": 64,
                        "time": 274.04107903125015,
                        "value": 0
                    },
                    {
                        "number": 64,
                        "time": 274.15053178125015,
                        "value": 1
                    },
                    {
                        "number": 64,
                        "time": 275.8308802500002,
                        "value": 0
                    },
                    {
                        "number": 64,
                        "time": 275.92789518750016,
                        "value": 1
                    },
                    {
                        "number": 64,
                        "time": 277.62690037500016,
                        "value": 0
                    },
                    {
                        "number": 64,
                        "time": 277.75252228125015,
                        "value": 1
                    },
                    {
                        "number": 64,
                        "time": 278.22391537500016,
                        "value": 0
                    },
                    {
                        "number": 64,
                        "time": 278.34083081250014,
                        "value": 1
                    },
                    {
                        "number": 64,
                        "time": 278.82093037500016,
                        "value": 0
                    },
                    {
                        "number": 64,
                        "time": 278.9204328750002,
                        "value": 1
                    },
                    {
                        "number": 64,
                        "time": 279.4067513437502,
                        "value": 0
                    },
                    {
                        "number": 64,
                        "time": 279.5385921562502,
                        "value": 1
                    },
                    {
                        "number": 64,
                        "time": 280.01620415625024,
                        "value": 0
                    },
                    {
                        "number": 64,
                        "time": 280.12814446875024,
                        "value": 1
                    },
                    {
                        "number": 64,
                        "time": 280.61321915625024,
                        "value": 0
                    },
                    {
                        "number": 64,
                        "time": 280.71769678125025,
                        "value": 1
                    },
                    {
                        "number": 64,
                        "time": 281.20277146875026,
                        "value": 0
                    },
                    {
                        "number": 64,
                        "time": 281.31471178125025,
                        "value": 1
                    },
                    {
                        "number": 64,
                        "time": 281.80724915625024,
                        "value": 0
                    },
                    {
                        "number": 64,
                        "time": 281.91918946875023,
                        "value": 1
                    },
                    {
                        "number": 64,
                        "time": 282.40426415625024,
                        "value": 0
                    },
                    {
                        "number": 64,
                        "time": 282.5236671562502,
                        "value": 1
                    },
                    {
                        "number": 64,
                        "time": 283.11321946875023,
                        "value": 0
                    },
                    {
                        "number": 64,
                        "time": 283.22018465625024,
                        "value": 1
                    },
                    {
                        "number": 64,
                        "time": 283.5945628125002,
                        "value": 0
                    },
                    {
                        "number": 64,
                        "time": 283.7027717812502,
                        "value": 1
                    },
                    {
                        "number": 64,
                        "time": 284.1965529375002,
                        "value": 0
                    },
                    {
                        "number": 64,
                        "time": 284.30724946875023,
                        "value": 1
                    },
                    {
                        "number": 64,
                        "time": 284.7836176875002,
                        "value": 0
                    },
                    {
                        "number": 64,
                        "time": 284.8756575000002,
                        "value": 1
                    },
                    {
                        "number": 64,
                        "time": 295.5224250000002,
                        "value": 0
                    },
                    {
                        "number": 64,
                        "time": 295.6654598437502,
                        "value": 1
                    },
                    {
                        "number": 64,
                        "time": 297.3134700000002,
                        "value": 0
                    },
                    {
                        "number": 64,
                        "time": 297.3781466250002,
                        "value": 1
                    },
                    {
                        "number": 64,
                        "time": 299.1045150000002,
                        "value": 0
                    },
                    {
                        "number": 64,
                        "time": 299.2276493437502,
                        "value": 1
                    },
                    {
                        "number": 64,
                        "time": 300.9030226875002,
                        "value": 0
                    },
                    {
                        "number": 64,
                        "time": 301.0535202187502,
                        "value": 1
                    },
                    {
                        "number": 64,
                        "time": 302.69531146875016,
                        "value": 0
                    },
                    {
                        "number": 64,
                        "time": 302.8619781562502,
                        "value": 1
                    },
                    {
                        "number": 64,
                        "time": 304.4963067187502,
                        "value": 0
                    },
                    {
                        "number": 64,
                        "time": 304.6443166875002,
                        "value": 1
                    },
                    {
                        "number": 64,
                        "time": 306.2736701250002,
                        "value": 0
                    },
                    {
                        "number": 64,
                        "time": 306.3943169062502,
                        "value": 1
                    },
                    {
                        "number": 64,
                        "time": 306.8831229375002,
                        "value": 0
                    },
                    {
                        "number": 64,
                        "time": 306.97391896875024,
                        "value": 1
                    },
                    {
                        "number": 64,
                        "time": 307.47889415625025,
                        "value": 0
                    },
                    {
                        "number": 64,
                        "time": 307.5647150625002,
                        "value": 1
                    },
                    {
                        "number": 64,
                        "time": 308.0684464687502,
                        "value": 0
                    },
                    {
                        "number": 64,
                        "time": 308.2089937500002,
                        "value": 1
                    },
                    {
                        "number": 64,
                        "time": 308.6741679375002,
                        "value": 0
                    },
                    {
                        "number": 64,
                        "time": 308.7973022812502,
                        "value": 1
                    },
                    {
                        "number": 64,
                        "time": 309.2699391562502,
                        "value": 0
                    },
                    {
                        "number": 64,
                        "time": 309.3943172812502,
                        "value": 1
                    },
                    {
                        "number": 64,
                        "time": 309.8557601250002,
                        "value": 0
                    },
                    {
                        "number": 64,
                        "time": 310.0000387500002,
                        "value": 1
                    },
                    {
                        "number": 64,
                        "time": 311.6567553750002,
                        "value": 0
                    },
                    {
                        "number": 64,
                        "time": 311.74755140625024,
                        "value": 1
                    },
                    {
                        "number": 64,
                        "time": 313.4366063437502,
                        "value": 0
                    },
                    {
                        "number": 64,
                        "time": 313.54108396875023,
                        "value": 1
                    },
                    {
                        "number": 64,
                        "time": 314.04605915625024,
                        "value": 0
                    },
                    {
                        "number": 64,
                        "time": 314.1492930000002,
                        "value": 1
                    },
                    {
                        "number": 64,
                        "time": 314.64307415625024,
                        "value": 0
                    },
                    {
                        "number": 64,
                        "time": 314.7351139687502,
                        "value": 1
                    },
                    {
                        "number": 64,
                        "time": 315.2301389062502,
                        "value": 0
                    },
                    {
                        "number": 64,
                        "time": 315.3644672812502,
                        "value": 1
                    },
                    {
                        "number": 64,
                        "time": 315.8383479375002,
                        "value": 0
                    },
                    {
                        "number": 64,
                        "time": 315.9527758125002,
                        "value": 1
                    },
                    {
                        "number": 64,
                        "time": 316.4353629375002,
                        "value": 0
                    },
                    {
                        "number": 64,
                        "time": 316.5149649375002,
                        "value": 1
                    },
                    {
                        "number": 64,
                        "time": 317.0186963437502,
                        "value": 0
                    },
                    {
                        "number": 64,
                        "time": 317.12068640625023,
                        "value": 1
                    },
                    {
                        "number": 64,
                        "time": 317.62814915625023,
                        "value": 0
                    },
                    {
                        "number": 64,
                        "time": 317.74382081250025,
                        "value": 1
                    },
                    {
                        "number": 64,
                        "time": 318.22889550000025,
                        "value": 0
                    },
                    {
                        "number": 64,
                        "time": 318.36695521875026,
                        "value": 1
                    },
                    {
                        "number": 64,
                        "time": 318.82342293750025,
                        "value": 0
                    },
                    {
                        "number": 64,
                        "time": 318.92914434375024,
                        "value": 1
                    },
                    {
                        "number": 64,
                        "time": 319.42043793750025,
                        "value": 0
                    },
                    {
                        "number": 64,
                        "time": 319.53486581250024,
                        "value": 1
                    },
                    {
                        "number": 64,
                        "time": 320.0186967187502,
                        "value": 0
                    },
                    {
                        "number": 64,
                        "time": 320.12317434375024,
                        "value": 1
                    },
                    {
                        "number": 64,
                        "time": 320.60576146875025,
                        "value": 0
                    },
                    {
                        "number": 64,
                        "time": 320.75501521875026,
                        "value": 1
                    },
                    {
                        "number": 64,
                        "time": 321.2127267187503,
                        "value": 0
                    },
                    {
                        "number": 64,
                        "time": 321.3259108125003,
                        "value": 1
                    },
                    {
                        "number": 64,
                        "time": 321.8109855000003,
                        "value": 0
                    },
                    {
                        "number": 64,
                        "time": 321.9229258125003,
                        "value": 1
                    },
                    {
                        "number": 64,
                        "time": 322.3930751250003,
                        "value": 0
                    },
                    {
                        "number": 64,
                        "time": 322.55476668750026,
                        "value": 1
                    },
                    {
                        "number": 64,
                        "time": 324.18536390625025,
                        "value": 0
                    },
                    {
                        "number": 64,
                        "time": 324.4030256250002,
                        "value": 1
                    },
                    {
                        "number": 64,
                        "time": 327.76994146875023,
                        "value": 0
                    },
                    {
                        "number": 64,
                        "time": 327.8358618750002,
                        "value": 1
                    },
                    {
                        "number": 64,
                        "time": 329.5634740312502,
                        "value": 0
                    },
                    {
                        "number": 64,
                        "time": 329.70153375000024,
                        "value": 1
                    },
                    {
                        "number": 64,
                        "time": 331.34954390625023,
                        "value": 0
                    },
                    {
                        "number": 64,
                        "time": 331.49257875000023,
                        "value": 1
                    },
                    {
                        "number": 64,
                        "time": 337.9104900000002,
                        "value": 0
                    },
                    {
                        "number": 64,
                        "time": 338.1343706250002,
                        "value": 1
                    },
                    {
                        "number": 64,
                        "time": 340.31098781250023,
                        "value": 0
                    },
                    {
                        "number": 64,
                        "time": 340.59705750000023,
                        "value": 1
                    },
                    {
                        "number": 64,
                        "time": 340.9104903750002,
                        "value": 0
                    },
                    {
                        "number": 64,
                        "time": 341.1592466250002,
                        "value": 1
                    },
                    {
                        "number": 64,
                        "time": 342.1020328125002,
                        "value": 0
                    },
                    {
                        "number": 64,
                        "time": 342.5609880937502,
                        "value": 1
                    },
                    {
                        "number": 64,
                        "time": 343.88810268750024,
                        "value": 0
                    },
                    {
                        "number": 64,
                        "time": 344.34581418750025,
                        "value": 1
                    },
                    {
                        "number": 64,
                        "time": 345.68536659375025,
                        "value": 0
                    },
                    {
                        "number": 64,
                        "time": 345.90800343750027,
                        "value": 1
                    },
                    {
                        "number": 64,
                        "time": 347.47143646875026,
                        "value": 0
                    },
                    {
                        "number": 64,
                        "time": 347.7612375000003,
                        "value": 1
                    },
                    {
                        "number": 64,
                        "time": 348.0759141562503,
                        "value": 0
                    },
                    {
                        "number": 64,
                        "time": 348.3234266250003,
                        "value": 1
                    },
                    {
                        "number": 64,
                        "time": 349.26372525000033,
                        "value": 0
                    },
                    {
                        "number": 64,
                        "time": 349.4565113437503,
                        "value": 1
                    },
                    {
                        "number": 64,
                        "time": 349.8657153750003,
                        "value": 0
                    },
                    {
                        "number": 64,
                        "time": 350.02616315625033,
                        "value": 1
                    },
                    {
                        "number": 64,
                        "time": 350.4627303750003,
                        "value": 0
                    },
                    {
                        "number": 64,
                        "time": 350.63188462500034,
                        "value": 1
                    },
                    {
                        "number": 64,
                        "time": 351.0572578125003,
                        "value": 0
                    },
                    {
                        "number": 64,
                        "time": 351.7089991875003,
                        "value": 1
                    },
                    {
                        "number": 64,
                        "time": 352.8445714687503,
                        "value": 0
                    },
                    {
                        "number": 64,
                        "time": 353.1169595625003,
                        "value": 1
                    },
                    {
                        "number": 64,
                        "time": 354.6356164687503,
                        "value": 0
                    },
                    {
                        "number": 64,
                        "time": 354.9789000937503,
                        "value": 1
                    },
                    {
                        "number": 64,
                        "time": 355.23760659375034,
                        "value": 0
                    },
                    {
                        "number": 64,
                        "time": 355.45278075000033,
                        "value": 1
                    },
                    {
                        "number": 64,
                        "time": 356.41795500000035,
                        "value": 0
                    },
                    {
                        "number": 64,
                        "time": 356.88934809375036,
                        "value": 1
                    },
                    {
                        "number": 64,
                        "time": 358.21770646875035,
                        "value": 0
                    },
                    {
                        "number": 64,
                        "time": 358.67417418750034,
                        "value": 1
                    },
                    {
                        "number": 64,
                        "time": 360.0099952500003,
                        "value": 0
                    },
                    {
                        "number": 64,
                        "time": 360.2985525000003,
                        "value": 1
                    },
                    {
                        "number": 64,
                        "time": 361.7985526875003,
                        "value": 0
                    },
                    {
                        "number": 64,
                        "time": 362.0721845625003,
                        "value": 1
                    },
                    {
                        "number": 64,
                        "time": 363.5995479375003,
                        "value": 0
                    },
                    {
                        "number": 64,
                        "time": 363.66546834375026,
                        "value": 1
                    },
                    {
                        "number": 64,
                        "time": 364.19407537500024,
                        "value": 0
                    },
                    {
                        "number": 64,
                        "time": 364.26745846875025,
                        "value": 1
                    },
                    {
                        "number": 64,
                        "time": 364.79109037500024,
                        "value": 0
                    },
                    {
                        "number": 64,
                        "time": 364.85949834375026,
                        "value": 1
                    },
                    {
                        "number": 64,
                        "time": 365.38561781250024,
                        "value": 0
                    },
                    {
                        "number": 64,
                        "time": 365.6057670937502,
                        "value": 1
                    },
                    {
                        "number": 64,
                        "time": 366.6990508125002,
                        "value": 0
                    },
                    {
                        "number": 64,
                        "time": 366.89059312500024,
                        "value": 1
                    },
                    {
                        "number": 64,
                        "time": 370.7463150000002,
                        "value": 0
                    },
                    {
                        "number": 64,
                        "time": 373.9776586875002,
                        "value": 1
                    },
                    {
                        "number": 64,
                        "time": 377.9104950000002,
                        "value": 0
                    },
                    {
                        "number": 64,
                        "time": 381.1828834687502,
                        "value": 1
                    },
                    {
                        "number": 64,
                        "time": 383.28363000000024,
                        "value": 0
                    },
                    {
                        "number": 64,
                        "time": 384.8047744687502,
                        "value": 1
                    },
                    {
                        "number": 64,
                        "time": 386.86572000000024,
                        "value": 0
                    },
                    {
                        "number": 64,
                        "time": 388.82343168750026,
                        "value": 1
                    },
                    {
                        "number": 64,
                        "time": 390.46024781250026,
                        "value": 0
                    },
                    {
                        "number": 64,
                        "time": 390.84582000000023,
                        "value": 1
                    },
                    {
                        "number": 64,
                        "time": 392.2388550000002,
                        "value": 0
                    },
                    {
                        "number": 64,
                        "time": 392.50253662500023,
                        "value": 1
                    },
                    {
                        "number": 64,
                        "time": 394.04233781250025,
                        "value": 0
                    },
                    {
                        "number": 64,
                        "time": 394.31099456250024,
                        "value": 1
                    },
                    {
                        "number": 64,
                        "time": 394.63935281250025,
                        "value": 0
                    },
                    {
                        "number": 64,
                        "time": 394.90800956250024,
                        "value": 1
                    },
                    {
                        "number": 64,
                        "time": 395.82716390625023,
                        "value": 0
                    },
                    {
                        "number": 64,
                        "time": 396.2301490312502,
                        "value": 1
                    },
                    {
                        "number": 64,
                        "time": 397.6119900000002,
                        "value": 0
                    },
                    {
                        "number": 64,
                        "time": 398.0771641875002,
                        "value": 1
                    },
                    {
                        "number": 64,
                        "time": 399.4030350000002,
                        "value": 0
                    },
                    {
                        "number": 64,
                        "time": 399.7363683750002,
                        "value": 1
                    },
                    {
                        "number": 64,
                        "time": 401.20651781250024,
                        "value": 0
                    },
                    {
                        "number": 64,
                        "time": 401.45029893750024,
                        "value": 1
                    },
                    {
                        "number": 64,
                        "time": 401.80602037500023,
                        "value": 0
                    },
                    {
                        "number": 64,
                        "time": 402.0187069687502,
                        "value": 1
                    },
                    {
                        "number": 64,
                        "time": 402.69283640625025,
                        "value": 0
                    },
                    {
                        "number": 64,
                        "time": 406.57219012500025,
                        "value": 0
                    },
                    {
                        "number": 64,
                        "time": 406.83089662500026,
                        "value": 1
                    },
                    {
                        "number": 64,
                        "time": 408.36945403125026,
                        "value": 0
                    },
                    {
                        "number": 64,
                        "time": 408.6567675000003,
                        "value": 1
                    },
                    {
                        "number": 64,
                        "time": 408.9714441562503,
                        "value": 0
                    },
                    {
                        "number": 64,
                        "time": 409.2537825000003,
                        "value": 1
                    },
                    {
                        "number": 64,
                        "time": 410.1604990312503,
                        "value": 0
                    },
                    {
                        "number": 64,
                        "time": 410.5585090312503,
                        "value": 1
                    },
                    {
                        "number": 64,
                        "time": 411.9490564687503,
                        "value": 0
                    },
                    {
                        "number": 64,
                        "time": 412.3383600000003,
                        "value": 1
                    },
                    {
                        "number": 64,
                        "time": 413.7313950000003,
                        "value": 0
                    },
                    {
                        "number": 64,
                        "time": 414.0647283750003,
                        "value": 1
                    },
                    {
                        "number": 64,
                        "time": 415.5348778125003,
                        "value": 0
                    },
                    {
                        "number": 64,
                        "time": 415.7786589375003,
                        "value": 1
                    },
                    {
                        "number": 64,
                        "time": 416.1343803750003,
                        "value": 0
                    },
                    {
                        "number": 64,
                        "time": 416.3470669687503,
                        "value": 1
                    },
                    {
                        "number": 64,
                        "time": 417.3134850000003,
                        "value": 0
                    },
                    {
                        "number": 64,
                        "time": 419.2189578750003,
                        "value": 1
                    },
                    {
                        "number": 64,
                        "time": 420.2985600000003,
                        "value": 0
                    },
                    {
                        "number": 64,
                        "time": 422.8433364375003,
                        "value": 1
                    },
                    {
                        "number": 64,
                        "time": 424.18537640625027,
                        "value": 0
                    },
                    {
                        "number": 64,
                        "time": 424.53487893750025,
                        "value": 1
                    },
                    {
                        "number": 64,
                        "time": 425.08960537500025,
                        "value": 0
                    },
                    {
                        "number": 64,
                        "time": 425.35950590625026,
                        "value": 1
                    },
                    {
                        "number": 64,
                        "time": 425.68662037500025,
                        "value": 0
                    },
                    {
                        "number": 64,
                        "time": 425.92791393750025,
                        "value": 1
                    },
                    {
                        "number": 64,
                        "time": 426.27866025000026,
                        "value": 0
                    },
                    {
                        "number": 64,
                        "time": 426.7003020937503,
                        "value": 1
                    },
                    {
                        "number": 64,
                        "time": 429.1542825000003,
                        "value": 0
                    }
                ]
            },
            "id": 3,
            "name": "Pedale"
        },
        {
            "startTime": 0,
            "duration": 0,
            "length": 0,
            "notes": [],
            "controlChanges": {},
            "id": 4,
            "name": "Schubert: Impromptu D 935 No. 2"
        },
        {
            "startTime": 0,
            "duration": 0,
            "length": 0,
            "notes": [],
            "controlChanges": {},
            "id": 5,
            "name": "Copyright  2007 by Bernd Krueger"
        },
        {
            "startTime": 0,
            "duration": 0,
            "length": 0,
            "notes": [],
            "controlChanges": {},
            "id": 6,
            "name": "http://www.piano-midi.de"
        },
        {
            "startTime": 0,
            "duration": 0,
            "length": 0,
            "notes": [],
            "controlChanges": {},
            "id": 7,
            "name": "Edition: 2014-03-20"
        }
    ]
}