{
    "header": {
        "PPQ": 1024,
        "timeSignature": [
            2,
            4
        ],
        "bpm": 96,
        "name": ""
    },
    "startTime": 0,
    "duration": 477.8173828125,
    "tracks": [
        {
            "startTime": 0,
            "duration": 0,
            "length": 0,
            "notes": [],
            "controlChanges": {},
            "id": 0
        },
        {
            "startTime": 0,
            "duration": 0,
            "length": 0,
            "notes": [],
            "controlChanges": {},
            "id": 1
        },
        {
            "startTime": 1.25,
            "duration": 477.8173828125,
            "length": 4998,
            "notes": [
                {
                    "name": "G3",
                    "midi": 55,
                    "time": 1.25,
                    "velocity": 0.7874015748031497,
                    "duration": 0.3125
                },
                {
                    "name": "B4",
                    "midi": 71,
                    "time": 1.5625,
                    "velocity": 0.889763779527559,
                    "duration": 0.625
                },
                {
                    "name": "F5",
                    "midi": 77,
                    "time": 1.5625,
                    "velocity": 0.889763779527559,
                    "duration": 0.625
                },
                {
                    "name": "B5",
                    "midi": 83,
                    "time": 1.5625,
                    "velocity": 0.889763779527559,
                    "duration": 0.625
                },
                {
                    "name": "C5",
                    "midi": 72,
                    "time": 2.1875,
                    "velocity": 0.7874015748031497,
                    "duration": 0.1251220703125
                },
                {
                    "name": "E5",
                    "midi": 76,
                    "time": 2.1875,
                    "velocity": 0.7874015748031497,
                    "duration": 0.1251220703125
                },
                {
                    "name": "C6",
                    "midi": 84,
                    "time": 2.1875,
                    "velocity": 0.7874015748031497,
                    "duration": 0.1251220703125
                },
                {
                    "name": "F#4",
                    "midi": 66,
                    "time": 2.5,
                    "velocity": 0.7874015748031497,
                    "duration": 0.3125
                },
                {
                    "name": "C5",
                    "midi": 72,
                    "time": 2.5,
                    "velocity": 0.7874015748031497,
                    "duration": 0.3125
                },
                {
                    "name": "F#5",
                    "midi": 78,
                    "time": 2.5,
                    "velocity": 0.7874015748031497,
                    "duration": 0.3125
                },
                {
                    "name": "A4",
                    "midi": 69,
                    "time": 2.8125,
                    "velocity": 0.889763779527559,
                    "duration": 0.625
                },
                {
                    "name": "C5",
                    "midi": 72,
                    "time": 2.8125,
                    "velocity": 0.889763779527559,
                    "duration": 0.625
                },
                {
                    "name": "A5",
                    "midi": 81,
                    "time": 2.8125,
                    "velocity": 0.889763779527559,
                    "duration": 0.625
                },
                {
                    "name": "G4",
                    "midi": 67,
                    "time": 3.4375,
                    "velocity": 0.7874015748031497,
                    "duration": 0.1251220703125
                },
                {
                    "name": "B4",
                    "midi": 71,
                    "time": 3.4375,
                    "velocity": 0.7874015748031497,
                    "duration": 0.1251220703125
                },
                {
                    "name": "G5",
                    "midi": 79,
                    "time": 3.4375,
                    "velocity": 0.7874015748031497,
                    "duration": 0.1251220703125
                },
                {
                    "name": "E4",
                    "midi": 64,
                    "time": 3.75,
                    "velocity": 0.31496062992125984,
                    "duration": 0.15625
                },
                {
                    "name": "C5",
                    "midi": 72,
                    "time": 3.75,
                    "velocity": 0.31496062992125984,
                    "duration": 0.15625
                },
                {
                    "name": "F4",
                    "midi": 65,
                    "time": 3.90625,
                    "velocity": 0.31496062992125984,
                    "duration": 0.15625
                },
                {
                    "name": "B4",
                    "midi": 71,
                    "time": 3.90625,
                    "velocity": 0.31496062992125984,
                    "duration": 0.15625
                },
                {
                    "name": "E4",
                    "midi": 64,
                    "time": 4.0625,
                    "velocity": 0.31496062992125984,
                    "duration": 0.15625
                },
                {
                    "name": "C5",
                    "midi": 72,
                    "time": 4.0625,
                    "velocity": 0.31496062992125984,
                    "duration": 0.15625
                },
                {
                    "name": "F4",
                    "midi": 65,
                    "time": 4.21875,
                    "velocity": 0.31496062992125984,
                    "duration": 0.15625
                },
                {
                    "name": "B4",
                    "midi": 71,
                    "time": 4.21875,
                    "velocity": 0.31496062992125984,
                    "duration": 0.15625
                },
                {
                    "name": "E4",
                    "midi": 64,
                    "time": 4.375,
                    "velocity": 0.31496062992125984,
                    "duration": 0.15625
                },
                {
                    "name": "C5",
                    "midi": 72,
                    "time": 4.375,
                    "velocity": 0.31496062992125984,
                    "duration": 0.15625
                },
                {
                    "name": "F4",
                    "midi": 65,
                    "time": 4.53125,
                    "velocity": 0.31496062992125984,
                    "duration": 0.15625
                },
                {
                    "name": "B4",
                    "midi": 71,
                    "time": 4.53125,
                    "velocity": 0.31496062992125984,
                    "duration": 0.15625
                },
                {
                    "name": "E4",
                    "midi": 64,
                    "time": 4.6875,
                    "velocity": 0.31496062992125984,
                    "duration": 0.15625
                },
                {
                    "name": "C5",
                    "midi": 72,
                    "time": 4.6875,
                    "velocity": 0.31496062992125984,
                    "duration": 0.15625
                },
                {
                    "name": "G4",
                    "midi": 67,
                    "time": 4.84375,
                    "velocity": 0.31496062992125984,
                    "duration": 0.15625
                },
                {
                    "name": "C#5",
                    "midi": 73,
                    "time": 4.84375,
                    "velocity": 0.31496062992125984,
                    "duration": 0.15625
                },
                {
                    "name": "F4",
                    "midi": 65,
                    "time": 5,
                    "velocity": 0.31496062992125984,
                    "duration": 0.15625
                },
                {
                    "name": "D5",
                    "midi": 74,
                    "time": 5,
                    "velocity": 0.31496062992125984,
                    "duration": 0.15625
                },
                {
                    "name": "G#4",
                    "midi": 68,
                    "time": 5.15625,
                    "velocity": 0.31496062992125984,
                    "duration": 0.15625
                },
                {
                    "name": "C#5",
                    "midi": 73,
                    "time": 5.15625,
                    "velocity": 0.31496062992125984,
                    "duration": 0.15625
                },
                {
                    "name": "F4",
                    "midi": 65,
                    "time": 5.3125,
                    "velocity": 0.31496062992125984,
                    "duration": 0.15625
                },
                {
                    "name": "D5",
                    "midi": 74,
                    "time": 5.3125,
                    "velocity": 0.31496062992125984,
                    "duration": 0.15625
                },
                {
                    "name": "G#4",
                    "midi": 68,
                    "time": 5.46875,
                    "velocity": 0.31496062992125984,
                    "duration": 0.15625
                },
                {
                    "name": "C#5",
                    "midi": 73,
                    "time": 5.46875,
                    "velocity": 0.31496062992125984,
                    "duration": 0.15625
                },
                {
                    "name": "F4",
                    "midi": 65,
                    "time": 5.625,
                    "velocity": 0.31496062992125984,
                    "duration": 0.15625
                },
                {
                    "name": "D5",
                    "midi": 74,
                    "time": 5.625,
                    "velocity": 0.31496062992125984,
                    "duration": 0.15625
                },
                {
                    "name": "G#4",
                    "midi": 68,
                    "time": 5.78125,
                    "velocity": 0.31496062992125984,
                    "duration": 0.15625
                },
                {
                    "name": "C#5",
                    "midi": 73,
                    "time": 5.78125,
                    "velocity": 0.31496062992125984,
                    "duration": 0.15625
                },
                {
                    "name": "F4",
                    "midi": 65,
                    "time": 5.9375,
                    "velocity": 0.31496062992125984,
                    "duration": 0.15625
                },
                {
                    "name": "E5",
                    "midi": 76,
                    "time": 5.9375,
                    "velocity": 0.31496062992125984,
                    "duration": 0.15625
                },
                {
                    "name": "B4",
                    "midi": 71,
                    "time": 6.09375,
                    "velocity": 0.31496062992125984,
                    "duration": 0.15625
                },
                {
                    "name": "D5",
                    "midi": 74,
                    "time": 6.09375,
                    "velocity": 0.31496062992125984,
                    "duration": 0.15625
                },
                {
                    "name": "E4",
                    "midi": 64,
                    "time": 6.25,
                    "velocity": 0.31496062992125984,
                    "duration": 0.15625
                },
                {
                    "name": "C5",
                    "midi": 72,
                    "time": 6.25,
                    "velocity": 0.31496062992125984,
                    "duration": 0.15625
                },
                {
                    "name": "F4",
                    "midi": 65,
                    "time": 6.40625,
                    "velocity": 0.31496062992125984,
                    "duration": 0.15625
                },
                {
                    "name": "B4",
                    "midi": 71,
                    "time": 6.40625,
                    "velocity": 0.31496062992125984,
                    "duration": 0.15625
                },
                {
                    "name": "E4",
                    "midi": 64,
                    "time": 6.5625,
                    "velocity": 0.31496062992125984,
                    "duration": 0.15625
                },
                {
                    "name": "C5",
                    "midi": 72,
                    "time": 6.5625,
                    "velocity": 0.31496062992125984,
                    "duration": 0.15625
                },
                {
                    "name": "F4",
                    "midi": 65,
                    "time": 6.71875,
                    "velocity": 0.31496062992125984,
                    "duration": 0.15625
                },
                {
                    "name": "B4",
                    "midi": 71,
                    "time": 6.71875,
                    "velocity": 0.31496062992125984,
                    "duration": 0.15625
                },
                {
                    "name": "E4",
                    "midi": 64,
                    "time": 6.875,
                    "velocity": 0.31496062992125984,
                    "duration": 0.15625
                },
                {
                    "name": "C5",
                    "midi": 72,
                    "time": 6.875,
                    "velocity": 0.31496062992125984,
                    "duration": 0.15625
                },
                {
                    "name": "F4",
                    "midi": 65,
                    "time": 7.03125,
                    "velocity": 0.31496062992125984,
                    "duration": 0.15625
                },
                {
                    "name": "B4",
                    "midi": 71,
                    "time": 7.03125,
                    "velocity": 0.31496062992125984,
                    "duration": 0.15625
                },
                {
                    "name": "E4",
                    "midi": 64,
                    "time": 7.1875,
                    "velocity": 0.31496062992125984,
                    "duration": 0.15625
                },
                {
                    "name": "C5",
                    "midi": 72,
                    "time": 7.1875,
                    "velocity": 0.31496062992125984,
                    "duration": 0.15625
                },
                {
                    "name": "G4",
                    "midi": 67,
                    "time": 7.34375,
                    "velocity": 0.31496062992125984,
                    "duration": 0.15625
                },
                {
                    "name": "C#5",
                    "midi": 73,
                    "time": 7.34375,
                    "velocity": 0.31496062992125984,
                    "duration": 0.15625
                },
                {
                    "name": "F4",
                    "midi": 65,
                    "time": 7.5,
                    "velocity": 0.31496062992125984,
                    "duration": 0.15625
                },
                {
                    "name": "D5",
                    "midi": 74,
                    "time": 7.5,
                    "velocity": 0.31496062992125984,
                    "duration": 0.15625
                },
                {
                    "name": "G#4",
                    "midi": 68,
                    "time": 7.65625,
                    "velocity": 0.31496062992125984,
                    "duration": 0.15625
                },
                {
                    "name": "C#5",
                    "midi": 73,
                    "time": 7.65625,
                    "velocity": 0.31496062992125984,
                    "duration": 0.15625
                },
                {
                    "name": "F4",
                    "midi": 65,
                    "time": 7.8125,
                    "velocity": 0.31496062992125984,
                    "duration": 0.15625
                },
                {
                    "name": "D5",
                    "midi": 74,
                    "time": 7.8125,
                    "velocity": 0.31496062992125984,
                    "duration": 0.15625
                },
                {
                    "name": "G#4",
                    "midi": 68,
                    "time": 7.96875,
                    "velocity": 0.31496062992125984,
                    "duration": 0.15625
                },
                {
                    "name": "C#5",
                    "midi": 73,
                    "time": 7.96875,
                    "velocity": 0.31496062992125984,
                    "duration": 0.15625
                },
                {
                    "name": "F4",
                    "midi": 65,
                    "time": 8.125,
                    "velocity": 0.31496062992125984,
                    "duration": 0.15625
                },
                {
                    "name": "D5",
                    "midi": 74,
                    "time": 8.125,
                    "velocity": 0.31496062992125984,
                    "duration": 0.15625
                },
                {
                    "name": "G#4",
                    "midi": 68,
                    "time": 8.28125,
                    "velocity": 0.31496062992125984,
                    "duration": 0.15625
                },
                {
                    "name": "C#5",
                    "midi": 73,
                    "time": 8.28125,
                    "velocity": 0.31496062992125984,
                    "duration": 0.15625
                },
                {
                    "name": "F4",
                    "midi": 65,
                    "time": 8.4375,
                    "velocity": 0.31496062992125984,
                    "duration": 0.15625
                },
                {
                    "name": "D5",
                    "midi": 74,
                    "time": 8.4375,
                    "velocity": 0.31496062992125984,
                    "duration": 0.15625
                },
                {
                    "name": "B4",
                    "midi": 71,
                    "time": 8.59375,
                    "velocity": 0.31496062992125984,
                    "duration": 0.15625
                },
                {
                    "name": "D#5",
                    "midi": 75,
                    "time": 8.59375,
                    "velocity": 0.31496062992125984,
                    "duration": 0.15625
                },
                {
                    "name": "E4",
                    "midi": 64,
                    "time": 8.75,
                    "velocity": 0.31496062992125984,
                    "duration": 0.15625
                },
                {
                    "name": "E5",
                    "midi": 76,
                    "time": 8.75,
                    "velocity": 0.31496062992125984,
                    "duration": 0.15625
                },
                {
                    "name": "C5",
                    "midi": 72,
                    "time": 8.90625,
                    "velocity": 0.31496062992125984,
                    "duration": 0.15625
                },
                {
                    "name": "D#5",
                    "midi": 75,
                    "time": 8.90625,
                    "velocity": 0.31496062992125984,
                    "duration": 0.15625
                },
                {
                    "name": "E4",
                    "midi": 64,
                    "time": 9.0625,
                    "velocity": 0.31496062992125984,
                    "duration": 0.15625
                },
                {
                    "name": "E5",
                    "midi": 76,
                    "time": 9.0625,
                    "velocity": 0.31496062992125984,
                    "duration": 0.15625
                },
                {
                    "name": "C5",
                    "midi": 72,
                    "time": 9.21875,
                    "velocity": 0.31496062992125984,
                    "duration": 0.15625
                },
                {
                    "name": "D#5",
                    "midi": 75,
                    "time": 9.21875,
                    "velocity": 0.31496062992125984,
                    "duration": 0.15625
                },
                {
                    "name": "E4",
                    "midi": 64,
                    "time": 9.375,
                    "velocity": 0.31496062992125984,
                    "duration": 0.15625
                },
                {
                    "name": "E5",
                    "midi": 76,
                    "time": 9.375,
                    "velocity": 0.31496062992125984,
                    "duration": 0.15625
                },
                {
                    "name": "C5",
                    "midi": 72,
                    "time": 9.53125,
                    "velocity": 0.31496062992125984,
                    "duration": 0.15625
                },
                {
                    "name": "D#5",
                    "midi": 75,
                    "time": 9.53125,
                    "velocity": 0.31496062992125984,
                    "duration": 0.15625
                },
                {
                    "name": "E4",
                    "midi": 64,
                    "time": 9.6875,
                    "velocity": 0.31496062992125984,
                    "duration": 0.15625
                },
                {
                    "name": "E5",
                    "midi": 76,
                    "time": 9.6875,
                    "velocity": 0.31496062992125984,
                    "duration": 0.15625
                },
                {
                    "name": "G4",
                    "midi": 67,
                    "time": 9.84375,
                    "velocity": 0.31496062992125984,
                    "duration": 0.15625
                },
                {
                    "name": "C5",
                    "midi": 72,
                    "time": 9.84375,
                    "velocity": 0.31496062992125984,
                    "duration": 0.15625
                },
                {
                    "name": "F4",
                    "midi": 65,
                    "time": 10,
                    "velocity": 0.3937007874015748,
                    "duration": 0.15625
                },
                {
                    "name": "G5",
                    "midi": 79,
                    "time": 10,
                    "velocity": 0.3937007874015748,
                    "duration": 0.15625
                },
                {
                    "name": "C5",
                    "midi": 72,
                    "time": 10.15625,
                    "velocity": 0.3937007874015748,
                    "duration": 0.15625
                },
                {
                    "name": "F5",
                    "midi": 77,
                    "time": 10.15625,
                    "velocity": 0.3937007874015748,
                    "duration": 0.15625
                },
                {
                    "name": "F4",
                    "midi": 65,
                    "time": 10.3125,
                    "velocity": 0.3937007874015748,
                    "duration": 0.15625
                },
                {
                    "name": "G5",
                    "midi": 79,
                    "time": 10.3125,
                    "velocity": 0.3937007874015748,
                    "duration": 0.15625
                },
                {
                    "name": "C5",
                    "midi": 72,
                    "time": 10.46875,
                    "velocity": 0.3937007874015748,
                    "duration": 0.15625
                },
                {
                    "name": "F5",
                    "midi": 77,
                    "time": 10.46875,
                    "velocity": 0.3937007874015748,
                    "duration": 0.15625
                },
                {
                    "name": "F4",
                    "midi": 65,
                    "time": 10.625,
                    "velocity": 0.3937007874015748,
                    "duration": 0.15625
                },
                {
                    "name": "G5",
                    "midi": 79,
                    "time": 10.625,
                    "velocity": 0.3937007874015748,
                    "duration": 0.15625
                },
                {
                    "name": "C5",
                    "midi": 72,
                    "time": 10.78125,
                    "velocity": 0.3937007874015748,
                    "duration": 0.15625
                },
                {
                    "name": "F5",
                    "midi": 77,
                    "time": 10.78125,
                    "velocity": 0.3937007874015748,
                    "duration": 0.15625
                },
                {
                    "name": "E4",
                    "midi": 64,
                    "time": 10.9375,
                    "velocity": 0.3937007874015748,
                    "duration": 0.15625
                },
                {
                    "name": "F5",
                    "midi": 77,
                    "time": 10.9375,
                    "velocity": 0.3937007874015748,
                    "duration": 0.15625
                },
                {
                    "name": "C5",
                    "midi": 72,
                    "time": 11.09375,
                    "velocity": 0.3937007874015748,
                    "duration": 0.15625
                },
                {
                    "name": "E5",
                    "midi": 76,
                    "time": 11.09375,
                    "velocity": 0.3937007874015748,
                    "duration": 0.15625
                },
                {
                    "name": "D4",
                    "midi": 62,
                    "time": 11.25,
                    "velocity": 0.3937007874015748,
                    "duration": 0.15625
                },
                {
                    "name": "E5",
                    "midi": 76,
                    "time": 11.25,
                    "velocity": 0.3937007874015748,
                    "duration": 0.15625
                },
                {
                    "name": "A4",
                    "midi": 69,
                    "time": 11.40625,
                    "velocity": 0.3937007874015748,
                    "duration": 0.15625
                },
                {
                    "name": "D5",
                    "midi": 74,
                    "time": 11.40625,
                    "velocity": 0.3937007874015748,
                    "duration": 0.15625
                },
                {
                    "name": "D4",
                    "midi": 62,
                    "time": 11.5625,
                    "velocity": 0.3937007874015748,
                    "duration": 0.15625
                },
                {
                    "name": "E5",
                    "midi": 76,
                    "time": 11.5625,
                    "velocity": 0.3937007874015748,
                    "duration": 0.15625
                },
                {
                    "name": "A4",
                    "midi": 69,
                    "time": 11.71875,
                    "velocity": 0.3937007874015748,
                    "duration": 0.15625
                },
                {
                    "name": "D5",
                    "midi": 74,
                    "time": 11.71875,
                    "velocity": 0.3937007874015748,
                    "duration": 0.15625
                },
                {
                    "name": "D4",
                    "midi": 62,
                    "time": 11.875,
                    "velocity": 0.3937007874015748,
                    "duration": 0.15625
                },
                {
                    "name": "E5",
                    "midi": 76,
                    "time": 11.875,
                    "velocity": 0.3937007874015748,
                    "duration": 0.15625
                },
                {
                    "name": "A4",
                    "midi": 69,
                    "time": 12.03125,
                    "velocity": 0.3937007874015748,
                    "duration": 0.15625
                },
                {
                    "name": "D5",
                    "midi": 74,
                    "time": 12.03125,
                    "velocity": 0.3937007874015748,
                    "duration": 0.15625
                },
                {
                    "name": "C4",
                    "midi": 60,
                    "time": 12.1875,
                    "velocity": 0.3937007874015748,
                    "duration": 0.15625
                },
                {
                    "name": "D5",
                    "midi": 74,
                    "time": 12.1875,
                    "velocity": 0.3937007874015748,
                    "duration": 0.15625
                },
                {
                    "name": "A4",
                    "midi": 69,
                    "time": 12.34375,
                    "velocity": 0.3937007874015748,
                    "duration": 0.15625
                },
                {
                    "name": "C5",
                    "midi": 72,
                    "time": 12.34375,
                    "velocity": 0.3937007874015748,
                    "duration": 0.15625
                },
                {
                    "name": "B3",
                    "midi": 59,
                    "time": 12.5,
                    "velocity": 0.3937007874015748,
                    "duration": 0.15625
                },
                {
                    "name": "C5",
                    "midi": 72,
                    "time": 12.5,
                    "velocity": 0.3937007874015748,
                    "duration": 0.15625
                },
                {
                    "name": "G4",
                    "midi": 67,
                    "time": 12.65625,
                    "velocity": 0.3858267716535433,
                    "duration": 0.15625
                },
                {
                    "name": "B4",
                    "midi": 71,
                    "time": 12.65625,
                    "velocity": 0.3858267716535433,
                    "duration": 0.15625
                },
                {
                    "name": "B3",
                    "midi": 59,
                    "time": 12.8125,
                    "velocity": 0.3700787401574803,
                    "duration": 0.15625
                },
                {
                    "name": "C5",
                    "midi": 72,
                    "time": 12.8125,
                    "velocity": 0.3700787401574803,
                    "duration": 0.15625
                },
                {
                    "name": "G4",
                    "midi": 67,
                    "time": 12.96875,
                    "velocity": 0.36220472440944884,
                    "duration": 0.15625
                },
                {
                    "name": "B4",
                    "midi": 71,
                    "time": 12.96875,
                    "velocity": 0.36220472440944884,
                    "duration": 0.15625
                },
                {
                    "name": "C4",
                    "midi": 60,
                    "time": 13.125,
                    "velocity": 0.3543307086614173,
                    "duration": 0.15625
                },
                {
                    "name": "B4",
                    "midi": 71,
                    "time": 13.125,
                    "velocity": 0.3543307086614173,
                    "duration": 0.15625
                },
                {
                    "name": "F#4",
                    "midi": 66,
                    "time": 13.28125,
                    "velocity": 0.3464566929133858,
                    "duration": 0.15625
                },
                {
                    "name": "A4",
                    "midi": 69,
                    "time": 13.28125,
                    "velocity": 0.3464566929133858,
                    "duration": 0.15625
                },
                {
                    "name": "D4",
                    "midi": 62,
                    "time": 13.4375,
                    "velocity": 0.33070866141732286,
                    "duration": 0.15625
                },
                {
                    "name": "A4",
                    "midi": 69,
                    "time": 13.4375,
                    "velocity": 0.33070866141732286,
                    "duration": 0.15625
                },
                {
                    "name": "F4",
                    "midi": 65,
                    "time": 13.59375,
                    "velocity": 0.3228346456692913,
                    "duration": 0.15625
                },
                {
                    "name": "G4",
                    "midi": 67,
                    "time": 13.59375,
                    "velocity": 0.3228346456692913,
                    "duration": 0.15625
                },
                {
                    "name": "E4",
                    "midi": 64,
                    "time": 13.75,
                    "velocity": 0.31496062992125984,
                    "duration": 0.15625
                },
                {
                    "name": "C5",
                    "midi": 72,
                    "time": 13.75,
                    "velocity": 0.31496062992125984,
                    "duration": 0.15625
                },
                {
                    "name": "F4",
                    "midi": 65,
                    "time": 13.90625,
                    "velocity": 0.31496062992125984,
                    "duration": 0.15625
                },
                {
                    "name": "B4",
                    "midi": 71,
                    "time": 13.90625,
                    "velocity": 0.31496062992125984,
                    "duration": 0.15625
                },
                {
                    "name": "E4",
                    "midi": 64,
                    "time": 14.0625,
                    "velocity": 0.31496062992125984,
                    "duration": 0.15625
                },
                {
                    "name": "C5",
                    "midi": 72,
                    "time": 14.0625,
                    "velocity": 0.31496062992125984,
                    "duration": 0.15625
                },
                {
                    "name": "F4",
                    "midi": 65,
                    "time": 14.21875,
                    "velocity": 0.31496062992125984,
                    "duration": 0.15625
                },
                {
                    "name": "B4",
                    "midi": 71,
                    "time": 14.21875,
                    "velocity": 0.31496062992125984,
                    "duration": 0.15625
                },
                {
                    "name": "E4",
                    "midi": 64,
                    "time": 14.375,
                    "velocity": 0.31496062992125984,
                    "duration": 0.15625
                },
                {
                    "name": "C5",
                    "midi": 72,
                    "time": 14.375,
                    "velocity": 0.31496062992125984,
                    "duration": 0.15625
                },
                {
                    "name": "F4",
                    "midi": 65,
                    "time": 14.53125,
                    "velocity": 0.31496062992125984,
                    "duration": 0.15625
                },
                {
                    "name": "B4",
                    "midi": 71,
                    "time": 14.53125,
                    "velocity": 0.31496062992125984,
                    "duration": 0.15625
                },
                {
                    "name": "E4",
                    "midi": 64,
                    "time": 14.6875,
                    "velocity": 0.31496062992125984,
                    "duration": 0.15625
                },
                {
                    "name": "C5",
                    "midi": 72,
                    "time": 14.6875,
                    "velocity": 0.31496062992125984,
                    "duration": 0.15625
                },
                {
                    "name": "G4",
                    "midi": 67,
                    "time": 14.84375,
                    "velocity": 0.31496062992125984,
                    "duration": 0.15625
                },
                {
                    "name": "C#5",
                    "midi": 73,
                    "time": 14.84375,
                    "velocity": 0.31496062992125984,
                    "duration": 0.15625
                },
                {
                    "name": "F4",
                    "midi": 65,
                    "time": 15,
                    "velocity": 0.31496062992125984,
                    "duration": 0.15625
                },
                {
                    "name": "D5",
                    "midi": 74,
                    "time": 15,
                    "velocity": 0.31496062992125984,
                    "duration": 0.15625
                },
                {
                    "name": "G#4",
                    "midi": 68,
                    "time": 15.15625,
                    "velocity": 0.31496062992125984,
                    "duration": 0.15625
                },
                {
                    "name": "C#5",
                    "midi": 73,
                    "time": 15.15625,
                    "velocity": 0.31496062992125984,
                    "duration": 0.15625
                },
                {
                    "name": "F4",
                    "midi": 65,
                    "time": 15.3125,
                    "velocity": 0.31496062992125984,
                    "duration": 0.15625
                },
                {
                    "name": "D5",
                    "midi": 74,
                    "time": 15.3125,
                    "velocity": 0.31496062992125984,
                    "duration": 0.15625
                },
                {
                    "name": "G#4",
                    "midi": 68,
                    "time": 15.46875,
                    "velocity": 0.31496062992125984,
                    "duration": 0.15625
                },
                {
                    "name": "C#5",
                    "midi": 73,
                    "time": 15.46875,
                    "velocity": 0.31496062992125984,
                    "duration": 0.15625
                },
                {
                    "name": "F4",
                    "midi": 65,
                    "time": 15.625,
                    "velocity": 0.31496062992125984,
                    "duration": 0.15625
                },
                {
                    "name": "D5",
                    "midi": 74,
                    "time": 15.625,
                    "velocity": 0.31496062992125984,
                    "duration": 0.15625
                },
                {
                    "name": "G#4",
                    "midi": 68,
                    "time": 15.78125,
                    "velocity": 0.31496062992125984,
                    "duration": 0.15625
                },
                {
                    "name": "C#5",
                    "midi": 73,
                    "time": 15.78125,
                    "velocity": 0.31496062992125984,
                    "duration": 0.15625
                },
                {
                    "name": "F4",
                    "midi": 65,
                    "time": 15.9375,
                    "velocity": 0.31496062992125984,
                    "duration": 0.15625
                },
                {
                    "name": "E5",
                    "midi": 76,
                    "time": 15.9375,
                    "velocity": 0.31496062992125984,
                    "duration": 0.15625
                },
                {
                    "name": "B4",
                    "midi": 71,
                    "time": 16.09375,
                    "velocity": 0.31496062992125984,
                    "duration": 0.15625
                },
                {
                    "name": "D5",
                    "midi": 74,
                    "time": 16.09375,
                    "velocity": 0.31496062992125984,
                    "duration": 0.15625
                },
                {
                    "name": "E4",
                    "midi": 64,
                    "time": 16.25,
                    "velocity": 0.31496062992125984,
                    "duration": 0.15625
                },
                {
                    "name": "C5",
                    "midi": 72,
                    "time": 16.25,
                    "velocity": 0.31496062992125984,
                    "duration": 0.15625
                },
                {
                    "name": "F4",
                    "midi": 65,
                    "time": 16.40625,
                    "velocity": 0.31496062992125984,
                    "duration": 0.15625
                },
                {
                    "name": "B4",
                    "midi": 71,
                    "time": 16.40625,
                    "velocity": 0.31496062992125984,
                    "duration": 0.15625
                },
                {
                    "name": "E4",
                    "midi": 64,
                    "time": 16.5625,
                    "velocity": 0.31496062992125984,
                    "duration": 0.15625
                },
                {
                    "name": "C5",
                    "midi": 72,
                    "time": 16.5625,
                    "velocity": 0.31496062992125984,
                    "duration": 0.15625
                },
                {
                    "name": "F4",
                    "midi": 65,
                    "time": 16.71875,
                    "velocity": 0.31496062992125984,
                    "duration": 0.15625
                },
                {
                    "name": "B4",
                    "midi": 71,
                    "time": 16.71875,
                    "velocity": 0.31496062992125984,
                    "duration": 0.15625
                },
                {
                    "name": "E4",
                    "midi": 64,
                    "time": 16.875,
                    "velocity": 0.31496062992125984,
                    "duration": 0.15625
                },
                {
                    "name": "C5",
                    "midi": 72,
                    "time": 16.875,
                    "velocity": 0.31496062992125984,
                    "duration": 0.15625
                },
                {
                    "name": "F4",
                    "midi": 65,
                    "time": 17.03125,
                    "velocity": 0.31496062992125984,
                    "duration": 0.15625
                },
                {
                    "name": "B4",
                    "midi": 71,
                    "time": 17.03125,
                    "velocity": 0.31496062992125984,
                    "duration": 0.15625
                },
                {
                    "name": "E4",
                    "midi": 64,
                    "time": 17.1875,
                    "velocity": 0.31496062992125984,
                    "duration": 0.15625
                },
                {
                    "name": "C5",
                    "midi": 72,
                    "time": 17.1875,
                    "velocity": 0.31496062992125984,
                    "duration": 0.15625
                },
                {
                    "name": "G4",
                    "midi": 67,
                    "time": 17.34375,
                    "velocity": 0.31496062992125984,
                    "duration": 0.15625
                },
                {
                    "name": "C#5",
                    "midi": 73,
                    "time": 17.34375,
                    "velocity": 0.31496062992125984,
                    "duration": 0.15625
                },
                {
                    "name": "F4",
                    "midi": 65,
                    "time": 17.5,
                    "velocity": 0.31496062992125984,
                    "duration": 0.15625
                },
                {
                    "name": "D5",
                    "midi": 74,
                    "time": 17.5,
                    "velocity": 0.31496062992125984,
                    "duration": 0.15625
                },
                {
                    "name": "G#4",
                    "midi": 68,
                    "time": 17.65625,
                    "velocity": 0.31496062992125984,
                    "duration": 0.15625
                },
                {
                    "name": "C#5",
                    "midi": 73,
                    "time": 17.65625,
                    "velocity": 0.31496062992125984,
                    "duration": 0.15625
                },
                {
                    "name": "F4",
                    "midi": 65,
                    "time": 17.8125,
                    "velocity": 0.31496062992125984,
                    "duration": 0.15625
                },
                {
                    "name": "D5",
                    "midi": 74,
                    "time": 17.8125,
                    "velocity": 0.31496062992125984,
                    "duration": 0.15625
                },
                {
                    "name": "G#4",
                    "midi": 68,
                    "time": 17.96875,
                    "velocity": 0.31496062992125984,
                    "duration": 0.15625
                },
                {
                    "name": "C#5",
                    "midi": 73,
                    "time": 17.96875,
                    "velocity": 0.31496062992125984,
                    "duration": 0.15625
                },
                {
                    "name": "F4",
                    "midi": 65,
                    "time": 18.125,
                    "velocity": 0.31496062992125984,
                    "duration": 0.15625
                },
                {
                    "name": "D5",
                    "midi": 74,
                    "time": 18.125,
                    "velocity": 0.31496062992125984,
                    "duration": 0.15625
                },
                {
                    "name": "G#4",
                    "midi": 68,
                    "time": 18.28125,
                    "velocity": 0.31496062992125984,
                    "duration": 0.15625
                },
                {
                    "name": "A#4",
                    "midi": 70,
                    "time": 18.28125,
                    "velocity": 0.31496062992125984,
                    "duration": 0.15625
                },
                {
                    "name": "D4",
                    "midi": 62,
                    "time": 18.4375,
                    "velocity": 0.31496062992125984,
                    "duration": 0.15625
                },
                {
                    "name": "C5",
                    "midi": 72,
                    "time": 18.4375,
                    "velocity": 0.31496062992125984,
                    "duration": 0.15625
                },
                {
                    "name": "G#4",
                    "midi": 68,
                    "time": 18.59375,
                    "velocity": 0.31496062992125984,
                    "duration": 0.15625
                },
                {
                    "name": "A#4",
                    "midi": 70,
                    "time": 18.59375,
                    "velocity": 0.31496062992125984,
                    "duration": 0.15625
                },
                {
                    "name": "G4",
                    "midi": 67,
                    "time": 18.75,
                    "velocity": 0.5039370078740157,
                    "duration": 0.15625
                },
                {
                    "name": "D#5",
                    "midi": 75,
                    "time": 18.75,
                    "velocity": 0.5039370078740157,
                    "duration": 0.15625
                },
                {
                    "name": "A#4",
                    "midi": 70,
                    "time": 18.90625,
                    "velocity": 0.5039370078740157,
                    "duration": 0.15625
                },
                {
                    "name": "D5",
                    "midi": 74,
                    "time": 18.90625,
                    "velocity": 0.5039370078740157,
                    "duration": 0.15625
                },
                {
                    "name": "G4",
                    "midi": 67,
                    "time": 19.0625,
                    "velocity": 0.5039370078740157,
                    "duration": 0.15625
                },
                {
                    "name": "D#5",
                    "midi": 75,
                    "time": 19.0625,
                    "velocity": 0.5039370078740157,
                    "duration": 0.15625
                },
                {
                    "name": "A#4",
                    "midi": 70,
                    "time": 19.21875,
                    "velocity": 0.5039370078740157,
                    "duration": 0.15625
                },
                {
                    "name": "D5",
                    "midi": 74,
                    "time": 19.21875,
                    "velocity": 0.5039370078740157,
                    "duration": 0.15625
                },
                {
                    "name": "G4",
                    "midi": 67,
                    "time": 19.375,
                    "velocity": 0.5039370078740157,
                    "duration": 0.15625
                },
                {
                    "name": "D#5",
                    "midi": 75,
                    "time": 19.375,
                    "velocity": 0.5039370078740157,
                    "duration": 0.15625
                },
                {
                    "name": "A#4",
                    "midi": 70,
                    "time": 19.53125,
                    "velocity": 0.5039370078740157,
                    "duration": 0.15625
                },
                {
                    "name": "D5",
                    "midi": 74,
                    "time": 19.53125,
                    "velocity": 0.5039370078740157,
                    "duration": 0.15625
                },
                {
                    "name": "G4",
                    "midi": 67,
                    "time": 19.6875,
                    "velocity": 0.5039370078740157,
                    "duration": 0.15625
                },
                {
                    "name": "D#5",
                    "midi": 75,
                    "time": 19.6875,
                    "velocity": 0.5039370078740157,
                    "duration": 0.15625
                },
                {
                    "name": "A#4",
                    "midi": 70,
                    "time": 19.84375,
                    "velocity": 0.5039370078740157,
                    "duration": 0.15625
                },
                {
                    "name": "E5",
                    "midi": 76,
                    "time": 19.84375,
                    "velocity": 0.5039370078740157,
                    "duration": 0.15625
                },
                {
                    "name": "G#4",
                    "midi": 68,
                    "time": 20,
                    "velocity": 0.5039370078740157,
                    "duration": 0.15625
                },
                {
                    "name": "F5",
                    "midi": 77,
                    "time": 20,
                    "velocity": 0.5039370078740157,
                    "duration": 0.15625
                },
                {
                    "name": "B4",
                    "midi": 71,
                    "time": 20.15625,
                    "velocity": 0.5039370078740157,
                    "duration": 0.15625
                },
                {
                    "name": "E5",
                    "midi": 76,
                    "time": 20.15625,
                    "velocity": 0.5039370078740157,
                    "duration": 0.15625
                },
                {
                    "name": "G#4",
                    "midi": 68,
                    "time": 20.3125,
                    "velocity": 0.5039370078740157,
                    "duration": 0.15625
                },
                {
                    "name": "F5",
                    "midi": 77,
                    "time": 20.3125,
                    "velocity": 0.5039370078740157,
                    "duration": 0.15625
                },
                {
                    "name": "B4",
                    "midi": 71,
                    "time": 20.46875,
                    "velocity": 0.5039370078740157,
                    "duration": 0.15625
                },
                {
                    "name": "E5",
                    "midi": 76,
                    "time": 20.46875,
                    "velocity": 0.5039370078740157,
                    "duration": 0.15625
                },
                {
                    "name": "G#4",
                    "midi": 68,
                    "time": 20.625,
                    "velocity": 0.5039370078740157,
                    "duration": 0.15625
                },
                {
                    "name": "F5",
                    "midi": 77,
                    "time": 20.625,
                    "velocity": 0.5039370078740157,
                    "duration": 0.15625
                },
                {
                    "name": "B4",
                    "midi": 71,
                    "time": 20.78125,
                    "velocity": 0.5039370078740157,
                    "duration": 0.15625
                },
                {
                    "name": "E5",
                    "midi": 76,
                    "time": 20.78125,
                    "velocity": 0.5039370078740157,
                    "duration": 0.15625
                },
                {
                    "name": "G#4",
                    "midi": 68,
                    "time": 20.9375,
                    "velocity": 0.5039370078740157,
                    "duration": 0.15625
                },
                {
                    "name": "F5",
                    "midi": 77,
                    "time": 20.9375,
                    "velocity": 0.5039370078740157,
                    "duration": 0.15625
                },
                {
                    "name": "A#4",
                    "midi": 70,
                    "time": 21.09375,
                    "velocity": 0.5039370078740157,
                    "duration": 0.15625
                },
                {
                    "name": "F#5",
                    "midi": 78,
                    "time": 21.09375,
                    "velocity": 0.5039370078740157,
                    "duration": 0.15625
                },
                {
                    "name": "G4",
                    "midi": 67,
                    "time": 21.25,
                    "velocity": 0.5039370078740157,
                    "duration": 0.15625
                },
                {
                    "name": "G5",
                    "midi": 79,
                    "time": 21.25,
                    "velocity": 0.5039370078740157,
                    "duration": 0.15625
                },
                {
                    "name": "A#4",
                    "midi": 70,
                    "time": 21.40625,
                    "velocity": 0.5039370078740157,
                    "duration": 0.15625
                },
                {
                    "name": "F#5",
                    "midi": 78,
                    "time": 21.40625,
                    "velocity": 0.5039370078740157,
                    "duration": 0.15625
                },
                {
                    "name": "G4",
                    "midi": 67,
                    "time": 21.5625,
                    "velocity": 0.5039370078740157,
                    "duration": 0.15625
                },
                {
                    "name": "G5",
                    "midi": 79,
                    "time": 21.5625,
                    "velocity": 0.5039370078740157,
                    "duration": 0.15625
                },
                {
                    "name": "C#5",
                    "midi": 73,
                    "time": 21.71875,
                    "velocity": 0.5039370078740157,
                    "duration": 0.15625
                },
                {
                    "name": "F#5",
                    "midi": 78,
                    "time": 21.71875,
                    "velocity": 0.5039370078740157,
                    "duration": 0.15625
                },
                {
                    "name": "G4",
                    "midi": 67,
                    "time": 21.875,
                    "velocity": 0.5039370078740157,
                    "duration": 0.15625
                },
                {
                    "name": "G5",
                    "midi": 79,
                    "time": 21.875,
                    "velocity": 0.5039370078740157,
                    "duration": 0.15625
                },
                {
                    "name": "C#5",
                    "midi": 73,
                    "time": 22.03125,
                    "velocity": 0.5039370078740157,
                    "duration": 0.15625
                },
                {
                    "name": "F#5",
                    "midi": 78,
                    "time": 22.03125,
                    "velocity": 0.5039370078740157,
                    "duration": 0.15625
                },
                {
                    "name": "G4",
                    "midi": 67,
                    "time": 22.1875,
                    "velocity": 0.5039370078740157,
                    "duration": 0.15625
                },
                {
                    "name": "G5",
                    "midi": 79,
                    "time": 22.1875,
                    "velocity": 0.5039370078740157,
                    "duration": 0.15625
                },
                {
                    "name": "C#5",
                    "midi": 73,
                    "time": 22.34375,
                    "velocity": 0.5039370078740157,
                    "duration": 0.15625
                },
                {
                    "name": "G#5",
                    "midi": 80,
                    "time": 22.34375,
                    "velocity": 0.5039370078740157,
                    "duration": 0.15625
                },
                {
                    "name": "G4",
                    "midi": 67,
                    "time": 22.5,
                    "velocity": 0.5039370078740157,
                    "duration": 0.15625
                },
                {
                    "name": "A5",
                    "midi": 81,
                    "time": 22.5,
                    "velocity": 0.5039370078740157,
                    "duration": 0.15625
                },
                {
                    "name": "C#5",
                    "midi": 73,
                    "time": 22.65625,
                    "velocity": 0.5039370078740157,
                    "duration": 0.15625
                },
                {
                    "name": "G#5",
                    "midi": 80,
                    "time": 22.65625,
                    "velocity": 0.5039370078740157,
                    "duration": 0.15625
                },
                {
                    "name": "G4",
                    "midi": 67,
                    "time": 22.8125,
                    "velocity": 0.5039370078740157,
                    "duration": 0.15625
                },
                {
                    "name": "A5",
                    "midi": 81,
                    "time": 22.8125,
                    "velocity": 0.5039370078740157,
                    "duration": 0.15625
                },
                {
                    "name": "C#5",
                    "midi": 73,
                    "time": 22.96875,
                    "velocity": 0.5039370078740157,
                    "duration": 0.15625
                },
                {
                    "name": "G#5",
                    "midi": 80,
                    "time": 22.96875,
                    "velocity": 0.5039370078740157,
                    "duration": 0.15625
                },
                {
                    "name": "G4",
                    "midi": 67,
                    "time": 23.125,
                    "velocity": 0.5039370078740157,
                    "duration": 0.15625
                },
                {
                    "name": "A5",
                    "midi": 81,
                    "time": 23.125,
                    "velocity": 0.5039370078740157,
                    "duration": 0.15625
                },
                {
                    "name": "C#5",
                    "midi": 73,
                    "time": 23.28125,
                    "velocity": 0.5039370078740157,
                    "duration": 0.15625
                },
                {
                    "name": "G#5",
                    "midi": 80,
                    "time": 23.28125,
                    "velocity": 0.5039370078740157,
                    "duration": 0.15625
                },
                {
                    "name": "G4",
                    "midi": 67,
                    "time": 23.4375,
                    "velocity": 0.5039370078740157,
                    "duration": 0.15625
                },
                {
                    "name": "A5",
                    "midi": 81,
                    "time": 23.4375,
                    "velocity": 0.5039370078740157,
                    "duration": 0.15625
                },
                {
                    "name": "C#5",
                    "midi": 73,
                    "time": 23.59375,
                    "velocity": 0.5039370078740157,
                    "duration": 0.15625
                },
                {
                    "name": "G5",
                    "midi": 79,
                    "time": 23.59375,
                    "velocity": 0.5039370078740157,
                    "duration": 0.15625
                },
                {
                    "name": "G4",
                    "midi": 67,
                    "time": 23.75,
                    "velocity": 0.5039370078740157,
                    "duration": 0.15625
                },
                {
                    "name": "G5",
                    "midi": 79,
                    "time": 23.75,
                    "velocity": 0.5039370078740157,
                    "duration": 0.15625
                },
                {
                    "name": "C5",
                    "midi": 72,
                    "time": 23.90625,
                    "velocity": 0.5039370078740157,
                    "duration": 0.15625
                },
                {
                    "name": "F#5",
                    "midi": 78,
                    "time": 23.90625,
                    "velocity": 0.5039370078740157,
                    "duration": 0.15625
                },
                {
                    "name": "F#4",
                    "midi": 66,
                    "time": 24.0625,
                    "velocity": 0.5039370078740157,
                    "duration": 0.15625
                },
                {
                    "name": "G5",
                    "midi": 79,
                    "time": 24.0625,
                    "velocity": 0.5039370078740157,
                    "duration": 0.15625
                },
                {
                    "name": "C5",
                    "midi": 72,
                    "time": 24.21875,
                    "velocity": 0.5039370078740157,
                    "duration": 0.15625
                },
                {
                    "name": "F#5",
                    "midi": 78,
                    "time": 24.21875,
                    "velocity": 0.5039370078740157,
                    "duration": 0.15625
                },
                {
                    "name": "F#4",
                    "midi": 66,
                    "time": 24.375,
                    "velocity": 0.5039370078740157,
                    "duration": 0.15625
                },
                {
                    "name": "G5",
                    "midi": 79,
                    "time": 24.375,
                    "velocity": 0.5039370078740157,
                    "duration": 0.15625
                },
                {
                    "name": "C5",
                    "midi": 72,
                    "time": 24.53125,
                    "velocity": 0.5039370078740157,
                    "duration": 0.15625
                },
                {
                    "name": "F#5",
                    "midi": 78,
                    "time": 24.53125,
                    "velocity": 0.5039370078740157,
                    "duration": 0.15625
                },
                {
                    "name": "F#4",
                    "midi": 66,
                    "time": 24.6875,
                    "velocity": 0.5039370078740157,
                    "duration": 0.15625
                },
                {
                    "name": "G5",
                    "midi": 79,
                    "time": 24.6875,
                    "velocity": 0.5039370078740157,
                    "duration": 0.15625
                },
                {
                    "name": "C5",
                    "midi": 72,
                    "time": 24.84375,
                    "velocity": 0.5039370078740157,
                    "duration": 0.15625
                },
                {
                    "name": "F#5",
                    "midi": 78,
                    "time": 24.84375,
                    "velocity": 0.5039370078740157,
                    "duration": 0.15625
                },
                {
                    "name": "F4",
                    "midi": 65,
                    "time": 25,
                    "velocity": 0.3937007874015748,
                    "duration": 0.15625
                },
                {
                    "name": "G5",
                    "midi": 79,
                    "time": 25,
                    "velocity": 0.3937007874015748,
                    "duration": 0.15625
                },
                {
                    "name": "B4",
                    "midi": 71,
                    "time": 25.15625,
                    "velocity": 0.3937007874015748,
                    "duration": 0.15625
                },
                {
                    "name": "F#5",
                    "midi": 78,
                    "time": 25.15625,
                    "velocity": 0.3937007874015748,
                    "duration": 0.15625
                },
                {
                    "name": "F4",
                    "midi": 65,
                    "time": 25.3125,
                    "velocity": 0.3937007874015748,
                    "duration": 0.15625
                },
                {
                    "name": "G5",
                    "midi": 79,
                    "time": 25.3125,
                    "velocity": 0.3937007874015748,
                    "duration": 0.15625
                },
                {
                    "name": "B4",
                    "midi": 71,
                    "time": 25.46875,
                    "velocity": 0.3937007874015748,
                    "duration": 0.15625
                },
                {
                    "name": "F#5",
                    "midi": 78,
                    "time": 25.46875,
                    "velocity": 0.3937007874015748,
                    "duration": 0.15625
                },
                {
                    "name": "F4",
                    "midi": 65,
                    "time": 25.625,
                    "velocity": 0.3937007874015748,
                    "duration": 0.15625
                },
                {
                    "name": "G5",
                    "midi": 79,
                    "time": 25.625,
                    "velocity": 0.3937007874015748,
                    "duration": 0.15625
                },
                {
                    "name": "B4",
                    "midi": 71,
                    "time": 25.78125,
                    "velocity": 0.3937007874015748,
                    "duration": 0.15625
                },
                {
                    "name": "F#5",
                    "midi": 78,
                    "time": 25.78125,
                    "velocity": 0.3937007874015748,
                    "duration": 0.15625
                },
                {
                    "name": "F4",
                    "midi": 65,
                    "time": 25.9375,
                    "velocity": 0.3937007874015748,
                    "duration": 0.15625
                },
                {
                    "name": "G5",
                    "midi": 79,
                    "time": 25.9375,
                    "velocity": 0.3937007874015748,
                    "duration": 0.15625
                },
                {
                    "name": "B4",
                    "midi": 71,
                    "time": 26.09375,
                    "velocity": 0.3937007874015748,
                    "duration": 0.15625
                },
                {
                    "name": "F5",
                    "midi": 77,
                    "time": 26.09375,
                    "velocity": 0.3937007874015748,
                    "duration": 0.15625
                },
                {
                    "name": "E4",
                    "midi": 64,
                    "time": 26.25,
                    "velocity": 0.3937007874015748,
                    "duration": 0.15625
                },
                {
                    "name": "F5",
                    "midi": 77,
                    "time": 26.25,
                    "velocity": 0.3937007874015748,
                    "duration": 0.15625
                },
                {
                    "name": "C5",
                    "midi": 72,
                    "time": 26.40625,
                    "velocity": 0.4094488188976378,
                    "duration": 0.15625
                },
                {
                    "name": "E5",
                    "midi": 76,
                    "time": 26.40625,
                    "velocity": 0.4094488188976378,
                    "duration": 0.15625
                },
                {
                    "name": "G4",
                    "midi": 67,
                    "time": 26.5625,
                    "velocity": 0.4251968503937008,
                    "duration": 0.15625
                },
                {
                    "name": "F5",
                    "midi": 77,
                    "time": 26.5625,
                    "velocity": 0.4251968503937008,
                    "duration": 0.15625
                },
                {
                    "name": "C5",
                    "midi": 72,
                    "time": 26.71875,
                    "velocity": 0.4330708661417323,
                    "duration": 0.15625
                },
                {
                    "name": "E5",
                    "midi": 76,
                    "time": 26.71875,
                    "velocity": 0.4330708661417323,
                    "duration": 0.15625
                },
                {
                    "name": "E4",
                    "midi": 64,
                    "time": 26.875,
                    "velocity": 0.44881889763779526,
                    "duration": 0.15625
                },
                {
                    "name": "F5",
                    "midi": 77,
                    "time": 26.875,
                    "velocity": 0.44881889763779526,
                    "duration": 0.15625
                },
                {
                    "name": "C5",
                    "midi": 72,
                    "time": 27.03125,
                    "velocity": 0.4645669291338583,
                    "duration": 0.15625
                },
                {
                    "name": "E5",
                    "midi": 76,
                    "time": 27.03125,
                    "velocity": 0.4645669291338583,
                    "duration": 0.15625
                },
                {
                    "name": "G4",
                    "midi": 67,
                    "time": 27.1875,
                    "velocity": 0.48031496062992124,
                    "duration": 0.15625
                },
                {
                    "name": "F5",
                    "midi": 77,
                    "time": 27.1875,
                    "velocity": 0.48031496062992124,
                    "duration": 0.15625
                },
                {
                    "name": "C5",
                    "midi": 72,
                    "time": 27.34375,
                    "velocity": 0.4881889763779528,
                    "duration": 0.15625
                },
                {
                    "name": "E5",
                    "midi": 76,
                    "time": 27.34375,
                    "velocity": 0.4881889763779528,
                    "duration": 0.15625
                },
                {
                    "name": "F4",
                    "midi": 65,
                    "time": 27.5,
                    "velocity": 0.5039370078740157,
                    "duration": 0.15625
                },
                {
                    "name": "G5",
                    "midi": 79,
                    "time": 27.5,
                    "velocity": 0.5039370078740157,
                    "duration": 0.15625
                },
                {
                    "name": "C5",
                    "midi": 72,
                    "time": 27.65625,
                    "velocity": 0.5039370078740157,
                    "duration": 0.15625
                },
                {
                    "name": "F5",
                    "midi": 77,
                    "time": 27.65625,
                    "velocity": 0.5039370078740157,
                    "duration": 0.15625
                },
                {
                    "name": "A4",
                    "midi": 69,
                    "time": 27.8125,
                    "velocity": 0.5039370078740157,
                    "duration": 0.15625
                },
                {
                    "name": "G5",
                    "midi": 79,
                    "time": 27.8125,
                    "velocity": 0.5039370078740157,
                    "duration": 0.15625
                },
                {
                    "name": "C5",
                    "midi": 72,
                    "time": 27.96875,
                    "velocity": 0.5039370078740157,
                    "duration": 0.15625
                },
                {
                    "name": "F5",
                    "midi": 77,
                    "time": 27.96875,
                    "velocity": 0.5039370078740157,
                    "duration": 0.15625
                },
                {
                    "name": "F4",
                    "midi": 65,
                    "time": 28.125,
                    "velocity": 0.5039370078740157,
                    "duration": 0.15625
                },
                {
                    "name": "C5",
                    "midi": 72,
                    "time": 28.125,
                    "velocity": 0.5039370078740157,
                    "duration": 0.15625
                },
                {
                    "name": "F5",
                    "midi": 77,
                    "time": 28.125,
                    "velocity": 0.5039370078740157,
                    "duration": 0.15625
                },
                {
                    "name": "A4",
                    "midi": 69,
                    "time": 28.28125,
                    "velocity": 0.5039370078740157,
                    "duration": 0.15625
                },
                {
                    "name": "F5",
                    "midi": 77,
                    "time": 28.28125,
                    "velocity": 0.5039370078740157,
                    "duration": 0.15625
                },
                {
                    "name": "A5",
                    "midi": 81,
                    "time": 28.28125,
                    "velocity": 0.5039370078740157,
                    "duration": 0.15625
                },
                {
                    "name": "C5",
                    "midi": 72,
                    "time": 28.4375,
                    "velocity": 0.5039370078740157,
                    "duration": 0.15625
                },
                {
                    "name": "A5",
                    "midi": 81,
                    "time": 28.4375,
                    "velocity": 0.5039370078740157,
                    "duration": 0.15625
                },
                {
                    "name": "C6",
                    "midi": 84,
                    "time": 28.4375,
                    "velocity": 0.5039370078740157,
                    "duration": 0.15625
                },
                {
                    "name": "F5",
                    "midi": 77,
                    "time": 28.59375,
                    "velocity": 0.5039370078740157,
                    "duration": 0.15625
                },
                {
                    "name": "C6",
                    "midi": 84,
                    "time": 28.59375,
                    "velocity": 0.5039370078740157,
                    "duration": 0.15625
                },
                {
                    "name": "F6",
                    "midi": 89,
                    "time": 28.59375,
                    "velocity": 0.5039370078740157,
                    "duration": 0.15625
                },
                {
                    "name": "F5",
                    "midi": 77,
                    "time": 28.75,
                    "velocity": 0.5039370078740157,
                    "duration": 0.15625
                },
                {
                    "name": "C6",
                    "midi": 84,
                    "time": 28.75,
                    "velocity": 0.5039370078740157,
                    "duration": 0.15625
                },
                {
                    "name": "F6",
                    "midi": 89,
                    "time": 28.75,
                    "velocity": 0.5039370078740157,
                    "duration": 0.15625
                },
                {
                    "name": "E5",
                    "midi": 76,
                    "time": 28.90625,
                    "velocity": 0.4881889763779528,
                    "duration": 0.15625
                },
                {
                    "name": "E6",
                    "midi": 88,
                    "time": 28.90625,
                    "velocity": 0.4881889763779528,
                    "duration": 0.15625
                },
                {
                    "name": "F5",
                    "midi": 77,
                    "time": 29.0625,
                    "velocity": 0.47244094488188976,
                    "duration": 0.15625
                },
                {
                    "name": "C6",
                    "midi": 84,
                    "time": 29.0625,
                    "velocity": 0.47244094488188976,
                    "duration": 0.15625
                },
                {
                    "name": "F6",
                    "midi": 89,
                    "time": 29.0625,
                    "velocity": 0.47244094488188976,
                    "duration": 0.15625
                },
                {
                    "name": "E5",
                    "midi": 76,
                    "time": 29.21875,
                    "velocity": 0.4645669291338583,
                    "duration": 0.15625
                },
                {
                    "name": "E6",
                    "midi": 88,
                    "time": 29.21875,
                    "velocity": 0.4645669291338583,
                    "duration": 0.15625
                },
                {
                    "name": "E4",
                    "midi": 64,
                    "time": 29.375,
                    "velocity": 0.44881889763779526,
                    "duration": 0.15625
                },
                {
                    "name": "F5",
                    "midi": 77,
                    "time": 29.375,
                    "velocity": 0.44881889763779526,
                    "duration": 0.15625
                },
                {
                    "name": "C5",
                    "midi": 72,
                    "time": 29.53125,
                    "velocity": 0.4330708661417323,
                    "duration": 0.15625
                },
                {
                    "name": "E5",
                    "midi": 76,
                    "time": 29.53125,
                    "velocity": 0.4330708661417323,
                    "duration": 0.15625
                },
                {
                    "name": "G4",
                    "midi": 67,
                    "time": 29.6875,
                    "velocity": 0.41732283464566927,
                    "duration": 0.15625
                },
                {
                    "name": "F5",
                    "midi": 77,
                    "time": 29.6875,
                    "velocity": 0.41732283464566927,
                    "duration": 0.15625
                },
                {
                    "name": "C5",
                    "midi": 72,
                    "time": 29.84375,
                    "velocity": 0.4094488188976378,
                    "duration": 0.15625
                },
                {
                    "name": "E5",
                    "midi": 76,
                    "time": 29.84375,
                    "velocity": 0.4094488188976378,
                    "duration": 0.15625
                },
                {
                    "name": "F4",
                    "midi": 65,
                    "time": 30,
                    "velocity": 0.3937007874015748,
                    "duration": 0.15625
                },
                {
                    "name": "G5",
                    "midi": 79,
                    "time": 30,
                    "velocity": 0.3937007874015748,
                    "duration": 0.15625
                },
                {
                    "name": "C5",
                    "midi": 72,
                    "time": 30.15625,
                    "velocity": 0.4251968503937008,
                    "duration": 0.15625
                },
                {
                    "name": "F5",
                    "midi": 77,
                    "time": 30.15625,
                    "velocity": 0.4251968503937008,
                    "duration": 0.15625
                },
                {
                    "name": "A4",
                    "midi": 69,
                    "time": 30.3125,
                    "velocity": 0.4566929133858268,
                    "duration": 0.15625
                },
                {
                    "name": "G5",
                    "midi": 79,
                    "time": 30.3125,
                    "velocity": 0.4566929133858268,
                    "duration": 0.15625
                },
                {
                    "name": "C5",
                    "midi": 72,
                    "time": 30.46875,
                    "velocity": 0.48031496062992124,
                    "duration": 0.15625
                },
                {
                    "name": "F5",
                    "midi": 77,
                    "time": 30.46875,
                    "velocity": 0.48031496062992124,
                    "duration": 0.15625
                },
                {
                    "name": "F4",
                    "midi": 65,
                    "time": 30.625,
                    "velocity": 0.5118110236220472,
                    "duration": 0.15625
                },
                {
                    "name": "C5",
                    "midi": 72,
                    "time": 30.625,
                    "velocity": 0.5118110236220472,
                    "duration": 0.15625
                },
                {
                    "name": "F5",
                    "midi": 77,
                    "time": 30.625,
                    "velocity": 0.5118110236220472,
                    "duration": 0.15625
                },
                {
                    "name": "A4",
                    "midi": 69,
                    "time": 30.78125,
                    "velocity": 0.5433070866141733,
                    "duration": 0.15625
                },
                {
                    "name": "F5",
                    "midi": 77,
                    "time": 30.78125,
                    "velocity": 0.5433070866141733,
                    "duration": 0.15625
                },
                {
                    "name": "A5",
                    "midi": 81,
                    "time": 30.78125,
                    "velocity": 0.5433070866141733,
                    "duration": 0.15625
                },
                {
                    "name": "C5",
                    "midi": 72,
                    "time": 30.9375,
                    "velocity": 0.5748031496062992,
                    "duration": 0.15625
                },
                {
                    "name": "A5",
                    "midi": 81,
                    "time": 30.9375,
                    "velocity": 0.5748031496062992,
                    "duration": 0.15625
                },
                {
                    "name": "C6",
                    "midi": 84,
                    "time": 30.9375,
                    "velocity": 0.5748031496062992,
                    "duration": 0.15625
                },
                {
                    "name": "F5",
                    "midi": 77,
                    "time": 31.09375,
                    "velocity": 0.5984251968503937,
                    "duration": 0.15625
                },
                {
                    "name": "C6",
                    "midi": 84,
                    "time": 31.09375,
                    "velocity": 0.5984251968503937,
                    "duration": 0.15625
                },
                {
                    "name": "F6",
                    "midi": 89,
                    "time": 31.09375,
                    "velocity": 0.5984251968503937,
                    "duration": 0.15625
                },
                {
                    "name": "E5",
                    "midi": 76,
                    "time": 31.25,
                    "velocity": 0.7874015748031497,
                    "duration": 0.46875
                },
                {
                    "name": "C6",
                    "midi": 84,
                    "time": 31.25,
                    "velocity": 0.7874015748031497,
                    "duration": 0.550537109375
                },
                {
                    "name": "E6",
                    "midi": 88,
                    "time": 31.25,
                    "velocity": 0.7874015748031497,
                    "duration": 0.550537109375
                },
                {
                    "name": "B4",
                    "midi": 71,
                    "time": 31.5625,
                    "velocity": 0.23622047244094488,
                    "duration": 0.3125
                },
                {
                    "name": "E5",
                    "midi": 76,
                    "time": 31.5625,
                    "velocity": 0.23622047244094488,
                    "duration": 0.238037109375
                },
                {
                    "name": "E5",
                    "midi": 76,
                    "time": 31.5625,
                    "velocity": 0.23622047244094488,
                    "duration": 0.3125
                },
                {
                    "name": "D5",
                    "midi": 74,
                    "time": 31.71875,
                    "velocity": 0.23622047244094488,
                    "duration": 0.15625
                },
                {
                    "name": "C5",
                    "midi": 72,
                    "time": 31.875,
                    "velocity": 0.23622047244094488,
                    "duration": 0.15625
                },
                {
                    "name": "G5",
                    "midi": 79,
                    "time": 31.875,
                    "velocity": 0.23622047244094488,
                    "duration": 0.3125
                },
                {
                    "name": "C5",
                    "midi": 72,
                    "time": 31.875,
                    "velocity": 0.23622047244094488,
                    "duration": 0.3125
                },
                {
                    "name": "B4",
                    "midi": 71,
                    "time": 32.03125,
                    "velocity": 0.23622047244094488,
                    "duration": 0.15625
                },
                {
                    "name": "G#4",
                    "midi": 68,
                    "time": 32.1875,
                    "velocity": 0.23622047244094488,
                    "duration": 0.3125
                },
                {
                    "name": "C5",
                    "midi": 72,
                    "time": 32.1875,
                    "velocity": 0.23622047244094488,
                    "duration": 0.15625
                },
                {
                    "name": "C5",
                    "midi": 72,
                    "time": 32.1875,
                    "velocity": 0.23622047244094488,
                    "duration": 0.3125
                },
                {
                    "name": "B4",
                    "midi": 71,
                    "time": 32.34375,
                    "velocity": 0.23622047244094488,
                    "duration": 0.15625
                },
                {
                    "name": "A4",
                    "midi": 69,
                    "time": 32.5,
                    "velocity": 0.23622047244094488,
                    "duration": 0.15625
                },
                {
                    "name": "E5",
                    "midi": 76,
                    "time": 32.5,
                    "velocity": 0.23622047244094488,
                    "duration": 0.3125
                },
                {
                    "name": "A4",
                    "midi": 69,
                    "time": 32.5,
                    "velocity": 0.23622047244094488,
                    "duration": 0.3125
                },
                {
                    "name": "G#4",
                    "midi": 68,
                    "time": 32.65625,
                    "velocity": 0.23622047244094488,
                    "duration": 0.15625
                },
                {
                    "name": "E4",
                    "midi": 64,
                    "time": 32.8125,
                    "velocity": 0.2283464566929134,
                    "duration": 0.3125
                },
                {
                    "name": "A4",
                    "midi": 69,
                    "time": 32.8125,
                    "velocity": 0.2283464566929134,
                    "duration": 0.15625
                },
                {
                    "name": "A4",
                    "midi": 69,
                    "time": 32.8125,
                    "velocity": 0.2283464566929134,
                    "duration": 0.3125
                },
                {
                    "name": "G4",
                    "midi": 67,
                    "time": 32.96875,
                    "velocity": 0.2283464566929134,
                    "duration": 0.15625
                },
                {
                    "name": "F4",
                    "midi": 65,
                    "time": 33.125,
                    "velocity": 0.2283464566929134,
                    "duration": 0.15625
                },
                {
                    "name": "C5",
                    "midi": 72,
                    "time": 33.125,
                    "velocity": 0.2283464566929134,
                    "duration": 0.3125
                },
                {
                    "name": "F4",
                    "midi": 65,
                    "time": 33.125,
                    "velocity": 0.2283464566929134,
                    "duration": 0.3125
                },
                {
                    "name": "E4",
                    "midi": 64,
                    "time": 33.28125,
                    "velocity": 0.2283464566929134,
                    "duration": 0.15625
                },
                {
                    "name": "C#4",
                    "midi": 61,
                    "time": 33.4375,
                    "velocity": 0.2204724409448819,
                    "duration": 0.3125
                },
                {
                    "name": "F4",
                    "midi": 65,
                    "time": 33.4375,
                    "velocity": 0.2204724409448819,
                    "duration": 0.15625
                },
                {
                    "name": "F4",
                    "midi": 65,
                    "time": 33.4375,
                    "velocity": 0.2204724409448819,
                    "duration": 0.3125
                },
                {
                    "name": "E4",
                    "midi": 64,
                    "time": 33.59375,
                    "velocity": 0.2204724409448819,
                    "duration": 0.15625
                },
                {
                    "name": "D4",
                    "midi": 62,
                    "time": 33.75,
                    "velocity": 0.2204724409448819,
                    "duration": 0.15625
                },
                {
                    "name": "A4",
                    "midi": 69,
                    "time": 33.75,
                    "velocity": 0.2204724409448819,
                    "duration": 0.15625
                },
                {
                    "name": "C#5",
                    "midi": 73,
                    "time": 33.90625,
                    "velocity": 0.2204724409448819,
                    "duration": 0.15625
                },
                {
                    "name": "D5",
                    "midi": 74,
                    "time": 34.0625,
                    "velocity": 0.2125984251968504,
                    "duration": 0.15625
                },
                {
                    "name": "A#4",
                    "midi": 70,
                    "time": 34.0625,
                    "velocity": 0.2125984251968504,
                    "duration": 0.3125
                },
                {
                    "name": "D5",
                    "midi": 74,
                    "time": 34.0625,
                    "velocity": 0.2125984251968504,
                    "duration": 0.3125
                },
                {
                    "name": "C5",
                    "midi": 72,
                    "time": 34.21875,
                    "velocity": 0.2125984251968504,
                    "duration": 0.15625
                },
                {
                    "name": "B4",
                    "midi": 71,
                    "time": 34.375,
                    "velocity": 0.2125984251968504,
                    "duration": 0.15625
                },
                {
                    "name": "B4",
                    "midi": 71,
                    "time": 34.375,
                    "velocity": 0.2125984251968504,
                    "duration": 0.3125
                },
                {
                    "name": "F5",
                    "midi": 77,
                    "time": 34.375,
                    "velocity": 0.2125984251968504,
                    "duration": 0.3125
                },
                {
                    "name": "A#4",
                    "midi": 70,
                    "time": 34.53125,
                    "velocity": 0.2125984251968504,
                    "duration": 0.15625
                },
                {
                    "name": "B4",
                    "midi": 71,
                    "time": 34.6875,
                    "velocity": 0.2047244094488189,
                    "duration": 0.15625
                },
                {
                    "name": "F#4",
                    "midi": 66,
                    "time": 34.6875,
                    "velocity": 0.2047244094488189,
                    "duration": 0.3125
                },
                {
                    "name": "B4",
                    "midi": 71,
                    "time": 34.6875,
                    "velocity": 0.2047244094488189,
                    "duration": 0.3125
                },
                {
                    "name": "A4",
                    "midi": 69,
                    "time": 34.84375,
                    "velocity": 0.2047244094488189,
                    "duration": 0.15625
                },
                {
                    "name": "G4",
                    "midi": 67,
                    "time": 35,
                    "velocity": 0.2047244094488189,
                    "duration": 0.15625
                },
                {
                    "name": "G4",
                    "midi": 67,
                    "time": 35,
                    "velocity": 0.2047244094488189,
                    "duration": 0.3125
                },
                {
                    "name": "D5",
                    "midi": 74,
                    "time": 35,
                    "velocity": 0.2047244094488189,
                    "duration": 0.3125
                },
                {
                    "name": "F#4",
                    "midi": 66,
                    "time": 35.15625,
                    "velocity": 0.1968503937007874,
                    "duration": 0.15625
                },
                {
                    "name": "G4",
                    "midi": 67,
                    "time": 35.3125,
                    "velocity": 0.1968503937007874,
                    "duration": 0.15625
                },
                {
                    "name": "D#4",
                    "midi": 63,
                    "time": 35.3125,
                    "velocity": 0.1968503937007874,
                    "duration": 0.3125
                },
                {
                    "name": "G4",
                    "midi": 67,
                    "time": 35.3125,
                    "velocity": 0.1968503937007874,
                    "duration": 0.3125
                },
                {
                    "name": "F#4",
                    "midi": 66,
                    "time": 35.46875,
                    "velocity": 0.1968503937007874,
                    "duration": 0.15625
                },
                {
                    "name": "E4",
                    "midi": 64,
                    "time": 35.625,
                    "velocity": 0.1968503937007874,
                    "duration": 0.15625
                },
                {
                    "name": "E4",
                    "midi": 64,
                    "time": 35.625,
                    "velocity": 0.1968503937007874,
                    "duration": 0.3125
                },
                {
                    "name": "B4",
                    "midi": 71,
                    "time": 35.625,
                    "velocity": 0.1968503937007874,
                    "duration": 0.3125
                },
                {
                    "name": "D#4",
                    "midi": 63,
                    "time": 35.78125,
                    "velocity": 0.1889763779527559,
                    "duration": 0.15625
                },
                {
                    "name": "E4",
                    "midi": 64,
                    "time": 35.9375,
                    "velocity": 0.1889763779527559,
                    "duration": 0.15625
                },
                {
                    "name": "B3",
                    "midi": 59,
                    "time": 35.9375,
                    "velocity": 0.1889763779527559,
                    "duration": 0.3125
                },
                {
                    "name": "E4",
                    "midi": 64,
                    "time": 35.9375,
                    "velocity": 0.1889763779527559,
                    "duration": 0.3125
                },
                {
                    "name": "D4",
                    "midi": 62,
                    "time": 36.09375,
                    "velocity": 0.1889763779527559,
                    "duration": 0.15625
                },
                {
                    "name": "C4",
                    "midi": 60,
                    "time": 36.25,
                    "velocity": 0.1889763779527559,
                    "duration": 0.15625
                },
                {
                    "name": "G4",
                    "midi": 67,
                    "time": 36.25,
                    "velocity": 0.1889763779527559,
                    "duration": 0.15625
                },
                {
                    "name": "B4",
                    "midi": 71,
                    "time": 36.40625,
                    "velocity": 0.18110236220472442,
                    "duration": 0.15625
                },
                {
                    "name": "C5",
                    "midi": 72,
                    "time": 36.5625,
                    "velocity": 0.18110236220472442,
                    "duration": 0.15625
                },
                {
                    "name": "G#4",
                    "midi": 68,
                    "time": 36.5625,
                    "velocity": 0.18110236220472442,
                    "duration": 0.3125
                },
                {
                    "name": "C5",
                    "midi": 72,
                    "time": 36.5625,
                    "velocity": 0.18110236220472442,
                    "duration": 0.3125
                },
                {
                    "name": "B4",
                    "midi": 71,
                    "time": 36.71875,
                    "velocity": 0.18110236220472442,
                    "duration": 0.15625
                },
                {
                    "name": "A4",
                    "midi": 69,
                    "time": 36.875,
                    "velocity": 0.1732283464566929,
                    "duration": 0.15625
                },
                {
                    "name": "A4",
                    "midi": 69,
                    "time": 36.875,
                    "velocity": 0.1732283464566929,
                    "duration": 0.3125
                },
                {
                    "name": "E5",
                    "midi": 76,
                    "time": 36.875,
                    "velocity": 0.1732283464566929,
                    "duration": 0.3125
                },
                {
                    "name": "G#4",
                    "midi": 68,
                    "time": 37.03125,
                    "velocity": 0.1732283464566929,
                    "duration": 0.15625
                },
                {
                    "name": "A4",
                    "midi": 69,
                    "time": 37.1875,
                    "velocity": 0.1732283464566929,
                    "duration": 0.15625
                },
                {
                    "name": "E4",
                    "midi": 64,
                    "time": 37.1875,
                    "velocity": 0.1732283464566929,
                    "duration": 0.3125
                },
                {
                    "name": "A4",
                    "midi": 69,
                    "time": 37.1875,
                    "velocity": 0.1732283464566929,
                    "duration": 0.3125
                },
                {
                    "name": "G4",
                    "midi": 67,
                    "time": 37.34375,
                    "velocity": 0.1732283464566929,
                    "duration": 0.15625
                },
                {
                    "name": "F4",
                    "midi": 65,
                    "time": 37.5,
                    "velocity": 0.16535433070866143,
                    "duration": 0.15625
                },
                {
                    "name": "F4",
                    "midi": 65,
                    "time": 37.5,
                    "velocity": 0.16535433070866143,
                    "duration": 0.3125
                },
                {
                    "name": "C5",
                    "midi": 72,
                    "time": 37.5,
                    "velocity": 0.16535433070866143,
                    "duration": 0.3125
                },
                {
                    "name": "E4",
                    "midi": 64,
                    "time": 37.65625,
                    "velocity": 0.16535433070866143,
                    "duration": 0.15625
                },
                {
                    "name": "F4",
                    "midi": 65,
                    "time": 37.8125,
                    "velocity": 0.16535433070866143,
                    "duration": 0.15625
                },
                {
                    "name": "C#4",
                    "midi": 61,
                    "time": 37.8125,
                    "velocity": 0.16535433070866143,
                    "duration": 0.3125
                },
                {
                    "name": "F4",
                    "midi": 65,
                    "time": 37.8125,
                    "velocity": 0.16535433070866143,
                    "duration": 0.3125
                },
                {
                    "name": "E4",
                    "midi": 64,
                    "time": 37.96875,
                    "velocity": 0.16535433070866143,
                    "duration": 0.15625
                },
                {
                    "name": "D4",
                    "midi": 62,
                    "time": 38.125,
                    "velocity": 0.15748031496062992,
                    "duration": 0.15625
                },
                {
                    "name": "D4",
                    "midi": 62,
                    "time": 38.125,
                    "velocity": 0.15748031496062992,
                    "duration": 0.3125
                },
                {
                    "name": "A4",
                    "midi": 69,
                    "time": 38.125,
                    "velocity": 0.15748031496062992,
                    "duration": 0.3125
                },
                {
                    "name": "C#4",
                    "midi": 61,
                    "time": 38.28125,
                    "velocity": 0.15748031496062992,
                    "duration": 0.15625
                },
                {
                    "name": "D4",
                    "midi": 62,
                    "time": 38.4375,
                    "velocity": 0.15748031496062992,
                    "duration": 0.15625
                },
                {
                    "name": "A#3",
                    "midi": 58,
                    "time": 38.4375,
                    "velocity": 0.15748031496062992,
                    "duration": 0.3125
                },
                {
                    "name": "D4",
                    "midi": 62,
                    "time": 38.4375,
                    "velocity": 0.15748031496062992,
                    "duration": 0.3125
                },
                {
                    "name": "C4",
                    "midi": 60,
                    "time": 38.59375,
                    "velocity": 0.15748031496062992,
                    "duration": 0.15625
                },
                {
                    "name": "B3",
                    "midi": 59,
                    "time": 38.75,
                    "velocity": 0.14960629921259844,
                    "duration": 0.15625
                },
                {
                    "name": "B3",
                    "midi": 59,
                    "time": 38.75,
                    "velocity": 0.14960629921259844,
                    "duration": 0.3125
                },
                {
                    "name": "F4",
                    "midi": 65,
                    "time": 38.75,
                    "velocity": 0.14960629921259844,
                    "duration": 0.3125
                },
                {
                    "name": "A#3",
                    "midi": 58,
                    "time": 38.90625,
                    "velocity": 0.14960629921259844,
                    "duration": 0.15625
                },
                {
                    "name": "B3",
                    "midi": 59,
                    "time": 39.0625,
                    "velocity": 0.14960629921259844,
                    "duration": 0.15625
                },
                {
                    "name": "F#3",
                    "midi": 54,
                    "time": 39.0625,
                    "velocity": 0.14960629921259844,
                    "duration": 0.3125
                },
                {
                    "name": "B3",
                    "midi": 59,
                    "time": 39.0625,
                    "velocity": 0.14960629921259844,
                    "duration": 0.3125
                },
                {
                    "name": "A3",
                    "midi": 57,
                    "time": 39.21875,
                    "velocity": 0.14173228346456693,
                    "duration": 0.15625
                },
                {
                    "name": "G3",
                    "midi": 55,
                    "time": 39.375,
                    "velocity": 0.14173228346456693,
                    "duration": 0.15625
                },
                {
                    "name": "G3",
                    "midi": 55,
                    "time": 39.375,
                    "velocity": 0.14173228346456693,
                    "duration": 0.3125
                },
                {
                    "name": "D4",
                    "midi": 62,
                    "time": 39.375,
                    "velocity": 0.14173228346456693,
                    "duration": 0.3125
                },
                {
                    "name": "F#3",
                    "midi": 54,
                    "time": 39.53125,
                    "velocity": 0.14173228346456693,
                    "duration": 0.15625
                },
                {
                    "name": "G3",
                    "midi": 55,
                    "time": 39.6875,
                    "velocity": 0.14173228346456693,
                    "duration": 0.15625
                },
                {
                    "name": "D#3",
                    "midi": 51,
                    "time": 39.6875,
                    "velocity": 0.14173228346456693,
                    "duration": 0.3125
                },
                {
                    "name": "G3",
                    "midi": 55,
                    "time": 39.6875,
                    "velocity": 0.14173228346456693,
                    "duration": 0.3125
                },
                {
                    "name": "F#3",
                    "midi": 54,
                    "time": 39.84375,
                    "velocity": 0.13385826771653545,
                    "duration": 0.15625
                },
                {
                    "name": "E3",
                    "midi": 52,
                    "time": 40,
                    "velocity": 0.13385826771653545,
                    "duration": 0.15625
                },
                {
                    "name": "E3",
                    "midi": 52,
                    "time": 40,
                    "velocity": 0.13385826771653545,
                    "duration": 0.3125
                },
                {
                    "name": "B3",
                    "midi": 59,
                    "time": 40,
                    "velocity": 0.13385826771653545,
                    "duration": 0.3125
                },
                {
                    "name": "D#3",
                    "midi": 51,
                    "time": 40.15625,
                    "velocity": 0.13385826771653545,
                    "duration": 0.15625
                },
                {
                    "name": "E3",
                    "midi": 52,
                    "time": 40.3125,
                    "velocity": 0.13385826771653545,
                    "duration": 0.15625
                },
                {
                    "name": "B2",
                    "midi": 47,
                    "time": 40.3125,
                    "velocity": 0.13385826771653545,
                    "duration": 0.3125
                },
                {
                    "name": "E3",
                    "midi": 52,
                    "time": 40.3125,
                    "velocity": 0.13385826771653545,
                    "duration": 0.3125
                },
                {
                    "name": "D3",
                    "midi": 50,
                    "time": 40.46875,
                    "velocity": 0.12598425196850394,
                    "duration": 0.15625
                },
                {
                    "name": "C3",
                    "midi": 48,
                    "time": 40.625,
                    "velocity": 0.12598425196850394,
                    "duration": 0.15625
                },
                {
                    "name": "C3",
                    "midi": 48,
                    "time": 40.625,
                    "velocity": 0.12598425196850394,
                    "duration": 0.3125
                },
                {
                    "name": "G3",
                    "midi": 55,
                    "time": 40.625,
                    "velocity": 0.12598425196850394,
                    "duration": 0.3125
                },
                {
                    "name": "B2",
                    "midi": 47,
                    "time": 40.78125,
                    "velocity": 0.12598425196850394,
                    "duration": 0.15625
                },
                {
                    "name": "C3",
                    "midi": 48,
                    "time": 40.9375,
                    "velocity": 0.12598425196850394,
                    "duration": 0.15625
                },
                {
                    "name": "E3",
                    "midi": 52,
                    "time": 40.9375,
                    "velocity": 0.12598425196850394,
                    "duration": 0.15625
                },
                {
                    "name": "B2",
                    "midi": 47,
                    "time": 41.09375,
                    "velocity": 0.11811023622047244,
                    "duration": 0.15625
                },
                {
                    "name": "D3",
                    "midi": 50,
                    "time": 41.09375,
                    "velocity": 0.11811023622047244,
                    "duration": 0.15625
                },
                {
                    "name": "A2",
                    "midi": 45,
                    "time": 41.25,
                    "velocity": 0.15748031496062992,
                    "duration": 0.15625
                },
                {
                    "name": "C3",
                    "midi": 48,
                    "time": 41.25,
                    "velocity": 0.15748031496062992,
                    "duration": 0.15625
                },
                {
                    "name": "B2",
                    "midi": 47,
                    "time": 41.40625,
                    "velocity": 0.1732283464566929,
                    "duration": 0.15625
                },
                {
                    "name": "D3",
                    "midi": 50,
                    "time": 41.40625,
                    "velocity": 0.1732283464566929,
                    "duration": 0.15625
                },
                {
                    "name": "C3",
                    "midi": 48,
                    "time": 41.5625,
                    "velocity": 0.1889763779527559,
                    "duration": 0.15625
                },
                {
                    "name": "E3",
                    "midi": 52,
                    "time": 41.5625,
                    "velocity": 0.1889763779527559,
                    "duration": 0.15625
                },
                {
                    "name": "D3",
                    "midi": 50,
                    "time": 41.71875,
                    "velocity": 0.2047244094488189,
                    "duration": 0.15625
                },
                {
                    "name": "F3",
                    "midi": 53,
                    "time": 41.71875,
                    "velocity": 0.2047244094488189,
                    "duration": 0.15625
                },
                {
                    "name": "E3",
                    "midi": 52,
                    "time": 41.875,
                    "velocity": 0.2204724409448819,
                    "duration": 0.15625
                },
                {
                    "name": "G3",
                    "midi": 55,
                    "time": 41.875,
                    "velocity": 0.2204724409448819,
                    "duration": 0.15625
                },
                {
                    "name": "F3",
                    "midi": 53,
                    "time": 42.03125,
                    "velocity": 0.2283464566929134,
                    "duration": 0.15625
                },
                {
                    "name": "A3",
                    "midi": 57,
                    "time": 42.03125,
                    "velocity": 0.2283464566929134,
                    "duration": 0.15625
                },
                {
                    "name": "G3",
                    "midi": 55,
                    "time": 42.1875,
                    "velocity": 0.2440944881889764,
                    "duration": 0.15625
                },
                {
                    "name": "B3",
                    "midi": 59,
                    "time": 42.1875,
                    "velocity": 0.2440944881889764,
                    "duration": 0.15625
                },
                {
                    "name": "A3",
                    "midi": 57,
                    "time": 42.34375,
                    "velocity": 0.25984251968503935,
                    "duration": 0.15625
                },
                {
                    "name": "C4",
                    "midi": 60,
                    "time": 42.34375,
                    "velocity": 0.25984251968503935,
                    "duration": 0.15625
                },
                {
                    "name": "B3",
                    "midi": 59,
                    "time": 42.5,
                    "velocity": 0.2755905511811024,
                    "duration": 0.15625
                },
                {
                    "name": "D4",
                    "midi": 62,
                    "time": 42.5,
                    "velocity": 0.2755905511811024,
                    "duration": 0.15625
                },
                {
                    "name": "C4",
                    "midi": 60,
                    "time": 42.65625,
                    "velocity": 0.29133858267716534,
                    "duration": 0.15625
                },
                {
                    "name": "E4",
                    "midi": 64,
                    "time": 42.65625,
                    "velocity": 0.29133858267716534,
                    "duration": 0.15625
                },
                {
                    "name": "D4",
                    "midi": 62,
                    "time": 42.8125,
                    "velocity": 0.30708661417322836,
                    "duration": 0.15625
                },
                {
                    "name": "F4",
                    "midi": 65,
                    "time": 42.8125,
                    "velocity": 0.30708661417322836,
                    "duration": 0.15625
                },
                {
                    "name": "E4",
                    "midi": 64,
                    "time": 42.96875,
                    "velocity": 0.3228346456692913,
                    "duration": 0.15625
                },
                {
                    "name": "G4",
                    "midi": 67,
                    "time": 42.96875,
                    "velocity": 0.3228346456692913,
                    "duration": 0.15625
                },
                {
                    "name": "F4",
                    "midi": 65,
                    "time": 43.125,
                    "velocity": 0.33858267716535434,
                    "duration": 0.15625
                },
                {
                    "name": "A4",
                    "midi": 69,
                    "time": 43.125,
                    "velocity": 0.33858267716535434,
                    "duration": 0.15625
                },
                {
                    "name": "G4",
                    "midi": 67,
                    "time": 43.28125,
                    "velocity": 0.3464566929133858,
                    "duration": 0.15625
                },
                {
                    "name": "B4",
                    "midi": 71,
                    "time": 43.28125,
                    "velocity": 0.3464566929133858,
                    "duration": 0.15625
                },
                {
                    "name": "A4",
                    "midi": 69,
                    "time": 43.4375,
                    "velocity": 0.36220472440944884,
                    "duration": 0.15625
                },
                {
                    "name": "C5",
                    "midi": 72,
                    "time": 43.4375,
                    "velocity": 0.36220472440944884,
                    "duration": 0.15625
                },
                {
                    "name": "B4",
                    "midi": 71,
                    "time": 43.59375,
                    "velocity": 0.3779527559055118,
                    "duration": 0.15625
                },
                {
                    "name": "D5",
                    "midi": 74,
                    "time": 43.59375,
                    "velocity": 0.3779527559055118,
                    "duration": 0.15625
                },
                {
                    "name": "C5",
                    "midi": 72,
                    "time": 43.75,
                    "velocity": 0.3937007874015748,
                    "duration": 0.15625
                },
                {
                    "name": "E5",
                    "midi": 76,
                    "time": 43.75,
                    "velocity": 0.3937007874015748,
                    "duration": 0.15625
                },
                {
                    "name": "D5",
                    "midi": 74,
                    "time": 43.90625,
                    "velocity": 0.4094488188976378,
                    "duration": 0.15625
                },
                {
                    "name": "F5",
                    "midi": 77,
                    "time": 43.90625,
                    "velocity": 0.4094488188976378,
                    "duration": 0.15625
                },
                {
                    "name": "E5",
                    "midi": 76,
                    "time": 44.0625,
                    "velocity": 0.4251968503937008,
                    "duration": 0.15625
                },
                {
                    "name": "G5",
                    "midi": 79,
                    "time": 44.0625,
                    "velocity": 0.4251968503937008,
                    "duration": 0.15625
                },
                {
                    "name": "D5",
                    "midi": 74,
                    "time": 44.21875,
                    "velocity": 0.4409448818897638,
                    "duration": 0.15625
                },
                {
                    "name": "G#5",
                    "midi": 80,
                    "time": 44.21875,
                    "velocity": 0.4409448818897638,
                    "duration": 0.15625
                },
                {
                    "name": "C#5",
                    "midi": 73,
                    "time": 44.375,
                    "velocity": 0.4566929133858268,
                    "duration": 0.15625
                },
                {
                    "name": "A5",
                    "midi": 81,
                    "time": 44.375,
                    "velocity": 0.4566929133858268,
                    "duration": 0.15625
                },
                {
                    "name": "A4",
                    "midi": 69,
                    "time": 44.53125,
                    "velocity": 0.4645669291338583,
                    "duration": 0.15625
                },
                {
                    "name": "G5",
                    "midi": 79,
                    "time": 44.53125,
                    "velocity": 0.4645669291338583,
                    "duration": 0.15625
                },
                {
                    "name": "D5",
                    "midi": 74,
                    "time": 44.6875,
                    "velocity": 0.48031496062992124,
                    "duration": 0.15625
                },
                {
                    "name": "F#5",
                    "midi": 78,
                    "time": 44.6875,
                    "velocity": 0.48031496062992124,
                    "duration": 0.15625
                },
                {
                    "name": "E5",
                    "midi": 76,
                    "time": 44.84375,
                    "velocity": 0.49606299212598426,
                    "duration": 0.15625
                },
                {
                    "name": "A#5",
                    "midi": 82,
                    "time": 44.84375,
                    "velocity": 0.49606299212598426,
                    "duration": 0.15625
                },
                {
                    "name": "D#5",
                    "midi": 75,
                    "time": 45,
                    "velocity": 0.5118110236220472,
                    "duration": 0.15625
                },
                {
                    "name": "B5",
                    "midi": 83,
                    "time": 45,
                    "velocity": 0.5118110236220472,
                    "duration": 0.15625
                },
                {
                    "name": "B4",
                    "midi": 71,
                    "time": 45.15625,
                    "velocity": 0.5275590551181102,
                    "duration": 0.15625
                },
                {
                    "name": "A5",
                    "midi": 81,
                    "time": 45.15625,
                    "velocity": 0.5275590551181102,
                    "duration": 0.15625
                },
                {
                    "name": "E5",
                    "midi": 76,
                    "time": 45.3125,
                    "velocity": 0.5433070866141733,
                    "duration": 0.15625
                },
                {
                    "name": "G5",
                    "midi": 79,
                    "time": 45.3125,
                    "velocity": 0.5433070866141733,
                    "duration": 0.15625
                },
                {
                    "name": "F5",
                    "midi": 77,
                    "time": 45.46875,
                    "velocity": 0.5590551181102362,
                    "duration": 0.15625
                },
                {
                    "name": "B5",
                    "midi": 83,
                    "time": 45.46875,
                    "velocity": 0.5590551181102362,
                    "duration": 0.15625
                },
                {
                    "name": "E5",
                    "midi": 76,
                    "time": 45.625,
                    "velocity": 0.5748031496062992,
                    "duration": 0.15625
                },
                {
                    "name": "C6",
                    "midi": 84,
                    "time": 45.625,
                    "velocity": 0.5748031496062992,
                    "duration": 0.15625
                },
                {
                    "name": "C5",
                    "midi": 72,
                    "time": 45.78125,
                    "velocity": 0.5826771653543307,
                    "duration": 0.15625
                },
                {
                    "name": "A#5",
                    "midi": 82,
                    "time": 45.78125,
                    "velocity": 0.5826771653543307,
                    "duration": 0.15625
                },
                {
                    "name": "F5",
                    "midi": 77,
                    "time": 45.9375,
                    "velocity": 0.5984251968503937,
                    "duration": 0.15625
                },
                {
                    "name": "A5",
                    "midi": 81,
                    "time": 45.9375,
                    "velocity": 0.5984251968503937,
                    "duration": 0.15625
                },
                {
                    "name": "G5",
                    "midi": 79,
                    "time": 46.09375,
                    "velocity": 0.6141732283464567,
                    "duration": 0.15625
                },
                {
                    "name": "C#6",
                    "midi": 85,
                    "time": 46.09375,
                    "velocity": 0.6141732283464567,
                    "duration": 0.15625
                },
                {
                    "name": "F#5",
                    "midi": 78,
                    "time": 46.25,
                    "velocity": 0.6299212598425197,
                    "duration": 0.15625
                },
                {
                    "name": "D6",
                    "midi": 86,
                    "time": 46.25,
                    "velocity": 0.6299212598425197,
                    "duration": 0.15625
                },
                {
                    "name": "D5",
                    "midi": 74,
                    "time": 46.40625,
                    "velocity": 0.6456692913385826,
                    "duration": 0.15625
                },
                {
                    "name": "C6",
                    "midi": 84,
                    "time": 46.40625,
                    "velocity": 0.6456692913385826,
                    "duration": 0.15625
                },
                {
                    "name": "G5",
                    "midi": 79,
                    "time": 46.5625,
                    "velocity": 0.6614173228346457,
                    "duration": 0.15625
                },
                {
                    "name": "B5",
                    "midi": 83,
                    "time": 46.5625,
                    "velocity": 0.6614173228346457,
                    "duration": 0.15625
                },
                {
                    "name": "A5",
                    "midi": 81,
                    "time": 46.71875,
                    "velocity": 0.6771653543307087,
                    "duration": 0.15625
                },
                {
                    "name": "D#6",
                    "midi": 87,
                    "time": 46.71875,
                    "velocity": 0.6771653543307087,
                    "duration": 0.15625
                },
                {
                    "name": "G#5",
                    "midi": 80,
                    "time": 46.875,
                    "velocity": 0.6929133858267716,
                    "duration": 0.15625
                },
                {
                    "name": "E6",
                    "midi": 88,
                    "time": 46.875,
                    "velocity": 0.6929133858267716,
                    "duration": 0.15625
                },
                {
                    "name": "E5",
                    "midi": 76,
                    "time": 47.03125,
                    "velocity": 0.7007874015748031,
                    "duration": 0.15625
                },
                {
                    "name": "D6",
                    "midi": 86,
                    "time": 47.03125,
                    "velocity": 0.7007874015748031,
                    "duration": 0.15625
                },
                {
                    "name": "A5",
                    "midi": 81,
                    "time": 47.1875,
                    "velocity": 0.7165354330708661,
                    "duration": 0.15625
                },
                {
                    "name": "C6",
                    "midi": 84,
                    "time": 47.1875,
                    "velocity": 0.7165354330708661,
                    "duration": 0.15625
                },
                {
                    "name": "G5",
                    "midi": 79,
                    "time": 47.34375,
                    "velocity": 0.7322834645669292,
                    "duration": 0.3125
                },
                {
                    "name": "C#6",
                    "midi": 85,
                    "time": 47.34375,
                    "velocity": 0.7322834645669292,
                    "duration": 0.15625
                },
                {
                    "name": "D6",
                    "midi": 86,
                    "time": 47.5,
                    "velocity": 0.7874015748031497,
                    "duration": 0.15625
                },
                {
                    "name": "G6",
                    "midi": 91,
                    "time": 47.65625,
                    "velocity": 0.7716535433070866,
                    "duration": 0.3125
                },
                {
                    "name": "A#5",
                    "midi": 82,
                    "time": 47.65625,
                    "velocity": 0.7716535433070866,
                    "duration": 0.15625
                },
                {
                    "name": "B5",
                    "midi": 83,
                    "time": 47.8125,
                    "velocity": 0.7480314960629921,
                    "duration": 0.15625
                },
                {
                    "name": "G6",
                    "midi": 91,
                    "time": 47.96875,
                    "velocity": 0.7322834645669292,
                    "duration": 0.3125
                },
                {
                    "name": "A#5",
                    "midi": 82,
                    "time": 47.96875,
                    "velocity": 0.7322834645669292,
                    "duration": 0.15625
                },
                {
                    "name": "B5",
                    "midi": 83,
                    "time": 48.125,
                    "velocity": 0.7165354330708661,
                    "duration": 0.15625
                },
                {
                    "name": "D6",
                    "midi": 86,
                    "time": 48.28125,
                    "velocity": 0.7007874015748031,
                    "duration": 0.3125
                },
                {
                    "name": "F#5",
                    "midi": 78,
                    "time": 48.28125,
                    "velocity": 0.7007874015748031,
                    "duration": 0.15625
                },
                {
                    "name": "G5",
                    "midi": 79,
                    "time": 48.4375,
                    "velocity": 0.6771653543307087,
                    "duration": 0.15625
                },
                {
                    "name": "D6",
                    "midi": 86,
                    "time": 48.59375,
                    "velocity": 0.6614173228346457,
                    "duration": 0.3125
                },
                {
                    "name": "F#5",
                    "midi": 78,
                    "time": 48.59375,
                    "velocity": 0.6614173228346457,
                    "duration": 0.15625
                },
                {
                    "name": "G5",
                    "midi": 79,
                    "time": 48.75,
                    "velocity": 0.6456692913385826,
                    "duration": 0.15625
                },
                {
                    "name": "F5",
                    "midi": 77,
                    "time": 48.90625,
                    "velocity": 0.6299212598425197,
                    "duration": 0.15625
                },
                {
                    "name": "B5",
                    "midi": 83,
                    "time": 48.90625,
                    "velocity": 0.6299212598425197,
                    "duration": 0.15625
                },
                {
                    "name": "E5",
                    "midi": 76,
                    "time": 49.0625,
                    "velocity": 0.6062992125984252,
                    "duration": 0.15625
                },
                {
                    "name": "C6",
                    "midi": 84,
                    "time": 49.0625,
                    "velocity": 0.6062992125984252,
                    "duration": 0.15625
                },
                {
                    "name": "D#5",
                    "midi": 75,
                    "time": 49.21875,
                    "velocity": 0.5905511811023622,
                    "duration": 0.15625
                },
                {
                    "name": "A5",
                    "midi": 81,
                    "time": 49.21875,
                    "velocity": 0.5905511811023622,
                    "duration": 0.15625
                },
                {
                    "name": "D5",
                    "midi": 74,
                    "time": 49.375,
                    "velocity": 0.5748031496062992,
                    "duration": 0.15625
                },
                {
                    "name": "B5",
                    "midi": 83,
                    "time": 49.375,
                    "velocity": 0.5748031496062992,
                    "duration": 0.15625
                },
                {
                    "name": "C5",
                    "midi": 72,
                    "time": 49.53125,
                    "velocity": 0.5590551181102362,
                    "duration": 0.15625
                },
                {
                    "name": "F#5",
                    "midi": 78,
                    "time": 49.53125,
                    "velocity": 0.5590551181102362,
                    "duration": 0.15625
                },
                {
                    "name": "B4",
                    "midi": 71,
                    "time": 49.6875,
                    "velocity": 0.5354330708661418,
                    "duration": 0.15625
                },
                {
                    "name": "G5",
                    "midi": 79,
                    "time": 49.6875,
                    "velocity": 0.5354330708661418,
                    "duration": 0.15625
                },
                {
                    "name": "A#4",
                    "midi": 70,
                    "time": 49.84375,
                    "velocity": 0.5196850393700787,
                    "duration": 0.15625
                },
                {
                    "name": "E5",
                    "midi": 76,
                    "time": 49.84375,
                    "velocity": 0.5196850393700787,
                    "duration": 0.15625
                },
                {
                    "name": "B4",
                    "midi": 71,
                    "time": 50,
                    "velocity": 0.5039370078740157,
                    "duration": 0.15625
                },
                {
                    "name": "D5",
                    "midi": 74,
                    "time": 50,
                    "velocity": 0.5039370078740157,
                    "duration": 0.15625
                },
                {
                    "name": "B4",
                    "midi": 71,
                    "time": 50,
                    "velocity": 0.5039370078740157,
                    "duration": 0.15625
                },
                {
                    "name": "G5",
                    "midi": 79,
                    "time": 50.15625,
                    "velocity": 0.49606299212598426,
                    "duration": 0.3125
                },
                {
                    "name": "A#4",
                    "midi": 70,
                    "time": 50.15625,
                    "velocity": 0.49606299212598426,
                    "duration": 0.15625
                },
                {
                    "name": "B4",
                    "midi": 71,
                    "time": 50.3125,
                    "velocity": 0.4881889763779528,
                    "duration": 0.15625
                },
                {
                    "name": "G5",
                    "midi": 79,
                    "time": 50.46875,
                    "velocity": 0.48031496062992124,
                    "duration": 0.3125
                },
                {
                    "name": "A#4",
                    "midi": 70,
                    "time": 50.46875,
                    "velocity": 0.48031496062992124,
                    "duration": 0.15625
                },
                {
                    "name": "B4",
                    "midi": 71,
                    "time": 50.625,
                    "velocity": 0.47244094488188976,
                    "duration": 0.15625
                },
                {
                    "name": "D5",
                    "midi": 74,
                    "time": 50.78125,
                    "velocity": 0.4645669291338583,
                    "duration": 0.3125
                },
                {
                    "name": "F#4",
                    "midi": 66,
                    "time": 50.78125,
                    "velocity": 0.4645669291338583,
                    "duration": 0.15625
                },
                {
                    "name": "G4",
                    "midi": 67,
                    "time": 50.9375,
                    "velocity": 0.4566929133858268,
                    "duration": 0.15625
                },
                {
                    "name": "D5",
                    "midi": 74,
                    "time": 51.09375,
                    "velocity": 0.44881889763779526,
                    "duration": 0.3125
                },
                {
                    "name": "F#4",
                    "midi": 66,
                    "time": 51.09375,
                    "velocity": 0.44881889763779526,
                    "duration": 0.15625
                },
                {
                    "name": "G4",
                    "midi": 67,
                    "time": 51.25,
                    "velocity": 0.4330708661417323,
                    "duration": 0.15625
                },
                {
                    "name": "F4",
                    "midi": 65,
                    "time": 51.40625,
                    "velocity": 0.4251968503937008,
                    "duration": 0.15625
                },
                {
                    "name": "B4",
                    "midi": 71,
                    "time": 51.40625,
                    "velocity": 0.4251968503937008,
                    "duration": 0.15625
                },
                {
                    "name": "E4",
                    "midi": 64,
                    "time": 51.5625,
                    "velocity": 0.41732283464566927,
                    "duration": 0.15625
                },
                {
                    "name": "C5",
                    "midi": 72,
                    "time": 51.5625,
                    "velocity": 0.41732283464566927,
                    "duration": 0.15625
                },
                {
                    "name": "D#4",
                    "midi": 63,
                    "time": 51.71875,
                    "velocity": 0.4094488188976378,
                    "duration": 0.15625
                },
                {
                    "name": "A4",
                    "midi": 69,
                    "time": 51.71875,
                    "velocity": 0.4094488188976378,
                    "duration": 0.15625
                },
                {
                    "name": "D4",
                    "midi": 62,
                    "time": 51.875,
                    "velocity": 0.4015748031496063,
                    "duration": 0.15625
                },
                {
                    "name": "B4",
                    "midi": 71,
                    "time": 51.875,
                    "velocity": 0.4015748031496063,
                    "duration": 0.15625
                },
                {
                    "name": "C4",
                    "midi": 60,
                    "time": 52.03125,
                    "velocity": 0.3937007874015748,
                    "duration": 0.15625
                },
                {
                    "name": "F#4",
                    "midi": 66,
                    "time": 52.03125,
                    "velocity": 0.3937007874015748,
                    "duration": 0.15625
                },
                {
                    "name": "B3",
                    "midi": 59,
                    "time": 52.1875,
                    "velocity": 0.3858267716535433,
                    "duration": 0.15625
                },
                {
                    "name": "G4",
                    "midi": 67,
                    "time": 52.1875,
                    "velocity": 0.3858267716535433,
                    "duration": 0.15625
                },
                {
                    "name": "D4",
                    "midi": 62,
                    "time": 52.34375,
                    "velocity": 0.3779527559055118,
                    "duration": 0.15625
                },
                {
                    "name": "G#4",
                    "midi": 68,
                    "time": 52.34375,
                    "velocity": 0.3779527559055118,
                    "duration": 0.15625
                },
                {
                    "name": "A4",
                    "midi": 69,
                    "time": 52.5,
                    "velocity": 0.3700787401574803,
                    "duration": 0.15625
                },
                {
                    "name": "G#4",
                    "midi": 68,
                    "time": 52.65625,
                    "velocity": 0.36220472440944884,
                    "duration": 0.15625
                },
                {
                    "name": "A4",
                    "midi": 69,
                    "time": 52.8125,
                    "velocity": 0.3543307086614173,
                    "duration": 0.15625
                },
                {
                    "name": "G4",
                    "midi": 67,
                    "time": 52.96875,
                    "velocity": 0.3464566929133858,
                    "duration": 0.15625
                },
                {
                    "name": "F#4",
                    "midi": 66,
                    "time": 53.125,
                    "velocity": 0.33858267716535434,
                    "duration": 0.15625
                },
                {
                    "name": "F4",
                    "midi": 65,
                    "time": 53.28125,
                    "velocity": 0.33070866141732286,
                    "duration": 0.15625
                },
                {
                    "name": "F#4",
                    "midi": 66,
                    "time": 53.4375,
                    "velocity": 0.3228346456692913,
                    "duration": 0.15625
                },
                {
                    "name": "E4",
                    "midi": 64,
                    "time": 53.59375,
                    "velocity": 0.31496062992125984,
                    "duration": 0.15625
                },
                {
                    "name": "C#4",
                    "midi": 61,
                    "time": 53.75,
                    "velocity": 0.2992125984251969,
                    "duration": 0.15625
                },
                {
                    "name": "D4",
                    "midi": 62,
                    "time": 53.90625,
                    "velocity": 0.29133858267716534,
                    "duration": 0.15625
                },
                {
                    "name": "E4",
                    "midi": 64,
                    "time": 54.0625,
                    "velocity": 0.28346456692913385,
                    "duration": 0.15625
                },
                {
                    "name": "F#4",
                    "midi": 66,
                    "time": 54.21875,
                    "velocity": 0.2755905511811024,
                    "duration": 0.15625
                },
                {
                    "name": "C#4",
                    "midi": 61,
                    "time": 54.375,
                    "velocity": 0.2677165354330709,
                    "duration": 0.15625
                },
                {
                    "name": "D4",
                    "midi": 62,
                    "time": 54.53125,
                    "velocity": 0.25984251968503935,
                    "duration": 0.15625
                },
                {
                    "name": "E4",
                    "midi": 64,
                    "time": 54.6875,
                    "velocity": 0.25196850393700787,
                    "duration": 0.15625
                },
                {
                    "name": "F#4",
                    "midi": 66,
                    "time": 54.84375,
                    "velocity": 0.2440944881889764,
                    "duration": 0.15625
                },
                {
                    "name": "G4",
                    "midi": 67,
                    "time": 55,
                    "velocity": 0.15748031496062992,
                    "duration": 0.15625
                },
                {
                    "name": "C#4",
                    "midi": 61,
                    "time": 55.15625,
                    "velocity": 0.15748031496062992,
                    "duration": 0.15625
                },
                {
                    "name": "D4",
                    "midi": 62,
                    "time": 55.3125,
                    "velocity": 0.15748031496062992,
                    "duration": 0.15625
                },
                {
                    "name": "C#4",
                    "midi": 61,
                    "time": 55.46875,
                    "velocity": 0.15748031496062992,
                    "duration": 0.15625
                },
                {
                    "name": "D4",
                    "midi": 62,
                    "time": 55.625,
                    "velocity": 0.15748031496062992,
                    "duration": 0.15625
                },
                {
                    "name": "C#4",
                    "midi": 61,
                    "time": 55.78125,
                    "velocity": 0.15748031496062992,
                    "duration": 0.15625
                },
                {
                    "name": "D4",
                    "midi": 62,
                    "time": 55.9375,
                    "velocity": 0.15748031496062992,
                    "duration": 0.15625
                },
                {
                    "name": "G4",
                    "midi": 67,
                    "time": 56.09375,
                    "velocity": 0.15748031496062992,
                    "duration": 0.15625
                },
                {
                    "name": "B4",
                    "midi": 71,
                    "time": 56.25,
                    "velocity": 0.15748031496062992,
                    "duration": 0.15625
                },
                {
                    "name": "D4",
                    "midi": 62,
                    "time": 56.25,
                    "velocity": 0.15748031496062992,
                    "duration": 1.25
                },
                {
                    "name": "A#4",
                    "midi": 70,
                    "time": 56.40625,
                    "velocity": 0.15748031496062992,
                    "duration": 0.15625
                },
                {
                    "name": "B4",
                    "midi": 71,
                    "time": 56.5625,
                    "velocity": 0.15748031496062992,
                    "duration": 0.15625
                },
                {
                    "name": "A#4",
                    "midi": 70,
                    "time": 56.71875,
                    "velocity": 0.15748031496062992,
                    "duration": 0.15625
                },
                {
                    "name": "B4",
                    "midi": 71,
                    "time": 56.875,
                    "velocity": 0.15748031496062992,
                    "duration": 0.15625
                },
                {
                    "name": "A#4",
                    "midi": 70,
                    "time": 57.03125,
                    "velocity": 0.15748031496062992,
                    "duration": 0.15625
                },
                {
                    "name": "B4",
                    "midi": 71,
                    "time": 57.1875,
                    "velocity": 0.15748031496062992,
                    "duration": 0.15625
                },
                {
                    "name": "G4",
                    "midi": 67,
                    "time": 57.34375,
                    "velocity": 0.15748031496062992,
                    "duration": 0.15625
                },
                {
                    "name": "C5",
                    "midi": 72,
                    "time": 57.5,
                    "velocity": 0.15748031496062992,
                    "duration": 0.15625
                },
                {
                    "name": "C4",
                    "midi": 60,
                    "time": 57.5,
                    "velocity": 0.15748031496062992,
                    "duration": 0.625
                },
                {
                    "name": "B4",
                    "midi": 71,
                    "time": 57.65625,
                    "velocity": 0.15748031496062992,
                    "duration": 0.15625
                },
                {
                    "name": "C5",
                    "midi": 72,
                    "time": 57.8125,
                    "velocity": 0.15748031496062992,
                    "duration": 0.15625
                },
                {
                    "name": "G4",
                    "midi": 67,
                    "time": 57.96875,
                    "velocity": 0.15748031496062992,
                    "duration": 0.15625
                },
                {
                    "name": "F#4",
                    "midi": 66,
                    "time": 58.125,
                    "velocity": 0.15748031496062992,
                    "duration": 0.15625
                },
                {
                    "name": "C4",
                    "midi": 60,
                    "time": 58.125,
                    "velocity": 0.15748031496062992,
                    "duration": 0.625
                },
                {
                    "name": "F4",
                    "midi": 65,
                    "time": 58.28125,
                    "velocity": 0.15748031496062992,
                    "duration": 0.15625
                },
                {
                    "name": "F#4",
                    "midi": 66,
                    "time": 58.4375,
                    "velocity": 0.15748031496062992,
                    "duration": 0.15625
                },
                {
                    "name": "A4",
                    "midi": 69,
                    "time": 58.59375,
                    "velocity": 0.15748031496062992,
                    "duration": 0.15625
                },
                {
                    "name": "G4",
                    "midi": 67,
                    "time": 58.75,
                    "velocity": 0.15748031496062992,
                    "duration": 0.3125
                },
                {
                    "name": "B3",
                    "midi": 59,
                    "time": 58.75,
                    "velocity": 0.15748031496062992,
                    "duration": 0.15625
                },
                {
                    "name": "A#3",
                    "midi": 58,
                    "time": 58.90625,
                    "velocity": 0.15748031496062992,
                    "duration": 0.15625
                },
                {
                    "name": "B3",
                    "midi": 59,
                    "time": 59.0625,
                    "velocity": 0.15748031496062992,
                    "duration": 0.15625
                },
                {
                    "name": "C4",
                    "midi": 60,
                    "time": 59.21875,
                    "velocity": 0.15748031496062992,
                    "duration": 0.15625
                },
                {
                    "name": "B3",
                    "midi": 59,
                    "time": 59.375,
                    "velocity": 0.15748031496062992,
                    "duration": 0.15625
                },
                {
                    "name": "A3",
                    "midi": 57,
                    "time": 59.53125,
                    "velocity": 0.15748031496062992,
                    "duration": 0.15625
                },
                {
                    "name": "G3",
                    "midi": 55,
                    "time": 59.6875,
                    "velocity": 0.15748031496062992,
                    "duration": 0.15625
                },
                {
                    "name": "B4",
                    "midi": 71,
                    "time": 60,
                    "velocity": 0.2755905511811024,
                    "duration": 0.625
                },
                {
                    "name": "B5",
                    "midi": 83,
                    "time": 60,
                    "velocity": 0.2755905511811024,
                    "duration": 0.625
                },
                {
                    "name": "G4",
                    "midi": 67,
                    "time": 60.625,
                    "velocity": 0.2755905511811024,
                    "duration": 0.46875
                },
                {
                    "name": "G5",
                    "midi": 79,
                    "time": 60.625,
                    "velocity": 0.2755905511811024,
                    "duration": 0.46875
                },
                {
                    "name": "E4",
                    "midi": 64,
                    "time": 61.09375,
                    "velocity": 0.2755905511811024,
                    "duration": 0.15625
                },
                {
                    "name": "E5",
                    "midi": 76,
                    "time": 61.09375,
                    "velocity": 0.2755905511811024,
                    "duration": 0.15625
                },
                {
                    "name": "D4",
                    "midi": 62,
                    "time": 61.25,
                    "velocity": 0.2755905511811024,
                    "duration": 1.09375
                },
                {
                    "name": "D5",
                    "midi": 74,
                    "time": 61.25,
                    "velocity": 0.2755905511811024,
                    "duration": 1.09375
                },
                {
                    "name": "B4",
                    "midi": 71,
                    "time": 62.34375,
                    "velocity": 0.2755905511811024,
                    "duration": 0.15625
                },
                {
                    "name": "B5",
                    "midi": 83,
                    "time": 62.34375,
                    "velocity": 0.2755905511811024,
                    "duration": 0.15625
                },
                {
                    "name": "A4",
                    "midi": 69,
                    "time": 62.5,
                    "velocity": 0.2755905511811024,
                    "duration": 0.46875
                },
                {
                    "name": "A5",
                    "midi": 81,
                    "time": 62.5,
                    "velocity": 0.2755905511811024,
                    "duration": 0.46875
                },
                {
                    "name": "D#4",
                    "midi": 63,
                    "time": 62.96875,
                    "velocity": 0.2755905511811024,
                    "duration": 0.15625
                },
                {
                    "name": "D#5",
                    "midi": 75,
                    "time": 62.96875,
                    "velocity": 0.2755905511811024,
                    "duration": 0.15625
                },
                {
                    "name": "D4",
                    "midi": 62,
                    "time": 63.125,
                    "velocity": 0.2755905511811024,
                    "duration": 0.46875
                },
                {
                    "name": "D5",
                    "midi": 74,
                    "time": 63.125,
                    "velocity": 0.2755905511811024,
                    "duration": 0.46875
                },
                {
                    "name": "C4",
                    "midi": 60,
                    "time": 63.59375,
                    "velocity": 0.2755905511811024,
                    "duration": 0.15625
                },
                {
                    "name": "F#4",
                    "midi": 66,
                    "time": 63.59375,
                    "velocity": 0.2755905511811024,
                    "duration": 0.15625
                },
                {
                    "name": "G4",
                    "midi": 67,
                    "time": 63.75,
                    "velocity": 0.2755905511811024,
                    "duration": 0.3125
                },
                {
                    "name": "B3",
                    "midi": 59,
                    "time": 63.75,
                    "velocity": 0.2755905511811024,
                    "duration": 0.15625
                },
                {
                    "name": "A#3",
                    "midi": 58,
                    "time": 63.90625,
                    "velocity": 0.25984251968503935,
                    "duration": 0.15625
                },
                {
                    "name": "B3",
                    "midi": 59,
                    "time": 64.0625,
                    "velocity": 0.2440944881889764,
                    "duration": 0.15625
                },
                {
                    "name": "C4",
                    "midi": 60,
                    "time": 64.21875,
                    "velocity": 0.2283464566929134,
                    "duration": 0.15625
                },
                {
                    "name": "B3",
                    "midi": 59,
                    "time": 64.375,
                    "velocity": 0.2125984251968504,
                    "duration": 0.15625
                },
                {
                    "name": "A#3",
                    "midi": 58,
                    "time": 64.53125,
                    "velocity": 0.2047244094488189,
                    "duration": 0.15625
                },
                {
                    "name": "B3",
                    "midi": 59,
                    "time": 64.6875,
                    "velocity": 0.1889763779527559,
                    "duration": 0.15625
                },
                {
                    "name": "B4",
                    "midi": 71,
                    "time": 65.15625,
                    "velocity": 0.14173228346456693,
                    "duration": 0.15625
                },
                {
                    "name": "B4",
                    "midi": 71,
                    "time": 65.15625,
                    "velocity": 0.14173228346456693,
                    "duration": 0.3125
                },
                {
                    "name": "E5",
                    "midi": 76,
                    "time": 65.3125,
                    "velocity": 0.14173228346456693,
                    "duration": 0.15625
                },
                {
                    "name": "A#4",
                    "midi": 70,
                    "time": 65.46875,
                    "velocity": 0.14173228346456693,
                    "duration": 0.15625
                },
                {
                    "name": "A#4",
                    "midi": 70,
                    "time": 65.46875,
                    "velocity": 0.14173228346456693,
                    "duration": 0.15625
                },
                {
                    "name": "A4",
                    "midi": 69,
                    "time": 65.625,
                    "velocity": 0.14173228346456693,
                    "duration": 0.15625
                },
                {
                    "name": "A4",
                    "midi": 69,
                    "time": 65.625,
                    "velocity": 0.14173228346456693,
                    "duration": 0.46875
                },
                {
                    "name": "D5",
                    "midi": 74,
                    "time": 65.78125,
                    "velocity": 0.14173228346456693,
                    "duration": 0.15625
                },
                {
                    "name": "F#5",
                    "midi": 78,
                    "time": 65.9375,
                    "velocity": 0.14173228346456693,
                    "duration": 0.15625
                },
                {
                    "name": "A4",
                    "midi": 69,
                    "time": 66.09375,
                    "velocity": 0.14173228346456693,
                    "duration": 0.15625
                },
                {
                    "name": "A4",
                    "midi": 69,
                    "time": 66.09375,
                    "velocity": 0.14173228346456693,
                    "duration": 0.15625
                },
                {
                    "name": "G4",
                    "midi": 67,
                    "time": 66.25,
                    "velocity": 0.14173228346456693,
                    "duration": 0.15625
                },
                {
                    "name": "G4",
                    "midi": 67,
                    "time": 66.25,
                    "velocity": 0.14173228346456693,
                    "duration": 0.3125
                },
                {
                    "name": "B4",
                    "midi": 71,
                    "time": 66.40625,
                    "velocity": 0.14173228346456693,
                    "duration": 0.15625
                },
                {
                    "name": "G4",
                    "midi": 67,
                    "time": 66.5625,
                    "velocity": 0.14173228346456693,
                    "duration": 0.15625
                },
                {
                    "name": "G4",
                    "midi": 67,
                    "time": 66.5625,
                    "velocity": 0.14173228346456693,
                    "duration": 0.3125
                },
                {
                    "name": "A4",
                    "midi": 69,
                    "time": 66.71875,
                    "velocity": 0.14173228346456693,
                    "duration": 0.78125
                },
                {
                    "name": "F#4",
                    "midi": 66,
                    "time": 66.875,
                    "velocity": 0.14173228346456693,
                    "duration": 0.625
                },
                {
                    "name": "E4",
                    "midi": 64,
                    "time": 67.65625,
                    "velocity": 0.14173228346456693,
                    "duration": 0.15625
                },
                {
                    "name": "E4",
                    "midi": 64,
                    "time": 67.65625,
                    "velocity": 0.14173228346456693,
                    "duration": 0.3125
                },
                {
                    "name": "A4",
                    "midi": 69,
                    "time": 67.8125,
                    "velocity": 0.14173228346456693,
                    "duration": 0.15625
                },
                {
                    "name": "D#4",
                    "midi": 63,
                    "time": 67.96875,
                    "velocity": 0.14173228346456693,
                    "duration": 0.15625
                },
                {
                    "name": "D#4",
                    "midi": 63,
                    "time": 67.96875,
                    "velocity": 0.14173228346456693,
                    "duration": 0.15625
                },
                {
                    "name": "D4",
                    "midi": 62,
                    "time": 68.125,
                    "velocity": 0.14173228346456693,
                    "duration": 0.15625
                },
                {
                    "name": "D4",
                    "midi": 62,
                    "time": 68.125,
                    "velocity": 0.14173228346456693,
                    "duration": 0.46875
                },
                {
                    "name": "G4",
                    "midi": 67,
                    "time": 68.28125,
                    "velocity": 0.14173228346456693,
                    "duration": 0.15625
                },
                {
                    "name": "B4",
                    "midi": 71,
                    "time": 68.4375,
                    "velocity": 0.14173228346456693,
                    "duration": 0.15625
                },
                {
                    "name": "D4",
                    "midi": 62,
                    "time": 68.59375,
                    "velocity": 0.14173228346456693,
                    "duration": 0.15625
                },
                {
                    "name": "D4",
                    "midi": 62,
                    "time": 68.59375,
                    "velocity": 0.14173228346456693,
                    "duration": 0.15625
                },
                {
                    "name": "C4",
                    "midi": 60,
                    "time": 68.75,
                    "velocity": 0.14173228346456693,
                    "duration": 0.15625
                },
                {
                    "name": "C4",
                    "midi": 60,
                    "time": 68.75,
                    "velocity": 0.14173228346456693,
                    "duration": 0.3125
                },
                {
                    "name": "E4",
                    "midi": 64,
                    "time": 68.90625,
                    "velocity": 0.14173228346456693,
                    "duration": 0.15625
                },
                {
                    "name": "C4",
                    "midi": 60,
                    "time": 69.0625,
                    "velocity": 0.14173228346456693,
                    "duration": 0.15625
                },
                {
                    "name": "C4",
                    "midi": 60,
                    "time": 69.0625,
                    "velocity": 0.14173228346456693,
                    "duration": 0.3125
                },
                {
                    "name": "D4",
                    "midi": 62,
                    "time": 69.21875,
                    "velocity": 0.14173228346456693,
                    "duration": 0.78125
                },
                {
                    "name": "B3",
                    "midi": 59,
                    "time": 69.375,
                    "velocity": 0.14173228346456693,
                    "duration": 0.625
                },
                {
                    "name": "B4",
                    "midi": 71,
                    "time": 70.15625,
                    "velocity": 0.14173228346456693,
                    "duration": 0.15625
                },
                {
                    "name": "B4",
                    "midi": 71,
                    "time": 70.15625,
                    "velocity": 0.14173228346456693,
                    "duration": 0.3125
                },
                {
                    "name": "E5",
                    "midi": 76,
                    "time": 70.3125,
                    "velocity": 0.14173228346456693,
                    "duration": 0.15625
                },
                {
                    "name": "B5",
                    "midi": 83,
                    "time": 70.3125,
                    "velocity": 0.14173228346456693,
                    "duration": 0.15625
                },
                {
                    "name": "A#4",
                    "midi": 70,
                    "time": 70.46875,
                    "velocity": 0.14173228346456693,
                    "duration": 0.15625
                },
                {
                    "name": "A#5",
                    "midi": 82,
                    "time": 70.46875,
                    "velocity": 0.14173228346456693,
                    "duration": 0.15625
                },
                {
                    "name": "A#4",
                    "midi": 70,
                    "time": 70.46875,
                    "velocity": 0.14173228346456693,
                    "duration": 0.15625
                },
                {
                    "name": "A4",
                    "midi": 69,
                    "time": 70.625,
                    "velocity": 0.14173228346456693,
                    "duration": 0.15625
                },
                {
                    "name": "A5",
                    "midi": 81,
                    "time": 70.625,
                    "velocity": 0.14173228346456693,
                    "duration": 0.15625
                },
                {
                    "name": "A4",
                    "midi": 69,
                    "time": 70.625,
                    "velocity": 0.14173228346456693,
                    "duration": 0.46875
                },
                {
                    "name": "D5",
                    "midi": 74,
                    "time": 70.78125,
                    "velocity": 0.14173228346456693,
                    "duration": 0.15625
                },
                {
                    "name": "F#5",
                    "midi": 78,
                    "time": 70.9375,
                    "velocity": 0.14173228346456693,
                    "duration": 0.15625
                },
                {
                    "name": "A4",
                    "midi": 69,
                    "time": 71.09375,
                    "velocity": 0.14173228346456693,
                    "duration": 0.15625
                },
                {
                    "name": "A4",
                    "midi": 69,
                    "time": 71.09375,
                    "velocity": 0.14173228346456693,
                    "duration": 0.15625
                },
                {
                    "name": "G4",
                    "midi": 67,
                    "time": 71.25,
                    "velocity": 0.14173228346456693,
                    "duration": 0.15625
                },
                {
                    "name": "G4",
                    "midi": 67,
                    "time": 71.25,
                    "velocity": 0.14173228346456693,
                    "duration": 0.3125
                },
                {
                    "name": "B4",
                    "midi": 71,
                    "time": 71.40625,
                    "velocity": 0.14173228346456693,
                    "duration": 0.15625
                },
                {
                    "name": "G4",
                    "midi": 67,
                    "time": 71.5625,
                    "velocity": 0.14173228346456693,
                    "duration": 0.15625
                },
                {
                    "name": "G4",
                    "midi": 67,
                    "time": 71.5625,
                    "velocity": 0.14173228346456693,
                    "duration": 0.3125
                },
                {
                    "name": "A4",
                    "midi": 69,
                    "time": 71.71875,
                    "velocity": 0.14173228346456693,
                    "duration": 0.78125
                },
                {
                    "name": "F#4",
                    "midi": 66,
                    "time": 71.875,
                    "velocity": 0.14173228346456693,
                    "duration": 0.625
                },
                {
                    "name": "E4",
                    "midi": 64,
                    "time": 72.65625,
                    "velocity": 0.14173228346456693,
                    "duration": 0.15625
                },
                {
                    "name": "E4",
                    "midi": 64,
                    "time": 72.65625,
                    "velocity": 0.14173228346456693,
                    "duration": 0.3125
                },
                {
                    "name": "A4",
                    "midi": 69,
                    "time": 72.8125,
                    "velocity": 0.14173228346456693,
                    "duration": 0.15625
                },
                {
                    "name": "E5",
                    "midi": 76,
                    "time": 72.8125,
                    "velocity": 0.14173228346456693,
                    "duration": 0.15625
                },
                {
                    "name": "D#4",
                    "midi": 63,
                    "time": 72.96875,
                    "velocity": 0.14173228346456693,
                    "duration": 0.15625
                },
                {
                    "name": "D#5",
                    "midi": 75,
                    "time": 72.96875,
                    "velocity": 0.14173228346456693,
                    "duration": 0.15625
                },
                {
                    "name": "D#4",
                    "midi": 63,
                    "time": 72.96875,
                    "velocity": 0.14173228346456693,
                    "duration": 0.15625
                },
                {
                    "name": "D4",
                    "midi": 62,
                    "time": 73.125,
                    "velocity": 0.14173228346456693,
                    "duration": 0.15625
                },
                {
                    "name": "D5",
                    "midi": 74,
                    "time": 73.125,
                    "velocity": 0.14173228346456693,
                    "duration": 0.15625
                },
                {
                    "name": "D4",
                    "midi": 62,
                    "time": 73.125,
                    "velocity": 0.14173228346456693,
                    "duration": 0.46875
                },
                {
                    "name": "G4",
                    "midi": 67,
                    "time": 73.28125,
                    "velocity": 0.14173228346456693,
                    "duration": 0.15625
                },
                {
                    "name": "B4",
                    "midi": 71,
                    "time": 73.4375,
                    "velocity": 0.14173228346456693,
                    "duration": 0.15625
                },
                {
                    "name": "D4",
                    "midi": 62,
                    "time": 73.59375,
                    "velocity": 0.14173228346456693,
                    "duration": 0.15625
                },
                {
                    "name": "D4",
                    "midi": 62,
                    "time": 73.59375,
                    "velocity": 0.14173228346456693,
                    "duration": 0.15625
                },
                {
                    "name": "A3",
                    "midi": 57,
                    "time": 73.75,
                    "velocity": 0.14173228346456693,
                    "duration": 0.15625
                },
                {
                    "name": "A3",
                    "midi": 57,
                    "time": 73.75,
                    "velocity": 0.14173228346456693,
                    "duration": 0.3125
                },
                {
                    "name": "E4",
                    "midi": 64,
                    "time": 73.90625,
                    "velocity": 0.14173228346456693,
                    "duration": 0.15625
                },
                {
                    "name": "A#3",
                    "midi": 58,
                    "time": 74.0625,
                    "velocity": 0.14173228346456693,
                    "duration": 0.15625
                },
                {
                    "name": "A#3",
                    "midi": 58,
                    "time": 74.0625,
                    "velocity": 0.14173228346456693,
                    "duration": 0.3125
                },
                {
                    "name": "E4",
                    "midi": 64,
                    "time": 74.21875,
                    "velocity": 0.14173228346456693,
                    "duration": 0.15625
                },
                {
                    "name": "B3",
                    "midi": 59,
                    "time": 74.375,
                    "velocity": 0.14173228346456693,
                    "duration": 0.15625
                },
                {
                    "name": "B3",
                    "midi": 59,
                    "time": 74.375,
                    "velocity": 0.14173228346456693,
                    "duration": 0.3125
                },
                {
                    "name": "D4",
                    "midi": 62,
                    "time": 74.53125,
                    "velocity": 0.14173228346456693,
                    "duration": 0.235595703125
                },
                {
                    "name": "C4",
                    "midi": 60,
                    "time": 74.84375,
                    "velocity": 0.5511811023622047,
                    "duration": 0.15625
                },
                {
                    "name": "F#4",
                    "midi": 66,
                    "time": 74.84375,
                    "velocity": 0.5511811023622047,
                    "duration": 0.15625
                },
                {
                    "name": "B3",
                    "midi": 59,
                    "time": 75,
                    "velocity": 0.7007874015748031,
                    "duration": 0.15625
                },
                {
                    "name": "G4",
                    "midi": 67,
                    "time": 75,
                    "velocity": 0.7007874015748031,
                    "duration": 0.15625
                },
                {
                    "name": "C4",
                    "midi": 60,
                    "time": 75.15625,
                    "velocity": 0.5511811023622047,
                    "duration": 0.15625
                },
                {
                    "name": "F#4",
                    "midi": 66,
                    "time": 75.15625,
                    "velocity": 0.5511811023622047,
                    "duration": 0.15625
                },
                {
                    "name": "B3",
                    "midi": 59,
                    "time": 75.3125,
                    "velocity": 0.5511811023622047,
                    "duration": 0.15625
                },
                {
                    "name": "G4",
                    "midi": 67,
                    "time": 75.3125,
                    "velocity": 0.5511811023622047,
                    "duration": 0.15625
                },
                {
                    "name": "D#4",
                    "midi": 63,
                    "time": 75.46875,
                    "velocity": 0.5511811023622047,
                    "duration": 0.15625
                },
                {
                    "name": "F#4",
                    "midi": 66,
                    "time": 75.46875,
                    "velocity": 0.5511811023622047,
                    "duration": 0.15625
                },
                {
                    "name": "D4",
                    "midi": 62,
                    "time": 75.625,
                    "velocity": 0.5511811023622047,
                    "duration": 0.15625
                },
                {
                    "name": "G4",
                    "midi": 67,
                    "time": 75.625,
                    "velocity": 0.5511811023622047,
                    "duration": 0.15625
                },
                {
                    "name": "C4",
                    "midi": 60,
                    "time": 75.78125,
                    "velocity": 0.5511811023622047,
                    "duration": 0.15625
                },
                {
                    "name": "F#4",
                    "midi": 66,
                    "time": 75.78125,
                    "velocity": 0.5511811023622047,
                    "duration": 0.15625
                },
                {
                    "name": "B3",
                    "midi": 59,
                    "time": 75.9375,
                    "velocity": 0.5511811023622047,
                    "duration": 0.15625
                },
                {
                    "name": "G4",
                    "midi": 67,
                    "time": 75.9375,
                    "velocity": 0.5511811023622047,
                    "duration": 0.15625
                },
                {
                    "name": "D4",
                    "midi": 62,
                    "time": 76.09375,
                    "velocity": 0.5511811023622047,
                    "duration": 0.15625
                },
                {
                    "name": "G#4",
                    "midi": 68,
                    "time": 76.09375,
                    "velocity": 0.5511811023622047,
                    "duration": 0.15625
                },
                {
                    "name": "C4",
                    "midi": 60,
                    "time": 76.25,
                    "velocity": 0.7007874015748031,
                    "duration": 0.15625
                },
                {
                    "name": "A4",
                    "midi": 69,
                    "time": 76.25,
                    "velocity": 0.7007874015748031,
                    "duration": 0.15625
                },
                {
                    "name": "D4",
                    "midi": 62,
                    "time": 76.40625,
                    "velocity": 0.5511811023622047,
                    "duration": 0.15625
                },
                {
                    "name": "G#4",
                    "midi": 68,
                    "time": 76.40625,
                    "velocity": 0.5511811023622047,
                    "duration": 0.15625
                },
                {
                    "name": "C4",
                    "midi": 60,
                    "time": 76.5625,
                    "velocity": 0.5511811023622047,
                    "duration": 0.15625
                },
                {
                    "name": "A4",
                    "midi": 69,
                    "time": 76.5625,
                    "velocity": 0.5511811023622047,
                    "duration": 0.15625
                },
                {
                    "name": "F4",
                    "midi": 65,
                    "time": 76.71875,
                    "velocity": 0.5511811023622047,
                    "duration": 0.15625
                },
                {
                    "name": "G#4",
                    "midi": 68,
                    "time": 76.71875,
                    "velocity": 0.5511811023622047,
                    "duration": 0.15625
                },
                {
                    "name": "E4",
                    "midi": 64,
                    "time": 76.875,
                    "velocity": 0.5511811023622047,
                    "duration": 0.15625
                },
                {
                    "name": "A4",
                    "midi": 69,
                    "time": 76.875,
                    "velocity": 0.5511811023622047,
                    "duration": 0.15625
                },
                {
                    "name": "D4",
                    "midi": 62,
                    "time": 77.03125,
                    "velocity": 0.5511811023622047,
                    "duration": 0.15625
                },
                {
                    "name": "G#4",
                    "midi": 68,
                    "time": 77.03125,
                    "velocity": 0.5511811023622047,
                    "duration": 0.15625
                },
                {
                    "name": "C4",
                    "midi": 60,
                    "time": 77.1875,
                    "velocity": 0.5511811023622047,
                    "duration": 0.15625
                },
                {
                    "name": "A4",
                    "midi": 69,
                    "time": 77.1875,
                    "velocity": 0.5511811023622047,
                    "duration": 0.15625
                },
                {
                    "name": "F4",
                    "midi": 65,
                    "time": 77.34375,
                    "velocity": 0.5511811023622047,
                    "duration": 0.15625
                },
                {
                    "name": "B4",
                    "midi": 71,
                    "time": 77.34375,
                    "velocity": 0.5511811023622047,
                    "duration": 0.15625
                },
                {
                    "name": "E4",
                    "midi": 64,
                    "time": 77.5,
                    "velocity": 0.5511811023622047,
                    "duration": 0.15625
                },
                {
                    "name": "C5",
                    "midi": 72,
                    "time": 77.5,
                    "velocity": 0.5511811023622047,
                    "duration": 0.15625
                },
                {
                    "name": "F4",
                    "midi": 65,
                    "time": 77.65625,
                    "velocity": 0.5511811023622047,
                    "duration": 0.15625
                },
                {
                    "name": "B4",
                    "midi": 71,
                    "time": 77.65625,
                    "velocity": 0.5511811023622047,
                    "duration": 0.15625
                },
                {
                    "name": "E4",
                    "midi": 64,
                    "time": 77.8125,
                    "velocity": 0.5511811023622047,
                    "duration": 0.15625
                },
                {
                    "name": "C5",
                    "midi": 72,
                    "time": 77.8125,
                    "velocity": 0.5511811023622047,
                    "duration": 0.15625
                },
                {
                    "name": "E4",
                    "midi": 64,
                    "time": 77.96875,
                    "velocity": 0.5511811023622047,
                    "duration": 0.15625
                },
                {
                    "name": "A#4",
                    "midi": 70,
                    "time": 77.96875,
                    "velocity": 0.5511811023622047,
                    "duration": 0.15625
                },
                {
                    "name": "D#4",
                    "midi": 63,
                    "time": 78.125,
                    "velocity": 0.5511811023622047,
                    "duration": 0.15625
                },
                {
                    "name": "B4",
                    "midi": 71,
                    "time": 78.125,
                    "velocity": 0.5511811023622047,
                    "duration": 0.15625
                },
                {
                    "name": "E4",
                    "midi": 64,
                    "time": 78.28125,
                    "velocity": 0.5511811023622047,
                    "duration": 0.15625
                },
                {
                    "name": "A#4",
                    "midi": 70,
                    "time": 78.28125,
                    "velocity": 0.5511811023622047,
                    "duration": 0.15625
                },
                {
                    "name": "D#4",
                    "midi": 63,
                    "time": 78.4375,
                    "velocity": 0.5511811023622047,
                    "duration": 0.15625
                },
                {
                    "name": "B4",
                    "midi": 71,
                    "time": 78.4375,
                    "velocity": 0.5511811023622047,
                    "duration": 0.15625
                },
                {
                    "name": "D4",
                    "midi": 62,
                    "time": 78.59375,
                    "velocity": 0.5511811023622047,
                    "duration": 0.15625
                },
                {
                    "name": "G#4",
                    "midi": 68,
                    "time": 78.59375,
                    "velocity": 0.5511811023622047,
                    "duration": 0.15625
                },
                {
                    "name": "C#4",
                    "midi": 61,
                    "time": 78.75,
                    "velocity": 0.5511811023622047,
                    "duration": 0.15625
                },
                {
                    "name": "A4",
                    "midi": 69,
                    "time": 78.75,
                    "velocity": 0.5511811023622047,
                    "duration": 0.15625
                },
                {
                    "name": "D4",
                    "midi": 62,
                    "time": 78.90625,
                    "velocity": 0.5511811023622047,
                    "duration": 0.15625
                },
                {
                    "name": "G#4",
                    "midi": 68,
                    "time": 78.90625,
                    "velocity": 0.5511811023622047,
                    "duration": 0.15625
                },
                {
                    "name": "C#4",
                    "midi": 61,
                    "time": 79.0625,
                    "velocity": 0.5511811023622047,
                    "duration": 0.15625
                },
                {
                    "name": "A4",
                    "midi": 69,
                    "time": 79.0625,
                    "velocity": 0.5511811023622047,
                    "duration": 0.15625
                },
                {
                    "name": "C4",
                    "midi": 60,
                    "time": 79.21875,
                    "velocity": 0.5511811023622047,
                    "duration": 0.15625
                },
                {
                    "name": "F#4",
                    "midi": 66,
                    "time": 79.21875,
                    "velocity": 0.5511811023622047,
                    "duration": 0.15625
                },
                {
                    "name": "B3",
                    "midi": 59,
                    "time": 79.375,
                    "velocity": 0.5511811023622047,
                    "duration": 0.15625
                },
                {
                    "name": "G4",
                    "midi": 67,
                    "time": 79.375,
                    "velocity": 0.5511811023622047,
                    "duration": 0.15625
                },
                {
                    "name": "C4",
                    "midi": 60,
                    "time": 79.53125,
                    "velocity": 0.5511811023622047,
                    "duration": 0.15625
                },
                {
                    "name": "F#4",
                    "midi": 66,
                    "time": 79.53125,
                    "velocity": 0.5511811023622047,
                    "duration": 0.15625
                },
                {
                    "name": "B3",
                    "midi": 59,
                    "time": 79.6875,
                    "velocity": 0.5511811023622047,
                    "duration": 0.15625
                },
                {
                    "name": "G4",
                    "midi": 67,
                    "time": 79.6875,
                    "velocity": 0.5511811023622047,
                    "duration": 0.15625
                },
                {
                    "name": "C5",
                    "midi": 72,
                    "time": 79.84375,
                    "velocity": 0.5511811023622047,
                    "duration": 0.15625
                },
                {
                    "name": "F#5",
                    "midi": 78,
                    "time": 79.84375,
                    "velocity": 0.5511811023622047,
                    "duration": 0.15625
                },
                {
                    "name": "B4",
                    "midi": 71,
                    "time": 80,
                    "velocity": 0.5511811023622047,
                    "duration": 0.15625
                },
                {
                    "name": "G5",
                    "midi": 79,
                    "time": 80,
                    "velocity": 0.5511811023622047,
                    "duration": 0.15625
                },
                {
                    "name": "C5",
                    "midi": 72,
                    "time": 80.15625,
                    "velocity": 0.5590551181102362,
                    "duration": 0.15625
                },
                {
                    "name": "F#5",
                    "midi": 78,
                    "time": 80.15625,
                    "velocity": 0.5590551181102362,
                    "duration": 0.15625
                },
                {
                    "name": "D5",
                    "midi": 74,
                    "time": 80.3125,
                    "velocity": 0.5590551181102362,
                    "duration": 0.15625
                },
                {
                    "name": "G5",
                    "midi": 79,
                    "time": 80.3125,
                    "velocity": 0.5590551181102362,
                    "duration": 0.15625
                },
                {
                    "name": "D#5",
                    "midi": 75,
                    "time": 80.46875,
                    "velocity": 0.5669291338582677,
                    "duration": 0.15625
                },
                {
                    "name": "F#5",
                    "midi": 78,
                    "time": 80.46875,
                    "velocity": 0.5669291338582677,
                    "duration": 0.15625
                },
                {
                    "name": "D5",
                    "midi": 74,
                    "time": 80.625,
                    "velocity": 0.5748031496062992,
                    "duration": 0.15625
                },
                {
                    "name": "G5",
                    "midi": 79,
                    "time": 80.625,
                    "velocity": 0.5748031496062992,
                    "duration": 0.15625
                },
                {
                    "name": "C5",
                    "midi": 72,
                    "time": 80.78125,
                    "velocity": 0.5748031496062992,
                    "duration": 0.15625
                },
                {
                    "name": "F#5",
                    "midi": 78,
                    "time": 80.78125,
                    "velocity": 0.5748031496062992,
                    "duration": 0.15625
                },
                {
                    "name": "B4",
                    "midi": 71,
                    "time": 80.9375,
                    "velocity": 0.5826771653543307,
                    "duration": 0.15625
                },
                {
                    "name": "G5",
                    "midi": 79,
                    "time": 80.9375,
                    "velocity": 0.5826771653543307,
                    "duration": 0.15625
                },
                {
                    "name": "D5",
                    "midi": 74,
                    "time": 81.09375,
                    "velocity": 0.5826771653543307,
                    "duration": 0.15625
                },
                {
                    "name": "G#5",
                    "midi": 80,
                    "time": 81.09375,
                    "velocity": 0.5826771653543307,
                    "duration": 0.15625
                },
                {
                    "name": "C5",
                    "midi": 72,
                    "time": 81.25,
                    "velocity": 0.5905511811023622,
                    "duration": 0.15625
                },
                {
                    "name": "A5",
                    "midi": 81,
                    "time": 81.25,
                    "velocity": 0.5905511811023622,
                    "duration": 0.15625
                },
                {
                    "name": "D5",
                    "midi": 74,
                    "time": 81.40625,
                    "velocity": 0.5984251968503937,
                    "duration": 0.15625
                },
                {
                    "name": "G#5",
                    "midi": 80,
                    "time": 81.40625,
                    "velocity": 0.5984251968503937,
                    "duration": 0.15625
                },
                {
                    "name": "E5",
                    "midi": 76,
                    "time": 81.5625,
                    "velocity": 0.5984251968503937,
                    "duration": 0.15625
                },
                {
                    "name": "A5",
                    "midi": 81,
                    "time": 81.5625,
                    "velocity": 0.5984251968503937,
                    "duration": 0.15625
                },
                {
                    "name": "F5",
                    "midi": 77,
                    "time": 81.71875,
                    "velocity": 0.6062992125984252,
                    "duration": 0.15625
                },
                {
                    "name": "G#5",
                    "midi": 80,
                    "time": 81.71875,
                    "velocity": 0.6062992125984252,
                    "duration": 0.15625
                },
                {
                    "name": "E5",
                    "midi": 76,
                    "time": 81.875,
                    "velocity": 0.6141732283464567,
                    "duration": 0.15625
                },
                {
                    "name": "A5",
                    "midi": 81,
                    "time": 81.875,
                    "velocity": 0.6141732283464567,
                    "duration": 0.15625
                },
                {
                    "name": "D5",
                    "midi": 74,
                    "time": 82.03125,
                    "velocity": 0.6141732283464567,
                    "duration": 0.15625
                },
                {
                    "name": "G#5",
                    "midi": 80,
                    "time": 82.03125,
                    "velocity": 0.6141732283464567,
                    "duration": 0.15625
                },
                {
                    "name": "C5",
                    "midi": 72,
                    "time": 82.1875,
                    "velocity": 0.6220472440944882,
                    "duration": 0.15625
                },
                {
                    "name": "A5",
                    "midi": 81,
                    "time": 82.1875,
                    "velocity": 0.6220472440944882,
                    "duration": 0.15625
                },
                {
                    "name": "F5",
                    "midi": 77,
                    "time": 82.34375,
                    "velocity": 0.6220472440944882,
                    "duration": 0.15625
                },
                {
                    "name": "B5",
                    "midi": 83,
                    "time": 82.34375,
                    "velocity": 0.6220472440944882,
                    "duration": 0.15625
                },
                {
                    "name": "E5",
                    "midi": 76,
                    "time": 82.5,
                    "velocity": 0.6299212598425197,
                    "duration": 0.15625
                },
                {
                    "name": "C6",
                    "midi": 84,
                    "time": 82.5,
                    "velocity": 0.6299212598425197,
                    "duration": 0.15625
                },
                {
                    "name": "F5",
                    "midi": 77,
                    "time": 82.65625,
                    "velocity": 0.6377952755905512,
                    "duration": 0.15625
                },
                {
                    "name": "B5",
                    "midi": 83,
                    "time": 82.65625,
                    "velocity": 0.6377952755905512,
                    "duration": 0.15625
                },
                {
                    "name": "E5",
                    "midi": 76,
                    "time": 82.8125,
                    "velocity": 0.6377952755905512,
                    "duration": 0.15625
                },
                {
                    "name": "C6",
                    "midi": 84,
                    "time": 82.8125,
                    "velocity": 0.6377952755905512,
                    "duration": 0.15625
                },
                {
                    "name": "E5",
                    "midi": 76,
                    "time": 82.96875,
                    "velocity": 0.6456692913385826,
                    "duration": 0.15625
                },
                {
                    "name": "A#5",
                    "midi": 82,
                    "time": 82.96875,
                    "velocity": 0.6456692913385826,
                    "duration": 0.15625
                },
                {
                    "name": "D#5",
                    "midi": 75,
                    "time": 83.125,
                    "velocity": 0.6535433070866141,
                    "duration": 0.15625
                },
                {
                    "name": "B5",
                    "midi": 83,
                    "time": 83.125,
                    "velocity": 0.6535433070866141,
                    "duration": 0.15625
                },
                {
                    "name": "E5",
                    "midi": 76,
                    "time": 83.28125,
                    "velocity": 0.6535433070866141,
                    "duration": 0.15625
                },
                {
                    "name": "A#5",
                    "midi": 82,
                    "time": 83.28125,
                    "velocity": 0.6535433070866141,
                    "duration": 0.15625
                },
                {
                    "name": "D#5",
                    "midi": 75,
                    "time": 83.4375,
                    "velocity": 0.6614173228346457,
                    "duration": 0.15625
                },
                {
                    "name": "B5",
                    "midi": 83,
                    "time": 83.4375,
                    "velocity": 0.6614173228346457,
                    "duration": 0.15625
                },
                {
                    "name": "D5",
                    "midi": 74,
                    "time": 83.59375,
                    "velocity": 0.6614173228346457,
                    "duration": 0.15625
                },
                {
                    "name": "G#5",
                    "midi": 80,
                    "time": 83.59375,
                    "velocity": 0.6614173228346457,
                    "duration": 0.15625
                },
                {
                    "name": "C#5",
                    "midi": 73,
                    "time": 83.75,
                    "velocity": 0.6692913385826772,
                    "duration": 0.15625
                },
                {
                    "name": "A5",
                    "midi": 81,
                    "time": 83.75,
                    "velocity": 0.6692913385826772,
                    "duration": 0.15625
                },
                {
                    "name": "D5",
                    "midi": 74,
                    "time": 83.90625,
                    "velocity": 0.6771653543307087,
                    "duration": 0.15625
                },
                {
                    "name": "G#5",
                    "midi": 80,
                    "time": 83.90625,
                    "velocity": 0.6771653543307087,
                    "duration": 0.15625
                },
                {
                    "name": "C#5",
                    "midi": 73,
                    "time": 84.0625,
                    "velocity": 0.6771653543307087,
                    "duration": 0.15625
                },
                {
                    "name": "A5",
                    "midi": 81,
                    "time": 84.0625,
                    "velocity": 0.6771653543307087,
                    "duration": 0.15625
                },
                {
                    "name": "C5",
                    "midi": 72,
                    "time": 84.21875,
                    "velocity": 0.6850393700787402,
                    "duration": 0.15625
                },
                {
                    "name": "F#5",
                    "midi": 78,
                    "time": 84.21875,
                    "velocity": 0.6850393700787402,
                    "duration": 0.15625
                },
                {
                    "name": "B4",
                    "midi": 71,
                    "time": 84.375,
                    "velocity": 0.6929133858267716,
                    "duration": 0.15625
                },
                {
                    "name": "G5",
                    "midi": 79,
                    "time": 84.375,
                    "velocity": 0.6929133858267716,
                    "duration": 0.15625
                },
                {
                    "name": "C5",
                    "midi": 72,
                    "time": 84.53125,
                    "velocity": 0.6929133858267716,
                    "duration": 0.15625
                },
                {
                    "name": "F#5",
                    "midi": 78,
                    "time": 84.53125,
                    "velocity": 0.6929133858267716,
                    "duration": 0.15625
                },
                {
                    "name": "B4",
                    "midi": 71,
                    "time": 84.6875,
                    "velocity": 0.7007874015748031,
                    "duration": 0.15625
                },
                {
                    "name": "G5",
                    "midi": 79,
                    "time": 84.6875,
                    "velocity": 0.7007874015748031,
                    "duration": 0.15625
                },
                {
                    "name": "A4",
                    "midi": 69,
                    "time": 84.84375,
                    "velocity": 1,
                    "duration": 0.3125
                },
                {
                    "name": "A5",
                    "midi": 81,
                    "time": 85.15625,
                    "velocity": 0.7086614173228346,
                    "duration": 0.15625
                },
                {
                    "name": "D5",
                    "midi": 74,
                    "time": 85.15625,
                    "velocity": 0.7086614173228346,
                    "duration": 0.3125
                },
                {
                    "name": "G#5",
                    "midi": 80,
                    "time": 85.3125,
                    "velocity": 0.7086614173228346,
                    "duration": 0.15625
                },
                {
                    "name": "D6",
                    "midi": 86,
                    "time": 85.46875,
                    "velocity": 0.7086614173228346,
                    "duration": 0.15625
                },
                {
                    "name": "G#5",
                    "midi": 80,
                    "time": 85.46875,
                    "velocity": 0.7086614173228346,
                    "duration": 0.15625
                },
                {
                    "name": "C#6",
                    "midi": 85,
                    "time": 85.625,
                    "velocity": 0.7086614173228346,
                    "duration": 0.15625
                },
                {
                    "name": "G5",
                    "midi": 79,
                    "time": 85.625,
                    "velocity": 0.7086614173228346,
                    "duration": 0.3125
                },
                {
                    "name": "A5",
                    "midi": 81,
                    "time": 85.78125,
                    "velocity": 0.7086614173228346,
                    "duration": 0.15625
                },
                {
                    "name": "E6",
                    "midi": 88,
                    "time": 85.9375,
                    "velocity": 0.7086614173228346,
                    "duration": 0.15625
                },
                {
                    "name": "C#5",
                    "midi": 73,
                    "time": 85.9375,
                    "velocity": 0.7086614173228346,
                    "duration": 0.15625
                },
                {
                    "name": "A4",
                    "midi": 69,
                    "time": 86.09375,
                    "velocity": 1,
                    "duration": 0.3125
                },
                {
                    "name": "A5",
                    "midi": 81,
                    "time": 86.40625,
                    "velocity": 0.7086614173228346,
                    "duration": 0.15625
                },
                {
                    "name": "D5",
                    "midi": 74,
                    "time": 86.40625,
                    "velocity": 0.7086614173228346,
                    "duration": 0.3125
                },
                {
                    "name": "G#5",
                    "midi": 80,
                    "time": 86.5625,
                    "velocity": 0.7086614173228346,
                    "duration": 0.15625
                },
                {
                    "name": "D6",
                    "midi": 86,
                    "time": 86.71875,
                    "velocity": 0.7086614173228346,
                    "duration": 0.15625
                },
                {
                    "name": "G#5",
                    "midi": 80,
                    "time": 86.71875,
                    "velocity": 0.7086614173228346,
                    "duration": 0.15625
                },
                {
                    "name": "C#6",
                    "midi": 85,
                    "time": 86.875,
                    "velocity": 0.7086614173228346,
                    "duration": 0.15625
                },
                {
                    "name": "G5",
                    "midi": 79,
                    "time": 86.875,
                    "velocity": 0.7086614173228346,
                    "duration": 0.3125
                },
                {
                    "name": "A5",
                    "midi": 81,
                    "time": 87.03125,
                    "velocity": 0.7086614173228346,
                    "duration": 0.15625
                },
                {
                    "name": "E6",
                    "midi": 88,
                    "time": 87.1875,
                    "velocity": 0.7086614173228346,
                    "duration": 0.15625
                },
                {
                    "name": "C#5",
                    "midi": 73,
                    "time": 87.1875,
                    "velocity": 0.7086614173228346,
                    "duration": 0.15625
                },
                {
                    "name": "A4",
                    "midi": 69,
                    "time": 87.34375,
                    "velocity": 0.7086614173228346,
                    "duration": 0.46875
                },
                {
                    "name": "D5",
                    "midi": 74,
                    "time": 87.65625,
                    "velocity": 0.7086614173228346,
                    "duration": 0.15625
                },
                {
                    "name": "A5",
                    "midi": 81,
                    "time": 87.65625,
                    "velocity": 0.7086614173228346,
                    "duration": 0.15625
                },
                {
                    "name": "G#5",
                    "midi": 80,
                    "time": 87.8125,
                    "velocity": 0.7086614173228346,
                    "duration": 0.15625
                },
                {
                    "name": "B4",
                    "midi": 71,
                    "time": 87.8125,
                    "velocity": 0.7086614173228346,
                    "duration": 0.15625
                },
                {
                    "name": "A#4",
                    "midi": 70,
                    "time": 87.96875,
                    "velocity": 0.7086614173228346,
                    "duration": 0.46875
                },
                {
                    "name": "C#5",
                    "midi": 73,
                    "time": 88.28125,
                    "velocity": 0.7086614173228346,
                    "duration": 0.15625
                },
                {
                    "name": "G5",
                    "midi": 79,
                    "time": 88.28125,
                    "velocity": 0.7086614173228346,
                    "duration": 0.15625
                },
                {
                    "name": "C5",
                    "midi": 72,
                    "time": 88.4375,
                    "velocity": 0.7086614173228346,
                    "duration": 0.15625
                },
                {
                    "name": "F#5",
                    "midi": 78,
                    "time": 88.4375,
                    "velocity": 0.7086614173228346,
                    "duration": 0.15625
                },
                {
                    "name": "A4",
                    "midi": 69,
                    "time": 88.4375,
                    "velocity": 0.7086614173228346,
                    "duration": 0.15625
                },
                {
                    "name": "G#4",
                    "midi": 68,
                    "time": 88.59375,
                    "velocity": 0.7086614173228346,
                    "duration": 0.46875
                },
                {
                    "name": "B4",
                    "midi": 71,
                    "time": 88.90625,
                    "velocity": 0.7086614173228346,
                    "duration": 0.15625
                },
                {
                    "name": "F5",
                    "midi": 77,
                    "time": 88.90625,
                    "velocity": 0.7086614173228346,
                    "duration": 0.15625
                },
                {
                    "name": "A#4",
                    "midi": 70,
                    "time": 89.0625,
                    "velocity": 0.7086614173228346,
                    "duration": 0.15625
                },
                {
                    "name": "E5",
                    "midi": 76,
                    "time": 89.0625,
                    "velocity": 0.7086614173228346,
                    "duration": 0.15625
                },
                {
                    "name": "G4",
                    "midi": 67,
                    "time": 89.0625,
                    "velocity": 0.7086614173228346,
                    "duration": 0.15625
                },
                {
                    "name": "F#4",
                    "midi": 66,
                    "time": 89.21875,
                    "velocity": 0.7086614173228346,
                    "duration": 0.3125
                },
                {
                    "name": "D#5",
                    "midi": 75,
                    "time": 89.53125,
                    "velocity": 0.7086614173228346,
                    "duration": 0.15625
                },
                {
                    "name": "A4",
                    "midi": 69,
                    "time": 89.53125,
                    "velocity": 0.7086614173228346,
                    "duration": 0.15625
                },
                {
                    "name": "D5",
                    "midi": 74,
                    "time": 89.6875,
                    "velocity": 0.7086614173228346,
                    "duration": 0.15625
                },
                {
                    "name": "F#4",
                    "midi": 66,
                    "time": 89.6875,
                    "velocity": 0.7086614173228346,
                    "duration": 0.15625
                },
                {
                    "name": "D4",
                    "midi": 62,
                    "time": 89.84375,
                    "velocity": 1,
                    "duration": 0.3125
                },
                {
                    "name": "D5",
                    "midi": 74,
                    "time": 90.15625,
                    "velocity": 0.7086614173228346,
                    "duration": 0.15625
                },
                {
                    "name": "G4",
                    "midi": 67,
                    "time": 90.15625,
                    "velocity": 0.7086614173228346,
                    "duration": 0.3125
                },
                {
                    "name": "C#5",
                    "midi": 73,
                    "time": 90.3125,
                    "velocity": 0.7086614173228346,
                    "duration": 0.15625
                },
                {
                    "name": "G5",
                    "midi": 79,
                    "time": 90.46875,
                    "velocity": 0.7086614173228346,
                    "duration": 0.15625
                },
                {
                    "name": "C#5",
                    "midi": 73,
                    "time": 90.46875,
                    "velocity": 0.7086614173228346,
                    "duration": 0.15625
                },
                {
                    "name": "F#5",
                    "midi": 78,
                    "time": 90.625,
                    "velocity": 0.7086614173228346,
                    "duration": 0.15625
                },
                {
                    "name": "C5",
                    "midi": 72,
                    "time": 90.625,
                    "velocity": 0.7086614173228346,
                    "duration": 0.3125
                },
                {
                    "name": "D5",
                    "midi": 74,
                    "time": 90.78125,
                    "velocity": 0.7086614173228346,
                    "duration": 0.15625
                },
                {
                    "name": "A5",
                    "midi": 81,
                    "time": 90.9375,
                    "velocity": 0.7086614173228346,
                    "duration": 0.15625
                },
                {
                    "name": "F#4",
                    "midi": 66,
                    "time": 90.9375,
                    "velocity": 0.7086614173228346,
                    "duration": 0.15625
                },
                {
                    "name": "D4",
                    "midi": 62,
                    "time": 91.09375,
                    "velocity": 1,
                    "duration": 0.3125
                },
                {
                    "name": "D5",
                    "midi": 74,
                    "time": 91.40625,
                    "velocity": 0.7086614173228346,
                    "duration": 0.15625
                },
                {
                    "name": "G4",
                    "midi": 67,
                    "time": 91.40625,
                    "velocity": 0.7086614173228346,
                    "duration": 0.3125
                },
                {
                    "name": "C#5",
                    "midi": 73,
                    "time": 91.5625,
                    "velocity": 0.7086614173228346,
                    "duration": 0.15625
                },
                {
                    "name": "G5",
                    "midi": 79,
                    "time": 91.71875,
                    "velocity": 0.7086614173228346,
                    "duration": 0.15625
                },
                {
                    "name": "C#5",
                    "midi": 73,
                    "time": 91.71875,
                    "velocity": 0.7086614173228346,
                    "duration": 0.15625
                },
                {
                    "name": "F#5",
                    "midi": 78,
                    "time": 91.875,
                    "velocity": 0.7086614173228346,
                    "duration": 0.15625
                },
                {
                    "name": "C5",
                    "midi": 72,
                    "time": 91.875,
                    "velocity": 0.7086614173228346,
                    "duration": 0.3125
                },
                {
                    "name": "D5",
                    "midi": 74,
                    "time": 92.03125,
                    "velocity": 0.7086614173228346,
                    "duration": 0.15625
                },
                {
                    "name": "A5",
                    "midi": 81,
                    "time": 92.1875,
                    "velocity": 0.7086614173228346,
                    "duration": 0.15625
                },
                {
                    "name": "F#4",
                    "midi": 66,
                    "time": 92.1875,
                    "velocity": 0.7086614173228346,
                    "duration": 0.15625
                },
                {
                    "name": "D4",
                    "midi": 62,
                    "time": 92.34375,
                    "velocity": 0.7086614173228346,
                    "duration": 0.3125
                },
                {
                    "name": "D5",
                    "midi": 74,
                    "time": 92.65625,
                    "velocity": 0.7086614173228346,
                    "duration": 0.15625
                },
                {
                    "name": "G4",
                    "midi": 67,
                    "time": 92.65625,
                    "velocity": 0.7086614173228346,
                    "duration": 0.15625
                },
                {
                    "name": "D#5",
                    "midi": 75,
                    "time": 92.8125,
                    "velocity": 0.7086614173228346,
                    "duration": 0.15625
                },
                {
                    "name": "G4",
                    "midi": 67,
                    "time": 92.8125,
                    "velocity": 0.7086614173228346,
                    "duration": 0.15625
                },
                {
                    "name": "D#5",
                    "midi": 75,
                    "time": 92.96875,
                    "velocity": 0.7086614173228346,
                    "duration": 0.15625
                },
                {
                    "name": "A4",
                    "midi": 69,
                    "time": 92.96875,
                    "velocity": 0.7086614173228346,
                    "duration": 0.15625
                },
                {
                    "name": "D5",
                    "midi": 74,
                    "time": 93.125,
                    "velocity": 0.7086614173228346,
                    "duration": 0.15625
                },
                {
                    "name": "A#4",
                    "midi": 70,
                    "time": 93.125,
                    "velocity": 0.7086614173228346,
                    "duration": 0.3125
                },
                {
                    "name": "F4",
                    "midi": 65,
                    "time": 93.28125,
                    "velocity": 0.7086614173228346,
                    "duration": 0.15625
                },
                {
                    "name": "F5",
                    "midi": 77,
                    "time": 93.4375,
                    "velocity": 0.7086614173228346,
                    "duration": 0.15625
                },
                {
                    "name": "D5",
                    "midi": 74,
                    "time": 93.4375,
                    "velocity": 0.7086614173228346,
                    "duration": 0.15625
                },
                {
                    "name": "D4",
                    "midi": 62,
                    "time": 93.59375,
                    "velocity": 0.7086614173228346,
                    "duration": 0.3125
                },
                {
                    "name": "D5",
                    "midi": 74,
                    "time": 93.90625,
                    "velocity": 0.7086614173228346,
                    "duration": 0.15625
                },
                {
                    "name": "A#4",
                    "midi": 70,
                    "time": 93.90625,
                    "velocity": 0.7086614173228346,
                    "duration": 0.15625
                },
                {
                    "name": "D#5",
                    "midi": 75,
                    "time": 94.0625,
                    "velocity": 0.7086614173228346,
                    "duration": 0.15625
                },
                {
                    "name": "A#4",
                    "midi": 70,
                    "time": 94.0625,
                    "velocity": 0.7086614173228346,
                    "duration": 0.15625
                },
                {
                    "name": "D#5",
                    "midi": 75,
                    "time": 94.21875,
                    "velocity": 0.7086614173228346,
                    "duration": 0.15625
                },
                {
                    "name": "A4",
                    "midi": 69,
                    "time": 94.21875,
                    "velocity": 0.7086614173228346,
                    "duration": 0.15625
                },
                {
                    "name": "D5",
                    "midi": 74,
                    "time": 94.375,
                    "velocity": 0.7086614173228346,
                    "duration": 0.15625
                },
                {
                    "name": "A#4",
                    "midi": 70,
                    "time": 94.375,
                    "velocity": 0.7086614173228346,
                    "duration": 0.3125
                },
                {
                    "name": "F4",
                    "midi": 65,
                    "time": 94.53125,
                    "velocity": 0.7086614173228346,
                    "duration": 0.15625
                },
                {
                    "name": "F5",
                    "midi": 77,
                    "time": 94.6875,
                    "velocity": 0.7086614173228346,
                    "duration": 0.15625
                },
                {
                    "name": "D5",
                    "midi": 74,
                    "time": 94.6875,
                    "velocity": 0.7086614173228346,
                    "duration": 0.15625
                },
                {
                    "name": "D4",
                    "midi": 62,
                    "time": 94.84375,
                    "velocity": 0.7086614173228346,
                    "duration": 0.3125
                },
                {
                    "name": "G#4",
                    "midi": 68,
                    "time": 95.15625,
                    "velocity": 0.6929133858267716,
                    "duration": 0.3125
                },
                {
                    "name": "D5",
                    "midi": 74,
                    "time": 95.15625,
                    "velocity": 0.6929133858267716,
                    "duration": 0.15625
                },
                {
                    "name": "D4",
                    "midi": 62,
                    "time": 95.15625,
                    "velocity": 0.6929133858267716,
                    "duration": 0.15625
                },
                {
                    "name": "D#5",
                    "midi": 75,
                    "time": 95.3125,
                    "velocity": 0.6850393700787402,
                    "duration": 0.15625
                },
                {
                    "name": "D#4",
                    "midi": 63,
                    "time": 95.3125,
                    "velocity": 0.6850393700787402,
                    "duration": 0.15625
                },
                {
                    "name": "E4",
                    "midi": 64,
                    "time": 95.46875,
                    "velocity": 0.6692913385826772,
                    "duration": 0.3125
                },
                {
                    "name": "G#4",
                    "midi": 68,
                    "time": 95.78125,
                    "velocity": 0.6456692913385826,
                    "duration": 0.3125
                },
                {
                    "name": "E5",
                    "midi": 76,
                    "time": 95.78125,
                    "velocity": 0.6456692913385826,
                    "duration": 0.15625
                },
                {
                    "name": "E4",
                    "midi": 64,
                    "time": 95.78125,
                    "velocity": 0.6456692913385826,
                    "duration": 0.15625
                },
                {
                    "name": "F5",
                    "midi": 77,
                    "time": 95.9375,
                    "velocity": 0.6377952755905512,
                    "duration": 0.15625
                },
                {
                    "name": "F4",
                    "midi": 65,
                    "time": 95.9375,
                    "velocity": 0.6377952755905512,
                    "duration": 0.15625
                },
                {
                    "name": "C#5",
                    "midi": 73,
                    "time": 96.09375,
                    "velocity": 0.6220472440944882,
                    "duration": 0.625
                },
                {
                    "name": "G4",
                    "midi": 67,
                    "time": 96.40625,
                    "velocity": 0.5984251968503937,
                    "duration": 0.15625
                },
                {
                    "name": "G5",
                    "midi": 79,
                    "time": 96.40625,
                    "velocity": 0.5984251968503937,
                    "duration": 0.15625
                },
                {
                    "name": "G#4",
                    "midi": 68,
                    "time": 96.5625,
                    "velocity": 0.5826771653543307,
                    "duration": 0.15625
                },
                {
                    "name": "G#5",
                    "midi": 80,
                    "time": 96.5625,
                    "velocity": 0.5826771653543307,
                    "duration": 0.15625
                },
                {
                    "name": "C#5",
                    "midi": 73,
                    "time": 96.71875,
                    "velocity": 0.5748031496062992,
                    "duration": 0.15625
                },
                {
                    "name": "C#5",
                    "midi": 73,
                    "time": 96.875,
                    "velocity": 0.5590551181102362,
                    "duration": 0.46875
                },
                {
                    "name": "A4",
                    "midi": 69,
                    "time": 97.03125,
                    "velocity": 0.5511811023622047,
                    "duration": 0.15625
                },
                {
                    "name": "A5",
                    "midi": 81,
                    "time": 97.03125,
                    "velocity": 0.5511811023622047,
                    "duration": 0.15625
                },
                {
                    "name": "A#4",
                    "midi": 70,
                    "time": 97.1875,
                    "velocity": 0.5354330708661418,
                    "duration": 0.15625
                },
                {
                    "name": "A#5",
                    "midi": 82,
                    "time": 97.1875,
                    "velocity": 0.5354330708661418,
                    "duration": 0.15625
                },
                {
                    "name": "C#4",
                    "midi": 61,
                    "time": 97.34375,
                    "velocity": 0.5275590551181102,
                    "duration": 0.3125
                },
                {
                    "name": "C#4",
                    "midi": 61,
                    "time": 97.65625,
                    "velocity": 0.49606299212598426,
                    "duration": 0.15625
                },
                {
                    "name": "C#5",
                    "midi": 73,
                    "time": 97.65625,
                    "velocity": 0.49606299212598426,
                    "duration": 0.15625
                },
                {
                    "name": "G4",
                    "midi": 67,
                    "time": 97.65625,
                    "velocity": 0.49606299212598426,
                    "duration": 0.3125
                },
                {
                    "name": "D4",
                    "midi": 62,
                    "time": 97.8125,
                    "velocity": 0.4881889763779528,
                    "duration": 0.15625
                },
                {
                    "name": "D5",
                    "midi": 74,
                    "time": 97.8125,
                    "velocity": 0.4881889763779528,
                    "duration": 0.15625
                },
                {
                    "name": "D#4",
                    "midi": 63,
                    "time": 97.96875,
                    "velocity": 0.47244094488188976,
                    "duration": 0.3125
                },
                {
                    "name": "D#4",
                    "midi": 63,
                    "time": 98.28125,
                    "velocity": 0.44881889763779526,
                    "duration": 0.15625
                },
                {
                    "name": "D#5",
                    "midi": 75,
                    "time": 98.28125,
                    "velocity": 0.44881889763779526,
                    "duration": 0.15625
                },
                {
                    "name": "G4",
                    "midi": 67,
                    "time": 98.28125,
                    "velocity": 0.44881889763779526,
                    "duration": 0.3125
                },
                {
                    "name": "E4",
                    "midi": 64,
                    "time": 98.4375,
                    "velocity": 0.4409448818897638,
                    "duration": 0.15625
                },
                {
                    "name": "E5",
                    "midi": 76,
                    "time": 98.4375,
                    "velocity": 0.4409448818897638,
                    "duration": 0.15625
                },
                {
                    "name": "C5",
                    "midi": 72,
                    "time": 98.59375,
                    "velocity": 0.4251968503937008,
                    "duration": 0.625
                },
                {
                    "name": "F#4",
                    "midi": 66,
                    "time": 98.90625,
                    "velocity": 0.4015748031496063,
                    "duration": 0.15625
                },
                {
                    "name": "F#5",
                    "midi": 78,
                    "time": 98.90625,
                    "velocity": 0.4015748031496063,
                    "duration": 0.15625
                },
                {
                    "name": "G4",
                    "midi": 67,
                    "time": 99.0625,
                    "velocity": 0.3858267716535433,
                    "duration": 0.15625
                },
                {
                    "name": "G5",
                    "midi": 79,
                    "time": 99.0625,
                    "velocity": 0.3858267716535433,
                    "duration": 0.15625
                },
                {
                    "name": "C5",
                    "midi": 72,
                    "time": 99.21875,
                    "velocity": 0.3779527559055118,
                    "duration": 0.625
                },
                {
                    "name": "G#4",
                    "midi": 68,
                    "time": 99.53125,
                    "velocity": 0.3543307086614173,
                    "duration": 0.15625
                },
                {
                    "name": "G#5",
                    "midi": 80,
                    "time": 99.53125,
                    "velocity": 0.3543307086614173,
                    "duration": 0.15625
                },
                {
                    "name": "A4",
                    "midi": 69,
                    "time": 99.6875,
                    "velocity": 0.33858267716535434,
                    "duration": 0.15625
                },
                {
                    "name": "A5",
                    "midi": 81,
                    "time": 99.6875,
                    "velocity": 0.33858267716535434,
                    "duration": 0.15625
                },
                {
                    "name": "B4",
                    "midi": 71,
                    "time": 99.84375,
                    "velocity": 0.33070866141732286,
                    "duration": 0.3125
                },
                {
                    "name": "B5",
                    "midi": 83,
                    "time": 100,
                    "velocity": 0.31496062992125984,
                    "duration": 0.625
                },
                {
                    "name": "A#4",
                    "midi": 70,
                    "time": 100.15625,
                    "velocity": 0.15748031496062992,
                    "duration": 0.15625
                },
                {
                    "name": "B4",
                    "midi": 71,
                    "time": 100.3125,
                    "velocity": 0.15748031496062992,
                    "duration": 0.15625
                },
                {
                    "name": "A#4",
                    "midi": 70,
                    "time": 100.46875,
                    "velocity": 0.15748031496062992,
                    "duration": 0.15625
                },
                {
                    "name": "G5",
                    "midi": 79,
                    "time": 100.625,
                    "velocity": 0.31496062992125984,
                    "duration": 0.46875
                },
                {
                    "name": "B4",
                    "midi": 71,
                    "time": 100.625,
                    "velocity": 0.15748031496062992,
                    "duration": 0.15625
                },
                {
                    "name": "A#4",
                    "midi": 70,
                    "time": 100.78125,
                    "velocity": 0.15748031496062992,
                    "duration": 0.15625
                },
                {
                    "name": "B4",
                    "midi": 71,
                    "time": 100.9375,
                    "velocity": 0.15748031496062992,
                    "duration": 0.15625
                },
                {
                    "name": "E5",
                    "midi": 76,
                    "time": 101.09375,
                    "velocity": 0.31496062992125984,
                    "duration": 0.15625
                },
                {
                    "name": "C5",
                    "midi": 72,
                    "time": 101.09375,
                    "velocity": 0.15748031496062992,
                    "duration": 0.15625
                },
                {
                    "name": "D5",
                    "midi": 74,
                    "time": 101.25,
                    "velocity": 0.31496062992125984,
                    "duration": 0.46875
                },
                {
                    "name": "B4",
                    "midi": 71,
                    "time": 101.25,
                    "velocity": 0.15748031496062992,
                    "duration": 0.15625
                },
                {
                    "name": "A#4",
                    "midi": 70,
                    "time": 101.40625,
                    "velocity": 0.15748031496062992,
                    "duration": 0.15625
                },
                {
                    "name": "B4",
                    "midi": 71,
                    "time": 101.5625,
                    "velocity": 0.15748031496062992,
                    "duration": 0.15625
                },
                {
                    "name": "B5",
                    "midi": 83,
                    "time": 101.71875,
                    "velocity": 0.31496062992125984,
                    "duration": 0.15625
                },
                {
                    "name": "D5",
                    "midi": 74,
                    "time": 101.71875,
                    "velocity": 0.15748031496062992,
                    "duration": 0.15625
                },
                {
                    "name": "C5",
                    "midi": 72,
                    "time": 101.875,
                    "velocity": 0.31496062992125984,
                    "duration": 0.15625
                },
                {
                    "name": "C5",
                    "midi": 72,
                    "time": 101.875,
                    "velocity": 0.15748031496062992,
                    "duration": 0.46875
                },
                {
                    "name": "B4",
                    "midi": 71,
                    "time": 102.03125,
                    "velocity": 0.15748031496062992,
                    "duration": 0.15625
                },
                {
                    "name": "C5",
                    "midi": 72,
                    "time": 102.1875,
                    "velocity": 0.15748031496062992,
                    "duration": 0.15625
                },
                {
                    "name": "A5",
                    "midi": 81,
                    "time": 102.34375,
                    "velocity": 0.31496062992125984,
                    "duration": 0.15625
                },
                {
                    "name": "D5",
                    "midi": 74,
                    "time": 102.34375,
                    "velocity": 0.15748031496062992,
                    "duration": 0.15625
                },
                {
                    "name": "B5",
                    "midi": 83,
                    "time": 102.5,
                    "velocity": 0.31496062992125984,
                    "duration": 0.625
                },
                {
                    "name": "B4",
                    "midi": 71,
                    "time": 102.5,
                    "velocity": 0.15748031496062992,
                    "duration": 0.15625
                },
                {
                    "name": "A#4",
                    "midi": 70,
                    "time": 102.65625,
                    "velocity": 0.15748031496062992,
                    "duration": 0.15625
                },
                {
                    "name": "B4",
                    "midi": 71,
                    "time": 102.8125,
                    "velocity": 0.15748031496062992,
                    "duration": 0.15625
                },
                {
                    "name": "A#4",
                    "midi": 70,
                    "time": 102.96875,
                    "velocity": 0.15748031496062992,
                    "duration": 0.15625
                },
                {
                    "name": "G5",
                    "midi": 79,
                    "time": 103.125,
                    "velocity": 0.31496062992125984,
                    "duration": 0.46875
                },
                {
                    "name": "B4",
                    "midi": 71,
                    "time": 103.125,
                    "velocity": 0.15748031496062992,
                    "duration": 0.15625
                },
                {
                    "name": "A#4",
                    "midi": 70,
                    "time": 103.28125,
                    "velocity": 0.15748031496062992,
                    "duration": 0.15625
                },
                {
                    "name": "B4",
                    "midi": 71,
                    "time": 103.4375,
                    "velocity": 0.15748031496062992,
                    "duration": 0.15625
                },
                {
                    "name": "E5",
                    "midi": 76,
                    "time": 103.59375,
                    "velocity": 0.31496062992125984,
                    "duration": 0.15625
                },
                {
                    "name": "C5",
                    "midi": 72,
                    "time": 103.59375,
                    "velocity": 0.15748031496062992,
                    "duration": 0.15625
                },
                {
                    "name": "D5",
                    "midi": 74,
                    "time": 103.75,
                    "velocity": 0.31496062992125984,
                    "duration": 0.46875
                },
                {
                    "name": "B4",
                    "midi": 71,
                    "time": 103.75,
                    "velocity": 0.15748031496062992,
                    "duration": 0.15625
                },
                {
                    "name": "A#4",
                    "midi": 70,
                    "time": 103.90625,
                    "velocity": 0.15748031496062992,
                    "duration": 0.15625
                },
                {
                    "name": "B4",
                    "midi": 71,
                    "time": 104.0625,
                    "velocity": 0.15748031496062992,
                    "duration": 0.15625
                },
                {
                    "name": "B5",
                    "midi": 83,
                    "time": 104.21875,
                    "velocity": 0.31496062992125984,
                    "duration": 0.15625
                },
                {
                    "name": "D5",
                    "midi": 74,
                    "time": 104.21875,
                    "velocity": 0.15748031496062992,
                    "duration": 0.15625
                },
                {
                    "name": "C5",
                    "midi": 72,
                    "time": 104.375,
                    "velocity": 0.31496062992125984,
                    "duration": 0.15625
                },
                {
                    "name": "C5",
                    "midi": 72,
                    "time": 104.375,
                    "velocity": 0.15748031496062992,
                    "duration": 0.46875
                },
                {
                    "name": "B4",
                    "midi": 71,
                    "time": 104.53125,
                    "velocity": 0.15748031496062992,
                    "duration": 0.15625
                },
                {
                    "name": "C5",
                    "midi": 72,
                    "time": 104.6875,
                    "velocity": 0.15748031496062992,
                    "duration": 0.15625
                },
                {
                    "name": "A5",
                    "midi": 81,
                    "time": 104.84375,
                    "velocity": 0.31496062992125984,
                    "duration": 0.15625
                },
                {
                    "name": "D5",
                    "midi": 74,
                    "time": 104.84375,
                    "velocity": 0.15748031496062992,
                    "duration": 0.15625
                },
                {
                    "name": "B4",
                    "midi": 71,
                    "time": 105,
                    "velocity": 0.23622047244094488,
                    "duration": 0.15625
                },
                {
                    "name": "B5",
                    "midi": 83,
                    "time": 105,
                    "velocity": 0.23622047244094488,
                    "duration": 0.15625
                },
                {
                    "name": "E5",
                    "midi": 76,
                    "time": 105.15625,
                    "velocity": 0.23622047244094488,
                    "duration": 0.15625
                },
                {
                    "name": "A#5",
                    "midi": 82,
                    "time": 105.15625,
                    "velocity": 0.23622047244094488,
                    "duration": 0.15625
                },
                {
                    "name": "D5",
                    "midi": 74,
                    "time": 105.3125,
                    "velocity": 0.2283464566929134,
                    "duration": 0.15625
                },
                {
                    "name": "B5",
                    "midi": 83,
                    "time": 105.3125,
                    "velocity": 0.2283464566929134,
                    "duration": 0.15625
                },
                {
                    "name": "C5",
                    "midi": 72,
                    "time": 105.46875,
                    "velocity": 0.2283464566929134,
                    "duration": 0.15625
                },
                {
                    "name": "F#5",
                    "midi": 78,
                    "time": 105.46875,
                    "velocity": 0.2283464566929134,
                    "duration": 0.15625
                },
                {
                    "name": "B4",
                    "midi": 71,
                    "time": 105.625,
                    "velocity": 0.2283464566929134,
                    "duration": 0.15625
                },
                {
                    "name": "G5",
                    "midi": 79,
                    "time": 105.625,
                    "velocity": 0.2283464566929134,
                    "duration": 0.15625
                },
                {
                    "name": "C5",
                    "midi": 72,
                    "time": 105.78125,
                    "velocity": 0.2204724409448819,
                    "duration": 0.15625
                },
                {
                    "name": "F#5",
                    "midi": 78,
                    "time": 105.78125,
                    "velocity": 0.2204724409448819,
                    "duration": 0.15625
                },
                {
                    "name": "B4",
                    "midi": 71,
                    "time": 105.9375,
                    "velocity": 0.2204724409448819,
                    "duration": 0.15625
                },
                {
                    "name": "G5",
                    "midi": 79,
                    "time": 105.9375,
                    "velocity": 0.2204724409448819,
                    "duration": 0.15625
                },
                {
                    "name": "A4",
                    "midi": 69,
                    "time": 106.09375,
                    "velocity": 0.2204724409448819,
                    "duration": 0.15625
                },
                {
                    "name": "D#5",
                    "midi": 75,
                    "time": 106.09375,
                    "velocity": 0.2204724409448819,
                    "duration": 0.15625
                },
                {
                    "name": "G4",
                    "midi": 67,
                    "time": 106.25,
                    "velocity": 0.2125984251968504,
                    "duration": 0.15625
                },
                {
                    "name": "E5",
                    "midi": 76,
                    "time": 106.25,
                    "velocity": 0.2125984251968504,
                    "duration": 0.15625
                },
                {
                    "name": "A4",
                    "midi": 69,
                    "time": 106.40625,
                    "velocity": 0.2125984251968504,
                    "duration": 0.15625
                },
                {
                    "name": "D#5",
                    "midi": 75,
                    "time": 106.40625,
                    "velocity": 0.2125984251968504,
                    "duration": 0.15625
                },
                {
                    "name": "G4",
                    "midi": 67,
                    "time": 106.5625,
                    "velocity": 0.2125984251968504,
                    "duration": 0.15625
                },
                {
                    "name": "E5",
                    "midi": 76,
                    "time": 106.5625,
                    "velocity": 0.2125984251968504,
                    "duration": 0.15625
                },
                {
                    "name": "F4",
                    "midi": 65,
                    "time": 106.71875,
                    "velocity": 0.2125984251968504,
                    "duration": 0.15625
                },
                {
                    "name": "B4",
                    "midi": 71,
                    "time": 106.71875,
                    "velocity": 0.2125984251968504,
                    "duration": 0.15625
                },
                {
                    "name": "E4",
                    "midi": 64,
                    "time": 106.875,
                    "velocity": 0.2047244094488189,
                    "duration": 0.15625
                },
                {
                    "name": "C5",
                    "midi": 72,
                    "time": 106.875,
                    "velocity": 0.2047244094488189,
                    "duration": 0.15625
                },
                {
                    "name": "F4",
                    "midi": 65,
                    "time": 107.03125,
                    "velocity": 0.2047244094488189,
                    "duration": 0.15625
                },
                {
                    "name": "B4",
                    "midi": 71,
                    "time": 107.03125,
                    "velocity": 0.2047244094488189,
                    "duration": 0.15625
                },
                {
                    "name": "E4",
                    "midi": 64,
                    "time": 107.1875,
                    "velocity": 0.2047244094488189,
                    "duration": 0.15625
                },
                {
                    "name": "C5",
                    "midi": 72,
                    "time": 107.1875,
                    "velocity": 0.2047244094488189,
                    "duration": 0.15625
                },
                {
                    "name": "D#4",
                    "midi": 63,
                    "time": 107.34375,
                    "velocity": 0.1968503937007874,
                    "duration": 0.15625
                },
                {
                    "name": "A4",
                    "midi": 69,
                    "time": 107.34375,
                    "velocity": 0.1968503937007874,
                    "duration": 0.15625
                },
                {
                    "name": "D4",
                    "midi": 62,
                    "time": 107.5,
                    "velocity": 0.1968503937007874,
                    "duration": 0.15625
                },
                {
                    "name": "B4",
                    "midi": 71,
                    "time": 107.5,
                    "velocity": 0.1968503937007874,
                    "duration": 0.15625
                },
                {
                    "name": "D#4",
                    "midi": 63,
                    "time": 107.65625,
                    "velocity": 0.1968503937007874,
                    "duration": 0.15625
                },
                {
                    "name": "A4",
                    "midi": 69,
                    "time": 107.65625,
                    "velocity": 0.1968503937007874,
                    "duration": 0.15625
                },
                {
                    "name": "D4",
                    "midi": 62,
                    "time": 107.8125,
                    "velocity": 0.1889763779527559,
                    "duration": 0.15625
                },
                {
                    "name": "B4",
                    "midi": 71,
                    "time": 107.8125,
                    "velocity": 0.1889763779527559,
                    "duration": 0.15625
                },
                {
                    "name": "C4",
                    "midi": 60,
                    "time": 107.96875,
                    "velocity": 0.1889763779527559,
                    "duration": 0.15625
                },
                {
                    "name": "F#4",
                    "midi": 66,
                    "time": 107.96875,
                    "velocity": 0.1889763779527559,
                    "duration": 0.15625
                },
                {
                    "name": "B3",
                    "midi": 59,
                    "time": 108.125,
                    "velocity": 0.1889763779527559,
                    "duration": 0.15625
                },
                {
                    "name": "G4",
                    "midi": 67,
                    "time": 108.125,
                    "velocity": 0.1889763779527559,
                    "duration": 0.15625
                },
                {
                    "name": "C4",
                    "midi": 60,
                    "time": 108.28125,
                    "velocity": 0.18110236220472442,
                    "duration": 0.15625
                },
                {
                    "name": "F#4",
                    "midi": 66,
                    "time": 108.28125,
                    "velocity": 0.18110236220472442,
                    "duration": 0.15625
                },
                {
                    "name": "B3",
                    "midi": 59,
                    "time": 108.4375,
                    "velocity": 0.18110236220472442,
                    "duration": 0.15625
                },
                {
                    "name": "G4",
                    "midi": 67,
                    "time": 108.4375,
                    "velocity": 0.18110236220472442,
                    "duration": 0.15625
                },
                {
                    "name": "A3",
                    "midi": 57,
                    "time": 108.59375,
                    "velocity": 0.18110236220472442,
                    "duration": 0.15625
                },
                {
                    "name": "D#4",
                    "midi": 63,
                    "time": 108.59375,
                    "velocity": 0.18110236220472442,
                    "duration": 0.15625
                },
                {
                    "name": "G3",
                    "midi": 55,
                    "time": 108.75,
                    "velocity": 0.1732283464566929,
                    "duration": 0.15625
                },
                {
                    "name": "E4",
                    "midi": 64,
                    "time": 108.75,
                    "velocity": 0.1732283464566929,
                    "duration": 0.15625
                },
                {
                    "name": "A3",
                    "midi": 57,
                    "time": 108.90625,
                    "velocity": 0.1732283464566929,
                    "duration": 0.15625
                },
                {
                    "name": "D#4",
                    "midi": 63,
                    "time": 108.90625,
                    "velocity": 0.1732283464566929,
                    "duration": 0.15625
                },
                {
                    "name": "G3",
                    "midi": 55,
                    "time": 109.0625,
                    "velocity": 0.1732283464566929,
                    "duration": 0.15625
                },
                {
                    "name": "E4",
                    "midi": 64,
                    "time": 109.0625,
                    "velocity": 0.1732283464566929,
                    "duration": 0.15625
                },
                {
                    "name": "F3",
                    "midi": 53,
                    "time": 109.21875,
                    "velocity": 0.1732283464566929,
                    "duration": 0.15625
                },
                {
                    "name": "B3",
                    "midi": 59,
                    "time": 109.21875,
                    "velocity": 0.1732283464566929,
                    "duration": 0.15625
                },
                {
                    "name": "E3",
                    "midi": 52,
                    "time": 109.375,
                    "velocity": 0.16535433070866143,
                    "duration": 0.15625
                },
                {
                    "name": "C4",
                    "midi": 60,
                    "time": 109.375,
                    "velocity": 0.16535433070866143,
                    "duration": 0.15625
                },
                {
                    "name": "F3",
                    "midi": 53,
                    "time": 109.53125,
                    "velocity": 0.16535433070866143,
                    "duration": 0.15625
                },
                {
                    "name": "B3",
                    "midi": 59,
                    "time": 109.53125,
                    "velocity": 0.16535433070866143,
                    "duration": 0.15625
                },
                {
                    "name": "E3",
                    "midi": 52,
                    "time": 109.6875,
                    "velocity": 0.16535433070866143,
                    "duration": 0.15625
                },
                {
                    "name": "C4",
                    "midi": 60,
                    "time": 109.6875,
                    "velocity": 0.16535433070866143,
                    "duration": 0.15625
                },
                {
                    "name": "C4",
                    "midi": 60,
                    "time": 109.84375,
                    "velocity": 0.15748031496062992,
                    "duration": 0.15625
                },
                {
                    "name": "F#4",
                    "midi": 66,
                    "time": 109.84375,
                    "velocity": 0.15748031496062992,
                    "duration": 0.15625
                },
                {
                    "name": "G4",
                    "midi": 67,
                    "time": 110,
                    "velocity": 0.2047244094488189,
                    "duration": 0.625
                },
                {
                    "name": "B3",
                    "midi": 59,
                    "time": 110,
                    "velocity": 0.11811023622047244,
                    "duration": 0.15625
                },
                {
                    "name": "A#3",
                    "midi": 58,
                    "time": 110.15625,
                    "velocity": 0.11811023622047244,
                    "duration": 0.15625
                },
                {
                    "name": "B3",
                    "midi": 59,
                    "time": 110.3125,
                    "velocity": 0.11811023622047244,
                    "duration": 0.15625
                },
                {
                    "name": "A#3",
                    "midi": 58,
                    "time": 110.46875,
                    "velocity": 0.11811023622047244,
                    "duration": 0.15625
                },
                {
                    "name": "F#4",
                    "midi": 66,
                    "time": 110.625,
                    "velocity": 0.2047244094488189,
                    "duration": 0.46875
                },
                {
                    "name": "B3",
                    "midi": 59,
                    "time": 110.625,
                    "velocity": 0.11811023622047244,
                    "duration": 0.15625
                },
                {
                    "name": "A#3",
                    "midi": 58,
                    "time": 110.78125,
                    "velocity": 0.11811023622047244,
                    "duration": 0.15625
                },
                {
                    "name": "B3",
                    "midi": 59,
                    "time": 110.9375,
                    "velocity": 0.11811023622047244,
                    "duration": 0.15625
                },
                {
                    "name": "E4",
                    "midi": 64,
                    "time": 111.09375,
                    "velocity": 0.2047244094488189,
                    "duration": 0.15625
                },
                {
                    "name": "C4",
                    "midi": 60,
                    "time": 111.09375,
                    "velocity": 0.11811023622047244,
                    "duration": 0.15625
                },
                {
                    "name": "D4",
                    "midi": 62,
                    "time": 111.25,
                    "velocity": 0.2047244094488189,
                    "duration": 1.25
                },
                {
                    "name": "B3",
                    "midi": 59,
                    "time": 111.25,
                    "velocity": 0.11811023622047244,
                    "duration": 0.15625
                },
                {
                    "name": "A#3",
                    "midi": 58,
                    "time": 111.40625,
                    "velocity": 0.11811023622047244,
                    "duration": 0.15625
                },
                {
                    "name": "B3",
                    "midi": 59,
                    "time": 111.5625,
                    "velocity": 0.11811023622047244,
                    "duration": 0.15625
                },
                {
                    "name": "A#3",
                    "midi": 58,
                    "time": 111.71875,
                    "velocity": 0.11811023622047244,
                    "duration": 0.15625
                },
                {
                    "name": "B3",
                    "midi": 59,
                    "time": 111.875,
                    "velocity": 0.11811023622047244,
                    "duration": 0.15625
                },
                {
                    "name": "A#3",
                    "midi": 58,
                    "time": 112.03125,
                    "velocity": 0.11811023622047244,
                    "duration": 0.15625
                },
                {
                    "name": "B3",
                    "midi": 59,
                    "time": 112.1875,
                    "velocity": 0.11811023622047244,
                    "duration": 0.15625
                },
                {
                    "name": "C4",
                    "midi": 60,
                    "time": 112.34375,
                    "velocity": 0.11811023622047244,
                    "duration": 0.15625
                },
                {
                    "name": "G4",
                    "midi": 67,
                    "time": 112.5,
                    "velocity": 0.2047244094488189,
                    "duration": 0.625
                },
                {
                    "name": "B3",
                    "midi": 59,
                    "time": 112.5,
                    "velocity": 0.11811023622047244,
                    "duration": 0.15625
                },
                {
                    "name": "A#3",
                    "midi": 58,
                    "time": 112.65625,
                    "velocity": 0.11811023622047244,
                    "duration": 0.15625
                },
                {
                    "name": "B3",
                    "midi": 59,
                    "time": 112.8125,
                    "velocity": 0.11811023622047244,
                    "duration": 0.15625
                },
                {
                    "name": "A#3",
                    "midi": 58,
                    "time": 112.96875,
                    "velocity": 0.11811023622047244,
                    "duration": 0.15625
                },
                {
                    "name": "F#4",
                    "midi": 66,
                    "time": 113.125,
                    "velocity": 0.2047244094488189,
                    "duration": 0.46875
                },
                {
                    "name": "B3",
                    "midi": 59,
                    "time": 113.125,
                    "velocity": 0.11811023622047244,
                    "duration": 0.15625
                },
                {
                    "name": "A#3",
                    "midi": 58,
                    "time": 113.28125,
                    "velocity": 0.11811023622047244,
                    "duration": 0.15625
                },
                {
                    "name": "B3",
                    "midi": 59,
                    "time": 113.4375,
                    "velocity": 0.11811023622047244,
                    "duration": 0.15625
                },
                {
                    "name": "E4",
                    "midi": 64,
                    "time": 113.59375,
                    "velocity": 0.2047244094488189,
                    "duration": 0.15625
                },
                {
                    "name": "C4",
                    "midi": 60,
                    "time": 113.59375,
                    "velocity": 0.11811023622047244,
                    "duration": 0.15625
                },
                {
                    "name": "D4",
                    "midi": 62,
                    "time": 113.75,
                    "velocity": 0.2047244094488189,
                    "duration": 1.25
                },
                {
                    "name": "B3",
                    "midi": 59,
                    "time": 113.75,
                    "velocity": 0.11811023622047244,
                    "duration": 0.15625
                },
                {
                    "name": "A#3",
                    "midi": 58,
                    "time": 113.90625,
                    "velocity": 0.11811023622047244,
                    "duration": 0.15625
                },
                {
                    "name": "B3",
                    "midi": 59,
                    "time": 114.0625,
                    "velocity": 0.11811023622047244,
                    "duration": 0.15625
                },
                {
                    "name": "A#3",
                    "midi": 58,
                    "time": 114.21875,
                    "velocity": 0.11811023622047244,
                    "duration": 0.15625
                },
                {
                    "name": "B3",
                    "midi": 59,
                    "time": 114.375,
                    "velocity": 0.11811023622047244,
                    "duration": 0.15625
                },
                {
                    "name": "A#3",
                    "midi": 58,
                    "time": 114.53125,
                    "velocity": 0.11811023622047244,
                    "duration": 0.15625
                },
                {
                    "name": "B3",
                    "midi": 59,
                    "time": 114.6875,
                    "velocity": 0.11811023622047244,
                    "duration": 0.15625
                },
                {
                    "name": "C4",
                    "midi": 60,
                    "time": 114.84375,
                    "velocity": 0.11811023622047244,
                    "duration": 0.15625
                },
                {
                    "name": "G4",
                    "midi": 67,
                    "time": 115,
                    "velocity": 0.2047244094488189,
                    "duration": 0.625
                },
                {
                    "name": "B3",
                    "midi": 59,
                    "time": 115,
                    "velocity": 0.11811023622047244,
                    "duration": 0.15625
                },
                {
                    "name": "A#3",
                    "midi": 58,
                    "time": 115.15625,
                    "velocity": 0.11811023622047244,
                    "duration": 0.15625
                },
                {
                    "name": "B3",
                    "midi": 59,
                    "time": 115.3125,
                    "velocity": 0.11811023622047244,
                    "duration": 0.15625
                },
                {
                    "name": "A#3",
                    "midi": 58,
                    "time": 115.46875,
                    "velocity": 0.11811023622047244,
                    "duration": 0.15625
                },
                {
                    "name": "D4",
                    "midi": 62,
                    "time": 115.625,
                    "velocity": 0.2047244094488189,
                    "duration": 0.625
                },
                {
                    "name": "B3",
                    "midi": 59,
                    "time": 115.625,
                    "velocity": 0.11811023622047244,
                    "duration": 0.15625
                },
                {
                    "name": "A#3",
                    "midi": 58,
                    "time": 115.78125,
                    "velocity": 0.11811023622047244,
                    "duration": 0.15625
                },
                {
                    "name": "B3",
                    "midi": 59,
                    "time": 115.9375,
                    "velocity": 0.11811023622047244,
                    "duration": 0.15625
                },
                {
                    "name": "C4",
                    "midi": 60,
                    "time": 116.09375,
                    "velocity": 0.11811023622047244,
                    "duration": 0.15625
                },
                {
                    "name": "G4",
                    "midi": 67,
                    "time": 116.25,
                    "velocity": 0.2047244094488189,
                    "duration": 0.625
                },
                {
                    "name": "B3",
                    "midi": 59,
                    "time": 116.25,
                    "velocity": 0.11811023622047244,
                    "duration": 0.15625
                },
                {
                    "name": "A#3",
                    "midi": 58,
                    "time": 116.40625,
                    "velocity": 0.11811023622047244,
                    "duration": 0.15625
                },
                {
                    "name": "B3",
                    "midi": 59,
                    "time": 116.5625,
                    "velocity": 0.11811023622047244,
                    "duration": 0.15625
                },
                {
                    "name": "A#3",
                    "midi": 58,
                    "time": 116.71875,
                    "velocity": 0.11811023622047244,
                    "duration": 0.15625
                },
                {
                    "name": "D4",
                    "midi": 62,
                    "time": 116.875,
                    "velocity": 0.2047244094488189,
                    "duration": 0.625
                },
                {
                    "name": "B3",
                    "midi": 59,
                    "time": 116.875,
                    "velocity": 0.11811023622047244,
                    "duration": 0.15625
                },
                {
                    "name": "A#3",
                    "midi": 58,
                    "time": 117.03125,
                    "velocity": 0.11811023622047244,
                    "duration": 0.15625
                },
                {
                    "name": "B3",
                    "midi": 59,
                    "time": 117.1875,
                    "velocity": 0.11811023622047244,
                    "duration": 0.15625
                },
                {
                    "name": "C4",
                    "midi": 60,
                    "time": 117.34375,
                    "velocity": 0.11811023622047244,
                    "duration": 0.15625
                },
                {
                    "name": "G4",
                    "midi": 67,
                    "time": 117.5,
                    "velocity": 0.2047244094488189,
                    "duration": 0.46875
                },
                {
                    "name": "B3",
                    "midi": 59,
                    "time": 117.5,
                    "velocity": 0.11811023622047244,
                    "duration": 0.15625
                },
                {
                    "name": "A#3",
                    "midi": 58,
                    "time": 117.65625,
                    "velocity": 0.11811023622047244,
                    "duration": 0.15625
                },
                {
                    "name": "B3",
                    "midi": 59,
                    "time": 117.8125,
                    "velocity": 0.11811023622047244,
                    "duration": 0.15625
                },
                {
                    "name": "D4",
                    "midi": 62,
                    "time": 117.96875,
                    "velocity": 0.2047244094488189,
                    "duration": 0.15625
                },
                {
                    "name": "C4",
                    "midi": 60,
                    "time": 117.96875,
                    "velocity": 0.11811023622047244,
                    "duration": 0.15625
                },
                {
                    "name": "G4",
                    "midi": 67,
                    "time": 118.125,
                    "velocity": 0.2047244094488189,
                    "duration": 0.46875
                },
                {
                    "name": "B3",
                    "midi": 59,
                    "time": 118.125,
                    "velocity": 0.11811023622047244,
                    "duration": 0.15625
                },
                {
                    "name": "A#3",
                    "midi": 58,
                    "time": 118.28125,
                    "velocity": 0.11811023622047244,
                    "duration": 0.15625
                },
                {
                    "name": "B3",
                    "midi": 59,
                    "time": 118.4375,
                    "velocity": 0.11811023622047244,
                    "duration": 0.15625
                },
                {
                    "name": "D4",
                    "midi": 62,
                    "time": 118.59375,
                    "velocity": 0.2047244094488189,
                    "duration": 0.15625
                },
                {
                    "name": "C4",
                    "midi": 60,
                    "time": 118.59375,
                    "velocity": 0.11811023622047244,
                    "duration": 0.15625
                },
                {
                    "name": "G4",
                    "midi": 67,
                    "time": 118.75,
                    "velocity": 0.2047244094488189,
                    "duration": 0.46875
                },
                {
                    "name": "B3",
                    "midi": 59,
                    "time": 118.75,
                    "velocity": 0.11811023622047244,
                    "duration": 0.15625
                },
                {
                    "name": "A#3",
                    "midi": 58,
                    "time": 118.90625,
                    "velocity": 0.11811023622047244,
                    "duration": 0.15625
                },
                {
                    "name": "B3",
                    "midi": 59,
                    "time": 119.0625,
                    "velocity": 0.11811023622047244,
                    "duration": 0.15625
                },
                {
                    "name": "D4",
                    "midi": 62,
                    "time": 119.21875,
                    "velocity": 0.2047244094488189,
                    "duration": 0.15625
                },
                {
                    "name": "C4",
                    "midi": 60,
                    "time": 119.21875,
                    "velocity": 0.11811023622047244,
                    "duration": 0.15625
                },
                {
                    "name": "G4",
                    "midi": 67,
                    "time": 119.375,
                    "velocity": 0.2047244094488189,
                    "duration": 0.46875
                },
                {
                    "name": "B3",
                    "midi": 59,
                    "time": 119.375,
                    "velocity": 0.11811023622047244,
                    "duration": 0.15625
                },
                {
                    "name": "A#3",
                    "midi": 58,
                    "time": 119.53125,
                    "velocity": 0.11811023622047244,
                    "duration": 0.15625
                },
                {
                    "name": "B3",
                    "midi": 59,
                    "time": 119.6875,
                    "velocity": 0.11811023622047244,
                    "duration": 0.15625
                },
                {
                    "name": "D4",
                    "midi": 62,
                    "time": 119.84375,
                    "velocity": 0.2047244094488189,
                    "duration": 0.15625
                },
                {
                    "name": "C4",
                    "midi": 60,
                    "time": 119.84375,
                    "velocity": 0.11811023622047244,
                    "duration": 0.15625
                },
                {
                    "name": "G4",
                    "midi": 67,
                    "time": 120,
                    "velocity": 0.2047244094488189,
                    "duration": 1.25
                },
                {
                    "name": "B3",
                    "midi": 59,
                    "time": 120,
                    "velocity": 0.11811023622047244,
                    "duration": 0.15625
                },
                {
                    "name": "A#3",
                    "midi": 58,
                    "time": 120.15625,
                    "velocity": 0.11811023622047244,
                    "duration": 0.15625
                },
                {
                    "name": "B3",
                    "midi": 59,
                    "time": 120.3125,
                    "velocity": 0.11811023622047244,
                    "duration": 0.15625
                },
                {
                    "name": "A#3",
                    "midi": 58,
                    "time": 120.46875,
                    "velocity": 0.11811023622047244,
                    "duration": 0.15625
                },
                {
                    "name": "B3",
                    "midi": 59,
                    "time": 120.625,
                    "velocity": 0.11811023622047244,
                    "duration": 0.15625
                },
                {
                    "name": "A#3",
                    "midi": 58,
                    "time": 120.78125,
                    "velocity": 0.11811023622047244,
                    "duration": 0.15625
                },
                {
                    "name": "B3",
                    "midi": 59,
                    "time": 120.9375,
                    "velocity": 0.11811023622047244,
                    "duration": 0.15625
                },
                {
                    "name": "A#3",
                    "midi": 58,
                    "time": 121.09375,
                    "velocity": 0.11811023622047244,
                    "duration": 0.15625
                },
                {
                    "name": "F#4",
                    "midi": 66,
                    "time": 121.25,
                    "velocity": 0.15748031496062992,
                    "duration": 1.25
                },
                {
                    "name": "B3",
                    "midi": 59,
                    "time": 121.25,
                    "velocity": 0.07874015748031496,
                    "duration": 0.15625
                },
                {
                    "name": "A#3",
                    "midi": 58,
                    "time": 121.40625,
                    "velocity": 0.07874015748031496,
                    "duration": 0.15625
                },
                {
                    "name": "B3",
                    "midi": 59,
                    "time": 121.5625,
                    "velocity": 0.07874015748031496,
                    "duration": 0.15625
                },
                {
                    "name": "A#3",
                    "midi": 58,
                    "time": 121.71875,
                    "velocity": 0.07874015748031496,
                    "duration": 0.15625
                },
                {
                    "name": "B3",
                    "midi": 59,
                    "time": 121.875,
                    "velocity": 0.07874015748031496,
                    "duration": 0.15625
                },
                {
                    "name": "A#3",
                    "midi": 58,
                    "time": 122.03125,
                    "velocity": 0.07874015748031496,
                    "duration": 0.15625
                },
                {
                    "name": "B3",
                    "midi": 59,
                    "time": 122.1875,
                    "velocity": 0.07874015748031496,
                    "duration": 0.15625
                },
                {
                    "name": "A#3",
                    "midi": 58,
                    "time": 122.34375,
                    "velocity": 0.07874015748031496,
                    "duration": 0.15625
                },
                {
                    "name": "B3",
                    "midi": 59,
                    "time": 122.5,
                    "velocity": 0.7086614173228346,
                    "duration": 0.1251220703125
                },
                {
                    "name": "F4",
                    "midi": 65,
                    "time": 122.5,
                    "velocity": 0.7086614173228346,
                    "duration": 0.1251220703125
                },
                {
                    "name": "B4",
                    "midi": 71,
                    "time": 122.8125,
                    "velocity": 0.8110236220472441,
                    "duration": 0.625
                },
                {
                    "name": "F5",
                    "midi": 77,
                    "time": 122.8125,
                    "velocity": 0.8110236220472441,
                    "duration": 0.625
                },
                {
                    "name": "B5",
                    "midi": 83,
                    "time": 122.8125,
                    "velocity": 0.8110236220472441,
                    "duration": 0.625
                },
                {
                    "name": "C5",
                    "midi": 72,
                    "time": 123.4375,
                    "velocity": 0.7086614173228346,
                    "duration": 0.3125
                },
                {
                    "name": "E5",
                    "midi": 76,
                    "time": 123.4375,
                    "velocity": 0.7086614173228346,
                    "duration": 0.3125
                },
                {
                    "name": "C6",
                    "midi": 84,
                    "time": 123.4375,
                    "velocity": 0.7086614173228346,
                    "duration": 0.3125
                },
                {
                    "name": "F#4",
                    "midi": 66,
                    "time": 123.75,
                    "velocity": 0.7086614173228346,
                    "duration": 0.1251220703125
                },
                {
                    "name": "C5",
                    "midi": 72,
                    "time": 123.75,
                    "velocity": 0.7086614173228346,
                    "duration": 0.1251220703125
                },
                {
                    "name": "F#5",
                    "midi": 78,
                    "time": 123.75,
                    "velocity": 0.7086614173228346,
                    "duration": 0.1251220703125
                },
                {
                    "name": "A4",
                    "midi": 69,
                    "time": 124.0625,
                    "velocity": 0.8110236220472441,
                    "duration": 0.625
                },
                {
                    "name": "C5",
                    "midi": 72,
                    "time": 124.0625,
                    "velocity": 0.8110236220472441,
                    "duration": 0.625
                },
                {
                    "name": "A5",
                    "midi": 81,
                    "time": 124.0625,
                    "velocity": 0.8110236220472441,
                    "duration": 0.625
                },
                {
                    "name": "G4",
                    "midi": 67,
                    "time": 124.6875,
                    "velocity": 0.7086614173228346,
                    "duration": 0.3125
                },
                {
                    "name": "B4",
                    "midi": 71,
                    "time": 124.6875,
                    "velocity": 0.7086614173228346,
                    "duration": 0.3125
                },
                {
                    "name": "G5",
                    "midi": 79,
                    "time": 124.6875,
                    "velocity": 0.7086614173228346,
                    "duration": 0.3125
                },
                {
                    "name": "E4",
                    "midi": 64,
                    "time": 125,
                    "velocity": 0.31496062992125984,
                    "duration": 0.15625
                },
                {
                    "name": "C5",
                    "midi": 72,
                    "time": 125,
                    "velocity": 0.31496062992125984,
                    "duration": 0.15625
                },
                {
                    "name": "F4",
                    "midi": 65,
                    "time": 125.15625,
                    "velocity": 0.31496062992125984,
                    "duration": 0.15625
                },
                {
                    "name": "B4",
                    "midi": 71,
                    "time": 125.15625,
                    "velocity": 0.31496062992125984,
                    "duration": 0.15625
                },
                {
                    "name": "E4",
                    "midi": 64,
                    "time": 125.3125,
                    "velocity": 0.31496062992125984,
                    "duration": 0.15625
                },
                {
                    "name": "C5",
                    "midi": 72,
                    "time": 125.3125,
                    "velocity": 0.31496062992125984,
                    "duration": 0.15625
                },
                {
                    "name": "F4",
                    "midi": 65,
                    "time": 125.46875,
                    "velocity": 0.31496062992125984,
                    "duration": 0.15625
                },
                {
                    "name": "B4",
                    "midi": 71,
                    "time": 125.46875,
                    "velocity": 0.31496062992125984,
                    "duration": 0.15625
                },
                {
                    "name": "E4",
                    "midi": 64,
                    "time": 125.625,
                    "velocity": 0.31496062992125984,
                    "duration": 0.15625
                },
                {
                    "name": "C5",
                    "midi": 72,
                    "time": 125.625,
                    "velocity": 0.31496062992125984,
                    "duration": 0.15625
                },
                {
                    "name": "F4",
                    "midi": 65,
                    "time": 125.78125,
                    "velocity": 0.31496062992125984,
                    "duration": 0.15625
                },
                {
                    "name": "B4",
                    "midi": 71,
                    "time": 125.78125,
                    "velocity": 0.31496062992125984,
                    "duration": 0.15625
                },
                {
                    "name": "E4",
                    "midi": 64,
                    "time": 125.9375,
                    "velocity": 0.31496062992125984,
                    "duration": 0.15625
                },
                {
                    "name": "C5",
                    "midi": 72,
                    "time": 125.9375,
                    "velocity": 0.31496062992125984,
                    "duration": 0.15625
                },
                {
                    "name": "G4",
                    "midi": 67,
                    "time": 126.09375,
                    "velocity": 0.31496062992125984,
                    "duration": 0.15625
                },
                {
                    "name": "C#5",
                    "midi": 73,
                    "time": 126.09375,
                    "velocity": 0.31496062992125984,
                    "duration": 0.15625
                },
                {
                    "name": "F4",
                    "midi": 65,
                    "time": 126.25,
                    "velocity": 0.31496062992125984,
                    "duration": 0.15625
                },
                {
                    "name": "D5",
                    "midi": 74,
                    "time": 126.25,
                    "velocity": 0.31496062992125984,
                    "duration": 0.15625
                },
                {
                    "name": "G#4",
                    "midi": 68,
                    "time": 126.40625,
                    "velocity": 0.31496062992125984,
                    "duration": 0.15625
                },
                {
                    "name": "C#5",
                    "midi": 73,
                    "time": 126.40625,
                    "velocity": 0.31496062992125984,
                    "duration": 0.15625
                },
                {
                    "name": "F4",
                    "midi": 65,
                    "time": 126.5625,
                    "velocity": 0.31496062992125984,
                    "duration": 0.15625
                },
                {
                    "name": "D5",
                    "midi": 74,
                    "time": 126.5625,
                    "velocity": 0.31496062992125984,
                    "duration": 0.15625
                },
                {
                    "name": "G#4",
                    "midi": 68,
                    "time": 126.71875,
                    "velocity": 0.31496062992125984,
                    "duration": 0.15625
                },
                {
                    "name": "C#5",
                    "midi": 73,
                    "time": 126.71875,
                    "velocity": 0.31496062992125984,
                    "duration": 0.15625
                },
                {
                    "name": "F4",
                    "midi": 65,
                    "time": 126.875,
                    "velocity": 0.31496062992125984,
                    "duration": 0.15625
                },
                {
                    "name": "D5",
                    "midi": 74,
                    "time": 126.875,
                    "velocity": 0.31496062992125984,
                    "duration": 0.15625
                },
                {
                    "name": "G#4",
                    "midi": 68,
                    "time": 127.03125,
                    "velocity": 0.31496062992125984,
                    "duration": 0.15625
                },
                {
                    "name": "C#5",
                    "midi": 73,
                    "time": 127.03125,
                    "velocity": 0.31496062992125984,
                    "duration": 0.15625
                },
                {
                    "name": "F4",
                    "midi": 65,
                    "time": 127.1875,
                    "velocity": 0.31496062992125984,
                    "duration": 0.15625
                },
                {
                    "name": "E5",
                    "midi": 76,
                    "time": 127.1875,
                    "velocity": 0.31496062992125984,
                    "duration": 0.15625
                },
                {
                    "name": "B4",
                    "midi": 71,
                    "time": 127.34375,
                    "velocity": 0.31496062992125984,
                    "duration": 0.15625
                },
                {
                    "name": "D5",
                    "midi": 74,
                    "time": 127.34375,
                    "velocity": 0.31496062992125984,
                    "duration": 0.15625
                },
                {
                    "name": "E4",
                    "midi": 64,
                    "time": 127.5,
                    "velocity": 0.31496062992125984,
                    "duration": 0.15625
                },
                {
                    "name": "C5",
                    "midi": 72,
                    "time": 127.5,
                    "velocity": 0.31496062992125984,
                    "duration": 0.15625
                },
                {
                    "name": "F4",
                    "midi": 65,
                    "time": 127.65625,
                    "velocity": 0.31496062992125984,
                    "duration": 0.15625
                },
                {
                    "name": "B4",
                    "midi": 71,
                    "time": 127.65625,
                    "velocity": 0.31496062992125984,
                    "duration": 0.15625
                },
                {
                    "name": "E4",
                    "midi": 64,
                    "time": 127.8125,
                    "velocity": 0.31496062992125984,
                    "duration": 0.15625
                },
                {
                    "name": "C5",
                    "midi": 72,
                    "time": 127.8125,
                    "velocity": 0.31496062992125984,
                    "duration": 0.15625
                },
                {
                    "name": "F4",
                    "midi": 65,
                    "time": 127.96875,
                    "velocity": 0.31496062992125984,
                    "duration": 0.15625
                },
                {
                    "name": "B4",
                    "midi": 71,
                    "time": 127.96875,
                    "velocity": 0.31496062992125984,
                    "duration": 0.15625
                },
                {
                    "name": "E4",
                    "midi": 64,
                    "time": 128.125,
                    "velocity": 0.31496062992125984,
                    "duration": 0.15625
                },
                {
                    "name": "C5",
                    "midi": 72,
                    "time": 128.125,
                    "velocity": 0.31496062992125984,
                    "duration": 0.15625
                },
                {
                    "name": "F4",
                    "midi": 65,
                    "time": 128.28125,
                    "velocity": 0.31496062992125984,
                    "duration": 0.15625
                },
                {
                    "name": "B4",
                    "midi": 71,
                    "time": 128.28125,
                    "velocity": 0.31496062992125984,
                    "duration": 0.15625
                },
                {
                    "name": "E4",
                    "midi": 64,
                    "time": 128.4375,
                    "velocity": 0.31496062992125984,
                    "duration": 0.15625
                },
                {
                    "name": "C5",
                    "midi": 72,
                    "time": 128.4375,
                    "velocity": 0.31496062992125984,
                    "duration": 0.15625
                },
                {
                    "name": "G4",
                    "midi": 67,
                    "time": 128.59375,
                    "velocity": 0.31496062992125984,
                    "duration": 0.15625
                },
                {
                    "name": "C#5",
                    "midi": 73,
                    "time": 128.59375,
                    "velocity": 0.31496062992125984,
                    "duration": 0.15625
                },
                {
                    "name": "F4",
                    "midi": 65,
                    "time": 128.75,
                    "velocity": 0.31496062992125984,
                    "duration": 0.15625
                },
                {
                    "name": "D5",
                    "midi": 74,
                    "time": 128.75,
                    "velocity": 0.31496062992125984,
                    "duration": 0.15625
                },
                {
                    "name": "G#4",
                    "midi": 68,
                    "time": 128.90625,
                    "velocity": 0.31496062992125984,
                    "duration": 0.15625
                },
                {
                    "name": "C#5",
                    "midi": 73,
                    "time": 128.90625,
                    "velocity": 0.31496062992125984,
                    "duration": 0.15625
                },
                {
                    "name": "F4",
                    "midi": 65,
                    "time": 129.0625,
                    "velocity": 0.31496062992125984,
                    "duration": 0.15625
                },
                {
                    "name": "D5",
                    "midi": 74,
                    "time": 129.0625,
                    "velocity": 0.31496062992125984,
                    "duration": 0.15625
                },
                {
                    "name": "G#4",
                    "midi": 68,
                    "time": 129.21875,
                    "velocity": 0.31496062992125984,
                    "duration": 0.15625
                },
                {
                    "name": "C#5",
                    "midi": 73,
                    "time": 129.21875,
                    "velocity": 0.31496062992125984,
                    "duration": 0.15625
                },
                {
                    "name": "F4",
                    "midi": 65,
                    "time": 129.375,
                    "velocity": 0.31496062992125984,
                    "duration": 0.15625
                },
                {
                    "name": "D5",
                    "midi": 74,
                    "time": 129.375,
                    "velocity": 0.31496062992125984,
                    "duration": 0.15625
                },
                {
                    "name": "G#4",
                    "midi": 68,
                    "time": 129.53125,
                    "velocity": 0.31496062992125984,
                    "duration": 0.15625
                },
                {
                    "name": "C#5",
                    "midi": 73,
                    "time": 129.53125,
                    "velocity": 0.31496062992125984,
                    "duration": 0.15625
                },
                {
                    "name": "F4",
                    "midi": 65,
                    "time": 129.6875,
                    "velocity": 0.31496062992125984,
                    "duration": 0.15625
                },
                {
                    "name": "D5",
                    "midi": 74,
                    "time": 129.6875,
                    "velocity": 0.31496062992125984,
                    "duration": 0.15625
                },
                {
                    "name": "B4",
                    "midi": 71,
                    "time": 129.84375,
                    "velocity": 0.31496062992125984,
                    "duration": 0.15625
                },
                {
                    "name": "D#5",
                    "midi": 75,
                    "time": 129.84375,
                    "velocity": 0.31496062992125984,
                    "duration": 0.15625
                },
                {
                    "name": "E4",
                    "midi": 64,
                    "time": 130,
                    "velocity": 0.31496062992125984,
                    "duration": 0.15625
                },
                {
                    "name": "E5",
                    "midi": 76,
                    "time": 130,
                    "velocity": 0.31496062992125984,
                    "duration": 0.15625
                },
                {
                    "name": "C5",
                    "midi": 72,
                    "time": 130.15625,
                    "velocity": 0.31496062992125984,
                    "duration": 0.15625
                },
                {
                    "name": "D#5",
                    "midi": 75,
                    "time": 130.15625,
                    "velocity": 0.31496062992125984,
                    "duration": 0.15625
                },
                {
                    "name": "E4",
                    "midi": 64,
                    "time": 130.3125,
                    "velocity": 0.31496062992125984,
                    "duration": 0.15625
                },
                {
                    "name": "E5",
                    "midi": 76,
                    "time": 130.3125,
                    "velocity": 0.31496062992125984,
                    "duration": 0.15625
                },
                {
                    "name": "C5",
                    "midi": 72,
                    "time": 130.46875,
                    "velocity": 0.31496062992125984,
                    "duration": 0.15625
                },
                {
                    "name": "D#5",
                    "midi": 75,
                    "time": 130.46875,
                    "velocity": 0.31496062992125984,
                    "duration": 0.15625
                },
                {
                    "name": "E4",
                    "midi": 64,
                    "time": 130.625,
                    "velocity": 0.31496062992125984,
                    "duration": 0.15625
                },
                {
                    "name": "E5",
                    "midi": 76,
                    "time": 130.625,
                    "velocity": 0.31496062992125984,
                    "duration": 0.15625
                },
                {
                    "name": "C5",
                    "midi": 72,
                    "time": 130.78125,
                    "velocity": 0.31496062992125984,
                    "duration": 0.15625
                },
                {
                    "name": "D#5",
                    "midi": 75,
                    "time": 130.78125,
                    "velocity": 0.31496062992125984,
                    "duration": 0.15625
                },
                {
                    "name": "E4",
                    "midi": 64,
                    "time": 130.9375,
                    "velocity": 0.31496062992125984,
                    "duration": 0.15625
                },
                {
                    "name": "E5",
                    "midi": 76,
                    "time": 130.9375,
                    "velocity": 0.31496062992125984,
                    "duration": 0.15625
                },
                {
                    "name": "G4",
                    "midi": 67,
                    "time": 131.09375,
                    "velocity": 0.31496062992125984,
                    "duration": 0.15625
                },
                {
                    "name": "C5",
                    "midi": 72,
                    "time": 131.09375,
                    "velocity": 0.31496062992125984,
                    "duration": 0.15625
                },
                {
                    "name": "F4",
                    "midi": 65,
                    "time": 131.25,
                    "velocity": 0.3937007874015748,
                    "duration": 0.15625
                },
                {
                    "name": "G5",
                    "midi": 79,
                    "time": 131.25,
                    "velocity": 0.3937007874015748,
                    "duration": 0.15625
                },
                {
                    "name": "C5",
                    "midi": 72,
                    "time": 131.40625,
                    "velocity": 0.3937007874015748,
                    "duration": 0.15625
                },
                {
                    "name": "F5",
                    "midi": 77,
                    "time": 131.40625,
                    "velocity": 0.3937007874015748,
                    "duration": 0.15625
                },
                {
                    "name": "F4",
                    "midi": 65,
                    "time": 131.5625,
                    "velocity": 0.3937007874015748,
                    "duration": 0.15625
                },
                {
                    "name": "G5",
                    "midi": 79,
                    "time": 131.5625,
                    "velocity": 0.3937007874015748,
                    "duration": 0.15625
                },
                {
                    "name": "C5",
                    "midi": 72,
                    "time": 131.71875,
                    "velocity": 0.3937007874015748,
                    "duration": 0.15625
                },
                {
                    "name": "F5",
                    "midi": 77,
                    "time": 131.71875,
                    "velocity": 0.3937007874015748,
                    "duration": 0.15625
                },
                {
                    "name": "F4",
                    "midi": 65,
                    "time": 131.875,
                    "velocity": 0.3937007874015748,
                    "duration": 0.15625
                },
                {
                    "name": "G5",
                    "midi": 79,
                    "time": 131.875,
                    "velocity": 0.3937007874015748,
                    "duration": 0.15625
                },
                {
                    "name": "C5",
                    "midi": 72,
                    "time": 132.03125,
                    "velocity": 0.3937007874015748,
                    "duration": 0.15625
                },
                {
                    "name": "F5",
                    "midi": 77,
                    "time": 132.03125,
                    "velocity": 0.3937007874015748,
                    "duration": 0.15625
                },
                {
                    "name": "E4",
                    "midi": 64,
                    "time": 132.1875,
                    "velocity": 0.3937007874015748,
                    "duration": 0.15625
                },
                {
                    "name": "F5",
                    "midi": 77,
                    "time": 132.1875,
                    "velocity": 0.3937007874015748,
                    "duration": 0.15625
                },
                {
                    "name": "C5",
                    "midi": 72,
                    "time": 132.34375,
                    "velocity": 0.3937007874015748,
                    "duration": 0.15625
                },
                {
                    "name": "E5",
                    "midi": 76,
                    "time": 132.34375,
                    "velocity": 0.3937007874015748,
                    "duration": 0.15625
                },
                {
                    "name": "D4",
                    "midi": 62,
                    "time": 132.5,
                    "velocity": 0.3937007874015748,
                    "duration": 0.15625
                },
                {
                    "name": "E5",
                    "midi": 76,
                    "time": 132.5,
                    "velocity": 0.3937007874015748,
                    "duration": 0.15625
                },
                {
                    "name": "A4",
                    "midi": 69,
                    "time": 132.65625,
                    "velocity": 0.3937007874015748,
                    "duration": 0.15625
                },
                {
                    "name": "D5",
                    "midi": 74,
                    "time": 132.65625,
                    "velocity": 0.3937007874015748,
                    "duration": 0.15625
                },
                {
                    "name": "D4",
                    "midi": 62,
                    "time": 132.8125,
                    "velocity": 0.3937007874015748,
                    "duration": 0.15625
                },
                {
                    "name": "E5",
                    "midi": 76,
                    "time": 132.8125,
                    "velocity": 0.3937007874015748,
                    "duration": 0.15625
                },
                {
                    "name": "A4",
                    "midi": 69,
                    "time": 132.96875,
                    "velocity": 0.3937007874015748,
                    "duration": 0.15625
                },
                {
                    "name": "D5",
                    "midi": 74,
                    "time": 132.96875,
                    "velocity": 0.3937007874015748,
                    "duration": 0.15625
                },
                {
                    "name": "D4",
                    "midi": 62,
                    "time": 133.125,
                    "velocity": 0.3937007874015748,
                    "duration": 0.15625
                },
                {
                    "name": "E5",
                    "midi": 76,
                    "time": 133.125,
                    "velocity": 0.3937007874015748,
                    "duration": 0.15625
                },
                {
                    "name": "A4",
                    "midi": 69,
                    "time": 133.28125,
                    "velocity": 0.3937007874015748,
                    "duration": 0.15625
                },
                {
                    "name": "D5",
                    "midi": 74,
                    "time": 133.28125,
                    "velocity": 0.3937007874015748,
                    "duration": 0.15625
                },
                {
                    "name": "C4",
                    "midi": 60,
                    "time": 133.4375,
                    "velocity": 0.3937007874015748,
                    "duration": 0.15625
                },
                {
                    "name": "D5",
                    "midi": 74,
                    "time": 133.4375,
                    "velocity": 0.3937007874015748,
                    "duration": 0.15625
                },
                {
                    "name": "A4",
                    "midi": 69,
                    "time": 133.59375,
                    "velocity": 0.3937007874015748,
                    "duration": 0.15625
                },
                {
                    "name": "C5",
                    "midi": 72,
                    "time": 133.59375,
                    "velocity": 0.3937007874015748,
                    "duration": 0.15625
                },
                {
                    "name": "B3",
                    "midi": 59,
                    "time": 133.75,
                    "velocity": 0.3937007874015748,
                    "duration": 0.15625
                },
                {
                    "name": "C5",
                    "midi": 72,
                    "time": 133.75,
                    "velocity": 0.3937007874015748,
                    "duration": 0.15625
                },
                {
                    "name": "G4",
                    "midi": 67,
                    "time": 133.90625,
                    "velocity": 0.3858267716535433,
                    "duration": 0.15625
                },
                {
                    "name": "B4",
                    "midi": 71,
                    "time": 133.90625,
                    "velocity": 0.3858267716535433,
                    "duration": 0.15625
                },
                {
                    "name": "B3",
                    "midi": 59,
                    "time": 134.0625,
                    "velocity": 0.3700787401574803,
                    "duration": 0.15625
                },
                {
                    "name": "C5",
                    "midi": 72,
                    "time": 134.0625,
                    "velocity": 0.3700787401574803,
                    "duration": 0.15625
                },
                {
                    "name": "G4",
                    "midi": 67,
                    "time": 134.21875,
                    "velocity": 0.36220472440944884,
                    "duration": 0.15625
                },
                {
                    "name": "B4",
                    "midi": 71,
                    "time": 134.21875,
                    "velocity": 0.36220472440944884,
                    "duration": 0.15625
                },
                {
                    "name": "C4",
                    "midi": 60,
                    "time": 134.375,
                    "velocity": 0.3543307086614173,
                    "duration": 0.15625
                },
                {
                    "name": "B4",
                    "midi": 71,
                    "time": 134.375,
                    "velocity": 0.3543307086614173,
                    "duration": 0.15625
                },
                {
                    "name": "F#4",
                    "midi": 66,
                    "time": 134.53125,
                    "velocity": 0.3464566929133858,
                    "duration": 0.15625
                },
                {
                    "name": "A4",
                    "midi": 69,
                    "time": 134.53125,
                    "velocity": 0.3464566929133858,
                    "duration": 0.15625
                },
                {
                    "name": "D4",
                    "midi": 62,
                    "time": 134.6875,
                    "velocity": 0.33070866141732286,
                    "duration": 0.15625
                },
                {
                    "name": "A4",
                    "midi": 69,
                    "time": 134.6875,
                    "velocity": 0.33070866141732286,
                    "duration": 0.15625
                },
                {
                    "name": "F4",
                    "midi": 65,
                    "time": 134.84375,
                    "velocity": 0.3228346456692913,
                    "duration": 0.15625
                },
                {
                    "name": "G4",
                    "midi": 67,
                    "time": 134.84375,
                    "velocity": 0.3228346456692913,
                    "duration": 0.15625
                },
                {
                    "name": "E4",
                    "midi": 64,
                    "time": 135,
                    "velocity": 0.31496062992125984,
                    "duration": 0.15625
                },
                {
                    "name": "C5",
                    "midi": 72,
                    "time": 135,
                    "velocity": 0.31496062992125984,
                    "duration": 0.15625
                },
                {
                    "name": "F4",
                    "midi": 65,
                    "time": 135.15625,
                    "velocity": 0.31496062992125984,
                    "duration": 0.15625
                },
                {
                    "name": "B4",
                    "midi": 71,
                    "time": 135.15625,
                    "velocity": 0.31496062992125984,
                    "duration": 0.15625
                },
                {
                    "name": "E4",
                    "midi": 64,
                    "time": 135.3125,
                    "velocity": 0.31496062992125984,
                    "duration": 0.15625
                },
                {
                    "name": "C5",
                    "midi": 72,
                    "time": 135.3125,
                    "velocity": 0.31496062992125984,
                    "duration": 0.15625
                },
                {
                    "name": "F4",
                    "midi": 65,
                    "time": 135.46875,
                    "velocity": 0.31496062992125984,
                    "duration": 0.15625
                },
                {
                    "name": "B4",
                    "midi": 71,
                    "time": 135.46875,
                    "velocity": 0.31496062992125984,
                    "duration": 0.15625
                },
                {
                    "name": "E4",
                    "midi": 64,
                    "time": 135.625,
                    "velocity": 0.31496062992125984,
                    "duration": 0.15625
                },
                {
                    "name": "C5",
                    "midi": 72,
                    "time": 135.625,
                    "velocity": 0.31496062992125984,
                    "duration": 0.15625
                },
                {
                    "name": "F4",
                    "midi": 65,
                    "time": 135.78125,
                    "velocity": 0.31496062992125984,
                    "duration": 0.15625
                },
                {
                    "name": "B4",
                    "midi": 71,
                    "time": 135.78125,
                    "velocity": 0.31496062992125984,
                    "duration": 0.15625
                },
                {
                    "name": "E4",
                    "midi": 64,
                    "time": 135.9375,
                    "velocity": 0.31496062992125984,
                    "duration": 0.15625
                },
                {
                    "name": "C5",
                    "midi": 72,
                    "time": 135.9375,
                    "velocity": 0.31496062992125984,
                    "duration": 0.15625
                },
                {
                    "name": "G4",
                    "midi": 67,
                    "time": 136.09375,
                    "velocity": 0.31496062992125984,
                    "duration": 0.15625
                },
                {
                    "name": "C#5",
                    "midi": 73,
                    "time": 136.09375,
                    "velocity": 0.31496062992125984,
                    "duration": 0.15625
                },
                {
                    "name": "F4",
                    "midi": 65,
                    "time": 136.25,
                    "velocity": 0.31496062992125984,
                    "duration": 0.15625
                },
                {
                    "name": "D5",
                    "midi": 74,
                    "time": 136.25,
                    "velocity": 0.31496062992125984,
                    "duration": 0.15625
                },
                {
                    "name": "G#4",
                    "midi": 68,
                    "time": 136.40625,
                    "velocity": 0.31496062992125984,
                    "duration": 0.15625
                },
                {
                    "name": "C#5",
                    "midi": 73,
                    "time": 136.40625,
                    "velocity": 0.31496062992125984,
                    "duration": 0.15625
                },
                {
                    "name": "F4",
                    "midi": 65,
                    "time": 136.5625,
                    "velocity": 0.31496062992125984,
                    "duration": 0.15625
                },
                {
                    "name": "D5",
                    "midi": 74,
                    "time": 136.5625,
                    "velocity": 0.31496062992125984,
                    "duration": 0.15625
                },
                {
                    "name": "G#4",
                    "midi": 68,
                    "time": 136.71875,
                    "velocity": 0.31496062992125984,
                    "duration": 0.15625
                },
                {
                    "name": "C#5",
                    "midi": 73,
                    "time": 136.71875,
                    "velocity": 0.31496062992125984,
                    "duration": 0.15625
                },
                {
                    "name": "F4",
                    "midi": 65,
                    "time": 136.875,
                    "velocity": 0.31496062992125984,
                    "duration": 0.15625
                },
                {
                    "name": "D5",
                    "midi": 74,
                    "time": 136.875,
                    "velocity": 0.31496062992125984,
                    "duration": 0.15625
                },
                {
                    "name": "G#4",
                    "midi": 68,
                    "time": 137.03125,
                    "velocity": 0.31496062992125984,
                    "duration": 0.15625
                },
                {
                    "name": "C#5",
                    "midi": 73,
                    "time": 137.03125,
                    "velocity": 0.31496062992125984,
                    "duration": 0.15625
                },
                {
                    "name": "F4",
                    "midi": 65,
                    "time": 137.1875,
                    "velocity": 0.31496062992125984,
                    "duration": 0.15625
                },
                {
                    "name": "E5",
                    "midi": 76,
                    "time": 137.1875,
                    "velocity": 0.31496062992125984,
                    "duration": 0.15625
                },
                {
                    "name": "B4",
                    "midi": 71,
                    "time": 137.34375,
                    "velocity": 0.31496062992125984,
                    "duration": 0.15625
                },
                {
                    "name": "D5",
                    "midi": 74,
                    "time": 137.34375,
                    "velocity": 0.31496062992125984,
                    "duration": 0.15625
                },
                {
                    "name": "E4",
                    "midi": 64,
                    "time": 137.5,
                    "velocity": 0.31496062992125984,
                    "duration": 0.15625
                },
                {
                    "name": "C5",
                    "midi": 72,
                    "time": 137.5,
                    "velocity": 0.31496062992125984,
                    "duration": 0.15625
                },
                {
                    "name": "F4",
                    "midi": 65,
                    "time": 137.65625,
                    "velocity": 0.31496062992125984,
                    "duration": 0.15625
                },
                {
                    "name": "B4",
                    "midi": 71,
                    "time": 137.65625,
                    "velocity": 0.31496062992125984,
                    "duration": 0.15625
                },
                {
                    "name": "E4",
                    "midi": 64,
                    "time": 137.8125,
                    "velocity": 0.31496062992125984,
                    "duration": 0.15625
                },
                {
                    "name": "C5",
                    "midi": 72,
                    "time": 137.8125,
                    "velocity": 0.31496062992125984,
                    "duration": 0.15625
                },
                {
                    "name": "F4",
                    "midi": 65,
                    "time": 137.96875,
                    "velocity": 0.31496062992125984,
                    "duration": 0.15625
                },
                {
                    "name": "B4",
                    "midi": 71,
                    "time": 137.96875,
                    "velocity": 0.31496062992125984,
                    "duration": 0.15625
                },
                {
                    "name": "E4",
                    "midi": 64,
                    "time": 138.125,
                    "velocity": 0.31496062992125984,
                    "duration": 0.15625
                },
                {
                    "name": "C5",
                    "midi": 72,
                    "time": 138.125,
                    "velocity": 0.31496062992125984,
                    "duration": 0.15625
                },
                {
                    "name": "F4",
                    "midi": 65,
                    "time": 138.28125,
                    "velocity": 0.31496062992125984,
                    "duration": 0.15625
                },
                {
                    "name": "B4",
                    "midi": 71,
                    "time": 138.28125,
                    "velocity": 0.31496062992125984,
                    "duration": 0.15625
                },
                {
                    "name": "E4",
                    "midi": 64,
                    "time": 138.4375,
                    "velocity": 0.31496062992125984,
                    "duration": 0.15625
                },
                {
                    "name": "C5",
                    "midi": 72,
                    "time": 138.4375,
                    "velocity": 0.31496062992125984,
                    "duration": 0.15625
                },
                {
                    "name": "G4",
                    "midi": 67,
                    "time": 138.59375,
                    "velocity": 0.31496062992125984,
                    "duration": 0.15625
                },
                {
                    "name": "C#5",
                    "midi": 73,
                    "time": 138.59375,
                    "velocity": 0.31496062992125984,
                    "duration": 0.15625
                },
                {
                    "name": "F4",
                    "midi": 65,
                    "time": 138.75,
                    "velocity": 0.31496062992125984,
                    "duration": 0.15625
                },
                {
                    "name": "D5",
                    "midi": 74,
                    "time": 138.75,
                    "velocity": 0.31496062992125984,
                    "duration": 0.15625
                },
                {
                    "name": "G#4",
                    "midi": 68,
                    "time": 138.90625,
                    "velocity": 0.31496062992125984,
                    "duration": 0.15625
                },
                {
                    "name": "C#5",
                    "midi": 73,
                    "time": 138.90625,
                    "velocity": 0.31496062992125984,
                    "duration": 0.15625
                },
                {
                    "name": "F4",
                    "midi": 65,
                    "time": 139.0625,
                    "velocity": 0.31496062992125984,
                    "duration": 0.15625
                },
                {
                    "name": "D5",
                    "midi": 74,
                    "time": 139.0625,
                    "velocity": 0.31496062992125984,
                    "duration": 0.15625
                },
                {
                    "name": "G#4",
                    "midi": 68,
                    "time": 139.21875,
                    "velocity": 0.31496062992125984,
                    "duration": 0.15625
                },
                {
                    "name": "C#5",
                    "midi": 73,
                    "time": 139.21875,
                    "velocity": 0.31496062992125984,
                    "duration": 0.15625
                },
                {
                    "name": "F4",
                    "midi": 65,
                    "time": 139.375,
                    "velocity": 0.31496062992125984,
                    "duration": 0.15625
                },
                {
                    "name": "D5",
                    "midi": 74,
                    "time": 139.375,
                    "velocity": 0.31496062992125984,
                    "duration": 0.15625
                },
                {
                    "name": "G#4",
                    "midi": 68,
                    "time": 139.53125,
                    "velocity": 0.31496062992125984,
                    "duration": 0.15625
                },
                {
                    "name": "A#4",
                    "midi": 70,
                    "time": 139.53125,
                    "velocity": 0.31496062992125984,
                    "duration": 0.15625
                },
                {
                    "name": "D4",
                    "midi": 62,
                    "time": 139.6875,
                    "velocity": 0.31496062992125984,
                    "duration": 0.15625
                },
                {
                    "name": "C5",
                    "midi": 72,
                    "time": 139.6875,
                    "velocity": 0.31496062992125984,
                    "duration": 0.15625
                },
                {
                    "name": "G#4",
                    "midi": 68,
                    "time": 139.84375,
                    "velocity": 0.31496062992125984,
                    "duration": 0.15625
                },
                {
                    "name": "A#4",
                    "midi": 70,
                    "time": 139.84375,
                    "velocity": 0.31496062992125984,
                    "duration": 0.15625
                },
                {
                    "name": "G4",
                    "midi": 67,
                    "time": 140,
                    "velocity": 0.5039370078740157,
                    "duration": 0.15625
                },
                {
                    "name": "D#5",
                    "midi": 75,
                    "time": 140,
                    "velocity": 0.5039370078740157,
                    "duration": 0.15625
                },
                {
                    "name": "A#4",
                    "midi": 70,
                    "time": 140.15625,
                    "velocity": 0.5039370078740157,
                    "duration": 0.15625
                },
                {
                    "name": "D5",
                    "midi": 74,
                    "time": 140.15625,
                    "velocity": 0.5039370078740157,
                    "duration": 0.15625
                },
                {
                    "name": "G4",
                    "midi": 67,
                    "time": 140.3125,
                    "velocity": 0.5039370078740157,
                    "duration": 0.15625
                },
                {
                    "name": "D#5",
                    "midi": 75,
                    "time": 140.3125,
                    "velocity": 0.5039370078740157,
                    "duration": 0.15625
                },
                {
                    "name": "A#4",
                    "midi": 70,
                    "time": 140.46875,
                    "velocity": 0.5039370078740157,
                    "duration": 0.15625
                },
                {
                    "name": "D5",
                    "midi": 74,
                    "time": 140.46875,
                    "velocity": 0.5039370078740157,
                    "duration": 0.15625
                },
                {
                    "name": "G4",
                    "midi": 67,
                    "time": 140.625,
                    "velocity": 0.5039370078740157,
                    "duration": 0.15625
                },
                {
                    "name": "D#5",
                    "midi": 75,
                    "time": 140.625,
                    "velocity": 0.5039370078740157,
                    "duration": 0.15625
                },
                {
                    "name": "A#4",
                    "midi": 70,
                    "time": 140.78125,
                    "velocity": 0.5039370078740157,
                    "duration": 0.15625
                },
                {
                    "name": "D5",
                    "midi": 74,
                    "time": 140.78125,
                    "velocity": 0.5039370078740157,
                    "duration": 0.15625
                },
                {
                    "name": "G4",
                    "midi": 67,
                    "time": 140.9375,
                    "velocity": 0.5039370078740157,
                    "duration": 0.15625
                },
                {
                    "name": "D#5",
                    "midi": 75,
                    "time": 140.9375,
                    "velocity": 0.5039370078740157,
                    "duration": 0.15625
                },
                {
                    "name": "A#4",
                    "midi": 70,
                    "time": 141.09375,
                    "velocity": 0.5039370078740157,
                    "duration": 0.15625
                },
                {
                    "name": "E5",
                    "midi": 76,
                    "time": 141.09375,
                    "velocity": 0.5039370078740157,
                    "duration": 0.15625
                },
                {
                    "name": "G#4",
                    "midi": 68,
                    "time": 141.25,
                    "velocity": 0.5039370078740157,
                    "duration": 0.15625
                },
                {
                    "name": "F5",
                    "midi": 77,
                    "time": 141.25,
                    "velocity": 0.5039370078740157,
                    "duration": 0.15625
                },
                {
                    "name": "B4",
                    "midi": 71,
                    "time": 141.40625,
                    "velocity": 0.5039370078740157,
                    "duration": 0.15625
                },
                {
                    "name": "E5",
                    "midi": 76,
                    "time": 141.40625,
                    "velocity": 0.5039370078740157,
                    "duration": 0.15625
                },
                {
                    "name": "G#4",
                    "midi": 68,
                    "time": 141.5625,
                    "velocity": 0.5039370078740157,
                    "duration": 0.15625
                },
                {
                    "name": "F5",
                    "midi": 77,
                    "time": 141.5625,
                    "velocity": 0.5039370078740157,
                    "duration": 0.15625
                },
                {
                    "name": "B4",
                    "midi": 71,
                    "time": 141.71875,
                    "velocity": 0.5039370078740157,
                    "duration": 0.15625
                },
                {
                    "name": "E5",
                    "midi": 76,
                    "time": 141.71875,
                    "velocity": 0.5039370078740157,
                    "duration": 0.15625
                },
                {
                    "name": "G#4",
                    "midi": 68,
                    "time": 141.875,
                    "velocity": 0.5039370078740157,
                    "duration": 0.15625
                },
                {
                    "name": "F5",
                    "midi": 77,
                    "time": 141.875,
                    "velocity": 0.5039370078740157,
                    "duration": 0.15625
                },
                {
                    "name": "B4",
                    "midi": 71,
                    "time": 142.03125,
                    "velocity": 0.5039370078740157,
                    "duration": 0.15625
                },
                {
                    "name": "E5",
                    "midi": 76,
                    "time": 142.03125,
                    "velocity": 0.5039370078740157,
                    "duration": 0.15625
                },
                {
                    "name": "G#4",
                    "midi": 68,
                    "time": 142.1875,
                    "velocity": 0.5039370078740157,
                    "duration": 0.15625
                },
                {
                    "name": "F5",
                    "midi": 77,
                    "time": 142.1875,
                    "velocity": 0.5039370078740157,
                    "duration": 0.15625
                },
                {
                    "name": "A#4",
                    "midi": 70,
                    "time": 142.34375,
                    "velocity": 0.5039370078740157,
                    "duration": 0.15625
                },
                {
                    "name": "F#5",
                    "midi": 78,
                    "time": 142.34375,
                    "velocity": 0.5039370078740157,
                    "duration": 0.15625
                },
                {
                    "name": "G4",
                    "midi": 67,
                    "time": 142.5,
                    "velocity": 0.5039370078740157,
                    "duration": 0.15625
                },
                {
                    "name": "G5",
                    "midi": 79,
                    "time": 142.5,
                    "velocity": 0.5039370078740157,
                    "duration": 0.15625
                },
                {
                    "name": "A#4",
                    "midi": 70,
                    "time": 142.65625,
                    "velocity": 0.5039370078740157,
                    "duration": 0.15625
                },
                {
                    "name": "F#5",
                    "midi": 78,
                    "time": 142.65625,
                    "velocity": 0.5039370078740157,
                    "duration": 0.15625
                },
                {
                    "name": "G4",
                    "midi": 67,
                    "time": 142.8125,
                    "velocity": 0.5039370078740157,
                    "duration": 0.15625
                },
                {
                    "name": "G5",
                    "midi": 79,
                    "time": 142.8125,
                    "velocity": 0.5039370078740157,
                    "duration": 0.15625
                },
                {
                    "name": "C#5",
                    "midi": 73,
                    "time": 142.96875,
                    "velocity": 0.5039370078740157,
                    "duration": 0.15625
                },
                {
                    "name": "F#5",
                    "midi": 78,
                    "time": 142.96875,
                    "velocity": 0.5039370078740157,
                    "duration": 0.15625
                },
                {
                    "name": "G4",
                    "midi": 67,
                    "time": 143.125,
                    "velocity": 0.5039370078740157,
                    "duration": 0.15625
                },
                {
                    "name": "G5",
                    "midi": 79,
                    "time": 143.125,
                    "velocity": 0.5039370078740157,
                    "duration": 0.15625
                },
                {
                    "name": "C#5",
                    "midi": 73,
                    "time": 143.28125,
                    "velocity": 0.5039370078740157,
                    "duration": 0.15625
                },
                {
                    "name": "F#5",
                    "midi": 78,
                    "time": 143.28125,
                    "velocity": 0.5039370078740157,
                    "duration": 0.15625
                },
                {
                    "name": "G4",
                    "midi": 67,
                    "time": 143.4375,
                    "velocity": 0.5039370078740157,
                    "duration": 0.15625
                },
                {
                    "name": "G5",
                    "midi": 79,
                    "time": 143.4375,
                    "velocity": 0.5039370078740157,
                    "duration": 0.15625
                },
                {
                    "name": "C#5",
                    "midi": 73,
                    "time": 143.59375,
                    "velocity": 0.5039370078740157,
                    "duration": 0.15625
                },
                {
                    "name": "G#5",
                    "midi": 80,
                    "time": 143.59375,
                    "velocity": 0.5039370078740157,
                    "duration": 0.15625
                },
                {
                    "name": "G4",
                    "midi": 67,
                    "time": 143.75,
                    "velocity": 0.5039370078740157,
                    "duration": 0.15625
                },
                {
                    "name": "A5",
                    "midi": 81,
                    "time": 143.75,
                    "velocity": 0.5039370078740157,
                    "duration": 0.15625
                },
                {
                    "name": "C#5",
                    "midi": 73,
                    "time": 143.90625,
                    "velocity": 0.5039370078740157,
                    "duration": 0.15625
                },
                {
                    "name": "G#5",
                    "midi": 80,
                    "time": 143.90625,
                    "velocity": 0.5039370078740157,
                    "duration": 0.15625
                },
                {
                    "name": "G4",
                    "midi": 67,
                    "time": 144.0625,
                    "velocity": 0.5039370078740157,
                    "duration": 0.15625
                },
                {
                    "name": "A5",
                    "midi": 81,
                    "time": 144.0625,
                    "velocity": 0.5039370078740157,
                    "duration": 0.15625
                },
                {
                    "name": "C#5",
                    "midi": 73,
                    "time": 144.21875,
                    "velocity": 0.5039370078740157,
                    "duration": 0.15625
                },
                {
                    "name": "G#5",
                    "midi": 80,
                    "time": 144.21875,
                    "velocity": 0.5039370078740157,
                    "duration": 0.15625
                },
                {
                    "name": "G4",
                    "midi": 67,
                    "time": 144.375,
                    "velocity": 0.5039370078740157,
                    "duration": 0.15625
                },
                {
                    "name": "A5",
                    "midi": 81,
                    "time": 144.375,
                    "velocity": 0.5039370078740157,
                    "duration": 0.15625
                },
                {
                    "name": "C#5",
                    "midi": 73,
                    "time": 144.53125,
                    "velocity": 0.5039370078740157,
                    "duration": 0.15625
                },
                {
                    "name": "G#5",
                    "midi": 80,
                    "time": 144.53125,
                    "velocity": 0.5039370078740157,
                    "duration": 0.15625
                },
                {
                    "name": "G4",
                    "midi": 67,
                    "time": 144.6875,
                    "velocity": 0.5039370078740157,
                    "duration": 0.15625
                },
                {
                    "name": "A5",
                    "midi": 81,
                    "time": 144.6875,
                    "velocity": 0.5039370078740157,
                    "duration": 0.15625
                },
                {
                    "name": "C#5",
                    "midi": 73,
                    "time": 144.84375,
                    "velocity": 0.5039370078740157,
                    "duration": 0.15625
                },
                {
                    "name": "G5",
                    "midi": 79,
                    "time": 144.84375,
                    "velocity": 0.5039370078740157,
                    "duration": 0.15625
                },
                {
                    "name": "G4",
                    "midi": 67,
                    "time": 145,
                    "velocity": 0.5039370078740157,
                    "duration": 0.15625
                },
                {
                    "name": "G5",
                    "midi": 79,
                    "time": 145,
                    "velocity": 0.5039370078740157,
                    "duration": 0.15625
                },
                {
                    "name": "C5",
                    "midi": 72,
                    "time": 145.15625,
                    "velocity": 0.5039370078740157,
                    "duration": 0.15625
                },
                {
                    "name": "F#5",
                    "midi": 78,
                    "time": 145.15625,
                    "velocity": 0.5039370078740157,
                    "duration": 0.15625
                },
                {
                    "name": "F#4",
                    "midi": 66,
                    "time": 145.3125,
                    "velocity": 0.5039370078740157,
                    "duration": 0.15625
                },
                {
                    "name": "G5",
                    "midi": 79,
                    "time": 145.3125,
                    "velocity": 0.5039370078740157,
                    "duration": 0.15625
                },
                {
                    "name": "C5",
                    "midi": 72,
                    "time": 145.46875,
                    "velocity": 0.5039370078740157,
                    "duration": 0.15625
                },
                {
                    "name": "F#5",
                    "midi": 78,
                    "time": 145.46875,
                    "velocity": 0.5039370078740157,
                    "duration": 0.15625
                },
                {
                    "name": "F#4",
                    "midi": 66,
                    "time": 145.625,
                    "velocity": 0.5039370078740157,
                    "duration": 0.15625
                },
                {
                    "name": "G5",
                    "midi": 79,
                    "time": 145.625,
                    "velocity": 0.5039370078740157,
                    "duration": 0.15625
                },
                {
                    "name": "C5",
                    "midi": 72,
                    "time": 145.78125,
                    "velocity": 0.5039370078740157,
                    "duration": 0.15625
                },
                {
                    "name": "F#5",
                    "midi": 78,
                    "time": 145.78125,
                    "velocity": 0.5039370078740157,
                    "duration": 0.15625
                },
                {
                    "name": "F#4",
                    "midi": 66,
                    "time": 145.9375,
                    "velocity": 0.5039370078740157,
                    "duration": 0.15625
                },
                {
                    "name": "G5",
                    "midi": 79,
                    "time": 145.9375,
                    "velocity": 0.5039370078740157,
                    "duration": 0.15625
                },
                {
                    "name": "C5",
                    "midi": 72,
                    "time": 146.09375,
                    "velocity": 0.5039370078740157,
                    "duration": 0.15625
                },
                {
                    "name": "F#5",
                    "midi": 78,
                    "time": 146.09375,
                    "velocity": 0.5039370078740157,
                    "duration": 0.15625
                },
                {
                    "name": "F4",
                    "midi": 65,
                    "time": 146.25,
                    "velocity": 0.3937007874015748,
                    "duration": 0.15625
                },
                {
                    "name": "G5",
                    "midi": 79,
                    "time": 146.25,
                    "velocity": 0.3937007874015748,
                    "duration": 0.15625
                },
                {
                    "name": "B4",
                    "midi": 71,
                    "time": 146.40625,
                    "velocity": 0.3937007874015748,
                    "duration": 0.15625
                },
                {
                    "name": "F#5",
                    "midi": 78,
                    "time": 146.40625,
                    "velocity": 0.3937007874015748,
                    "duration": 0.15625
                },
                {
                    "name": "F4",
                    "midi": 65,
                    "time": 146.5625,
                    "velocity": 0.3937007874015748,
                    "duration": 0.15625
                },
                {
                    "name": "G5",
                    "midi": 79,
                    "time": 146.5625,
                    "velocity": 0.3937007874015748,
                    "duration": 0.15625
                },
                {
                    "name": "B4",
                    "midi": 71,
                    "time": 146.71875,
                    "velocity": 0.3937007874015748,
                    "duration": 0.15625
                },
                {
                    "name": "F#5",
                    "midi": 78,
                    "time": 146.71875,
                    "velocity": 0.3937007874015748,
                    "duration": 0.15625
                },
                {
                    "name": "F4",
                    "midi": 65,
                    "time": 146.875,
                    "velocity": 0.3937007874015748,
                    "duration": 0.15625
                },
                {
                    "name": "G5",
                    "midi": 79,
                    "time": 146.875,
                    "velocity": 0.3937007874015748,
                    "duration": 0.15625
                },
                {
                    "name": "B4",
                    "midi": 71,
                    "time": 147.03125,
                    "velocity": 0.3937007874015748,
                    "duration": 0.15625
                },
                {
                    "name": "F#5",
                    "midi": 78,
                    "time": 147.03125,
                    "velocity": 0.3937007874015748,
                    "duration": 0.15625
                },
                {
                    "name": "F4",
                    "midi": 65,
                    "time": 147.1875,
                    "velocity": 0.3937007874015748,
                    "duration": 0.15625
                },
                {
                    "name": "G5",
                    "midi": 79,
                    "time": 147.1875,
                    "velocity": 0.3937007874015748,
                    "duration": 0.15625
                },
                {
                    "name": "B4",
                    "midi": 71,
                    "time": 147.34375,
                    "velocity": 0.3937007874015748,
                    "duration": 0.15625
                },
                {
                    "name": "F5",
                    "midi": 77,
                    "time": 147.34375,
                    "velocity": 0.3937007874015748,
                    "duration": 0.15625
                },
                {
                    "name": "E4",
                    "midi": 64,
                    "time": 147.5,
                    "velocity": 0.3937007874015748,
                    "duration": 0.15625
                },
                {
                    "name": "F5",
                    "midi": 77,
                    "time": 147.5,
                    "velocity": 0.3937007874015748,
                    "duration": 0.15625
                },
                {
                    "name": "C5",
                    "midi": 72,
                    "time": 147.65625,
                    "velocity": 0.4094488188976378,
                    "duration": 0.15625
                },
                {
                    "name": "E5",
                    "midi": 76,
                    "time": 147.65625,
                    "velocity": 0.4094488188976378,
                    "duration": 0.15625
                },
                {
                    "name": "G4",
                    "midi": 67,
                    "time": 147.8125,
                    "velocity": 0.4251968503937008,
                    "duration": 0.15625
                },
                {
                    "name": "F5",
                    "midi": 77,
                    "time": 147.8125,
                    "velocity": 0.4251968503937008,
                    "duration": 0.15625
                },
                {
                    "name": "C5",
                    "midi": 72,
                    "time": 147.96875,
                    "velocity": 0.4330708661417323,
                    "duration": 0.15625
                },
                {
                    "name": "E5",
                    "midi": 76,
                    "time": 147.96875,
                    "velocity": 0.4330708661417323,
                    "duration": 0.15625
                },
                {
                    "name": "E4",
                    "midi": 64,
                    "time": 148.125,
                    "velocity": 0.44881889763779526,
                    "duration": 0.15625
                },
                {
                    "name": "F5",
                    "midi": 77,
                    "time": 148.125,
                    "velocity": 0.44881889763779526,
                    "duration": 0.15625
                },
                {
                    "name": "C5",
                    "midi": 72,
                    "time": 148.28125,
                    "velocity": 0.4645669291338583,
                    "duration": 0.15625
                },
                {
                    "name": "E5",
                    "midi": 76,
                    "time": 148.28125,
                    "velocity": 0.4645669291338583,
                    "duration": 0.15625
                },
                {
                    "name": "G4",
                    "midi": 67,
                    "time": 148.4375,
                    "velocity": 0.48031496062992124,
                    "duration": 0.15625
                },
                {
                    "name": "F5",
                    "midi": 77,
                    "time": 148.4375,
                    "velocity": 0.48031496062992124,
                    "duration": 0.15625
                },
                {
                    "name": "C5",
                    "midi": 72,
                    "time": 148.59375,
                    "velocity": 0.4881889763779528,
                    "duration": 0.15625
                },
                {
                    "name": "E5",
                    "midi": 76,
                    "time": 148.59375,
                    "velocity": 0.4881889763779528,
                    "duration": 0.15625
                },
                {
                    "name": "F4",
                    "midi": 65,
                    "time": 148.75,
                    "velocity": 0.5039370078740157,
                    "duration": 0.15625
                },
                {
                    "name": "G5",
                    "midi": 79,
                    "time": 148.75,
                    "velocity": 0.5039370078740157,
                    "duration": 0.15625
                },
                {
                    "name": "C5",
                    "midi": 72,
                    "time": 148.90625,
                    "velocity": 0.5039370078740157,
                    "duration": 0.15625
                },
                {
                    "name": "F5",
                    "midi": 77,
                    "time": 148.90625,
                    "velocity": 0.5039370078740157,
                    "duration": 0.15625
                },
                {
                    "name": "A4",
                    "midi": 69,
                    "time": 149.0625,
                    "velocity": 0.5039370078740157,
                    "duration": 0.15625
                },
                {
                    "name": "G5",
                    "midi": 79,
                    "time": 149.0625,
                    "velocity": 0.5039370078740157,
                    "duration": 0.15625
                },
                {
                    "name": "C5",
                    "midi": 72,
                    "time": 149.21875,
                    "velocity": 0.5039370078740157,
                    "duration": 0.15625
                },
                {
                    "name": "F5",
                    "midi": 77,
                    "time": 149.21875,
                    "velocity": 0.5039370078740157,
                    "duration": 0.15625
                },
                {
                    "name": "F4",
                    "midi": 65,
                    "time": 149.375,
                    "velocity": 0.5039370078740157,
                    "duration": 0.15625
                },
                {
                    "name": "C5",
                    "midi": 72,
                    "time": 149.375,
                    "velocity": 0.5039370078740157,
                    "duration": 0.15625
                },
                {
                    "name": "F5",
                    "midi": 77,
                    "time": 149.375,
                    "velocity": 0.5039370078740157,
                    "duration": 0.15625
                },
                {
                    "name": "A4",
                    "midi": 69,
                    "time": 149.53125,
                    "velocity": 0.5039370078740157,
                    "duration": 0.15625
                },
                {
                    "name": "F5",
                    "midi": 77,
                    "time": 149.53125,
                    "velocity": 0.5039370078740157,
                    "duration": 0.15625
                },
                {
                    "name": "A5",
                    "midi": 81,
                    "time": 149.53125,
                    "velocity": 0.5039370078740157,
                    "duration": 0.15625
                },
                {
                    "name": "C5",
                    "midi": 72,
                    "time": 149.6875,
                    "velocity": 0.5039370078740157,
                    "duration": 0.15625
                },
                {
                    "name": "A5",
                    "midi": 81,
                    "time": 149.6875,
                    "velocity": 0.5039370078740157,
                    "duration": 0.15625
                },
                {
                    "name": "C6",
                    "midi": 84,
                    "time": 149.6875,
                    "velocity": 0.5039370078740157,
                    "duration": 0.15625
                },
                {
                    "name": "F5",
                    "midi": 77,
                    "time": 149.84375,
                    "velocity": 0.5039370078740157,
                    "duration": 0.15625
                },
                {
                    "name": "C6",
                    "midi": 84,
                    "time": 149.84375,
                    "velocity": 0.5039370078740157,
                    "duration": 0.15625
                },
                {
                    "name": "F6",
                    "midi": 89,
                    "time": 149.84375,
                    "velocity": 0.5039370078740157,
                    "duration": 0.15625
                },
                {
                    "name": "F5",
                    "midi": 77,
                    "time": 150,
                    "velocity": 0.5039370078740157,
                    "duration": 0.15625
                },
                {
                    "name": "C6",
                    "midi": 84,
                    "time": 150,
                    "velocity": 0.5039370078740157,
                    "duration": 0.15625
                },
                {
                    "name": "F6",
                    "midi": 89,
                    "time": 150,
                    "velocity": 0.5039370078740157,
                    "duration": 0.15625
                },
                {
                    "name": "E5",
                    "midi": 76,
                    "time": 150.15625,
                    "velocity": 0.4881889763779528,
                    "duration": 0.15625
                },
                {
                    "name": "E6",
                    "midi": 88,
                    "time": 150.15625,
                    "velocity": 0.4881889763779528,
                    "duration": 0.15625
                },
                {
                    "name": "F5",
                    "midi": 77,
                    "time": 150.3125,
                    "velocity": 0.47244094488188976,
                    "duration": 0.15625
                },
                {
                    "name": "C6",
                    "midi": 84,
                    "time": 150.3125,
                    "velocity": 0.47244094488188976,
                    "duration": 0.15625
                },
                {
                    "name": "F6",
                    "midi": 89,
                    "time": 150.3125,
                    "velocity": 0.47244094488188976,
                    "duration": 0.15625
                },
                {
                    "name": "E5",
                    "midi": 76,
                    "time": 150.46875,
                    "velocity": 0.4645669291338583,
                    "duration": 0.15625
                },
                {
                    "name": "E6",
                    "midi": 88,
                    "time": 150.46875,
                    "velocity": 0.4645669291338583,
                    "duration": 0.15625
                },
                {
                    "name": "E4",
                    "midi": 64,
                    "time": 150.625,
                    "velocity": 0.44881889763779526,
                    "duration": 0.15625
                },
                {
                    "name": "F5",
                    "midi": 77,
                    "time": 150.625,
                    "velocity": 0.44881889763779526,
                    "duration": 0.15625
                },
                {
                    "name": "C5",
                    "midi": 72,
                    "time": 150.78125,
                    "velocity": 0.4330708661417323,
                    "duration": 0.15625
                },
                {
                    "name": "E5",
                    "midi": 76,
                    "time": 150.78125,
                    "velocity": 0.4330708661417323,
                    "duration": 0.15625
                },
                {
                    "name": "G4",
                    "midi": 67,
                    "time": 150.9375,
                    "velocity": 0.41732283464566927,
                    "duration": 0.15625
                },
                {
                    "name": "F5",
                    "midi": 77,
                    "time": 150.9375,
                    "velocity": 0.41732283464566927,
                    "duration": 0.15625
                },
                {
                    "name": "C5",
                    "midi": 72,
                    "time": 151.09375,
                    "velocity": 0.4094488188976378,
                    "duration": 0.15625
                },
                {
                    "name": "E5",
                    "midi": 76,
                    "time": 151.09375,
                    "velocity": 0.4094488188976378,
                    "duration": 0.15625
                },
                {
                    "name": "F4",
                    "midi": 65,
                    "time": 151.25,
                    "velocity": 0.3937007874015748,
                    "duration": 0.15625
                },
                {
                    "name": "G5",
                    "midi": 79,
                    "time": 151.25,
                    "velocity": 0.3937007874015748,
                    "duration": 0.15625
                },
                {
                    "name": "C5",
                    "midi": 72,
                    "time": 151.40625,
                    "velocity": 0.4251968503937008,
                    "duration": 0.15625
                },
                {
                    "name": "F5",
                    "midi": 77,
                    "time": 151.40625,
                    "velocity": 0.4251968503937008,
                    "duration": 0.15625
                },
                {
                    "name": "A4",
                    "midi": 69,
                    "time": 151.5625,
                    "velocity": 0.4566929133858268,
                    "duration": 0.15625
                },
                {
                    "name": "G5",
                    "midi": 79,
                    "time": 151.5625,
                    "velocity": 0.4566929133858268,
                    "duration": 0.15625
                },
                {
                    "name": "C5",
                    "midi": 72,
                    "time": 151.71875,
                    "velocity": 0.48031496062992124,
                    "duration": 0.15625
                },
                {
                    "name": "F5",
                    "midi": 77,
                    "time": 151.71875,
                    "velocity": 0.48031496062992124,
                    "duration": 0.15625
                },
                {
                    "name": "F4",
                    "midi": 65,
                    "time": 151.875,
                    "velocity": 0.5118110236220472,
                    "duration": 0.15625
                },
                {
                    "name": "C5",
                    "midi": 72,
                    "time": 151.875,
                    "velocity": 0.5118110236220472,
                    "duration": 0.15625
                },
                {
                    "name": "F5",
                    "midi": 77,
                    "time": 151.875,
                    "velocity": 0.5118110236220472,
                    "duration": 0.15625
                },
                {
                    "name": "A4",
                    "midi": 69,
                    "time": 152.03125,
                    "velocity": 0.5433070866141733,
                    "duration": 0.15625
                },
                {
                    "name": "F5",
                    "midi": 77,
                    "time": 152.03125,
                    "velocity": 0.5433070866141733,
                    "duration": 0.15625
                },
                {
                    "name": "A5",
                    "midi": 81,
                    "time": 152.03125,
                    "velocity": 0.5433070866141733,
                    "duration": 0.15625
                },
                {
                    "name": "C5",
                    "midi": 72,
                    "time": 152.1875,
                    "velocity": 0.5748031496062992,
                    "duration": 0.15625
                },
                {
                    "name": "A5",
                    "midi": 81,
                    "time": 152.1875,
                    "velocity": 0.5748031496062992,
                    "duration": 0.15625
                },
                {
                    "name": "C6",
                    "midi": 84,
                    "time": 152.1875,
                    "velocity": 0.5748031496062992,
                    "duration": 0.15625
                },
                {
                    "name": "F5",
                    "midi": 77,
                    "time": 152.34375,
                    "velocity": 0.5984251968503937,
                    "duration": 0.15625
                },
                {
                    "name": "C6",
                    "midi": 84,
                    "time": 152.34375,
                    "velocity": 0.5984251968503937,
                    "duration": 0.15625
                },
                {
                    "name": "F6",
                    "midi": 89,
                    "time": 152.34375,
                    "velocity": 0.5984251968503937,
                    "duration": 0.15625
                },
                {
                    "name": "E5",
                    "midi": 76,
                    "time": 152.5,
                    "velocity": 0.7874015748031497,
                    "duration": 0.46875
                },
                {
                    "name": "C6",
                    "midi": 84,
                    "time": 152.5,
                    "velocity": 0.7874015748031497,
                    "duration": 0.550537109375
                },
                {
                    "name": "E6",
                    "midi": 88,
                    "time": 152.5,
                    "velocity": 0.7874015748031497,
                    "duration": 0.550537109375
                },
                {
                    "name": "B4",
                    "midi": 71,
                    "time": 152.8125,
                    "velocity": 0.23622047244094488,
                    "duration": 0.3125
                },
                {
                    "name": "E5",
                    "midi": 76,
                    "time": 152.8125,
                    "velocity": 0.23622047244094488,
                    "duration": 0.238037109375
                },
                {
                    "name": "E5",
                    "midi": 76,
                    "time": 152.8125,
                    "velocity": 0.23622047244094488,
                    "duration": 0.3125
                },
                {
                    "name": "D5",
                    "midi": 74,
                    "time": 152.96875,
                    "velocity": 0.23622047244094488,
                    "duration": 0.15625
                },
                {
                    "name": "C5",
                    "midi": 72,
                    "time": 153.125,
                    "velocity": 0.23622047244094488,
                    "duration": 0.15625
                },
                {
                    "name": "G5",
                    "midi": 79,
                    "time": 153.125,
                    "velocity": 0.23622047244094488,
                    "duration": 0.3125
                },
                {
                    "name": "C5",
                    "midi": 72,
                    "time": 153.125,
                    "velocity": 0.23622047244094488,
                    "duration": 0.3125
                },
                {
                    "name": "B4",
                    "midi": 71,
                    "time": 153.28125,
                    "velocity": 0.23622047244094488,
                    "duration": 0.15625
                },
                {
                    "name": "G#4",
                    "midi": 68,
                    "time": 153.4375,
                    "velocity": 0.23622047244094488,
                    "duration": 0.3125
                },
                {
                    "name": "C5",
                    "midi": 72,
                    "time": 153.4375,
                    "velocity": 0.23622047244094488,
                    "duration": 0.15625
                },
                {
                    "name": "C5",
                    "midi": 72,
                    "time": 153.4375,
                    "velocity": 0.23622047244094488,
                    "duration": 0.3125
                },
                {
                    "name": "B4",
                    "midi": 71,
                    "time": 153.59375,
                    "velocity": 0.23622047244094488,
                    "duration": 0.15625
                },
                {
                    "name": "A4",
                    "midi": 69,
                    "time": 153.75,
                    "velocity": 0.23622047244094488,
                    "duration": 0.15625
                },
                {
                    "name": "E5",
                    "midi": 76,
                    "time": 153.75,
                    "velocity": 0.23622047244094488,
                    "duration": 0.3125
                },
                {
                    "name": "A4",
                    "midi": 69,
                    "time": 153.75,
                    "velocity": 0.23622047244094488,
                    "duration": 0.3125
                },
                {
                    "name": "G#4",
                    "midi": 68,
                    "time": 153.90625,
                    "velocity": 0.23622047244094488,
                    "duration": 0.15625
                },
                {
                    "name": "E4",
                    "midi": 64,
                    "time": 154.0625,
                    "velocity": 0.2283464566929134,
                    "duration": 0.3125
                },
                {
                    "name": "A4",
                    "midi": 69,
                    "time": 154.0625,
                    "velocity": 0.2283464566929134,
                    "duration": 0.15625
                },
                {
                    "name": "A4",
                    "midi": 69,
                    "time": 154.0625,
                    "velocity": 0.2283464566929134,
                    "duration": 0.3125
                },
                {
                    "name": "G4",
                    "midi": 67,
                    "time": 154.21875,
                    "velocity": 0.2283464566929134,
                    "duration": 0.15625
                },
                {
                    "name": "F4",
                    "midi": 65,
                    "time": 154.375,
                    "velocity": 0.2283464566929134,
                    "duration": 0.15625
                },
                {
                    "name": "C5",
                    "midi": 72,
                    "time": 154.375,
                    "velocity": 0.2283464566929134,
                    "duration": 0.3125
                },
                {
                    "name": "F4",
                    "midi": 65,
                    "time": 154.375,
                    "velocity": 0.2283464566929134,
                    "duration": 0.3125
                },
                {
                    "name": "E4",
                    "midi": 64,
                    "time": 154.53125,
                    "velocity": 0.2283464566929134,
                    "duration": 0.15625
                },
                {
                    "name": "C#4",
                    "midi": 61,
                    "time": 154.6875,
                    "velocity": 0.2204724409448819,
                    "duration": 0.3125
                },
                {
                    "name": "F4",
                    "midi": 65,
                    "time": 154.6875,
                    "velocity": 0.2204724409448819,
                    "duration": 0.15625
                },
                {
                    "name": "F4",
                    "midi": 65,
                    "time": 154.6875,
                    "velocity": 0.2204724409448819,
                    "duration": 0.3125
                },
                {
                    "name": "E4",
                    "midi": 64,
                    "time": 154.84375,
                    "velocity": 0.2204724409448819,
                    "duration": 0.15625
                },
                {
                    "name": "D4",
                    "midi": 62,
                    "time": 155,
                    "velocity": 0.2204724409448819,
                    "duration": 0.15625
                },
                {
                    "name": "A4",
                    "midi": 69,
                    "time": 155,
                    "velocity": 0.2204724409448819,
                    "duration": 0.15625
                },
                {
                    "name": "C#5",
                    "midi": 73,
                    "time": 155.15625,
                    "velocity": 0.2204724409448819,
                    "duration": 0.15625
                },
                {
                    "name": "D5",
                    "midi": 74,
                    "time": 155.3125,
                    "velocity": 0.2125984251968504,
                    "duration": 0.15625
                },
                {
                    "name": "A#4",
                    "midi": 70,
                    "time": 155.3125,
                    "velocity": 0.2125984251968504,
                    "duration": 0.3125
                },
                {
                    "name": "D5",
                    "midi": 74,
                    "time": 155.3125,
                    "velocity": 0.2125984251968504,
                    "duration": 0.3125
                },
                {
                    "name": "C5",
                    "midi": 72,
                    "time": 155.46875,
                    "velocity": 0.2125984251968504,
                    "duration": 0.15625
                },
                {
                    "name": "B4",
                    "midi": 71,
                    "time": 155.625,
                    "velocity": 0.2125984251968504,
                    "duration": 0.15625
                },
                {
                    "name": "B4",
                    "midi": 71,
                    "time": 155.625,
                    "velocity": 0.2125984251968504,
                    "duration": 0.3125
                },
                {
                    "name": "F5",
                    "midi": 77,
                    "time": 155.625,
                    "velocity": 0.2125984251968504,
                    "duration": 0.3125
                },
                {
                    "name": "A#4",
                    "midi": 70,
                    "time": 155.78125,
                    "velocity": 0.2125984251968504,
                    "duration": 0.15625
                },
                {
                    "name": "B4",
                    "midi": 71,
                    "time": 155.9375,
                    "velocity": 0.2047244094488189,
                    "duration": 0.15625
                },
                {
                    "name": "F#4",
                    "midi": 66,
                    "time": 155.9375,
                    "velocity": 0.2047244094488189,
                    "duration": 0.3125
                },
                {
                    "name": "B4",
                    "midi": 71,
                    "time": 155.9375,
                    "velocity": 0.2047244094488189,
                    "duration": 0.3125
                },
                {
                    "name": "A4",
                    "midi": 69,
                    "time": 156.09375,
                    "velocity": 0.2047244094488189,
                    "duration": 0.15625
                },
                {
                    "name": "G4",
                    "midi": 67,
                    "time": 156.25,
                    "velocity": 0.2047244094488189,
                    "duration": 0.15625
                },
                {
                    "name": "G4",
                    "midi": 67,
                    "time": 156.25,
                    "velocity": 0.2047244094488189,
                    "duration": 0.3125
                },
                {
                    "name": "D5",
                    "midi": 74,
                    "time": 156.25,
                    "velocity": 0.2047244094488189,
                    "duration": 0.3125
                },
                {
                    "name": "F#4",
                    "midi": 66,
                    "time": 156.40625,
                    "velocity": 0.1968503937007874,
                    "duration": 0.15625
                },
                {
                    "name": "G4",
                    "midi": 67,
                    "time": 156.5625,
                    "velocity": 0.1968503937007874,
                    "duration": 0.15625
                },
                {
                    "name": "D#4",
                    "midi": 63,
                    "time": 156.5625,
                    "velocity": 0.1968503937007874,
                    "duration": 0.3125
                },
                {
                    "name": "G4",
                    "midi": 67,
                    "time": 156.5625,
                    "velocity": 0.1968503937007874,
                    "duration": 0.3125
                },
                {
                    "name": "F#4",
                    "midi": 66,
                    "time": 156.71875,
                    "velocity": 0.1968503937007874,
                    "duration": 0.15625
                },
                {
                    "name": "E4",
                    "midi": 64,
                    "time": 156.875,
                    "velocity": 0.1968503937007874,
                    "duration": 0.15625
                },
                {
                    "name": "E4",
                    "midi": 64,
                    "time": 156.875,
                    "velocity": 0.1968503937007874,
                    "duration": 0.3125
                },
                {
                    "name": "B4",
                    "midi": 71,
                    "time": 156.875,
                    "velocity": 0.1968503937007874,
                    "duration": 0.3125
                },
                {
                    "name": "D#4",
                    "midi": 63,
                    "time": 157.03125,
                    "velocity": 0.1889763779527559,
                    "duration": 0.15625
                },
                {
                    "name": "E4",
                    "midi": 64,
                    "time": 157.1875,
                    "velocity": 0.1889763779527559,
                    "duration": 0.15625
                },
                {
                    "name": "B3",
                    "midi": 59,
                    "time": 157.1875,
                    "velocity": 0.1889763779527559,
                    "duration": 0.3125
                },
                {
                    "name": "E4",
                    "midi": 64,
                    "time": 157.1875,
                    "velocity": 0.1889763779527559,
                    "duration": 0.3125
                },
                {
                    "name": "D4",
                    "midi": 62,
                    "time": 157.34375,
                    "velocity": 0.1889763779527559,
                    "duration": 0.15625
                },
                {
                    "name": "C4",
                    "midi": 60,
                    "time": 157.5,
                    "velocity": 0.1889763779527559,
                    "duration": 0.15625
                },
                {
                    "name": "G4",
                    "midi": 67,
                    "time": 157.5,
                    "velocity": 0.1889763779527559,
                    "duration": 0.15625
                },
                {
                    "name": "B4",
                    "midi": 71,
                    "time": 157.65625,
                    "velocity": 0.18110236220472442,
                    "duration": 0.15625
                },
                {
                    "name": "C5",
                    "midi": 72,
                    "time": 157.8125,
                    "velocity": 0.18110236220472442,
                    "duration": 0.15625
                },
                {
                    "name": "G#4",
                    "midi": 68,
                    "time": 157.8125,
                    "velocity": 0.18110236220472442,
                    "duration": 0.3125
                },
                {
                    "name": "C5",
                    "midi": 72,
                    "time": 157.8125,
                    "velocity": 0.18110236220472442,
                    "duration": 0.3125
                },
                {
                    "name": "B4",
                    "midi": 71,
                    "time": 157.96875,
                    "velocity": 0.18110236220472442,
                    "duration": 0.15625
                },
                {
                    "name": "A4",
                    "midi": 69,
                    "time": 158.125,
                    "velocity": 0.1732283464566929,
                    "duration": 0.15625
                },
                {
                    "name": "A4",
                    "midi": 69,
                    "time": 158.125,
                    "velocity": 0.1732283464566929,
                    "duration": 0.3125
                },
                {
                    "name": "E5",
                    "midi": 76,
                    "time": 158.125,
                    "velocity": 0.1732283464566929,
                    "duration": 0.3125
                },
                {
                    "name": "G#4",
                    "midi": 68,
                    "time": 158.28125,
                    "velocity": 0.1732283464566929,
                    "duration": 0.15625
                },
                {
                    "name": "A4",
                    "midi": 69,
                    "time": 158.4375,
                    "velocity": 0.1732283464566929,
                    "duration": 0.15625
                },
                {
                    "name": "E4",
                    "midi": 64,
                    "time": 158.4375,
                    "velocity": 0.1732283464566929,
                    "duration": 0.3125
                },
                {
                    "name": "A4",
                    "midi": 69,
                    "time": 158.4375,
                    "velocity": 0.1732283464566929,
                    "duration": 0.3125
                },
                {
                    "name": "G4",
                    "midi": 67,
                    "time": 158.59375,
                    "velocity": 0.1732283464566929,
                    "duration": 0.15625
                },
                {
                    "name": "F4",
                    "midi": 65,
                    "time": 158.75,
                    "velocity": 0.16535433070866143,
                    "duration": 0.15625
                },
                {
                    "name": "F4",
                    "midi": 65,
                    "time": 158.75,
                    "velocity": 0.16535433070866143,
                    "duration": 0.3125
                },
                {
                    "name": "C5",
                    "midi": 72,
                    "time": 158.75,
                    "velocity": 0.16535433070866143,
                    "duration": 0.3125
                },
                {
                    "name": "E4",
                    "midi": 64,
                    "time": 158.90625,
                    "velocity": 0.16535433070866143,
                    "duration": 0.15625
                },
                {
                    "name": "F4",
                    "midi": 65,
                    "time": 159.0625,
                    "velocity": 0.16535433070866143,
                    "duration": 0.15625
                },
                {
                    "name": "C#4",
                    "midi": 61,
                    "time": 159.0625,
                    "velocity": 0.16535433070866143,
                    "duration": 0.3125
                },
                {
                    "name": "F4",
                    "midi": 65,
                    "time": 159.0625,
                    "velocity": 0.16535433070866143,
                    "duration": 0.3125
                },
                {
                    "name": "E4",
                    "midi": 64,
                    "time": 159.21875,
                    "velocity": 0.16535433070866143,
                    "duration": 0.15625
                },
                {
                    "name": "D4",
                    "midi": 62,
                    "time": 159.375,
                    "velocity": 0.15748031496062992,
                    "duration": 0.15625
                },
                {
                    "name": "D4",
                    "midi": 62,
                    "time": 159.375,
                    "velocity": 0.15748031496062992,
                    "duration": 0.3125
                },
                {
                    "name": "A4",
                    "midi": 69,
                    "time": 159.375,
                    "velocity": 0.15748031496062992,
                    "duration": 0.3125
                },
                {
                    "name": "C#4",
                    "midi": 61,
                    "time": 159.53125,
                    "velocity": 0.15748031496062992,
                    "duration": 0.15625
                },
                {
                    "name": "D4",
                    "midi": 62,
                    "time": 159.6875,
                    "velocity": 0.15748031496062992,
                    "duration": 0.15625
                },
                {
                    "name": "A#3",
                    "midi": 58,
                    "time": 159.6875,
                    "velocity": 0.15748031496062992,
                    "duration": 0.3125
                },
                {
                    "name": "D4",
                    "midi": 62,
                    "time": 159.6875,
                    "velocity": 0.15748031496062992,
                    "duration": 0.3125
                },
                {
                    "name": "C4",
                    "midi": 60,
                    "time": 159.84375,
                    "velocity": 0.15748031496062992,
                    "duration": 0.15625
                },
                {
                    "name": "B3",
                    "midi": 59,
                    "time": 160,
                    "velocity": 0.14960629921259844,
                    "duration": 0.15625
                },
                {
                    "name": "B3",
                    "midi": 59,
                    "time": 160,
                    "velocity": 0.14960629921259844,
                    "duration": 0.3125
                },
                {
                    "name": "F4",
                    "midi": 65,
                    "time": 160,
                    "velocity": 0.14960629921259844,
                    "duration": 0.3125
                },
                {
                    "name": "A#3",
                    "midi": 58,
                    "time": 160.15625,
                    "velocity": 0.14960629921259844,
                    "duration": 0.15625
                },
                {
                    "name": "B3",
                    "midi": 59,
                    "time": 160.3125,
                    "velocity": 0.14960629921259844,
                    "duration": 0.15625
                },
                {
                    "name": "F#3",
                    "midi": 54,
                    "time": 160.3125,
                    "velocity": 0.14960629921259844,
                    "duration": 0.3125
                },
                {
                    "name": "B3",
                    "midi": 59,
                    "time": 160.3125,
                    "velocity": 0.14960629921259844,
                    "duration": 0.3125
                },
                {
                    "name": "A3",
                    "midi": 57,
                    "time": 160.46875,
                    "velocity": 0.14173228346456693,
                    "duration": 0.15625
                },
                {
                    "name": "G3",
                    "midi": 55,
                    "time": 160.625,
                    "velocity": 0.14173228346456693,
                    "duration": 0.15625
                },
                {
                    "name": "G3",
                    "midi": 55,
                    "time": 160.625,
                    "velocity": 0.14173228346456693,
                    "duration": 0.3125
                },
                {
                    "name": "D4",
                    "midi": 62,
                    "time": 160.625,
                    "velocity": 0.14173228346456693,
                    "duration": 0.3125
                },
                {
                    "name": "F#3",
                    "midi": 54,
                    "time": 160.78125,
                    "velocity": 0.14173228346456693,
                    "duration": 0.15625
                },
                {
                    "name": "G3",
                    "midi": 55,
                    "time": 160.9375,
                    "velocity": 0.14173228346456693,
                    "duration": 0.15625
                },
                {
                    "name": "D#3",
                    "midi": 51,
                    "time": 160.9375,
                    "velocity": 0.14173228346456693,
                    "duration": 0.3125
                },
                {
                    "name": "G3",
                    "midi": 55,
                    "time": 160.9375,
                    "velocity": 0.14173228346456693,
                    "duration": 0.3125
                },
                {
                    "name": "F#3",
                    "midi": 54,
                    "time": 161.09375,
                    "velocity": 0.13385826771653545,
                    "duration": 0.15625
                },
                {
                    "name": "E3",
                    "midi": 52,
                    "time": 161.25,
                    "velocity": 0.13385826771653545,
                    "duration": 0.15625
                },
                {
                    "name": "E3",
                    "midi": 52,
                    "time": 161.25,
                    "velocity": 0.13385826771653545,
                    "duration": 0.3125
                },
                {
                    "name": "B3",
                    "midi": 59,
                    "time": 161.25,
                    "velocity": 0.13385826771653545,
                    "duration": 0.3125
                },
                {
                    "name": "D#3",
                    "midi": 51,
                    "time": 161.40625,
                    "velocity": 0.13385826771653545,
                    "duration": 0.15625
                },
                {
                    "name": "E3",
                    "midi": 52,
                    "time": 161.5625,
                    "velocity": 0.13385826771653545,
                    "duration": 0.15625
                },
                {
                    "name": "B2",
                    "midi": 47,
                    "time": 161.5625,
                    "velocity": 0.13385826771653545,
                    "duration": 0.3125
                },
                {
                    "name": "E3",
                    "midi": 52,
                    "time": 161.5625,
                    "velocity": 0.13385826771653545,
                    "duration": 0.3125
                },
                {
                    "name": "D3",
                    "midi": 50,
                    "time": 161.71875,
                    "velocity": 0.12598425196850394,
                    "duration": 0.15625
                },
                {
                    "name": "C3",
                    "midi": 48,
                    "time": 161.875,
                    "velocity": 0.12598425196850394,
                    "duration": 0.15625
                },
                {
                    "name": "C3",
                    "midi": 48,
                    "time": 161.875,
                    "velocity": 0.12598425196850394,
                    "duration": 0.3125
                },
                {
                    "name": "G3",
                    "midi": 55,
                    "time": 161.875,
                    "velocity": 0.12598425196850394,
                    "duration": 0.3125
                },
                {
                    "name": "B2",
                    "midi": 47,
                    "time": 162.03125,
                    "velocity": 0.12598425196850394,
                    "duration": 0.15625
                },
                {
                    "name": "C3",
                    "midi": 48,
                    "time": 162.1875,
                    "velocity": 0.12598425196850394,
                    "duration": 0.15625
                },
                {
                    "name": "E3",
                    "midi": 52,
                    "time": 162.1875,
                    "velocity": 0.12598425196850394,
                    "duration": 0.15625
                },
                {
                    "name": "B2",
                    "midi": 47,
                    "time": 162.34375,
                    "velocity": 0.11811023622047244,
                    "duration": 0.15625
                },
                {
                    "name": "D3",
                    "midi": 50,
                    "time": 162.34375,
                    "velocity": 0.11811023622047244,
                    "duration": 0.15625
                },
                {
                    "name": "A2",
                    "midi": 45,
                    "time": 162.5,
                    "velocity": 0.15748031496062992,
                    "duration": 0.15625
                },
                {
                    "name": "C3",
                    "midi": 48,
                    "time": 162.5,
                    "velocity": 0.15748031496062992,
                    "duration": 0.15625
                },
                {
                    "name": "B2",
                    "midi": 47,
                    "time": 162.65625,
                    "velocity": 0.1732283464566929,
                    "duration": 0.15625
                },
                {
                    "name": "D3",
                    "midi": 50,
                    "time": 162.65625,
                    "velocity": 0.1732283464566929,
                    "duration": 0.15625
                },
                {
                    "name": "C3",
                    "midi": 48,
                    "time": 162.8125,
                    "velocity": 0.1889763779527559,
                    "duration": 0.15625
                },
                {
                    "name": "E3",
                    "midi": 52,
                    "time": 162.8125,
                    "velocity": 0.1889763779527559,
                    "duration": 0.15625
                },
                {
                    "name": "D3",
                    "midi": 50,
                    "time": 162.96875,
                    "velocity": 0.2047244094488189,
                    "duration": 0.15625
                },
                {
                    "name": "F3",
                    "midi": 53,
                    "time": 162.96875,
                    "velocity": 0.2047244094488189,
                    "duration": 0.15625
                },
                {
                    "name": "E3",
                    "midi": 52,
                    "time": 163.125,
                    "velocity": 0.2204724409448819,
                    "duration": 0.15625
                },
                {
                    "name": "G3",
                    "midi": 55,
                    "time": 163.125,
                    "velocity": 0.2204724409448819,
                    "duration": 0.15625
                },
                {
                    "name": "F3",
                    "midi": 53,
                    "time": 163.28125,
                    "velocity": 0.2283464566929134,
                    "duration": 0.15625
                },
                {
                    "name": "A3",
                    "midi": 57,
                    "time": 163.28125,
                    "velocity": 0.2283464566929134,
                    "duration": 0.15625
                },
                {
                    "name": "G3",
                    "midi": 55,
                    "time": 163.4375,
                    "velocity": 0.2440944881889764,
                    "duration": 0.15625
                },
                {
                    "name": "B3",
                    "midi": 59,
                    "time": 163.4375,
                    "velocity": 0.2440944881889764,
                    "duration": 0.15625
                },
                {
                    "name": "A3",
                    "midi": 57,
                    "time": 163.59375,
                    "velocity": 0.25984251968503935,
                    "duration": 0.15625
                },
                {
                    "name": "C4",
                    "midi": 60,
                    "time": 163.59375,
                    "velocity": 0.25984251968503935,
                    "duration": 0.15625
                },
                {
                    "name": "B3",
                    "midi": 59,
                    "time": 163.75,
                    "velocity": 0.2755905511811024,
                    "duration": 0.15625
                },
                {
                    "name": "D4",
                    "midi": 62,
                    "time": 163.75,
                    "velocity": 0.2755905511811024,
                    "duration": 0.15625
                },
                {
                    "name": "C4",
                    "midi": 60,
                    "time": 163.90625,
                    "velocity": 0.29133858267716534,
                    "duration": 0.15625
                },
                {
                    "name": "E4",
                    "midi": 64,
                    "time": 163.90625,
                    "velocity": 0.29133858267716534,
                    "duration": 0.15625
                },
                {
                    "name": "D4",
                    "midi": 62,
                    "time": 164.0625,
                    "velocity": 0.30708661417322836,
                    "duration": 0.15625
                },
                {
                    "name": "F4",
                    "midi": 65,
                    "time": 164.0625,
                    "velocity": 0.30708661417322836,
                    "duration": 0.15625
                },
                {
                    "name": "E4",
                    "midi": 64,
                    "time": 164.21875,
                    "velocity": 0.3228346456692913,
                    "duration": 0.15625
                },
                {
                    "name": "G4",
                    "midi": 67,
                    "time": 164.21875,
                    "velocity": 0.3228346456692913,
                    "duration": 0.15625
                },
                {
                    "name": "F4",
                    "midi": 65,
                    "time": 164.375,
                    "velocity": 0.33858267716535434,
                    "duration": 0.15625
                },
                {
                    "name": "A4",
                    "midi": 69,
                    "time": 164.375,
                    "velocity": 0.33858267716535434,
                    "duration": 0.15625
                },
                {
                    "name": "G4",
                    "midi": 67,
                    "time": 164.53125,
                    "velocity": 0.3464566929133858,
                    "duration": 0.15625
                },
                {
                    "name": "B4",
                    "midi": 71,
                    "time": 164.53125,
                    "velocity": 0.3464566929133858,
                    "duration": 0.15625
                },
                {
                    "name": "A4",
                    "midi": 69,
                    "time": 164.6875,
                    "velocity": 0.36220472440944884,
                    "duration": 0.15625
                },
                {
                    "name": "C5",
                    "midi": 72,
                    "time": 164.6875,
                    "velocity": 0.36220472440944884,
                    "duration": 0.15625
                },
                {
                    "name": "B4",
                    "midi": 71,
                    "time": 164.84375,
                    "velocity": 0.3779527559055118,
                    "duration": 0.15625
                },
                {
                    "name": "D5",
                    "midi": 74,
                    "time": 164.84375,
                    "velocity": 0.3779527559055118,
                    "duration": 0.15625
                },
                {
                    "name": "C5",
                    "midi": 72,
                    "time": 165,
                    "velocity": 0.3937007874015748,
                    "duration": 0.15625
                },
                {
                    "name": "E5",
                    "midi": 76,
                    "time": 165,
                    "velocity": 0.3937007874015748,
                    "duration": 0.15625
                },
                {
                    "name": "D5",
                    "midi": 74,
                    "time": 165.15625,
                    "velocity": 0.4094488188976378,
                    "duration": 0.15625
                },
                {
                    "name": "F5",
                    "midi": 77,
                    "time": 165.15625,
                    "velocity": 0.4094488188976378,
                    "duration": 0.15625
                },
                {
                    "name": "E5",
                    "midi": 76,
                    "time": 165.3125,
                    "velocity": 0.4251968503937008,
                    "duration": 0.15625
                },
                {
                    "name": "G5",
                    "midi": 79,
                    "time": 165.3125,
                    "velocity": 0.4251968503937008,
                    "duration": 0.15625
                },
                {
                    "name": "D5",
                    "midi": 74,
                    "time": 165.46875,
                    "velocity": 0.4409448818897638,
                    "duration": 0.15625
                },
                {
                    "name": "G#5",
                    "midi": 80,
                    "time": 165.46875,
                    "velocity": 0.4409448818897638,
                    "duration": 0.15625
                },
                {
                    "name": "C#5",
                    "midi": 73,
                    "time": 165.625,
                    "velocity": 0.4566929133858268,
                    "duration": 0.15625
                },
                {
                    "name": "A5",
                    "midi": 81,
                    "time": 165.625,
                    "velocity": 0.4566929133858268,
                    "duration": 0.15625
                },
                {
                    "name": "A4",
                    "midi": 69,
                    "time": 165.78125,
                    "velocity": 0.4645669291338583,
                    "duration": 0.15625
                },
                {
                    "name": "G5",
                    "midi": 79,
                    "time": 165.78125,
                    "velocity": 0.4645669291338583,
                    "duration": 0.15625
                },
                {
                    "name": "D5",
                    "midi": 74,
                    "time": 165.9375,
                    "velocity": 0.48031496062992124,
                    "duration": 0.15625
                },
                {
                    "name": "F#5",
                    "midi": 78,
                    "time": 165.9375,
                    "velocity": 0.48031496062992124,
                    "duration": 0.15625
                },
                {
                    "name": "E5",
                    "midi": 76,
                    "time": 166.09375,
                    "velocity": 0.49606299212598426,
                    "duration": 0.15625
                },
                {
                    "name": "A#5",
                    "midi": 82,
                    "time": 166.09375,
                    "velocity": 0.49606299212598426,
                    "duration": 0.15625
                },
                {
                    "name": "D#5",
                    "midi": 75,
                    "time": 166.25,
                    "velocity": 0.5118110236220472,
                    "duration": 0.15625
                },
                {
                    "name": "B5",
                    "midi": 83,
                    "time": 166.25,
                    "velocity": 0.5118110236220472,
                    "duration": 0.15625
                },
                {
                    "name": "B4",
                    "midi": 71,
                    "time": 166.40625,
                    "velocity": 0.5275590551181102,
                    "duration": 0.15625
                },
                {
                    "name": "A5",
                    "midi": 81,
                    "time": 166.40625,
                    "velocity": 0.5275590551181102,
                    "duration": 0.15625
                },
                {
                    "name": "E5",
                    "midi": 76,
                    "time": 166.5625,
                    "velocity": 0.5433070866141733,
                    "duration": 0.15625
                },
                {
                    "name": "G5",
                    "midi": 79,
                    "time": 166.5625,
                    "velocity": 0.5433070866141733,
                    "duration": 0.15625
                },
                {
                    "name": "F5",
                    "midi": 77,
                    "time": 166.71875,
                    "velocity": 0.5590551181102362,
                    "duration": 0.15625
                },
                {
                    "name": "B5",
                    "midi": 83,
                    "time": 166.71875,
                    "velocity": 0.5590551181102362,
                    "duration": 0.15625
                },
                {
                    "name": "E5",
                    "midi": 76,
                    "time": 166.875,
                    "velocity": 0.5748031496062992,
                    "duration": 0.15625
                },
                {
                    "name": "C6",
                    "midi": 84,
                    "time": 166.875,
                    "velocity": 0.5748031496062992,
                    "duration": 0.15625
                },
                {
                    "name": "C5",
                    "midi": 72,
                    "time": 167.03125,
                    "velocity": 0.5826771653543307,
                    "duration": 0.15625
                },
                {
                    "name": "A#5",
                    "midi": 82,
                    "time": 167.03125,
                    "velocity": 0.5826771653543307,
                    "duration": 0.15625
                },
                {
                    "name": "F5",
                    "midi": 77,
                    "time": 167.1875,
                    "velocity": 0.5984251968503937,
                    "duration": 0.15625
                },
                {
                    "name": "A5",
                    "midi": 81,
                    "time": 167.1875,
                    "velocity": 0.5984251968503937,
                    "duration": 0.15625
                },
                {
                    "name": "G5",
                    "midi": 79,
                    "time": 167.34375,
                    "velocity": 0.6141732283464567,
                    "duration": 0.15625
                },
                {
                    "name": "C#6",
                    "midi": 85,
                    "time": 167.34375,
                    "velocity": 0.6141732283464567,
                    "duration": 0.15625
                },
                {
                    "name": "F#5",
                    "midi": 78,
                    "time": 167.5,
                    "velocity": 0.6299212598425197,
                    "duration": 0.15625
                },
                {
                    "name": "D6",
                    "midi": 86,
                    "time": 167.5,
                    "velocity": 0.6299212598425197,
                    "duration": 0.15625
                },
                {
                    "name": "D5",
                    "midi": 74,
                    "time": 167.65625,
                    "velocity": 0.6456692913385826,
                    "duration": 0.15625
                },
                {
                    "name": "C6",
                    "midi": 84,
                    "time": 167.65625,
                    "velocity": 0.6456692913385826,
                    "duration": 0.15625
                },
                {
                    "name": "G5",
                    "midi": 79,
                    "time": 167.8125,
                    "velocity": 0.6614173228346457,
                    "duration": 0.15625
                },
                {
                    "name": "B5",
                    "midi": 83,
                    "time": 167.8125,
                    "velocity": 0.6614173228346457,
                    "duration": 0.15625
                },
                {
                    "name": "A5",
                    "midi": 81,
                    "time": 167.96875,
                    "velocity": 0.6771653543307087,
                    "duration": 0.15625
                },
                {
                    "name": "D#6",
                    "midi": 87,
                    "time": 167.96875,
                    "velocity": 0.6771653543307087,
                    "duration": 0.15625
                },
                {
                    "name": "G#5",
                    "midi": 80,
                    "time": 168.125,
                    "velocity": 0.6929133858267716,
                    "duration": 0.15625
                },
                {
                    "name": "E6",
                    "midi": 88,
                    "time": 168.125,
                    "velocity": 0.6929133858267716,
                    "duration": 0.15625
                },
                {
                    "name": "E5",
                    "midi": 76,
                    "time": 168.28125,
                    "velocity": 0.7007874015748031,
                    "duration": 0.15625
                },
                {
                    "name": "D6",
                    "midi": 86,
                    "time": 168.28125,
                    "velocity": 0.7007874015748031,
                    "duration": 0.15625
                },
                {
                    "name": "A5",
                    "midi": 81,
                    "time": 168.4375,
                    "velocity": 0.7165354330708661,
                    "duration": 0.15625
                },
                {
                    "name": "C6",
                    "midi": 84,
                    "time": 168.4375,
                    "velocity": 0.7165354330708661,
                    "duration": 0.15625
                },
                {
                    "name": "G5",
                    "midi": 79,
                    "time": 168.59375,
                    "velocity": 0.7322834645669292,
                    "duration": 0.3125
                },
                {
                    "name": "C#6",
                    "midi": 85,
                    "time": 168.59375,
                    "velocity": 0.7322834645669292,
                    "duration": 0.15625
                },
                {
                    "name": "D6",
                    "midi": 86,
                    "time": 168.75,
                    "velocity": 0.7874015748031497,
                    "duration": 0.15625
                },
                {
                    "name": "G6",
                    "midi": 91,
                    "time": 168.90625,
                    "velocity": 0.7716535433070866,
                    "duration": 0.3125
                },
                {
                    "name": "A#5",
                    "midi": 82,
                    "time": 168.90625,
                    "velocity": 0.7716535433070866,
                    "duration": 0.15625
                },
                {
                    "name": "B5",
                    "midi": 83,
                    "time": 169.0625,
                    "velocity": 0.7480314960629921,
                    "duration": 0.15625
                },
                {
                    "name": "G6",
                    "midi": 91,
                    "time": 169.21875,
                    "velocity": 0.7322834645669292,
                    "duration": 0.3125
                },
                {
                    "name": "A#5",
                    "midi": 82,
                    "time": 169.21875,
                    "velocity": 0.7322834645669292,
                    "duration": 0.15625
                },
                {
                    "name": "B5",
                    "midi": 83,
                    "time": 169.375,
                    "velocity": 0.7165354330708661,
                    "duration": 0.15625
                },
                {
                    "name": "D6",
                    "midi": 86,
                    "time": 169.53125,
                    "velocity": 0.7007874015748031,
                    "duration": 0.3125
                },
                {
                    "name": "F#5",
                    "midi": 78,
                    "time": 169.53125,
                    "velocity": 0.7007874015748031,
                    "duration": 0.15625
                },
                {
                    "name": "G5",
                    "midi": 79,
                    "time": 169.6875,
                    "velocity": 0.6771653543307087,
                    "duration": 0.15625
                },
                {
                    "name": "D6",
                    "midi": 86,
                    "time": 169.84375,
                    "velocity": 0.6614173228346457,
                    "duration": 0.3125
                },
                {
                    "name": "F#5",
                    "midi": 78,
                    "time": 169.84375,
                    "velocity": 0.6614173228346457,
                    "duration": 0.15625
                },
                {
                    "name": "G5",
                    "midi": 79,
                    "time": 170,
                    "velocity": 0.6456692913385826,
                    "duration": 0.15625
                },
                {
                    "name": "F5",
                    "midi": 77,
                    "time": 170.15625,
                    "velocity": 0.6299212598425197,
                    "duration": 0.15625
                },
                {
                    "name": "B5",
                    "midi": 83,
                    "time": 170.15625,
                    "velocity": 0.6299212598425197,
                    "duration": 0.15625
                },
                {
                    "name": "E5",
                    "midi": 76,
                    "time": 170.3125,
                    "velocity": 0.6062992125984252,
                    "duration": 0.15625
                },
                {
                    "name": "C6",
                    "midi": 84,
                    "time": 170.3125,
                    "velocity": 0.6062992125984252,
                    "duration": 0.15625
                },
                {
                    "name": "D#5",
                    "midi": 75,
                    "time": 170.46875,
                    "velocity": 0.5905511811023622,
                    "duration": 0.15625
                },
                {
                    "name": "A5",
                    "midi": 81,
                    "time": 170.46875,
                    "velocity": 0.5905511811023622,
                    "duration": 0.15625
                },
                {
                    "name": "D5",
                    "midi": 74,
                    "time": 170.625,
                    "velocity": 0.5748031496062992,
                    "duration": 0.15625
                },
                {
                    "name": "B5",
                    "midi": 83,
                    "time": 170.625,
                    "velocity": 0.5748031496062992,
                    "duration": 0.15625
                },
                {
                    "name": "C5",
                    "midi": 72,
                    "time": 170.78125,
                    "velocity": 0.5590551181102362,
                    "duration": 0.15625
                },
                {
                    "name": "F#5",
                    "midi": 78,
                    "time": 170.78125,
                    "velocity": 0.5590551181102362,
                    "duration": 0.15625
                },
                {
                    "name": "B4",
                    "midi": 71,
                    "time": 170.9375,
                    "velocity": 0.5354330708661418,
                    "duration": 0.15625
                },
                {
                    "name": "G5",
                    "midi": 79,
                    "time": 170.9375,
                    "velocity": 0.5354330708661418,
                    "duration": 0.15625
                },
                {
                    "name": "A#4",
                    "midi": 70,
                    "time": 171.09375,
                    "velocity": 0.5196850393700787,
                    "duration": 0.15625
                },
                {
                    "name": "E5",
                    "midi": 76,
                    "time": 171.09375,
                    "velocity": 0.5196850393700787,
                    "duration": 0.15625
                },
                {
                    "name": "B4",
                    "midi": 71,
                    "time": 171.25,
                    "velocity": 0.5039370078740157,
                    "duration": 0.15625
                },
                {
                    "name": "D5",
                    "midi": 74,
                    "time": 171.25,
                    "velocity": 0.5039370078740157,
                    "duration": 0.15625
                },
                {
                    "name": "B4",
                    "midi": 71,
                    "time": 171.25,
                    "velocity": 0.5039370078740157,
                    "duration": 0.15625
                },
                {
                    "name": "G5",
                    "midi": 79,
                    "time": 171.40625,
                    "velocity": 0.49606299212598426,
                    "duration": 0.3125
                },
                {
                    "name": "A#4",
                    "midi": 70,
                    "time": 171.40625,
                    "velocity": 0.49606299212598426,
                    "duration": 0.15625
                },
                {
                    "name": "B4",
                    "midi": 71,
                    "time": 171.5625,
                    "velocity": 0.4881889763779528,
                    "duration": 0.15625
                },
                {
                    "name": "G5",
                    "midi": 79,
                    "time": 171.71875,
                    "velocity": 0.48031496062992124,
                    "duration": 0.3125
                },
                {
                    "name": "A#4",
                    "midi": 70,
                    "time": 171.71875,
                    "velocity": 0.48031496062992124,
                    "duration": 0.15625
                },
                {
                    "name": "B4",
                    "midi": 71,
                    "time": 171.875,
                    "velocity": 0.47244094488188976,
                    "duration": 0.15625
                },
                {
                    "name": "D5",
                    "midi": 74,
                    "time": 172.03125,
                    "velocity": 0.4645669291338583,
                    "duration": 0.3125
                },
                {
                    "name": "F#4",
                    "midi": 66,
                    "time": 172.03125,
                    "velocity": 0.4645669291338583,
                    "duration": 0.15625
                },
                {
                    "name": "G4",
                    "midi": 67,
                    "time": 172.1875,
                    "velocity": 0.4566929133858268,
                    "duration": 0.15625
                },
                {
                    "name": "D5",
                    "midi": 74,
                    "time": 172.34375,
                    "velocity": 0.44881889763779526,
                    "duration": 0.3125
                },
                {
                    "name": "F#4",
                    "midi": 66,
                    "time": 172.34375,
                    "velocity": 0.44881889763779526,
                    "duration": 0.15625
                },
                {
                    "name": "G4",
                    "midi": 67,
                    "time": 172.5,
                    "velocity": 0.4330708661417323,
                    "duration": 0.15625
                },
                {
                    "name": "F4",
                    "midi": 65,
                    "time": 172.65625,
                    "velocity": 0.4251968503937008,
                    "duration": 0.15625
                },
                {
                    "name": "B4",
                    "midi": 71,
                    "time": 172.65625,
                    "velocity": 0.4251968503937008,
                    "duration": 0.15625
                },
                {
                    "name": "E4",
                    "midi": 64,
                    "time": 172.8125,
                    "velocity": 0.41732283464566927,
                    "duration": 0.15625
                },
                {
                    "name": "C5",
                    "midi": 72,
                    "time": 172.8125,
                    "velocity": 0.41732283464566927,
                    "duration": 0.15625
                },
                {
                    "name": "D#4",
                    "midi": 63,
                    "time": 172.96875,
                    "velocity": 0.4094488188976378,
                    "duration": 0.15625
                },
                {
                    "name": "A4",
                    "midi": 69,
                    "time": 172.96875,
                    "velocity": 0.4094488188976378,
                    "duration": 0.15625
                },
                {
                    "name": "D4",
                    "midi": 62,
                    "time": 173.125,
                    "velocity": 0.4015748031496063,
                    "duration": 0.15625
                },
                {
                    "name": "B4",
                    "midi": 71,
                    "time": 173.125,
                    "velocity": 0.4015748031496063,
                    "duration": 0.15625
                },
                {
                    "name": "C4",
                    "midi": 60,
                    "time": 173.28125,
                    "velocity": 0.3937007874015748,
                    "duration": 0.15625
                },
                {
                    "name": "F#4",
                    "midi": 66,
                    "time": 173.28125,
                    "velocity": 0.3937007874015748,
                    "duration": 0.15625
                },
                {
                    "name": "B3",
                    "midi": 59,
                    "time": 173.4375,
                    "velocity": 0.3858267716535433,
                    "duration": 0.15625
                },
                {
                    "name": "G4",
                    "midi": 67,
                    "time": 173.4375,
                    "velocity": 0.3858267716535433,
                    "duration": 0.15625
                },
                {
                    "name": "D4",
                    "midi": 62,
                    "time": 173.59375,
                    "velocity": 0.3779527559055118,
                    "duration": 0.15625
                },
                {
                    "name": "G#4",
                    "midi": 68,
                    "time": 173.59375,
                    "velocity": 0.3779527559055118,
                    "duration": 0.15625
                },
                {
                    "name": "A4",
                    "midi": 69,
                    "time": 173.75,
                    "velocity": 0.3700787401574803,
                    "duration": 0.15625
                },
                {
                    "name": "G#4",
                    "midi": 68,
                    "time": 173.90625,
                    "velocity": 0.36220472440944884,
                    "duration": 0.15625
                },
                {
                    "name": "A4",
                    "midi": 69,
                    "time": 174.0625,
                    "velocity": 0.3543307086614173,
                    "duration": 0.15625
                },
                {
                    "name": "G4",
                    "midi": 67,
                    "time": 174.21875,
                    "velocity": 0.3464566929133858,
                    "duration": 0.15625
                },
                {
                    "name": "F#4",
                    "midi": 66,
                    "time": 174.375,
                    "velocity": 0.33858267716535434,
                    "duration": 0.15625
                },
                {
                    "name": "F4",
                    "midi": 65,
                    "time": 174.53125,
                    "velocity": 0.33070866141732286,
                    "duration": 0.15625
                },
                {
                    "name": "F#4",
                    "midi": 66,
                    "time": 174.6875,
                    "velocity": 0.3228346456692913,
                    "duration": 0.15625
                },
                {
                    "name": "E4",
                    "midi": 64,
                    "time": 174.84375,
                    "velocity": 0.31496062992125984,
                    "duration": 0.15625
                },
                {
                    "name": "C#4",
                    "midi": 61,
                    "time": 175,
                    "velocity": 0.2992125984251969,
                    "duration": 0.15625
                },
                {
                    "name": "D4",
                    "midi": 62,
                    "time": 175.15625,
                    "velocity": 0.29133858267716534,
                    "duration": 0.15625
                },
                {
                    "name": "E4",
                    "midi": 64,
                    "time": 175.3125,
                    "velocity": 0.28346456692913385,
                    "duration": 0.15625
                },
                {
                    "name": "F#4",
                    "midi": 66,
                    "time": 175.46875,
                    "velocity": 0.2755905511811024,
                    "duration": 0.15625
                },
                {
                    "name": "C#4",
                    "midi": 61,
                    "time": 175.625,
                    "velocity": 0.2677165354330709,
                    "duration": 0.15625
                },
                {
                    "name": "D4",
                    "midi": 62,
                    "time": 175.78125,
                    "velocity": 0.25984251968503935,
                    "duration": 0.15625
                },
                {
                    "name": "E4",
                    "midi": 64,
                    "time": 175.9375,
                    "velocity": 0.25196850393700787,
                    "duration": 0.15625
                },
                {
                    "name": "F#4",
                    "midi": 66,
                    "time": 176.09375,
                    "velocity": 0.2440944881889764,
                    "duration": 0.15625
                },
                {
                    "name": "G4",
                    "midi": 67,
                    "time": 176.25,
                    "velocity": 0.15748031496062992,
                    "duration": 0.15625
                },
                {
                    "name": "C#4",
                    "midi": 61,
                    "time": 176.40625,
                    "velocity": 0.15748031496062992,
                    "duration": 0.15625
                },
                {
                    "name": "D4",
                    "midi": 62,
                    "time": 176.5625,
                    "velocity": 0.15748031496062992,
                    "duration": 0.15625
                },
                {
                    "name": "C#4",
                    "midi": 61,
                    "time": 176.71875,
                    "velocity": 0.15748031496062992,
                    "duration": 0.15625
                },
                {
                    "name": "D4",
                    "midi": 62,
                    "time": 176.875,
                    "velocity": 0.15748031496062992,
                    "duration": 0.15625
                },
                {
                    "name": "C#4",
                    "midi": 61,
                    "time": 177.03125,
                    "velocity": 0.15748031496062992,
                    "duration": 0.15625
                },
                {
                    "name": "D4",
                    "midi": 62,
                    "time": 177.1875,
                    "velocity": 0.15748031496062992,
                    "duration": 0.15625
                },
                {
                    "name": "G4",
                    "midi": 67,
                    "time": 177.34375,
                    "velocity": 0.15748031496062992,
                    "duration": 0.15625
                },
                {
                    "name": "B4",
                    "midi": 71,
                    "time": 177.5,
                    "velocity": 0.15748031496062992,
                    "duration": 0.15625
                },
                {
                    "name": "D4",
                    "midi": 62,
                    "time": 177.5,
                    "velocity": 0.15748031496062992,
                    "duration": 1.25
                },
                {
                    "name": "A#4",
                    "midi": 70,
                    "time": 177.65625,
                    "velocity": 0.15748031496062992,
                    "duration": 0.15625
                },
                {
                    "name": "B4",
                    "midi": 71,
                    "time": 177.8125,
                    "velocity": 0.15748031496062992,
                    "duration": 0.15625
                },
                {
                    "name": "A#4",
                    "midi": 70,
                    "time": 177.96875,
                    "velocity": 0.15748031496062992,
                    "duration": 0.15625
                },
                {
                    "name": "B4",
                    "midi": 71,
                    "time": 178.125,
                    "velocity": 0.15748031496062992,
                    "duration": 0.15625
                },
                {
                    "name": "A#4",
                    "midi": 70,
                    "time": 178.28125,
                    "velocity": 0.15748031496062992,
                    "duration": 0.15625
                },
                {
                    "name": "B4",
                    "midi": 71,
                    "time": 178.4375,
                    "velocity": 0.15748031496062992,
                    "duration": 0.15625
                },
                {
                    "name": "G4",
                    "midi": 67,
                    "time": 178.59375,
                    "velocity": 0.15748031496062992,
                    "duration": 0.15625
                },
                {
                    "name": "C5",
                    "midi": 72,
                    "time": 178.75,
                    "velocity": 0.15748031496062992,
                    "duration": 0.15625
                },
                {
                    "name": "C4",
                    "midi": 60,
                    "time": 178.75,
                    "velocity": 0.15748031496062992,
                    "duration": 0.625
                },
                {
                    "name": "B4",
                    "midi": 71,
                    "time": 178.90625,
                    "velocity": 0.15748031496062992,
                    "duration": 0.15625
                },
                {
                    "name": "C5",
                    "midi": 72,
                    "time": 179.0625,
                    "velocity": 0.15748031496062992,
                    "duration": 0.15625
                },
                {
                    "name": "G4",
                    "midi": 67,
                    "time": 179.21875,
                    "velocity": 0.15748031496062992,
                    "duration": 0.15625
                },
                {
                    "name": "F#4",
                    "midi": 66,
                    "time": 179.375,
                    "velocity": 0.15748031496062992,
                    "duration": 0.15625
                },
                {
                    "name": "C4",
                    "midi": 60,
                    "time": 179.375,
                    "velocity": 0.15748031496062992,
                    "duration": 0.625
                },
                {
                    "name": "F4",
                    "midi": 65,
                    "time": 179.53125,
                    "velocity": 0.15748031496062992,
                    "duration": 0.15625
                },
                {
                    "name": "F#4",
                    "midi": 66,
                    "time": 179.6875,
                    "velocity": 0.15748031496062992,
                    "duration": 0.15625
                },
                {
                    "name": "A4",
                    "midi": 69,
                    "time": 179.84375,
                    "velocity": 0.15748031496062992,
                    "duration": 0.15625
                },
                {
                    "name": "G4",
                    "midi": 67,
                    "time": 180,
                    "velocity": 0.15748031496062992,
                    "duration": 0.3125
                },
                {
                    "name": "B3",
                    "midi": 59,
                    "time": 180,
                    "velocity": 0.15748031496062992,
                    "duration": 0.15625
                },
                {
                    "name": "A#3",
                    "midi": 58,
                    "time": 180.15625,
                    "velocity": 0.15748031496062992,
                    "duration": 0.15625
                },
                {
                    "name": "B3",
                    "midi": 59,
                    "time": 180.3125,
                    "velocity": 0.15748031496062992,
                    "duration": 0.15625
                },
                {
                    "name": "C4",
                    "midi": 60,
                    "time": 180.46875,
                    "velocity": 0.15748031496062992,
                    "duration": 0.15625
                },
                {
                    "name": "B3",
                    "midi": 59,
                    "time": 180.625,
                    "velocity": 0.15748031496062992,
                    "duration": 0.15625
                },
                {
                    "name": "A3",
                    "midi": 57,
                    "time": 180.78125,
                    "velocity": 0.15748031496062992,
                    "duration": 0.15625
                },
                {
                    "name": "G3",
                    "midi": 55,
                    "time": 180.9375,
                    "velocity": 0.15748031496062992,
                    "duration": 0.15625
                },
                {
                    "name": "B4",
                    "midi": 71,
                    "time": 181.25,
                    "velocity": 0.2755905511811024,
                    "duration": 0.625
                },
                {
                    "name": "B5",
                    "midi": 83,
                    "time": 181.25,
                    "velocity": 0.2755905511811024,
                    "duration": 0.625
                },
                {
                    "name": "G4",
                    "midi": 67,
                    "time": 181.875,
                    "velocity": 0.2755905511811024,
                    "duration": 0.46875
                },
                {
                    "name": "G5",
                    "midi": 79,
                    "time": 181.875,
                    "velocity": 0.2755905511811024,
                    "duration": 0.46875
                },
                {
                    "name": "E4",
                    "midi": 64,
                    "time": 182.34375,
                    "velocity": 0.2755905511811024,
                    "duration": 0.15625
                },
                {
                    "name": "E5",
                    "midi": 76,
                    "time": 182.34375,
                    "velocity": 0.2755905511811024,
                    "duration": 0.15625
                },
                {
                    "name": "D4",
                    "midi": 62,
                    "time": 182.5,
                    "velocity": 0.2755905511811024,
                    "duration": 1.09375
                },
                {
                    "name": "D5",
                    "midi": 74,
                    "time": 182.5,
                    "velocity": 0.2755905511811024,
                    "duration": 1.09375
                },
                {
                    "name": "B4",
                    "midi": 71,
                    "time": 183.59375,
                    "velocity": 0.2755905511811024,
                    "duration": 0.15625
                },
                {
                    "name": "B5",
                    "midi": 83,
                    "time": 183.59375,
                    "velocity": 0.2755905511811024,
                    "duration": 0.15625
                },
                {
                    "name": "A4",
                    "midi": 69,
                    "time": 183.75,
                    "velocity": 0.2755905511811024,
                    "duration": 0.46875
                },
                {
                    "name": "A5",
                    "midi": 81,
                    "time": 183.75,
                    "velocity": 0.2755905511811024,
                    "duration": 0.46875
                },
                {
                    "name": "D#4",
                    "midi": 63,
                    "time": 184.21875,
                    "velocity": 0.2755905511811024,
                    "duration": 0.15625
                },
                {
                    "name": "D#5",
                    "midi": 75,
                    "time": 184.21875,
                    "velocity": 0.2755905511811024,
                    "duration": 0.15625
                },
                {
                    "name": "D4",
                    "midi": 62,
                    "time": 184.375,
                    "velocity": 0.2755905511811024,
                    "duration": 0.46875
                },
                {
                    "name": "D5",
                    "midi": 74,
                    "time": 184.375,
                    "velocity": 0.2755905511811024,
                    "duration": 0.46875
                },
                {
                    "name": "C4",
                    "midi": 60,
                    "time": 184.84375,
                    "velocity": 0.2755905511811024,
                    "duration": 0.15625
                },
                {
                    "name": "F#4",
                    "midi": 66,
                    "time": 184.84375,
                    "velocity": 0.2755905511811024,
                    "duration": 0.15625
                },
                {
                    "name": "G4",
                    "midi": 67,
                    "time": 185,
                    "velocity": 0.2755905511811024,
                    "duration": 0.3125
                },
                {
                    "name": "B3",
                    "midi": 59,
                    "time": 185,
                    "velocity": 0.2755905511811024,
                    "duration": 0.15625
                },
                {
                    "name": "A#3",
                    "midi": 58,
                    "time": 185.15625,
                    "velocity": 0.25984251968503935,
                    "duration": 0.15625
                },
                {
                    "name": "B3",
                    "midi": 59,
                    "time": 185.3125,
                    "velocity": 0.2440944881889764,
                    "duration": 0.15625
                },
                {
                    "name": "C4",
                    "midi": 60,
                    "time": 185.46875,
                    "velocity": 0.2283464566929134,
                    "duration": 0.15625
                },
                {
                    "name": "B3",
                    "midi": 59,
                    "time": 185.625,
                    "velocity": 0.2125984251968504,
                    "duration": 0.15625
                },
                {
                    "name": "A#3",
                    "midi": 58,
                    "time": 185.78125,
                    "velocity": 0.2047244094488189,
                    "duration": 0.15625
                },
                {
                    "name": "B3",
                    "midi": 59,
                    "time": 185.9375,
                    "velocity": 0.1889763779527559,
                    "duration": 0.15625
                },
                {
                    "name": "B4",
                    "midi": 71,
                    "time": 186.40625,
                    "velocity": 0.14173228346456693,
                    "duration": 0.15625
                },
                {
                    "name": "B4",
                    "midi": 71,
                    "time": 186.40625,
                    "velocity": 0.14173228346456693,
                    "duration": 0.3125
                },
                {
                    "name": "E5",
                    "midi": 76,
                    "time": 186.5625,
                    "velocity": 0.14173228346456693,
                    "duration": 0.15625
                },
                {
                    "name": "A#4",
                    "midi": 70,
                    "time": 186.71875,
                    "velocity": 0.14173228346456693,
                    "duration": 0.15625
                },
                {
                    "name": "A#4",
                    "midi": 70,
                    "time": 186.71875,
                    "velocity": 0.14173228346456693,
                    "duration": 0.15625
                },
                {
                    "name": "A4",
                    "midi": 69,
                    "time": 186.875,
                    "velocity": 0.14173228346456693,
                    "duration": 0.15625
                },
                {
                    "name": "A4",
                    "midi": 69,
                    "time": 186.875,
                    "velocity": 0.14173228346456693,
                    "duration": 0.46875
                },
                {
                    "name": "D5",
                    "midi": 74,
                    "time": 187.03125,
                    "velocity": 0.14173228346456693,
                    "duration": 0.15625
                },
                {
                    "name": "F#5",
                    "midi": 78,
                    "time": 187.1875,
                    "velocity": 0.14173228346456693,
                    "duration": 0.15625
                },
                {
                    "name": "A4",
                    "midi": 69,
                    "time": 187.34375,
                    "velocity": 0.14173228346456693,
                    "duration": 0.15625
                },
                {
                    "name": "A4",
                    "midi": 69,
                    "time": 187.34375,
                    "velocity": 0.14173228346456693,
                    "duration": 0.15625
                },
                {
                    "name": "G4",
                    "midi": 67,
                    "time": 187.5,
                    "velocity": 0.14173228346456693,
                    "duration": 0.15625
                },
                {
                    "name": "G4",
                    "midi": 67,
                    "time": 187.5,
                    "velocity": 0.14173228346456693,
                    "duration": 0.3125
                },
                {
                    "name": "B4",
                    "midi": 71,
                    "time": 187.65625,
                    "velocity": 0.14173228346456693,
                    "duration": 0.15625
                },
                {
                    "name": "G4",
                    "midi": 67,
                    "time": 187.8125,
                    "velocity": 0.14173228346456693,
                    "duration": 0.15625
                },
                {
                    "name": "G4",
                    "midi": 67,
                    "time": 187.8125,
                    "velocity": 0.14173228346456693,
                    "duration": 0.3125
                },
                {
                    "name": "A4",
                    "midi": 69,
                    "time": 187.96875,
                    "velocity": 0.14173228346456693,
                    "duration": 0.78125
                },
                {
                    "name": "F#4",
                    "midi": 66,
                    "time": 188.125,
                    "velocity": 0.14173228346456693,
                    "duration": 0.625
                },
                {
                    "name": "E4",
                    "midi": 64,
                    "time": 188.90625,
                    "velocity": 0.14173228346456693,
                    "duration": 0.15625
                },
                {
                    "name": "E4",
                    "midi": 64,
                    "time": 188.90625,
                    "velocity": 0.14173228346456693,
                    "duration": 0.3125
                },
                {
                    "name": "A4",
                    "midi": 69,
                    "time": 189.0625,
                    "velocity": 0.14173228346456693,
                    "duration": 0.15625
                },
                {
                    "name": "D#4",
                    "midi": 63,
                    "time": 189.21875,
                    "velocity": 0.14173228346456693,
                    "duration": 0.15625
                },
                {
                    "name": "D#4",
                    "midi": 63,
                    "time": 189.21875,
                    "velocity": 0.14173228346456693,
                    "duration": 0.15625
                },
                {
                    "name": "D4",
                    "midi": 62,
                    "time": 189.375,
                    "velocity": 0.14173228346456693,
                    "duration": 0.15625
                },
                {
                    "name": "D4",
                    "midi": 62,
                    "time": 189.375,
                    "velocity": 0.14173228346456693,
                    "duration": 0.46875
                },
                {
                    "name": "G4",
                    "midi": 67,
                    "time": 189.53125,
                    "velocity": 0.14173228346456693,
                    "duration": 0.15625
                },
                {
                    "name": "B4",
                    "midi": 71,
                    "time": 189.6875,
                    "velocity": 0.14173228346456693,
                    "duration": 0.15625
                },
                {
                    "name": "D4",
                    "midi": 62,
                    "time": 189.84375,
                    "velocity": 0.14173228346456693,
                    "duration": 0.15625
                },
                {
                    "name": "D4",
                    "midi": 62,
                    "time": 189.84375,
                    "velocity": 0.14173228346456693,
                    "duration": 0.15625
                },
                {
                    "name": "C4",
                    "midi": 60,
                    "time": 190,
                    "velocity": 0.14173228346456693,
                    "duration": 0.15625
                },
                {
                    "name": "C4",
                    "midi": 60,
                    "time": 190,
                    "velocity": 0.14173228346456693,
                    "duration": 0.3125
                },
                {
                    "name": "E4",
                    "midi": 64,
                    "time": 190.15625,
                    "velocity": 0.14173228346456693,
                    "duration": 0.15625
                },
                {
                    "name": "C4",
                    "midi": 60,
                    "time": 190.3125,
                    "velocity": 0.14173228346456693,
                    "duration": 0.15625
                },
                {
                    "name": "C4",
                    "midi": 60,
                    "time": 190.3125,
                    "velocity": 0.14173228346456693,
                    "duration": 0.3125
                },
                {
                    "name": "D4",
                    "midi": 62,
                    "time": 190.46875,
                    "velocity": 0.14173228346456693,
                    "duration": 0.78125
                },
                {
                    "name": "B3",
                    "midi": 59,
                    "time": 190.625,
                    "velocity": 0.14173228346456693,
                    "duration": 0.625
                },
                {
                    "name": "B4",
                    "midi": 71,
                    "time": 191.40625,
                    "velocity": 0.14173228346456693,
                    "duration": 0.15625
                },
                {
                    "name": "B4",
                    "midi": 71,
                    "time": 191.40625,
                    "velocity": 0.14173228346456693,
                    "duration": 0.3125
                },
                {
                    "name": "E5",
                    "midi": 76,
                    "time": 191.5625,
                    "velocity": 0.14173228346456693,
                    "duration": 0.15625
                },
                {
                    "name": "B5",
                    "midi": 83,
                    "time": 191.5625,
                    "velocity": 0.14173228346456693,
                    "duration": 0.15625
                },
                {
                    "name": "A#4",
                    "midi": 70,
                    "time": 191.71875,
                    "velocity": 0.14173228346456693,
                    "duration": 0.15625
                },
                {
                    "name": "A#5",
                    "midi": 82,
                    "time": 191.71875,
                    "velocity": 0.14173228346456693,
                    "duration": 0.15625
                },
                {
                    "name": "A#4",
                    "midi": 70,
                    "time": 191.71875,
                    "velocity": 0.14173228346456693,
                    "duration": 0.15625
                },
                {
                    "name": "A4",
                    "midi": 69,
                    "time": 191.875,
                    "velocity": 0.14173228346456693,
                    "duration": 0.15625
                },
                {
                    "name": "A5",
                    "midi": 81,
                    "time": 191.875,
                    "velocity": 0.14173228346456693,
                    "duration": 0.15625
                },
                {
                    "name": "A4",
                    "midi": 69,
                    "time": 191.875,
                    "velocity": 0.14173228346456693,
                    "duration": 0.46875
                },
                {
                    "name": "D5",
                    "midi": 74,
                    "time": 192.03125,
                    "velocity": 0.14173228346456693,
                    "duration": 0.15625
                },
                {
                    "name": "F#5",
                    "midi": 78,
                    "time": 192.1875,
                    "velocity": 0.14173228346456693,
                    "duration": 0.15625
                },
                {
                    "name": "A4",
                    "midi": 69,
                    "time": 192.34375,
                    "velocity": 0.14173228346456693,
                    "duration": 0.15625
                },
                {
                    "name": "A4",
                    "midi": 69,
                    "time": 192.34375,
                    "velocity": 0.14173228346456693,
                    "duration": 0.15625
                },
                {
                    "name": "G4",
                    "midi": 67,
                    "time": 192.5,
                    "velocity": 0.14173228346456693,
                    "duration": 0.15625
                },
                {
                    "name": "G4",
                    "midi": 67,
                    "time": 192.5,
                    "velocity": 0.14173228346456693,
                    "duration": 0.3125
                },
                {
                    "name": "B4",
                    "midi": 71,
                    "time": 192.65625,
                    "velocity": 0.14173228346456693,
                    "duration": 0.15625
                },
                {
                    "name": "G4",
                    "midi": 67,
                    "time": 192.8125,
                    "velocity": 0.14173228346456693,
                    "duration": 0.15625
                },
                {
                    "name": "G4",
                    "midi": 67,
                    "time": 192.8125,
                    "velocity": 0.14173228346456693,
                    "duration": 0.3125
                },
                {
                    "name": "A4",
                    "midi": 69,
                    "time": 192.96875,
                    "velocity": 0.14173228346456693,
                    "duration": 0.78125
                },
                {
                    "name": "F#4",
                    "midi": 66,
                    "time": 193.125,
                    "velocity": 0.14173228346456693,
                    "duration": 0.625
                },
                {
                    "name": "E4",
                    "midi": 64,
                    "time": 193.90625,
                    "velocity": 0.14173228346456693,
                    "duration": 0.15625
                },
                {
                    "name": "E4",
                    "midi": 64,
                    "time": 193.90625,
                    "velocity": 0.14173228346456693,
                    "duration": 0.3125
                },
                {
                    "name": "A4",
                    "midi": 69,
                    "time": 194.0625,
                    "velocity": 0.14173228346456693,
                    "duration": 0.15625
                },
                {
                    "name": "E5",
                    "midi": 76,
                    "time": 194.0625,
                    "velocity": 0.14173228346456693,
                    "duration": 0.15625
                },
                {
                    "name": "D#4",
                    "midi": 63,
                    "time": 194.21875,
                    "velocity": 0.14173228346456693,
                    "duration": 0.15625
                },
                {
                    "name": "D#5",
                    "midi": 75,
                    "time": 194.21875,
                    "velocity": 0.14173228346456693,
                    "duration": 0.15625
                },
                {
                    "name": "D#4",
                    "midi": 63,
                    "time": 194.21875,
                    "velocity": 0.14173228346456693,
                    "duration": 0.15625
                },
                {
                    "name": "D4",
                    "midi": 62,
                    "time": 194.375,
                    "velocity": 0.14173228346456693,
                    "duration": 0.15625
                },
                {
                    "name": "D5",
                    "midi": 74,
                    "time": 194.375,
                    "velocity": 0.14173228346456693,
                    "duration": 0.15625
                },
                {
                    "name": "D4",
                    "midi": 62,
                    "time": 194.375,
                    "velocity": 0.14173228346456693,
                    "duration": 0.46875
                },
                {
                    "name": "G4",
                    "midi": 67,
                    "time": 194.53125,
                    "velocity": 0.14173228346456693,
                    "duration": 0.15625
                },
                {
                    "name": "B4",
                    "midi": 71,
                    "time": 194.6875,
                    "velocity": 0.14173228346456693,
                    "duration": 0.15625
                },
                {
                    "name": "D4",
                    "midi": 62,
                    "time": 194.84375,
                    "velocity": 0.14173228346456693,
                    "duration": 0.15625
                },
                {
                    "name": "D4",
                    "midi": 62,
                    "time": 194.84375,
                    "velocity": 0.14173228346456693,
                    "duration": 0.15625
                },
                {
                    "name": "A3",
                    "midi": 57,
                    "time": 195,
                    "velocity": 0.14173228346456693,
                    "duration": 0.15625
                },
                {
                    "name": "A3",
                    "midi": 57,
                    "time": 195,
                    "velocity": 0.14173228346456693,
                    "duration": 0.3125
                },
                {
                    "name": "E4",
                    "midi": 64,
                    "time": 195.15625,
                    "velocity": 0.14173228346456693,
                    "duration": 0.15625
                },
                {
                    "name": "A#3",
                    "midi": 58,
                    "time": 195.3125,
                    "velocity": 0.14173228346456693,
                    "duration": 0.15625
                },
                {
                    "name": "A#3",
                    "midi": 58,
                    "time": 195.3125,
                    "velocity": 0.14173228346456693,
                    "duration": 0.3125
                },
                {
                    "name": "E4",
                    "midi": 64,
                    "time": 195.46875,
                    "velocity": 0.14173228346456693,
                    "duration": 0.15625
                },
                {
                    "name": "B3",
                    "midi": 59,
                    "time": 195.625,
                    "velocity": 0.14173228346456693,
                    "duration": 0.15625
                },
                {
                    "name": "B3",
                    "midi": 59,
                    "time": 195.625,
                    "velocity": 0.14173228346456693,
                    "duration": 0.3125
                },
                {
                    "name": "D4",
                    "midi": 62,
                    "time": 195.78125,
                    "velocity": 0.14173228346456693,
                    "duration": 0.235595703125
                },
                {
                    "name": "C4",
                    "midi": 60,
                    "time": 196.09375,
                    "velocity": 0.5511811023622047,
                    "duration": 0.15625
                },
                {
                    "name": "F#4",
                    "midi": 66,
                    "time": 196.09375,
                    "velocity": 0.5511811023622047,
                    "duration": 0.15625
                },
                {
                    "name": "B3",
                    "midi": 59,
                    "time": 196.25,
                    "velocity": 0.5511811023622047,
                    "duration": 0.15625
                },
                {
                    "name": "G4",
                    "midi": 67,
                    "time": 196.25,
                    "velocity": 0.5511811023622047,
                    "duration": 0.15625
                },
                {
                    "name": "C4",
                    "midi": 60,
                    "time": 196.40625,
                    "velocity": 0.5511811023622047,
                    "duration": 0.15625
                },
                {
                    "name": "F#4",
                    "midi": 66,
                    "time": 196.40625,
                    "velocity": 0.5511811023622047,
                    "duration": 0.15625
                },
                {
                    "name": "B3",
                    "midi": 59,
                    "time": 196.5625,
                    "velocity": 0.5511811023622047,
                    "duration": 0.15625
                },
                {
                    "name": "G4",
                    "midi": 67,
                    "time": 196.5625,
                    "velocity": 0.5511811023622047,
                    "duration": 0.15625
                },
                {
                    "name": "D#4",
                    "midi": 63,
                    "time": 196.71875,
                    "velocity": 0.5511811023622047,
                    "duration": 0.15625
                },
                {
                    "name": "F#4",
                    "midi": 66,
                    "time": 196.71875,
                    "velocity": 0.5511811023622047,
                    "duration": 0.15625
                },
                {
                    "name": "D4",
                    "midi": 62,
                    "time": 196.875,
                    "velocity": 0.5511811023622047,
                    "duration": 0.15625
                },
                {
                    "name": "G4",
                    "midi": 67,
                    "time": 196.875,
                    "velocity": 0.5511811023622047,
                    "duration": 0.15625
                },
                {
                    "name": "C4",
                    "midi": 60,
                    "time": 197.03125,
                    "velocity": 0.5511811023622047,
                    "duration": 0.15625
                },
                {
                    "name": "F#4",
                    "midi": 66,
                    "time": 197.03125,
                    "velocity": 0.5511811023622047,
                    "duration": 0.15625
                },
                {
                    "name": "B3",
                    "midi": 59,
                    "time": 197.1875,
                    "velocity": 0.5511811023622047,
                    "duration": 0.15625
                },
                {
                    "name": "G4",
                    "midi": 67,
                    "time": 197.1875,
                    "velocity": 0.5511811023622047,
                    "duration": 0.15625
                },
                {
                    "name": "D4",
                    "midi": 62,
                    "time": 197.34375,
                    "velocity": 0.5511811023622047,
                    "duration": 0.15625
                },
                {
                    "name": "G#4",
                    "midi": 68,
                    "time": 197.34375,
                    "velocity": 0.5511811023622047,
                    "duration": 0.15625
                },
                {
                    "name": "C4",
                    "midi": 60,
                    "time": 197.5,
                    "velocity": 0.5511811023622047,
                    "duration": 0.15625
                },
                {
                    "name": "A4",
                    "midi": 69,
                    "time": 197.5,
                    "velocity": 0.5511811023622047,
                    "duration": 0.15625
                },
                {
                    "name": "D4",
                    "midi": 62,
                    "time": 197.65625,
                    "velocity": 0.5511811023622047,
                    "duration": 0.15625
                },
                {
                    "name": "G#4",
                    "midi": 68,
                    "time": 197.65625,
                    "velocity": 0.5511811023622047,
                    "duration": 0.15625
                },
                {
                    "name": "C4",
                    "midi": 60,
                    "time": 197.8125,
                    "velocity": 0.5511811023622047,
                    "duration": 0.15625
                },
                {
                    "name": "A4",
                    "midi": 69,
                    "time": 197.8125,
                    "velocity": 0.5511811023622047,
                    "duration": 0.15625
                },
                {
                    "name": "F4",
                    "midi": 65,
                    "time": 197.96875,
                    "velocity": 0.5511811023622047,
                    "duration": 0.15625
                },
                {
                    "name": "G#4",
                    "midi": 68,
                    "time": 197.96875,
                    "velocity": 0.5511811023622047,
                    "duration": 0.15625
                },
                {
                    "name": "E4",
                    "midi": 64,
                    "time": 198.125,
                    "velocity": 0.5511811023622047,
                    "duration": 0.15625
                },
                {
                    "name": "A4",
                    "midi": 69,
                    "time": 198.125,
                    "velocity": 0.5511811023622047,
                    "duration": 0.15625
                },
                {
                    "name": "D4",
                    "midi": 62,
                    "time": 198.28125,
                    "velocity": 0.5511811023622047,
                    "duration": 0.15625
                },
                {
                    "name": "G#4",
                    "midi": 68,
                    "time": 198.28125,
                    "velocity": 0.5511811023622047,
                    "duration": 0.15625
                },
                {
                    "name": "C4",
                    "midi": 60,
                    "time": 198.4375,
                    "velocity": 0.5511811023622047,
                    "duration": 0.15625
                },
                {
                    "name": "A4",
                    "midi": 69,
                    "time": 198.4375,
                    "velocity": 0.5511811023622047,
                    "duration": 0.15625
                },
                {
                    "name": "F4",
                    "midi": 65,
                    "time": 198.59375,
                    "velocity": 0.5511811023622047,
                    "duration": 0.15625
                },
                {
                    "name": "B4",
                    "midi": 71,
                    "time": 198.59375,
                    "velocity": 0.5511811023622047,
                    "duration": 0.15625
                },
                {
                    "name": "E4",
                    "midi": 64,
                    "time": 198.75,
                    "velocity": 0.5511811023622047,
                    "duration": 0.15625
                },
                {
                    "name": "C5",
                    "midi": 72,
                    "time": 198.75,
                    "velocity": 0.5511811023622047,
                    "duration": 0.15625
                },
                {
                    "name": "F4",
                    "midi": 65,
                    "time": 198.90625,
                    "velocity": 0.5511811023622047,
                    "duration": 0.15625
                },
                {
                    "name": "B4",
                    "midi": 71,
                    "time": 198.90625,
                    "velocity": 0.5511811023622047,
                    "duration": 0.15625
                },
                {
                    "name": "E4",
                    "midi": 64,
                    "time": 199.0625,
                    "velocity": 0.5511811023622047,
                    "duration": 0.15625
                },
                {
                    "name": "C5",
                    "midi": 72,
                    "time": 199.0625,
                    "velocity": 0.5511811023622047,
                    "duration": 0.15625
                },
                {
                    "name": "E4",
                    "midi": 64,
                    "time": 199.21875,
                    "velocity": 0.5511811023622047,
                    "duration": 0.15625
                },
                {
                    "name": "A#4",
                    "midi": 70,
                    "time": 199.21875,
                    "velocity": 0.5511811023622047,
                    "duration": 0.15625
                },
                {
                    "name": "D#4",
                    "midi": 63,
                    "time": 199.375,
                    "velocity": 0.5511811023622047,
                    "duration": 0.15625
                },
                {
                    "name": "B4",
                    "midi": 71,
                    "time": 199.375,
                    "velocity": 0.5511811023622047,
                    "duration": 0.15625
                },
                {
                    "name": "E4",
                    "midi": 64,
                    "time": 199.53125,
                    "velocity": 0.5511811023622047,
                    "duration": 0.15625
                },
                {
                    "name": "A#4",
                    "midi": 70,
                    "time": 199.53125,
                    "velocity": 0.5511811023622047,
                    "duration": 0.15625
                },
                {
                    "name": "D#4",
                    "midi": 63,
                    "time": 199.6875,
                    "velocity": 0.5511811023622047,
                    "duration": 0.15625
                },
                {
                    "name": "B4",
                    "midi": 71,
                    "time": 199.6875,
                    "velocity": 0.5511811023622047,
                    "duration": 0.15625
                },
                {
                    "name": "D4",
                    "midi": 62,
                    "time": 199.84375,
                    "velocity": 0.5511811023622047,
                    "duration": 0.15625
                },
                {
                    "name": "G#4",
                    "midi": 68,
                    "time": 199.84375,
                    "velocity": 0.5511811023622047,
                    "duration": 0.15625
                },
                {
                    "name": "C#4",
                    "midi": 61,
                    "time": 200,
                    "velocity": 0.5511811023622047,
                    "duration": 0.15625
                },
                {
                    "name": "A4",
                    "midi": 69,
                    "time": 200,
                    "velocity": 0.5511811023622047,
                    "duration": 0.15625
                },
                {
                    "name": "D4",
                    "midi": 62,
                    "time": 200.15625,
                    "velocity": 0.5511811023622047,
                    "duration": 0.15625
                },
                {
                    "name": "G#4",
                    "midi": 68,
                    "time": 200.15625,
                    "velocity": 0.5511811023622047,
                    "duration": 0.15625
                },
                {
                    "name": "C#4",
                    "midi": 61,
                    "time": 200.3125,
                    "velocity": 0.5511811023622047,
                    "duration": 0.15625
                },
                {
                    "name": "A4",
                    "midi": 69,
                    "time": 200.3125,
                    "velocity": 0.5511811023622047,
                    "duration": 0.15625
                },
                {
                    "name": "C4",
                    "midi": 60,
                    "time": 200.46875,
                    "velocity": 0.5511811023622047,
                    "duration": 0.15625
                },
                {
                    "name": "F#4",
                    "midi": 66,
                    "time": 200.46875,
                    "velocity": 0.5511811023622047,
                    "duration": 0.15625
                },
                {
                    "name": "B3",
                    "midi": 59,
                    "time": 200.625,
                    "velocity": 0.5511811023622047,
                    "duration": 0.15625
                },
                {
                    "name": "G4",
                    "midi": 67,
                    "time": 200.625,
                    "velocity": 0.5511811023622047,
                    "duration": 0.15625
                },
                {
                    "name": "C4",
                    "midi": 60,
                    "time": 200.78125,
                    "velocity": 0.5511811023622047,
                    "duration": 0.15625
                },
                {
                    "name": "F#4",
                    "midi": 66,
                    "time": 200.78125,
                    "velocity": 0.5511811023622047,
                    "duration": 0.15625
                },
                {
                    "name": "B3",
                    "midi": 59,
                    "time": 200.9375,
                    "velocity": 0.5511811023622047,
                    "duration": 0.15625
                },
                {
                    "name": "G4",
                    "midi": 67,
                    "time": 200.9375,
                    "velocity": 0.5511811023622047,
                    "duration": 0.15625
                },
                {
                    "name": "C5",
                    "midi": 72,
                    "time": 201.09375,
                    "velocity": 0.5511811023622047,
                    "duration": 0.15625
                },
                {
                    "name": "F#5",
                    "midi": 78,
                    "time": 201.09375,
                    "velocity": 0.5511811023622047,
                    "duration": 0.15625
                },
                {
                    "name": "B4",
                    "midi": 71,
                    "time": 201.25,
                    "velocity": 0.5511811023622047,
                    "duration": 0.15625
                },
                {
                    "name": "G5",
                    "midi": 79,
                    "time": 201.25,
                    "velocity": 0.5511811023622047,
                    "duration": 0.15625
                },
                {
                    "name": "C5",
                    "midi": 72,
                    "time": 201.40625,
                    "velocity": 0.5590551181102362,
                    "duration": 0.15625
                },
                {
                    "name": "F#5",
                    "midi": 78,
                    "time": 201.40625,
                    "velocity": 0.5590551181102362,
                    "duration": 0.15625
                },
                {
                    "name": "D5",
                    "midi": 74,
                    "time": 201.5625,
                    "velocity": 0.5590551181102362,
                    "duration": 0.15625
                },
                {
                    "name": "G5",
                    "midi": 79,
                    "time": 201.5625,
                    "velocity": 0.5590551181102362,
                    "duration": 0.15625
                },
                {
                    "name": "D#5",
                    "midi": 75,
                    "time": 201.71875,
                    "velocity": 0.5669291338582677,
                    "duration": 0.15625
                },
                {
                    "name": "F#5",
                    "midi": 78,
                    "time": 201.71875,
                    "velocity": 0.5669291338582677,
                    "duration": 0.15625
                },
                {
                    "name": "D5",
                    "midi": 74,
                    "time": 201.875,
                    "velocity": 0.5748031496062992,
                    "duration": 0.15625
                },
                {
                    "name": "G5",
                    "midi": 79,
                    "time": 201.875,
                    "velocity": 0.5748031496062992,
                    "duration": 0.15625
                },
                {
                    "name": "C5",
                    "midi": 72,
                    "time": 202.03125,
                    "velocity": 0.5748031496062992,
                    "duration": 0.15625
                },
                {
                    "name": "F#5",
                    "midi": 78,
                    "time": 202.03125,
                    "velocity": 0.5748031496062992,
                    "duration": 0.15625
                },
                {
                    "name": "B4",
                    "midi": 71,
                    "time": 202.1875,
                    "velocity": 0.5826771653543307,
                    "duration": 0.15625
                },
                {
                    "name": "G5",
                    "midi": 79,
                    "time": 202.1875,
                    "velocity": 0.5826771653543307,
                    "duration": 0.15625
                },
                {
                    "name": "D5",
                    "midi": 74,
                    "time": 202.34375,
                    "velocity": 0.5826771653543307,
                    "duration": 0.15625
                },
                {
                    "name": "G#5",
                    "midi": 80,
                    "time": 202.34375,
                    "velocity": 0.5826771653543307,
                    "duration": 0.15625
                },
                {
                    "name": "C5",
                    "midi": 72,
                    "time": 202.5,
                    "velocity": 0.5905511811023622,
                    "duration": 0.15625
                },
                {
                    "name": "A5",
                    "midi": 81,
                    "time": 202.5,
                    "velocity": 0.5905511811023622,
                    "duration": 0.15625
                },
                {
                    "name": "D5",
                    "midi": 74,
                    "time": 202.65625,
                    "velocity": 0.5984251968503937,
                    "duration": 0.15625
                },
                {
                    "name": "G#5",
                    "midi": 80,
                    "time": 202.65625,
                    "velocity": 0.5984251968503937,
                    "duration": 0.15625
                },
                {
                    "name": "E5",
                    "midi": 76,
                    "time": 202.8125,
                    "velocity": 0.5984251968503937,
                    "duration": 0.15625
                },
                {
                    "name": "A5",
                    "midi": 81,
                    "time": 202.8125,
                    "velocity": 0.5984251968503937,
                    "duration": 0.15625
                },
                {
                    "name": "F5",
                    "midi": 77,
                    "time": 202.96875,
                    "velocity": 0.6062992125984252,
                    "duration": 0.15625
                },
                {
                    "name": "G#5",
                    "midi": 80,
                    "time": 202.96875,
                    "velocity": 0.6062992125984252,
                    "duration": 0.15625
                },
                {
                    "name": "E5",
                    "midi": 76,
                    "time": 203.125,
                    "velocity": 0.6141732283464567,
                    "duration": 0.15625
                },
                {
                    "name": "A5",
                    "midi": 81,
                    "time": 203.125,
                    "velocity": 0.6141732283464567,
                    "duration": 0.15625
                },
                {
                    "name": "D5",
                    "midi": 74,
                    "time": 203.28125,
                    "velocity": 0.6141732283464567,
                    "duration": 0.15625
                },
                {
                    "name": "G#5",
                    "midi": 80,
                    "time": 203.28125,
                    "velocity": 0.6141732283464567,
                    "duration": 0.15625
                },
                {
                    "name": "C5",
                    "midi": 72,
                    "time": 203.4375,
                    "velocity": 0.6220472440944882,
                    "duration": 0.15625
                },
                {
                    "name": "A5",
                    "midi": 81,
                    "time": 203.4375,
                    "velocity": 0.6220472440944882,
                    "duration": 0.15625
                },
                {
                    "name": "F5",
                    "midi": 77,
                    "time": 203.59375,
                    "velocity": 0.6220472440944882,
                    "duration": 0.15625
                },
                {
                    "name": "B5",
                    "midi": 83,
                    "time": 203.59375,
                    "velocity": 0.6220472440944882,
                    "duration": 0.15625
                },
                {
                    "name": "E5",
                    "midi": 76,
                    "time": 203.75,
                    "velocity": 0.6299212598425197,
                    "duration": 0.15625
                },
                {
                    "name": "C6",
                    "midi": 84,
                    "time": 203.75,
                    "velocity": 0.6299212598425197,
                    "duration": 0.15625
                },
                {
                    "name": "F5",
                    "midi": 77,
                    "time": 203.90625,
                    "velocity": 0.6377952755905512,
                    "duration": 0.15625
                },
                {
                    "name": "B5",
                    "midi": 83,
                    "time": 203.90625,
                    "velocity": 0.6377952755905512,
                    "duration": 0.15625
                },
                {
                    "name": "E5",
                    "midi": 76,
                    "time": 204.0625,
                    "velocity": 0.6377952755905512,
                    "duration": 0.15625
                },
                {
                    "name": "C6",
                    "midi": 84,
                    "time": 204.0625,
                    "velocity": 0.6377952755905512,
                    "duration": 0.15625
                },
                {
                    "name": "E5",
                    "midi": 76,
                    "time": 204.21875,
                    "velocity": 0.6456692913385826,
                    "duration": 0.15625
                },
                {
                    "name": "A#5",
                    "midi": 82,
                    "time": 204.21875,
                    "velocity": 0.6456692913385826,
                    "duration": 0.15625
                },
                {
                    "name": "D#5",
                    "midi": 75,
                    "time": 204.375,
                    "velocity": 0.6535433070866141,
                    "duration": 0.15625
                },
                {
                    "name": "B5",
                    "midi": 83,
                    "time": 204.375,
                    "velocity": 0.6535433070866141,
                    "duration": 0.15625
                },
                {
                    "name": "E5",
                    "midi": 76,
                    "time": 204.53125,
                    "velocity": 0.6535433070866141,
                    "duration": 0.15625
                },
                {
                    "name": "A#5",
                    "midi": 82,
                    "time": 204.53125,
                    "velocity": 0.6535433070866141,
                    "duration": 0.15625
                },
                {
                    "name": "D#5",
                    "midi": 75,
                    "time": 204.6875,
                    "velocity": 0.6614173228346457,
                    "duration": 0.15625
                },
                {
                    "name": "B5",
                    "midi": 83,
                    "time": 204.6875,
                    "velocity": 0.6614173228346457,
                    "duration": 0.15625
                },
                {
                    "name": "D5",
                    "midi": 74,
                    "time": 204.84375,
                    "velocity": 0.6614173228346457,
                    "duration": 0.15625
                },
                {
                    "name": "G#5",
                    "midi": 80,
                    "time": 204.84375,
                    "velocity": 0.6614173228346457,
                    "duration": 0.15625
                },
                {
                    "name": "C#5",
                    "midi": 73,
                    "time": 205,
                    "velocity": 0.6692913385826772,
                    "duration": 0.15625
                },
                {
                    "name": "A5",
                    "midi": 81,
                    "time": 205,
                    "velocity": 0.6692913385826772,
                    "duration": 0.15625
                },
                {
                    "name": "D5",
                    "midi": 74,
                    "time": 205.15625,
                    "velocity": 0.6771653543307087,
                    "duration": 0.15625
                },
                {
                    "name": "G#5",
                    "midi": 80,
                    "time": 205.15625,
                    "velocity": 0.6771653543307087,
                    "duration": 0.15625
                },
                {
                    "name": "C#5",
                    "midi": 73,
                    "time": 205.3125,
                    "velocity": 0.6771653543307087,
                    "duration": 0.15625
                },
                {
                    "name": "A5",
                    "midi": 81,
                    "time": 205.3125,
                    "velocity": 0.6771653543307087,
                    "duration": 0.15625
                },
                {
                    "name": "C5",
                    "midi": 72,
                    "time": 205.46875,
                    "velocity": 0.6850393700787402,
                    "duration": 0.15625
                },
                {
                    "name": "F#5",
                    "midi": 78,
                    "time": 205.46875,
                    "velocity": 0.6850393700787402,
                    "duration": 0.15625
                },
                {
                    "name": "B4",
                    "midi": 71,
                    "time": 205.625,
                    "velocity": 0.6929133858267716,
                    "duration": 0.15625
                },
                {
                    "name": "G5",
                    "midi": 79,
                    "time": 205.625,
                    "velocity": 0.6929133858267716,
                    "duration": 0.15625
                },
                {
                    "name": "C5",
                    "midi": 72,
                    "time": 205.78125,
                    "velocity": 0.6929133858267716,
                    "duration": 0.15625
                },
                {
                    "name": "F#5",
                    "midi": 78,
                    "time": 205.78125,
                    "velocity": 0.6929133858267716,
                    "duration": 0.15625
                },
                {
                    "name": "B4",
                    "midi": 71,
                    "time": 205.9375,
                    "velocity": 0.7007874015748031,
                    "duration": 0.15625
                },
                {
                    "name": "G5",
                    "midi": 79,
                    "time": 205.9375,
                    "velocity": 0.7007874015748031,
                    "duration": 0.15625
                },
                {
                    "name": "A4",
                    "midi": 69,
                    "time": 206.09375,
                    "velocity": 1,
                    "duration": 0.3125
                },
                {
                    "name": "A5",
                    "midi": 81,
                    "time": 206.40625,
                    "velocity": 0.7086614173228346,
                    "duration": 0.15625
                },
                {
                    "name": "D5",
                    "midi": 74,
                    "time": 206.40625,
                    "velocity": 0.7086614173228346,
                    "duration": 0.3125
                },
                {
                    "name": "G#5",
                    "midi": 80,
                    "time": 206.5625,
                    "velocity": 0.7086614173228346,
                    "duration": 0.15625
                },
                {
                    "name": "D6",
                    "midi": 86,
                    "time": 206.71875,
                    "velocity": 0.7086614173228346,
                    "duration": 0.15625
                },
                {
                    "name": "G#5",
                    "midi": 80,
                    "time": 206.71875,
                    "velocity": 0.7086614173228346,
                    "duration": 0.15625
                },
                {
                    "name": "C#6",
                    "midi": 85,
                    "time": 206.875,
                    "velocity": 0.7086614173228346,
                    "duration": 0.15625
                },
                {
                    "name": "G5",
                    "midi": 79,
                    "time": 206.875,
                    "velocity": 0.7086614173228346,
                    "duration": 0.3125
                },
                {
                    "name": "A5",
                    "midi": 81,
                    "time": 207.03125,
                    "velocity": 0.7086614173228346,
                    "duration": 0.15625
                },
                {
                    "name": "E6",
                    "midi": 88,
                    "time": 207.1875,
                    "velocity": 0.7086614173228346,
                    "duration": 0.15625
                },
                {
                    "name": "C#5",
                    "midi": 73,
                    "time": 207.1875,
                    "velocity": 0.7086614173228346,
                    "duration": 0.15625
                },
                {
                    "name": "A4",
                    "midi": 69,
                    "time": 207.34375,
                    "velocity": 1,
                    "duration": 0.3125
                },
                {
                    "name": "A5",
                    "midi": 81,
                    "time": 207.65625,
                    "velocity": 0.7086614173228346,
                    "duration": 0.15625
                },
                {
                    "name": "D5",
                    "midi": 74,
                    "time": 207.65625,
                    "velocity": 0.7086614173228346,
                    "duration": 0.3125
                },
                {
                    "name": "G#5",
                    "midi": 80,
                    "time": 207.8125,
                    "velocity": 0.7086614173228346,
                    "duration": 0.15625
                },
                {
                    "name": "D6",
                    "midi": 86,
                    "time": 207.96875,
                    "velocity": 0.7086614173228346,
                    "duration": 0.15625
                },
                {
                    "name": "G#5",
                    "midi": 80,
                    "time": 207.96875,
                    "velocity": 0.7086614173228346,
                    "duration": 0.15625
                },
                {
                    "name": "C#6",
                    "midi": 85,
                    "time": 208.125,
                    "velocity": 0.7086614173228346,
                    "duration": 0.15625
                },
                {
                    "name": "G5",
                    "midi": 79,
                    "time": 208.125,
                    "velocity": 0.7086614173228346,
                    "duration": 0.3125
                },
                {
                    "name": "A5",
                    "midi": 81,
                    "time": 208.28125,
                    "velocity": 0.7086614173228346,
                    "duration": 0.15625
                },
                {
                    "name": "E6",
                    "midi": 88,
                    "time": 208.4375,
                    "velocity": 0.7086614173228346,
                    "duration": 0.15625
                },
                {
                    "name": "C#5",
                    "midi": 73,
                    "time": 208.4375,
                    "velocity": 0.7086614173228346,
                    "duration": 0.15625
                },
                {
                    "name": "A4",
                    "midi": 69,
                    "time": 208.59375,
                    "velocity": 0.7086614173228346,
                    "duration": 0.46875
                },
                {
                    "name": "D5",
                    "midi": 74,
                    "time": 208.90625,
                    "velocity": 0.7086614173228346,
                    "duration": 0.15625
                },
                {
                    "name": "A5",
                    "midi": 81,
                    "time": 208.90625,
                    "velocity": 0.7086614173228346,
                    "duration": 0.15625
                },
                {
                    "name": "G#5",
                    "midi": 80,
                    "time": 209.0625,
                    "velocity": 0.7086614173228346,
                    "duration": 0.15625
                },
                {
                    "name": "B4",
                    "midi": 71,
                    "time": 209.0625,
                    "velocity": 0.7086614173228346,
                    "duration": 0.15625
                },
                {
                    "name": "A#4",
                    "midi": 70,
                    "time": 209.21875,
                    "velocity": 0.7086614173228346,
                    "duration": 0.46875
                },
                {
                    "name": "C#5",
                    "midi": 73,
                    "time": 209.53125,
                    "velocity": 0.7086614173228346,
                    "duration": 0.15625
                },
                {
                    "name": "G5",
                    "midi": 79,
                    "time": 209.53125,
                    "velocity": 0.7086614173228346,
                    "duration": 0.15625
                },
                {
                    "name": "C5",
                    "midi": 72,
                    "time": 209.6875,
                    "velocity": 0.7086614173228346,
                    "duration": 0.15625
                },
                {
                    "name": "F#5",
                    "midi": 78,
                    "time": 209.6875,
                    "velocity": 0.7086614173228346,
                    "duration": 0.15625
                },
                {
                    "name": "A4",
                    "midi": 69,
                    "time": 209.6875,
                    "velocity": 0.7086614173228346,
                    "duration": 0.15625
                },
                {
                    "name": "G#4",
                    "midi": 68,
                    "time": 209.84375,
                    "velocity": 0.7086614173228346,
                    "duration": 0.46875
                },
                {
                    "name": "B4",
                    "midi": 71,
                    "time": 210.15625,
                    "velocity": 0.7086614173228346,
                    "duration": 0.15625
                },
                {
                    "name": "F5",
                    "midi": 77,
                    "time": 210.15625,
                    "velocity": 0.7086614173228346,
                    "duration": 0.15625
                },
                {
                    "name": "A#4",
                    "midi": 70,
                    "time": 210.3125,
                    "velocity": 0.7086614173228346,
                    "duration": 0.15625
                },
                {
                    "name": "E5",
                    "midi": 76,
                    "time": 210.3125,
                    "velocity": 0.7086614173228346,
                    "duration": 0.15625
                },
                {
                    "name": "G4",
                    "midi": 67,
                    "time": 210.3125,
                    "velocity": 0.7086614173228346,
                    "duration": 0.15625
                },
                {
                    "name": "F#4",
                    "midi": 66,
                    "time": 210.46875,
                    "velocity": 0.7086614173228346,
                    "duration": 0.3125
                },
                {
                    "name": "D#5",
                    "midi": 75,
                    "time": 210.78125,
                    "velocity": 0.7086614173228346,
                    "duration": 0.15625
                },
                {
                    "name": "A4",
                    "midi": 69,
                    "time": 210.78125,
                    "velocity": 0.7086614173228346,
                    "duration": 0.15625
                },
                {
                    "name": "D5",
                    "midi": 74,
                    "time": 210.9375,
                    "velocity": 0.7086614173228346,
                    "duration": 0.15625
                },
                {
                    "name": "F#4",
                    "midi": 66,
                    "time": 210.9375,
                    "velocity": 0.7086614173228346,
                    "duration": 0.15625
                },
                {
                    "name": "D4",
                    "midi": 62,
                    "time": 211.09375,
                    "velocity": 1,
                    "duration": 0.3125
                },
                {
                    "name": "D5",
                    "midi": 74,
                    "time": 211.40625,
                    "velocity": 0.7086614173228346,
                    "duration": 0.15625
                },
                {
                    "name": "G4",
                    "midi": 67,
                    "time": 211.40625,
                    "velocity": 0.7086614173228346,
                    "duration": 0.3125
                },
                {
                    "name": "C#5",
                    "midi": 73,
                    "time": 211.5625,
                    "velocity": 0.7086614173228346,
                    "duration": 0.15625
                },
                {
                    "name": "G5",
                    "midi": 79,
                    "time": 211.71875,
                    "velocity": 0.7086614173228346,
                    "duration": 0.15625
                },
                {
                    "name": "C#5",
                    "midi": 73,
                    "time": 211.71875,
                    "velocity": 0.7086614173228346,
                    "duration": 0.15625
                },
                {
                    "name": "F#5",
                    "midi": 78,
                    "time": 211.875,
                    "velocity": 0.7086614173228346,
                    "duration": 0.15625
                },
                {
                    "name": "C5",
                    "midi": 72,
                    "time": 211.875,
                    "velocity": 0.7086614173228346,
                    "duration": 0.3125
                },
                {
                    "name": "D5",
                    "midi": 74,
                    "time": 212.03125,
                    "velocity": 0.7086614173228346,
                    "duration": 0.15625
                },
                {
                    "name": "A5",
                    "midi": 81,
                    "time": 212.1875,
                    "velocity": 0.7086614173228346,
                    "duration": 0.15625
                },
                {
                    "name": "F#4",
                    "midi": 66,
                    "time": 212.1875,
                    "velocity": 0.7086614173228346,
                    "duration": 0.15625
                },
                {
                    "name": "D4",
                    "midi": 62,
                    "time": 212.34375,
                    "velocity": 1,
                    "duration": 0.3125
                },
                {
                    "name": "D5",
                    "midi": 74,
                    "time": 212.65625,
                    "velocity": 0.7086614173228346,
                    "duration": 0.15625
                },
                {
                    "name": "G4",
                    "midi": 67,
                    "time": 212.65625,
                    "velocity": 0.7086614173228346,
                    "duration": 0.3125
                },
                {
                    "name": "C#5",
                    "midi": 73,
                    "time": 212.8125,
                    "velocity": 0.7086614173228346,
                    "duration": 0.15625
                },
                {
                    "name": "G5",
                    "midi": 79,
                    "time": 212.96875,
                    "velocity": 0.7086614173228346,
                    "duration": 0.15625
                },
                {
                    "name": "C#5",
                    "midi": 73,
                    "time": 212.96875,
                    "velocity": 0.7086614173228346,
                    "duration": 0.15625
                },
                {
                    "name": "F#5",
                    "midi": 78,
                    "time": 213.125,
                    "velocity": 0.7086614173228346,
                    "duration": 0.15625
                },
                {
                    "name": "C5",
                    "midi": 72,
                    "time": 213.125,
                    "velocity": 0.7086614173228346,
                    "duration": 0.3125
                },
                {
                    "name": "D5",
                    "midi": 74,
                    "time": 213.28125,
                    "velocity": 0.7086614173228346,
                    "duration": 0.15625
                },
                {
                    "name": "A5",
                    "midi": 81,
                    "time": 213.4375,
                    "velocity": 0.7086614173228346,
                    "duration": 0.15625
                },
                {
                    "name": "F#4",
                    "midi": 66,
                    "time": 213.4375,
                    "velocity": 0.7086614173228346,
                    "duration": 0.15625
                },
                {
                    "name": "D4",
                    "midi": 62,
                    "time": 213.59375,
                    "velocity": 0.7086614173228346,
                    "duration": 0.3125
                },
                {
                    "name": "D5",
                    "midi": 74,
                    "time": 213.90625,
                    "velocity": 0.7086614173228346,
                    "duration": 0.15625
                },
                {
                    "name": "G4",
                    "midi": 67,
                    "time": 213.90625,
                    "velocity": 0.7086614173228346,
                    "duration": 0.15625
                },
                {
                    "name": "D#5",
                    "midi": 75,
                    "time": 214.0625,
                    "velocity": 0.7086614173228346,
                    "duration": 0.15625
                },
                {
                    "name": "G4",
                    "midi": 67,
                    "time": 214.0625,
                    "velocity": 0.7086614173228346,
                    "duration": 0.15625
                },
                {
                    "name": "D#5",
                    "midi": 75,
                    "time": 214.21875,
                    "velocity": 0.7086614173228346,
                    "duration": 0.15625
                },
                {
                    "name": "A4",
                    "midi": 69,
                    "time": 214.21875,
                    "velocity": 0.7086614173228346,
                    "duration": 0.15625
                },
                {
                    "name": "D5",
                    "midi": 74,
                    "time": 214.375,
                    "velocity": 0.7086614173228346,
                    "duration": 0.15625
                },
                {
                    "name": "A#4",
                    "midi": 70,
                    "time": 214.375,
                    "velocity": 0.7086614173228346,
                    "duration": 0.3125
                },
                {
                    "name": "F4",
                    "midi": 65,
                    "time": 214.53125,
                    "velocity": 0.7086614173228346,
                    "duration": 0.15625
                },
                {
                    "name": "F5",
                    "midi": 77,
                    "time": 214.6875,
                    "velocity": 0.7086614173228346,
                    "duration": 0.15625
                },
                {
                    "name": "D5",
                    "midi": 74,
                    "time": 214.6875,
                    "velocity": 0.7086614173228346,
                    "duration": 0.15625
                },
                {
                    "name": "D4",
                    "midi": 62,
                    "time": 214.84375,
                    "velocity": 0.7086614173228346,
                    "duration": 0.3125
                },
                {
                    "name": "D5",
                    "midi": 74,
                    "time": 215.15625,
                    "velocity": 0.7086614173228346,
                    "duration": 0.15625
                },
                {
                    "name": "A#4",
                    "midi": 70,
                    "time": 215.15625,
                    "velocity": 0.7086614173228346,
                    "duration": 0.15625
                },
                {
                    "name": "D#5",
                    "midi": 75,
                    "time": 215.3125,
                    "velocity": 0.7086614173228346,
                    "duration": 0.15625
                },
                {
                    "name": "A#4",
                    "midi": 70,
                    "time": 215.3125,
                    "velocity": 0.7086614173228346,
                    "duration": 0.15625
                },
                {
                    "name": "D#5",
                    "midi": 75,
                    "time": 215.46875,
                    "velocity": 0.7086614173228346,
                    "duration": 0.15625
                },
                {
                    "name": "A4",
                    "midi": 69,
                    "time": 215.46875,
                    "velocity": 0.7086614173228346,
                    "duration": 0.15625
                },
                {
                    "name": "D5",
                    "midi": 74,
                    "time": 215.625,
                    "velocity": 0.7086614173228346,
                    "duration": 0.15625
                },
                {
                    "name": "A#4",
                    "midi": 70,
                    "time": 215.625,
                    "velocity": 0.7086614173228346,
                    "duration": 0.3125
                },
                {
                    "name": "F4",
                    "midi": 65,
                    "time": 215.78125,
                    "velocity": 0.7086614173228346,
                    "duration": 0.15625
                },
                {
                    "name": "F5",
                    "midi": 77,
                    "time": 215.9375,
                    "velocity": 0.7086614173228346,
                    "duration": 0.15625
                },
                {
                    "name": "D5",
                    "midi": 74,
                    "time": 215.9375,
                    "velocity": 0.7086614173228346,
                    "duration": 0.15625
                },
                {
                    "name": "D4",
                    "midi": 62,
                    "time": 216.09375,
                    "velocity": 0.7086614173228346,
                    "duration": 0.3125
                },
                {
                    "name": "G#4",
                    "midi": 68,
                    "time": 216.40625,
                    "velocity": 0.6929133858267716,
                    "duration": 0.3125
                },
                {
                    "name": "D5",
                    "midi": 74,
                    "time": 216.40625,
                    "velocity": 0.6929133858267716,
                    "duration": 0.15625
                },
                {
                    "name": "D4",
                    "midi": 62,
                    "time": 216.40625,
                    "velocity": 0.6929133858267716,
                    "duration": 0.15625
                },
                {
                    "name": "D#5",
                    "midi": 75,
                    "time": 216.5625,
                    "velocity": 0.6850393700787402,
                    "duration": 0.15625
                },
                {
                    "name": "D#4",
                    "midi": 63,
                    "time": 216.5625,
                    "velocity": 0.6850393700787402,
                    "duration": 0.15625
                },
                {
                    "name": "E4",
                    "midi": 64,
                    "time": 216.71875,
                    "velocity": 0.6692913385826772,
                    "duration": 0.3125
                },
                {
                    "name": "G#4",
                    "midi": 68,
                    "time": 217.03125,
                    "velocity": 0.6456692913385826,
                    "duration": 0.3125
                },
                {
                    "name": "E5",
                    "midi": 76,
                    "time": 217.03125,
                    "velocity": 0.6456692913385826,
                    "duration": 0.15625
                },
                {
                    "name": "E4",
                    "midi": 64,
                    "time": 217.03125,
                    "velocity": 0.6456692913385826,
                    "duration": 0.15625
                },
                {
                    "name": "F5",
                    "midi": 77,
                    "time": 217.1875,
                    "velocity": 0.6377952755905512,
                    "duration": 0.15625
                },
                {
                    "name": "F4",
                    "midi": 65,
                    "time": 217.1875,
                    "velocity": 0.6377952755905512,
                    "duration": 0.15625
                },
                {
                    "name": "C#5",
                    "midi": 73,
                    "time": 217.34375,
                    "velocity": 0.6220472440944882,
                    "duration": 0.625
                },
                {
                    "name": "G4",
                    "midi": 67,
                    "time": 217.65625,
                    "velocity": 0.5984251968503937,
                    "duration": 0.15625
                },
                {
                    "name": "G5",
                    "midi": 79,
                    "time": 217.65625,
                    "velocity": 0.5984251968503937,
                    "duration": 0.15625
                },
                {
                    "name": "G#4",
                    "midi": 68,
                    "time": 217.8125,
                    "velocity": 0.5826771653543307,
                    "duration": 0.15625
                },
                {
                    "name": "G#5",
                    "midi": 80,
                    "time": 217.8125,
                    "velocity": 0.5826771653543307,
                    "duration": 0.15625
                },
                {
                    "name": "C#5",
                    "midi": 73,
                    "time": 217.96875,
                    "velocity": 0.5748031496062992,
                    "duration": 0.15625
                },
                {
                    "name": "C#5",
                    "midi": 73,
                    "time": 218.125,
                    "velocity": 0.5590551181102362,
                    "duration": 0.46875
                },
                {
                    "name": "A4",
                    "midi": 69,
                    "time": 218.28125,
                    "velocity": 0.5511811023622047,
                    "duration": 0.15625
                },
                {
                    "name": "A5",
                    "midi": 81,
                    "time": 218.28125,
                    "velocity": 0.5511811023622047,
                    "duration": 0.15625
                },
                {
                    "name": "A#4",
                    "midi": 70,
                    "time": 218.4375,
                    "velocity": 0.5354330708661418,
                    "duration": 0.15625
                },
                {
                    "name": "A#5",
                    "midi": 82,
                    "time": 218.4375,
                    "velocity": 0.5354330708661418,
                    "duration": 0.15625
                },
                {
                    "name": "C#4",
                    "midi": 61,
                    "time": 218.59375,
                    "velocity": 0.5275590551181102,
                    "duration": 0.3125
                },
                {
                    "name": "C#4",
                    "midi": 61,
                    "time": 218.90625,
                    "velocity": 0.49606299212598426,
                    "duration": 0.15625
                },
                {
                    "name": "C#5",
                    "midi": 73,
                    "time": 218.90625,
                    "velocity": 0.49606299212598426,
                    "duration": 0.15625
                },
                {
                    "name": "G4",
                    "midi": 67,
                    "time": 218.90625,
                    "velocity": 0.49606299212598426,
                    "duration": 0.3125
                },
                {
                    "name": "D4",
                    "midi": 62,
                    "time": 219.0625,
                    "velocity": 0.4881889763779528,
                    "duration": 0.15625
                },
                {
                    "name": "D5",
                    "midi": 74,
                    "time": 219.0625,
                    "velocity": 0.4881889763779528,
                    "duration": 0.15625
                },
                {
                    "name": "D#4",
                    "midi": 63,
                    "time": 219.21875,
                    "velocity": 0.47244094488188976,
                    "duration": 0.3125
                },
                {
                    "name": "D#4",
                    "midi": 63,
                    "time": 219.53125,
                    "velocity": 0.44881889763779526,
                    "duration": 0.15625
                },
                {
                    "name": "D#5",
                    "midi": 75,
                    "time": 219.53125,
                    "velocity": 0.44881889763779526,
                    "duration": 0.15625
                },
                {
                    "name": "G4",
                    "midi": 67,
                    "time": 219.53125,
                    "velocity": 0.44881889763779526,
                    "duration": 0.3125
                },
                {
                    "name": "E4",
                    "midi": 64,
                    "time": 219.6875,
                    "velocity": 0.4409448818897638,
                    "duration": 0.15625
                },
                {
                    "name": "E5",
                    "midi": 76,
                    "time": 219.6875,
                    "velocity": 0.4409448818897638,
                    "duration": 0.15625
                },
                {
                    "name": "C5",
                    "midi": 72,
                    "time": 219.84375,
                    "velocity": 0.4251968503937008,
                    "duration": 0.625
                },
                {
                    "name": "F#4",
                    "midi": 66,
                    "time": 220.15625,
                    "velocity": 0.4015748031496063,
                    "duration": 0.15625
                },
                {
                    "name": "F#5",
                    "midi": 78,
                    "time": 220.15625,
                    "velocity": 0.4015748031496063,
                    "duration": 0.15625
                },
                {
                    "name": "G4",
                    "midi": 67,
                    "time": 220.3125,
                    "velocity": 0.3858267716535433,
                    "duration": 0.15625
                },
                {
                    "name": "G5",
                    "midi": 79,
                    "time": 220.3125,
                    "velocity": 0.3858267716535433,
                    "duration": 0.15625
                },
                {
                    "name": "C5",
                    "midi": 72,
                    "time": 220.46875,
                    "velocity": 0.3779527559055118,
                    "duration": 0.625
                },
                {
                    "name": "G#4",
                    "midi": 68,
                    "time": 220.78125,
                    "velocity": 0.3543307086614173,
                    "duration": 0.15625
                },
                {
                    "name": "G#5",
                    "midi": 80,
                    "time": 220.78125,
                    "velocity": 0.3543307086614173,
                    "duration": 0.15625
                },
                {
                    "name": "A4",
                    "midi": 69,
                    "time": 220.9375,
                    "velocity": 0.33858267716535434,
                    "duration": 0.15625
                },
                {
                    "name": "A5",
                    "midi": 81,
                    "time": 220.9375,
                    "velocity": 0.33858267716535434,
                    "duration": 0.15625
                },
                {
                    "name": "B4",
                    "midi": 71,
                    "time": 221.09375,
                    "velocity": 0.33070866141732286,
                    "duration": 0.3125
                },
                {
                    "name": "B5",
                    "midi": 83,
                    "time": 221.25,
                    "velocity": 0.31496062992125984,
                    "duration": 0.625
                },
                {
                    "name": "A#4",
                    "midi": 70,
                    "time": 221.40625,
                    "velocity": 0.15748031496062992,
                    "duration": 0.15625
                },
                {
                    "name": "B4",
                    "midi": 71,
                    "time": 221.5625,
                    "velocity": 0.15748031496062992,
                    "duration": 0.15625
                },
                {
                    "name": "A#4",
                    "midi": 70,
                    "time": 221.71875,
                    "velocity": 0.15748031496062992,
                    "duration": 0.15625
                },
                {
                    "name": "G5",
                    "midi": 79,
                    "time": 221.875,
                    "velocity": 0.31496062992125984,
                    "duration": 0.46875
                },
                {
                    "name": "B4",
                    "midi": 71,
                    "time": 221.875,
                    "velocity": 0.15748031496062992,
                    "duration": 0.15625
                },
                {
                    "name": "A#4",
                    "midi": 70,
                    "time": 222.03125,
                    "velocity": 0.15748031496062992,
                    "duration": 0.15625
                },
                {
                    "name": "B4",
                    "midi": 71,
                    "time": 222.1875,
                    "velocity": 0.15748031496062992,
                    "duration": 0.15625
                },
                {
                    "name": "E5",
                    "midi": 76,
                    "time": 222.34375,
                    "velocity": 0.31496062992125984,
                    "duration": 0.15625
                },
                {
                    "name": "C5",
                    "midi": 72,
                    "time": 222.34375,
                    "velocity": 0.15748031496062992,
                    "duration": 0.15625
                },
                {
                    "name": "D5",
                    "midi": 74,
                    "time": 222.5,
                    "velocity": 0.31496062992125984,
                    "duration": 0.46875
                },
                {
                    "name": "B4",
                    "midi": 71,
                    "time": 222.5,
                    "velocity": 0.15748031496062992,
                    "duration": 0.15625
                },
                {
                    "name": "A#4",
                    "midi": 70,
                    "time": 222.65625,
                    "velocity": 0.15748031496062992,
                    "duration": 0.15625
                },
                {
                    "name": "B4",
                    "midi": 71,
                    "time": 222.8125,
                    "velocity": 0.15748031496062992,
                    "duration": 0.15625
                },
                {
                    "name": "B5",
                    "midi": 83,
                    "time": 222.96875,
                    "velocity": 0.31496062992125984,
                    "duration": 0.15625
                },
                {
                    "name": "D5",
                    "midi": 74,
                    "time": 222.96875,
                    "velocity": 0.15748031496062992,
                    "duration": 0.15625
                },
                {
                    "name": "C5",
                    "midi": 72,
                    "time": 223.125,
                    "velocity": 0.31496062992125984,
                    "duration": 0.15625
                },
                {
                    "name": "C5",
                    "midi": 72,
                    "time": 223.125,
                    "velocity": 0.15748031496062992,
                    "duration": 0.46875
                },
                {
                    "name": "B4",
                    "midi": 71,
                    "time": 223.28125,
                    "velocity": 0.15748031496062992,
                    "duration": 0.15625
                },
                {
                    "name": "C5",
                    "midi": 72,
                    "time": 223.4375,
                    "velocity": 0.15748031496062992,
                    "duration": 0.15625
                },
                {
                    "name": "A5",
                    "midi": 81,
                    "time": 223.59375,
                    "velocity": 0.31496062992125984,
                    "duration": 0.15625
                },
                {
                    "name": "D5",
                    "midi": 74,
                    "time": 223.59375,
                    "velocity": 0.15748031496062992,
                    "duration": 0.15625
                },
                {
                    "name": "B5",
                    "midi": 83,
                    "time": 223.75,
                    "velocity": 0.31496062992125984,
                    "duration": 0.625
                },
                {
                    "name": "B4",
                    "midi": 71,
                    "time": 223.75,
                    "velocity": 0.15748031496062992,
                    "duration": 0.15625
                },
                {
                    "name": "A#4",
                    "midi": 70,
                    "time": 223.90625,
                    "velocity": 0.15748031496062992,
                    "duration": 0.15625
                },
                {
                    "name": "B4",
                    "midi": 71,
                    "time": 224.0625,
                    "velocity": 0.15748031496062992,
                    "duration": 0.15625
                },
                {
                    "name": "A#4",
                    "midi": 70,
                    "time": 224.21875,
                    "velocity": 0.15748031496062992,
                    "duration": 0.15625
                },
                {
                    "name": "G5",
                    "midi": 79,
                    "time": 224.375,
                    "velocity": 0.31496062992125984,
                    "duration": 0.46875
                },
                {
                    "name": "B4",
                    "midi": 71,
                    "time": 224.375,
                    "velocity": 0.15748031496062992,
                    "duration": 0.15625
                },
                {
                    "name": "A#4",
                    "midi": 70,
                    "time": 224.53125,
                    "velocity": 0.15748031496062992,
                    "duration": 0.15625
                },
                {
                    "name": "B4",
                    "midi": 71,
                    "time": 224.6875,
                    "velocity": 0.15748031496062992,
                    "duration": 0.15625
                },
                {
                    "name": "E5",
                    "midi": 76,
                    "time": 224.84375,
                    "velocity": 0.31496062992125984,
                    "duration": 0.15625
                },
                {
                    "name": "C5",
                    "midi": 72,
                    "time": 224.84375,
                    "velocity": 0.15748031496062992,
                    "duration": 0.15625
                },
                {
                    "name": "D5",
                    "midi": 74,
                    "time": 225,
                    "velocity": 0.31496062992125984,
                    "duration": 0.46875
                },
                {
                    "name": "B4",
                    "midi": 71,
                    "time": 225,
                    "velocity": 0.15748031496062992,
                    "duration": 0.15625
                },
                {
                    "name": "A#4",
                    "midi": 70,
                    "time": 225.15625,
                    "velocity": 0.15748031496062992,
                    "duration": 0.15625
                },
                {
                    "name": "B4",
                    "midi": 71,
                    "time": 225.3125,
                    "velocity": 0.15748031496062992,
                    "duration": 0.15625
                },
                {
                    "name": "B5",
                    "midi": 83,
                    "time": 225.46875,
                    "velocity": 0.31496062992125984,
                    "duration": 0.15625
                },
                {
                    "name": "D5",
                    "midi": 74,
                    "time": 225.46875,
                    "velocity": 0.15748031496062992,
                    "duration": 0.15625
                },
                {
                    "name": "C5",
                    "midi": 72,
                    "time": 225.625,
                    "velocity": 0.31496062992125984,
                    "duration": 0.15625
                },
                {
                    "name": "C5",
                    "midi": 72,
                    "time": 225.625,
                    "velocity": 0.15748031496062992,
                    "duration": 0.46875
                },
                {
                    "name": "B4",
                    "midi": 71,
                    "time": 225.78125,
                    "velocity": 0.15748031496062992,
                    "duration": 0.15625
                },
                {
                    "name": "C5",
                    "midi": 72,
                    "time": 225.9375,
                    "velocity": 0.15748031496062992,
                    "duration": 0.15625
                },
                {
                    "name": "A5",
                    "midi": 81,
                    "time": 226.09375,
                    "velocity": 0.31496062992125984,
                    "duration": 0.15625
                },
                {
                    "name": "D5",
                    "midi": 74,
                    "time": 226.09375,
                    "velocity": 0.15748031496062992,
                    "duration": 0.15625
                },
                {
                    "name": "B4",
                    "midi": 71,
                    "time": 226.25,
                    "velocity": 0.23622047244094488,
                    "duration": 0.15625
                },
                {
                    "name": "B5",
                    "midi": 83,
                    "time": 226.25,
                    "velocity": 0.23622047244094488,
                    "duration": 0.15625
                },
                {
                    "name": "E5",
                    "midi": 76,
                    "time": 226.40625,
                    "velocity": 0.23622047244094488,
                    "duration": 0.15625
                },
                {
                    "name": "A#5",
                    "midi": 82,
                    "time": 226.40625,
                    "velocity": 0.23622047244094488,
                    "duration": 0.15625
                },
                {
                    "name": "D5",
                    "midi": 74,
                    "time": 226.5625,
                    "velocity": 0.2283464566929134,
                    "duration": 0.15625
                },
                {
                    "name": "B5",
                    "midi": 83,
                    "time": 226.5625,
                    "velocity": 0.2283464566929134,
                    "duration": 0.15625
                },
                {
                    "name": "C5",
                    "midi": 72,
                    "time": 226.71875,
                    "velocity": 0.2283464566929134,
                    "duration": 0.15625
                },
                {
                    "name": "F#5",
                    "midi": 78,
                    "time": 226.71875,
                    "velocity": 0.2283464566929134,
                    "duration": 0.15625
                },
                {
                    "name": "B4",
                    "midi": 71,
                    "time": 226.875,
                    "velocity": 0.2283464566929134,
                    "duration": 0.15625
                },
                {
                    "name": "G5",
                    "midi": 79,
                    "time": 226.875,
                    "velocity": 0.2283464566929134,
                    "duration": 0.15625
                },
                {
                    "name": "C5",
                    "midi": 72,
                    "time": 227.03125,
                    "velocity": 0.2204724409448819,
                    "duration": 0.15625
                },
                {
                    "name": "F#5",
                    "midi": 78,
                    "time": 227.03125,
                    "velocity": 0.2204724409448819,
                    "duration": 0.15625
                },
                {
                    "name": "B4",
                    "midi": 71,
                    "time": 227.1875,
                    "velocity": 0.2204724409448819,
                    "duration": 0.15625
                },
                {
                    "name": "G5",
                    "midi": 79,
                    "time": 227.1875,
                    "velocity": 0.2204724409448819,
                    "duration": 0.15625
                },
                {
                    "name": "A4",
                    "midi": 69,
                    "time": 227.34375,
                    "velocity": 0.2204724409448819,
                    "duration": 0.15625
                },
                {
                    "name": "D#5",
                    "midi": 75,
                    "time": 227.34375,
                    "velocity": 0.2204724409448819,
                    "duration": 0.15625
                },
                {
                    "name": "G4",
                    "midi": 67,
                    "time": 227.5,
                    "velocity": 0.2125984251968504,
                    "duration": 0.15625
                },
                {
                    "name": "E5",
                    "midi": 76,
                    "time": 227.5,
                    "velocity": 0.2125984251968504,
                    "duration": 0.15625
                },
                {
                    "name": "A4",
                    "midi": 69,
                    "time": 227.65625,
                    "velocity": 0.2125984251968504,
                    "duration": 0.15625
                },
                {
                    "name": "D#5",
                    "midi": 75,
                    "time": 227.65625,
                    "velocity": 0.2125984251968504,
                    "duration": 0.15625
                },
                {
                    "name": "G4",
                    "midi": 67,
                    "time": 227.8125,
                    "velocity": 0.2125984251968504,
                    "duration": 0.15625
                },
                {
                    "name": "E5",
                    "midi": 76,
                    "time": 227.8125,
                    "velocity": 0.2125984251968504,
                    "duration": 0.15625
                },
                {
                    "name": "F4",
                    "midi": 65,
                    "time": 227.96875,
                    "velocity": 0.2125984251968504,
                    "duration": 0.15625
                },
                {
                    "name": "B4",
                    "midi": 71,
                    "time": 227.96875,
                    "velocity": 0.2125984251968504,
                    "duration": 0.15625
                },
                {
                    "name": "E4",
                    "midi": 64,
                    "time": 228.125,
                    "velocity": 0.2047244094488189,
                    "duration": 0.15625
                },
                {
                    "name": "C5",
                    "midi": 72,
                    "time": 228.125,
                    "velocity": 0.2047244094488189,
                    "duration": 0.15625
                },
                {
                    "name": "F4",
                    "midi": 65,
                    "time": 228.28125,
                    "velocity": 0.2047244094488189,
                    "duration": 0.15625
                },
                {
                    "name": "B4",
                    "midi": 71,
                    "time": 228.28125,
                    "velocity": 0.2047244094488189,
                    "duration": 0.15625
                },
                {
                    "name": "E4",
                    "midi": 64,
                    "time": 228.4375,
                    "velocity": 0.2047244094488189,
                    "duration": 0.15625
                },
                {
                    "name": "C5",
                    "midi": 72,
                    "time": 228.4375,
                    "velocity": 0.2047244094488189,
                    "duration": 0.15625
                },
                {
                    "name": "D#4",
                    "midi": 63,
                    "time": 228.59375,
                    "velocity": 0.1968503937007874,
                    "duration": 0.15625
                },
                {
                    "name": "A4",
                    "midi": 69,
                    "time": 228.59375,
                    "velocity": 0.1968503937007874,
                    "duration": 0.15625
                },
                {
                    "name": "D4",
                    "midi": 62,
                    "time": 228.75,
                    "velocity": 0.1968503937007874,
                    "duration": 0.15625
                },
                {
                    "name": "B4",
                    "midi": 71,
                    "time": 228.75,
                    "velocity": 0.1968503937007874,
                    "duration": 0.15625
                },
                {
                    "name": "D#4",
                    "midi": 63,
                    "time": 228.90625,
                    "velocity": 0.1968503937007874,
                    "duration": 0.15625
                },
                {
                    "name": "A4",
                    "midi": 69,
                    "time": 228.90625,
                    "velocity": 0.1968503937007874,
                    "duration": 0.15625
                },
                {
                    "name": "D4",
                    "midi": 62,
                    "time": 229.0625,
                    "velocity": 0.1889763779527559,
                    "duration": 0.15625
                },
                {
                    "name": "B4",
                    "midi": 71,
                    "time": 229.0625,
                    "velocity": 0.1889763779527559,
                    "duration": 0.15625
                },
                {
                    "name": "C4",
                    "midi": 60,
                    "time": 229.21875,
                    "velocity": 0.1889763779527559,
                    "duration": 0.15625
                },
                {
                    "name": "F#4",
                    "midi": 66,
                    "time": 229.21875,
                    "velocity": 0.1889763779527559,
                    "duration": 0.15625
                },
                {
                    "name": "B3",
                    "midi": 59,
                    "time": 229.375,
                    "velocity": 0.1889763779527559,
                    "duration": 0.15625
                },
                {
                    "name": "G4",
                    "midi": 67,
                    "time": 229.375,
                    "velocity": 0.1889763779527559,
                    "duration": 0.15625
                },
                {
                    "name": "C4",
                    "midi": 60,
                    "time": 229.53125,
                    "velocity": 0.18110236220472442,
                    "duration": 0.15625
                },
                {
                    "name": "F#4",
                    "midi": 66,
                    "time": 229.53125,
                    "velocity": 0.18110236220472442,
                    "duration": 0.15625
                },
                {
                    "name": "B3",
                    "midi": 59,
                    "time": 229.6875,
                    "velocity": 0.18110236220472442,
                    "duration": 0.15625
                },
                {
                    "name": "G4",
                    "midi": 67,
                    "time": 229.6875,
                    "velocity": 0.18110236220472442,
                    "duration": 0.15625
                },
                {
                    "name": "A3",
                    "midi": 57,
                    "time": 229.84375,
                    "velocity": 0.18110236220472442,
                    "duration": 0.15625
                },
                {
                    "name": "D#4",
                    "midi": 63,
                    "time": 229.84375,
                    "velocity": 0.18110236220472442,
                    "duration": 0.15625
                },
                {
                    "name": "G3",
                    "midi": 55,
                    "time": 230,
                    "velocity": 0.1732283464566929,
                    "duration": 0.15625
                },
                {
                    "name": "E4",
                    "midi": 64,
                    "time": 230,
                    "velocity": 0.1732283464566929,
                    "duration": 0.15625
                },
                {
                    "name": "A3",
                    "midi": 57,
                    "time": 230.15625,
                    "velocity": 0.1732283464566929,
                    "duration": 0.15625
                },
                {
                    "name": "D#4",
                    "midi": 63,
                    "time": 230.15625,
                    "velocity": 0.1732283464566929,
                    "duration": 0.15625
                },
                {
                    "name": "G3",
                    "midi": 55,
                    "time": 230.3125,
                    "velocity": 0.1732283464566929,
                    "duration": 0.15625
                },
                {
                    "name": "E4",
                    "midi": 64,
                    "time": 230.3125,
                    "velocity": 0.1732283464566929,
                    "duration": 0.15625
                },
                {
                    "name": "F3",
                    "midi": 53,
                    "time": 230.46875,
                    "velocity": 0.1732283464566929,
                    "duration": 0.15625
                },
                {
                    "name": "B3",
                    "midi": 59,
                    "time": 230.46875,
                    "velocity": 0.1732283464566929,
                    "duration": 0.15625
                },
                {
                    "name": "E3",
                    "midi": 52,
                    "time": 230.625,
                    "velocity": 0.16535433070866143,
                    "duration": 0.15625
                },
                {
                    "name": "C4",
                    "midi": 60,
                    "time": 230.625,
                    "velocity": 0.16535433070866143,
                    "duration": 0.15625
                },
                {
                    "name": "F3",
                    "midi": 53,
                    "time": 230.78125,
                    "velocity": 0.16535433070866143,
                    "duration": 0.15625
                },
                {
                    "name": "B3",
                    "midi": 59,
                    "time": 230.78125,
                    "velocity": 0.16535433070866143,
                    "duration": 0.15625
                },
                {
                    "name": "E3",
                    "midi": 52,
                    "time": 230.9375,
                    "velocity": 0.16535433070866143,
                    "duration": 0.15625
                },
                {
                    "name": "C4",
                    "midi": 60,
                    "time": 230.9375,
                    "velocity": 0.16535433070866143,
                    "duration": 0.15625
                },
                {
                    "name": "C4",
                    "midi": 60,
                    "time": 231.09375,
                    "velocity": 0.15748031496062992,
                    "duration": 0.15625
                },
                {
                    "name": "F#4",
                    "midi": 66,
                    "time": 231.09375,
                    "velocity": 0.15748031496062992,
                    "duration": 0.15625
                },
                {
                    "name": "G4",
                    "midi": 67,
                    "time": 231.25,
                    "velocity": 0.2047244094488189,
                    "duration": 0.625
                },
                {
                    "name": "B3",
                    "midi": 59,
                    "time": 231.25,
                    "velocity": 0.11811023622047244,
                    "duration": 0.15625
                },
                {
                    "name": "A#3",
                    "midi": 58,
                    "time": 231.40625,
                    "velocity": 0.11811023622047244,
                    "duration": 0.15625
                },
                {
                    "name": "B3",
                    "midi": 59,
                    "time": 231.5625,
                    "velocity": 0.11811023622047244,
                    "duration": 0.15625
                },
                {
                    "name": "A#3",
                    "midi": 58,
                    "time": 231.71875,
                    "velocity": 0.11811023622047244,
                    "duration": 0.15625
                },
                {
                    "name": "F#4",
                    "midi": 66,
                    "time": 231.875,
                    "velocity": 0.2047244094488189,
                    "duration": 0.46875
                },
                {
                    "name": "B3",
                    "midi": 59,
                    "time": 231.875,
                    "velocity": 0.11811023622047244,
                    "duration": 0.15625
                },
                {
                    "name": "A#3",
                    "midi": 58,
                    "time": 232.03125,
                    "velocity": 0.11811023622047244,
                    "duration": 0.15625
                },
                {
                    "name": "B3",
                    "midi": 59,
                    "time": 232.1875,
                    "velocity": 0.11811023622047244,
                    "duration": 0.15625
                },
                {
                    "name": "E4",
                    "midi": 64,
                    "time": 232.34375,
                    "velocity": 0.2047244094488189,
                    "duration": 0.15625
                },
                {
                    "name": "C4",
                    "midi": 60,
                    "time": 232.34375,
                    "velocity": 0.11811023622047244,
                    "duration": 0.15625
                },
                {
                    "name": "D4",
                    "midi": 62,
                    "time": 232.5,
                    "velocity": 0.2047244094488189,
                    "duration": 1.25
                },
                {
                    "name": "B3",
                    "midi": 59,
                    "time": 232.5,
                    "velocity": 0.11811023622047244,
                    "duration": 0.15625
                },
                {
                    "name": "A#3",
                    "midi": 58,
                    "time": 232.65625,
                    "velocity": 0.11811023622047244,
                    "duration": 0.15625
                },
                {
                    "name": "B3",
                    "midi": 59,
                    "time": 232.8125,
                    "velocity": 0.11811023622047244,
                    "duration": 0.15625
                },
                {
                    "name": "A#3",
                    "midi": 58,
                    "time": 232.96875,
                    "velocity": 0.11811023622047244,
                    "duration": 0.15625
                },
                {
                    "name": "B3",
                    "midi": 59,
                    "time": 233.125,
                    "velocity": 0.11811023622047244,
                    "duration": 0.15625
                },
                {
                    "name": "A#3",
                    "midi": 58,
                    "time": 233.28125,
                    "velocity": 0.11811023622047244,
                    "duration": 0.15625
                },
                {
                    "name": "B3",
                    "midi": 59,
                    "time": 233.4375,
                    "velocity": 0.11811023622047244,
                    "duration": 0.15625
                },
                {
                    "name": "C4",
                    "midi": 60,
                    "time": 233.59375,
                    "velocity": 0.11811023622047244,
                    "duration": 0.15625
                },
                {
                    "name": "G4",
                    "midi": 67,
                    "time": 233.75,
                    "velocity": 0.2047244094488189,
                    "duration": 0.625
                },
                {
                    "name": "B3",
                    "midi": 59,
                    "time": 233.75,
                    "velocity": 0.11811023622047244,
                    "duration": 0.15625
                },
                {
                    "name": "A#3",
                    "midi": 58,
                    "time": 233.90625,
                    "velocity": 0.11811023622047244,
                    "duration": 0.15625
                },
                {
                    "name": "B3",
                    "midi": 59,
                    "time": 234.0625,
                    "velocity": 0.11811023622047244,
                    "duration": 0.15625
                },
                {
                    "name": "A#3",
                    "midi": 58,
                    "time": 234.21875,
                    "velocity": 0.11811023622047244,
                    "duration": 0.15625
                },
                {
                    "name": "F#4",
                    "midi": 66,
                    "time": 234.375,
                    "velocity": 0.2047244094488189,
                    "duration": 0.46875
                },
                {
                    "name": "B3",
                    "midi": 59,
                    "time": 234.375,
                    "velocity": 0.11811023622047244,
                    "duration": 0.15625
                },
                {
                    "name": "A#3",
                    "midi": 58,
                    "time": 234.53125,
                    "velocity": 0.11811023622047244,
                    "duration": 0.15625
                },
                {
                    "name": "B3",
                    "midi": 59,
                    "time": 234.6875,
                    "velocity": 0.11811023622047244,
                    "duration": 0.15625
                },
                {
                    "name": "E4",
                    "midi": 64,
                    "time": 234.84375,
                    "velocity": 0.2047244094488189,
                    "duration": 0.15625
                },
                {
                    "name": "C4",
                    "midi": 60,
                    "time": 234.84375,
                    "velocity": 0.11811023622047244,
                    "duration": 0.15625
                },
                {
                    "name": "D4",
                    "midi": 62,
                    "time": 235,
                    "velocity": 0.2047244094488189,
                    "duration": 1.25
                },
                {
                    "name": "B3",
                    "midi": 59,
                    "time": 235,
                    "velocity": 0.11811023622047244,
                    "duration": 0.15625
                },
                {
                    "name": "A#3",
                    "midi": 58,
                    "time": 235.15625,
                    "velocity": 0.11811023622047244,
                    "duration": 0.15625
                },
                {
                    "name": "B3",
                    "midi": 59,
                    "time": 235.3125,
                    "velocity": 0.11811023622047244,
                    "duration": 0.15625
                },
                {
                    "name": "A#3",
                    "midi": 58,
                    "time": 235.46875,
                    "velocity": 0.11811023622047244,
                    "duration": 0.15625
                },
                {
                    "name": "B3",
                    "midi": 59,
                    "time": 235.625,
                    "velocity": 0.11811023622047244,
                    "duration": 0.15625
                },
                {
                    "name": "A#3",
                    "midi": 58,
                    "time": 235.78125,
                    "velocity": 0.11811023622047244,
                    "duration": 0.15625
                },
                {
                    "name": "B3",
                    "midi": 59,
                    "time": 235.9375,
                    "velocity": 0.11811023622047244,
                    "duration": 0.15625
                },
                {
                    "name": "C4",
                    "midi": 60,
                    "time": 236.09375,
                    "velocity": 0.11811023622047244,
                    "duration": 0.15625
                },
                {
                    "name": "G4",
                    "midi": 67,
                    "time": 236.25,
                    "velocity": 0.2047244094488189,
                    "duration": 0.625
                },
                {
                    "name": "B3",
                    "midi": 59,
                    "time": 236.25,
                    "velocity": 0.11811023622047244,
                    "duration": 0.15625
                },
                {
                    "name": "A#3",
                    "midi": 58,
                    "time": 236.40625,
                    "velocity": 0.11811023622047244,
                    "duration": 0.15625
                },
                {
                    "name": "B3",
                    "midi": 59,
                    "time": 236.5625,
                    "velocity": 0.11811023622047244,
                    "duration": 0.15625
                },
                {
                    "name": "A#3",
                    "midi": 58,
                    "time": 236.71875,
                    "velocity": 0.11811023622047244,
                    "duration": 0.15625
                },
                {
                    "name": "D4",
                    "midi": 62,
                    "time": 236.875,
                    "velocity": 0.2047244094488189,
                    "duration": 0.625
                },
                {
                    "name": "B3",
                    "midi": 59,
                    "time": 236.875,
                    "velocity": 0.11811023622047244,
                    "duration": 0.15625
                },
                {
                    "name": "A#3",
                    "midi": 58,
                    "time": 237.03125,
                    "velocity": 0.11811023622047244,
                    "duration": 0.15625
                },
                {
                    "name": "B3",
                    "midi": 59,
                    "time": 237.1875,
                    "velocity": 0.11811023622047244,
                    "duration": 0.15625
                },
                {
                    "name": "C4",
                    "midi": 60,
                    "time": 237.34375,
                    "velocity": 0.11811023622047244,
                    "duration": 0.15625
                },
                {
                    "name": "G4",
                    "midi": 67,
                    "time": 237.5,
                    "velocity": 0.2047244094488189,
                    "duration": 0.625
                },
                {
                    "name": "B3",
                    "midi": 59,
                    "time": 237.5,
                    "velocity": 0.11811023622047244,
                    "duration": 0.15625
                },
                {
                    "name": "A#3",
                    "midi": 58,
                    "time": 237.65625,
                    "velocity": 0.11811023622047244,
                    "duration": 0.15625
                },
                {
                    "name": "B3",
                    "midi": 59,
                    "time": 237.8125,
                    "velocity": 0.11811023622047244,
                    "duration": 0.15625
                },
                {
                    "name": "A#3",
                    "midi": 58,
                    "time": 237.96875,
                    "velocity": 0.11811023622047244,
                    "duration": 0.15625
                },
                {
                    "name": "D4",
                    "midi": 62,
                    "time": 238.125,
                    "velocity": 0.2047244094488189,
                    "duration": 0.625
                },
                {
                    "name": "B3",
                    "midi": 59,
                    "time": 238.125,
                    "velocity": 0.11811023622047244,
                    "duration": 0.15625
                },
                {
                    "name": "A#3",
                    "midi": 58,
                    "time": 238.28125,
                    "velocity": 0.11811023622047244,
                    "duration": 0.15625
                },
                {
                    "name": "B3",
                    "midi": 59,
                    "time": 238.4375,
                    "velocity": 0.11811023622047244,
                    "duration": 0.15625
                },
                {
                    "name": "C4",
                    "midi": 60,
                    "time": 238.59375,
                    "velocity": 0.11811023622047244,
                    "duration": 0.15625
                },
                {
                    "name": "G4",
                    "midi": 67,
                    "time": 238.75,
                    "velocity": 0.2047244094488189,
                    "duration": 0.46875
                },
                {
                    "name": "B3",
                    "midi": 59,
                    "time": 238.75,
                    "velocity": 0.11811023622047244,
                    "duration": 0.15625
                },
                {
                    "name": "A#3",
                    "midi": 58,
                    "time": 238.90625,
                    "velocity": 0.11811023622047244,
                    "duration": 0.15625
                },
                {
                    "name": "B3",
                    "midi": 59,
                    "time": 239.0625,
                    "velocity": 0.11811023622047244,
                    "duration": 0.15625
                },
                {
                    "name": "D4",
                    "midi": 62,
                    "time": 239.21875,
                    "velocity": 0.2047244094488189,
                    "duration": 0.15625
                },
                {
                    "name": "C4",
                    "midi": 60,
                    "time": 239.21875,
                    "velocity": 0.11811023622047244,
                    "duration": 0.15625
                },
                {
                    "name": "G4",
                    "midi": 67,
                    "time": 239.375,
                    "velocity": 0.2047244094488189,
                    "duration": 0.46875
                },
                {
                    "name": "B3",
                    "midi": 59,
                    "time": 239.375,
                    "velocity": 0.11811023622047244,
                    "duration": 0.15625
                },
                {
                    "name": "A#3",
                    "midi": 58,
                    "time": 239.53125,
                    "velocity": 0.11811023622047244,
                    "duration": 0.15625
                },
                {
                    "name": "B3",
                    "midi": 59,
                    "time": 239.6875,
                    "velocity": 0.11811023622047244,
                    "duration": 0.15625
                },
                {
                    "name": "D4",
                    "midi": 62,
                    "time": 239.84375,
                    "velocity": 0.2047244094488189,
                    "duration": 0.15625
                },
                {
                    "name": "C4",
                    "midi": 60,
                    "time": 239.84375,
                    "velocity": 0.11811023622047244,
                    "duration": 0.15625
                },
                {
                    "name": "G4",
                    "midi": 67,
                    "time": 240,
                    "velocity": 0.2047244094488189,
                    "duration": 0.46875
                },
                {
                    "name": "B3",
                    "midi": 59,
                    "time": 240,
                    "velocity": 0.11811023622047244,
                    "duration": 0.15625
                },
                {
                    "name": "A#3",
                    "midi": 58,
                    "time": 240.15625,
                    "velocity": 0.11811023622047244,
                    "duration": 0.15625
                },
                {
                    "name": "B3",
                    "midi": 59,
                    "time": 240.3125,
                    "velocity": 0.11811023622047244,
                    "duration": 0.15625
                },
                {
                    "name": "D4",
                    "midi": 62,
                    "time": 240.46875,
                    "velocity": 0.2047244094488189,
                    "duration": 0.15625
                },
                {
                    "name": "C4",
                    "midi": 60,
                    "time": 240.46875,
                    "velocity": 0.11811023622047244,
                    "duration": 0.15625
                },
                {
                    "name": "G4",
                    "midi": 67,
                    "time": 240.625,
                    "velocity": 0.2047244094488189,
                    "duration": 0.46875
                },
                {
                    "name": "B3",
                    "midi": 59,
                    "time": 240.625,
                    "velocity": 0.11811023622047244,
                    "duration": 0.15625
                },
                {
                    "name": "A#3",
                    "midi": 58,
                    "time": 240.78125,
                    "velocity": 0.11811023622047244,
                    "duration": 0.15625
                },
                {
                    "name": "B3",
                    "midi": 59,
                    "time": 240.9375,
                    "velocity": 0.11811023622047244,
                    "duration": 0.15625
                },
                {
                    "name": "D4",
                    "midi": 62,
                    "time": 241.09375,
                    "velocity": 0.2047244094488189,
                    "duration": 0.15625
                },
                {
                    "name": "C4",
                    "midi": 60,
                    "time": 241.09375,
                    "velocity": 0.11811023622047244,
                    "duration": 0.15625
                },
                {
                    "name": "B3",
                    "midi": 59,
                    "time": 241.25,
                    "velocity": 0.11811023622047244,
                    "duration": 2.5
                },
                {
                    "name": "G4",
                    "midi": 67,
                    "time": 241.25,
                    "velocity": 0.11811023622047244,
                    "duration": 1.25
                },
                {
                    "name": "F4",
                    "midi": 65,
                    "time": 242.5,
                    "velocity": 0.11811023622047244,
                    "duration": 1.25
                },
                {
                    "name": "B3",
                    "midi": 59,
                    "time": 243.75,
                    "velocity": 0.5039370078740157,
                    "duration": 0.1251220703125
                },
                {
                    "name": "E4",
                    "midi": 64,
                    "time": 243.75,
                    "velocity": 0.5039370078740157,
                    "duration": 0.1251220703125
                },
                {
                    "name": "G#4",
                    "midi": 68,
                    "time": 246.5625,
                    "velocity": 0.8582677165354331,
                    "duration": 0.625
                },
                {
                    "name": "D5",
                    "midi": 74,
                    "time": 246.5625,
                    "velocity": 0.8582677165354331,
                    "duration": 0.625
                },
                {
                    "name": "E5",
                    "midi": 76,
                    "time": 246.5625,
                    "velocity": 0.8582677165354331,
                    "duration": 0.9375
                },
                {
                    "name": "G#5",
                    "midi": 80,
                    "time": 246.5625,
                    "velocity": 0.8582677165354331,
                    "duration": 0.625
                },
                {
                    "name": "A4",
                    "midi": 69,
                    "time": 247.1875,
                    "velocity": 0.7086614173228346,
                    "duration": 0.3125
                },
                {
                    "name": "C5",
                    "midi": 72,
                    "time": 247.1875,
                    "velocity": 0.5039370078740157,
                    "duration": 0.3125
                },
                {
                    "name": "A5",
                    "midi": 81,
                    "time": 247.1875,
                    "velocity": 0.7086614173228346,
                    "duration": 0.3125
                },
                {
                    "name": "D4",
                    "midi": 62,
                    "time": 247.5,
                    "velocity": 0.7086614173228346,
                    "duration": 0.1251220703125
                },
                {
                    "name": "A4",
                    "midi": 69,
                    "time": 247.5,
                    "velocity": 0.7086614173228346,
                    "duration": 0.1251220703125
                },
                {
                    "name": "D5",
                    "midi": 74,
                    "time": 247.5,
                    "velocity": 0.7086614173228346,
                    "duration": 0.1251220703125
                },
                {
                    "name": "F4",
                    "midi": 65,
                    "time": 247.8125,
                    "velocity": 0.8582677165354331,
                    "duration": 0.625
                },
                {
                    "name": "A4",
                    "midi": 69,
                    "time": 247.8125,
                    "velocity": 0.8582677165354331,
                    "duration": 0.625
                },
                {
                    "name": "B4",
                    "midi": 71,
                    "time": 247.8125,
                    "velocity": 0.8582677165354331,
                    "duration": 0.9375
                },
                {
                    "name": "F5",
                    "midi": 77,
                    "time": 247.8125,
                    "velocity": 0.8582677165354331,
                    "duration": 0.625
                },
                {
                    "name": "E4",
                    "midi": 64,
                    "time": 248.4375,
                    "velocity": 0.7086614173228346,
                    "duration": 0.3125
                },
                {
                    "name": "G#4",
                    "midi": 68,
                    "time": 248.4375,
                    "velocity": 0.7086614173228346,
                    "duration": 0.3125
                },
                {
                    "name": "E5",
                    "midi": 76,
                    "time": 248.4375,
                    "velocity": 0.7086614173228346,
                    "duration": 0.3125
                },
                {
                    "name": "C5",
                    "midi": 72,
                    "time": 248.75,
                    "velocity": 0.15748031496062992,
                    "duration": 0.15625
                },
                {
                    "name": "A5",
                    "midi": 81,
                    "time": 248.75,
                    "velocity": 0.15748031496062992,
                    "duration": 0.15625
                },
                {
                    "name": "E5",
                    "midi": 76,
                    "time": 248.90625,
                    "velocity": 0.15748031496062992,
                    "duration": 0.15625
                },
                {
                    "name": "G#5",
                    "midi": 80,
                    "time": 248.90625,
                    "velocity": 0.15748031496062992,
                    "duration": 0.15625
                },
                {
                    "name": "C5",
                    "midi": 72,
                    "time": 249.0625,
                    "velocity": 0.15748031496062992,
                    "duration": 0.15625
                },
                {
                    "name": "A5",
                    "midi": 81,
                    "time": 249.0625,
                    "velocity": 0.15748031496062992,
                    "duration": 0.15625
                },
                {
                    "name": "E5",
                    "midi": 76,
                    "time": 249.21875,
                    "velocity": 0.15748031496062992,
                    "duration": 0.15625
                },
                {
                    "name": "G#5",
                    "midi": 80,
                    "time": 249.21875,
                    "velocity": 0.15748031496062992,
                    "duration": 0.15625
                },
                {
                    "name": "C5",
                    "midi": 72,
                    "time": 249.375,
                    "velocity": 0.15748031496062992,
                    "duration": 0.15625
                },
                {
                    "name": "A5",
                    "midi": 81,
                    "time": 249.375,
                    "velocity": 0.15748031496062992,
                    "duration": 0.15625
                },
                {
                    "name": "E5",
                    "midi": 76,
                    "time": 249.53125,
                    "velocity": 0.15748031496062992,
                    "duration": 0.15625
                },
                {
                    "name": "G#5",
                    "midi": 80,
                    "time": 249.53125,
                    "velocity": 0.15748031496062992,
                    "duration": 0.15625
                },
                {
                    "name": "C5",
                    "midi": 72,
                    "time": 249.6875,
                    "velocity": 0.15748031496062992,
                    "duration": 0.15625
                },
                {
                    "name": "A5",
                    "midi": 81,
                    "time": 249.6875,
                    "velocity": 0.15748031496062992,
                    "duration": 0.15625
                },
                {
                    "name": "E5",
                    "midi": 76,
                    "time": 249.84375,
                    "velocity": 0.15748031496062992,
                    "duration": 0.15625
                },
                {
                    "name": "A#5",
                    "midi": 82,
                    "time": 249.84375,
                    "velocity": 0.15748031496062992,
                    "duration": 0.15625
                },
                {
                    "name": "D5",
                    "midi": 74,
                    "time": 250,
                    "velocity": 0.15748031496062992,
                    "duration": 0.15625
                },
                {
                    "name": "B5",
                    "midi": 83,
                    "time": 250,
                    "velocity": 0.15748031496062992,
                    "duration": 0.15625
                },
                {
                    "name": "F5",
                    "midi": 77,
                    "time": 250.15625,
                    "velocity": 0.15748031496062992,
                    "duration": 0.15625
                },
                {
                    "name": "A#5",
                    "midi": 82,
                    "time": 250.15625,
                    "velocity": 0.15748031496062992,
                    "duration": 0.15625
                },
                {
                    "name": "D5",
                    "midi": 74,
                    "time": 250.3125,
                    "velocity": 0.15748031496062992,
                    "duration": 0.15625
                },
                {
                    "name": "B5",
                    "midi": 83,
                    "time": 250.3125,
                    "velocity": 0.15748031496062992,
                    "duration": 0.15625
                },
                {
                    "name": "F5",
                    "midi": 77,
                    "time": 250.46875,
                    "velocity": 0.15748031496062992,
                    "duration": 0.15625
                },
                {
                    "name": "A#5",
                    "midi": 82,
                    "time": 250.46875,
                    "velocity": 0.15748031496062992,
                    "duration": 0.15625
                },
                {
                    "name": "D5",
                    "midi": 74,
                    "time": 250.625,
                    "velocity": 0.15748031496062992,
                    "duration": 0.15625
                },
                {
                    "name": "B5",
                    "midi": 83,
                    "time": 250.625,
                    "velocity": 0.15748031496062992,
                    "duration": 0.15625
                },
                {
                    "name": "F5",
                    "midi": 77,
                    "time": 250.78125,
                    "velocity": 0.15748031496062992,
                    "duration": 0.15625
                },
                {
                    "name": "A#5",
                    "midi": 82,
                    "time": 250.78125,
                    "velocity": 0.15748031496062992,
                    "duration": 0.15625
                },
                {
                    "name": "D5",
                    "midi": 74,
                    "time": 250.9375,
                    "velocity": 0.15748031496062992,
                    "duration": 0.15625
                },
                {
                    "name": "C6",
                    "midi": 84,
                    "time": 250.9375,
                    "velocity": 0.15748031496062992,
                    "duration": 0.15625
                },
                {
                    "name": "E5",
                    "midi": 76,
                    "time": 251.09375,
                    "velocity": 0.15748031496062992,
                    "duration": 0.15625
                },
                {
                    "name": "B5",
                    "midi": 83,
                    "time": 251.09375,
                    "velocity": 0.15748031496062992,
                    "duration": 0.15625
                },
                {
                    "name": "C5",
                    "midi": 72,
                    "time": 251.25,
                    "velocity": 0.15748031496062992,
                    "duration": 0.15625
                },
                {
                    "name": "A5",
                    "midi": 81,
                    "time": 251.25,
                    "velocity": 0.15748031496062992,
                    "duration": 0.15625
                },
                {
                    "name": "E5",
                    "midi": 76,
                    "time": 251.40625,
                    "velocity": 0.15748031496062992,
                    "duration": 0.15625
                },
                {
                    "name": "G#5",
                    "midi": 80,
                    "time": 251.40625,
                    "velocity": 0.15748031496062992,
                    "duration": 0.15625
                },
                {
                    "name": "C5",
                    "midi": 72,
                    "time": 251.5625,
                    "velocity": 0.15748031496062992,
                    "duration": 0.15625
                },
                {
                    "name": "A5",
                    "midi": 81,
                    "time": 251.5625,
                    "velocity": 0.15748031496062992,
                    "duration": 0.15625
                },
                {
                    "name": "E5",
                    "midi": 76,
                    "time": 251.71875,
                    "velocity": 0.15748031496062992,
                    "duration": 0.15625
                },
                {
                    "name": "G#5",
                    "midi": 80,
                    "time": 251.71875,
                    "velocity": 0.15748031496062992,
                    "duration": 0.15625
                },
                {
                    "name": "C5",
                    "midi": 72,
                    "time": 251.875,
                    "velocity": 0.15748031496062992,
                    "duration": 0.15625
                },
                {
                    "name": "A5",
                    "midi": 81,
                    "time": 251.875,
                    "velocity": 0.15748031496062992,
                    "duration": 0.15625
                },
                {
                    "name": "E5",
                    "midi": 76,
                    "time": 252.03125,
                    "velocity": 0.15748031496062992,
                    "duration": 0.15625
                },
                {
                    "name": "G#5",
                    "midi": 80,
                    "time": 252.03125,
                    "velocity": 0.15748031496062992,
                    "duration": 0.15625
                },
                {
                    "name": "C5",
                    "midi": 72,
                    "time": 252.1875,
                    "velocity": 0.15748031496062992,
                    "duration": 0.15625
                },
                {
                    "name": "A5",
                    "midi": 81,
                    "time": 252.1875,
                    "velocity": 0.15748031496062992,
                    "duration": 0.15625
                },
                {
                    "name": "E5",
                    "midi": 76,
                    "time": 252.34375,
                    "velocity": 0.15748031496062992,
                    "duration": 0.15625
                },
                {
                    "name": "A#5",
                    "midi": 82,
                    "time": 252.34375,
                    "velocity": 0.15748031496062992,
                    "duration": 0.15625
                },
                {
                    "name": "D5",
                    "midi": 74,
                    "time": 252.5,
                    "velocity": 0.15748031496062992,
                    "duration": 0.15625
                },
                {
                    "name": "B5",
                    "midi": 83,
                    "time": 252.5,
                    "velocity": 0.15748031496062992,
                    "duration": 0.15625
                },
                {
                    "name": "F5",
                    "midi": 77,
                    "time": 252.65625,
                    "velocity": 0.15748031496062992,
                    "duration": 0.15625
                },
                {
                    "name": "A#5",
                    "midi": 82,
                    "time": 252.65625,
                    "velocity": 0.15748031496062992,
                    "duration": 0.15625
                },
                {
                    "name": "D5",
                    "midi": 74,
                    "time": 252.8125,
                    "velocity": 0.15748031496062992,
                    "duration": 0.15625
                },
                {
                    "name": "B5",
                    "midi": 83,
                    "time": 252.8125,
                    "velocity": 0.15748031496062992,
                    "duration": 0.15625
                },
                {
                    "name": "F5",
                    "midi": 77,
                    "time": 252.96875,
                    "velocity": 0.15748031496062992,
                    "duration": 0.15625
                },
                {
                    "name": "A#5",
                    "midi": 82,
                    "time": 252.96875,
                    "velocity": 0.15748031496062992,
                    "duration": 0.15625
                },
                {
                    "name": "D5",
                    "midi": 74,
                    "time": 253.125,
                    "velocity": 0.15748031496062992,
                    "duration": 0.15625
                },
                {
                    "name": "B5",
                    "midi": 83,
                    "time": 253.125,
                    "velocity": 0.15748031496062992,
                    "duration": 0.15625
                },
                {
                    "name": "F5",
                    "midi": 77,
                    "time": 253.28125,
                    "velocity": 0.15748031496062992,
                    "duration": 0.15625
                },
                {
                    "name": "A#5",
                    "midi": 82,
                    "time": 253.28125,
                    "velocity": 0.15748031496062992,
                    "duration": 0.15625
                },
                {
                    "name": "D5",
                    "midi": 74,
                    "time": 253.4375,
                    "velocity": 0.15748031496062992,
                    "duration": 0.15625
                },
                {
                    "name": "C6",
                    "midi": 84,
                    "time": 253.4375,
                    "velocity": 0.15748031496062992,
                    "duration": 0.15625
                },
                {
                    "name": "E5",
                    "midi": 76,
                    "time": 253.59375,
                    "velocity": 0.15748031496062992,
                    "duration": 0.15625
                },
                {
                    "name": "B5",
                    "midi": 83,
                    "time": 253.59375,
                    "velocity": 0.15748031496062992,
                    "duration": 0.15625
                },
                {
                    "name": "C5",
                    "midi": 72,
                    "time": 253.75,
                    "velocity": 0.15748031496062992,
                    "duration": 0.15625
                },
                {
                    "name": "A5",
                    "midi": 81,
                    "time": 253.75,
                    "velocity": 0.15748031496062992,
                    "duration": 0.15625
                },
                {
                    "name": "E5",
                    "midi": 76,
                    "time": 253.90625,
                    "velocity": 0.15748031496062992,
                    "duration": 0.15625
                },
                {
                    "name": "G#5",
                    "midi": 80,
                    "time": 253.90625,
                    "velocity": 0.15748031496062992,
                    "duration": 0.15625
                },
                {
                    "name": "C5",
                    "midi": 72,
                    "time": 254.0625,
                    "velocity": 0.15748031496062992,
                    "duration": 0.15625
                },
                {
                    "name": "B5",
                    "midi": 83,
                    "time": 254.0625,
                    "velocity": 0.15748031496062992,
                    "duration": 0.15625
                },
                {
                    "name": "D#5",
                    "midi": 75,
                    "time": 254.21875,
                    "velocity": 0.15748031496062992,
                    "duration": 0.15625
                },
                {
                    "name": "A5",
                    "midi": 81,
                    "time": 254.21875,
                    "velocity": 0.15748031496062992,
                    "duration": 0.15625
                },
                {
                    "name": "C5",
                    "midi": 72,
                    "time": 254.375,
                    "velocity": 0.15748031496062992,
                    "duration": 0.15625
                },
                {
                    "name": "G5",
                    "midi": 79,
                    "time": 254.375,
                    "velocity": 0.15748031496062992,
                    "duration": 0.15625
                },
                {
                    "name": "D#5",
                    "midi": 75,
                    "time": 254.53125,
                    "velocity": 0.15748031496062992,
                    "duration": 0.15625
                },
                {
                    "name": "F#5",
                    "midi": 78,
                    "time": 254.53125,
                    "velocity": 0.15748031496062992,
                    "duration": 0.15625
                },
                {
                    "name": "C5",
                    "midi": 72,
                    "time": 254.6875,
                    "velocity": 0.15748031496062992,
                    "duration": 0.15625
                },
                {
                    "name": "A5",
                    "midi": 81,
                    "time": 254.6875,
                    "velocity": 0.15748031496062992,
                    "duration": 0.15625
                },
                {
                    "name": "D5",
                    "midi": 74,
                    "time": 254.84375,
                    "velocity": 0.15748031496062992,
                    "duration": 0.15625
                },
                {
                    "name": "F#5",
                    "midi": 78,
                    "time": 254.84375,
                    "velocity": 0.15748031496062992,
                    "duration": 0.15625
                },
                {
                    "name": "A#4",
                    "midi": 70,
                    "time": 255,
                    "velocity": 0.15748031496062992,
                    "duration": 0.15625
                },
                {
                    "name": "G5",
                    "midi": 79,
                    "time": 255,
                    "velocity": 0.15748031496062992,
                    "duration": 0.15625
                },
                {
                    "name": "D5",
                    "midi": 74,
                    "time": 255.15625,
                    "velocity": 0.15748031496062992,
                    "duration": 0.15625
                },
                {
                    "name": "F#5",
                    "midi": 78,
                    "time": 255.15625,
                    "velocity": 0.15748031496062992,
                    "duration": 0.15625
                },
                {
                    "name": "A#4",
                    "midi": 70,
                    "time": 255.3125,
                    "velocity": 0.15748031496062992,
                    "duration": 0.15625
                },
                {
                    "name": "A5",
                    "midi": 81,
                    "time": 255.3125,
                    "velocity": 0.15748031496062992,
                    "duration": 0.15625
                },
                {
                    "name": "C#5",
                    "midi": 73,
                    "time": 255.46875,
                    "velocity": 0.15748031496062992,
                    "duration": 0.15625
                },
                {
                    "name": "G5",
                    "midi": 79,
                    "time": 255.46875,
                    "velocity": 0.15748031496062992,
                    "duration": 0.15625
                },
                {
                    "name": "A#4",
                    "midi": 70,
                    "time": 255.625,
                    "velocity": 0.15748031496062992,
                    "duration": 0.15625
                },
                {
                    "name": "F5",
                    "midi": 77,
                    "time": 255.625,
                    "velocity": 0.15748031496062992,
                    "duration": 0.15625
                },
                {
                    "name": "C#5",
                    "midi": 73,
                    "time": 255.78125,
                    "velocity": 0.15748031496062992,
                    "duration": 0.15625
                },
                {
                    "name": "E5",
                    "midi": 76,
                    "time": 255.78125,
                    "velocity": 0.15748031496062992,
                    "duration": 0.15625
                },
                {
                    "name": "A#4",
                    "midi": 70,
                    "time": 255.9375,
                    "velocity": 0.15748031496062992,
                    "duration": 0.15625
                },
                {
                    "name": "G5",
                    "midi": 79,
                    "time": 255.9375,
                    "velocity": 0.15748031496062992,
                    "duration": 0.15625
                },
                {
                    "name": "C5",
                    "midi": 72,
                    "time": 256.09375,
                    "velocity": 0.15748031496062992,
                    "duration": 0.15625
                },
                {
                    "name": "E5",
                    "midi": 76,
                    "time": 256.09375,
                    "velocity": 0.15748031496062992,
                    "duration": 0.15625
                },
                {
                    "name": "A4",
                    "midi": 69,
                    "time": 256.25,
                    "velocity": 0.15748031496062992,
                    "duration": 0.15625
                },
                {
                    "name": "F5",
                    "midi": 77,
                    "time": 256.25,
                    "velocity": 0.15748031496062992,
                    "duration": 0.15625
                },
                {
                    "name": "C5",
                    "midi": 72,
                    "time": 256.40625,
                    "velocity": 0.15748031496062992,
                    "duration": 0.15625
                },
                {
                    "name": "E5",
                    "midi": 76,
                    "time": 256.40625,
                    "velocity": 0.15748031496062992,
                    "duration": 0.15625
                },
                {
                    "name": "A4",
                    "midi": 69,
                    "time": 256.5625,
                    "velocity": 0.15748031496062992,
                    "duration": 0.15625
                },
                {
                    "name": "G5",
                    "midi": 79,
                    "time": 256.5625,
                    "velocity": 0.15748031496062992,
                    "duration": 0.15625
                },
                {
                    "name": "C5",
                    "midi": 72,
                    "time": 256.71875,
                    "velocity": 0.15748031496062992,
                    "duration": 0.15625
                },
                {
                    "name": "F5",
                    "midi": 77,
                    "time": 256.71875,
                    "velocity": 0.15748031496062992,
                    "duration": 0.15625
                },
                {
                    "name": "A4",
                    "midi": 69,
                    "time": 256.875,
                    "velocity": 0.15748031496062992,
                    "duration": 0.15625
                },
                {
                    "name": "E5",
                    "midi": 76,
                    "time": 256.875,
                    "velocity": 0.15748031496062992,
                    "duration": 0.15625
                },
                {
                    "name": "C5",
                    "midi": 72,
                    "time": 257.03125,
                    "velocity": 0.15748031496062992,
                    "duration": 0.15625
                },
                {
                    "name": "D#5",
                    "midi": 75,
                    "time": 257.03125,
                    "velocity": 0.15748031496062992,
                    "duration": 0.15625
                },
                {
                    "name": "A4",
                    "midi": 69,
                    "time": 257.1875,
                    "velocity": 0.15748031496062992,
                    "duration": 0.15625
                },
                {
                    "name": "E5",
                    "midi": 76,
                    "time": 257.1875,
                    "velocity": 0.15748031496062992,
                    "duration": 0.15625
                },
                {
                    "name": "C5",
                    "midi": 72,
                    "time": 257.34375,
                    "velocity": 0.15748031496062992,
                    "duration": 0.15625
                },
                {
                    "name": "D#5",
                    "midi": 75,
                    "time": 257.34375,
                    "velocity": 0.15748031496062992,
                    "duration": 0.15625
                },
                {
                    "name": "E5",
                    "midi": 76,
                    "time": 257.5,
                    "velocity": 0.15748031496062992,
                    "duration": 0.3125
                },
                {
                    "name": "A4",
                    "midi": 69,
                    "time": 257.5,
                    "velocity": 0.15748031496062992,
                    "duration": 0.15625
                },
                {
                    "name": "C5",
                    "midi": 72,
                    "time": 257.65625,
                    "velocity": 0.15748031496062992,
                    "duration": 0.15625
                },
                {
                    "name": "A5",
                    "midi": 81,
                    "time": 257.8125,
                    "velocity": 0.15748031496062992,
                    "duration": 0.3125
                },
                {
                    "name": "A4",
                    "midi": 69,
                    "time": 257.8125,
                    "velocity": 0.15748031496062992,
                    "duration": 0.15625
                },
                {
                    "name": "C5",
                    "midi": 72,
                    "time": 257.96875,
                    "velocity": 0.15748031496062992,
                    "duration": 0.15625
                },
                {
                    "name": "G5",
                    "midi": 79,
                    "time": 258.125,
                    "velocity": 0.15748031496062992,
                    "duration": 0.3125
                },
                {
                    "name": "A4",
                    "midi": 69,
                    "time": 258.125,
                    "velocity": 0.15748031496062992,
                    "duration": 0.15625
                },
                {
                    "name": "C5",
                    "midi": 72,
                    "time": 258.28125,
                    "velocity": 0.15748031496062992,
                    "duration": 0.15625
                },
                {
                    "name": "F#5",
                    "midi": 78,
                    "time": 258.4375,
                    "velocity": 0.15748031496062992,
                    "duration": 0.3125
                },
                {
                    "name": "A4",
                    "midi": 69,
                    "time": 258.4375,
                    "velocity": 0.15748031496062992,
                    "duration": 0.15625
                },
                {
                    "name": "C5",
                    "midi": 72,
                    "time": 258.59375,
                    "velocity": 0.15748031496062992,
                    "duration": 0.15625
                },
                {
                    "name": "F#5",
                    "midi": 78,
                    "time": 258.75,
                    "velocity": 0.15748031496062992,
                    "duration": 0.3125
                },
                {
                    "name": "A4",
                    "midi": 69,
                    "time": 258.75,
                    "velocity": 0.15748031496062992,
                    "duration": 0.15625
                },
                {
                    "name": "C5",
                    "midi": 72,
                    "time": 258.90625,
                    "velocity": 0.15748031496062992,
                    "duration": 0.15625
                },
                {
                    "name": "A5",
                    "midi": 81,
                    "time": 259.0625,
                    "velocity": 0.15748031496062992,
                    "duration": 0.625
                },
                {
                    "name": "A4",
                    "midi": 69,
                    "time": 259.0625,
                    "velocity": 0.15748031496062992,
                    "duration": 0.15625
                },
                {
                    "name": "C5",
                    "midi": 72,
                    "time": 259.21875,
                    "velocity": 0.15748031496062992,
                    "duration": 0.15625
                },
                {
                    "name": "A4",
                    "midi": 69,
                    "time": 259.375,
                    "velocity": 0.15748031496062992,
                    "duration": 0.15625
                },
                {
                    "name": "C5",
                    "midi": 72,
                    "time": 259.53125,
                    "velocity": 0.15748031496062992,
                    "duration": 0.15625
                },
                {
                    "name": "D#5",
                    "midi": 75,
                    "time": 259.6875,
                    "velocity": 0.15748031496062992,
                    "duration": 0.3125
                },
                {
                    "name": "A4",
                    "midi": 69,
                    "time": 259.6875,
                    "velocity": 0.15748031496062992,
                    "duration": 0.15625
                },
                {
                    "name": "C5",
                    "midi": 72,
                    "time": 259.84375,
                    "velocity": 0.15748031496062992,
                    "duration": 0.15625
                },
                {
                    "name": "E5",
                    "midi": 76,
                    "time": 260,
                    "velocity": 0.15748031496062992,
                    "duration": 1.25
                },
                {
                    "name": "A4",
                    "midi": 69,
                    "time": 260,
                    "velocity": 0.15748031496062992,
                    "duration": 0.15625
                },
                {
                    "name": "C5",
                    "midi": 72,
                    "time": 260.15625,
                    "velocity": 0.15748031496062992,
                    "duration": 0.15625
                },
                {
                    "name": "A4",
                    "midi": 69,
                    "time": 260.3125,
                    "velocity": 0.15748031496062992,
                    "duration": 0.15625
                },
                {
                    "name": "C5",
                    "midi": 72,
                    "time": 260.46875,
                    "velocity": 0.15748031496062992,
                    "duration": 0.15625
                },
                {
                    "name": "A4",
                    "midi": 69,
                    "time": 260.625,
                    "velocity": 0.15748031496062992,
                    "duration": 0.15625
                },
                {
                    "name": "C5",
                    "midi": 72,
                    "time": 260.78125,
                    "velocity": 0.15748031496062992,
                    "duration": 0.15625
                },
                {
                    "name": "A4",
                    "midi": 69,
                    "time": 260.9375,
                    "velocity": 0.15748031496062992,
                    "duration": 0.15625
                },
                {
                    "name": "C5",
                    "midi": 72,
                    "time": 261.09375,
                    "velocity": 0.15748031496062992,
                    "duration": 0.15625
                },
                {
                    "name": "E5",
                    "midi": 76,
                    "time": 261.25,
                    "velocity": 0.15748031496062992,
                    "duration": 1.25
                },
                {
                    "name": "A4",
                    "midi": 69,
                    "time": 261.25,
                    "velocity": 0.15748031496062992,
                    "duration": 0.15625
                },
                {
                    "name": "C5",
                    "midi": 72,
                    "time": 261.40625,
                    "velocity": 0.15748031496062992,
                    "duration": 0.15625
                },
                {
                    "name": "A4",
                    "midi": 69,
                    "time": 261.5625,
                    "velocity": 0.15748031496062992,
                    "duration": 0.15625
                },
                {
                    "name": "C5",
                    "midi": 72,
                    "time": 261.71875,
                    "velocity": 0.15748031496062992,
                    "duration": 0.15625
                },
                {
                    "name": "A4",
                    "midi": 69,
                    "time": 261.875,
                    "velocity": 0.15748031496062992,
                    "duration": 0.15625
                },
                {
                    "name": "C5",
                    "midi": 72,
                    "time": 262.03125,
                    "velocity": 0.15748031496062992,
                    "duration": 0.15625
                },
                {
                    "name": "A4",
                    "midi": 69,
                    "time": 262.1875,
                    "velocity": 0.15748031496062992,
                    "duration": 0.15625
                },
                {
                    "name": "C5",
                    "midi": 72,
                    "time": 262.34375,
                    "velocity": 0.15748031496062992,
                    "duration": 0.15625
                },
                {
                    "name": "A4",
                    "midi": 69,
                    "time": 262.5,
                    "velocity": 0.15748031496062992,
                    "duration": 0.15625
                },
                {
                    "name": "A5",
                    "midi": 81,
                    "time": 262.5,
                    "velocity": 0.15748031496062992,
                    "duration": 0.15625
                },
                {
                    "name": "A4",
                    "midi": 69,
                    "time": 262.65625,
                    "velocity": 0.15748031496062992,
                    "duration": 0.15625
                },
                {
                    "name": "A5",
                    "midi": 81,
                    "time": 262.65625,
                    "velocity": 0.15748031496062992,
                    "duration": 0.15625
                },
                {
                    "name": "A4",
                    "midi": 69,
                    "time": 262.8125,
                    "velocity": 0.15748031496062992,
                    "duration": 0.15625
                },
                {
                    "name": "A5",
                    "midi": 81,
                    "time": 262.8125,
                    "velocity": 0.15748031496062992,
                    "duration": 0.15625
                },
                {
                    "name": "A4",
                    "midi": 69,
                    "time": 262.96875,
                    "velocity": 0.15748031496062992,
                    "duration": 0.15625
                },
                {
                    "name": "A5",
                    "midi": 81,
                    "time": 262.96875,
                    "velocity": 0.15748031496062992,
                    "duration": 0.15625
                },
                {
                    "name": "A4",
                    "midi": 69,
                    "time": 263.125,
                    "velocity": 0.15748031496062992,
                    "duration": 0.15625
                },
                {
                    "name": "A5",
                    "midi": 81,
                    "time": 263.125,
                    "velocity": 0.15748031496062992,
                    "duration": 0.15625
                },
                {
                    "name": "B4",
                    "midi": 71,
                    "time": 263.28125,
                    "velocity": 0.15748031496062992,
                    "duration": 0.15625
                },
                {
                    "name": "B5",
                    "midi": 83,
                    "time": 263.28125,
                    "velocity": 0.15748031496062992,
                    "duration": 0.15625
                },
                {
                    "name": "C5",
                    "midi": 72,
                    "time": 263.4375,
                    "velocity": 0.15748031496062992,
                    "duration": 0.15625
                },
                {
                    "name": "C6",
                    "midi": 84,
                    "time": 263.4375,
                    "velocity": 0.15748031496062992,
                    "duration": 0.15625
                },
                {
                    "name": "D5",
                    "midi": 74,
                    "time": 263.59375,
                    "velocity": 0.15748031496062992,
                    "duration": 0.15625
                },
                {
                    "name": "D6",
                    "midi": 86,
                    "time": 263.59375,
                    "velocity": 0.15748031496062992,
                    "duration": 0.15625
                },
                {
                    "name": "E5",
                    "midi": 76,
                    "time": 263.75,
                    "velocity": 0.15748031496062992,
                    "duration": 0.15625
                },
                {
                    "name": "E6",
                    "midi": 88,
                    "time": 263.75,
                    "velocity": 0.15748031496062992,
                    "duration": 0.15625
                },
                {
                    "name": "E5",
                    "midi": 76,
                    "time": 263.90625,
                    "velocity": 0.15748031496062992,
                    "duration": 0.15625
                },
                {
                    "name": "E6",
                    "midi": 88,
                    "time": 263.90625,
                    "velocity": 0.15748031496062992,
                    "duration": 0.15625
                },
                {
                    "name": "E5",
                    "midi": 76,
                    "time": 264.0625,
                    "velocity": 0.15748031496062992,
                    "duration": 0.15625
                },
                {
                    "name": "E6",
                    "midi": 88,
                    "time": 264.0625,
                    "velocity": 0.15748031496062992,
                    "duration": 0.15625
                },
                {
                    "name": "E5",
                    "midi": 76,
                    "time": 264.21875,
                    "velocity": 0.15748031496062992,
                    "duration": 0.15625
                },
                {
                    "name": "E6",
                    "midi": 88,
                    "time": 264.21875,
                    "velocity": 0.15748031496062992,
                    "duration": 0.15625
                },
                {
                    "name": "D5",
                    "midi": 74,
                    "time": 264.375,
                    "velocity": 0.15748031496062992,
                    "duration": 0.15625
                },
                {
                    "name": "D6",
                    "midi": 86,
                    "time": 264.375,
                    "velocity": 0.15748031496062992,
                    "duration": 0.15625
                },
                {
                    "name": "C5",
                    "midi": 72,
                    "time": 264.53125,
                    "velocity": 0.15748031496062992,
                    "duration": 0.15625
                },
                {
                    "name": "C6",
                    "midi": 84,
                    "time": 264.53125,
                    "velocity": 0.15748031496062992,
                    "duration": 0.15625
                },
                {
                    "name": "B4",
                    "midi": 71,
                    "time": 264.6875,
                    "velocity": 0.15748031496062992,
                    "duration": 0.15625
                },
                {
                    "name": "B5",
                    "midi": 83,
                    "time": 264.6875,
                    "velocity": 0.15748031496062992,
                    "duration": 0.15625
                },
                {
                    "name": "A4",
                    "midi": 69,
                    "time": 264.84375,
                    "velocity": 0.15748031496062992,
                    "duration": 0.15625
                },
                {
                    "name": "A5",
                    "midi": 81,
                    "time": 264.84375,
                    "velocity": 0.15748031496062992,
                    "duration": 0.15625
                },
                {
                    "name": "A#4",
                    "midi": 70,
                    "time": 265,
                    "velocity": 0.15748031496062992,
                    "duration": 0.15625
                },
                {
                    "name": "A#5",
                    "midi": 82,
                    "time": 265,
                    "velocity": 0.15748031496062992,
                    "duration": 0.15625
                },
                {
                    "name": "A#4",
                    "midi": 70,
                    "time": 265.15625,
                    "velocity": 0.15748031496062992,
                    "duration": 0.15625
                },
                {
                    "name": "A#5",
                    "midi": 82,
                    "time": 265.15625,
                    "velocity": 0.15748031496062992,
                    "duration": 0.15625
                },
                {
                    "name": "A#4",
                    "midi": 70,
                    "time": 265.3125,
                    "velocity": 0.15748031496062992,
                    "duration": 0.15625
                },
                {
                    "name": "A#5",
                    "midi": 82,
                    "time": 265.3125,
                    "velocity": 0.15748031496062992,
                    "duration": 0.15625
                },
                {
                    "name": "A#4",
                    "midi": 70,
                    "time": 265.46875,
                    "velocity": 0.15748031496062992,
                    "duration": 0.15625
                },
                {
                    "name": "A#5",
                    "midi": 82,
                    "time": 265.46875,
                    "velocity": 0.15748031496062992,
                    "duration": 0.15625
                },
                {
                    "name": "A#4",
                    "midi": 70,
                    "time": 265.625,
                    "velocity": 0.15748031496062992,
                    "duration": 0.15625
                },
                {
                    "name": "A#5",
                    "midi": 82,
                    "time": 265.625,
                    "velocity": 0.15748031496062992,
                    "duration": 0.15625
                },
                {
                    "name": "C5",
                    "midi": 72,
                    "time": 265.78125,
                    "velocity": 0.15748031496062992,
                    "duration": 0.15625
                },
                {
                    "name": "C6",
                    "midi": 84,
                    "time": 265.78125,
                    "velocity": 0.15748031496062992,
                    "duration": 0.15625
                },
                {
                    "name": "D5",
                    "midi": 74,
                    "time": 265.9375,
                    "velocity": 0.15748031496062992,
                    "duration": 0.15625
                },
                {
                    "name": "D6",
                    "midi": 86,
                    "time": 265.9375,
                    "velocity": 0.15748031496062992,
                    "duration": 0.15625
                },
                {
                    "name": "E5",
                    "midi": 76,
                    "time": 266.09375,
                    "velocity": 0.15748031496062992,
                    "duration": 0.15625
                },
                {
                    "name": "E6",
                    "midi": 88,
                    "time": 266.09375,
                    "velocity": 0.15748031496062992,
                    "duration": 0.15625
                },
                {
                    "name": "F5",
                    "midi": 77,
                    "time": 266.25,
                    "velocity": 0.15748031496062992,
                    "duration": 0.15625
                },
                {
                    "name": "F6",
                    "midi": 89,
                    "time": 266.25,
                    "velocity": 0.15748031496062992,
                    "duration": 0.15625
                },
                {
                    "name": "F5",
                    "midi": 77,
                    "time": 266.40625,
                    "velocity": 0.15748031496062992,
                    "duration": 0.15625
                },
                {
                    "name": "F6",
                    "midi": 89,
                    "time": 266.40625,
                    "velocity": 0.15748031496062992,
                    "duration": 0.15625
                },
                {
                    "name": "F5",
                    "midi": 77,
                    "time": 266.5625,
                    "velocity": 0.15748031496062992,
                    "duration": 0.15625
                },
                {
                    "name": "F6",
                    "midi": 89,
                    "time": 266.5625,
                    "velocity": 0.15748031496062992,
                    "duration": 0.15625
                },
                {
                    "name": "F5",
                    "midi": 77,
                    "time": 266.71875,
                    "velocity": 0.15748031496062992,
                    "duration": 0.15625
                },
                {
                    "name": "F6",
                    "midi": 89,
                    "time": 266.71875,
                    "velocity": 0.15748031496062992,
                    "duration": 0.15625
                },
                {
                    "name": "E5",
                    "midi": 76,
                    "time": 266.875,
                    "velocity": 0.15748031496062992,
                    "duration": 0.15625
                },
                {
                    "name": "E6",
                    "midi": 88,
                    "time": 266.875,
                    "velocity": 0.15748031496062992,
                    "duration": 0.15625
                },
                {
                    "name": "D5",
                    "midi": 74,
                    "time": 267.03125,
                    "velocity": 0.15748031496062992,
                    "duration": 0.15625
                },
                {
                    "name": "D6",
                    "midi": 86,
                    "time": 267.03125,
                    "velocity": 0.15748031496062992,
                    "duration": 0.15625
                },
                {
                    "name": "C5",
                    "midi": 72,
                    "time": 267.1875,
                    "velocity": 0.15748031496062992,
                    "duration": 0.15625
                },
                {
                    "name": "C6",
                    "midi": 84,
                    "time": 267.1875,
                    "velocity": 0.15748031496062992,
                    "duration": 0.15625
                },
                {
                    "name": "A#4",
                    "midi": 70,
                    "time": 267.34375,
                    "velocity": 0.15748031496062992,
                    "duration": 0.15625
                },
                {
                    "name": "A#5",
                    "midi": 82,
                    "time": 267.34375,
                    "velocity": 0.15748031496062992,
                    "duration": 0.15625
                },
                {
                    "name": "B4",
                    "midi": 71,
                    "time": 267.5,
                    "velocity": 0.15748031496062992,
                    "duration": 0.15625
                },
                {
                    "name": "B5",
                    "midi": 83,
                    "time": 267.5,
                    "velocity": 0.15748031496062992,
                    "duration": 0.15625
                },
                {
                    "name": "B4",
                    "midi": 71,
                    "time": 267.65625,
                    "velocity": 0.15748031496062992,
                    "duration": 0.15625
                },
                {
                    "name": "B5",
                    "midi": 83,
                    "time": 267.65625,
                    "velocity": 0.15748031496062992,
                    "duration": 0.15625
                },
                {
                    "name": "B4",
                    "midi": 71,
                    "time": 267.8125,
                    "velocity": 0.15748031496062992,
                    "duration": 0.15625
                },
                {
                    "name": "B5",
                    "midi": 83,
                    "time": 267.8125,
                    "velocity": 0.15748031496062992,
                    "duration": 0.15625
                },
                {
                    "name": "B4",
                    "midi": 71,
                    "time": 267.96875,
                    "velocity": 0.15748031496062992,
                    "duration": 0.15625
                },
                {
                    "name": "B5",
                    "midi": 83,
                    "time": 267.96875,
                    "velocity": 0.15748031496062992,
                    "duration": 0.15625
                },
                {
                    "name": "B4",
                    "midi": 71,
                    "time": 268.125,
                    "velocity": 0.15748031496062992,
                    "duration": 0.15625
                },
                {
                    "name": "B5",
                    "midi": 83,
                    "time": 268.125,
                    "velocity": 0.15748031496062992,
                    "duration": 0.15625
                },
                {
                    "name": "C#5",
                    "midi": 73,
                    "time": 268.28125,
                    "velocity": 0.15748031496062992,
                    "duration": 0.15625
                },
                {
                    "name": "C#6",
                    "midi": 85,
                    "time": 268.28125,
                    "velocity": 0.15748031496062992,
                    "duration": 0.15625
                },
                {
                    "name": "D#5",
                    "midi": 75,
                    "time": 268.4375,
                    "velocity": 0.15748031496062992,
                    "duration": 0.15625
                },
                {
                    "name": "D#6",
                    "midi": 87,
                    "time": 268.4375,
                    "velocity": 0.15748031496062992,
                    "duration": 0.15625
                },
                {
                    "name": "E5",
                    "midi": 76,
                    "time": 268.59375,
                    "velocity": 0.15748031496062992,
                    "duration": 0.15625
                },
                {
                    "name": "E6",
                    "midi": 88,
                    "time": 268.59375,
                    "velocity": 0.15748031496062992,
                    "duration": 0.15625
                },
                {
                    "name": "F5",
                    "midi": 77,
                    "time": 268.75,
                    "velocity": 0.15748031496062992,
                    "duration": 0.15625
                },
                {
                    "name": "F6",
                    "midi": 89,
                    "time": 268.75,
                    "velocity": 0.15748031496062992,
                    "duration": 0.15625
                },
                {
                    "name": "F5",
                    "midi": 77,
                    "time": 268.90625,
                    "velocity": 0.15748031496062992,
                    "duration": 0.15625
                },
                {
                    "name": "F6",
                    "midi": 89,
                    "time": 268.90625,
                    "velocity": 0.15748031496062992,
                    "duration": 0.15625
                },
                {
                    "name": "F5",
                    "midi": 77,
                    "time": 269.0625,
                    "velocity": 0.15748031496062992,
                    "duration": 0.15625
                },
                {
                    "name": "F6",
                    "midi": 89,
                    "time": 269.0625,
                    "velocity": 0.15748031496062992,
                    "duration": 0.15625
                },
                {
                    "name": "F5",
                    "midi": 77,
                    "time": 269.21875,
                    "velocity": 0.15748031496062992,
                    "duration": 0.15625
                },
                {
                    "name": "F6",
                    "midi": 89,
                    "time": 269.21875,
                    "velocity": 0.15748031496062992,
                    "duration": 0.15625
                },
                {
                    "name": "E5",
                    "midi": 76,
                    "time": 269.375,
                    "velocity": 0.15748031496062992,
                    "duration": 0.15625
                },
                {
                    "name": "E6",
                    "midi": 88,
                    "time": 269.375,
                    "velocity": 0.15748031496062992,
                    "duration": 0.15625
                },
                {
                    "name": "D5",
                    "midi": 74,
                    "time": 269.53125,
                    "velocity": 0.15748031496062992,
                    "duration": 0.15625
                },
                {
                    "name": "D6",
                    "midi": 86,
                    "time": 269.53125,
                    "velocity": 0.15748031496062992,
                    "duration": 0.15625
                },
                {
                    "name": "C5",
                    "midi": 72,
                    "time": 269.6875,
                    "velocity": 0.15748031496062992,
                    "duration": 0.15625
                },
                {
                    "name": "C6",
                    "midi": 84,
                    "time": 269.6875,
                    "velocity": 0.15748031496062992,
                    "duration": 0.15625
                },
                {
                    "name": "B4",
                    "midi": 71,
                    "time": 269.84375,
                    "velocity": 0.15748031496062992,
                    "duration": 0.15625
                },
                {
                    "name": "B5",
                    "midi": 83,
                    "time": 269.84375,
                    "velocity": 0.15748031496062992,
                    "duration": 0.15625
                },
                {
                    "name": "A4",
                    "midi": 69,
                    "time": 270,
                    "velocity": 0.15748031496062992,
                    "duration": 0.15625
                },
                {
                    "name": "A5",
                    "midi": 81,
                    "time": 270,
                    "velocity": 0.15748031496062992,
                    "duration": 0.15625
                },
                {
                    "name": "A4",
                    "midi": 69,
                    "time": 270.15625,
                    "velocity": 0.15748031496062992,
                    "duration": 0.15625
                },
                {
                    "name": "A5",
                    "midi": 81,
                    "time": 270.15625,
                    "velocity": 0.15748031496062992,
                    "duration": 0.15625
                },
                {
                    "name": "A4",
                    "midi": 69,
                    "time": 270.3125,
                    "velocity": 0.15748031496062992,
                    "duration": 0.15625
                },
                {
                    "name": "A5",
                    "midi": 81,
                    "time": 270.3125,
                    "velocity": 0.15748031496062992,
                    "duration": 0.15625
                },
                {
                    "name": "A4",
                    "midi": 69,
                    "time": 270.46875,
                    "velocity": 0.15748031496062992,
                    "duration": 0.15625
                },
                {
                    "name": "A5",
                    "midi": 81,
                    "time": 270.46875,
                    "velocity": 0.15748031496062992,
                    "duration": 0.15625
                },
                {
                    "name": "A4",
                    "midi": 69,
                    "time": 270.625,
                    "velocity": 0.15748031496062992,
                    "duration": 0.15625
                },
                {
                    "name": "A5",
                    "midi": 81,
                    "time": 270.625,
                    "velocity": 0.15748031496062992,
                    "duration": 0.15625
                },
                {
                    "name": "A4",
                    "midi": 69,
                    "time": 270.78125,
                    "velocity": 0.15748031496062992,
                    "duration": 0.15625
                },
                {
                    "name": "A5",
                    "midi": 81,
                    "time": 270.78125,
                    "velocity": 0.15748031496062992,
                    "duration": 0.15625
                },
                {
                    "name": "G#4",
                    "midi": 68,
                    "time": 270.9375,
                    "velocity": 0.15748031496062992,
                    "duration": 0.15625
                },
                {
                    "name": "G#5",
                    "midi": 80,
                    "time": 270.9375,
                    "velocity": 0.15748031496062992,
                    "duration": 0.15625
                },
                {
                    "name": "A4",
                    "midi": 69,
                    "time": 271.09375,
                    "velocity": 0.15748031496062992,
                    "duration": 0.15625
                },
                {
                    "name": "A5",
                    "midi": 81,
                    "time": 271.09375,
                    "velocity": 0.15748031496062992,
                    "duration": 0.15625
                },
                {
                    "name": "B4",
                    "midi": 71,
                    "time": 271.25,
                    "velocity": 0.15748031496062992,
                    "duration": 0.15625
                },
                {
                    "name": "B5",
                    "midi": 83,
                    "time": 271.25,
                    "velocity": 0.15748031496062992,
                    "duration": 0.15625
                },
                {
                    "name": "B4",
                    "midi": 71,
                    "time": 271.40625,
                    "velocity": 0.16535433070866143,
                    "duration": 0.15625
                },
                {
                    "name": "B5",
                    "midi": 83,
                    "time": 271.40625,
                    "velocity": 0.16535433070866143,
                    "duration": 0.15625
                },
                {
                    "name": "E4",
                    "midi": 64,
                    "time": 271.5625,
                    "velocity": 0.18110236220472442,
                    "duration": 0.15625
                },
                {
                    "name": "E5",
                    "midi": 76,
                    "time": 271.5625,
                    "velocity": 0.18110236220472442,
                    "duration": 0.15625
                },
                {
                    "name": "E4",
                    "midi": 64,
                    "time": 271.71875,
                    "velocity": 0.1889763779527559,
                    "duration": 0.15625
                },
                {
                    "name": "E5",
                    "midi": 76,
                    "time": 271.71875,
                    "velocity": 0.1889763779527559,
                    "duration": 0.15625
                },
                {
                    "name": "E4",
                    "midi": 64,
                    "time": 271.875,
                    "velocity": 0.1968503937007874,
                    "duration": 0.15625
                },
                {
                    "name": "E5",
                    "midi": 76,
                    "time": 271.875,
                    "velocity": 0.1968503937007874,
                    "duration": 0.15625
                },
                {
                    "name": "E4",
                    "midi": 64,
                    "time": 272.03125,
                    "velocity": 0.2047244094488189,
                    "duration": 0.15625
                },
                {
                    "name": "E5",
                    "midi": 76,
                    "time": 272.03125,
                    "velocity": 0.2047244094488189,
                    "duration": 0.15625
                },
                {
                    "name": "E4",
                    "midi": 64,
                    "time": 272.1875,
                    "velocity": 0.2204724409448819,
                    "duration": 0.15625
                },
                {
                    "name": "E5",
                    "midi": 76,
                    "time": 272.1875,
                    "velocity": 0.2204724409448819,
                    "duration": 0.15625
                },
                {
                    "name": "E4",
                    "midi": 64,
                    "time": 272.34375,
                    "velocity": 0.2283464566929134,
                    "duration": 0.15625
                },
                {
                    "name": "E5",
                    "midi": 76,
                    "time": 272.34375,
                    "velocity": 0.2283464566929134,
                    "duration": 0.15625
                },
                {
                    "name": "A4",
                    "midi": 69,
                    "time": 272.5,
                    "velocity": 0.23622047244094488,
                    "duration": 0.15625
                },
                {
                    "name": "A5",
                    "midi": 81,
                    "time": 272.5,
                    "velocity": 0.23622047244094488,
                    "duration": 0.15625
                },
                {
                    "name": "A4",
                    "midi": 69,
                    "time": 272.65625,
                    "velocity": 0.2440944881889764,
                    "duration": 0.15625
                },
                {
                    "name": "A5",
                    "midi": 81,
                    "time": 272.65625,
                    "velocity": 0.2440944881889764,
                    "duration": 0.15625
                },
                {
                    "name": "A4",
                    "midi": 69,
                    "time": 272.8125,
                    "velocity": 0.2440944881889764,
                    "duration": 0.15625
                },
                {
                    "name": "A5",
                    "midi": 81,
                    "time": 272.8125,
                    "velocity": 0.2440944881889764,
                    "duration": 0.15625
                },
                {
                    "name": "A4",
                    "midi": 69,
                    "time": 272.96875,
                    "velocity": 0.25196850393700787,
                    "duration": 0.15625
                },
                {
                    "name": "A5",
                    "midi": 81,
                    "time": 272.96875,
                    "velocity": 0.25196850393700787,
                    "duration": 0.15625
                },
                {
                    "name": "A4",
                    "midi": 69,
                    "time": 273.125,
                    "velocity": 0.25984251968503935,
                    "duration": 0.15625
                },
                {
                    "name": "A5",
                    "midi": 81,
                    "time": 273.125,
                    "velocity": 0.25984251968503935,
                    "duration": 0.15625
                },
                {
                    "name": "B4",
                    "midi": 71,
                    "time": 273.28125,
                    "velocity": 0.25984251968503935,
                    "duration": 0.15625
                },
                {
                    "name": "B5",
                    "midi": 83,
                    "time": 273.28125,
                    "velocity": 0.25984251968503935,
                    "duration": 0.15625
                },
                {
                    "name": "C#5",
                    "midi": 73,
                    "time": 273.4375,
                    "velocity": 0.2677165354330709,
                    "duration": 0.15625
                },
                {
                    "name": "C#6",
                    "midi": 85,
                    "time": 273.4375,
                    "velocity": 0.2677165354330709,
                    "duration": 0.15625
                },
                {
                    "name": "D5",
                    "midi": 74,
                    "time": 273.59375,
                    "velocity": 0.2755905511811024,
                    "duration": 0.15625
                },
                {
                    "name": "D6",
                    "midi": 86,
                    "time": 273.59375,
                    "velocity": 0.2755905511811024,
                    "duration": 0.15625
                },
                {
                    "name": "E5",
                    "midi": 76,
                    "time": 273.75,
                    "velocity": 0.28346456692913385,
                    "duration": 0.15625
                },
                {
                    "name": "E6",
                    "midi": 88,
                    "time": 273.75,
                    "velocity": 0.28346456692913385,
                    "duration": 0.15625
                },
                {
                    "name": "E5",
                    "midi": 76,
                    "time": 273.90625,
                    "velocity": 0.28346456692913385,
                    "duration": 0.15625
                },
                {
                    "name": "E6",
                    "midi": 88,
                    "time": 273.90625,
                    "velocity": 0.28346456692913385,
                    "duration": 0.15625
                },
                {
                    "name": "E5",
                    "midi": 76,
                    "time": 274.0625,
                    "velocity": 0.29133858267716534,
                    "duration": 0.15625
                },
                {
                    "name": "E6",
                    "midi": 88,
                    "time": 274.0625,
                    "velocity": 0.29133858267716534,
                    "duration": 0.15625
                },
                {
                    "name": "E5",
                    "midi": 76,
                    "time": 274.21875,
                    "velocity": 0.2992125984251969,
                    "duration": 0.15625
                },
                {
                    "name": "E6",
                    "midi": 88,
                    "time": 274.21875,
                    "velocity": 0.2992125984251969,
                    "duration": 0.15625
                },
                {
                    "name": "D5",
                    "midi": 74,
                    "time": 274.375,
                    "velocity": 0.2992125984251969,
                    "duration": 0.15625
                },
                {
                    "name": "D6",
                    "midi": 86,
                    "time": 274.375,
                    "velocity": 0.2992125984251969,
                    "duration": 0.15625
                },
                {
                    "name": "C#5",
                    "midi": 73,
                    "time": 274.53125,
                    "velocity": 0.30708661417322836,
                    "duration": 0.15625
                },
                {
                    "name": "C#6",
                    "midi": 85,
                    "time": 274.53125,
                    "velocity": 0.30708661417322836,
                    "duration": 0.15625
                },
                {
                    "name": "B4",
                    "midi": 71,
                    "time": 274.6875,
                    "velocity": 0.31496062992125984,
                    "duration": 0.15625
                },
                {
                    "name": "B5",
                    "midi": 83,
                    "time": 274.6875,
                    "velocity": 0.31496062992125984,
                    "duration": 0.15625
                },
                {
                    "name": "A#4",
                    "midi": 70,
                    "time": 274.84375,
                    "velocity": 0.31496062992125984,
                    "duration": 0.15625
                },
                {
                    "name": "A#5",
                    "midi": 82,
                    "time": 274.84375,
                    "velocity": 0.31496062992125984,
                    "duration": 0.15625
                },
                {
                    "name": "B4",
                    "midi": 71,
                    "time": 275,
                    "velocity": 0.3228346456692913,
                    "duration": 0.15625
                },
                {
                    "name": "B5",
                    "midi": 83,
                    "time": 275,
                    "velocity": 0.3228346456692913,
                    "duration": 0.15625
                },
                {
                    "name": "B4",
                    "midi": 71,
                    "time": 275.15625,
                    "velocity": 0.33070866141732286,
                    "duration": 0.15625
                },
                {
                    "name": "B5",
                    "midi": 83,
                    "time": 275.15625,
                    "velocity": 0.33070866141732286,
                    "duration": 0.15625
                },
                {
                    "name": "B4",
                    "midi": 71,
                    "time": 275.3125,
                    "velocity": 0.33858267716535434,
                    "duration": 0.15625
                },
                {
                    "name": "B5",
                    "midi": 83,
                    "time": 275.3125,
                    "velocity": 0.33858267716535434,
                    "duration": 0.15625
                },
                {
                    "name": "B4",
                    "midi": 71,
                    "time": 275.46875,
                    "velocity": 0.33858267716535434,
                    "duration": 0.15625
                },
                {
                    "name": "B5",
                    "midi": 83,
                    "time": 275.46875,
                    "velocity": 0.33858267716535434,
                    "duration": 0.15625
                },
                {
                    "name": "B4",
                    "midi": 71,
                    "time": 275.625,
                    "velocity": 0.3464566929133858,
                    "duration": 0.15625
                },
                {
                    "name": "B5",
                    "midi": 83,
                    "time": 275.625,
                    "velocity": 0.3464566929133858,
                    "duration": 0.15625
                },
                {
                    "name": "C#5",
                    "midi": 73,
                    "time": 275.78125,
                    "velocity": 0.3543307086614173,
                    "duration": 0.15625
                },
                {
                    "name": "C#6",
                    "midi": 85,
                    "time": 275.78125,
                    "velocity": 0.3543307086614173,
                    "duration": 0.15625
                },
                {
                    "name": "D5",
                    "midi": 74,
                    "time": 275.9375,
                    "velocity": 0.3543307086614173,
                    "duration": 0.15625
                },
                {
                    "name": "D6",
                    "midi": 86,
                    "time": 275.9375,
                    "velocity": 0.3543307086614173,
                    "duration": 0.15625
                },
                {
                    "name": "E5",
                    "midi": 76,
                    "time": 276.09375,
                    "velocity": 0.36220472440944884,
                    "duration": 0.15625
                },
                {
                    "name": "E6",
                    "midi": 88,
                    "time": 276.09375,
                    "velocity": 0.36220472440944884,
                    "duration": 0.15625
                },
                {
                    "name": "F#5",
                    "midi": 78,
                    "time": 276.25,
                    "velocity": 0.3700787401574803,
                    "duration": 0.15625
                },
                {
                    "name": "F#6",
                    "midi": 90,
                    "time": 276.25,
                    "velocity": 0.3700787401574803,
                    "duration": 0.15625
                },
                {
                    "name": "F#5",
                    "midi": 78,
                    "time": 276.40625,
                    "velocity": 0.3700787401574803,
                    "duration": 0.15625
                },
                {
                    "name": "F#6",
                    "midi": 90,
                    "time": 276.40625,
                    "velocity": 0.3700787401574803,
                    "duration": 0.15625
                },
                {
                    "name": "F#5",
                    "midi": 78,
                    "time": 276.5625,
                    "velocity": 0.3779527559055118,
                    "duration": 0.15625
                },
                {
                    "name": "F#6",
                    "midi": 90,
                    "time": 276.5625,
                    "velocity": 0.3779527559055118,
                    "duration": 0.15625
                },
                {
                    "name": "F#5",
                    "midi": 78,
                    "time": 276.71875,
                    "velocity": 0.3858267716535433,
                    "duration": 0.15625
                },
                {
                    "name": "F#6",
                    "midi": 90,
                    "time": 276.71875,
                    "velocity": 0.3858267716535433,
                    "duration": 0.15625
                },
                {
                    "name": "B5",
                    "midi": 83,
                    "time": 276.875,
                    "velocity": 0.3858267716535433,
                    "duration": 0.15625
                },
                {
                    "name": "B6",
                    "midi": 95,
                    "time": 276.875,
                    "velocity": 0.3858267716535433,
                    "duration": 0.15625
                },
                {
                    "name": "A5",
                    "midi": 81,
                    "time": 277.03125,
                    "velocity": 0.3937007874015748,
                    "duration": 0.15625
                },
                {
                    "name": "A6",
                    "midi": 93,
                    "time": 277.03125,
                    "velocity": 0.3937007874015748,
                    "duration": 0.15625
                },
                {
                    "name": "G#5",
                    "midi": 80,
                    "time": 277.1875,
                    "velocity": 0.4015748031496063,
                    "duration": 0.15625
                },
                {
                    "name": "G#6",
                    "midi": 92,
                    "time": 277.1875,
                    "velocity": 0.4015748031496063,
                    "duration": 0.15625
                },
                {
                    "name": "F#5",
                    "midi": 78,
                    "time": 277.34375,
                    "velocity": 0.4094488188976378,
                    "duration": 0.15625
                },
                {
                    "name": "F#6",
                    "midi": 90,
                    "time": 277.34375,
                    "velocity": 0.4094488188976378,
                    "duration": 0.15625
                },
                {
                    "name": "E5",
                    "midi": 76,
                    "time": 277.5,
                    "velocity": 0.4094488188976378,
                    "duration": 0.15625
                },
                {
                    "name": "E6",
                    "midi": 88,
                    "time": 277.5,
                    "velocity": 0.4094488188976378,
                    "duration": 0.15625
                },
                {
                    "name": "E5",
                    "midi": 76,
                    "time": 277.65625,
                    "velocity": 0.41732283464566927,
                    "duration": 0.15625
                },
                {
                    "name": "E6",
                    "midi": 88,
                    "time": 277.65625,
                    "velocity": 0.41732283464566927,
                    "duration": 0.15625
                },
                {
                    "name": "E5",
                    "midi": 76,
                    "time": 277.8125,
                    "velocity": 0.4251968503937008,
                    "duration": 0.15625
                },
                {
                    "name": "E6",
                    "midi": 88,
                    "time": 277.8125,
                    "velocity": 0.4251968503937008,
                    "duration": 0.15625
                },
                {
                    "name": "E5",
                    "midi": 76,
                    "time": 277.96875,
                    "velocity": 0.4251968503937008,
                    "duration": 0.15625
                },
                {
                    "name": "E6",
                    "midi": 88,
                    "time": 277.96875,
                    "velocity": 0.4251968503937008,
                    "duration": 0.15625
                },
                {
                    "name": "A5",
                    "midi": 81,
                    "time": 278.125,
                    "velocity": 0.4330708661417323,
                    "duration": 0.15625
                },
                {
                    "name": "A6",
                    "midi": 93,
                    "time": 278.125,
                    "velocity": 0.4330708661417323,
                    "duration": 0.15625
                },
                {
                    "name": "G#5",
                    "midi": 80,
                    "time": 278.28125,
                    "velocity": 0.4409448818897638,
                    "duration": 0.15625
                },
                {
                    "name": "G#6",
                    "midi": 92,
                    "time": 278.28125,
                    "velocity": 0.4409448818897638,
                    "duration": 0.15625
                },
                {
                    "name": "F#5",
                    "midi": 78,
                    "time": 278.4375,
                    "velocity": 0.4409448818897638,
                    "duration": 0.15625
                },
                {
                    "name": "F#6",
                    "midi": 90,
                    "time": 278.4375,
                    "velocity": 0.4409448818897638,
                    "duration": 0.15625
                },
                {
                    "name": "E5",
                    "midi": 76,
                    "time": 278.59375,
                    "velocity": 0.44881889763779526,
                    "duration": 0.15625
                },
                {
                    "name": "E6",
                    "midi": 88,
                    "time": 278.59375,
                    "velocity": 0.44881889763779526,
                    "duration": 0.15625
                },
                {
                    "name": "D5",
                    "midi": 74,
                    "time": 278.75,
                    "velocity": 0.4566929133858268,
                    "duration": 0.15625
                },
                {
                    "name": "D6",
                    "midi": 86,
                    "time": 278.75,
                    "velocity": 0.4566929133858268,
                    "duration": 0.15625
                },
                {
                    "name": "D5",
                    "midi": 74,
                    "time": 278.90625,
                    "velocity": 0.4566929133858268,
                    "duration": 0.15625
                },
                {
                    "name": "D6",
                    "midi": 86,
                    "time": 278.90625,
                    "velocity": 0.4566929133858268,
                    "duration": 0.15625
                },
                {
                    "name": "D5",
                    "midi": 74,
                    "time": 279.0625,
                    "velocity": 0.4645669291338583,
                    "duration": 0.15625
                },
                {
                    "name": "D6",
                    "midi": 86,
                    "time": 279.0625,
                    "velocity": 0.4645669291338583,
                    "duration": 0.15625
                },
                {
                    "name": "D5",
                    "midi": 74,
                    "time": 279.21875,
                    "velocity": 0.47244094488188976,
                    "duration": 0.15625
                },
                {
                    "name": "D6",
                    "midi": 86,
                    "time": 279.21875,
                    "velocity": 0.47244094488188976,
                    "duration": 0.15625
                },
                {
                    "name": "G#5",
                    "midi": 80,
                    "time": 279.375,
                    "velocity": 0.48031496062992124,
                    "duration": 0.15625
                },
                {
                    "name": "G#6",
                    "midi": 92,
                    "time": 279.375,
                    "velocity": 0.48031496062992124,
                    "duration": 0.15625
                },
                {
                    "name": "F#5",
                    "midi": 78,
                    "time": 279.53125,
                    "velocity": 0.48031496062992124,
                    "duration": 0.15625
                },
                {
                    "name": "F#6",
                    "midi": 90,
                    "time": 279.53125,
                    "velocity": 0.48031496062992124,
                    "duration": 0.15625
                },
                {
                    "name": "E5",
                    "midi": 76,
                    "time": 279.6875,
                    "velocity": 0.4881889763779528,
                    "duration": 0.15625
                },
                {
                    "name": "E6",
                    "midi": 88,
                    "time": 279.6875,
                    "velocity": 0.4881889763779528,
                    "duration": 0.15625
                },
                {
                    "name": "D5",
                    "midi": 74,
                    "time": 279.84375,
                    "velocity": 0.49606299212598426,
                    "duration": 0.15625
                },
                {
                    "name": "D6",
                    "midi": 86,
                    "time": 279.84375,
                    "velocity": 0.49606299212598426,
                    "duration": 0.15625
                },
                {
                    "name": "C#5",
                    "midi": 73,
                    "time": 280,
                    "velocity": 0.49606299212598426,
                    "duration": 0.15625
                },
                {
                    "name": "C#6",
                    "midi": 85,
                    "time": 280,
                    "velocity": 0.49606299212598426,
                    "duration": 0.15625
                },
                {
                    "name": "C#5",
                    "midi": 73,
                    "time": 280.15625,
                    "velocity": 0.5039370078740157,
                    "duration": 0.15625
                },
                {
                    "name": "C#6",
                    "midi": 85,
                    "time": 280.15625,
                    "velocity": 0.5039370078740157,
                    "duration": 0.15625
                },
                {
                    "name": "C#5",
                    "midi": 73,
                    "time": 280.3125,
                    "velocity": 0.5118110236220472,
                    "duration": 0.15625
                },
                {
                    "name": "C#6",
                    "midi": 85,
                    "time": 280.3125,
                    "velocity": 0.5118110236220472,
                    "duration": 0.15625
                },
                {
                    "name": "C#5",
                    "midi": 73,
                    "time": 280.46875,
                    "velocity": 0.5118110236220472,
                    "duration": 0.15625
                },
                {
                    "name": "C#6",
                    "midi": 85,
                    "time": 280.46875,
                    "velocity": 0.5118110236220472,
                    "duration": 0.15625
                },
                {
                    "name": "F#5",
                    "midi": 78,
                    "time": 280.625,
                    "velocity": 0.5196850393700787,
                    "duration": 0.15625
                },
                {
                    "name": "F#6",
                    "midi": 90,
                    "time": 280.625,
                    "velocity": 0.5196850393700787,
                    "duration": 0.15625
                },
                {
                    "name": "E5",
                    "midi": 76,
                    "time": 280.78125,
                    "velocity": 0.5275590551181102,
                    "duration": 0.15625
                },
                {
                    "name": "E6",
                    "midi": 88,
                    "time": 280.78125,
                    "velocity": 0.5275590551181102,
                    "duration": 0.15625
                },
                {
                    "name": "D5",
                    "midi": 74,
                    "time": 280.9375,
                    "velocity": 0.5354330708661418,
                    "duration": 0.15625
                },
                {
                    "name": "D6",
                    "midi": 86,
                    "time": 280.9375,
                    "velocity": 0.5354330708661418,
                    "duration": 0.15625
                },
                {
                    "name": "C#5",
                    "midi": 73,
                    "time": 281.09375,
                    "velocity": 0.5354330708661418,
                    "duration": 0.15625
                },
                {
                    "name": "C#6",
                    "midi": 85,
                    "time": 281.09375,
                    "velocity": 0.5354330708661418,
                    "duration": 0.15625
                },
                {
                    "name": "B4",
                    "midi": 71,
                    "time": 281.25,
                    "velocity": 0.5433070866141733,
                    "duration": 0.15625
                },
                {
                    "name": "B5",
                    "midi": 83,
                    "time": 281.25,
                    "velocity": 0.5433070866141733,
                    "duration": 0.15625
                },
                {
                    "name": "B4",
                    "midi": 71,
                    "time": 281.40625,
                    "velocity": 0.5511811023622047,
                    "duration": 0.15625
                },
                {
                    "name": "B5",
                    "midi": 83,
                    "time": 281.40625,
                    "velocity": 0.5511811023622047,
                    "duration": 0.15625
                },
                {
                    "name": "B4",
                    "midi": 71,
                    "time": 281.5625,
                    "velocity": 0.5511811023622047,
                    "duration": 0.15625
                },
                {
                    "name": "B5",
                    "midi": 83,
                    "time": 281.5625,
                    "velocity": 0.5511811023622047,
                    "duration": 0.15625
                },
                {
                    "name": "B4",
                    "midi": 71,
                    "time": 281.71875,
                    "velocity": 0.5590551181102362,
                    "duration": 0.15625
                },
                {
                    "name": "B5",
                    "midi": 83,
                    "time": 281.71875,
                    "velocity": 0.5590551181102362,
                    "duration": 0.15625
                },
                {
                    "name": "E5",
                    "midi": 76,
                    "time": 281.875,
                    "velocity": 0.5669291338582677,
                    "duration": 0.15625
                },
                {
                    "name": "E6",
                    "midi": 88,
                    "time": 281.875,
                    "velocity": 0.5669291338582677,
                    "duration": 0.15625
                },
                {
                    "name": "D5",
                    "midi": 74,
                    "time": 282.03125,
                    "velocity": 0.5669291338582677,
                    "duration": 0.15625
                },
                {
                    "name": "D6",
                    "midi": 86,
                    "time": 282.03125,
                    "velocity": 0.5669291338582677,
                    "duration": 0.15625
                },
                {
                    "name": "C#5",
                    "midi": 73,
                    "time": 282.1875,
                    "velocity": 0.5748031496062992,
                    "duration": 0.15625
                },
                {
                    "name": "C#6",
                    "midi": 85,
                    "time": 282.1875,
                    "velocity": 0.5748031496062992,
                    "duration": 0.15625
                },
                {
                    "name": "B4",
                    "midi": 71,
                    "time": 282.34375,
                    "velocity": 0.5826771653543307,
                    "duration": 0.15625
                },
                {
                    "name": "B5",
                    "midi": 83,
                    "time": 282.34375,
                    "velocity": 0.5826771653543307,
                    "duration": 0.15625
                },
                {
                    "name": "A4",
                    "midi": 69,
                    "time": 282.5,
                    "velocity": 0.6299212598425197,
                    "duration": 0.3125
                },
                {
                    "name": "A5",
                    "midi": 81,
                    "time": 282.5,
                    "velocity": 0.6299212598425197,
                    "duration": 0.3125
                },
                {
                    "name": "E4",
                    "midi": 64,
                    "time": 283.90625,
                    "velocity": 0.6299212598425197,
                    "duration": 0.15625
                },
                {
                    "name": "G4",
                    "midi": 67,
                    "time": 283.984375,
                    "velocity": 0.6299212598425197,
                    "duration": 0.078125
                },
                {
                    "name": "F4",
                    "midi": 65,
                    "time": 284.0625,
                    "velocity": 0.6299212598425197,
                    "duration": 0.15625
                },
                {
                    "name": "E4",
                    "midi": 64,
                    "time": 284.21875,
                    "velocity": 0.6299212598425197,
                    "duration": 0.15625
                },
                {
                    "name": "E4",
                    "midi": 64,
                    "time": 284.375,
                    "velocity": 0.6299212598425197,
                    "duration": 0.15625
                },
                {
                    "name": "A4",
                    "midi": 69,
                    "time": 284.53125,
                    "velocity": 0.6299212598425197,
                    "duration": 0.15625
                },
                {
                    "name": "F4",
                    "midi": 65,
                    "time": 284.6875,
                    "velocity": 0.6299212598425197,
                    "duration": 0.15625
                },
                {
                    "name": "D4",
                    "midi": 62,
                    "time": 284.84375,
                    "velocity": 0.6299212598425197,
                    "duration": 0.15625
                },
                {
                    "name": "B3",
                    "midi": 59,
                    "time": 285,
                    "velocity": 0.6299212598425197,
                    "duration": 0.15625
                },
                {
                    "name": "E4",
                    "midi": 64,
                    "time": 285,
                    "velocity": 0.6299212598425197,
                    "duration": 0.15625
                },
                {
                    "name": "E4",
                    "midi": 64,
                    "time": 285.15625,
                    "velocity": 0.6299212598425197,
                    "duration": 0.15625
                },
                {
                    "name": "G#4",
                    "midi": 68,
                    "time": 285.3125,
                    "velocity": 1,
                    "duration": 0.625
                },
                {
                    "name": "E4",
                    "midi": 64,
                    "time": 285.3125,
                    "velocity": 0.6299212598425197,
                    "duration": 0.15625
                },
                {
                    "name": "E4",
                    "midi": 64,
                    "time": 285.46875,
                    "velocity": 0.6299212598425197,
                    "duration": 0.15625
                },
                {
                    "name": "E4",
                    "midi": 64,
                    "time": 285.625,
                    "velocity": 0.6299212598425197,
                    "duration": 0.15625
                },
                {
                    "name": "D4",
                    "midi": 62,
                    "time": 285.78125,
                    "velocity": 0.6299212598425197,
                    "duration": 0.15625
                },
                {
                    "name": "A4",
                    "midi": 69,
                    "time": 285.9375,
                    "velocity": 0.6299212598425197,
                    "duration": 0.3125
                },
                {
                    "name": "C4",
                    "midi": 60,
                    "time": 285.9375,
                    "velocity": 0.6299212598425197,
                    "duration": 0.15625
                },
                {
                    "name": "B3",
                    "midi": 59,
                    "time": 286.09375,
                    "velocity": 0.6299212598425197,
                    "duration": 0.15625
                },
                {
                    "name": "D4",
                    "midi": 62,
                    "time": 286.25,
                    "velocity": 0.6299212598425197,
                    "duration": 0.3125
                },
                {
                    "name": "A3",
                    "midi": 57,
                    "time": 286.25,
                    "velocity": 0.6299212598425197,
                    "duration": 0.625
                },
                {
                    "name": "F4",
                    "midi": 65,
                    "time": 286.5625,
                    "velocity": 0.6299212598425197,
                    "duration": 0.625
                },
                {
                    "name": "G#3",
                    "midi": 56,
                    "time": 286.875,
                    "velocity": 0.6299212598425197,
                    "duration": 0.3125
                },
                {
                    "name": "E4",
                    "midi": 64,
                    "time": 287.1875,
                    "velocity": 0.6299212598425197,
                    "duration": 0.3125
                },
                {
                    "name": "D4",
                    "midi": 62,
                    "time": 287.1875,
                    "velocity": 0.6299212598425197,
                    "duration": 0.3125
                },
                {
                    "name": "A4",
                    "midi": 69,
                    "time": 287.5,
                    "velocity": 0.6299212598425197,
                    "duration": 0.15625
                },
                {
                    "name": "A4",
                    "midi": 69,
                    "time": 287.65625,
                    "velocity": 0.6299212598425197,
                    "duration": 0.15625
                },
                {
                    "name": "A4",
                    "midi": 69,
                    "time": 287.8125,
                    "velocity": 0.6299212598425197,
                    "duration": 0.15625
                },
                {
                    "name": "C#4",
                    "midi": 61,
                    "time": 287.8125,
                    "velocity": 1,
                    "duration": 0.625
                },
                {
                    "name": "A4",
                    "midi": 69,
                    "time": 287.96875,
                    "velocity": 0.6299212598425197,
                    "duration": 0.15625
                },
                {
                    "name": "A4",
                    "midi": 69,
                    "time": 288.125,
                    "velocity": 0.6299212598425197,
                    "duration": 0.15625
                },
                {
                    "name": "G4",
                    "midi": 67,
                    "time": 288.28125,
                    "velocity": 0.6299212598425197,
                    "duration": 0.15625
                },
                {
                    "name": "F4",
                    "midi": 65,
                    "time": 288.4375,
                    "velocity": 0.6299212598425197,
                    "duration": 0.15625
                },
                {
                    "name": "D4",
                    "midi": 62,
                    "time": 288.4375,
                    "velocity": 0.6299212598425197,
                    "duration": 0.3125
                },
                {
                    "name": "E4",
                    "midi": 64,
                    "time": 288.59375,
                    "velocity": 0.6299212598425197,
                    "duration": 0.15625
                },
                {
                    "name": "D4",
                    "midi": 62,
                    "time": 288.75,
                    "velocity": 0.6299212598425197,
                    "duration": 0.625
                },
                {
                    "name": "G#3",
                    "midi": 56,
                    "time": 288.75,
                    "velocity": 0.6299212598425197,
                    "duration": 0.3125
                },
                {
                    "name": "B3",
                    "midi": 59,
                    "time": 289.0625,
                    "velocity": 0.6299212598425197,
                    "duration": 0.625
                },
                {
                    "name": "C4",
                    "midi": 60,
                    "time": 289.375,
                    "velocity": 0.6299212598425197,
                    "duration": 0.3125
                },
                {
                    "name": "E4",
                    "midi": 64,
                    "time": 289.6875,
                    "velocity": 0.6299212598425197,
                    "duration": 0.3125
                },
                {
                    "name": "A3",
                    "midi": 57,
                    "time": 289.6875,
                    "velocity": 0.6299212598425197,
                    "duration": 0.3125
                },
                {
                    "name": "F4",
                    "midi": 65,
                    "time": 290,
                    "velocity": 0.6299212598425197,
                    "duration": 0.625
                },
                {
                    "name": "A3",
                    "midi": 57,
                    "time": 290,
                    "velocity": 0.6299212598425197,
                    "duration": 0.15625
                },
                {
                    "name": "A4",
                    "midi": 69,
                    "time": 290.15625,
                    "velocity": 0.6299212598425197,
                    "duration": 0.15625
                },
                {
                    "name": "A4",
                    "midi": 69,
                    "time": 290.3125,
                    "velocity": 0.6299212598425197,
                    "duration": 0.15625
                },
                {
                    "name": "A4",
                    "midi": 69,
                    "time": 290.46875,
                    "velocity": 0.6299212598425197,
                    "duration": 0.15625
                },
                {
                    "name": "D4",
                    "midi": 62,
                    "time": 290.625,
                    "velocity": 0.6299212598425197,
                    "duration": 0.625
                },
                {
                    "name": "A4",
                    "midi": 69,
                    "time": 290.625,
                    "velocity": 0.6299212598425197,
                    "duration": 0.15625
                },
                {
                    "name": "G#4",
                    "midi": 68,
                    "time": 290.78125,
                    "velocity": 0.6299212598425197,
                    "duration": 0.15625
                },
                {
                    "name": "F#4",
                    "midi": 66,
                    "time": 290.9375,
                    "velocity": 0.6299212598425197,
                    "duration": 0.15625
                },
                {
                    "name": "E4",
                    "midi": 64,
                    "time": 291.09375,
                    "velocity": 0.6299212598425197,
                    "duration": 0.15625
                },
                {
                    "name": "C4",
                    "midi": 60,
                    "time": 291.25,
                    "velocity": 0.6299212598425197,
                    "duration": 0.3125
                },
                {
                    "name": "E4",
                    "midi": 64,
                    "time": 291.25,
                    "velocity": 0.6299212598425197,
                    "duration": 0.3125
                },
                {
                    "name": "C#4",
                    "midi": 61,
                    "time": 291.5625,
                    "velocity": 0.6299212598425197,
                    "duration": 0.625
                },
                {
                    "name": "D4",
                    "midi": 62,
                    "time": 292.1875,
                    "velocity": 0.6299212598425197,
                    "duration": 0.3125
                },
                {
                    "name": "F4",
                    "midi": 65,
                    "time": 292.5,
                    "velocity": 0.6299212598425197,
                    "duration": 0.15625
                },
                {
                    "name": "F4",
                    "midi": 65,
                    "time": 292.65625,
                    "velocity": 0.6299212598425197,
                    "duration": 0.15625
                },
                {
                    "name": "F4",
                    "midi": 65,
                    "time": 292.8125,
                    "velocity": 0.6299212598425197,
                    "duration": 0.15625
                },
                {
                    "name": "G4",
                    "midi": 67,
                    "time": 292.8125,
                    "velocity": 0.6299212598425197,
                    "duration": 0.625
                },
                {
                    "name": "F4",
                    "midi": 65,
                    "time": 292.96875,
                    "velocity": 0.6299212598425197,
                    "duration": 0.15625
                },
                {
                    "name": "F4",
                    "midi": 65,
                    "time": 293.125,
                    "velocity": 0.6299212598425197,
                    "duration": 0.15625
                },
                {
                    "name": "E4",
                    "midi": 64,
                    "time": 293.28125,
                    "velocity": 0.6299212598425197,
                    "duration": 0.15625
                },
                {
                    "name": "D4",
                    "midi": 62,
                    "time": 293.4375,
                    "velocity": 0.6299212598425197,
                    "duration": 0.15625
                },
                {
                    "name": "A4",
                    "midi": 69,
                    "time": 293.4375,
                    "velocity": 0.6299212598425197,
                    "duration": 0.3125
                },
                {
                    "name": "C#4",
                    "midi": 61,
                    "time": 293.59375,
                    "velocity": 0.6299212598425197,
                    "duration": 0.15625
                },
                {
                    "name": "D4",
                    "midi": 62,
                    "time": 293.75,
                    "velocity": 0.6299212598425197,
                    "duration": 0.3125
                },
                {
                    "name": "D4",
                    "midi": 62,
                    "time": 293.75,
                    "velocity": 0.6299212598425197,
                    "duration": 0.625
                },
                {
                    "name": "F4",
                    "midi": 65,
                    "time": 294.0625,
                    "velocity": 0.6377952755905512,
                    "duration": 0.46875
                },
                {
                    "name": "D4",
                    "midi": 62,
                    "time": 294.375,
                    "velocity": 0.6456692913385826,
                    "duration": 0.3125
                },
                {
                    "name": "E4",
                    "midi": 64,
                    "time": 294.53125,
                    "velocity": 0.6456692913385826,
                    "duration": 0.15625
                },
                {
                    "name": "B3",
                    "midi": 59,
                    "time": 294.6875,
                    "velocity": 0.6535433070866141,
                    "duration": 0.3125
                },
                {
                    "name": "F#4",
                    "midi": 66,
                    "time": 294.6875,
                    "velocity": 0.6535433070866141,
                    "duration": 0.15625
                },
                {
                    "name": "G#4",
                    "midi": 68,
                    "time": 294.84375,
                    "velocity": 0.6535433070866141,
                    "duration": 0.15625
                },
                {
                    "name": "A4",
                    "midi": 69,
                    "time": 295,
                    "velocity": 0.6535433070866141,
                    "duration": 0.3125
                },
                {
                    "name": "E5",
                    "midi": 76,
                    "time": 295,
                    "velocity": 0.6535433070866141,
                    "duration": 0.15625
                },
                {
                    "name": "E5",
                    "midi": 76,
                    "time": 295.15625,
                    "velocity": 0.6614173228346457,
                    "duration": 0.15625
                },
                {
                    "name": "G4",
                    "midi": 67,
                    "time": 295.3125,
                    "velocity": 0.6614173228346457,
                    "duration": 0.3125
                },
                {
                    "name": "E5",
                    "midi": 76,
                    "time": 295.3125,
                    "velocity": 0.6614173228346457,
                    "duration": 0.15625
                },
                {
                    "name": "E5",
                    "midi": 76,
                    "time": 295.46875,
                    "velocity": 0.6692913385826772,
                    "duration": 0.15625
                },
                {
                    "name": "F4",
                    "midi": 65,
                    "time": 295.625,
                    "velocity": 0.6692913385826772,
                    "duration": 0.3125
                },
                {
                    "name": "E5",
                    "midi": 76,
                    "time": 295.625,
                    "velocity": 0.6692913385826772,
                    "duration": 0.15625
                },
                {
                    "name": "D5",
                    "midi": 74,
                    "time": 295.78125,
                    "velocity": 0.6692913385826772,
                    "duration": 0.15625
                },
                {
                    "name": "F#4",
                    "midi": 66,
                    "time": 295.9375,
                    "velocity": 0.6771653543307087,
                    "duration": 0.3125
                },
                {
                    "name": "C5",
                    "midi": 72,
                    "time": 295.9375,
                    "velocity": 0.6771653543307087,
                    "duration": 0.15625
                },
                {
                    "name": "B4",
                    "midi": 71,
                    "time": 296.09375,
                    "velocity": 0.6771653543307087,
                    "duration": 0.15625
                },
                {
                    "name": "E4",
                    "midi": 64,
                    "time": 296.25,
                    "velocity": 0.7086614173228346,
                    "duration": 0.3125
                },
                {
                    "name": "B4",
                    "midi": 71,
                    "time": 296.25,
                    "velocity": 0.7086614173228346,
                    "duration": 0.3125
                },
                {
                    "name": "G#4",
                    "midi": 68,
                    "time": 296.5625,
                    "velocity": 1,
                    "duration": 0.625
                },
                {
                    "name": "E5",
                    "midi": 76,
                    "time": 296.5625,
                    "velocity": 1,
                    "duration": 0.9375
                },
                {
                    "name": "G#5",
                    "midi": 80,
                    "time": 296.5625,
                    "velocity": 1,
                    "duration": 0.625
                },
                {
                    "name": "A4",
                    "midi": 69,
                    "time": 297.1875,
                    "velocity": 0.7322834645669292,
                    "duration": 0.625
                },
                {
                    "name": "A5",
                    "midi": 81,
                    "time": 297.1875,
                    "velocity": 0.7322834645669292,
                    "duration": 0.625
                },
                {
                    "name": "D4",
                    "midi": 62,
                    "time": 297.8125,
                    "velocity": 0.7480314960629921,
                    "duration": 0.15625
                },
                {
                    "name": "D5",
                    "midi": 74,
                    "time": 297.8125,
                    "velocity": 0.7480314960629921,
                    "duration": 0.15625
                },
                {
                    "name": "A4",
                    "midi": 69,
                    "time": 297.8125,
                    "velocity": 0.7480314960629921,
                    "duration": 0.46875
                },
                {
                    "name": "E4",
                    "midi": 64,
                    "time": 297.96875,
                    "velocity": 0.7559055118110236,
                    "duration": 0.15625
                },
                {
                    "name": "E5",
                    "midi": 76,
                    "time": 297.96875,
                    "velocity": 0.7559055118110236,
                    "duration": 0.15625
                },
                {
                    "name": "F4",
                    "midi": 65,
                    "time": 298.125,
                    "velocity": 0.7559055118110236,
                    "duration": 0.3125
                },
                {
                    "name": "F5",
                    "midi": 77,
                    "time": 298.125,
                    "velocity": 0.7559055118110236,
                    "duration": 0.3125
                },
                {
                    "name": "E5",
                    "midi": 76,
                    "time": 298.28125,
                    "velocity": 0.7637795275590551,
                    "duration": 0.15625
                },
                {
                    "name": "F4",
                    "midi": 65,
                    "time": 298.4375,
                    "velocity": 0.7716535433070866,
                    "duration": 0.3125
                },
                {
                    "name": "F#5",
                    "midi": 78,
                    "time": 298.4375,
                    "velocity": 0.7716535433070866,
                    "duration": 0.3125
                },
                {
                    "name": "D5",
                    "midi": 74,
                    "time": 298.4375,
                    "velocity": 0.7716535433070866,
                    "duration": 0.15625
                },
                {
                    "name": "C5",
                    "midi": 72,
                    "time": 298.59375,
                    "velocity": 0.7716535433070866,
                    "duration": 0.15625
                },
                {
                    "name": "G4",
                    "midi": 67,
                    "time": 298.75,
                    "velocity": 0.7795275590551181,
                    "duration": 0.15625
                },
                {
                    "name": "B4",
                    "midi": 71,
                    "time": 298.75,
                    "velocity": 0.7795275590551181,
                    "duration": 0.15625
                },
                {
                    "name": "G5",
                    "midi": 79,
                    "time": 298.75,
                    "velocity": 0.7795275590551181,
                    "duration": 0.15625
                },
                {
                    "name": "G#5",
                    "midi": 80,
                    "time": 298.90625,
                    "velocity": 0.7795275590551181,
                    "duration": 0.15625
                },
                {
                    "name": "A5",
                    "midi": 81,
                    "time": 299.0625,
                    "velocity": 0.7874015748031497,
                    "duration": 0.15625
                },
                {
                    "name": "G5",
                    "midi": 79,
                    "time": 299.21875,
                    "velocity": 0.7874015748031497,
                    "duration": 0.15625
                },
                {
                    "name": "F5",
                    "midi": 77,
                    "time": 299.375,
                    "velocity": 0.7952755905511811,
                    "duration": 0.15625
                },
                {
                    "name": "A4",
                    "midi": 69,
                    "time": 299.375,
                    "velocity": 0.7952755905511811,
                    "duration": 0.3125
                },
                {
                    "name": "E5",
                    "midi": 76,
                    "time": 299.53125,
                    "velocity": 0.7952755905511811,
                    "duration": 0.15625
                },
                {
                    "name": "D5",
                    "midi": 74,
                    "time": 299.6875,
                    "velocity": 0.8031496062992126,
                    "duration": 0.15625
                },
                {
                    "name": "D5",
                    "midi": 74,
                    "time": 299.6875,
                    "velocity": 0.8031496062992126,
                    "duration": 0.46875
                },
                {
                    "name": "A5",
                    "midi": 81,
                    "time": 299.6875,
                    "velocity": 0.8031496062992126,
                    "duration": 0.625
                },
                {
                    "name": "C5",
                    "midi": 72,
                    "time": 299.84375,
                    "velocity": 0.8031496062992126,
                    "duration": 0.15625
                },
                {
                    "name": "D5",
                    "midi": 74,
                    "time": 300,
                    "velocity": 0.8110236220472441,
                    "duration": 0.15625
                },
                {
                    "name": "B4",
                    "midi": 71,
                    "time": 300,
                    "velocity": 0.8110236220472441,
                    "duration": 0.625
                },
                {
                    "name": "D5",
                    "midi": 74,
                    "time": 300.15625,
                    "velocity": 0.8110236220472441,
                    "duration": 0.15625
                },
                {
                    "name": "G5",
                    "midi": 79,
                    "time": 300.3125,
                    "velocity": 0.8188976377952756,
                    "duration": 0.15625
                },
                {
                    "name": "G5",
                    "midi": 79,
                    "time": 300.3125,
                    "velocity": 0.8188976377952756,
                    "duration": 0.625
                },
                {
                    "name": "F5",
                    "midi": 77,
                    "time": 300.46875,
                    "velocity": 0.8188976377952756,
                    "duration": 0.15625
                },
                {
                    "name": "E5",
                    "midi": 76,
                    "time": 300.625,
                    "velocity": 0.8267716535433071,
                    "duration": 0.15625
                },
                {
                    "name": "G4",
                    "midi": 67,
                    "time": 300.625,
                    "velocity": 0.8267716535433071,
                    "duration": 0.3125
                },
                {
                    "name": "D5",
                    "midi": 74,
                    "time": 300.78125,
                    "velocity": 0.8346456692913385,
                    "duration": 0.15625
                },
                {
                    "name": "C5",
                    "midi": 72,
                    "time": 300.9375,
                    "velocity": 0.8346456692913385,
                    "duration": 0.15625
                },
                {
                    "name": "C5",
                    "midi": 72,
                    "time": 300.9375,
                    "velocity": 0.8346456692913385,
                    "duration": 0.46875
                },
                {
                    "name": "G5",
                    "midi": 79,
                    "time": 300.9375,
                    "velocity": 0.8346456692913385,
                    "duration": 0.625
                },
                {
                    "name": "B4",
                    "midi": 71,
                    "time": 301.09375,
                    "velocity": 0.84251968503937,
                    "duration": 0.15625
                },
                {
                    "name": "C5",
                    "midi": 72,
                    "time": 301.25,
                    "velocity": 0.84251968503937,
                    "duration": 0.15625
                },
                {
                    "name": "A4",
                    "midi": 69,
                    "time": 301.25,
                    "velocity": 0.84251968503937,
                    "duration": 0.625
                },
                {
                    "name": "C5",
                    "midi": 72,
                    "time": 301.40625,
                    "velocity": 0.8503937007874016,
                    "duration": 0.15625
                },
                {
                    "name": "F5",
                    "midi": 77,
                    "time": 301.5625,
                    "velocity": 0.8503937007874016,
                    "duration": 0.15625
                },
                {
                    "name": "F5",
                    "midi": 77,
                    "time": 301.5625,
                    "velocity": 0.8503937007874016,
                    "duration": 0.625
                },
                {
                    "name": "E5",
                    "midi": 76,
                    "time": 301.71875,
                    "velocity": 0.8582677165354331,
                    "duration": 0.15625
                },
                {
                    "name": "D5",
                    "midi": 74,
                    "time": 301.875,
                    "velocity": 0.8582677165354331,
                    "duration": 0.15625
                },
                {
                    "name": "F4",
                    "midi": 65,
                    "time": 301.875,
                    "velocity": 0.8582677165354331,
                    "duration": 0.3125
                },
                {
                    "name": "C5",
                    "midi": 72,
                    "time": 302.03125,
                    "velocity": 0.8661417322834646,
                    "duration": 0.15625
                },
                {
                    "name": "B4",
                    "midi": 71,
                    "time": 302.1875,
                    "velocity": 0.8661417322834646,
                    "duration": 0.15625
                },
                {
                    "name": "B4",
                    "midi": 71,
                    "time": 302.1875,
                    "velocity": 0.8661417322834646,
                    "duration": 0.46875
                },
                {
                    "name": "F5",
                    "midi": 77,
                    "time": 302.1875,
                    "velocity": 0.8661417322834646,
                    "duration": 0.625
                },
                {
                    "name": "A4",
                    "midi": 69,
                    "time": 302.34375,
                    "velocity": 0.8740157480314961,
                    "duration": 0.15625
                },
                {
                    "name": "B4",
                    "midi": 71,
                    "time": 302.5,
                    "velocity": 0.8740157480314961,
                    "duration": 0.15625
                },
                {
                    "name": "G4",
                    "midi": 67,
                    "time": 302.5,
                    "velocity": 0.8740157480314961,
                    "duration": 0.625
                },
                {
                    "name": "B4",
                    "midi": 71,
                    "time": 302.65625,
                    "velocity": 0.8818897637795275,
                    "duration": 0.15625
                },
                {
                    "name": "E5",
                    "midi": 76,
                    "time": 302.8125,
                    "velocity": 0.889763779527559,
                    "duration": 0.15625
                },
                {
                    "name": "E5",
                    "midi": 76,
                    "time": 302.8125,
                    "velocity": 0.889763779527559,
                    "duration": 0.625
                },
                {
                    "name": "D5",
                    "midi": 74,
                    "time": 302.96875,
                    "velocity": 0.889763779527559,
                    "duration": 0.15625
                },
                {
                    "name": "C5",
                    "midi": 72,
                    "time": 303.125,
                    "velocity": 0.8976377952755905,
                    "duration": 0.15625
                },
                {
                    "name": "E4",
                    "midi": 64,
                    "time": 303.125,
                    "velocity": 0.8976377952755905,
                    "duration": 0.3125
                },
                {
                    "name": "B4",
                    "midi": 71,
                    "time": 303.28125,
                    "velocity": 0.8976377952755905,
                    "duration": 0.15625
                },
                {
                    "name": "A4",
                    "midi": 69,
                    "time": 303.4375,
                    "velocity": 0.905511811023622,
                    "duration": 0.15625
                },
                {
                    "name": "A4",
                    "midi": 69,
                    "time": 303.4375,
                    "velocity": 0.905511811023622,
                    "duration": 0.46875
                },
                {
                    "name": "E5",
                    "midi": 76,
                    "time": 303.4375,
                    "velocity": 0.905511811023622,
                    "duration": 0.46875
                },
                {
                    "name": "G4",
                    "midi": 67,
                    "time": 303.59375,
                    "velocity": 0.905511811023622,
                    "duration": 0.15625
                },
                {
                    "name": "A4",
                    "midi": 69,
                    "time": 303.75,
                    "velocity": 0.9133858267716536,
                    "duration": 0.15625
                },
                {
                    "name": "F4",
                    "midi": 65,
                    "time": 303.75,
                    "velocity": 0.9133858267716536,
                    "duration": 0.78125
                },
                {
                    "name": "A4",
                    "midi": 69,
                    "time": 303.90625,
                    "velocity": 0.9133858267716536,
                    "duration": 0.15625
                },
                {
                    "name": "D5",
                    "midi": 74,
                    "time": 304.0625,
                    "velocity": 0.9212598425196851,
                    "duration": 0.15625
                },
                {
                    "name": "C5",
                    "midi": 72,
                    "time": 304.21875,
                    "velocity": 0.9212598425196851,
                    "duration": 0.15625
                },
                {
                    "name": "B4",
                    "midi": 71,
                    "time": 304.375,
                    "velocity": 0.9291338582677166,
                    "duration": 0.15625
                },
                {
                    "name": "D4",
                    "midi": 62,
                    "time": 304.375,
                    "velocity": 0.9291338582677166,
                    "duration": 0.15625
                },
                {
                    "name": "D4",
                    "midi": 62,
                    "time": 304.53125,
                    "velocity": 0.9291338582677166,
                    "duration": 0.15625
                },
                {
                    "name": "G4",
                    "midi": 67,
                    "time": 304.53125,
                    "velocity": 0.9291338582677166,
                    "duration": 0.15625
                },
                {
                    "name": "B4",
                    "midi": 71,
                    "time": 304.53125,
                    "velocity": 0.9291338582677166,
                    "duration": 0.15625
                },
                {
                    "name": "C4",
                    "midi": 60,
                    "time": 304.6875,
                    "velocity": 0.937007874015748,
                    "duration": 0.234375
                },
                {
                    "name": "G4",
                    "midi": 67,
                    "time": 304.6875,
                    "velocity": 0.937007874015748,
                    "duration": 0.234375
                },
                {
                    "name": "C5",
                    "midi": 72,
                    "time": 304.6875,
                    "velocity": 0.937007874015748,
                    "duration": 0.234375
                },
                {
                    "name": "F4",
                    "midi": 65,
                    "time": 304.921875,
                    "velocity": 0.9448818897637795,
                    "duration": 0.078125
                },
                {
                    "name": "B4",
                    "midi": 71,
                    "time": 304.921875,
                    "velocity": 0.9448818897637795,
                    "duration": 0.078125
                },
                {
                    "name": "F5",
                    "midi": 77,
                    "time": 304.921875,
                    "velocity": 0.9448818897637795,
                    "duration": 0.078125
                },
                {
                    "name": "F4",
                    "midi": 65,
                    "time": 305,
                    "velocity": 0.9448818897637795,
                    "duration": 0.3125
                },
                {
                    "name": "B4",
                    "midi": 71,
                    "time": 305,
                    "velocity": 0.9448818897637795,
                    "duration": 0.3125
                },
                {
                    "name": "F5",
                    "midi": 77,
                    "time": 305,
                    "velocity": 0.9448818897637795,
                    "duration": 0.3125
                },
                {
                    "name": "B4",
                    "midi": 71,
                    "time": 305.3125,
                    "velocity": 0.968503937007874,
                    "duration": 0.625
                },
                {
                    "name": "F5",
                    "midi": 77,
                    "time": 305.3125,
                    "velocity": 0.968503937007874,
                    "duration": 0.625
                },
                {
                    "name": "B5",
                    "midi": 83,
                    "time": 305.3125,
                    "velocity": 0.968503937007874,
                    "duration": 0.625
                },
                {
                    "name": "B4",
                    "midi": 71,
                    "time": 305.9375,
                    "velocity": 1,
                    "duration": 0.625
                },
                {
                    "name": "F5",
                    "midi": 77,
                    "time": 305.9375,
                    "velocity": 1,
                    "duration": 0.625
                },
                {
                    "name": "B5",
                    "midi": 83,
                    "time": 305.9375,
                    "velocity": 1,
                    "duration": 0.625
                },
                {
                    "name": "B4",
                    "midi": 71,
                    "time": 306.5625,
                    "velocity": 1,
                    "duration": 0.625
                },
                {
                    "name": "F5",
                    "midi": 77,
                    "time": 306.5625,
                    "velocity": 1,
                    "duration": 0.625
                },
                {
                    "name": "B5",
                    "midi": 83,
                    "time": 306.5625,
                    "velocity": 1,
                    "duration": 0.625
                },
                {
                    "name": "B4",
                    "midi": 71,
                    "time": 307.1875,
                    "velocity": 1,
                    "duration": 0.3125
                },
                {
                    "name": "F5",
                    "midi": 77,
                    "time": 307.1875,
                    "velocity": 1,
                    "duration": 0.3125
                },
                {
                    "name": "B5",
                    "midi": 83,
                    "time": 307.1875,
                    "velocity": 1,
                    "duration": 0.3125
                },
                {
                    "name": "G3",
                    "midi": 55,
                    "time": 307.5,
                    "velocity": 1,
                    "duration": 0.3125
                },
                {
                    "name": "B4",
                    "midi": 71,
                    "time": 307.8125,
                    "velocity": 1,
                    "duration": 0.625
                },
                {
                    "name": "F5",
                    "midi": 77,
                    "time": 307.8125,
                    "velocity": 1,
                    "duration": 0.625
                },
                {
                    "name": "B5",
                    "midi": 83,
                    "time": 307.8125,
                    "velocity": 1,
                    "duration": 0.625
                },
                {
                    "name": "C5",
                    "midi": 72,
                    "time": 308.4375,
                    "velocity": 1,
                    "duration": 0.1251220703125
                },
                {
                    "name": "E5",
                    "midi": 76,
                    "time": 308.4375,
                    "velocity": 1,
                    "duration": 0.1251220703125
                },
                {
                    "name": "C6",
                    "midi": 84,
                    "time": 308.4375,
                    "velocity": 1,
                    "duration": 0.1251220703125
                },
                {
                    "name": "F#4",
                    "midi": 66,
                    "time": 308.75,
                    "velocity": 1,
                    "duration": 0.3125
                },
                {
                    "name": "C5",
                    "midi": 72,
                    "time": 308.75,
                    "velocity": 1,
                    "duration": 0.3125
                },
                {
                    "name": "F#5",
                    "midi": 78,
                    "time": 308.75,
                    "velocity": 1,
                    "duration": 0.3125
                },
                {
                    "name": "A4",
                    "midi": 69,
                    "time": 309.0625,
                    "velocity": 1,
                    "duration": 0.625
                },
                {
                    "name": "C5",
                    "midi": 72,
                    "time": 309.0625,
                    "velocity": 1,
                    "duration": 0.625
                },
                {
                    "name": "A5",
                    "midi": 81,
                    "time": 309.0625,
                    "velocity": 1,
                    "duration": 0.625
                },
                {
                    "name": "G4",
                    "midi": 67,
                    "time": 309.6875,
                    "velocity": 1,
                    "duration": 0.1251220703125
                },
                {
                    "name": "B4",
                    "midi": 71,
                    "time": 309.6875,
                    "velocity": 1,
                    "duration": 0.1251220703125
                },
                {
                    "name": "G5",
                    "midi": 79,
                    "time": 309.6875,
                    "velocity": 1,
                    "duration": 0.1251220703125
                },
                {
                    "name": "E4",
                    "midi": 64,
                    "time": 310,
                    "velocity": 0.31496062992125984,
                    "duration": 0.15625
                },
                {
                    "name": "C5",
                    "midi": 72,
                    "time": 310,
                    "velocity": 0.31496062992125984,
                    "duration": 0.15625
                },
                {
                    "name": "F4",
                    "midi": 65,
                    "time": 310.15625,
                    "velocity": 0.31496062992125984,
                    "duration": 0.15625
                },
                {
                    "name": "B4",
                    "midi": 71,
                    "time": 310.15625,
                    "velocity": 0.31496062992125984,
                    "duration": 0.15625
                },
                {
                    "name": "E4",
                    "midi": 64,
                    "time": 310.3125,
                    "velocity": 0.31496062992125984,
                    "duration": 0.15625
                },
                {
                    "name": "C5",
                    "midi": 72,
                    "time": 310.3125,
                    "velocity": 0.31496062992125984,
                    "duration": 0.15625
                },
                {
                    "name": "F4",
                    "midi": 65,
                    "time": 310.46875,
                    "velocity": 0.31496062992125984,
                    "duration": 0.15625
                },
                {
                    "name": "B4",
                    "midi": 71,
                    "time": 310.46875,
                    "velocity": 0.31496062992125984,
                    "duration": 0.15625
                },
                {
                    "name": "E4",
                    "midi": 64,
                    "time": 310.625,
                    "velocity": 0.31496062992125984,
                    "duration": 0.15625
                },
                {
                    "name": "C5",
                    "midi": 72,
                    "time": 310.625,
                    "velocity": 0.31496062992125984,
                    "duration": 0.15625
                },
                {
                    "name": "F4",
                    "midi": 65,
                    "time": 310.78125,
                    "velocity": 0.31496062992125984,
                    "duration": 0.15625
                },
                {
                    "name": "B4",
                    "midi": 71,
                    "time": 310.78125,
                    "velocity": 0.31496062992125984,
                    "duration": 0.15625
                },
                {
                    "name": "E4",
                    "midi": 64,
                    "time": 310.9375,
                    "velocity": 0.31496062992125984,
                    "duration": 0.15625
                },
                {
                    "name": "C5",
                    "midi": 72,
                    "time": 310.9375,
                    "velocity": 0.31496062992125984,
                    "duration": 0.15625
                },
                {
                    "name": "G4",
                    "midi": 67,
                    "time": 311.09375,
                    "velocity": 0.31496062992125984,
                    "duration": 0.15625
                },
                {
                    "name": "C#5",
                    "midi": 73,
                    "time": 311.09375,
                    "velocity": 0.31496062992125984,
                    "duration": 0.15625
                },
                {
                    "name": "F4",
                    "midi": 65,
                    "time": 311.25,
                    "velocity": 0.31496062992125984,
                    "duration": 0.15625
                },
                {
                    "name": "D5",
                    "midi": 74,
                    "time": 311.25,
                    "velocity": 0.31496062992125984,
                    "duration": 0.15625
                },
                {
                    "name": "G#4",
                    "midi": 68,
                    "time": 311.40625,
                    "velocity": 0.31496062992125984,
                    "duration": 0.15625
                },
                {
                    "name": "C#5",
                    "midi": 73,
                    "time": 311.40625,
                    "velocity": 0.31496062992125984,
                    "duration": 0.15625
                },
                {
                    "name": "F4",
                    "midi": 65,
                    "time": 311.5625,
                    "velocity": 0.31496062992125984,
                    "duration": 0.15625
                },
                {
                    "name": "D5",
                    "midi": 74,
                    "time": 311.5625,
                    "velocity": 0.31496062992125984,
                    "duration": 0.15625
                },
                {
                    "name": "G#4",
                    "midi": 68,
                    "time": 311.71875,
                    "velocity": 0.31496062992125984,
                    "duration": 0.15625
                },
                {
                    "name": "C#5",
                    "midi": 73,
                    "time": 311.71875,
                    "velocity": 0.31496062992125984,
                    "duration": 0.15625
                },
                {
                    "name": "F4",
                    "midi": 65,
                    "time": 311.875,
                    "velocity": 0.31496062992125984,
                    "duration": 0.15625
                },
                {
                    "name": "D5",
                    "midi": 74,
                    "time": 311.875,
                    "velocity": 0.31496062992125984,
                    "duration": 0.15625
                },
                {
                    "name": "G#4",
                    "midi": 68,
                    "time": 312.03125,
                    "velocity": 0.31496062992125984,
                    "duration": 0.15625
                },
                {
                    "name": "C#5",
                    "midi": 73,
                    "time": 312.03125,
                    "velocity": 0.31496062992125984,
                    "duration": 0.15625
                },
                {
                    "name": "F4",
                    "midi": 65,
                    "time": 312.1875,
                    "velocity": 0.31496062992125984,
                    "duration": 0.15625
                },
                {
                    "name": "E5",
                    "midi": 76,
                    "time": 312.1875,
                    "velocity": 0.31496062992125984,
                    "duration": 0.15625
                },
                {
                    "name": "B4",
                    "midi": 71,
                    "time": 312.34375,
                    "velocity": 0.31496062992125984,
                    "duration": 0.15625
                },
                {
                    "name": "D5",
                    "midi": 74,
                    "time": 312.34375,
                    "velocity": 0.31496062992125984,
                    "duration": 0.15625
                },
                {
                    "name": "E4",
                    "midi": 64,
                    "time": 312.5,
                    "velocity": 0.31496062992125984,
                    "duration": 0.15625
                },
                {
                    "name": "C5",
                    "midi": 72,
                    "time": 312.5,
                    "velocity": 0.31496062992125984,
                    "duration": 0.15625
                },
                {
                    "name": "F4",
                    "midi": 65,
                    "time": 312.65625,
                    "velocity": 0.31496062992125984,
                    "duration": 0.15625
                },
                {
                    "name": "B4",
                    "midi": 71,
                    "time": 312.65625,
                    "velocity": 0.31496062992125984,
                    "duration": 0.15625
                },
                {
                    "name": "E4",
                    "midi": 64,
                    "time": 312.8125,
                    "velocity": 0.31496062992125984,
                    "duration": 0.15625
                },
                {
                    "name": "C5",
                    "midi": 72,
                    "time": 312.8125,
                    "velocity": 0.31496062992125984,
                    "duration": 0.15625
                },
                {
                    "name": "F4",
                    "midi": 65,
                    "time": 312.96875,
                    "velocity": 0.31496062992125984,
                    "duration": 0.15625
                },
                {
                    "name": "B4",
                    "midi": 71,
                    "time": 312.96875,
                    "velocity": 0.31496062992125984,
                    "duration": 0.15625
                },
                {
                    "name": "E4",
                    "midi": 64,
                    "time": 313.125,
                    "velocity": 0.31496062992125984,
                    "duration": 0.15625
                },
                {
                    "name": "C5",
                    "midi": 72,
                    "time": 313.125,
                    "velocity": 0.31496062992125984,
                    "duration": 0.15625
                },
                {
                    "name": "F4",
                    "midi": 65,
                    "time": 313.28125,
                    "velocity": 0.31496062992125984,
                    "duration": 0.15625
                },
                {
                    "name": "B4",
                    "midi": 71,
                    "time": 313.28125,
                    "velocity": 0.31496062992125984,
                    "duration": 0.15625
                },
                {
                    "name": "E4",
                    "midi": 64,
                    "time": 313.4375,
                    "velocity": 0.31496062992125984,
                    "duration": 0.15625
                },
                {
                    "name": "C5",
                    "midi": 72,
                    "time": 313.4375,
                    "velocity": 0.31496062992125984,
                    "duration": 0.15625
                },
                {
                    "name": "G4",
                    "midi": 67,
                    "time": 313.59375,
                    "velocity": 0.31496062992125984,
                    "duration": 0.15625
                },
                {
                    "name": "C#5",
                    "midi": 73,
                    "time": 313.59375,
                    "velocity": 0.31496062992125984,
                    "duration": 0.15625
                },
                {
                    "name": "F4",
                    "midi": 65,
                    "time": 313.75,
                    "velocity": 0.31496062992125984,
                    "duration": 0.15625
                },
                {
                    "name": "D5",
                    "midi": 74,
                    "time": 313.75,
                    "velocity": 0.31496062992125984,
                    "duration": 0.15625
                },
                {
                    "name": "G#4",
                    "midi": 68,
                    "time": 313.90625,
                    "velocity": 0.31496062992125984,
                    "duration": 0.15625
                },
                {
                    "name": "C#5",
                    "midi": 73,
                    "time": 313.90625,
                    "velocity": 0.31496062992125984,
                    "duration": 0.15625
                },
                {
                    "name": "F4",
                    "midi": 65,
                    "time": 314.0625,
                    "velocity": 0.31496062992125984,
                    "duration": 0.15625
                },
                {
                    "name": "D5",
                    "midi": 74,
                    "time": 314.0625,
                    "velocity": 0.31496062992125984,
                    "duration": 0.15625
                },
                {
                    "name": "G#4",
                    "midi": 68,
                    "time": 314.21875,
                    "velocity": 0.31496062992125984,
                    "duration": 0.15625
                },
                {
                    "name": "C#5",
                    "midi": 73,
                    "time": 314.21875,
                    "velocity": 0.31496062992125984,
                    "duration": 0.15625
                },
                {
                    "name": "F4",
                    "midi": 65,
                    "time": 314.375,
                    "velocity": 0.31496062992125984,
                    "duration": 0.15625
                },
                {
                    "name": "D5",
                    "midi": 74,
                    "time": 314.375,
                    "velocity": 0.31496062992125984,
                    "duration": 0.15625
                },
                {
                    "name": "G#4",
                    "midi": 68,
                    "time": 314.53125,
                    "velocity": 0.31496062992125984,
                    "duration": 0.15625
                },
                {
                    "name": "C#5",
                    "midi": 73,
                    "time": 314.53125,
                    "velocity": 0.31496062992125984,
                    "duration": 0.15625
                },
                {
                    "name": "F4",
                    "midi": 65,
                    "time": 314.6875,
                    "velocity": 0.31496062992125984,
                    "duration": 0.15625
                },
                {
                    "name": "D5",
                    "midi": 74,
                    "time": 314.6875,
                    "velocity": 0.31496062992125984,
                    "duration": 0.15625
                },
                {
                    "name": "B4",
                    "midi": 71,
                    "time": 314.84375,
                    "velocity": 0.31496062992125984,
                    "duration": 0.15625
                },
                {
                    "name": "D#5",
                    "midi": 75,
                    "time": 314.84375,
                    "velocity": 0.31496062992125984,
                    "duration": 0.15625
                },
                {
                    "name": "E4",
                    "midi": 64,
                    "time": 315,
                    "velocity": 0.31496062992125984,
                    "duration": 0.15625
                },
                {
                    "name": "E5",
                    "midi": 76,
                    "time": 315,
                    "velocity": 0.31496062992125984,
                    "duration": 0.15625
                },
                {
                    "name": "C5",
                    "midi": 72,
                    "time": 315.15625,
                    "velocity": 0.31496062992125984,
                    "duration": 0.15625
                },
                {
                    "name": "D#5",
                    "midi": 75,
                    "time": 315.15625,
                    "velocity": 0.31496062992125984,
                    "duration": 0.15625
                },
                {
                    "name": "E4",
                    "midi": 64,
                    "time": 315.3125,
                    "velocity": 0.31496062992125984,
                    "duration": 0.15625
                },
                {
                    "name": "E5",
                    "midi": 76,
                    "time": 315.3125,
                    "velocity": 0.31496062992125984,
                    "duration": 0.15625
                },
                {
                    "name": "C5",
                    "midi": 72,
                    "time": 315.46875,
                    "velocity": 0.31496062992125984,
                    "duration": 0.15625
                },
                {
                    "name": "D#5",
                    "midi": 75,
                    "time": 315.46875,
                    "velocity": 0.31496062992125984,
                    "duration": 0.15625
                },
                {
                    "name": "E4",
                    "midi": 64,
                    "time": 315.625,
                    "velocity": 0.31496062992125984,
                    "duration": 0.15625
                },
                {
                    "name": "E5",
                    "midi": 76,
                    "time": 315.625,
                    "velocity": 0.31496062992125984,
                    "duration": 0.15625
                },
                {
                    "name": "C5",
                    "midi": 72,
                    "time": 315.78125,
                    "velocity": 0.31496062992125984,
                    "duration": 0.15625
                },
                {
                    "name": "D#5",
                    "midi": 75,
                    "time": 315.78125,
                    "velocity": 0.31496062992125984,
                    "duration": 0.15625
                },
                {
                    "name": "E4",
                    "midi": 64,
                    "time": 315.9375,
                    "velocity": 0.31496062992125984,
                    "duration": 0.15625
                },
                {
                    "name": "E5",
                    "midi": 76,
                    "time": 315.9375,
                    "velocity": 0.31496062992125984,
                    "duration": 0.15625
                },
                {
                    "name": "G4",
                    "midi": 67,
                    "time": 316.09375,
                    "velocity": 0.31496062992125984,
                    "duration": 0.15625
                },
                {
                    "name": "C5",
                    "midi": 72,
                    "time": 316.09375,
                    "velocity": 0.31496062992125984,
                    "duration": 0.15625
                },
                {
                    "name": "F4",
                    "midi": 65,
                    "time": 316.25,
                    "velocity": 0.3937007874015748,
                    "duration": 0.15625
                },
                {
                    "name": "G5",
                    "midi": 79,
                    "time": 316.25,
                    "velocity": 0.3937007874015748,
                    "duration": 0.15625
                },
                {
                    "name": "C5",
                    "midi": 72,
                    "time": 316.40625,
                    "velocity": 0.3937007874015748,
                    "duration": 0.15625
                },
                {
                    "name": "F5",
                    "midi": 77,
                    "time": 316.40625,
                    "velocity": 0.3937007874015748,
                    "duration": 0.15625
                },
                {
                    "name": "F4",
                    "midi": 65,
                    "time": 316.5625,
                    "velocity": 0.3937007874015748,
                    "duration": 0.15625
                },
                {
                    "name": "G5",
                    "midi": 79,
                    "time": 316.5625,
                    "velocity": 0.3937007874015748,
                    "duration": 0.15625
                },
                {
                    "name": "C5",
                    "midi": 72,
                    "time": 316.71875,
                    "velocity": 0.3937007874015748,
                    "duration": 0.15625
                },
                {
                    "name": "F5",
                    "midi": 77,
                    "time": 316.71875,
                    "velocity": 0.3937007874015748,
                    "duration": 0.15625
                },
                {
                    "name": "F4",
                    "midi": 65,
                    "time": 316.875,
                    "velocity": 0.3937007874015748,
                    "duration": 0.15625
                },
                {
                    "name": "G5",
                    "midi": 79,
                    "time": 316.875,
                    "velocity": 0.3937007874015748,
                    "duration": 0.15625
                },
                {
                    "name": "C5",
                    "midi": 72,
                    "time": 317.03125,
                    "velocity": 0.3937007874015748,
                    "duration": 0.15625
                },
                {
                    "name": "F5",
                    "midi": 77,
                    "time": 317.03125,
                    "velocity": 0.3937007874015748,
                    "duration": 0.15625
                },
                {
                    "name": "E4",
                    "midi": 64,
                    "time": 317.1875,
                    "velocity": 0.3937007874015748,
                    "duration": 0.15625
                },
                {
                    "name": "F5",
                    "midi": 77,
                    "time": 317.1875,
                    "velocity": 0.3937007874015748,
                    "duration": 0.15625
                },
                {
                    "name": "C5",
                    "midi": 72,
                    "time": 317.34375,
                    "velocity": 0.3937007874015748,
                    "duration": 0.15625
                },
                {
                    "name": "E5",
                    "midi": 76,
                    "time": 317.34375,
                    "velocity": 0.3937007874015748,
                    "duration": 0.15625
                },
                {
                    "name": "D4",
                    "midi": 62,
                    "time": 317.5,
                    "velocity": 0.3937007874015748,
                    "duration": 0.15625
                },
                {
                    "name": "E5",
                    "midi": 76,
                    "time": 317.5,
                    "velocity": 0.3937007874015748,
                    "duration": 0.15625
                },
                {
                    "name": "A4",
                    "midi": 69,
                    "time": 317.65625,
                    "velocity": 0.3937007874015748,
                    "duration": 0.15625
                },
                {
                    "name": "D5",
                    "midi": 74,
                    "time": 317.65625,
                    "velocity": 0.3937007874015748,
                    "duration": 0.15625
                },
                {
                    "name": "D4",
                    "midi": 62,
                    "time": 317.8125,
                    "velocity": 0.3937007874015748,
                    "duration": 0.15625
                },
                {
                    "name": "E5",
                    "midi": 76,
                    "time": 317.8125,
                    "velocity": 0.3937007874015748,
                    "duration": 0.15625
                },
                {
                    "name": "A4",
                    "midi": 69,
                    "time": 317.96875,
                    "velocity": 0.3937007874015748,
                    "duration": 0.15625
                },
                {
                    "name": "D5",
                    "midi": 74,
                    "time": 317.96875,
                    "velocity": 0.3937007874015748,
                    "duration": 0.15625
                },
                {
                    "name": "D4",
                    "midi": 62,
                    "time": 318.125,
                    "velocity": 0.3937007874015748,
                    "duration": 0.15625
                },
                {
                    "name": "E5",
                    "midi": 76,
                    "time": 318.125,
                    "velocity": 0.3937007874015748,
                    "duration": 0.15625
                },
                {
                    "name": "A4",
                    "midi": 69,
                    "time": 318.28125,
                    "velocity": 0.3937007874015748,
                    "duration": 0.15625
                },
                {
                    "name": "D5",
                    "midi": 74,
                    "time": 318.28125,
                    "velocity": 0.3937007874015748,
                    "duration": 0.15625
                },
                {
                    "name": "C4",
                    "midi": 60,
                    "time": 318.4375,
                    "velocity": 0.3937007874015748,
                    "duration": 0.15625
                },
                {
                    "name": "D5",
                    "midi": 74,
                    "time": 318.4375,
                    "velocity": 0.3937007874015748,
                    "duration": 0.15625
                },
                {
                    "name": "A4",
                    "midi": 69,
                    "time": 318.59375,
                    "velocity": 0.3937007874015748,
                    "duration": 0.15625
                },
                {
                    "name": "C5",
                    "midi": 72,
                    "time": 318.59375,
                    "velocity": 0.3937007874015748,
                    "duration": 0.15625
                },
                {
                    "name": "B3",
                    "midi": 59,
                    "time": 318.75,
                    "velocity": 0.3937007874015748,
                    "duration": 0.15625
                },
                {
                    "name": "C5",
                    "midi": 72,
                    "time": 318.75,
                    "velocity": 0.3937007874015748,
                    "duration": 0.15625
                },
                {
                    "name": "G4",
                    "midi": 67,
                    "time": 318.90625,
                    "velocity": 0.3858267716535433,
                    "duration": 0.15625
                },
                {
                    "name": "B4",
                    "midi": 71,
                    "time": 318.90625,
                    "velocity": 0.3858267716535433,
                    "duration": 0.15625
                },
                {
                    "name": "B3",
                    "midi": 59,
                    "time": 319.0625,
                    "velocity": 0.3700787401574803,
                    "duration": 0.15625
                },
                {
                    "name": "C5",
                    "midi": 72,
                    "time": 319.0625,
                    "velocity": 0.3700787401574803,
                    "duration": 0.15625
                },
                {
                    "name": "G4",
                    "midi": 67,
                    "time": 319.21875,
                    "velocity": 0.36220472440944884,
                    "duration": 0.15625
                },
                {
                    "name": "B4",
                    "midi": 71,
                    "time": 319.21875,
                    "velocity": 0.36220472440944884,
                    "duration": 0.15625
                },
                {
                    "name": "C4",
                    "midi": 60,
                    "time": 319.375,
                    "velocity": 0.3543307086614173,
                    "duration": 0.15625
                },
                {
                    "name": "B4",
                    "midi": 71,
                    "time": 319.375,
                    "velocity": 0.3543307086614173,
                    "duration": 0.15625
                },
                {
                    "name": "F#4",
                    "midi": 66,
                    "time": 319.53125,
                    "velocity": 0.3464566929133858,
                    "duration": 0.15625
                },
                {
                    "name": "A4",
                    "midi": 69,
                    "time": 319.53125,
                    "velocity": 0.3464566929133858,
                    "duration": 0.15625
                },
                {
                    "name": "D4",
                    "midi": 62,
                    "time": 319.6875,
                    "velocity": 0.33070866141732286,
                    "duration": 0.15625
                },
                {
                    "name": "A4",
                    "midi": 69,
                    "time": 319.6875,
                    "velocity": 0.33070866141732286,
                    "duration": 0.15625
                },
                {
                    "name": "F4",
                    "midi": 65,
                    "time": 319.84375,
                    "velocity": 0.3228346456692913,
                    "duration": 0.15625
                },
                {
                    "name": "G4",
                    "midi": 67,
                    "time": 319.84375,
                    "velocity": 0.3228346456692913,
                    "duration": 0.15625
                },
                {
                    "name": "E4",
                    "midi": 64,
                    "time": 320,
                    "velocity": 0.31496062992125984,
                    "duration": 0.15625
                },
                {
                    "name": "C5",
                    "midi": 72,
                    "time": 320,
                    "velocity": 0.31496062992125984,
                    "duration": 0.15625
                },
                {
                    "name": "F4",
                    "midi": 65,
                    "time": 320.15625,
                    "velocity": 0.31496062992125984,
                    "duration": 0.15625
                },
                {
                    "name": "B4",
                    "midi": 71,
                    "time": 320.15625,
                    "velocity": 0.31496062992125984,
                    "duration": 0.15625
                },
                {
                    "name": "E4",
                    "midi": 64,
                    "time": 320.3125,
                    "velocity": 0.31496062992125984,
                    "duration": 0.15625
                },
                {
                    "name": "C5",
                    "midi": 72,
                    "time": 320.3125,
                    "velocity": 0.31496062992125984,
                    "duration": 0.15625
                },
                {
                    "name": "F4",
                    "midi": 65,
                    "time": 320.46875,
                    "velocity": 0.31496062992125984,
                    "duration": 0.15625
                },
                {
                    "name": "B4",
                    "midi": 71,
                    "time": 320.46875,
                    "velocity": 0.31496062992125984,
                    "duration": 0.15625
                },
                {
                    "name": "E4",
                    "midi": 64,
                    "time": 320.625,
                    "velocity": 0.31496062992125984,
                    "duration": 0.15625
                },
                {
                    "name": "C5",
                    "midi": 72,
                    "time": 320.625,
                    "velocity": 0.31496062992125984,
                    "duration": 0.15625
                },
                {
                    "name": "F4",
                    "midi": 65,
                    "time": 320.78125,
                    "velocity": 0.31496062992125984,
                    "duration": 0.15625
                },
                {
                    "name": "B4",
                    "midi": 71,
                    "time": 320.78125,
                    "velocity": 0.31496062992125984,
                    "duration": 0.15625
                },
                {
                    "name": "E4",
                    "midi": 64,
                    "time": 320.9375,
                    "velocity": 0.31496062992125984,
                    "duration": 0.15625
                },
                {
                    "name": "C5",
                    "midi": 72,
                    "time": 320.9375,
                    "velocity": 0.31496062992125984,
                    "duration": 0.15625
                },
                {
                    "name": "G4",
                    "midi": 67,
                    "time": 321.09375,
                    "velocity": 0.31496062992125984,
                    "duration": 0.15625
                },
                {
                    "name": "C#5",
                    "midi": 73,
                    "time": 321.09375,
                    "velocity": 0.31496062992125984,
                    "duration": 0.15625
                },
                {
                    "name": "F4",
                    "midi": 65,
                    "time": 321.25,
                    "velocity": 0.31496062992125984,
                    "duration": 0.15625
                },
                {
                    "name": "D5",
                    "midi": 74,
                    "time": 321.25,
                    "velocity": 0.31496062992125984,
                    "duration": 0.15625
                },
                {
                    "name": "G#4",
                    "midi": 68,
                    "time": 321.40625,
                    "velocity": 0.31496062992125984,
                    "duration": 0.15625
                },
                {
                    "name": "C#5",
                    "midi": 73,
                    "time": 321.40625,
                    "velocity": 0.31496062992125984,
                    "duration": 0.15625
                },
                {
                    "name": "F4",
                    "midi": 65,
                    "time": 321.5625,
                    "velocity": 0.31496062992125984,
                    "duration": 0.15625
                },
                {
                    "name": "D5",
                    "midi": 74,
                    "time": 321.5625,
                    "velocity": 0.31496062992125984,
                    "duration": 0.15625
                },
                {
                    "name": "G#4",
                    "midi": 68,
                    "time": 321.71875,
                    "velocity": 0.31496062992125984,
                    "duration": 0.15625
                },
                {
                    "name": "C#5",
                    "midi": 73,
                    "time": 321.71875,
                    "velocity": 0.31496062992125984,
                    "duration": 0.15625
                },
                {
                    "name": "F4",
                    "midi": 65,
                    "time": 321.875,
                    "velocity": 0.31496062992125984,
                    "duration": 0.15625
                },
                {
                    "name": "D5",
                    "midi": 74,
                    "time": 321.875,
                    "velocity": 0.31496062992125984,
                    "duration": 0.15625
                },
                {
                    "name": "G#4",
                    "midi": 68,
                    "time": 322.03125,
                    "velocity": 0.31496062992125984,
                    "duration": 0.15625
                },
                {
                    "name": "C#5",
                    "midi": 73,
                    "time": 322.03125,
                    "velocity": 0.31496062992125984,
                    "duration": 0.15625
                },
                {
                    "name": "F4",
                    "midi": 65,
                    "time": 322.1875,
                    "velocity": 0.31496062992125984,
                    "duration": 0.15625
                },
                {
                    "name": "E5",
                    "midi": 76,
                    "time": 322.1875,
                    "velocity": 0.31496062992125984,
                    "duration": 0.15625
                },
                {
                    "name": "B4",
                    "midi": 71,
                    "time": 322.34375,
                    "velocity": 0.31496062992125984,
                    "duration": 0.15625
                },
                {
                    "name": "D5",
                    "midi": 74,
                    "time": 322.34375,
                    "velocity": 0.31496062992125984,
                    "duration": 0.15625
                },
                {
                    "name": "E4",
                    "midi": 64,
                    "time": 322.5,
                    "velocity": 0.31496062992125984,
                    "duration": 0.15625
                },
                {
                    "name": "C5",
                    "midi": 72,
                    "time": 322.5,
                    "velocity": 0.31496062992125984,
                    "duration": 0.15625
                },
                {
                    "name": "F4",
                    "midi": 65,
                    "time": 322.65625,
                    "velocity": 0.31496062992125984,
                    "duration": 0.15625
                },
                {
                    "name": "B4",
                    "midi": 71,
                    "time": 322.65625,
                    "velocity": 0.31496062992125984,
                    "duration": 0.15625
                },
                {
                    "name": "E4",
                    "midi": 64,
                    "time": 322.8125,
                    "velocity": 0.31496062992125984,
                    "duration": 0.15625
                },
                {
                    "name": "C5",
                    "midi": 72,
                    "time": 322.8125,
                    "velocity": 0.31496062992125984,
                    "duration": 0.15625
                },
                {
                    "name": "F4",
                    "midi": 65,
                    "time": 322.96875,
                    "velocity": 0.31496062992125984,
                    "duration": 0.15625
                },
                {
                    "name": "B4",
                    "midi": 71,
                    "time": 322.96875,
                    "velocity": 0.31496062992125984,
                    "duration": 0.15625
                },
                {
                    "name": "E4",
                    "midi": 64,
                    "time": 323.125,
                    "velocity": 0.31496062992125984,
                    "duration": 0.15625
                },
                {
                    "name": "C5",
                    "midi": 72,
                    "time": 323.125,
                    "velocity": 0.31496062992125984,
                    "duration": 0.15625
                },
                {
                    "name": "F4",
                    "midi": 65,
                    "time": 323.28125,
                    "velocity": 0.31496062992125984,
                    "duration": 0.15625
                },
                {
                    "name": "B4",
                    "midi": 71,
                    "time": 323.28125,
                    "velocity": 0.31496062992125984,
                    "duration": 0.15625
                },
                {
                    "name": "E4",
                    "midi": 64,
                    "time": 323.4375,
                    "velocity": 0.31496062992125984,
                    "duration": 0.15625
                },
                {
                    "name": "C5",
                    "midi": 72,
                    "time": 323.4375,
                    "velocity": 0.31496062992125984,
                    "duration": 0.15625
                },
                {
                    "name": "G4",
                    "midi": 67,
                    "time": 323.59375,
                    "velocity": 0.31496062992125984,
                    "duration": 0.15625
                },
                {
                    "name": "C#5",
                    "midi": 73,
                    "time": 323.59375,
                    "velocity": 0.31496062992125984,
                    "duration": 0.15625
                },
                {
                    "name": "F4",
                    "midi": 65,
                    "time": 323.75,
                    "velocity": 0.31496062992125984,
                    "duration": 0.15625
                },
                {
                    "name": "D5",
                    "midi": 74,
                    "time": 323.75,
                    "velocity": 0.31496062992125984,
                    "duration": 0.15625
                },
                {
                    "name": "G#4",
                    "midi": 68,
                    "time": 323.90625,
                    "velocity": 0.31496062992125984,
                    "duration": 0.15625
                },
                {
                    "name": "C#5",
                    "midi": 73,
                    "time": 323.90625,
                    "velocity": 0.31496062992125984,
                    "duration": 0.15625
                },
                {
                    "name": "F4",
                    "midi": 65,
                    "time": 324.0625,
                    "velocity": 0.31496062992125984,
                    "duration": 0.15625
                },
                {
                    "name": "D5",
                    "midi": 74,
                    "time": 324.0625,
                    "velocity": 0.31496062992125984,
                    "duration": 0.15625
                },
                {
                    "name": "G#4",
                    "midi": 68,
                    "time": 324.21875,
                    "velocity": 0.31496062992125984,
                    "duration": 0.15625
                },
                {
                    "name": "C#5",
                    "midi": 73,
                    "time": 324.21875,
                    "velocity": 0.31496062992125984,
                    "duration": 0.15625
                },
                {
                    "name": "F4",
                    "midi": 65,
                    "time": 324.375,
                    "velocity": 0.31496062992125984,
                    "duration": 0.15625
                },
                {
                    "name": "D5",
                    "midi": 74,
                    "time": 324.375,
                    "velocity": 0.31496062992125984,
                    "duration": 0.15625
                },
                {
                    "name": "G#4",
                    "midi": 68,
                    "time": 324.53125,
                    "velocity": 0.31496062992125984,
                    "duration": 0.15625
                },
                {
                    "name": "A#4",
                    "midi": 70,
                    "time": 324.53125,
                    "velocity": 0.31496062992125984,
                    "duration": 0.15625
                },
                {
                    "name": "D4",
                    "midi": 62,
                    "time": 324.6875,
                    "velocity": 0.31496062992125984,
                    "duration": 0.15625
                },
                {
                    "name": "C5",
                    "midi": 72,
                    "time": 324.6875,
                    "velocity": 0.31496062992125984,
                    "duration": 0.15625
                },
                {
                    "name": "G#4",
                    "midi": 68,
                    "time": 324.84375,
                    "velocity": 0.31496062992125984,
                    "duration": 0.15625
                },
                {
                    "name": "A#4",
                    "midi": 70,
                    "time": 324.84375,
                    "velocity": 0.31496062992125984,
                    "duration": 0.15625
                },
                {
                    "name": "G4",
                    "midi": 67,
                    "time": 325,
                    "velocity": 0.5039370078740157,
                    "duration": 0.15625
                },
                {
                    "name": "D#5",
                    "midi": 75,
                    "time": 325,
                    "velocity": 0.5039370078740157,
                    "duration": 0.15625
                },
                {
                    "name": "A#4",
                    "midi": 70,
                    "time": 325.15625,
                    "velocity": 0.5039370078740157,
                    "duration": 0.15625
                },
                {
                    "name": "D5",
                    "midi": 74,
                    "time": 325.15625,
                    "velocity": 0.5039370078740157,
                    "duration": 0.15625
                },
                {
                    "name": "G4",
                    "midi": 67,
                    "time": 325.3125,
                    "velocity": 0.5039370078740157,
                    "duration": 0.15625
                },
                {
                    "name": "D#5",
                    "midi": 75,
                    "time": 325.3125,
                    "velocity": 0.5039370078740157,
                    "duration": 0.15625
                },
                {
                    "name": "A#4",
                    "midi": 70,
                    "time": 325.46875,
                    "velocity": 0.5039370078740157,
                    "duration": 0.15625
                },
                {
                    "name": "D5",
                    "midi": 74,
                    "time": 325.46875,
                    "velocity": 0.5039370078740157,
                    "duration": 0.15625
                },
                {
                    "name": "G4",
                    "midi": 67,
                    "time": 325.625,
                    "velocity": 0.5039370078740157,
                    "duration": 0.15625
                },
                {
                    "name": "D#5",
                    "midi": 75,
                    "time": 325.625,
                    "velocity": 0.5039370078740157,
                    "duration": 0.15625
                },
                {
                    "name": "A#4",
                    "midi": 70,
                    "time": 325.78125,
                    "velocity": 0.5039370078740157,
                    "duration": 0.15625
                },
                {
                    "name": "D5",
                    "midi": 74,
                    "time": 325.78125,
                    "velocity": 0.5039370078740157,
                    "duration": 0.15625
                },
                {
                    "name": "G4",
                    "midi": 67,
                    "time": 325.9375,
                    "velocity": 0.5039370078740157,
                    "duration": 0.15625
                },
                {
                    "name": "D#5",
                    "midi": 75,
                    "time": 325.9375,
                    "velocity": 0.5039370078740157,
                    "duration": 0.15625
                },
                {
                    "name": "A#4",
                    "midi": 70,
                    "time": 326.09375,
                    "velocity": 0.5039370078740157,
                    "duration": 0.15625
                },
                {
                    "name": "E5",
                    "midi": 76,
                    "time": 326.09375,
                    "velocity": 0.5039370078740157,
                    "duration": 0.15625
                },
                {
                    "name": "G#4",
                    "midi": 68,
                    "time": 326.25,
                    "velocity": 0.5039370078740157,
                    "duration": 0.15625
                },
                {
                    "name": "F5",
                    "midi": 77,
                    "time": 326.25,
                    "velocity": 0.5039370078740157,
                    "duration": 0.15625
                },
                {
                    "name": "B4",
                    "midi": 71,
                    "time": 326.40625,
                    "velocity": 0.5039370078740157,
                    "duration": 0.15625
                },
                {
                    "name": "E5",
                    "midi": 76,
                    "time": 326.40625,
                    "velocity": 0.5039370078740157,
                    "duration": 0.15625
                },
                {
                    "name": "G#4",
                    "midi": 68,
                    "time": 326.5625,
                    "velocity": 0.5039370078740157,
                    "duration": 0.15625
                },
                {
                    "name": "F5",
                    "midi": 77,
                    "time": 326.5625,
                    "velocity": 0.5039370078740157,
                    "duration": 0.15625
                },
                {
                    "name": "B4",
                    "midi": 71,
                    "time": 326.71875,
                    "velocity": 0.5039370078740157,
                    "duration": 0.15625
                },
                {
                    "name": "E5",
                    "midi": 76,
                    "time": 326.71875,
                    "velocity": 0.5039370078740157,
                    "duration": 0.15625
                },
                {
                    "name": "G#4",
                    "midi": 68,
                    "time": 326.875,
                    "velocity": 0.5039370078740157,
                    "duration": 0.15625
                },
                {
                    "name": "F5",
                    "midi": 77,
                    "time": 326.875,
                    "velocity": 0.5039370078740157,
                    "duration": 0.15625
                },
                {
                    "name": "B4",
                    "midi": 71,
                    "time": 327.03125,
                    "velocity": 0.5039370078740157,
                    "duration": 0.15625
                },
                {
                    "name": "E5",
                    "midi": 76,
                    "time": 327.03125,
                    "velocity": 0.5039370078740157,
                    "duration": 0.15625
                },
                {
                    "name": "G#4",
                    "midi": 68,
                    "time": 327.1875,
                    "velocity": 0.5039370078740157,
                    "duration": 0.15625
                },
                {
                    "name": "F5",
                    "midi": 77,
                    "time": 327.1875,
                    "velocity": 0.5039370078740157,
                    "duration": 0.15625
                },
                {
                    "name": "A#4",
                    "midi": 70,
                    "time": 327.34375,
                    "velocity": 0.5039370078740157,
                    "duration": 0.15625
                },
                {
                    "name": "F#5",
                    "midi": 78,
                    "time": 327.34375,
                    "velocity": 0.5039370078740157,
                    "duration": 0.15625
                },
                {
                    "name": "G4",
                    "midi": 67,
                    "time": 327.5,
                    "velocity": 0.5039370078740157,
                    "duration": 0.15625
                },
                {
                    "name": "G5",
                    "midi": 79,
                    "time": 327.5,
                    "velocity": 0.5039370078740157,
                    "duration": 0.15625
                },
                {
                    "name": "A#4",
                    "midi": 70,
                    "time": 327.65625,
                    "velocity": 0.5039370078740157,
                    "duration": 0.15625
                },
                {
                    "name": "F#5",
                    "midi": 78,
                    "time": 327.65625,
                    "velocity": 0.5039370078740157,
                    "duration": 0.15625
                },
                {
                    "name": "G4",
                    "midi": 67,
                    "time": 327.8125,
                    "velocity": 0.5039370078740157,
                    "duration": 0.15625
                },
                {
                    "name": "G5",
                    "midi": 79,
                    "time": 327.8125,
                    "velocity": 0.5039370078740157,
                    "duration": 0.15625
                },
                {
                    "name": "C#5",
                    "midi": 73,
                    "time": 327.96875,
                    "velocity": 0.5039370078740157,
                    "duration": 0.15625
                },
                {
                    "name": "F#5",
                    "midi": 78,
                    "time": 327.96875,
                    "velocity": 0.5039370078740157,
                    "duration": 0.15625
                },
                {
                    "name": "G4",
                    "midi": 67,
                    "time": 328.125,
                    "velocity": 0.5039370078740157,
                    "duration": 0.15625
                },
                {
                    "name": "G5",
                    "midi": 79,
                    "time": 328.125,
                    "velocity": 0.5039370078740157,
                    "duration": 0.15625
                },
                {
                    "name": "C#5",
                    "midi": 73,
                    "time": 328.28125,
                    "velocity": 0.5039370078740157,
                    "duration": 0.15625
                },
                {
                    "name": "F#5",
                    "midi": 78,
                    "time": 328.28125,
                    "velocity": 0.5039370078740157,
                    "duration": 0.15625
                },
                {
                    "name": "G4",
                    "midi": 67,
                    "time": 328.4375,
                    "velocity": 0.5039370078740157,
                    "duration": 0.15625
                },
                {
                    "name": "G5",
                    "midi": 79,
                    "time": 328.4375,
                    "velocity": 0.5039370078740157,
                    "duration": 0.15625
                },
                {
                    "name": "C#5",
                    "midi": 73,
                    "time": 328.59375,
                    "velocity": 0.5039370078740157,
                    "duration": 0.15625
                },
                {
                    "name": "G#5",
                    "midi": 80,
                    "time": 328.59375,
                    "velocity": 0.5039370078740157,
                    "duration": 0.15625
                },
                {
                    "name": "G4",
                    "midi": 67,
                    "time": 328.75,
                    "velocity": 0.5039370078740157,
                    "duration": 0.15625
                },
                {
                    "name": "A5",
                    "midi": 81,
                    "time": 328.75,
                    "velocity": 0.5039370078740157,
                    "duration": 0.15625
                },
                {
                    "name": "C#5",
                    "midi": 73,
                    "time": 328.90625,
                    "velocity": 0.5039370078740157,
                    "duration": 0.15625
                },
                {
                    "name": "G#5",
                    "midi": 80,
                    "time": 328.90625,
                    "velocity": 0.5039370078740157,
                    "duration": 0.15625
                },
                {
                    "name": "G4",
                    "midi": 67,
                    "time": 329.0625,
                    "velocity": 0.5039370078740157,
                    "duration": 0.15625
                },
                {
                    "name": "A5",
                    "midi": 81,
                    "time": 329.0625,
                    "velocity": 0.5039370078740157,
                    "duration": 0.15625
                },
                {
                    "name": "C#5",
                    "midi": 73,
                    "time": 329.21875,
                    "velocity": 0.5039370078740157,
                    "duration": 0.15625
                },
                {
                    "name": "G#5",
                    "midi": 80,
                    "time": 329.21875,
                    "velocity": 0.5039370078740157,
                    "duration": 0.15625
                },
                {
                    "name": "G4",
                    "midi": 67,
                    "time": 329.375,
                    "velocity": 0.5039370078740157,
                    "duration": 0.15625
                },
                {
                    "name": "A5",
                    "midi": 81,
                    "time": 329.375,
                    "velocity": 0.5039370078740157,
                    "duration": 0.15625
                },
                {
                    "name": "C#5",
                    "midi": 73,
                    "time": 329.53125,
                    "velocity": 0.5039370078740157,
                    "duration": 0.15625
                },
                {
                    "name": "G#5",
                    "midi": 80,
                    "time": 329.53125,
                    "velocity": 0.5039370078740157,
                    "duration": 0.15625
                },
                {
                    "name": "G4",
                    "midi": 67,
                    "time": 329.6875,
                    "velocity": 0.5039370078740157,
                    "duration": 0.15625
                },
                {
                    "name": "A5",
                    "midi": 81,
                    "time": 329.6875,
                    "velocity": 0.5039370078740157,
                    "duration": 0.15625
                },
                {
                    "name": "C#5",
                    "midi": 73,
                    "time": 329.84375,
                    "velocity": 0.5039370078740157,
                    "duration": 0.15625
                },
                {
                    "name": "G5",
                    "midi": 79,
                    "time": 329.84375,
                    "velocity": 0.5039370078740157,
                    "duration": 0.15625
                },
                {
                    "name": "G4",
                    "midi": 67,
                    "time": 330,
                    "velocity": 0.5039370078740157,
                    "duration": 0.15625
                },
                {
                    "name": "G5",
                    "midi": 79,
                    "time": 330,
                    "velocity": 0.5039370078740157,
                    "duration": 0.15625
                },
                {
                    "name": "C5",
                    "midi": 72,
                    "time": 330.15625,
                    "velocity": 0.5039370078740157,
                    "duration": 0.15625
                },
                {
                    "name": "F#5",
                    "midi": 78,
                    "time": 330.15625,
                    "velocity": 0.5039370078740157,
                    "duration": 0.15625
                },
                {
                    "name": "F#4",
                    "midi": 66,
                    "time": 330.3125,
                    "velocity": 0.5039370078740157,
                    "duration": 0.15625
                },
                {
                    "name": "G5",
                    "midi": 79,
                    "time": 330.3125,
                    "velocity": 0.5039370078740157,
                    "duration": 0.15625
                },
                {
                    "name": "C5",
                    "midi": 72,
                    "time": 330.46875,
                    "velocity": 0.5039370078740157,
                    "duration": 0.15625
                },
                {
                    "name": "F#5",
                    "midi": 78,
                    "time": 330.46875,
                    "velocity": 0.5039370078740157,
                    "duration": 0.15625
                },
                {
                    "name": "F#4",
                    "midi": 66,
                    "time": 330.625,
                    "velocity": 0.5039370078740157,
                    "duration": 0.15625
                },
                {
                    "name": "G5",
                    "midi": 79,
                    "time": 330.625,
                    "velocity": 0.5039370078740157,
                    "duration": 0.15625
                },
                {
                    "name": "C5",
                    "midi": 72,
                    "time": 330.78125,
                    "velocity": 0.5039370078740157,
                    "duration": 0.15625
                },
                {
                    "name": "F#5",
                    "midi": 78,
                    "time": 330.78125,
                    "velocity": 0.5039370078740157,
                    "duration": 0.15625
                },
                {
                    "name": "F#4",
                    "midi": 66,
                    "time": 330.9375,
                    "velocity": 0.5039370078740157,
                    "duration": 0.15625
                },
                {
                    "name": "G5",
                    "midi": 79,
                    "time": 330.9375,
                    "velocity": 0.5039370078740157,
                    "duration": 0.15625
                },
                {
                    "name": "C5",
                    "midi": 72,
                    "time": 331.09375,
                    "velocity": 0.5039370078740157,
                    "duration": 0.15625
                },
                {
                    "name": "F#5",
                    "midi": 78,
                    "time": 331.09375,
                    "velocity": 0.5039370078740157,
                    "duration": 0.15625
                },
                {
                    "name": "F4",
                    "midi": 65,
                    "time": 331.25,
                    "velocity": 0.3937007874015748,
                    "duration": 0.15625
                },
                {
                    "name": "G5",
                    "midi": 79,
                    "time": 331.25,
                    "velocity": 0.3937007874015748,
                    "duration": 0.15625
                },
                {
                    "name": "B4",
                    "midi": 71,
                    "time": 331.40625,
                    "velocity": 0.3937007874015748,
                    "duration": 0.15625
                },
                {
                    "name": "F#5",
                    "midi": 78,
                    "time": 331.40625,
                    "velocity": 0.3937007874015748,
                    "duration": 0.15625
                },
                {
                    "name": "F4",
                    "midi": 65,
                    "time": 331.5625,
                    "velocity": 0.3937007874015748,
                    "duration": 0.15625
                },
                {
                    "name": "G5",
                    "midi": 79,
                    "time": 331.5625,
                    "velocity": 0.3937007874015748,
                    "duration": 0.15625
                },
                {
                    "name": "B4",
                    "midi": 71,
                    "time": 331.71875,
                    "velocity": 0.3937007874015748,
                    "duration": 0.15625
                },
                {
                    "name": "F#5",
                    "midi": 78,
                    "time": 331.71875,
                    "velocity": 0.3937007874015748,
                    "duration": 0.15625
                },
                {
                    "name": "F4",
                    "midi": 65,
                    "time": 331.875,
                    "velocity": 0.3937007874015748,
                    "duration": 0.15625
                },
                {
                    "name": "G5",
                    "midi": 79,
                    "time": 331.875,
                    "velocity": 0.3937007874015748,
                    "duration": 0.15625
                },
                {
                    "name": "B4",
                    "midi": 71,
                    "time": 332.03125,
                    "velocity": 0.3937007874015748,
                    "duration": 0.15625
                },
                {
                    "name": "F#5",
                    "midi": 78,
                    "time": 332.03125,
                    "velocity": 0.3937007874015748,
                    "duration": 0.15625
                },
                {
                    "name": "F4",
                    "midi": 65,
                    "time": 332.1875,
                    "velocity": 0.3937007874015748,
                    "duration": 0.15625
                },
                {
                    "name": "G5",
                    "midi": 79,
                    "time": 332.1875,
                    "velocity": 0.3937007874015748,
                    "duration": 0.15625
                },
                {
                    "name": "B4",
                    "midi": 71,
                    "time": 332.34375,
                    "velocity": 0.3937007874015748,
                    "duration": 0.15625
                },
                {
                    "name": "F5",
                    "midi": 77,
                    "time": 332.34375,
                    "velocity": 0.3937007874015748,
                    "duration": 0.15625
                },
                {
                    "name": "E4",
                    "midi": 64,
                    "time": 332.5,
                    "velocity": 0.3937007874015748,
                    "duration": 0.15625
                },
                {
                    "name": "F5",
                    "midi": 77,
                    "time": 332.5,
                    "velocity": 0.3937007874015748,
                    "duration": 0.15625
                },
                {
                    "name": "C5",
                    "midi": 72,
                    "time": 332.65625,
                    "velocity": 0.4094488188976378,
                    "duration": 0.15625
                },
                {
                    "name": "E5",
                    "midi": 76,
                    "time": 332.65625,
                    "velocity": 0.4094488188976378,
                    "duration": 0.15625
                },
                {
                    "name": "G4",
                    "midi": 67,
                    "time": 332.8125,
                    "velocity": 0.4251968503937008,
                    "duration": 0.15625
                },
                {
                    "name": "F5",
                    "midi": 77,
                    "time": 332.8125,
                    "velocity": 0.4251968503937008,
                    "duration": 0.15625
                },
                {
                    "name": "C5",
                    "midi": 72,
                    "time": 332.96875,
                    "velocity": 0.4330708661417323,
                    "duration": 0.15625
                },
                {
                    "name": "E5",
                    "midi": 76,
                    "time": 332.96875,
                    "velocity": 0.4330708661417323,
                    "duration": 0.15625
                },
                {
                    "name": "E4",
                    "midi": 64,
                    "time": 333.125,
                    "velocity": 0.44881889763779526,
                    "duration": 0.15625
                },
                {
                    "name": "F5",
                    "midi": 77,
                    "time": 333.125,
                    "velocity": 0.44881889763779526,
                    "duration": 0.15625
                },
                {
                    "name": "C5",
                    "midi": 72,
                    "time": 333.28125,
                    "velocity": 0.4645669291338583,
                    "duration": 0.15625
                },
                {
                    "name": "E5",
                    "midi": 76,
                    "time": 333.28125,
                    "velocity": 0.4645669291338583,
                    "duration": 0.15625
                },
                {
                    "name": "G4",
                    "midi": 67,
                    "time": 333.4375,
                    "velocity": 0.48031496062992124,
                    "duration": 0.15625
                },
                {
                    "name": "F5",
                    "midi": 77,
                    "time": 333.4375,
                    "velocity": 0.48031496062992124,
                    "duration": 0.15625
                },
                {
                    "name": "C5",
                    "midi": 72,
                    "time": 333.59375,
                    "velocity": 0.4881889763779528,
                    "duration": 0.15625
                },
                {
                    "name": "E5",
                    "midi": 76,
                    "time": 333.59375,
                    "velocity": 0.4881889763779528,
                    "duration": 0.15625
                },
                {
                    "name": "F4",
                    "midi": 65,
                    "time": 333.75,
                    "velocity": 0.5039370078740157,
                    "duration": 0.15625
                },
                {
                    "name": "G5",
                    "midi": 79,
                    "time": 333.75,
                    "velocity": 0.5039370078740157,
                    "duration": 0.15625
                },
                {
                    "name": "C5",
                    "midi": 72,
                    "time": 333.90625,
                    "velocity": 0.5039370078740157,
                    "duration": 0.15625
                },
                {
                    "name": "F5",
                    "midi": 77,
                    "time": 333.90625,
                    "velocity": 0.5039370078740157,
                    "duration": 0.15625
                },
                {
                    "name": "A4",
                    "midi": 69,
                    "time": 334.0625,
                    "velocity": 0.5039370078740157,
                    "duration": 0.15625
                },
                {
                    "name": "G5",
                    "midi": 79,
                    "time": 334.0625,
                    "velocity": 0.5039370078740157,
                    "duration": 0.15625
                },
                {
                    "name": "C5",
                    "midi": 72,
                    "time": 334.21875,
                    "velocity": 0.5039370078740157,
                    "duration": 0.15625
                },
                {
                    "name": "F5",
                    "midi": 77,
                    "time": 334.21875,
                    "velocity": 0.5039370078740157,
                    "duration": 0.15625
                },
                {
                    "name": "F4",
                    "midi": 65,
                    "time": 334.375,
                    "velocity": 0.5039370078740157,
                    "duration": 0.15625
                },
                {
                    "name": "C5",
                    "midi": 72,
                    "time": 334.375,
                    "velocity": 0.5039370078740157,
                    "duration": 0.15625
                },
                {
                    "name": "F5",
                    "midi": 77,
                    "time": 334.375,
                    "velocity": 0.5039370078740157,
                    "duration": 0.15625
                },
                {
                    "name": "A4",
                    "midi": 69,
                    "time": 334.53125,
                    "velocity": 0.5039370078740157,
                    "duration": 0.15625
                },
                {
                    "name": "F5",
                    "midi": 77,
                    "time": 334.53125,
                    "velocity": 0.5039370078740157,
                    "duration": 0.15625
                },
                {
                    "name": "A5",
                    "midi": 81,
                    "time": 334.53125,
                    "velocity": 0.5039370078740157,
                    "duration": 0.15625
                },
                {
                    "name": "C5",
                    "midi": 72,
                    "time": 334.6875,
                    "velocity": 0.5039370078740157,
                    "duration": 0.15625
                },
                {
                    "name": "A5",
                    "midi": 81,
                    "time": 334.6875,
                    "velocity": 0.5039370078740157,
                    "duration": 0.15625
                },
                {
                    "name": "C6",
                    "midi": 84,
                    "time": 334.6875,
                    "velocity": 0.5039370078740157,
                    "duration": 0.15625
                },
                {
                    "name": "F5",
                    "midi": 77,
                    "time": 334.84375,
                    "velocity": 0.5039370078740157,
                    "duration": 0.15625
                },
                {
                    "name": "C6",
                    "midi": 84,
                    "time": 334.84375,
                    "velocity": 0.5039370078740157,
                    "duration": 0.15625
                },
                {
                    "name": "F6",
                    "midi": 89,
                    "time": 334.84375,
                    "velocity": 0.5039370078740157,
                    "duration": 0.15625
                },
                {
                    "name": "F5",
                    "midi": 77,
                    "time": 335,
                    "velocity": 0.5039370078740157,
                    "duration": 0.15625
                },
                {
                    "name": "C6",
                    "midi": 84,
                    "time": 335,
                    "velocity": 0.5039370078740157,
                    "duration": 0.15625
                },
                {
                    "name": "F6",
                    "midi": 89,
                    "time": 335,
                    "velocity": 0.5039370078740157,
                    "duration": 0.15625
                },
                {
                    "name": "E5",
                    "midi": 76,
                    "time": 335.15625,
                    "velocity": 0.4881889763779528,
                    "duration": 0.15625
                },
                {
                    "name": "E6",
                    "midi": 88,
                    "time": 335.15625,
                    "velocity": 0.4881889763779528,
                    "duration": 0.15625
                },
                {
                    "name": "F5",
                    "midi": 77,
                    "time": 335.3125,
                    "velocity": 0.47244094488188976,
                    "duration": 0.15625
                },
                {
                    "name": "C6",
                    "midi": 84,
                    "time": 335.3125,
                    "velocity": 0.47244094488188976,
                    "duration": 0.15625
                },
                {
                    "name": "F6",
                    "midi": 89,
                    "time": 335.3125,
                    "velocity": 0.47244094488188976,
                    "duration": 0.15625
                },
                {
                    "name": "E5",
                    "midi": 76,
                    "time": 335.46875,
                    "velocity": 0.4645669291338583,
                    "duration": 0.15625
                },
                {
                    "name": "E6",
                    "midi": 88,
                    "time": 335.46875,
                    "velocity": 0.4645669291338583,
                    "duration": 0.15625
                },
                {
                    "name": "E4",
                    "midi": 64,
                    "time": 335.625,
                    "velocity": 0.44881889763779526,
                    "duration": 0.15625
                },
                {
                    "name": "F5",
                    "midi": 77,
                    "time": 335.625,
                    "velocity": 0.44881889763779526,
                    "duration": 0.15625
                },
                {
                    "name": "C5",
                    "midi": 72,
                    "time": 335.78125,
                    "velocity": 0.4330708661417323,
                    "duration": 0.15625
                },
                {
                    "name": "E5",
                    "midi": 76,
                    "time": 335.78125,
                    "velocity": 0.4330708661417323,
                    "duration": 0.15625
                },
                {
                    "name": "G4",
                    "midi": 67,
                    "time": 335.9375,
                    "velocity": 0.41732283464566927,
                    "duration": 0.15625
                },
                {
                    "name": "F5",
                    "midi": 77,
                    "time": 335.9375,
                    "velocity": 0.41732283464566927,
                    "duration": 0.15625
                },
                {
                    "name": "C5",
                    "midi": 72,
                    "time": 336.09375,
                    "velocity": 0.4094488188976378,
                    "duration": 0.15625
                },
                {
                    "name": "E5",
                    "midi": 76,
                    "time": 336.09375,
                    "velocity": 0.4094488188976378,
                    "duration": 0.15625
                },
                {
                    "name": "F4",
                    "midi": 65,
                    "time": 336.25,
                    "velocity": 0.3937007874015748,
                    "duration": 0.15625
                },
                {
                    "name": "G5",
                    "midi": 79,
                    "time": 336.25,
                    "velocity": 0.3937007874015748,
                    "duration": 0.15625
                },
                {
                    "name": "C5",
                    "midi": 72,
                    "time": 336.40625,
                    "velocity": 0.4251968503937008,
                    "duration": 0.15625
                },
                {
                    "name": "F5",
                    "midi": 77,
                    "time": 336.40625,
                    "velocity": 0.4251968503937008,
                    "duration": 0.15625
                },
                {
                    "name": "A4",
                    "midi": 69,
                    "time": 336.5625,
                    "velocity": 0.4566929133858268,
                    "duration": 0.15625
                },
                {
                    "name": "G5",
                    "midi": 79,
                    "time": 336.5625,
                    "velocity": 0.4566929133858268,
                    "duration": 0.15625
                },
                {
                    "name": "C5",
                    "midi": 72,
                    "time": 336.71875,
                    "velocity": 0.48031496062992124,
                    "duration": 0.15625
                },
                {
                    "name": "F5",
                    "midi": 77,
                    "time": 336.71875,
                    "velocity": 0.48031496062992124,
                    "duration": 0.15625
                },
                {
                    "name": "F4",
                    "midi": 65,
                    "time": 336.875,
                    "velocity": 0.5118110236220472,
                    "duration": 0.15625
                },
                {
                    "name": "C5",
                    "midi": 72,
                    "time": 336.875,
                    "velocity": 0.5118110236220472,
                    "duration": 0.15625
                },
                {
                    "name": "F5",
                    "midi": 77,
                    "time": 336.875,
                    "velocity": 0.5118110236220472,
                    "duration": 0.15625
                },
                {
                    "name": "A4",
                    "midi": 69,
                    "time": 337.03125,
                    "velocity": 0.5433070866141733,
                    "duration": 0.15625
                },
                {
                    "name": "F5",
                    "midi": 77,
                    "time": 337.03125,
                    "velocity": 0.5433070866141733,
                    "duration": 0.15625
                },
                {
                    "name": "A5",
                    "midi": 81,
                    "time": 337.03125,
                    "velocity": 0.5433070866141733,
                    "duration": 0.15625
                },
                {
                    "name": "C5",
                    "midi": 72,
                    "time": 337.1875,
                    "velocity": 0.5748031496062992,
                    "duration": 0.15625
                },
                {
                    "name": "A5",
                    "midi": 81,
                    "time": 337.1875,
                    "velocity": 0.5748031496062992,
                    "duration": 0.15625
                },
                {
                    "name": "C6",
                    "midi": 84,
                    "time": 337.1875,
                    "velocity": 0.5748031496062992,
                    "duration": 0.15625
                },
                {
                    "name": "F5",
                    "midi": 77,
                    "time": 337.34375,
                    "velocity": 0.5984251968503937,
                    "duration": 0.15625
                },
                {
                    "name": "C6",
                    "midi": 84,
                    "time": 337.34375,
                    "velocity": 0.5984251968503937,
                    "duration": 0.15625
                },
                {
                    "name": "F6",
                    "midi": 89,
                    "time": 337.34375,
                    "velocity": 0.5984251968503937,
                    "duration": 0.15625
                },
                {
                    "name": "E5",
                    "midi": 76,
                    "time": 337.5,
                    "velocity": 0.6299212598425197,
                    "duration": 0.550537109375
                },
                {
                    "name": "C6",
                    "midi": 84,
                    "time": 337.5,
                    "velocity": 0.6299212598425197,
                    "duration": 0.550537109375
                },
                {
                    "name": "E6",
                    "midi": 88,
                    "time": 337.5,
                    "velocity": 0.6299212598425197,
                    "duration": 0.550537109375
                },
                {
                    "name": "E4",
                    "midi": 64,
                    "time": 337.8125,
                    "velocity": 0.6299212598425197,
                    "duration": 0.15625
                },
                {
                    "name": "E4",
                    "midi": 64,
                    "time": 337.8125,
                    "velocity": 0.6299212598425197,
                    "duration": 0.625
                },
                {
                    "name": "C5",
                    "midi": 72,
                    "time": 337.96875,
                    "velocity": 0.6299212598425197,
                    "duration": 0.3125
                },
                {
                    "name": "E5",
                    "midi": 76,
                    "time": 337.96875,
                    "velocity": 0.6299212598425197,
                    "duration": 0.15625
                },
                {
                    "name": "D#5",
                    "midi": 75,
                    "time": 338.125,
                    "velocity": 0.6299212598425197,
                    "duration": 0.15625
                },
                {
                    "name": "C5",
                    "midi": 72,
                    "time": 338.28125,
                    "velocity": 0.6299212598425197,
                    "duration": 0.15625
                },
                {
                    "name": "E5",
                    "midi": 76,
                    "time": 338.28125,
                    "velocity": 0.6299212598425197,
                    "duration": 0.15625
                },
                {
                    "name": "A4",
                    "midi": 69,
                    "time": 338.4375,
                    "velocity": 0.6299212598425197,
                    "duration": 0.15625
                },
                {
                    "name": "A4",
                    "midi": 69,
                    "time": 338.4375,
                    "velocity": 0.6299212598425197,
                    "duration": 0.625
                },
                {
                    "name": "E5",
                    "midi": 76,
                    "time": 338.59375,
                    "velocity": 0.6299212598425197,
                    "duration": 0.3125
                },
                {
                    "name": "A5",
                    "midi": 81,
                    "time": 338.59375,
                    "velocity": 0.6299212598425197,
                    "duration": 0.15625
                },
                {
                    "name": "G#5",
                    "midi": 80,
                    "time": 338.75,
                    "velocity": 0.6299212598425197,
                    "duration": 0.15625
                },
                {
                    "name": "E5",
                    "midi": 76,
                    "time": 338.90625,
                    "velocity": 0.6299212598425197,
                    "duration": 0.15625
                },
                {
                    "name": "A5",
                    "midi": 81,
                    "time": 338.90625,
                    "velocity": 0.6299212598425197,
                    "duration": 0.15625
                },
                {
                    "name": "D4",
                    "midi": 62,
                    "time": 339.0625,
                    "velocity": 0.6299212598425197,
                    "duration": 0.15625
                },
                {
                    "name": "D4",
                    "midi": 62,
                    "time": 339.0625,
                    "velocity": 0.6299212598425197,
                    "duration": 0.625
                },
                {
                    "name": "A4",
                    "midi": 69,
                    "time": 339.21875,
                    "velocity": 0.6299212598425197,
                    "duration": 0.3125
                },
                {
                    "name": "D5",
                    "midi": 74,
                    "time": 339.21875,
                    "velocity": 0.6299212598425197,
                    "duration": 0.15625
                },
                {
                    "name": "C#5",
                    "midi": 73,
                    "time": 339.375,
                    "velocity": 0.6299212598425197,
                    "duration": 0.15625
                },
                {
                    "name": "A4",
                    "midi": 69,
                    "time": 339.53125,
                    "velocity": 0.6299212598425197,
                    "duration": 0.15625
                },
                {
                    "name": "D5",
                    "midi": 74,
                    "time": 339.53125,
                    "velocity": 0.6299212598425197,
                    "duration": 0.15625
                },
                {
                    "name": "G4",
                    "midi": 67,
                    "time": 339.6875,
                    "velocity": 0.6299212598425197,
                    "duration": 0.15625
                },
                {
                    "name": "G4",
                    "midi": 67,
                    "time": 339.6875,
                    "velocity": 0.6299212598425197,
                    "duration": 0.625
                },
                {
                    "name": "D5",
                    "midi": 74,
                    "time": 339.84375,
                    "velocity": 0.6299212598425197,
                    "duration": 0.3125
                },
                {
                    "name": "G5",
                    "midi": 79,
                    "time": 339.84375,
                    "velocity": 0.6299212598425197,
                    "duration": 0.15625
                },
                {
                    "name": "F#5",
                    "midi": 78,
                    "time": 340,
                    "velocity": 0.6299212598425197,
                    "duration": 0.15625
                },
                {
                    "name": "D5",
                    "midi": 74,
                    "time": 340.15625,
                    "velocity": 0.6299212598425197,
                    "duration": 0.15625
                },
                {
                    "name": "G5",
                    "midi": 79,
                    "time": 340.15625,
                    "velocity": 0.6299212598425197,
                    "duration": 0.15625
                },
                {
                    "name": "C4",
                    "midi": 60,
                    "time": 340.3125,
                    "velocity": 0.6299212598425197,
                    "duration": 0.15625
                },
                {
                    "name": "C4",
                    "midi": 60,
                    "time": 340.3125,
                    "velocity": 0.6299212598425197,
                    "duration": 0.625
                },
                {
                    "name": "G4",
                    "midi": 67,
                    "time": 340.46875,
                    "velocity": 0.6299212598425197,
                    "duration": 0.3125
                },
                {
                    "name": "C5",
                    "midi": 72,
                    "time": 340.46875,
                    "velocity": 0.6299212598425197,
                    "duration": 0.15625
                },
                {
                    "name": "B4",
                    "midi": 71,
                    "time": 340.625,
                    "velocity": 0.6299212598425197,
                    "duration": 0.15625
                },
                {
                    "name": "G4",
                    "midi": 67,
                    "time": 340.78125,
                    "velocity": 0.6299212598425197,
                    "duration": 0.15625
                },
                {
                    "name": "C5",
                    "midi": 72,
                    "time": 340.78125,
                    "velocity": 0.6299212598425197,
                    "duration": 0.15625
                },
                {
                    "name": "F4",
                    "midi": 65,
                    "time": 340.9375,
                    "velocity": 0.6299212598425197,
                    "duration": 0.15625
                },
                {
                    "name": "F4",
                    "midi": 65,
                    "time": 340.9375,
                    "velocity": 0.6299212598425197,
                    "duration": 0.625
                },
                {
                    "name": "C5",
                    "midi": 72,
                    "time": 341.09375,
                    "velocity": 0.6299212598425197,
                    "duration": 0.3125
                },
                {
                    "name": "F5",
                    "midi": 77,
                    "time": 341.09375,
                    "velocity": 0.6299212598425197,
                    "duration": 0.15625
                },
                {
                    "name": "E5",
                    "midi": 76,
                    "time": 341.25,
                    "velocity": 0.6299212598425197,
                    "duration": 0.15625
                },
                {
                    "name": "C5",
                    "midi": 72,
                    "time": 341.40625,
                    "velocity": 0.6299212598425197,
                    "duration": 0.15625
                },
                {
                    "name": "F5",
                    "midi": 77,
                    "time": 341.40625,
                    "velocity": 0.6299212598425197,
                    "duration": 0.15625
                },
                {
                    "name": "F4",
                    "midi": 65,
                    "time": 341.5625,
                    "velocity": 0.6299212598425197,
                    "duration": 0.15625
                },
                {
                    "name": "F4",
                    "midi": 65,
                    "time": 341.5625,
                    "velocity": 0.6299212598425197,
                    "duration": 0.3125
                },
                {
                    "name": "B4",
                    "midi": 71,
                    "time": 341.71875,
                    "velocity": 0.6299212598425197,
                    "duration": 0.15625
                },
                {
                    "name": "F5",
                    "midi": 77,
                    "time": 341.71875,
                    "velocity": 0.6299212598425197,
                    "duration": 0.15625
                },
                {
                    "name": "G4",
                    "midi": 67,
                    "time": 341.875,
                    "velocity": 0.7795275590551181,
                    "duration": 0.15625
                },
                {
                    "name": "G4",
                    "midi": 67,
                    "time": 341.875,
                    "velocity": 0.6299212598425197,
                    "duration": 0.3125
                },
                {
                    "name": "B4",
                    "midi": 71,
                    "time": 342.03125,
                    "velocity": 0.6299212598425197,
                    "duration": 0.15625
                },
                {
                    "name": "G5",
                    "midi": 79,
                    "time": 342.03125,
                    "velocity": 0.6299212598425197,
                    "duration": 0.15625
                },
                {
                    "name": "F4",
                    "midi": 65,
                    "time": 342.1875,
                    "velocity": 0.6299212598425197,
                    "duration": 0.15625
                },
                {
                    "name": "F4",
                    "midi": 65,
                    "time": 342.1875,
                    "velocity": 0.6299212598425197,
                    "duration": 0.3125
                },
                {
                    "name": "B4",
                    "midi": 71,
                    "time": 342.34375,
                    "velocity": 0.6299212598425197,
                    "duration": 0.15625
                },
                {
                    "name": "F5",
                    "midi": 77,
                    "time": 342.34375,
                    "velocity": 0.6299212598425197,
                    "duration": 0.15625
                },
                {
                    "name": "E4",
                    "midi": 64,
                    "time": 342.5,
                    "velocity": 0.6299212598425197,
                    "duration": 0.15625
                },
                {
                    "name": "E4",
                    "midi": 64,
                    "time": 342.5,
                    "velocity": 0.6299212598425197,
                    "duration": 0.3125
                },
                {
                    "name": "C5",
                    "midi": 72,
                    "time": 342.65625,
                    "velocity": 0.6299212598425197,
                    "duration": 0.15625
                },
                {
                    "name": "E5",
                    "midi": 76,
                    "time": 342.65625,
                    "velocity": 0.6299212598425197,
                    "duration": 0.15625
                },
                {
                    "name": "E4",
                    "midi": 64,
                    "time": 342.8125,
                    "velocity": 0.6299212598425197,
                    "duration": 0.15625
                },
                {
                    "name": "E4",
                    "midi": 64,
                    "time": 342.8125,
                    "velocity": 0.6299212598425197,
                    "duration": 0.625
                },
                {
                    "name": "B4",
                    "midi": 71,
                    "time": 342.96875,
                    "velocity": 0.6299212598425197,
                    "duration": 0.3125
                },
                {
                    "name": "E5",
                    "midi": 76,
                    "time": 342.96875,
                    "velocity": 0.6299212598425197,
                    "duration": 0.15625
                },
                {
                    "name": "D#5",
                    "midi": 75,
                    "time": 343.125,
                    "velocity": 0.6299212598425197,
                    "duration": 0.15625
                },
                {
                    "name": "A#4",
                    "midi": 70,
                    "time": 343.28125,
                    "velocity": 0.6299212598425197,
                    "duration": 0.15625
                },
                {
                    "name": "E5",
                    "midi": 76,
                    "time": 343.28125,
                    "velocity": 0.6299212598425197,
                    "duration": 0.15625
                },
                {
                    "name": "A4",
                    "midi": 69,
                    "time": 343.4375,
                    "velocity": 0.6299212598425197,
                    "duration": 0.15625
                },
                {
                    "name": "A4",
                    "midi": 69,
                    "time": 343.4375,
                    "velocity": 0.6299212598425197,
                    "duration": 0.625
                },
                {
                    "name": "E5",
                    "midi": 76,
                    "time": 343.59375,
                    "velocity": 0.6299212598425197,
                    "duration": 0.3125
                },
                {
                    "name": "A5",
                    "midi": 81,
                    "time": 343.59375,
                    "velocity": 0.6299212598425197,
                    "duration": 0.15625
                },
                {
                    "name": "G#5",
                    "midi": 80,
                    "time": 343.75,
                    "velocity": 0.6299212598425197,
                    "duration": 0.15625
                },
                {
                    "name": "D#5",
                    "midi": 75,
                    "time": 343.90625,
                    "velocity": 0.6299212598425197,
                    "duration": 0.15625
                },
                {
                    "name": "A5",
                    "midi": 81,
                    "time": 343.90625,
                    "velocity": 0.6299212598425197,
                    "duration": 0.15625
                },
                {
                    "name": "D4",
                    "midi": 62,
                    "time": 344.0625,
                    "velocity": 0.6299212598425197,
                    "duration": 0.15625
                },
                {
                    "name": "D4",
                    "midi": 62,
                    "time": 344.0625,
                    "velocity": 0.6299212598425197,
                    "duration": 0.625
                },
                {
                    "name": "A4",
                    "midi": 69,
                    "time": 344.21875,
                    "velocity": 0.6299212598425197,
                    "duration": 0.3125
                },
                {
                    "name": "D5",
                    "midi": 74,
                    "time": 344.21875,
                    "velocity": 0.6299212598425197,
                    "duration": 0.15625
                },
                {
                    "name": "C#5",
                    "midi": 73,
                    "time": 344.375,
                    "velocity": 0.6299212598425197,
                    "duration": 0.15625
                },
                {
                    "name": "G#4",
                    "midi": 68,
                    "time": 344.53125,
                    "velocity": 0.6299212598425197,
                    "duration": 0.15625
                },
                {
                    "name": "D5",
                    "midi": 74,
                    "time": 344.53125,
                    "velocity": 0.6299212598425197,
                    "duration": 0.15625
                },
                {
                    "name": "G4",
                    "midi": 67,
                    "time": 344.6875,
                    "velocity": 0.6299212598425197,
                    "duration": 0.15625
                },
                {
                    "name": "G4",
                    "midi": 67,
                    "time": 344.6875,
                    "velocity": 0.6299212598425197,
                    "duration": 0.625
                },
                {
                    "name": "D5",
                    "midi": 74,
                    "time": 344.84375,
                    "velocity": 0.6299212598425197,
                    "duration": 0.3125
                },
                {
                    "name": "G5",
                    "midi": 79,
                    "time": 344.84375,
                    "velocity": 0.6299212598425197,
                    "duration": 0.15625
                },
                {
                    "name": "F#5",
                    "midi": 78,
                    "time": 345,
                    "velocity": 0.6299212598425197,
                    "duration": 0.15625
                },
                {
                    "name": "C#5",
                    "midi": 73,
                    "time": 345.15625,
                    "velocity": 0.6299212598425197,
                    "duration": 0.15625
                },
                {
                    "name": "G5",
                    "midi": 79,
                    "time": 345.15625,
                    "velocity": 0.6299212598425197,
                    "duration": 0.15625
                },
                {
                    "name": "C4",
                    "midi": 60,
                    "time": 345.3125,
                    "velocity": 0.6299212598425197,
                    "duration": 0.15625
                },
                {
                    "name": "C4",
                    "midi": 60,
                    "time": 345.3125,
                    "velocity": 0.6299212598425197,
                    "duration": 0.625
                },
                {
                    "name": "G4",
                    "midi": 67,
                    "time": 345.46875,
                    "velocity": 0.6299212598425197,
                    "duration": 0.3125
                },
                {
                    "name": "C5",
                    "midi": 72,
                    "time": 345.46875,
                    "velocity": 0.6299212598425197,
                    "duration": 0.15625
                },
                {
                    "name": "B4",
                    "midi": 71,
                    "time": 345.625,
                    "velocity": 0.6299212598425197,
                    "duration": 0.15625
                },
                {
                    "name": "F#4",
                    "midi": 66,
                    "time": 345.78125,
                    "velocity": 0.6299212598425197,
                    "duration": 0.15625
                },
                {
                    "name": "C5",
                    "midi": 72,
                    "time": 345.78125,
                    "velocity": 0.6299212598425197,
                    "duration": 0.15625
                },
                {
                    "name": "F4",
                    "midi": 65,
                    "time": 345.9375,
                    "velocity": 0.6299212598425197,
                    "duration": 0.15625
                },
                {
                    "name": "F4",
                    "midi": 65,
                    "time": 345.9375,
                    "velocity": 0.6299212598425197,
                    "duration": 0.625
                },
                {
                    "name": "C5",
                    "midi": 72,
                    "time": 346.09375,
                    "velocity": 0.6299212598425197,
                    "duration": 0.3125
                },
                {
                    "name": "F5",
                    "midi": 77,
                    "time": 346.09375,
                    "velocity": 0.6299212598425197,
                    "duration": 0.15625
                },
                {
                    "name": "E5",
                    "midi": 76,
                    "time": 346.25,
                    "velocity": 0.6299212598425197,
                    "duration": 0.15625
                },
                {
                    "name": "B4",
                    "midi": 71,
                    "time": 346.40625,
                    "velocity": 0.6299212598425197,
                    "duration": 0.15625
                },
                {
                    "name": "F5",
                    "midi": 77,
                    "time": 346.40625,
                    "velocity": 0.6299212598425197,
                    "duration": 0.15625
                },
                {
                    "name": "F4",
                    "midi": 65,
                    "time": 346.5625,
                    "velocity": 0.6299212598425197,
                    "duration": 0.15625
                },
                {
                    "name": "F4",
                    "midi": 65,
                    "time": 346.5625,
                    "velocity": 0.6299212598425197,
                    "duration": 0.3125
                },
                {
                    "name": "B4",
                    "midi": 71,
                    "time": 346.71875,
                    "velocity": 0.6299212598425197,
                    "duration": 0.15625
                },
                {
                    "name": "F5",
                    "midi": 77,
                    "time": 346.71875,
                    "velocity": 0.6299212598425197,
                    "duration": 0.15625
                },
                {
                    "name": "G4",
                    "midi": 67,
                    "time": 346.875,
                    "velocity": 0.7795275590551181,
                    "duration": 0.15625
                },
                {
                    "name": "G4",
                    "midi": 67,
                    "time": 346.875,
                    "velocity": 0.6299212598425197,
                    "duration": 0.3125
                },
                {
                    "name": "B4",
                    "midi": 71,
                    "time": 347.03125,
                    "velocity": 0.6299212598425197,
                    "duration": 0.15625
                },
                {
                    "name": "G5",
                    "midi": 79,
                    "time": 347.03125,
                    "velocity": 0.6299212598425197,
                    "duration": 0.15625
                },
                {
                    "name": "F4",
                    "midi": 65,
                    "time": 347.1875,
                    "velocity": 0.6299212598425197,
                    "duration": 0.15625
                },
                {
                    "name": "F4",
                    "midi": 65,
                    "time": 347.1875,
                    "velocity": 0.6299212598425197,
                    "duration": 0.3125
                },
                {
                    "name": "B4",
                    "midi": 71,
                    "time": 347.34375,
                    "velocity": 0.6299212598425197,
                    "duration": 0.15625
                },
                {
                    "name": "F5",
                    "midi": 77,
                    "time": 347.34375,
                    "velocity": 0.6299212598425197,
                    "duration": 0.15625
                },
                {
                    "name": "E4",
                    "midi": 64,
                    "time": 347.5,
                    "velocity": 0.6692913385826772,
                    "duration": 0.15625
                },
                {
                    "name": "E4",
                    "midi": 64,
                    "time": 347.5,
                    "velocity": 0.6692913385826772,
                    "duration": 0.3125
                },
                {
                    "name": "C5",
                    "midi": 72,
                    "time": 347.65625,
                    "velocity": 0.6692913385826772,
                    "duration": 0.15625
                },
                {
                    "name": "E5",
                    "midi": 76,
                    "time": 347.65625,
                    "velocity": 0.6692913385826772,
                    "duration": 0.15625
                },
                {
                    "name": "E4",
                    "midi": 64,
                    "time": 347.8125,
                    "velocity": 0.6771653543307087,
                    "duration": 0.15625
                },
                {
                    "name": "E4",
                    "midi": 64,
                    "time": 347.8125,
                    "velocity": 0.6771653543307087,
                    "duration": 0.3125
                },
                {
                    "name": "C5",
                    "midi": 72,
                    "time": 347.96875,
                    "velocity": 0.6771653543307087,
                    "duration": 0.15625
                },
                {
                    "name": "E5",
                    "midi": 76,
                    "time": 347.96875,
                    "velocity": 0.6771653543307087,
                    "duration": 0.15625
                },
                {
                    "name": "G4",
                    "midi": 67,
                    "time": 348.125,
                    "velocity": 0.6850393700787402,
                    "duration": 0.15625
                },
                {
                    "name": "G4",
                    "midi": 67,
                    "time": 348.125,
                    "velocity": 0.6850393700787402,
                    "duration": 0.3125
                },
                {
                    "name": "D5",
                    "midi": 74,
                    "time": 348.28125,
                    "velocity": 0.6850393700787402,
                    "duration": 0.15625
                },
                {
                    "name": "G5",
                    "midi": 79,
                    "time": 348.28125,
                    "velocity": 0.6850393700787402,
                    "duration": 0.15625
                },
                {
                    "name": "C5",
                    "midi": 72,
                    "time": 348.4375,
                    "velocity": 0.6929133858267716,
                    "duration": 0.15625
                },
                {
                    "name": "C5",
                    "midi": 72,
                    "time": 348.4375,
                    "velocity": 0.6929133858267716,
                    "duration": 0.3125
                },
                {
                    "name": "G5",
                    "midi": 79,
                    "time": 348.59375,
                    "velocity": 0.6929133858267716,
                    "duration": 0.15625
                },
                {
                    "name": "C6",
                    "midi": 84,
                    "time": 348.59375,
                    "velocity": 0.6929133858267716,
                    "duration": 0.15625
                },
                {
                    "name": "F5",
                    "midi": 77,
                    "time": 348.75,
                    "velocity": 0.7007874015748031,
                    "duration": 0.15625
                },
                {
                    "name": "F5",
                    "midi": 77,
                    "time": 348.75,
                    "velocity": 0.7007874015748031,
                    "duration": 0.3125
                },
                {
                    "name": "C6",
                    "midi": 84,
                    "time": 348.90625,
                    "velocity": 0.7007874015748031,
                    "duration": 0.15625
                },
                {
                    "name": "F6",
                    "midi": 89,
                    "time": 348.90625,
                    "velocity": 0.7007874015748031,
                    "duration": 0.15625
                },
                {
                    "name": "F5",
                    "midi": 77,
                    "time": 349.0625,
                    "velocity": 0.7007874015748031,
                    "duration": 0.15625
                },
                {
                    "name": "F5",
                    "midi": 77,
                    "time": 349.0625,
                    "velocity": 0.7007874015748031,
                    "duration": 0.3125
                },
                {
                    "name": "C6",
                    "midi": 84,
                    "time": 349.21875,
                    "velocity": 0.7086614173228346,
                    "duration": 0.15625
                },
                {
                    "name": "F6",
                    "midi": 89,
                    "time": 349.21875,
                    "velocity": 0.7086614173228346,
                    "duration": 0.15625
                },
                {
                    "name": "E5",
                    "midi": 76,
                    "time": 349.375,
                    "velocity": 0.7086614173228346,
                    "duration": 0.15625
                },
                {
                    "name": "E5",
                    "midi": 76,
                    "time": 349.375,
                    "velocity": 0.7086614173228346,
                    "duration": 0.3125
                },
                {
                    "name": "C6",
                    "midi": 84,
                    "time": 349.53125,
                    "velocity": 0.7165354330708661,
                    "duration": 0.15625
                },
                {
                    "name": "E6",
                    "midi": 88,
                    "time": 349.53125,
                    "velocity": 0.7165354330708661,
                    "duration": 0.15625
                },
                {
                    "name": "D5",
                    "midi": 74,
                    "time": 349.6875,
                    "velocity": 0.7165354330708661,
                    "duration": 0.15625
                },
                {
                    "name": "D5",
                    "midi": 74,
                    "time": 349.6875,
                    "velocity": 0.7165354330708661,
                    "duration": 0.3125
                },
                {
                    "name": "B5",
                    "midi": 83,
                    "time": 349.84375,
                    "velocity": 0.7244094488188977,
                    "duration": 0.15625
                },
                {
                    "name": "D6",
                    "midi": 86,
                    "time": 349.84375,
                    "velocity": 0.7244094488188977,
                    "duration": 0.15625
                },
                {
                    "name": "C5",
                    "midi": 72,
                    "time": 350,
                    "velocity": 0.7244094488188977,
                    "duration": 0.15625
                },
                {
                    "name": "C5",
                    "midi": 72,
                    "time": 350,
                    "velocity": 0.7244094488188977,
                    "duration": 0.3125
                },
                {
                    "name": "G5",
                    "midi": 79,
                    "time": 350.15625,
                    "velocity": 0.7322834645669292,
                    "duration": 0.15625
                },
                {
                    "name": "C6",
                    "midi": 84,
                    "time": 350.15625,
                    "velocity": 0.7322834645669292,
                    "duration": 0.15625
                },
                {
                    "name": "E4",
                    "midi": 64,
                    "time": 350.3125,
                    "velocity": 0.7322834645669292,
                    "duration": 0.15625
                },
                {
                    "name": "E4",
                    "midi": 64,
                    "time": 350.3125,
                    "velocity": 0.7322834645669292,
                    "duration": 0.3125
                },
                {
                    "name": "C5",
                    "midi": 72,
                    "time": 350.46875,
                    "velocity": 0.7322834645669292,
                    "duration": 0.15625
                },
                {
                    "name": "E5",
                    "midi": 76,
                    "time": 350.46875,
                    "velocity": 0.7322834645669292,
                    "duration": 0.15625
                },
                {
                    "name": "G4",
                    "midi": 67,
                    "time": 350.625,
                    "velocity": 0.7401574803149606,
                    "duration": 0.15625
                },
                {
                    "name": "G4",
                    "midi": 67,
                    "time": 350.625,
                    "velocity": 0.7401574803149606,
                    "duration": 0.3125
                },
                {
                    "name": "D5",
                    "midi": 74,
                    "time": 350.78125,
                    "velocity": 0.7401574803149606,
                    "duration": 0.15625
                },
                {
                    "name": "G5",
                    "midi": 79,
                    "time": 350.78125,
                    "velocity": 0.7401574803149606,
                    "duration": 0.15625
                },
                {
                    "name": "C5",
                    "midi": 72,
                    "time": 350.9375,
                    "velocity": 0.7480314960629921,
                    "duration": 0.15625
                },
                {
                    "name": "C5",
                    "midi": 72,
                    "time": 350.9375,
                    "velocity": 0.7480314960629921,
                    "duration": 0.3125
                },
                {
                    "name": "G5",
                    "midi": 79,
                    "time": 351.09375,
                    "velocity": 0.7480314960629921,
                    "duration": 0.15625
                },
                {
                    "name": "C6",
                    "midi": 84,
                    "time": 351.09375,
                    "velocity": 0.7480314960629921,
                    "duration": 0.15625
                },
                {
                    "name": "G5",
                    "midi": 79,
                    "time": 351.25,
                    "velocity": 1,
                    "duration": 0.15625
                },
                {
                    "name": "G5",
                    "midi": 79,
                    "time": 351.25,
                    "velocity": 0.7559055118110236,
                    "duration": 0.3125
                },
                {
                    "name": "C6",
                    "midi": 84,
                    "time": 351.40625,
                    "velocity": 0.7559055118110236,
                    "duration": 0.15625
                },
                {
                    "name": "G6",
                    "midi": 91,
                    "time": 351.40625,
                    "velocity": 0.7559055118110236,
                    "duration": 0.15625
                },
                {
                    "name": "F5",
                    "midi": 77,
                    "time": 351.5625,
                    "velocity": 0.7637795275590551,
                    "duration": 0.15625
                },
                {
                    "name": "F5",
                    "midi": 77,
                    "time": 351.5625,
                    "velocity": 0.7637795275590551,
                    "duration": 0.3125
                },
                {
                    "name": "C6",
                    "midi": 84,
                    "time": 351.71875,
                    "velocity": 0.7637795275590551,
                    "duration": 0.15625
                },
                {
                    "name": "F6",
                    "midi": 89,
                    "time": 351.71875,
                    "velocity": 0.7637795275590551,
                    "duration": 0.15625
                },
                {
                    "name": "E5",
                    "midi": 76,
                    "time": 351.875,
                    "velocity": 0.7716535433070866,
                    "duration": 0.15625
                },
                {
                    "name": "E5",
                    "midi": 76,
                    "time": 351.875,
                    "velocity": 0.7716535433070866,
                    "duration": 0.3125
                },
                {
                    "name": "C6",
                    "midi": 84,
                    "time": 352.03125,
                    "velocity": 0.7716535433070866,
                    "duration": 0.15625
                },
                {
                    "name": "E6",
                    "midi": 88,
                    "time": 352.03125,
                    "velocity": 0.7716535433070866,
                    "duration": 0.15625
                },
                {
                    "name": "D5",
                    "midi": 74,
                    "time": 352.1875,
                    "velocity": 0.7716535433070866,
                    "duration": 0.15625
                },
                {
                    "name": "D5",
                    "midi": 74,
                    "time": 352.1875,
                    "velocity": 0.7716535433070866,
                    "duration": 0.3125
                },
                {
                    "name": "B5",
                    "midi": 83,
                    "time": 352.34375,
                    "velocity": 0.7795275590551181,
                    "duration": 0.15625
                },
                {
                    "name": "D6",
                    "midi": 86,
                    "time": 352.34375,
                    "velocity": 0.7795275590551181,
                    "duration": 0.15625
                },
                {
                    "name": "C#5",
                    "midi": 73,
                    "time": 352.5,
                    "velocity": 0.7795275590551181,
                    "duration": 0.15625
                },
                {
                    "name": "C#5",
                    "midi": 73,
                    "time": 352.5,
                    "velocity": 0.7795275590551181,
                    "duration": 0.3125
                },
                {
                    "name": "A5",
                    "midi": 81,
                    "time": 352.65625,
                    "velocity": 0.7874015748031497,
                    "duration": 0.15625
                },
                {
                    "name": "C#6",
                    "midi": 85,
                    "time": 352.65625,
                    "velocity": 0.7874015748031497,
                    "duration": 0.15625
                },
                {
                    "name": "F4",
                    "midi": 65,
                    "time": 352.8125,
                    "velocity": 0.7874015748031497,
                    "duration": 0.15625
                },
                {
                    "name": "F4",
                    "midi": 65,
                    "time": 352.8125,
                    "velocity": 0.7874015748031497,
                    "duration": 0.3125
                },
                {
                    "name": "D5",
                    "midi": 74,
                    "time": 352.96875,
                    "velocity": 0.7952755905511811,
                    "duration": 0.15625
                },
                {
                    "name": "F5",
                    "midi": 77,
                    "time": 352.96875,
                    "velocity": 0.7952755905511811,
                    "duration": 0.15625
                },
                {
                    "name": "A4",
                    "midi": 69,
                    "time": 353.125,
                    "velocity": 0.7952755905511811,
                    "duration": 0.15625
                },
                {
                    "name": "A4",
                    "midi": 69,
                    "time": 353.125,
                    "velocity": 0.7952755905511811,
                    "duration": 0.3125
                },
                {
                    "name": "E5",
                    "midi": 76,
                    "time": 353.28125,
                    "velocity": 0.8031496062992126,
                    "duration": 0.15625
                },
                {
                    "name": "A5",
                    "midi": 81,
                    "time": 353.28125,
                    "velocity": 0.8031496062992126,
                    "duration": 0.15625
                },
                {
                    "name": "D5",
                    "midi": 74,
                    "time": 353.4375,
                    "velocity": 0.8031496062992126,
                    "duration": 0.15625
                },
                {
                    "name": "D5",
                    "midi": 74,
                    "time": 353.4375,
                    "velocity": 0.8031496062992126,
                    "duration": 0.3125
                },
                {
                    "name": "A5",
                    "midi": 81,
                    "time": 353.59375,
                    "velocity": 0.8031496062992126,
                    "duration": 0.15625
                },
                {
                    "name": "D6",
                    "midi": 86,
                    "time": 353.59375,
                    "velocity": 0.8031496062992126,
                    "duration": 0.15625
                },
                {
                    "name": "G5",
                    "midi": 79,
                    "time": 353.75,
                    "velocity": 0.8110236220472441,
                    "duration": 0.15625
                },
                {
                    "name": "G5",
                    "midi": 79,
                    "time": 353.75,
                    "velocity": 0.8110236220472441,
                    "duration": 0.3125
                },
                {
                    "name": "D6",
                    "midi": 86,
                    "time": 353.90625,
                    "velocity": 0.8110236220472441,
                    "duration": 0.15625
                },
                {
                    "name": "G6",
                    "midi": 91,
                    "time": 353.90625,
                    "velocity": 0.8110236220472441,
                    "duration": 0.15625
                },
                {
                    "name": "G5",
                    "midi": 79,
                    "time": 354.0625,
                    "velocity": 0.8188976377952756,
                    "duration": 0.15625
                },
                {
                    "name": "G5",
                    "midi": 79,
                    "time": 354.0625,
                    "velocity": 0.8188976377952756,
                    "duration": 0.3125
                },
                {
                    "name": "D6",
                    "midi": 86,
                    "time": 354.21875,
                    "velocity": 0.8188976377952756,
                    "duration": 0.15625
                },
                {
                    "name": "G6",
                    "midi": 91,
                    "time": 354.21875,
                    "velocity": 0.8188976377952756,
                    "duration": 0.15625
                },
                {
                    "name": "F5",
                    "midi": 77,
                    "time": 354.375,
                    "velocity": 0.8267716535433071,
                    "duration": 0.15625
                },
                {
                    "name": "F5",
                    "midi": 77,
                    "time": 354.375,
                    "velocity": 0.8267716535433071,
                    "duration": 0.3125
                },
                {
                    "name": "D6",
                    "midi": 86,
                    "time": 354.53125,
                    "velocity": 0.8267716535433071,
                    "duration": 0.15625
                },
                {
                    "name": "F6",
                    "midi": 89,
                    "time": 354.53125,
                    "velocity": 0.8267716535433071,
                    "duration": 0.15625
                },
                {
                    "name": "E5",
                    "midi": 76,
                    "time": 354.6875,
                    "velocity": 0.8346456692913385,
                    "duration": 0.15625
                },
                {
                    "name": "E5",
                    "midi": 76,
                    "time": 354.6875,
                    "velocity": 0.8346456692913385,
                    "duration": 0.3125
                },
                {
                    "name": "C#6",
                    "midi": 85,
                    "time": 354.84375,
                    "velocity": 0.8346456692913385,
                    "duration": 0.15625
                },
                {
                    "name": "E6",
                    "midi": 88,
                    "time": 354.84375,
                    "velocity": 0.8346456692913385,
                    "duration": 0.15625
                },
                {
                    "name": "D5",
                    "midi": 74,
                    "time": 355,
                    "velocity": 0.8346456692913385,
                    "duration": 0.15625
                },
                {
                    "name": "D5",
                    "midi": 74,
                    "time": 355,
                    "velocity": 0.8346456692913385,
                    "duration": 0.3125
                },
                {
                    "name": "A5",
                    "midi": 81,
                    "time": 355.15625,
                    "velocity": 0.84251968503937,
                    "duration": 0.15625
                },
                {
                    "name": "D6",
                    "midi": 86,
                    "time": 355.15625,
                    "velocity": 0.84251968503937,
                    "duration": 0.15625
                },
                {
                    "name": "F4",
                    "midi": 65,
                    "time": 355.3125,
                    "velocity": 0.84251968503937,
                    "duration": 0.15625
                },
                {
                    "name": "F4",
                    "midi": 65,
                    "time": 355.3125,
                    "velocity": 0.84251968503937,
                    "duration": 0.3125
                },
                {
                    "name": "D5",
                    "midi": 74,
                    "time": 355.46875,
                    "velocity": 0.8503937007874016,
                    "duration": 0.15625
                },
                {
                    "name": "F5",
                    "midi": 77,
                    "time": 355.46875,
                    "velocity": 0.8503937007874016,
                    "duration": 0.15625
                },
                {
                    "name": "A4",
                    "midi": 69,
                    "time": 355.625,
                    "velocity": 0.8503937007874016,
                    "duration": 0.15625
                },
                {
                    "name": "A4",
                    "midi": 69,
                    "time": 355.625,
                    "velocity": 0.8503937007874016,
                    "duration": 0.3125
                },
                {
                    "name": "E5",
                    "midi": 76,
                    "time": 355.78125,
                    "velocity": 0.8582677165354331,
                    "duration": 0.15625
                },
                {
                    "name": "A5",
                    "midi": 81,
                    "time": 355.78125,
                    "velocity": 0.8582677165354331,
                    "duration": 0.15625
                },
                {
                    "name": "D5",
                    "midi": 74,
                    "time": 355.9375,
                    "velocity": 0.8582677165354331,
                    "duration": 0.15625
                },
                {
                    "name": "D5",
                    "midi": 74,
                    "time": 355.9375,
                    "velocity": 0.8582677165354331,
                    "duration": 0.3125
                },
                {
                    "name": "A5",
                    "midi": 81,
                    "time": 356.09375,
                    "velocity": 0.8661417322834646,
                    "duration": 0.15625
                },
                {
                    "name": "D6",
                    "midi": 86,
                    "time": 356.09375,
                    "velocity": 0.8661417322834646,
                    "duration": 0.15625
                },
                {
                    "name": "A5",
                    "midi": 81,
                    "time": 356.25,
                    "velocity": 1,
                    "duration": 0.15625
                },
                {
                    "name": "A5",
                    "midi": 81,
                    "time": 356.25,
                    "velocity": 0.8661417322834646,
                    "duration": 0.3125
                },
                {
                    "name": "D6",
                    "midi": 86,
                    "time": 356.40625,
                    "velocity": 0.8661417322834646,
                    "duration": 0.15625
                },
                {
                    "name": "A6",
                    "midi": 93,
                    "time": 356.40625,
                    "velocity": 0.8661417322834646,
                    "duration": 0.15625
                },
                {
                    "name": "G5",
                    "midi": 79,
                    "time": 356.5625,
                    "velocity": 0.8661417322834646,
                    "duration": 0.15625
                },
                {
                    "name": "G5",
                    "midi": 79,
                    "time": 356.5625,
                    "velocity": 0.8661417322834646,
                    "duration": 0.3125
                },
                {
                    "name": "D6",
                    "midi": 86,
                    "time": 356.71875,
                    "velocity": 0.8661417322834646,
                    "duration": 0.15625
                },
                {
                    "name": "G6",
                    "midi": 91,
                    "time": 356.71875,
                    "velocity": 0.8661417322834646,
                    "duration": 0.15625
                },
                {
                    "name": "F5",
                    "midi": 77,
                    "time": 356.875,
                    "velocity": 0.8661417322834646,
                    "duration": 0.15625
                },
                {
                    "name": "F5",
                    "midi": 77,
                    "time": 356.875,
                    "velocity": 0.8661417322834646,
                    "duration": 0.3125
                },
                {
                    "name": "D6",
                    "midi": 86,
                    "time": 357.03125,
                    "velocity": 0.8661417322834646,
                    "duration": 0.15625
                },
                {
                    "name": "F6",
                    "midi": 89,
                    "time": 357.03125,
                    "velocity": 0.8661417322834646,
                    "duration": 0.15625
                },
                {
                    "name": "E5",
                    "midi": 76,
                    "time": 357.1875,
                    "velocity": 0.8661417322834646,
                    "duration": 0.15625
                },
                {
                    "name": "E5",
                    "midi": 76,
                    "time": 357.1875,
                    "velocity": 0.8661417322834646,
                    "duration": 0.3125
                },
                {
                    "name": "C#6",
                    "midi": 85,
                    "time": 357.34375,
                    "velocity": 0.8661417322834646,
                    "duration": 0.15625
                },
                {
                    "name": "E6",
                    "midi": 88,
                    "time": 357.34375,
                    "velocity": 0.8661417322834646,
                    "duration": 0.15625
                },
                {
                    "name": "D#5",
                    "midi": 75,
                    "time": 357.5,
                    "velocity": 1,
                    "duration": 0.15625
                },
                {
                    "name": "D#5",
                    "midi": 75,
                    "time": 357.5,
                    "velocity": 1,
                    "duration": 0.3125
                },
                {
                    "name": "B5",
                    "midi": 83,
                    "time": 357.65625,
                    "velocity": 1,
                    "duration": 0.15625
                },
                {
                    "name": "D#6",
                    "midi": 87,
                    "time": 357.65625,
                    "velocity": 1,
                    "duration": 0.15625
                },
                {
                    "name": "D#5",
                    "midi": 75,
                    "time": 357.8125,
                    "velocity": 1,
                    "duration": 0.15625
                },
                {
                    "name": "D#5",
                    "midi": 75,
                    "time": 357.8125,
                    "velocity": 1,
                    "duration": 0.3125
                },
                {
                    "name": "B5",
                    "midi": 83,
                    "time": 357.96875,
                    "velocity": 1,
                    "duration": 0.15625
                },
                {
                    "name": "D#6",
                    "midi": 87,
                    "time": 357.96875,
                    "velocity": 1,
                    "duration": 0.15625
                },
                {
                    "name": "E5",
                    "midi": 76,
                    "time": 358.125,
                    "velocity": 1,
                    "duration": 0.15625
                },
                {
                    "name": "E5",
                    "midi": 76,
                    "time": 358.125,
                    "velocity": 1,
                    "duration": 0.3125
                },
                {
                    "name": "C#6",
                    "midi": 85,
                    "time": 358.28125,
                    "velocity": 1,
                    "duration": 0.15625
                },
                {
                    "name": "E6",
                    "midi": 88,
                    "time": 358.28125,
                    "velocity": 1,
                    "duration": 0.15625
                },
                {
                    "name": "F#5",
                    "midi": 78,
                    "time": 358.4375,
                    "velocity": 1,
                    "duration": 0.15625
                },
                {
                    "name": "F#5",
                    "midi": 78,
                    "time": 358.4375,
                    "velocity": 1,
                    "duration": 0.3125
                },
                {
                    "name": "D#6",
                    "midi": 87,
                    "time": 358.59375,
                    "velocity": 1,
                    "duration": 0.15625
                },
                {
                    "name": "F#6",
                    "midi": 90,
                    "time": 358.59375,
                    "velocity": 1,
                    "duration": 0.15625
                },
                {
                    "name": "G#5",
                    "midi": 80,
                    "time": 358.75,
                    "velocity": 1,
                    "duration": 0.15625
                },
                {
                    "name": "G#5",
                    "midi": 80,
                    "time": 358.75,
                    "velocity": 1,
                    "duration": 0.3125
                },
                {
                    "name": "E6",
                    "midi": 88,
                    "time": 358.90625,
                    "velocity": 1,
                    "duration": 0.15625
                },
                {
                    "name": "G#6",
                    "midi": 92,
                    "time": 358.90625,
                    "velocity": 1,
                    "duration": 0.15625
                },
                {
                    "name": "B4",
                    "midi": 71,
                    "time": 359.0625,
                    "velocity": 1,
                    "duration": 0.15625
                },
                {
                    "name": "B4",
                    "midi": 71,
                    "time": 359.0625,
                    "velocity": 1,
                    "duration": 0.3125
                },
                {
                    "name": "G5",
                    "midi": 79,
                    "time": 359.21875,
                    "velocity": 1,
                    "duration": 0.15625
                },
                {
                    "name": "B5",
                    "midi": 83,
                    "time": 359.21875,
                    "velocity": 1,
                    "duration": 0.15625
                },
                {
                    "name": "C5",
                    "midi": 72,
                    "time": 359.375,
                    "velocity": 1,
                    "duration": 0.15625
                },
                {
                    "name": "C5",
                    "midi": 72,
                    "time": 359.375,
                    "velocity": 1,
                    "duration": 0.3125
                },
                {
                    "name": "A5",
                    "midi": 81,
                    "time": 359.53125,
                    "velocity": 1,
                    "duration": 0.15625
                },
                {
                    "name": "C6",
                    "midi": 84,
                    "time": 359.53125,
                    "velocity": 1,
                    "duration": 0.15625
                },
                {
                    "name": "D5",
                    "midi": 74,
                    "time": 359.6875,
                    "velocity": 1,
                    "duration": 0.15625
                },
                {
                    "name": "D5",
                    "midi": 74,
                    "time": 359.6875,
                    "velocity": 1,
                    "duration": 0.3125
                },
                {
                    "name": "B5",
                    "midi": 83,
                    "time": 359.84375,
                    "velocity": 1,
                    "duration": 0.15625
                },
                {
                    "name": "D6",
                    "midi": 86,
                    "time": 359.84375,
                    "velocity": 1,
                    "duration": 0.15625
                },
                {
                    "name": "E5",
                    "midi": 76,
                    "time": 360,
                    "velocity": 1,
                    "duration": 0.15625
                },
                {
                    "name": "E5",
                    "midi": 76,
                    "time": 360,
                    "velocity": 1,
                    "duration": 0.3125
                },
                {
                    "name": "C6",
                    "midi": 84,
                    "time": 360.15625,
                    "velocity": 1,
                    "duration": 0.15625
                },
                {
                    "name": "E6",
                    "midi": 88,
                    "time": 360.15625,
                    "velocity": 1,
                    "duration": 0.15625
                },
                {
                    "name": "D#5",
                    "midi": 75,
                    "time": 360.3125,
                    "velocity": 1,
                    "duration": 0.15625
                },
                {
                    "name": "D#5",
                    "midi": 75,
                    "time": 360.3125,
                    "velocity": 1,
                    "duration": 0.3125
                },
                {
                    "name": "B5",
                    "midi": 83,
                    "time": 360.46875,
                    "velocity": 1,
                    "duration": 0.15625
                },
                {
                    "name": "D#6",
                    "midi": 87,
                    "time": 360.46875,
                    "velocity": 1,
                    "duration": 0.15625
                },
                {
                    "name": "E5",
                    "midi": 76,
                    "time": 360.625,
                    "velocity": 1,
                    "duration": 0.15625
                },
                {
                    "name": "E5",
                    "midi": 76,
                    "time": 360.625,
                    "velocity": 1,
                    "duration": 0.3125
                },
                {
                    "name": "C#6",
                    "midi": 85,
                    "time": 360.78125,
                    "velocity": 1,
                    "duration": 0.15625
                },
                {
                    "name": "E6",
                    "midi": 88,
                    "time": 360.78125,
                    "velocity": 1,
                    "duration": 0.15625
                },
                {
                    "name": "F#5",
                    "midi": 78,
                    "time": 360.9375,
                    "velocity": 1,
                    "duration": 0.15625
                },
                {
                    "name": "F#5",
                    "midi": 78,
                    "time": 360.9375,
                    "velocity": 1,
                    "duration": 0.3125
                },
                {
                    "name": "D#6",
                    "midi": 87,
                    "time": 361.09375,
                    "velocity": 1,
                    "duration": 0.15625
                },
                {
                    "name": "F#6",
                    "midi": 90,
                    "time": 361.09375,
                    "velocity": 1,
                    "duration": 0.15625
                },
                {
                    "name": "G#5",
                    "midi": 80,
                    "time": 361.25,
                    "velocity": 1,
                    "duration": 0.15625
                },
                {
                    "name": "G#5",
                    "midi": 80,
                    "time": 361.25,
                    "velocity": 1,
                    "duration": 0.3125
                },
                {
                    "name": "E6",
                    "midi": 88,
                    "time": 361.40625,
                    "velocity": 1,
                    "duration": 0.15625
                },
                {
                    "name": "G#6",
                    "midi": 92,
                    "time": 361.40625,
                    "velocity": 1,
                    "duration": 0.15625
                },
                {
                    "name": "B4",
                    "midi": 71,
                    "time": 361.5625,
                    "velocity": 1,
                    "duration": 0.15625
                },
                {
                    "name": "B4",
                    "midi": 71,
                    "time": 361.5625,
                    "velocity": 1,
                    "duration": 0.3125
                },
                {
                    "name": "G5",
                    "midi": 79,
                    "time": 361.71875,
                    "velocity": 1,
                    "duration": 0.15625
                },
                {
                    "name": "B5",
                    "midi": 83,
                    "time": 361.71875,
                    "velocity": 1,
                    "duration": 0.15625
                },
                {
                    "name": "C5",
                    "midi": 72,
                    "time": 361.875,
                    "velocity": 1,
                    "duration": 0.15625
                },
                {
                    "name": "C5",
                    "midi": 72,
                    "time": 361.875,
                    "velocity": 1,
                    "duration": 0.3125
                },
                {
                    "name": "A5",
                    "midi": 81,
                    "time": 362.03125,
                    "velocity": 1,
                    "duration": 0.15625
                },
                {
                    "name": "C6",
                    "midi": 84,
                    "time": 362.03125,
                    "velocity": 1,
                    "duration": 0.15625
                },
                {
                    "name": "D5",
                    "midi": 74,
                    "time": 362.1875,
                    "velocity": 1,
                    "duration": 0.15625
                },
                {
                    "name": "D5",
                    "midi": 74,
                    "time": 362.1875,
                    "velocity": 1,
                    "duration": 0.3125
                },
                {
                    "name": "B5",
                    "midi": 83,
                    "time": 362.34375,
                    "velocity": 1,
                    "duration": 0.15625
                },
                {
                    "name": "D6",
                    "midi": 86,
                    "time": 362.34375,
                    "velocity": 1,
                    "duration": 0.15625
                },
                {
                    "name": "E5",
                    "midi": 76,
                    "time": 362.5,
                    "velocity": 0.9448818897637795,
                    "duration": 0.15625
                },
                {
                    "name": "E5",
                    "midi": 76,
                    "time": 362.5,
                    "velocity": 0.9448818897637795,
                    "duration": 0.3125
                },
                {
                    "name": "C6",
                    "midi": 84,
                    "time": 362.65625,
                    "velocity": 0.9212598425196851,
                    "duration": 0.15625
                },
                {
                    "name": "E6",
                    "midi": 88,
                    "time": 362.65625,
                    "velocity": 0.9212598425196851,
                    "duration": 0.15625
                },
                {
                    "name": "D#5",
                    "midi": 75,
                    "time": 362.8125,
                    "velocity": 0.905511811023622,
                    "duration": 0.15625
                },
                {
                    "name": "D#5",
                    "midi": 75,
                    "time": 362.8125,
                    "velocity": 0.905511811023622,
                    "duration": 0.3125
                },
                {
                    "name": "C6",
                    "midi": 84,
                    "time": 362.96875,
                    "velocity": 0.8818897637795275,
                    "duration": 0.15625
                },
                {
                    "name": "D#6",
                    "midi": 87,
                    "time": 362.96875,
                    "velocity": 0.8818897637795275,
                    "duration": 0.15625
                },
                {
                    "name": "D5",
                    "midi": 74,
                    "time": 363.125,
                    "velocity": 0.8661417322834646,
                    "duration": 0.15625
                },
                {
                    "name": "D5",
                    "midi": 74,
                    "time": 363.125,
                    "velocity": 0.8661417322834646,
                    "duration": 0.3125
                },
                {
                    "name": "B5",
                    "midi": 83,
                    "time": 363.28125,
                    "velocity": 0.84251968503937,
                    "duration": 0.15625
                },
                {
                    "name": "D6",
                    "midi": 86,
                    "time": 363.28125,
                    "velocity": 0.84251968503937,
                    "duration": 0.15625
                },
                {
                    "name": "C5",
                    "midi": 72,
                    "time": 363.4375,
                    "velocity": 0.8267716535433071,
                    "duration": 0.15625
                },
                {
                    "name": "C5",
                    "midi": 72,
                    "time": 363.4375,
                    "velocity": 0.8267716535433071,
                    "duration": 0.3125
                },
                {
                    "name": "A5",
                    "midi": 81,
                    "time": 363.59375,
                    "velocity": 0.8031496062992126,
                    "duration": 0.15625
                },
                {
                    "name": "C6",
                    "midi": 84,
                    "time": 363.59375,
                    "velocity": 0.8031496062992126,
                    "duration": 0.15625
                },
                {
                    "name": "B4",
                    "midi": 71,
                    "time": 363.75,
                    "velocity": 0.7874015748031497,
                    "duration": 0.15625
                },
                {
                    "name": "B4",
                    "midi": 71,
                    "time": 363.75,
                    "velocity": 0.7874015748031497,
                    "duration": 0.3125
                },
                {
                    "name": "G5",
                    "midi": 79,
                    "time": 363.90625,
                    "velocity": 0.7637795275590551,
                    "duration": 0.15625
                },
                {
                    "name": "B5",
                    "midi": 83,
                    "time": 363.90625,
                    "velocity": 0.7637795275590551,
                    "duration": 0.15625
                },
                {
                    "name": "A#4",
                    "midi": 70,
                    "time": 364.0625,
                    "velocity": 0.7480314960629921,
                    "duration": 0.15625
                },
                {
                    "name": "A#4",
                    "midi": 70,
                    "time": 364.0625,
                    "velocity": 0.7480314960629921,
                    "duration": 0.3125
                },
                {
                    "name": "G5",
                    "midi": 79,
                    "time": 364.21875,
                    "velocity": 0.7244094488188977,
                    "duration": 0.15625
                },
                {
                    "name": "A#5",
                    "midi": 82,
                    "time": 364.21875,
                    "velocity": 0.7244094488188977,
                    "duration": 0.15625
                },
                {
                    "name": "A4",
                    "midi": 69,
                    "time": 364.375,
                    "velocity": 0.7086614173228346,
                    "duration": 0.15625
                },
                {
                    "name": "A4",
                    "midi": 69,
                    "time": 364.375,
                    "velocity": 0.7086614173228346,
                    "duration": 0.3125
                },
                {
                    "name": "F5",
                    "midi": 77,
                    "time": 364.53125,
                    "velocity": 0.6850393700787402,
                    "duration": 0.15625
                },
                {
                    "name": "A5",
                    "midi": 81,
                    "time": 364.53125,
                    "velocity": 0.6850393700787402,
                    "duration": 0.15625
                },
                {
                    "name": "G4",
                    "midi": 67,
                    "time": 364.6875,
                    "velocity": 0.6692913385826772,
                    "duration": 0.15625
                },
                {
                    "name": "G4",
                    "midi": 67,
                    "time": 364.6875,
                    "velocity": 0.6692913385826772,
                    "duration": 0.3125
                },
                {
                    "name": "E5",
                    "midi": 76,
                    "time": 364.84375,
                    "velocity": 0.6456692913385826,
                    "duration": 0.15625
                },
                {
                    "name": "G5",
                    "midi": 79,
                    "time": 364.84375,
                    "velocity": 0.6456692913385826,
                    "duration": 0.15625
                },
                {
                    "name": "F#4",
                    "midi": 66,
                    "time": 365,
                    "velocity": 0.6299212598425197,
                    "duration": 0.15625
                },
                {
                    "name": "F#4",
                    "midi": 66,
                    "time": 365,
                    "velocity": 0.6299212598425197,
                    "duration": 0.3125
                },
                {
                    "name": "D5",
                    "midi": 74,
                    "time": 365.15625,
                    "velocity": 0.6062992125984252,
                    "duration": 0.15625
                },
                {
                    "name": "F#5",
                    "midi": 78,
                    "time": 365.15625,
                    "velocity": 0.6062992125984252,
                    "duration": 0.15625
                },
                {
                    "name": "F4",
                    "midi": 65,
                    "time": 365.3125,
                    "velocity": 0.5905511811023622,
                    "duration": 0.15625
                },
                {
                    "name": "F4",
                    "midi": 65,
                    "time": 365.3125,
                    "velocity": 0.5905511811023622,
                    "duration": 0.3125
                },
                {
                    "name": "D5",
                    "midi": 74,
                    "time": 365.46875,
                    "velocity": 0.5669291338582677,
                    "duration": 0.15625
                },
                {
                    "name": "F5",
                    "midi": 77,
                    "time": 365.46875,
                    "velocity": 0.5669291338582677,
                    "duration": 0.15625
                },
                {
                    "name": "E4",
                    "midi": 64,
                    "time": 365.625,
                    "velocity": 0.5511811023622047,
                    "duration": 0.15625
                },
                {
                    "name": "E4",
                    "midi": 64,
                    "time": 365.625,
                    "velocity": 0.5511811023622047,
                    "duration": 0.3125
                },
                {
                    "name": "C5",
                    "midi": 72,
                    "time": 365.78125,
                    "velocity": 0.5275590551181102,
                    "duration": 0.15625
                },
                {
                    "name": "E5",
                    "midi": 76,
                    "time": 365.78125,
                    "velocity": 0.5275590551181102,
                    "duration": 0.15625
                },
                {
                    "name": "D4",
                    "midi": 62,
                    "time": 365.9375,
                    "velocity": 0.5118110236220472,
                    "duration": 0.15625
                },
                {
                    "name": "D4",
                    "midi": 62,
                    "time": 365.9375,
                    "velocity": 0.5118110236220472,
                    "duration": 0.3125
                },
                {
                    "name": "B4",
                    "midi": 71,
                    "time": 366.09375,
                    "velocity": 0.4881889763779528,
                    "duration": 0.15625
                },
                {
                    "name": "D5",
                    "midi": 74,
                    "time": 366.09375,
                    "velocity": 0.4881889763779528,
                    "duration": 0.15625
                },
                {
                    "name": "C4",
                    "midi": 60,
                    "time": 366.25,
                    "velocity": 0.31496062992125984,
                    "duration": 0.15625
                },
                {
                    "name": "C4",
                    "midi": 60,
                    "time": 366.25,
                    "velocity": 0.47244094488188976,
                    "duration": 0.3125
                },
                {
                    "name": "A4",
                    "midi": 69,
                    "time": 366.40625,
                    "velocity": 0.29133858267716534,
                    "duration": 0.15625
                },
                {
                    "name": "C5",
                    "midi": 72,
                    "time": 366.40625,
                    "velocity": 0.29133858267716534,
                    "duration": 0.15625
                },
                {
                    "name": "A3",
                    "midi": 57,
                    "time": 366.5625,
                    "velocity": 0.2677165354330709,
                    "duration": 0.15625
                },
                {
                    "name": "A3",
                    "midi": 57,
                    "time": 366.5625,
                    "velocity": 0.4330708661417323,
                    "duration": 0.3125
                },
                {
                    "name": "C4",
                    "midi": 60,
                    "time": 366.71875,
                    "velocity": 0.2440944881889764,
                    "duration": 0.15625
                },
                {
                    "name": "E4",
                    "midi": 64,
                    "time": 366.71875,
                    "velocity": 0.2440944881889764,
                    "duration": 0.15625
                },
                {
                    "name": "G3",
                    "midi": 55,
                    "time": 366.875,
                    "velocity": 0.2283464566929134,
                    "duration": 0.15625
                },
                {
                    "name": "G3",
                    "midi": 55,
                    "time": 366.875,
                    "velocity": 0.3937007874015748,
                    "duration": 0.3125
                },
                {
                    "name": "B3",
                    "midi": 59,
                    "time": 367.03125,
                    "velocity": 0.2047244094488189,
                    "duration": 0.15625
                },
                {
                    "name": "E4",
                    "midi": 64,
                    "time": 367.03125,
                    "velocity": 0.2047244094488189,
                    "duration": 0.15625
                },
                {
                    "name": "F3",
                    "midi": 53,
                    "time": 367.1875,
                    "velocity": 0.18110236220472442,
                    "duration": 0.15625
                },
                {
                    "name": "F3",
                    "midi": 53,
                    "time": 367.1875,
                    "velocity": 0.3543307086614173,
                    "duration": 0.3125
                },
                {
                    "name": "A3",
                    "midi": 57,
                    "time": 367.34375,
                    "velocity": 0.15748031496062992,
                    "duration": 0.15625
                },
                {
                    "name": "D4",
                    "midi": 62,
                    "time": 367.34375,
                    "velocity": 0.15748031496062992,
                    "duration": 0.15625
                },
                {
                    "name": "C4",
                    "midi": 60,
                    "time": 367.5,
                    "velocity": 0.15748031496062992,
                    "duration": 0.15625
                },
                {
                    "name": "C4",
                    "midi": 60,
                    "time": 367.5,
                    "velocity": 0.23622047244094488,
                    "duration": 1.25
                },
                {
                    "name": "F#3",
                    "midi": 54,
                    "time": 367.65625,
                    "velocity": 0.15748031496062992,
                    "duration": 0.15625
                },
                {
                    "name": "G3",
                    "midi": 55,
                    "time": 367.8125,
                    "velocity": 0.15748031496062992,
                    "duration": 0.15625
                },
                {
                    "name": "F#3",
                    "midi": 54,
                    "time": 367.96875,
                    "velocity": 0.15748031496062992,
                    "duration": 0.15625
                },
                {
                    "name": "G3",
                    "midi": 55,
                    "time": 368.125,
                    "velocity": 0.15748031496062992,
                    "duration": 0.15625
                },
                {
                    "name": "F#3",
                    "midi": 54,
                    "time": 368.28125,
                    "velocity": 0.15748031496062992,
                    "duration": 0.15625
                },
                {
                    "name": "G3",
                    "midi": 55,
                    "time": 368.4375,
                    "velocity": 0.15748031496062992,
                    "duration": 0.15625
                },
                {
                    "name": "C4",
                    "midi": 60,
                    "time": 368.59375,
                    "velocity": 0.15748031496062992,
                    "duration": 0.15625
                },
                {
                    "name": "E4",
                    "midi": 64,
                    "time": 368.75,
                    "velocity": 0.15748031496062992,
                    "duration": 0.15625
                },
                {
                    "name": "G3",
                    "midi": 55,
                    "time": 368.75,
                    "velocity": 0.15748031496062992,
                    "duration": 1.25
                },
                {
                    "name": "D#4",
                    "midi": 63,
                    "time": 368.90625,
                    "velocity": 0.15748031496062992,
                    "duration": 0.15625
                },
                {
                    "name": "E4",
                    "midi": 64,
                    "time": 369.0625,
                    "velocity": 0.15748031496062992,
                    "duration": 0.15625
                },
                {
                    "name": "D#4",
                    "midi": 63,
                    "time": 369.21875,
                    "velocity": 0.15748031496062992,
                    "duration": 0.15625
                },
                {
                    "name": "E4",
                    "midi": 64,
                    "time": 369.375,
                    "velocity": 0.15748031496062992,
                    "duration": 0.15625
                },
                {
                    "name": "D#4",
                    "midi": 63,
                    "time": 369.53125,
                    "velocity": 0.15748031496062992,
                    "duration": 0.15625
                },
                {
                    "name": "E4",
                    "midi": 64,
                    "time": 369.6875,
                    "velocity": 0.15748031496062992,
                    "duration": 0.15625
                },
                {
                    "name": "C4",
                    "midi": 60,
                    "time": 369.84375,
                    "velocity": 0.15748031496062992,
                    "duration": 0.15625
                },
                {
                    "name": "F4",
                    "midi": 65,
                    "time": 370,
                    "velocity": 0.15748031496062992,
                    "duration": 0.15625
                },
                {
                    "name": "F3",
                    "midi": 53,
                    "time": 370,
                    "velocity": 0.15748031496062992,
                    "duration": 0.625
                },
                {
                    "name": "E4",
                    "midi": 64,
                    "time": 370.15625,
                    "velocity": 0.15748031496062992,
                    "duration": 0.15625
                },
                {
                    "name": "F4",
                    "midi": 65,
                    "time": 370.3125,
                    "velocity": 0.15748031496062992,
                    "duration": 0.15625
                },
                {
                    "name": "C4",
                    "midi": 60,
                    "time": 370.46875,
                    "velocity": 0.15748031496062992,
                    "duration": 0.15625
                },
                {
                    "name": "B3",
                    "midi": 59,
                    "time": 370.625,
                    "velocity": 0.15748031496062992,
                    "duration": 0.15625
                },
                {
                    "name": "F3",
                    "midi": 53,
                    "time": 370.625,
                    "velocity": 0.15748031496062992,
                    "duration": 0.625
                },
                {
                    "name": "A#3",
                    "midi": 58,
                    "time": 370.78125,
                    "velocity": 0.15748031496062992,
                    "duration": 0.15625
                },
                {
                    "name": "B3",
                    "midi": 59,
                    "time": 370.9375,
                    "velocity": 0.15748031496062992,
                    "duration": 0.15625
                },
                {
                    "name": "D4",
                    "midi": 62,
                    "time": 371.09375,
                    "velocity": 0.15748031496062992,
                    "duration": 0.15625
                },
                {
                    "name": "C4",
                    "midi": 60,
                    "time": 371.25,
                    "velocity": 0.15748031496062992,
                    "duration": 0.3125
                },
                {
                    "name": "E3",
                    "midi": 52,
                    "time": 371.25,
                    "velocity": 0.15748031496062992,
                    "duration": 0.15625
                },
                {
                    "name": "D#3",
                    "midi": 51,
                    "time": 371.40625,
                    "velocity": 0.15748031496062992,
                    "duration": 0.15625
                },
                {
                    "name": "E3",
                    "midi": 52,
                    "time": 371.5625,
                    "velocity": 0.15748031496062992,
                    "duration": 0.15625
                },
                {
                    "name": "F3",
                    "midi": 53,
                    "time": 371.71875,
                    "velocity": 0.15748031496062992,
                    "duration": 0.15625
                },
                {
                    "name": "E3",
                    "midi": 52,
                    "time": 371.875,
                    "velocity": 0.15748031496062992,
                    "duration": 0.15625
                },
                {
                    "name": "D3",
                    "midi": 50,
                    "time": 372.03125,
                    "velocity": 0.15748031496062992,
                    "duration": 0.15625
                },
                {
                    "name": "C3",
                    "midi": 48,
                    "time": 372.1875,
                    "velocity": 0.15748031496062992,
                    "duration": 0.15625
                },
                {
                    "name": "E4",
                    "midi": 64,
                    "time": 372.5,
                    "velocity": 0.2755905511811024,
                    "duration": 0.625
                },
                {
                    "name": "E5",
                    "midi": 76,
                    "time": 372.5,
                    "velocity": 0.2755905511811024,
                    "duration": 0.625
                },
                {
                    "name": "C4",
                    "midi": 60,
                    "time": 373.125,
                    "velocity": 0.2755905511811024,
                    "duration": 0.46875
                },
                {
                    "name": "C5",
                    "midi": 72,
                    "time": 373.125,
                    "velocity": 0.2755905511811024,
                    "duration": 0.46875
                },
                {
                    "name": "A3",
                    "midi": 57,
                    "time": 373.59375,
                    "velocity": 0.2755905511811024,
                    "duration": 0.15625
                },
                {
                    "name": "A4",
                    "midi": 69,
                    "time": 373.59375,
                    "velocity": 0.2755905511811024,
                    "duration": 0.15625
                },
                {
                    "name": "G3",
                    "midi": 55,
                    "time": 373.75,
                    "velocity": 0.2755905511811024,
                    "duration": 1.09375
                },
                {
                    "name": "G4",
                    "midi": 67,
                    "time": 373.75,
                    "velocity": 0.2755905511811024,
                    "duration": 1.09375
                },
                {
                    "name": "E4",
                    "midi": 64,
                    "time": 374.84375,
                    "velocity": 0.2755905511811024,
                    "duration": 0.15625
                },
                {
                    "name": "E5",
                    "midi": 76,
                    "time": 374.84375,
                    "velocity": 0.2755905511811024,
                    "duration": 0.15625
                },
                {
                    "name": "D4",
                    "midi": 62,
                    "time": 375,
                    "velocity": 0.2755905511811024,
                    "duration": 0.46875
                },
                {
                    "name": "D5",
                    "midi": 74,
                    "time": 375,
                    "velocity": 0.2755905511811024,
                    "duration": 0.46875
                },
                {
                    "name": "G#3",
                    "midi": 56,
                    "time": 375.46875,
                    "velocity": 0.2755905511811024,
                    "duration": 0.15625
                },
                {
                    "name": "G#4",
                    "midi": 68,
                    "time": 375.46875,
                    "velocity": 0.2755905511811024,
                    "duration": 0.15625
                },
                {
                    "name": "G3",
                    "midi": 55,
                    "time": 375.625,
                    "velocity": 0.2755905511811024,
                    "duration": 0.46875
                },
                {
                    "name": "G4",
                    "midi": 67,
                    "time": 375.625,
                    "velocity": 0.2755905511811024,
                    "duration": 0.46875
                },
                {
                    "name": "F3",
                    "midi": 53,
                    "time": 376.09375,
                    "velocity": 0.2755905511811024,
                    "duration": 0.15625
                },
                {
                    "name": "B3",
                    "midi": 59,
                    "time": 376.09375,
                    "velocity": 0.2755905511811024,
                    "duration": 0.15625
                },
                {
                    "name": "C4",
                    "midi": 60,
                    "time": 376.25,
                    "velocity": 0.2755905511811024,
                    "duration": 0.3125
                },
                {
                    "name": "E3",
                    "midi": 52,
                    "time": 376.25,
                    "velocity": 0.2755905511811024,
                    "duration": 0.15625
                },
                {
                    "name": "D#3",
                    "midi": 51,
                    "time": 376.40625,
                    "velocity": 0.25984251968503935,
                    "duration": 0.15625
                },
                {
                    "name": "E3",
                    "midi": 52,
                    "time": 376.5625,
                    "velocity": 0.2440944881889764,
                    "duration": 0.15625
                },
                {
                    "name": "F3",
                    "midi": 53,
                    "time": 376.71875,
                    "velocity": 0.2283464566929134,
                    "duration": 0.15625
                },
                {
                    "name": "E3",
                    "midi": 52,
                    "time": 376.875,
                    "velocity": 0.2125984251968504,
                    "duration": 0.15625
                },
                {
                    "name": "D#3",
                    "midi": 51,
                    "time": 377.03125,
                    "velocity": 0.2047244094488189,
                    "duration": 0.15625
                },
                {
                    "name": "E3",
                    "midi": 52,
                    "time": 377.1875,
                    "velocity": 0.1889763779527559,
                    "duration": 0.15625
                },
                {
                    "name": "E4",
                    "midi": 64,
                    "time": 377.65625,
                    "velocity": 0.14173228346456693,
                    "duration": 0.15625
                },
                {
                    "name": "E4",
                    "midi": 64,
                    "time": 377.65625,
                    "velocity": 0.14173228346456693,
                    "duration": 0.3125
                },
                {
                    "name": "A4",
                    "midi": 69,
                    "time": 377.8125,
                    "velocity": 0.14173228346456693,
                    "duration": 0.15625
                },
                {
                    "name": "D#4",
                    "midi": 63,
                    "time": 377.96875,
                    "velocity": 0.14173228346456693,
                    "duration": 0.15625
                },
                {
                    "name": "D#4",
                    "midi": 63,
                    "time": 377.96875,
                    "velocity": 0.14173228346456693,
                    "duration": 0.15625
                },
                {
                    "name": "D4",
                    "midi": 62,
                    "time": 378.125,
                    "velocity": 0.14173228346456693,
                    "duration": 0.15625
                },
                {
                    "name": "D4",
                    "midi": 62,
                    "time": 378.125,
                    "velocity": 0.14173228346456693,
                    "duration": 0.46875
                },
                {
                    "name": "G4",
                    "midi": 67,
                    "time": 378.28125,
                    "velocity": 0.14173228346456693,
                    "duration": 0.15625
                },
                {
                    "name": "B4",
                    "midi": 71,
                    "time": 378.4375,
                    "velocity": 0.14173228346456693,
                    "duration": 0.15625
                },
                {
                    "name": "D4",
                    "midi": 62,
                    "time": 378.59375,
                    "velocity": 0.14173228346456693,
                    "duration": 0.15625
                },
                {
                    "name": "D4",
                    "midi": 62,
                    "time": 378.59375,
                    "velocity": 0.14173228346456693,
                    "duration": 0.15625
                },
                {
                    "name": "C4",
                    "midi": 60,
                    "time": 378.75,
                    "velocity": 0.14173228346456693,
                    "duration": 0.15625
                },
                {
                    "name": "C4",
                    "midi": 60,
                    "time": 378.75,
                    "velocity": 0.14173228346456693,
                    "duration": 0.3125
                },
                {
                    "name": "E4",
                    "midi": 64,
                    "time": 378.90625,
                    "velocity": 0.14173228346456693,
                    "duration": 0.15625
                },
                {
                    "name": "C4",
                    "midi": 60,
                    "time": 379.0625,
                    "velocity": 0.14173228346456693,
                    "duration": 0.15625
                },
                {
                    "name": "C4",
                    "midi": 60,
                    "time": 379.0625,
                    "velocity": 0.14173228346456693,
                    "duration": 0.3125
                },
                {
                    "name": "D4",
                    "midi": 62,
                    "time": 379.21875,
                    "velocity": 0.14173228346456693,
                    "duration": 0.78125
                },
                {
                    "name": "B3",
                    "midi": 59,
                    "time": 379.375,
                    "velocity": 0.14173228346456693,
                    "duration": 0.625
                },
                {
                    "name": "A3",
                    "midi": 57,
                    "time": 380.15625,
                    "velocity": 0.14173228346456693,
                    "duration": 0.15625
                },
                {
                    "name": "A3",
                    "midi": 57,
                    "time": 380.15625,
                    "velocity": 0.14173228346456693,
                    "duration": 0.3125
                },
                {
                    "name": "D4",
                    "midi": 62,
                    "time": 380.3125,
                    "velocity": 0.14173228346456693,
                    "duration": 0.15625
                },
                {
                    "name": "G#3",
                    "midi": 56,
                    "time": 380.46875,
                    "velocity": 0.14173228346456693,
                    "duration": 0.15625
                },
                {
                    "name": "G#3",
                    "midi": 56,
                    "time": 380.46875,
                    "velocity": 0.14173228346456693,
                    "duration": 0.15625
                },
                {
                    "name": "G3",
                    "midi": 55,
                    "time": 380.625,
                    "velocity": 0.14173228346456693,
                    "duration": 0.15625
                },
                {
                    "name": "G3",
                    "midi": 55,
                    "time": 380.625,
                    "velocity": 0.14173228346456693,
                    "duration": 0.46875
                },
                {
                    "name": "C4",
                    "midi": 60,
                    "time": 380.78125,
                    "velocity": 0.14173228346456693,
                    "duration": 0.15625
                },
                {
                    "name": "E4",
                    "midi": 64,
                    "time": 380.9375,
                    "velocity": 0.14173228346456693,
                    "duration": 0.15625
                },
                {
                    "name": "G3",
                    "midi": 55,
                    "time": 381.09375,
                    "velocity": 0.14173228346456693,
                    "duration": 0.15625
                },
                {
                    "name": "G3",
                    "midi": 55,
                    "time": 381.09375,
                    "velocity": 0.14173228346456693,
                    "duration": 0.15625
                },
                {
                    "name": "F3",
                    "midi": 53,
                    "time": 381.25,
                    "velocity": 0.14173228346456693,
                    "duration": 0.15625
                },
                {
                    "name": "F3",
                    "midi": 53,
                    "time": 381.25,
                    "velocity": 0.14173228346456693,
                    "duration": 0.3125
                },
                {
                    "name": "A3",
                    "midi": 57,
                    "time": 381.40625,
                    "velocity": 0.14173228346456693,
                    "duration": 0.15625
                },
                {
                    "name": "F3",
                    "midi": 53,
                    "time": 381.5625,
                    "velocity": 0.14173228346456693,
                    "duration": 0.15625
                },
                {
                    "name": "F3",
                    "midi": 53,
                    "time": 381.5625,
                    "velocity": 0.14173228346456693,
                    "duration": 0.3125
                },
                {
                    "name": "G3",
                    "midi": 55,
                    "time": 381.71875,
                    "velocity": 0.14173228346456693,
                    "duration": 0.78125
                },
                {
                    "name": "E3",
                    "midi": 52,
                    "time": 381.875,
                    "velocity": 0.14173228346456693,
                    "duration": 0.625
                },
                {
                    "name": "E4",
                    "midi": 64,
                    "time": 382.65625,
                    "velocity": 0.14173228346456693,
                    "duration": 0.15625
                },
                {
                    "name": "E4",
                    "midi": 64,
                    "time": 382.65625,
                    "velocity": 0.14173228346456693,
                    "duration": 0.3125
                },
                {
                    "name": "A4",
                    "midi": 69,
                    "time": 382.8125,
                    "velocity": 0.14173228346456693,
                    "duration": 0.15625
                },
                {
                    "name": "E5",
                    "midi": 76,
                    "time": 382.8125,
                    "velocity": 0.14173228346456693,
                    "duration": 0.15625
                },
                {
                    "name": "D#4",
                    "midi": 63,
                    "time": 382.96875,
                    "velocity": 0.14173228346456693,
                    "duration": 0.15625
                },
                {
                    "name": "D#5",
                    "midi": 75,
                    "time": 382.96875,
                    "velocity": 0.14173228346456693,
                    "duration": 0.15625
                },
                {
                    "name": "D#4",
                    "midi": 63,
                    "time": 382.96875,
                    "velocity": 0.14173228346456693,
                    "duration": 0.15625
                },
                {
                    "name": "D4",
                    "midi": 62,
                    "time": 383.125,
                    "velocity": 0.14173228346456693,
                    "duration": 0.15625
                },
                {
                    "name": "D5",
                    "midi": 74,
                    "time": 383.125,
                    "velocity": 0.14173228346456693,
                    "duration": 0.15625
                },
                {
                    "name": "D4",
                    "midi": 62,
                    "time": 383.125,
                    "velocity": 0.14173228346456693,
                    "duration": 0.46875
                },
                {
                    "name": "G4",
                    "midi": 67,
                    "time": 383.28125,
                    "velocity": 0.14173228346456693,
                    "duration": 0.15625
                },
                {
                    "name": "B4",
                    "midi": 71,
                    "time": 383.4375,
                    "velocity": 0.14173228346456693,
                    "duration": 0.15625
                },
                {
                    "name": "D4",
                    "midi": 62,
                    "time": 383.59375,
                    "velocity": 0.14173228346456693,
                    "duration": 0.15625
                },
                {
                    "name": "D4",
                    "midi": 62,
                    "time": 383.59375,
                    "velocity": 0.14173228346456693,
                    "duration": 0.15625
                },
                {
                    "name": "C4",
                    "midi": 60,
                    "time": 383.75,
                    "velocity": 0.14173228346456693,
                    "duration": 0.15625
                },
                {
                    "name": "C4",
                    "midi": 60,
                    "time": 383.75,
                    "velocity": 0.14173228346456693,
                    "duration": 0.3125
                },
                {
                    "name": "E4",
                    "midi": 64,
                    "time": 383.90625,
                    "velocity": 0.14173228346456693,
                    "duration": 0.15625
                },
                {
                    "name": "C4",
                    "midi": 60,
                    "time": 384.0625,
                    "velocity": 0.14173228346456693,
                    "duration": 0.15625
                },
                {
                    "name": "C4",
                    "midi": 60,
                    "time": 384.0625,
                    "velocity": 0.14173228346456693,
                    "duration": 0.3125
                },
                {
                    "name": "D4",
                    "midi": 62,
                    "time": 384.21875,
                    "velocity": 0.14173228346456693,
                    "duration": 0.78125
                },
                {
                    "name": "B3",
                    "midi": 59,
                    "time": 384.375,
                    "velocity": 0.14173228346456693,
                    "duration": 0.625
                },
                {
                    "name": "A3",
                    "midi": 57,
                    "time": 385.15625,
                    "velocity": 0.14173228346456693,
                    "duration": 0.15625
                },
                {
                    "name": "A3",
                    "midi": 57,
                    "time": 385.15625,
                    "velocity": 0.14173228346456693,
                    "duration": 0.3125
                },
                {
                    "name": "D4",
                    "midi": 62,
                    "time": 385.3125,
                    "velocity": 0.14173228346456693,
                    "duration": 0.15625
                },
                {
                    "name": "A4",
                    "midi": 69,
                    "time": 385.3125,
                    "velocity": 0.14173228346456693,
                    "duration": 0.15625
                },
                {
                    "name": "G#3",
                    "midi": 56,
                    "time": 385.46875,
                    "velocity": 0.14173228346456693,
                    "duration": 0.15625
                },
                {
                    "name": "G#4",
                    "midi": 68,
                    "time": 385.46875,
                    "velocity": 0.14173228346456693,
                    "duration": 0.15625
                },
                {
                    "name": "G#3",
                    "midi": 56,
                    "time": 385.46875,
                    "velocity": 0.14173228346456693,
                    "duration": 0.15625
                },
                {
                    "name": "G3",
                    "midi": 55,
                    "time": 385.625,
                    "velocity": 0.14173228346456693,
                    "duration": 0.15625
                },
                {
                    "name": "G4",
                    "midi": 67,
                    "time": 385.625,
                    "velocity": 0.14173228346456693,
                    "duration": 0.15625
                },
                {
                    "name": "G3",
                    "midi": 55,
                    "time": 385.625,
                    "velocity": 0.14173228346456693,
                    "duration": 0.46875
                },
                {
                    "name": "C4",
                    "midi": 60,
                    "time": 385.78125,
                    "velocity": 0.14173228346456693,
                    "duration": 0.15625
                },
                {
                    "name": "E4",
                    "midi": 64,
                    "time": 385.9375,
                    "velocity": 0.14173228346456693,
                    "duration": 0.15625
                },
                {
                    "name": "G3",
                    "midi": 55,
                    "time": 386.09375,
                    "velocity": 0.14173228346456693,
                    "duration": 0.15625
                },
                {
                    "name": "G3",
                    "midi": 55,
                    "time": 386.09375,
                    "velocity": 0.14173228346456693,
                    "duration": 0.15625
                },
                {
                    "name": "D3",
                    "midi": 50,
                    "time": 386.25,
                    "velocity": 0.14173228346456693,
                    "duration": 0.15625
                },
                {
                    "name": "D3",
                    "midi": 50,
                    "time": 386.25,
                    "velocity": 0.14173228346456693,
                    "duration": 0.3125
                },
                {
                    "name": "A3",
                    "midi": 57,
                    "time": 386.40625,
                    "velocity": 0.14173228346456693,
                    "duration": 0.15625
                },
                {
                    "name": "D#3",
                    "midi": 51,
                    "time": 386.5625,
                    "velocity": 0.14173228346456693,
                    "duration": 0.15625
                },
                {
                    "name": "D#3",
                    "midi": 51,
                    "time": 386.5625,
                    "velocity": 0.14173228346456693,
                    "duration": 0.3125
                },
                {
                    "name": "A3",
                    "midi": 57,
                    "time": 386.71875,
                    "velocity": 0.14173228346456693,
                    "duration": 0.15625
                },
                {
                    "name": "E3",
                    "midi": 52,
                    "time": 386.875,
                    "velocity": 0.14173228346456693,
                    "duration": 0.15625
                },
                {
                    "name": "E3",
                    "midi": 52,
                    "time": 386.875,
                    "velocity": 0.14173228346456693,
                    "duration": 0.3125
                },
                {
                    "name": "G3",
                    "midi": 55,
                    "time": 387.03125,
                    "velocity": 0.14173228346456693,
                    "duration": 0.235595703125
                },
                {
                    "name": "D4",
                    "midi": 62,
                    "time": 387.34375,
                    "velocity": 0.937007874015748,
                    "duration": 0.15625
                },
                {
                    "name": "F4",
                    "midi": 65,
                    "time": 387.34375,
                    "velocity": 0.937007874015748,
                    "duration": 0.15625
                },
                {
                    "name": "B4",
                    "midi": 71,
                    "time": 387.34375,
                    "velocity": 0.937007874015748,
                    "duration": 0.15625
                },
                {
                    "name": "E4",
                    "midi": 64,
                    "time": 387.5,
                    "velocity": 0.937007874015748,
                    "duration": 0.15625
                },
                {
                    "name": "G4",
                    "midi": 67,
                    "time": 387.5,
                    "velocity": 0.937007874015748,
                    "duration": 0.15625
                },
                {
                    "name": "C5",
                    "midi": 72,
                    "time": 387.5,
                    "velocity": 0.937007874015748,
                    "duration": 0.15625
                },
                {
                    "name": "G4",
                    "midi": 67,
                    "time": 387.65625,
                    "velocity": 0.23622047244094488,
                    "duration": 0.15625
                },
                {
                    "name": "B4",
                    "midi": 71,
                    "time": 387.65625,
                    "velocity": 0.23622047244094488,
                    "duration": 0.15625
                },
                {
                    "name": "E4",
                    "midi": 64,
                    "time": 387.8125,
                    "velocity": 0.23622047244094488,
                    "duration": 0.15625
                },
                {
                    "name": "C5",
                    "midi": 72,
                    "time": 387.8125,
                    "velocity": 0.23622047244094488,
                    "duration": 0.15625
                },
                {
                    "name": "A4",
                    "midi": 69,
                    "time": 387.96875,
                    "velocity": 0.23622047244094488,
                    "duration": 0.15625
                },
                {
                    "name": "C#5",
                    "midi": 73,
                    "time": 387.96875,
                    "velocity": 0.23622047244094488,
                    "duration": 0.15625
                },
                {
                    "name": "F4",
                    "midi": 65,
                    "time": 388.125,
                    "velocity": 0.23622047244094488,
                    "duration": 0.15625
                },
                {
                    "name": "D5",
                    "midi": 74,
                    "time": 388.125,
                    "velocity": 0.23622047244094488,
                    "duration": 0.15625
                },
                {
                    "name": "F4",
                    "midi": 65,
                    "time": 388.28125,
                    "velocity": 0.23622047244094488,
                    "duration": 0.15625
                },
                {
                    "name": "A#4",
                    "midi": 70,
                    "time": 388.28125,
                    "velocity": 0.23622047244094488,
                    "duration": 0.15625
                },
                {
                    "name": "D4",
                    "midi": 62,
                    "time": 388.4375,
                    "velocity": 0.23622047244094488,
                    "duration": 0.15625
                },
                {
                    "name": "B4",
                    "midi": 71,
                    "time": 388.4375,
                    "velocity": 0.23622047244094488,
                    "duration": 0.15625
                },
                {
                    "name": "D4",
                    "midi": 62,
                    "time": 388.59375,
                    "velocity": 0.937007874015748,
                    "duration": 0.15625
                },
                {
                    "name": "F4",
                    "midi": 65,
                    "time": 388.59375,
                    "velocity": 0.937007874015748,
                    "duration": 0.15625
                },
                {
                    "name": "B4",
                    "midi": 71,
                    "time": 388.59375,
                    "velocity": 0.937007874015748,
                    "duration": 0.15625
                },
                {
                    "name": "E4",
                    "midi": 64,
                    "time": 388.75,
                    "velocity": 0.937007874015748,
                    "duration": 0.15625
                },
                {
                    "name": "G4",
                    "midi": 67,
                    "time": 388.75,
                    "velocity": 0.937007874015748,
                    "duration": 0.15625
                },
                {
                    "name": "C5",
                    "midi": 72,
                    "time": 388.75,
                    "velocity": 0.937007874015748,
                    "duration": 0.15625
                },
                {
                    "name": "G4",
                    "midi": 67,
                    "time": 388.90625,
                    "velocity": 0.23622047244094488,
                    "duration": 0.15625
                },
                {
                    "name": "B4",
                    "midi": 71,
                    "time": 388.90625,
                    "velocity": 0.23622047244094488,
                    "duration": 0.15625
                },
                {
                    "name": "E4",
                    "midi": 64,
                    "time": 389.0625,
                    "velocity": 0.23622047244094488,
                    "duration": 0.15625
                },
                {
                    "name": "C5",
                    "midi": 72,
                    "time": 389.0625,
                    "velocity": 0.23622047244094488,
                    "duration": 0.15625
                },
                {
                    "name": "A4",
                    "midi": 69,
                    "time": 389.21875,
                    "velocity": 0.23622047244094488,
                    "duration": 0.15625
                },
                {
                    "name": "C#5",
                    "midi": 73,
                    "time": 389.21875,
                    "velocity": 0.23622047244094488,
                    "duration": 0.15625
                },
                {
                    "name": "F4",
                    "midi": 65,
                    "time": 389.375,
                    "velocity": 0.23622047244094488,
                    "duration": 0.15625
                },
                {
                    "name": "D5",
                    "midi": 74,
                    "time": 389.375,
                    "velocity": 0.23622047244094488,
                    "duration": 0.15625
                },
                {
                    "name": "F4",
                    "midi": 65,
                    "time": 389.53125,
                    "velocity": 0.23622047244094488,
                    "duration": 0.15625
                },
                {
                    "name": "A#4",
                    "midi": 70,
                    "time": 389.53125,
                    "velocity": 0.23622047244094488,
                    "duration": 0.15625
                },
                {
                    "name": "D4",
                    "midi": 62,
                    "time": 389.6875,
                    "velocity": 0.23622047244094488,
                    "duration": 0.15625
                },
                {
                    "name": "B4",
                    "midi": 71,
                    "time": 389.6875,
                    "velocity": 0.23622047244094488,
                    "duration": 0.15625
                },
                {
                    "name": "D4",
                    "midi": 62,
                    "time": 389.84375,
                    "velocity": 0.937007874015748,
                    "duration": 0.15625
                },
                {
                    "name": "F4",
                    "midi": 65,
                    "time": 389.84375,
                    "velocity": 0.937007874015748,
                    "duration": 0.15625
                },
                {
                    "name": "B4",
                    "midi": 71,
                    "time": 389.84375,
                    "velocity": 0.937007874015748,
                    "duration": 0.15625
                },
                {
                    "name": "E4",
                    "midi": 64,
                    "time": 390,
                    "velocity": 0.937007874015748,
                    "duration": 0.15625
                },
                {
                    "name": "G4",
                    "midi": 67,
                    "time": 390,
                    "velocity": 0.937007874015748,
                    "duration": 0.15625
                },
                {
                    "name": "C5",
                    "midi": 72,
                    "time": 390,
                    "velocity": 0.937007874015748,
                    "duration": 0.15625
                },
                {
                    "name": "G4",
                    "midi": 67,
                    "time": 390.15625,
                    "velocity": 0.23622047244094488,
                    "duration": 0.15625
                },
                {
                    "name": "B4",
                    "midi": 71,
                    "time": 390.15625,
                    "velocity": 0.23622047244094488,
                    "duration": 0.15625
                },
                {
                    "name": "E4",
                    "midi": 64,
                    "time": 390.3125,
                    "velocity": 0.23622047244094488,
                    "duration": 0.15625
                },
                {
                    "name": "C5",
                    "midi": 72,
                    "time": 390.3125,
                    "velocity": 0.23622047244094488,
                    "duration": 0.15625
                },
                {
                    "name": "A4",
                    "midi": 69,
                    "time": 390.46875,
                    "velocity": 0.23622047244094488,
                    "duration": 0.15625
                },
                {
                    "name": "C#5",
                    "midi": 73,
                    "time": 390.46875,
                    "velocity": 0.23622047244094488,
                    "duration": 0.15625
                },
                {
                    "name": "F4",
                    "midi": 65,
                    "time": 390.625,
                    "velocity": 0.23622047244094488,
                    "duration": 0.15625
                },
                {
                    "name": "D5",
                    "midi": 74,
                    "time": 390.625,
                    "velocity": 0.23622047244094488,
                    "duration": 0.15625
                },
                {
                    "name": "A#4",
                    "midi": 70,
                    "time": 390.78125,
                    "velocity": 0.23622047244094488,
                    "duration": 0.15625
                },
                {
                    "name": "D#5",
                    "midi": 75,
                    "time": 390.78125,
                    "velocity": 0.23622047244094488,
                    "duration": 0.15625
                },
                {
                    "name": "G4",
                    "midi": 67,
                    "time": 390.9375,
                    "velocity": 0.23622047244094488,
                    "duration": 0.15625
                },
                {
                    "name": "E5",
                    "midi": 76,
                    "time": 390.9375,
                    "velocity": 0.23622047244094488,
                    "duration": 0.15625
                },
                {
                    "name": "G4",
                    "midi": 67,
                    "time": 391.09375,
                    "velocity": 0.937007874015748,
                    "duration": 0.15625
                },
                {
                    "name": "A#4",
                    "midi": 70,
                    "time": 391.09375,
                    "velocity": 0.937007874015748,
                    "duration": 0.15625
                },
                {
                    "name": "E5",
                    "midi": 76,
                    "time": 391.09375,
                    "velocity": 0.937007874015748,
                    "duration": 0.15625
                },
                {
                    "name": "A4",
                    "midi": 69,
                    "time": 391.25,
                    "velocity": 0.937007874015748,
                    "duration": 0.15625
                },
                {
                    "name": "C5",
                    "midi": 72,
                    "time": 391.25,
                    "velocity": 0.937007874015748,
                    "duration": 0.15625
                },
                {
                    "name": "F5",
                    "midi": 77,
                    "time": 391.25,
                    "velocity": 0.937007874015748,
                    "duration": 0.15625
                },
                {
                    "name": "C5",
                    "midi": 72,
                    "time": 391.40625,
                    "velocity": 0.23622047244094488,
                    "duration": 0.15625
                },
                {
                    "name": "E5",
                    "midi": 76,
                    "time": 391.40625,
                    "velocity": 0.23622047244094488,
                    "duration": 0.15625
                },
                {
                    "name": "A4",
                    "midi": 69,
                    "time": 391.5625,
                    "velocity": 0.23622047244094488,
                    "duration": 0.15625
                },
                {
                    "name": "F5",
                    "midi": 77,
                    "time": 391.5625,
                    "velocity": 0.23622047244094488,
                    "duration": 0.15625
                },
                {
                    "name": "C#5",
                    "midi": 73,
                    "time": 391.71875,
                    "velocity": 0.23622047244094488,
                    "duration": 0.15625
                },
                {
                    "name": "E5",
                    "midi": 76,
                    "time": 391.71875,
                    "velocity": 0.23622047244094488,
                    "duration": 0.15625
                },
                {
                    "name": "A#4",
                    "midi": 70,
                    "time": 391.875,
                    "velocity": 0.23622047244094488,
                    "duration": 0.15625
                },
                {
                    "name": "F5",
                    "midi": 77,
                    "time": 391.875,
                    "velocity": 0.23622047244094488,
                    "duration": 0.15625
                },
                {
                    "name": "D5",
                    "midi": 74,
                    "time": 392.03125,
                    "velocity": 0.23622047244094488,
                    "duration": 0.15625
                },
                {
                    "name": "F#5",
                    "midi": 78,
                    "time": 392.03125,
                    "velocity": 0.23622047244094488,
                    "duration": 0.15625
                },
                {
                    "name": "B4",
                    "midi": 71,
                    "time": 392.1875,
                    "velocity": 0.23622047244094488,
                    "duration": 0.15625
                },
                {
                    "name": "G5",
                    "midi": 79,
                    "time": 392.1875,
                    "velocity": 0.23622047244094488,
                    "duration": 0.15625
                },
                {
                    "name": "D5",
                    "midi": 74,
                    "time": 392.34375,
                    "velocity": 0.937007874015748,
                    "duration": 0.15625
                },
                {
                    "name": "F5",
                    "midi": 77,
                    "time": 392.34375,
                    "velocity": 0.937007874015748,
                    "duration": 0.15625
                },
                {
                    "name": "B5",
                    "midi": 83,
                    "time": 392.34375,
                    "velocity": 0.937007874015748,
                    "duration": 0.15625
                },
                {
                    "name": "E5",
                    "midi": 76,
                    "time": 392.5,
                    "velocity": 0.937007874015748,
                    "duration": 0.15625
                },
                {
                    "name": "G5",
                    "midi": 79,
                    "time": 392.5,
                    "velocity": 0.937007874015748,
                    "duration": 0.15625
                },
                {
                    "name": "C6",
                    "midi": 84,
                    "time": 392.5,
                    "velocity": 0.937007874015748,
                    "duration": 0.15625
                },
                {
                    "name": "G5",
                    "midi": 79,
                    "time": 392.65625,
                    "velocity": 0.23622047244094488,
                    "duration": 0.15625
                },
                {
                    "name": "B5",
                    "midi": 83,
                    "time": 392.65625,
                    "velocity": 0.23622047244094488,
                    "duration": 0.15625
                },
                {
                    "name": "E5",
                    "midi": 76,
                    "time": 392.8125,
                    "velocity": 0.23622047244094488,
                    "duration": 0.15625
                },
                {
                    "name": "C6",
                    "midi": 84,
                    "time": 392.8125,
                    "velocity": 0.23622047244094488,
                    "duration": 0.15625
                },
                {
                    "name": "A5",
                    "midi": 81,
                    "time": 392.96875,
                    "velocity": 0.23622047244094488,
                    "duration": 0.15625
                },
                {
                    "name": "C#6",
                    "midi": 85,
                    "time": 392.96875,
                    "velocity": 0.23622047244094488,
                    "duration": 0.15625
                },
                {
                    "name": "F5",
                    "midi": 77,
                    "time": 393.125,
                    "velocity": 0.23622047244094488,
                    "duration": 0.15625
                },
                {
                    "name": "D6",
                    "midi": 86,
                    "time": 393.125,
                    "velocity": 0.23622047244094488,
                    "duration": 0.15625
                },
                {
                    "name": "F5",
                    "midi": 77,
                    "time": 393.28125,
                    "velocity": 0.23622047244094488,
                    "duration": 0.15625
                },
                {
                    "name": "A#5",
                    "midi": 82,
                    "time": 393.28125,
                    "velocity": 0.23622047244094488,
                    "duration": 0.15625
                },
                {
                    "name": "D5",
                    "midi": 74,
                    "time": 393.4375,
                    "velocity": 0.23622047244094488,
                    "duration": 0.15625
                },
                {
                    "name": "B5",
                    "midi": 83,
                    "time": 393.4375,
                    "velocity": 0.23622047244094488,
                    "duration": 0.15625
                },
                {
                    "name": "D5",
                    "midi": 74,
                    "time": 393.59375,
                    "velocity": 0.937007874015748,
                    "duration": 0.15625
                },
                {
                    "name": "F5",
                    "midi": 77,
                    "time": 393.59375,
                    "velocity": 0.937007874015748,
                    "duration": 0.15625
                },
                {
                    "name": "B5",
                    "midi": 83,
                    "time": 393.59375,
                    "velocity": 0.937007874015748,
                    "duration": 0.15625
                },
                {
                    "name": "E5",
                    "midi": 76,
                    "time": 393.75,
                    "velocity": 0.937007874015748,
                    "duration": 0.15625
                },
                {
                    "name": "G5",
                    "midi": 79,
                    "time": 393.75,
                    "velocity": 0.937007874015748,
                    "duration": 0.15625
                },
                {
                    "name": "C6",
                    "midi": 84,
                    "time": 393.75,
                    "velocity": 0.937007874015748,
                    "duration": 0.15625
                },
                {
                    "name": "G5",
                    "midi": 79,
                    "time": 393.90625,
                    "velocity": 0.23622047244094488,
                    "duration": 0.15625
                },
                {
                    "name": "B5",
                    "midi": 83,
                    "time": 393.90625,
                    "velocity": 0.23622047244094488,
                    "duration": 0.15625
                },
                {
                    "name": "E5",
                    "midi": 76,
                    "time": 394.0625,
                    "velocity": 0.23622047244094488,
                    "duration": 0.15625
                },
                {
                    "name": "C6",
                    "midi": 84,
                    "time": 394.0625,
                    "velocity": 0.23622047244094488,
                    "duration": 0.15625
                },
                {
                    "name": "A5",
                    "midi": 81,
                    "time": 394.21875,
                    "velocity": 0.23622047244094488,
                    "duration": 0.15625
                },
                {
                    "name": "C#6",
                    "midi": 85,
                    "time": 394.21875,
                    "velocity": 0.23622047244094488,
                    "duration": 0.15625
                },
                {
                    "name": "F5",
                    "midi": 77,
                    "time": 394.375,
                    "velocity": 0.23622047244094488,
                    "duration": 0.15625
                },
                {
                    "name": "D6",
                    "midi": 86,
                    "time": 394.375,
                    "velocity": 0.23622047244094488,
                    "duration": 0.15625
                },
                {
                    "name": "F5",
                    "midi": 77,
                    "time": 394.53125,
                    "velocity": 0.23622047244094488,
                    "duration": 0.15625
                },
                {
                    "name": "A#5",
                    "midi": 82,
                    "time": 394.53125,
                    "velocity": 0.23622047244094488,
                    "duration": 0.15625
                },
                {
                    "name": "D5",
                    "midi": 74,
                    "time": 394.6875,
                    "velocity": 0.23622047244094488,
                    "duration": 0.15625
                },
                {
                    "name": "B5",
                    "midi": 83,
                    "time": 394.6875,
                    "velocity": 0.23622047244094488,
                    "duration": 0.15625
                },
                {
                    "name": "D5",
                    "midi": 74,
                    "time": 394.84375,
                    "velocity": 0.937007874015748,
                    "duration": 0.15625
                },
                {
                    "name": "F5",
                    "midi": 77,
                    "time": 394.84375,
                    "velocity": 0.937007874015748,
                    "duration": 0.15625
                },
                {
                    "name": "B5",
                    "midi": 83,
                    "time": 394.84375,
                    "velocity": 0.937007874015748,
                    "duration": 0.15625
                },
                {
                    "name": "E5",
                    "midi": 76,
                    "time": 395,
                    "velocity": 0.937007874015748,
                    "duration": 0.15625
                },
                {
                    "name": "G5",
                    "midi": 79,
                    "time": 395,
                    "velocity": 0.937007874015748,
                    "duration": 0.15625
                },
                {
                    "name": "C6",
                    "midi": 84,
                    "time": 395,
                    "velocity": 0.937007874015748,
                    "duration": 0.15625
                },
                {
                    "name": "G5",
                    "midi": 79,
                    "time": 395.15625,
                    "velocity": 0.23622047244094488,
                    "duration": 0.15625
                },
                {
                    "name": "B5",
                    "midi": 83,
                    "time": 395.15625,
                    "velocity": 0.23622047244094488,
                    "duration": 0.15625
                },
                {
                    "name": "E5",
                    "midi": 76,
                    "time": 395.3125,
                    "velocity": 0.23622047244094488,
                    "duration": 0.15625
                },
                {
                    "name": "C6",
                    "midi": 84,
                    "time": 395.3125,
                    "velocity": 0.23622047244094488,
                    "duration": 0.15625
                },
                {
                    "name": "A5",
                    "midi": 81,
                    "time": 395.46875,
                    "velocity": 0.23622047244094488,
                    "duration": 0.15625
                },
                {
                    "name": "C#6",
                    "midi": 85,
                    "time": 395.46875,
                    "velocity": 0.23622047244094488,
                    "duration": 0.15625
                },
                {
                    "name": "F5",
                    "midi": 77,
                    "time": 395.625,
                    "velocity": 0.23622047244094488,
                    "duration": 0.15625
                },
                {
                    "name": "D6",
                    "midi": 86,
                    "time": 395.625,
                    "velocity": 0.23622047244094488,
                    "duration": 0.15625
                },
                {
                    "name": "A#5",
                    "midi": 82,
                    "time": 395.78125,
                    "velocity": 0.23622047244094488,
                    "duration": 0.15625
                },
                {
                    "name": "D#6",
                    "midi": 87,
                    "time": 395.78125,
                    "velocity": 0.23622047244094488,
                    "duration": 0.15625
                },
                {
                    "name": "G5",
                    "midi": 79,
                    "time": 395.9375,
                    "velocity": 0.23622047244094488,
                    "duration": 0.15625
                },
                {
                    "name": "E6",
                    "midi": 88,
                    "time": 395.9375,
                    "velocity": 0.23622047244094488,
                    "duration": 0.15625
                },
                {
                    "name": "G5",
                    "midi": 79,
                    "time": 396.09375,
                    "velocity": 0.937007874015748,
                    "duration": 0.15625
                },
                {
                    "name": "A#5",
                    "midi": 82,
                    "time": 396.09375,
                    "velocity": 0.937007874015748,
                    "duration": 0.15625
                },
                {
                    "name": "E6",
                    "midi": 88,
                    "time": 396.09375,
                    "velocity": 0.937007874015748,
                    "duration": 0.15625
                },
                {
                    "name": "A5",
                    "midi": 81,
                    "time": 396.25,
                    "velocity": 0.937007874015748,
                    "duration": 0.15625
                },
                {
                    "name": "C6",
                    "midi": 84,
                    "time": 396.25,
                    "velocity": 0.937007874015748,
                    "duration": 0.15625
                },
                {
                    "name": "F6",
                    "midi": 89,
                    "time": 396.25,
                    "velocity": 0.937007874015748,
                    "duration": 0.15625
                },
                {
                    "name": "C6",
                    "midi": 84,
                    "time": 396.40625,
                    "velocity": 0.23622047244094488,
                    "duration": 0.15625
                },
                {
                    "name": "E6",
                    "midi": 88,
                    "time": 396.40625,
                    "velocity": 0.23622047244094488,
                    "duration": 0.15625
                },
                {
                    "name": "A5",
                    "midi": 81,
                    "time": 396.5625,
                    "velocity": 0.23622047244094488,
                    "duration": 0.15625
                },
                {
                    "name": "F6",
                    "midi": 89,
                    "time": 396.5625,
                    "velocity": 0.23622047244094488,
                    "duration": 0.15625
                },
                {
                    "name": "C#6",
                    "midi": 85,
                    "time": 396.71875,
                    "velocity": 0.23622047244094488,
                    "duration": 0.15625
                },
                {
                    "name": "E6",
                    "midi": 88,
                    "time": 396.71875,
                    "velocity": 0.23622047244094488,
                    "duration": 0.15625
                },
                {
                    "name": "A#5",
                    "midi": 82,
                    "time": 396.875,
                    "velocity": 0.23622047244094488,
                    "duration": 0.15625
                },
                {
                    "name": "F6",
                    "midi": 89,
                    "time": 396.875,
                    "velocity": 0.23622047244094488,
                    "duration": 0.15625
                },
                {
                    "name": "D6",
                    "midi": 86,
                    "time": 397.03125,
                    "velocity": 0.23622047244094488,
                    "duration": 0.15625
                },
                {
                    "name": "F#6",
                    "midi": 90,
                    "time": 397.03125,
                    "velocity": 0.23622047244094488,
                    "duration": 0.15625
                },
                {
                    "name": "B5",
                    "midi": 83,
                    "time": 397.1875,
                    "velocity": 0.23622047244094488,
                    "duration": 0.15625
                },
                {
                    "name": "G6",
                    "midi": 91,
                    "time": 397.1875,
                    "velocity": 0.23622047244094488,
                    "duration": 0.15625
                },
                {
                    "name": "D6",
                    "midi": 86,
                    "time": 397.34375,
                    "velocity": 0.937007874015748,
                    "duration": 0.15625
                },
                {
                    "name": "F6",
                    "midi": 89,
                    "time": 397.34375,
                    "velocity": 0.937007874015748,
                    "duration": 0.15625
                },
                {
                    "name": "B6",
                    "midi": 95,
                    "time": 397.34375,
                    "velocity": 0.937007874015748,
                    "duration": 0.15625
                },
                {
                    "name": "E6",
                    "midi": 88,
                    "time": 397.5,
                    "velocity": 0.937007874015748,
                    "duration": 0.15625
                },
                {
                    "name": "G6",
                    "midi": 91,
                    "time": 397.5,
                    "velocity": 0.937007874015748,
                    "duration": 0.15625
                },
                {
                    "name": "C7",
                    "midi": 96,
                    "time": 397.5,
                    "velocity": 0.937007874015748,
                    "duration": 0.15625
                },
                {
                    "name": "E6",
                    "midi": 88,
                    "time": 397.65625,
                    "velocity": 0.23622047244094488,
                    "duration": 0.15625
                },
                {
                    "name": "G#6",
                    "midi": 92,
                    "time": 397.65625,
                    "velocity": 0.23622047244094488,
                    "duration": 0.15625
                },
                {
                    "name": "C6",
                    "midi": 84,
                    "time": 397.8125,
                    "velocity": 0.23622047244094488,
                    "duration": 0.15625
                },
                {
                    "name": "A6",
                    "midi": 93,
                    "time": 397.8125,
                    "velocity": 0.23622047244094488,
                    "duration": 0.15625
                },
                {
                    "name": "D#6",
                    "midi": 87,
                    "time": 397.96875,
                    "velocity": 0.23622047244094488,
                    "duration": 0.15625
                },
                {
                    "name": "G#6",
                    "midi": 92,
                    "time": 397.96875,
                    "velocity": 0.23622047244094488,
                    "duration": 0.15625
                },
                {
                    "name": "C6",
                    "midi": 84,
                    "time": 398.125,
                    "velocity": 0.23622047244094488,
                    "duration": 0.15625
                },
                {
                    "name": "A6",
                    "midi": 93,
                    "time": 398.125,
                    "velocity": 0.23622047244094488,
                    "duration": 0.15625
                },
                {
                    "name": "E6",
                    "midi": 88,
                    "time": 398.28125,
                    "velocity": 0.23622047244094488,
                    "duration": 0.15625
                },
                {
                    "name": "G#6",
                    "midi": 92,
                    "time": 398.28125,
                    "velocity": 0.23622047244094488,
                    "duration": 0.15625
                },
                {
                    "name": "C6",
                    "midi": 84,
                    "time": 398.4375,
                    "velocity": 0.23622047244094488,
                    "duration": 0.15625
                },
                {
                    "name": "A6",
                    "midi": 93,
                    "time": 398.4375,
                    "velocity": 0.23622047244094488,
                    "duration": 0.15625
                },
                {
                    "name": "C6",
                    "midi": 84,
                    "time": 398.59375,
                    "velocity": 0.937007874015748,
                    "duration": 0.15625
                },
                {
                    "name": "D6",
                    "midi": 86,
                    "time": 398.59375,
                    "velocity": 0.937007874015748,
                    "duration": 0.15625
                },
                {
                    "name": "F#6",
                    "midi": 90,
                    "time": 398.59375,
                    "velocity": 0.937007874015748,
                    "duration": 0.15625
                },
                {
                    "name": "A6",
                    "midi": 93,
                    "time": 398.59375,
                    "velocity": 0.937007874015748,
                    "duration": 0.15625
                },
                {
                    "name": "B5",
                    "midi": 83,
                    "time": 398.75,
                    "velocity": 0.937007874015748,
                    "duration": 0.15625
                },
                {
                    "name": "D6",
                    "midi": 86,
                    "time": 398.75,
                    "velocity": 0.937007874015748,
                    "duration": 0.15625
                },
                {
                    "name": "G6",
                    "midi": 91,
                    "time": 398.75,
                    "velocity": 0.937007874015748,
                    "duration": 0.15625
                },
                {
                    "name": "B6",
                    "midi": 95,
                    "time": 398.75,
                    "velocity": 0.937007874015748,
                    "duration": 0.15625
                },
                {
                    "name": "D6",
                    "midi": 86,
                    "time": 398.90625,
                    "velocity": 0.23622047244094488,
                    "duration": 0.15625
                },
                {
                    "name": "F#6",
                    "midi": 90,
                    "time": 398.90625,
                    "velocity": 0.23622047244094488,
                    "duration": 0.15625
                },
                {
                    "name": "B5",
                    "midi": 83,
                    "time": 399.0625,
                    "velocity": 0.23622047244094488,
                    "duration": 0.15625
                },
                {
                    "name": "G6",
                    "midi": 91,
                    "time": 399.0625,
                    "velocity": 0.23622047244094488,
                    "duration": 0.15625
                },
                {
                    "name": "C#6",
                    "midi": 85,
                    "time": 399.21875,
                    "velocity": 0.23622047244094488,
                    "duration": 0.15625
                },
                {
                    "name": "F#6",
                    "midi": 90,
                    "time": 399.21875,
                    "velocity": 0.23622047244094488,
                    "duration": 0.15625
                },
                {
                    "name": "A#5",
                    "midi": 82,
                    "time": 399.375,
                    "velocity": 0.23622047244094488,
                    "duration": 0.15625
                },
                {
                    "name": "G6",
                    "midi": 91,
                    "time": 399.375,
                    "velocity": 0.23622047244094488,
                    "duration": 0.15625
                },
                {
                    "name": "D6",
                    "midi": 86,
                    "time": 399.53125,
                    "velocity": 0.23622047244094488,
                    "duration": 0.15625
                },
                {
                    "name": "F#6",
                    "midi": 90,
                    "time": 399.53125,
                    "velocity": 0.23622047244094488,
                    "duration": 0.15625
                },
                {
                    "name": "B5",
                    "midi": 83,
                    "time": 399.6875,
                    "velocity": 0.23622047244094488,
                    "duration": 0.15625
                },
                {
                    "name": "G6",
                    "midi": 91,
                    "time": 399.6875,
                    "velocity": 0.23622047244094488,
                    "duration": 0.15625
                },
                {
                    "name": "A#5",
                    "midi": 82,
                    "time": 399.84375,
                    "velocity": 0.937007874015748,
                    "duration": 0.15625
                },
                {
                    "name": "C6",
                    "midi": 84,
                    "time": 399.84375,
                    "velocity": 0.937007874015748,
                    "duration": 0.15625
                },
                {
                    "name": "E6",
                    "midi": 88,
                    "time": 399.84375,
                    "velocity": 0.937007874015748,
                    "duration": 0.15625
                },
                {
                    "name": "G6",
                    "midi": 91,
                    "time": 399.84375,
                    "velocity": 0.937007874015748,
                    "duration": 0.15625
                },
                {
                    "name": "A5",
                    "midi": 81,
                    "time": 400,
                    "velocity": 0.937007874015748,
                    "duration": 0.15625
                },
                {
                    "name": "C6",
                    "midi": 84,
                    "time": 400,
                    "velocity": 0.937007874015748,
                    "duration": 0.15625
                },
                {
                    "name": "F6",
                    "midi": 89,
                    "time": 400,
                    "velocity": 0.937007874015748,
                    "duration": 0.15625
                },
                {
                    "name": "A6",
                    "midi": 93,
                    "time": 400,
                    "velocity": 0.937007874015748,
                    "duration": 0.15625
                },
                {
                    "name": "C6",
                    "midi": 84,
                    "time": 400.15625,
                    "velocity": 0.23622047244094488,
                    "duration": 0.15625
                },
                {
                    "name": "E6",
                    "midi": 88,
                    "time": 400.15625,
                    "velocity": 0.23622047244094488,
                    "duration": 0.15625
                },
                {
                    "name": "A5",
                    "midi": 81,
                    "time": 400.3125,
                    "velocity": 0.23622047244094488,
                    "duration": 0.15625
                },
                {
                    "name": "F6",
                    "midi": 89,
                    "time": 400.3125,
                    "velocity": 0.23622047244094488,
                    "duration": 0.15625
                },
                {
                    "name": "A5",
                    "midi": 81,
                    "time": 400.46875,
                    "velocity": 0.23622047244094488,
                    "duration": 0.15625
                },
                {
                    "name": "C#6",
                    "midi": 85,
                    "time": 400.46875,
                    "velocity": 0.23622047244094488,
                    "duration": 0.15625
                },
                {
                    "name": "F5",
                    "midi": 77,
                    "time": 400.625,
                    "velocity": 0.23622047244094488,
                    "duration": 0.15625
                },
                {
                    "name": "D6",
                    "midi": 86,
                    "time": 400.625,
                    "velocity": 0.23622047244094488,
                    "duration": 0.15625
                },
                {
                    "name": "G#5",
                    "midi": 80,
                    "time": 400.78125,
                    "velocity": 0.23622047244094488,
                    "duration": 0.15625
                },
                {
                    "name": "C#6",
                    "midi": 85,
                    "time": 400.78125,
                    "velocity": 0.23622047244094488,
                    "duration": 0.15625
                },
                {
                    "name": "F5",
                    "midi": 77,
                    "time": 400.9375,
                    "velocity": 0.23622047244094488,
                    "duration": 0.15625
                },
                {
                    "name": "D6",
                    "midi": 86,
                    "time": 400.9375,
                    "velocity": 0.23622047244094488,
                    "duration": 0.15625
                },
                {
                    "name": "F5",
                    "midi": 77,
                    "time": 401.09375,
                    "velocity": 0.937007874015748,
                    "duration": 0.15625
                },
                {
                    "name": "G5",
                    "midi": 79,
                    "time": 401.09375,
                    "velocity": 0.937007874015748,
                    "duration": 0.15625
                },
                {
                    "name": "B5",
                    "midi": 83,
                    "time": 401.09375,
                    "velocity": 0.937007874015748,
                    "duration": 0.15625
                },
                {
                    "name": "C#6",
                    "midi": 85,
                    "time": 401.09375,
                    "velocity": 0.937007874015748,
                    "duration": 0.15625
                },
                {
                    "name": "F5",
                    "midi": 77,
                    "time": 401.25,
                    "velocity": 0.937007874015748,
                    "duration": 0.15625
                },
                {
                    "name": "G5",
                    "midi": 79,
                    "time": 401.25,
                    "velocity": 0.937007874015748,
                    "duration": 0.15625
                },
                {
                    "name": "B5",
                    "midi": 83,
                    "time": 401.25,
                    "velocity": 0.937007874015748,
                    "duration": 0.15625
                },
                {
                    "name": "D6",
                    "midi": 86,
                    "time": 401.25,
                    "velocity": 0.937007874015748,
                    "duration": 0.15625
                },
                {
                    "name": "B5",
                    "midi": 83,
                    "time": 401.40625,
                    "velocity": 0.23622047244094488,
                    "duration": 0.15625
                },
                {
                    "name": "D#6",
                    "midi": 87,
                    "time": 401.40625,
                    "velocity": 0.23622047244094488,
                    "duration": 0.15625
                },
                {
                    "name": "G5",
                    "midi": 79,
                    "time": 401.5625,
                    "velocity": 0.23622047244094488,
                    "duration": 0.15625
                },
                {
                    "name": "E6",
                    "midi": 88,
                    "time": 401.5625,
                    "velocity": 0.23622047244094488,
                    "duration": 0.15625
                },
                {
                    "name": "G5",
                    "midi": 79,
                    "time": 401.71875,
                    "velocity": 0.23622047244094488,
                    "duration": 0.15625
                },
                {
                    "name": "B5",
                    "midi": 83,
                    "time": 401.71875,
                    "velocity": 0.23622047244094488,
                    "duration": 0.15625
                },
                {
                    "name": "E5",
                    "midi": 76,
                    "time": 401.875,
                    "velocity": 0.23622047244094488,
                    "duration": 0.15625
                },
                {
                    "name": "C6",
                    "midi": 84,
                    "time": 401.875,
                    "velocity": 0.23622047244094488,
                    "duration": 0.15625
                },
                {
                    "name": "G5",
                    "midi": 79,
                    "time": 402.03125,
                    "velocity": 0.23622047244094488,
                    "duration": 0.15625
                },
                {
                    "name": "B5",
                    "midi": 83,
                    "time": 402.03125,
                    "velocity": 0.23622047244094488,
                    "duration": 0.15625
                },
                {
                    "name": "E5",
                    "midi": 76,
                    "time": 402.1875,
                    "velocity": 0.23622047244094488,
                    "duration": 0.15625
                },
                {
                    "name": "C6",
                    "midi": 84,
                    "time": 402.1875,
                    "velocity": 0.23622047244094488,
                    "duration": 0.15625
                },
                {
                    "name": "D5",
                    "midi": 74,
                    "time": 402.34375,
                    "velocity": 0.937007874015748,
                    "duration": 0.15625
                },
                {
                    "name": "F5",
                    "midi": 77,
                    "time": 402.34375,
                    "velocity": 0.937007874015748,
                    "duration": 0.15625
                },
                {
                    "name": "B5",
                    "midi": 83,
                    "time": 402.34375,
                    "velocity": 0.937007874015748,
                    "duration": 0.15625
                },
                {
                    "name": "E5",
                    "midi": 76,
                    "time": 402.5,
                    "velocity": 0.937007874015748,
                    "duration": 0.15625
                },
                {
                    "name": "G5",
                    "midi": 79,
                    "time": 402.5,
                    "velocity": 0.937007874015748,
                    "duration": 0.15625
                },
                {
                    "name": "C6",
                    "midi": 84,
                    "time": 402.5,
                    "velocity": 0.937007874015748,
                    "duration": 0.15625
                },
                {
                    "name": "E5",
                    "midi": 76,
                    "time": 402.65625,
                    "velocity": 0.23622047244094488,
                    "duration": 0.15625
                },
                {
                    "name": "G#5",
                    "midi": 80,
                    "time": 402.65625,
                    "velocity": 0.23622047244094488,
                    "duration": 0.15625
                },
                {
                    "name": "C5",
                    "midi": 72,
                    "time": 402.8125,
                    "velocity": 0.23622047244094488,
                    "duration": 0.15625
                },
                {
                    "name": "A5",
                    "midi": 81,
                    "time": 402.8125,
                    "velocity": 0.23622047244094488,
                    "duration": 0.15625
                },
                {
                    "name": "D#5",
                    "midi": 75,
                    "time": 402.96875,
                    "velocity": 0.23622047244094488,
                    "duration": 0.15625
                },
                {
                    "name": "G#5",
                    "midi": 80,
                    "time": 402.96875,
                    "velocity": 0.23622047244094488,
                    "duration": 0.15625
                },
                {
                    "name": "C5",
                    "midi": 72,
                    "time": 403.125,
                    "velocity": 0.23622047244094488,
                    "duration": 0.15625
                },
                {
                    "name": "A5",
                    "midi": 81,
                    "time": 403.125,
                    "velocity": 0.23622047244094488,
                    "duration": 0.15625
                },
                {
                    "name": "E5",
                    "midi": 76,
                    "time": 403.28125,
                    "velocity": 0.23622047244094488,
                    "duration": 0.15625
                },
                {
                    "name": "G#5",
                    "midi": 80,
                    "time": 403.28125,
                    "velocity": 0.23622047244094488,
                    "duration": 0.15625
                },
                {
                    "name": "C5",
                    "midi": 72,
                    "time": 403.4375,
                    "velocity": 0.23622047244094488,
                    "duration": 0.15625
                },
                {
                    "name": "A5",
                    "midi": 81,
                    "time": 403.4375,
                    "velocity": 0.23622047244094488,
                    "duration": 0.15625
                },
                {
                    "name": "C5",
                    "midi": 72,
                    "time": 403.59375,
                    "velocity": 0.937007874015748,
                    "duration": 0.15625
                },
                {
                    "name": "D5",
                    "midi": 74,
                    "time": 403.59375,
                    "velocity": 0.937007874015748,
                    "duration": 0.15625
                },
                {
                    "name": "F#5",
                    "midi": 78,
                    "time": 403.59375,
                    "velocity": 0.937007874015748,
                    "duration": 0.15625
                },
                {
                    "name": "A#5",
                    "midi": 82,
                    "time": 403.59375,
                    "velocity": 0.937007874015748,
                    "duration": 0.15625
                },
                {
                    "name": "B4",
                    "midi": 71,
                    "time": 403.75,
                    "velocity": 0.937007874015748,
                    "duration": 0.15625
                },
                {
                    "name": "D5",
                    "midi": 74,
                    "time": 403.75,
                    "velocity": 0.937007874015748,
                    "duration": 0.15625
                },
                {
                    "name": "G5",
                    "midi": 79,
                    "time": 403.75,
                    "velocity": 0.937007874015748,
                    "duration": 0.15625
                },
                {
                    "name": "B5",
                    "midi": 83,
                    "time": 403.75,
                    "velocity": 0.937007874015748,
                    "duration": 0.15625
                },
                {
                    "name": "D5",
                    "midi": 74,
                    "time": 403.90625,
                    "velocity": 0.23622047244094488,
                    "duration": 0.15625
                },
                {
                    "name": "F#5",
                    "midi": 78,
                    "time": 403.90625,
                    "velocity": 0.23622047244094488,
                    "duration": 0.15625
                },
                {
                    "name": "B4",
                    "midi": 71,
                    "time": 404.0625,
                    "velocity": 0.23622047244094488,
                    "duration": 0.15625
                },
                {
                    "name": "G5",
                    "midi": 79,
                    "time": 404.0625,
                    "velocity": 0.23622047244094488,
                    "duration": 0.15625
                },
                {
                    "name": "C#5",
                    "midi": 73,
                    "time": 404.21875,
                    "velocity": 0.23622047244094488,
                    "duration": 0.15625
                },
                {
                    "name": "F#5",
                    "midi": 78,
                    "time": 404.21875,
                    "velocity": 0.23622047244094488,
                    "duration": 0.15625
                },
                {
                    "name": "A#4",
                    "midi": 70,
                    "time": 404.375,
                    "velocity": 0.23622047244094488,
                    "duration": 0.15625
                },
                {
                    "name": "G5",
                    "midi": 79,
                    "time": 404.375,
                    "velocity": 0.23622047244094488,
                    "duration": 0.15625
                },
                {
                    "name": "D5",
                    "midi": 74,
                    "time": 404.53125,
                    "velocity": 0.23622047244094488,
                    "duration": 0.15625
                },
                {
                    "name": "F#5",
                    "midi": 78,
                    "time": 404.53125,
                    "velocity": 0.23622047244094488,
                    "duration": 0.15625
                },
                {
                    "name": "B4",
                    "midi": 71,
                    "time": 404.6875,
                    "velocity": 0.23622047244094488,
                    "duration": 0.15625
                },
                {
                    "name": "G5",
                    "midi": 79,
                    "time": 404.6875,
                    "velocity": 0.23622047244094488,
                    "duration": 0.15625
                },
                {
                    "name": "A#4",
                    "midi": 70,
                    "time": 404.84375,
                    "velocity": 0.937007874015748,
                    "duration": 0.15625
                },
                {
                    "name": "C5",
                    "midi": 72,
                    "time": 404.84375,
                    "velocity": 0.937007874015748,
                    "duration": 0.15625
                },
                {
                    "name": "E5",
                    "midi": 76,
                    "time": 404.84375,
                    "velocity": 0.937007874015748,
                    "duration": 0.15625
                },
                {
                    "name": "G#5",
                    "midi": 80,
                    "time": 404.84375,
                    "velocity": 0.937007874015748,
                    "duration": 0.15625
                },
                {
                    "name": "A4",
                    "midi": 69,
                    "time": 405,
                    "velocity": 0.937007874015748,
                    "duration": 0.15625
                },
                {
                    "name": "C5",
                    "midi": 72,
                    "time": 405,
                    "velocity": 0.937007874015748,
                    "duration": 0.15625
                },
                {
                    "name": "F5",
                    "midi": 77,
                    "time": 405,
                    "velocity": 0.937007874015748,
                    "duration": 0.15625
                },
                {
                    "name": "A5",
                    "midi": 81,
                    "time": 405,
                    "velocity": 0.937007874015748,
                    "duration": 0.15625
                },
                {
                    "name": "C5",
                    "midi": 72,
                    "time": 405.15625,
                    "velocity": 0.23622047244094488,
                    "duration": 0.15625
                },
                {
                    "name": "E5",
                    "midi": 76,
                    "time": 405.15625,
                    "velocity": 0.23622047244094488,
                    "duration": 0.15625
                },
                {
                    "name": "A4",
                    "midi": 69,
                    "time": 405.3125,
                    "velocity": 0.23622047244094488,
                    "duration": 0.15625
                },
                {
                    "name": "F5",
                    "midi": 77,
                    "time": 405.3125,
                    "velocity": 0.23622047244094488,
                    "duration": 0.15625
                },
                {
                    "name": "A4",
                    "midi": 69,
                    "time": 405.46875,
                    "velocity": 0.23622047244094488,
                    "duration": 0.15625
                },
                {
                    "name": "C#5",
                    "midi": 73,
                    "time": 405.46875,
                    "velocity": 0.23622047244094488,
                    "duration": 0.15625
                },
                {
                    "name": "F4",
                    "midi": 65,
                    "time": 405.625,
                    "velocity": 0.23622047244094488,
                    "duration": 0.15625
                },
                {
                    "name": "D5",
                    "midi": 74,
                    "time": 405.625,
                    "velocity": 0.23622047244094488,
                    "duration": 0.15625
                },
                {
                    "name": "G#4",
                    "midi": 68,
                    "time": 405.78125,
                    "velocity": 0.23622047244094488,
                    "duration": 0.15625
                },
                {
                    "name": "C#5",
                    "midi": 73,
                    "time": 405.78125,
                    "velocity": 0.23622047244094488,
                    "duration": 0.15625
                },
                {
                    "name": "F4",
                    "midi": 65,
                    "time": 405.9375,
                    "velocity": 0.23622047244094488,
                    "duration": 0.15625
                },
                {
                    "name": "D5",
                    "midi": 74,
                    "time": 405.9375,
                    "velocity": 0.23622047244094488,
                    "duration": 0.15625
                },
                {
                    "name": "F4",
                    "midi": 65,
                    "time": 406.09375,
                    "velocity": 0.937007874015748,
                    "duration": 0.15625
                },
                {
                    "name": "G4",
                    "midi": 67,
                    "time": 406.09375,
                    "velocity": 0.937007874015748,
                    "duration": 0.15625
                },
                {
                    "name": "B4",
                    "midi": 71,
                    "time": 406.09375,
                    "velocity": 0.937007874015748,
                    "duration": 0.15625
                },
                {
                    "name": "C#5",
                    "midi": 73,
                    "time": 406.09375,
                    "velocity": 0.937007874015748,
                    "duration": 0.15625
                },
                {
                    "name": "F4",
                    "midi": 65,
                    "time": 406.25,
                    "velocity": 0.937007874015748,
                    "duration": 0.15625
                },
                {
                    "name": "G4",
                    "midi": 67,
                    "time": 406.25,
                    "velocity": 0.937007874015748,
                    "duration": 0.15625
                },
                {
                    "name": "B4",
                    "midi": 71,
                    "time": 406.25,
                    "velocity": 0.937007874015748,
                    "duration": 0.15625
                },
                {
                    "name": "D5",
                    "midi": 74,
                    "time": 406.25,
                    "velocity": 0.937007874015748,
                    "duration": 0.15625
                },
                {
                    "name": "B4",
                    "midi": 71,
                    "time": 406.40625,
                    "velocity": 0.23622047244094488,
                    "duration": 0.15625
                },
                {
                    "name": "D#5",
                    "midi": 75,
                    "time": 406.40625,
                    "velocity": 0.23622047244094488,
                    "duration": 0.15625
                },
                {
                    "name": "G4",
                    "midi": 67,
                    "time": 406.5625,
                    "velocity": 0.23622047244094488,
                    "duration": 0.15625
                },
                {
                    "name": "E5",
                    "midi": 76,
                    "time": 406.5625,
                    "velocity": 0.23622047244094488,
                    "duration": 0.15625
                },
                {
                    "name": "G4",
                    "midi": 67,
                    "time": 406.71875,
                    "velocity": 0.23622047244094488,
                    "duration": 0.15625
                },
                {
                    "name": "B4",
                    "midi": 71,
                    "time": 406.71875,
                    "velocity": 0.23622047244094488,
                    "duration": 0.15625
                },
                {
                    "name": "E4",
                    "midi": 64,
                    "time": 406.875,
                    "velocity": 0.23622047244094488,
                    "duration": 0.15625
                },
                {
                    "name": "C5",
                    "midi": 72,
                    "time": 406.875,
                    "velocity": 0.23622047244094488,
                    "duration": 0.15625
                },
                {
                    "name": "G4",
                    "midi": 67,
                    "time": 407.03125,
                    "velocity": 0.23622047244094488,
                    "duration": 0.15625
                },
                {
                    "name": "B4",
                    "midi": 71,
                    "time": 407.03125,
                    "velocity": 0.23622047244094488,
                    "duration": 0.15625
                },
                {
                    "name": "E4",
                    "midi": 64,
                    "time": 407.1875,
                    "velocity": 0.23622047244094488,
                    "duration": 0.15625
                },
                {
                    "name": "C5",
                    "midi": 72,
                    "time": 407.1875,
                    "velocity": 0.23622047244094488,
                    "duration": 0.15625
                },
                {
                    "name": "G4",
                    "midi": 67,
                    "time": 407.34375,
                    "velocity": 0.2755905511811024,
                    "duration": 0.15625
                },
                {
                    "name": "B4",
                    "midi": 71,
                    "time": 407.34375,
                    "velocity": 0.2755905511811024,
                    "duration": 0.15625
                },
                {
                    "name": "E4",
                    "midi": 64,
                    "time": 407.5,
                    "velocity": 0.2755905511811024,
                    "duration": 0.15625
                },
                {
                    "name": "C5",
                    "midi": 72,
                    "time": 407.5,
                    "velocity": 0.2755905511811024,
                    "duration": 0.15625
                },
                {
                    "name": "G4",
                    "midi": 67,
                    "time": 407.65625,
                    "velocity": 0.28346456692913385,
                    "duration": 0.15625
                },
                {
                    "name": "B4",
                    "midi": 71,
                    "time": 407.65625,
                    "velocity": 0.28346456692913385,
                    "duration": 0.15625
                },
                {
                    "name": "E4",
                    "midi": 64,
                    "time": 407.8125,
                    "velocity": 0.29133858267716534,
                    "duration": 0.15625
                },
                {
                    "name": "C5",
                    "midi": 72,
                    "time": 407.8125,
                    "velocity": 0.29133858267716534,
                    "duration": 0.15625
                },
                {
                    "name": "G#4",
                    "midi": 68,
                    "time": 407.96875,
                    "velocity": 0.2992125984251969,
                    "duration": 0.15625
                },
                {
                    "name": "C#5",
                    "midi": 73,
                    "time": 407.96875,
                    "velocity": 0.2992125984251969,
                    "duration": 0.15625
                },
                {
                    "name": "F4",
                    "midi": 65,
                    "time": 408.125,
                    "velocity": 0.30708661417322836,
                    "duration": 0.15625
                },
                {
                    "name": "D5",
                    "midi": 74,
                    "time": 408.125,
                    "velocity": 0.30708661417322836,
                    "duration": 0.15625
                },
                {
                    "name": "F4",
                    "midi": 65,
                    "time": 408.28125,
                    "velocity": 0.31496062992125984,
                    "duration": 0.15625
                },
                {
                    "name": "A#4",
                    "midi": 70,
                    "time": 408.28125,
                    "velocity": 0.31496062992125984,
                    "duration": 0.15625
                },
                {
                    "name": "D4",
                    "midi": 62,
                    "time": 408.4375,
                    "velocity": 0.3228346456692913,
                    "duration": 0.15625
                },
                {
                    "name": "B4",
                    "midi": 71,
                    "time": 408.4375,
                    "velocity": 0.3228346456692913,
                    "duration": 0.15625
                },
                {
                    "name": "G4",
                    "midi": 67,
                    "time": 408.59375,
                    "velocity": 0.33070866141732286,
                    "duration": 0.15625
                },
                {
                    "name": "B4",
                    "midi": 71,
                    "time": 408.59375,
                    "velocity": 0.33070866141732286,
                    "duration": 0.15625
                },
                {
                    "name": "E4",
                    "midi": 64,
                    "time": 408.75,
                    "velocity": 0.33858267716535434,
                    "duration": 0.15625
                },
                {
                    "name": "C5",
                    "midi": 72,
                    "time": 408.75,
                    "velocity": 0.33858267716535434,
                    "duration": 0.15625
                },
                {
                    "name": "G4",
                    "midi": 67,
                    "time": 408.90625,
                    "velocity": 0.3464566929133858,
                    "duration": 0.15625
                },
                {
                    "name": "B4",
                    "midi": 71,
                    "time": 408.90625,
                    "velocity": 0.3464566929133858,
                    "duration": 0.15625
                },
                {
                    "name": "E4",
                    "midi": 64,
                    "time": 409.0625,
                    "velocity": 0.3543307086614173,
                    "duration": 0.15625
                },
                {
                    "name": "C5",
                    "midi": 72,
                    "time": 409.0625,
                    "velocity": 0.3543307086614173,
                    "duration": 0.15625
                },
                {
                    "name": "G#4",
                    "midi": 68,
                    "time": 409.21875,
                    "velocity": 0.36220472440944884,
                    "duration": 0.15625
                },
                {
                    "name": "C#5",
                    "midi": 73,
                    "time": 409.21875,
                    "velocity": 0.36220472440944884,
                    "duration": 0.15625
                },
                {
                    "name": "F4",
                    "midi": 65,
                    "time": 409.375,
                    "velocity": 0.3700787401574803,
                    "duration": 0.15625
                },
                {
                    "name": "D5",
                    "midi": 74,
                    "time": 409.375,
                    "velocity": 0.3700787401574803,
                    "duration": 0.15625
                },
                {
                    "name": "F4",
                    "midi": 65,
                    "time": 409.53125,
                    "velocity": 0.3779527559055118,
                    "duration": 0.15625
                },
                {
                    "name": "A#4",
                    "midi": 70,
                    "time": 409.53125,
                    "velocity": 0.3779527559055118,
                    "duration": 0.15625
                },
                {
                    "name": "D4",
                    "midi": 62,
                    "time": 409.6875,
                    "velocity": 0.3858267716535433,
                    "duration": 0.15625
                },
                {
                    "name": "B4",
                    "midi": 71,
                    "time": 409.6875,
                    "velocity": 0.3858267716535433,
                    "duration": 0.15625
                },
                {
                    "name": "G4",
                    "midi": 67,
                    "time": 409.84375,
                    "velocity": 0.3937007874015748,
                    "duration": 0.15625
                },
                {
                    "name": "B4",
                    "midi": 71,
                    "time": 409.84375,
                    "velocity": 0.3937007874015748,
                    "duration": 0.15625
                },
                {
                    "name": "E4",
                    "midi": 64,
                    "time": 410,
                    "velocity": 0.4015748031496063,
                    "duration": 0.15625
                },
                {
                    "name": "C5",
                    "midi": 72,
                    "time": 410,
                    "velocity": 0.4015748031496063,
                    "duration": 0.15625
                },
                {
                    "name": "G4",
                    "midi": 67,
                    "time": 410.15625,
                    "velocity": 0.4094488188976378,
                    "duration": 0.15625
                },
                {
                    "name": "B4",
                    "midi": 71,
                    "time": 410.15625,
                    "velocity": 0.4094488188976378,
                    "duration": 0.15625
                },
                {
                    "name": "E4",
                    "midi": 64,
                    "time": 410.3125,
                    "velocity": 0.41732283464566927,
                    "duration": 0.15625
                },
                {
                    "name": "C5",
                    "midi": 72,
                    "time": 410.3125,
                    "velocity": 0.41732283464566927,
                    "duration": 0.15625
                },
                {
                    "name": "G#4",
                    "midi": 68,
                    "time": 410.46875,
                    "velocity": 0.4251968503937008,
                    "duration": 0.15625
                },
                {
                    "name": "C#5",
                    "midi": 73,
                    "time": 410.46875,
                    "velocity": 0.4251968503937008,
                    "duration": 0.15625
                },
                {
                    "name": "F4",
                    "midi": 65,
                    "time": 410.625,
                    "velocity": 0.4330708661417323,
                    "duration": 0.15625
                },
                {
                    "name": "D5",
                    "midi": 74,
                    "time": 410.625,
                    "velocity": 0.4330708661417323,
                    "duration": 0.15625
                },
                {
                    "name": "G#4",
                    "midi": 68,
                    "time": 410.78125,
                    "velocity": 0.4409448818897638,
                    "duration": 0.15625
                },
                {
                    "name": "C#5",
                    "midi": 73,
                    "time": 410.78125,
                    "velocity": 0.4409448818897638,
                    "duration": 0.15625
                },
                {
                    "name": "D4",
                    "midi": 62,
                    "time": 410.9375,
                    "velocity": 0.44881889763779526,
                    "duration": 0.15625
                },
                {
                    "name": "D5",
                    "midi": 74,
                    "time": 410.9375,
                    "velocity": 0.44881889763779526,
                    "duration": 0.15625
                },
                {
                    "name": "A#4",
                    "midi": 70,
                    "time": 411.09375,
                    "velocity": 0.4566929133858268,
                    "duration": 0.15625
                },
                {
                    "name": "D#5",
                    "midi": 75,
                    "time": 411.09375,
                    "velocity": 0.4566929133858268,
                    "duration": 0.15625
                },
                {
                    "name": "G4",
                    "midi": 67,
                    "time": 411.25,
                    "velocity": 0.4645669291338583,
                    "duration": 0.15625
                },
                {
                    "name": "E5",
                    "midi": 76,
                    "time": 411.25,
                    "velocity": 0.4645669291338583,
                    "duration": 0.15625
                },
                {
                    "name": "A#4",
                    "midi": 70,
                    "time": 411.40625,
                    "velocity": 0.47244094488188976,
                    "duration": 0.15625
                },
                {
                    "name": "D#5",
                    "midi": 75,
                    "time": 411.40625,
                    "velocity": 0.47244094488188976,
                    "duration": 0.15625
                },
                {
                    "name": "G4",
                    "midi": 67,
                    "time": 411.5625,
                    "velocity": 0.48031496062992124,
                    "duration": 0.15625
                },
                {
                    "name": "E5",
                    "midi": 76,
                    "time": 411.5625,
                    "velocity": 0.48031496062992124,
                    "duration": 0.15625
                },
                {
                    "name": "C5",
                    "midi": 72,
                    "time": 411.71875,
                    "velocity": 0.4881889763779528,
                    "duration": 0.15625
                },
                {
                    "name": "E5",
                    "midi": 76,
                    "time": 411.71875,
                    "velocity": 0.4881889763779528,
                    "duration": 0.15625
                },
                {
                    "name": "F4",
                    "midi": 65,
                    "time": 411.875,
                    "velocity": 0.49606299212598426,
                    "duration": 0.15625
                },
                {
                    "name": "F5",
                    "midi": 77,
                    "time": 411.875,
                    "velocity": 0.49606299212598426,
                    "duration": 0.15625
                },
                {
                    "name": "D5",
                    "midi": 74,
                    "time": 412.03125,
                    "velocity": 0.5039370078740157,
                    "duration": 0.15625
                },
                {
                    "name": "F#5",
                    "midi": 78,
                    "time": 412.03125,
                    "velocity": 0.5039370078740157,
                    "duration": 0.15625
                },
                {
                    "name": "F4",
                    "midi": 65,
                    "time": 412.1875,
                    "velocity": 0.5118110236220472,
                    "duration": 0.15625
                },
                {
                    "name": "G4",
                    "midi": 67,
                    "time": 412.1875,
                    "velocity": 0.5118110236220472,
                    "duration": 0.15625
                },
                {
                    "name": "G5",
                    "midi": 79,
                    "time": 412.1875,
                    "velocity": 0.5118110236220472,
                    "duration": 0.15625
                },
                {
                    "name": "G5",
                    "midi": 79,
                    "time": 412.34375,
                    "velocity": 0.5196850393700787,
                    "duration": 0.15625
                },
                {
                    "name": "B5",
                    "midi": 83,
                    "time": 412.34375,
                    "velocity": 0.5196850393700787,
                    "duration": 0.15625
                },
                {
                    "name": "E5",
                    "midi": 76,
                    "time": 412.5,
                    "velocity": 0.5354330708661418,
                    "duration": 0.15625
                },
                {
                    "name": "C6",
                    "midi": 84,
                    "time": 412.5,
                    "velocity": 0.5354330708661418,
                    "duration": 0.15625
                },
                {
                    "name": "G5",
                    "midi": 79,
                    "time": 412.65625,
                    "velocity": 0.5433070866141733,
                    "duration": 0.15625
                },
                {
                    "name": "B5",
                    "midi": 83,
                    "time": 412.65625,
                    "velocity": 0.5433070866141733,
                    "duration": 0.15625
                },
                {
                    "name": "E5",
                    "midi": 76,
                    "time": 412.8125,
                    "velocity": 0.5511811023622047,
                    "duration": 0.15625
                },
                {
                    "name": "C6",
                    "midi": 84,
                    "time": 412.8125,
                    "velocity": 0.5511811023622047,
                    "duration": 0.15625
                },
                {
                    "name": "G#5",
                    "midi": 80,
                    "time": 412.96875,
                    "velocity": 0.5590551181102362,
                    "duration": 0.15625
                },
                {
                    "name": "C#6",
                    "midi": 85,
                    "time": 412.96875,
                    "velocity": 0.5590551181102362,
                    "duration": 0.15625
                },
                {
                    "name": "F5",
                    "midi": 77,
                    "time": 413.125,
                    "velocity": 0.5669291338582677,
                    "duration": 0.15625
                },
                {
                    "name": "D6",
                    "midi": 86,
                    "time": 413.125,
                    "velocity": 0.5669291338582677,
                    "duration": 0.15625
                },
                {
                    "name": "F5",
                    "midi": 77,
                    "time": 413.28125,
                    "velocity": 0.5748031496062992,
                    "duration": 0.15625
                },
                {
                    "name": "A#5",
                    "midi": 82,
                    "time": 413.28125,
                    "velocity": 0.5748031496062992,
                    "duration": 0.15625
                },
                {
                    "name": "D5",
                    "midi": 74,
                    "time": 413.4375,
                    "velocity": 0.5826771653543307,
                    "duration": 0.15625
                },
                {
                    "name": "B5",
                    "midi": 83,
                    "time": 413.4375,
                    "velocity": 0.5826771653543307,
                    "duration": 0.15625
                },
                {
                    "name": "G5",
                    "midi": 79,
                    "time": 413.59375,
                    "velocity": 0.5905511811023622,
                    "duration": 0.15625
                },
                {
                    "name": "B5",
                    "midi": 83,
                    "time": 413.59375,
                    "velocity": 0.5905511811023622,
                    "duration": 0.15625
                },
                {
                    "name": "E5",
                    "midi": 76,
                    "time": 413.75,
                    "velocity": 0.5984251968503937,
                    "duration": 0.15625
                },
                {
                    "name": "C6",
                    "midi": 84,
                    "time": 413.75,
                    "velocity": 0.5984251968503937,
                    "duration": 0.15625
                },
                {
                    "name": "G5",
                    "midi": 79,
                    "time": 413.90625,
                    "velocity": 0.6062992125984252,
                    "duration": 0.15625
                },
                {
                    "name": "B5",
                    "midi": 83,
                    "time": 413.90625,
                    "velocity": 0.6062992125984252,
                    "duration": 0.15625
                },
                {
                    "name": "E5",
                    "midi": 76,
                    "time": 414.0625,
                    "velocity": 0.6141732283464567,
                    "duration": 0.15625
                },
                {
                    "name": "C6",
                    "midi": 84,
                    "time": 414.0625,
                    "velocity": 0.6141732283464567,
                    "duration": 0.15625
                },
                {
                    "name": "G#5",
                    "midi": 80,
                    "time": 414.21875,
                    "velocity": 0.6220472440944882,
                    "duration": 0.15625
                },
                {
                    "name": "C#6",
                    "midi": 85,
                    "time": 414.21875,
                    "velocity": 0.6220472440944882,
                    "duration": 0.15625
                },
                {
                    "name": "F5",
                    "midi": 77,
                    "time": 414.375,
                    "velocity": 0.6299212598425197,
                    "duration": 0.15625
                },
                {
                    "name": "D6",
                    "midi": 86,
                    "time": 414.375,
                    "velocity": 0.6299212598425197,
                    "duration": 0.15625
                },
                {
                    "name": "F5",
                    "midi": 77,
                    "time": 414.53125,
                    "velocity": 0.6377952755905512,
                    "duration": 0.15625
                },
                {
                    "name": "A#5",
                    "midi": 82,
                    "time": 414.53125,
                    "velocity": 0.6377952755905512,
                    "duration": 0.15625
                },
                {
                    "name": "D5",
                    "midi": 74,
                    "time": 414.6875,
                    "velocity": 0.6456692913385826,
                    "duration": 0.15625
                },
                {
                    "name": "B5",
                    "midi": 83,
                    "time": 414.6875,
                    "velocity": 0.6456692913385826,
                    "duration": 0.15625
                },
                {
                    "name": "G5",
                    "midi": 79,
                    "time": 414.84375,
                    "velocity": 0.6535433070866141,
                    "duration": 0.15625
                },
                {
                    "name": "B5",
                    "midi": 83,
                    "time": 414.84375,
                    "velocity": 0.6535433070866141,
                    "duration": 0.15625
                },
                {
                    "name": "E5",
                    "midi": 76,
                    "time": 415,
                    "velocity": 0.6614173228346457,
                    "duration": 0.15625
                },
                {
                    "name": "C6",
                    "midi": 84,
                    "time": 415,
                    "velocity": 0.6614173228346457,
                    "duration": 0.15625
                },
                {
                    "name": "G5",
                    "midi": 79,
                    "time": 415.15625,
                    "velocity": 0.6692913385826772,
                    "duration": 0.15625
                },
                {
                    "name": "B5",
                    "midi": 83,
                    "time": 415.15625,
                    "velocity": 0.6692913385826772,
                    "duration": 0.15625
                },
                {
                    "name": "E5",
                    "midi": 76,
                    "time": 415.3125,
                    "velocity": 0.6771653543307087,
                    "duration": 0.15625
                },
                {
                    "name": "C6",
                    "midi": 84,
                    "time": 415.3125,
                    "velocity": 0.6771653543307087,
                    "duration": 0.15625
                },
                {
                    "name": "G#5",
                    "midi": 80,
                    "time": 415.46875,
                    "velocity": 0.6850393700787402,
                    "duration": 0.15625
                },
                {
                    "name": "C#6",
                    "midi": 85,
                    "time": 415.46875,
                    "velocity": 0.6850393700787402,
                    "duration": 0.15625
                },
                {
                    "name": "F5",
                    "midi": 77,
                    "time": 415.625,
                    "velocity": 0.6929133858267716,
                    "duration": 0.15625
                },
                {
                    "name": "D6",
                    "midi": 86,
                    "time": 415.625,
                    "velocity": 0.6929133858267716,
                    "duration": 0.15625
                },
                {
                    "name": "G#5",
                    "midi": 80,
                    "time": 415.78125,
                    "velocity": 0.7007874015748031,
                    "duration": 0.15625
                },
                {
                    "name": "C#6",
                    "midi": 85,
                    "time": 415.78125,
                    "velocity": 0.7007874015748031,
                    "duration": 0.15625
                },
                {
                    "name": "D5",
                    "midi": 74,
                    "time": 415.9375,
                    "velocity": 0.7086614173228346,
                    "duration": 0.15625
                },
                {
                    "name": "D6",
                    "midi": 86,
                    "time": 415.9375,
                    "velocity": 0.7086614173228346,
                    "duration": 0.15625
                },
                {
                    "name": "A#5",
                    "midi": 82,
                    "time": 416.09375,
                    "velocity": 0.7165354330708661,
                    "duration": 0.15625
                },
                {
                    "name": "D#6",
                    "midi": 87,
                    "time": 416.09375,
                    "velocity": 0.7165354330708661,
                    "duration": 0.15625
                },
                {
                    "name": "G5",
                    "midi": 79,
                    "time": 416.25,
                    "velocity": 0.7874015748031497,
                    "duration": 0.15625
                },
                {
                    "name": "E6",
                    "midi": 88,
                    "time": 416.25,
                    "velocity": 0.7874015748031497,
                    "duration": 0.15625
                },
                {
                    "name": "A#5",
                    "midi": 82,
                    "time": 416.40625,
                    "velocity": 0.7874015748031497,
                    "duration": 0.15625
                },
                {
                    "name": "D#6",
                    "midi": 87,
                    "time": 416.40625,
                    "velocity": 0.7874015748031497,
                    "duration": 0.15625
                },
                {
                    "name": "G5",
                    "midi": 79,
                    "time": 416.5625,
                    "velocity": 0.7874015748031497,
                    "duration": 0.15625
                },
                {
                    "name": "E6",
                    "midi": 88,
                    "time": 416.5625,
                    "velocity": 0.7874015748031497,
                    "duration": 0.15625
                },
                {
                    "name": "C6",
                    "midi": 84,
                    "time": 416.71875,
                    "velocity": 0.7874015748031497,
                    "duration": 0.15625
                },
                {
                    "name": "E6",
                    "midi": 88,
                    "time": 416.71875,
                    "velocity": 0.7874015748031497,
                    "duration": 0.15625
                },
                {
                    "name": "F5",
                    "midi": 77,
                    "time": 416.875,
                    "velocity": 0.7874015748031497,
                    "duration": 0.15625
                },
                {
                    "name": "F6",
                    "midi": 89,
                    "time": 416.875,
                    "velocity": 0.7874015748031497,
                    "duration": 0.15625
                },
                {
                    "name": "D6",
                    "midi": 86,
                    "time": 417.03125,
                    "velocity": 0.7874015748031497,
                    "duration": 0.15625
                },
                {
                    "name": "F#6",
                    "midi": 90,
                    "time": 417.03125,
                    "velocity": 0.7874015748031497,
                    "duration": 0.15625
                },
                {
                    "name": "F5",
                    "midi": 77,
                    "time": 417.1875,
                    "velocity": 0.7874015748031497,
                    "duration": 0.15625
                },
                {
                    "name": "G5",
                    "midi": 79,
                    "time": 417.1875,
                    "velocity": 0.7874015748031497,
                    "duration": 0.15625
                },
                {
                    "name": "G6",
                    "midi": 91,
                    "time": 417.1875,
                    "velocity": 0.7874015748031497,
                    "duration": 0.15625
                },
                {
                    "name": "C6",
                    "midi": 84,
                    "time": 417.34375,
                    "velocity": 0.7874015748031497,
                    "duration": 0.15625
                },
                {
                    "name": "D#6",
                    "midi": 87,
                    "time": 417.34375,
                    "velocity": 0.7874015748031497,
                    "duration": 0.15625
                },
                {
                    "name": "E5",
                    "midi": 76,
                    "time": 417.5,
                    "velocity": 0.7874015748031497,
                    "duration": 0.15625
                },
                {
                    "name": "E6",
                    "midi": 88,
                    "time": 417.5,
                    "velocity": 0.7874015748031497,
                    "duration": 0.15625
                },
                {
                    "name": "C6",
                    "midi": 84,
                    "time": 417.65625,
                    "velocity": 0.7874015748031497,
                    "duration": 0.15625
                },
                {
                    "name": "D#6",
                    "midi": 87,
                    "time": 417.65625,
                    "velocity": 0.7874015748031497,
                    "duration": 0.15625
                },
                {
                    "name": "E5",
                    "midi": 76,
                    "time": 417.8125,
                    "velocity": 0.7874015748031497,
                    "duration": 0.15625
                },
                {
                    "name": "E6",
                    "midi": 88,
                    "time": 417.8125,
                    "velocity": 0.7874015748031497,
                    "duration": 0.15625
                },
                {
                    "name": "F6",
                    "midi": 89,
                    "time": 417.96875,
                    "velocity": 0.7874015748031497,
                    "duration": 0.46875
                },
                {
                    "name": "A6",
                    "midi": 93,
                    "time": 417.96875,
                    "velocity": 0.7874015748031497,
                    "duration": 0.46875
                },
                {
                    "name": "A5",
                    "midi": 81,
                    "time": 417.96875,
                    "velocity": 0.7874015748031497,
                    "duration": 0.15625
                },
                {
                    "name": "D6",
                    "midi": 86,
                    "time": 418.125,
                    "velocity": 0.7874015748031497,
                    "duration": 0.15625
                },
                {
                    "name": "G5",
                    "midi": 79,
                    "time": 418.28125,
                    "velocity": 0.7874015748031497,
                    "duration": 0.15625
                },
                {
                    "name": "G6",
                    "midi": 91,
                    "time": 418.4375,
                    "velocity": 0.7874015748031497,
                    "duration": 0.15625
                },
                {
                    "name": "F6",
                    "midi": 89,
                    "time": 418.4375,
                    "velocity": 0.7874015748031497,
                    "duration": 0.15625
                },
                {
                    "name": "C6",
                    "midi": 84,
                    "time": 418.59375,
                    "velocity": 0.7874015748031497,
                    "duration": 0.15625
                },
                {
                    "name": "D#6",
                    "midi": 87,
                    "time": 418.59375,
                    "velocity": 0.7874015748031497,
                    "duration": 0.15625
                },
                {
                    "name": "E5",
                    "midi": 76,
                    "time": 418.75,
                    "velocity": 0.7874015748031497,
                    "duration": 0.15625
                },
                {
                    "name": "E6",
                    "midi": 88,
                    "time": 418.75,
                    "velocity": 0.7874015748031497,
                    "duration": 0.15625
                },
                {
                    "name": "C6",
                    "midi": 84,
                    "time": 418.90625,
                    "velocity": 0.7874015748031497,
                    "duration": 0.15625
                },
                {
                    "name": "D#6",
                    "midi": 87,
                    "time": 418.90625,
                    "velocity": 0.7874015748031497,
                    "duration": 0.15625
                },
                {
                    "name": "E5",
                    "midi": 76,
                    "time": 419.0625,
                    "velocity": 0.7874015748031497,
                    "duration": 0.15625
                },
                {
                    "name": "E6",
                    "midi": 88,
                    "time": 419.0625,
                    "velocity": 0.7874015748031497,
                    "duration": 0.15625
                },
                {
                    "name": "F6",
                    "midi": 89,
                    "time": 419.21875,
                    "velocity": 0.7874015748031497,
                    "duration": 0.46875
                },
                {
                    "name": "A6",
                    "midi": 93,
                    "time": 419.21875,
                    "velocity": 0.7874015748031497,
                    "duration": 0.46875
                },
                {
                    "name": "A5",
                    "midi": 81,
                    "time": 419.21875,
                    "velocity": 0.7874015748031497,
                    "duration": 0.15625
                },
                {
                    "name": "D6",
                    "midi": 86,
                    "time": 419.375,
                    "velocity": 0.7874015748031497,
                    "duration": 0.15625
                },
                {
                    "name": "G5",
                    "midi": 79,
                    "time": 419.53125,
                    "velocity": 0.7874015748031497,
                    "duration": 0.15625
                },
                {
                    "name": "G6",
                    "midi": 91,
                    "time": 419.6875,
                    "velocity": 0.7874015748031497,
                    "duration": 0.15625
                },
                {
                    "name": "F6",
                    "midi": 89,
                    "time": 419.6875,
                    "velocity": 0.7874015748031497,
                    "duration": 0.15625
                },
                {
                    "name": "C6",
                    "midi": 84,
                    "time": 419.84375,
                    "velocity": 0.7874015748031497,
                    "duration": 0.15625
                },
                {
                    "name": "D#6",
                    "midi": 87,
                    "time": 419.84375,
                    "velocity": 0.7874015748031497,
                    "duration": 0.15625
                },
                {
                    "name": "E5",
                    "midi": 76,
                    "time": 420,
                    "velocity": 0.7874015748031497,
                    "duration": 0.15625
                },
                {
                    "name": "E6",
                    "midi": 88,
                    "time": 420,
                    "velocity": 0.7874015748031497,
                    "duration": 0.15625
                },
                {
                    "name": "C6",
                    "midi": 84,
                    "time": 420.15625,
                    "velocity": 0.7874015748031497,
                    "duration": 0.15625
                },
                {
                    "name": "D#6",
                    "midi": 87,
                    "time": 420.15625,
                    "velocity": 0.7874015748031497,
                    "duration": 0.15625
                },
                {
                    "name": "E5",
                    "midi": 76,
                    "time": 420.3125,
                    "velocity": 0.7874015748031497,
                    "duration": 0.15625
                },
                {
                    "name": "E6",
                    "midi": 88,
                    "time": 420.3125,
                    "velocity": 0.7874015748031497,
                    "duration": 0.15625
                },
                {
                    "name": "E6",
                    "midi": 88,
                    "time": 420.46875,
                    "velocity": 0.7874015748031497,
                    "duration": 0.46875
                },
                {
                    "name": "G6",
                    "midi": 91,
                    "time": 420.46875,
                    "velocity": 0.7874015748031497,
                    "duration": 0.46875
                },
                {
                    "name": "G5",
                    "midi": 79,
                    "time": 420.46875,
                    "velocity": 0.7874015748031497,
                    "duration": 0.15625
                },
                {
                    "name": "C6",
                    "midi": 84,
                    "time": 420.625,
                    "velocity": 0.7874015748031497,
                    "duration": 0.15625
                },
                {
                    "name": "F5",
                    "midi": 77,
                    "time": 420.78125,
                    "velocity": 0.7874015748031497,
                    "duration": 0.15625
                },
                {
                    "name": "F6",
                    "midi": 89,
                    "time": 420.9375,
                    "velocity": 0.7874015748031497,
                    "duration": 0.15625
                },
                {
                    "name": "E6",
                    "midi": 88,
                    "time": 420.9375,
                    "velocity": 0.7874015748031497,
                    "duration": 0.15625
                },
                {
                    "name": "B5",
                    "midi": 83,
                    "time": 421.09375,
                    "velocity": 0.7874015748031497,
                    "duration": 0.15625
                },
                {
                    "name": "C#6",
                    "midi": 85,
                    "time": 421.09375,
                    "velocity": 0.7874015748031497,
                    "duration": 0.15625
                },
                {
                    "name": "D5",
                    "midi": 74,
                    "time": 421.25,
                    "velocity": 0.7874015748031497,
                    "duration": 0.15625
                },
                {
                    "name": "D6",
                    "midi": 86,
                    "time": 421.25,
                    "velocity": 0.7874015748031497,
                    "duration": 0.15625
                },
                {
                    "name": "B5",
                    "midi": 83,
                    "time": 421.40625,
                    "velocity": 0.7874015748031497,
                    "duration": 0.15625
                },
                {
                    "name": "C#6",
                    "midi": 85,
                    "time": 421.40625,
                    "velocity": 0.7874015748031497,
                    "duration": 0.15625
                },
                {
                    "name": "D5",
                    "midi": 74,
                    "time": 421.5625,
                    "velocity": 0.7874015748031497,
                    "duration": 0.15625
                },
                {
                    "name": "D6",
                    "midi": 86,
                    "time": 421.5625,
                    "velocity": 0.7874015748031497,
                    "duration": 0.15625
                },
                {
                    "name": "D6",
                    "midi": 86,
                    "time": 421.71875,
                    "velocity": 0.7874015748031497,
                    "duration": 0.46875
                },
                {
                    "name": "F6",
                    "midi": 89,
                    "time": 421.71875,
                    "velocity": 0.7874015748031497,
                    "duration": 0.46875
                },
                {
                    "name": "F5",
                    "midi": 77,
                    "time": 421.71875,
                    "velocity": 0.7874015748031497,
                    "duration": 0.15625
                },
                {
                    "name": "B5",
                    "midi": 83,
                    "time": 421.875,
                    "velocity": 0.7874015748031497,
                    "duration": 0.15625
                },
                {
                    "name": "E5",
                    "midi": 76,
                    "time": 422.03125,
                    "velocity": 0.7874015748031497,
                    "duration": 0.15625
                },
                {
                    "name": "E6",
                    "midi": 88,
                    "time": 422.1875,
                    "velocity": 0.7874015748031497,
                    "duration": 0.15625
                },
                {
                    "name": "D6",
                    "midi": 86,
                    "time": 422.1875,
                    "velocity": 0.7874015748031497,
                    "duration": 0.15625
                },
                {
                    "name": "A5",
                    "midi": 81,
                    "time": 422.34375,
                    "velocity": 0.7874015748031497,
                    "duration": 0.15625
                },
                {
                    "name": "B5",
                    "midi": 83,
                    "time": 422.34375,
                    "velocity": 0.7874015748031497,
                    "duration": 0.15625
                },
                {
                    "name": "C5",
                    "midi": 72,
                    "time": 422.5,
                    "velocity": 0.7559055118110236,
                    "duration": 0.15625
                },
                {
                    "name": "C6",
                    "midi": 84,
                    "time": 422.5,
                    "velocity": 0.7559055118110236,
                    "duration": 0.15625
                },
                {
                    "name": "A5",
                    "midi": 81,
                    "time": 422.65625,
                    "velocity": 0.7244094488188977,
                    "duration": 0.15625
                },
                {
                    "name": "B5",
                    "midi": 83,
                    "time": 422.65625,
                    "velocity": 0.7244094488188977,
                    "duration": 0.15625
                },
                {
                    "name": "C5",
                    "midi": 72,
                    "time": 422.8125,
                    "velocity": 0.7007874015748031,
                    "duration": 0.15625
                },
                {
                    "name": "C6",
                    "midi": 84,
                    "time": 422.8125,
                    "velocity": 0.7007874015748031,
                    "duration": 0.15625
                },
                {
                    "name": "C6",
                    "midi": 84,
                    "time": 422.96875,
                    "velocity": 0.6692913385826772,
                    "duration": 0.46875
                },
                {
                    "name": "E6",
                    "midi": 88,
                    "time": 422.96875,
                    "velocity": 0.6692913385826772,
                    "duration": 0.46875
                },
                {
                    "name": "E5",
                    "midi": 76,
                    "time": 422.96875,
                    "velocity": 0.6692913385826772,
                    "duration": 0.15625
                },
                {
                    "name": "A5",
                    "midi": 81,
                    "time": 423.125,
                    "velocity": 0.6456692913385826,
                    "duration": 0.15625
                },
                {
                    "name": "D5",
                    "midi": 74,
                    "time": 423.28125,
                    "velocity": 0.6141732283464567,
                    "duration": 0.15625
                },
                {
                    "name": "D6",
                    "midi": 86,
                    "time": 423.4375,
                    "velocity": 0.5905511811023622,
                    "duration": 0.15625
                },
                {
                    "name": "C6",
                    "midi": 84,
                    "time": 423.4375,
                    "velocity": 0.5905511811023622,
                    "duration": 0.15625
                },
                {
                    "name": "G#5",
                    "midi": 80,
                    "time": 423.59375,
                    "velocity": 0.5590551181102362,
                    "duration": 0.46875
                },
                {
                    "name": "C6",
                    "midi": 84,
                    "time": 423.59375,
                    "velocity": 0.5590551181102362,
                    "duration": 0.46875
                },
                {
                    "name": "C5",
                    "midi": 72,
                    "time": 423.59375,
                    "velocity": 0.5590551181102362,
                    "duration": 0.15625
                },
                {
                    "name": "F5",
                    "midi": 77,
                    "time": 423.75,
                    "velocity": 0.5354330708661418,
                    "duration": 0.15625
                },
                {
                    "name": "B4",
                    "midi": 71,
                    "time": 423.90625,
                    "velocity": 0.5039370078740157,
                    "duration": 0.15625
                },
                {
                    "name": "B5",
                    "midi": 83,
                    "time": 424.0625,
                    "velocity": 0.48031496062992124,
                    "duration": 0.15625
                },
                {
                    "name": "G#5",
                    "midi": 80,
                    "time": 424.0625,
                    "velocity": 0.48031496062992124,
                    "duration": 0.15625
                },
                {
                    "name": "F5",
                    "midi": 77,
                    "time": 424.21875,
                    "velocity": 0.44881889763779526,
                    "duration": 0.46875
                },
                {
                    "name": "G#5",
                    "midi": 80,
                    "time": 424.21875,
                    "velocity": 0.44881889763779526,
                    "duration": 0.46875
                },
                {
                    "name": "G#4",
                    "midi": 68,
                    "time": 424.21875,
                    "velocity": 0.44881889763779526,
                    "duration": 0.15625
                },
                {
                    "name": "D5",
                    "midi": 74,
                    "time": 424.375,
                    "velocity": 0.4251968503937008,
                    "duration": 0.15625
                },
                {
                    "name": "G4",
                    "midi": 67,
                    "time": 424.53125,
                    "velocity": 0.3937007874015748,
                    "duration": 0.15625
                },
                {
                    "name": "G5",
                    "midi": 79,
                    "time": 424.6875,
                    "velocity": 0.3700787401574803,
                    "duration": 0.15625
                },
                {
                    "name": "F5",
                    "midi": 77,
                    "time": 424.6875,
                    "velocity": 0.3700787401574803,
                    "duration": 0.15625
                },
                {
                    "name": "C5",
                    "midi": 72,
                    "time": 424.84375,
                    "velocity": 0.33858267716535434,
                    "duration": 0.15625
                },
                {
                    "name": "D#5",
                    "midi": 75,
                    "time": 424.84375,
                    "velocity": 0.33858267716535434,
                    "duration": 0.15625
                },
                {
                    "name": "E4",
                    "midi": 64,
                    "time": 425,
                    "velocity": 0.31496062992125984,
                    "duration": 0.15625
                },
                {
                    "name": "E5",
                    "midi": 76,
                    "time": 425,
                    "velocity": 0.31496062992125984,
                    "duration": 0.15625
                },
                {
                    "name": "C5",
                    "midi": 72,
                    "time": 425.15625,
                    "velocity": 0.3228346456692913,
                    "duration": 0.15625
                },
                {
                    "name": "D#5",
                    "midi": 75,
                    "time": 425.15625,
                    "velocity": 0.3228346456692913,
                    "duration": 0.15625
                },
                {
                    "name": "E4",
                    "midi": 64,
                    "time": 425.3125,
                    "velocity": 0.33070866141732286,
                    "duration": 0.15625
                },
                {
                    "name": "E5",
                    "midi": 76,
                    "time": 425.3125,
                    "velocity": 0.33070866141732286,
                    "duration": 0.15625
                },
                {
                    "name": "A4",
                    "midi": 69,
                    "time": 425.46875,
                    "velocity": 0.33858267716535434,
                    "duration": 0.15625
                },
                {
                    "name": "A5",
                    "midi": 81,
                    "time": 425.46875,
                    "velocity": 0.33858267716535434,
                    "duration": 0.15625
                },
                {
                    "name": "D5",
                    "midi": 74,
                    "time": 425.625,
                    "velocity": 0.3464566929133858,
                    "duration": 0.15625
                },
                {
                    "name": "G4",
                    "midi": 67,
                    "time": 425.78125,
                    "velocity": 0.3464566929133858,
                    "duration": 0.15625
                },
                {
                    "name": "G5",
                    "midi": 79,
                    "time": 425.9375,
                    "velocity": 0.3543307086614173,
                    "duration": 0.15625
                },
                {
                    "name": "C5",
                    "midi": 72,
                    "time": 426.09375,
                    "velocity": 0.36220472440944884,
                    "duration": 0.15625
                },
                {
                    "name": "D#5",
                    "midi": 75,
                    "time": 426.09375,
                    "velocity": 0.36220472440944884,
                    "duration": 0.15625
                },
                {
                    "name": "E4",
                    "midi": 64,
                    "time": 426.25,
                    "velocity": 0.3700787401574803,
                    "duration": 0.15625
                },
                {
                    "name": "E5",
                    "midi": 76,
                    "time": 426.25,
                    "velocity": 0.3700787401574803,
                    "duration": 0.15625
                },
                {
                    "name": "C5",
                    "midi": 72,
                    "time": 426.40625,
                    "velocity": 0.3779527559055118,
                    "duration": 0.15625
                },
                {
                    "name": "D#5",
                    "midi": 75,
                    "time": 426.40625,
                    "velocity": 0.3779527559055118,
                    "duration": 0.15625
                },
                {
                    "name": "E4",
                    "midi": 64,
                    "time": 426.5625,
                    "velocity": 0.3858267716535433,
                    "duration": 0.15625
                },
                {
                    "name": "E5",
                    "midi": 76,
                    "time": 426.5625,
                    "velocity": 0.3858267716535433,
                    "duration": 0.15625
                },
                {
                    "name": "A4",
                    "midi": 69,
                    "time": 426.71875,
                    "velocity": 0.3937007874015748,
                    "duration": 0.15625
                },
                {
                    "name": "A5",
                    "midi": 81,
                    "time": 426.71875,
                    "velocity": 0.3937007874015748,
                    "duration": 0.15625
                },
                {
                    "name": "D5",
                    "midi": 74,
                    "time": 426.875,
                    "velocity": 0.4015748031496063,
                    "duration": 0.15625
                },
                {
                    "name": "G4",
                    "midi": 67,
                    "time": 427.03125,
                    "velocity": 0.4094488188976378,
                    "duration": 0.15625
                },
                {
                    "name": "G5",
                    "midi": 79,
                    "time": 427.1875,
                    "velocity": 0.41732283464566927,
                    "duration": 0.15625
                },
                {
                    "name": "A#4",
                    "midi": 70,
                    "time": 427.34375,
                    "velocity": 0.41732283464566927,
                    "duration": 0.15625
                },
                {
                    "name": "A#5",
                    "midi": 82,
                    "time": 427.34375,
                    "velocity": 0.41732283464566927,
                    "duration": 0.15625
                },
                {
                    "name": "D5",
                    "midi": 74,
                    "time": 427.5,
                    "velocity": 0.4251968503937008,
                    "duration": 0.15625
                },
                {
                    "name": "A4",
                    "midi": 69,
                    "time": 427.65625,
                    "velocity": 0.4330708661417323,
                    "duration": 0.15625
                },
                {
                    "name": "A5",
                    "midi": 81,
                    "time": 427.8125,
                    "velocity": 0.4409448818897638,
                    "duration": 0.15625
                },
                {
                    "name": "G4",
                    "midi": 67,
                    "time": 427.96875,
                    "velocity": 0.44881889763779526,
                    "duration": 0.15625
                },
                {
                    "name": "G5",
                    "midi": 79,
                    "time": 427.96875,
                    "velocity": 0.44881889763779526,
                    "duration": 0.15625
                },
                {
                    "name": "D5",
                    "midi": 74,
                    "time": 428.125,
                    "velocity": 0.4566929133858268,
                    "duration": 0.15625
                },
                {
                    "name": "F4",
                    "midi": 65,
                    "time": 428.28125,
                    "velocity": 0.4645669291338583,
                    "duration": 0.15625
                },
                {
                    "name": "F5",
                    "midi": 77,
                    "time": 428.4375,
                    "velocity": 0.47244094488188976,
                    "duration": 0.15625
                },
                {
                    "name": "E4",
                    "midi": 64,
                    "time": 428.59375,
                    "velocity": 0.48031496062992124,
                    "duration": 0.15625
                },
                {
                    "name": "E5",
                    "midi": 76,
                    "time": 428.59375,
                    "velocity": 0.48031496062992124,
                    "duration": 0.15625
                },
                {
                    "name": "A#4",
                    "midi": 70,
                    "time": 428.75,
                    "velocity": 0.48031496062992124,
                    "duration": 0.15625
                },
                {
                    "name": "D4",
                    "midi": 62,
                    "time": 428.90625,
                    "velocity": 0.4881889763779528,
                    "duration": 0.15625
                },
                {
                    "name": "D5",
                    "midi": 74,
                    "time": 429.0625,
                    "velocity": 0.49606299212598426,
                    "duration": 0.15625
                },
                {
                    "name": "C#4",
                    "midi": 61,
                    "time": 429.21875,
                    "velocity": 0.5039370078740157,
                    "duration": 0.15625
                },
                {
                    "name": "C#5",
                    "midi": 73,
                    "time": 429.21875,
                    "velocity": 0.5039370078740157,
                    "duration": 0.15625
                },
                {
                    "name": "E4",
                    "midi": 64,
                    "time": 429.375,
                    "velocity": 0.5118110236220472,
                    "duration": 0.15625
                },
                {
                    "name": "D4",
                    "midi": 62,
                    "time": 429.53125,
                    "velocity": 0.5196850393700787,
                    "duration": 0.15625
                },
                {
                    "name": "D5",
                    "midi": 74,
                    "time": 429.6875,
                    "velocity": 0.5275590551181102,
                    "duration": 0.15625
                },
                {
                    "name": "G#4",
                    "midi": 68,
                    "time": 429.84375,
                    "velocity": 0.5354330708661418,
                    "duration": 0.15625
                },
                {
                    "name": "G#5",
                    "midi": 80,
                    "time": 429.84375,
                    "velocity": 0.5354330708661418,
                    "duration": 0.15625
                },
                {
                    "name": "C5",
                    "midi": 72,
                    "time": 430,
                    "velocity": 0.5433070866141733,
                    "duration": 0.15625
                },
                {
                    "name": "G4",
                    "midi": 67,
                    "time": 430.15625,
                    "velocity": 0.5433070866141733,
                    "duration": 0.15625
                },
                {
                    "name": "G5",
                    "midi": 79,
                    "time": 430.3125,
                    "velocity": 0.5511811023622047,
                    "duration": 0.15625
                },
                {
                    "name": "F4",
                    "midi": 65,
                    "time": 430.46875,
                    "velocity": 0.5590551181102362,
                    "duration": 0.15625
                },
                {
                    "name": "F5",
                    "midi": 77,
                    "time": 430.46875,
                    "velocity": 0.5590551181102362,
                    "duration": 0.15625
                },
                {
                    "name": "C5",
                    "midi": 72,
                    "time": 430.625,
                    "velocity": 0.5669291338582677,
                    "duration": 0.15625
                },
                {
                    "name": "D#4",
                    "midi": 63,
                    "time": 430.78125,
                    "velocity": 0.5748031496062992,
                    "duration": 0.15625
                },
                {
                    "name": "D#5",
                    "midi": 75,
                    "time": 430.9375,
                    "velocity": 0.5826771653543307,
                    "duration": 0.15625
                },
                {
                    "name": "D4",
                    "midi": 62,
                    "time": 431.09375,
                    "velocity": 0.5905511811023622,
                    "duration": 0.15625
                },
                {
                    "name": "D5",
                    "midi": 74,
                    "time": 431.09375,
                    "velocity": 0.5905511811023622,
                    "duration": 0.15625
                },
                {
                    "name": "G#4",
                    "midi": 68,
                    "time": 431.25,
                    "velocity": 0.5984251968503937,
                    "duration": 0.15625
                },
                {
                    "name": "C4",
                    "midi": 60,
                    "time": 431.40625,
                    "velocity": 0.6062992125984252,
                    "duration": 0.15625
                },
                {
                    "name": "C5",
                    "midi": 72,
                    "time": 431.5625,
                    "velocity": 0.6141732283464567,
                    "duration": 0.15625
                },
                {
                    "name": "B3",
                    "midi": 59,
                    "time": 431.71875,
                    "velocity": 0.6141732283464567,
                    "duration": 0.15625
                },
                {
                    "name": "B4",
                    "midi": 71,
                    "time": 431.71875,
                    "velocity": 0.6141732283464567,
                    "duration": 0.15625
                },
                {
                    "name": "D4",
                    "midi": 62,
                    "time": 431.875,
                    "velocity": 0.6220472440944882,
                    "duration": 0.15625
                },
                {
                    "name": "C4",
                    "midi": 60,
                    "time": 432.03125,
                    "velocity": 0.6299212598425197,
                    "duration": 0.15625
                },
                {
                    "name": "C5",
                    "midi": 72,
                    "time": 432.1875,
                    "velocity": 0.6377952755905512,
                    "duration": 0.15625
                },
                {
                    "name": "E4",
                    "midi": 64,
                    "time": 432.34375,
                    "velocity": 0.6456692913385826,
                    "duration": 0.15625
                },
                {
                    "name": "E5",
                    "midi": 76,
                    "time": 432.34375,
                    "velocity": 0.6456692913385826,
                    "duration": 0.15625
                },
                {
                    "name": "A4",
                    "midi": 69,
                    "time": 432.5,
                    "velocity": 0.6535433070866141,
                    "duration": 0.15625
                },
                {
                    "name": "D4",
                    "midi": 62,
                    "time": 432.65625,
                    "velocity": 0.6614173228346457,
                    "duration": 0.15625
                },
                {
                    "name": "D5",
                    "midi": 74,
                    "time": 432.8125,
                    "velocity": 0.6692913385826772,
                    "duration": 0.15625
                },
                {
                    "name": "E4",
                    "midi": 64,
                    "time": 432.96875,
                    "velocity": 0.6771653543307087,
                    "duration": 0.15625
                },
                {
                    "name": "E5",
                    "midi": 76,
                    "time": 432.96875,
                    "velocity": 0.6771653543307087,
                    "duration": 0.15625
                },
                {
                    "name": "A4",
                    "midi": 69,
                    "time": 433.125,
                    "velocity": 0.6771653543307087,
                    "duration": 0.15625
                },
                {
                    "name": "D4",
                    "midi": 62,
                    "time": 433.28125,
                    "velocity": 0.6850393700787402,
                    "duration": 0.15625
                },
                {
                    "name": "D5",
                    "midi": 74,
                    "time": 433.4375,
                    "velocity": 0.6929133858267716,
                    "duration": 0.15625
                },
                {
                    "name": "E4",
                    "midi": 64,
                    "time": 433.59375,
                    "velocity": 0.7007874015748031,
                    "duration": 0.15625
                },
                {
                    "name": "E5",
                    "midi": 76,
                    "time": 433.59375,
                    "velocity": 0.7007874015748031,
                    "duration": 0.15625
                },
                {
                    "name": "A4",
                    "midi": 69,
                    "time": 433.75,
                    "velocity": 0.7086614173228346,
                    "duration": 0.15625
                },
                {
                    "name": "D4",
                    "midi": 62,
                    "time": 433.90625,
                    "velocity": 0.7165354330708661,
                    "duration": 0.15625
                },
                {
                    "name": "D5",
                    "midi": 74,
                    "time": 434.0625,
                    "velocity": 0.7322834645669292,
                    "duration": 0.15625
                },
                {
                    "name": "E4",
                    "midi": 64,
                    "time": 434.21875,
                    "velocity": 0.7401574803149606,
                    "duration": 0.15625
                },
                {
                    "name": "E5",
                    "midi": 76,
                    "time": 434.21875,
                    "velocity": 0.7401574803149606,
                    "duration": 0.15625
                },
                {
                    "name": "A4",
                    "midi": 69,
                    "time": 434.375,
                    "velocity": 0.7480314960629921,
                    "duration": 0.15625
                },
                {
                    "name": "D4",
                    "midi": 62,
                    "time": 434.53125,
                    "velocity": 0.7559055118110236,
                    "duration": 0.15625
                },
                {
                    "name": "D5",
                    "midi": 74,
                    "time": 434.6875,
                    "velocity": 0.7716535433070866,
                    "duration": 0.15625
                },
                {
                    "name": "E5",
                    "midi": 76,
                    "time": 434.84375,
                    "velocity": 0.7795275590551181,
                    "duration": 0.46875
                },
                {
                    "name": "E4",
                    "midi": 64,
                    "time": 434.84375,
                    "velocity": 0.7795275590551181,
                    "duration": 0.3125
                },
                {
                    "name": "A4",
                    "midi": 69,
                    "time": 435,
                    "velocity": 0.7874015748031497,
                    "duration": 0.625
                },
                {
                    "name": "D4",
                    "midi": 62,
                    "time": 435.15625,
                    "velocity": 0.7952755905511811,
                    "duration": 0.3125
                },
                {
                    "name": "D5",
                    "midi": 74,
                    "time": 435.3125,
                    "velocity": 0.8110236220472441,
                    "duration": 0.15625
                },
                {
                    "name": "E5",
                    "midi": 76,
                    "time": 435.46875,
                    "velocity": 0.8188976377952756,
                    "duration": 0.46875
                },
                {
                    "name": "E4",
                    "midi": 64,
                    "time": 435.46875,
                    "velocity": 0.8188976377952756,
                    "duration": 0.3125
                },
                {
                    "name": "A4",
                    "midi": 69,
                    "time": 435.625,
                    "velocity": 0.8267716535433071,
                    "duration": 0.625
                },
                {
                    "name": "D4",
                    "midi": 62,
                    "time": 435.78125,
                    "velocity": 0.8346456692913385,
                    "duration": 0.3125
                },
                {
                    "name": "D5",
                    "midi": 74,
                    "time": 435.9375,
                    "velocity": 0.8503937007874016,
                    "duration": 0.15625
                },
                {
                    "name": "E5",
                    "midi": 76,
                    "time": 436.09375,
                    "velocity": 0.8582677165354331,
                    "duration": 0.46875
                },
                {
                    "name": "E4",
                    "midi": 64,
                    "time": 436.09375,
                    "velocity": 0.8582677165354331,
                    "duration": 0.3125
                },
                {
                    "name": "A4",
                    "midi": 69,
                    "time": 436.25,
                    "velocity": 0.8661417322834646,
                    "duration": 0.625
                },
                {
                    "name": "D4",
                    "midi": 62,
                    "time": 436.40625,
                    "velocity": 0.8740157480314961,
                    "duration": 0.3125
                },
                {
                    "name": "D5",
                    "midi": 74,
                    "time": 436.5625,
                    "velocity": 0.889763779527559,
                    "duration": 0.15625
                },
                {
                    "name": "E5",
                    "midi": 76,
                    "time": 436.71875,
                    "velocity": 0.8976377952755905,
                    "duration": 0.46875
                },
                {
                    "name": "E4",
                    "midi": 64,
                    "time": 436.71875,
                    "velocity": 0.8976377952755905,
                    "duration": 0.3125
                },
                {
                    "name": "A4",
                    "midi": 69,
                    "time": 436.875,
                    "velocity": 0.905511811023622,
                    "duration": 0.625
                },
                {
                    "name": "D4",
                    "midi": 62,
                    "time": 437.03125,
                    "velocity": 0.9133858267716536,
                    "duration": 0.3125
                },
                {
                    "name": "D5",
                    "midi": 74,
                    "time": 437.1875,
                    "velocity": 0.9291338582677166,
                    "duration": 0.15625
                },
                {
                    "name": "E5",
                    "midi": 76,
                    "time": 437.34375,
                    "velocity": 0.937007874015748,
                    "duration": 0.46875
                },
                {
                    "name": "E4",
                    "midi": 64,
                    "time": 437.34375,
                    "velocity": 0.937007874015748,
                    "duration": 0.3125
                },
                {
                    "name": "A4",
                    "midi": 69,
                    "time": 437.5,
                    "velocity": 0.9448818897637795,
                    "duration": 0.625
                },
                {
                    "name": "D4",
                    "midi": 62,
                    "time": 437.65625,
                    "velocity": 0.952755905511811,
                    "duration": 0.3125
                },
                {
                    "name": "D5",
                    "midi": 74,
                    "time": 437.8125,
                    "velocity": 0.968503937007874,
                    "duration": 0.15625
                },
                {
                    "name": "A5",
                    "midi": 81,
                    "time": 437.96875,
                    "velocity": 0.9763779527559056,
                    "duration": 0.46875
                },
                {
                    "name": "A4",
                    "midi": 69,
                    "time": 437.96875,
                    "velocity": 0.9763779527559056,
                    "duration": 0.3125
                },
                {
                    "name": "D5",
                    "midi": 74,
                    "time": 438.125,
                    "velocity": 0.984251968503937,
                    "duration": 0.625
                },
                {
                    "name": "G4",
                    "midi": 67,
                    "time": 438.28125,
                    "velocity": 0.9921259842519685,
                    "duration": 0.3125
                },
                {
                    "name": "G5",
                    "midi": 79,
                    "time": 438.4375,
                    "velocity": 1,
                    "duration": 0.15625
                },
                {
                    "name": "D6",
                    "midi": 86,
                    "time": 438.59375,
                    "velocity": 1,
                    "duration": 0.46875
                },
                {
                    "name": "D5",
                    "midi": 74,
                    "time": 438.59375,
                    "velocity": 1,
                    "duration": 0.3125
                },
                {
                    "name": "G5",
                    "midi": 79,
                    "time": 438.75,
                    "velocity": 1,
                    "duration": 0.625
                },
                {
                    "name": "C5",
                    "midi": 72,
                    "time": 438.90625,
                    "velocity": 1,
                    "duration": 0.3125
                },
                {
                    "name": "C6",
                    "midi": 84,
                    "time": 439.0625,
                    "velocity": 1,
                    "duration": 0.15625
                },
                {
                    "name": "G6",
                    "midi": 91,
                    "time": 439.21875,
                    "velocity": 1,
                    "duration": 0.46875
                },
                {
                    "name": "G5",
                    "midi": 79,
                    "time": 439.21875,
                    "velocity": 1,
                    "duration": 0.3125
                },
                {
                    "name": "C6",
                    "midi": 84,
                    "time": 439.375,
                    "velocity": 1,
                    "duration": 0.625
                },
                {
                    "name": "F5",
                    "midi": 77,
                    "time": 439.53125,
                    "velocity": 1,
                    "duration": 0.3125
                },
                {
                    "name": "F6",
                    "midi": 89,
                    "time": 439.6875,
                    "velocity": 1,
                    "duration": 0.15625
                },
                {
                    "name": "C7",
                    "midi": 96,
                    "time": 439.84375,
                    "velocity": 1,
                    "duration": 0.46875
                },
                {
                    "name": "C6",
                    "midi": 84,
                    "time": 439.84375,
                    "velocity": 1,
                    "duration": 0.3125
                },
                {
                    "name": "F6",
                    "midi": 89,
                    "time": 440,
                    "velocity": 1,
                    "duration": 0.625
                },
                {
                    "name": "B5",
                    "midi": 83,
                    "time": 440.15625,
                    "velocity": 1,
                    "duration": 0.3125
                },
                {
                    "name": "B6",
                    "midi": 95,
                    "time": 440.3125,
                    "velocity": 1,
                    "duration": 0.15625
                },
                {
                    "name": "F7",
                    "midi": 101,
                    "time": 440.46875,
                    "velocity": 1,
                    "duration": 0.46875
                },
                {
                    "name": "F6",
                    "midi": 89,
                    "time": 440.46875,
                    "velocity": 1,
                    "duration": 0.3125
                },
                {
                    "name": "B6",
                    "midi": 95,
                    "time": 440.625,
                    "velocity": 1,
                    "duration": 0.625
                },
                {
                    "name": "E6",
                    "midi": 88,
                    "time": 440.78125,
                    "velocity": 1,
                    "duration": 0.3125
                },
                {
                    "name": "E7",
                    "midi": 100,
                    "time": 440.9375,
                    "velocity": 1,
                    "duration": 0.235595703125
                },
                {
                    "name": "E6",
                    "midi": 88,
                    "time": 441.09375,
                    "velocity": 1,
                    "duration": 0.3125
                },
                {
                    "name": "A6",
                    "midi": 93,
                    "time": 441.09375,
                    "velocity": 1,
                    "duration": 0.3125
                },
                {
                    "name": "C7",
                    "midi": 96,
                    "time": 441.09375,
                    "velocity": 1,
                    "duration": 0.3125
                },
                {
                    "name": "E7",
                    "midi": 100,
                    "time": 441.09375,
                    "velocity": 1,
                    "duration": 0.3125
                },
                {
                    "name": "D6",
                    "midi": 86,
                    "time": 441.40625,
                    "velocity": 1,
                    "duration": 0.3125
                },
                {
                    "name": "E6",
                    "midi": 88,
                    "time": 441.40625,
                    "velocity": 1,
                    "duration": 0.3125
                },
                {
                    "name": "G#6",
                    "midi": 92,
                    "time": 441.40625,
                    "velocity": 1,
                    "duration": 0.3125
                },
                {
                    "name": "B6",
                    "midi": 95,
                    "time": 441.40625,
                    "velocity": 1,
                    "duration": 0.3125
                },
                {
                    "name": "D7",
                    "midi": 98,
                    "time": 441.40625,
                    "velocity": 1,
                    "duration": 0.3125
                },
                {
                    "name": "C6",
                    "midi": 84,
                    "time": 441.71875,
                    "velocity": 1,
                    "duration": 0.3125
                },
                {
                    "name": "E6",
                    "midi": 88,
                    "time": 441.71875,
                    "velocity": 1,
                    "duration": 0.3125
                },
                {
                    "name": "A6",
                    "midi": 93,
                    "time": 441.71875,
                    "velocity": 1,
                    "duration": 0.3125
                },
                {
                    "name": "C7",
                    "midi": 96,
                    "time": 441.71875,
                    "velocity": 1,
                    "duration": 0.3125
                },
                {
                    "name": "A#5",
                    "midi": 82,
                    "time": 442.03125,
                    "velocity": 1,
                    "duration": 0.3125
                },
                {
                    "name": "C6",
                    "midi": 84,
                    "time": 442.03125,
                    "velocity": 1,
                    "duration": 0.3125
                },
                {
                    "name": "E6",
                    "midi": 88,
                    "time": 442.03125,
                    "velocity": 1,
                    "duration": 0.3125
                },
                {
                    "name": "G6",
                    "midi": 91,
                    "time": 442.03125,
                    "velocity": 1,
                    "duration": 0.3125
                },
                {
                    "name": "A#6",
                    "midi": 94,
                    "time": 442.03125,
                    "velocity": 1,
                    "duration": 0.3125
                },
                {
                    "name": "A5",
                    "midi": 81,
                    "time": 442.34375,
                    "velocity": 1,
                    "duration": 0.3125
                },
                {
                    "name": "C6",
                    "midi": 84,
                    "time": 442.34375,
                    "velocity": 1,
                    "duration": 0.3125
                },
                {
                    "name": "F6",
                    "midi": 89,
                    "time": 442.34375,
                    "velocity": 1,
                    "duration": 0.3125
                },
                {
                    "name": "A6",
                    "midi": 93,
                    "time": 442.34375,
                    "velocity": 1,
                    "duration": 0.3125
                },
                {
                    "name": "G5",
                    "midi": 79,
                    "time": 442.65625,
                    "velocity": 1,
                    "duration": 0.3125
                },
                {
                    "name": "A5",
                    "midi": 81,
                    "time": 442.65625,
                    "velocity": 1,
                    "duration": 0.3125
                },
                {
                    "name": "C#6",
                    "midi": 85,
                    "time": 442.65625,
                    "velocity": 1,
                    "duration": 0.3125
                },
                {
                    "name": "E6",
                    "midi": 88,
                    "time": 442.65625,
                    "velocity": 1,
                    "duration": 0.3125
                },
                {
                    "name": "G6",
                    "midi": 91,
                    "time": 442.65625,
                    "velocity": 1,
                    "duration": 0.3125
                },
                {
                    "name": "F#5",
                    "midi": 78,
                    "time": 442.96875,
                    "velocity": 1,
                    "duration": 0.3125
                },
                {
                    "name": "A5",
                    "midi": 81,
                    "time": 442.96875,
                    "velocity": 1,
                    "duration": 0.3125
                },
                {
                    "name": "C6",
                    "midi": 84,
                    "time": 442.96875,
                    "velocity": 1,
                    "duration": 0.3125
                },
                {
                    "name": "D6",
                    "midi": 86,
                    "time": 442.96875,
                    "velocity": 1,
                    "duration": 0.3125
                },
                {
                    "name": "F#6",
                    "midi": 90,
                    "time": 442.96875,
                    "velocity": 1,
                    "duration": 0.3125
                },
                {
                    "name": "F5",
                    "midi": 77,
                    "time": 443.28125,
                    "velocity": 1,
                    "duration": 0.3125
                },
                {
                    "name": "G5",
                    "midi": 79,
                    "time": 443.28125,
                    "velocity": 1,
                    "duration": 0.3125
                },
                {
                    "name": "B5",
                    "midi": 83,
                    "time": 443.28125,
                    "velocity": 1,
                    "duration": 0.3125
                },
                {
                    "name": "D6",
                    "midi": 86,
                    "time": 443.28125,
                    "velocity": 1,
                    "duration": 0.3125
                },
                {
                    "name": "F6",
                    "midi": 89,
                    "time": 443.28125,
                    "velocity": 1,
                    "duration": 0.3125
                },
                {
                    "name": "E5",
                    "midi": 76,
                    "time": 443.59375,
                    "velocity": 1,
                    "duration": 0.3125
                },
                {
                    "name": "G5",
                    "midi": 79,
                    "time": 443.59375,
                    "velocity": 1,
                    "duration": 0.3125
                },
                {
                    "name": "C6",
                    "midi": 84,
                    "time": 443.59375,
                    "velocity": 1,
                    "duration": 0.3125
                },
                {
                    "name": "E6",
                    "midi": 88,
                    "time": 443.59375,
                    "velocity": 1,
                    "duration": 0.3125
                },
                {
                    "name": "D5",
                    "midi": 74,
                    "time": 443.90625,
                    "velocity": 1,
                    "duration": 0.3125
                },
                {
                    "name": "E5",
                    "midi": 76,
                    "time": 443.90625,
                    "velocity": 1,
                    "duration": 0.3125
                },
                {
                    "name": "G#5",
                    "midi": 80,
                    "time": 443.90625,
                    "velocity": 1,
                    "duration": 0.3125
                },
                {
                    "name": "B5",
                    "midi": 83,
                    "time": 443.90625,
                    "velocity": 1,
                    "duration": 0.3125
                },
                {
                    "name": "D6",
                    "midi": 86,
                    "time": 443.90625,
                    "velocity": 1,
                    "duration": 0.3125
                },
                {
                    "name": "C5",
                    "midi": 72,
                    "time": 444.21875,
                    "velocity": 1,
                    "duration": 0.3125
                },
                {
                    "name": "E5",
                    "midi": 76,
                    "time": 444.21875,
                    "velocity": 1,
                    "duration": 0.3125
                },
                {
                    "name": "A5",
                    "midi": 81,
                    "time": 444.21875,
                    "velocity": 1,
                    "duration": 0.3125
                },
                {
                    "name": "C6",
                    "midi": 84,
                    "time": 444.21875,
                    "velocity": 1,
                    "duration": 0.3125
                },
                {
                    "name": "A#4",
                    "midi": 70,
                    "time": 444.53125,
                    "velocity": 1,
                    "duration": 0.3125
                },
                {
                    "name": "C5",
                    "midi": 72,
                    "time": 444.53125,
                    "velocity": 1,
                    "duration": 0.3125
                },
                {
                    "name": "E5",
                    "midi": 76,
                    "time": 444.53125,
                    "velocity": 1,
                    "duration": 0.3125
                },
                {
                    "name": "G5",
                    "midi": 79,
                    "time": 444.53125,
                    "velocity": 1,
                    "duration": 0.3125
                },
                {
                    "name": "A#5",
                    "midi": 82,
                    "time": 444.53125,
                    "velocity": 1,
                    "duration": 0.3125
                },
                {
                    "name": "A4",
                    "midi": 69,
                    "time": 444.84375,
                    "velocity": 1,
                    "duration": 0.3125
                },
                {
                    "name": "C5",
                    "midi": 72,
                    "time": 444.84375,
                    "velocity": 1,
                    "duration": 0.3125
                },
                {
                    "name": "F5",
                    "midi": 77,
                    "time": 444.84375,
                    "velocity": 1,
                    "duration": 0.3125
                },
                {
                    "name": "A5",
                    "midi": 81,
                    "time": 444.84375,
                    "velocity": 1,
                    "duration": 0.3125
                },
                {
                    "name": "G4",
                    "midi": 67,
                    "time": 445.15625,
                    "velocity": 0.9606299212598425,
                    "duration": 0.3125
                },
                {
                    "name": "A4",
                    "midi": 69,
                    "time": 445.15625,
                    "velocity": 0.9606299212598425,
                    "duration": 0.3125
                },
                {
                    "name": "C#5",
                    "midi": 73,
                    "time": 445.15625,
                    "velocity": 0.9606299212598425,
                    "duration": 0.3125
                },
                {
                    "name": "E5",
                    "midi": 76,
                    "time": 445.15625,
                    "velocity": 0.9606299212598425,
                    "duration": 0.3125
                },
                {
                    "name": "G5",
                    "midi": 79,
                    "time": 445.15625,
                    "velocity": 0.9606299212598425,
                    "duration": 0.3125
                },
                {
                    "name": "F#4",
                    "midi": 66,
                    "time": 445.46875,
                    "velocity": 0.9133858267716536,
                    "duration": 0.3125
                },
                {
                    "name": "A4",
                    "midi": 69,
                    "time": 445.46875,
                    "velocity": 0.9133858267716536,
                    "duration": 0.3125
                },
                {
                    "name": "C5",
                    "midi": 72,
                    "time": 445.46875,
                    "velocity": 0.9133858267716536,
                    "duration": 0.3125
                },
                {
                    "name": "D5",
                    "midi": 74,
                    "time": 445.46875,
                    "velocity": 0.9133858267716536,
                    "duration": 0.3125
                },
                {
                    "name": "F#5",
                    "midi": 78,
                    "time": 445.46875,
                    "velocity": 0.9133858267716536,
                    "duration": 0.3125
                },
                {
                    "name": "F4",
                    "midi": 65,
                    "time": 445.78125,
                    "velocity": 0.8582677165354331,
                    "duration": 0.3125
                },
                {
                    "name": "G4",
                    "midi": 67,
                    "time": 445.78125,
                    "velocity": 0.8582677165354331,
                    "duration": 0.3125
                },
                {
                    "name": "B4",
                    "midi": 71,
                    "time": 445.78125,
                    "velocity": 0.8582677165354331,
                    "duration": 0.3125
                },
                {
                    "name": "D5",
                    "midi": 74,
                    "time": 445.78125,
                    "velocity": 0.8582677165354331,
                    "duration": 0.3125
                },
                {
                    "name": "F5",
                    "midi": 77,
                    "time": 445.78125,
                    "velocity": 0.8582677165354331,
                    "duration": 0.3125
                },
                {
                    "name": "A5",
                    "midi": 81,
                    "time": 446.09375,
                    "velocity": 0.8110236220472441,
                    "duration": 0.46875
                },
                {
                    "name": "A4",
                    "midi": 69,
                    "time": 446.09375,
                    "velocity": 0.5039370078740157,
                    "duration": 0.3125
                },
                {
                    "name": "E5",
                    "midi": 76,
                    "time": 446.25,
                    "velocity": 0.31496062992125984,
                    "duration": 0.625
                },
                {
                    "name": "G4",
                    "midi": 67,
                    "time": 446.40625,
                    "velocity": 0.31496062992125984,
                    "duration": 0.3125
                },
                {
                    "name": "G5",
                    "midi": 79,
                    "time": 446.5625,
                    "velocity": 0.3937007874015748,
                    "duration": 0.15625
                },
                {
                    "name": "A5",
                    "midi": 81,
                    "time": 446.71875,
                    "velocity": 0.3937007874015748,
                    "duration": 0.46875
                },
                {
                    "name": "A4",
                    "midi": 69,
                    "time": 446.71875,
                    "velocity": 0.31496062992125984,
                    "duration": 0.3125
                },
                {
                    "name": "E5",
                    "midi": 76,
                    "time": 446.875,
                    "velocity": 0.31496062992125984,
                    "duration": 0.625
                },
                {
                    "name": "G4",
                    "midi": 67,
                    "time": 447.03125,
                    "velocity": 0.31496062992125984,
                    "duration": 0.3125
                },
                {
                    "name": "G5",
                    "midi": 79,
                    "time": 447.1875,
                    "velocity": 0.3937007874015748,
                    "duration": 0.15625
                },
                {
                    "name": "A5",
                    "midi": 81,
                    "time": 447.34375,
                    "velocity": 0.3937007874015748,
                    "duration": 0.46875
                },
                {
                    "name": "A4",
                    "midi": 69,
                    "time": 447.34375,
                    "velocity": 0.31496062992125984,
                    "duration": 0.3125
                },
                {
                    "name": "E5",
                    "midi": 76,
                    "time": 447.5,
                    "velocity": 0.31496062992125984,
                    "duration": 0.625
                },
                {
                    "name": "G4",
                    "midi": 67,
                    "time": 447.65625,
                    "velocity": 0.31496062992125984,
                    "duration": 0.3125
                },
                {
                    "name": "G5",
                    "midi": 79,
                    "time": 447.8125,
                    "velocity": 0.3937007874015748,
                    "duration": 0.15625
                },
                {
                    "name": "A5",
                    "midi": 81,
                    "time": 447.96875,
                    "velocity": 0.3937007874015748,
                    "duration": 0.46875
                },
                {
                    "name": "A4",
                    "midi": 69,
                    "time": 447.96875,
                    "velocity": 0.31496062992125984,
                    "duration": 0.3125
                },
                {
                    "name": "E5",
                    "midi": 76,
                    "time": 448.125,
                    "velocity": 0.31496062992125984,
                    "duration": 0.625
                },
                {
                    "name": "G4",
                    "midi": 67,
                    "time": 448.28125,
                    "velocity": 0.31496062992125984,
                    "duration": 0.3125
                },
                {
                    "name": "G5",
                    "midi": 79,
                    "time": 448.4375,
                    "velocity": 0.3937007874015748,
                    "duration": 0.15625
                },
                {
                    "name": "A5",
                    "midi": 81,
                    "time": 448.59375,
                    "velocity": 0.3937007874015748,
                    "duration": 0.46875
                },
                {
                    "name": "A4",
                    "midi": 69,
                    "time": 448.59375,
                    "velocity": 0.31496062992125984,
                    "duration": 0.3125
                },
                {
                    "name": "E5",
                    "midi": 76,
                    "time": 448.75,
                    "velocity": 0.31496062992125984,
                    "duration": 0.625
                },
                {
                    "name": "G4",
                    "midi": 67,
                    "time": 448.90625,
                    "velocity": 0.31496062992125984,
                    "duration": 0.3125
                },
                {
                    "name": "G5",
                    "midi": 79,
                    "time": 449.0625,
                    "velocity": 0.3937007874015748,
                    "duration": 0.15625
                },
                {
                    "name": "A5",
                    "midi": 81,
                    "time": 449.21875,
                    "velocity": 0.3937007874015748,
                    "duration": 0.46875
                },
                {
                    "name": "A4",
                    "midi": 69,
                    "time": 449.21875,
                    "velocity": 0.31496062992125984,
                    "duration": 0.3125
                },
                {
                    "name": "E5",
                    "midi": 76,
                    "time": 449.375,
                    "velocity": 0.31496062992125984,
                    "duration": 0.625
                },
                {
                    "name": "G4",
                    "midi": 67,
                    "time": 449.53125,
                    "velocity": 0.31496062992125984,
                    "duration": 0.3125
                },
                {
                    "name": "G5",
                    "midi": 79,
                    "time": 449.6875,
                    "velocity": 0.3937007874015748,
                    "duration": 0.15625
                },
                {
                    "name": "G5",
                    "midi": 79,
                    "time": 449.84375,
                    "velocity": 0.3937007874015748,
                    "duration": 0.46875
                },
                {
                    "name": "G4",
                    "midi": 67,
                    "time": 449.84375,
                    "velocity": 0.31496062992125984,
                    "duration": 0.3125
                },
                {
                    "name": "C5",
                    "midi": 72,
                    "time": 450,
                    "velocity": 0.31496062992125984,
                    "duration": 0.625
                },
                {
                    "name": "F4",
                    "midi": 65,
                    "time": 450.15625,
                    "velocity": 0.31496062992125984,
                    "duration": 0.3125
                },
                {
                    "name": "F5",
                    "midi": 77,
                    "time": 450.3125,
                    "velocity": 0.3937007874015748,
                    "duration": 0.15625
                },
                {
                    "name": "G5",
                    "midi": 79,
                    "time": 450.46875,
                    "velocity": 0.3937007874015748,
                    "duration": 0.46875
                },
                {
                    "name": "G4",
                    "midi": 67,
                    "time": 450.46875,
                    "velocity": 0.31496062992125984,
                    "duration": 0.3125
                },
                {
                    "name": "C5",
                    "midi": 72,
                    "time": 450.625,
                    "velocity": 0.31496062992125984,
                    "duration": 0.625
                },
                {
                    "name": "F4",
                    "midi": 65,
                    "time": 450.78125,
                    "velocity": 0.31496062992125984,
                    "duration": 0.3125
                },
                {
                    "name": "F5",
                    "midi": 77,
                    "time": 450.9375,
                    "velocity": 0.3937007874015748,
                    "duration": 0.15625
                },
                {
                    "name": "G5",
                    "midi": 79,
                    "time": 451.09375,
                    "velocity": 0.3937007874015748,
                    "duration": 0.46875
                },
                {
                    "name": "G4",
                    "midi": 67,
                    "time": 451.09375,
                    "velocity": 0.31496062992125984,
                    "duration": 0.3125
                },
                {
                    "name": "C5",
                    "midi": 72,
                    "time": 451.25,
                    "velocity": 0.31496062992125984,
                    "duration": 0.625
                },
                {
                    "name": "F4",
                    "midi": 65,
                    "time": 451.40625,
                    "velocity": 0.31496062992125984,
                    "duration": 0.3125
                },
                {
                    "name": "F5",
                    "midi": 77,
                    "time": 451.5625,
                    "velocity": 0.3937007874015748,
                    "duration": 0.15625
                },
                {
                    "name": "G5",
                    "midi": 79,
                    "time": 451.71875,
                    "velocity": 0.3937007874015748,
                    "duration": 0.46875
                },
                {
                    "name": "G4",
                    "midi": 67,
                    "time": 451.71875,
                    "velocity": 0.31496062992125984,
                    "duration": 0.3125
                },
                {
                    "name": "C5",
                    "midi": 72,
                    "time": 451.875,
                    "velocity": 0.31496062992125984,
                    "duration": 0.625
                },
                {
                    "name": "F4",
                    "midi": 65,
                    "time": 452.03125,
                    "velocity": 0.31496062992125984,
                    "duration": 0.3125
                },
                {
                    "name": "F5",
                    "midi": 77,
                    "time": 452.1875,
                    "velocity": 0.3937007874015748,
                    "duration": 0.15625
                },
                {
                    "name": "E5",
                    "midi": 76,
                    "time": 452.34375,
                    "velocity": 0.3937007874015748,
                    "duration": 0.46875
                },
                {
                    "name": "E4",
                    "midi": 64,
                    "time": 452.34375,
                    "velocity": 0.31496062992125984,
                    "duration": 0.3125
                },
                {
                    "name": "A4",
                    "midi": 69,
                    "time": 452.5,
                    "velocity": 0.31496062992125984,
                    "duration": 0.625
                },
                {
                    "name": "D4",
                    "midi": 62,
                    "time": 452.65625,
                    "velocity": 0.31496062992125984,
                    "duration": 0.3125
                },
                {
                    "name": "D5",
                    "midi": 74,
                    "time": 452.8125,
                    "velocity": 0.3937007874015748,
                    "duration": 0.15625
                },
                {
                    "name": "E5",
                    "midi": 76,
                    "time": 452.96875,
                    "velocity": 0.3937007874015748,
                    "duration": 0.46875
                },
                {
                    "name": "E4",
                    "midi": 64,
                    "time": 452.96875,
                    "velocity": 0.31496062992125984,
                    "duration": 0.3125
                },
                {
                    "name": "A4",
                    "midi": 69,
                    "time": 453.125,
                    "velocity": 0.31496062992125984,
                    "duration": 0.625
                },
                {
                    "name": "D4",
                    "midi": 62,
                    "time": 453.28125,
                    "velocity": 0.31496062992125984,
                    "duration": 0.3125
                },
                {
                    "name": "D5",
                    "midi": 74,
                    "time": 453.4375,
                    "velocity": 0.3937007874015748,
                    "duration": 0.15625
                },
                {
                    "name": "E5",
                    "midi": 76,
                    "time": 453.59375,
                    "velocity": 0.3937007874015748,
                    "duration": 0.46875
                },
                {
                    "name": "E4",
                    "midi": 64,
                    "time": 453.59375,
                    "velocity": 0.31496062992125984,
                    "duration": 0.3125
                },
                {
                    "name": "G#4",
                    "midi": 68,
                    "time": 453.75,
                    "velocity": 0.31496062992125984,
                    "duration": 0.625
                },
                {
                    "name": "D4",
                    "midi": 62,
                    "time": 453.90625,
                    "velocity": 0.31496062992125984,
                    "duration": 0.3125
                },
                {
                    "name": "D5",
                    "midi": 74,
                    "time": 454.0625,
                    "velocity": 0.3937007874015748,
                    "duration": 0.15625
                },
                {
                    "name": "C5",
                    "midi": 72,
                    "time": 454.21875,
                    "velocity": 0.3937007874015748,
                    "duration": 0.46875
                },
                {
                    "name": "C4",
                    "midi": 60,
                    "time": 454.21875,
                    "velocity": 0.31496062992125984,
                    "duration": 0.3125
                },
                {
                    "name": "F4",
                    "midi": 65,
                    "time": 454.375,
                    "velocity": 0.31496062992125984,
                    "duration": 0.625
                },
                {
                    "name": "B3",
                    "midi": 59,
                    "time": 454.53125,
                    "velocity": 0.31496062992125984,
                    "duration": 0.3125
                },
                {
                    "name": "B4",
                    "midi": 71,
                    "time": 454.6875,
                    "velocity": 0.3937007874015748,
                    "duration": 0.15625
                },
                {
                    "name": "D5",
                    "midi": 74,
                    "time": 454.84375,
                    "velocity": 0.3937007874015748,
                    "duration": 0.46875
                },
                {
                    "name": "D4",
                    "midi": 62,
                    "time": 454.84375,
                    "velocity": 0.31496062992125984,
                    "duration": 0.3125
                },
                {
                    "name": "G4",
                    "midi": 67,
                    "time": 455,
                    "velocity": 0.31496062992125984,
                    "duration": 0.625
                },
                {
                    "name": "C4",
                    "midi": 60,
                    "time": 455.15625,
                    "velocity": 0.31496062992125984,
                    "duration": 0.3125
                },
                {
                    "name": "C5",
                    "midi": 72,
                    "time": 455.3125,
                    "velocity": 0.3937007874015748,
                    "duration": 0.15625
                },
                {
                    "name": "B4",
                    "midi": 71,
                    "time": 455.46875,
                    "velocity": 0.3937007874015748,
                    "duration": 0.46875
                },
                {
                    "name": "B3",
                    "midi": 59,
                    "time": 455.46875,
                    "velocity": 0.31496062992125984,
                    "duration": 0.3125
                },
                {
                    "name": "E4",
                    "midi": 64,
                    "time": 455.625,
                    "velocity": 0.31496062992125984,
                    "duration": 0.625
                },
                {
                    "name": "A#3",
                    "midi": 58,
                    "time": 455.78125,
                    "velocity": 0.31496062992125984,
                    "duration": 0.3125
                },
                {
                    "name": "A#4",
                    "midi": 70,
                    "time": 455.9375,
                    "velocity": 0.3937007874015748,
                    "duration": 0.15625
                },
                {
                    "name": "A4",
                    "midi": 69,
                    "time": 456.09375,
                    "velocity": 0.3937007874015748,
                    "duration": 0.46875
                },
                {
                    "name": "A3",
                    "midi": 57,
                    "time": 456.09375,
                    "velocity": 0.31496062992125984,
                    "duration": 0.3125
                },
                {
                    "name": "E4",
                    "midi": 64,
                    "time": 456.25,
                    "velocity": 0.31496062992125984,
                    "duration": 0.625
                },
                {
                    "name": "G3",
                    "midi": 55,
                    "time": 456.40625,
                    "velocity": 0.31496062992125984,
                    "duration": 0.3125
                },
                {
                    "name": "G4",
                    "midi": 67,
                    "time": 456.5625,
                    "velocity": 0.3937007874015748,
                    "duration": 0.15625
                },
                {
                    "name": "A4",
                    "midi": 69,
                    "time": 456.71875,
                    "velocity": 0.3937007874015748,
                    "duration": 0.46875
                },
                {
                    "name": "A3",
                    "midi": 57,
                    "time": 456.71875,
                    "velocity": 0.31496062992125984,
                    "duration": 0.3125
                },
                {
                    "name": "E4",
                    "midi": 64,
                    "time": 456.875,
                    "velocity": 0.31496062992125984,
                    "duration": 0.625
                },
                {
                    "name": "G3",
                    "midi": 55,
                    "time": 457.03125,
                    "velocity": 0.31496062992125984,
                    "duration": 0.3125
                },
                {
                    "name": "G4",
                    "midi": 67,
                    "time": 457.1875,
                    "velocity": 0.3937007874015748,
                    "duration": 0.15625
                },
                {
                    "name": "A4",
                    "midi": 69,
                    "time": 457.34375,
                    "velocity": 0.3937007874015748,
                    "duration": 0.46875
                },
                {
                    "name": "A3",
                    "midi": 57,
                    "time": 457.34375,
                    "velocity": 0.31496062992125984,
                    "duration": 0.3125
                },
                {
                    "name": "E4",
                    "midi": 64,
                    "time": 457.5,
                    "velocity": 0.31496062992125984,
                    "duration": 0.625
                },
                {
                    "name": "G3",
                    "midi": 55,
                    "time": 457.65625,
                    "velocity": 0.2755905511811024,
                    "duration": 0.3125
                },
                {
                    "name": "G4",
                    "midi": 67,
                    "time": 457.8125,
                    "velocity": 0.3464566929133858,
                    "duration": 0.15625
                },
                {
                    "name": "A4",
                    "midi": 69,
                    "time": 457.96875,
                    "velocity": 0.3464566929133858,
                    "duration": 0.46875
                },
                {
                    "name": "A3",
                    "midi": 57,
                    "time": 457.96875,
                    "velocity": 0.2677165354330709,
                    "duration": 0.3125
                },
                {
                    "name": "E4",
                    "midi": 64,
                    "time": 458.125,
                    "velocity": 0.30708661417322836,
                    "duration": 0.625
                },
                {
                    "name": "G3",
                    "midi": 55,
                    "time": 458.28125,
                    "velocity": 0.2677165354330709,
                    "duration": 0.3125
                },
                {
                    "name": "G4",
                    "midi": 67,
                    "time": 458.4375,
                    "velocity": 0.33070866141732286,
                    "duration": 0.15625
                },
                {
                    "name": "A4",
                    "midi": 69,
                    "time": 458.59375,
                    "velocity": 0.33070866141732286,
                    "duration": 0.46875
                },
                {
                    "name": "A3",
                    "midi": 57,
                    "time": 458.59375,
                    "velocity": 0.25984251968503935,
                    "duration": 0.3125
                },
                {
                    "name": "E4",
                    "midi": 64,
                    "time": 458.75,
                    "velocity": 0.30708661417322836,
                    "duration": 0.625
                },
                {
                    "name": "G3",
                    "midi": 55,
                    "time": 458.90625,
                    "velocity": 0.25196850393700787,
                    "duration": 0.3125
                },
                {
                    "name": "G4",
                    "midi": 67,
                    "time": 459.0625,
                    "velocity": 0.3228346456692913,
                    "duration": 0.15625
                },
                {
                    "name": "A4",
                    "midi": 69,
                    "time": 459.21875,
                    "velocity": 0.31496062992125984,
                    "duration": 0.46875
                },
                {
                    "name": "A3",
                    "midi": 57,
                    "time": 459.21875,
                    "velocity": 0.25196850393700787,
                    "duration": 0.3125
                },
                {
                    "name": "E4",
                    "midi": 64,
                    "time": 459.375,
                    "velocity": 0.2992125984251969,
                    "duration": 0.625
                },
                {
                    "name": "G3",
                    "midi": 55,
                    "time": 459.53125,
                    "velocity": 0.2440944881889764,
                    "duration": 0.3125
                },
                {
                    "name": "G4",
                    "midi": 67,
                    "time": 459.6875,
                    "velocity": 0.30708661417322836,
                    "duration": 0.15625
                },
                {
                    "name": "G4",
                    "midi": 67,
                    "time": 459.84375,
                    "velocity": 0.30708661417322836,
                    "duration": 0.46875
                },
                {
                    "name": "G3",
                    "midi": 55,
                    "time": 459.84375,
                    "velocity": 0.2440944881889764,
                    "duration": 0.3125
                },
                {
                    "name": "C4",
                    "midi": 60,
                    "time": 460,
                    "velocity": 0.2992125984251969,
                    "duration": 0.625
                },
                {
                    "name": "F3",
                    "midi": 53,
                    "time": 460.15625,
                    "velocity": 0.23622047244094488,
                    "duration": 0.3125
                },
                {
                    "name": "F4",
                    "midi": 65,
                    "time": 460.3125,
                    "velocity": 0.29133858267716534,
                    "duration": 0.15625
                },
                {
                    "name": "G4",
                    "midi": 67,
                    "time": 460.46875,
                    "velocity": 0.29133858267716534,
                    "duration": 0.46875
                },
                {
                    "name": "G3",
                    "midi": 55,
                    "time": 460.46875,
                    "velocity": 0.23622047244094488,
                    "duration": 0.3125
                },
                {
                    "name": "C4",
                    "midi": 60,
                    "time": 460.625,
                    "velocity": 0.29133858267716534,
                    "duration": 0.625
                },
                {
                    "name": "F3",
                    "midi": 53,
                    "time": 460.78125,
                    "velocity": 0.2283464566929134,
                    "duration": 0.3125
                },
                {
                    "name": "F4",
                    "midi": 65,
                    "time": 460.9375,
                    "velocity": 0.28346456692913385,
                    "duration": 0.15625
                },
                {
                    "name": "G4",
                    "midi": 67,
                    "time": 461.09375,
                    "velocity": 0.2755905511811024,
                    "duration": 0.46875
                },
                {
                    "name": "G3",
                    "midi": 55,
                    "time": 461.09375,
                    "velocity": 0.2283464566929134,
                    "duration": 0.3125
                },
                {
                    "name": "C4",
                    "midi": 60,
                    "time": 461.25,
                    "velocity": 0.29133858267716534,
                    "duration": 0.625
                },
                {
                    "name": "F3",
                    "midi": 53,
                    "time": 461.40625,
                    "velocity": 0.2204724409448819,
                    "duration": 0.3125
                },
                {
                    "name": "F4",
                    "midi": 65,
                    "time": 461.5625,
                    "velocity": 0.2677165354330709,
                    "duration": 0.15625
                },
                {
                    "name": "G4",
                    "midi": 67,
                    "time": 461.71875,
                    "velocity": 0.2677165354330709,
                    "duration": 0.46875
                },
                {
                    "name": "G3",
                    "midi": 55,
                    "time": 461.71875,
                    "velocity": 0.2125984251968504,
                    "duration": 0.3125
                },
                {
                    "name": "C4",
                    "midi": 60,
                    "time": 461.875,
                    "velocity": 0.28346456692913385,
                    "duration": 0.625
                },
                {
                    "name": "F3",
                    "midi": 53,
                    "time": 462.03125,
                    "velocity": 0.2125984251968504,
                    "duration": 0.3125
                },
                {
                    "name": "F4",
                    "midi": 65,
                    "time": 462.1875,
                    "velocity": 0.25196850393700787,
                    "duration": 0.15625
                },
                {
                    "name": "E4",
                    "midi": 64,
                    "time": 462.34375,
                    "velocity": 0.25196850393700787,
                    "duration": 0.46875
                },
                {
                    "name": "E3",
                    "midi": 52,
                    "time": 462.34375,
                    "velocity": 0.2047244094488189,
                    "duration": 0.3125
                },
                {
                    "name": "A3",
                    "midi": 57,
                    "time": 462.5,
                    "velocity": 0.28346456692913385,
                    "duration": 0.625
                },
                {
                    "name": "D3",
                    "midi": 50,
                    "time": 462.65625,
                    "velocity": 0.2047244094488189,
                    "duration": 0.3125
                },
                {
                    "name": "D4",
                    "midi": 62,
                    "time": 462.8125,
                    "velocity": 0.2440944881889764,
                    "duration": 0.15625
                },
                {
                    "name": "E4",
                    "midi": 64,
                    "time": 462.96875,
                    "velocity": 0.23622047244094488,
                    "duration": 0.46875
                },
                {
                    "name": "E3",
                    "midi": 52,
                    "time": 462.96875,
                    "velocity": 0.1968503937007874,
                    "duration": 0.3125
                },
                {
                    "name": "A3",
                    "midi": 57,
                    "time": 463.125,
                    "velocity": 0.2755905511811024,
                    "duration": 0.625
                },
                {
                    "name": "D3",
                    "midi": 50,
                    "time": 463.28125,
                    "velocity": 0.1968503937007874,
                    "duration": 0.3125
                },
                {
                    "name": "D4",
                    "midi": 62,
                    "time": 463.4375,
                    "velocity": 0.2283464566929134,
                    "duration": 0.15625
                },
                {
                    "name": "E4",
                    "midi": 64,
                    "time": 463.59375,
                    "velocity": 0.2283464566929134,
                    "duration": 0.46875
                },
                {
                    "name": "E3",
                    "midi": 52,
                    "time": 463.59375,
                    "velocity": 0.1889763779527559,
                    "duration": 0.3125
                },
                {
                    "name": "G#3",
                    "midi": 56,
                    "time": 463.75,
                    "velocity": 0.2677165354330709,
                    "duration": 0.625
                },
                {
                    "name": "D3",
                    "midi": 50,
                    "time": 463.90625,
                    "velocity": 0.1889763779527559,
                    "duration": 0.3125
                },
                {
                    "name": "D4",
                    "midi": 62,
                    "time": 464.0625,
                    "velocity": 0.2125984251968504,
                    "duration": 0.15625
                },
                {
                    "name": "C4",
                    "midi": 60,
                    "time": 464.21875,
                    "velocity": 0.2125984251968504,
                    "duration": 0.46875
                },
                {
                    "name": "C3",
                    "midi": 48,
                    "time": 464.21875,
                    "velocity": 0.18110236220472442,
                    "duration": 0.3125
                },
                {
                    "name": "F3",
                    "midi": 53,
                    "time": 464.375,
                    "velocity": 0.2677165354330709,
                    "duration": 0.625
                },
                {
                    "name": "B2",
                    "midi": 47,
                    "time": 464.53125,
                    "velocity": 0.1732283464566929,
                    "duration": 0.3125
                },
                {
                    "name": "B3",
                    "midi": 59,
                    "time": 464.6875,
                    "velocity": 0.2047244094488189,
                    "duration": 0.15625
                },
                {
                    "name": "D4",
                    "midi": 62,
                    "time": 464.84375,
                    "velocity": 0.1968503937007874,
                    "duration": 0.46875
                },
                {
                    "name": "D3",
                    "midi": 50,
                    "time": 464.84375,
                    "velocity": 0.1732283464566929,
                    "duration": 0.3125
                },
                {
                    "name": "E3",
                    "midi": 52,
                    "time": 465,
                    "velocity": 0.25984251968503935,
                    "duration": 0.625
                },
                {
                    "name": "C3",
                    "midi": 48,
                    "time": 465.15625,
                    "velocity": 0.16535433070866143,
                    "duration": 0.3125
                },
                {
                    "name": "C4",
                    "midi": 60,
                    "time": 465.3125,
                    "velocity": 0.1889763779527559,
                    "duration": 0.15625
                },
                {
                    "name": "D4",
                    "midi": 62,
                    "time": 465.46875,
                    "velocity": 0.1889763779527559,
                    "duration": 0.46875
                },
                {
                    "name": "D3",
                    "midi": 50,
                    "time": 465.46875,
                    "velocity": 0.16535433070866143,
                    "duration": 0.3125
                },
                {
                    "name": "E3",
                    "midi": 52,
                    "time": 465.625,
                    "velocity": 0.25984251968503935,
                    "duration": 0.625
                },
                {
                    "name": "C3",
                    "midi": 48,
                    "time": 465.78125,
                    "velocity": 0.15748031496062992,
                    "duration": 0.3125
                },
                {
                    "name": "C4",
                    "midi": 60,
                    "time": 465.9375,
                    "velocity": 0.1732283464566929,
                    "duration": 0.15625
                },
                {
                    "name": "D4",
                    "midi": 62,
                    "time": 466.09375,
                    "velocity": 0.1732283464566929,
                    "duration": 0.46875
                },
                {
                    "name": "D3",
                    "midi": 50,
                    "time": 466.09375,
                    "velocity": 0.15748031496062992,
                    "duration": 0.3125
                },
                {
                    "name": "F3",
                    "midi": 53,
                    "time": 466.25,
                    "velocity": 0.25196850393700787,
                    "duration": 0.625
                },
                {
                    "name": "C3",
                    "midi": 48,
                    "time": 466.40625,
                    "velocity": 0.14960629921259844,
                    "duration": 0.3125
                },
                {
                    "name": "C4",
                    "midi": 60,
                    "time": 466.5625,
                    "velocity": 0.16535433070866143,
                    "duration": 0.15625
                },
                {
                    "name": "D4",
                    "midi": 62,
                    "time": 466.71875,
                    "velocity": 0.15748031496062992,
                    "duration": 0.46875
                },
                {
                    "name": "D3",
                    "midi": 50,
                    "time": 466.71875,
                    "velocity": 0.14960629921259844,
                    "duration": 0.3125
                },
                {
                    "name": "A#3",
                    "midi": 58,
                    "time": 466.875,
                    "velocity": 0.25196850393700787,
                    "duration": 0.625
                },
                {
                    "name": "C3",
                    "midi": 48,
                    "time": 467.03125,
                    "velocity": 0.14173228346456693,
                    "duration": 0.3125
                },
                {
                    "name": "C4",
                    "midi": 60,
                    "time": 467.1875,
                    "velocity": 0.14960629921259844,
                    "duration": 0.15625
                },
                {
                    "name": "D4",
                    "midi": 62,
                    "time": 467.34375,
                    "velocity": 0.14960629921259844,
                    "duration": 0.46875
                },
                {
                    "name": "D3",
                    "midi": 50,
                    "time": 467.34375,
                    "velocity": 0.13385826771653545,
                    "duration": 0.3125
                },
                {
                    "name": "A3",
                    "midi": 57,
                    "time": 467.5,
                    "velocity": 0.2440944881889764,
                    "duration": 0.625
                },
                {
                    "name": "C3",
                    "midi": 48,
                    "time": 467.65625,
                    "velocity": 0.13385826771653545,
                    "duration": 0.3125
                },
                {
                    "name": "C4",
                    "midi": 60,
                    "time": 467.8125,
                    "velocity": 0.13385826771653545,
                    "duration": 0.15625
                },
                {
                    "name": "D4",
                    "midi": 62,
                    "time": 467.96875,
                    "velocity": 0.13385826771653545,
                    "duration": 0.46875
                },
                {
                    "name": "D3",
                    "midi": 50,
                    "time": 467.96875,
                    "velocity": 0.12598425196850394,
                    "duration": 0.3125
                },
                {
                    "name": "G#3",
                    "midi": 56,
                    "time": 468.125,
                    "velocity": 0.2440944881889764,
                    "duration": 0.625
                },
                {
                    "name": "C3",
                    "midi": 48,
                    "time": 468.28125,
                    "velocity": 0.12598425196850394,
                    "duration": 0.3125
                },
                {
                    "name": "C4",
                    "midi": 60,
                    "time": 468.4375,
                    "velocity": 0.12598425196850394,
                    "duration": 0.15625
                },
                {
                    "name": "D4",
                    "midi": 62,
                    "time": 468.59375,
                    "velocity": 0.11811023622047244,
                    "duration": 0.46875
                },
                {
                    "name": "D3",
                    "midi": 50,
                    "time": 468.59375,
                    "velocity": 0.11811023622047244,
                    "duration": 0.3125
                },
                {
                    "name": "G3",
                    "midi": 55,
                    "time": 468.75,
                    "velocity": 0.23622047244094488,
                    "duration": 0.625
                },
                {
                    "name": "C3",
                    "midi": 48,
                    "time": 468.90625,
                    "velocity": 0.11811023622047244,
                    "duration": 0.3125
                },
                {
                    "name": "C4",
                    "midi": 60,
                    "time": 469.0625,
                    "velocity": 0.11811023622047244,
                    "duration": 0.15625
                },
                {
                    "name": "D4",
                    "midi": 62,
                    "time": 469.21875,
                    "velocity": 0.11023622047244094,
                    "duration": 0.46875
                },
                {
                    "name": "D3",
                    "midi": 50,
                    "time": 469.21875,
                    "velocity": 0.11023622047244094,
                    "duration": 0.3125
                },
                {
                    "name": "F3",
                    "midi": 53,
                    "time": 469.375,
                    "velocity": 0.2204724409448819,
                    "duration": 0.625
                },
                {
                    "name": "C3",
                    "midi": 48,
                    "time": 469.53125,
                    "velocity": 0.11023622047244094,
                    "duration": 0.3125
                },
                {
                    "name": "C4",
                    "midi": 60,
                    "time": 469.6875,
                    "velocity": 0.11023622047244094,
                    "duration": 0.15625
                },
                {
                    "name": "D4",
                    "midi": 62,
                    "time": 469.84375,
                    "velocity": 0.11023622047244094,
                    "duration": 0.46875
                },
                {
                    "name": "D3",
                    "midi": 50,
                    "time": 469.84375,
                    "velocity": 0.11023622047244094,
                    "duration": 0.3125
                },
                {
                    "name": "E3",
                    "midi": 52,
                    "time": 470,
                    "velocity": 0.2125984251968504,
                    "duration": 0.625
                },
                {
                    "name": "C3",
                    "midi": 48,
                    "time": 470.15625,
                    "velocity": 0.10236220472440945,
                    "duration": 0.3125
                },
                {
                    "name": "C4",
                    "midi": 60,
                    "time": 470.3125,
                    "velocity": 0.10236220472440945,
                    "duration": 0.15625
                },
                {
                    "name": "D4",
                    "midi": 62,
                    "time": 470.46875,
                    "velocity": 0.10236220472440945,
                    "duration": 0.46875
                },
                {
                    "name": "D3",
                    "midi": 50,
                    "time": 470.46875,
                    "velocity": 0.10236220472440945,
                    "duration": 0.3125
                },
                {
                    "name": "E3",
                    "midi": 52,
                    "time": 470.625,
                    "velocity": 0.1968503937007874,
                    "duration": 0.625
                },
                {
                    "name": "C3",
                    "midi": 48,
                    "time": 470.78125,
                    "velocity": 0.09448818897637795,
                    "duration": 0.3125
                },
                {
                    "name": "C4",
                    "midi": 60,
                    "time": 470.9375,
                    "velocity": 0.09448818897637795,
                    "duration": 0.15625
                },
                {
                    "name": "D4",
                    "midi": 62,
                    "time": 471.09375,
                    "velocity": 0.09448818897637795,
                    "duration": 0.46875
                },
                {
                    "name": "D3",
                    "midi": 50,
                    "time": 471.09375,
                    "velocity": 0.09448818897637795,
                    "duration": 0.3125
                },
                {
                    "name": "F3",
                    "midi": 53,
                    "time": 471.25,
                    "velocity": 0.18110236220472442,
                    "duration": 0.625
                },
                {
                    "name": "C3",
                    "midi": 48,
                    "time": 471.40625,
                    "velocity": 0.08661417322834646,
                    "duration": 0.3125
                },
                {
                    "name": "C4",
                    "midi": 60,
                    "time": 471.5625,
                    "velocity": 0.08661417322834646,
                    "duration": 0.15625
                },
                {
                    "name": "D4",
                    "midi": 62,
                    "time": 471.71875,
                    "velocity": 0.08661417322834646,
                    "duration": 0.46875
                },
                {
                    "name": "D3",
                    "midi": 50,
                    "time": 471.71875,
                    "velocity": 0.08661417322834646,
                    "duration": 0.3125
                },
                {
                    "name": "A#3",
                    "midi": 58,
                    "time": 471.875,
                    "velocity": 0.1732283464566929,
                    "duration": 0.625
                },
                {
                    "name": "C3",
                    "midi": 48,
                    "time": 472.03125,
                    "velocity": 0.08661417322834646,
                    "duration": 0.3125
                },
                {
                    "name": "C4",
                    "midi": 60,
                    "time": 472.1875,
                    "velocity": 0.07874015748031496,
                    "duration": 0.15625
                },
                {
                    "name": "C4",
                    "midi": 60,
                    "time": 472.34375,
                    "velocity": 0.07874015748031496,
                    "duration": 0.15625
                },
                {
                    "name": "C3",
                    "midi": 48,
                    "time": 472.34375,
                    "velocity": 0.07874015748031496,
                    "duration": 0.15625
                },
                {
                    "name": "C3",
                    "midi": 48,
                    "time": 472.5,
                    "velocity": 0.15748031496062992,
                    "duration": 0.3125
                },
                {
                    "name": "A3",
                    "midi": 57,
                    "time": 472.5,
                    "velocity": 0.15748031496062992,
                    "duration": 0.3125
                },
                {
                    "name": "C4",
                    "midi": 60,
                    "time": 472.5,
                    "velocity": 0.15748031496062992,
                    "duration": 0.3125
                },
                {
                    "name": "C4",
                    "midi": 60,
                    "time": 473.125,
                    "velocity": 0.36220472440944884,
                    "duration": 0.625
                },
                {
                    "name": "F4",
                    "midi": 65,
                    "time": 473.125,
                    "velocity": 0.36220472440944884,
                    "duration": 0.625
                },
                {
                    "name": "A4",
                    "midi": 69,
                    "time": 473.125,
                    "velocity": 0.36220472440944884,
                    "duration": 0.625
                },
                {
                    "name": "C5",
                    "midi": 72,
                    "time": 473.125,
                    "velocity": 0.36220472440944884,
                    "duration": 0.625
                },
                {
                    "name": "C4",
                    "midi": 60,
                    "time": 473.75,
                    "velocity": 0.41732283464566927,
                    "duration": 0.625
                },
                {
                    "name": "D4",
                    "midi": 62,
                    "time": 473.75,
                    "velocity": 0.41732283464566927,
                    "duration": 0.625
                },
                {
                    "name": "F4",
                    "midi": 65,
                    "time": 473.75,
                    "velocity": 0.41732283464566927,
                    "duration": 0.625
                },
                {
                    "name": "G#4",
                    "midi": 68,
                    "time": 473.75,
                    "velocity": 0.41732283464566927,
                    "duration": 0.625
                },
                {
                    "name": "C5",
                    "midi": 72,
                    "time": 473.75,
                    "velocity": 0.41732283464566927,
                    "duration": 0.625
                },
                {
                    "name": "D4",
                    "midi": 62,
                    "time": 474.375,
                    "velocity": 0.4645669291338583,
                    "duration": 0.625
                },
                {
                    "name": "F4",
                    "midi": 65,
                    "time": 474.375,
                    "velocity": 0.4645669291338583,
                    "duration": 0.625
                },
                {
                    "name": "G#4",
                    "midi": 68,
                    "time": 474.375,
                    "velocity": 0.4645669291338583,
                    "duration": 0.625
                },
                {
                    "name": "B4",
                    "midi": 71,
                    "time": 474.375,
                    "velocity": 0.4645669291338583,
                    "duration": 0.625
                },
                {
                    "name": "D5",
                    "midi": 74,
                    "time": 474.375,
                    "velocity": 0.4645669291338583,
                    "duration": 0.625
                },
                {
                    "name": "E4",
                    "midi": 64,
                    "time": 475,
                    "velocity": 0.5118110236220472,
                    "duration": 2.8173828125
                },
                {
                    "name": "G4",
                    "midi": 67,
                    "time": 475,
                    "velocity": 0.5118110236220472,
                    "duration": 2.8173828125
                },
                {
                    "name": "C5",
                    "midi": 72,
                    "time": 475,
                    "velocity": 0.5118110236220472,
                    "duration": 2.8173828125
                },
                {
                    "name": "E5",
                    "midi": 76,
                    "time": 475,
                    "velocity": 0.5118110236220472,
                    "duration": 2.8173828125
                }
            ],
            "controlChanges": {
                "64": [
                    {
                        "number": 64,
                        "time": 1.25,
                        "value": 1
                    },
                    {
                        "number": 64,
                        "time": 2.242431640625,
                        "value": 0
                    },
                    {
                        "number": 64,
                        "time": 2.5,
                        "value": 1
                    },
                    {
                        "number": 64,
                        "time": 3.455810546875,
                        "value": 0
                    },
                    {
                        "number": 64,
                        "time": 122.4993896484375,
                        "value": 1
                    },
                    {
                        "number": 64,
                        "time": 123.5784912109375,
                        "value": 0
                    },
                    {
                        "number": 64,
                        "time": 123.76220703125,
                        "value": 1
                    },
                    {
                        "number": 64,
                        "time": 124.8529052734375,
                        "value": 0
                    },
                    {
                        "number": 64,
                        "time": 246.25,
                        "value": 1
                    },
                    {
                        "number": 64,
                        "time": 247.3040771484375,
                        "value": 0
                    },
                    {
                        "number": 64,
                        "time": 247.5,
                        "value": 1
                    },
                    {
                        "number": 64,
                        "time": 248.5418701171875,
                        "value": 0
                    },
                    {
                        "number": 64,
                        "time": 261.25,
                        "value": 1
                    },
                    {
                        "number": 64,
                        "time": 263.6273193359375,
                        "value": 0
                    },
                    {
                        "number": 64,
                        "time": 263.75,
                        "value": 1
                    },
                    {
                        "number": 64,
                        "time": 264.8529052734375,
                        "value": 0
                    },
                    {
                        "number": 64,
                        "time": 265,
                        "value": 1
                    },
                    {
                        "number": 64,
                        "time": 266.1029052734375,
                        "value": 0
                    },
                    {
                        "number": 64,
                        "time": 266.25,
                        "value": 1
                    },
                    {
                        "number": 64,
                        "time": 267.3529052734375,
                        "value": 0
                    },
                    {
                        "number": 64,
                        "time": 267.5,
                        "value": 1
                    },
                    {
                        "number": 64,
                        "time": 268.6029052734375,
                        "value": 0
                    },
                    {
                        "number": 64,
                        "time": 268.75,
                        "value": 1
                    },
                    {
                        "number": 64,
                        "time": 269.8529052734375,
                        "value": 0
                    },
                    {
                        "number": 64,
                        "time": 298.75,
                        "value": 1
                    },
                    {
                        "number": 64,
                        "time": 300.1348876953125,
                        "value": 0
                    },
                    {
                        "number": 64,
                        "time": 305,
                        "value": 1
                    },
                    {
                        "number": 64,
                        "time": 307.3773193359375,
                        "value": 0
                    },
                    {
                        "number": 64,
                        "time": 307.5,
                        "value": 1
                    },
                    {
                        "number": 64,
                        "time": 308.492431640625,
                        "value": 0
                    },
                    {
                        "number": 64,
                        "time": 308.75,
                        "value": 1
                    },
                    {
                        "number": 64,
                        "time": 309.705810546875,
                        "value": 0
                    },
                    {
                        "number": 64,
                        "time": 373.75,
                        "value": 1
                    },
                    {
                        "number": 64,
                        "time": 374.8406982421875,
                        "value": 0
                    },
                    {
                        "number": 64,
                        "time": 377.5,
                        "value": 1
                    },
                    {
                        "number": 64,
                        "time": 377.9656982421875,
                        "value": 0
                    },
                    {
                        "number": 64,
                        "time": 380,
                        "value": 1
                    },
                    {
                        "number": 64,
                        "time": 380.5145263671875,
                        "value": 0
                    },
                    {
                        "number": 64,
                        "time": 382.5,
                        "value": 1
                    },
                    {
                        "number": 64,
                        "time": 382.9901123046875,
                        "value": 0
                    },
                    {
                        "number": 64,
                        "time": 385,
                        "value": 1
                    },
                    {
                        "number": 64,
                        "time": 385.5023193359375,
                        "value": 0
                    },
                    {
                        "number": 64,
                        "time": 387.5,
                        "value": 1
                    },
                    {
                        "number": 64,
                        "time": 387.6470947265625,
                        "value": 0
                    },
                    {
                        "number": 64,
                        "time": 388.75,
                        "value": 1
                    },
                    {
                        "number": 64,
                        "time": 388.9581298828125,
                        "value": 0
                    },
                    {
                        "number": 64,
                        "time": 390,
                        "value": 1
                    },
                    {
                        "number": 64,
                        "time": 390.2203369140625,
                        "value": 0
                    },
                    {
                        "number": 64,
                        "time": 391.25,
                        "value": 1
                    },
                    {
                        "number": 64,
                        "time": 391.4581298828125,
                        "value": 0
                    },
                    {
                        "number": 64,
                        "time": 392.5,
                        "value": 1
                    },
                    {
                        "number": 64,
                        "time": 392.6959228515625,
                        "value": 0
                    },
                    {
                        "number": 64,
                        "time": 393.75,
                        "value": 1
                    },
                    {
                        "number": 64,
                        "time": 393.9825439453125,
                        "value": 0
                    },
                    {
                        "number": 64,
                        "time": 395,
                        "value": 1
                    },
                    {
                        "number": 64,
                        "time": 395.245361328125,
                        "value": 0
                    },
                    {
                        "number": 64,
                        "time": 396.25,
                        "value": 1
                    },
                    {
                        "number": 64,
                        "time": 396.4459228515625,
                        "value": 0
                    },
                    {
                        "number": 64,
                        "time": 397.5,
                        "value": 1
                    },
                    {
                        "number": 64,
                        "time": 397.6715087890625,
                        "value": 0
                    },
                    {
                        "number": 64,
                        "time": 398.75,
                        "value": 1
                    },
                    {
                        "number": 64,
                        "time": 398.9459228515625,
                        "value": 0
                    },
                    {
                        "number": 64,
                        "time": 400,
                        "value": 1
                    },
                    {
                        "number": 64,
                        "time": 400.245361328125,
                        "value": 0
                    },
                    {
                        "number": 64,
                        "time": 401.25,
                        "value": 1
                    },
                    {
                        "number": 64,
                        "time": 401.4208984375,
                        "value": 0
                    },
                    {
                        "number": 64,
                        "time": 402.5,
                        "value": 1
                    },
                    {
                        "number": 64,
                        "time": 402.6837158203125,
                        "value": 0
                    },
                    {
                        "number": 64,
                        "time": 403.75,
                        "value": 1
                    },
                    {
                        "number": 64,
                        "time": 403.9581298828125,
                        "value": 0
                    },
                    {
                        "number": 64,
                        "time": 405,
                        "value": 1
                    },
                    {
                        "number": 64,
                        "time": 405.2203369140625,
                        "value": 0
                    },
                    {
                        "number": 64,
                        "time": 406.25,
                        "value": 1
                    },
                    {
                        "number": 64,
                        "time": 406.4459228515625,
                        "value": 0
                    },
                    {
                        "number": 64,
                        "time": 434.8651123046875,
                        "value": 1
                    },
                    {
                        "number": 64,
                        "time": 435.355224609375,
                        "value": 0
                    },
                    {
                        "number": 64,
                        "time": 435.5267333984375,
                        "value": 1
                    },
                    {
                        "number": 64,
                        "time": 435.992431640625,
                        "value": 0
                    },
                    {
                        "number": 64,
                        "time": 436.1151123046875,
                        "value": 1
                    },
                    {
                        "number": 64,
                        "time": 436.568603515625,
                        "value": 0
                    },
                    {
                        "number": 64,
                        "time": 436.761474609375,
                        "value": 1
                    },
                    {
                        "number": 64,
                        "time": 437.218017578125,
                        "value": 0
                    },
                    {
                        "number": 64,
                        "time": 437.3651123046875,
                        "value": 1
                    },
                    {
                        "number": 64,
                        "time": 437.867431640625,
                        "value": 0
                    },
                    {
                        "number": 64,
                        "time": 438.0145263671875,
                        "value": 1
                    },
                    {
                        "number": 64,
                        "time": 438.480224609375,
                        "value": 0
                    },
                    {
                        "number": 64,
                        "time": 438.6029052734375,
                        "value": 1
                    },
                    {
                        "number": 64,
                        "time": 439.080810546875,
                        "value": 0
                    },
                    {
                        "number": 64,
                        "time": 439.2401123046875,
                        "value": 1
                    },
                    {
                        "number": 64,
                        "time": 439.7027587890625,
                        "value": 0
                    },
                    {
                        "number": 64,
                        "time": 439.8529052734375,
                        "value": 1
                    },
                    {
                        "number": 64,
                        "time": 440.257568359375,
                        "value": 0
                    },
                    {
                        "number": 64,
                        "time": 440.4656982421875,
                        "value": 1
                    },
                    {
                        "number": 64,
                        "time": 440.9771728515625,
                        "value": 0
                    },
                    {
                        "number": 64,
                        "time": 456.25,
                        "value": 1
                    },
                    {
                        "number": 64,
                        "time": 458.5540771484375,
                        "value": 0
                    },
                    {
                        "number": 64,
                        "time": 458.75,
                        "value": 1
                    },
                    {
                        "number": 64,
                        "time": 459.4976806640625,
                        "value": 0
                    },
                    {
                        "number": 64,
                        "time": 460,
                        "value": 1
                    },
                    {
                        "number": 64,
                        "time": 461.1273193359375,
                        "value": 0
                    },
                    {
                        "number": 64,
                        "time": 461.25,
                        "value": 1
                    },
                    {
                        "number": 64,
                        "time": 461.91162109375,
                        "value": 0
                    },
                    {
                        "number": 64,
                        "time": 462.5,
                        "value": 1
                    },
                    {
                        "number": 64,
                        "time": 463.6151123046875,
                        "value": 0
                    },
                    {
                        "number": 64,
                        "time": 463.75,
                        "value": 1
                    },
                    {
                        "number": 64,
                        "time": 464.8529052734375,
                        "value": 0
                    },
                    {
                        "number": 64,
                        "time": 472.5,
                        "value": 1
                    },
                    {
                        "number": 64,
                        "time": 473.6029052734375,
                        "value": 0
                    },
                    {
                        "number": 64,
                        "time": 473.75,
                        "value": 1
                    },
                    {
                        "number": 64,
                        "time": 474.375,
                        "value": 0
                    },
                    {
                        "number": 64,
                        "time": 474.4976806640625,
                        "value": 1
                    },
                    {
                        "number": 64,
                        "time": 474.96337890625,
                        "value": 0
                    },
                    {
                        "number": 64,
                        "time": 475,
                        "value": 1
                    },
                    {
                        "number": 64,
                        "time": 476.7523193359375,
                        "value": 0
                    }
                ]
            },
            "id": 2,
            "channelNumber": 0,
            "isPercussion": false
        },
        {
            "startTime": 1.25,
            "duration": 477.8173828125,
            "length": 3589,
            "notes": [
                {
                    "name": "G1",
                    "midi": 31,
                    "time": 1.25,
                    "velocity": 0.7874015748031497,
                    "duration": 0.3125
                },
                {
                    "name": "G2",
                    "midi": 43,
                    "time": 1.25,
                    "velocity": 0.7874015748031497,
                    "duration": 0.3125
                },
                {
                    "name": "D3",
                    "midi": 50,
                    "time": 1.5625,
                    "velocity": 0.889763779527559,
                    "duration": 0.625
                },
                {
                    "name": "G3",
                    "midi": 55,
                    "time": 1.5625,
                    "velocity": 0.889763779527559,
                    "duration": 0.7501220703125
                },
                {
                    "name": "D4",
                    "midi": 62,
                    "time": 1.5625,
                    "velocity": 0.889763779527559,
                    "duration": 0.625
                },
                {
                    "name": "C3",
                    "midi": 48,
                    "time": 2.1875,
                    "velocity": 0.7874015748031497,
                    "duration": 0.1251220703125
                },
                {
                    "name": "C4",
                    "midi": 60,
                    "time": 2.1875,
                    "velocity": 0.7874015748031497,
                    "duration": 0.1251220703125
                },
                {
                    "name": "A2",
                    "midi": 45,
                    "time": 2.5,
                    "velocity": 0.7874015748031497,
                    "duration": 0.3125
                },
                {
                    "name": "D3",
                    "midi": 50,
                    "time": 2.5,
                    "velocity": 0.7874015748031497,
                    "duration": 0.3125
                },
                {
                    "name": "A3",
                    "midi": 57,
                    "time": 2.5,
                    "velocity": 0.7874015748031497,
                    "duration": 0.3125
                },
                {
                    "name": "F#2",
                    "midi": 42,
                    "time": 2.8125,
                    "velocity": 0.889763779527559,
                    "duration": 0.625
                },
                {
                    "name": "D3",
                    "midi": 50,
                    "time": 2.8125,
                    "velocity": 0.889763779527559,
                    "duration": 0.7501220703125
                },
                {
                    "name": "F#3",
                    "midi": 54,
                    "time": 2.8125,
                    "velocity": 0.889763779527559,
                    "duration": 0.625
                },
                {
                    "name": "G2",
                    "midi": 43,
                    "time": 3.4375,
                    "velocity": 0.7874015748031497,
                    "duration": 0.1251220703125
                },
                {
                    "name": "G3",
                    "midi": 55,
                    "time": 3.4375,
                    "velocity": 0.7874015748031497,
                    "duration": 0.1251220703125
                },
                {
                    "name": "C4",
                    "midi": 60,
                    "time": 3.75,
                    "velocity": 0.31496062992125984,
                    "duration": 0.15625
                },
                {
                    "name": "C3",
                    "midi": 48,
                    "time": 3.75,
                    "velocity": 0.31496062992125984,
                    "duration": 0.3125
                },
                {
                    "name": "G3",
                    "midi": 55,
                    "time": 3.90625,
                    "velocity": 0.31496062992125984,
                    "duration": 0.15625
                },
                {
                    "name": "C4",
                    "midi": 60,
                    "time": 4.0625,
                    "velocity": 0.31496062992125984,
                    "duration": 0.15625
                },
                {
                    "name": "C3",
                    "midi": 48,
                    "time": 4.0625,
                    "velocity": 0.4645669291338583,
                    "duration": 0.625
                },
                {
                    "name": "G3",
                    "midi": 55,
                    "time": 4.21875,
                    "velocity": 0.31496062992125984,
                    "duration": 0.15625
                },
                {
                    "name": "C4",
                    "midi": 60,
                    "time": 4.375,
                    "velocity": 0.31496062992125984,
                    "duration": 0.15625
                },
                {
                    "name": "G3",
                    "midi": 55,
                    "time": 4.53125,
                    "velocity": 0.31496062992125984,
                    "duration": 0.15625
                },
                {
                    "name": "C4",
                    "midi": 60,
                    "time": 4.6875,
                    "velocity": 0.31496062992125984,
                    "duration": 0.15625
                },
                {
                    "name": "C3",
                    "midi": 48,
                    "time": 4.6875,
                    "velocity": 0.31496062992125984,
                    "duration": 0.3125
                },
                {
                    "name": "G3",
                    "midi": 55,
                    "time": 4.84375,
                    "velocity": 0.31496062992125984,
                    "duration": 0.15625
                },
                {
                    "name": "D4",
                    "midi": 62,
                    "time": 5,
                    "velocity": 0.31496062992125984,
                    "duration": 0.15625
                },
                {
                    "name": "C3",
                    "midi": 48,
                    "time": 5,
                    "velocity": 0.31496062992125984,
                    "duration": 0.3125
                },
                {
                    "name": "G#3",
                    "midi": 56,
                    "time": 5.15625,
                    "velocity": 0.31496062992125984,
                    "duration": 0.15625
                },
                {
                    "name": "D4",
                    "midi": 62,
                    "time": 5.3125,
                    "velocity": 0.31496062992125984,
                    "duration": 0.15625
                },
                {
                    "name": "C3",
                    "midi": 48,
                    "time": 5.3125,
                    "velocity": 0.4645669291338583,
                    "duration": 0.625
                },
                {
                    "name": "G#3",
                    "midi": 56,
                    "time": 5.46875,
                    "velocity": 0.31496062992125984,
                    "duration": 0.15625
                },
                {
                    "name": "D4",
                    "midi": 62,
                    "time": 5.625,
                    "velocity": 0.31496062992125984,
                    "duration": 0.15625
                },
                {
                    "name": "G#3",
                    "midi": 56,
                    "time": 5.78125,
                    "velocity": 0.31496062992125984,
                    "duration": 0.15625
                },
                {
                    "name": "D4",
                    "midi": 62,
                    "time": 5.9375,
                    "velocity": 0.31496062992125984,
                    "duration": 0.15625
                },
                {
                    "name": "C3",
                    "midi": 48,
                    "time": 5.9375,
                    "velocity": 0.31496062992125984,
                    "duration": 0.3125
                },
                {
                    "name": "G3",
                    "midi": 55,
                    "time": 6.09375,
                    "velocity": 0.31496062992125984,
                    "duration": 0.15625
                },
                {
                    "name": "C4",
                    "midi": 60,
                    "time": 6.25,
                    "velocity": 0.31496062992125984,
                    "duration": 0.15625
                },
                {
                    "name": "C3",
                    "midi": 48,
                    "time": 6.25,
                    "velocity": 0.31496062992125984,
                    "duration": 0.3125
                },
                {
                    "name": "G3",
                    "midi": 55,
                    "time": 6.40625,
                    "velocity": 0.31496062992125984,
                    "duration": 0.15625
                },
                {
                    "name": "C4",
                    "midi": 60,
                    "time": 6.5625,
                    "velocity": 0.31496062992125984,
                    "duration": 0.15625
                },
                {
                    "name": "C3",
                    "midi": 48,
                    "time": 6.5625,
                    "velocity": 0.4645669291338583,
                    "duration": 0.625
                },
                {
                    "name": "G3",
                    "midi": 55,
                    "time": 6.71875,
                    "velocity": 0.31496062992125984,
                    "duration": 0.15625
                },
                {
                    "name": "C4",
                    "midi": 60,
                    "time": 6.875,
                    "velocity": 0.31496062992125984,
                    "duration": 0.15625
                },
                {
                    "name": "G3",
                    "midi": 55,
                    "time": 7.03125,
                    "velocity": 0.31496062992125984,
                    "duration": 0.15625
                },
                {
                    "name": "C4",
                    "midi": 60,
                    "time": 7.1875,
                    "velocity": 0.31496062992125984,
                    "duration": 0.15625
                },
                {
                    "name": "C3",
                    "midi": 48,
                    "time": 7.1875,
                    "velocity": 0.31496062992125984,
                    "duration": 0.3125
                },
                {
                    "name": "G3",
                    "midi": 55,
                    "time": 7.34375,
                    "velocity": 0.31496062992125984,
                    "duration": 0.15625
                },
                {
                    "name": "D4",
                    "midi": 62,
                    "time": 7.5,
                    "velocity": 0.31496062992125984,
                    "duration": 0.15625
                },
                {
                    "name": "C3",
                    "midi": 48,
                    "time": 7.5,
                    "velocity": 0.31496062992125984,
                    "duration": 0.3125
                },
                {
                    "name": "G#3",
                    "midi": 56,
                    "time": 7.65625,
                    "velocity": 0.31496062992125984,
                    "duration": 0.15625
                },
                {
                    "name": "D4",
                    "midi": 62,
                    "time": 7.8125,
                    "velocity": 0.31496062992125984,
                    "duration": 0.15625
                },
                {
                    "name": "C3",
                    "midi": 48,
                    "time": 7.8125,
                    "velocity": 0.4645669291338583,
                    "duration": 0.625
                },
                {
                    "name": "G#3",
                    "midi": 56,
                    "time": 7.96875,
                    "velocity": 0.31496062992125984,
                    "duration": 0.15625
                },
                {
                    "name": "D4",
                    "midi": 62,
                    "time": 8.125,
                    "velocity": 0.31496062992125984,
                    "duration": 0.15625
                },
                {
                    "name": "G#3",
                    "midi": 56,
                    "time": 8.28125,
                    "velocity": 0.31496062992125984,
                    "duration": 0.15625
                },
                {
                    "name": "D4",
                    "midi": 62,
                    "time": 8.4375,
                    "velocity": 0.31496062992125984,
                    "duration": 0.15625
                },
                {
                    "name": "C3",
                    "midi": 48,
                    "time": 8.4375,
                    "velocity": 0.31496062992125984,
                    "duration": 0.3125
                },
                {
                    "name": "G3",
                    "midi": 55,
                    "time": 8.59375,
                    "velocity": 0.31496062992125984,
                    "duration": 0.15625
                },
                {
                    "name": "C3",
                    "midi": 48,
                    "time": 8.75,
                    "velocity": 0.31496062992125984,
                    "duration": 0.3125
                },
                {
                    "name": "C4",
                    "midi": 60,
                    "time": 8.75,
                    "velocity": 0.31496062992125984,
                    "duration": 0.15625
                },
                {
                    "name": "G3",
                    "midi": 55,
                    "time": 8.90625,
                    "velocity": 0.31496062992125984,
                    "duration": 0.15625
                },
                {
                    "name": "C3",
                    "midi": 48,
                    "time": 9.0625,
                    "velocity": 0.4645669291338583,
                    "duration": 0.625
                },
                {
                    "name": "C4",
                    "midi": 60,
                    "time": 9.0625,
                    "velocity": 0.31496062992125984,
                    "duration": 0.15625
                },
                {
                    "name": "G3",
                    "midi": 55,
                    "time": 9.21875,
                    "velocity": 0.31496062992125984,
                    "duration": 0.15625
                },
                {
                    "name": "C4",
                    "midi": 60,
                    "time": 9.375,
                    "velocity": 0.31496062992125984,
                    "duration": 0.15625
                },
                {
                    "name": "G3",
                    "midi": 55,
                    "time": 9.53125,
                    "velocity": 0.31496062992125984,
                    "duration": 0.15625
                },
                {
                    "name": "A#2",
                    "midi": 46,
                    "time": 9.6875,
                    "velocity": 0.31496062992125984,
                    "duration": 0.3125
                },
                {
                    "name": "C4",
                    "midi": 60,
                    "time": 9.6875,
                    "velocity": 0.31496062992125984,
                    "duration": 0.15625
                },
                {
                    "name": "E3",
                    "midi": 52,
                    "time": 9.84375,
                    "velocity": 0.31496062992125984,
                    "duration": 0.15625
                },
                {
                    "name": "C4",
                    "midi": 60,
                    "time": 10,
                    "velocity": 0.3937007874015748,
                    "duration": 0.15625
                },
                {
                    "name": "A2",
                    "midi": 45,
                    "time": 10,
                    "velocity": 0.3937007874015748,
                    "duration": 0.3125
                },
                {
                    "name": "F3",
                    "midi": 53,
                    "time": 10.15625,
                    "velocity": 0.3937007874015748,
                    "duration": 0.15625
                },
                {
                    "name": "C4",
                    "midi": 60,
                    "time": 10.3125,
                    "velocity": 0.3937007874015748,
                    "duration": 0.15625
                },
                {
                    "name": "A2",
                    "midi": 45,
                    "time": 10.3125,
                    "velocity": 0.5433070866141733,
                    "duration": 0.625
                },
                {
                    "name": "F3",
                    "midi": 53,
                    "time": 10.46875,
                    "velocity": 0.3937007874015748,
                    "duration": 0.15625
                },
                {
                    "name": "C4",
                    "midi": 60,
                    "time": 10.625,
                    "velocity": 0.3937007874015748,
                    "duration": 0.15625
                },
                {
                    "name": "F3",
                    "midi": 53,
                    "time": 10.78125,
                    "velocity": 0.3937007874015748,
                    "duration": 0.15625
                },
                {
                    "name": "G3",
                    "midi": 55,
                    "time": 10.9375,
                    "velocity": 0.3937007874015748,
                    "duration": 0.15625
                },
                {
                    "name": "G2",
                    "midi": 43,
                    "time": 10.9375,
                    "velocity": 0.3937007874015748,
                    "duration": 0.3125
                },
                {
                    "name": "E3",
                    "midi": 52,
                    "time": 11.09375,
                    "velocity": 0.3937007874015748,
                    "duration": 0.15625
                },
                {
                    "name": "A3",
                    "midi": 57,
                    "time": 11.25,
                    "velocity": 0.3937007874015748,
                    "duration": 0.15625
                },
                {
                    "name": "F2",
                    "midi": 41,
                    "time": 11.25,
                    "velocity": 0.3937007874015748,
                    "duration": 0.3125
                },
                {
                    "name": "D3",
                    "midi": 50,
                    "time": 11.40625,
                    "velocity": 0.3937007874015748,
                    "duration": 0.15625
                },
                {
                    "name": "A3",
                    "midi": 57,
                    "time": 11.5625,
                    "velocity": 0.3937007874015748,
                    "duration": 0.15625
                },
                {
                    "name": "F2",
                    "midi": 41,
                    "time": 11.5625,
                    "velocity": 0.5433070866141733,
                    "duration": 0.625
                },
                {
                    "name": "D3",
                    "midi": 50,
                    "time": 11.71875,
                    "velocity": 0.3937007874015748,
                    "duration": 0.15625
                },
                {
                    "name": "A3",
                    "midi": 57,
                    "time": 11.875,
                    "velocity": 0.3937007874015748,
                    "duration": 0.15625
                },
                {
                    "name": "D3",
                    "midi": 50,
                    "time": 12.03125,
                    "velocity": 0.3937007874015748,
                    "duration": 0.15625
                },
                {
                    "name": "A3",
                    "midi": 57,
                    "time": 12.1875,
                    "velocity": 0.3937007874015748,
                    "duration": 0.15625
                },
                {
                    "name": "F#2",
                    "midi": 42,
                    "time": 12.1875,
                    "velocity": 0.3937007874015748,
                    "duration": 0.3125
                },
                {
                    "name": "D3",
                    "midi": 50,
                    "time": 12.34375,
                    "velocity": 0.3937007874015748,
                    "duration": 0.15625
                },
                {
                    "name": "G3",
                    "midi": 55,
                    "time": 12.5,
                    "velocity": 0.3937007874015748,
                    "duration": 0.15625
                },
                {
                    "name": "G2",
                    "midi": 43,
                    "time": 12.5,
                    "velocity": 0.3937007874015748,
                    "duration": 0.3125
                },
                {
                    "name": "D3",
                    "midi": 50,
                    "time": 12.65625,
                    "velocity": 0.3858267716535433,
                    "duration": 0.15625
                },
                {
                    "name": "G3",
                    "midi": 55,
                    "time": 12.8125,
                    "velocity": 0.3700787401574803,
                    "duration": 0.15625
                },
                {
                    "name": "G2",
                    "midi": 43,
                    "time": 12.8125,
                    "velocity": 0.5196850393700787,
                    "duration": 0.625
                },
                {
                    "name": "D3",
                    "midi": 50,
                    "time": 12.96875,
                    "velocity": 0.36220472440944884,
                    "duration": 0.15625
                },
                {
                    "name": "A3",
                    "midi": 57,
                    "time": 13.125,
                    "velocity": 0.3543307086614173,
                    "duration": 0.15625
                },
                {
                    "name": "D3",
                    "midi": 50,
                    "time": 13.28125,
                    "velocity": 0.3464566929133858,
                    "duration": 0.15625
                },
                {
                    "name": "B3",
                    "midi": 59,
                    "time": 13.4375,
                    "velocity": 0.33070866141732286,
                    "duration": 0.15625
                },
                {
                    "name": "G2",
                    "midi": 43,
                    "time": 13.4375,
                    "velocity": 0.33070866141732286,
                    "duration": 0.15625
                },
                {
                    "name": "D3",
                    "midi": 50,
                    "time": 13.59375,
                    "velocity": 0.3228346456692913,
                    "duration": 0.15625
                },
                {
                    "name": "D3",
                    "midi": 50,
                    "time": 13.59375,
                    "velocity": 0.3228346456692913,
                    "duration": 0.15625
                },
                {
                    "name": "C4",
                    "midi": 60,
                    "time": 13.75,
                    "velocity": 0.31496062992125984,
                    "duration": 0.15625
                },
                {
                    "name": "C3",
                    "midi": 48,
                    "time": 13.75,
                    "velocity": 0.31496062992125984,
                    "duration": 0.3125
                },
                {
                    "name": "G3",
                    "midi": 55,
                    "time": 13.90625,
                    "velocity": 0.31496062992125984,
                    "duration": 0.15625
                },
                {
                    "name": "C4",
                    "midi": 60,
                    "time": 14.0625,
                    "velocity": 0.31496062992125984,
                    "duration": 0.15625
                },
                {
                    "name": "C3",
                    "midi": 48,
                    "time": 14.0625,
                    "velocity": 0.4645669291338583,
                    "duration": 0.625
                },
                {
                    "name": "G3",
                    "midi": 55,
                    "time": 14.21875,
                    "velocity": 0.31496062992125984,
                    "duration": 0.15625
                },
                {
                    "name": "C4",
                    "midi": 60,
                    "time": 14.375,
                    "velocity": 0.31496062992125984,
                    "duration": 0.15625
                },
                {
                    "name": "G3",
                    "midi": 55,
                    "time": 14.53125,
                    "velocity": 0.31496062992125984,
                    "duration": 0.15625
                },
                {
                    "name": "C4",
                    "midi": 60,
                    "time": 14.6875,
                    "velocity": 0.31496062992125984,
                    "duration": 0.15625
                },
                {
                    "name": "C3",
                    "midi": 48,
                    "time": 14.6875,
                    "velocity": 0.31496062992125984,
                    "duration": 0.3125
                },
                {
                    "name": "G3",
                    "midi": 55,
                    "time": 14.84375,
                    "velocity": 0.31496062992125984,
                    "duration": 0.15625
                },
                {
                    "name": "D4",
                    "midi": 62,
                    "time": 15,
                    "velocity": 0.31496062992125984,
                    "duration": 0.15625
                },
                {
                    "name": "C3",
                    "midi": 48,
                    "time": 15,
                    "velocity": 0.31496062992125984,
                    "duration": 0.3125
                },
                {
                    "name": "G#3",
                    "midi": 56,
                    "time": 15.15625,
                    "velocity": 0.31496062992125984,
                    "duration": 0.15625
                },
                {
                    "name": "D4",
                    "midi": 62,
                    "time": 15.3125,
                    "velocity": 0.31496062992125984,
                    "duration": 0.15625
                },
                {
                    "name": "C3",
                    "midi": 48,
                    "time": 15.3125,
                    "velocity": 0.4645669291338583,
                    "duration": 0.625
                },
                {
                    "name": "G#3",
                    "midi": 56,
                    "time": 15.46875,
                    "velocity": 0.31496062992125984,
                    "duration": 0.15625
                },
                {
                    "name": "D4",
                    "midi": 62,
                    "time": 15.625,
                    "velocity": 0.31496062992125984,
                    "duration": 0.15625
                },
                {
                    "name": "G#3",
                    "midi": 56,
                    "time": 15.78125,
                    "velocity": 0.31496062992125984,
                    "duration": 0.15625
                },
                {
                    "name": "D4",
                    "midi": 62,
                    "time": 15.9375,
                    "velocity": 0.31496062992125984,
                    "duration": 0.15625
                },
                {
                    "name": "C3",
                    "midi": 48,
                    "time": 15.9375,
                    "velocity": 0.31496062992125984,
                    "duration": 0.3125
                },
                {
                    "name": "G3",
                    "midi": 55,
                    "time": 16.09375,
                    "velocity": 0.31496062992125984,
                    "duration": 0.15625
                },
                {
                    "name": "C4",
                    "midi": 60,
                    "time": 16.25,
                    "velocity": 0.31496062992125984,
                    "duration": 0.15625
                },
                {
                    "name": "C3",
                    "midi": 48,
                    "time": 16.25,
                    "velocity": 0.31496062992125984,
                    "duration": 0.3125
                },
                {
                    "name": "G3",
                    "midi": 55,
                    "time": 16.40625,
                    "velocity": 0.31496062992125984,
                    "duration": 0.15625
                },
                {
                    "name": "C4",
                    "midi": 60,
                    "time": 16.5625,
                    "velocity": 0.31496062992125984,
                    "duration": 0.15625
                },
                {
                    "name": "C3",
                    "midi": 48,
                    "time": 16.5625,
                    "velocity": 0.4645669291338583,
                    "duration": 0.625
                },
                {
                    "name": "G3",
                    "midi": 55,
                    "time": 16.71875,
                    "velocity": 0.31496062992125984,
                    "duration": 0.15625
                },
                {
                    "name": "C4",
                    "midi": 60,
                    "time": 16.875,
                    "velocity": 0.31496062992125984,
                    "duration": 0.15625
                },
                {
                    "name": "G3",
                    "midi": 55,
                    "time": 17.03125,
                    "velocity": 0.31496062992125984,
                    "duration": 0.15625
                },
                {
                    "name": "C4",
                    "midi": 60,
                    "time": 17.1875,
                    "velocity": 0.31496062992125984,
                    "duration": 0.15625
                },
                {
                    "name": "C3",
                    "midi": 48,
                    "time": 17.1875,
                    "velocity": 0.31496062992125984,
                    "duration": 0.3125
                },
                {
                    "name": "G3",
                    "midi": 55,
                    "time": 17.34375,
                    "velocity": 0.31496062992125984,
                    "duration": 0.15625
                },
                {
                    "name": "D4",
                    "midi": 62,
                    "time": 17.5,
                    "velocity": 0.31496062992125984,
                    "duration": 0.15625
                },
                {
                    "name": "B2",
                    "midi": 47,
                    "time": 17.5,
                    "velocity": 0.31496062992125984,
                    "duration": 0.3125
                },
                {
                    "name": "G#3",
                    "midi": 56,
                    "time": 17.65625,
                    "velocity": 0.31496062992125984,
                    "duration": 0.15625
                },
                {
                    "name": "D4",
                    "midi": 62,
                    "time": 17.8125,
                    "velocity": 0.31496062992125984,
                    "duration": 0.15625
                },
                {
                    "name": "A#2",
                    "midi": 46,
                    "time": 17.8125,
                    "velocity": 0.4645669291338583,
                    "duration": 0.625
                },
                {
                    "name": "G#3",
                    "midi": 56,
                    "time": 17.96875,
                    "velocity": 0.31496062992125984,
                    "duration": 0.15625
                },
                {
                    "name": "D4",
                    "midi": 62,
                    "time": 18.125,
                    "velocity": 0.31496062992125984,
                    "duration": 0.15625
                },
                {
                    "name": "A#3",
                    "midi": 58,
                    "time": 18.28125,
                    "velocity": 0.31496062992125984,
                    "duration": 0.15625
                },
                {
                    "name": "C4",
                    "midi": 60,
                    "time": 18.4375,
                    "velocity": 0.31496062992125984,
                    "duration": 0.15625
                },
                {
                    "name": "F3",
                    "midi": 53,
                    "time": 18.4375,
                    "velocity": 0.31496062992125984,
                    "duration": 0.3125
                },
                {
                    "name": "A#3",
                    "midi": 58,
                    "time": 18.59375,
                    "velocity": 0.31496062992125984,
                    "duration": 0.15625
                },
                {
                    "name": "D#4",
                    "midi": 63,
                    "time": 18.75,
                    "velocity": 0.5039370078740157,
                    "duration": 0.15625
                },
                {
                    "name": "D#3",
                    "midi": 51,
                    "time": 18.75,
                    "velocity": 0.5039370078740157,
                    "duration": 0.3125
                },
                {
                    "name": "A#3",
                    "midi": 58,
                    "time": 18.90625,
                    "velocity": 0.5039370078740157,
                    "duration": 0.15625
                },
                {
                    "name": "D#4",
                    "midi": 63,
                    "time": 19.0625,
                    "velocity": 0.5039370078740157,
                    "duration": 0.15625
                },
                {
                    "name": "D#3",
                    "midi": 51,
                    "time": 19.0625,
                    "velocity": 0.5039370078740157,
                    "duration": 0.625
                },
                {
                    "name": "A#3",
                    "midi": 58,
                    "time": 19.21875,
                    "velocity": 0.5039370078740157,
                    "duration": 0.15625
                },
                {
                    "name": "D#4",
                    "midi": 63,
                    "time": 19.375,
                    "velocity": 0.5039370078740157,
                    "duration": 0.15625
                },
                {
                    "name": "A#3",
                    "midi": 58,
                    "time": 19.53125,
                    "velocity": 0.5039370078740157,
                    "duration": 0.15625
                },
                {
                    "name": "D#4",
                    "midi": 63,
                    "time": 19.6875,
                    "velocity": 0.5039370078740157,
                    "duration": 0.15625
                },
                {
                    "name": "D#3",
                    "midi": 51,
                    "time": 19.6875,
                    "velocity": 0.5039370078740157,
                    "duration": 0.3125
                },
                {
                    "name": "A#3",
                    "midi": 58,
                    "time": 19.84375,
                    "velocity": 0.5039370078740157,
                    "duration": 0.15625
                },
                {
                    "name": "F4",
                    "midi": 65,
                    "time": 20,
                    "velocity": 0.5039370078740157,
                    "duration": 0.15625
                },
                {
                    "name": "D#3",
                    "midi": 51,
                    "time": 20,
                    "velocity": 0.5039370078740157,
                    "duration": 0.3125
                },
                {
                    "name": "B3",
                    "midi": 59,
                    "time": 20.15625,
                    "velocity": 0.5039370078740157,
                    "duration": 0.15625
                },
                {
                    "name": "F4",
                    "midi": 65,
                    "time": 20.3125,
                    "velocity": 0.5039370078740157,
                    "duration": 0.15625
                },
                {
                    "name": "D#3",
                    "midi": 51,
                    "time": 20.3125,
                    "velocity": 0.5039370078740157,
                    "duration": 0.625
                },
                {
                    "name": "B3",
                    "midi": 59,
                    "time": 20.46875,
                    "velocity": 0.5039370078740157,
                    "duration": 0.15625
                },
                {
                    "name": "F4",
                    "midi": 65,
                    "time": 20.625,
                    "velocity": 0.5039370078740157,
                    "duration": 0.15625
                },
                {
                    "name": "B3",
                    "midi": 59,
                    "time": 20.78125,
                    "velocity": 0.5039370078740157,
                    "duration": 0.15625
                },
                {
                    "name": "F4",
                    "midi": 65,
                    "time": 20.9375,
                    "velocity": 0.5039370078740157,
                    "duration": 0.15625
                },
                {
                    "name": "D#3",
                    "midi": 51,
                    "time": 20.9375,
                    "velocity": 0.5039370078740157,
                    "duration": 0.3125
                },
                {
                    "name": "A#3",
                    "midi": 58,
                    "time": 21.09375,
                    "velocity": 0.5039370078740157,
                    "duration": 0.15625
                },
                {
                    "name": "D#4",
                    "midi": 63,
                    "time": 21.25,
                    "velocity": 0.5039370078740157,
                    "duration": 0.15625
                },
                {
                    "name": "D#3",
                    "midi": 51,
                    "time": 21.25,
                    "velocity": 0.5039370078740157,
                    "duration": 0.3125
                },
                {
                    "name": "A#3",
                    "midi": 58,
                    "time": 21.40625,
                    "velocity": 0.5039370078740157,
                    "duration": 0.15625
                },
                {
                    "name": "D#4",
                    "midi": 63,
                    "time": 21.5625,
                    "velocity": 0.5039370078740157,
                    "duration": 0.15625
                },
                {
                    "name": "D#3",
                    "midi": 51,
                    "time": 21.5625,
                    "velocity": 0.5039370078740157,
                    "duration": 0.625
                },
                {
                    "name": "A#3",
                    "midi": 58,
                    "time": 21.71875,
                    "velocity": 0.5039370078740157,
                    "duration": 0.15625
                },
                {
                    "name": "D#4",
                    "midi": 63,
                    "time": 21.875,
                    "velocity": 0.5039370078740157,
                    "duration": 0.15625
                },
                {
                    "name": "A#3",
                    "midi": 58,
                    "time": 22.03125,
                    "velocity": 0.5039370078740157,
                    "duration": 0.15625
                },
                {
                    "name": "D#4",
                    "midi": 63,
                    "time": 22.1875,
                    "velocity": 0.5039370078740157,
                    "duration": 0.15625
                },
                {
                    "name": "D#3",
                    "midi": 51,
                    "time": 22.1875,
                    "velocity": 0.5039370078740157,
                    "duration": 0.3125
                },
                {
                    "name": "A#3",
                    "midi": 58,
                    "time": 22.34375,
                    "velocity": 0.5039370078740157,
                    "duration": 0.15625
                },
                {
                    "name": "E3",
                    "midi": 52,
                    "time": 22.5,
                    "velocity": 0.5039370078740157,
                    "duration": 0.46875
                },
                {
                    "name": "E4",
                    "midi": 64,
                    "time": 22.5,
                    "velocity": 0.5039370078740157,
                    "duration": 0.15625
                },
                {
                    "name": "A3",
                    "midi": 57,
                    "time": 22.65625,
                    "velocity": 0.5039370078740157,
                    "duration": 0.15625
                },
                {
                    "name": "E4",
                    "midi": 64,
                    "time": 22.8125,
                    "velocity": 0.5039370078740157,
                    "duration": 0.15625
                },
                {
                    "name": "E3",
                    "midi": 52,
                    "time": 22.96875,
                    "velocity": 0.5039370078740157,
                    "duration": 0.15625
                },
                {
                    "name": "E3",
                    "midi": 52,
                    "time": 22.96875,
                    "velocity": 0.5039370078740157,
                    "duration": 0.15625
                },
                {
                    "name": "C#4",
                    "midi": 61,
                    "time": 23.125,
                    "velocity": 0.5039370078740157,
                    "duration": 0.15625
                },
                {
                    "name": "E3",
                    "midi": 52,
                    "time": 23.28125,
                    "velocity": 0.5039370078740157,
                    "duration": 0.15625
                },
                {
                    "name": "C#4",
                    "midi": 61,
                    "time": 23.4375,
                    "velocity": 0.5039370078740157,
                    "duration": 0.15625
                },
                {
                    "name": "A2",
                    "midi": 45,
                    "time": 23.59375,
                    "velocity": 0.5039370078740157,
                    "duration": 0.15625
                },
                {
                    "name": "D4",
                    "midi": 62,
                    "time": 23.75,
                    "velocity": 0.5039370078740157,
                    "duration": 0.15625
                },
                {
                    "name": "D3",
                    "midi": 50,
                    "time": 23.75,
                    "velocity": 0.5039370078740157,
                    "duration": 0.3125
                },
                {
                    "name": "A3",
                    "midi": 57,
                    "time": 23.90625,
                    "velocity": 0.5039370078740157,
                    "duration": 0.15625
                },
                {
                    "name": "D4",
                    "midi": 62,
                    "time": 24.0625,
                    "velocity": 0.5039370078740157,
                    "duration": 0.15625
                },
                {
                    "name": "D3",
                    "midi": 50,
                    "time": 24.0625,
                    "velocity": 0.5039370078740157,
                    "duration": 0.625
                },
                {
                    "name": "A3",
                    "midi": 57,
                    "time": 24.21875,
                    "velocity": 0.5039370078740157,
                    "duration": 0.15625
                },
                {
                    "name": "D4",
                    "midi": 62,
                    "time": 24.375,
                    "velocity": 0.5039370078740157,
                    "duration": 0.15625
                },
                {
                    "name": "A3",
                    "midi": 57,
                    "time": 24.53125,
                    "velocity": 0.5039370078740157,
                    "duration": 0.15625
                },
                {
                    "name": "D4",
                    "midi": 62,
                    "time": 24.6875,
                    "velocity": 0.5039370078740157,
                    "duration": 0.15625
                },
                {
                    "name": "D3",
                    "midi": 50,
                    "time": 24.6875,
                    "velocity": 0.5039370078740157,
                    "duration": 0.3125
                },
                {
                    "name": "A3",
                    "midi": 57,
                    "time": 24.84375,
                    "velocity": 0.5039370078740157,
                    "duration": 0.15625
                },
                {
                    "name": "D3",
                    "midi": 50,
                    "time": 25,
                    "velocity": 0.3937007874015748,
                    "duration": 0.46875
                },
                {
                    "name": "D4",
                    "midi": 62,
                    "time": 25,
                    "velocity": 0.3937007874015748,
                    "duration": 0.15625
                },
                {
                    "name": "G3",
                    "midi": 55,
                    "time": 25.15625,
                    "velocity": 0.3937007874015748,
                    "duration": 0.15625
                },
                {
                    "name": "D4",
                    "midi": 62,
                    "time": 25.3125,
                    "velocity": 0.3937007874015748,
                    "duration": 0.15625
                },
                {
                    "name": "D3",
                    "midi": 50,
                    "time": 25.46875,
                    "velocity": 0.3937007874015748,
                    "duration": 0.15625
                },
                {
                    "name": "D3",
                    "midi": 50,
                    "time": 25.46875,
                    "velocity": 0.3937007874015748,
                    "duration": 0.15625
                },
                {
                    "name": "B3",
                    "midi": 59,
                    "time": 25.625,
                    "velocity": 0.3937007874015748,
                    "duration": 0.15625
                },
                {
                    "name": "D3",
                    "midi": 50,
                    "time": 25.78125,
                    "velocity": 0.3937007874015748,
                    "duration": 0.15625
                },
                {
                    "name": "B3",
                    "midi": 59,
                    "time": 25.9375,
                    "velocity": 0.3937007874015748,
                    "duration": 0.15625
                },
                {
                    "name": "G2",
                    "midi": 43,
                    "time": 26.09375,
                    "velocity": 0.3937007874015748,
                    "duration": 0.15625
                },
                {
                    "name": "C3",
                    "midi": 48,
                    "time": 26.25,
                    "velocity": 0.3937007874015748,
                    "duration": 0.3125
                },
                {
                    "name": "C3",
                    "midi": 48,
                    "time": 26.5625,
                    "velocity": 0.5748031496062992,
                    "duration": 0.625
                },
                {
                    "name": "G3",
                    "midi": 55,
                    "time": 26.5625,
                    "velocity": 0.5748031496062992,
                    "duration": 0.625
                },
                {
                    "name": "C4",
                    "midi": 60,
                    "time": 26.5625,
                    "velocity": 0.5748031496062992,
                    "duration": 0.625
                },
                {
                    "name": "A#2",
                    "midi": 46,
                    "time": 27.1875,
                    "velocity": 0.48031496062992124,
                    "duration": 0.3125
                },
                {
                    "name": "E3",
                    "midi": 52,
                    "time": 27.1875,
                    "velocity": 0.48031496062992124,
                    "duration": 0.3125
                },
                {
                    "name": "C4",
                    "midi": 60,
                    "time": 27.1875,
                    "velocity": 0.48031496062992124,
                    "duration": 0.3125
                },
                {
                    "name": "A2",
                    "midi": 45,
                    "time": 27.5,
                    "velocity": 0.5039370078740157,
                    "duration": 0.3125
                },
                {
                    "name": "F3",
                    "midi": 53,
                    "time": 27.5,
                    "velocity": 0.5039370078740157,
                    "duration": 0.3125
                },
                {
                    "name": "C4",
                    "midi": 60,
                    "time": 27.5,
                    "velocity": 0.5039370078740157,
                    "duration": 0.3125
                },
                {
                    "name": "A2",
                    "midi": 45,
                    "time": 27.8125,
                    "velocity": 0.5039370078740157,
                    "duration": 0.625
                },
                {
                    "name": "F3",
                    "midi": 53,
                    "time": 27.8125,
                    "velocity": 0.5039370078740157,
                    "duration": 0.625
                },
                {
                    "name": "C4",
                    "midi": 60,
                    "time": 27.8125,
                    "velocity": 0.5039370078740157,
                    "duration": 0.625
                },
                {
                    "name": "F2",
                    "midi": 41,
                    "time": 28.4375,
                    "velocity": 0.5039370078740157,
                    "duration": 0.3125
                },
                {
                    "name": "C3",
                    "midi": 48,
                    "time": 28.4375,
                    "velocity": 0.5039370078740157,
                    "duration": 0.3125
                },
                {
                    "name": "F3",
                    "midi": 53,
                    "time": 28.4375,
                    "velocity": 0.5039370078740157,
                    "duration": 0.3125
                },
                {
                    "name": "C3",
                    "midi": 48,
                    "time": 28.75,
                    "velocity": 0.5039370078740157,
                    "duration": 0.3125
                },
                {
                    "name": "C3",
                    "midi": 48,
                    "time": 29.0625,
                    "velocity": 0.6220472440944882,
                    "duration": 0.625
                },
                {
                    "name": "G3",
                    "midi": 55,
                    "time": 29.0625,
                    "velocity": 0.6220472440944882,
                    "duration": 0.625
                },
                {
                    "name": "C4",
                    "midi": 60,
                    "time": 29.0625,
                    "velocity": 0.6220472440944882,
                    "duration": 0.625
                },
                {
                    "name": "A#2",
                    "midi": 46,
                    "time": 29.6875,
                    "velocity": 0.41732283464566927,
                    "duration": 0.3125
                },
                {
                    "name": "E3",
                    "midi": 52,
                    "time": 29.6875,
                    "velocity": 0.41732283464566927,
                    "duration": 0.3125
                },
                {
                    "name": "C4",
                    "midi": 60,
                    "time": 29.6875,
                    "velocity": 0.41732283464566927,
                    "duration": 0.3125
                },
                {
                    "name": "A2",
                    "midi": 45,
                    "time": 30,
                    "velocity": 0.3937007874015748,
                    "duration": 0.3125
                },
                {
                    "name": "F3",
                    "midi": 53,
                    "time": 30,
                    "velocity": 0.3937007874015748,
                    "duration": 0.3125
                },
                {
                    "name": "C4",
                    "midi": 60,
                    "time": 30,
                    "velocity": 0.3937007874015748,
                    "duration": 0.3125
                },
                {
                    "name": "A2",
                    "midi": 45,
                    "time": 30.3125,
                    "velocity": 0.6062992125984252,
                    "duration": 0.625
                },
                {
                    "name": "F3",
                    "midi": 53,
                    "time": 30.3125,
                    "velocity": 0.6062992125984252,
                    "duration": 0.625
                },
                {
                    "name": "C4",
                    "midi": 60,
                    "time": 30.3125,
                    "velocity": 0.6062992125984252,
                    "duration": 0.625
                },
                {
                    "name": "F2",
                    "midi": 41,
                    "time": 30.9375,
                    "velocity": 0.5748031496062992,
                    "duration": 0.3125
                },
                {
                    "name": "C3",
                    "midi": 48,
                    "time": 30.9375,
                    "velocity": 0.5748031496062992,
                    "duration": 0.3125
                },
                {
                    "name": "F3",
                    "midi": 53,
                    "time": 30.9375,
                    "velocity": 0.5748031496062992,
                    "duration": 0.3125
                },
                {
                    "name": "C2",
                    "midi": 36,
                    "time": 31.25,
                    "velocity": 0.7874015748031497,
                    "duration": 0.6298828125
                },
                {
                    "name": "G2",
                    "midi": 43,
                    "time": 31.25,
                    "velocity": 0.7874015748031497,
                    "duration": 0.6298828125
                },
                {
                    "name": "C3",
                    "midi": 48,
                    "time": 31.25,
                    "velocity": 0.7874015748031497,
                    "duration": 0.6298828125
                },
                {
                    "name": "C4",
                    "midi": 60,
                    "time": 31.25,
                    "velocity": 0.7874015748031497,
                    "duration": 0.6298828125
                },
                {
                    "name": "F4",
                    "midi": 65,
                    "time": 31.71875,
                    "velocity": 0.23622047244094488,
                    "duration": 0.15625
                },
                {
                    "name": "E4",
                    "midi": 64,
                    "time": 31.875,
                    "velocity": 0.23622047244094488,
                    "duration": 0.46875
                },
                {
                    "name": "E3",
                    "midi": 52,
                    "time": 32.03125,
                    "velocity": 0.23622047244094488,
                    "duration": 0.3125
                },
                {
                    "name": "D4",
                    "midi": 62,
                    "time": 32.34375,
                    "velocity": 0.23622047244094488,
                    "duration": 0.15625
                },
                {
                    "name": "C4",
                    "midi": 60,
                    "time": 32.5,
                    "velocity": 0.23622047244094488,
                    "duration": 0.46875
                },
                {
                    "name": "C3",
                    "midi": 48,
                    "time": 32.65625,
                    "velocity": 0.23622047244094488,
                    "duration": 0.3125
                },
                {
                    "name": "A#3",
                    "midi": 58,
                    "time": 32.96875,
                    "velocity": 0.2283464566929134,
                    "duration": 0.15625
                },
                {
                    "name": "A3",
                    "midi": 57,
                    "time": 33.125,
                    "velocity": 0.2283464566929134,
                    "duration": 0.46875
                },
                {
                    "name": "A2",
                    "midi": 45,
                    "time": 33.28125,
                    "velocity": 0.2283464566929134,
                    "duration": 0.3125
                },
                {
                    "name": "G3",
                    "midi": 55,
                    "time": 33.59375,
                    "velocity": 0.2204724409448819,
                    "duration": 0.15625
                },
                {
                    "name": "F3",
                    "midi": 53,
                    "time": 33.75,
                    "velocity": 0.2204724409448819,
                    "duration": 0.46875
                },
                {
                    "name": "F2",
                    "midi": 41,
                    "time": 33.90625,
                    "velocity": 0.2204724409448819,
                    "duration": 0.3125
                },
                {
                    "name": "E3",
                    "midi": 52,
                    "time": 34.21875,
                    "velocity": 0.2125984251968504,
                    "duration": 0.15625
                },
                {
                    "name": "D3",
                    "midi": 50,
                    "time": 34.375,
                    "velocity": 0.2125984251968504,
                    "duration": 0.46875
                },
                {
                    "name": "D2",
                    "midi": 38,
                    "time": 34.53125,
                    "velocity": 0.2125984251968504,
                    "duration": 0.3125
                },
                {
                    "name": "C4",
                    "midi": 60,
                    "time": 34.84375,
                    "velocity": 0.2047244094488189,
                    "duration": 0.15625
                },
                {
                    "name": "B3",
                    "midi": 59,
                    "time": 35,
                    "velocity": 0.2047244094488189,
                    "duration": 0.46875
                },
                {
                    "name": "B2",
                    "midi": 47,
                    "time": 35.15625,
                    "velocity": 0.1968503937007874,
                    "duration": 0.3125
                },
                {
                    "name": "A3",
                    "midi": 57,
                    "time": 35.46875,
                    "velocity": 0.1968503937007874,
                    "duration": 0.15625
                },
                {
                    "name": "G3",
                    "midi": 55,
                    "time": 35.625,
                    "velocity": 0.1968503937007874,
                    "duration": 0.46875
                },
                {
                    "name": "G2",
                    "midi": 43,
                    "time": 35.78125,
                    "velocity": 0.1889763779527559,
                    "duration": 0.3125
                },
                {
                    "name": "F3",
                    "midi": 53,
                    "time": 36.09375,
                    "velocity": 0.1889763779527559,
                    "duration": 0.15625
                },
                {
                    "name": "E3",
                    "midi": 52,
                    "time": 36.25,
                    "velocity": 0.1889763779527559,
                    "duration": 0.46875
                },
                {
                    "name": "E2",
                    "midi": 40,
                    "time": 36.40625,
                    "velocity": 0.18110236220472442,
                    "duration": 0.3125
                },
                {
                    "name": "D3",
                    "midi": 50,
                    "time": 36.71875,
                    "velocity": 0.18110236220472442,
                    "duration": 0.15625
                },
                {
                    "name": "C3",
                    "midi": 48,
                    "time": 36.875,
                    "velocity": 0.1732283464566929,
                    "duration": 0.46875
                },
                {
                    "name": "C2",
                    "midi": 36,
                    "time": 37.03125,
                    "velocity": 0.1732283464566929,
                    "duration": 0.3125
                },
                {
                    "name": "A#3",
                    "midi": 58,
                    "time": 37.34375,
                    "velocity": 0.1732283464566929,
                    "duration": 0.15625
                },
                {
                    "name": "A3",
                    "midi": 57,
                    "time": 37.5,
                    "velocity": 0.16535433070866143,
                    "duration": 0.46875
                },
                {
                    "name": "A2",
                    "midi": 45,
                    "time": 37.65625,
                    "velocity": 0.16535433070866143,
                    "duration": 0.3125
                },
                {
                    "name": "G3",
                    "midi": 55,
                    "time": 37.96875,
                    "velocity": 0.16535433070866143,
                    "duration": 0.15625
                },
                {
                    "name": "F3",
                    "midi": 53,
                    "time": 38.125,
                    "velocity": 0.15748031496062992,
                    "duration": 0.46875
                },
                {
                    "name": "F2",
                    "midi": 41,
                    "time": 38.28125,
                    "velocity": 0.15748031496062992,
                    "duration": 0.3125
                },
                {
                    "name": "E3",
                    "midi": 52,
                    "time": 38.59375,
                    "velocity": 0.15748031496062992,
                    "duration": 0.15625
                },
                {
                    "name": "D3",
                    "midi": 50,
                    "time": 38.75,
                    "velocity": 0.14960629921259844,
                    "duration": 0.46875
                },
                {
                    "name": "D2",
                    "midi": 38,
                    "time": 38.90625,
                    "velocity": 0.14960629921259844,
                    "duration": 0.3125
                },
                {
                    "name": "C3",
                    "midi": 48,
                    "time": 39.21875,
                    "velocity": 0.14173228346456693,
                    "duration": 0.15625
                },
                {
                    "name": "B2",
                    "midi": 47,
                    "time": 39.375,
                    "velocity": 0.14173228346456693,
                    "duration": 0.46875
                },
                {
                    "name": "B1",
                    "midi": 35,
                    "time": 39.53125,
                    "velocity": 0.14173228346456693,
                    "duration": 0.3125
                },
                {
                    "name": "A2",
                    "midi": 45,
                    "time": 39.84375,
                    "velocity": 0.13385826771653545,
                    "duration": 0.15625
                },
                {
                    "name": "G2",
                    "midi": 43,
                    "time": 40,
                    "velocity": 0.13385826771653545,
                    "duration": 0.46875
                },
                {
                    "name": "G1",
                    "midi": 31,
                    "time": 40.15625,
                    "velocity": 0.13385826771653545,
                    "duration": 0.3125
                },
                {
                    "name": "F2",
                    "midi": 41,
                    "time": 40.46875,
                    "velocity": 0.12598425196850394,
                    "duration": 0.15625
                },
                {
                    "name": "E2",
                    "midi": 40,
                    "time": 40.625,
                    "velocity": 0.12598425196850394,
                    "duration": 0.625
                },
                {
                    "name": "E1",
                    "midi": 28,
                    "time": 40.78125,
                    "velocity": 0.12598425196850394,
                    "duration": 0.15625
                },
                {
                    "name": "F#1",
                    "midi": 30,
                    "time": 40.9375,
                    "velocity": 0.12598425196850394,
                    "duration": 0.15625
                },
                {
                    "name": "G#1",
                    "midi": 32,
                    "time": 41.09375,
                    "velocity": 0.11811023622047244,
                    "duration": 0.15625
                },
                {
                    "name": "A1",
                    "midi": 33,
                    "time": 41.25,
                    "velocity": 0.15748031496062992,
                    "duration": 0.15625
                },
                {
                    "name": "C2",
                    "midi": 36,
                    "time": 41.25,
                    "velocity": 0.15748031496062992,
                    "duration": 0.15625
                },
                {
                    "name": "B1",
                    "midi": 35,
                    "time": 41.40625,
                    "velocity": 0.1732283464566929,
                    "duration": 0.15625
                },
                {
                    "name": "D2",
                    "midi": 38,
                    "time": 41.40625,
                    "velocity": 0.1732283464566929,
                    "duration": 0.15625
                },
                {
                    "name": "C2",
                    "midi": 36,
                    "time": 41.5625,
                    "velocity": 0.1889763779527559,
                    "duration": 0.15625
                },
                {
                    "name": "E2",
                    "midi": 40,
                    "time": 41.5625,
                    "velocity": 0.1889763779527559,
                    "duration": 0.15625
                },
                {
                    "name": "D2",
                    "midi": 38,
                    "time": 41.71875,
                    "velocity": 0.2047244094488189,
                    "duration": 0.15625
                },
                {
                    "name": "F2",
                    "midi": 41,
                    "time": 41.71875,
                    "velocity": 0.2047244094488189,
                    "duration": 0.15625
                },
                {
                    "name": "E2",
                    "midi": 40,
                    "time": 41.875,
                    "velocity": 0.2204724409448819,
                    "duration": 0.15625
                },
                {
                    "name": "G2",
                    "midi": 43,
                    "time": 41.875,
                    "velocity": 0.2204724409448819,
                    "duration": 0.15625
                },
                {
                    "name": "F2",
                    "midi": 41,
                    "time": 42.03125,
                    "velocity": 0.2283464566929134,
                    "duration": 0.15625
                },
                {
                    "name": "A2",
                    "midi": 45,
                    "time": 42.03125,
                    "velocity": 0.2283464566929134,
                    "duration": 0.15625
                },
                {
                    "name": "G2",
                    "midi": 43,
                    "time": 42.1875,
                    "velocity": 0.2440944881889764,
                    "duration": 0.15625
                },
                {
                    "name": "B2",
                    "midi": 47,
                    "time": 42.1875,
                    "velocity": 0.2440944881889764,
                    "duration": 0.15625
                },
                {
                    "name": "A2",
                    "midi": 45,
                    "time": 42.34375,
                    "velocity": 0.25984251968503935,
                    "duration": 0.15625
                },
                {
                    "name": "C3",
                    "midi": 48,
                    "time": 42.34375,
                    "velocity": 0.25984251968503935,
                    "duration": 0.15625
                },
                {
                    "name": "G2",
                    "midi": 43,
                    "time": 42.5,
                    "velocity": 0.2755905511811024,
                    "duration": 0.15625
                },
                {
                    "name": "D3",
                    "midi": 50,
                    "time": 42.5,
                    "velocity": 0.2755905511811024,
                    "duration": 0.15625
                },
                {
                    "name": "C3",
                    "midi": 48,
                    "time": 42.65625,
                    "velocity": 0.29133858267716534,
                    "duration": 0.15625
                },
                {
                    "name": "E3",
                    "midi": 52,
                    "time": 42.65625,
                    "velocity": 0.29133858267716534,
                    "duration": 0.15625
                },
                {
                    "name": "B2",
                    "midi": 47,
                    "time": 42.8125,
                    "velocity": 0.30708661417322836,
                    "duration": 0.15625
                },
                {
                    "name": "D3",
                    "midi": 50,
                    "time": 42.8125,
                    "velocity": 0.30708661417322836,
                    "duration": 0.15625
                },
                {
                    "name": "A#2",
                    "midi": 46,
                    "time": 42.96875,
                    "velocity": 0.3228346456692913,
                    "duration": 0.15625
                },
                {
                    "name": "C#3",
                    "midi": 49,
                    "time": 42.96875,
                    "velocity": 0.3228346456692913,
                    "duration": 0.15625
                },
                {
                    "name": "A2",
                    "midi": 45,
                    "time": 43.125,
                    "velocity": 0.33858267716535434,
                    "duration": 0.15625
                },
                {
                    "name": "C3",
                    "midi": 48,
                    "time": 43.125,
                    "velocity": 0.33858267716535434,
                    "duration": 0.15625
                },
                {
                    "name": "G2",
                    "midi": 43,
                    "time": 43.28125,
                    "velocity": 0.3464566929133858,
                    "duration": 0.15625
                },
                {
                    "name": "B2",
                    "midi": 47,
                    "time": 43.28125,
                    "velocity": 0.3464566929133858,
                    "duration": 0.15625
                },
                {
                    "name": "F#2",
                    "midi": 42,
                    "time": 43.4375,
                    "velocity": 0.36220472440944884,
                    "duration": 0.15625
                },
                {
                    "name": "A2",
                    "midi": 45,
                    "time": 43.4375,
                    "velocity": 0.36220472440944884,
                    "duration": 0.15625
                },
                {
                    "name": "F2",
                    "midi": 41,
                    "time": 43.59375,
                    "velocity": 0.3779527559055118,
                    "duration": 0.15625
                },
                {
                    "name": "G#2",
                    "midi": 44,
                    "time": 43.59375,
                    "velocity": 0.3779527559055118,
                    "duration": 0.15625
                },
                {
                    "name": "E2",
                    "midi": 40,
                    "time": 43.75,
                    "velocity": 0.3937007874015748,
                    "duration": 0.15625
                },
                {
                    "name": "G2",
                    "midi": 43,
                    "time": 43.75,
                    "velocity": 0.3937007874015748,
                    "duration": 0.15625
                },
                {
                    "name": "D2",
                    "midi": 38,
                    "time": 43.90625,
                    "velocity": 0.4094488188976378,
                    "duration": 0.15625
                },
                {
                    "name": "F2",
                    "midi": 41,
                    "time": 43.90625,
                    "velocity": 0.4094488188976378,
                    "duration": 0.15625
                },
                {
                    "name": "C2",
                    "midi": 36,
                    "time": 44.0625,
                    "velocity": 0.4251968503937008,
                    "duration": 0.15625
                },
                {
                    "name": "E2",
                    "midi": 40,
                    "time": 44.0625,
                    "velocity": 0.4251968503937008,
                    "duration": 0.15625
                },
                {
                    "name": "A#1",
                    "midi": 34,
                    "time": 44.21875,
                    "velocity": 0.4409448818897638,
                    "duration": 0.15625
                },
                {
                    "name": "A1",
                    "midi": 33,
                    "time": 44.375,
                    "velocity": 0.4566929133858268,
                    "duration": 0.15625
                },
                {
                    "name": "C#2",
                    "midi": 37,
                    "time": 44.53125,
                    "velocity": 0.4645669291338583,
                    "duration": 0.15625
                },
                {
                    "name": "D2",
                    "midi": 38,
                    "time": 44.6875,
                    "velocity": 0.48031496062992124,
                    "duration": 0.15625
                },
                {
                    "name": "F#2",
                    "midi": 42,
                    "time": 44.84375,
                    "velocity": 0.49606299212598426,
                    "duration": 0.15625
                },
                {
                    "name": "B1",
                    "midi": 35,
                    "time": 45,
                    "velocity": 0.5118110236220472,
                    "duration": 0.15625
                },
                {
                    "name": "D#2",
                    "midi": 39,
                    "time": 45.15625,
                    "velocity": 0.5275590551181102,
                    "duration": 0.15625
                },
                {
                    "name": "E2",
                    "midi": 40,
                    "time": 45.3125,
                    "velocity": 0.5433070866141733,
                    "duration": 0.15625
                },
                {
                    "name": "G2",
                    "midi": 43,
                    "time": 45.46875,
                    "velocity": 0.5590551181102362,
                    "duration": 0.15625
                },
                {
                    "name": "C2",
                    "midi": 36,
                    "time": 45.625,
                    "velocity": 0.5748031496062992,
                    "duration": 0.15625
                },
                {
                    "name": "E2",
                    "midi": 40,
                    "time": 45.78125,
                    "velocity": 0.5826771653543307,
                    "duration": 0.15625
                },
                {
                    "name": "F2",
                    "midi": 41,
                    "time": 45.9375,
                    "velocity": 0.5984251968503937,
                    "duration": 0.15625
                },
                {
                    "name": "A2",
                    "midi": 45,
                    "time": 46.09375,
                    "velocity": 0.6141732283464567,
                    "duration": 0.15625
                },
                {
                    "name": "D3",
                    "midi": 50,
                    "time": 46.25,
                    "velocity": 0.6299212598425197,
                    "duration": 0.15625
                },
                {
                    "name": "F#3",
                    "midi": 54,
                    "time": 46.40625,
                    "velocity": 0.6456692913385826,
                    "duration": 0.15625
                },
                {
                    "name": "G3",
                    "midi": 55,
                    "time": 46.5625,
                    "velocity": 0.6614173228346457,
                    "duration": 0.15625
                },
                {
                    "name": "B3",
                    "midi": 59,
                    "time": 46.71875,
                    "velocity": 0.6771653543307087,
                    "duration": 0.15625
                },
                {
                    "name": "E4",
                    "midi": 64,
                    "time": 46.875,
                    "velocity": 0.6929133858267716,
                    "duration": 0.15625
                },
                {
                    "name": "G#4",
                    "midi": 68,
                    "time": 47.03125,
                    "velocity": 0.7007874015748031,
                    "duration": 0.15625
                },
                {
                    "name": "A4",
                    "midi": 69,
                    "time": 47.1875,
                    "velocity": 0.7165354330708661,
                    "duration": 0.15625
                },
                {
                    "name": "E4",
                    "midi": 64,
                    "time": 47.34375,
                    "velocity": 0.7322834645669292,
                    "duration": 0.15625
                },
                {
                    "name": "A#4",
                    "midi": 70,
                    "time": 47.34375,
                    "velocity": 0.7322834645669292,
                    "duration": 0.15625
                },
                {
                    "name": "D4",
                    "midi": 62,
                    "time": 47.5,
                    "velocity": 0.7874015748031497,
                    "duration": 0.3125
                },
                {
                    "name": "B4",
                    "midi": 71,
                    "time": 47.5,
                    "velocity": 0.7874015748031497,
                    "duration": 0.3125
                },
                {
                    "name": "C#4",
                    "midi": 61,
                    "time": 47.96875,
                    "velocity": 0.7322834645669292,
                    "duration": 0.15625
                },
                {
                    "name": "D4",
                    "midi": 62,
                    "time": 48.125,
                    "velocity": 0.7165354330708661,
                    "duration": 0.15625
                },
                {
                    "name": "A#4",
                    "midi": 70,
                    "time": 48.28125,
                    "velocity": 0.7007874015748031,
                    "duration": 0.15625
                },
                {
                    "name": "B4",
                    "midi": 71,
                    "time": 48.4375,
                    "velocity": 0.6771653543307087,
                    "duration": 0.15625
                },
                {
                    "name": "A#4",
                    "midi": 70,
                    "time": 48.59375,
                    "velocity": 0.6614173228346457,
                    "duration": 0.15625
                },
                {
                    "name": "B4",
                    "midi": 71,
                    "time": 48.75,
                    "velocity": 0.6456692913385826,
                    "duration": 0.15625
                },
                {
                    "name": "G#4",
                    "midi": 68,
                    "time": 48.90625,
                    "velocity": 0.6299212598425197,
                    "duration": 0.15625
                },
                {
                    "name": "A4",
                    "midi": 69,
                    "time": 49.0625,
                    "velocity": 0.6062992125984252,
                    "duration": 0.15625
                },
                {
                    "name": "F#4",
                    "midi": 66,
                    "time": 49.21875,
                    "velocity": 0.5905511811023622,
                    "duration": 0.15625
                },
                {
                    "name": "G4",
                    "midi": 67,
                    "time": 49.375,
                    "velocity": 0.5748031496062992,
                    "duration": 0.15625
                },
                {
                    "name": "D#4",
                    "midi": 63,
                    "time": 49.53125,
                    "velocity": 0.5590551181102362,
                    "duration": 0.15625
                },
                {
                    "name": "E4",
                    "midi": 64,
                    "time": 49.6875,
                    "velocity": 0.5354330708661418,
                    "duration": 0.15625
                },
                {
                    "name": "C#4",
                    "midi": 61,
                    "time": 49.84375,
                    "velocity": 0.5196850393700787,
                    "duration": 0.15625
                },
                {
                    "name": "D4",
                    "midi": 62,
                    "time": 50,
                    "velocity": 0.5039370078740157,
                    "duration": 0.3125
                },
                {
                    "name": "C#3",
                    "midi": 49,
                    "time": 50.46875,
                    "velocity": 0.48031496062992124,
                    "duration": 0.15625
                },
                {
                    "name": "D3",
                    "midi": 50,
                    "time": 50.625,
                    "velocity": 0.47244094488188976,
                    "duration": 0.15625
                },
                {
                    "name": "A#3",
                    "midi": 58,
                    "time": 50.78125,
                    "velocity": 0.4645669291338583,
                    "duration": 0.15625
                },
                {
                    "name": "B3",
                    "midi": 59,
                    "time": 50.9375,
                    "velocity": 0.4566929133858268,
                    "duration": 0.15625
                },
                {
                    "name": "A#3",
                    "midi": 58,
                    "time": 51.09375,
                    "velocity": 0.44881889763779526,
                    "duration": 0.15625
                },
                {
                    "name": "B3",
                    "midi": 59,
                    "time": 51.25,
                    "velocity": 0.4330708661417323,
                    "duration": 0.15625
                },
                {
                    "name": "G#3",
                    "midi": 56,
                    "time": 51.40625,
                    "velocity": 0.4251968503937008,
                    "duration": 0.15625
                },
                {
                    "name": "A3",
                    "midi": 57,
                    "time": 51.5625,
                    "velocity": 0.41732283464566927,
                    "duration": 0.15625
                },
                {
                    "name": "F#3",
                    "midi": 54,
                    "time": 51.71875,
                    "velocity": 0.4094488188976378,
                    "duration": 0.15625
                },
                {
                    "name": "G3",
                    "midi": 55,
                    "time": 51.875,
                    "velocity": 0.4015748031496063,
                    "duration": 0.15625
                },
                {
                    "name": "D#3",
                    "midi": 51,
                    "time": 52.03125,
                    "velocity": 0.3937007874015748,
                    "duration": 0.15625
                },
                {
                    "name": "E3",
                    "midi": 52,
                    "time": 52.1875,
                    "velocity": 0.3858267716535433,
                    "duration": 0.15625
                },
                {
                    "name": "F3",
                    "midi": 53,
                    "time": 52.34375,
                    "velocity": 0.3779527559055118,
                    "duration": 0.15625
                },
                {
                    "name": "F#3",
                    "midi": 54,
                    "time": 52.5,
                    "velocity": 0.3700787401574803,
                    "duration": 0.15625
                },
                {
                    "name": "D3",
                    "midi": 50,
                    "time": 52.5,
                    "velocity": 0.3700787401574803,
                    "duration": 0.3125
                },
                {
                    "name": "C4",
                    "midi": 60,
                    "time": 52.5,
                    "velocity": 0.3700787401574803,
                    "duration": 0.3125
                },
                {
                    "name": "F3",
                    "midi": 53,
                    "time": 52.65625,
                    "velocity": 0.36220472440944884,
                    "duration": 0.15625
                },
                {
                    "name": "F#3",
                    "midi": 54,
                    "time": 52.8125,
                    "velocity": 0.3543307086614173,
                    "duration": 0.15625
                },
                {
                    "name": "D3",
                    "midi": 50,
                    "time": 52.8125,
                    "velocity": 0.3543307086614173,
                    "duration": 0.625
                },
                {
                    "name": "C4",
                    "midi": 60,
                    "time": 52.8125,
                    "velocity": 0.3543307086614173,
                    "duration": 0.625
                },
                {
                    "name": "G3",
                    "midi": 55,
                    "time": 52.96875,
                    "velocity": 0.3464566929133858,
                    "duration": 0.15625
                },
                {
                    "name": "A3",
                    "midi": 57,
                    "time": 53.125,
                    "velocity": 0.33858267716535434,
                    "duration": 0.15625
                },
                {
                    "name": "G#3",
                    "midi": 56,
                    "time": 53.28125,
                    "velocity": 0.33070866141732286,
                    "duration": 0.15625
                },
                {
                    "name": "A3",
                    "midi": 57,
                    "time": 53.4375,
                    "velocity": 0.3228346456692913,
                    "duration": 0.15625
                },
                {
                    "name": "D3",
                    "midi": 50,
                    "time": 53.4375,
                    "velocity": 0.3228346456692913,
                    "duration": 0.3125
                },
                {
                    "name": "C4",
                    "midi": 60,
                    "time": 53.4375,
                    "velocity": 0.3228346456692913,
                    "duration": 0.3125
                },
                {
                    "name": "G3",
                    "midi": 55,
                    "time": 53.59375,
                    "velocity": 0.31496062992125984,
                    "duration": 0.15625
                },
                {
                    "name": "F3",
                    "midi": 53,
                    "time": 53.75,
                    "velocity": 0.2992125984251969,
                    "duration": 0.15625
                },
                {
                    "name": "D3",
                    "midi": 50,
                    "time": 53.75,
                    "velocity": 0.2992125984251969,
                    "duration": 0.3125
                },
                {
                    "name": "A3",
                    "midi": 57,
                    "time": 53.75,
                    "velocity": 0.2992125984251969,
                    "duration": 0.3125
                },
                {
                    "name": "F#3",
                    "midi": 54,
                    "time": 53.90625,
                    "velocity": 0.29133858267716534,
                    "duration": 0.15625
                },
                {
                    "name": "G3",
                    "midi": 55,
                    "time": 54.0625,
                    "velocity": 0.28346456692913385,
                    "duration": 0.15625
                },
                {
                    "name": "D3",
                    "midi": 50,
                    "time": 54.0625,
                    "velocity": 0.28346456692913385,
                    "duration": 0.625
                },
                {
                    "name": "C4",
                    "midi": 60,
                    "time": 54.0625,
                    "velocity": 0.28346456692913385,
                    "duration": 0.625
                },
                {
                    "name": "A3",
                    "midi": 57,
                    "time": 54.21875,
                    "velocity": 0.2755905511811024,
                    "duration": 0.15625
                },
                {
                    "name": "F3",
                    "midi": 53,
                    "time": 54.375,
                    "velocity": 0.2677165354330709,
                    "duration": 0.15625
                },
                {
                    "name": "F#3",
                    "midi": 54,
                    "time": 54.53125,
                    "velocity": 0.25984251968503935,
                    "duration": 0.15625
                },
                {
                    "name": "G3",
                    "midi": 55,
                    "time": 54.6875,
                    "velocity": 0.25196850393700787,
                    "duration": 0.15625
                },
                {
                    "name": "D3",
                    "midi": 50,
                    "time": 54.6875,
                    "velocity": 0.25196850393700787,
                    "duration": 0.3125
                },
                {
                    "name": "C4",
                    "midi": 60,
                    "time": 54.6875,
                    "velocity": 0.25196850393700787,
                    "duration": 0.3125
                },
                {
                    "name": "A3",
                    "midi": 57,
                    "time": 54.84375,
                    "velocity": 0.2440944881889764,
                    "duration": 0.15625
                },
                {
                    "name": "B3",
                    "midi": 59,
                    "time": 55,
                    "velocity": 0.2755905511811024,
                    "duration": 0.625
                },
                {
                    "name": "G2",
                    "midi": 43,
                    "time": 55,
                    "velocity": 0.2755905511811024,
                    "duration": 1.25
                },
                {
                    "name": "G3",
                    "midi": 55,
                    "time": 55.625,
                    "velocity": 0.2755905511811024,
                    "duration": 0.46875
                },
                {
                    "name": "E3",
                    "midi": 52,
                    "time": 56.09375,
                    "velocity": 0.2755905511811024,
                    "duration": 0.15625
                },
                {
                    "name": "D3",
                    "midi": 50,
                    "time": 56.25,
                    "velocity": 0.2755905511811024,
                    "duration": 1.09375
                },
                {
                    "name": "G2",
                    "midi": 43,
                    "time": 56.25,
                    "velocity": 0.2755905511811024,
                    "duration": 1.25
                },
                {
                    "name": "B3",
                    "midi": 59,
                    "time": 57.34375,
                    "velocity": 0.2755905511811024,
                    "duration": 0.15625
                },
                {
                    "name": "A3",
                    "midi": 57,
                    "time": 57.5,
                    "velocity": 0.2755905511811024,
                    "duration": 0.46875
                },
                {
                    "name": "G2",
                    "midi": 43,
                    "time": 57.5,
                    "velocity": 0.2755905511811024,
                    "duration": 0.625
                },
                {
                    "name": "D#3",
                    "midi": 51,
                    "time": 57.96875,
                    "velocity": 0.2755905511811024,
                    "duration": 0.15625
                },
                {
                    "name": "D3",
                    "midi": 50,
                    "time": 58.125,
                    "velocity": 0.2755905511811024,
                    "duration": 0.46875
                },
                {
                    "name": "G2",
                    "midi": 43,
                    "time": 58.125,
                    "velocity": 0.2755905511811024,
                    "duration": 0.625
                },
                {
                    "name": "F#3",
                    "midi": 54,
                    "time": 58.59375,
                    "velocity": 0.2755905511811024,
                    "duration": 0.15625
                },
                {
                    "name": "G2",
                    "midi": 43,
                    "time": 58.75,
                    "velocity": 0.2755905511811024,
                    "duration": 0.9375
                },
                {
                    "name": "G3",
                    "midi": 55,
                    "time": 58.75,
                    "velocity": 0.2755905511811024,
                    "duration": 0.9375
                },
                {
                    "name": "E3",
                    "midi": 52,
                    "time": 59.84375,
                    "velocity": 0.2755905511811024,
                    "duration": 0.15625
                },
                {
                    "name": "D3",
                    "midi": 50,
                    "time": 60,
                    "velocity": 0.15748031496062992,
                    "duration": 0.15625
                },
                {
                    "name": "G2",
                    "midi": 43,
                    "time": 60,
                    "velocity": 0.15748031496062992,
                    "duration": 1.25
                },
                {
                    "name": "C#3",
                    "midi": 49,
                    "time": 60.15625,
                    "velocity": 0.15748031496062992,
                    "duration": 0.15625
                },
                {
                    "name": "D3",
                    "midi": 50,
                    "time": 60.3125,
                    "velocity": 0.15748031496062992,
                    "duration": 0.15625
                },
                {
                    "name": "C#3",
                    "midi": 49,
                    "time": 60.46875,
                    "velocity": 0.15748031496062992,
                    "duration": 0.15625
                },
                {
                    "name": "D3",
                    "midi": 50,
                    "time": 60.625,
                    "velocity": 0.15748031496062992,
                    "duration": 0.15625
                },
                {
                    "name": "C#3",
                    "midi": 49,
                    "time": 60.78125,
                    "velocity": 0.15748031496062992,
                    "duration": 0.15625
                },
                {
                    "name": "D3",
                    "midi": 50,
                    "time": 60.9375,
                    "velocity": 0.15748031496062992,
                    "duration": 0.15625
                },
                {
                    "name": "G3",
                    "midi": 55,
                    "time": 61.09375,
                    "velocity": 0.15748031496062992,
                    "duration": 0.15625
                },
                {
                    "name": "B3",
                    "midi": 59,
                    "time": 61.25,
                    "velocity": 0.15748031496062992,
                    "duration": 0.15625
                },
                {
                    "name": "G2",
                    "midi": 43,
                    "time": 61.25,
                    "velocity": 0.15748031496062992,
                    "duration": 1.25
                },
                {
                    "name": "D3",
                    "midi": 50,
                    "time": 61.25,
                    "velocity": 0.15748031496062992,
                    "duration": 1.25
                },
                {
                    "name": "A#3",
                    "midi": 58,
                    "time": 61.40625,
                    "velocity": 0.15748031496062992,
                    "duration": 0.15625
                },
                {
                    "name": "B3",
                    "midi": 59,
                    "time": 61.5625,
                    "velocity": 0.15748031496062992,
                    "duration": 0.15625
                },
                {
                    "name": "A#3",
                    "midi": 58,
                    "time": 61.71875,
                    "velocity": 0.15748031496062992,
                    "duration": 0.15625
                },
                {
                    "name": "B3",
                    "midi": 59,
                    "time": 61.875,
                    "velocity": 0.15748031496062992,
                    "duration": 0.15625
                },
                {
                    "name": "A#3",
                    "midi": 58,
                    "time": 62.03125,
                    "velocity": 0.15748031496062992,
                    "duration": 0.15625
                },
                {
                    "name": "B3",
                    "midi": 59,
                    "time": 62.1875,
                    "velocity": 0.15748031496062992,
                    "duration": 0.15625
                },
                {
                    "name": "G3",
                    "midi": 55,
                    "time": 62.34375,
                    "velocity": 0.15748031496062992,
                    "duration": 0.15625
                },
                {
                    "name": "C4",
                    "midi": 60,
                    "time": 62.5,
                    "velocity": 0.15748031496062992,
                    "duration": 0.15625
                },
                {
                    "name": "C3",
                    "midi": 48,
                    "time": 62.5,
                    "velocity": 0.15748031496062992,
                    "duration": 0.625
                },
                {
                    "name": "D#3",
                    "midi": 51,
                    "time": 62.5,
                    "velocity": 0.15748031496062992,
                    "duration": 0.625
                },
                {
                    "name": "B3",
                    "midi": 59,
                    "time": 62.65625,
                    "velocity": 0.15748031496062992,
                    "duration": 0.15625
                },
                {
                    "name": "C4",
                    "midi": 60,
                    "time": 62.8125,
                    "velocity": 0.15748031496062992,
                    "duration": 0.15625
                },
                {
                    "name": "G3",
                    "midi": 55,
                    "time": 62.96875,
                    "velocity": 0.15748031496062992,
                    "duration": 0.15625
                },
                {
                    "name": "F#3",
                    "midi": 54,
                    "time": 63.125,
                    "velocity": 0.15748031496062992,
                    "duration": 0.15625
                },
                {
                    "name": "D3",
                    "midi": 50,
                    "time": 63.125,
                    "velocity": 0.15748031496062992,
                    "duration": 0.625
                },
                {
                    "name": "F3",
                    "midi": 53,
                    "time": 63.28125,
                    "velocity": 0.15748031496062992,
                    "duration": 0.15625
                },
                {
                    "name": "F#3",
                    "midi": 54,
                    "time": 63.4375,
                    "velocity": 0.15748031496062992,
                    "duration": 0.15625
                },
                {
                    "name": "A3",
                    "midi": 57,
                    "time": 63.59375,
                    "velocity": 0.15748031496062992,
                    "duration": 0.15625
                },
                {
                    "name": "G2",
                    "midi": 43,
                    "time": 63.75,
                    "velocity": 0.15748031496062992,
                    "duration": 1.09375
                },
                {
                    "name": "D3",
                    "midi": 50,
                    "time": 63.75,
                    "velocity": 0.15748031496062992,
                    "duration": 1.09375
                },
                {
                    "name": "G3",
                    "midi": 55,
                    "time": 64.84375,
                    "velocity": 0.15748031496062992,
                    "duration": 0.78125
                },
                {
                    "name": "B3",
                    "midi": 59,
                    "time": 65.15625,
                    "velocity": 0.14173228346456693,
                    "duration": 0.3125
                },
                {
                    "name": "E4",
                    "midi": 64,
                    "time": 65.3125,
                    "velocity": 0.14173228346456693,
                    "duration": 0.15625
                },
                {
                    "name": "A#3",
                    "midi": 58,
                    "time": 65.46875,
                    "velocity": 0.14173228346456693,
                    "duration": 0.15625
                },
                {
                    "name": "A3",
                    "midi": 57,
                    "time": 65.625,
                    "velocity": 0.14173228346456693,
                    "duration": 0.15625
                },
                {
                    "name": "F#3",
                    "midi": 54,
                    "time": 65.625,
                    "velocity": 0.14173228346456693,
                    "duration": 0.3125
                },
                {
                    "name": "D4",
                    "midi": 62,
                    "time": 65.78125,
                    "velocity": 0.14173228346456693,
                    "duration": 0.15625
                },
                {
                    "name": "F#4",
                    "midi": 66,
                    "time": 65.9375,
                    "velocity": 0.14173228346456693,
                    "duration": 0.15625
                },
                {
                    "name": "A3",
                    "midi": 57,
                    "time": 66.09375,
                    "velocity": 0.14173228346456693,
                    "duration": 0.15625
                },
                {
                    "name": "E3",
                    "midi": 52,
                    "time": 66.25,
                    "velocity": 0.14173228346456693,
                    "duration": 0.15625
                },
                {
                    "name": "E3",
                    "midi": 52,
                    "time": 66.25,
                    "velocity": 0.14173228346456693,
                    "duration": 0.3125
                },
                {
                    "name": "D4",
                    "midi": 62,
                    "time": 66.40625,
                    "velocity": 0.14173228346456693,
                    "duration": 0.15625
                },
                {
                    "name": "A3",
                    "midi": 57,
                    "time": 66.5625,
                    "velocity": 0.14173228346456693,
                    "duration": 0.15625
                },
                {
                    "name": "A3",
                    "midi": 57,
                    "time": 66.5625,
                    "velocity": 0.14173228346456693,
                    "duration": 0.3125
                },
                {
                    "name": "C#4",
                    "midi": 61,
                    "time": 66.71875,
                    "velocity": 0.14173228346456693,
                    "duration": 0.15625
                },
                {
                    "name": "D3",
                    "midi": 50,
                    "time": 66.875,
                    "velocity": 0.14173228346456693,
                    "duration": 0.15625
                },
                {
                    "name": "D3",
                    "midi": 50,
                    "time": 66.875,
                    "velocity": 0.14173228346456693,
                    "duration": 0.46875
                },
                {
                    "name": "A3",
                    "midi": 57,
                    "time": 67.03125,
                    "velocity": 0.14173228346456693,
                    "duration": 0.15625
                },
                {
                    "name": "D4",
                    "midi": 62,
                    "time": 67.1875,
                    "velocity": 0.14173228346456693,
                    "duration": 0.15625
                },
                {
                    "name": "C3",
                    "midi": 48,
                    "time": 67.34375,
                    "velocity": 0.14173228346456693,
                    "duration": 0.78125
                },
                {
                    "name": "E3",
                    "midi": 52,
                    "time": 67.65625,
                    "velocity": 0.14173228346456693,
                    "duration": 0.3125
                },
                {
                    "name": "A3",
                    "midi": 57,
                    "time": 67.8125,
                    "velocity": 0.14173228346456693,
                    "duration": 0.15625
                },
                {
                    "name": "D#3",
                    "midi": 51,
                    "time": 67.96875,
                    "velocity": 0.14173228346456693,
                    "duration": 0.15625
                },
                {
                    "name": "D3",
                    "midi": 50,
                    "time": 68.125,
                    "velocity": 0.14173228346456693,
                    "duration": 0.15625
                },
                {
                    "name": "B2",
                    "midi": 47,
                    "time": 68.125,
                    "velocity": 0.14173228346456693,
                    "duration": 0.3125
                },
                {
                    "name": "G3",
                    "midi": 55,
                    "time": 68.28125,
                    "velocity": 0.14173228346456693,
                    "duration": 0.15625
                },
                {
                    "name": "B3",
                    "midi": 59,
                    "time": 68.4375,
                    "velocity": 0.14173228346456693,
                    "duration": 0.15625
                },
                {
                    "name": "D3",
                    "midi": 50,
                    "time": 68.59375,
                    "velocity": 0.14173228346456693,
                    "duration": 0.15625
                },
                {
                    "name": "A2",
                    "midi": 45,
                    "time": 68.75,
                    "velocity": 0.14173228346456693,
                    "duration": 0.15625
                },
                {
                    "name": "A2",
                    "midi": 45,
                    "time": 68.75,
                    "velocity": 0.14173228346456693,
                    "duration": 0.3125
                },
                {
                    "name": "G3",
                    "midi": 55,
                    "time": 68.90625,
                    "velocity": 0.14173228346456693,
                    "duration": 0.15625
                },
                {
                    "name": "D3",
                    "midi": 50,
                    "time": 69.0625,
                    "velocity": 0.14173228346456693,
                    "duration": 0.15625
                },
                {
                    "name": "D3",
                    "midi": 50,
                    "time": 69.0625,
                    "velocity": 0.14173228346456693,
                    "duration": 0.3125
                },
                {
                    "name": "F#3",
                    "midi": 54,
                    "time": 69.21875,
                    "velocity": 0.14173228346456693,
                    "duration": 0.15625
                },
                {
                    "name": "G2",
                    "midi": 43,
                    "time": 69.375,
                    "velocity": 0.14173228346456693,
                    "duration": 0.15625
                },
                {
                    "name": "G2",
                    "midi": 43,
                    "time": 69.375,
                    "velocity": 0.14173228346456693,
                    "duration": 0.46875
                },
                {
                    "name": "D3",
                    "midi": 50,
                    "time": 69.53125,
                    "velocity": 0.14173228346456693,
                    "duration": 0.15625
                },
                {
                    "name": "G3",
                    "midi": 55,
                    "time": 69.6875,
                    "velocity": 0.14173228346456693,
                    "duration": 0.15625
                },
                {
                    "name": "G3",
                    "midi": 55,
                    "time": 69.84375,
                    "velocity": 0.14173228346456693,
                    "duration": 0.78125
                },
                {
                    "name": "B3",
                    "midi": 59,
                    "time": 70.15625,
                    "velocity": 0.14173228346456693,
                    "duration": 0.3125
                },
                {
                    "name": "E4",
                    "midi": 64,
                    "time": 70.3125,
                    "velocity": 0.14173228346456693,
                    "duration": 0.15625
                },
                {
                    "name": "A#3",
                    "midi": 58,
                    "time": 70.46875,
                    "velocity": 0.14173228346456693,
                    "duration": 0.15625
                },
                {
                    "name": "A3",
                    "midi": 57,
                    "time": 70.625,
                    "velocity": 0.14173228346456693,
                    "duration": 0.15625
                },
                {
                    "name": "F#3",
                    "midi": 54,
                    "time": 70.625,
                    "velocity": 0.14173228346456693,
                    "duration": 0.3125
                },
                {
                    "name": "D4",
                    "midi": 62,
                    "time": 70.78125,
                    "velocity": 0.14173228346456693,
                    "duration": 0.15625
                },
                {
                    "name": "F#4",
                    "midi": 66,
                    "time": 70.9375,
                    "velocity": 0.14173228346456693,
                    "duration": 0.15625
                },
                {
                    "name": "A3",
                    "midi": 57,
                    "time": 71.09375,
                    "velocity": 0.14173228346456693,
                    "duration": 0.15625
                },
                {
                    "name": "E3",
                    "midi": 52,
                    "time": 71.25,
                    "velocity": 0.14173228346456693,
                    "duration": 0.15625
                },
                {
                    "name": "E3",
                    "midi": 52,
                    "time": 71.25,
                    "velocity": 0.14173228346456693,
                    "duration": 0.3125
                },
                {
                    "name": "D4",
                    "midi": 62,
                    "time": 71.40625,
                    "velocity": 0.14173228346456693,
                    "duration": 0.15625
                },
                {
                    "name": "A3",
                    "midi": 57,
                    "time": 71.5625,
                    "velocity": 0.14173228346456693,
                    "duration": 0.15625
                },
                {
                    "name": "A3",
                    "midi": 57,
                    "time": 71.5625,
                    "velocity": 0.14173228346456693,
                    "duration": 0.3125
                },
                {
                    "name": "C#4",
                    "midi": 61,
                    "time": 71.71875,
                    "velocity": 0.14173228346456693,
                    "duration": 0.15625
                },
                {
                    "name": "D3",
                    "midi": 50,
                    "time": 71.875,
                    "velocity": 0.14173228346456693,
                    "duration": 0.15625
                },
                {
                    "name": "D3",
                    "midi": 50,
                    "time": 71.875,
                    "velocity": 0.14173228346456693,
                    "duration": 0.46875
                },
                {
                    "name": "A3",
                    "midi": 57,
                    "time": 72.03125,
                    "velocity": 0.14173228346456693,
                    "duration": 0.15625
                },
                {
                    "name": "D4",
                    "midi": 62,
                    "time": 72.1875,
                    "velocity": 0.14173228346456693,
                    "duration": 0.15625
                },
                {
                    "name": "C3",
                    "midi": 48,
                    "time": 72.34375,
                    "velocity": 0.14173228346456693,
                    "duration": 0.78125
                },
                {
                    "name": "E3",
                    "midi": 52,
                    "time": 72.65625,
                    "velocity": 0.14173228346456693,
                    "duration": 0.3125
                },
                {
                    "name": "A3",
                    "midi": 57,
                    "time": 72.8125,
                    "velocity": 0.14173228346456693,
                    "duration": 0.15625
                },
                {
                    "name": "D#3",
                    "midi": 51,
                    "time": 72.96875,
                    "velocity": 0.14173228346456693,
                    "duration": 0.15625
                },
                {
                    "name": "D3",
                    "midi": 50,
                    "time": 73.125,
                    "velocity": 0.14173228346456693,
                    "duration": 0.15625
                },
                {
                    "name": "B2",
                    "midi": 47,
                    "time": 73.125,
                    "velocity": 0.14173228346456693,
                    "duration": 0.3125
                },
                {
                    "name": "G3",
                    "midi": 55,
                    "time": 73.28125,
                    "velocity": 0.14173228346456693,
                    "duration": 0.15625
                },
                {
                    "name": "B3",
                    "midi": 59,
                    "time": 73.4375,
                    "velocity": 0.14173228346456693,
                    "duration": 0.15625
                },
                {
                    "name": "D3",
                    "midi": 50,
                    "time": 73.59375,
                    "velocity": 0.14173228346456693,
                    "duration": 0.15625
                },
                {
                    "name": "C3",
                    "midi": 48,
                    "time": 73.75,
                    "velocity": 0.14173228346456693,
                    "duration": 0.15625
                },
                {
                    "name": "C3",
                    "midi": 48,
                    "time": 73.75,
                    "velocity": 0.14173228346456693,
                    "duration": 0.3125
                },
                {
                    "name": "G3",
                    "midi": 55,
                    "time": 73.90625,
                    "velocity": 0.14173228346456693,
                    "duration": 0.15625
                },
                {
                    "name": "C#3",
                    "midi": 49,
                    "time": 74.0625,
                    "velocity": 0.14173228346456693,
                    "duration": 0.15625
                },
                {
                    "name": "C#3",
                    "midi": 49,
                    "time": 74.0625,
                    "velocity": 0.14173228346456693,
                    "duration": 0.3125
                },
                {
                    "name": "G3",
                    "midi": 55,
                    "time": 74.21875,
                    "velocity": 0.14173228346456693,
                    "duration": 0.15625
                },
                {
                    "name": "D3",
                    "midi": 50,
                    "time": 74.375,
                    "velocity": 0.14173228346456693,
                    "duration": 0.15625
                },
                {
                    "name": "D3",
                    "midi": 50,
                    "time": 74.375,
                    "velocity": 0.14173228346456693,
                    "duration": 0.3125
                },
                {
                    "name": "G3",
                    "midi": 55,
                    "time": 74.53125,
                    "velocity": 0.14173228346456693,
                    "duration": 0.235595703125
                },
                {
                    "name": "D3",
                    "midi": 50,
                    "time": 74.84375,
                    "velocity": 0.5511811023622047,
                    "duration": 0.15625
                },
                {
                    "name": "D3",
                    "midi": 50,
                    "time": 74.921875,
                    "velocity": 0.5511811023622047,
                    "duration": 0.078125
                },
                {
                    "name": "G2",
                    "midi": 43,
                    "time": 75,
                    "velocity": 0.7007874015748031,
                    "duration": 0.15625
                },
                {
                    "name": "A3",
                    "midi": 57,
                    "time": 75.15625,
                    "velocity": 0.5511811023622047,
                    "duration": 0.15625
                },
                {
                    "name": "G3",
                    "midi": 55,
                    "time": 75.3125,
                    "velocity": 0.5511811023622047,
                    "duration": 0.15625
                },
                {
                    "name": "C4",
                    "midi": 60,
                    "time": 75.46875,
                    "velocity": 0.5511811023622047,
                    "duration": 0.15625
                },
                {
                    "name": "B3",
                    "midi": 59,
                    "time": 75.625,
                    "velocity": 0.5511811023622047,
                    "duration": 0.15625
                },
                {
                    "name": "A3",
                    "midi": 57,
                    "time": 75.78125,
                    "velocity": 0.5511811023622047,
                    "duration": 0.15625
                },
                {
                    "name": "G3",
                    "midi": 55,
                    "time": 75.9375,
                    "velocity": 0.5511811023622047,
                    "duration": 0.15625
                },
                {
                    "name": "E3",
                    "midi": 52,
                    "time": 76.09375,
                    "velocity": 0.5511811023622047,
                    "duration": 0.15625
                },
                {
                    "name": "E3",
                    "midi": 52,
                    "time": 76.171875,
                    "velocity": 0.5511811023622047,
                    "duration": 0.078125
                },
                {
                    "name": "A2",
                    "midi": 45,
                    "time": 76.25,
                    "velocity": 0.7007874015748031,
                    "duration": 0.15625
                },
                {
                    "name": "B3",
                    "midi": 59,
                    "time": 76.40625,
                    "velocity": 0.5511811023622047,
                    "duration": 0.15625
                },
                {
                    "name": "A3",
                    "midi": 57,
                    "time": 76.5625,
                    "velocity": 0.5511811023622047,
                    "duration": 0.15625
                },
                {
                    "name": "D4",
                    "midi": 62,
                    "time": 76.71875,
                    "velocity": 0.5511811023622047,
                    "duration": 0.15625
                },
                {
                    "name": "C4",
                    "midi": 60,
                    "time": 76.875,
                    "velocity": 0.5511811023622047,
                    "duration": 0.15625
                },
                {
                    "name": "B3",
                    "midi": 59,
                    "time": 77.03125,
                    "velocity": 0.5511811023622047,
                    "duration": 0.15625
                },
                {
                    "name": "A3",
                    "midi": 57,
                    "time": 77.1875,
                    "velocity": 0.5511811023622047,
                    "duration": 0.15625
                },
                {
                    "name": "G3",
                    "midi": 55,
                    "time": 77.34375,
                    "velocity": 0.5511811023622047,
                    "duration": 0.15625
                },
                {
                    "name": "C3",
                    "midi": 48,
                    "time": 77.5,
                    "velocity": 0.5511811023622047,
                    "duration": 0.15625
                },
                {
                    "name": "G2",
                    "midi": 43,
                    "time": 77.65625,
                    "velocity": 0.5511811023622047,
                    "duration": 0.15625
                },
                {
                    "name": "C2",
                    "midi": 36,
                    "time": 77.8125,
                    "velocity": 0.5511811023622047,
                    "duration": 0.15625
                },
                {
                    "name": "F#2",
                    "midi": 42,
                    "time": 77.96875,
                    "velocity": 0.5511811023622047,
                    "duration": 0.15625
                },
                {
                    "name": "B2",
                    "midi": 47,
                    "time": 78.125,
                    "velocity": 0.5511811023622047,
                    "duration": 0.15625
                },
                {
                    "name": "F#3",
                    "midi": 54,
                    "time": 78.28125,
                    "velocity": 0.5511811023622047,
                    "duration": 0.15625
                },
                {
                    "name": "B3",
                    "midi": 59,
                    "time": 78.4375,
                    "velocity": 0.5511811023622047,
                    "duration": 0.15625
                },
                {
                    "name": "E3",
                    "midi": 52,
                    "time": 78.59375,
                    "velocity": 0.5511811023622047,
                    "duration": 0.15625
                },
                {
                    "name": "A2",
                    "midi": 45,
                    "time": 78.75,
                    "velocity": 0.5511811023622047,
                    "duration": 0.15625
                },
                {
                    "name": "E2",
                    "midi": 40,
                    "time": 78.90625,
                    "velocity": 0.5511811023622047,
                    "duration": 0.15625
                },
                {
                    "name": "A1",
                    "midi": 33,
                    "time": 79.0625,
                    "velocity": 0.5511811023622047,
                    "duration": 0.15625
                },
                {
                    "name": "D2",
                    "midi": 38,
                    "time": 79.21875,
                    "velocity": 0.5511811023622047,
                    "duration": 0.15625
                },
                {
                    "name": "G2",
                    "midi": 43,
                    "time": 79.375,
                    "velocity": 0.5511811023622047,
                    "duration": 0.15625
                },
                {
                    "name": "D3",
                    "midi": 50,
                    "time": 79.53125,
                    "velocity": 0.5511811023622047,
                    "duration": 0.15625
                },
                {
                    "name": "G3",
                    "midi": 55,
                    "time": 79.6875,
                    "velocity": 0.5511811023622047,
                    "duration": 0.15625
                },
                {
                    "name": "D4",
                    "midi": 62,
                    "time": 79.84375,
                    "velocity": 0.5511811023622047,
                    "duration": 0.15625
                },
                {
                    "name": "G3",
                    "midi": 55,
                    "time": 80,
                    "velocity": 0.5511811023622047,
                    "duration": 0.15625
                },
                {
                    "name": "G4",
                    "midi": 67,
                    "time": 80,
                    "velocity": 0.5511811023622047,
                    "duration": 0.15625
                },
                {
                    "name": "A4",
                    "midi": 69,
                    "time": 80.15625,
                    "velocity": 0.5590551181102362,
                    "duration": 0.15625
                },
                {
                    "name": "B4",
                    "midi": 71,
                    "time": 80.3125,
                    "velocity": 0.5590551181102362,
                    "duration": 0.15625
                },
                {
                    "name": "C5",
                    "midi": 72,
                    "time": 80.46875,
                    "velocity": 0.5669291338582677,
                    "duration": 0.15625
                },
                {
                    "name": "B4",
                    "midi": 71,
                    "time": 80.625,
                    "velocity": 0.5748031496062992,
                    "duration": 0.15625
                },
                {
                    "name": "A4",
                    "midi": 69,
                    "time": 80.78125,
                    "velocity": 0.5748031496062992,
                    "duration": 0.15625
                },
                {
                    "name": "G4",
                    "midi": 67,
                    "time": 80.9375,
                    "velocity": 0.5826771653543307,
                    "duration": 0.15625
                },
                {
                    "name": "E4",
                    "midi": 64,
                    "time": 81.09375,
                    "velocity": 0.5826771653543307,
                    "duration": 0.15625
                },
                {
                    "name": "A3",
                    "midi": 57,
                    "time": 81.25,
                    "velocity": 0.5905511811023622,
                    "duration": 0.15625
                },
                {
                    "name": "A4",
                    "midi": 69,
                    "time": 81.25,
                    "velocity": 0.5905511811023622,
                    "duration": 0.15625
                },
                {
                    "name": "B4",
                    "midi": 71,
                    "time": 81.40625,
                    "velocity": 0.5984251968503937,
                    "duration": 0.15625
                },
                {
                    "name": "C5",
                    "midi": 72,
                    "time": 81.5625,
                    "velocity": 0.5984251968503937,
                    "duration": 0.15625
                },
                {
                    "name": "D5",
                    "midi": 74,
                    "time": 81.71875,
                    "velocity": 0.6062992125984252,
                    "duration": 0.15625
                },
                {
                    "name": "C5",
                    "midi": 72,
                    "time": 81.875,
                    "velocity": 0.6141732283464567,
                    "duration": 0.15625
                },
                {
                    "name": "B4",
                    "midi": 71,
                    "time": 82.03125,
                    "velocity": 0.6141732283464567,
                    "duration": 0.15625
                },
                {
                    "name": "A4",
                    "midi": 69,
                    "time": 82.1875,
                    "velocity": 0.6220472440944882,
                    "duration": 0.15625
                },
                {
                    "name": "G4",
                    "midi": 67,
                    "time": 82.34375,
                    "velocity": 0.6220472440944882,
                    "duration": 0.15625
                },
                {
                    "name": "C4",
                    "midi": 60,
                    "time": 82.5,
                    "velocity": 0.6299212598425197,
                    "duration": 0.15625
                },
                {
                    "name": "G5",
                    "midi": 79,
                    "time": 82.65625,
                    "velocity": 0.6377952755905512,
                    "duration": 0.15625
                },
                {
                    "name": "C5",
                    "midi": 72,
                    "time": 82.8125,
                    "velocity": 0.6377952755905512,
                    "duration": 0.15625
                },
                {
                    "name": "F#4",
                    "midi": 66,
                    "time": 82.96875,
                    "velocity": 0.6456692913385826,
                    "duration": 0.15625
                },
                {
                    "name": "B3",
                    "midi": 59,
                    "time": 83.125,
                    "velocity": 0.6535433070866141,
                    "duration": 0.15625
                },
                {
                    "name": "F#5",
                    "midi": 78,
                    "time": 83.28125,
                    "velocity": 0.6535433070866141,
                    "duration": 0.15625
                },
                {
                    "name": "B4",
                    "midi": 71,
                    "time": 83.4375,
                    "velocity": 0.6614173228346457,
                    "duration": 0.15625
                },
                {
                    "name": "E4",
                    "midi": 64,
                    "time": 83.59375,
                    "velocity": 0.6614173228346457,
                    "duration": 0.15625
                },
                {
                    "name": "A3",
                    "midi": 57,
                    "time": 83.75,
                    "velocity": 0.6692913385826772,
                    "duration": 0.15625
                },
                {
                    "name": "E5",
                    "midi": 76,
                    "time": 83.90625,
                    "velocity": 0.6771653543307087,
                    "duration": 0.15625
                },
                {
                    "name": "A4",
                    "midi": 69,
                    "time": 84.0625,
                    "velocity": 0.6771653543307087,
                    "duration": 0.15625
                },
                {
                    "name": "D4",
                    "midi": 62,
                    "time": 84.21875,
                    "velocity": 0.6850393700787402,
                    "duration": 0.15625
                },
                {
                    "name": "G3",
                    "midi": 55,
                    "time": 84.375,
                    "velocity": 0.6929133858267716,
                    "duration": 0.15625
                },
                {
                    "name": "D5",
                    "midi": 74,
                    "time": 84.53125,
                    "velocity": 0.6929133858267716,
                    "duration": 0.15625
                },
                {
                    "name": "G4",
                    "midi": 67,
                    "time": 84.6875,
                    "velocity": 0.7007874015748031,
                    "duration": 0.15625
                },
                {
                    "name": "D3",
                    "midi": 50,
                    "time": 85,
                    "velocity": 0.7086614173228346,
                    "duration": 0.15625
                },
                {
                    "name": "F#4",
                    "midi": 66,
                    "time": 85.15625,
                    "velocity": 0.7086614173228346,
                    "duration": 0.15625
                },
                {
                    "name": "F4",
                    "midi": 65,
                    "time": 85.3125,
                    "velocity": 0.7086614173228346,
                    "duration": 0.15625
                },
                {
                    "name": "B4",
                    "midi": 71,
                    "time": 85.46875,
                    "velocity": 0.7086614173228346,
                    "duration": 0.15625
                },
                {
                    "name": "A4",
                    "midi": 69,
                    "time": 85.625,
                    "velocity": 0.7086614173228346,
                    "duration": 0.15625
                },
                {
                    "name": "E4",
                    "midi": 64,
                    "time": 85.78125,
                    "velocity": 0.7086614173228346,
                    "duration": 0.15625
                },
                {
                    "name": "A3",
                    "midi": 57,
                    "time": 85.9375,
                    "velocity": 0.7086614173228346,
                    "duration": 0.15625
                },
                {
                    "name": "D3",
                    "midi": 50,
                    "time": 86.25,
                    "velocity": 0.7086614173228346,
                    "duration": 0.15625
                },
                {
                    "name": "F#4",
                    "midi": 66,
                    "time": 86.40625,
                    "velocity": 0.7086614173228346,
                    "duration": 0.15625
                },
                {
                    "name": "F4",
                    "midi": 65,
                    "time": 86.5625,
                    "velocity": 0.7086614173228346,
                    "duration": 0.15625
                },
                {
                    "name": "B4",
                    "midi": 71,
                    "time": 86.71875,
                    "velocity": 0.7086614173228346,
                    "duration": 0.15625
                },
                {
                    "name": "A4",
                    "midi": 69,
                    "time": 86.875,
                    "velocity": 0.7086614173228346,
                    "duration": 0.15625
                },
                {
                    "name": "E4",
                    "midi": 64,
                    "time": 87.03125,
                    "velocity": 0.7086614173228346,
                    "duration": 0.15625
                },
                {
                    "name": "A3",
                    "midi": 57,
                    "time": 87.1875,
                    "velocity": 0.7086614173228346,
                    "duration": 0.15625
                },
                {
                    "name": "D3",
                    "midi": 50,
                    "time": 87.5,
                    "velocity": 0.7086614173228346,
                    "duration": 0.15625
                },
                {
                    "name": "F#4",
                    "midi": 66,
                    "time": 87.65625,
                    "velocity": 0.7086614173228346,
                    "duration": 0.15625
                },
                {
                    "name": "F4",
                    "midi": 65,
                    "time": 87.8125,
                    "velocity": 0.7086614173228346,
                    "duration": 0.15625
                },
                {
                    "name": "D3",
                    "midi": 50,
                    "time": 88.125,
                    "velocity": 0.7086614173228346,
                    "duration": 0.15625
                },
                {
                    "name": "E4",
                    "midi": 64,
                    "time": 88.28125,
                    "velocity": 0.7086614173228346,
                    "duration": 0.15625
                },
                {
                    "name": "D#4",
                    "midi": 63,
                    "time": 88.4375,
                    "velocity": 0.7086614173228346,
                    "duration": 0.15625
                },
                {
                    "name": "D3",
                    "midi": 50,
                    "time": 88.75,
                    "velocity": 0.7086614173228346,
                    "duration": 0.15625
                },
                {
                    "name": "D4",
                    "midi": 62,
                    "time": 88.90625,
                    "velocity": 0.7086614173228346,
                    "duration": 0.15625
                },
                {
                    "name": "C#4",
                    "midi": 61,
                    "time": 89.0625,
                    "velocity": 0.7086614173228346,
                    "duration": 0.15625
                },
                {
                    "name": "D3",
                    "midi": 50,
                    "time": 89.375,
                    "velocity": 0.7086614173228346,
                    "duration": 0.15625
                },
                {
                    "name": "C4",
                    "midi": 60,
                    "time": 89.53125,
                    "velocity": 0.7086614173228346,
                    "duration": 0.15625
                },
                {
                    "name": "A3",
                    "midi": 57,
                    "time": 89.6875,
                    "velocity": 0.7086614173228346,
                    "duration": 0.15625
                },
                {
                    "name": "G2",
                    "midi": 43,
                    "time": 90,
                    "velocity": 0.7086614173228346,
                    "duration": 0.15625
                },
                {
                    "name": "B3",
                    "midi": 59,
                    "time": 90.15625,
                    "velocity": 0.7086614173228346,
                    "duration": 0.15625
                },
                {
                    "name": "A#3",
                    "midi": 58,
                    "time": 90.3125,
                    "velocity": 0.7086614173228346,
                    "duration": 0.15625
                },
                {
                    "name": "E4",
                    "midi": 64,
                    "time": 90.46875,
                    "velocity": 0.7086614173228346,
                    "duration": 0.15625
                },
                {
                    "name": "D4",
                    "midi": 62,
                    "time": 90.625,
                    "velocity": 0.7086614173228346,
                    "duration": 0.15625
                },
                {
                    "name": "A3",
                    "midi": 57,
                    "time": 90.78125,
                    "velocity": 0.7086614173228346,
                    "duration": 0.15625
                },
                {
                    "name": "D3",
                    "midi": 50,
                    "time": 90.9375,
                    "velocity": 0.7086614173228346,
                    "duration": 0.15625
                },
                {
                    "name": "G2",
                    "midi": 43,
                    "time": 91.25,
                    "velocity": 0.7086614173228346,
                    "duration": 0.15625
                },
                {
                    "name": "B3",
                    "midi": 59,
                    "time": 91.40625,
                    "velocity": 0.7086614173228346,
                    "duration": 0.15625
                },
                {
                    "name": "A#3",
                    "midi": 58,
                    "time": 91.5625,
                    "velocity": 0.7086614173228346,
                    "duration": 0.15625
                },
                {
                    "name": "E4",
                    "midi": 64,
                    "time": 91.71875,
                    "velocity": 0.7086614173228346,
                    "duration": 0.15625
                },
                {
                    "name": "D4",
                    "midi": 62,
                    "time": 91.875,
                    "velocity": 0.7086614173228346,
                    "duration": 0.15625
                },
                {
                    "name": "A3",
                    "midi": 57,
                    "time": 92.03125,
                    "velocity": 0.7086614173228346,
                    "duration": 0.15625
                },
                {
                    "name": "D3",
                    "midi": 50,
                    "time": 92.1875,
                    "velocity": 0.7086614173228346,
                    "duration": 0.15625
                },
                {
                    "name": "G2",
                    "midi": 43,
                    "time": 92.5,
                    "velocity": 0.7086614173228346,
                    "duration": 0.15625
                },
                {
                    "name": "B3",
                    "midi": 59,
                    "time": 92.65625,
                    "velocity": 0.7086614173228346,
                    "duration": 0.15625
                },
                {
                    "name": "C4",
                    "midi": 60,
                    "time": 92.8125,
                    "velocity": 0.7086614173228346,
                    "duration": 0.15625
                },
                {
                    "name": "F3",
                    "midi": 53,
                    "time": 92.96875,
                    "velocity": 0.7086614173228346,
                    "duration": 0.15625
                },
                {
                    "name": "D4",
                    "midi": 62,
                    "time": 93.125,
                    "velocity": 0.7086614173228346,
                    "duration": 0.15625
                },
                {
                    "name": "F3",
                    "midi": 53,
                    "time": 93.28125,
                    "velocity": 0.7086614173228346,
                    "duration": 0.15625
                },
                {
                    "name": "A#2",
                    "midi": 46,
                    "time": 93.4375,
                    "velocity": 0.7086614173228346,
                    "duration": 0.15625
                },
                {
                    "name": "A#2",
                    "midi": 46,
                    "time": 93.75,
                    "velocity": 0.7086614173228346,
                    "duration": 0.15625
                },
                {
                    "name": "A#3",
                    "midi": 58,
                    "time": 93.90625,
                    "velocity": 0.7086614173228346,
                    "duration": 0.15625
                },
                {
                    "name": "C4",
                    "midi": 60,
                    "time": 94.0625,
                    "velocity": 0.7086614173228346,
                    "duration": 0.15625
                },
                {
                    "name": "F3",
                    "midi": 53,
                    "time": 94.21875,
                    "velocity": 0.7086614173228346,
                    "duration": 0.15625
                },
                {
                    "name": "D4",
                    "midi": 62,
                    "time": 94.375,
                    "velocity": 0.7086614173228346,
                    "duration": 0.15625
                },
                {
                    "name": "A#3",
                    "midi": 58,
                    "time": 94.53125,
                    "velocity": 0.7086614173228346,
                    "duration": 0.15625
                },
                {
                    "name": "A#2",
                    "midi": 46,
                    "time": 94.6875,
                    "velocity": 0.7086614173228346,
                    "duration": 0.15625
                },
                {
                    "name": "A#2",
                    "midi": 46,
                    "time": 95,
                    "velocity": 0.7086614173228346,
                    "duration": 0.15625
                },
                {
                    "name": "A#3",
                    "midi": 58,
                    "time": 95.15625,
                    "velocity": 0.6929133858267716,
                    "duration": 0.15625
                },
                {
                    "name": "C4",
                    "midi": 60,
                    "time": 95.3125,
                    "velocity": 0.6850393700787402,
                    "duration": 0.15625
                },
                {
                    "name": "A#2",
                    "midi": 46,
                    "time": 95.625,
                    "velocity": 0.6614173228346457,
                    "duration": 0.15625
                },
                {
                    "name": "C#4",
                    "midi": 61,
                    "time": 95.78125,
                    "velocity": 0.6456692913385826,
                    "duration": 0.15625
                },
                {
                    "name": "D4",
                    "midi": 62,
                    "time": 95.9375,
                    "velocity": 0.6377952755905512,
                    "duration": 0.15625
                },
                {
                    "name": "D#3",
                    "midi": 51,
                    "time": 96.25,
                    "velocity": 0.6062992125984252,
                    "duration": 0.15625
                },
                {
                    "name": "D#4",
                    "midi": 63,
                    "time": 96.40625,
                    "velocity": 0.5984251968503937,
                    "duration": 0.15625
                },
                {
                    "name": "F4",
                    "midi": 65,
                    "time": 96.5625,
                    "velocity": 0.5826771653543307,
                    "duration": 0.15625
                },
                {
                    "name": "D#3",
                    "midi": 51,
                    "time": 96.875,
                    "velocity": 0.5590551181102362,
                    "duration": 0.15625
                },
                {
                    "name": "F#4",
                    "midi": 66,
                    "time": 97.03125,
                    "velocity": 0.5511811023622047,
                    "duration": 0.15625
                },
                {
                    "name": "G4",
                    "midi": 67,
                    "time": 97.1875,
                    "velocity": 0.5354330708661418,
                    "duration": 0.15625
                },
                {
                    "name": "A2",
                    "midi": 45,
                    "time": 97.5,
                    "velocity": 0.5118110236220472,
                    "duration": 0.15625
                },
                {
                    "name": "A3",
                    "midi": 57,
                    "time": 97.65625,
                    "velocity": 0.49606299212598426,
                    "duration": 0.15625
                },
                {
                    "name": "B3",
                    "midi": 59,
                    "time": 97.8125,
                    "velocity": 0.4881889763779528,
                    "duration": 0.15625
                },
                {
                    "name": "A2",
                    "midi": 45,
                    "time": 98.125,
                    "velocity": 0.4645669291338583,
                    "duration": 0.15625
                },
                {
                    "name": "C4",
                    "midi": 60,
                    "time": 98.28125,
                    "velocity": 0.44881889763779526,
                    "duration": 0.15625
                },
                {
                    "name": "C#4",
                    "midi": 61,
                    "time": 98.4375,
                    "velocity": 0.4409448818897638,
                    "duration": 0.15625
                },
                {
                    "name": "D3",
                    "midi": 50,
                    "time": 98.75,
                    "velocity": 0.4094488188976378,
                    "duration": 0.15625
                },
                {
                    "name": "D4",
                    "midi": 62,
                    "time": 98.90625,
                    "velocity": 0.4015748031496063,
                    "duration": 0.15625
                },
                {
                    "name": "E4",
                    "midi": 64,
                    "time": 99.0625,
                    "velocity": 0.3858267716535433,
                    "duration": 0.15625
                },
                {
                    "name": "D3",
                    "midi": 50,
                    "time": 99.375,
                    "velocity": 0.36220472440944884,
                    "duration": 0.15625
                },
                {
                    "name": "F4",
                    "midi": 65,
                    "time": 99.53125,
                    "velocity": 0.3543307086614173,
                    "duration": 0.15625
                },
                {
                    "name": "F#4",
                    "midi": 66,
                    "time": 99.6875,
                    "velocity": 0.33858267716535434,
                    "duration": 0.15625
                },
                {
                    "name": "G3",
                    "midi": 55,
                    "time": 99.84375,
                    "velocity": 0.33070866141732286,
                    "duration": 1.09375
                },
                {
                    "name": "D4",
                    "midi": 62,
                    "time": 100,
                    "velocity": 0.15748031496062992,
                    "duration": 0.15625
                },
                {
                    "name": "C#4",
                    "midi": 61,
                    "time": 100.15625,
                    "velocity": 0.15748031496062992,
                    "duration": 0.15625
                },
                {
                    "name": "D4",
                    "midi": 62,
                    "time": 100.3125,
                    "velocity": 0.15748031496062992,
                    "duration": 0.15625
                },
                {
                    "name": "C#4",
                    "midi": 61,
                    "time": 100.46875,
                    "velocity": 0.15748031496062992,
                    "duration": 0.15625
                },
                {
                    "name": "D4",
                    "midi": 62,
                    "time": 100.625,
                    "velocity": 0.15748031496062992,
                    "duration": 0.15625
                },
                {
                    "name": "C#4",
                    "midi": 61,
                    "time": 100.78125,
                    "velocity": 0.15748031496062992,
                    "duration": 0.15625
                },
                {
                    "name": "D4",
                    "midi": 62,
                    "time": 100.9375,
                    "velocity": 0.15748031496062992,
                    "duration": 0.15625
                },
                {
                    "name": "F#4",
                    "midi": 66,
                    "time": 101.09375,
                    "velocity": 0.15748031496062992,
                    "duration": 0.15625
                },
                {
                    "name": "G4",
                    "midi": 67,
                    "time": 101.25,
                    "velocity": 0.15748031496062992,
                    "duration": 0.15625
                },
                {
                    "name": "F#4",
                    "midi": 66,
                    "time": 101.40625,
                    "velocity": 0.15748031496062992,
                    "duration": 0.15625
                },
                {
                    "name": "G4",
                    "midi": 67,
                    "time": 101.5625,
                    "velocity": 0.15748031496062992,
                    "duration": 0.15625
                },
                {
                    "name": "G#4",
                    "midi": 68,
                    "time": 101.71875,
                    "velocity": 0.15748031496062992,
                    "duration": 0.15625
                },
                {
                    "name": "F4",
                    "midi": 65,
                    "time": 101.71875,
                    "velocity": 0.15748031496062992,
                    "duration": 0.15625
                },
                {
                    "name": "A4",
                    "midi": 69,
                    "time": 101.875,
                    "velocity": 0.15748031496062992,
                    "duration": 0.15625
                },
                {
                    "name": "E4",
                    "midi": 64,
                    "time": 101.875,
                    "velocity": 0.15748031496062992,
                    "duration": 0.46875
                },
                {
                    "name": "G#4",
                    "midi": 68,
                    "time": 102.03125,
                    "velocity": 0.15748031496062992,
                    "duration": 0.15625
                },
                {
                    "name": "A4",
                    "midi": 69,
                    "time": 102.1875,
                    "velocity": 0.15748031496062992,
                    "duration": 0.15625
                },
                {
                    "name": "F#4",
                    "midi": 66,
                    "time": 102.34375,
                    "velocity": 0.15748031496062992,
                    "duration": 0.15625
                },
                {
                    "name": "D4",
                    "midi": 62,
                    "time": 102.34375,
                    "velocity": 0.15748031496062992,
                    "duration": 0.15625
                },
                {
                    "name": "G4",
                    "midi": 67,
                    "time": 102.5,
                    "velocity": 0.15748031496062992,
                    "duration": 0.15625
                },
                {
                    "name": "G3",
                    "midi": 55,
                    "time": 102.5,
                    "velocity": 0.15748031496062992,
                    "duration": 0.9375
                },
                {
                    "name": "C#4",
                    "midi": 61,
                    "time": 102.65625,
                    "velocity": 0.15748031496062992,
                    "duration": 0.15625
                },
                {
                    "name": "D4",
                    "midi": 62,
                    "time": 102.8125,
                    "velocity": 0.15748031496062992,
                    "duration": 0.15625
                },
                {
                    "name": "C#4",
                    "midi": 61,
                    "time": 102.96875,
                    "velocity": 0.15748031496062992,
                    "duration": 0.15625
                },
                {
                    "name": "D4",
                    "midi": 62,
                    "time": 103.125,
                    "velocity": 0.15748031496062992,
                    "duration": 0.15625
                },
                {
                    "name": "C#4",
                    "midi": 61,
                    "time": 103.28125,
                    "velocity": 0.15748031496062992,
                    "duration": 0.15625
                },
                {
                    "name": "D4",
                    "midi": 62,
                    "time": 103.4375,
                    "velocity": 0.15748031496062992,
                    "duration": 0.15625
                },
                {
                    "name": "F#4",
                    "midi": 66,
                    "time": 103.59375,
                    "velocity": 0.15748031496062992,
                    "duration": 0.15625
                },
                {
                    "name": "G4",
                    "midi": 67,
                    "time": 103.75,
                    "velocity": 0.15748031496062992,
                    "duration": 0.15625
                },
                {
                    "name": "F#4",
                    "midi": 66,
                    "time": 103.90625,
                    "velocity": 0.15748031496062992,
                    "duration": 0.15625
                },
                {
                    "name": "G4",
                    "midi": 67,
                    "time": 104.0625,
                    "velocity": 0.15748031496062992,
                    "duration": 0.15625
                },
                {
                    "name": "G#4",
                    "midi": 68,
                    "time": 104.21875,
                    "velocity": 0.15748031496062992,
                    "duration": 0.15625
                },
                {
                    "name": "F4",
                    "midi": 65,
                    "time": 104.21875,
                    "velocity": 0.15748031496062992,
                    "duration": 0.15625
                },
                {
                    "name": "A4",
                    "midi": 69,
                    "time": 104.375,
                    "velocity": 0.15748031496062992,
                    "duration": 0.15625
                },
                {
                    "name": "E4",
                    "midi": 64,
                    "time": 104.375,
                    "velocity": 0.15748031496062992,
                    "duration": 0.46875
                },
                {
                    "name": "G#4",
                    "midi": 68,
                    "time": 104.53125,
                    "velocity": 0.15748031496062992,
                    "duration": 0.15625
                },
                {
                    "name": "A4",
                    "midi": 69,
                    "time": 104.6875,
                    "velocity": 0.15748031496062992,
                    "duration": 0.15625
                },
                {
                    "name": "F#4",
                    "midi": 66,
                    "time": 104.84375,
                    "velocity": 0.15748031496062992,
                    "duration": 0.15625
                },
                {
                    "name": "D4",
                    "midi": 62,
                    "time": 104.84375,
                    "velocity": 0.15748031496062992,
                    "duration": 0.15625
                },
                {
                    "name": "G3",
                    "midi": 55,
                    "time": 105,
                    "velocity": 0.23622047244094488,
                    "duration": 0.3125
                },
                {
                    "name": "G4",
                    "midi": 67,
                    "time": 105,
                    "velocity": 0.23622047244094488,
                    "duration": 0.3125
                },
                {
                    "name": "D#4",
                    "midi": 63,
                    "time": 105.46875,
                    "velocity": 0.2283464566929134,
                    "duration": 0.15625
                },
                {
                    "name": "A4",
                    "midi": 69,
                    "time": 105.46875,
                    "velocity": 0.2283464566929134,
                    "duration": 0.15625
                },
                {
                    "name": "E4",
                    "midi": 64,
                    "time": 105.625,
                    "velocity": 0.2283464566929134,
                    "duration": 0.15625
                },
                {
                    "name": "G4",
                    "midi": 67,
                    "time": 105.625,
                    "velocity": 0.2283464566929134,
                    "duration": 0.15625
                },
                {
                    "name": "B3",
                    "midi": 59,
                    "time": 106.09375,
                    "velocity": 0.2204724409448819,
                    "duration": 0.15625
                },
                {
                    "name": "F#4",
                    "midi": 66,
                    "time": 106.09375,
                    "velocity": 0.2204724409448819,
                    "duration": 0.15625
                },
                {
                    "name": "C4",
                    "midi": 60,
                    "time": 106.25,
                    "velocity": 0.2125984251968504,
                    "duration": 0.15625
                },
                {
                    "name": "E4",
                    "midi": 64,
                    "time": 106.25,
                    "velocity": 0.2125984251968504,
                    "duration": 0.15625
                },
                {
                    "name": "B3",
                    "midi": 59,
                    "time": 106.40625,
                    "velocity": 0.2125984251968504,
                    "duration": 0.15625
                },
                {
                    "name": "F#4",
                    "midi": 66,
                    "time": 106.40625,
                    "velocity": 0.2125984251968504,
                    "duration": 0.15625
                },
                {
                    "name": "C4",
                    "midi": 60,
                    "time": 106.5625,
                    "velocity": 0.2125984251968504,
                    "duration": 0.15625
                },
                {
                    "name": "E4",
                    "midi": 64,
                    "time": 106.5625,
                    "velocity": 0.2125984251968504,
                    "duration": 0.15625
                },
                {
                    "name": "G#3",
                    "midi": 56,
                    "time": 106.71875,
                    "velocity": 0.2125984251968504,
                    "duration": 0.15625
                },
                {
                    "name": "D4",
                    "midi": 62,
                    "time": 106.71875,
                    "velocity": 0.2125984251968504,
                    "duration": 0.15625
                },
                {
                    "name": "A3",
                    "midi": 57,
                    "time": 106.875,
                    "velocity": 0.2047244094488189,
                    "duration": 0.15625
                },
                {
                    "name": "C4",
                    "midi": 60,
                    "time": 106.875,
                    "velocity": 0.2047244094488189,
                    "duration": 0.15625
                },
                {
                    "name": "F#3",
                    "midi": 54,
                    "time": 107.34375,
                    "velocity": 0.1968503937007874,
                    "duration": 0.15625
                },
                {
                    "name": "C4",
                    "midi": 60,
                    "time": 107.34375,
                    "velocity": 0.1968503937007874,
                    "duration": 0.15625
                },
                {
                    "name": "G3",
                    "midi": 55,
                    "time": 107.5,
                    "velocity": 0.1968503937007874,
                    "duration": 0.15625
                },
                {
                    "name": "B3",
                    "midi": 59,
                    "time": 107.5,
                    "velocity": 0.1968503937007874,
                    "duration": 0.15625
                },
                {
                    "name": "D#3",
                    "midi": 51,
                    "time": 107.96875,
                    "velocity": 0.1889763779527559,
                    "duration": 0.15625
                },
                {
                    "name": "A3",
                    "midi": 57,
                    "time": 107.96875,
                    "velocity": 0.1889763779527559,
                    "duration": 0.15625
                },
                {
                    "name": "E3",
                    "midi": 52,
                    "time": 108.125,
                    "velocity": 0.1889763779527559,
                    "duration": 0.15625
                },
                {
                    "name": "G3",
                    "midi": 55,
                    "time": 108.125,
                    "velocity": 0.1889763779527559,
                    "duration": 0.15625
                },
                {
                    "name": "B2",
                    "midi": 47,
                    "time": 108.59375,
                    "velocity": 0.18110236220472442,
                    "duration": 0.15625
                },
                {
                    "name": "F#3",
                    "midi": 54,
                    "time": 108.59375,
                    "velocity": 0.18110236220472442,
                    "duration": 0.15625
                },
                {
                    "name": "C3",
                    "midi": 48,
                    "time": 108.75,
                    "velocity": 0.1732283464566929,
                    "duration": 0.15625
                },
                {
                    "name": "E3",
                    "midi": 52,
                    "time": 108.75,
                    "velocity": 0.1732283464566929,
                    "duration": 0.15625
                },
                {
                    "name": "B2",
                    "midi": 47,
                    "time": 108.90625,
                    "velocity": 0.1732283464566929,
                    "duration": 0.15625
                },
                {
                    "name": "F#3",
                    "midi": 54,
                    "time": 108.90625,
                    "velocity": 0.1732283464566929,
                    "duration": 0.15625
                },
                {
                    "name": "C3",
                    "midi": 48,
                    "time": 109.0625,
                    "velocity": 0.1732283464566929,
                    "duration": 0.15625
                },
                {
                    "name": "E3",
                    "midi": 52,
                    "time": 109.0625,
                    "velocity": 0.1732283464566929,
                    "duration": 0.15625
                },
                {
                    "name": "G#2",
                    "midi": 44,
                    "time": 109.21875,
                    "velocity": 0.1732283464566929,
                    "duration": 0.15625
                },
                {
                    "name": "D3",
                    "midi": 50,
                    "time": 109.21875,
                    "velocity": 0.1732283464566929,
                    "duration": 0.15625
                },
                {
                    "name": "A2",
                    "midi": 45,
                    "time": 109.375,
                    "velocity": 0.16535433070866143,
                    "duration": 0.15625
                },
                {
                    "name": "C3",
                    "midi": 48,
                    "time": 109.375,
                    "velocity": 0.16535433070866143,
                    "duration": 0.15625
                },
                {
                    "name": "D2",
                    "midi": 38,
                    "time": 109.84375,
                    "velocity": 0.15748031496062992,
                    "duration": 0.15625
                },
                {
                    "name": "D3",
                    "midi": 50,
                    "time": 109.84375,
                    "velocity": 0.15748031496062992,
                    "duration": 0.15625
                },
                {
                    "name": "D3",
                    "midi": 50,
                    "time": 110,
                    "velocity": 0.11811023622047244,
                    "duration": 0.15625
                },
                {
                    "name": "G2",
                    "midi": 43,
                    "time": 110,
                    "velocity": 0.11811023622047244,
                    "duration": 1.25
                },
                {
                    "name": "C#3",
                    "midi": 49,
                    "time": 110.15625,
                    "velocity": 0.11811023622047244,
                    "duration": 0.15625
                },
                {
                    "name": "D3",
                    "midi": 50,
                    "time": 110.3125,
                    "velocity": 0.11811023622047244,
                    "duration": 0.15625
                },
                {
                    "name": "C#3",
                    "midi": 49,
                    "time": 110.46875,
                    "velocity": 0.11811023622047244,
                    "duration": 0.15625
                },
                {
                    "name": "D3",
                    "midi": 50,
                    "time": 110.625,
                    "velocity": 0.11811023622047244,
                    "duration": 0.15625
                },
                {
                    "name": "C#3",
                    "midi": 49,
                    "time": 110.78125,
                    "velocity": 0.11811023622047244,
                    "duration": 0.15625
                },
                {
                    "name": "D3",
                    "midi": 50,
                    "time": 110.9375,
                    "velocity": 0.11811023622047244,
                    "duration": 0.15625
                },
                {
                    "name": "F#3",
                    "midi": 54,
                    "time": 111.09375,
                    "velocity": 0.11811023622047244,
                    "duration": 0.15625
                },
                {
                    "name": "G3",
                    "midi": 55,
                    "time": 111.25,
                    "velocity": 0.11811023622047244,
                    "duration": 0.15625
                },
                {
                    "name": "A2",
                    "midi": 45,
                    "time": 111.25,
                    "velocity": 0.11811023622047244,
                    "duration": 1.25
                },
                {
                    "name": "F#3",
                    "midi": 54,
                    "time": 111.40625,
                    "velocity": 0.11811023622047244,
                    "duration": 0.15625
                },
                {
                    "name": "G3",
                    "midi": 55,
                    "time": 111.5625,
                    "velocity": 0.11811023622047244,
                    "duration": 0.15625
                },
                {
                    "name": "F#3",
                    "midi": 54,
                    "time": 111.71875,
                    "velocity": 0.11811023622047244,
                    "duration": 0.15625
                },
                {
                    "name": "G3",
                    "midi": 55,
                    "time": 111.875,
                    "velocity": 0.11811023622047244,
                    "duration": 0.15625
                },
                {
                    "name": "F#3",
                    "midi": 54,
                    "time": 112.03125,
                    "velocity": 0.11811023622047244,
                    "duration": 0.15625
                },
                {
                    "name": "G3",
                    "midi": 55,
                    "time": 112.1875,
                    "velocity": 0.11811023622047244,
                    "duration": 0.15625
                },
                {
                    "name": "E3",
                    "midi": 52,
                    "time": 112.34375,
                    "velocity": 0.11811023622047244,
                    "duration": 0.15625
                },
                {
                    "name": "D3",
                    "midi": 50,
                    "time": 112.5,
                    "velocity": 0.11811023622047244,
                    "duration": 0.15625
                },
                {
                    "name": "G2",
                    "midi": 43,
                    "time": 112.5,
                    "velocity": 0.11811023622047244,
                    "duration": 1.25
                },
                {
                    "name": "C#3",
                    "midi": 49,
                    "time": 112.65625,
                    "velocity": 0.11811023622047244,
                    "duration": 0.15625
                },
                {
                    "name": "D3",
                    "midi": 50,
                    "time": 112.8125,
                    "velocity": 0.11811023622047244,
                    "duration": 0.15625
                },
                {
                    "name": "C#3",
                    "midi": 49,
                    "time": 112.96875,
                    "velocity": 0.11811023622047244,
                    "duration": 0.15625
                },
                {
                    "name": "D3",
                    "midi": 50,
                    "time": 113.125,
                    "velocity": 0.11811023622047244,
                    "duration": 0.15625
                },
                {
                    "name": "C#3",
                    "midi": 49,
                    "time": 113.28125,
                    "velocity": 0.11811023622047244,
                    "duration": 0.15625
                },
                {
                    "name": "D3",
                    "midi": 50,
                    "time": 113.4375,
                    "velocity": 0.11811023622047244,
                    "duration": 0.15625
                },
                {
                    "name": "F#3",
                    "midi": 54,
                    "time": 113.59375,
                    "velocity": 0.11811023622047244,
                    "duration": 0.15625
                },
                {
                    "name": "G3",
                    "midi": 55,
                    "time": 113.75,
                    "velocity": 0.11811023622047244,
                    "duration": 0.15625
                },
                {
                    "name": "A2",
                    "midi": 45,
                    "time": 113.75,
                    "velocity": 0.11811023622047244,
                    "duration": 1.25
                },
                {
                    "name": "F#3",
                    "midi": 54,
                    "time": 113.90625,
                    "velocity": 0.11811023622047244,
                    "duration": 0.15625
                },
                {
                    "name": "G3",
                    "midi": 55,
                    "time": 114.0625,
                    "velocity": 0.11811023622047244,
                    "duration": 0.15625
                },
                {
                    "name": "F#3",
                    "midi": 54,
                    "time": 114.21875,
                    "velocity": 0.11811023622047244,
                    "duration": 0.15625
                },
                {
                    "name": "G3",
                    "midi": 55,
                    "time": 114.375,
                    "velocity": 0.11811023622047244,
                    "duration": 0.15625
                },
                {
                    "name": "F#3",
                    "midi": 54,
                    "time": 114.53125,
                    "velocity": 0.11811023622047244,
                    "duration": 0.15625
                },
                {
                    "name": "G3",
                    "midi": 55,
                    "time": 114.6875,
                    "velocity": 0.11811023622047244,
                    "duration": 0.15625
                },
                {
                    "name": "E3",
                    "midi": 52,
                    "time": 114.84375,
                    "velocity": 0.11811023622047244,
                    "duration": 0.15625
                },
                {
                    "name": "G2",
                    "midi": 43,
                    "time": 115,
                    "velocity": 0.11811023622047244,
                    "duration": 1.25
                },
                {
                    "name": "D3",
                    "midi": 50,
                    "time": 115,
                    "velocity": 0.11811023622047244,
                    "duration": 0.15625
                },
                {
                    "name": "C#3",
                    "midi": 49,
                    "time": 115.15625,
                    "velocity": 0.11811023622047244,
                    "duration": 0.15625
                },
                {
                    "name": "D3",
                    "midi": 50,
                    "time": 115.3125,
                    "velocity": 0.11811023622047244,
                    "duration": 0.15625
                },
                {
                    "name": "C#3",
                    "midi": 49,
                    "time": 115.46875,
                    "velocity": 0.11811023622047244,
                    "duration": 0.15625
                },
                {
                    "name": "D3",
                    "midi": 50,
                    "time": 115.625,
                    "velocity": 0.11811023622047244,
                    "duration": 0.15625
                },
                {
                    "name": "C#3",
                    "midi": 49,
                    "time": 115.78125,
                    "velocity": 0.11811023622047244,
                    "duration": 0.15625
                },
                {
                    "name": "D3",
                    "midi": 50,
                    "time": 115.9375,
                    "velocity": 0.11811023622047244,
                    "duration": 0.15625
                },
                {
                    "name": "D#3",
                    "midi": 51,
                    "time": 116.09375,
                    "velocity": 0.11811023622047244,
                    "duration": 0.15625
                },
                {
                    "name": "G2",
                    "midi": 43,
                    "time": 116.25,
                    "velocity": 0.11811023622047244,
                    "duration": 1.25
                },
                {
                    "name": "D3",
                    "midi": 50,
                    "time": 116.25,
                    "velocity": 0.11811023622047244,
                    "duration": 0.15625
                },
                {
                    "name": "C#3",
                    "midi": 49,
                    "time": 116.40625,
                    "velocity": 0.11811023622047244,
                    "duration": 0.15625
                },
                {
                    "name": "D3",
                    "midi": 50,
                    "time": 116.5625,
                    "velocity": 0.11811023622047244,
                    "duration": 0.15625
                },
                {
                    "name": "C#3",
                    "midi": 49,
                    "time": 116.71875,
                    "velocity": 0.11811023622047244,
                    "duration": 0.15625
                },
                {
                    "name": "D3",
                    "midi": 50,
                    "time": 116.875,
                    "velocity": 0.11811023622047244,
                    "duration": 0.15625
                },
                {
                    "name": "C#3",
                    "midi": 49,
                    "time": 117.03125,
                    "velocity": 0.11811023622047244,
                    "duration": 0.15625
                },
                {
                    "name": "D3",
                    "midi": 50,
                    "time": 117.1875,
                    "velocity": 0.11811023622047244,
                    "duration": 0.15625
                },
                {
                    "name": "D#3",
                    "midi": 51,
                    "time": 117.34375,
                    "velocity": 0.11811023622047244,
                    "duration": 0.15625
                },
                {
                    "name": "D3",
                    "midi": 50,
                    "time": 117.5,
                    "velocity": 0.11811023622047244,
                    "duration": 0.15625
                },
                {
                    "name": "G2",
                    "midi": 43,
                    "time": 117.5,
                    "velocity": 0.11811023622047244,
                    "duration": 0.46875
                },
                {
                    "name": "C#3",
                    "midi": 49,
                    "time": 117.65625,
                    "velocity": 0.11811023622047244,
                    "duration": 0.15625
                },
                {
                    "name": "D3",
                    "midi": 50,
                    "time": 117.8125,
                    "velocity": 0.11811023622047244,
                    "duration": 0.46875
                },
                {
                    "name": "G#2",
                    "midi": 44,
                    "time": 117.96875,
                    "velocity": 0.11811023622047244,
                    "duration": 0.15625
                },
                {
                    "name": "G2",
                    "midi": 43,
                    "time": 118.125,
                    "velocity": 0.11811023622047244,
                    "duration": 0.46875
                },
                {
                    "name": "C#3",
                    "midi": 49,
                    "time": 118.28125,
                    "velocity": 0.11811023622047244,
                    "duration": 0.15625
                },
                {
                    "name": "D3",
                    "midi": 50,
                    "time": 118.4375,
                    "velocity": 0.11811023622047244,
                    "duration": 0.46875
                },
                {
                    "name": "G#2",
                    "midi": 44,
                    "time": 118.59375,
                    "velocity": 0.11811023622047244,
                    "duration": 0.15625
                },
                {
                    "name": "G2",
                    "midi": 43,
                    "time": 118.75,
                    "velocity": 0.11811023622047244,
                    "duration": 0.46875
                },
                {
                    "name": "C#3",
                    "midi": 49,
                    "time": 118.90625,
                    "velocity": 0.11811023622047244,
                    "duration": 0.15625
                },
                {
                    "name": "D3",
                    "midi": 50,
                    "time": 119.0625,
                    "velocity": 0.11811023622047244,
                    "duration": 0.46875
                },
                {
                    "name": "G#2",
                    "midi": 44,
                    "time": 119.21875,
                    "velocity": 0.11811023622047244,
                    "duration": 0.15625
                },
                {
                    "name": "G2",
                    "midi": 43,
                    "time": 119.375,
                    "velocity": 0.11811023622047244,
                    "duration": 0.46875
                },
                {
                    "name": "C#3",
                    "midi": 49,
                    "time": 119.53125,
                    "velocity": 0.11811023622047244,
                    "duration": 0.15625
                },
                {
                    "name": "D3",
                    "midi": 50,
                    "time": 119.6875,
                    "velocity": 0.11811023622047244,
                    "duration": 0.3125
                },
                {
                    "name": "G#2",
                    "midi": 44,
                    "time": 119.84375,
                    "velocity": 0.11811023622047244,
                    "duration": 0.15625
                },
                {
                    "name": "D3",
                    "midi": 50,
                    "time": 120,
                    "velocity": 0.11811023622047244,
                    "duration": 0.15625
                },
                {
                    "name": "G2",
                    "midi": 43,
                    "time": 120,
                    "velocity": 0.11811023622047244,
                    "duration": 2.5
                },
                {
                    "name": "C#3",
                    "midi": 49,
                    "time": 120.15625,
                    "velocity": 0.11811023622047244,
                    "duration": 0.15625
                },
                {
                    "name": "D3",
                    "midi": 50,
                    "time": 120.3125,
                    "velocity": 0.11811023622047244,
                    "duration": 0.15625
                },
                {
                    "name": "C#3",
                    "midi": 49,
                    "time": 120.46875,
                    "velocity": 0.11811023622047244,
                    "duration": 0.15625
                },
                {
                    "name": "D3",
                    "midi": 50,
                    "time": 120.625,
                    "velocity": 0.11811023622047244,
                    "duration": 0.15625
                },
                {
                    "name": "C#3",
                    "midi": 49,
                    "time": 120.78125,
                    "velocity": 0.11811023622047244,
                    "duration": 0.15625
                },
                {
                    "name": "D3",
                    "midi": 50,
                    "time": 120.9375,
                    "velocity": 0.11811023622047244,
                    "duration": 0.15625
                },
                {
                    "name": "C#3",
                    "midi": 49,
                    "time": 121.09375,
                    "velocity": 0.11811023622047244,
                    "duration": 0.15625
                },
                {
                    "name": "D3",
                    "midi": 50,
                    "time": 121.25,
                    "velocity": 0.07874015748031496,
                    "duration": 0.15625
                },
                {
                    "name": "C#3",
                    "midi": 49,
                    "time": 121.40625,
                    "velocity": 0.07874015748031496,
                    "duration": 0.15625
                },
                {
                    "name": "D3",
                    "midi": 50,
                    "time": 121.5625,
                    "velocity": 0.07874015748031496,
                    "duration": 0.15625
                },
                {
                    "name": "C#3",
                    "midi": 49,
                    "time": 121.71875,
                    "velocity": 0.07874015748031496,
                    "duration": 0.15625
                },
                {
                    "name": "D3",
                    "midi": 50,
                    "time": 121.875,
                    "velocity": 0.07874015748031496,
                    "duration": 0.15625
                },
                {
                    "name": "C#3",
                    "midi": 49,
                    "time": 122.03125,
                    "velocity": 0.07874015748031496,
                    "duration": 0.15625
                },
                {
                    "name": "D3",
                    "midi": 50,
                    "time": 122.1875,
                    "velocity": 0.07874015748031496,
                    "duration": 0.15625
                },
                {
                    "name": "C#3",
                    "midi": 49,
                    "time": 122.34375,
                    "velocity": 0.07874015748031496,
                    "duration": 0.15625
                },
                {
                    "name": "G2",
                    "midi": 43,
                    "time": 122.5,
                    "velocity": 0.7086614173228346,
                    "duration": 0.1251220703125
                },
                {
                    "name": "D3",
                    "midi": 50,
                    "time": 122.5,
                    "velocity": 0.7086614173228346,
                    "duration": 0.1251220703125
                },
                {
                    "name": "D3",
                    "midi": 50,
                    "time": 122.8125,
                    "velocity": 0.8110236220472441,
                    "duration": 0.625
                },
                {
                    "name": "G3",
                    "midi": 55,
                    "time": 122.8125,
                    "velocity": 0.8110236220472441,
                    "duration": 0.9375
                },
                {
                    "name": "D4",
                    "midi": 62,
                    "time": 122.8125,
                    "velocity": 0.8110236220472441,
                    "duration": 0.625
                },
                {
                    "name": "C3",
                    "midi": 48,
                    "time": 123.4375,
                    "velocity": 0.7086614173228346,
                    "duration": 0.3125
                },
                {
                    "name": "C4",
                    "midi": 60,
                    "time": 123.4375,
                    "velocity": 0.7086614173228346,
                    "duration": 0.3125
                },
                {
                    "name": "A2",
                    "midi": 45,
                    "time": 123.75,
                    "velocity": 0.7086614173228346,
                    "duration": 0.1251220703125
                },
                {
                    "name": "D3",
                    "midi": 50,
                    "time": 123.75,
                    "velocity": 0.7086614173228346,
                    "duration": 0.1251220703125
                },
                {
                    "name": "A3",
                    "midi": 57,
                    "time": 123.75,
                    "velocity": 0.7086614173228346,
                    "duration": 0.1251220703125
                },
                {
                    "name": "F#2",
                    "midi": 42,
                    "time": 124.0625,
                    "velocity": 0.8110236220472441,
                    "duration": 0.625
                },
                {
                    "name": "D3",
                    "midi": 50,
                    "time": 124.0625,
                    "velocity": 0.8110236220472441,
                    "duration": 0.9375
                },
                {
                    "name": "F#3",
                    "midi": 54,
                    "time": 124.0625,
                    "velocity": 0.8110236220472441,
                    "duration": 0.625
                },
                {
                    "name": "G2",
                    "midi": 43,
                    "time": 124.6875,
                    "velocity": 0.7086614173228346,
                    "duration": 0.3125
                },
                {
                    "name": "G3",
                    "midi": 55,
                    "time": 124.6875,
                    "velocity": 0.7086614173228346,
                    "duration": 0.3125
                },
                {
                    "name": "C4",
                    "midi": 60,
                    "time": 125,
                    "velocity": 0.31496062992125984,
                    "duration": 0.15625
                },
                {
                    "name": "C3",
                    "midi": 48,
                    "time": 125,
                    "velocity": 0.31496062992125984,
                    "duration": 0.3125
                },
                {
                    "name": "G3",
                    "midi": 55,
                    "time": 125.15625,
                    "velocity": 0.31496062992125984,
                    "duration": 0.15625
                },
                {
                    "name": "C4",
                    "midi": 60,
                    "time": 125.3125,
                    "velocity": 0.31496062992125984,
                    "duration": 0.15625
                },
                {
                    "name": "C3",
                    "midi": 48,
                    "time": 125.3125,
                    "velocity": 0.31496062992125984,
                    "duration": 0.625
                },
                {
                    "name": "G3",
                    "midi": 55,
                    "time": 125.46875,
                    "velocity": 0.31496062992125984,
                    "duration": 0.15625
                },
                {
                    "name": "C4",
                    "midi": 60,
                    "time": 125.625,
                    "velocity": 0.31496062992125984,
                    "duration": 0.15625
                },
                {
                    "name": "G3",
                    "midi": 55,
                    "time": 125.78125,
                    "velocity": 0.31496062992125984,
                    "duration": 0.15625
                },
                {
                    "name": "C4",
                    "midi": 60,
                    "time": 125.9375,
                    "velocity": 0.31496062992125984,
                    "duration": 0.15625
                },
                {
                    "name": "C3",
                    "midi": 48,
                    "time": 125.9375,
                    "velocity": 0.31496062992125984,
                    "duration": 0.3125
                },
                {
                    "name": "G3",
                    "midi": 55,
                    "time": 126.09375,
                    "velocity": 0.31496062992125984,
                    "duration": 0.15625
                },
                {
                    "name": "D4",
                    "midi": 62,
                    "time": 126.25,
                    "velocity": 0.31496062992125984,
                    "duration": 0.15625
                },
                {
                    "name": "C3",
                    "midi": 48,
                    "time": 126.25,
                    "velocity": 0.31496062992125984,
                    "duration": 0.3125
                },
                {
                    "name": "G#3",
                    "midi": 56,
                    "time": 126.40625,
                    "velocity": 0.31496062992125984,
                    "duration": 0.15625
                },
                {
                    "name": "D4",
                    "midi": 62,
                    "time": 126.5625,
                    "velocity": 0.31496062992125984,
                    "duration": 0.15625
                },
                {
                    "name": "C3",
                    "midi": 48,
                    "time": 126.5625,
                    "velocity": 0.31496062992125984,
                    "duration": 0.625
                },
                {
                    "name": "G#3",
                    "midi": 56,
                    "time": 126.71875,
                    "velocity": 0.31496062992125984,
                    "duration": 0.15625
                },
                {
                    "name": "D4",
                    "midi": 62,
                    "time": 126.875,
                    "velocity": 0.31496062992125984,
                    "duration": 0.15625
                },
                {
                    "name": "G#3",
                    "midi": 56,
                    "time": 127.03125,
                    "velocity": 0.31496062992125984,
                    "duration": 0.15625
                },
                {
                    "name": "D4",
                    "midi": 62,
                    "time": 127.1875,
                    "velocity": 0.31496062992125984,
                    "duration": 0.15625
                },
                {
                    "name": "C3",
                    "midi": 48,
                    "time": 127.1875,
                    "velocity": 0.31496062992125984,
                    "duration": 0.3125
                },
                {
                    "name": "G3",
                    "midi": 55,
                    "time": 127.34375,
                    "velocity": 0.31496062992125984,
                    "duration": 0.15625
                },
                {
                    "name": "C4",
                    "midi": 60,
                    "time": 127.5,
                    "velocity": 0.31496062992125984,
                    "duration": 0.15625
                },
                {
                    "name": "C3",
                    "midi": 48,
                    "time": 127.5,
                    "velocity": 0.31496062992125984,
                    "duration": 0.3125
                },
                {
                    "name": "G3",
                    "midi": 55,
                    "time": 127.65625,
                    "velocity": 0.31496062992125984,
                    "duration": 0.15625
                },
                {
                    "name": "C4",
                    "midi": 60,
                    "time": 127.8125,
                    "velocity": 0.31496062992125984,
                    "duration": 0.15625
                },
                {
                    "name": "C3",
                    "midi": 48,
                    "time": 127.8125,
                    "velocity": 0.31496062992125984,
                    "duration": 0.625
                },
                {
                    "name": "G3",
                    "midi": 55,
                    "time": 127.96875,
                    "velocity": 0.31496062992125984,
                    "duration": 0.15625
                },
                {
                    "name": "C4",
                    "midi": 60,
                    "time": 128.125,
                    "velocity": 0.31496062992125984,
                    "duration": 0.15625
                },
                {
                    "name": "G3",
                    "midi": 55,
                    "time": 128.28125,
                    "velocity": 0.31496062992125984,
                    "duration": 0.15625
                },
                {
                    "name": "C4",
                    "midi": 60,
                    "time": 128.4375,
                    "velocity": 0.31496062992125984,
                    "duration": 0.15625
                },
                {
                    "name": "C3",
                    "midi": 48,
                    "time": 128.4375,
                    "velocity": 0.31496062992125984,
                    "duration": 0.3125
                },
                {
                    "name": "G3",
                    "midi": 55,
                    "time": 128.59375,
                    "velocity": 0.31496062992125984,
                    "duration": 0.15625
                },
                {
                    "name": "D4",
                    "midi": 62,
                    "time": 128.75,
                    "velocity": 0.31496062992125984,
                    "duration": 0.15625
                },
                {
                    "name": "C3",
                    "midi": 48,
                    "time": 128.75,
                    "velocity": 0.31496062992125984,
                    "duration": 0.3125
                },
                {
                    "name": "G#3",
                    "midi": 56,
                    "time": 128.90625,
                    "velocity": 0.31496062992125984,
                    "duration": 0.15625
                },
                {
                    "name": "D4",
                    "midi": 62,
                    "time": 129.0625,
                    "velocity": 0.31496062992125984,
                    "duration": 0.15625
                },
                {
                    "name": "C3",
                    "midi": 48,
                    "time": 129.0625,
                    "velocity": 0.31496062992125984,
                    "duration": 0.625
                },
                {
                    "name": "G#3",
                    "midi": 56,
                    "time": 129.21875,
                    "velocity": 0.31496062992125984,
                    "duration": 0.15625
                },
                {
                    "name": "D4",
                    "midi": 62,
                    "time": 129.375,
                    "velocity": 0.31496062992125984,
                    "duration": 0.15625
                },
                {
                    "name": "G#3",
                    "midi": 56,
                    "time": 129.53125,
                    "velocity": 0.31496062992125984,
                    "duration": 0.15625
                },
                {
                    "name": "D4",
                    "midi": 62,
                    "time": 129.6875,
                    "velocity": 0.31496062992125984,
                    "duration": 0.15625
                },
                {
                    "name": "C3",
                    "midi": 48,
                    "time": 129.6875,
                    "velocity": 0.31496062992125984,
                    "duration": 0.3125
                },
                {
                    "name": "G3",
                    "midi": 55,
                    "time": 129.84375,
                    "velocity": 0.31496062992125984,
                    "duration": 0.15625
                },
                {
                    "name": "C3",
                    "midi": 48,
                    "time": 130,
                    "velocity": 0.31496062992125984,
                    "duration": 0.3125
                },
                {
                    "name": "C4",
                    "midi": 60,
                    "time": 130,
                    "velocity": 0.31496062992125984,
                    "duration": 0.15625
                },
                {
                    "name": "G3",
                    "midi": 55,
                    "time": 130.15625,
                    "velocity": 0.31496062992125984,
                    "duration": 0.15625
                },
                {
                    "name": "C3",
                    "midi": 48,
                    "time": 130.3125,
                    "velocity": 0.31496062992125984,
                    "duration": 0.625
                },
                {
                    "name": "C4",
                    "midi": 60,
                    "time": 130.3125,
                    "velocity": 0.31496062992125984,
                    "duration": 0.15625
                },
                {
                    "name": "G3",
                    "midi": 55,
                    "time": 130.46875,
                    "velocity": 0.31496062992125984,
                    "duration": 0.15625
                },
                {
                    "name": "C4",
                    "midi": 60,
                    "time": 130.625,
                    "velocity": 0.31496062992125984,
                    "duration": 0.15625
                },
                {
                    "name": "G3",
                    "midi": 55,
                    "time": 130.78125,
                    "velocity": 0.31496062992125984,
                    "duration": 0.15625
                },
                {
                    "name": "A#2",
                    "midi": 46,
                    "time": 130.9375,
                    "velocity": 0.31496062992125984,
                    "duration": 0.3125
                },
                {
                    "name": "C4",
                    "midi": 60,
                    "time": 130.9375,
                    "velocity": 0.31496062992125984,
                    "duration": 0.15625
                },
                {
                    "name": "E3",
                    "midi": 52,
                    "time": 131.09375,
                    "velocity": 0.31496062992125984,
                    "duration": 0.15625
                },
                {
                    "name": "C4",
                    "midi": 60,
                    "time": 131.25,
                    "velocity": 0.3937007874015748,
                    "duration": 0.15625
                },
                {
                    "name": "A2",
                    "midi": 45,
                    "time": 131.25,
                    "velocity": 0.3937007874015748,
                    "duration": 0.3125
                },
                {
                    "name": "F3",
                    "midi": 53,
                    "time": 131.40625,
                    "velocity": 0.3937007874015748,
                    "duration": 0.15625
                },
                {
                    "name": "C4",
                    "midi": 60,
                    "time": 131.5625,
                    "velocity": 0.3937007874015748,
                    "duration": 0.15625
                },
                {
                    "name": "A2",
                    "midi": 45,
                    "time": 131.5625,
                    "velocity": 0.3937007874015748,
                    "duration": 0.625
                },
                {
                    "name": "F3",
                    "midi": 53,
                    "time": 131.71875,
                    "velocity": 0.3937007874015748,
                    "duration": 0.15625
                },
                {
                    "name": "C4",
                    "midi": 60,
                    "time": 131.875,
                    "velocity": 0.3937007874015748,
                    "duration": 0.15625
                },
                {
                    "name": "F3",
                    "midi": 53,
                    "time": 132.03125,
                    "velocity": 0.3937007874015748,
                    "duration": 0.15625
                },
                {
                    "name": "G3",
                    "midi": 55,
                    "time": 132.1875,
                    "velocity": 0.3937007874015748,
                    "duration": 0.15625
                },
                {
                    "name": "G2",
                    "midi": 43,
                    "time": 132.1875,
                    "velocity": 0.3937007874015748,
                    "duration": 0.3125
                },
                {
                    "name": "E3",
                    "midi": 52,
                    "time": 132.34375,
                    "velocity": 0.3937007874015748,
                    "duration": 0.15625
                },
                {
                    "name": "A3",
                    "midi": 57,
                    "time": 132.5,
                    "velocity": 0.3937007874015748,
                    "duration": 0.15625
                },
                {
                    "name": "F2",
                    "midi": 41,
                    "time": 132.5,
                    "velocity": 0.3937007874015748,
                    "duration": 0.3125
                },
                {
                    "name": "D3",
                    "midi": 50,
                    "time": 132.65625,
                    "velocity": 0.3937007874015748,
                    "duration": 0.15625
                },
                {
                    "name": "A3",
                    "midi": 57,
                    "time": 132.8125,
                    "velocity": 0.3937007874015748,
                    "duration": 0.15625
                },
                {
                    "name": "F2",
                    "midi": 41,
                    "time": 132.8125,
                    "velocity": 0.3937007874015748,
                    "duration": 0.625
                },
                {
                    "name": "D3",
                    "midi": 50,
                    "time": 132.96875,
                    "velocity": 0.3937007874015748,
                    "duration": 0.15625
                },
                {
                    "name": "A3",
                    "midi": 57,
                    "time": 133.125,
                    "velocity": 0.3937007874015748,
                    "duration": 0.15625
                },
                {
                    "name": "D3",
                    "midi": 50,
                    "time": 133.28125,
                    "velocity": 0.3937007874015748,
                    "duration": 0.15625
                },
                {
                    "name": "A3",
                    "midi": 57,
                    "time": 133.4375,
                    "velocity": 0.3937007874015748,
                    "duration": 0.15625
                },
                {
                    "name": "F#2",
                    "midi": 42,
                    "time": 133.4375,
                    "velocity": 0.3937007874015748,
                    "duration": 0.3125
                },
                {
                    "name": "D3",
                    "midi": 50,
                    "time": 133.59375,
                    "velocity": 0.3937007874015748,
                    "duration": 0.15625
                },
                {
                    "name": "G3",
                    "midi": 55,
                    "time": 133.75,
                    "velocity": 0.3937007874015748,
                    "duration": 0.15625
                },
                {
                    "name": "G2",
                    "midi": 43,
                    "time": 133.75,
                    "velocity": 0.3937007874015748,
                    "duration": 0.3125
                },
                {
                    "name": "D3",
                    "midi": 50,
                    "time": 133.90625,
                    "velocity": 0.3858267716535433,
                    "duration": 0.15625
                },
                {
                    "name": "G3",
                    "midi": 55,
                    "time": 134.0625,
                    "velocity": 0.3700787401574803,
                    "duration": 0.15625
                },
                {
                    "name": "G2",
                    "midi": 43,
                    "time": 134.0625,
                    "velocity": 0.3700787401574803,
                    "duration": 0.625
                },
                {
                    "name": "D3",
                    "midi": 50,
                    "time": 134.21875,
                    "velocity": 0.36220472440944884,
                    "duration": 0.15625
                },
                {
                    "name": "A3",
                    "midi": 57,
                    "time": 134.375,
                    "velocity": 0.3543307086614173,
                    "duration": 0.15625
                },
                {
                    "name": "D3",
                    "midi": 50,
                    "time": 134.53125,
                    "velocity": 0.3464566929133858,
                    "duration": 0.15625
                },
                {
                    "name": "B3",
                    "midi": 59,
                    "time": 134.6875,
                    "velocity": 0.33070866141732286,
                    "duration": 0.15625
                },
                {
                    "name": "G2",
                    "midi": 43,
                    "time": 134.6875,
                    "velocity": 0.33070866141732286,
                    "duration": 0.15625
                },
                {
                    "name": "D3",
                    "midi": 50,
                    "time": 134.84375,
                    "velocity": 0.3228346456692913,
                    "duration": 0.15625
                },
                {
                    "name": "D3",
                    "midi": 50,
                    "time": 134.84375,
                    "velocity": 0.3228346456692913,
                    "duration": 0.15625
                },
                {
                    "name": "C4",
                    "midi": 60,
                    "time": 135,
                    "velocity": 0.31496062992125984,
                    "duration": 0.15625
                },
                {
                    "name": "C3",
                    "midi": 48,
                    "time": 135,
                    "velocity": 0.31496062992125984,
                    "duration": 0.3125
                },
                {
                    "name": "G3",
                    "midi": 55,
                    "time": 135.15625,
                    "velocity": 0.31496062992125984,
                    "duration": 0.15625
                },
                {
                    "name": "C4",
                    "midi": 60,
                    "time": 135.3125,
                    "velocity": 0.31496062992125984,
                    "duration": 0.15625
                },
                {
                    "name": "C3",
                    "midi": 48,
                    "time": 135.3125,
                    "velocity": 0.31496062992125984,
                    "duration": 0.625
                },
                {
                    "name": "G3",
                    "midi": 55,
                    "time": 135.46875,
                    "velocity": 0.31496062992125984,
                    "duration": 0.15625
                },
                {
                    "name": "C4",
                    "midi": 60,
                    "time": 135.625,
                    "velocity": 0.31496062992125984,
                    "duration": 0.15625
                },
                {
                    "name": "G3",
                    "midi": 55,
                    "time": 135.78125,
                    "velocity": 0.31496062992125984,
                    "duration": 0.15625
                },
                {
                    "name": "C4",
                    "midi": 60,
                    "time": 135.9375,
                    "velocity": 0.31496062992125984,
                    "duration": 0.15625
                },
                {
                    "name": "C3",
                    "midi": 48,
                    "time": 135.9375,
                    "velocity": 0.31496062992125984,
                    "duration": 0.3125
                },
                {
                    "name": "G3",
                    "midi": 55,
                    "time": 136.09375,
                    "velocity": 0.31496062992125984,
                    "duration": 0.15625
                },
                {
                    "name": "D4",
                    "midi": 62,
                    "time": 136.25,
                    "velocity": 0.31496062992125984,
                    "duration": 0.15625
                },
                {
                    "name": "C3",
                    "midi": 48,
                    "time": 136.25,
                    "velocity": 0.31496062992125984,
                    "duration": 0.3125
                },
                {
                    "name": "G#3",
                    "midi": 56,
                    "time": 136.40625,
                    "velocity": 0.31496062992125984,
                    "duration": 0.15625
                },
                {
                    "name": "D4",
                    "midi": 62,
                    "time": 136.5625,
                    "velocity": 0.31496062992125984,
                    "duration": 0.15625
                },
                {
                    "name": "C3",
                    "midi": 48,
                    "time": 136.5625,
                    "velocity": 0.31496062992125984,
                    "duration": 0.625
                },
                {
                    "name": "G#3",
                    "midi": 56,
                    "time": 136.71875,
                    "velocity": 0.31496062992125984,
                    "duration": 0.15625
                },
                {
                    "name": "D4",
                    "midi": 62,
                    "time": 136.875,
                    "velocity": 0.31496062992125984,
                    "duration": 0.15625
                },
                {
                    "name": "G#3",
                    "midi": 56,
                    "time": 137.03125,
                    "velocity": 0.31496062992125984,
                    "duration": 0.15625
                },
                {
                    "name": "D4",
                    "midi": 62,
                    "time": 137.1875,
                    "velocity": 0.31496062992125984,
                    "duration": 0.15625
                },
                {
                    "name": "C3",
                    "midi": 48,
                    "time": 137.1875,
                    "velocity": 0.31496062992125984,
                    "duration": 0.3125
                },
                {
                    "name": "G3",
                    "midi": 55,
                    "time": 137.34375,
                    "velocity": 0.31496062992125984,
                    "duration": 0.15625
                },
                {
                    "name": "C4",
                    "midi": 60,
                    "time": 137.5,
                    "velocity": 0.31496062992125984,
                    "duration": 0.15625
                },
                {
                    "name": "C3",
                    "midi": 48,
                    "time": 137.5,
                    "velocity": 0.31496062992125984,
                    "duration": 0.3125
                },
                {
                    "name": "G3",
                    "midi": 55,
                    "time": 137.65625,
                    "velocity": 0.31496062992125984,
                    "duration": 0.15625
                },
                {
                    "name": "C4",
                    "midi": 60,
                    "time": 137.8125,
                    "velocity": 0.31496062992125984,
                    "duration": 0.15625
                },
                {
                    "name": "C3",
                    "midi": 48,
                    "time": 137.8125,
                    "velocity": 0.31496062992125984,
                    "duration": 0.9375
                },
                {
                    "name": "G3",
                    "midi": 55,
                    "time": 137.96875,
                    "velocity": 0.31496062992125984,
                    "duration": 0.15625
                },
                {
                    "name": "C4",
                    "midi": 60,
                    "time": 138.125,
                    "velocity": 0.31496062992125984,
                    "duration": 0.15625
                },
                {
                    "name": "G3",
                    "midi": 55,
                    "time": 138.28125,
                    "velocity": 0.31496062992125984,
                    "duration": 0.15625
                },
                {
                    "name": "C4",
                    "midi": 60,
                    "time": 138.4375,
                    "velocity": 0.31496062992125984,
                    "duration": 0.15625
                },
                {
                    "name": "G3",
                    "midi": 55,
                    "time": 138.59375,
                    "velocity": 0.31496062992125984,
                    "duration": 0.15625
                },
                {
                    "name": "D4",
                    "midi": 62,
                    "time": 138.75,
                    "velocity": 0.31496062992125984,
                    "duration": 0.15625
                },
                {
                    "name": "B2",
                    "midi": 47,
                    "time": 138.75,
                    "velocity": 0.31496062992125984,
                    "duration": 0.3125
                },
                {
                    "name": "G#3",
                    "midi": 56,
                    "time": 138.90625,
                    "velocity": 0.31496062992125984,
                    "duration": 0.15625
                },
                {
                    "name": "D4",
                    "midi": 62,
                    "time": 139.0625,
                    "velocity": 0.31496062992125984,
                    "duration": 0.15625
                },
                {
                    "name": "A#2",
                    "midi": 46,
                    "time": 139.0625,
                    "velocity": 0.31496062992125984,
                    "duration": 0.625
                },
                {
                    "name": "G#3",
                    "midi": 56,
                    "time": 139.21875,
                    "velocity": 0.31496062992125984,
                    "duration": 0.15625
                },
                {
                    "name": "D4",
                    "midi": 62,
                    "time": 139.375,
                    "velocity": 0.31496062992125984,
                    "duration": 0.15625
                },
                {
                    "name": "A#3",
                    "midi": 58,
                    "time": 139.53125,
                    "velocity": 0.31496062992125984,
                    "duration": 0.15625
                },
                {
                    "name": "C4",
                    "midi": 60,
                    "time": 139.6875,
                    "velocity": 0.31496062992125984,
                    "duration": 0.15625
                },
                {
                    "name": "F3",
                    "midi": 53,
                    "time": 139.6875,
                    "velocity": 0.31496062992125984,
                    "duration": 0.3125
                },
                {
                    "name": "A#3",
                    "midi": 58,
                    "time": 139.84375,
                    "velocity": 0.31496062992125984,
                    "duration": 0.15625
                },
                {
                    "name": "D#4",
                    "midi": 63,
                    "time": 140,
                    "velocity": 0.5039370078740157,
                    "duration": 0.15625
                },
                {
                    "name": "D#3",
                    "midi": 51,
                    "time": 140,
                    "velocity": 0.5039370078740157,
                    "duration": 0.3125
                },
                {
                    "name": "A#3",
                    "midi": 58,
                    "time": 140.15625,
                    "velocity": 0.5039370078740157,
                    "duration": 0.15625
                },
                {
                    "name": "D#4",
                    "midi": 63,
                    "time": 140.3125,
                    "velocity": 0.5039370078740157,
                    "duration": 0.15625
                },
                {
                    "name": "D#3",
                    "midi": 51,
                    "time": 140.3125,
                    "velocity": 0.5039370078740157,
                    "duration": 0.625
                },
                {
                    "name": "A#3",
                    "midi": 58,
                    "time": 140.46875,
                    "velocity": 0.5039370078740157,
                    "duration": 0.15625
                },
                {
                    "name": "D#4",
                    "midi": 63,
                    "time": 140.625,
                    "velocity": 0.5039370078740157,
                    "duration": 0.15625
                },
                {
                    "name": "A#3",
                    "midi": 58,
                    "time": 140.78125,
                    "velocity": 0.5039370078740157,
                    "duration": 0.15625
                },
                {
                    "name": "D#4",
                    "midi": 63,
                    "time": 140.9375,
                    "velocity": 0.5039370078740157,
                    "duration": 0.15625
                },
                {
                    "name": "D#3",
                    "midi": 51,
                    "time": 140.9375,
                    "velocity": 0.5039370078740157,
                    "duration": 0.3125
                },
                {
                    "name": "A#3",
                    "midi": 58,
                    "time": 141.09375,
                    "velocity": 0.5039370078740157,
                    "duration": 0.15625
                },
                {
                    "name": "F4",
                    "midi": 65,
                    "time": 141.25,
                    "velocity": 0.5039370078740157,
                    "duration": 0.15625
                },
                {
                    "name": "D#3",
                    "midi": 51,
                    "time": 141.25,
                    "velocity": 0.5039370078740157,
                    "duration": 0.3125
                },
                {
                    "name": "B3",
                    "midi": 59,
                    "time": 141.40625,
                    "velocity": 0.5039370078740157,
                    "duration": 0.15625
                },
                {
                    "name": "F4",
                    "midi": 65,
                    "time": 141.5625,
                    "velocity": 0.5039370078740157,
                    "duration": 0.15625
                },
                {
                    "name": "D#3",
                    "midi": 51,
                    "time": 141.5625,
                    "velocity": 0.5039370078740157,
                    "duration": 0.625
                },
                {
                    "name": "B3",
                    "midi": 59,
                    "time": 141.71875,
                    "velocity": 0.5039370078740157,
                    "duration": 0.15625
                },
                {
                    "name": "F4",
                    "midi": 65,
                    "time": 141.875,
                    "velocity": 0.5039370078740157,
                    "duration": 0.15625
                },
                {
                    "name": "B3",
                    "midi": 59,
                    "time": 142.03125,
                    "velocity": 0.5039370078740157,
                    "duration": 0.15625
                },
                {
                    "name": "F4",
                    "midi": 65,
                    "time": 142.1875,
                    "velocity": 0.5039370078740157,
                    "duration": 0.15625
                },
                {
                    "name": "D#3",
                    "midi": 51,
                    "time": 142.1875,
                    "velocity": 0.5039370078740157,
                    "duration": 0.3125
                },
                {
                    "name": "A#3",
                    "midi": 58,
                    "time": 142.34375,
                    "velocity": 0.5039370078740157,
                    "duration": 0.15625
                },
                {
                    "name": "D#4",
                    "midi": 63,
                    "time": 142.5,
                    "velocity": 0.5039370078740157,
                    "duration": 0.15625
                },
                {
                    "name": "D#3",
                    "midi": 51,
                    "time": 142.5,
                    "velocity": 0.5039370078740157,
                    "duration": 0.3125
                },
                {
                    "name": "A#3",
                    "midi": 58,
                    "time": 142.65625,
                    "velocity": 0.5039370078740157,
                    "duration": 0.15625
                },
                {
                    "name": "D#4",
                    "midi": 63,
                    "time": 142.8125,
                    "velocity": 0.5039370078740157,
                    "duration": 0.15625
                },
                {
                    "name": "D#3",
                    "midi": 51,
                    "time": 142.8125,
                    "velocity": 0.5039370078740157,
                    "duration": 0.625
                },
                {
                    "name": "A#3",
                    "midi": 58,
                    "time": 142.96875,
                    "velocity": 0.5039370078740157,
                    "duration": 0.15625
                },
                {
                    "name": "D#4",
                    "midi": 63,
                    "time": 143.125,
                    "velocity": 0.5039370078740157,
                    "duration": 0.15625
                },
                {
                    "name": "A#3",
                    "midi": 58,
                    "time": 143.28125,
                    "velocity": 0.5039370078740157,
                    "duration": 0.15625
                },
                {
                    "name": "D#4",
                    "midi": 63,
                    "time": 143.4375,
                    "velocity": 0.5039370078740157,
                    "duration": 0.15625
                },
                {
                    "name": "D#3",
                    "midi": 51,
                    "time": 143.4375,
                    "velocity": 0.5039370078740157,
                    "duration": 0.3125
                },
                {
                    "name": "A#3",
                    "midi": 58,
                    "time": 143.59375,
                    "velocity": 0.5039370078740157,
                    "duration": 0.15625
                },
                {
                    "name": "E3",
                    "midi": 52,
                    "time": 143.75,
                    "velocity": 0.5039370078740157,
                    "duration": 0.46875
                },
                {
                    "name": "E4",
                    "midi": 64,
                    "time": 143.75,
                    "velocity": 0.5039370078740157,
                    "duration": 0.15625
                },
                {
                    "name": "A3",
                    "midi": 57,
                    "time": 143.90625,
                    "velocity": 0.5039370078740157,
                    "duration": 0.15625
                },
                {
                    "name": "E4",
                    "midi": 64,
                    "time": 144.0625,
                    "velocity": 0.5039370078740157,
                    "duration": 0.15625
                },
                {
                    "name": "E3",
                    "midi": 52,
                    "time": 144.21875,
                    "velocity": 0.5039370078740157,
                    "duration": 0.15625
                },
                {
                    "name": "E3",
                    "midi": 52,
                    "time": 144.21875,
                    "velocity": 0.5039370078740157,
                    "duration": 0.15625
                },
                {
                    "name": "C#4",
                    "midi": 61,
                    "time": 144.375,
                    "velocity": 0.5039370078740157,
                    "duration": 0.15625
                },
                {
                    "name": "E3",
                    "midi": 52,
                    "time": 144.53125,
                    "velocity": 0.5039370078740157,
                    "duration": 0.15625
                },
                {
                    "name": "C#4",
                    "midi": 61,
                    "time": 144.6875,
                    "velocity": 0.5039370078740157,
                    "duration": 0.15625
                },
                {
                    "name": "A2",
                    "midi": 45,
                    "time": 144.84375,
                    "velocity": 0.5039370078740157,
                    "duration": 0.15625
                },
                {
                    "name": "D4",
                    "midi": 62,
                    "time": 145,
                    "velocity": 0.5039370078740157,
                    "duration": 0.15625
                },
                {
                    "name": "D3",
                    "midi": 50,
                    "time": 145,
                    "velocity": 0.5039370078740157,
                    "duration": 0.3125
                },
                {
                    "name": "A3",
                    "midi": 57,
                    "time": 145.15625,
                    "velocity": 0.5039370078740157,
                    "duration": 0.15625
                },
                {
                    "name": "D4",
                    "midi": 62,
                    "time": 145.3125,
                    "velocity": 0.5039370078740157,
                    "duration": 0.15625
                },
                {
                    "name": "D3",
                    "midi": 50,
                    "time": 145.3125,
                    "velocity": 0.5039370078740157,
                    "duration": 0.625
                },
                {
                    "name": "A3",
                    "midi": 57,
                    "time": 145.46875,
                    "velocity": 0.5039370078740157,
                    "duration": 0.15625
                },
                {
                    "name": "D4",
                    "midi": 62,
                    "time": 145.625,
                    "velocity": 0.5039370078740157,
                    "duration": 0.15625
                },
                {
                    "name": "A3",
                    "midi": 57,
                    "time": 145.78125,
                    "velocity": 0.5039370078740157,
                    "duration": 0.15625
                },
                {
                    "name": "D4",
                    "midi": 62,
                    "time": 145.9375,
                    "velocity": 0.5039370078740157,
                    "duration": 0.15625
                },
                {
                    "name": "D3",
                    "midi": 50,
                    "time": 145.9375,
                    "velocity": 0.5039370078740157,
                    "duration": 0.3125
                },
                {
                    "name": "A3",
                    "midi": 57,
                    "time": 146.09375,
                    "velocity": 0.5039370078740157,
                    "duration": 0.15625
                },
                {
                    "name": "D3",
                    "midi": 50,
                    "time": 146.25,
                    "velocity": 0.3937007874015748,
                    "duration": 0.46875
                },
                {
                    "name": "D4",
                    "midi": 62,
                    "time": 146.25,
                    "velocity": 0.3937007874015748,
                    "duration": 0.15625
                },
                {
                    "name": "G3",
                    "midi": 55,
                    "time": 146.40625,
                    "velocity": 0.3937007874015748,
                    "duration": 0.15625
                },
                {
                    "name": "D4",
                    "midi": 62,
                    "time": 146.5625,
                    "velocity": 0.3937007874015748,
                    "duration": 0.15625
                },
                {
                    "name": "D3",
                    "midi": 50,
                    "time": 146.71875,
                    "velocity": 0.3937007874015748,
                    "duration": 0.15625
                },
                {
                    "name": "D3",
                    "midi": 50,
                    "time": 146.71875,
                    "velocity": 0.3937007874015748,
                    "duration": 0.15625
                },
                {
                    "name": "B3",
                    "midi": 59,
                    "time": 146.875,
                    "velocity": 0.3937007874015748,
                    "duration": 0.15625
                },
                {
                    "name": "D3",
                    "midi": 50,
                    "time": 147.03125,
                    "velocity": 0.3937007874015748,
                    "duration": 0.15625
                },
                {
                    "name": "B3",
                    "midi": 59,
                    "time": 147.1875,
                    "velocity": 0.3937007874015748,
                    "duration": 0.15625
                },
                {
                    "name": "G2",
                    "midi": 43,
                    "time": 147.34375,
                    "velocity": 0.3937007874015748,
                    "duration": 0.15625
                },
                {
                    "name": "C3",
                    "midi": 48,
                    "time": 147.5,
                    "velocity": 0.3937007874015748,
                    "duration": 0.3125
                },
                {
                    "name": "C3",
                    "midi": 48,
                    "time": 147.8125,
                    "velocity": 0.4251968503937008,
                    "duration": 0.625
                },
                {
                    "name": "G3",
                    "midi": 55,
                    "time": 147.8125,
                    "velocity": 0.4251968503937008,
                    "duration": 0.625
                },
                {
                    "name": "C4",
                    "midi": 60,
                    "time": 147.8125,
                    "velocity": 0.4251968503937008,
                    "duration": 0.625
                },
                {
                    "name": "A#2",
                    "midi": 46,
                    "time": 148.4375,
                    "velocity": 0.48031496062992124,
                    "duration": 0.3125
                },
                {
                    "name": "E3",
                    "midi": 52,
                    "time": 148.4375,
                    "velocity": 0.48031496062992124,
                    "duration": 0.3125
                },
                {
                    "name": "C4",
                    "midi": 60,
                    "time": 148.4375,
                    "velocity": 0.48031496062992124,
                    "duration": 0.3125
                },
                {
                    "name": "A2",
                    "midi": 45,
                    "time": 148.75,
                    "velocity": 0.5039370078740157,
                    "duration": 0.3125
                },
                {
                    "name": "F3",
                    "midi": 53,
                    "time": 148.75,
                    "velocity": 0.5039370078740157,
                    "duration": 0.3125
                },
                {
                    "name": "C4",
                    "midi": 60,
                    "time": 148.75,
                    "velocity": 0.5039370078740157,
                    "duration": 0.3125
                },
                {
                    "name": "A2",
                    "midi": 45,
                    "time": 149.0625,
                    "velocity": 0.5039370078740157,
                    "duration": 0.625
                },
                {
                    "name": "F3",
                    "midi": 53,
                    "time": 149.0625,
                    "velocity": 0.5039370078740157,
                    "duration": 0.625
                },
                {
                    "name": "C4",
                    "midi": 60,
                    "time": 149.0625,
                    "velocity": 0.5039370078740157,
                    "duration": 0.625
                },
                {
                    "name": "F2",
                    "midi": 41,
                    "time": 149.6875,
                    "velocity": 0.5039370078740157,
                    "duration": 0.3125
                },
                {
                    "name": "C3",
                    "midi": 48,
                    "time": 149.6875,
                    "velocity": 0.5039370078740157,
                    "duration": 0.3125
                },
                {
                    "name": "F3",
                    "midi": 53,
                    "time": 149.6875,
                    "velocity": 0.5039370078740157,
                    "duration": 0.3125
                },
                {
                    "name": "C3",
                    "midi": 48,
                    "time": 150,
                    "velocity": 0.5039370078740157,
                    "duration": 0.3125
                },
                {
                    "name": "C3",
                    "midi": 48,
                    "time": 150.3125,
                    "velocity": 0.47244094488188976,
                    "duration": 0.625
                },
                {
                    "name": "G3",
                    "midi": 55,
                    "time": 150.3125,
                    "velocity": 0.47244094488188976,
                    "duration": 0.625
                },
                {
                    "name": "C4",
                    "midi": 60,
                    "time": 150.3125,
                    "velocity": 0.47244094488188976,
                    "duration": 0.625
                },
                {
                    "name": "A#2",
                    "midi": 46,
                    "time": 150.9375,
                    "velocity": 0.41732283464566927,
                    "duration": 0.3125
                },
                {
                    "name": "E3",
                    "midi": 52,
                    "time": 150.9375,
                    "velocity": 0.41732283464566927,
                    "duration": 0.3125
                },
                {
                    "name": "C4",
                    "midi": 60,
                    "time": 150.9375,
                    "velocity": 0.41732283464566927,
                    "duration": 0.3125
                },
                {
                    "name": "A2",
                    "midi": 45,
                    "time": 151.25,
                    "velocity": 0.3937007874015748,
                    "duration": 0.3125
                },
                {
                    "name": "F3",
                    "midi": 53,
                    "time": 151.25,
                    "velocity": 0.3937007874015748,
                    "duration": 0.3125
                },
                {
                    "name": "C4",
                    "midi": 60,
                    "time": 151.25,
                    "velocity": 0.3937007874015748,
                    "duration": 0.3125
                },
                {
                    "name": "A2",
                    "midi": 45,
                    "time": 151.5625,
                    "velocity": 0.4566929133858268,
                    "duration": 0.625
                },
                {
                    "name": "F3",
                    "midi": 53,
                    "time": 151.5625,
                    "velocity": 0.4566929133858268,
                    "duration": 0.625
                },
                {
                    "name": "C4",
                    "midi": 60,
                    "time": 151.5625,
                    "velocity": 0.4566929133858268,
                    "duration": 0.625
                },
                {
                    "name": "F2",
                    "midi": 41,
                    "time": 152.1875,
                    "velocity": 0.5748031496062992,
                    "duration": 0.3125
                },
                {
                    "name": "C3",
                    "midi": 48,
                    "time": 152.1875,
                    "velocity": 0.5748031496062992,
                    "duration": 0.3125
                },
                {
                    "name": "F3",
                    "midi": 53,
                    "time": 152.1875,
                    "velocity": 0.5748031496062992,
                    "duration": 0.3125
                },
                {
                    "name": "C2",
                    "midi": 36,
                    "time": 152.5,
                    "velocity": 0.7874015748031497,
                    "duration": 0.6298828125
                },
                {
                    "name": "G2",
                    "midi": 43,
                    "time": 152.5,
                    "velocity": 0.7874015748031497,
                    "duration": 0.6298828125
                },
                {
                    "name": "C3",
                    "midi": 48,
                    "time": 152.5,
                    "velocity": 0.7874015748031497,
                    "duration": 0.6298828125
                },
                {
                    "name": "C4",
                    "midi": 60,
                    "time": 152.5,
                    "velocity": 0.7874015748031497,
                    "duration": 0.6298828125
                },
                {
                    "name": "F4",
                    "midi": 65,
                    "time": 152.96875,
                    "velocity": 0.23622047244094488,
                    "duration": 0.15625
                },
                {
                    "name": "E4",
                    "midi": 64,
                    "time": 153.125,
                    "velocity": 0.23622047244094488,
                    "duration": 0.46875
                },
                {
                    "name": "E3",
                    "midi": 52,
                    "time": 153.28125,
                    "velocity": 0.23622047244094488,
                    "duration": 0.3125
                },
                {
                    "name": "D4",
                    "midi": 62,
                    "time": 153.59375,
                    "velocity": 0.23622047244094488,
                    "duration": 0.15625
                },
                {
                    "name": "C4",
                    "midi": 60,
                    "time": 153.75,
                    "velocity": 0.23622047244094488,
                    "duration": 0.46875
                },
                {
                    "name": "C3",
                    "midi": 48,
                    "time": 153.90625,
                    "velocity": 0.23622047244094488,
                    "duration": 0.3125
                },
                {
                    "name": "A#3",
                    "midi": 58,
                    "time": 154.21875,
                    "velocity": 0.2283464566929134,
                    "duration": 0.15625
                },
                {
                    "name": "A3",
                    "midi": 57,
                    "time": 154.375,
                    "velocity": 0.2283464566929134,
                    "duration": 0.46875
                },
                {
                    "name": "A2",
                    "midi": 45,
                    "time": 154.53125,
                    "velocity": 0.2283464566929134,
                    "duration": 0.3125
                },
                {
                    "name": "G3",
                    "midi": 55,
                    "time": 154.84375,
                    "velocity": 0.2204724409448819,
                    "duration": 0.15625
                },
                {
                    "name": "F3",
                    "midi": 53,
                    "time": 155,
                    "velocity": 0.2204724409448819,
                    "duration": 0.46875
                },
                {
                    "name": "F2",
                    "midi": 41,
                    "time": 155.15625,
                    "velocity": 0.2204724409448819,
                    "duration": 0.3125
                },
                {
                    "name": "E3",
                    "midi": 52,
                    "time": 155.46875,
                    "velocity": 0.2125984251968504,
                    "duration": 0.15625
                },
                {
                    "name": "D3",
                    "midi": 50,
                    "time": 155.625,
                    "velocity": 0.2125984251968504,
                    "duration": 0.46875
                },
                {
                    "name": "D2",
                    "midi": 38,
                    "time": 155.78125,
                    "velocity": 0.2125984251968504,
                    "duration": 0.3125
                },
                {
                    "name": "C4",
                    "midi": 60,
                    "time": 156.09375,
                    "velocity": 0.2047244094488189,
                    "duration": 0.15625
                },
                {
                    "name": "B3",
                    "midi": 59,
                    "time": 156.25,
                    "velocity": 0.2047244094488189,
                    "duration": 0.46875
                },
                {
                    "name": "B2",
                    "midi": 47,
                    "time": 156.40625,
                    "velocity": 0.1968503937007874,
                    "duration": 0.3125
                },
                {
                    "name": "A3",
                    "midi": 57,
                    "time": 156.71875,
                    "velocity": 0.1968503937007874,
                    "duration": 0.15625
                },
                {
                    "name": "G3",
                    "midi": 55,
                    "time": 156.875,
                    "velocity": 0.1968503937007874,
                    "duration": 0.46875
                },
                {
                    "name": "G2",
                    "midi": 43,
                    "time": 157.03125,
                    "velocity": 0.1889763779527559,
                    "duration": 0.3125
                },
                {
                    "name": "F3",
                    "midi": 53,
                    "time": 157.34375,
                    "velocity": 0.1889763779527559,
                    "duration": 0.15625
                },
                {
                    "name": "E3",
                    "midi": 52,
                    "time": 157.5,
                    "velocity": 0.1889763779527559,
                    "duration": 0.46875
                },
                {
                    "name": "E2",
                    "midi": 40,
                    "time": 157.65625,
                    "velocity": 0.18110236220472442,
                    "duration": 0.3125
                },
                {
                    "name": "D3",
                    "midi": 50,
                    "time": 157.96875,
                    "velocity": 0.18110236220472442,
                    "duration": 0.15625
                },
                {
                    "name": "C3",
                    "midi": 48,
                    "time": 158.125,
                    "velocity": 0.1732283464566929,
                    "duration": 0.46875
                },
                {
                    "name": "C2",
                    "midi": 36,
                    "time": 158.28125,
                    "velocity": 0.1732283464566929,
                    "duration": 0.3125
                },
                {
                    "name": "A#3",
                    "midi": 58,
                    "time": 158.59375,
                    "velocity": 0.1732283464566929,
                    "duration": 0.15625
                },
                {
                    "name": "A3",
                    "midi": 57,
                    "time": 158.75,
                    "velocity": 0.16535433070866143,
                    "duration": 0.46875
                },
                {
                    "name": "A2",
                    "midi": 45,
                    "time": 158.90625,
                    "velocity": 0.16535433070866143,
                    "duration": 0.3125
                },
                {
                    "name": "G3",
                    "midi": 55,
                    "time": 159.21875,
                    "velocity": 0.16535433070866143,
                    "duration": 0.15625
                },
                {
                    "name": "F3",
                    "midi": 53,
                    "time": 159.375,
                    "velocity": 0.15748031496062992,
                    "duration": 0.46875
                },
                {
                    "name": "F2",
                    "midi": 41,
                    "time": 159.53125,
                    "velocity": 0.15748031496062992,
                    "duration": 0.3125
                },
                {
                    "name": "E3",
                    "midi": 52,
                    "time": 159.84375,
                    "velocity": 0.15748031496062992,
                    "duration": 0.15625
                },
                {
                    "name": "D3",
                    "midi": 50,
                    "time": 160,
                    "velocity": 0.14960629921259844,
                    "duration": 0.46875
                },
                {
                    "name": "D2",
                    "midi": 38,
                    "time": 160.15625,
                    "velocity": 0.14960629921259844,
                    "duration": 0.3125
                },
                {
                    "name": "C3",
                    "midi": 48,
                    "time": 160.46875,
                    "velocity": 0.14173228346456693,
                    "duration": 0.15625
                },
                {
                    "name": "B2",
                    "midi": 47,
                    "time": 160.625,
                    "velocity": 0.14173228346456693,
                    "duration": 0.46875
                },
                {
                    "name": "B1",
                    "midi": 35,
                    "time": 160.78125,
                    "velocity": 0.14173228346456693,
                    "duration": 0.3125
                },
                {
                    "name": "A2",
                    "midi": 45,
                    "time": 161.09375,
                    "velocity": 0.13385826771653545,
                    "duration": 0.15625
                },
                {
                    "name": "G2",
                    "midi": 43,
                    "time": 161.25,
                    "velocity": 0.13385826771653545,
                    "duration": 0.46875
                },
                {
                    "name": "G1",
                    "midi": 31,
                    "time": 161.40625,
                    "velocity": 0.13385826771653545,
                    "duration": 0.3125
                },
                {
                    "name": "F2",
                    "midi": 41,
                    "time": 161.71875,
                    "velocity": 0.12598425196850394,
                    "duration": 0.15625
                },
                {
                    "name": "E2",
                    "midi": 40,
                    "time": 161.875,
                    "velocity": 0.12598425196850394,
                    "duration": 0.625
                },
                {
                    "name": "E1",
                    "midi": 28,
                    "time": 162.03125,
                    "velocity": 0.12598425196850394,
                    "duration": 0.15625
                },
                {
                    "name": "F#1",
                    "midi": 30,
                    "time": 162.1875,
                    "velocity": 0.12598425196850394,
                    "duration": 0.15625
                },
                {
                    "name": "G#1",
                    "midi": 32,
                    "time": 162.34375,
                    "velocity": 0.11811023622047244,
                    "duration": 0.15625
                },
                {
                    "name": "A1",
                    "midi": 33,
                    "time": 162.5,
                    "velocity": 0.15748031496062992,
                    "duration": 0.15625
                },
                {
                    "name": "C2",
                    "midi": 36,
                    "time": 162.5,
                    "velocity": 0.15748031496062992,
                    "duration": 0.15625
                },
                {
                    "name": "B1",
                    "midi": 35,
                    "time": 162.65625,
                    "velocity": 0.1732283464566929,
                    "duration": 0.15625
                },
                {
                    "name": "D2",
                    "midi": 38,
                    "time": 162.65625,
                    "velocity": 0.1732283464566929,
                    "duration": 0.15625
                },
                {
                    "name": "C2",
                    "midi": 36,
                    "time": 162.8125,
                    "velocity": 0.1889763779527559,
                    "duration": 0.15625
                },
                {
                    "name": "E2",
                    "midi": 40,
                    "time": 162.8125,
                    "velocity": 0.1889763779527559,
                    "duration": 0.15625
                },
                {
                    "name": "D2",
                    "midi": 38,
                    "time": 162.96875,
                    "velocity": 0.2047244094488189,
                    "duration": 0.15625
                },
                {
                    "name": "F2",
                    "midi": 41,
                    "time": 162.96875,
                    "velocity": 0.2047244094488189,
                    "duration": 0.15625
                },
                {
                    "name": "E2",
                    "midi": 40,
                    "time": 163.125,
                    "velocity": 0.2204724409448819,
                    "duration": 0.15625
                },
                {
                    "name": "G2",
                    "midi": 43,
                    "time": 163.125,
                    "velocity": 0.2204724409448819,
                    "duration": 0.15625
                },
                {
                    "name": "F2",
                    "midi": 41,
                    "time": 163.28125,
                    "velocity": 0.2283464566929134,
                    "duration": 0.15625
                },
                {
                    "name": "A2",
                    "midi": 45,
                    "time": 163.28125,
                    "velocity": 0.2283464566929134,
                    "duration": 0.15625
                },
                {
                    "name": "G2",
                    "midi": 43,
                    "time": 163.4375,
                    "velocity": 0.2440944881889764,
                    "duration": 0.15625
                },
                {
                    "name": "B2",
                    "midi": 47,
                    "time": 163.4375,
                    "velocity": 0.2440944881889764,
                    "duration": 0.15625
                },
                {
                    "name": "A2",
                    "midi": 45,
                    "time": 163.59375,
                    "velocity": 0.25984251968503935,
                    "duration": 0.15625
                },
                {
                    "name": "C3",
                    "midi": 48,
                    "time": 163.59375,
                    "velocity": 0.25984251968503935,
                    "duration": 0.15625
                },
                {
                    "name": "G2",
                    "midi": 43,
                    "time": 163.75,
                    "velocity": 0.2755905511811024,
                    "duration": 0.15625
                },
                {
                    "name": "D3",
                    "midi": 50,
                    "time": 163.75,
                    "velocity": 0.2755905511811024,
                    "duration": 0.15625
                },
                {
                    "name": "C3",
                    "midi": 48,
                    "time": 163.90625,
                    "velocity": 0.29133858267716534,
                    "duration": 0.15625
                },
                {
                    "name": "E3",
                    "midi": 52,
                    "time": 163.90625,
                    "velocity": 0.29133858267716534,
                    "duration": 0.15625
                },
                {
                    "name": "B2",
                    "midi": 47,
                    "time": 164.0625,
                    "velocity": 0.30708661417322836,
                    "duration": 0.15625
                },
                {
                    "name": "D3",
                    "midi": 50,
                    "time": 164.0625,
                    "velocity": 0.30708661417322836,
                    "duration": 0.15625
                },
                {
                    "name": "A#2",
                    "midi": 46,
                    "time": 164.21875,
                    "velocity": 0.3228346456692913,
                    "duration": 0.15625
                },
                {
                    "name": "C#3",
                    "midi": 49,
                    "time": 164.21875,
                    "velocity": 0.3228346456692913,
                    "duration": 0.15625
                },
                {
                    "name": "A2",
                    "midi": 45,
                    "time": 164.375,
                    "velocity": 0.33858267716535434,
                    "duration": 0.15625
                },
                {
                    "name": "C3",
                    "midi": 48,
                    "time": 164.375,
                    "velocity": 0.33858267716535434,
                    "duration": 0.15625
                },
                {
                    "name": "G2",
                    "midi": 43,
                    "time": 164.53125,
                    "velocity": 0.3464566929133858,
                    "duration": 0.15625
                },
                {
                    "name": "B2",
                    "midi": 47,
                    "time": 164.53125,
                    "velocity": 0.3464566929133858,
                    "duration": 0.15625
                },
                {
                    "name": "F#2",
                    "midi": 42,
                    "time": 164.6875,
                    "velocity": 0.36220472440944884,
                    "duration": 0.15625
                },
                {
                    "name": "A2",
                    "midi": 45,
                    "time": 164.6875,
                    "velocity": 0.36220472440944884,
                    "duration": 0.15625
                },
                {
                    "name": "F2",
                    "midi": 41,
                    "time": 164.84375,
                    "velocity": 0.3779527559055118,
                    "duration": 0.15625
                },
                {
                    "name": "G#2",
                    "midi": 44,
                    "time": 164.84375,
                    "velocity": 0.3779527559055118,
                    "duration": 0.15625
                },
                {
                    "name": "E2",
                    "midi": 40,
                    "time": 165,
                    "velocity": 0.3937007874015748,
                    "duration": 0.15625
                },
                {
                    "name": "G2",
                    "midi": 43,
                    "time": 165,
                    "velocity": 0.3937007874015748,
                    "duration": 0.15625
                },
                {
                    "name": "D2",
                    "midi": 38,
                    "time": 165.15625,
                    "velocity": 0.4094488188976378,
                    "duration": 0.15625
                },
                {
                    "name": "F2",
                    "midi": 41,
                    "time": 165.15625,
                    "velocity": 0.4094488188976378,
                    "duration": 0.15625
                },
                {
                    "name": "C2",
                    "midi": 36,
                    "time": 165.3125,
                    "velocity": 0.4251968503937008,
                    "duration": 0.15625
                },
                {
                    "name": "E2",
                    "midi": 40,
                    "time": 165.3125,
                    "velocity": 0.4251968503937008,
                    "duration": 0.15625
                },
                {
                    "name": "A#1",
                    "midi": 34,
                    "time": 165.46875,
                    "velocity": 0.4409448818897638,
                    "duration": 0.15625
                },
                {
                    "name": "A1",
                    "midi": 33,
                    "time": 165.625,
                    "velocity": 0.4566929133858268,
                    "duration": 0.15625
                },
                {
                    "name": "C#2",
                    "midi": 37,
                    "time": 165.78125,
                    "velocity": 0.4645669291338583,
                    "duration": 0.15625
                },
                {
                    "name": "D2",
                    "midi": 38,
                    "time": 165.9375,
                    "velocity": 0.48031496062992124,
                    "duration": 0.15625
                },
                {
                    "name": "F#2",
                    "midi": 42,
                    "time": 166.09375,
                    "velocity": 0.49606299212598426,
                    "duration": 0.15625
                },
                {
                    "name": "B1",
                    "midi": 35,
                    "time": 166.25,
                    "velocity": 0.5118110236220472,
                    "duration": 0.15625
                },
                {
                    "name": "D#2",
                    "midi": 39,
                    "time": 166.40625,
                    "velocity": 0.5275590551181102,
                    "duration": 0.15625
                },
                {
                    "name": "E2",
                    "midi": 40,
                    "time": 166.5625,
                    "velocity": 0.5433070866141733,
                    "duration": 0.15625
                },
                {
                    "name": "G2",
                    "midi": 43,
                    "time": 166.71875,
                    "velocity": 0.5590551181102362,
                    "duration": 0.15625
                },
                {
                    "name": "C2",
                    "midi": 36,
                    "time": 166.875,
                    "velocity": 0.5748031496062992,
                    "duration": 0.15625
                },
                {
                    "name": "E2",
                    "midi": 40,
                    "time": 167.03125,
                    "velocity": 0.5826771653543307,
                    "duration": 0.15625
                },
                {
                    "name": "F2",
                    "midi": 41,
                    "time": 167.1875,
                    "velocity": 0.5984251968503937,
                    "duration": 0.15625
                },
                {
                    "name": "A2",
                    "midi": 45,
                    "time": 167.34375,
                    "velocity": 0.6141732283464567,
                    "duration": 0.15625
                },
                {
                    "name": "D3",
                    "midi": 50,
                    "time": 167.5,
                    "velocity": 0.6299212598425197,
                    "duration": 0.15625
                },
                {
                    "name": "F#3",
                    "midi": 54,
                    "time": 167.65625,
                    "velocity": 0.6456692913385826,
                    "duration": 0.15625
                },
                {
                    "name": "G3",
                    "midi": 55,
                    "time": 167.8125,
                    "velocity": 0.6614173228346457,
                    "duration": 0.15625
                },
                {
                    "name": "B3",
                    "midi": 59,
                    "time": 167.96875,
                    "velocity": 0.6771653543307087,
                    "duration": 0.15625
                },
                {
                    "name": "E4",
                    "midi": 64,
                    "time": 168.125,
                    "velocity": 0.6929133858267716,
                    "duration": 0.15625
                },
                {
                    "name": "G#4",
                    "midi": 68,
                    "time": 168.28125,
                    "velocity": 0.7007874015748031,
                    "duration": 0.15625
                },
                {
                    "name": "A4",
                    "midi": 69,
                    "time": 168.4375,
                    "velocity": 0.7165354330708661,
                    "duration": 0.15625
                },
                {
                    "name": "E4",
                    "midi": 64,
                    "time": 168.59375,
                    "velocity": 0.7322834645669292,
                    "duration": 0.15625
                },
                {
                    "name": "A#4",
                    "midi": 70,
                    "time": 168.59375,
                    "velocity": 0.7322834645669292,
                    "duration": 0.15625
                },
                {
                    "name": "D4",
                    "midi": 62,
                    "time": 168.75,
                    "velocity": 0.7874015748031497,
                    "duration": 0.3125
                },
                {
                    "name": "B4",
                    "midi": 71,
                    "time": 168.75,
                    "velocity": 0.7874015748031497,
                    "duration": 0.3125
                },
                {
                    "name": "C#4",
                    "midi": 61,
                    "time": 169.21875,
                    "velocity": 0.7322834645669292,
                    "duration": 0.15625
                },
                {
                    "name": "D4",
                    "midi": 62,
                    "time": 169.375,
                    "velocity": 0.7165354330708661,
                    "duration": 0.15625
                },
                {
                    "name": "A#4",
                    "midi": 70,
                    "time": 169.53125,
                    "velocity": 0.7007874015748031,
                    "duration": 0.15625
                },
                {
                    "name": "B4",
                    "midi": 71,
                    "time": 169.6875,
                    "velocity": 0.6771653543307087,
                    "duration": 0.15625
                },
                {
                    "name": "A#4",
                    "midi": 70,
                    "time": 169.84375,
                    "velocity": 0.6614173228346457,
                    "duration": 0.15625
                },
                {
                    "name": "B4",
                    "midi": 71,
                    "time": 170,
                    "velocity": 0.6456692913385826,
                    "duration": 0.15625
                },
                {
                    "name": "G#4",
                    "midi": 68,
                    "time": 170.15625,
                    "velocity": 0.6299212598425197,
                    "duration": 0.15625
                },
                {
                    "name": "A4",
                    "midi": 69,
                    "time": 170.3125,
                    "velocity": 0.6062992125984252,
                    "duration": 0.15625
                },
                {
                    "name": "F#4",
                    "midi": 66,
                    "time": 170.46875,
                    "velocity": 0.5905511811023622,
                    "duration": 0.15625
                },
                {
                    "name": "G4",
                    "midi": 67,
                    "time": 170.625,
                    "velocity": 0.5748031496062992,
                    "duration": 0.15625
                },
                {
                    "name": "D#4",
                    "midi": 63,
                    "time": 170.78125,
                    "velocity": 0.5590551181102362,
                    "duration": 0.15625
                },
                {
                    "name": "E4",
                    "midi": 64,
                    "time": 170.9375,
                    "velocity": 0.5354330708661418,
                    "duration": 0.15625
                },
                {
                    "name": "C#4",
                    "midi": 61,
                    "time": 171.09375,
                    "velocity": 0.5196850393700787,
                    "duration": 0.15625
                },
                {
                    "name": "D4",
                    "midi": 62,
                    "time": 171.25,
                    "velocity": 0.5039370078740157,
                    "duration": 0.3125
                },
                {
                    "name": "C#3",
                    "midi": 49,
                    "time": 171.71875,
                    "velocity": 0.48031496062992124,
                    "duration": 0.15625
                },
                {
                    "name": "D3",
                    "midi": 50,
                    "time": 171.875,
                    "velocity": 0.47244094488188976,
                    "duration": 0.15625
                },
                {
                    "name": "A#3",
                    "midi": 58,
                    "time": 172.03125,
                    "velocity": 0.4645669291338583,
                    "duration": 0.15625
                },
                {
                    "name": "B3",
                    "midi": 59,
                    "time": 172.1875,
                    "velocity": 0.4566929133858268,
                    "duration": 0.15625
                },
                {
                    "name": "A#3",
                    "midi": 58,
                    "time": 172.34375,
                    "velocity": 0.44881889763779526,
                    "duration": 0.15625
                },
                {
                    "name": "B3",
                    "midi": 59,
                    "time": 172.5,
                    "velocity": 0.4330708661417323,
                    "duration": 0.15625
                },
                {
                    "name": "G#3",
                    "midi": 56,
                    "time": 172.65625,
                    "velocity": 0.4251968503937008,
                    "duration": 0.15625
                },
                {
                    "name": "A3",
                    "midi": 57,
                    "time": 172.8125,
                    "velocity": 0.41732283464566927,
                    "duration": 0.15625
                },
                {
                    "name": "F#3",
                    "midi": 54,
                    "time": 172.96875,
                    "velocity": 0.4094488188976378,
                    "duration": 0.15625
                },
                {
                    "name": "G3",
                    "midi": 55,
                    "time": 173.125,
                    "velocity": 0.4015748031496063,
                    "duration": 0.15625
                },
                {
                    "name": "D#3",
                    "midi": 51,
                    "time": 173.28125,
                    "velocity": 0.3937007874015748,
                    "duration": 0.15625
                },
                {
                    "name": "E3",
                    "midi": 52,
                    "time": 173.4375,
                    "velocity": 0.3858267716535433,
                    "duration": 0.15625
                },
                {
                    "name": "F3",
                    "midi": 53,
                    "time": 173.59375,
                    "velocity": 0.3779527559055118,
                    "duration": 0.15625
                },
                {
                    "name": "F#3",
                    "midi": 54,
                    "time": 173.75,
                    "velocity": 0.3700787401574803,
                    "duration": 0.15625
                },
                {
                    "name": "D3",
                    "midi": 50,
                    "time": 173.75,
                    "velocity": 0.3700787401574803,
                    "duration": 0.3125
                },
                {
                    "name": "C4",
                    "midi": 60,
                    "time": 173.75,
                    "velocity": 0.3700787401574803,
                    "duration": 0.3125
                },
                {
                    "name": "F3",
                    "midi": 53,
                    "time": 173.90625,
                    "velocity": 0.36220472440944884,
                    "duration": 0.15625
                },
                {
                    "name": "F#3",
                    "midi": 54,
                    "time": 174.0625,
                    "velocity": 0.3543307086614173,
                    "duration": 0.15625
                },
                {
                    "name": "D3",
                    "midi": 50,
                    "time": 174.0625,
                    "velocity": 0.3543307086614173,
                    "duration": 0.625
                },
                {
                    "name": "C4",
                    "midi": 60,
                    "time": 174.0625,
                    "velocity": 0.3543307086614173,
                    "duration": 0.625
                },
                {
                    "name": "G3",
                    "midi": 55,
                    "time": 174.21875,
                    "velocity": 0.3464566929133858,
                    "duration": 0.15625
                },
                {
                    "name": "A3",
                    "midi": 57,
                    "time": 174.375,
                    "velocity": 0.33858267716535434,
                    "duration": 0.15625
                },
                {
                    "name": "G#3",
                    "midi": 56,
                    "time": 174.53125,
                    "velocity": 0.33070866141732286,
                    "duration": 0.15625
                },
                {
                    "name": "A3",
                    "midi": 57,
                    "time": 174.6875,
                    "velocity": 0.3228346456692913,
                    "duration": 0.15625
                },
                {
                    "name": "D3",
                    "midi": 50,
                    "time": 174.6875,
                    "velocity": 0.3228346456692913,
                    "duration": 0.3125
                },
                {
                    "name": "C4",
                    "midi": 60,
                    "time": 174.6875,
                    "velocity": 0.3228346456692913,
                    "duration": 0.3125
                },
                {
                    "name": "G3",
                    "midi": 55,
                    "time": 174.84375,
                    "velocity": 0.31496062992125984,
                    "duration": 0.15625
                },
                {
                    "name": "F3",
                    "midi": 53,
                    "time": 175,
                    "velocity": 0.2992125984251969,
                    "duration": 0.15625
                },
                {
                    "name": "D3",
                    "midi": 50,
                    "time": 175,
                    "velocity": 0.2992125984251969,
                    "duration": 0.3125
                },
                {
                    "name": "A3",
                    "midi": 57,
                    "time": 175,
                    "velocity": 0.2992125984251969,
                    "duration": 0.3125
                },
                {
                    "name": "F#3",
                    "midi": 54,
                    "time": 175.15625,
                    "velocity": 0.29133858267716534,
                    "duration": 0.15625
                },
                {
                    "name": "G3",
                    "midi": 55,
                    "time": 175.3125,
                    "velocity": 0.28346456692913385,
                    "duration": 0.15625
                },
                {
                    "name": "D3",
                    "midi": 50,
                    "time": 175.3125,
                    "velocity": 0.28346456692913385,
                    "duration": 0.625
                },
                {
                    "name": "C4",
                    "midi": 60,
                    "time": 175.3125,
                    "velocity": 0.28346456692913385,
                    "duration": 0.625
                },
                {
                    "name": "A3",
                    "midi": 57,
                    "time": 175.46875,
                    "velocity": 0.2755905511811024,
                    "duration": 0.15625
                },
                {
                    "name": "F3",
                    "midi": 53,
                    "time": 175.625,
                    "velocity": 0.2677165354330709,
                    "duration": 0.15625
                },
                {
                    "name": "F#3",
                    "midi": 54,
                    "time": 175.78125,
                    "velocity": 0.25984251968503935,
                    "duration": 0.15625
                },
                {
                    "name": "G3",
                    "midi": 55,
                    "time": 175.9375,
                    "velocity": 0.25196850393700787,
                    "duration": 0.15625
                },
                {
                    "name": "D3",
                    "midi": 50,
                    "time": 175.9375,
                    "velocity": 0.25196850393700787,
                    "duration": 0.3125
                },
                {
                    "name": "C4",
                    "midi": 60,
                    "time": 175.9375,
                    "velocity": 0.25196850393700787,
                    "duration": 0.3125
                },
                {
                    "name": "A3",
                    "midi": 57,
                    "time": 176.09375,
                    "velocity": 0.2440944881889764,
                    "duration": 0.15625
                },
                {
                    "name": "B3",
                    "midi": 59,
                    "time": 176.25,
                    "velocity": 0.2755905511811024,
                    "duration": 0.625
                },
                {
                    "name": "G2",
                    "midi": 43,
                    "time": 176.25,
                    "velocity": 0.2755905511811024,
                    "duration": 1.25
                },
                {
                    "name": "G3",
                    "midi": 55,
                    "time": 176.875,
                    "velocity": 0.2755905511811024,
                    "duration": 0.46875
                },
                {
                    "name": "E3",
                    "midi": 52,
                    "time": 177.34375,
                    "velocity": 0.2755905511811024,
                    "duration": 0.15625
                },
                {
                    "name": "D3",
                    "midi": 50,
                    "time": 177.5,
                    "velocity": 0.2755905511811024,
                    "duration": 1.09375
                },
                {
                    "name": "G2",
                    "midi": 43,
                    "time": 177.5,
                    "velocity": 0.2755905511811024,
                    "duration": 1.25
                },
                {
                    "name": "B3",
                    "midi": 59,
                    "time": 178.59375,
                    "velocity": 0.2755905511811024,
                    "duration": 0.15625
                },
                {
                    "name": "A3",
                    "midi": 57,
                    "time": 178.75,
                    "velocity": 0.2755905511811024,
                    "duration": 0.46875
                },
                {
                    "name": "G2",
                    "midi": 43,
                    "time": 178.75,
                    "velocity": 0.2755905511811024,
                    "duration": 0.625
                },
                {
                    "name": "D#3",
                    "midi": 51,
                    "time": 179.21875,
                    "velocity": 0.2755905511811024,
                    "duration": 0.15625
                },
                {
                    "name": "D3",
                    "midi": 50,
                    "time": 179.375,
                    "velocity": 0.2755905511811024,
                    "duration": 0.46875
                },
                {
                    "name": "G2",
                    "midi": 43,
                    "time": 179.375,
                    "velocity": 0.2755905511811024,
                    "duration": 0.625
                },
                {
                    "name": "F#3",
                    "midi": 54,
                    "time": 179.84375,
                    "velocity": 0.2755905511811024,
                    "duration": 0.15625
                },
                {
                    "name": "G2",
                    "midi": 43,
                    "time": 180,
                    "velocity": 0.2755905511811024,
                    "duration": 0.9375
                },
                {
                    "name": "G3",
                    "midi": 55,
                    "time": 180,
                    "velocity": 0.2755905511811024,
                    "duration": 0.9375
                },
                {
                    "name": "E3",
                    "midi": 52,
                    "time": 181.09375,
                    "velocity": 0.2755905511811024,
                    "duration": 0.15625
                },
                {
                    "name": "D3",
                    "midi": 50,
                    "time": 181.25,
                    "velocity": 0.15748031496062992,
                    "duration": 0.15625
                },
                {
                    "name": "G2",
                    "midi": 43,
                    "time": 181.25,
                    "velocity": 0.15748031496062992,
                    "duration": 1.25
                },
                {
                    "name": "C#3",
                    "midi": 49,
                    "time": 181.40625,
                    "velocity": 0.15748031496062992,
                    "duration": 0.15625
                },
                {
                    "name": "D3",
                    "midi": 50,
                    "time": 181.5625,
                    "velocity": 0.15748031496062992,
                    "duration": 0.15625
                },
                {
                    "name": "C#3",
                    "midi": 49,
                    "time": 181.71875,
                    "velocity": 0.15748031496062992,
                    "duration": 0.15625
                },
                {
                    "name": "D3",
                    "midi": 50,
                    "time": 181.875,
                    "velocity": 0.15748031496062992,
                    "duration": 0.15625
                },
                {
                    "name": "C#3",
                    "midi": 49,
                    "time": 182.03125,
                    "velocity": 0.15748031496062992,
                    "duration": 0.15625
                },
                {
                    "name": "D3",
                    "midi": 50,
                    "time": 182.1875,
                    "velocity": 0.15748031496062992,
                    "duration": 0.15625
                },
                {
                    "name": "G3",
                    "midi": 55,
                    "time": 182.34375,
                    "velocity": 0.15748031496062992,
                    "duration": 0.15625
                },
                {
                    "name": "B3",
                    "midi": 59,
                    "time": 182.5,
                    "velocity": 0.15748031496062992,
                    "duration": 0.15625
                },
                {
                    "name": "G2",
                    "midi": 43,
                    "time": 182.5,
                    "velocity": 0.15748031496062992,
                    "duration": 1.25
                },
                {
                    "name": "D3",
                    "midi": 50,
                    "time": 182.5,
                    "velocity": 0.15748031496062992,
                    "duration": 1.25
                },
                {
                    "name": "A#3",
                    "midi": 58,
                    "time": 182.65625,
                    "velocity": 0.15748031496062992,
                    "duration": 0.15625
                },
                {
                    "name": "B3",
                    "midi": 59,
                    "time": 182.8125,
                    "velocity": 0.15748031496062992,
                    "duration": 0.15625
                },
                {
                    "name": "A#3",
                    "midi": 58,
                    "time": 182.96875,
                    "velocity": 0.15748031496062992,
                    "duration": 0.15625
                },
                {
                    "name": "B3",
                    "midi": 59,
                    "time": 183.125,
                    "velocity": 0.15748031496062992,
                    "duration": 0.15625
                },
                {
                    "name": "A#3",
                    "midi": 58,
                    "time": 183.28125,
                    "velocity": 0.15748031496062992,
                    "duration": 0.15625
                },
                {
                    "name": "B3",
                    "midi": 59,
                    "time": 183.4375,
                    "velocity": 0.15748031496062992,
                    "duration": 0.15625
                },
                {
                    "name": "G3",
                    "midi": 55,
                    "time": 183.59375,
                    "velocity": 0.15748031496062992,
                    "duration": 0.15625
                },
                {
                    "name": "C4",
                    "midi": 60,
                    "time": 183.75,
                    "velocity": 0.15748031496062992,
                    "duration": 0.15625
                },
                {
                    "name": "C3",
                    "midi": 48,
                    "time": 183.75,
                    "velocity": 0.15748031496062992,
                    "duration": 0.625
                },
                {
                    "name": "D#3",
                    "midi": 51,
                    "time": 183.75,
                    "velocity": 0.15748031496062992,
                    "duration": 0.625
                },
                {
                    "name": "B3",
                    "midi": 59,
                    "time": 183.90625,
                    "velocity": 0.15748031496062992,
                    "duration": 0.15625
                },
                {
                    "name": "C4",
                    "midi": 60,
                    "time": 184.0625,
                    "velocity": 0.15748031496062992,
                    "duration": 0.15625
                },
                {
                    "name": "G3",
                    "midi": 55,
                    "time": 184.21875,
                    "velocity": 0.15748031496062992,
                    "duration": 0.15625
                },
                {
                    "name": "F#3",
                    "midi": 54,
                    "time": 184.375,
                    "velocity": 0.15748031496062992,
                    "duration": 0.15625
                },
                {
                    "name": "D3",
                    "midi": 50,
                    "time": 184.375,
                    "velocity": 0.15748031496062992,
                    "duration": 0.625
                },
                {
                    "name": "F3",
                    "midi": 53,
                    "time": 184.53125,
                    "velocity": 0.15748031496062992,
                    "duration": 0.15625
                },
                {
                    "name": "F#3",
                    "midi": 54,
                    "time": 184.6875,
                    "velocity": 0.15748031496062992,
                    "duration": 0.15625
                },
                {
                    "name": "A3",
                    "midi": 57,
                    "time": 184.84375,
                    "velocity": 0.15748031496062992,
                    "duration": 0.15625
                },
                {
                    "name": "G2",
                    "midi": 43,
                    "time": 185,
                    "velocity": 0.15748031496062992,
                    "duration": 1.09375
                },
                {
                    "name": "D3",
                    "midi": 50,
                    "time": 185,
                    "velocity": 0.15748031496062992,
                    "duration": 1.09375
                },
                {
                    "name": "G3",
                    "midi": 55,
                    "time": 186.09375,
                    "velocity": 0.15748031496062992,
                    "duration": 0.78125
                },
                {
                    "name": "B3",
                    "midi": 59,
                    "time": 186.40625,
                    "velocity": 0.14173228346456693,
                    "duration": 0.3125
                },
                {
                    "name": "E4",
                    "midi": 64,
                    "time": 186.5625,
                    "velocity": 0.14173228346456693,
                    "duration": 0.15625
                },
                {
                    "name": "A#3",
                    "midi": 58,
                    "time": 186.71875,
                    "velocity": 0.14173228346456693,
                    "duration": 0.15625
                },
                {
                    "name": "A3",
                    "midi": 57,
                    "time": 186.875,
                    "velocity": 0.14173228346456693,
                    "duration": 0.15625
                },
                {
                    "name": "F#3",
                    "midi": 54,
                    "time": 186.875,
                    "velocity": 0.14173228346456693,
                    "duration": 0.3125
                },
                {
                    "name": "D4",
                    "midi": 62,
                    "time": 187.03125,
                    "velocity": 0.14173228346456693,
                    "duration": 0.15625
                },
                {
                    "name": "F#4",
                    "midi": 66,
                    "time": 187.1875,
                    "velocity": 0.14173228346456693,
                    "duration": 0.15625
                },
                {
                    "name": "A3",
                    "midi": 57,
                    "time": 187.34375,
                    "velocity": 0.14173228346456693,
                    "duration": 0.15625
                },
                {
                    "name": "E3",
                    "midi": 52,
                    "time": 187.5,
                    "velocity": 0.14173228346456693,
                    "duration": 0.15625
                },
                {
                    "name": "E3",
                    "midi": 52,
                    "time": 187.5,
                    "velocity": 0.14173228346456693,
                    "duration": 0.3125
                },
                {
                    "name": "D4",
                    "midi": 62,
                    "time": 187.65625,
                    "velocity": 0.14173228346456693,
                    "duration": 0.15625
                },
                {
                    "name": "A3",
                    "midi": 57,
                    "time": 187.8125,
                    "velocity": 0.14173228346456693,
                    "duration": 0.15625
                },
                {
                    "name": "A3",
                    "midi": 57,
                    "time": 187.8125,
                    "velocity": 0.14173228346456693,
                    "duration": 0.3125
                },
                {
                    "name": "C#4",
                    "midi": 61,
                    "time": 187.96875,
                    "velocity": 0.14173228346456693,
                    "duration": 0.15625
                },
                {
                    "name": "D3",
                    "midi": 50,
                    "time": 188.125,
                    "velocity": 0.14173228346456693,
                    "duration": 0.15625
                },
                {
                    "name": "D3",
                    "midi": 50,
                    "time": 188.125,
                    "velocity": 0.14173228346456693,
                    "duration": 0.46875
                },
                {
                    "name": "A3",
                    "midi": 57,
                    "time": 188.28125,
                    "velocity": 0.14173228346456693,
                    "duration": 0.15625
                },
                {
                    "name": "D4",
                    "midi": 62,
                    "time": 188.4375,
                    "velocity": 0.14173228346456693,
                    "duration": 0.15625
                },
                {
                    "name": "C3",
                    "midi": 48,
                    "time": 188.59375,
                    "velocity": 0.14173228346456693,
                    "duration": 0.78125
                },
                {
                    "name": "E3",
                    "midi": 52,
                    "time": 188.90625,
                    "velocity": 0.14173228346456693,
                    "duration": 0.3125
                },
                {
                    "name": "A3",
                    "midi": 57,
                    "time": 189.0625,
                    "velocity": 0.14173228346456693,
                    "duration": 0.15625
                },
                {
                    "name": "D#3",
                    "midi": 51,
                    "time": 189.21875,
                    "velocity": 0.14173228346456693,
                    "duration": 0.15625
                },
                {
                    "name": "D3",
                    "midi": 50,
                    "time": 189.375,
                    "velocity": 0.14173228346456693,
                    "duration": 0.15625
                },
                {
                    "name": "B2",
                    "midi": 47,
                    "time": 189.375,
                    "velocity": 0.14173228346456693,
                    "duration": 0.3125
                },
                {
                    "name": "G3",
                    "midi": 55,
                    "time": 189.53125,
                    "velocity": 0.14173228346456693,
                    "duration": 0.15625
                },
                {
                    "name": "B3",
                    "midi": 59,
                    "time": 189.6875,
                    "velocity": 0.14173228346456693,
                    "duration": 0.15625
                },
                {
                    "name": "D3",
                    "midi": 50,
                    "time": 189.84375,
                    "velocity": 0.14173228346456693,
                    "duration": 0.15625
                },
                {
                    "name": "A2",
                    "midi": 45,
                    "time": 190,
                    "velocity": 0.14173228346456693,
                    "duration": 0.15625
                },
                {
                    "name": "A2",
                    "midi": 45,
                    "time": 190,
                    "velocity": 0.14173228346456693,
                    "duration": 0.3125
                },
                {
                    "name": "G3",
                    "midi": 55,
                    "time": 190.15625,
                    "velocity": 0.14173228346456693,
                    "duration": 0.15625
                },
                {
                    "name": "D3",
                    "midi": 50,
                    "time": 190.3125,
                    "velocity": 0.14173228346456693,
                    "duration": 0.15625
                },
                {
                    "name": "D3",
                    "midi": 50,
                    "time": 190.3125,
                    "velocity": 0.14173228346456693,
                    "duration": 0.3125
                },
                {
                    "name": "F#3",
                    "midi": 54,
                    "time": 190.46875,
                    "velocity": 0.14173228346456693,
                    "duration": 0.15625
                },
                {
                    "name": "G2",
                    "midi": 43,
                    "time": 190.625,
                    "velocity": 0.14173228346456693,
                    "duration": 0.15625
                },
                {
                    "name": "G2",
                    "midi": 43,
                    "time": 190.625,
                    "velocity": 0.14173228346456693,
                    "duration": 0.46875
                },
                {
                    "name": "D3",
                    "midi": 50,
                    "time": 190.78125,
                    "velocity": 0.14173228346456693,
                    "duration": 0.15625
                },
                {
                    "name": "G3",
                    "midi": 55,
                    "time": 190.9375,
                    "velocity": 0.14173228346456693,
                    "duration": 0.15625
                },
                {
                    "name": "G3",
                    "midi": 55,
                    "time": 191.09375,
                    "velocity": 0.14173228346456693,
                    "duration": 0.78125
                },
                {
                    "name": "B3",
                    "midi": 59,
                    "time": 191.40625,
                    "velocity": 0.14173228346456693,
                    "duration": 0.3125
                },
                {
                    "name": "E4",
                    "midi": 64,
                    "time": 191.5625,
                    "velocity": 0.14173228346456693,
                    "duration": 0.15625
                },
                {
                    "name": "A#3",
                    "midi": 58,
                    "time": 191.71875,
                    "velocity": 0.14173228346456693,
                    "duration": 0.15625
                },
                {
                    "name": "A3",
                    "midi": 57,
                    "time": 191.875,
                    "velocity": 0.14173228346456693,
                    "duration": 0.15625
                },
                {
                    "name": "F#3",
                    "midi": 54,
                    "time": 191.875,
                    "velocity": 0.14173228346456693,
                    "duration": 0.3125
                },
                {
                    "name": "D4",
                    "midi": 62,
                    "time": 192.03125,
                    "velocity": 0.14173228346456693,
                    "duration": 0.15625
                },
                {
                    "name": "F#4",
                    "midi": 66,
                    "time": 192.1875,
                    "velocity": 0.14173228346456693,
                    "duration": 0.15625
                },
                {
                    "name": "A3",
                    "midi": 57,
                    "time": 192.34375,
                    "velocity": 0.14173228346456693,
                    "duration": 0.15625
                },
                {
                    "name": "E3",
                    "midi": 52,
                    "time": 192.5,
                    "velocity": 0.14173228346456693,
                    "duration": 0.15625
                },
                {
                    "name": "E3",
                    "midi": 52,
                    "time": 192.5,
                    "velocity": 0.14173228346456693,
                    "duration": 0.3125
                },
                {
                    "name": "D4",
                    "midi": 62,
                    "time": 192.65625,
                    "velocity": 0.14173228346456693,
                    "duration": 0.15625
                },
                {
                    "name": "A3",
                    "midi": 57,
                    "time": 192.8125,
                    "velocity": 0.14173228346456693,
                    "duration": 0.15625
                },
                {
                    "name": "A3",
                    "midi": 57,
                    "time": 192.8125,
                    "velocity": 0.14173228346456693,
                    "duration": 0.3125
                },
                {
                    "name": "C#4",
                    "midi": 61,
                    "time": 192.96875,
                    "velocity": 0.14173228346456693,
                    "duration": 0.15625
                },
                {
                    "name": "D3",
                    "midi": 50,
                    "time": 193.125,
                    "velocity": 0.14173228346456693,
                    "duration": 0.15625
                },
                {
                    "name": "D3",
                    "midi": 50,
                    "time": 193.125,
                    "velocity": 0.14173228346456693,
                    "duration": 0.46875
                },
                {
                    "name": "A3",
                    "midi": 57,
                    "time": 193.28125,
                    "velocity": 0.14173228346456693,
                    "duration": 0.15625
                },
                {
                    "name": "D4",
                    "midi": 62,
                    "time": 193.4375,
                    "velocity": 0.14173228346456693,
                    "duration": 0.15625
                },
                {
                    "name": "C3",
                    "midi": 48,
                    "time": 193.59375,
                    "velocity": 0.14173228346456693,
                    "duration": 0.78125
                },
                {
                    "name": "E3",
                    "midi": 52,
                    "time": 193.90625,
                    "velocity": 0.14173228346456693,
                    "duration": 0.3125
                },
                {
                    "name": "A3",
                    "midi": 57,
                    "time": 194.0625,
                    "velocity": 0.14173228346456693,
                    "duration": 0.15625
                },
                {
                    "name": "D#3",
                    "midi": 51,
                    "time": 194.21875,
                    "velocity": 0.14173228346456693,
                    "duration": 0.15625
                },
                {
                    "name": "D3",
                    "midi": 50,
                    "time": 194.375,
                    "velocity": 0.14173228346456693,
                    "duration": 0.15625
                },
                {
                    "name": "B2",
                    "midi": 47,
                    "time": 194.375,
                    "velocity": 0.14173228346456693,
                    "duration": 0.3125
                },
                {
                    "name": "G3",
                    "midi": 55,
                    "time": 194.53125,
                    "velocity": 0.14173228346456693,
                    "duration": 0.15625
                },
                {
                    "name": "B3",
                    "midi": 59,
                    "time": 194.6875,
                    "velocity": 0.14173228346456693,
                    "duration": 0.15625
                },
                {
                    "name": "D3",
                    "midi": 50,
                    "time": 194.84375,
                    "velocity": 0.14173228346456693,
                    "duration": 0.15625
                },
                {
                    "name": "C3",
                    "midi": 48,
                    "time": 195,
                    "velocity": 0.14173228346456693,
                    "duration": 0.15625
                },
                {
                    "name": "C3",
                    "midi": 48,
                    "time": 195,
                    "velocity": 0.14173228346456693,
                    "duration": 0.3125
                },
                {
                    "name": "G3",
                    "midi": 55,
                    "time": 195.15625,
                    "velocity": 0.14173228346456693,
                    "duration": 0.15625
                },
                {
                    "name": "C#3",
                    "midi": 49,
                    "time": 195.3125,
                    "velocity": 0.14173228346456693,
                    "duration": 0.15625
                },
                {
                    "name": "C#3",
                    "midi": 49,
                    "time": 195.3125,
                    "velocity": 0.14173228346456693,
                    "duration": 0.3125
                },
                {
                    "name": "G3",
                    "midi": 55,
                    "time": 195.46875,
                    "velocity": 0.14173228346456693,
                    "duration": 0.15625
                },
                {
                    "name": "D3",
                    "midi": 50,
                    "time": 195.625,
                    "velocity": 0.14173228346456693,
                    "duration": 0.15625
                },
                {
                    "name": "D3",
                    "midi": 50,
                    "time": 195.625,
                    "velocity": 0.14173228346456693,
                    "duration": 0.3125
                },
                {
                    "name": "G3",
                    "midi": 55,
                    "time": 195.78125,
                    "velocity": 0.14173228346456693,
                    "duration": 0.235595703125
                },
                {
                    "name": "D3",
                    "midi": 50,
                    "time": 196.09375,
                    "velocity": 0.5511811023622047,
                    "duration": 0.15625
                },
                {
                    "name": "D3",
                    "midi": 50,
                    "time": 196.171875,
                    "velocity": 0.5511811023622047,
                    "duration": 0.078125
                },
                {
                    "name": "G2",
                    "midi": 43,
                    "time": 196.25,
                    "velocity": 0.5511811023622047,
                    "duration": 0.15625
                },
                {
                    "name": "A3",
                    "midi": 57,
                    "time": 196.40625,
                    "velocity": 0.5511811023622047,
                    "duration": 0.15625
                },
                {
                    "name": "G3",
                    "midi": 55,
                    "time": 196.5625,
                    "velocity": 0.5511811023622047,
                    "duration": 0.15625
                },
                {
                    "name": "C4",
                    "midi": 60,
                    "time": 196.71875,
                    "velocity": 0.5511811023622047,
                    "duration": 0.15625
                },
                {
                    "name": "B3",
                    "midi": 59,
                    "time": 196.875,
                    "velocity": 0.5511811023622047,
                    "duration": 0.15625
                },
                {
                    "name": "A3",
                    "midi": 57,
                    "time": 197.03125,
                    "velocity": 0.5511811023622047,
                    "duration": 0.15625
                },
                {
                    "name": "G3",
                    "midi": 55,
                    "time": 197.1875,
                    "velocity": 0.5511811023622047,
                    "duration": 0.15625
                },
                {
                    "name": "E3",
                    "midi": 52,
                    "time": 197.34375,
                    "velocity": 0.5511811023622047,
                    "duration": 0.15625
                },
                {
                    "name": "E3",
                    "midi": 52,
                    "time": 197.421875,
                    "velocity": 0.5511811023622047,
                    "duration": 0.078125
                },
                {
                    "name": "A2",
                    "midi": 45,
                    "time": 197.5,
                    "velocity": 0.5511811023622047,
                    "duration": 0.15625
                },
                {
                    "name": "B3",
                    "midi": 59,
                    "time": 197.65625,
                    "velocity": 0.5511811023622047,
                    "duration": 0.15625
                },
                {
                    "name": "A3",
                    "midi": 57,
                    "time": 197.8125,
                    "velocity": 0.5511811023622047,
                    "duration": 0.15625
                },
                {
                    "name": "D4",
                    "midi": 62,
                    "time": 197.96875,
                    "velocity": 0.5511811023622047,
                    "duration": 0.15625
                },
                {
                    "name": "C4",
                    "midi": 60,
                    "time": 198.125,
                    "velocity": 0.5511811023622047,
                    "duration": 0.15625
                },
                {
                    "name": "B3",
                    "midi": 59,
                    "time": 198.28125,
                    "velocity": 0.5511811023622047,
                    "duration": 0.15625
                },
                {
                    "name": "A3",
                    "midi": 57,
                    "time": 198.4375,
                    "velocity": 0.5511811023622047,
                    "duration": 0.15625
                },
                {
                    "name": "G3",
                    "midi": 55,
                    "time": 198.59375,
                    "velocity": 0.5511811023622047,
                    "duration": 0.15625
                },
                {
                    "name": "C3",
                    "midi": 48,
                    "time": 198.75,
                    "velocity": 0.5511811023622047,
                    "duration": 0.15625
                },
                {
                    "name": "G2",
                    "midi": 43,
                    "time": 198.90625,
                    "velocity": 0.5511811023622047,
                    "duration": 0.15625
                },
                {
                    "name": "C2",
                    "midi": 36,
                    "time": 199.0625,
                    "velocity": 0.5511811023622047,
                    "duration": 0.15625
                },
                {
                    "name": "F#2",
                    "midi": 42,
                    "time": 199.21875,
                    "velocity": 0.5511811023622047,
                    "duration": 0.15625
                },
                {
                    "name": "B2",
                    "midi": 47,
                    "time": 199.375,
                    "velocity": 0.5511811023622047,
                    "duration": 0.15625
                },
                {
                    "name": "F#3",
                    "midi": 54,
                    "time": 199.53125,
                    "velocity": 0.5511811023622047,
                    "duration": 0.15625
                },
                {
                    "name": "B3",
                    "midi": 59,
                    "time": 199.6875,
                    "velocity": 0.5511811023622047,
                    "duration": 0.15625
                },
                {
                    "name": "E3",
                    "midi": 52,
                    "time": 199.84375,
                    "velocity": 0.5511811023622047,
                    "duration": 0.15625
                },
                {
                    "name": "A2",
                    "midi": 45,
                    "time": 200,
                    "velocity": 0.5511811023622047,
                    "duration": 0.15625
                },
                {
                    "name": "E2",
                    "midi": 40,
                    "time": 200.15625,
                    "velocity": 0.5511811023622047,
                    "duration": 0.15625
                },
                {
                    "name": "A1",
                    "midi": 33,
                    "time": 200.3125,
                    "velocity": 0.5511811023622047,
                    "duration": 0.15625
                },
                {
                    "name": "D2",
                    "midi": 38,
                    "time": 200.46875,
                    "velocity": 0.5511811023622047,
                    "duration": 0.15625
                },
                {
                    "name": "G2",
                    "midi": 43,
                    "time": 200.625,
                    "velocity": 0.5511811023622047,
                    "duration": 0.15625
                },
                {
                    "name": "D3",
                    "midi": 50,
                    "time": 200.78125,
                    "velocity": 0.5511811023622047,
                    "duration": 0.15625
                },
                {
                    "name": "G3",
                    "midi": 55,
                    "time": 200.9375,
                    "velocity": 0.5511811023622047,
                    "duration": 0.15625
                },
                {
                    "name": "D4",
                    "midi": 62,
                    "time": 201.09375,
                    "velocity": 0.5511811023622047,
                    "duration": 0.15625
                },
                {
                    "name": "G3",
                    "midi": 55,
                    "time": 201.25,
                    "velocity": 0.5511811023622047,
                    "duration": 0.15625
                },
                {
                    "name": "G4",
                    "midi": 67,
                    "time": 201.25,
                    "velocity": 0.5511811023622047,
                    "duration": 0.15625
                },
                {
                    "name": "A4",
                    "midi": 69,
                    "time": 201.40625,
                    "velocity": 0.5590551181102362,
                    "duration": 0.15625
                },
                {
                    "name": "B4",
                    "midi": 71,
                    "time": 201.5625,
                    "velocity": 0.5590551181102362,
                    "duration": 0.15625
                },
                {
                    "name": "C5",
                    "midi": 72,
                    "time": 201.71875,
                    "velocity": 0.5669291338582677,
                    "duration": 0.15625
                },
                {
                    "name": "B4",
                    "midi": 71,
                    "time": 201.875,
                    "velocity": 0.5748031496062992,
                    "duration": 0.15625
                },
                {
                    "name": "A4",
                    "midi": 69,
                    "time": 202.03125,
                    "velocity": 0.5748031496062992,
                    "duration": 0.15625
                },
                {
                    "name": "G4",
                    "midi": 67,
                    "time": 202.1875,
                    "velocity": 0.5826771653543307,
                    "duration": 0.15625
                },
                {
                    "name": "E4",
                    "midi": 64,
                    "time": 202.34375,
                    "velocity": 0.5826771653543307,
                    "duration": 0.15625
                },
                {
                    "name": "A3",
                    "midi": 57,
                    "time": 202.5,
                    "velocity": 0.5905511811023622,
                    "duration": 0.15625
                },
                {
                    "name": "A4",
                    "midi": 69,
                    "time": 202.5,
                    "velocity": 0.5905511811023622,
                    "duration": 0.15625
                },
                {
                    "name": "B4",
                    "midi": 71,
                    "time": 202.65625,
                    "velocity": 0.5984251968503937,
                    "duration": 0.15625
                },
                {
                    "name": "C5",
                    "midi": 72,
                    "time": 202.8125,
                    "velocity": 0.5984251968503937,
                    "duration": 0.15625
                },
                {
                    "name": "D5",
                    "midi": 74,
                    "time": 202.96875,
                    "velocity": 0.6062992125984252,
                    "duration": 0.15625
                },
                {
                    "name": "C5",
                    "midi": 72,
                    "time": 203.125,
                    "velocity": 0.6141732283464567,
                    "duration": 0.15625
                },
                {
                    "name": "B4",
                    "midi": 71,
                    "time": 203.28125,
                    "velocity": 0.6141732283464567,
                    "duration": 0.15625
                },
                {
                    "name": "A4",
                    "midi": 69,
                    "time": 203.4375,
                    "velocity": 0.6220472440944882,
                    "duration": 0.15625
                },
                {
                    "name": "G4",
                    "midi": 67,
                    "time": 203.59375,
                    "velocity": 0.6220472440944882,
                    "duration": 0.15625
                },
                {
                    "name": "C4",
                    "midi": 60,
                    "time": 203.75,
                    "velocity": 0.6299212598425197,
                    "duration": 0.15625
                },
                {
                    "name": "G5",
                    "midi": 79,
                    "time": 203.90625,
                    "velocity": 0.6377952755905512,
                    "duration": 0.15625
                },
                {
                    "name": "C5",
                    "midi": 72,
                    "time": 204.0625,
                    "velocity": 0.6377952755905512,
                    "duration": 0.15625
                },
                {
                    "name": "F#4",
                    "midi": 66,
                    "time": 204.21875,
                    "velocity": 0.6456692913385826,
                    "duration": 0.15625
                },
                {
                    "name": "B3",
                    "midi": 59,
                    "time": 204.375,
                    "velocity": 0.6535433070866141,
                    "duration": 0.15625
                },
                {
                    "name": "F#5",
                    "midi": 78,
                    "time": 204.53125,
                    "velocity": 0.6535433070866141,
                    "duration": 0.15625
                },
                {
                    "name": "B4",
                    "midi": 71,
                    "time": 204.6875,
                    "velocity": 0.6614173228346457,
                    "duration": 0.15625
                },
                {
                    "name": "E4",
                    "midi": 64,
                    "time": 204.84375,
                    "velocity": 0.6614173228346457,
                    "duration": 0.15625
                },
                {
                    "name": "A3",
                    "midi": 57,
                    "time": 205,
                    "velocity": 0.6692913385826772,
                    "duration": 0.15625
                },
                {
                    "name": "E5",
                    "midi": 76,
                    "time": 205.15625,
                    "velocity": 0.6771653543307087,
                    "duration": 0.15625
                },
                {
                    "name": "A4",
                    "midi": 69,
                    "time": 205.3125,
                    "velocity": 0.6771653543307087,
                    "duration": 0.15625
                },
                {
                    "name": "D4",
                    "midi": 62,
                    "time": 205.46875,
                    "velocity": 0.6850393700787402,
                    "duration": 0.15625
                },
                {
                    "name": "G3",
                    "midi": 55,
                    "time": 205.625,
                    "velocity": 0.6929133858267716,
                    "duration": 0.15625
                },
                {
                    "name": "D5",
                    "midi": 74,
                    "time": 205.78125,
                    "velocity": 0.6929133858267716,
                    "duration": 0.15625
                },
                {
                    "name": "G4",
                    "midi": 67,
                    "time": 205.9375,
                    "velocity": 0.7007874015748031,
                    "duration": 0.15625
                },
                {
                    "name": "D3",
                    "midi": 50,
                    "time": 206.25,
                    "velocity": 0.7086614173228346,
                    "duration": 0.15625
                },
                {
                    "name": "F#4",
                    "midi": 66,
                    "time": 206.40625,
                    "velocity": 0.7086614173228346,
                    "duration": 0.15625
                },
                {
                    "name": "F4",
                    "midi": 65,
                    "time": 206.5625,
                    "velocity": 0.7086614173228346,
                    "duration": 0.15625
                },
                {
                    "name": "B4",
                    "midi": 71,
                    "time": 206.71875,
                    "velocity": 0.7086614173228346,
                    "duration": 0.15625
                },
                {
                    "name": "A4",
                    "midi": 69,
                    "time": 206.875,
                    "velocity": 0.7086614173228346,
                    "duration": 0.15625
                },
                {
                    "name": "E4",
                    "midi": 64,
                    "time": 207.03125,
                    "velocity": 0.7086614173228346,
                    "duration": 0.15625
                },
                {
                    "name": "A3",
                    "midi": 57,
                    "time": 207.1875,
                    "velocity": 0.7086614173228346,
                    "duration": 0.15625
                },
                {
                    "name": "D3",
                    "midi": 50,
                    "time": 207.5,
                    "velocity": 0.7086614173228346,
                    "duration": 0.15625
                },
                {
                    "name": "F#4",
                    "midi": 66,
                    "time": 207.65625,
                    "velocity": 0.7086614173228346,
                    "duration": 0.15625
                },
                {
                    "name": "F4",
                    "midi": 65,
                    "time": 207.8125,
                    "velocity": 0.7086614173228346,
                    "duration": 0.15625
                },
                {
                    "name": "B4",
                    "midi": 71,
                    "time": 207.96875,
                    "velocity": 0.7086614173228346,
                    "duration": 0.15625
                },
                {
                    "name": "A4",
                    "midi": 69,
                    "time": 208.125,
                    "velocity": 0.7086614173228346,
                    "duration": 0.15625
                },
                {
                    "name": "E4",
                    "midi": 64,
                    "time": 208.28125,
                    "velocity": 0.7086614173228346,
                    "duration": 0.15625
                },
                {
                    "name": "A3",
                    "midi": 57,
                    "time": 208.4375,
                    "velocity": 0.7086614173228346,
                    "duration": 0.15625
                },
                {
                    "name": "D3",
                    "midi": 50,
                    "time": 208.75,
                    "velocity": 0.7086614173228346,
                    "duration": 0.15625
                },
                {
                    "name": "F#4",
                    "midi": 66,
                    "time": 208.90625,
                    "velocity": 0.7086614173228346,
                    "duration": 0.15625
                },
                {
                    "name": "F4",
                    "midi": 65,
                    "time": 209.0625,
                    "velocity": 0.7086614173228346,
                    "duration": 0.15625
                },
                {
                    "name": "D3",
                    "midi": 50,
                    "time": 209.375,
                    "velocity": 0.7086614173228346,
                    "duration": 0.15625
                },
                {
                    "name": "E4",
                    "midi": 64,
                    "time": 209.53125,
                    "velocity": 0.7086614173228346,
                    "duration": 0.15625
                },
                {
                    "name": "D#4",
                    "midi": 63,
                    "time": 209.6875,
                    "velocity": 0.7086614173228346,
                    "duration": 0.15625
                },
                {
                    "name": "D3",
                    "midi": 50,
                    "time": 210,
                    "velocity": 0.7086614173228346,
                    "duration": 0.15625
                },
                {
                    "name": "D4",
                    "midi": 62,
                    "time": 210.15625,
                    "velocity": 0.7086614173228346,
                    "duration": 0.15625
                },
                {
                    "name": "C#4",
                    "midi": 61,
                    "time": 210.3125,
                    "velocity": 0.7086614173228346,
                    "duration": 0.15625
                },
                {
                    "name": "D3",
                    "midi": 50,
                    "time": 210.625,
                    "velocity": 0.7086614173228346,
                    "duration": 0.15625
                },
                {
                    "name": "C4",
                    "midi": 60,
                    "time": 210.78125,
                    "velocity": 0.7086614173228346,
                    "duration": 0.15625
                },
                {
                    "name": "A3",
                    "midi": 57,
                    "time": 210.9375,
                    "velocity": 0.7086614173228346,
                    "duration": 0.15625
                },
                {
                    "name": "G2",
                    "midi": 43,
                    "time": 211.25,
                    "velocity": 0.7086614173228346,
                    "duration": 0.15625
                },
                {
                    "name": "B3",
                    "midi": 59,
                    "time": 211.40625,
                    "velocity": 0.7086614173228346,
                    "duration": 0.15625
                },
                {
                    "name": "A#3",
                    "midi": 58,
                    "time": 211.5625,
                    "velocity": 0.7086614173228346,
                    "duration": 0.15625
                },
                {
                    "name": "E4",
                    "midi": 64,
                    "time": 211.71875,
                    "velocity": 0.7086614173228346,
                    "duration": 0.15625
                },
                {
                    "name": "D4",
                    "midi": 62,
                    "time": 211.875,
                    "velocity": 0.7086614173228346,
                    "duration": 0.15625
                },
                {
                    "name": "A3",
                    "midi": 57,
                    "time": 212.03125,
                    "velocity": 0.7086614173228346,
                    "duration": 0.15625
                },
                {
                    "name": "D3",
                    "midi": 50,
                    "time": 212.1875,
                    "velocity": 0.7086614173228346,
                    "duration": 0.15625
                },
                {
                    "name": "G2",
                    "midi": 43,
                    "time": 212.5,
                    "velocity": 0.7086614173228346,
                    "duration": 0.15625
                },
                {
                    "name": "B3",
                    "midi": 59,
                    "time": 212.65625,
                    "velocity": 0.7086614173228346,
                    "duration": 0.15625
                },
                {
                    "name": "A#3",
                    "midi": 58,
                    "time": 212.8125,
                    "velocity": 0.7086614173228346,
                    "duration": 0.15625
                },
                {
                    "name": "E4",
                    "midi": 64,
                    "time": 212.96875,
                    "velocity": 0.7086614173228346,
                    "duration": 0.15625
                },
                {
                    "name": "D4",
                    "midi": 62,
                    "time": 213.125,
                    "velocity": 0.7086614173228346,
                    "duration": 0.15625
                },
                {
                    "name": "A3",
                    "midi": 57,
                    "time": 213.28125,
                    "velocity": 0.7086614173228346,
                    "duration": 0.15625
                },
                {
                    "name": "D3",
                    "midi": 50,
                    "time": 213.4375,
                    "velocity": 0.7086614173228346,
                    "duration": 0.15625
                },
                {
                    "name": "G2",
                    "midi": 43,
                    "time": 213.75,
                    "velocity": 0.7086614173228346,
                    "duration": 0.15625
                },
                {
                    "name": "B3",
                    "midi": 59,
                    "time": 213.90625,
                    "velocity": 0.7086614173228346,
                    "duration": 0.15625
                },
                {
                    "name": "C4",
                    "midi": 60,
                    "time": 214.0625,
                    "velocity": 0.7086614173228346,
                    "duration": 0.15625
                },
                {
                    "name": "F3",
                    "midi": 53,
                    "time": 214.21875,
                    "velocity": 0.7086614173228346,
                    "duration": 0.15625
                },
                {
                    "name": "D4",
                    "midi": 62,
                    "time": 214.375,
                    "velocity": 0.7086614173228346,
                    "duration": 0.15625
                },
                {
                    "name": "F3",
                    "midi": 53,
                    "time": 214.53125,
                    "velocity": 0.7086614173228346,
                    "duration": 0.15625
                },
                {
                    "name": "A#2",
                    "midi": 46,
                    "time": 214.6875,
                    "velocity": 0.7086614173228346,
                    "duration": 0.15625
                },
                {
                    "name": "A#2",
                    "midi": 46,
                    "time": 215,
                    "velocity": 0.7086614173228346,
                    "duration": 0.15625
                },
                {
                    "name": "A#3",
                    "midi": 58,
                    "time": 215.15625,
                    "velocity": 0.7086614173228346,
                    "duration": 0.15625
                },
                {
                    "name": "C4",
                    "midi": 60,
                    "time": 215.3125,
                    "velocity": 0.7086614173228346,
                    "duration": 0.15625
                },
                {
                    "name": "F3",
                    "midi": 53,
                    "time": 215.46875,
                    "velocity": 0.7086614173228346,
                    "duration": 0.15625
                },
                {
                    "name": "D4",
                    "midi": 62,
                    "time": 215.625,
                    "velocity": 0.7086614173228346,
                    "duration": 0.15625
                },
                {
                    "name": "A#3",
                    "midi": 58,
                    "time": 215.78125,
                    "velocity": 0.7086614173228346,
                    "duration": 0.15625
                },
                {
                    "name": "A#2",
                    "midi": 46,
                    "time": 215.9375,
                    "velocity": 0.7086614173228346,
                    "duration": 0.15625
                },
                {
                    "name": "A#2",
                    "midi": 46,
                    "time": 216.25,
                    "velocity": 0.7086614173228346,
                    "duration": 0.15625
                },
                {
                    "name": "A#3",
                    "midi": 58,
                    "time": 216.40625,
                    "velocity": 0.6929133858267716,
                    "duration": 0.15625
                },
                {
                    "name": "C4",
                    "midi": 60,
                    "time": 216.5625,
                    "velocity": 0.6850393700787402,
                    "duration": 0.15625
                },
                {
                    "name": "A#2",
                    "midi": 46,
                    "time": 216.875,
                    "velocity": 0.6614173228346457,
                    "duration": 0.15625
                },
                {
                    "name": "C#4",
                    "midi": 61,
                    "time": 217.03125,
                    "velocity": 0.6456692913385826,
                    "duration": 0.15625
                },
                {
                    "name": "D4",
                    "midi": 62,
                    "time": 217.1875,
                    "velocity": 0.6377952755905512,
                    "duration": 0.15625
                },
                {
                    "name": "D#3",
                    "midi": 51,
                    "time": 217.5,
                    "velocity": 0.6062992125984252,
                    "duration": 0.15625
                },
                {
                    "name": "D#4",
                    "midi": 63,
                    "time": 217.65625,
                    "velocity": 0.5984251968503937,
                    "duration": 0.15625
                },
                {
                    "name": "F4",
                    "midi": 65,
                    "time": 217.8125,
                    "velocity": 0.5826771653543307,
                    "duration": 0.15625
                },
                {
                    "name": "D#3",
                    "midi": 51,
                    "time": 218.125,
                    "velocity": 0.5590551181102362,
                    "duration": 0.15625
                },
                {
                    "name": "F#4",
                    "midi": 66,
                    "time": 218.28125,
                    "velocity": 0.5511811023622047,
                    "duration": 0.15625
                },
                {
                    "name": "G4",
                    "midi": 67,
                    "time": 218.4375,
                    "velocity": 0.5354330708661418,
                    "duration": 0.15625
                },
                {
                    "name": "A2",
                    "midi": 45,
                    "time": 218.75,
                    "velocity": 0.5118110236220472,
                    "duration": 0.15625
                },
                {
                    "name": "A3",
                    "midi": 57,
                    "time": 218.90625,
                    "velocity": 0.49606299212598426,
                    "duration": 0.15625
                },
                {
                    "name": "B3",
                    "midi": 59,
                    "time": 219.0625,
                    "velocity": 0.4881889763779528,
                    "duration": 0.15625
                },
                {
                    "name": "A2",
                    "midi": 45,
                    "time": 219.375,
                    "velocity": 0.4645669291338583,
                    "duration": 0.15625
                },
                {
                    "name": "C4",
                    "midi": 60,
                    "time": 219.53125,
                    "velocity": 0.44881889763779526,
                    "duration": 0.15625
                },
                {
                    "name": "C#4",
                    "midi": 61,
                    "time": 219.6875,
                    "velocity": 0.4409448818897638,
                    "duration": 0.15625
                },
                {
                    "name": "D3",
                    "midi": 50,
                    "time": 220,
                    "velocity": 0.4094488188976378,
                    "duration": 0.15625
                },
                {
                    "name": "D4",
                    "midi": 62,
                    "time": 220.15625,
                    "velocity": 0.4015748031496063,
                    "duration": 0.15625
                },
                {
                    "name": "E4",
                    "midi": 64,
                    "time": 220.3125,
                    "velocity": 0.3858267716535433,
                    "duration": 0.15625
                },
                {
                    "name": "D3",
                    "midi": 50,
                    "time": 220.625,
                    "velocity": 0.36220472440944884,
                    "duration": 0.15625
                },
                {
                    "name": "F4",
                    "midi": 65,
                    "time": 220.78125,
                    "velocity": 0.3543307086614173,
                    "duration": 0.15625
                },
                {
                    "name": "F#4",
                    "midi": 66,
                    "time": 220.9375,
                    "velocity": 0.33858267716535434,
                    "duration": 0.15625
                },
                {
                    "name": "G3",
                    "midi": 55,
                    "time": 221.09375,
                    "velocity": 0.33070866141732286,
                    "duration": 1.09375
                },
                {
                    "name": "D4",
                    "midi": 62,
                    "time": 221.25,
                    "velocity": 0.15748031496062992,
                    "duration": 0.15625
                },
                {
                    "name": "C#4",
                    "midi": 61,
                    "time": 221.40625,
                    "velocity": 0.15748031496062992,
                    "duration": 0.15625
                },
                {
                    "name": "D4",
                    "midi": 62,
                    "time": 221.5625,
                    "velocity": 0.15748031496062992,
                    "duration": 0.15625
                },
                {
                    "name": "C#4",
                    "midi": 61,
                    "time": 221.71875,
                    "velocity": 0.15748031496062992,
                    "duration": 0.15625
                },
                {
                    "name": "D4",
                    "midi": 62,
                    "time": 221.875,
                    "velocity": 0.15748031496062992,
                    "duration": 0.15625
                },
                {
                    "name": "C#4",
                    "midi": 61,
                    "time": 222.03125,
                    "velocity": 0.15748031496062992,
                    "duration": 0.15625
                },
                {
                    "name": "D4",
                    "midi": 62,
                    "time": 222.1875,
                    "velocity": 0.15748031496062992,
                    "duration": 0.15625
                },
                {
                    "name": "F#4",
                    "midi": 66,
                    "time": 222.34375,
                    "velocity": 0.15748031496062992,
                    "duration": 0.15625
                },
                {
                    "name": "G4",
                    "midi": 67,
                    "time": 222.5,
                    "velocity": 0.15748031496062992,
                    "duration": 0.15625
                },
                {
                    "name": "F#4",
                    "midi": 66,
                    "time": 222.65625,
                    "velocity": 0.15748031496062992,
                    "duration": 0.15625
                },
                {
                    "name": "G4",
                    "midi": 67,
                    "time": 222.8125,
                    "velocity": 0.15748031496062992,
                    "duration": 0.15625
                },
                {
                    "name": "G#4",
                    "midi": 68,
                    "time": 222.96875,
                    "velocity": 0.15748031496062992,
                    "duration": 0.15625
                },
                {
                    "name": "F4",
                    "midi": 65,
                    "time": 222.96875,
                    "velocity": 0.15748031496062992,
                    "duration": 0.15625
                },
                {
                    "name": "A4",
                    "midi": 69,
                    "time": 223.125,
                    "velocity": 0.15748031496062992,
                    "duration": 0.15625
                },
                {
                    "name": "E4",
                    "midi": 64,
                    "time": 223.125,
                    "velocity": 0.15748031496062992,
                    "duration": 0.46875
                },
                {
                    "name": "G#4",
                    "midi": 68,
                    "time": 223.28125,
                    "velocity": 0.15748031496062992,
                    "duration": 0.15625
                },
                {
                    "name": "A4",
                    "midi": 69,
                    "time": 223.4375,
                    "velocity": 0.15748031496062992,
                    "duration": 0.15625
                },
                {
                    "name": "F#4",
                    "midi": 66,
                    "time": 223.59375,
                    "velocity": 0.15748031496062992,
                    "duration": 0.15625
                },
                {
                    "name": "D4",
                    "midi": 62,
                    "time": 223.59375,
                    "velocity": 0.15748031496062992,
                    "duration": 0.15625
                },
                {
                    "name": "G4",
                    "midi": 67,
                    "time": 223.75,
                    "velocity": 0.15748031496062992,
                    "duration": 0.15625
                },
                {
                    "name": "G3",
                    "midi": 55,
                    "time": 223.75,
                    "velocity": 0.15748031496062992,
                    "duration": 0.9375
                },
                {
                    "name": "C#4",
                    "midi": 61,
                    "time": 223.90625,
                    "velocity": 0.15748031496062992,
                    "duration": 0.15625
                },
                {
                    "name": "D4",
                    "midi": 62,
                    "time": 224.0625,
                    "velocity": 0.15748031496062992,
                    "duration": 0.15625
                },
                {
                    "name": "C#4",
                    "midi": 61,
                    "time": 224.21875,
                    "velocity": 0.15748031496062992,
                    "duration": 0.15625
                },
                {
                    "name": "D4",
                    "midi": 62,
                    "time": 224.375,
                    "velocity": 0.15748031496062992,
                    "duration": 0.15625
                },
                {
                    "name": "C#4",
                    "midi": 61,
                    "time": 224.53125,
                    "velocity": 0.15748031496062992,
                    "duration": 0.15625
                },
                {
                    "name": "D4",
                    "midi": 62,
                    "time": 224.6875,
                    "velocity": 0.15748031496062992,
                    "duration": 0.15625
                },
                {
                    "name": "F#4",
                    "midi": 66,
                    "time": 224.84375,
                    "velocity": 0.15748031496062992,
                    "duration": 0.15625
                },
                {
                    "name": "G4",
                    "midi": 67,
                    "time": 225,
                    "velocity": 0.15748031496062992,
                    "duration": 0.15625
                },
                {
                    "name": "F#4",
                    "midi": 66,
                    "time": 225.15625,
                    "velocity": 0.15748031496062992,
                    "duration": 0.15625
                },
                {
                    "name": "G4",
                    "midi": 67,
                    "time": 225.3125,
                    "velocity": 0.15748031496062992,
                    "duration": 0.15625
                },
                {
                    "name": "G#4",
                    "midi": 68,
                    "time": 225.46875,
                    "velocity": 0.15748031496062992,
                    "duration": 0.15625
                },
                {
                    "name": "F4",
                    "midi": 65,
                    "time": 225.46875,
                    "velocity": 0.15748031496062992,
                    "duration": 0.15625
                },
                {
                    "name": "A4",
                    "midi": 69,
                    "time": 225.625,
                    "velocity": 0.15748031496062992,
                    "duration": 0.15625
                },
                {
                    "name": "E4",
                    "midi": 64,
                    "time": 225.625,
                    "velocity": 0.15748031496062992,
                    "duration": 0.46875
                },
                {
                    "name": "G#4",
                    "midi": 68,
                    "time": 225.78125,
                    "velocity": 0.15748031496062992,
                    "duration": 0.15625
                },
                {
                    "name": "A4",
                    "midi": 69,
                    "time": 225.9375,
                    "velocity": 0.15748031496062992,
                    "duration": 0.15625
                },
                {
                    "name": "F#4",
                    "midi": 66,
                    "time": 226.09375,
                    "velocity": 0.15748031496062992,
                    "duration": 0.15625
                },
                {
                    "name": "D4",
                    "midi": 62,
                    "time": 226.09375,
                    "velocity": 0.15748031496062992,
                    "duration": 0.15625
                },
                {
                    "name": "G3",
                    "midi": 55,
                    "time": 226.25,
                    "velocity": 0.23622047244094488,
                    "duration": 0.3125
                },
                {
                    "name": "G4",
                    "midi": 67,
                    "time": 226.25,
                    "velocity": 0.23622047244094488,
                    "duration": 0.3125
                },
                {
                    "name": "D#4",
                    "midi": 63,
                    "time": 226.71875,
                    "velocity": 0.2283464566929134,
                    "duration": 0.15625
                },
                {
                    "name": "A4",
                    "midi": 69,
                    "time": 226.71875,
                    "velocity": 0.2283464566929134,
                    "duration": 0.15625
                },
                {
                    "name": "E4",
                    "midi": 64,
                    "time": 226.875,
                    "velocity": 0.2283464566929134,
                    "duration": 0.15625
                },
                {
                    "name": "G4",
                    "midi": 67,
                    "time": 226.875,
                    "velocity": 0.2283464566929134,
                    "duration": 0.15625
                },
                {
                    "name": "B3",
                    "midi": 59,
                    "time": 227.34375,
                    "velocity": 0.2204724409448819,
                    "duration": 0.15625
                },
                {
                    "name": "F#4",
                    "midi": 66,
                    "time": 227.34375,
                    "velocity": 0.2204724409448819,
                    "duration": 0.15625
                },
                {
                    "name": "C4",
                    "midi": 60,
                    "time": 227.5,
                    "velocity": 0.2125984251968504,
                    "duration": 0.15625
                },
                {
                    "name": "E4",
                    "midi": 64,
                    "time": 227.5,
                    "velocity": 0.2125984251968504,
                    "duration": 0.15625
                },
                {
                    "name": "B3",
                    "midi": 59,
                    "time": 227.65625,
                    "velocity": 0.2125984251968504,
                    "duration": 0.15625
                },
                {
                    "name": "F#4",
                    "midi": 66,
                    "time": 227.65625,
                    "velocity": 0.2125984251968504,
                    "duration": 0.15625
                },
                {
                    "name": "C4",
                    "midi": 60,
                    "time": 227.8125,
                    "velocity": 0.2125984251968504,
                    "duration": 0.15625
                },
                {
                    "name": "E4",
                    "midi": 64,
                    "time": 227.8125,
                    "velocity": 0.2125984251968504,
                    "duration": 0.15625
                },
                {
                    "name": "G#3",
                    "midi": 56,
                    "time": 227.96875,
                    "velocity": 0.2125984251968504,
                    "duration": 0.15625
                },
                {
                    "name": "D4",
                    "midi": 62,
                    "time": 227.96875,
                    "velocity": 0.2125984251968504,
                    "duration": 0.15625
                },
                {
                    "name": "A3",
                    "midi": 57,
                    "time": 228.125,
                    "velocity": 0.2047244094488189,
                    "duration": 0.15625
                },
                {
                    "name": "C4",
                    "midi": 60,
                    "time": 228.125,
                    "velocity": 0.2047244094488189,
                    "duration": 0.15625
                },
                {
                    "name": "F#3",
                    "midi": 54,
                    "time": 228.59375,
                    "velocity": 0.1968503937007874,
                    "duration": 0.15625
                },
                {
                    "name": "C4",
                    "midi": 60,
                    "time": 228.59375,
                    "velocity": 0.1968503937007874,
                    "duration": 0.15625
                },
                {
                    "name": "G3",
                    "midi": 55,
                    "time": 228.75,
                    "velocity": 0.1968503937007874,
                    "duration": 0.15625
                },
                {
                    "name": "B3",
                    "midi": 59,
                    "time": 228.75,
                    "velocity": 0.1968503937007874,
                    "duration": 0.15625
                },
                {
                    "name": "D#3",
                    "midi": 51,
                    "time": 229.21875,
                    "velocity": 0.1889763779527559,
                    "duration": 0.15625
                },
                {
                    "name": "A3",
                    "midi": 57,
                    "time": 229.21875,
                    "velocity": 0.1889763779527559,
                    "duration": 0.15625
                },
                {
                    "name": "E3",
                    "midi": 52,
                    "time": 229.375,
                    "velocity": 0.1889763779527559,
                    "duration": 0.15625
                },
                {
                    "name": "G3",
                    "midi": 55,
                    "time": 229.375,
                    "velocity": 0.1889763779527559,
                    "duration": 0.15625
                },
                {
                    "name": "B2",
                    "midi": 47,
                    "time": 229.84375,
                    "velocity": 0.18110236220472442,
                    "duration": 0.15625
                },
                {
                    "name": "F#3",
                    "midi": 54,
                    "time": 229.84375,
                    "velocity": 0.18110236220472442,
                    "duration": 0.15625
                },
                {
                    "name": "C3",
                    "midi": 48,
                    "time": 230,
                    "velocity": 0.1732283464566929,
                    "duration": 0.15625
                },
                {
                    "name": "E3",
                    "midi": 52,
                    "time": 230,
                    "velocity": 0.1732283464566929,
                    "duration": 0.15625
                },
                {
                    "name": "B2",
                    "midi": 47,
                    "time": 230.15625,
                    "velocity": 0.1732283464566929,
                    "duration": 0.15625
                },
                {
                    "name": "F#3",
                    "midi": 54,
                    "time": 230.15625,
                    "velocity": 0.1732283464566929,
                    "duration": 0.15625
                },
                {
                    "name": "C3",
                    "midi": 48,
                    "time": 230.3125,
                    "velocity": 0.1732283464566929,
                    "duration": 0.15625
                },
                {
                    "name": "E3",
                    "midi": 52,
                    "time": 230.3125,
                    "velocity": 0.1732283464566929,
                    "duration": 0.15625
                },
                {
                    "name": "G#2",
                    "midi": 44,
                    "time": 230.46875,
                    "velocity": 0.1732283464566929,
                    "duration": 0.15625
                },
                {
                    "name": "D3",
                    "midi": 50,
                    "time": 230.46875,
                    "velocity": 0.1732283464566929,
                    "duration": 0.15625
                },
                {
                    "name": "A2",
                    "midi": 45,
                    "time": 230.625,
                    "velocity": 0.16535433070866143,
                    "duration": 0.15625
                },
                {
                    "name": "C3",
                    "midi": 48,
                    "time": 230.625,
                    "velocity": 0.16535433070866143,
                    "duration": 0.15625
                },
                {
                    "name": "D2",
                    "midi": 38,
                    "time": 231.09375,
                    "velocity": 0.15748031496062992,
                    "duration": 0.15625
                },
                {
                    "name": "D3",
                    "midi": 50,
                    "time": 231.09375,
                    "velocity": 0.15748031496062992,
                    "duration": 0.15625
                },
                {
                    "name": "D3",
                    "midi": 50,
                    "time": 231.25,
                    "velocity": 0.11811023622047244,
                    "duration": 0.15625
                },
                {
                    "name": "G2",
                    "midi": 43,
                    "time": 231.25,
                    "velocity": 0.11811023622047244,
                    "duration": 1.25
                },
                {
                    "name": "C#3",
                    "midi": 49,
                    "time": 231.40625,
                    "velocity": 0.11811023622047244,
                    "duration": 0.15625
                },
                {
                    "name": "D3",
                    "midi": 50,
                    "time": 231.5625,
                    "velocity": 0.11811023622047244,
                    "duration": 0.15625
                },
                {
                    "name": "C#3",
                    "midi": 49,
                    "time": 231.71875,
                    "velocity": 0.11811023622047244,
                    "duration": 0.15625
                },
                {
                    "name": "D3",
                    "midi": 50,
                    "time": 231.875,
                    "velocity": 0.11811023622047244,
                    "duration": 0.15625
                },
                {
                    "name": "C#3",
                    "midi": 49,
                    "time": 232.03125,
                    "velocity": 0.11811023622047244,
                    "duration": 0.15625
                },
                {
                    "name": "D3",
                    "midi": 50,
                    "time": 232.1875,
                    "velocity": 0.11811023622047244,
                    "duration": 0.15625
                },
                {
                    "name": "F#3",
                    "midi": 54,
                    "time": 232.34375,
                    "velocity": 0.11811023622047244,
                    "duration": 0.15625
                },
                {
                    "name": "G3",
                    "midi": 55,
                    "time": 232.5,
                    "velocity": 0.11811023622047244,
                    "duration": 0.15625
                },
                {
                    "name": "A2",
                    "midi": 45,
                    "time": 232.5,
                    "velocity": 0.11811023622047244,
                    "duration": 1.25
                },
                {
                    "name": "F#3",
                    "midi": 54,
                    "time": 232.65625,
                    "velocity": 0.11811023622047244,
                    "duration": 0.15625
                },
                {
                    "name": "G3",
                    "midi": 55,
                    "time": 232.8125,
                    "velocity": 0.11811023622047244,
                    "duration": 0.15625
                },
                {
                    "name": "F#3",
                    "midi": 54,
                    "time": 232.96875,
                    "velocity": 0.11811023622047244,
                    "duration": 0.15625
                },
                {
                    "name": "G3",
                    "midi": 55,
                    "time": 233.125,
                    "velocity": 0.11811023622047244,
                    "duration": 0.15625
                },
                {
                    "name": "F#3",
                    "midi": 54,
                    "time": 233.28125,
                    "velocity": 0.11811023622047244,
                    "duration": 0.15625
                },
                {
                    "name": "G3",
                    "midi": 55,
                    "time": 233.4375,
                    "velocity": 0.11811023622047244,
                    "duration": 0.15625
                },
                {
                    "name": "E3",
                    "midi": 52,
                    "time": 233.59375,
                    "velocity": 0.11811023622047244,
                    "duration": 0.15625
                },
                {
                    "name": "D3",
                    "midi": 50,
                    "time": 233.75,
                    "velocity": 0.11811023622047244,
                    "duration": 0.15625
                },
                {
                    "name": "G2",
                    "midi": 43,
                    "time": 233.75,
                    "velocity": 0.11811023622047244,
                    "duration": 1.25
                },
                {
                    "name": "C#3",
                    "midi": 49,
                    "time": 233.90625,
                    "velocity": 0.11811023622047244,
                    "duration": 0.15625
                },
                {
                    "name": "D3",
                    "midi": 50,
                    "time": 234.0625,
                    "velocity": 0.11811023622047244,
                    "duration": 0.15625
                },
                {
                    "name": "C#3",
                    "midi": 49,
                    "time": 234.21875,
                    "velocity": 0.11811023622047244,
                    "duration": 0.15625
                },
                {
                    "name": "D3",
                    "midi": 50,
                    "time": 234.375,
                    "velocity": 0.11811023622047244,
                    "duration": 0.15625
                },
                {
                    "name": "C#3",
                    "midi": 49,
                    "time": 234.53125,
                    "velocity": 0.11811023622047244,
                    "duration": 0.15625
                },
                {
                    "name": "D3",
                    "midi": 50,
                    "time": 234.6875,
                    "velocity": 0.11811023622047244,
                    "duration": 0.15625
                },
                {
                    "name": "F#3",
                    "midi": 54,
                    "time": 234.84375,
                    "velocity": 0.11811023622047244,
                    "duration": 0.15625
                },
                {
                    "name": "G3",
                    "midi": 55,
                    "time": 235,
                    "velocity": 0.11811023622047244,
                    "duration": 0.15625
                },
                {
                    "name": "A2",
                    "midi": 45,
                    "time": 235,
                    "velocity": 0.11811023622047244,
                    "duration": 1.25
                },
                {
                    "name": "F#3",
                    "midi": 54,
                    "time": 235.15625,
                    "velocity": 0.11811023622047244,
                    "duration": 0.15625
                },
                {
                    "name": "G3",
                    "midi": 55,
                    "time": 235.3125,
                    "velocity": 0.11811023622047244,
                    "duration": 0.15625
                },
                {
                    "name": "F#3",
                    "midi": 54,
                    "time": 235.46875,
                    "velocity": 0.11811023622047244,
                    "duration": 0.15625
                },
                {
                    "name": "G3",
                    "midi": 55,
                    "time": 235.625,
                    "velocity": 0.11811023622047244,
                    "duration": 0.15625
                },
                {
                    "name": "F#3",
                    "midi": 54,
                    "time": 235.78125,
                    "velocity": 0.11811023622047244,
                    "duration": 0.15625
                },
                {
                    "name": "G3",
                    "midi": 55,
                    "time": 235.9375,
                    "velocity": 0.11811023622047244,
                    "duration": 0.15625
                },
                {
                    "name": "E3",
                    "midi": 52,
                    "time": 236.09375,
                    "velocity": 0.11811023622047244,
                    "duration": 0.15625
                },
                {
                    "name": "G2",
                    "midi": 43,
                    "time": 236.25,
                    "velocity": 0.11811023622047244,
                    "duration": 1.25
                },
                {
                    "name": "D3",
                    "midi": 50,
                    "time": 236.25,
                    "velocity": 0.11811023622047244,
                    "duration": 0.15625
                },
                {
                    "name": "C#3",
                    "midi": 49,
                    "time": 236.40625,
                    "velocity": 0.11811023622047244,
                    "duration": 0.15625
                },
                {
                    "name": "D3",
                    "midi": 50,
                    "time": 236.5625,
                    "velocity": 0.11811023622047244,
                    "duration": 0.15625
                },
                {
                    "name": "C#3",
                    "midi": 49,
                    "time": 236.71875,
                    "velocity": 0.11811023622047244,
                    "duration": 0.15625
                },
                {
                    "name": "D3",
                    "midi": 50,
                    "time": 236.875,
                    "velocity": 0.11811023622047244,
                    "duration": 0.15625
                },
                {
                    "name": "C#3",
                    "midi": 49,
                    "time": 237.03125,
                    "velocity": 0.11811023622047244,
                    "duration": 0.15625
                },
                {
                    "name": "D3",
                    "midi": 50,
                    "time": 237.1875,
                    "velocity": 0.11811023622047244,
                    "duration": 0.15625
                },
                {
                    "name": "D#3",
                    "midi": 51,
                    "time": 237.34375,
                    "velocity": 0.11811023622047244,
                    "duration": 0.15625
                },
                {
                    "name": "G2",
                    "midi": 43,
                    "time": 237.5,
                    "velocity": 0.11811023622047244,
                    "duration": 1.25
                },
                {
                    "name": "D3",
                    "midi": 50,
                    "time": 237.5,
                    "velocity": 0.11811023622047244,
                    "duration": 0.15625
                },
                {
                    "name": "C#3",
                    "midi": 49,
                    "time": 237.65625,
                    "velocity": 0.11811023622047244,
                    "duration": 0.15625
                },
                {
                    "name": "D3",
                    "midi": 50,
                    "time": 237.8125,
                    "velocity": 0.11811023622047244,
                    "duration": 0.15625
                },
                {
                    "name": "C#3",
                    "midi": 49,
                    "time": 237.96875,
                    "velocity": 0.11811023622047244,
                    "duration": 0.15625
                },
                {
                    "name": "D3",
                    "midi": 50,
                    "time": 238.125,
                    "velocity": 0.11811023622047244,
                    "duration": 0.15625
                },
                {
                    "name": "C#3",
                    "midi": 49,
                    "time": 238.28125,
                    "velocity": 0.11811023622047244,
                    "duration": 0.15625
                },
                {
                    "name": "D3",
                    "midi": 50,
                    "time": 238.4375,
                    "velocity": 0.11811023622047244,
                    "duration": 0.15625
                },
                {
                    "name": "D#3",
                    "midi": 51,
                    "time": 238.59375,
                    "velocity": 0.11811023622047244,
                    "duration": 0.15625
                },
                {
                    "name": "D3",
                    "midi": 50,
                    "time": 238.75,
                    "velocity": 0.11811023622047244,
                    "duration": 0.15625
                },
                {
                    "name": "G2",
                    "midi": 43,
                    "time": 238.75,
                    "velocity": 0.11811023622047244,
                    "duration": 0.46875
                },
                {
                    "name": "C#3",
                    "midi": 49,
                    "time": 238.90625,
                    "velocity": 0.11811023622047244,
                    "duration": 0.15625
                },
                {
                    "name": "D3",
                    "midi": 50,
                    "time": 239.0625,
                    "velocity": 0.11811023622047244,
                    "duration": 0.46875
                },
                {
                    "name": "G#2",
                    "midi": 44,
                    "time": 239.21875,
                    "velocity": 0.11811023622047244,
                    "duration": 0.15625
                },
                {
                    "name": "G2",
                    "midi": 43,
                    "time": 239.375,
                    "velocity": 0.11811023622047244,
                    "duration": 0.46875
                },
                {
                    "name": "C#3",
                    "midi": 49,
                    "time": 239.53125,
                    "velocity": 0.11811023622047244,
                    "duration": 0.15625
                },
                {
                    "name": "D3",
                    "midi": 50,
                    "time": 239.6875,
                    "velocity": 0.11811023622047244,
                    "duration": 0.46875
                },
                {
                    "name": "G#2",
                    "midi": 44,
                    "time": 239.84375,
                    "velocity": 0.11811023622047244,
                    "duration": 0.15625
                },
                {
                    "name": "G2",
                    "midi": 43,
                    "time": 240,
                    "velocity": 0.11811023622047244,
                    "duration": 0.46875
                },
                {
                    "name": "C#3",
                    "midi": 49,
                    "time": 240.15625,
                    "velocity": 0.11811023622047244,
                    "duration": 0.15625
                },
                {
                    "name": "D3",
                    "midi": 50,
                    "time": 240.3125,
                    "velocity": 0.11811023622047244,
                    "duration": 0.46875
                },
                {
                    "name": "G#2",
                    "midi": 44,
                    "time": 240.46875,
                    "velocity": 0.11811023622047244,
                    "duration": 0.15625
                },
                {
                    "name": "G2",
                    "midi": 43,
                    "time": 240.625,
                    "velocity": 0.11811023622047244,
                    "duration": 0.46875
                },
                {
                    "name": "C#3",
                    "midi": 49,
                    "time": 240.78125,
                    "velocity": 0.11811023622047244,
                    "duration": 0.15625
                },
                {
                    "name": "D3",
                    "midi": 50,
                    "time": 240.9375,
                    "velocity": 0.11811023622047244,
                    "duration": 0.3125
                },
                {
                    "name": "G#2",
                    "midi": 44,
                    "time": 241.09375,
                    "velocity": 0.11811023622047244,
                    "duration": 0.15625
                },
                {
                    "name": "D3",
                    "midi": 50,
                    "time": 241.25,
                    "velocity": 0.11811023622047244,
                    "duration": 0.15625
                },
                {
                    "name": "G2",
                    "midi": 43,
                    "time": 241.25,
                    "velocity": 0.11811023622047244,
                    "duration": 2.5
                },
                {
                    "name": "C#3",
                    "midi": 49,
                    "time": 241.40625,
                    "velocity": 0.11811023622047244,
                    "duration": 0.15625
                },
                {
                    "name": "D3",
                    "midi": 50,
                    "time": 241.5625,
                    "velocity": 0.11811023622047244,
                    "duration": 0.15625
                },
                {
                    "name": "C#3",
                    "midi": 49,
                    "time": 241.71875,
                    "velocity": 0.11811023622047244,
                    "duration": 0.15625
                },
                {
                    "name": "D3",
                    "midi": 50,
                    "time": 241.875,
                    "velocity": 0.11811023622047244,
                    "duration": 0.15625
                },
                {
                    "name": "C#3",
                    "midi": 49,
                    "time": 242.03125,
                    "velocity": 0.11811023622047244,
                    "duration": 0.15625
                },
                {
                    "name": "D3",
                    "midi": 50,
                    "time": 242.1875,
                    "velocity": 0.11811023622047244,
                    "duration": 0.15625
                },
                {
                    "name": "C#3",
                    "midi": 49,
                    "time": 242.34375,
                    "velocity": 0.11811023622047244,
                    "duration": 0.15625
                },
                {
                    "name": "D3",
                    "midi": 50,
                    "time": 242.5,
                    "velocity": 0.11811023622047244,
                    "duration": 0.15625
                },
                {
                    "name": "C#3",
                    "midi": 49,
                    "time": 242.65625,
                    "velocity": 0.11811023622047244,
                    "duration": 0.15625
                },
                {
                    "name": "D3",
                    "midi": 50,
                    "time": 242.8125,
                    "velocity": 0.11811023622047244,
                    "duration": 0.15625
                },
                {
                    "name": "C#3",
                    "midi": 49,
                    "time": 242.96875,
                    "velocity": 0.11811023622047244,
                    "duration": 0.15625
                },
                {
                    "name": "D3",
                    "midi": 50,
                    "time": 243.125,
                    "velocity": 0.11811023622047244,
                    "duration": 0.15625
                },
                {
                    "name": "C#3",
                    "midi": 49,
                    "time": 243.28125,
                    "velocity": 0.11811023622047244,
                    "duration": 0.15625
                },
                {
                    "name": "D3",
                    "midi": 50,
                    "time": 243.4375,
                    "velocity": 0.11811023622047244,
                    "duration": 0.15625
                },
                {
                    "name": "C#3",
                    "midi": 49,
                    "time": 243.59375,
                    "velocity": 0.11811023622047244,
                    "duration": 0.15625
                },
                {
                    "name": "D3",
                    "midi": 50,
                    "time": 243.75,
                    "velocity": 0.15748031496062992,
                    "duration": 0.15625
                },
                {
                    "name": "G#2",
                    "midi": 44,
                    "time": 243.75,
                    "velocity": 0.30708661417322836,
                    "duration": 0.1251220703125
                },
                {
                    "name": "C#3",
                    "midi": 49,
                    "time": 243.90625,
                    "velocity": 0.18110236220472442,
                    "duration": 0.15625
                },
                {
                    "name": "D3",
                    "midi": 50,
                    "time": 244.0625,
                    "velocity": 0.2047244094488189,
                    "duration": 0.15625
                },
                {
                    "name": "C#3",
                    "midi": 49,
                    "time": 244.21875,
                    "velocity": 0.2204724409448819,
                    "duration": 0.15625
                },
                {
                    "name": "D3",
                    "midi": 50,
                    "time": 244.375,
                    "velocity": 0.2440944881889764,
                    "duration": 0.15625
                },
                {
                    "name": "C#3",
                    "midi": 49,
                    "time": 244.53125,
                    "velocity": 0.2677165354330709,
                    "duration": 0.15625
                },
                {
                    "name": "D3",
                    "midi": 50,
                    "time": 244.6875,
                    "velocity": 0.29133858267716534,
                    "duration": 0.15625
                },
                {
                    "name": "C#3",
                    "midi": 49,
                    "time": 244.84375,
                    "velocity": 0.30708661417322836,
                    "duration": 0.15625
                },
                {
                    "name": "D3",
                    "midi": 50,
                    "time": 245,
                    "velocity": 0.33070866141732286,
                    "duration": 0.15625
                },
                {
                    "name": "C#3",
                    "midi": 49,
                    "time": 245.15625,
                    "velocity": 0.3543307086614173,
                    "duration": 0.15625
                },
                {
                    "name": "D3",
                    "midi": 50,
                    "time": 245.3125,
                    "velocity": 0.3779527559055118,
                    "duration": 0.15625
                },
                {
                    "name": "C#3",
                    "midi": 49,
                    "time": 245.46875,
                    "velocity": 0.3937007874015748,
                    "duration": 0.15625
                },
                {
                    "name": "D3",
                    "midi": 50,
                    "time": 245.625,
                    "velocity": 0.41732283464566927,
                    "duration": 0.15625
                },
                {
                    "name": "C#3",
                    "midi": 49,
                    "time": 245.78125,
                    "velocity": 0.4409448818897638,
                    "duration": 0.15625
                },
                {
                    "name": "D3",
                    "midi": 50,
                    "time": 245.9375,
                    "velocity": 0.4645669291338583,
                    "duration": 0.15625
                },
                {
                    "name": "D#3",
                    "midi": 51,
                    "time": 246.09375,
                    "velocity": 0.48031496062992124,
                    "duration": 0.15625
                },
                {
                    "name": "E3",
                    "midi": 52,
                    "time": 246.25,
                    "velocity": 0.7086614173228346,
                    "duration": 0.1251220703125
                },
                {
                    "name": "B2",
                    "midi": 47,
                    "time": 246.5625,
                    "velocity": 0.8582677165354331,
                    "duration": 0.625
                },
                {
                    "name": "E3",
                    "midi": 52,
                    "time": 246.5625,
                    "velocity": 0.8582677165354331,
                    "duration": 0.9375
                },
                {
                    "name": "B3",
                    "midi": 59,
                    "time": 246.5625,
                    "velocity": 0.8582677165354331,
                    "duration": 0.625
                },
                {
                    "name": "A2",
                    "midi": 45,
                    "time": 247.1875,
                    "velocity": 0.7086614173228346,
                    "duration": 0.3125
                },
                {
                    "name": "A3",
                    "midi": 57,
                    "time": 247.1875,
                    "velocity": 0.7086614173228346,
                    "duration": 0.3125
                },
                {
                    "name": "F2",
                    "midi": 41,
                    "time": 247.5,
                    "velocity": 0.7086614173228346,
                    "duration": 0.1251220703125
                },
                {
                    "name": "B2",
                    "midi": 47,
                    "time": 247.5,
                    "velocity": 0.7086614173228346,
                    "duration": 0.1251220703125
                },
                {
                    "name": "F3",
                    "midi": 53,
                    "time": 247.5,
                    "velocity": 0.7086614173228346,
                    "duration": 0.1251220703125
                },
                {
                    "name": "D2",
                    "midi": 38,
                    "time": 247.8125,
                    "velocity": 0.8582677165354331,
                    "duration": 0.625
                },
                {
                    "name": "B2",
                    "midi": 47,
                    "time": 247.8125,
                    "velocity": 0.8582677165354331,
                    "duration": 0.9375
                },
                {
                    "name": "D3",
                    "midi": 50,
                    "time": 247.8125,
                    "velocity": 0.8582677165354331,
                    "duration": 0.625
                },
                {
                    "name": "E2",
                    "midi": 40,
                    "time": 248.4375,
                    "velocity": 0.7086614173228346,
                    "duration": 0.3125
                },
                {
                    "name": "E3",
                    "midi": 52,
                    "time": 248.4375,
                    "velocity": 0.7086614173228346,
                    "duration": 0.3125
                },
                {
                    "name": "A4",
                    "midi": 69,
                    "time": 248.75,
                    "velocity": 0.15748031496062992,
                    "duration": 0.15625
                },
                {
                    "name": "A3",
                    "midi": 57,
                    "time": 248.75,
                    "velocity": 0.15748031496062992,
                    "duration": 0.3125
                },
                {
                    "name": "E4",
                    "midi": 64,
                    "time": 248.90625,
                    "velocity": 0.15748031496062992,
                    "duration": 0.15625
                },
                {
                    "name": "A4",
                    "midi": 69,
                    "time": 249.0625,
                    "velocity": 0.15748031496062992,
                    "duration": 0.15625
                },
                {
                    "name": "A3",
                    "midi": 57,
                    "time": 249.0625,
                    "velocity": 0.30708661417322836,
                    "duration": 0.625
                },
                {
                    "name": "E4",
                    "midi": 64,
                    "time": 249.21875,
                    "velocity": 0.15748031496062992,
                    "duration": 0.15625
                },
                {
                    "name": "A4",
                    "midi": 69,
                    "time": 249.375,
                    "velocity": 0.15748031496062992,
                    "duration": 0.15625
                },
                {
                    "name": "E4",
                    "midi": 64,
                    "time": 249.53125,
                    "velocity": 0.15748031496062992,
                    "duration": 0.15625
                },
                {
                    "name": "A4",
                    "midi": 69,
                    "time": 249.6875,
                    "velocity": 0.15748031496062992,
                    "duration": 0.15625
                },
                {
                    "name": "A3",
                    "midi": 57,
                    "time": 249.6875,
                    "velocity": 0.15748031496062992,
                    "duration": 0.3125
                },
                {
                    "name": "E4",
                    "midi": 64,
                    "time": 249.84375,
                    "velocity": 0.15748031496062992,
                    "duration": 0.15625
                },
                {
                    "name": "B4",
                    "midi": 71,
                    "time": 250,
                    "velocity": 0.15748031496062992,
                    "duration": 0.15625
                },
                {
                    "name": "A3",
                    "midi": 57,
                    "time": 250,
                    "velocity": 0.15748031496062992,
                    "duration": 0.3125
                },
                {
                    "name": "F4",
                    "midi": 65,
                    "time": 250.15625,
                    "velocity": 0.15748031496062992,
                    "duration": 0.15625
                },
                {
                    "name": "B4",
                    "midi": 71,
                    "time": 250.3125,
                    "velocity": 0.15748031496062992,
                    "duration": 0.15625
                },
                {
                    "name": "A3",
                    "midi": 57,
                    "time": 250.3125,
                    "velocity": 0.30708661417322836,
                    "duration": 0.625
                },
                {
                    "name": "F4",
                    "midi": 65,
                    "time": 250.46875,
                    "velocity": 0.15748031496062992,
                    "duration": 0.15625
                },
                {
                    "name": "B4",
                    "midi": 71,
                    "time": 250.625,
                    "velocity": 0.15748031496062992,
                    "duration": 0.15625
                },
                {
                    "name": "F4",
                    "midi": 65,
                    "time": 250.78125,
                    "velocity": 0.15748031496062992,
                    "duration": 0.15625
                },
                {
                    "name": "G#4",
                    "midi": 68,
                    "time": 250.9375,
                    "velocity": 0.15748031496062992,
                    "duration": 0.15625
                },
                {
                    "name": "A3",
                    "midi": 57,
                    "time": 250.9375,
                    "velocity": 0.15748031496062992,
                    "duration": 0.3125
                },
                {
                    "name": "E4",
                    "midi": 64,
                    "time": 251.09375,
                    "velocity": 0.15748031496062992,
                    "duration": 0.15625
                },
                {
                    "name": "A4",
                    "midi": 69,
                    "time": 251.25,
                    "velocity": 0.15748031496062992,
                    "duration": 0.15625
                },
                {
                    "name": "A3",
                    "midi": 57,
                    "time": 251.25,
                    "velocity": 0.15748031496062992,
                    "duration": 0.3125
                },
                {
                    "name": "E4",
                    "midi": 64,
                    "time": 251.40625,
                    "velocity": 0.15748031496062992,
                    "duration": 0.15625
                },
                {
                    "name": "A4",
                    "midi": 69,
                    "time": 251.5625,
                    "velocity": 0.15748031496062992,
                    "duration": 0.15625
                },
                {
                    "name": "A3",
                    "midi": 57,
                    "time": 251.5625,
                    "velocity": 0.30708661417322836,
                    "duration": 0.625
                },
                {
                    "name": "E4",
                    "midi": 64,
                    "time": 251.71875,
                    "velocity": 0.15748031496062992,
                    "duration": 0.15625
                },
                {
                    "name": "A4",
                    "midi": 69,
                    "time": 251.875,
                    "velocity": 0.15748031496062992,
                    "duration": 0.15625
                },
                {
                    "name": "E4",
                    "midi": 64,
                    "time": 252.03125,
                    "velocity": 0.15748031496062992,
                    "duration": 0.15625
                },
                {
                    "name": "A4",
                    "midi": 69,
                    "time": 252.1875,
                    "velocity": 0.15748031496062992,
                    "duration": 0.15625
                },
                {
                    "name": "A3",
                    "midi": 57,
                    "time": 252.1875,
                    "velocity": 0.15748031496062992,
                    "duration": 0.3125
                },
                {
                    "name": "E4",
                    "midi": 64,
                    "time": 252.34375,
                    "velocity": 0.15748031496062992,
                    "duration": 0.15625
                },
                {
                    "name": "B4",
                    "midi": 71,
                    "time": 252.5,
                    "velocity": 0.15748031496062992,
                    "duration": 0.15625
                },
                {
                    "name": "A3",
                    "midi": 57,
                    "time": 252.5,
                    "velocity": 0.15748031496062992,
                    "duration": 0.3125
                },
                {
                    "name": "F4",
                    "midi": 65,
                    "time": 252.65625,
                    "velocity": 0.15748031496062992,
                    "duration": 0.15625
                },
                {
                    "name": "B4",
                    "midi": 71,
                    "time": 252.8125,
                    "velocity": 0.15748031496062992,
                    "duration": 0.15625
                },
                {
                    "name": "A3",
                    "midi": 57,
                    "time": 252.8125,
                    "velocity": 0.30708661417322836,
                    "duration": 0.625
                },
                {
                    "name": "F4",
                    "midi": 65,
                    "time": 252.96875,
                    "velocity": 0.15748031496062992,
                    "duration": 0.15625
                },
                {
                    "name": "B4",
                    "midi": 71,
                    "time": 253.125,
                    "velocity": 0.15748031496062992,
                    "duration": 0.15625
                },
                {
                    "name": "F4",
                    "midi": 65,
                    "time": 253.28125,
                    "velocity": 0.15748031496062992,
                    "duration": 0.15625
                },
                {
                    "name": "G#4",
                    "midi": 68,
                    "time": 253.4375,
                    "velocity": 0.15748031496062992,
                    "duration": 0.15625
                },
                {
                    "name": "A3",
                    "midi": 57,
                    "time": 253.4375,
                    "velocity": 0.15748031496062992,
                    "duration": 0.3125
                },
                {
                    "name": "E4",
                    "midi": 64,
                    "time": 253.59375,
                    "velocity": 0.15748031496062992,
                    "duration": 0.15625
                },
                {
                    "name": "A4",
                    "midi": 69,
                    "time": 253.75,
                    "velocity": 0.15748031496062992,
                    "duration": 0.15625
                },
                {
                    "name": "A3",
                    "midi": 57,
                    "time": 253.75,
                    "velocity": 0.15748031496062992,
                    "duration": 0.3125
                },
                {
                    "name": "E4",
                    "midi": 64,
                    "time": 253.90625,
                    "velocity": 0.15748031496062992,
                    "duration": 0.15625
                },
                {
                    "name": "G4",
                    "midi": 67,
                    "time": 254.0625,
                    "velocity": 0.15748031496062992,
                    "duration": 0.15625
                },
                {
                    "name": "A3",
                    "midi": 57,
                    "time": 254.0625,
                    "velocity": 0.30708661417322836,
                    "duration": 0.625
                },
                {
                    "name": "D#4",
                    "midi": 63,
                    "time": 254.21875,
                    "velocity": 0.15748031496062992,
                    "duration": 0.15625
                },
                {
                    "name": "G4",
                    "midi": 67,
                    "time": 254.375,
                    "velocity": 0.15748031496062992,
                    "duration": 0.15625
                },
                {
                    "name": "C4",
                    "midi": 60,
                    "time": 254.53125,
                    "velocity": 0.15748031496062992,
                    "duration": 0.15625
                },
                {
                    "name": "F#4",
                    "midi": 66,
                    "time": 254.6875,
                    "velocity": 0.15748031496062992,
                    "duration": 0.15625
                },
                {
                    "name": "D3",
                    "midi": 50,
                    "time": 254.6875,
                    "velocity": 0.15748031496062992,
                    "duration": 0.3125
                },
                {
                    "name": "D4",
                    "midi": 62,
                    "time": 254.84375,
                    "velocity": 0.15748031496062992,
                    "duration": 0.15625
                },
                {
                    "name": "G4",
                    "midi": 67,
                    "time": 255,
                    "velocity": 0.15748031496062992,
                    "duration": 0.15625
                },
                {
                    "name": "G3",
                    "midi": 55,
                    "time": 255,
                    "velocity": 0.15748031496062992,
                    "duration": 0.3125
                },
                {
                    "name": "D4",
                    "midi": 62,
                    "time": 255.15625,
                    "velocity": 0.15748031496062992,
                    "duration": 0.15625
                },
                {
                    "name": "F4",
                    "midi": 65,
                    "time": 255.3125,
                    "velocity": 0.15748031496062992,
                    "duration": 0.15625
                },
                {
                    "name": "G3",
                    "midi": 55,
                    "time": 255.3125,
                    "velocity": 0.30708661417322836,
                    "duration": 0.625
                },
                {
                    "name": "C#4",
                    "midi": 61,
                    "time": 255.46875,
                    "velocity": 0.15748031496062992,
                    "duration": 0.15625
                },
                {
                    "name": "F4",
                    "midi": 65,
                    "time": 255.625,
                    "velocity": 0.15748031496062992,
                    "duration": 0.15625
                },
                {
                    "name": "A#3",
                    "midi": 58,
                    "time": 255.78125,
                    "velocity": 0.15748031496062992,
                    "duration": 0.15625
                },
                {
                    "name": "E4",
                    "midi": 64,
                    "time": 255.9375,
                    "velocity": 0.15748031496062992,
                    "duration": 0.15625
                },
                {
                    "name": "C3",
                    "midi": 48,
                    "time": 255.9375,
                    "velocity": 0.15748031496062992,
                    "duration": 0.3125
                },
                {
                    "name": "C4",
                    "midi": 60,
                    "time": 256.09375,
                    "velocity": 0.15748031496062992,
                    "duration": 0.15625
                },
                {
                    "name": "F4",
                    "midi": 65,
                    "time": 256.25,
                    "velocity": 0.15748031496062992,
                    "duration": 0.15625
                },
                {
                    "name": "F3",
                    "midi": 53,
                    "time": 256.25,
                    "velocity": 0.15748031496062992,
                    "duration": 0.3125
                },
                {
                    "name": "C4",
                    "midi": 60,
                    "time": 256.40625,
                    "velocity": 0.15748031496062992,
                    "duration": 0.15625
                },
                {
                    "name": "E4",
                    "midi": 64,
                    "time": 256.5625,
                    "velocity": 0.15748031496062992,
                    "duration": 0.15625
                },
                {
                    "name": "F3",
                    "midi": 53,
                    "time": 256.5625,
                    "velocity": 0.15748031496062992,
                    "duration": 0.625
                },
                {
                    "name": "C4",
                    "midi": 60,
                    "time": 256.71875,
                    "velocity": 0.15748031496062992,
                    "duration": 0.15625
                },
                {
                    "name": "E4",
                    "midi": 64,
                    "time": 256.875,
                    "velocity": 0.15748031496062992,
                    "duration": 0.15625
                },
                {
                    "name": "A3",
                    "midi": 57,
                    "time": 257.03125,
                    "velocity": 0.15748031496062992,
                    "duration": 0.15625
                },
                {
                    "name": "D#4",
                    "midi": 63,
                    "time": 257.1875,
                    "velocity": 0.15748031496062992,
                    "duration": 0.15625
                },
                {
                    "name": "F3",
                    "midi": 53,
                    "time": 257.1875,
                    "velocity": 0.15748031496062992,
                    "duration": 0.3125
                },
                {
                    "name": "A3",
                    "midi": 57,
                    "time": 257.34375,
                    "velocity": 0.15748031496062992,
                    "duration": 0.15625
                },
                {
                    "name": "E4",
                    "midi": 64,
                    "time": 257.5,
                    "velocity": 0.15748031496062992,
                    "duration": 0.15625
                },
                {
                    "name": "E3",
                    "midi": 52,
                    "time": 257.5,
                    "velocity": 0.15748031496062992,
                    "duration": 0.3125
                },
                {
                    "name": "A3",
                    "midi": 57,
                    "time": 257.65625,
                    "velocity": 0.15748031496062992,
                    "duration": 0.15625
                },
                {
                    "name": "C4",
                    "midi": 60,
                    "time": 257.65625,
                    "velocity": 0.15748031496062992,
                    "duration": 0.15625
                },
                {
                    "name": "F#4",
                    "midi": 66,
                    "time": 257.8125,
                    "velocity": 0.15748031496062992,
                    "duration": 0.15625
                },
                {
                    "name": "D#3",
                    "midi": 51,
                    "time": 257.8125,
                    "velocity": 0.15748031496062992,
                    "duration": 0.3125
                },
                {
                    "name": "A3",
                    "midi": 57,
                    "time": 257.96875,
                    "velocity": 0.15748031496062992,
                    "duration": 0.15625
                },
                {
                    "name": "C4",
                    "midi": 60,
                    "time": 257.96875,
                    "velocity": 0.15748031496062992,
                    "duration": 0.15625
                },
                {
                    "name": "E4",
                    "midi": 64,
                    "time": 258.125,
                    "velocity": 0.15748031496062992,
                    "duration": 0.15625
                },
                {
                    "name": "E3",
                    "midi": 52,
                    "time": 258.125,
                    "velocity": 0.15748031496062992,
                    "duration": 0.3125
                },
                {
                    "name": "A3",
                    "midi": 57,
                    "time": 258.28125,
                    "velocity": 0.15748031496062992,
                    "duration": 0.15625
                },
                {
                    "name": "C4",
                    "midi": 60,
                    "time": 258.28125,
                    "velocity": 0.15748031496062992,
                    "duration": 0.15625
                },
                {
                    "name": "D#4",
                    "midi": 63,
                    "time": 258.4375,
                    "velocity": 0.15748031496062992,
                    "duration": 0.15625
                },
                {
                    "name": "F#3",
                    "midi": 54,
                    "time": 258.4375,
                    "velocity": 0.15748031496062992,
                    "duration": 0.3125
                },
                {
                    "name": "A3",
                    "midi": 57,
                    "time": 258.59375,
                    "velocity": 0.15748031496062992,
                    "duration": 0.15625
                },
                {
                    "name": "C4",
                    "midi": 60,
                    "time": 258.59375,
                    "velocity": 0.15748031496062992,
                    "duration": 0.15625
                },
                {
                    "name": "D#4",
                    "midi": 63,
                    "time": 258.75,
                    "velocity": 0.15748031496062992,
                    "duration": 0.15625
                },
                {
                    "name": "F#3",
                    "midi": 54,
                    "time": 258.75,
                    "velocity": 0.15748031496062992,
                    "duration": 0.3125
                },
                {
                    "name": "A3",
                    "midi": 57,
                    "time": 258.90625,
                    "velocity": 0.15748031496062992,
                    "duration": 0.15625
                },
                {
                    "name": "C4",
                    "midi": 60,
                    "time": 258.90625,
                    "velocity": 0.15748031496062992,
                    "duration": 0.15625
                },
                {
                    "name": "F#4",
                    "midi": 66,
                    "time": 259.0625,
                    "velocity": 0.15748031496062992,
                    "duration": 0.15625
                },
                {
                    "name": "D#3",
                    "midi": 51,
                    "time": 259.0625,
                    "velocity": 0.15748031496062992,
                    "duration": 0.625
                },
                {
                    "name": "A3",
                    "midi": 57,
                    "time": 259.21875,
                    "velocity": 0.15748031496062992,
                    "duration": 0.15625
                },
                {
                    "name": "C4",
                    "midi": 60,
                    "time": 259.21875,
                    "velocity": 0.15748031496062992,
                    "duration": 0.15625
                },
                {
                    "name": "F#4",
                    "midi": 66,
                    "time": 259.375,
                    "velocity": 0.15748031496062992,
                    "duration": 0.15625
                },
                {
                    "name": "A3",
                    "midi": 57,
                    "time": 259.53125,
                    "velocity": 0.15748031496062992,
                    "duration": 0.15625
                },
                {
                    "name": "C4",
                    "midi": 60,
                    "time": 259.53125,
                    "velocity": 0.15748031496062992,
                    "duration": 0.15625
                },
                {
                    "name": "D#4",
                    "midi": 63,
                    "time": 259.6875,
                    "velocity": 0.15748031496062992,
                    "duration": 0.15625
                },
                {
                    "name": "F#3",
                    "midi": 54,
                    "time": 259.6875,
                    "velocity": 0.15748031496062992,
                    "duration": 0.3125
                },
                {
                    "name": "A3",
                    "midi": 57,
                    "time": 259.84375,
                    "velocity": 0.15748031496062992,
                    "duration": 0.15625
                },
                {
                    "name": "C4",
                    "midi": 60,
                    "time": 259.84375,
                    "velocity": 0.15748031496062992,
                    "duration": 0.15625
                },
                {
                    "name": "E4",
                    "midi": 64,
                    "time": 260,
                    "velocity": 0.15748031496062992,
                    "duration": 0.15625
                },
                {
                    "name": "E3",
                    "midi": 52,
                    "time": 260,
                    "velocity": 0.15748031496062992,
                    "duration": 1.40625
                },
                {
                    "name": "A3",
                    "midi": 57,
                    "time": 260.15625,
                    "velocity": 0.15748031496062992,
                    "duration": 0.15625
                },
                {
                    "name": "C4",
                    "midi": 60,
                    "time": 260.15625,
                    "velocity": 0.15748031496062992,
                    "duration": 0.15625
                },
                {
                    "name": "E4",
                    "midi": 64,
                    "time": 260.3125,
                    "velocity": 0.15748031496062992,
                    "duration": 0.15625
                },
                {
                    "name": "A3",
                    "midi": 57,
                    "time": 260.46875,
                    "velocity": 0.15748031496062992,
                    "duration": 0.15625
                },
                {
                    "name": "C4",
                    "midi": 60,
                    "time": 260.46875,
                    "velocity": 0.15748031496062992,
                    "duration": 0.15625
                },
                {
                    "name": "E4",
                    "midi": 64,
                    "time": 260.625,
                    "velocity": 0.15748031496062992,
                    "duration": 0.15625
                },
                {
                    "name": "A3",
                    "midi": 57,
                    "time": 260.78125,
                    "velocity": 0.15748031496062992,
                    "duration": 0.15625
                },
                {
                    "name": "C4",
                    "midi": 60,
                    "time": 260.78125,
                    "velocity": 0.15748031496062992,
                    "duration": 0.15625
                },
                {
                    "name": "E4",
                    "midi": 64,
                    "time": 260.9375,
                    "velocity": 0.15748031496062992,
                    "duration": 0.15625
                },
                {
                    "name": "A3",
                    "midi": 57,
                    "time": 261.09375,
                    "velocity": 0.15748031496062992,
                    "duration": 0.15625
                },
                {
                    "name": "C4",
                    "midi": 60,
                    "time": 261.09375,
                    "velocity": 0.15748031496062992,
                    "duration": 0.15625
                },
                {
                    "name": "E4",
                    "midi": 64,
                    "time": 261.25,
                    "velocity": 0.15748031496062992,
                    "duration": 0.15625
                },
                {
                    "name": "A3",
                    "midi": 57,
                    "time": 261.40625,
                    "velocity": 0.15748031496062992,
                    "duration": 0.15625
                },
                {
                    "name": "E3",
                    "midi": 52,
                    "time": 261.40625,
                    "velocity": 0.15748031496062992,
                    "duration": 0.3125
                },
                {
                    "name": "E4",
                    "midi": 64,
                    "time": 261.5625,
                    "velocity": 0.15748031496062992,
                    "duration": 0.15625
                },
                {
                    "name": "A3",
                    "midi": 57,
                    "time": 261.71875,
                    "velocity": 0.15748031496062992,
                    "duration": 0.15625
                },
                {
                    "name": "E3",
                    "midi": 52,
                    "time": 261.71875,
                    "velocity": 0.15748031496062992,
                    "duration": 0.3125
                },
                {
                    "name": "E4",
                    "midi": 64,
                    "time": 261.875,
                    "velocity": 0.15748031496062992,
                    "duration": 0.15625
                },
                {
                    "name": "A3",
                    "midi": 57,
                    "time": 262.03125,
                    "velocity": 0.15748031496062992,
                    "duration": 0.15625
                },
                {
                    "name": "E3",
                    "midi": 52,
                    "time": 262.03125,
                    "velocity": 0.15748031496062992,
                    "duration": 0.3125
                },
                {
                    "name": "E4",
                    "midi": 64,
                    "time": 262.1875,
                    "velocity": 0.15748031496062992,
                    "duration": 0.15625
                },
                {
                    "name": "A3",
                    "midi": 57,
                    "time": 262.34375,
                    "velocity": 0.15748031496062992,
                    "duration": 0.15625
                },
                {
                    "name": "E3",
                    "midi": 52,
                    "time": 262.34375,
                    "velocity": 0.15748031496062992,
                    "duration": 0.15625
                },
                {
                    "name": "E4",
                    "midi": 64,
                    "time": 262.5,
                    "velocity": 0.15748031496062992,
                    "duration": 0.15625
                },
                {
                    "name": "C3",
                    "midi": 48,
                    "time": 262.65625,
                    "velocity": 0.15748031496062992,
                    "duration": 0.15625
                },
                {
                    "name": "E3",
                    "midi": 52,
                    "time": 262.65625,
                    "velocity": 0.15748031496062992,
                    "duration": 0.15625
                },
                {
                    "name": "E4",
                    "midi": 64,
                    "time": 262.8125,
                    "velocity": 0.15748031496062992,
                    "duration": 0.15625
                },
                {
                    "name": "C3",
                    "midi": 48,
                    "time": 262.96875,
                    "velocity": 0.15748031496062992,
                    "duration": 0.15625
                },
                {
                    "name": "E3",
                    "midi": 52,
                    "time": 262.96875,
                    "velocity": 0.15748031496062992,
                    "duration": 0.15625
                },
                {
                    "name": "E4",
                    "midi": 64,
                    "time": 263.125,
                    "velocity": 0.15748031496062992,
                    "duration": 0.15625
                },
                {
                    "name": "C3",
                    "midi": 48,
                    "time": 263.28125,
                    "velocity": 0.15748031496062992,
                    "duration": 0.15625
                },
                {
                    "name": "E3",
                    "midi": 52,
                    "time": 263.28125,
                    "velocity": 0.15748031496062992,
                    "duration": 0.15625
                },
                {
                    "name": "E4",
                    "midi": 64,
                    "time": 263.4375,
                    "velocity": 0.15748031496062992,
                    "duration": 0.15625
                },
                {
                    "name": "C3",
                    "midi": 48,
                    "time": 263.59375,
                    "velocity": 0.15748031496062992,
                    "duration": 0.15625
                },
                {
                    "name": "E3",
                    "midi": 52,
                    "time": 263.59375,
                    "velocity": 0.15748031496062992,
                    "duration": 0.15625
                },
                {
                    "name": "A2",
                    "midi": 45,
                    "time": 263.75,
                    "velocity": 0.15748031496062992,
                    "duration": 1.25
                },
                {
                    "name": "E3",
                    "midi": 52,
                    "time": 263.90625,
                    "velocity": 0.15748031496062992,
                    "duration": 0.15625
                },
                {
                    "name": "E4",
                    "midi": 64,
                    "time": 264.0625,
                    "velocity": 0.15748031496062992,
                    "duration": 0.15625
                },
                {
                    "name": "E3",
                    "midi": 52,
                    "time": 264.21875,
                    "velocity": 0.15748031496062992,
                    "duration": 0.15625
                },
                {
                    "name": "E4",
                    "midi": 64,
                    "time": 264.375,
                    "velocity": 0.15748031496062992,
                    "duration": 0.15625
                },
                {
                    "name": "E3",
                    "midi": 52,
                    "time": 264.53125,
                    "velocity": 0.15748031496062992,
                    "duration": 0.15625
                },
                {
                    "name": "E4",
                    "midi": 64,
                    "time": 264.6875,
                    "velocity": 0.15748031496062992,
                    "duration": 0.15625
                },
                {
                    "name": "E3",
                    "midi": 52,
                    "time": 264.84375,
                    "velocity": 0.15748031496062992,
                    "duration": 0.15625
                },
                {
                    "name": "A2",
                    "midi": 45,
                    "time": 265,
                    "velocity": 0.15748031496062992,
                    "duration": 1.25
                },
                {
                    "name": "F3",
                    "midi": 53,
                    "time": 265.15625,
                    "velocity": 0.15748031496062992,
                    "duration": 0.15625
                },
                {
                    "name": "D4",
                    "midi": 62,
                    "time": 265.3125,
                    "velocity": 0.15748031496062992,
                    "duration": 0.15625
                },
                {
                    "name": "F3",
                    "midi": 53,
                    "time": 265.46875,
                    "velocity": 0.15748031496062992,
                    "duration": 0.15625
                },
                {
                    "name": "D4",
                    "midi": 62,
                    "time": 265.625,
                    "velocity": 0.15748031496062992,
                    "duration": 0.15625
                },
                {
                    "name": "F3",
                    "midi": 53,
                    "time": 265.78125,
                    "velocity": 0.15748031496062992,
                    "duration": 0.15625
                },
                {
                    "name": "D4",
                    "midi": 62,
                    "time": 265.9375,
                    "velocity": 0.15748031496062992,
                    "duration": 0.15625
                },
                {
                    "name": "F3",
                    "midi": 53,
                    "time": 266.09375,
                    "velocity": 0.15748031496062992,
                    "duration": 0.15625
                },
                {
                    "name": "A2",
                    "midi": 45,
                    "time": 266.25,
                    "velocity": 0.15748031496062992,
                    "duration": 1.25
                },
                {
                    "name": "F3",
                    "midi": 53,
                    "time": 266.40625,
                    "velocity": 0.15748031496062992,
                    "duration": 0.15625
                },
                {
                    "name": "D4",
                    "midi": 62,
                    "time": 266.5625,
                    "velocity": 0.15748031496062992,
                    "duration": 0.15625
                },
                {
                    "name": "F3",
                    "midi": 53,
                    "time": 266.71875,
                    "velocity": 0.15748031496062992,
                    "duration": 0.15625
                },
                {
                    "name": "D4",
                    "midi": 62,
                    "time": 266.875,
                    "velocity": 0.15748031496062992,
                    "duration": 0.15625
                },
                {
                    "name": "F3",
                    "midi": 53,
                    "time": 267.03125,
                    "velocity": 0.15748031496062992,
                    "duration": 0.15625
                },
                {
                    "name": "D4",
                    "midi": 62,
                    "time": 267.1875,
                    "velocity": 0.15748031496062992,
                    "duration": 0.15625
                },
                {
                    "name": "F3",
                    "midi": 53,
                    "time": 267.34375,
                    "velocity": 0.15748031496062992,
                    "duration": 0.15625
                },
                {
                    "name": "A2",
                    "midi": 45,
                    "time": 267.5,
                    "velocity": 0.15748031496062992,
                    "duration": 1.25
                },
                {
                    "name": "F#3",
                    "midi": 54,
                    "time": 267.65625,
                    "velocity": 0.15748031496062992,
                    "duration": 0.15625
                },
                {
                    "name": "D#4",
                    "midi": 63,
                    "time": 267.8125,
                    "velocity": 0.15748031496062992,
                    "duration": 0.15625
                },
                {
                    "name": "F#3",
                    "midi": 54,
                    "time": 267.96875,
                    "velocity": 0.15748031496062992,
                    "duration": 0.15625
                },
                {
                    "name": "D#4",
                    "midi": 63,
                    "time": 268.125,
                    "velocity": 0.15748031496062992,
                    "duration": 0.15625
                },
                {
                    "name": "F#3",
                    "midi": 54,
                    "time": 268.28125,
                    "velocity": 0.15748031496062992,
                    "duration": 0.15625
                },
                {
                    "name": "D#4",
                    "midi": 63,
                    "time": 268.4375,
                    "velocity": 0.15748031496062992,
                    "duration": 0.15625
                },
                {
                    "name": "F#3",
                    "midi": 54,
                    "time": 268.59375,
                    "velocity": 0.15748031496062992,
                    "duration": 0.15625
                },
                {
                    "name": "A2",
                    "midi": 45,
                    "time": 268.75,
                    "velocity": 0.15748031496062992,
                    "duration": 1.25
                },
                {
                    "name": "G#3",
                    "midi": 56,
                    "time": 268.90625,
                    "velocity": 0.15748031496062992,
                    "duration": 0.15625
                },
                {
                    "name": "D4",
                    "midi": 62,
                    "time": 269.0625,
                    "velocity": 0.15748031496062992,
                    "duration": 0.15625
                },
                {
                    "name": "G#3",
                    "midi": 56,
                    "time": 269.21875,
                    "velocity": 0.15748031496062992,
                    "duration": 0.15625
                },
                {
                    "name": "D4",
                    "midi": 62,
                    "time": 269.375,
                    "velocity": 0.15748031496062992,
                    "duration": 0.15625
                },
                {
                    "name": "G#3",
                    "midi": 56,
                    "time": 269.53125,
                    "velocity": 0.15748031496062992,
                    "duration": 0.15625
                },
                {
                    "name": "D4",
                    "midi": 62,
                    "time": 269.6875,
                    "velocity": 0.15748031496062992,
                    "duration": 0.15625
                },
                {
                    "name": "G#3",
                    "midi": 56,
                    "time": 269.84375,
                    "velocity": 0.15748031496062992,
                    "duration": 0.15625
                },
                {
                    "name": "A3",
                    "midi": 57,
                    "time": 270,
                    "velocity": 0.15748031496062992,
                    "duration": 0.15625
                },
                {
                    "name": "A3",
                    "midi": 57,
                    "time": 270,
                    "velocity": 0.15748031496062992,
                    "duration": 0.3125
                },
                {
                    "name": "C4",
                    "midi": 60,
                    "time": 270.15625,
                    "velocity": 0.15748031496062992,
                    "duration": 0.15625
                },
                {
                    "name": "F3",
                    "midi": 53,
                    "time": 270.3125,
                    "velocity": 0.15748031496062992,
                    "duration": 0.15625
                },
                {
                    "name": "F3",
                    "midi": 53,
                    "time": 270.3125,
                    "velocity": 0.15748031496062992,
                    "duration": 0.3125
                },
                {
                    "name": "A3",
                    "midi": 57,
                    "time": 270.46875,
                    "velocity": 0.15748031496062992,
                    "duration": 0.15625
                },
                {
                    "name": "D3",
                    "midi": 50,
                    "time": 270.625,
                    "velocity": 0.15748031496062992,
                    "duration": 0.15625
                },
                {
                    "name": "D3",
                    "midi": 50,
                    "time": 270.625,
                    "velocity": 0.15748031496062992,
                    "duration": 1.25
                },
                {
                    "name": "F3",
                    "midi": 53,
                    "time": 270.78125,
                    "velocity": 0.15748031496062992,
                    "duration": 0.15625
                },
                {
                    "name": "D#3",
                    "midi": 51,
                    "time": 270.9375,
                    "velocity": 0.15748031496062992,
                    "duration": 0.15625
                },
                {
                    "name": "F#3",
                    "midi": 54,
                    "time": 271.09375,
                    "velocity": 0.15748031496062992,
                    "duration": 0.15625
                },
                {
                    "name": "E3",
                    "midi": 52,
                    "time": 271.25,
                    "velocity": 0.15748031496062992,
                    "duration": 0.15625
                },
                {
                    "name": "G#3",
                    "midi": 56,
                    "time": 271.40625,
                    "velocity": 0.16535433070866143,
                    "duration": 0.15625
                },
                {
                    "name": "F#3",
                    "midi": 54,
                    "time": 271.5625,
                    "velocity": 0.18110236220472442,
                    "duration": 0.15625
                },
                {
                    "name": "A3",
                    "midi": 57,
                    "time": 271.71875,
                    "velocity": 0.1889763779527559,
                    "duration": 0.15625
                },
                {
                    "name": "G3",
                    "midi": 55,
                    "time": 271.875,
                    "velocity": 0.1968503937007874,
                    "duration": 0.15625
                },
                {
                    "name": "C#3",
                    "midi": 49,
                    "time": 271.875,
                    "velocity": 0.1968503937007874,
                    "duration": 0.3125
                },
                {
                    "name": "A#3",
                    "midi": 58,
                    "time": 272.03125,
                    "velocity": 0.2047244094488189,
                    "duration": 0.15625
                },
                {
                    "name": "G#3",
                    "midi": 56,
                    "time": 272.1875,
                    "velocity": 0.2204724409448819,
                    "duration": 0.15625
                },
                {
                    "name": "B2",
                    "midi": 47,
                    "time": 272.1875,
                    "velocity": 0.2204724409448819,
                    "duration": 0.3125
                },
                {
                    "name": "B3",
                    "midi": 59,
                    "time": 272.34375,
                    "velocity": 0.2283464566929134,
                    "duration": 0.15625
                },
                {
                    "name": "A2",
                    "midi": 45,
                    "time": 272.5,
                    "velocity": 0.14173228346456693,
                    "duration": 0.15625
                },
                {
                    "name": "A2",
                    "midi": 45,
                    "time": 272.5,
                    "velocity": 0.14173228346456693,
                    "duration": 0.3125
                },
                {
                    "name": "A3",
                    "midi": 57,
                    "time": 272.65625,
                    "velocity": 0.14960629921259844,
                    "duration": 0.15625
                },
                {
                    "name": "C#4",
                    "midi": 61,
                    "time": 272.65625,
                    "velocity": 0.14960629921259844,
                    "duration": 0.15625
                },
                {
                    "name": "E3",
                    "midi": 52,
                    "time": 272.8125,
                    "velocity": 0.15748031496062992,
                    "duration": 0.15625
                },
                {
                    "name": "E3",
                    "midi": 52,
                    "time": 272.8125,
                    "velocity": 0.15748031496062992,
                    "duration": 0.625
                },
                {
                    "name": "A3",
                    "midi": 57,
                    "time": 272.96875,
                    "velocity": 0.15748031496062992,
                    "duration": 0.15625
                },
                {
                    "name": "C#4",
                    "midi": 61,
                    "time": 272.96875,
                    "velocity": 0.15748031496062992,
                    "duration": 0.15625
                },
                {
                    "name": "A3",
                    "midi": 57,
                    "time": 273.125,
                    "velocity": 0.16535433070866143,
                    "duration": 0.15625
                },
                {
                    "name": "C#4",
                    "midi": 61,
                    "time": 273.125,
                    "velocity": 0.16535433070866143,
                    "duration": 0.15625
                },
                {
                    "name": "A3",
                    "midi": 57,
                    "time": 273.28125,
                    "velocity": 0.1732283464566929,
                    "duration": 0.15625
                },
                {
                    "name": "C#4",
                    "midi": 61,
                    "time": 273.28125,
                    "velocity": 0.1732283464566929,
                    "duration": 0.15625
                },
                {
                    "name": "E3",
                    "midi": 52,
                    "time": 273.4375,
                    "velocity": 0.18110236220472442,
                    "duration": 0.15625
                },
                {
                    "name": "E3",
                    "midi": 52,
                    "time": 273.4375,
                    "velocity": 0.18110236220472442,
                    "duration": 0.3125
                },
                {
                    "name": "A3",
                    "midi": 57,
                    "time": 273.59375,
                    "velocity": 0.1889763779527559,
                    "duration": 0.15625
                },
                {
                    "name": "C#4",
                    "midi": 61,
                    "time": 273.59375,
                    "velocity": 0.1889763779527559,
                    "duration": 0.15625
                },
                {
                    "name": "F#2",
                    "midi": 42,
                    "time": 273.75,
                    "velocity": 0.1968503937007874,
                    "duration": 0.15625
                },
                {
                    "name": "F#2",
                    "midi": 42,
                    "time": 273.75,
                    "velocity": 0.1968503937007874,
                    "duration": 0.3125
                },
                {
                    "name": "A#3",
                    "midi": 58,
                    "time": 273.90625,
                    "velocity": 0.1968503937007874,
                    "duration": 0.15625
                },
                {
                    "name": "C#4",
                    "midi": 61,
                    "time": 273.90625,
                    "velocity": 0.1968503937007874,
                    "duration": 0.15625
                },
                {
                    "name": "F#3",
                    "midi": 54,
                    "time": 274.0625,
                    "velocity": 0.2047244094488189,
                    "duration": 0.15625
                },
                {
                    "name": "F#3",
                    "midi": 54,
                    "time": 274.0625,
                    "velocity": 0.2047244094488189,
                    "duration": 0.625
                },
                {
                    "name": "A#3",
                    "midi": 58,
                    "time": 274.21875,
                    "velocity": 0.2125984251968504,
                    "duration": 0.15625
                },
                {
                    "name": "C#4",
                    "midi": 61,
                    "time": 274.21875,
                    "velocity": 0.2125984251968504,
                    "duration": 0.15625
                },
                {
                    "name": "A#3",
                    "midi": 58,
                    "time": 274.375,
                    "velocity": 0.2204724409448819,
                    "duration": 0.15625
                },
                {
                    "name": "C#4",
                    "midi": 61,
                    "time": 274.375,
                    "velocity": 0.2204724409448819,
                    "duration": 0.15625
                },
                {
                    "name": "A#3",
                    "midi": 58,
                    "time": 274.53125,
                    "velocity": 0.2283464566929134,
                    "duration": 0.15625
                },
                {
                    "name": "C#4",
                    "midi": 61,
                    "time": 274.53125,
                    "velocity": 0.2283464566929134,
                    "duration": 0.15625
                },
                {
                    "name": "F#3",
                    "midi": 54,
                    "time": 274.6875,
                    "velocity": 0.2283464566929134,
                    "duration": 0.15625
                },
                {
                    "name": "F#3",
                    "midi": 54,
                    "time": 274.6875,
                    "velocity": 0.2283464566929134,
                    "duration": 0.3125
                },
                {
                    "name": "A#3",
                    "midi": 58,
                    "time": 274.84375,
                    "velocity": 0.23622047244094488,
                    "duration": 0.15625
                },
                {
                    "name": "C#4",
                    "midi": 61,
                    "time": 274.84375,
                    "velocity": 0.23622047244094488,
                    "duration": 0.15625
                },
                {
                    "name": "B2",
                    "midi": 47,
                    "time": 275,
                    "velocity": 0.2440944881889764,
                    "duration": 0.15625
                },
                {
                    "name": "B2",
                    "midi": 47,
                    "time": 275,
                    "velocity": 0.2440944881889764,
                    "duration": 0.3125
                },
                {
                    "name": "B3",
                    "midi": 59,
                    "time": 275.15625,
                    "velocity": 0.25196850393700787,
                    "duration": 0.15625
                },
                {
                    "name": "D4",
                    "midi": 62,
                    "time": 275.15625,
                    "velocity": 0.25196850393700787,
                    "duration": 0.15625
                },
                {
                    "name": "F#3",
                    "midi": 54,
                    "time": 275.3125,
                    "velocity": 0.25984251968503935,
                    "duration": 0.15625
                },
                {
                    "name": "F#3",
                    "midi": 54,
                    "time": 275.3125,
                    "velocity": 0.25984251968503935,
                    "duration": 0.625
                },
                {
                    "name": "B3",
                    "midi": 59,
                    "time": 275.46875,
                    "velocity": 0.25984251968503935,
                    "duration": 0.15625
                },
                {
                    "name": "D4",
                    "midi": 62,
                    "time": 275.46875,
                    "velocity": 0.25984251968503935,
                    "duration": 0.15625
                },
                {
                    "name": "B3",
                    "midi": 59,
                    "time": 275.625,
                    "velocity": 0.2677165354330709,
                    "duration": 0.15625
                },
                {
                    "name": "D4",
                    "midi": 62,
                    "time": 275.625,
                    "velocity": 0.2677165354330709,
                    "duration": 0.15625
                },
                {
                    "name": "B3",
                    "midi": 59,
                    "time": 275.78125,
                    "velocity": 0.2755905511811024,
                    "duration": 0.15625
                },
                {
                    "name": "D4",
                    "midi": 62,
                    "time": 275.78125,
                    "velocity": 0.2755905511811024,
                    "duration": 0.15625
                },
                {
                    "name": "F#3",
                    "midi": 54,
                    "time": 275.9375,
                    "velocity": 0.28346456692913385,
                    "duration": 0.15625
                },
                {
                    "name": "F#3",
                    "midi": 54,
                    "time": 275.9375,
                    "velocity": 0.28346456692913385,
                    "duration": 0.3125
                },
                {
                    "name": "B3",
                    "midi": 59,
                    "time": 276.09375,
                    "velocity": 0.29133858267716534,
                    "duration": 0.15625
                },
                {
                    "name": "D4",
                    "midi": 62,
                    "time": 276.09375,
                    "velocity": 0.29133858267716534,
                    "duration": 0.15625
                },
                {
                    "name": "D3",
                    "midi": 50,
                    "time": 276.25,
                    "velocity": 0.2992125984251969,
                    "duration": 0.15625
                },
                {
                    "name": "D3",
                    "midi": 50,
                    "time": 276.25,
                    "velocity": 0.2992125984251969,
                    "duration": 0.3125
                },
                {
                    "name": "F#4",
                    "midi": 66,
                    "time": 276.40625,
                    "velocity": 0.2992125984251969,
                    "duration": 0.15625
                },
                {
                    "name": "B4",
                    "midi": 71,
                    "time": 276.40625,
                    "velocity": 0.2992125984251969,
                    "duration": 0.15625
                },
                {
                    "name": "D4",
                    "midi": 62,
                    "time": 276.5625,
                    "velocity": 0.30708661417322836,
                    "duration": 0.15625
                },
                {
                    "name": "D4",
                    "midi": 62,
                    "time": 276.5625,
                    "velocity": 0.30708661417322836,
                    "duration": 0.625
                },
                {
                    "name": "F#4",
                    "midi": 66,
                    "time": 276.71875,
                    "velocity": 0.31496062992125984,
                    "duration": 0.15625
                },
                {
                    "name": "B4",
                    "midi": 71,
                    "time": 276.71875,
                    "velocity": 0.31496062992125984,
                    "duration": 0.15625
                },
                {
                    "name": "F#4",
                    "midi": 66,
                    "time": 276.875,
                    "velocity": 0.3228346456692913,
                    "duration": 0.15625
                },
                {
                    "name": "B4",
                    "midi": 71,
                    "time": 276.875,
                    "velocity": 0.3228346456692913,
                    "duration": 0.15625
                },
                {
                    "name": "F#4",
                    "midi": 66,
                    "time": 277.03125,
                    "velocity": 0.33070866141732286,
                    "duration": 0.15625
                },
                {
                    "name": "B4",
                    "midi": 71,
                    "time": 277.03125,
                    "velocity": 0.33070866141732286,
                    "duration": 0.15625
                },
                {
                    "name": "D4",
                    "midi": 62,
                    "time": 277.1875,
                    "velocity": 0.33070866141732286,
                    "duration": 0.15625
                },
                {
                    "name": "D4",
                    "midi": 62,
                    "time": 277.1875,
                    "velocity": 0.33070866141732286,
                    "duration": 0.3125
                },
                {
                    "name": "F#4",
                    "midi": 66,
                    "time": 277.34375,
                    "velocity": 0.33858267716535434,
                    "duration": 0.15625
                },
                {
                    "name": "B4",
                    "midi": 71,
                    "time": 277.34375,
                    "velocity": 0.33858267716535434,
                    "duration": 0.15625
                },
                {
                    "name": "E3",
                    "midi": 52,
                    "time": 277.5,
                    "velocity": 0.3464566929133858,
                    "duration": 0.15625
                },
                {
                    "name": "E3",
                    "midi": 52,
                    "time": 277.5,
                    "velocity": 0.3464566929133858,
                    "duration": 0.3125
                },
                {
                    "name": "E4",
                    "midi": 64,
                    "time": 277.65625,
                    "velocity": 0.3543307086614173,
                    "duration": 0.15625
                },
                {
                    "name": "A4",
                    "midi": 69,
                    "time": 277.65625,
                    "velocity": 0.3543307086614173,
                    "duration": 0.15625
                },
                {
                    "name": "C#4",
                    "midi": 61,
                    "time": 277.8125,
                    "velocity": 0.36220472440944884,
                    "duration": 0.15625
                },
                {
                    "name": "C#4",
                    "midi": 61,
                    "time": 277.8125,
                    "velocity": 0.36220472440944884,
                    "duration": 0.625
                },
                {
                    "name": "E4",
                    "midi": 64,
                    "time": 277.96875,
                    "velocity": 0.36220472440944884,
                    "duration": 0.15625
                },
                {
                    "name": "A4",
                    "midi": 69,
                    "time": 277.96875,
                    "velocity": 0.36220472440944884,
                    "duration": 0.15625
                },
                {
                    "name": "E4",
                    "midi": 64,
                    "time": 278.125,
                    "velocity": 0.3700787401574803,
                    "duration": 0.15625
                },
                {
                    "name": "A4",
                    "midi": 69,
                    "time": 278.125,
                    "velocity": 0.3700787401574803,
                    "duration": 0.15625
                },
                {
                    "name": "E4",
                    "midi": 64,
                    "time": 278.28125,
                    "velocity": 0.3779527559055118,
                    "duration": 0.15625
                },
                {
                    "name": "A4",
                    "midi": 69,
                    "time": 278.28125,
                    "velocity": 0.3779527559055118,
                    "duration": 0.15625
                },
                {
                    "name": "C#4",
                    "midi": 61,
                    "time": 278.4375,
                    "velocity": 0.3858267716535433,
                    "duration": 0.15625
                },
                {
                    "name": "C#4",
                    "midi": 61,
                    "time": 278.4375,
                    "velocity": 0.3858267716535433,
                    "duration": 0.3125
                },
                {
                    "name": "E4",
                    "midi": 64,
                    "time": 278.59375,
                    "velocity": 0.3937007874015748,
                    "duration": 0.15625
                },
                {
                    "name": "A4",
                    "midi": 69,
                    "time": 278.59375,
                    "velocity": 0.3937007874015748,
                    "duration": 0.15625
                },
                {
                    "name": "E3",
                    "midi": 52,
                    "time": 278.75,
                    "velocity": 0.4015748031496063,
                    "duration": 0.15625
                },
                {
                    "name": "E3",
                    "midi": 52,
                    "time": 278.75,
                    "velocity": 0.4015748031496063,
                    "duration": 0.3125
                },
                {
                    "name": "D4",
                    "midi": 62,
                    "time": 278.90625,
                    "velocity": 0.4015748031496063,
                    "duration": 0.15625
                },
                {
                    "name": "G#4",
                    "midi": 68,
                    "time": 278.90625,
                    "velocity": 0.4015748031496063,
                    "duration": 0.15625
                },
                {
                    "name": "B3",
                    "midi": 59,
                    "time": 279.0625,
                    "velocity": 0.4094488188976378,
                    "duration": 0.15625
                },
                {
                    "name": "B3",
                    "midi": 59,
                    "time": 279.0625,
                    "velocity": 0.4094488188976378,
                    "duration": 0.625
                },
                {
                    "name": "D4",
                    "midi": 62,
                    "time": 279.21875,
                    "velocity": 0.41732283464566927,
                    "duration": 0.15625
                },
                {
                    "name": "G#4",
                    "midi": 68,
                    "time": 279.21875,
                    "velocity": 0.41732283464566927,
                    "duration": 0.15625
                },
                {
                    "name": "D4",
                    "midi": 62,
                    "time": 279.375,
                    "velocity": 0.4251968503937008,
                    "duration": 0.15625
                },
                {
                    "name": "G#4",
                    "midi": 68,
                    "time": 279.375,
                    "velocity": 0.4251968503937008,
                    "duration": 0.15625
                },
                {
                    "name": "D4",
                    "midi": 62,
                    "time": 279.53125,
                    "velocity": 0.4330708661417323,
                    "duration": 0.15625
                },
                {
                    "name": "G#4",
                    "midi": 68,
                    "time": 279.53125,
                    "velocity": 0.4330708661417323,
                    "duration": 0.15625
                },
                {
                    "name": "B3",
                    "midi": 59,
                    "time": 279.6875,
                    "velocity": 0.4330708661417323,
                    "duration": 0.15625
                },
                {
                    "name": "B3",
                    "midi": 59,
                    "time": 279.6875,
                    "velocity": 0.4330708661417323,
                    "duration": 0.3125
                },
                {
                    "name": "D4",
                    "midi": 62,
                    "time": 279.84375,
                    "velocity": 0.4409448818897638,
                    "duration": 0.15625
                },
                {
                    "name": "G#4",
                    "midi": 68,
                    "time": 279.84375,
                    "velocity": 0.4409448818897638,
                    "duration": 0.15625
                },
                {
                    "name": "F#3",
                    "midi": 54,
                    "time": 280,
                    "velocity": 0.44881889763779526,
                    "duration": 0.15625
                },
                {
                    "name": "F#3",
                    "midi": 54,
                    "time": 280,
                    "velocity": 0.44881889763779526,
                    "duration": 0.3125
                },
                {
                    "name": "C#4",
                    "midi": 61,
                    "time": 280.15625,
                    "velocity": 0.4566929133858268,
                    "duration": 0.15625
                },
                {
                    "name": "A4",
                    "midi": 69,
                    "time": 280.15625,
                    "velocity": 0.4566929133858268,
                    "duration": 0.15625
                },
                {
                    "name": "A3",
                    "midi": 57,
                    "time": 280.3125,
                    "velocity": 0.4645669291338583,
                    "duration": 0.15625
                },
                {
                    "name": "A3",
                    "midi": 57,
                    "time": 280.3125,
                    "velocity": 0.4645669291338583,
                    "duration": 0.625
                },
                {
                    "name": "C#4",
                    "midi": 61,
                    "time": 280.46875,
                    "velocity": 0.4645669291338583,
                    "duration": 0.15625
                },
                {
                    "name": "A4",
                    "midi": 69,
                    "time": 280.46875,
                    "velocity": 0.4645669291338583,
                    "duration": 0.15625
                },
                {
                    "name": "C#4",
                    "midi": 61,
                    "time": 280.625,
                    "velocity": 0.47244094488188976,
                    "duration": 0.15625
                },
                {
                    "name": "A4",
                    "midi": 69,
                    "time": 280.625,
                    "velocity": 0.47244094488188976,
                    "duration": 0.15625
                },
                {
                    "name": "C#4",
                    "midi": 61,
                    "time": 280.78125,
                    "velocity": 0.48031496062992124,
                    "duration": 0.15625
                },
                {
                    "name": "A4",
                    "midi": 69,
                    "time": 280.78125,
                    "velocity": 0.48031496062992124,
                    "duration": 0.15625
                },
                {
                    "name": "F#3",
                    "midi": 54,
                    "time": 280.9375,
                    "velocity": 0.4881889763779528,
                    "duration": 0.15625
                },
                {
                    "name": "F#3",
                    "midi": 54,
                    "time": 280.9375,
                    "velocity": 0.4881889763779528,
                    "duration": 0.3125
                },
                {
                    "name": "C#4",
                    "midi": 61,
                    "time": 281.09375,
                    "velocity": 0.49606299212598426,
                    "duration": 0.15625
                },
                {
                    "name": "A4",
                    "midi": 69,
                    "time": 281.09375,
                    "velocity": 0.49606299212598426,
                    "duration": 0.15625
                },
                {
                    "name": "D3",
                    "midi": 50,
                    "time": 281.25,
                    "velocity": 0.5039370078740157,
                    "duration": 0.15625
                },
                {
                    "name": "D3",
                    "midi": 50,
                    "time": 281.25,
                    "velocity": 0.5039370078740157,
                    "duration": 0.3125
                },
                {
                    "name": "B3",
                    "midi": 59,
                    "time": 281.40625,
                    "velocity": 0.5039370078740157,
                    "duration": 0.15625
                },
                {
                    "name": "F#4",
                    "midi": 66,
                    "time": 281.40625,
                    "velocity": 0.5039370078740157,
                    "duration": 0.15625
                },
                {
                    "name": "F3",
                    "midi": 53,
                    "time": 281.5625,
                    "velocity": 0.5118110236220472,
                    "duration": 0.15625
                },
                {
                    "name": "F#3",
                    "midi": 54,
                    "time": 281.5625,
                    "velocity": 0.5118110236220472,
                    "duration": 0.3125
                },
                {
                    "name": "B3",
                    "midi": 59,
                    "time": 281.71875,
                    "velocity": 0.5196850393700787,
                    "duration": 0.15625
                },
                {
                    "name": "D4",
                    "midi": 62,
                    "time": 281.71875,
                    "velocity": 0.5196850393700787,
                    "duration": 0.15625
                },
                {
                    "name": "E3",
                    "midi": 52,
                    "time": 281.875,
                    "velocity": 0.5275590551181102,
                    "duration": 0.15625
                },
                {
                    "name": "E3",
                    "midi": 52,
                    "time": 281.875,
                    "velocity": 0.5275590551181102,
                    "duration": 0.3125
                },
                {
                    "name": "B3",
                    "midi": 59,
                    "time": 282.03125,
                    "velocity": 0.5354330708661418,
                    "duration": 0.15625
                },
                {
                    "name": "E4",
                    "midi": 64,
                    "time": 282.03125,
                    "velocity": 0.5354330708661418,
                    "duration": 0.15625
                },
                {
                    "name": "G#3",
                    "midi": 56,
                    "time": 282.1875,
                    "velocity": 0.5354330708661418,
                    "duration": 0.15625
                },
                {
                    "name": "G#3",
                    "midi": 56,
                    "time": 282.1875,
                    "velocity": 0.5354330708661418,
                    "duration": 0.3125
                },
                {
                    "name": "B3",
                    "midi": 59,
                    "time": 282.34375,
                    "velocity": 0.5433070866141733,
                    "duration": 0.15625
                },
                {
                    "name": "D4",
                    "midi": 62,
                    "time": 282.34375,
                    "velocity": 0.5433070866141733,
                    "duration": 0.15625
                },
                {
                    "name": "A3",
                    "midi": 57,
                    "time": 282.5,
                    "velocity": 0.6299212598425197,
                    "duration": 0.15625
                },
                {
                    "name": "A3",
                    "midi": 57,
                    "time": 282.65625,
                    "velocity": 0.6299212598425197,
                    "duration": 0.15625
                },
                {
                    "name": "C4",
                    "midi": 60,
                    "time": 282.8125,
                    "velocity": 1,
                    "duration": 0.625
                },
                {
                    "name": "A3",
                    "midi": 57,
                    "time": 282.8125,
                    "velocity": 0.6299212598425197,
                    "duration": 0.15625
                },
                {
                    "name": "A3",
                    "midi": 57,
                    "time": 282.96875,
                    "velocity": 0.6299212598425197,
                    "duration": 0.15625
                },
                {
                    "name": "A3",
                    "midi": 57,
                    "time": 283.125,
                    "velocity": 0.6299212598425197,
                    "duration": 0.15625
                },
                {
                    "name": "G3",
                    "midi": 55,
                    "time": 283.28125,
                    "velocity": 0.6299212598425197,
                    "duration": 0.15625
                },
                {
                    "name": "D4",
                    "midi": 62,
                    "time": 283.4375,
                    "velocity": 0.6299212598425197,
                    "duration": 0.3125
                },
                {
                    "name": "F3",
                    "midi": 53,
                    "time": 283.4375,
                    "velocity": 0.6299212598425197,
                    "duration": 0.15625
                },
                {
                    "name": "E3",
                    "midi": 52,
                    "time": 283.59375,
                    "velocity": 0.6299212598425197,
                    "duration": 0.15625
                },
                {
                    "name": "G#3",
                    "midi": 56,
                    "time": 283.75,
                    "velocity": 0.6299212598425197,
                    "duration": 0.3125
                },
                {
                    "name": "D3",
                    "midi": 50,
                    "time": 283.75,
                    "velocity": 0.6299212598425197,
                    "duration": 0.625
                },
                {
                    "name": "B3",
                    "midi": 59,
                    "time": 284.0625,
                    "velocity": 0.6299212598425197,
                    "duration": 0.625
                },
                {
                    "name": "C3",
                    "midi": 48,
                    "time": 284.375,
                    "velocity": 0.6299212598425197,
                    "duration": 0.3125
                },
                {
                    "name": "A3",
                    "midi": 57,
                    "time": 284.6875,
                    "velocity": 0.6299212598425197,
                    "duration": 0.3125
                },
                {
                    "name": "D3",
                    "midi": 50,
                    "time": 284.6875,
                    "velocity": 0.6299212598425197,
                    "duration": 0.3125
                },
                {
                    "name": "G#3",
                    "midi": 56,
                    "time": 285,
                    "velocity": 0.6299212598425197,
                    "duration": 0.3125
                },
                {
                    "name": "E3",
                    "midi": 52,
                    "time": 285,
                    "velocity": 0.6299212598425197,
                    "duration": 0.3125
                },
                {
                    "name": "B3",
                    "midi": 59,
                    "time": 285.3125,
                    "velocity": 0.6299212598425197,
                    "duration": 0.3125
                },
                {
                    "name": "D3",
                    "midi": 50,
                    "time": 285.3125,
                    "velocity": 0.6299212598425197,
                    "duration": 0.3125
                },
                {
                    "name": "A3",
                    "midi": 57,
                    "time": 285.625,
                    "velocity": 0.6299212598425197,
                    "duration": 0.15625
                },
                {
                    "name": "C3",
                    "midi": 48,
                    "time": 285.625,
                    "velocity": 0.6299212598425197,
                    "duration": 0.3125
                },
                {
                    "name": "E3",
                    "midi": 52,
                    "time": 285.78125,
                    "velocity": 0.6299212598425197,
                    "duration": 0.15625
                },
                {
                    "name": "F3",
                    "midi": 53,
                    "time": 285.9375,
                    "velocity": 0.6299212598425197,
                    "duration": 0.46875
                },
                {
                    "name": "A2",
                    "midi": 45,
                    "time": 285.9375,
                    "velocity": 0.6299212598425197,
                    "duration": 0.3125
                },
                {
                    "name": "B2",
                    "midi": 47,
                    "time": 286.25,
                    "velocity": 0.6299212598425197,
                    "duration": 0.625
                },
                {
                    "name": "E3",
                    "midi": 52,
                    "time": 286.40625,
                    "velocity": 0.6299212598425197,
                    "duration": 0.15625
                },
                {
                    "name": "D3",
                    "midi": 50,
                    "time": 286.5625,
                    "velocity": 0.6299212598425197,
                    "duration": 0.15625
                },
                {
                    "name": "C3",
                    "midi": 48,
                    "time": 286.71875,
                    "velocity": 0.6299212598425197,
                    "duration": 0.15625
                },
                {
                    "name": "B2",
                    "midi": 47,
                    "time": 286.875,
                    "velocity": 0.6299212598425197,
                    "duration": 0.15625
                },
                {
                    "name": "B2",
                    "midi": 47,
                    "time": 286.875,
                    "velocity": 0.6299212598425197,
                    "duration": 0.3125
                },
                {
                    "name": "A2",
                    "midi": 45,
                    "time": 287.03125,
                    "velocity": 0.6299212598425197,
                    "duration": 0.15625
                },
                {
                    "name": "B2",
                    "midi": 47,
                    "time": 287.1875,
                    "velocity": 0.6299212598425197,
                    "duration": 0.3125
                },
                {
                    "name": "G#2",
                    "midi": 44,
                    "time": 287.1875,
                    "velocity": 0.6299212598425197,
                    "duration": 0.15625
                },
                {
                    "name": "E2",
                    "midi": 40,
                    "time": 287.34375,
                    "velocity": 0.6299212598425197,
                    "duration": 0.15625
                },
                {
                    "name": "A2",
                    "midi": 45,
                    "time": 287.5,
                    "velocity": 0.6299212598425197,
                    "duration": 0.3125
                },
                {
                    "name": "A2",
                    "midi": 45,
                    "time": 287.5,
                    "velocity": 0.6299212598425197,
                    "duration": 0.3125
                },
                {
                    "name": "G3",
                    "midi": 55,
                    "time": 287.8125,
                    "velocity": 0.6299212598425197,
                    "duration": 0.3125
                },
                {
                    "name": "F3",
                    "midi": 53,
                    "time": 288.125,
                    "velocity": 0.6299212598425197,
                    "duration": 0.3125
                },
                {
                    "name": "D3",
                    "midi": 50,
                    "time": 288.4375,
                    "velocity": 0.6299212598425197,
                    "duration": 0.3125
                },
                {
                    "name": "E3",
                    "midi": 52,
                    "time": 288.75,
                    "velocity": 0.6299212598425197,
                    "duration": 0.15625
                },
                {
                    "name": "E3",
                    "midi": 52,
                    "time": 288.90625,
                    "velocity": 0.6299212598425197,
                    "duration": 0.15625
                },
                {
                    "name": "E3",
                    "midi": 52,
                    "time": 289.0625,
                    "velocity": 0.6299212598425197,
                    "duration": 0.15625
                },
                {
                    "name": "G#2",
                    "midi": 44,
                    "time": 289.0625,
                    "velocity": 1,
                    "duration": 0.625
                },
                {
                    "name": "E3",
                    "midi": 52,
                    "time": 289.21875,
                    "velocity": 0.6299212598425197,
                    "duration": 0.15625
                },
                {
                    "name": "E3",
                    "midi": 52,
                    "time": 289.375,
                    "velocity": 0.6299212598425197,
                    "duration": 0.15625
                },
                {
                    "name": "D3",
                    "midi": 50,
                    "time": 289.53125,
                    "velocity": 0.6299212598425197,
                    "duration": 0.15625
                },
                {
                    "name": "C3",
                    "midi": 48,
                    "time": 289.6875,
                    "velocity": 0.6299212598425197,
                    "duration": 0.15625
                },
                {
                    "name": "A2",
                    "midi": 45,
                    "time": 289.6875,
                    "velocity": 0.6299212598425197,
                    "duration": 0.3125
                },
                {
                    "name": "B2",
                    "midi": 47,
                    "time": 289.84375,
                    "velocity": 0.6299212598425197,
                    "duration": 0.15625
                },
                {
                    "name": "A2",
                    "midi": 45,
                    "time": 290,
                    "velocity": 0.6299212598425197,
                    "duration": 0.625
                },
                {
                    "name": "D2",
                    "midi": 38,
                    "time": 290,
                    "velocity": 0.6299212598425197,
                    "duration": 0.3125
                },
                {
                    "name": "F2",
                    "midi": 41,
                    "time": 290.3125,
                    "velocity": 0.6299212598425197,
                    "duration": 0.46875
                },
                {
                    "name": "B2",
                    "midi": 47,
                    "time": 290.625,
                    "velocity": 0.6299212598425197,
                    "duration": 0.625
                },
                {
                    "name": "E2",
                    "midi": 40,
                    "time": 290.78125,
                    "velocity": 0.6299212598425197,
                    "duration": 0.15625
                },
                {
                    "name": "F#2",
                    "midi": 42,
                    "time": 290.9375,
                    "velocity": 0.6299212598425197,
                    "duration": 0.15625
                },
                {
                    "name": "G#2",
                    "midi": 44,
                    "time": 291.09375,
                    "velocity": 0.6299212598425197,
                    "duration": 0.15625
                },
                {
                    "name": "A2",
                    "midi": 45,
                    "time": 291.25,
                    "velocity": 0.6299212598425197,
                    "duration": 0.15625
                },
                {
                    "name": "A2",
                    "midi": 45,
                    "time": 291.25,
                    "velocity": 0.6299212598425197,
                    "duration": 0.3125
                },
                {
                    "name": "A3",
                    "midi": 57,
                    "time": 291.40625,
                    "velocity": 0.6299212598425197,
                    "duration": 0.15625
                },
                {
                    "name": "A3",
                    "midi": 57,
                    "time": 291.5625,
                    "velocity": 0.6299212598425197,
                    "duration": 0.15625
                },
                {
                    "name": "G2",
                    "midi": 43,
                    "time": 291.5625,
                    "velocity": 0.6299212598425197,
                    "duration": 0.3125
                },
                {
                    "name": "A3",
                    "midi": 57,
                    "time": 291.71875,
                    "velocity": 0.6299212598425197,
                    "duration": 0.15625
                },
                {
                    "name": "A3",
                    "midi": 57,
                    "time": 291.875,
                    "velocity": 0.6299212598425197,
                    "duration": 0.15625
                },
                {
                    "name": "F2",
                    "midi": 41,
                    "time": 291.875,
                    "velocity": 0.6299212598425197,
                    "duration": 0.3125
                },
                {
                    "name": "G3",
                    "midi": 55,
                    "time": 292.03125,
                    "velocity": 0.6299212598425197,
                    "duration": 0.15625
                },
                {
                    "name": "F3",
                    "midi": 53,
                    "time": 292.1875,
                    "velocity": 0.6299212598425197,
                    "duration": 0.15625
                },
                {
                    "name": "A#2",
                    "midi": 46,
                    "time": 292.1875,
                    "velocity": 0.6299212598425197,
                    "duration": 0.3125
                },
                {
                    "name": "E3",
                    "midi": 52,
                    "time": 292.34375,
                    "velocity": 0.6299212598425197,
                    "duration": 0.15625
                },
                {
                    "name": "D3",
                    "midi": 50,
                    "time": 292.5,
                    "velocity": 0.6299212598425197,
                    "duration": 0.3125
                },
                {
                    "name": "G3",
                    "midi": 55,
                    "time": 292.5,
                    "velocity": 0.6299212598425197,
                    "duration": 0.3125
                },
                {
                    "name": "A#2",
                    "midi": 46,
                    "time": 292.5,
                    "velocity": 0.6299212598425197,
                    "duration": 0.3125
                },
                {
                    "name": "A#3",
                    "midi": 58,
                    "time": 292.8125,
                    "velocity": 0.6299212598425197,
                    "duration": 0.625
                },
                {
                    "name": "G2",
                    "midi": 43,
                    "time": 292.8125,
                    "velocity": 0.6299212598425197,
                    "duration": 0.3125
                },
                {
                    "name": "C#3",
                    "midi": 49,
                    "time": 293.125,
                    "velocity": 0.6299212598425197,
                    "duration": 0.3125
                },
                {
                    "name": "A2",
                    "midi": 45,
                    "time": 293.125,
                    "velocity": 0.6299212598425197,
                    "duration": 1.25
                },
                {
                    "name": "G3",
                    "midi": 55,
                    "time": 293.4375,
                    "velocity": 0.6299212598425197,
                    "duration": 0.3125
                },
                {
                    "name": "A3",
                    "midi": 57,
                    "time": 293.4375,
                    "velocity": 0.6299212598425197,
                    "duration": 0.3125
                },
                {
                    "name": "F3",
                    "midi": 53,
                    "time": 293.75,
                    "velocity": 0.6299212598425197,
                    "duration": 0.15625
                },
                {
                    "name": "A3",
                    "midi": 57,
                    "time": 293.75,
                    "velocity": 0.6299212598425197,
                    "duration": 0.15625
                },
                {
                    "name": "E3",
                    "midi": 52,
                    "time": 293.90625,
                    "velocity": 0.6299212598425197,
                    "duration": 0.15625
                },
                {
                    "name": "A3",
                    "midi": 57,
                    "time": 293.90625,
                    "velocity": 0.6299212598425197,
                    "duration": 0.15625
                },
                {
                    "name": "D3",
                    "midi": 50,
                    "time": 294.0625,
                    "velocity": 0.6377952755905512,
                    "duration": 0.15625
                },
                {
                    "name": "A3",
                    "midi": 57,
                    "time": 294.0625,
                    "velocity": 0.6377952755905512,
                    "duration": 0.15625
                },
                {
                    "name": "C3",
                    "midi": 48,
                    "time": 294.21875,
                    "velocity": 0.6377952755905512,
                    "duration": 0.15625
                },
                {
                    "name": "A3",
                    "midi": 57,
                    "time": 294.21875,
                    "velocity": 0.6377952755905512,
                    "duration": 0.15625
                },
                {
                    "name": "B2",
                    "midi": 47,
                    "time": 294.375,
                    "velocity": 0.6456692913385826,
                    "duration": 0.15625
                },
                {
                    "name": "A3",
                    "midi": 57,
                    "time": 294.375,
                    "velocity": 0.6456692913385826,
                    "duration": 0.15625
                },
                {
                    "name": "B2",
                    "midi": 47,
                    "time": 294.375,
                    "velocity": 0.6456692913385826,
                    "duration": 0.625
                },
                {
                    "name": "G#3",
                    "midi": 56,
                    "time": 294.53125,
                    "velocity": 0.6456692913385826,
                    "duration": 0.15625
                },
                {
                    "name": "F#3",
                    "midi": 54,
                    "time": 294.6875,
                    "velocity": 0.6535433070866141,
                    "duration": 0.15625
                },
                {
                    "name": "D3",
                    "midi": 50,
                    "time": 294.6875,
                    "velocity": 0.6535433070866141,
                    "duration": 0.3125
                },
                {
                    "name": "E3",
                    "midi": 52,
                    "time": 294.84375,
                    "velocity": 0.6535433070866141,
                    "duration": 0.15625
                },
                {
                    "name": "A3",
                    "midi": 57,
                    "time": 295,
                    "velocity": 0.6535433070866141,
                    "duration": 0.3125
                },
                {
                    "name": "C3",
                    "midi": 48,
                    "time": 295,
                    "velocity": 0.6535433070866141,
                    "duration": 0.3125
                },
                {
                    "name": "E3",
                    "midi": 52,
                    "time": 295,
                    "velocity": 0.6535433070866141,
                    "duration": 0.3125
                },
                {
                    "name": "A#3",
                    "midi": 58,
                    "time": 295.3125,
                    "velocity": 0.6614173228346457,
                    "duration": 0.625
                },
                {
                    "name": "C#3",
                    "midi": 49,
                    "time": 295.3125,
                    "velocity": 0.6614173228346457,
                    "duration": 0.3125
                },
                {
                    "name": "D3",
                    "midi": 50,
                    "time": 295.625,
                    "velocity": 0.6692913385826772,
                    "duration": 0.3125
                },
                {
                    "name": "A3",
                    "midi": 57,
                    "time": 295.9375,
                    "velocity": 0.6771653543307087,
                    "duration": 0.3125
                },
                {
                    "name": "D#3",
                    "midi": 51,
                    "time": 295.9375,
                    "velocity": 0.6771653543307087,
                    "duration": 0.3125
                },
                {
                    "name": "E3",
                    "midi": 52,
                    "time": 296.25,
                    "velocity": 0.7086614173228346,
                    "duration": 0.15625
                },
                {
                    "name": "G#3",
                    "midi": 56,
                    "time": 296.25,
                    "velocity": 0.7086614173228346,
                    "duration": 0.15625
                },
                {
                    "name": "E3",
                    "midi": 52,
                    "time": 296.40625,
                    "velocity": 0.7165354330708661,
                    "duration": 0.15625
                },
                {
                    "name": "E4",
                    "midi": 64,
                    "time": 296.40625,
                    "velocity": 0.7165354330708661,
                    "duration": 0.15625
                },
                {
                    "name": "E3",
                    "midi": 52,
                    "time": 296.5625,
                    "velocity": 0.7165354330708661,
                    "duration": 0.15625
                },
                {
                    "name": "E4",
                    "midi": 64,
                    "time": 296.5625,
                    "velocity": 0.7165354330708661,
                    "duration": 0.15625
                },
                {
                    "name": "E3",
                    "midi": 52,
                    "time": 296.71875,
                    "velocity": 0.7244094488188977,
                    "duration": 0.15625
                },
                {
                    "name": "E4",
                    "midi": 64,
                    "time": 296.71875,
                    "velocity": 0.7244094488188977,
                    "duration": 0.15625
                },
                {
                    "name": "E3",
                    "midi": 52,
                    "time": 296.875,
                    "velocity": 0.7244094488188977,
                    "duration": 0.15625
                },
                {
                    "name": "E4",
                    "midi": 64,
                    "time": 296.875,
                    "velocity": 0.7244094488188977,
                    "duration": 0.15625
                },
                {
                    "name": "D3",
                    "midi": 50,
                    "time": 297.03125,
                    "velocity": 0.7322834645669292,
                    "duration": 0.15625
                },
                {
                    "name": "D4",
                    "midi": 62,
                    "time": 297.03125,
                    "velocity": 0.7322834645669292,
                    "duration": 0.15625
                },
                {
                    "name": "C3",
                    "midi": 48,
                    "time": 297.1875,
                    "velocity": 0.7322834645669292,
                    "duration": 0.15625
                },
                {
                    "name": "C4",
                    "midi": 60,
                    "time": 297.1875,
                    "velocity": 0.7322834645669292,
                    "duration": 0.15625
                },
                {
                    "name": "B2",
                    "midi": 47,
                    "time": 297.34375,
                    "velocity": 0.7401574803149606,
                    "duration": 0.15625
                },
                {
                    "name": "B3",
                    "midi": 59,
                    "time": 297.34375,
                    "velocity": 0.7401574803149606,
                    "duration": 0.15625
                },
                {
                    "name": "A2",
                    "midi": 45,
                    "time": 297.5,
                    "velocity": 0.7401574803149606,
                    "duration": 0.15625
                },
                {
                    "name": "A3",
                    "midi": 57,
                    "time": 297.5,
                    "velocity": 0.7401574803149606,
                    "duration": 0.15625
                },
                {
                    "name": "G2",
                    "midi": 43,
                    "time": 297.65625,
                    "velocity": 0.7480314960629921,
                    "duration": 0.15625
                },
                {
                    "name": "G3",
                    "midi": 55,
                    "time": 297.65625,
                    "velocity": 0.7480314960629921,
                    "duration": 0.15625
                },
                {
                    "name": "F2",
                    "midi": 41,
                    "time": 297.8125,
                    "velocity": 0.7480314960629921,
                    "duration": 0.15625
                },
                {
                    "name": "F3",
                    "midi": 53,
                    "time": 297.8125,
                    "velocity": 0.7480314960629921,
                    "duration": 0.15625
                },
                {
                    "name": "E2",
                    "midi": 40,
                    "time": 297.96875,
                    "velocity": 0.7559055118110236,
                    "duration": 0.15625
                },
                {
                    "name": "E3",
                    "midi": 52,
                    "time": 297.96875,
                    "velocity": 0.7559055118110236,
                    "duration": 0.15625
                },
                {
                    "name": "D2",
                    "midi": 38,
                    "time": 298.125,
                    "velocity": 0.7559055118110236,
                    "duration": 0.15625
                },
                {
                    "name": "D3",
                    "midi": 50,
                    "time": 298.125,
                    "velocity": 0.7559055118110236,
                    "duration": 0.15625
                },
                {
                    "name": "C2",
                    "midi": 36,
                    "time": 298.28125,
                    "velocity": 0.7637795275590551,
                    "duration": 0.15625
                },
                {
                    "name": "C3",
                    "midi": 48,
                    "time": 298.28125,
                    "velocity": 0.7637795275590551,
                    "duration": 0.15625
                },
                {
                    "name": "B1",
                    "midi": 35,
                    "time": 298.4375,
                    "velocity": 0.7716535433070866,
                    "duration": 0.15625
                },
                {
                    "name": "B2",
                    "midi": 47,
                    "time": 298.4375,
                    "velocity": 0.7716535433070866,
                    "duration": 0.15625
                },
                {
                    "name": "A1",
                    "midi": 33,
                    "time": 298.59375,
                    "velocity": 0.7716535433070866,
                    "duration": 0.15625
                },
                {
                    "name": "A2",
                    "midi": 45,
                    "time": 298.59375,
                    "velocity": 0.7716535433070866,
                    "duration": 0.15625
                },
                {
                    "name": "G1",
                    "midi": 31,
                    "time": 298.75,
                    "velocity": 0.7795275590551181,
                    "duration": 1.875
                },
                {
                    "name": "G2",
                    "midi": 43,
                    "time": 298.75,
                    "velocity": 0.7795275590551181,
                    "duration": 1.875
                },
                {
                    "name": "B3",
                    "midi": 59,
                    "time": 299.0625,
                    "velocity": 0.7874015748031497,
                    "duration": 0.15625
                },
                {
                    "name": "C#4",
                    "midi": 61,
                    "time": 299.21875,
                    "velocity": 0.7874015748031497,
                    "duration": 0.15625
                },
                {
                    "name": "D4",
                    "midi": 62,
                    "time": 299.375,
                    "velocity": 0.7952755905511811,
                    "duration": 0.15625
                },
                {
                    "name": "E4",
                    "midi": 64,
                    "time": 299.53125,
                    "velocity": 0.7952755905511811,
                    "duration": 0.15625
                },
                {
                    "name": "F4",
                    "midi": 65,
                    "time": 299.6875,
                    "velocity": 0.8031496062992126,
                    "duration": 0.15625
                },
                {
                    "name": "F#4",
                    "midi": 66,
                    "time": 299.84375,
                    "velocity": 0.8031496062992126,
                    "duration": 0.15625
                },
                {
                    "name": "G4",
                    "midi": 67,
                    "time": 300,
                    "velocity": 0.8110236220472441,
                    "duration": 0.15625
                },
                {
                    "name": "G3",
                    "midi": 55,
                    "time": 300,
                    "velocity": 0.8110236220472441,
                    "duration": 0.3125
                },
                {
                    "name": "F4",
                    "midi": 65,
                    "time": 300.15625,
                    "velocity": 0.8110236220472441,
                    "duration": 0.15625
                },
                {
                    "name": "E4",
                    "midi": 64,
                    "time": 300.3125,
                    "velocity": 0.8188976377952756,
                    "duration": 0.15625
                },
                {
                    "name": "B3",
                    "midi": 59,
                    "time": 300.3125,
                    "velocity": 0.8188976377952756,
                    "duration": 0.3125
                },
                {
                    "name": "D4",
                    "midi": 62,
                    "time": 300.46875,
                    "velocity": 0.8188976377952756,
                    "duration": 0.15625
                },
                {
                    "name": "C4",
                    "midi": 60,
                    "time": 300.625,
                    "velocity": 0.8267716535433071,
                    "duration": 0.15625
                },
                {
                    "name": "B3",
                    "midi": 59,
                    "time": 300.78125,
                    "velocity": 0.8346456692913385,
                    "duration": 0.15625
                },
                {
                    "name": "A3",
                    "midi": 57,
                    "time": 300.9375,
                    "velocity": 0.8346456692913385,
                    "duration": 0.15625
                },
                {
                    "name": "G3",
                    "midi": 55,
                    "time": 301.09375,
                    "velocity": 0.84251968503937,
                    "duration": 0.15625
                },
                {
                    "name": "F3",
                    "midi": 53,
                    "time": 301.25,
                    "velocity": 0.84251968503937,
                    "duration": 0.15625
                },
                {
                    "name": "G2",
                    "midi": 43,
                    "time": 301.25,
                    "velocity": 0.84251968503937,
                    "duration": 0.3125
                },
                {
                    "name": "G3",
                    "midi": 55,
                    "time": 301.40625,
                    "velocity": 0.8503937007874016,
                    "duration": 0.15625
                },
                {
                    "name": "G#3",
                    "midi": 56,
                    "time": 301.5625,
                    "velocity": 0.8503937007874016,
                    "duration": 0.15625
                },
                {
                    "name": "D3",
                    "midi": 50,
                    "time": 301.5625,
                    "velocity": 0.8503937007874016,
                    "duration": 0.3125
                },
                {
                    "name": "A3",
                    "midi": 57,
                    "time": 301.71875,
                    "velocity": 0.8582677165354331,
                    "duration": 0.15625
                },
                {
                    "name": "B3",
                    "midi": 59,
                    "time": 301.875,
                    "velocity": 0.8582677165354331,
                    "duration": 0.15625
                },
                {
                    "name": "C4",
                    "midi": 60,
                    "time": 302.03125,
                    "velocity": 0.8661417322834646,
                    "duration": 0.15625
                },
                {
                    "name": "D4",
                    "midi": 62,
                    "time": 302.1875,
                    "velocity": 0.8661417322834646,
                    "duration": 0.15625
                },
                {
                    "name": "D#4",
                    "midi": 63,
                    "time": 302.34375,
                    "velocity": 0.8740157480314961,
                    "duration": 0.15625
                },
                {
                    "name": "E4",
                    "midi": 64,
                    "time": 302.5,
                    "velocity": 0.8740157480314961,
                    "duration": 0.15625
                },
                {
                    "name": "G3",
                    "midi": 55,
                    "time": 302.5,
                    "velocity": 0.8740157480314961,
                    "duration": 0.3125
                },
                {
                    "name": "D4",
                    "midi": 62,
                    "time": 302.65625,
                    "velocity": 0.8818897637795275,
                    "duration": 0.15625
                },
                {
                    "name": "C4",
                    "midi": 60,
                    "time": 302.8125,
                    "velocity": 0.889763779527559,
                    "duration": 0.15625
                },
                {
                    "name": "C4",
                    "midi": 60,
                    "time": 302.8125,
                    "velocity": 0.889763779527559,
                    "duration": 0.3125
                },
                {
                    "name": "B3",
                    "midi": 59,
                    "time": 302.96875,
                    "velocity": 0.889763779527559,
                    "duration": 0.15625
                },
                {
                    "name": "A3",
                    "midi": 57,
                    "time": 303.125,
                    "velocity": 0.8976377952755905,
                    "duration": 0.15625
                },
                {
                    "name": "G3",
                    "midi": 55,
                    "time": 303.28125,
                    "velocity": 0.8976377952755905,
                    "duration": 0.15625
                },
                {
                    "name": "F3",
                    "midi": 53,
                    "time": 303.4375,
                    "velocity": 0.905511811023622,
                    "duration": 0.15625
                },
                {
                    "name": "E3",
                    "midi": 52,
                    "time": 303.59375,
                    "velocity": 0.905511811023622,
                    "duration": 0.15625
                },
                {
                    "name": "D3",
                    "midi": 50,
                    "time": 303.75,
                    "velocity": 0.9133858267716536,
                    "duration": 0.15625
                },
                {
                    "name": "C3",
                    "midi": 48,
                    "time": 303.90625,
                    "velocity": 0.9133858267716536,
                    "duration": 0.15625
                },
                {
                    "name": "B2",
                    "midi": 47,
                    "time": 304.0625,
                    "velocity": 0.9212598425196851,
                    "duration": 0.15625
                },
                {
                    "name": "A2",
                    "midi": 45,
                    "time": 304.21875,
                    "velocity": 0.9212598425196851,
                    "duration": 0.15625
                },
                {
                    "name": "G2",
                    "midi": 43,
                    "time": 304.375,
                    "velocity": 0.9291338582677166,
                    "duration": 0.15625
                },
                {
                    "name": "F2",
                    "midi": 41,
                    "time": 304.53125,
                    "velocity": 0.9291338582677166,
                    "duration": 0.15625
                },
                {
                    "name": "F3",
                    "midi": 53,
                    "time": 304.53125,
                    "velocity": 0.9291338582677166,
                    "duration": 0.15625
                },
                {
                    "name": "E2",
                    "midi": 40,
                    "time": 304.6875,
                    "velocity": 0.937007874015748,
                    "duration": 0.15625
                },
                {
                    "name": "E3",
                    "midi": 52,
                    "time": 304.6875,
                    "velocity": 0.937007874015748,
                    "duration": 0.15625
                },
                {
                    "name": "D2",
                    "midi": 38,
                    "time": 304.84375,
                    "velocity": 0.937007874015748,
                    "duration": 0.15625
                },
                {
                    "name": "D3",
                    "midi": 50,
                    "time": 304.84375,
                    "velocity": 0.937007874015748,
                    "duration": 0.15625
                },
                {
                    "name": "D2",
                    "midi": 38,
                    "time": 305,
                    "velocity": 0.9448818897637795,
                    "duration": 0.3125
                },
                {
                    "name": "D3",
                    "midi": 50,
                    "time": 305,
                    "velocity": 0.9448818897637795,
                    "duration": 0.3125
                },
                {
                    "name": "D3",
                    "midi": 50,
                    "time": 305.3125,
                    "velocity": 0.968503937007874,
                    "duration": 0.625
                },
                {
                    "name": "G3",
                    "midi": 55,
                    "time": 305.3125,
                    "velocity": 0.968503937007874,
                    "duration": 0.625
                },
                {
                    "name": "D4",
                    "midi": 62,
                    "time": 305.3125,
                    "velocity": 0.968503937007874,
                    "duration": 0.625
                },
                {
                    "name": "D3",
                    "midi": 50,
                    "time": 305.9375,
                    "velocity": 1,
                    "duration": 0.625
                },
                {
                    "name": "G3",
                    "midi": 55,
                    "time": 305.9375,
                    "velocity": 1,
                    "duration": 0.625
                },
                {
                    "name": "D4",
                    "midi": 62,
                    "time": 305.9375,
                    "velocity": 1,
                    "duration": 0.625
                },
                {
                    "name": "D3",
                    "midi": 50,
                    "time": 306.5625,
                    "velocity": 1,
                    "duration": 0.625
                },
                {
                    "name": "G3",
                    "midi": 55,
                    "time": 306.5625,
                    "velocity": 1,
                    "duration": 0.625
                },
                {
                    "name": "D4",
                    "midi": 62,
                    "time": 306.5625,
                    "velocity": 1,
                    "duration": 0.625
                },
                {
                    "name": "D3",
                    "midi": 50,
                    "time": 307.1875,
                    "velocity": 1,
                    "duration": 0.3125
                },
                {
                    "name": "G3",
                    "midi": 55,
                    "time": 307.1875,
                    "velocity": 1,
                    "duration": 0.3125
                },
                {
                    "name": "D4",
                    "midi": 62,
                    "time": 307.1875,
                    "velocity": 1,
                    "duration": 0.3125
                },
                {
                    "name": "G1",
                    "midi": 31,
                    "time": 307.5,
                    "velocity": 1,
                    "duration": 0.3125
                },
                {
                    "name": "G2",
                    "midi": 43,
                    "time": 307.5,
                    "velocity": 1,
                    "duration": 0.3125
                },
                {
                    "name": "D3",
                    "midi": 50,
                    "time": 307.8125,
                    "velocity": 1,
                    "duration": 0.625
                },
                {
                    "name": "G3",
                    "midi": 55,
                    "time": 307.8125,
                    "velocity": 1,
                    "duration": 0.7501220703125
                },
                {
                    "name": "D4",
                    "midi": 62,
                    "time": 307.8125,
                    "velocity": 1,
                    "duration": 0.625
                },
                {
                    "name": "C3",
                    "midi": 48,
                    "time": 308.4375,
                    "velocity": 1,
                    "duration": 0.1251220703125
                },
                {
                    "name": "C4",
                    "midi": 60,
                    "time": 308.4375,
                    "velocity": 1,
                    "duration": 0.1251220703125
                },
                {
                    "name": "A2",
                    "midi": 45,
                    "time": 308.75,
                    "velocity": 1,
                    "duration": 0.3125
                },
                {
                    "name": "D3",
                    "midi": 50,
                    "time": 308.75,
                    "velocity": 1,
                    "duration": 0.3125
                },
                {
                    "name": "A3",
                    "midi": 57,
                    "time": 308.75,
                    "velocity": 1,
                    "duration": 0.3125
                },
                {
                    "name": "F#2",
                    "midi": 42,
                    "time": 309.0625,
                    "velocity": 1,
                    "duration": 0.625
                },
                {
                    "name": "D3",
                    "midi": 50,
                    "time": 309.0625,
                    "velocity": 1,
                    "duration": 0.7501220703125
                },
                {
                    "name": "F#3",
                    "midi": 54,
                    "time": 309.0625,
                    "velocity": 1,
                    "duration": 0.625
                },
                {
                    "name": "G2",
                    "midi": 43,
                    "time": 309.6875,
                    "velocity": 1,
                    "duration": 0.1251220703125
                },
                {
                    "name": "G3",
                    "midi": 55,
                    "time": 309.6875,
                    "velocity": 1,
                    "duration": 0.1251220703125
                },
                {
                    "name": "C4",
                    "midi": 60,
                    "time": 310,
                    "velocity": 0.31496062992125984,
                    "duration": 0.15625
                },
                {
                    "name": "C3",
                    "midi": 48,
                    "time": 310,
                    "velocity": 0.31496062992125984,
                    "duration": 0.3125
                },
                {
                    "name": "G3",
                    "midi": 55,
                    "time": 310.15625,
                    "velocity": 0.31496062992125984,
                    "duration": 0.15625
                },
                {
                    "name": "C4",
                    "midi": 60,
                    "time": 310.3125,
                    "velocity": 0.31496062992125984,
                    "duration": 0.15625
                },
                {
                    "name": "C3",
                    "midi": 48,
                    "time": 310.3125,
                    "velocity": 0.4645669291338583,
                    "duration": 0.625
                },
                {
                    "name": "G3",
                    "midi": 55,
                    "time": 310.46875,
                    "velocity": 0.31496062992125984,
                    "duration": 0.15625
                },
                {
                    "name": "C4",
                    "midi": 60,
                    "time": 310.625,
                    "velocity": 0.31496062992125984,
                    "duration": 0.15625
                },
                {
                    "name": "G3",
                    "midi": 55,
                    "time": 310.78125,
                    "velocity": 0.31496062992125984,
                    "duration": 0.15625
                },
                {
                    "name": "C4",
                    "midi": 60,
                    "time": 310.9375,
                    "velocity": 0.31496062992125984,
                    "duration": 0.15625
                },
                {
                    "name": "C3",
                    "midi": 48,
                    "time": 310.9375,
                    "velocity": 0.31496062992125984,
                    "duration": 0.3125
                },
                {
                    "name": "G3",
                    "midi": 55,
                    "time": 311.09375,
                    "velocity": 0.31496062992125984,
                    "duration": 0.15625
                },
                {
                    "name": "D4",
                    "midi": 62,
                    "time": 311.25,
                    "velocity": 0.31496062992125984,
                    "duration": 0.15625
                },
                {
                    "name": "C3",
                    "midi": 48,
                    "time": 311.25,
                    "velocity": 0.31496062992125984,
                    "duration": 0.3125
                },
                {
                    "name": "G#3",
                    "midi": 56,
                    "time": 311.40625,
                    "velocity": 0.31496062992125984,
                    "duration": 0.15625
                },
                {
                    "name": "D4",
                    "midi": 62,
                    "time": 311.5625,
                    "velocity": 0.31496062992125984,
                    "duration": 0.15625
                },
                {
                    "name": "C3",
                    "midi": 48,
                    "time": 311.5625,
                    "velocity": 0.4645669291338583,
                    "duration": 0.625
                },
                {
                    "name": "G#3",
                    "midi": 56,
                    "time": 311.71875,
                    "velocity": 0.31496062992125984,
                    "duration": 0.15625
                },
                {
                    "name": "D4",
                    "midi": 62,
                    "time": 311.875,
                    "velocity": 0.31496062992125984,
                    "duration": 0.15625
                },
                {
                    "name": "G#3",
                    "midi": 56,
                    "time": 312.03125,
                    "velocity": 0.31496062992125984,
                    "duration": 0.15625
                },
                {
                    "name": "D4",
                    "midi": 62,
                    "time": 312.1875,
                    "velocity": 0.31496062992125984,
                    "duration": 0.15625
                },
                {
                    "name": "C3",
                    "midi": 48,
                    "time": 312.1875,
                    "velocity": 0.31496062992125984,
                    "duration": 0.3125
                },
                {
                    "name": "G3",
                    "midi": 55,
                    "time": 312.34375,
                    "velocity": 0.31496062992125984,
                    "duration": 0.15625
                },
                {
                    "name": "C4",
                    "midi": 60,
                    "time": 312.5,
                    "velocity": 0.31496062992125984,
                    "duration": 0.15625
                },
                {
                    "name": "C3",
                    "midi": 48,
                    "time": 312.5,
                    "velocity": 0.31496062992125984,
                    "duration": 0.3125
                },
                {
                    "name": "G3",
                    "midi": 55,
                    "time": 312.65625,
                    "velocity": 0.31496062992125984,
                    "duration": 0.15625
                },
                {
                    "name": "C4",
                    "midi": 60,
                    "time": 312.8125,
                    "velocity": 0.31496062992125984,
                    "duration": 0.15625
                },
                {
                    "name": "C3",
                    "midi": 48,
                    "time": 312.8125,
                    "velocity": 0.4645669291338583,
                    "duration": 0.625
                },
                {
                    "name": "G3",
                    "midi": 55,
                    "time": 312.96875,
                    "velocity": 0.31496062992125984,
                    "duration": 0.15625
                },
                {
                    "name": "C4",
                    "midi": 60,
                    "time": 313.125,
                    "velocity": 0.31496062992125984,
                    "duration": 0.15625
                },
                {
                    "name": "G3",
                    "midi": 55,
                    "time": 313.28125,
                    "velocity": 0.31496062992125984,
                    "duration": 0.15625
                },
                {
                    "name": "C4",
                    "midi": 60,
                    "time": 313.4375,
                    "velocity": 0.31496062992125984,
                    "duration": 0.15625
                },
                {
                    "name": "C3",
                    "midi": 48,
                    "time": 313.4375,
                    "velocity": 0.31496062992125984,
                    "duration": 0.3125
                },
                {
                    "name": "G3",
                    "midi": 55,
                    "time": 313.59375,
                    "velocity": 0.31496062992125984,
                    "duration": 0.15625
                },
                {
                    "name": "D4",
                    "midi": 62,
                    "time": 313.75,
                    "velocity": 0.31496062992125984,
                    "duration": 0.15625
                },
                {
                    "name": "C3",
                    "midi": 48,
                    "time": 313.75,
                    "velocity": 0.31496062992125984,
                    "duration": 0.3125
                },
                {
                    "name": "G#3",
                    "midi": 56,
                    "time": 313.90625,
                    "velocity": 0.31496062992125984,
                    "duration": 0.15625
                },
                {
                    "name": "D4",
                    "midi": 62,
                    "time": 314.0625,
                    "velocity": 0.31496062992125984,
                    "duration": 0.15625
                },
                {
                    "name": "C3",
                    "midi": 48,
                    "time": 314.0625,
                    "velocity": 0.4645669291338583,
                    "duration": 0.625
                },
                {
                    "name": "G#3",
                    "midi": 56,
                    "time": 314.21875,
                    "velocity": 0.31496062992125984,
                    "duration": 0.15625
                },
                {
                    "name": "D4",
                    "midi": 62,
                    "time": 314.375,
                    "velocity": 0.31496062992125984,
                    "duration": 0.15625
                },
                {
                    "name": "G#3",
                    "midi": 56,
                    "time": 314.53125,
                    "velocity": 0.31496062992125984,
                    "duration": 0.15625
                },
                {
                    "name": "D4",
                    "midi": 62,
                    "time": 314.6875,
                    "velocity": 0.31496062992125984,
                    "duration": 0.15625
                },
                {
                    "name": "C3",
                    "midi": 48,
                    "time": 314.6875,
                    "velocity": 0.31496062992125984,
                    "duration": 0.3125
                },
                {
                    "name": "G3",
                    "midi": 55,
                    "time": 314.84375,
                    "velocity": 0.31496062992125984,
                    "duration": 0.15625
                },
                {
                    "name": "C3",
                    "midi": 48,
                    "time": 315,
                    "velocity": 0.31496062992125984,
                    "duration": 0.3125
                },
                {
                    "name": "C4",
                    "midi": 60,
                    "time": 315,
                    "velocity": 0.31496062992125984,
                    "duration": 0.15625
                },
                {
                    "name": "G3",
                    "midi": 55,
                    "time": 315.15625,
                    "velocity": 0.31496062992125984,
                    "duration": 0.15625
                },
                {
                    "name": "C3",
                    "midi": 48,
                    "time": 315.3125,
                    "velocity": 0.4645669291338583,
                    "duration": 0.625
                },
                {
                    "name": "C4",
                    "midi": 60,
                    "time": 315.3125,
                    "velocity": 0.31496062992125984,
                    "duration": 0.15625
                },
                {
                    "name": "G3",
                    "midi": 55,
                    "time": 315.46875,
                    "velocity": 0.31496062992125984,
                    "duration": 0.15625
                },
                {
                    "name": "C4",
                    "midi": 60,
                    "time": 315.625,
                    "velocity": 0.31496062992125984,
                    "duration": 0.15625
                },
                {
                    "name": "G3",
                    "midi": 55,
                    "time": 315.78125,
                    "velocity": 0.31496062992125984,
                    "duration": 0.15625
                },
                {
                    "name": "A#2",
                    "midi": 46,
                    "time": 315.9375,
                    "velocity": 0.31496062992125984,
                    "duration": 0.3125
                },
                {
                    "name": "C4",
                    "midi": 60,
                    "time": 315.9375,
                    "velocity": 0.31496062992125984,
                    "duration": 0.15625
                },
                {
                    "name": "E3",
                    "midi": 52,
                    "time": 316.09375,
                    "velocity": 0.31496062992125984,
                    "duration": 0.15625
                },
                {
                    "name": "C4",
                    "midi": 60,
                    "time": 316.25,
                    "velocity": 0.3937007874015748,
                    "duration": 0.15625
                },
                {
                    "name": "A2",
                    "midi": 45,
                    "time": 316.25,
                    "velocity": 0.3937007874015748,
                    "duration": 0.3125
                },
                {
                    "name": "F3",
                    "midi": 53,
                    "time": 316.40625,
                    "velocity": 0.3937007874015748,
                    "duration": 0.15625
                },
                {
                    "name": "C4",
                    "midi": 60,
                    "time": 316.5625,
                    "velocity": 0.3937007874015748,
                    "duration": 0.15625
                },
                {
                    "name": "A2",
                    "midi": 45,
                    "time": 316.5625,
                    "velocity": 0.5433070866141733,
                    "duration": 0.625
                },
                {
                    "name": "F3",
                    "midi": 53,
                    "time": 316.71875,
                    "velocity": 0.3937007874015748,
                    "duration": 0.15625
                },
                {
                    "name": "C4",
                    "midi": 60,
                    "time": 316.875,
                    "velocity": 0.3937007874015748,
                    "duration": 0.15625
                },
                {
                    "name": "F3",
                    "midi": 53,
                    "time": 317.03125,
                    "velocity": 0.3937007874015748,
                    "duration": 0.15625
                },
                {
                    "name": "G3",
                    "midi": 55,
                    "time": 317.1875,
                    "velocity": 0.3937007874015748,
                    "duration": 0.15625
                },
                {
                    "name": "G2",
                    "midi": 43,
                    "time": 317.1875,
                    "velocity": 0.3937007874015748,
                    "duration": 0.3125
                },
                {
                    "name": "E3",
                    "midi": 52,
                    "time": 317.34375,
                    "velocity": 0.3937007874015748,
                    "duration": 0.15625
                },
                {
                    "name": "A3",
                    "midi": 57,
                    "time": 317.5,
                    "velocity": 0.3937007874015748,
                    "duration": 0.15625
                },
                {
                    "name": "F2",
                    "midi": 41,
                    "time": 317.5,
                    "velocity": 0.3937007874015748,
                    "duration": 0.3125
                },
                {
                    "name": "D3",
                    "midi": 50,
                    "time": 317.65625,
                    "velocity": 0.3937007874015748,
                    "duration": 0.15625
                },
                {
                    "name": "A3",
                    "midi": 57,
                    "time": 317.8125,
                    "velocity": 0.3937007874015748,
                    "duration": 0.15625
                },
                {
                    "name": "F2",
                    "midi": 41,
                    "time": 317.8125,
                    "velocity": 0.5433070866141733,
                    "duration": 0.625
                },
                {
                    "name": "D3",
                    "midi": 50,
                    "time": 317.96875,
                    "velocity": 0.3937007874015748,
                    "duration": 0.15625
                },
                {
                    "name": "A3",
                    "midi": 57,
                    "time": 318.125,
                    "velocity": 0.3937007874015748,
                    "duration": 0.15625
                },
                {
                    "name": "D3",
                    "midi": 50,
                    "time": 318.28125,
                    "velocity": 0.3937007874015748,
                    "duration": 0.15625
                },
                {
                    "name": "A3",
                    "midi": 57,
                    "time": 318.4375,
                    "velocity": 0.3937007874015748,
                    "duration": 0.15625
                },
                {
                    "name": "F#2",
                    "midi": 42,
                    "time": 318.4375,
                    "velocity": 0.3937007874015748,
                    "duration": 0.3125
                },
                {
                    "name": "D3",
                    "midi": 50,
                    "time": 318.59375,
                    "velocity": 0.3937007874015748,
                    "duration": 0.15625
                },
                {
                    "name": "G3",
                    "midi": 55,
                    "time": 318.75,
                    "velocity": 0.3937007874015748,
                    "duration": 0.15625
                },
                {
                    "name": "G2",
                    "midi": 43,
                    "time": 318.75,
                    "velocity": 0.3937007874015748,
                    "duration": 0.3125
                },
                {
                    "name": "D3",
                    "midi": 50,
                    "time": 318.90625,
                    "velocity": 0.3858267716535433,
                    "duration": 0.15625
                },
                {
                    "name": "G3",
                    "midi": 55,
                    "time": 319.0625,
                    "velocity": 0.3700787401574803,
                    "duration": 0.15625
                },
                {
                    "name": "G2",
                    "midi": 43,
                    "time": 319.0625,
                    "velocity": 0.5196850393700787,
                    "duration": 0.625
                },
                {
                    "name": "D3",
                    "midi": 50,
                    "time": 319.21875,
                    "velocity": 0.36220472440944884,
                    "duration": 0.15625
                },
                {
                    "name": "A3",
                    "midi": 57,
                    "time": 319.375,
                    "velocity": 0.3543307086614173,
                    "duration": 0.15625
                },
                {
                    "name": "D3",
                    "midi": 50,
                    "time": 319.53125,
                    "velocity": 0.3464566929133858,
                    "duration": 0.15625
                },
                {
                    "name": "B3",
                    "midi": 59,
                    "time": 319.6875,
                    "velocity": 0.33070866141732286,
                    "duration": 0.15625
                },
                {
                    "name": "G2",
                    "midi": 43,
                    "time": 319.6875,
                    "velocity": 0.33070866141732286,
                    "duration": 0.15625
                },
                {
                    "name": "D3",
                    "midi": 50,
                    "time": 319.84375,
                    "velocity": 0.3228346456692913,
                    "duration": 0.15625
                },
                {
                    "name": "D3",
                    "midi": 50,
                    "time": 319.84375,
                    "velocity": 0.3228346456692913,
                    "duration": 0.15625
                },
                {
                    "name": "C4",
                    "midi": 60,
                    "time": 320,
                    "velocity": 0.31496062992125984,
                    "duration": 0.15625
                },
                {
                    "name": "C3",
                    "midi": 48,
                    "time": 320,
                    "velocity": 0.31496062992125984,
                    "duration": 0.3125
                },
                {
                    "name": "G3",
                    "midi": 55,
                    "time": 320.15625,
                    "velocity": 0.31496062992125984,
                    "duration": 0.15625
                },
                {
                    "name": "C4",
                    "midi": 60,
                    "time": 320.3125,
                    "velocity": 0.31496062992125984,
                    "duration": 0.15625
                },
                {
                    "name": "C3",
                    "midi": 48,
                    "time": 320.3125,
                    "velocity": 0.4645669291338583,
                    "duration": 0.625
                },
                {
                    "name": "G3",
                    "midi": 55,
                    "time": 320.46875,
                    "velocity": 0.31496062992125984,
                    "duration": 0.15625
                },
                {
                    "name": "C4",
                    "midi": 60,
                    "time": 320.625,
                    "velocity": 0.31496062992125984,
                    "duration": 0.15625
                },
                {
                    "name": "G3",
                    "midi": 55,
                    "time": 320.78125,
                    "velocity": 0.31496062992125984,
                    "duration": 0.15625
                },
                {
                    "name": "C4",
                    "midi": 60,
                    "time": 320.9375,
                    "velocity": 0.31496062992125984,
                    "duration": 0.15625
                },
                {
                    "name": "C3",
                    "midi": 48,
                    "time": 320.9375,
                    "velocity": 0.31496062992125984,
                    "duration": 0.3125
                },
                {
                    "name": "G3",
                    "midi": 55,
                    "time": 321.09375,
                    "velocity": 0.31496062992125984,
                    "duration": 0.15625
                },
                {
                    "name": "D4",
                    "midi": 62,
                    "time": 321.25,
                    "velocity": 0.31496062992125984,
                    "duration": 0.15625
                },
                {
                    "name": "C3",
                    "midi": 48,
                    "time": 321.25,
                    "velocity": 0.31496062992125984,
                    "duration": 0.3125
                },
                {
                    "name": "G#3",
                    "midi": 56,
                    "time": 321.40625,
                    "velocity": 0.31496062992125984,
                    "duration": 0.15625
                },
                {
                    "name": "D4",
                    "midi": 62,
                    "time": 321.5625,
                    "velocity": 0.31496062992125984,
                    "duration": 0.15625
                },
                {
                    "name": "C3",
                    "midi": 48,
                    "time": 321.5625,
                    "velocity": 0.4645669291338583,
                    "duration": 0.625
                },
                {
                    "name": "G#3",
                    "midi": 56,
                    "time": 321.71875,
                    "velocity": 0.31496062992125984,
                    "duration": 0.15625
                },
                {
                    "name": "D4",
                    "midi": 62,
                    "time": 321.875,
                    "velocity": 0.31496062992125984,
                    "duration": 0.15625
                },
                {
                    "name": "G#3",
                    "midi": 56,
                    "time": 322.03125,
                    "velocity": 0.31496062992125984,
                    "duration": 0.15625
                },
                {
                    "name": "D4",
                    "midi": 62,
                    "time": 322.1875,
                    "velocity": 0.31496062992125984,
                    "duration": 0.15625
                },
                {
                    "name": "C3",
                    "midi": 48,
                    "time": 322.1875,
                    "velocity": 0.31496062992125984,
                    "duration": 0.3125
                },
                {
                    "name": "G3",
                    "midi": 55,
                    "time": 322.34375,
                    "velocity": 0.31496062992125984,
                    "duration": 0.15625
                },
                {
                    "name": "C4",
                    "midi": 60,
                    "time": 322.5,
                    "velocity": 0.31496062992125984,
                    "duration": 0.15625
                },
                {
                    "name": "C3",
                    "midi": 48,
                    "time": 322.5,
                    "velocity": 0.31496062992125984,
                    "duration": 0.3125
                },
                {
                    "name": "G3",
                    "midi": 55,
                    "time": 322.65625,
                    "velocity": 0.31496062992125984,
                    "duration": 0.15625
                },
                {
                    "name": "C4",
                    "midi": 60,
                    "time": 322.8125,
                    "velocity": 0.31496062992125984,
                    "duration": 0.15625
                },
                {
                    "name": "C3",
                    "midi": 48,
                    "time": 322.8125,
                    "velocity": 0.4645669291338583,
                    "duration": 0.625
                },
                {
                    "name": "G3",
                    "midi": 55,
                    "time": 322.96875,
                    "velocity": 0.31496062992125984,
                    "duration": 0.15625
                },
                {
                    "name": "C4",
                    "midi": 60,
                    "time": 323.125,
                    "velocity": 0.31496062992125984,
                    "duration": 0.15625
                },
                {
                    "name": "G3",
                    "midi": 55,
                    "time": 323.28125,
                    "velocity": 0.31496062992125984,
                    "duration": 0.15625
                },
                {
                    "name": "C4",
                    "midi": 60,
                    "time": 323.4375,
                    "velocity": 0.31496062992125984,
                    "duration": 0.15625
                },
                {
                    "name": "C3",
                    "midi": 48,
                    "time": 323.4375,
                    "velocity": 0.31496062992125984,
                    "duration": 0.3125
                },
                {
                    "name": "G3",
                    "midi": 55,
                    "time": 323.59375,
                    "velocity": 0.31496062992125984,
                    "duration": 0.15625
                },
                {
                    "name": "D4",
                    "midi": 62,
                    "time": 323.75,
                    "velocity": 0.31496062992125984,
                    "duration": 0.15625
                },
                {
                    "name": "B2",
                    "midi": 47,
                    "time": 323.75,
                    "velocity": 0.31496062992125984,
                    "duration": 0.3125
                },
                {
                    "name": "G#3",
                    "midi": 56,
                    "time": 323.90625,
                    "velocity": 0.31496062992125984,
                    "duration": 0.15625
                },
                {
                    "name": "D4",
                    "midi": 62,
                    "time": 324.0625,
                    "velocity": 0.31496062992125984,
                    "duration": 0.15625
                },
                {
                    "name": "A#2",
                    "midi": 46,
                    "time": 324.0625,
                    "velocity": 0.4645669291338583,
                    "duration": 0.625
                },
                {
                    "name": "G#3",
                    "midi": 56,
                    "time": 324.21875,
                    "velocity": 0.31496062992125984,
                    "duration": 0.15625
                },
                {
                    "name": "D4",
                    "midi": 62,
                    "time": 324.375,
                    "velocity": 0.31496062992125984,
                    "duration": 0.15625
                },
                {
                    "name": "A#3",
                    "midi": 58,
                    "time": 324.53125,
                    "velocity": 0.31496062992125984,
                    "duration": 0.15625
                },
                {
                    "name": "C4",
                    "midi": 60,
                    "time": 324.6875,
                    "velocity": 0.31496062992125984,
                    "duration": 0.15625
                },
                {
                    "name": "F3",
                    "midi": 53,
                    "time": 324.6875,
                    "velocity": 0.31496062992125984,
                    "duration": 0.3125
                },
                {
                    "name": "A#3",
                    "midi": 58,
                    "time": 324.84375,
                    "velocity": 0.31496062992125984,
                    "duration": 0.15625
                },
                {
                    "name": "D#4",
                    "midi": 63,
                    "time": 325,
                    "velocity": 0.5039370078740157,
                    "duration": 0.15625
                },
                {
                    "name": "D#3",
                    "midi": 51,
                    "time": 325,
                    "velocity": 0.5039370078740157,
                    "duration": 0.3125
                },
                {
                    "name": "A#3",
                    "midi": 58,
                    "time": 325.15625,
                    "velocity": 0.5039370078740157,
                    "duration": 0.15625
                },
                {
                    "name": "D#4",
                    "midi": 63,
                    "time": 325.3125,
                    "velocity": 0.5039370078740157,
                    "duration": 0.15625
                },
                {
                    "name": "D#3",
                    "midi": 51,
                    "time": 325.3125,
                    "velocity": 0.5039370078740157,
                    "duration": 0.625
                },
                {
                    "name": "A#3",
                    "midi": 58,
                    "time": 325.46875,
                    "velocity": 0.5039370078740157,
                    "duration": 0.15625
                },
                {
                    "name": "D#4",
                    "midi": 63,
                    "time": 325.625,
                    "velocity": 0.5039370078740157,
                    "duration": 0.15625
                },
                {
                    "name": "A#3",
                    "midi": 58,
                    "time": 325.78125,
                    "velocity": 0.5039370078740157,
                    "duration": 0.15625
                },
                {
                    "name": "D#4",
                    "midi": 63,
                    "time": 325.9375,
                    "velocity": 0.5039370078740157,
                    "duration": 0.15625
                },
                {
                    "name": "D#3",
                    "midi": 51,
                    "time": 325.9375,
                    "velocity": 0.5039370078740157,
                    "duration": 0.3125
                },
                {
                    "name": "A#3",
                    "midi": 58,
                    "time": 326.09375,
                    "velocity": 0.5039370078740157,
                    "duration": 0.15625
                },
                {
                    "name": "F4",
                    "midi": 65,
                    "time": 326.25,
                    "velocity": 0.5039370078740157,
                    "duration": 0.15625
                },
                {
                    "name": "D#3",
                    "midi": 51,
                    "time": 326.25,
                    "velocity": 0.5039370078740157,
                    "duration": 0.3125
                },
                {
                    "name": "B3",
                    "midi": 59,
                    "time": 326.40625,
                    "velocity": 0.5039370078740157,
                    "duration": 0.15625
                },
                {
                    "name": "F4",
                    "midi": 65,
                    "time": 326.5625,
                    "velocity": 0.5039370078740157,
                    "duration": 0.15625
                },
                {
                    "name": "D#3",
                    "midi": 51,
                    "time": 326.5625,
                    "velocity": 0.5039370078740157,
                    "duration": 0.625
                },
                {
                    "name": "B3",
                    "midi": 59,
                    "time": 326.71875,
                    "velocity": 0.5039370078740157,
                    "duration": 0.15625
                },
                {
                    "name": "F4",
                    "midi": 65,
                    "time": 326.875,
                    "velocity": 0.5039370078740157,
                    "duration": 0.15625
                },
                {
                    "name": "B3",
                    "midi": 59,
                    "time": 327.03125,
                    "velocity": 0.5039370078740157,
                    "duration": 0.15625
                },
                {
                    "name": "F4",
                    "midi": 65,
                    "time": 327.1875,
                    "velocity": 0.5039370078740157,
                    "duration": 0.15625
                },
                {
                    "name": "D#3",
                    "midi": 51,
                    "time": 327.1875,
                    "velocity": 0.5039370078740157,
                    "duration": 0.3125
                },
                {
                    "name": "A#3",
                    "midi": 58,
                    "time": 327.34375,
                    "velocity": 0.5039370078740157,
                    "duration": 0.15625
                },
                {
                    "name": "D#4",
                    "midi": 63,
                    "time": 327.5,
                    "velocity": 0.5039370078740157,
                    "duration": 0.15625
                },
                {
                    "name": "D#3",
                    "midi": 51,
                    "time": 327.5,
                    "velocity": 0.5039370078740157,
                    "duration": 0.3125
                },
                {
                    "name": "A#3",
                    "midi": 58,
                    "time": 327.65625,
                    "velocity": 0.5039370078740157,
                    "duration": 0.15625
                },
                {
                    "name": "D#4",
                    "midi": 63,
                    "time": 327.8125,
                    "velocity": 0.5039370078740157,
                    "duration": 0.15625
                },
                {
                    "name": "D#3",
                    "midi": 51,
                    "time": 327.8125,
                    "velocity": 0.5039370078740157,
                    "duration": 0.625
                },
                {
                    "name": "A#3",
                    "midi": 58,
                    "time": 327.96875,
                    "velocity": 0.5039370078740157,
                    "duration": 0.15625
                },
                {
                    "name": "D#4",
                    "midi": 63,
                    "time": 328.125,
                    "velocity": 0.5039370078740157,
                    "duration": 0.15625
                },
                {
                    "name": "A#3",
                    "midi": 58,
                    "time": 328.28125,
                    "velocity": 0.5039370078740157,
                    "duration": 0.15625
                },
                {
                    "name": "D#4",
                    "midi": 63,
                    "time": 328.4375,
                    "velocity": 0.5039370078740157,
                    "duration": 0.15625
                },
                {
                    "name": "D#3",
                    "midi": 51,
                    "time": 328.4375,
                    "velocity": 0.5039370078740157,
                    "duration": 0.3125
                },
                {
                    "name": "A#3",
                    "midi": 58,
                    "time": 328.59375,
                    "velocity": 0.5039370078740157,
                    "duration": 0.15625
                },
                {
                    "name": "E3",
                    "midi": 52,
                    "time": 328.75,
                    "velocity": 0.5039370078740157,
                    "duration": 0.46875
                },
                {
                    "name": "E4",
                    "midi": 64,
                    "time": 328.75,
                    "velocity": 0.5039370078740157,
                    "duration": 0.15625
                },
                {
                    "name": "A3",
                    "midi": 57,
                    "time": 328.90625,
                    "velocity": 0.5039370078740157,
                    "duration": 0.15625
                },
                {
                    "name": "E4",
                    "midi": 64,
                    "time": 329.0625,
                    "velocity": 0.5039370078740157,
                    "duration": 0.15625
                },
                {
                    "name": "E3",
                    "midi": 52,
                    "time": 329.21875,
                    "velocity": 0.5039370078740157,
                    "duration": 0.15625
                },
                {
                    "name": "E3",
                    "midi": 52,
                    "time": 329.21875,
                    "velocity": 0.5039370078740157,
                    "duration": 0.15625
                },
                {
                    "name": "C#4",
                    "midi": 61,
                    "time": 329.375,
                    "velocity": 0.5039370078740157,
                    "duration": 0.15625
                },
                {
                    "name": "E3",
                    "midi": 52,
                    "time": 329.53125,
                    "velocity": 0.5039370078740157,
                    "duration": 0.15625
                },
                {
                    "name": "C#4",
                    "midi": 61,
                    "time": 329.6875,
                    "velocity": 0.5039370078740157,
                    "duration": 0.15625
                },
                {
                    "name": "A2",
                    "midi": 45,
                    "time": 329.84375,
                    "velocity": 0.5039370078740157,
                    "duration": 0.15625
                },
                {
                    "name": "D4",
                    "midi": 62,
                    "time": 330,
                    "velocity": 0.5039370078740157,
                    "duration": 0.15625
                },
                {
                    "name": "D3",
                    "midi": 50,
                    "time": 330,
                    "velocity": 0.5039370078740157,
                    "duration": 0.3125
                },
                {
                    "name": "A3",
                    "midi": 57,
                    "time": 330.15625,
                    "velocity": 0.5039370078740157,
                    "duration": 0.15625
                },
                {
                    "name": "D4",
                    "midi": 62,
                    "time": 330.3125,
                    "velocity": 0.5039370078740157,
                    "duration": 0.15625
                },
                {
                    "name": "D3",
                    "midi": 50,
                    "time": 330.3125,
                    "velocity": 0.5039370078740157,
                    "duration": 0.625
                },
                {
                    "name": "A3",
                    "midi": 57,
                    "time": 330.46875,
                    "velocity": 0.5039370078740157,
                    "duration": 0.15625
                },
                {
                    "name": "D4",
                    "midi": 62,
                    "time": 330.625,
                    "velocity": 0.5039370078740157,
                    "duration": 0.15625
                },
                {
                    "name": "A3",
                    "midi": 57,
                    "time": 330.78125,
                    "velocity": 0.5039370078740157,
                    "duration": 0.15625
                },
                {
                    "name": "D4",
                    "midi": 62,
                    "time": 330.9375,
                    "velocity": 0.5039370078740157,
                    "duration": 0.15625
                },
                {
                    "name": "D3",
                    "midi": 50,
                    "time": 330.9375,
                    "velocity": 0.5039370078740157,
                    "duration": 0.3125
                },
                {
                    "name": "A3",
                    "midi": 57,
                    "time": 331.09375,
                    "velocity": 0.5039370078740157,
                    "duration": 0.15625
                },
                {
                    "name": "D3",
                    "midi": 50,
                    "time": 331.25,
                    "velocity": 0.3937007874015748,
                    "duration": 0.46875
                },
                {
                    "name": "D4",
                    "midi": 62,
                    "time": 331.25,
                    "velocity": 0.3937007874015748,
                    "duration": 0.15625
                },
                {
                    "name": "G3",
                    "midi": 55,
                    "time": 331.40625,
                    "velocity": 0.3937007874015748,
                    "duration": 0.15625
                },
                {
                    "name": "D4",
                    "midi": 62,
                    "time": 331.5625,
                    "velocity": 0.3937007874015748,
                    "duration": 0.15625
                },
                {
                    "name": "D3",
                    "midi": 50,
                    "time": 331.71875,
                    "velocity": 0.3937007874015748,
                    "duration": 0.15625
                },
                {
                    "name": "D3",
                    "midi": 50,
                    "time": 331.71875,
                    "velocity": 0.3937007874015748,
                    "duration": 0.15625
                },
                {
                    "name": "B3",
                    "midi": 59,
                    "time": 331.875,
                    "velocity": 0.3937007874015748,
                    "duration": 0.15625
                },
                {
                    "name": "D3",
                    "midi": 50,
                    "time": 332.03125,
                    "velocity": 0.3937007874015748,
                    "duration": 0.15625
                },
                {
                    "name": "B3",
                    "midi": 59,
                    "time": 332.1875,
                    "velocity": 0.3937007874015748,
                    "duration": 0.15625
                },
                {
                    "name": "G2",
                    "midi": 43,
                    "time": 332.34375,
                    "velocity": 0.3937007874015748,
                    "duration": 0.15625
                },
                {
                    "name": "C3",
                    "midi": 48,
                    "time": 332.5,
                    "velocity": 0.3937007874015748,
                    "duration": 0.3125
                },
                {
                    "name": "C3",
                    "midi": 48,
                    "time": 332.8125,
                    "velocity": 0.5748031496062992,
                    "duration": 0.625
                },
                {
                    "name": "G3",
                    "midi": 55,
                    "time": 332.8125,
                    "velocity": 0.5748031496062992,
                    "duration": 0.625
                },
                {
                    "name": "C4",
                    "midi": 60,
                    "time": 332.8125,
                    "velocity": 0.5748031496062992,
                    "duration": 0.625
                },
                {
                    "name": "A#2",
                    "midi": 46,
                    "time": 333.4375,
                    "velocity": 0.48031496062992124,
                    "duration": 0.3125
                },
                {
                    "name": "E3",
                    "midi": 52,
                    "time": 333.4375,
                    "velocity": 0.48031496062992124,
                    "duration": 0.3125
                },
                {
                    "name": "C4",
                    "midi": 60,
                    "time": 333.4375,
                    "velocity": 0.48031496062992124,
                    "duration": 0.3125
                },
                {
                    "name": "A2",
                    "midi": 45,
                    "time": 333.75,
                    "velocity": 0.5039370078740157,
                    "duration": 0.3125
                },
                {
                    "name": "F3",
                    "midi": 53,
                    "time": 333.75,
                    "velocity": 0.5039370078740157,
                    "duration": 0.3125
                },
                {
                    "name": "C4",
                    "midi": 60,
                    "time": 333.75,
                    "velocity": 0.5039370078740157,
                    "duration": 0.3125
                },
                {
                    "name": "A2",
                    "midi": 45,
                    "time": 334.0625,
                    "velocity": 0.5039370078740157,
                    "duration": 0.625
                },
                {
                    "name": "F3",
                    "midi": 53,
                    "time": 334.0625,
                    "velocity": 0.5039370078740157,
                    "duration": 0.625
                },
                {
                    "name": "C4",
                    "midi": 60,
                    "time": 334.0625,
                    "velocity": 0.5039370078740157,
                    "duration": 0.625
                },
                {
                    "name": "F2",
                    "midi": 41,
                    "time": 334.6875,
                    "velocity": 0.5039370078740157,
                    "duration": 0.3125
                },
                {
                    "name": "C3",
                    "midi": 48,
                    "time": 334.6875,
                    "velocity": 0.5039370078740157,
                    "duration": 0.3125
                },
                {
                    "name": "F3",
                    "midi": 53,
                    "time": 334.6875,
                    "velocity": 0.5039370078740157,
                    "duration": 0.3125
                },
                {
                    "name": "C3",
                    "midi": 48,
                    "time": 335,
                    "velocity": 0.5039370078740157,
                    "duration": 0.3125
                },
                {
                    "name": "C3",
                    "midi": 48,
                    "time": 335.3125,
                    "velocity": 0.6220472440944882,
                    "duration": 0.625
                },
                {
                    "name": "G3",
                    "midi": 55,
                    "time": 335.3125,
                    "velocity": 0.6220472440944882,
                    "duration": 0.625
                },
                {
                    "name": "C4",
                    "midi": 60,
                    "time": 335.3125,
                    "velocity": 0.6220472440944882,
                    "duration": 0.625
                },
                {
                    "name": "A#2",
                    "midi": 46,
                    "time": 335.9375,
                    "velocity": 0.41732283464566927,
                    "duration": 0.3125
                },
                {
                    "name": "E3",
                    "midi": 52,
                    "time": 335.9375,
                    "velocity": 0.41732283464566927,
                    "duration": 0.3125
                },
                {
                    "name": "C4",
                    "midi": 60,
                    "time": 335.9375,
                    "velocity": 0.41732283464566927,
                    "duration": 0.3125
                },
                {
                    "name": "A2",
                    "midi": 45,
                    "time": 336.25,
                    "velocity": 0.3937007874015748,
                    "duration": 0.3125
                },
                {
                    "name": "F3",
                    "midi": 53,
                    "time": 336.25,
                    "velocity": 0.3937007874015748,
                    "duration": 0.3125
                },
                {
                    "name": "C4",
                    "midi": 60,
                    "time": 336.25,
                    "velocity": 0.3937007874015748,
                    "duration": 0.3125
                },
                {
                    "name": "A2",
                    "midi": 45,
                    "time": 336.5625,
                    "velocity": 0.6062992125984252,
                    "duration": 0.625
                },
                {
                    "name": "F3",
                    "midi": 53,
                    "time": 336.5625,
                    "velocity": 0.6062992125984252,
                    "duration": 0.625
                },
                {
                    "name": "C4",
                    "midi": 60,
                    "time": 336.5625,
                    "velocity": 0.6062992125984252,
                    "duration": 0.625
                },
                {
                    "name": "F2",
                    "midi": 41,
                    "time": 337.1875,
                    "velocity": 0.5748031496062992,
                    "duration": 0.3125
                },
                {
                    "name": "C3",
                    "midi": 48,
                    "time": 337.1875,
                    "velocity": 0.5748031496062992,
                    "duration": 0.3125
                },
                {
                    "name": "F3",
                    "midi": 53,
                    "time": 337.1875,
                    "velocity": 0.5748031496062992,
                    "duration": 0.3125
                },
                {
                    "name": "C2",
                    "midi": 36,
                    "time": 337.5,
                    "velocity": 0.6299212598425197,
                    "duration": 0.6298828125
                },
                {
                    "name": "G2",
                    "midi": 43,
                    "time": 337.5,
                    "velocity": 0.6299212598425197,
                    "duration": 0.6298828125
                },
                {
                    "name": "C3",
                    "midi": 48,
                    "time": 337.5,
                    "velocity": 0.6299212598425197,
                    "duration": 0.6298828125
                },
                {
                    "name": "C4",
                    "midi": 60,
                    "time": 337.5,
                    "velocity": 0.6299212598425197,
                    "duration": 0.46875
                },
                {
                    "name": "C4",
                    "midi": 60,
                    "time": 337.8125,
                    "velocity": 0.6299212598425197,
                    "duration": 0.3173828125
                },
                {
                    "name": "C4",
                    "midi": 60,
                    "time": 337.8125,
                    "velocity": 0.6299212598425197,
                    "duration": 0.625
                },
                {
                    "name": "G4",
                    "midi": 67,
                    "time": 337.96875,
                    "velocity": 0.6299212598425197,
                    "duration": 0.15625
                },
                {
                    "name": "F#4",
                    "midi": 66,
                    "time": 338.125,
                    "velocity": 0.6299212598425197,
                    "duration": 0.15625
                },
                {
                    "name": "G4",
                    "midi": 67,
                    "time": 338.28125,
                    "velocity": 0.6299212598425197,
                    "duration": 0.15625
                },
                {
                    "name": "F3",
                    "midi": 53,
                    "time": 338.4375,
                    "velocity": 0.6299212598425197,
                    "duration": 0.15625
                },
                {
                    "name": "F3",
                    "midi": 53,
                    "time": 338.4375,
                    "velocity": 0.6299212598425197,
                    "duration": 0.625
                },
                {
                    "name": "C4",
                    "midi": 60,
                    "time": 338.59375,
                    "velocity": 0.6299212598425197,
                    "duration": 0.15625
                },
                {
                    "name": "B3",
                    "midi": 59,
                    "time": 338.75,
                    "velocity": 0.6299212598425197,
                    "duration": 0.15625
                },
                {
                    "name": "C4",
                    "midi": 60,
                    "time": 338.90625,
                    "velocity": 0.6299212598425197,
                    "duration": 0.15625
                },
                {
                    "name": "B3",
                    "midi": 59,
                    "time": 339.0625,
                    "velocity": 0.6299212598425197,
                    "duration": 0.15625
                },
                {
                    "name": "B3",
                    "midi": 59,
                    "time": 339.0625,
                    "velocity": 0.6299212598425197,
                    "duration": 0.625
                },
                {
                    "name": "F4",
                    "midi": 65,
                    "time": 339.21875,
                    "velocity": 0.6299212598425197,
                    "duration": 0.15625
                },
                {
                    "name": "E4",
                    "midi": 64,
                    "time": 339.375,
                    "velocity": 0.6299212598425197,
                    "duration": 0.15625
                },
                {
                    "name": "F4",
                    "midi": 65,
                    "time": 339.53125,
                    "velocity": 0.6299212598425197,
                    "duration": 0.15625
                },
                {
                    "name": "E3",
                    "midi": 52,
                    "time": 339.6875,
                    "velocity": 0.6299212598425197,
                    "duration": 0.15625
                },
                {
                    "name": "E3",
                    "midi": 52,
                    "time": 339.6875,
                    "velocity": 0.6299212598425197,
                    "duration": 0.625
                },
                {
                    "name": "B3",
                    "midi": 59,
                    "time": 339.84375,
                    "velocity": 0.6299212598425197,
                    "duration": 0.15625
                },
                {
                    "name": "A#3",
                    "midi": 58,
                    "time": 340,
                    "velocity": 0.6299212598425197,
                    "duration": 0.15625
                },
                {
                    "name": "B3",
                    "midi": 59,
                    "time": 340.15625,
                    "velocity": 0.6299212598425197,
                    "duration": 0.15625
                },
                {
                    "name": "A3",
                    "midi": 57,
                    "time": 340.3125,
                    "velocity": 0.6299212598425197,
                    "duration": 0.15625
                },
                {
                    "name": "A3",
                    "midi": 57,
                    "time": 340.3125,
                    "velocity": 0.6299212598425197,
                    "duration": 0.625
                },
                {
                    "name": "E4",
                    "midi": 64,
                    "time": 340.46875,
                    "velocity": 0.6299212598425197,
                    "duration": 0.15625
                },
                {
                    "name": "D#4",
                    "midi": 63,
                    "time": 340.625,
                    "velocity": 0.6299212598425197,
                    "duration": 0.15625
                },
                {
                    "name": "E4",
                    "midi": 64,
                    "time": 340.78125,
                    "velocity": 0.6299212598425197,
                    "duration": 0.15625
                },
                {
                    "name": "D3",
                    "midi": 50,
                    "time": 340.9375,
                    "velocity": 0.6299212598425197,
                    "duration": 0.15625
                },
                {
                    "name": "D3",
                    "midi": 50,
                    "time": 340.9375,
                    "velocity": 0.6299212598425197,
                    "duration": 0.625
                },
                {
                    "name": "A3",
                    "midi": 57,
                    "time": 341.09375,
                    "velocity": 0.6299212598425197,
                    "duration": 0.15625
                },
                {
                    "name": "G#3",
                    "midi": 56,
                    "time": 341.25,
                    "velocity": 0.6299212598425197,
                    "duration": 0.15625
                },
                {
                    "name": "A3",
                    "midi": 57,
                    "time": 341.40625,
                    "velocity": 0.6299212598425197,
                    "duration": 0.15625
                },
                {
                    "name": "G3",
                    "midi": 55,
                    "time": 341.5625,
                    "velocity": 0.6299212598425197,
                    "duration": 0.15625
                },
                {
                    "name": "D4",
                    "midi": 62,
                    "time": 341.71875,
                    "velocity": 0.6299212598425197,
                    "duration": 0.15625
                },
                {
                    "name": "E4",
                    "midi": 64,
                    "time": 341.875,
                    "velocity": 0.7795275590551181,
                    "duration": 0.3125
                },
                {
                    "name": "G3",
                    "midi": 55,
                    "time": 342.03125,
                    "velocity": 0.6299212598425197,
                    "duration": 0.15625
                },
                {
                    "name": "D4",
                    "midi": 62,
                    "time": 342.1875,
                    "velocity": 0.6299212598425197,
                    "duration": 0.3125
                },
                {
                    "name": "G3",
                    "midi": 55,
                    "time": 342.34375,
                    "velocity": 0.6299212598425197,
                    "duration": 0.15625
                },
                {
                    "name": "C4",
                    "midi": 60,
                    "time": 342.5,
                    "velocity": 0.6299212598425197,
                    "duration": 0.3125
                },
                {
                    "name": "C2",
                    "midi": 36,
                    "time": 342.8125,
                    "velocity": 0.6299212598425197,
                    "duration": 0.15625
                },
                {
                    "name": "C3",
                    "midi": 48,
                    "time": 342.96875,
                    "velocity": 0.6299212598425197,
                    "duration": 0.15625
                },
                {
                    "name": "F#3",
                    "midi": 54,
                    "time": 343.125,
                    "velocity": 0.6299212598425197,
                    "duration": 0.15625
                },
                {
                    "name": "C3",
                    "midi": 48,
                    "time": 343.28125,
                    "velocity": 0.6299212598425197,
                    "duration": 0.15625
                },
                {
                    "name": "B2",
                    "midi": 47,
                    "time": 343.4375,
                    "velocity": 0.6299212598425197,
                    "duration": 0.15625
                },
                {
                    "name": "B3",
                    "midi": 59,
                    "time": 343.59375,
                    "velocity": 0.6299212598425197,
                    "duration": 0.15625
                },
                {
                    "name": "F#4",
                    "midi": 66,
                    "time": 343.75,
                    "velocity": 0.6299212598425197,
                    "duration": 0.3125
                },
                {
                    "name": "A#1",
                    "midi": 34,
                    "time": 344.0625,
                    "velocity": 0.6299212598425197,
                    "duration": 0.15625
                },
                {
                    "name": "A#2",
                    "midi": 46,
                    "time": 344.21875,
                    "velocity": 0.6299212598425197,
                    "duration": 0.15625
                },
                {
                    "name": "E3",
                    "midi": 52,
                    "time": 344.375,
                    "velocity": 0.6299212598425197,
                    "duration": 0.15625
                },
                {
                    "name": "A#2",
                    "midi": 46,
                    "time": 344.53125,
                    "velocity": 0.6299212598425197,
                    "duration": 0.15625
                },
                {
                    "name": "A2",
                    "midi": 45,
                    "time": 344.6875,
                    "velocity": 0.6299212598425197,
                    "duration": 0.15625
                },
                {
                    "name": "A3",
                    "midi": 57,
                    "time": 344.84375,
                    "velocity": 0.6299212598425197,
                    "duration": 0.15625
                },
                {
                    "name": "E4",
                    "midi": 64,
                    "time": 345,
                    "velocity": 0.6299212598425197,
                    "duration": 0.3125
                },
                {
                    "name": "G#1",
                    "midi": 32,
                    "time": 345.3125,
                    "velocity": 0.6299212598425197,
                    "duration": 0.15625
                },
                {
                    "name": "G#2",
                    "midi": 44,
                    "time": 345.46875,
                    "velocity": 0.6299212598425197,
                    "duration": 0.15625
                },
                {
                    "name": "D3",
                    "midi": 50,
                    "time": 345.625,
                    "velocity": 0.6299212598425197,
                    "duration": 0.15625
                },
                {
                    "name": "G#2",
                    "midi": 44,
                    "time": 345.78125,
                    "velocity": 0.6299212598425197,
                    "duration": 0.15625
                },
                {
                    "name": "G2",
                    "midi": 43,
                    "time": 345.9375,
                    "velocity": 0.6299212598425197,
                    "duration": 0.15625
                },
                {
                    "name": "G3",
                    "midi": 55,
                    "time": 346.09375,
                    "velocity": 0.6299212598425197,
                    "duration": 0.15625
                },
                {
                    "name": "D4",
                    "midi": 62,
                    "time": 346.25,
                    "velocity": 0.6299212598425197,
                    "duration": 0.3125
                },
                {
                    "name": "G3",
                    "midi": 55,
                    "time": 346.5625,
                    "velocity": 0.6299212598425197,
                    "duration": 0.15625
                },
                {
                    "name": "D4",
                    "midi": 62,
                    "time": 346.71875,
                    "velocity": 0.6299212598425197,
                    "duration": 0.15625
                },
                {
                    "name": "E4",
                    "midi": 64,
                    "time": 346.875,
                    "velocity": 0.7795275590551181,
                    "duration": 0.3125
                },
                {
                    "name": "G3",
                    "midi": 55,
                    "time": 347.03125,
                    "velocity": 0.6299212598425197,
                    "duration": 0.15625
                },
                {
                    "name": "D4",
                    "midi": 62,
                    "time": 347.1875,
                    "velocity": 0.6299212598425197,
                    "duration": 0.3125
                },
                {
                    "name": "G3",
                    "midi": 55,
                    "time": 347.34375,
                    "velocity": 0.6299212598425197,
                    "duration": 0.15625
                },
                {
                    "name": "C4",
                    "midi": 60,
                    "time": 347.5,
                    "velocity": 0.6692913385826772,
                    "duration": 0.15625
                },
                {
                    "name": "C4",
                    "midi": 60,
                    "time": 347.5,
                    "velocity": 0.6692913385826772,
                    "duration": 0.3125
                },
                {
                    "name": "G3",
                    "midi": 55,
                    "time": 347.65625,
                    "velocity": 0.6692913385826772,
                    "duration": 0.15625
                },
                {
                    "name": "C4",
                    "midi": 60,
                    "time": 347.8125,
                    "velocity": 0.6771653543307087,
                    "duration": 0.15625
                },
                {
                    "name": "C4",
                    "midi": 60,
                    "time": 347.8125,
                    "velocity": 0.6771653543307087,
                    "duration": 0.3125
                },
                {
                    "name": "G3",
                    "midi": 55,
                    "time": 347.96875,
                    "velocity": 0.6771653543307087,
                    "duration": 0.15625
                },
                {
                    "name": "B3",
                    "midi": 59,
                    "time": 348.125,
                    "velocity": 0.6850393700787402,
                    "duration": 0.15625
                },
                {
                    "name": "B3",
                    "midi": 59,
                    "time": 348.125,
                    "velocity": 0.6850393700787402,
                    "duration": 0.3125
                },
                {
                    "name": "G3",
                    "midi": 55,
                    "time": 348.28125,
                    "velocity": 0.6850393700787402,
                    "duration": 0.15625
                },
                {
                    "name": "A#3",
                    "midi": 58,
                    "time": 348.4375,
                    "velocity": 0.6929133858267716,
                    "duration": 0.15625
                },
                {
                    "name": "A#3",
                    "midi": 58,
                    "time": 348.4375,
                    "velocity": 0.6929133858267716,
                    "duration": 0.3125
                },
                {
                    "name": "G3",
                    "midi": 55,
                    "time": 348.59375,
                    "velocity": 0.6929133858267716,
                    "duration": 0.15625
                },
                {
                    "name": "A3",
                    "midi": 57,
                    "time": 348.75,
                    "velocity": 0.7007874015748031,
                    "duration": 0.15625
                },
                {
                    "name": "A3",
                    "midi": 57,
                    "time": 348.75,
                    "velocity": 0.7007874015748031,
                    "duration": 0.3125
                },
                {
                    "name": "G3",
                    "midi": 55,
                    "time": 348.90625,
                    "velocity": 0.7007874015748031,
                    "duration": 0.15625
                },
                {
                    "name": "G#3",
                    "midi": 56,
                    "time": 349.0625,
                    "velocity": 0.7007874015748031,
                    "duration": 0.15625
                },
                {
                    "name": "G#3",
                    "midi": 56,
                    "time": 349.0625,
                    "velocity": 0.7007874015748031,
                    "duration": 0.3125
                },
                {
                    "name": "G3",
                    "midi": 55,
                    "time": 349.21875,
                    "velocity": 0.7086614173228346,
                    "duration": 0.15625
                },
                {
                    "name": "G4",
                    "midi": 67,
                    "time": 349.375,
                    "velocity": 0.7086614173228346,
                    "duration": 0.15625
                },
                {
                    "name": "G4",
                    "midi": 67,
                    "time": 349.375,
                    "velocity": 0.7086614173228346,
                    "duration": 0.3125
                },
                {
                    "name": "G3",
                    "midi": 55,
                    "time": 349.53125,
                    "velocity": 0.7165354330708661,
                    "duration": 0.15625
                },
                {
                    "name": "F4",
                    "midi": 65,
                    "time": 349.6875,
                    "velocity": 0.7165354330708661,
                    "duration": 0.15625
                },
                {
                    "name": "F4",
                    "midi": 65,
                    "time": 349.6875,
                    "velocity": 0.7165354330708661,
                    "duration": 0.3125
                },
                {
                    "name": "G3",
                    "midi": 55,
                    "time": 349.84375,
                    "velocity": 0.7244094488188977,
                    "duration": 0.15625
                },
                {
                    "name": "E4",
                    "midi": 64,
                    "time": 350,
                    "velocity": 0.7244094488188977,
                    "duration": 0.15625
                },
                {
                    "name": "E4",
                    "midi": 64,
                    "time": 350,
                    "velocity": 0.7244094488188977,
                    "duration": 0.3125
                },
                {
                    "name": "G3",
                    "midi": 55,
                    "time": 350.15625,
                    "velocity": 0.7322834645669292,
                    "duration": 0.15625
                },
                {
                    "name": "C4",
                    "midi": 60,
                    "time": 350.3125,
                    "velocity": 0.7322834645669292,
                    "duration": 0.15625
                },
                {
                    "name": "C4",
                    "midi": 60,
                    "time": 350.3125,
                    "velocity": 0.7322834645669292,
                    "duration": 0.3125
                },
                {
                    "name": "G3",
                    "midi": 55,
                    "time": 350.46875,
                    "velocity": 0.7322834645669292,
                    "duration": 0.15625
                },
                {
                    "name": "B3",
                    "midi": 59,
                    "time": 350.625,
                    "velocity": 0.7401574803149606,
                    "duration": 0.15625
                },
                {
                    "name": "B3",
                    "midi": 59,
                    "time": 350.625,
                    "velocity": 0.7401574803149606,
                    "duration": 0.3125
                },
                {
                    "name": "G3",
                    "midi": 55,
                    "time": 350.78125,
                    "velocity": 0.7401574803149606,
                    "duration": 0.15625
                },
                {
                    "name": "A#3",
                    "midi": 58,
                    "time": 350.9375,
                    "velocity": 0.7480314960629921,
                    "duration": 0.15625
                },
                {
                    "name": "A#3",
                    "midi": 58,
                    "time": 350.9375,
                    "velocity": 0.7480314960629921,
                    "duration": 0.3125
                },
                {
                    "name": "G3",
                    "midi": 55,
                    "time": 351.09375,
                    "velocity": 0.7480314960629921,
                    "duration": 0.15625
                },
                {
                    "name": "A3",
                    "midi": 57,
                    "time": 351.25,
                    "velocity": 1,
                    "duration": 0.15625
                },
                {
                    "name": "A3",
                    "midi": 57,
                    "time": 351.25,
                    "velocity": 0.7559055118110236,
                    "duration": 0.3125
                },
                {
                    "name": "G3",
                    "midi": 55,
                    "time": 351.40625,
                    "velocity": 0.7559055118110236,
                    "duration": 0.15625
                },
                {
                    "name": "G#3",
                    "midi": 56,
                    "time": 351.5625,
                    "velocity": 0.7637795275590551,
                    "duration": 0.15625
                },
                {
                    "name": "G#3",
                    "midi": 56,
                    "time": 351.5625,
                    "velocity": 0.7637795275590551,
                    "duration": 0.3125
                },
                {
                    "name": "G3",
                    "midi": 55,
                    "time": 351.71875,
                    "velocity": 0.7637795275590551,
                    "duration": 0.15625
                },
                {
                    "name": "G4",
                    "midi": 67,
                    "time": 351.875,
                    "velocity": 0.7716535433070866,
                    "duration": 0.15625
                },
                {
                    "name": "G4",
                    "midi": 67,
                    "time": 351.875,
                    "velocity": 0.7716535433070866,
                    "duration": 0.3125
                },
                {
                    "name": "G3",
                    "midi": 55,
                    "time": 352.03125,
                    "velocity": 0.7716535433070866,
                    "duration": 0.15625
                },
                {
                    "name": "F4",
                    "midi": 65,
                    "time": 352.1875,
                    "velocity": 0.7716535433070866,
                    "duration": 0.15625
                },
                {
                    "name": "F4",
                    "midi": 65,
                    "time": 352.1875,
                    "velocity": 0.7716535433070866,
                    "duration": 0.3125
                },
                {
                    "name": "G#3",
                    "midi": 56,
                    "time": 352.34375,
                    "velocity": 0.7795275590551181,
                    "duration": 0.15625
                },
                {
                    "name": "E4",
                    "midi": 64,
                    "time": 352.5,
                    "velocity": 0.7795275590551181,
                    "duration": 0.15625
                },
                {
                    "name": "E4",
                    "midi": 64,
                    "time": 352.5,
                    "velocity": 0.7795275590551181,
                    "duration": 0.3125
                },
                {
                    "name": "A3",
                    "midi": 57,
                    "time": 352.65625,
                    "velocity": 0.7874015748031497,
                    "duration": 0.15625
                },
                {
                    "name": "D4",
                    "midi": 62,
                    "time": 352.8125,
                    "velocity": 0.7874015748031497,
                    "duration": 0.15625
                },
                {
                    "name": "D4",
                    "midi": 62,
                    "time": 352.8125,
                    "velocity": 0.7874015748031497,
                    "duration": 0.3125
                },
                {
                    "name": "A3",
                    "midi": 57,
                    "time": 352.96875,
                    "velocity": 0.7952755905511811,
                    "duration": 0.15625
                },
                {
                    "name": "C#4",
                    "midi": 61,
                    "time": 353.125,
                    "velocity": 0.7952755905511811,
                    "duration": 0.15625
                },
                {
                    "name": "C#4",
                    "midi": 61,
                    "time": 353.125,
                    "velocity": 0.7952755905511811,
                    "duration": 0.3125
                },
                {
                    "name": "A3",
                    "midi": 57,
                    "time": 353.28125,
                    "velocity": 0.8031496062992126,
                    "duration": 0.15625
                },
                {
                    "name": "C4",
                    "midi": 60,
                    "time": 353.4375,
                    "velocity": 0.8031496062992126,
                    "duration": 0.15625
                },
                {
                    "name": "C4",
                    "midi": 60,
                    "time": 353.4375,
                    "velocity": 0.8031496062992126,
                    "duration": 0.3125
                },
                {
                    "name": "A3",
                    "midi": 57,
                    "time": 353.59375,
                    "velocity": 0.8031496062992126,
                    "duration": 0.15625
                },
                {
                    "name": "B3",
                    "midi": 59,
                    "time": 353.75,
                    "velocity": 0.8110236220472441,
                    "duration": 0.15625
                },
                {
                    "name": "B3",
                    "midi": 59,
                    "time": 353.75,
                    "velocity": 0.8110236220472441,
                    "duration": 0.3125
                },
                {
                    "name": "A3",
                    "midi": 57,
                    "time": 353.90625,
                    "velocity": 0.8110236220472441,
                    "duration": 0.15625
                },
                {
                    "name": "A#3",
                    "midi": 58,
                    "time": 354.0625,
                    "velocity": 0.8188976377952756,
                    "duration": 0.15625
                },
                {
                    "name": "A#3",
                    "midi": 58,
                    "time": 354.0625,
                    "velocity": 0.8188976377952756,
                    "duration": 0.3125
                },
                {
                    "name": "A3",
                    "midi": 57,
                    "time": 354.21875,
                    "velocity": 0.8188976377952756,
                    "duration": 0.15625
                },
                {
                    "name": "A4",
                    "midi": 69,
                    "time": 354.375,
                    "velocity": 0.8267716535433071,
                    "duration": 0.15625
                },
                {
                    "name": "A4",
                    "midi": 69,
                    "time": 354.375,
                    "velocity": 0.8267716535433071,
                    "duration": 0.3125
                },
                {
                    "name": "A3",
                    "midi": 57,
                    "time": 354.53125,
                    "velocity": 0.8267716535433071,
                    "duration": 0.15625
                },
                {
                    "name": "G4",
                    "midi": 67,
                    "time": 354.6875,
                    "velocity": 0.8346456692913385,
                    "duration": 0.15625
                },
                {
                    "name": "G4",
                    "midi": 67,
                    "time": 354.6875,
                    "velocity": 0.8346456692913385,
                    "duration": 0.3125
                },
                {
                    "name": "A3",
                    "midi": 57,
                    "time": 354.84375,
                    "velocity": 0.8346456692913385,
                    "duration": 0.15625
                },
                {
                    "name": "F4",
                    "midi": 65,
                    "time": 355,
                    "velocity": 0.8346456692913385,
                    "duration": 0.15625
                },
                {
                    "name": "F4",
                    "midi": 65,
                    "time": 355,
                    "velocity": 0.8346456692913385,
                    "duration": 0.3125
                },
                {
                    "name": "A3",
                    "midi": 57,
                    "time": 355.15625,
                    "velocity": 0.84251968503937,
                    "duration": 0.15625
                },
                {
                    "name": "D4",
                    "midi": 62,
                    "time": 355.3125,
                    "velocity": 0.84251968503937,
                    "duration": 0.15625
                },
                {
                    "name": "D4",
                    "midi": 62,
                    "time": 355.3125,
                    "velocity": 0.84251968503937,
                    "duration": 0.3125
                },
                {
                    "name": "A3",
                    "midi": 57,
                    "time": 355.46875,
                    "velocity": 0.8503937007874016,
                    "duration": 0.15625
                },
                {
                    "name": "C#4",
                    "midi": 61,
                    "time": 355.625,
                    "velocity": 0.8503937007874016,
                    "duration": 0.15625
                },
                {
                    "name": "C#4",
                    "midi": 61,
                    "time": 355.625,
                    "velocity": 0.8503937007874016,
                    "duration": 0.3125
                },
                {
                    "name": "A3",
                    "midi": 57,
                    "time": 355.78125,
                    "velocity": 0.8582677165354331,
                    "duration": 0.15625
                },
                {
                    "name": "C4",
                    "midi": 60,
                    "time": 355.9375,
                    "velocity": 0.8582677165354331,
                    "duration": 0.15625
                },
                {
                    "name": "C4",
                    "midi": 60,
                    "time": 355.9375,
                    "velocity": 0.8582677165354331,
                    "duration": 0.3125
                },
                {
                    "name": "A3",
                    "midi": 57,
                    "time": 356.09375,
                    "velocity": 0.8661417322834646,
                    "duration": 0.15625
                },
                {
                    "name": "B3",
                    "midi": 59,
                    "time": 356.25,
                    "velocity": 1,
                    "duration": 0.15625
                },
                {
                    "name": "B3",
                    "midi": 59,
                    "time": 356.25,
                    "velocity": 0.8661417322834646,
                    "duration": 0.3125
                },
                {
                    "name": "A3",
                    "midi": 57,
                    "time": 356.40625,
                    "velocity": 0.8661417322834646,
                    "duration": 0.15625
                },
                {
                    "name": "A#3",
                    "midi": 58,
                    "time": 356.5625,
                    "velocity": 0.8661417322834646,
                    "duration": 0.15625
                },
                {
                    "name": "A#3",
                    "midi": 58,
                    "time": 356.5625,
                    "velocity": 0.8661417322834646,
                    "duration": 0.3125
                },
                {
                    "name": "A3",
                    "midi": 57,
                    "time": 356.71875,
                    "velocity": 0.8661417322834646,
                    "duration": 0.15625
                },
                {
                    "name": "A4",
                    "midi": 69,
                    "time": 356.875,
                    "velocity": 0.8661417322834646,
                    "duration": 0.15625
                },
                {
                    "name": "A4",
                    "midi": 69,
                    "time": 356.875,
                    "velocity": 0.8661417322834646,
                    "duration": 0.3125
                },
                {
                    "name": "A3",
                    "midi": 57,
                    "time": 357.03125,
                    "velocity": 0.8661417322834646,
                    "duration": 0.15625
                },
                {
                    "name": "G4",
                    "midi": 67,
                    "time": 357.1875,
                    "velocity": 0.8661417322834646,
                    "duration": 0.15625
                },
                {
                    "name": "G4",
                    "midi": 67,
                    "time": 357.1875,
                    "velocity": 0.8661417322834646,
                    "duration": 0.3125
                },
                {
                    "name": "A#3",
                    "midi": 58,
                    "time": 357.34375,
                    "velocity": 0.8661417322834646,
                    "duration": 0.15625
                },
                {
                    "name": "F#4",
                    "midi": 66,
                    "time": 357.5,
                    "velocity": 1,
                    "duration": 0.15625
                },
                {
                    "name": "F#4",
                    "midi": 66,
                    "time": 357.5,
                    "velocity": 1,
                    "duration": 0.3125
                },
                {
                    "name": "B3",
                    "midi": 59,
                    "time": 357.65625,
                    "velocity": 1,
                    "duration": 0.15625
                },
                {
                    "name": "B4",
                    "midi": 71,
                    "time": 357.8125,
                    "velocity": 1,
                    "duration": 0.15625
                },
                {
                    "name": "B4",
                    "midi": 71,
                    "time": 357.8125,
                    "velocity": 1,
                    "duration": 0.3125
                },
                {
                    "name": "B3",
                    "midi": 59,
                    "time": 357.96875,
                    "velocity": 1,
                    "duration": 0.15625
                },
                {
                    "name": "A#4",
                    "midi": 70,
                    "time": 358.125,
                    "velocity": 1,
                    "duration": 0.15625
                },
                {
                    "name": "A#4",
                    "midi": 70,
                    "time": 358.125,
                    "velocity": 1,
                    "duration": 0.3125
                },
                {
                    "name": "F#3",
                    "midi": 54,
                    "time": 358.28125,
                    "velocity": 1,
                    "duration": 0.15625
                },
                {
                    "name": "A4",
                    "midi": 69,
                    "time": 358.4375,
                    "velocity": 1,
                    "duration": 0.15625
                },
                {
                    "name": "A4",
                    "midi": 69,
                    "time": 358.4375,
                    "velocity": 1,
                    "duration": 0.3125
                },
                {
                    "name": "B3",
                    "midi": 59,
                    "time": 358.59375,
                    "velocity": 1,
                    "duration": 0.15625
                },
                {
                    "name": "G#4",
                    "midi": 68,
                    "time": 358.75,
                    "velocity": 1,
                    "duration": 0.15625
                },
                {
                    "name": "G#4",
                    "midi": 68,
                    "time": 358.75,
                    "velocity": 1,
                    "duration": 0.3125
                },
                {
                    "name": "E3",
                    "midi": 52,
                    "time": 358.90625,
                    "velocity": 1,
                    "duration": 0.15625
                },
                {
                    "name": "G4",
                    "midi": 67,
                    "time": 359.0625,
                    "velocity": 1,
                    "duration": 0.15625
                },
                {
                    "name": "G4",
                    "midi": 67,
                    "time": 359.0625,
                    "velocity": 1,
                    "duration": 0.3125
                },
                {
                    "name": "G3",
                    "midi": 55,
                    "time": 359.21875,
                    "velocity": 1,
                    "duration": 0.15625
                },
                {
                    "name": "F#4",
                    "midi": 66,
                    "time": 359.375,
                    "velocity": 1,
                    "duration": 0.15625
                },
                {
                    "name": "F#4",
                    "midi": 66,
                    "time": 359.375,
                    "velocity": 1,
                    "duration": 0.3125
                },
                {
                    "name": "D3",
                    "midi": 50,
                    "time": 359.53125,
                    "velocity": 1,
                    "duration": 0.15625
                },
                {
                    "name": "F4",
                    "midi": 65,
                    "time": 359.6875,
                    "velocity": 1,
                    "duration": 0.15625
                },
                {
                    "name": "F4",
                    "midi": 65,
                    "time": 359.6875,
                    "velocity": 1,
                    "duration": 0.3125
                },
                {
                    "name": "G3",
                    "midi": 55,
                    "time": 359.84375,
                    "velocity": 1,
                    "duration": 0.15625
                },
                {
                    "name": "E4",
                    "midi": 64,
                    "time": 360,
                    "velocity": 1,
                    "duration": 0.15625
                },
                {
                    "name": "E4",
                    "midi": 64,
                    "time": 360,
                    "velocity": 1,
                    "duration": 0.3125
                },
                {
                    "name": "C3",
                    "midi": 48,
                    "time": 360.15625,
                    "velocity": 1,
                    "duration": 0.15625
                },
                {
                    "name": "B4",
                    "midi": 71,
                    "time": 360.3125,
                    "velocity": 1,
                    "duration": 0.15625
                },
                {
                    "name": "B4",
                    "midi": 71,
                    "time": 360.3125,
                    "velocity": 1,
                    "duration": 0.3125
                },
                {
                    "name": "B3",
                    "midi": 59,
                    "time": 360.46875,
                    "velocity": 1,
                    "duration": 0.15625
                },
                {
                    "name": "A#4",
                    "midi": 70,
                    "time": 360.625,
                    "velocity": 1,
                    "duration": 0.15625
                },
                {
                    "name": "A#4",
                    "midi": 70,
                    "time": 360.625,
                    "velocity": 1,
                    "duration": 0.3125
                },
                {
                    "name": "F#3",
                    "midi": 54,
                    "time": 360.78125,
                    "velocity": 1,
                    "duration": 0.15625
                },
                {
                    "name": "A4",
                    "midi": 69,
                    "time": 360.9375,
                    "velocity": 1,
                    "duration": 0.15625
                },
                {
                    "name": "A4",
                    "midi": 69,
                    "time": 360.9375,
                    "velocity": 1,
                    "duration": 0.3125
                },
                {
                    "name": "B3",
                    "midi": 59,
                    "time": 361.09375,
                    "velocity": 1,
                    "duration": 0.15625
                },
                {
                    "name": "G#4",
                    "midi": 68,
                    "time": 361.25,
                    "velocity": 1,
                    "duration": 0.15625
                },
                {
                    "name": "G#4",
                    "midi": 68,
                    "time": 361.25,
                    "velocity": 1,
                    "duration": 0.3125
                },
                {
                    "name": "E3",
                    "midi": 52,
                    "time": 361.40625,
                    "velocity": 1,
                    "duration": 0.15625
                },
                {
                    "name": "G4",
                    "midi": 67,
                    "time": 361.5625,
                    "velocity": 1,
                    "duration": 0.15625
                },
                {
                    "name": "G4",
                    "midi": 67,
                    "time": 361.5625,
                    "velocity": 1,
                    "duration": 0.3125
                },
                {
                    "name": "G3",
                    "midi": 55,
                    "time": 361.71875,
                    "velocity": 1,
                    "duration": 0.15625
                },
                {
                    "name": "F#4",
                    "midi": 66,
                    "time": 361.875,
                    "velocity": 1,
                    "duration": 0.15625
                },
                {
                    "name": "F#4",
                    "midi": 66,
                    "time": 361.875,
                    "velocity": 1,
                    "duration": 0.3125
                },
                {
                    "name": "D3",
                    "midi": 50,
                    "time": 362.03125,
                    "velocity": 1,
                    "duration": 0.15625
                },
                {
                    "name": "F4",
                    "midi": 65,
                    "time": 362.1875,
                    "velocity": 1,
                    "duration": 0.15625
                },
                {
                    "name": "F4",
                    "midi": 65,
                    "time": 362.1875,
                    "velocity": 1,
                    "duration": 0.3125
                },
                {
                    "name": "G3",
                    "midi": 55,
                    "time": 362.34375,
                    "velocity": 1,
                    "duration": 0.15625
                },
                {
                    "name": "E4",
                    "midi": 64,
                    "time": 362.5,
                    "velocity": 0.9448818897637795,
                    "duration": 0.15625
                },
                {
                    "name": "E4",
                    "midi": 64,
                    "time": 362.5,
                    "velocity": 0.9448818897637795,
                    "duration": 0.3125
                },
                {
                    "name": "C3",
                    "midi": 48,
                    "time": 362.65625,
                    "velocity": 0.9212598425196851,
                    "duration": 0.15625
                },
                {
                    "name": "D#4",
                    "midi": 63,
                    "time": 362.8125,
                    "velocity": 0.905511811023622,
                    "duration": 0.15625
                },
                {
                    "name": "D#4",
                    "midi": 63,
                    "time": 362.8125,
                    "velocity": 0.905511811023622,
                    "duration": 0.3125
                },
                {
                    "name": "G3",
                    "midi": 55,
                    "time": 362.96875,
                    "velocity": 0.8818897637795275,
                    "duration": 0.15625
                },
                {
                    "name": "D4",
                    "midi": 62,
                    "time": 363.125,
                    "velocity": 0.8661417322834646,
                    "duration": 0.15625
                },
                {
                    "name": "D4",
                    "midi": 62,
                    "time": 363.125,
                    "velocity": 0.8661417322834646,
                    "duration": 0.3125
                },
                {
                    "name": "D3",
                    "midi": 50,
                    "time": 363.28125,
                    "velocity": 0.84251968503937,
                    "duration": 0.15625
                },
                {
                    "name": "C4",
                    "midi": 60,
                    "time": 363.4375,
                    "velocity": 0.8267716535433071,
                    "duration": 0.15625
                },
                {
                    "name": "C4",
                    "midi": 60,
                    "time": 363.4375,
                    "velocity": 0.8267716535433071,
                    "duration": 0.3125
                },
                {
                    "name": "F#3",
                    "midi": 54,
                    "time": 363.59375,
                    "velocity": 0.8031496062992126,
                    "duration": 0.15625
                },
                {
                    "name": "B3",
                    "midi": 59,
                    "time": 363.75,
                    "velocity": 0.7874015748031497,
                    "duration": 0.15625
                },
                {
                    "name": "B3",
                    "midi": 59,
                    "time": 363.75,
                    "velocity": 0.7874015748031497,
                    "duration": 0.3125
                },
                {
                    "name": "G2",
                    "midi": 43,
                    "time": 363.90625,
                    "velocity": 0.7637795275590551,
                    "duration": 0.15625
                },
                {
                    "name": "A#3",
                    "midi": 58,
                    "time": 364.0625,
                    "velocity": 0.7480314960629921,
                    "duration": 0.15625
                },
                {
                    "name": "A#3",
                    "midi": 58,
                    "time": 364.0625,
                    "velocity": 0.7480314960629921,
                    "duration": 0.3125
                },
                {
                    "name": "D3",
                    "midi": 50,
                    "time": 364.21875,
                    "velocity": 0.7244094488188977,
                    "duration": 0.15625
                },
                {
                    "name": "A3",
                    "midi": 57,
                    "time": 364.375,
                    "velocity": 0.7086614173228346,
                    "duration": 0.15625
                },
                {
                    "name": "A3",
                    "midi": 57,
                    "time": 364.375,
                    "velocity": 0.7086614173228346,
                    "duration": 0.3125
                },
                {
                    "name": "A2",
                    "midi": 45,
                    "time": 364.53125,
                    "velocity": 0.6850393700787402,
                    "duration": 0.15625
                },
                {
                    "name": "G3",
                    "midi": 55,
                    "time": 364.6875,
                    "velocity": 0.6692913385826772,
                    "duration": 0.15625
                },
                {
                    "name": "G3",
                    "midi": 55,
                    "time": 364.6875,
                    "velocity": 0.6692913385826772,
                    "duration": 0.3125
                },
                {
                    "name": "C#3",
                    "midi": 49,
                    "time": 364.84375,
                    "velocity": 0.6456692913385826,
                    "duration": 0.15625
                },
                {
                    "name": "F#3",
                    "midi": 54,
                    "time": 365,
                    "velocity": 0.6299212598425197,
                    "duration": 0.15625
                },
                {
                    "name": "F#3",
                    "midi": 54,
                    "time": 365,
                    "velocity": 0.6299212598425197,
                    "duration": 0.3125
                },
                {
                    "name": "D2",
                    "midi": 38,
                    "time": 365.15625,
                    "velocity": 0.6062992125984252,
                    "duration": 0.15625
                },
                {
                    "name": "F3",
                    "midi": 53,
                    "time": 365.3125,
                    "velocity": 0.5905511811023622,
                    "duration": 0.15625
                },
                {
                    "name": "F3",
                    "midi": 53,
                    "time": 365.3125,
                    "velocity": 0.5905511811023622,
                    "duration": 0.3125
                },
                {
                    "name": "A2",
                    "midi": 45,
                    "time": 365.46875,
                    "velocity": 0.5669291338582677,
                    "duration": 0.15625
                },
                {
                    "name": "E3",
                    "midi": 52,
                    "time": 365.625,
                    "velocity": 0.5511811023622047,
                    "duration": 0.15625
                },
                {
                    "name": "E3",
                    "midi": 52,
                    "time": 365.625,
                    "velocity": 0.5511811023622047,
                    "duration": 0.3125
                },
                {
                    "name": "E2",
                    "midi": 40,
                    "time": 365.78125,
                    "velocity": 0.5275590551181102,
                    "duration": 0.15625
                },
                {
                    "name": "D3",
                    "midi": 50,
                    "time": 365.9375,
                    "velocity": 0.5118110236220472,
                    "duration": 0.15625
                },
                {
                    "name": "D3",
                    "midi": 50,
                    "time": 365.9375,
                    "velocity": 0.5118110236220472,
                    "duration": 0.3125
                },
                {
                    "name": "G#2",
                    "midi": 44,
                    "time": 366.09375,
                    "velocity": 0.4881889763779528,
                    "duration": 0.15625
                },
                {
                    "name": "C3",
                    "midi": 48,
                    "time": 366.25,
                    "velocity": 0.47244094488188976,
                    "duration": 0.15625
                },
                {
                    "name": "C3",
                    "midi": 48,
                    "time": 366.25,
                    "velocity": 0.47244094488188976,
                    "duration": 0.3125
                },
                {
                    "name": "A2",
                    "midi": 45,
                    "time": 366.40625,
                    "velocity": 0.44881889763779526,
                    "duration": 0.15625
                },
                {
                    "name": "G2",
                    "midi": 43,
                    "time": 366.5625,
                    "velocity": 0.4330708661417323,
                    "duration": 0.15625
                },
                {
                    "name": "F#2",
                    "midi": 42,
                    "time": 366.71875,
                    "velocity": 0.4094488188976378,
                    "duration": 0.15625
                },
                {
                    "name": "G2",
                    "midi": 43,
                    "time": 366.875,
                    "velocity": 0.3937007874015748,
                    "duration": 0.15625
                },
                {
                    "name": "G1",
                    "midi": 31,
                    "time": 367.03125,
                    "velocity": 0.3700787401574803,
                    "duration": 0.15625
                },
                {
                    "name": "G2",
                    "midi": 43,
                    "time": 367.1875,
                    "velocity": 0.3543307086614173,
                    "duration": 0.15625
                },
                {
                    "name": "G1",
                    "midi": 31,
                    "time": 367.34375,
                    "velocity": 0.33070866141732286,
                    "duration": 0.15625
                },
                {
                    "name": "E3",
                    "midi": 52,
                    "time": 367.5,
                    "velocity": 0.3937007874015748,
                    "duration": 0.625
                },
                {
                    "name": "C2",
                    "midi": 36,
                    "time": 367.5,
                    "velocity": 0.3937007874015748,
                    "duration": 1.25
                },
                {
                    "name": "C3",
                    "midi": 48,
                    "time": 368.125,
                    "velocity": 0.3937007874015748,
                    "duration": 0.46875
                },
                {
                    "name": "A2",
                    "midi": 45,
                    "time": 368.59375,
                    "velocity": 0.3937007874015748,
                    "duration": 0.15625
                },
                {
                    "name": "G2",
                    "midi": 43,
                    "time": 368.75,
                    "velocity": 0.3937007874015748,
                    "duration": 1.09375
                },
                {
                    "name": "C2",
                    "midi": 36,
                    "time": 368.75,
                    "velocity": 0.3937007874015748,
                    "duration": 1.25
                },
                {
                    "name": "E3",
                    "midi": 52,
                    "time": 369.84375,
                    "velocity": 0.3937007874015748,
                    "duration": 0.15625
                },
                {
                    "name": "D3",
                    "midi": 50,
                    "time": 370,
                    "velocity": 0.3937007874015748,
                    "duration": 0.46875
                },
                {
                    "name": "C2",
                    "midi": 36,
                    "time": 370,
                    "velocity": 0.3937007874015748,
                    "duration": 0.625
                },
                {
                    "name": "G#2",
                    "midi": 44,
                    "time": 370.46875,
                    "velocity": 0.3937007874015748,
                    "duration": 0.15625
                },
                {
                    "name": "G2",
                    "midi": 43,
                    "time": 370.625,
                    "velocity": 0.3937007874015748,
                    "duration": 0.46875
                },
                {
                    "name": "C2",
                    "midi": 36,
                    "time": 370.625,
                    "velocity": 0.3937007874015748,
                    "duration": 0.625
                },
                {
                    "name": "B2",
                    "midi": 47,
                    "time": 371.09375,
                    "velocity": 0.3937007874015748,
                    "duration": 0.15625
                },
                {
                    "name": "C2",
                    "midi": 36,
                    "time": 371.25,
                    "velocity": 0.3937007874015748,
                    "duration": 0.9375
                },
                {
                    "name": "C3",
                    "midi": 48,
                    "time": 371.25,
                    "velocity": 0.3937007874015748,
                    "duration": 0.9375
                },
                {
                    "name": "A2",
                    "midi": 45,
                    "time": 372.34375,
                    "velocity": 0.3937007874015748,
                    "duration": 0.15625
                },
                {
                    "name": "G2",
                    "midi": 43,
                    "time": 372.5,
                    "velocity": 0.15748031496062992,
                    "duration": 0.15625
                },
                {
                    "name": "C2",
                    "midi": 36,
                    "time": 372.5,
                    "velocity": 0.15748031496062992,
                    "duration": 1.25
                },
                {
                    "name": "F#2",
                    "midi": 42,
                    "time": 372.65625,
                    "velocity": 0.15748031496062992,
                    "duration": 0.15625
                },
                {
                    "name": "G2",
                    "midi": 43,
                    "time": 372.8125,
                    "velocity": 0.15748031496062992,
                    "duration": 0.15625
                },
                {
                    "name": "F#2",
                    "midi": 42,
                    "time": 372.96875,
                    "velocity": 0.15748031496062992,
                    "duration": 0.15625
                },
                {
                    "name": "G2",
                    "midi": 43,
                    "time": 373.125,
                    "velocity": 0.15748031496062992,
                    "duration": 0.15625
                },
                {
                    "name": "F#2",
                    "midi": 42,
                    "time": 373.28125,
                    "velocity": 0.15748031496062992,
                    "duration": 0.15625
                },
                {
                    "name": "G2",
                    "midi": 43,
                    "time": 373.4375,
                    "velocity": 0.15748031496062992,
                    "duration": 0.15625
                },
                {
                    "name": "C3",
                    "midi": 48,
                    "time": 373.59375,
                    "velocity": 0.15748031496062992,
                    "duration": 0.15625
                },
                {
                    "name": "E3",
                    "midi": 52,
                    "time": 373.75,
                    "velocity": 0.15748031496062992,
                    "duration": 0.15625
                },
                {
                    "name": "C2",
                    "midi": 36,
                    "time": 373.75,
                    "velocity": 0.15748031496062992,
                    "duration": 1.25
                },
                {
                    "name": "G2",
                    "midi": 43,
                    "time": 373.75,
                    "velocity": 0.15748031496062992,
                    "duration": 1.25
                },
                {
                    "name": "D#3",
                    "midi": 51,
                    "time": 373.90625,
                    "velocity": 0.15748031496062992,
                    "duration": 0.15625
                },
                {
                    "name": "E3",
                    "midi": 52,
                    "time": 374.0625,
                    "velocity": 0.15748031496062992,
                    "duration": 0.15625
                },
                {
                    "name": "D#3",
                    "midi": 51,
                    "time": 374.21875,
                    "velocity": 0.15748031496062992,
                    "duration": 0.15625
                },
                {
                    "name": "E3",
                    "midi": 52,
                    "time": 374.375,
                    "velocity": 0.15748031496062992,
                    "duration": 0.15625
                },
                {
                    "name": "D#3",
                    "midi": 51,
                    "time": 374.53125,
                    "velocity": 0.15748031496062992,
                    "duration": 0.15625
                },
                {
                    "name": "E3",
                    "midi": 52,
                    "time": 374.6875,
                    "velocity": 0.15748031496062992,
                    "duration": 0.15625
                },
                {
                    "name": "C3",
                    "midi": 48,
                    "time": 374.84375,
                    "velocity": 0.15748031496062992,
                    "duration": 0.15625
                },
                {
                    "name": "F3",
                    "midi": 53,
                    "time": 375,
                    "velocity": 0.15748031496062992,
                    "duration": 0.15625
                },
                {
                    "name": "F2",
                    "midi": 41,
                    "time": 375,
                    "velocity": 0.15748031496062992,
                    "duration": 0.625
                },
                {
                    "name": "G#2",
                    "midi": 44,
                    "time": 375,
                    "velocity": 0.15748031496062992,
                    "duration": 0.625
                },
                {
                    "name": "E3",
                    "midi": 52,
                    "time": 375.15625,
                    "velocity": 0.15748031496062992,
                    "duration": 0.15625
                },
                {
                    "name": "F3",
                    "midi": 53,
                    "time": 375.3125,
                    "velocity": 0.15748031496062992,
                    "duration": 0.15625
                },
                {
                    "name": "C3",
                    "midi": 48,
                    "time": 375.46875,
                    "velocity": 0.15748031496062992,
                    "duration": 0.15625
                },
                {
                    "name": "B2",
                    "midi": 47,
                    "time": 375.625,
                    "velocity": 0.15748031496062992,
                    "duration": 0.15625
                },
                {
                    "name": "G2",
                    "midi": 43,
                    "time": 375.625,
                    "velocity": 0.15748031496062992,
                    "duration": 0.625
                },
                {
                    "name": "A#2",
                    "midi": 46,
                    "time": 375.78125,
                    "velocity": 0.15748031496062992,
                    "duration": 0.15625
                },
                {
                    "name": "B2",
                    "midi": 47,
                    "time": 375.9375,
                    "velocity": 0.15748031496062992,
                    "duration": 0.15625
                },
                {
                    "name": "D3",
                    "midi": 50,
                    "time": 376.09375,
                    "velocity": 0.15748031496062992,
                    "duration": 0.15625
                },
                {
                    "name": "C2",
                    "midi": 36,
                    "time": 376.25,
                    "velocity": 0.15748031496062992,
                    "duration": 1.09375
                },
                {
                    "name": "G2",
                    "midi": 43,
                    "time": 376.25,
                    "velocity": 0.15748031496062992,
                    "duration": 1.09375
                },
                {
                    "name": "C3",
                    "midi": 48,
                    "time": 377.34375,
                    "velocity": 0.15748031496062992,
                    "duration": 0.78125
                },
                {
                    "name": "E3",
                    "midi": 52,
                    "time": 377.65625,
                    "velocity": 0.14173228346456693,
                    "duration": 0.3125
                },
                {
                    "name": "A3",
                    "midi": 57,
                    "time": 377.8125,
                    "velocity": 0.14173228346456693,
                    "duration": 0.15625
                },
                {
                    "name": "D#3",
                    "midi": 51,
                    "time": 377.96875,
                    "velocity": 0.14173228346456693,
                    "duration": 0.15625
                },
                {
                    "name": "D3",
                    "midi": 50,
                    "time": 378.125,
                    "velocity": 0.14173228346456693,
                    "duration": 0.15625
                },
                {
                    "name": "B2",
                    "midi": 47,
                    "time": 378.125,
                    "velocity": 0.14173228346456693,
                    "duration": 0.3125
                },
                {
                    "name": "G3",
                    "midi": 55,
                    "time": 378.28125,
                    "velocity": 0.14173228346456693,
                    "duration": 0.15625
                },
                {
                    "name": "B3",
                    "midi": 59,
                    "time": 378.4375,
                    "velocity": 0.14173228346456693,
                    "duration": 0.15625
                },
                {
                    "name": "D3",
                    "midi": 50,
                    "time": 378.59375,
                    "velocity": 0.14173228346456693,
                    "duration": 0.15625
                },
                {
                    "name": "A2",
                    "midi": 45,
                    "time": 378.75,
                    "velocity": 0.14173228346456693,
                    "duration": 0.15625
                },
                {
                    "name": "A2",
                    "midi": 45,
                    "time": 378.75,
                    "velocity": 0.14173228346456693,
                    "duration": 0.3125
                },
                {
                    "name": "G3",
                    "midi": 55,
                    "time": 378.90625,
                    "velocity": 0.14173228346456693,
                    "duration": 0.15625
                },
                {
                    "name": "D3",
                    "midi": 50,
                    "time": 379.0625,
                    "velocity": 0.14173228346456693,
                    "duration": 0.15625
                },
                {
                    "name": "D3",
                    "midi": 50,
                    "time": 379.0625,
                    "velocity": 0.14173228346456693,
                    "duration": 0.3125
                },
                {
                    "name": "F#3",
                    "midi": 54,
                    "time": 379.21875,
                    "velocity": 0.14173228346456693,
                    "duration": 0.15625
                },
                {
                    "name": "G2",
                    "midi": 43,
                    "time": 379.375,
                    "velocity": 0.14173228346456693,
                    "duration": 0.15625
                },
                {
                    "name": "G2",
                    "midi": 43,
                    "time": 379.375,
                    "velocity": 0.14173228346456693,
                    "duration": 0.46875
                },
                {
                    "name": "D3",
                    "midi": 50,
                    "time": 379.53125,
                    "velocity": 0.14173228346456693,
                    "duration": 0.15625
                },
                {
                    "name": "G3",
                    "midi": 55,
                    "time": 379.6875,
                    "velocity": 0.14173228346456693,
                    "duration": 0.15625
                },
                {
                    "name": "F2",
                    "midi": 41,
                    "time": 379.84375,
                    "velocity": 0.14173228346456693,
                    "duration": 0.78125
                },
                {
                    "name": "A2",
                    "midi": 45,
                    "time": 380.15625,
                    "velocity": 0.14173228346456693,
                    "duration": 0.3125
                },
                {
                    "name": "D3",
                    "midi": 50,
                    "time": 380.3125,
                    "velocity": 0.14173228346456693,
                    "duration": 0.15625
                },
                {
                    "name": "G#2",
                    "midi": 44,
                    "time": 380.46875,
                    "velocity": 0.14173228346456693,
                    "duration": 0.15625
                },
                {
                    "name": "G2",
                    "midi": 43,
                    "time": 380.625,
                    "velocity": 0.14173228346456693,
                    "duration": 0.15625
                },
                {
                    "name": "E2",
                    "midi": 40,
                    "time": 380.625,
                    "velocity": 0.14173228346456693,
                    "duration": 0.3125
                },
                {
                    "name": "C3",
                    "midi": 48,
                    "time": 380.78125,
                    "velocity": 0.14173228346456693,
                    "duration": 0.15625
                },
                {
                    "name": "E3",
                    "midi": 52,
                    "time": 380.9375,
                    "velocity": 0.14173228346456693,
                    "duration": 0.15625
                },
                {
                    "name": "G2",
                    "midi": 43,
                    "time": 381.09375,
                    "velocity": 0.14173228346456693,
                    "duration": 0.15625
                },
                {
                    "name": "D2",
                    "midi": 38,
                    "time": 381.25,
                    "velocity": 0.14173228346456693,
                    "duration": 0.15625
                },
                {
                    "name": "D2",
                    "midi": 38,
                    "time": 381.25,
                    "velocity": 0.14173228346456693,
                    "duration": 0.3125
                },
                {
                    "name": "C3",
                    "midi": 48,
                    "time": 381.40625,
                    "velocity": 0.14173228346456693,
                    "duration": 0.15625
                },
                {
                    "name": "G2",
                    "midi": 43,
                    "time": 381.5625,
                    "velocity": 0.14173228346456693,
                    "duration": 0.15625
                },
                {
                    "name": "G2",
                    "midi": 43,
                    "time": 381.5625,
                    "velocity": 0.14173228346456693,
                    "duration": 0.3125
                },
                {
                    "name": "B2",
                    "midi": 47,
                    "time": 381.71875,
                    "velocity": 0.14173228346456693,
                    "duration": 0.15625
                },
                {
                    "name": "C2",
                    "midi": 36,
                    "time": 381.875,
                    "velocity": 0.14173228346456693,
                    "duration": 0.15625
                },
                {
                    "name": "C2",
                    "midi": 36,
                    "time": 381.875,
                    "velocity": 0.14173228346456693,
                    "duration": 0.46875
                },
                {
                    "name": "G2",
                    "midi": 43,
                    "time": 382.03125,
                    "velocity": 0.14173228346456693,
                    "duration": 0.15625
                },
                {
                    "name": "C3",
                    "midi": 48,
                    "time": 382.1875,
                    "velocity": 0.14173228346456693,
                    "duration": 0.15625
                },
                {
                    "name": "C3",
                    "midi": 48,
                    "time": 382.34375,
                    "velocity": 0.14173228346456693,
                    "duration": 0.78125
                },
                {
                    "name": "E3",
                    "midi": 52,
                    "time": 382.65625,
                    "velocity": 0.14173228346456693,
                    "duration": 0.3125
                },
                {
                    "name": "A3",
                    "midi": 57,
                    "time": 382.8125,
                    "velocity": 0.14173228346456693,
                    "duration": 0.15625
                },
                {
                    "name": "D#3",
                    "midi": 51,
                    "time": 382.96875,
                    "velocity": 0.14173228346456693,
                    "duration": 0.15625
                },
                {
                    "name": "D3",
                    "midi": 50,
                    "time": 383.125,
                    "velocity": 0.14173228346456693,
                    "duration": 0.15625
                },
                {
                    "name": "B2",
                    "midi": 47,
                    "time": 383.125,
                    "velocity": 0.14173228346456693,
                    "duration": 0.3125
                },
                {
                    "name": "G3",
                    "midi": 55,
                    "time": 383.28125,
                    "velocity": 0.14173228346456693,
                    "duration": 0.15625
                },
                {
                    "name": "B3",
                    "midi": 59,
                    "time": 383.4375,
                    "velocity": 0.14173228346456693,
                    "duration": 0.15625
                },
                {
                    "name": "D3",
                    "midi": 50,
                    "time": 383.59375,
                    "velocity": 0.14173228346456693,
                    "duration": 0.15625
                },
                {
                    "name": "A2",
                    "midi": 45,
                    "time": 383.75,
                    "velocity": 0.14173228346456693,
                    "duration": 0.15625
                },
                {
                    "name": "A2",
                    "midi": 45,
                    "time": 383.75,
                    "velocity": 0.14173228346456693,
                    "duration": 0.3125
                },
                {
                    "name": "G3",
                    "midi": 55,
                    "time": 383.90625,
                    "velocity": 0.14173228346456693,
                    "duration": 0.15625
                },
                {
                    "name": "D3",
                    "midi": 50,
                    "time": 384.0625,
                    "velocity": 0.14173228346456693,
                    "duration": 0.15625
                },
                {
                    "name": "D3",
                    "midi": 50,
                    "time": 384.0625,
                    "velocity": 0.14173228346456693,
                    "duration": 0.3125
                },
                {
                    "name": "F#3",
                    "midi": 54,
                    "time": 384.21875,
                    "velocity": 0.14173228346456693,
                    "duration": 0.15625
                },
                {
                    "name": "G2",
                    "midi": 43,
                    "time": 384.375,
                    "velocity": 0.14173228346456693,
                    "duration": 0.15625
                },
                {
                    "name": "G2",
                    "midi": 43,
                    "time": 384.375,
                    "velocity": 0.14173228346456693,
                    "duration": 0.46875
                },
                {
                    "name": "D3",
                    "midi": 50,
                    "time": 384.53125,
                    "velocity": 0.14173228346456693,
                    "duration": 0.15625
                },
                {
                    "name": "G3",
                    "midi": 55,
                    "time": 384.6875,
                    "velocity": 0.14173228346456693,
                    "duration": 0.15625
                },
                {
                    "name": "F2",
                    "midi": 41,
                    "time": 384.84375,
                    "velocity": 0.14173228346456693,
                    "duration": 0.78125
                },
                {
                    "name": "A2",
                    "midi": 45,
                    "time": 385.15625,
                    "velocity": 0.14173228346456693,
                    "duration": 0.3125
                },
                {
                    "name": "D3",
                    "midi": 50,
                    "time": 385.3125,
                    "velocity": 0.14173228346456693,
                    "duration": 0.15625
                },
                {
                    "name": "G#2",
                    "midi": 44,
                    "time": 385.46875,
                    "velocity": 0.14173228346456693,
                    "duration": 0.15625
                },
                {
                    "name": "G2",
                    "midi": 43,
                    "time": 385.625,
                    "velocity": 0.14173228346456693,
                    "duration": 0.15625
                },
                {
                    "name": "E2",
                    "midi": 40,
                    "time": 385.625,
                    "velocity": 0.14173228346456693,
                    "duration": 0.3125
                },
                {
                    "name": "C3",
                    "midi": 48,
                    "time": 385.78125,
                    "velocity": 0.14173228346456693,
                    "duration": 0.15625
                },
                {
                    "name": "E3",
                    "midi": 52,
                    "time": 385.9375,
                    "velocity": 0.14173228346456693,
                    "duration": 0.15625
                },
                {
                    "name": "G2",
                    "midi": 43,
                    "time": 386.09375,
                    "velocity": 0.14173228346456693,
                    "duration": 0.15625
                },
                {
                    "name": "F2",
                    "midi": 41,
                    "time": 386.25,
                    "velocity": 0.14173228346456693,
                    "duration": 0.15625
                },
                {
                    "name": "F2",
                    "midi": 41,
                    "time": 386.25,
                    "velocity": 0.14173228346456693,
                    "duration": 0.3125
                },
                {
                    "name": "C3",
                    "midi": 48,
                    "time": 386.40625,
                    "velocity": 0.14173228346456693,
                    "duration": 0.15625
                },
                {
                    "name": "F#2",
                    "midi": 42,
                    "time": 386.5625,
                    "velocity": 0.14173228346456693,
                    "duration": 0.15625
                },
                {
                    "name": "F#2",
                    "midi": 42,
                    "time": 386.5625,
                    "velocity": 0.14173228346456693,
                    "duration": 0.3125
                },
                {
                    "name": "C3",
                    "midi": 48,
                    "time": 386.71875,
                    "velocity": 0.14173228346456693,
                    "duration": 0.15625
                },
                {
                    "name": "G2",
                    "midi": 43,
                    "time": 386.875,
                    "velocity": 0.14173228346456693,
                    "duration": 0.15625
                },
                {
                    "name": "G2",
                    "midi": 43,
                    "time": 386.875,
                    "velocity": 0.14173228346456693,
                    "duration": 0.3125
                },
                {
                    "name": "C3",
                    "midi": 48,
                    "time": 387.03125,
                    "velocity": 0.14173228346456693,
                    "duration": 0.235595703125
                },
                {
                    "name": "G2",
                    "midi": 43,
                    "time": 387.34375,
                    "velocity": 0.937007874015748,
                    "duration": 0.15625
                },
                {
                    "name": "G3",
                    "midi": 55,
                    "time": 387.34375,
                    "velocity": 0.937007874015748,
                    "duration": 0.15625
                },
                {
                    "name": "C2",
                    "midi": 36,
                    "time": 387.5,
                    "velocity": 0.937007874015748,
                    "duration": 0.15625
                },
                {
                    "name": "C3",
                    "midi": 48,
                    "time": 387.5,
                    "velocity": 0.937007874015748,
                    "duration": 0.15625
                },
                {
                    "name": "B3",
                    "midi": 59,
                    "time": 387.65625,
                    "velocity": 0.23622047244094488,
                    "duration": 0.15625
                },
                {
                    "name": "E3",
                    "midi": 52,
                    "time": 387.65625,
                    "velocity": 0.23622047244094488,
                    "duration": 0.3125
                },
                {
                    "name": "G3",
                    "midi": 55,
                    "time": 387.65625,
                    "velocity": 0.23622047244094488,
                    "duration": 0.3125
                },
                {
                    "name": "C4",
                    "midi": 60,
                    "time": 387.8125,
                    "velocity": 0.23622047244094488,
                    "duration": 0.15625
                },
                {
                    "name": "C#4",
                    "midi": 61,
                    "time": 387.96875,
                    "velocity": 0.23622047244094488,
                    "duration": 0.15625
                },
                {
                    "name": "F3",
                    "midi": 53,
                    "time": 387.96875,
                    "velocity": 0.23622047244094488,
                    "duration": 0.3125
                },
                {
                    "name": "A3",
                    "midi": 57,
                    "time": 387.96875,
                    "velocity": 0.23622047244094488,
                    "duration": 0.3125
                },
                {
                    "name": "D4",
                    "midi": 62,
                    "time": 388.125,
                    "velocity": 0.23622047244094488,
                    "duration": 0.15625
                },
                {
                    "name": "A#3",
                    "midi": 58,
                    "time": 388.28125,
                    "velocity": 0.23622047244094488,
                    "duration": 0.15625
                },
                {
                    "name": "D3",
                    "midi": 50,
                    "time": 388.28125,
                    "velocity": 0.23622047244094488,
                    "duration": 0.3125
                },
                {
                    "name": "F3",
                    "midi": 53,
                    "time": 388.28125,
                    "velocity": 0.23622047244094488,
                    "duration": 0.3125
                },
                {
                    "name": "B3",
                    "midi": 59,
                    "time": 388.4375,
                    "velocity": 0.23622047244094488,
                    "duration": 0.15625
                },
                {
                    "name": "G2",
                    "midi": 43,
                    "time": 388.59375,
                    "velocity": 0.937007874015748,
                    "duration": 0.15625
                },
                {
                    "name": "G3",
                    "midi": 55,
                    "time": 388.59375,
                    "velocity": 0.937007874015748,
                    "duration": 0.15625
                },
                {
                    "name": "C2",
                    "midi": 36,
                    "time": 388.75,
                    "velocity": 0.937007874015748,
                    "duration": 0.15625
                },
                {
                    "name": "C3",
                    "midi": 48,
                    "time": 388.75,
                    "velocity": 0.937007874015748,
                    "duration": 0.15625
                },
                {
                    "name": "B3",
                    "midi": 59,
                    "time": 388.90625,
                    "velocity": 0.23622047244094488,
                    "duration": 0.15625
                },
                {
                    "name": "E3",
                    "midi": 52,
                    "time": 388.90625,
                    "velocity": 0.23622047244094488,
                    "duration": 0.3125
                },
                {
                    "name": "G3",
                    "midi": 55,
                    "time": 388.90625,
                    "velocity": 0.23622047244094488,
                    "duration": 0.3125
                },
                {
                    "name": "C4",
                    "midi": 60,
                    "time": 389.0625,
                    "velocity": 0.23622047244094488,
                    "duration": 0.15625
                },
                {
                    "name": "C#4",
                    "midi": 61,
                    "time": 389.21875,
                    "velocity": 0.23622047244094488,
                    "duration": 0.15625
                },
                {
                    "name": "F3",
                    "midi": 53,
                    "time": 389.21875,
                    "velocity": 0.23622047244094488,
                    "duration": 0.3125
                },
                {
                    "name": "A3",
                    "midi": 57,
                    "time": 389.21875,
                    "velocity": 0.23622047244094488,
                    "duration": 0.3125
                },
                {
                    "name": "D4",
                    "midi": 62,
                    "time": 389.375,
                    "velocity": 0.23622047244094488,
                    "duration": 0.15625
                },
                {
                    "name": "A#3",
                    "midi": 58,
                    "time": 389.53125,
                    "velocity": 0.23622047244094488,
                    "duration": 0.15625
                },
                {
                    "name": "D3",
                    "midi": 50,
                    "time": 389.53125,
                    "velocity": 0.23622047244094488,
                    "duration": 0.3125
                },
                {
                    "name": "F3",
                    "midi": 53,
                    "time": 389.53125,
                    "velocity": 0.23622047244094488,
                    "duration": 0.3125
                },
                {
                    "name": "B3",
                    "midi": 59,
                    "time": 389.6875,
                    "velocity": 0.23622047244094488,
                    "duration": 0.15625
                },
                {
                    "name": "G2",
                    "midi": 43,
                    "time": 389.84375,
                    "velocity": 0.937007874015748,
                    "duration": 0.15625
                },
                {
                    "name": "G3",
                    "midi": 55,
                    "time": 389.84375,
                    "velocity": 0.937007874015748,
                    "duration": 0.15625
                },
                {
                    "name": "C2",
                    "midi": 36,
                    "time": 390,
                    "velocity": 0.937007874015748,
                    "duration": 0.15625
                },
                {
                    "name": "C3",
                    "midi": 48,
                    "time": 390,
                    "velocity": 0.937007874015748,
                    "duration": 0.15625
                },
                {
                    "name": "B3",
                    "midi": 59,
                    "time": 390.15625,
                    "velocity": 0.23622047244094488,
                    "duration": 0.15625
                },
                {
                    "name": "E3",
                    "midi": 52,
                    "time": 390.15625,
                    "velocity": 0.23622047244094488,
                    "duration": 0.3125
                },
                {
                    "name": "G3",
                    "midi": 55,
                    "time": 390.15625,
                    "velocity": 0.23622047244094488,
                    "duration": 0.3125
                },
                {
                    "name": "C4",
                    "midi": 60,
                    "time": 390.3125,
                    "velocity": 0.23622047244094488,
                    "duration": 0.15625
                },
                {
                    "name": "C#4",
                    "midi": 61,
                    "time": 390.46875,
                    "velocity": 0.23622047244094488,
                    "duration": 0.15625
                },
                {
                    "name": "F3",
                    "midi": 53,
                    "time": 390.46875,
                    "velocity": 0.23622047244094488,
                    "duration": 0.3125
                },
                {
                    "name": "A3",
                    "midi": 57,
                    "time": 390.46875,
                    "velocity": 0.23622047244094488,
                    "duration": 0.3125
                },
                {
                    "name": "D4",
                    "midi": 62,
                    "time": 390.625,
                    "velocity": 0.23622047244094488,
                    "duration": 0.15625
                },
                {
                    "name": "D#4",
                    "midi": 63,
                    "time": 390.78125,
                    "velocity": 0.23622047244094488,
                    "duration": 0.15625
                },
                {
                    "name": "G3",
                    "midi": 55,
                    "time": 390.78125,
                    "velocity": 0.23622047244094488,
                    "duration": 0.3125
                },
                {
                    "name": "A#3",
                    "midi": 58,
                    "time": 390.78125,
                    "velocity": 0.23622047244094488,
                    "duration": 0.3125
                },
                {
                    "name": "E4",
                    "midi": 64,
                    "time": 390.9375,
                    "velocity": 0.23622047244094488,
                    "duration": 0.15625
                },
                {
                    "name": "C3",
                    "midi": 48,
                    "time": 391.09375,
                    "velocity": 0.937007874015748,
                    "duration": 0.15625
                },
                {
                    "name": "C4",
                    "midi": 60,
                    "time": 391.09375,
                    "velocity": 0.937007874015748,
                    "duration": 0.15625
                },
                {
                    "name": "C2",
                    "midi": 36,
                    "time": 391.25,
                    "velocity": 0.937007874015748,
                    "duration": 0.15625
                },
                {
                    "name": "C3",
                    "midi": 48,
                    "time": 391.25,
                    "velocity": 0.937007874015748,
                    "duration": 0.15625
                },
                {
                    "name": "E4",
                    "midi": 64,
                    "time": 391.40625,
                    "velocity": 0.23622047244094488,
                    "duration": 0.15625
                },
                {
                    "name": "A3",
                    "midi": 57,
                    "time": 391.40625,
                    "velocity": 0.23622047244094488,
                    "duration": 0.3125
                },
                {
                    "name": "C4",
                    "midi": 60,
                    "time": 391.40625,
                    "velocity": 0.23622047244094488,
                    "duration": 0.3125
                },
                {
                    "name": "F4",
                    "midi": 65,
                    "time": 391.5625,
                    "velocity": 0.23622047244094488,
                    "duration": 0.15625
                },
                {
                    "name": "E4",
                    "midi": 64,
                    "time": 391.71875,
                    "velocity": 0.23622047244094488,
                    "duration": 0.15625
                },
                {
                    "name": "A#3",
                    "midi": 58,
                    "time": 391.71875,
                    "velocity": 0.23622047244094488,
                    "duration": 0.3125
                },
                {
                    "name": "C#4",
                    "midi": 61,
                    "time": 391.71875,
                    "velocity": 0.23622047244094488,
                    "duration": 0.3125
                },
                {
                    "name": "F4",
                    "midi": 65,
                    "time": 391.875,
                    "velocity": 0.23622047244094488,
                    "duration": 0.15625
                },
                {
                    "name": "F#4",
                    "midi": 66,
                    "time": 392.03125,
                    "velocity": 0.23622047244094488,
                    "duration": 0.15625
                },
                {
                    "name": "B3",
                    "midi": 59,
                    "time": 392.03125,
                    "velocity": 0.23622047244094488,
                    "duration": 0.3125
                },
                {
                    "name": "D4",
                    "midi": 62,
                    "time": 392.03125,
                    "velocity": 0.23622047244094488,
                    "duration": 0.3125
                },
                {
                    "name": "G4",
                    "midi": 67,
                    "time": 392.1875,
                    "velocity": 0.23622047244094488,
                    "duration": 0.15625
                },
                {
                    "name": "G3",
                    "midi": 55,
                    "time": 392.34375,
                    "velocity": 0.937007874015748,
                    "duration": 0.15625
                },
                {
                    "name": "G4",
                    "midi": 67,
                    "time": 392.34375,
                    "velocity": 0.937007874015748,
                    "duration": 0.15625
                },
                {
                    "name": "C3",
                    "midi": 48,
                    "time": 392.5,
                    "velocity": 0.937007874015748,
                    "duration": 0.15625
                },
                {
                    "name": "C4",
                    "midi": 60,
                    "time": 392.5,
                    "velocity": 0.937007874015748,
                    "duration": 0.15625
                },
                {
                    "name": "B4",
                    "midi": 71,
                    "time": 392.65625,
                    "velocity": 0.23622047244094488,
                    "duration": 0.15625
                },
                {
                    "name": "E4",
                    "midi": 64,
                    "time": 392.65625,
                    "velocity": 0.23622047244094488,
                    "duration": 0.3125
                },
                {
                    "name": "G4",
                    "midi": 67,
                    "time": 392.65625,
                    "velocity": 0.23622047244094488,
                    "duration": 0.3125
                },
                {
                    "name": "C5",
                    "midi": 72,
                    "time": 392.8125,
                    "velocity": 0.23622047244094488,
                    "duration": 0.15625
                },
                {
                    "name": "C#5",
                    "midi": 73,
                    "time": 392.96875,
                    "velocity": 0.23622047244094488,
                    "duration": 0.15625
                },
                {
                    "name": "F4",
                    "midi": 65,
                    "time": 392.96875,
                    "velocity": 0.23622047244094488,
                    "duration": 0.3125
                },
                {
                    "name": "A4",
                    "midi": 69,
                    "time": 392.96875,
                    "velocity": 0.23622047244094488,
                    "duration": 0.3125
                },
                {
                    "name": "D5",
                    "midi": 74,
                    "time": 393.125,
                    "velocity": 0.23622047244094488,
                    "duration": 0.15625
                },
                {
                    "name": "A#4",
                    "midi": 70,
                    "time": 393.28125,
                    "velocity": 0.23622047244094488,
                    "duration": 0.15625
                },
                {
                    "name": "D4",
                    "midi": 62,
                    "time": 393.28125,
                    "velocity": 0.23622047244094488,
                    "duration": 0.3125
                },
                {
                    "name": "F4",
                    "midi": 65,
                    "time": 393.28125,
                    "velocity": 0.23622047244094488,
                    "duration": 0.3125
                },
                {
                    "name": "B4",
                    "midi": 71,
                    "time": 393.4375,
                    "velocity": 0.23622047244094488,
                    "duration": 0.15625
                },
                {
                    "name": "G3",
                    "midi": 55,
                    "time": 393.59375,
                    "velocity": 0.937007874015748,
                    "duration": 0.15625
                },
                {
                    "name": "G4",
                    "midi": 67,
                    "time": 393.59375,
                    "velocity": 0.937007874015748,
                    "duration": 0.15625
                },
                {
                    "name": "C3",
                    "midi": 48,
                    "time": 393.75,
                    "velocity": 0.937007874015748,
                    "duration": 0.15625
                },
                {
                    "name": "C4",
                    "midi": 60,
                    "time": 393.75,
                    "velocity": 0.937007874015748,
                    "duration": 0.15625
                },
                {
                    "name": "B4",
                    "midi": 71,
                    "time": 393.90625,
                    "velocity": 0.23622047244094488,
                    "duration": 0.15625
                },
                {
                    "name": "E4",
                    "midi": 64,
                    "time": 393.90625,
                    "velocity": 0.23622047244094488,
                    "duration": 0.3125
                },
                {
                    "name": "G4",
                    "midi": 67,
                    "time": 393.90625,
                    "velocity": 0.23622047244094488,
                    "duration": 0.3125
                },
                {
                    "name": "C5",
                    "midi": 72,
                    "time": 394.0625,
                    "velocity": 0.23622047244094488,
                    "duration": 0.15625
                },
                {
                    "name": "C#5",
                    "midi": 73,
                    "time": 394.21875,
                    "velocity": 0.23622047244094488,
                    "duration": 0.15625
                },
                {
                    "name": "F4",
                    "midi": 65,
                    "time": 394.21875,
                    "velocity": 0.23622047244094488,
                    "duration": 0.3125
                },
                {
                    "name": "A4",
                    "midi": 69,
                    "time": 394.21875,
                    "velocity": 0.23622047244094488,
                    "duration": 0.3125
                },
                {
                    "name": "D5",
                    "midi": 74,
                    "time": 394.375,
                    "velocity": 0.23622047244094488,
                    "duration": 0.15625
                },
                {
                    "name": "A#4",
                    "midi": 70,
                    "time": 394.53125,
                    "velocity": 0.23622047244094488,
                    "duration": 0.15625
                },
                {
                    "name": "D4",
                    "midi": 62,
                    "time": 394.53125,
                    "velocity": 0.23622047244094488,
                    "duration": 0.3125
                },
                {
                    "name": "F4",
                    "midi": 65,
                    "time": 394.53125,
                    "velocity": 0.23622047244094488,
                    "duration": 0.3125
                },
                {
                    "name": "B4",
                    "midi": 71,
                    "time": 394.6875,
                    "velocity": 0.23622047244094488,
                    "duration": 0.15625
                },
                {
                    "name": "G3",
                    "midi": 55,
                    "time": 394.84375,
                    "velocity": 0.937007874015748,
                    "duration": 0.15625
                },
                {
                    "name": "G4",
                    "midi": 67,
                    "time": 394.84375,
                    "velocity": 0.937007874015748,
                    "duration": 0.15625
                },
                {
                    "name": "C3",
                    "midi": 48,
                    "time": 395,
                    "velocity": 0.937007874015748,
                    "duration": 0.15625
                },
                {
                    "name": "C4",
                    "midi": 60,
                    "time": 395,
                    "velocity": 0.937007874015748,
                    "duration": 0.15625
                },
                {
                    "name": "B4",
                    "midi": 71,
                    "time": 395.15625,
                    "velocity": 0.23622047244094488,
                    "duration": 0.15625
                },
                {
                    "name": "E4",
                    "midi": 64,
                    "time": 395.15625,
                    "velocity": 0.23622047244094488,
                    "duration": 0.3125
                },
                {
                    "name": "G4",
                    "midi": 67,
                    "time": 395.15625,
                    "velocity": 0.23622047244094488,
                    "duration": 0.3125
                },
                {
                    "name": "C5",
                    "midi": 72,
                    "time": 395.3125,
                    "velocity": 0.23622047244094488,
                    "duration": 0.15625
                },
                {
                    "name": "C#5",
                    "midi": 73,
                    "time": 395.46875,
                    "velocity": 0.23622047244094488,
                    "duration": 0.15625
                },
                {
                    "name": "F4",
                    "midi": 65,
                    "time": 395.46875,
                    "velocity": 0.23622047244094488,
                    "duration": 0.3125
                },
                {
                    "name": "A4",
                    "midi": 69,
                    "time": 395.46875,
                    "velocity": 0.23622047244094488,
                    "duration": 0.3125
                },
                {
                    "name": "D5",
                    "midi": 74,
                    "time": 395.625,
                    "velocity": 0.23622047244094488,
                    "duration": 0.15625
                },
                {
                    "name": "D#5",
                    "midi": 75,
                    "time": 395.78125,
                    "velocity": 0.23622047244094488,
                    "duration": 0.15625
                },
                {
                    "name": "G4",
                    "midi": 67,
                    "time": 395.78125,
                    "velocity": 0.23622047244094488,
                    "duration": 0.3125
                },
                {
                    "name": "A#4",
                    "midi": 70,
                    "time": 395.78125,
                    "velocity": 0.23622047244094488,
                    "duration": 0.3125
                },
                {
                    "name": "E5",
                    "midi": 76,
                    "time": 395.9375,
                    "velocity": 0.23622047244094488,
                    "duration": 0.15625
                },
                {
                    "name": "C4",
                    "midi": 60,
                    "time": 396.09375,
                    "velocity": 0.937007874015748,
                    "duration": 0.15625
                },
                {
                    "name": "C5",
                    "midi": 72,
                    "time": 396.09375,
                    "velocity": 0.937007874015748,
                    "duration": 0.15625
                },
                {
                    "name": "C3",
                    "midi": 48,
                    "time": 396.25,
                    "velocity": 0.937007874015748,
                    "duration": 0.15625
                },
                {
                    "name": "C4",
                    "midi": 60,
                    "time": 396.25,
                    "velocity": 0.937007874015748,
                    "duration": 0.15625
                },
                {
                    "name": "E5",
                    "midi": 76,
                    "time": 396.40625,
                    "velocity": 0.23622047244094488,
                    "duration": 0.15625
                },
                {
                    "name": "A4",
                    "midi": 69,
                    "time": 396.40625,
                    "velocity": 0.23622047244094488,
                    "duration": 0.3125
                },
                {
                    "name": "C5",
                    "midi": 72,
                    "time": 396.40625,
                    "velocity": 0.23622047244094488,
                    "duration": 0.3125
                },
                {
                    "name": "F5",
                    "midi": 77,
                    "time": 396.5625,
                    "velocity": 0.23622047244094488,
                    "duration": 0.15625
                },
                {
                    "name": "E5",
                    "midi": 76,
                    "time": 396.71875,
                    "velocity": 0.23622047244094488,
                    "duration": 0.15625
                },
                {
                    "name": "A#4",
                    "midi": 70,
                    "time": 396.71875,
                    "velocity": 0.23622047244094488,
                    "duration": 0.3125
                },
                {
                    "name": "C#5",
                    "midi": 73,
                    "time": 396.71875,
                    "velocity": 0.23622047244094488,
                    "duration": 0.3125
                },
                {
                    "name": "F5",
                    "midi": 77,
                    "time": 396.875,
                    "velocity": 0.23622047244094488,
                    "duration": 0.15625
                },
                {
                    "name": "F#5",
                    "midi": 78,
                    "time": 397.03125,
                    "velocity": 0.23622047244094488,
                    "duration": 0.15625
                },
                {
                    "name": "B4",
                    "midi": 71,
                    "time": 397.03125,
                    "velocity": 0.23622047244094488,
                    "duration": 0.3125
                },
                {
                    "name": "D5",
                    "midi": 74,
                    "time": 397.03125,
                    "velocity": 0.23622047244094488,
                    "duration": 0.3125
                },
                {
                    "name": "G5",
                    "midi": 79,
                    "time": 397.1875,
                    "velocity": 0.23622047244094488,
                    "duration": 0.15625
                },
                {
                    "name": "G4",
                    "midi": 67,
                    "time": 397.34375,
                    "velocity": 0.937007874015748,
                    "duration": 0.15625
                },
                {
                    "name": "G5",
                    "midi": 79,
                    "time": 397.34375,
                    "velocity": 0.937007874015748,
                    "duration": 0.15625
                },
                {
                    "name": "C4",
                    "midi": 60,
                    "time": 397.5,
                    "velocity": 0.937007874015748,
                    "duration": 0.15625
                },
                {
                    "name": "C5",
                    "midi": 72,
                    "time": 397.5,
                    "velocity": 0.937007874015748,
                    "duration": 0.15625
                },
                {
                    "name": "G#5",
                    "midi": 80,
                    "time": 397.65625,
                    "velocity": 0.23622047244094488,
                    "duration": 0.15625
                },
                {
                    "name": "C5",
                    "midi": 72,
                    "time": 397.65625,
                    "velocity": 0.23622047244094488,
                    "duration": 0.3125
                },
                {
                    "name": "E5",
                    "midi": 76,
                    "time": 397.65625,
                    "velocity": 0.23622047244094488,
                    "duration": 0.3125
                },
                {
                    "name": "A5",
                    "midi": 81,
                    "time": 397.8125,
                    "velocity": 0.23622047244094488,
                    "duration": 0.15625
                },
                {
                    "name": "G#5",
                    "midi": 80,
                    "time": 397.96875,
                    "velocity": 0.23622047244094488,
                    "duration": 0.15625
                },
                {
                    "name": "C5",
                    "midi": 72,
                    "time": 397.96875,
                    "velocity": 0.23622047244094488,
                    "duration": 0.3125
                },
                {
                    "name": "D#5",
                    "midi": 75,
                    "time": 397.96875,
                    "velocity": 0.23622047244094488,
                    "duration": 0.3125
                },
                {
                    "name": "A5",
                    "midi": 81,
                    "time": 398.125,
                    "velocity": 0.23622047244094488,
                    "duration": 0.15625
                },
                {
                    "name": "G#5",
                    "midi": 80,
                    "time": 398.28125,
                    "velocity": 0.23622047244094488,
                    "duration": 0.15625
                },
                {
                    "name": "C5",
                    "midi": 72,
                    "time": 398.28125,
                    "velocity": 0.23622047244094488,
                    "duration": 0.3125
                },
                {
                    "name": "E5",
                    "midi": 76,
                    "time": 398.28125,
                    "velocity": 0.23622047244094488,
                    "duration": 0.3125
                },
                {
                    "name": "A5",
                    "midi": 81,
                    "time": 398.4375,
                    "velocity": 0.23622047244094488,
                    "duration": 0.15625
                },
                {
                    "name": "D4",
                    "midi": 62,
                    "time": 398.59375,
                    "velocity": 0.937007874015748,
                    "duration": 0.15625
                },
                {
                    "name": "D5",
                    "midi": 74,
                    "time": 398.59375,
                    "velocity": 0.937007874015748,
                    "duration": 0.15625
                },
                {
                    "name": "G3",
                    "midi": 55,
                    "time": 398.75,
                    "velocity": 0.937007874015748,
                    "duration": 0.15625
                },
                {
                    "name": "G4",
                    "midi": 67,
                    "time": 398.75,
                    "velocity": 0.937007874015748,
                    "duration": 0.15625
                },
                {
                    "name": "F#5",
                    "midi": 78,
                    "time": 398.90625,
                    "velocity": 0.23622047244094488,
                    "duration": 0.15625
                },
                {
                    "name": "B4",
                    "midi": 71,
                    "time": 398.90625,
                    "velocity": 0.23622047244094488,
                    "duration": 0.3125
                },
                {
                    "name": "D5",
                    "midi": 74,
                    "time": 398.90625,
                    "velocity": 0.23622047244094488,
                    "duration": 0.3125
                },
                {
                    "name": "G5",
                    "midi": 79,
                    "time": 399.0625,
                    "velocity": 0.23622047244094488,
                    "duration": 0.15625
                },
                {
                    "name": "F#5",
                    "midi": 78,
                    "time": 399.21875,
                    "velocity": 0.23622047244094488,
                    "duration": 0.15625
                },
                {
                    "name": "A#4",
                    "midi": 70,
                    "time": 399.21875,
                    "velocity": 0.23622047244094488,
                    "duration": 0.3125
                },
                {
                    "name": "C#5",
                    "midi": 73,
                    "time": 399.21875,
                    "velocity": 0.23622047244094488,
                    "duration": 0.3125
                },
                {
                    "name": "G5",
                    "midi": 79,
                    "time": 399.375,
                    "velocity": 0.23622047244094488,
                    "duration": 0.15625
                },
                {
                    "name": "F#5",
                    "midi": 78,
                    "time": 399.53125,
                    "velocity": 0.23622047244094488,
                    "duration": 0.15625
                },
                {
                    "name": "B4",
                    "midi": 71,
                    "time": 399.53125,
                    "velocity": 0.23622047244094488,
                    "duration": 0.3125
                },
                {
                    "name": "D5",
                    "midi": 74,
                    "time": 399.53125,
                    "velocity": 0.23622047244094488,
                    "duration": 0.3125
                },
                {
                    "name": "G5",
                    "midi": 79,
                    "time": 399.6875,
                    "velocity": 0.23622047244094488,
                    "duration": 0.15625
                },
                {
                    "name": "C4",
                    "midi": 60,
                    "time": 399.84375,
                    "velocity": 0.937007874015748,
                    "duration": 0.15625
                },
                {
                    "name": "C5",
                    "midi": 72,
                    "time": 399.84375,
                    "velocity": 0.937007874015748,
                    "duration": 0.15625
                },
                {
                    "name": "F3",
                    "midi": 53,
                    "time": 400,
                    "velocity": 0.937007874015748,
                    "duration": 0.15625
                },
                {
                    "name": "F4",
                    "midi": 65,
                    "time": 400,
                    "velocity": 0.937007874015748,
                    "duration": 0.15625
                },
                {
                    "name": "E5",
                    "midi": 76,
                    "time": 400.15625,
                    "velocity": 0.23622047244094488,
                    "duration": 0.15625
                },
                {
                    "name": "A4",
                    "midi": 69,
                    "time": 400.15625,
                    "velocity": 0.23622047244094488,
                    "duration": 0.3125
                },
                {
                    "name": "C5",
                    "midi": 72,
                    "time": 400.15625,
                    "velocity": 0.23622047244094488,
                    "duration": 0.3125
                },
                {
                    "name": "F5",
                    "midi": 77,
                    "time": 400.3125,
                    "velocity": 0.23622047244094488,
                    "duration": 0.15625
                },
                {
                    "name": "C#5",
                    "midi": 73,
                    "time": 400.46875,
                    "velocity": 0.23622047244094488,
                    "duration": 0.15625
                },
                {
                    "name": "F4",
                    "midi": 65,
                    "time": 400.46875,
                    "velocity": 0.23622047244094488,
                    "duration": 0.3125
                },
                {
                    "name": "A4",
                    "midi": 69,
                    "time": 400.46875,
                    "velocity": 0.23622047244094488,
                    "duration": 0.3125
                },
                {
                    "name": "D5",
                    "midi": 74,
                    "time": 400.625,
                    "velocity": 0.23622047244094488,
                    "duration": 0.15625
                },
                {
                    "name": "C#5",
                    "midi": 73,
                    "time": 400.78125,
                    "velocity": 0.23622047244094488,
                    "duration": 0.15625
                },
                {
                    "name": "F4",
                    "midi": 65,
                    "time": 400.78125,
                    "velocity": 0.23622047244094488,
                    "duration": 0.3125
                },
                {
                    "name": "G#4",
                    "midi": 68,
                    "time": 400.78125,
                    "velocity": 0.23622047244094488,
                    "duration": 0.3125
                },
                {
                    "name": "D5",
                    "midi": 74,
                    "time": 400.9375,
                    "velocity": 0.23622047244094488,
                    "duration": 0.15625
                },
                {
                    "name": "G3",
                    "midi": 55,
                    "time": 401.09375,
                    "velocity": 0.937007874015748,
                    "duration": 0.15625
                },
                {
                    "name": "G4",
                    "midi": 67,
                    "time": 401.09375,
                    "velocity": 0.937007874015748,
                    "duration": 0.15625
                },
                {
                    "name": "G2",
                    "midi": 43,
                    "time": 401.25,
                    "velocity": 0.937007874015748,
                    "duration": 0.15625
                },
                {
                    "name": "G3",
                    "midi": 55,
                    "time": 401.25,
                    "velocity": 0.937007874015748,
                    "duration": 0.15625
                },
                {
                    "name": "D#5",
                    "midi": 75,
                    "time": 401.40625,
                    "velocity": 0.23622047244094488,
                    "duration": 0.15625
                },
                {
                    "name": "G4",
                    "midi": 67,
                    "time": 401.40625,
                    "velocity": 0.23622047244094488,
                    "duration": 0.3125
                },
                {
                    "name": "B4",
                    "midi": 71,
                    "time": 401.40625,
                    "velocity": 0.23622047244094488,
                    "duration": 0.3125
                },
                {
                    "name": "E5",
                    "midi": 76,
                    "time": 401.5625,
                    "velocity": 0.23622047244094488,
                    "duration": 0.15625
                },
                {
                    "name": "B4",
                    "midi": 71,
                    "time": 401.71875,
                    "velocity": 0.23622047244094488,
                    "duration": 0.15625
                },
                {
                    "name": "E4",
                    "midi": 64,
                    "time": 401.71875,
                    "velocity": 0.23622047244094488,
                    "duration": 0.3125
                },
                {
                    "name": "G4",
                    "midi": 67,
                    "time": 401.71875,
                    "velocity": 0.23622047244094488,
                    "duration": 0.3125
                },
                {
                    "name": "C5",
                    "midi": 72,
                    "time": 401.875,
                    "velocity": 0.23622047244094488,
                    "duration": 0.15625
                },
                {
                    "name": "B4",
                    "midi": 71,
                    "time": 402.03125,
                    "velocity": 0.23622047244094488,
                    "duration": 0.15625
                },
                {
                    "name": "E4",
                    "midi": 64,
                    "time": 402.03125,
                    "velocity": 0.23622047244094488,
                    "duration": 0.3125
                },
                {
                    "name": "G4",
                    "midi": 67,
                    "time": 402.03125,
                    "velocity": 0.23622047244094488,
                    "duration": 0.3125
                },
                {
                    "name": "C5",
                    "midi": 72,
                    "time": 402.1875,
                    "velocity": 0.23622047244094488,
                    "duration": 0.15625
                },
                {
                    "name": "G3",
                    "midi": 55,
                    "time": 402.34375,
                    "velocity": 0.937007874015748,
                    "duration": 0.15625
                },
                {
                    "name": "G4",
                    "midi": 67,
                    "time": 402.34375,
                    "velocity": 0.937007874015748,
                    "duration": 0.15625
                },
                {
                    "name": "C3",
                    "midi": 48,
                    "time": 402.5,
                    "velocity": 0.937007874015748,
                    "duration": 0.15625
                },
                {
                    "name": "C4",
                    "midi": 60,
                    "time": 402.5,
                    "velocity": 0.937007874015748,
                    "duration": 0.15625
                },
                {
                    "name": "G#4",
                    "midi": 68,
                    "time": 402.65625,
                    "velocity": 0.23622047244094488,
                    "duration": 0.15625
                },
                {
                    "name": "C4",
                    "midi": 60,
                    "time": 402.65625,
                    "velocity": 0.23622047244094488,
                    "duration": 0.3125
                },
                {
                    "name": "E4",
                    "midi": 64,
                    "time": 402.65625,
                    "velocity": 0.23622047244094488,
                    "duration": 0.3125
                },
                {
                    "name": "A4",
                    "midi": 69,
                    "time": 402.8125,
                    "velocity": 0.23622047244094488,
                    "duration": 0.15625
                },
                {
                    "name": "G#4",
                    "midi": 68,
                    "time": 402.96875,
                    "velocity": 0.23622047244094488,
                    "duration": 0.15625
                },
                {
                    "name": "C4",
                    "midi": 60,
                    "time": 402.96875,
                    "velocity": 0.23622047244094488,
                    "duration": 0.3125
                },
                {
                    "name": "D#4",
                    "midi": 63,
                    "time": 402.96875,
                    "velocity": 0.23622047244094488,
                    "duration": 0.3125
                },
                {
                    "name": "A4",
                    "midi": 69,
                    "time": 403.125,
                    "velocity": 0.23622047244094488,
                    "duration": 0.15625
                },
                {
                    "name": "G#4",
                    "midi": 68,
                    "time": 403.28125,
                    "velocity": 0.23622047244094488,
                    "duration": 0.15625
                },
                {
                    "name": "C4",
                    "midi": 60,
                    "time": 403.28125,
                    "velocity": 0.23622047244094488,
                    "duration": 0.3125
                },
                {
                    "name": "E4",
                    "midi": 64,
                    "time": 403.28125,
                    "velocity": 0.23622047244094488,
                    "duration": 0.3125
                },
                {
                    "name": "A4",
                    "midi": 69,
                    "time": 403.4375,
                    "velocity": 0.23622047244094488,
                    "duration": 0.15625
                },
                {
                    "name": "D3",
                    "midi": 50,
                    "time": 403.59375,
                    "velocity": 0.937007874015748,
                    "duration": 0.15625
                },
                {
                    "name": "D4",
                    "midi": 62,
                    "time": 403.59375,
                    "velocity": 0.937007874015748,
                    "duration": 0.15625
                },
                {
                    "name": "G2",
                    "midi": 43,
                    "time": 403.75,
                    "velocity": 0.937007874015748,
                    "duration": 0.15625
                },
                {
                    "name": "G3",
                    "midi": 55,
                    "time": 403.75,
                    "velocity": 0.937007874015748,
                    "duration": 0.15625
                },
                {
                    "name": "F#4",
                    "midi": 66,
                    "time": 403.90625,
                    "velocity": 0.23622047244094488,
                    "duration": 0.15625
                },
                {
                    "name": "B3",
                    "midi": 59,
                    "time": 403.90625,
                    "velocity": 0.23622047244094488,
                    "duration": 0.3125
                },
                {
                    "name": "D4",
                    "midi": 62,
                    "time": 403.90625,
                    "velocity": 0.23622047244094488,
                    "duration": 0.3125
                },
                {
                    "name": "G4",
                    "midi": 67,
                    "time": 404.0625,
                    "velocity": 0.23622047244094488,
                    "duration": 0.15625
                },
                {
                    "name": "F#4",
                    "midi": 66,
                    "time": 404.21875,
                    "velocity": 0.23622047244094488,
                    "duration": 0.15625
                },
                {
                    "name": "A#3",
                    "midi": 58,
                    "time": 404.21875,
                    "velocity": 0.23622047244094488,
                    "duration": 0.3125
                },
                {
                    "name": "C#4",
                    "midi": 61,
                    "time": 404.21875,
                    "velocity": 0.23622047244094488,
                    "duration": 0.3125
                },
                {
                    "name": "G4",
                    "midi": 67,
                    "time": 404.375,
                    "velocity": 0.23622047244094488,
                    "duration": 0.15625
                },
                {
                    "name": "F#4",
                    "midi": 66,
                    "time": 404.53125,
                    "velocity": 0.23622047244094488,
                    "duration": 0.15625
                },
                {
                    "name": "B3",
                    "midi": 59,
                    "time": 404.53125,
                    "velocity": 0.23622047244094488,
                    "duration": 0.3125
                },
                {
                    "name": "D4",
                    "midi": 62,
                    "time": 404.53125,
                    "velocity": 0.23622047244094488,
                    "duration": 0.3125
                },
                {
                    "name": "G4",
                    "midi": 67,
                    "time": 404.6875,
                    "velocity": 0.23622047244094488,
                    "duration": 0.15625
                },
                {
                    "name": "C3",
                    "midi": 48,
                    "time": 404.84375,
                    "velocity": 0.937007874015748,
                    "duration": 0.15625
                },
                {
                    "name": "C4",
                    "midi": 60,
                    "time": 404.84375,
                    "velocity": 0.937007874015748,
                    "duration": 0.15625
                },
                {
                    "name": "F2",
                    "midi": 41,
                    "time": 405,
                    "velocity": 0.937007874015748,
                    "duration": 0.15625
                },
                {
                    "name": "F3",
                    "midi": 53,
                    "time": 405,
                    "velocity": 0.937007874015748,
                    "duration": 0.15625
                },
                {
                    "name": "E4",
                    "midi": 64,
                    "time": 405.15625,
                    "velocity": 0.23622047244094488,
                    "duration": 0.15625
                },
                {
                    "name": "A3",
                    "midi": 57,
                    "time": 405.15625,
                    "velocity": 0.23622047244094488,
                    "duration": 0.3125
                },
                {
                    "name": "C4",
                    "midi": 60,
                    "time": 405.15625,
                    "velocity": 0.23622047244094488,
                    "duration": 0.3125
                },
                {
                    "name": "F4",
                    "midi": 65,
                    "time": 405.3125,
                    "velocity": 0.23622047244094488,
                    "duration": 0.15625
                },
                {
                    "name": "C#4",
                    "midi": 61,
                    "time": 405.46875,
                    "velocity": 0.23622047244094488,
                    "duration": 0.15625
                },
                {
                    "name": "F3",
                    "midi": 53,
                    "time": 405.46875,
                    "velocity": 0.23622047244094488,
                    "duration": 0.3125
                },
                {
                    "name": "A3",
                    "midi": 57,
                    "time": 405.46875,
                    "velocity": 0.23622047244094488,
                    "duration": 0.3125
                },
                {
                    "name": "D4",
                    "midi": 62,
                    "time": 405.625,
                    "velocity": 0.23622047244094488,
                    "duration": 0.15625
                },
                {
                    "name": "C#4",
                    "midi": 61,
                    "time": 405.78125,
                    "velocity": 0.23622047244094488,
                    "duration": 0.15625
                },
                {
                    "name": "F3",
                    "midi": 53,
                    "time": 405.78125,
                    "velocity": 0.23622047244094488,
                    "duration": 0.3125
                },
                {
                    "name": "G#3",
                    "midi": 56,
                    "time": 405.78125,
                    "velocity": 0.23622047244094488,
                    "duration": 0.3125
                },
                {
                    "name": "D4",
                    "midi": 62,
                    "time": 405.9375,
                    "velocity": 0.23622047244094488,
                    "duration": 0.15625
                },
                {
                    "name": "G2",
                    "midi": 43,
                    "time": 406.09375,
                    "velocity": 0.937007874015748,
                    "duration": 0.15625
                },
                {
                    "name": "G3",
                    "midi": 55,
                    "time": 406.09375,
                    "velocity": 0.937007874015748,
                    "duration": 0.15625
                },
                {
                    "name": "G1",
                    "midi": 31,
                    "time": 406.25,
                    "velocity": 0.937007874015748,
                    "duration": 0.15625
                },
                {
                    "name": "G2",
                    "midi": 43,
                    "time": 406.25,
                    "velocity": 0.937007874015748,
                    "duration": 0.15625
                },
                {
                    "name": "D#4",
                    "midi": 63,
                    "time": 406.40625,
                    "velocity": 0.23622047244094488,
                    "duration": 0.15625
                },
                {
                    "name": "G3",
                    "midi": 55,
                    "time": 406.40625,
                    "velocity": 0.23622047244094488,
                    "duration": 0.3125
                },
                {
                    "name": "B3",
                    "midi": 59,
                    "time": 406.40625,
                    "velocity": 0.23622047244094488,
                    "duration": 0.3125
                },
                {
                    "name": "E4",
                    "midi": 64,
                    "time": 406.5625,
                    "velocity": 0.23622047244094488,
                    "duration": 0.15625
                },
                {
                    "name": "B3",
                    "midi": 59,
                    "time": 406.71875,
                    "velocity": 0.23622047244094488,
                    "duration": 0.15625
                },
                {
                    "name": "E3",
                    "midi": 52,
                    "time": 406.71875,
                    "velocity": 0.23622047244094488,
                    "duration": 0.3125
                },
                {
                    "name": "G3",
                    "midi": 55,
                    "time": 406.71875,
                    "velocity": 0.23622047244094488,
                    "duration": 0.3125
                },
                {
                    "name": "C4",
                    "midi": 60,
                    "time": 406.875,
                    "velocity": 0.23622047244094488,
                    "duration": 0.15625
                },
                {
                    "name": "B3",
                    "midi": 59,
                    "time": 407.03125,
                    "velocity": 0.23622047244094488,
                    "duration": 0.15625
                },
                {
                    "name": "E3",
                    "midi": 52,
                    "time": 407.03125,
                    "velocity": 0.23622047244094488,
                    "duration": 0.3125
                },
                {
                    "name": "G3",
                    "midi": 55,
                    "time": 407.03125,
                    "velocity": 0.23622047244094488,
                    "duration": 0.3125
                },
                {
                    "name": "C4",
                    "midi": 60,
                    "time": 407.1875,
                    "velocity": 0.23622047244094488,
                    "duration": 0.15625
                },
                {
                    "name": "G3",
                    "midi": 55,
                    "time": 407.34375,
                    "velocity": 0.2755905511811024,
                    "duration": 0.15625
                },
                {
                    "name": "G3",
                    "midi": 55,
                    "time": 407.34375,
                    "velocity": 0.2755905511811024,
                    "duration": 0.3125
                },
                {
                    "name": "C3",
                    "midi": 48,
                    "time": 407.5,
                    "velocity": 0.2755905511811024,
                    "duration": 0.15625
                },
                {
                    "name": "G2",
                    "midi": 43,
                    "time": 407.65625,
                    "velocity": 0.28346456692913385,
                    "duration": 0.15625
                },
                {
                    "name": "G2",
                    "midi": 43,
                    "time": 407.65625,
                    "velocity": 0.28346456692913385,
                    "duration": 0.3125
                },
                {
                    "name": "C2",
                    "midi": 36,
                    "time": 407.8125,
                    "velocity": 0.29133858267716534,
                    "duration": 0.15625
                },
                {
                    "name": "F2",
                    "midi": 41,
                    "time": 407.96875,
                    "velocity": 0.2992125984251969,
                    "duration": 0.15625
                },
                {
                    "name": "F2",
                    "midi": 41,
                    "time": 407.96875,
                    "velocity": 0.2992125984251969,
                    "duration": 0.3125
                },
                {
                    "name": "G#2",
                    "midi": 44,
                    "time": 408.125,
                    "velocity": 0.30708661417322836,
                    "duration": 0.15625
                },
                {
                    "name": "F3",
                    "midi": 53,
                    "time": 408.28125,
                    "velocity": 0.31496062992125984,
                    "duration": 0.15625
                },
                {
                    "name": "F3",
                    "midi": 53,
                    "time": 408.28125,
                    "velocity": 0.31496062992125984,
                    "duration": 0.3125
                },
                {
                    "name": "G#3",
                    "midi": 56,
                    "time": 408.4375,
                    "velocity": 0.3228346456692913,
                    "duration": 0.15625
                },
                {
                    "name": "G3",
                    "midi": 55,
                    "time": 408.59375,
                    "velocity": 0.33070866141732286,
                    "duration": 0.15625
                },
                {
                    "name": "G3",
                    "midi": 55,
                    "time": 408.59375,
                    "velocity": 0.33070866141732286,
                    "duration": 0.3125
                },
                {
                    "name": "C3",
                    "midi": 48,
                    "time": 408.75,
                    "velocity": 0.33858267716535434,
                    "duration": 0.15625
                },
                {
                    "name": "G2",
                    "midi": 43,
                    "time": 408.90625,
                    "velocity": 0.3464566929133858,
                    "duration": 0.15625
                },
                {
                    "name": "G2",
                    "midi": 43,
                    "time": 408.90625,
                    "velocity": 0.3464566929133858,
                    "duration": 0.3125
                },
                {
                    "name": "C2",
                    "midi": 36,
                    "time": 409.0625,
                    "velocity": 0.3543307086614173,
                    "duration": 0.15625
                },
                {
                    "name": "F2",
                    "midi": 41,
                    "time": 409.21875,
                    "velocity": 0.36220472440944884,
                    "duration": 0.15625
                },
                {
                    "name": "F2",
                    "midi": 41,
                    "time": 409.21875,
                    "velocity": 0.36220472440944884,
                    "duration": 0.3125
                },
                {
                    "name": "G#2",
                    "midi": 44,
                    "time": 409.375,
                    "velocity": 0.3700787401574803,
                    "duration": 0.15625
                },
                {
                    "name": "F3",
                    "midi": 53,
                    "time": 409.53125,
                    "velocity": 0.3779527559055118,
                    "duration": 0.15625
                },
                {
                    "name": "F3",
                    "midi": 53,
                    "time": 409.53125,
                    "velocity": 0.3779527559055118,
                    "duration": 0.3125
                },
                {
                    "name": "G#3",
                    "midi": 56,
                    "time": 409.6875,
                    "velocity": 0.3858267716535433,
                    "duration": 0.15625
                },
                {
                    "name": "G3",
                    "midi": 55,
                    "time": 409.84375,
                    "velocity": 0.3937007874015748,
                    "duration": 0.15625
                },
                {
                    "name": "G3",
                    "midi": 55,
                    "time": 409.84375,
                    "velocity": 0.3937007874015748,
                    "duration": 0.3125
                },
                {
                    "name": "C3",
                    "midi": 48,
                    "time": 410,
                    "velocity": 0.4015748031496063,
                    "duration": 0.15625
                },
                {
                    "name": "G2",
                    "midi": 43,
                    "time": 410.15625,
                    "velocity": 0.4094488188976378,
                    "duration": 0.15625
                },
                {
                    "name": "G2",
                    "midi": 43,
                    "time": 410.15625,
                    "velocity": 0.4094488188976378,
                    "duration": 0.3125
                },
                {
                    "name": "C2",
                    "midi": 36,
                    "time": 410.3125,
                    "velocity": 0.41732283464566927,
                    "duration": 0.15625
                },
                {
                    "name": "F2",
                    "midi": 41,
                    "time": 410.46875,
                    "velocity": 0.4251968503937008,
                    "duration": 0.15625
                },
                {
                    "name": "F2",
                    "midi": 41,
                    "time": 410.46875,
                    "velocity": 0.4251968503937008,
                    "duration": 0.3125
                },
                {
                    "name": "G#2",
                    "midi": 44,
                    "time": 410.625,
                    "velocity": 0.4330708661417323,
                    "duration": 0.15625
                },
                {
                    "name": "F3",
                    "midi": 53,
                    "time": 410.78125,
                    "velocity": 0.4409448818897638,
                    "duration": 0.15625
                },
                {
                    "name": "F3",
                    "midi": 53,
                    "time": 410.78125,
                    "velocity": 0.4409448818897638,
                    "duration": 0.3125
                },
                {
                    "name": "G#3",
                    "midi": 56,
                    "time": 410.9375,
                    "velocity": 0.44881889763779526,
                    "duration": 0.15625
                },
                {
                    "name": "G2",
                    "midi": 43,
                    "time": 411.09375,
                    "velocity": 0.4566929133858268,
                    "duration": 0.15625
                },
                {
                    "name": "G2",
                    "midi": 43,
                    "time": 411.09375,
                    "velocity": 0.4566929133858268,
                    "duration": 0.3125
                },
                {
                    "name": "A#2",
                    "midi": 46,
                    "time": 411.25,
                    "velocity": 0.4645669291338583,
                    "duration": 0.15625
                },
                {
                    "name": "G3",
                    "midi": 55,
                    "time": 411.40625,
                    "velocity": 0.47244094488188976,
                    "duration": 0.15625
                },
                {
                    "name": "G3",
                    "midi": 55,
                    "time": 411.40625,
                    "velocity": 0.47244094488188976,
                    "duration": 0.3125
                },
                {
                    "name": "A#3",
                    "midi": 58,
                    "time": 411.5625,
                    "velocity": 0.48031496062992124,
                    "duration": 0.15625
                },
                {
                    "name": "A2",
                    "midi": 45,
                    "time": 411.71875,
                    "velocity": 0.4881889763779528,
                    "duration": 0.15625
                },
                {
                    "name": "A2",
                    "midi": 45,
                    "time": 411.71875,
                    "velocity": 0.4881889763779528,
                    "duration": 0.3125
                },
                {
                    "name": "C4",
                    "midi": 60,
                    "time": 411.875,
                    "velocity": 0.49606299212598426,
                    "duration": 0.15625
                },
                {
                    "name": "G2",
                    "midi": 43,
                    "time": 412.03125,
                    "velocity": 0.5039370078740157,
                    "duration": 0.15625
                },
                {
                    "name": "G2",
                    "midi": 43,
                    "time": 412.03125,
                    "velocity": 0.5039370078740157,
                    "duration": 0.3125
                },
                {
                    "name": "B3",
                    "midi": 59,
                    "time": 412.1875,
                    "velocity": 0.5118110236220472,
                    "duration": 0.15625
                },
                {
                    "name": "G4",
                    "midi": 67,
                    "time": 412.34375,
                    "velocity": 0.5196850393700787,
                    "duration": 0.15625
                },
                {
                    "name": "G4",
                    "midi": 67,
                    "time": 412.34375,
                    "velocity": 0.5196850393700787,
                    "duration": 0.3125
                },
                {
                    "name": "C4",
                    "midi": 60,
                    "time": 412.5,
                    "velocity": 0.5354330708661418,
                    "duration": 0.15625
                },
                {
                    "name": "G3",
                    "midi": 55,
                    "time": 412.65625,
                    "velocity": 0.5433070866141733,
                    "duration": 0.15625
                },
                {
                    "name": "G3",
                    "midi": 55,
                    "time": 412.65625,
                    "velocity": 0.5433070866141733,
                    "duration": 0.3125
                },
                {
                    "name": "C3",
                    "midi": 48,
                    "time": 412.8125,
                    "velocity": 0.5511811023622047,
                    "duration": 0.15625
                },
                {
                    "name": "F3",
                    "midi": 53,
                    "time": 412.96875,
                    "velocity": 0.5590551181102362,
                    "duration": 0.15625
                },
                {
                    "name": "F3",
                    "midi": 53,
                    "time": 412.96875,
                    "velocity": 0.5590551181102362,
                    "duration": 0.3125
                },
                {
                    "name": "G#3",
                    "midi": 56,
                    "time": 413.125,
                    "velocity": 0.5669291338582677,
                    "duration": 0.15625
                },
                {
                    "name": "F4",
                    "midi": 65,
                    "time": 413.28125,
                    "velocity": 0.5748031496062992,
                    "duration": 0.15625
                },
                {
                    "name": "F4",
                    "midi": 65,
                    "time": 413.28125,
                    "velocity": 0.5748031496062992,
                    "duration": 0.3125
                },
                {
                    "name": "G#4",
                    "midi": 68,
                    "time": 413.4375,
                    "velocity": 0.5826771653543307,
                    "duration": 0.15625
                },
                {
                    "name": "G4",
                    "midi": 67,
                    "time": 413.59375,
                    "velocity": 0.5905511811023622,
                    "duration": 0.15625
                },
                {
                    "name": "G4",
                    "midi": 67,
                    "time": 413.59375,
                    "velocity": 0.5905511811023622,
                    "duration": 0.3125
                },
                {
                    "name": "C4",
                    "midi": 60,
                    "time": 413.75,
                    "velocity": 0.5984251968503937,
                    "duration": 0.15625
                },
                {
                    "name": "G3",
                    "midi": 55,
                    "time": 413.90625,
                    "velocity": 0.6062992125984252,
                    "duration": 0.15625
                },
                {
                    "name": "G3",
                    "midi": 55,
                    "time": 413.90625,
                    "velocity": 0.6062992125984252,
                    "duration": 0.3125
                },
                {
                    "name": "C3",
                    "midi": 48,
                    "time": 414.0625,
                    "velocity": 0.6141732283464567,
                    "duration": 0.15625
                },
                {
                    "name": "F3",
                    "midi": 53,
                    "time": 414.21875,
                    "velocity": 0.6220472440944882,
                    "duration": 0.15625
                },
                {
                    "name": "F3",
                    "midi": 53,
                    "time": 414.21875,
                    "velocity": 0.6220472440944882,
                    "duration": 0.3125
                },
                {
                    "name": "G#3",
                    "midi": 56,
                    "time": 414.375,
                    "velocity": 0.6299212598425197,
                    "duration": 0.15625
                },
                {
                    "name": "F4",
                    "midi": 65,
                    "time": 414.53125,
                    "velocity": 0.6377952755905512,
                    "duration": 0.15625
                },
                {
                    "name": "F4",
                    "midi": 65,
                    "time": 414.53125,
                    "velocity": 0.6377952755905512,
                    "duration": 0.3125
                },
                {
                    "name": "G#4",
                    "midi": 68,
                    "time": 414.6875,
                    "velocity": 0.6456692913385826,
                    "duration": 0.15625
                },
                {
                    "name": "G4",
                    "midi": 67,
                    "time": 414.84375,
                    "velocity": 0.6535433070866141,
                    "duration": 0.15625
                },
                {
                    "name": "G4",
                    "midi": 67,
                    "time": 414.84375,
                    "velocity": 0.6535433070866141,
                    "duration": 0.3125
                },
                {
                    "name": "C4",
                    "midi": 60,
                    "time": 415,
                    "velocity": 0.6614173228346457,
                    "duration": 0.15625
                },
                {
                    "name": "G3",
                    "midi": 55,
                    "time": 415.15625,
                    "velocity": 0.6692913385826772,
                    "duration": 0.15625
                },
                {
                    "name": "G3",
                    "midi": 55,
                    "time": 415.15625,
                    "velocity": 0.6692913385826772,
                    "duration": 0.3125
                },
                {
                    "name": "C3",
                    "midi": 48,
                    "time": 415.3125,
                    "velocity": 0.6771653543307087,
                    "duration": 0.15625
                },
                {
                    "name": "F3",
                    "midi": 53,
                    "time": 415.46875,
                    "velocity": 0.6850393700787402,
                    "duration": 0.15625
                },
                {
                    "name": "F3",
                    "midi": 53,
                    "time": 415.46875,
                    "velocity": 0.6850393700787402,
                    "duration": 0.3125
                },
                {
                    "name": "G#3",
                    "midi": 56,
                    "time": 415.625,
                    "velocity": 0.6929133858267716,
                    "duration": 0.15625
                },
                {
                    "name": "F4",
                    "midi": 65,
                    "time": 415.78125,
                    "velocity": 0.7007874015748031,
                    "duration": 0.15625
                },
                {
                    "name": "F4",
                    "midi": 65,
                    "time": 415.78125,
                    "velocity": 0.7007874015748031,
                    "duration": 0.3125
                },
                {
                    "name": "G#4",
                    "midi": 68,
                    "time": 415.9375,
                    "velocity": 0.7086614173228346,
                    "duration": 0.15625
                },
                {
                    "name": "G3",
                    "midi": 55,
                    "time": 416.09375,
                    "velocity": 0.7165354330708661,
                    "duration": 0.15625
                },
                {
                    "name": "G3",
                    "midi": 55,
                    "time": 416.09375,
                    "velocity": 0.7165354330708661,
                    "duration": 0.3125
                },
                {
                    "name": "A#3",
                    "midi": 58,
                    "time": 416.25,
                    "velocity": 0.7874015748031497,
                    "duration": 0.15625
                },
                {
                    "name": "G4",
                    "midi": 67,
                    "time": 416.40625,
                    "velocity": 0.7874015748031497,
                    "duration": 0.15625
                },
                {
                    "name": "G4",
                    "midi": 67,
                    "time": 416.40625,
                    "velocity": 0.7874015748031497,
                    "duration": 0.3125
                },
                {
                    "name": "A#4",
                    "midi": 70,
                    "time": 416.5625,
                    "velocity": 0.7874015748031497,
                    "duration": 0.15625
                },
                {
                    "name": "A3",
                    "midi": 57,
                    "time": 416.71875,
                    "velocity": 0.7874015748031497,
                    "duration": 0.15625
                },
                {
                    "name": "A3",
                    "midi": 57,
                    "time": 416.71875,
                    "velocity": 0.7874015748031497,
                    "duration": 0.3125
                },
                {
                    "name": "C5",
                    "midi": 72,
                    "time": 416.875,
                    "velocity": 0.7874015748031497,
                    "duration": 0.15625
                },
                {
                    "name": "G3",
                    "midi": 55,
                    "time": 417.03125,
                    "velocity": 0.7874015748031497,
                    "duration": 0.15625
                },
                {
                    "name": "G3",
                    "midi": 55,
                    "time": 417.03125,
                    "velocity": 0.7874015748031497,
                    "duration": 0.3125
                },
                {
                    "name": "B4",
                    "midi": 71,
                    "time": 417.1875,
                    "velocity": 0.7874015748031497,
                    "duration": 0.15625
                },
                {
                    "name": "C4",
                    "midi": 60,
                    "time": 417.34375,
                    "velocity": 0.7874015748031497,
                    "duration": 0.15625
                },
                {
                    "name": "C4",
                    "midi": 60,
                    "time": 417.34375,
                    "velocity": 0.7874015748031497,
                    "duration": 0.3125
                },
                {
                    "name": "G4",
                    "midi": 67,
                    "time": 417.5,
                    "velocity": 0.7874015748031497,
                    "duration": 0.15625
                },
                {
                    "name": "C5",
                    "midi": 72,
                    "time": 417.65625,
                    "velocity": 0.7874015748031497,
                    "duration": 0.15625
                },
                {
                    "name": "C5",
                    "midi": 72,
                    "time": 417.65625,
                    "velocity": 0.7874015748031497,
                    "duration": 0.3125
                },
                {
                    "name": "G5",
                    "midi": 79,
                    "time": 417.8125,
                    "velocity": 0.7874015748031497,
                    "duration": 0.15625
                },
                {
                    "name": "B3",
                    "midi": 59,
                    "time": 417.96875,
                    "velocity": 0.7874015748031497,
                    "duration": 0.15625
                },
                {
                    "name": "B3",
                    "midi": 59,
                    "time": 417.96875,
                    "velocity": 0.7874015748031497,
                    "duration": 0.3125
                },
                {
                    "name": "F4",
                    "midi": 65,
                    "time": 418.125,
                    "velocity": 0.7874015748031497,
                    "duration": 0.15625
                },
                {
                    "name": "G4",
                    "midi": 67,
                    "time": 418.28125,
                    "velocity": 0.7874015748031497,
                    "duration": 0.15625
                },
                {
                    "name": "G4",
                    "midi": 67,
                    "time": 418.28125,
                    "velocity": 0.7874015748031497,
                    "duration": 0.3125
                },
                {
                    "name": "D5",
                    "midi": 74,
                    "time": 418.4375,
                    "velocity": 0.7874015748031497,
                    "duration": 0.15625
                },
                {
                    "name": "C4",
                    "midi": 60,
                    "time": 418.59375,
                    "velocity": 0.7874015748031497,
                    "duration": 0.3125
                },
                {
                    "name": "G4",
                    "midi": 67,
                    "time": 418.75,
                    "velocity": 0.7874015748031497,
                    "duration": 0.15625
                },
                {
                    "name": "C5",
                    "midi": 72,
                    "time": 418.90625,
                    "velocity": 0.7874015748031497,
                    "duration": 0.15625
                },
                {
                    "name": "C5",
                    "midi": 72,
                    "time": 418.90625,
                    "velocity": 0.7874015748031497,
                    "duration": 0.3125
                },
                {
                    "name": "G5",
                    "midi": 79,
                    "time": 419.0625,
                    "velocity": 0.7874015748031497,
                    "duration": 0.15625
                },
                {
                    "name": "B3",
                    "midi": 59,
                    "time": 419.21875,
                    "velocity": 0.7874015748031497,
                    "duration": 0.15625
                },
                {
                    "name": "B3",
                    "midi": 59,
                    "time": 419.21875,
                    "velocity": 0.7874015748031497,
                    "duration": 0.3125
                },
                {
                    "name": "F4",
                    "midi": 65,
                    "time": 419.375,
                    "velocity": 0.7874015748031497,
                    "duration": 0.15625
                },
                {
                    "name": "G4",
                    "midi": 67,
                    "time": 419.53125,
                    "velocity": 0.7874015748031497,
                    "duration": 0.15625
                },
                {
                    "name": "G4",
                    "midi": 67,
                    "time": 419.53125,
                    "velocity": 0.7874015748031497,
                    "duration": 0.3125
                },
                {
                    "name": "D5",
                    "midi": 74,
                    "time": 419.6875,
                    "velocity": 0.7874015748031497,
                    "duration": 0.15625
                },
                {
                    "name": "C4",
                    "midi": 60,
                    "time": 419.84375,
                    "velocity": 0.7874015748031497,
                    "duration": 0.3125
                },
                {
                    "name": "G4",
                    "midi": 67,
                    "time": 420,
                    "velocity": 0.7874015748031497,
                    "duration": 0.15625
                },
                {
                    "name": "C5",
                    "midi": 72,
                    "time": 420.15625,
                    "velocity": 0.7874015748031497,
                    "duration": 0.15625
                },
                {
                    "name": "C5",
                    "midi": 72,
                    "time": 420.15625,
                    "velocity": 0.7874015748031497,
                    "duration": 0.3125
                },
                {
                    "name": "G5",
                    "midi": 79,
                    "time": 420.3125,
                    "velocity": 0.7874015748031497,
                    "duration": 0.15625
                },
                {
                    "name": "A3",
                    "midi": 57,
                    "time": 420.46875,
                    "velocity": 0.7874015748031497,
                    "duration": 0.15625
                },
                {
                    "name": "A3",
                    "midi": 57,
                    "time": 420.46875,
                    "velocity": 0.7874015748031497,
                    "duration": 0.3125
                },
                {
                    "name": "E4",
                    "midi": 64,
                    "time": 420.625,
                    "velocity": 0.7874015748031497,
                    "duration": 0.15625
                },
                {
                    "name": "F4",
                    "midi": 65,
                    "time": 420.78125,
                    "velocity": 0.7874015748031497,
                    "duration": 0.15625
                },
                {
                    "name": "F4",
                    "midi": 65,
                    "time": 420.78125,
                    "velocity": 0.7874015748031497,
                    "duration": 0.3125
                },
                {
                    "name": "C5",
                    "midi": 72,
                    "time": 420.9375,
                    "velocity": 0.7874015748031497,
                    "duration": 0.15625
                },
                {
                    "name": "B3",
                    "midi": 59,
                    "time": 421.09375,
                    "velocity": 0.7874015748031497,
                    "duration": 0.15625
                },
                {
                    "name": "B3",
                    "midi": 59,
                    "time": 421.09375,
                    "velocity": 0.7874015748031497,
                    "duration": 0.3125
                },
                {
                    "name": "F4",
                    "midi": 65,
                    "time": 421.25,
                    "velocity": 0.7874015748031497,
                    "duration": 0.15625
                },
                {
                    "name": "B4",
                    "midi": 71,
                    "time": 421.40625,
                    "velocity": 0.7874015748031497,
                    "duration": 0.15625
                },
                {
                    "name": "B4",
                    "midi": 71,
                    "time": 421.40625,
                    "velocity": 0.7874015748031497,
                    "duration": 0.3125
                },
                {
                    "name": "F5",
                    "midi": 77,
                    "time": 421.5625,
                    "velocity": 0.7874015748031497,
                    "duration": 0.15625
                },
                {
                    "name": "G#3",
                    "midi": 56,
                    "time": 421.71875,
                    "velocity": 0.7874015748031497,
                    "duration": 0.15625
                },
                {
                    "name": "G#3",
                    "midi": 56,
                    "time": 421.71875,
                    "velocity": 0.7874015748031497,
                    "duration": 0.3125
                },
                {
                    "name": "D4",
                    "midi": 62,
                    "time": 421.875,
                    "velocity": 0.7874015748031497,
                    "duration": 0.15625
                },
                {
                    "name": "E4",
                    "midi": 64,
                    "time": 422.03125,
                    "velocity": 0.7874015748031497,
                    "duration": 0.15625
                },
                {
                    "name": "E4",
                    "midi": 64,
                    "time": 422.03125,
                    "velocity": 0.7874015748031497,
                    "duration": 0.3125
                },
                {
                    "name": "B4",
                    "midi": 71,
                    "time": 422.1875,
                    "velocity": 0.7874015748031497,
                    "duration": 0.15625
                },
                {
                    "name": "A3",
                    "midi": 57,
                    "time": 422.34375,
                    "velocity": 0.7874015748031497,
                    "duration": 0.15625
                },
                {
                    "name": "A3",
                    "midi": 57,
                    "time": 422.34375,
                    "velocity": 0.7874015748031497,
                    "duration": 0.3125
                },
                {
                    "name": "E4",
                    "midi": 64,
                    "time": 422.5,
                    "velocity": 0.7559055118110236,
                    "duration": 0.15625
                },
                {
                    "name": "A4",
                    "midi": 69,
                    "time": 422.65625,
                    "velocity": 0.7244094488188977,
                    "duration": 0.15625
                },
                {
                    "name": "A4",
                    "midi": 69,
                    "time": 422.65625,
                    "velocity": 0.7244094488188977,
                    "duration": 0.3125
                },
                {
                    "name": "E5",
                    "midi": 76,
                    "time": 422.8125,
                    "velocity": 0.7007874015748031,
                    "duration": 0.15625
                },
                {
                    "name": "F3",
                    "midi": 53,
                    "time": 422.96875,
                    "velocity": 0.6692913385826772,
                    "duration": 0.15625
                },
                {
                    "name": "F3",
                    "midi": 53,
                    "time": 422.96875,
                    "velocity": 0.6692913385826772,
                    "duration": 0.3125
                },
                {
                    "name": "C4",
                    "midi": 60,
                    "time": 423.125,
                    "velocity": 0.6456692913385826,
                    "duration": 0.15625
                },
                {
                    "name": "D4",
                    "midi": 62,
                    "time": 423.28125,
                    "velocity": 0.6141732283464567,
                    "duration": 0.15625
                },
                {
                    "name": "D4",
                    "midi": 62,
                    "time": 423.28125,
                    "velocity": 0.6141732283464567,
                    "duration": 0.3125
                },
                {
                    "name": "A4",
                    "midi": 69,
                    "time": 423.4375,
                    "velocity": 0.5905511811023622,
                    "duration": 0.15625
                },
                {
                    "name": "F3",
                    "midi": 53,
                    "time": 423.59375,
                    "velocity": 0.5590551181102362,
                    "duration": 0.15625
                },
                {
                    "name": "F3",
                    "midi": 53,
                    "time": 423.59375,
                    "velocity": 0.5590551181102362,
                    "duration": 0.3125
                },
                {
                    "name": "D4",
                    "midi": 62,
                    "time": 423.75,
                    "velocity": 0.5354330708661418,
                    "duration": 0.15625
                },
                {
                    "name": "G4",
                    "midi": 67,
                    "time": 423.90625,
                    "velocity": 0.5039370078740157,
                    "duration": 0.15625
                },
                {
                    "name": "G4",
                    "midi": 67,
                    "time": 423.90625,
                    "velocity": 0.5039370078740157,
                    "duration": 0.3125
                },
                {
                    "name": "D5",
                    "midi": 74,
                    "time": 424.0625,
                    "velocity": 0.48031496062992124,
                    "duration": 0.15625
                },
                {
                    "name": "D3",
                    "midi": 50,
                    "time": 424.21875,
                    "velocity": 0.44881889763779526,
                    "duration": 0.15625
                },
                {
                    "name": "D3",
                    "midi": 50,
                    "time": 424.21875,
                    "velocity": 0.44881889763779526,
                    "duration": 0.3125
                },
                {
                    "name": "B3",
                    "midi": 59,
                    "time": 424.375,
                    "velocity": 0.4251968503937008,
                    "duration": 0.15625
                },
                {
                    "name": "F4",
                    "midi": 65,
                    "time": 424.53125,
                    "velocity": 0.3937007874015748,
                    "duration": 0.15625
                },
                {
                    "name": "F4",
                    "midi": 65,
                    "time": 424.53125,
                    "velocity": 0.3937007874015748,
                    "duration": 0.3125
                },
                {
                    "name": "D3",
                    "midi": 50,
                    "time": 424.6875,
                    "velocity": 0.3700787401574803,
                    "duration": 0.15625
                },
                {
                    "name": "C3",
                    "midi": 48,
                    "time": 424.84375,
                    "velocity": 0.33858267716535434,
                    "duration": 0.15625
                },
                {
                    "name": "C3",
                    "midi": 48,
                    "time": 424.84375,
                    "velocity": 0.33858267716535434,
                    "duration": 0.15625
                },
                {
                    "name": "G3",
                    "midi": 55,
                    "time": 425,
                    "velocity": 0.31496062992125984,
                    "duration": 0.15625
                },
                {
                    "name": "C3",
                    "midi": 48,
                    "time": 425,
                    "velocity": 0.31496062992125984,
                    "duration": 0.15625
                },
                {
                    "name": "C4",
                    "midi": 60,
                    "time": 425.15625,
                    "velocity": 0.3228346456692913,
                    "duration": 0.15625
                },
                {
                    "name": "C4",
                    "midi": 60,
                    "time": 425.15625,
                    "velocity": 0.3228346456692913,
                    "duration": 0.3125
                },
                {
                    "name": "G4",
                    "midi": 67,
                    "time": 425.3125,
                    "velocity": 0.33070866141732286,
                    "duration": 0.15625
                },
                {
                    "name": "B2",
                    "midi": 47,
                    "time": 425.46875,
                    "velocity": 0.33858267716535434,
                    "duration": 0.15625
                },
                {
                    "name": "B2",
                    "midi": 47,
                    "time": 425.46875,
                    "velocity": 0.33858267716535434,
                    "duration": 0.3125
                },
                {
                    "name": "F3",
                    "midi": 53,
                    "time": 425.625,
                    "velocity": 0.3464566929133858,
                    "duration": 0.15625
                },
                {
                    "name": "G3",
                    "midi": 55,
                    "time": 425.78125,
                    "velocity": 0.3464566929133858,
                    "duration": 0.15625
                },
                {
                    "name": "G3",
                    "midi": 55,
                    "time": 425.78125,
                    "velocity": 0.3464566929133858,
                    "duration": 0.3125
                },
                {
                    "name": "D4",
                    "midi": 62,
                    "time": 425.9375,
                    "velocity": 0.3543307086614173,
                    "duration": 0.15625
                },
                {
                    "name": "C3",
                    "midi": 48,
                    "time": 426.09375,
                    "velocity": 0.36220472440944884,
                    "duration": 0.15625
                },
                {
                    "name": "C3",
                    "midi": 48,
                    "time": 426.09375,
                    "velocity": 0.36220472440944884,
                    "duration": 0.3125
                },
                {
                    "name": "G3",
                    "midi": 55,
                    "time": 426.25,
                    "velocity": 0.3700787401574803,
                    "duration": 0.15625
                },
                {
                    "name": "C4",
                    "midi": 60,
                    "time": 426.40625,
                    "velocity": 0.3779527559055118,
                    "duration": 0.15625
                },
                {
                    "name": "C4",
                    "midi": 60,
                    "time": 426.40625,
                    "velocity": 0.3779527559055118,
                    "duration": 0.3125
                },
                {
                    "name": "G4",
                    "midi": 67,
                    "time": 426.5625,
                    "velocity": 0.3858267716535433,
                    "duration": 0.15625
                },
                {
                    "name": "A#2",
                    "midi": 46,
                    "time": 426.71875,
                    "velocity": 0.3937007874015748,
                    "duration": 0.15625
                },
                {
                    "name": "A#2",
                    "midi": 46,
                    "time": 426.71875,
                    "velocity": 0.3937007874015748,
                    "duration": 0.3125
                },
                {
                    "name": "D3",
                    "midi": 50,
                    "time": 426.875,
                    "velocity": 0.4015748031496063,
                    "duration": 0.15625
                },
                {
                    "name": "G3",
                    "midi": 55,
                    "time": 427.03125,
                    "velocity": 0.4094488188976378,
                    "duration": 0.15625
                },
                {
                    "name": "G3",
                    "midi": 55,
                    "time": 427.03125,
                    "velocity": 0.4094488188976378,
                    "duration": 0.3125
                },
                {
                    "name": "D4",
                    "midi": 62,
                    "time": 427.1875,
                    "velocity": 0.41732283464566927,
                    "duration": 0.15625
                },
                {
                    "name": "G2",
                    "midi": 43,
                    "time": 427.34375,
                    "velocity": 0.41732283464566927,
                    "duration": 0.15625
                },
                {
                    "name": "G2",
                    "midi": 43,
                    "time": 427.34375,
                    "velocity": 0.41732283464566927,
                    "duration": 0.3125
                },
                {
                    "name": "D3",
                    "midi": 50,
                    "time": 427.5,
                    "velocity": 0.4251968503937008,
                    "duration": 0.15625
                },
                {
                    "name": "G3",
                    "midi": 55,
                    "time": 427.65625,
                    "velocity": 0.4330708661417323,
                    "duration": 0.15625
                },
                {
                    "name": "G3",
                    "midi": 55,
                    "time": 427.65625,
                    "velocity": 0.4330708661417323,
                    "duration": 0.3125
                },
                {
                    "name": "A#3",
                    "midi": 58,
                    "time": 427.8125,
                    "velocity": 0.4409448818897638,
                    "duration": 0.15625
                },
                {
                    "name": "A#2",
                    "midi": 46,
                    "time": 427.96875,
                    "velocity": 0.44881889763779526,
                    "duration": 0.15625
                },
                {
                    "name": "A#2",
                    "midi": 46,
                    "time": 427.96875,
                    "velocity": 0.44881889763779526,
                    "duration": 0.3125
                },
                {
                    "name": "G3",
                    "midi": 55,
                    "time": 428.125,
                    "velocity": 0.4566929133858268,
                    "duration": 0.15625
                },
                {
                    "name": "A#3",
                    "midi": 58,
                    "time": 428.28125,
                    "velocity": 0.4645669291338583,
                    "duration": 0.15625
                },
                {
                    "name": "A#3",
                    "midi": 58,
                    "time": 428.28125,
                    "velocity": 0.4645669291338583,
                    "duration": 0.3125
                },
                {
                    "name": "D4",
                    "midi": 62,
                    "time": 428.4375,
                    "velocity": 0.47244094488188976,
                    "duration": 0.15625
                },
                {
                    "name": "D3",
                    "midi": 50,
                    "time": 428.59375,
                    "velocity": 0.48031496062992124,
                    "duration": 0.15625
                },
                {
                    "name": "D3",
                    "midi": 50,
                    "time": 428.59375,
                    "velocity": 0.48031496062992124,
                    "duration": 0.3125
                },
                {
                    "name": "G3",
                    "midi": 55,
                    "time": 428.75,
                    "velocity": 0.48031496062992124,
                    "duration": 0.15625
                },
                {
                    "name": "A3",
                    "midi": 57,
                    "time": 428.90625,
                    "velocity": 0.4881889763779528,
                    "duration": 0.15625
                },
                {
                    "name": "A3",
                    "midi": 57,
                    "time": 428.90625,
                    "velocity": 0.4881889763779528,
                    "duration": 0.3125
                },
                {
                    "name": "A#3",
                    "midi": 58,
                    "time": 429.0625,
                    "velocity": 0.49606299212598426,
                    "duration": 0.15625
                },
                {
                    "name": "A3",
                    "midi": 57,
                    "time": 429.21875,
                    "velocity": 0.5039370078740157,
                    "duration": 0.15625
                },
                {
                    "name": "A3",
                    "midi": 57,
                    "time": 429.21875,
                    "velocity": 0.5039370078740157,
                    "duration": 0.3125
                },
                {
                    "name": "G3",
                    "midi": 55,
                    "time": 429.375,
                    "velocity": 0.5118110236220472,
                    "duration": 0.15625
                },
                {
                    "name": "F3",
                    "midi": 53,
                    "time": 429.53125,
                    "velocity": 0.5196850393700787,
                    "duration": 0.15625
                },
                {
                    "name": "F3",
                    "midi": 53,
                    "time": 429.53125,
                    "velocity": 0.5196850393700787,
                    "duration": 0.3125
                },
                {
                    "name": "D3",
                    "midi": 50,
                    "time": 429.6875,
                    "velocity": 0.5275590551181102,
                    "duration": 0.15625
                },
                {
                    "name": "F2",
                    "midi": 41,
                    "time": 429.84375,
                    "velocity": 0.5354330708661418,
                    "duration": 0.15625
                },
                {
                    "name": "F2",
                    "midi": 41,
                    "time": 429.84375,
                    "velocity": 0.5354330708661418,
                    "duration": 0.3125
                },
                {
                    "name": "D3",
                    "midi": 50,
                    "time": 430,
                    "velocity": 0.5433070866141733,
                    "duration": 0.15625
                },
                {
                    "name": "F3",
                    "midi": 53,
                    "time": 430.15625,
                    "velocity": 0.5433070866141733,
                    "duration": 0.15625
                },
                {
                    "name": "F3",
                    "midi": 53,
                    "time": 430.15625,
                    "velocity": 0.5433070866141733,
                    "duration": 0.3125
                },
                {
                    "name": "G#3",
                    "midi": 56,
                    "time": 430.3125,
                    "velocity": 0.5511811023622047,
                    "duration": 0.15625
                },
                {
                    "name": "G#2",
                    "midi": 44,
                    "time": 430.46875,
                    "velocity": 0.5590551181102362,
                    "duration": 0.15625
                },
                {
                    "name": "G#2",
                    "midi": 44,
                    "time": 430.46875,
                    "velocity": 0.5590551181102362,
                    "duration": 0.3125
                },
                {
                    "name": "F3",
                    "midi": 53,
                    "time": 430.625,
                    "velocity": 0.5669291338582677,
                    "duration": 0.15625
                },
                {
                    "name": "G#3",
                    "midi": 56,
                    "time": 430.78125,
                    "velocity": 0.5748031496062992,
                    "duration": 0.15625
                },
                {
                    "name": "G#3",
                    "midi": 56,
                    "time": 430.78125,
                    "velocity": 0.5748031496062992,
                    "duration": 0.3125
                },
                {
                    "name": "C4",
                    "midi": 60,
                    "time": 430.9375,
                    "velocity": 0.5826771653543307,
                    "duration": 0.15625
                },
                {
                    "name": "C3",
                    "midi": 48,
                    "time": 431.09375,
                    "velocity": 0.5905511811023622,
                    "duration": 0.15625
                },
                {
                    "name": "C3",
                    "midi": 48,
                    "time": 431.09375,
                    "velocity": 0.5905511811023622,
                    "duration": 0.3125
                },
                {
                    "name": "F3",
                    "midi": 53,
                    "time": 431.25,
                    "velocity": 0.5984251968503937,
                    "duration": 0.15625
                },
                {
                    "name": "G3",
                    "midi": 55,
                    "time": 431.40625,
                    "velocity": 0.6062992125984252,
                    "duration": 0.15625
                },
                {
                    "name": "G3",
                    "midi": 55,
                    "time": 431.40625,
                    "velocity": 0.6062992125984252,
                    "duration": 0.3125
                },
                {
                    "name": "G#3",
                    "midi": 56,
                    "time": 431.5625,
                    "velocity": 0.6141732283464567,
                    "duration": 0.15625
                },
                {
                    "name": "G3",
                    "midi": 55,
                    "time": 431.71875,
                    "velocity": 0.6141732283464567,
                    "duration": 0.15625
                },
                {
                    "name": "G3",
                    "midi": 55,
                    "time": 431.71875,
                    "velocity": 0.6141732283464567,
                    "duration": 0.3125
                },
                {
                    "name": "F3",
                    "midi": 53,
                    "time": 431.875,
                    "velocity": 0.6220472440944882,
                    "duration": 0.15625
                },
                {
                    "name": "E3",
                    "midi": 52,
                    "time": 432.03125,
                    "velocity": 0.6299212598425197,
                    "duration": 0.15625
                },
                {
                    "name": "E3",
                    "midi": 52,
                    "time": 432.03125,
                    "velocity": 0.6299212598425197,
                    "duration": 0.3125
                },
                {
                    "name": "C3",
                    "midi": 48,
                    "time": 432.1875,
                    "velocity": 0.6377952755905512,
                    "duration": 0.15625
                },
                {
                    "name": "F2",
                    "midi": 41,
                    "time": 432.34375,
                    "velocity": 0.6456692913385826,
                    "duration": 0.15625
                },
                {
                    "name": "C3",
                    "midi": 48,
                    "time": 432.5,
                    "velocity": 0.6535433070866141,
                    "duration": 0.15625
                },
                {
                    "name": "D3",
                    "midi": 50,
                    "time": 432.65625,
                    "velocity": 0.6614173228346457,
                    "duration": 0.15625
                },
                {
                    "name": "A3",
                    "midi": 57,
                    "time": 432.8125,
                    "velocity": 0.6692913385826772,
                    "duration": 0.15625
                },
                {
                    "name": "G2",
                    "midi": 43,
                    "time": 432.96875,
                    "velocity": 0.6771653543307087,
                    "duration": 0.15625
                },
                {
                    "name": "C3",
                    "midi": 48,
                    "time": 433.125,
                    "velocity": 0.6771653543307087,
                    "duration": 0.15625
                },
                {
                    "name": "D3",
                    "midi": 50,
                    "time": 433.28125,
                    "velocity": 0.6850393700787402,
                    "duration": 0.15625
                },
                {
                    "name": "G3",
                    "midi": 55,
                    "time": 433.4375,
                    "velocity": 0.6929133858267716,
                    "duration": 0.15625
                },
                {
                    "name": "A2",
                    "midi": 45,
                    "time": 433.59375,
                    "velocity": 0.7007874015748031,
                    "duration": 0.15625
                },
                {
                    "name": "C3",
                    "midi": 48,
                    "time": 433.75,
                    "velocity": 0.7086614173228346,
                    "duration": 0.15625
                },
                {
                    "name": "D3",
                    "midi": 50,
                    "time": 433.90625,
                    "velocity": 0.7165354330708661,
                    "duration": 0.15625
                },
                {
                    "name": "F#3",
                    "midi": 54,
                    "time": 434.0625,
                    "velocity": 0.7322834645669292,
                    "duration": 0.15625
                },
                {
                    "name": "G2",
                    "midi": 43,
                    "time": 434.21875,
                    "velocity": 0.7401574803149606,
                    "duration": 0.15625
                },
                {
                    "name": "C3",
                    "midi": 48,
                    "time": 434.375,
                    "velocity": 0.7480314960629921,
                    "duration": 0.15625
                },
                {
                    "name": "D3",
                    "midi": 50,
                    "time": 434.53125,
                    "velocity": 0.7559055118110236,
                    "duration": 0.15625
                },
                {
                    "name": "G3",
                    "midi": 55,
                    "time": 434.6875,
                    "velocity": 0.7716535433070866,
                    "duration": 0.15625
                },
                {
                    "name": "F#2",
                    "midi": 42,
                    "time": 434.84375,
                    "velocity": 0.7795275590551181,
                    "duration": 0.15625
                },
                {
                    "name": "F#2",
                    "midi": 42,
                    "time": 434.84375,
                    "velocity": 0.9291338582677166,
                    "duration": 0.625
                },
                {
                    "name": "C3",
                    "midi": 48,
                    "time": 435,
                    "velocity": 0.7874015748031497,
                    "duration": 0.15625
                },
                {
                    "name": "D3",
                    "midi": 50,
                    "time": 435.15625,
                    "velocity": 0.7952755905511811,
                    "duration": 0.15625
                },
                {
                    "name": "A3",
                    "midi": 57,
                    "time": 435.3125,
                    "velocity": 0.8110236220472441,
                    "duration": 0.15625
                },
                {
                    "name": "G2",
                    "midi": 43,
                    "time": 435.46875,
                    "velocity": 0.8188976377952756,
                    "duration": 0.15625
                },
                {
                    "name": "G2",
                    "midi": 43,
                    "time": 435.46875,
                    "velocity": 0.968503937007874,
                    "duration": 0.625
                },
                {
                    "name": "C3",
                    "midi": 48,
                    "time": 435.625,
                    "velocity": 0.8267716535433071,
                    "duration": 0.15625
                },
                {
                    "name": "D3",
                    "midi": 50,
                    "time": 435.78125,
                    "velocity": 0.8346456692913385,
                    "duration": 0.15625
                },
                {
                    "name": "G3",
                    "midi": 55,
                    "time": 435.9375,
                    "velocity": 0.8503937007874016,
                    "duration": 0.15625
                },
                {
                    "name": "A2",
                    "midi": 45,
                    "time": 436.09375,
                    "velocity": 0.8582677165354331,
                    "duration": 0.15625
                },
                {
                    "name": "A2",
                    "midi": 45,
                    "time": 436.09375,
                    "velocity": 1,
                    "duration": 0.625
                },
                {
                    "name": "C3",
                    "midi": 48,
                    "time": 436.25,
                    "velocity": 0.8661417322834646,
                    "duration": 0.15625
                },
                {
                    "name": "D3",
                    "midi": 50,
                    "time": 436.40625,
                    "velocity": 0.8740157480314961,
                    "duration": 0.15625
                },
                {
                    "name": "F#3",
                    "midi": 54,
                    "time": 436.5625,
                    "velocity": 0.889763779527559,
                    "duration": 0.15625
                },
                {
                    "name": "G2",
                    "midi": 43,
                    "time": 436.71875,
                    "velocity": 0.8976377952755905,
                    "duration": 0.15625
                },
                {
                    "name": "G2",
                    "midi": 43,
                    "time": 436.71875,
                    "velocity": 1,
                    "duration": 0.625
                },
                {
                    "name": "C3",
                    "midi": 48,
                    "time": 436.875,
                    "velocity": 0.905511811023622,
                    "duration": 0.15625
                },
                {
                    "name": "D3",
                    "midi": 50,
                    "time": 437.03125,
                    "velocity": 0.9133858267716536,
                    "duration": 0.15625
                },
                {
                    "name": "G3",
                    "midi": 55,
                    "time": 437.1875,
                    "velocity": 0.9291338582677166,
                    "duration": 0.15625
                },
                {
                    "name": "F#2",
                    "midi": 42,
                    "time": 437.34375,
                    "velocity": 0.937007874015748,
                    "duration": 0.15625
                },
                {
                    "name": "F#2",
                    "midi": 42,
                    "time": 437.34375,
                    "velocity": 1,
                    "duration": 0.625
                },
                {
                    "name": "C3",
                    "midi": 48,
                    "time": 437.5,
                    "velocity": 0.9448818897637795,
                    "duration": 0.15625
                },
                {
                    "name": "D3",
                    "midi": 50,
                    "time": 437.65625,
                    "velocity": 0.952755905511811,
                    "duration": 0.15625
                },
                {
                    "name": "A3",
                    "midi": 57,
                    "time": 437.8125,
                    "velocity": 0.968503937007874,
                    "duration": 0.15625
                },
                {
                    "name": "F2",
                    "midi": 41,
                    "time": 437.96875,
                    "velocity": 0.9763779527559056,
                    "duration": 0.15625
                },
                {
                    "name": "F2",
                    "midi": 41,
                    "time": 437.96875,
                    "velocity": 1,
                    "duration": 0.625
                },
                {
                    "name": "B2",
                    "midi": 47,
                    "time": 438.125,
                    "velocity": 0.984251968503937,
                    "duration": 0.15625
                },
                {
                    "name": "D3",
                    "midi": 50,
                    "time": 438.28125,
                    "velocity": 0.9921259842519685,
                    "duration": 0.15625
                },
                {
                    "name": "G3",
                    "midi": 55,
                    "time": 438.4375,
                    "velocity": 1,
                    "duration": 0.15625
                },
                {
                    "name": "E2",
                    "midi": 40,
                    "time": 438.59375,
                    "velocity": 1,
                    "duration": 0.15625
                },
                {
                    "name": "E2",
                    "midi": 40,
                    "time": 438.59375,
                    "velocity": 1,
                    "duration": 0.625
                },
                {
                    "name": "B2",
                    "midi": 47,
                    "time": 438.75,
                    "velocity": 1,
                    "duration": 0.15625
                },
                {
                    "name": "C3",
                    "midi": 48,
                    "time": 438.90625,
                    "velocity": 1,
                    "duration": 0.15625
                },
                {
                    "name": "G3",
                    "midi": 55,
                    "time": 439.0625,
                    "velocity": 1,
                    "duration": 0.15625
                },
                {
                    "name": "E2",
                    "midi": 40,
                    "time": 439.21875,
                    "velocity": 1,
                    "duration": 0.15625
                },
                {
                    "name": "E2",
                    "midi": 40,
                    "time": 439.21875,
                    "velocity": 1,
                    "duration": 0.625
                },
                {
                    "name": "A2",
                    "midi": 45,
                    "time": 439.375,
                    "velocity": 1,
                    "duration": 0.15625
                },
                {
                    "name": "C3",
                    "midi": 48,
                    "time": 439.53125,
                    "velocity": 1,
                    "duration": 0.15625
                },
                {
                    "name": "F3",
                    "midi": 53,
                    "time": 439.6875,
                    "velocity": 1,
                    "duration": 0.15625
                },
                {
                    "name": "D2",
                    "midi": 38,
                    "time": 439.84375,
                    "velocity": 1,
                    "duration": 0.15625
                },
                {
                    "name": "D2",
                    "midi": 38,
                    "time": 439.84375,
                    "velocity": 1,
                    "duration": 0.625
                },
                {
                    "name": "A2",
                    "midi": 45,
                    "time": 440,
                    "velocity": 1,
                    "duration": 0.15625
                },
                {
                    "name": "B2",
                    "midi": 47,
                    "time": 440.15625,
                    "velocity": 1,
                    "duration": 0.15625
                },
                {
                    "name": "F3",
                    "midi": 53,
                    "time": 440.3125,
                    "velocity": 1,
                    "duration": 0.15625
                },
                {
                    "name": "D2",
                    "midi": 38,
                    "time": 440.46875,
                    "velocity": 1,
                    "duration": 0.15625
                },
                {
                    "name": "D2",
                    "midi": 38,
                    "time": 440.46875,
                    "velocity": 1,
                    "duration": 0.625
                },
                {
                    "name": "G#2",
                    "midi": 44,
                    "time": 440.625,
                    "velocity": 1,
                    "duration": 0.15625
                },
                {
                    "name": "B2",
                    "midi": 47,
                    "time": 440.78125,
                    "velocity": 1,
                    "duration": 0.15625
                },
                {
                    "name": "E3",
                    "midi": 52,
                    "time": 440.9375,
                    "velocity": 1,
                    "duration": 0.235595703125
                },
                {
                    "name": "A1",
                    "midi": 33,
                    "time": 441.25,
                    "velocity": 1,
                    "duration": 0.3125
                },
                {
                    "name": "C2",
                    "midi": 36,
                    "time": 441.25,
                    "velocity": 1,
                    "duration": 0.3125
                },
                {
                    "name": "E2",
                    "midi": 40,
                    "time": 441.25,
                    "velocity": 1,
                    "duration": 0.3125
                },
                {
                    "name": "A2",
                    "midi": 45,
                    "time": 441.25,
                    "velocity": 1,
                    "duration": 0.3125
                },
                {
                    "name": "E2",
                    "midi": 40,
                    "time": 441.5625,
                    "velocity": 1,
                    "duration": 0.3125
                },
                {
                    "name": "G#2",
                    "midi": 44,
                    "time": 441.5625,
                    "velocity": 1,
                    "duration": 0.3125
                },
                {
                    "name": "B2",
                    "midi": 47,
                    "time": 441.5625,
                    "velocity": 1,
                    "duration": 0.3125
                },
                {
                    "name": "E3",
                    "midi": 52,
                    "time": 441.5625,
                    "velocity": 1,
                    "duration": 0.3125
                },
                {
                    "name": "A2",
                    "midi": 45,
                    "time": 441.875,
                    "velocity": 1,
                    "duration": 0.3125
                },
                {
                    "name": "C3",
                    "midi": 48,
                    "time": 441.875,
                    "velocity": 1,
                    "duration": 0.3125
                },
                {
                    "name": "E3",
                    "midi": 52,
                    "time": 441.875,
                    "velocity": 1,
                    "duration": 0.3125
                },
                {
                    "name": "A3",
                    "midi": 57,
                    "time": 441.875,
                    "velocity": 1,
                    "duration": 0.3125
                },
                {
                    "name": "C3",
                    "midi": 48,
                    "time": 442.1875,
                    "velocity": 1,
                    "duration": 0.3125
                },
                {
                    "name": "E3",
                    "midi": 52,
                    "time": 442.1875,
                    "velocity": 1,
                    "duration": 0.3125
                },
                {
                    "name": "G3",
                    "midi": 55,
                    "time": 442.1875,
                    "velocity": 1,
                    "duration": 0.3125
                },
                {
                    "name": "C4",
                    "midi": 60,
                    "time": 442.1875,
                    "velocity": 1,
                    "duration": 0.3125
                },
                {
                    "name": "F3",
                    "midi": 53,
                    "time": 442.5,
                    "velocity": 1,
                    "duration": 0.3125
                },
                {
                    "name": "A3",
                    "midi": 57,
                    "time": 442.5,
                    "velocity": 1,
                    "duration": 0.3125
                },
                {
                    "name": "C4",
                    "midi": 60,
                    "time": 442.5,
                    "velocity": 1,
                    "duration": 0.3125
                },
                {
                    "name": "F4",
                    "midi": 65,
                    "time": 442.5,
                    "velocity": 1,
                    "duration": 0.3125
                },
                {
                    "name": "A3",
                    "midi": 57,
                    "time": 442.8125,
                    "velocity": 1,
                    "duration": 0.3125
                },
                {
                    "name": "C#4",
                    "midi": 61,
                    "time": 442.8125,
                    "velocity": 1,
                    "duration": 0.3125
                },
                {
                    "name": "E4",
                    "midi": 64,
                    "time": 442.8125,
                    "velocity": 1,
                    "duration": 0.3125
                },
                {
                    "name": "A4",
                    "midi": 69,
                    "time": 442.8125,
                    "velocity": 1,
                    "duration": 0.3125
                },
                {
                    "name": "D4",
                    "midi": 62,
                    "time": 443.125,
                    "velocity": 1,
                    "duration": 0.3125
                },
                {
                    "name": "F#4",
                    "midi": 66,
                    "time": 443.125,
                    "velocity": 1,
                    "duration": 0.3125
                },
                {
                    "name": "A4",
                    "midi": 69,
                    "time": 443.125,
                    "velocity": 1,
                    "duration": 0.3125
                },
                {
                    "name": "D5",
                    "midi": 74,
                    "time": 443.125,
                    "velocity": 1,
                    "duration": 0.3125
                },
                {
                    "name": "G4",
                    "midi": 67,
                    "time": 443.4375,
                    "velocity": 1,
                    "duration": 0.3125
                },
                {
                    "name": "B4",
                    "midi": 71,
                    "time": 443.4375,
                    "velocity": 1,
                    "duration": 0.3125
                },
                {
                    "name": "D5",
                    "midi": 74,
                    "time": 443.4375,
                    "velocity": 1,
                    "duration": 0.3125
                },
                {
                    "name": "C4",
                    "midi": 60,
                    "time": 443.75,
                    "velocity": 1,
                    "duration": 0.3125
                },
                {
                    "name": "E4",
                    "midi": 64,
                    "time": 443.75,
                    "velocity": 1,
                    "duration": 0.3125
                },
                {
                    "name": "G4",
                    "midi": 67,
                    "time": 443.75,
                    "velocity": 1,
                    "duration": 0.3125
                },
                {
                    "name": "C5",
                    "midi": 72,
                    "time": 443.75,
                    "velocity": 1,
                    "duration": 0.3125
                },
                {
                    "name": "E4",
                    "midi": 64,
                    "time": 444.0625,
                    "velocity": 1,
                    "duration": 0.3125
                },
                {
                    "name": "G#4",
                    "midi": 68,
                    "time": 444.0625,
                    "velocity": 1,
                    "duration": 0.3125
                },
                {
                    "name": "B4",
                    "midi": 71,
                    "time": 444.0625,
                    "velocity": 1,
                    "duration": 0.3125
                },
                {
                    "name": "A3",
                    "midi": 57,
                    "time": 444.375,
                    "velocity": 1,
                    "duration": 0.3125
                },
                {
                    "name": "C4",
                    "midi": 60,
                    "time": 444.375,
                    "velocity": 1,
                    "duration": 0.3125
                },
                {
                    "name": "E4",
                    "midi": 64,
                    "time": 444.375,
                    "velocity": 1,
                    "duration": 0.3125
                },
                {
                    "name": "A4",
                    "midi": 69,
                    "time": 444.375,
                    "velocity": 1,
                    "duration": 0.3125
                },
                {
                    "name": "C4",
                    "midi": 60,
                    "time": 444.6875,
                    "velocity": 1,
                    "duration": 0.3125
                },
                {
                    "name": "E4",
                    "midi": 64,
                    "time": 444.6875,
                    "velocity": 1,
                    "duration": 0.3125
                },
                {
                    "name": "G4",
                    "midi": 67,
                    "time": 444.6875,
                    "velocity": 1,
                    "duration": 0.3125
                },
                {
                    "name": "F3",
                    "midi": 53,
                    "time": 445,
                    "velocity": 0.984251968503937,
                    "duration": 0.3125
                },
                {
                    "name": "A3",
                    "midi": 57,
                    "time": 445,
                    "velocity": 0.984251968503937,
                    "duration": 0.3125
                },
                {
                    "name": "C4",
                    "midi": 60,
                    "time": 445,
                    "velocity": 0.984251968503937,
                    "duration": 0.3125
                },
                {
                    "name": "F4",
                    "midi": 65,
                    "time": 445,
                    "velocity": 0.984251968503937,
                    "duration": 0.3125
                },
                {
                    "name": "A3",
                    "midi": 57,
                    "time": 445.3125,
                    "velocity": 0.937007874015748,
                    "duration": 0.3125
                },
                {
                    "name": "C#4",
                    "midi": 61,
                    "time": 445.3125,
                    "velocity": 0.937007874015748,
                    "duration": 0.3125
                },
                {
                    "name": "E4",
                    "midi": 64,
                    "time": 445.3125,
                    "velocity": 0.937007874015748,
                    "duration": 0.3125
                },
                {
                    "name": "D3",
                    "midi": 50,
                    "time": 445.625,
                    "velocity": 0.8818897637795275,
                    "duration": 0.3125
                },
                {
                    "name": "F#3",
                    "midi": 54,
                    "time": 445.625,
                    "velocity": 0.8818897637795275,
                    "duration": 0.3125
                },
                {
                    "name": "A3",
                    "midi": 57,
                    "time": 445.625,
                    "velocity": 0.8818897637795275,
                    "duration": 0.3125
                },
                {
                    "name": "D4",
                    "midi": 62,
                    "time": 445.625,
                    "velocity": 0.8818897637795275,
                    "duration": 0.3125
                },
                {
                    "name": "G3",
                    "midi": 55,
                    "time": 445.9375,
                    "velocity": 0.8346456692913385,
                    "duration": 0.3125
                },
                {
                    "name": "B3",
                    "midi": 59,
                    "time": 445.9375,
                    "velocity": 0.8346456692913385,
                    "duration": 0.3125
                },
                {
                    "name": "D4",
                    "midi": 62,
                    "time": 445.9375,
                    "velocity": 0.8346456692913385,
                    "duration": 0.3125
                },
                {
                    "name": "E4",
                    "midi": 64,
                    "time": 446.25,
                    "velocity": 0.5511811023622047,
                    "duration": 0.625
                },
                {
                    "name": "C3",
                    "midi": 48,
                    "time": 446.25,
                    "velocity": 0.5511811023622047,
                    "duration": 2.5
                },
                {
                    "name": "C4",
                    "midi": 60,
                    "time": 446.875,
                    "velocity": 0.5511811023622047,
                    "duration": 0.46875
                },
                {
                    "name": "A3",
                    "midi": 57,
                    "time": 447.34375,
                    "velocity": 0.5511811023622047,
                    "duration": 0.15625
                },
                {
                    "name": "G3",
                    "midi": 55,
                    "time": 447.5,
                    "velocity": 0.5511811023622047,
                    "duration": 1.25
                },
                {
                    "name": "C#4",
                    "midi": 61,
                    "time": 448.75,
                    "velocity": 0.5511811023622047,
                    "duration": 0.625
                },
                {
                    "name": "C3",
                    "midi": 48,
                    "time": 448.75,
                    "velocity": 0.5511811023622047,
                    "duration": 2.5
                },
                {
                    "name": "C4",
                    "midi": 60,
                    "time": 449.375,
                    "velocity": 0.5511811023622047,
                    "duration": 0.46875
                },
                {
                    "name": "A#3",
                    "midi": 58,
                    "time": 449.84375,
                    "velocity": 0.5511811023622047,
                    "duration": 0.15625
                },
                {
                    "name": "A3",
                    "midi": 57,
                    "time": 450,
                    "velocity": 0.5511811023622047,
                    "duration": 1.25
                },
                {
                    "name": "A3",
                    "midi": 57,
                    "time": 451.25,
                    "velocity": 0.5511811023622047,
                    "duration": 0.625
                },
                {
                    "name": "C3",
                    "midi": 48,
                    "time": 451.25,
                    "velocity": 0.5511811023622047,
                    "duration": 2.5
                },
                {
                    "name": "G#3",
                    "midi": 56,
                    "time": 451.875,
                    "velocity": 0.5511811023622047,
                    "duration": 0.46875
                },
                {
                    "name": "G3",
                    "midi": 55,
                    "time": 452.34375,
                    "velocity": 0.5511811023622047,
                    "duration": 0.15625
                },
                {
                    "name": "F#3",
                    "midi": 54,
                    "time": 452.5,
                    "velocity": 0.5511811023622047,
                    "duration": 1.25
                },
                {
                    "name": "F3",
                    "midi": 53,
                    "time": 453.75,
                    "velocity": 0.5511811023622047,
                    "duration": 0.625
                },
                {
                    "name": "C3",
                    "midi": 48,
                    "time": 453.75,
                    "velocity": 0.5511811023622047,
                    "duration": 1.25
                },
                {
                    "name": "D3",
                    "midi": 50,
                    "time": 454.375,
                    "velocity": 0.5511811023622047,
                    "duration": 0.625
                },
                {
                    "name": "E3",
                    "midi": 52,
                    "time": 455,
                    "velocity": 0.5511811023622047,
                    "duration": 1.25
                },
                {
                    "name": "C3",
                    "midi": 48,
                    "time": 455,
                    "velocity": 0.5511811023622047,
                    "duration": 1.25
                },
                {
                    "name": "E3",
                    "midi": 52,
                    "time": 456.25,
                    "velocity": 0.5511811023622047,
                    "duration": 0.625
                },
                {
                    "name": "C2",
                    "midi": 36,
                    "time": 456.25,
                    "velocity": 0.5511811023622047,
                    "duration": 2.5
                },
                {
                    "name": "C3",
                    "midi": 48,
                    "time": 456.875,
                    "velocity": 0.5354330708661418,
                    "duration": 0.46875
                },
                {
                    "name": "A2",
                    "midi": 45,
                    "time": 457.34375,
                    "velocity": 0.5196850393700787,
                    "duration": 0.15625
                },
                {
                    "name": "G2",
                    "midi": 43,
                    "time": 457.5,
                    "velocity": 0.5196850393700787,
                    "duration": 1.25
                },
                {
                    "name": "C2",
                    "midi": 36,
                    "time": 458.671875,
                    "velocity": 0.48031496062992124,
                    "duration": 0.078125
                },
                {
                    "name": "C#3",
                    "midi": 49,
                    "time": 458.75,
                    "velocity": 0.48031496062992124,
                    "duration": 0.625
                },
                {
                    "name": "C#4",
                    "midi": 61,
                    "time": 458.75,
                    "velocity": 0.48031496062992124,
                    "duration": 0.625
                },
                {
                    "name": "C3",
                    "midi": 48,
                    "time": 459.375,
                    "velocity": 0.4645669291338583,
                    "duration": 0.46875
                },
                {
                    "name": "C4",
                    "midi": 60,
                    "time": 459.375,
                    "velocity": 0.4645669291338583,
                    "duration": 0.46875
                },
                {
                    "name": "A#2",
                    "midi": 46,
                    "time": 459.84375,
                    "velocity": 0.4566929133858268,
                    "duration": 0.15625
                },
                {
                    "name": "A#3",
                    "midi": 58,
                    "time": 459.84375,
                    "velocity": 0.4566929133858268,
                    "duration": 0.15625
                },
                {
                    "name": "A2",
                    "midi": 45,
                    "time": 460,
                    "velocity": 0.44881889763779526,
                    "duration": 1.25
                },
                {
                    "name": "A3",
                    "midi": 57,
                    "time": 460,
                    "velocity": 0.44881889763779526,
                    "duration": 1.25
                },
                {
                    "name": "C2",
                    "midi": 36,
                    "time": 461.171875,
                    "velocity": 0.41732283464566927,
                    "duration": 0.078125
                },
                {
                    "name": "A2",
                    "midi": 45,
                    "time": 461.25,
                    "velocity": 0.41732283464566927,
                    "duration": 0.625
                },
                {
                    "name": "A3",
                    "midi": 57,
                    "time": 461.25,
                    "velocity": 0.41732283464566927,
                    "duration": 0.625
                },
                {
                    "name": "G#2",
                    "midi": 44,
                    "time": 461.875,
                    "velocity": 0.4015748031496063,
                    "duration": 0.46875
                },
                {
                    "name": "G#3",
                    "midi": 56,
                    "time": 461.875,
                    "velocity": 0.4015748031496063,
                    "duration": 0.46875
                },
                {
                    "name": "G2",
                    "midi": 43,
                    "time": 462.34375,
                    "velocity": 0.3858267716535433,
                    "duration": 0.15625
                },
                {
                    "name": "G3",
                    "midi": 55,
                    "time": 462.34375,
                    "velocity": 0.3858267716535433,
                    "duration": 0.15625
                },
                {
                    "name": "F#2",
                    "midi": 42,
                    "time": 462.5,
                    "velocity": 0.3858267716535433,
                    "duration": 1.25
                },
                {
                    "name": "F#3",
                    "midi": 54,
                    "time": 462.5,
                    "velocity": 0.3858267716535433,
                    "duration": 1.25
                },
                {
                    "name": "C2",
                    "midi": 36,
                    "time": 463.671875,
                    "velocity": 0.3464566929133858,
                    "duration": 0.078125
                },
                {
                    "name": "F2",
                    "midi": 41,
                    "time": 463.75,
                    "velocity": 0.3464566929133858,
                    "duration": 0.625
                },
                {
                    "name": "F3",
                    "midi": 53,
                    "time": 463.75,
                    "velocity": 0.3464566929133858,
                    "duration": 0.625
                },
                {
                    "name": "D2",
                    "midi": 38,
                    "time": 464.375,
                    "velocity": 0.33070866141732286,
                    "duration": 0.625
                },
                {
                    "name": "D3",
                    "midi": 50,
                    "time": 464.375,
                    "velocity": 0.33070866141732286,
                    "duration": 0.625
                },
                {
                    "name": "C2",
                    "midi": 36,
                    "time": 465,
                    "velocity": 0.2755905511811024,
                    "duration": 0.3125
                },
                {
                    "name": "C3",
                    "midi": 48,
                    "time": 465,
                    "velocity": 0.2755905511811024,
                    "duration": 0.3125
                },
                {
                    "name": "A#1",
                    "midi": 34,
                    "time": 465.625,
                    "velocity": 0.2755905511811024,
                    "duration": 0.625
                },
                {
                    "name": "A#2",
                    "midi": 46,
                    "time": 465.625,
                    "velocity": 0.2755905511811024,
                    "duration": 0.625
                },
                {
                    "name": "A1",
                    "midi": 33,
                    "time": 466.25,
                    "velocity": 0.2677165354330709,
                    "duration": 0.625
                },
                {
                    "name": "A2",
                    "midi": 45,
                    "time": 466.25,
                    "velocity": 0.2677165354330709,
                    "duration": 0.625
                },
                {
                    "name": "G1",
                    "midi": 31,
                    "time": 466.875,
                    "velocity": 0.2677165354330709,
                    "duration": 0.625
                },
                {
                    "name": "G2",
                    "midi": 43,
                    "time": 466.875,
                    "velocity": 0.2677165354330709,
                    "duration": 0.625
                },
                {
                    "name": "F#1",
                    "midi": 30,
                    "time": 467.5,
                    "velocity": 0.25984251968503935,
                    "duration": 0.625
                },
                {
                    "name": "F#2",
                    "midi": 42,
                    "time": 467.5,
                    "velocity": 0.25984251968503935,
                    "duration": 0.625
                },
                {
                    "name": "F1",
                    "midi": 29,
                    "time": 468.125,
                    "velocity": 0.25984251968503935,
                    "duration": 0.625
                },
                {
                    "name": "F2",
                    "midi": 41,
                    "time": 468.125,
                    "velocity": 0.25984251968503935,
                    "duration": 0.625
                },
                {
                    "name": "E1",
                    "midi": 28,
                    "time": 468.75,
                    "velocity": 0.25196850393700787,
                    "duration": 0.625
                },
                {
                    "name": "E2",
                    "midi": 40,
                    "time": 468.75,
                    "velocity": 0.25196850393700787,
                    "duration": 0.625
                },
                {
                    "name": "D1",
                    "midi": 26,
                    "time": 469.375,
                    "velocity": 0.25196850393700787,
                    "duration": 0.625
                },
                {
                    "name": "D2",
                    "midi": 38,
                    "time": 469.375,
                    "velocity": 0.25196850393700787,
                    "duration": 0.625
                },
                {
                    "name": "C1",
                    "midi": 24,
                    "time": 470,
                    "velocity": 0.25196850393700787,
                    "duration": 0.3125
                },
                {
                    "name": "C2",
                    "midi": 36,
                    "time": 470,
                    "velocity": 0.25196850393700787,
                    "duration": 0.3125
                },
                {
                    "name": "A#1",
                    "midi": 34,
                    "time": 470.625,
                    "velocity": 0.2440944881889764,
                    "duration": 0.625
                },
                {
                    "name": "A#2",
                    "midi": 46,
                    "time": 470.625,
                    "velocity": 0.2440944881889764,
                    "duration": 0.625
                },
                {
                    "name": "A1",
                    "midi": 33,
                    "time": 471.25,
                    "velocity": 0.2440944881889764,
                    "duration": 0.625
                },
                {
                    "name": "A2",
                    "midi": 45,
                    "time": 471.25,
                    "velocity": 0.2440944881889764,
                    "duration": 0.625
                },
                {
                    "name": "G1",
                    "midi": 31,
                    "time": 471.875,
                    "velocity": 0.23622047244094488,
                    "duration": 0.625
                },
                {
                    "name": "G2",
                    "midi": 43,
                    "time": 471.875,
                    "velocity": 0.23622047244094488,
                    "duration": 0.625
                },
                {
                    "name": "F1",
                    "midi": 29,
                    "time": 472.5,
                    "velocity": 0.1968503937007874,
                    "duration": 0.3125
                },
                {
                    "name": "F2",
                    "midi": 41,
                    "time": 472.5,
                    "velocity": 0.1968503937007874,
                    "duration": 0.3125
                },
                {
                    "name": "F2",
                    "midi": 41,
                    "time": 473.125,
                    "velocity": 0.3937007874015748,
                    "duration": 0.625
                },
                {
                    "name": "C3",
                    "midi": 48,
                    "time": 473.125,
                    "velocity": 0.3937007874015748,
                    "duration": 0.625
                },
                {
                    "name": "A3",
                    "midi": 57,
                    "time": 473.125,
                    "velocity": 0.3937007874015748,
                    "duration": 0.625
                },
                {
                    "name": "F2",
                    "midi": 41,
                    "time": 473.75,
                    "velocity": 0.41732283464566927,
                    "duration": 0.625
                },
                {
                    "name": "C3",
                    "midi": 48,
                    "time": 473.75,
                    "velocity": 0.41732283464566927,
                    "duration": 0.625
                },
                {
                    "name": "G#3",
                    "midi": 56,
                    "time": 473.75,
                    "velocity": 0.41732283464566927,
                    "duration": 0.625
                },
                {
                    "name": "F2",
                    "midi": 41,
                    "time": 474.375,
                    "velocity": 0.4645669291338583,
                    "duration": 0.625
                },
                {
                    "name": "B2",
                    "midi": 47,
                    "time": 474.375,
                    "velocity": 0.4645669291338583,
                    "duration": 0.625
                },
                {
                    "name": "G#3",
                    "midi": 56,
                    "time": 474.375,
                    "velocity": 0.4645669291338583,
                    "duration": 0.625
                },
                {
                    "name": "C2",
                    "midi": 36,
                    "time": 475,
                    "velocity": 0.5118110236220472,
                    "duration": 2.8173828125
                },
                {
                    "name": "G2",
                    "midi": 43,
                    "time": 475,
                    "velocity": 0.5118110236220472,
                    "duration": 2.8173828125
                },
                {
                    "name": "C3",
                    "midi": 48,
                    "time": 475,
                    "velocity": 0.5118110236220472,
                    "duration": 2.8173828125
                },
                {
                    "name": "G3",
                    "midi": 55,
                    "time": 475,
                    "velocity": 0.5118110236220472,
                    "duration": 2.8173828125
                }
            ],
            "controlChanges": {
                "64": [
                    {
                        "number": 64,
                        "time": 1.25,
                        "value": 1
                    },
                    {
                        "number": 64,
                        "time": 2.242431640625,
                        "value": 0
                    },
                    {
                        "number": 64,
                        "time": 2.5,
                        "value": 1
                    },
                    {
                        "number": 64,
                        "time": 3.455810546875,
                        "value": 0
                    },
                    {
                        "number": 64,
                        "time": 122.4993896484375,
                        "value": 1
                    },
                    {
                        "number": 64,
                        "time": 123.5784912109375,
                        "value": 0
                    },
                    {
                        "number": 64,
                        "time": 123.76220703125,
                        "value": 1
                    },
                    {
                        "number": 64,
                        "time": 124.8529052734375,
                        "value": 0
                    },
                    {
                        "number": 64,
                        "time": 246.25,
                        "value": 1
                    },
                    {
                        "number": 64,
                        "time": 247.3040771484375,
                        "value": 0
                    },
                    {
                        "number": 64,
                        "time": 247.5,
                        "value": 1
                    },
                    {
                        "number": 64,
                        "time": 248.5418701171875,
                        "value": 0
                    },
                    {
                        "number": 64,
                        "time": 261.25,
                        "value": 1
                    },
                    {
                        "number": 64,
                        "time": 263.6273193359375,
                        "value": 0
                    },
                    {
                        "number": 64,
                        "time": 263.75,
                        "value": 1
                    },
                    {
                        "number": 64,
                        "time": 264.8529052734375,
                        "value": 0
                    },
                    {
                        "number": 64,
                        "time": 265,
                        "value": 1
                    },
                    {
                        "number": 64,
                        "time": 266.1029052734375,
                        "value": 0
                    },
                    {
                        "number": 64,
                        "time": 266.25,
                        "value": 1
                    },
                    {
                        "number": 64,
                        "time": 267.3529052734375,
                        "value": 0
                    },
                    {
                        "number": 64,
                        "time": 267.5,
                        "value": 1
                    },
                    {
                        "number": 64,
                        "time": 268.6029052734375,
                        "value": 0
                    },
                    {
                        "number": 64,
                        "time": 268.75,
                        "value": 1
                    },
                    {
                        "number": 64,
                        "time": 269.8529052734375,
                        "value": 0
                    },
                    {
                        "number": 64,
                        "time": 298.75,
                        "value": 1
                    },
                    {
                        "number": 64,
                        "time": 300.1348876953125,
                        "value": 0
                    },
                    {
                        "number": 64,
                        "time": 305,
                        "value": 1
                    },
                    {
                        "number": 64,
                        "time": 307.3773193359375,
                        "value": 0
                    },
                    {
                        "number": 64,
                        "time": 307.5,
                        "value": 1
                    },
                    {
                        "number": 64,
                        "time": 308.492431640625,
                        "value": 0
                    },
                    {
                        "number": 64,
                        "time": 308.75,
                        "value": 1
                    },
                    {
                        "number": 64,
                        "time": 309.705810546875,
                        "value": 0
                    },
                    {
                        "number": 64,
                        "time": 373.75,
                        "value": 1
                    },
                    {
                        "number": 64,
                        "time": 374.8406982421875,
                        "value": 0
                    },
                    {
                        "number": 64,
                        "time": 377.5,
                        "value": 1
                    },
                    {
                        "number": 64,
                        "time": 377.9656982421875,
                        "value": 0
                    },
                    {
                        "number": 64,
                        "time": 380,
                        "value": 1
                    },
                    {
                        "number": 64,
                        "time": 380.5145263671875,
                        "value": 0
                    },
                    {
                        "number": 64,
                        "time": 382.5,
                        "value": 1
                    },
                    {
                        "number": 64,
                        "time": 382.9901123046875,
                        "value": 0
                    },
                    {
                        "number": 64,
                        "time": 385,
                        "value": 1
                    },
                    {
                        "number": 64,
                        "time": 385.5023193359375,
                        "value": 0
                    },
                    {
                        "number": 64,
                        "time": 387.5,
                        "value": 1
                    },
                    {
                        "number": 64,
                        "time": 387.6470947265625,
                        "value": 0
                    },
                    {
                        "number": 64,
                        "time": 388.75,
                        "value": 1
                    },
                    {
                        "number": 64,
                        "time": 388.9581298828125,
                        "value": 0
                    },
                    {
                        "number": 64,
                        "time": 390,
                        "value": 1
                    },
                    {
                        "number": 64,
                        "time": 390.2203369140625,
                        "value": 0
                    },
                    {
                        "number": 64,
                        "time": 391.25,
                        "value": 1
                    },
                    {
                        "number": 64,
                        "time": 391.4581298828125,
                        "value": 0
                    },
                    {
                        "number": 64,
                        "time": 392.5,
                        "value": 1
                    },
                    {
                        "number": 64,
                        "time": 392.6959228515625,
                        "value": 0
                    },
                    {
                        "number": 64,
                        "time": 393.75,
                        "value": 1
                    },
                    {
                        "number": 64,
                        "time": 393.9825439453125,
                        "value": 0
                    },
                    {
                        "number": 64,
                        "time": 395,
                        "value": 1
                    },
                    {
                        "number": 64,
                        "time": 395.245361328125,
                        "value": 0
                    },
                    {
                        "number": 64,
                        "time": 396.25,
                        "value": 1
                    },
                    {
                        "number": 64,
                        "time": 396.4459228515625,
                        "value": 0
                    },
                    {
                        "number": 64,
                        "time": 397.5,
                        "value": 1
                    },
                    {
                        "number": 64,
                        "time": 397.6715087890625,
                        "value": 0
                    },
                    {
                        "number": 64,
                        "time": 398.75,
                        "value": 1
                    },
                    {
                        "number": 64,
                        "time": 398.9459228515625,
                        "value": 0
                    },
                    {
                        "number": 64,
                        "time": 400,
                        "value": 1
                    },
                    {
                        "number": 64,
                        "time": 400.245361328125,
                        "value": 0
                    },
                    {
                        "number": 64,
                        "time": 401.25,
                        "value": 1
                    },
                    {
                        "number": 64,
                        "time": 401.4208984375,
                        "value": 0
                    },
                    {
                        "number": 64,
                        "time": 402.5,
                        "value": 1
                    },
                    {
                        "number": 64,
                        "time": 402.6837158203125,
                        "value": 0
                    },
                    {
                        "number": 64,
                        "time": 403.75,
                        "value": 1
                    },
                    {
                        "number": 64,
                        "time": 403.9581298828125,
                        "value": 0
                    },
                    {
                        "number": 64,
                        "time": 405,
                        "value": 1
                    },
                    {
                        "number": 64,
                        "time": 405.2203369140625,
                        "value": 0
                    },
                    {
                        "number": 64,
                        "time": 406.25,
                        "value": 1
                    },
                    {
                        "number": 64,
                        "time": 406.4459228515625,
                        "value": 0
                    },
                    {
                        "number": 64,
                        "time": 434.8651123046875,
                        "value": 1
                    },
                    {
                        "number": 64,
                        "time": 435.355224609375,
                        "value": 0
                    },
                    {
                        "number": 64,
                        "time": 435.5267333984375,
                        "value": 1
                    },
                    {
                        "number": 64,
                        "time": 435.992431640625,
                        "value": 0
                    },
                    {
                        "number": 64,
                        "time": 436.1151123046875,
                        "value": 1
                    },
                    {
                        "number": 64,
                        "time": 436.568603515625,
                        "value": 0
                    },
                    {
                        "number": 64,
                        "time": 436.761474609375,
                        "value": 1
                    },
                    {
                        "number": 64,
                        "time": 437.218017578125,
                        "value": 0
                    },
                    {
                        "number": 64,
                        "time": 437.3651123046875,
                        "value": 1
                    },
                    {
                        "number": 64,
                        "time": 437.867431640625,
                        "value": 0
                    },
                    {
                        "number": 64,
                        "time": 438.0145263671875,
                        "value": 1
                    },
                    {
                        "number": 64,
                        "time": 438.480224609375,
                        "value": 0
                    },
                    {
                        "number": 64,
                        "time": 438.6029052734375,
                        "value": 1
                    },
                    {
                        "number": 64,
                        "time": 439.080810546875,
                        "value": 0
                    },
                    {
                        "number": 64,
                        "time": 439.2401123046875,
                        "value": 1
                    },
                    {
                        "number": 64,
                        "time": 439.7027587890625,
                        "value": 0
                    },
                    {
                        "number": 64,
                        "time": 439.8529052734375,
                        "value": 1
                    },
                    {
                        "number": 64,
                        "time": 440.257568359375,
                        "value": 0
                    },
                    {
                        "number": 64,
                        "time": 440.4656982421875,
                        "value": 1
                    },
                    {
                        "number": 64,
                        "time": 440.9771728515625,
                        "value": 0
                    },
                    {
                        "number": 64,
                        "time": 456.25,
                        "value": 1
                    },
                    {
                        "number": 64,
                        "time": 458.5540771484375,
                        "value": 0
                    },
                    {
                        "number": 64,
                        "time": 458.75,
                        "value": 1
                    },
                    {
                        "number": 64,
                        "time": 459.4976806640625,
                        "value": 0
                    },
                    {
                        "number": 64,
                        "time": 460,
                        "value": 1
                    },
                    {
                        "number": 64,
                        "time": 461.1273193359375,
                        "value": 0
                    },
                    {
                        "number": 64,
                        "time": 461.25,
                        "value": 1
                    },
                    {
                        "number": 64,
                        "time": 461.91162109375,
                        "value": 0
                    },
                    {
                        "number": 64,
                        "time": 462.5,
                        "value": 1
                    },
                    {
                        "number": 64,
                        "time": 463.6151123046875,
                        "value": 0
                    },
                    {
                        "number": 64,
                        "time": 463.75,
                        "value": 1
                    },
                    {
                        "number": 64,
                        "time": 464.8529052734375,
                        "value": 0
                    },
                    {
                        "number": 64,
                        "time": 472.5,
                        "value": 1
                    },
                    {
                        "number": 64,
                        "time": 473.6029052734375,
                        "value": 0
                    },
                    {
                        "number": 64,
                        "time": 473.75,
                        "value": 1
                    },
                    {
                        "number": 64,
                        "time": 474.375,
                        "value": 0
                    },
                    {
                        "number": 64,
                        "time": 474.4976806640625,
                        "value": 1
                    },
                    {
                        "number": 64,
                        "time": 474.96337890625,
                        "value": 0
                    },
                    {
                        "number": 64,
                        "time": 475,
                        "value": 1
                    },
                    {
                        "number": 64,
                        "time": 476.7523193359375,
                        "value": 0
                    }
                ]
            },
            "id": 3,
            "channelNumber": 0,
            "isPercussion": false
        },
        {
            "startTime": 0,
            "duration": 0,
            "length": 0,
            "notes": [],
            "controlChanges": {},
            "id": 4
        }
    ]
}