{
    "header": {
        "PPQ": 480,
        "timeSignature": [
            4,
            4
        ],
        "bpm": 144.59991613204863,
        "name": "Sonata D850, 1. movement"
    },
    "startTime": 0,
    "duration": 598.3405959999955,
    "tracks": [
        {
            "startTime": 0,
            "duration": 0,
            "length": 0,
            "notes": [],
            "controlChanges": {},
            "id": 0,
            "name": "Sonata D850, 1. movement"
        },
        {
            "startTime": 0,
            "duration": 598.3405959999955,
            "length": 4225,
            "notes": [
                {
                    "name": "D6",
                    "midi": 86,
                    "time": 0,
                    "velocity": 0.7244094488188977,
                    "duration": 0.8298760000000001
                },
                {
                    "name": "A5",
                    "midi": 81,
                    "time": 0,
                    "velocity": 0.6141732283464567,
                    "duration": 0.8298760000000001
                },
                {
                    "name": "F#5",
                    "midi": 78,
                    "time": 0,
                    "velocity": 0.6141732283464567,
                    "duration": 0.8298760000000001
                },
                {
                    "name": "D5",
                    "midi": 74,
                    "time": 0,
                    "velocity": 0.6141732283464567,
                    "duration": 0.8298760000000001
                },
                {
                    "name": "A3",
                    "midi": 57,
                    "time": 0.8298760000000001,
                    "velocity": 0.4409448818897638,
                    "duration": 0.10373450000000006
                },
                {
                    "name": "D4",
                    "midi": 62,
                    "time": 0.8298760000000001,
                    "velocity": 0.5196850393700787,
                    "duration": 0.10373450000000006
                },
                {
                    "name": "A3",
                    "midi": 57,
                    "time": 1.0373450000000002,
                    "velocity": 0.4015748031496063,
                    "duration": 0.10373450000000006
                },
                {
                    "name": "D4",
                    "midi": 62,
                    "time": 1.0373450000000002,
                    "velocity": 0.48031496062992124,
                    "duration": 0.10373450000000006
                },
                {
                    "name": "A3",
                    "midi": 57,
                    "time": 1.2448140000000003,
                    "velocity": 0.4409448818897638,
                    "duration": 0.10373450000000006
                },
                {
                    "name": "D4",
                    "midi": 62,
                    "time": 1.2448140000000003,
                    "velocity": 0.5196850393700787,
                    "duration": 0.10373450000000006
                },
                {
                    "name": "A3",
                    "midi": 57,
                    "time": 1.4522830000000004,
                    "velocity": 0.4015748031496063,
                    "duration": 0.10373450000000006
                },
                {
                    "name": "D4",
                    "midi": 62,
                    "time": 1.4522830000000004,
                    "velocity": 0.47244094488188976,
                    "duration": 0.10373450000000006
                },
                {
                    "name": "A3",
                    "midi": 57,
                    "time": 1.6597520000000006,
                    "velocity": 0.4881889763779528,
                    "duration": 0.4149379999999998
                },
                {
                    "name": "D4",
                    "midi": 62,
                    "time": 1.6597520000000006,
                    "velocity": 0.5748031496062992,
                    "duration": 0.6224069999999999
                },
                {
                    "name": "B3",
                    "midi": 59,
                    "time": 2.0746900000000004,
                    "velocity": 0.41732283464566927,
                    "duration": 0.20746900000000013
                },
                {
                    "name": "E4",
                    "midi": 64,
                    "time": 2.0746900000000004,
                    "velocity": 0.49606299212598426,
                    "duration": 0.20746900000000013
                },
                {
                    "name": "C4",
                    "midi": 60,
                    "time": 2.4896280000000006,
                    "velocity": 0.4409448818897638,
                    "duration": 0.10373449999999984
                },
                {
                    "name": "D4",
                    "midi": 62,
                    "time": 2.4896280000000006,
                    "velocity": 0.4409448818897638,
                    "duration": 0.10373449999999984
                },
                {
                    "name": "F#4",
                    "midi": 66,
                    "time": 2.4896280000000006,
                    "velocity": 0.5196850393700787,
                    "duration": 0.10373449999999984
                },
                {
                    "name": "C4",
                    "midi": 60,
                    "time": 2.6970970000000003,
                    "velocity": 0.4015748031496063,
                    "duration": 0.10373449999999984
                },
                {
                    "name": "D4",
                    "midi": 62,
                    "time": 2.6970970000000003,
                    "velocity": 0.4015748031496063,
                    "duration": 0.10373449999999984
                },
                {
                    "name": "F#4",
                    "midi": 66,
                    "time": 2.6970970000000003,
                    "velocity": 0.48031496062992124,
                    "duration": 0.10373449999999984
                },
                {
                    "name": "C4",
                    "midi": 60,
                    "time": 2.904566,
                    "velocity": 0.4409448818897638,
                    "duration": 0.10373449999999984
                },
                {
                    "name": "D4",
                    "midi": 62,
                    "time": 2.904566,
                    "velocity": 0.4409448818897638,
                    "duration": 0.10373449999999984
                },
                {
                    "name": "F#4",
                    "midi": 66,
                    "time": 2.904566,
                    "velocity": 0.5196850393700787,
                    "duration": 0.10373449999999984
                },
                {
                    "name": "C4",
                    "midi": 60,
                    "time": 3.1120349999999997,
                    "velocity": 0.4015748031496063,
                    "duration": 0.10373449999999984
                },
                {
                    "name": "D4",
                    "midi": 62,
                    "time": 3.1120349999999997,
                    "velocity": 0.4015748031496063,
                    "duration": 0.10373449999999984
                },
                {
                    "name": "F#4",
                    "midi": 66,
                    "time": 3.1120349999999997,
                    "velocity": 0.47244094488188976,
                    "duration": 0.10373449999999984
                },
                {
                    "name": "C4",
                    "midi": 60,
                    "time": 3.3195039999999993,
                    "velocity": 0.4881889763779528,
                    "duration": 0.41493800000000025
                },
                {
                    "name": "D4",
                    "midi": 62,
                    "time": 3.3195039999999993,
                    "velocity": 0.4881889763779528,
                    "duration": 0.6224070000000004
                },
                {
                    "name": "F#4",
                    "midi": 66,
                    "time": 3.3195039999999993,
                    "velocity": 0.5748031496062992,
                    "duration": 0.41493800000000025
                },
                {
                    "name": "B3",
                    "midi": 59,
                    "time": 3.7344419999999996,
                    "velocity": 0.41732283464566927,
                    "duration": 0.20746900000000013
                },
                {
                    "name": "G4",
                    "midi": 67,
                    "time": 3.7344419999999996,
                    "velocity": 0.49606299212598426,
                    "duration": 0.20746900000000013
                },
                {
                    "name": "E4",
                    "midi": 64,
                    "time": 3.9419109999999997,
                    "velocity": 0.44881889763779526,
                    "duration": 0.20746900000000013
                },
                {
                    "name": "G4",
                    "midi": 67,
                    "time": 4.14938,
                    "velocity": 0.49606299212598426,
                    "duration": 0.13831266666666675
                },
                {
                    "name": "F#4",
                    "midi": 66,
                    "time": 4.287692666666667,
                    "velocity": 0.44881889763779526,
                    "duration": 0.13831266666666675
                },
                {
                    "name": "E4",
                    "midi": 64,
                    "time": 4.426005333333333,
                    "velocity": 0.44881889763779526,
                    "duration": 0.13831266666666675
                },
                {
                    "name": "A#4",
                    "midi": 70,
                    "time": 4.564318,
                    "velocity": 0.49606299212598426,
                    "duration": 0.13831266666666675
                },
                {
                    "name": "A4",
                    "midi": 69,
                    "time": 4.702630666666667,
                    "velocity": 0.4566929133858268,
                    "duration": 0.13831266666666675
                },
                {
                    "name": "G4",
                    "midi": 67,
                    "time": 4.840943333333334,
                    "velocity": 0.4566929133858268,
                    "duration": 0.13831266666666675
                },
                {
                    "name": "A4",
                    "midi": 69,
                    "time": 4.979256,
                    "velocity": 0.49606299212598426,
                    "duration": 0.20746899999999968
                },
                {
                    "name": "F#5",
                    "midi": 78,
                    "time": 5.394194,
                    "velocity": 0.4409448818897638,
                    "duration": 0.13831266666666675
                },
                {
                    "name": "E5",
                    "midi": 76,
                    "time": 5.5325066666666665,
                    "velocity": 0.36220472440944884,
                    "duration": 0.13831266666666675
                },
                {
                    "name": "D5",
                    "midi": 74,
                    "time": 5.670819333333333,
                    "velocity": 0.36220472440944884,
                    "duration": 0.13831266666666675
                },
                {
                    "name": "A5",
                    "midi": 81,
                    "time": 5.809132,
                    "velocity": 0.44881889763779526,
                    "duration": 0.13831266666666675
                },
                {
                    "name": "G5",
                    "midi": 79,
                    "time": 5.947444666666667,
                    "velocity": 0.3700787401574803,
                    "duration": 0.13831266666666675
                },
                {
                    "name": "F#5",
                    "midi": 78,
                    "time": 6.0857573333333335,
                    "velocity": 0.3700787401574803,
                    "duration": 0.13831266666666675
                },
                {
                    "name": "E5",
                    "midi": 76,
                    "time": 6.22407,
                    "velocity": 0.4566929133858268,
                    "duration": 0.13831266666666675
                },
                {
                    "name": "D5",
                    "midi": 74,
                    "time": 6.362382666666667,
                    "velocity": 0.3937007874015748,
                    "duration": 0.13831266666666675
                },
                {
                    "name": "C#5",
                    "midi": 73,
                    "time": 6.500695333333334,
                    "velocity": 0.3937007874015748,
                    "duration": 0.13831266666666675
                },
                {
                    "name": "D6",
                    "midi": 86,
                    "time": 6.6390080000000005,
                    "velocity": 0.7244094488188977,
                    "duration": 0.8298760000000005
                },
                {
                    "name": "A5",
                    "midi": 81,
                    "time": 6.6390080000000005,
                    "velocity": 0.6141732283464567,
                    "duration": 0.8298760000000005
                },
                {
                    "name": "F5",
                    "midi": 77,
                    "time": 6.6390080000000005,
                    "velocity": 0.6141732283464567,
                    "duration": 0.8298760000000005
                },
                {
                    "name": "D5",
                    "midi": 74,
                    "time": 6.6390080000000005,
                    "velocity": 0.6141732283464567,
                    "duration": 0.8298760000000005
                },
                {
                    "name": "A3",
                    "midi": 57,
                    "time": 7.468884000000001,
                    "velocity": 0.4409448818897638,
                    "duration": 0.10373449999999984
                },
                {
                    "name": "D4",
                    "midi": 62,
                    "time": 7.468884000000001,
                    "velocity": 0.5196850393700787,
                    "duration": 0.10373449999999984
                },
                {
                    "name": "A3",
                    "midi": 57,
                    "time": 7.676353000000001,
                    "velocity": 0.4015748031496063,
                    "duration": 0.10373449999999984
                },
                {
                    "name": "D4",
                    "midi": 62,
                    "time": 7.676353000000001,
                    "velocity": 0.48031496062992124,
                    "duration": 0.10373449999999984
                },
                {
                    "name": "A3",
                    "midi": 57,
                    "time": 7.883822,
                    "velocity": 0.4409448818897638,
                    "duration": 0.10373449999999984
                },
                {
                    "name": "D4",
                    "midi": 62,
                    "time": 7.883822,
                    "velocity": 0.5196850393700787,
                    "duration": 0.10373449999999984
                },
                {
                    "name": "A3",
                    "midi": 57,
                    "time": 8.091291,
                    "velocity": 0.4015748031496063,
                    "duration": 0.10373449999999984
                },
                {
                    "name": "D4",
                    "midi": 62,
                    "time": 8.091291,
                    "velocity": 0.47244094488188976,
                    "duration": 0.10373449999999984
                },
                {
                    "name": "A3",
                    "midi": 57,
                    "time": 8.29876,
                    "velocity": 0.4881889763779528,
                    "duration": 0.41493799999999936
                },
                {
                    "name": "D4",
                    "midi": 62,
                    "time": 8.29876,
                    "velocity": 0.5748031496062992,
                    "duration": 0.622406999999999
                },
                {
                    "name": "A#3",
                    "midi": 58,
                    "time": 8.713697999999999,
                    "velocity": 0.41732283464566927,
                    "duration": 0.20746899999999968
                },
                {
                    "name": "E4",
                    "midi": 64,
                    "time": 8.713697999999999,
                    "velocity": 0.49606299212598426,
                    "duration": 0.20746899999999968
                },
                {
                    "name": "C4",
                    "midi": 60,
                    "time": 9.128635999999998,
                    "velocity": 0.4409448818897638,
                    "duration": 0.10373449999999984
                },
                {
                    "name": "D4",
                    "midi": 62,
                    "time": 9.128635999999998,
                    "velocity": 0.4409448818897638,
                    "duration": 0.10373449999999984
                },
                {
                    "name": "F#4",
                    "midi": 66,
                    "time": 9.128635999999998,
                    "velocity": 0.5196850393700787,
                    "duration": 0.10373449999999984
                },
                {
                    "name": "C4",
                    "midi": 60,
                    "time": 9.336104999999998,
                    "velocity": 0.4015748031496063,
                    "duration": 0.10373449999999984
                },
                {
                    "name": "D4",
                    "midi": 62,
                    "time": 9.336104999999998,
                    "velocity": 0.4015748031496063,
                    "duration": 0.10373449999999984
                },
                {
                    "name": "F#4",
                    "midi": 66,
                    "time": 9.336104999999998,
                    "velocity": 0.48031496062992124,
                    "duration": 0.10373449999999984
                },
                {
                    "name": "C4",
                    "midi": 60,
                    "time": 9.543573999999998,
                    "velocity": 0.4409448818897638,
                    "duration": 0.10373449999999984
                },
                {
                    "name": "D4",
                    "midi": 62,
                    "time": 9.543573999999998,
                    "velocity": 0.4409448818897638,
                    "duration": 0.10373449999999984
                },
                {
                    "name": "F#4",
                    "midi": 66,
                    "time": 9.543573999999998,
                    "velocity": 0.5196850393700787,
                    "duration": 0.10373449999999984
                },
                {
                    "name": "C4",
                    "midi": 60,
                    "time": 9.751042999999997,
                    "velocity": 0.4015748031496063,
                    "duration": 0.10373449999999984
                },
                {
                    "name": "D4",
                    "midi": 62,
                    "time": 9.751042999999997,
                    "velocity": 0.4015748031496063,
                    "duration": 0.10373449999999984
                },
                {
                    "name": "F#4",
                    "midi": 66,
                    "time": 9.751042999999997,
                    "velocity": 0.47244094488188976,
                    "duration": 0.10373449999999984
                },
                {
                    "name": "C4",
                    "midi": 60,
                    "time": 9.958511999999997,
                    "velocity": 0.4881889763779528,
                    "duration": 0.41493799999999936
                },
                {
                    "name": "D4",
                    "midi": 62,
                    "time": 9.958511999999997,
                    "velocity": 0.4881889763779528,
                    "duration": 0.622406999999999
                },
                {
                    "name": "F#4",
                    "midi": 66,
                    "time": 9.958511999999997,
                    "velocity": 0.5748031496062992,
                    "duration": 0.41493799999999936
                },
                {
                    "name": "A#3",
                    "midi": 58,
                    "time": 10.373449999999997,
                    "velocity": 0.41732283464566927,
                    "duration": 0.20746899999999968
                },
                {
                    "name": "G4",
                    "midi": 67,
                    "time": 10.373449999999997,
                    "velocity": 0.49606299212598426,
                    "duration": 0.20746899999999968
                },
                {
                    "name": "F4",
                    "midi": 65,
                    "time": 10.788387999999996,
                    "velocity": 0.4409448818897638,
                    "duration": 0.10373449999999984
                },
                {
                    "name": "D4",
                    "midi": 62,
                    "time": 10.788387999999996,
                    "velocity": 0.4409448818897638,
                    "duration": 0.10373449999999984
                },
                {
                    "name": "G#4",
                    "midi": 68,
                    "time": 10.788387999999996,
                    "velocity": 0.5196850393700787,
                    "duration": 0.10373449999999984
                },
                {
                    "name": "F4",
                    "midi": 65,
                    "time": 10.995856999999996,
                    "velocity": 0.4015748031496063,
                    "duration": 0.10373449999999984
                },
                {
                    "name": "D4",
                    "midi": 62,
                    "time": 10.995856999999996,
                    "velocity": 0.4015748031496063,
                    "duration": 0.10373449999999984
                },
                {
                    "name": "G#4",
                    "midi": 68,
                    "time": 10.995856999999996,
                    "velocity": 0.48031496062992124,
                    "duration": 0.10373449999999984
                },
                {
                    "name": "F4",
                    "midi": 65,
                    "time": 11.203325999999995,
                    "velocity": 0.4409448818897638,
                    "duration": 0.10373449999999984
                },
                {
                    "name": "D4",
                    "midi": 62,
                    "time": 11.203325999999995,
                    "velocity": 0.4409448818897638,
                    "duration": 0.10373449999999984
                },
                {
                    "name": "G#4",
                    "midi": 68,
                    "time": 11.203325999999995,
                    "velocity": 0.5196850393700787,
                    "duration": 0.10373449999999984
                },
                {
                    "name": "F4",
                    "midi": 65,
                    "time": 11.410794999999995,
                    "velocity": 0.4015748031496063,
                    "duration": 0.10373449999999984
                },
                {
                    "name": "D4",
                    "midi": 62,
                    "time": 11.410794999999995,
                    "velocity": 0.4015748031496063,
                    "duration": 0.10373449999999984
                },
                {
                    "name": "G#4",
                    "midi": 68,
                    "time": 11.410794999999995,
                    "velocity": 0.47244094488188976,
                    "duration": 0.10373449999999984
                },
                {
                    "name": "C4",
                    "midi": 60,
                    "time": 11.618263999999995,
                    "velocity": 0.4881889763779528,
                    "duration": 0.41493799999999936
                },
                {
                    "name": "F4",
                    "midi": 65,
                    "time": 11.618263999999995,
                    "velocity": 0.4881889763779528,
                    "duration": 0.41493799999999936
                },
                {
                    "name": "A4",
                    "midi": 69,
                    "time": 11.618263999999995,
                    "velocity": 0.5748031496062992,
                    "duration": 0.41493799999999936
                },
                {
                    "name": "C5",
                    "midi": 72,
                    "time": 12.033201999999994,
                    "velocity": 0.4409448818897638,
                    "duration": 0.13831266666666586
                },
                {
                    "name": "A#4",
                    "midi": 70,
                    "time": 12.17151466666666,
                    "velocity": 0.36220472440944884,
                    "duration": 0.13831266666666586
                },
                {
                    "name": "A4",
                    "midi": 69,
                    "time": 12.309827333333326,
                    "velocity": 0.36220472440944884,
                    "duration": 0.13831266666666586
                },
                {
                    "name": "G4",
                    "midi": 67,
                    "time": 12.448139999999992,
                    "velocity": 0.44881889763779526,
                    "duration": 0.13831266666666586
                },
                {
                    "name": "F4",
                    "midi": 65,
                    "time": 12.586452666666657,
                    "velocity": 0.3700787401574803,
                    "duration": 0.13831266666666586
                },
                {
                    "name": "E4",
                    "midi": 64,
                    "time": 12.724765333333323,
                    "velocity": 0.3700787401574803,
                    "duration": 0.13831266666666586
                },
                {
                    "name": "D4",
                    "midi": 62,
                    "time": 12.86307799999999,
                    "velocity": 0.4330708661417323,
                    "duration": 0.13831266666666586
                },
                {
                    "name": "C4",
                    "midi": 60,
                    "time": 13.001390666666655,
                    "velocity": 0.3700787401574803,
                    "duration": 0.13831266666666586
                },
                {
                    "name": "A#3",
                    "midi": 58,
                    "time": 13.13970333333332,
                    "velocity": 0.3700787401574803,
                    "duration": 0.13831266666666586
                },
                {
                    "name": "A3",
                    "midi": 57,
                    "time": 13.278015999999987,
                    "velocity": 0.41732283464566927,
                    "duration": 0.13831266666666586
                },
                {
                    "name": "A#3",
                    "midi": 58,
                    "time": 13.416328666666653,
                    "velocity": 0.36220472440944884,
                    "duration": 0.13831266666666586
                },
                {
                    "name": "C4",
                    "midi": 60,
                    "time": 13.554641333333318,
                    "velocity": 0.36220472440944884,
                    "duration": 0.13831266666666586
                },
                {
                    "name": "C5",
                    "midi": 72,
                    "time": 13.692953999999984,
                    "velocity": 0.4409448818897638,
                    "duration": 0.13831266666666586
                },
                {
                    "name": "A#4",
                    "midi": 70,
                    "time": 13.83126666666665,
                    "velocity": 0.36220472440944884,
                    "duration": 0.13831266666666586
                },
                {
                    "name": "A4",
                    "midi": 69,
                    "time": 13.969579333333316,
                    "velocity": 0.36220472440944884,
                    "duration": 0.13831266666666586
                },
                {
                    "name": "G4",
                    "midi": 67,
                    "time": 14.107891999999982,
                    "velocity": 0.44881889763779526,
                    "duration": 0.13831266666666586
                },
                {
                    "name": "F4",
                    "midi": 65,
                    "time": 14.246204666666648,
                    "velocity": 0.3700787401574803,
                    "duration": 0.13831266666666586
                },
                {
                    "name": "E4",
                    "midi": 64,
                    "time": 14.384517333333314,
                    "velocity": 0.3700787401574803,
                    "duration": 0.13831266666666586
                },
                {
                    "name": "D4",
                    "midi": 62,
                    "time": 14.52282999999998,
                    "velocity": 0.4330708661417323,
                    "duration": 0.13831266666666586
                },
                {
                    "name": "C4",
                    "midi": 60,
                    "time": 14.661142666666645,
                    "velocity": 0.3700787401574803,
                    "duration": 0.13831266666666586
                },
                {
                    "name": "A#3",
                    "midi": 58,
                    "time": 14.799455333333311,
                    "velocity": 0.3700787401574803,
                    "duration": 0.13831266666666586
                },
                {
                    "name": "A3",
                    "midi": 57,
                    "time": 14.937767999999977,
                    "velocity": 0.41732283464566927,
                    "duration": 0.13831266666666586
                },
                {
                    "name": "A#3",
                    "midi": 58,
                    "time": 15.076080666666643,
                    "velocity": 0.36220472440944884,
                    "duration": 0.13831266666666586
                },
                {
                    "name": "C4",
                    "midi": 60,
                    "time": 15.214393333333309,
                    "velocity": 0.31496062992125984,
                    "duration": 0.13831266666666586
                },
                {
                    "name": "A3",
                    "midi": 57,
                    "time": 15.352705999999975,
                    "velocity": 0.3543307086614173,
                    "duration": 0.13831266666666586
                },
                {
                    "name": "A#3",
                    "midi": 58,
                    "time": 15.49101866666664,
                    "velocity": 0.30708661417322836,
                    "duration": 0.13831266666666586
                },
                {
                    "name": "C4",
                    "midi": 60,
                    "time": 15.629331333333306,
                    "velocity": 0.28346456692913385,
                    "duration": 0.13831266666666586
                },
                {
                    "name": "A3",
                    "midi": 57,
                    "time": 15.767643999999972,
                    "velocity": 0.3700787401574803,
                    "duration": 0.15214393333333298
                },
                {
                    "name": "A#3",
                    "midi": 58,
                    "time": 15.905956666666638,
                    "velocity": 0.33070866141732286,
                    "duration": 0.15214393333333298
                },
                {
                    "name": "C4",
                    "midi": 60,
                    "time": 16.044269333333304,
                    "velocity": 0.33858267716535434,
                    "duration": 0.13831266666666764
                },
                {
                    "name": "A3",
                    "midi": 57,
                    "time": 16.18258199999997,
                    "velocity": 0.3937007874015748,
                    "duration": 0.15214393333333476
                },
                {
                    "name": "A#3",
                    "midi": 58,
                    "time": 16.32089466666664,
                    "velocity": 0.3543307086614173,
                    "duration": 0.15214393333333476
                },
                {
                    "name": "C4",
                    "midi": 60,
                    "time": 16.459207333333307,
                    "velocity": 0.3228346456692913,
                    "duration": 0.13831266666666764
                },
                {
                    "name": "A3",
                    "midi": 57,
                    "time": 16.597519999999975,
                    "velocity": 0.4251968503937008,
                    "duration": 0.15214393333333476
                },
                {
                    "name": "A#3",
                    "midi": 58,
                    "time": 16.735832666666642,
                    "velocity": 0.3700787401574803,
                    "duration": 0.15214393333333476
                },
                {
                    "name": "C4",
                    "midi": 60,
                    "time": 16.87414533333331,
                    "velocity": 0.33858267716535434,
                    "duration": 0.13831266666666764
                },
                {
                    "name": "A3",
                    "midi": 57,
                    "time": 17.012457999999977,
                    "velocity": 0.4409448818897638,
                    "duration": 0.15214393333333476
                },
                {
                    "name": "A#3",
                    "midi": 58,
                    "time": 17.150770666666645,
                    "velocity": 0.3937007874015748,
                    "duration": 0.15214393333333476
                },
                {
                    "name": "C4",
                    "midi": 60,
                    "time": 17.289083333333313,
                    "velocity": 0.36220472440944884,
                    "duration": 0.13831266666666764
                },
                {
                    "name": "A3",
                    "midi": 57,
                    "time": 17.42739599999998,
                    "velocity": 0.4645669291338583,
                    "duration": 0.15214393333333476
                },
                {
                    "name": "A#3",
                    "midi": 58,
                    "time": 17.565708666666648,
                    "velocity": 0.4094488188976378,
                    "duration": 0.15214393333333476
                },
                {
                    "name": "C4",
                    "midi": 60,
                    "time": 17.704021333333316,
                    "velocity": 0.36220472440944884,
                    "duration": 0.13831266666666764
                },
                {
                    "name": "A3",
                    "midi": 57,
                    "time": 17.842333999999983,
                    "velocity": 0.49606299212598426,
                    "duration": 0.15214393333333476
                },
                {
                    "name": "A#3",
                    "midi": 58,
                    "time": 17.98064666666665,
                    "velocity": 0.4330708661417323,
                    "duration": 0.15214393333333476
                },
                {
                    "name": "C4",
                    "midi": 60,
                    "time": 18.11895933333332,
                    "velocity": 0.3700787401574803,
                    "duration": 0.13831266666666764
                },
                {
                    "name": "F3",
                    "midi": 53,
                    "time": 18.257271999999986,
                    "velocity": 0.4251968503937008,
                    "duration": 0.8298759999999987
                },
                {
                    "name": "G#3",
                    "midi": 56,
                    "time": 18.257271999999986,
                    "velocity": 0.4251968503937008,
                    "duration": 0.8298759999999987
                },
                {
                    "name": "C#4",
                    "midi": 61,
                    "time": 18.257271999999986,
                    "velocity": 0.5511811023622047,
                    "duration": 0.8298759999999987
                },
                {
                    "name": "G#3",
                    "midi": 56,
                    "time": 19.087147999999985,
                    "velocity": 0.29133858267716534,
                    "duration": 0.10373450000000162
                },
                {
                    "name": "C#4",
                    "midi": 61,
                    "time": 19.087147999999985,
                    "velocity": 0.29133858267716534,
                    "duration": 0.10373450000000162
                },
                {
                    "name": "F4",
                    "midi": 65,
                    "time": 19.087147999999985,
                    "velocity": 0.3464566929133858,
                    "duration": 0.10373450000000162
                },
                {
                    "name": "G#3",
                    "midi": 56,
                    "time": 19.294616999999988,
                    "velocity": 0.25984251968503935,
                    "duration": 0.10373450000000162
                },
                {
                    "name": "C#4",
                    "midi": 61,
                    "time": 19.294616999999988,
                    "velocity": 0.25984251968503935,
                    "duration": 0.10373450000000162
                },
                {
                    "name": "F4",
                    "midi": 65,
                    "time": 19.294616999999988,
                    "velocity": 0.30708661417322836,
                    "duration": 0.10373450000000162
                },
                {
                    "name": "G#3",
                    "midi": 56,
                    "time": 19.50208599999999,
                    "velocity": 0.25984251968503935,
                    "duration": 0.10373450000000162
                },
                {
                    "name": "C#4",
                    "midi": 61,
                    "time": 19.50208599999999,
                    "velocity": 0.25984251968503935,
                    "duration": 0.10373450000000162
                },
                {
                    "name": "F4",
                    "midi": 65,
                    "time": 19.50208599999999,
                    "velocity": 0.30708661417322836,
                    "duration": 0.10373450000000162
                },
                {
                    "name": "G#3",
                    "midi": 56,
                    "time": 19.709554999999995,
                    "velocity": 0.25984251968503935,
                    "duration": 0.10373450000000162
                },
                {
                    "name": "C#4",
                    "midi": 61,
                    "time": 19.709554999999995,
                    "velocity": 0.25984251968503935,
                    "duration": 0.10373450000000162
                },
                {
                    "name": "F4",
                    "midi": 65,
                    "time": 19.709554999999995,
                    "velocity": 0.30708661417322836,
                    "duration": 0.10373450000000162
                },
                {
                    "name": "C#4",
                    "midi": 61,
                    "time": 19.917023999999998,
                    "velocity": 0.2992125984251969,
                    "duration": 0.8298759999999987
                },
                {
                    "name": "F4",
                    "midi": 65,
                    "time": 19.917023999999998,
                    "velocity": 0.2992125984251969,
                    "duration": 0.8298759999999987
                },
                {
                    "name": "G#4",
                    "midi": 68,
                    "time": 19.917023999999998,
                    "velocity": 0.3543307086614173,
                    "duration": 0.8298759999999987
                },
                {
                    "name": "G#4",
                    "midi": 68,
                    "time": 20.746899999999997,
                    "velocity": 0.36220472440944884,
                    "duration": 0.10373450000000162
                },
                {
                    "name": "F4",
                    "midi": 65,
                    "time": 20.746899999999997,
                    "velocity": 0.3464566929133858,
                    "duration": 0.10373450000000162
                },
                {
                    "name": "C#5",
                    "midi": 73,
                    "time": 20.746899999999997,
                    "velocity": 0.4094488188976378,
                    "duration": 0.10373450000000162
                },
                {
                    "name": "F4",
                    "midi": 65,
                    "time": 20.954369,
                    "velocity": 0.30708661417322836,
                    "duration": 0.10373450000000162
                },
                {
                    "name": "G#4",
                    "midi": 68,
                    "time": 20.954369,
                    "velocity": 0.30708661417322836,
                    "duration": 0.10373450000000162
                },
                {
                    "name": "C#5",
                    "midi": 73,
                    "time": 20.954369,
                    "velocity": 0.36220472440944884,
                    "duration": 0.10373450000000162
                },
                {
                    "name": "F4",
                    "midi": 65,
                    "time": 21.161838000000003,
                    "velocity": 0.30708661417322836,
                    "duration": 0.10373450000000162
                },
                {
                    "name": "G#4",
                    "midi": 68,
                    "time": 21.161838000000003,
                    "velocity": 0.30708661417322836,
                    "duration": 0.10373450000000162
                },
                {
                    "name": "C#5",
                    "midi": 73,
                    "time": 21.161838000000003,
                    "velocity": 0.36220472440944884,
                    "duration": 0.10373450000000162
                },
                {
                    "name": "F4",
                    "midi": 65,
                    "time": 21.369307000000006,
                    "velocity": 0.30708661417322836,
                    "duration": 0.10373450000000162
                },
                {
                    "name": "G#4",
                    "midi": 68,
                    "time": 21.369307000000006,
                    "velocity": 0.30708661417322836,
                    "duration": 0.10373450000000162
                },
                {
                    "name": "C#5",
                    "midi": 73,
                    "time": 21.369307000000006,
                    "velocity": 0.36220472440944884,
                    "duration": 0.10373450000000162
                },
                {
                    "name": "E4",
                    "midi": 64,
                    "time": 21.57677600000001,
                    "velocity": 0.4094488188976378,
                    "duration": 0.8298759999999987
                },
                {
                    "name": "G4",
                    "midi": 67,
                    "time": 21.57677600000001,
                    "velocity": 0.4094488188976378,
                    "duration": 0.8298759999999987
                },
                {
                    "name": "A4",
                    "midi": 69,
                    "time": 21.57677600000001,
                    "velocity": 0.4094488188976378,
                    "duration": 0.8298759999999987
                },
                {
                    "name": "C#5",
                    "midi": 73,
                    "time": 21.57677600000001,
                    "velocity": 0.4881889763779528,
                    "duration": 0.8298759999999987
                },
                {
                    "name": "G4",
                    "midi": 67,
                    "time": 22.40665200000001,
                    "velocity": 0.4330708661417323,
                    "duration": 0.10373450000000162
                },
                {
                    "name": "C#5",
                    "midi": 73,
                    "time": 22.40665200000001,
                    "velocity": 0.4566929133858268,
                    "duration": 0.10373450000000162
                },
                {
                    "name": "A4",
                    "midi": 69,
                    "time": 22.40665200000001,
                    "velocity": 0.4330708661417323,
                    "duration": 0.10373450000000162
                },
                {
                    "name": "E5",
                    "midi": 76,
                    "time": 22.40665200000001,
                    "velocity": 0.5196850393700787,
                    "duration": 0.10373450000000162
                },
                {
                    "name": "G4",
                    "midi": 67,
                    "time": 22.61412100000001,
                    "velocity": 0.3858267716535433,
                    "duration": 0.10373450000000162
                },
                {
                    "name": "A4",
                    "midi": 69,
                    "time": 22.61412100000001,
                    "velocity": 0.3858267716535433,
                    "duration": 0.10373450000000162
                },
                {
                    "name": "C#5",
                    "midi": 73,
                    "time": 22.61412100000001,
                    "velocity": 0.3858267716535433,
                    "duration": 0.10373450000000162
                },
                {
                    "name": "E5",
                    "midi": 76,
                    "time": 22.61412100000001,
                    "velocity": 0.4566929133858268,
                    "duration": 0.10373450000000162
                },
                {
                    "name": "G4",
                    "midi": 67,
                    "time": 22.821590000000015,
                    "velocity": 0.3937007874015748,
                    "duration": 0.10373450000000162
                },
                {
                    "name": "A4",
                    "midi": 69,
                    "time": 22.821590000000015,
                    "velocity": 0.3937007874015748,
                    "duration": 0.10373450000000162
                },
                {
                    "name": "C#5",
                    "midi": 73,
                    "time": 22.821590000000015,
                    "velocity": 0.3937007874015748,
                    "duration": 0.10373450000000162
                },
                {
                    "name": "E5",
                    "midi": 76,
                    "time": 22.821590000000015,
                    "velocity": 0.4566929133858268,
                    "duration": 0.10373450000000162
                },
                {
                    "name": "G4",
                    "midi": 67,
                    "time": 23.029059000000018,
                    "velocity": 0.3937007874015748,
                    "duration": 0.10373450000000162
                },
                {
                    "name": "A4",
                    "midi": 69,
                    "time": 23.029059000000018,
                    "velocity": 0.3937007874015748,
                    "duration": 0.10373450000000162
                },
                {
                    "name": "C#5",
                    "midi": 73,
                    "time": 23.029059000000018,
                    "velocity": 0.3937007874015748,
                    "duration": 0.10373450000000162
                },
                {
                    "name": "E5",
                    "midi": 76,
                    "time": 23.029059000000018,
                    "velocity": 0.4645669291338583,
                    "duration": 0.10373450000000162
                },
                {
                    "name": "A4",
                    "midi": 69,
                    "time": 23.23652800000002,
                    "velocity": 0.5275590551181102,
                    "duration": 0.8298759999999987
                },
                {
                    "name": "C#5",
                    "midi": 73,
                    "time": 23.23652800000002,
                    "velocity": 0.5275590551181102,
                    "duration": 0.8298759999999987
                },
                {
                    "name": "E5",
                    "midi": 76,
                    "time": 23.23652800000002,
                    "velocity": 0.5275590551181102,
                    "duration": 0.8298759999999987
                },
                {
                    "name": "G5",
                    "midi": 79,
                    "time": 23.23652800000002,
                    "velocity": 0.5275590551181102,
                    "duration": 0.8298759999999987
                },
                {
                    "name": "A5",
                    "midi": 81,
                    "time": 23.23652800000002,
                    "velocity": 0.6220472440944882,
                    "duration": 0.8298759999999987
                },
                {
                    "name": "E5",
                    "midi": 76,
                    "time": 24.06640400000002,
                    "velocity": 0.5905511811023622,
                    "duration": 0.10373450000000162
                },
                {
                    "name": "A5",
                    "midi": 81,
                    "time": 24.06640400000002,
                    "velocity": 0.6220472440944882,
                    "duration": 0.10373450000000162
                },
                {
                    "name": "G5",
                    "midi": 79,
                    "time": 24.06640400000002,
                    "velocity": 0.5905511811023622,
                    "duration": 0.10373450000000162
                },
                {
                    "name": "C#6",
                    "midi": 85,
                    "time": 24.06640400000002,
                    "velocity": 0.7086614173228346,
                    "duration": 0.10373450000000162
                },
                {
                    "name": "E5",
                    "midi": 76,
                    "time": 24.273873000000023,
                    "velocity": 0.5433070866141733,
                    "duration": 0.10373450000000162
                },
                {
                    "name": "G5",
                    "midi": 79,
                    "time": 24.273873000000023,
                    "velocity": 0.5433070866141733,
                    "duration": 0.10373450000000162
                },
                {
                    "name": "A5",
                    "midi": 81,
                    "time": 24.273873000000023,
                    "velocity": 0.5433070866141733,
                    "duration": 0.10373450000000162
                },
                {
                    "name": "C#6",
                    "midi": 85,
                    "time": 24.273873000000023,
                    "velocity": 0.6377952755905512,
                    "duration": 0.10373450000000162
                },
                {
                    "name": "E5",
                    "midi": 76,
                    "time": 24.481342000000026,
                    "velocity": 0.5669291338582677,
                    "duration": 0.10373450000000162
                },
                {
                    "name": "G5",
                    "midi": 79,
                    "time": 24.481342000000026,
                    "velocity": 0.5669291338582677,
                    "duration": 0.10373450000000162
                },
                {
                    "name": "A5",
                    "midi": 81,
                    "time": 24.481342000000026,
                    "velocity": 0.5669291338582677,
                    "duration": 0.10373450000000162
                },
                {
                    "name": "C#6",
                    "midi": 85,
                    "time": 24.481342000000026,
                    "velocity": 0.6614173228346457,
                    "duration": 0.10373450000000162
                },
                {
                    "name": "E5",
                    "midi": 76,
                    "time": 24.68881100000003,
                    "velocity": 0.5905511811023622,
                    "duration": 0.10373450000000162
                },
                {
                    "name": "G5",
                    "midi": 79,
                    "time": 24.68881100000003,
                    "velocity": 0.5905511811023622,
                    "duration": 0.10373450000000162
                },
                {
                    "name": "A5",
                    "midi": 81,
                    "time": 24.68881100000003,
                    "velocity": 0.5905511811023622,
                    "duration": 0.10373450000000162
                },
                {
                    "name": "C#6",
                    "midi": 85,
                    "time": 24.68881100000003,
                    "velocity": 0.6850393700787402,
                    "duration": 0.10373450000000162
                },
                {
                    "name": "D6",
                    "midi": 86,
                    "time": 24.896280000000033,
                    "velocity": 0.8267716535433071,
                    "duration": 0.8298759999999987
                },
                {
                    "name": "A5",
                    "midi": 81,
                    "time": 24.896280000000033,
                    "velocity": 0.7007874015748031,
                    "duration": 0.8298759999999987
                },
                {
                    "name": "F#5",
                    "midi": 78,
                    "time": 24.896280000000033,
                    "velocity": 0.7007874015748031,
                    "duration": 0.8298759999999987
                },
                {
                    "name": "D5",
                    "midi": 74,
                    "time": 24.896280000000033,
                    "velocity": 0.7007874015748031,
                    "duration": 0.8298759999999987
                },
                {
                    "name": "A3",
                    "midi": 57,
                    "time": 25.72615600000003,
                    "velocity": 0.4251968503937008,
                    "duration": 0.10373450000000162
                },
                {
                    "name": "D4",
                    "midi": 62,
                    "time": 25.72615600000003,
                    "velocity": 0.49606299212598426,
                    "duration": 0.10373450000000162
                },
                {
                    "name": "A3",
                    "midi": 57,
                    "time": 25.933625000000035,
                    "velocity": 0.3858267716535433,
                    "duration": 0.10373450000000162
                },
                {
                    "name": "D4",
                    "midi": 62,
                    "time": 25.933625000000035,
                    "velocity": 0.4645669291338583,
                    "duration": 0.10373450000000162
                },
                {
                    "name": "A3",
                    "midi": 57,
                    "time": 26.141094000000038,
                    "velocity": 0.4251968503937008,
                    "duration": 0.10373450000000162
                },
                {
                    "name": "D4",
                    "midi": 62,
                    "time": 26.141094000000038,
                    "velocity": 0.49606299212598426,
                    "duration": 0.10373450000000162
                },
                {
                    "name": "A3",
                    "midi": 57,
                    "time": 26.34856300000004,
                    "velocity": 0.3858267716535433,
                    "duration": 0.10373450000000162
                },
                {
                    "name": "D4",
                    "midi": 62,
                    "time": 26.34856300000004,
                    "velocity": 0.4566929133858268,
                    "duration": 0.10373450000000162
                },
                {
                    "name": "A3",
                    "midi": 57,
                    "time": 26.556032000000044,
                    "velocity": 0.47244094488188976,
                    "duration": 0.41493799999999936
                },
                {
                    "name": "D4",
                    "midi": 62,
                    "time": 26.556032000000044,
                    "velocity": 0.5511811023622047,
                    "duration": 0.622406999999999
                },
                {
                    "name": "B3",
                    "midi": 59,
                    "time": 26.970970000000044,
                    "velocity": 0.4015748031496063,
                    "duration": 0.20746899999999968
                },
                {
                    "name": "E4",
                    "midi": 64,
                    "time": 26.970970000000044,
                    "velocity": 0.48031496062992124,
                    "duration": 0.20746899999999968
                },
                {
                    "name": "A3",
                    "midi": 57,
                    "time": 27.385908000000043,
                    "velocity": 0.48031496062992124,
                    "duration": 0.13831266666666764
                },
                {
                    "name": "B3",
                    "midi": 59,
                    "time": 27.52422066666671,
                    "velocity": 0.4330708661417323,
                    "duration": 0.13831266666666764
                },
                {
                    "name": "C4",
                    "midi": 60,
                    "time": 27.66253333333338,
                    "velocity": 0.4330708661417323,
                    "duration": 0.13831266666666764
                },
                {
                    "name": "D4",
                    "midi": 62,
                    "time": 27.800846000000046,
                    "velocity": 0.48031496062992124,
                    "duration": 0.13831266666666764
                },
                {
                    "name": "E4",
                    "midi": 64,
                    "time": 27.939158666666714,
                    "velocity": 0.4409448818897638,
                    "duration": 0.13831266666666764
                },
                {
                    "name": "F#4",
                    "midi": 66,
                    "time": 28.07747133333338,
                    "velocity": 0.4409448818897638,
                    "duration": 0.13831266666666764
                },
                {
                    "name": "A#3",
                    "midi": 58,
                    "time": 28.21578400000005,
                    "velocity": 0.48031496062992124,
                    "duration": 0.20746899999999968
                },
                {
                    "name": "F#4",
                    "midi": 66,
                    "time": 28.42325300000005,
                    "velocity": 0.4094488188976378,
                    "duration": 0.20746899999999968
                },
                {
                    "name": "B3",
                    "midi": 59,
                    "time": 28.63072200000005,
                    "velocity": 0.48031496062992124,
                    "duration": 0.20746899999999968
                },
                {
                    "name": "G4",
                    "midi": 67,
                    "time": 28.838191000000048,
                    "velocity": 0.4330708661417323,
                    "duration": 0.20746899999999968
                },
                {
                    "name": "E4",
                    "midi": 64,
                    "time": 29.045660000000048,
                    "velocity": 0.4251968503937008,
                    "duration": 0.10373450000000162
                },
                {
                    "name": "G4",
                    "midi": 67,
                    "time": 29.045660000000048,
                    "velocity": 0.4251968503937008,
                    "duration": 0.10373450000000162
                },
                {
                    "name": "A4",
                    "midi": 69,
                    "time": 29.045660000000048,
                    "velocity": 0.49606299212598426,
                    "duration": 0.10373450000000162
                },
                {
                    "name": "E4",
                    "midi": 64,
                    "time": 29.25312900000005,
                    "velocity": 0.3858267716535433,
                    "duration": 0.10373450000000162
                },
                {
                    "name": "G4",
                    "midi": 67,
                    "time": 29.25312900000005,
                    "velocity": 0.3858267716535433,
                    "duration": 0.10373450000000162
                },
                {
                    "name": "A4",
                    "midi": 69,
                    "time": 29.25312900000005,
                    "velocity": 0.4645669291338583,
                    "duration": 0.10373450000000162
                },
                {
                    "name": "E4",
                    "midi": 64,
                    "time": 29.460598000000054,
                    "velocity": 0.4251968503937008,
                    "duration": 0.10373450000000162
                },
                {
                    "name": "G4",
                    "midi": 67,
                    "time": 29.460598000000054,
                    "velocity": 0.4251968503937008,
                    "duration": 0.10373450000000162
                },
                {
                    "name": "A4",
                    "midi": 69,
                    "time": 29.460598000000054,
                    "velocity": 0.49606299212598426,
                    "duration": 0.10373450000000162
                },
                {
                    "name": "E4",
                    "midi": 64,
                    "time": 29.668067000000057,
                    "velocity": 0.3858267716535433,
                    "duration": 0.10373450000000162
                },
                {
                    "name": "G4",
                    "midi": 67,
                    "time": 29.668067000000057,
                    "velocity": 0.3858267716535433,
                    "duration": 0.10373450000000162
                },
                {
                    "name": "A4",
                    "midi": 69,
                    "time": 29.668067000000057,
                    "velocity": 0.4566929133858268,
                    "duration": 0.10373450000000162
                },
                {
                    "name": "G4",
                    "midi": 67,
                    "time": 29.87553600000006,
                    "velocity": 0.47244094488188976,
                    "duration": 0.622406999999999
                },
                {
                    "name": "E4",
                    "midi": 64,
                    "time": 29.87553600000006,
                    "velocity": 0.47244094488188976,
                    "duration": 0.41493799999999936
                },
                {
                    "name": "A4",
                    "midi": 69,
                    "time": 29.87553600000006,
                    "velocity": 0.5511811023622047,
                    "duration": 0.41493799999999936
                },
                {
                    "name": "D4",
                    "midi": 62,
                    "time": 30.29047400000006,
                    "velocity": 0.4015748031496063,
                    "duration": 0.20746899999999968
                },
                {
                    "name": "B4",
                    "midi": 71,
                    "time": 30.29047400000006,
                    "velocity": 0.48031496062992124,
                    "duration": 0.20746899999999968
                },
                {
                    "name": "D4",
                    "midi": 62,
                    "time": 30.70541200000006,
                    "velocity": 0.48031496062992124,
                    "duration": 0.13831266666666764
                },
                {
                    "name": "E4",
                    "midi": 64,
                    "time": 30.843724666666727,
                    "velocity": 0.4330708661417323,
                    "duration": 0.13831266666666764
                },
                {
                    "name": "F#4",
                    "midi": 66,
                    "time": 30.982037333333395,
                    "velocity": 0.4330708661417323,
                    "duration": 0.13831266666666764
                },
                {
                    "name": "G4",
                    "midi": 67,
                    "time": 31.120350000000062,
                    "velocity": 0.48031496062992124,
                    "duration": 0.13831266666666764
                },
                {
                    "name": "A4",
                    "midi": 69,
                    "time": 31.25866266666673,
                    "velocity": 0.4409448818897638,
                    "duration": 0.13831266666666764
                },
                {
                    "name": "B4",
                    "midi": 71,
                    "time": 31.396975333333398,
                    "velocity": 0.4409448818897638,
                    "duration": 0.13831266666666764
                },
                {
                    "name": "D#4",
                    "midi": 63,
                    "time": 31.535288000000065,
                    "velocity": 0.48031496062992124,
                    "duration": 0.20746899999999968
                },
                {
                    "name": "B4",
                    "midi": 71,
                    "time": 31.742757000000065,
                    "velocity": 0.4094488188976378,
                    "duration": 0.20746899999999968
                },
                {
                    "name": "E4",
                    "midi": 64,
                    "time": 31.950226000000065,
                    "velocity": 0.48031496062992124,
                    "duration": 0.20746900000000323
                },
                {
                    "name": "C5",
                    "midi": 72,
                    "time": 32.15769500000007,
                    "velocity": 0.4330708661417323,
                    "duration": 0.20746900000000323
                },
                {
                    "name": "G4",
                    "midi": 67,
                    "time": 32.36516400000007,
                    "velocity": 0.4251968503937008,
                    "duration": 0.10373450000000162
                },
                {
                    "name": "A#4",
                    "midi": 70,
                    "time": 32.36516400000007,
                    "velocity": 0.4251968503937008,
                    "duration": 0.10373450000000162
                },
                {
                    "name": "C#5",
                    "midi": 73,
                    "time": 32.36516400000007,
                    "velocity": 0.49606299212598426,
                    "duration": 0.10373450000000162
                },
                {
                    "name": "G4",
                    "midi": 67,
                    "time": 32.572633000000074,
                    "velocity": 0.3858267716535433,
                    "duration": 0.10373450000000162
                },
                {
                    "name": "A#4",
                    "midi": 70,
                    "time": 32.572633000000074,
                    "velocity": 0.3858267716535433,
                    "duration": 0.10373450000000162
                },
                {
                    "name": "C#5",
                    "midi": 73,
                    "time": 32.572633000000074,
                    "velocity": 0.4645669291338583,
                    "duration": 0.10373450000000162
                },
                {
                    "name": "G4",
                    "midi": 67,
                    "time": 32.78010200000008,
                    "velocity": 0.4251968503937008,
                    "duration": 0.10373450000000162
                },
                {
                    "name": "A#4",
                    "midi": 70,
                    "time": 32.78010200000008,
                    "velocity": 0.4251968503937008,
                    "duration": 0.10373450000000162
                },
                {
                    "name": "C#5",
                    "midi": 73,
                    "time": 32.78010200000008,
                    "velocity": 0.49606299212598426,
                    "duration": 0.10373450000000162
                },
                {
                    "name": "G4",
                    "midi": 67,
                    "time": 32.98757100000008,
                    "velocity": 0.3858267716535433,
                    "duration": 0.10373450000000162
                },
                {
                    "name": "A#4",
                    "midi": 70,
                    "time": 32.98757100000008,
                    "velocity": 0.3858267716535433,
                    "duration": 0.10373450000000162
                },
                {
                    "name": "C#5",
                    "midi": 73,
                    "time": 32.98757100000008,
                    "velocity": 0.4566929133858268,
                    "duration": 0.10373450000000162
                },
                {
                    "name": "A#4",
                    "midi": 70,
                    "time": 33.195040000000084,
                    "velocity": 0.47244094488188976,
                    "duration": 0.6224070000000026
                },
                {
                    "name": "G4",
                    "midi": 67,
                    "time": 33.195040000000084,
                    "velocity": 0.47244094488188976,
                    "duration": 0.41493799999999936
                },
                {
                    "name": "C#5",
                    "midi": 73,
                    "time": 33.195040000000084,
                    "velocity": 0.5511811023622047,
                    "duration": 0.41493799999999936
                },
                {
                    "name": "F4",
                    "midi": 65,
                    "time": 33.60997800000008,
                    "velocity": 0.4015748031496063,
                    "duration": 0.20746900000000323
                },
                {
                    "name": "D5",
                    "midi": 74,
                    "time": 33.60997800000008,
                    "velocity": 0.48031496062992124,
                    "duration": 0.20746900000000323
                },
                {
                    "name": "F4",
                    "midi": 65,
                    "time": 34.02491600000009,
                    "velocity": 0.48031496062992124,
                    "duration": 0.13831266666666409
                },
                {
                    "name": "G4",
                    "midi": 67,
                    "time": 34.163228666666754,
                    "velocity": 0.4330708661417323,
                    "duration": 0.13831266666666409
                },
                {
                    "name": "A4",
                    "midi": 69,
                    "time": 34.30154133333342,
                    "velocity": 0.4330708661417323,
                    "duration": 0.13831266666666409
                },
                {
                    "name": "B4",
                    "midi": 71,
                    "time": 34.43985400000008,
                    "velocity": 0.48031496062992124,
                    "duration": 0.13831266666666409
                },
                {
                    "name": "C5",
                    "midi": 72,
                    "time": 34.578166666666746,
                    "velocity": 0.4409448818897638,
                    "duration": 0.13831266666666409
                },
                {
                    "name": "D5",
                    "midi": 74,
                    "time": 34.71647933333341,
                    "velocity": 0.4409448818897638,
                    "duration": 0.13831266666666409
                },
                {
                    "name": "D#5",
                    "midi": 75,
                    "time": 34.854792000000074,
                    "velocity": 0.48031496062992124,
                    "duration": 0.20746900000000323
                },
                {
                    "name": "G4",
                    "midi": 67,
                    "time": 35.06226100000008,
                    "velocity": 0.3937007874015748,
                    "duration": 0.20746900000000323
                },
                {
                    "name": "D5",
                    "midi": 74,
                    "time": 35.26973000000008,
                    "velocity": 0.48031496062992124,
                    "duration": 0.20746900000000323
                },
                {
                    "name": "F4",
                    "midi": 65,
                    "time": 35.477199000000084,
                    "velocity": 0.4015748031496063,
                    "duration": 0.20746900000000323
                },
                {
                    "name": "E4",
                    "midi": 64,
                    "time": 35.68466800000009,
                    "velocity": 0.3543307086614173,
                    "duration": 0.10373450000000162
                },
                {
                    "name": "G4",
                    "midi": 67,
                    "time": 35.68466800000009,
                    "velocity": 0.3543307086614173,
                    "duration": 0.10373450000000162
                },
                {
                    "name": "A#4",
                    "midi": 70,
                    "time": 35.68466800000009,
                    "velocity": 0.3543307086614173,
                    "duration": 0.10373450000000162
                },
                {
                    "name": "C#5",
                    "midi": 73,
                    "time": 35.68466800000009,
                    "velocity": 0.41732283464566927,
                    "duration": 0.10373450000000162
                },
                {
                    "name": "E4",
                    "midi": 64,
                    "time": 35.89213700000009,
                    "velocity": 0.3228346456692913,
                    "duration": 0.10373450000000162
                },
                {
                    "name": "G4",
                    "midi": 67,
                    "time": 35.89213700000009,
                    "velocity": 0.3228346456692913,
                    "duration": 0.10373450000000162
                },
                {
                    "name": "A#4",
                    "midi": 70,
                    "time": 35.89213700000009,
                    "velocity": 0.3228346456692913,
                    "duration": 0.10373450000000162
                },
                {
                    "name": "C#5",
                    "midi": 73,
                    "time": 35.89213700000009,
                    "velocity": 0.3937007874015748,
                    "duration": 0.10373450000000162
                },
                {
                    "name": "E4",
                    "midi": 64,
                    "time": 36.099606000000094,
                    "velocity": 0.3543307086614173,
                    "duration": 0.10373450000000162
                },
                {
                    "name": "G4",
                    "midi": 67,
                    "time": 36.099606000000094,
                    "velocity": 0.3543307086614173,
                    "duration": 0.10373450000000162
                },
                {
                    "name": "A#4",
                    "midi": 70,
                    "time": 36.099606000000094,
                    "velocity": 0.3543307086614173,
                    "duration": 0.10373450000000162
                },
                {
                    "name": "C#5",
                    "midi": 73,
                    "time": 36.099606000000094,
                    "velocity": 0.41732283464566927,
                    "duration": 0.10373450000000162
                },
                {
                    "name": "E4",
                    "midi": 64,
                    "time": 36.3070750000001,
                    "velocity": 0.3228346456692913,
                    "duration": 0.10373450000000162
                },
                {
                    "name": "G4",
                    "midi": 67,
                    "time": 36.3070750000001,
                    "velocity": 0.3228346456692913,
                    "duration": 0.10373450000000162
                },
                {
                    "name": "A#4",
                    "midi": 70,
                    "time": 36.3070750000001,
                    "velocity": 0.3228346456692913,
                    "duration": 0.10373450000000162
                },
                {
                    "name": "C#5",
                    "midi": 73,
                    "time": 36.3070750000001,
                    "velocity": 0.3858267716535433,
                    "duration": 0.10373450000000162
                },
                {
                    "name": "E4",
                    "midi": 64,
                    "time": 36.5145440000001,
                    "velocity": 0.4015748031496063,
                    "duration": 0.41493799999999936
                },
                {
                    "name": "A#4",
                    "midi": 70,
                    "time": 36.5145440000001,
                    "velocity": 0.4015748031496063,
                    "duration": 0.6224070000000026
                },
                {
                    "name": "G4",
                    "midi": 67,
                    "time": 36.5145440000001,
                    "velocity": 0.4015748031496063,
                    "duration": 0.41493799999999936
                },
                {
                    "name": "C#5",
                    "midi": 73,
                    "time": 36.5145440000001,
                    "velocity": 0.4645669291338583,
                    "duration": 0.41493799999999936
                },
                {
                    "name": "F4",
                    "midi": 65,
                    "time": 36.9294820000001,
                    "velocity": 0.33858267716535434,
                    "duration": 0.20746900000000323
                },
                {
                    "name": "D5",
                    "midi": 74,
                    "time": 36.9294820000001,
                    "velocity": 0.4015748031496063,
                    "duration": 0.20746900000000323
                },
                {
                    "name": "F4",
                    "midi": 65,
                    "time": 37.344420000000106,
                    "velocity": 0.4015748031496063,
                    "duration": 0.13831266666666409
                },
                {
                    "name": "G4",
                    "midi": 67,
                    "time": 37.48273266666677,
                    "velocity": 0.36220472440944884,
                    "duration": 0.13831266666666409
                },
                {
                    "name": "A4",
                    "midi": 69,
                    "time": 37.621045333333434,
                    "velocity": 0.36220472440944884,
                    "duration": 0.13831266666666409
                },
                {
                    "name": "A#4",
                    "midi": 70,
                    "time": 37.7593580000001,
                    "velocity": 0.4015748031496063,
                    "duration": 0.13831266666666409
                },
                {
                    "name": "C5",
                    "midi": 72,
                    "time": 37.89767066666676,
                    "velocity": 0.3700787401574803,
                    "duration": 0.13831266666666409
                },
                {
                    "name": "D5",
                    "midi": 74,
                    "time": 38.03598333333343,
                    "velocity": 0.3700787401574803,
                    "duration": 0.13831266666666409
                },
                {
                    "name": "G5",
                    "midi": 79,
                    "time": 38.17429600000009,
                    "velocity": 0.4015748031496063,
                    "duration": 0.20746900000000323
                },
                {
                    "name": "D#5",
                    "midi": 75,
                    "time": 38.17429600000009,
                    "velocity": 0.33858267716535434,
                    "duration": 0.20746900000000323
                },
                {
                    "name": "G4",
                    "midi": 67,
                    "time": 38.381765000000094,
                    "velocity": 0.3464566929133858,
                    "duration": 0.20746900000000323
                },
                {
                    "name": "F5",
                    "midi": 77,
                    "time": 38.5892340000001,
                    "velocity": 0.4015748031496063,
                    "duration": 0.20746900000000323
                },
                {
                    "name": "D5",
                    "midi": 74,
                    "time": 38.5892340000001,
                    "velocity": 0.33858267716535434,
                    "duration": 0.20746900000000323
                },
                {
                    "name": "F4",
                    "midi": 65,
                    "time": 38.7967030000001,
                    "velocity": 0.36220472440944884,
                    "duration": 0.20746900000000323
                },
                {
                    "name": "E4",
                    "midi": 64,
                    "time": 39.0041720000001,
                    "velocity": 0.31496062992125984,
                    "duration": 0.10373450000000162
                },
                {
                    "name": "G4",
                    "midi": 67,
                    "time": 39.0041720000001,
                    "velocity": 0.31496062992125984,
                    "duration": 0.10373450000000162
                },
                {
                    "name": "A#4",
                    "midi": 70,
                    "time": 39.0041720000001,
                    "velocity": 0.31496062992125984,
                    "duration": 0.10373450000000162
                },
                {
                    "name": "C#5",
                    "midi": 73,
                    "time": 39.0041720000001,
                    "velocity": 0.41732283464566927,
                    "duration": 0.10373450000000162
                },
                {
                    "name": "E4",
                    "midi": 64,
                    "time": 39.21164100000011,
                    "velocity": 0.29133858267716534,
                    "duration": 0.10373450000000162
                },
                {
                    "name": "G4",
                    "midi": 67,
                    "time": 39.21164100000011,
                    "velocity": 0.29133858267716534,
                    "duration": 0.10373450000000162
                },
                {
                    "name": "A#4",
                    "midi": 70,
                    "time": 39.21164100000011,
                    "velocity": 0.29133858267716534,
                    "duration": 0.10373450000000162
                },
                {
                    "name": "C#5",
                    "midi": 73,
                    "time": 39.21164100000011,
                    "velocity": 0.3937007874015748,
                    "duration": 0.10373450000000162
                },
                {
                    "name": "E4",
                    "midi": 64,
                    "time": 39.41911000000011,
                    "velocity": 0.31496062992125984,
                    "duration": 0.10373450000000162
                },
                {
                    "name": "G4",
                    "midi": 67,
                    "time": 39.41911000000011,
                    "velocity": 0.31496062992125984,
                    "duration": 0.10373450000000162
                },
                {
                    "name": "A#4",
                    "midi": 70,
                    "time": 39.41911000000011,
                    "velocity": 0.31496062992125984,
                    "duration": 0.10373450000000162
                },
                {
                    "name": "C#5",
                    "midi": 73,
                    "time": 39.41911000000011,
                    "velocity": 0.41732283464566927,
                    "duration": 0.10373450000000162
                },
                {
                    "name": "E4",
                    "midi": 64,
                    "time": 39.62657900000011,
                    "velocity": 0.29133858267716534,
                    "duration": 0.10373450000000162
                },
                {
                    "name": "G4",
                    "midi": 67,
                    "time": 39.62657900000011,
                    "velocity": 0.29133858267716534,
                    "duration": 0.10373450000000162
                },
                {
                    "name": "A#4",
                    "midi": 70,
                    "time": 39.62657900000011,
                    "velocity": 0.29133858267716534,
                    "duration": 0.10373450000000162
                },
                {
                    "name": "C#5",
                    "midi": 73,
                    "time": 39.62657900000011,
                    "velocity": 0.3858267716535433,
                    "duration": 0.10373450000000162
                },
                {
                    "name": "E4",
                    "midi": 64,
                    "time": 39.83404800000012,
                    "velocity": 0.4015748031496063,
                    "duration": 0.41493799999999936
                },
                {
                    "name": "A#4",
                    "midi": 70,
                    "time": 39.83404800000012,
                    "velocity": 0.4015748031496063,
                    "duration": 0.6224070000000026
                },
                {
                    "name": "G4",
                    "midi": 67,
                    "time": 39.83404800000012,
                    "velocity": 0.4015748031496063,
                    "duration": 0.41493799999999936
                },
                {
                    "name": "C#5",
                    "midi": 73,
                    "time": 39.83404800000012,
                    "velocity": 0.4645669291338583,
                    "duration": 0.41493799999999936
                },
                {
                    "name": "F4",
                    "midi": 65,
                    "time": 40.248986000000116,
                    "velocity": 0.33858267716535434,
                    "duration": 0.20746900000000323
                },
                {
                    "name": "D5",
                    "midi": 74,
                    "time": 40.248986000000116,
                    "velocity": 0.4015748031496063,
                    "duration": 0.20746900000000323
                },
                {
                    "name": "F4",
                    "midi": 65,
                    "time": 40.66392400000012,
                    "velocity": 0.3937007874015748,
                    "duration": 0.13831266666666409
                },
                {
                    "name": "G4",
                    "midi": 67,
                    "time": 40.802236666666786,
                    "velocity": 0.4015748031496063,
                    "duration": 0.13831266666666409
                },
                {
                    "name": "A4",
                    "midi": 69,
                    "time": 40.94054933333345,
                    "velocity": 0.4094488188976378,
                    "duration": 0.13831266666666409
                },
                {
                    "name": "A#4",
                    "midi": 70,
                    "time": 41.078862000000115,
                    "velocity": 0.41732283464566927,
                    "duration": 0.13831266666666409
                },
                {
                    "name": "C5",
                    "midi": 72,
                    "time": 41.21717466666678,
                    "velocity": 0.4251968503937008,
                    "duration": 0.13831266666666409
                },
                {
                    "name": "D5",
                    "midi": 74,
                    "time": 41.35548733333344,
                    "velocity": 0.4330708661417323,
                    "duration": 0.13831266666666409
                },
                {
                    "name": "D#5",
                    "midi": 75,
                    "time": 41.49380000000011,
                    "velocity": 0.48031496062992124,
                    "duration": 0.13831266666666409
                },
                {
                    "name": "F5",
                    "midi": 77,
                    "time": 41.63211266666677,
                    "velocity": 0.4094488188976378,
                    "duration": 0.13831266666666409
                },
                {
                    "name": "G5",
                    "midi": 79,
                    "time": 41.770425333333435,
                    "velocity": 0.4094488188976378,
                    "duration": 0.13831266666666409
                },
                {
                    "name": "F5",
                    "midi": 77,
                    "time": 41.9087380000001,
                    "velocity": 0.48031496062992124,
                    "duration": 0.13831266666666409
                },
                {
                    "name": "D#5",
                    "midi": 75,
                    "time": 42.04705066666676,
                    "velocity": 0.41732283464566927,
                    "duration": 0.13831266666666409
                },
                {
                    "name": "D5",
                    "midi": 74,
                    "time": 42.18536333333343,
                    "velocity": 0.41732283464566927,
                    "duration": 0.13831266666666409
                },
                {
                    "name": "C#5",
                    "midi": 73,
                    "time": 42.32367600000009,
                    "velocity": 0.44881889763779526,
                    "duration": 0.13831266666666409
                },
                {
                    "name": "A#4",
                    "midi": 70,
                    "time": 42.461988666666755,
                    "velocity": 0.3700787401574803,
                    "duration": 0.13831266666666409
                },
                {
                    "name": "G4",
                    "midi": 67,
                    "time": 42.60030133333342,
                    "velocity": 0.3700787401574803,
                    "duration": 0.13831266666666409
                },
                {
                    "name": "E4",
                    "midi": 64,
                    "time": 42.738614000000084,
                    "velocity": 0.3858267716535433,
                    "duration": 0.13831266666666409
                },
                {
                    "name": "C#4",
                    "midi": 61,
                    "time": 42.87692666666675,
                    "velocity": 0.3700787401574803,
                    "duration": 0.13831266666666409
                },
                {
                    "name": "E4",
                    "midi": 64,
                    "time": 43.01523933333341,
                    "velocity": 0.3779527559055118,
                    "duration": 0.13831266666666409
                },
                {
                    "name": "F4",
                    "midi": 65,
                    "time": 43.153552000000076,
                    "velocity": 0.3937007874015748,
                    "duration": 0.13831266666666409
                },
                {
                    "name": "D4",
                    "midi": 62,
                    "time": 43.29186466666674,
                    "velocity": 0.3543307086614173,
                    "duration": 0.13831266666666409
                },
                {
                    "name": "F4",
                    "midi": 65,
                    "time": 43.430177333333404,
                    "velocity": 0.3543307086614173,
                    "duration": 0.13831266666666409
                },
                {
                    "name": "D4",
                    "midi": 62,
                    "time": 43.56849000000007,
                    "velocity": 0.3937007874015748,
                    "duration": 0.13831266666666409
                },
                {
                    "name": "A#3",
                    "midi": 58,
                    "time": 43.70680266666673,
                    "velocity": 0.3543307086614173,
                    "duration": 0.13831266666666409
                },
                {
                    "name": "D4",
                    "midi": 62,
                    "time": 43.845115333333396,
                    "velocity": 0.3543307086614173,
                    "duration": 0.13831266666666409
                },
                {
                    "name": "F4",
                    "midi": 65,
                    "time": 43.98342800000006,
                    "velocity": 0.3543307086614173,
                    "duration": 0.13831266666666409
                },
                {
                    "name": "G4",
                    "midi": 67,
                    "time": 44.121740666666724,
                    "velocity": 0.3700787401574803,
                    "duration": 0.13831266666666409
                },
                {
                    "name": "A4",
                    "midi": 69,
                    "time": 44.26005333333339,
                    "velocity": 0.3858267716535433,
                    "duration": 0.13831266666666409
                },
                {
                    "name": "A#4",
                    "midi": 70,
                    "time": 44.39836600000005,
                    "velocity": 0.4015748031496063,
                    "duration": 0.13831266666666409
                },
                {
                    "name": "C5",
                    "midi": 72,
                    "time": 44.53667866666672,
                    "velocity": 0.41732283464566927,
                    "duration": 0.13831266666666409
                },
                {
                    "name": "D5",
                    "midi": 74,
                    "time": 44.67499133333338,
                    "velocity": 0.4330708661417323,
                    "duration": 0.13831266666666409
                },
                {
                    "name": "D#5",
                    "midi": 75,
                    "time": 44.813304000000045,
                    "velocity": 0.44881889763779526,
                    "duration": 0.13831266666666409
                },
                {
                    "name": "F5",
                    "midi": 77,
                    "time": 44.95161666666671,
                    "velocity": 0.4645669291338583,
                    "duration": 0.13831266666666409
                },
                {
                    "name": "G5",
                    "midi": 79,
                    "time": 45.08992933333337,
                    "velocity": 0.48031496062992124,
                    "duration": 0.13831266666666409
                },
                {
                    "name": "F5",
                    "midi": 77,
                    "time": 45.22824200000004,
                    "velocity": 0.49606299212598426,
                    "duration": 0.13831266666666409
                },
                {
                    "name": "D#5",
                    "midi": 75,
                    "time": 45.3665546666667,
                    "velocity": 0.4566929133858268,
                    "duration": 0.13831266666666409
                },
                {
                    "name": "D5",
                    "midi": 74,
                    "time": 45.504867333333365,
                    "velocity": 0.48031496062992124,
                    "duration": 0.13831266666666409
                },
                {
                    "name": "C#5",
                    "midi": 73,
                    "time": 45.64318000000003,
                    "velocity": 0.44881889763779526,
                    "duration": 0.13831266666666409
                },
                {
                    "name": "A#4",
                    "midi": 70,
                    "time": 45.78149266666669,
                    "velocity": 0.4330708661417323,
                    "duration": 0.13831266666666409
                },
                {
                    "name": "G4",
                    "midi": 67,
                    "time": 45.91980533333336,
                    "velocity": 0.41732283464566927,
                    "duration": 0.13831266666666409
                },
                {
                    "name": "E4",
                    "midi": 64,
                    "time": 46.05811800000002,
                    "velocity": 0.4015748031496063,
                    "duration": 0.13831266666666409
                },
                {
                    "name": "C#4",
                    "midi": 61,
                    "time": 46.196430666666686,
                    "velocity": 0.3700787401574803,
                    "duration": 0.13831266666666409
                },
                {
                    "name": "E4",
                    "midi": 64,
                    "time": 46.33474333333335,
                    "velocity": 0.33858267716535434,
                    "duration": 0.13831266666666409
                },
                {
                    "name": "G4",
                    "midi": 67,
                    "time": 46.473056000000014,
                    "velocity": 0.4645669291338583,
                    "duration": 0.13831266666666409
                },
                {
                    "name": "E4",
                    "midi": 64,
                    "time": 46.61136866666668,
                    "velocity": 0.33858267716535434,
                    "duration": 0.13831266666666409
                },
                {
                    "name": "G4",
                    "midi": 67,
                    "time": 46.74968133333334,
                    "velocity": 0.33858267716535434,
                    "duration": 0.13831266666666409
                },
                {
                    "name": "E4",
                    "midi": 64,
                    "time": 46.887994000000006,
                    "velocity": 0.3464566929133858,
                    "duration": 0.13831266666666409
                },
                {
                    "name": "C#4",
                    "midi": 61,
                    "time": 47.02630666666667,
                    "velocity": 0.3543307086614173,
                    "duration": 0.13831266666666409
                },
                {
                    "name": "E4",
                    "midi": 64,
                    "time": 47.164619333333334,
                    "velocity": 0.3543307086614173,
                    "duration": 0.13831266666666409
                },
                {
                    "name": "G#4",
                    "midi": 68,
                    "time": 47.302932,
                    "velocity": 0.4881889763779528,
                    "duration": 0.13831266666666409
                },
                {
                    "name": "E4",
                    "midi": 64,
                    "time": 47.44124466666666,
                    "velocity": 0.36220472440944884,
                    "duration": 0.13831266666666409
                },
                {
                    "name": "G#4",
                    "midi": 68,
                    "time": 47.57955733333333,
                    "velocity": 0.3700787401574803,
                    "duration": 0.13831266666666409
                },
                {
                    "name": "E4",
                    "midi": 64,
                    "time": 47.71786999999999,
                    "velocity": 0.3700787401574803,
                    "duration": 0.13831266666666409
                },
                {
                    "name": "C#4",
                    "midi": 61,
                    "time": 47.856182666666655,
                    "velocity": 0.3779527559055118,
                    "duration": 0.13831266666666409
                },
                {
                    "name": "E4",
                    "midi": 64,
                    "time": 47.99449533333332,
                    "velocity": 0.3779527559055118,
                    "duration": 0.13831266666666409
                },
                {
                    "name": "A4",
                    "midi": 69,
                    "time": 48.13280799999998,
                    "velocity": 0.5118110236220472,
                    "duration": 0.13831266666666409
                },
                {
                    "name": "E4",
                    "midi": 64,
                    "time": 48.27112066666665,
                    "velocity": 0.3858267716535433,
                    "duration": 0.13831266666666409
                },
                {
                    "name": "A4",
                    "midi": 69,
                    "time": 48.40943333333331,
                    "velocity": 0.3937007874015748,
                    "duration": 0.13831266666666409
                },
                {
                    "name": "E4",
                    "midi": 64,
                    "time": 48.547745999999975,
                    "velocity": 0.3937007874015748,
                    "duration": 0.13831266666666409
                },
                {
                    "name": "C#4",
                    "midi": 61,
                    "time": 48.68605866666664,
                    "velocity": 0.4015748031496063,
                    "duration": 0.13831266666666409
                },
                {
                    "name": "E4",
                    "midi": 64,
                    "time": 48.8243713333333,
                    "velocity": 0.4094488188976378,
                    "duration": 0.13831266666666409
                },
                {
                    "name": "A4",
                    "midi": 69,
                    "time": 48.96268399999997,
                    "velocity": 0.5354330708661418,
                    "duration": 0.13831266666666409
                },
                {
                    "name": "E4",
                    "midi": 64,
                    "time": 49.10099666666663,
                    "velocity": 0.4094488188976378,
                    "duration": 0.13831266666666409
                },
                {
                    "name": "A4",
                    "midi": 69,
                    "time": 49.239309333333296,
                    "velocity": 0.41732283464566927,
                    "duration": 0.13831266666666409
                },
                {
                    "name": "E4",
                    "midi": 64,
                    "time": 49.37762199999996,
                    "velocity": 0.4251968503937008,
                    "duration": 0.13831266666666409
                },
                {
                    "name": "C4",
                    "midi": 60,
                    "time": 49.515934666666624,
                    "velocity": 0.4251968503937008,
                    "duration": 0.13831266666666409
                },
                {
                    "name": "E4",
                    "midi": 64,
                    "time": 49.65424733333329,
                    "velocity": 0.4330708661417323,
                    "duration": 0.13831266666666409
                },
                {
                    "name": "D5",
                    "midi": 74,
                    "time": 49.79255999999995,
                    "velocity": 0.5826771653543307,
                    "duration": 0.13831266666666409
                },
                {
                    "name": "A4",
                    "midi": 69,
                    "time": 49.930872666666616,
                    "velocity": 0.4645669291338583,
                    "duration": 0.13831266666666409
                },
                {
                    "name": "D5",
                    "midi": 74,
                    "time": 50.06918533333328,
                    "velocity": 0.47244094488188976,
                    "duration": 0.13831266666666409
                },
                {
                    "name": "A4",
                    "midi": 69,
                    "time": 50.207497999999944,
                    "velocity": 0.48031496062992124,
                    "duration": 0.13831266666666409
                },
                {
                    "name": "D4",
                    "midi": 62,
                    "time": 50.34581066666661,
                    "velocity": 0.4881889763779528,
                    "duration": 0.13831266666666409
                },
                {
                    "name": "A4",
                    "midi": 69,
                    "time": 50.48412333333327,
                    "velocity": 0.49606299212598426,
                    "duration": 0.13831266666666409
                },
                {
                    "name": "G#5",
                    "midi": 80,
                    "time": 50.62243599999994,
                    "velocity": 0.6456692913385826,
                    "duration": 0.13831266666666409
                },
                {
                    "name": "D5",
                    "midi": 74,
                    "time": 50.7607486666666,
                    "velocity": 0.5275590551181102,
                    "duration": 0.13831266666666409
                },
                {
                    "name": "G#5",
                    "midi": 80,
                    "time": 50.899061333333265,
                    "velocity": 0.5433070866141733,
                    "duration": 0.13831266666666409
                },
                {
                    "name": "D5",
                    "midi": 74,
                    "time": 51.03737399999993,
                    "velocity": 0.5511811023622047,
                    "duration": 0.13831266666666409
                },
                {
                    "name": "G#4",
                    "midi": 68,
                    "time": 51.17568666666659,
                    "velocity": 0.5669291338582677,
                    "duration": 0.13831266666666409
                },
                {
                    "name": "D5",
                    "midi": 74,
                    "time": 51.31399933333326,
                    "velocity": 0.5826771653543307,
                    "duration": 0.13831266666666409
                },
                {
                    "name": "A5",
                    "midi": 81,
                    "time": 51.45231199999992,
                    "velocity": 0.8267716535433071,
                    "duration": 0.8298759999999987
                },
                {
                    "name": "E5",
                    "midi": 76,
                    "time": 51.45231199999992,
                    "velocity": 0.7007874015748031,
                    "duration": 0.8298759999999987
                },
                {
                    "name": "C#5",
                    "midi": 73,
                    "time": 51.45231199999992,
                    "velocity": 0.7007874015748031,
                    "duration": 0.8298759999999987
                },
                {
                    "name": "A4",
                    "midi": 69,
                    "time": 51.45231199999992,
                    "velocity": 0.7007874015748031,
                    "duration": 0.8298759999999987
                },
                {
                    "name": "C5",
                    "midi": 72,
                    "time": 52.28218799999992,
                    "velocity": 0.4251968503937008,
                    "duration": 0.15560175000000243
                },
                {
                    "name": "D#5",
                    "midi": 75,
                    "time": 52.28218799999992,
                    "velocity": 0.49606299212598426,
                    "duration": 0.15560175000000243
                },
                {
                    "name": "C5",
                    "midi": 72,
                    "time": 52.48965699999992,
                    "velocity": 0.3858267716535433,
                    "duration": 0.15560175000000243
                },
                {
                    "name": "D#5",
                    "midi": 75,
                    "time": 52.48965699999992,
                    "velocity": 0.4645669291338583,
                    "duration": 0.15560175000000243
                },
                {
                    "name": "C5",
                    "midi": 72,
                    "time": 52.697125999999926,
                    "velocity": 0.4251968503937008,
                    "duration": 0.15560175000000243
                },
                {
                    "name": "D#5",
                    "midi": 75,
                    "time": 52.697125999999926,
                    "velocity": 0.49606299212598426,
                    "duration": 0.15560175000000243
                },
                {
                    "name": "C5",
                    "midi": 72,
                    "time": 52.90459499999993,
                    "velocity": 0.3858267716535433,
                    "duration": 0.15560175000000243
                },
                {
                    "name": "D#5",
                    "midi": 75,
                    "time": 52.90459499999993,
                    "velocity": 0.4566929133858268,
                    "duration": 0.15560175000000243
                },
                {
                    "name": "C#5",
                    "midi": 73,
                    "time": 53.11206399999993,
                    "velocity": 0.47244094488188976,
                    "duration": 0.41493799999999936
                },
                {
                    "name": "E5",
                    "midi": 76,
                    "time": 53.11206399999993,
                    "velocity": 0.5511811023622047,
                    "duration": 0.41493799999999936
                },
                {
                    "name": "C#6",
                    "midi": 85,
                    "time": 53.52700199999993,
                    "velocity": 0.3858267716535433,
                    "duration": 0.20746900000000323
                },
                {
                    "name": "C#3",
                    "midi": 49,
                    "time": 53.734470999999935,
                    "velocity": 0.5039370078740157,
                    "duration": 0.20746900000000323
                },
                {
                    "name": "D3",
                    "midi": 50,
                    "time": 53.94193999999994,
                    "velocity": 0.5196850393700787,
                    "duration": 0.13831266666666409
                },
                {
                    "name": "C#3",
                    "midi": 49,
                    "time": 54.0802526666666,
                    "velocity": 0.4881889763779528,
                    "duration": 0.13831266666666409
                },
                {
                    "name": "B2",
                    "midi": 47,
                    "time": 54.21856533333327,
                    "velocity": 0.5039370078740157,
                    "duration": 0.13831266666666409
                },
                {
                    "name": "F3",
                    "midi": 53,
                    "time": 54.35687799999993,
                    "velocity": 0.5118110236220472,
                    "duration": 0.13831266666666409
                },
                {
                    "name": "E3",
                    "midi": 52,
                    "time": 54.495190666666595,
                    "velocity": 0.47244094488188976,
                    "duration": 0.13831266666666409
                },
                {
                    "name": "D3",
                    "midi": 50,
                    "time": 54.63350333333326,
                    "velocity": 0.3858267716535433,
                    "duration": 0.13831266666666409
                },
                {
                    "name": "C#5",
                    "midi": 73,
                    "time": 55.18675399999992,
                    "velocity": 0.4409448818897638,
                    "duration": 0.31120349999999775
                },
                {
                    "name": "E5",
                    "midi": 76,
                    "time": 55.18675399999992,
                    "velocity": 0.4409448818897638,
                    "duration": 0.31120349999999775
                },
                {
                    "name": "C#5",
                    "midi": 73,
                    "time": 55.49795749999992,
                    "velocity": 0.3858267716535433,
                    "duration": 0.10373450000000162
                },
                {
                    "name": "E5",
                    "midi": 76,
                    "time": 55.49795749999992,
                    "velocity": 0.3858267716535433,
                    "duration": 0.10373450000000162
                },
                {
                    "name": "B4",
                    "midi": 71,
                    "time": 55.60169199999992,
                    "velocity": 0.4330708661417323,
                    "duration": 0.20746899999999613
                },
                {
                    "name": "D5",
                    "midi": 74,
                    "time": 55.60169199999992,
                    "velocity": 0.4330708661417323,
                    "duration": 0.20746899999999613
                },
                {
                    "name": "B3",
                    "midi": 59,
                    "time": 55.60169199999992,
                    "velocity": 0.4330708661417323,
                    "duration": 0.13831266666666409
                },
                {
                    "name": "C#4",
                    "midi": 61,
                    "time": 55.740004666666586,
                    "velocity": 0.4409448818897638,
                    "duration": 0.13831266666666409
                },
                {
                    "name": "D4",
                    "midi": 62,
                    "time": 55.87831733333325,
                    "velocity": 0.4251968503937008,
                    "duration": 0.13831266666666409
                },
                {
                    "name": "E4",
                    "midi": 64,
                    "time": 56.016629999999914,
                    "velocity": 0.44881889763779526,
                    "duration": 0.13831266666666409
                },
                {
                    "name": "F#4",
                    "midi": 66,
                    "time": 56.15494266666658,
                    "velocity": 0.47244094488188976,
                    "duration": 0.13831266666666409
                },
                {
                    "name": "G#4",
                    "midi": 68,
                    "time": 56.29325533333324,
                    "velocity": 0.4881889763779528,
                    "duration": 0.13831266666666409
                },
                {
                    "name": "A5",
                    "midi": 81,
                    "time": 56.431567999999906,
                    "velocity": 0.7401574803149606,
                    "duration": 0.8298759999999987
                },
                {
                    "name": "E5",
                    "midi": 76,
                    "time": 56.431567999999906,
                    "velocity": 0.6299212598425197,
                    "duration": 0.8298759999999987
                },
                {
                    "name": "C#5",
                    "midi": 73,
                    "time": 56.431567999999906,
                    "velocity": 0.6299212598425197,
                    "duration": 0.8298759999999987
                },
                {
                    "name": "A4",
                    "midi": 69,
                    "time": 56.431567999999906,
                    "velocity": 0.6299212598425197,
                    "duration": 0.8298759999999987
                },
                {
                    "name": "C5",
                    "midi": 72,
                    "time": 57.261443999999905,
                    "velocity": 0.4251968503937008,
                    "duration": 0.28526987499999734
                },
                {
                    "name": "D#5",
                    "midi": 75,
                    "time": 57.261443999999905,
                    "velocity": 0.49606299212598426,
                    "duration": 0.28526987499999734
                },
                {
                    "name": "C5",
                    "midi": 72,
                    "time": 57.5726474999999,
                    "velocity": 0.3858267716535433,
                    "duration": 0.07780087500000121
                },
                {
                    "name": "D#5",
                    "midi": 75,
                    "time": 57.5726474999999,
                    "velocity": 0.4645669291338583,
                    "duration": 0.07780087500000121
                },
                {
                    "name": "C5",
                    "midi": 72,
                    "time": 57.676381999999904,
                    "velocity": 0.4251968503937008,
                    "duration": 0.28526987499999734
                },
                {
                    "name": "D#5",
                    "midi": 75,
                    "time": 57.676381999999904,
                    "velocity": 0.49606299212598426,
                    "duration": 0.28526987499999734
                },
                {
                    "name": "C5",
                    "midi": 72,
                    "time": 57.9875854999999,
                    "velocity": 0.3858267716535433,
                    "duration": 0.07780087500000121
                },
                {
                    "name": "D#5",
                    "midi": 75,
                    "time": 57.9875854999999,
                    "velocity": 0.4566929133858268,
                    "duration": 0.07780087500000121
                },
                {
                    "name": "C#5",
                    "midi": 73,
                    "time": 58.091319999999904,
                    "velocity": 0.47244094488188976,
                    "duration": 0.41493799999999936
                },
                {
                    "name": "E5",
                    "midi": 76,
                    "time": 58.091319999999904,
                    "velocity": 0.5511811023622047,
                    "duration": 0.41493799999999936
                },
                {
                    "name": "C#6",
                    "midi": 85,
                    "time": 58.5062579999999,
                    "velocity": 0.3858267716535433,
                    "duration": 0.20746900000000323
                },
                {
                    "name": "C#3",
                    "midi": 49,
                    "time": 58.713726999999906,
                    "velocity": 0.5039370078740157,
                    "duration": 0.20746900000000323
                },
                {
                    "name": "D3",
                    "midi": 50,
                    "time": 58.92119599999991,
                    "velocity": 0.5196850393700787,
                    "duration": 0.13831266666666409
                },
                {
                    "name": "C#3",
                    "midi": 49,
                    "time": 59.059508666666574,
                    "velocity": 0.4881889763779528,
                    "duration": 0.13831266666666409
                },
                {
                    "name": "B2",
                    "midi": 47,
                    "time": 59.19782133333324,
                    "velocity": 0.5039370078740157,
                    "duration": 0.13831266666666409
                },
                {
                    "name": "F3",
                    "midi": 53,
                    "time": 59.3361339999999,
                    "velocity": 0.5118110236220472,
                    "duration": 0.13831266666666409
                },
                {
                    "name": "E3",
                    "midi": 52,
                    "time": 59.474446666666566,
                    "velocity": 0.47244094488188976,
                    "duration": 0.13831266666666409
                },
                {
                    "name": "D3",
                    "midi": 50,
                    "time": 59.61275933333323,
                    "velocity": 0.3858267716535433,
                    "duration": 0.13831266666666409
                },
                {
                    "name": "C#5",
                    "midi": 73,
                    "time": 60.16600999999989,
                    "velocity": 0.4409448818897638,
                    "duration": 0.31120349999999775
                },
                {
                    "name": "E5",
                    "midi": 76,
                    "time": 60.16600999999989,
                    "velocity": 0.4409448818897638,
                    "duration": 0.31120349999999775
                },
                {
                    "name": "C#5",
                    "midi": 73,
                    "time": 60.47721349999989,
                    "velocity": 0.3858267716535433,
                    "duration": 0.10373450000000162
                },
                {
                    "name": "E5",
                    "midi": 76,
                    "time": 60.47721349999989,
                    "velocity": 0.3858267716535433,
                    "duration": 0.10373450000000162
                },
                {
                    "name": "B4",
                    "midi": 71,
                    "time": 60.58094799999989,
                    "velocity": 0.4330708661417323,
                    "duration": 0.20746899999999613
                },
                {
                    "name": "D5",
                    "midi": 74,
                    "time": 60.58094799999989,
                    "velocity": 0.4330708661417323,
                    "duration": 0.20746899999999613
                },
                {
                    "name": "B3",
                    "midi": 59,
                    "time": 60.58094799999989,
                    "velocity": 0.4330708661417323,
                    "duration": 0.13831266666666409
                },
                {
                    "name": "C#4",
                    "midi": 61,
                    "time": 60.71926066666656,
                    "velocity": 0.4409448818897638,
                    "duration": 0.13831266666666409
                },
                {
                    "name": "D4",
                    "midi": 62,
                    "time": 60.85757333333322,
                    "velocity": 0.4251968503937008,
                    "duration": 0.13831266666666409
                },
                {
                    "name": "E4",
                    "midi": 64,
                    "time": 60.995885999999885,
                    "velocity": 0.44881889763779526,
                    "duration": 0.13831266666666409
                },
                {
                    "name": "F#4",
                    "midi": 66,
                    "time": 61.13419866666655,
                    "velocity": 0.47244094488188976,
                    "duration": 0.13831266666666409
                },
                {
                    "name": "G#4",
                    "midi": 68,
                    "time": 61.27251133333321,
                    "velocity": 0.4881889763779528,
                    "duration": 0.13831266666666409
                },
                {
                    "name": "A4",
                    "midi": 69,
                    "time": 61.41082399999988,
                    "velocity": 0.44881889763779526,
                    "duration": 0.13831266666666409
                },
                {
                    "name": "B4",
                    "midi": 71,
                    "time": 61.54913666666654,
                    "velocity": 0.48031496062992124,
                    "duration": 0.13831266666666409
                },
                {
                    "name": "C#5",
                    "midi": 73,
                    "time": 61.687449333333205,
                    "velocity": 0.4881889763779528,
                    "duration": 0.13831266666666409
                },
                {
                    "name": "D5",
                    "midi": 74,
                    "time": 61.82576199999987,
                    "velocity": 0.49606299212598426,
                    "duration": 0.13831266666666409
                },
                {
                    "name": "E5",
                    "midi": 76,
                    "time": 61.964074666666534,
                    "velocity": 0.5039370078740157,
                    "duration": 0.13831266666666409
                },
                {
                    "name": "F#5",
                    "midi": 78,
                    "time": 62.1023873333332,
                    "velocity": 0.5118110236220472,
                    "duration": 0.13831266666666409
                },
                {
                    "name": "G#5",
                    "midi": 80,
                    "time": 62.24069999999986,
                    "velocity": 0.5196850393700787,
                    "duration": 0.13831266666666409
                },
                {
                    "name": "A5",
                    "midi": 81,
                    "time": 62.379012666666526,
                    "velocity": 0.5275590551181102,
                    "duration": 0.13831266666666409
                },
                {
                    "name": "B5",
                    "midi": 83,
                    "time": 62.51732533333319,
                    "velocity": 0.5354330708661418,
                    "duration": 0.13831266666666409
                },
                {
                    "name": "C#6",
                    "midi": 85,
                    "time": 62.655637999999854,
                    "velocity": 0.5433070866141733,
                    "duration": 0.13831266666666409
                },
                {
                    "name": "D6",
                    "midi": 86,
                    "time": 62.79395066666652,
                    "velocity": 0.5511811023622047,
                    "duration": 0.13831266666666409
                },
                {
                    "name": "E6",
                    "midi": 88,
                    "time": 62.93226333333318,
                    "velocity": 0.5590551181102362,
                    "duration": 0.13831266666666409
                },
                {
                    "name": "D6",
                    "midi": 86,
                    "time": 63.070575999999846,
                    "velocity": 0.5590551181102362,
                    "duration": 0.13831266666666409
                },
                {
                    "name": "C#6",
                    "midi": 85,
                    "time": 63.20888866666651,
                    "velocity": 0.5354330708661418,
                    "duration": 0.13831266666666409
                },
                {
                    "name": "B5",
                    "midi": 83,
                    "time": 63.347201333333174,
                    "velocity": 0.5118110236220472,
                    "duration": 0.13831266666666409
                },
                {
                    "name": "A5",
                    "midi": 81,
                    "time": 63.48551399999984,
                    "velocity": 0.49606299212598426,
                    "duration": 0.13831266666666409
                },
                {
                    "name": "G#5",
                    "midi": 80,
                    "time": 63.6238266666665,
                    "velocity": 0.47244094488188976,
                    "duration": 0.13831266666666409
                },
                {
                    "name": "F#5",
                    "midi": 78,
                    "time": 63.76213933333317,
                    "velocity": 0.4566929133858268,
                    "duration": 0.13831266666666409
                },
                {
                    "name": "E5",
                    "midi": 76,
                    "time": 63.90045199999983,
                    "velocity": 0.4330708661417323,
                    "duration": 0.13831266666666409
                },
                {
                    "name": "D5",
                    "midi": 74,
                    "time": 64.0387646666665,
                    "velocity": 0.41732283464566927,
                    "duration": 0.13831266666666409
                },
                {
                    "name": "C#5",
                    "midi": 73,
                    "time": 64.17707733333316,
                    "velocity": 0.3937007874015748,
                    "duration": 0.13831266666666409
                },
                {
                    "name": "B4",
                    "midi": 71,
                    "time": 64.31538999999982,
                    "velocity": 0.3779527559055118,
                    "duration": 0.13831266666666409
                },
                {
                    "name": "A4",
                    "midi": 69,
                    "time": 64.45370266666649,
                    "velocity": 0.3543307086614173,
                    "duration": 0.13831266666666409
                },
                {
                    "name": "G#4",
                    "midi": 68,
                    "time": 64.59201533333315,
                    "velocity": 0.33858267716535434,
                    "duration": 0.13831266666666409
                },
                {
                    "name": "A4",
                    "midi": 69,
                    "time": 64.73032799999982,
                    "velocity": 0.3937007874015748,
                    "duration": 0.41493800000000647
                },
                {
                    "name": "C#4",
                    "midi": 61,
                    "time": 65.14526599999982,
                    "velocity": 0.30708661417322836,
                    "duration": 0.10373450000000162
                },
                {
                    "name": "B4",
                    "midi": 71,
                    "time": 65.56020399999983,
                    "velocity": 0.3858267716535433,
                    "duration": 0.41493800000000647
                },
                {
                    "name": "E4",
                    "midi": 64,
                    "time": 65.97514199999983,
                    "velocity": 0.30708661417322836,
                    "duration": 0.10373450000000162
                },
                {
                    "name": "E4",
                    "midi": 64,
                    "time": 66.33821274999984,
                    "velocity": 0.31496062992125984,
                    "duration": 0.05186725000000081
                },
                {
                    "name": "C#5",
                    "midi": 73,
                    "time": 66.39007999999984,
                    "velocity": 0.3858267716535433,
                    "duration": 0.41493800000000647
                },
                {
                    "name": "A4",
                    "midi": 69,
                    "time": 66.80501799999985,
                    "velocity": 0.30708661417322836,
                    "duration": 0.10373450000000162
                },
                {
                    "name": "A4",
                    "midi": 69,
                    "time": 67.16808874999985,
                    "velocity": 0.31496062992125984,
                    "duration": 0.05186725000000081
                },
                {
                    "name": "F#5",
                    "midi": 78,
                    "time": 67.21995599999985,
                    "velocity": 0.4330708661417323,
                    "duration": 0.31120350000000485
                },
                {
                    "name": "D#5",
                    "midi": 75,
                    "time": 67.53115949999986,
                    "velocity": 0.3543307086614173,
                    "duration": 0.10373450000000162
                },
                {
                    "name": "F#5",
                    "midi": 78,
                    "time": 67.63489399999986,
                    "velocity": 0.41732283464566927,
                    "duration": 0.31120350000000485
                },
                {
                    "name": "D#5",
                    "midi": 75,
                    "time": 67.94609749999987,
                    "velocity": 0.36220472440944884,
                    "duration": 0.10373450000000162
                },
                {
                    "name": "E5",
                    "midi": 76,
                    "time": 68.05588317916653,
                    "velocity": 0.3937007874015748,
                    "duration": 0.41493799999999226
                },
                {
                    "name": "E4",
                    "midi": 64,
                    "time": 68.46476999999986,
                    "velocity": 0.30708661417322836,
                    "duration": 0.10373450000000162
                },
                {
                    "name": "E4",
                    "midi": 64,
                    "time": 68.82784074999987,
                    "velocity": 0.31496062992125984,
                    "duration": 0.05186725000000081
                },
                {
                    "name": "D5",
                    "midi": 74,
                    "time": 68.87970799999987,
                    "velocity": 0.3858267716535433,
                    "duration": 0.41493800000000647
                },
                {
                    "name": "B4",
                    "midi": 71,
                    "time": 69.29464599999987,
                    "velocity": 0.30708661417322836,
                    "duration": 0.10373450000000162
                },
                {
                    "name": "B4",
                    "midi": 71,
                    "time": 69.65771674999988,
                    "velocity": 0.31496062992125984,
                    "duration": 0.05186725000000081
                },
                {
                    "name": "C#5",
                    "midi": 73,
                    "time": 69.70958399999988,
                    "velocity": 0.3858267716535433,
                    "duration": 0.41493800000000647
                },
                {
                    "name": "E4",
                    "midi": 64,
                    "time": 70.12452199999989,
                    "velocity": 0.30708661417322836,
                    "duration": 0.10373450000000162
                },
                {
                    "name": "E4",
                    "midi": 64,
                    "time": 70.48759274999989,
                    "velocity": 0.31496062992125984,
                    "duration": 0.05186725000000081
                },
                {
                    "name": "B4",
                    "midi": 71,
                    "time": 70.53945999999989,
                    "velocity": 0.4330708661417323,
                    "duration": 0.31120350000000485
                },
                {
                    "name": "G#4",
                    "midi": 68,
                    "time": 70.8506634999999,
                    "velocity": 0.3543307086614173,
                    "duration": 0.10373450000000162
                },
                {
                    "name": "B4",
                    "midi": 71,
                    "time": 70.9543979999999,
                    "velocity": 0.41732283464566927,
                    "duration": 0.31120350000000485
                },
                {
                    "name": "G#4",
                    "midi": 68,
                    "time": 71.2656014999999,
                    "velocity": 0.36220472440944884,
                    "duration": 0.10373450000000162
                },
                {
                    "name": "A4",
                    "midi": 69,
                    "time": 71.3693359999999,
                    "velocity": 0.3937007874015748,
                    "duration": 0.13831266666666409
                },
                {
                    "name": "E4",
                    "midi": 64,
                    "time": 71.50764866666657,
                    "velocity": 0.3464566929133858,
                    "duration": 0.13831266666666409
                },
                {
                    "name": "A4",
                    "midi": 69,
                    "time": 71.64596133333323,
                    "velocity": 0.2992125984251969,
                    "duration": 0.13831266666666409
                },
                {
                    "name": "C#4",
                    "midi": 61,
                    "time": 71.7842739999999,
                    "velocity": 0.30708661417322836,
                    "duration": 0.10373450000000162
                },
                {
                    "name": "B4",
                    "midi": 71,
                    "time": 72.1992119999999,
                    "velocity": 0.3937007874015748,
                    "duration": 0.13831266666666409
                },
                {
                    "name": "G#4",
                    "midi": 68,
                    "time": 72.33752466666657,
                    "velocity": 0.3464566929133858,
                    "duration": 0.13831266666666409
                },
                {
                    "name": "B4",
                    "midi": 71,
                    "time": 72.47583733333323,
                    "velocity": 0.2992125984251969,
                    "duration": 0.13831266666666409
                },
                {
                    "name": "E4",
                    "midi": 64,
                    "time": 72.6141499999999,
                    "velocity": 0.30708661417322836,
                    "duration": 0.10373450000000162
                },
                {
                    "name": "C#5",
                    "midi": 73,
                    "time": 73.0290879999999,
                    "velocity": 0.3937007874015748,
                    "duration": 0.13831266666666409
                },
                {
                    "name": "B4",
                    "midi": 71,
                    "time": 73.16740066666657,
                    "velocity": 0.3464566929133858,
                    "duration": 0.13831266666666409
                },
                {
                    "name": "C#5",
                    "midi": 73,
                    "time": 73.30571333333323,
                    "velocity": 0.2992125984251969,
                    "duration": 0.13831266666666409
                },
                {
                    "name": "A4",
                    "midi": 69,
                    "time": 73.4440259999999,
                    "velocity": 0.30708661417322836,
                    "duration": 0.10373450000000162
                },
                {
                    "name": "F#5",
                    "midi": 78,
                    "time": 73.8589639999999,
                    "velocity": 0.4330708661417323,
                    "duration": 0.13831266666666409
                },
                {
                    "name": "D#5",
                    "midi": 75,
                    "time": 73.99727666666656,
                    "velocity": 0.3700787401574803,
                    "duration": 0.13831266666666409
                },
                {
                    "name": "F#5",
                    "midi": 78,
                    "time": 74.13558933333323,
                    "velocity": 0.3700787401574803,
                    "duration": 0.13831266666666409
                },
                {
                    "name": "A5",
                    "midi": 81,
                    "time": 74.2739019999999,
                    "velocity": 0.4330708661417323,
                    "duration": 0.13831266666666409
                },
                {
                    "name": "F#5",
                    "midi": 78,
                    "time": 74.41221466666656,
                    "velocity": 0.3700787401574803,
                    "duration": 0.13831266666666409
                },
                {
                    "name": "D#5",
                    "midi": 75,
                    "time": 74.55052733333322,
                    "velocity": 0.3700787401574803,
                    "duration": 0.13831266666666409
                },
                {
                    "name": "E5",
                    "midi": 76,
                    "time": 74.68883999999989,
                    "velocity": 0.3937007874015748,
                    "duration": 0.13831266666666409
                },
                {
                    "name": "C#5",
                    "midi": 73,
                    "time": 74.82715266666655,
                    "velocity": 0.3464566929133858,
                    "duration": 0.13831266666666409
                },
                {
                    "name": "E5",
                    "midi": 76,
                    "time": 74.96546533333321,
                    "velocity": 0.2992125984251969,
                    "duration": 0.13831266666666409
                },
                {
                    "name": "E4",
                    "midi": 64,
                    "time": 75.10377799999988,
                    "velocity": 0.30708661417322836,
                    "duration": 0.10373450000000162
                },
                {
                    "name": "D5",
                    "midi": 74,
                    "time": 75.51871599999988,
                    "velocity": 0.3937007874015748,
                    "duration": 0.13831266666666409
                },
                {
                    "name": "C#5",
                    "midi": 73,
                    "time": 75.65702866666655,
                    "velocity": 0.3464566929133858,
                    "duration": 0.13831266666666409
                },
                {
                    "name": "D5",
                    "midi": 74,
                    "time": 75.79534133333321,
                    "velocity": 0.2992125984251969,
                    "duration": 0.13831266666666409
                },
                {
                    "name": "B4",
                    "midi": 71,
                    "time": 75.93365399999988,
                    "velocity": 0.30708661417322836,
                    "duration": 0.10373450000000162
                },
                {
                    "name": "C#5",
                    "midi": 73,
                    "time": 76.34859199999988,
                    "velocity": 0.3937007874015748,
                    "duration": 0.13831266666666409
                },
                {
                    "name": "A4",
                    "midi": 69,
                    "time": 76.48690466666655,
                    "velocity": 0.3464566929133858,
                    "duration": 0.13831266666666409
                },
                {
                    "name": "C#5",
                    "midi": 73,
                    "time": 76.62521733333321,
                    "velocity": 0.2992125984251969,
                    "duration": 0.13831266666666409
                },
                {
                    "name": "E4",
                    "midi": 64,
                    "time": 76.76352999999988,
                    "velocity": 0.30708661417322836,
                    "duration": 0.10373450000000162
                },
                {
                    "name": "B4",
                    "midi": 71,
                    "time": 77.17846799999988,
                    "velocity": 0.4330708661417323,
                    "duration": 0.31120350000000485
                },
                {
                    "name": "G#4",
                    "midi": 68,
                    "time": 77.48967149999989,
                    "velocity": 0.3543307086614173,
                    "duration": 0.10373450000000162
                },
                {
                    "name": "B4",
                    "midi": 71,
                    "time": 77.59340599999989,
                    "velocity": 0.41732283464566927,
                    "duration": 0.31120350000000485
                },
                {
                    "name": "G#4",
                    "midi": 68,
                    "time": 77.90460949999989,
                    "velocity": 0.36220472440944884,
                    "duration": 0.10373450000000162
                },
                {
                    "name": "B4",
                    "midi": 71,
                    "time": 78.0083439999999,
                    "velocity": 0.6141732283464567,
                    "duration": 0.13831266666666409
                },
                {
                    "name": "D4",
                    "midi": 62,
                    "time": 78.14665666666656,
                    "velocity": 0.4881889763779528,
                    "duration": 0.13831266666666409
                },
                {
                    "name": "B4",
                    "midi": 71,
                    "time": 78.28496933333322,
                    "velocity": 0.4881889763779528,
                    "duration": 0.13831266666666409
                },
                {
                    "name": "G3",
                    "midi": 55,
                    "time": 78.42328199999989,
                    "velocity": 0.6141732283464567,
                    "duration": 0.7261414999999971
                },
                {
                    "name": "B4",
                    "midi": 71,
                    "time": 79.14942349999988,
                    "velocity": 0.4645669291338583,
                    "duration": 0.10373450000000162
                },
                {
                    "name": "D4",
                    "midi": 62,
                    "time": 79.14942349999988,
                    "velocity": 0.4645669291338583,
                    "duration": 0.10373450000000162
                },
                {
                    "name": "G3",
                    "midi": 55,
                    "time": 79.25315799999989,
                    "velocity": 0.6141732283464567,
                    "duration": 0.31120350000000485
                },
                {
                    "name": "D4",
                    "midi": 62,
                    "time": 79.56436149999989,
                    "velocity": 0.4881889763779528,
                    "duration": 0.10373450000000162
                },
                {
                    "name": "B4",
                    "midi": 71,
                    "time": 79.66809599999989,
                    "velocity": 0.5905511811023622,
                    "duration": 0.13831266666666409
                },
                {
                    "name": "D4",
                    "midi": 62,
                    "time": 79.80640866666656,
                    "velocity": 0.4409448818897638,
                    "duration": 0.13831266666666409
                },
                {
                    "name": "B4",
                    "midi": 71,
                    "time": 79.94472133333322,
                    "velocity": 0.4409448818897638,
                    "duration": 0.13831266666666409
                },
                {
                    "name": "G3",
                    "midi": 55,
                    "time": 80.08303399999988,
                    "velocity": 0.5826771653543307,
                    "duration": 0.7261414999999971
                },
                {
                    "name": "B4",
                    "midi": 71,
                    "time": 80.80917549999988,
                    "velocity": 0.4645669291338583,
                    "duration": 0.10373450000000162
                },
                {
                    "name": "D4",
                    "midi": 62,
                    "time": 80.80917549999988,
                    "velocity": 0.4645669291338583,
                    "duration": 0.10373450000000162
                },
                {
                    "name": "G3",
                    "midi": 55,
                    "time": 80.91290999999988,
                    "velocity": 0.5826771653543307,
                    "duration": 0.7261414999999971
                },
                {
                    "name": "D4",
                    "midi": 62,
                    "time": 81.63905149999988,
                    "velocity": 0.4094488188976378,
                    "duration": 0.10373450000000162
                },
                {
                    "name": "B4",
                    "midi": 71,
                    "time": 81.63905149999988,
                    "velocity": 0.4881889763779528,
                    "duration": 0.10373450000000162
                },
                {
                    "name": "G3",
                    "midi": 55,
                    "time": 81.74278599999988,
                    "velocity": 0.5826771653543307,
                    "duration": 0.7261414999999971
                },
                {
                    "name": "D4",
                    "midi": 62,
                    "time": 82.46892749999988,
                    "velocity": 0.4094488188976378,
                    "duration": 0.10373450000000162
                },
                {
                    "name": "B4",
                    "midi": 71,
                    "time": 82.46892749999988,
                    "velocity": 0.4881889763779528,
                    "duration": 0.10373450000000162
                },
                {
                    "name": "G3",
                    "midi": 55,
                    "time": 82.57266199999988,
                    "velocity": 0.5826771653543307,
                    "duration": 0.31120350000000485
                },
                {
                    "name": "B4",
                    "midi": 71,
                    "time": 82.88386549999989,
                    "velocity": 0.4881889763779528,
                    "duration": 0.10373450000000162
                },
                {
                    "name": "D4",
                    "midi": 62,
                    "time": 82.88386549999989,
                    "velocity": 0.4094488188976378,
                    "duration": 0.10373450000000162
                },
                {
                    "name": "C5",
                    "midi": 72,
                    "time": 82.98759999999989,
                    "velocity": 0.6220472440944882,
                    "duration": 0.13831266666666409
                },
                {
                    "name": "E4",
                    "midi": 64,
                    "time": 83.12591266666655,
                    "velocity": 0.4881889763779528,
                    "duration": 0.13831266666666409
                },
                {
                    "name": "C5",
                    "midi": 72,
                    "time": 83.26422533333321,
                    "velocity": 0.4881889763779528,
                    "duration": 0.13831266666666409
                },
                {
                    "name": "E5",
                    "midi": 76,
                    "time": 83.40253799999988,
                    "velocity": 0.6377952755905512,
                    "duration": 0.7261414999999971
                },
                {
                    "name": "E4",
                    "midi": 64,
                    "time": 84.12867949999988,
                    "velocity": 0.4645669291338583,
                    "duration": 0.10373450000000162
                },
                {
                    "name": "C5",
                    "midi": 72,
                    "time": 84.23241399999988,
                    "velocity": 0.4881889763779528,
                    "duration": 0.31120350000000485
                },
                {
                    "name": "E5",
                    "midi": 76,
                    "time": 84.23241399999988,
                    "velocity": 0.5826771653543307,
                    "duration": 0.31120350000000485
                },
                {
                    "name": "E4",
                    "midi": 64,
                    "time": 84.54361749999988,
                    "velocity": 0.4881889763779528,
                    "duration": 0.10373450000000162
                },
                {
                    "name": "C5",
                    "midi": 72,
                    "time": 84.64735199999988,
                    "velocity": 0.5590551181102362,
                    "duration": 0.13831266666666409
                },
                {
                    "name": "E4",
                    "midi": 64,
                    "time": 84.78566466666655,
                    "velocity": 0.4409448818897638,
                    "duration": 0.13831266666666409
                },
                {
                    "name": "C5",
                    "midi": 72,
                    "time": 84.92397733333321,
                    "velocity": 0.4409448818897638,
                    "duration": 0.13831266666666409
                },
                {
                    "name": "E5",
                    "midi": 76,
                    "time": 85.06228999999988,
                    "velocity": 0.5826771653543307,
                    "duration": 0.7261414999999971
                },
                {
                    "name": "E4",
                    "midi": 64,
                    "time": 85.78843149999987,
                    "velocity": 0.4645669291338583,
                    "duration": 0.10373450000000162
                },
                {
                    "name": "C5",
                    "midi": 72,
                    "time": 85.89216599999988,
                    "velocity": 0.5826771653543307,
                    "duration": 0.7261414999999971
                },
                {
                    "name": "E5",
                    "midi": 76,
                    "time": 85.89216599999988,
                    "velocity": 0.5826771653543307,
                    "duration": 0.7261414999999971
                },
                {
                    "name": "E4",
                    "midi": 64,
                    "time": 86.61830749999987,
                    "velocity": 0.4881889763779528,
                    "duration": 0.10373450000000162
                },
                {
                    "name": "C5",
                    "midi": 72,
                    "time": 86.72204199999987,
                    "velocity": 0.5826771653543307,
                    "duration": 0.7261414999999971
                },
                {
                    "name": "E5",
                    "midi": 76,
                    "time": 86.72204199999987,
                    "velocity": 0.6299212598425197,
                    "duration": 0.7261414999999971
                },
                {
                    "name": "E4",
                    "midi": 64,
                    "time": 87.44818349999987,
                    "velocity": 0.41732283464566927,
                    "duration": 0.10373450000000162
                },
                {
                    "name": "G#4",
                    "midi": 68,
                    "time": 87.55191799999987,
                    "velocity": 0.44881889763779526,
                    "duration": 0.7261414999999971
                },
                {
                    "name": "D5",
                    "midi": 74,
                    "time": 87.55191799999987,
                    "velocity": 0.44881889763779526,
                    "duration": 0.7261414999999971
                },
                {
                    "name": "E5",
                    "midi": 76,
                    "time": 87.55191799999987,
                    "velocity": 0.49606299212598426,
                    "duration": 0.7261414999999971
                },
                {
                    "name": "E4",
                    "midi": 64,
                    "time": 88.27805949999987,
                    "velocity": 0.33070866141732286,
                    "duration": 0.10373450000000162
                },
                {
                    "name": "G#4",
                    "midi": 68,
                    "time": 88.38179399999987,
                    "velocity": 0.3464566929133858,
                    "duration": 0.31120350000000485
                },
                {
                    "name": "D5",
                    "midi": 74,
                    "time": 88.38179399999987,
                    "velocity": 0.3464566929133858,
                    "duration": 0.31120350000000485
                },
                {
                    "name": "E5",
                    "midi": 76,
                    "time": 88.38179399999987,
                    "velocity": 0.41732283464566927,
                    "duration": 0.31120350000000485
                },
                {
                    "name": "E4",
                    "midi": 64,
                    "time": 88.69299749999988,
                    "velocity": 0.33070866141732286,
                    "duration": 0.10373450000000162
                },
                {
                    "name": "G#4",
                    "midi": 68,
                    "time": 88.79673199999988,
                    "velocity": 0.3228346456692913,
                    "duration": 0.31120350000000485
                },
                {
                    "name": "D5",
                    "midi": 74,
                    "time": 88.79673199999988,
                    "velocity": 0.3228346456692913,
                    "duration": 0.31120350000000485
                },
                {
                    "name": "E5",
                    "midi": 76,
                    "time": 88.79673199999988,
                    "velocity": 0.3779527559055118,
                    "duration": 0.31120350000000485
                },
                {
                    "name": "E4",
                    "midi": 64,
                    "time": 89.10793549999988,
                    "velocity": 0.30708661417322836,
                    "duration": 0.10373450000000162
                },
                {
                    "name": "G#4",
                    "midi": 68,
                    "time": 89.21166999999988,
                    "velocity": 0.29133858267716534,
                    "duration": 0.31120350000000485
                },
                {
                    "name": "D5",
                    "midi": 74,
                    "time": 89.21166999999988,
                    "velocity": 0.29133858267716534,
                    "duration": 0.31120350000000485
                },
                {
                    "name": "E5",
                    "midi": 76,
                    "time": 89.21166999999988,
                    "velocity": 0.3464566929133858,
                    "duration": 0.31120350000000485
                },
                {
                    "name": "E4",
                    "midi": 64,
                    "time": 89.52287349999989,
                    "velocity": 0.2755905511811024,
                    "duration": 0.10373450000000162
                },
                {
                    "name": "A4",
                    "midi": 69,
                    "time": 89.62660799999989,
                    "velocity": 0.33070866141732286,
                    "duration": 0.10373450000000162
                },
                {
                    "name": "C#5",
                    "midi": 73,
                    "time": 89.62660799999989,
                    "velocity": 0.33070866141732286,
                    "duration": 0.10373450000000162
                },
                {
                    "name": "E5",
                    "midi": 76,
                    "time": 89.62660799999989,
                    "velocity": 0.3937007874015748,
                    "duration": 0.10373450000000162
                },
                {
                    "name": "E4",
                    "midi": 64,
                    "time": 89.76492066666655,
                    "velocity": 0.30708661417322836,
                    "duration": 0.13831266666666409
                },
                {
                    "name": "A4",
                    "midi": 69,
                    "time": 89.90323333333322,
                    "velocity": 0.3228346456692913,
                    "duration": 0.13831266666666409
                },
                {
                    "name": "C#5",
                    "midi": 73,
                    "time": 90.04154599999988,
                    "velocity": 0.33070866141732286,
                    "duration": 0.13831266666666409
                },
                {
                    "name": "E5",
                    "midi": 76,
                    "time": 90.17985866666655,
                    "velocity": 0.3464566929133858,
                    "duration": 0.13831266666666409
                },
                {
                    "name": "A5",
                    "midi": 81,
                    "time": 90.31817133333321,
                    "velocity": 0.3543307086614173,
                    "duration": 0.13831266666666409
                },
                {
                    "name": "E5",
                    "midi": 76,
                    "time": 90.45648399999988,
                    "velocity": 0.3700787401574803,
                    "duration": 0.13831266666666409
                },
                {
                    "name": "A4",
                    "midi": 69,
                    "time": 90.59479666666654,
                    "velocity": 0.3543307086614173,
                    "duration": 0.13831266666666409
                },
                {
                    "name": "C#5",
                    "midi": 73,
                    "time": 90.7331093333332,
                    "velocity": 0.3858267716535433,
                    "duration": 0.13831266666666409
                },
                {
                    "name": "E5",
                    "midi": 76,
                    "time": 90.87142199999987,
                    "velocity": 0.4094488188976378,
                    "duration": 0.13831266666666409
                },
                {
                    "name": "A5",
                    "midi": 81,
                    "time": 91.00973466666653,
                    "velocity": 0.4094488188976378,
                    "duration": 0.13831266666666409
                },
                {
                    "name": "C#6",
                    "midi": 85,
                    "time": 91.1480473333332,
                    "velocity": 0.3700787401574803,
                    "duration": 0.13831266666666409
                },
                {
                    "name": "E5",
                    "midi": 76,
                    "time": 91.28635999999986,
                    "velocity": 0.4094488188976378,
                    "duration": 0.13831266666666409
                },
                {
                    "name": "F#5",
                    "midi": 78,
                    "time": 91.42467266666652,
                    "velocity": 0.3543307086614173,
                    "duration": 0.13831266666666409
                },
                {
                    "name": "E5",
                    "midi": 76,
                    "time": 91.56298533333319,
                    "velocity": 0.3543307086614173,
                    "duration": 0.13831266666666409
                },
                {
                    "name": "D5",
                    "midi": 74,
                    "time": 91.70129799999985,
                    "velocity": 0.4094488188976378,
                    "duration": 0.13831266666666409
                },
                {
                    "name": "F#5",
                    "midi": 78,
                    "time": 91.83961066666652,
                    "velocity": 0.3700787401574803,
                    "duration": 0.13831266666666409
                },
                {
                    "name": "D5",
                    "midi": 74,
                    "time": 91.97792333333318,
                    "velocity": 0.3700787401574803,
                    "duration": 0.13831266666666409
                },
                {
                    "name": "C#5",
                    "midi": 73,
                    "time": 92.11623599999984,
                    "velocity": 0.41732283464566927,
                    "duration": 0.13831266666666409
                },
                {
                    "name": "E5",
                    "midi": 76,
                    "time": 92.25454866666651,
                    "velocity": 0.3700787401574803,
                    "duration": 0.13831266666666409
                },
                {
                    "name": "C#5",
                    "midi": 73,
                    "time": 92.39286133333317,
                    "velocity": 0.3700787401574803,
                    "duration": 0.13831266666666409
                },
                {
                    "name": "B4",
                    "midi": 71,
                    "time": 92.53117399999984,
                    "velocity": 0.4094488188976378,
                    "duration": 0.13831266666666409
                },
                {
                    "name": "D5",
                    "midi": 74,
                    "time": 92.6694866666665,
                    "velocity": 0.3700787401574803,
                    "duration": 0.13831266666666409
                },
                {
                    "name": "B4",
                    "midi": 71,
                    "time": 92.80779933333316,
                    "velocity": 0.3700787401574803,
                    "duration": 0.13831266666666409
                },
                {
                    "name": "A4",
                    "midi": 69,
                    "time": 92.94611199999983,
                    "velocity": 0.3937007874015748,
                    "duration": 0.13831266666666409
                },
                {
                    "name": "E4",
                    "midi": 64,
                    "time": 93.0844246666665,
                    "velocity": 0.30708661417322836,
                    "duration": 0.13831266666666409
                },
                {
                    "name": "A4",
                    "midi": 69,
                    "time": 93.22273733333316,
                    "velocity": 0.3228346456692913,
                    "duration": 0.13831266666666409
                },
                {
                    "name": "C#5",
                    "midi": 73,
                    "time": 93.36104999999982,
                    "velocity": 0.33070866141732286,
                    "duration": 0.13831266666666409
                },
                {
                    "name": "E5",
                    "midi": 76,
                    "time": 93.49936266666649,
                    "velocity": 0.3464566929133858,
                    "duration": 0.13831266666666409
                },
                {
                    "name": "A5",
                    "midi": 81,
                    "time": 93.63767533333315,
                    "velocity": 0.3543307086614173,
                    "duration": 0.13831266666666409
                },
                {
                    "name": "E5",
                    "midi": 76,
                    "time": 93.77598799999981,
                    "velocity": 0.3700787401574803,
                    "duration": 0.13831266666666409
                },
                {
                    "name": "A4",
                    "midi": 69,
                    "time": 93.91430066666648,
                    "velocity": 0.3543307086614173,
                    "duration": 0.13831266666666409
                },
                {
                    "name": "C#5",
                    "midi": 73,
                    "time": 94.05261333333314,
                    "velocity": 0.3858267716535433,
                    "duration": 0.13831266666666409
                },
                {
                    "name": "E5",
                    "midi": 76,
                    "time": 94.1909259999998,
                    "velocity": 0.4094488188976378,
                    "duration": 0.13831266666666409
                },
                {
                    "name": "A5",
                    "midi": 81,
                    "time": 94.32923866666647,
                    "velocity": 0.4094488188976378,
                    "duration": 0.13831266666666409
                },
                {
                    "name": "C#6",
                    "midi": 85,
                    "time": 94.46755133333313,
                    "velocity": 0.3700787401574803,
                    "duration": 0.13831266666666409
                },
                {
                    "name": "E5",
                    "midi": 76,
                    "time": 94.6058639999998,
                    "velocity": 0.4094488188976378,
                    "duration": 0.13831266666666409
                },
                {
                    "name": "F#5",
                    "midi": 78,
                    "time": 94.74417666666646,
                    "velocity": 0.3543307086614173,
                    "duration": 0.13831266666666409
                },
                {
                    "name": "E5",
                    "midi": 76,
                    "time": 94.88248933333313,
                    "velocity": 0.3543307086614173,
                    "duration": 0.13831266666666409
                },
                {
                    "name": "D5",
                    "midi": 74,
                    "time": 95.02080199999979,
                    "velocity": 0.4094488188976378,
                    "duration": 0.13831266666666409
                },
                {
                    "name": "E5",
                    "midi": 76,
                    "time": 95.15911466666645,
                    "velocity": 0.3700787401574803,
                    "duration": 0.13831266666666409
                },
                {
                    "name": "D5",
                    "midi": 74,
                    "time": 95.29742733333312,
                    "velocity": 0.3700787401574803,
                    "duration": 0.13831266666666409
                },
                {
                    "name": "C#5",
                    "midi": 73,
                    "time": 95.43573999999978,
                    "velocity": 0.41732283464566927,
                    "duration": 0.13831266666666409
                },
                {
                    "name": "D5",
                    "midi": 74,
                    "time": 95.57405266666645,
                    "velocity": 0.3700787401574803,
                    "duration": 0.13831266666666409
                },
                {
                    "name": "C#5",
                    "midi": 73,
                    "time": 95.71236533333311,
                    "velocity": 0.3700787401574803,
                    "duration": 0.13831266666666409
                },
                {
                    "name": "B4",
                    "midi": 71,
                    "time": 95.85067799999977,
                    "velocity": 0.4094488188976378,
                    "duration": 0.13831266666666409
                },
                {
                    "name": "C#5",
                    "midi": 73,
                    "time": 95.98899066666644,
                    "velocity": 0.3700787401574803,
                    "duration": 0.13831266666666409
                },
                {
                    "name": "B4",
                    "midi": 71,
                    "time": 96.1273033333331,
                    "velocity": 0.3700787401574803,
                    "duration": 0.13831266666666409
                },
                {
                    "name": "C#4",
                    "midi": 61,
                    "time": 96.26561599999977,
                    "velocity": 0.33070866141732286,
                    "duration": 0.13831266666666409
                },
                {
                    "name": "E4",
                    "midi": 64,
                    "time": 96.40392866666643,
                    "velocity": 0.29133858267716534,
                    "duration": 0.13831266666666409
                },
                {
                    "name": "C#4",
                    "midi": 61,
                    "time": 96.5422413333331,
                    "velocity": 0.29133858267716534,
                    "duration": 0.13831266666666409
                },
                {
                    "name": "E4",
                    "midi": 64,
                    "time": 96.68055399999976,
                    "velocity": 0.33858267716535434,
                    "duration": 0.13831266666666409
                },
                {
                    "name": "A4",
                    "midi": 69,
                    "time": 96.81886666666642,
                    "velocity": 0.28346456692913385,
                    "duration": 0.13831266666666409
                },
                {
                    "name": "E4",
                    "midi": 64,
                    "time": 96.95717933333309,
                    "velocity": 0.29133858267716534,
                    "duration": 0.12102358333333996
                },
                {
                    "name": "E4",
                    "midi": 64,
                    "time": 97.09549199999977,
                    "velocity": 0.33858267716535434,
                    "duration": 0.13831266666666409
                },
                {
                    "name": "G#4",
                    "midi": 68,
                    "time": 97.23380466666643,
                    "velocity": 0.29133858267716534,
                    "duration": 0.13831266666666409
                },
                {
                    "name": "E4",
                    "midi": 64,
                    "time": 97.3721173333331,
                    "velocity": 0.2992125984251969,
                    "duration": 0.13831266666666409
                },
                {
                    "name": "G#4",
                    "midi": 68,
                    "time": 97.51042999999976,
                    "velocity": 0.33858267716535434,
                    "duration": 0.13831266666666409
                },
                {
                    "name": "B4",
                    "midi": 71,
                    "time": 97.64874266666642,
                    "velocity": 0.30708661417322836,
                    "duration": 0.13831266666666409
                },
                {
                    "name": "G#4",
                    "midi": 68,
                    "time": 97.78705533333309,
                    "velocity": 0.30708661417322836,
                    "duration": 0.13831266666666409
                },
                {
                    "name": "E4",
                    "midi": 64,
                    "time": 97.92536799999975,
                    "velocity": 0.33858267716535434,
                    "duration": 0.13831266666666409
                },
                {
                    "name": "A4",
                    "midi": 69,
                    "time": 98.06368066666641,
                    "velocity": 0.2992125984251969,
                    "duration": 0.13831266666666409
                },
                {
                    "name": "E4",
                    "midi": 64,
                    "time": 98.20199333333308,
                    "velocity": 0.2992125984251969,
                    "duration": 0.13831266666666409
                },
                {
                    "name": "A4",
                    "midi": 69,
                    "time": 98.34030599999974,
                    "velocity": 0.33858267716535434,
                    "duration": 0.13831266666666409
                },
                {
                    "name": "C#5",
                    "midi": 73,
                    "time": 98.4786186666664,
                    "velocity": 0.2992125984251969,
                    "duration": 0.13831266666666409
                },
                {
                    "name": "A4",
                    "midi": 69,
                    "time": 98.61693133333307,
                    "velocity": 0.2992125984251969,
                    "duration": 0.12102358333333996
                },
                {
                    "name": "A4",
                    "midi": 69,
                    "time": 98.75524399999975,
                    "velocity": 0.33858267716535434,
                    "duration": 0.13831266666666409
                },
                {
                    "name": "C5",
                    "midi": 72,
                    "time": 98.89355666666641,
                    "velocity": 0.29133858267716534,
                    "duration": 0.13831266666666409
                },
                {
                    "name": "A4",
                    "midi": 69,
                    "time": 99.03186933333308,
                    "velocity": 0.29133858267716534,
                    "duration": 0.13831266666666409
                },
                {
                    "name": "C5",
                    "midi": 72,
                    "time": 99.17018199999974,
                    "velocity": 0.33858267716535434,
                    "duration": 0.13831266666666409
                },
                {
                    "name": "D#5",
                    "midi": 75,
                    "time": 99.3084946666664,
                    "velocity": 0.29133858267716534,
                    "duration": 0.13831266666666409
                },
                {
                    "name": "C5",
                    "midi": 72,
                    "time": 99.44680733333307,
                    "velocity": 0.29133858267716534,
                    "duration": 0.13831266666666409
                },
                {
                    "name": "A4",
                    "midi": 69,
                    "time": 99.58511999999973,
                    "velocity": 0.33070866141732286,
                    "duration": 0.13831266666666409
                },
                {
                    "name": "C#5",
                    "midi": 73,
                    "time": 99.7234326666664,
                    "velocity": 0.29133858267716534,
                    "duration": 0.13831266666666409
                },
                {
                    "name": "A4",
                    "midi": 69,
                    "time": 99.86174533333306,
                    "velocity": 0.29133858267716534,
                    "duration": 0.13831266666666409
                },
                {
                    "name": "C#5",
                    "midi": 73,
                    "time": 100.00005799999973,
                    "velocity": 0.33858267716535434,
                    "duration": 0.13831266666666409
                },
                {
                    "name": "E5",
                    "midi": 76,
                    "time": 100.13837066666639,
                    "velocity": 0.28346456692913385,
                    "duration": 0.13831266666666409
                },
                {
                    "name": "C#5",
                    "midi": 73,
                    "time": 100.27668333333305,
                    "velocity": 0.29133858267716534,
                    "duration": 0.12102358333333996
                },
                {
                    "name": "E4",
                    "midi": 64,
                    "time": 100.41499599999973,
                    "velocity": 0.33858267716535434,
                    "duration": 0.13831266666666409
                },
                {
                    "name": "B4",
                    "midi": 71,
                    "time": 100.5533086666664,
                    "velocity": 0.29133858267716534,
                    "duration": 0.13831266666666409
                },
                {
                    "name": "E4",
                    "midi": 64,
                    "time": 100.69162133333306,
                    "velocity": 0.2992125984251969,
                    "duration": 0.13831266666666409
                },
                {
                    "name": "B4",
                    "midi": 71,
                    "time": 100.82993399999972,
                    "velocity": 0.33858267716535434,
                    "duration": 0.13831266666666409
                },
                {
                    "name": "D5",
                    "midi": 74,
                    "time": 100.96824666666639,
                    "velocity": 0.30708661417322836,
                    "duration": 0.13831266666666409
                },
                {
                    "name": "B4",
                    "midi": 71,
                    "time": 101.10655933333305,
                    "velocity": 0.30708661417322836,
                    "duration": 0.13831266666666409
                },
                {
                    "name": "E4",
                    "midi": 64,
                    "time": 101.24487199999972,
                    "velocity": 0.33858267716535434,
                    "duration": 0.13831266666666409
                },
                {
                    "name": "A4",
                    "midi": 69,
                    "time": 101.38318466666638,
                    "velocity": 0.2992125984251969,
                    "duration": 0.13831266666666409
                },
                {
                    "name": "E4",
                    "midi": 64,
                    "time": 101.52149733333304,
                    "velocity": 0.2992125984251969,
                    "duration": 0.13831266666666409
                },
                {
                    "name": "A4",
                    "midi": 69,
                    "time": 101.65980999999971,
                    "velocity": 0.33858267716535434,
                    "duration": 0.13831266666666409
                },
                {
                    "name": "C#5",
                    "midi": 73,
                    "time": 101.79812266666637,
                    "velocity": 0.2992125984251969,
                    "duration": 0.13831266666666409
                },
                {
                    "name": "A4",
                    "midi": 69,
                    "time": 101.93643533333304,
                    "velocity": 0.2992125984251969,
                    "duration": 0.12102358333333996
                },
                {
                    "name": "E4",
                    "midi": 64,
                    "time": 102.07474799999972,
                    "velocity": 0.33858267716535434,
                    "duration": 0.13831266666666409
                },
                {
                    "name": "G#4",
                    "midi": 68,
                    "time": 102.21306066666638,
                    "velocity": 0.29133858267716534,
                    "duration": 0.13831266666666409
                },
                {
                    "name": "E4",
                    "midi": 64,
                    "time": 102.35137333333304,
                    "velocity": 0.29133858267716534,
                    "duration": 0.13831266666666409
                },
                {
                    "name": "G#4",
                    "midi": 68,
                    "time": 102.48968599999971,
                    "velocity": 0.33858267716535434,
                    "duration": 0.13831266666666409
                },
                {
                    "name": "B4",
                    "midi": 71,
                    "time": 102.62799866666637,
                    "velocity": 0.29133858267716534,
                    "duration": 0.13831266666666409
                },
                {
                    "name": "G#4",
                    "midi": 68,
                    "time": 102.76631133333304,
                    "velocity": 0.29133858267716534,
                    "duration": 0.13831266666666409
                },
                {
                    "name": "C#5",
                    "midi": 73,
                    "time": 102.9046239999997,
                    "velocity": 0.3464566929133858,
                    "duration": 0.13831266666666409
                },
                {
                    "name": "E5",
                    "midi": 76,
                    "time": 103.04293666666636,
                    "velocity": 0.30708661417322836,
                    "duration": 0.13831266666666409
                },
                {
                    "name": "C#5",
                    "midi": 73,
                    "time": 103.18124933333303,
                    "velocity": 0.30708661417322836,
                    "duration": 0.13831266666666409
                },
                {
                    "name": "E5",
                    "midi": 76,
                    "time": 103.31956199999969,
                    "velocity": 0.36220472440944884,
                    "duration": 0.13831266666666409
                },
                {
                    "name": "A5",
                    "midi": 81,
                    "time": 103.45787466666636,
                    "velocity": 0.30708661417322836,
                    "duration": 0.13831266666666409
                },
                {
                    "name": "E5",
                    "midi": 76,
                    "time": 103.59618733333302,
                    "velocity": 0.31496062992125984,
                    "duration": 0.12102358333333996
                },
                {
                    "name": "E5",
                    "midi": 76,
                    "time": 103.7344999999997,
                    "velocity": 0.3700787401574803,
                    "duration": 0.13831266666666409
                },
                {
                    "name": "G#5",
                    "midi": 80,
                    "time": 103.87281266666636,
                    "velocity": 0.3228346456692913,
                    "duration": 0.13831266666666409
                },
                {
                    "name": "E5",
                    "midi": 76,
                    "time": 104.01112533333303,
                    "velocity": 0.33070866141732286,
                    "duration": 0.13831266666666409
                },
                {
                    "name": "G#5",
                    "midi": 80,
                    "time": 104.14943799999969,
                    "velocity": 0.3858267716535433,
                    "duration": 0.13831266666666409
                },
                {
                    "name": "B5",
                    "midi": 83,
                    "time": 104.28775066666635,
                    "velocity": 0.3464566929133858,
                    "duration": 0.13831266666666409
                },
                {
                    "name": "G#5",
                    "midi": 80,
                    "time": 104.42606333333302,
                    "velocity": 0.3543307086614173,
                    "duration": 0.13831266666666409
                },
                {
                    "name": "E5",
                    "midi": 76,
                    "time": 104.56437599999968,
                    "velocity": 0.3937007874015748,
                    "duration": 0.13831266666666409
                },
                {
                    "name": "A5",
                    "midi": 81,
                    "time": 104.70268866666635,
                    "velocity": 0.3464566929133858,
                    "duration": 0.13831266666666409
                },
                {
                    "name": "E5",
                    "midi": 76,
                    "time": 104.84100133333301,
                    "velocity": 0.3543307086614173,
                    "duration": 0.13831266666666409
                },
                {
                    "name": "A5",
                    "midi": 81,
                    "time": 104.97931399999968,
                    "velocity": 0.4015748031496063,
                    "duration": 0.13831266666666409
                },
                {
                    "name": "C#6",
                    "midi": 85,
                    "time": 105.11762666666634,
                    "velocity": 0.3543307086614173,
                    "duration": 0.13831266666666409
                },
                {
                    "name": "A5",
                    "midi": 81,
                    "time": 105.255939333333,
                    "velocity": 0.36220472440944884,
                    "duration": 0.12102358333333996
                },
                {
                    "name": "A5",
                    "midi": 81,
                    "time": 105.39425199999968,
                    "velocity": 0.4094488188976378,
                    "duration": 0.13831266666666409
                },
                {
                    "name": "C6",
                    "midi": 84,
                    "time": 105.53256466666635,
                    "velocity": 0.3543307086614173,
                    "duration": 0.13831266666666409
                },
                {
                    "name": "A5",
                    "midi": 81,
                    "time": 105.67087733333301,
                    "velocity": 0.36220472440944884,
                    "duration": 0.13831266666666409
                },
                {
                    "name": "C6",
                    "midi": 84,
                    "time": 105.80918999999967,
                    "velocity": 0.4251968503937008,
                    "duration": 0.13831266666666409
                },
                {
                    "name": "D#6",
                    "midi": 87,
                    "time": 105.94750266666634,
                    "velocity": 0.36220472440944884,
                    "duration": 0.13831266666666409
                },
                {
                    "name": "C6",
                    "midi": 84,
                    "time": 106.085815333333,
                    "velocity": 0.3700787401574803,
                    "duration": 0.13831266666666409
                },
                {
                    "name": "A5",
                    "midi": 81,
                    "time": 106.22412799999967,
                    "velocity": 0.4330708661417323,
                    "duration": 0.13831266666666409
                },
                {
                    "name": "C6",
                    "midi": 84,
                    "time": 106.36244066666633,
                    "velocity": 0.3858267716535433,
                    "duration": 0.13831266666666409
                },
                {
                    "name": "A5",
                    "midi": 81,
                    "time": 106.500753333333,
                    "velocity": 0.3858267716535433,
                    "duration": 0.13831266666666409
                },
                {
                    "name": "C6",
                    "midi": 84,
                    "time": 106.63906599999966,
                    "velocity": 0.4330708661417323,
                    "duration": 0.13831266666666409
                },
                {
                    "name": "D#6",
                    "midi": 87,
                    "time": 106.77737866666632,
                    "velocity": 0.3858267716535433,
                    "duration": 0.13831266666666409
                },
                {
                    "name": "C6",
                    "midi": 84,
                    "time": 106.91569133333299,
                    "velocity": 0.3858267716535433,
                    "duration": 0.12102358333333996
                },
                {
                    "name": "A5",
                    "midi": 81,
                    "time": 107.05400399999967,
                    "velocity": 0.33858267716535434,
                    "duration": 0.13831266666666409
                },
                {
                    "name": "C6",
                    "midi": 84,
                    "time": 107.19231666666633,
                    "velocity": 0.29133858267716534,
                    "duration": 0.13831266666666409
                },
                {
                    "name": "A5",
                    "midi": 81,
                    "time": 107.330629333333,
                    "velocity": 0.29133858267716534,
                    "duration": 0.13831266666666409
                },
                {
                    "name": "C6",
                    "midi": 84,
                    "time": 107.46894199999966,
                    "velocity": 0.33858267716535434,
                    "duration": 0.13831266666666409
                },
                {
                    "name": "D#6",
                    "midi": 87,
                    "time": 107.60725466666632,
                    "velocity": 0.29133858267716534,
                    "duration": 0.13831266666666409
                },
                {
                    "name": "C6",
                    "midi": 84,
                    "time": 107.74556733333299,
                    "velocity": 0.29133858267716534,
                    "duration": 0.13831266666666409
                },
                {
                    "name": "A5",
                    "midi": 81,
                    "time": 107.88387999999965,
                    "velocity": 0.33858267716535434,
                    "duration": 0.13831266666666409
                },
                {
                    "name": "C6",
                    "midi": 84,
                    "time": 108.02219266666631,
                    "velocity": 0.2992125984251969,
                    "duration": 0.13831266666666409
                },
                {
                    "name": "A5",
                    "midi": 81,
                    "time": 108.16050533333298,
                    "velocity": 0.2992125984251969,
                    "duration": 0.13831266666666409
                },
                {
                    "name": "C6",
                    "midi": 84,
                    "time": 108.29881799999964,
                    "velocity": 0.33858267716535434,
                    "duration": 0.13831266666666409
                },
                {
                    "name": "D#6",
                    "midi": 87,
                    "time": 108.4371306666663,
                    "velocity": 0.2992125984251969,
                    "duration": 0.13831266666666409
                },
                {
                    "name": "C6",
                    "midi": 84,
                    "time": 108.57544333333297,
                    "velocity": 0.2992125984251969,
                    "duration": 0.12102358333333996
                },
                {
                    "name": "A5",
                    "midi": 81,
                    "time": 108.71375599999965,
                    "velocity": 0.33858267716535434,
                    "duration": 0.13831266666666409
                },
                {
                    "name": "C6",
                    "midi": 84,
                    "time": 108.85206866666631,
                    "velocity": 0.29133858267716534,
                    "duration": 0.13831266666666409
                },
                {
                    "name": "A5",
                    "midi": 81,
                    "time": 108.99038133333298,
                    "velocity": 0.29133858267716534,
                    "duration": 0.13831266666666409
                },
                {
                    "name": "C6",
                    "midi": 84,
                    "time": 109.12869399999964,
                    "velocity": 0.33858267716535434,
                    "duration": 0.13831266666666409
                },
                {
                    "name": "F6",
                    "midi": 89,
                    "time": 109.2670066666663,
                    "velocity": 0.29133858267716534,
                    "duration": 0.13831266666666409
                },
                {
                    "name": "C6",
                    "midi": 84,
                    "time": 109.40531933333297,
                    "velocity": 0.29133858267716534,
                    "duration": 0.13831266666666409
                },
                {
                    "name": "A5",
                    "midi": 81,
                    "time": 109.54363199999963,
                    "velocity": 0.33858267716535434,
                    "duration": 0.13831266666666409
                },
                {
                    "name": "C6",
                    "midi": 84,
                    "time": 109.6819446666663,
                    "velocity": 0.2992125984251969,
                    "duration": 0.13831266666666409
                },
                {
                    "name": "A5",
                    "midi": 81,
                    "time": 109.82025733333296,
                    "velocity": 0.2992125984251969,
                    "duration": 0.13831266666666409
                },
                {
                    "name": "C6",
                    "midi": 84,
                    "time": 109.95856999999963,
                    "velocity": 0.33858267716535434,
                    "duration": 0.13831266666666409
                },
                {
                    "name": "F6",
                    "midi": 89,
                    "time": 110.09688266666629,
                    "velocity": 0.2992125984251969,
                    "duration": 0.13831266666666409
                },
                {
                    "name": "C6",
                    "midi": 84,
                    "time": 110.23519533333295,
                    "velocity": 0.2992125984251969,
                    "duration": 0.12102358333333996
                },
                {
                    "name": "A5",
                    "midi": 81,
                    "time": 110.37350799999963,
                    "velocity": 0.33858267716535434,
                    "duration": 0.13831266666666409
                },
                {
                    "name": "C6",
                    "midi": 84,
                    "time": 110.5118206666663,
                    "velocity": 0.29133858267716534,
                    "duration": 0.13831266666666409
                },
                {
                    "name": "A5",
                    "midi": 81,
                    "time": 110.65013333333296,
                    "velocity": 0.28346456692913385,
                    "duration": 0.13831266666666409
                },
                {
                    "name": "C6",
                    "midi": 84,
                    "time": 110.78844599999962,
                    "velocity": 0.33070866141732286,
                    "duration": 0.13831266666666409
                },
                {
                    "name": "F6",
                    "midi": 89,
                    "time": 110.92675866666629,
                    "velocity": 0.28346456692913385,
                    "duration": 0.13831266666666409
                },
                {
                    "name": "C6",
                    "midi": 84,
                    "time": 111.06507133333295,
                    "velocity": 0.28346456692913385,
                    "duration": 0.13831266666666409
                },
                {
                    "name": "A#5",
                    "midi": 82,
                    "time": 111.20338399999962,
                    "velocity": 0.3228346456692913,
                    "duration": 0.13831266666666409
                },
                {
                    "name": "D6",
                    "midi": 86,
                    "time": 111.34169666666628,
                    "velocity": 0.28346456692913385,
                    "duration": 0.13831266666666409
                },
                {
                    "name": "A#5",
                    "midi": 82,
                    "time": 111.48000933333294,
                    "velocity": 0.28346456692913385,
                    "duration": 0.13831266666666409
                },
                {
                    "name": "D6",
                    "midi": 86,
                    "time": 111.61832199999961,
                    "velocity": 0.31496062992125984,
                    "duration": 0.13831266666666409
                },
                {
                    "name": "F6",
                    "midi": 89,
                    "time": 111.75663466666627,
                    "velocity": 0.28346456692913385,
                    "duration": 0.13831266666666409
                },
                {
                    "name": "D6",
                    "midi": 86,
                    "time": 111.89494733333294,
                    "velocity": 0.2755905511811024,
                    "duration": 0.12102358333333996
                },
                {
                    "name": "G#5",
                    "midi": 80,
                    "time": 112.03325999999961,
                    "velocity": 0.30708661417322836,
                    "duration": 0.13831266666666409
                },
                {
                    "name": "B5",
                    "midi": 83,
                    "time": 112.17157266666628,
                    "velocity": 0.2677165354330709,
                    "duration": 0.13831266666666409
                },
                {
                    "name": "G#5",
                    "midi": 80,
                    "time": 112.30988533333294,
                    "velocity": 0.2677165354330709,
                    "duration": 0.13831266666666409
                },
                {
                    "name": "B5",
                    "midi": 83,
                    "time": 112.4481979999996,
                    "velocity": 0.30708661417322836,
                    "duration": 0.13831266666666409
                },
                {
                    "name": "E6",
                    "midi": 88,
                    "time": 112.58651066666627,
                    "velocity": 0.25984251968503935,
                    "duration": 0.13831266666666409
                },
                {
                    "name": "B5",
                    "midi": 83,
                    "time": 112.72482333333294,
                    "velocity": 0.25984251968503935,
                    "duration": 0.13831266666666409
                },
                {
                    "name": "A5",
                    "midi": 81,
                    "time": 112.8631359999996,
                    "velocity": 0.2992125984251969,
                    "duration": 0.13831266666666409
                },
                {
                    "name": "C#6",
                    "midi": 85,
                    "time": 113.00144866666626,
                    "velocity": 0.25984251968503935,
                    "duration": 0.13831266666666409
                },
                {
                    "name": "A5",
                    "midi": 81,
                    "time": 113.13976133333293,
                    "velocity": 0.25984251968503935,
                    "duration": 0.13831266666666409
                },
                {
                    "name": "C#6",
                    "midi": 85,
                    "time": 113.27807399999959,
                    "velocity": 0.29133858267716534,
                    "duration": 0.13831266666666409
                },
                {
                    "name": "E6",
                    "midi": 88,
                    "time": 113.41638666666626,
                    "velocity": 0.25984251968503935,
                    "duration": 0.13831266666666409
                },
                {
                    "name": "C#6",
                    "midi": 85,
                    "time": 113.55469933333292,
                    "velocity": 0.25984251968503935,
                    "duration": 0.12102358333333996
                },
                {
                    "name": "D5",
                    "midi": 74,
                    "time": 113.6930119999996,
                    "velocity": 0.28346456692913385,
                    "duration": 0.13831266666666409
                },
                {
                    "name": "A5",
                    "midi": 81,
                    "time": 113.83132466666626,
                    "velocity": 0.2440944881889764,
                    "duration": 0.13831266666666409
                },
                {
                    "name": "D5",
                    "midi": 74,
                    "time": 113.96963733333293,
                    "velocity": 0.2440944881889764,
                    "duration": 0.12966812499999492
                },
                {
                    "name": "A5",
                    "midi": 81,
                    "time": 114.10794999999959,
                    "velocity": 0.28346456692913385,
                    "duration": 0.13831266666666409
                },
                {
                    "name": "D6",
                    "midi": 86,
                    "time": 114.24626266666625,
                    "velocity": 0.2440944881889764,
                    "duration": 0.13831266666666409
                },
                {
                    "name": "A5",
                    "midi": 81,
                    "time": 114.38457533333292,
                    "velocity": 0.23622047244094488,
                    "duration": 0.13831266666666409
                },
                {
                    "name": "E5",
                    "midi": 76,
                    "time": 114.52288799999958,
                    "velocity": 0.2755905511811024,
                    "duration": 0.13831266666666409
                },
                {
                    "name": "A5",
                    "midi": 81,
                    "time": 114.66120066666625,
                    "velocity": 0.2440944881889764,
                    "duration": 0.13831266666666409
                },
                {
                    "name": "E5",
                    "midi": 76,
                    "time": 114.79951333333291,
                    "velocity": 0.23622047244094488,
                    "duration": 0.13831266666666409
                },
                {
                    "name": "A5",
                    "midi": 81,
                    "time": 114.93782599999957,
                    "velocity": 0.2677165354330709,
                    "duration": 0.13831266666666409
                },
                {
                    "name": "C#6",
                    "midi": 85,
                    "time": 115.07613866666624,
                    "velocity": 0.23622047244094488,
                    "duration": 0.13831266666666409
                },
                {
                    "name": "A5",
                    "midi": 81,
                    "time": 115.2144513333329,
                    "velocity": 0.23622047244094488,
                    "duration": 0.12102358333333996
                },
                {
                    "name": "E5",
                    "midi": 76,
                    "time": 115.35276399999958,
                    "velocity": 0.25984251968503935,
                    "duration": 0.13831266666666409
                },
                {
                    "name": "B5",
                    "midi": 83,
                    "time": 115.49107666666625,
                    "velocity": 0.2204724409448819,
                    "duration": 0.13831266666666409
                },
                {
                    "name": "G#5",
                    "midi": 80,
                    "time": 115.62938933333291,
                    "velocity": 0.2204724409448819,
                    "duration": 0.12966812499999492
                },
                {
                    "name": "E5",
                    "midi": 76,
                    "time": 115.76770199999957,
                    "velocity": 0.25984251968503935,
                    "duration": 0.13831266666666409
                },
                {
                    "name": "D5",
                    "midi": 74,
                    "time": 115.90601466666624,
                    "velocity": 0.2204724409448819,
                    "duration": 0.13831266666666409
                },
                {
                    "name": "B4",
                    "midi": 71,
                    "time": 116.0443273333329,
                    "velocity": 0.2204724409448819,
                    "duration": 0.13831266666666409
                },
                {
                    "name": "G4",
                    "midi": 67,
                    "time": 116.18263999999957,
                    "velocity": 0.6850393700787402,
                    "duration": 0.13831266666666409
                },
                {
                    "name": "A4",
                    "midi": 69,
                    "time": 116.32095266666623,
                    "velocity": 0.4330708661417323,
                    "duration": 0.13831266666666409
                },
                {
                    "name": "G4",
                    "midi": 67,
                    "time": 116.4592653333329,
                    "velocity": 0.4330708661417323,
                    "duration": 0.13831266666666409
                },
                {
                    "name": "E4",
                    "midi": 64,
                    "time": 116.59757799999956,
                    "velocity": 0.48031496062992124,
                    "duration": 0.13831266666666409
                },
                {
                    "name": "C#4",
                    "midi": 61,
                    "time": 116.73589066666622,
                    "velocity": 0.4330708661417323,
                    "duration": 0.13831266666666409
                },
                {
                    "name": "A3",
                    "midi": 57,
                    "time": 116.87420333333289,
                    "velocity": 0.4330708661417323,
                    "duration": 0.13831266666666409
                },
                {
                    "name": "G3",
                    "midi": 55,
                    "time": 117.01251599999955,
                    "velocity": 0.5905511811023622,
                    "duration": 0.13831266666666409
                },
                {
                    "name": "A3",
                    "midi": 57,
                    "time": 117.15082866666621,
                    "velocity": 0.3779527559055118,
                    "duration": 0.13831266666666409
                },
                {
                    "name": "G3",
                    "midi": 55,
                    "time": 117.28914133333288,
                    "velocity": 0.3779527559055118,
                    "duration": 0.13831266666666409
                },
                {
                    "name": "A3",
                    "midi": 57,
                    "time": 117.42745399999954,
                    "velocity": 0.4251968503937008,
                    "duration": 0.13831266666666409
                },
                {
                    "name": "G3",
                    "midi": 55,
                    "time": 117.5657666666662,
                    "velocity": 0.3937007874015748,
                    "duration": 0.13831266666666409
                },
                {
                    "name": "A3",
                    "midi": 57,
                    "time": 117.70407933333287,
                    "velocity": 0.3937007874015748,
                    "duration": 0.13831266666666409
                },
                {
                    "name": "F4",
                    "midi": 65,
                    "time": 117.84239199999953,
                    "velocity": 0.6614173228346457,
                    "duration": 0.13831266666666409
                },
                {
                    "name": "A4",
                    "midi": 69,
                    "time": 117.9807046666662,
                    "velocity": 0.4330708661417323,
                    "duration": 0.13831266666666409
                },
                {
                    "name": "F4",
                    "midi": 65,
                    "time": 118.11901733333286,
                    "velocity": 0.4330708661417323,
                    "duration": 0.13831266666666409
                },
                {
                    "name": "C4",
                    "midi": 60,
                    "time": 118.25732999999953,
                    "velocity": 0.48031496062992124,
                    "duration": 0.13831266666666409
                },
                {
                    "name": "A3",
                    "midi": 57,
                    "time": 118.39564266666619,
                    "velocity": 0.4330708661417323,
                    "duration": 0.13831266666666409
                },
                {
                    "name": "F3",
                    "midi": 53,
                    "time": 118.53395533333286,
                    "velocity": 0.4330708661417323,
                    "duration": 0.13831266666666409
                },
                {
                    "name": "A3",
                    "midi": 57,
                    "time": 118.67226799999952,
                    "velocity": 0.6062992125984252,
                    "duration": 0.13831266666666409
                },
                {
                    "name": "F3",
                    "midi": 53,
                    "time": 118.81058066666618,
                    "velocity": 0.3779527559055118,
                    "duration": 0.13831266666666409
                },
                {
                    "name": "A3",
                    "midi": 57,
                    "time": 118.94889333333285,
                    "velocity": 0.3779527559055118,
                    "duration": 0.13831266666666409
                },
                {
                    "name": "F3",
                    "midi": 53,
                    "time": 119.08720599999951,
                    "velocity": 0.4251968503937008,
                    "duration": 0.13831266666666409
                },
                {
                    "name": "A3",
                    "midi": 57,
                    "time": 119.22551866666618,
                    "velocity": 0.3937007874015748,
                    "duration": 0.13831266666666409
                },
                {
                    "name": "F3",
                    "midi": 53,
                    "time": 119.36383133333284,
                    "velocity": 0.3937007874015748,
                    "duration": 0.13831266666666409
                },
                {
                    "name": "G4",
                    "midi": 67,
                    "time": 119.5021439999995,
                    "velocity": 0.6929133858267716,
                    "duration": 0.13831266666666409
                },
                {
                    "name": "A4",
                    "midi": 69,
                    "time": 119.64045666666617,
                    "velocity": 0.4330708661417323,
                    "duration": 0.13831266666666409
                },
                {
                    "name": "G4",
                    "midi": 67,
                    "time": 119.77876933333283,
                    "velocity": 0.4330708661417323,
                    "duration": 0.13831266666666409
                },
                {
                    "name": "E4",
                    "midi": 64,
                    "time": 119.9170819999995,
                    "velocity": 0.48031496062992124,
                    "duration": 0.13831266666666409
                },
                {
                    "name": "C#4",
                    "midi": 61,
                    "time": 120.05539466666616,
                    "velocity": 0.4330708661417323,
                    "duration": 0.13831266666666409
                },
                {
                    "name": "A3",
                    "midi": 57,
                    "time": 120.19370733333282,
                    "velocity": 0.4330708661417323,
                    "duration": 0.13831266666666409
                },
                {
                    "name": "G3",
                    "midi": 55,
                    "time": 120.33201999999949,
                    "velocity": 0.5905511811023622,
                    "duration": 0.13831266666666409
                },
                {
                    "name": "A3",
                    "midi": 57,
                    "time": 120.47033266666615,
                    "velocity": 0.3779527559055118,
                    "duration": 0.13831266666666409
                },
                {
                    "name": "G3",
                    "midi": 55,
                    "time": 120.60864533333282,
                    "velocity": 0.3779527559055118,
                    "duration": 0.13831266666666409
                },
                {
                    "name": "A3",
                    "midi": 57,
                    "time": 120.74695799999948,
                    "velocity": 0.4251968503937008,
                    "duration": 0.13831266666666409
                },
                {
                    "name": "G3",
                    "midi": 55,
                    "time": 120.88527066666614,
                    "velocity": 0.3937007874015748,
                    "duration": 0.13831266666666409
                },
                {
                    "name": "A3",
                    "midi": 57,
                    "time": 121.02358333333281,
                    "velocity": 0.3937007874015748,
                    "duration": 0.13831266666666409
                },
                {
                    "name": "F4",
                    "midi": 65,
                    "time": 121.16189599999947,
                    "velocity": 0.6850393700787402,
                    "duration": 0.13831266666666409
                },
                {
                    "name": "A4",
                    "midi": 69,
                    "time": 121.30020866666614,
                    "velocity": 0.4330708661417323,
                    "duration": 0.13831266666666409
                },
                {
                    "name": "F4",
                    "midi": 65,
                    "time": 121.4385213333328,
                    "velocity": 0.4330708661417323,
                    "duration": 0.13831266666666409
                },
                {
                    "name": "C4",
                    "midi": 60,
                    "time": 121.57683399999947,
                    "velocity": 0.48031496062992124,
                    "duration": 0.13831266666666409
                },
                {
                    "name": "A3",
                    "midi": 57,
                    "time": 121.71514666666613,
                    "velocity": 0.4330708661417323,
                    "duration": 0.13831266666666409
                },
                {
                    "name": "F3",
                    "midi": 53,
                    "time": 121.8534593333328,
                    "velocity": 0.4330708661417323,
                    "duration": 0.13831266666666409
                },
                {
                    "name": "A3",
                    "midi": 57,
                    "time": 121.99177199999946,
                    "velocity": 0.6062992125984252,
                    "duration": 0.13831266666666409
                },
                {
                    "name": "F3",
                    "midi": 53,
                    "time": 122.13008466666612,
                    "velocity": 0.3779527559055118,
                    "duration": 0.13831266666666409
                },
                {
                    "name": "A3",
                    "midi": 57,
                    "time": 122.26839733333279,
                    "velocity": 0.3779527559055118,
                    "duration": 0.13831266666666409
                },
                {
                    "name": "F3",
                    "midi": 53,
                    "time": 122.40670999999945,
                    "velocity": 0.4251968503937008,
                    "duration": 0.13831266666666409
                },
                {
                    "name": "A3",
                    "midi": 57,
                    "time": 122.54502266666611,
                    "velocity": 0.3937007874015748,
                    "duration": 0.13831266666666409
                },
                {
                    "name": "F3",
                    "midi": 53,
                    "time": 122.68333533333278,
                    "velocity": 0.3937007874015748,
                    "duration": 0.13831266666666409
                },
                {
                    "name": "C#5",
                    "midi": 73,
                    "time": 123.23658599999945,
                    "velocity": 0.3464566929133858,
                    "duration": 0.31120350000000485
                },
                {
                    "name": "E5",
                    "midi": 76,
                    "time": 123.23658599999945,
                    "velocity": 0.3464566929133858,
                    "duration": 0.31120350000000485
                },
                {
                    "name": "C#5",
                    "midi": 73,
                    "time": 123.54778949999945,
                    "velocity": 0.30708661417322836,
                    "duration": 0.10373450000000162
                },
                {
                    "name": "E5",
                    "midi": 76,
                    "time": 123.54778949999945,
                    "velocity": 0.30708661417322836,
                    "duration": 0.10373450000000162
                },
                {
                    "name": "B4",
                    "midi": 71,
                    "time": 123.65152399999945,
                    "velocity": 0.3464566929133858,
                    "duration": 0.20746900000000323
                },
                {
                    "name": "D5",
                    "midi": 74,
                    "time": 123.65152399999945,
                    "velocity": 0.3464566929133858,
                    "duration": 0.20746900000000323
                },
                {
                    "name": "D4",
                    "midi": 62,
                    "time": 123.65152399999945,
                    "velocity": 0.3464566929133858,
                    "duration": 0.13831266666666409
                },
                {
                    "name": "E4",
                    "midi": 64,
                    "time": 123.78983666666612,
                    "velocity": 0.3464566929133858,
                    "duration": 0.1383126666666783
                },
                {
                    "name": "F#4",
                    "midi": 66,
                    "time": 123.9281493333328,
                    "velocity": 0.33858267716535434,
                    "duration": 0.13831266666666409
                },
                {
                    "name": "G#4",
                    "midi": 68,
                    "time": 124.06646199999946,
                    "velocity": 0.3543307086614173,
                    "duration": 0.13831266666666409
                },
                {
                    "name": "A4",
                    "midi": 69,
                    "time": 124.20477466666613,
                    "velocity": 0.3779527559055118,
                    "duration": 0.13831266666666409
                },
                {
                    "name": "B4",
                    "midi": 71,
                    "time": 124.34308733333279,
                    "velocity": 0.3858267716535433,
                    "duration": 0.13831266666666409
                },
                {
                    "name": "C#5",
                    "midi": 73,
                    "time": 124.48139999999945,
                    "velocity": 0.3543307086614173,
                    "duration": 0.13831266666666409
                },
                {
                    "name": "D5",
                    "midi": 74,
                    "time": 124.61971266666612,
                    "velocity": 0.3779527559055118,
                    "duration": 0.13831266666666409
                },
                {
                    "name": "E5",
                    "midi": 76,
                    "time": 124.75802533333278,
                    "velocity": 0.3779527559055118,
                    "duration": 0.13571930416667044
                },
                {
                    "name": "F#5",
                    "midi": 78,
                    "time": 124.89633799999945,
                    "velocity": 0.3937007874015748,
                    "duration": 0.13831266666666409
                },
                {
                    "name": "G#5",
                    "midi": 80,
                    "time": 125.03465066666611,
                    "velocity": 0.4094488188976378,
                    "duration": 0.13831266666666409
                },
                {
                    "name": "A5",
                    "midi": 81,
                    "time": 125.17296333333277,
                    "velocity": 0.4094488188976378,
                    "duration": 0.13831266666666409
                },
                {
                    "name": "B5",
                    "midi": 83,
                    "time": 125.31127599999944,
                    "velocity": 0.4251968503937008,
                    "duration": 0.13831266666666409
                },
                {
                    "name": "C#6",
                    "midi": 85,
                    "time": 125.4495886666661,
                    "velocity": 0.4409448818897638,
                    "duration": 0.13831266666666409
                },
                {
                    "name": "D6",
                    "midi": 86,
                    "time": 125.58790133333277,
                    "velocity": 0.4409448818897638,
                    "duration": 0.13831266666666409
                },
                {
                    "name": "E6",
                    "midi": 88,
                    "time": 125.72621399999943,
                    "velocity": 0.4566929133858268,
                    "duration": 0.13831266666666409
                },
                {
                    "name": "F#6",
                    "midi": 90,
                    "time": 125.8645266666661,
                    "velocity": 0.47244094488188976,
                    "duration": 0.13831266666666409
                },
                {
                    "name": "G#6",
                    "midi": 92,
                    "time": 126.00283933333276,
                    "velocity": 0.47244094488188976,
                    "duration": 0.13831266666666409
                },
                {
                    "name": "A6",
                    "midi": 93,
                    "time": 126.14115199999942,
                    "velocity": 0.4881889763779528,
                    "duration": 0.13831266666666409
                },
                {
                    "name": "G#6",
                    "midi": 92,
                    "time": 126.27946466666609,
                    "velocity": 0.4881889763779528,
                    "duration": 0.13831266666666409
                },
                {
                    "name": "F#6",
                    "midi": 90,
                    "time": 126.41777733333275,
                    "velocity": 0.47244094488188976,
                    "duration": 0.13831266666666409
                },
                {
                    "name": "E6",
                    "midi": 88,
                    "time": 126.55608999999941,
                    "velocity": 0.47244094488188976,
                    "duration": 0.13831266666666409
                },
                {
                    "name": "D6",
                    "midi": 86,
                    "time": 126.69440266666608,
                    "velocity": 0.4566929133858268,
                    "duration": 0.13831266666666409
                },
                {
                    "name": "C#6",
                    "midi": 85,
                    "time": 126.83271533333274,
                    "velocity": 0.4409448818897638,
                    "duration": 0.13831266666666409
                },
                {
                    "name": "B5",
                    "midi": 83,
                    "time": 126.97102799999941,
                    "velocity": 0.4330708661417323,
                    "duration": 0.13831266666666409
                },
                {
                    "name": "A5",
                    "midi": 81,
                    "time": 127.10934066666607,
                    "velocity": 0.4251968503937008,
                    "duration": 0.13831266666666409
                },
                {
                    "name": "G#5",
                    "midi": 80,
                    "time": 127.24765333333274,
                    "velocity": 0.4094488188976378,
                    "duration": 0.13831266666666409
                },
                {
                    "name": "F#5",
                    "midi": 78,
                    "time": 127.3859659999994,
                    "velocity": 0.4015748031496063,
                    "duration": 0.13831266666666409
                },
                {
                    "name": "E5",
                    "midi": 76,
                    "time": 127.52427866666606,
                    "velocity": 0.3937007874015748,
                    "duration": 0.13831266666666409
                },
                {
                    "name": "D5",
                    "midi": 74,
                    "time": 127.66259133333273,
                    "velocity": 0.3779527559055118,
                    "duration": 0.13831266666666409
                },
                {
                    "name": "C#5",
                    "midi": 73,
                    "time": 127.80090399999939,
                    "velocity": 0.36220472440944884,
                    "duration": 0.13831266666666409
                },
                {
                    "name": "B4",
                    "midi": 71,
                    "time": 127.93921666666606,
                    "velocity": 0.3543307086614173,
                    "duration": 0.1383126666666783
                },
                {
                    "name": "A4",
                    "midi": 69,
                    "time": 128.07752933333273,
                    "velocity": 0.3464566929133858,
                    "duration": 0.1383126666666783
                },
                {
                    "name": "G#4",
                    "midi": 68,
                    "time": 128.2158419999994,
                    "velocity": 0.33858267716535434,
                    "duration": 0.1383126666666783
                },
                {
                    "name": "F#4",
                    "midi": 66,
                    "time": 128.3541546666661,
                    "velocity": 0.3228346456692913,
                    "duration": 0.1383126666666783
                },
                {
                    "name": "E4",
                    "midi": 64,
                    "time": 128.49246733333277,
                    "velocity": 0.31496062992125984,
                    "duration": 0.1383126666666783
                },
                {
                    "name": "D4",
                    "midi": 62,
                    "time": 128.63077999999945,
                    "velocity": 0.31496062992125984,
                    "duration": 0.1383126666666783
                },
                {
                    "name": "F#4",
                    "midi": 66,
                    "time": 128.76909266666613,
                    "velocity": 0.30708661417322836,
                    "duration": 0.1383126666666783
                },
                {
                    "name": "E4",
                    "midi": 64,
                    "time": 128.9074053333328,
                    "velocity": 0.29133858267716534,
                    "duration": 0.1383126666666783
                },
                {
                    "name": "D4",
                    "midi": 62,
                    "time": 129.04571799999948,
                    "velocity": 0.2755905511811024,
                    "duration": 0.1383126666666783
                },
                {
                    "name": "C#4",
                    "midi": 61,
                    "time": 129.18403066666616,
                    "velocity": 0.25984251968503935,
                    "duration": 0.1383126666666783
                },
                {
                    "name": "B3",
                    "midi": 59,
                    "time": 129.32234333333284,
                    "velocity": 0.2440944881889764,
                    "duration": 0.1383126666666783
                },
                {
                    "name": "G4",
                    "midi": 67,
                    "time": 129.46065599999952,
                    "velocity": 0.6850393700787402,
                    "duration": 0.1383126666666783
                },
                {
                    "name": "A4",
                    "midi": 69,
                    "time": 129.5989686666662,
                    "velocity": 0.4330708661417323,
                    "duration": 0.1383126666666783
                },
                {
                    "name": "G4",
                    "midi": 67,
                    "time": 129.73728133333287,
                    "velocity": 0.4330708661417323,
                    "duration": 0.1383126666666783
                },
                {
                    "name": "E4",
                    "midi": 64,
                    "time": 129.87559399999955,
                    "velocity": 0.48031496062992124,
                    "duration": 0.1383126666666783
                },
                {
                    "name": "C#4",
                    "midi": 61,
                    "time": 130.01390666666623,
                    "velocity": 0.4330708661417323,
                    "duration": 0.1383126666666783
                },
                {
                    "name": "A3",
                    "midi": 57,
                    "time": 130.1522193333329,
                    "velocity": 0.4330708661417323,
                    "duration": 0.1383126666666783
                },
                {
                    "name": "G3",
                    "midi": 55,
                    "time": 130.2905319999996,
                    "velocity": 0.5905511811023622,
                    "duration": 0.1383126666666783
                },
                {
                    "name": "A3",
                    "midi": 57,
                    "time": 130.42884466666627,
                    "velocity": 0.3779527559055118,
                    "duration": 0.1383126666666783
                },
                {
                    "name": "G3",
                    "midi": 55,
                    "time": 130.56715733333294,
                    "velocity": 0.3779527559055118,
                    "duration": 0.1383126666666783
                },
                {
                    "name": "A3",
                    "midi": 57,
                    "time": 130.70546999999962,
                    "velocity": 0.4251968503937008,
                    "duration": 0.1383126666666783
                },
                {
                    "name": "G3",
                    "midi": 55,
                    "time": 130.8437826666663,
                    "velocity": 0.3937007874015748,
                    "duration": 0.1383126666666783
                },
                {
                    "name": "A3",
                    "midi": 57,
                    "time": 130.98209533333298,
                    "velocity": 0.3937007874015748,
                    "duration": 0.1383126666666783
                },
                {
                    "name": "F4",
                    "midi": 65,
                    "time": 131.12040799999966,
                    "velocity": 0.6614173228346457,
                    "duration": 0.1383126666666783
                },
                {
                    "name": "A4",
                    "midi": 69,
                    "time": 131.25872066666633,
                    "velocity": 0.4330708661417323,
                    "duration": 0.1383126666666783
                },
                {
                    "name": "F4",
                    "midi": 65,
                    "time": 131.397033333333,
                    "velocity": 0.4330708661417323,
                    "duration": 0.1383126666666783
                },
                {
                    "name": "C4",
                    "midi": 60,
                    "time": 131.5353459999997,
                    "velocity": 0.48031496062992124,
                    "duration": 0.1383126666666783
                },
                {
                    "name": "A3",
                    "midi": 57,
                    "time": 131.67365866666637,
                    "velocity": 0.4330708661417323,
                    "duration": 0.1383126666666783
                },
                {
                    "name": "F3",
                    "midi": 53,
                    "time": 131.81197133333305,
                    "velocity": 0.4330708661417323,
                    "duration": 0.1383126666666783
                },
                {
                    "name": "A3",
                    "midi": 57,
                    "time": 131.95028399999973,
                    "velocity": 0.6062992125984252,
                    "duration": 0.1383126666666783
                },
                {
                    "name": "F3",
                    "midi": 53,
                    "time": 132.0885966666664,
                    "velocity": 0.3779527559055118,
                    "duration": 0.1383126666666783
                },
                {
                    "name": "A3",
                    "midi": 57,
                    "time": 132.22690933333308,
                    "velocity": 0.3779527559055118,
                    "duration": 0.1383126666666783
                },
                {
                    "name": "F3",
                    "midi": 53,
                    "time": 132.36522199999976,
                    "velocity": 0.4251968503937008,
                    "duration": 0.1383126666666783
                },
                {
                    "name": "A3",
                    "midi": 57,
                    "time": 132.50353466666644,
                    "velocity": 0.3937007874015748,
                    "duration": 0.1383126666666783
                },
                {
                    "name": "F3",
                    "midi": 53,
                    "time": 132.64184733333312,
                    "velocity": 0.3937007874015748,
                    "duration": 0.1383126666666783
                },
                {
                    "name": "F4",
                    "midi": 65,
                    "time": 132.7801599999998,
                    "velocity": 0.6614173228346457,
                    "duration": 0.1383126666666783
                },
                {
                    "name": "G4",
                    "midi": 67,
                    "time": 132.91847266666647,
                    "velocity": 0.4330708661417323,
                    "duration": 0.1383126666666783
                },
                {
                    "name": "F4",
                    "midi": 65,
                    "time": 133.05678533333315,
                    "velocity": 0.4330708661417323,
                    "duration": 0.1383126666666783
                },
                {
                    "name": "D4",
                    "midi": 62,
                    "time": 133.19509799999983,
                    "velocity": 0.48031496062992124,
                    "duration": 0.1383126666666783
                },
                {
                    "name": "B3",
                    "midi": 59,
                    "time": 133.3334106666665,
                    "velocity": 0.4330708661417323,
                    "duration": 0.1383126666666783
                },
                {
                    "name": "G3",
                    "midi": 55,
                    "time": 133.4717233333332,
                    "velocity": 0.4330708661417323,
                    "duration": 0.1383126666666783
                },
                {
                    "name": "F3",
                    "midi": 53,
                    "time": 133.61003599999987,
                    "velocity": 0.6062992125984252,
                    "duration": 0.1383126666666783
                },
                {
                    "name": "G3",
                    "midi": 55,
                    "time": 133.74834866666654,
                    "velocity": 0.3779527559055118,
                    "duration": 0.1383126666666783
                },
                {
                    "name": "F3",
                    "midi": 53,
                    "time": 133.88666133333322,
                    "velocity": 0.3779527559055118,
                    "duration": 0.1383126666666783
                },
                {
                    "name": "G3",
                    "midi": 55,
                    "time": 134.0249739999999,
                    "velocity": 0.4251968503937008,
                    "duration": 0.1383126666666783
                },
                {
                    "name": "F3",
                    "midi": 53,
                    "time": 134.16328666666658,
                    "velocity": 0.3937007874015748,
                    "duration": 0.1383126666666783
                },
                {
                    "name": "G3",
                    "midi": 55,
                    "time": 134.30159933333326,
                    "velocity": 0.3937007874015748,
                    "duration": 0.1383126666666783
                },
                {
                    "name": "D#4",
                    "midi": 63,
                    "time": 134.43991199999994,
                    "velocity": 0.6614173228346457,
                    "duration": 0.1383126666666783
                },
                {
                    "name": "G4",
                    "midi": 67,
                    "time": 134.5782246666666,
                    "velocity": 0.4330708661417323,
                    "duration": 0.1383126666666783
                },
                {
                    "name": "D#4",
                    "midi": 63,
                    "time": 134.7165373333333,
                    "velocity": 0.4330708661417323,
                    "duration": 0.1383126666666783
                },
                {
                    "name": "A#3",
                    "midi": 58,
                    "time": 134.85484999999997,
                    "velocity": 0.48031496062992124,
                    "duration": 0.1383126666666783
                },
                {
                    "name": "G3",
                    "midi": 55,
                    "time": 134.99316266666665,
                    "velocity": 0.4330708661417323,
                    "duration": 0.1383126666666783
                },
                {
                    "name": "D#3",
                    "midi": 51,
                    "time": 135.13147533333333,
                    "velocity": 0.4330708661417323,
                    "duration": 0.1383126666666783
                },
                {
                    "name": "G3",
                    "midi": 55,
                    "time": 135.269788,
                    "velocity": 0.6062992125984252,
                    "duration": 0.1383126666666783
                },
                {
                    "name": "D#3",
                    "midi": 51,
                    "time": 135.40810066666668,
                    "velocity": 0.3779527559055118,
                    "duration": 0.1383126666666783
                },
                {
                    "name": "G3",
                    "midi": 55,
                    "time": 135.54641333333336,
                    "velocity": 0.3779527559055118,
                    "duration": 0.1383126666666783
                },
                {
                    "name": "D#3",
                    "midi": 51,
                    "time": 135.68472600000004,
                    "velocity": 0.4251968503937008,
                    "duration": 0.1383126666666783
                },
                {
                    "name": "G3",
                    "midi": 55,
                    "time": 135.82303866666672,
                    "velocity": 0.3937007874015748,
                    "duration": 0.1383126666666783
                },
                {
                    "name": "D#3",
                    "midi": 51,
                    "time": 135.9613513333334,
                    "velocity": 0.3937007874015748,
                    "duration": 0.1383126666666783
                },
                {
                    "name": "D#4",
                    "midi": 63,
                    "time": 136.09966400000008,
                    "velocity": 0.6614173228346457,
                    "duration": 0.1383126666666783
                },
                {
                    "name": "F4",
                    "midi": 65,
                    "time": 136.23797666666675,
                    "velocity": 0.4330708661417323,
                    "duration": 0.1383126666666783
                },
                {
                    "name": "D#4",
                    "midi": 63,
                    "time": 136.37628933333343,
                    "velocity": 0.4330708661417323,
                    "duration": 0.1383126666666783
                },
                {
                    "name": "C4",
                    "midi": 60,
                    "time": 136.5146020000001,
                    "velocity": 0.48031496062992124,
                    "duration": 0.1383126666666783
                },
                {
                    "name": "A3",
                    "midi": 57,
                    "time": 136.6529146666668,
                    "velocity": 0.4330708661417323,
                    "duration": 0.1383126666666783
                },
                {
                    "name": "F3",
                    "midi": 53,
                    "time": 136.79122733333347,
                    "velocity": 0.4330708661417323,
                    "duration": 0.1383126666666783
                },
                {
                    "name": "C#4",
                    "midi": 61,
                    "time": 136.92954000000015,
                    "velocity": 0.6614173228346457,
                    "duration": 0.1383126666666783
                },
                {
                    "name": "F4",
                    "midi": 65,
                    "time": 137.06785266666682,
                    "velocity": 0.4330708661417323,
                    "duration": 0.1383126666666783
                },
                {
                    "name": "C#4",
                    "midi": 61,
                    "time": 137.2061653333335,
                    "velocity": 0.4330708661417323,
                    "duration": 0.1383126666666783
                },
                {
                    "name": "G#3",
                    "midi": 56,
                    "time": 137.34447800000018,
                    "velocity": 0.48031496062992124,
                    "duration": 0.1383126666666783
                },
                {
                    "name": "F3",
                    "midi": 53,
                    "time": 137.48279066666686,
                    "velocity": 0.4330708661417323,
                    "duration": 0.1383126666666783
                },
                {
                    "name": "C#3",
                    "midi": 49,
                    "time": 137.62110333333354,
                    "velocity": 0.4330708661417323,
                    "duration": 0.1383126666666783
                },
                {
                    "name": "D4",
                    "midi": 62,
                    "time": 137.75941600000021,
                    "velocity": 0.6614173228346457,
                    "duration": 0.1383126666666783
                },
                {
                    "name": "E4",
                    "midi": 64,
                    "time": 137.8977286666669,
                    "velocity": 0.4330708661417323,
                    "duration": 0.1383126666666783
                },
                {
                    "name": "D4",
                    "midi": 62,
                    "time": 138.03604133333357,
                    "velocity": 0.4330708661417323,
                    "duration": 0.1383126666666783
                },
                {
                    "name": "B3",
                    "midi": 59,
                    "time": 138.17435400000025,
                    "velocity": 0.48031496062992124,
                    "duration": 0.1383126666666783
                },
                {
                    "name": "G#3",
                    "midi": 56,
                    "time": 138.31266666666693,
                    "velocity": 0.4330708661417323,
                    "duration": 0.1383126666666783
                },
                {
                    "name": "E3",
                    "midi": 52,
                    "time": 138.4509793333336,
                    "velocity": 0.4330708661417323,
                    "duration": 0.1383126666666783
                },
                {
                    "name": "C4",
                    "midi": 60,
                    "time": 138.58929200000028,
                    "velocity": 0.6614173228346457,
                    "duration": 0.1383126666666783
                },
                {
                    "name": "E4",
                    "midi": 64,
                    "time": 138.72760466666696,
                    "velocity": 0.4330708661417323,
                    "duration": 0.1383126666666783
                },
                {
                    "name": "C4",
                    "midi": 60,
                    "time": 138.86591733333364,
                    "velocity": 0.4330708661417323,
                    "duration": 0.1383126666666783
                },
                {
                    "name": "G3",
                    "midi": 55,
                    "time": 139.00423000000032,
                    "velocity": 0.48031496062992124,
                    "duration": 0.1383126666666783
                },
                {
                    "name": "E3",
                    "midi": 52,
                    "time": 139.142542666667,
                    "velocity": 0.4330708661417323,
                    "duration": 0.1383126666666783
                },
                {
                    "name": "C3",
                    "midi": 48,
                    "time": 139.28085533333368,
                    "velocity": 0.4330708661417323,
                    "duration": 0.1383126666666783
                },
                {
                    "name": "F3",
                    "midi": 53,
                    "time": 139.41916800000035,
                    "velocity": 0.6614173228346457,
                    "duration": 0.1383126666666783
                },
                {
                    "name": "A3",
                    "midi": 57,
                    "time": 139.55748066666703,
                    "velocity": 0.4330708661417323,
                    "duration": 0.1383126666666783
                },
                {
                    "name": "F3",
                    "midi": 53,
                    "time": 139.6957933333337,
                    "velocity": 0.4330708661417323,
                    "duration": 0.1383126666666783
                },
                {
                    "name": "C3",
                    "midi": 48,
                    "time": 139.8341060000004,
                    "velocity": 0.48031496062992124,
                    "duration": 0.1383126666666783
                },
                {
                    "name": "A2",
                    "midi": 45,
                    "time": 139.97241866666707,
                    "velocity": 0.4330708661417323,
                    "duration": 0.1383126666666783
                },
                {
                    "name": "F2",
                    "midi": 41,
                    "time": 140.11073133333375,
                    "velocity": 0.4330708661417323,
                    "duration": 0.1383126666666783
                },
                {
                    "name": "A2",
                    "midi": 45,
                    "time": 140.24904400000042,
                    "velocity": 0.5433070866141733,
                    "duration": 0.1383126666666783
                },
                {
                    "name": "F2",
                    "midi": 41,
                    "time": 140.3873566666671,
                    "velocity": 0.33858267716535434,
                    "duration": 0.1383126666666783
                },
                {
                    "name": "A2",
                    "midi": 45,
                    "time": 140.52566933333378,
                    "velocity": 0.33858267716535434,
                    "duration": 0.1383126666666783
                },
                {
                    "name": "F2",
                    "midi": 41,
                    "time": 140.66398200000046,
                    "velocity": 0.3779527559055118,
                    "duration": 0.1383126666666783
                },
                {
                    "name": "A2",
                    "midi": 45,
                    "time": 140.80229466666714,
                    "velocity": 0.3543307086614173,
                    "duration": 0.1383126666666783
                },
                {
                    "name": "F2",
                    "midi": 41,
                    "time": 140.94060733333382,
                    "velocity": 0.3543307086614173,
                    "duration": 0.1383126666666783
                },
                {
                    "name": "A3",
                    "midi": 57,
                    "time": 141.0789200000005,
                    "velocity": 0.4409448818897638,
                    "duration": 0.1383126666666783
                },
                {
                    "name": "F3",
                    "midi": 53,
                    "time": 141.21723266666717,
                    "velocity": 0.30708661417322836,
                    "duration": 0.1383126666666783
                },
                {
                    "name": "A3",
                    "midi": 57,
                    "time": 141.35554533333385,
                    "velocity": 0.30708661417322836,
                    "duration": 0.1383126666666783
                },
                {
                    "name": "F3",
                    "midi": 53,
                    "time": 141.49385800000053,
                    "velocity": 0.33070866141732286,
                    "duration": 0.1383126666666783
                },
                {
                    "name": "A3",
                    "midi": 57,
                    "time": 141.6321706666672,
                    "velocity": 0.30708661417322836,
                    "duration": 0.1383126666666783
                },
                {
                    "name": "F3",
                    "midi": 53,
                    "time": 141.77048333333389,
                    "velocity": 0.2992125984251969,
                    "duration": 0.1383126666666783
                },
                {
                    "name": "A3",
                    "midi": 57,
                    "time": 141.90879600000056,
                    "velocity": 0.36220472440944884,
                    "duration": 0.1383126666666783
                },
                {
                    "name": "F3",
                    "midi": 53,
                    "time": 142.04710866666724,
                    "velocity": 0.2677165354330709,
                    "duration": 0.1383126666666783
                },
                {
                    "name": "A3",
                    "midi": 57,
                    "time": 142.18542133333392,
                    "velocity": 0.25984251968503935,
                    "duration": 0.1383126666666783
                },
                {
                    "name": "F3",
                    "midi": 53,
                    "time": 142.3237340000006,
                    "velocity": 0.28346456692913385,
                    "duration": 0.1383126666666783
                },
                {
                    "name": "A3",
                    "midi": 57,
                    "time": 142.46204666666728,
                    "velocity": 0.25984251968503935,
                    "duration": 0.1383126666666783
                },
                {
                    "name": "F3",
                    "midi": 53,
                    "time": 142.60035933333396,
                    "velocity": 0.25196850393700787,
                    "duration": 0.1383126666666783
                },
                {
                    "name": "C#5",
                    "midi": 73,
                    "time": 143.15361000000064,
                    "velocity": 0.3464566929133858,
                    "duration": 0.31120350000000485
                },
                {
                    "name": "E5",
                    "midi": 76,
                    "time": 143.15361000000064,
                    "velocity": 0.3464566929133858,
                    "duration": 0.31120350000000485
                },
                {
                    "name": "C#5",
                    "midi": 73,
                    "time": 143.46481350000064,
                    "velocity": 0.30708661417322836,
                    "duration": 0.10373450000000162
                },
                {
                    "name": "E5",
                    "midi": 76,
                    "time": 143.46481350000064,
                    "velocity": 0.30708661417322836,
                    "duration": 0.10373450000000162
                },
                {
                    "name": "B4",
                    "midi": 71,
                    "time": 143.56854800000065,
                    "velocity": 0.3464566929133858,
                    "duration": 0.20746900000000323
                },
                {
                    "name": "D5",
                    "midi": 74,
                    "time": 143.56854800000065,
                    "velocity": 0.3464566929133858,
                    "duration": 0.20746900000000323
                },
                {
                    "name": "D4",
                    "midi": 62,
                    "time": 143.56854800000065,
                    "velocity": 0.3464566929133858,
                    "duration": 0.1383126666666783
                },
                {
                    "name": "E4",
                    "midi": 64,
                    "time": 143.70686066666732,
                    "velocity": 0.3464566929133858,
                    "duration": 0.13831266666664987
                },
                {
                    "name": "F#4",
                    "midi": 66,
                    "time": 143.84517333333397,
                    "velocity": 0.33858267716535434,
                    "duration": 0.1383126666666783
                },
                {
                    "name": "G#4",
                    "midi": 68,
                    "time": 143.98348600000065,
                    "velocity": 0.3543307086614173,
                    "duration": 0.1383126666666783
                },
                {
                    "name": "A4",
                    "midi": 69,
                    "time": 144.12179866666733,
                    "velocity": 0.3779527559055118,
                    "duration": 0.1383126666666783
                },
                {
                    "name": "B4",
                    "midi": 71,
                    "time": 144.260111333334,
                    "velocity": 0.3858267716535433,
                    "duration": 0.1383126666666783
                },
                {
                    "name": "C#5",
                    "midi": 73,
                    "time": 144.3984240000007,
                    "velocity": 0.3543307086614173,
                    "duration": 0.1383126666666783
                },
                {
                    "name": "D5",
                    "midi": 74,
                    "time": 144.53673666666737,
                    "velocity": 0.3779527559055118,
                    "duration": 0.1383126666666783
                },
                {
                    "name": "E5",
                    "midi": 76,
                    "time": 144.67504933333404,
                    "velocity": 0.3779527559055118,
                    "duration": 0.13571930416665623
                },
                {
                    "name": "F#5",
                    "midi": 78,
                    "time": 144.8133620000007,
                    "velocity": 0.3937007874015748,
                    "duration": 0.1383126666666783
                },
                {
                    "name": "G#5",
                    "midi": 80,
                    "time": 144.95167466666737,
                    "velocity": 0.4094488188976378,
                    "duration": 0.1383126666666783
                },
                {
                    "name": "A5",
                    "midi": 81,
                    "time": 145.08998733333405,
                    "velocity": 0.4094488188976378,
                    "duration": 0.1383126666666783
                },
                {
                    "name": "B5",
                    "midi": 83,
                    "time": 145.22830000000073,
                    "velocity": 0.4251968503937008,
                    "duration": 0.1383126666666783
                },
                {
                    "name": "C#6",
                    "midi": 85,
                    "time": 145.3666126666674,
                    "velocity": 0.4409448818897638,
                    "duration": 0.1383126666666783
                },
                {
                    "name": "D6",
                    "midi": 86,
                    "time": 145.50492533333409,
                    "velocity": 0.4409448818897638,
                    "duration": 0.1383126666666783
                },
                {
                    "name": "E6",
                    "midi": 88,
                    "time": 145.64323800000076,
                    "velocity": 0.4566929133858268,
                    "duration": 0.1383126666666783
                },
                {
                    "name": "F#6",
                    "midi": 90,
                    "time": 145.78155066666744,
                    "velocity": 0.47244094488188976,
                    "duration": 0.1383126666666783
                },
                {
                    "name": "G#6",
                    "midi": 92,
                    "time": 145.91986333333412,
                    "velocity": 0.47244094488188976,
                    "duration": 0.1383126666666783
                },
                {
                    "name": "A6",
                    "midi": 93,
                    "time": 146.0581760000008,
                    "velocity": 0.4881889763779528,
                    "duration": 0.1383126666666783
                },
                {
                    "name": "G#6",
                    "midi": 92,
                    "time": 146.19648866666748,
                    "velocity": 0.4881889763779528,
                    "duration": 0.1383126666666783
                },
                {
                    "name": "F#6",
                    "midi": 90,
                    "time": 146.33480133333416,
                    "velocity": 0.47244094488188976,
                    "duration": 0.1383126666666783
                },
                {
                    "name": "E6",
                    "midi": 88,
                    "time": 146.47311400000083,
                    "velocity": 0.47244094488188976,
                    "duration": 0.1383126666666783
                },
                {
                    "name": "D6",
                    "midi": 86,
                    "time": 146.6114266666675,
                    "velocity": 0.4566929133858268,
                    "duration": 0.1383126666666783
                },
                {
                    "name": "C#6",
                    "midi": 85,
                    "time": 146.7497393333342,
                    "velocity": 0.4409448818897638,
                    "duration": 0.1383126666666783
                },
                {
                    "name": "B5",
                    "midi": 83,
                    "time": 146.88805200000087,
                    "velocity": 0.4330708661417323,
                    "duration": 0.1383126666666783
                },
                {
                    "name": "A5",
                    "midi": 81,
                    "time": 147.02636466666755,
                    "velocity": 0.4251968503937008,
                    "duration": 0.1383126666666783
                },
                {
                    "name": "G#5",
                    "midi": 80,
                    "time": 147.16467733333423,
                    "velocity": 0.4094488188976378,
                    "duration": 0.1383126666666783
                },
                {
                    "name": "F#5",
                    "midi": 78,
                    "time": 147.3029900000009,
                    "velocity": 0.4015748031496063,
                    "duration": 0.1383126666666783
                },
                {
                    "name": "E5",
                    "midi": 76,
                    "time": 147.44130266666758,
                    "velocity": 0.3937007874015748,
                    "duration": 0.1383126666666783
                },
                {
                    "name": "D5",
                    "midi": 74,
                    "time": 147.57961533333426,
                    "velocity": 0.3779527559055118,
                    "duration": 0.1383126666666783
                },
                {
                    "name": "C#5",
                    "midi": 73,
                    "time": 147.71792800000094,
                    "velocity": 0.36220472440944884,
                    "duration": 0.1383126666666783
                },
                {
                    "name": "B4",
                    "midi": 71,
                    "time": 147.85624066666762,
                    "velocity": 0.3543307086614173,
                    "duration": 0.1383126666666783
                },
                {
                    "name": "A4",
                    "midi": 69,
                    "time": 147.9945533333343,
                    "velocity": 0.3464566929133858,
                    "duration": 0.1383126666666783
                },
                {
                    "name": "G#4",
                    "midi": 68,
                    "time": 148.13286600000097,
                    "velocity": 0.33858267716535434,
                    "duration": 0.1383126666666783
                },
                {
                    "name": "F#4",
                    "midi": 66,
                    "time": 148.27117866666765,
                    "velocity": 0.3228346456692913,
                    "duration": 0.1383126666666783
                },
                {
                    "name": "E4",
                    "midi": 64,
                    "time": 148.40949133333433,
                    "velocity": 0.31496062992125984,
                    "duration": 0.1383126666666783
                },
                {
                    "name": "D4",
                    "midi": 62,
                    "time": 148.547804000001,
                    "velocity": 0.31496062992125984,
                    "duration": 0.1383126666666783
                },
                {
                    "name": "F#4",
                    "midi": 66,
                    "time": 148.6861166666677,
                    "velocity": 0.30708661417322836,
                    "duration": 0.1383126666666783
                },
                {
                    "name": "E4",
                    "midi": 64,
                    "time": 148.82442933333436,
                    "velocity": 0.29133858267716534,
                    "duration": 0.1383126666666783
                },
                {
                    "name": "D4",
                    "midi": 62,
                    "time": 148.96274200000104,
                    "velocity": 0.2755905511811024,
                    "duration": 0.1383126666666783
                },
                {
                    "name": "C#4",
                    "midi": 61,
                    "time": 149.10105466666772,
                    "velocity": 0.25984251968503935,
                    "duration": 0.1383126666666783
                },
                {
                    "name": "B3",
                    "midi": 59,
                    "time": 149.2393673333344,
                    "velocity": 0.2440944881889764,
                    "duration": 0.1383126666666783
                },
                {
                    "name": "A3",
                    "midi": 57,
                    "time": 149.37768000000108,
                    "velocity": 0.30708661417322836,
                    "duration": 0.1383126666666783
                },
                {
                    "name": "C#4",
                    "midi": 61,
                    "time": 149.51599266666776,
                    "velocity": 0.2677165354330709,
                    "duration": 0.1383126666666783
                },
                {
                    "name": "A3",
                    "midi": 57,
                    "time": 149.65430533333443,
                    "velocity": 0.2677165354330709,
                    "duration": 0.1383126666666783
                },
                {
                    "name": "C#4",
                    "midi": 61,
                    "time": 149.7926180000011,
                    "velocity": 0.30708661417322836,
                    "duration": 0.1383126666666783
                },
                {
                    "name": "A4",
                    "midi": 69,
                    "time": 149.9309306666678,
                    "velocity": 0.2677165354330709,
                    "duration": 0.1383126666666783
                },
                {
                    "name": "C#4",
                    "midi": 61,
                    "time": 150.06924333333447,
                    "velocity": 0.2677165354330709,
                    "duration": 0.1383126666666783
                },
                {
                    "name": "A3",
                    "midi": 57,
                    "time": 150.20755600000115,
                    "velocity": 0.30708661417322836,
                    "duration": 0.1383126666666783
                },
                {
                    "name": "C#4",
                    "midi": 61,
                    "time": 150.34586866666783,
                    "velocity": 0.2677165354330709,
                    "duration": 0.1383126666666783
                },
                {
                    "name": "A3",
                    "midi": 57,
                    "time": 150.4841813333345,
                    "velocity": 0.2677165354330709,
                    "duration": 0.1383126666666783
                },
                {
                    "name": "C#4",
                    "midi": 61,
                    "time": 150.62249400000118,
                    "velocity": 0.30708661417322836,
                    "duration": 0.1383126666666783
                },
                {
                    "name": "A4",
                    "midi": 69,
                    "time": 150.76080666666786,
                    "velocity": 0.2677165354330709,
                    "duration": 0.1383126666666783
                },
                {
                    "name": "C#4",
                    "midi": 61,
                    "time": 150.89911933333454,
                    "velocity": 0.2677165354330709,
                    "duration": 0.12966812499999492
                },
                {
                    "name": "C#4",
                    "midi": 61,
                    "time": 151.0374320000012,
                    "velocity": 0.30708661417322836,
                    "duration": 0.1383126666666783
                },
                {
                    "name": "A4",
                    "midi": 69,
                    "time": 151.17574466666787,
                    "velocity": 0.2677165354330709,
                    "duration": 0.1383126666666783
                },
                {
                    "name": "C#4",
                    "midi": 61,
                    "time": 151.31405733333455,
                    "velocity": 0.2677165354330709,
                    "duration": 0.1383126666666783
                },
                {
                    "name": "A4",
                    "midi": 69,
                    "time": 151.45237000000122,
                    "velocity": 0.31496062992125984,
                    "duration": 0.1383126666666783
                },
                {
                    "name": "C#5",
                    "midi": 73,
                    "time": 151.5906826666679,
                    "velocity": 0.2755905511811024,
                    "duration": 0.1383126666666783
                },
                {
                    "name": "A4",
                    "midi": 69,
                    "time": 151.72899533333458,
                    "velocity": 0.2755905511811024,
                    "duration": 0.1383126666666783
                },
                {
                    "name": "C#4",
                    "midi": 61,
                    "time": 151.86730800000126,
                    "velocity": 0.3543307086614173,
                    "duration": 0.1383126666666783
                },
                {
                    "name": "A4",
                    "midi": 69,
                    "time": 152.00562066666794,
                    "velocity": 0.30708661417322836,
                    "duration": 0.1383126666666783
                },
                {
                    "name": "C#4",
                    "midi": 61,
                    "time": 152.14393333333462,
                    "velocity": 0.31496062992125984,
                    "duration": 0.1383126666666783
                },
                {
                    "name": "A4",
                    "midi": 69,
                    "time": 152.2822460000013,
                    "velocity": 0.3779527559055118,
                    "duration": 0.1383126666666783
                },
                {
                    "name": "C#5",
                    "midi": 73,
                    "time": 152.42055866666797,
                    "velocity": 0.33858267716535434,
                    "duration": 0.1383126666666783
                },
                {
                    "name": "A4",
                    "midi": 69,
                    "time": 152.55887133333465,
                    "velocity": 0.33858267716535434,
                    "duration": 0.1383126666666783
                },
                {
                    "name": "E4",
                    "midi": 64,
                    "time": 152.69718400000133,
                    "velocity": 0.4094488188976378,
                    "duration": 0.1383126666666783
                },
                {
                    "name": "C#5",
                    "midi": 73,
                    "time": 152.835496666668,
                    "velocity": 0.36220472440944884,
                    "duration": 0.1383126666666783
                },
                {
                    "name": "E4",
                    "midi": 64,
                    "time": 152.97380933333469,
                    "velocity": 0.36220472440944884,
                    "duration": 0.1383126666666783
                },
                {
                    "name": "C#5",
                    "midi": 73,
                    "time": 153.11212200000136,
                    "velocity": 0.4330708661417323,
                    "duration": 0.1383126666666783
                },
                {
                    "name": "E5",
                    "midi": 76,
                    "time": 153.25043466666804,
                    "velocity": 0.3700787401574803,
                    "duration": 0.1383126666666783
                },
                {
                    "name": "C#5",
                    "midi": 73,
                    "time": 153.38874733333472,
                    "velocity": 0.3779527559055118,
                    "duration": 0.1383126666666783
                },
                {
                    "name": "E4",
                    "midi": 64,
                    "time": 153.5270600000014,
                    "velocity": 0.44881889763779526,
                    "duration": 0.1383126666666783
                },
                {
                    "name": "C#5",
                    "midi": 73,
                    "time": 153.66537266666808,
                    "velocity": 0.3858267716535433,
                    "duration": 0.1383126666666783
                },
                {
                    "name": "E4",
                    "midi": 64,
                    "time": 153.80368533333476,
                    "velocity": 0.3937007874015748,
                    "duration": 0.1383126666666783
                },
                {
                    "name": "C#5",
                    "midi": 73,
                    "time": 153.94199800000143,
                    "velocity": 0.4645669291338583,
                    "duration": 0.1383126666666783
                },
                {
                    "name": "E5",
                    "midi": 76,
                    "time": 154.0803106666681,
                    "velocity": 0.4015748031496063,
                    "duration": 0.1383126666666783
                },
                {
                    "name": "C#5",
                    "midi": 73,
                    "time": 154.2186233333348,
                    "velocity": 0.4094488188976378,
                    "duration": 0.1383126666666783
                },
                {
                    "name": "A4",
                    "midi": 69,
                    "time": 154.35693600000147,
                    "velocity": 0.48031496062992124,
                    "duration": 0.1383126666666783
                },
                {
                    "name": "C#5",
                    "midi": 73,
                    "time": 154.49524866666815,
                    "velocity": 0.41732283464566927,
                    "duration": 0.1383126666666783
                },
                {
                    "name": "A4",
                    "midi": 69,
                    "time": 154.63356133333482,
                    "velocity": 0.4330708661417323,
                    "duration": 0.1383126666666783
                },
                {
                    "name": "C#5",
                    "midi": 73,
                    "time": 154.7718740000015,
                    "velocity": 0.5039370078740157,
                    "duration": 0.1383126666666783
                },
                {
                    "name": "A5",
                    "midi": 81,
                    "time": 154.91018666666818,
                    "velocity": 0.44881889763779526,
                    "duration": 0.1383126666666783
                },
                {
                    "name": "C#5",
                    "midi": 73,
                    "time": 155.04849933333486,
                    "velocity": 0.4645669291338583,
                    "duration": 0.12966812499999492
                },
                {
                    "name": "C#5",
                    "midi": 73,
                    "time": 155.1868120000015,
                    "velocity": 0.5511811023622047,
                    "duration": 0.1383126666666783
                },
                {
                    "name": "A5",
                    "midi": 81,
                    "time": 155.3251246666682,
                    "velocity": 0.48031496062992124,
                    "duration": 0.1383126666666783
                },
                {
                    "name": "C#5",
                    "midi": 73,
                    "time": 155.46343733333487,
                    "velocity": 0.49606299212598426,
                    "duration": 0.1383126666666783
                },
                {
                    "name": "A5",
                    "midi": 81,
                    "time": 155.60175000000154,
                    "velocity": 0.5905511811023622,
                    "duration": 0.1383126666666783
                },
                {
                    "name": "C#6",
                    "midi": 85,
                    "time": 155.74006266666822,
                    "velocity": 0.5196850393700787,
                    "duration": 0.1383126666666783
                },
                {
                    "name": "A5",
                    "midi": 81,
                    "time": 155.8783753333349,
                    "velocity": 0.5275590551181102,
                    "duration": 0.1383126666666783
                },
                {
                    "name": "D6",
                    "midi": 86,
                    "time": 156.01668800000158,
                    "velocity": 0.7244094488188977,
                    "duration": 0.8298760000000129
                },
                {
                    "name": "A5",
                    "midi": 81,
                    "time": 156.01668800000158,
                    "velocity": 0.6141732283464567,
                    "duration": 0.8298760000000129
                },
                {
                    "name": "F#5",
                    "midi": 78,
                    "time": 156.01668800000158,
                    "velocity": 0.6141732283464567,
                    "duration": 0.8298760000000129
                },
                {
                    "name": "D5",
                    "midi": 74,
                    "time": 156.01668800000158,
                    "velocity": 0.6141732283464567,
                    "duration": 0.8298760000000129
                },
                {
                    "name": "A3",
                    "midi": 57,
                    "time": 156.8465640000016,
                    "velocity": 0.4409448818897638,
                    "duration": 0.10373450000000162
                },
                {
                    "name": "D4",
                    "midi": 62,
                    "time": 156.8465640000016,
                    "velocity": 0.5196850393700787,
                    "duration": 0.10373450000000162
                },
                {
                    "name": "A3",
                    "midi": 57,
                    "time": 157.0540330000016,
                    "velocity": 0.4015748031496063,
                    "duration": 0.10373450000000162
                },
                {
                    "name": "D4",
                    "midi": 62,
                    "time": 157.0540330000016,
                    "velocity": 0.48031496062992124,
                    "duration": 0.10373450000000162
                },
                {
                    "name": "A3",
                    "midi": 57,
                    "time": 157.2615020000016,
                    "velocity": 0.4409448818897638,
                    "duration": 0.10373450000000162
                },
                {
                    "name": "D4",
                    "midi": 62,
                    "time": 157.2615020000016,
                    "velocity": 0.5196850393700787,
                    "duration": 0.10373450000000162
                },
                {
                    "name": "A3",
                    "midi": 57,
                    "time": 157.4689710000016,
                    "velocity": 0.4015748031496063,
                    "duration": 0.10373450000000162
                },
                {
                    "name": "D4",
                    "midi": 62,
                    "time": 157.4689710000016,
                    "velocity": 0.47244094488188976,
                    "duration": 0.10373450000000162
                },
                {
                    "name": "A3",
                    "midi": 57,
                    "time": 157.6764400000016,
                    "velocity": 0.4881889763779528,
                    "duration": 0.41493800000000647
                },
                {
                    "name": "D4",
                    "midi": 62,
                    "time": 157.6764400000016,
                    "velocity": 0.5748031496062992,
                    "duration": 0.6224070000000097
                },
                {
                    "name": "B3",
                    "midi": 59,
                    "time": 158.0913780000016,
                    "velocity": 0.41732283464566927,
                    "duration": 0.20746900000000323
                },
                {
                    "name": "E4",
                    "midi": 64,
                    "time": 158.0913780000016,
                    "velocity": 0.49606299212598426,
                    "duration": 0.20746900000000323
                },
                {
                    "name": "C4",
                    "midi": 60,
                    "time": 158.50631600000162,
                    "velocity": 0.4409448818897638,
                    "duration": 0.10373450000000162
                },
                {
                    "name": "D4",
                    "midi": 62,
                    "time": 158.50631600000162,
                    "velocity": 0.4409448818897638,
                    "duration": 0.10373450000000162
                },
                {
                    "name": "F#4",
                    "midi": 66,
                    "time": 158.50631600000162,
                    "velocity": 0.5196850393700787,
                    "duration": 0.10373450000000162
                },
                {
                    "name": "C4",
                    "midi": 60,
                    "time": 158.71378500000162,
                    "velocity": 0.4015748031496063,
                    "duration": 0.10373450000000162
                },
                {
                    "name": "D4",
                    "midi": 62,
                    "time": 158.71378500000162,
                    "velocity": 0.4015748031496063,
                    "duration": 0.10373450000000162
                },
                {
                    "name": "F#4",
                    "midi": 66,
                    "time": 158.71378500000162,
                    "velocity": 0.48031496062992124,
                    "duration": 0.10373450000000162
                },
                {
                    "name": "C4",
                    "midi": 60,
                    "time": 158.92125400000162,
                    "velocity": 0.4409448818897638,
                    "duration": 0.10373450000000162
                },
                {
                    "name": "D4",
                    "midi": 62,
                    "time": 158.92125400000162,
                    "velocity": 0.4409448818897638,
                    "duration": 0.10373450000000162
                },
                {
                    "name": "F#4",
                    "midi": 66,
                    "time": 158.92125400000162,
                    "velocity": 0.5196850393700787,
                    "duration": 0.10373450000000162
                },
                {
                    "name": "C4",
                    "midi": 60,
                    "time": 159.12872300000163,
                    "velocity": 0.4015748031496063,
                    "duration": 0.10373450000000162
                },
                {
                    "name": "D4",
                    "midi": 62,
                    "time": 159.12872300000163,
                    "velocity": 0.4015748031496063,
                    "duration": 0.10373450000000162
                },
                {
                    "name": "F#4",
                    "midi": 66,
                    "time": 159.12872300000163,
                    "velocity": 0.47244094488188976,
                    "duration": 0.10373450000000162
                },
                {
                    "name": "C4",
                    "midi": 60,
                    "time": 159.33619200000163,
                    "velocity": 0.4881889763779528,
                    "duration": 0.41493800000000647
                },
                {
                    "name": "D4",
                    "midi": 62,
                    "time": 159.33619200000163,
                    "velocity": 0.4881889763779528,
                    "duration": 0.6224070000000097
                },
                {
                    "name": "F#4",
                    "midi": 66,
                    "time": 159.33619200000163,
                    "velocity": 0.5748031496062992,
                    "duration": 0.41493800000000647
                },
                {
                    "name": "B3",
                    "midi": 59,
                    "time": 159.75113000000164,
                    "velocity": 0.41732283464566927,
                    "duration": 0.20746900000000323
                },
                {
                    "name": "G4",
                    "midi": 67,
                    "time": 159.75113000000164,
                    "velocity": 0.49606299212598426,
                    "duration": 0.20746900000000323
                },
                {
                    "name": "E4",
                    "midi": 64,
                    "time": 159.95859900000164,
                    "velocity": 0.44881889763779526,
                    "duration": 0.20746900000000323
                },
                {
                    "name": "G4",
                    "midi": 67,
                    "time": 160.16606800000164,
                    "velocity": 0.49606299212598426,
                    "duration": 0.1383126666666783
                },
                {
                    "name": "F#4",
                    "midi": 66,
                    "time": 160.30438066666832,
                    "velocity": 0.44881889763779526,
                    "duration": 0.1383126666666783
                },
                {
                    "name": "E4",
                    "midi": 64,
                    "time": 160.442693333335,
                    "velocity": 0.44881889763779526,
                    "duration": 0.1383126666666783
                },
                {
                    "name": "A#4",
                    "midi": 70,
                    "time": 160.58100600000168,
                    "velocity": 0.49606299212598426,
                    "duration": 0.1383126666666783
                },
                {
                    "name": "A4",
                    "midi": 69,
                    "time": 160.71931866666836,
                    "velocity": 0.4566929133858268,
                    "duration": 0.1383126666666783
                },
                {
                    "name": "G4",
                    "midi": 67,
                    "time": 160.85763133333504,
                    "velocity": 0.4566929133858268,
                    "duration": 0.1383126666666783
                },
                {
                    "name": "A4",
                    "midi": 69,
                    "time": 160.9959440000017,
                    "velocity": 0.49606299212598426,
                    "duration": 0.20746900000000323
                },
                {
                    "name": "F#5",
                    "midi": 78,
                    "time": 161.41088200000172,
                    "velocity": 0.4409448818897638,
                    "duration": 0.1383126666666783
                },
                {
                    "name": "E5",
                    "midi": 76,
                    "time": 161.5491946666684,
                    "velocity": 0.36220472440944884,
                    "duration": 0.1383126666666783
                },
                {
                    "name": "D5",
                    "midi": 74,
                    "time": 161.68750733333508,
                    "velocity": 0.36220472440944884,
                    "duration": 0.1383126666666783
                },
                {
                    "name": "A5",
                    "midi": 81,
                    "time": 161.82582000000176,
                    "velocity": 0.44881889763779526,
                    "duration": 0.1383126666666783
                },
                {
                    "name": "G5",
                    "midi": 79,
                    "time": 161.96413266666843,
                    "velocity": 0.3700787401574803,
                    "duration": 0.1383126666666783
                },
                {
                    "name": "F#5",
                    "midi": 78,
                    "time": 162.1024453333351,
                    "velocity": 0.3700787401574803,
                    "duration": 0.1383126666666783
                },
                {
                    "name": "E5",
                    "midi": 76,
                    "time": 162.2407580000018,
                    "velocity": 0.4566929133858268,
                    "duration": 0.1383126666666783
                },
                {
                    "name": "D5",
                    "midi": 74,
                    "time": 162.37907066666847,
                    "velocity": 0.3937007874015748,
                    "duration": 0.1383126666666783
                },
                {
                    "name": "C#5",
                    "midi": 73,
                    "time": 162.51738333333515,
                    "velocity": 0.3937007874015748,
                    "duration": 0.1383126666666783
                },
                {
                    "name": "D6",
                    "midi": 86,
                    "time": 162.65569600000183,
                    "velocity": 0.7244094488188977,
                    "duration": 0.8298760000000129
                },
                {
                    "name": "A5",
                    "midi": 81,
                    "time": 162.65569600000183,
                    "velocity": 0.6141732283464567,
                    "duration": 0.8298760000000129
                },
                {
                    "name": "F5",
                    "midi": 77,
                    "time": 162.65569600000183,
                    "velocity": 0.6141732283464567,
                    "duration": 0.8298760000000129
                },
                {
                    "name": "D5",
                    "midi": 74,
                    "time": 162.65569600000183,
                    "velocity": 0.6141732283464567,
                    "duration": 0.8298760000000129
                },
                {
                    "name": "A3",
                    "midi": 57,
                    "time": 163.48557200000184,
                    "velocity": 0.4409448818897638,
                    "duration": 0.10373450000000162
                },
                {
                    "name": "D4",
                    "midi": 62,
                    "time": 163.48557200000184,
                    "velocity": 0.5196850393700787,
                    "duration": 0.10373450000000162
                },
                {
                    "name": "A3",
                    "midi": 57,
                    "time": 163.69304100000184,
                    "velocity": 0.4015748031496063,
                    "duration": 0.10373450000000162
                },
                {
                    "name": "D4",
                    "midi": 62,
                    "time": 163.69304100000184,
                    "velocity": 0.48031496062992124,
                    "duration": 0.10373450000000162
                },
                {
                    "name": "A3",
                    "midi": 57,
                    "time": 163.90051000000184,
                    "velocity": 0.4409448818897638,
                    "duration": 0.10373450000000162
                },
                {
                    "name": "D4",
                    "midi": 62,
                    "time": 163.90051000000184,
                    "velocity": 0.5196850393700787,
                    "duration": 0.10373450000000162
                },
                {
                    "name": "A3",
                    "midi": 57,
                    "time": 164.10797900000185,
                    "velocity": 0.4015748031496063,
                    "duration": 0.10373450000000162
                },
                {
                    "name": "D4",
                    "midi": 62,
                    "time": 164.10797900000185,
                    "velocity": 0.47244094488188976,
                    "duration": 0.10373450000000162
                },
                {
                    "name": "A3",
                    "midi": 57,
                    "time": 164.31544800000185,
                    "velocity": 0.4881889763779528,
                    "duration": 0.41493800000000647
                },
                {
                    "name": "D4",
                    "midi": 62,
                    "time": 164.31544800000185,
                    "velocity": 0.5748031496062992,
                    "duration": 0.6224070000000097
                },
                {
                    "name": "A#3",
                    "midi": 58,
                    "time": 164.73038600000186,
                    "velocity": 0.41732283464566927,
                    "duration": 0.20746900000000323
                },
                {
                    "name": "E4",
                    "midi": 64,
                    "time": 164.73038600000186,
                    "velocity": 0.49606299212598426,
                    "duration": 0.20746900000000323
                },
                {
                    "name": "C4",
                    "midi": 60,
                    "time": 165.14532400000186,
                    "velocity": 0.4409448818897638,
                    "duration": 0.10373450000000162
                },
                {
                    "name": "D4",
                    "midi": 62,
                    "time": 165.14532400000186,
                    "velocity": 0.4409448818897638,
                    "duration": 0.10373450000000162
                },
                {
                    "name": "F#4",
                    "midi": 66,
                    "time": 165.14532400000186,
                    "velocity": 0.5196850393700787,
                    "duration": 0.10373450000000162
                },
                {
                    "name": "C4",
                    "midi": 60,
                    "time": 165.35279300000187,
                    "velocity": 0.4015748031496063,
                    "duration": 0.10373450000000162
                },
                {
                    "name": "D4",
                    "midi": 62,
                    "time": 165.35279300000187,
                    "velocity": 0.4015748031496063,
                    "duration": 0.10373450000000162
                },
                {
                    "name": "F#4",
                    "midi": 66,
                    "time": 165.35279300000187,
                    "velocity": 0.48031496062992124,
                    "duration": 0.10373450000000162
                },
                {
                    "name": "C4",
                    "midi": 60,
                    "time": 165.56026200000187,
                    "velocity": 0.4409448818897638,
                    "duration": 0.10373450000000162
                },
                {
                    "name": "D4",
                    "midi": 62,
                    "time": 165.56026200000187,
                    "velocity": 0.4409448818897638,
                    "duration": 0.10373450000000162
                },
                {
                    "name": "F#4",
                    "midi": 66,
                    "time": 165.56026200000187,
                    "velocity": 0.5196850393700787,
                    "duration": 0.10373450000000162
                },
                {
                    "name": "C4",
                    "midi": 60,
                    "time": 165.76773100000187,
                    "velocity": 0.4015748031496063,
                    "duration": 0.10373450000000162
                },
                {
                    "name": "D4",
                    "midi": 62,
                    "time": 165.76773100000187,
                    "velocity": 0.4015748031496063,
                    "duration": 0.10373450000000162
                },
                {
                    "name": "F#4",
                    "midi": 66,
                    "time": 165.76773100000187,
                    "velocity": 0.47244094488188976,
                    "duration": 0.10373450000000162
                },
                {
                    "name": "C4",
                    "midi": 60,
                    "time": 165.97520000000188,
                    "velocity": 0.4881889763779528,
                    "duration": 0.41493800000000647
                },
                {
                    "name": "D4",
                    "midi": 62,
                    "time": 165.97520000000188,
                    "velocity": 0.4881889763779528,
                    "duration": 0.6224070000000097
                },
                {
                    "name": "F#4",
                    "midi": 66,
                    "time": 165.97520000000188,
                    "velocity": 0.5748031496062992,
                    "duration": 0.41493800000000647
                },
                {
                    "name": "A#3",
                    "midi": 58,
                    "time": 166.39013800000188,
                    "velocity": 0.41732283464566927,
                    "duration": 0.20746900000000323
                },
                {
                    "name": "G4",
                    "midi": 67,
                    "time": 166.39013800000188,
                    "velocity": 0.49606299212598426,
                    "duration": 0.20746900000000323
                },
                {
                    "name": "F4",
                    "midi": 65,
                    "time": 166.8050760000019,
                    "velocity": 0.4409448818897638,
                    "duration": 0.10373450000000162
                },
                {
                    "name": "D4",
                    "midi": 62,
                    "time": 166.8050760000019,
                    "velocity": 0.4409448818897638,
                    "duration": 0.10373450000000162
                },
                {
                    "name": "G#4",
                    "midi": 68,
                    "time": 166.8050760000019,
                    "velocity": 0.5196850393700787,
                    "duration": 0.10373450000000162
                },
                {
                    "name": "F4",
                    "midi": 65,
                    "time": 167.0125450000019,
                    "velocity": 0.4015748031496063,
                    "duration": 0.10373450000000162
                },
                {
                    "name": "D4",
                    "midi": 62,
                    "time": 167.0125450000019,
                    "velocity": 0.4015748031496063,
                    "duration": 0.10373450000000162
                },
                {
                    "name": "G#4",
                    "midi": 68,
                    "time": 167.0125450000019,
                    "velocity": 0.48031496062992124,
                    "duration": 0.10373450000000162
                },
                {
                    "name": "F4",
                    "midi": 65,
                    "time": 167.2200140000019,
                    "velocity": 0.4409448818897638,
                    "duration": 0.10373450000000162
                },
                {
                    "name": "D4",
                    "midi": 62,
                    "time": 167.2200140000019,
                    "velocity": 0.4409448818897638,
                    "duration": 0.10373450000000162
                },
                {
                    "name": "G#4",
                    "midi": 68,
                    "time": 167.2200140000019,
                    "velocity": 0.5196850393700787,
                    "duration": 0.10373450000000162
                },
                {
                    "name": "F4",
                    "midi": 65,
                    "time": 167.4274830000019,
                    "velocity": 0.4015748031496063,
                    "duration": 0.10373450000000162
                },
                {
                    "name": "D4",
                    "midi": 62,
                    "time": 167.4274830000019,
                    "velocity": 0.4015748031496063,
                    "duration": 0.10373450000000162
                },
                {
                    "name": "G#4",
                    "midi": 68,
                    "time": 167.4274830000019,
                    "velocity": 0.47244094488188976,
                    "duration": 0.10373450000000162
                },
                {
                    "name": "C4",
                    "midi": 60,
                    "time": 167.6349520000019,
                    "velocity": 0.4881889763779528,
                    "duration": 0.41493800000000647
                },
                {
                    "name": "F4",
                    "midi": 65,
                    "time": 167.6349520000019,
                    "velocity": 0.4881889763779528,
                    "duration": 0.41493800000000647
                },
                {
                    "name": "A4",
                    "midi": 69,
                    "time": 167.6349520000019,
                    "velocity": 0.5748031496062992,
                    "duration": 0.41493800000000647
                },
                {
                    "name": "C5",
                    "midi": 72,
                    "time": 168.0498900000019,
                    "velocity": 0.4409448818897638,
                    "duration": 0.1383126666666783
                },
                {
                    "name": "A#4",
                    "midi": 70,
                    "time": 168.1882026666686,
                    "velocity": 0.36220472440944884,
                    "duration": 0.1383126666666783
                },
                {
                    "name": "A4",
                    "midi": 69,
                    "time": 168.32651533333527,
                    "velocity": 0.36220472440944884,
                    "duration": 0.1383126666666783
                },
                {
                    "name": "G4",
                    "midi": 67,
                    "time": 168.46482800000194,
                    "velocity": 0.44881889763779526,
                    "duration": 0.1383126666666783
                },
                {
                    "name": "F4",
                    "midi": 65,
                    "time": 168.60314066666862,
                    "velocity": 0.3700787401574803,
                    "duration": 0.1383126666666783
                },
                {
                    "name": "E4",
                    "midi": 64,
                    "time": 168.7414533333353,
                    "velocity": 0.3700787401574803,
                    "duration": 0.1383126666666783
                },
                {
                    "name": "D4",
                    "midi": 62,
                    "time": 168.87976600000198,
                    "velocity": 0.4330708661417323,
                    "duration": 0.1383126666666783
                },
                {
                    "name": "C4",
                    "midi": 60,
                    "time": 169.01807866666866,
                    "velocity": 0.3700787401574803,
                    "duration": 0.1383126666666783
                },
                {
                    "name": "A#3",
                    "midi": 58,
                    "time": 169.15639133333534,
                    "velocity": 0.3700787401574803,
                    "duration": 0.1383126666666783
                },
                {
                    "name": "A3",
                    "midi": 57,
                    "time": 169.294704000002,
                    "velocity": 0.41732283464566927,
                    "duration": 0.1383126666666783
                },
                {
                    "name": "A#3",
                    "midi": 58,
                    "time": 169.4330166666687,
                    "velocity": 0.36220472440944884,
                    "duration": 0.1383126666666783
                },
                {
                    "name": "C4",
                    "midi": 60,
                    "time": 169.57132933333537,
                    "velocity": 0.36220472440944884,
                    "duration": 0.1383126666666783
                },
                {
                    "name": "C5",
                    "midi": 72,
                    "time": 169.70964200000205,
                    "velocity": 0.4409448818897638,
                    "duration": 0.1383126666666783
                },
                {
                    "name": "A#4",
                    "midi": 70,
                    "time": 169.84795466666873,
                    "velocity": 0.36220472440944884,
                    "duration": 0.1383126666666783
                },
                {
                    "name": "A4",
                    "midi": 69,
                    "time": 169.9862673333354,
                    "velocity": 0.36220472440944884,
                    "duration": 0.1383126666666783
                },
                {
                    "name": "G4",
                    "midi": 67,
                    "time": 170.12458000000208,
                    "velocity": 0.44881889763779526,
                    "duration": 0.1383126666666783
                },
                {
                    "name": "F4",
                    "midi": 65,
                    "time": 170.26289266666876,
                    "velocity": 0.3700787401574803,
                    "duration": 0.1383126666666783
                },
                {
                    "name": "E4",
                    "midi": 64,
                    "time": 170.40120533333544,
                    "velocity": 0.3700787401574803,
                    "duration": 0.1383126666666783
                },
                {
                    "name": "D4",
                    "midi": 62,
                    "time": 170.53951800000212,
                    "velocity": 0.4330708661417323,
                    "duration": 0.1383126666666783
                },
                {
                    "name": "C4",
                    "midi": 60,
                    "time": 170.6778306666688,
                    "velocity": 0.3700787401574803,
                    "duration": 0.1383126666666783
                },
                {
                    "name": "A#3",
                    "midi": 58,
                    "time": 170.81614333333548,
                    "velocity": 0.3700787401574803,
                    "duration": 0.1383126666666783
                },
                {
                    "name": "A3",
                    "midi": 57,
                    "time": 170.95445600000215,
                    "velocity": 0.41732283464566927,
                    "duration": 0.1383126666666783
                },
                {
                    "name": "A#3",
                    "midi": 58,
                    "time": 171.09276866666883,
                    "velocity": 0.36220472440944884,
                    "duration": 0.1383126666666783
                },
                {
                    "name": "C4",
                    "midi": 60,
                    "time": 171.2310813333355,
                    "velocity": 0.31496062992125984,
                    "duration": 0.1383126666666783
                },
                {
                    "name": "A3",
                    "midi": 57,
                    "time": 171.3693940000022,
                    "velocity": 0.3543307086614173,
                    "duration": 0.1383126666666783
                },
                {
                    "name": "A#3",
                    "midi": 58,
                    "time": 171.50770666666887,
                    "velocity": 0.30708661417322836,
                    "duration": 0.1383126666666783
                },
                {
                    "name": "C4",
                    "midi": 60,
                    "time": 171.64601933333554,
                    "velocity": 0.28346456692913385,
                    "duration": 0.1383126666666783
                },
                {
                    "name": "A3",
                    "midi": 57,
                    "time": 171.78433200000222,
                    "velocity": 0.3700787401574803,
                    "duration": 0.15214393333334897
                },
                {
                    "name": "A#3",
                    "midi": 58,
                    "time": 171.9226446666689,
                    "velocity": 0.33070866141732286,
                    "duration": 0.15214393333334897
                },
                {
                    "name": "C4",
                    "midi": 60,
                    "time": 172.06095733333558,
                    "velocity": 0.33858267716535434,
                    "duration": 0.1383126666666783
                },
                {
                    "name": "A3",
                    "midi": 57,
                    "time": 172.19927000000226,
                    "velocity": 0.3937007874015748,
                    "duration": 0.15214393333334897
                },
                {
                    "name": "A#3",
                    "midi": 58,
                    "time": 172.33758266666894,
                    "velocity": 0.3543307086614173,
                    "duration": 0.15214393333334897
                },
                {
                    "name": "C4",
                    "midi": 60,
                    "time": 172.47589533333561,
                    "velocity": 0.3228346456692913,
                    "duration": 0.1383126666666783
                },
                {
                    "name": "A3",
                    "midi": 57,
                    "time": 172.6142080000023,
                    "velocity": 0.4251968503937008,
                    "duration": 0.15214393333334897
                },
                {
                    "name": "A#3",
                    "midi": 58,
                    "time": 172.75252066666897,
                    "velocity": 0.3700787401574803,
                    "duration": 0.15214393333334897
                },
                {
                    "name": "C4",
                    "midi": 60,
                    "time": 172.89083333333565,
                    "velocity": 0.33858267716535434,
                    "duration": 0.1383126666666783
                },
                {
                    "name": "A3",
                    "midi": 57,
                    "time": 173.02914600000233,
                    "velocity": 0.4409448818897638,
                    "duration": 0.15214393333334897
                },
                {
                    "name": "A#3",
                    "midi": 58,
                    "time": 173.167458666669,
                    "velocity": 0.3937007874015748,
                    "duration": 0.15214393333334897
                },
                {
                    "name": "C4",
                    "midi": 60,
                    "time": 173.30577133333568,
                    "velocity": 0.36220472440944884,
                    "duration": 0.1383126666666783
                },
                {
                    "name": "A3",
                    "midi": 57,
                    "time": 173.44408400000236,
                    "velocity": 0.4645669291338583,
                    "duration": 0.15214393333334897
                },
                {
                    "name": "A#3",
                    "midi": 58,
                    "time": 173.58239666666904,
                    "velocity": 0.4094488188976378,
                    "duration": 0.15214393333334897
                },
                {
                    "name": "C4",
                    "midi": 60,
                    "time": 173.72070933333572,
                    "velocity": 0.36220472440944884,
                    "duration": 0.1383126666666783
                },
                {
                    "name": "A3",
                    "midi": 57,
                    "time": 173.8590220000024,
                    "velocity": 0.49606299212598426,
                    "duration": 0.15214393333334897
                },
                {
                    "name": "A#3",
                    "midi": 58,
                    "time": 173.99733466666908,
                    "velocity": 0.4330708661417323,
                    "duration": 0.15214393333334897
                },
                {
                    "name": "C4",
                    "midi": 60,
                    "time": 174.13564733333575,
                    "velocity": 0.3700787401574803,
                    "duration": 0.1383126666666783
                },
                {
                    "name": "F3",
                    "midi": 53,
                    "time": 174.27396000000243,
                    "velocity": 0.4251968503937008,
                    "duration": 0.8298760000000129
                },
                {
                    "name": "G#3",
                    "midi": 56,
                    "time": 174.27396000000243,
                    "velocity": 0.4251968503937008,
                    "duration": 0.8298760000000129
                },
                {
                    "name": "C#4",
                    "midi": 61,
                    "time": 174.27396000000243,
                    "velocity": 0.5511811023622047,
                    "duration": 0.8298760000000129
                },
                {
                    "name": "G#3",
                    "midi": 56,
                    "time": 175.10383600000245,
                    "velocity": 0.29133858267716534,
                    "duration": 0.10373450000000162
                },
                {
                    "name": "C#4",
                    "midi": 61,
                    "time": 175.10383600000245,
                    "velocity": 0.29133858267716534,
                    "duration": 0.10373450000000162
                },
                {
                    "name": "F4",
                    "midi": 65,
                    "time": 175.10383600000245,
                    "velocity": 0.3464566929133858,
                    "duration": 0.10373450000000162
                },
                {
                    "name": "G#3",
                    "midi": 56,
                    "time": 175.31130500000245,
                    "velocity": 0.25984251968503935,
                    "duration": 0.10373450000000162
                },
                {
                    "name": "C#4",
                    "midi": 61,
                    "time": 175.31130500000245,
                    "velocity": 0.25984251968503935,
                    "duration": 0.10373450000000162
                },
                {
                    "name": "F4",
                    "midi": 65,
                    "time": 175.31130500000245,
                    "velocity": 0.30708661417322836,
                    "duration": 0.10373450000000162
                },
                {
                    "name": "G#3",
                    "midi": 56,
                    "time": 175.51877400000245,
                    "velocity": 0.25984251968503935,
                    "duration": 0.10373450000000162
                },
                {
                    "name": "C#4",
                    "midi": 61,
                    "time": 175.51877400000245,
                    "velocity": 0.25984251968503935,
                    "duration": 0.10373450000000162
                },
                {
                    "name": "F4",
                    "midi": 65,
                    "time": 175.51877400000245,
                    "velocity": 0.30708661417322836,
                    "duration": 0.10373450000000162
                },
                {
                    "name": "G#3",
                    "midi": 56,
                    "time": 175.72624300000246,
                    "velocity": 0.25984251968503935,
                    "duration": 0.10373450000000162
                },
                {
                    "name": "C#4",
                    "midi": 61,
                    "time": 175.72624300000246,
                    "velocity": 0.25984251968503935,
                    "duration": 0.10373450000000162
                },
                {
                    "name": "F4",
                    "midi": 65,
                    "time": 175.72624300000246,
                    "velocity": 0.30708661417322836,
                    "duration": 0.10373450000000162
                },
                {
                    "name": "C#4",
                    "midi": 61,
                    "time": 175.93371200000246,
                    "velocity": 0.2992125984251969,
                    "duration": 0.8298760000000129
                },
                {
                    "name": "F4",
                    "midi": 65,
                    "time": 175.93371200000246,
                    "velocity": 0.2992125984251969,
                    "duration": 0.8298760000000129
                },
                {
                    "name": "G#4",
                    "midi": 68,
                    "time": 175.93371200000246,
                    "velocity": 0.3543307086614173,
                    "duration": 0.8298760000000129
                },
                {
                    "name": "G#4",
                    "midi": 68,
                    "time": 176.76358800000247,
                    "velocity": 0.36220472440944884,
                    "duration": 0.10373450000000162
                },
                {
                    "name": "F4",
                    "midi": 65,
                    "time": 176.76358800000247,
                    "velocity": 0.3464566929133858,
                    "duration": 0.10373450000000162
                },
                {
                    "name": "C#5",
                    "midi": 73,
                    "time": 176.76358800000247,
                    "velocity": 0.4094488188976378,
                    "duration": 0.10373450000000162
                },
                {
                    "name": "F4",
                    "midi": 65,
                    "time": 176.97105700000247,
                    "velocity": 0.30708661417322836,
                    "duration": 0.10373450000000162
                },
                {
                    "name": "G#4",
                    "midi": 68,
                    "time": 176.97105700000247,
                    "velocity": 0.30708661417322836,
                    "duration": 0.10373450000000162
                },
                {
                    "name": "C#5",
                    "midi": 73,
                    "time": 176.97105700000247,
                    "velocity": 0.36220472440944884,
                    "duration": 0.10373450000000162
                },
                {
                    "name": "F4",
                    "midi": 65,
                    "time": 177.17852600000248,
                    "velocity": 0.30708661417322836,
                    "duration": 0.10373450000000162
                },
                {
                    "name": "G#4",
                    "midi": 68,
                    "time": 177.17852600000248,
                    "velocity": 0.30708661417322836,
                    "duration": 0.10373450000000162
                },
                {
                    "name": "C#5",
                    "midi": 73,
                    "time": 177.17852600000248,
                    "velocity": 0.36220472440944884,
                    "duration": 0.10373450000000162
                },
                {
                    "name": "F4",
                    "midi": 65,
                    "time": 177.38599500000248,
                    "velocity": 0.30708661417322836,
                    "duration": 0.10373450000000162
                },
                {
                    "name": "G#4",
                    "midi": 68,
                    "time": 177.38599500000248,
                    "velocity": 0.30708661417322836,
                    "duration": 0.10373450000000162
                },
                {
                    "name": "C#5",
                    "midi": 73,
                    "time": 177.38599500000248,
                    "velocity": 0.36220472440944884,
                    "duration": 0.10373450000000162
                },
                {
                    "name": "E4",
                    "midi": 64,
                    "time": 177.59346400000248,
                    "velocity": 0.4094488188976378,
                    "duration": 0.8298760000000129
                },
                {
                    "name": "G4",
                    "midi": 67,
                    "time": 177.59346400000248,
                    "velocity": 0.4094488188976378,
                    "duration": 0.8298760000000129
                },
                {
                    "name": "A4",
                    "midi": 69,
                    "time": 177.59346400000248,
                    "velocity": 0.4094488188976378,
                    "duration": 0.8298760000000129
                },
                {
                    "name": "C#5",
                    "midi": 73,
                    "time": 177.59346400000248,
                    "velocity": 0.4881889763779528,
                    "duration": 0.8298760000000129
                },
                {
                    "name": "G4",
                    "midi": 67,
                    "time": 178.4233400000025,
                    "velocity": 0.4330708661417323,
                    "duration": 0.10373450000000162
                },
                {
                    "name": "C#5",
                    "midi": 73,
                    "time": 178.4233400000025,
                    "velocity": 0.4566929133858268,
                    "duration": 0.10373450000000162
                },
                {
                    "name": "A4",
                    "midi": 69,
                    "time": 178.4233400000025,
                    "velocity": 0.4330708661417323,
                    "duration": 0.10373450000000162
                },
                {
                    "name": "E5",
                    "midi": 76,
                    "time": 178.4233400000025,
                    "velocity": 0.5196850393700787,
                    "duration": 0.10373450000000162
                },
                {
                    "name": "G4",
                    "midi": 67,
                    "time": 178.6308090000025,
                    "velocity": 0.3858267716535433,
                    "duration": 0.10373450000000162
                },
                {
                    "name": "A4",
                    "midi": 69,
                    "time": 178.6308090000025,
                    "velocity": 0.3858267716535433,
                    "duration": 0.10373450000000162
                },
                {
                    "name": "C#5",
                    "midi": 73,
                    "time": 178.6308090000025,
                    "velocity": 0.3858267716535433,
                    "duration": 0.10373450000000162
                },
                {
                    "name": "E5",
                    "midi": 76,
                    "time": 178.6308090000025,
                    "velocity": 0.4566929133858268,
                    "duration": 0.10373450000000162
                },
                {
                    "name": "G4",
                    "midi": 67,
                    "time": 178.8382780000025,
                    "velocity": 0.3937007874015748,
                    "duration": 0.10373450000000162
                },
                {
                    "name": "A4",
                    "midi": 69,
                    "time": 178.8382780000025,
                    "velocity": 0.3937007874015748,
                    "duration": 0.10373450000000162
                },
                {
                    "name": "C#5",
                    "midi": 73,
                    "time": 178.8382780000025,
                    "velocity": 0.3937007874015748,
                    "duration": 0.10373450000000162
                },
                {
                    "name": "E5",
                    "midi": 76,
                    "time": 178.8382780000025,
                    "velocity": 0.4566929133858268,
                    "duration": 0.10373450000000162
                },
                {
                    "name": "G4",
                    "midi": 67,
                    "time": 179.0457470000025,
                    "velocity": 0.3937007874015748,
                    "duration": 0.10373450000000162
                },
                {
                    "name": "A4",
                    "midi": 69,
                    "time": 179.0457470000025,
                    "velocity": 0.3937007874015748,
                    "duration": 0.10373450000000162
                },
                {
                    "name": "C#5",
                    "midi": 73,
                    "time": 179.0457470000025,
                    "velocity": 0.3937007874015748,
                    "duration": 0.10373450000000162
                },
                {
                    "name": "E5",
                    "midi": 76,
                    "time": 179.0457470000025,
                    "velocity": 0.4645669291338583,
                    "duration": 0.10373450000000162
                },
                {
                    "name": "A4",
                    "midi": 69,
                    "time": 179.2532160000025,
                    "velocity": 0.5275590551181102,
                    "duration": 0.8298760000000129
                },
                {
                    "name": "C#5",
                    "midi": 73,
                    "time": 179.2532160000025,
                    "velocity": 0.5275590551181102,
                    "duration": 0.8298760000000129
                },
                {
                    "name": "E5",
                    "midi": 76,
                    "time": 179.2532160000025,
                    "velocity": 0.5275590551181102,
                    "duration": 0.8298760000000129
                },
                {
                    "name": "G5",
                    "midi": 79,
                    "time": 179.2532160000025,
                    "velocity": 0.5275590551181102,
                    "duration": 0.8298760000000129
                },
                {
                    "name": "A5",
                    "midi": 81,
                    "time": 179.2532160000025,
                    "velocity": 0.6220472440944882,
                    "duration": 0.8298760000000129
                },
                {
                    "name": "E5",
                    "midi": 76,
                    "time": 180.08309200000252,
                    "velocity": 0.5905511811023622,
                    "duration": 0.10373450000000162
                },
                {
                    "name": "A5",
                    "midi": 81,
                    "time": 180.08309200000252,
                    "velocity": 0.6220472440944882,
                    "duration": 0.10373450000000162
                },
                {
                    "name": "G5",
                    "midi": 79,
                    "time": 180.08309200000252,
                    "velocity": 0.5905511811023622,
                    "duration": 0.10373450000000162
                },
                {
                    "name": "C#6",
                    "midi": 85,
                    "time": 180.08309200000252,
                    "velocity": 0.7086614173228346,
                    "duration": 0.10373450000000162
                },
                {
                    "name": "E5",
                    "midi": 76,
                    "time": 180.29056100000253,
                    "velocity": 0.5433070866141733,
                    "duration": 0.10373450000000162
                },
                {
                    "name": "G5",
                    "midi": 79,
                    "time": 180.29056100000253,
                    "velocity": 0.5433070866141733,
                    "duration": 0.10373450000000162
                },
                {
                    "name": "A5",
                    "midi": 81,
                    "time": 180.29056100000253,
                    "velocity": 0.5433070866141733,
                    "duration": 0.10373450000000162
                },
                {
                    "name": "C#6",
                    "midi": 85,
                    "time": 180.29056100000253,
                    "velocity": 0.6377952755905512,
                    "duration": 0.10373450000000162
                },
                {
                    "name": "E5",
                    "midi": 76,
                    "time": 180.49803000000253,
                    "velocity": 0.5669291338582677,
                    "duration": 0.10373450000000162
                },
                {
                    "name": "G5",
                    "midi": 79,
                    "time": 180.49803000000253,
                    "velocity": 0.5669291338582677,
                    "duration": 0.10373450000000162
                },
                {
                    "name": "A5",
                    "midi": 81,
                    "time": 180.49803000000253,
                    "velocity": 0.5669291338582677,
                    "duration": 0.10373450000000162
                },
                {
                    "name": "C#6",
                    "midi": 85,
                    "time": 180.49803000000253,
                    "velocity": 0.6614173228346457,
                    "duration": 0.10373450000000162
                },
                {
                    "name": "E5",
                    "midi": 76,
                    "time": 180.70549900000253,
                    "velocity": 0.5905511811023622,
                    "duration": 0.10373450000000162
                },
                {
                    "name": "G5",
                    "midi": 79,
                    "time": 180.70549900000253,
                    "velocity": 0.5905511811023622,
                    "duration": 0.10373450000000162
                },
                {
                    "name": "A5",
                    "midi": 81,
                    "time": 180.70549900000253,
                    "velocity": 0.5905511811023622,
                    "duration": 0.10373450000000162
                },
                {
                    "name": "C#6",
                    "midi": 85,
                    "time": 180.70549900000253,
                    "velocity": 0.6850393700787402,
                    "duration": 0.10373450000000162
                },
                {
                    "name": "D6",
                    "midi": 86,
                    "time": 180.91296800000254,
                    "velocity": 0.8267716535433071,
                    "duration": 0.8298760000000129
                },
                {
                    "name": "A5",
                    "midi": 81,
                    "time": 180.91296800000254,
                    "velocity": 0.7007874015748031,
                    "duration": 0.8298760000000129
                },
                {
                    "name": "F#5",
                    "midi": 78,
                    "time": 180.91296800000254,
                    "velocity": 0.7007874015748031,
                    "duration": 0.8298760000000129
                },
                {
                    "name": "D5",
                    "midi": 74,
                    "time": 180.91296800000254,
                    "velocity": 0.7007874015748031,
                    "duration": 0.8298760000000129
                },
                {
                    "name": "A3",
                    "midi": 57,
                    "time": 181.74284400000255,
                    "velocity": 0.4251968503937008,
                    "duration": 0.10373450000000162
                },
                {
                    "name": "D4",
                    "midi": 62,
                    "time": 181.74284400000255,
                    "velocity": 0.49606299212598426,
                    "duration": 0.10373450000000162
                },
                {
                    "name": "A3",
                    "midi": 57,
                    "time": 181.95031300000255,
                    "velocity": 0.3858267716535433,
                    "duration": 0.10373450000000162
                },
                {
                    "name": "D4",
                    "midi": 62,
                    "time": 181.95031300000255,
                    "velocity": 0.4645669291338583,
                    "duration": 0.10373450000000162
                },
                {
                    "name": "A3",
                    "midi": 57,
                    "time": 182.15778200000256,
                    "velocity": 0.4251968503937008,
                    "duration": 0.10373450000000162
                },
                {
                    "name": "D4",
                    "midi": 62,
                    "time": 182.15778200000256,
                    "velocity": 0.49606299212598426,
                    "duration": 0.10373450000000162
                },
                {
                    "name": "A3",
                    "midi": 57,
                    "time": 182.36525100000256,
                    "velocity": 0.3858267716535433,
                    "duration": 0.10373450000000162
                },
                {
                    "name": "D4",
                    "midi": 62,
                    "time": 182.36525100000256,
                    "velocity": 0.4566929133858268,
                    "duration": 0.10373450000000162
                },
                {
                    "name": "A3",
                    "midi": 57,
                    "time": 182.57272000000256,
                    "velocity": 0.47244094488188976,
                    "duration": 0.41493800000000647
                },
                {
                    "name": "D4",
                    "midi": 62,
                    "time": 182.57272000000256,
                    "velocity": 0.5511811023622047,
                    "duration": 0.6224070000000097
                },
                {
                    "name": "B3",
                    "midi": 59,
                    "time": 182.98765800000257,
                    "velocity": 0.4015748031496063,
                    "duration": 0.20746900000000323
                },
                {
                    "name": "E4",
                    "midi": 64,
                    "time": 182.98765800000257,
                    "velocity": 0.48031496062992124,
                    "duration": 0.20746900000000323
                },
                {
                    "name": "A3",
                    "midi": 57,
                    "time": 183.40259600000257,
                    "velocity": 0.48031496062992124,
                    "duration": 0.1383126666666783
                },
                {
                    "name": "B3",
                    "midi": 59,
                    "time": 183.54090866666925,
                    "velocity": 0.4330708661417323,
                    "duration": 0.1383126666666783
                },
                {
                    "name": "C4",
                    "midi": 60,
                    "time": 183.67922133333593,
                    "velocity": 0.4330708661417323,
                    "duration": 0.1383126666666783
                },
                {
                    "name": "D4",
                    "midi": 62,
                    "time": 183.8175340000026,
                    "velocity": 0.48031496062992124,
                    "duration": 0.1383126666666783
                },
                {
                    "name": "E4",
                    "midi": 64,
                    "time": 183.9558466666693,
                    "velocity": 0.4409448818897638,
                    "duration": 0.1383126666666783
                },
                {
                    "name": "F#4",
                    "midi": 66,
                    "time": 184.09415933333597,
                    "velocity": 0.4409448818897638,
                    "duration": 0.1383126666666783
                },
                {
                    "name": "A#3",
                    "midi": 58,
                    "time": 184.23247200000264,
                    "velocity": 0.48031496062992124,
                    "duration": 0.20746900000000323
                },
                {
                    "name": "F#4",
                    "midi": 66,
                    "time": 184.43994100000265,
                    "velocity": 0.4094488188976378,
                    "duration": 0.20746900000000323
                },
                {
                    "name": "B3",
                    "midi": 59,
                    "time": 184.64741000000265,
                    "velocity": 0.48031496062992124,
                    "duration": 0.20746900000000323
                },
                {
                    "name": "G4",
                    "midi": 67,
                    "time": 184.85487900000265,
                    "velocity": 0.4330708661417323,
                    "duration": 0.20746900000000323
                },
                {
                    "name": "E4",
                    "midi": 64,
                    "time": 185.06234800000266,
                    "velocity": 0.4251968503937008,
                    "duration": 0.10373450000000162
                },
                {
                    "name": "G4",
                    "midi": 67,
                    "time": 185.06234800000266,
                    "velocity": 0.4251968503937008,
                    "duration": 0.10373450000000162
                },
                {
                    "name": "A4",
                    "midi": 69,
                    "time": 185.06234800000266,
                    "velocity": 0.49606299212598426,
                    "duration": 0.10373450000000162
                },
                {
                    "name": "E4",
                    "midi": 64,
                    "time": 185.26981700000266,
                    "velocity": 0.3858267716535433,
                    "duration": 0.10373450000000162
                },
                {
                    "name": "G4",
                    "midi": 67,
                    "time": 185.26981700000266,
                    "velocity": 0.3858267716535433,
                    "duration": 0.10373450000000162
                },
                {
                    "name": "A4",
                    "midi": 69,
                    "time": 185.26981700000266,
                    "velocity": 0.4645669291338583,
                    "duration": 0.10373450000000162
                },
                {
                    "name": "E4",
                    "midi": 64,
                    "time": 185.47728600000266,
                    "velocity": 0.4251968503937008,
                    "duration": 0.10373450000000162
                },
                {
                    "name": "G4",
                    "midi": 67,
                    "time": 185.47728600000266,
                    "velocity": 0.4251968503937008,
                    "duration": 0.10373450000000162
                },
                {
                    "name": "A4",
                    "midi": 69,
                    "time": 185.47728600000266,
                    "velocity": 0.49606299212598426,
                    "duration": 0.10373450000000162
                },
                {
                    "name": "E4",
                    "midi": 64,
                    "time": 185.68475500000267,
                    "velocity": 0.3858267716535433,
                    "duration": 0.10373450000000162
                },
                {
                    "name": "G4",
                    "midi": 67,
                    "time": 185.68475500000267,
                    "velocity": 0.3858267716535433,
                    "duration": 0.10373450000000162
                },
                {
                    "name": "A4",
                    "midi": 69,
                    "time": 185.68475500000267,
                    "velocity": 0.4566929133858268,
                    "duration": 0.10373450000000162
                },
                {
                    "name": "G4",
                    "midi": 67,
                    "time": 185.89222400000267,
                    "velocity": 0.47244094488188976,
                    "duration": 0.6224070000000097
                },
                {
                    "name": "E4",
                    "midi": 64,
                    "time": 185.89222400000267,
                    "velocity": 0.47244094488188976,
                    "duration": 0.41493800000000647
                },
                {
                    "name": "A4",
                    "midi": 69,
                    "time": 185.89222400000267,
                    "velocity": 0.5511811023622047,
                    "duration": 0.41493800000000647
                },
                {
                    "name": "D4",
                    "midi": 62,
                    "time": 186.30716200000268,
                    "velocity": 0.4015748031496063,
                    "duration": 0.20746900000000323
                },
                {
                    "name": "B4",
                    "midi": 71,
                    "time": 186.30716200000268,
                    "velocity": 0.48031496062992124,
                    "duration": 0.20746900000000323
                },
                {
                    "name": "D4",
                    "midi": 62,
                    "time": 186.72210000000268,
                    "velocity": 0.48031496062992124,
                    "duration": 0.1383126666666783
                },
                {
                    "name": "E4",
                    "midi": 64,
                    "time": 186.86041266666936,
                    "velocity": 0.4330708661417323,
                    "duration": 0.1383126666666783
                },
                {
                    "name": "F#4",
                    "midi": 66,
                    "time": 186.99872533333604,
                    "velocity": 0.4330708661417323,
                    "duration": 0.1383126666666783
                },
                {
                    "name": "G4",
                    "midi": 67,
                    "time": 187.13703800000272,
                    "velocity": 0.48031496062992124,
                    "duration": 0.1383126666666783
                },
                {
                    "name": "A4",
                    "midi": 69,
                    "time": 187.2753506666694,
                    "velocity": 0.4409448818897638,
                    "duration": 0.1383126666666783
                },
                {
                    "name": "B4",
                    "midi": 71,
                    "time": 187.41366333333607,
                    "velocity": 0.4409448818897638,
                    "duration": 0.1383126666666783
                },
                {
                    "name": "D#4",
                    "midi": 63,
                    "time": 187.55197600000275,
                    "velocity": 0.48031496062992124,
                    "duration": 0.20746900000000323
                },
                {
                    "name": "B4",
                    "midi": 71,
                    "time": 187.75944500000276,
                    "velocity": 0.4094488188976378,
                    "duration": 0.20746900000000323
                },
                {
                    "name": "E4",
                    "midi": 64,
                    "time": 187.96691400000276,
                    "velocity": 0.48031496062992124,
                    "duration": 0.20746900000000323
                },
                {
                    "name": "C5",
                    "midi": 72,
                    "time": 188.17438300000276,
                    "velocity": 0.4330708661417323,
                    "duration": 0.20746900000000323
                },
                {
                    "name": "G4",
                    "midi": 67,
                    "time": 188.38185200000277,
                    "velocity": 0.4251968503937008,
                    "duration": 0.10373450000000162
                },
                {
                    "name": "A#4",
                    "midi": 70,
                    "time": 188.38185200000277,
                    "velocity": 0.4251968503937008,
                    "duration": 0.10373450000000162
                },
                {
                    "name": "C#5",
                    "midi": 73,
                    "time": 188.38185200000277,
                    "velocity": 0.49606299212598426,
                    "duration": 0.10373450000000162
                },
                {
                    "name": "G4",
                    "midi": 67,
                    "time": 188.58932100000277,
                    "velocity": 0.3858267716535433,
                    "duration": 0.10373450000000162
                },
                {
                    "name": "A#4",
                    "midi": 70,
                    "time": 188.58932100000277,
                    "velocity": 0.3858267716535433,
                    "duration": 0.10373450000000162
                },
                {
                    "name": "C#5",
                    "midi": 73,
                    "time": 188.58932100000277,
                    "velocity": 0.4645669291338583,
                    "duration": 0.10373450000000162
                },
                {
                    "name": "G4",
                    "midi": 67,
                    "time": 188.79679000000277,
                    "velocity": 0.4251968503937008,
                    "duration": 0.10373450000000162
                },
                {
                    "name": "A#4",
                    "midi": 70,
                    "time": 188.79679000000277,
                    "velocity": 0.4251968503937008,
                    "duration": 0.10373450000000162
                },
                {
                    "name": "C#5",
                    "midi": 73,
                    "time": 188.79679000000277,
                    "velocity": 0.49606299212598426,
                    "duration": 0.10373450000000162
                },
                {
                    "name": "G4",
                    "midi": 67,
                    "time": 189.00425900000278,
                    "velocity": 0.3858267716535433,
                    "duration": 0.10373450000000162
                },
                {
                    "name": "A#4",
                    "midi": 70,
                    "time": 189.00425900000278,
                    "velocity": 0.3858267716535433,
                    "duration": 0.10373450000000162
                },
                {
                    "name": "C#5",
                    "midi": 73,
                    "time": 189.00425900000278,
                    "velocity": 0.4566929133858268,
                    "duration": 0.10373450000000162
                },
                {
                    "name": "A#4",
                    "midi": 70,
                    "time": 189.21172800000278,
                    "velocity": 0.47244094488188976,
                    "duration": 0.6224070000000097
                },
                {
                    "name": "G4",
                    "midi": 67,
                    "time": 189.21172800000278,
                    "velocity": 0.47244094488188976,
                    "duration": 0.41493800000000647
                },
                {
                    "name": "C#5",
                    "midi": 73,
                    "time": 189.21172800000278,
                    "velocity": 0.5511811023622047,
                    "duration": 0.41493800000000647
                },
                {
                    "name": "F4",
                    "midi": 65,
                    "time": 189.62666600000279,
                    "velocity": 0.4015748031496063,
                    "duration": 0.20746900000000323
                },
                {
                    "name": "D5",
                    "midi": 74,
                    "time": 189.62666600000279,
                    "velocity": 0.48031496062992124,
                    "duration": 0.20746900000000323
                },
                {
                    "name": "F4",
                    "midi": 65,
                    "time": 190.0416040000028,
                    "velocity": 0.48031496062992124,
                    "duration": 0.1383126666666783
                },
                {
                    "name": "G4",
                    "midi": 67,
                    "time": 190.17991666666947,
                    "velocity": 0.4330708661417323,
                    "duration": 0.1383126666666783
                },
                {
                    "name": "A4",
                    "midi": 69,
                    "time": 190.31822933333615,
                    "velocity": 0.4330708661417323,
                    "duration": 0.1383126666666783
                },
                {
                    "name": "B4",
                    "midi": 71,
                    "time": 190.45654200000283,
                    "velocity": 0.48031496062992124,
                    "duration": 0.1383126666666783
                },
                {
                    "name": "C5",
                    "midi": 72,
                    "time": 190.5948546666695,
                    "velocity": 0.4409448818897638,
                    "duration": 0.1383126666666783
                },
                {
                    "name": "D5",
                    "midi": 74,
                    "time": 190.73316733333618,
                    "velocity": 0.4409448818897638,
                    "duration": 0.1383126666666783
                },
                {
                    "name": "D#5",
                    "midi": 75,
                    "time": 190.87148000000286,
                    "velocity": 0.48031496062992124,
                    "duration": 0.20746900000000323
                },
                {
                    "name": "G4",
                    "midi": 67,
                    "time": 191.07894900000286,
                    "velocity": 0.3937007874015748,
                    "duration": 0.20746900000000323
                },
                {
                    "name": "D5",
                    "midi": 74,
                    "time": 191.28641800000287,
                    "velocity": 0.48031496062992124,
                    "duration": 0.20746900000000323
                },
                {
                    "name": "F4",
                    "midi": 65,
                    "time": 191.49388700000287,
                    "velocity": 0.4015748031496063,
                    "duration": 0.20746900000000323
                },
                {
                    "name": "E4",
                    "midi": 64,
                    "time": 191.70135600000287,
                    "velocity": 0.3543307086614173,
                    "duration": 0.10373450000000162
                },
                {
                    "name": "G4",
                    "midi": 67,
                    "time": 191.70135600000287,
                    "velocity": 0.3543307086614173,
                    "duration": 0.10373450000000162
                },
                {
                    "name": "A#4",
                    "midi": 70,
                    "time": 191.70135600000287,
                    "velocity": 0.3543307086614173,
                    "duration": 0.10373450000000162
                },
                {
                    "name": "C#5",
                    "midi": 73,
                    "time": 191.70135600000287,
                    "velocity": 0.41732283464566927,
                    "duration": 0.10373450000000162
                },
                {
                    "name": "E4",
                    "midi": 64,
                    "time": 191.90882500000288,
                    "velocity": 0.3228346456692913,
                    "duration": 0.10373450000000162
                },
                {
                    "name": "G4",
                    "midi": 67,
                    "time": 191.90882500000288,
                    "velocity": 0.3228346456692913,
                    "duration": 0.10373450000000162
                },
                {
                    "name": "A#4",
                    "midi": 70,
                    "time": 191.90882500000288,
                    "velocity": 0.3228346456692913,
                    "duration": 0.10373450000000162
                },
                {
                    "name": "C#5",
                    "midi": 73,
                    "time": 191.90882500000288,
                    "velocity": 0.3937007874015748,
                    "duration": 0.10373450000000162
                },
                {
                    "name": "E4",
                    "midi": 64,
                    "time": 192.11629400000288,
                    "velocity": 0.3543307086614173,
                    "duration": 0.10373450000000162
                },
                {
                    "name": "G4",
                    "midi": 67,
                    "time": 192.11629400000288,
                    "velocity": 0.3543307086614173,
                    "duration": 0.10373450000000162
                },
                {
                    "name": "A#4",
                    "midi": 70,
                    "time": 192.11629400000288,
                    "velocity": 0.3543307086614173,
                    "duration": 0.10373450000000162
                },
                {
                    "name": "C#5",
                    "midi": 73,
                    "time": 192.11629400000288,
                    "velocity": 0.41732283464566927,
                    "duration": 0.10373450000000162
                },
                {
                    "name": "E4",
                    "midi": 64,
                    "time": 192.32376300000288,
                    "velocity": 0.3228346456692913,
                    "duration": 0.10373450000000162
                },
                {
                    "name": "G4",
                    "midi": 67,
                    "time": 192.32376300000288,
                    "velocity": 0.3228346456692913,
                    "duration": 0.10373450000000162
                },
                {
                    "name": "A#4",
                    "midi": 70,
                    "time": 192.32376300000288,
                    "velocity": 0.3228346456692913,
                    "duration": 0.10373450000000162
                },
                {
                    "name": "C#5",
                    "midi": 73,
                    "time": 192.32376300000288,
                    "velocity": 0.3858267716535433,
                    "duration": 0.10373450000000162
                },
                {
                    "name": "E4",
                    "midi": 64,
                    "time": 192.5312320000029,
                    "velocity": 0.4015748031496063,
                    "duration": 0.41493800000000647
                },
                {
                    "name": "A#4",
                    "midi": 70,
                    "time": 192.5312320000029,
                    "velocity": 0.4015748031496063,
                    "duration": 0.6224070000000097
                },
                {
                    "name": "G4",
                    "midi": 67,
                    "time": 192.5312320000029,
                    "velocity": 0.4015748031496063,
                    "duration": 0.41493800000000647
                },
                {
                    "name": "C#5",
                    "midi": 73,
                    "time": 192.5312320000029,
                    "velocity": 0.4645669291338583,
                    "duration": 0.41493800000000647
                },
                {
                    "name": "F4",
                    "midi": 65,
                    "time": 192.9461700000029,
                    "velocity": 0.33858267716535434,
                    "duration": 0.20746900000000323
                },
                {
                    "name": "D5",
                    "midi": 74,
                    "time": 192.9461700000029,
                    "velocity": 0.4015748031496063,
                    "duration": 0.20746900000000323
                },
                {
                    "name": "F4",
                    "midi": 65,
                    "time": 193.3611080000029,
                    "velocity": 0.4015748031496063,
                    "duration": 0.1383126666666783
                },
                {
                    "name": "G4",
                    "midi": 67,
                    "time": 193.49942066666958,
                    "velocity": 0.36220472440944884,
                    "duration": 0.1383126666666783
                },
                {
                    "name": "A4",
                    "midi": 69,
                    "time": 193.63773333333626,
                    "velocity": 0.36220472440944884,
                    "duration": 0.1383126666666783
                },
                {
                    "name": "A#4",
                    "midi": 70,
                    "time": 193.77604600000294,
                    "velocity": 0.4015748031496063,
                    "duration": 0.1383126666666783
                },
                {
                    "name": "C5",
                    "midi": 72,
                    "time": 193.9143586666696,
                    "velocity": 0.3700787401574803,
                    "duration": 0.1383126666666783
                },
                {
                    "name": "D5",
                    "midi": 74,
                    "time": 194.0526713333363,
                    "velocity": 0.3700787401574803,
                    "duration": 0.1383126666666783
                },
                {
                    "name": "G5",
                    "midi": 79,
                    "time": 194.19098400000297,
                    "velocity": 0.4015748031496063,
                    "duration": 0.20746900000000323
                },
                {
                    "name": "D#5",
                    "midi": 75,
                    "time": 194.19098400000297,
                    "velocity": 0.33858267716535434,
                    "duration": 0.20746900000000323
                },
                {
                    "name": "G4",
                    "midi": 67,
                    "time": 194.39845300000297,
                    "velocity": 0.3464566929133858,
                    "duration": 0.20746900000000323
                },
                {
                    "name": "F5",
                    "midi": 77,
                    "time": 194.60592200000298,
                    "velocity": 0.4015748031496063,
                    "duration": 0.20746900000000323
                },
                {
                    "name": "D5",
                    "midi": 74,
                    "time": 194.60592200000298,
                    "velocity": 0.33858267716535434,
                    "duration": 0.20746900000000323
                },
                {
                    "name": "F4",
                    "midi": 65,
                    "time": 194.81339100000298,
                    "velocity": 0.36220472440944884,
                    "duration": 0.20746900000000323
                },
                {
                    "name": "E4",
                    "midi": 64,
                    "time": 195.02086000000298,
                    "velocity": 0.31496062992125984,
                    "duration": 0.10373450000000162
                },
                {
                    "name": "G4",
                    "midi": 67,
                    "time": 195.02086000000298,
                    "velocity": 0.31496062992125984,
                    "duration": 0.10373450000000162
                },
                {
                    "name": "A#4",
                    "midi": 70,
                    "time": 195.02086000000298,
                    "velocity": 0.31496062992125984,
                    "duration": 0.10373450000000162
                },
                {
                    "name": "C#5",
                    "midi": 73,
                    "time": 195.02086000000298,
                    "velocity": 0.41732283464566927,
                    "duration": 0.10373450000000162
                },
                {
                    "name": "E4",
                    "midi": 64,
                    "time": 195.228329000003,
                    "velocity": 0.29133858267716534,
                    "duration": 0.10373450000000162
                },
                {
                    "name": "G4",
                    "midi": 67,
                    "time": 195.228329000003,
                    "velocity": 0.29133858267716534,
                    "duration": 0.10373450000000162
                },
                {
                    "name": "A#4",
                    "midi": 70,
                    "time": 195.228329000003,
                    "velocity": 0.29133858267716534,
                    "duration": 0.10373450000000162
                },
                {
                    "name": "C#5",
                    "midi": 73,
                    "time": 195.228329000003,
                    "velocity": 0.3937007874015748,
                    "duration": 0.10373450000000162
                },
                {
                    "name": "E4",
                    "midi": 64,
                    "time": 195.435798000003,
                    "velocity": 0.31496062992125984,
                    "duration": 0.10373450000000162
                },
                {
                    "name": "G4",
                    "midi": 67,
                    "time": 195.435798000003,
                    "velocity": 0.31496062992125984,
                    "duration": 0.10373450000000162
                },
                {
                    "name": "A#4",
                    "midi": 70,
                    "time": 195.435798000003,
                    "velocity": 0.31496062992125984,
                    "duration": 0.10373450000000162
                },
                {
                    "name": "C#5",
                    "midi": 73,
                    "time": 195.435798000003,
                    "velocity": 0.41732283464566927,
                    "duration": 0.10373450000000162
                },
                {
                    "name": "E4",
                    "midi": 64,
                    "time": 195.643267000003,
                    "velocity": 0.29133858267716534,
                    "duration": 0.10373450000000162
                },
                {
                    "name": "G4",
                    "midi": 67,
                    "time": 195.643267000003,
                    "velocity": 0.29133858267716534,
                    "duration": 0.10373450000000162
                },
                {
                    "name": "A#4",
                    "midi": 70,
                    "time": 195.643267000003,
                    "velocity": 0.29133858267716534,
                    "duration": 0.10373450000000162
                },
                {
                    "name": "C#5",
                    "midi": 73,
                    "time": 195.643267000003,
                    "velocity": 0.3858267716535433,
                    "duration": 0.10373450000000162
                },
                {
                    "name": "E4",
                    "midi": 64,
                    "time": 195.850736000003,
                    "velocity": 0.4015748031496063,
                    "duration": 0.41493800000000647
                },
                {
                    "name": "A#4",
                    "midi": 70,
                    "time": 195.850736000003,
                    "velocity": 0.4015748031496063,
                    "duration": 0.6224070000000097
                },
                {
                    "name": "G4",
                    "midi": 67,
                    "time": 195.850736000003,
                    "velocity": 0.4015748031496063,
                    "duration": 0.41493800000000647
                },
                {
                    "name": "C#5",
                    "midi": 73,
                    "time": 195.850736000003,
                    "velocity": 0.4645669291338583,
                    "duration": 0.41493800000000647
                },
                {
                    "name": "F4",
                    "midi": 65,
                    "time": 196.265674000003,
                    "velocity": 0.33858267716535434,
                    "duration": 0.20746900000000323
                },
                {
                    "name": "D5",
                    "midi": 74,
                    "time": 196.265674000003,
                    "velocity": 0.4015748031496063,
                    "duration": 0.20746900000000323
                },
                {
                    "name": "F4",
                    "midi": 65,
                    "time": 196.680612000003,
                    "velocity": 0.4094488188976378,
                    "duration": 0.1383126666666783
                },
                {
                    "name": "G4",
                    "midi": 67,
                    "time": 196.8189246666697,
                    "velocity": 0.4094488188976378,
                    "duration": 0.1383126666666783
                },
                {
                    "name": "A4",
                    "midi": 69,
                    "time": 196.95723733333637,
                    "velocity": 0.41732283464566927,
                    "duration": 0.1383126666666783
                },
                {
                    "name": "A#4",
                    "midi": 70,
                    "time": 197.09555000000304,
                    "velocity": 0.4251968503937008,
                    "duration": 0.1383126666666783
                },
                {
                    "name": "C5",
                    "midi": 72,
                    "time": 197.23386266666972,
                    "velocity": 0.4330708661417323,
                    "duration": 0.1383126666666783
                },
                {
                    "name": "D5",
                    "midi": 74,
                    "time": 197.3721753333364,
                    "velocity": 0.4330708661417323,
                    "duration": 0.1383126666666783
                },
                {
                    "name": "D#5",
                    "midi": 75,
                    "time": 197.51048800000308,
                    "velocity": 0.48031496062992124,
                    "duration": 0.1383126666666783
                },
                {
                    "name": "F5",
                    "midi": 77,
                    "time": 197.64880066666976,
                    "velocity": 0.4094488188976378,
                    "duration": 0.1383126666666783
                },
                {
                    "name": "G5",
                    "midi": 79,
                    "time": 197.78711333333644,
                    "velocity": 0.4094488188976378,
                    "duration": 0.1383126666666783
                },
                {
                    "name": "F5",
                    "midi": 77,
                    "time": 197.9254260000031,
                    "velocity": 0.48031496062992124,
                    "duration": 0.1383126666666783
                },
                {
                    "name": "D#5",
                    "midi": 75,
                    "time": 198.0637386666698,
                    "velocity": 0.41732283464566927,
                    "duration": 0.1383126666666783
                },
                {
                    "name": "D5",
                    "midi": 74,
                    "time": 198.20205133333647,
                    "velocity": 0.41732283464566927,
                    "duration": 0.1383126666666783
                },
                {
                    "name": "C#5",
                    "midi": 73,
                    "time": 198.34036400000315,
                    "velocity": 0.44881889763779526,
                    "duration": 0.1383126666666783
                },
                {
                    "name": "A#4",
                    "midi": 70,
                    "time": 198.47867666666983,
                    "velocity": 0.3700787401574803,
                    "duration": 0.1383126666666783
                },
                {
                    "name": "G4",
                    "midi": 67,
                    "time": 198.6169893333365,
                    "velocity": 0.3700787401574803,
                    "duration": 0.1383126666666783
                },
                {
                    "name": "E4",
                    "midi": 64,
                    "time": 198.75530200000318,
                    "velocity": 0.3858267716535433,
                    "duration": 0.1383126666666783
                },
                {
                    "name": "C#4",
                    "midi": 61,
                    "time": 198.89361466666986,
                    "velocity": 0.3700787401574803,
                    "duration": 0.1383126666666783
                },
                {
                    "name": "E4",
                    "midi": 64,
                    "time": 199.03192733333654,
                    "velocity": 0.3779527559055118,
                    "duration": 0.1383126666666783
                },
                {
                    "name": "F4",
                    "midi": 65,
                    "time": 199.17024000000322,
                    "velocity": 0.3937007874015748,
                    "duration": 0.1383126666666783
                },
                {
                    "name": "D4",
                    "midi": 62,
                    "time": 199.3085526666699,
                    "velocity": 0.3543307086614173,
                    "duration": 0.1383126666666783
                },
                {
                    "name": "F4",
                    "midi": 65,
                    "time": 199.44686533333658,
                    "velocity": 0.3543307086614173,
                    "duration": 0.1383126666666783
                },
                {
                    "name": "D4",
                    "midi": 62,
                    "time": 199.58517800000325,
                    "velocity": 0.3937007874015748,
                    "duration": 0.1383126666666783
                },
                {
                    "name": "A#3",
                    "midi": 58,
                    "time": 199.72349066666993,
                    "velocity": 0.3543307086614173,
                    "duration": 0.1383126666666783
                },
                {
                    "name": "D4",
                    "midi": 62,
                    "time": 199.8618033333366,
                    "velocity": 0.3543307086614173,
                    "duration": 0.1383126666666783
                },
                {
                    "name": "F4",
                    "midi": 65,
                    "time": 200.0001160000033,
                    "velocity": 0.3543307086614173,
                    "duration": 0.1383126666666783
                },
                {
                    "name": "G4",
                    "midi": 67,
                    "time": 200.13842866666997,
                    "velocity": 0.3700787401574803,
                    "duration": 0.1383126666666783
                },
                {
                    "name": "A4",
                    "midi": 69,
                    "time": 200.27674133333664,
                    "velocity": 0.3858267716535433,
                    "duration": 0.1383126666666783
                },
                {
                    "name": "A#4",
                    "midi": 70,
                    "time": 200.41505400000332,
                    "velocity": 0.4015748031496063,
                    "duration": 0.1383126666666783
                },
                {
                    "name": "C5",
                    "midi": 72,
                    "time": 200.55336666667,
                    "velocity": 0.41732283464566927,
                    "duration": 0.1383126666666783
                },
                {
                    "name": "D5",
                    "midi": 74,
                    "time": 200.69167933333668,
                    "velocity": 0.4330708661417323,
                    "duration": 0.1383126666666783
                },
                {
                    "name": "D#5",
                    "midi": 75,
                    "time": 200.82999200000336,
                    "velocity": 0.44881889763779526,
                    "duration": 0.1383126666666783
                },
                {
                    "name": "F5",
                    "midi": 77,
                    "time": 200.96830466667004,
                    "velocity": 0.4645669291338583,
                    "duration": 0.1383126666666783
                },
                {
                    "name": "G5",
                    "midi": 79,
                    "time": 201.10661733333671,
                    "velocity": 0.48031496062992124,
                    "duration": 0.1383126666666783
                },
                {
                    "name": "F5",
                    "midi": 77,
                    "time": 201.2449300000034,
                    "velocity": 0.49606299212598426,
                    "duration": 0.1383126666666783
                },
                {
                    "name": "D#5",
                    "midi": 75,
                    "time": 201.38324266667007,
                    "velocity": 0.4566929133858268,
                    "duration": 0.1383126666666783
                },
                {
                    "name": "D5",
                    "midi": 74,
                    "time": 201.52155533333675,
                    "velocity": 0.48031496062992124,
                    "duration": 0.1383126666666783
                },
                {
                    "name": "C#5",
                    "midi": 73,
                    "time": 201.65986800000343,
                    "velocity": 0.44881889763779526,
                    "duration": 0.1383126666666783
                },
                {
                    "name": "A#4",
                    "midi": 70,
                    "time": 201.7981806666701,
                    "velocity": 0.4330708661417323,
                    "duration": 0.1383126666666783
                },
                {
                    "name": "G4",
                    "midi": 67,
                    "time": 201.93649333333678,
                    "velocity": 0.41732283464566927,
                    "duration": 0.1383126666666783
                },
                {
                    "name": "E4",
                    "midi": 64,
                    "time": 202.07480600000346,
                    "velocity": 0.4015748031496063,
                    "duration": 0.1383126666666783
                },
                {
                    "name": "C#4",
                    "midi": 61,
                    "time": 202.21311866667014,
                    "velocity": 0.3700787401574803,
                    "duration": 0.1383126666666783
                },
                {
                    "name": "E4",
                    "midi": 64,
                    "time": 202.35143133333682,
                    "velocity": 0.33858267716535434,
                    "duration": 0.1383126666666783
                },
                {
                    "name": "G4",
                    "midi": 67,
                    "time": 202.4897440000035,
                    "velocity": 0.4645669291338583,
                    "duration": 0.1383126666666783
                },
                {
                    "name": "E4",
                    "midi": 64,
                    "time": 202.62805666667018,
                    "velocity": 0.33858267716535434,
                    "duration": 0.1383126666666783
                },
                {
                    "name": "G4",
                    "midi": 67,
                    "time": 202.76636933333685,
                    "velocity": 0.33858267716535434,
                    "duration": 0.1383126666666783
                },
                {
                    "name": "E4",
                    "midi": 64,
                    "time": 202.90468200000353,
                    "velocity": 0.3464566929133858,
                    "duration": 0.1383126666666783
                },
                {
                    "name": "C#4",
                    "midi": 61,
                    "time": 203.0429946666702,
                    "velocity": 0.3543307086614173,
                    "duration": 0.1383126666666783
                },
                {
                    "name": "E4",
                    "midi": 64,
                    "time": 203.1813073333369,
                    "velocity": 0.3543307086614173,
                    "duration": 0.1383126666666783
                },
                {
                    "name": "G#4",
                    "midi": 68,
                    "time": 203.31962000000357,
                    "velocity": 0.4881889763779528,
                    "duration": 0.1383126666666783
                },
                {
                    "name": "E4",
                    "midi": 64,
                    "time": 203.45793266667025,
                    "velocity": 0.36220472440944884,
                    "duration": 0.1383126666666783
                },
                {
                    "name": "G#4",
                    "midi": 68,
                    "time": 203.59624533333692,
                    "velocity": 0.3700787401574803,
                    "duration": 0.1383126666666783
                },
                {
                    "name": "E4",
                    "midi": 64,
                    "time": 203.7345580000036,
                    "velocity": 0.3700787401574803,
                    "duration": 0.1383126666666783
                },
                {
                    "name": "C#4",
                    "midi": 61,
                    "time": 203.87287066667028,
                    "velocity": 0.3779527559055118,
                    "duration": 0.1383126666666783
                },
                {
                    "name": "E4",
                    "midi": 64,
                    "time": 204.01118333333696,
                    "velocity": 0.3779527559055118,
                    "duration": 0.1383126666666783
                },
                {
                    "name": "A4",
                    "midi": 69,
                    "time": 204.14949600000364,
                    "velocity": 0.5118110236220472,
                    "duration": 0.1383126666666783
                },
                {
                    "name": "E4",
                    "midi": 64,
                    "time": 204.28780866667032,
                    "velocity": 0.3858267716535433,
                    "duration": 0.1383126666666783
                },
                {
                    "name": "A4",
                    "midi": 69,
                    "time": 204.426121333337,
                    "velocity": 0.3937007874015748,
                    "duration": 0.1383126666666783
                },
                {
                    "name": "E4",
                    "midi": 64,
                    "time": 204.56443400000367,
                    "velocity": 0.3937007874015748,
                    "duration": 0.1383126666666783
                },
                {
                    "name": "C#4",
                    "midi": 61,
                    "time": 204.70274666667035,
                    "velocity": 0.4015748031496063,
                    "duration": 0.1383126666666783
                },
                {
                    "name": "E4",
                    "midi": 64,
                    "time": 204.84105933333703,
                    "velocity": 0.4094488188976378,
                    "duration": 0.1383126666666783
                },
                {
                    "name": "A4",
                    "midi": 69,
                    "time": 204.9793720000037,
                    "velocity": 0.5354330708661418,
                    "duration": 0.1383126666666783
                },
                {
                    "name": "E4",
                    "midi": 64,
                    "time": 205.11768466667039,
                    "velocity": 0.4094488188976378,
                    "duration": 0.1383126666666783
                },
                {
                    "name": "A4",
                    "midi": 69,
                    "time": 205.25599733333706,
                    "velocity": 0.41732283464566927,
                    "duration": 0.1383126666666783
                },
                {
                    "name": "E4",
                    "midi": 64,
                    "time": 205.39431000000374,
                    "velocity": 0.4251968503937008,
                    "duration": 0.1383126666666783
                },
                {
                    "name": "C4",
                    "midi": 60,
                    "time": 205.53262266667042,
                    "velocity": 0.4251968503937008,
                    "duration": 0.1383126666666783
                },
                {
                    "name": "E4",
                    "midi": 64,
                    "time": 205.6709353333371,
                    "velocity": 0.4330708661417323,
                    "duration": 0.1383126666666783
                },
                {
                    "name": "D5",
                    "midi": 74,
                    "time": 205.80924800000378,
                    "velocity": 0.5826771653543307,
                    "duration": 0.1383126666666783
                },
                {
                    "name": "A4",
                    "midi": 69,
                    "time": 205.94756066667046,
                    "velocity": 0.4645669291338583,
                    "duration": 0.1383126666666783
                },
                {
                    "name": "D5",
                    "midi": 74,
                    "time": 206.08587333333713,
                    "velocity": 0.47244094488188976,
                    "duration": 0.1383126666666783
                },
                {
                    "name": "A4",
                    "midi": 69,
                    "time": 206.2241860000038,
                    "velocity": 0.48031496062992124,
                    "duration": 0.1383126666666783
                },
                {
                    "name": "D4",
                    "midi": 62,
                    "time": 206.3624986666705,
                    "velocity": 0.4881889763779528,
                    "duration": 0.1383126666666783
                },
                {
                    "name": "A4",
                    "midi": 69,
                    "time": 206.50081133333717,
                    "velocity": 0.49606299212598426,
                    "duration": 0.1383126666666783
                },
                {
                    "name": "G#5",
                    "midi": 80,
                    "time": 206.63912400000385,
                    "velocity": 0.6456692913385826,
                    "duration": 0.1383126666666783
                },
                {
                    "name": "D5",
                    "midi": 74,
                    "time": 206.77743666667052,
                    "velocity": 0.5275590551181102,
                    "duration": 0.1383126666666783
                },
                {
                    "name": "G#5",
                    "midi": 80,
                    "time": 206.9157493333372,
                    "velocity": 0.5433070866141733,
                    "duration": 0.1383126666666783
                },
                {
                    "name": "D5",
                    "midi": 74,
                    "time": 207.05406200000388,
                    "velocity": 0.5511811023622047,
                    "duration": 0.1383126666666783
                },
                {
                    "name": "G#4",
                    "midi": 68,
                    "time": 207.19237466667056,
                    "velocity": 0.5669291338582677,
                    "duration": 0.1383126666666783
                },
                {
                    "name": "D5",
                    "midi": 74,
                    "time": 207.33068733333724,
                    "velocity": 0.5826771653543307,
                    "duration": 0.1383126666666783
                },
                {
                    "name": "A5",
                    "midi": 81,
                    "time": 207.46900000000392,
                    "velocity": 0.8267716535433071,
                    "duration": 0.8298760000000129
                },
                {
                    "name": "E5",
                    "midi": 76,
                    "time": 207.46900000000392,
                    "velocity": 0.7007874015748031,
                    "duration": 0.8298760000000129
                },
                {
                    "name": "C#5",
                    "midi": 73,
                    "time": 207.46900000000392,
                    "velocity": 0.7007874015748031,
                    "duration": 0.8298760000000129
                },
                {
                    "name": "A4",
                    "midi": 69,
                    "time": 207.46900000000392,
                    "velocity": 0.7007874015748031,
                    "duration": 0.8298760000000129
                },
                {
                    "name": "C5",
                    "midi": 72,
                    "time": 208.29887600000393,
                    "velocity": 0.4251968503937008,
                    "duration": 0.15560174999998821
                },
                {
                    "name": "D#5",
                    "midi": 75,
                    "time": 208.29887600000393,
                    "velocity": 0.49606299212598426,
                    "duration": 0.15560174999998821
                },
                {
                    "name": "C5",
                    "midi": 72,
                    "time": 208.5063450000039,
                    "velocity": 0.3858267716535433,
                    "duration": 0.15560174999998821
                },
                {
                    "name": "D#5",
                    "midi": 75,
                    "time": 208.5063450000039,
                    "velocity": 0.4645669291338583,
                    "duration": 0.15560174999998821
                },
                {
                    "name": "C5",
                    "midi": 72,
                    "time": 208.71381400000388,
                    "velocity": 0.4251968503937008,
                    "duration": 0.15560174999998821
                },
                {
                    "name": "D#5",
                    "midi": 75,
                    "time": 208.71381400000388,
                    "velocity": 0.49606299212598426,
                    "duration": 0.15560174999998821
                },
                {
                    "name": "C5",
                    "midi": 72,
                    "time": 208.92128300000385,
                    "velocity": 0.3858267716535433,
                    "duration": 0.15560174999998821
                },
                {
                    "name": "D#5",
                    "midi": 75,
                    "time": 208.92128300000385,
                    "velocity": 0.4566929133858268,
                    "duration": 0.15560174999998821
                },
                {
                    "name": "C#5",
                    "midi": 73,
                    "time": 209.12875200000383,
                    "velocity": 0.47244094488188976,
                    "duration": 0.41493800000000647
                },
                {
                    "name": "E5",
                    "midi": 76,
                    "time": 209.12875200000383,
                    "velocity": 0.5511811023622047,
                    "duration": 0.41493800000000647
                },
                {
                    "name": "C#6",
                    "midi": 85,
                    "time": 209.54369000000383,
                    "velocity": 0.3858267716535433,
                    "duration": 0.20746900000000323
                },
                {
                    "name": "C#3",
                    "midi": 49,
                    "time": 209.75115900000384,
                    "velocity": 0.5039370078740157,
                    "duration": 0.20746900000000323
                },
                {
                    "name": "D3",
                    "midi": 50,
                    "time": 209.95862800000384,
                    "velocity": 0.5196850393700787,
                    "duration": 0.1383126666666783
                },
                {
                    "name": "C#3",
                    "midi": 49,
                    "time": 210.09694066667052,
                    "velocity": 0.4881889763779528,
                    "duration": 0.1383126666666783
                },
                {
                    "name": "B2",
                    "midi": 47,
                    "time": 210.2352533333372,
                    "velocity": 0.5039370078740157,
                    "duration": 0.1383126666666783
                },
                {
                    "name": "F3",
                    "midi": 53,
                    "time": 210.37356600000388,
                    "velocity": 0.5118110236220472,
                    "duration": 0.1383126666666783
                },
                {
                    "name": "E3",
                    "midi": 52,
                    "time": 210.51187866667055,
                    "velocity": 0.47244094488188976,
                    "duration": 0.1383126666666783
                },
                {
                    "name": "D3",
                    "midi": 50,
                    "time": 210.65019133333723,
                    "velocity": 0.3858267716535433,
                    "duration": 0.1383126666666783
                },
                {
                    "name": "C#5",
                    "midi": 73,
                    "time": 211.20344200000392,
                    "velocity": 0.4409448818897638,
                    "duration": 0.31120350000000485
                },
                {
                    "name": "E5",
                    "midi": 76,
                    "time": 211.20344200000392,
                    "velocity": 0.4409448818897638,
                    "duration": 0.31120350000000485
                },
                {
                    "name": "C#5",
                    "midi": 73,
                    "time": 211.51464550000392,
                    "velocity": 0.3858267716535433,
                    "duration": 0.10373450000000162
                },
                {
                    "name": "E5",
                    "midi": 76,
                    "time": 211.51464550000392,
                    "velocity": 0.3858267716535433,
                    "duration": 0.10373450000000162
                },
                {
                    "name": "B4",
                    "midi": 71,
                    "time": 211.61838000000392,
                    "velocity": 0.4330708661417323,
                    "duration": 0.20746900000000323
                },
                {
                    "name": "D5",
                    "midi": 74,
                    "time": 211.61838000000392,
                    "velocity": 0.4330708661417323,
                    "duration": 0.20746900000000323
                },
                {
                    "name": "B3",
                    "midi": 59,
                    "time": 211.61838000000392,
                    "velocity": 0.4330708661417323,
                    "duration": 0.1383126666666783
                },
                {
                    "name": "C#4",
                    "midi": 61,
                    "time": 211.7566926666706,
                    "velocity": 0.4409448818897638,
                    "duration": 0.13831266666664987
                },
                {
                    "name": "D4",
                    "midi": 62,
                    "time": 211.89500533333725,
                    "velocity": 0.4251968503937008,
                    "duration": 0.1383126666666783
                },
                {
                    "name": "E4",
                    "midi": 64,
                    "time": 212.03331800000393,
                    "velocity": 0.44881889763779526,
                    "duration": 0.1383126666666783
                },
                {
                    "name": "F#4",
                    "midi": 66,
                    "time": 212.1716306666706,
                    "velocity": 0.47244094488188976,
                    "duration": 0.1383126666666783
                },
                {
                    "name": "G#4",
                    "midi": 68,
                    "time": 212.3099433333373,
                    "velocity": 0.4881889763779528,
                    "duration": 0.1383126666666783
                },
                {
                    "name": "A5",
                    "midi": 81,
                    "time": 212.44825600000397,
                    "velocity": 0.7401574803149606,
                    "duration": 0.8298760000000129
                },
                {
                    "name": "E5",
                    "midi": 76,
                    "time": 212.44825600000397,
                    "velocity": 0.6299212598425197,
                    "duration": 0.8298760000000129
                },
                {
                    "name": "C#5",
                    "midi": 73,
                    "time": 212.44825600000397,
                    "velocity": 0.6299212598425197,
                    "duration": 0.8298760000000129
                },
                {
                    "name": "A4",
                    "midi": 69,
                    "time": 212.44825600000397,
                    "velocity": 0.6299212598425197,
                    "duration": 0.8298760000000129
                },
                {
                    "name": "C5",
                    "midi": 72,
                    "time": 213.27813200000398,
                    "velocity": 0.4251968503937008,
                    "duration": 0.28526987500001155
                },
                {
                    "name": "D#5",
                    "midi": 75,
                    "time": 213.27813200000398,
                    "velocity": 0.49606299212598426,
                    "duration": 0.28526987500001155
                },
                {
                    "name": "C5",
                    "midi": 72,
                    "time": 213.58933550000398,
                    "velocity": 0.3858267716535433,
                    "duration": 0.07780087500000832
                },
                {
                    "name": "D#5",
                    "midi": 75,
                    "time": 213.58933550000398,
                    "velocity": 0.4645669291338583,
                    "duration": 0.07780087500000832
                },
                {
                    "name": "C5",
                    "midi": 72,
                    "time": 213.69307000000398,
                    "velocity": 0.4251968503937008,
                    "duration": 0.28526987500001155
                },
                {
                    "name": "D#5",
                    "midi": 75,
                    "time": 213.69307000000398,
                    "velocity": 0.49606299212598426,
                    "duration": 0.28526987500001155
                },
                {
                    "name": "C5",
                    "midi": 72,
                    "time": 214.004273500004,
                    "velocity": 0.3858267716535433,
                    "duration": 0.07780087500000832
                },
                {
                    "name": "D#5",
                    "midi": 75,
                    "time": 214.004273500004,
                    "velocity": 0.4566929133858268,
                    "duration": 0.07780087500000832
                },
                {
                    "name": "C#5",
                    "midi": 73,
                    "time": 214.108008000004,
                    "velocity": 0.47244094488188976,
                    "duration": 0.41493800000000647
                },
                {
                    "name": "E5",
                    "midi": 76,
                    "time": 214.108008000004,
                    "velocity": 0.5511811023622047,
                    "duration": 0.41493800000000647
                },
                {
                    "name": "C#6",
                    "midi": 85,
                    "time": 214.522946000004,
                    "velocity": 0.3858267716535433,
                    "duration": 0.20746900000000323
                },
                {
                    "name": "C#3",
                    "midi": 49,
                    "time": 214.730415000004,
                    "velocity": 0.5039370078740157,
                    "duration": 0.20746900000000323
                },
                {
                    "name": "D3",
                    "midi": 50,
                    "time": 214.937884000004,
                    "velocity": 0.5196850393700787,
                    "duration": 0.1383126666666783
                },
                {
                    "name": "C#3",
                    "midi": 49,
                    "time": 215.07619666667068,
                    "velocity": 0.4881889763779528,
                    "duration": 0.1383126666666783
                },
                {
                    "name": "B2",
                    "midi": 47,
                    "time": 215.21450933333736,
                    "velocity": 0.5039370078740157,
                    "duration": 0.1383126666666783
                },
                {
                    "name": "F3",
                    "midi": 53,
                    "time": 215.35282200000404,
                    "velocity": 0.5118110236220472,
                    "duration": 0.1383126666666783
                },
                {
                    "name": "E3",
                    "midi": 52,
                    "time": 215.49113466667072,
                    "velocity": 0.47244094488188976,
                    "duration": 0.1383126666666783
                },
                {
                    "name": "D3",
                    "midi": 50,
                    "time": 215.6294473333374,
                    "velocity": 0.3858267716535433,
                    "duration": 0.1383126666666783
                },
                {
                    "name": "C#5",
                    "midi": 73,
                    "time": 216.18269800000408,
                    "velocity": 0.4409448818897638,
                    "duration": 0.31120350000000485
                },
                {
                    "name": "E5",
                    "midi": 76,
                    "time": 216.18269800000408,
                    "velocity": 0.4409448818897638,
                    "duration": 0.31120350000000485
                },
                {
                    "name": "C#5",
                    "midi": 73,
                    "time": 216.49390150000409,
                    "velocity": 0.3858267716535433,
                    "duration": 0.10373450000000162
                },
                {
                    "name": "E5",
                    "midi": 76,
                    "time": 216.49390150000409,
                    "velocity": 0.3858267716535433,
                    "duration": 0.10373450000000162
                },
                {
                    "name": "B4",
                    "midi": 71,
                    "time": 216.5976360000041,
                    "velocity": 0.4330708661417323,
                    "duration": 0.20746900000000323
                },
                {
                    "name": "D5",
                    "midi": 74,
                    "time": 216.5976360000041,
                    "velocity": 0.4330708661417323,
                    "duration": 0.20746900000000323
                },
                {
                    "name": "B3",
                    "midi": 59,
                    "time": 216.5976360000041,
                    "velocity": 0.4330708661417323,
                    "duration": 0.1383126666666783
                },
                {
                    "name": "C#4",
                    "midi": 61,
                    "time": 216.73594866667077,
                    "velocity": 0.4409448818897638,
                    "duration": 0.13831266666664987
                },
                {
                    "name": "D4",
                    "midi": 62,
                    "time": 216.87426133333742,
                    "velocity": 0.4251968503937008,
                    "duration": 0.1383126666666783
                },
                {
                    "name": "E4",
                    "midi": 64,
                    "time": 217.0125740000041,
                    "velocity": 0.44881889763779526,
                    "duration": 0.1383126666666783
                },
                {
                    "name": "F#4",
                    "midi": 66,
                    "time": 217.15088666667077,
                    "velocity": 0.47244094488188976,
                    "duration": 0.1383126666666783
                },
                {
                    "name": "G#4",
                    "midi": 68,
                    "time": 217.28919933333745,
                    "velocity": 0.4881889763779528,
                    "duration": 0.1383126666666783
                },
                {
                    "name": "A4",
                    "midi": 69,
                    "time": 217.42751200000413,
                    "velocity": 0.44881889763779526,
                    "duration": 0.1383126666666783
                },
                {
                    "name": "B4",
                    "midi": 71,
                    "time": 217.5658246666708,
                    "velocity": 0.48031496062992124,
                    "duration": 0.1383126666666783
                },
                {
                    "name": "C#5",
                    "midi": 73,
                    "time": 217.70413733333748,
                    "velocity": 0.4881889763779528,
                    "duration": 0.1383126666666783
                },
                {
                    "name": "D5",
                    "midi": 74,
                    "time": 217.84245000000416,
                    "velocity": 0.49606299212598426,
                    "duration": 0.1383126666666783
                },
                {
                    "name": "E5",
                    "midi": 76,
                    "time": 217.98076266667084,
                    "velocity": 0.5039370078740157,
                    "duration": 0.1383126666666783
                },
                {
                    "name": "F#5",
                    "midi": 78,
                    "time": 218.11907533333752,
                    "velocity": 0.5118110236220472,
                    "duration": 0.1383126666666783
                },
                {
                    "name": "G#5",
                    "midi": 80,
                    "time": 218.2573880000042,
                    "velocity": 0.5196850393700787,
                    "duration": 0.1383126666666783
                },
                {
                    "name": "A5",
                    "midi": 81,
                    "time": 218.39570066667088,
                    "velocity": 0.5275590551181102,
                    "duration": 0.1383126666666783
                },
                {
                    "name": "B5",
                    "midi": 83,
                    "time": 218.53401333333755,
                    "velocity": 0.5354330708661418,
                    "duration": 0.1383126666666783
                },
                {
                    "name": "C#6",
                    "midi": 85,
                    "time": 218.67232600000423,
                    "velocity": 0.5433070866141733,
                    "duration": 0.1383126666666783
                },
                {
                    "name": "D6",
                    "midi": 86,
                    "time": 218.8106386666709,
                    "velocity": 0.5511811023622047,
                    "duration": 0.1383126666666783
                },
                {
                    "name": "E6",
                    "midi": 88,
                    "time": 218.9489513333376,
                    "velocity": 0.5590551181102362,
                    "duration": 0.1383126666666783
                },
                {
                    "name": "D6",
                    "midi": 86,
                    "time": 219.08726400000427,
                    "velocity": 0.5590551181102362,
                    "duration": 0.1383126666666783
                },
                {
                    "name": "C#6",
                    "midi": 85,
                    "time": 219.22557666667095,
                    "velocity": 0.5354330708661418,
                    "duration": 0.1383126666666783
                },
                {
                    "name": "B5",
                    "midi": 83,
                    "time": 219.36388933333762,
                    "velocity": 0.5118110236220472,
                    "duration": 0.1383126666666783
                },
                {
                    "name": "A5",
                    "midi": 81,
                    "time": 219.5022020000043,
                    "velocity": 0.49606299212598426,
                    "duration": 0.1383126666666783
                },
                {
                    "name": "G#5",
                    "midi": 80,
                    "time": 219.64051466667098,
                    "velocity": 0.47244094488188976,
                    "duration": 0.1383126666666783
                },
                {
                    "name": "F#5",
                    "midi": 78,
                    "time": 219.77882733333766,
                    "velocity": 0.4566929133858268,
                    "duration": 0.1383126666666783
                },
                {
                    "name": "E5",
                    "midi": 76,
                    "time": 219.91714000000434,
                    "velocity": 0.4330708661417323,
                    "duration": 0.1383126666666783
                },
                {
                    "name": "D5",
                    "midi": 74,
                    "time": 220.05545266667102,
                    "velocity": 0.41732283464566927,
                    "duration": 0.1383126666666783
                },
                {
                    "name": "C#5",
                    "midi": 73,
                    "time": 220.1937653333377,
                    "velocity": 0.3937007874015748,
                    "duration": 0.1383126666666783
                },
                {
                    "name": "B4",
                    "midi": 71,
                    "time": 220.33207800000437,
                    "velocity": 0.3779527559055118,
                    "duration": 0.1383126666666783
                },
                {
                    "name": "A4",
                    "midi": 69,
                    "time": 220.47039066667105,
                    "velocity": 0.3543307086614173,
                    "duration": 0.1383126666666783
                },
                {
                    "name": "G#4",
                    "midi": 68,
                    "time": 220.60870333333773,
                    "velocity": 0.33858267716535434,
                    "duration": 0.1383126666666783
                },
                {
                    "name": "A4",
                    "midi": 69,
                    "time": 220.7470160000044,
                    "velocity": 0.3937007874015748,
                    "duration": 0.41493800000000647
                },
                {
                    "name": "C#4",
                    "midi": 61,
                    "time": 221.1619540000044,
                    "velocity": 0.30708661417322836,
                    "duration": 0.10373450000000162
                },
                {
                    "name": "B4",
                    "midi": 71,
                    "time": 221.57689200000442,
                    "velocity": 0.3858267716535433,
                    "duration": 0.41493800000000647
                },
                {
                    "name": "E4",
                    "midi": 64,
                    "time": 221.99183000000443,
                    "velocity": 0.30708661417322836,
                    "duration": 0.10373450000000162
                },
                {
                    "name": "E4",
                    "midi": 64,
                    "time": 222.35490075000442,
                    "velocity": 0.31496062992125984,
                    "duration": 0.0518672499999866
                },
                {
                    "name": "C#5",
                    "midi": 73,
                    "time": 222.4067680000044,
                    "velocity": 0.3858267716535433,
                    "duration": 0.41493800000000647
                },
                {
                    "name": "A4",
                    "midi": 69,
                    "time": 222.8217060000044,
                    "velocity": 0.30708661417322836,
                    "duration": 0.10373450000000162
                },
                {
                    "name": "A4",
                    "midi": 69,
                    "time": 223.1847767500044,
                    "velocity": 0.31496062992125984,
                    "duration": 0.0518672499999866
                },
                {
                    "name": "F#5",
                    "midi": 78,
                    "time": 223.2366440000044,
                    "velocity": 0.4330708661417323,
                    "duration": 0.31120350000000485
                },
                {
                    "name": "D#5",
                    "midi": 75,
                    "time": 223.5478475000044,
                    "velocity": 0.3543307086614173,
                    "duration": 0.10373450000000162
                },
                {
                    "name": "F#5",
                    "midi": 78,
                    "time": 223.6515820000044,
                    "velocity": 0.41732283464566927,
                    "duration": 0.31120350000000485
                },
                {
                    "name": "D#5",
                    "midi": 75,
                    "time": 223.9627855000044,
                    "velocity": 0.36220472440944884,
                    "duration": 0.10373450000000162
                },
                {
                    "name": "E5",
                    "midi": 76,
                    "time": 224.07257117917106,
                    "velocity": 0.3937007874015748,
                    "duration": 0.41493800000000647
                },
                {
                    "name": "E4",
                    "midi": 64,
                    "time": 224.4814580000044,
                    "velocity": 0.30708661417322836,
                    "duration": 0.10373450000000162
                },
                {
                    "name": "E4",
                    "midi": 64,
                    "time": 224.8445287500044,
                    "velocity": 0.31496062992125984,
                    "duration": 0.0518672499999866
                },
                {
                    "name": "D5",
                    "midi": 74,
                    "time": 224.8963960000044,
                    "velocity": 0.3858267716535433,
                    "duration": 0.41493800000000647
                },
                {
                    "name": "B4",
                    "midi": 71,
                    "time": 225.3113340000044,
                    "velocity": 0.30708661417322836,
                    "duration": 0.10373450000000162
                },
                {
                    "name": "B4",
                    "midi": 71,
                    "time": 225.67440475000438,
                    "velocity": 0.31496062992125984,
                    "duration": 0.0518672499999866
                },
                {
                    "name": "C#5",
                    "midi": 73,
                    "time": 225.72627200000437,
                    "velocity": 0.3858267716535433,
                    "duration": 0.41493800000000647
                },
                {
                    "name": "E4",
                    "midi": 64,
                    "time": 226.14121000000438,
                    "velocity": 0.30708661417322836,
                    "duration": 0.10373450000000162
                },
                {
                    "name": "E4",
                    "midi": 64,
                    "time": 226.50428075000437,
                    "velocity": 0.31496062992125984,
                    "duration": 0.0518672499999866
                },
                {
                    "name": "B4",
                    "midi": 71,
                    "time": 226.55614800000436,
                    "velocity": 0.4330708661417323,
                    "duration": 0.31120350000000485
                },
                {
                    "name": "G#4",
                    "midi": 68,
                    "time": 226.86735150000436,
                    "velocity": 0.3543307086614173,
                    "duration": 0.10373450000000162
                },
                {
                    "name": "B4",
                    "midi": 71,
                    "time": 226.97108600000436,
                    "velocity": 0.41732283464566927,
                    "duration": 0.31120350000000485
                },
                {
                    "name": "G#4",
                    "midi": 68,
                    "time": 227.28228950000437,
                    "velocity": 0.36220472440944884,
                    "duration": 0.10373450000000162
                },
                {
                    "name": "A4",
                    "midi": 69,
                    "time": 227.38602400000437,
                    "velocity": 0.3937007874015748,
                    "duration": 0.1383126666666783
                },
                {
                    "name": "E4",
                    "midi": 64,
                    "time": 227.52433666667105,
                    "velocity": 0.3464566929133858,
                    "duration": 0.1383126666666783
                },
                {
                    "name": "A4",
                    "midi": 69,
                    "time": 227.66264933333773,
                    "velocity": 0.2992125984251969,
                    "duration": 0.1383126666666783
                },
                {
                    "name": "C#4",
                    "midi": 61,
                    "time": 227.8009620000044,
                    "velocity": 0.30708661417322836,
                    "duration": 0.10373450000000162
                },
                {
                    "name": "B4",
                    "midi": 71,
                    "time": 228.2159000000044,
                    "velocity": 0.3937007874015748,
                    "duration": 0.1383126666666783
                },
                {
                    "name": "G#4",
                    "midi": 68,
                    "time": 228.3542126666711,
                    "velocity": 0.3464566929133858,
                    "duration": 0.1383126666666783
                },
                {
                    "name": "B4",
                    "midi": 71,
                    "time": 228.49252533333777,
                    "velocity": 0.2992125984251969,
                    "duration": 0.1383126666666783
                },
                {
                    "name": "E4",
                    "midi": 64,
                    "time": 228.63083800000445,
                    "velocity": 0.30708661417322836,
                    "duration": 0.10373450000000162
                },
                {
                    "name": "C#5",
                    "midi": 73,
                    "time": 229.04577600000445,
                    "velocity": 0.3937007874015748,
                    "duration": 0.1383126666666783
                },
                {
                    "name": "B4",
                    "midi": 71,
                    "time": 229.18408866667113,
                    "velocity": 0.3464566929133858,
                    "duration": 0.1383126666666783
                },
                {
                    "name": "C#5",
                    "midi": 73,
                    "time": 229.3224013333378,
                    "velocity": 0.2992125984251969,
                    "duration": 0.1383126666666783
                },
                {
                    "name": "A4",
                    "midi": 69,
                    "time": 229.4607140000045,
                    "velocity": 0.30708661417322836,
                    "duration": 0.10373450000000162
                },
                {
                    "name": "F#5",
                    "midi": 78,
                    "time": 229.8756520000045,
                    "velocity": 0.4330708661417323,
                    "duration": 0.1383126666666783
                },
                {
                    "name": "D#5",
                    "midi": 75,
                    "time": 230.01396466667117,
                    "velocity": 0.3700787401574803,
                    "duration": 0.1383126666666783
                },
                {
                    "name": "F#5",
                    "midi": 78,
                    "time": 230.15227733333785,
                    "velocity": 0.3700787401574803,
                    "duration": 0.1383126666666783
                },
                {
                    "name": "A5",
                    "midi": 81,
                    "time": 230.29059000000453,
                    "velocity": 0.4330708661417323,
                    "duration": 0.1383126666666783
                },
                {
                    "name": "F#5",
                    "midi": 78,
                    "time": 230.4289026666712,
                    "velocity": 0.3700787401574803,
                    "duration": 0.1383126666666783
                },
                {
                    "name": "D#5",
                    "midi": 75,
                    "time": 230.56721533333788,
                    "velocity": 0.3700787401574803,
                    "duration": 0.1383126666666783
                },
                {
                    "name": "E5",
                    "midi": 76,
                    "time": 230.70552800000456,
                    "velocity": 0.3937007874015748,
                    "duration": 0.1383126666666783
                },
                {
                    "name": "C#5",
                    "midi": 73,
                    "time": 230.84384066667124,
                    "velocity": 0.3464566929133858,
                    "duration": 0.1383126666666783
                },
                {
                    "name": "E5",
                    "midi": 76,
                    "time": 230.98215333333792,
                    "velocity": 0.2992125984251969,
                    "duration": 0.1383126666666783
                },
                {
                    "name": "E4",
                    "midi": 64,
                    "time": 231.1204660000046,
                    "velocity": 0.30708661417322836,
                    "duration": 0.10373450000000162
                },
                {
                    "name": "D5",
                    "midi": 74,
                    "time": 231.5354040000046,
                    "velocity": 0.3937007874015748,
                    "duration": 0.1383126666666783
                },
                {
                    "name": "C#5",
                    "midi": 73,
                    "time": 231.67371666667128,
                    "velocity": 0.3464566929133858,
                    "duration": 0.1383126666666783
                },
                {
                    "name": "D5",
                    "midi": 74,
                    "time": 231.81202933333796,
                    "velocity": 0.2992125984251969,
                    "duration": 0.1383126666666783
                },
                {
                    "name": "B4",
                    "midi": 71,
                    "time": 231.95034200000464,
                    "velocity": 0.30708661417322836,
                    "duration": 0.10373450000000162
                },
                {
                    "name": "C#5",
                    "midi": 73,
                    "time": 232.36528000000465,
                    "velocity": 0.3937007874015748,
                    "duration": 0.1383126666666783
                },
                {
                    "name": "A4",
                    "midi": 69,
                    "time": 232.50359266667132,
                    "velocity": 0.3464566929133858,
                    "duration": 0.1383126666666783
                },
                {
                    "name": "C#5",
                    "midi": 73,
                    "time": 232.641905333338,
                    "velocity": 0.2992125984251969,
                    "duration": 0.1383126666666783
                },
                {
                    "name": "E4",
                    "midi": 64,
                    "time": 232.78021800000468,
                    "velocity": 0.30708661417322836,
                    "duration": 0.10373450000000162
                },
                {
                    "name": "B4",
                    "midi": 71,
                    "time": 233.1951560000047,
                    "velocity": 0.4330708661417323,
                    "duration": 0.31120350000000485
                },
                {
                    "name": "G#4",
                    "midi": 68,
                    "time": 233.5063595000047,
                    "velocity": 0.3543307086614173,
                    "duration": 0.10373450000000162
                },
                {
                    "name": "B4",
                    "midi": 71,
                    "time": 233.6100940000047,
                    "velocity": 0.41732283464566927,
                    "duration": 0.31120350000000485
                },
                {
                    "name": "G#4",
                    "midi": 68,
                    "time": 233.9212975000047,
                    "velocity": 0.36220472440944884,
                    "duration": 0.10373450000000162
                },
                {
                    "name": "B4",
                    "midi": 71,
                    "time": 234.0250320000047,
                    "velocity": 0.6141732283464567,
                    "duration": 0.1383126666666783
                },
                {
                    "name": "D4",
                    "midi": 62,
                    "time": 234.16334466667138,
                    "velocity": 0.4881889763779528,
                    "duration": 0.1383126666666783
                },
                {
                    "name": "B4",
                    "midi": 71,
                    "time": 234.30165733333806,
                    "velocity": 0.4881889763779528,
                    "duration": 0.1383126666666783
                },
                {
                    "name": "G3",
                    "midi": 55,
                    "time": 234.43997000000473,
                    "velocity": 0.6141732283464567,
                    "duration": 0.7261415000000113
                },
                {
                    "name": "B4",
                    "midi": 71,
                    "time": 235.16611150000475,
                    "velocity": 0.4645669291338583,
                    "duration": 0.10373450000000162
                },
                {
                    "name": "D4",
                    "midi": 62,
                    "time": 235.16611150000475,
                    "velocity": 0.4645669291338583,
                    "duration": 0.10373450000000162
                },
                {
                    "name": "G3",
                    "midi": 55,
                    "time": 235.26984600000475,
                    "velocity": 0.6141732283464567,
                    "duration": 0.31120350000000485
                },
                {
                    "name": "D4",
                    "midi": 62,
                    "time": 235.58104950000475,
                    "velocity": 0.4881889763779528,
                    "duration": 0.10373450000000162
                },
                {
                    "name": "B4",
                    "midi": 71,
                    "time": 235.68478400000475,
                    "velocity": 0.5905511811023622,
                    "duration": 0.1383126666666783
                },
                {
                    "name": "D4",
                    "midi": 62,
                    "time": 235.82309666667143,
                    "velocity": 0.4409448818897638,
                    "duration": 0.1383126666666783
                },
                {
                    "name": "B4",
                    "midi": 71,
                    "time": 235.9614093333381,
                    "velocity": 0.4409448818897638,
                    "duration": 0.1383126666666783
                },
                {
                    "name": "G3",
                    "midi": 55,
                    "time": 236.0997220000048,
                    "velocity": 0.5826771653543307,
                    "duration": 0.7261415000000113
                },
                {
                    "name": "B4",
                    "midi": 71,
                    "time": 236.8258635000048,
                    "velocity": 0.4645669291338583,
                    "duration": 0.10373450000000162
                },
                {
                    "name": "D4",
                    "midi": 62,
                    "time": 236.8258635000048,
                    "velocity": 0.4645669291338583,
                    "duration": 0.10373450000000162
                },
                {
                    "name": "G3",
                    "midi": 55,
                    "time": 236.9295980000048,
                    "velocity": 0.5826771653543307,
                    "duration": 0.7261415000000113
                },
                {
                    "name": "D4",
                    "midi": 62,
                    "time": 237.6557395000048,
                    "velocity": 0.4094488188976378,
                    "duration": 0.10373450000000162
                },
                {
                    "name": "B4",
                    "midi": 71,
                    "time": 237.6557395000048,
                    "velocity": 0.4881889763779528,
                    "duration": 0.10373450000000162
                },
                {
                    "name": "G3",
                    "midi": 55,
                    "time": 237.75947400000481,
                    "velocity": 0.5826771653543307,
                    "duration": 0.7261415000000113
                },
                {
                    "name": "D4",
                    "midi": 62,
                    "time": 238.48561550000483,
                    "velocity": 0.4094488188976378,
                    "duration": 0.10373450000000162
                },
                {
                    "name": "B4",
                    "midi": 71,
                    "time": 238.48561550000483,
                    "velocity": 0.4881889763779528,
                    "duration": 0.10373450000000162
                },
                {
                    "name": "G3",
                    "midi": 55,
                    "time": 238.58935000000483,
                    "velocity": 0.5826771653543307,
                    "duration": 0.31120350000000485
                },
                {
                    "name": "B4",
                    "midi": 71,
                    "time": 238.90055350000483,
                    "velocity": 0.4881889763779528,
                    "duration": 0.10373450000000162
                },
                {
                    "name": "D4",
                    "midi": 62,
                    "time": 238.90055350000483,
                    "velocity": 0.4094488188976378,
                    "duration": 0.10373450000000162
                },
                {
                    "name": "C5",
                    "midi": 72,
                    "time": 239.00428800000483,
                    "velocity": 0.6220472440944882,
                    "duration": 0.1383126666666783
                },
                {
                    "name": "E4",
                    "midi": 64,
                    "time": 239.1426006666715,
                    "velocity": 0.4881889763779528,
                    "duration": 0.1383126666666783
                },
                {
                    "name": "C5",
                    "midi": 72,
                    "time": 239.2809133333382,
                    "velocity": 0.4881889763779528,
                    "duration": 0.1383126666666783
                },
                {
                    "name": "E5",
                    "midi": 76,
                    "time": 239.41922600000487,
                    "velocity": 0.6377952755905512,
                    "duration": 0.7261415000000113
                },
                {
                    "name": "E4",
                    "midi": 64,
                    "time": 240.14536750000488,
                    "velocity": 0.4645669291338583,
                    "duration": 0.10373450000000162
                },
                {
                    "name": "C5",
                    "midi": 72,
                    "time": 240.24910200000488,
                    "velocity": 0.4881889763779528,
                    "duration": 0.31120350000000485
                },
                {
                    "name": "E5",
                    "midi": 76,
                    "time": 240.24910200000488,
                    "velocity": 0.5826771653543307,
                    "duration": 0.31120350000000485
                },
                {
                    "name": "E4",
                    "midi": 64,
                    "time": 240.5603055000049,
                    "velocity": 0.4881889763779528,
                    "duration": 0.10373450000000162
                },
                {
                    "name": "C5",
                    "midi": 72,
                    "time": 240.6640400000049,
                    "velocity": 0.5590551181102362,
                    "duration": 0.1383126666666783
                },
                {
                    "name": "E4",
                    "midi": 64,
                    "time": 240.80235266667157,
                    "velocity": 0.4409448818897638,
                    "duration": 0.1383126666666783
                },
                {
                    "name": "C5",
                    "midi": 72,
                    "time": 240.94066533333825,
                    "velocity": 0.4409448818897638,
                    "duration": 0.1383126666666783
                },
                {
                    "name": "E5",
                    "midi": 76,
                    "time": 241.07897800000492,
                    "velocity": 0.5826771653543307,
                    "duration": 0.7261415000000113
                },
                {
                    "name": "E4",
                    "midi": 64,
                    "time": 241.80511950000493,
                    "velocity": 0.4645669291338583,
                    "duration": 0.10373450000000162
                },
                {
                    "name": "C5",
                    "midi": 72,
                    "time": 241.90885400000494,
                    "velocity": 0.5826771653543307,
                    "duration": 0.7261415000000113
                },
                {
                    "name": "E5",
                    "midi": 76,
                    "time": 241.90885400000494,
                    "velocity": 0.5826771653543307,
                    "duration": 0.7261415000000113
                },
                {
                    "name": "E4",
                    "midi": 64,
                    "time": 242.63499550000495,
                    "velocity": 0.4881889763779528,
                    "duration": 0.10373450000000162
                },
                {
                    "name": "C5",
                    "midi": 72,
                    "time": 242.73873000000495,
                    "velocity": 0.5826771653543307,
                    "duration": 0.7261415000000113
                },
                {
                    "name": "E5",
                    "midi": 76,
                    "time": 242.73873000000495,
                    "velocity": 0.6299212598425197,
                    "duration": 0.7261415000000113
                },
                {
                    "name": "E4",
                    "midi": 64,
                    "time": 243.46487150000496,
                    "velocity": 0.41732283464566927,
                    "duration": 0.10373450000000162
                },
                {
                    "name": "G#4",
                    "midi": 68,
                    "time": 243.56860600000496,
                    "velocity": 0.44881889763779526,
                    "duration": 0.7261415000000113
                },
                {
                    "name": "D5",
                    "midi": 74,
                    "time": 243.56860600000496,
                    "velocity": 0.44881889763779526,
                    "duration": 0.7261415000000113
                },
                {
                    "name": "E5",
                    "midi": 76,
                    "time": 243.56860600000496,
                    "velocity": 0.49606299212598426,
                    "duration": 0.7261415000000113
                },
                {
                    "name": "E4",
                    "midi": 64,
                    "time": 244.29474750000497,
                    "velocity": 0.33070866141732286,
                    "duration": 0.10373450000000162
                },
                {
                    "name": "G#4",
                    "midi": 68,
                    "time": 244.39848200000498,
                    "velocity": 0.3464566929133858,
                    "duration": 0.31120350000000485
                },
                {
                    "name": "D5",
                    "midi": 74,
                    "time": 244.39848200000498,
                    "velocity": 0.3464566929133858,
                    "duration": 0.31120350000000485
                },
                {
                    "name": "E5",
                    "midi": 76,
                    "time": 244.39848200000498,
                    "velocity": 0.41732283464566927,
                    "duration": 0.31120350000000485
                },
                {
                    "name": "E4",
                    "midi": 64,
                    "time": 244.70968550000498,
                    "velocity": 0.33070866141732286,
                    "duration": 0.10373450000000162
                },
                {
                    "name": "G#4",
                    "midi": 68,
                    "time": 244.81342000000498,
                    "velocity": 0.3228346456692913,
                    "duration": 0.31120350000000485
                },
                {
                    "name": "D5",
                    "midi": 74,
                    "time": 244.81342000000498,
                    "velocity": 0.3228346456692913,
                    "duration": 0.31120350000000485
                },
                {
                    "name": "E5",
                    "midi": 76,
                    "time": 244.81342000000498,
                    "velocity": 0.3779527559055118,
                    "duration": 0.31120350000000485
                },
                {
                    "name": "E4",
                    "midi": 64,
                    "time": 245.124623500005,
                    "velocity": 0.30708661417322836,
                    "duration": 0.10373450000000162
                },
                {
                    "name": "G#4",
                    "midi": 68,
                    "time": 245.228358000005,
                    "velocity": 0.29133858267716534,
                    "duration": 0.31120350000000485
                },
                {
                    "name": "D5",
                    "midi": 74,
                    "time": 245.228358000005,
                    "velocity": 0.29133858267716534,
                    "duration": 0.31120350000000485
                },
                {
                    "name": "E5",
                    "midi": 76,
                    "time": 245.228358000005,
                    "velocity": 0.3464566929133858,
                    "duration": 0.31120350000000485
                },
                {
                    "name": "E4",
                    "midi": 64,
                    "time": 245.539561500005,
                    "velocity": 0.2755905511811024,
                    "duration": 0.10373450000000162
                },
                {
                    "name": "A4",
                    "midi": 69,
                    "time": 245.643296000005,
                    "velocity": 0.33070866141732286,
                    "duration": 0.10373450000000162
                },
                {
                    "name": "C#5",
                    "midi": 73,
                    "time": 245.643296000005,
                    "velocity": 0.33070866141732286,
                    "duration": 0.10373450000000162
                },
                {
                    "name": "E5",
                    "midi": 76,
                    "time": 245.643296000005,
                    "velocity": 0.3937007874015748,
                    "duration": 0.10373450000000162
                },
                {
                    "name": "E4",
                    "midi": 64,
                    "time": 245.78160866667167,
                    "velocity": 0.30708661417322836,
                    "duration": 0.1383126666666783
                },
                {
                    "name": "A4",
                    "midi": 69,
                    "time": 245.91992133333835,
                    "velocity": 0.3228346456692913,
                    "duration": 0.1383126666666783
                },
                {
                    "name": "C#5",
                    "midi": 73,
                    "time": 246.05823400000503,
                    "velocity": 0.33070866141732286,
                    "duration": 0.1383126666666783
                },
                {
                    "name": "E5",
                    "midi": 76,
                    "time": 246.1965466666717,
                    "velocity": 0.3464566929133858,
                    "duration": 0.1383126666666783
                },
                {
                    "name": "A5",
                    "midi": 81,
                    "time": 246.3348593333384,
                    "velocity": 0.3543307086614173,
                    "duration": 0.1383126666666783
                },
                {
                    "name": "E5",
                    "midi": 76,
                    "time": 246.47317200000506,
                    "velocity": 0.3700787401574803,
                    "duration": 0.1383126666666783
                },
                {
                    "name": "A4",
                    "midi": 69,
                    "time": 246.61148466667174,
                    "velocity": 0.3543307086614173,
                    "duration": 0.1383126666666783
                },
                {
                    "name": "C#5",
                    "midi": 73,
                    "time": 246.74979733333842,
                    "velocity": 0.3858267716535433,
                    "duration": 0.1383126666666783
                },
                {
                    "name": "E5",
                    "midi": 76,
                    "time": 246.8881100000051,
                    "velocity": 0.4094488188976378,
                    "duration": 0.1383126666666783
                },
                {
                    "name": "A5",
                    "midi": 81,
                    "time": 247.02642266667178,
                    "velocity": 0.4094488188976378,
                    "duration": 0.1383126666666783
                },
                {
                    "name": "C#6",
                    "midi": 85,
                    "time": 247.16473533333846,
                    "velocity": 0.3700787401574803,
                    "duration": 0.1383126666666783
                },
                {
                    "name": "E5",
                    "midi": 76,
                    "time": 247.30304800000513,
                    "velocity": 0.4094488188976378,
                    "duration": 0.1383126666666783
                },
                {
                    "name": "F#5",
                    "midi": 78,
                    "time": 247.4413606666718,
                    "velocity": 0.3543307086614173,
                    "duration": 0.1383126666666783
                },
                {
                    "name": "E5",
                    "midi": 76,
                    "time": 247.5796733333385,
                    "velocity": 0.3543307086614173,
                    "duration": 0.1383126666666783
                },
                {
                    "name": "D5",
                    "midi": 74,
                    "time": 247.71798600000517,
                    "velocity": 0.4094488188976378,
                    "duration": 0.1383126666666783
                },
                {
                    "name": "F#5",
                    "midi": 78,
                    "time": 247.85629866667185,
                    "velocity": 0.3700787401574803,
                    "duration": 0.1383126666666783
                },
                {
                    "name": "D5",
                    "midi": 74,
                    "time": 247.99461133333853,
                    "velocity": 0.3700787401574803,
                    "duration": 0.1383126666666783
                },
                {
                    "name": "C#5",
                    "midi": 73,
                    "time": 248.1329240000052,
                    "velocity": 0.41732283464566927,
                    "duration": 0.1383126666666783
                },
                {
                    "name": "E5",
                    "midi": 76,
                    "time": 248.27123666667188,
                    "velocity": 0.3700787401574803,
                    "duration": 0.1383126666666783
                },
                {
                    "name": "C#5",
                    "midi": 73,
                    "time": 248.40954933333856,
                    "velocity": 0.3700787401574803,
                    "duration": 0.1383126666666783
                },
                {
                    "name": "B4",
                    "midi": 71,
                    "time": 248.54786200000524,
                    "velocity": 0.4094488188976378,
                    "duration": 0.1383126666666783
                },
                {
                    "name": "D5",
                    "midi": 74,
                    "time": 248.68617466667192,
                    "velocity": 0.3700787401574803,
                    "duration": 0.1383126666666783
                },
                {
                    "name": "B4",
                    "midi": 71,
                    "time": 248.8244873333386,
                    "velocity": 0.3700787401574803,
                    "duration": 0.1383126666666783
                },
                {
                    "name": "A4",
                    "midi": 69,
                    "time": 248.96280000000527,
                    "velocity": 0.3937007874015748,
                    "duration": 0.1383126666666783
                },
                {
                    "name": "E4",
                    "midi": 64,
                    "time": 249.10111266667195,
                    "velocity": 0.30708661417322836,
                    "duration": 0.1383126666666783
                },
                {
                    "name": "A4",
                    "midi": 69,
                    "time": 249.23942533333863,
                    "velocity": 0.3228346456692913,
                    "duration": 0.1383126666666783
                },
                {
                    "name": "C#5",
                    "midi": 73,
                    "time": 249.3777380000053,
                    "velocity": 0.33070866141732286,
                    "duration": 0.1383126666666783
                },
                {
                    "name": "E5",
                    "midi": 76,
                    "time": 249.516050666672,
                    "velocity": 0.3464566929133858,
                    "duration": 0.1383126666666783
                },
                {
                    "name": "A5",
                    "midi": 81,
                    "time": 249.65436333333867,
                    "velocity": 0.3543307086614173,
                    "duration": 0.1383126666666783
                },
                {
                    "name": "E5",
                    "midi": 76,
                    "time": 249.79267600000534,
                    "velocity": 0.3700787401574803,
                    "duration": 0.1383126666666783
                },
                {
                    "name": "A4",
                    "midi": 69,
                    "time": 249.93098866667202,
                    "velocity": 0.3543307086614173,
                    "duration": 0.1383126666666783
                },
                {
                    "name": "C#5",
                    "midi": 73,
                    "time": 250.0693013333387,
                    "velocity": 0.3858267716535433,
                    "duration": 0.1383126666666783
                },
                {
                    "name": "E5",
                    "midi": 76,
                    "time": 250.20761400000538,
                    "velocity": 0.4094488188976378,
                    "duration": 0.1383126666666783
                },
                {
                    "name": "A5",
                    "midi": 81,
                    "time": 250.34592666667206,
                    "velocity": 0.4094488188976378,
                    "duration": 0.1383126666666783
                },
                {
                    "name": "C#6",
                    "midi": 85,
                    "time": 250.48423933333873,
                    "velocity": 0.3700787401574803,
                    "duration": 0.1383126666666783
                },
                {
                    "name": "E5",
                    "midi": 76,
                    "time": 250.6225520000054,
                    "velocity": 0.4094488188976378,
                    "duration": 0.1383126666666783
                },
                {
                    "name": "F#5",
                    "midi": 78,
                    "time": 250.7608646666721,
                    "velocity": 0.3543307086614173,
                    "duration": 0.1383126666666783
                },
                {
                    "name": "E5",
                    "midi": 76,
                    "time": 250.89917733333877,
                    "velocity": 0.3543307086614173,
                    "duration": 0.1383126666666783
                },
                {
                    "name": "D5",
                    "midi": 74,
                    "time": 251.03749000000545,
                    "velocity": 0.4094488188976378,
                    "duration": 0.1383126666666783
                },
                {
                    "name": "E5",
                    "midi": 76,
                    "time": 251.17580266667213,
                    "velocity": 0.3700787401574803,
                    "duration": 0.1383126666666783
                },
                {
                    "name": "D5",
                    "midi": 74,
                    "time": 251.3141153333388,
                    "velocity": 0.3700787401574803,
                    "duration": 0.1383126666666783
                },
                {
                    "name": "C#5",
                    "midi": 73,
                    "time": 251.45242800000548,
                    "velocity": 0.41732283464566927,
                    "duration": 0.1383126666666783
                },
                {
                    "name": "D5",
                    "midi": 74,
                    "time": 251.59074066667216,
                    "velocity": 0.3700787401574803,
                    "duration": 0.1383126666666783
                },
                {
                    "name": "C#5",
                    "midi": 73,
                    "time": 251.72905333333884,
                    "velocity": 0.3700787401574803,
                    "duration": 0.1383126666666783
                },
                {
                    "name": "B4",
                    "midi": 71,
                    "time": 251.86736600000552,
                    "velocity": 0.4094488188976378,
                    "duration": 0.1383126666666783
                },
                {
                    "name": "C#5",
                    "midi": 73,
                    "time": 252.0056786666722,
                    "velocity": 0.3700787401574803,
                    "duration": 0.1383126666666783
                },
                {
                    "name": "B4",
                    "midi": 71,
                    "time": 252.14399133333887,
                    "velocity": 0.3700787401574803,
                    "duration": 0.1383126666666783
                },
                {
                    "name": "C#4",
                    "midi": 61,
                    "time": 252.28230400000555,
                    "velocity": 0.33070866141732286,
                    "duration": 0.1383126666666783
                },
                {
                    "name": "E4",
                    "midi": 64,
                    "time": 252.42061666667223,
                    "velocity": 0.29133858267716534,
                    "duration": 0.1383126666666783
                },
                {
                    "name": "C#4",
                    "midi": 61,
                    "time": 252.5589293333389,
                    "velocity": 0.29133858267716534,
                    "duration": 0.1383126666666783
                },
                {
                    "name": "E4",
                    "midi": 64,
                    "time": 252.6972420000056,
                    "velocity": 0.33858267716535434,
                    "duration": 0.1383126666666783
                },
                {
                    "name": "A4",
                    "midi": 69,
                    "time": 252.83555466667227,
                    "velocity": 0.28346456692913385,
                    "duration": 0.1383126666666783
                },
                {
                    "name": "E4",
                    "midi": 64,
                    "time": 252.97386733333894,
                    "velocity": 0.29133858267716534,
                    "duration": 0.12102358333333996
                },
                {
                    "name": "E4",
                    "midi": 64,
                    "time": 253.11218000000562,
                    "velocity": 0.33858267716535434,
                    "duration": 0.1383126666666783
                },
                {
                    "name": "G#4",
                    "midi": 68,
                    "time": 253.2504926666723,
                    "velocity": 0.29133858267716534,
                    "duration": 0.1383126666666783
                },
                {
                    "name": "E4",
                    "midi": 64,
                    "time": 253.38880533333898,
                    "velocity": 0.2992125984251969,
                    "duration": 0.1383126666666783
                },
                {
                    "name": "G#4",
                    "midi": 68,
                    "time": 253.52711800000566,
                    "velocity": 0.33858267716535434,
                    "duration": 0.1383126666666783
                },
                {
                    "name": "B4",
                    "midi": 71,
                    "time": 253.66543066667234,
                    "velocity": 0.30708661417322836,
                    "duration": 0.1383126666666783
                },
                {
                    "name": "G#4",
                    "midi": 68,
                    "time": 253.803743333339,
                    "velocity": 0.30708661417322836,
                    "duration": 0.1383126666666783
                },
                {
                    "name": "E4",
                    "midi": 64,
                    "time": 253.9420560000057,
                    "velocity": 0.33858267716535434,
                    "duration": 0.1383126666666783
                },
                {
                    "name": "A4",
                    "midi": 69,
                    "time": 254.08036866667237,
                    "velocity": 0.2992125984251969,
                    "duration": 0.1383126666666783
                },
                {
                    "name": "E4",
                    "midi": 64,
                    "time": 254.21868133333905,
                    "velocity": 0.2992125984251969,
                    "duration": 0.1383126666666783
                },
                {
                    "name": "A4",
                    "midi": 69,
                    "time": 254.35699400000573,
                    "velocity": 0.33858267716535434,
                    "duration": 0.1383126666666783
                },
                {
                    "name": "C#5",
                    "midi": 73,
                    "time": 254.4953066666724,
                    "velocity": 0.2992125984251969,
                    "duration": 0.1383126666666783
                },
                {
                    "name": "A4",
                    "midi": 69,
                    "time": 254.63361933333908,
                    "velocity": 0.2992125984251969,
                    "duration": 0.12102358333333996
                },
                {
                    "name": "A4",
                    "midi": 69,
                    "time": 254.77193200000576,
                    "velocity": 0.33858267716535434,
                    "duration": 0.1383126666666783
                },
                {
                    "name": "C5",
                    "midi": 72,
                    "time": 254.91024466667244,
                    "velocity": 0.29133858267716534,
                    "duration": 0.1383126666666783
                },
                {
                    "name": "A4",
                    "midi": 69,
                    "time": 255.04855733333912,
                    "velocity": 0.29133858267716534,
                    "duration": 0.1383126666666783
                },
                {
                    "name": "C5",
                    "midi": 72,
                    "time": 255.1868700000058,
                    "velocity": 0.33858267716535434,
                    "duration": 0.1383126666666783
                },
                {
                    "name": "D#5",
                    "midi": 75,
                    "time": 255.32518266667248,
                    "velocity": 0.29133858267716534,
                    "duration": 0.1383126666666783
                },
                {
                    "name": "C5",
                    "midi": 72,
                    "time": 255.46349533333915,
                    "velocity": 0.29133858267716534,
                    "duration": 0.1383126666666783
                },
                {
                    "name": "A4",
                    "midi": 69,
                    "time": 255.60180800000583,
                    "velocity": 0.33070866141732286,
                    "duration": 0.1383126666666783
                },
                {
                    "name": "C#5",
                    "midi": 73,
                    "time": 255.7401206666725,
                    "velocity": 0.29133858267716534,
                    "duration": 0.1383126666666783
                },
                {
                    "name": "A4",
                    "midi": 69,
                    "time": 255.8784333333392,
                    "velocity": 0.29133858267716534,
                    "duration": 0.1383126666666783
                },
                {
                    "name": "C#5",
                    "midi": 73,
                    "time": 256.01674600000587,
                    "velocity": 0.33858267716535434,
                    "duration": 0.13831266666664987
                },
                {
                    "name": "E5",
                    "midi": 76,
                    "time": 256.1550586666725,
                    "velocity": 0.28346456692913385,
                    "duration": 0.13831266666664987
                },
                {
                    "name": "C#5",
                    "midi": 73,
                    "time": 256.29337133333917,
                    "velocity": 0.29133858267716534,
                    "duration": 0.12102358333333996
                },
                {
                    "name": "E4",
                    "midi": 64,
                    "time": 256.4316840000058,
                    "velocity": 0.33858267716535434,
                    "duration": 0.13831266666664987
                },
                {
                    "name": "B4",
                    "midi": 71,
                    "time": 256.56999666667247,
                    "velocity": 0.29133858267716534,
                    "duration": 0.13831266666664987
                },
                {
                    "name": "E4",
                    "midi": 64,
                    "time": 256.7083093333391,
                    "velocity": 0.2992125984251969,
                    "duration": 0.13831266666664987
                },
                {
                    "name": "B4",
                    "midi": 71,
                    "time": 256.84662200000577,
                    "velocity": 0.33858267716535434,
                    "duration": 0.13831266666664987
                },
                {
                    "name": "D5",
                    "midi": 74,
                    "time": 256.9849346666724,
                    "velocity": 0.30708661417322836,
                    "duration": 0.13831266666664987
                },
                {
                    "name": "B4",
                    "midi": 71,
                    "time": 257.12324733333907,
                    "velocity": 0.30708661417322836,
                    "duration": 0.13831266666664987
                },
                {
                    "name": "E4",
                    "midi": 64,
                    "time": 257.2615600000057,
                    "velocity": 0.33858267716535434,
                    "duration": 0.13831266666664987
                },
                {
                    "name": "A4",
                    "midi": 69,
                    "time": 257.39987266667237,
                    "velocity": 0.2992125984251969,
                    "duration": 0.13831266666664987
                },
                {
                    "name": "E4",
                    "midi": 64,
                    "time": 257.538185333339,
                    "velocity": 0.2992125984251969,
                    "duration": 0.13831266666664987
                },
                {
                    "name": "A4",
                    "midi": 69,
                    "time": 257.67649800000567,
                    "velocity": 0.33858267716535434,
                    "duration": 0.13831266666664987
                },
                {
                    "name": "C#5",
                    "midi": 73,
                    "time": 257.8148106666723,
                    "velocity": 0.2992125984251969,
                    "duration": 0.13831266666664987
                },
                {
                    "name": "A4",
                    "midi": 69,
                    "time": 257.95312333333897,
                    "velocity": 0.2992125984251969,
                    "duration": 0.12102358333333996
                },
                {
                    "name": "E4",
                    "midi": 64,
                    "time": 258.0914360000056,
                    "velocity": 0.33858267716535434,
                    "duration": 0.13831266666664987
                },
                {
                    "name": "G#4",
                    "midi": 68,
                    "time": 258.22974866667226,
                    "velocity": 0.29133858267716534,
                    "duration": 0.13831266666664987
                },
                {
                    "name": "E4",
                    "midi": 64,
                    "time": 258.3680613333389,
                    "velocity": 0.29133858267716534,
                    "duration": 0.13831266666664987
                },
                {
                    "name": "G#4",
                    "midi": 68,
                    "time": 258.50637400000556,
                    "velocity": 0.33858267716535434,
                    "duration": 0.13831266666664987
                },
                {
                    "name": "B4",
                    "midi": 71,
                    "time": 258.6446866666722,
                    "velocity": 0.29133858267716534,
                    "duration": 0.13831266666664987
                },
                {
                    "name": "G#4",
                    "midi": 68,
                    "time": 258.78299933333886,
                    "velocity": 0.29133858267716534,
                    "duration": 0.13831266666664987
                },
                {
                    "name": "C#5",
                    "midi": 73,
                    "time": 258.9213120000055,
                    "velocity": 0.3464566929133858,
                    "duration": 0.13831266666664987
                },
                {
                    "name": "E5",
                    "midi": 76,
                    "time": 259.05962466667216,
                    "velocity": 0.30708661417322836,
                    "duration": 0.13831266666664987
                },
                {
                    "name": "C#5",
                    "midi": 73,
                    "time": 259.1979373333388,
                    "velocity": 0.30708661417322836,
                    "duration": 0.13831266666664987
                },
                {
                    "name": "E5",
                    "midi": 76,
                    "time": 259.33625000000546,
                    "velocity": 0.36220472440944884,
                    "duration": 0.13831266666664987
                },
                {
                    "name": "A5",
                    "midi": 81,
                    "time": 259.4745626666721,
                    "velocity": 0.30708661417322836,
                    "duration": 0.13831266666664987
                },
                {
                    "name": "E5",
                    "midi": 76,
                    "time": 259.61287533333876,
                    "velocity": 0.31496062992125984,
                    "duration": 0.12102358333333996
                },
                {
                    "name": "E5",
                    "midi": 76,
                    "time": 259.7511880000054,
                    "velocity": 0.3700787401574803,
                    "duration": 0.13831266666664987
                },
                {
                    "name": "G#5",
                    "midi": 80,
                    "time": 259.88950066667206,
                    "velocity": 0.3228346456692913,
                    "duration": 0.13831266666664987
                },
                {
                    "name": "E5",
                    "midi": 76,
                    "time": 260.0278133333387,
                    "velocity": 0.33070866141732286,
                    "duration": 0.13831266666664987
                },
                {
                    "name": "G#5",
                    "midi": 80,
                    "time": 260.16612600000536,
                    "velocity": 0.3858267716535433,
                    "duration": 0.13831266666664987
                },
                {
                    "name": "B5",
                    "midi": 83,
                    "time": 260.304438666672,
                    "velocity": 0.3464566929133858,
                    "duration": 0.13831266666664987
                },
                {
                    "name": "G#5",
                    "midi": 80,
                    "time": 260.44275133333866,
                    "velocity": 0.3543307086614173,
                    "duration": 0.13831266666664987
                },
                {
                    "name": "E5",
                    "midi": 76,
                    "time": 260.5810640000053,
                    "velocity": 0.3937007874015748,
                    "duration": 0.13831266666664987
                },
                {
                    "name": "A5",
                    "midi": 81,
                    "time": 260.71937666667196,
                    "velocity": 0.3464566929133858,
                    "duration": 0.13831266666664987
                },
                {
                    "name": "E5",
                    "midi": 76,
                    "time": 260.8576893333386,
                    "velocity": 0.3543307086614173,
                    "duration": 0.13831266666664987
                },
                {
                    "name": "A5",
                    "midi": 81,
                    "time": 260.99600200000526,
                    "velocity": 0.4015748031496063,
                    "duration": 0.13831266666664987
                },
                {
                    "name": "C#6",
                    "midi": 85,
                    "time": 261.1343146666719,
                    "velocity": 0.3543307086614173,
                    "duration": 0.13831266666664987
                },
                {
                    "name": "A5",
                    "midi": 81,
                    "time": 261.27262733333856,
                    "velocity": 0.36220472440944884,
                    "duration": 0.12102358333333996
                },
                {
                    "name": "A5",
                    "midi": 81,
                    "time": 261.4109400000052,
                    "velocity": 0.4094488188976378,
                    "duration": 0.13831266666664987
                },
                {
                    "name": "C6",
                    "midi": 84,
                    "time": 261.54925266667186,
                    "velocity": 0.3543307086614173,
                    "duration": 0.13831266666664987
                },
                {
                    "name": "A5",
                    "midi": 81,
                    "time": 261.6875653333385,
                    "velocity": 0.36220472440944884,
                    "duration": 0.13831266666664987
                },
                {
                    "name": "C6",
                    "midi": 84,
                    "time": 261.82587800000516,
                    "velocity": 0.4251968503937008,
                    "duration": 0.13831266666664987
                },
                {
                    "name": "D#6",
                    "midi": 87,
                    "time": 261.9641906666718,
                    "velocity": 0.36220472440944884,
                    "duration": 0.13831266666664987
                },
                {
                    "name": "C6",
                    "midi": 84,
                    "time": 262.10250333333846,
                    "velocity": 0.3700787401574803,
                    "duration": 0.13831266666664987
                },
                {
                    "name": "A5",
                    "midi": 81,
                    "time": 262.2408160000051,
                    "velocity": 0.4330708661417323,
                    "duration": 0.13831266666664987
                },
                {
                    "name": "C6",
                    "midi": 84,
                    "time": 262.37912866667176,
                    "velocity": 0.3858267716535433,
                    "duration": 0.13831266666664987
                },
                {
                    "name": "A5",
                    "midi": 81,
                    "time": 262.5174413333384,
                    "velocity": 0.3858267716535433,
                    "duration": 0.13831266666664987
                },
                {
                    "name": "C6",
                    "midi": 84,
                    "time": 262.65575400000506,
                    "velocity": 0.4330708661417323,
                    "duration": 0.13831266666664987
                },
                {
                    "name": "D#6",
                    "midi": 87,
                    "time": 262.7940666666717,
                    "velocity": 0.3858267716535433,
                    "duration": 0.13831266666664987
                },
                {
                    "name": "C6",
                    "midi": 84,
                    "time": 262.93237933333836,
                    "velocity": 0.3858267716535433,
                    "duration": 0.12102358333333996
                },
                {
                    "name": "A5",
                    "midi": 81,
                    "time": 263.070692000005,
                    "velocity": 0.33858267716535434,
                    "duration": 0.13831266666664987
                },
                {
                    "name": "C6",
                    "midi": 84,
                    "time": 263.20900466667166,
                    "velocity": 0.29133858267716534,
                    "duration": 0.13831266666664987
                },
                {
                    "name": "A5",
                    "midi": 81,
                    "time": 263.3473173333383,
                    "velocity": 0.29133858267716534,
                    "duration": 0.13831266666664987
                },
                {
                    "name": "C6",
                    "midi": 84,
                    "time": 263.48563000000496,
                    "velocity": 0.33858267716535434,
                    "duration": 0.13831266666664987
                },
                {
                    "name": "D#6",
                    "midi": 87,
                    "time": 263.6239426666716,
                    "velocity": 0.29133858267716534,
                    "duration": 0.13831266666664987
                },
                {
                    "name": "C6",
                    "midi": 84,
                    "time": 263.76225533333826,
                    "velocity": 0.29133858267716534,
                    "duration": 0.13831266666664987
                },
                {
                    "name": "A5",
                    "midi": 81,
                    "time": 263.9005680000049,
                    "velocity": 0.33858267716535434,
                    "duration": 0.13831266666664987
                },
                {
                    "name": "C6",
                    "midi": 84,
                    "time": 264.03888066667156,
                    "velocity": 0.2992125984251969,
                    "duration": 0.13831266666664987
                },
                {
                    "name": "A5",
                    "midi": 81,
                    "time": 264.1771933333382,
                    "velocity": 0.2992125984251969,
                    "duration": 0.13831266666664987
                },
                {
                    "name": "C6",
                    "midi": 84,
                    "time": 264.31550600000486,
                    "velocity": 0.33858267716535434,
                    "duration": 0.13831266666664987
                },
                {
                    "name": "D#6",
                    "midi": 87,
                    "time": 264.4538186666715,
                    "velocity": 0.2992125984251969,
                    "duration": 0.13831266666664987
                },
                {
                    "name": "C6",
                    "midi": 84,
                    "time": 264.59213133333816,
                    "velocity": 0.2992125984251969,
                    "duration": 0.12102358333333996
                },
                {
                    "name": "A5",
                    "midi": 81,
                    "time": 264.7304440000048,
                    "velocity": 0.33858267716535434,
                    "duration": 0.13831266666664987
                },
                {
                    "name": "C6",
                    "midi": 84,
                    "time": 264.86875666667146,
                    "velocity": 0.29133858267716534,
                    "duration": 0.13831266666664987
                },
                {
                    "name": "A5",
                    "midi": 81,
                    "time": 265.0070693333381,
                    "velocity": 0.29133858267716534,
                    "duration": 0.13831266666664987
                },
                {
                    "name": "C6",
                    "midi": 84,
                    "time": 265.14538200000476,
                    "velocity": 0.33858267716535434,
                    "duration": 0.13831266666664987
                },
                {
                    "name": "F6",
                    "midi": 89,
                    "time": 265.2836946666714,
                    "velocity": 0.29133858267716534,
                    "duration": 0.13831266666664987
                },
                {
                    "name": "C6",
                    "midi": 84,
                    "time": 265.42200733333806,
                    "velocity": 0.29133858267716534,
                    "duration": 0.13831266666664987
                },
                {
                    "name": "A5",
                    "midi": 81,
                    "time": 265.5603200000047,
                    "velocity": 0.33858267716535434,
                    "duration": 0.13831266666664987
                },
                {
                    "name": "C6",
                    "midi": 84,
                    "time": 265.69863266667136,
                    "velocity": 0.2992125984251969,
                    "duration": 0.13831266666664987
                },
                {
                    "name": "A5",
                    "midi": 81,
                    "time": 265.836945333338,
                    "velocity": 0.2992125984251969,
                    "duration": 0.13831266666664987
                },
                {
                    "name": "C6",
                    "midi": 84,
                    "time": 265.97525800000466,
                    "velocity": 0.33858267716535434,
                    "duration": 0.13831266666664987
                },
                {
                    "name": "F6",
                    "midi": 89,
                    "time": 266.1135706666713,
                    "velocity": 0.2992125984251969,
                    "duration": 0.13831266666664987
                },
                {
                    "name": "C6",
                    "midi": 84,
                    "time": 266.25188333333796,
                    "velocity": 0.2992125984251969,
                    "duration": 0.12102358333333996
                },
                {
                    "name": "A5",
                    "midi": 81,
                    "time": 266.3901960000046,
                    "velocity": 0.33858267716535434,
                    "duration": 0.13831266666664987
                },
                {
                    "name": "C6",
                    "midi": 84,
                    "time": 266.52850866667126,
                    "velocity": 0.29133858267716534,
                    "duration": 0.13831266666664987
                },
                {
                    "name": "A5",
                    "midi": 81,
                    "time": 266.6668213333379,
                    "velocity": 0.28346456692913385,
                    "duration": 0.13831266666664987
                },
                {
                    "name": "C6",
                    "midi": 84,
                    "time": 266.80513400000456,
                    "velocity": 0.33070866141732286,
                    "duration": 0.13831266666664987
                },
                {
                    "name": "F6",
                    "midi": 89,
                    "time": 266.9434466666712,
                    "velocity": 0.28346456692913385,
                    "duration": 0.13831266666664987
                },
                {
                    "name": "C6",
                    "midi": 84,
                    "time": 267.08175933333786,
                    "velocity": 0.28346456692913385,
                    "duration": 0.13831266666664987
                },
                {
                    "name": "A#5",
                    "midi": 82,
                    "time": 267.2200720000045,
                    "velocity": 0.3228346456692913,
                    "duration": 0.13831266666664987
                },
                {
                    "name": "D6",
                    "midi": 86,
                    "time": 267.35838466667116,
                    "velocity": 0.28346456692913385,
                    "duration": 0.13831266666664987
                },
                {
                    "name": "A#5",
                    "midi": 82,
                    "time": 267.4966973333378,
                    "velocity": 0.28346456692913385,
                    "duration": 0.13831266666664987
                },
                {
                    "name": "D6",
                    "midi": 86,
                    "time": 267.63501000000446,
                    "velocity": 0.31496062992125984,
                    "duration": 0.13831266666664987
                },
                {
                    "name": "F6",
                    "midi": 89,
                    "time": 267.7733226666711,
                    "velocity": 0.28346456692913385,
                    "duration": 0.13831266666664987
                },
                {
                    "name": "D6",
                    "midi": 86,
                    "time": 267.91163533333776,
                    "velocity": 0.2755905511811024,
                    "duration": 0.12102358333333996
                },
                {
                    "name": "G#5",
                    "midi": 80,
                    "time": 268.0499480000044,
                    "velocity": 0.30708661417322836,
                    "duration": 0.13831266666664987
                },
                {
                    "name": "B5",
                    "midi": 83,
                    "time": 268.18826066667106,
                    "velocity": 0.2677165354330709,
                    "duration": 0.13831266666664987
                },
                {
                    "name": "G#5",
                    "midi": 80,
                    "time": 268.3265733333377,
                    "velocity": 0.2677165354330709,
                    "duration": 0.13831266666664987
                },
                {
                    "name": "B5",
                    "midi": 83,
                    "time": 268.46488600000436,
                    "velocity": 0.30708661417322836,
                    "duration": 0.13831266666664987
                },
                {
                    "name": "E6",
                    "midi": 88,
                    "time": 268.603198666671,
                    "velocity": 0.25984251968503935,
                    "duration": 0.13831266666664987
                },
                {
                    "name": "B5",
                    "midi": 83,
                    "time": 268.74151133333766,
                    "velocity": 0.25984251968503935,
                    "duration": 0.13831266666664987
                },
                {
                    "name": "A5",
                    "midi": 81,
                    "time": 268.8798240000043,
                    "velocity": 0.2992125984251969,
                    "duration": 0.13831266666664987
                },
                {
                    "name": "C#6",
                    "midi": 85,
                    "time": 269.01813666667096,
                    "velocity": 0.25984251968503935,
                    "duration": 0.13831266666664987
                },
                {
                    "name": "A5",
                    "midi": 81,
                    "time": 269.1564493333376,
                    "velocity": 0.25984251968503935,
                    "duration": 0.13831266666664987
                },
                {
                    "name": "C#6",
                    "midi": 85,
                    "time": 269.29476200000425,
                    "velocity": 0.29133858267716534,
                    "duration": 0.13831266666664987
                },
                {
                    "name": "E6",
                    "midi": 88,
                    "time": 269.4330746666709,
                    "velocity": 0.25984251968503935,
                    "duration": 0.13831266666664987
                },
                {
                    "name": "C#6",
                    "midi": 85,
                    "time": 269.57138733333755,
                    "velocity": 0.25984251968503935,
                    "duration": 0.12102358333333996
                },
                {
                    "name": "D5",
                    "midi": 74,
                    "time": 269.7097000000042,
                    "velocity": 0.28346456692913385,
                    "duration": 0.13831266666664987
                },
                {
                    "name": "A5",
                    "midi": 81,
                    "time": 269.84801266667085,
                    "velocity": 0.2440944881889764,
                    "duration": 0.13831266666664987
                },
                {
                    "name": "D5",
                    "midi": 74,
                    "time": 269.9863253333375,
                    "velocity": 0.2440944881889764,
                    "duration": 0.12966812500002334
                },
                {
                    "name": "A5",
                    "midi": 81,
                    "time": 270.1246380000042,
                    "velocity": 0.28346456692913385,
                    "duration": 0.13831266666664987
                },
                {
                    "name": "D6",
                    "midi": 86,
                    "time": 270.26295066667086,
                    "velocity": 0.2440944881889764,
                    "duration": 0.13831266666664987
                },
                {
                    "name": "A5",
                    "midi": 81,
                    "time": 270.4012633333375,
                    "velocity": 0.23622047244094488,
                    "duration": 0.13831266666664987
                },
                {
                    "name": "E5",
                    "midi": 76,
                    "time": 270.53957600000416,
                    "velocity": 0.2755905511811024,
                    "duration": 0.13831266666664987
                },
                {
                    "name": "A5",
                    "midi": 81,
                    "time": 270.6778886666708,
                    "velocity": 0.2440944881889764,
                    "duration": 0.13831266666664987
                },
                {
                    "name": "E5",
                    "midi": 76,
                    "time": 270.81620133333746,
                    "velocity": 0.23622047244094488,
                    "duration": 0.13831266666664987
                },
                {
                    "name": "A5",
                    "midi": 81,
                    "time": 270.9545140000041,
                    "velocity": 0.2677165354330709,
                    "duration": 0.13831266666664987
                },
                {
                    "name": "C#6",
                    "midi": 85,
                    "time": 271.09282666667076,
                    "velocity": 0.23622047244094488,
                    "duration": 0.13831266666664987
                },
                {
                    "name": "A5",
                    "midi": 81,
                    "time": 271.2311393333374,
                    "velocity": 0.23622047244094488,
                    "duration": 0.12102358333333996
                },
                {
                    "name": "E5",
                    "midi": 76,
                    "time": 271.36945200000406,
                    "velocity": 0.25984251968503935,
                    "duration": 0.13831266666664987
                },
                {
                    "name": "B5",
                    "midi": 83,
                    "time": 271.5077646666707,
                    "velocity": 0.2204724409448819,
                    "duration": 0.13831266666664987
                },
                {
                    "name": "G#5",
                    "midi": 80,
                    "time": 271.64607733333736,
                    "velocity": 0.2204724409448819,
                    "duration": 0.12966812500002334
                },
                {
                    "name": "E5",
                    "midi": 76,
                    "time": 271.78439000000407,
                    "velocity": 0.25984251968503935,
                    "duration": 0.13831266666664987
                },
                {
                    "name": "D5",
                    "midi": 74,
                    "time": 271.9227026666707,
                    "velocity": 0.2204724409448819,
                    "duration": 0.13831266666664987
                },
                {
                    "name": "B4",
                    "midi": 71,
                    "time": 272.06101533333737,
                    "velocity": 0.2204724409448819,
                    "duration": 0.13831266666664987
                },
                {
                    "name": "G4",
                    "midi": 67,
                    "time": 272.199328000004,
                    "velocity": 0.6850393700787402,
                    "duration": 0.13831266666664987
                },
                {
                    "name": "A4",
                    "midi": 69,
                    "time": 272.33764066667067,
                    "velocity": 0.4330708661417323,
                    "duration": 0.13831266666664987
                },
                {
                    "name": "G4",
                    "midi": 67,
                    "time": 272.4759533333373,
                    "velocity": 0.4330708661417323,
                    "duration": 0.13831266666664987
                },
                {
                    "name": "E4",
                    "midi": 64,
                    "time": 272.61426600000397,
                    "velocity": 0.48031496062992124,
                    "duration": 0.13831266666664987
                },
                {
                    "name": "C#4",
                    "midi": 61,
                    "time": 272.7525786666706,
                    "velocity": 0.4330708661417323,
                    "duration": 0.13831266666664987
                },
                {
                    "name": "A3",
                    "midi": 57,
                    "time": 272.89089133333727,
                    "velocity": 0.4330708661417323,
                    "duration": 0.13831266666664987
                },
                {
                    "name": "G3",
                    "midi": 55,
                    "time": 273.0292040000039,
                    "velocity": 0.5905511811023622,
                    "duration": 0.13831266666664987
                },
                {
                    "name": "A3",
                    "midi": 57,
                    "time": 273.16751666667056,
                    "velocity": 0.3779527559055118,
                    "duration": 0.13831266666664987
                },
                {
                    "name": "G3",
                    "midi": 55,
                    "time": 273.3058293333372,
                    "velocity": 0.3779527559055118,
                    "duration": 0.13831266666664987
                },
                {
                    "name": "A3",
                    "midi": 57,
                    "time": 273.44414200000386,
                    "velocity": 0.4251968503937008,
                    "duration": 0.13831266666664987
                },
                {
                    "name": "G3",
                    "midi": 55,
                    "time": 273.5824546666705,
                    "velocity": 0.3937007874015748,
                    "duration": 0.13831266666664987
                },
                {
                    "name": "A3",
                    "midi": 57,
                    "time": 273.72076733333716,
                    "velocity": 0.3937007874015748,
                    "duration": 0.13831266666664987
                },
                {
                    "name": "F4",
                    "midi": 65,
                    "time": 273.8590800000038,
                    "velocity": 0.6614173228346457,
                    "duration": 0.13831266666664987
                },
                {
                    "name": "A4",
                    "midi": 69,
                    "time": 273.99739266667046,
                    "velocity": 0.4330708661417323,
                    "duration": 0.13831266666664987
                },
                {
                    "name": "F4",
                    "midi": 65,
                    "time": 274.1357053333371,
                    "velocity": 0.4330708661417323,
                    "duration": 0.13831266666664987
                },
                {
                    "name": "C4",
                    "midi": 60,
                    "time": 274.27401800000376,
                    "velocity": 0.48031496062992124,
                    "duration": 0.13831266666664987
                },
                {
                    "name": "A3",
                    "midi": 57,
                    "time": 274.4123306666704,
                    "velocity": 0.4330708661417323,
                    "duration": 0.13831266666664987
                },
                {
                    "name": "F3",
                    "midi": 53,
                    "time": 274.55064333333706,
                    "velocity": 0.4330708661417323,
                    "duration": 0.13831266666664987
                },
                {
                    "name": "A3",
                    "midi": 57,
                    "time": 274.6889560000037,
                    "velocity": 0.6062992125984252,
                    "duration": 0.13831266666664987
                },
                {
                    "name": "F3",
                    "midi": 53,
                    "time": 274.82726866667036,
                    "velocity": 0.3779527559055118,
                    "duration": 0.13831266666664987
                },
                {
                    "name": "A3",
                    "midi": 57,
                    "time": 274.965581333337,
                    "velocity": 0.3779527559055118,
                    "duration": 0.13831266666664987
                },
                {
                    "name": "F3",
                    "midi": 53,
                    "time": 275.10389400000366,
                    "velocity": 0.4251968503937008,
                    "duration": 0.13831266666664987
                },
                {
                    "name": "A3",
                    "midi": 57,
                    "time": 275.2422066666703,
                    "velocity": 0.3937007874015748,
                    "duration": 0.13831266666664987
                },
                {
                    "name": "F3",
                    "midi": 53,
                    "time": 275.38051933333696,
                    "velocity": 0.3937007874015748,
                    "duration": 0.13831266666664987
                },
                {
                    "name": "G4",
                    "midi": 67,
                    "time": 275.5188320000036,
                    "velocity": 0.6929133858267716,
                    "duration": 0.13831266666664987
                },
                {
                    "name": "A4",
                    "midi": 69,
                    "time": 275.65714466667026,
                    "velocity": 0.4330708661417323,
                    "duration": 0.13831266666664987
                },
                {
                    "name": "G4",
                    "midi": 67,
                    "time": 275.7954573333369,
                    "velocity": 0.4330708661417323,
                    "duration": 0.13831266666664987
                },
                {
                    "name": "E4",
                    "midi": 64,
                    "time": 275.93377000000356,
                    "velocity": 0.48031496062992124,
                    "duration": 0.13831266666664987
                },
                {
                    "name": "C#4",
                    "midi": 61,
                    "time": 276.0720826666702,
                    "velocity": 0.4330708661417323,
                    "duration": 0.13831266666664987
                },
                {
                    "name": "A3",
                    "midi": 57,
                    "time": 276.21039533333686,
                    "velocity": 0.4330708661417323,
                    "duration": 0.13831266666664987
                },
                {
                    "name": "G3",
                    "midi": 55,
                    "time": 276.3487080000035,
                    "velocity": 0.5905511811023622,
                    "duration": 0.13831266666664987
                },
                {
                    "name": "A3",
                    "midi": 57,
                    "time": 276.48702066667016,
                    "velocity": 0.3779527559055118,
                    "duration": 0.13831266666664987
                },
                {
                    "name": "G3",
                    "midi": 55,
                    "time": 276.6253333333368,
                    "velocity": 0.3779527559055118,
                    "duration": 0.13831266666664987
                },
                {
                    "name": "A3",
                    "midi": 57,
                    "time": 276.76364600000346,
                    "velocity": 0.4251968503937008,
                    "duration": 0.13831266666664987
                },
                {
                    "name": "G3",
                    "midi": 55,
                    "time": 276.9019586666701,
                    "velocity": 0.3937007874015748,
                    "duration": 0.13831266666664987
                },
                {
                    "name": "A3",
                    "midi": 57,
                    "time": 277.04027133333676,
                    "velocity": 0.3937007874015748,
                    "duration": 0.13831266666664987
                },
                {
                    "name": "F4",
                    "midi": 65,
                    "time": 277.1785840000034,
                    "velocity": 0.6850393700787402,
                    "duration": 0.13831266666664987
                },
                {
                    "name": "A4",
                    "midi": 69,
                    "time": 277.31689666667006,
                    "velocity": 0.4330708661417323,
                    "duration": 0.13831266666664987
                },
                {
                    "name": "F4",
                    "midi": 65,
                    "time": 277.4552093333367,
                    "velocity": 0.4330708661417323,
                    "duration": 0.13831266666664987
                },
                {
                    "name": "C4",
                    "midi": 60,
                    "time": 277.59352200000336,
                    "velocity": 0.48031496062992124,
                    "duration": 0.13831266666664987
                },
                {
                    "name": "A3",
                    "midi": 57,
                    "time": 277.73183466667,
                    "velocity": 0.4330708661417323,
                    "duration": 0.13831266666664987
                },
                {
                    "name": "F3",
                    "midi": 53,
                    "time": 277.87014733333666,
                    "velocity": 0.4330708661417323,
                    "duration": 0.13831266666664987
                },
                {
                    "name": "A3",
                    "midi": 57,
                    "time": 278.0084600000033,
                    "velocity": 0.6062992125984252,
                    "duration": 0.13831266666664987
                },
                {
                    "name": "F3",
                    "midi": 53,
                    "time": 278.14677266666996,
                    "velocity": 0.3779527559055118,
                    "duration": 0.13831266666664987
                },
                {
                    "name": "A3",
                    "midi": 57,
                    "time": 278.2850853333366,
                    "velocity": 0.3779527559055118,
                    "duration": 0.13831266666664987
                },
                {
                    "name": "F3",
                    "midi": 53,
                    "time": 278.42339800000326,
                    "velocity": 0.4251968503937008,
                    "duration": 0.13831266666664987
                },
                {
                    "name": "A3",
                    "midi": 57,
                    "time": 278.5617106666699,
                    "velocity": 0.3937007874015748,
                    "duration": 0.13831266666664987
                },
                {
                    "name": "F3",
                    "midi": 53,
                    "time": 278.70002333333656,
                    "velocity": 0.3937007874015748,
                    "duration": 0.13831266666664987
                },
                {
                    "name": "C#5",
                    "midi": 73,
                    "time": 279.2532740000032,
                    "velocity": 0.3464566929133858,
                    "duration": 0.31120349999997643
                },
                {
                    "name": "E5",
                    "midi": 76,
                    "time": 279.2532740000032,
                    "velocity": 0.3464566929133858,
                    "duration": 0.31120349999997643
                },
                {
                    "name": "C#5",
                    "midi": 73,
                    "time": 279.5644775000032,
                    "velocity": 0.30708661417322836,
                    "duration": 0.1037344999999732
                },
                {
                    "name": "E5",
                    "midi": 76,
                    "time": 279.5644775000032,
                    "velocity": 0.30708661417322836,
                    "duration": 0.1037344999999732
                },
                {
                    "name": "B4",
                    "midi": 71,
                    "time": 279.66821200000317,
                    "velocity": 0.3464566929133858,
                    "duration": 0.20746900000000323
                },
                {
                    "name": "D5",
                    "midi": 74,
                    "time": 279.66821200000317,
                    "velocity": 0.3464566929133858,
                    "duration": 0.20746900000000323
                },
                {
                    "name": "D4",
                    "midi": 62,
                    "time": 279.66821200000317,
                    "velocity": 0.3464566929133858,
                    "duration": 0.13831266666664987
                },
                {
                    "name": "E4",
                    "midi": 64,
                    "time": 279.8065246666698,
                    "velocity": 0.3464566929133858,
                    "duration": 0.13831266666670672
                },
                {
                    "name": "F#4",
                    "midi": 66,
                    "time": 279.9448373333365,
                    "velocity": 0.33858267716535434,
                    "duration": 0.13831266666664987
                },
                {
                    "name": "G#4",
                    "midi": 68,
                    "time": 280.0831500000032,
                    "velocity": 0.3543307086614173,
                    "duration": 0.13831266666664987
                },
                {
                    "name": "A4",
                    "midi": 69,
                    "time": 280.2214626666698,
                    "velocity": 0.3779527559055118,
                    "duration": 0.13831266666664987
                },
                {
                    "name": "B4",
                    "midi": 71,
                    "time": 280.3597753333365,
                    "velocity": 0.3858267716535433,
                    "duration": 0.13831266666664987
                },
                {
                    "name": "C#5",
                    "midi": 73,
                    "time": 280.4980880000031,
                    "velocity": 0.3543307086614173,
                    "duration": 0.13831266666664987
                },
                {
                    "name": "D5",
                    "midi": 74,
                    "time": 280.6364006666698,
                    "velocity": 0.3779527559055118,
                    "duration": 0.13831266666664987
                },
                {
                    "name": "E5",
                    "midi": 76,
                    "time": 280.7747133333364,
                    "velocity": 0.3779527559055118,
                    "duration": 0.13485485000001063
                },
                {
                    "name": "F#5",
                    "midi": 78,
                    "time": 280.9130260000031,
                    "velocity": 0.3937007874015748,
                    "duration": 0.13831266666664987
                },
                {
                    "name": "G#5",
                    "midi": 80,
                    "time": 281.0513386666697,
                    "velocity": 0.4094488188976378,
                    "duration": 0.13831266666664987
                },
                {
                    "name": "A5",
                    "midi": 81,
                    "time": 281.18965133333637,
                    "velocity": 0.4094488188976378,
                    "duration": 0.13831266666664987
                },
                {
                    "name": "B5",
                    "midi": 83,
                    "time": 281.327964000003,
                    "velocity": 0.4251968503937008,
                    "duration": 0.13831266666664987
                },
                {
                    "name": "C#6",
                    "midi": 85,
                    "time": 281.46627666666967,
                    "velocity": 0.4409448818897638,
                    "duration": 0.13831266666664987
                },
                {
                    "name": "D6",
                    "midi": 86,
                    "time": 281.6045893333363,
                    "velocity": 0.4409448818897638,
                    "duration": 0.13831266666664987
                },
                {
                    "name": "E6",
                    "midi": 88,
                    "time": 281.74290200000297,
                    "velocity": 0.4566929133858268,
                    "duration": 0.13831266666664987
                },
                {
                    "name": "F#6",
                    "midi": 90,
                    "time": 281.8812146666696,
                    "velocity": 0.47244094488188976,
                    "duration": 0.13831266666664987
                },
                {
                    "name": "G#6",
                    "midi": 92,
                    "time": 282.01952733333627,
                    "velocity": 0.47244094488188976,
                    "duration": 0.13831266666664987
                },
                {
                    "name": "A6",
                    "midi": 93,
                    "time": 282.1578400000029,
                    "velocity": 0.4881889763779528,
                    "duration": 0.13831266666664987
                },
                {
                    "name": "G#6",
                    "midi": 92,
                    "time": 282.29615266666957,
                    "velocity": 0.4881889763779528,
                    "duration": 0.13831266666664987
                },
                {
                    "name": "F#6",
                    "midi": 90,
                    "time": 282.4344653333362,
                    "velocity": 0.47244094488188976,
                    "duration": 0.13831266666664987
                },
                {
                    "name": "E6",
                    "midi": 88,
                    "time": 282.57277800000287,
                    "velocity": 0.47244094488188976,
                    "duration": 0.13831266666664987
                },
                {
                    "name": "D6",
                    "midi": 86,
                    "time": 282.7110906666695,
                    "velocity": 0.4566929133858268,
                    "duration": 0.13831266666664987
                },
                {
                    "name": "C#6",
                    "midi": 85,
                    "time": 282.84940333333617,
                    "velocity": 0.4409448818897638,
                    "duration": 0.13831266666664987
                },
                {
                    "name": "B5",
                    "midi": 83,
                    "time": 282.9877160000028,
                    "velocity": 0.4330708661417323,
                    "duration": 0.13831266666664987
                },
                {
                    "name": "A5",
                    "midi": 81,
                    "time": 283.12602866666947,
                    "velocity": 0.4251968503937008,
                    "duration": 0.13831266666664987
                },
                {
                    "name": "G#5",
                    "midi": 80,
                    "time": 283.2643413333361,
                    "velocity": 0.4094488188976378,
                    "duration": 0.13831266666664987
                },
                {
                    "name": "F#5",
                    "midi": 78,
                    "time": 283.40265400000277,
                    "velocity": 0.4015748031496063,
                    "duration": 0.13831266666664987
                },
                {
                    "name": "E5",
                    "midi": 76,
                    "time": 283.5409666666694,
                    "velocity": 0.3937007874015748,
                    "duration": 0.13831266666664987
                },
                {
                    "name": "D5",
                    "midi": 74,
                    "time": 283.67927933333607,
                    "velocity": 0.3779527559055118,
                    "duration": 0.13831266666664987
                },
                {
                    "name": "C#5",
                    "midi": 73,
                    "time": 283.8175920000027,
                    "velocity": 0.36220472440944884,
                    "duration": 0.13831266666664987
                },
                {
                    "name": "B4",
                    "midi": 71,
                    "time": 283.95590466666937,
                    "velocity": 0.3543307086614173,
                    "duration": 0.13831266666664987
                },
                {
                    "name": "A4",
                    "midi": 69,
                    "time": 284.094217333336,
                    "velocity": 0.3464566929133858,
                    "duration": 0.13831266666664987
                },
                {
                    "name": "G#4",
                    "midi": 68,
                    "time": 284.23253000000267,
                    "velocity": 0.33858267716535434,
                    "duration": 0.13831266666664987
                },
                {
                    "name": "F#4",
                    "midi": 66,
                    "time": 284.3708426666693,
                    "velocity": 0.3228346456692913,
                    "duration": 0.13831266666664987
                },
                {
                    "name": "E4",
                    "midi": 64,
                    "time": 284.50915533333597,
                    "velocity": 0.31496062992125984,
                    "duration": 0.13831266666664987
                },
                {
                    "name": "D4",
                    "midi": 62,
                    "time": 284.6474680000026,
                    "velocity": 0.31496062992125984,
                    "duration": 0.13831266666664987
                },
                {
                    "name": "F#4",
                    "midi": 66,
                    "time": 284.78578066666927,
                    "velocity": 0.30708661417322836,
                    "duration": 0.13831266666664987
                },
                {
                    "name": "E4",
                    "midi": 64,
                    "time": 284.9240933333359,
                    "velocity": 0.29133858267716534,
                    "duration": 0.13831266666664987
                },
                {
                    "name": "D4",
                    "midi": 62,
                    "time": 285.06240600000257,
                    "velocity": 0.2755905511811024,
                    "duration": 0.13831266666664987
                },
                {
                    "name": "C#4",
                    "midi": 61,
                    "time": 285.2007186666692,
                    "velocity": 0.25984251968503935,
                    "duration": 0.13831266666664987
                },
                {
                    "name": "B3",
                    "midi": 59,
                    "time": 285.33903133333587,
                    "velocity": 0.2440944881889764,
                    "duration": 0.13831266666664987
                },
                {
                    "name": "G4",
                    "midi": 67,
                    "time": 285.4773440000025,
                    "velocity": 0.6850393700787402,
                    "duration": 0.13831266666664987
                },
                {
                    "name": "A4",
                    "midi": 69,
                    "time": 285.61565666666917,
                    "velocity": 0.4330708661417323,
                    "duration": 0.13831266666664987
                },
                {
                    "name": "G4",
                    "midi": 67,
                    "time": 285.7539693333358,
                    "velocity": 0.4330708661417323,
                    "duration": 0.13831266666664987
                },
                {
                    "name": "E4",
                    "midi": 64,
                    "time": 285.89228200000247,
                    "velocity": 0.48031496062992124,
                    "duration": 0.13831266666664987
                },
                {
                    "name": "C#4",
                    "midi": 61,
                    "time": 286.0305946666691,
                    "velocity": 0.4330708661417323,
                    "duration": 0.13831266666664987
                },
                {
                    "name": "A3",
                    "midi": 57,
                    "time": 286.16890733333577,
                    "velocity": 0.4330708661417323,
                    "duration": 0.13831266666664987
                },
                {
                    "name": "G3",
                    "midi": 55,
                    "time": 286.3072200000024,
                    "velocity": 0.5905511811023622,
                    "duration": 0.13831266666664987
                },
                {
                    "name": "A3",
                    "midi": 57,
                    "time": 286.44553266666907,
                    "velocity": 0.3779527559055118,
                    "duration": 0.13831266666664987
                },
                {
                    "name": "G3",
                    "midi": 55,
                    "time": 286.5838453333357,
                    "velocity": 0.3779527559055118,
                    "duration": 0.13831266666664987
                },
                {
                    "name": "A3",
                    "midi": 57,
                    "time": 286.72215800000237,
                    "velocity": 0.4251968503937008,
                    "duration": 0.13831266666664987
                },
                {
                    "name": "G3",
                    "midi": 55,
                    "time": 286.860470666669,
                    "velocity": 0.3937007874015748,
                    "duration": 0.13831266666664987
                },
                {
                    "name": "A3",
                    "midi": 57,
                    "time": 286.99878333333567,
                    "velocity": 0.3937007874015748,
                    "duration": 0.13831266666664987
                },
                {
                    "name": "F4",
                    "midi": 65,
                    "time": 287.1370960000023,
                    "velocity": 0.6614173228346457,
                    "duration": 0.13831266666664987
                },
                {
                    "name": "A4",
                    "midi": 69,
                    "time": 287.27540866666897,
                    "velocity": 0.4330708661417323,
                    "duration": 0.13831266666664987
                },
                {
                    "name": "F4",
                    "midi": 65,
                    "time": 287.4137213333356,
                    "velocity": 0.4330708661417323,
                    "duration": 0.13831266666664987
                },
                {
                    "name": "C4",
                    "midi": 60,
                    "time": 287.55203400000227,
                    "velocity": 0.48031496062992124,
                    "duration": 0.13831266666664987
                },
                {
                    "name": "A3",
                    "midi": 57,
                    "time": 287.6903466666689,
                    "velocity": 0.4330708661417323,
                    "duration": 0.13831266666664987
                },
                {
                    "name": "F3",
                    "midi": 53,
                    "time": 287.82865933333557,
                    "velocity": 0.4330708661417323,
                    "duration": 0.13831266666664987
                },
                {
                    "name": "A3",
                    "midi": 57,
                    "time": 287.9669720000022,
                    "velocity": 0.6062992125984252,
                    "duration": 0.13831266666664987
                },
                {
                    "name": "F3",
                    "midi": 53,
                    "time": 288.10528466666887,
                    "velocity": 0.3779527559055118,
                    "duration": 0.13831266666664987
                },
                {
                    "name": "A3",
                    "midi": 57,
                    "time": 288.2435973333355,
                    "velocity": 0.3779527559055118,
                    "duration": 0.13831266666664987
                },
                {
                    "name": "F3",
                    "midi": 53,
                    "time": 288.38191000000216,
                    "velocity": 0.4251968503937008,
                    "duration": 0.13831266666664987
                },
                {
                    "name": "A3",
                    "midi": 57,
                    "time": 288.5202226666688,
                    "velocity": 0.3937007874015748,
                    "duration": 0.13831266666664987
                },
                {
                    "name": "F3",
                    "midi": 53,
                    "time": 288.65853533333546,
                    "velocity": 0.3937007874015748,
                    "duration": 0.13831266666664987
                },
                {
                    "name": "F4",
                    "midi": 65,
                    "time": 288.7968480000021,
                    "velocity": 0.6614173228346457,
                    "duration": 0.13831266666664987
                },
                {
                    "name": "G4",
                    "midi": 67,
                    "time": 288.93516066666876,
                    "velocity": 0.4330708661417323,
                    "duration": 0.13831266666664987
                },
                {
                    "name": "F4",
                    "midi": 65,
                    "time": 289.0734733333354,
                    "velocity": 0.4330708661417323,
                    "duration": 0.13831266666664987
                },
                {
                    "name": "D4",
                    "midi": 62,
                    "time": 289.21178600000206,
                    "velocity": 0.48031496062992124,
                    "duration": 0.13831266666664987
                },
                {
                    "name": "B3",
                    "midi": 59,
                    "time": 289.3500986666687,
                    "velocity": 0.4330708661417323,
                    "duration": 0.13831266666664987
                },
                {
                    "name": "G3",
                    "midi": 55,
                    "time": 289.48841133333536,
                    "velocity": 0.4330708661417323,
                    "duration": 0.13831266666664987
                },
                {
                    "name": "F3",
                    "midi": 53,
                    "time": 289.626724000002,
                    "velocity": 0.6062992125984252,
                    "duration": 0.13831266666664987
                },
                {
                    "name": "G3",
                    "midi": 55,
                    "time": 289.76503666666866,
                    "velocity": 0.3779527559055118,
                    "duration": 0.13831266666664987
                },
                {
                    "name": "F3",
                    "midi": 53,
                    "time": 289.9033493333353,
                    "velocity": 0.3779527559055118,
                    "duration": 0.13831266666664987
                },
                {
                    "name": "G3",
                    "midi": 55,
                    "time": 290.04166200000196,
                    "velocity": 0.4251968503937008,
                    "duration": 0.13831266666664987
                },
                {
                    "name": "F3",
                    "midi": 53,
                    "time": 290.1799746666686,
                    "velocity": 0.3937007874015748,
                    "duration": 0.13831266666664987
                },
                {
                    "name": "G3",
                    "midi": 55,
                    "time": 290.31828733333526,
                    "velocity": 0.3937007874015748,
                    "duration": 0.13831266666664987
                },
                {
                    "name": "D#4",
                    "midi": 63,
                    "time": 290.4566000000019,
                    "velocity": 0.6614173228346457,
                    "duration": 0.13831266666664987
                },
                {
                    "name": "G4",
                    "midi": 67,
                    "time": 290.59491266666856,
                    "velocity": 0.4330708661417323,
                    "duration": 0.13831266666664987
                },
                {
                    "name": "D#4",
                    "midi": 63,
                    "time": 290.7332253333352,
                    "velocity": 0.4330708661417323,
                    "duration": 0.13831266666664987
                },
                {
                    "name": "A#3",
                    "midi": 58,
                    "time": 290.87153800000186,
                    "velocity": 0.48031496062992124,
                    "duration": 0.13831266666664987
                },
                {
                    "name": "G3",
                    "midi": 55,
                    "time": 291.0098506666685,
                    "velocity": 0.4330708661417323,
                    "duration": 0.13831266666664987
                },
                {
                    "name": "D#3",
                    "midi": 51,
                    "time": 291.14816333333516,
                    "velocity": 0.4330708661417323,
                    "duration": 0.13831266666664987
                },
                {
                    "name": "G3",
                    "midi": 55,
                    "time": 291.2864760000018,
                    "velocity": 0.6062992125984252,
                    "duration": 0.13831266666664987
                },
                {
                    "name": "D#3",
                    "midi": 51,
                    "time": 291.42478866666846,
                    "velocity": 0.3779527559055118,
                    "duration": 0.13831266666664987
                },
                {
                    "name": "G3",
                    "midi": 55,
                    "time": 291.5631013333351,
                    "velocity": 0.3779527559055118,
                    "duration": 0.13831266666664987
                },
                {
                    "name": "D#3",
                    "midi": 51,
                    "time": 291.70141400000176,
                    "velocity": 0.4251968503937008,
                    "duration": 0.13831266666664987
                },
                {
                    "name": "G3",
                    "midi": 55,
                    "time": 291.8397266666684,
                    "velocity": 0.3937007874015748,
                    "duration": 0.13831266666664987
                },
                {
                    "name": "D#3",
                    "midi": 51,
                    "time": 291.97803933333506,
                    "velocity": 0.3937007874015748,
                    "duration": 0.13831266666664987
                },
                {
                    "name": "D#4",
                    "midi": 63,
                    "time": 292.1163520000017,
                    "velocity": 0.6614173228346457,
                    "duration": 0.13831266666664987
                },
                {
                    "name": "F4",
                    "midi": 65,
                    "time": 292.25466466666836,
                    "velocity": 0.4330708661417323,
                    "duration": 0.13831266666664987
                },
                {
                    "name": "D#4",
                    "midi": 63,
                    "time": 292.392977333335,
                    "velocity": 0.4330708661417323,
                    "duration": 0.13831266666664987
                },
                {
                    "name": "C4",
                    "midi": 60,
                    "time": 292.53129000000166,
                    "velocity": 0.48031496062992124,
                    "duration": 0.13831266666664987
                },
                {
                    "name": "A3",
                    "midi": 57,
                    "time": 292.6696026666683,
                    "velocity": 0.4330708661417323,
                    "duration": 0.13831266666664987
                },
                {
                    "name": "F3",
                    "midi": 53,
                    "time": 292.80791533333496,
                    "velocity": 0.4330708661417323,
                    "duration": 0.13831266666664987
                },
                {
                    "name": "C#4",
                    "midi": 61,
                    "time": 292.9462280000016,
                    "velocity": 0.6614173228346457,
                    "duration": 0.13831266666664987
                },
                {
                    "name": "F4",
                    "midi": 65,
                    "time": 293.08454066666826,
                    "velocity": 0.4330708661417323,
                    "duration": 0.13831266666664987
                },
                {
                    "name": "C#4",
                    "midi": 61,
                    "time": 293.2228533333349,
                    "velocity": 0.4330708661417323,
                    "duration": 0.13831266666664987
                },
                {
                    "name": "G#3",
                    "midi": 56,
                    "time": 293.36116600000156,
                    "velocity": 0.48031496062992124,
                    "duration": 0.13831266666664987
                },
                {
                    "name": "F3",
                    "midi": 53,
                    "time": 293.4994786666682,
                    "velocity": 0.4330708661417323,
                    "duration": 0.13831266666664987
                },
                {
                    "name": "C#3",
                    "midi": 49,
                    "time": 293.63779133333486,
                    "velocity": 0.4330708661417323,
                    "duration": 0.13831266666664987
                },
                {
                    "name": "D4",
                    "midi": 62,
                    "time": 293.7761040000015,
                    "velocity": 0.6614173228346457,
                    "duration": 0.13831266666664987
                },
                {
                    "name": "E4",
                    "midi": 64,
                    "time": 293.91441666666816,
                    "velocity": 0.4330708661417323,
                    "duration": 0.13831266666664987
                },
                {
                    "name": "D4",
                    "midi": 62,
                    "time": 294.0527293333348,
                    "velocity": 0.4330708661417323,
                    "duration": 0.13831266666664987
                },
                {
                    "name": "B3",
                    "midi": 59,
                    "time": 294.19104200000146,
                    "velocity": 0.48031496062992124,
                    "duration": 0.13831266666664987
                },
                {
                    "name": "G#3",
                    "midi": 56,
                    "time": 294.3293546666681,
                    "velocity": 0.4330708661417323,
                    "duration": 0.13831266666664987
                },
                {
                    "name": "E3",
                    "midi": 52,
                    "time": 294.46766733333476,
                    "velocity": 0.4330708661417323,
                    "duration": 0.13831266666664987
                },
                {
                    "name": "C4",
                    "midi": 60,
                    "time": 294.6059800000014,
                    "velocity": 0.6614173228346457,
                    "duration": 0.13831266666664987
                },
                {
                    "name": "E4",
                    "midi": 64,
                    "time": 294.74429266666806,
                    "velocity": 0.4330708661417323,
                    "duration": 0.13831266666664987
                },
                {
                    "name": "C4",
                    "midi": 60,
                    "time": 294.8826053333347,
                    "velocity": 0.4330708661417323,
                    "duration": 0.13831266666664987
                },
                {
                    "name": "G3",
                    "midi": 55,
                    "time": 295.02091800000136,
                    "velocity": 0.48031496062992124,
                    "duration": 0.13831266666664987
                },
                {
                    "name": "E3",
                    "midi": 52,
                    "time": 295.159230666668,
                    "velocity": 0.4330708661417323,
                    "duration": 0.13831266666664987
                },
                {
                    "name": "C3",
                    "midi": 48,
                    "time": 295.29754333333466,
                    "velocity": 0.4330708661417323,
                    "duration": 0.13831266666664987
                },
                {
                    "name": "F3",
                    "midi": 53,
                    "time": 295.4358560000013,
                    "velocity": 0.6614173228346457,
                    "duration": 0.13831266666664987
                },
                {
                    "name": "A3",
                    "midi": 57,
                    "time": 295.57416866666796,
                    "velocity": 0.4330708661417323,
                    "duration": 0.13831266666664987
                },
                {
                    "name": "F3",
                    "midi": 53,
                    "time": 295.7124813333346,
                    "velocity": 0.4330708661417323,
                    "duration": 0.13831266666664987
                },
                {
                    "name": "C3",
                    "midi": 48,
                    "time": 295.85079400000126,
                    "velocity": 0.48031496062992124,
                    "duration": 0.13831266666664987
                },
                {
                    "name": "A2",
                    "midi": 45,
                    "time": 295.9891066666679,
                    "velocity": 0.4330708661417323,
                    "duration": 0.13831266666664987
                },
                {
                    "name": "F2",
                    "midi": 41,
                    "time": 296.12741933333456,
                    "velocity": 0.4330708661417323,
                    "duration": 0.13831266666664987
                },
                {
                    "name": "A2",
                    "midi": 45,
                    "time": 296.2657320000012,
                    "velocity": 0.5433070866141733,
                    "duration": 0.13831266666664987
                },
                {
                    "name": "F2",
                    "midi": 41,
                    "time": 296.40404466666786,
                    "velocity": 0.33858267716535434,
                    "duration": 0.13831266666664987
                },
                {
                    "name": "A2",
                    "midi": 45,
                    "time": 296.5423573333345,
                    "velocity": 0.33858267716535434,
                    "duration": 0.13831266666664987
                },
                {
                    "name": "F2",
                    "midi": 41,
                    "time": 296.68067000000116,
                    "velocity": 0.3779527559055118,
                    "duration": 0.13831266666664987
                },
                {
                    "name": "A2",
                    "midi": 45,
                    "time": 296.8189826666678,
                    "velocity": 0.3543307086614173,
                    "duration": 0.13831266666664987
                },
                {
                    "name": "F2",
                    "midi": 41,
                    "time": 296.95729533333446,
                    "velocity": 0.3543307086614173,
                    "duration": 0.13831266666664987
                },
                {
                    "name": "A3",
                    "midi": 57,
                    "time": 297.0956080000011,
                    "velocity": 0.4409448818897638,
                    "duration": 0.13831266666664987
                },
                {
                    "name": "F3",
                    "midi": 53,
                    "time": 297.23392066666776,
                    "velocity": 0.30708661417322836,
                    "duration": 0.13831266666664987
                },
                {
                    "name": "A3",
                    "midi": 57,
                    "time": 297.3722333333344,
                    "velocity": 0.30708661417322836,
                    "duration": 0.13831266666664987
                },
                {
                    "name": "F3",
                    "midi": 53,
                    "time": 297.51054600000106,
                    "velocity": 0.33070866141732286,
                    "duration": 0.13831266666664987
                },
                {
                    "name": "A3",
                    "midi": 57,
                    "time": 297.6488586666677,
                    "velocity": 0.30708661417322836,
                    "duration": 0.13831266666664987
                },
                {
                    "name": "F3",
                    "midi": 53,
                    "time": 297.78717133333436,
                    "velocity": 0.2992125984251969,
                    "duration": 0.13831266666664987
                },
                {
                    "name": "A3",
                    "midi": 57,
                    "time": 297.925484000001,
                    "velocity": 0.36220472440944884,
                    "duration": 0.13831266666664987
                },
                {
                    "name": "F3",
                    "midi": 53,
                    "time": 298.06379666666766,
                    "velocity": 0.2677165354330709,
                    "duration": 0.13831266666664987
                },
                {
                    "name": "A3",
                    "midi": 57,
                    "time": 298.2021093333343,
                    "velocity": 0.25984251968503935,
                    "duration": 0.13831266666664987
                },
                {
                    "name": "F3",
                    "midi": 53,
                    "time": 298.34042200000096,
                    "velocity": 0.28346456692913385,
                    "duration": 0.13831266666664987
                },
                {
                    "name": "A3",
                    "midi": 57,
                    "time": 298.4787346666676,
                    "velocity": 0.25984251968503935,
                    "duration": 0.13831266666664987
                },
                {
                    "name": "F3",
                    "midi": 53,
                    "time": 298.61704733333426,
                    "velocity": 0.25196850393700787,
                    "duration": 0.13831266666664987
                },
                {
                    "name": "C#5",
                    "midi": 73,
                    "time": 299.1702980000009,
                    "velocity": 0.3464566929133858,
                    "duration": 0.31120349999997643
                },
                {
                    "name": "E5",
                    "midi": 76,
                    "time": 299.1702980000009,
                    "velocity": 0.3464566929133858,
                    "duration": 0.31120349999997643
                },
                {
                    "name": "C#5",
                    "midi": 73,
                    "time": 299.4815015000009,
                    "velocity": 0.30708661417322836,
                    "duration": 0.1037344999999732
                },
                {
                    "name": "E5",
                    "midi": 76,
                    "time": 299.4815015000009,
                    "velocity": 0.30708661417322836,
                    "duration": 0.1037344999999732
                },
                {
                    "name": "B4",
                    "midi": 71,
                    "time": 299.58523600000086,
                    "velocity": 0.3464566929133858,
                    "duration": 0.20746900000000323
                },
                {
                    "name": "D5",
                    "midi": 74,
                    "time": 299.58523600000086,
                    "velocity": 0.3464566929133858,
                    "duration": 0.20746900000000323
                },
                {
                    "name": "D4",
                    "midi": 62,
                    "time": 299.58523600000086,
                    "velocity": 0.3464566929133858,
                    "duration": 0.13831266666664987
                },
                {
                    "name": "E4",
                    "midi": 64,
                    "time": 299.7235486666675,
                    "velocity": 0.3464566929133858,
                    "duration": 0.13831266666670672
                },
                {
                    "name": "F#4",
                    "midi": 66,
                    "time": 299.8618613333342,
                    "velocity": 0.33858267716535434,
                    "duration": 0.13831266666664987
                },
                {
                    "name": "G#4",
                    "midi": 68,
                    "time": 300.00017400000087,
                    "velocity": 0.3543307086614173,
                    "duration": 0.13831266666664987
                },
                {
                    "name": "A4",
                    "midi": 69,
                    "time": 300.1384866666675,
                    "velocity": 0.3779527559055118,
                    "duration": 0.13831266666664987
                },
                {
                    "name": "B4",
                    "midi": 71,
                    "time": 300.27679933333417,
                    "velocity": 0.3858267716535433,
                    "duration": 0.13831266666664987
                },
                {
                    "name": "C#5",
                    "midi": 73,
                    "time": 300.4151120000008,
                    "velocity": 0.3543307086614173,
                    "duration": 0.13831266666664987
                },
                {
                    "name": "D5",
                    "midi": 74,
                    "time": 300.55342466666747,
                    "velocity": 0.3779527559055118,
                    "duration": 0.13831266666664987
                },
                {
                    "name": "E5",
                    "midi": 76,
                    "time": 300.6917373333341,
                    "velocity": 0.3779527559055118,
                    "duration": 0.13485485000001063
                },
                {
                    "name": "F#5",
                    "midi": 78,
                    "time": 300.83005000000077,
                    "velocity": 0.3937007874015748,
                    "duration": 0.13831266666664987
                },
                {
                    "name": "G#5",
                    "midi": 80,
                    "time": 300.9683626666674,
                    "velocity": 0.4094488188976378,
                    "duration": 0.13831266666664987
                },
                {
                    "name": "A5",
                    "midi": 81,
                    "time": 301.10667533333407,
                    "velocity": 0.4094488188976378,
                    "duration": 0.13831266666664987
                },
                {
                    "name": "B5",
                    "midi": 83,
                    "time": 301.2449880000007,
                    "velocity": 0.4251968503937008,
                    "duration": 0.13831266666664987
                },
                {
                    "name": "C#6",
                    "midi": 85,
                    "time": 301.38330066666737,
                    "velocity": 0.4409448818897638,
                    "duration": 0.13831266666664987
                },
                {
                    "name": "D6",
                    "midi": 86,
                    "time": 301.521613333334,
                    "velocity": 0.4409448818897638,
                    "duration": 0.13831266666664987
                },
                {
                    "name": "E6",
                    "midi": 88,
                    "time": 301.65992600000067,
                    "velocity": 0.4566929133858268,
                    "duration": 0.13831266666664987
                },
                {
                    "name": "F#6",
                    "midi": 90,
                    "time": 301.7982386666673,
                    "velocity": 0.47244094488188976,
                    "duration": 0.13831266666664987
                },
                {
                    "name": "G#6",
                    "midi": 92,
                    "time": 301.93655133333397,
                    "velocity": 0.47244094488188976,
                    "duration": 0.13831266666664987
                },
                {
                    "name": "A6",
                    "midi": 93,
                    "time": 302.0748640000006,
                    "velocity": 0.4881889763779528,
                    "duration": 0.13831266666664987
                },
                {
                    "name": "G#6",
                    "midi": 92,
                    "time": 302.21317666666727,
                    "velocity": 0.4881889763779528,
                    "duration": 0.13831266666664987
                },
                {
                    "name": "F#6",
                    "midi": 90,
                    "time": 302.3514893333339,
                    "velocity": 0.47244094488188976,
                    "duration": 0.13831266666664987
                },
                {
                    "name": "E6",
                    "midi": 88,
                    "time": 302.48980200000057,
                    "velocity": 0.47244094488188976,
                    "duration": 0.13831266666664987
                },
                {
                    "name": "D6",
                    "midi": 86,
                    "time": 302.6281146666672,
                    "velocity": 0.4566929133858268,
                    "duration": 0.13831266666664987
                },
                {
                    "name": "C#6",
                    "midi": 85,
                    "time": 302.76642733333387,
                    "velocity": 0.4409448818897638,
                    "duration": 0.13831266666664987
                },
                {
                    "name": "B5",
                    "midi": 83,
                    "time": 302.9047400000005,
                    "velocity": 0.4330708661417323,
                    "duration": 0.13831266666664987
                },
                {
                    "name": "A5",
                    "midi": 81,
                    "time": 303.04305266666717,
                    "velocity": 0.4251968503937008,
                    "duration": 0.13831266666664987
                },
                {
                    "name": "G#5",
                    "midi": 80,
                    "time": 303.1813653333338,
                    "velocity": 0.4094488188976378,
                    "duration": 0.13831266666664987
                },
                {
                    "name": "F#5",
                    "midi": 78,
                    "time": 303.31967800000047,
                    "velocity": 0.4015748031496063,
                    "duration": 0.13831266666664987
                },
                {
                    "name": "E5",
                    "midi": 76,
                    "time": 303.4579906666671,
                    "velocity": 0.3937007874015748,
                    "duration": 0.13831266666664987
                },
                {
                    "name": "D5",
                    "midi": 74,
                    "time": 303.59630333333376,
                    "velocity": 0.3779527559055118,
                    "duration": 0.13831266666664987
                },
                {
                    "name": "C#5",
                    "midi": 73,
                    "time": 303.7346160000004,
                    "velocity": 0.36220472440944884,
                    "duration": 0.13831266666664987
                },
                {
                    "name": "B4",
                    "midi": 71,
                    "time": 303.87292866666706,
                    "velocity": 0.3543307086614173,
                    "duration": 0.13831266666664987
                },
                {
                    "name": "A4",
                    "midi": 69,
                    "time": 304.0112413333337,
                    "velocity": 0.3464566929133858,
                    "duration": 0.13831266666664987
                },
                {
                    "name": "G#4",
                    "midi": 68,
                    "time": 304.14955400000036,
                    "velocity": 0.33858267716535434,
                    "duration": 0.13831266666664987
                },
                {
                    "name": "F#4",
                    "midi": 66,
                    "time": 304.287866666667,
                    "velocity": 0.3228346456692913,
                    "duration": 0.13831266666664987
                },
                {
                    "name": "E4",
                    "midi": 64,
                    "time": 304.42617933333366,
                    "velocity": 0.31496062992125984,
                    "duration": 0.13831266666664987
                },
                {
                    "name": "D4",
                    "midi": 62,
                    "time": 304.5644920000003,
                    "velocity": 0.31496062992125984,
                    "duration": 0.13831266666664987
                },
                {
                    "name": "F#4",
                    "midi": 66,
                    "time": 304.70280466666696,
                    "velocity": 0.30708661417322836,
                    "duration": 0.13831266666664987
                },
                {
                    "name": "E4",
                    "midi": 64,
                    "time": 304.8411173333336,
                    "velocity": 0.29133858267716534,
                    "duration": 0.13831266666664987
                },
                {
                    "name": "D4",
                    "midi": 62,
                    "time": 304.97943000000026,
                    "velocity": 0.2755905511811024,
                    "duration": 0.13831266666664987
                },
                {
                    "name": "C#4",
                    "midi": 61,
                    "time": 305.1177426666669,
                    "velocity": 0.25984251968503935,
                    "duration": 0.13831266666664987
                },
                {
                    "name": "B3",
                    "midi": 59,
                    "time": 305.25605533333356,
                    "velocity": 0.2440944881889764,
                    "duration": 0.13831266666664987
                },
                {
                    "name": "A3",
                    "midi": 57,
                    "time": 305.3943680000002,
                    "velocity": 0.30708661417322836,
                    "duration": 0.13831266666664987
                },
                {
                    "name": "C#4",
                    "midi": 61,
                    "time": 305.53268066666686,
                    "velocity": 0.2677165354330709,
                    "duration": 0.13831266666664987
                },
                {
                    "name": "A3",
                    "midi": 57,
                    "time": 305.6709933333335,
                    "velocity": 0.2677165354330709,
                    "duration": 0.13831266666664987
                },
                {
                    "name": "C#4",
                    "midi": 61,
                    "time": 305.80930600000016,
                    "velocity": 0.30708661417322836,
                    "duration": 0.13831266666664987
                },
                {
                    "name": "A4",
                    "midi": 69,
                    "time": 305.9476186666668,
                    "velocity": 0.2677165354330709,
                    "duration": 0.13831266666664987
                },
                {
                    "name": "C#4",
                    "midi": 61,
                    "time": 306.08593133333346,
                    "velocity": 0.2677165354330709,
                    "duration": 0.13831266666664987
                },
                {
                    "name": "A3",
                    "midi": 57,
                    "time": 306.2242440000001,
                    "velocity": 0.30708661417322836,
                    "duration": 0.13831266666664987
                },
                {
                    "name": "C#4",
                    "midi": 61,
                    "time": 306.36255666666676,
                    "velocity": 0.2677165354330709,
                    "duration": 0.13831266666664987
                },
                {
                    "name": "A3",
                    "midi": 57,
                    "time": 306.5008693333334,
                    "velocity": 0.2677165354330709,
                    "duration": 0.13831266666664987
                },
                {
                    "name": "C#4",
                    "midi": 61,
                    "time": 306.63918200000006,
                    "velocity": 0.30708661417322836,
                    "duration": 0.13831266666664987
                },
                {
                    "name": "A4",
                    "midi": 69,
                    "time": 306.7774946666667,
                    "velocity": 0.2677165354330709,
                    "duration": 0.13831266666664987
                },
                {
                    "name": "C#4",
                    "midi": 61,
                    "time": 306.91580733333336,
                    "velocity": 0.2677165354330709,
                    "duration": 0.12966812500002334
                },
                {
                    "name": "C#4",
                    "midi": 61,
                    "time": 307.05412000000007,
                    "velocity": 0.30708661417322836,
                    "duration": 0.13831266666664987
                },
                {
                    "name": "A4",
                    "midi": 69,
                    "time": 307.1924326666667,
                    "velocity": 0.2677165354330709,
                    "duration": 0.13831266666664987
                },
                {
                    "name": "C#4",
                    "midi": 61,
                    "time": 307.33074533333337,
                    "velocity": 0.2677165354330709,
                    "duration": 0.13831266666664987
                },
                {
                    "name": "A4",
                    "midi": 69,
                    "time": 307.469058,
                    "velocity": 0.31496062992125984,
                    "duration": 0.13831266666664987
                },
                {
                    "name": "C#5",
                    "midi": 73,
                    "time": 307.60737066666667,
                    "velocity": 0.2755905511811024,
                    "duration": 0.13831266666664987
                },
                {
                    "name": "A4",
                    "midi": 69,
                    "time": 307.7456833333333,
                    "velocity": 0.2755905511811024,
                    "duration": 0.13831266666664987
                },
                {
                    "name": "C#4",
                    "midi": 61,
                    "time": 307.88399599999997,
                    "velocity": 0.3543307086614173,
                    "duration": 0.13831266666664987
                },
                {
                    "name": "A4",
                    "midi": 69,
                    "time": 308.0223086666666,
                    "velocity": 0.30708661417322836,
                    "duration": 0.13831266666664987
                },
                {
                    "name": "C#4",
                    "midi": 61,
                    "time": 308.16062133333327,
                    "velocity": 0.31496062992125984,
                    "duration": 0.13831266666664987
                },
                {
                    "name": "A4",
                    "midi": 69,
                    "time": 308.2989339999999,
                    "velocity": 0.3779527559055118,
                    "duration": 0.13831266666664987
                },
                {
                    "name": "C#5",
                    "midi": 73,
                    "time": 308.43724666666657,
                    "velocity": 0.33858267716535434,
                    "duration": 0.13831266666664987
                },
                {
                    "name": "A4",
                    "midi": 69,
                    "time": 308.5755593333332,
                    "velocity": 0.33858267716535434,
                    "duration": 0.13831266666664987
                },
                {
                    "name": "E4",
                    "midi": 64,
                    "time": 308.71387199999987,
                    "velocity": 0.4094488188976378,
                    "duration": 0.13831266666664987
                },
                {
                    "name": "C#5",
                    "midi": 73,
                    "time": 308.8521846666665,
                    "velocity": 0.36220472440944884,
                    "duration": 0.13831266666664987
                },
                {
                    "name": "E4",
                    "midi": 64,
                    "time": 308.99049733333317,
                    "velocity": 0.36220472440944884,
                    "duration": 0.13831266666664987
                },
                {
                    "name": "C#5",
                    "midi": 73,
                    "time": 309.1288099999998,
                    "velocity": 0.4330708661417323,
                    "duration": 0.13831266666664987
                },
                {
                    "name": "E5",
                    "midi": 76,
                    "time": 309.26712266666647,
                    "velocity": 0.3700787401574803,
                    "duration": 0.13831266666664987
                },
                {
                    "name": "C#5",
                    "midi": 73,
                    "time": 309.4054353333331,
                    "velocity": 0.3779527559055118,
                    "duration": 0.13831266666664987
                },
                {
                    "name": "E4",
                    "midi": 64,
                    "time": 309.54374799999977,
                    "velocity": 0.44881889763779526,
                    "duration": 0.13831266666664987
                },
                {
                    "name": "C#5",
                    "midi": 73,
                    "time": 309.6820606666664,
                    "velocity": 0.3858267716535433,
                    "duration": 0.13831266666664987
                },
                {
                    "name": "E4",
                    "midi": 64,
                    "time": 309.82037333333307,
                    "velocity": 0.3937007874015748,
                    "duration": 0.13831266666664987
                },
                {
                    "name": "C#5",
                    "midi": 73,
                    "time": 309.9586859999997,
                    "velocity": 0.4645669291338583,
                    "duration": 0.13831266666664987
                },
                {
                    "name": "E5",
                    "midi": 76,
                    "time": 310.09699866666637,
                    "velocity": 0.4015748031496063,
                    "duration": 0.13831266666664987
                },
                {
                    "name": "C#5",
                    "midi": 73,
                    "time": 310.235311333333,
                    "velocity": 0.4094488188976378,
                    "duration": 0.13831266666664987
                },
                {
                    "name": "A4",
                    "midi": 69,
                    "time": 310.37362399999967,
                    "velocity": 0.48031496062992124,
                    "duration": 0.13831266666664987
                },
                {
                    "name": "C#5",
                    "midi": 73,
                    "time": 310.5119366666663,
                    "velocity": 0.41732283464566927,
                    "duration": 0.13831266666664987
                },
                {
                    "name": "A4",
                    "midi": 69,
                    "time": 310.65024933333297,
                    "velocity": 0.4330708661417323,
                    "duration": 0.13831266666664987
                },
                {
                    "name": "C#5",
                    "midi": 73,
                    "time": 310.7885619999996,
                    "velocity": 0.5039370078740157,
                    "duration": 0.13831266666664987
                },
                {
                    "name": "A5",
                    "midi": 81,
                    "time": 310.92687466666627,
                    "velocity": 0.44881889763779526,
                    "duration": 0.13831266666664987
                },
                {
                    "name": "C#5",
                    "midi": 73,
                    "time": 311.0651873333329,
                    "velocity": 0.4645669291338583,
                    "duration": 0.12966812500002334
                },
                {
                    "name": "C#5",
                    "midi": 73,
                    "time": 311.2034999999996,
                    "velocity": 0.5511811023622047,
                    "duration": 0.13831266666664987
                },
                {
                    "name": "A5",
                    "midi": 81,
                    "time": 311.34181266666627,
                    "velocity": 0.48031496062992124,
                    "duration": 0.13831266666664987
                },
                {
                    "name": "C#5",
                    "midi": 73,
                    "time": 311.4801253333329,
                    "velocity": 0.49606299212598426,
                    "duration": 0.13831266666664987
                },
                {
                    "name": "A5",
                    "midi": 81,
                    "time": 311.61843799999957,
                    "velocity": 0.5905511811023622,
                    "duration": 0.13831266666664987
                },
                {
                    "name": "C#6",
                    "midi": 85,
                    "time": 311.7567506666662,
                    "velocity": 0.5196850393700787,
                    "duration": 0.13831266666664987
                },
                {
                    "name": "A5",
                    "midi": 81,
                    "time": 311.89506333333287,
                    "velocity": 0.5275590551181102,
                    "duration": 0.13831266666664987
                },
                {
                    "name": "D6",
                    "midi": 86,
                    "time": 312.0333759999995,
                    "velocity": 0.8661417322834646,
                    "duration": 0.8298760000000129
                },
                {
                    "name": "A#5",
                    "midi": 82,
                    "time": 312.0333759999995,
                    "velocity": 0.7322834645669292,
                    "duration": 0.8298760000000129
                },
                {
                    "name": "F5",
                    "midi": 77,
                    "time": 312.0333759999995,
                    "velocity": 0.7322834645669292,
                    "duration": 0.8298760000000129
                },
                {
                    "name": "D5",
                    "midi": 74,
                    "time": 312.0333759999995,
                    "velocity": 0.7322834645669292,
                    "duration": 0.8298760000000129
                },
                {
                    "name": "D4",
                    "midi": 62,
                    "time": 312.86325199999953,
                    "velocity": 0.5275590551181102,
                    "duration": 0.1037344999999732
                },
                {
                    "name": "A#4",
                    "midi": 70,
                    "time": 312.86325199999953,
                    "velocity": 0.6220472440944882,
                    "duration": 0.1037344999999732
                },
                {
                    "name": "D4",
                    "midi": 62,
                    "time": 313.0707209999995,
                    "velocity": 0.48031496062992124,
                    "duration": 0.1037344999999732
                },
                {
                    "name": "A#4",
                    "midi": 70,
                    "time": 313.0707209999995,
                    "velocity": 0.5748031496062992,
                    "duration": 0.1037344999999732
                },
                {
                    "name": "D4",
                    "midi": 62,
                    "time": 313.2781899999994,
                    "velocity": 0.5275590551181102,
                    "duration": 0.1037344999999732
                },
                {
                    "name": "A#4",
                    "midi": 70,
                    "time": 313.2781899999994,
                    "velocity": 0.6220472440944882,
                    "duration": 0.1037344999999732
                },
                {
                    "name": "D4",
                    "midi": 62,
                    "time": 313.4856589999994,
                    "velocity": 0.48031496062992124,
                    "duration": 0.1037344999999732
                },
                {
                    "name": "A#4",
                    "midi": 70,
                    "time": 313.4856589999994,
                    "velocity": 0.5669291338582677,
                    "duration": 0.1037344999999732
                },
                {
                    "name": "D4",
                    "midi": 62,
                    "time": 313.6931279999993,
                    "velocity": 0.5826771653543307,
                    "duration": 0.41493800000000647
                },
                {
                    "name": "A#4",
                    "midi": 70,
                    "time": 313.6931279999993,
                    "velocity": 0.6850393700787402,
                    "duration": 0.41493800000000647
                },
                {
                    "name": "F4",
                    "midi": 65,
                    "time": 314.1080659999993,
                    "velocity": 0.49606299212598426,
                    "duration": 0.20746900000000323
                },
                {
                    "name": "C5",
                    "midi": 72,
                    "time": 314.1080659999993,
                    "velocity": 0.5905511811023622,
                    "duration": 0.20746900000000323
                },
                {
                    "name": "F4",
                    "midi": 65,
                    "time": 314.52300399999933,
                    "velocity": 0.5826771653543307,
                    "duration": 0.41493800000000647
                },
                {
                    "name": "C5",
                    "midi": 72,
                    "time": 314.52300399999933,
                    "velocity": 0.6850393700787402,
                    "duration": 0.41493800000000647
                },
                {
                    "name": "A#4",
                    "midi": 70,
                    "time": 314.93794199999934,
                    "velocity": 0.49606299212598426,
                    "duration": 0.20746900000000323
                },
                {
                    "name": "D5",
                    "midi": 74,
                    "time": 314.93794199999934,
                    "velocity": 0.5905511811023622,
                    "duration": 0.20746900000000323
                },
                {
                    "name": "A#4",
                    "midi": 70,
                    "time": 315.35287999999935,
                    "velocity": 0.5826771653543307,
                    "duration": 0.41493800000000647
                },
                {
                    "name": "D5",
                    "midi": 74,
                    "time": 315.35287999999935,
                    "velocity": 0.6850393700787402,
                    "duration": 0.41493800000000647
                },
                {
                    "name": "F4",
                    "midi": 65,
                    "time": 315.76781799999935,
                    "velocity": 0.49606299212598426,
                    "duration": 0.20746900000000323
                },
                {
                    "name": "C5",
                    "midi": 72,
                    "time": 315.76781799999935,
                    "velocity": 0.5905511811023622,
                    "duration": 0.20746900000000323
                },
                {
                    "name": "F4",
                    "midi": 65,
                    "time": 316.18275599999936,
                    "velocity": 0.5275590551181102,
                    "duration": 0.1037344999999732
                },
                {
                    "name": "C5",
                    "midi": 72,
                    "time": 316.18275599999936,
                    "velocity": 0.6220472440944882,
                    "duration": 0.1037344999999732
                },
                {
                    "name": "F4",
                    "midi": 65,
                    "time": 316.3902249999993,
                    "velocity": 0.48031496062992124,
                    "duration": 0.1037344999999732
                },
                {
                    "name": "C5",
                    "midi": 72,
                    "time": 316.3902249999993,
                    "velocity": 0.5748031496062992,
                    "duration": 0.1037344999999732
                },
                {
                    "name": "F4",
                    "midi": 65,
                    "time": 316.59769399999925,
                    "velocity": 0.5275590551181102,
                    "duration": 0.1037344999999732
                },
                {
                    "name": "C5",
                    "midi": 72,
                    "time": 316.59769399999925,
                    "velocity": 0.6220472440944882,
                    "duration": 0.1037344999999732
                },
                {
                    "name": "F4",
                    "midi": 65,
                    "time": 316.8051629999992,
                    "velocity": 0.48031496062992124,
                    "duration": 0.1037344999999732
                },
                {
                    "name": "C5",
                    "midi": 72,
                    "time": 316.8051629999992,
                    "velocity": 0.5669291338582677,
                    "duration": 0.1037344999999732
                },
                {
                    "name": "F4",
                    "midi": 65,
                    "time": 317.01263199999914,
                    "velocity": 0.5826771653543307,
                    "duration": 0.41493800000000647
                },
                {
                    "name": "C5",
                    "midi": 72,
                    "time": 317.01263199999914,
                    "velocity": 0.6850393700787402,
                    "duration": 0.41493800000000647
                },
                {
                    "name": "D5",
                    "midi": 74,
                    "time": 317.42756999999915,
                    "velocity": 0.49606299212598426,
                    "duration": 0.20746900000000323
                },
                {
                    "name": "F5",
                    "midi": 77,
                    "time": 317.42756999999915,
                    "velocity": 0.5905511811023622,
                    "duration": 0.20746900000000323
                },
                {
                    "name": "D5",
                    "midi": 74,
                    "time": 317.84250799999916,
                    "velocity": 0.5826771653543307,
                    "duration": 0.41493800000000647
                },
                {
                    "name": "F5",
                    "midi": 77,
                    "time": 317.84250799999916,
                    "velocity": 0.6850393700787402,
                    "duration": 0.41493800000000647
                },
                {
                    "name": "A4",
                    "midi": 69,
                    "time": 318.25744599999916,
                    "velocity": 0.49606299212598426,
                    "duration": 0.20746900000000323
                },
                {
                    "name": "D#5",
                    "midi": 75,
                    "time": 318.25744599999916,
                    "velocity": 0.5905511811023622,
                    "duration": 0.20746900000000323
                },
                {
                    "name": "A4",
                    "midi": 69,
                    "time": 318.67238399999917,
                    "velocity": 0.5826771653543307,
                    "duration": 0.41493800000000647
                },
                {
                    "name": "D#5",
                    "midi": 75,
                    "time": 318.67238399999917,
                    "velocity": 0.6850393700787402,
                    "duration": 0.41493800000000647
                },
                {
                    "name": "A#4",
                    "midi": 70,
                    "time": 319.0873219999992,
                    "velocity": 0.49606299212598426,
                    "duration": 0.20746900000000323
                },
                {
                    "name": "D5",
                    "midi": 74,
                    "time": 319.0873219999992,
                    "velocity": 0.5905511811023622,
                    "duration": 0.20746900000000323
                },
                {
                    "name": "A#4",
                    "midi": 70,
                    "time": 319.5022599999992,
                    "velocity": 0.5275590551181102,
                    "duration": 0.1037344999999732
                },
                {
                    "name": "D5",
                    "midi": 74,
                    "time": 319.5022599999992,
                    "velocity": 0.5275590551181102,
                    "duration": 0.1037344999999732
                },
                {
                    "name": "G5",
                    "midi": 79,
                    "time": 319.5022599999992,
                    "velocity": 0.5275590551181102,
                    "duration": 0.1037344999999732
                },
                {
                    "name": "A#5",
                    "midi": 82,
                    "time": 319.5022599999992,
                    "velocity": 0.6220472440944882,
                    "duration": 0.1037344999999732
                },
                {
                    "name": "A#4",
                    "midi": 70,
                    "time": 319.70972899999913,
                    "velocity": 0.48031496062992124,
                    "duration": 0.1037344999999732
                },
                {
                    "name": "D5",
                    "midi": 74,
                    "time": 319.70972899999913,
                    "velocity": 0.48031496062992124,
                    "duration": 0.1037344999999732
                },
                {
                    "name": "G5",
                    "midi": 79,
                    "time": 319.70972899999913,
                    "velocity": 0.48031496062992124,
                    "duration": 0.1037344999999732
                },
                {
                    "name": "A#5",
                    "midi": 82,
                    "time": 319.70972899999913,
                    "velocity": 0.5748031496062992,
                    "duration": 0.1037344999999732
                },
                {
                    "name": "A#4",
                    "midi": 70,
                    "time": 319.9171979999991,
                    "velocity": 0.5275590551181102,
                    "duration": 0.1037344999999732
                },
                {
                    "name": "D5",
                    "midi": 74,
                    "time": 319.9171979999991,
                    "velocity": 0.5275590551181102,
                    "duration": 0.1037344999999732
                },
                {
                    "name": "G5",
                    "midi": 79,
                    "time": 319.9171979999991,
                    "velocity": 0.5275590551181102,
                    "duration": 0.1037344999999732
                },
                {
                    "name": "A#5",
                    "midi": 82,
                    "time": 319.9171979999991,
                    "velocity": 0.6220472440944882,
                    "duration": 0.1037344999999732
                },
                {
                    "name": "A#4",
                    "midi": 70,
                    "time": 320.124666999999,
                    "velocity": 0.48031496062992124,
                    "duration": 0.1037344999999732
                },
                {
                    "name": "D5",
                    "midi": 74,
                    "time": 320.124666999999,
                    "velocity": 0.48031496062992124,
                    "duration": 0.1037344999999732
                },
                {
                    "name": "G5",
                    "midi": 79,
                    "time": 320.124666999999,
                    "velocity": 0.48031496062992124,
                    "duration": 0.1037344999999732
                },
                {
                    "name": "A#5",
                    "midi": 82,
                    "time": 320.124666999999,
                    "velocity": 0.5669291338582677,
                    "duration": 0.1037344999999732
                },
                {
                    "name": "A#4",
                    "midi": 70,
                    "time": 320.33213599999897,
                    "velocity": 0.5826771653543307,
                    "duration": 0.6224070000000097
                },
                {
                    "name": "D5",
                    "midi": 74,
                    "time": 320.33213599999897,
                    "velocity": 0.5826771653543307,
                    "duration": 0.41493800000000647
                },
                {
                    "name": "G5",
                    "midi": 79,
                    "time": 320.33213599999897,
                    "velocity": 0.5826771653543307,
                    "duration": 0.41493800000000647
                },
                {
                    "name": "A#5",
                    "midi": 82,
                    "time": 320.33213599999897,
                    "velocity": 0.6850393700787402,
                    "duration": 0.41493800000000647
                },
                {
                    "name": "D5",
                    "midi": 74,
                    "time": 320.747073999999,
                    "velocity": 0.49606299212598426,
                    "duration": 0.20746900000000323
                },
                {
                    "name": "G5",
                    "midi": 79,
                    "time": 320.747073999999,
                    "velocity": 0.5905511811023622,
                    "duration": 0.20746900000000323
                },
                {
                    "name": "F4",
                    "midi": 65,
                    "time": 321.162011999999,
                    "velocity": 0.5511811023622047,
                    "duration": 0.1037344999999732
                },
                {
                    "name": "D5",
                    "midi": 74,
                    "time": 321.162011999999,
                    "velocity": 0.5511811023622047,
                    "duration": 0.1037344999999732
                },
                {
                    "name": "F5",
                    "midi": 77,
                    "time": 321.162011999999,
                    "velocity": 0.6456692913385826,
                    "duration": 0.1037344999999732
                },
                {
                    "name": "F4",
                    "midi": 65,
                    "time": 321.57694999999893,
                    "velocity": 0.4645669291338583,
                    "duration": 0.1037344999999732
                },
                {
                    "name": "A#4",
                    "midi": 70,
                    "time": 321.57694999999893,
                    "velocity": 0.4645669291338583,
                    "duration": 0.1037344999999732
                },
                {
                    "name": "D5",
                    "midi": 74,
                    "time": 321.57694999999893,
                    "velocity": 0.5590551181102362,
                    "duration": 0.1037344999999732
                },
                {
                    "name": "F4",
                    "midi": 65,
                    "time": 321.9918879999989,
                    "velocity": 0.5433070866141733,
                    "duration": 0.8298760000000129
                },
                {
                    "name": "A4",
                    "midi": 69,
                    "time": 321.9918879999989,
                    "velocity": 0.5433070866141733,
                    "duration": 0.8298760000000129
                },
                {
                    "name": "C5",
                    "midi": 72,
                    "time": 321.9918879999989,
                    "velocity": 0.6456692913385826,
                    "duration": 0.8298760000000129
                },
                {
                    "name": "C#4",
                    "midi": 61,
                    "time": 322.8217639999989,
                    "velocity": 0.49606299212598426,
                    "duration": 0.1037344999999732
                },
                {
                    "name": "C#5",
                    "midi": 73,
                    "time": 322.8217639999989,
                    "velocity": 0.5905511811023622,
                    "duration": 0.1037344999999732
                },
                {
                    "name": "C#4",
                    "midi": 61,
                    "time": 323.02923299999884,
                    "velocity": 0.44881889763779526,
                    "duration": 0.1037344999999732
                },
                {
                    "name": "C#5",
                    "midi": 73,
                    "time": 323.02923299999884,
                    "velocity": 0.5433070866141733,
                    "duration": 0.1037344999999732
                },
                {
                    "name": "C#4",
                    "midi": 61,
                    "time": 323.2367019999988,
                    "velocity": 0.49606299212598426,
                    "duration": 0.1037344999999732
                },
                {
                    "name": "C#5",
                    "midi": 73,
                    "time": 323.2367019999988,
                    "velocity": 0.5905511811023622,
                    "duration": 0.1037344999999732
                },
                {
                    "name": "C#4",
                    "midi": 61,
                    "time": 323.44417099999873,
                    "velocity": 0.44881889763779526,
                    "duration": 0.1037344999999732
                },
                {
                    "name": "C#5",
                    "midi": 73,
                    "time": 323.44417099999873,
                    "velocity": 0.5354330708661418,
                    "duration": 0.1037344999999732
                },
                {
                    "name": "F4",
                    "midi": 65,
                    "time": 323.6516399999987,
                    "velocity": 0.5511811023622047,
                    "duration": 0.6224070000000097
                },
                {
                    "name": "D5",
                    "midi": 74,
                    "time": 323.6516399999987,
                    "velocity": 0.5511811023622047,
                    "duration": 0.41493800000000647
                },
                {
                    "name": "F5",
                    "midi": 77,
                    "time": 323.6516399999987,
                    "velocity": 0.6456692913385826,
                    "duration": 0.41493800000000647
                },
                {
                    "name": "A#4",
                    "midi": 70,
                    "time": 324.0665779999987,
                    "velocity": 0.4645669291338583,
                    "duration": 0.20746900000000323
                },
                {
                    "name": "D5",
                    "midi": 74,
                    "time": 324.0665779999987,
                    "velocity": 0.5590551181102362,
                    "duration": 0.20746900000000323
                },
                {
                    "name": "F4",
                    "midi": 65,
                    "time": 324.4815159999987,
                    "velocity": 0.5511811023622047,
                    "duration": 0.1037344999999732
                },
                {
                    "name": "A#4",
                    "midi": 70,
                    "time": 324.4815159999987,
                    "velocity": 0.5511811023622047,
                    "duration": 0.1037344999999732
                },
                {
                    "name": "D5",
                    "midi": 74,
                    "time": 324.4815159999987,
                    "velocity": 0.6456692913385826,
                    "duration": 0.1037344999999732
                },
                {
                    "name": "F4",
                    "midi": 65,
                    "time": 324.89645399999864,
                    "velocity": 0.4645669291338583,
                    "duration": 0.1037344999999732
                },
                {
                    "name": "A4",
                    "midi": 69,
                    "time": 324.89645399999864,
                    "velocity": 0.4645669291338583,
                    "duration": 0.1037344999999732
                },
                {
                    "name": "C5",
                    "midi": 72,
                    "time": 324.89645399999864,
                    "velocity": 0.5590551181102362,
                    "duration": 0.1037344999999732
                },
                {
                    "name": "D5",
                    "midi": 74,
                    "time": 325.3113919999986,
                    "velocity": 0.6456692913385826,
                    "duration": 0.8298760000000129
                },
                {
                    "name": "F5",
                    "midi": 77,
                    "time": 325.3113919999986,
                    "velocity": 0.6456692913385826,
                    "duration": 0.8298760000000129
                },
                {
                    "name": "A#5",
                    "midi": 82,
                    "time": 325.3113919999986,
                    "velocity": 0.6456692913385826,
                    "duration": 0.8298760000000129
                },
                {
                    "name": "D6",
                    "midi": 86,
                    "time": 325.3113919999986,
                    "velocity": 0.7716535433070866,
                    "duration": 0.8298760000000129
                },
                {
                    "name": "F4",
                    "midi": 65,
                    "time": 326.1412679999986,
                    "velocity": 0.5275590551181102,
                    "duration": 0.13831266666664987
                },
                {
                    "name": "D#4",
                    "midi": 63,
                    "time": 326.27958066666525,
                    "velocity": 0.48031496062992124,
                    "duration": 0.13831266666664987
                },
                {
                    "name": "D4",
                    "midi": 62,
                    "time": 326.4178933333319,
                    "velocity": 0.48031496062992124,
                    "duration": 0.13831266666664987
                },
                {
                    "name": "A#4",
                    "midi": 70,
                    "time": 326.55620599999855,
                    "velocity": 0.5275590551181102,
                    "duration": 0.13831266666664987
                },
                {
                    "name": "A4",
                    "midi": 69,
                    "time": 326.6945186666652,
                    "velocity": 0.48031496062992124,
                    "duration": 0.13831266666664987
                },
                {
                    "name": "G4",
                    "midi": 67,
                    "time": 326.83283133333185,
                    "velocity": 0.48031496062992124,
                    "duration": 0.13831266666664987
                },
                {
                    "name": "F4",
                    "midi": 65,
                    "time": 326.9711439999985,
                    "velocity": 0.5748031496062992,
                    "duration": 0.8298760000000129
                },
                {
                    "name": "F5",
                    "midi": 77,
                    "time": 327.8010199999985,
                    "velocity": 0.5275590551181102,
                    "duration": 0.13831266666664987
                },
                {
                    "name": "D#5",
                    "midi": 75,
                    "time": 327.93933266666517,
                    "velocity": 0.48031496062992124,
                    "duration": 0.13831266666664987
                },
                {
                    "name": "D5",
                    "midi": 74,
                    "time": 328.0776453333318,
                    "velocity": 0.48031496062992124,
                    "duration": 0.13831266666664987
                },
                {
                    "name": "A#5",
                    "midi": 82,
                    "time": 328.21595799999847,
                    "velocity": 0.5275590551181102,
                    "duration": 0.13831266666664987
                },
                {
                    "name": "A5",
                    "midi": 81,
                    "time": 328.3542706666651,
                    "velocity": 0.48031496062992124,
                    "duration": 0.13831266666664987
                },
                {
                    "name": "G5",
                    "midi": 79,
                    "time": 328.49258333333177,
                    "velocity": 0.48031496062992124,
                    "duration": 0.13831266666664987
                },
                {
                    "name": "F5",
                    "midi": 77,
                    "time": 328.6308959999984,
                    "velocity": 0.5748031496062992,
                    "duration": 0.8298760000000129
                },
                {
                    "name": "F5",
                    "midi": 77,
                    "time": 329.4607719999984,
                    "velocity": 0.5590551181102362,
                    "duration": 0.13831266666664987
                },
                {
                    "name": "A5",
                    "midi": 81,
                    "time": 329.5990846666651,
                    "velocity": 0.47244094488188976,
                    "duration": 0.13831266666664987
                },
                {
                    "name": "A#5",
                    "midi": 82,
                    "time": 329.7373973333317,
                    "velocity": 0.47244094488188976,
                    "duration": 0.13831266666664987
                },
                {
                    "name": "C6",
                    "midi": 84,
                    "time": 329.8757099999984,
                    "velocity": 0.5275590551181102,
                    "duration": 0.13831266666664987
                },
                {
                    "name": "D6",
                    "midi": 86,
                    "time": 330.014022666665,
                    "velocity": 0.5511811023622047,
                    "duration": 0.13831266666664987
                },
                {
                    "name": "D#6",
                    "midi": 87,
                    "time": 330.1523353333317,
                    "velocity": 0.5669291338582677,
                    "duration": 0.13831266666664987
                },
                {
                    "name": "F6",
                    "midi": 89,
                    "time": 330.2906479999983,
                    "velocity": 0.6141732283464567,
                    "duration": 0.8298760000000129
                },
                {
                    "name": "A5",
                    "midi": 81,
                    "time": 331.12052399999834,
                    "velocity": 0.5275590551181102,
                    "duration": 0.13831266666664987
                },
                {
                    "name": "A#5",
                    "midi": 82,
                    "time": 331.258836666665,
                    "velocity": 0.4645669291338583,
                    "duration": 0.13831266666664987
                },
                {
                    "name": "C6",
                    "midi": 84,
                    "time": 331.39714933333164,
                    "velocity": 0.4645669291338583,
                    "duration": 0.13831266666664987
                },
                {
                    "name": "D6",
                    "midi": 86,
                    "time": 331.5354619999983,
                    "velocity": 0.49606299212598426,
                    "duration": 0.13831266666664987
                },
                {
                    "name": "D#6",
                    "midi": 87,
                    "time": 331.67377466666494,
                    "velocity": 0.5196850393700787,
                    "duration": 0.13831266666664987
                },
                {
                    "name": "F6",
                    "midi": 89,
                    "time": 331.8120873333316,
                    "velocity": 0.5511811023622047,
                    "duration": 0.13831266666664987
                },
                {
                    "name": "F#6",
                    "midi": 90,
                    "time": 331.95039999999824,
                    "velocity": 0.5669291338582677,
                    "duration": 0.41493800000000647
                },
                {
                    "name": "G6",
                    "midi": 91,
                    "time": 332.36533799999825,
                    "velocity": 0.5196850393700787,
                    "duration": 0.20746900000000323
                },
                {
                    "name": "G5",
                    "midi": 79,
                    "time": 332.78027599999825,
                    "velocity": 0.5275590551181102,
                    "duration": 0.1037344999999732
                },
                {
                    "name": "D5",
                    "midi": 74,
                    "time": 332.78027599999825,
                    "velocity": 0.5275590551181102,
                    "duration": 0.1037344999999732
                },
                {
                    "name": "A#4",
                    "midi": 70,
                    "time": 332.78027599999825,
                    "velocity": 0.5275590551181102,
                    "duration": 0.1037344999999732
                },
                {
                    "name": "A#5",
                    "midi": 82,
                    "time": 332.78027599999825,
                    "velocity": 0.6220472440944882,
                    "duration": 0.1037344999999732
                },
                {
                    "name": "G5",
                    "midi": 79,
                    "time": 332.9877449999982,
                    "velocity": 0.48031496062992124,
                    "duration": 0.1037344999999732
                },
                {
                    "name": "A#5",
                    "midi": 82,
                    "time": 332.9877449999982,
                    "velocity": 0.5748031496062992,
                    "duration": 0.1037344999999732
                },
                {
                    "name": "D5",
                    "midi": 74,
                    "time": 332.9877449999982,
                    "velocity": 0.48031496062992124,
                    "duration": 0.1037344999999732
                },
                {
                    "name": "A#4",
                    "midi": 70,
                    "time": 332.9877449999982,
                    "velocity": 0.48031496062992124,
                    "duration": 0.1037344999999732
                },
                {
                    "name": "G5",
                    "midi": 79,
                    "time": 333.19521399999815,
                    "velocity": 0.5275590551181102,
                    "duration": 0.1037344999999732
                },
                {
                    "name": "A#5",
                    "midi": 82,
                    "time": 333.19521399999815,
                    "velocity": 0.6220472440944882,
                    "duration": 0.1037344999999732
                },
                {
                    "name": "A#4",
                    "midi": 70,
                    "time": 333.19521399999815,
                    "velocity": 0.5275590551181102,
                    "duration": 0.1037344999999732
                },
                {
                    "name": "D5",
                    "midi": 74,
                    "time": 333.19521399999815,
                    "velocity": 0.5275590551181102,
                    "duration": 0.1037344999999732
                },
                {
                    "name": "A#4",
                    "midi": 70,
                    "time": 333.4026829999981,
                    "velocity": 0.48031496062992124,
                    "duration": 0.1037344999999732
                },
                {
                    "name": "D5",
                    "midi": 74,
                    "time": 333.4026829999981,
                    "velocity": 0.48031496062992124,
                    "duration": 0.1037344999999732
                },
                {
                    "name": "G5",
                    "midi": 79,
                    "time": 333.4026829999981,
                    "velocity": 0.48031496062992124,
                    "duration": 0.1037344999999732
                },
                {
                    "name": "A#5",
                    "midi": 82,
                    "time": 333.4026829999981,
                    "velocity": 0.5669291338582677,
                    "duration": 0.1037344999999732
                },
                {
                    "name": "A#4",
                    "midi": 70,
                    "time": 333.61015199999804,
                    "velocity": 0.5826771653543307,
                    "duration": 0.6224070000000097
                },
                {
                    "name": "D5",
                    "midi": 74,
                    "time": 333.61015199999804,
                    "velocity": 0.5826771653543307,
                    "duration": 0.41493800000000647
                },
                {
                    "name": "G5",
                    "midi": 79,
                    "time": 333.61015199999804,
                    "velocity": 0.5826771653543307,
                    "duration": 0.41493800000000647
                },
                {
                    "name": "A#5",
                    "midi": 82,
                    "time": 333.61015199999804,
                    "velocity": 0.6850393700787402,
                    "duration": 0.41493800000000647
                },
                {
                    "name": "D5",
                    "midi": 74,
                    "time": 334.02508999999804,
                    "velocity": 0.49606299212598426,
                    "duration": 0.20746900000000323
                },
                {
                    "name": "G5",
                    "midi": 79,
                    "time": 334.02508999999804,
                    "velocity": 0.5905511811023622,
                    "duration": 0.20746900000000323
                },
                {
                    "name": "F4",
                    "midi": 65,
                    "time": 334.44002799999805,
                    "velocity": 0.5511811023622047,
                    "duration": 0.1037344999999732
                },
                {
                    "name": "D5",
                    "midi": 74,
                    "time": 334.44002799999805,
                    "velocity": 0.5511811023622047,
                    "duration": 0.1037344999999732
                },
                {
                    "name": "F5",
                    "midi": 77,
                    "time": 334.44002799999805,
                    "velocity": 0.6456692913385826,
                    "duration": 0.1037344999999732
                },
                {
                    "name": "A#4",
                    "midi": 70,
                    "time": 334.854965999998,
                    "velocity": 0.4645669291338583,
                    "duration": 0.1037344999999732
                },
                {
                    "name": "F4",
                    "midi": 65,
                    "time": 334.854965999998,
                    "velocity": 0.4645669291338583,
                    "duration": 0.1037344999999732
                },
                {
                    "name": "D5",
                    "midi": 74,
                    "time": 334.854965999998,
                    "velocity": 0.5590551181102362,
                    "duration": 0.1037344999999732
                },
                {
                    "name": "C5",
                    "midi": 72,
                    "time": 335.26990399999795,
                    "velocity": 0.6456692913385826,
                    "duration": 0.8298760000000129
                },
                {
                    "name": "A4",
                    "midi": 69,
                    "time": 335.26990399999795,
                    "velocity": 0.5433070866141733,
                    "duration": 0.8298760000000129
                },
                {
                    "name": "F4",
                    "midi": 65,
                    "time": 335.26990399999795,
                    "velocity": 0.5433070866141733,
                    "duration": 0.8298760000000129
                },
                {
                    "name": "G#4",
                    "midi": 68,
                    "time": 336.09977999999796,
                    "velocity": 0.5905511811023622,
                    "duration": 0.13831266666664987
                },
                {
                    "name": "C5",
                    "midi": 72,
                    "time": 336.2380926666646,
                    "velocity": 0.5354330708661418,
                    "duration": 0.13831266666664987
                },
                {
                    "name": "E5",
                    "midi": 76,
                    "time": 336.37640533333126,
                    "velocity": 0.5433070866141733,
                    "duration": 0.13831266666664987
                },
                {
                    "name": "F5",
                    "midi": 77,
                    "time": 336.5147179999979,
                    "velocity": 0.5905511811023622,
                    "duration": 0.13831266666664987
                },
                {
                    "name": "G5",
                    "midi": 79,
                    "time": 336.65303066666456,
                    "velocity": 0.5275590551181102,
                    "duration": 0.13831266666664987
                },
                {
                    "name": "G#5",
                    "midi": 80,
                    "time": 336.7913433333312,
                    "velocity": 0.5275590551181102,
                    "duration": 0.13831266666664987
                },
                {
                    "name": "C5",
                    "midi": 72,
                    "time": 336.92965599999786,
                    "velocity": 0.5511811023622047,
                    "duration": 0.6224070000000097
                },
                {
                    "name": "A5",
                    "midi": 81,
                    "time": 336.92965599999786,
                    "velocity": 0.5511811023622047,
                    "duration": 0.41493800000000647
                },
                {
                    "name": "C6",
                    "midi": 84,
                    "time": 336.92965599999786,
                    "velocity": 0.6456692913385826,
                    "duration": 0.41493800000000647
                },
                {
                    "name": "A5",
                    "midi": 81,
                    "time": 337.34459399999787,
                    "velocity": 0.5590551181102362,
                    "duration": 0.20746900000000323
                },
                {
                    "name": "F5",
                    "midi": 77,
                    "time": 337.34459399999787,
                    "velocity": 0.4645669291338583,
                    "duration": 0.20746900000000323
                },
                {
                    "name": "C5",
                    "midi": 72,
                    "time": 337.7595319999979,
                    "velocity": 0.5511811023622047,
                    "duration": 0.1037344999999732
                },
                {
                    "name": "F5",
                    "midi": 77,
                    "time": 337.7595319999979,
                    "velocity": 0.5511811023622047,
                    "duration": 0.1037344999999732
                },
                {
                    "name": "A5",
                    "midi": 81,
                    "time": 337.7595319999979,
                    "velocity": 0.6456692913385826,
                    "duration": 0.1037344999999732
                },
                {
                    "name": "C5",
                    "midi": 72,
                    "time": 338.1744699999978,
                    "velocity": 0.4645669291338583,
                    "duration": 0.1037344999999732
                },
                {
                    "name": "E5",
                    "midi": 76,
                    "time": 338.1744699999978,
                    "velocity": 0.4645669291338583,
                    "duration": 0.1037344999999732
                },
                {
                    "name": "G5",
                    "midi": 79,
                    "time": 338.1744699999978,
                    "velocity": 0.5590551181102362,
                    "duration": 0.1037344999999732
                },
                {
                    "name": "F5",
                    "midi": 77,
                    "time": 338.5894079999978,
                    "velocity": 0.7716535433070866,
                    "duration": 0.8298760000000129
                },
                {
                    "name": "C5",
                    "midi": 72,
                    "time": 338.5894079999978,
                    "velocity": 0.6456692913385826,
                    "duration": 0.8298760000000129
                },
                {
                    "name": "A4",
                    "midi": 69,
                    "time": 338.5894079999978,
                    "velocity": 0.6456692913385826,
                    "duration": 0.8298760000000129
                },
                {
                    "name": "A#5",
                    "midi": 82,
                    "time": 339.4192839999978,
                    "velocity": 0.5039370078740157,
                    "duration": 0.13831266666664987
                },
                {
                    "name": "A5",
                    "midi": 81,
                    "time": 339.55759666666444,
                    "velocity": 0.44881889763779526,
                    "duration": 0.13831266666664987
                },
                {
                    "name": "G5",
                    "midi": 79,
                    "time": 339.6959093333311,
                    "velocity": 0.44881889763779526,
                    "duration": 0.13831266666664987
                },
                {
                    "name": "D6",
                    "midi": 86,
                    "time": 339.83422199999774,
                    "velocity": 0.49606299212598426,
                    "duration": 0.13831266666664987
                },
                {
                    "name": "C6",
                    "midi": 84,
                    "time": 339.9725346666644,
                    "velocity": 0.4566929133858268,
                    "duration": 0.13831266666664987
                },
                {
                    "name": "A#5",
                    "midi": 82,
                    "time": 340.11084733333104,
                    "velocity": 0.4566929133858268,
                    "duration": 0.13831266666664987
                },
                {
                    "name": "A5",
                    "midi": 81,
                    "time": 340.2491599999977,
                    "velocity": 0.49606299212598426,
                    "duration": 0.13831266666664987
                },
                {
                    "name": "G5",
                    "midi": 79,
                    "time": 340.38747266666434,
                    "velocity": 0.44881889763779526,
                    "duration": 0.13831266666664987
                },
                {
                    "name": "F5",
                    "midi": 77,
                    "time": 340.525785333331,
                    "velocity": 0.4566929133858268,
                    "duration": 0.13831266666664987
                },
                {
                    "name": "E5",
                    "midi": 76,
                    "time": 340.66409799999764,
                    "velocity": 0.5118110236220472,
                    "duration": 0.13831266666664987
                },
                {
                    "name": "D5",
                    "midi": 74,
                    "time": 340.8024106666643,
                    "velocity": 0.4251968503937008,
                    "duration": 0.13831266666664987
                },
                {
                    "name": "C5",
                    "midi": 72,
                    "time": 340.94072333333094,
                    "velocity": 0.4251968503937008,
                    "duration": 0.13831266666664987
                },
                {
                    "name": "A#4",
                    "midi": 70,
                    "time": 341.0790359999976,
                    "velocity": 0.48031496062992124,
                    "duration": 0.13831266666664987
                },
                {
                    "name": "A4",
                    "midi": 69,
                    "time": 341.21734866666424,
                    "velocity": 0.4094488188976378,
                    "duration": 0.13831266666664987
                },
                {
                    "name": "G4",
                    "midi": 67,
                    "time": 341.3556613333309,
                    "velocity": 0.4094488188976378,
                    "duration": 0.13831266666664987
                },
                {
                    "name": "D5",
                    "midi": 74,
                    "time": 341.49397399999754,
                    "velocity": 0.48031496062992124,
                    "duration": 0.13831266666664987
                },
                {
                    "name": "C5",
                    "midi": 72,
                    "time": 341.6322866666642,
                    "velocity": 0.4251968503937008,
                    "duration": 0.13831266666664987
                },
                {
                    "name": "A#4",
                    "midi": 70,
                    "time": 341.77059933333084,
                    "velocity": 0.4251968503937008,
                    "duration": 0.13831266666664987
                },
                {
                    "name": "F4",
                    "midi": 65,
                    "time": 341.9089119999975,
                    "velocity": 0.44881889763779526,
                    "duration": 0.8298760000000129
                },
                {
                    "name": "F5",
                    "midi": 77,
                    "time": 341.9089119999975,
                    "velocity": 0.5354330708661418,
                    "duration": 0.8298760000000129
                },
                {
                    "name": "C5",
                    "midi": 72,
                    "time": 341.9089119999975,
                    "velocity": 0.44881889763779526,
                    "duration": 0.8298760000000129
                },
                {
                    "name": "A4",
                    "midi": 69,
                    "time": 341.9089119999975,
                    "velocity": 0.44881889763779526,
                    "duration": 0.8298760000000129
                },
                {
                    "name": "A#5",
                    "midi": 82,
                    "time": 342.7387879999975,
                    "velocity": 0.5039370078740157,
                    "duration": 0.13831266666664987
                },
                {
                    "name": "A5",
                    "midi": 81,
                    "time": 342.87710066666415,
                    "velocity": 0.44881889763779526,
                    "duration": 0.13831266666664987
                },
                {
                    "name": "G5",
                    "midi": 79,
                    "time": 343.0154133333308,
                    "velocity": 0.44881889763779526,
                    "duration": 0.13831266666664987
                },
                {
                    "name": "D6",
                    "midi": 86,
                    "time": 343.15372599999745,
                    "velocity": 0.49606299212598426,
                    "duration": 0.13831266666664987
                },
                {
                    "name": "C6",
                    "midi": 84,
                    "time": 343.2920386666641,
                    "velocity": 0.4566929133858268,
                    "duration": 0.13831266666664987
                },
                {
                    "name": "A#5",
                    "midi": 82,
                    "time": 343.43035133333075,
                    "velocity": 0.4566929133858268,
                    "duration": 0.13831266666664987
                },
                {
                    "name": "A5",
                    "midi": 81,
                    "time": 343.5686639999974,
                    "velocity": 0.49606299212598426,
                    "duration": 0.13831266666664987
                },
                {
                    "name": "G5",
                    "midi": 79,
                    "time": 343.70697666666405,
                    "velocity": 0.44881889763779526,
                    "duration": 0.13831266666664987
                },
                {
                    "name": "F5",
                    "midi": 77,
                    "time": 343.8452893333307,
                    "velocity": 0.4566929133858268,
                    "duration": 0.13831266666664987
                },
                {
                    "name": "E5",
                    "midi": 76,
                    "time": 343.98360199999735,
                    "velocity": 0.5118110236220472,
                    "duration": 0.13831266666664987
                },
                {
                    "name": "D5",
                    "midi": 74,
                    "time": 344.121914666664,
                    "velocity": 0.4251968503937008,
                    "duration": 0.13831266666664987
                },
                {
                    "name": "C5",
                    "midi": 72,
                    "time": 344.26022733333065,
                    "velocity": 0.4251968503937008,
                    "duration": 0.13831266666664987
                },
                {
                    "name": "A#4",
                    "midi": 70,
                    "time": 344.3985399999973,
                    "velocity": 0.48031496062992124,
                    "duration": 0.13831266666664987
                },
                {
                    "name": "A4",
                    "midi": 69,
                    "time": 344.53685266666395,
                    "velocity": 0.4094488188976378,
                    "duration": 0.13831266666664987
                },
                {
                    "name": "G4",
                    "midi": 67,
                    "time": 344.6751653333306,
                    "velocity": 0.4094488188976378,
                    "duration": 0.13831266666664987
                },
                {
                    "name": "D5",
                    "midi": 74,
                    "time": 344.81347799999725,
                    "velocity": 0.48031496062992124,
                    "duration": 0.13831266666664987
                },
                {
                    "name": "C5",
                    "midi": 72,
                    "time": 344.9517906666639,
                    "velocity": 0.4251968503937008,
                    "duration": 0.13831266666664987
                },
                {
                    "name": "A#4",
                    "midi": 70,
                    "time": 345.09010333333055,
                    "velocity": 0.4251968503937008,
                    "duration": 0.13831266666664987
                },
                {
                    "name": "A4",
                    "midi": 69,
                    "time": 345.2284159999972,
                    "velocity": 0.48031496062992124,
                    "duration": 0.13831266666664987
                },
                {
                    "name": "G4",
                    "midi": 67,
                    "time": 345.36672866666385,
                    "velocity": 0.3937007874015748,
                    "duration": 0.13831266666664987
                },
                {
                    "name": "F4",
                    "midi": 65,
                    "time": 345.5050413333305,
                    "velocity": 0.4015748031496063,
                    "duration": 0.13831266666664987
                },
                {
                    "name": "E4",
                    "midi": 64,
                    "time": 345.64335399999715,
                    "velocity": 0.4566929133858268,
                    "duration": 0.13831266666664987
                },
                {
                    "name": "D4",
                    "midi": 62,
                    "time": 345.7816666666638,
                    "velocity": 0.3464566929133858,
                    "duration": 0.13831266666664987
                },
                {
                    "name": "C4",
                    "midi": 60,
                    "time": 345.91997933333045,
                    "velocity": 0.3464566929133858,
                    "duration": 0.13831266666664987
                },
                {
                    "name": "A#3",
                    "midi": 58,
                    "time": 346.0582919999971,
                    "velocity": 0.4015748031496063,
                    "duration": 0.13831266666664987
                },
                {
                    "name": "A3",
                    "midi": 57,
                    "time": 346.19660466666375,
                    "velocity": 0.36220472440944884,
                    "duration": 0.13831266666664987
                },
                {
                    "name": "G3",
                    "midi": 55,
                    "time": 346.3349173333304,
                    "velocity": 0.36220472440944884,
                    "duration": 0.13831266666664987
                },
                {
                    "name": "C#4",
                    "midi": 61,
                    "time": 346.47322999999705,
                    "velocity": 0.4094488188976378,
                    "duration": 0.13831266666664987
                },
                {
                    "name": "C4",
                    "midi": 60,
                    "time": 346.6115426666637,
                    "velocity": 0.36220472440944884,
                    "duration": 0.13831266666664987
                },
                {
                    "name": "A#3",
                    "midi": 58,
                    "time": 346.74985533333034,
                    "velocity": 0.36220472440944884,
                    "duration": 0.13831266666664987
                },
                {
                    "name": "C#4",
                    "midi": 61,
                    "time": 346.888167999997,
                    "velocity": 0.4094488188976378,
                    "duration": 0.13831266666664987
                },
                {
                    "name": "C4",
                    "midi": 60,
                    "time": 347.02648066666364,
                    "velocity": 0.3700787401574803,
                    "duration": 0.13831266666664987
                },
                {
                    "name": "A#3",
                    "midi": 58,
                    "time": 347.1647933333303,
                    "velocity": 0.3779527559055118,
                    "duration": 0.13831266666664987
                },
                {
                    "name": "C#4",
                    "midi": 61,
                    "time": 347.30310599999694,
                    "velocity": 0.44881889763779526,
                    "duration": 0.13831266666664987
                },
                {
                    "name": "C4",
                    "midi": 60,
                    "time": 347.4414186666636,
                    "velocity": 0.4015748031496063,
                    "duration": 0.13831266666664987
                },
                {
                    "name": "A#3",
                    "midi": 58,
                    "time": 347.57973133333024,
                    "velocity": 0.41732283464566927,
                    "duration": 0.13831266666664987
                },
                {
                    "name": "C#4",
                    "midi": 61,
                    "time": 347.7180439999969,
                    "velocity": 0.49606299212598426,
                    "duration": 0.13831266666664987
                },
                {
                    "name": "C4",
                    "midi": 60,
                    "time": 347.85635666666354,
                    "velocity": 0.4645669291338583,
                    "duration": 0.13831266666664987
                },
                {
                    "name": "A#3",
                    "midi": 58,
                    "time": 347.9946693333302,
                    "velocity": 0.41732283464566927,
                    "duration": 0.13831266666664987
                },
                {
                    "name": "C#4",
                    "midi": 61,
                    "time": 348.13298199999684,
                    "velocity": 0.44881889763779526,
                    "duration": 0.13831266666664987
                },
                {
                    "name": "C4",
                    "midi": 60,
                    "time": 348.2712946666635,
                    "velocity": 0.4015748031496063,
                    "duration": 0.13831266666664987
                },
                {
                    "name": "B3",
                    "midi": 59,
                    "time": 348.40960733333014,
                    "velocity": 0.3779527559055118,
                    "duration": 0.13831266666664987
                },
                {
                    "name": "C4",
                    "midi": 60,
                    "time": 348.5479199999968,
                    "velocity": 0.44881889763779526,
                    "duration": 0.13831266666664987
                },
                {
                    "name": "C#4",
                    "midi": 61,
                    "time": 348.68623266666344,
                    "velocity": 0.33858267716535434,
                    "duration": 0.13831266666664987
                },
                {
                    "name": "D#4",
                    "midi": 63,
                    "time": 348.8245453333301,
                    "velocity": 0.33858267716535434,
                    "duration": 0.13831266666664987
                },
                {
                    "name": "F4",
                    "midi": 65,
                    "time": 348.96285799999674,
                    "velocity": 0.4015748031496063,
                    "duration": 0.13831266666664987
                },
                {
                    "name": "G4",
                    "midi": 67,
                    "time": 349.1011706666634,
                    "velocity": 0.33858267716535434,
                    "duration": 0.13831266666664987
                },
                {
                    "name": "G#4",
                    "midi": 68,
                    "time": 349.23948333333004,
                    "velocity": 0.33858267716535434,
                    "duration": 0.13831266666664987
                },
                {
                    "name": "A#4",
                    "midi": 70,
                    "time": 349.3777959999967,
                    "velocity": 0.3858267716535433,
                    "duration": 0.13831266666664987
                },
                {
                    "name": "C5",
                    "midi": 72,
                    "time": 349.51610866666334,
                    "velocity": 0.33858267716535434,
                    "duration": 0.13831266666664987
                },
                {
                    "name": "C#5",
                    "midi": 73,
                    "time": 349.65442133333,
                    "velocity": 0.33858267716535434,
                    "duration": 0.13831266666664987
                },
                {
                    "name": "D#5",
                    "midi": 75,
                    "time": 349.79273399999664,
                    "velocity": 0.3937007874015748,
                    "duration": 0.13831266666664987
                },
                {
                    "name": "F5",
                    "midi": 77,
                    "time": 349.9310466666633,
                    "velocity": 0.33858267716535434,
                    "duration": 0.13831266666664987
                },
                {
                    "name": "G5",
                    "midi": 79,
                    "time": 350.06935933332994,
                    "velocity": 0.33858267716535434,
                    "duration": 0.13831266666664987
                },
                {
                    "name": "G#4",
                    "midi": 68,
                    "time": 350.2076719999966,
                    "velocity": 0.3543307086614173,
                    "duration": 0.8298760000000129
                },
                {
                    "name": "G#5",
                    "midi": 80,
                    "time": 350.2076719999966,
                    "velocity": 0.41732283464566927,
                    "duration": 0.8298760000000129
                },
                {
                    "name": "D#5",
                    "midi": 75,
                    "time": 350.2076719999966,
                    "velocity": 0.3543307086614173,
                    "duration": 0.8298760000000129
                },
                {
                    "name": "C5",
                    "midi": 72,
                    "time": 350.2076719999966,
                    "velocity": 0.3543307086614173,
                    "duration": 0.8298760000000129
                },
                {
                    "name": "C#6",
                    "midi": 85,
                    "time": 351.0375479999966,
                    "velocity": 0.3779527559055118,
                    "duration": 0.13831266666664987
                },
                {
                    "name": "C6",
                    "midi": 84,
                    "time": 351.17586066666325,
                    "velocity": 0.33070866141732286,
                    "duration": 0.13831266666664987
                },
                {
                    "name": "A#5",
                    "midi": 82,
                    "time": 351.3141733333299,
                    "velocity": 0.33070866141732286,
                    "duration": 0.13831266666664987
                },
                {
                    "name": "F6",
                    "midi": 89,
                    "time": 351.45248599999655,
                    "velocity": 0.3700787401574803,
                    "duration": 0.13831266666664987
                },
                {
                    "name": "D#6",
                    "midi": 87,
                    "time": 351.5907986666632,
                    "velocity": 0.33858267716535434,
                    "duration": 0.13831266666664987
                },
                {
                    "name": "C#6",
                    "midi": 85,
                    "time": 351.72911133332985,
                    "velocity": 0.33858267716535434,
                    "duration": 0.13831266666664987
                },
                {
                    "name": "C6",
                    "midi": 84,
                    "time": 351.8674239999965,
                    "velocity": 0.3700787401574803,
                    "duration": 0.13831266666664987
                },
                {
                    "name": "A#5",
                    "midi": 82,
                    "time": 352.00573666666315,
                    "velocity": 0.33070866141732286,
                    "duration": 0.13831266666664987
                },
                {
                    "name": "G#5",
                    "midi": 80,
                    "time": 352.1440493333298,
                    "velocity": 0.33858267716535434,
                    "duration": 0.13831266666664987
                },
                {
                    "name": "G5",
                    "midi": 79,
                    "time": 352.28236199999645,
                    "velocity": 0.3779527559055118,
                    "duration": 0.13831266666664987
                },
                {
                    "name": "F5",
                    "midi": 77,
                    "time": 352.4206746666631,
                    "velocity": 0.31496062992125984,
                    "duration": 0.13831266666664987
                },
                {
                    "name": "D#5",
                    "midi": 75,
                    "time": 352.55898733332975,
                    "velocity": 0.31496062992125984,
                    "duration": 0.13831266666664987
                },
                {
                    "name": "C#5",
                    "midi": 73,
                    "time": 352.6972999999964,
                    "velocity": 0.3543307086614173,
                    "duration": 0.13831266666664987
                },
                {
                    "name": "C5",
                    "midi": 72,
                    "time": 352.83561266666305,
                    "velocity": 0.30708661417322836,
                    "duration": 0.13831266666664987
                },
                {
                    "name": "A#4",
                    "midi": 70,
                    "time": 352.9739253333297,
                    "velocity": 0.30708661417322836,
                    "duration": 0.13831266666664987
                },
                {
                    "name": "F5",
                    "midi": 77,
                    "time": 353.11223799999635,
                    "velocity": 0.3543307086614173,
                    "duration": 0.13831266666664987
                },
                {
                    "name": "D#5",
                    "midi": 75,
                    "time": 353.250550666663,
                    "velocity": 0.31496062992125984,
                    "duration": 0.13831266666664987
                },
                {
                    "name": "C#5",
                    "midi": 73,
                    "time": 353.38886333332965,
                    "velocity": 0.31496062992125984,
                    "duration": 0.13831266666664987
                },
                {
                    "name": "G#4",
                    "midi": 68,
                    "time": 353.5271759999963,
                    "velocity": 0.3543307086614173,
                    "duration": 0.8298760000000129
                },
                {
                    "name": "G#5",
                    "midi": 80,
                    "time": 353.5271759999963,
                    "velocity": 0.41732283464566927,
                    "duration": 0.8298760000000129
                },
                {
                    "name": "D#5",
                    "midi": 75,
                    "time": 353.5271759999963,
                    "velocity": 0.3543307086614173,
                    "duration": 0.8298760000000129
                },
                {
                    "name": "C5",
                    "midi": 72,
                    "time": 353.5271759999963,
                    "velocity": 0.3543307086614173,
                    "duration": 0.8298760000000129
                },
                {
                    "name": "C#6",
                    "midi": 85,
                    "time": 354.3570519999963,
                    "velocity": 0.3779527559055118,
                    "duration": 0.13831266666664987
                },
                {
                    "name": "C6",
                    "midi": 84,
                    "time": 354.49536466666297,
                    "velocity": 0.33070866141732286,
                    "duration": 0.13831266666664987
                },
                {
                    "name": "A#5",
                    "midi": 82,
                    "time": 354.6336773333296,
                    "velocity": 0.33070866141732286,
                    "duration": 0.13831266666664987
                },
                {
                    "name": "F6",
                    "midi": 89,
                    "time": 354.77198999999626,
                    "velocity": 0.3700787401574803,
                    "duration": 0.13831266666664987
                },
                {
                    "name": "D#6",
                    "midi": 87,
                    "time": 354.9103026666629,
                    "velocity": 0.33858267716535434,
                    "duration": 0.13831266666664987
                },
                {
                    "name": "C#6",
                    "midi": 85,
                    "time": 355.04861533332956,
                    "velocity": 0.33858267716535434,
                    "duration": 0.13831266666664987
                },
                {
                    "name": "C6",
                    "midi": 84,
                    "time": 355.1869279999962,
                    "velocity": 0.3700787401574803,
                    "duration": 0.13831266666664987
                },
                {
                    "name": "A#5",
                    "midi": 82,
                    "time": 355.32524066666286,
                    "velocity": 0.33070866141732286,
                    "duration": 0.13831266666664987
                },
                {
                    "name": "G#5",
                    "midi": 80,
                    "time": 355.4635533333295,
                    "velocity": 0.33858267716535434,
                    "duration": 0.13831266666664987
                },
                {
                    "name": "G5",
                    "midi": 79,
                    "time": 355.60186599999616,
                    "velocity": 0.3779527559055118,
                    "duration": 0.13831266666664987
                },
                {
                    "name": "F5",
                    "midi": 77,
                    "time": 355.7401786666628,
                    "velocity": 0.31496062992125984,
                    "duration": 0.13831266666664987
                },
                {
                    "name": "D#5",
                    "midi": 75,
                    "time": 355.87849133332946,
                    "velocity": 0.31496062992125984,
                    "duration": 0.13831266666664987
                },
                {
                    "name": "C#5",
                    "midi": 73,
                    "time": 356.0168039999961,
                    "velocity": 0.3543307086614173,
                    "duration": 0.13831266666664987
                },
                {
                    "name": "C5",
                    "midi": 72,
                    "time": 356.15511666666276,
                    "velocity": 0.30708661417322836,
                    "duration": 0.13831266666664987
                },
                {
                    "name": "A#4",
                    "midi": 70,
                    "time": 356.2934293333294,
                    "velocity": 0.30708661417322836,
                    "duration": 0.13831266666664987
                },
                {
                    "name": "F5",
                    "midi": 77,
                    "time": 356.43174199999606,
                    "velocity": 0.3543307086614173,
                    "duration": 0.13831266666664987
                },
                {
                    "name": "D#5",
                    "midi": 75,
                    "time": 356.5700546666627,
                    "velocity": 0.31496062992125984,
                    "duration": 0.13831266666664987
                },
                {
                    "name": "C#5",
                    "midi": 73,
                    "time": 356.70836733332936,
                    "velocity": 0.31496062992125984,
                    "duration": 0.13831266666664987
                },
                {
                    "name": "C5",
                    "midi": 72,
                    "time": 356.846679999996,
                    "velocity": 0.3543307086614173,
                    "duration": 0.13831266666664987
                },
                {
                    "name": "A#4",
                    "midi": 70,
                    "time": 356.98499266666266,
                    "velocity": 0.29133858267716534,
                    "duration": 0.13831266666664987
                },
                {
                    "name": "G#4",
                    "midi": 68,
                    "time": 357.1233053333293,
                    "velocity": 0.2992125984251969,
                    "duration": 0.13831266666664987
                },
                {
                    "name": "G4",
                    "midi": 67,
                    "time": 357.26161799999596,
                    "velocity": 0.33858267716535434,
                    "duration": 0.13831266666664987
                },
                {
                    "name": "F4",
                    "midi": 65,
                    "time": 357.3999306666626,
                    "velocity": 0.25984251968503935,
                    "duration": 0.13831266666664987
                },
                {
                    "name": "D#4",
                    "midi": 63,
                    "time": 357.53824333332926,
                    "velocity": 0.25984251968503935,
                    "duration": 0.13831266666664987
                },
                {
                    "name": "C#4",
                    "midi": 61,
                    "time": 357.6765559999959,
                    "velocity": 0.2992125984251969,
                    "duration": 0.13831266666664987
                },
                {
                    "name": "C4",
                    "midi": 60,
                    "time": 357.81486866666256,
                    "velocity": 0.2677165354330709,
                    "duration": 0.13831266666664987
                },
                {
                    "name": "A#3",
                    "midi": 58,
                    "time": 357.9531813333292,
                    "velocity": 0.2677165354330709,
                    "duration": 0.13831266666664987
                },
                {
                    "name": "E4",
                    "midi": 64,
                    "time": 358.09149399999586,
                    "velocity": 0.30708661417322836,
                    "duration": 0.13831266666664987
                },
                {
                    "name": "D#4",
                    "midi": 63,
                    "time": 358.2298066666625,
                    "velocity": 0.2677165354330709,
                    "duration": 0.13831266666664987
                },
                {
                    "name": "C#4",
                    "midi": 61,
                    "time": 358.36811933332916,
                    "velocity": 0.2677165354330709,
                    "duration": 0.13831266666664987
                },
                {
                    "name": "E4",
                    "midi": 64,
                    "time": 358.5064319999958,
                    "velocity": 0.30708661417322836,
                    "duration": 0.13831266666664987
                },
                {
                    "name": "D#4",
                    "midi": 63,
                    "time": 358.64474466666246,
                    "velocity": 0.2755905511811024,
                    "duration": 0.13831266666664987
                },
                {
                    "name": "C#4",
                    "midi": 61,
                    "time": 358.7830573333291,
                    "velocity": 0.28346456692913385,
                    "duration": 0.13831266666664987
                },
                {
                    "name": "E4",
                    "midi": 64,
                    "time": 358.92136999999576,
                    "velocity": 0.33070866141732286,
                    "duration": 0.13831266666664987
                },
                {
                    "name": "D#4",
                    "midi": 63,
                    "time": 359.0596826666624,
                    "velocity": 0.2992125984251969,
                    "duration": 0.13831266666664987
                },
                {
                    "name": "C#4",
                    "midi": 61,
                    "time": 359.19799533332906,
                    "velocity": 0.30708661417322836,
                    "duration": 0.13831266666664987
                },
                {
                    "name": "E4",
                    "midi": 64,
                    "time": 359.3363079999957,
                    "velocity": 0.3700787401574803,
                    "duration": 0.13831266666664987
                },
                {
                    "name": "D#4",
                    "midi": 63,
                    "time": 359.47462066666236,
                    "velocity": 0.3464566929133858,
                    "duration": 0.13831266666664987
                },
                {
                    "name": "C#4",
                    "midi": 61,
                    "time": 359.612933333329,
                    "velocity": 0.30708661417322836,
                    "duration": 0.13831266666664987
                },
                {
                    "name": "E4",
                    "midi": 64,
                    "time": 359.75124599999566,
                    "velocity": 0.33070866141732286,
                    "duration": 0.13831266666664987
                },
                {
                    "name": "D#4",
                    "midi": 63,
                    "time": 359.8895586666623,
                    "velocity": 0.2992125984251969,
                    "duration": 0.13831266666664987
                },
                {
                    "name": "D4",
                    "midi": 62,
                    "time": 360.02787133332896,
                    "velocity": 0.28346456692913385,
                    "duration": 0.13831266666664987
                },
                {
                    "name": "D#4",
                    "midi": 63,
                    "time": 360.1661839999956,
                    "velocity": 0.44881889763779526,
                    "duration": 0.13831266666664987
                },
                {
                    "name": "E4",
                    "midi": 64,
                    "time": 360.30449666666226,
                    "velocity": 0.33858267716535434,
                    "duration": 0.13831266666664987
                },
                {
                    "name": "F#4",
                    "midi": 66,
                    "time": 360.4428093333289,
                    "velocity": 0.36220472440944884,
                    "duration": 0.13831266666664987
                },
                {
                    "name": "G#4",
                    "midi": 68,
                    "time": 360.58112199999556,
                    "velocity": 0.3779527559055118,
                    "duration": 0.13831266666664987
                },
                {
                    "name": "A#4",
                    "midi": 70,
                    "time": 360.7194346666622,
                    "velocity": 0.4015748031496063,
                    "duration": 0.13831266666664987
                },
                {
                    "name": "B4",
                    "midi": 71,
                    "time": 360.85774733332886,
                    "velocity": 0.41732283464566927,
                    "duration": 0.13831266666664987
                },
                {
                    "name": "C#5",
                    "midi": 73,
                    "time": 360.9960599999955,
                    "velocity": 0.4330708661417323,
                    "duration": 0.13831266666664987
                },
                {
                    "name": "D#5",
                    "midi": 75,
                    "time": 361.13437266666216,
                    "velocity": 0.47244094488188976,
                    "duration": 0.13831266666664987
                },
                {
                    "name": "E5",
                    "midi": 76,
                    "time": 361.2726853333288,
                    "velocity": 0.5039370078740157,
                    "duration": 0.13831266666664987
                },
                {
                    "name": "F#5",
                    "midi": 78,
                    "time": 361.41099799999546,
                    "velocity": 0.5354330708661418,
                    "duration": 0.13831266666664987
                },
                {
                    "name": "G#5",
                    "midi": 80,
                    "time": 361.5493106666621,
                    "velocity": 0.5669291338582677,
                    "duration": 0.13831266666664987
                },
                {
                    "name": "A#5",
                    "midi": 82,
                    "time": 361.68762333332876,
                    "velocity": 0.5984251968503937,
                    "duration": 0.13831266666664987
                },
                {
                    "name": "B4",
                    "midi": 71,
                    "time": 361.8259359999954,
                    "velocity": 0.6377952755905512,
                    "duration": 0.8212314583333296
                },
                {
                    "name": "D5",
                    "midi": 74,
                    "time": 361.8259359999954,
                    "velocity": 0.6377952755905512,
                    "duration": 0.8212314583333296
                },
                {
                    "name": "F#5",
                    "midi": 78,
                    "time": 361.8259359999954,
                    "velocity": 0.6377952755905512,
                    "duration": 0.8212314583333296
                },
                {
                    "name": "B5",
                    "midi": 83,
                    "time": 361.8259359999954,
                    "velocity": 0.7559055118110236,
                    "duration": 0.8212314583333296
                },
                {
                    "name": "B4",
                    "midi": 71,
                    "time": 362.6558119999954,
                    "velocity": 0.5748031496062992,
                    "duration": 0.1037344999999732
                },
                {
                    "name": "D5",
                    "midi": 74,
                    "time": 362.6558119999954,
                    "velocity": 0.5748031496062992,
                    "duration": 0.1037344999999732
                },
                {
                    "name": "F#5",
                    "midi": 78,
                    "time": 362.6558119999954,
                    "velocity": 0.5748031496062992,
                    "duration": 0.1037344999999732
                },
                {
                    "name": "B5",
                    "midi": 83,
                    "time": 362.6558119999954,
                    "velocity": 0.6771653543307087,
                    "duration": 0.1037344999999732
                },
                {
                    "name": "B4",
                    "midi": 71,
                    "time": 362.86328099999537,
                    "velocity": 0.5275590551181102,
                    "duration": 0.1037344999999732
                },
                {
                    "name": "D5",
                    "midi": 74,
                    "time": 362.86328099999537,
                    "velocity": 0.5275590551181102,
                    "duration": 0.1037344999999732
                },
                {
                    "name": "F#5",
                    "midi": 78,
                    "time": 362.86328099999537,
                    "velocity": 0.5275590551181102,
                    "duration": 0.1037344999999732
                },
                {
                    "name": "B5",
                    "midi": 83,
                    "time": 362.86328099999537,
                    "velocity": 0.6299212598425197,
                    "duration": 0.1037344999999732
                },
                {
                    "name": "B4",
                    "midi": 71,
                    "time": 363.0707499999953,
                    "velocity": 0.5748031496062992,
                    "duration": 0.1037344999999732
                },
                {
                    "name": "D5",
                    "midi": 74,
                    "time": 363.0707499999953,
                    "velocity": 0.5748031496062992,
                    "duration": 0.1037344999999732
                },
                {
                    "name": "F#5",
                    "midi": 78,
                    "time": 363.0707499999953,
                    "velocity": 0.5748031496062992,
                    "duration": 0.1037344999999732
                },
                {
                    "name": "B5",
                    "midi": 83,
                    "time": 363.0707499999953,
                    "velocity": 0.6771653543307087,
                    "duration": 0.1037344999999732
                },
                {
                    "name": "B4",
                    "midi": 71,
                    "time": 363.27821899999526,
                    "velocity": 0.5275590551181102,
                    "duration": 0.1037344999999732
                },
                {
                    "name": "D5",
                    "midi": 74,
                    "time": 363.27821899999526,
                    "velocity": 0.5275590551181102,
                    "duration": 0.1037344999999732
                },
                {
                    "name": "F#5",
                    "midi": 78,
                    "time": 363.27821899999526,
                    "velocity": 0.5275590551181102,
                    "duration": 0.1037344999999732
                },
                {
                    "name": "B5",
                    "midi": 83,
                    "time": 363.27821899999526,
                    "velocity": 0.6220472440944882,
                    "duration": 0.1037344999999732
                },
                {
                    "name": "B4",
                    "midi": 71,
                    "time": 363.4856879999952,
                    "velocity": 0.6377952755905512,
                    "duration": 0.6224070000000097
                },
                {
                    "name": "D5",
                    "midi": 74,
                    "time": 363.4856879999952,
                    "velocity": 0.6377952755905512,
                    "duration": 0.41493800000000647
                },
                {
                    "name": "F#5",
                    "midi": 78,
                    "time": 363.4856879999952,
                    "velocity": 0.6377952755905512,
                    "duration": 0.41493800000000647
                },
                {
                    "name": "B5",
                    "midi": 83,
                    "time": 363.4856879999952,
                    "velocity": 0.7480314960629921,
                    "duration": 0.41493800000000647
                },
                {
                    "name": "D5",
                    "midi": 74,
                    "time": 363.9006259999952,
                    "velocity": 0.5433070866141733,
                    "duration": 0.20746900000000323
                },
                {
                    "name": "F#5",
                    "midi": 78,
                    "time": 363.9006259999952,
                    "velocity": 0.6456692913385826,
                    "duration": 0.20746900000000323
                },
                {
                    "name": "B4",
                    "midi": 71,
                    "time": 364.3155639999952,
                    "velocity": 0.6062992125984252,
                    "duration": 0.1037344999999732
                },
                {
                    "name": "C#5",
                    "midi": 73,
                    "time": 364.3155639999952,
                    "velocity": 0.6062992125984252,
                    "duration": 0.1037344999999732
                },
                {
                    "name": "G5",
                    "midi": 79,
                    "time": 364.3155639999952,
                    "velocity": 0.7086614173228346,
                    "duration": 0.1037344999999732
                },
                {
                    "name": "B4",
                    "midi": 71,
                    "time": 364.73050199999517,
                    "velocity": 0.5039370078740157,
                    "duration": 0.1037344999999732
                },
                {
                    "name": "C#5",
                    "midi": 73,
                    "time": 364.73050199999517,
                    "velocity": 0.5039370078740157,
                    "duration": 0.1037344999999732
                },
                {
                    "name": "E5",
                    "midi": 76,
                    "time": 364.73050199999517,
                    "velocity": 0.6141732283464567,
                    "duration": 0.1037344999999732
                },
                {
                    "name": "B4",
                    "midi": 71,
                    "time": 365.1454399999951,
                    "velocity": 0.5905511811023622,
                    "duration": 0.8298760000000129
                },
                {
                    "name": "D5",
                    "midi": 74,
                    "time": 365.1454399999951,
                    "velocity": 0.5905511811023622,
                    "duration": 0.8298760000000129
                },
                {
                    "name": "F#5",
                    "midi": 78,
                    "time": 365.1454399999951,
                    "velocity": 0.7086614173228346,
                    "duration": 0.8298760000000129
                },
                {
                    "name": "B4",
                    "midi": 71,
                    "time": 365.97531599999513,
                    "velocity": 0.5433070866141733,
                    "duration": 0.13831266666664987
                },
                {
                    "name": "A#4",
                    "midi": 70,
                    "time": 366.1136286666618,
                    "velocity": 0.44881889763779526,
                    "duration": 0.13831266666664987
                },
                {
                    "name": "B4",
                    "midi": 71,
                    "time": 366.25194133332843,
                    "velocity": 0.44881889763779526,
                    "duration": 0.13831266666664987
                },
                {
                    "name": "C#5",
                    "midi": 73,
                    "time": 366.3902539999951,
                    "velocity": 0.5433070866141733,
                    "duration": 0.13831266666664987
                },
                {
                    "name": "B4",
                    "midi": 71,
                    "time": 366.52856666666173,
                    "velocity": 0.4645669291338583,
                    "duration": 0.13831266666664987
                },
                {
                    "name": "A#4",
                    "midi": 70,
                    "time": 366.6668793333284,
                    "velocity": 0.4645669291338583,
                    "duration": 0.13831266666664987
                },
                {
                    "name": "D5",
                    "midi": 74,
                    "time": 366.80519199999503,
                    "velocity": 0.5433070866141733,
                    "duration": 0.13831266666664987
                },
                {
                    "name": "C#5",
                    "midi": 73,
                    "time": 366.9435046666617,
                    "velocity": 0.48031496062992124,
                    "duration": 0.13831266666664987
                },
                {
                    "name": "B4",
                    "midi": 71,
                    "time": 367.08181733332833,
                    "velocity": 0.48031496062992124,
                    "duration": 0.13831266666664987
                },
                {
                    "name": "F#5",
                    "midi": 78,
                    "time": 367.220129999995,
                    "velocity": 0.5433070866141733,
                    "duration": 0.13831266666664987
                },
                {
                    "name": "E5",
                    "midi": 76,
                    "time": 367.35844266666163,
                    "velocity": 0.4881889763779528,
                    "duration": 0.13831266666664987
                },
                {
                    "name": "D5",
                    "midi": 74,
                    "time": 367.4967553333283,
                    "velocity": 0.4881889763779528,
                    "duration": 0.13831266666664987
                },
                {
                    "name": "G5",
                    "midi": 79,
                    "time": 367.63506799999493,
                    "velocity": 0.5433070866141733,
                    "duration": 0.13831266666664987
                },
                {
                    "name": "F#5",
                    "midi": 78,
                    "time": 367.7733806666616,
                    "velocity": 0.47244094488188976,
                    "duration": 0.13831266666664987
                },
                {
                    "name": "E5",
                    "midi": 76,
                    "time": 367.91169333332823,
                    "velocity": 0.47244094488188976,
                    "duration": 0.13831266666664987
                },
                {
                    "name": "A#5",
                    "midi": 82,
                    "time": 368.0500059999949,
                    "velocity": 0.5433070866141733,
                    "duration": 0.13831266666664987
                },
                {
                    "name": "G#5",
                    "midi": 80,
                    "time": 368.18831866666153,
                    "velocity": 0.47244094488188976,
                    "duration": 0.13831266666664987
                },
                {
                    "name": "F#5",
                    "midi": 78,
                    "time": 368.3266313333282,
                    "velocity": 0.47244094488188976,
                    "duration": 0.13831266666664987
                },
                {
                    "name": "B4",
                    "midi": 71,
                    "time": 368.46494399999483,
                    "velocity": 0.5748031496062992,
                    "duration": 0.8212314583333296
                },
                {
                    "name": "D5",
                    "midi": 74,
                    "time": 368.46494399999483,
                    "velocity": 0.5748031496062992,
                    "duration": 0.8212314583333296
                },
                {
                    "name": "F#5",
                    "midi": 78,
                    "time": 368.46494399999483,
                    "velocity": 0.5748031496062992,
                    "duration": 0.8212314583333296
                },
                {
                    "name": "B5",
                    "midi": 83,
                    "time": 368.46494399999483,
                    "velocity": 0.5748031496062992,
                    "duration": 0.8212314583333296
                },
                {
                    "name": "B3",
                    "midi": 59,
                    "time": 370.1246959999948,
                    "velocity": 0.5275590551181102,
                    "duration": 0.13831266666664987
                },
                {
                    "name": "A#3",
                    "midi": 58,
                    "time": 370.26300866666145,
                    "velocity": 0.3937007874015748,
                    "duration": 0.13831266666664987
                },
                {
                    "name": "B3",
                    "midi": 59,
                    "time": 370.4013213333281,
                    "velocity": 0.3937007874015748,
                    "duration": 0.13831266666664987
                },
                {
                    "name": "D4",
                    "midi": 62,
                    "time": 370.53963399999475,
                    "velocity": 0.5354330708661418,
                    "duration": 0.13831266666664987
                },
                {
                    "name": "C#4",
                    "midi": 61,
                    "time": 370.6779466666614,
                    "velocity": 0.4015748031496063,
                    "duration": 0.13831266666664987
                },
                {
                    "name": "B3",
                    "midi": 59,
                    "time": 370.81625933332805,
                    "velocity": 0.4015748031496063,
                    "duration": 0.13831266666664987
                },
                {
                    "name": "E4",
                    "midi": 64,
                    "time": 370.9545719999947,
                    "velocity": 0.5354330708661418,
                    "duration": 0.13831266666664987
                },
                {
                    "name": "D4",
                    "midi": 62,
                    "time": 371.09288466666135,
                    "velocity": 0.4015748031496063,
                    "duration": 0.13831266666664987
                },
                {
                    "name": "C#4",
                    "midi": 61,
                    "time": 371.231197333328,
                    "velocity": 0.4015748031496063,
                    "duration": 0.13831266666664987
                },
                {
                    "name": "G4",
                    "midi": 67,
                    "time": 371.36950999999465,
                    "velocity": 0.5433070866141733,
                    "duration": 0.13831266666664987
                },
                {
                    "name": "F#4",
                    "midi": 66,
                    "time": 371.5078226666613,
                    "velocity": 0.4015748031496063,
                    "duration": 0.13831266666664987
                },
                {
                    "name": "E4",
                    "midi": 64,
                    "time": 371.64613533332795,
                    "velocity": 0.4015748031496063,
                    "duration": 0.13831266666664987
                },
                {
                    "name": "F#4",
                    "midi": 66,
                    "time": 371.7844479999946,
                    "velocity": 0.5275590551181102,
                    "duration": 0.13831266666664987
                },
                {
                    "name": "F4",
                    "midi": 65,
                    "time": 371.92276066666125,
                    "velocity": 0.3937007874015748,
                    "duration": 0.13831266666664987
                },
                {
                    "name": "F#4",
                    "midi": 66,
                    "time": 372.0610733333279,
                    "velocity": 0.3937007874015748,
                    "duration": 0.13831266666664987
                },
                {
                    "name": "A4",
                    "midi": 69,
                    "time": 372.19938599999455,
                    "velocity": 0.5354330708661418,
                    "duration": 0.13831266666664987
                },
                {
                    "name": "G#4",
                    "midi": 68,
                    "time": 372.3376986666612,
                    "velocity": 0.4015748031496063,
                    "duration": 0.13831266666664987
                },
                {
                    "name": "A4",
                    "midi": 69,
                    "time": 372.47601133332785,
                    "velocity": 0.4015748031496063,
                    "duration": 0.13831266666664987
                },
                {
                    "name": "C5",
                    "midi": 72,
                    "time": 372.6143239999945,
                    "velocity": 0.5354330708661418,
                    "duration": 0.13831266666664987
                },
                {
                    "name": "B4",
                    "midi": 71,
                    "time": 372.75263666666115,
                    "velocity": 0.4015748031496063,
                    "duration": 0.13831266666664987
                },
                {
                    "name": "C5",
                    "midi": 72,
                    "time": 372.8909493333278,
                    "velocity": 0.4015748031496063,
                    "duration": 0.13831266666664987
                },
                {
                    "name": "D#5",
                    "midi": 75,
                    "time": 373.02926199999445,
                    "velocity": 0.5433070866141733,
                    "duration": 0.13831266666664987
                },
                {
                    "name": "D5",
                    "midi": 74,
                    "time": 373.1675746666611,
                    "velocity": 0.4015748031496063,
                    "duration": 0.13831266666664987
                },
                {
                    "name": "D#5",
                    "midi": 75,
                    "time": 373.30588733332775,
                    "velocity": 0.4015748031496063,
                    "duration": 0.13831266666664987
                },
                {
                    "name": "F#5",
                    "midi": 78,
                    "time": 373.4441999999944,
                    "velocity": 0.7007874015748031,
                    "duration": 0.20746900000000323
                },
                {
                    "name": "C5",
                    "midi": 72,
                    "time": 373.8591379999944,
                    "velocity": 0.5354330708661418,
                    "duration": 0.41493800000000647
                },
                {
                    "name": "D#5",
                    "midi": 75,
                    "time": 373.8591379999944,
                    "velocity": 0.5354330708661418,
                    "duration": 0.41493800000000647
                },
                {
                    "name": "F#5",
                    "midi": 78,
                    "time": 373.8591379999944,
                    "velocity": 0.5354330708661418,
                    "duration": 0.41493800000000647
                },
                {
                    "name": "C6",
                    "midi": 84,
                    "time": 373.8591379999944,
                    "velocity": 0.6377952755905512,
                    "duration": 0.41493800000000647
                },
                {
                    "name": "G#5",
                    "midi": 80,
                    "time": 373.8591379999944,
                    "velocity": 0.5354330708661418,
                    "duration": 0.41493800000000647
                },
                {
                    "name": "C5",
                    "midi": 72,
                    "time": 374.2740759999944,
                    "velocity": 0.5354330708661418,
                    "duration": 0.41493800000000647
                },
                {
                    "name": "D#5",
                    "midi": 75,
                    "time": 374.2740759999944,
                    "velocity": 0.5354330708661418,
                    "duration": 0.41493800000000647
                },
                {
                    "name": "F#5",
                    "midi": 78,
                    "time": 374.2740759999944,
                    "velocity": 0.5354330708661418,
                    "duration": 0.41493800000000647
                },
                {
                    "name": "C6",
                    "midi": 84,
                    "time": 374.2740759999944,
                    "velocity": 0.6377952755905512,
                    "duration": 0.41493800000000647
                },
                {
                    "name": "G#5",
                    "midi": 80,
                    "time": 374.2740759999944,
                    "velocity": 0.5354330708661418,
                    "duration": 0.41493800000000647
                },
                {
                    "name": "C5",
                    "midi": 72,
                    "time": 374.6890139999944,
                    "velocity": 0.5354330708661418,
                    "duration": 0.41493800000000647
                },
                {
                    "name": "D#5",
                    "midi": 75,
                    "time": 374.6890139999944,
                    "velocity": 0.5354330708661418,
                    "duration": 0.41493800000000647
                },
                {
                    "name": "F#5",
                    "midi": 78,
                    "time": 374.6890139999944,
                    "velocity": 0.5354330708661418,
                    "duration": 0.41493800000000647
                },
                {
                    "name": "C6",
                    "midi": 84,
                    "time": 374.6890139999944,
                    "velocity": 0.6377952755905512,
                    "duration": 0.41493800000000647
                },
                {
                    "name": "G#5",
                    "midi": 80,
                    "time": 374.6890139999944,
                    "velocity": 0.5354330708661418,
                    "duration": 0.41493800000000647
                },
                {
                    "name": "C#5",
                    "midi": 73,
                    "time": 375.1039519999944,
                    "velocity": 0.6377952755905512,
                    "duration": 0.8212314583333296
                },
                {
                    "name": "E5",
                    "midi": 76,
                    "time": 375.1039519999944,
                    "velocity": 0.6377952755905512,
                    "duration": 0.8212314583333296
                },
                {
                    "name": "G#5",
                    "midi": 80,
                    "time": 375.1039519999944,
                    "velocity": 0.6377952755905512,
                    "duration": 0.8212314583333296
                },
                {
                    "name": "C#6",
                    "midi": 85,
                    "time": 375.1039519999944,
                    "velocity": 0.7559055118110236,
                    "duration": 0.8212314583333296
                },
                {
                    "name": "C#5",
                    "midi": 73,
                    "time": 375.93382799999443,
                    "velocity": 0.5748031496062992,
                    "duration": 0.1037344999999732
                },
                {
                    "name": "E5",
                    "midi": 76,
                    "time": 375.93382799999443,
                    "velocity": 0.5748031496062992,
                    "duration": 0.1037344999999732
                },
                {
                    "name": "G#5",
                    "midi": 80,
                    "time": 375.93382799999443,
                    "velocity": 0.5748031496062992,
                    "duration": 0.1037344999999732
                },
                {
                    "name": "C#6",
                    "midi": 85,
                    "time": 375.93382799999443,
                    "velocity": 0.6771653543307087,
                    "duration": 0.1037344999999732
                },
                {
                    "name": "C#5",
                    "midi": 73,
                    "time": 376.1412969999944,
                    "velocity": 0.5275590551181102,
                    "duration": 0.1037344999999732
                },
                {
                    "name": "E5",
                    "midi": 76,
                    "time": 376.1412969999944,
                    "velocity": 0.5275590551181102,
                    "duration": 0.1037344999999732
                },
                {
                    "name": "G#5",
                    "midi": 80,
                    "time": 376.1412969999944,
                    "velocity": 0.5275590551181102,
                    "duration": 0.1037344999999732
                },
                {
                    "name": "C#6",
                    "midi": 85,
                    "time": 376.1412969999944,
                    "velocity": 0.6299212598425197,
                    "duration": 0.1037344999999732
                },
                {
                    "name": "C#5",
                    "midi": 73,
                    "time": 376.3487659999943,
                    "velocity": 0.5748031496062992,
                    "duration": 0.1037344999999732
                },
                {
                    "name": "E5",
                    "midi": 76,
                    "time": 376.3487659999943,
                    "velocity": 0.5748031496062992,
                    "duration": 0.1037344999999732
                },
                {
                    "name": "G#5",
                    "midi": 80,
                    "time": 376.3487659999943,
                    "velocity": 0.5748031496062992,
                    "duration": 0.1037344999999732
                },
                {
                    "name": "C#6",
                    "midi": 85,
                    "time": 376.3487659999943,
                    "velocity": 0.6771653543307087,
                    "duration": 0.1037344999999732
                },
                {
                    "name": "C#5",
                    "midi": 73,
                    "time": 376.5562349999943,
                    "velocity": 0.5275590551181102,
                    "duration": 0.1037344999999732
                },
                {
                    "name": "E5",
                    "midi": 76,
                    "time": 376.5562349999943,
                    "velocity": 0.5275590551181102,
                    "duration": 0.1037344999999732
                },
                {
                    "name": "G#5",
                    "midi": 80,
                    "time": 376.5562349999943,
                    "velocity": 0.5275590551181102,
                    "duration": 0.1037344999999732
                },
                {
                    "name": "C#6",
                    "midi": 85,
                    "time": 376.5562349999943,
                    "velocity": 0.6220472440944882,
                    "duration": 0.1037344999999732
                },
                {
                    "name": "C#5",
                    "midi": 73,
                    "time": 376.7637039999942,
                    "velocity": 0.6377952755905512,
                    "duration": 0.6224070000000097
                },
                {
                    "name": "E5",
                    "midi": 76,
                    "time": 376.7637039999942,
                    "velocity": 0.6377952755905512,
                    "duration": 0.41493800000000647
                },
                {
                    "name": "G#5",
                    "midi": 80,
                    "time": 376.7637039999942,
                    "velocity": 0.6377952755905512,
                    "duration": 0.41493800000000647
                },
                {
                    "name": "C#6",
                    "midi": 85,
                    "time": 376.7637039999942,
                    "velocity": 0.7480314960629921,
                    "duration": 0.41493800000000647
                },
                {
                    "name": "E5",
                    "midi": 76,
                    "time": 377.1786419999942,
                    "velocity": 0.5433070866141733,
                    "duration": 0.20746900000000323
                },
                {
                    "name": "G#5",
                    "midi": 80,
                    "time": 377.1786419999942,
                    "velocity": 0.6456692913385826,
                    "duration": 0.20746900000000323
                },
                {
                    "name": "C#5",
                    "midi": 73,
                    "time": 377.59357999999423,
                    "velocity": 0.6062992125984252,
                    "duration": 0.1037344999999732
                },
                {
                    "name": "D#5",
                    "midi": 75,
                    "time": 377.59357999999423,
                    "velocity": 0.6062992125984252,
                    "duration": 0.1037344999999732
                },
                {
                    "name": "A5",
                    "midi": 81,
                    "time": 377.59357999999423,
                    "velocity": 0.7086614173228346,
                    "duration": 0.1037344999999732
                },
                {
                    "name": "C#5",
                    "midi": 73,
                    "time": 378.0085179999942,
                    "velocity": 0.5039370078740157,
                    "duration": 0.1037344999999732
                },
                {
                    "name": "D#5",
                    "midi": 75,
                    "time": 378.0085179999942,
                    "velocity": 0.5039370078740157,
                    "duration": 0.1037344999999732
                },
                {
                    "name": "F#5",
                    "midi": 78,
                    "time": 378.0085179999942,
                    "velocity": 0.6141732283464567,
                    "duration": 0.1037344999999732
                },
                {
                    "name": "C#5",
                    "midi": 73,
                    "time": 378.42345599999413,
                    "velocity": 0.5905511811023622,
                    "duration": 0.8298760000000129
                },
                {
                    "name": "E5",
                    "midi": 76,
                    "time": 378.42345599999413,
                    "velocity": 0.5905511811023622,
                    "duration": 0.8298760000000129
                },
                {
                    "name": "G#5",
                    "midi": 80,
                    "time": 378.42345599999413,
                    "velocity": 0.7086614173228346,
                    "duration": 0.8298760000000129
                },
                {
                    "name": "C#5",
                    "midi": 73,
                    "time": 379.25333199999415,
                    "velocity": 0.49606299212598426,
                    "duration": 0.13831266666664987
                },
                {
                    "name": "C5",
                    "midi": 72,
                    "time": 379.3916446666608,
                    "velocity": 0.4094488188976378,
                    "duration": 0.13831266666664987
                },
                {
                    "name": "C#5",
                    "midi": 73,
                    "time": 379.52995733332745,
                    "velocity": 0.4094488188976378,
                    "duration": 0.13831266666664987
                },
                {
                    "name": "D#5",
                    "midi": 75,
                    "time": 379.6682699999941,
                    "velocity": 0.49606299212598426,
                    "duration": 0.13831266666664987
                },
                {
                    "name": "C#5",
                    "midi": 73,
                    "time": 379.80658266666074,
                    "velocity": 0.4251968503937008,
                    "duration": 0.13831266666664987
                },
                {
                    "name": "C5",
                    "midi": 72,
                    "time": 379.9448953333274,
                    "velocity": 0.4251968503937008,
                    "duration": 0.13831266666664987
                },
                {
                    "name": "E5",
                    "midi": 76,
                    "time": 380.08320799999404,
                    "velocity": 0.49606299212598426,
                    "duration": 0.13831266666664987
                },
                {
                    "name": "D#5",
                    "midi": 75,
                    "time": 380.2215206666607,
                    "velocity": 0.4409448818897638,
                    "duration": 0.13831266666664987
                },
                {
                    "name": "C#5",
                    "midi": 73,
                    "time": 380.35983333332734,
                    "velocity": 0.4409448818897638,
                    "duration": 0.13831266666664987
                },
                {
                    "name": "G#5",
                    "midi": 80,
                    "time": 380.498145999994,
                    "velocity": 0.49606299212598426,
                    "duration": 0.13831266666664987
                },
                {
                    "name": "F#5",
                    "midi": 78,
                    "time": 380.63645866666064,
                    "velocity": 0.44881889763779526,
                    "duration": 0.13831266666664987
                },
                {
                    "name": "E5",
                    "midi": 76,
                    "time": 380.7747713333273,
                    "velocity": 0.44881889763779526,
                    "duration": 0.13831266666664987
                },
                {
                    "name": "A5",
                    "midi": 81,
                    "time": 380.91308399999394,
                    "velocity": 0.49606299212598426,
                    "duration": 0.13831266666664987
                },
                {
                    "name": "G#5",
                    "midi": 80,
                    "time": 381.0513966666606,
                    "velocity": 0.4330708661417323,
                    "duration": 0.13831266666664987
                },
                {
                    "name": "F#5",
                    "midi": 78,
                    "time": 381.18970933332724,
                    "velocity": 0.4330708661417323,
                    "duration": 0.13831266666664987
                },
                {
                    "name": "C6",
                    "midi": 84,
                    "time": 381.3280219999939,
                    "velocity": 0.49606299212598426,
                    "duration": 0.13831266666664987
                },
                {
                    "name": "A#5",
                    "midi": 82,
                    "time": 381.46633466666054,
                    "velocity": 0.4330708661417323,
                    "duration": 0.13831266666664987
                },
                {
                    "name": "G#5",
                    "midi": 80,
                    "time": 381.6046473333272,
                    "velocity": 0.4330708661417323,
                    "duration": 0.13831266666664987
                },
                {
                    "name": "C#5",
                    "midi": 73,
                    "time": 381.74295999999384,
                    "velocity": 0.5275590551181102,
                    "duration": 0.8212314583333296
                },
                {
                    "name": "E5",
                    "midi": 76,
                    "time": 381.74295999999384,
                    "velocity": 0.5275590551181102,
                    "duration": 0.8212314583333296
                },
                {
                    "name": "G#5",
                    "midi": 80,
                    "time": 381.74295999999384,
                    "velocity": 0.5275590551181102,
                    "duration": 0.8212314583333296
                },
                {
                    "name": "C#6",
                    "midi": 85,
                    "time": 381.74295999999384,
                    "velocity": 0.5275590551181102,
                    "duration": 0.8212314583333296
                },
                {
                    "name": "C#4",
                    "midi": 61,
                    "time": 383.4027119999938,
                    "velocity": 0.5275590551181102,
                    "duration": 0.13831266666664987
                },
                {
                    "name": "C4",
                    "midi": 60,
                    "time": 383.54102466666046,
                    "velocity": 0.3937007874015748,
                    "duration": 0.13831266666664987
                },
                {
                    "name": "C#4",
                    "midi": 61,
                    "time": 383.6793373333271,
                    "velocity": 0.3937007874015748,
                    "duration": 0.13831266666664987
                },
                {
                    "name": "E4",
                    "midi": 64,
                    "time": 383.81764999999376,
                    "velocity": 0.5354330708661418,
                    "duration": 0.13831266666664987
                },
                {
                    "name": "D#4",
                    "midi": 63,
                    "time": 383.9559626666604,
                    "velocity": 0.4015748031496063,
                    "duration": 0.13831266666664987
                },
                {
                    "name": "C#4",
                    "midi": 61,
                    "time": 384.09427533332706,
                    "velocity": 0.4015748031496063,
                    "duration": 0.13831266666664987
                },
                {
                    "name": "F#4",
                    "midi": 66,
                    "time": 384.2325879999937,
                    "velocity": 0.5354330708661418,
                    "duration": 0.13831266666664987
                },
                {
                    "name": "E4",
                    "midi": 64,
                    "time": 384.37090066666036,
                    "velocity": 0.4015748031496063,
                    "duration": 0.13831266666664987
                },
                {
                    "name": "D#4",
                    "midi": 63,
                    "time": 384.509213333327,
                    "velocity": 0.4015748031496063,
                    "duration": 0.13831266666664987
                },
                {
                    "name": "A4",
                    "midi": 69,
                    "time": 384.64752599999366,
                    "velocity": 0.5433070866141733,
                    "duration": 0.13831266666664987
                },
                {
                    "name": "G#4",
                    "midi": 68,
                    "time": 384.7858386666603,
                    "velocity": 0.4015748031496063,
                    "duration": 0.13831266666664987
                },
                {
                    "name": "F#4",
                    "midi": 66,
                    "time": 384.92415133332696,
                    "velocity": 0.4015748031496063,
                    "duration": 0.13831266666664987
                },
                {
                    "name": "G#4",
                    "midi": 68,
                    "time": 385.0624639999936,
                    "velocity": 0.5275590551181102,
                    "duration": 0.13831266666664987
                },
                {
                    "name": "G4",
                    "midi": 67,
                    "time": 385.20077666666026,
                    "velocity": 0.3937007874015748,
                    "duration": 0.13831266666664987
                },
                {
                    "name": "G#4",
                    "midi": 68,
                    "time": 385.3390893333269,
                    "velocity": 0.3937007874015748,
                    "duration": 0.13831266666664987
                },
                {
                    "name": "B4",
                    "midi": 71,
                    "time": 385.47740199999356,
                    "velocity": 0.5354330708661418,
                    "duration": 0.13831266666664987
                },
                {
                    "name": "A#4",
                    "midi": 70,
                    "time": 385.6157146666602,
                    "velocity": 0.4015748031496063,
                    "duration": 0.13831266666664987
                },
                {
                    "name": "B4",
                    "midi": 71,
                    "time": 385.75402733332686,
                    "velocity": 0.41732283464566927,
                    "duration": 0.13831266666664987
                },
                {
                    "name": "D5",
                    "midi": 74,
                    "time": 385.8923399999935,
                    "velocity": 0.5669291338582677,
                    "duration": 0.13831266666664987
                },
                {
                    "name": "C#5",
                    "midi": 73,
                    "time": 386.03065266666016,
                    "velocity": 0.4015748031496063,
                    "duration": 0.13831266666664987
                },
                {
                    "name": "D5",
                    "midi": 74,
                    "time": 386.1689653333268,
                    "velocity": 0.4409448818897638,
                    "duration": 0.13831266666664987
                },
                {
                    "name": "F5",
                    "midi": 77,
                    "time": 386.30727799999346,
                    "velocity": 0.5669291338582677,
                    "duration": 0.13831266666664987
                },
                {
                    "name": "E5",
                    "midi": 76,
                    "time": 386.4455906666601,
                    "velocity": 0.44881889763779526,
                    "duration": 0.13831266666664987
                },
                {
                    "name": "F5",
                    "midi": 77,
                    "time": 386.58390333332676,
                    "velocity": 0.4566929133858268,
                    "duration": 0.13831266666664987
                },
                {
                    "name": "G#5",
                    "midi": 80,
                    "time": 386.7222159999934,
                    "velocity": 0.6771653543307087,
                    "duration": 0.20746900000000323
                },
                {
                    "name": "D5",
                    "midi": 74,
                    "time": 387.1371539999934,
                    "velocity": 0.5354330708661418,
                    "duration": 0.37344419999999445
                },
                {
                    "name": "F5",
                    "midi": 77,
                    "time": 387.1371539999934,
                    "velocity": 0.5354330708661418,
                    "duration": 0.37344419999999445
                },
                {
                    "name": "G#5",
                    "midi": 80,
                    "time": 387.1371539999934,
                    "velocity": 0.5354330708661418,
                    "duration": 0.37344419999999445
                },
                {
                    "name": "D6",
                    "midi": 86,
                    "time": 387.1371539999934,
                    "velocity": 0.6377952755905512,
                    "duration": 0.37344419999999445
                },
                {
                    "name": "A#5",
                    "midi": 82,
                    "time": 387.1371539999934,
                    "velocity": 0.5354330708661418,
                    "duration": 0.37344419999999445
                },
                {
                    "name": "D5",
                    "midi": 74,
                    "time": 387.5520919999934,
                    "velocity": 0.5354330708661418,
                    "duration": 0.37344419999999445
                },
                {
                    "name": "F5",
                    "midi": 77,
                    "time": 387.5520919999934,
                    "velocity": 0.5354330708661418,
                    "duration": 0.37344419999999445
                },
                {
                    "name": "G#5",
                    "midi": 80,
                    "time": 387.5520919999934,
                    "velocity": 0.5354330708661418,
                    "duration": 0.37344419999999445
                },
                {
                    "name": "D6",
                    "midi": 86,
                    "time": 387.5520919999934,
                    "velocity": 0.6377952755905512,
                    "duration": 0.37344419999999445
                },
                {
                    "name": "A#5",
                    "midi": 82,
                    "time": 387.5520919999934,
                    "velocity": 0.5354330708661418,
                    "duration": 0.37344419999999445
                },
                {
                    "name": "D5",
                    "midi": 74,
                    "time": 387.96702999999343,
                    "velocity": 0.5354330708661418,
                    "duration": 0.37344419999999445
                },
                {
                    "name": "F5",
                    "midi": 77,
                    "time": 387.96702999999343,
                    "velocity": 0.5354330708661418,
                    "duration": 0.37344419999999445
                },
                {
                    "name": "G#5",
                    "midi": 80,
                    "time": 387.96702999999343,
                    "velocity": 0.5354330708661418,
                    "duration": 0.37344419999999445
                },
                {
                    "name": "D6",
                    "midi": 86,
                    "time": 387.96702999999343,
                    "velocity": 0.6377952755905512,
                    "duration": 0.37344419999999445
                },
                {
                    "name": "A#5",
                    "midi": 82,
                    "time": 387.96702999999343,
                    "velocity": 0.5354330708661418,
                    "duration": 0.37344419999999445
                },
                {
                    "name": "D#5",
                    "midi": 75,
                    "time": 388.38196799999344,
                    "velocity": 0.5905511811023622,
                    "duration": 0.20746900000000323
                },
                {
                    "name": "G5",
                    "midi": 79,
                    "time": 388.38196799999344,
                    "velocity": 0.5905511811023622,
                    "duration": 0.20746900000000323
                },
                {
                    "name": "A#5",
                    "midi": 82,
                    "time": 388.38196799999344,
                    "velocity": 0.5905511811023622,
                    "duration": 0.20746900000000323
                },
                {
                    "name": "D#6",
                    "midi": 87,
                    "time": 388.38196799999344,
                    "velocity": 0.7007874015748031,
                    "duration": 0.20746900000000323
                },
                {
                    "name": "F#4",
                    "midi": 66,
                    "time": 388.79690599999344,
                    "velocity": 0.5354330708661418,
                    "duration": 0.37344419999999445
                },
                {
                    "name": "A4",
                    "midi": 69,
                    "time": 388.79690599999344,
                    "velocity": 0.5354330708661418,
                    "duration": 0.37344419999999445
                },
                {
                    "name": "D#5",
                    "midi": 75,
                    "time": 388.79690599999344,
                    "velocity": 0.6377952755905512,
                    "duration": 0.37344419999999445
                },
                {
                    "name": "B4",
                    "midi": 71,
                    "time": 388.79690599999344,
                    "velocity": 0.5354330708661418,
                    "duration": 0.37344419999999445
                },
                {
                    "name": "F#4",
                    "midi": 66,
                    "time": 389.21184399999345,
                    "velocity": 0.5354330708661418,
                    "duration": 0.37344419999999445
                },
                {
                    "name": "A4",
                    "midi": 69,
                    "time": 389.21184399999345,
                    "velocity": 0.5354330708661418,
                    "duration": 0.37344419999999445
                },
                {
                    "name": "D#5",
                    "midi": 75,
                    "time": 389.21184399999345,
                    "velocity": 0.6377952755905512,
                    "duration": 0.37344419999999445
                },
                {
                    "name": "B4",
                    "midi": 71,
                    "time": 389.21184399999345,
                    "velocity": 0.5354330708661418,
                    "duration": 0.37344419999999445
                },
                {
                    "name": "F#4",
                    "midi": 66,
                    "time": 389.62678199999345,
                    "velocity": 0.5354330708661418,
                    "duration": 0.37344419999999445
                },
                {
                    "name": "A4",
                    "midi": 69,
                    "time": 389.62678199999345,
                    "velocity": 0.5354330708661418,
                    "duration": 0.37344419999999445
                },
                {
                    "name": "D#5",
                    "midi": 75,
                    "time": 389.62678199999345,
                    "velocity": 0.6377952755905512,
                    "duration": 0.37344419999999445
                },
                {
                    "name": "B4",
                    "midi": 71,
                    "time": 389.62678199999345,
                    "velocity": 0.5354330708661418,
                    "duration": 0.37344419999999445
                },
                {
                    "name": "G4",
                    "midi": 67,
                    "time": 390.04171999999346,
                    "velocity": 0.5905511811023622,
                    "duration": 0.20746900000000323
                },
                {
                    "name": "B4",
                    "midi": 71,
                    "time": 390.04171999999346,
                    "velocity": 0.5905511811023622,
                    "duration": 0.20746900000000323
                },
                {
                    "name": "E5",
                    "midi": 76,
                    "time": 390.04171999999346,
                    "velocity": 0.7007874015748031,
                    "duration": 0.20746900000000323
                },
                {
                    "name": "E5",
                    "midi": 76,
                    "time": 390.45665799999347,
                    "velocity": 0.5354330708661418,
                    "duration": 0.37344419999999445
                },
                {
                    "name": "G5",
                    "midi": 79,
                    "time": 390.45665799999347,
                    "velocity": 0.5354330708661418,
                    "duration": 0.37344419999999445
                },
                {
                    "name": "A#5",
                    "midi": 82,
                    "time": 390.45665799999347,
                    "velocity": 0.5354330708661418,
                    "duration": 0.37344419999999445
                },
                {
                    "name": "E6",
                    "midi": 88,
                    "time": 390.45665799999347,
                    "velocity": 0.6377952755905512,
                    "duration": 0.37344419999999445
                },
                {
                    "name": "C6",
                    "midi": 84,
                    "time": 390.45665799999347,
                    "velocity": 0.5354330708661418,
                    "duration": 0.37344419999999445
                },
                {
                    "name": "E5",
                    "midi": 76,
                    "time": 390.8715959999935,
                    "velocity": 0.5354330708661418,
                    "duration": 0.37344419999999445
                },
                {
                    "name": "G5",
                    "midi": 79,
                    "time": 390.8715959999935,
                    "velocity": 0.5354330708661418,
                    "duration": 0.37344419999999445
                },
                {
                    "name": "A#5",
                    "midi": 82,
                    "time": 390.8715959999935,
                    "velocity": 0.5354330708661418,
                    "duration": 0.37344419999999445
                },
                {
                    "name": "E6",
                    "midi": 88,
                    "time": 390.8715959999935,
                    "velocity": 0.6377952755905512,
                    "duration": 0.37344419999999445
                },
                {
                    "name": "C6",
                    "midi": 84,
                    "time": 390.8715959999935,
                    "velocity": 0.5354330708661418,
                    "duration": 0.37344419999999445
                },
                {
                    "name": "E5",
                    "midi": 76,
                    "time": 391.2865339999935,
                    "velocity": 0.5354330708661418,
                    "duration": 0.37344419999999445
                },
                {
                    "name": "G5",
                    "midi": 79,
                    "time": 391.2865339999935,
                    "velocity": 0.5354330708661418,
                    "duration": 0.37344419999999445
                },
                {
                    "name": "A#5",
                    "midi": 82,
                    "time": 391.2865339999935,
                    "velocity": 0.5354330708661418,
                    "duration": 0.37344419999999445
                },
                {
                    "name": "E6",
                    "midi": 88,
                    "time": 391.2865339999935,
                    "velocity": 0.6377952755905512,
                    "duration": 0.37344419999999445
                },
                {
                    "name": "C6",
                    "midi": 84,
                    "time": 391.2865339999935,
                    "velocity": 0.5354330708661418,
                    "duration": 0.37344419999999445
                },
                {
                    "name": "F5",
                    "midi": 77,
                    "time": 391.7014719999935,
                    "velocity": 0.5905511811023622,
                    "duration": 0.20746900000000323
                },
                {
                    "name": "G#5",
                    "midi": 80,
                    "time": 391.7014719999935,
                    "velocity": 0.5905511811023622,
                    "duration": 0.20746900000000323
                },
                {
                    "name": "C6",
                    "midi": 84,
                    "time": 391.7014719999935,
                    "velocity": 0.5905511811023622,
                    "duration": 0.20746900000000323
                },
                {
                    "name": "F6",
                    "midi": 89,
                    "time": 391.7014719999935,
                    "velocity": 0.7007874015748031,
                    "duration": 0.20746900000000323
                },
                {
                    "name": "G#4",
                    "midi": 68,
                    "time": 392.1164099999935,
                    "velocity": 0.5354330708661418,
                    "duration": 0.37344419999999445
                },
                {
                    "name": "B4",
                    "midi": 71,
                    "time": 392.1164099999935,
                    "velocity": 0.5354330708661418,
                    "duration": 0.37344419999999445
                },
                {
                    "name": "F5",
                    "midi": 77,
                    "time": 392.1164099999935,
                    "velocity": 0.6377952755905512,
                    "duration": 0.37344419999999445
                },
                {
                    "name": "C#5",
                    "midi": 73,
                    "time": 392.1164099999935,
                    "velocity": 0.5354330708661418,
                    "duration": 0.37344419999999445
                },
                {
                    "name": "G#4",
                    "midi": 68,
                    "time": 392.5313479999935,
                    "velocity": 0.4881889763779528,
                    "duration": 0.37344419999999445
                },
                {
                    "name": "B4",
                    "midi": 71,
                    "time": 392.5313479999935,
                    "velocity": 0.4881889763779528,
                    "duration": 0.37344419999999445
                },
                {
                    "name": "F5",
                    "midi": 77,
                    "time": 392.5313479999935,
                    "velocity": 0.5826771653543307,
                    "duration": 0.37344419999999445
                },
                {
                    "name": "C#5",
                    "midi": 73,
                    "time": 392.5313479999935,
                    "velocity": 0.4881889763779528,
                    "duration": 0.37344419999999445
                },
                {
                    "name": "G#4",
                    "midi": 68,
                    "time": 392.9462859999935,
                    "velocity": 0.44881889763779526,
                    "duration": 0.37344419999999445
                },
                {
                    "name": "B4",
                    "midi": 71,
                    "time": 392.9462859999935,
                    "velocity": 0.44881889763779526,
                    "duration": 0.37344419999999445
                },
                {
                    "name": "F5",
                    "midi": 77,
                    "time": 392.9462859999935,
                    "velocity": 0.5354330708661418,
                    "duration": 0.37344419999999445
                },
                {
                    "name": "C#5",
                    "midi": 73,
                    "time": 392.9462859999935,
                    "velocity": 0.44881889763779526,
                    "duration": 0.37344419999999445
                },
                {
                    "name": "A4",
                    "midi": 69,
                    "time": 393.3612239999935,
                    "velocity": 0.4409448818897638,
                    "duration": 0.20746900000000323
                },
                {
                    "name": "D5",
                    "midi": 74,
                    "time": 393.3612239999935,
                    "velocity": 0.4409448818897638,
                    "duration": 0.20746900000000323
                },
                {
                    "name": "F#5",
                    "midi": 78,
                    "time": 393.3612239999935,
                    "velocity": 0.5196850393700787,
                    "duration": 0.20746900000000323
                },
                {
                    "name": "D5",
                    "midi": 74,
                    "time": 393.7761619999935,
                    "velocity": 0.5039370078740157,
                    "duration": 0.13831266666664987
                },
                {
                    "name": "C#5",
                    "midi": 73,
                    "time": 393.91447466666017,
                    "velocity": 0.4251968503937008,
                    "duration": 0.13831266666664987
                },
                {
                    "name": "D5",
                    "midi": 74,
                    "time": 394.0527873333268,
                    "velocity": 0.4251968503937008,
                    "duration": 0.13831266666664987
                },
                {
                    "name": "F#5",
                    "midi": 78,
                    "time": 394.19109999999347,
                    "velocity": 0.5118110236220472,
                    "duration": 0.13831266666664987
                },
                {
                    "name": "E5",
                    "midi": 76,
                    "time": 394.3294126666601,
                    "velocity": 0.4409448818897638,
                    "duration": 0.13831266666664987
                },
                {
                    "name": "D5",
                    "midi": 74,
                    "time": 394.46772533332677,
                    "velocity": 0.4409448818897638,
                    "duration": 0.13831266666664987
                },
                {
                    "name": "A5",
                    "midi": 81,
                    "time": 394.6060379999934,
                    "velocity": 0.5196850393700787,
                    "duration": 0.13831266666664987
                },
                {
                    "name": "G5",
                    "midi": 79,
                    "time": 394.74435066666007,
                    "velocity": 0.4566929133858268,
                    "duration": 0.13831266666664987
                },
                {
                    "name": "F#5",
                    "midi": 78,
                    "time": 394.8826633333267,
                    "velocity": 0.4566929133858268,
                    "duration": 0.13831266666664987
                },
                {
                    "name": "E5",
                    "midi": 76,
                    "time": 395.02097599999337,
                    "velocity": 0.5118110236220472,
                    "duration": 0.13831266666664987
                },
                {
                    "name": "D5",
                    "midi": 74,
                    "time": 395.15928866666,
                    "velocity": 0.4566929133858268,
                    "duration": 0.13831266666664987
                },
                {
                    "name": "C#5",
                    "midi": 73,
                    "time": 395.29760133332667,
                    "velocity": 0.4566929133858268,
                    "duration": 0.13831266666664987
                },
                {
                    "name": "D5",
                    "midi": 74,
                    "time": 395.4359139999933,
                    "velocity": 0.5196850393700787,
                    "duration": 0.13831266666664987
                },
                {
                    "name": "C#5",
                    "midi": 73,
                    "time": 395.57422666665997,
                    "velocity": 0.4330708661417323,
                    "duration": 0.13831266666664987
                },
                {
                    "name": "B4",
                    "midi": 71,
                    "time": 395.7125393333266,
                    "velocity": 0.4330708661417323,
                    "duration": 0.13831266666664987
                },
                {
                    "name": "A4",
                    "midi": 69,
                    "time": 395.85085199999327,
                    "velocity": 0.47244094488188976,
                    "duration": 0.13831266666664987
                },
                {
                    "name": "G4",
                    "midi": 67,
                    "time": 395.9891646666599,
                    "velocity": 0.4015748031496063,
                    "duration": 0.13831266666664987
                },
                {
                    "name": "F#4",
                    "midi": 66,
                    "time": 396.12747733332657,
                    "velocity": 0.4015748031496063,
                    "duration": 0.13831266666664987
                },
                {
                    "name": "E4",
                    "midi": 64,
                    "time": 396.2657899999932,
                    "velocity": 0.4566929133858268,
                    "duration": 0.13831266666664987
                },
                {
                    "name": "D4",
                    "midi": 62,
                    "time": 396.40410266665987,
                    "velocity": 0.4015748031496063,
                    "duration": 0.13831266666664987
                },
                {
                    "name": "F#4",
                    "midi": 66,
                    "time": 396.5424153333265,
                    "velocity": 0.4015748031496063,
                    "duration": 0.13831266666664987
                },
                {
                    "name": "E4",
                    "midi": 64,
                    "time": 396.68072799999317,
                    "velocity": 0.48031496062992124,
                    "duration": 0.20746900000000323
                },
                {
                    "name": "E5",
                    "midi": 76,
                    "time": 397.0956659999932,
                    "velocity": 0.5039370078740157,
                    "duration": 0.13831266666664987
                },
                {
                    "name": "D#5",
                    "midi": 75,
                    "time": 397.2339786666598,
                    "velocity": 0.4251968503937008,
                    "duration": 0.13831266666664987
                },
                {
                    "name": "E5",
                    "midi": 76,
                    "time": 397.3722913333265,
                    "velocity": 0.4251968503937008,
                    "duration": 0.13831266666664987
                },
                {
                    "name": "G5",
                    "midi": 79,
                    "time": 397.5106039999931,
                    "velocity": 0.5118110236220472,
                    "duration": 0.13831266666664987
                },
                {
                    "name": "F#5",
                    "midi": 78,
                    "time": 397.6489166666598,
                    "velocity": 0.4409448818897638,
                    "duration": 0.13831266666664987
                },
                {
                    "name": "E5",
                    "midi": 76,
                    "time": 397.7872293333264,
                    "velocity": 0.4409448818897638,
                    "duration": 0.13831266666664987
                },
                {
                    "name": "B5",
                    "midi": 83,
                    "time": 397.9255419999931,
                    "velocity": 0.5196850393700787,
                    "duration": 0.13831266666664987
                },
                {
                    "name": "A5",
                    "midi": 81,
                    "time": 398.0638546666597,
                    "velocity": 0.4566929133858268,
                    "duration": 0.13831266666664987
                },
                {
                    "name": "G5",
                    "midi": 79,
                    "time": 398.2021673333264,
                    "velocity": 0.4566929133858268,
                    "duration": 0.13831266666664987
                },
                {
                    "name": "F#5",
                    "midi": 78,
                    "time": 398.340479999993,
                    "velocity": 0.5118110236220472,
                    "duration": 0.13831266666664987
                },
                {
                    "name": "E5",
                    "midi": 76,
                    "time": 398.4787926666597,
                    "velocity": 0.4566929133858268,
                    "duration": 0.13831266666664987
                },
                {
                    "name": "D#5",
                    "midi": 75,
                    "time": 398.6171053333263,
                    "velocity": 0.4566929133858268,
                    "duration": 0.13831266666664987
                },
                {
                    "name": "E5",
                    "midi": 76,
                    "time": 398.75541799999297,
                    "velocity": 0.5196850393700787,
                    "duration": 0.13831266666664987
                },
                {
                    "name": "D5",
                    "midi": 74,
                    "time": 398.8937306666596,
                    "velocity": 0.4330708661417323,
                    "duration": 0.13831266666664987
                },
                {
                    "name": "C#5",
                    "midi": 73,
                    "time": 399.03204333332627,
                    "velocity": 0.4330708661417323,
                    "duration": 0.13831266666664987
                },
                {
                    "name": "B4",
                    "midi": 71,
                    "time": 399.1703559999929,
                    "velocity": 0.47244094488188976,
                    "duration": 0.13831266666664987
                },
                {
                    "name": "A4",
                    "midi": 69,
                    "time": 399.30866866665957,
                    "velocity": 0.4015748031496063,
                    "duration": 0.13831266666664987
                },
                {
                    "name": "G4",
                    "midi": 67,
                    "time": 399.4469813333262,
                    "velocity": 0.4015748031496063,
                    "duration": 0.13831266666664987
                },
                {
                    "name": "F#4",
                    "midi": 66,
                    "time": 399.58529399999287,
                    "velocity": 0.4566929133858268,
                    "duration": 0.13831266666664987
                },
                {
                    "name": "E4",
                    "midi": 64,
                    "time": 399.7236066666595,
                    "velocity": 0.4015748031496063,
                    "duration": 0.13831266666664987
                },
                {
                    "name": "G4",
                    "midi": 67,
                    "time": 399.86191933332617,
                    "velocity": 0.4015748031496063,
                    "duration": 0.13831266666664987
                },
                {
                    "name": "F#4",
                    "midi": 66,
                    "time": 400.0002319999928,
                    "velocity": 0.48031496062992124,
                    "duration": 0.20746900000000323
                },
                {
                    "name": "F#5",
                    "midi": 78,
                    "time": 400.4151699999928,
                    "velocity": 0.5039370078740157,
                    "duration": 0.13831266666664987
                },
                {
                    "name": "F5",
                    "midi": 77,
                    "time": 400.5534826666595,
                    "velocity": 0.4251968503937008,
                    "duration": 0.13831266666664987
                },
                {
                    "name": "F#5",
                    "midi": 78,
                    "time": 400.6917953333261,
                    "velocity": 0.4251968503937008,
                    "duration": 0.13831266666664987
                },
                {
                    "name": "A5",
                    "midi": 81,
                    "time": 400.8301079999928,
                    "velocity": 0.5118110236220472,
                    "duration": 0.13831266666664987
                },
                {
                    "name": "G5",
                    "midi": 79,
                    "time": 400.9684206666594,
                    "velocity": 0.4409448818897638,
                    "duration": 0.13831266666664987
                },
                {
                    "name": "F#5",
                    "midi": 78,
                    "time": 401.1067333333261,
                    "velocity": 0.4409448818897638,
                    "duration": 0.13831266666664987
                },
                {
                    "name": "C6",
                    "midi": 84,
                    "time": 401.2450459999927,
                    "velocity": 0.5196850393700787,
                    "duration": 0.13831266666664987
                },
                {
                    "name": "B5",
                    "midi": 83,
                    "time": 401.3833586666594,
                    "velocity": 0.4566929133858268,
                    "duration": 0.13831266666664987
                },
                {
                    "name": "A5",
                    "midi": 81,
                    "time": 401.521671333326,
                    "velocity": 0.4566929133858268,
                    "duration": 0.13831266666664987
                },
                {
                    "name": "G5",
                    "midi": 79,
                    "time": 401.6599839999927,
                    "velocity": 0.5118110236220472,
                    "duration": 0.13831266666664987
                },
                {
                    "name": "F#5",
                    "midi": 78,
                    "time": 401.7982966666593,
                    "velocity": 0.4566929133858268,
                    "duration": 0.13831266666664987
                },
                {
                    "name": "E5",
                    "midi": 76,
                    "time": 401.936609333326,
                    "velocity": 0.4566929133858268,
                    "duration": 0.13831266666664987
                },
                {
                    "name": "F#5",
                    "midi": 78,
                    "time": 402.0749219999926,
                    "velocity": 0.5196850393700787,
                    "duration": 0.13831266666664987
                },
                {
                    "name": "E5",
                    "midi": 76,
                    "time": 402.2132346666593,
                    "velocity": 0.4330708661417323,
                    "duration": 0.13831266666664987
                },
                {
                    "name": "D5",
                    "midi": 74,
                    "time": 402.3515473333259,
                    "velocity": 0.4330708661417323,
                    "duration": 0.13831266666664987
                },
                {
                    "name": "C5",
                    "midi": 72,
                    "time": 402.4898599999926,
                    "velocity": 0.47244094488188976,
                    "duration": 0.13831266666664987
                },
                {
                    "name": "B4",
                    "midi": 71,
                    "time": 402.6281726666592,
                    "velocity": 0.4015748031496063,
                    "duration": 0.13831266666664987
                },
                {
                    "name": "A4",
                    "midi": 69,
                    "time": 402.7664853333259,
                    "velocity": 0.4015748031496063,
                    "duration": 0.13831266666664987
                },
                {
                    "name": "G4",
                    "midi": 67,
                    "time": 402.9047979999925,
                    "velocity": 0.4566929133858268,
                    "duration": 0.13831266666664987
                },
                {
                    "name": "F#4",
                    "midi": 66,
                    "time": 403.0431106666592,
                    "velocity": 0.4015748031496063,
                    "duration": 0.13831266666664987
                },
                {
                    "name": "A4",
                    "midi": 69,
                    "time": 403.1814233333258,
                    "velocity": 0.4015748031496063,
                    "duration": 0.13831266666664987
                },
                {
                    "name": "G4",
                    "midi": 67,
                    "time": 403.3197359999925,
                    "velocity": 0.5118110236220472,
                    "duration": 0.13831266666664987
                },
                {
                    "name": "F#4",
                    "midi": 66,
                    "time": 403.4580486666591,
                    "velocity": 0.4566929133858268,
                    "duration": 0.13831266666664987
                },
                {
                    "name": "G4",
                    "midi": 67,
                    "time": 403.5963613333258,
                    "velocity": 0.4566929133858268,
                    "duration": 0.13831266666664987
                },
                {
                    "name": "B4",
                    "midi": 71,
                    "time": 403.7346739999924,
                    "velocity": 0.5039370078740157,
                    "duration": 0.13831266666664987
                },
                {
                    "name": "A#4",
                    "midi": 70,
                    "time": 403.8729866666591,
                    "velocity": 0.4251968503937008,
                    "duration": 0.13831266666664987
                },
                {
                    "name": "B4",
                    "midi": 71,
                    "time": 404.0112993333257,
                    "velocity": 0.4251968503937008,
                    "duration": 0.13831266666664987
                },
                {
                    "name": "D5",
                    "midi": 74,
                    "time": 404.1496119999924,
                    "velocity": 0.5118110236220472,
                    "duration": 0.13831266666664987
                },
                {
                    "name": "C#5",
                    "midi": 73,
                    "time": 404.287924666659,
                    "velocity": 0.4409448818897638,
                    "duration": 0.13831266666664987
                },
                {
                    "name": "D5",
                    "midi": 74,
                    "time": 404.4262373333257,
                    "velocity": 0.4409448818897638,
                    "duration": 0.13831266666664987
                },
                {
                    "name": "G5",
                    "midi": 79,
                    "time": 404.5645499999923,
                    "velocity": 0.5196850393700787,
                    "duration": 0.13831266666664987
                },
                {
                    "name": "F#5",
                    "midi": 78,
                    "time": 404.702862666659,
                    "velocity": 0.4566929133858268,
                    "duration": 0.13831266666664987
                },
                {
                    "name": "G5",
                    "midi": 79,
                    "time": 404.8411753333256,
                    "velocity": 0.4566929133858268,
                    "duration": 0.13831266666664987
                },
                {
                    "name": "B5",
                    "midi": 83,
                    "time": 404.9794879999923,
                    "velocity": 0.5118110236220472,
                    "duration": 0.13831266666664987
                },
                {
                    "name": "A#5",
                    "midi": 82,
                    "time": 405.1178006666589,
                    "velocity": 0.4566929133858268,
                    "duration": 0.13831266666664987
                },
                {
                    "name": "B5",
                    "midi": 83,
                    "time": 405.2561133333256,
                    "velocity": 0.4566929133858268,
                    "duration": 0.13831266666664987
                },
                {
                    "name": "D6",
                    "midi": 86,
                    "time": 405.3944259999922,
                    "velocity": 0.5196850393700787,
                    "duration": 0.13831266666664987
                },
                {
                    "name": "C#6",
                    "midi": 85,
                    "time": 405.5327386666589,
                    "velocity": 0.4330708661417323,
                    "duration": 0.13831266666664987
                },
                {
                    "name": "D6",
                    "midi": 86,
                    "time": 405.6710513333255,
                    "velocity": 0.4330708661417323,
                    "duration": 0.13831266666664987
                },
                {
                    "name": "F6",
                    "midi": 89,
                    "time": 405.8093639999922,
                    "velocity": 0.5275590551181102,
                    "duration": 0.13831266666664987
                },
                {
                    "name": "E6",
                    "midi": 88,
                    "time": 405.9476766666588,
                    "velocity": 0.4015748031496063,
                    "duration": 0.13831266666664987
                },
                {
                    "name": "F6",
                    "midi": 89,
                    "time": 406.0859893333255,
                    "velocity": 0.4094488188976378,
                    "duration": 0.13831266666664987
                },
                {
                    "name": "G#5",
                    "midi": 80,
                    "time": 406.2243019999921,
                    "velocity": 0.49606299212598426,
                    "duration": 0.13831266666664987
                },
                {
                    "name": "G5",
                    "midi": 79,
                    "time": 406.36261466665877,
                    "velocity": 0.3228346456692913,
                    "duration": 0.13831266666664987
                },
                {
                    "name": "G#5",
                    "midi": 80,
                    "time": 406.5009273333254,
                    "velocity": 0.31496062992125984,
                    "duration": 0.13831266666664987
                },
                {
                    "name": "A5",
                    "midi": 81,
                    "time": 406.63923999999207,
                    "velocity": 0.4094488188976378,
                    "duration": 0.13831266666664987
                },
                {
                    "name": "G#5",
                    "midi": 80,
                    "time": 406.7775526666587,
                    "velocity": 0.3228346456692913,
                    "duration": 0.13831266666664987
                },
                {
                    "name": "A5",
                    "midi": 81,
                    "time": 406.91586533332537,
                    "velocity": 0.3228346456692913,
                    "duration": 0.13831266666664987
                },
                {
                    "name": "C#6",
                    "midi": 85,
                    "time": 407.054177999992,
                    "velocity": 0.4094488188976378,
                    "duration": 0.13831266666664987
                },
                {
                    "name": "B5",
                    "midi": 83,
                    "time": 407.19249066665867,
                    "velocity": 0.33070866141732286,
                    "duration": 0.13831266666664987
                },
                {
                    "name": "A5",
                    "midi": 81,
                    "time": 407.3308033333253,
                    "velocity": 0.33070866141732286,
                    "duration": 0.13831266666664987
                },
                {
                    "name": "B5",
                    "midi": 83,
                    "time": 407.46911599999197,
                    "velocity": 0.4094488188976378,
                    "duration": 0.13831266666664987
                },
                {
                    "name": "A5",
                    "midi": 81,
                    "time": 407.6074286666586,
                    "velocity": 0.31496062992125984,
                    "duration": 0.13831266666664987
                },
                {
                    "name": "G#5",
                    "midi": 80,
                    "time": 407.74574133332527,
                    "velocity": 0.31496062992125984,
                    "duration": 0.13831266666664987
                },
                {
                    "name": "D6",
                    "midi": 86,
                    "time": 407.8840539999919,
                    "velocity": 0.4566929133858268,
                    "duration": 0.13831266666664987
                },
                {
                    "name": "C#6",
                    "midi": 85,
                    "time": 408.02236666665857,
                    "velocity": 0.3464566929133858,
                    "duration": 0.13831266666664987
                },
                {
                    "name": "B5",
                    "midi": 83,
                    "time": 408.1606793333252,
                    "velocity": 0.3464566929133858,
                    "duration": 0.13831266666664987
                },
                {
                    "name": "A5",
                    "midi": 81,
                    "time": 408.29899199999187,
                    "velocity": 0.4094488188976378,
                    "duration": 0.13831266666664987
                },
                {
                    "name": "G#5",
                    "midi": 80,
                    "time": 408.4373046666585,
                    "velocity": 0.3228346456692913,
                    "duration": 0.13831266666664987
                },
                {
                    "name": "F#5",
                    "midi": 78,
                    "time": 408.57561733332517,
                    "velocity": 0.3228346456692913,
                    "duration": 0.13831266666664987
                },
                {
                    "name": "E5",
                    "midi": 76,
                    "time": 408.7139299999918,
                    "velocity": 0.4094488188976378,
                    "duration": 0.13831266666664987
                },
                {
                    "name": "D5",
                    "midi": 74,
                    "time": 408.85224266665847,
                    "velocity": 0.3228346456692913,
                    "duration": 0.13831266666664987
                },
                {
                    "name": "C#5",
                    "midi": 73,
                    "time": 408.9905553333251,
                    "velocity": 0.3228346456692913,
                    "duration": 0.13831266666664987
                },
                {
                    "name": "D5",
                    "midi": 74,
                    "time": 409.12886799999177,
                    "velocity": 0.4094488188976378,
                    "duration": 0.13831266666664987
                },
                {
                    "name": "C#5",
                    "midi": 73,
                    "time": 409.2671806666584,
                    "velocity": 0.31496062992125984,
                    "duration": 0.13831266666664987
                },
                {
                    "name": "B4",
                    "midi": 71,
                    "time": 409.40549333332507,
                    "velocity": 0.31496062992125984,
                    "duration": 0.13831266666664987
                },
                {
                    "name": "F#5",
                    "midi": 78,
                    "time": 409.5438059999917,
                    "velocity": 0.4566929133858268,
                    "duration": 0.13831266666664987
                },
                {
                    "name": "E5",
                    "midi": 76,
                    "time": 409.68211866665837,
                    "velocity": 0.3464566929133858,
                    "duration": 0.13831266666664987
                },
                {
                    "name": "D5",
                    "midi": 74,
                    "time": 409.820431333325,
                    "velocity": 0.3464566929133858,
                    "duration": 0.13831266666664987
                },
                {
                    "name": "C#5",
                    "midi": 73,
                    "time": 409.95874399999167,
                    "velocity": 0.4094488188976378,
                    "duration": 0.13831266666664987
                },
                {
                    "name": "E5",
                    "midi": 76,
                    "time": 410.0970566666583,
                    "velocity": 0.3228346456692913,
                    "duration": 0.13831266666664987
                },
                {
                    "name": "A5",
                    "midi": 81,
                    "time": 410.23536933332497,
                    "velocity": 0.3228346456692913,
                    "duration": 0.13831266666664987
                },
                {
                    "name": "C#6",
                    "midi": 85,
                    "time": 410.3736819999916,
                    "velocity": 0.4094488188976378,
                    "duration": 0.13831266666664987
                },
                {
                    "name": "B5",
                    "midi": 83,
                    "time": 410.51199466665827,
                    "velocity": 0.3228346456692913,
                    "duration": 0.13831266666664987
                },
                {
                    "name": "A5",
                    "midi": 81,
                    "time": 410.6503073333249,
                    "velocity": 0.3228346456692913,
                    "duration": 0.13831266666664987
                },
                {
                    "name": "B5",
                    "midi": 83,
                    "time": 410.78861999999157,
                    "velocity": 0.4094488188976378,
                    "duration": 0.13831266666664987
                },
                {
                    "name": "A5",
                    "midi": 81,
                    "time": 410.9269326666582,
                    "velocity": 0.31496062992125984,
                    "duration": 0.13831266666664987
                },
                {
                    "name": "G#5",
                    "midi": 80,
                    "time": 411.06524533332487,
                    "velocity": 0.31496062992125984,
                    "duration": 0.13831266666664987
                },
                {
                    "name": "D6",
                    "midi": 86,
                    "time": 411.2035579999915,
                    "velocity": 0.4566929133858268,
                    "duration": 0.13831266666664987
                },
                {
                    "name": "C#6",
                    "midi": 85,
                    "time": 411.34187066665817,
                    "velocity": 0.3464566929133858,
                    "duration": 0.13831266666664987
                },
                {
                    "name": "B5",
                    "midi": 83,
                    "time": 411.4801833333248,
                    "velocity": 0.3464566929133858,
                    "duration": 0.13831266666664987
                },
                {
                    "name": "A5",
                    "midi": 81,
                    "time": 411.61849599999147,
                    "velocity": 0.4094488188976378,
                    "duration": 0.13831266666664987
                },
                {
                    "name": "G#5",
                    "midi": 80,
                    "time": 411.7568086666581,
                    "velocity": 0.3228346456692913,
                    "duration": 0.13831266666664987
                },
                {
                    "name": "F#5",
                    "midi": 78,
                    "time": 411.89512133332477,
                    "velocity": 0.3228346456692913,
                    "duration": 0.13831266666664987
                },
                {
                    "name": "E5",
                    "midi": 76,
                    "time": 412.0334339999914,
                    "velocity": 0.4094488188976378,
                    "duration": 0.13831266666664987
                },
                {
                    "name": "D5",
                    "midi": 74,
                    "time": 412.17174666665807,
                    "velocity": 0.3228346456692913,
                    "duration": 0.13831266666664987
                },
                {
                    "name": "C#5",
                    "midi": 73,
                    "time": 412.3100593333247,
                    "velocity": 0.3228346456692913,
                    "duration": 0.13831266666664987
                },
                {
                    "name": "D5",
                    "midi": 74,
                    "time": 412.44837199999137,
                    "velocity": 0.4094488188976378,
                    "duration": 0.13831266666664987
                },
                {
                    "name": "C#5",
                    "midi": 73,
                    "time": 412.586684666658,
                    "velocity": 0.31496062992125984,
                    "duration": 0.13831266666664987
                },
                {
                    "name": "B4",
                    "midi": 71,
                    "time": 412.72499733332467,
                    "velocity": 0.31496062992125984,
                    "duration": 0.13831266666664987
                },
                {
                    "name": "F#5",
                    "midi": 78,
                    "time": 412.8633099999913,
                    "velocity": 0.4566929133858268,
                    "duration": 0.13831266666664987
                },
                {
                    "name": "E5",
                    "midi": 76,
                    "time": 413.00162266665797,
                    "velocity": 0.3464566929133858,
                    "duration": 0.13831266666664987
                },
                {
                    "name": "D5",
                    "midi": 74,
                    "time": 413.1399353333246,
                    "velocity": 0.3464566929133858,
                    "duration": 0.13831266666664987
                },
                {
                    "name": "C#5",
                    "midi": 73,
                    "time": 413.27824799999127,
                    "velocity": 0.4094488188976378,
                    "duration": 0.13831266666664987
                },
                {
                    "name": "B4",
                    "midi": 71,
                    "time": 413.4165606666579,
                    "velocity": 0.3228346456692913,
                    "duration": 0.13831266666664987
                },
                {
                    "name": "A4",
                    "midi": 69,
                    "time": 413.55487333332457,
                    "velocity": 0.3228346456692913,
                    "duration": 0.13831266666664987
                },
                {
                    "name": "E5",
                    "midi": 76,
                    "time": 413.6931859999912,
                    "velocity": 0.4094488188976378,
                    "duration": 0.13831266666664987
                },
                {
                    "name": "D5",
                    "midi": 74,
                    "time": 413.83149866665786,
                    "velocity": 0.3228346456692913,
                    "duration": 0.13831266666664987
                },
                {
                    "name": "C#5",
                    "midi": 73,
                    "time": 413.9698113333245,
                    "velocity": 0.33070866141732286,
                    "duration": 0.13831266666664987
                },
                {
                    "name": "G5",
                    "midi": 79,
                    "time": 414.10812399999116,
                    "velocity": 0.41732283464566927,
                    "duration": 0.13831266666664987
                },
                {
                    "name": "F#5",
                    "midi": 78,
                    "time": 414.2464366666578,
                    "velocity": 0.3228346456692913,
                    "duration": 0.13831266666664987
                },
                {
                    "name": "E5",
                    "midi": 76,
                    "time": 414.38474933332446,
                    "velocity": 0.33070866141732286,
                    "duration": 0.13831266666664987
                },
                {
                    "name": "B5",
                    "midi": 83,
                    "time": 414.5230619999911,
                    "velocity": 0.47244094488188976,
                    "duration": 0.13831266666664987
                },
                {
                    "name": "A5",
                    "midi": 81,
                    "time": 414.66137466665776,
                    "velocity": 0.36220472440944884,
                    "duration": 0.13831266666664987
                },
                {
                    "name": "G5",
                    "midi": 79,
                    "time": 414.7996873333244,
                    "velocity": 0.36220472440944884,
                    "duration": 0.13831266666664987
                },
                {
                    "name": "F#5",
                    "midi": 78,
                    "time": 414.93799999999106,
                    "velocity": 0.4330708661417323,
                    "duration": 0.13831266666664987
                },
                {
                    "name": "E5",
                    "midi": 76,
                    "time": 415.0763126666577,
                    "velocity": 0.3464566929133858,
                    "duration": 0.13831266666664987
                },
                {
                    "name": "D5",
                    "midi": 74,
                    "time": 415.21462533332436,
                    "velocity": 0.3464566929133858,
                    "duration": 0.13831266666664987
                },
                {
                    "name": "C#5",
                    "midi": 73,
                    "time": 415.352937999991,
                    "velocity": 0.4409448818897638,
                    "duration": 0.13831266666664987
                },
                {
                    "name": "B4",
                    "midi": 71,
                    "time": 415.49125066665766,
                    "velocity": 0.3543307086614173,
                    "duration": 0.13831266666664987
                },
                {
                    "name": "A4",
                    "midi": 69,
                    "time": 415.6295633333243,
                    "velocity": 0.3543307086614173,
                    "duration": 0.13831266666664987
                },
                {
                    "name": "G4",
                    "midi": 67,
                    "time": 415.76787599999096,
                    "velocity": 0.44881889763779526,
                    "duration": 0.13831266666664987
                },
                {
                    "name": "E4",
                    "midi": 64,
                    "time": 415.9061886666576,
                    "velocity": 0.3464566929133858,
                    "duration": 0.13831266666664987
                },
                {
                    "name": "F#4",
                    "midi": 66,
                    "time": 416.04450133332426,
                    "velocity": 0.3464566929133858,
                    "duration": 0.13831266666664987
                },
                {
                    "name": "G4",
                    "midi": 67,
                    "time": 416.1828139999909,
                    "velocity": 0.5118110236220472,
                    "duration": 0.13831266666664987
                },
                {
                    "name": "A4",
                    "midi": 69,
                    "time": 416.32112666665756,
                    "velocity": 0.3858267716535433,
                    "duration": 0.13831266666664987
                },
                {
                    "name": "B4",
                    "midi": 71,
                    "time": 416.4594393333242,
                    "velocity": 0.3937007874015748,
                    "duration": 0.13831266666664987
                },
                {
                    "name": "C#5",
                    "midi": 73,
                    "time": 416.59775199999086,
                    "velocity": 0.4645669291338583,
                    "duration": 0.13831266666664987
                },
                {
                    "name": "B4",
                    "midi": 71,
                    "time": 416.7360646666575,
                    "velocity": 0.3700787401574803,
                    "duration": 0.13831266666664987
                },
                {
                    "name": "A4",
                    "midi": 69,
                    "time": 416.87437733332416,
                    "velocity": 0.3700787401574803,
                    "duration": 0.13831266666664987
                },
                {
                    "name": "E5",
                    "midi": 76,
                    "time": 417.0126899999908,
                    "velocity": 0.47244094488188976,
                    "duration": 0.13831266666664987
                },
                {
                    "name": "D5",
                    "midi": 74,
                    "time": 417.15100266665746,
                    "velocity": 0.3700787401574803,
                    "duration": 0.13831266666664987
                },
                {
                    "name": "C#5",
                    "midi": 73,
                    "time": 417.2893153333241,
                    "velocity": 0.3779527559055118,
                    "duration": 0.13831266666664987
                },
                {
                    "name": "G5",
                    "midi": 79,
                    "time": 417.42762799999076,
                    "velocity": 0.48031496062992124,
                    "duration": 0.13831266666664987
                },
                {
                    "name": "F#5",
                    "midi": 78,
                    "time": 417.5659406666574,
                    "velocity": 0.3700787401574803,
                    "duration": 0.13831266666664987
                },
                {
                    "name": "E5",
                    "midi": 76,
                    "time": 417.70425333332406,
                    "velocity": 0.3779527559055118,
                    "duration": 0.13831266666664987
                },
                {
                    "name": "A#5",
                    "midi": 82,
                    "time": 417.8425659999907,
                    "velocity": 0.5196850393700787,
                    "duration": 0.13831266666664987
                },
                {
                    "name": "A5",
                    "midi": 81,
                    "time": 417.98087866665736,
                    "velocity": 0.41732283464566927,
                    "duration": 0.13831266666664987
                },
                {
                    "name": "G5",
                    "midi": 79,
                    "time": 418.119191333324,
                    "velocity": 0.41732283464566927,
                    "duration": 0.13831266666664987
                },
                {
                    "name": "F#5",
                    "midi": 78,
                    "time": 418.25750399999066,
                    "velocity": 0.49606299212598426,
                    "duration": 0.13831266666664987
                },
                {
                    "name": "E5",
                    "midi": 76,
                    "time": 418.3958166666573,
                    "velocity": 0.3937007874015748,
                    "duration": 0.13831266666664987
                },
                {
                    "name": "D5",
                    "midi": 74,
                    "time": 418.53412933332396,
                    "velocity": 0.3937007874015748,
                    "duration": 0.13831266666664987
                },
                {
                    "name": "C#5",
                    "midi": 73,
                    "time": 418.6724419999906,
                    "velocity": 0.5039370078740157,
                    "duration": 0.13831266666664987
                },
                {
                    "name": "B4",
                    "midi": 71,
                    "time": 418.81075466665726,
                    "velocity": 0.4015748031496063,
                    "duration": 0.13831266666664987
                },
                {
                    "name": "A4",
                    "midi": 69,
                    "time": 418.9490673333239,
                    "velocity": 0.4015748031496063,
                    "duration": 0.13831266666664987
                },
                {
                    "name": "G4",
                    "midi": 67,
                    "time": 419.08737999999056,
                    "velocity": 0.5118110236220472,
                    "duration": 0.13831266666664987
                },
                {
                    "name": "E4",
                    "midi": 64,
                    "time": 419.2256926666572,
                    "velocity": 0.3937007874015748,
                    "duration": 0.13831266666664987
                },
                {
                    "name": "F#4",
                    "midi": 66,
                    "time": 419.36400533332386,
                    "velocity": 0.3937007874015748,
                    "duration": 0.13831266666664987
                },
                {
                    "name": "G4",
                    "midi": 67,
                    "time": 419.5023179999905,
                    "velocity": 0.5196850393700787,
                    "duration": 0.13831266666664987
                },
                {
                    "name": "A4",
                    "midi": 69,
                    "time": 419.64063066665716,
                    "velocity": 0.4251968503937008,
                    "duration": 0.13831266666664987
                },
                {
                    "name": "B4",
                    "midi": 71,
                    "time": 419.7789433333238,
                    "velocity": 0.4251968503937008,
                    "duration": 0.13831266666664987
                },
                {
                    "name": "C#5",
                    "midi": 73,
                    "time": 419.91725599999046,
                    "velocity": 0.5905511811023622,
                    "duration": 0.13831266666664987
                },
                {
                    "name": "B4",
                    "midi": 71,
                    "time": 420.0555686666571,
                    "velocity": 0.48031496062992124,
                    "duration": 0.13831266666664987
                },
                {
                    "name": "A4",
                    "midi": 69,
                    "time": 420.19388133332376,
                    "velocity": 0.48031496062992124,
                    "duration": 0.13831266666664987
                },
                {
                    "name": "E5",
                    "midi": 76,
                    "time": 420.3321939999904,
                    "velocity": 0.5905511811023622,
                    "duration": 0.13831266666664987
                },
                {
                    "name": "D5",
                    "midi": 74,
                    "time": 420.47050666665706,
                    "velocity": 0.48031496062992124,
                    "duration": 0.13831266666664987
                },
                {
                    "name": "C#5",
                    "midi": 73,
                    "time": 420.6088193333237,
                    "velocity": 0.48031496062992124,
                    "duration": 0.13831266666664987
                },
                {
                    "name": "G5",
                    "midi": 79,
                    "time": 420.74713199999036,
                    "velocity": 0.5984251968503937,
                    "duration": 0.13831266666664987
                },
                {
                    "name": "F#5",
                    "midi": 78,
                    "time": 420.885444666657,
                    "velocity": 0.4881889763779528,
                    "duration": 0.13831266666664987
                },
                {
                    "name": "E5",
                    "midi": 76,
                    "time": 421.02375733332366,
                    "velocity": 0.4881889763779528,
                    "duration": 0.12966812500002334
                },
                {
                    "name": "E5",
                    "midi": 76,
                    "time": 421.16206999999036,
                    "velocity": 0.6062992125984252,
                    "duration": 0.13831266666664987
                },
                {
                    "name": "D5",
                    "midi": 74,
                    "time": 421.300382666657,
                    "velocity": 0.49606299212598426,
                    "duration": 0.13831266666664987
                },
                {
                    "name": "C#5",
                    "midi": 73,
                    "time": 421.43869533332366,
                    "velocity": 0.5039370078740157,
                    "duration": 0.13831266666664987
                },
                {
                    "name": "G5",
                    "midi": 79,
                    "time": 421.5770079999903,
                    "velocity": 0.6377952755905512,
                    "duration": 0.13831266666664987
                },
                {
                    "name": "F#5",
                    "midi": 78,
                    "time": 421.71532066665696,
                    "velocity": 0.5275590551181102,
                    "duration": 0.13831266666664987
                },
                {
                    "name": "E5",
                    "midi": 76,
                    "time": 421.8536333333236,
                    "velocity": 0.5275590551181102,
                    "duration": 0.13831266666664987
                },
                {
                    "name": "B5",
                    "midi": 83,
                    "time": 421.99194599999026,
                    "velocity": 0.6456692913385826,
                    "duration": 0.13831266666664987
                },
                {
                    "name": "A5",
                    "midi": 81,
                    "time": 422.1302586666569,
                    "velocity": 0.5275590551181102,
                    "duration": 0.13831266666664987
                },
                {
                    "name": "G5",
                    "midi": 79,
                    "time": 422.26857133332356,
                    "velocity": 0.5275590551181102,
                    "duration": 0.12966812500002334
                },
                {
                    "name": "G5",
                    "midi": 79,
                    "time": 422.40688399999027,
                    "velocity": 0.6377952755905512,
                    "duration": 0.13831266666664987
                },
                {
                    "name": "F#5",
                    "midi": 78,
                    "time": 422.5451966666569,
                    "velocity": 0.5354330708661418,
                    "duration": 0.13831266666664987
                },
                {
                    "name": "E5",
                    "midi": 76,
                    "time": 422.68350933332357,
                    "velocity": 0.5354330708661418,
                    "duration": 0.12966812500002334
                },
                {
                    "name": "B5",
                    "midi": 83,
                    "time": 422.8218219999903,
                    "velocity": 0.6299212598425197,
                    "duration": 0.13831266666664987
                },
                {
                    "name": "A5",
                    "midi": 81,
                    "time": 422.9601346666569,
                    "velocity": 0.5118110236220472,
                    "duration": 0.13831266666664987
                },
                {
                    "name": "G5",
                    "midi": 79,
                    "time": 423.0984473333236,
                    "velocity": 0.5196850393700787,
                    "duration": 0.13831266666664987
                },
                {
                    "name": "C#6",
                    "midi": 85,
                    "time": 423.2367599999902,
                    "velocity": 0.6771653543307087,
                    "duration": 0.13831266666664987
                },
                {
                    "name": "B5",
                    "midi": 83,
                    "time": 423.3750726666569,
                    "velocity": 0.5118110236220472,
                    "duration": 0.13831266666664987
                },
                {
                    "name": "A5",
                    "midi": 81,
                    "time": 423.5133853333235,
                    "velocity": 0.5118110236220472,
                    "duration": 0.13831266666664987
                },
                {
                    "name": "C#6",
                    "midi": 85,
                    "time": 423.6516979999902,
                    "velocity": 0.6614173228346457,
                    "duration": 0.13831266666664987
                },
                {
                    "name": "B5",
                    "midi": 83,
                    "time": 423.7900106666568,
                    "velocity": 0.5196850393700787,
                    "duration": 0.13831266666664987
                },
                {
                    "name": "A5",
                    "midi": 81,
                    "time": 423.9283233333235,
                    "velocity": 0.5590551181102362,
                    "duration": 0.12966812500002334
                },
                {
                    "name": "C#6",
                    "midi": 85,
                    "time": 424.0666359999902,
                    "velocity": 0.7165354330708661,
                    "duration": 0.13831266666664987
                },
                {
                    "name": "B5",
                    "midi": 83,
                    "time": 424.20494866665683,
                    "velocity": 0.5826771653543307,
                    "duration": 0.13831266666664987
                },
                {
                    "name": "A5",
                    "midi": 81,
                    "time": 424.3432613333235,
                    "velocity": 0.5984251968503937,
                    "duration": 0.12966812500002334
                },
                {
                    "name": "C#6",
                    "midi": 85,
                    "time": 424.4815739999902,
                    "velocity": 0.7322834645669292,
                    "duration": 0.13831266666664987
                },
                {
                    "name": "B5",
                    "midi": 83,
                    "time": 424.61988666665684,
                    "velocity": 0.6299212598425197,
                    "duration": 0.13831266666664987
                },
                {
                    "name": "A5",
                    "midi": 81,
                    "time": 424.7581993333235,
                    "velocity": 0.6692913385826772,
                    "duration": 0.13831266666664987
                },
                {
                    "name": "D6",
                    "midi": 86,
                    "time": 424.89651199999014,
                    "velocity": 0.8267716535433071,
                    "duration": 0.8298760000000129
                },
                {
                    "name": "A5",
                    "midi": 81,
                    "time": 424.89651199999014,
                    "velocity": 0.7007874015748031,
                    "duration": 0.8298760000000129
                },
                {
                    "name": "F#5",
                    "midi": 78,
                    "time": 424.89651199999014,
                    "velocity": 0.7007874015748031,
                    "duration": 0.8298760000000129
                },
                {
                    "name": "D5",
                    "midi": 74,
                    "time": 424.89651199999014,
                    "velocity": 0.7007874015748031,
                    "duration": 0.8298760000000129
                },
                {
                    "name": "A3",
                    "midi": 57,
                    "time": 425.72638799999015,
                    "velocity": 0.48031496062992124,
                    "duration": 0.1037344999999732
                },
                {
                    "name": "D4",
                    "midi": 62,
                    "time": 425.72638799999015,
                    "velocity": 0.5669291338582677,
                    "duration": 0.1037344999999732
                },
                {
                    "name": "A3",
                    "midi": 57,
                    "time": 425.9338569999901,
                    "velocity": 0.4409448818897638,
                    "duration": 0.1037344999999732
                },
                {
                    "name": "D4",
                    "midi": 62,
                    "time": 425.9338569999901,
                    "velocity": 0.5275590551181102,
                    "duration": 0.1037344999999732
                },
                {
                    "name": "A3",
                    "midi": 57,
                    "time": 426.14132599999004,
                    "velocity": 0.48031496062992124,
                    "duration": 0.1037344999999732
                },
                {
                    "name": "D4",
                    "midi": 62,
                    "time": 426.14132599999004,
                    "velocity": 0.5669291338582677,
                    "duration": 0.1037344999999732
                },
                {
                    "name": "A3",
                    "midi": 57,
                    "time": 426.34879499999,
                    "velocity": 0.4409448818897638,
                    "duration": 0.1037344999999732
                },
                {
                    "name": "D4",
                    "midi": 62,
                    "time": 426.34879499999,
                    "velocity": 0.5196850393700787,
                    "duration": 0.1037344999999732
                },
                {
                    "name": "A3",
                    "midi": 57,
                    "time": 426.55626399998994,
                    "velocity": 0.5354330708661418,
                    "duration": 0.41493800000000647
                },
                {
                    "name": "D4",
                    "midi": 62,
                    "time": 426.55626399998994,
                    "velocity": 0.6299212598425197,
                    "duration": 0.6224070000000097
                },
                {
                    "name": "B3",
                    "midi": 59,
                    "time": 426.97120199998994,
                    "velocity": 0.4566929133858268,
                    "duration": 0.20746900000000323
                },
                {
                    "name": "E4",
                    "midi": 64,
                    "time": 426.97120199998994,
                    "velocity": 0.5433070866141733,
                    "duration": 0.20746900000000323
                },
                {
                    "name": "C4",
                    "midi": 60,
                    "time": 427.38613999998995,
                    "velocity": 0.48031496062992124,
                    "duration": 0.1037344999999732
                },
                {
                    "name": "D4",
                    "midi": 62,
                    "time": 427.38613999998995,
                    "velocity": 0.48031496062992124,
                    "duration": 0.1037344999999732
                },
                {
                    "name": "F#4",
                    "midi": 66,
                    "time": 427.38613999998995,
                    "velocity": 0.5669291338582677,
                    "duration": 0.1037344999999732
                },
                {
                    "name": "C4",
                    "midi": 60,
                    "time": 427.5936089999899,
                    "velocity": 0.4409448818897638,
                    "duration": 0.1037344999999732
                },
                {
                    "name": "D4",
                    "midi": 62,
                    "time": 427.5936089999899,
                    "velocity": 0.4409448818897638,
                    "duration": 0.1037344999999732
                },
                {
                    "name": "F#4",
                    "midi": 66,
                    "time": 427.5936089999899,
                    "velocity": 0.5275590551181102,
                    "duration": 0.1037344999999732
                },
                {
                    "name": "C4",
                    "midi": 60,
                    "time": 427.80107799998984,
                    "velocity": 0.48031496062992124,
                    "duration": 0.1037344999999732
                },
                {
                    "name": "D4",
                    "midi": 62,
                    "time": 427.80107799998984,
                    "velocity": 0.48031496062992124,
                    "duration": 0.1037344999999732
                },
                {
                    "name": "F#4",
                    "midi": 66,
                    "time": 427.80107799998984,
                    "velocity": 0.5669291338582677,
                    "duration": 0.1037344999999732
                },
                {
                    "name": "C4",
                    "midi": 60,
                    "time": 428.0085469999898,
                    "velocity": 0.4409448818897638,
                    "duration": 0.1037344999999732
                },
                {
                    "name": "D4",
                    "midi": 62,
                    "time": 428.0085469999898,
                    "velocity": 0.4409448818897638,
                    "duration": 0.1037344999999732
                },
                {
                    "name": "F#4",
                    "midi": 66,
                    "time": 428.0085469999898,
                    "velocity": 0.5196850393700787,
                    "duration": 0.1037344999999732
                },
                {
                    "name": "C4",
                    "midi": 60,
                    "time": 428.21601599998974,
                    "velocity": 0.5354330708661418,
                    "duration": 0.41493800000000647
                },
                {
                    "name": "D4",
                    "midi": 62,
                    "time": 428.21601599998974,
                    "velocity": 0.5354330708661418,
                    "duration": 0.6224070000000097
                },
                {
                    "name": "F#4",
                    "midi": 66,
                    "time": 428.21601599998974,
                    "velocity": 0.6299212598425197,
                    "duration": 0.41493800000000647
                },
                {
                    "name": "B3",
                    "midi": 59,
                    "time": 428.63095399998974,
                    "velocity": 0.4566929133858268,
                    "duration": 0.20746900000000323
                },
                {
                    "name": "G4",
                    "midi": 67,
                    "time": 428.63095399998974,
                    "velocity": 0.5433070866141733,
                    "duration": 0.20746900000000323
                },
                {
                    "name": "E4",
                    "midi": 64,
                    "time": 428.83842299998975,
                    "velocity": 0.44881889763779526,
                    "duration": 0.20746900000000323
                },
                {
                    "name": "G4",
                    "midi": 67,
                    "time": 429.04589199998975,
                    "velocity": 0.49606299212598426,
                    "duration": 0.13831266666664987
                },
                {
                    "name": "F#4",
                    "midi": 66,
                    "time": 429.1842046666564,
                    "velocity": 0.44881889763779526,
                    "duration": 0.13831266666664987
                },
                {
                    "name": "E4",
                    "midi": 64,
                    "time": 429.32251733332305,
                    "velocity": 0.44881889763779526,
                    "duration": 0.13831266666664987
                },
                {
                    "name": "A#4",
                    "midi": 70,
                    "time": 429.4608299999897,
                    "velocity": 0.49606299212598426,
                    "duration": 0.13831266666664987
                },
                {
                    "name": "A4",
                    "midi": 69,
                    "time": 429.59914266665635,
                    "velocity": 0.4566929133858268,
                    "duration": 0.13831266666664987
                },
                {
                    "name": "G4",
                    "midi": 67,
                    "time": 429.737455333323,
                    "velocity": 0.4566929133858268,
                    "duration": 0.13831266666664987
                },
                {
                    "name": "A4",
                    "midi": 69,
                    "time": 429.87576799998965,
                    "velocity": 0.49606299212598426,
                    "duration": 0.20746900000000323
                },
                {
                    "name": "F#5",
                    "midi": 78,
                    "time": 430.29070599998965,
                    "velocity": 0.4409448818897638,
                    "duration": 0.13831266666664987
                },
                {
                    "name": "E5",
                    "midi": 76,
                    "time": 430.4290186666563,
                    "velocity": 0.36220472440944884,
                    "duration": 0.13831266666664987
                },
                {
                    "name": "D5",
                    "midi": 74,
                    "time": 430.56733133332295,
                    "velocity": 0.36220472440944884,
                    "duration": 0.13831266666664987
                },
                {
                    "name": "A5",
                    "midi": 81,
                    "time": 430.7056439999896,
                    "velocity": 0.44881889763779526,
                    "duration": 0.13831266666664987
                },
                {
                    "name": "G5",
                    "midi": 79,
                    "time": 430.84395666665625,
                    "velocity": 0.3700787401574803,
                    "duration": 0.13831266666664987
                },
                {
                    "name": "F#5",
                    "midi": 78,
                    "time": 430.9822693333229,
                    "velocity": 0.3700787401574803,
                    "duration": 0.13831266666664987
                },
                {
                    "name": "E5",
                    "midi": 76,
                    "time": 431.12058199998955,
                    "velocity": 0.4566929133858268,
                    "duration": 0.13831266666664987
                },
                {
                    "name": "D5",
                    "midi": 74,
                    "time": 431.2588946666562,
                    "velocity": 0.3937007874015748,
                    "duration": 0.13831266666664987
                },
                {
                    "name": "C#5",
                    "midi": 73,
                    "time": 431.39720733332285,
                    "velocity": 0.3937007874015748,
                    "duration": 0.13831266666664987
                },
                {
                    "name": "D6",
                    "midi": 86,
                    "time": 431.5355199999895,
                    "velocity": 0.8267716535433071,
                    "duration": 0.8298760000000129
                },
                {
                    "name": "A5",
                    "midi": 81,
                    "time": 431.5355199999895,
                    "velocity": 0.7007874015748031,
                    "duration": 0.8298760000000129
                },
                {
                    "name": "F#5",
                    "midi": 78,
                    "time": 431.5355199999895,
                    "velocity": 0.7007874015748031,
                    "duration": 0.8298760000000129
                },
                {
                    "name": "D5",
                    "midi": 74,
                    "time": 431.5355199999895,
                    "velocity": 0.7007874015748031,
                    "duration": 0.8298760000000129
                },
                {
                    "name": "A3",
                    "midi": 57,
                    "time": 432.3653959999895,
                    "velocity": 0.4251968503937008,
                    "duration": 0.1037344999999732
                },
                {
                    "name": "D4",
                    "midi": 62,
                    "time": 432.3653959999895,
                    "velocity": 0.49606299212598426,
                    "duration": 0.1037344999999732
                },
                {
                    "name": "A3",
                    "midi": 57,
                    "time": 432.57286499998946,
                    "velocity": 0.3858267716535433,
                    "duration": 0.1037344999999732
                },
                {
                    "name": "D4",
                    "midi": 62,
                    "time": 432.57286499998946,
                    "velocity": 0.4645669291338583,
                    "duration": 0.1037344999999732
                },
                {
                    "name": "A3",
                    "midi": 57,
                    "time": 432.7803339999894,
                    "velocity": 0.4251968503937008,
                    "duration": 0.1037344999999732
                },
                {
                    "name": "D4",
                    "midi": 62,
                    "time": 432.7803339999894,
                    "velocity": 0.49606299212598426,
                    "duration": 0.1037344999999732
                },
                {
                    "name": "A3",
                    "midi": 57,
                    "time": 432.98780299998936,
                    "velocity": 0.3858267716535433,
                    "duration": 0.1037344999999732
                },
                {
                    "name": "D4",
                    "midi": 62,
                    "time": 432.98780299998936,
                    "velocity": 0.4566929133858268,
                    "duration": 0.1037344999999732
                },
                {
                    "name": "A3",
                    "midi": 57,
                    "time": 433.1952719999893,
                    "velocity": 0.47244094488188976,
                    "duration": 0.41493800000000647
                },
                {
                    "name": "D4",
                    "midi": 62,
                    "time": 433.1952719999893,
                    "velocity": 0.5511811023622047,
                    "duration": 0.6224070000000097
                },
                {
                    "name": "B3",
                    "midi": 59,
                    "time": 433.6102099999893,
                    "velocity": 0.4015748031496063,
                    "duration": 0.20746900000000323
                },
                {
                    "name": "E4",
                    "midi": 64,
                    "time": 433.6102099999893,
                    "velocity": 0.48031496062992124,
                    "duration": 0.20746900000000323
                },
                {
                    "name": "A3",
                    "midi": 57,
                    "time": 434.0251479999893,
                    "velocity": 0.48031496062992124,
                    "duration": 0.13831266666664987
                },
                {
                    "name": "B3",
                    "midi": 59,
                    "time": 434.16346066665596,
                    "velocity": 0.4330708661417323,
                    "duration": 0.13831266666664987
                },
                {
                    "name": "C4",
                    "midi": 60,
                    "time": 434.3017733333226,
                    "velocity": 0.4330708661417323,
                    "duration": 0.13831266666664987
                },
                {
                    "name": "D4",
                    "midi": 62,
                    "time": 434.44008599998926,
                    "velocity": 0.48031496062992124,
                    "duration": 0.13831266666664987
                },
                {
                    "name": "E4",
                    "midi": 64,
                    "time": 434.5783986666559,
                    "velocity": 0.4409448818897638,
                    "duration": 0.13831266666664987
                },
                {
                    "name": "F#4",
                    "midi": 66,
                    "time": 434.71671133332256,
                    "velocity": 0.4409448818897638,
                    "duration": 0.13831266666664987
                },
                {
                    "name": "A#3",
                    "midi": 58,
                    "time": 434.8550239999892,
                    "velocity": 0.48031496062992124,
                    "duration": 0.20746900000000323
                },
                {
                    "name": "F#4",
                    "midi": 66,
                    "time": 435.0624929999892,
                    "velocity": 0.4094488188976378,
                    "duration": 0.20746900000000323
                },
                {
                    "name": "B3",
                    "midi": 59,
                    "time": 435.2699619999892,
                    "velocity": 0.48031496062992124,
                    "duration": 0.20746900000000323
                },
                {
                    "name": "G4",
                    "midi": 67,
                    "time": 435.4774309999892,
                    "velocity": 0.4330708661417323,
                    "duration": 0.20746900000000323
                },
                {
                    "name": "E4",
                    "midi": 64,
                    "time": 435.6848999999892,
                    "velocity": 0.4251968503937008,
                    "duration": 0.1037344999999732
                },
                {
                    "name": "G4",
                    "midi": 67,
                    "time": 435.6848999999892,
                    "velocity": 0.4251968503937008,
                    "duration": 0.1037344999999732
                },
                {
                    "name": "A4",
                    "midi": 69,
                    "time": 435.6848999999892,
                    "velocity": 0.49606299212598426,
                    "duration": 0.1037344999999732
                },
                {
                    "name": "E4",
                    "midi": 64,
                    "time": 435.8923689999892,
                    "velocity": 0.3858267716535433,
                    "duration": 0.1037344999999732
                },
                {
                    "name": "G4",
                    "midi": 67,
                    "time": 435.8923689999892,
                    "velocity": 0.3858267716535433,
                    "duration": 0.1037344999999732
                },
                {
                    "name": "A4",
                    "midi": 69,
                    "time": 435.8923689999892,
                    "velocity": 0.4645669291338583,
                    "duration": 0.1037344999999732
                },
                {
                    "name": "E4",
                    "midi": 64,
                    "time": 436.0998379999891,
                    "velocity": 0.4251968503937008,
                    "duration": 0.1037344999999732
                },
                {
                    "name": "G4",
                    "midi": 67,
                    "time": 436.0998379999891,
                    "velocity": 0.4251968503937008,
                    "duration": 0.1037344999999732
                },
                {
                    "name": "A4",
                    "midi": 69,
                    "time": 436.0998379999891,
                    "velocity": 0.49606299212598426,
                    "duration": 0.1037344999999732
                },
                {
                    "name": "E4",
                    "midi": 64,
                    "time": 436.30730699998907,
                    "velocity": 0.3858267716535433,
                    "duration": 0.1037344999999732
                },
                {
                    "name": "G4",
                    "midi": 67,
                    "time": 436.30730699998907,
                    "velocity": 0.3858267716535433,
                    "duration": 0.1037344999999732
                },
                {
                    "name": "A4",
                    "midi": 69,
                    "time": 436.30730699998907,
                    "velocity": 0.4566929133858268,
                    "duration": 0.1037344999999732
                },
                {
                    "name": "G4",
                    "midi": 67,
                    "time": 436.514775999989,
                    "velocity": 0.47244094488188976,
                    "duration": 0.6224070000000097
                },
                {
                    "name": "E4",
                    "midi": 64,
                    "time": 436.514775999989,
                    "velocity": 0.47244094488188976,
                    "duration": 0.41493800000000647
                },
                {
                    "name": "A4",
                    "midi": 69,
                    "time": 436.514775999989,
                    "velocity": 0.5511811023622047,
                    "duration": 0.41493800000000647
                },
                {
                    "name": "D4",
                    "midi": 62,
                    "time": 436.929713999989,
                    "velocity": 0.4015748031496063,
                    "duration": 0.20746900000000323
                },
                {
                    "name": "B4",
                    "midi": 71,
                    "time": 436.929713999989,
                    "velocity": 0.48031496062992124,
                    "duration": 0.20746900000000323
                },
                {
                    "name": "D4",
                    "midi": 62,
                    "time": 437.344651999989,
                    "velocity": 0.48031496062992124,
                    "duration": 0.13831266666664987
                },
                {
                    "name": "E4",
                    "midi": 64,
                    "time": 437.4829646666557,
                    "velocity": 0.4330708661417323,
                    "duration": 0.13831266666664987
                },
                {
                    "name": "F#4",
                    "midi": 66,
                    "time": 437.6212773333223,
                    "velocity": 0.4330708661417323,
                    "duration": 0.13831266666664987
                },
                {
                    "name": "G4",
                    "midi": 67,
                    "time": 437.759589999989,
                    "velocity": 0.48031496062992124,
                    "duration": 0.13831266666664987
                },
                {
                    "name": "A4",
                    "midi": 69,
                    "time": 437.8979026666556,
                    "velocity": 0.4409448818897638,
                    "duration": 0.13831266666664987
                },
                {
                    "name": "B4",
                    "midi": 71,
                    "time": 438.0362153333223,
                    "velocity": 0.4409448818897638,
                    "duration": 0.13831266666664987
                },
                {
                    "name": "D#4",
                    "midi": 63,
                    "time": 438.1745279999889,
                    "velocity": 0.48031496062992124,
                    "duration": 0.20746900000000323
                },
                {
                    "name": "B4",
                    "midi": 71,
                    "time": 438.3819969999889,
                    "velocity": 0.4094488188976378,
                    "duration": 0.20746900000000323
                },
                {
                    "name": "E4",
                    "midi": 64,
                    "time": 438.58946599998893,
                    "velocity": 0.48031496062992124,
                    "duration": 0.20746900000000323
                },
                {
                    "name": "C5",
                    "midi": 72,
                    "time": 438.79693499998893,
                    "velocity": 0.4330708661417323,
                    "duration": 0.20746900000000323
                },
                {
                    "name": "G4",
                    "midi": 67,
                    "time": 439.00440399998894,
                    "velocity": 0.4251968503937008,
                    "duration": 0.1037344999999732
                },
                {
                    "name": "A#4",
                    "midi": 70,
                    "time": 439.00440399998894,
                    "velocity": 0.4251968503937008,
                    "duration": 0.1037344999999732
                },
                {
                    "name": "C#5",
                    "midi": 73,
                    "time": 439.00440399998894,
                    "velocity": 0.49606299212598426,
                    "duration": 0.1037344999999732
                },
                {
                    "name": "G4",
                    "midi": 67,
                    "time": 439.2118729999889,
                    "velocity": 0.3858267716535433,
                    "duration": 0.1037344999999732
                },
                {
                    "name": "A#4",
                    "midi": 70,
                    "time": 439.2118729999889,
                    "velocity": 0.3858267716535433,
                    "duration": 0.1037344999999732
                },
                {
                    "name": "C#5",
                    "midi": 73,
                    "time": 439.2118729999889,
                    "velocity": 0.4645669291338583,
                    "duration": 0.1037344999999732
                },
                {
                    "name": "G4",
                    "midi": 67,
                    "time": 439.41934199998883,
                    "velocity": 0.4251968503937008,
                    "duration": 0.1037344999999732
                },
                {
                    "name": "A#4",
                    "midi": 70,
                    "time": 439.41934199998883,
                    "velocity": 0.4251968503937008,
                    "duration": 0.1037344999999732
                },
                {
                    "name": "C#5",
                    "midi": 73,
                    "time": 439.41934199998883,
                    "velocity": 0.49606299212598426,
                    "duration": 0.1037344999999732
                },
                {
                    "name": "G4",
                    "midi": 67,
                    "time": 439.6268109999888,
                    "velocity": 0.3858267716535433,
                    "duration": 0.1037344999999732
                },
                {
                    "name": "A#4",
                    "midi": 70,
                    "time": 439.6268109999888,
                    "velocity": 0.3858267716535433,
                    "duration": 0.1037344999999732
                },
                {
                    "name": "C#5",
                    "midi": 73,
                    "time": 439.6268109999888,
                    "velocity": 0.4566929133858268,
                    "duration": 0.1037344999999732
                },
                {
                    "name": "A#4",
                    "midi": 70,
                    "time": 439.8342799999887,
                    "velocity": 0.47244094488188976,
                    "duration": 0.6224070000000097
                },
                {
                    "name": "G4",
                    "midi": 67,
                    "time": 439.8342799999887,
                    "velocity": 0.47244094488188976,
                    "duration": 0.41493800000000647
                },
                {
                    "name": "C#5",
                    "midi": 73,
                    "time": 439.8342799999887,
                    "velocity": 0.5511811023622047,
                    "duration": 0.41493800000000647
                },
                {
                    "name": "F4",
                    "midi": 65,
                    "time": 440.24921799998873,
                    "velocity": 0.4015748031496063,
                    "duration": 0.20746900000000323
                },
                {
                    "name": "D5",
                    "midi": 74,
                    "time": 440.24921799998873,
                    "velocity": 0.48031496062992124,
                    "duration": 0.20746900000000323
                },
                {
                    "name": "F4",
                    "midi": 65,
                    "time": 440.66415599998874,
                    "velocity": 0.48031496062992124,
                    "duration": 0.13831266666664987
                },
                {
                    "name": "G4",
                    "midi": 67,
                    "time": 440.8024686666554,
                    "velocity": 0.4330708661417323,
                    "duration": 0.13831266666664987
                },
                {
                    "name": "A4",
                    "midi": 69,
                    "time": 440.94078133332204,
                    "velocity": 0.4330708661417323,
                    "duration": 0.13831266666664987
                },
                {
                    "name": "B4",
                    "midi": 71,
                    "time": 441.0790939999887,
                    "velocity": 0.48031496062992124,
                    "duration": 0.13831266666664987
                },
                {
                    "name": "C5",
                    "midi": 72,
                    "time": 441.21740666665534,
                    "velocity": 0.4409448818897638,
                    "duration": 0.13831266666664987
                },
                {
                    "name": "D5",
                    "midi": 74,
                    "time": 441.355719333322,
                    "velocity": 0.4409448818897638,
                    "duration": 0.13831266666664987
                },
                {
                    "name": "D#5",
                    "midi": 75,
                    "time": 441.49403199998864,
                    "velocity": 0.48031496062992124,
                    "duration": 0.20746900000000323
                },
                {
                    "name": "G4",
                    "midi": 67,
                    "time": 441.70150099998864,
                    "velocity": 0.3937007874015748,
                    "duration": 0.20746900000000323
                },
                {
                    "name": "D5",
                    "midi": 74,
                    "time": 441.90896999998864,
                    "velocity": 0.48031496062992124,
                    "duration": 0.20746900000000323
                },
                {
                    "name": "F4",
                    "midi": 65,
                    "time": 442.11643899998865,
                    "velocity": 0.4015748031496063,
                    "duration": 0.20746900000000323
                },
                {
                    "name": "E4",
                    "midi": 64,
                    "time": 442.32390799998865,
                    "velocity": 0.3543307086614173,
                    "duration": 0.1037344999999732
                },
                {
                    "name": "G4",
                    "midi": 67,
                    "time": 442.32390799998865,
                    "velocity": 0.3543307086614173,
                    "duration": 0.1037344999999732
                },
                {
                    "name": "A#4",
                    "midi": 70,
                    "time": 442.32390799998865,
                    "velocity": 0.3543307086614173,
                    "duration": 0.1037344999999732
                },
                {
                    "name": "C#5",
                    "midi": 73,
                    "time": 442.32390799998865,
                    "velocity": 0.41732283464566927,
                    "duration": 0.1037344999999732
                },
                {
                    "name": "E4",
                    "midi": 64,
                    "time": 442.5313769999886,
                    "velocity": 0.3228346456692913,
                    "duration": 0.1037344999999732
                },
                {
                    "name": "G4",
                    "midi": 67,
                    "time": 442.5313769999886,
                    "velocity": 0.3228346456692913,
                    "duration": 0.1037344999999732
                },
                {
                    "name": "A#4",
                    "midi": 70,
                    "time": 442.5313769999886,
                    "velocity": 0.3228346456692913,
                    "duration": 0.1037344999999732
                },
                {
                    "name": "C#5",
                    "midi": 73,
                    "time": 442.5313769999886,
                    "velocity": 0.3937007874015748,
                    "duration": 0.1037344999999732
                },
                {
                    "name": "E4",
                    "midi": 64,
                    "time": 442.73884599998854,
                    "velocity": 0.3543307086614173,
                    "duration": 0.1037344999999732
                },
                {
                    "name": "G4",
                    "midi": 67,
                    "time": 442.73884599998854,
                    "velocity": 0.3543307086614173,
                    "duration": 0.1037344999999732
                },
                {
                    "name": "A#4",
                    "midi": 70,
                    "time": 442.73884599998854,
                    "velocity": 0.3543307086614173,
                    "duration": 0.1037344999999732
                },
                {
                    "name": "C#5",
                    "midi": 73,
                    "time": 442.73884599998854,
                    "velocity": 0.41732283464566927,
                    "duration": 0.1037344999999732
                },
                {
                    "name": "E4",
                    "midi": 64,
                    "time": 442.9463149999885,
                    "velocity": 0.3228346456692913,
                    "duration": 0.1037344999999732
                },
                {
                    "name": "G4",
                    "midi": 67,
                    "time": 442.9463149999885,
                    "velocity": 0.3228346456692913,
                    "duration": 0.1037344999999732
                },
                {
                    "name": "A#4",
                    "midi": 70,
                    "time": 442.9463149999885,
                    "velocity": 0.3228346456692913,
                    "duration": 0.1037344999999732
                },
                {
                    "name": "C#5",
                    "midi": 73,
                    "time": 442.9463149999885,
                    "velocity": 0.3858267716535433,
                    "duration": 0.1037344999999732
                },
                {
                    "name": "E4",
                    "midi": 64,
                    "time": 443.15378399998843,
                    "velocity": 0.4015748031496063,
                    "duration": 0.41493800000000647
                },
                {
                    "name": "A#4",
                    "midi": 70,
                    "time": 443.15378399998843,
                    "velocity": 0.4015748031496063,
                    "duration": 0.6224070000000097
                },
                {
                    "name": "G4",
                    "midi": 67,
                    "time": 443.15378399998843,
                    "velocity": 0.4015748031496063,
                    "duration": 0.41493800000000647
                },
                {
                    "name": "C#5",
                    "midi": 73,
                    "time": 443.15378399998843,
                    "velocity": 0.4645669291338583,
                    "duration": 0.41493800000000647
                },
                {
                    "name": "F4",
                    "midi": 65,
                    "time": 443.56872199998844,
                    "velocity": 0.33858267716535434,
                    "duration": 0.20746900000000323
                },
                {
                    "name": "D5",
                    "midi": 74,
                    "time": 443.56872199998844,
                    "velocity": 0.4015748031496063,
                    "duration": 0.20746900000000323
                },
                {
                    "name": "F4",
                    "midi": 65,
                    "time": 443.98365999998845,
                    "velocity": 0.4015748031496063,
                    "duration": 0.13831266666664987
                },
                {
                    "name": "G4",
                    "midi": 67,
                    "time": 444.1219726666551,
                    "velocity": 0.36220472440944884,
                    "duration": 0.13831266666664987
                },
                {
                    "name": "A4",
                    "midi": 69,
                    "time": 444.26028533332175,
                    "velocity": 0.36220472440944884,
                    "duration": 0.13831266666664987
                },
                {
                    "name": "A#4",
                    "midi": 70,
                    "time": 444.3985979999884,
                    "velocity": 0.4015748031496063,
                    "duration": 0.13831266666664987
                },
                {
                    "name": "C5",
                    "midi": 72,
                    "time": 444.53691066665505,
                    "velocity": 0.3700787401574803,
                    "duration": 0.13831266666664987
                },
                {
                    "name": "D5",
                    "midi": 74,
                    "time": 444.6752233333217,
                    "velocity": 0.3700787401574803,
                    "duration": 0.13831266666664987
                },
                {
                    "name": "G5",
                    "midi": 79,
                    "time": 444.81353599998835,
                    "velocity": 0.4015748031496063,
                    "duration": 0.20746900000000323
                },
                {
                    "name": "D#5",
                    "midi": 75,
                    "time": 444.81353599998835,
                    "velocity": 0.33858267716535434,
                    "duration": 0.20746900000000323
                },
                {
                    "name": "G4",
                    "midi": 67,
                    "time": 445.02100499998835,
                    "velocity": 0.3464566929133858,
                    "duration": 0.20746900000000323
                },
                {
                    "name": "F5",
                    "midi": 77,
                    "time": 445.22847399998835,
                    "velocity": 0.4015748031496063,
                    "duration": 0.20746900000000323
                },
                {
                    "name": "D5",
                    "midi": 74,
                    "time": 445.22847399998835,
                    "velocity": 0.33858267716535434,
                    "duration": 0.20746900000000323
                },
                {
                    "name": "F4",
                    "midi": 65,
                    "time": 445.43594299998836,
                    "velocity": 0.36220472440944884,
                    "duration": 0.20746900000000323
                },
                {
                    "name": "E4",
                    "midi": 64,
                    "time": 445.64341199998836,
                    "velocity": 0.31496062992125984,
                    "duration": 0.1037344999999732
                },
                {
                    "name": "G4",
                    "midi": 67,
                    "time": 445.64341199998836,
                    "velocity": 0.31496062992125984,
                    "duration": 0.1037344999999732
                },
                {
                    "name": "A#4",
                    "midi": 70,
                    "time": 445.64341199998836,
                    "velocity": 0.31496062992125984,
                    "duration": 0.1037344999999732
                },
                {
                    "name": "C#5",
                    "midi": 73,
                    "time": 445.64341199998836,
                    "velocity": 0.41732283464566927,
                    "duration": 0.1037344999999732
                },
                {
                    "name": "E4",
                    "midi": 64,
                    "time": 445.8508809999883,
                    "velocity": 0.29133858267716534,
                    "duration": 0.1037344999999732
                },
                {
                    "name": "G4",
                    "midi": 67,
                    "time": 445.8508809999883,
                    "velocity": 0.29133858267716534,
                    "duration": 0.1037344999999732
                },
                {
                    "name": "A#4",
                    "midi": 70,
                    "time": 445.8508809999883,
                    "velocity": 0.29133858267716534,
                    "duration": 0.1037344999999732
                },
                {
                    "name": "C#5",
                    "midi": 73,
                    "time": 445.8508809999883,
                    "velocity": 0.3937007874015748,
                    "duration": 0.1037344999999732
                },
                {
                    "name": "E4",
                    "midi": 64,
                    "time": 446.05834999998825,
                    "velocity": 0.31496062992125984,
                    "duration": 0.1037344999999732
                },
                {
                    "name": "G4",
                    "midi": 67,
                    "time": 446.05834999998825,
                    "velocity": 0.31496062992125984,
                    "duration": 0.1037344999999732
                },
                {
                    "name": "A#4",
                    "midi": 70,
                    "time": 446.05834999998825,
                    "velocity": 0.31496062992125984,
                    "duration": 0.1037344999999732
                },
                {
                    "name": "C#5",
                    "midi": 73,
                    "time": 446.05834999998825,
                    "velocity": 0.41732283464566927,
                    "duration": 0.1037344999999732
                },
                {
                    "name": "E4",
                    "midi": 64,
                    "time": 446.2658189999882,
                    "velocity": 0.29133858267716534,
                    "duration": 0.1037344999999732
                },
                {
                    "name": "G4",
                    "midi": 67,
                    "time": 446.2658189999882,
                    "velocity": 0.29133858267716534,
                    "duration": 0.1037344999999732
                },
                {
                    "name": "A#4",
                    "midi": 70,
                    "time": 446.2658189999882,
                    "velocity": 0.29133858267716534,
                    "duration": 0.1037344999999732
                },
                {
                    "name": "C#5",
                    "midi": 73,
                    "time": 446.2658189999882,
                    "velocity": 0.3858267716535433,
                    "duration": 0.1037344999999732
                },
                {
                    "name": "E4",
                    "midi": 64,
                    "time": 446.47328799998814,
                    "velocity": 0.4015748031496063,
                    "duration": 0.41493800000000647
                },
                {
                    "name": "A#4",
                    "midi": 70,
                    "time": 446.47328799998814,
                    "velocity": 0.4015748031496063,
                    "duration": 0.6224070000000097
                },
                {
                    "name": "G4",
                    "midi": 67,
                    "time": 446.47328799998814,
                    "velocity": 0.4015748031496063,
                    "duration": 0.41493800000000647
                },
                {
                    "name": "C#5",
                    "midi": 73,
                    "time": 446.47328799998814,
                    "velocity": 0.4645669291338583,
                    "duration": 0.41493800000000647
                },
                {
                    "name": "F4",
                    "midi": 65,
                    "time": 446.88822599998815,
                    "velocity": 0.33858267716535434,
                    "duration": 0.20746900000000323
                },
                {
                    "name": "D5",
                    "midi": 74,
                    "time": 446.88822599998815,
                    "velocity": 0.4015748031496063,
                    "duration": 0.20746900000000323
                },
                {
                    "name": "F4",
                    "midi": 65,
                    "time": 447.30316399998816,
                    "velocity": 0.3858267716535433,
                    "duration": 0.13831266666664987
                },
                {
                    "name": "G4",
                    "midi": 67,
                    "time": 447.4414766666548,
                    "velocity": 0.3937007874015748,
                    "duration": 0.13831266666664987
                },
                {
                    "name": "A4",
                    "midi": 69,
                    "time": 447.57978933332146,
                    "velocity": 0.4094488188976378,
                    "duration": 0.13831266666664987
                },
                {
                    "name": "A#4",
                    "midi": 70,
                    "time": 447.7181019999881,
                    "velocity": 0.41732283464566927,
                    "duration": 0.13831266666664987
                },
                {
                    "name": "C5",
                    "midi": 72,
                    "time": 447.85641466665476,
                    "velocity": 0.4330708661417323,
                    "duration": 0.13831266666664987
                },
                {
                    "name": "D5",
                    "midi": 74,
                    "time": 447.9947273333214,
                    "velocity": 0.4409448818897638,
                    "duration": 0.13831266666664987
                },
                {
                    "name": "D#5",
                    "midi": 75,
                    "time": 448.13303999998806,
                    "velocity": 0.48031496062992124,
                    "duration": 0.13831266666664987
                },
                {
                    "name": "F5",
                    "midi": 77,
                    "time": 448.2713526666547,
                    "velocity": 0.4094488188976378,
                    "duration": 0.13831266666664987
                },
                {
                    "name": "G5",
                    "midi": 79,
                    "time": 448.40966533332136,
                    "velocity": 0.4094488188976378,
                    "duration": 0.13831266666664987
                },
                {
                    "name": "F5",
                    "midi": 77,
                    "time": 448.547977999988,
                    "velocity": 0.48031496062992124,
                    "duration": 0.13831266666664987
                },
                {
                    "name": "D#5",
                    "midi": 75,
                    "time": 448.68629066665466,
                    "velocity": 0.41732283464566927,
                    "duration": 0.13831266666664987
                },
                {
                    "name": "D5",
                    "midi": 74,
                    "time": 448.8246033333213,
                    "velocity": 0.41732283464566927,
                    "duration": 0.13831266666664987
                },
                {
                    "name": "C#5",
                    "midi": 73,
                    "time": 448.96291599998796,
                    "velocity": 0.44881889763779526,
                    "duration": 0.13831266666664987
                },
                {
                    "name": "A#4",
                    "midi": 70,
                    "time": 449.1012286666546,
                    "velocity": 0.3700787401574803,
                    "duration": 0.13831266666664987
                },
                {
                    "name": "G4",
                    "midi": 67,
                    "time": 449.23954133332126,
                    "velocity": 0.3700787401574803,
                    "duration": 0.13831266666664987
                },
                {
                    "name": "E4",
                    "midi": 64,
                    "time": 449.3778539999879,
                    "velocity": 0.3858267716535433,
                    "duration": 0.13831266666664987
                },
                {
                    "name": "C#4",
                    "midi": 61,
                    "time": 449.51616666665456,
                    "velocity": 0.3700787401574803,
                    "duration": 0.13831266666664987
                },
                {
                    "name": "E4",
                    "midi": 64,
                    "time": 449.6544793333212,
                    "velocity": 0.3779527559055118,
                    "duration": 0.13831266666664987
                },
                {
                    "name": "F4",
                    "midi": 65,
                    "time": 449.79279199998786,
                    "velocity": 0.3937007874015748,
                    "duration": 0.13831266666664987
                },
                {
                    "name": "D4",
                    "midi": 62,
                    "time": 449.9311046666545,
                    "velocity": 0.3543307086614173,
                    "duration": 0.13831266666664987
                },
                {
                    "name": "F4",
                    "midi": 65,
                    "time": 450.06941733332116,
                    "velocity": 0.3543307086614173,
                    "duration": 0.13831266666664987
                },
                {
                    "name": "D4",
                    "midi": 62,
                    "time": 450.2077299999878,
                    "velocity": 0.3937007874015748,
                    "duration": 0.13831266666664987
                },
                {
                    "name": "A#3",
                    "midi": 58,
                    "time": 450.34604266665445,
                    "velocity": 0.3543307086614173,
                    "duration": 0.13831266666664987
                },
                {
                    "name": "D4",
                    "midi": 62,
                    "time": 450.4843553333211,
                    "velocity": 0.3543307086614173,
                    "duration": 0.13831266666664987
                },
                {
                    "name": "F4",
                    "midi": 65,
                    "time": 450.62266799998775,
                    "velocity": 0.3543307086614173,
                    "duration": 0.13831266666664987
                },
                {
                    "name": "G4",
                    "midi": 67,
                    "time": 450.7609806666544,
                    "velocity": 0.3700787401574803,
                    "duration": 0.13831266666664987
                },
                {
                    "name": "A4",
                    "midi": 69,
                    "time": 450.89929333332105,
                    "velocity": 0.3858267716535433,
                    "duration": 0.13831266666664987
                },
                {
                    "name": "A#4",
                    "midi": 70,
                    "time": 451.0376059999877,
                    "velocity": 0.4015748031496063,
                    "duration": 0.13831266666664987
                },
                {
                    "name": "C5",
                    "midi": 72,
                    "time": 451.17591866665435,
                    "velocity": 0.41732283464566927,
                    "duration": 0.13831266666664987
                },
                {
                    "name": "D5",
                    "midi": 74,
                    "time": 451.314231333321,
                    "velocity": 0.4330708661417323,
                    "duration": 0.13831266666664987
                },
                {
                    "name": "D#5",
                    "midi": 75,
                    "time": 451.45254399998765,
                    "velocity": 0.44881889763779526,
                    "duration": 0.13831266666664987
                },
                {
                    "name": "F5",
                    "midi": 77,
                    "time": 451.5908566666543,
                    "velocity": 0.4645669291338583,
                    "duration": 0.13831266666664987
                },
                {
                    "name": "G5",
                    "midi": 79,
                    "time": 451.72916933332095,
                    "velocity": 0.48031496062992124,
                    "duration": 0.13831266666664987
                },
                {
                    "name": "F5",
                    "midi": 77,
                    "time": 451.8674819999876,
                    "velocity": 0.49606299212598426,
                    "duration": 0.13831266666664987
                },
                {
                    "name": "D#5",
                    "midi": 75,
                    "time": 452.00579466665425,
                    "velocity": 0.4566929133858268,
                    "duration": 0.13831266666664987
                },
                {
                    "name": "D5",
                    "midi": 74,
                    "time": 452.1441073333209,
                    "velocity": 0.48031496062992124,
                    "duration": 0.13831266666664987
                },
                {
                    "name": "C#5",
                    "midi": 73,
                    "time": 452.28241999998755,
                    "velocity": 0.44881889763779526,
                    "duration": 0.13831266666664987
                },
                {
                    "name": "A#4",
                    "midi": 70,
                    "time": 452.4207326666542,
                    "velocity": 0.4330708661417323,
                    "duration": 0.13831266666664987
                },
                {
                    "name": "G4",
                    "midi": 67,
                    "time": 452.55904533332085,
                    "velocity": 0.41732283464566927,
                    "duration": 0.13831266666664987
                },
                {
                    "name": "E4",
                    "midi": 64,
                    "time": 452.6973579999875,
                    "velocity": 0.4015748031496063,
                    "duration": 0.13831266666664987
                },
                {
                    "name": "C#4",
                    "midi": 61,
                    "time": 452.83567066665415,
                    "velocity": 0.3700787401574803,
                    "duration": 0.13831266666664987
                },
                {
                    "name": "E4",
                    "midi": 64,
                    "time": 452.9739833333208,
                    "velocity": 0.33858267716535434,
                    "duration": 0.13831266666664987
                },
                {
                    "name": "G4",
                    "midi": 67,
                    "time": 453.11229599998745,
                    "velocity": 0.4645669291338583,
                    "duration": 0.13831266666664987
                },
                {
                    "name": "E4",
                    "midi": 64,
                    "time": 453.2506086666541,
                    "velocity": 0.33858267716535434,
                    "duration": 0.13831266666664987
                },
                {
                    "name": "G4",
                    "midi": 67,
                    "time": 453.38892133332075,
                    "velocity": 0.33858267716535434,
                    "duration": 0.13831266666664987
                },
                {
                    "name": "E4",
                    "midi": 64,
                    "time": 453.5272339999874,
                    "velocity": 0.3464566929133858,
                    "duration": 0.13831266666664987
                },
                {
                    "name": "C#4",
                    "midi": 61,
                    "time": 453.66554666665405,
                    "velocity": 0.3543307086614173,
                    "duration": 0.13831266666664987
                },
                {
                    "name": "E4",
                    "midi": 64,
                    "time": 453.8038593333207,
                    "velocity": 0.3543307086614173,
                    "duration": 0.13831266666664987
                },
                {
                    "name": "G#4",
                    "midi": 68,
                    "time": 453.94217199998735,
                    "velocity": 0.4881889763779528,
                    "duration": 0.13831266666664987
                },
                {
                    "name": "E4",
                    "midi": 64,
                    "time": 454.080484666654,
                    "velocity": 0.36220472440944884,
                    "duration": 0.13831266666664987
                },
                {
                    "name": "G#4",
                    "midi": 68,
                    "time": 454.21879733332065,
                    "velocity": 0.3700787401574803,
                    "duration": 0.13831266666664987
                },
                {
                    "name": "E4",
                    "midi": 64,
                    "time": 454.3571099999873,
                    "velocity": 0.3700787401574803,
                    "duration": 0.13831266666664987
                },
                {
                    "name": "C#4",
                    "midi": 61,
                    "time": 454.49542266665395,
                    "velocity": 0.3779527559055118,
                    "duration": 0.13831266666664987
                },
                {
                    "name": "E4",
                    "midi": 64,
                    "time": 454.6337353333206,
                    "velocity": 0.3779527559055118,
                    "duration": 0.13831266666664987
                },
                {
                    "name": "A4",
                    "midi": 69,
                    "time": 454.77204799998725,
                    "velocity": 0.5118110236220472,
                    "duration": 0.13831266666664987
                },
                {
                    "name": "E4",
                    "midi": 64,
                    "time": 454.9103606666539,
                    "velocity": 0.3858267716535433,
                    "duration": 0.13831266666664987
                },
                {
                    "name": "A4",
                    "midi": 69,
                    "time": 455.04867333332055,
                    "velocity": 0.3937007874015748,
                    "duration": 0.13831266666664987
                },
                {
                    "name": "E4",
                    "midi": 64,
                    "time": 455.1869859999872,
                    "velocity": 0.3937007874015748,
                    "duration": 0.13831266666664987
                },
                {
                    "name": "C#4",
                    "midi": 61,
                    "time": 455.32529866665385,
                    "velocity": 0.4015748031496063,
                    "duration": 0.13831266666664987
                },
                {
                    "name": "E4",
                    "midi": 64,
                    "time": 455.4636113333205,
                    "velocity": 0.4094488188976378,
                    "duration": 0.13831266666664987
                },
                {
                    "name": "A4",
                    "midi": 69,
                    "time": 455.60192399998715,
                    "velocity": 0.5354330708661418,
                    "duration": 0.13831266666664987
                },
                {
                    "name": "E4",
                    "midi": 64,
                    "time": 455.7402366666538,
                    "velocity": 0.4094488188976378,
                    "duration": 0.13831266666664987
                },
                {
                    "name": "A4",
                    "midi": 69,
                    "time": 455.87854933332045,
                    "velocity": 0.41732283464566927,
                    "duration": 0.13831266666664987
                },
                {
                    "name": "E4",
                    "midi": 64,
                    "time": 456.0168619999871,
                    "velocity": 0.4251968503937008,
                    "duration": 0.13831266666664987
                },
                {
                    "name": "C4",
                    "midi": 60,
                    "time": 456.15517466665375,
                    "velocity": 0.4251968503937008,
                    "duration": 0.13831266666664987
                },
                {
                    "name": "E4",
                    "midi": 64,
                    "time": 456.2934873333204,
                    "velocity": 0.4330708661417323,
                    "duration": 0.13831266666664987
                },
                {
                    "name": "D5",
                    "midi": 74,
                    "time": 456.43179999998705,
                    "velocity": 0.5826771653543307,
                    "duration": 0.13831266666664987
                },
                {
                    "name": "A4",
                    "midi": 69,
                    "time": 456.5701126666537,
                    "velocity": 0.4645669291338583,
                    "duration": 0.13831266666664987
                },
                {
                    "name": "D5",
                    "midi": 74,
                    "time": 456.70842533332035,
                    "velocity": 0.47244094488188976,
                    "duration": 0.13831266666664987
                },
                {
                    "name": "A4",
                    "midi": 69,
                    "time": 456.846737999987,
                    "velocity": 0.48031496062992124,
                    "duration": 0.13831266666664987
                },
                {
                    "name": "D4",
                    "midi": 62,
                    "time": 456.98505066665365,
                    "velocity": 0.4881889763779528,
                    "duration": 0.13831266666664987
                },
                {
                    "name": "A4",
                    "midi": 69,
                    "time": 457.1233633333203,
                    "velocity": 0.49606299212598426,
                    "duration": 0.13831266666664987
                },
                {
                    "name": "G#5",
                    "midi": 80,
                    "time": 457.26167599998695,
                    "velocity": 0.6456692913385826,
                    "duration": 0.13831266666664987
                },
                {
                    "name": "D5",
                    "midi": 74,
                    "time": 457.3999886666536,
                    "velocity": 0.5275590551181102,
                    "duration": 0.13831266666664987
                },
                {
                    "name": "G#5",
                    "midi": 80,
                    "time": 457.53830133332025,
                    "velocity": 0.5433070866141733,
                    "duration": 0.13831266666664987
                },
                {
                    "name": "D5",
                    "midi": 74,
                    "time": 457.6766139999869,
                    "velocity": 0.5511811023622047,
                    "duration": 0.13831266666664987
                },
                {
                    "name": "G#4",
                    "midi": 68,
                    "time": 457.81492666665355,
                    "velocity": 0.5669291338582677,
                    "duration": 0.13831266666664987
                },
                {
                    "name": "D5",
                    "midi": 74,
                    "time": 457.9532393333202,
                    "velocity": 0.5826771653543307,
                    "duration": 0.13831266666664987
                },
                {
                    "name": "A5",
                    "midi": 81,
                    "time": 458.09155199998685,
                    "velocity": 0.8267716535433071,
                    "duration": 0.8298760000000129
                },
                {
                    "name": "E5",
                    "midi": 76,
                    "time": 458.09155199998685,
                    "velocity": 0.7007874015748031,
                    "duration": 0.8298760000000129
                },
                {
                    "name": "C#5",
                    "midi": 73,
                    "time": 458.09155199998685,
                    "velocity": 0.7007874015748031,
                    "duration": 0.8298760000000129
                },
                {
                    "name": "A4",
                    "midi": 69,
                    "time": 458.09155199998685,
                    "velocity": 0.7007874015748031,
                    "duration": 0.8298760000000129
                },
                {
                    "name": "C5",
                    "midi": 72,
                    "time": 458.92142799998686,
                    "velocity": 0.4251968503937008,
                    "duration": 0.15560175000001664
                },
                {
                    "name": "D#5",
                    "midi": 75,
                    "time": 458.92142799998686,
                    "velocity": 0.49606299212598426,
                    "duration": 0.15560175000001664
                },
                {
                    "name": "C5",
                    "midi": 72,
                    "time": 459.12889699998686,
                    "velocity": 0.3858267716535433,
                    "duration": 0.15560175000001664
                },
                {
                    "name": "D#5",
                    "midi": 75,
                    "time": 459.12889699998686,
                    "velocity": 0.4645669291338583,
                    "duration": 0.15560175000001664
                },
                {
                    "name": "C5",
                    "midi": 72,
                    "time": 459.33636599998687,
                    "velocity": 0.4251968503937008,
                    "duration": 0.15560175000001664
                },
                {
                    "name": "D#5",
                    "midi": 75,
                    "time": 459.33636599998687,
                    "velocity": 0.49606299212598426,
                    "duration": 0.15560175000001664
                },
                {
                    "name": "C5",
                    "midi": 72,
                    "time": 459.54383499998687,
                    "velocity": 0.3858267716535433,
                    "duration": 0.15560175000001664
                },
                {
                    "name": "D#5",
                    "midi": 75,
                    "time": 459.54383499998687,
                    "velocity": 0.4566929133858268,
                    "duration": 0.15560175000001664
                },
                {
                    "name": "C#5",
                    "midi": 73,
                    "time": 459.7513039999869,
                    "velocity": 0.47244094488188976,
                    "duration": 0.41493800000000647
                },
                {
                    "name": "E5",
                    "midi": 76,
                    "time": 459.7513039999869,
                    "velocity": 0.5511811023622047,
                    "duration": 0.41493800000000647
                },
                {
                    "name": "C#6",
                    "midi": 85,
                    "time": 460.1662419999869,
                    "velocity": 0.3858267716535433,
                    "duration": 0.20746900000000323
                },
                {
                    "name": "C#3",
                    "midi": 49,
                    "time": 460.3737109999869,
                    "velocity": 0.5039370078740157,
                    "duration": 0.20746900000000323
                },
                {
                    "name": "D3",
                    "midi": 50,
                    "time": 460.5811799999869,
                    "velocity": 0.5196850393700787,
                    "duration": 0.13831266666664987
                },
                {
                    "name": "C#3",
                    "midi": 49,
                    "time": 460.71949266665354,
                    "velocity": 0.4881889763779528,
                    "duration": 0.13831266666664987
                },
                {
                    "name": "B2",
                    "midi": 47,
                    "time": 460.8578053333202,
                    "velocity": 0.5039370078740157,
                    "duration": 0.13831266666664987
                },
                {
                    "name": "F3",
                    "midi": 53,
                    "time": 460.99611799998684,
                    "velocity": 0.5118110236220472,
                    "duration": 0.13831266666664987
                },
                {
                    "name": "E3",
                    "midi": 52,
                    "time": 461.1344306666535,
                    "velocity": 0.47244094488188976,
                    "duration": 0.13831266666664987
                },
                {
                    "name": "D3",
                    "midi": 50,
                    "time": 461.27274333332014,
                    "velocity": 0.3858267716535433,
                    "duration": 0.13831266666664987
                },
                {
                    "name": "C#5",
                    "midi": 73,
                    "time": 461.8259939999868,
                    "velocity": 0.4409448818897638,
                    "duration": 0.31120349999997643
                },
                {
                    "name": "E5",
                    "midi": 76,
                    "time": 461.8259939999868,
                    "velocity": 0.4409448818897638,
                    "duration": 0.31120349999997643
                },
                {
                    "name": "C#5",
                    "midi": 73,
                    "time": 462.13719749998677,
                    "velocity": 0.3858267716535433,
                    "duration": 0.1037344999999732
                },
                {
                    "name": "E5",
                    "midi": 76,
                    "time": 462.13719749998677,
                    "velocity": 0.3858267716535433,
                    "duration": 0.1037344999999732
                },
                {
                    "name": "B4",
                    "midi": 71,
                    "time": 462.24093199998674,
                    "velocity": 0.4330708661417323,
                    "duration": 0.20746900000000323
                },
                {
                    "name": "D5",
                    "midi": 74,
                    "time": 462.24093199998674,
                    "velocity": 0.4330708661417323,
                    "duration": 0.20746900000000323
                },
                {
                    "name": "B3",
                    "midi": 59,
                    "time": 462.24093199998674,
                    "velocity": 0.4330708661417323,
                    "duration": 0.13831266666664987
                },
                {
                    "name": "C#4",
                    "midi": 61,
                    "time": 462.3792446666534,
                    "velocity": 0.4409448818897638,
                    "duration": 0.13831266666670672
                },
                {
                    "name": "D4",
                    "midi": 62,
                    "time": 462.5175573333201,
                    "velocity": 0.4251968503937008,
                    "duration": 0.13831266666664987
                },
                {
                    "name": "E4",
                    "midi": 64,
                    "time": 462.65586999998675,
                    "velocity": 0.44881889763779526,
                    "duration": 0.13831266666664987
                },
                {
                    "name": "F#4",
                    "midi": 66,
                    "time": 462.7941826666534,
                    "velocity": 0.47244094488188976,
                    "duration": 0.13831266666664987
                },
                {
                    "name": "G#4",
                    "midi": 68,
                    "time": 462.93249533332005,
                    "velocity": 0.4881889763779528,
                    "duration": 0.13831266666664987
                },
                {
                    "name": "A5",
                    "midi": 81,
                    "time": 463.0708079999867,
                    "velocity": 0.7401574803149606,
                    "duration": 0.8298760000000129
                },
                {
                    "name": "E5",
                    "midi": 76,
                    "time": 463.0708079999867,
                    "velocity": 0.6299212598425197,
                    "duration": 0.8298760000000129
                },
                {
                    "name": "C#5",
                    "midi": 73,
                    "time": 463.0708079999867,
                    "velocity": 0.6299212598425197,
                    "duration": 0.8298760000000129
                },
                {
                    "name": "A4",
                    "midi": 69,
                    "time": 463.0708079999867,
                    "velocity": 0.6299212598425197,
                    "duration": 0.8298760000000129
                },
                {
                    "name": "C5",
                    "midi": 72,
                    "time": 463.9006839999867,
                    "velocity": 0.4251968503937008,
                    "duration": 0.28526987499998313
                },
                {
                    "name": "D#5",
                    "midi": 75,
                    "time": 463.9006839999867,
                    "velocity": 0.49606299212598426,
                    "duration": 0.28526987499998313
                },
                {
                    "name": "C5",
                    "midi": 72,
                    "time": 464.2118874999867,
                    "velocity": 0.3858267716535433,
                    "duration": 0.0778008749999799
                },
                {
                    "name": "D#5",
                    "midi": 75,
                    "time": 464.2118874999867,
                    "velocity": 0.4645669291338583,
                    "duration": 0.0778008749999799
                },
                {
                    "name": "C5",
                    "midi": 72,
                    "time": 464.31562199998666,
                    "velocity": 0.4251968503937008,
                    "duration": 0.28526987499998313
                },
                {
                    "name": "D#5",
                    "midi": 75,
                    "time": 464.31562199998666,
                    "velocity": 0.49606299212598426,
                    "duration": 0.28526987499998313
                },
                {
                    "name": "C5",
                    "midi": 72,
                    "time": 464.62682549998664,
                    "velocity": 0.3858267716535433,
                    "duration": 0.0778008749999799
                },
                {
                    "name": "D#5",
                    "midi": 75,
                    "time": 464.62682549998664,
                    "velocity": 0.4566929133858268,
                    "duration": 0.0778008749999799
                },
                {
                    "name": "C#5",
                    "midi": 73,
                    "time": 464.7305599999866,
                    "velocity": 0.47244094488188976,
                    "duration": 0.41493800000000647
                },
                {
                    "name": "E5",
                    "midi": 76,
                    "time": 464.7305599999866,
                    "velocity": 0.5511811023622047,
                    "duration": 0.41493800000000647
                },
                {
                    "name": "C#6",
                    "midi": 85,
                    "time": 465.1454979999866,
                    "velocity": 0.3858267716535433,
                    "duration": 0.20746900000000323
                },
                {
                    "name": "C#3",
                    "midi": 49,
                    "time": 465.3529669999866,
                    "velocity": 0.5039370078740157,
                    "duration": 0.20746900000000323
                },
                {
                    "name": "D3",
                    "midi": 50,
                    "time": 465.5604359999866,
                    "velocity": 0.5196850393700787,
                    "duration": 0.13831266666664987
                },
                {
                    "name": "C#3",
                    "midi": 49,
                    "time": 465.6987486666533,
                    "velocity": 0.4881889763779528,
                    "duration": 0.13831266666664987
                },
                {
                    "name": "B2",
                    "midi": 47,
                    "time": 465.8370613333199,
                    "velocity": 0.5039370078740157,
                    "duration": 0.13831266666664987
                },
                {
                    "name": "F3",
                    "midi": 53,
                    "time": 465.9753739999866,
                    "velocity": 0.5118110236220472,
                    "duration": 0.13831266666664987
                },
                {
                    "name": "E3",
                    "midi": 52,
                    "time": 466.1136866666532,
                    "velocity": 0.47244094488188976,
                    "duration": 0.13831266666664987
                },
                {
                    "name": "D3",
                    "midi": 50,
                    "time": 466.2519993333199,
                    "velocity": 0.3858267716535433,
                    "duration": 0.13831266666664987
                },
                {
                    "name": "C#5",
                    "midi": 73,
                    "time": 466.80524999998653,
                    "velocity": 0.4409448818897638,
                    "duration": 0.31120349999997643
                },
                {
                    "name": "E5",
                    "midi": 76,
                    "time": 466.80524999998653,
                    "velocity": 0.4409448818897638,
                    "duration": 0.31120349999997643
                },
                {
                    "name": "C#5",
                    "midi": 73,
                    "time": 467.1164534999865,
                    "velocity": 0.3858267716535433,
                    "duration": 0.1037344999999732
                },
                {
                    "name": "E5",
                    "midi": 76,
                    "time": 467.1164534999865,
                    "velocity": 0.3858267716535433,
                    "duration": 0.1037344999999732
                },
                {
                    "name": "B4",
                    "midi": 71,
                    "time": 467.2201879999865,
                    "velocity": 0.4330708661417323,
                    "duration": 0.20746900000000323
                },
                {
                    "name": "D5",
                    "midi": 74,
                    "time": 467.2201879999865,
                    "velocity": 0.4330708661417323,
                    "duration": 0.20746900000000323
                },
                {
                    "name": "B3",
                    "midi": 59,
                    "time": 467.2201879999865,
                    "velocity": 0.4330708661417323,
                    "duration": 0.13831266666664987
                },
                {
                    "name": "C#4",
                    "midi": 61,
                    "time": 467.35850066665313,
                    "velocity": 0.4409448818897638,
                    "duration": 0.13831266666670672
                },
                {
                    "name": "D4",
                    "midi": 62,
                    "time": 467.49681333331984,
                    "velocity": 0.4251968503937008,
                    "duration": 0.13831266666664987
                },
                {
                    "name": "E4",
                    "midi": 64,
                    "time": 467.6351259999865,
                    "velocity": 0.44881889763779526,
                    "duration": 0.13831266666664987
                },
                {
                    "name": "F#4",
                    "midi": 66,
                    "time": 467.77343866665313,
                    "velocity": 0.47244094488188976,
                    "duration": 0.13831266666664987
                },
                {
                    "name": "G#4",
                    "midi": 68,
                    "time": 467.9117513333198,
                    "velocity": 0.4881889763779528,
                    "duration": 0.13831266666664987
                },
                {
                    "name": "A4",
                    "midi": 69,
                    "time": 468.05006399998643,
                    "velocity": 0.44881889763779526,
                    "duration": 0.13831266666664987
                },
                {
                    "name": "B4",
                    "midi": 71,
                    "time": 468.1883766666531,
                    "velocity": 0.48031496062992124,
                    "duration": 0.13831266666664987
                },
                {
                    "name": "C#5",
                    "midi": 73,
                    "time": 468.32668933331973,
                    "velocity": 0.4881889763779528,
                    "duration": 0.13831266666664987
                },
                {
                    "name": "D5",
                    "midi": 74,
                    "time": 468.4650019999864,
                    "velocity": 0.49606299212598426,
                    "duration": 0.13831266666664987
                },
                {
                    "name": "E5",
                    "midi": 76,
                    "time": 468.60331466665303,
                    "velocity": 0.5039370078740157,
                    "duration": 0.13831266666664987
                },
                {
                    "name": "F#5",
                    "midi": 78,
                    "time": 468.7416273333197,
                    "velocity": 0.5118110236220472,
                    "duration": 0.13831266666664987
                },
                {
                    "name": "G5",
                    "midi": 79,
                    "time": 468.87993999998633,
                    "velocity": 0.5196850393700787,
                    "duration": 0.13831266666664987
                },
                {
                    "name": "G#5",
                    "midi": 80,
                    "time": 469.018252666653,
                    "velocity": 0.5275590551181102,
                    "duration": 0.13831266666664987
                },
                {
                    "name": "A5",
                    "midi": 81,
                    "time": 469.15656533331963,
                    "velocity": 0.5354330708661418,
                    "duration": 0.13831266666664987
                },
                {
                    "name": "B5",
                    "midi": 83,
                    "time": 469.2948779999863,
                    "velocity": 0.5433070866141733,
                    "duration": 0.13831266666664987
                },
                {
                    "name": "C#6",
                    "midi": 85,
                    "time": 469.43319066665293,
                    "velocity": 0.5511811023622047,
                    "duration": 0.13831266666664987
                },
                {
                    "name": "D6",
                    "midi": 86,
                    "time": 469.5715033333196,
                    "velocity": 0.5590551181102362,
                    "duration": 0.13831266666664987
                },
                {
                    "name": "E6",
                    "midi": 88,
                    "time": 469.70981599998623,
                    "velocity": 0.5905511811023622,
                    "duration": 0.13831266666664987
                },
                {
                    "name": "F#6",
                    "midi": 90,
                    "time": 469.8481286666529,
                    "velocity": 0.5590551181102362,
                    "duration": 0.13831266666664987
                },
                {
                    "name": "E6",
                    "midi": 88,
                    "time": 469.98644133331953,
                    "velocity": 0.5275590551181102,
                    "duration": 0.13831266666664987
                },
                {
                    "name": "D6",
                    "midi": 86,
                    "time": 470.1247539999862,
                    "velocity": 0.49606299212598426,
                    "duration": 0.13831266666664987
                },
                {
                    "name": "C#6",
                    "midi": 85,
                    "time": 470.26306666665283,
                    "velocity": 0.47244094488188976,
                    "duration": 0.13831266666664987
                },
                {
                    "name": "B5",
                    "midi": 83,
                    "time": 470.4013793333195,
                    "velocity": 0.4566929133858268,
                    "duration": 0.13831266666664987
                },
                {
                    "name": "A5",
                    "midi": 81,
                    "time": 470.53969199998613,
                    "velocity": 0.4330708661417323,
                    "duration": 0.13831266666664987
                },
                {
                    "name": "B5",
                    "midi": 83,
                    "time": 470.6780046666528,
                    "velocity": 0.41732283464566927,
                    "duration": 0.13831266666664987
                },
                {
                    "name": "A5",
                    "midi": 81,
                    "time": 470.81631733331943,
                    "velocity": 0.3937007874015748,
                    "duration": 0.13831266666664987
                },
                {
                    "name": "G5",
                    "midi": 79,
                    "time": 470.9546299999861,
                    "velocity": 0.3779527559055118,
                    "duration": 0.13831266666664987
                },
                {
                    "name": "F#5",
                    "midi": 78,
                    "time": 471.09294266665273,
                    "velocity": 0.3543307086614173,
                    "duration": 0.13831266666664987
                },
                {
                    "name": "E5",
                    "midi": 76,
                    "time": 471.2312553333194,
                    "velocity": 0.33858267716535434,
                    "duration": 0.13831266666664987
                },
                {
                    "name": "D5",
                    "midi": 74,
                    "time": 471.36956799998603,
                    "velocity": 0.3937007874015748,
                    "duration": 0.41493800000000647
                },
                {
                    "name": "F#4",
                    "midi": 66,
                    "time": 471.78450599998604,
                    "velocity": 0.30708661417322836,
                    "duration": 0.1037344999999732
                },
                {
                    "name": "E5",
                    "midi": 76,
                    "time": 472.199443999986,
                    "velocity": 0.3858267716535433,
                    "duration": 0.41493800000000647
                },
                {
                    "name": "A4",
                    "midi": 69,
                    "time": 472.614381999986,
                    "velocity": 0.30708661417322836,
                    "duration": 0.1037344999999732
                },
                {
                    "name": "A4",
                    "midi": 69,
                    "time": 472.97745274998596,
                    "velocity": 0.31496062992125984,
                    "duration": 0.0518672499999866
                },
                {
                    "name": "F#5",
                    "midi": 78,
                    "time": 473.02931999998594,
                    "velocity": 0.3858267716535433,
                    "duration": 0.41493800000000647
                },
                {
                    "name": "D5",
                    "midi": 74,
                    "time": 473.44425799998595,
                    "velocity": 0.30708661417322836,
                    "duration": 0.1037344999999732
                },
                {
                    "name": "D5",
                    "midi": 74,
                    "time": 473.8073287499859,
                    "velocity": 0.31496062992125984,
                    "duration": 0.0518672499999866
                },
                {
                    "name": "B5",
                    "midi": 83,
                    "time": 473.8591959999859,
                    "velocity": 0.4330708661417323,
                    "duration": 0.31120349999997643
                },
                {
                    "name": "G#5",
                    "midi": 80,
                    "time": 474.1703994999859,
                    "velocity": 0.3543307086614173,
                    "duration": 0.1037344999999732
                },
                {
                    "name": "B5",
                    "midi": 83,
                    "time": 474.27413399998585,
                    "velocity": 0.41732283464566927,
                    "duration": 0.31120349999997643
                },
                {
                    "name": "G#5",
                    "midi": 80,
                    "time": 474.5853374999858,
                    "velocity": 0.36220472440944884,
                    "duration": 0.1037344999999732
                },
                {
                    "name": "A5",
                    "midi": 81,
                    "time": 474.69512317915246,
                    "velocity": 0.3937007874015748,
                    "duration": 0.41493800000000647
                },
                {
                    "name": "A4",
                    "midi": 69,
                    "time": 475.1040099999858,
                    "velocity": 0.30708661417322836,
                    "duration": 0.1037344999999732
                },
                {
                    "name": "A4",
                    "midi": 69,
                    "time": 475.46708074998577,
                    "velocity": 0.31496062992125984,
                    "duration": 0.0518672499999866
                },
                {
                    "name": "G5",
                    "midi": 79,
                    "time": 475.51894799998576,
                    "velocity": 0.3858267716535433,
                    "duration": 0.41493800000000647
                },
                {
                    "name": "E5",
                    "midi": 76,
                    "time": 475.93388599998576,
                    "velocity": 0.30708661417322836,
                    "duration": 0.1037344999999732
                },
                {
                    "name": "E5",
                    "midi": 76,
                    "time": 476.2969567499857,
                    "velocity": 0.31496062992125984,
                    "duration": 0.0518672499999866
                },
                {
                    "name": "F#5",
                    "midi": 78,
                    "time": 476.3488239999857,
                    "velocity": 0.3858267716535433,
                    "duration": 0.41493800000000647
                },
                {
                    "name": "A4",
                    "midi": 69,
                    "time": 476.7637619999857,
                    "velocity": 0.30708661417322836,
                    "duration": 0.1037344999999732
                },
                {
                    "name": "A4",
                    "midi": 69,
                    "time": 477.1268327499857,
                    "velocity": 0.31496062992125984,
                    "duration": 0.0518672499999866
                },
                {
                    "name": "E5",
                    "midi": 76,
                    "time": 477.17869999998567,
                    "velocity": 0.4330708661417323,
                    "duration": 0.31120349999997643
                },
                {
                    "name": "C#5",
                    "midi": 73,
                    "time": 477.48990349998564,
                    "velocity": 0.3543307086614173,
                    "duration": 0.1037344999999732
                },
                {
                    "name": "E5",
                    "midi": 76,
                    "time": 477.5936379999856,
                    "velocity": 0.41732283464566927,
                    "duration": 0.31120349999997643
                },
                {
                    "name": "C#5",
                    "midi": 73,
                    "time": 477.9048414999856,
                    "velocity": 0.36220472440944884,
                    "duration": 0.1037344999999732
                },
                {
                    "name": "D5",
                    "midi": 74,
                    "time": 478.00857599998557,
                    "velocity": 0.3937007874015748,
                    "duration": 0.13831266666664987
                },
                {
                    "name": "A4",
                    "midi": 69,
                    "time": 478.1468886666522,
                    "velocity": 0.3464566929133858,
                    "duration": 0.13831266666664987
                },
                {
                    "name": "D5",
                    "midi": 74,
                    "time": 478.28520133331887,
                    "velocity": 0.2992125984251969,
                    "duration": 0.13831266666664987
                },
                {
                    "name": "F#4",
                    "midi": 66,
                    "time": 478.4235139999855,
                    "velocity": 0.30708661417322836,
                    "duration": 0.1037344999999732
                },
                {
                    "name": "E5",
                    "midi": 76,
                    "time": 478.83845199998547,
                    "velocity": 0.3937007874015748,
                    "duration": 0.13831266666664987
                },
                {
                    "name": "C#5",
                    "midi": 73,
                    "time": 478.9767646666521,
                    "velocity": 0.3464566929133858,
                    "duration": 0.13831266666664987
                },
                {
                    "name": "E5",
                    "midi": 76,
                    "time": 479.11507733331877,
                    "velocity": 0.2992125984251969,
                    "duration": 0.13831266666664987
                },
                {
                    "name": "A4",
                    "midi": 69,
                    "time": 479.2533899999854,
                    "velocity": 0.30708661417322836,
                    "duration": 0.1037344999999732
                },
                {
                    "name": "F#5",
                    "midi": 78,
                    "time": 479.66832799998537,
                    "velocity": 0.3937007874015748,
                    "duration": 0.13831266666664987
                },
                {
                    "name": "E5",
                    "midi": 76,
                    "time": 479.806640666652,
                    "velocity": 0.3464566929133858,
                    "duration": 0.13831266666664987
                },
                {
                    "name": "F#5",
                    "midi": 78,
                    "time": 479.94495333331867,
                    "velocity": 0.2992125984251969,
                    "duration": 0.13831266666664987
                },
                {
                    "name": "D5",
                    "midi": 74,
                    "time": 480.0832659999853,
                    "velocity": 0.30708661417322836,
                    "duration": 0.1037344999999732
                },
                {
                    "name": "B5",
                    "midi": 83,
                    "time": 480.49820399998526,
                    "velocity": 0.4330708661417323,
                    "duration": 0.13831266666664987
                },
                {
                    "name": "G#5",
                    "midi": 80,
                    "time": 480.6365166666519,
                    "velocity": 0.3700787401574803,
                    "duration": 0.13831266666664987
                },
                {
                    "name": "B5",
                    "midi": 83,
                    "time": 480.77482933331856,
                    "velocity": 0.3700787401574803,
                    "duration": 0.13831266666664987
                },
                {
                    "name": "D6",
                    "midi": 86,
                    "time": 480.9131419999852,
                    "velocity": 0.4330708661417323,
                    "duration": 0.13831266666664987
                },
                {
                    "name": "B5",
                    "midi": 83,
                    "time": 481.05145466665186,
                    "velocity": 0.3700787401574803,
                    "duration": 0.13831266666664987
                },
                {
                    "name": "G#5",
                    "midi": 80,
                    "time": 481.1897673333185,
                    "velocity": 0.3700787401574803,
                    "duration": 0.13831266666664987
                },
                {
                    "name": "A5",
                    "midi": 81,
                    "time": 481.32807999998516,
                    "velocity": 0.3937007874015748,
                    "duration": 0.13831266666664987
                },
                {
                    "name": "F#5",
                    "midi": 78,
                    "time": 481.4663926666518,
                    "velocity": 0.3464566929133858,
                    "duration": 0.13831266666664987
                },
                {
                    "name": "A5",
                    "midi": 81,
                    "time": 481.60470533331846,
                    "velocity": 0.2992125984251969,
                    "duration": 0.13831266666664987
                },
                {
                    "name": "A4",
                    "midi": 69,
                    "time": 481.7430179999851,
                    "velocity": 0.30708661417322836,
                    "duration": 0.1037344999999732
                },
                {
                    "name": "G5",
                    "midi": 79,
                    "time": 482.15795599998506,
                    "velocity": 0.3937007874015748,
                    "duration": 0.13831266666664987
                },
                {
                    "name": "F#5",
                    "midi": 78,
                    "time": 482.2962686666517,
                    "velocity": 0.3464566929133858,
                    "duration": 0.13831266666664987
                },
                {
                    "name": "G5",
                    "midi": 79,
                    "time": 482.43458133331836,
                    "velocity": 0.2992125984251969,
                    "duration": 0.13831266666664987
                },
                {
                    "name": "E5",
                    "midi": 76,
                    "time": 482.572893999985,
                    "velocity": 0.30708661417322836,
                    "duration": 0.1037344999999732
                },
                {
                    "name": "F#5",
                    "midi": 78,
                    "time": 482.98783199998496,
                    "velocity": 0.3937007874015748,
                    "duration": 0.13831266666664987
                },
                {
                    "name": "D5",
                    "midi": 74,
                    "time": 483.1261446666516,
                    "velocity": 0.3464566929133858,
                    "duration": 0.13831266666664987
                },
                {
                    "name": "F#5",
                    "midi": 78,
                    "time": 483.26445733331826,
                    "velocity": 0.2992125984251969,
                    "duration": 0.13831266666664987
                },
                {
                    "name": "A4",
                    "midi": 69,
                    "time": 483.4027699999849,
                    "velocity": 0.30708661417322836,
                    "duration": 0.1037344999999732
                },
                {
                    "name": "E5",
                    "midi": 76,
                    "time": 483.81770799998486,
                    "velocity": 0.4330708661417323,
                    "duration": 0.31120349999997643
                },
                {
                    "name": "C#5",
                    "midi": 73,
                    "time": 484.12891149998484,
                    "velocity": 0.3543307086614173,
                    "duration": 0.1037344999999732
                },
                {
                    "name": "E5",
                    "midi": 76,
                    "time": 484.2326459999848,
                    "velocity": 0.41732283464566927,
                    "duration": 0.31120349999997643
                },
                {
                    "name": "C#5",
                    "midi": 73,
                    "time": 484.5438494999848,
                    "velocity": 0.36220472440944884,
                    "duration": 0.1037344999999732
                },
                {
                    "name": "E5",
                    "midi": 76,
                    "time": 484.64758399998476,
                    "velocity": 0.6141732283464567,
                    "duration": 0.13831266666664987
                },
                {
                    "name": "G4",
                    "midi": 67,
                    "time": 484.7858966666514,
                    "velocity": 0.4881889763779528,
                    "duration": 0.13831266666664987
                },
                {
                    "name": "E5",
                    "midi": 76,
                    "time": 484.92420933331806,
                    "velocity": 0.4881889763779528,
                    "duration": 0.13831266666664987
                },
                {
                    "name": "C4",
                    "midi": 60,
                    "time": 485.0625219999847,
                    "velocity": 0.6141732283464567,
                    "duration": 0.7261414999999829
                },
                {
                    "name": "E5",
                    "midi": 76,
                    "time": 485.7886634999847,
                    "velocity": 0.4645669291338583,
                    "duration": 0.1037344999999732
                },
                {
                    "name": "G4",
                    "midi": 67,
                    "time": 485.7886634999847,
                    "velocity": 0.4645669291338583,
                    "duration": 0.1037344999999732
                },
                {
                    "name": "C4",
                    "midi": 60,
                    "time": 485.89239799998467,
                    "velocity": 0.6141732283464567,
                    "duration": 0.31120349999997643
                },
                {
                    "name": "G4",
                    "midi": 67,
                    "time": 486.20360149998464,
                    "velocity": 0.4881889763779528,
                    "duration": 0.1037344999999732
                },
                {
                    "name": "E5",
                    "midi": 76,
                    "time": 486.3073359999846,
                    "velocity": 0.5905511811023622,
                    "duration": 0.13831266666664987
                },
                {
                    "name": "G4",
                    "midi": 67,
                    "time": 486.44564866665127,
                    "velocity": 0.4409448818897638,
                    "duration": 0.13831266666664987
                },
                {
                    "name": "E5",
                    "midi": 76,
                    "time": 486.5839613333179,
                    "velocity": 0.4409448818897638,
                    "duration": 0.13831266666664987
                },
                {
                    "name": "C4",
                    "midi": 60,
                    "time": 486.72227399998457,
                    "velocity": 0.5826771653543307,
                    "duration": 0.7261414999999829
                },
                {
                    "name": "E5",
                    "midi": 76,
                    "time": 487.44841549998455,
                    "velocity": 0.4645669291338583,
                    "duration": 0.1037344999999732
                },
                {
                    "name": "G4",
                    "midi": 67,
                    "time": 487.44841549998455,
                    "velocity": 0.4645669291338583,
                    "duration": 0.1037344999999732
                },
                {
                    "name": "C4",
                    "midi": 60,
                    "time": 487.5521499999845,
                    "velocity": 0.5826771653543307,
                    "duration": 0.7261414999999829
                },
                {
                    "name": "G4",
                    "midi": 67,
                    "time": 488.2782914999845,
                    "velocity": 0.4094488188976378,
                    "duration": 0.1037344999999732
                },
                {
                    "name": "E5",
                    "midi": 76,
                    "time": 488.2782914999845,
                    "velocity": 0.4881889763779528,
                    "duration": 0.1037344999999732
                },
                {
                    "name": "C4",
                    "midi": 60,
                    "time": 488.3820259999845,
                    "velocity": 0.5826771653543307,
                    "duration": 0.7261414999999829
                },
                {
                    "name": "G4",
                    "midi": 67,
                    "time": 489.10816749998446,
                    "velocity": 0.4094488188976378,
                    "duration": 0.1037344999999732
                },
                {
                    "name": "E5",
                    "midi": 76,
                    "time": 489.10816749998446,
                    "velocity": 0.4881889763779528,
                    "duration": 0.1037344999999732
                },
                {
                    "name": "C4",
                    "midi": 60,
                    "time": 489.21190199998443,
                    "velocity": 0.5826771653543307,
                    "duration": 0.31120349999997643
                },
                {
                    "name": "E5",
                    "midi": 76,
                    "time": 489.5231054999844,
                    "velocity": 0.4881889763779528,
                    "duration": 0.1037344999999732
                },
                {
                    "name": "G4",
                    "midi": 67,
                    "time": 489.5231054999844,
                    "velocity": 0.4094488188976378,
                    "duration": 0.1037344999999732
                },
                {
                    "name": "F5",
                    "midi": 77,
                    "time": 489.6268399999844,
                    "velocity": 0.6220472440944882,
                    "duration": 0.13831266666664987
                },
                {
                    "name": "A4",
                    "midi": 69,
                    "time": 489.76515266665103,
                    "velocity": 0.4881889763779528,
                    "duration": 0.13831266666664987
                },
                {
                    "name": "F5",
                    "midi": 77,
                    "time": 489.9034653333177,
                    "velocity": 0.4881889763779528,
                    "duration": 0.13831266666664987
                },
                {
                    "name": "A5",
                    "midi": 81,
                    "time": 490.04177799998433,
                    "velocity": 0.6377952755905512,
                    "duration": 0.7261414999999829
                },
                {
                    "name": "A4",
                    "midi": 69,
                    "time": 490.7679194999843,
                    "velocity": 0.4645669291338583,
                    "duration": 0.1037344999999732
                },
                {
                    "name": "F5",
                    "midi": 77,
                    "time": 490.8716539999843,
                    "velocity": 0.4881889763779528,
                    "duration": 0.31120349999997643
                },
                {
                    "name": "A5",
                    "midi": 81,
                    "time": 490.8716539999843,
                    "velocity": 0.5826771653543307,
                    "duration": 0.31120349999997643
                },
                {
                    "name": "A4",
                    "midi": 69,
                    "time": 491.18285749998427,
                    "velocity": 0.4881889763779528,
                    "duration": 0.1037344999999732
                },
                {
                    "name": "F5",
                    "midi": 77,
                    "time": 491.28659199998424,
                    "velocity": 0.5590551181102362,
                    "duration": 0.13831266666664987
                },
                {
                    "name": "A4",
                    "midi": 69,
                    "time": 491.4249046666509,
                    "velocity": 0.4409448818897638,
                    "duration": 0.13831266666664987
                },
                {
                    "name": "F5",
                    "midi": 77,
                    "time": 491.56321733331754,
                    "velocity": 0.4409448818897638,
                    "duration": 0.13831266666664987
                },
                {
                    "name": "A5",
                    "midi": 81,
                    "time": 491.7015299999842,
                    "velocity": 0.5826771653543307,
                    "duration": 0.7261414999999829
                },
                {
                    "name": "A4",
                    "midi": 69,
                    "time": 492.42767149998417,
                    "velocity": 0.4645669291338583,
                    "duration": 0.1037344999999732
                },
                {
                    "name": "F5",
                    "midi": 77,
                    "time": 492.53140599998414,
                    "velocity": 0.5826771653543307,
                    "duration": 0.7261414999999829
                },
                {
                    "name": "A5",
                    "midi": 81,
                    "time": 492.53140599998414,
                    "velocity": 0.5826771653543307,
                    "duration": 0.7261414999999829
                },
                {
                    "name": "A4",
                    "midi": 69,
                    "time": 493.2575474999841,
                    "velocity": 0.4881889763779528,
                    "duration": 0.1037344999999732
                },
                {
                    "name": "F5",
                    "midi": 77,
                    "time": 493.3612819999841,
                    "velocity": 0.5826771653543307,
                    "duration": 0.7261414999999829
                },
                {
                    "name": "A5",
                    "midi": 81,
                    "time": 493.3612819999841,
                    "velocity": 0.6299212598425197,
                    "duration": 0.7261414999999829
                },
                {
                    "name": "A4",
                    "midi": 69,
                    "time": 494.0874234999841,
                    "velocity": 0.41732283464566927,
                    "duration": 0.1037344999999732
                },
                {
                    "name": "C#5",
                    "midi": 73,
                    "time": 494.19115799998406,
                    "velocity": 0.44881889763779526,
                    "duration": 0.7261414999999829
                },
                {
                    "name": "G5",
                    "midi": 79,
                    "time": 494.19115799998406,
                    "velocity": 0.44881889763779526,
                    "duration": 0.7261414999999829
                },
                {
                    "name": "A5",
                    "midi": 81,
                    "time": 494.19115799998406,
                    "velocity": 0.49606299212598426,
                    "duration": 0.7261414999999829
                },
                {
                    "name": "A4",
                    "midi": 69,
                    "time": 494.91729949998404,
                    "velocity": 0.33070866141732286,
                    "duration": 0.1037344999999732
                },
                {
                    "name": "C#5",
                    "midi": 73,
                    "time": 495.021033999984,
                    "velocity": 0.3464566929133858,
                    "duration": 0.31120349999997643
                },
                {
                    "name": "G5",
                    "midi": 79,
                    "time": 495.021033999984,
                    "velocity": 0.3464566929133858,
                    "duration": 0.31120349999997643
                },
                {
                    "name": "A5",
                    "midi": 81,
                    "time": 495.021033999984,
                    "velocity": 0.41732283464566927,
                    "duration": 0.31120349999997643
                },
                {
                    "name": "A4",
                    "midi": 69,
                    "time": 495.332237499984,
                    "velocity": 0.33070866141732286,
                    "duration": 0.1037344999999732
                },
                {
                    "name": "C#5",
                    "midi": 73,
                    "time": 495.43597199998396,
                    "velocity": 0.3228346456692913,
                    "duration": 0.31120349999997643
                },
                {
                    "name": "G5",
                    "midi": 79,
                    "time": 495.43597199998396,
                    "velocity": 0.3228346456692913,
                    "duration": 0.31120349999997643
                },
                {
                    "name": "A5",
                    "midi": 81,
                    "time": 495.43597199998396,
                    "velocity": 0.3779527559055118,
                    "duration": 0.31120349999997643
                },
                {
                    "name": "A4",
                    "midi": 69,
                    "time": 495.74717549998394,
                    "velocity": 0.30708661417322836,
                    "duration": 0.1037344999999732
                },
                {
                    "name": "C#5",
                    "midi": 73,
                    "time": 495.8509099999839,
                    "velocity": 0.29133858267716534,
                    "duration": 0.31120349999997643
                },
                {
                    "name": "G5",
                    "midi": 79,
                    "time": 495.8509099999839,
                    "velocity": 0.29133858267716534,
                    "duration": 0.31120349999997643
                },
                {
                    "name": "A5",
                    "midi": 81,
                    "time": 495.8509099999839,
                    "velocity": 0.3464566929133858,
                    "duration": 0.31120349999997643
                },
                {
                    "name": "A4",
                    "midi": 69,
                    "time": 496.1621134999839,
                    "velocity": 0.2755905511811024,
                    "duration": 0.1037344999999732
                },
                {
                    "name": "D5",
                    "midi": 74,
                    "time": 496.26584799998386,
                    "velocity": 0.33070866141732286,
                    "duration": 0.1037344999999732
                },
                {
                    "name": "F#5",
                    "midi": 78,
                    "time": 496.26584799998386,
                    "velocity": 0.33070866141732286,
                    "duration": 0.1037344999999732
                },
                {
                    "name": "A5",
                    "midi": 81,
                    "time": 496.26584799998386,
                    "velocity": 0.3937007874015748,
                    "duration": 0.1037344999999732
                },
                {
                    "name": "A4",
                    "midi": 69,
                    "time": 496.4041606666505,
                    "velocity": 0.30708661417322836,
                    "duration": 0.13831266666664987
                },
                {
                    "name": "D5",
                    "midi": 74,
                    "time": 496.54247333331716,
                    "velocity": 0.3228346456692913,
                    "duration": 0.13831266666664987
                },
                {
                    "name": "F#5",
                    "midi": 78,
                    "time": 496.6807859999838,
                    "velocity": 0.33070866141732286,
                    "duration": 0.13831266666664987
                },
                {
                    "name": "A5",
                    "midi": 81,
                    "time": 496.81909866665046,
                    "velocity": 0.3464566929133858,
                    "duration": 0.13831266666664987
                },
                {
                    "name": "D6",
                    "midi": 86,
                    "time": 496.9574113333171,
                    "velocity": 0.3543307086614173,
                    "duration": 0.13831266666664987
                },
                {
                    "name": "A5",
                    "midi": 81,
                    "time": 497.09572399998376,
                    "velocity": 0.3700787401574803,
                    "duration": 0.13831266666664987
                },
                {
                    "name": "D5",
                    "midi": 74,
                    "time": 497.2340366666504,
                    "velocity": 0.3543307086614173,
                    "duration": 0.13831266666664987
                },
                {
                    "name": "F#5",
                    "midi": 78,
                    "time": 497.37234933331706,
                    "velocity": 0.3858267716535433,
                    "duration": 0.13831266666664987
                },
                {
                    "name": "A5",
                    "midi": 81,
                    "time": 497.5106619999837,
                    "velocity": 0.4094488188976378,
                    "duration": 0.13831266666664987
                },
                {
                    "name": "D6",
                    "midi": 86,
                    "time": 497.64897466665036,
                    "velocity": 0.4094488188976378,
                    "duration": 0.13831266666664987
                },
                {
                    "name": "F#6",
                    "midi": 90,
                    "time": 497.787287333317,
                    "velocity": 0.3700787401574803,
                    "duration": 0.13831266666664987
                },
                {
                    "name": "A5",
                    "midi": 81,
                    "time": 497.92559999998366,
                    "velocity": 0.4094488188976378,
                    "duration": 0.13831266666664987
                },
                {
                    "name": "B5",
                    "midi": 83,
                    "time": 498.0639126666503,
                    "velocity": 0.3543307086614173,
                    "duration": 0.13831266666664987
                },
                {
                    "name": "A5",
                    "midi": 81,
                    "time": 498.20222533331696,
                    "velocity": 0.3543307086614173,
                    "duration": 0.13831266666664987
                },
                {
                    "name": "G5",
                    "midi": 79,
                    "time": 498.3405379999836,
                    "velocity": 0.4094488188976378,
                    "duration": 0.13831266666664987
                },
                {
                    "name": "B5",
                    "midi": 83,
                    "time": 498.47885066665026,
                    "velocity": 0.3700787401574803,
                    "duration": 0.13831266666664987
                },
                {
                    "name": "G5",
                    "midi": 79,
                    "time": 498.6171633333169,
                    "velocity": 0.3700787401574803,
                    "duration": 0.13831266666664987
                },
                {
                    "name": "F#5",
                    "midi": 78,
                    "time": 498.75547599998356,
                    "velocity": 0.41732283464566927,
                    "duration": 0.13831266666664987
                },
                {
                    "name": "A5",
                    "midi": 81,
                    "time": 498.8937886666502,
                    "velocity": 0.3700787401574803,
                    "duration": 0.13831266666664987
                },
                {
                    "name": "F#5",
                    "midi": 78,
                    "time": 499.03210133331686,
                    "velocity": 0.3700787401574803,
                    "duration": 0.13831266666664987
                },
                {
                    "name": "E5",
                    "midi": 76,
                    "time": 499.1704139999835,
                    "velocity": 0.4094488188976378,
                    "duration": 0.13831266666664987
                },
                {
                    "name": "G5",
                    "midi": 79,
                    "time": 499.30872666665016,
                    "velocity": 0.3700787401574803,
                    "duration": 0.13831266666664987
                },
                {
                    "name": "E5",
                    "midi": 76,
                    "time": 499.4470393333168,
                    "velocity": 0.3700787401574803,
                    "duration": 0.13831266666664987
                },
                {
                    "name": "D5",
                    "midi": 74,
                    "time": 499.58535199998346,
                    "velocity": 0.3937007874015748,
                    "duration": 0.13831266666664987
                },
                {
                    "name": "A4",
                    "midi": 69,
                    "time": 499.7236646666501,
                    "velocity": 0.30708661417322836,
                    "duration": 0.13831266666664987
                },
                {
                    "name": "D5",
                    "midi": 74,
                    "time": 499.86197733331676,
                    "velocity": 0.3228346456692913,
                    "duration": 0.13831266666664987
                },
                {
                    "name": "F#5",
                    "midi": 78,
                    "time": 500.0002899999834,
                    "velocity": 0.33070866141732286,
                    "duration": 0.13831266666664987
                },
                {
                    "name": "A5",
                    "midi": 81,
                    "time": 500.13860266665006,
                    "velocity": 0.3464566929133858,
                    "duration": 0.13831266666664987
                },
                {
                    "name": "D6",
                    "midi": 86,
                    "time": 500.2769153333167,
                    "velocity": 0.3543307086614173,
                    "duration": 0.13831266666664987
                },
                {
                    "name": "A5",
                    "midi": 81,
                    "time": 500.41522799998336,
                    "velocity": 0.3700787401574803,
                    "duration": 0.13831266666664987
                },
                {
                    "name": "D5",
                    "midi": 74,
                    "time": 500.55354066665,
                    "velocity": 0.3543307086614173,
                    "duration": 0.13831266666664987
                },
                {
                    "name": "F#5",
                    "midi": 78,
                    "time": 500.69185333331666,
                    "velocity": 0.3858267716535433,
                    "duration": 0.13831266666664987
                },
                {
                    "name": "A5",
                    "midi": 81,
                    "time": 500.8301659999833,
                    "velocity": 0.4094488188976378,
                    "duration": 0.13831266666664987
                },
                {
                    "name": "D6",
                    "midi": 86,
                    "time": 500.96847866664996,
                    "velocity": 0.4094488188976378,
                    "duration": 0.13831266666664987
                },
                {
                    "name": "F#6",
                    "midi": 90,
                    "time": 501.1067913333166,
                    "velocity": 0.3700787401574803,
                    "duration": 0.13831266666664987
                },
                {
                    "name": "A5",
                    "midi": 81,
                    "time": 501.24510399998326,
                    "velocity": 0.4094488188976378,
                    "duration": 0.13831266666664987
                },
                {
                    "name": "B5",
                    "midi": 83,
                    "time": 501.3834166666499,
                    "velocity": 0.3543307086614173,
                    "duration": 0.13831266666664987
                },
                {
                    "name": "A5",
                    "midi": 81,
                    "time": 501.52172933331656,
                    "velocity": 0.3543307086614173,
                    "duration": 0.13831266666664987
                },
                {
                    "name": "G5",
                    "midi": 79,
                    "time": 501.6600419999832,
                    "velocity": 0.4094488188976378,
                    "duration": 0.13831266666664987
                },
                {
                    "name": "A5",
                    "midi": 81,
                    "time": 501.79835466664986,
                    "velocity": 0.3700787401574803,
                    "duration": 0.13831266666664987
                },
                {
                    "name": "G5",
                    "midi": 79,
                    "time": 501.9366673333165,
                    "velocity": 0.3700787401574803,
                    "duration": 0.13831266666664987
                },
                {
                    "name": "F#5",
                    "midi": 78,
                    "time": 502.07497999998316,
                    "velocity": 0.41732283464566927,
                    "duration": 0.13831266666664987
                },
                {
                    "name": "G5",
                    "midi": 79,
                    "time": 502.2132926666498,
                    "velocity": 0.3700787401574803,
                    "duration": 0.13831266666664987
                },
                {
                    "name": "F#5",
                    "midi": 78,
                    "time": 502.35160533331646,
                    "velocity": 0.3700787401574803,
                    "duration": 0.13831266666664987
                },
                {
                    "name": "E5",
                    "midi": 76,
                    "time": 502.4899179999831,
                    "velocity": 0.4094488188976378,
                    "duration": 0.13831266666664987
                },
                {
                    "name": "F#5",
                    "midi": 78,
                    "time": 502.62823066664976,
                    "velocity": 0.3700787401574803,
                    "duration": 0.13831266666664987
                },
                {
                    "name": "E5",
                    "midi": 76,
                    "time": 502.7665433333164,
                    "velocity": 0.3700787401574803,
                    "duration": 0.13831266666664987
                },
                {
                    "name": "F#4",
                    "midi": 66,
                    "time": 502.90485599998306,
                    "velocity": 0.33070866141732286,
                    "duration": 0.13831266666664987
                },
                {
                    "name": "A4",
                    "midi": 69,
                    "time": 503.0431686666497,
                    "velocity": 0.29133858267716534,
                    "duration": 0.13831266666664987
                },
                {
                    "name": "F#4",
                    "midi": 66,
                    "time": 503.18148133331636,
                    "velocity": 0.29133858267716534,
                    "duration": 0.13831266666664987
                },
                {
                    "name": "A4",
                    "midi": 69,
                    "time": 503.319793999983,
                    "velocity": 0.33858267716535434,
                    "duration": 0.13831266666664987
                },
                {
                    "name": "D5",
                    "midi": 74,
                    "time": 503.45810666664966,
                    "velocity": 0.28346456692913385,
                    "duration": 0.13831266666664987
                },
                {
                    "name": "A4",
                    "midi": 69,
                    "time": 503.5964193333163,
                    "velocity": 0.29133858267716534,
                    "duration": 0.12102358333333996
                },
                {
                    "name": "A4",
                    "midi": 69,
                    "time": 503.73473199998296,
                    "velocity": 0.33858267716535434,
                    "duration": 0.13831266666664987
                },
                {
                    "name": "C#5",
                    "midi": 73,
                    "time": 503.8730446666496,
                    "velocity": 0.29133858267716534,
                    "duration": 0.13831266666664987
                },
                {
                    "name": "A4",
                    "midi": 69,
                    "time": 504.01135733331625,
                    "velocity": 0.2992125984251969,
                    "duration": 0.13831266666664987
                },
                {
                    "name": "C#5",
                    "midi": 73,
                    "time": 504.1496699999829,
                    "velocity": 0.33858267716535434,
                    "duration": 0.13831266666664987
                },
                {
                    "name": "E5",
                    "midi": 76,
                    "time": 504.28798266664955,
                    "velocity": 0.30708661417322836,
                    "duration": 0.13831266666664987
                },
                {
                    "name": "C#5",
                    "midi": 73,
                    "time": 504.4262953333162,
                    "velocity": 0.30708661417322836,
                    "duration": 0.13831266666664987
                },
                {
                    "name": "A4",
                    "midi": 69,
                    "time": 504.56460799998285,
                    "velocity": 0.33858267716535434,
                    "duration": 0.13831266666664987
                },
                {
                    "name": "D5",
                    "midi": 74,
                    "time": 504.7029206666495,
                    "velocity": 0.2992125984251969,
                    "duration": 0.13831266666664987
                },
                {
                    "name": "A4",
                    "midi": 69,
                    "time": 504.84123333331615,
                    "velocity": 0.2992125984251969,
                    "duration": 0.13831266666664987
                },
                {
                    "name": "D5",
                    "midi": 74,
                    "time": 504.9795459999828,
                    "velocity": 0.33858267716535434,
                    "duration": 0.13831266666664987
                },
                {
                    "name": "F#5",
                    "midi": 78,
                    "time": 505.11785866664945,
                    "velocity": 0.2992125984251969,
                    "duration": 0.13831266666664987
                },
                {
                    "name": "D5",
                    "midi": 74,
                    "time": 505.2561713333161,
                    "velocity": 0.2992125984251969,
                    "duration": 0.12102358333333996
                },
                {
                    "name": "D5",
                    "midi": 74,
                    "time": 505.39448399998275,
                    "velocity": 0.33858267716535434,
                    "duration": 0.13831266666664987
                },
                {
                    "name": "F5",
                    "midi": 77,
                    "time": 505.5327966666494,
                    "velocity": 0.29133858267716534,
                    "duration": 0.13831266666664987
                },
                {
                    "name": "D5",
                    "midi": 74,
                    "time": 505.67110933331605,
                    "velocity": 0.29133858267716534,
                    "duration": 0.13831266666664987
                },
                {
                    "name": "F5",
                    "midi": 77,
                    "time": 505.8094219999827,
                    "velocity": 0.33858267716535434,
                    "duration": 0.13831266666664987
                },
                {
                    "name": "G#5",
                    "midi": 80,
                    "time": 505.94773466664935,
                    "velocity": 0.29133858267716534,
                    "duration": 0.13831266666664987
                },
                {
                    "name": "F5",
                    "midi": 77,
                    "time": 506.086047333316,
                    "velocity": 0.29133858267716534,
                    "duration": 0.13831266666664987
                },
                {
                    "name": "D5",
                    "midi": 74,
                    "time": 506.22435999998265,
                    "velocity": 0.33070866141732286,
                    "duration": 0.13831266666664987
                },
                {
                    "name": "F#5",
                    "midi": 78,
                    "time": 506.3626726666493,
                    "velocity": 0.29133858267716534,
                    "duration": 0.13831266666664987
                },
                {
                    "name": "D5",
                    "midi": 74,
                    "time": 506.50098533331595,
                    "velocity": 0.29133858267716534,
                    "duration": 0.13831266666664987
                },
                {
                    "name": "F#5",
                    "midi": 78,
                    "time": 506.6392979999826,
                    "velocity": 0.33858267716535434,
                    "duration": 0.13831266666664987
                },
                {
                    "name": "A5",
                    "midi": 81,
                    "time": 506.77761066664925,
                    "velocity": 0.28346456692913385,
                    "duration": 0.13831266666664987
                },
                {
                    "name": "F#5",
                    "midi": 78,
                    "time": 506.9159233333159,
                    "velocity": 0.29133858267716534,
                    "duration": 0.12102358333333996
                },
                {
                    "name": "A4",
                    "midi": 69,
                    "time": 507.05423599998255,
                    "velocity": 0.33858267716535434,
                    "duration": 0.13831266666664987
                },
                {
                    "name": "E5",
                    "midi": 76,
                    "time": 507.1925486666492,
                    "velocity": 0.29133858267716534,
                    "duration": 0.13831266666664987
                },
                {
                    "name": "A4",
                    "midi": 69,
                    "time": 507.33086133331585,
                    "velocity": 0.2992125984251969,
                    "duration": 0.13831266666664987
                },
                {
                    "name": "E5",
                    "midi": 76,
                    "time": 507.4691739999825,
                    "velocity": 0.33858267716535434,
                    "duration": 0.13831266666664987
                },
                {
                    "name": "G5",
                    "midi": 79,
                    "time": 507.60748666664915,
                    "velocity": 0.30708661417322836,
                    "duration": 0.13831266666664987
                },
                {
                    "name": "E5",
                    "midi": 76,
                    "time": 507.7457993333158,
                    "velocity": 0.30708661417322836,
                    "duration": 0.13831266666664987
                },
                {
                    "name": "A4",
                    "midi": 69,
                    "time": 507.88411199998245,
                    "velocity": 0.33858267716535434,
                    "duration": 0.13831266666664987
                },
                {
                    "name": "D5",
                    "midi": 74,
                    "time": 508.0224246666491,
                    "velocity": 0.2992125984251969,
                    "duration": 0.13831266666664987
                },
                {
                    "name": "A4",
                    "midi": 69,
                    "time": 508.16073733331575,
                    "velocity": 0.2992125984251969,
                    "duration": 0.13831266666664987
                },
                {
                    "name": "D5",
                    "midi": 74,
                    "time": 508.2990499999824,
                    "velocity": 0.33858267716535434,
                    "duration": 0.13831266666664987
                },
                {
                    "name": "F#5",
                    "midi": 78,
                    "time": 508.43736266664905,
                    "velocity": 0.2992125984251969,
                    "duration": 0.13831266666664987
                },
                {
                    "name": "D5",
                    "midi": 74,
                    "time": 508.5756753333157,
                    "velocity": 0.2992125984251969,
                    "duration": 0.12102358333333996
                },
                {
                    "name": "A4",
                    "midi": 69,
                    "time": 508.71398799998235,
                    "velocity": 0.33858267716535434,
                    "duration": 0.13831266666664987
                },
                {
                    "name": "C#5",
                    "midi": 73,
                    "time": 508.852300666649,
                    "velocity": 0.29133858267716534,
                    "duration": 0.13831266666664987
                },
                {
                    "name": "A4",
                    "midi": 69,
                    "time": 508.99061333331565,
                    "velocity": 0.29133858267716534,
                    "duration": 0.13831266666664987
                },
                {
                    "name": "C#5",
                    "midi": 73,
                    "time": 509.1289259999823,
                    "velocity": 0.33858267716535434,
                    "duration": 0.13831266666664987
                },
                {
                    "name": "E5",
                    "midi": 76,
                    "time": 509.26723866664895,
                    "velocity": 0.29133858267716534,
                    "duration": 0.13831266666664987
                },
                {
                    "name": "C#5",
                    "midi": 73,
                    "time": 509.4055513333156,
                    "velocity": 0.29133858267716534,
                    "duration": 0.13831266666664987
                },
                {
                    "name": "F#5",
                    "midi": 78,
                    "time": 509.54386399998225,
                    "velocity": 0.33070866141732286,
                    "duration": 0.13831266666664987
                },
                {
                    "name": "A5",
                    "midi": 81,
                    "time": 509.6821766666489,
                    "velocity": 0.29133858267716534,
                    "duration": 0.13831266666664987
                },
                {
                    "name": "F#5",
                    "midi": 78,
                    "time": 509.82048933331555,
                    "velocity": 0.29133858267716534,
                    "duration": 0.13831266666664987
                },
                {
                    "name": "A5",
                    "midi": 81,
                    "time": 509.9588019999822,
                    "velocity": 0.33858267716535434,
                    "duration": 0.13831266666664987
                },
                {
                    "name": "D6",
                    "midi": 86,
                    "time": 510.09711466664885,
                    "velocity": 0.28346456692913385,
                    "duration": 0.13831266666664987
                },
                {
                    "name": "A5",
                    "midi": 81,
                    "time": 510.2354273333155,
                    "velocity": 0.29133858267716534,
                    "duration": 0.12102358333333996
                },
                {
                    "name": "A5",
                    "midi": 81,
                    "time": 510.37373999998215,
                    "velocity": 0.33858267716535434,
                    "duration": 0.13831266666664987
                },
                {
                    "name": "C#6",
                    "midi": 85,
                    "time": 510.5120526666488,
                    "velocity": 0.29133858267716534,
                    "duration": 0.13831266666664987
                },
                {
                    "name": "A5",
                    "midi": 81,
                    "time": 510.65036533331545,
                    "velocity": 0.2992125984251969,
                    "duration": 0.13831266666664987
                },
                {
                    "name": "C#6",
                    "midi": 85,
                    "time": 510.7886779999821,
                    "velocity": 0.33858267716535434,
                    "duration": 0.13831266666664987
                },
                {
                    "name": "E6",
                    "midi": 88,
                    "time": 510.92699066664875,
                    "velocity": 0.30708661417322836,
                    "duration": 0.13831266666664987
                },
                {
                    "name": "C#6",
                    "midi": 85,
                    "time": 511.0653033333154,
                    "velocity": 0.30708661417322836,
                    "duration": 0.13831266666664987
                },
                {
                    "name": "A5",
                    "midi": 81,
                    "time": 511.20361599998205,
                    "velocity": 0.3937007874015748,
                    "duration": 0.13831266666664987
                },
                {
                    "name": "D6",
                    "midi": 86,
                    "time": 511.3419286666487,
                    "velocity": 0.3228346456692913,
                    "duration": 0.13831266666664987
                },
                {
                    "name": "A5",
                    "midi": 81,
                    "time": 511.48024133331535,
                    "velocity": 0.3228346456692913,
                    "duration": 0.13831266666664987
                },
                {
                    "name": "D6",
                    "midi": 86,
                    "time": 511.618553999982,
                    "velocity": 0.3779527559055118,
                    "duration": 0.13831266666664987
                },
                {
                    "name": "F#6",
                    "midi": 90,
                    "time": 511.75686666664865,
                    "velocity": 0.2992125984251969,
                    "duration": 0.13831266666664987
                },
                {
                    "name": "D6",
                    "midi": 86,
                    "time": 511.8951793333153,
                    "velocity": 0.2992125984251969,
                    "duration": 0.12102358333328311
                },
                {
                    "name": "D6",
                    "midi": 86,
                    "time": 512.033491999982,
                    "velocity": 0.3700787401574803,
                    "duration": 0.13831266666670672
                },
                {
                    "name": "F6",
                    "midi": 89,
                    "time": 512.1718046666487,
                    "velocity": 0.31496062992125984,
                    "duration": 0.13831266666670672
                },
                {
                    "name": "D6",
                    "midi": 86,
                    "time": 512.3101173333154,
                    "velocity": 0.31496062992125984,
                    "duration": 0.13831266666670672
                },
                {
                    "name": "F6",
                    "midi": 89,
                    "time": 512.4484299999821,
                    "velocity": 0.3858267716535433,
                    "duration": 0.13831266666670672
                },
                {
                    "name": "G#6",
                    "midi": 92,
                    "time": 512.5867426666488,
                    "velocity": 0.33858267716535434,
                    "duration": 0.13831266666670672
                },
                {
                    "name": "F6",
                    "midi": 89,
                    "time": 512.7250553333155,
                    "velocity": 0.33858267716535434,
                    "duration": 0.13831266666670672
                },
                {
                    "name": "D6",
                    "midi": 86,
                    "time": 512.8633679999822,
                    "velocity": 0.4330708661417323,
                    "duration": 0.13831266666670672
                },
                {
                    "name": "F6",
                    "midi": 89,
                    "time": 513.0016806666489,
                    "velocity": 0.3858267716535433,
                    "duration": 0.13831266666670672
                },
                {
                    "name": "D6",
                    "midi": 86,
                    "time": 513.1399933333156,
                    "velocity": 0.3858267716535433,
                    "duration": 0.13831266666670672
                },
                {
                    "name": "F6",
                    "midi": 89,
                    "time": 513.2783059999823,
                    "velocity": 0.4330708661417323,
                    "duration": 0.13831266666670672
                },
                {
                    "name": "G#6",
                    "midi": 92,
                    "time": 513.416618666649,
                    "velocity": 0.3858267716535433,
                    "duration": 0.13831266666670672
                },
                {
                    "name": "F6",
                    "midi": 89,
                    "time": 513.5549313333157,
                    "velocity": 0.3858267716535433,
                    "duration": 0.12102358333333996
                },
                {
                    "name": "D6",
                    "midi": 86,
                    "time": 513.6932439999824,
                    "velocity": 0.33858267716535434,
                    "duration": 0.13831266666670672
                },
                {
                    "name": "F6",
                    "midi": 89,
                    "time": 513.8315566666491,
                    "velocity": 0.29133858267716534,
                    "duration": 0.13831266666670672
                },
                {
                    "name": "D6",
                    "midi": 86,
                    "time": 513.9698693333158,
                    "velocity": 0.29133858267716534,
                    "duration": 0.13831266666670672
                },
                {
                    "name": "F6",
                    "midi": 89,
                    "time": 514.1081819999825,
                    "velocity": 0.33858267716535434,
                    "duration": 0.13831266666670672
                },
                {
                    "name": "G#6",
                    "midi": 92,
                    "time": 514.2464946666493,
                    "velocity": 0.29133858267716534,
                    "duration": 0.13831266666670672
                },
                {
                    "name": "F6",
                    "midi": 89,
                    "time": 514.384807333316,
                    "velocity": 0.29133858267716534,
                    "duration": 0.13831266666670672
                },
                {
                    "name": "D6",
                    "midi": 86,
                    "time": 514.5231199999827,
                    "velocity": 0.33858267716535434,
                    "duration": 0.13831266666670672
                },
                {
                    "name": "F6",
                    "midi": 89,
                    "time": 514.6614326666494,
                    "velocity": 0.2992125984251969,
                    "duration": 0.13831266666670672
                },
                {
                    "name": "D6",
                    "midi": 86,
                    "time": 514.7997453333161,
                    "velocity": 0.2992125984251969,
                    "duration": 0.13831266666670672
                },
                {
                    "name": "F6",
                    "midi": 89,
                    "time": 514.9380579999828,
                    "velocity": 0.33858267716535434,
                    "duration": 0.13831266666670672
                },
                {
                    "name": "G#6",
                    "midi": 92,
                    "time": 515.0763706666495,
                    "velocity": 0.2992125984251969,
                    "duration": 0.13831266666670672
                },
                {
                    "name": "F6",
                    "midi": 89,
                    "time": 515.2146833333162,
                    "velocity": 0.2992125984251969,
                    "duration": 0.12102358333333996
                },
                {
                    "name": "D6",
                    "midi": 86,
                    "time": 515.3529959999829,
                    "velocity": 0.33858267716535434,
                    "duration": 0.13831266666670672
                },
                {
                    "name": "F6",
                    "midi": 89,
                    "time": 515.4913086666496,
                    "velocity": 0.29133858267716534,
                    "duration": 0.13831266666670672
                },
                {
                    "name": "D6",
                    "midi": 86,
                    "time": 515.6296213333163,
                    "velocity": 0.29133858267716534,
                    "duration": 0.13831266666670672
                },
                {
                    "name": "F6",
                    "midi": 89,
                    "time": 515.767933999983,
                    "velocity": 0.33858267716535434,
                    "duration": 0.13831266666670672
                },
                {
                    "name": "A#6",
                    "midi": 94,
                    "time": 515.9062466666497,
                    "velocity": 0.29133858267716534,
                    "duration": 0.13831266666670672
                },
                {
                    "name": "F6",
                    "midi": 89,
                    "time": 516.0445593333164,
                    "velocity": 0.29133858267716534,
                    "duration": 0.13831266666670672
                },
                {
                    "name": "D6",
                    "midi": 86,
                    "time": 516.1828719999831,
                    "velocity": 0.33858267716535434,
                    "duration": 0.13831266666670672
                },
                {
                    "name": "F6",
                    "midi": 89,
                    "time": 516.3211846666499,
                    "velocity": 0.2992125984251969,
                    "duration": 0.13831266666670672
                },
                {
                    "name": "D6",
                    "midi": 86,
                    "time": 516.4594973333166,
                    "velocity": 0.2992125984251969,
                    "duration": 0.13831266666670672
                },
                {
                    "name": "F6",
                    "midi": 89,
                    "time": 516.5978099999833,
                    "velocity": 0.33858267716535434,
                    "duration": 0.13831266666670672
                },
                {
                    "name": "A#6",
                    "midi": 94,
                    "time": 516.73612266665,
                    "velocity": 0.2992125984251969,
                    "duration": 0.13831266666670672
                },
                {
                    "name": "F6",
                    "midi": 89,
                    "time": 516.8744353333167,
                    "velocity": 0.2992125984251969,
                    "duration": 0.12102358333333996
                },
                {
                    "name": "D6",
                    "midi": 86,
                    "time": 517.0127479999834,
                    "velocity": 0.33858267716535434,
                    "duration": 0.13831266666670672
                },
                {
                    "name": "F6",
                    "midi": 89,
                    "time": 517.1510606666501,
                    "velocity": 0.29133858267716534,
                    "duration": 0.13831266666670672
                },
                {
                    "name": "D6",
                    "midi": 86,
                    "time": 517.2893733333168,
                    "velocity": 0.28346456692913385,
                    "duration": 0.13831266666670672
                },
                {
                    "name": "F6",
                    "midi": 89,
                    "time": 517.4276859999835,
                    "velocity": 0.33070866141732286,
                    "duration": 0.13831266666670672
                },
                {
                    "name": "A#6",
                    "midi": 94,
                    "time": 517.5659986666502,
                    "velocity": 0.28346456692913385,
                    "duration": 0.13831266666670672
                },
                {
                    "name": "F6",
                    "midi": 89,
                    "time": 517.7043113333169,
                    "velocity": 0.28346456692913385,
                    "duration": 0.13831266666670672
                },
                {
                    "name": "D#6",
                    "midi": 87,
                    "time": 517.8426239999836,
                    "velocity": 0.3228346456692913,
                    "duration": 0.13831266666670672
                },
                {
                    "name": "G6",
                    "midi": 91,
                    "time": 517.9809366666503,
                    "velocity": 0.28346456692913385,
                    "duration": 0.13831266666670672
                },
                {
                    "name": "D#6",
                    "midi": 87,
                    "time": 518.119249333317,
                    "velocity": 0.28346456692913385,
                    "duration": 0.13831266666670672
                },
                {
                    "name": "G6",
                    "midi": 91,
                    "time": 518.2575619999837,
                    "velocity": 0.31496062992125984,
                    "duration": 0.13831266666670672
                },
                {
                    "name": "A#6",
                    "midi": 94,
                    "time": 518.3958746666505,
                    "velocity": 0.28346456692913385,
                    "duration": 0.13831266666670672
                },
                {
                    "name": "G6",
                    "midi": 91,
                    "time": 518.5341873333172,
                    "velocity": 0.2755905511811024,
                    "duration": 0.12102358333333996
                },
                {
                    "name": "C#6",
                    "midi": 85,
                    "time": 518.6724999999839,
                    "velocity": 0.30708661417322836,
                    "duration": 0.13831266666670672
                },
                {
                    "name": "E6",
                    "midi": 88,
                    "time": 518.8108126666506,
                    "velocity": 0.2677165354330709,
                    "duration": 0.13831266666670672
                },
                {
                    "name": "C#6",
                    "midi": 85,
                    "time": 518.9491253333173,
                    "velocity": 0.2677165354330709,
                    "duration": 0.13831266666670672
                },
                {
                    "name": "E6",
                    "midi": 88,
                    "time": 519.087437999984,
                    "velocity": 0.30708661417322836,
                    "duration": 0.13831266666670672
                },
                {
                    "name": "A6",
                    "midi": 93,
                    "time": 519.2257506666507,
                    "velocity": 0.25984251968503935,
                    "duration": 0.13831266666670672
                },
                {
                    "name": "E6",
                    "midi": 88,
                    "time": 519.3640633333174,
                    "velocity": 0.25984251968503935,
                    "duration": 0.13831266666670672
                },
                {
                    "name": "D6",
                    "midi": 86,
                    "time": 519.5023759999841,
                    "velocity": 0.2992125984251969,
                    "duration": 0.13831266666670672
                },
                {
                    "name": "F#6",
                    "midi": 90,
                    "time": 519.6406886666508,
                    "velocity": 0.25984251968503935,
                    "duration": 0.13831266666670672
                },
                {
                    "name": "D6",
                    "midi": 86,
                    "time": 519.7790013333175,
                    "velocity": 0.25984251968503935,
                    "duration": 0.13831266666670672
                },
                {
                    "name": "F#6",
                    "midi": 90,
                    "time": 519.9173139999842,
                    "velocity": 0.29133858267716534,
                    "duration": 0.13831266666670672
                },
                {
                    "name": "A6",
                    "midi": 93,
                    "time": 520.0556266666509,
                    "velocity": 0.25984251968503935,
                    "duration": 0.13831266666670672
                },
                {
                    "name": "F#6",
                    "midi": 90,
                    "time": 520.1939393333176,
                    "velocity": 0.25984251968503935,
                    "duration": 0.12102358333333996
                },
                {
                    "name": "G5",
                    "midi": 79,
                    "time": 520.3322519999844,
                    "velocity": 0.28346456692913385,
                    "duration": 0.13831266666670672
                },
                {
                    "name": "D6",
                    "midi": 86,
                    "time": 520.4705646666511,
                    "velocity": 0.2440944881889764,
                    "duration": 0.13831266666670672
                },
                {
                    "name": "G5",
                    "midi": 79,
                    "time": 520.6088773333178,
                    "velocity": 0.2440944881889764,
                    "duration": 0.1296681249999665
                },
                {
                    "name": "D6",
                    "midi": 86,
                    "time": 520.7471899999844,
                    "velocity": 0.28346456692913385,
                    "duration": 0.13831266666670672
                },
                {
                    "name": "G6",
                    "midi": 91,
                    "time": 520.8855026666511,
                    "velocity": 0.2440944881889764,
                    "duration": 0.13831266666670672
                },
                {
                    "name": "D6",
                    "midi": 86,
                    "time": 521.0238153333178,
                    "velocity": 0.23622047244094488,
                    "duration": 0.13831266666670672
                },
                {
                    "name": "A5",
                    "midi": 81,
                    "time": 521.1621279999845,
                    "velocity": 0.2755905511811024,
                    "duration": 0.13831266666670672
                },
                {
                    "name": "D6",
                    "midi": 86,
                    "time": 521.3004406666512,
                    "velocity": 0.2440944881889764,
                    "duration": 0.13831266666670672
                },
                {
                    "name": "A5",
                    "midi": 81,
                    "time": 521.4387533333179,
                    "velocity": 0.23622047244094488,
                    "duration": 0.13831266666670672
                },
                {
                    "name": "D6",
                    "midi": 86,
                    "time": 521.5770659999846,
                    "velocity": 0.2677165354330709,
                    "duration": 0.13831266666670672
                },
                {
                    "name": "F#6",
                    "midi": 90,
                    "time": 521.7153786666513,
                    "velocity": 0.23622047244094488,
                    "duration": 0.13831266666670672
                },
                {
                    "name": "D6",
                    "midi": 86,
                    "time": 521.853691333318,
                    "velocity": 0.23622047244094488,
                    "duration": 0.12102358333333996
                },
                {
                    "name": "A5",
                    "midi": 81,
                    "time": 521.9920039999847,
                    "velocity": 0.25984251968503935,
                    "duration": 0.13831266666670672
                },
                {
                    "name": "E6",
                    "midi": 88,
                    "time": 522.1303166666514,
                    "velocity": 0.2204724409448819,
                    "duration": 0.13831266666670672
                },
                {
                    "name": "C#6",
                    "midi": 85,
                    "time": 522.2686293333181,
                    "velocity": 0.2204724409448819,
                    "duration": 0.1296681249999665
                },
                {
                    "name": "A5",
                    "midi": 81,
                    "time": 522.4069419999847,
                    "velocity": 0.25984251968503935,
                    "duration": 0.13831266666670672
                },
                {
                    "name": "G5",
                    "midi": 79,
                    "time": 522.5452546666514,
                    "velocity": 0.2204724409448819,
                    "duration": 0.13831266666670672
                },
                {
                    "name": "E5",
                    "midi": 76,
                    "time": 522.6835673333181,
                    "velocity": 0.2204724409448819,
                    "duration": 0.13831266666670672
                },
                {
                    "name": "C5",
                    "midi": 72,
                    "time": 522.8218799999848,
                    "velocity": 0.6850393700787402,
                    "duration": 0.13831266666670672
                },
                {
                    "name": "D5",
                    "midi": 74,
                    "time": 522.9601926666516,
                    "velocity": 0.4330708661417323,
                    "duration": 0.13831266666670672
                },
                {
                    "name": "C5",
                    "midi": 72,
                    "time": 523.0985053333183,
                    "velocity": 0.4330708661417323,
                    "duration": 0.13831266666670672
                },
                {
                    "name": "A4",
                    "midi": 69,
                    "time": 523.236817999985,
                    "velocity": 0.48031496062992124,
                    "duration": 0.13831266666670672
                },
                {
                    "name": "F#4",
                    "midi": 66,
                    "time": 523.3751306666517,
                    "velocity": 0.4330708661417323,
                    "duration": 0.13831266666670672
                },
                {
                    "name": "D4",
                    "midi": 62,
                    "time": 523.5134433333184,
                    "velocity": 0.4330708661417323,
                    "duration": 0.13831266666670672
                },
                {
                    "name": "C4",
                    "midi": 60,
                    "time": 523.6517559999851,
                    "velocity": 0.5905511811023622,
                    "duration": 0.13831266666670672
                },
                {
                    "name": "D4",
                    "midi": 62,
                    "time": 523.7900686666518,
                    "velocity": 0.3779527559055118,
                    "duration": 0.13831266666670672
                },
                {
                    "name": "C4",
                    "midi": 60,
                    "time": 523.9283813333185,
                    "velocity": 0.3779527559055118,
                    "duration": 0.13831266666670672
                },
                {
                    "name": "D4",
                    "midi": 62,
                    "time": 524.0666939999852,
                    "velocity": 0.4251968503937008,
                    "duration": 0.13831266666670672
                },
                {
                    "name": "C4",
                    "midi": 60,
                    "time": 524.2050066666519,
                    "velocity": 0.3937007874015748,
                    "duration": 0.13831266666670672
                },
                {
                    "name": "D4",
                    "midi": 62,
                    "time": 524.3433193333186,
                    "velocity": 0.3937007874015748,
                    "duration": 0.13831266666670672
                },
                {
                    "name": "A#4",
                    "midi": 70,
                    "time": 524.4816319999853,
                    "velocity": 0.6614173228346457,
                    "duration": 0.13831266666670672
                },
                {
                    "name": "D5",
                    "midi": 74,
                    "time": 524.619944666652,
                    "velocity": 0.4330708661417323,
                    "duration": 0.13831266666670672
                },
                {
                    "name": "C5",
                    "midi": 72,
                    "time": 524.7582573333187,
                    "velocity": 0.4330708661417323,
                    "duration": 0.13831266666670672
                },
                {
                    "name": "A#4",
                    "midi": 70,
                    "time": 524.8965699999854,
                    "velocity": 0.48031496062992124,
                    "duration": 0.13831266666670672
                },
                {
                    "name": "F4",
                    "midi": 65,
                    "time": 525.0348826666522,
                    "velocity": 0.4330708661417323,
                    "duration": 0.13831266666670672
                },
                {
                    "name": "D4",
                    "midi": 62,
                    "time": 525.1731953333189,
                    "velocity": 0.4330708661417323,
                    "duration": 0.13831266666670672
                },
                {
                    "name": "A#3",
                    "midi": 58,
                    "time": 525.3115079999856,
                    "velocity": 0.6062992125984252,
                    "duration": 0.13831266666670672
                },
                {
                    "name": "D4",
                    "midi": 62,
                    "time": 525.4498206666523,
                    "velocity": 0.3779527559055118,
                    "duration": 0.13831266666670672
                },
                {
                    "name": "A#3",
                    "midi": 58,
                    "time": 525.588133333319,
                    "velocity": 0.3779527559055118,
                    "duration": 0.13831266666670672
                },
                {
                    "name": "D4",
                    "midi": 62,
                    "time": 525.7264459999857,
                    "velocity": 0.4251968503937008,
                    "duration": 0.13831266666670672
                },
                {
                    "name": "A#3",
                    "midi": 58,
                    "time": 525.8647586666524,
                    "velocity": 0.3937007874015748,
                    "duration": 0.13831266666670672
                },
                {
                    "name": "D4",
                    "midi": 62,
                    "time": 526.0030713333191,
                    "velocity": 0.3937007874015748,
                    "duration": 0.13831266666670672
                },
                {
                    "name": "C5",
                    "midi": 72,
                    "time": 526.1413839999858,
                    "velocity": 0.6929133858267716,
                    "duration": 0.13831266666670672
                },
                {
                    "name": "D5",
                    "midi": 74,
                    "time": 526.2796966666525,
                    "velocity": 0.4330708661417323,
                    "duration": 0.13831266666670672
                },
                {
                    "name": "C5",
                    "midi": 72,
                    "time": 526.4180093333192,
                    "velocity": 0.4330708661417323,
                    "duration": 0.13831266666670672
                },
                {
                    "name": "A4",
                    "midi": 69,
                    "time": 526.5563219999859,
                    "velocity": 0.48031496062992124,
                    "duration": 0.13831266666670672
                },
                {
                    "name": "F#4",
                    "midi": 66,
                    "time": 526.6946346666526,
                    "velocity": 0.4330708661417323,
                    "duration": 0.13831266666670672
                },
                {
                    "name": "D4",
                    "midi": 62,
                    "time": 526.8329473333193,
                    "velocity": 0.4330708661417323,
                    "duration": 0.13831266666670672
                },
                {
                    "name": "C4",
                    "midi": 60,
                    "time": 526.971259999986,
                    "velocity": 0.5905511811023622,
                    "duration": 0.13831266666670672
                },
                {
                    "name": "D4",
                    "midi": 62,
                    "time": 527.1095726666528,
                    "velocity": 0.3779527559055118,
                    "duration": 0.13831266666670672
                },
                {
                    "name": "C4",
                    "midi": 60,
                    "time": 527.2478853333195,
                    "velocity": 0.3779527559055118,
                    "duration": 0.13831266666670672
                },
                {
                    "name": "D4",
                    "midi": 62,
                    "time": 527.3861979999862,
                    "velocity": 0.4251968503937008,
                    "duration": 0.13831266666670672
                },
                {
                    "name": "C4",
                    "midi": 60,
                    "time": 527.5245106666529,
                    "velocity": 0.3937007874015748,
                    "duration": 0.13831266666670672
                },
                {
                    "name": "D4",
                    "midi": 62,
                    "time": 527.6628233333196,
                    "velocity": 0.3937007874015748,
                    "duration": 0.13831266666670672
                },
                {
                    "name": "A#4",
                    "midi": 70,
                    "time": 527.8011359999863,
                    "velocity": 0.6850393700787402,
                    "duration": 0.13831266666670672
                },
                {
                    "name": "D5",
                    "midi": 74,
                    "time": 527.939448666653,
                    "velocity": 0.4330708661417323,
                    "duration": 0.13831266666670672
                },
                {
                    "name": "C5",
                    "midi": 72,
                    "time": 528.0777613333197,
                    "velocity": 0.4330708661417323,
                    "duration": 0.13831266666670672
                },
                {
                    "name": "A#4",
                    "midi": 70,
                    "time": 528.2160739999864,
                    "velocity": 0.48031496062992124,
                    "duration": 0.13831266666670672
                },
                {
                    "name": "F4",
                    "midi": 65,
                    "time": 528.3543866666531,
                    "velocity": 0.4330708661417323,
                    "duration": 0.13831266666670672
                },
                {
                    "name": "D4",
                    "midi": 62,
                    "time": 528.4926993333198,
                    "velocity": 0.4330708661417323,
                    "duration": 0.13831266666670672
                },
                {
                    "name": "A#3",
                    "midi": 58,
                    "time": 528.6310119999865,
                    "velocity": 0.6062992125984252,
                    "duration": 0.13831266666670672
                },
                {
                    "name": "D4",
                    "midi": 62,
                    "time": 528.7693246666532,
                    "velocity": 0.3779527559055118,
                    "duration": 0.13831266666670672
                },
                {
                    "name": "A#3",
                    "midi": 58,
                    "time": 528.9076373333199,
                    "velocity": 0.3779527559055118,
                    "duration": 0.13831266666670672
                },
                {
                    "name": "D4",
                    "midi": 62,
                    "time": 529.0459499999866,
                    "velocity": 0.4251968503937008,
                    "duration": 0.13831266666670672
                },
                {
                    "name": "A#3",
                    "midi": 58,
                    "time": 529.1842626666534,
                    "velocity": 0.3937007874015748,
                    "duration": 0.13831266666670672
                },
                {
                    "name": "D4",
                    "midi": 62,
                    "time": 529.3225753333201,
                    "velocity": 0.3937007874015748,
                    "duration": 0.13831266666670672
                },
                {
                    "name": "F#5",
                    "midi": 78,
                    "time": 529.8758259999868,
                    "velocity": 0.3464566929133858,
                    "duration": 0.3112035000000333
                },
                {
                    "name": "A5",
                    "midi": 81,
                    "time": 529.8758259999868,
                    "velocity": 0.3464566929133858,
                    "duration": 0.3112035000000333
                },
                {
                    "name": "F#5",
                    "midi": 78,
                    "time": 530.1870294999868,
                    "velocity": 0.30708661417322836,
                    "duration": 0.1037344999999732
                },
                {
                    "name": "A5",
                    "midi": 81,
                    "time": 530.1870294999868,
                    "velocity": 0.30708661417322836,
                    "duration": 0.1037344999999732
                },
                {
                    "name": "E5",
                    "midi": 76,
                    "time": 530.2907639999868,
                    "velocity": 0.3464566929133858,
                    "duration": 0.20746900000006008
                },
                {
                    "name": "G5",
                    "midi": 79,
                    "time": 530.2907639999868,
                    "velocity": 0.3464566929133858,
                    "duration": 0.20746900000006008
                },
                {
                    "name": "G4",
                    "midi": 67,
                    "time": 530.2907639999868,
                    "velocity": 0.3464566929133858,
                    "duration": 0.13831266666670672
                },
                {
                    "name": "A4",
                    "midi": 69,
                    "time": 530.4290766666535,
                    "velocity": 0.3464566929133858,
                    "duration": 0.13831266666670672
                },
                {
                    "name": "B4",
                    "midi": 71,
                    "time": 530.5673893333202,
                    "velocity": 0.33858267716535434,
                    "duration": 0.13831266666670672
                },
                {
                    "name": "C#5",
                    "midi": 73,
                    "time": 530.7057019999869,
                    "velocity": 0.3543307086614173,
                    "duration": 0.13831266666670672
                },
                {
                    "name": "D5",
                    "midi": 74,
                    "time": 530.8440146666536,
                    "velocity": 0.3779527559055118,
                    "duration": 0.13831266666670672
                },
                {
                    "name": "E5",
                    "midi": 76,
                    "time": 530.9823273333203,
                    "velocity": 0.3858267716535433,
                    "duration": 0.13831266666670672
                },
                {
                    "name": "F#5",
                    "midi": 78,
                    "time": 531.120639999987,
                    "velocity": 0.3543307086614173,
                    "duration": 0.13831266666670672
                },
                {
                    "name": "G5",
                    "midi": 79,
                    "time": 531.2589526666537,
                    "velocity": 0.3779527559055118,
                    "duration": 0.13831266666670672
                },
                {
                    "name": "A5",
                    "midi": 81,
                    "time": 531.3972653333204,
                    "velocity": 0.3779527559055118,
                    "duration": 0.1357193041666278
                },
                {
                    "name": "B5",
                    "midi": 83,
                    "time": 531.535577999987,
                    "velocity": 0.3937007874015748,
                    "duration": 0.13831266666670672
                },
                {
                    "name": "C#6",
                    "midi": 85,
                    "time": 531.6738906666537,
                    "velocity": 0.4094488188976378,
                    "duration": 0.13831266666670672
                },
                {
                    "name": "D6",
                    "midi": 86,
                    "time": 531.8122033333204,
                    "velocity": 0.4094488188976378,
                    "duration": 0.13831266666670672
                },
                {
                    "name": "E6",
                    "midi": 88,
                    "time": 531.9505159999871,
                    "velocity": 0.4251968503937008,
                    "duration": 0.13831266666670672
                },
                {
                    "name": "F#6",
                    "midi": 90,
                    "time": 532.0888286666539,
                    "velocity": 0.4409448818897638,
                    "duration": 0.13831266666670672
                },
                {
                    "name": "G6",
                    "midi": 91,
                    "time": 532.2271413333206,
                    "velocity": 0.4409448818897638,
                    "duration": 0.13831266666670672
                },
                {
                    "name": "A6",
                    "midi": 93,
                    "time": 532.3654539999873,
                    "velocity": 0.4566929133858268,
                    "duration": 0.13831266666670672
                },
                {
                    "name": "B6",
                    "midi": 95,
                    "time": 532.503766666654,
                    "velocity": 0.47244094488188976,
                    "duration": 0.13831266666670672
                },
                {
                    "name": "C#7",
                    "midi": 97,
                    "time": 532.6420793333207,
                    "velocity": 0.47244094488188976,
                    "duration": 0.13831266666670672
                },
                {
                    "name": "D7",
                    "midi": 98,
                    "time": 532.7803919999874,
                    "velocity": 0.4881889763779528,
                    "duration": 0.13831266666670672
                },
                {
                    "name": "C#7",
                    "midi": 97,
                    "time": 532.9187046666541,
                    "velocity": 0.4881889763779528,
                    "duration": 0.13831266666670672
                },
                {
                    "name": "B6",
                    "midi": 95,
                    "time": 533.0570173333208,
                    "velocity": 0.47244094488188976,
                    "duration": 0.13831266666670672
                },
                {
                    "name": "A6",
                    "midi": 93,
                    "time": 533.1953299999875,
                    "velocity": 0.47244094488188976,
                    "duration": 0.13831266666670672
                },
                {
                    "name": "G6",
                    "midi": 91,
                    "time": 533.3336426666542,
                    "velocity": 0.4566929133858268,
                    "duration": 0.13831266666670672
                },
                {
                    "name": "F#6",
                    "midi": 90,
                    "time": 533.4719553333209,
                    "velocity": 0.4409448818897638,
                    "duration": 0.13831266666670672
                },
                {
                    "name": "E6",
                    "midi": 88,
                    "time": 533.6102679999876,
                    "velocity": 0.4330708661417323,
                    "duration": 0.13831266666670672
                },
                {
                    "name": "D6",
                    "midi": 86,
                    "time": 533.7485806666543,
                    "velocity": 0.4251968503937008,
                    "duration": 0.13831266666670672
                },
                {
                    "name": "C#6",
                    "midi": 85,
                    "time": 533.886893333321,
                    "velocity": 0.4094488188976378,
                    "duration": 0.13831266666670672
                },
                {
                    "name": "B5",
                    "midi": 83,
                    "time": 534.0252059999877,
                    "velocity": 0.4015748031496063,
                    "duration": 0.13831266666670672
                },
                {
                    "name": "A5",
                    "midi": 81,
                    "time": 534.1635186666545,
                    "velocity": 0.3937007874015748,
                    "duration": 0.13831266666670672
                },
                {
                    "name": "G5",
                    "midi": 79,
                    "time": 534.3018313333212,
                    "velocity": 0.3779527559055118,
                    "duration": 0.13831266666670672
                },
                {
                    "name": "F#5",
                    "midi": 78,
                    "time": 534.4401439999879,
                    "velocity": 0.36220472440944884,
                    "duration": 0.13831266666670672
                },
                {
                    "name": "E5",
                    "midi": 76,
                    "time": 534.5784566666546,
                    "velocity": 0.3543307086614173,
                    "duration": 0.13831266666670672
                },
                {
                    "name": "D5",
                    "midi": 74,
                    "time": 534.7167693333213,
                    "velocity": 0.3464566929133858,
                    "duration": 0.13831266666670672
                },
                {
                    "name": "C#5",
                    "midi": 73,
                    "time": 534.855081999988,
                    "velocity": 0.33858267716535434,
                    "duration": 0.13831266666670672
                },
                {
                    "name": "B4",
                    "midi": 71,
                    "time": 534.9933946666547,
                    "velocity": 0.3228346456692913,
                    "duration": 0.13831266666670672
                },
                {
                    "name": "A4",
                    "midi": 69,
                    "time": 535.1317073333214,
                    "velocity": 0.31496062992125984,
                    "duration": 0.13831266666670672
                },
                {
                    "name": "G4",
                    "midi": 67,
                    "time": 535.2700199999881,
                    "velocity": 0.31496062992125984,
                    "duration": 0.13831266666670672
                },
                {
                    "name": "B4",
                    "midi": 71,
                    "time": 535.4083326666548,
                    "velocity": 0.30708661417322836,
                    "duration": 0.13831266666670672
                },
                {
                    "name": "A4",
                    "midi": 69,
                    "time": 535.5466453333215,
                    "velocity": 0.29133858267716534,
                    "duration": 0.13831266666670672
                },
                {
                    "name": "G4",
                    "midi": 67,
                    "time": 535.6849579999882,
                    "velocity": 0.2755905511811024,
                    "duration": 0.13831266666670672
                },
                {
                    "name": "F#4",
                    "midi": 66,
                    "time": 535.8232706666549,
                    "velocity": 0.25984251968503935,
                    "duration": 0.13831266666670672
                },
                {
                    "name": "E4",
                    "midi": 64,
                    "time": 535.9615833333216,
                    "velocity": 0.2440944881889764,
                    "duration": 0.13831266666670672
                },
                {
                    "name": "C5",
                    "midi": 72,
                    "time": 536.0998959999883,
                    "velocity": 0.6535433070866141,
                    "duration": 0.13831266666670672
                },
                {
                    "name": "D5",
                    "midi": 74,
                    "time": 536.238208666655,
                    "velocity": 0.4330708661417323,
                    "duration": 0.13831266666670672
                },
                {
                    "name": "C5",
                    "midi": 72,
                    "time": 536.3765213333218,
                    "velocity": 0.4330708661417323,
                    "duration": 0.13831266666670672
                },
                {
                    "name": "A4",
                    "midi": 69,
                    "time": 536.5148339999885,
                    "velocity": 0.48031496062992124,
                    "duration": 0.13831266666670672
                },
                {
                    "name": "F#4",
                    "midi": 66,
                    "time": 536.6531466666552,
                    "velocity": 0.4330708661417323,
                    "duration": 0.13831266666670672
                },
                {
                    "name": "D4",
                    "midi": 62,
                    "time": 536.7914593333219,
                    "velocity": 0.4330708661417323,
                    "duration": 0.13831266666670672
                },
                {
                    "name": "C4",
                    "midi": 60,
                    "time": 536.9297719999886,
                    "velocity": 0.5905511811023622,
                    "duration": 0.13831266666670672
                },
                {
                    "name": "D4",
                    "midi": 62,
                    "time": 537.0680846666553,
                    "velocity": 0.3779527559055118,
                    "duration": 0.13831266666670672
                },
                {
                    "name": "C4",
                    "midi": 60,
                    "time": 537.206397333322,
                    "velocity": 0.3779527559055118,
                    "duration": 0.13831266666670672
                },
                {
                    "name": "D4",
                    "midi": 62,
                    "time": 537.3447099999887,
                    "velocity": 0.4251968503937008,
                    "duration": 0.13831266666670672
                },
                {
                    "name": "C4",
                    "midi": 60,
                    "time": 537.4830226666554,
                    "velocity": 0.3937007874015748,
                    "duration": 0.13831266666670672
                },
                {
                    "name": "D4",
                    "midi": 62,
                    "time": 537.6213353333221,
                    "velocity": 0.3937007874015748,
                    "duration": 0.13831266666670672
                },
                {
                    "name": "A#4",
                    "midi": 70,
                    "time": 537.7596479999888,
                    "velocity": 0.6614173228346457,
                    "duration": 0.13831266666670672
                },
                {
                    "name": "D5",
                    "midi": 74,
                    "time": 537.8979606666555,
                    "velocity": 0.4330708661417323,
                    "duration": 0.13831266666670672
                },
                {
                    "name": "C5",
                    "midi": 72,
                    "time": 538.0362733333222,
                    "velocity": 0.4330708661417323,
                    "duration": 0.13831266666670672
                },
                {
                    "name": "A#4",
                    "midi": 70,
                    "time": 538.174585999989,
                    "velocity": 0.48031496062992124,
                    "duration": 0.13831266666670672
                },
                {
                    "name": "F4",
                    "midi": 65,
                    "time": 538.3128986666557,
                    "velocity": 0.4330708661417323,
                    "duration": 0.13831266666670672
                },
                {
                    "name": "D4",
                    "midi": 62,
                    "time": 538.4512113333224,
                    "velocity": 0.4330708661417323,
                    "duration": 0.13831266666670672
                },
                {
                    "name": "A#3",
                    "midi": 58,
                    "time": 538.5895239999891,
                    "velocity": 0.6062992125984252,
                    "duration": 0.13831266666670672
                },
                {
                    "name": "D4",
                    "midi": 62,
                    "time": 538.7278366666558,
                    "velocity": 0.3779527559055118,
                    "duration": 0.13831266666670672
                },
                {
                    "name": "A#3",
                    "midi": 58,
                    "time": 538.8661493333225,
                    "velocity": 0.3779527559055118,
                    "duration": 0.13831266666670672
                },
                {
                    "name": "D4",
                    "midi": 62,
                    "time": 539.0044619999892,
                    "velocity": 0.4251968503937008,
                    "duration": 0.13831266666670672
                },
                {
                    "name": "A#3",
                    "midi": 58,
                    "time": 539.1427746666559,
                    "velocity": 0.3937007874015748,
                    "duration": 0.13831266666670672
                },
                {
                    "name": "D4",
                    "midi": 62,
                    "time": 539.2810873333226,
                    "velocity": 0.3937007874015748,
                    "duration": 0.13831266666670672
                },
                {
                    "name": "A#4",
                    "midi": 70,
                    "time": 539.4193999999893,
                    "velocity": 0.6614173228346457,
                    "duration": 0.13831266666670672
                },
                {
                    "name": "C5",
                    "midi": 72,
                    "time": 539.557712666656,
                    "velocity": 0.4330708661417323,
                    "duration": 0.13831266666670672
                },
                {
                    "name": "A#4",
                    "midi": 70,
                    "time": 539.6960253333227,
                    "velocity": 0.4330708661417323,
                    "duration": 0.13831266666670672
                },
                {
                    "name": "G4",
                    "midi": 67,
                    "time": 539.8343379999894,
                    "velocity": 0.48031496062992124,
                    "duration": 0.13831266666670672
                },
                {
                    "name": "E4",
                    "midi": 64,
                    "time": 539.9726506666561,
                    "velocity": 0.4330708661417323,
                    "duration": 0.13831266666670672
                },
                {
                    "name": "C4",
                    "midi": 60,
                    "time": 540.1109633333228,
                    "velocity": 0.4330708661417323,
                    "duration": 0.13831266666670672
                },
                {
                    "name": "A#3",
                    "midi": 58,
                    "time": 540.2492759999895,
                    "velocity": 0.6062992125984252,
                    "duration": 0.13831266666670672
                },
                {
                    "name": "C4",
                    "midi": 60,
                    "time": 540.3875886666563,
                    "velocity": 0.3779527559055118,
                    "duration": 0.13831266666670672
                },
                {
                    "name": "A#3",
                    "midi": 58,
                    "time": 540.525901333323,
                    "velocity": 0.3779527559055118,
                    "duration": 0.13831266666670672
                },
                {
                    "name": "C4",
                    "midi": 60,
                    "time": 540.6642139999897,
                    "velocity": 0.4251968503937008,
                    "duration": 0.13831266666670672
                },
                {
                    "name": "A#3",
                    "midi": 58,
                    "time": 540.8025266666564,
                    "velocity": 0.3937007874015748,
                    "duration": 0.13831266666670672
                },
                {
                    "name": "C4",
                    "midi": 60,
                    "time": 540.9408393333231,
                    "velocity": 0.3937007874015748,
                    "duration": 0.13831266666670672
                },
                {
                    "name": "G#4",
                    "midi": 68,
                    "time": 541.0791519999898,
                    "velocity": 0.6614173228346457,
                    "duration": 0.13831266666670672
                },
                {
                    "name": "C5",
                    "midi": 72,
                    "time": 541.2174646666565,
                    "velocity": 0.4330708661417323,
                    "duration": 0.13831266666670672
                },
                {
                    "name": "A#4",
                    "midi": 70,
                    "time": 541.3557773333232,
                    "velocity": 0.4330708661417323,
                    "duration": 0.13831266666670672
                },
                {
                    "name": "G#4",
                    "midi": 68,
                    "time": 541.4940899999899,
                    "velocity": 0.5511811023622047,
                    "duration": 0.13831266666670672
                },
                {
                    "name": "D#4",
                    "midi": 63,
                    "time": 541.6324026666566,
                    "velocity": 0.4330708661417323,
                    "duration": 0.13831266666670672
                },
                {
                    "name": "C4",
                    "midi": 60,
                    "time": 541.7707153333233,
                    "velocity": 0.4330708661417323,
                    "duration": 0.13831266666670672
                },
                {
                    "name": "G#3",
                    "midi": 56,
                    "time": 541.90902799999,
                    "velocity": 0.6062992125984252,
                    "duration": 0.13831266666670672
                },
                {
                    "name": "C4",
                    "midi": 60,
                    "time": 542.0473406666567,
                    "velocity": 0.3779527559055118,
                    "duration": 0.13831266666670672
                },
                {
                    "name": "G#3",
                    "midi": 56,
                    "time": 542.1856533333234,
                    "velocity": 0.3779527559055118,
                    "duration": 0.13831266666670672
                },
                {
                    "name": "C4",
                    "midi": 60,
                    "time": 542.3239659999902,
                    "velocity": 0.4251968503937008,
                    "duration": 0.13831266666670672
                },
                {
                    "name": "G#3",
                    "midi": 56,
                    "time": 542.4622786666569,
                    "velocity": 0.3937007874015748,
                    "duration": 0.13831266666670672
                },
                {
                    "name": "C4",
                    "midi": 60,
                    "time": 542.6005913333236,
                    "velocity": 0.3937007874015748,
                    "duration": 0.13831266666670672
                },
                {
                    "name": "G#4",
                    "midi": 68,
                    "time": 542.7389039999903,
                    "velocity": 0.6614173228346457,
                    "duration": 0.13831266666670672
                },
                {
                    "name": "A#4",
                    "midi": 70,
                    "time": 542.877216666657,
                    "velocity": 0.4330708661417323,
                    "duration": 0.13831266666670672
                },
                {
                    "name": "G#4",
                    "midi": 68,
                    "time": 543.0155293333237,
                    "velocity": 0.4330708661417323,
                    "duration": 0.13831266666670672
                },
                {
                    "name": "F4",
                    "midi": 65,
                    "time": 543.1538419999904,
                    "velocity": 0.5590551181102362,
                    "duration": 0.13831266666670672
                },
                {
                    "name": "D4",
                    "midi": 62,
                    "time": 543.2921546666571,
                    "velocity": 0.4330708661417323,
                    "duration": 0.13831266666670672
                },
                {
                    "name": "A#3",
                    "midi": 58,
                    "time": 543.4304673333238,
                    "velocity": 0.4330708661417323,
                    "duration": 0.13831266666670672
                },
                {
                    "name": "F#4",
                    "midi": 66,
                    "time": 543.5687799999905,
                    "velocity": 0.6614173228346457,
                    "duration": 0.13831266666670672
                },
                {
                    "name": "A#4",
                    "midi": 70,
                    "time": 543.7070926666572,
                    "velocity": 0.4330708661417323,
                    "duration": 0.13831266666670672
                },
                {
                    "name": "F#4",
                    "midi": 66,
                    "time": 543.8454053333239,
                    "velocity": 0.4330708661417323,
                    "duration": 0.13831266666670672
                },
                {
                    "name": "C#4",
                    "midi": 61,
                    "time": 543.9837179999906,
                    "velocity": 0.48031496062992124,
                    "duration": 0.13831266666670672
                },
                {
                    "name": "A#3",
                    "midi": 58,
                    "time": 544.1220306666573,
                    "velocity": 0.4330708661417323,
                    "duration": 0.13831266666670672
                },
                {
                    "name": "F#3",
                    "midi": 54,
                    "time": 544.260343333324,
                    "velocity": 0.4330708661417323,
                    "duration": 0.13831266666670672
                },
                {
                    "name": "G4",
                    "midi": 67,
                    "time": 544.3986559999908,
                    "velocity": 0.6614173228346457,
                    "duration": 0.13831266666670672
                },
                {
                    "name": "A4",
                    "midi": 69,
                    "time": 544.5369686666575,
                    "velocity": 0.4330708661417323,
                    "duration": 0.13831266666670672
                },
                {
                    "name": "G4",
                    "midi": 67,
                    "time": 544.6752813333242,
                    "velocity": 0.4330708661417323,
                    "duration": 0.13831266666670672
                },
                {
                    "name": "E4",
                    "midi": 64,
                    "time": 544.8135939999909,
                    "velocity": 0.48031496062992124,
                    "duration": 0.13831266666670672
                },
                {
                    "name": "C#4",
                    "midi": 61,
                    "time": 544.9519066666576,
                    "velocity": 0.4330708661417323,
                    "duration": 0.13831266666670672
                },
                {
                    "name": "A3",
                    "midi": 57,
                    "time": 545.0902193333243,
                    "velocity": 0.4330708661417323,
                    "duration": 0.13831266666670672
                },
                {
                    "name": "F4",
                    "midi": 65,
                    "time": 545.228531999991,
                    "velocity": 0.6614173228346457,
                    "duration": 0.13831266666670672
                },
                {
                    "name": "A4",
                    "midi": 69,
                    "time": 545.3668446666577,
                    "velocity": 0.4330708661417323,
                    "duration": 0.13831266666670672
                },
                {
                    "name": "F4",
                    "midi": 65,
                    "time": 545.5051573333244,
                    "velocity": 0.4330708661417323,
                    "duration": 0.13831266666670672
                },
                {
                    "name": "C4",
                    "midi": 60,
                    "time": 545.6434699999911,
                    "velocity": 0.48031496062992124,
                    "duration": 0.13831266666670672
                },
                {
                    "name": "A3",
                    "midi": 57,
                    "time": 545.7817826666578,
                    "velocity": 0.4330708661417323,
                    "duration": 0.13831266666670672
                },
                {
                    "name": "F3",
                    "midi": 53,
                    "time": 545.9200953333245,
                    "velocity": 0.4330708661417323,
                    "duration": 0.13831266666670672
                },
                {
                    "name": "A#3",
                    "midi": 58,
                    "time": 546.0584079999912,
                    "velocity": 0.6614173228346457,
                    "duration": 0.13831266666670672
                },
                {
                    "name": "D4",
                    "midi": 62,
                    "time": 546.1967206666579,
                    "velocity": 0.4330708661417323,
                    "duration": 0.13831266666670672
                },
                {
                    "name": "A#3",
                    "midi": 58,
                    "time": 546.3350333333246,
                    "velocity": 0.4330708661417323,
                    "duration": 0.13831266666670672
                },
                {
                    "name": "F3",
                    "midi": 53,
                    "time": 546.4733459999914,
                    "velocity": 0.48031496062992124,
                    "duration": 0.13831266666670672
                },
                {
                    "name": "D3",
                    "midi": 50,
                    "time": 546.6116586666581,
                    "velocity": 0.4330708661417323,
                    "duration": 0.13831266666670672
                },
                {
                    "name": "A#2",
                    "midi": 46,
                    "time": 546.7499713333248,
                    "velocity": 0.4330708661417323,
                    "duration": 0.13831266666670672
                },
                {
                    "name": "D3",
                    "midi": 50,
                    "time": 546.8882839999915,
                    "velocity": 0.5433070866141733,
                    "duration": 0.13831266666670672
                },
                {
                    "name": "A#2",
                    "midi": 46,
                    "time": 547.0265966666582,
                    "velocity": 0.33858267716535434,
                    "duration": 0.13831266666670672
                },
                {
                    "name": "D3",
                    "midi": 50,
                    "time": 547.1649093333249,
                    "velocity": 0.33858267716535434,
                    "duration": 0.13831266666670672
                },
                {
                    "name": "A#2",
                    "midi": 46,
                    "time": 547.3032219999916,
                    "velocity": 0.3779527559055118,
                    "duration": 0.13831266666670672
                },
                {
                    "name": "D3",
                    "midi": 50,
                    "time": 547.4415346666583,
                    "velocity": 0.3543307086614173,
                    "duration": 0.13831266666670672
                },
                {
                    "name": "A#2",
                    "midi": 46,
                    "time": 547.579847333325,
                    "velocity": 0.3543307086614173,
                    "duration": 0.13831266666670672
                },
                {
                    "name": "D3",
                    "midi": 50,
                    "time": 547.7181599999917,
                    "velocity": 0.4409448818897638,
                    "duration": 0.13831266666670672
                },
                {
                    "name": "A#2",
                    "midi": 46,
                    "time": 547.8564726666584,
                    "velocity": 0.30708661417322836,
                    "duration": 0.13831266666670672
                },
                {
                    "name": "D3",
                    "midi": 50,
                    "time": 547.9947853333251,
                    "velocity": 0.30708661417322836,
                    "duration": 0.13831266666670672
                },
                {
                    "name": "A#2",
                    "midi": 46,
                    "time": 548.1330979999918,
                    "velocity": 0.33070866141732286,
                    "duration": 0.13831266666670672
                },
                {
                    "name": "D3",
                    "midi": 50,
                    "time": 548.2714106666585,
                    "velocity": 0.30708661417322836,
                    "duration": 0.13831266666670672
                },
                {
                    "name": "A#2",
                    "midi": 46,
                    "time": 548.4097233333252,
                    "velocity": 0.2992125984251969,
                    "duration": 0.13831266666670672
                },
                {
                    "name": "D3",
                    "midi": 50,
                    "time": 548.548035999992,
                    "velocity": 0.36220472440944884,
                    "duration": 0.13831266666670672
                },
                {
                    "name": "A#2",
                    "midi": 46,
                    "time": 548.6863486666587,
                    "velocity": 0.2677165354330709,
                    "duration": 0.13831266666670672
                },
                {
                    "name": "D3",
                    "midi": 50,
                    "time": 548.8246613333254,
                    "velocity": 0.25984251968503935,
                    "duration": 0.13831266666670672
                },
                {
                    "name": "A#2",
                    "midi": 46,
                    "time": 548.9629739999921,
                    "velocity": 0.28346456692913385,
                    "duration": 0.13831266666670672
                },
                {
                    "name": "D3",
                    "midi": 50,
                    "time": 549.1012866666588,
                    "velocity": 0.25984251968503935,
                    "duration": 0.13831266666670672
                },
                {
                    "name": "A#2",
                    "midi": 46,
                    "time": 549.2395993333255,
                    "velocity": 0.25196850393700787,
                    "duration": 0.13831266666670672
                },
                {
                    "name": "A4",
                    "midi": 69,
                    "time": 549.7928499999922,
                    "velocity": 0.3464566929133858,
                    "duration": 0.3112035000000333
                },
                {
                    "name": "F#4",
                    "midi": 66,
                    "time": 549.7928499999922,
                    "velocity": 0.3464566929133858,
                    "duration": 0.3112035000000333
                },
                {
                    "name": "F#4",
                    "midi": 66,
                    "time": 550.1040534999922,
                    "velocity": 0.30708661417322836,
                    "duration": 0.1037344999999732
                },
                {
                    "name": "A4",
                    "midi": 69,
                    "time": 550.1040534999922,
                    "velocity": 0.30708661417322836,
                    "duration": 0.1037344999999732
                },
                {
                    "name": "G3",
                    "midi": 55,
                    "time": 550.2077879999922,
                    "velocity": 0.3464566929133858,
                    "duration": 0.13831266666670672
                },
                {
                    "name": "E4",
                    "midi": 64,
                    "time": 550.2077879999922,
                    "velocity": 0.3464566929133858,
                    "duration": 0.20746900000006008
                },
                {
                    "name": "G4",
                    "midi": 67,
                    "time": 550.2077879999922,
                    "velocity": 0.3464566929133858,
                    "duration": 0.20746900000006008
                },
                {
                    "name": "A3",
                    "midi": 57,
                    "time": 550.3461006666589,
                    "velocity": 0.3464566929133858,
                    "duration": 0.13831266666670672
                },
                {
                    "name": "B3",
                    "midi": 59,
                    "time": 550.4844133333256,
                    "velocity": 0.33858267716535434,
                    "duration": 0.13831266666670672
                },
                {
                    "name": "C#4",
                    "midi": 61,
                    "time": 550.6227259999923,
                    "velocity": 0.3543307086614173,
                    "duration": 0.13831266666670672
                },
                {
                    "name": "D4",
                    "midi": 62,
                    "time": 550.761038666659,
                    "velocity": 0.3779527559055118,
                    "duration": 0.13831266666670672
                },
                {
                    "name": "E4",
                    "midi": 64,
                    "time": 550.8993513333257,
                    "velocity": 0.3858267716535433,
                    "duration": 0.13831266666670672
                },
                {
                    "name": "F#4",
                    "midi": 66,
                    "time": 551.0376639999924,
                    "velocity": 0.3543307086614173,
                    "duration": 0.13831266666670672
                },
                {
                    "name": "G4",
                    "midi": 67,
                    "time": 551.1759766666592,
                    "velocity": 0.3779527559055118,
                    "duration": 0.13831266666670672
                },
                {
                    "name": "A4",
                    "midi": 69,
                    "time": 551.3142893333259,
                    "velocity": 0.3779527559055118,
                    "duration": 0.1357193041666278
                },
                {
                    "name": "B4",
                    "midi": 71,
                    "time": 551.4526019999925,
                    "velocity": 0.3937007874015748,
                    "duration": 0.13831266666670672
                },
                {
                    "name": "C#5",
                    "midi": 73,
                    "time": 551.5909146666592,
                    "velocity": 0.4094488188976378,
                    "duration": 0.13831266666670672
                },
                {
                    "name": "D5",
                    "midi": 74,
                    "time": 551.7292273333259,
                    "velocity": 0.4094488188976378,
                    "duration": 0.13831266666670672
                },
                {
                    "name": "E5",
                    "midi": 76,
                    "time": 551.8675399999926,
                    "velocity": 0.4251968503937008,
                    "duration": 0.13831266666670672
                },
                {
                    "name": "F#5",
                    "midi": 78,
                    "time": 552.0058526666593,
                    "velocity": 0.4409448818897638,
                    "duration": 0.13831266666670672
                },
                {
                    "name": "G5",
                    "midi": 79,
                    "time": 552.144165333326,
                    "velocity": 0.4409448818897638,
                    "duration": 0.13831266666670672
                },
                {
                    "name": "A5",
                    "midi": 81,
                    "time": 552.2824779999927,
                    "velocity": 0.4566929133858268,
                    "duration": 0.13831266666670672
                },
                {
                    "name": "B5",
                    "midi": 83,
                    "time": 552.4207906666594,
                    "velocity": 0.47244094488188976,
                    "duration": 0.13831266666670672
                },
                {
                    "name": "C#6",
                    "midi": 85,
                    "time": 552.5591033333261,
                    "velocity": 0.47244094488188976,
                    "duration": 0.13831266666670672
                },
                {
                    "name": "D5",
                    "midi": 74,
                    "time": 552.6974159999928,
                    "velocity": 0.4015748031496063,
                    "duration": 0.13831266666670672
                },
                {
                    "name": "E5",
                    "midi": 76,
                    "time": 552.8357286666595,
                    "velocity": 0.4015748031496063,
                    "duration": 0.13831266666670672
                },
                {
                    "name": "F#5",
                    "midi": 78,
                    "time": 552.9740413333262,
                    "velocity": 0.4094488188976378,
                    "duration": 0.13831266666670672
                },
                {
                    "name": "G5",
                    "midi": 79,
                    "time": 553.1123539999929,
                    "velocity": 0.41732283464566927,
                    "duration": 0.13831266666670672
                },
                {
                    "name": "A5",
                    "midi": 81,
                    "time": 553.2506666666596,
                    "velocity": 0.41732283464566927,
                    "duration": 0.13831266666670672
                },
                {
                    "name": "B5",
                    "midi": 83,
                    "time": 553.3889793333263,
                    "velocity": 0.4251968503937008,
                    "duration": 0.13831266666670672
                },
                {
                    "name": "C#6",
                    "midi": 85,
                    "time": 553.527291999993,
                    "velocity": 0.4330708661417323,
                    "duration": 0.13831266666670672
                },
                {
                    "name": "D6",
                    "midi": 86,
                    "time": 553.6656046666598,
                    "velocity": 0.4330708661417323,
                    "duration": 0.13831266666670672
                },
                {
                    "name": "E6",
                    "midi": 88,
                    "time": 553.8039173333265,
                    "velocity": 0.4409448818897638,
                    "duration": 0.13831266666670672
                },
                {
                    "name": "F#6",
                    "midi": 90,
                    "time": 553.9422299999932,
                    "velocity": 0.4409448818897638,
                    "duration": 0.13831266666670672
                },
                {
                    "name": "G6",
                    "midi": 91,
                    "time": 554.0805426666599,
                    "velocity": 0.44881889763779526,
                    "duration": 0.13831266666670672
                },
                {
                    "name": "A6",
                    "midi": 93,
                    "time": 554.2188553333266,
                    "velocity": 0.4566929133858268,
                    "duration": 0.13831266666670672
                },
                {
                    "name": "A5",
                    "midi": 81,
                    "time": 554.3571679999933,
                    "velocity": 0.4566929133858268,
                    "duration": 0.13831266666670672
                },
                {
                    "name": "B5",
                    "midi": 83,
                    "time": 554.49548066666,
                    "velocity": 0.4645669291338583,
                    "duration": 0.13831266666670672
                },
                {
                    "name": "C#6",
                    "midi": 85,
                    "time": 554.6337933333267,
                    "velocity": 0.47244094488188976,
                    "duration": 0.13831266666670672
                },
                {
                    "name": "D6",
                    "midi": 86,
                    "time": 554.7721059999934,
                    "velocity": 0.47244094488188976,
                    "duration": 0.13831266666670672
                },
                {
                    "name": "E6",
                    "midi": 88,
                    "time": 554.9104186666601,
                    "velocity": 0.48031496062992124,
                    "duration": 0.13831266666670672
                },
                {
                    "name": "F#6",
                    "midi": 90,
                    "time": 555.0487313333268,
                    "velocity": 0.4881889763779528,
                    "duration": 0.13831266666670672
                },
                {
                    "name": "G6",
                    "midi": 91,
                    "time": 555.1870439999935,
                    "velocity": 0.4881889763779528,
                    "duration": 0.13831266666670672
                },
                {
                    "name": "A6",
                    "midi": 93,
                    "time": 555.3253566666602,
                    "velocity": 0.49606299212598426,
                    "duration": 0.13831266666670672
                },
                {
                    "name": "B6",
                    "midi": 95,
                    "time": 555.463669333327,
                    "velocity": 0.5039370078740157,
                    "duration": 0.13831266666670672
                },
                {
                    "name": "C#7",
                    "midi": 97,
                    "time": 555.6019819999937,
                    "velocity": 0.5039370078740157,
                    "duration": 0.13831266666670672
                },
                {
                    "name": "D7",
                    "midi": 98,
                    "time": 555.7402946666604,
                    "velocity": 0.5118110236220472,
                    "duration": 0.13831266666670672
                },
                {
                    "name": "E7",
                    "midi": 100,
                    "time": 555.8786073333271,
                    "velocity": 0.5118110236220472,
                    "duration": 0.13831266666670672
                },
                {
                    "name": "D6",
                    "midi": 86,
                    "time": 556.0169199999938,
                    "velocity": 0.5748031496062992,
                    "duration": 0.13831266666670672
                },
                {
                    "name": "E6",
                    "midi": 88,
                    "time": 556.1552326666605,
                    "velocity": 0.4881889763779528,
                    "duration": 0.13831266666670672
                },
                {
                    "name": "D6",
                    "midi": 86,
                    "time": 556.2935453333272,
                    "velocity": 0.49606299212598426,
                    "duration": 0.13831266666670672
                },
                {
                    "name": "F#6",
                    "midi": 90,
                    "time": 556.4318579999939,
                    "velocity": 0.5748031496062992,
                    "duration": 0.13831266666670672
                },
                {
                    "name": "D7",
                    "midi": 98,
                    "time": 556.5701706666606,
                    "velocity": 0.49606299212598426,
                    "duration": 0.13831266666670672
                },
                {
                    "name": "F#6",
                    "midi": 90,
                    "time": 556.7084833333273,
                    "velocity": 0.5039370078740157,
                    "duration": 0.13831266666670672
                },
                {
                    "name": "D6",
                    "midi": 86,
                    "time": 556.846795999994,
                    "velocity": 0.5590551181102362,
                    "duration": 0.13831266666670672
                },
                {
                    "name": "E6",
                    "midi": 88,
                    "time": 556.9851086666607,
                    "velocity": 0.5118110236220472,
                    "duration": 0.13831266666670672
                },
                {
                    "name": "D6",
                    "midi": 86,
                    "time": 557.1234213333274,
                    "velocity": 0.5196850393700787,
                    "duration": 0.13831266666670672
                },
                {
                    "name": "D6",
                    "midi": 86,
                    "time": 557.2617339999941,
                    "velocity": 0.5590551181102362,
                    "duration": 0.13831266666670672
                },
                {
                    "name": "D7",
                    "midi": 98,
                    "time": 557.4000466666608,
                    "velocity": 0.49606299212598426,
                    "duration": 0.13831266666670672
                },
                {
                    "name": "D6",
                    "midi": 86,
                    "time": 557.5383593333275,
                    "velocity": 0.49606299212598426,
                    "duration": 0.1296681249999665
                },
                {
                    "name": "A5",
                    "midi": 81,
                    "time": 557.6766719999941,
                    "velocity": 0.5669291338582677,
                    "duration": 0.13831266666670672
                },
                {
                    "name": "F#6",
                    "midi": 90,
                    "time": 557.8149846666608,
                    "velocity": 0.48031496062992124,
                    "duration": 0.13831266666670672
                },
                {
                    "name": "A5",
                    "midi": 81,
                    "time": 557.9532973333276,
                    "velocity": 0.48031496062992124,
                    "duration": 0.13831266666670672
                },
                {
                    "name": "F#6",
                    "midi": 90,
                    "time": 558.0916099999943,
                    "velocity": 0.5196850393700787,
                    "duration": 0.13831266666670672
                },
                {
                    "name": "A6",
                    "midi": 93,
                    "time": 558.229922666661,
                    "velocity": 0.5275590551181102,
                    "duration": 0.13831266666670672
                },
                {
                    "name": "F#6",
                    "midi": 90,
                    "time": 558.3682353333277,
                    "velocity": 0.4881889763779528,
                    "duration": 0.13831266666670672
                },
                {
                    "name": "A5",
                    "midi": 81,
                    "time": 558.5065479999944,
                    "velocity": 0.5669291338582677,
                    "duration": 0.13831266666670672
                },
                {
                    "name": "F#6",
                    "midi": 90,
                    "time": 558.6448606666611,
                    "velocity": 0.4881889763779528,
                    "duration": 0.13831266666670672
                },
                {
                    "name": "A5",
                    "midi": 81,
                    "time": 558.7831733333278,
                    "velocity": 0.4881889763779528,
                    "duration": 0.13831266666670672
                },
                {
                    "name": "F#6",
                    "midi": 90,
                    "time": 558.9214859999945,
                    "velocity": 0.5748031496062992,
                    "duration": 0.13831266666670672
                },
                {
                    "name": "A6",
                    "midi": 93,
                    "time": 559.0597986666612,
                    "velocity": 0.5039370078740157,
                    "duration": 0.13831266666670672
                },
                {
                    "name": "F#6",
                    "midi": 90,
                    "time": 559.1981113333279,
                    "velocity": 0.5039370078740157,
                    "duration": 0.13831266666670672
                },
                {
                    "name": "F#5",
                    "midi": 78,
                    "time": 559.3364239999946,
                    "velocity": 0.5748031496062992,
                    "duration": 0.13831266666670672
                },
                {
                    "name": "D6",
                    "midi": 86,
                    "time": 559.4747366666613,
                    "velocity": 0.5118110236220472,
                    "duration": 0.13831266666670672
                },
                {
                    "name": "F#5",
                    "midi": 78,
                    "time": 559.613049333328,
                    "velocity": 0.5118110236220472,
                    "duration": 0.13831266666670672
                },
                {
                    "name": "D6",
                    "midi": 86,
                    "time": 559.7513619999947,
                    "velocity": 0.5748031496062992,
                    "duration": 0.13831266666670672
                },
                {
                    "name": "F#6",
                    "midi": 90,
                    "time": 559.8896746666614,
                    "velocity": 0.5118110236220472,
                    "duration": 0.13831266666670672
                },
                {
                    "name": "D6",
                    "midi": 86,
                    "time": 560.0279873333282,
                    "velocity": 0.5118110236220472,
                    "duration": 0.13831266666670672
                },
                {
                    "name": "F#5",
                    "midi": 78,
                    "time": 560.1662999999949,
                    "velocity": 0.5905511811023622,
                    "duration": 0.13831266666670672
                },
                {
                    "name": "D6",
                    "midi": 86,
                    "time": 560.3046126666616,
                    "velocity": 0.5275590551181102,
                    "duration": 0.13831266666670672
                },
                {
                    "name": "F#5",
                    "midi": 78,
                    "time": 560.4429253333283,
                    "velocity": 0.5275590551181102,
                    "duration": 0.13831266666670672
                },
                {
                    "name": "D6",
                    "midi": 86,
                    "time": 560.581237999995,
                    "velocity": 0.5984251968503937,
                    "duration": 0.13831266666670672
                },
                {
                    "name": "F#6",
                    "midi": 90,
                    "time": 560.7195506666617,
                    "velocity": 0.5511811023622047,
                    "duration": 0.13831266666670672
                },
                {
                    "name": "D6",
                    "midi": 86,
                    "time": 560.8578633333284,
                    "velocity": 0.5511811023622047,
                    "duration": 0.13831266666670672
                },
                {
                    "name": "D5",
                    "midi": 74,
                    "time": 560.9961759999951,
                    "velocity": 0.5984251968503937,
                    "duration": 0.13831266666670672
                },
                {
                    "name": "F#5",
                    "midi": 78,
                    "time": 561.1344886666618,
                    "velocity": 0.5511811023622047,
                    "duration": 0.13831266666670672
                },
                {
                    "name": "D5",
                    "midi": 74,
                    "time": 561.2728013333285,
                    "velocity": 0.5511811023622047,
                    "duration": 0.13831266666670672
                },
                {
                    "name": "F#5",
                    "midi": 78,
                    "time": 561.4111139999952,
                    "velocity": 0.6220472440944882,
                    "duration": 0.13831266666670672
                },
                {
                    "name": "D6",
                    "midi": 86,
                    "time": 561.5494266666619,
                    "velocity": 0.5590551181102362,
                    "duration": 0.13831266666670672
                },
                {
                    "name": "F#5",
                    "midi": 78,
                    "time": 561.6877393333286,
                    "velocity": 0.5590551181102362,
                    "duration": 0.1296681249999665
                },
                {
                    "name": "D5",
                    "midi": 74,
                    "time": 561.8260519999952,
                    "velocity": 0.6299212598425197,
                    "duration": 0.13831266666670672
                },
                {
                    "name": "F#5",
                    "midi": 78,
                    "time": 561.9643646666619,
                    "velocity": 0.5669291338582677,
                    "duration": 0.13831266666670672
                },
                {
                    "name": "D5",
                    "midi": 74,
                    "time": 562.1026773333286,
                    "velocity": 0.5748031496062992,
                    "duration": 0.13831266666670672
                },
                {
                    "name": "F#5",
                    "midi": 78,
                    "time": 562.2409899999953,
                    "velocity": 0.6377952755905512,
                    "duration": 0.13831266666670672
                },
                {
                    "name": "D6",
                    "midi": 86,
                    "time": 562.379302666662,
                    "velocity": 0.5826771653543307,
                    "duration": 0.13831266666670672
                },
                {
                    "name": "F#5",
                    "midi": 78,
                    "time": 562.5176153333288,
                    "velocity": 0.5826771653543307,
                    "duration": 0.13831266666670672
                },
                {
                    "name": "D6",
                    "midi": 86,
                    "time": 562.6559279999955,
                    "velocity": 0.8267716535433071,
                    "duration": 0.8298760000000129
                },
                {
                    "name": "A5",
                    "midi": 81,
                    "time": 562.6559279999955,
                    "velocity": 0.7007874015748031,
                    "duration": 0.8298760000000129
                },
                {
                    "name": "F#5",
                    "midi": 78,
                    "time": 562.6559279999955,
                    "velocity": 0.7007874015748031,
                    "duration": 0.8298760000000129
                },
                {
                    "name": "D5",
                    "midi": 74,
                    "time": 562.6559279999955,
                    "velocity": 0.7007874015748031,
                    "duration": 0.8298760000000129
                },
                {
                    "name": "F#4",
                    "midi": 66,
                    "time": 563.4858039999955,
                    "velocity": 0.5748031496062992,
                    "duration": 0.1037344999999732
                },
                {
                    "name": "D5",
                    "midi": 74,
                    "time": 563.4858039999955,
                    "velocity": 0.6771653543307087,
                    "duration": 0.1037344999999732
                },
                {
                    "name": "F#4",
                    "midi": 66,
                    "time": 563.6932729999954,
                    "velocity": 0.5196850393700787,
                    "duration": 0.1037344999999732
                },
                {
                    "name": "D5",
                    "midi": 74,
                    "time": 563.6932729999954,
                    "velocity": 0.6299212598425197,
                    "duration": 0.1037344999999732
                },
                {
                    "name": "F#4",
                    "midi": 66,
                    "time": 563.9007419999954,
                    "velocity": 0.5748031496062992,
                    "duration": 0.1037344999999732
                },
                {
                    "name": "D5",
                    "midi": 74,
                    "time": 563.9007419999954,
                    "velocity": 0.6771653543307087,
                    "duration": 0.1037344999999732
                },
                {
                    "name": "F#4",
                    "midi": 66,
                    "time": 564.1082109999953,
                    "velocity": 0.5196850393700787,
                    "duration": 0.1037344999999732
                },
                {
                    "name": "D5",
                    "midi": 74,
                    "time": 564.1082109999953,
                    "velocity": 0.6220472440944882,
                    "duration": 0.1037344999999732
                },
                {
                    "name": "F#4",
                    "midi": 66,
                    "time": 564.3156799999953,
                    "velocity": 0.6377952755905512,
                    "duration": 0.41493800000000647
                },
                {
                    "name": "D5",
                    "midi": 74,
                    "time": 564.3156799999953,
                    "velocity": 0.7480314960629921,
                    "duration": 0.41493800000000647
                },
                {
                    "name": "A4",
                    "midi": 69,
                    "time": 564.7306179999953,
                    "velocity": 0.5433070866141733,
                    "duration": 0.2074689999999464
                },
                {
                    "name": "E5",
                    "midi": 76,
                    "time": 564.7306179999953,
                    "velocity": 0.6456692913385826,
                    "duration": 0.2074689999999464
                },
                {
                    "name": "A4",
                    "midi": 69,
                    "time": 565.1455559999952,
                    "velocity": 0.6377952755905512,
                    "duration": 0.41493800000000647
                },
                {
                    "name": "E5",
                    "midi": 76,
                    "time": 565.1455559999952,
                    "velocity": 0.7480314960629921,
                    "duration": 0.41493800000000647
                },
                {
                    "name": "D5",
                    "midi": 74,
                    "time": 565.5604939999952,
                    "velocity": 0.5433070866141733,
                    "duration": 0.2074689999999464
                },
                {
                    "name": "F#5",
                    "midi": 78,
                    "time": 565.5604939999952,
                    "velocity": 0.6456692913385826,
                    "duration": 0.2074689999999464
                },
                {
                    "name": "D5",
                    "midi": 74,
                    "time": 565.9754319999951,
                    "velocity": 0.6377952755905512,
                    "duration": 0.41493800000000647
                },
                {
                    "name": "F#5",
                    "midi": 78,
                    "time": 565.9754319999951,
                    "velocity": 0.7480314960629921,
                    "duration": 0.41493800000000647
                },
                {
                    "name": "A4",
                    "midi": 69,
                    "time": 566.3903699999951,
                    "velocity": 0.5433070866141733,
                    "duration": 0.2074689999999464
                },
                {
                    "name": "E5",
                    "midi": 76,
                    "time": 566.3903699999951,
                    "velocity": 0.6456692913385826,
                    "duration": 0.2074689999999464
                },
                {
                    "name": "A4",
                    "midi": 69,
                    "time": 566.805307999995,
                    "velocity": 0.5748031496062992,
                    "duration": 0.1037344999999732
                },
                {
                    "name": "E5",
                    "midi": 76,
                    "time": 566.805307999995,
                    "velocity": 0.6771653543307087,
                    "duration": 0.1037344999999732
                },
                {
                    "name": "A4",
                    "midi": 69,
                    "time": 567.0127769999949,
                    "velocity": 0.5196850393700787,
                    "duration": 0.1037344999999732
                },
                {
                    "name": "E5",
                    "midi": 76,
                    "time": 567.0127769999949,
                    "velocity": 0.6299212598425197,
                    "duration": 0.1037344999999732
                },
                {
                    "name": "A4",
                    "midi": 69,
                    "time": 567.2202459999949,
                    "velocity": 0.5748031496062992,
                    "duration": 0.1037344999999732
                },
                {
                    "name": "E5",
                    "midi": 76,
                    "time": 567.2202459999949,
                    "velocity": 0.6771653543307087,
                    "duration": 0.1037344999999732
                },
                {
                    "name": "A4",
                    "midi": 69,
                    "time": 567.4277149999948,
                    "velocity": 0.5196850393700787,
                    "duration": 0.1037344999999732
                },
                {
                    "name": "E5",
                    "midi": 76,
                    "time": 567.4277149999948,
                    "velocity": 0.6220472440944882,
                    "duration": 0.1037344999999732
                },
                {
                    "name": "A4",
                    "midi": 69,
                    "time": 567.6351839999948,
                    "velocity": 0.6377952755905512,
                    "duration": 0.41493800000000647
                },
                {
                    "name": "E5",
                    "midi": 76,
                    "time": 567.6351839999948,
                    "velocity": 0.7480314960629921,
                    "duration": 0.41493800000000647
                },
                {
                    "name": "F#5",
                    "midi": 78,
                    "time": 568.0501219999948,
                    "velocity": 0.5433070866141733,
                    "duration": 0.2074689999999464
                },
                {
                    "name": "A5",
                    "midi": 81,
                    "time": 568.0501219999948,
                    "velocity": 0.6456692913385826,
                    "duration": 0.2074689999999464
                },
                {
                    "name": "F#5",
                    "midi": 78,
                    "time": 568.4650599999947,
                    "velocity": 0.6377952755905512,
                    "duration": 0.41493800000000647
                },
                {
                    "name": "A5",
                    "midi": 81,
                    "time": 568.4650599999947,
                    "velocity": 0.7480314960629921,
                    "duration": 0.41493800000000647
                },
                {
                    "name": "C#5",
                    "midi": 73,
                    "time": 568.8799979999947,
                    "velocity": 0.5433070866141733,
                    "duration": 0.2074689999999464
                },
                {
                    "name": "G5",
                    "midi": 79,
                    "time": 568.8799979999947,
                    "velocity": 0.6456692913385826,
                    "duration": 0.2074689999999464
                },
                {
                    "name": "C#5",
                    "midi": 73,
                    "time": 569.2949359999946,
                    "velocity": 0.6377952755905512,
                    "duration": 0.41493800000000647
                },
                {
                    "name": "G5",
                    "midi": 79,
                    "time": 569.2949359999946,
                    "velocity": 0.7480314960629921,
                    "duration": 0.41493800000000647
                },
                {
                    "name": "D5",
                    "midi": 74,
                    "time": 569.7098739999946,
                    "velocity": 0.5433070866141733,
                    "duration": 0.2074689999999464
                },
                {
                    "name": "F#5",
                    "midi": 78,
                    "time": 569.7098739999946,
                    "velocity": 0.6456692913385826,
                    "duration": 0.2074689999999464
                },
                {
                    "name": "D5",
                    "midi": 74,
                    "time": 570.1248119999944,
                    "velocity": 0.5984251968503937,
                    "duration": 0.1037344999999732
                },
                {
                    "name": "F#5",
                    "midi": 78,
                    "time": 570.1248119999944,
                    "velocity": 0.5984251968503937,
                    "duration": 0.1037344999999732
                },
                {
                    "name": "B5",
                    "midi": 83,
                    "time": 570.1248119999944,
                    "velocity": 0.5984251968503937,
                    "duration": 0.1037344999999732
                },
                {
                    "name": "D6",
                    "midi": 86,
                    "time": 570.1248119999944,
                    "velocity": 0.7086614173228346,
                    "duration": 0.1037344999999732
                },
                {
                    "name": "D5",
                    "midi": 74,
                    "time": 570.3322809999944,
                    "velocity": 0.5433070866141733,
                    "duration": 0.1037344999999732
                },
                {
                    "name": "F#5",
                    "midi": 78,
                    "time": 570.3322809999944,
                    "velocity": 0.5433070866141733,
                    "duration": 0.1037344999999732
                },
                {
                    "name": "B5",
                    "midi": 83,
                    "time": 570.3322809999944,
                    "velocity": 0.5433070866141733,
                    "duration": 0.1037344999999732
                },
                {
                    "name": "D6",
                    "midi": 86,
                    "time": 570.3322809999944,
                    "velocity": 0.6614173228346457,
                    "duration": 0.1037344999999732
                },
                {
                    "name": "D5",
                    "midi": 74,
                    "time": 570.5397499999943,
                    "velocity": 0.5984251968503937,
                    "duration": 0.1037344999999732
                },
                {
                    "name": "F#5",
                    "midi": 78,
                    "time": 570.5397499999943,
                    "velocity": 0.5984251968503937,
                    "duration": 0.1037344999999732
                },
                {
                    "name": "B5",
                    "midi": 83,
                    "time": 570.5397499999943,
                    "velocity": 0.5984251968503937,
                    "duration": 0.1037344999999732
                },
                {
                    "name": "D6",
                    "midi": 86,
                    "time": 570.5397499999943,
                    "velocity": 0.7086614173228346,
                    "duration": 0.1037344999999732
                },
                {
                    "name": "D5",
                    "midi": 74,
                    "time": 570.7472189999943,
                    "velocity": 0.5433070866141733,
                    "duration": 0.1037344999999732
                },
                {
                    "name": "F#5",
                    "midi": 78,
                    "time": 570.7472189999943,
                    "velocity": 0.5433070866141733,
                    "duration": 0.1037344999999732
                },
                {
                    "name": "B5",
                    "midi": 83,
                    "time": 570.7472189999943,
                    "velocity": 0.5433070866141733,
                    "duration": 0.1037344999999732
                },
                {
                    "name": "D6",
                    "midi": 86,
                    "time": 570.7472189999943,
                    "velocity": 0.6456692913385826,
                    "duration": 0.1037344999999732
                },
                {
                    "name": "D5",
                    "midi": 74,
                    "time": 570.9546879999942,
                    "velocity": 0.6692913385826772,
                    "duration": 0.41493800000000647
                },
                {
                    "name": "F#5",
                    "midi": 78,
                    "time": 570.9546879999942,
                    "velocity": 0.6692913385826772,
                    "duration": 0.41493800000000647
                },
                {
                    "name": "B5",
                    "midi": 83,
                    "time": 570.9546879999942,
                    "velocity": 0.6692913385826772,
                    "duration": 0.41493800000000647
                },
                {
                    "name": "D6",
                    "midi": 86,
                    "time": 570.9546879999942,
                    "velocity": 0.7795275590551181,
                    "duration": 0.41493800000000647
                },
                {
                    "name": "B4",
                    "midi": 71,
                    "time": 571.3696259999942,
                    "velocity": 0.5669291338582677,
                    "duration": 0.2074689999999464
                },
                {
                    "name": "F#5",
                    "midi": 78,
                    "time": 571.3696259999942,
                    "velocity": 0.5669291338582677,
                    "duration": 0.2074689999999464
                },
                {
                    "name": "B5",
                    "midi": 83,
                    "time": 571.3696259999942,
                    "velocity": 0.6771653543307087,
                    "duration": 0.2074689999999464
                },
                {
                    "name": "A4",
                    "midi": 69,
                    "time": 571.7845639999941,
                    "velocity": 0.5826771653543307,
                    "duration": 0.1037344999999732
                },
                {
                    "name": "D5",
                    "midi": 74,
                    "time": 571.7845639999941,
                    "velocity": 0.5826771653543307,
                    "duration": 0.1037344999999732
                },
                {
                    "name": "F#5",
                    "midi": 78,
                    "time": 571.7845639999941,
                    "velocity": 0.5826771653543307,
                    "duration": 0.1037344999999732
                },
                {
                    "name": "A5",
                    "midi": 81,
                    "time": 571.7845639999941,
                    "velocity": 0.6850393700787402,
                    "duration": 0.1037344999999732
                },
                {
                    "name": "A4",
                    "midi": 69,
                    "time": 572.1995019999941,
                    "velocity": 0.49606299212598426,
                    "duration": 0.1037344999999732
                },
                {
                    "name": "D5",
                    "midi": 74,
                    "time": 572.1995019999941,
                    "velocity": 0.49606299212598426,
                    "duration": 0.1037344999999732
                },
                {
                    "name": "F#5",
                    "midi": 78,
                    "time": 572.1995019999941,
                    "velocity": 0.5905511811023622,
                    "duration": 0.1037344999999732
                },
                {
                    "name": "A4",
                    "midi": 69,
                    "time": 572.6144399999941,
                    "velocity": 0.5826771653543307,
                    "duration": 0.8298760000000129
                },
                {
                    "name": "C#5",
                    "midi": 73,
                    "time": 572.6144399999941,
                    "velocity": 0.5826771653543307,
                    "duration": 0.8298760000000129
                },
                {
                    "name": "E5",
                    "midi": 76,
                    "time": 572.6144399999941,
                    "velocity": 0.6850393700787402,
                    "duration": 0.8298760000000129
                },
                {
                    "name": "F4",
                    "midi": 65,
                    "time": 573.4443159999942,
                    "velocity": 0.5433070866141733,
                    "duration": 0.1037344999999732
                },
                {
                    "name": "F5",
                    "midi": 77,
                    "time": 573.4443159999942,
                    "velocity": 0.7086614173228346,
                    "duration": 0.1037344999999732
                },
                {
                    "name": "F4",
                    "midi": 65,
                    "time": 573.6517849999941,
                    "velocity": 0.5433070866141733,
                    "duration": 0.1037344999999732
                },
                {
                    "name": "F5",
                    "midi": 77,
                    "time": 573.6517849999941,
                    "velocity": 0.6614173228346457,
                    "duration": 0.1037344999999732
                },
                {
                    "name": "F4",
                    "midi": 65,
                    "time": 573.859253999994,
                    "velocity": 0.5984251968503937,
                    "duration": 0.1037344999999732
                },
                {
                    "name": "F5",
                    "midi": 77,
                    "time": 573.859253999994,
                    "velocity": 0.7086614173228346,
                    "duration": 0.1037344999999732
                },
                {
                    "name": "F4",
                    "midi": 65,
                    "time": 574.066722999994,
                    "velocity": 0.5433070866141733,
                    "duration": 0.1037344999999732
                },
                {
                    "name": "F5",
                    "midi": 77,
                    "time": 574.066722999994,
                    "velocity": 0.6456692913385826,
                    "duration": 0.1037344999999732
                },
                {
                    "name": "A4",
                    "midi": 69,
                    "time": 574.274191999994,
                    "velocity": 0.6692913385826772,
                    "duration": 0.6224069999999529
                },
                {
                    "name": "F#5",
                    "midi": 78,
                    "time": 574.274191999994,
                    "velocity": 0.6692913385826772,
                    "duration": 0.41493800000000647
                },
                {
                    "name": "A5",
                    "midi": 81,
                    "time": 574.274191999994,
                    "velocity": 0.7795275590551181,
                    "duration": 0.41493800000000647
                },
                {
                    "name": "D5",
                    "midi": 74,
                    "time": 574.689129999994,
                    "velocity": 0.5669291338582677,
                    "duration": 0.2074689999999464
                },
                {
                    "name": "F#5",
                    "midi": 78,
                    "time": 574.689129999994,
                    "velocity": 0.6771653543307087,
                    "duration": 0.2074689999999464
                },
                {
                    "name": "A4",
                    "midi": 69,
                    "time": 575.1040679999938,
                    "velocity": 0.5826771653543307,
                    "duration": 0.1037344999999732
                },
                {
                    "name": "D5",
                    "midi": 74,
                    "time": 575.1040679999938,
                    "velocity": 0.5826771653543307,
                    "duration": 0.1037344999999732
                },
                {
                    "name": "F#5",
                    "midi": 78,
                    "time": 575.1040679999938,
                    "velocity": 0.6850393700787402,
                    "duration": 0.1037344999999732
                },
                {
                    "name": "A4",
                    "midi": 69,
                    "time": 575.5190059999939,
                    "velocity": 0.49606299212598426,
                    "duration": 0.1037344999999732
                },
                {
                    "name": "C#5",
                    "midi": 73,
                    "time": 575.5190059999939,
                    "velocity": 0.49606299212598426,
                    "duration": 0.1037344999999732
                },
                {
                    "name": "E5",
                    "midi": 76,
                    "time": 575.5190059999939,
                    "velocity": 0.5905511811023622,
                    "duration": 0.1037344999999732
                },
                {
                    "name": "F#4",
                    "midi": 66,
                    "time": 575.9339439999939,
                    "velocity": 0.5826771653543307,
                    "duration": 0.41493800000000647
                },
                {
                    "name": "A4",
                    "midi": 69,
                    "time": 575.9339439999939,
                    "velocity": 0.5826771653543307,
                    "duration": 0.41493800000000647
                },
                {
                    "name": "D5",
                    "midi": 74,
                    "time": 575.9339439999939,
                    "velocity": 0.6850393700787402,
                    "duration": 0.41493800000000647
                },
                {
                    "name": "F4",
                    "midi": 65,
                    "time": 576.3488819999939,
                    "velocity": 0.5433070866141733,
                    "duration": 0.6224069999999529
                },
                {
                    "name": "F5",
                    "midi": 77,
                    "time": 576.3488819999939,
                    "velocity": 0.7086614173228346,
                    "duration": 0.6224069999999529
                },
                {
                    "name": "F4",
                    "midi": 65,
                    "time": 576.9712889999938,
                    "velocity": 0.5433070866141733,
                    "duration": 0.1037344999999732
                },
                {
                    "name": "F5",
                    "midi": 77,
                    "time": 576.9712889999938,
                    "velocity": 0.6614173228346457,
                    "duration": 0.1037344999999732
                },
                {
                    "name": "F4",
                    "midi": 65,
                    "time": 577.1787579999938,
                    "velocity": 0.5984251968503937,
                    "duration": 0.1037344999999732
                },
                {
                    "name": "F5",
                    "midi": 77,
                    "time": 577.1787579999938,
                    "velocity": 0.7086614173228346,
                    "duration": 0.1037344999999732
                },
                {
                    "name": "F4",
                    "midi": 65,
                    "time": 577.3862269999937,
                    "velocity": 0.5433070866141733,
                    "duration": 0.1037344999999732
                },
                {
                    "name": "F5",
                    "midi": 77,
                    "time": 577.3862269999937,
                    "velocity": 0.6456692913385826,
                    "duration": 0.1037344999999732
                },
                {
                    "name": "A4",
                    "midi": 69,
                    "time": 577.5936959999937,
                    "velocity": 0.6692913385826772,
                    "duration": 0.6224069999999529
                },
                {
                    "name": "F#5",
                    "midi": 78,
                    "time": 577.5936959999937,
                    "velocity": 0.6692913385826772,
                    "duration": 0.41493800000000647
                },
                {
                    "name": "A5",
                    "midi": 81,
                    "time": 577.5936959999937,
                    "velocity": 0.7795275590551181,
                    "duration": 0.41493800000000647
                },
                {
                    "name": "D5",
                    "midi": 74,
                    "time": 578.0086339999937,
                    "velocity": 0.5669291338582677,
                    "duration": 0.2074689999999464
                },
                {
                    "name": "F#5",
                    "midi": 78,
                    "time": 578.0086339999937,
                    "velocity": 0.6771653543307087,
                    "duration": 0.2074689999999464
                },
                {
                    "name": "A4",
                    "midi": 69,
                    "time": 578.4235719999936,
                    "velocity": 0.5826771653543307,
                    "duration": 0.1037344999999732
                },
                {
                    "name": "D5",
                    "midi": 74,
                    "time": 578.4235719999936,
                    "velocity": 0.5826771653543307,
                    "duration": 0.1037344999999732
                },
                {
                    "name": "F#5",
                    "midi": 78,
                    "time": 578.4235719999936,
                    "velocity": 0.6850393700787402,
                    "duration": 0.1037344999999732
                },
                {
                    "name": "A4",
                    "midi": 69,
                    "time": 578.8385099999936,
                    "velocity": 0.49606299212598426,
                    "duration": 0.1037344999999732
                },
                {
                    "name": "C#5",
                    "midi": 73,
                    "time": 578.8385099999936,
                    "velocity": 0.49606299212598426,
                    "duration": 0.1037344999999732
                },
                {
                    "name": "E5",
                    "midi": 76,
                    "time": 578.8385099999936,
                    "velocity": 0.5905511811023622,
                    "duration": 0.1037344999999732
                },
                {
                    "name": "F#4",
                    "midi": 66,
                    "time": 579.2534479999936,
                    "velocity": 0.5826771653543307,
                    "duration": 0.41493800000000647
                },
                {
                    "name": "A4",
                    "midi": 69,
                    "time": 579.2534479999936,
                    "velocity": 0.5826771653543307,
                    "duration": 0.41493800000000647
                },
                {
                    "name": "D5",
                    "midi": 74,
                    "time": 579.2534479999936,
                    "velocity": 0.6850393700787402,
                    "duration": 0.41493800000000647
                },
                {
                    "name": "G#5",
                    "midi": 80,
                    "time": 579.6683859999936,
                    "velocity": 0.5905511811023622,
                    "duration": 0.6224069999999529
                },
                {
                    "name": "D6",
                    "midi": 86,
                    "time": 579.6683859999936,
                    "velocity": 0.5905511811023622,
                    "duration": 0.6224069999999529
                },
                {
                    "name": "F6",
                    "midi": 89,
                    "time": 579.6683859999936,
                    "velocity": 0.7716535433070866,
                    "duration": 0.6224069999999529
                },
                {
                    "name": "G#5",
                    "midi": 80,
                    "time": 580.2907929999935,
                    "velocity": 0.5905511811023622,
                    "duration": 0.1037344999999732
                },
                {
                    "name": "D6",
                    "midi": 86,
                    "time": 580.2907929999935,
                    "velocity": 0.5905511811023622,
                    "duration": 0.1037344999999732
                },
                {
                    "name": "F6",
                    "midi": 89,
                    "time": 580.2907929999935,
                    "velocity": 0.7244094488188977,
                    "duration": 0.1037344999999732
                },
                {
                    "name": "G#5",
                    "midi": 80,
                    "time": 580.4982619999935,
                    "velocity": 0.6535433070866141,
                    "duration": 0.1037344999999732
                },
                {
                    "name": "D6",
                    "midi": 86,
                    "time": 580.4982619999935,
                    "velocity": 0.6535433070866141,
                    "duration": 0.1037344999999732
                },
                {
                    "name": "F6",
                    "midi": 89,
                    "time": 580.4982619999935,
                    "velocity": 0.7716535433070866,
                    "duration": 0.1037344999999732
                },
                {
                    "name": "G#5",
                    "midi": 80,
                    "time": 580.7057309999934,
                    "velocity": 0.5905511811023622,
                    "duration": 0.1037344999999732
                },
                {
                    "name": "D6",
                    "midi": 86,
                    "time": 580.7057309999934,
                    "velocity": 0.5905511811023622,
                    "duration": 0.1037344999999732
                },
                {
                    "name": "F6",
                    "midi": 89,
                    "time": 580.7057309999934,
                    "velocity": 0.7086614173228346,
                    "duration": 0.1037344999999732
                },
                {
                    "name": "A5",
                    "midi": 81,
                    "time": 580.9131999999934,
                    "velocity": 0.7322834645669292,
                    "duration": 0.6224069999999529
                },
                {
                    "name": "F#6",
                    "midi": 90,
                    "time": 580.9131999999934,
                    "velocity": 0.7322834645669292,
                    "duration": 0.41493800000000647
                },
                {
                    "name": "A6",
                    "midi": 93,
                    "time": 580.9131999999934,
                    "velocity": 0.8582677165354331,
                    "duration": 0.41493800000000647
                },
                {
                    "name": "D6",
                    "midi": 86,
                    "time": 581.3281379999934,
                    "velocity": 0.6220472440944882,
                    "duration": 0.2074689999999464
                },
                {
                    "name": "F#6",
                    "midi": 90,
                    "time": 581.3281379999934,
                    "velocity": 0.7401574803149606,
                    "duration": 0.2074689999999464
                },
                {
                    "name": "A5",
                    "midi": 81,
                    "time": 581.7430759999933,
                    "velocity": 0.6377952755905512,
                    "duration": 0.1037344999999732
                },
                {
                    "name": "D6",
                    "midi": 86,
                    "time": 581.7430759999933,
                    "velocity": 0.6377952755905512,
                    "duration": 0.1037344999999732
                },
                {
                    "name": "F#6",
                    "midi": 90,
                    "time": 581.7430759999933,
                    "velocity": 0.7480314960629921,
                    "duration": 0.1037344999999732
                },
                {
                    "name": "A5",
                    "midi": 81,
                    "time": 582.1580139999933,
                    "velocity": 0.5433070866141733,
                    "duration": 0.1037344999999732
                },
                {
                    "name": "C#6",
                    "midi": 85,
                    "time": 582.1580139999933,
                    "velocity": 0.5433070866141733,
                    "duration": 0.1037344999999732
                },
                {
                    "name": "E6",
                    "midi": 88,
                    "time": 582.1580139999933,
                    "velocity": 0.6456692913385826,
                    "duration": 0.1037344999999732
                },
                {
                    "name": "A6",
                    "midi": 93,
                    "time": 582.5729519999933,
                    "velocity": 0.5433070866141733,
                    "duration": 0.13831266666670672
                },
                {
                    "name": "F#6",
                    "midi": 90,
                    "time": 582.71126466666,
                    "velocity": 0.48031496062992124,
                    "duration": 0.13831266666670672
                },
                {
                    "name": "A5",
                    "midi": 81,
                    "time": 582.8495773333267,
                    "velocity": 0.48031496062992124,
                    "duration": 0.13831266666670672
                },
                {
                    "name": "D6",
                    "midi": 86,
                    "time": 582.9878899999934,
                    "velocity": 0.5433070866141733,
                    "duration": 0.13831266666670672
                },
                {
                    "name": "F#6",
                    "midi": 90,
                    "time": 583.1262026666601,
                    "velocity": 0.4881889763779528,
                    "duration": 0.13831266666670672
                },
                {
                    "name": "B6",
                    "midi": 95,
                    "time": 583.2645153333268,
                    "velocity": 0.4881889763779528,
                    "duration": 0.13831266666670672
                },
                {
                    "name": "A6",
                    "midi": 93,
                    "time": 583.4028279999935,
                    "velocity": 0.5433070866141733,
                    "duration": 0.13831266666670672
                },
                {
                    "name": "F#6",
                    "midi": 90,
                    "time": 583.5411406666602,
                    "velocity": 0.4881889763779528,
                    "duration": 0.13831266666670672
                },
                {
                    "name": "A5",
                    "midi": 81,
                    "time": 583.6794533333269,
                    "velocity": 0.4881889763779528,
                    "duration": 0.13831266666670672
                },
                {
                    "name": "E6",
                    "midi": 88,
                    "time": 583.8177659999936,
                    "velocity": 0.5433070866141733,
                    "duration": 0.13831266666670672
                },
                {
                    "name": "C#6",
                    "midi": 85,
                    "time": 583.9560786666603,
                    "velocity": 0.4881889763779528,
                    "duration": 0.13831266666670672
                },
                {
                    "name": "A5",
                    "midi": 81,
                    "time": 584.094391333327,
                    "velocity": 0.4881889763779528,
                    "duration": 0.13831266666670672
                },
                {
                    "name": "A6",
                    "midi": 93,
                    "time": 584.2327039999938,
                    "velocity": 0.5433070866141733,
                    "duration": 0.13831266666670672
                },
                {
                    "name": "F#6",
                    "midi": 90,
                    "time": 584.3710166666605,
                    "velocity": 0.48031496062992124,
                    "duration": 0.13831266666670672
                },
                {
                    "name": "A5",
                    "midi": 81,
                    "time": 584.5093293333272,
                    "velocity": 0.48031496062992124,
                    "duration": 0.13831266666670672
                },
                {
                    "name": "D6",
                    "midi": 86,
                    "time": 584.6476419999939,
                    "velocity": 0.5433070866141733,
                    "duration": 0.13831266666670672
                },
                {
                    "name": "F#6",
                    "midi": 90,
                    "time": 584.7859546666606,
                    "velocity": 0.4881889763779528,
                    "duration": 0.13831266666670672
                },
                {
                    "name": "B6",
                    "midi": 95,
                    "time": 584.9242673333273,
                    "velocity": 0.4881889763779528,
                    "duration": 0.13831266666670672
                },
                {
                    "name": "A6",
                    "midi": 93,
                    "time": 585.062579999994,
                    "velocity": 0.5433070866141733,
                    "duration": 0.13831266666670672
                },
                {
                    "name": "F#6",
                    "midi": 90,
                    "time": 585.2008926666607,
                    "velocity": 0.4881889763779528,
                    "duration": 0.13831266666670672
                },
                {
                    "name": "A5",
                    "midi": 81,
                    "time": 585.3392053333274,
                    "velocity": 0.4881889763779528,
                    "duration": 0.13831266666670672
                },
                {
                    "name": "E6",
                    "midi": 88,
                    "time": 585.4775179999941,
                    "velocity": 0.5433070866141733,
                    "duration": 0.13831266666670672
                },
                {
                    "name": "C#6",
                    "midi": 85,
                    "time": 585.6158306666608,
                    "velocity": 0.4881889763779528,
                    "duration": 0.13831266666670672
                },
                {
                    "name": "A5",
                    "midi": 81,
                    "time": 585.7541433333275,
                    "velocity": 0.4881889763779528,
                    "duration": 0.13831266666670672
                },
                {
                    "name": "A6",
                    "midi": 93,
                    "time": 585.8924559999942,
                    "velocity": 0.5433070866141733,
                    "duration": 0.13831266666670672
                },
                {
                    "name": "A5",
                    "midi": 81,
                    "time": 586.030768666661,
                    "velocity": 0.48031496062992124,
                    "duration": 0.13831266666670672
                },
                {
                    "name": "D6",
                    "midi": 86,
                    "time": 586.1690813333277,
                    "velocity": 0.48031496062992124,
                    "duration": 0.13831266666670672
                },
                {
                    "name": "F#6",
                    "midi": 90,
                    "time": 586.3073939999944,
                    "velocity": 0.5433070866141733,
                    "duration": 0.13831266666670672
                },
                {
                    "name": "A6",
                    "midi": 93,
                    "time": 586.4457066666611,
                    "velocity": 0.4881889763779528,
                    "duration": 0.13831266666670672
                },
                {
                    "name": "D7",
                    "midi": 98,
                    "time": 586.5840193333278,
                    "velocity": 0.4881889763779528,
                    "duration": 0.13831266666670672
                },
                {
                    "name": "A6",
                    "midi": 93,
                    "time": 586.7223319999945,
                    "velocity": 0.5433070866141733,
                    "duration": 0.13831266666670672
                },
                {
                    "name": "F#6",
                    "midi": 90,
                    "time": 586.8606446666612,
                    "velocity": 0.4881889763779528,
                    "duration": 0.13831266666670672
                },
                {
                    "name": "B6",
                    "midi": 95,
                    "time": 586.9989573333279,
                    "velocity": 0.4881889763779528,
                    "duration": 0.13831266666670672
                },
                {
                    "name": "A6",
                    "midi": 93,
                    "time": 587.1372699999946,
                    "velocity": 0.5433070866141733,
                    "duration": 0.13831266666670672
                },
                {
                    "name": "G6",
                    "midi": 91,
                    "time": 587.2755826666613,
                    "velocity": 0.4881889763779528,
                    "duration": 0.13831266666670672
                },
                {
                    "name": "E6",
                    "midi": 88,
                    "time": 587.413895333328,
                    "velocity": 0.4881889763779528,
                    "duration": 0.13831266666670672
                },
                {
                    "name": "D6",
                    "midi": 86,
                    "time": 587.5522079999947,
                    "velocity": 0.7322834645669292,
                    "duration": 0.1037344999999732
                },
                {
                    "name": "E3",
                    "midi": 52,
                    "time": 587.828833333328,
                    "velocity": 0.3937007874015748,
                    "duration": 0.13831266666670672
                },
                {
                    "name": "F#3",
                    "midi": 54,
                    "time": 587.9671459999947,
                    "velocity": 0.4251968503937008,
                    "duration": 0.13831266666670672
                },
                {
                    "name": "E3",
                    "midi": 52,
                    "time": 588.1054586666614,
                    "velocity": 0.3937007874015748,
                    "duration": 0.13831266666670672
                },
                {
                    "name": "D3",
                    "midi": 50,
                    "time": 588.2437713333281,
                    "velocity": 0.4015748031496063,
                    "duration": 0.13831266666670672
                },
                {
                    "name": "G3",
                    "midi": 55,
                    "time": 588.3820839999948,
                    "velocity": 0.44881889763779526,
                    "duration": 0.13831266666670672
                },
                {
                    "name": "F#3",
                    "midi": 54,
                    "time": 588.5203966666616,
                    "velocity": 0.41732283464566927,
                    "duration": 0.13831266666670672
                },
                {
                    "name": "E3",
                    "midi": 52,
                    "time": 588.6587093333283,
                    "velocity": 0.41732283464566927,
                    "duration": 0.13831266666670672
                },
                {
                    "name": "A3",
                    "midi": 57,
                    "time": 588.797021999995,
                    "velocity": 0.4645669291338583,
                    "duration": 0.13831266666670672
                },
                {
                    "name": "G3",
                    "midi": 55,
                    "time": 588.9353346666617,
                    "velocity": 0.4330708661417323,
                    "duration": 0.13831266666670672
                },
                {
                    "name": "F#3",
                    "midi": 54,
                    "time": 589.0736473333284,
                    "velocity": 0.4409448818897638,
                    "duration": 0.13831266666670672
                },
                {
                    "name": "B3",
                    "midi": 59,
                    "time": 589.2119599999951,
                    "velocity": 0.48031496062992124,
                    "duration": 0.13831266666670672
                },
                {
                    "name": "A3",
                    "midi": 57,
                    "time": 589.3502726666618,
                    "velocity": 0.44881889763779526,
                    "duration": 0.13831266666670672
                },
                {
                    "name": "G3",
                    "midi": 55,
                    "time": 589.4885853333285,
                    "velocity": 0.4566929133858268,
                    "duration": 0.13831266666670672
                },
                {
                    "name": "C#4",
                    "midi": 61,
                    "time": 589.6268979999952,
                    "velocity": 0.5118110236220472,
                    "duration": 0.13831266666670672
                },
                {
                    "name": "B3",
                    "midi": 59,
                    "time": 589.7652106666619,
                    "velocity": 0.47244094488188976,
                    "duration": 0.13831266666670672
                },
                {
                    "name": "A3",
                    "midi": 57,
                    "time": 589.9035233333286,
                    "velocity": 0.4881889763779528,
                    "duration": 0.13831266666670672
                },
                {
                    "name": "D4",
                    "midi": 62,
                    "time": 590.0418359999953,
                    "velocity": 0.5433070866141733,
                    "duration": 0.13831266666670672
                },
                {
                    "name": "C#4",
                    "midi": 61,
                    "time": 590.180148666662,
                    "velocity": 0.5118110236220472,
                    "duration": 0.13831266666670672
                },
                {
                    "name": "B3",
                    "midi": 59,
                    "time": 590.3184613333287,
                    "velocity": 0.5118110236220472,
                    "duration": 0.13831266666670672
                },
                {
                    "name": "E4",
                    "midi": 64,
                    "time": 590.4567739999954,
                    "velocity": 0.5748031496062992,
                    "duration": 0.13831266666670672
                },
                {
                    "name": "D4",
                    "midi": 62,
                    "time": 590.5950866666622,
                    "velocity": 0.5354330708661418,
                    "duration": 0.13831266666670672
                },
                {
                    "name": "C#4",
                    "midi": 61,
                    "time": 590.7333993333289,
                    "velocity": 0.5354330708661418,
                    "duration": 0.13831266666670672
                },
                {
                    "name": "A#3",
                    "midi": 58,
                    "time": 590.8717119999956,
                    "velocity": 0.6771653543307087,
                    "duration": 0.8298760000000129
                },
                {
                    "name": "C#4",
                    "midi": 61,
                    "time": 590.8717119999956,
                    "velocity": 0.6771653543307087,
                    "duration": 0.8298760000000129
                },
                {
                    "name": "F#4",
                    "midi": 66,
                    "time": 590.8717119999956,
                    "velocity": 0.6771653543307087,
                    "duration": 0.8298760000000129
                },
                {
                    "name": "G4",
                    "midi": 67,
                    "time": 592.5314639999956,
                    "velocity": 0.7401574803149606,
                    "duration": 0.8298760000000129
                },
                {
                    "name": "A4",
                    "midi": 69,
                    "time": 592.5314639999956,
                    "velocity": 0.7401574803149606,
                    "duration": 0.8298760000000129
                },
                {
                    "name": "C#5",
                    "midi": 73,
                    "time": 592.5314639999956,
                    "velocity": 0.7401574803149606,
                    "duration": 0.8298760000000129
                },
                {
                    "name": "E5",
                    "midi": 76,
                    "time": 592.5314639999956,
                    "velocity": 0.7401574803149606,
                    "duration": 0.8298760000000129
                },
                {
                    "name": "A5",
                    "midi": 81,
                    "time": 592.5314639999956,
                    "velocity": 0.7401574803149606,
                    "duration": 0.8298760000000129
                },
                {
                    "name": "F#3",
                    "midi": 54,
                    "time": 594.1912159999956,
                    "velocity": 0.5748031496062992,
                    "duration": 0.8298760000000129
                },
                {
                    "name": "A3",
                    "midi": 57,
                    "time": 594.1912159999956,
                    "velocity": 0.5748031496062992,
                    "duration": 0.8298760000000129
                },
                {
                    "name": "D4",
                    "midi": 62,
                    "time": 594.1912159999956,
                    "velocity": 0.6771653543307087,
                    "duration": 0.8298760000000129
                },
                {
                    "name": "F#3",
                    "midi": 54,
                    "time": 595.0210919999956,
                    "velocity": 0.5511811023622047,
                    "duration": 0.41493800000000647
                },
                {
                    "name": "A3",
                    "midi": 57,
                    "time": 595.0210919999956,
                    "velocity": 0.5511811023622047,
                    "duration": 0.41493800000000647
                },
                {
                    "name": "D4",
                    "midi": 62,
                    "time": 595.0210919999956,
                    "velocity": 0.6535433070866141,
                    "duration": 0.41493800000000647
                },
                {
                    "name": "F#3",
                    "midi": 54,
                    "time": 595.4360299999956,
                    "velocity": 0.5354330708661418,
                    "duration": 0.41493800000000647
                },
                {
                    "name": "A3",
                    "midi": 57,
                    "time": 595.4360299999956,
                    "velocity": 0.5354330708661418,
                    "duration": 0.41493800000000647
                },
                {
                    "name": "D4",
                    "midi": 62,
                    "time": 595.4360299999956,
                    "velocity": 0.6377952755905512,
                    "duration": 0.41493800000000647
                },
                {
                    "name": "F#3",
                    "midi": 54,
                    "time": 595.8509679999956,
                    "velocity": 0.6299212598425197,
                    "duration": 0.2074689999999464
                },
                {
                    "name": "A3",
                    "midi": 57,
                    "time": 595.8509679999956,
                    "velocity": 0.6299212598425197,
                    "duration": 0.2074689999999464
                },
                {
                    "name": "D4",
                    "midi": 62,
                    "time": 595.8509679999956,
                    "velocity": 0.7401574803149606,
                    "duration": 0.2074689999999464
                },
                {
                    "name": "D5",
                    "midi": 74,
                    "time": 596.6808439999955,
                    "velocity": 0.7165354330708661,
                    "duration": 0.2074689999999464
                },
                {
                    "name": "F#5",
                    "midi": 78,
                    "time": 596.6808439999955,
                    "velocity": 0.7165354330708661,
                    "duration": 0.2074689999999464
                },
                {
                    "name": "A5",
                    "midi": 81,
                    "time": 596.6808439999955,
                    "velocity": 0.7165354330708661,
                    "duration": 0.2074689999999464
                },
                {
                    "name": "D6",
                    "midi": 86,
                    "time": 596.6808439999955,
                    "velocity": 0.8503937007874016,
                    "duration": 0.2074689999999464
                },
                {
                    "name": "F#3",
                    "midi": 54,
                    "time": 597.5107199999954,
                    "velocity": 0.7401574803149606,
                    "duration": 0.8298760000000129
                },
                {
                    "name": "A3",
                    "midi": 57,
                    "time": 597.5107199999954,
                    "velocity": 0.7401574803149606,
                    "duration": 0.8298760000000129
                },
                {
                    "name": "D4",
                    "midi": 62,
                    "time": 597.5107199999954,
                    "velocity": 0.7401574803149606,
                    "duration": 0.8298760000000129
                }
            ],
            "controlChanges": {},
            "id": 1,
            "name": "Piano right",
            "instrumentNumber": 0,
            "instrument": "acoustic grand piano",
            "instrumentFamily": "piano",
            "channelNumber": 0,
            "isPercussion": false
        },
        {
            "startTime": 0,
            "duration": 598.3405959999883,
            "length": 3300,
            "notes": [
                {
                    "name": "D2",
                    "midi": 38,
                    "time": 0,
                    "velocity": 0.5039370078740157,
                    "duration": 0.8298760000000001
                },
                {
                    "name": "D3",
                    "midi": 50,
                    "time": 0,
                    "velocity": 0.5905511811023622,
                    "duration": 0.8298760000000001
                },
                {
                    "name": "F#2",
                    "midi": 42,
                    "time": 0.8298760000000001,
                    "velocity": 0.3543307086614173,
                    "duration": 0.10373450000000006
                },
                {
                    "name": "D3",
                    "midi": 50,
                    "time": 0.8298760000000001,
                    "velocity": 0.41732283464566927,
                    "duration": 0.10373450000000006
                },
                {
                    "name": "F#2",
                    "midi": 42,
                    "time": 1.0373450000000002,
                    "velocity": 0.31496062992125984,
                    "duration": 0.10373450000000006
                },
                {
                    "name": "D3",
                    "midi": 50,
                    "time": 1.0373450000000002,
                    "velocity": 0.3779527559055118,
                    "duration": 0.10373450000000006
                },
                {
                    "name": "F#2",
                    "midi": 42,
                    "time": 1.2448140000000003,
                    "velocity": 0.3543307086614173,
                    "duration": 0.10373450000000006
                },
                {
                    "name": "D3",
                    "midi": 50,
                    "time": 1.2448140000000003,
                    "velocity": 0.41732283464566927,
                    "duration": 0.10373450000000006
                },
                {
                    "name": "F#2",
                    "midi": 42,
                    "time": 1.4522830000000004,
                    "velocity": 0.31496062992125984,
                    "duration": 0.10373450000000006
                },
                {
                    "name": "D3",
                    "midi": 50,
                    "time": 1.4522830000000004,
                    "velocity": 0.3779527559055118,
                    "duration": 0.10373450000000006
                },
                {
                    "name": "F#2",
                    "midi": 42,
                    "time": 1.6597520000000006,
                    "velocity": 0.3858267716535433,
                    "duration": 0.4149379999999998
                },
                {
                    "name": "D3",
                    "midi": 50,
                    "time": 1.6597520000000006,
                    "velocity": 0.4566929133858268,
                    "duration": 0.6224069999999999
                },
                {
                    "name": "G2",
                    "midi": 43,
                    "time": 2.0746900000000004,
                    "velocity": 0.3543307086614173,
                    "duration": 0.20746900000000013
                },
                {
                    "name": "E3",
                    "midi": 52,
                    "time": 2.0746900000000004,
                    "velocity": 0.4251968503937008,
                    "duration": 0.20746900000000013
                },
                {
                    "name": "A2",
                    "midi": 45,
                    "time": 2.4896280000000006,
                    "velocity": 0.3543307086614173,
                    "duration": 0.10373449999999984
                },
                {
                    "name": "D3",
                    "midi": 50,
                    "time": 2.4896280000000006,
                    "velocity": 0.3543307086614173,
                    "duration": 0.10373449999999984
                },
                {
                    "name": "F#3",
                    "midi": 54,
                    "time": 2.4896280000000006,
                    "velocity": 0.41732283464566927,
                    "duration": 0.10373449999999984
                },
                {
                    "name": "A2",
                    "midi": 45,
                    "time": 2.6970970000000003,
                    "velocity": 0.31496062992125984,
                    "duration": 0.10373449999999984
                },
                {
                    "name": "D3",
                    "midi": 50,
                    "time": 2.6970970000000003,
                    "velocity": 0.31496062992125984,
                    "duration": 0.10373449999999984
                },
                {
                    "name": "F#3",
                    "midi": 54,
                    "time": 2.6970970000000003,
                    "velocity": 0.3779527559055118,
                    "duration": 0.10373449999999984
                },
                {
                    "name": "A2",
                    "midi": 45,
                    "time": 2.904566,
                    "velocity": 0.3543307086614173,
                    "duration": 0.10373449999999984
                },
                {
                    "name": "D3",
                    "midi": 50,
                    "time": 2.904566,
                    "velocity": 0.3543307086614173,
                    "duration": 0.10373449999999984
                },
                {
                    "name": "F#3",
                    "midi": 54,
                    "time": 2.904566,
                    "velocity": 0.41732283464566927,
                    "duration": 0.10373449999999984
                },
                {
                    "name": "A2",
                    "midi": 45,
                    "time": 3.1120349999999997,
                    "velocity": 0.31496062992125984,
                    "duration": 0.10373449999999984
                },
                {
                    "name": "D3",
                    "midi": 50,
                    "time": 3.1120349999999997,
                    "velocity": 0.31496062992125984,
                    "duration": 0.10373449999999984
                },
                {
                    "name": "F#3",
                    "midi": 54,
                    "time": 3.1120349999999997,
                    "velocity": 0.3779527559055118,
                    "duration": 0.10373449999999984
                },
                {
                    "name": "D3",
                    "midi": 50,
                    "time": 3.3195039999999993,
                    "velocity": 0.3858267716535433,
                    "duration": 0.6224070000000004
                },
                {
                    "name": "A2",
                    "midi": 45,
                    "time": 3.3195039999999993,
                    "velocity": 0.3858267716535433,
                    "duration": 0.41493800000000025
                },
                {
                    "name": "F#3",
                    "midi": 54,
                    "time": 3.3195039999999993,
                    "velocity": 0.4566929133858268,
                    "duration": 0.41493800000000025
                },
                {
                    "name": "B2",
                    "midi": 47,
                    "time": 3.7344419999999996,
                    "velocity": 0.3543307086614173,
                    "duration": 0.20746900000000013
                },
                {
                    "name": "G3",
                    "midi": 55,
                    "time": 3.7344419999999996,
                    "velocity": 0.4251968503937008,
                    "duration": 0.20746900000000013
                },
                {
                    "name": "E3",
                    "midi": 52,
                    "time": 3.9419109999999997,
                    "velocity": 0.36220472440944884,
                    "duration": 0.20746900000000013
                },
                {
                    "name": "G3",
                    "midi": 55,
                    "time": 4.14938,
                    "velocity": 0.4251968503937008,
                    "duration": 0.13831266666666675
                },
                {
                    "name": "F#3",
                    "midi": 54,
                    "time": 4.287692666666667,
                    "velocity": 0.3700787401574803,
                    "duration": 0.13831266666666675
                },
                {
                    "name": "E3",
                    "midi": 52,
                    "time": 4.426005333333333,
                    "velocity": 0.3779527559055118,
                    "duration": 0.13831266666666675
                },
                {
                    "name": "A#3",
                    "midi": 58,
                    "time": 4.564318,
                    "velocity": 0.4251968503937008,
                    "duration": 0.13831266666666675
                },
                {
                    "name": "A3",
                    "midi": 57,
                    "time": 4.702630666666667,
                    "velocity": 0.3858267716535433,
                    "duration": 0.13831266666666675
                },
                {
                    "name": "G3",
                    "midi": 55,
                    "time": 4.840943333333334,
                    "velocity": 0.3858267716535433,
                    "duration": 0.13831266666666675
                },
                {
                    "name": "A3",
                    "midi": 57,
                    "time": 4.979256,
                    "velocity": 0.4251968503937008,
                    "duration": 0.20746899999999968
                },
                {
                    "name": "D4",
                    "midi": 62,
                    "time": 5.394194,
                    "velocity": 0.33070866141732286,
                    "duration": 0.13831266666666675
                },
                {
                    "name": "E4",
                    "midi": 64,
                    "time": 5.5325066666666665,
                    "velocity": 0.2755905511811024,
                    "duration": 0.13831266666666675
                },
                {
                    "name": "F#4",
                    "midi": 66,
                    "time": 5.670819333333333,
                    "velocity": 0.2755905511811024,
                    "duration": 0.13831266666666675
                },
                {
                    "name": "A3",
                    "midi": 57,
                    "time": 5.809132,
                    "velocity": 0.33858267716535434,
                    "duration": 0.13831266666666675
                },
                {
                    "name": "C#4",
                    "midi": 61,
                    "time": 5.947444666666667,
                    "velocity": 0.28346456692913385,
                    "duration": 0.13831266666666675
                },
                {
                    "name": "D4",
                    "midi": 62,
                    "time": 6.0857573333333335,
                    "velocity": 0.28346456692913385,
                    "duration": 0.13831266666666675
                },
                {
                    "name": "E4",
                    "midi": 64,
                    "time": 6.22407,
                    "velocity": 0.33858267716535434,
                    "duration": 0.13831266666666675
                },
                {
                    "name": "F#4",
                    "midi": 66,
                    "time": 6.362382666666667,
                    "velocity": 0.29133858267716534,
                    "duration": 0.13831266666666675
                },
                {
                    "name": "G4",
                    "midi": 67,
                    "time": 6.500695333333334,
                    "velocity": 0.29133858267716534,
                    "duration": 0.13831266666666675
                },
                {
                    "name": "D2",
                    "midi": 38,
                    "time": 6.6390080000000005,
                    "velocity": 0.5039370078740157,
                    "duration": 0.8298760000000005
                },
                {
                    "name": "D3",
                    "midi": 50,
                    "time": 6.6390080000000005,
                    "velocity": 0.5905511811023622,
                    "duration": 0.8298760000000005
                },
                {
                    "name": "F2",
                    "midi": 41,
                    "time": 7.468884000000001,
                    "velocity": 0.3543307086614173,
                    "duration": 0.10373449999999984
                },
                {
                    "name": "D3",
                    "midi": 50,
                    "time": 7.468884000000001,
                    "velocity": 0.41732283464566927,
                    "duration": 0.10373449999999984
                },
                {
                    "name": "F2",
                    "midi": 41,
                    "time": 7.676353000000001,
                    "velocity": 0.31496062992125984,
                    "duration": 0.10373449999999984
                },
                {
                    "name": "D3",
                    "midi": 50,
                    "time": 7.676353000000001,
                    "velocity": 0.3779527559055118,
                    "duration": 0.10373449999999984
                },
                {
                    "name": "F2",
                    "midi": 41,
                    "time": 7.883822,
                    "velocity": 0.3543307086614173,
                    "duration": 0.10373449999999984
                },
                {
                    "name": "D3",
                    "midi": 50,
                    "time": 7.883822,
                    "velocity": 0.41732283464566927,
                    "duration": 0.10373449999999984
                },
                {
                    "name": "F2",
                    "midi": 41,
                    "time": 8.091291,
                    "velocity": 0.31496062992125984,
                    "duration": 0.10373449999999984
                },
                {
                    "name": "D3",
                    "midi": 50,
                    "time": 8.091291,
                    "velocity": 0.3779527559055118,
                    "duration": 0.10373449999999984
                },
                {
                    "name": "F2",
                    "midi": 41,
                    "time": 8.29876,
                    "velocity": 0.3858267716535433,
                    "duration": 0.41493799999999936
                },
                {
                    "name": "D3",
                    "midi": 50,
                    "time": 8.29876,
                    "velocity": 0.4566929133858268,
                    "duration": 0.622406999999999
                },
                {
                    "name": "G2",
                    "midi": 43,
                    "time": 8.713697999999999,
                    "velocity": 0.3543307086614173,
                    "duration": 0.20746899999999968
                },
                {
                    "name": "E3",
                    "midi": 52,
                    "time": 8.713697999999999,
                    "velocity": 0.4251968503937008,
                    "duration": 0.20746899999999968
                },
                {
                    "name": "A2",
                    "midi": 45,
                    "time": 9.128635999999998,
                    "velocity": 0.3543307086614173,
                    "duration": 0.10373449999999984
                },
                {
                    "name": "D3",
                    "midi": 50,
                    "time": 9.128635999999998,
                    "velocity": 0.3543307086614173,
                    "duration": 0.10373449999999984
                },
                {
                    "name": "F#3",
                    "midi": 54,
                    "time": 9.128635999999998,
                    "velocity": 0.41732283464566927,
                    "duration": 0.10373449999999984
                },
                {
                    "name": "A2",
                    "midi": 45,
                    "time": 9.336104999999998,
                    "velocity": 0.31496062992125984,
                    "duration": 0.10373449999999984
                },
                {
                    "name": "D3",
                    "midi": 50,
                    "time": 9.336104999999998,
                    "velocity": 0.31496062992125984,
                    "duration": 0.10373449999999984
                },
                {
                    "name": "F#3",
                    "midi": 54,
                    "time": 9.336104999999998,
                    "velocity": 0.3779527559055118,
                    "duration": 0.10373449999999984
                },
                {
                    "name": "A2",
                    "midi": 45,
                    "time": 9.543573999999998,
                    "velocity": 0.3543307086614173,
                    "duration": 0.10373449999999984
                },
                {
                    "name": "D3",
                    "midi": 50,
                    "time": 9.543573999999998,
                    "velocity": 0.3543307086614173,
                    "duration": 0.10373449999999984
                },
                {
                    "name": "F#3",
                    "midi": 54,
                    "time": 9.543573999999998,
                    "velocity": 0.41732283464566927,
                    "duration": 0.10373449999999984
                },
                {
                    "name": "A2",
                    "midi": 45,
                    "time": 9.751042999999997,
                    "velocity": 0.31496062992125984,
                    "duration": 0.10373449999999984
                },
                {
                    "name": "D3",
                    "midi": 50,
                    "time": 9.751042999999997,
                    "velocity": 0.31496062992125984,
                    "duration": 0.10373449999999984
                },
                {
                    "name": "F#3",
                    "midi": 54,
                    "time": 9.751042999999997,
                    "velocity": 0.3779527559055118,
                    "duration": 0.10373449999999984
                },
                {
                    "name": "D3",
                    "midi": 50,
                    "time": 9.958511999999997,
                    "velocity": 0.3858267716535433,
                    "duration": 0.622406999999999
                },
                {
                    "name": "A2",
                    "midi": 45,
                    "time": 9.958511999999997,
                    "velocity": 0.3858267716535433,
                    "duration": 0.41493799999999936
                },
                {
                    "name": "F#3",
                    "midi": 54,
                    "time": 9.958511999999997,
                    "velocity": 0.4566929133858268,
                    "duration": 0.41493799999999936
                },
                {
                    "name": "A#2",
                    "midi": 46,
                    "time": 10.373449999999997,
                    "velocity": 0.3543307086614173,
                    "duration": 0.20746899999999968
                },
                {
                    "name": "G3",
                    "midi": 55,
                    "time": 10.373449999999997,
                    "velocity": 0.4251968503937008,
                    "duration": 0.20746899999999968
                },
                {
                    "name": "B2",
                    "midi": 47,
                    "time": 10.788387999999996,
                    "velocity": 0.3543307086614173,
                    "duration": 0.10373449999999984
                },
                {
                    "name": "F3",
                    "midi": 53,
                    "time": 10.788387999999996,
                    "velocity": 0.3543307086614173,
                    "duration": 0.10373449999999984
                },
                {
                    "name": "G#3",
                    "midi": 56,
                    "time": 10.788387999999996,
                    "velocity": 0.41732283464566927,
                    "duration": 0.10373449999999984
                },
                {
                    "name": "B2",
                    "midi": 47,
                    "time": 10.995856999999996,
                    "velocity": 0.31496062992125984,
                    "duration": 0.10373449999999984
                },
                {
                    "name": "F3",
                    "midi": 53,
                    "time": 10.995856999999996,
                    "velocity": 0.31496062992125984,
                    "duration": 0.10373449999999984
                },
                {
                    "name": "G#3",
                    "midi": 56,
                    "time": 10.995856999999996,
                    "velocity": 0.3779527559055118,
                    "duration": 0.10373449999999984
                },
                {
                    "name": "B2",
                    "midi": 47,
                    "time": 11.203325999999995,
                    "velocity": 0.3543307086614173,
                    "duration": 0.10373449999999984
                },
                {
                    "name": "F3",
                    "midi": 53,
                    "time": 11.203325999999995,
                    "velocity": 0.3543307086614173,
                    "duration": 0.10373449999999984
                },
                {
                    "name": "G#3",
                    "midi": 56,
                    "time": 11.203325999999995,
                    "velocity": 0.41732283464566927,
                    "duration": 0.10373449999999984
                },
                {
                    "name": "B2",
                    "midi": 47,
                    "time": 11.410794999999995,
                    "velocity": 0.31496062992125984,
                    "duration": 0.10373449999999984
                },
                {
                    "name": "F3",
                    "midi": 53,
                    "time": 11.410794999999995,
                    "velocity": 0.31496062992125984,
                    "duration": 0.10373449999999984
                },
                {
                    "name": "G#3",
                    "midi": 56,
                    "time": 11.410794999999995,
                    "velocity": 0.3779527559055118,
                    "duration": 0.10373449999999984
                },
                {
                    "name": "F3",
                    "midi": 53,
                    "time": 11.618263999999995,
                    "velocity": 0.3858267716535433,
                    "duration": 0.8298760000000005
                },
                {
                    "name": "C3",
                    "midi": 48,
                    "time": 11.618263999999995,
                    "velocity": 0.3858267716535433,
                    "duration": 0.8298760000000005
                },
                {
                    "name": "A3",
                    "midi": 57,
                    "time": 11.618263999999995,
                    "velocity": 0.4566929133858268,
                    "duration": 0.8298760000000005
                },
                {
                    "name": "C3",
                    "midi": 48,
                    "time": 12.448139999999995,
                    "velocity": 0.33858267716535434,
                    "duration": 0.10373449999999984
                },
                {
                    "name": "C3",
                    "midi": 48,
                    "time": 12.655608999999995,
                    "velocity": 0.28346456692913385,
                    "duration": 0.10373449999999984
                },
                {
                    "name": "C3",
                    "midi": 48,
                    "time": 12.863077999999994,
                    "velocity": 0.33858267716535434,
                    "duration": 0.10373449999999984
                },
                {
                    "name": "C3",
                    "midi": 48,
                    "time": 13.070546999999994,
                    "velocity": 0.29133858267716534,
                    "duration": 0.10373449999999984
                },
                {
                    "name": "C3",
                    "midi": 48,
                    "time": 13.278015999999994,
                    "velocity": 0.33858267716535434,
                    "duration": 0.41493799999999936
                },
                {
                    "name": "A2",
                    "midi": 45,
                    "time": 13.692953999999993,
                    "velocity": 0.33858267716535434,
                    "duration": 0.20746899999999968
                },
                {
                    "name": "C3",
                    "midi": 48,
                    "time": 14.101840820833326,
                    "velocity": 0.33858267716535434,
                    "duration": 0.10373449999999984
                },
                {
                    "name": "C3",
                    "midi": 48,
                    "time": 14.309309820833326,
                    "velocity": 0.28346456692913385,
                    "duration": 0.10373449999999984
                },
                {
                    "name": "C3",
                    "midi": 48,
                    "time": 14.516778820833325,
                    "velocity": 0.33858267716535434,
                    "duration": 0.10373449999999984
                },
                {
                    "name": "C3",
                    "midi": 48,
                    "time": 14.724247820833325,
                    "velocity": 0.29133858267716534,
                    "duration": 0.10373449999999984
                },
                {
                    "name": "C3",
                    "midi": 48,
                    "time": 14.937767999999991,
                    "velocity": 0.33858267716535434,
                    "duration": 0.41493799999999936
                },
                {
                    "name": "F3",
                    "midi": 53,
                    "time": 15.76764399999999,
                    "velocity": 0.2992125984251969,
                    "duration": 0.15214393333333298
                },
                {
                    "name": "G3",
                    "midi": 55,
                    "time": 15.905956666666656,
                    "velocity": 0.2677165354330709,
                    "duration": 0.15214393333333298
                },
                {
                    "name": "A3",
                    "midi": 57,
                    "time": 16.04426933333332,
                    "velocity": 0.2440944881889764,
                    "duration": 0.13831266666666764
                },
                {
                    "name": "A2",
                    "midi": 45,
                    "time": 16.18258199999999,
                    "velocity": 0.33070866141732286,
                    "duration": 0.15214393333333476
                },
                {
                    "name": "A#2",
                    "midi": 46,
                    "time": 16.320894666666657,
                    "velocity": 0.28346456692913385,
                    "duration": 0.15214393333333476
                },
                {
                    "name": "C3",
                    "midi": 48,
                    "time": 16.459207333333325,
                    "velocity": 0.2677165354330709,
                    "duration": 0.13831266666666764
                },
                {
                    "name": "F2",
                    "midi": 41,
                    "time": 16.597519999999992,
                    "velocity": 0.33858267716535434,
                    "duration": 0.15214393333333476
                },
                {
                    "name": "G2",
                    "midi": 43,
                    "time": 16.73583266666666,
                    "velocity": 0.29133858267716534,
                    "duration": 0.15214393333333476
                },
                {
                    "name": "A2",
                    "midi": 45,
                    "time": 16.874145333333328,
                    "velocity": 0.2677165354330709,
                    "duration": 0.13831266666666764
                },
                {
                    "name": "A1",
                    "midi": 33,
                    "time": 17.012457999999995,
                    "velocity": 0.36220472440944884,
                    "duration": 0.15214393333333476
                },
                {
                    "name": "A#1",
                    "midi": 34,
                    "time": 17.150770666666663,
                    "velocity": 0.31496062992125984,
                    "duration": 0.15214393333333476
                },
                {
                    "name": "C2",
                    "midi": 36,
                    "time": 17.28908333333333,
                    "velocity": 0.29133858267716534,
                    "duration": 0.13831266666666764
                },
                {
                    "name": "A1",
                    "midi": 33,
                    "time": 17.427395999999998,
                    "velocity": 0.4409448818897638,
                    "duration": 0.15214393333333476
                },
                {
                    "name": "A#1",
                    "midi": 34,
                    "time": 17.565708666666666,
                    "velocity": 0.3937007874015748,
                    "duration": 0.15214393333333476
                },
                {
                    "name": "C2",
                    "midi": 36,
                    "time": 17.704021333333333,
                    "velocity": 0.3700787401574803,
                    "duration": 0.13831266666666764
                },
                {
                    "name": "A1",
                    "midi": 33,
                    "time": 17.842334,
                    "velocity": 0.47244094488188976,
                    "duration": 0.15214393333333476
                },
                {
                    "name": "A#1",
                    "midi": 34,
                    "time": 17.98064666666667,
                    "velocity": 0.4251968503937008,
                    "duration": 0.15214393333333476
                },
                {
                    "name": "C2",
                    "midi": 36,
                    "time": 18.118959333333336,
                    "velocity": 0.3937007874015748,
                    "duration": 0.13831266666666764
                },
                {
                    "name": "C#2",
                    "midi": 37,
                    "time": 18.257272000000004,
                    "velocity": 0.5511811023622047,
                    "duration": 0.10373450000000162
                },
                {
                    "name": "C#2",
                    "midi": 37,
                    "time": 18.46819881666667,
                    "velocity": 0.2755905511811024,
                    "duration": 0.10373450000000162
                },
                {
                    "name": "C#2",
                    "midi": 37,
                    "time": 18.672210000000007,
                    "velocity": 0.2755905511811024,
                    "duration": 0.10373450000000162
                },
                {
                    "name": "C#2",
                    "midi": 37,
                    "time": 18.87967900000001,
                    "velocity": 0.2755905511811024,
                    "duration": 0.10373450000000162
                },
                {
                    "name": "C#2",
                    "midi": 37,
                    "time": 19.087148000000013,
                    "velocity": 0.36220472440944884,
                    "duration": 0.8298759999999987
                },
                {
                    "name": "C#3",
                    "midi": 49,
                    "time": 19.917024000000012,
                    "velocity": 0.3464566929133858,
                    "duration": 0.10373450000000162
                },
                {
                    "name": "C#2",
                    "midi": 37,
                    "time": 19.917024000000012,
                    "velocity": 0.29133858267716534,
                    "duration": 0.10373450000000162
                },
                {
                    "name": "C#3",
                    "midi": 49,
                    "time": 20.124493000000015,
                    "velocity": 0.2755905511811024,
                    "duration": 0.10373450000000162
                },
                {
                    "name": "C#2",
                    "midi": 37,
                    "time": 20.127950816666683,
                    "velocity": 0.2283464566929134,
                    "duration": 0.10373450000000162
                },
                {
                    "name": "C#2",
                    "midi": 37,
                    "time": 20.33196200000002,
                    "velocity": 0.2283464566929134,
                    "duration": 0.10373450000000162
                },
                {
                    "name": "C#3",
                    "midi": 49,
                    "time": 20.33196200000002,
                    "velocity": 0.2755905511811024,
                    "duration": 0.10373450000000162
                },
                {
                    "name": "C#3",
                    "midi": 49,
                    "time": 20.53943100000002,
                    "velocity": 0.2755905511811024,
                    "duration": 0.10373450000000162
                },
                {
                    "name": "C#2",
                    "midi": 37,
                    "time": 20.53943100000002,
                    "velocity": 0.2283464566929134,
                    "duration": 0.10373450000000162
                },
                {
                    "name": "C#3",
                    "midi": 49,
                    "time": 20.746900000000025,
                    "velocity": 0.4330708661417323,
                    "duration": 0.8298759999999987
                },
                {
                    "name": "C#2",
                    "midi": 37,
                    "time": 20.746900000000025,
                    "velocity": 0.36220472440944884,
                    "duration": 0.8298759999999987
                },
                {
                    "name": "A2",
                    "midi": 45,
                    "time": 21.576776000000024,
                    "velocity": 0.48031496062992124,
                    "duration": 0.10373450000000162
                },
                {
                    "name": "A1",
                    "midi": 33,
                    "time": 21.576776000000024,
                    "velocity": 0.4015748031496063,
                    "duration": 0.10373450000000162
                },
                {
                    "name": "A1",
                    "midi": 33,
                    "time": 21.784245000000027,
                    "velocity": 0.30708661417322836,
                    "duration": 0.10373450000000162
                },
                {
                    "name": "A2",
                    "midi": 45,
                    "time": 21.784245000000027,
                    "velocity": 0.3779527559055118,
                    "duration": 0.10373450000000162
                },
                {
                    "name": "A1",
                    "midi": 33,
                    "time": 21.99171400000003,
                    "velocity": 0.30708661417322836,
                    "duration": 0.10373450000000162
                },
                {
                    "name": "A2",
                    "midi": 45,
                    "time": 21.99171400000003,
                    "velocity": 0.3779527559055118,
                    "duration": 0.10373450000000162
                },
                {
                    "name": "A2",
                    "midi": 45,
                    "time": 22.199183000000033,
                    "velocity": 0.3858267716535433,
                    "duration": 0.10373450000000162
                },
                {
                    "name": "A1",
                    "midi": 33,
                    "time": 22.199183000000033,
                    "velocity": 0.30708661417322836,
                    "duration": 0.10373450000000162
                },
                {
                    "name": "A2",
                    "midi": 45,
                    "time": 22.406652000000037,
                    "velocity": 0.5354330708661418,
                    "duration": 0.8298759999999987
                },
                {
                    "name": "A1",
                    "midi": 33,
                    "time": 22.406652000000037,
                    "velocity": 0.4566929133858268,
                    "duration": 0.8298759999999987
                },
                {
                    "name": "A2",
                    "midi": 45,
                    "time": 23.236528000000035,
                    "velocity": 0.6141732283464567,
                    "duration": 0.10373450000000162
                },
                {
                    "name": "A1",
                    "midi": 33,
                    "time": 23.236528000000035,
                    "velocity": 0.5039370078740157,
                    "duration": 0.10373450000000162
                },
                {
                    "name": "A1",
                    "midi": 33,
                    "time": 23.44399700000004,
                    "velocity": 0.4015748031496063,
                    "duration": 0.10373450000000162
                },
                {
                    "name": "A2",
                    "midi": 45,
                    "time": 23.44399700000004,
                    "velocity": 0.4881889763779528,
                    "duration": 0.10373450000000162
                },
                {
                    "name": "A1",
                    "midi": 33,
                    "time": 23.651466000000042,
                    "velocity": 0.4094488188976378,
                    "duration": 0.10373450000000162
                },
                {
                    "name": "A2",
                    "midi": 45,
                    "time": 23.651466000000042,
                    "velocity": 0.5039370078740157,
                    "duration": 0.10373450000000162
                },
                {
                    "name": "A2",
                    "midi": 45,
                    "time": 23.858935000000045,
                    "velocity": 0.5275590551181102,
                    "duration": 0.10373450000000162
                },
                {
                    "name": "A1",
                    "midi": 33,
                    "time": 23.858935000000045,
                    "velocity": 0.4330708661417323,
                    "duration": 0.10373450000000162
                },
                {
                    "name": "A2",
                    "midi": 45,
                    "time": 24.06640400000005,
                    "velocity": 0.7401574803149606,
                    "duration": 0.8298759999999987
                },
                {
                    "name": "A1",
                    "midi": 33,
                    "time": 24.06640400000005,
                    "velocity": 0.6220472440944882,
                    "duration": 0.8298759999999987
                },
                {
                    "name": "A2",
                    "midi": 45,
                    "time": 24.896280000000047,
                    "velocity": 0.5748031496062992,
                    "duration": 0.8298759999999987
                },
                {
                    "name": "F#2",
                    "midi": 42,
                    "time": 24.896280000000047,
                    "velocity": 0.5748031496062992,
                    "duration": 0.8298759999999987
                },
                {
                    "name": "D2",
                    "midi": 38,
                    "time": 24.896280000000047,
                    "velocity": 0.5748031496062992,
                    "duration": 0.8298759999999987
                },
                {
                    "name": "D3",
                    "midi": 50,
                    "time": 24.896280000000047,
                    "velocity": 0.6771653543307087,
                    "duration": 0.8298759999999987
                },
                {
                    "name": "F#2",
                    "midi": 42,
                    "time": 25.726156000000046,
                    "velocity": 0.33858267716535434,
                    "duration": 0.10373450000000162
                },
                {
                    "name": "D3",
                    "midi": 50,
                    "time": 25.726156000000046,
                    "velocity": 0.4015748031496063,
                    "duration": 0.10373450000000162
                },
                {
                    "name": "F#2",
                    "midi": 42,
                    "time": 25.93362500000005,
                    "velocity": 0.30708661417322836,
                    "duration": 0.10373450000000162
                },
                {
                    "name": "D3",
                    "midi": 50,
                    "time": 25.93362500000005,
                    "velocity": 0.36220472440944884,
                    "duration": 0.10373450000000162
                },
                {
                    "name": "F#2",
                    "midi": 42,
                    "time": 26.141094000000052,
                    "velocity": 0.33858267716535434,
                    "duration": 0.10373450000000162
                },
                {
                    "name": "D3",
                    "midi": 50,
                    "time": 26.141094000000052,
                    "velocity": 0.4015748031496063,
                    "duration": 0.10373450000000162
                },
                {
                    "name": "F#2",
                    "midi": 42,
                    "time": 26.348563000000055,
                    "velocity": 0.30708661417322836,
                    "duration": 0.10373450000000162
                },
                {
                    "name": "D3",
                    "midi": 50,
                    "time": 26.348563000000055,
                    "velocity": 0.36220472440944884,
                    "duration": 0.10373450000000162
                },
                {
                    "name": "F#2",
                    "midi": 42,
                    "time": 26.55603200000006,
                    "velocity": 0.3700787401574803,
                    "duration": 0.41493799999999936
                },
                {
                    "name": "D3",
                    "midi": 50,
                    "time": 26.55603200000006,
                    "velocity": 0.4409448818897638,
                    "duration": 0.622406999999999
                },
                {
                    "name": "G2",
                    "midi": 43,
                    "time": 26.970970000000058,
                    "velocity": 0.33858267716535434,
                    "duration": 0.20746899999999968
                },
                {
                    "name": "E3",
                    "midi": 52,
                    "time": 26.970970000000058,
                    "velocity": 0.4094488188976378,
                    "duration": 0.20746899999999968
                },
                {
                    "name": "A2",
                    "midi": 45,
                    "time": 27.385908000000057,
                    "velocity": 0.41732283464566927,
                    "duration": 0.13831266666666764
                },
                {
                    "name": "B2",
                    "midi": 47,
                    "time": 27.524220666666725,
                    "velocity": 0.3779527559055118,
                    "duration": 0.13831266666666764
                },
                {
                    "name": "C3",
                    "midi": 48,
                    "time": 27.662533333333393,
                    "velocity": 0.3779527559055118,
                    "duration": 0.13831266666666764
                },
                {
                    "name": "D3",
                    "midi": 50,
                    "time": 27.80084600000006,
                    "velocity": 0.41732283464566927,
                    "duration": 0.13831266666666764
                },
                {
                    "name": "E3",
                    "midi": 52,
                    "time": 27.939158666666728,
                    "velocity": 0.3858267716535433,
                    "duration": 0.13831266666666764
                },
                {
                    "name": "F#3",
                    "midi": 54,
                    "time": 28.077471333333396,
                    "velocity": 0.3779527559055118,
                    "duration": 0.13831266666666764
                },
                {
                    "name": "A#2",
                    "midi": 46,
                    "time": 28.215784000000063,
                    "velocity": 0.41732283464566927,
                    "duration": 0.20746899999999968
                },
                {
                    "name": "F#3",
                    "midi": 54,
                    "time": 28.423253000000063,
                    "velocity": 0.3858267716535433,
                    "duration": 0.20746899999999968
                },
                {
                    "name": "B2",
                    "midi": 47,
                    "time": 28.630722000000063,
                    "velocity": 0.41732283464566927,
                    "duration": 0.20746899999999968
                },
                {
                    "name": "G3",
                    "midi": 55,
                    "time": 28.838191000000062,
                    "velocity": 0.3779527559055118,
                    "duration": 0.20746899999999968
                },
                {
                    "name": "C#3",
                    "midi": 49,
                    "time": 29.045660000000062,
                    "velocity": 0.33858267716535434,
                    "duration": 0.10373450000000162
                },
                {
                    "name": "G3",
                    "midi": 55,
                    "time": 29.045660000000062,
                    "velocity": 0.33858267716535434,
                    "duration": 0.10373450000000162
                },
                {
                    "name": "A3",
                    "midi": 57,
                    "time": 29.045660000000062,
                    "velocity": 0.4015748031496063,
                    "duration": 0.10373450000000162
                },
                {
                    "name": "C#3",
                    "midi": 49,
                    "time": 29.253129000000065,
                    "velocity": 0.30708661417322836,
                    "duration": 0.10373450000000162
                },
                {
                    "name": "G3",
                    "midi": 55,
                    "time": 29.253129000000065,
                    "velocity": 0.30708661417322836,
                    "duration": 0.10373450000000162
                },
                {
                    "name": "A3",
                    "midi": 57,
                    "time": 29.253129000000065,
                    "velocity": 0.36220472440944884,
                    "duration": 0.10373450000000162
                },
                {
                    "name": "C#3",
                    "midi": 49,
                    "time": 29.46059800000007,
                    "velocity": 0.33858267716535434,
                    "duration": 0.10373450000000162
                },
                {
                    "name": "G3",
                    "midi": 55,
                    "time": 29.46059800000007,
                    "velocity": 0.33858267716535434,
                    "duration": 0.10373450000000162
                },
                {
                    "name": "A3",
                    "midi": 57,
                    "time": 29.46059800000007,
                    "velocity": 0.4015748031496063,
                    "duration": 0.10373450000000162
                },
                {
                    "name": "C#3",
                    "midi": 49,
                    "time": 29.66806700000007,
                    "velocity": 0.30708661417322836,
                    "duration": 0.10373450000000162
                },
                {
                    "name": "G3",
                    "midi": 55,
                    "time": 29.66806700000007,
                    "velocity": 0.30708661417322836,
                    "duration": 0.10373450000000162
                },
                {
                    "name": "A3",
                    "midi": 57,
                    "time": 29.66806700000007,
                    "velocity": 0.36220472440944884,
                    "duration": 0.10373450000000162
                },
                {
                    "name": "G3",
                    "midi": 55,
                    "time": 29.875536000000075,
                    "velocity": 0.3700787401574803,
                    "duration": 0.622406999999999
                },
                {
                    "name": "C#3",
                    "midi": 49,
                    "time": 29.875536000000075,
                    "velocity": 0.3700787401574803,
                    "duration": 0.41493799999999936
                },
                {
                    "name": "A3",
                    "midi": 57,
                    "time": 29.875536000000075,
                    "velocity": 0.4409448818897638,
                    "duration": 0.41493799999999936
                },
                {
                    "name": "D3",
                    "midi": 50,
                    "time": 30.290474000000074,
                    "velocity": 0.33858267716535434,
                    "duration": 0.20746899999999968
                },
                {
                    "name": "B3",
                    "midi": 59,
                    "time": 30.290474000000074,
                    "velocity": 0.4094488188976378,
                    "duration": 0.20746899999999968
                },
                {
                    "name": "D3",
                    "midi": 50,
                    "time": 30.705412000000074,
                    "velocity": 0.41732283464566927,
                    "duration": 0.13831266666666764
                },
                {
                    "name": "E3",
                    "midi": 52,
                    "time": 30.84372466666674,
                    "velocity": 0.3779527559055118,
                    "duration": 0.13831266666666764
                },
                {
                    "name": "F#3",
                    "midi": 54,
                    "time": 30.98203733333341,
                    "velocity": 0.3779527559055118,
                    "duration": 0.13831266666666764
                },
                {
                    "name": "G3",
                    "midi": 55,
                    "time": 31.120350000000077,
                    "velocity": 0.41732283464566927,
                    "duration": 0.13831266666666764
                },
                {
                    "name": "A3",
                    "midi": 57,
                    "time": 31.258662666666744,
                    "velocity": 0.3858267716535433,
                    "duration": 0.13831266666666764
                },
                {
                    "name": "B3",
                    "midi": 59,
                    "time": 31.396975333333412,
                    "velocity": 0.3779527559055118,
                    "duration": 0.13831266666666764
                },
                {
                    "name": "D#3",
                    "midi": 51,
                    "time": 31.53528800000008,
                    "velocity": 0.41732283464566927,
                    "duration": 0.20746899999999968
                },
                {
                    "name": "B3",
                    "midi": 59,
                    "time": 31.74275700000008,
                    "velocity": 0.3858267716535433,
                    "duration": 0.20746899999999968
                },
                {
                    "name": "E3",
                    "midi": 52,
                    "time": 31.95022600000008,
                    "velocity": 0.41732283464566927,
                    "duration": 0.20746900000000323
                },
                {
                    "name": "C4",
                    "midi": 60,
                    "time": 32.15769500000008,
                    "velocity": 0.3779527559055118,
                    "duration": 0.20746900000000323
                },
                {
                    "name": "E3",
                    "midi": 52,
                    "time": 32.365164000000085,
                    "velocity": 0.33858267716535434,
                    "duration": 0.10373450000000162
                },
                {
                    "name": "A#3",
                    "midi": 58,
                    "time": 32.365164000000085,
                    "velocity": 0.33858267716535434,
                    "duration": 0.10373450000000162
                },
                {
                    "name": "C#4",
                    "midi": 61,
                    "time": 32.365164000000085,
                    "velocity": 0.4015748031496063,
                    "duration": 0.10373450000000162
                },
                {
                    "name": "E3",
                    "midi": 52,
                    "time": 32.57263300000009,
                    "velocity": 0.30708661417322836,
                    "duration": 0.10373450000000162
                },
                {
                    "name": "A#3",
                    "midi": 58,
                    "time": 32.57263300000009,
                    "velocity": 0.30708661417322836,
                    "duration": 0.10373450000000162
                },
                {
                    "name": "C#4",
                    "midi": 61,
                    "time": 32.57263300000009,
                    "velocity": 0.36220472440944884,
                    "duration": 0.10373450000000162
                },
                {
                    "name": "E3",
                    "midi": 52,
                    "time": 32.78010200000009,
                    "velocity": 0.33858267716535434,
                    "duration": 0.10373450000000162
                },
                {
                    "name": "A#3",
                    "midi": 58,
                    "time": 32.78010200000009,
                    "velocity": 0.33858267716535434,
                    "duration": 0.10373450000000162
                },
                {
                    "name": "C#4",
                    "midi": 61,
                    "time": 32.78010200000009,
                    "velocity": 0.4015748031496063,
                    "duration": 0.10373450000000162
                },
                {
                    "name": "E3",
                    "midi": 52,
                    "time": 32.987571000000095,
                    "velocity": 0.30708661417322836,
                    "duration": 0.10373450000000162
                },
                {
                    "name": "A#3",
                    "midi": 58,
                    "time": 32.987571000000095,
                    "velocity": 0.30708661417322836,
                    "duration": 0.10373450000000162
                },
                {
                    "name": "C#4",
                    "midi": 61,
                    "time": 32.987571000000095,
                    "velocity": 0.36220472440944884,
                    "duration": 0.10373450000000162
                },
                {
                    "name": "A#3",
                    "midi": 58,
                    "time": 33.1950400000001,
                    "velocity": 0.3700787401574803,
                    "duration": 0.6224070000000026
                },
                {
                    "name": "E3",
                    "midi": 52,
                    "time": 33.1950400000001,
                    "velocity": 0.3700787401574803,
                    "duration": 0.41493799999999936
                },
                {
                    "name": "C#4",
                    "midi": 61,
                    "time": 33.1950400000001,
                    "velocity": 0.4409448818897638,
                    "duration": 0.41493799999999936
                },
                {
                    "name": "F3",
                    "midi": 53,
                    "time": 33.6099780000001,
                    "velocity": 0.33858267716535434,
                    "duration": 0.20746900000000323
                },
                {
                    "name": "D4",
                    "midi": 62,
                    "time": 33.6099780000001,
                    "velocity": 0.4094488188976378,
                    "duration": 0.20746900000000323
                },
                {
                    "name": "F3",
                    "midi": 53,
                    "time": 34.024916000000104,
                    "velocity": 0.41732283464566927,
                    "duration": 0.13831266666666409
                },
                {
                    "name": "G3",
                    "midi": 55,
                    "time": 34.16322866666677,
                    "velocity": 0.3779527559055118,
                    "duration": 0.13831266666666409
                },
                {
                    "name": "A3",
                    "midi": 57,
                    "time": 34.30154133333343,
                    "velocity": 0.3779527559055118,
                    "duration": 0.13831266666666409
                },
                {
                    "name": "B3",
                    "midi": 59,
                    "time": 34.439854000000096,
                    "velocity": 0.41732283464566927,
                    "duration": 0.13831266666666409
                },
                {
                    "name": "C4",
                    "midi": 60,
                    "time": 34.57816666666676,
                    "velocity": 0.3858267716535433,
                    "duration": 0.13831266666666409
                },
                {
                    "name": "D4",
                    "midi": 62,
                    "time": 34.716479333333425,
                    "velocity": 0.3779527559055118,
                    "duration": 0.13831266666666409
                },
                {
                    "name": "D#3",
                    "midi": 51,
                    "time": 34.85479200000009,
                    "velocity": 0.41732283464566927,
                    "duration": 0.20746900000000323
                },
                {
                    "name": "A#3",
                    "midi": 58,
                    "time": 35.06226100000009,
                    "velocity": 0.33070866141732286,
                    "duration": 0.15560175000000243
                },
                {
                    "name": "A#3",
                    "midi": 58,
                    "time": 35.269730000000095,
                    "velocity": 0.41732283464566927,
                    "duration": 0.20746900000000323
                },
                {
                    "name": "D4",
                    "midi": 62,
                    "time": 35.4771990000001,
                    "velocity": 0.3464566929133858,
                    "duration": 0.20746900000000323
                },
                {
                    "name": "A#1",
                    "midi": 34,
                    "time": 35.6846680000001,
                    "velocity": 0.28346456692913385,
                    "duration": 0.10373450000000162
                },
                {
                    "name": "A#2",
                    "midi": 46,
                    "time": 35.6846680000001,
                    "velocity": 0.33858267716535434,
                    "duration": 0.10373450000000162
                },
                {
                    "name": "A#1",
                    "midi": 34,
                    "time": 35.892137000000105,
                    "velocity": 0.25984251968503935,
                    "duration": 0.10373450000000162
                },
                {
                    "name": "A#2",
                    "midi": 46,
                    "time": 35.892137000000105,
                    "velocity": 0.30708661417322836,
                    "duration": 0.10373450000000162
                },
                {
                    "name": "A#1",
                    "midi": 34,
                    "time": 36.09960600000011,
                    "velocity": 0.28346456692913385,
                    "duration": 0.10373450000000162
                },
                {
                    "name": "A#2",
                    "midi": 46,
                    "time": 36.09960600000011,
                    "velocity": 0.33858267716535434,
                    "duration": 0.10373450000000162
                },
                {
                    "name": "A#1",
                    "midi": 34,
                    "time": 36.30707500000011,
                    "velocity": 0.25984251968503935,
                    "duration": 0.10373450000000162
                },
                {
                    "name": "A#2",
                    "midi": 46,
                    "time": 36.30707500000011,
                    "velocity": 0.30708661417322836,
                    "duration": 0.10373450000000162
                },
                {
                    "name": "A#1",
                    "midi": 34,
                    "time": 36.514544000000114,
                    "velocity": 0.30708661417322836,
                    "duration": 0.6224070000000026
                },
                {
                    "name": "A#2",
                    "midi": 46,
                    "time": 36.514544000000114,
                    "velocity": 0.3700787401574803,
                    "duration": 0.6224070000000026
                },
                {
                    "name": "F3",
                    "midi": 53,
                    "time": 37.34442000000012,
                    "velocity": 0.3543307086614173,
                    "duration": 0.13831266666666409
                },
                {
                    "name": "G3",
                    "midi": 55,
                    "time": 37.482732666666784,
                    "velocity": 0.31496062992125984,
                    "duration": 0.13831266666666409
                },
                {
                    "name": "A3",
                    "midi": 57,
                    "time": 37.62104533333345,
                    "velocity": 0.31496062992125984,
                    "duration": 0.13831266666666409
                },
                {
                    "name": "A#3",
                    "midi": 58,
                    "time": 37.75935800000011,
                    "velocity": 0.3543307086614173,
                    "duration": 0.13831266666666409
                },
                {
                    "name": "C4",
                    "midi": 60,
                    "time": 37.89767066666678,
                    "velocity": 0.3228346456692913,
                    "duration": 0.13831266666666409
                },
                {
                    "name": "D4",
                    "midi": 62,
                    "time": 38.03598333333344,
                    "velocity": 0.31496062992125984,
                    "duration": 0.13831266666666409
                },
                {
                    "name": "D#3",
                    "midi": 51,
                    "time": 38.174296000000105,
                    "velocity": 0.4094488188976378,
                    "duration": 0.20746900000000323
                },
                {
                    "name": "A#3",
                    "midi": 58,
                    "time": 38.38176500000011,
                    "velocity": 0.3228346456692913,
                    "duration": 0.15560175000000243
                },
                {
                    "name": "A#3",
                    "midi": 58,
                    "time": 38.58923400000011,
                    "velocity": 0.4094488188976378,
                    "duration": 0.20746900000000323
                },
                {
                    "name": "D4",
                    "midi": 62,
                    "time": 38.796703000000115,
                    "velocity": 0.31496062992125984,
                    "duration": 0.20746900000000323
                },
                {
                    "name": "A#1",
                    "midi": 34,
                    "time": 39.00417200000012,
                    "velocity": 0.28346456692913385,
                    "duration": 0.10373450000000162
                },
                {
                    "name": "A#2",
                    "midi": 46,
                    "time": 39.00417200000012,
                    "velocity": 0.33858267716535434,
                    "duration": 0.10373450000000162
                },
                {
                    "name": "A#1",
                    "midi": 34,
                    "time": 39.21164100000012,
                    "velocity": 0.25984251968503935,
                    "duration": 0.10373450000000162
                },
                {
                    "name": "A#2",
                    "midi": 46,
                    "time": 39.21164100000012,
                    "velocity": 0.30708661417322836,
                    "duration": 0.10373450000000162
                },
                {
                    "name": "A#1",
                    "midi": 34,
                    "time": 39.419110000000124,
                    "velocity": 0.28346456692913385,
                    "duration": 0.10373450000000162
                },
                {
                    "name": "A#2",
                    "midi": 46,
                    "time": 39.419110000000124,
                    "velocity": 0.33858267716535434,
                    "duration": 0.10373450000000162
                },
                {
                    "name": "A#1",
                    "midi": 34,
                    "time": 39.62657900000013,
                    "velocity": 0.25984251968503935,
                    "duration": 0.10373450000000162
                },
                {
                    "name": "A#2",
                    "midi": 46,
                    "time": 39.62657900000013,
                    "velocity": 0.30708661417322836,
                    "duration": 0.10373450000000162
                },
                {
                    "name": "A#1",
                    "midi": 34,
                    "time": 39.83404800000013,
                    "velocity": 0.30708661417322836,
                    "duration": 0.6224070000000026
                },
                {
                    "name": "A#2",
                    "midi": 46,
                    "time": 39.83404800000013,
                    "velocity": 0.3700787401574803,
                    "duration": 0.6224070000000026
                },
                {
                    "name": "F3",
                    "midi": 53,
                    "time": 40.66392400000014,
                    "velocity": 0.36220472440944884,
                    "duration": 0.13831266666666409
                },
                {
                    "name": "G3",
                    "midi": 55,
                    "time": 40.8022366666668,
                    "velocity": 0.3700787401574803,
                    "duration": 0.13831266666666409
                },
                {
                    "name": "A3",
                    "midi": 57,
                    "time": 40.940549333333465,
                    "velocity": 0.3779527559055118,
                    "duration": 0.13831266666666409
                },
                {
                    "name": "A#3",
                    "midi": 58,
                    "time": 41.07886200000013,
                    "velocity": 0.41732283464566927,
                    "duration": 0.13831266666666409
                },
                {
                    "name": "C4",
                    "midi": 60,
                    "time": 41.21717466666679,
                    "velocity": 0.3858267716535433,
                    "duration": 0.13831266666666409
                },
                {
                    "name": "D4",
                    "midi": 62,
                    "time": 41.35548733333346,
                    "velocity": 0.3779527559055118,
                    "duration": 0.13831266666666409
                },
                {
                    "name": "D#4",
                    "midi": 63,
                    "time": 41.49380000000012,
                    "velocity": 0.4015748031496063,
                    "duration": 0.13831266666666409
                },
                {
                    "name": "F4",
                    "midi": 65,
                    "time": 41.632112666666785,
                    "velocity": 0.3464566929133858,
                    "duration": 0.13831266666666409
                },
                {
                    "name": "G4",
                    "midi": 67,
                    "time": 41.77042533333345,
                    "velocity": 0.3464566929133858,
                    "duration": 0.13831266666666409
                },
                {
                    "name": "F4",
                    "midi": 65,
                    "time": 41.90873800000011,
                    "velocity": 0.4015748031496063,
                    "duration": 0.13831266666666409
                },
                {
                    "name": "D#4",
                    "midi": 63,
                    "time": 42.04705066666678,
                    "velocity": 0.3543307086614173,
                    "duration": 0.13831266666666409
                },
                {
                    "name": "D4",
                    "midi": 62,
                    "time": 42.18536333333344,
                    "velocity": 0.3543307086614173,
                    "duration": 0.13831266666666409
                },
                {
                    "name": "C#4",
                    "midi": 61,
                    "time": 42.323676000000106,
                    "velocity": 0.3779527559055118,
                    "duration": 0.13831266666666409
                },
                {
                    "name": "A#3",
                    "midi": 58,
                    "time": 42.46198866666677,
                    "velocity": 0.30708661417322836,
                    "duration": 0.13831266666666409
                },
                {
                    "name": "G3",
                    "midi": 55,
                    "time": 42.600301333333434,
                    "velocity": 0.30708661417322836,
                    "duration": 0.13831266666666409
                },
                {
                    "name": "E3",
                    "midi": 52,
                    "time": 42.7386140000001,
                    "velocity": 0.3228346456692913,
                    "duration": 0.13831266666666409
                },
                {
                    "name": "C#3",
                    "midi": 49,
                    "time": 42.87692666666676,
                    "velocity": 0.30708661417322836,
                    "duration": 0.13831266666666409
                },
                {
                    "name": "E3",
                    "midi": 52,
                    "time": 43.015239333333426,
                    "velocity": 0.31496062992125984,
                    "duration": 0.13831266666666409
                },
                {
                    "name": "F3",
                    "midi": 53,
                    "time": 43.15355200000009,
                    "velocity": 0.33070866141732286,
                    "duration": 0.13831266666666409
                },
                {
                    "name": "D3",
                    "midi": 50,
                    "time": 43.291864666666754,
                    "velocity": 0.2992125984251969,
                    "duration": 0.13831266666666409
                },
                {
                    "name": "F3",
                    "midi": 53,
                    "time": 43.43017733333342,
                    "velocity": 0.2992125984251969,
                    "duration": 0.13831266666666409
                },
                {
                    "name": "D3",
                    "midi": 50,
                    "time": 43.56849000000008,
                    "velocity": 0.33070866141732286,
                    "duration": 0.13831266666666409
                },
                {
                    "name": "A#2",
                    "midi": 46,
                    "time": 43.706802666666746,
                    "velocity": 0.2992125984251969,
                    "duration": 0.13831266666666409
                },
                {
                    "name": "D3",
                    "midi": 50,
                    "time": 43.84511533333341,
                    "velocity": 0.2992125984251969,
                    "duration": 0.13831266666666409
                },
                {
                    "name": "F2",
                    "midi": 41,
                    "time": 43.983428000000075,
                    "velocity": 0.2992125984251969,
                    "duration": 0.13831266666666409
                },
                {
                    "name": "G2",
                    "midi": 43,
                    "time": 44.12174066666674,
                    "velocity": 0.30708661417322836,
                    "duration": 0.13831266666666409
                },
                {
                    "name": "A2",
                    "midi": 45,
                    "time": 44.2600533333334,
                    "velocity": 0.3228346456692913,
                    "duration": 0.13831266666666409
                },
                {
                    "name": "A#2",
                    "midi": 46,
                    "time": 44.39836600000007,
                    "velocity": 0.33858267716535434,
                    "duration": 0.13831266666666409
                },
                {
                    "name": "C3",
                    "midi": 48,
                    "time": 44.53667866666673,
                    "velocity": 0.3543307086614173,
                    "duration": 0.13831266666666409
                },
                {
                    "name": "D3",
                    "midi": 50,
                    "time": 44.674991333333395,
                    "velocity": 0.36220472440944884,
                    "duration": 0.13831266666666409
                },
                {
                    "name": "D#3",
                    "midi": 51,
                    "time": 44.81330400000006,
                    "velocity": 0.3779527559055118,
                    "duration": 0.13831266666666409
                },
                {
                    "name": "F3",
                    "midi": 53,
                    "time": 44.95161666666672,
                    "velocity": 0.3937007874015748,
                    "duration": 0.13831266666666409
                },
                {
                    "name": "G3",
                    "midi": 55,
                    "time": 45.08992933333339,
                    "velocity": 0.4015748031496063,
                    "duration": 0.13831266666666409
                },
                {
                    "name": "F3",
                    "midi": 53,
                    "time": 45.22824200000005,
                    "velocity": 0.41732283464566927,
                    "duration": 0.13831266666666409
                },
                {
                    "name": "D#3",
                    "midi": 51,
                    "time": 45.366554666666715,
                    "velocity": 0.3858267716535433,
                    "duration": 0.13831266666666409
                },
                {
                    "name": "D3",
                    "midi": 50,
                    "time": 45.50486733333338,
                    "velocity": 0.4015748031496063,
                    "duration": 0.13831266666666409
                },
                {
                    "name": "C#3",
                    "midi": 49,
                    "time": 45.643180000000044,
                    "velocity": 0.3779527559055118,
                    "duration": 0.13831266666666409
                },
                {
                    "name": "A#2",
                    "midi": 46,
                    "time": 45.78149266666671,
                    "velocity": 0.36220472440944884,
                    "duration": 0.13831266666666409
                },
                {
                    "name": "G2",
                    "midi": 43,
                    "time": 45.91980533333337,
                    "velocity": 0.3543307086614173,
                    "duration": 0.13831266666666409
                },
                {
                    "name": "E2",
                    "midi": 40,
                    "time": 46.058118000000036,
                    "velocity": 0.33858267716535434,
                    "duration": 0.13831266666666409
                },
                {
                    "name": "C#2",
                    "midi": 37,
                    "time": 46.1964306666667,
                    "velocity": 0.30708661417322836,
                    "duration": 0.13831266666666409
                },
                {
                    "name": "E2",
                    "midi": 40,
                    "time": 46.334743333333364,
                    "velocity": 0.28346456692913385,
                    "duration": 0.13831266666666409
                },
                {
                    "name": "G2",
                    "midi": 43,
                    "time": 46.47305600000003,
                    "velocity": 0.3937007874015748,
                    "duration": 0.13831266666666409
                },
                {
                    "name": "E2",
                    "midi": 40,
                    "time": 46.61136866666669,
                    "velocity": 0.28346456692913385,
                    "duration": 0.13831266666666409
                },
                {
                    "name": "G2",
                    "midi": 43,
                    "time": 46.749681333333356,
                    "velocity": 0.28346456692913385,
                    "duration": 0.13831266666666409
                },
                {
                    "name": "E2",
                    "midi": 40,
                    "time": 46.88799400000002,
                    "velocity": 0.29133858267716534,
                    "duration": 0.13831266666666409
                },
                {
                    "name": "C#2",
                    "midi": 37,
                    "time": 47.026306666666684,
                    "velocity": 0.29133858267716534,
                    "duration": 0.13831266666666409
                },
                {
                    "name": "E2",
                    "midi": 40,
                    "time": 47.16461933333335,
                    "velocity": 0.2992125984251969,
                    "duration": 0.13831266666666409
                },
                {
                    "name": "G#2",
                    "midi": 44,
                    "time": 47.30293200000001,
                    "velocity": 0.4094488188976378,
                    "duration": 0.13831266666666409
                },
                {
                    "name": "E2",
                    "midi": 40,
                    "time": 47.44124466666668,
                    "velocity": 0.2992125984251969,
                    "duration": 0.13831266666666409
                },
                {
                    "name": "G#2",
                    "midi": 44,
                    "time": 47.57955733333334,
                    "velocity": 0.30708661417322836,
                    "duration": 0.13831266666666409
                },
                {
                    "name": "E2",
                    "midi": 40,
                    "time": 47.717870000000005,
                    "velocity": 0.30708661417322836,
                    "duration": 0.13831266666666409
                },
                {
                    "name": "C#2",
                    "midi": 37,
                    "time": 47.85618266666667,
                    "velocity": 0.31496062992125984,
                    "duration": 0.13831266666666409
                },
                {
                    "name": "E2",
                    "midi": 40,
                    "time": 47.99449533333333,
                    "velocity": 0.31496062992125984,
                    "duration": 0.13831266666666409
                },
                {
                    "name": "A2",
                    "midi": 45,
                    "time": 48.132808,
                    "velocity": 0.4330708661417323,
                    "duration": 0.13831266666666409
                },
                {
                    "name": "E2",
                    "midi": 40,
                    "time": 48.27112066666666,
                    "velocity": 0.3228346456692913,
                    "duration": 0.13831266666666409
                },
                {
                    "name": "A2",
                    "midi": 45,
                    "time": 48.409433333333325,
                    "velocity": 0.33070866141732286,
                    "duration": 0.13831266666666409
                },
                {
                    "name": "E2",
                    "midi": 40,
                    "time": 48.54774599999999,
                    "velocity": 0.33070866141732286,
                    "duration": 0.13831266666666409
                },
                {
                    "name": "C#2",
                    "midi": 37,
                    "time": 48.68605866666665,
                    "velocity": 0.33858267716535434,
                    "duration": 0.13831266666666409
                },
                {
                    "name": "E2",
                    "midi": 40,
                    "time": 48.82437133333332,
                    "velocity": 0.33858267716535434,
                    "duration": 0.13831266666666409
                },
                {
                    "name": "A2",
                    "midi": 45,
                    "time": 48.96268399999998,
                    "velocity": 0.44881889763779526,
                    "duration": 0.13831266666666409
                },
                {
                    "name": "E2",
                    "midi": 40,
                    "time": 49.100996666666646,
                    "velocity": 0.3464566929133858,
                    "duration": 0.13831266666666409
                },
                {
                    "name": "A2",
                    "midi": 45,
                    "time": 49.23930933333331,
                    "velocity": 0.3543307086614173,
                    "duration": 0.13831266666666409
                },
                {
                    "name": "E2",
                    "midi": 40,
                    "time": 49.377621999999974,
                    "velocity": 0.3543307086614173,
                    "duration": 0.13831266666666409
                },
                {
                    "name": "C2",
                    "midi": 36,
                    "time": 49.51593466666664,
                    "velocity": 0.3543307086614173,
                    "duration": 0.13831266666666409
                },
                {
                    "name": "E2",
                    "midi": 40,
                    "time": 49.6542473333333,
                    "velocity": 0.36220472440944884,
                    "duration": 0.13831266666666409
                },
                {
                    "name": "B1",
                    "midi": 35,
                    "time": 49.792559999999966,
                    "velocity": 0.4881889763779528,
                    "duration": 0.13831266666666409
                },
                {
                    "name": "F2",
                    "midi": 41,
                    "time": 49.93087266666663,
                    "velocity": 0.3937007874015748,
                    "duration": 0.13831266666666409
                },
                {
                    "name": "B1",
                    "midi": 35,
                    "time": 50.069185333333294,
                    "velocity": 0.4015748031496063,
                    "duration": 0.13831266666666409
                },
                {
                    "name": "F2",
                    "midi": 41,
                    "time": 50.20749799999996,
                    "velocity": 0.4094488188976378,
                    "duration": 0.13831266666666409
                },
                {
                    "name": "B2",
                    "midi": 47,
                    "time": 50.34581066666662,
                    "velocity": 0.41732283464566927,
                    "duration": 0.13831266666666409
                },
                {
                    "name": "F2",
                    "midi": 41,
                    "time": 50.48412333333329,
                    "velocity": 0.4251968503937008,
                    "duration": 0.13831266666666409
                },
                {
                    "name": "A#1",
                    "midi": 34,
                    "time": 50.62243599999995,
                    "velocity": 0.5433070866141733,
                    "duration": 0.13831266666666409
                },
                {
                    "name": "F2",
                    "midi": 41,
                    "time": 50.760748666666615,
                    "velocity": 0.4409448818897638,
                    "duration": 0.13831266666666409
                },
                {
                    "name": "A#1",
                    "midi": 34,
                    "time": 50.89906133333328,
                    "velocity": 0.4566929133858268,
                    "duration": 0.13831266666666409
                },
                {
                    "name": "F2",
                    "midi": 41,
                    "time": 51.03737399999994,
                    "velocity": 0.4645669291338583,
                    "duration": 0.13831266666666409
                },
                {
                    "name": "A#2",
                    "midi": 46,
                    "time": 51.17568666666661,
                    "velocity": 0.48031496062992124,
                    "duration": 0.13831266666666409
                },
                {
                    "name": "A#1",
                    "midi": 34,
                    "time": 51.31399933333327,
                    "velocity": 0.4881889763779528,
                    "duration": 0.13831266666666409
                },
                {
                    "name": "A1",
                    "midi": 33,
                    "time": 51.452311999999935,
                    "velocity": 0.5748031496062992,
                    "duration": 0.8298759999999987
                },
                {
                    "name": "A2",
                    "midi": 45,
                    "time": 51.452311999999935,
                    "velocity": 0.6771653543307087,
                    "duration": 0.8298759999999987
                },
                {
                    "name": "A3",
                    "midi": 57,
                    "time": 52.282187999999934,
                    "velocity": 0.33858267716535434,
                    "duration": 0.15560175000000243
                },
                {
                    "name": "F#4",
                    "midi": 66,
                    "time": 52.282187999999934,
                    "velocity": 0.4015748031496063,
                    "duration": 0.15560175000000243
                },
                {
                    "name": "A3",
                    "midi": 57,
                    "time": 52.48965699999994,
                    "velocity": 0.30708661417322836,
                    "duration": 0.15560175000000243
                },
                {
                    "name": "F#4",
                    "midi": 66,
                    "time": 52.48965699999994,
                    "velocity": 0.36220472440944884,
                    "duration": 0.15560175000000243
                },
                {
                    "name": "A3",
                    "midi": 57,
                    "time": 52.69712599999994,
                    "velocity": 0.33858267716535434,
                    "duration": 0.15560175000000243
                },
                {
                    "name": "F#4",
                    "midi": 66,
                    "time": 52.69712599999994,
                    "velocity": 0.4015748031496063,
                    "duration": 0.15560175000000243
                },
                {
                    "name": "A3",
                    "midi": 57,
                    "time": 52.904594999999944,
                    "velocity": 0.30708661417322836,
                    "duration": 0.15560175000000243
                },
                {
                    "name": "F#4",
                    "midi": 66,
                    "time": 52.904594999999944,
                    "velocity": 0.36220472440944884,
                    "duration": 0.15560175000000243
                },
                {
                    "name": "A3",
                    "midi": 57,
                    "time": 53.11206399999995,
                    "velocity": 0.3700787401574803,
                    "duration": 0.6224070000000026
                },
                {
                    "name": "A4",
                    "midi": 69,
                    "time": 53.11206399999995,
                    "velocity": 0.4409448818897638,
                    "duration": 0.41493799999999936
                },
                {
                    "name": "E4",
                    "midi": 64,
                    "time": 53.527001999999946,
                    "velocity": 0.29133858267716534,
                    "duration": 0.20746900000000323
                },
                {
                    "name": "C#2",
                    "midi": 37,
                    "time": 53.73447099999995,
                    "velocity": 0.3858267716535433,
                    "duration": 0.20746900000000323
                },
                {
                    "name": "D2",
                    "midi": 38,
                    "time": 53.94193999999995,
                    "velocity": 0.41732283464566927,
                    "duration": 0.13831266666666409
                },
                {
                    "name": "C#2",
                    "midi": 37,
                    "time": 54.08025266666662,
                    "velocity": 0.3858267716535433,
                    "duration": 0.13831266666666409
                },
                {
                    "name": "B1",
                    "midi": 35,
                    "time": 54.21856533333328,
                    "velocity": 0.41732283464566927,
                    "duration": 0.13831266666666409
                },
                {
                    "name": "F2",
                    "midi": 41,
                    "time": 54.356877999999945,
                    "velocity": 0.4409448818897638,
                    "duration": 0.13831266666666409
                },
                {
                    "name": "E2",
                    "midi": 40,
                    "time": 54.49519066666661,
                    "velocity": 0.4015748031496063,
                    "duration": 0.13831266666666409
                },
                {
                    "name": "D2",
                    "midi": 38,
                    "time": 54.63350333333327,
                    "velocity": 0.2992125984251969,
                    "duration": 0.13831266666666409
                },
                {
                    "name": "E2",
                    "midi": 40,
                    "time": 54.77181599999994,
                    "velocity": 0.33858267716535434,
                    "duration": 0.20746899999999613
                },
                {
                    "name": "C#3",
                    "midi": 49,
                    "time": 54.77181599999994,
                    "velocity": 0.3700787401574803,
                    "duration": 0.13831266666666409
                },
                {
                    "name": "D3",
                    "midi": 50,
                    "time": 54.9101286666666,
                    "velocity": 0.3228346456692913,
                    "duration": 0.13831266666666409
                },
                {
                    "name": "E3",
                    "midi": 52,
                    "time": 55.048441333333265,
                    "velocity": 0.3228346456692913,
                    "duration": 0.13831266666666409
                },
                {
                    "name": "F#3",
                    "midi": 54,
                    "time": 55.18675399999993,
                    "velocity": 0.3700787401574803,
                    "duration": 0.13831266666666409
                },
                {
                    "name": "G#3",
                    "midi": 56,
                    "time": 55.325066666666594,
                    "velocity": 0.33070866141732286,
                    "duration": 0.13831266666666409
                },
                {
                    "name": "A3",
                    "midi": 57,
                    "time": 55.46337933333326,
                    "velocity": 0.33070866141732286,
                    "duration": 0.13831266666666409
                },
                {
                    "name": "E3",
                    "midi": 52,
                    "time": 55.87831733333326,
                    "velocity": 0.3464566929133858,
                    "duration": 0.13831266666666409
                },
                {
                    "name": "D3",
                    "midi": 50,
                    "time": 56.01662999999992,
                    "velocity": 0.3937007874015748,
                    "duration": 0.13831266666666409
                },
                {
                    "name": "C#3",
                    "midi": 49,
                    "time": 56.154942666666585,
                    "velocity": 0.41732283464566927,
                    "duration": 0.13831266666666409
                },
                {
                    "name": "B2",
                    "midi": 47,
                    "time": 56.29325533333325,
                    "velocity": 0.4409448818897638,
                    "duration": 0.13831266666666409
                },
                {
                    "name": "A1",
                    "midi": 33,
                    "time": 56.43156799999991,
                    "velocity": 0.5118110236220472,
                    "duration": 0.8298759999999987
                },
                {
                    "name": "A2",
                    "midi": 45,
                    "time": 56.43156799999991,
                    "velocity": 0.6062992125984252,
                    "duration": 0.8298759999999987
                },
                {
                    "name": "A3",
                    "midi": 57,
                    "time": 57.26144399999991,
                    "velocity": 0.33858267716535434,
                    "duration": 0.28526987499999734
                },
                {
                    "name": "F#4",
                    "midi": 66,
                    "time": 57.26144399999991,
                    "velocity": 0.4015748031496063,
                    "duration": 0.28526987499999734
                },
                {
                    "name": "A3",
                    "midi": 57,
                    "time": 57.57264749999991,
                    "velocity": 0.30708661417322836,
                    "duration": 0.07780087500000121
                },
                {
                    "name": "F#4",
                    "midi": 66,
                    "time": 57.57264749999991,
                    "velocity": 0.36220472440944884,
                    "duration": 0.07780087500000121
                },
                {
                    "name": "A3",
                    "midi": 57,
                    "time": 57.67638199999991,
                    "velocity": 0.33858267716535434,
                    "duration": 0.28526987499999734
                },
                {
                    "name": "F#4",
                    "midi": 66,
                    "time": 57.67638199999991,
                    "velocity": 0.4015748031496063,
                    "duration": 0.28526987499999734
                },
                {
                    "name": "A3",
                    "midi": 57,
                    "time": 57.98758549999991,
                    "velocity": 0.30708661417322836,
                    "duration": 0.07780087500000121
                },
                {
                    "name": "F#4",
                    "midi": 66,
                    "time": 57.98758549999991,
                    "velocity": 0.36220472440944884,
                    "duration": 0.07780087500000121
                },
                {
                    "name": "A3",
                    "midi": 57,
                    "time": 58.09131999999991,
                    "velocity": 0.3700787401574803,
                    "duration": 0.6224070000000026
                },
                {
                    "name": "A4",
                    "midi": 69,
                    "time": 58.09131999999991,
                    "velocity": 0.4409448818897638,
                    "duration": 0.41493799999999936
                },
                {
                    "name": "E4",
                    "midi": 64,
                    "time": 58.50625799999991,
                    "velocity": 0.29133858267716534,
                    "duration": 0.20746900000000323
                },
                {
                    "name": "C#2",
                    "midi": 37,
                    "time": 58.71372699999991,
                    "velocity": 0.3858267716535433,
                    "duration": 0.20746900000000323
                },
                {
                    "name": "D2",
                    "midi": 38,
                    "time": 58.92119599999992,
                    "velocity": 0.41732283464566927,
                    "duration": 0.13831266666666409
                },
                {
                    "name": "C#2",
                    "midi": 37,
                    "time": 59.05950866666658,
                    "velocity": 0.3858267716535433,
                    "duration": 0.13831266666666409
                },
                {
                    "name": "B1",
                    "midi": 35,
                    "time": 59.197821333333245,
                    "velocity": 0.41732283464566927,
                    "duration": 0.13831266666666409
                },
                {
                    "name": "F2",
                    "midi": 41,
                    "time": 59.33613399999991,
                    "velocity": 0.4409448818897638,
                    "duration": 0.13831266666666409
                },
                {
                    "name": "E2",
                    "midi": 40,
                    "time": 59.47444666666657,
                    "velocity": 0.4015748031496063,
                    "duration": 0.13831266666666409
                },
                {
                    "name": "D2",
                    "midi": 38,
                    "time": 59.61275933333324,
                    "velocity": 0.2992125984251969,
                    "duration": 0.13831266666666409
                },
                {
                    "name": "E2",
                    "midi": 40,
                    "time": 59.7510719999999,
                    "velocity": 0.33858267716535434,
                    "duration": 0.20746899999999613
                },
                {
                    "name": "C#3",
                    "midi": 49,
                    "time": 59.7510719999999,
                    "velocity": 0.3700787401574803,
                    "duration": 0.13831266666666409
                },
                {
                    "name": "D3",
                    "midi": 50,
                    "time": 59.889384666666565,
                    "velocity": 0.3228346456692913,
                    "duration": 0.13831266666666409
                },
                {
                    "name": "E3",
                    "midi": 52,
                    "time": 60.02769733333323,
                    "velocity": 0.3228346456692913,
                    "duration": 0.13831266666666409
                },
                {
                    "name": "F#3",
                    "midi": 54,
                    "time": 60.16600999999989,
                    "velocity": 0.3700787401574803,
                    "duration": 0.13831266666666409
                },
                {
                    "name": "G#3",
                    "midi": 56,
                    "time": 60.30432266666656,
                    "velocity": 0.33070866141732286,
                    "duration": 0.13831266666666409
                },
                {
                    "name": "A3",
                    "midi": 57,
                    "time": 60.44263533333322,
                    "velocity": 0.33070866141732286,
                    "duration": 0.13831266666666409
                },
                {
                    "name": "E3",
                    "midi": 52,
                    "time": 60.85757333333322,
                    "velocity": 0.3464566929133858,
                    "duration": 0.13831266666666409
                },
                {
                    "name": "D3",
                    "midi": 50,
                    "time": 60.995885999999885,
                    "velocity": 0.3937007874015748,
                    "duration": 0.13831266666666409
                },
                {
                    "name": "C#3",
                    "midi": 49,
                    "time": 61.13419866666655,
                    "velocity": 0.41732283464566927,
                    "duration": 0.13831266666666409
                },
                {
                    "name": "B2",
                    "midi": 47,
                    "time": 61.27251133333321,
                    "velocity": 0.4409448818897638,
                    "duration": 0.13831266666666409
                },
                {
                    "name": "A2",
                    "midi": 45,
                    "time": 61.41082399999988,
                    "velocity": 0.44881889763779526,
                    "duration": 0.20746900000000323
                },
                {
                    "name": "A3",
                    "midi": 57,
                    "time": 64.73032799999989,
                    "velocity": 0.3228346456692913,
                    "duration": 0.41493800000000647
                },
                {
                    "name": "C#3",
                    "midi": 49,
                    "time": 65.14526599999989,
                    "velocity": 0.2755905511811024,
                    "duration": 0.10373450000000162
                },
                {
                    "name": "B3",
                    "midi": 59,
                    "time": 65.5602039999999,
                    "velocity": 0.3228346456692913,
                    "duration": 0.41493800000000647
                },
                {
                    "name": "E3",
                    "midi": 52,
                    "time": 65.9751419999999,
                    "velocity": 0.2755905511811024,
                    "duration": 0.10373450000000162
                },
                {
                    "name": "E3",
                    "midi": 52,
                    "time": 66.33821274999991,
                    "velocity": 0.25984251968503935,
                    "duration": 0.05186725000000081
                },
                {
                    "name": "C#4",
                    "midi": 61,
                    "time": 66.39007999999991,
                    "velocity": 0.3228346456692913,
                    "duration": 0.41493800000000647
                },
                {
                    "name": "A3",
                    "midi": 57,
                    "time": 66.80501799999992,
                    "velocity": 0.2677165354330709,
                    "duration": 0.10373450000000162
                },
                {
                    "name": "A3",
                    "midi": 57,
                    "time": 67.16808874999992,
                    "velocity": 0.25984251968503935,
                    "duration": 0.05186725000000081
                },
                {
                    "name": "F#4",
                    "midi": 66,
                    "time": 67.21995599999993,
                    "velocity": 0.3543307086614173,
                    "duration": 0.31120350000000485
                },
                {
                    "name": "D#4",
                    "midi": 63,
                    "time": 67.53115949999993,
                    "velocity": 0.28346456692913385,
                    "duration": 0.10373450000000162
                },
                {
                    "name": "F#4",
                    "midi": 66,
                    "time": 67.63489399999993,
                    "velocity": 0.33858267716535434,
                    "duration": 0.31120350000000485
                },
                {
                    "name": "D#4",
                    "midi": 63,
                    "time": 67.94609749999994,
                    "velocity": 0.2755905511811024,
                    "duration": 0.10373450000000162
                },
                {
                    "name": "E4",
                    "midi": 64,
                    "time": 68.04983199999994,
                    "velocity": 0.3228346456692913,
                    "duration": 0.4114801833333388
                },
                {
                    "name": "E3",
                    "midi": 52,
                    "time": 68.46822781666661,
                    "velocity": 0.2755905511811024,
                    "duration": 0.10373450000000162
                },
                {
                    "name": "E3",
                    "midi": 52,
                    "time": 68.82784074999995,
                    "velocity": 0.25984251968503935,
                    "duration": 0.05186725000000081
                },
                {
                    "name": "D4",
                    "midi": 62,
                    "time": 68.87970799999995,
                    "velocity": 0.3228346456692913,
                    "duration": 0.41493800000000647
                },
                {
                    "name": "B3",
                    "midi": 59,
                    "time": 69.29464599999996,
                    "velocity": 0.2755905511811024,
                    "duration": 0.10373450000000162
                },
                {
                    "name": "B3",
                    "midi": 59,
                    "time": 69.65771674999996,
                    "velocity": 0.25984251968503935,
                    "duration": 0.05186725000000081
                },
                {
                    "name": "C#4",
                    "midi": 61,
                    "time": 69.70958399999996,
                    "velocity": 0.3228346456692913,
                    "duration": 0.41493800000000647
                },
                {
                    "name": "E3",
                    "midi": 52,
                    "time": 70.12452199999997,
                    "velocity": 0.2677165354330709,
                    "duration": 0.10373450000000162
                },
                {
                    "name": "E3",
                    "midi": 52,
                    "time": 70.48759274999998,
                    "velocity": 0.25984251968503935,
                    "duration": 0.05186725000000081
                },
                {
                    "name": "B3",
                    "midi": 59,
                    "time": 70.53945999999998,
                    "velocity": 0.3543307086614173,
                    "duration": 0.31120350000000485
                },
                {
                    "name": "G#3",
                    "midi": 56,
                    "time": 70.85066349999998,
                    "velocity": 0.28346456692913385,
                    "duration": 0.10373450000000162
                },
                {
                    "name": "B3",
                    "midi": 59,
                    "time": 70.95439799999998,
                    "velocity": 0.33858267716535434,
                    "duration": 0.31120350000000485
                },
                {
                    "name": "G#3",
                    "midi": 56,
                    "time": 71.26560149999999,
                    "velocity": 0.2755905511811024,
                    "duration": 0.10373450000000162
                },
                {
                    "name": "C#3",
                    "midi": 49,
                    "time": 71.36933599999999,
                    "velocity": 0.3228346456692913,
                    "duration": 0.41493800000000647
                },
                {
                    "name": "A3",
                    "midi": 57,
                    "time": 71.36933599999999,
                    "velocity": 0.3228346456692913,
                    "duration": 0.41493800000000647
                },
                {
                    "name": "E3",
                    "midi": 52,
                    "time": 71.78773181666666,
                    "velocity": 0.2755905511811024,
                    "duration": 0.10373450000000162
                },
                {
                    "name": "G#3",
                    "midi": 56,
                    "time": 72.199212,
                    "velocity": 0.3228346456692913,
                    "duration": 0.41493800000000647
                },
                {
                    "name": "B3",
                    "midi": 59,
                    "time": 72.199212,
                    "velocity": 0.3228346456692913,
                    "duration": 0.41493800000000647
                },
                {
                    "name": "E3",
                    "midi": 52,
                    "time": 72.61760781666668,
                    "velocity": 0.2755905511811024,
                    "duration": 0.10373450000000162
                },
                {
                    "name": "E3",
                    "midi": 52,
                    "time": 73.02908800000002,
                    "velocity": 0.3228346456692913,
                    "duration": 0.41493800000000647
                },
                {
                    "name": "C#4",
                    "midi": 61,
                    "time": 73.02908800000002,
                    "velocity": 0.3228346456692913,
                    "duration": 0.41493800000000647
                },
                {
                    "name": "A3",
                    "midi": 57,
                    "time": 73.44402600000002,
                    "velocity": 0.2755905511811024,
                    "duration": 0.10373450000000162
                },
                {
                    "name": "D#4",
                    "midi": 63,
                    "time": 73.85896400000003,
                    "velocity": 0.3543307086614173,
                    "duration": 0.31120350000000485
                },
                {
                    "name": "C4",
                    "midi": 60,
                    "time": 73.85896400000003,
                    "velocity": 0.2992125984251969,
                    "duration": 0.31120350000000485
                },
                {
                    "name": "A3",
                    "midi": 57,
                    "time": 74.17016750000003,
                    "velocity": 0.28346456692913385,
                    "duration": 0.10373450000000162
                },
                {
                    "name": "D#4",
                    "midi": 63,
                    "time": 74.27390200000004,
                    "velocity": 0.33858267716535434,
                    "duration": 0.31120350000000485
                },
                {
                    "name": "C4",
                    "midi": 60,
                    "time": 74.27390200000004,
                    "velocity": 0.28346456692913385,
                    "duration": 0.31120350000000485
                },
                {
                    "name": "A3",
                    "midi": 57,
                    "time": 74.58510550000004,
                    "velocity": 0.2755905511811024,
                    "duration": 0.10373450000000162
                },
                {
                    "name": "E4",
                    "midi": 64,
                    "time": 74.68884000000004,
                    "velocity": 0.3228346456692913,
                    "duration": 0.4114801833333388
                },
                {
                    "name": "C#4",
                    "midi": 61,
                    "time": 74.68884000000004,
                    "velocity": 0.3228346456692913,
                    "duration": 0.41493800000000647
                },
                {
                    "name": "E3",
                    "midi": 52,
                    "time": 75.10723581666672,
                    "velocity": 0.2755905511811024,
                    "duration": 0.10373450000000162
                },
                {
                    "name": "B3",
                    "midi": 59,
                    "time": 75.51871600000005,
                    "velocity": 0.3228346456692913,
                    "duration": 0.41493800000000647
                },
                {
                    "name": "D4",
                    "midi": 62,
                    "time": 75.51871600000005,
                    "velocity": 0.3228346456692913,
                    "duration": 0.41493800000000647
                },
                {
                    "name": "E3",
                    "midi": 52,
                    "time": 75.93711181666673,
                    "velocity": 0.2755905511811024,
                    "duration": 0.10373450000000162
                },
                {
                    "name": "A3",
                    "midi": 57,
                    "time": 76.34859200000007,
                    "velocity": 0.3228346456692913,
                    "duration": 0.41493800000000647
                },
                {
                    "name": "C#4",
                    "midi": 61,
                    "time": 76.34859200000007,
                    "velocity": 0.3228346456692913,
                    "duration": 0.41493800000000647
                },
                {
                    "name": "E3",
                    "midi": 52,
                    "time": 76.76353000000007,
                    "velocity": 0.2755905511811024,
                    "duration": 0.10373450000000162
                },
                {
                    "name": "G#3",
                    "midi": 56,
                    "time": 77.17846800000008,
                    "velocity": 0.2992125984251969,
                    "duration": 0.31120350000000485
                },
                {
                    "name": "B3",
                    "midi": 59,
                    "time": 77.17846800000008,
                    "velocity": 0.3543307086614173,
                    "duration": 0.31120350000000485
                },
                {
                    "name": "E3",
                    "midi": 52,
                    "time": 77.48967150000009,
                    "velocity": 0.28346456692913385,
                    "duration": 0.10373450000000162
                },
                {
                    "name": "G#3",
                    "midi": 56,
                    "time": 77.59340600000009,
                    "velocity": 0.28346456692913385,
                    "duration": 0.31120350000000485
                },
                {
                    "name": "B3",
                    "midi": 59,
                    "time": 77.59340600000009,
                    "velocity": 0.33858267716535434,
                    "duration": 0.31120350000000485
                },
                {
                    "name": "E3",
                    "midi": 52,
                    "time": 77.90460950000009,
                    "velocity": 0.2755905511811024,
                    "duration": 0.10373450000000162
                },
                {
                    "name": "B3",
                    "midi": 59,
                    "time": 78.0083440000001,
                    "velocity": 0.5433070866141733,
                    "duration": 0.13831266666666409
                },
                {
                    "name": "D3",
                    "midi": 50,
                    "time": 78.14665666666676,
                    "velocity": 0.41732283464566927,
                    "duration": 0.13831266666666409
                },
                {
                    "name": "B3",
                    "midi": 59,
                    "time": 78.28496933333342,
                    "velocity": 0.41732283464566927,
                    "duration": 0.13831266666666409
                },
                {
                    "name": "G2",
                    "midi": 43,
                    "time": 78.42328200000009,
                    "velocity": 0.5590551181102362,
                    "duration": 0.7261414999999971
                },
                {
                    "name": "D3",
                    "midi": 50,
                    "time": 79.14942350000008,
                    "velocity": 0.3779527559055118,
                    "duration": 0.10373450000000162
                },
                {
                    "name": "B3",
                    "midi": 59,
                    "time": 79.14942350000008,
                    "velocity": 0.3779527559055118,
                    "duration": 0.10373450000000162
                },
                {
                    "name": "G2",
                    "midi": 43,
                    "time": 79.25315800000008,
                    "velocity": 0.4881889763779528,
                    "duration": 0.31120350000000485
                },
                {
                    "name": "D3",
                    "midi": 50,
                    "time": 79.56436150000009,
                    "velocity": 0.41732283464566927,
                    "duration": 0.10373450000000162
                },
                {
                    "name": "B3",
                    "midi": 59,
                    "time": 79.66809600000009,
                    "velocity": 0.5590551181102362,
                    "duration": 0.13831266666666409
                },
                {
                    "name": "D3",
                    "midi": 50,
                    "time": 79.80640866666675,
                    "velocity": 0.41732283464566927,
                    "duration": 0.13831266666666409
                },
                {
                    "name": "B3",
                    "midi": 59,
                    "time": 79.94472133333342,
                    "velocity": 0.41732283464566927,
                    "duration": 0.13831266666666409
                },
                {
                    "name": "G2",
                    "midi": 43,
                    "time": 80.08303400000008,
                    "velocity": 0.5354330708661418,
                    "duration": 0.7261414999999971
                },
                {
                    "name": "D3",
                    "midi": 50,
                    "time": 80.80917550000008,
                    "velocity": 0.3779527559055118,
                    "duration": 0.10373450000000162
                },
                {
                    "name": "B3",
                    "midi": 59,
                    "time": 80.80917550000008,
                    "velocity": 0.3779527559055118,
                    "duration": 0.10373450000000162
                },
                {
                    "name": "G2",
                    "midi": 43,
                    "time": 80.91291000000008,
                    "velocity": 0.4881889763779528,
                    "duration": 0.7261414999999971
                },
                {
                    "name": "D3",
                    "midi": 50,
                    "time": 81.63905150000008,
                    "velocity": 0.3543307086614173,
                    "duration": 0.10373450000000162
                },
                {
                    "name": "B3",
                    "midi": 59,
                    "time": 81.63905150000008,
                    "velocity": 0.41732283464566927,
                    "duration": 0.10373450000000162
                },
                {
                    "name": "G2",
                    "midi": 43,
                    "time": 81.74278600000008,
                    "velocity": 0.4881889763779528,
                    "duration": 0.7261414999999971
                },
                {
                    "name": "D3",
                    "midi": 50,
                    "time": 82.46892750000008,
                    "velocity": 0.3543307086614173,
                    "duration": 0.10373450000000162
                },
                {
                    "name": "B3",
                    "midi": 59,
                    "time": 82.46892750000008,
                    "velocity": 0.41732283464566927,
                    "duration": 0.10373450000000162
                },
                {
                    "name": "G2",
                    "midi": 43,
                    "time": 82.57266200000008,
                    "velocity": 0.4881889763779528,
                    "duration": 0.31120350000000485
                },
                {
                    "name": "G3",
                    "midi": 55,
                    "time": 82.88386550000008,
                    "velocity": 0.41732283464566927,
                    "duration": 0.10373450000000162
                },
                {
                    "name": "C3",
                    "midi": 48,
                    "time": 82.98760000000009,
                    "velocity": 0.5590551181102362,
                    "duration": 0.13831266666666409
                },
                {
                    "name": "G3",
                    "midi": 55,
                    "time": 83.12591266666675,
                    "velocity": 0.41732283464566927,
                    "duration": 0.13831266666666409
                },
                {
                    "name": "C3",
                    "midi": 48,
                    "time": 83.26422533333341,
                    "velocity": 0.41732283464566927,
                    "duration": 0.13831266666666409
                },
                {
                    "name": "C2",
                    "midi": 36,
                    "time": 83.40253800000008,
                    "velocity": 0.5433070866141733,
                    "duration": 0.7261414999999971
                },
                {
                    "name": "C3",
                    "midi": 48,
                    "time": 84.12867950000008,
                    "velocity": 0.3779527559055118,
                    "duration": 0.10373450000000162
                },
                {
                    "name": "G3",
                    "midi": 55,
                    "time": 84.12867950000008,
                    "velocity": 0.3779527559055118,
                    "duration": 0.10373450000000162
                },
                {
                    "name": "C2",
                    "midi": 36,
                    "time": 84.23241400000008,
                    "velocity": 0.4881889763779528,
                    "duration": 0.31120350000000485
                },
                {
                    "name": "G3",
                    "midi": 55,
                    "time": 84.54361750000008,
                    "velocity": 0.41732283464566927,
                    "duration": 0.10373450000000162
                },
                {
                    "name": "C3",
                    "midi": 48,
                    "time": 84.64735200000008,
                    "velocity": 0.4881889763779528,
                    "duration": 0.13831266666666409
                },
                {
                    "name": "G3",
                    "midi": 55,
                    "time": 84.78566466666675,
                    "velocity": 0.41732283464566927,
                    "duration": 0.13831266666666409
                },
                {
                    "name": "C3",
                    "midi": 48,
                    "time": 84.92397733333341,
                    "velocity": 0.41732283464566927,
                    "duration": 0.13831266666666409
                },
                {
                    "name": "C2",
                    "midi": 36,
                    "time": 85.06229000000008,
                    "velocity": 0.4881889763779528,
                    "duration": 0.7261414999999971
                },
                {
                    "name": "C3",
                    "midi": 48,
                    "time": 85.78843150000007,
                    "velocity": 0.3779527559055118,
                    "duration": 0.10373450000000162
                },
                {
                    "name": "G3",
                    "midi": 55,
                    "time": 85.78843150000007,
                    "velocity": 0.3779527559055118,
                    "duration": 0.10373450000000162
                },
                {
                    "name": "C2",
                    "midi": 36,
                    "time": 85.89216600000007,
                    "velocity": 0.4881889763779528,
                    "duration": 0.7261414999999971
                },
                {
                    "name": "C3",
                    "midi": 48,
                    "time": 86.61830750000007,
                    "velocity": 0.3543307086614173,
                    "duration": 0.10373450000000162
                },
                {
                    "name": "G3",
                    "midi": 55,
                    "time": 86.61830750000007,
                    "velocity": 0.41732283464566927,
                    "duration": 0.10373450000000162
                },
                {
                    "name": "C2",
                    "midi": 36,
                    "time": 86.72204200000007,
                    "velocity": 0.4881889763779528,
                    "duration": 0.7261414999999971
                },
                {
                    "name": "E2",
                    "midi": 40,
                    "time": 87.44818350000007,
                    "velocity": 0.3228346456692913,
                    "duration": 0.10373450000000162
                },
                {
                    "name": "B1",
                    "midi": 35,
                    "time": 87.55191800000007,
                    "velocity": 0.3543307086614173,
                    "duration": 0.7261414999999971
                },
                {
                    "name": "E2",
                    "midi": 40,
                    "time": 88.27805950000007,
                    "velocity": 0.25984251968503935,
                    "duration": 0.10373450000000162
                },
                {
                    "name": "B1",
                    "midi": 35,
                    "time": 88.38179400000007,
                    "velocity": 0.29133858267716534,
                    "duration": 0.31120350000000485
                },
                {
                    "name": "E2",
                    "midi": 40,
                    "time": 88.69299750000008,
                    "velocity": 0.25196850393700787,
                    "duration": 0.10373450000000162
                },
                {
                    "name": "B1",
                    "midi": 35,
                    "time": 88.79673200000008,
                    "velocity": 0.2677165354330709,
                    "duration": 0.31120350000000485
                },
                {
                    "name": "E2",
                    "midi": 40,
                    "time": 89.10793550000008,
                    "velocity": 0.2283464566929134,
                    "duration": 0.10373450000000162
                },
                {
                    "name": "B1",
                    "midi": 35,
                    "time": 89.21167000000008,
                    "velocity": 0.2440944881889764,
                    "duration": 0.31120350000000485
                },
                {
                    "name": "E2",
                    "midi": 40,
                    "time": 89.52287350000009,
                    "velocity": 0.2125984251968504,
                    "duration": 0.10373450000000162
                },
                {
                    "name": "A1",
                    "midi": 33,
                    "time": 89.62660800000009,
                    "velocity": 0.2440944881889764,
                    "duration": 0.10373450000000162
                },
                {
                    "name": "A3",
                    "midi": 57,
                    "time": 90.59479666666675,
                    "velocity": 0.2992125984251969,
                    "duration": 0.13831266666666409
                },
                {
                    "name": "C#4",
                    "midi": 61,
                    "time": 90.73310933333342,
                    "velocity": 0.31496062992125984,
                    "duration": 0.13831266666666409
                },
                {
                    "name": "E4",
                    "midi": 64,
                    "time": 90.87142200000008,
                    "velocity": 0.33070866141732286,
                    "duration": 0.13831266666666409
                },
                {
                    "name": "A4",
                    "midi": 69,
                    "time": 91.00973466666674,
                    "velocity": 0.3228346456692913,
                    "duration": 0.13831266666666409
                },
                {
                    "name": "C#5",
                    "midi": 73,
                    "time": 91.14804733333341,
                    "velocity": 0.2992125984251969,
                    "duration": 0.13831266666666409
                },
                {
                    "name": "E4",
                    "midi": 64,
                    "time": 91.28636000000007,
                    "velocity": 0.33070866141732286,
                    "duration": 0.20746900000000323
                },
                {
                    "name": "D4",
                    "midi": 62,
                    "time": 91.70129800000008,
                    "velocity": 0.2677165354330709,
                    "duration": 0.10373450000000162
                },
                {
                    "name": "B3",
                    "midi": 59,
                    "time": 91.70129800000008,
                    "velocity": 0.2204724409448819,
                    "duration": 0.10373450000000162
                },
                {
                    "name": "E3",
                    "midi": 52,
                    "time": 91.70129800000008,
                    "velocity": 0.2204724409448819,
                    "duration": 0.10373450000000162
                },
                {
                    "name": "C#4",
                    "midi": 61,
                    "time": 92.11623600000009,
                    "velocity": 0.2677165354330709,
                    "duration": 0.10373450000000162
                },
                {
                    "name": "A3",
                    "midi": 57,
                    "time": 92.11623600000009,
                    "velocity": 0.2204724409448819,
                    "duration": 0.10373450000000162
                },
                {
                    "name": "E3",
                    "midi": 52,
                    "time": 92.11623600000009,
                    "velocity": 0.2204724409448819,
                    "duration": 0.10373450000000162
                },
                {
                    "name": "B3",
                    "midi": 59,
                    "time": 92.53117400000009,
                    "velocity": 0.2677165354330709,
                    "duration": 0.10373450000000162
                },
                {
                    "name": "G#3",
                    "midi": 56,
                    "time": 92.53117400000009,
                    "velocity": 0.2204724409448819,
                    "duration": 0.10373450000000162
                },
                {
                    "name": "E3",
                    "midi": 52,
                    "time": 92.53117400000009,
                    "velocity": 0.2204724409448819,
                    "duration": 0.10373450000000162
                },
                {
                    "name": "A3",
                    "midi": 57,
                    "time": 92.9461120000001,
                    "velocity": 0.2440944881889764,
                    "duration": 0.20746900000000323
                },
                {
                    "name": "C#4",
                    "midi": 61,
                    "time": 92.9461120000001,
                    "velocity": 0.29133858267716534,
                    "duration": 0.20746900000000323
                },
                {
                    "name": "A3",
                    "midi": 57,
                    "time": 93.91430066666678,
                    "velocity": 0.2992125984251969,
                    "duration": 0.13831266666666409
                },
                {
                    "name": "C#4",
                    "midi": 61,
                    "time": 94.05261333333344,
                    "velocity": 0.31496062992125984,
                    "duration": 0.13831266666666409
                },
                {
                    "name": "E4",
                    "midi": 64,
                    "time": 94.1909260000001,
                    "velocity": 0.33070866141732286,
                    "duration": 0.13831266666666409
                },
                {
                    "name": "A4",
                    "midi": 69,
                    "time": 94.32923866666677,
                    "velocity": 0.3228346456692913,
                    "duration": 0.13831266666666409
                },
                {
                    "name": "C#5",
                    "midi": 73,
                    "time": 94.46755133333343,
                    "velocity": 0.2992125984251969,
                    "duration": 0.13831266666666409
                },
                {
                    "name": "E4",
                    "midi": 64,
                    "time": 94.6058640000001,
                    "velocity": 0.33070866141732286,
                    "duration": 0.20746900000000323
                },
                {
                    "name": "D4",
                    "midi": 62,
                    "time": 95.0208020000001,
                    "velocity": 0.2677165354330709,
                    "duration": 0.10373450000000162
                },
                {
                    "name": "B3",
                    "midi": 59,
                    "time": 95.0208020000001,
                    "velocity": 0.2204724409448819,
                    "duration": 0.10373450000000162
                },
                {
                    "name": "E3",
                    "midi": 52,
                    "time": 95.0208020000001,
                    "velocity": 0.2204724409448819,
                    "duration": 0.10373450000000162
                },
                {
                    "name": "C#4",
                    "midi": 61,
                    "time": 95.43574000000011,
                    "velocity": 0.2677165354330709,
                    "duration": 0.10373450000000162
                },
                {
                    "name": "A3",
                    "midi": 57,
                    "time": 95.43574000000011,
                    "velocity": 0.2204724409448819,
                    "duration": 0.10373450000000162
                },
                {
                    "name": "E3",
                    "midi": 52,
                    "time": 95.43574000000011,
                    "velocity": 0.2204724409448819,
                    "duration": 0.10373450000000162
                },
                {
                    "name": "B3",
                    "midi": 59,
                    "time": 95.85067800000012,
                    "velocity": 0.2677165354330709,
                    "duration": 0.10373450000000162
                },
                {
                    "name": "G#3",
                    "midi": 56,
                    "time": 95.85067800000012,
                    "velocity": 0.2204724409448819,
                    "duration": 0.10373450000000162
                },
                {
                    "name": "E3",
                    "midi": 52,
                    "time": 95.85067800000012,
                    "velocity": 0.2204724409448819,
                    "duration": 0.10373450000000162
                },
                {
                    "name": "A3",
                    "midi": 57,
                    "time": 96.26561600000012,
                    "velocity": 0.3228346456692913,
                    "duration": 0.41493800000000647
                },
                {
                    "name": "C#3",
                    "midi": 49,
                    "time": 96.68055400000013,
                    "velocity": 0.2755905511811024,
                    "duration": 0.20746900000000323
                },
                {
                    "name": "B3",
                    "midi": 59,
                    "time": 97.09549200000014,
                    "velocity": 0.31496062992125984,
                    "duration": 0.41493800000000647
                },
                {
                    "name": "E3",
                    "midi": 52,
                    "time": 97.51043000000014,
                    "velocity": 0.25984251968503935,
                    "duration": 0.20746900000000323
                },
                {
                    "name": "C#4",
                    "midi": 61,
                    "time": 97.92536800000015,
                    "velocity": 0.33070866141732286,
                    "duration": 0.41493800000000647
                },
                {
                    "name": "A3",
                    "midi": 57,
                    "time": 98.34030600000015,
                    "velocity": 0.2677165354330709,
                    "duration": 0.20746900000000323
                },
                {
                    "name": "F#4",
                    "midi": 66,
                    "time": 98.75524400000016,
                    "velocity": 0.31496062992125984,
                    "duration": 0.31120350000000485
                },
                {
                    "name": "D#4",
                    "midi": 63,
                    "time": 99.06644750000017,
                    "velocity": 0.23622047244094488,
                    "duration": 0.10373450000000162
                },
                {
                    "name": "F#4",
                    "midi": 66,
                    "time": 99.17018200000017,
                    "velocity": 0.29133858267716534,
                    "duration": 0.31120350000000485
                },
                {
                    "name": "D#4",
                    "midi": 63,
                    "time": 99.48138550000017,
                    "velocity": 0.2677165354330709,
                    "duration": 0.10373450000000162
                },
                {
                    "name": "E4",
                    "midi": 64,
                    "time": 99.58512000000017,
                    "velocity": 0.3228346456692913,
                    "duration": 0.41493800000000647
                },
                {
                    "name": "E3",
                    "midi": 52,
                    "time": 100.00005800000018,
                    "velocity": 0.2755905511811024,
                    "duration": 0.20746900000000323
                },
                {
                    "name": "D4",
                    "midi": 62,
                    "time": 100.41499600000019,
                    "velocity": 0.31496062992125984,
                    "duration": 0.41493800000000647
                },
                {
                    "name": "B3",
                    "midi": 59,
                    "time": 100.8299340000002,
                    "velocity": 0.25984251968503935,
                    "duration": 0.20746900000000323
                },
                {
                    "name": "C#4",
                    "midi": 61,
                    "time": 101.2448720000002,
                    "velocity": 0.33070866141732286,
                    "duration": 0.41493800000000647
                },
                {
                    "name": "E3",
                    "midi": 52,
                    "time": 101.6598100000002,
                    "velocity": 0.2677165354330709,
                    "duration": 0.20746900000000323
                },
                {
                    "name": "B3",
                    "midi": 59,
                    "time": 102.07474800000021,
                    "velocity": 0.31496062992125984,
                    "duration": 0.31120350000000485
                },
                {
                    "name": "G#3",
                    "midi": 56,
                    "time": 102.38595150000022,
                    "velocity": 0.23622047244094488,
                    "duration": 0.10373450000000162
                },
                {
                    "name": "B3",
                    "midi": 59,
                    "time": 102.48968600000022,
                    "velocity": 0.29133858267716534,
                    "duration": 0.31120350000000485
                },
                {
                    "name": "E3",
                    "midi": 52,
                    "time": 102.80088950000022,
                    "velocity": 0.2677165354330709,
                    "duration": 0.10373450000000162
                },
                {
                    "name": "A4",
                    "midi": 69,
                    "time": 102.90462400000023,
                    "velocity": 0.33858267716535434,
                    "duration": 0.13831266666666409
                },
                {
                    "name": "E4",
                    "midi": 64,
                    "time": 103.04293666666689,
                    "velocity": 0.28346456692913385,
                    "duration": 0.13831266666666409
                },
                {
                    "name": "A4",
                    "midi": 69,
                    "time": 103.18124933333355,
                    "velocity": 0.28346456692913385,
                    "duration": 0.13831266666666409
                },
                {
                    "name": "C#4",
                    "midi": 61,
                    "time": 103.31956200000022,
                    "velocity": 0.33070866141732286,
                    "duration": 0.20746900000000323
                },
                {
                    "name": "B4",
                    "midi": 71,
                    "time": 103.73450000000022,
                    "velocity": 0.3464566929133858,
                    "duration": 0.13831266666666409
                },
                {
                    "name": "G#4",
                    "midi": 68,
                    "time": 103.87281266666689,
                    "velocity": 0.2992125984251969,
                    "duration": 0.13831266666666409
                },
                {
                    "name": "B4",
                    "midi": 71,
                    "time": 104.01112533333355,
                    "velocity": 0.2992125984251969,
                    "duration": 0.13831266666666409
                },
                {
                    "name": "E4",
                    "midi": 64,
                    "time": 104.14943800000022,
                    "velocity": 0.3464566929133858,
                    "duration": 0.20746900000000323
                },
                {
                    "name": "C#5",
                    "midi": 73,
                    "time": 104.56437600000022,
                    "velocity": 0.3858267716535433,
                    "duration": 0.13831266666666409
                },
                {
                    "name": "B4",
                    "midi": 71,
                    "time": 104.70268866666689,
                    "velocity": 0.3228346456692913,
                    "duration": 0.13831266666666409
                },
                {
                    "name": "C#5",
                    "midi": 73,
                    "time": 104.84100133333355,
                    "velocity": 0.3228346456692913,
                    "duration": 0.13831266666666409
                },
                {
                    "name": "A4",
                    "midi": 69,
                    "time": 104.97931400000022,
                    "velocity": 0.3858267716535433,
                    "duration": 0.20746900000000323
                },
                {
                    "name": "F#5",
                    "midi": 78,
                    "time": 105.39425200000022,
                    "velocity": 0.3858267716535433,
                    "duration": 0.31120350000000485
                },
                {
                    "name": "D#5",
                    "midi": 75,
                    "time": 105.70545550000023,
                    "velocity": 0.29133858267716534,
                    "duration": 0.10373450000000162
                },
                {
                    "name": "F#5",
                    "midi": 78,
                    "time": 105.80919000000023,
                    "velocity": 0.36220472440944884,
                    "duration": 0.31120350000000485
                },
                {
                    "name": "D#5",
                    "midi": 75,
                    "time": 106.12039350000023,
                    "velocity": 0.33858267716535434,
                    "duration": 0.10373450000000162
                },
                {
                    "name": "F#5",
                    "midi": 78,
                    "time": 106.22412800000023,
                    "velocity": 0.4251968503937008,
                    "duration": 0.41493800000000647
                },
                {
                    "name": "D#5",
                    "midi": 75,
                    "time": 106.63906600000024,
                    "velocity": 0.3464566929133858,
                    "duration": 0.20746900000000323
                },
                {
                    "name": "F#5",
                    "midi": 78,
                    "time": 107.05400400000025,
                    "velocity": 0.33070866141732286,
                    "duration": 0.41493800000000647
                },
                {
                    "name": "D#5",
                    "midi": 75,
                    "time": 107.46894200000025,
                    "velocity": 0.2677165354330709,
                    "duration": 0.20746900000000323
                },
                {
                    "name": "F#5",
                    "midi": 78,
                    "time": 107.88388000000026,
                    "velocity": 0.33070866141732286,
                    "duration": 0.41493800000000647
                },
                {
                    "name": "D#5",
                    "midi": 75,
                    "time": 108.29881800000027,
                    "velocity": 0.3228346456692913,
                    "duration": 0.20746900000000323
                },
                {
                    "name": "F5",
                    "midi": 77,
                    "time": 108.71375600000027,
                    "velocity": 0.31496062992125984,
                    "duration": 0.31120350000000485
                },
                {
                    "name": "D#5",
                    "midi": 75,
                    "time": 109.02495950000028,
                    "velocity": 0.23622047244094488,
                    "duration": 0.10373450000000162
                },
                {
                    "name": "F5",
                    "midi": 77,
                    "time": 109.12869400000028,
                    "velocity": 0.29133858267716534,
                    "duration": 0.31120350000000485
                },
                {
                    "name": "D#5",
                    "midi": 75,
                    "time": 109.43989750000028,
                    "velocity": 0.2677165354330709,
                    "duration": 0.10373450000000162
                },
                {
                    "name": "F5",
                    "midi": 77,
                    "time": 109.54363200000029,
                    "velocity": 0.33070866141732286,
                    "duration": 0.41493800000000647
                },
                {
                    "name": "D#5",
                    "midi": 75,
                    "time": 109.9585700000003,
                    "velocity": 0.2677165354330709,
                    "duration": 0.20746900000000323
                },
                {
                    "name": "F5",
                    "midi": 77,
                    "time": 110.3735080000003,
                    "velocity": 0.33070866141732286,
                    "duration": 0.41493800000000647
                },
                {
                    "name": "D#5",
                    "midi": 75,
                    "time": 110.7884460000003,
                    "velocity": 0.25984251968503935,
                    "duration": 0.20746900000000323
                },
                {
                    "name": "F5",
                    "midi": 77,
                    "time": 111.20338400000031,
                    "velocity": 0.31496062992125984,
                    "duration": 0.41493800000000647
                },
                {
                    "name": "D5",
                    "midi": 74,
                    "time": 111.61832200000032,
                    "velocity": 0.25196850393700787,
                    "duration": 0.20746900000000323
                },
                {
                    "name": "E5",
                    "midi": 76,
                    "time": 112.03326000000033,
                    "velocity": 0.30708661417322836,
                    "duration": 0.41493800000000647
                },
                {
                    "name": "D5",
                    "midi": 74,
                    "time": 112.44819800000033,
                    "velocity": 0.2440944881889764,
                    "duration": 0.20746900000000323
                },
                {
                    "name": "C#5",
                    "midi": 73,
                    "time": 112.86313600000034,
                    "velocity": 0.29133858267716534,
                    "duration": 0.41493800000000647
                },
                {
                    "name": "E5",
                    "midi": 76,
                    "time": 113.27807400000034,
                    "velocity": 0.2283464566929134,
                    "duration": 0.20746900000000323
                },
                {
                    "name": "F#4",
                    "midi": 66,
                    "time": 113.69301200000035,
                    "velocity": 0.28346456692913385,
                    "duration": 0.41493800000000647
                },
                {
                    "name": "A4",
                    "midi": 69,
                    "time": 114.10795000000036,
                    "velocity": 0.1968503937007874,
                    "duration": 0.20746900000000323
                },
                {
                    "name": "D5",
                    "midi": 74,
                    "time": 114.10795000000036,
                    "velocity": 0.2204724409448819,
                    "duration": 0.20746900000000323
                },
                {
                    "name": "E4",
                    "midi": 64,
                    "time": 114.52288800000036,
                    "velocity": 0.2677165354330709,
                    "duration": 0.41493800000000647
                },
                {
                    "name": "A4",
                    "midi": 69,
                    "time": 114.93782600000037,
                    "velocity": 0.1968503937007874,
                    "duration": 0.20746900000000323
                },
                {
                    "name": "C#5",
                    "midi": 73,
                    "time": 114.93782600000037,
                    "velocity": 0.2125984251968504,
                    "duration": 0.20746900000000323
                },
                {
                    "name": "E4",
                    "midi": 64,
                    "time": 115.35276400000038,
                    "velocity": 0.25984251968503935,
                    "duration": 0.41493800000000647
                },
                {
                    "name": "G#4",
                    "midi": 68,
                    "time": 115.76770200000038,
                    "velocity": 0.1732283464566929,
                    "duration": 0.20746900000000323
                },
                {
                    "name": "B4",
                    "midi": 71,
                    "time": 115.76770200000038,
                    "velocity": 0.2047244094488189,
                    "duration": 0.20746900000000323
                },
                {
                    "name": "G3",
                    "midi": 55,
                    "time": 116.18264000000039,
                    "velocity": 0.5826771653543307,
                    "duration": 0.13831266666666409
                },
                {
                    "name": "A3",
                    "midi": 57,
                    "time": 116.32095266666705,
                    "velocity": 0.33070866141732286,
                    "duration": 0.13831266666666409
                },
                {
                    "name": "G3",
                    "midi": 55,
                    "time": 116.45926533333372,
                    "velocity": 0.33070866141732286,
                    "duration": 0.13831266666666409
                },
                {
                    "name": "E3",
                    "midi": 52,
                    "time": 116.59757800000038,
                    "velocity": 0.3779527559055118,
                    "duration": 0.13831266666666409
                },
                {
                    "name": "C#3",
                    "midi": 49,
                    "time": 116.73589066666705,
                    "velocity": 0.3228346456692913,
                    "duration": 0.13831266666666409
                },
                {
                    "name": "A2",
                    "midi": 45,
                    "time": 116.87420333333371,
                    "velocity": 0.3228346456692913,
                    "duration": 0.13831266666666409
                },
                {
                    "name": "G2",
                    "midi": 43,
                    "time": 117.01251600000037,
                    "velocity": 0.47244094488188976,
                    "duration": 0.13831266666666409
                },
                {
                    "name": "A2",
                    "midi": 45,
                    "time": 117.15082866666704,
                    "velocity": 0.28346456692913385,
                    "duration": 0.13831266666666409
                },
                {
                    "name": "G2",
                    "midi": 43,
                    "time": 117.2891413333337,
                    "velocity": 0.28346456692913385,
                    "duration": 0.13831266666666409
                },
                {
                    "name": "A2",
                    "midi": 45,
                    "time": 117.42745400000037,
                    "velocity": 0.3464566929133858,
                    "duration": 0.13831266666666409
                },
                {
                    "name": "G2",
                    "midi": 43,
                    "time": 117.56576666666703,
                    "velocity": 0.29133858267716534,
                    "duration": 0.13831266666666409
                },
                {
                    "name": "A2",
                    "midi": 45,
                    "time": 117.7040793333337,
                    "velocity": 0.29133858267716534,
                    "duration": 0.13831266666666409
                },
                {
                    "name": "F3",
                    "midi": 53,
                    "time": 117.84239200000036,
                    "velocity": 0.5748031496062992,
                    "duration": 0.13831266666666409
                },
                {
                    "name": "A3",
                    "midi": 57,
                    "time": 117.98070466666702,
                    "velocity": 0.33070866141732286,
                    "duration": 0.13831266666666409
                },
                {
                    "name": "F3",
                    "midi": 53,
                    "time": 118.11901733333369,
                    "velocity": 0.33070866141732286,
                    "duration": 0.13831266666666409
                },
                {
                    "name": "C3",
                    "midi": 48,
                    "time": 118.25733000000035,
                    "velocity": 0.3779527559055118,
                    "duration": 0.13831266666666409
                },
                {
                    "name": "A2",
                    "midi": 45,
                    "time": 118.39564266666702,
                    "velocity": 0.3228346456692913,
                    "duration": 0.13831266666666409
                },
                {
                    "name": "F2",
                    "midi": 41,
                    "time": 118.53395533333368,
                    "velocity": 0.3228346456692913,
                    "duration": 0.13831266666666409
                },
                {
                    "name": "A2",
                    "midi": 45,
                    "time": 118.67226800000034,
                    "velocity": 0.4881889763779528,
                    "duration": 0.13831266666666409
                },
                {
                    "name": "F2",
                    "midi": 41,
                    "time": 118.81058066666701,
                    "velocity": 0.28346456692913385,
                    "duration": 0.13831266666666409
                },
                {
                    "name": "A2",
                    "midi": 45,
                    "time": 118.94889333333367,
                    "velocity": 0.28346456692913385,
                    "duration": 0.13831266666666409
                },
                {
                    "name": "F2",
                    "midi": 41,
                    "time": 119.08720600000034,
                    "velocity": 0.3464566929133858,
                    "duration": 0.13831266666666409
                },
                {
                    "name": "A2",
                    "midi": 45,
                    "time": 119.225518666667,
                    "velocity": 0.29133858267716534,
                    "duration": 0.13831266666666409
                },
                {
                    "name": "F2",
                    "midi": 41,
                    "time": 119.36383133333366,
                    "velocity": 0.29133858267716534,
                    "duration": 0.13831266666666409
                },
                {
                    "name": "G3",
                    "midi": 55,
                    "time": 119.50214400000033,
                    "velocity": 0.5748031496062992,
                    "duration": 0.13831266666666409
                },
                {
                    "name": "A3",
                    "midi": 57,
                    "time": 119.64045666666699,
                    "velocity": 0.33070866141732286,
                    "duration": 0.13831266666666409
                },
                {
                    "name": "G3",
                    "midi": 55,
                    "time": 119.77876933333366,
                    "velocity": 0.33070866141732286,
                    "duration": 0.13831266666666409
                },
                {
                    "name": "E3",
                    "midi": 52,
                    "time": 119.91708200000032,
                    "velocity": 0.3779527559055118,
                    "duration": 0.13831266666666409
                },
                {
                    "name": "C#3",
                    "midi": 49,
                    "time": 120.05539466666698,
                    "velocity": 0.3228346456692913,
                    "duration": 0.13831266666666409
                },
                {
                    "name": "A2",
                    "midi": 45,
                    "time": 120.19370733333365,
                    "velocity": 0.3228346456692913,
                    "duration": 0.13831266666666409
                },
                {
                    "name": "G2",
                    "midi": 43,
                    "time": 120.33202000000031,
                    "velocity": 0.47244094488188976,
                    "duration": 0.13831266666666409
                },
                {
                    "name": "A2",
                    "midi": 45,
                    "time": 120.47033266666698,
                    "velocity": 0.28346456692913385,
                    "duration": 0.13831266666666409
                },
                {
                    "name": "G2",
                    "midi": 43,
                    "time": 120.60864533333364,
                    "velocity": 0.28346456692913385,
                    "duration": 0.13831266666666409
                },
                {
                    "name": "A2",
                    "midi": 45,
                    "time": 120.7469580000003,
                    "velocity": 0.3464566929133858,
                    "duration": 0.13831266666666409
                },
                {
                    "name": "G2",
                    "midi": 43,
                    "time": 120.88527066666697,
                    "velocity": 0.29133858267716534,
                    "duration": 0.13831266666666409
                },
                {
                    "name": "A2",
                    "midi": 45,
                    "time": 121.02358333333363,
                    "velocity": 0.29133858267716534,
                    "duration": 0.13831266666666409
                },
                {
                    "name": "F3",
                    "midi": 53,
                    "time": 121.1618960000003,
                    "velocity": 0.5826771653543307,
                    "duration": 0.13831266666666409
                },
                {
                    "name": "A3",
                    "midi": 57,
                    "time": 121.30020866666696,
                    "velocity": 0.33070866141732286,
                    "duration": 0.13831266666666409
                },
                {
                    "name": "F3",
                    "midi": 53,
                    "time": 121.43852133333363,
                    "velocity": 0.33070866141732286,
                    "duration": 0.13831266666666409
                },
                {
                    "name": "C3",
                    "midi": 48,
                    "time": 121.57683400000029,
                    "velocity": 0.3779527559055118,
                    "duration": 0.13831266666666409
                },
                {
                    "name": "A2",
                    "midi": 45,
                    "time": 121.71514666666695,
                    "velocity": 0.3228346456692913,
                    "duration": 0.13831266666666409
                },
                {
                    "name": "F2",
                    "midi": 41,
                    "time": 121.85345933333362,
                    "velocity": 0.3228346456692913,
                    "duration": 0.13831266666666409
                },
                {
                    "name": "A2",
                    "midi": 45,
                    "time": 121.99177200000028,
                    "velocity": 0.4881889763779528,
                    "duration": 0.13831266666666409
                },
                {
                    "name": "F2",
                    "midi": 41,
                    "time": 122.13008466666695,
                    "velocity": 0.28346456692913385,
                    "duration": 0.13831266666666409
                },
                {
                    "name": "A2",
                    "midi": 45,
                    "time": 122.26839733333361,
                    "velocity": 0.28346456692913385,
                    "duration": 0.13831266666666409
                },
                {
                    "name": "F2",
                    "midi": 41,
                    "time": 122.40671000000027,
                    "velocity": 0.3464566929133858,
                    "duration": 0.13831266666666409
                },
                {
                    "name": "A2",
                    "midi": 45,
                    "time": 122.54502266666694,
                    "velocity": 0.29133858267716534,
                    "duration": 0.13831266666666409
                },
                {
                    "name": "F2",
                    "midi": 41,
                    "time": 122.6833353333336,
                    "velocity": 0.29133858267716534,
                    "duration": 0.13831266666666409
                },
                {
                    "name": "E2",
                    "midi": 40,
                    "time": 122.82164800000027,
                    "velocity": 0.2755905511811024,
                    "duration": 0.20746900000000323
                },
                {
                    "name": "E3",
                    "midi": 52,
                    "time": 122.82164800000027,
                    "velocity": 0.29133858267716534,
                    "duration": 0.13831266666666409
                },
                {
                    "name": "F#3",
                    "midi": 54,
                    "time": 122.95996066666693,
                    "velocity": 0.25196850393700787,
                    "duration": 0.1383126666666783
                },
                {
                    "name": "G#3",
                    "midi": 56,
                    "time": 123.09827333333361,
                    "velocity": 0.25196850393700787,
                    "duration": 0.13831266666666409
                },
                {
                    "name": "A3",
                    "midi": 57,
                    "time": 123.23658600000027,
                    "velocity": 0.29133858267716534,
                    "duration": 0.13831266666666409
                },
                {
                    "name": "B3",
                    "midi": 59,
                    "time": 123.37489866666694,
                    "velocity": 0.25984251968503935,
                    "duration": 0.13831266666666409
                },
                {
                    "name": "C#4",
                    "midi": 61,
                    "time": 123.5132113333336,
                    "velocity": 0.25984251968503935,
                    "duration": 0.13831266666666409
                },
                {
                    "name": "E3",
                    "midi": 52,
                    "time": 124.06646200000027,
                    "velocity": 0.2755905511811024,
                    "duration": 0.20746900000000323
                },
                {
                    "name": "B3",
                    "midi": 59,
                    "time": 124.06646200000027,
                    "velocity": 0.2755905511811024,
                    "duration": 0.20746900000000323
                },
                {
                    "name": "A2",
                    "midi": 45,
                    "time": 124.48140000000028,
                    "velocity": 0.25984251968503935,
                    "duration": 0.20746900000000323
                },
                {
                    "name": "C#3",
                    "midi": 49,
                    "time": 124.48140000000028,
                    "velocity": 0.25984251968503935,
                    "duration": 0.20746900000000323
                },
                {
                    "name": "A3",
                    "midi": 57,
                    "time": 124.48658672500028,
                    "velocity": 0.31496062992125984,
                    "duration": 0.20746900000000323
                },
                {
                    "name": "C#5",
                    "midi": 73,
                    "time": 124.89633800000028,
                    "velocity": 0.3464566929133858,
                    "duration": 0.31120350000000485
                },
                {
                    "name": "E5",
                    "midi": 76,
                    "time": 124.89633800000028,
                    "velocity": 0.3464566929133858,
                    "duration": 0.31120350000000485
                },
                {
                    "name": "C#5",
                    "midi": 73,
                    "time": 125.20754150000029,
                    "velocity": 0.30708661417322836,
                    "duration": 0.10373450000000162
                },
                {
                    "name": "E5",
                    "midi": 76,
                    "time": 125.20754150000029,
                    "velocity": 0.30708661417322836,
                    "duration": 0.10373450000000162
                },
                {
                    "name": "B4",
                    "midi": 71,
                    "time": 125.31127600000029,
                    "velocity": 0.3464566929133858,
                    "duration": 0.20746900000000323
                },
                {
                    "name": "D5",
                    "midi": 74,
                    "time": 125.31127600000029,
                    "velocity": 0.3464566929133858,
                    "duration": 0.20746900000000323
                },
                {
                    "name": "E3",
                    "midi": 52,
                    "time": 125.7262140000003,
                    "velocity": 0.31496062992125984,
                    "duration": 0.20746900000000323
                },
                {
                    "name": "B3",
                    "midi": 59,
                    "time": 125.7262140000003,
                    "velocity": 0.31496062992125984,
                    "duration": 0.20746900000000323
                },
                {
                    "name": "A2",
                    "midi": 45,
                    "time": 126.1411520000003,
                    "velocity": 0.2992125984251969,
                    "duration": 0.20746900000000323
                },
                {
                    "name": "C#3",
                    "midi": 49,
                    "time": 126.1411520000003,
                    "velocity": 0.2992125984251969,
                    "duration": 0.20746900000000323
                },
                {
                    "name": "A3",
                    "midi": 57,
                    "time": 126.1411520000003,
                    "velocity": 0.3543307086614173,
                    "duration": 0.20746900000000323
                },
                {
                    "name": "C#5",
                    "midi": 73,
                    "time": 126.55609000000031,
                    "velocity": 0.3464566929133858,
                    "duration": 0.31120350000000485
                },
                {
                    "name": "E5",
                    "midi": 76,
                    "time": 126.55609000000031,
                    "velocity": 0.3464566929133858,
                    "duration": 0.31120350000000485
                },
                {
                    "name": "C#5",
                    "midi": 73,
                    "time": 126.86729350000032,
                    "velocity": 0.30708661417322836,
                    "duration": 0.10373450000000162
                },
                {
                    "name": "E5",
                    "midi": 76,
                    "time": 126.86729350000032,
                    "velocity": 0.30708661417322836,
                    "duration": 0.10373450000000162
                },
                {
                    "name": "B4",
                    "midi": 71,
                    "time": 126.97102800000032,
                    "velocity": 0.3464566929133858,
                    "duration": 0.20746900000000323
                },
                {
                    "name": "D5",
                    "midi": 74,
                    "time": 126.97102800000032,
                    "velocity": 0.3464566929133858,
                    "duration": 0.20746900000000323
                },
                {
                    "name": "E3",
                    "midi": 52,
                    "time": 127.38596600000032,
                    "velocity": 0.31496062992125984,
                    "duration": 0.20746900000000323
                },
                {
                    "name": "B3",
                    "midi": 59,
                    "time": 127.38596600000032,
                    "velocity": 0.31496062992125984,
                    "duration": 0.20746900000000323
                },
                {
                    "name": "A2",
                    "midi": 45,
                    "time": 127.80090400000033,
                    "velocity": 0.2992125984251969,
                    "duration": 0.20746899999998902
                },
                {
                    "name": "C#3",
                    "midi": 49,
                    "time": 127.80090400000033,
                    "velocity": 0.2992125984251969,
                    "duration": 0.20746899999998902
                },
                {
                    "name": "A3",
                    "midi": 57,
                    "time": 127.80090400000033,
                    "velocity": 0.3543307086614173,
                    "duration": 0.20746899999998902
                },
                {
                    "name": "C#5",
                    "midi": 73,
                    "time": 128.21584200000032,
                    "velocity": 0.3464566929133858,
                    "duration": 0.31120350000000485
                },
                {
                    "name": "E5",
                    "midi": 76,
                    "time": 128.21584200000032,
                    "velocity": 0.3464566929133858,
                    "duration": 0.31120350000000485
                },
                {
                    "name": "C#5",
                    "midi": 73,
                    "time": 128.52704550000033,
                    "velocity": 0.30708661417322836,
                    "duration": 0.10373450000000162
                },
                {
                    "name": "E5",
                    "midi": 76,
                    "time": 128.52704550000033,
                    "velocity": 0.30708661417322836,
                    "duration": 0.10373450000000162
                },
                {
                    "name": "B4",
                    "midi": 71,
                    "time": 128.63078000000033,
                    "velocity": 0.3464566929133858,
                    "duration": 0.20746900000000323
                },
                {
                    "name": "D5",
                    "midi": 74,
                    "time": 128.63078000000033,
                    "velocity": 0.3464566929133858,
                    "duration": 0.20746900000000323
                },
                {
                    "name": "E3",
                    "midi": 52,
                    "time": 129.04571800000033,
                    "velocity": 0.2755905511811024,
                    "duration": 0.20746900000000323
                },
                {
                    "name": "G3",
                    "midi": 55,
                    "time": 129.46065600000034,
                    "velocity": 0.5826771653543307,
                    "duration": 0.1383126666666783
                },
                {
                    "name": "A3",
                    "midi": 57,
                    "time": 129.59896866666702,
                    "velocity": 0.33070866141732286,
                    "duration": 0.1383126666666783
                },
                {
                    "name": "G3",
                    "midi": 55,
                    "time": 129.7372813333337,
                    "velocity": 0.33070866141732286,
                    "duration": 0.1383126666666783
                },
                {
                    "name": "E3",
                    "midi": 52,
                    "time": 129.87559400000038,
                    "velocity": 0.3779527559055118,
                    "duration": 0.1383126666666783
                },
                {
                    "name": "C#3",
                    "midi": 49,
                    "time": 130.01390666666705,
                    "velocity": 0.3228346456692913,
                    "duration": 0.1383126666666783
                },
                {
                    "name": "A2",
                    "midi": 45,
                    "time": 130.15221933333373,
                    "velocity": 0.3228346456692913,
                    "duration": 0.1383126666666783
                },
                {
                    "name": "G2",
                    "midi": 43,
                    "time": 130.2905320000004,
                    "velocity": 0.47244094488188976,
                    "duration": 0.1383126666666783
                },
                {
                    "name": "A2",
                    "midi": 45,
                    "time": 130.4288446666671,
                    "velocity": 0.28346456692913385,
                    "duration": 0.1383126666666783
                },
                {
                    "name": "G2",
                    "midi": 43,
                    "time": 130.56715733333377,
                    "velocity": 0.28346456692913385,
                    "duration": 0.1383126666666783
                },
                {
                    "name": "A2",
                    "midi": 45,
                    "time": 130.70547000000045,
                    "velocity": 0.3464566929133858,
                    "duration": 0.1383126666666783
                },
                {
                    "name": "G2",
                    "midi": 43,
                    "time": 130.84378266666712,
                    "velocity": 0.29133858267716534,
                    "duration": 0.1383126666666783
                },
                {
                    "name": "A2",
                    "midi": 45,
                    "time": 130.9820953333338,
                    "velocity": 0.29133858267716534,
                    "duration": 0.1383126666666783
                },
                {
                    "name": "F3",
                    "midi": 53,
                    "time": 131.12040800000048,
                    "velocity": 0.5748031496062992,
                    "duration": 0.1383126666666783
                },
                {
                    "name": "A3",
                    "midi": 57,
                    "time": 131.25872066666716,
                    "velocity": 0.33070866141732286,
                    "duration": 0.1383126666666783
                },
                {
                    "name": "F3",
                    "midi": 53,
                    "time": 131.39703333333384,
                    "velocity": 0.33070866141732286,
                    "duration": 0.1383126666666783
                },
                {
                    "name": "C3",
                    "midi": 48,
                    "time": 131.53534600000052,
                    "velocity": 0.3779527559055118,
                    "duration": 0.1383126666666783
                },
                {
                    "name": "A2",
                    "midi": 45,
                    "time": 131.6736586666672,
                    "velocity": 0.3228346456692913,
                    "duration": 0.1383126666666783
                },
                {
                    "name": "F2",
                    "midi": 41,
                    "time": 131.81197133333387,
                    "velocity": 0.3228346456692913,
                    "duration": 0.1383126666666783
                },
                {
                    "name": "A2",
                    "midi": 45,
                    "time": 131.95028400000055,
                    "velocity": 0.4881889763779528,
                    "duration": 0.1383126666666783
                },
                {
                    "name": "F2",
                    "midi": 41,
                    "time": 132.08859666666723,
                    "velocity": 0.28346456692913385,
                    "duration": 0.1383126666666783
                },
                {
                    "name": "A2",
                    "midi": 45,
                    "time": 132.2269093333339,
                    "velocity": 0.28346456692913385,
                    "duration": 0.1383126666666783
                },
                {
                    "name": "F2",
                    "midi": 41,
                    "time": 132.36522200000059,
                    "velocity": 0.3464566929133858,
                    "duration": 0.1383126666666783
                },
                {
                    "name": "A2",
                    "midi": 45,
                    "time": 132.50353466666726,
                    "velocity": 0.29133858267716534,
                    "duration": 0.1383126666666783
                },
                {
                    "name": "F2",
                    "midi": 41,
                    "time": 132.64184733333394,
                    "velocity": 0.29133858267716534,
                    "duration": 0.1383126666666783
                },
                {
                    "name": "F3",
                    "midi": 53,
                    "time": 132.78016000000062,
                    "velocity": 0.5748031496062992,
                    "duration": 0.1383126666666783
                },
                {
                    "name": "G3",
                    "midi": 55,
                    "time": 132.9184726666673,
                    "velocity": 0.33070866141732286,
                    "duration": 0.1383126666666783
                },
                {
                    "name": "F3",
                    "midi": 53,
                    "time": 133.05678533333398,
                    "velocity": 0.33070866141732286,
                    "duration": 0.1383126666666783
                },
                {
                    "name": "D3",
                    "midi": 50,
                    "time": 133.19509800000066,
                    "velocity": 0.3779527559055118,
                    "duration": 0.1383126666666783
                },
                {
                    "name": "B2",
                    "midi": 47,
                    "time": 133.33341066666733,
                    "velocity": 0.3228346456692913,
                    "duration": 0.1383126666666783
                },
                {
                    "name": "G2",
                    "midi": 43,
                    "time": 133.471723333334,
                    "velocity": 0.3228346456692913,
                    "duration": 0.1383126666666783
                },
                {
                    "name": "F2",
                    "midi": 41,
                    "time": 133.6100360000007,
                    "velocity": 0.4881889763779528,
                    "duration": 0.1383126666666783
                },
                {
                    "name": "G2",
                    "midi": 43,
                    "time": 133.74834866666737,
                    "velocity": 0.28346456692913385,
                    "duration": 0.1383126666666783
                },
                {
                    "name": "F2",
                    "midi": 41,
                    "time": 133.88666133333405,
                    "velocity": 0.28346456692913385,
                    "duration": 0.1383126666666783
                },
                {
                    "name": "G2",
                    "midi": 43,
                    "time": 134.02497400000073,
                    "velocity": 0.3464566929133858,
                    "duration": 0.1383126666666783
                },
                {
                    "name": "F2",
                    "midi": 41,
                    "time": 134.1632866666674,
                    "velocity": 0.29133858267716534,
                    "duration": 0.1383126666666783
                },
                {
                    "name": "G2",
                    "midi": 43,
                    "time": 134.30159933333408,
                    "velocity": 0.29133858267716534,
                    "duration": 0.1383126666666783
                },
                {
                    "name": "D#3",
                    "midi": 51,
                    "time": 134.43991200000076,
                    "velocity": 0.5748031496062992,
                    "duration": 0.1383126666666783
                },
                {
                    "name": "G3",
                    "midi": 55,
                    "time": 134.57822466666744,
                    "velocity": 0.33070866141732286,
                    "duration": 0.1383126666666783
                },
                {
                    "name": "D#3",
                    "midi": 51,
                    "time": 134.71653733333412,
                    "velocity": 0.33070866141732286,
                    "duration": 0.1383126666666783
                },
                {
                    "name": "A#2",
                    "midi": 46,
                    "time": 134.8548500000008,
                    "velocity": 0.3779527559055118,
                    "duration": 0.1383126666666783
                },
                {
                    "name": "G2",
                    "midi": 43,
                    "time": 134.99316266666747,
                    "velocity": 0.3228346456692913,
                    "duration": 0.1383126666666783
                },
                {
                    "name": "D#2",
                    "midi": 39,
                    "time": 135.13147533333415,
                    "velocity": 0.3228346456692913,
                    "duration": 0.1383126666666783
                },
                {
                    "name": "G2",
                    "midi": 43,
                    "time": 135.26978800000083,
                    "velocity": 0.4881889763779528,
                    "duration": 0.1383126666666783
                },
                {
                    "name": "D#2",
                    "midi": 39,
                    "time": 135.4081006666675,
                    "velocity": 0.28346456692913385,
                    "duration": 0.1383126666666783
                },
                {
                    "name": "G2",
                    "midi": 43,
                    "time": 135.5464133333342,
                    "velocity": 0.28346456692913385,
                    "duration": 0.1383126666666783
                },
                {
                    "name": "D#2",
                    "midi": 39,
                    "time": 135.68472600000086,
                    "velocity": 0.3464566929133858,
                    "duration": 0.1383126666666783
                },
                {
                    "name": "G2",
                    "midi": 43,
                    "time": 135.82303866666754,
                    "velocity": 0.29133858267716534,
                    "duration": 0.1383126666666783
                },
                {
                    "name": "D#2",
                    "midi": 39,
                    "time": 135.96135133333422,
                    "velocity": 0.29133858267716534,
                    "duration": 0.1383126666666783
                },
                {
                    "name": "D#3",
                    "midi": 51,
                    "time": 136.0996640000009,
                    "velocity": 0.5748031496062992,
                    "duration": 0.1383126666666783
                },
                {
                    "name": "F3",
                    "midi": 53,
                    "time": 136.23797666666758,
                    "velocity": 0.33070866141732286,
                    "duration": 0.1383126666666783
                },
                {
                    "name": "D#3",
                    "midi": 51,
                    "time": 136.37628933333426,
                    "velocity": 0.33070866141732286,
                    "duration": 0.1383126666666783
                },
                {
                    "name": "C3",
                    "midi": 48,
                    "time": 136.51460200000093,
                    "velocity": 0.3779527559055118,
                    "duration": 0.1383126666666783
                },
                {
                    "name": "A2",
                    "midi": 45,
                    "time": 136.6529146666676,
                    "velocity": 0.3228346456692913,
                    "duration": 0.1383126666666783
                },
                {
                    "name": "F2",
                    "midi": 41,
                    "time": 136.7912273333343,
                    "velocity": 0.3228346456692913,
                    "duration": 0.1383126666666783
                },
                {
                    "name": "C#3",
                    "midi": 49,
                    "time": 136.92954000000097,
                    "velocity": 0.5748031496062992,
                    "duration": 0.1383126666666783
                },
                {
                    "name": "F3",
                    "midi": 53,
                    "time": 137.06785266666765,
                    "velocity": 0.33070866141732286,
                    "duration": 0.1383126666666783
                },
                {
                    "name": "C#3",
                    "midi": 49,
                    "time": 137.20616533333433,
                    "velocity": 0.33070866141732286,
                    "duration": 0.1383126666666783
                },
                {
                    "name": "G#2",
                    "midi": 44,
                    "time": 137.344478000001,
                    "velocity": 0.3779527559055118,
                    "duration": 0.1383126666666783
                },
                {
                    "name": "F2",
                    "midi": 41,
                    "time": 137.48279066666768,
                    "velocity": 0.3228346456692913,
                    "duration": 0.1383126666666783
                },
                {
                    "name": "C#2",
                    "midi": 37,
                    "time": 137.62110333333436,
                    "velocity": 0.3228346456692913,
                    "duration": 0.1383126666666783
                },
                {
                    "name": "D3",
                    "midi": 50,
                    "time": 137.75941600000104,
                    "velocity": 0.5748031496062992,
                    "duration": 0.1383126666666783
                },
                {
                    "name": "E3",
                    "midi": 52,
                    "time": 137.89772866666772,
                    "velocity": 0.33070866141732286,
                    "duration": 0.1383126666666783
                },
                {
                    "name": "D3",
                    "midi": 50,
                    "time": 138.0360413333344,
                    "velocity": 0.33070866141732286,
                    "duration": 0.1383126666666783
                },
                {
                    "name": "B2",
                    "midi": 47,
                    "time": 138.17435400000107,
                    "velocity": 0.3779527559055118,
                    "duration": 0.1383126666666783
                },
                {
                    "name": "G#2",
                    "midi": 44,
                    "time": 138.31266666666775,
                    "velocity": 0.3228346456692913,
                    "duration": 0.1383126666666783
                },
                {
                    "name": "E2",
                    "midi": 40,
                    "time": 138.45097933333443,
                    "velocity": 0.3228346456692913,
                    "duration": 0.1383126666666783
                },
                {
                    "name": "C3",
                    "midi": 48,
                    "time": 138.5892920000011,
                    "velocity": 0.5748031496062992,
                    "duration": 0.1383126666666783
                },
                {
                    "name": "E3",
                    "midi": 52,
                    "time": 138.7276046666678,
                    "velocity": 0.33070866141732286,
                    "duration": 0.1383126666666783
                },
                {
                    "name": "C3",
                    "midi": 48,
                    "time": 138.86591733333447,
                    "velocity": 0.33070866141732286,
                    "duration": 0.1383126666666783
                },
                {
                    "name": "G2",
                    "midi": 43,
                    "time": 139.00423000000114,
                    "velocity": 0.3779527559055118,
                    "duration": 0.1383126666666783
                },
                {
                    "name": "E2",
                    "midi": 40,
                    "time": 139.14254266666782,
                    "velocity": 0.3228346456692913,
                    "duration": 0.1383126666666783
                },
                {
                    "name": "C2",
                    "midi": 36,
                    "time": 139.2808553333345,
                    "velocity": 0.3228346456692913,
                    "duration": 0.1383126666666783
                },
                {
                    "name": "F2",
                    "midi": 41,
                    "time": 139.41916800000118,
                    "velocity": 0.5748031496062992,
                    "duration": 0.1383126666666783
                },
                {
                    "name": "A2",
                    "midi": 45,
                    "time": 139.55748066666786,
                    "velocity": 0.33070866141732286,
                    "duration": 0.1383126666666783
                },
                {
                    "name": "F2",
                    "midi": 41,
                    "time": 139.69579333333454,
                    "velocity": 0.33070866141732286,
                    "duration": 0.1383126666666783
                },
                {
                    "name": "C2",
                    "midi": 36,
                    "time": 139.8341060000012,
                    "velocity": 0.3779527559055118,
                    "duration": 0.1383126666666783
                },
                {
                    "name": "A1",
                    "midi": 33,
                    "time": 139.9724186666679,
                    "velocity": 0.3228346456692913,
                    "duration": 0.1383126666666783
                },
                {
                    "name": "F1",
                    "midi": 29,
                    "time": 140.11073133333457,
                    "velocity": 0.3228346456692913,
                    "duration": 0.1383126666666783
                },
                {
                    "name": "A1",
                    "midi": 33,
                    "time": 140.24904400000125,
                    "velocity": 0.4330708661417323,
                    "duration": 0.1383126666666783
                },
                {
                    "name": "F1",
                    "midi": 29,
                    "time": 140.38735666666793,
                    "velocity": 0.25196850393700787,
                    "duration": 0.1383126666666783
                },
                {
                    "name": "A1",
                    "midi": 33,
                    "time": 140.5256693333346,
                    "velocity": 0.25196850393700787,
                    "duration": 0.1383126666666783
                },
                {
                    "name": "F1",
                    "midi": 29,
                    "time": 140.66398200000128,
                    "velocity": 0.30708661417322836,
                    "duration": 0.1383126666666783
                },
                {
                    "name": "A1",
                    "midi": 33,
                    "time": 140.80229466666796,
                    "velocity": 0.25984251968503935,
                    "duration": 0.1383126666666783
                },
                {
                    "name": "F1",
                    "midi": 29,
                    "time": 140.94060733333464,
                    "velocity": 0.25984251968503935,
                    "duration": 0.1383126666666783
                },
                {
                    "name": "A2",
                    "midi": 45,
                    "time": 141.07892000000132,
                    "velocity": 0.3543307086614173,
                    "duration": 0.1383126666666783
                },
                {
                    "name": "F2",
                    "midi": 41,
                    "time": 141.217232666668,
                    "velocity": 0.2283464566929134,
                    "duration": 0.1383126666666783
                },
                {
                    "name": "A2",
                    "midi": 45,
                    "time": 141.35554533333467,
                    "velocity": 0.2283464566929134,
                    "duration": 0.1383126666666783
                },
                {
                    "name": "F2",
                    "midi": 41,
                    "time": 141.49385800000135,
                    "velocity": 0.2677165354330709,
                    "duration": 0.1383126666666783
                },
                {
                    "name": "A2",
                    "midi": 45,
                    "time": 141.63217066666803,
                    "velocity": 0.2204724409448819,
                    "duration": 0.1383126666666783
                },
                {
                    "name": "F2",
                    "midi": 41,
                    "time": 141.7704833333347,
                    "velocity": 0.2204724409448819,
                    "duration": 0.1383126666666783
                },
                {
                    "name": "A2",
                    "midi": 45,
                    "time": 141.9087960000014,
                    "velocity": 0.2992125984251969,
                    "duration": 0.1383126666666783
                },
                {
                    "name": "F2",
                    "midi": 41,
                    "time": 142.04710866666807,
                    "velocity": 0.1968503937007874,
                    "duration": 0.1383126666666783
                },
                {
                    "name": "A2",
                    "midi": 45,
                    "time": 142.18542133333474,
                    "velocity": 0.1968503937007874,
                    "duration": 0.1383126666666783
                },
                {
                    "name": "F2",
                    "midi": 41,
                    "time": 142.32373400000142,
                    "velocity": 0.23622047244094488,
                    "duration": 0.1383126666666783
                },
                {
                    "name": "A2",
                    "midi": 45,
                    "time": 142.4620466666681,
                    "velocity": 0.1889763779527559,
                    "duration": 0.1383126666666783
                },
                {
                    "name": "F2",
                    "midi": 41,
                    "time": 142.60035933333478,
                    "velocity": 0.1889763779527559,
                    "duration": 0.1383126666666783
                },
                {
                    "name": "E2",
                    "midi": 40,
                    "time": 142.73867200000146,
                    "velocity": 0.2755905511811024,
                    "duration": 0.20746900000000323
                },
                {
                    "name": "E3",
                    "midi": 52,
                    "time": 142.73867200000146,
                    "velocity": 0.29133858267716534,
                    "duration": 0.1383126666666783
                },
                {
                    "name": "F#3",
                    "midi": 54,
                    "time": 142.87698466666814,
                    "velocity": 0.25196850393700787,
                    "duration": 0.13831266666664987
                },
                {
                    "name": "G#3",
                    "midi": 56,
                    "time": 143.0152973333348,
                    "velocity": 0.25196850393700787,
                    "duration": 0.1383126666666783
                },
                {
                    "name": "A3",
                    "midi": 57,
                    "time": 143.15361000000146,
                    "velocity": 0.29133858267716534,
                    "duration": 0.1383126666666783
                },
                {
                    "name": "B3",
                    "midi": 59,
                    "time": 143.29192266666814,
                    "velocity": 0.25984251968503935,
                    "duration": 0.1383126666666783
                },
                {
                    "name": "C#4",
                    "midi": 61,
                    "time": 143.43023533333482,
                    "velocity": 0.25984251968503935,
                    "duration": 0.1383126666666783
                },
                {
                    "name": "E3",
                    "midi": 52,
                    "time": 143.9834860000015,
                    "velocity": 0.2755905511811024,
                    "duration": 0.20746900000000323
                },
                {
                    "name": "B3",
                    "midi": 59,
                    "time": 143.9834860000015,
                    "velocity": 0.2755905511811024,
                    "duration": 0.20746900000000323
                },
                {
                    "name": "A2",
                    "midi": 45,
                    "time": 144.3984240000015,
                    "velocity": 0.25984251968503935,
                    "duration": 0.2074689999999748
                },
                {
                    "name": "C#3",
                    "midi": 49,
                    "time": 144.3984240000015,
                    "velocity": 0.25984251968503935,
                    "duration": 0.2074689999999748
                },
                {
                    "name": "A3",
                    "midi": 57,
                    "time": 144.4036107250015,
                    "velocity": 0.31496062992125984,
                    "duration": 0.2074689999999748
                },
                {
                    "name": "C#5",
                    "midi": 73,
                    "time": 144.81336200000146,
                    "velocity": 0.3464566929133858,
                    "duration": 0.31120350000000485
                },
                {
                    "name": "E5",
                    "midi": 76,
                    "time": 144.81336200000146,
                    "velocity": 0.3464566929133858,
                    "duration": 0.31120350000000485
                },
                {
                    "name": "C#5",
                    "midi": 73,
                    "time": 145.12456550000147,
                    "velocity": 0.30708661417322836,
                    "duration": 0.10373450000000162
                },
                {
                    "name": "E5",
                    "midi": 76,
                    "time": 145.12456550000147,
                    "velocity": 0.30708661417322836,
                    "duration": 0.10373450000000162
                },
                {
                    "name": "B4",
                    "midi": 71,
                    "time": 145.22830000000147,
                    "velocity": 0.3464566929133858,
                    "duration": 0.20746900000000323
                },
                {
                    "name": "D5",
                    "midi": 74,
                    "time": 145.22830000000147,
                    "velocity": 0.3464566929133858,
                    "duration": 0.20746900000000323
                },
                {
                    "name": "E3",
                    "midi": 52,
                    "time": 145.64323800000147,
                    "velocity": 0.31496062992125984,
                    "duration": 0.20746900000000323
                },
                {
                    "name": "B3",
                    "midi": 59,
                    "time": 145.64323800000147,
                    "velocity": 0.31496062992125984,
                    "duration": 0.20746900000000323
                },
                {
                    "name": "A2",
                    "midi": 45,
                    "time": 146.05817600000148,
                    "velocity": 0.2992125984251969,
                    "duration": 0.20746900000000323
                },
                {
                    "name": "C#3",
                    "midi": 49,
                    "time": 146.05817600000148,
                    "velocity": 0.2992125984251969,
                    "duration": 0.20746900000000323
                },
                {
                    "name": "A3",
                    "midi": 57,
                    "time": 146.05817600000148,
                    "velocity": 0.3543307086614173,
                    "duration": 0.20746900000000323
                },
                {
                    "name": "C#5",
                    "midi": 73,
                    "time": 146.4731140000015,
                    "velocity": 0.3464566929133858,
                    "duration": 0.31120350000000485
                },
                {
                    "name": "E5",
                    "midi": 76,
                    "time": 146.4731140000015,
                    "velocity": 0.3464566929133858,
                    "duration": 0.31120350000000485
                },
                {
                    "name": "C#5",
                    "midi": 73,
                    "time": 146.7843175000015,
                    "velocity": 0.30708661417322836,
                    "duration": 0.10373450000000162
                },
                {
                    "name": "E5",
                    "midi": 76,
                    "time": 146.7843175000015,
                    "velocity": 0.30708661417322836,
                    "duration": 0.10373450000000162
                },
                {
                    "name": "B4",
                    "midi": 71,
                    "time": 146.8880520000015,
                    "velocity": 0.3464566929133858,
                    "duration": 0.20746900000000323
                },
                {
                    "name": "D5",
                    "midi": 74,
                    "time": 146.8880520000015,
                    "velocity": 0.3464566929133858,
                    "duration": 0.20746900000000323
                },
                {
                    "name": "E3",
                    "midi": 52,
                    "time": 147.3029900000015,
                    "velocity": 0.31496062992125984,
                    "duration": 0.20746900000000323
                },
                {
                    "name": "B3",
                    "midi": 59,
                    "time": 147.3029900000015,
                    "velocity": 0.31496062992125984,
                    "duration": 0.20746900000000323
                },
                {
                    "name": "A2",
                    "midi": 45,
                    "time": 147.7179280000015,
                    "velocity": 0.2992125984251969,
                    "duration": 0.20746900000000323
                },
                {
                    "name": "C#3",
                    "midi": 49,
                    "time": 147.7179280000015,
                    "velocity": 0.2992125984251969,
                    "duration": 0.20746900000000323
                },
                {
                    "name": "A3",
                    "midi": 57,
                    "time": 147.7179280000015,
                    "velocity": 0.3543307086614173,
                    "duration": 0.20746900000000323
                },
                {
                    "name": "C#5",
                    "midi": 73,
                    "time": 148.1328660000015,
                    "velocity": 0.3464566929133858,
                    "duration": 0.31120350000000485
                },
                {
                    "name": "E5",
                    "midi": 76,
                    "time": 148.1328660000015,
                    "velocity": 0.3464566929133858,
                    "duration": 0.31120350000000485
                },
                {
                    "name": "C#5",
                    "midi": 73,
                    "time": 148.44406950000152,
                    "velocity": 0.30708661417322836,
                    "duration": 0.10373450000000162
                },
                {
                    "name": "E5",
                    "midi": 76,
                    "time": 148.44406950000152,
                    "velocity": 0.30708661417322836,
                    "duration": 0.10373450000000162
                },
                {
                    "name": "B4",
                    "midi": 71,
                    "time": 148.54780400000152,
                    "velocity": 0.3464566929133858,
                    "duration": 0.20746900000000323
                },
                {
                    "name": "D5",
                    "midi": 74,
                    "time": 148.54780400000152,
                    "velocity": 0.3464566929133858,
                    "duration": 0.20746900000000323
                },
                {
                    "name": "E2",
                    "midi": 40,
                    "time": 148.96274200000153,
                    "velocity": 0.25196850393700787,
                    "duration": 0.20746900000000323
                },
                {
                    "name": "A1",
                    "midi": 33,
                    "time": 149.37768000000153,
                    "velocity": 0.28346456692913385,
                    "duration": 0.8298760000000129
                },
                {
                    "name": "A2",
                    "midi": 45,
                    "time": 150.20755600000155,
                    "velocity": 0.25984251968503935,
                    "duration": 0.10373450000000162
                },
                {
                    "name": "A2",
                    "midi": 45,
                    "time": 150.41502500000155,
                    "velocity": 0.2204724409448819,
                    "duration": 0.10373450000000162
                },
                {
                    "name": "A2",
                    "midi": 45,
                    "time": 150.62249400000155,
                    "velocity": 0.25984251968503935,
                    "duration": 0.10373450000000162
                },
                {
                    "name": "A2",
                    "midi": 45,
                    "time": 150.82996300000156,
                    "velocity": 0.2204724409448819,
                    "duration": 0.10373450000000162
                },
                {
                    "name": "A2",
                    "midi": 45,
                    "time": 151.03743200000156,
                    "velocity": 0.28346456692913385,
                    "duration": 0.41493800000000647
                },
                {
                    "name": "G3",
                    "midi": 55,
                    "time": 151.45237000000157,
                    "velocity": 0.29133858267716534,
                    "duration": 0.20746900000000323
                },
                {
                    "name": "A2",
                    "midi": 45,
                    "time": 151.86730800000157,
                    "velocity": 0.33858267716535434,
                    "duration": 0.10373450000000162
                },
                {
                    "name": "A2",
                    "midi": 45,
                    "time": 152.07477700000157,
                    "velocity": 0.2992125984251969,
                    "duration": 0.10373450000000162
                },
                {
                    "name": "A2",
                    "midi": 45,
                    "time": 152.28224600000158,
                    "velocity": 0.3543307086614173,
                    "duration": 0.10373450000000162
                },
                {
                    "name": "A2",
                    "midi": 45,
                    "time": 152.48971500000158,
                    "velocity": 0.33070866141732286,
                    "duration": 0.10373450000000162
                },
                {
                    "name": "A2",
                    "midi": 45,
                    "time": 152.69718400000158,
                    "velocity": 0.4330708661417323,
                    "duration": 0.41493800000000647
                },
                {
                    "name": "G3",
                    "midi": 55,
                    "time": 153.1121220000016,
                    "velocity": 0.4015748031496063,
                    "duration": 0.20746900000000323
                },
                {
                    "name": "A3",
                    "midi": 57,
                    "time": 153.5270600000016,
                    "velocity": 0.44881889763779526,
                    "duration": 0.41493800000000647
                },
                {
                    "name": "G4",
                    "midi": 67,
                    "time": 153.9419980000016,
                    "velocity": 0.41732283464566927,
                    "duration": 0.20746900000000323
                },
                {
                    "name": "A3",
                    "midi": 57,
                    "time": 154.3569360000016,
                    "velocity": 0.5196850393700787,
                    "duration": 0.41493800000000647
                },
                {
                    "name": "G4",
                    "midi": 67,
                    "time": 154.77187400000162,
                    "velocity": 0.49606299212598426,
                    "duration": 0.20746900000000323
                },
                {
                    "name": "A3",
                    "midi": 57,
                    "time": 155.18681200000162,
                    "velocity": 0.5826771653543307,
                    "duration": 0.41493800000000647
                },
                {
                    "name": "G4",
                    "midi": 67,
                    "time": 155.60175000000163,
                    "velocity": 0.5748031496062992,
                    "duration": 0.20746900000000323
                },
                {
                    "name": "D2",
                    "midi": 38,
                    "time": 156.01668800000164,
                    "velocity": 0.5039370078740157,
                    "duration": 0.8298760000000129
                },
                {
                    "name": "D3",
                    "midi": 50,
                    "time": 156.01668800000164,
                    "velocity": 0.5905511811023622,
                    "duration": 0.8298760000000129
                },
                {
                    "name": "F#2",
                    "midi": 42,
                    "time": 156.84656400000165,
                    "velocity": 0.3543307086614173,
                    "duration": 0.10373450000000162
                },
                {
                    "name": "D3",
                    "midi": 50,
                    "time": 156.84656400000165,
                    "velocity": 0.41732283464566927,
                    "duration": 0.10373450000000162
                },
                {
                    "name": "F#2",
                    "midi": 42,
                    "time": 157.05403300000165,
                    "velocity": 0.31496062992125984,
                    "duration": 0.10373450000000162
                },
                {
                    "name": "D3",
                    "midi": 50,
                    "time": 157.05403300000165,
                    "velocity": 0.3779527559055118,
                    "duration": 0.10373450000000162
                },
                {
                    "name": "F#2",
                    "midi": 42,
                    "time": 157.26150200000166,
                    "velocity": 0.3543307086614173,
                    "duration": 0.10373450000000162
                },
                {
                    "name": "D3",
                    "midi": 50,
                    "time": 157.26150200000166,
                    "velocity": 0.41732283464566927,
                    "duration": 0.10373450000000162
                },
                {
                    "name": "F#2",
                    "midi": 42,
                    "time": 157.46897100000166,
                    "velocity": 0.31496062992125984,
                    "duration": 0.10373450000000162
                },
                {
                    "name": "D3",
                    "midi": 50,
                    "time": 157.46897100000166,
                    "velocity": 0.3779527559055118,
                    "duration": 0.10373450000000162
                },
                {
                    "name": "F#2",
                    "midi": 42,
                    "time": 157.67644000000166,
                    "velocity": 0.3858267716535433,
                    "duration": 0.41493800000000647
                },
                {
                    "name": "D3",
                    "midi": 50,
                    "time": 157.67644000000166,
                    "velocity": 0.4566929133858268,
                    "duration": 0.6224070000000097
                },
                {
                    "name": "G2",
                    "midi": 43,
                    "time": 158.09137800000167,
                    "velocity": 0.3543307086614173,
                    "duration": 0.20746900000000323
                },
                {
                    "name": "E3",
                    "midi": 52,
                    "time": 158.09137800000167,
                    "velocity": 0.4251968503937008,
                    "duration": 0.20746900000000323
                },
                {
                    "name": "A2",
                    "midi": 45,
                    "time": 158.50631600000168,
                    "velocity": 0.3543307086614173,
                    "duration": 0.10373450000000162
                },
                {
                    "name": "D3",
                    "midi": 50,
                    "time": 158.50631600000168,
                    "velocity": 0.3543307086614173,
                    "duration": 0.10373450000000162
                },
                {
                    "name": "F#3",
                    "midi": 54,
                    "time": 158.50631600000168,
                    "velocity": 0.41732283464566927,
                    "duration": 0.10373450000000162
                },
                {
                    "name": "A2",
                    "midi": 45,
                    "time": 158.71378500000168,
                    "velocity": 0.31496062992125984,
                    "duration": 0.10373450000000162
                },
                {
                    "name": "D3",
                    "midi": 50,
                    "time": 158.71378500000168,
                    "velocity": 0.31496062992125984,
                    "duration": 0.10373450000000162
                },
                {
                    "name": "F#3",
                    "midi": 54,
                    "time": 158.71378500000168,
                    "velocity": 0.3779527559055118,
                    "duration": 0.10373450000000162
                },
                {
                    "name": "A2",
                    "midi": 45,
                    "time": 158.92125400000168,
                    "velocity": 0.3543307086614173,
                    "duration": 0.10373450000000162
                },
                {
                    "name": "D3",
                    "midi": 50,
                    "time": 158.92125400000168,
                    "velocity": 0.3543307086614173,
                    "duration": 0.10373450000000162
                },
                {
                    "name": "F#3",
                    "midi": 54,
                    "time": 158.92125400000168,
                    "velocity": 0.41732283464566927,
                    "duration": 0.10373450000000162
                },
                {
                    "name": "A2",
                    "midi": 45,
                    "time": 159.12872300000168,
                    "velocity": 0.31496062992125984,
                    "duration": 0.10373450000000162
                },
                {
                    "name": "D3",
                    "midi": 50,
                    "time": 159.12872300000168,
                    "velocity": 0.31496062992125984,
                    "duration": 0.10373450000000162
                },
                {
                    "name": "F#3",
                    "midi": 54,
                    "time": 159.12872300000168,
                    "velocity": 0.3779527559055118,
                    "duration": 0.10373450000000162
                },
                {
                    "name": "D3",
                    "midi": 50,
                    "time": 159.3361920000017,
                    "velocity": 0.3858267716535433,
                    "duration": 0.6224070000000097
                },
                {
                    "name": "A2",
                    "midi": 45,
                    "time": 159.3361920000017,
                    "velocity": 0.3858267716535433,
                    "duration": 0.41493800000000647
                },
                {
                    "name": "F#3",
                    "midi": 54,
                    "time": 159.3361920000017,
                    "velocity": 0.4566929133858268,
                    "duration": 0.41493800000000647
                },
                {
                    "name": "B2",
                    "midi": 47,
                    "time": 159.7511300000017,
                    "velocity": 0.3543307086614173,
                    "duration": 0.20746900000000323
                },
                {
                    "name": "G3",
                    "midi": 55,
                    "time": 159.7511300000017,
                    "velocity": 0.4251968503937008,
                    "duration": 0.20746900000000323
                },
                {
                    "name": "E3",
                    "midi": 52,
                    "time": 159.9585990000017,
                    "velocity": 0.36220472440944884,
                    "duration": 0.20746900000000323
                },
                {
                    "name": "G3",
                    "midi": 55,
                    "time": 160.1660680000017,
                    "velocity": 0.4251968503937008,
                    "duration": 0.1383126666666783
                },
                {
                    "name": "F#3",
                    "midi": 54,
                    "time": 160.30438066666838,
                    "velocity": 0.3700787401574803,
                    "duration": 0.1383126666666783
                },
                {
                    "name": "E3",
                    "midi": 52,
                    "time": 160.44269333333506,
                    "velocity": 0.3779527559055118,
                    "duration": 0.1383126666666783
                },
                {
                    "name": "A#3",
                    "midi": 58,
                    "time": 160.58100600000174,
                    "velocity": 0.4251968503937008,
                    "duration": 0.1383126666666783
                },
                {
                    "name": "A3",
                    "midi": 57,
                    "time": 160.7193186666684,
                    "velocity": 0.3858267716535433,
                    "duration": 0.1383126666666783
                },
                {
                    "name": "G3",
                    "midi": 55,
                    "time": 160.8576313333351,
                    "velocity": 0.3858267716535433,
                    "duration": 0.1383126666666783
                },
                {
                    "name": "A3",
                    "midi": 57,
                    "time": 160.99594400000177,
                    "velocity": 0.4251968503937008,
                    "duration": 0.20746900000000323
                },
                {
                    "name": "D4",
                    "midi": 62,
                    "time": 161.41088200000178,
                    "velocity": 0.33070866141732286,
                    "duration": 0.1383126666666783
                },
                {
                    "name": "E4",
                    "midi": 64,
                    "time": 161.54919466666846,
                    "velocity": 0.2755905511811024,
                    "duration": 0.1383126666666783
                },
                {
                    "name": "F#4",
                    "midi": 66,
                    "time": 161.68750733333513,
                    "velocity": 0.2755905511811024,
                    "duration": 0.1383126666666783
                },
                {
                    "name": "A3",
                    "midi": 57,
                    "time": 161.8258200000018,
                    "velocity": 0.33858267716535434,
                    "duration": 0.1383126666666783
                },
                {
                    "name": "C#4",
                    "midi": 61,
                    "time": 161.9641326666685,
                    "velocity": 0.28346456692913385,
                    "duration": 0.1383126666666783
                },
                {
                    "name": "D4",
                    "midi": 62,
                    "time": 162.10244533333517,
                    "velocity": 0.28346456692913385,
                    "duration": 0.1383126666666783
                },
                {
                    "name": "E4",
                    "midi": 64,
                    "time": 162.24075800000185,
                    "velocity": 0.33858267716535434,
                    "duration": 0.1383126666666783
                },
                {
                    "name": "F#4",
                    "midi": 66,
                    "time": 162.37907066666853,
                    "velocity": 0.29133858267716534,
                    "duration": 0.1383126666666783
                },
                {
                    "name": "G4",
                    "midi": 67,
                    "time": 162.5173833333352,
                    "velocity": 0.29133858267716534,
                    "duration": 0.1383126666666783
                },
                {
                    "name": "D2",
                    "midi": 38,
                    "time": 162.65569600000188,
                    "velocity": 0.5039370078740157,
                    "duration": 0.8298760000000129
                },
                {
                    "name": "D3",
                    "midi": 50,
                    "time": 162.65569600000188,
                    "velocity": 0.5905511811023622,
                    "duration": 0.8298760000000129
                },
                {
                    "name": "F2",
                    "midi": 41,
                    "time": 163.4855720000019,
                    "velocity": 0.3543307086614173,
                    "duration": 0.10373450000000162
                },
                {
                    "name": "D3",
                    "midi": 50,
                    "time": 163.4855720000019,
                    "velocity": 0.41732283464566927,
                    "duration": 0.10373450000000162
                },
                {
                    "name": "F2",
                    "midi": 41,
                    "time": 163.6930410000019,
                    "velocity": 0.31496062992125984,
                    "duration": 0.10373450000000162
                },
                {
                    "name": "D3",
                    "midi": 50,
                    "time": 163.6930410000019,
                    "velocity": 0.3779527559055118,
                    "duration": 0.10373450000000162
                },
                {
                    "name": "F2",
                    "midi": 41,
                    "time": 163.9005100000019,
                    "velocity": 0.3543307086614173,
                    "duration": 0.10373450000000162
                },
                {
                    "name": "D3",
                    "midi": 50,
                    "time": 163.9005100000019,
                    "velocity": 0.41732283464566927,
                    "duration": 0.10373450000000162
                },
                {
                    "name": "F2",
                    "midi": 41,
                    "time": 164.1079790000019,
                    "velocity": 0.31496062992125984,
                    "duration": 0.10373450000000162
                },
                {
                    "name": "D3",
                    "midi": 50,
                    "time": 164.1079790000019,
                    "velocity": 0.3779527559055118,
                    "duration": 0.10373450000000162
                },
                {
                    "name": "F2",
                    "midi": 41,
                    "time": 164.3154480000019,
                    "velocity": 0.3858267716535433,
                    "duration": 0.41493800000000647
                },
                {
                    "name": "D3",
                    "midi": 50,
                    "time": 164.3154480000019,
                    "velocity": 0.4566929133858268,
                    "duration": 0.6224070000000097
                },
                {
                    "name": "G2",
                    "midi": 43,
                    "time": 164.73038600000191,
                    "velocity": 0.3543307086614173,
                    "duration": 0.20746900000000323
                },
                {
                    "name": "E3",
                    "midi": 52,
                    "time": 164.73038600000191,
                    "velocity": 0.4251968503937008,
                    "duration": 0.20746900000000323
                },
                {
                    "name": "A2",
                    "midi": 45,
                    "time": 165.14532400000192,
                    "velocity": 0.3543307086614173,
                    "duration": 0.10373450000000162
                },
                {
                    "name": "D3",
                    "midi": 50,
                    "time": 165.14532400000192,
                    "velocity": 0.3543307086614173,
                    "duration": 0.10373450000000162
                },
                {
                    "name": "F#3",
                    "midi": 54,
                    "time": 165.14532400000192,
                    "velocity": 0.41732283464566927,
                    "duration": 0.10373450000000162
                },
                {
                    "name": "A2",
                    "midi": 45,
                    "time": 165.35279300000192,
                    "velocity": 0.31496062992125984,
                    "duration": 0.10373450000000162
                },
                {
                    "name": "D3",
                    "midi": 50,
                    "time": 165.35279300000192,
                    "velocity": 0.31496062992125984,
                    "duration": 0.10373450000000162
                },
                {
                    "name": "F#3",
                    "midi": 54,
                    "time": 165.35279300000192,
                    "velocity": 0.3779527559055118,
                    "duration": 0.10373450000000162
                },
                {
                    "name": "A2",
                    "midi": 45,
                    "time": 165.56026200000193,
                    "velocity": 0.3543307086614173,
                    "duration": 0.10373450000000162
                },
                {
                    "name": "D3",
                    "midi": 50,
                    "time": 165.56026200000193,
                    "velocity": 0.3543307086614173,
                    "duration": 0.10373450000000162
                },
                {
                    "name": "F#3",
                    "midi": 54,
                    "time": 165.56026200000193,
                    "velocity": 0.41732283464566927,
                    "duration": 0.10373450000000162
                },
                {
                    "name": "A2",
                    "midi": 45,
                    "time": 165.76773100000193,
                    "velocity": 0.31496062992125984,
                    "duration": 0.10373450000000162
                },
                {
                    "name": "D3",
                    "midi": 50,
                    "time": 165.76773100000193,
                    "velocity": 0.31496062992125984,
                    "duration": 0.10373450000000162
                },
                {
                    "name": "F#3",
                    "midi": 54,
                    "time": 165.76773100000193,
                    "velocity": 0.3779527559055118,
                    "duration": 0.10373450000000162
                },
                {
                    "name": "D3",
                    "midi": 50,
                    "time": 165.97520000000193,
                    "velocity": 0.3858267716535433,
                    "duration": 0.6224070000000097
                },
                {
                    "name": "A2",
                    "midi": 45,
                    "time": 165.97520000000193,
                    "velocity": 0.3858267716535433,
                    "duration": 0.41493800000000647
                },
                {
                    "name": "F#3",
                    "midi": 54,
                    "time": 165.97520000000193,
                    "velocity": 0.4566929133858268,
                    "duration": 0.41493800000000647
                },
                {
                    "name": "A#2",
                    "midi": 46,
                    "time": 166.39013800000194,
                    "velocity": 0.3543307086614173,
                    "duration": 0.20746900000000323
                },
                {
                    "name": "G3",
                    "midi": 55,
                    "time": 166.39013800000194,
                    "velocity": 0.4251968503937008,
                    "duration": 0.20746900000000323
                },
                {
                    "name": "B2",
                    "midi": 47,
                    "time": 166.80507600000195,
                    "velocity": 0.3543307086614173,
                    "duration": 0.10373450000000162
                },
                {
                    "name": "F3",
                    "midi": 53,
                    "time": 166.80507600000195,
                    "velocity": 0.3543307086614173,
                    "duration": 0.10373450000000162
                },
                {
                    "name": "G#3",
                    "midi": 56,
                    "time": 166.80507600000195,
                    "velocity": 0.41732283464566927,
                    "duration": 0.10373450000000162
                },
                {
                    "name": "B2",
                    "midi": 47,
                    "time": 167.01254500000195,
                    "velocity": 0.31496062992125984,
                    "duration": 0.10373450000000162
                },
                {
                    "name": "F3",
                    "midi": 53,
                    "time": 167.01254500000195,
                    "velocity": 0.31496062992125984,
                    "duration": 0.10373450000000162
                },
                {
                    "name": "G#3",
                    "midi": 56,
                    "time": 167.01254500000195,
                    "velocity": 0.3779527559055118,
                    "duration": 0.10373450000000162
                },
                {
                    "name": "B2",
                    "midi": 47,
                    "time": 167.22001400000195,
                    "velocity": 0.3543307086614173,
                    "duration": 0.10373450000000162
                },
                {
                    "name": "F3",
                    "midi": 53,
                    "time": 167.22001400000195,
                    "velocity": 0.3543307086614173,
                    "duration": 0.10373450000000162
                },
                {
                    "name": "G#3",
                    "midi": 56,
                    "time": 167.22001400000195,
                    "velocity": 0.41732283464566927,
                    "duration": 0.10373450000000162
                },
                {
                    "name": "B2",
                    "midi": 47,
                    "time": 167.42748300000196,
                    "velocity": 0.31496062992125984,
                    "duration": 0.10373450000000162
                },
                {
                    "name": "F3",
                    "midi": 53,
                    "time": 167.42748300000196,
                    "velocity": 0.31496062992125984,
                    "duration": 0.10373450000000162
                },
                {
                    "name": "G#3",
                    "midi": 56,
                    "time": 167.42748300000196,
                    "velocity": 0.3779527559055118,
                    "duration": 0.10373450000000162
                },
                {
                    "name": "F3",
                    "midi": 53,
                    "time": 167.63495200000196,
                    "velocity": 0.3858267716535433,
                    "duration": 0.8298760000000129
                },
                {
                    "name": "C3",
                    "midi": 48,
                    "time": 167.63495200000196,
                    "velocity": 0.3858267716535433,
                    "duration": 0.8298760000000129
                },
                {
                    "name": "A3",
                    "midi": 57,
                    "time": 167.63495200000196,
                    "velocity": 0.4566929133858268,
                    "duration": 0.8298760000000129
                },
                {
                    "name": "C3",
                    "midi": 48,
                    "time": 168.46482800000197,
                    "velocity": 0.33858267716535434,
                    "duration": 0.10373450000000162
                },
                {
                    "name": "C3",
                    "midi": 48,
                    "time": 168.67229700000198,
                    "velocity": 0.28346456692913385,
                    "duration": 0.10373450000000162
                },
                {
                    "name": "C3",
                    "midi": 48,
                    "time": 168.87976600000198,
                    "velocity": 0.33858267716535434,
                    "duration": 0.10373450000000162
                },
                {
                    "name": "C3",
                    "midi": 48,
                    "time": 169.08723500000198,
                    "velocity": 0.29133858267716534,
                    "duration": 0.10373450000000162
                },
                {
                    "name": "C3",
                    "midi": 48,
                    "time": 169.29470400000199,
                    "velocity": 0.33858267716535434,
                    "duration": 0.41493800000000647
                },
                {
                    "name": "A2",
                    "midi": 45,
                    "time": 169.709642000002,
                    "velocity": 0.33858267716535434,
                    "duration": 0.20746900000000323
                },
                {
                    "name": "C3",
                    "midi": 48,
                    "time": 170.11852882083534,
                    "velocity": 0.33858267716535434,
                    "duration": 0.10373450000000162
                },
                {
                    "name": "C3",
                    "midi": 48,
                    "time": 170.32599782083534,
                    "velocity": 0.28346456692913385,
                    "duration": 0.10373450000000162
                },
                {
                    "name": "C3",
                    "midi": 48,
                    "time": 170.53346682083534,
                    "velocity": 0.33858267716535434,
                    "duration": 0.10373450000000162
                },
                {
                    "name": "C3",
                    "midi": 48,
                    "time": 170.74093582083535,
                    "velocity": 0.29133858267716534,
                    "duration": 0.10373450000000162
                },
                {
                    "name": "C3",
                    "midi": 48,
                    "time": 170.954456000002,
                    "velocity": 0.33858267716535434,
                    "duration": 0.41493800000000647
                },
                {
                    "name": "F3",
                    "midi": 53,
                    "time": 171.78433200000202,
                    "velocity": 0.2992125984251969,
                    "duration": 0.15214393333334897
                },
                {
                    "name": "G3",
                    "midi": 55,
                    "time": 171.9226446666687,
                    "velocity": 0.2677165354330709,
                    "duration": 0.15214393333334897
                },
                {
                    "name": "A3",
                    "midi": 57,
                    "time": 172.06095733333538,
                    "velocity": 0.2440944881889764,
                    "duration": 0.1383126666666783
                },
                {
                    "name": "A2",
                    "midi": 45,
                    "time": 172.19927000000206,
                    "velocity": 0.33070866141732286,
                    "duration": 0.15214393333334897
                },
                {
                    "name": "A#2",
                    "midi": 46,
                    "time": 172.33758266666874,
                    "velocity": 0.28346456692913385,
                    "duration": 0.15214393333334897
                },
                {
                    "name": "C3",
                    "midi": 48,
                    "time": 172.47589533333542,
                    "velocity": 0.2677165354330709,
                    "duration": 0.1383126666666783
                },
                {
                    "name": "F2",
                    "midi": 41,
                    "time": 172.6142080000021,
                    "velocity": 0.33858267716535434,
                    "duration": 0.15214393333334897
                },
                {
                    "name": "G2",
                    "midi": 43,
                    "time": 172.75252066666877,
                    "velocity": 0.29133858267716534,
                    "duration": 0.15214393333334897
                },
                {
                    "name": "A2",
                    "midi": 45,
                    "time": 172.89083333333545,
                    "velocity": 0.2677165354330709,
                    "duration": 0.1383126666666783
                },
                {
                    "name": "A1",
                    "midi": 33,
                    "time": 173.02914600000213,
                    "velocity": 0.36220472440944884,
                    "duration": 0.15214393333334897
                },
                {
                    "name": "A#1",
                    "midi": 34,
                    "time": 173.1674586666688,
                    "velocity": 0.31496062992125984,
                    "duration": 0.15214393333334897
                },
                {
                    "name": "C2",
                    "midi": 36,
                    "time": 173.30577133333549,
                    "velocity": 0.29133858267716534,
                    "duration": 0.1383126666666783
                },
                {
                    "name": "A1",
                    "midi": 33,
                    "time": 173.44408400000216,
                    "velocity": 0.41732283464566927,
                    "duration": 0.15214393333334897
                },
                {
                    "name": "A#1",
                    "midi": 34,
                    "time": 173.58239666666884,
                    "velocity": 0.33858267716535434,
                    "duration": 0.15214393333334897
                },
                {
                    "name": "C2",
                    "midi": 36,
                    "time": 173.72070933333552,
                    "velocity": 0.31496062992125984,
                    "duration": 0.1383126666666783
                },
                {
                    "name": "A1",
                    "midi": 33,
                    "time": 173.8590220000022,
                    "velocity": 0.4645669291338583,
                    "duration": 0.15214393333334897
                },
                {
                    "name": "A#1",
                    "midi": 34,
                    "time": 173.99733466666888,
                    "velocity": 0.3937007874015748,
                    "duration": 0.15214393333334897
                },
                {
                    "name": "C2",
                    "midi": 36,
                    "time": 174.13564733333556,
                    "velocity": 0.3228346456692913,
                    "duration": 0.1383126666666783
                },
                {
                    "name": "C#2",
                    "midi": 37,
                    "time": 174.27396000000223,
                    "velocity": 0.5511811023622047,
                    "duration": 0.10373450000000162
                },
                {
                    "name": "C#2",
                    "midi": 37,
                    "time": 174.4848868166689,
                    "velocity": 0.2755905511811024,
                    "duration": 0.10373450000000162
                },
                {
                    "name": "C#2",
                    "midi": 37,
                    "time": 174.68889800000224,
                    "velocity": 0.2755905511811024,
                    "duration": 0.10373450000000162
                },
                {
                    "name": "C#2",
                    "midi": 37,
                    "time": 174.89636700000224,
                    "velocity": 0.2755905511811024,
                    "duration": 0.10373450000000162
                },
                {
                    "name": "C#2",
                    "midi": 37,
                    "time": 175.10383600000225,
                    "velocity": 0.36220472440944884,
                    "duration": 0.8298760000000129
                },
                {
                    "name": "C#3",
                    "midi": 49,
                    "time": 175.93371200000226,
                    "velocity": 0.3464566929133858,
                    "duration": 0.10373450000000162
                },
                {
                    "name": "C#2",
                    "midi": 37,
                    "time": 175.93371200000226,
                    "velocity": 0.29133858267716534,
                    "duration": 0.10373450000000162
                },
                {
                    "name": "C#3",
                    "midi": 49,
                    "time": 176.14118100000226,
                    "velocity": 0.2755905511811024,
                    "duration": 0.10373450000000162
                },
                {
                    "name": "C#2",
                    "midi": 37,
                    "time": 176.14463881666893,
                    "velocity": 0.2283464566929134,
                    "duration": 0.10373450000000162
                },
                {
                    "name": "C#2",
                    "midi": 37,
                    "time": 176.34865000000227,
                    "velocity": 0.2283464566929134,
                    "duration": 0.10373450000000162
                },
                {
                    "name": "C#3",
                    "midi": 49,
                    "time": 176.34865000000227,
                    "velocity": 0.2755905511811024,
                    "duration": 0.10373450000000162
                },
                {
                    "name": "C#3",
                    "midi": 49,
                    "time": 176.55611900000227,
                    "velocity": 0.2755905511811024,
                    "duration": 0.10373450000000162
                },
                {
                    "name": "C#2",
                    "midi": 37,
                    "time": 176.55611900000227,
                    "velocity": 0.2283464566929134,
                    "duration": 0.10373450000000162
                },
                {
                    "name": "C#3",
                    "midi": 49,
                    "time": 176.76358800000227,
                    "velocity": 0.4330708661417323,
                    "duration": 0.8298760000000129
                },
                {
                    "name": "C#2",
                    "midi": 37,
                    "time": 176.76358800000227,
                    "velocity": 0.36220472440944884,
                    "duration": 0.8298760000000129
                },
                {
                    "name": "A2",
                    "midi": 45,
                    "time": 177.59346400000229,
                    "velocity": 0.48031496062992124,
                    "duration": 0.10373450000000162
                },
                {
                    "name": "A1",
                    "midi": 33,
                    "time": 177.59346400000229,
                    "velocity": 0.4015748031496063,
                    "duration": 0.10373450000000162
                },
                {
                    "name": "A1",
                    "midi": 33,
                    "time": 177.8009330000023,
                    "velocity": 0.30708661417322836,
                    "duration": 0.10373450000000162
                },
                {
                    "name": "A2",
                    "midi": 45,
                    "time": 177.8009330000023,
                    "velocity": 0.3779527559055118,
                    "duration": 0.10373450000000162
                },
                {
                    "name": "A1",
                    "midi": 33,
                    "time": 178.0084020000023,
                    "velocity": 0.30708661417322836,
                    "duration": 0.10373450000000162
                },
                {
                    "name": "A2",
                    "midi": 45,
                    "time": 178.0084020000023,
                    "velocity": 0.3779527559055118,
                    "duration": 0.10373450000000162
                },
                {
                    "name": "A2",
                    "midi": 45,
                    "time": 178.2158710000023,
                    "velocity": 0.3858267716535433,
                    "duration": 0.10373450000000162
                },
                {
                    "name": "A1",
                    "midi": 33,
                    "time": 178.2158710000023,
                    "velocity": 0.30708661417322836,
                    "duration": 0.10373450000000162
                },
                {
                    "name": "A2",
                    "midi": 45,
                    "time": 178.4233400000023,
                    "velocity": 0.5354330708661418,
                    "duration": 0.8298760000000129
                },
                {
                    "name": "A1",
                    "midi": 33,
                    "time": 178.4233400000023,
                    "velocity": 0.4566929133858268,
                    "duration": 0.8298760000000129
                },
                {
                    "name": "A2",
                    "midi": 45,
                    "time": 179.2532160000023,
                    "velocity": 0.6141732283464567,
                    "duration": 0.10373450000000162
                },
                {
                    "name": "A1",
                    "midi": 33,
                    "time": 179.2532160000023,
                    "velocity": 0.5039370078740157,
                    "duration": 0.10373450000000162
                },
                {
                    "name": "A1",
                    "midi": 33,
                    "time": 179.46068500000231,
                    "velocity": 0.4015748031496063,
                    "duration": 0.10373450000000162
                },
                {
                    "name": "A2",
                    "midi": 45,
                    "time": 179.46068500000231,
                    "velocity": 0.4881889763779528,
                    "duration": 0.10373450000000162
                },
                {
                    "name": "A1",
                    "midi": 33,
                    "time": 179.66815400000232,
                    "velocity": 0.4094488188976378,
                    "duration": 0.10373450000000162
                },
                {
                    "name": "A2",
                    "midi": 45,
                    "time": 179.66815400000232,
                    "velocity": 0.5039370078740157,
                    "duration": 0.10373450000000162
                },
                {
                    "name": "A2",
                    "midi": 45,
                    "time": 179.87562300000232,
                    "velocity": 0.5275590551181102,
                    "duration": 0.10373450000000162
                },
                {
                    "name": "A1",
                    "midi": 33,
                    "time": 179.87562300000232,
                    "velocity": 0.4330708661417323,
                    "duration": 0.10373450000000162
                },
                {
                    "name": "A2",
                    "midi": 45,
                    "time": 180.08309200000232,
                    "velocity": 0.7401574803149606,
                    "duration": 0.8298760000000129
                },
                {
                    "name": "A1",
                    "midi": 33,
                    "time": 180.08309200000232,
                    "velocity": 0.6220472440944882,
                    "duration": 0.8298760000000129
                },
                {
                    "name": "A2",
                    "midi": 45,
                    "time": 180.91296800000234,
                    "velocity": 0.5748031496062992,
                    "duration": 0.8298760000000129
                },
                {
                    "name": "F#2",
                    "midi": 42,
                    "time": 180.91296800000234,
                    "velocity": 0.5748031496062992,
                    "duration": 0.8298760000000129
                },
                {
                    "name": "D2",
                    "midi": 38,
                    "time": 180.91296800000234,
                    "velocity": 0.5748031496062992,
                    "duration": 0.8298760000000129
                },
                {
                    "name": "D3",
                    "midi": 50,
                    "time": 180.91296800000234,
                    "velocity": 0.6771653543307087,
                    "duration": 0.8298760000000129
                },
                {
                    "name": "F#2",
                    "midi": 42,
                    "time": 181.74284400000235,
                    "velocity": 0.33858267716535434,
                    "duration": 0.10373450000000162
                },
                {
                    "name": "D3",
                    "midi": 50,
                    "time": 181.74284400000235,
                    "velocity": 0.4015748031496063,
                    "duration": 0.10373450000000162
                },
                {
                    "name": "F#2",
                    "midi": 42,
                    "time": 181.95031300000235,
                    "velocity": 0.30708661417322836,
                    "duration": 0.10373450000000162
                },
                {
                    "name": "D3",
                    "midi": 50,
                    "time": 181.95031300000235,
                    "velocity": 0.36220472440944884,
                    "duration": 0.10373450000000162
                },
                {
                    "name": "F#2",
                    "midi": 42,
                    "time": 182.15778200000236,
                    "velocity": 0.33858267716535434,
                    "duration": 0.10373450000000162
                },
                {
                    "name": "D3",
                    "midi": 50,
                    "time": 182.15778200000236,
                    "velocity": 0.4015748031496063,
                    "duration": 0.10373450000000162
                },
                {
                    "name": "F#2",
                    "midi": 42,
                    "time": 182.36525100000236,
                    "velocity": 0.30708661417322836,
                    "duration": 0.10373450000000162
                },
                {
                    "name": "D3",
                    "midi": 50,
                    "time": 182.36525100000236,
                    "velocity": 0.36220472440944884,
                    "duration": 0.10373450000000162
                },
                {
                    "name": "F#2",
                    "midi": 42,
                    "time": 182.57272000000236,
                    "velocity": 0.3700787401574803,
                    "duration": 0.41493800000000647
                },
                {
                    "name": "D3",
                    "midi": 50,
                    "time": 182.57272000000236,
                    "velocity": 0.4409448818897638,
                    "duration": 0.6224070000000097
                },
                {
                    "name": "G2",
                    "midi": 43,
                    "time": 182.98765800000237,
                    "velocity": 0.33858267716535434,
                    "duration": 0.20746900000000323
                },
                {
                    "name": "E3",
                    "midi": 52,
                    "time": 182.98765800000237,
                    "velocity": 0.4094488188976378,
                    "duration": 0.20746900000000323
                },
                {
                    "name": "A2",
                    "midi": 45,
                    "time": 183.40259600000238,
                    "velocity": 0.41732283464566927,
                    "duration": 0.1383126666666783
                },
                {
                    "name": "B2",
                    "midi": 47,
                    "time": 183.54090866666905,
                    "velocity": 0.3779527559055118,
                    "duration": 0.1383126666666783
                },
                {
                    "name": "C3",
                    "midi": 48,
                    "time": 183.67922133333573,
                    "velocity": 0.3779527559055118,
                    "duration": 0.1383126666666783
                },
                {
                    "name": "D3",
                    "midi": 50,
                    "time": 183.8175340000024,
                    "velocity": 0.41732283464566927,
                    "duration": 0.1383126666666783
                },
                {
                    "name": "E3",
                    "midi": 52,
                    "time": 183.9558466666691,
                    "velocity": 0.3858267716535433,
                    "duration": 0.1383126666666783
                },
                {
                    "name": "F#3",
                    "midi": 54,
                    "time": 184.09415933333577,
                    "velocity": 0.3779527559055118,
                    "duration": 0.1383126666666783
                },
                {
                    "name": "A#2",
                    "midi": 46,
                    "time": 184.23247200000245,
                    "velocity": 0.41732283464566927,
                    "duration": 0.20746900000000323
                },
                {
                    "name": "F#3",
                    "midi": 54,
                    "time": 184.43994100000245,
                    "velocity": 0.3858267716535433,
                    "duration": 0.20746900000000323
                },
                {
                    "name": "B2",
                    "midi": 47,
                    "time": 184.64741000000245,
                    "velocity": 0.41732283464566927,
                    "duration": 0.20746900000000323
                },
                {
                    "name": "G3",
                    "midi": 55,
                    "time": 184.85487900000246,
                    "velocity": 0.3779527559055118,
                    "duration": 0.20746900000000323
                },
                {
                    "name": "C#3",
                    "midi": 49,
                    "time": 185.06234800000246,
                    "velocity": 0.33858267716535434,
                    "duration": 0.10373450000000162
                },
                {
                    "name": "G3",
                    "midi": 55,
                    "time": 185.06234800000246,
                    "velocity": 0.33858267716535434,
                    "duration": 0.10373450000000162
                },
                {
                    "name": "A3",
                    "midi": 57,
                    "time": 185.06234800000246,
                    "velocity": 0.4015748031496063,
                    "duration": 0.10373450000000162
                },
                {
                    "name": "C#3",
                    "midi": 49,
                    "time": 185.26981700000246,
                    "velocity": 0.30708661417322836,
                    "duration": 0.10373450000000162
                },
                {
                    "name": "G3",
                    "midi": 55,
                    "time": 185.26981700000246,
                    "velocity": 0.30708661417322836,
                    "duration": 0.10373450000000162
                },
                {
                    "name": "A3",
                    "midi": 57,
                    "time": 185.26981700000246,
                    "velocity": 0.36220472440944884,
                    "duration": 0.10373450000000162
                },
                {
                    "name": "C#3",
                    "midi": 49,
                    "time": 185.47728600000247,
                    "velocity": 0.33858267716535434,
                    "duration": 0.10373450000000162
                },
                {
                    "name": "G3",
                    "midi": 55,
                    "time": 185.47728600000247,
                    "velocity": 0.33858267716535434,
                    "duration": 0.10373450000000162
                },
                {
                    "name": "A3",
                    "midi": 57,
                    "time": 185.47728600000247,
                    "velocity": 0.4015748031496063,
                    "duration": 0.10373450000000162
                },
                {
                    "name": "C#3",
                    "midi": 49,
                    "time": 185.68475500000247,
                    "velocity": 0.30708661417322836,
                    "duration": 0.10373450000000162
                },
                {
                    "name": "G3",
                    "midi": 55,
                    "time": 185.68475500000247,
                    "velocity": 0.30708661417322836,
                    "duration": 0.10373450000000162
                },
                {
                    "name": "A3",
                    "midi": 57,
                    "time": 185.68475500000247,
                    "velocity": 0.36220472440944884,
                    "duration": 0.10373450000000162
                },
                {
                    "name": "G3",
                    "midi": 55,
                    "time": 185.89222400000247,
                    "velocity": 0.3700787401574803,
                    "duration": 0.6224070000000097
                },
                {
                    "name": "C#3",
                    "midi": 49,
                    "time": 185.89222400000247,
                    "velocity": 0.3700787401574803,
                    "duration": 0.41493800000000647
                },
                {
                    "name": "A3",
                    "midi": 57,
                    "time": 185.89222400000247,
                    "velocity": 0.4409448818897638,
                    "duration": 0.41493800000000647
                },
                {
                    "name": "D3",
                    "midi": 50,
                    "time": 186.30716200000248,
                    "velocity": 0.33858267716535434,
                    "duration": 0.20746900000000323
                },
                {
                    "name": "B3",
                    "midi": 59,
                    "time": 186.30716200000248,
                    "velocity": 0.4094488188976378,
                    "duration": 0.20746900000000323
                },
                {
                    "name": "D3",
                    "midi": 50,
                    "time": 186.72210000000248,
                    "velocity": 0.41732283464566927,
                    "duration": 0.1383126666666783
                },
                {
                    "name": "E3",
                    "midi": 52,
                    "time": 186.86041266666916,
                    "velocity": 0.3779527559055118,
                    "duration": 0.1383126666666783
                },
                {
                    "name": "F#3",
                    "midi": 54,
                    "time": 186.99872533333584,
                    "velocity": 0.3779527559055118,
                    "duration": 0.1383126666666783
                },
                {
                    "name": "G3",
                    "midi": 55,
                    "time": 187.13703800000252,
                    "velocity": 0.41732283464566927,
                    "duration": 0.1383126666666783
                },
                {
                    "name": "A3",
                    "midi": 57,
                    "time": 187.2753506666692,
                    "velocity": 0.3858267716535433,
                    "duration": 0.1383126666666783
                },
                {
                    "name": "B3",
                    "midi": 59,
                    "time": 187.41366333333588,
                    "velocity": 0.3779527559055118,
                    "duration": 0.1383126666666783
                },
                {
                    "name": "D#3",
                    "midi": 51,
                    "time": 187.55197600000255,
                    "velocity": 0.41732283464566927,
                    "duration": 0.20746900000000323
                },
                {
                    "name": "B3",
                    "midi": 59,
                    "time": 187.75944500000256,
                    "velocity": 0.3858267716535433,
                    "duration": 0.20746900000000323
                },
                {
                    "name": "E3",
                    "midi": 52,
                    "time": 187.96691400000256,
                    "velocity": 0.41732283464566927,
                    "duration": 0.20746900000000323
                },
                {
                    "name": "C4",
                    "midi": 60,
                    "time": 188.17438300000256,
                    "velocity": 0.3779527559055118,
                    "duration": 0.20746900000000323
                },
                {
                    "name": "E3",
                    "midi": 52,
                    "time": 188.38185200000257,
                    "velocity": 0.33858267716535434,
                    "duration": 0.10373450000000162
                },
                {
                    "name": "A#3",
                    "midi": 58,
                    "time": 188.38185200000257,
                    "velocity": 0.33858267716535434,
                    "duration": 0.10373450000000162
                },
                {
                    "name": "C#4",
                    "midi": 61,
                    "time": 188.38185200000257,
                    "velocity": 0.4015748031496063,
                    "duration": 0.10373450000000162
                },
                {
                    "name": "E3",
                    "midi": 52,
                    "time": 188.58932100000257,
                    "velocity": 0.30708661417322836,
                    "duration": 0.10373450000000162
                },
                {
                    "name": "A#3",
                    "midi": 58,
                    "time": 188.58932100000257,
                    "velocity": 0.30708661417322836,
                    "duration": 0.10373450000000162
                },
                {
                    "name": "C#4",
                    "midi": 61,
                    "time": 188.58932100000257,
                    "velocity": 0.36220472440944884,
                    "duration": 0.10373450000000162
                },
                {
                    "name": "E3",
                    "midi": 52,
                    "time": 188.79679000000257,
                    "velocity": 0.33858267716535434,
                    "duration": 0.10373450000000162
                },
                {
                    "name": "A#3",
                    "midi": 58,
                    "time": 188.79679000000257,
                    "velocity": 0.33858267716535434,
                    "duration": 0.10373450000000162
                },
                {
                    "name": "C#4",
                    "midi": 61,
                    "time": 188.79679000000257,
                    "velocity": 0.4015748031496063,
                    "duration": 0.10373450000000162
                },
                {
                    "name": "E3",
                    "midi": 52,
                    "time": 189.00425900000258,
                    "velocity": 0.30708661417322836,
                    "duration": 0.10373450000000162
                },
                {
                    "name": "A#3",
                    "midi": 58,
                    "time": 189.00425900000258,
                    "velocity": 0.30708661417322836,
                    "duration": 0.10373450000000162
                },
                {
                    "name": "C#4",
                    "midi": 61,
                    "time": 189.00425900000258,
                    "velocity": 0.36220472440944884,
                    "duration": 0.10373450000000162
                },
                {
                    "name": "A#3",
                    "midi": 58,
                    "time": 189.21172800000258,
                    "velocity": 0.3700787401574803,
                    "duration": 0.6224070000000097
                },
                {
                    "name": "E3",
                    "midi": 52,
                    "time": 189.21172800000258,
                    "velocity": 0.3700787401574803,
                    "duration": 0.41493800000000647
                },
                {
                    "name": "C#4",
                    "midi": 61,
                    "time": 189.21172800000258,
                    "velocity": 0.4409448818897638,
                    "duration": 0.41493800000000647
                },
                {
                    "name": "F3",
                    "midi": 53,
                    "time": 189.6266660000026,
                    "velocity": 0.33858267716535434,
                    "duration": 0.20746900000000323
                },
                {
                    "name": "D4",
                    "midi": 62,
                    "time": 189.6266660000026,
                    "velocity": 0.4094488188976378,
                    "duration": 0.20746900000000323
                },
                {
                    "name": "F3",
                    "midi": 53,
                    "time": 190.0416040000026,
                    "velocity": 0.41732283464566927,
                    "duration": 0.1383126666666783
                },
                {
                    "name": "G3",
                    "midi": 55,
                    "time": 190.17991666666927,
                    "velocity": 0.3779527559055118,
                    "duration": 0.1383126666666783
                },
                {
                    "name": "A3",
                    "midi": 57,
                    "time": 190.31822933333595,
                    "velocity": 0.3779527559055118,
                    "duration": 0.1383126666666783
                },
                {
                    "name": "B3",
                    "midi": 59,
                    "time": 190.45654200000263,
                    "velocity": 0.41732283464566927,
                    "duration": 0.1383126666666783
                },
                {
                    "name": "C4",
                    "midi": 60,
                    "time": 190.5948546666693,
                    "velocity": 0.3858267716535433,
                    "duration": 0.1383126666666783
                },
                {
                    "name": "D4",
                    "midi": 62,
                    "time": 190.73316733333598,
                    "velocity": 0.3779527559055118,
                    "duration": 0.1383126666666783
                },
                {
                    "name": "D#3",
                    "midi": 51,
                    "time": 190.87148000000266,
                    "velocity": 0.41732283464566927,
                    "duration": 0.20746900000000323
                },
                {
                    "name": "A#3",
                    "midi": 58,
                    "time": 191.07894900000267,
                    "velocity": 0.33070866141732286,
                    "duration": 0.15560174999998821
                },
                {
                    "name": "A#3",
                    "midi": 58,
                    "time": 191.28641800000264,
                    "velocity": 0.41732283464566927,
                    "duration": 0.20746900000000323
                },
                {
                    "name": "D4",
                    "midi": 62,
                    "time": 191.49388700000264,
                    "velocity": 0.3464566929133858,
                    "duration": 0.20746900000000323
                },
                {
                    "name": "A#1",
                    "midi": 34,
                    "time": 191.70135600000265,
                    "velocity": 0.28346456692913385,
                    "duration": 0.10373450000000162
                },
                {
                    "name": "A#2",
                    "midi": 46,
                    "time": 191.70135600000265,
                    "velocity": 0.33858267716535434,
                    "duration": 0.10373450000000162
                },
                {
                    "name": "A#1",
                    "midi": 34,
                    "time": 191.90882500000265,
                    "velocity": 0.25984251968503935,
                    "duration": 0.10373450000000162
                },
                {
                    "name": "A#2",
                    "midi": 46,
                    "time": 191.90882500000265,
                    "velocity": 0.30708661417322836,
                    "duration": 0.10373450000000162
                },
                {
                    "name": "A#1",
                    "midi": 34,
                    "time": 192.11629400000265,
                    "velocity": 0.28346456692913385,
                    "duration": 0.10373450000000162
                },
                {
                    "name": "A#2",
                    "midi": 46,
                    "time": 192.11629400000265,
                    "velocity": 0.33858267716535434,
                    "duration": 0.10373450000000162
                },
                {
                    "name": "A#1",
                    "midi": 34,
                    "time": 192.32376300000266,
                    "velocity": 0.25984251968503935,
                    "duration": 0.10373450000000162
                },
                {
                    "name": "A#2",
                    "midi": 46,
                    "time": 192.32376300000266,
                    "velocity": 0.30708661417322836,
                    "duration": 0.10373450000000162
                },
                {
                    "name": "A#1",
                    "midi": 34,
                    "time": 192.53123200000266,
                    "velocity": 0.30708661417322836,
                    "duration": 0.6224070000000097
                },
                {
                    "name": "A#2",
                    "midi": 46,
                    "time": 192.53123200000266,
                    "velocity": 0.3700787401574803,
                    "duration": 0.6224070000000097
                },
                {
                    "name": "F3",
                    "midi": 53,
                    "time": 193.36110800000267,
                    "velocity": 0.3543307086614173,
                    "duration": 0.1383126666666783
                },
                {
                    "name": "G3",
                    "midi": 55,
                    "time": 193.49942066666935,
                    "velocity": 0.31496062992125984,
                    "duration": 0.1383126666666783
                },
                {
                    "name": "A3",
                    "midi": 57,
                    "time": 193.63773333333603,
                    "velocity": 0.31496062992125984,
                    "duration": 0.1383126666666783
                },
                {
                    "name": "A#3",
                    "midi": 58,
                    "time": 193.7760460000027,
                    "velocity": 0.3543307086614173,
                    "duration": 0.1383126666666783
                },
                {
                    "name": "C4",
                    "midi": 60,
                    "time": 193.9143586666694,
                    "velocity": 0.3228346456692913,
                    "duration": 0.1383126666666783
                },
                {
                    "name": "D4",
                    "midi": 62,
                    "time": 194.05267133333606,
                    "velocity": 0.31496062992125984,
                    "duration": 0.1383126666666783
                },
                {
                    "name": "D#3",
                    "midi": 51,
                    "time": 194.19098400000274,
                    "velocity": 0.4330708661417323,
                    "duration": 0.20746900000000323
                },
                {
                    "name": "A#3",
                    "midi": 58,
                    "time": 194.39845300000275,
                    "velocity": 0.3228346456692913,
                    "duration": 0.15560174999998821
                },
                {
                    "name": "A#3",
                    "midi": 58,
                    "time": 194.60592200000272,
                    "velocity": 0.4015748031496063,
                    "duration": 0.20746900000000323
                },
                {
                    "name": "D4",
                    "midi": 62,
                    "time": 194.81339100000272,
                    "velocity": 0.31496062992125984,
                    "duration": 0.20746900000000323
                },
                {
                    "name": "A#1",
                    "midi": 34,
                    "time": 195.02086000000273,
                    "velocity": 0.28346456692913385,
                    "duration": 0.10373450000000162
                },
                {
                    "name": "A#2",
                    "midi": 46,
                    "time": 195.02086000000273,
                    "velocity": 0.33858267716535434,
                    "duration": 0.10373450000000162
                },
                {
                    "name": "A#1",
                    "midi": 34,
                    "time": 195.22832900000273,
                    "velocity": 0.25984251968503935,
                    "duration": 0.10373450000000162
                },
                {
                    "name": "A#2",
                    "midi": 46,
                    "time": 195.22832900000273,
                    "velocity": 0.30708661417322836,
                    "duration": 0.10373450000000162
                },
                {
                    "name": "A#1",
                    "midi": 34,
                    "time": 195.43579800000273,
                    "velocity": 0.28346456692913385,
                    "duration": 0.10373450000000162
                },
                {
                    "name": "A#2",
                    "midi": 46,
                    "time": 195.43579800000273,
                    "velocity": 0.33858267716535434,
                    "duration": 0.10373450000000162
                },
                {
                    "name": "A#1",
                    "midi": 34,
                    "time": 195.64326700000274,
                    "velocity": 0.25984251968503935,
                    "duration": 0.10373450000000162
                },
                {
                    "name": "A#2",
                    "midi": 46,
                    "time": 195.64326700000274,
                    "velocity": 0.30708661417322836,
                    "duration": 0.10373450000000162
                },
                {
                    "name": "A#1",
                    "midi": 34,
                    "time": 195.85073600000274,
                    "velocity": 0.30708661417322836,
                    "duration": 0.6224070000000097
                },
                {
                    "name": "A#2",
                    "midi": 46,
                    "time": 195.85073600000274,
                    "velocity": 0.3700787401574803,
                    "duration": 0.6224070000000097
                },
                {
                    "name": "F3",
                    "midi": 53,
                    "time": 196.68061200000275,
                    "velocity": 0.33858267716535434,
                    "duration": 0.1383126666666783
                },
                {
                    "name": "G3",
                    "midi": 55,
                    "time": 196.81892466666943,
                    "velocity": 0.33858267716535434,
                    "duration": 0.1383126666666783
                },
                {
                    "name": "A3",
                    "midi": 57,
                    "time": 196.9572373333361,
                    "velocity": 0.3464566929133858,
                    "duration": 0.1383126666666783
                },
                {
                    "name": "A#3",
                    "midi": 58,
                    "time": 197.0955500000028,
                    "velocity": 0.3543307086614173,
                    "duration": 0.1383126666666783
                },
                {
                    "name": "C4",
                    "midi": 60,
                    "time": 197.23386266666947,
                    "velocity": 0.36220472440944884,
                    "duration": 0.1383126666666783
                },
                {
                    "name": "D4",
                    "midi": 62,
                    "time": 197.37217533333614,
                    "velocity": 0.3700787401574803,
                    "duration": 0.1383126666666783
                },
                {
                    "name": "D#4",
                    "midi": 63,
                    "time": 197.51048800000282,
                    "velocity": 0.3779527559055118,
                    "duration": 0.1383126666666783
                },
                {
                    "name": "F4",
                    "midi": 65,
                    "time": 197.6488006666695,
                    "velocity": 0.3464566929133858,
                    "duration": 0.1383126666666783
                },
                {
                    "name": "G4",
                    "midi": 67,
                    "time": 197.78711333333618,
                    "velocity": 0.3464566929133858,
                    "duration": 0.1383126666666783
                },
                {
                    "name": "F4",
                    "midi": 65,
                    "time": 197.92542600000286,
                    "velocity": 0.4015748031496063,
                    "duration": 0.1383126666666783
                },
                {
                    "name": "D#4",
                    "midi": 63,
                    "time": 198.06373866666954,
                    "velocity": 0.3543307086614173,
                    "duration": 0.1383126666666783
                },
                {
                    "name": "D4",
                    "midi": 62,
                    "time": 198.20205133333621,
                    "velocity": 0.3543307086614173,
                    "duration": 0.1383126666666783
                },
                {
                    "name": "C#4",
                    "midi": 61,
                    "time": 198.3403640000029,
                    "velocity": 0.3779527559055118,
                    "duration": 0.1383126666666783
                },
                {
                    "name": "A#3",
                    "midi": 58,
                    "time": 198.47867666666957,
                    "velocity": 0.30708661417322836,
                    "duration": 0.1383126666666783
                },
                {
                    "name": "G3",
                    "midi": 55,
                    "time": 198.61698933333625,
                    "velocity": 0.30708661417322836,
                    "duration": 0.1383126666666783
                },
                {
                    "name": "E3",
                    "midi": 52,
                    "time": 198.75530200000293,
                    "velocity": 0.3228346456692913,
                    "duration": 0.1383126666666783
                },
                {
                    "name": "C#3",
                    "midi": 49,
                    "time": 198.8936146666696,
                    "velocity": 0.30708661417322836,
                    "duration": 0.1383126666666783
                },
                {
                    "name": "E3",
                    "midi": 52,
                    "time": 199.03192733333628,
                    "velocity": 0.31496062992125984,
                    "duration": 0.1383126666666783
                },
                {
                    "name": "F3",
                    "midi": 53,
                    "time": 199.17024000000296,
                    "velocity": 0.33070866141732286,
                    "duration": 0.1383126666666783
                },
                {
                    "name": "D3",
                    "midi": 50,
                    "time": 199.30855266666964,
                    "velocity": 0.2992125984251969,
                    "duration": 0.1383126666666783
                },
                {
                    "name": "F3",
                    "midi": 53,
                    "time": 199.44686533333632,
                    "velocity": 0.2992125984251969,
                    "duration": 0.1383126666666783
                },
                {
                    "name": "D3",
                    "midi": 50,
                    "time": 199.585178000003,
                    "velocity": 0.33070866141732286,
                    "duration": 0.1383126666666783
                },
                {
                    "name": "A#2",
                    "midi": 46,
                    "time": 199.72349066666968,
                    "velocity": 0.2992125984251969,
                    "duration": 0.1383126666666783
                },
                {
                    "name": "D3",
                    "midi": 50,
                    "time": 199.86180333333635,
                    "velocity": 0.2992125984251969,
                    "duration": 0.1383126666666783
                },
                {
                    "name": "F2",
                    "midi": 41,
                    "time": 200.00011600000303,
                    "velocity": 0.2992125984251969,
                    "duration": 0.1383126666666783
                },
                {
                    "name": "G2",
                    "midi": 43,
                    "time": 200.1384286666697,
                    "velocity": 0.30708661417322836,
                    "duration": 0.1383126666666783
                },
                {
                    "name": "A2",
                    "midi": 45,
                    "time": 200.2767413333364,
                    "velocity": 0.3228346456692913,
                    "duration": 0.1383126666666783
                },
                {
                    "name": "A#2",
                    "midi": 46,
                    "time": 200.41505400000307,
                    "velocity": 0.33858267716535434,
                    "duration": 0.1383126666666783
                },
                {
                    "name": "C3",
                    "midi": 48,
                    "time": 200.55336666666975,
                    "velocity": 0.3543307086614173,
                    "duration": 0.1383126666666783
                },
                {
                    "name": "D3",
                    "midi": 50,
                    "time": 200.69167933333642,
                    "velocity": 0.36220472440944884,
                    "duration": 0.1383126666666783
                },
                {
                    "name": "D#3",
                    "midi": 51,
                    "time": 200.8299920000031,
                    "velocity": 0.3779527559055118,
                    "duration": 0.1383126666666783
                },
                {
                    "name": "F3",
                    "midi": 53,
                    "time": 200.96830466666978,
                    "velocity": 0.3937007874015748,
                    "duration": 0.1383126666666783
                },
                {
                    "name": "G3",
                    "midi": 55,
                    "time": 201.10661733333646,
                    "velocity": 0.4015748031496063,
                    "duration": 0.1383126666666783
                },
                {
                    "name": "F3",
                    "midi": 53,
                    "time": 201.24493000000314,
                    "velocity": 0.41732283464566927,
                    "duration": 0.1383126666666783
                },
                {
                    "name": "D#3",
                    "midi": 51,
                    "time": 201.38324266666982,
                    "velocity": 0.3858267716535433,
                    "duration": 0.1383126666666783
                },
                {
                    "name": "D3",
                    "midi": 50,
                    "time": 201.5215553333365,
                    "velocity": 0.4015748031496063,
                    "duration": 0.1383126666666783
                },
                {
                    "name": "C#3",
                    "midi": 49,
                    "time": 201.65986800000317,
                    "velocity": 0.3779527559055118,
                    "duration": 0.1383126666666783
                },
                {
                    "name": "A#2",
                    "midi": 46,
                    "time": 201.79818066666985,
                    "velocity": 0.36220472440944884,
                    "duration": 0.1383126666666783
                },
                {
                    "name": "G2",
                    "midi": 43,
                    "time": 201.93649333333653,
                    "velocity": 0.3543307086614173,
                    "duration": 0.1383126666666783
                },
                {
                    "name": "E2",
                    "midi": 40,
                    "time": 202.0748060000032,
                    "velocity": 0.33858267716535434,
                    "duration": 0.1383126666666783
                },
                {
                    "name": "C#2",
                    "midi": 37,
                    "time": 202.21311866666989,
                    "velocity": 0.30708661417322836,
                    "duration": 0.1383126666666783
                },
                {
                    "name": "E2",
                    "midi": 40,
                    "time": 202.35143133333656,
                    "velocity": 0.28346456692913385,
                    "duration": 0.1383126666666783
                },
                {
                    "name": "G2",
                    "midi": 43,
                    "time": 202.48974400000324,
                    "velocity": 0.3937007874015748,
                    "duration": 0.1383126666666783
                },
                {
                    "name": "E2",
                    "midi": 40,
                    "time": 202.62805666666992,
                    "velocity": 0.28346456692913385,
                    "duration": 0.1383126666666783
                },
                {
                    "name": "G2",
                    "midi": 43,
                    "time": 202.7663693333366,
                    "velocity": 0.28346456692913385,
                    "duration": 0.1383126666666783
                },
                {
                    "name": "E2",
                    "midi": 40,
                    "time": 202.90468200000328,
                    "velocity": 0.29133858267716534,
                    "duration": 0.1383126666666783
                },
                {
                    "name": "C#2",
                    "midi": 37,
                    "time": 203.04299466666995,
                    "velocity": 0.29133858267716534,
                    "duration": 0.1383126666666783
                },
                {
                    "name": "E2",
                    "midi": 40,
                    "time": 203.18130733333663,
                    "velocity": 0.2992125984251969,
                    "duration": 0.1383126666666783
                },
                {
                    "name": "G#2",
                    "midi": 44,
                    "time": 203.3196200000033,
                    "velocity": 0.4094488188976378,
                    "duration": 0.1383126666666783
                },
                {
                    "name": "E2",
                    "midi": 40,
                    "time": 203.45793266667,
                    "velocity": 0.2992125984251969,
                    "duration": 0.1383126666666783
                },
                {
                    "name": "G#2",
                    "midi": 44,
                    "time": 203.59624533333667,
                    "velocity": 0.30708661417322836,
                    "duration": 0.1383126666666783
                },
                {
                    "name": "E2",
                    "midi": 40,
                    "time": 203.73455800000335,
                    "velocity": 0.30708661417322836,
                    "duration": 0.1383126666666783
                },
                {
                    "name": "C#2",
                    "midi": 37,
                    "time": 203.87287066667002,
                    "velocity": 0.31496062992125984,
                    "duration": 0.1383126666666783
                },
                {
                    "name": "E2",
                    "midi": 40,
                    "time": 204.0111833333367,
                    "velocity": 0.31496062992125984,
                    "duration": 0.1383126666666783
                },
                {
                    "name": "A2",
                    "midi": 45,
                    "time": 204.14949600000338,
                    "velocity": 0.4330708661417323,
                    "duration": 0.1383126666666783
                },
                {
                    "name": "E2",
                    "midi": 40,
                    "time": 204.28780866667006,
                    "velocity": 0.3228346456692913,
                    "duration": 0.1383126666666783
                },
                {
                    "name": "A2",
                    "midi": 45,
                    "time": 204.42612133333674,
                    "velocity": 0.33070866141732286,
                    "duration": 0.1383126666666783
                },
                {
                    "name": "E2",
                    "midi": 40,
                    "time": 204.56443400000342,
                    "velocity": 0.33070866141732286,
                    "duration": 0.1383126666666783
                },
                {
                    "name": "C#2",
                    "midi": 37,
                    "time": 204.7027466666701,
                    "velocity": 0.33858267716535434,
                    "duration": 0.1383126666666783
                },
                {
                    "name": "E2",
                    "midi": 40,
                    "time": 204.84105933333677,
                    "velocity": 0.33858267716535434,
                    "duration": 0.1383126666666783
                },
                {
                    "name": "A2",
                    "midi": 45,
                    "time": 204.97937200000345,
                    "velocity": 0.44881889763779526,
                    "duration": 0.1383126666666783
                },
                {
                    "name": "E2",
                    "midi": 40,
                    "time": 205.11768466667013,
                    "velocity": 0.3464566929133858,
                    "duration": 0.1383126666666783
                },
                {
                    "name": "A2",
                    "midi": 45,
                    "time": 205.2559973333368,
                    "velocity": 0.3543307086614173,
                    "duration": 0.1383126666666783
                },
                {
                    "name": "E2",
                    "midi": 40,
                    "time": 205.3943100000035,
                    "velocity": 0.3543307086614173,
                    "duration": 0.1383126666666783
                },
                {
                    "name": "C2",
                    "midi": 36,
                    "time": 205.53262266667016,
                    "velocity": 0.3543307086614173,
                    "duration": 0.1383126666666783
                },
                {
                    "name": "E2",
                    "midi": 40,
                    "time": 205.67093533333684,
                    "velocity": 0.36220472440944884,
                    "duration": 0.1383126666666783
                },
                {
                    "name": "B1",
                    "midi": 35,
                    "time": 205.80924800000352,
                    "velocity": 0.4881889763779528,
                    "duration": 0.1383126666666783
                },
                {
                    "name": "F2",
                    "midi": 41,
                    "time": 205.9475606666702,
                    "velocity": 0.3937007874015748,
                    "duration": 0.1383126666666783
                },
                {
                    "name": "B1",
                    "midi": 35,
                    "time": 206.08587333333688,
                    "velocity": 0.4015748031496063,
                    "duration": 0.1383126666666783
                },
                {
                    "name": "F2",
                    "midi": 41,
                    "time": 206.22418600000356,
                    "velocity": 0.4094488188976378,
                    "duration": 0.1383126666666783
                },
                {
                    "name": "B2",
                    "midi": 47,
                    "time": 206.36249866667023,
                    "velocity": 0.41732283464566927,
                    "duration": 0.1383126666666783
                },
                {
                    "name": "F2",
                    "midi": 41,
                    "time": 206.5008113333369,
                    "velocity": 0.4251968503937008,
                    "duration": 0.1383126666666783
                },
                {
                    "name": "A#1",
                    "midi": 34,
                    "time": 206.6391240000036,
                    "velocity": 0.5433070866141733,
                    "duration": 0.1383126666666783
                },
                {
                    "name": "F2",
                    "midi": 41,
                    "time": 206.77743666667027,
                    "velocity": 0.4409448818897638,
                    "duration": 0.1383126666666783
                },
                {
                    "name": "A#1",
                    "midi": 34,
                    "time": 206.91574933333695,
                    "velocity": 0.4566929133858268,
                    "duration": 0.1383126666666783
                },
                {
                    "name": "F2",
                    "midi": 41,
                    "time": 207.05406200000363,
                    "velocity": 0.4645669291338583,
                    "duration": 0.1383126666666783
                },
                {
                    "name": "A#2",
                    "midi": 46,
                    "time": 207.1923746666703,
                    "velocity": 0.48031496062992124,
                    "duration": 0.1383126666666783
                },
                {
                    "name": "A#1",
                    "midi": 34,
                    "time": 207.33068733333698,
                    "velocity": 0.4881889763779528,
                    "duration": 0.1383126666666783
                },
                {
                    "name": "A1",
                    "midi": 33,
                    "time": 207.46900000000366,
                    "velocity": 0.5748031496062992,
                    "duration": 0.8298760000000129
                },
                {
                    "name": "A2",
                    "midi": 45,
                    "time": 207.46900000000366,
                    "velocity": 0.6771653543307087,
                    "duration": 0.8298760000000129
                },
                {
                    "name": "A3",
                    "midi": 57,
                    "time": 208.29887600000367,
                    "velocity": 0.33858267716535434,
                    "duration": 0.15560174999998821
                },
                {
                    "name": "F#4",
                    "midi": 66,
                    "time": 208.29887600000367,
                    "velocity": 0.4015748031496063,
                    "duration": 0.15560174999998821
                },
                {
                    "name": "A3",
                    "midi": 57,
                    "time": 208.50634500000365,
                    "velocity": 0.30708661417322836,
                    "duration": 0.15560174999998821
                },
                {
                    "name": "F#4",
                    "midi": 66,
                    "time": 208.50634500000365,
                    "velocity": 0.36220472440944884,
                    "duration": 0.15560174999998821
                },
                {
                    "name": "A3",
                    "midi": 57,
                    "time": 208.71381400000362,
                    "velocity": 0.33858267716535434,
                    "duration": 0.15560174999998821
                },
                {
                    "name": "F#4",
                    "midi": 66,
                    "time": 208.71381400000362,
                    "velocity": 0.4015748031496063,
                    "duration": 0.15560174999998821
                },
                {
                    "name": "A3",
                    "midi": 57,
                    "time": 208.9212830000036,
                    "velocity": 0.30708661417322836,
                    "duration": 0.15560174999998821
                },
                {
                    "name": "F#4",
                    "midi": 66,
                    "time": 208.9212830000036,
                    "velocity": 0.36220472440944884,
                    "duration": 0.15560174999998821
                },
                {
                    "name": "A3",
                    "midi": 57,
                    "time": 209.12875200000357,
                    "velocity": 0.3700787401574803,
                    "duration": 0.6224070000000097
                },
                {
                    "name": "A4",
                    "midi": 69,
                    "time": 209.12875200000357,
                    "velocity": 0.4409448818897638,
                    "duration": 0.41493800000000647
                },
                {
                    "name": "E4",
                    "midi": 64,
                    "time": 209.54369000000358,
                    "velocity": 0.29133858267716534,
                    "duration": 0.20746900000000323
                },
                {
                    "name": "C#2",
                    "midi": 37,
                    "time": 209.75115900000358,
                    "velocity": 0.3858267716535433,
                    "duration": 0.20746900000000323
                },
                {
                    "name": "D2",
                    "midi": 38,
                    "time": 209.95862800000359,
                    "velocity": 0.41732283464566927,
                    "duration": 0.1383126666666783
                },
                {
                    "name": "C#2",
                    "midi": 37,
                    "time": 210.09694066667026,
                    "velocity": 0.3858267716535433,
                    "duration": 0.1383126666666783
                },
                {
                    "name": "B1",
                    "midi": 35,
                    "time": 210.23525333333694,
                    "velocity": 0.41732283464566927,
                    "duration": 0.1383126666666783
                },
                {
                    "name": "F2",
                    "midi": 41,
                    "time": 210.37356600000362,
                    "velocity": 0.4409448818897638,
                    "duration": 0.1383126666666783
                },
                {
                    "name": "E2",
                    "midi": 40,
                    "time": 210.5118786666703,
                    "velocity": 0.4015748031496063,
                    "duration": 0.1383126666666783
                },
                {
                    "name": "D2",
                    "midi": 38,
                    "time": 210.65019133333698,
                    "velocity": 0.2992125984251969,
                    "duration": 0.1383126666666783
                },
                {
                    "name": "E2",
                    "midi": 40,
                    "time": 210.78850400000366,
                    "velocity": 0.33858267716535434,
                    "duration": 0.20746900000000323
                },
                {
                    "name": "C#3",
                    "midi": 49,
                    "time": 210.78850400000366,
                    "velocity": 0.3700787401574803,
                    "duration": 0.1383126666666783
                },
                {
                    "name": "D3",
                    "midi": 50,
                    "time": 210.92681666667033,
                    "velocity": 0.3228346456692913,
                    "duration": 0.13831266666664987
                },
                {
                    "name": "E3",
                    "midi": 52,
                    "time": 211.06512933333698,
                    "velocity": 0.3228346456692913,
                    "duration": 0.1383126666666783
                },
                {
                    "name": "F#3",
                    "midi": 54,
                    "time": 211.20344200000366,
                    "velocity": 0.3700787401574803,
                    "duration": 0.1383126666666783
                },
                {
                    "name": "G#3",
                    "midi": 56,
                    "time": 211.34175466667034,
                    "velocity": 0.33070866141732286,
                    "duration": 0.1383126666666783
                },
                {
                    "name": "A3",
                    "midi": 57,
                    "time": 211.48006733333702,
                    "velocity": 0.33070866141732286,
                    "duration": 0.1383126666666783
                },
                {
                    "name": "E3",
                    "midi": 52,
                    "time": 211.89500533333702,
                    "velocity": 0.3464566929133858,
                    "duration": 0.1383126666666783
                },
                {
                    "name": "D3",
                    "midi": 50,
                    "time": 212.0333180000037,
                    "velocity": 0.3937007874015748,
                    "duration": 0.1383126666666783
                },
                {
                    "name": "C#3",
                    "midi": 49,
                    "time": 212.17163066667038,
                    "velocity": 0.41732283464566927,
                    "duration": 0.1383126666666783
                },
                {
                    "name": "B2",
                    "midi": 47,
                    "time": 212.30994333333706,
                    "velocity": 0.4409448818897638,
                    "duration": 0.1383126666666783
                },
                {
                    "name": "A1",
                    "midi": 33,
                    "time": 212.44825600000374,
                    "velocity": 0.5118110236220472,
                    "duration": 0.8298760000000129
                },
                {
                    "name": "A2",
                    "midi": 45,
                    "time": 212.44825600000374,
                    "velocity": 0.6062992125984252,
                    "duration": 0.8298760000000129
                },
                {
                    "name": "A3",
                    "midi": 57,
                    "time": 213.27813200000375,
                    "velocity": 0.33858267716535434,
                    "duration": 0.28526987500001155
                },
                {
                    "name": "F#4",
                    "midi": 66,
                    "time": 213.27813200000375,
                    "velocity": 0.4015748031496063,
                    "duration": 0.28526987500001155
                },
                {
                    "name": "A3",
                    "midi": 57,
                    "time": 213.58933550000376,
                    "velocity": 0.30708661417322836,
                    "duration": 0.07780087500000832
                },
                {
                    "name": "F#4",
                    "midi": 66,
                    "time": 213.58933550000376,
                    "velocity": 0.36220472440944884,
                    "duration": 0.07780087500000832
                },
                {
                    "name": "A3",
                    "midi": 57,
                    "time": 213.69307000000376,
                    "velocity": 0.33858267716535434,
                    "duration": 0.28526987500001155
                },
                {
                    "name": "F#4",
                    "midi": 66,
                    "time": 213.69307000000376,
                    "velocity": 0.4015748031496063,
                    "duration": 0.28526987500001155
                },
                {
                    "name": "A3",
                    "midi": 57,
                    "time": 214.00427350000376,
                    "velocity": 0.30708661417322836,
                    "duration": 0.07780087500000832
                },
                {
                    "name": "F#4",
                    "midi": 66,
                    "time": 214.00427350000376,
                    "velocity": 0.36220472440944884,
                    "duration": 0.07780087500000832
                },
                {
                    "name": "A3",
                    "midi": 57,
                    "time": 214.10800800000376,
                    "velocity": 0.3700787401574803,
                    "duration": 0.6224070000000097
                },
                {
                    "name": "A4",
                    "midi": 69,
                    "time": 214.10800800000376,
                    "velocity": 0.4409448818897638,
                    "duration": 0.41493800000000647
                },
                {
                    "name": "E4",
                    "midi": 64,
                    "time": 214.52294600000377,
                    "velocity": 0.29133858267716534,
                    "duration": 0.20746900000000323
                },
                {
                    "name": "C#2",
                    "midi": 37,
                    "time": 214.73041500000377,
                    "velocity": 0.3858267716535433,
                    "duration": 0.20746900000000323
                },
                {
                    "name": "D2",
                    "midi": 38,
                    "time": 214.93788400000378,
                    "velocity": 0.41732283464566927,
                    "duration": 0.1383126666666783
                },
                {
                    "name": "C#2",
                    "midi": 37,
                    "time": 215.07619666667046,
                    "velocity": 0.3858267716535433,
                    "duration": 0.1383126666666783
                },
                {
                    "name": "B1",
                    "midi": 35,
                    "time": 215.21450933333713,
                    "velocity": 0.41732283464566927,
                    "duration": 0.1383126666666783
                },
                {
                    "name": "F2",
                    "midi": 41,
                    "time": 215.3528220000038,
                    "velocity": 0.4409448818897638,
                    "duration": 0.1383126666666783
                },
                {
                    "name": "E2",
                    "midi": 40,
                    "time": 215.4911346666705,
                    "velocity": 0.4015748031496063,
                    "duration": 0.1383126666666783
                },
                {
                    "name": "D2",
                    "midi": 38,
                    "time": 215.62944733333717,
                    "velocity": 0.2992125984251969,
                    "duration": 0.1383126666666783
                },
                {
                    "name": "E2",
                    "midi": 40,
                    "time": 215.76776000000385,
                    "velocity": 0.33858267716535434,
                    "duration": 0.20746900000000323
                },
                {
                    "name": "C#3",
                    "midi": 49,
                    "time": 215.76776000000385,
                    "velocity": 0.3700787401574803,
                    "duration": 0.1383126666666783
                },
                {
                    "name": "D3",
                    "midi": 50,
                    "time": 215.90607266667052,
                    "velocity": 0.3228346456692913,
                    "duration": 0.13831266666664987
                },
                {
                    "name": "E3",
                    "midi": 52,
                    "time": 216.04438533333717,
                    "velocity": 0.3228346456692913,
                    "duration": 0.1383126666666783
                },
                {
                    "name": "F#3",
                    "midi": 54,
                    "time": 216.18269800000385,
                    "velocity": 0.3700787401574803,
                    "duration": 0.1383126666666783
                },
                {
                    "name": "G#3",
                    "midi": 56,
                    "time": 216.32101066667053,
                    "velocity": 0.33070866141732286,
                    "duration": 0.1383126666666783
                },
                {
                    "name": "A3",
                    "midi": 57,
                    "time": 216.4593233333372,
                    "velocity": 0.33070866141732286,
                    "duration": 0.1383126666666783
                },
                {
                    "name": "E3",
                    "midi": 52,
                    "time": 216.87426133333722,
                    "velocity": 0.3464566929133858,
                    "duration": 0.1383126666666783
                },
                {
                    "name": "D3",
                    "midi": 50,
                    "time": 217.0125740000039,
                    "velocity": 0.3937007874015748,
                    "duration": 0.1383126666666783
                },
                {
                    "name": "C#3",
                    "midi": 49,
                    "time": 217.15088666667057,
                    "velocity": 0.41732283464566927,
                    "duration": 0.1383126666666783
                },
                {
                    "name": "B2",
                    "midi": 47,
                    "time": 217.28919933333725,
                    "velocity": 0.4409448818897638,
                    "duration": 0.1383126666666783
                },
                {
                    "name": "A2",
                    "midi": 45,
                    "time": 217.42751200000393,
                    "velocity": 0.3937007874015748,
                    "duration": 0.20746900000000323
                },
                {
                    "name": "A3",
                    "midi": 57,
                    "time": 220.74701600000392,
                    "velocity": 0.3228346456692913,
                    "duration": 0.41493800000000647
                },
                {
                    "name": "C#3",
                    "midi": 49,
                    "time": 221.16195400000393,
                    "velocity": 0.2755905511811024,
                    "duration": 0.10373450000000162
                },
                {
                    "name": "B3",
                    "midi": 59,
                    "time": 221.57689200000394,
                    "velocity": 0.3228346456692913,
                    "duration": 0.41493800000000647
                },
                {
                    "name": "E3",
                    "midi": 52,
                    "time": 221.99183000000394,
                    "velocity": 0.2755905511811024,
                    "duration": 0.10373450000000162
                },
                {
                    "name": "E3",
                    "midi": 52,
                    "time": 222.35490075000394,
                    "velocity": 0.25984251968503935,
                    "duration": 0.0518672499999866
                },
                {
                    "name": "C#4",
                    "midi": 61,
                    "time": 222.40676800000392,
                    "velocity": 0.3228346456692913,
                    "duration": 0.41493800000000647
                },
                {
                    "name": "A3",
                    "midi": 57,
                    "time": 222.82170600000393,
                    "velocity": 0.2677165354330709,
                    "duration": 0.10373450000000162
                },
                {
                    "name": "A3",
                    "midi": 57,
                    "time": 223.18477675000392,
                    "velocity": 0.25984251968503935,
                    "duration": 0.0518672499999866
                },
                {
                    "name": "F#4",
                    "midi": 66,
                    "time": 223.2366440000039,
                    "velocity": 0.3543307086614173,
                    "duration": 0.31120350000000485
                },
                {
                    "name": "D#4",
                    "midi": 63,
                    "time": 223.5478475000039,
                    "velocity": 0.28346456692913385,
                    "duration": 0.10373450000000162
                },
                {
                    "name": "F#4",
                    "midi": 66,
                    "time": 223.6515820000039,
                    "velocity": 0.33858267716535434,
                    "duration": 0.31120350000000485
                },
                {
                    "name": "D#4",
                    "midi": 63,
                    "time": 223.96278550000392,
                    "velocity": 0.2755905511811024,
                    "duration": 0.10373450000000162
                },
                {
                    "name": "E4",
                    "midi": 64,
                    "time": 224.06652000000392,
                    "velocity": 0.3228346456692913,
                    "duration": 0.4123446375000128
                },
                {
                    "name": "E3",
                    "midi": 52,
                    "time": 224.4849158166706,
                    "velocity": 0.2755905511811024,
                    "duration": 0.10373450000000162
                },
                {
                    "name": "E3",
                    "midi": 52,
                    "time": 224.84452875000392,
                    "velocity": 0.25984251968503935,
                    "duration": 0.0518672499999866
                },
                {
                    "name": "D4",
                    "midi": 62,
                    "time": 224.8963960000039,
                    "velocity": 0.3228346456692913,
                    "duration": 0.41493800000000647
                },
                {
                    "name": "B3",
                    "midi": 59,
                    "time": 225.3113340000039,
                    "velocity": 0.2755905511811024,
                    "duration": 0.10373450000000162
                },
                {
                    "name": "B3",
                    "midi": 59,
                    "time": 225.6744047500039,
                    "velocity": 0.25984251968503935,
                    "duration": 0.0518672499999866
                },
                {
                    "name": "C#4",
                    "midi": 61,
                    "time": 225.7262720000039,
                    "velocity": 0.3228346456692913,
                    "duration": 0.41493800000000647
                },
                {
                    "name": "E3",
                    "midi": 52,
                    "time": 226.1412100000039,
                    "velocity": 0.2677165354330709,
                    "duration": 0.10373450000000162
                },
                {
                    "name": "E3",
                    "midi": 52,
                    "time": 226.5042807500039,
                    "velocity": 0.25984251968503935,
                    "duration": 0.0518672499999866
                },
                {
                    "name": "B3",
                    "midi": 59,
                    "time": 226.55614800000387,
                    "velocity": 0.3543307086614173,
                    "duration": 0.31120350000000485
                },
                {
                    "name": "G#3",
                    "midi": 56,
                    "time": 226.86735150000388,
                    "velocity": 0.28346456692913385,
                    "duration": 0.10373450000000162
                },
                {
                    "name": "B3",
                    "midi": 59,
                    "time": 226.97108600000388,
                    "velocity": 0.33858267716535434,
                    "duration": 0.31120350000000485
                },
                {
                    "name": "G#3",
                    "midi": 56,
                    "time": 227.28228950000388,
                    "velocity": 0.2755905511811024,
                    "duration": 0.10373450000000162
                },
                {
                    "name": "A3",
                    "midi": 57,
                    "time": 227.38602400000389,
                    "velocity": 0.3228346456692913,
                    "duration": 0.41493800000000647
                },
                {
                    "name": "C#3",
                    "midi": 49,
                    "time": 227.38602400000389,
                    "velocity": 0.3228346456692913,
                    "duration": 0.41493800000000647
                },
                {
                    "name": "E3",
                    "midi": 52,
                    "time": 227.80441981667056,
                    "velocity": 0.2755905511811024,
                    "duration": 0.10373450000000162
                },
                {
                    "name": "G#3",
                    "midi": 56,
                    "time": 228.2159000000039,
                    "velocity": 0.3228346456692913,
                    "duration": 0.41493800000000647
                },
                {
                    "name": "B3",
                    "midi": 59,
                    "time": 228.2159000000039,
                    "velocity": 0.3228346456692913,
                    "duration": 0.41493800000000647
                },
                {
                    "name": "E3",
                    "midi": 52,
                    "time": 228.63429581667057,
                    "velocity": 0.2755905511811024,
                    "duration": 0.10373450000000162
                },
                {
                    "name": "E3",
                    "midi": 52,
                    "time": 229.0457760000039,
                    "velocity": 0.3228346456692913,
                    "duration": 0.41493800000000647
                },
                {
                    "name": "C#4",
                    "midi": 61,
                    "time": 229.0457760000039,
                    "velocity": 0.3228346456692913,
                    "duration": 0.41493800000000647
                },
                {
                    "name": "A3",
                    "midi": 57,
                    "time": 229.46071400000392,
                    "velocity": 0.2755905511811024,
                    "duration": 0.10373450000000162
                },
                {
                    "name": "D#4",
                    "midi": 63,
                    "time": 229.87565200000392,
                    "velocity": 0.3543307086614173,
                    "duration": 0.31120350000000485
                },
                {
                    "name": "C4",
                    "midi": 60,
                    "time": 229.87565200000392,
                    "velocity": 0.2992125984251969,
                    "duration": 0.31120350000000485
                },
                {
                    "name": "A3",
                    "midi": 57,
                    "time": 230.18685550000393,
                    "velocity": 0.28346456692913385,
                    "duration": 0.10373450000000162
                },
                {
                    "name": "D#4",
                    "midi": 63,
                    "time": 230.29059000000393,
                    "velocity": 0.33858267716535434,
                    "duration": 0.31120350000000485
                },
                {
                    "name": "C4",
                    "midi": 60,
                    "time": 230.29059000000393,
                    "velocity": 0.28346456692913385,
                    "duration": 0.31120350000000485
                },
                {
                    "name": "A3",
                    "midi": 57,
                    "time": 230.60179350000394,
                    "velocity": 0.2755905511811024,
                    "duration": 0.10373450000000162
                },
                {
                    "name": "C#4",
                    "midi": 61,
                    "time": 230.70552800000394,
                    "velocity": 0.3228346456692913,
                    "duration": 0.41493800000000647
                },
                {
                    "name": "E4",
                    "midi": 64,
                    "time": 230.70552800000394,
                    "velocity": 0.3228346456692913,
                    "duration": 0.4123446375000128
                },
                {
                    "name": "E3",
                    "midi": 52,
                    "time": 231.1239238166706,
                    "velocity": 0.2755905511811024,
                    "duration": 0.10373450000000162
                },
                {
                    "name": "B3",
                    "midi": 59,
                    "time": 231.53540400000395,
                    "velocity": 0.3228346456692913,
                    "duration": 0.41493800000000647
                },
                {
                    "name": "D4",
                    "midi": 62,
                    "time": 231.53540400000395,
                    "velocity": 0.3228346456692913,
                    "duration": 0.41493800000000647
                },
                {
                    "name": "E3",
                    "midi": 52,
                    "time": 231.95379981667062,
                    "velocity": 0.2755905511811024,
                    "duration": 0.10373450000000162
                },
                {
                    "name": "C#4",
                    "midi": 61,
                    "time": 232.36528000000396,
                    "velocity": 0.3228346456692913,
                    "duration": 0.41493800000000647
                },
                {
                    "name": "A3",
                    "midi": 57,
                    "time": 232.36528000000396,
                    "velocity": 0.3228346456692913,
                    "duration": 0.41493800000000647
                },
                {
                    "name": "E3",
                    "midi": 52,
                    "time": 232.78021800000397,
                    "velocity": 0.2755905511811024,
                    "duration": 0.10373450000000162
                },
                {
                    "name": "G#3",
                    "midi": 56,
                    "time": 233.19515600000398,
                    "velocity": 0.2992125984251969,
                    "duration": 0.31120350000000485
                },
                {
                    "name": "B3",
                    "midi": 59,
                    "time": 233.19515600000398,
                    "velocity": 0.3543307086614173,
                    "duration": 0.31120350000000485
                },
                {
                    "name": "E3",
                    "midi": 52,
                    "time": 233.50635950000398,
                    "velocity": 0.28346456692913385,
                    "duration": 0.10373450000000162
                },
                {
                    "name": "G#3",
                    "midi": 56,
                    "time": 233.61009400000398,
                    "velocity": 0.28346456692913385,
                    "duration": 0.31120350000000485
                },
                {
                    "name": "B3",
                    "midi": 59,
                    "time": 233.61009400000398,
                    "velocity": 0.33858267716535434,
                    "duration": 0.31120350000000485
                },
                {
                    "name": "E3",
                    "midi": 52,
                    "time": 233.921297500004,
                    "velocity": 0.2755905511811024,
                    "duration": 0.10373450000000162
                },
                {
                    "name": "B3",
                    "midi": 59,
                    "time": 234.025032000004,
                    "velocity": 0.5433070866141733,
                    "duration": 0.1383126666666783
                },
                {
                    "name": "D3",
                    "midi": 50,
                    "time": 234.16334466667067,
                    "velocity": 0.41732283464566927,
                    "duration": 0.1383126666666783
                },
                {
                    "name": "B3",
                    "midi": 59,
                    "time": 234.30165733333735,
                    "velocity": 0.41732283464566927,
                    "duration": 0.1383126666666783
                },
                {
                    "name": "G2",
                    "midi": 43,
                    "time": 234.43997000000402,
                    "velocity": 0.5590551181102362,
                    "duration": 0.7261415000000113
                },
                {
                    "name": "D3",
                    "midi": 50,
                    "time": 235.16611150000404,
                    "velocity": 0.3779527559055118,
                    "duration": 0.10373450000000162
                },
                {
                    "name": "B3",
                    "midi": 59,
                    "time": 235.16611150000404,
                    "velocity": 0.3779527559055118,
                    "duration": 0.10373450000000162
                },
                {
                    "name": "G2",
                    "midi": 43,
                    "time": 235.26984600000404,
                    "velocity": 0.4881889763779528,
                    "duration": 0.31120350000000485
                },
                {
                    "name": "D3",
                    "midi": 50,
                    "time": 235.58104950000404,
                    "velocity": 0.41732283464566927,
                    "duration": 0.10373450000000162
                },
                {
                    "name": "B3",
                    "midi": 59,
                    "time": 235.68478400000404,
                    "velocity": 0.5590551181102362,
                    "duration": 0.1383126666666783
                },
                {
                    "name": "D3",
                    "midi": 50,
                    "time": 235.82309666667072,
                    "velocity": 0.41732283464566927,
                    "duration": 0.1383126666666783
                },
                {
                    "name": "B3",
                    "midi": 59,
                    "time": 235.9614093333374,
                    "velocity": 0.41732283464566927,
                    "duration": 0.1383126666666783
                },
                {
                    "name": "G2",
                    "midi": 43,
                    "time": 236.09972200000408,
                    "velocity": 0.5354330708661418,
                    "duration": 0.7261415000000113
                },
                {
                    "name": "B3",
                    "midi": 59,
                    "time": 236.8258635000041,
                    "velocity": 0.3779527559055118,
                    "duration": 0.10373450000000162
                },
                {
                    "name": "D3",
                    "midi": 50,
                    "time": 236.8258635000041,
                    "velocity": 0.3779527559055118,
                    "duration": 0.10373450000000162
                },
                {
                    "name": "G2",
                    "midi": 43,
                    "time": 236.9295980000041,
                    "velocity": 0.4881889763779528,
                    "duration": 0.7261415000000113
                },
                {
                    "name": "B3",
                    "midi": 59,
                    "time": 237.6557395000041,
                    "velocity": 0.41732283464566927,
                    "duration": 0.10373450000000162
                },
                {
                    "name": "D3",
                    "midi": 50,
                    "time": 237.6557395000041,
                    "velocity": 0.3543307086614173,
                    "duration": 0.10373450000000162
                },
                {
                    "name": "G2",
                    "midi": 43,
                    "time": 237.7594740000041,
                    "velocity": 0.4881889763779528,
                    "duration": 0.7261415000000113
                },
                {
                    "name": "B3",
                    "midi": 59,
                    "time": 238.48561550000412,
                    "velocity": 0.41732283464566927,
                    "duration": 0.10373450000000162
                },
                {
                    "name": "D3",
                    "midi": 50,
                    "time": 238.48561550000412,
                    "velocity": 0.3543307086614173,
                    "duration": 0.10373450000000162
                },
                {
                    "name": "G2",
                    "midi": 43,
                    "time": 238.58935000000412,
                    "velocity": 0.4881889763779528,
                    "duration": 0.31120350000000485
                },
                {
                    "name": "G3",
                    "midi": 55,
                    "time": 238.90055350000412,
                    "velocity": 0.41732283464566927,
                    "duration": 0.10373450000000162
                },
                {
                    "name": "C3",
                    "midi": 48,
                    "time": 239.00428800000412,
                    "velocity": 0.5590551181102362,
                    "duration": 0.1383126666666783
                },
                {
                    "name": "G3",
                    "midi": 55,
                    "time": 239.1426006666708,
                    "velocity": 0.41732283464566927,
                    "duration": 0.1383126666666783
                },
                {
                    "name": "C3",
                    "midi": 48,
                    "time": 239.28091333333748,
                    "velocity": 0.41732283464566927,
                    "duration": 0.1383126666666783
                },
                {
                    "name": "C2",
                    "midi": 36,
                    "time": 239.41922600000416,
                    "velocity": 0.5433070866141733,
                    "duration": 0.7261415000000113
                },
                {
                    "name": "G3",
                    "midi": 55,
                    "time": 240.14536750000417,
                    "velocity": 0.3779527559055118,
                    "duration": 0.10373450000000162
                },
                {
                    "name": "C3",
                    "midi": 48,
                    "time": 240.14536750000417,
                    "velocity": 0.3779527559055118,
                    "duration": 0.10373450000000162
                },
                {
                    "name": "C2",
                    "midi": 36,
                    "time": 240.24910200000417,
                    "velocity": 0.4881889763779528,
                    "duration": 0.31120350000000485
                },
                {
                    "name": "G3",
                    "midi": 55,
                    "time": 240.56030550000418,
                    "velocity": 0.41732283464566927,
                    "duration": 0.10373450000000162
                },
                {
                    "name": "C3",
                    "midi": 48,
                    "time": 240.66404000000418,
                    "velocity": 0.4881889763779528,
                    "duration": 0.1383126666666783
                },
                {
                    "name": "G3",
                    "midi": 55,
                    "time": 240.80235266667086,
                    "velocity": 0.41732283464566927,
                    "duration": 0.1383126666666783
                },
                {
                    "name": "C3",
                    "midi": 48,
                    "time": 240.94066533333753,
                    "velocity": 0.41732283464566927,
                    "duration": 0.1383126666666783
                },
                {
                    "name": "C2",
                    "midi": 36,
                    "time": 241.0789780000042,
                    "velocity": 0.4881889763779528,
                    "duration": 0.7261415000000113
                },
                {
                    "name": "G3",
                    "midi": 55,
                    "time": 241.80511950000422,
                    "velocity": 0.3779527559055118,
                    "duration": 0.10373450000000162
                },
                {
                    "name": "C3",
                    "midi": 48,
                    "time": 241.80511950000422,
                    "velocity": 0.3779527559055118,
                    "duration": 0.10373450000000162
                },
                {
                    "name": "C2",
                    "midi": 36,
                    "time": 241.90885400000423,
                    "velocity": 0.4881889763779528,
                    "duration": 0.7261415000000113
                },
                {
                    "name": "C3",
                    "midi": 48,
                    "time": 242.63499550000424,
                    "velocity": 0.3543307086614173,
                    "duration": 0.10373450000000162
                },
                {
                    "name": "G3",
                    "midi": 55,
                    "time": 242.63499550000424,
                    "velocity": 0.41732283464566927,
                    "duration": 0.10373450000000162
                },
                {
                    "name": "C2",
                    "midi": 36,
                    "time": 242.73873000000424,
                    "velocity": 0.4881889763779528,
                    "duration": 0.7261415000000113
                },
                {
                    "name": "E2",
                    "midi": 40,
                    "time": 243.46487150000425,
                    "velocity": 0.3228346456692913,
                    "duration": 0.10373450000000162
                },
                {
                    "name": "B1",
                    "midi": 35,
                    "time": 243.56860600000425,
                    "velocity": 0.3543307086614173,
                    "duration": 0.7261415000000113
                },
                {
                    "name": "E2",
                    "midi": 40,
                    "time": 244.29474750000426,
                    "velocity": 0.25984251968503935,
                    "duration": 0.10373450000000162
                },
                {
                    "name": "B1",
                    "midi": 35,
                    "time": 244.39848200000426,
                    "velocity": 0.29133858267716534,
                    "duration": 0.31120350000000485
                },
                {
                    "name": "E2",
                    "midi": 40,
                    "time": 244.70968550000427,
                    "velocity": 0.25196850393700787,
                    "duration": 0.10373450000000162
                },
                {
                    "name": "B1",
                    "midi": 35,
                    "time": 244.81342000000427,
                    "velocity": 0.2677165354330709,
                    "duration": 0.31120350000000485
                },
                {
                    "name": "E2",
                    "midi": 40,
                    "time": 245.12462350000428,
                    "velocity": 0.2283464566929134,
                    "duration": 0.10373450000000162
                },
                {
                    "name": "B1",
                    "midi": 35,
                    "time": 245.22835800000428,
                    "velocity": 0.2440944881889764,
                    "duration": 0.31120350000000485
                },
                {
                    "name": "E2",
                    "midi": 40,
                    "time": 245.53956150000428,
                    "velocity": 0.2125984251968504,
                    "duration": 0.10373450000000162
                },
                {
                    "name": "A1",
                    "midi": 33,
                    "time": 245.64329600000428,
                    "velocity": 0.2440944881889764,
                    "duration": 0.10373450000000162
                },
                {
                    "name": "A3",
                    "midi": 57,
                    "time": 246.61148466667095,
                    "velocity": 0.2992125984251969,
                    "duration": 0.1383126666666783
                },
                {
                    "name": "C#4",
                    "midi": 61,
                    "time": 246.74979733333763,
                    "velocity": 0.31496062992125984,
                    "duration": 0.1383126666666783
                },
                {
                    "name": "E4",
                    "midi": 64,
                    "time": 246.8881100000043,
                    "velocity": 0.33070866141732286,
                    "duration": 0.1383126666666783
                },
                {
                    "name": "A4",
                    "midi": 69,
                    "time": 247.02642266667098,
                    "velocity": 0.3228346456692913,
                    "duration": 0.1383126666666783
                },
                {
                    "name": "C#5",
                    "midi": 73,
                    "time": 247.16473533333766,
                    "velocity": 0.2992125984251969,
                    "duration": 0.1383126666666783
                },
                {
                    "name": "E4",
                    "midi": 64,
                    "time": 247.30304800000434,
                    "velocity": 0.33070866141732286,
                    "duration": 0.20746900000000323
                },
                {
                    "name": "D4",
                    "midi": 62,
                    "time": 247.71798600000434,
                    "velocity": 0.2677165354330709,
                    "duration": 0.10373450000000162
                },
                {
                    "name": "B3",
                    "midi": 59,
                    "time": 247.71798600000434,
                    "velocity": 0.2204724409448819,
                    "duration": 0.10373450000000162
                },
                {
                    "name": "E3",
                    "midi": 52,
                    "time": 247.71798600000434,
                    "velocity": 0.2204724409448819,
                    "duration": 0.10373450000000162
                },
                {
                    "name": "C#4",
                    "midi": 61,
                    "time": 248.13292400000435,
                    "velocity": 0.2677165354330709,
                    "duration": 0.10373450000000162
                },
                {
                    "name": "A3",
                    "midi": 57,
                    "time": 248.13292400000435,
                    "velocity": 0.2204724409448819,
                    "duration": 0.10373450000000162
                },
                {
                    "name": "E3",
                    "midi": 52,
                    "time": 248.13292400000435,
                    "velocity": 0.2204724409448819,
                    "duration": 0.10373450000000162
                },
                {
                    "name": "B3",
                    "midi": 59,
                    "time": 248.54786200000436,
                    "velocity": 0.2677165354330709,
                    "duration": 0.10373450000000162
                },
                {
                    "name": "G#3",
                    "midi": 56,
                    "time": 248.54786200000436,
                    "velocity": 0.2204724409448819,
                    "duration": 0.10373450000000162
                },
                {
                    "name": "E3",
                    "midi": 52,
                    "time": 248.54786200000436,
                    "velocity": 0.2204724409448819,
                    "duration": 0.10373450000000162
                },
                {
                    "name": "A3",
                    "midi": 57,
                    "time": 248.96280000000436,
                    "velocity": 0.2440944881889764,
                    "duration": 0.20746900000000323
                },
                {
                    "name": "C#4",
                    "midi": 61,
                    "time": 248.96280000000436,
                    "velocity": 0.29133858267716534,
                    "duration": 0.20746900000000323
                },
                {
                    "name": "A3",
                    "midi": 57,
                    "time": 249.93098866667103,
                    "velocity": 0.2992125984251969,
                    "duration": 0.1383126666666783
                },
                {
                    "name": "C#4",
                    "midi": 61,
                    "time": 250.0693013333377,
                    "velocity": 0.31496062992125984,
                    "duration": 0.1383126666666783
                },
                {
                    "name": "E4",
                    "midi": 64,
                    "time": 250.20761400000438,
                    "velocity": 0.33070866141732286,
                    "duration": 0.1383126666666783
                },
                {
                    "name": "A4",
                    "midi": 69,
                    "time": 250.34592666667106,
                    "velocity": 0.3228346456692913,
                    "duration": 0.1383126666666783
                },
                {
                    "name": "C#5",
                    "midi": 73,
                    "time": 250.48423933333774,
                    "velocity": 0.2992125984251969,
                    "duration": 0.1383126666666783
                },
                {
                    "name": "E4",
                    "midi": 64,
                    "time": 250.62255200000442,
                    "velocity": 0.33070866141732286,
                    "duration": 0.20746900000000323
                },
                {
                    "name": "D4",
                    "midi": 62,
                    "time": 251.03749000000442,
                    "velocity": 0.2677165354330709,
                    "duration": 0.10373450000000162
                },
                {
                    "name": "E3",
                    "midi": 52,
                    "time": 251.03749000000442,
                    "velocity": 0.2204724409448819,
                    "duration": 0.10373450000000162
                },
                {
                    "name": "B3",
                    "midi": 59,
                    "time": 251.03749000000442,
                    "velocity": 0.2204724409448819,
                    "duration": 0.10373450000000162
                },
                {
                    "name": "A3",
                    "midi": 57,
                    "time": 251.45242800000443,
                    "velocity": 0.2204724409448819,
                    "duration": 0.10373450000000162
                },
                {
                    "name": "C#4",
                    "midi": 61,
                    "time": 251.45242800000443,
                    "velocity": 0.2677165354330709,
                    "duration": 0.10373450000000162
                },
                {
                    "name": "E3",
                    "midi": 52,
                    "time": 251.45242800000443,
                    "velocity": 0.2204724409448819,
                    "duration": 0.10373450000000162
                },
                {
                    "name": "B3",
                    "midi": 59,
                    "time": 251.86736600000444,
                    "velocity": 0.2677165354330709,
                    "duration": 0.10373450000000162
                },
                {
                    "name": "G#3",
                    "midi": 56,
                    "time": 251.86736600000444,
                    "velocity": 0.2204724409448819,
                    "duration": 0.10373450000000162
                },
                {
                    "name": "E3",
                    "midi": 52,
                    "time": 251.86736600000444,
                    "velocity": 0.2204724409448819,
                    "duration": 0.10373450000000162
                },
                {
                    "name": "A3",
                    "midi": 57,
                    "time": 252.28230400000444,
                    "velocity": 0.3228346456692913,
                    "duration": 0.41493800000000647
                },
                {
                    "name": "C#3",
                    "midi": 49,
                    "time": 252.69724200000445,
                    "velocity": 0.2755905511811024,
                    "duration": 0.20746900000000323
                },
                {
                    "name": "B3",
                    "midi": 59,
                    "time": 253.11218000000446,
                    "velocity": 0.31496062992125984,
                    "duration": 0.41493800000000647
                },
                {
                    "name": "E3",
                    "midi": 52,
                    "time": 253.52711800000446,
                    "velocity": 0.25984251968503935,
                    "duration": 0.20746900000000323
                },
                {
                    "name": "C#4",
                    "midi": 61,
                    "time": 253.94205600000447,
                    "velocity": 0.33070866141732286,
                    "duration": 0.41493800000000647
                },
                {
                    "name": "A3",
                    "midi": 57,
                    "time": 254.35699400000448,
                    "velocity": 0.2677165354330709,
                    "duration": 0.20746900000000323
                },
                {
                    "name": "F#4",
                    "midi": 66,
                    "time": 254.77193200000448,
                    "velocity": 0.31496062992125984,
                    "duration": 0.31120350000000485
                },
                {
                    "name": "D#4",
                    "midi": 63,
                    "time": 255.0831355000045,
                    "velocity": 0.23622047244094488,
                    "duration": 0.10373450000000162
                },
                {
                    "name": "F#4",
                    "midi": 66,
                    "time": 255.1868700000045,
                    "velocity": 0.29133858267716534,
                    "duration": 0.31120350000000485
                },
                {
                    "name": "D#4",
                    "midi": 63,
                    "time": 255.4980735000045,
                    "velocity": 0.2677165354330709,
                    "duration": 0.10373450000000162
                },
                {
                    "name": "E4",
                    "midi": 64,
                    "time": 255.6018080000045,
                    "velocity": 0.3228346456692913,
                    "duration": 0.41493800000000647
                },
                {
                    "name": "E3",
                    "midi": 52,
                    "time": 256.0167460000045,
                    "velocity": 0.2755905511811024,
                    "duration": 0.20746900000000323
                },
                {
                    "name": "D4",
                    "midi": 62,
                    "time": 256.4316840000045,
                    "velocity": 0.31496062992125984,
                    "duration": 0.41493800000000647
                },
                {
                    "name": "B3",
                    "midi": 59,
                    "time": 256.8466220000045,
                    "velocity": 0.25984251968503935,
                    "duration": 0.20746900000000323
                },
                {
                    "name": "C#4",
                    "midi": 61,
                    "time": 257.2615600000045,
                    "velocity": 0.33070866141732286,
                    "duration": 0.41493800000000647
                },
                {
                    "name": "E3",
                    "midi": 52,
                    "time": 257.6764980000045,
                    "velocity": 0.2677165354330709,
                    "duration": 0.20746900000000323
                },
                {
                    "name": "B3",
                    "midi": 59,
                    "time": 258.09143600000453,
                    "velocity": 0.31496062992125984,
                    "duration": 0.31120349999997643
                },
                {
                    "name": "G#3",
                    "midi": 56,
                    "time": 258.4026395000045,
                    "velocity": 0.23622047244094488,
                    "duration": 0.1037344999999732
                },
                {
                    "name": "B3",
                    "midi": 59,
                    "time": 258.5063740000045,
                    "velocity": 0.29133858267716534,
                    "duration": 0.31120349999997643
                },
                {
                    "name": "E3",
                    "midi": 52,
                    "time": 258.81757750000446,
                    "velocity": 0.2677165354330709,
                    "duration": 0.1037344999999732
                },
                {
                    "name": "A4",
                    "midi": 69,
                    "time": 258.92131200000443,
                    "velocity": 0.33858267716535434,
                    "duration": 0.13831266666664987
                },
                {
                    "name": "E4",
                    "midi": 64,
                    "time": 259.0596246666711,
                    "velocity": 0.28346456692913385,
                    "duration": 0.13831266666664987
                },
                {
                    "name": "A4",
                    "midi": 69,
                    "time": 259.19793733333773,
                    "velocity": 0.28346456692913385,
                    "duration": 0.13831266666664987
                },
                {
                    "name": "C#4",
                    "midi": 61,
                    "time": 259.3362500000044,
                    "velocity": 0.33070866141732286,
                    "duration": 0.20746900000000323
                },
                {
                    "name": "B4",
                    "midi": 71,
                    "time": 259.7511880000044,
                    "velocity": 0.3464566929133858,
                    "duration": 0.13831266666664987
                },
                {
                    "name": "G#4",
                    "midi": 68,
                    "time": 259.88950066667104,
                    "velocity": 0.2992125984251969,
                    "duration": 0.13831266666664987
                },
                {
                    "name": "B4",
                    "midi": 71,
                    "time": 260.0278133333377,
                    "velocity": 0.2992125984251969,
                    "duration": 0.13831266666664987
                },
                {
                    "name": "E4",
                    "midi": 64,
                    "time": 260.16612600000434,
                    "velocity": 0.3464566929133858,
                    "duration": 0.20746900000000323
                },
                {
                    "name": "C#5",
                    "midi": 73,
                    "time": 260.58106400000435,
                    "velocity": 0.3858267716535433,
                    "duration": 0.13831266666664987
                },
                {
                    "name": "B4",
                    "midi": 71,
                    "time": 260.719376666671,
                    "velocity": 0.3228346456692913,
                    "duration": 0.13831266666664987
                },
                {
                    "name": "C#5",
                    "midi": 73,
                    "time": 260.85768933333765,
                    "velocity": 0.3228346456692913,
                    "duration": 0.13831266666664987
                },
                {
                    "name": "A4",
                    "midi": 69,
                    "time": 260.9960020000043,
                    "velocity": 0.3858267716535433,
                    "duration": 0.20746900000000323
                },
                {
                    "name": "F#5",
                    "midi": 78,
                    "time": 261.4109400000043,
                    "velocity": 0.3858267716535433,
                    "duration": 0.31120349999997643
                },
                {
                    "name": "D#5",
                    "midi": 75,
                    "time": 261.7221435000043,
                    "velocity": 0.29133858267716534,
                    "duration": 0.1037344999999732
                },
                {
                    "name": "F#5",
                    "midi": 78,
                    "time": 261.82587800000425,
                    "velocity": 0.36220472440944884,
                    "duration": 0.31120349999997643
                },
                {
                    "name": "D#5",
                    "midi": 75,
                    "time": 262.13708150000423,
                    "velocity": 0.33858267716535434,
                    "duration": 0.1037344999999732
                },
                {
                    "name": "F#5",
                    "midi": 78,
                    "time": 262.2408160000042,
                    "velocity": 0.4251968503937008,
                    "duration": 0.41493800000000647
                },
                {
                    "name": "D#5",
                    "midi": 75,
                    "time": 262.6557540000042,
                    "velocity": 0.3464566929133858,
                    "duration": 0.20746900000000323
                },
                {
                    "name": "F#5",
                    "midi": 78,
                    "time": 263.0706920000042,
                    "velocity": 0.33070866141732286,
                    "duration": 0.41493800000000647
                },
                {
                    "name": "D#5",
                    "midi": 75,
                    "time": 263.4856300000042,
                    "velocity": 0.2677165354330709,
                    "duration": 0.20746900000000323
                },
                {
                    "name": "F#5",
                    "midi": 78,
                    "time": 263.9005680000042,
                    "velocity": 0.33070866141732286,
                    "duration": 0.41493800000000647
                },
                {
                    "name": "D#5",
                    "midi": 75,
                    "time": 264.31550600000423,
                    "velocity": 0.3228346456692913,
                    "duration": 0.20746900000000323
                },
                {
                    "name": "F5",
                    "midi": 77,
                    "time": 264.73044400000424,
                    "velocity": 0.31496062992125984,
                    "duration": 0.31120349999997643
                },
                {
                    "name": "D#5",
                    "midi": 75,
                    "time": 265.0416475000042,
                    "velocity": 0.23622047244094488,
                    "duration": 0.1037344999999732
                },
                {
                    "name": "F5",
                    "midi": 77,
                    "time": 265.1453820000042,
                    "velocity": 0.29133858267716534,
                    "duration": 0.31120349999997643
                },
                {
                    "name": "D#5",
                    "midi": 75,
                    "time": 265.45658550000417,
                    "velocity": 0.2677165354330709,
                    "duration": 0.1037344999999732
                },
                {
                    "name": "F5",
                    "midi": 77,
                    "time": 265.56032000000414,
                    "velocity": 0.33070866141732286,
                    "duration": 0.41493800000000647
                },
                {
                    "name": "D#5",
                    "midi": 75,
                    "time": 265.97525800000415,
                    "velocity": 0.2677165354330709,
                    "duration": 0.20746900000000323
                },
                {
                    "name": "F5",
                    "midi": 77,
                    "time": 266.39019600000415,
                    "velocity": 0.33070866141732286,
                    "duration": 0.41493800000000647
                },
                {
                    "name": "D#5",
                    "midi": 75,
                    "time": 266.80513400000416,
                    "velocity": 0.25984251968503935,
                    "duration": 0.20746900000000323
                },
                {
                    "name": "F5",
                    "midi": 77,
                    "time": 267.22007200000417,
                    "velocity": 0.31496062992125984,
                    "duration": 0.41493800000000647
                },
                {
                    "name": "D5",
                    "midi": 74,
                    "time": 267.6350100000042,
                    "velocity": 0.25196850393700787,
                    "duration": 0.20746900000000323
                },
                {
                    "name": "E5",
                    "midi": 76,
                    "time": 268.0499480000042,
                    "velocity": 0.30708661417322836,
                    "duration": 0.41493800000000647
                },
                {
                    "name": "D5",
                    "midi": 74,
                    "time": 268.4648860000042,
                    "velocity": 0.2440944881889764,
                    "duration": 0.20746900000000323
                },
                {
                    "name": "C#5",
                    "midi": 73,
                    "time": 268.8798240000042,
                    "velocity": 0.29133858267716534,
                    "duration": 0.41493800000000647
                },
                {
                    "name": "E5",
                    "midi": 76,
                    "time": 269.2947620000042,
                    "velocity": 0.2283464566929134,
                    "duration": 0.20746900000000323
                },
                {
                    "name": "F#4",
                    "midi": 66,
                    "time": 269.7097000000042,
                    "velocity": 0.28346456692913385,
                    "duration": 0.41493800000000647
                },
                {
                    "name": "D5",
                    "midi": 74,
                    "time": 270.1246380000042,
                    "velocity": 0.2204724409448819,
                    "duration": 0.20746900000000323
                },
                {
                    "name": "A4",
                    "midi": 69,
                    "time": 270.1246380000042,
                    "velocity": 0.1968503937007874,
                    "duration": 0.20746900000000323
                },
                {
                    "name": "E4",
                    "midi": 64,
                    "time": 270.5395760000042,
                    "velocity": 0.2677165354330709,
                    "duration": 0.41493800000000647
                },
                {
                    "name": "A4",
                    "midi": 69,
                    "time": 270.9545140000042,
                    "velocity": 0.1968503937007874,
                    "duration": 0.20746900000000323
                },
                {
                    "name": "C#5",
                    "midi": 73,
                    "time": 270.9545140000042,
                    "velocity": 0.2125984251968504,
                    "duration": 0.20746900000000323
                },
                {
                    "name": "E4",
                    "midi": 64,
                    "time": 271.36945200000423,
                    "velocity": 0.25984251968503935,
                    "duration": 0.41493800000000647
                },
                {
                    "name": "G#4",
                    "midi": 68,
                    "time": 271.78439000000424,
                    "velocity": 0.1732283464566929,
                    "duration": 0.20746900000000323
                },
                {
                    "name": "B4",
                    "midi": 71,
                    "time": 271.78439000000424,
                    "velocity": 0.2047244094488189,
                    "duration": 0.20746900000000323
                },
                {
                    "name": "G3",
                    "midi": 55,
                    "time": 272.19932800000424,
                    "velocity": 0.5826771653543307,
                    "duration": 0.13831266666664987
                },
                {
                    "name": "A3",
                    "midi": 57,
                    "time": 272.3376406666709,
                    "velocity": 0.33070866141732286,
                    "duration": 0.13831266666664987
                },
                {
                    "name": "G3",
                    "midi": 55,
                    "time": 272.47595333333754,
                    "velocity": 0.33070866141732286,
                    "duration": 0.13831266666664987
                },
                {
                    "name": "E3",
                    "midi": 52,
                    "time": 272.6142660000042,
                    "velocity": 0.3779527559055118,
                    "duration": 0.13831266666664987
                },
                {
                    "name": "C#3",
                    "midi": 49,
                    "time": 272.75257866667084,
                    "velocity": 0.3228346456692913,
                    "duration": 0.13831266666664987
                },
                {
                    "name": "A2",
                    "midi": 45,
                    "time": 272.8908913333375,
                    "velocity": 0.3228346456692913,
                    "duration": 0.13831266666664987
                },
                {
                    "name": "G2",
                    "midi": 43,
                    "time": 273.02920400000414,
                    "velocity": 0.47244094488188976,
                    "duration": 0.13831266666664987
                },
                {
                    "name": "A2",
                    "midi": 45,
                    "time": 273.1675166666708,
                    "velocity": 0.28346456692913385,
                    "duration": 0.13831266666664987
                },
                {
                    "name": "G2",
                    "midi": 43,
                    "time": 273.30582933333744,
                    "velocity": 0.28346456692913385,
                    "duration": 0.13831266666664987
                },
                {
                    "name": "A2",
                    "midi": 45,
                    "time": 273.4441420000041,
                    "velocity": 0.3464566929133858,
                    "duration": 0.13831266666664987
                },
                {
                    "name": "G2",
                    "midi": 43,
                    "time": 273.58245466667074,
                    "velocity": 0.29133858267716534,
                    "duration": 0.13831266666664987
                },
                {
                    "name": "A2",
                    "midi": 45,
                    "time": 273.7207673333374,
                    "velocity": 0.29133858267716534,
                    "duration": 0.13831266666664987
                },
                {
                    "name": "F3",
                    "midi": 53,
                    "time": 273.85908000000404,
                    "velocity": 0.5748031496062992,
                    "duration": 0.13831266666664987
                },
                {
                    "name": "A3",
                    "midi": 57,
                    "time": 273.9973926666707,
                    "velocity": 0.33070866141732286,
                    "duration": 0.13831266666664987
                },
                {
                    "name": "F3",
                    "midi": 53,
                    "time": 274.13570533333734,
                    "velocity": 0.33070866141732286,
                    "duration": 0.13831266666664987
                },
                {
                    "name": "C3",
                    "midi": 48,
                    "time": 274.274018000004,
                    "velocity": 0.3779527559055118,
                    "duration": 0.13831266666664987
                },
                {
                    "name": "A2",
                    "midi": 45,
                    "time": 274.41233066667064,
                    "velocity": 0.3228346456692913,
                    "duration": 0.13831266666664987
                },
                {
                    "name": "F2",
                    "midi": 41,
                    "time": 274.5506433333373,
                    "velocity": 0.3228346456692913,
                    "duration": 0.13831266666664987
                },
                {
                    "name": "A2",
                    "midi": 45,
                    "time": 274.68895600000394,
                    "velocity": 0.4881889763779528,
                    "duration": 0.13831266666664987
                },
                {
                    "name": "F2",
                    "midi": 41,
                    "time": 274.8272686666706,
                    "velocity": 0.28346456692913385,
                    "duration": 0.13831266666664987
                },
                {
                    "name": "A2",
                    "midi": 45,
                    "time": 274.96558133333724,
                    "velocity": 0.28346456692913385,
                    "duration": 0.13831266666664987
                },
                {
                    "name": "F2",
                    "midi": 41,
                    "time": 275.1038940000039,
                    "velocity": 0.3464566929133858,
                    "duration": 0.13831266666664987
                },
                {
                    "name": "A2",
                    "midi": 45,
                    "time": 275.24220666667054,
                    "velocity": 0.29133858267716534,
                    "duration": 0.13831266666664987
                },
                {
                    "name": "F2",
                    "midi": 41,
                    "time": 275.3805193333372,
                    "velocity": 0.29133858267716534,
                    "duration": 0.13831266666664987
                },
                {
                    "name": "G3",
                    "midi": 55,
                    "time": 275.51883200000384,
                    "velocity": 0.5748031496062992,
                    "duration": 0.13831266666664987
                },
                {
                    "name": "A3",
                    "midi": 57,
                    "time": 275.6571446666705,
                    "velocity": 0.33070866141732286,
                    "duration": 0.13831266666664987
                },
                {
                    "name": "G3",
                    "midi": 55,
                    "time": 275.79545733333714,
                    "velocity": 0.33070866141732286,
                    "duration": 0.13831266666664987
                },
                {
                    "name": "E3",
                    "midi": 52,
                    "time": 275.9337700000038,
                    "velocity": 0.3779527559055118,
                    "duration": 0.13831266666664987
                },
                {
                    "name": "C#3",
                    "midi": 49,
                    "time": 276.07208266667044,
                    "velocity": 0.3228346456692913,
                    "duration": 0.13831266666664987
                },
                {
                    "name": "A2",
                    "midi": 45,
                    "time": 276.2103953333371,
                    "velocity": 0.3228346456692913,
                    "duration": 0.13831266666664987
                },
                {
                    "name": "G2",
                    "midi": 43,
                    "time": 276.34870800000374,
                    "velocity": 0.47244094488188976,
                    "duration": 0.13831266666664987
                },
                {
                    "name": "A2",
                    "midi": 45,
                    "time": 276.4870206666704,
                    "velocity": 0.28346456692913385,
                    "duration": 0.13831266666664987
                },
                {
                    "name": "G2",
                    "midi": 43,
                    "time": 276.62533333333704,
                    "velocity": 0.28346456692913385,
                    "duration": 0.13831266666664987
                },
                {
                    "name": "A2",
                    "midi": 45,
                    "time": 276.7636460000037,
                    "velocity": 0.3464566929133858,
                    "duration": 0.13831266666664987
                },
                {
                    "name": "G2",
                    "midi": 43,
                    "time": 276.90195866667034,
                    "velocity": 0.29133858267716534,
                    "duration": 0.13831266666664987
                },
                {
                    "name": "A2",
                    "midi": 45,
                    "time": 277.040271333337,
                    "velocity": 0.29133858267716534,
                    "duration": 0.13831266666664987
                },
                {
                    "name": "F3",
                    "midi": 53,
                    "time": 277.17858400000364,
                    "velocity": 0.5826771653543307,
                    "duration": 0.13831266666664987
                },
                {
                    "name": "A3",
                    "midi": 57,
                    "time": 277.3168966666703,
                    "velocity": 0.33070866141732286,
                    "duration": 0.13831266666664987
                },
                {
                    "name": "F3",
                    "midi": 53,
                    "time": 277.45520933333694,
                    "velocity": 0.33070866141732286,
                    "duration": 0.13831266666664987
                },
                {
                    "name": "C3",
                    "midi": 48,
                    "time": 277.5935220000036,
                    "velocity": 0.3779527559055118,
                    "duration": 0.13831266666664987
                },
                {
                    "name": "A2",
                    "midi": 45,
                    "time": 277.73183466667024,
                    "velocity": 0.3228346456692913,
                    "duration": 0.13831266666664987
                },
                {
                    "name": "F2",
                    "midi": 41,
                    "time": 277.8701473333369,
                    "velocity": 0.3228346456692913,
                    "duration": 0.13831266666664987
                },
                {
                    "name": "A2",
                    "midi": 45,
                    "time": 278.00846000000354,
                    "velocity": 0.4881889763779528,
                    "duration": 0.13831266666664987
                },
                {
                    "name": "F2",
                    "midi": 41,
                    "time": 278.1467726666702,
                    "velocity": 0.28346456692913385,
                    "duration": 0.13831266666664987
                },
                {
                    "name": "A2",
                    "midi": 45,
                    "time": 278.28508533333684,
                    "velocity": 0.28346456692913385,
                    "duration": 0.13831266666664987
                },
                {
                    "name": "F2",
                    "midi": 41,
                    "time": 278.4233980000035,
                    "velocity": 0.3464566929133858,
                    "duration": 0.13831266666664987
                },
                {
                    "name": "A2",
                    "midi": 45,
                    "time": 278.56171066667014,
                    "velocity": 0.29133858267716534,
                    "duration": 0.13831266666664987
                },
                {
                    "name": "F2",
                    "midi": 41,
                    "time": 278.7000233333368,
                    "velocity": 0.29133858267716534,
                    "duration": 0.13831266666664987
                },
                {
                    "name": "E3",
                    "midi": 52,
                    "time": 278.83833600000344,
                    "velocity": 0.29133858267716534,
                    "duration": 0.13831266666664987
                },
                {
                    "name": "E2",
                    "midi": 40,
                    "time": 278.83833600000344,
                    "velocity": 0.2755905511811024,
                    "duration": 0.20746900000000323
                },
                {
                    "name": "F#3",
                    "midi": 54,
                    "time": 278.9766486666701,
                    "velocity": 0.25196850393700787,
                    "duration": 0.13831266666670672
                },
                {
                    "name": "G#3",
                    "midi": 56,
                    "time": 279.1149613333368,
                    "velocity": 0.25196850393700787,
                    "duration": 0.13831266666664987
                },
                {
                    "name": "A3",
                    "midi": 57,
                    "time": 279.25327400000344,
                    "velocity": 0.29133858267716534,
                    "duration": 0.13831266666664987
                },
                {
                    "name": "B3",
                    "midi": 59,
                    "time": 279.3915866666701,
                    "velocity": 0.25984251968503935,
                    "duration": 0.13831266666664987
                },
                {
                    "name": "C#4",
                    "midi": 61,
                    "time": 279.52989933333674,
                    "velocity": 0.25984251968503935,
                    "duration": 0.13831266666664987
                },
                {
                    "name": "B3",
                    "midi": 59,
                    "time": 280.0831500000034,
                    "velocity": 0.2755905511811024,
                    "duration": 0.20746900000000323
                },
                {
                    "name": "E3",
                    "midi": 52,
                    "time": 280.0831500000034,
                    "velocity": 0.2755905511811024,
                    "duration": 0.20746900000000323
                },
                {
                    "name": "A2",
                    "midi": 45,
                    "time": 280.4980880000034,
                    "velocity": 0.25984251968503935,
                    "duration": 0.20746900000000323
                },
                {
                    "name": "C#3",
                    "midi": 49,
                    "time": 280.4980880000034,
                    "velocity": 0.25984251968503935,
                    "duration": 0.20746900000000323
                },
                {
                    "name": "A3",
                    "midi": 57,
                    "time": 280.5032747250034,
                    "velocity": 0.31496062992125984,
                    "duration": 0.20746900000000323
                },
                {
                    "name": "E5",
                    "midi": 76,
                    "time": 280.9130260000034,
                    "velocity": 0.3464566929133858,
                    "duration": 0.31120349999997643
                },
                {
                    "name": "C#5",
                    "midi": 73,
                    "time": 280.9130260000034,
                    "velocity": 0.3464566929133858,
                    "duration": 0.31120349999997643
                },
                {
                    "name": "C#5",
                    "midi": 73,
                    "time": 281.2242295000034,
                    "velocity": 0.30708661417322836,
                    "duration": 0.1037344999999732
                },
                {
                    "name": "E5",
                    "midi": 76,
                    "time": 281.2242295000034,
                    "velocity": 0.30708661417322836,
                    "duration": 0.1037344999999732
                },
                {
                    "name": "B4",
                    "midi": 71,
                    "time": 281.32796400000336,
                    "velocity": 0.3464566929133858,
                    "duration": 0.20746900000000323
                },
                {
                    "name": "D5",
                    "midi": 74,
                    "time": 281.32796400000336,
                    "velocity": 0.3464566929133858,
                    "duration": 0.20746900000000323
                },
                {
                    "name": "E3",
                    "midi": 52,
                    "time": 281.74290200000337,
                    "velocity": 0.31496062992125984,
                    "duration": 0.20746900000000323
                },
                {
                    "name": "B3",
                    "midi": 59,
                    "time": 281.74290200000337,
                    "velocity": 0.31496062992125984,
                    "duration": 0.20746900000000323
                },
                {
                    "name": "A2",
                    "midi": 45,
                    "time": 282.1578400000034,
                    "velocity": 0.2992125984251969,
                    "duration": 0.20746900000000323
                },
                {
                    "name": "C#3",
                    "midi": 49,
                    "time": 282.1578400000034,
                    "velocity": 0.2992125984251969,
                    "duration": 0.20746900000000323
                },
                {
                    "name": "A3",
                    "midi": 57,
                    "time": 282.1578400000034,
                    "velocity": 0.3543307086614173,
                    "duration": 0.20746900000000323
                },
                {
                    "name": "C#5",
                    "midi": 73,
                    "time": 282.5727780000034,
                    "velocity": 0.3464566929133858,
                    "duration": 0.31120349999997643
                },
                {
                    "name": "E5",
                    "midi": 76,
                    "time": 282.5727780000034,
                    "velocity": 0.3464566929133858,
                    "duration": 0.31120349999997643
                },
                {
                    "name": "C#5",
                    "midi": 73,
                    "time": 282.88398150000336,
                    "velocity": 0.30708661417322836,
                    "duration": 0.1037344999999732
                },
                {
                    "name": "E5",
                    "midi": 76,
                    "time": 282.88398150000336,
                    "velocity": 0.30708661417322836,
                    "duration": 0.1037344999999732
                },
                {
                    "name": "B4",
                    "midi": 71,
                    "time": 282.98771600000333,
                    "velocity": 0.3464566929133858,
                    "duration": 0.20746900000000323
                },
                {
                    "name": "D5",
                    "midi": 74,
                    "time": 282.98771600000333,
                    "velocity": 0.3464566929133858,
                    "duration": 0.20746900000000323
                },
                {
                    "name": "E3",
                    "midi": 52,
                    "time": 283.40265400000334,
                    "velocity": 0.31496062992125984,
                    "duration": 0.20746900000000323
                },
                {
                    "name": "B3",
                    "midi": 59,
                    "time": 283.40265400000334,
                    "velocity": 0.31496062992125984,
                    "duration": 0.20746900000000323
                },
                {
                    "name": "C#3",
                    "midi": 49,
                    "time": 283.81759200000334,
                    "velocity": 0.2992125984251969,
                    "duration": 0.20746900000000323
                },
                {
                    "name": "A3",
                    "midi": 57,
                    "time": 283.81759200000334,
                    "velocity": 0.3543307086614173,
                    "duration": 0.20746900000000323
                },
                {
                    "name": "A2",
                    "midi": 45,
                    "time": 283.81759200000334,
                    "velocity": 0.2992125984251969,
                    "duration": 0.20746900000000323
                },
                {
                    "name": "C#5",
                    "midi": 73,
                    "time": 284.23253000000335,
                    "velocity": 0.3464566929133858,
                    "duration": 0.31120349999997643
                },
                {
                    "name": "E5",
                    "midi": 76,
                    "time": 284.23253000000335,
                    "velocity": 0.3464566929133858,
                    "duration": 0.31120349999997643
                },
                {
                    "name": "C#5",
                    "midi": 73,
                    "time": 284.5437335000033,
                    "velocity": 0.30708661417322836,
                    "duration": 0.1037344999999732
                },
                {
                    "name": "E5",
                    "midi": 76,
                    "time": 284.5437335000033,
                    "velocity": 0.30708661417322836,
                    "duration": 0.1037344999999732
                },
                {
                    "name": "B4",
                    "midi": 71,
                    "time": 284.6474680000033,
                    "velocity": 0.3464566929133858,
                    "duration": 0.20746900000000323
                },
                {
                    "name": "D5",
                    "midi": 74,
                    "time": 284.6474680000033,
                    "velocity": 0.3464566929133858,
                    "duration": 0.20746900000000323
                },
                {
                    "name": "E3",
                    "midi": 52,
                    "time": 285.0624060000033,
                    "velocity": 0.2755905511811024,
                    "duration": 0.20746900000000323
                },
                {
                    "name": "G3",
                    "midi": 55,
                    "time": 285.4773440000033,
                    "velocity": 0.5826771653543307,
                    "duration": 0.13831266666664987
                },
                {
                    "name": "A3",
                    "midi": 57,
                    "time": 285.61565666666996,
                    "velocity": 0.33070866141732286,
                    "duration": 0.13831266666664987
                },
                {
                    "name": "G3",
                    "midi": 55,
                    "time": 285.7539693333366,
                    "velocity": 0.33070866141732286,
                    "duration": 0.13831266666664987
                },
                {
                    "name": "E3",
                    "midi": 52,
                    "time": 285.89228200000326,
                    "velocity": 0.3779527559055118,
                    "duration": 0.13831266666664987
                },
                {
                    "name": "C#3",
                    "midi": 49,
                    "time": 286.0305946666699,
                    "velocity": 0.3228346456692913,
                    "duration": 0.13831266666664987
                },
                {
                    "name": "A2",
                    "midi": 45,
                    "time": 286.16890733333656,
                    "velocity": 0.3228346456692913,
                    "duration": 0.13831266666664987
                },
                {
                    "name": "G2",
                    "midi": 43,
                    "time": 286.3072200000032,
                    "velocity": 0.47244094488188976,
                    "duration": 0.13831266666664987
                },
                {
                    "name": "A2",
                    "midi": 45,
                    "time": 286.44553266666986,
                    "velocity": 0.28346456692913385,
                    "duration": 0.13831266666664987
                },
                {
                    "name": "G2",
                    "midi": 43,
                    "time": 286.5838453333365,
                    "velocity": 0.28346456692913385,
                    "duration": 0.13831266666664987
                },
                {
                    "name": "A2",
                    "midi": 45,
                    "time": 286.72215800000316,
                    "velocity": 0.3464566929133858,
                    "duration": 0.13831266666664987
                },
                {
                    "name": "G2",
                    "midi": 43,
                    "time": 286.8604706666698,
                    "velocity": 0.29133858267716534,
                    "duration": 0.13831266666664987
                },
                {
                    "name": "A2",
                    "midi": 45,
                    "time": 286.99878333333646,
                    "velocity": 0.29133858267716534,
                    "duration": 0.13831266666664987
                },
                {
                    "name": "F3",
                    "midi": 53,
                    "time": 287.1370960000031,
                    "velocity": 0.5748031496062992,
                    "duration": 0.13831266666664987
                },
                {
                    "name": "A3",
                    "midi": 57,
                    "time": 287.27540866666976,
                    "velocity": 0.33070866141732286,
                    "duration": 0.13831266666664987
                },
                {
                    "name": "F3",
                    "midi": 53,
                    "time": 287.4137213333364,
                    "velocity": 0.33070866141732286,
                    "duration": 0.13831266666664987
                },
                {
                    "name": "C3",
                    "midi": 48,
                    "time": 287.55203400000306,
                    "velocity": 0.3779527559055118,
                    "duration": 0.13831266666664987
                },
                {
                    "name": "A2",
                    "midi": 45,
                    "time": 287.6903466666697,
                    "velocity": 0.3228346456692913,
                    "duration": 0.13831266666664987
                },
                {
                    "name": "F2",
                    "midi": 41,
                    "time": 287.82865933333636,
                    "velocity": 0.3228346456692913,
                    "duration": 0.13831266666664987
                },
                {
                    "name": "A2",
                    "midi": 45,
                    "time": 287.966972000003,
                    "velocity": 0.4881889763779528,
                    "duration": 0.13831266666664987
                },
                {
                    "name": "F2",
                    "midi": 41,
                    "time": 288.10528466666966,
                    "velocity": 0.28346456692913385,
                    "duration": 0.13831266666664987
                },
                {
                    "name": "A2",
                    "midi": 45,
                    "time": 288.2435973333363,
                    "velocity": 0.28346456692913385,
                    "duration": 0.13831266666664987
                },
                {
                    "name": "F2",
                    "midi": 41,
                    "time": 288.38191000000296,
                    "velocity": 0.3464566929133858,
                    "duration": 0.13831266666664987
                },
                {
                    "name": "A2",
                    "midi": 45,
                    "time": 288.5202226666696,
                    "velocity": 0.29133858267716534,
                    "duration": 0.13831266666664987
                },
                {
                    "name": "F2",
                    "midi": 41,
                    "time": 288.65853533333626,
                    "velocity": 0.29133858267716534,
                    "duration": 0.13831266666664987
                },
                {
                    "name": "F3",
                    "midi": 53,
                    "time": 288.7968480000029,
                    "velocity": 0.5748031496062992,
                    "duration": 0.13831266666664987
                },
                {
                    "name": "G3",
                    "midi": 55,
                    "time": 288.93516066666956,
                    "velocity": 0.33070866141732286,
                    "duration": 0.13831266666664987
                },
                {
                    "name": "F3",
                    "midi": 53,
                    "time": 289.0734733333362,
                    "velocity": 0.33070866141732286,
                    "duration": 0.13831266666664987
                },
                {
                    "name": "D3",
                    "midi": 50,
                    "time": 289.21178600000286,
                    "velocity": 0.3779527559055118,
                    "duration": 0.13831266666664987
                },
                {
                    "name": "B2",
                    "midi": 47,
                    "time": 289.3500986666695,
                    "velocity": 0.3228346456692913,
                    "duration": 0.13831266666664987
                },
                {
                    "name": "G2",
                    "midi": 43,
                    "time": 289.48841133333616,
                    "velocity": 0.3228346456692913,
                    "duration": 0.13831266666664987
                },
                {
                    "name": "F2",
                    "midi": 41,
                    "time": 289.6267240000028,
                    "velocity": 0.4881889763779528,
                    "duration": 0.13831266666664987
                },
                {
                    "name": "G2",
                    "midi": 43,
                    "time": 289.76503666666946,
                    "velocity": 0.28346456692913385,
                    "duration": 0.13831266666664987
                },
                {
                    "name": "F2",
                    "midi": 41,
                    "time": 289.9033493333361,
                    "velocity": 0.28346456692913385,
                    "duration": 0.13831266666664987
                },
                {
                    "name": "G2",
                    "midi": 43,
                    "time": 290.04166200000276,
                    "velocity": 0.3464566929133858,
                    "duration": 0.13831266666664987
                },
                {
                    "name": "F2",
                    "midi": 41,
                    "time": 290.1799746666694,
                    "velocity": 0.29133858267716534,
                    "duration": 0.13831266666664987
                },
                {
                    "name": "G2",
                    "midi": 43,
                    "time": 290.31828733333606,
                    "velocity": 0.29133858267716534,
                    "duration": 0.13831266666664987
                },
                {
                    "name": "D#3",
                    "midi": 51,
                    "time": 290.4566000000027,
                    "velocity": 0.5748031496062992,
                    "duration": 0.13831266666664987
                },
                {
                    "name": "G3",
                    "midi": 55,
                    "time": 290.59491266666936,
                    "velocity": 0.33070866141732286,
                    "duration": 0.13831266666664987
                },
                {
                    "name": "D#3",
                    "midi": 51,
                    "time": 290.733225333336,
                    "velocity": 0.33070866141732286,
                    "duration": 0.13831266666664987
                },
                {
                    "name": "A#2",
                    "midi": 46,
                    "time": 290.87153800000266,
                    "velocity": 0.3779527559055118,
                    "duration": 0.13831266666664987
                },
                {
                    "name": "G2",
                    "midi": 43,
                    "time": 291.0098506666693,
                    "velocity": 0.3228346456692913,
                    "duration": 0.13831266666664987
                },
                {
                    "name": "D#2",
                    "midi": 39,
                    "time": 291.14816333333596,
                    "velocity": 0.3228346456692913,
                    "duration": 0.13831266666664987
                },
                {
                    "name": "G2",
                    "midi": 43,
                    "time": 291.2864760000026,
                    "velocity": 0.4881889763779528,
                    "duration": 0.13831266666664987
                },
                {
                    "name": "D#2",
                    "midi": 39,
                    "time": 291.42478866666926,
                    "velocity": 0.28346456692913385,
                    "duration": 0.13831266666664987
                },
                {
                    "name": "G2",
                    "midi": 43,
                    "time": 291.5631013333359,
                    "velocity": 0.28346456692913385,
                    "duration": 0.13831266666664987
                },
                {
                    "name": "D#2",
                    "midi": 39,
                    "time": 291.70141400000256,
                    "velocity": 0.3464566929133858,
                    "duration": 0.13831266666664987
                },
                {
                    "name": "G2",
                    "midi": 43,
                    "time": 291.8397266666692,
                    "velocity": 0.29133858267716534,
                    "duration": 0.13831266666664987
                },
                {
                    "name": "D#2",
                    "midi": 39,
                    "time": 291.97803933333586,
                    "velocity": 0.29133858267716534,
                    "duration": 0.13831266666664987
                },
                {
                    "name": "D#3",
                    "midi": 51,
                    "time": 292.1163520000025,
                    "velocity": 0.5748031496062992,
                    "duration": 0.13831266666664987
                },
                {
                    "name": "F3",
                    "midi": 53,
                    "time": 292.25466466666916,
                    "velocity": 0.33070866141732286,
                    "duration": 0.13831266666664987
                },
                {
                    "name": "D#3",
                    "midi": 51,
                    "time": 292.3929773333358,
                    "velocity": 0.33070866141732286,
                    "duration": 0.13831266666664987
                },
                {
                    "name": "C3",
                    "midi": 48,
                    "time": 292.53129000000246,
                    "velocity": 0.3779527559055118,
                    "duration": 0.13831266666664987
                },
                {
                    "name": "A2",
                    "midi": 45,
                    "time": 292.6696026666691,
                    "velocity": 0.3228346456692913,
                    "duration": 0.13831266666664987
                },
                {
                    "name": "F2",
                    "midi": 41,
                    "time": 292.80791533333576,
                    "velocity": 0.3228346456692913,
                    "duration": 0.13831266666664987
                },
                {
                    "name": "C#3",
                    "midi": 49,
                    "time": 292.9462280000024,
                    "velocity": 0.5748031496062992,
                    "duration": 0.13831266666664987
                },
                {
                    "name": "F3",
                    "midi": 53,
                    "time": 293.08454066666906,
                    "velocity": 0.33070866141732286,
                    "duration": 0.13831266666664987
                },
                {
                    "name": "C#3",
                    "midi": 49,
                    "time": 293.2228533333357,
                    "velocity": 0.33070866141732286,
                    "duration": 0.13831266666664987
                },
                {
                    "name": "G#2",
                    "midi": 44,
                    "time": 293.36116600000236,
                    "velocity": 0.3779527559055118,
                    "duration": 0.13831266666664987
                },
                {
                    "name": "F2",
                    "midi": 41,
                    "time": 293.499478666669,
                    "velocity": 0.3228346456692913,
                    "duration": 0.13831266666664987
                },
                {
                    "name": "C#2",
                    "midi": 37,
                    "time": 293.63779133333566,
                    "velocity": 0.3228346456692913,
                    "duration": 0.13831266666664987
                },
                {
                    "name": "D3",
                    "midi": 50,
                    "time": 293.7761040000023,
                    "velocity": 0.5748031496062992,
                    "duration": 0.13831266666664987
                },
                {
                    "name": "E3",
                    "midi": 52,
                    "time": 293.91441666666896,
                    "velocity": 0.33070866141732286,
                    "duration": 0.13831266666664987
                },
                {
                    "name": "D3",
                    "midi": 50,
                    "time": 294.0527293333356,
                    "velocity": 0.33070866141732286,
                    "duration": 0.13831266666664987
                },
                {
                    "name": "B2",
                    "midi": 47,
                    "time": 294.19104200000226,
                    "velocity": 0.3779527559055118,
                    "duration": 0.13831266666664987
                },
                {
                    "name": "G#2",
                    "midi": 44,
                    "time": 294.3293546666689,
                    "velocity": 0.3228346456692913,
                    "duration": 0.13831266666664987
                },
                {
                    "name": "E2",
                    "midi": 40,
                    "time": 294.46766733333556,
                    "velocity": 0.3228346456692913,
                    "duration": 0.13831266666664987
                },
                {
                    "name": "C3",
                    "midi": 48,
                    "time": 294.6059800000022,
                    "velocity": 0.5748031496062992,
                    "duration": 0.13831266666664987
                },
                {
                    "name": "E3",
                    "midi": 52,
                    "time": 294.74429266666885,
                    "velocity": 0.33070866141732286,
                    "duration": 0.13831266666664987
                },
                {
                    "name": "C3",
                    "midi": 48,
                    "time": 294.8826053333355,
                    "velocity": 0.33070866141732286,
                    "duration": 0.13831266666664987
                },
                {
                    "name": "G2",
                    "midi": 43,
                    "time": 295.02091800000215,
                    "velocity": 0.3779527559055118,
                    "duration": 0.13831266666664987
                },
                {
                    "name": "E2",
                    "midi": 40,
                    "time": 295.1592306666688,
                    "velocity": 0.3228346456692913,
                    "duration": 0.13831266666664987
                },
                {
                    "name": "C2",
                    "midi": 36,
                    "time": 295.29754333333545,
                    "velocity": 0.3228346456692913,
                    "duration": 0.13831266666664987
                },
                {
                    "name": "F2",
                    "midi": 41,
                    "time": 295.4358560000021,
                    "velocity": 0.5748031496062992,
                    "duration": 0.13831266666664987
                },
                {
                    "name": "A2",
                    "midi": 45,
                    "time": 295.57416866666875,
                    "velocity": 0.33070866141732286,
                    "duration": 0.13831266666664987
                },
                {
                    "name": "F2",
                    "midi": 41,
                    "time": 295.7124813333354,
                    "velocity": 0.33070866141732286,
                    "duration": 0.13831266666664987
                },
                {
                    "name": "C2",
                    "midi": 36,
                    "time": 295.85079400000205,
                    "velocity": 0.3779527559055118,
                    "duration": 0.13831266666664987
                },
                {
                    "name": "A1",
                    "midi": 33,
                    "time": 295.9891066666687,
                    "velocity": 0.3228346456692913,
                    "duration": 0.13831266666664987
                },
                {
                    "name": "F1",
                    "midi": 29,
                    "time": 296.12741933333535,
                    "velocity": 0.3228346456692913,
                    "duration": 0.13831266666664987
                },
                {
                    "name": "A1",
                    "midi": 33,
                    "time": 296.265732000002,
                    "velocity": 0.4330708661417323,
                    "duration": 0.13831266666664987
                },
                {
                    "name": "F1",
                    "midi": 29,
                    "time": 296.40404466666865,
                    "velocity": 0.25196850393700787,
                    "duration": 0.13831266666664987
                },
                {
                    "name": "A1",
                    "midi": 33,
                    "time": 296.5423573333353,
                    "velocity": 0.25196850393700787,
                    "duration": 0.13831266666664987
                },
                {
                    "name": "F1",
                    "midi": 29,
                    "time": 296.68067000000195,
                    "velocity": 0.30708661417322836,
                    "duration": 0.13831266666664987
                },
                {
                    "name": "A1",
                    "midi": 33,
                    "time": 296.8189826666686,
                    "velocity": 0.25984251968503935,
                    "duration": 0.13831266666664987
                },
                {
                    "name": "F1",
                    "midi": 29,
                    "time": 296.95729533333525,
                    "velocity": 0.25984251968503935,
                    "duration": 0.13831266666664987
                },
                {
                    "name": "A2",
                    "midi": 45,
                    "time": 297.0956080000019,
                    "velocity": 0.3543307086614173,
                    "duration": 0.13831266666664987
                },
                {
                    "name": "F2",
                    "midi": 41,
                    "time": 297.23392066666855,
                    "velocity": 0.2283464566929134,
                    "duration": 0.13831266666664987
                },
                {
                    "name": "A2",
                    "midi": 45,
                    "time": 297.3722333333352,
                    "velocity": 0.2283464566929134,
                    "duration": 0.13831266666664987
                },
                {
                    "name": "F2",
                    "midi": 41,
                    "time": 297.51054600000185,
                    "velocity": 0.2677165354330709,
                    "duration": 0.13831266666664987
                },
                {
                    "name": "A2",
                    "midi": 45,
                    "time": 297.6488586666685,
                    "velocity": 0.2204724409448819,
                    "duration": 0.13831266666664987
                },
                {
                    "name": "F2",
                    "midi": 41,
                    "time": 297.78717133333515,
                    "velocity": 0.2204724409448819,
                    "duration": 0.13831266666664987
                },
                {
                    "name": "A2",
                    "midi": 45,
                    "time": 297.9254840000018,
                    "velocity": 0.2992125984251969,
                    "duration": 0.13831266666664987
                },
                {
                    "name": "F2",
                    "midi": 41,
                    "time": 298.06379666666845,
                    "velocity": 0.1968503937007874,
                    "duration": 0.13831266666664987
                },
                {
                    "name": "A2",
                    "midi": 45,
                    "time": 298.2021093333351,
                    "velocity": 0.1968503937007874,
                    "duration": 0.13831266666664987
                },
                {
                    "name": "F2",
                    "midi": 41,
                    "time": 298.34042200000175,
                    "velocity": 0.23622047244094488,
                    "duration": 0.13831266666664987
                },
                {
                    "name": "A2",
                    "midi": 45,
                    "time": 298.4787346666684,
                    "velocity": 0.1889763779527559,
                    "duration": 0.13831266666664987
                },
                {
                    "name": "F2",
                    "midi": 41,
                    "time": 298.61704733333505,
                    "velocity": 0.1889763779527559,
                    "duration": 0.13831266666664987
                },
                {
                    "name": "E3",
                    "midi": 52,
                    "time": 298.7553600000017,
                    "velocity": 0.29133858267716534,
                    "duration": 0.13831266666664987
                },
                {
                    "name": "E2",
                    "midi": 40,
                    "time": 298.7553600000017,
                    "velocity": 0.2755905511811024,
                    "duration": 0.20746900000000323
                },
                {
                    "name": "F#3",
                    "midi": 54,
                    "time": 298.89367266666835,
                    "velocity": 0.25196850393700787,
                    "duration": 0.13831266666670672
                },
                {
                    "name": "G#3",
                    "midi": 56,
                    "time": 299.03198533333506,
                    "velocity": 0.25196850393700787,
                    "duration": 0.13831266666664987
                },
                {
                    "name": "A3",
                    "midi": 57,
                    "time": 299.1702980000017,
                    "velocity": 0.29133858267716534,
                    "duration": 0.13831266666664987
                },
                {
                    "name": "B3",
                    "midi": 59,
                    "time": 299.30861066666836,
                    "velocity": 0.25984251968503935,
                    "duration": 0.13831266666664987
                },
                {
                    "name": "C#4",
                    "midi": 61,
                    "time": 299.446923333335,
                    "velocity": 0.25984251968503935,
                    "duration": 0.13831266666664987
                },
                {
                    "name": "E3",
                    "midi": 52,
                    "time": 300.00017400000166,
                    "velocity": 0.2755905511811024,
                    "duration": 0.20746900000000323
                },
                {
                    "name": "B3",
                    "midi": 59,
                    "time": 300.00017400000166,
                    "velocity": 0.2755905511811024,
                    "duration": 0.20746900000000323
                },
                {
                    "name": "A2",
                    "midi": 45,
                    "time": 300.41511200000167,
                    "velocity": 0.25984251968503935,
                    "duration": 0.20746900000000323
                },
                {
                    "name": "C#3",
                    "midi": 49,
                    "time": 300.41511200000167,
                    "velocity": 0.25984251968503935,
                    "duration": 0.20746900000000323
                },
                {
                    "name": "A3",
                    "midi": 57,
                    "time": 300.42029872500166,
                    "velocity": 0.31496062992125984,
                    "duration": 0.20746900000000323
                },
                {
                    "name": "C#5",
                    "midi": 73,
                    "time": 300.8300500000017,
                    "velocity": 0.3464566929133858,
                    "duration": 0.31120349999997643
                },
                {
                    "name": "E5",
                    "midi": 76,
                    "time": 300.8300500000017,
                    "velocity": 0.3464566929133858,
                    "duration": 0.31120349999997643
                },
                {
                    "name": "C#5",
                    "midi": 73,
                    "time": 301.14125350000165,
                    "velocity": 0.30708661417322836,
                    "duration": 0.1037344999999732
                },
                {
                    "name": "E5",
                    "midi": 76,
                    "time": 301.14125350000165,
                    "velocity": 0.30708661417322836,
                    "duration": 0.1037344999999732
                },
                {
                    "name": "B4",
                    "midi": 71,
                    "time": 301.2449880000016,
                    "velocity": 0.3464566929133858,
                    "duration": 0.20746900000000323
                },
                {
                    "name": "D5",
                    "midi": 74,
                    "time": 301.2449880000016,
                    "velocity": 0.3464566929133858,
                    "duration": 0.20746900000000323
                },
                {
                    "name": "B3",
                    "midi": 59,
                    "time": 301.65992600000163,
                    "velocity": 0.31496062992125984,
                    "duration": 0.20746900000000323
                },
                {
                    "name": "E3",
                    "midi": 52,
                    "time": 301.65992600000163,
                    "velocity": 0.31496062992125984,
                    "duration": 0.20746900000000323
                },
                {
                    "name": "A3",
                    "midi": 57,
                    "time": 302.07486400000164,
                    "velocity": 0.3543307086614173,
                    "duration": 0.20746900000000323
                },
                {
                    "name": "A2",
                    "midi": 45,
                    "time": 302.07486400000164,
                    "velocity": 0.2992125984251969,
                    "duration": 0.20746900000000323
                },
                {
                    "name": "C#3",
                    "midi": 49,
                    "time": 302.07486400000164,
                    "velocity": 0.2992125984251969,
                    "duration": 0.20746900000000323
                },
                {
                    "name": "C#5",
                    "midi": 73,
                    "time": 302.48980200000165,
                    "velocity": 0.3464566929133858,
                    "duration": 0.31120349999997643
                },
                {
                    "name": "E5",
                    "midi": 76,
                    "time": 302.48980200000165,
                    "velocity": 0.3464566929133858,
                    "duration": 0.31120349999997643
                },
                {
                    "name": "C#5",
                    "midi": 73,
                    "time": 302.8010055000016,
                    "velocity": 0.30708661417322836,
                    "duration": 0.1037344999999732
                },
                {
                    "name": "E5",
                    "midi": 76,
                    "time": 302.8010055000016,
                    "velocity": 0.30708661417322836,
                    "duration": 0.1037344999999732
                },
                {
                    "name": "B4",
                    "midi": 71,
                    "time": 302.9047400000016,
                    "velocity": 0.3464566929133858,
                    "duration": 0.20746900000000323
                },
                {
                    "name": "D5",
                    "midi": 74,
                    "time": 302.9047400000016,
                    "velocity": 0.3464566929133858,
                    "duration": 0.20746900000000323
                },
                {
                    "name": "E3",
                    "midi": 52,
                    "time": 303.3196780000016,
                    "velocity": 0.31496062992125984,
                    "duration": 0.20746900000000323
                },
                {
                    "name": "B3",
                    "midi": 59,
                    "time": 303.3196780000016,
                    "velocity": 0.31496062992125984,
                    "duration": 0.20746900000000323
                },
                {
                    "name": "A2",
                    "midi": 45,
                    "time": 303.7346160000016,
                    "velocity": 0.2992125984251969,
                    "duration": 0.20746900000000323
                },
                {
                    "name": "C#3",
                    "midi": 49,
                    "time": 303.7346160000016,
                    "velocity": 0.2992125984251969,
                    "duration": 0.20746900000000323
                },
                {
                    "name": "A3",
                    "midi": 57,
                    "time": 303.7346160000016,
                    "velocity": 0.3543307086614173,
                    "duration": 0.20746900000000323
                },
                {
                    "name": "C#5",
                    "midi": 73,
                    "time": 304.1495540000016,
                    "velocity": 0.3464566929133858,
                    "duration": 0.31120349999997643
                },
                {
                    "name": "E5",
                    "midi": 76,
                    "time": 304.1495540000016,
                    "velocity": 0.3464566929133858,
                    "duration": 0.31120349999997643
                },
                {
                    "name": "C#5",
                    "midi": 73,
                    "time": 304.4607575000016,
                    "velocity": 0.30708661417322836,
                    "duration": 0.1037344999999732
                },
                {
                    "name": "E5",
                    "midi": 76,
                    "time": 304.4607575000016,
                    "velocity": 0.30708661417322836,
                    "duration": 0.1037344999999732
                },
                {
                    "name": "B4",
                    "midi": 71,
                    "time": 304.56449200000156,
                    "velocity": 0.3464566929133858,
                    "duration": 0.20746900000000323
                },
                {
                    "name": "D5",
                    "midi": 74,
                    "time": 304.56449200000156,
                    "velocity": 0.3464566929133858,
                    "duration": 0.20746900000000323
                },
                {
                    "name": "E2",
                    "midi": 40,
                    "time": 304.97943000000157,
                    "velocity": 0.25196850393700787,
                    "duration": 0.20746900000000323
                },
                {
                    "name": "A1",
                    "midi": 33,
                    "time": 305.3943680000016,
                    "velocity": 0.28346456692913385,
                    "duration": 0.8298760000000129
                },
                {
                    "name": "A2",
                    "midi": 45,
                    "time": 306.2242440000016,
                    "velocity": 0.25984251968503935,
                    "duration": 0.1037344999999732
                },
                {
                    "name": "A2",
                    "midi": 45,
                    "time": 306.43171300000154,
                    "velocity": 0.2204724409448819,
                    "duration": 0.1037344999999732
                },
                {
                    "name": "A2",
                    "midi": 45,
                    "time": 306.6391820000015,
                    "velocity": 0.25984251968503935,
                    "duration": 0.1037344999999732
                },
                {
                    "name": "A2",
                    "midi": 45,
                    "time": 306.84665100000143,
                    "velocity": 0.2204724409448819,
                    "duration": 0.1037344999999732
                },
                {
                    "name": "A2",
                    "midi": 45,
                    "time": 307.0541200000014,
                    "velocity": 0.28346456692913385,
                    "duration": 0.41493800000000647
                },
                {
                    "name": "G3",
                    "midi": 55,
                    "time": 307.4690580000014,
                    "velocity": 0.29133858267716534,
                    "duration": 0.20746900000000323
                },
                {
                    "name": "A2",
                    "midi": 45,
                    "time": 307.8839960000014,
                    "velocity": 0.33858267716535434,
                    "duration": 0.1037344999999732
                },
                {
                    "name": "A2",
                    "midi": 45,
                    "time": 308.09146500000134,
                    "velocity": 0.2992125984251969,
                    "duration": 0.1037344999999732
                },
                {
                    "name": "A2",
                    "midi": 45,
                    "time": 308.2989340000013,
                    "velocity": 0.3543307086614173,
                    "duration": 0.1037344999999732
                },
                {
                    "name": "A2",
                    "midi": 45,
                    "time": 308.5064030000012,
                    "velocity": 0.33070866141732286,
                    "duration": 0.1037344999999732
                },
                {
                    "name": "A2",
                    "midi": 45,
                    "time": 308.7138720000012,
                    "velocity": 0.4330708661417323,
                    "duration": 0.41493800000000647
                },
                {
                    "name": "G3",
                    "midi": 55,
                    "time": 309.1288100000012,
                    "velocity": 0.4015748031496063,
                    "duration": 0.20746900000000323
                },
                {
                    "name": "A3",
                    "midi": 57,
                    "time": 309.5437480000012,
                    "velocity": 0.44881889763779526,
                    "duration": 0.41493800000000647
                },
                {
                    "name": "G4",
                    "midi": 67,
                    "time": 309.9586860000012,
                    "velocity": 0.41732283464566927,
                    "duration": 0.20746900000000323
                },
                {
                    "name": "A3",
                    "midi": 57,
                    "time": 310.3736240000012,
                    "velocity": 0.5511811023622047,
                    "duration": 0.41493800000000647
                },
                {
                    "name": "G4",
                    "midi": 67,
                    "time": 310.7885620000012,
                    "velocity": 0.5354330708661418,
                    "duration": 0.20746900000000323
                },
                {
                    "name": "A3",
                    "midi": 57,
                    "time": 311.2035000000012,
                    "velocity": 0.5826771653543307,
                    "duration": 0.41493800000000647
                },
                {
                    "name": "G4",
                    "midi": 67,
                    "time": 311.6184380000012,
                    "velocity": 0.5748031496062992,
                    "duration": 0.20746900000000323
                },
                {
                    "name": "A#1",
                    "midi": 34,
                    "time": 312.0333760000012,
                    "velocity": 0.5984251968503937,
                    "duration": 0.8298760000000129
                },
                {
                    "name": "A#2",
                    "midi": 46,
                    "time": 312.0333760000012,
                    "velocity": 0.7086614173228346,
                    "duration": 0.8298760000000129
                },
                {
                    "name": "D3",
                    "midi": 50,
                    "time": 312.86325200000124,
                    "velocity": 0.4251968503937008,
                    "duration": 0.1037344999999732
                },
                {
                    "name": "A#3",
                    "midi": 58,
                    "time": 312.86325200000124,
                    "velocity": 0.49606299212598426,
                    "duration": 0.1037344999999732
                },
                {
                    "name": "D3",
                    "midi": 50,
                    "time": 313.0707210000012,
                    "velocity": 0.3779527559055118,
                    "duration": 0.1037344999999732
                },
                {
                    "name": "A#3",
                    "midi": 58,
                    "time": 313.0707210000012,
                    "velocity": 0.44881889763779526,
                    "duration": 0.1037344999999732
                },
                {
                    "name": "D3",
                    "midi": 50,
                    "time": 313.27819000000113,
                    "velocity": 0.4251968503937008,
                    "duration": 0.1037344999999732
                },
                {
                    "name": "A#3",
                    "midi": 58,
                    "time": 313.27819000000113,
                    "velocity": 0.49606299212598426,
                    "duration": 0.1037344999999732
                },
                {
                    "name": "D3",
                    "midi": 50,
                    "time": 313.4856590000011,
                    "velocity": 0.3779527559055118,
                    "duration": 0.1037344999999732
                },
                {
                    "name": "A#3",
                    "midi": 58,
                    "time": 313.4856590000011,
                    "velocity": 0.44881889763779526,
                    "duration": 0.1037344999999732
                },
                {
                    "name": "D3",
                    "midi": 50,
                    "time": 313.693128000001,
                    "velocity": 0.4566929133858268,
                    "duration": 0.41493800000000647
                },
                {
                    "name": "A#3",
                    "midi": 58,
                    "time": 313.693128000001,
                    "velocity": 0.5433070866141733,
                    "duration": 0.41493800000000647
                },
                {
                    "name": "F3",
                    "midi": 53,
                    "time": 314.10806600000103,
                    "velocity": 0.4251968503937008,
                    "duration": 0.20746900000000323
                },
                {
                    "name": "C4",
                    "midi": 60,
                    "time": 314.10806600000103,
                    "velocity": 0.5039370078740157,
                    "duration": 0.20746900000000323
                },
                {
                    "name": "F3",
                    "midi": 53,
                    "time": 314.52300400000104,
                    "velocity": 0.4566929133858268,
                    "duration": 0.41493800000000647
                },
                {
                    "name": "C4",
                    "midi": 60,
                    "time": 314.52300400000104,
                    "velocity": 0.5433070866141733,
                    "duration": 0.41493800000000647
                },
                {
                    "name": "A#3",
                    "midi": 58,
                    "time": 314.93794200000104,
                    "velocity": 0.4251968503937008,
                    "duration": 0.20746900000000323
                },
                {
                    "name": "D4",
                    "midi": 62,
                    "time": 314.93794200000104,
                    "velocity": 0.5039370078740157,
                    "duration": 0.20746900000000323
                },
                {
                    "name": "A#3",
                    "midi": 58,
                    "time": 315.35288000000105,
                    "velocity": 0.4566929133858268,
                    "duration": 0.41493800000000647
                },
                {
                    "name": "D4",
                    "midi": 62,
                    "time": 315.35288000000105,
                    "velocity": 0.5433070866141733,
                    "duration": 0.41493800000000647
                },
                {
                    "name": "F3",
                    "midi": 53,
                    "time": 315.76781800000106,
                    "velocity": 0.4251968503937008,
                    "duration": 0.20746900000000323
                },
                {
                    "name": "C4",
                    "midi": 60,
                    "time": 315.76781800000106,
                    "velocity": 0.5039370078740157,
                    "duration": 0.20746900000000323
                },
                {
                    "name": "F3",
                    "midi": 53,
                    "time": 316.18275600000106,
                    "velocity": 0.4251968503937008,
                    "duration": 0.1037344999999732
                },
                {
                    "name": "C4",
                    "midi": 60,
                    "time": 316.18275600000106,
                    "velocity": 0.49606299212598426,
                    "duration": 0.1037344999999732
                },
                {
                    "name": "F3",
                    "midi": 53,
                    "time": 316.390225000001,
                    "velocity": 0.3779527559055118,
                    "duration": 0.1037344999999732
                },
                {
                    "name": "C4",
                    "midi": 60,
                    "time": 316.390225000001,
                    "velocity": 0.44881889763779526,
                    "duration": 0.1037344999999732
                },
                {
                    "name": "F3",
                    "midi": 53,
                    "time": 316.59769400000096,
                    "velocity": 0.4251968503937008,
                    "duration": 0.1037344999999732
                },
                {
                    "name": "C4",
                    "midi": 60,
                    "time": 316.59769400000096,
                    "velocity": 0.49606299212598426,
                    "duration": 0.1037344999999732
                },
                {
                    "name": "F3",
                    "midi": 53,
                    "time": 316.8051630000009,
                    "velocity": 0.3779527559055118,
                    "duration": 0.1037344999999732
                },
                {
                    "name": "C4",
                    "midi": 60,
                    "time": 316.8051630000009,
                    "velocity": 0.44881889763779526,
                    "duration": 0.1037344999999732
                },
                {
                    "name": "F3",
                    "midi": 53,
                    "time": 317.01263200000085,
                    "velocity": 0.4566929133858268,
                    "duration": 0.41493800000000647
                },
                {
                    "name": "C4",
                    "midi": 60,
                    "time": 317.01263200000085,
                    "velocity": 0.5433070866141733,
                    "duration": 0.41493800000000647
                },
                {
                    "name": "D4",
                    "midi": 62,
                    "time": 317.42757000000086,
                    "velocity": 0.4251968503937008,
                    "duration": 0.20746900000000323
                },
                {
                    "name": "F4",
                    "midi": 65,
                    "time": 317.42757000000086,
                    "velocity": 0.5039370078740157,
                    "duration": 0.20746900000000323
                },
                {
                    "name": "D4",
                    "midi": 62,
                    "time": 317.84250800000086,
                    "velocity": 0.4566929133858268,
                    "duration": 0.41493800000000647
                },
                {
                    "name": "F4",
                    "midi": 65,
                    "time": 317.84250800000086,
                    "velocity": 0.5433070866141733,
                    "duration": 0.41493800000000647
                },
                {
                    "name": "A3",
                    "midi": 57,
                    "time": 318.25744600000087,
                    "velocity": 0.4251968503937008,
                    "duration": 0.20746900000000323
                },
                {
                    "name": "D#4",
                    "midi": 63,
                    "time": 318.25744600000087,
                    "velocity": 0.5039370078740157,
                    "duration": 0.20746900000000323
                },
                {
                    "name": "A3",
                    "midi": 57,
                    "time": 318.6723840000009,
                    "velocity": 0.4566929133858268,
                    "duration": 0.41493800000000647
                },
                {
                    "name": "D#4",
                    "midi": 63,
                    "time": 318.6723840000009,
                    "velocity": 0.5433070866141733,
                    "duration": 0.41493800000000647
                },
                {
                    "name": "A#3",
                    "midi": 58,
                    "time": 319.0873220000009,
                    "velocity": 0.4251968503937008,
                    "duration": 0.20746900000000323
                },
                {
                    "name": "D4",
                    "midi": 62,
                    "time": 319.0873220000009,
                    "velocity": 0.5039370078740157,
                    "duration": 0.20746900000000323
                },
                {
                    "name": "G1",
                    "midi": 31,
                    "time": 319.5022600000009,
                    "velocity": 0.4251968503937008,
                    "duration": 0.1037344999999732
                },
                {
                    "name": "G2",
                    "midi": 43,
                    "time": 319.5022600000009,
                    "velocity": 0.49606299212598426,
                    "duration": 0.1037344999999732
                },
                {
                    "name": "G1",
                    "midi": 31,
                    "time": 319.70972900000083,
                    "velocity": 0.3779527559055118,
                    "duration": 0.1037344999999732
                },
                {
                    "name": "G2",
                    "midi": 43,
                    "time": 319.70972900000083,
                    "velocity": 0.44881889763779526,
                    "duration": 0.1037344999999732
                },
                {
                    "name": "G1",
                    "midi": 31,
                    "time": 319.9171980000008,
                    "velocity": 0.4251968503937008,
                    "duration": 0.1037344999999732
                },
                {
                    "name": "G2",
                    "midi": 43,
                    "time": 319.9171980000008,
                    "velocity": 0.49606299212598426,
                    "duration": 0.1037344999999732
                },
                {
                    "name": "G1",
                    "midi": 31,
                    "time": 320.1246670000007,
                    "velocity": 0.3779527559055118,
                    "duration": 0.1037344999999732
                },
                {
                    "name": "G2",
                    "midi": 43,
                    "time": 320.1246670000007,
                    "velocity": 0.44881889763779526,
                    "duration": 0.1037344999999732
                },
                {
                    "name": "G1",
                    "midi": 31,
                    "time": 320.3321360000007,
                    "velocity": 0.4566929133858268,
                    "duration": 0.41493800000000647
                },
                {
                    "name": "G2",
                    "midi": 43,
                    "time": 320.3321360000007,
                    "velocity": 0.5433070866141733,
                    "duration": 0.41493800000000647
                },
                {
                    "name": "A#1",
                    "midi": 34,
                    "time": 320.7470740000007,
                    "velocity": 0.4251968503937008,
                    "duration": 0.20746900000000323
                },
                {
                    "name": "A#2",
                    "midi": 46,
                    "time": 320.7470740000007,
                    "velocity": 0.5039370078740157,
                    "duration": 0.20746900000000323
                },
                {
                    "name": "A#1",
                    "midi": 34,
                    "time": 321.1620120000007,
                    "velocity": 0.4330708661417323,
                    "duration": 0.1037344999999732
                },
                {
                    "name": "A#2",
                    "midi": 46,
                    "time": 321.1620120000007,
                    "velocity": 0.5118110236220472,
                    "duration": 0.1037344999999732
                },
                {
                    "name": "D2",
                    "midi": 38,
                    "time": 321.57695000000064,
                    "velocity": 0.4015748031496063,
                    "duration": 0.1037344999999732
                },
                {
                    "name": "D3",
                    "midi": 50,
                    "time": 321.57695000000064,
                    "velocity": 0.47244094488188976,
                    "duration": 0.1037344999999732
                },
                {
                    "name": "F2",
                    "midi": 41,
                    "time": 321.9918880000006,
                    "velocity": 0.4566929133858268,
                    "duration": 0.8298760000000129
                },
                {
                    "name": "F3",
                    "midi": 53,
                    "time": 321.9918880000006,
                    "velocity": 0.5433070866141733,
                    "duration": 0.8298760000000129
                },
                {
                    "name": "C#2",
                    "midi": 37,
                    "time": 322.8217640000006,
                    "velocity": 0.4015748031496063,
                    "duration": 0.1037344999999732
                },
                {
                    "name": "C#3",
                    "midi": 49,
                    "time": 322.8217640000006,
                    "velocity": 0.4645669291338583,
                    "duration": 0.1037344999999732
                },
                {
                    "name": "C#2",
                    "midi": 37,
                    "time": 323.02923300000054,
                    "velocity": 0.3543307086614173,
                    "duration": 0.1037344999999732
                },
                {
                    "name": "C#3",
                    "midi": 49,
                    "time": 323.02923300000054,
                    "velocity": 0.4251968503937008,
                    "duration": 0.1037344999999732
                },
                {
                    "name": "C#2",
                    "midi": 37,
                    "time": 323.2367020000005,
                    "velocity": 0.4015748031496063,
                    "duration": 0.1037344999999732
                },
                {
                    "name": "C#3",
                    "midi": 49,
                    "time": 323.2367020000005,
                    "velocity": 0.4645669291338583,
                    "duration": 0.1037344999999732
                },
                {
                    "name": "C#2",
                    "midi": 37,
                    "time": 323.44417100000044,
                    "velocity": 0.3543307086614173,
                    "duration": 0.1037344999999732
                },
                {
                    "name": "C#3",
                    "midi": 49,
                    "time": 323.44417100000044,
                    "velocity": 0.4251968503937008,
                    "duration": 0.1037344999999732
                },
                {
                    "name": "F2",
                    "midi": 41,
                    "time": 323.6516400000004,
                    "velocity": 0.4330708661417323,
                    "duration": 0.8298760000000129
                },
                {
                    "name": "D3",
                    "midi": 50,
                    "time": 323.6516400000004,
                    "velocity": 0.4330708661417323,
                    "duration": 0.8298760000000129
                },
                {
                    "name": "F3",
                    "midi": 53,
                    "time": 323.6516400000004,
                    "velocity": 0.5118110236220472,
                    "duration": 0.8298760000000129
                },
                {
                    "name": "A#3",
                    "midi": 58,
                    "time": 324.4815160000004,
                    "velocity": 0.4330708661417323,
                    "duration": 0.1037344999999732
                },
                {
                    "name": "D3",
                    "midi": 50,
                    "time": 324.4815160000004,
                    "velocity": 0.4330708661417323,
                    "duration": 0.1037344999999732
                },
                {
                    "name": "D4",
                    "midi": 62,
                    "time": 324.4815160000004,
                    "velocity": 0.5118110236220472,
                    "duration": 0.1037344999999732
                },
                {
                    "name": "F3",
                    "midi": 53,
                    "time": 324.89645400000035,
                    "velocity": 0.4015748031496063,
                    "duration": 0.1037344999999732
                },
                {
                    "name": "A3",
                    "midi": 57,
                    "time": 324.89645400000035,
                    "velocity": 0.4015748031496063,
                    "duration": 0.1037344999999732
                },
                {
                    "name": "C4",
                    "midi": 60,
                    "time": 324.89645400000035,
                    "velocity": 0.47244094488188976,
                    "duration": 0.1037344999999732
                },
                {
                    "name": "A#1",
                    "midi": 34,
                    "time": 325.3113920000003,
                    "velocity": 0.5433070866141733,
                    "duration": 0.8298760000000129
                },
                {
                    "name": "A#2",
                    "midi": 46,
                    "time": 325.3113920000003,
                    "velocity": 0.6456692913385826,
                    "duration": 0.8298760000000129
                },
                {
                    "name": "D3",
                    "midi": 50,
                    "time": 326.1412680000003,
                    "velocity": 0.4251968503937008,
                    "duration": 0.1037344999999732
                },
                {
                    "name": "A#3",
                    "midi": 58,
                    "time": 326.1412680000003,
                    "velocity": 0.49606299212598426,
                    "duration": 0.1037344999999732
                },
                {
                    "name": "D3",
                    "midi": 50,
                    "time": 326.34873700000026,
                    "velocity": 0.3779527559055118,
                    "duration": 0.1037344999999732
                },
                {
                    "name": "A#3",
                    "midi": 58,
                    "time": 326.34873700000026,
                    "velocity": 0.44881889763779526,
                    "duration": 0.1037344999999732
                },
                {
                    "name": "D3",
                    "midi": 50,
                    "time": 326.5562060000002,
                    "velocity": 0.4251968503937008,
                    "duration": 0.1037344999999732
                },
                {
                    "name": "A#3",
                    "midi": 58,
                    "time": 326.5562060000002,
                    "velocity": 0.49606299212598426,
                    "duration": 0.1037344999999732
                },
                {
                    "name": "D3",
                    "midi": 50,
                    "time": 326.76367500000015,
                    "velocity": 0.3779527559055118,
                    "duration": 0.1037344999999732
                },
                {
                    "name": "A#3",
                    "midi": 58,
                    "time": 326.76367500000015,
                    "velocity": 0.44881889763779526,
                    "duration": 0.1037344999999732
                },
                {
                    "name": "D3",
                    "midi": 50,
                    "time": 326.9711440000001,
                    "velocity": 0.4566929133858268,
                    "duration": 0.41493800000000647
                },
                {
                    "name": "A#3",
                    "midi": 58,
                    "time": 326.9711440000001,
                    "velocity": 0.5433070866141733,
                    "duration": 0.41493800000000647
                },
                {
                    "name": "F3",
                    "midi": 53,
                    "time": 327.3860820000001,
                    "velocity": 0.4251968503937008,
                    "duration": 0.20746900000000323
                },
                {
                    "name": "C4",
                    "midi": 60,
                    "time": 327.3860820000001,
                    "velocity": 0.5039370078740157,
                    "duration": 0.20746900000000323
                },
                {
                    "name": "F3",
                    "midi": 53,
                    "time": 327.8010200000001,
                    "velocity": 0.4566929133858268,
                    "duration": 0.41493800000000647
                },
                {
                    "name": "C4",
                    "midi": 60,
                    "time": 327.8010200000001,
                    "velocity": 0.5433070866141733,
                    "duration": 0.41493800000000647
                },
                {
                    "name": "A#3",
                    "midi": 58,
                    "time": 328.2159580000001,
                    "velocity": 0.4251968503937008,
                    "duration": 0.20746900000000323
                },
                {
                    "name": "D4",
                    "midi": 62,
                    "time": 328.2159580000001,
                    "velocity": 0.5039370078740157,
                    "duration": 0.20746900000000323
                },
                {
                    "name": "A#3",
                    "midi": 58,
                    "time": 328.6308960000001,
                    "velocity": 0.4566929133858268,
                    "duration": 0.41493800000000647
                },
                {
                    "name": "D4",
                    "midi": 62,
                    "time": 328.6308960000001,
                    "velocity": 0.5433070866141733,
                    "duration": 0.41493800000000647
                },
                {
                    "name": "F3",
                    "midi": 53,
                    "time": 329.0458340000001,
                    "velocity": 0.4251968503937008,
                    "duration": 0.20746900000000323
                },
                {
                    "name": "C4",
                    "midi": 60,
                    "time": 329.0458340000001,
                    "velocity": 0.5039370078740157,
                    "duration": 0.20746900000000323
                },
                {
                    "name": "F3",
                    "midi": 53,
                    "time": 329.46077200000013,
                    "velocity": 0.4251968503937008,
                    "duration": 0.1037344999999732
                },
                {
                    "name": "C4",
                    "midi": 60,
                    "time": 329.46077200000013,
                    "velocity": 0.49606299212598426,
                    "duration": 0.1037344999999732
                },
                {
                    "name": "F3",
                    "midi": 53,
                    "time": 329.6682410000001,
                    "velocity": 0.3779527559055118,
                    "duration": 0.1037344999999732
                },
                {
                    "name": "C4",
                    "midi": 60,
                    "time": 329.6682410000001,
                    "velocity": 0.44881889763779526,
                    "duration": 0.1037344999999732
                },
                {
                    "name": "F3",
                    "midi": 53,
                    "time": 329.87571,
                    "velocity": 0.4251968503937008,
                    "duration": 0.1037344999999732
                },
                {
                    "name": "C4",
                    "midi": 60,
                    "time": 329.87571,
                    "velocity": 0.49606299212598426,
                    "duration": 0.1037344999999732
                },
                {
                    "name": "F3",
                    "midi": 53,
                    "time": 330.083179,
                    "velocity": 0.3779527559055118,
                    "duration": 0.1037344999999732
                },
                {
                    "name": "C4",
                    "midi": 60,
                    "time": 330.083179,
                    "velocity": 0.44881889763779526,
                    "duration": 0.1037344999999732
                },
                {
                    "name": "F3",
                    "midi": 53,
                    "time": 330.2906479999999,
                    "velocity": 0.4566929133858268,
                    "duration": 0.41493800000000647
                },
                {
                    "name": "C4",
                    "midi": 60,
                    "time": 330.2906479999999,
                    "velocity": 0.5433070866141733,
                    "duration": 0.41493800000000647
                },
                {
                    "name": "D4",
                    "midi": 62,
                    "time": 330.7055859999999,
                    "velocity": 0.4251968503937008,
                    "duration": 0.20746900000000323
                },
                {
                    "name": "F4",
                    "midi": 65,
                    "time": 330.7055859999999,
                    "velocity": 0.5039370078740157,
                    "duration": 0.20746900000000323
                },
                {
                    "name": "D4",
                    "midi": 62,
                    "time": 331.12052399999993,
                    "velocity": 0.4566929133858268,
                    "duration": 0.41493800000000647
                },
                {
                    "name": "F4",
                    "midi": 65,
                    "time": 331.12052399999993,
                    "velocity": 0.5433070866141733,
                    "duration": 0.41493800000000647
                },
                {
                    "name": "A3",
                    "midi": 57,
                    "time": 331.53546199999994,
                    "velocity": 0.4251968503937008,
                    "duration": 0.20746900000000323
                },
                {
                    "name": "D#4",
                    "midi": 63,
                    "time": 331.53546199999994,
                    "velocity": 0.5039370078740157,
                    "duration": 0.20746900000000323
                },
                {
                    "name": "A3",
                    "midi": 57,
                    "time": 331.95039999999995,
                    "velocity": 0.4566929133858268,
                    "duration": 0.41493800000000647
                },
                {
                    "name": "D#4",
                    "midi": 63,
                    "time": 331.95039999999995,
                    "velocity": 0.5433070866141733,
                    "duration": 0.41493800000000647
                },
                {
                    "name": "A#3",
                    "midi": 58,
                    "time": 332.36533799999995,
                    "velocity": 0.4251968503937008,
                    "duration": 0.20746900000000323
                },
                {
                    "name": "D4",
                    "midi": 62,
                    "time": 332.36533799999995,
                    "velocity": 0.5039370078740157,
                    "duration": 0.20746900000000323
                },
                {
                    "name": "G1",
                    "midi": 31,
                    "time": 332.78027599999996,
                    "velocity": 0.49606299212598426,
                    "duration": 0.13831266666664987
                },
                {
                    "name": "A#1",
                    "midi": 34,
                    "time": 332.9185886666666,
                    "velocity": 0.4566929133858268,
                    "duration": 0.13831266666664987
                },
                {
                    "name": "C2",
                    "midi": 36,
                    "time": 333.05690133333326,
                    "velocity": 0.4566929133858268,
                    "duration": 0.13831266666664987
                },
                {
                    "name": "D2",
                    "midi": 38,
                    "time": 333.1952139999999,
                    "velocity": 0.49606299212598426,
                    "duration": 0.13831266666664987
                },
                {
                    "name": "E2",
                    "midi": 40,
                    "time": 333.33352666666656,
                    "velocity": 0.4645669291338583,
                    "duration": 0.13831266666664987
                },
                {
                    "name": "F#2",
                    "midi": 42,
                    "time": 333.4718393333332,
                    "velocity": 0.4645669291338583,
                    "duration": 0.13831266666664987
                },
                {
                    "name": "G2",
                    "midi": 43,
                    "time": 333.61015199999986,
                    "velocity": 0.5433070866141733,
                    "duration": 0.41493800000000647
                },
                {
                    "name": "A#2",
                    "midi": 46,
                    "time": 334.02508999999986,
                    "velocity": 0.5039370078740157,
                    "duration": 0.20746900000000323
                },
                {
                    "name": "A#2",
                    "midi": 46,
                    "time": 334.44002799999987,
                    "velocity": 0.5118110236220472,
                    "duration": 0.13831266666664987
                },
                {
                    "name": "A2",
                    "midi": 45,
                    "time": 334.5783406666665,
                    "velocity": 0.48031496062992124,
                    "duration": 0.13831266666664987
                },
                {
                    "name": "A#2",
                    "midi": 46,
                    "time": 334.71665333333317,
                    "velocity": 0.48031496062992124,
                    "duration": 0.13831266666664987
                },
                {
                    "name": "D3",
                    "midi": 50,
                    "time": 334.8549659999998,
                    "velocity": 0.5118110236220472,
                    "duration": 0.13831266666664987
                },
                {
                    "name": "C3",
                    "midi": 48,
                    "time": 334.99327866666647,
                    "velocity": 0.48031496062992124,
                    "duration": 0.13831266666664987
                },
                {
                    "name": "A#2",
                    "midi": 46,
                    "time": 335.1315913333331,
                    "velocity": 0.48031496062992124,
                    "duration": 0.13831266666664987
                },
                {
                    "name": "F3",
                    "midi": 53,
                    "time": 335.26990399999977,
                    "velocity": 0.5433070866141733,
                    "duration": 0.8298760000000129
                },
                {
                    "name": "G#2",
                    "midi": 44,
                    "time": 336.0997799999998,
                    "velocity": 0.4015748031496063,
                    "duration": 0.1037344999999732
                },
                {
                    "name": "G#3",
                    "midi": 56,
                    "time": 336.0997799999998,
                    "velocity": 0.4645669291338583,
                    "duration": 0.1037344999999732
                },
                {
                    "name": "G#2",
                    "midi": 44,
                    "time": 336.30724899999973,
                    "velocity": 0.3543307086614173,
                    "duration": 0.1037344999999732
                },
                {
                    "name": "G#3",
                    "midi": 56,
                    "time": 336.30724899999973,
                    "velocity": 0.4251968503937008,
                    "duration": 0.1037344999999732
                },
                {
                    "name": "G#2",
                    "midi": 44,
                    "time": 336.5147179999997,
                    "velocity": 0.4015748031496063,
                    "duration": 0.1037344999999732
                },
                {
                    "name": "G#3",
                    "midi": 56,
                    "time": 336.5147179999997,
                    "velocity": 0.4645669291338583,
                    "duration": 0.1037344999999732
                },
                {
                    "name": "G#2",
                    "midi": 44,
                    "time": 336.7221869999996,
                    "velocity": 0.3543307086614173,
                    "duration": 0.1037344999999732
                },
                {
                    "name": "G#3",
                    "midi": 56,
                    "time": 336.7221869999996,
                    "velocity": 0.4251968503937008,
                    "duration": 0.1037344999999732
                },
                {
                    "name": "C3",
                    "midi": 48,
                    "time": 336.92965599999957,
                    "velocity": 0.4330708661417323,
                    "duration": 0.8298760000000129
                },
                {
                    "name": "A3",
                    "midi": 57,
                    "time": 336.92965599999957,
                    "velocity": 0.4330708661417323,
                    "duration": 0.8298760000000129
                },
                {
                    "name": "C4",
                    "midi": 60,
                    "time": 336.92965599999957,
                    "velocity": 0.5118110236220472,
                    "duration": 0.8298760000000129
                },
                {
                    "name": "F4",
                    "midi": 65,
                    "time": 337.7595319999996,
                    "velocity": 0.4330708661417323,
                    "duration": 0.1037344999999732
                },
                {
                    "name": "A3",
                    "midi": 57,
                    "time": 337.7595319999996,
                    "velocity": 0.4330708661417323,
                    "duration": 0.1037344999999732
                },
                {
                    "name": "A4",
                    "midi": 69,
                    "time": 337.7595319999996,
                    "velocity": 0.5118110236220472,
                    "duration": 0.1037344999999732
                },
                {
                    "name": "C4",
                    "midi": 60,
                    "time": 338.17446999999953,
                    "velocity": 0.4015748031496063,
                    "duration": 0.1037344999999732
                },
                {
                    "name": "E4",
                    "midi": 64,
                    "time": 338.17446999999953,
                    "velocity": 0.4015748031496063,
                    "duration": 0.1037344999999732
                },
                {
                    "name": "G4",
                    "midi": 67,
                    "time": 338.17446999999953,
                    "velocity": 0.47244094488188976,
                    "duration": 0.1037344999999732
                },
                {
                    "name": "F2",
                    "midi": 41,
                    "time": 338.5894079999995,
                    "velocity": 0.5984251968503937,
                    "duration": 0.13831266666664987
                },
                {
                    "name": "G2",
                    "midi": 43,
                    "time": 338.72772066666613,
                    "velocity": 0.36220472440944884,
                    "duration": 0.13831266666664987
                },
                {
                    "name": "A2",
                    "midi": 45,
                    "time": 338.8660333333328,
                    "velocity": 0.36220472440944884,
                    "duration": 0.13831266666664987
                },
                {
                    "name": "A#2",
                    "midi": 46,
                    "time": 339.00434599999943,
                    "velocity": 0.4251968503937008,
                    "duration": 0.13831266666664987
                },
                {
                    "name": "C3",
                    "midi": 48,
                    "time": 339.1426586666661,
                    "velocity": 0.36220472440944884,
                    "duration": 0.13831266666664987
                },
                {
                    "name": "D3",
                    "midi": 50,
                    "time": 339.28097133333273,
                    "velocity": 0.36220472440944884,
                    "duration": 0.13831266666664987
                },
                {
                    "name": "E3",
                    "midi": 52,
                    "time": 339.4192839999994,
                    "velocity": 0.4330708661417323,
                    "duration": 0.20746900000000323
                },
                {
                    "name": "C4",
                    "midi": 60,
                    "time": 339.8342219999994,
                    "velocity": 0.4330708661417323,
                    "duration": 0.1037344999999732
                },
                {
                    "name": "E3",
                    "midi": 52,
                    "time": 339.8342219999994,
                    "velocity": 0.36220472440944884,
                    "duration": 0.1037344999999732
                },
                {
                    "name": "C4",
                    "midi": 60,
                    "time": 340.04169099999933,
                    "velocity": 0.3937007874015748,
                    "duration": 0.1037344999999732
                },
                {
                    "name": "E3",
                    "midi": 52,
                    "time": 340.04169099999933,
                    "velocity": 0.33070866141732286,
                    "duration": 0.1037344999999732
                },
                {
                    "name": "F3",
                    "midi": 53,
                    "time": 340.2491599999993,
                    "velocity": 0.36220472440944884,
                    "duration": 0.41493800000000647
                },
                {
                    "name": "C4",
                    "midi": 60,
                    "time": 340.2491599999993,
                    "velocity": 0.4330708661417323,
                    "duration": 0.41493800000000647
                },
                {
                    "name": "A3",
                    "midi": 57,
                    "time": 340.6640979999993,
                    "velocity": 0.41732283464566927,
                    "duration": 0.20746900000000323
                },
                {
                    "name": "G2",
                    "midi": 43,
                    "time": 341.0790359999993,
                    "velocity": 0.36220472440944884,
                    "duration": 0.1037344999999732
                },
                {
                    "name": "C3",
                    "midi": 48,
                    "time": 341.0790359999993,
                    "velocity": 0.4330708661417323,
                    "duration": 0.1037344999999732
                },
                {
                    "name": "E2",
                    "midi": 40,
                    "time": 341.49397399999924,
                    "velocity": 0.33858267716535434,
                    "duration": 0.1037344999999732
                },
                {
                    "name": "C3",
                    "midi": 48,
                    "time": 341.49397399999924,
                    "velocity": 0.4015748031496063,
                    "duration": 0.1037344999999732
                },
                {
                    "name": "F2",
                    "midi": 41,
                    "time": 341.9089119999992,
                    "velocity": 0.5984251968503937,
                    "duration": 0.13831266666664987
                },
                {
                    "name": "G2",
                    "midi": 43,
                    "time": 342.04722466666584,
                    "velocity": 0.36220472440944884,
                    "duration": 0.13831266666664987
                },
                {
                    "name": "A2",
                    "midi": 45,
                    "time": 342.1855373333325,
                    "velocity": 0.36220472440944884,
                    "duration": 0.13831266666664987
                },
                {
                    "name": "A#2",
                    "midi": 46,
                    "time": 342.32384999999914,
                    "velocity": 0.4251968503937008,
                    "duration": 0.13831266666664987
                },
                {
                    "name": "C3",
                    "midi": 48,
                    "time": 342.4621626666658,
                    "velocity": 0.36220472440944884,
                    "duration": 0.13831266666664987
                },
                {
                    "name": "D3",
                    "midi": 50,
                    "time": 342.60047533333244,
                    "velocity": 0.36220472440944884,
                    "duration": 0.13831266666664987
                },
                {
                    "name": "E3",
                    "midi": 52,
                    "time": 342.7387879999991,
                    "velocity": 0.4330708661417323,
                    "duration": 0.20746900000000323
                },
                {
                    "name": "C4",
                    "midi": 60,
                    "time": 343.1537259999991,
                    "velocity": 0.4330708661417323,
                    "duration": 0.1037344999999732
                },
                {
                    "name": "E3",
                    "midi": 52,
                    "time": 343.1537259999991,
                    "velocity": 0.36220472440944884,
                    "duration": 0.1037344999999732
                },
                {
                    "name": "C4",
                    "midi": 60,
                    "time": 343.36119499999904,
                    "velocity": 0.3937007874015748,
                    "duration": 0.1037344999999732
                },
                {
                    "name": "E3",
                    "midi": 52,
                    "time": 343.36119499999904,
                    "velocity": 0.33070866141732286,
                    "duration": 0.1037344999999732
                },
                {
                    "name": "F3",
                    "midi": 53,
                    "time": 343.568663999999,
                    "velocity": 0.36220472440944884,
                    "duration": 0.41493800000000647
                },
                {
                    "name": "C4",
                    "midi": 60,
                    "time": 343.568663999999,
                    "velocity": 0.4330708661417323,
                    "duration": 0.41493800000000647
                },
                {
                    "name": "A3",
                    "midi": 57,
                    "time": 343.983601999999,
                    "velocity": 0.41732283464566927,
                    "duration": 0.20746900000000323
                },
                {
                    "name": "G2",
                    "midi": 43,
                    "time": 344.398539999999,
                    "velocity": 0.36220472440944884,
                    "duration": 0.1037344999999732
                },
                {
                    "name": "C3",
                    "midi": 48,
                    "time": 344.398539999999,
                    "velocity": 0.4330708661417323,
                    "duration": 0.1037344999999732
                },
                {
                    "name": "E2",
                    "midi": 40,
                    "time": 344.81347799999895,
                    "velocity": 0.33858267716535434,
                    "duration": 0.1037344999999732
                },
                {
                    "name": "C3",
                    "midi": 48,
                    "time": 344.81347799999895,
                    "velocity": 0.4015748031496063,
                    "duration": 0.1037344999999732
                },
                {
                    "name": "F2",
                    "midi": 41,
                    "time": 345.2284159999989,
                    "velocity": 0.36220472440944884,
                    "duration": 0.41493800000000647
                },
                {
                    "name": "C3",
                    "midi": 48,
                    "time": 345.2284159999989,
                    "velocity": 0.4330708661417323,
                    "duration": 0.41493800000000647
                },
                {
                    "name": "A2",
                    "midi": 45,
                    "time": 345.6433539999989,
                    "velocity": 0.4015748031496063,
                    "duration": 0.20746900000000323
                },
                {
                    "name": "A#2",
                    "midi": 46,
                    "time": 346.0582919999989,
                    "velocity": 0.33858267716535434,
                    "duration": 0.13831266666664987
                },
                {
                    "name": "A2",
                    "midi": 45,
                    "time": 346.19660466666556,
                    "velocity": 0.30708661417322836,
                    "duration": 0.13831266666664987
                },
                {
                    "name": "G2",
                    "midi": 43,
                    "time": 346.3349173333322,
                    "velocity": 0.30708661417322836,
                    "duration": 0.13831266666664987
                },
                {
                    "name": "C#3",
                    "midi": 49,
                    "time": 346.47322999999886,
                    "velocity": 0.3464566929133858,
                    "duration": 0.13831266666664987
                },
                {
                    "name": "C3",
                    "midi": 48,
                    "time": 346.6115426666655,
                    "velocity": 0.30708661417322836,
                    "duration": 0.13831266666664987
                },
                {
                    "name": "A#2",
                    "midi": 46,
                    "time": 346.74985533333216,
                    "velocity": 0.30708661417322836,
                    "duration": 0.13831266666664987
                },
                {
                    "name": "C#3",
                    "midi": 49,
                    "time": 346.8881679999988,
                    "velocity": 0.3464566929133858,
                    "duration": 0.13831266666664987
                },
                {
                    "name": "C3",
                    "midi": 48,
                    "time": 347.02648066666546,
                    "velocity": 0.30708661417322836,
                    "duration": 0.13831266666664987
                },
                {
                    "name": "A#2",
                    "midi": 46,
                    "time": 347.1647933333321,
                    "velocity": 0.30708661417322836,
                    "duration": 0.13831266666664987
                },
                {
                    "name": "C#3",
                    "midi": 49,
                    "time": 347.30310599999876,
                    "velocity": 0.3858267716535433,
                    "duration": 0.13831266666664987
                },
                {
                    "name": "C3",
                    "midi": 48,
                    "time": 347.4414186666654,
                    "velocity": 0.3464566929133858,
                    "duration": 0.13831266666664987
                },
                {
                    "name": "A#2",
                    "midi": 46,
                    "time": 347.57973133333206,
                    "velocity": 0.3779527559055118,
                    "duration": 0.13831266666664987
                },
                {
                    "name": "C#3",
                    "midi": 49,
                    "time": 347.7180439999987,
                    "velocity": 0.4330708661417323,
                    "duration": 0.13831266666664987
                },
                {
                    "name": "C3",
                    "midi": 48,
                    "time": 347.85635666666536,
                    "velocity": 0.36220472440944884,
                    "duration": 0.13831266666664987
                },
                {
                    "name": "A#2",
                    "midi": 46,
                    "time": 347.994669333332,
                    "velocity": 0.33070866141732286,
                    "duration": 0.13831266666664987
                },
                {
                    "name": "C#3",
                    "midi": 49,
                    "time": 348.13298199999866,
                    "velocity": 0.3858267716535433,
                    "duration": 0.13831266666664987
                },
                {
                    "name": "C3",
                    "midi": 48,
                    "time": 348.2712946666653,
                    "velocity": 0.30708661417322836,
                    "duration": 0.13831266666664987
                },
                {
                    "name": "B2",
                    "midi": 47,
                    "time": 348.40960733333196,
                    "velocity": 0.30708661417322836,
                    "duration": 0.13831266666664987
                },
                {
                    "name": "C3",
                    "midi": 48,
                    "time": 348.5479199999986,
                    "velocity": 0.29133858267716534,
                    "duration": 0.8298760000000129
                },
                {
                    "name": "D#3",
                    "midi": 51,
                    "time": 348.5479199999986,
                    "velocity": 0.29133858267716534,
                    "duration": 0.8298760000000129
                },
                {
                    "name": "G#3",
                    "midi": 56,
                    "time": 348.5479199999986,
                    "velocity": 0.3464566929133858,
                    "duration": 0.8298760000000129
                },
                {
                    "name": "D#3",
                    "midi": 51,
                    "time": 349.3777959999986,
                    "velocity": 0.2677165354330709,
                    "duration": 0.8298760000000129
                },
                {
                    "name": "G3",
                    "midi": 55,
                    "time": 349.3777959999986,
                    "velocity": 0.2677165354330709,
                    "duration": 0.8298760000000129
                },
                {
                    "name": "C#4",
                    "midi": 61,
                    "time": 349.3777959999986,
                    "velocity": 0.3228346456692913,
                    "duration": 0.8298760000000129
                },
                {
                    "name": "A#3",
                    "midi": 58,
                    "time": 349.3777959999986,
                    "velocity": 0.2677165354330709,
                    "duration": 0.8298760000000129
                },
                {
                    "name": "G#2",
                    "midi": 44,
                    "time": 350.20767199999864,
                    "velocity": 0.4094488188976378,
                    "duration": 0.13831266666664987
                },
                {
                    "name": "A#2",
                    "midi": 46,
                    "time": 350.3459846666653,
                    "velocity": 0.2677165354330709,
                    "duration": 0.13831266666664987
                },
                {
                    "name": "C3",
                    "midi": 48,
                    "time": 350.48429733333194,
                    "velocity": 0.2677165354330709,
                    "duration": 0.13831266666664987
                },
                {
                    "name": "C#3",
                    "midi": 49,
                    "time": 350.6226099999986,
                    "velocity": 0.31496062992125984,
                    "duration": 0.13831266666664987
                },
                {
                    "name": "D#3",
                    "midi": 51,
                    "time": 350.76092266666524,
                    "velocity": 0.2677165354330709,
                    "duration": 0.13831266666664987
                },
                {
                    "name": "F3",
                    "midi": 53,
                    "time": 350.8992353333319,
                    "velocity": 0.2677165354330709,
                    "duration": 0.13831266666664987
                },
                {
                    "name": "G3",
                    "midi": 55,
                    "time": 351.03754799999854,
                    "velocity": 0.3228346456692913,
                    "duration": 0.20746900000000323
                },
                {
                    "name": "D#4",
                    "midi": 63,
                    "time": 351.45248599999854,
                    "velocity": 0.3228346456692913,
                    "duration": 0.1037344999999732
                },
                {
                    "name": "G3",
                    "midi": 55,
                    "time": 351.45248599999854,
                    "velocity": 0.2677165354330709,
                    "duration": 0.1037344999999732
                },
                {
                    "name": "D#4",
                    "midi": 63,
                    "time": 351.6599549999985,
                    "velocity": 0.29133858267716534,
                    "duration": 0.1037344999999732
                },
                {
                    "name": "G3",
                    "midi": 55,
                    "time": 351.6599549999985,
                    "velocity": 0.2440944881889764,
                    "duration": 0.1037344999999732
                },
                {
                    "name": "G#3",
                    "midi": 56,
                    "time": 351.86742399999844,
                    "velocity": 0.2677165354330709,
                    "duration": 0.41493800000000647
                },
                {
                    "name": "D#4",
                    "midi": 63,
                    "time": 351.86742399999844,
                    "velocity": 0.3228346456692913,
                    "duration": 0.41493800000000647
                },
                {
                    "name": "C4",
                    "midi": 60,
                    "time": 352.28236199999844,
                    "velocity": 0.30708661417322836,
                    "duration": 0.20746900000000323
                },
                {
                    "name": "A#2",
                    "midi": 46,
                    "time": 352.69729999999845,
                    "velocity": 0.2677165354330709,
                    "duration": 0.1037344999999732
                },
                {
                    "name": "D#3",
                    "midi": 51,
                    "time": 352.69729999999845,
                    "velocity": 0.3228346456692913,
                    "duration": 0.1037344999999732
                },
                {
                    "name": "G2",
                    "midi": 43,
                    "time": 353.1122379999984,
                    "velocity": 0.25196850393700787,
                    "duration": 0.1037344999999732
                },
                {
                    "name": "D#3",
                    "midi": 51,
                    "time": 353.1122379999984,
                    "velocity": 0.2992125984251969,
                    "duration": 0.1037344999999732
                },
                {
                    "name": "G#2",
                    "midi": 44,
                    "time": 353.52717599999835,
                    "velocity": 0.4094488188976378,
                    "duration": 0.13831266666664987
                },
                {
                    "name": "A#2",
                    "midi": 46,
                    "time": 353.665488666665,
                    "velocity": 0.2677165354330709,
                    "duration": 0.13831266666664987
                },
                {
                    "name": "C3",
                    "midi": 48,
                    "time": 353.80380133333165,
                    "velocity": 0.2677165354330709,
                    "duration": 0.13831266666664987
                },
                {
                    "name": "C#3",
                    "midi": 49,
                    "time": 353.9421139999983,
                    "velocity": 0.31496062992125984,
                    "duration": 0.13831266666664987
                },
                {
                    "name": "D#3",
                    "midi": 51,
                    "time": 354.08042666666495,
                    "velocity": 0.2677165354330709,
                    "duration": 0.13831266666664987
                },
                {
                    "name": "F3",
                    "midi": 53,
                    "time": 354.2187393333316,
                    "velocity": 0.2677165354330709,
                    "duration": 0.13831266666664987
                },
                {
                    "name": "G3",
                    "midi": 55,
                    "time": 354.35705199999825,
                    "velocity": 0.3228346456692913,
                    "duration": 0.20746900000000323
                },
                {
                    "name": "D#4",
                    "midi": 63,
                    "time": 354.77198999999825,
                    "velocity": 0.3228346456692913,
                    "duration": 0.1037344999999732
                },
                {
                    "name": "G3",
                    "midi": 55,
                    "time": 354.77198999999825,
                    "velocity": 0.2677165354330709,
                    "duration": 0.1037344999999732
                },
                {
                    "name": "D#4",
                    "midi": 63,
                    "time": 354.9794589999982,
                    "velocity": 0.29133858267716534,
                    "duration": 0.1037344999999732
                },
                {
                    "name": "G3",
                    "midi": 55,
                    "time": 354.9794589999982,
                    "velocity": 0.2440944881889764,
                    "duration": 0.1037344999999732
                },
                {
                    "name": "G#3",
                    "midi": 56,
                    "time": 355.18692799999815,
                    "velocity": 0.2677165354330709,
                    "duration": 0.41493800000000647
                },
                {
                    "name": "D#4",
                    "midi": 63,
                    "time": 355.18692799999815,
                    "velocity": 0.3228346456692913,
                    "duration": 0.41493800000000647
                },
                {
                    "name": "C4",
                    "midi": 60,
                    "time": 355.60186599999815,
                    "velocity": 0.30708661417322836,
                    "duration": 0.20746900000000323
                },
                {
                    "name": "A#2",
                    "midi": 46,
                    "time": 356.01680399999816,
                    "velocity": 0.2677165354330709,
                    "duration": 0.1037344999999732
                },
                {
                    "name": "D#3",
                    "midi": 51,
                    "time": 356.01680399999816,
                    "velocity": 0.3228346456692913,
                    "duration": 0.1037344999999732
                },
                {
                    "name": "G2",
                    "midi": 43,
                    "time": 356.4317419999981,
                    "velocity": 0.25196850393700787,
                    "duration": 0.1037344999999732
                },
                {
                    "name": "D#3",
                    "midi": 51,
                    "time": 356.4317419999981,
                    "velocity": 0.2992125984251969,
                    "duration": 0.1037344999999732
                },
                {
                    "name": "G#2",
                    "midi": 44,
                    "time": 356.84667999999806,
                    "velocity": 0.2677165354330709,
                    "duration": 0.41493800000000647
                },
                {
                    "name": "D#3",
                    "midi": 51,
                    "time": 356.84667999999806,
                    "velocity": 0.3228346456692913,
                    "duration": 0.8298760000000129
                },
                {
                    "name": "C3",
                    "midi": 48,
                    "time": 357.26161799999807,
                    "velocity": 0.2992125984251969,
                    "duration": 0.20746900000000323
                },
                {
                    "name": "C#3",
                    "midi": 49,
                    "time": 357.6765559999981,
                    "velocity": 0.25196850393700787,
                    "duration": 0.13831266666664987
                },
                {
                    "name": "C3",
                    "midi": 48,
                    "time": 357.8148686666647,
                    "velocity": 0.2283464566929134,
                    "duration": 0.13831266666664987
                },
                {
                    "name": "A#2",
                    "midi": 46,
                    "time": 357.9531813333314,
                    "velocity": 0.2283464566929134,
                    "duration": 0.13831266666664987
                },
                {
                    "name": "E3",
                    "midi": 52,
                    "time": 358.091493999998,
                    "velocity": 0.25984251968503935,
                    "duration": 0.13831266666664987
                },
                {
                    "name": "D#3",
                    "midi": 51,
                    "time": 358.2298066666647,
                    "velocity": 0.2283464566929134,
                    "duration": 0.13831266666664987
                },
                {
                    "name": "C#3",
                    "midi": 49,
                    "time": 358.3681193333313,
                    "velocity": 0.2283464566929134,
                    "duration": 0.13831266666664987
                },
                {
                    "name": "E3",
                    "midi": 52,
                    "time": 358.506431999998,
                    "velocity": 0.25984251968503935,
                    "duration": 0.13831266666664987
                },
                {
                    "name": "D#3",
                    "midi": 51,
                    "time": 358.6447446666646,
                    "velocity": 0.2283464566929134,
                    "duration": 0.13831266666664987
                },
                {
                    "name": "C#3",
                    "midi": 49,
                    "time": 358.78305733333127,
                    "velocity": 0.2283464566929134,
                    "duration": 0.13831266666664987
                },
                {
                    "name": "E3",
                    "midi": 52,
                    "time": 358.9213699999979,
                    "velocity": 0.28346456692913385,
                    "duration": 0.13831266666664987
                },
                {
                    "name": "D#3",
                    "midi": 51,
                    "time": 359.05968266666457,
                    "velocity": 0.25984251968503935,
                    "duration": 0.13831266666664987
                },
                {
                    "name": "C#3",
                    "midi": 49,
                    "time": 359.1979953333312,
                    "velocity": 0.28346456692913385,
                    "duration": 0.13831266666664987
                },
                {
                    "name": "E3",
                    "midi": 52,
                    "time": 359.33630799999787,
                    "velocity": 0.3228346456692913,
                    "duration": 0.13831266666664987
                },
                {
                    "name": "D#3",
                    "midi": 51,
                    "time": 359.4746206666645,
                    "velocity": 0.2677165354330709,
                    "duration": 0.13831266666664987
                },
                {
                    "name": "C#3",
                    "midi": 49,
                    "time": 359.61293333333117,
                    "velocity": 0.2440944881889764,
                    "duration": 0.13831266666664987
                },
                {
                    "name": "E3",
                    "midi": 52,
                    "time": 359.7512459999978,
                    "velocity": 0.28346456692913385,
                    "duration": 0.13831266666664987
                },
                {
                    "name": "D#3",
                    "midi": 51,
                    "time": 359.88955866666447,
                    "velocity": 0.2283464566929134,
                    "duration": 0.13831266666664987
                },
                {
                    "name": "D3",
                    "midi": 50,
                    "time": 360.0278713333311,
                    "velocity": 0.2283464566929134,
                    "duration": 0.13831266666664987
                },
                {
                    "name": "D#3",
                    "midi": 51,
                    "time": 360.16618399999777,
                    "velocity": 0.3464566929133858,
                    "duration": 0.8298760000000129
                },
                {
                    "name": "F#3",
                    "midi": 54,
                    "time": 360.16618399999777,
                    "velocity": 0.3464566929133858,
                    "duration": 0.8298760000000129
                },
                {
                    "name": "B3",
                    "midi": 59,
                    "time": 360.16618399999777,
                    "velocity": 0.4094488188976378,
                    "duration": 0.8298760000000129
                },
                {
                    "name": "F#3",
                    "midi": 54,
                    "time": 360.9960599999978,
                    "velocity": 0.4015748031496063,
                    "duration": 0.8298760000000129
                },
                {
                    "name": "E4",
                    "midi": 64,
                    "time": 360.9960599999978,
                    "velocity": 0.47244094488188976,
                    "duration": 0.8298760000000129
                },
                {
                    "name": "C#4",
                    "midi": 61,
                    "time": 360.9960599999978,
                    "velocity": 0.4015748031496063,
                    "duration": 0.8298760000000129
                },
                {
                    "name": "B1",
                    "midi": 35,
                    "time": 361.8259359999978,
                    "velocity": 0.49606299212598426,
                    "duration": 0.13831266666664987
                },
                {
                    "name": "A#1",
                    "midi": 34,
                    "time": 361.96424866666445,
                    "velocity": 0.4094488188976378,
                    "duration": 0.13831266666664987
                },
                {
                    "name": "B1",
                    "midi": 35,
                    "time": 362.1025613333311,
                    "velocity": 0.4409448818897638,
                    "duration": 0.13831266666664987
                },
                {
                    "name": "D2",
                    "midi": 38,
                    "time": 362.24087399999775,
                    "velocity": 0.49606299212598426,
                    "duration": 0.13831266666664987
                },
                {
                    "name": "C#2",
                    "midi": 37,
                    "time": 362.3791866666644,
                    "velocity": 0.41732283464566927,
                    "duration": 0.13831266666664987
                },
                {
                    "name": "B1",
                    "midi": 35,
                    "time": 362.51749933333105,
                    "velocity": 0.41732283464566927,
                    "duration": 0.13831266666664987
                },
                {
                    "name": "E2",
                    "midi": 40,
                    "time": 362.6558119999977,
                    "velocity": 0.49606299212598426,
                    "duration": 0.13831266666664987
                },
                {
                    "name": "D2",
                    "midi": 38,
                    "time": 362.79412466666435,
                    "velocity": 0.4094488188976378,
                    "duration": 0.13831266666664987
                },
                {
                    "name": "C#2",
                    "midi": 37,
                    "time": 362.932437333331,
                    "velocity": 0.4094488188976378,
                    "duration": 0.13831266666664987
                },
                {
                    "name": "F#2",
                    "midi": 42,
                    "time": 363.07074999999764,
                    "velocity": 0.49606299212598426,
                    "duration": 0.13831266666664987
                },
                {
                    "name": "E2",
                    "midi": 40,
                    "time": 363.2090626666643,
                    "velocity": 0.4330708661417323,
                    "duration": 0.13831266666664987
                },
                {
                    "name": "D2",
                    "midi": 38,
                    "time": 363.34737533333094,
                    "velocity": 0.4330708661417323,
                    "duration": 0.13831266666664987
                },
                {
                    "name": "B2",
                    "midi": 47,
                    "time": 363.4856879999976,
                    "velocity": 0.49606299212598426,
                    "duration": 0.13831266666664987
                },
                {
                    "name": "A#2",
                    "midi": 46,
                    "time": 363.62400066666424,
                    "velocity": 0.4330708661417323,
                    "duration": 0.13831266666664987
                },
                {
                    "name": "B2",
                    "midi": 47,
                    "time": 363.7623133333309,
                    "velocity": 0.4330708661417323,
                    "duration": 0.13831266666664987
                },
                {
                    "name": "D3",
                    "midi": 50,
                    "time": 363.90062599999754,
                    "velocity": 0.49606299212598426,
                    "duration": 0.13831266666664987
                },
                {
                    "name": "C#3",
                    "midi": 49,
                    "time": 364.0389386666642,
                    "velocity": 0.4409448818897638,
                    "duration": 0.13831266666664987
                },
                {
                    "name": "B2",
                    "midi": 47,
                    "time": 364.17725133333084,
                    "velocity": 0.4409448818897638,
                    "duration": 0.13831266666664987
                },
                {
                    "name": "E3",
                    "midi": 52,
                    "time": 364.3155639999975,
                    "velocity": 0.49606299212598426,
                    "duration": 0.13831266666664987
                },
                {
                    "name": "D3",
                    "midi": 50,
                    "time": 364.45387666666414,
                    "velocity": 0.4409448818897638,
                    "duration": 0.13831266666664987
                },
                {
                    "name": "C#3",
                    "midi": 49,
                    "time": 364.5921893333308,
                    "velocity": 0.4409448818897638,
                    "duration": 0.13831266666664987
                },
                {
                    "name": "G3",
                    "midi": 55,
                    "time": 364.73050199999744,
                    "velocity": 0.49606299212598426,
                    "duration": 0.13831266666664987
                },
                {
                    "name": "F#3",
                    "midi": 54,
                    "time": 364.8688146666641,
                    "velocity": 0.4409448818897638,
                    "duration": 0.13831266666664987
                },
                {
                    "name": "E3",
                    "midi": 52,
                    "time": 365.00712733333074,
                    "velocity": 0.4409448818897638,
                    "duration": 0.13831266666664987
                },
                {
                    "name": "B3",
                    "midi": 59,
                    "time": 365.1454399999974,
                    "velocity": 0.5511811023622047,
                    "duration": 0.13831266666664987
                },
                {
                    "name": "A#3",
                    "midi": 58,
                    "time": 365.28375266666404,
                    "velocity": 0.4409448818897638,
                    "duration": 0.13831266666664987
                },
                {
                    "name": "B3",
                    "midi": 59,
                    "time": 365.4220653333307,
                    "velocity": 0.4409448818897638,
                    "duration": 0.13831266666664987
                },
                {
                    "name": "C#4",
                    "midi": 61,
                    "time": 365.56037799999734,
                    "velocity": 0.47244094488188976,
                    "duration": 0.13831266666664987
                },
                {
                    "name": "D4",
                    "midi": 62,
                    "time": 365.698690666664,
                    "velocity": 0.4409448818897638,
                    "duration": 0.13831266666664987
                },
                {
                    "name": "E4",
                    "midi": 64,
                    "time": 365.83700333333064,
                    "velocity": 0.4094488188976378,
                    "duration": 0.13831266666664987
                },
                {
                    "name": "D4",
                    "midi": 62,
                    "time": 365.9753159999973,
                    "velocity": 0.4566929133858268,
                    "duration": 0.1037344999999732
                },
                {
                    "name": "F#3",
                    "midi": 54,
                    "time": 365.9753159999973,
                    "velocity": 0.4566929133858268,
                    "duration": 0.1037344999999732
                },
                {
                    "name": "F#4",
                    "midi": 66,
                    "time": 365.9753159999973,
                    "velocity": 0.5433070866141733,
                    "duration": 0.1037344999999732
                },
                {
                    "name": "D4",
                    "midi": 62,
                    "time": 366.18278499999724,
                    "velocity": 0.4094488188976378,
                    "duration": 0.1037344999999732
                },
                {
                    "name": "F#3",
                    "midi": 54,
                    "time": 366.18278499999724,
                    "velocity": 0.4094488188976378,
                    "duration": 0.1037344999999732
                },
                {
                    "name": "F#4",
                    "midi": 66,
                    "time": 366.18278499999724,
                    "velocity": 0.5039370078740157,
                    "duration": 0.1037344999999732
                },
                {
                    "name": "D4",
                    "midi": 62,
                    "time": 366.3902539999972,
                    "velocity": 0.4566929133858268,
                    "duration": 0.1037344999999732
                },
                {
                    "name": "F#3",
                    "midi": 54,
                    "time": 366.3902539999972,
                    "velocity": 0.4566929133858268,
                    "duration": 0.1037344999999732
                },
                {
                    "name": "F#4",
                    "midi": 66,
                    "time": 366.3902539999972,
                    "velocity": 0.5433070866141733,
                    "duration": 0.1037344999999732
                },
                {
                    "name": "D4",
                    "midi": 62,
                    "time": 366.59772299999713,
                    "velocity": 0.4094488188976378,
                    "duration": 0.1037344999999732
                },
                {
                    "name": "F#3",
                    "midi": 54,
                    "time": 366.59772299999713,
                    "velocity": 0.4094488188976378,
                    "duration": 0.1037344999999732
                },
                {
                    "name": "F#4",
                    "midi": 66,
                    "time": 366.59772299999713,
                    "velocity": 0.49606299212598426,
                    "duration": 0.1037344999999732
                },
                {
                    "name": "F#3",
                    "midi": 54,
                    "time": 366.8051919999971,
                    "velocity": 0.5039370078740157,
                    "duration": 0.6224070000000097
                },
                {
                    "name": "D4",
                    "midi": 62,
                    "time": 366.8051919999971,
                    "velocity": 0.5039370078740157,
                    "duration": 0.41493800000000647
                },
                {
                    "name": "F#4",
                    "midi": 66,
                    "time": 366.8051919999971,
                    "velocity": 0.5905511811023622,
                    "duration": 0.41493800000000647
                },
                {
                    "name": "B3",
                    "midi": 59,
                    "time": 367.2201299999971,
                    "velocity": 0.4330708661417323,
                    "duration": 0.20746900000000323
                },
                {
                    "name": "D4",
                    "midi": 62,
                    "time": 367.2201299999971,
                    "velocity": 0.5118110236220472,
                    "duration": 0.20746900000000323
                },
                {
                    "name": "F#3",
                    "midi": 54,
                    "time": 367.6350679999971,
                    "velocity": 0.47244094488188976,
                    "duration": 0.1037344999999732
                },
                {
                    "name": "B3",
                    "midi": 59,
                    "time": 367.6350679999971,
                    "velocity": 0.47244094488188976,
                    "duration": 0.1037344999999732
                },
                {
                    "name": "C#4",
                    "midi": 61,
                    "time": 367.6350679999971,
                    "velocity": 0.5669291338582677,
                    "duration": 0.1037344999999732
                },
                {
                    "name": "F#3",
                    "midi": 54,
                    "time": 368.05000599999704,
                    "velocity": 0.3937007874015748,
                    "duration": 0.1037344999999732
                },
                {
                    "name": "A#3",
                    "midi": 58,
                    "time": 368.05000599999704,
                    "velocity": 0.3937007874015748,
                    "duration": 0.1037344999999732
                },
                {
                    "name": "F#4",
                    "midi": 66,
                    "time": 368.05000599999704,
                    "velocity": 0.4881889763779528,
                    "duration": 0.1037344999999732
                },
                {
                    "name": "B1",
                    "midi": 35,
                    "time": 368.464943999997,
                    "velocity": 0.5354330708661418,
                    "duration": 0.13831266666664987
                },
                {
                    "name": "A#1",
                    "midi": 34,
                    "time": 368.60325666666364,
                    "velocity": 0.3779527559055118,
                    "duration": 0.13831266666664987
                },
                {
                    "name": "B1",
                    "midi": 35,
                    "time": 368.7415693333303,
                    "velocity": 0.4015748031496063,
                    "duration": 0.13831266666664987
                },
                {
                    "name": "D2",
                    "midi": 38,
                    "time": 368.87988199999694,
                    "velocity": 0.5354330708661418,
                    "duration": 0.13831266666664987
                },
                {
                    "name": "C#2",
                    "midi": 37,
                    "time": 369.0181946666636,
                    "velocity": 0.3858267716535433,
                    "duration": 0.13831266666664987
                },
                {
                    "name": "B1",
                    "midi": 35,
                    "time": 369.15650733333024,
                    "velocity": 0.3858267716535433,
                    "duration": 0.13831266666664987
                },
                {
                    "name": "E2",
                    "midi": 40,
                    "time": 369.2948199999969,
                    "velocity": 0.5275590551181102,
                    "duration": 0.13831266666664987
                },
                {
                    "name": "D2",
                    "midi": 38,
                    "time": 369.43313266666354,
                    "velocity": 0.3779527559055118,
                    "duration": 0.13831266666664987
                },
                {
                    "name": "C#2",
                    "midi": 37,
                    "time": 369.5714453333302,
                    "velocity": 0.3779527559055118,
                    "duration": 0.13831266666664987
                },
                {
                    "name": "G2",
                    "midi": 43,
                    "time": 369.7054357291635,
                    "velocity": 0.5275590551181102,
                    "duration": 0.13831266666664987
                },
                {
                    "name": "F#2",
                    "midi": 42,
                    "time": 369.8480706666635,
                    "velocity": 0.3937007874015748,
                    "duration": 0.13831266666664987
                },
                {
                    "name": "E2",
                    "midi": 40,
                    "time": 369.98638333333014,
                    "velocity": 0.3937007874015748,
                    "duration": 0.13831266666664987
                },
                {
                    "name": "D2",
                    "midi": 38,
                    "time": 370.1246959999968,
                    "velocity": 0.47244094488188976,
                    "duration": 0.13831266666664987
                },
                {
                    "name": "C#2",
                    "midi": 37,
                    "time": 370.26300866666344,
                    "velocity": 0.3543307086614173,
                    "duration": 0.13831266666664987
                },
                {
                    "name": "D2",
                    "midi": 38,
                    "time": 370.4013213333301,
                    "velocity": 0.3543307086614173,
                    "duration": 0.13831266666664987
                },
                {
                    "name": "F#2",
                    "midi": 42,
                    "time": 370.53963399999674,
                    "velocity": 0.48031496062992124,
                    "duration": 0.13831266666664987
                },
                {
                    "name": "E2",
                    "midi": 40,
                    "time": 370.6779466666634,
                    "velocity": 0.3543307086614173,
                    "duration": 0.13831266666664987
                },
                {
                    "name": "D2",
                    "midi": 38,
                    "time": 370.81625933333004,
                    "velocity": 0.3543307086614173,
                    "duration": 0.13831266666664987
                },
                {
                    "name": "G2",
                    "midi": 43,
                    "time": 370.9545719999967,
                    "velocity": 0.48031496062992124,
                    "duration": 0.13831266666664987
                },
                {
                    "name": "F#2",
                    "midi": 42,
                    "time": 371.09288466666334,
                    "velocity": 0.3543307086614173,
                    "duration": 0.13831266666664987
                },
                {
                    "name": "E2",
                    "midi": 40,
                    "time": 371.23119733333,
                    "velocity": 0.3543307086614173,
                    "duration": 0.13831266666664987
                },
                {
                    "name": "A#2",
                    "midi": 46,
                    "time": 371.36950999999664,
                    "velocity": 0.4881889763779528,
                    "duration": 0.13831266666664987
                },
                {
                    "name": "A2",
                    "midi": 45,
                    "time": 371.5078226666633,
                    "velocity": 0.3543307086614173,
                    "duration": 0.13831266666664987
                },
                {
                    "name": "G2",
                    "midi": 43,
                    "time": 371.64613533332994,
                    "velocity": 0.3543307086614173,
                    "duration": 0.13831266666664987
                },
                {
                    "name": "A2",
                    "midi": 45,
                    "time": 371.7844479999966,
                    "velocity": 0.47244094488188976,
                    "duration": 0.13831266666664987
                },
                {
                    "name": "G#2",
                    "midi": 44,
                    "time": 371.92276066666324,
                    "velocity": 0.3543307086614173,
                    "duration": 0.13831266666664987
                },
                {
                    "name": "A2",
                    "midi": 45,
                    "time": 372.0610733333299,
                    "velocity": 0.3543307086614173,
                    "duration": 0.13831266666664987
                },
                {
                    "name": "F#2",
                    "midi": 42,
                    "time": 372.19938599999654,
                    "velocity": 0.48031496062992124,
                    "duration": 0.13831266666664987
                },
                {
                    "name": "F2",
                    "midi": 41,
                    "time": 372.3376986666632,
                    "velocity": 0.3543307086614173,
                    "duration": 0.13831266666664987
                },
                {
                    "name": "F#2",
                    "midi": 42,
                    "time": 372.47601133332984,
                    "velocity": 0.3543307086614173,
                    "duration": 0.13831266666664987
                },
                {
                    "name": "D#2",
                    "midi": 39,
                    "time": 372.6143239999965,
                    "velocity": 0.48031496062992124,
                    "duration": 0.13831266666664987
                },
                {
                    "name": "D2",
                    "midi": 38,
                    "time": 372.75263666666314,
                    "velocity": 0.3543307086614173,
                    "duration": 0.13831266666664987
                },
                {
                    "name": "D#2",
                    "midi": 39,
                    "time": 372.8909493333298,
                    "velocity": 0.3543307086614173,
                    "duration": 0.13831266666664987
                },
                {
                    "name": "C2",
                    "midi": 36,
                    "time": 373.02926199999644,
                    "velocity": 0.4881889763779528,
                    "duration": 0.13831266666664987
                },
                {
                    "name": "B1",
                    "midi": 35,
                    "time": 373.1675746666631,
                    "velocity": 0.3543307086614173,
                    "duration": 0.13831266666664987
                },
                {
                    "name": "C2",
                    "midi": 36,
                    "time": 373.30588733332974,
                    "velocity": 0.3543307086614173,
                    "duration": 0.13831266666664987
                },
                {
                    "name": "A1",
                    "midi": 33,
                    "time": 373.4441999999964,
                    "velocity": 0.5511811023622047,
                    "duration": 0.20746900000000323
                },
                {
                    "name": "G#1",
                    "midi": 32,
                    "time": 373.8591379999964,
                    "velocity": 0.4881889763779528,
                    "duration": 0.13831266666664987
                },
                {
                    "name": "G1",
                    "midi": 31,
                    "time": 373.99745066666304,
                    "velocity": 0.44881889763779526,
                    "duration": 0.13831266666664987
                },
                {
                    "name": "G#1",
                    "midi": 32,
                    "time": 374.1357633333297,
                    "velocity": 0.44881889763779526,
                    "duration": 0.12966812500002334
                },
                {
                    "name": "G#1",
                    "midi": 32,
                    "time": 374.2740759999964,
                    "velocity": 0.4881889763779528,
                    "duration": 0.13831266666664987
                },
                {
                    "name": "G1",
                    "midi": 31,
                    "time": 374.41238866666305,
                    "velocity": 0.44881889763779526,
                    "duration": 0.13831266666664987
                },
                {
                    "name": "G#1",
                    "midi": 32,
                    "time": 374.5507013333297,
                    "velocity": 0.44881889763779526,
                    "duration": 0.12966812500002334
                },
                {
                    "name": "G#1",
                    "midi": 32,
                    "time": 374.6890139999964,
                    "velocity": 0.4881889763779528,
                    "duration": 0.13831266666664987
                },
                {
                    "name": "G1",
                    "midi": 31,
                    "time": 374.82732666666305,
                    "velocity": 0.44881889763779526,
                    "duration": 0.13831266666664987
                },
                {
                    "name": "G#1",
                    "midi": 32,
                    "time": 374.9656393333297,
                    "velocity": 0.4566929133858268,
                    "duration": 0.12966812500002334
                },
                {
                    "name": "C#2",
                    "midi": 37,
                    "time": 375.1039519999964,
                    "velocity": 0.49606299212598426,
                    "duration": 0.13831266666664987
                },
                {
                    "name": "C2",
                    "midi": 36,
                    "time": 375.24226466666306,
                    "velocity": 0.4094488188976378,
                    "duration": 0.13831266666664987
                },
                {
                    "name": "C#2",
                    "midi": 37,
                    "time": 375.3805773333297,
                    "velocity": 0.4409448818897638,
                    "duration": 0.13831266666664987
                },
                {
                    "name": "E2",
                    "midi": 40,
                    "time": 375.51888999999636,
                    "velocity": 0.49606299212598426,
                    "duration": 0.13831266666664987
                },
                {
                    "name": "D#2",
                    "midi": 39,
                    "time": 375.657202666663,
                    "velocity": 0.41732283464566927,
                    "duration": 0.13831266666664987
                },
                {
                    "name": "C#2",
                    "midi": 37,
                    "time": 375.79551533332966,
                    "velocity": 0.41732283464566927,
                    "duration": 0.13831266666664987
                },
                {
                    "name": "F#2",
                    "midi": 42,
                    "time": 375.9338279999963,
                    "velocity": 0.5511811023622047,
                    "duration": 0.13831266666664987
                },
                {
                    "name": "E2",
                    "midi": 40,
                    "time": 376.07214066666296,
                    "velocity": 0.4094488188976378,
                    "duration": 0.13831266666664987
                },
                {
                    "name": "D#2",
                    "midi": 39,
                    "time": 376.2104533333296,
                    "velocity": 0.4409448818897638,
                    "duration": 0.13831266666664987
                },
                {
                    "name": "G#2",
                    "midi": 44,
                    "time": 376.34876599999626,
                    "velocity": 0.5433070866141733,
                    "duration": 0.13831266666664987
                },
                {
                    "name": "F#2",
                    "midi": 42,
                    "time": 376.4870786666629,
                    "velocity": 0.4566929133858268,
                    "duration": 0.13831266666664987
                },
                {
                    "name": "E2",
                    "midi": 40,
                    "time": 376.62539133332956,
                    "velocity": 0.4645669291338583,
                    "duration": 0.13831266666664987
                },
                {
                    "name": "C#3",
                    "midi": 49,
                    "time": 376.7637039999962,
                    "velocity": 0.5826771653543307,
                    "duration": 0.13831266666664987
                },
                {
                    "name": "C3",
                    "midi": 48,
                    "time": 376.90201666666286,
                    "velocity": 0.4330708661417323,
                    "duration": 0.13831266666664987
                },
                {
                    "name": "C#3",
                    "midi": 49,
                    "time": 377.0403293333295,
                    "velocity": 0.4330708661417323,
                    "duration": 0.13831266666664987
                },
                {
                    "name": "E3",
                    "midi": 52,
                    "time": 377.17864199999616,
                    "velocity": 0.49606299212598426,
                    "duration": 0.13831266666664987
                },
                {
                    "name": "D#3",
                    "midi": 51,
                    "time": 377.3169546666628,
                    "velocity": 0.4409448818897638,
                    "duration": 0.13831266666664987
                },
                {
                    "name": "C#3",
                    "midi": 49,
                    "time": 377.45526733332946,
                    "velocity": 0.4409448818897638,
                    "duration": 0.13831266666664987
                },
                {
                    "name": "F#3",
                    "midi": 54,
                    "time": 377.5935799999961,
                    "velocity": 0.5433070866141733,
                    "duration": 0.13831266666664987
                },
                {
                    "name": "E3",
                    "midi": 52,
                    "time": 377.73189266666276,
                    "velocity": 0.4409448818897638,
                    "duration": 0.13831266666664987
                },
                {
                    "name": "D#3",
                    "midi": 51,
                    "time": 377.8702053333294,
                    "velocity": 0.4409448818897638,
                    "duration": 0.13831266666664987
                },
                {
                    "name": "A3",
                    "midi": 57,
                    "time": 378.00851799999606,
                    "velocity": 0.49606299212598426,
                    "duration": 0.13831266666664987
                },
                {
                    "name": "G#3",
                    "midi": 56,
                    "time": 378.1468306666627,
                    "velocity": 0.4409448818897638,
                    "duration": 0.13831266666664987
                },
                {
                    "name": "F#3",
                    "midi": 54,
                    "time": 378.28514333332936,
                    "velocity": 0.4409448818897638,
                    "duration": 0.13831266666664987
                },
                {
                    "name": "C#4",
                    "midi": 61,
                    "time": 378.423455999996,
                    "velocity": 0.5905511811023622,
                    "duration": 0.13831266666664987
                },
                {
                    "name": "C4",
                    "midi": 60,
                    "time": 378.56176866666266,
                    "velocity": 0.4409448818897638,
                    "duration": 0.13831266666664987
                },
                {
                    "name": "C#4",
                    "midi": 61,
                    "time": 378.7000813333293,
                    "velocity": 0.4409448818897638,
                    "duration": 0.13831266666664987
                },
                {
                    "name": "D#4",
                    "midi": 63,
                    "time": 378.83839399999596,
                    "velocity": 0.47244094488188976,
                    "duration": 0.13831266666664987
                },
                {
                    "name": "E4",
                    "midi": 64,
                    "time": 378.9767066666626,
                    "velocity": 0.4409448818897638,
                    "duration": 0.13831266666664987
                },
                {
                    "name": "F#4",
                    "midi": 66,
                    "time": 379.11501933332926,
                    "velocity": 0.4094488188976378,
                    "duration": 0.13831266666664987
                },
                {
                    "name": "E4",
                    "midi": 64,
                    "time": 379.2533319999959,
                    "velocity": 0.4566929133858268,
                    "duration": 0.1037344999999732
                },
                {
                    "name": "G#3",
                    "midi": 56,
                    "time": 379.2533319999959,
                    "velocity": 0.4566929133858268,
                    "duration": 0.1037344999999732
                },
                {
                    "name": "G#4",
                    "midi": 68,
                    "time": 379.2533319999959,
                    "velocity": 0.5433070866141733,
                    "duration": 0.1037344999999732
                },
                {
                    "name": "E4",
                    "midi": 64,
                    "time": 379.46080099999585,
                    "velocity": 0.4094488188976378,
                    "duration": 0.1037344999999732
                },
                {
                    "name": "G#3",
                    "midi": 56,
                    "time": 379.46080099999585,
                    "velocity": 0.4094488188976378,
                    "duration": 0.1037344999999732
                },
                {
                    "name": "G#4",
                    "midi": 68,
                    "time": 379.46080099999585,
                    "velocity": 0.5039370078740157,
                    "duration": 0.1037344999999732
                },
                {
                    "name": "E4",
                    "midi": 64,
                    "time": 379.6682699999958,
                    "velocity": 0.4566929133858268,
                    "duration": 0.1037344999999732
                },
                {
                    "name": "G#3",
                    "midi": 56,
                    "time": 379.6682699999958,
                    "velocity": 0.4566929133858268,
                    "duration": 0.1037344999999732
                },
                {
                    "name": "G#4",
                    "midi": 68,
                    "time": 379.6682699999958,
                    "velocity": 0.5433070866141733,
                    "duration": 0.1037344999999732
                },
                {
                    "name": "E4",
                    "midi": 64,
                    "time": 379.87573899999575,
                    "velocity": 0.4094488188976378,
                    "duration": 0.1037344999999732
                },
                {
                    "name": "G#3",
                    "midi": 56,
                    "time": 379.87573899999575,
                    "velocity": 0.4094488188976378,
                    "duration": 0.1037344999999732
                },
                {
                    "name": "G#4",
                    "midi": 68,
                    "time": 379.87573899999575,
                    "velocity": 0.49606299212598426,
                    "duration": 0.1037344999999732
                },
                {
                    "name": "G#3",
                    "midi": 56,
                    "time": 380.0832079999957,
                    "velocity": 0.5039370078740157,
                    "duration": 0.6224070000000097
                },
                {
                    "name": "E4",
                    "midi": 64,
                    "time": 380.0832079999957,
                    "velocity": 0.5039370078740157,
                    "duration": 0.41493800000000647
                },
                {
                    "name": "G#4",
                    "midi": 68,
                    "time": 380.0832079999957,
                    "velocity": 0.5905511811023622,
                    "duration": 0.41493800000000647
                },
                {
                    "name": "C#4",
                    "midi": 61,
                    "time": 380.4981459999957,
                    "velocity": 0.4330708661417323,
                    "duration": 0.20746900000000323
                },
                {
                    "name": "E4",
                    "midi": 64,
                    "time": 380.4981459999957,
                    "velocity": 0.5118110236220472,
                    "duration": 0.20746900000000323
                },
                {
                    "name": "G#3",
                    "midi": 56,
                    "time": 380.9130839999957,
                    "velocity": 0.47244094488188976,
                    "duration": 0.1037344999999732
                },
                {
                    "name": "C#4",
                    "midi": 61,
                    "time": 380.9130839999957,
                    "velocity": 0.47244094488188976,
                    "duration": 0.1037344999999732
                },
                {
                    "name": "D#4",
                    "midi": 63,
                    "time": 380.9130839999957,
                    "velocity": 0.5669291338582677,
                    "duration": 0.1037344999999732
                },
                {
                    "name": "G#3",
                    "midi": 56,
                    "time": 381.32802199999566,
                    "velocity": 0.3937007874015748,
                    "duration": 0.1037344999999732
                },
                {
                    "name": "C4",
                    "midi": 60,
                    "time": 381.32802199999566,
                    "velocity": 0.3937007874015748,
                    "duration": 0.1037344999999732
                },
                {
                    "name": "G#4",
                    "midi": 68,
                    "time": 381.32802199999566,
                    "velocity": 0.4881889763779528,
                    "duration": 0.1037344999999732
                },
                {
                    "name": "C#2",
                    "midi": 37,
                    "time": 381.7429599999956,
                    "velocity": 0.5354330708661418,
                    "duration": 0.13831266666664987
                },
                {
                    "name": "C2",
                    "midi": 36,
                    "time": 381.88127266666226,
                    "velocity": 0.3779527559055118,
                    "duration": 0.13831266666664987
                },
                {
                    "name": "C#2",
                    "midi": 37,
                    "time": 382.0195853333289,
                    "velocity": 0.4015748031496063,
                    "duration": 0.13831266666664987
                },
                {
                    "name": "E2",
                    "midi": 40,
                    "time": 382.15789799999555,
                    "velocity": 0.5354330708661418,
                    "duration": 0.13831266666664987
                },
                {
                    "name": "D#2",
                    "midi": 39,
                    "time": 382.2962106666622,
                    "velocity": 0.3858267716535433,
                    "duration": 0.13831266666664987
                },
                {
                    "name": "C#2",
                    "midi": 37,
                    "time": 382.43452333332885,
                    "velocity": 0.3858267716535433,
                    "duration": 0.13831266666664987
                },
                {
                    "name": "F#2",
                    "midi": 42,
                    "time": 382.5728359999955,
                    "velocity": 0.5275590551181102,
                    "duration": 0.13831266666664987
                },
                {
                    "name": "E2",
                    "midi": 40,
                    "time": 382.71114866666215,
                    "velocity": 0.3779527559055118,
                    "duration": 0.13831266666664987
                },
                {
                    "name": "D#2",
                    "midi": 39,
                    "time": 382.8494613333288,
                    "velocity": 0.3779527559055118,
                    "duration": 0.13831266666664987
                },
                {
                    "name": "A2",
                    "midi": 45,
                    "time": 382.99296072499544,
                    "velocity": 0.5275590551181102,
                    "duration": 0.13831266666664987
                },
                {
                    "name": "G#2",
                    "midi": 44,
                    "time": 383.1260866666621,
                    "velocity": 0.3937007874015748,
                    "duration": 0.13831266666664987
                },
                {
                    "name": "F#2",
                    "midi": 42,
                    "time": 383.26439933332875,
                    "velocity": 0.3937007874015748,
                    "duration": 0.13831266666664987
                },
                {
                    "name": "E2",
                    "midi": 40,
                    "time": 383.4027119999954,
                    "velocity": 0.47244094488188976,
                    "duration": 0.13831266666664987
                },
                {
                    "name": "D#2",
                    "midi": 39,
                    "time": 383.54102466666205,
                    "velocity": 0.3543307086614173,
                    "duration": 0.13831266666664987
                },
                {
                    "name": "E2",
                    "midi": 40,
                    "time": 383.6793373333287,
                    "velocity": 0.3543307086614173,
                    "duration": 0.13831266666664987
                },
                {
                    "name": "G#2",
                    "midi": 44,
                    "time": 383.81764999999535,
                    "velocity": 0.48031496062992124,
                    "duration": 0.13831266666664987
                },
                {
                    "name": "F#2",
                    "midi": 42,
                    "time": 383.955962666662,
                    "velocity": 0.3543307086614173,
                    "duration": 0.13831266666664987
                },
                {
                    "name": "E2",
                    "midi": 40,
                    "time": 384.09427533332865,
                    "velocity": 0.3543307086614173,
                    "duration": 0.13831266666664987
                },
                {
                    "name": "A2",
                    "midi": 45,
                    "time": 384.2325879999953,
                    "velocity": 0.48031496062992124,
                    "duration": 0.13831266666664987
                },
                {
                    "name": "G#2",
                    "midi": 44,
                    "time": 384.37090066666195,
                    "velocity": 0.3543307086614173,
                    "duration": 0.13831266666664987
                },
                {
                    "name": "F#2",
                    "midi": 42,
                    "time": 384.5092133333286,
                    "velocity": 0.3543307086614173,
                    "duration": 0.13831266666664987
                },
                {
                    "name": "C3",
                    "midi": 48,
                    "time": 384.64752599999525,
                    "velocity": 0.4881889763779528,
                    "duration": 0.13831266666664987
                },
                {
                    "name": "B2",
                    "midi": 47,
                    "time": 384.7858386666619,
                    "velocity": 0.3543307086614173,
                    "duration": 0.13831266666664987
                },
                {
                    "name": "A2",
                    "midi": 45,
                    "time": 384.92415133332855,
                    "velocity": 0.3543307086614173,
                    "duration": 0.13831266666664987
                },
                {
                    "name": "B2",
                    "midi": 47,
                    "time": 385.0624639999952,
                    "velocity": 0.47244094488188976,
                    "duration": 0.13831266666664987
                },
                {
                    "name": "A#2",
                    "midi": 46,
                    "time": 385.20077666666185,
                    "velocity": 0.3543307086614173,
                    "duration": 0.13831266666664987
                },
                {
                    "name": "B2",
                    "midi": 47,
                    "time": 385.3390893333285,
                    "velocity": 0.3543307086614173,
                    "duration": 0.13831266666664987
                },
                {
                    "name": "G#2",
                    "midi": 44,
                    "time": 385.47740199999515,
                    "velocity": 0.48031496062992124,
                    "duration": 0.13831266666664987
                },
                {
                    "name": "G2",
                    "midi": 43,
                    "time": 385.6157146666618,
                    "velocity": 0.3543307086614173,
                    "duration": 0.13831266666664987
                },
                {
                    "name": "G#2",
                    "midi": 44,
                    "time": 385.75402733332845,
                    "velocity": 0.3543307086614173,
                    "duration": 0.13831266666664987
                },
                {
                    "name": "F2",
                    "midi": 41,
                    "time": 385.8923399999951,
                    "velocity": 0.48031496062992124,
                    "duration": 0.13831266666664987
                },
                {
                    "name": "E2",
                    "midi": 40,
                    "time": 386.03065266666175,
                    "velocity": 0.3858267716535433,
                    "duration": 0.13831266666664987
                },
                {
                    "name": "F2",
                    "midi": 41,
                    "time": 386.1689653333284,
                    "velocity": 0.3858267716535433,
                    "duration": 0.13831266666664987
                },
                {
                    "name": "D2",
                    "midi": 38,
                    "time": 386.30727799999505,
                    "velocity": 0.4881889763779528,
                    "duration": 0.13831266666664987
                },
                {
                    "name": "C#2",
                    "midi": 37,
                    "time": 386.4455906666617,
                    "velocity": 0.3543307086614173,
                    "duration": 0.13831266666664987
                },
                {
                    "name": "D2",
                    "midi": 38,
                    "time": 386.58390333332835,
                    "velocity": 0.4015748031496063,
                    "duration": 0.13831266666664987
                },
                {
                    "name": "B1",
                    "midi": 35,
                    "time": 386.722215999995,
                    "velocity": 0.5590551181102362,
                    "duration": 0.20746900000000323
                },
                {
                    "name": "A#1",
                    "midi": 34,
                    "time": 387.137153999995,
                    "velocity": 0.4881889763779528,
                    "duration": 0.13831266666664987
                },
                {
                    "name": "A1",
                    "midi": 33,
                    "time": 387.27546666666166,
                    "velocity": 0.44881889763779526,
                    "duration": 0.13831266666664987
                },
                {
                    "name": "A#1",
                    "midi": 34,
                    "time": 387.4137793333283,
                    "velocity": 0.44881889763779526,
                    "duration": 0.12966812500002334
                },
                {
                    "name": "A#1",
                    "midi": 34,
                    "time": 387.552091999995,
                    "velocity": 0.4881889763779528,
                    "duration": 0.13831266666664987
                },
                {
                    "name": "A1",
                    "midi": 33,
                    "time": 387.69040466666166,
                    "velocity": 0.44881889763779526,
                    "duration": 0.13831266666664987
                },
                {
                    "name": "A#1",
                    "midi": 34,
                    "time": 387.8287173333283,
                    "velocity": 0.44881889763779526,
                    "duration": 0.12966812500002334
                },
                {
                    "name": "A#1",
                    "midi": 34,
                    "time": 387.967029999995,
                    "velocity": 0.4881889763779528,
                    "duration": 0.13831266666664987
                },
                {
                    "name": "A1",
                    "midi": 33,
                    "time": 388.10534266666167,
                    "velocity": 0.44881889763779526,
                    "duration": 0.13831266666664987
                },
                {
                    "name": "A#1",
                    "midi": 34,
                    "time": 388.2436553333283,
                    "velocity": 0.4566929133858268,
                    "duration": 0.12966812500002334
                },
                {
                    "name": "D#2",
                    "midi": 39,
                    "time": 388.381967999995,
                    "velocity": 0.5590551181102362,
                    "duration": 0.20746900000000323
                },
                {
                    "name": "A2",
                    "midi": 45,
                    "time": 388.79690599999503,
                    "velocity": 0.5511811023622047,
                    "duration": 0.13831266666664987
                },
                {
                    "name": "B2",
                    "midi": 47,
                    "time": 388.9352186666617,
                    "velocity": 0.44881889763779526,
                    "duration": 0.13831266666664987
                },
                {
                    "name": "A2",
                    "midi": 45,
                    "time": 389.07353133332833,
                    "velocity": 0.44881889763779526,
                    "duration": 0.12966812500002334
                },
                {
                    "name": "G2",
                    "midi": 43,
                    "time": 389.21184399999504,
                    "velocity": 0.4881889763779528,
                    "duration": 0.13831266666664987
                },
                {
                    "name": "A2",
                    "midi": 45,
                    "time": 389.3501566666617,
                    "velocity": 0.44881889763779526,
                    "duration": 0.13831266666664987
                },
                {
                    "name": "G2",
                    "midi": 43,
                    "time": 389.48846933332834,
                    "velocity": 0.44881889763779526,
                    "duration": 0.12966812500002334
                },
                {
                    "name": "F#2",
                    "midi": 42,
                    "time": 389.62678199999505,
                    "velocity": 0.4881889763779528,
                    "duration": 0.13831266666664987
                },
                {
                    "name": "G2",
                    "midi": 43,
                    "time": 389.7650946666617,
                    "velocity": 0.44881889763779526,
                    "duration": 0.13831266666664987
                },
                {
                    "name": "F#2",
                    "midi": 42,
                    "time": 389.90340733332835,
                    "velocity": 0.4566929133858268,
                    "duration": 0.12966812500002334
                },
                {
                    "name": "E2",
                    "midi": 40,
                    "time": 390.04171999999505,
                    "velocity": 0.5590551181102362,
                    "duration": 0.20746900000000323
                },
                {
                    "name": "C2",
                    "midi": 36,
                    "time": 390.45665799999506,
                    "velocity": 0.5590551181102362,
                    "duration": 0.13831266666664987
                },
                {
                    "name": "B1",
                    "midi": 35,
                    "time": 390.5949706666617,
                    "velocity": 0.44881889763779526,
                    "duration": 0.13831266666664987
                },
                {
                    "name": "C2",
                    "midi": 36,
                    "time": 390.73328333332836,
                    "velocity": 0.44881889763779526,
                    "duration": 0.12966812500002334
                },
                {
                    "name": "C2",
                    "midi": 36,
                    "time": 390.87159599999507,
                    "velocity": 0.4881889763779528,
                    "duration": 0.13831266666664987
                },
                {
                    "name": "B1",
                    "midi": 35,
                    "time": 391.0099086666617,
                    "velocity": 0.44881889763779526,
                    "duration": 0.13831266666664987
                },
                {
                    "name": "C2",
                    "midi": 36,
                    "time": 391.14822133332837,
                    "velocity": 0.44881889763779526,
                    "duration": 0.12966812500002334
                },
                {
                    "name": "C2",
                    "midi": 36,
                    "time": 391.2865339999951,
                    "velocity": 0.4881889763779528,
                    "duration": 0.13831266666664987
                },
                {
                    "name": "B1",
                    "midi": 35,
                    "time": 391.4248466666617,
                    "velocity": 0.44881889763779526,
                    "duration": 0.13831266666664987
                },
                {
                    "name": "C2",
                    "midi": 36,
                    "time": 391.5631593333284,
                    "velocity": 0.4566929133858268,
                    "duration": 0.12966812500002334
                },
                {
                    "name": "F1",
                    "midi": 29,
                    "time": 391.7014719999951,
                    "velocity": 0.5590551181102362,
                    "duration": 0.20746900000000323
                },
                {
                    "name": "B2",
                    "midi": 47,
                    "time": 392.1164099999951,
                    "velocity": 0.4881889763779528,
                    "duration": 0.13831266666664987
                },
                {
                    "name": "C#3",
                    "midi": 49,
                    "time": 392.25472266666173,
                    "velocity": 0.4330708661417323,
                    "duration": 0.13831266666664987
                },
                {
                    "name": "B2",
                    "midi": 47,
                    "time": 392.3930353333284,
                    "velocity": 0.4251968503937008,
                    "duration": 0.12966812500002334
                },
                {
                    "name": "A2",
                    "midi": 45,
                    "time": 392.5313479999951,
                    "velocity": 0.44881889763779526,
                    "duration": 0.13831266666664987
                },
                {
                    "name": "B2",
                    "midi": 47,
                    "time": 392.66966066666174,
                    "velocity": 0.3937007874015748,
                    "duration": 0.13831266666664987
                },
                {
                    "name": "A2",
                    "midi": 45,
                    "time": 392.8079733333284,
                    "velocity": 0.3858267716535433,
                    "duration": 0.12966812500002334
                },
                {
                    "name": "G#2",
                    "midi": 44,
                    "time": 392.9462859999951,
                    "velocity": 0.4094488188976378,
                    "duration": 0.13831266666664987
                },
                {
                    "name": "A2",
                    "midi": 45,
                    "time": 393.08459866666175,
                    "velocity": 0.36220472440944884,
                    "duration": 0.13831266666664987
                },
                {
                    "name": "G#2",
                    "midi": 44,
                    "time": 393.2229113333284,
                    "velocity": 0.3543307086614173,
                    "duration": 0.12966812500002334
                },
                {
                    "name": "A2",
                    "midi": 45,
                    "time": 393.3612239999951,
                    "velocity": 0.33070866141732286,
                    "duration": 3.3108594583333115
                },
                {
                    "name": "F#2",
                    "midi": 42,
                    "time": 393.3612239999951,
                    "velocity": 0.33070866141732286,
                    "duration": 3.3108594583333115
                },
                {
                    "name": "D3",
                    "midi": 50,
                    "time": 393.3612239999951,
                    "velocity": 0.41732283464566927,
                    "duration": 3.3108594583333115
                },
                {
                    "name": "G2",
                    "midi": 43,
                    "time": 396.6807279999951,
                    "velocity": 0.33070866141732286,
                    "duration": 3.3108594583333115
                },
                {
                    "name": "D3",
                    "midi": 50,
                    "time": 396.6807279999951,
                    "velocity": 0.33070866141732286,
                    "duration": 3.3108594583333115
                },
                {
                    "name": "B2",
                    "midi": 47,
                    "time": 396.6807279999951,
                    "velocity": 0.33070866141732286,
                    "duration": 3.3108594583333115
                },
                {
                    "name": "E3",
                    "midi": 52,
                    "time": 396.6807279999951,
                    "velocity": 0.41732283464566927,
                    "duration": 3.3108594583333115
                },
                {
                    "name": "A2",
                    "midi": 45,
                    "time": 400.0002319999951,
                    "velocity": 0.33070866141732286,
                    "duration": 3.3108594583333115
                },
                {
                    "name": "D3",
                    "midi": 50,
                    "time": 400.0002319999951,
                    "velocity": 0.33070866141732286,
                    "duration": 3.3108594583333115
                },
                {
                    "name": "C3",
                    "midi": 48,
                    "time": 400.0002319999951,
                    "velocity": 0.33070866141732286,
                    "duration": 3.3108594583333115
                },
                {
                    "name": "F#3",
                    "midi": 54,
                    "time": 400.0002319999951,
                    "velocity": 0.41732283464566927,
                    "duration": 3.3108594583333115
                },
                {
                    "name": "D3",
                    "midi": 50,
                    "time": 403.3197359999951,
                    "velocity": 0.33070866141732286,
                    "duration": 2.489627999999982
                },
                {
                    "name": "B2",
                    "midi": 47,
                    "time": 403.3197359999951,
                    "velocity": 0.33070866141732286,
                    "duration": 2.489627999999982
                },
                {
                    "name": "G3",
                    "midi": 55,
                    "time": 403.3197359999951,
                    "velocity": 0.41732283464566927,
                    "duration": 2.489627999999982
                },
                {
                    "name": "A#2",
                    "midi": 46,
                    "time": 405.80936399999507,
                    "velocity": 0.3543307086614173,
                    "duration": 0.8298760000000129
                },
                {
                    "name": "D3",
                    "midi": 50,
                    "time": 405.80936399999507,
                    "velocity": 0.3543307086614173,
                    "duration": 0.8298760000000129
                },
                {
                    "name": "G#3",
                    "midi": 56,
                    "time": 405.80936399999507,
                    "velocity": 0.41732283464566927,
                    "duration": 0.8298760000000129
                },
                {
                    "name": "A2",
                    "midi": 45,
                    "time": 406.6392399999951,
                    "velocity": 0.2440944881889764,
                    "duration": 0.41493800000000647
                },
                {
                    "name": "C#3",
                    "midi": 49,
                    "time": 406.6392399999951,
                    "velocity": 0.2440944881889764,
                    "duration": 0.41493800000000647
                },
                {
                    "name": "A3",
                    "midi": 57,
                    "time": 406.6392399999951,
                    "velocity": 0.29133858267716534,
                    "duration": 0.41493800000000647
                },
                {
                    "name": "D4",
                    "midi": 62,
                    "time": 407.4691159999951,
                    "velocity": 0.2440944881889764,
                    "duration": 0.1037344999999732
                },
                {
                    "name": "E4",
                    "midi": 64,
                    "time": 407.4691159999951,
                    "velocity": 0.29133858267716534,
                    "duration": 0.1037344999999732
                },
                {
                    "name": "D4",
                    "midi": 62,
                    "time": 407.67658499999504,
                    "velocity": 0.2125984251968504,
                    "duration": 0.1037344999999732
                },
                {
                    "name": "E4",
                    "midi": 64,
                    "time": 407.67658499999504,
                    "velocity": 0.25196850393700787,
                    "duration": 0.1037344999999732
                },
                {
                    "name": "D4",
                    "midi": 62,
                    "time": 407.884053999995,
                    "velocity": 0.2440944881889764,
                    "duration": 0.1037344999999732
                },
                {
                    "name": "E4",
                    "midi": 64,
                    "time": 407.884053999995,
                    "velocity": 0.29133858267716534,
                    "duration": 0.1037344999999732
                },
                {
                    "name": "E4",
                    "midi": 64,
                    "time": 408.09152299999494,
                    "velocity": 0.25196850393700787,
                    "duration": 0.1037344999999732
                },
                {
                    "name": "D4",
                    "midi": 62,
                    "time": 408.09152299999494,
                    "velocity": 0.2125984251968504,
                    "duration": 0.1037344999999732
                },
                {
                    "name": "C#4",
                    "midi": 61,
                    "time": 408.2989919999949,
                    "velocity": 0.2440944881889764,
                    "duration": 0.41493800000000647
                },
                {
                    "name": "E4",
                    "midi": 64,
                    "time": 408.2989919999949,
                    "velocity": 0.29133858267716534,
                    "duration": 0.6224070000000097
                },
                {
                    "name": "A3",
                    "midi": 57,
                    "time": 408.7139299999949,
                    "velocity": 0.25984251968503935,
                    "duration": 0.20746900000000323
                },
                {
                    "name": "B1",
                    "midi": 35,
                    "time": 409.1288679999949,
                    "velocity": 0.2440944881889764,
                    "duration": 0.1037344999999732
                },
                {
                    "name": "E2",
                    "midi": 40,
                    "time": 409.1288679999949,
                    "velocity": 0.29133858267716534,
                    "duration": 0.1037344999999732
                },
                {
                    "name": "B1",
                    "midi": 35,
                    "time": 409.33633699999484,
                    "velocity": 0.2125984251968504,
                    "duration": 0.1037344999999732
                },
                {
                    "name": "E2",
                    "midi": 40,
                    "time": 409.33633699999484,
                    "velocity": 0.25196850393700787,
                    "duration": 0.1037344999999732
                },
                {
                    "name": "G#1",
                    "midi": 32,
                    "time": 409.5438059999948,
                    "velocity": 0.2440944881889764,
                    "duration": 0.1037344999999732
                },
                {
                    "name": "E2",
                    "midi": 40,
                    "time": 409.5438059999948,
                    "velocity": 0.29133858267716534,
                    "duration": 0.1037344999999732
                },
                {
                    "name": "E2",
                    "midi": 40,
                    "time": 409.75127499999473,
                    "velocity": 0.25196850393700787,
                    "duration": 0.1037344999999732
                },
                {
                    "name": "G#1",
                    "midi": 32,
                    "time": 409.75127499999473,
                    "velocity": 0.2125984251968504,
                    "duration": 0.1037344999999732
                },
                {
                    "name": "A1",
                    "midi": 33,
                    "time": 409.9587439999947,
                    "velocity": 0.2440944881889764,
                    "duration": 0.41493800000000647
                },
                {
                    "name": "E2",
                    "midi": 40,
                    "time": 409.9587439999947,
                    "velocity": 0.29133858267716534,
                    "duration": 0.6224070000000097
                },
                {
                    "name": "A2",
                    "midi": 45,
                    "time": 410.3736819999947,
                    "velocity": 0.25984251968503935,
                    "duration": 0.20746900000000323
                },
                {
                    "name": "D4",
                    "midi": 62,
                    "time": 410.7886199999947,
                    "velocity": 0.2440944881889764,
                    "duration": 0.1037344999999732
                },
                {
                    "name": "E4",
                    "midi": 64,
                    "time": 410.7886199999947,
                    "velocity": 0.29133858267716534,
                    "duration": 0.1037344999999732
                },
                {
                    "name": "D4",
                    "midi": 62,
                    "time": 410.99608899999464,
                    "velocity": 0.2125984251968504,
                    "duration": 0.1037344999999732
                },
                {
                    "name": "E4",
                    "midi": 64,
                    "time": 410.99608899999464,
                    "velocity": 0.25196850393700787,
                    "duration": 0.1037344999999732
                },
                {
                    "name": "D4",
                    "midi": 62,
                    "time": 411.2035579999946,
                    "velocity": 0.2440944881889764,
                    "duration": 0.1037344999999732
                },
                {
                    "name": "E4",
                    "midi": 64,
                    "time": 411.2035579999946,
                    "velocity": 0.29133858267716534,
                    "duration": 0.1037344999999732
                },
                {
                    "name": "E4",
                    "midi": 64,
                    "time": 411.41102699999453,
                    "velocity": 0.25196850393700787,
                    "duration": 0.1037344999999732
                },
                {
                    "name": "D4",
                    "midi": 62,
                    "time": 411.41102699999453,
                    "velocity": 0.2125984251968504,
                    "duration": 0.1037344999999732
                },
                {
                    "name": "C#4",
                    "midi": 61,
                    "time": 411.6184959999945,
                    "velocity": 0.2440944881889764,
                    "duration": 0.41493800000000647
                },
                {
                    "name": "E4",
                    "midi": 64,
                    "time": 411.6184959999945,
                    "velocity": 0.29133858267716534,
                    "duration": 0.6224070000000097
                },
                {
                    "name": "A3",
                    "midi": 57,
                    "time": 412.0334339999945,
                    "velocity": 0.25984251968503935,
                    "duration": 0.20746900000000323
                },
                {
                    "name": "B1",
                    "midi": 35,
                    "time": 412.4483719999945,
                    "velocity": 0.2440944881889764,
                    "duration": 0.1037344999999732
                },
                {
                    "name": "E2",
                    "midi": 40,
                    "time": 412.4483719999945,
                    "velocity": 0.29133858267716534,
                    "duration": 0.1037344999999732
                },
                {
                    "name": "B1",
                    "midi": 35,
                    "time": 412.65584099999444,
                    "velocity": 0.2125984251968504,
                    "duration": 0.1037344999999732
                },
                {
                    "name": "E2",
                    "midi": 40,
                    "time": 412.65584099999444,
                    "velocity": 0.25196850393700787,
                    "duration": 0.1037344999999732
                },
                {
                    "name": "G#1",
                    "midi": 32,
                    "time": 412.8633099999944,
                    "velocity": 0.2440944881889764,
                    "duration": 0.1037344999999732
                },
                {
                    "name": "E2",
                    "midi": 40,
                    "time": 412.8633099999944,
                    "velocity": 0.29133858267716534,
                    "duration": 0.1037344999999732
                },
                {
                    "name": "E2",
                    "midi": 40,
                    "time": 413.07077899999433,
                    "velocity": 0.25196850393700787,
                    "duration": 0.1037344999999732
                },
                {
                    "name": "G#1",
                    "midi": 32,
                    "time": 413.07077899999433,
                    "velocity": 0.2125984251968504,
                    "duration": 0.1037344999999732
                },
                {
                    "name": "A1",
                    "midi": 33,
                    "time": 413.2782479999943,
                    "velocity": 0.2440944881889764,
                    "duration": 0.41493800000000647
                },
                {
                    "name": "E2",
                    "midi": 40,
                    "time": 413.2782479999943,
                    "velocity": 0.29133858267716534,
                    "duration": 0.6224070000000097
                },
                {
                    "name": "A2",
                    "midi": 45,
                    "time": 413.6931859999943,
                    "velocity": 0.25984251968503935,
                    "duration": 0.20746900000000323
                },
                {
                    "name": "A3",
                    "midi": 57,
                    "time": 414.1081239999943,
                    "velocity": 0.2440944881889764,
                    "duration": 0.1037344999999732
                },
                {
                    "name": "C#4",
                    "midi": 61,
                    "time": 414.1081239999943,
                    "velocity": 0.2992125984251969,
                    "duration": 0.1037344999999732
                },
                {
                    "name": "A3",
                    "midi": 57,
                    "time": 414.31559299999424,
                    "velocity": 0.2204724409448819,
                    "duration": 0.1037344999999732
                },
                {
                    "name": "C#4",
                    "midi": 61,
                    "time": 414.31559299999424,
                    "velocity": 0.25984251968503935,
                    "duration": 0.1037344999999732
                },
                {
                    "name": "A3",
                    "midi": 57,
                    "time": 414.5230619999942,
                    "velocity": 0.25196850393700787,
                    "duration": 0.1037344999999732
                },
                {
                    "name": "C#4",
                    "midi": 61,
                    "time": 414.5230619999942,
                    "velocity": 0.2992125984251969,
                    "duration": 0.1037344999999732
                },
                {
                    "name": "C#4",
                    "midi": 61,
                    "time": 414.73053099999413,
                    "velocity": 0.25984251968503935,
                    "duration": 0.1037344999999732
                },
                {
                    "name": "A3",
                    "midi": 57,
                    "time": 414.73053099999413,
                    "velocity": 0.2204724409448819,
                    "duration": 0.1037344999999732
                },
                {
                    "name": "A3",
                    "midi": 57,
                    "time": 414.9379999999941,
                    "velocity": 0.25984251968503935,
                    "duration": 0.41493800000000647
                },
                {
                    "name": "C#4",
                    "midi": 61,
                    "time": 414.9379999999941,
                    "velocity": 0.30708661417322836,
                    "duration": 0.6224070000000097
                },
                {
                    "name": "G4",
                    "midi": 67,
                    "time": 415.3529379999941,
                    "velocity": 0.2755905511811024,
                    "duration": 0.20746900000000323
                },
                {
                    "name": "E2",
                    "midi": 40,
                    "time": 415.7678759999941,
                    "velocity": 0.2677165354330709,
                    "duration": 0.1037344999999732
                },
                {
                    "name": "A2",
                    "midi": 45,
                    "time": 415.7678759999941,
                    "velocity": 0.3228346456692913,
                    "duration": 0.1037344999999732
                },
                {
                    "name": "E2",
                    "midi": 40,
                    "time": 415.97534499999404,
                    "velocity": 0.23622047244094488,
                    "duration": 0.1037344999999732
                },
                {
                    "name": "A2",
                    "midi": 45,
                    "time": 415.97534499999404,
                    "velocity": 0.2755905511811024,
                    "duration": 0.1037344999999732
                },
                {
                    "name": "E2",
                    "midi": 40,
                    "time": 416.182813999994,
                    "velocity": 0.2755905511811024,
                    "duration": 0.1037344999999732
                },
                {
                    "name": "A2",
                    "midi": 45,
                    "time": 416.182813999994,
                    "velocity": 0.3228346456692913,
                    "duration": 0.1037344999999732
                },
                {
                    "name": "A2",
                    "midi": 45,
                    "time": 416.39028299999393,
                    "velocity": 0.28346456692913385,
                    "duration": 0.1037344999999732
                },
                {
                    "name": "E2",
                    "midi": 40,
                    "time": 416.39028299999393,
                    "velocity": 0.23622047244094488,
                    "duration": 0.1037344999999732
                },
                {
                    "name": "E2",
                    "midi": 40,
                    "time": 416.5977519999939,
                    "velocity": 0.2755905511811024,
                    "duration": 0.41493800000000647
                },
                {
                    "name": "A2",
                    "midi": 45,
                    "time": 416.5977519999939,
                    "velocity": 0.33070866141732286,
                    "duration": 0.41493800000000647
                },
                {
                    "name": "A1",
                    "midi": 33,
                    "time": 417.0126899999939,
                    "velocity": 0.2992125984251969,
                    "duration": 0.20746900000000323
                },
                {
                    "name": "A3",
                    "midi": 57,
                    "time": 417.4276279999939,
                    "velocity": 0.28346456692913385,
                    "duration": 0.1037344999999732
                },
                {
                    "name": "C#4",
                    "midi": 61,
                    "time": 417.4276279999939,
                    "velocity": 0.33858267716535434,
                    "duration": 0.1037344999999732
                },
                {
                    "name": "A3",
                    "midi": 57,
                    "time": 417.63509699999383,
                    "velocity": 0.25196850393700787,
                    "duration": 0.1037344999999732
                },
                {
                    "name": "C#4",
                    "midi": 61,
                    "time": 417.63509699999383,
                    "velocity": 0.2992125984251969,
                    "duration": 0.1037344999999732
                },
                {
                    "name": "A3",
                    "midi": 57,
                    "time": 417.8425659999938,
                    "velocity": 0.29133858267716534,
                    "duration": 0.1037344999999732
                },
                {
                    "name": "C#4",
                    "midi": 61,
                    "time": 417.8425659999938,
                    "velocity": 0.3464566929133858,
                    "duration": 0.1037344999999732
                },
                {
                    "name": "C#4",
                    "midi": 61,
                    "time": 418.0500349999937,
                    "velocity": 0.2992125984251969,
                    "duration": 0.1037344999999732
                },
                {
                    "name": "A3",
                    "midi": 57,
                    "time": 418.0500349999937,
                    "velocity": 0.25196850393700787,
                    "duration": 0.1037344999999732
                },
                {
                    "name": "A3",
                    "midi": 57,
                    "time": 418.2575039999937,
                    "velocity": 0.29133858267716534,
                    "duration": 0.41493800000000647
                },
                {
                    "name": "C#4",
                    "midi": 61,
                    "time": 418.2575039999937,
                    "velocity": 0.3543307086614173,
                    "duration": 0.6224070000000097
                },
                {
                    "name": "G4",
                    "midi": 67,
                    "time": 418.6724419999937,
                    "velocity": 0.31496062992125984,
                    "duration": 0.20746900000000323
                },
                {
                    "name": "E2",
                    "midi": 40,
                    "time": 419.0873799999937,
                    "velocity": 0.30708661417322836,
                    "duration": 0.1037344999999732
                },
                {
                    "name": "A2",
                    "midi": 45,
                    "time": 419.0873799999937,
                    "velocity": 0.36220472440944884,
                    "duration": 0.1037344999999732
                },
                {
                    "name": "E2",
                    "midi": 40,
                    "time": 419.29484899999363,
                    "velocity": 0.2677165354330709,
                    "duration": 0.1037344999999732
                },
                {
                    "name": "A2",
                    "midi": 45,
                    "time": 419.29484899999363,
                    "velocity": 0.31496062992125984,
                    "duration": 0.1037344999999732
                },
                {
                    "name": "E2",
                    "midi": 40,
                    "time": 419.5023179999936,
                    "velocity": 0.30708661417322836,
                    "duration": 0.1037344999999732
                },
                {
                    "name": "A2",
                    "midi": 45,
                    "time": 419.5023179999936,
                    "velocity": 0.3700787401574803,
                    "duration": 0.1037344999999732
                },
                {
                    "name": "A2",
                    "midi": 45,
                    "time": 419.7097869999935,
                    "velocity": 0.3228346456692913,
                    "duration": 0.1037344999999732
                },
                {
                    "name": "E2",
                    "midi": 40,
                    "time": 419.7097869999935,
                    "velocity": 0.2677165354330709,
                    "duration": 0.1037344999999732
                },
                {
                    "name": "E2",
                    "midi": 40,
                    "time": 419.9172559999935,
                    "velocity": 0.4409448818897638,
                    "duration": 0.41493800000000647
                },
                {
                    "name": "A2",
                    "midi": 45,
                    "time": 419.9172559999935,
                    "velocity": 0.4409448818897638,
                    "duration": 0.41493800000000647
                },
                {
                    "name": "A1",
                    "midi": 33,
                    "time": 420.3321939999935,
                    "velocity": 0.36220472440944884,
                    "duration": 0.20746900000000323
                },
                {
                    "name": "C#3",
                    "midi": 49,
                    "time": 420.7471319999935,
                    "velocity": 0.49606299212598426,
                    "duration": 0.41493800000000647
                },
                {
                    "name": "A1",
                    "midi": 33,
                    "time": 421.1620699999935,
                    "velocity": 0.4881889763779528,
                    "duration": 0.20746900000000323
                },
                {
                    "name": "E3",
                    "midi": 52,
                    "time": 421.5770079999935,
                    "velocity": 0.5433070866141733,
                    "duration": 0.41493800000000647
                },
                {
                    "name": "C#3",
                    "midi": 49,
                    "time": 421.9919459999935,
                    "velocity": 0.4881889763779528,
                    "duration": 0.20746900000000323
                },
                {
                    "name": "C#4",
                    "midi": 61,
                    "time": 422.4068839999935,
                    "velocity": 0.5748031496062992,
                    "duration": 0.41493800000000647
                },
                {
                    "name": "A3",
                    "midi": 57,
                    "time": 422.8218219999935,
                    "velocity": 0.48031496062992124,
                    "duration": 0.20746900000000323
                },
                {
                    "name": "E4",
                    "midi": 64,
                    "time": 423.2367599999935,
                    "velocity": 0.5905511811023622,
                    "duration": 0.41493800000000647
                },
                {
                    "name": "A3",
                    "midi": 57,
                    "time": 423.65169799999353,
                    "velocity": 0.5118110236220472,
                    "duration": 0.20746900000000323
                },
                {
                    "name": "G4",
                    "midi": 67,
                    "time": 424.06663599999354,
                    "velocity": 0.5826771653543307,
                    "duration": 0.41493800000000647
                },
                {
                    "name": "E4",
                    "midi": 64,
                    "time": 424.48157399999354,
                    "velocity": 0.5275590551181102,
                    "duration": 0.20746900000000323
                },
                {
                    "name": "D2",
                    "midi": 38,
                    "time": 424.89651199999355,
                    "velocity": 0.5748031496062992,
                    "duration": 0.8298760000000129
                },
                {
                    "name": "D3",
                    "midi": 50,
                    "time": 424.89651199999355,
                    "velocity": 0.6771653543307087,
                    "duration": 0.8298760000000129
                },
                {
                    "name": "F#2",
                    "midi": 42,
                    "time": 425.72638799999356,
                    "velocity": 0.3858267716535433,
                    "duration": 0.1037344999999732
                },
                {
                    "name": "D3",
                    "midi": 50,
                    "time": 425.72638799999356,
                    "velocity": 0.4566929133858268,
                    "duration": 0.1037344999999732
                },
                {
                    "name": "F#2",
                    "midi": 42,
                    "time": 425.9338569999935,
                    "velocity": 0.3464566929133858,
                    "duration": 0.1037344999999732
                },
                {
                    "name": "D3",
                    "midi": 50,
                    "time": 425.9338569999935,
                    "velocity": 0.4094488188976378,
                    "duration": 0.1037344999999732
                },
                {
                    "name": "F#2",
                    "midi": 42,
                    "time": 426.14132599999346,
                    "velocity": 0.3858267716535433,
                    "duration": 0.1037344999999732
                },
                {
                    "name": "D3",
                    "midi": 50,
                    "time": 426.14132599999346,
                    "velocity": 0.4566929133858268,
                    "duration": 0.1037344999999732
                },
                {
                    "name": "F#2",
                    "midi": 42,
                    "time": 426.3487949999934,
                    "velocity": 0.3464566929133858,
                    "duration": 0.1037344999999732
                },
                {
                    "name": "D3",
                    "midi": 50,
                    "time": 426.3487949999934,
                    "velocity": 0.4094488188976378,
                    "duration": 0.1037344999999732
                },
                {
                    "name": "F#2",
                    "midi": 42,
                    "time": 426.55626399999335,
                    "velocity": 0.41732283464566927,
                    "duration": 0.41493800000000647
                },
                {
                    "name": "D3",
                    "midi": 50,
                    "time": 426.55626399999335,
                    "velocity": 0.49606299212598426,
                    "duration": 0.6224070000000097
                },
                {
                    "name": "G2",
                    "midi": 43,
                    "time": 426.97120199999335,
                    "velocity": 0.3858267716535433,
                    "duration": 0.20746900000000323
                },
                {
                    "name": "E3",
                    "midi": 52,
                    "time": 426.97120199999335,
                    "velocity": 0.4645669291338583,
                    "duration": 0.20746900000000323
                },
                {
                    "name": "A2",
                    "midi": 45,
                    "time": 427.38613999999336,
                    "velocity": 0.3858267716535433,
                    "duration": 0.1037344999999732
                },
                {
                    "name": "D3",
                    "midi": 50,
                    "time": 427.38613999999336,
                    "velocity": 0.3858267716535433,
                    "duration": 0.1037344999999732
                },
                {
                    "name": "F#3",
                    "midi": 54,
                    "time": 427.38613999999336,
                    "velocity": 0.4566929133858268,
                    "duration": 0.1037344999999732
                },
                {
                    "name": "A2",
                    "midi": 45,
                    "time": 427.5936089999933,
                    "velocity": 0.3464566929133858,
                    "duration": 0.1037344999999732
                },
                {
                    "name": "D3",
                    "midi": 50,
                    "time": 427.5936089999933,
                    "velocity": 0.3464566929133858,
                    "duration": 0.1037344999999732
                },
                {
                    "name": "F#3",
                    "midi": 54,
                    "time": 427.5936089999933,
                    "velocity": 0.4094488188976378,
                    "duration": 0.1037344999999732
                },
                {
                    "name": "A2",
                    "midi": 45,
                    "time": 427.80107799999325,
                    "velocity": 0.3858267716535433,
                    "duration": 0.1037344999999732
                },
                {
                    "name": "D3",
                    "midi": 50,
                    "time": 427.80107799999325,
                    "velocity": 0.3858267716535433,
                    "duration": 0.1037344999999732
                },
                {
                    "name": "F#3",
                    "midi": 54,
                    "time": 427.80107799999325,
                    "velocity": 0.4566929133858268,
                    "duration": 0.1037344999999732
                },
                {
                    "name": "A2",
                    "midi": 45,
                    "time": 428.0085469999932,
                    "velocity": 0.3464566929133858,
                    "duration": 0.1037344999999732
                },
                {
                    "name": "D3",
                    "midi": 50,
                    "time": 428.0085469999932,
                    "velocity": 0.3464566929133858,
                    "duration": 0.1037344999999732
                },
                {
                    "name": "F#3",
                    "midi": 54,
                    "time": 428.0085469999932,
                    "velocity": 0.4094488188976378,
                    "duration": 0.1037344999999732
                },
                {
                    "name": "D3",
                    "midi": 50,
                    "time": 428.21601599999315,
                    "velocity": 0.41732283464566927,
                    "duration": 0.6224070000000097
                },
                {
                    "name": "A2",
                    "midi": 45,
                    "time": 428.21601599999315,
                    "velocity": 0.41732283464566927,
                    "duration": 0.41493800000000647
                },
                {
                    "name": "F#3",
                    "midi": 54,
                    "time": 428.21601599999315,
                    "velocity": 0.49606299212598426,
                    "duration": 0.41493800000000647
                },
                {
                    "name": "B2",
                    "midi": 47,
                    "time": 428.63095399999315,
                    "velocity": 0.3858267716535433,
                    "duration": 0.20746900000000323
                },
                {
                    "name": "G3",
                    "midi": 55,
                    "time": 428.63095399999315,
                    "velocity": 0.4645669291338583,
                    "duration": 0.20746900000000323
                },
                {
                    "name": "E3",
                    "midi": 52,
                    "time": 428.83842299999316,
                    "velocity": 0.36220472440944884,
                    "duration": 0.20746900000000323
                },
                {
                    "name": "G3",
                    "midi": 55,
                    "time": 429.04589199999316,
                    "velocity": 0.4251968503937008,
                    "duration": 0.13831266666664987
                },
                {
                    "name": "F#3",
                    "midi": 54,
                    "time": 429.1842046666598,
                    "velocity": 0.3700787401574803,
                    "duration": 0.13831266666664987
                },
                {
                    "name": "E3",
                    "midi": 52,
                    "time": 429.32251733332646,
                    "velocity": 0.3779527559055118,
                    "duration": 0.13831266666664987
                },
                {
                    "name": "A#3",
                    "midi": 58,
                    "time": 429.4608299999931,
                    "velocity": 0.4251968503937008,
                    "duration": 0.13831266666664987
                },
                {
                    "name": "A3",
                    "midi": 57,
                    "time": 429.59914266665976,
                    "velocity": 0.3858267716535433,
                    "duration": 0.13831266666664987
                },
                {
                    "name": "G3",
                    "midi": 55,
                    "time": 429.7374553333264,
                    "velocity": 0.3858267716535433,
                    "duration": 0.13831266666664987
                },
                {
                    "name": "A3",
                    "midi": 57,
                    "time": 429.87576799999306,
                    "velocity": 0.4251968503937008,
                    "duration": 0.20746900000000323
                },
                {
                    "name": "D4",
                    "midi": 62,
                    "time": 430.29070599999307,
                    "velocity": 0.33070866141732286,
                    "duration": 0.13831266666664987
                },
                {
                    "name": "E4",
                    "midi": 64,
                    "time": 430.4290186666597,
                    "velocity": 0.2755905511811024,
                    "duration": 0.13831266666664987
                },
                {
                    "name": "F#4",
                    "midi": 66,
                    "time": 430.56733133332636,
                    "velocity": 0.2755905511811024,
                    "duration": 0.13831266666664987
                },
                {
                    "name": "A3",
                    "midi": 57,
                    "time": 430.705643999993,
                    "velocity": 0.33858267716535434,
                    "duration": 0.13831266666664987
                },
                {
                    "name": "C#4",
                    "midi": 61,
                    "time": 430.84395666665966,
                    "velocity": 0.28346456692913385,
                    "duration": 0.13831266666664987
                },
                {
                    "name": "D4",
                    "midi": 62,
                    "time": 430.9822693333263,
                    "velocity": 0.28346456692913385,
                    "duration": 0.13831266666664987
                },
                {
                    "name": "E4",
                    "midi": 64,
                    "time": 431.12058199999296,
                    "velocity": 0.33858267716535434,
                    "duration": 0.13831266666664987
                },
                {
                    "name": "F#4",
                    "midi": 66,
                    "time": 431.2588946666596,
                    "velocity": 0.29133858267716534,
                    "duration": 0.13831266666664987
                },
                {
                    "name": "G4",
                    "midi": 67,
                    "time": 431.39720733332626,
                    "velocity": 0.29133858267716534,
                    "duration": 0.13831266666664987
                },
                {
                    "name": "A2",
                    "midi": 45,
                    "time": 431.5355199999929,
                    "velocity": 0.5748031496062992,
                    "duration": 0.8298760000000129
                },
                {
                    "name": "F#2",
                    "midi": 42,
                    "time": 431.5355199999929,
                    "velocity": 0.5748031496062992,
                    "duration": 0.8298760000000129
                },
                {
                    "name": "D2",
                    "midi": 38,
                    "time": 431.5355199999929,
                    "velocity": 0.5748031496062992,
                    "duration": 0.8298760000000129
                },
                {
                    "name": "D3",
                    "midi": 50,
                    "time": 431.5355199999929,
                    "velocity": 0.6771653543307087,
                    "duration": 0.8298760000000129
                },
                {
                    "name": "F#2",
                    "midi": 42,
                    "time": 432.3653959999929,
                    "velocity": 0.33858267716535434,
                    "duration": 0.1037344999999732
                },
                {
                    "name": "D3",
                    "midi": 50,
                    "time": 432.3653959999929,
                    "velocity": 0.4015748031496063,
                    "duration": 0.1037344999999732
                },
                {
                    "name": "F#2",
                    "midi": 42,
                    "time": 432.5728649999929,
                    "velocity": 0.30708661417322836,
                    "duration": 0.1037344999999732
                },
                {
                    "name": "D3",
                    "midi": 50,
                    "time": 432.5728649999929,
                    "velocity": 0.36220472440944884,
                    "duration": 0.1037344999999732
                },
                {
                    "name": "F#2",
                    "midi": 42,
                    "time": 432.7803339999928,
                    "velocity": 0.33858267716535434,
                    "duration": 0.1037344999999732
                },
                {
                    "name": "D3",
                    "midi": 50,
                    "time": 432.7803339999928,
                    "velocity": 0.4015748031496063,
                    "duration": 0.1037344999999732
                },
                {
                    "name": "F#2",
                    "midi": 42,
                    "time": 432.98780299999277,
                    "velocity": 0.30708661417322836,
                    "duration": 0.1037344999999732
                },
                {
                    "name": "D3",
                    "midi": 50,
                    "time": 432.98780299999277,
                    "velocity": 0.36220472440944884,
                    "duration": 0.1037344999999732
                },
                {
                    "name": "F#2",
                    "midi": 42,
                    "time": 433.1952719999927,
                    "velocity": 0.3700787401574803,
                    "duration": 0.41493800000000647
                },
                {
                    "name": "D3",
                    "midi": 50,
                    "time": 433.1952719999927,
                    "velocity": 0.4409448818897638,
                    "duration": 0.6224070000000097
                },
                {
                    "name": "G2",
                    "midi": 43,
                    "time": 433.6102099999927,
                    "velocity": 0.33858267716535434,
                    "duration": 0.20746900000000323
                },
                {
                    "name": "E3",
                    "midi": 52,
                    "time": 433.6102099999927,
                    "velocity": 0.4094488188976378,
                    "duration": 0.20746900000000323
                },
                {
                    "name": "A2",
                    "midi": 45,
                    "time": 434.0251479999927,
                    "velocity": 0.41732283464566927,
                    "duration": 0.13831266666664987
                },
                {
                    "name": "B2",
                    "midi": 47,
                    "time": 434.1634606666594,
                    "velocity": 0.3779527559055118,
                    "duration": 0.13831266666664987
                },
                {
                    "name": "C3",
                    "midi": 48,
                    "time": 434.301773333326,
                    "velocity": 0.3779527559055118,
                    "duration": 0.13831266666664987
                },
                {
                    "name": "D3",
                    "midi": 50,
                    "time": 434.4400859999927,
                    "velocity": 0.41732283464566927,
                    "duration": 0.13831266666664987
                },
                {
                    "name": "E3",
                    "midi": 52,
                    "time": 434.5783986666593,
                    "velocity": 0.3858267716535433,
                    "duration": 0.13831266666664987
                },
                {
                    "name": "F#3",
                    "midi": 54,
                    "time": 434.716711333326,
                    "velocity": 0.3779527559055118,
                    "duration": 0.13831266666664987
                },
                {
                    "name": "A#2",
                    "midi": 46,
                    "time": 434.8550239999926,
                    "velocity": 0.41732283464566927,
                    "duration": 0.20746900000000323
                },
                {
                    "name": "F#3",
                    "midi": 54,
                    "time": 435.0624929999926,
                    "velocity": 0.3858267716535433,
                    "duration": 0.20746900000000323
                },
                {
                    "name": "B2",
                    "midi": 47,
                    "time": 435.26996199999263,
                    "velocity": 0.41732283464566927,
                    "duration": 0.20746900000000323
                },
                {
                    "name": "G3",
                    "midi": 55,
                    "time": 435.47743099999263,
                    "velocity": 0.3779527559055118,
                    "duration": 0.20746900000000323
                },
                {
                    "name": "C#3",
                    "midi": 49,
                    "time": 435.68489999999264,
                    "velocity": 0.33858267716535434,
                    "duration": 0.1037344999999732
                },
                {
                    "name": "G3",
                    "midi": 55,
                    "time": 435.68489999999264,
                    "velocity": 0.33858267716535434,
                    "duration": 0.1037344999999732
                },
                {
                    "name": "A3",
                    "midi": 57,
                    "time": 435.68489999999264,
                    "velocity": 0.4015748031496063,
                    "duration": 0.1037344999999732
                },
                {
                    "name": "C#3",
                    "midi": 49,
                    "time": 435.8923689999926,
                    "velocity": 0.30708661417322836,
                    "duration": 0.1037344999999732
                },
                {
                    "name": "G3",
                    "midi": 55,
                    "time": 435.8923689999926,
                    "velocity": 0.30708661417322836,
                    "duration": 0.1037344999999732
                },
                {
                    "name": "A3",
                    "midi": 57,
                    "time": 435.8923689999926,
                    "velocity": 0.36220472440944884,
                    "duration": 0.1037344999999732
                },
                {
                    "name": "C#3",
                    "midi": 49,
                    "time": 436.09983799999253,
                    "velocity": 0.33858267716535434,
                    "duration": 0.1037344999999732
                },
                {
                    "name": "G3",
                    "midi": 55,
                    "time": 436.09983799999253,
                    "velocity": 0.33858267716535434,
                    "duration": 0.1037344999999732
                },
                {
                    "name": "A3",
                    "midi": 57,
                    "time": 436.09983799999253,
                    "velocity": 0.4015748031496063,
                    "duration": 0.1037344999999732
                },
                {
                    "name": "C#3",
                    "midi": 49,
                    "time": 436.3073069999925,
                    "velocity": 0.30708661417322836,
                    "duration": 0.1037344999999732
                },
                {
                    "name": "G3",
                    "midi": 55,
                    "time": 436.3073069999925,
                    "velocity": 0.30708661417322836,
                    "duration": 0.1037344999999732
                },
                {
                    "name": "A3",
                    "midi": 57,
                    "time": 436.3073069999925,
                    "velocity": 0.36220472440944884,
                    "duration": 0.1037344999999732
                },
                {
                    "name": "G3",
                    "midi": 55,
                    "time": 436.5147759999924,
                    "velocity": 0.3700787401574803,
                    "duration": 0.6224070000000097
                },
                {
                    "name": "C#3",
                    "midi": 49,
                    "time": 436.5147759999924,
                    "velocity": 0.3700787401574803,
                    "duration": 0.41493800000000647
                },
                {
                    "name": "A3",
                    "midi": 57,
                    "time": 436.5147759999924,
                    "velocity": 0.4409448818897638,
                    "duration": 0.41493800000000647
                },
                {
                    "name": "D3",
                    "midi": 50,
                    "time": 436.92971399999243,
                    "velocity": 0.33858267716535434,
                    "duration": 0.20746900000000323
                },
                {
                    "name": "B3",
                    "midi": 59,
                    "time": 436.92971399999243,
                    "velocity": 0.4094488188976378,
                    "duration": 0.20746900000000323
                },
                {
                    "name": "D3",
                    "midi": 50,
                    "time": 437.34465199999244,
                    "velocity": 0.41732283464566927,
                    "duration": 0.13831266666664987
                },
                {
                    "name": "E3",
                    "midi": 52,
                    "time": 437.4829646666591,
                    "velocity": 0.3779527559055118,
                    "duration": 0.13831266666664987
                },
                {
                    "name": "F#3",
                    "midi": 54,
                    "time": 437.62127733332574,
                    "velocity": 0.3779527559055118,
                    "duration": 0.13831266666664987
                },
                {
                    "name": "G3",
                    "midi": 55,
                    "time": 437.7595899999924,
                    "velocity": 0.41732283464566927,
                    "duration": 0.13831266666664987
                },
                {
                    "name": "A3",
                    "midi": 57,
                    "time": 437.89790266665904,
                    "velocity": 0.3858267716535433,
                    "duration": 0.13831266666664987
                },
                {
                    "name": "B3",
                    "midi": 59,
                    "time": 438.0362153333257,
                    "velocity": 0.3779527559055118,
                    "duration": 0.13831266666664987
                },
                {
                    "name": "D#3",
                    "midi": 51,
                    "time": 438.17452799999234,
                    "velocity": 0.41732283464566927,
                    "duration": 0.20746900000000323
                },
                {
                    "name": "B3",
                    "midi": 59,
                    "time": 438.38199699999234,
                    "velocity": 0.3858267716535433,
                    "duration": 0.20746900000000323
                },
                {
                    "name": "E3",
                    "midi": 52,
                    "time": 438.58946599999234,
                    "velocity": 0.41732283464566927,
                    "duration": 0.20746900000000323
                },
                {
                    "name": "C4",
                    "midi": 60,
                    "time": 438.79693499999235,
                    "velocity": 0.3779527559055118,
                    "duration": 0.20746900000000323
                },
                {
                    "name": "E3",
                    "midi": 52,
                    "time": 439.00440399999235,
                    "velocity": 0.33858267716535434,
                    "duration": 0.1037344999999732
                },
                {
                    "name": "A#3",
                    "midi": 58,
                    "time": 439.00440399999235,
                    "velocity": 0.33858267716535434,
                    "duration": 0.1037344999999732
                },
                {
                    "name": "C#4",
                    "midi": 61,
                    "time": 439.00440399999235,
                    "velocity": 0.4015748031496063,
                    "duration": 0.1037344999999732
                },
                {
                    "name": "E3",
                    "midi": 52,
                    "time": 439.2118729999923,
                    "velocity": 0.30708661417322836,
                    "duration": 0.1037344999999732
                },
                {
                    "name": "A#3",
                    "midi": 58,
                    "time": 439.2118729999923,
                    "velocity": 0.30708661417322836,
                    "duration": 0.1037344999999732
                },
                {
                    "name": "C#4",
                    "midi": 61,
                    "time": 439.2118729999923,
                    "velocity": 0.36220472440944884,
                    "duration": 0.1037344999999732
                },
                {
                    "name": "E3",
                    "midi": 52,
                    "time": 439.41934199999224,
                    "velocity": 0.33858267716535434,
                    "duration": 0.1037344999999732
                },
                {
                    "name": "A#3",
                    "midi": 58,
                    "time": 439.41934199999224,
                    "velocity": 0.33858267716535434,
                    "duration": 0.1037344999999732
                },
                {
                    "name": "C#4",
                    "midi": 61,
                    "time": 439.41934199999224,
                    "velocity": 0.4015748031496063,
                    "duration": 0.1037344999999732
                },
                {
                    "name": "E3",
                    "midi": 52,
                    "time": 439.6268109999922,
                    "velocity": 0.30708661417322836,
                    "duration": 0.1037344999999732
                },
                {
                    "name": "A#3",
                    "midi": 58,
                    "time": 439.6268109999922,
                    "velocity": 0.30708661417322836,
                    "duration": 0.1037344999999732
                },
                {
                    "name": "C#4",
                    "midi": 61,
                    "time": 439.6268109999922,
                    "velocity": 0.36220472440944884,
                    "duration": 0.1037344999999732
                },
                {
                    "name": "A#3",
                    "midi": 58,
                    "time": 439.83427999999213,
                    "velocity": 0.3700787401574803,
                    "duration": 0.6224070000000097
                },
                {
                    "name": "E3",
                    "midi": 52,
                    "time": 439.83427999999213,
                    "velocity": 0.3700787401574803,
                    "duration": 0.41493800000000647
                },
                {
                    "name": "C#4",
                    "midi": 61,
                    "time": 439.83427999999213,
                    "velocity": 0.4409448818897638,
                    "duration": 0.41493800000000647
                },
                {
                    "name": "F3",
                    "midi": 53,
                    "time": 440.24921799999214,
                    "velocity": 0.33858267716535434,
                    "duration": 0.20746900000000323
                },
                {
                    "name": "D4",
                    "midi": 62,
                    "time": 440.24921799999214,
                    "velocity": 0.4094488188976378,
                    "duration": 0.20746900000000323
                },
                {
                    "name": "F3",
                    "midi": 53,
                    "time": 440.66415599999215,
                    "velocity": 0.41732283464566927,
                    "duration": 0.13831266666664987
                },
                {
                    "name": "G3",
                    "midi": 55,
                    "time": 440.8024686666588,
                    "velocity": 0.3779527559055118,
                    "duration": 0.13831266666664987
                },
                {
                    "name": "A3",
                    "midi": 57,
                    "time": 440.94078133332545,
                    "velocity": 0.3779527559055118,
                    "duration": 0.13831266666664987
                },
                {
                    "name": "B3",
                    "midi": 59,
                    "time": 441.0790939999921,
                    "velocity": 0.41732283464566927,
                    "duration": 0.13831266666664987
                },
                {
                    "name": "C4",
                    "midi": 60,
                    "time": 441.21740666665875,
                    "velocity": 0.3858267716535433,
                    "duration": 0.13831266666664987
                },
                {
                    "name": "D4",
                    "midi": 62,
                    "time": 441.3557193333254,
                    "velocity": 0.3779527559055118,
                    "duration": 0.13831266666664987
                },
                {
                    "name": "D#3",
                    "midi": 51,
                    "time": 441.49403199999205,
                    "velocity": 0.41732283464566927,
                    "duration": 0.20746900000000323
                },
                {
                    "name": "D#4",
                    "midi": 63,
                    "time": 441.70150099999205,
                    "velocity": 0.33070866141732286,
                    "duration": 0.20746900000000323
                },
                {
                    "name": "A#3",
                    "midi": 58,
                    "time": 441.90896999999205,
                    "velocity": 0.41732283464566927,
                    "duration": 0.20746900000000323
                },
                {
                    "name": "D4",
                    "midi": 62,
                    "time": 442.11643899999206,
                    "velocity": 0.3464566929133858,
                    "duration": 0.20746900000000323
                },
                {
                    "name": "A#1",
                    "midi": 34,
                    "time": 442.32390799999206,
                    "velocity": 0.28346456692913385,
                    "duration": 0.1037344999999732
                },
                {
                    "name": "A#2",
                    "midi": 46,
                    "time": 442.32390799999206,
                    "velocity": 0.33858267716535434,
                    "duration": 0.1037344999999732
                },
                {
                    "name": "A#1",
                    "midi": 34,
                    "time": 442.531376999992,
                    "velocity": 0.25984251968503935,
                    "duration": 0.1037344999999732
                },
                {
                    "name": "A#2",
                    "midi": 46,
                    "time": 442.531376999992,
                    "velocity": 0.30708661417322836,
                    "duration": 0.1037344999999732
                },
                {
                    "name": "A#1",
                    "midi": 34,
                    "time": 442.73884599999195,
                    "velocity": 0.28346456692913385,
                    "duration": 0.1037344999999732
                },
                {
                    "name": "A#2",
                    "midi": 46,
                    "time": 442.73884599999195,
                    "velocity": 0.33858267716535434,
                    "duration": 0.1037344999999732
                },
                {
                    "name": "A#1",
                    "midi": 34,
                    "time": 442.9463149999919,
                    "velocity": 0.25984251968503935,
                    "duration": 0.1037344999999732
                },
                {
                    "name": "A#2",
                    "midi": 46,
                    "time": 442.9463149999919,
                    "velocity": 0.30708661417322836,
                    "duration": 0.1037344999999732
                },
                {
                    "name": "A#1",
                    "midi": 34,
                    "time": 443.15378399999184,
                    "velocity": 0.30708661417322836,
                    "duration": 0.6224070000000097
                },
                {
                    "name": "A#2",
                    "midi": 46,
                    "time": 443.15378399999184,
                    "velocity": 0.3700787401574803,
                    "duration": 0.6224070000000097
                },
                {
                    "name": "F3",
                    "midi": 53,
                    "time": 443.98365999999186,
                    "velocity": 0.3543307086614173,
                    "duration": 0.13831266666664987
                },
                {
                    "name": "G3",
                    "midi": 55,
                    "time": 444.1219726666585,
                    "velocity": 0.31496062992125984,
                    "duration": 0.13831266666664987
                },
                {
                    "name": "A3",
                    "midi": 57,
                    "time": 444.26028533332516,
                    "velocity": 0.31496062992125984,
                    "duration": 0.13831266666664987
                },
                {
                    "name": "A#3",
                    "midi": 58,
                    "time": 444.3985979999918,
                    "velocity": 0.3543307086614173,
                    "duration": 0.13831266666664987
                },
                {
                    "name": "C4",
                    "midi": 60,
                    "time": 444.53691066665846,
                    "velocity": 0.3228346456692913,
                    "duration": 0.13831266666664987
                },
                {
                    "name": "D4",
                    "midi": 62,
                    "time": 444.6752233333251,
                    "velocity": 0.31496062992125984,
                    "duration": 0.13831266666664987
                },
                {
                    "name": "D#3",
                    "midi": 51,
                    "time": 444.81353599999176,
                    "velocity": 0.3543307086614173,
                    "duration": 0.20746900000000323
                },
                {
                    "name": "A#3",
                    "midi": 58,
                    "time": 445.02100499999176,
                    "velocity": 0.3228346456692913,
                    "duration": 0.15560175000001664
                },
                {
                    "name": "A#3",
                    "midi": 58,
                    "time": 445.22847399999176,
                    "velocity": 0.3543307086614173,
                    "duration": 0.20746900000000323
                },
                {
                    "name": "D4",
                    "midi": 62,
                    "time": 445.43594299999177,
                    "velocity": 0.31496062992125984,
                    "duration": 0.20746900000000323
                },
                {
                    "name": "A#1",
                    "midi": 34,
                    "time": 445.64341199999177,
                    "velocity": 0.28346456692913385,
                    "duration": 0.1037344999999732
                },
                {
                    "name": "A#2",
                    "midi": 46,
                    "time": 445.64341199999177,
                    "velocity": 0.33858267716535434,
                    "duration": 0.1037344999999732
                },
                {
                    "name": "A#1",
                    "midi": 34,
                    "time": 445.8508809999917,
                    "velocity": 0.25984251968503935,
                    "duration": 0.1037344999999732
                },
                {
                    "name": "A#2",
                    "midi": 46,
                    "time": 445.8508809999917,
                    "velocity": 0.30708661417322836,
                    "duration": 0.1037344999999732
                },
                {
                    "name": "A#1",
                    "midi": 34,
                    "time": 446.05834999999166,
                    "velocity": 0.28346456692913385,
                    "duration": 0.1037344999999732
                },
                {
                    "name": "A#2",
                    "midi": 46,
                    "time": 446.05834999999166,
                    "velocity": 0.33858267716535434,
                    "duration": 0.1037344999999732
                },
                {
                    "name": "A#1",
                    "midi": 34,
                    "time": 446.2658189999916,
                    "velocity": 0.25984251968503935,
                    "duration": 0.1037344999999732
                },
                {
                    "name": "A#2",
                    "midi": 46,
                    "time": 446.2658189999916,
                    "velocity": 0.30708661417322836,
                    "duration": 0.1037344999999732
                },
                {
                    "name": "A#1",
                    "midi": 34,
                    "time": 446.47328799999156,
                    "velocity": 0.30708661417322836,
                    "duration": 0.6224070000000097
                },
                {
                    "name": "A#2",
                    "midi": 46,
                    "time": 446.47328799999156,
                    "velocity": 0.3700787401574803,
                    "duration": 0.6224070000000097
                },
                {
                    "name": "F3",
                    "midi": 53,
                    "time": 447.30316399999157,
                    "velocity": 0.33858267716535434,
                    "duration": 0.13831266666664987
                },
                {
                    "name": "G3",
                    "midi": 55,
                    "time": 447.4414766666582,
                    "velocity": 0.3464566929133858,
                    "duration": 0.13831266666664987
                },
                {
                    "name": "A3",
                    "midi": 57,
                    "time": 447.57978933332487,
                    "velocity": 0.3543307086614173,
                    "duration": 0.13831266666664987
                },
                {
                    "name": "A#3",
                    "midi": 58,
                    "time": 447.7181019999915,
                    "velocity": 0.36220472440944884,
                    "duration": 0.13831266666664987
                },
                {
                    "name": "C4",
                    "midi": 60,
                    "time": 447.85641466665817,
                    "velocity": 0.3700787401574803,
                    "duration": 0.13831266666664987
                },
                {
                    "name": "D4",
                    "midi": 62,
                    "time": 447.9947273333248,
                    "velocity": 0.3779527559055118,
                    "duration": 0.13831266666664987
                },
                {
                    "name": "D#4",
                    "midi": 63,
                    "time": 448.13303999999147,
                    "velocity": 0.4015748031496063,
                    "duration": 0.13831266666664987
                },
                {
                    "name": "F4",
                    "midi": 65,
                    "time": 448.2713526666581,
                    "velocity": 0.3464566929133858,
                    "duration": 0.13831266666664987
                },
                {
                    "name": "G4",
                    "midi": 67,
                    "time": 448.40966533332477,
                    "velocity": 0.3464566929133858,
                    "duration": 0.13831266666664987
                },
                {
                    "name": "F4",
                    "midi": 65,
                    "time": 448.5479779999914,
                    "velocity": 0.4015748031496063,
                    "duration": 0.13831266666664987
                },
                {
                    "name": "D#4",
                    "midi": 63,
                    "time": 448.68629066665807,
                    "velocity": 0.3543307086614173,
                    "duration": 0.13831266666664987
                },
                {
                    "name": "D4",
                    "midi": 62,
                    "time": 448.8246033333247,
                    "velocity": 0.3543307086614173,
                    "duration": 0.13831266666664987
                },
                {
                    "name": "C#4",
                    "midi": 61,
                    "time": 448.96291599999137,
                    "velocity": 0.3779527559055118,
                    "duration": 0.13831266666664987
                },
                {
                    "name": "A#3",
                    "midi": 58,
                    "time": 449.101228666658,
                    "velocity": 0.30708661417322836,
                    "duration": 0.13831266666664987
                },
                {
                    "name": "G3",
                    "midi": 55,
                    "time": 449.23954133332467,
                    "velocity": 0.30708661417322836,
                    "duration": 0.13831266666664987
                },
                {
                    "name": "E3",
                    "midi": 52,
                    "time": 449.3778539999913,
                    "velocity": 0.3228346456692913,
                    "duration": 0.13831266666664987
                },
                {
                    "name": "C#3",
                    "midi": 49,
                    "time": 449.51616666665797,
                    "velocity": 0.30708661417322836,
                    "duration": 0.13831266666664987
                },
                {
                    "name": "E3",
                    "midi": 52,
                    "time": 449.6544793333246,
                    "velocity": 0.31496062992125984,
                    "duration": 0.13831266666664987
                },
                {
                    "name": "F3",
                    "midi": 53,
                    "time": 449.79279199999127,
                    "velocity": 0.33070866141732286,
                    "duration": 0.13831266666664987
                },
                {
                    "name": "D3",
                    "midi": 50,
                    "time": 449.9311046666579,
                    "velocity": 0.2992125984251969,
                    "duration": 0.13831266666664987
                },
                {
                    "name": "F3",
                    "midi": 53,
                    "time": 450.06941733332457,
                    "velocity": 0.2992125984251969,
                    "duration": 0.13831266666664987
                },
                {
                    "name": "D3",
                    "midi": 50,
                    "time": 450.2077299999912,
                    "velocity": 0.33070866141732286,
                    "duration": 0.13831266666664987
                },
                {
                    "name": "A#2",
                    "midi": 46,
                    "time": 450.34604266665787,
                    "velocity": 0.2992125984251969,
                    "duration": 0.13831266666664987
                },
                {
                    "name": "D3",
                    "midi": 50,
                    "time": 450.4843553333245,
                    "velocity": 0.2992125984251969,
                    "duration": 0.13831266666664987
                },
                {
                    "name": "F2",
                    "midi": 41,
                    "time": 450.62266799999117,
                    "velocity": 0.2992125984251969,
                    "duration": 0.13831266666664987
                },
                {
                    "name": "G2",
                    "midi": 43,
                    "time": 450.7609806666578,
                    "velocity": 0.30708661417322836,
                    "duration": 0.13831266666664987
                },
                {
                    "name": "A2",
                    "midi": 45,
                    "time": 450.89929333332447,
                    "velocity": 0.3228346456692913,
                    "duration": 0.13831266666664987
                },
                {
                    "name": "A#2",
                    "midi": 46,
                    "time": 451.0376059999911,
                    "velocity": 0.33858267716535434,
                    "duration": 0.13831266666664987
                },
                {
                    "name": "C3",
                    "midi": 48,
                    "time": 451.17591866665776,
                    "velocity": 0.3543307086614173,
                    "duration": 0.13831266666664987
                },
                {
                    "name": "D3",
                    "midi": 50,
                    "time": 451.3142313333244,
                    "velocity": 0.36220472440944884,
                    "duration": 0.13831266666664987
                },
                {
                    "name": "D#3",
                    "midi": 51,
                    "time": 451.45254399999106,
                    "velocity": 0.3779527559055118,
                    "duration": 0.13831266666664987
                },
                {
                    "name": "F3",
                    "midi": 53,
                    "time": 451.5908566666577,
                    "velocity": 0.3937007874015748,
                    "duration": 0.13831266666664987
                },
                {
                    "name": "G3",
                    "midi": 55,
                    "time": 451.72916933332436,
                    "velocity": 0.4015748031496063,
                    "duration": 0.13831266666664987
                },
                {
                    "name": "F3",
                    "midi": 53,
                    "time": 451.867481999991,
                    "velocity": 0.41732283464566927,
                    "duration": 0.13831266666664987
                },
                {
                    "name": "D#3",
                    "midi": 51,
                    "time": 452.00579466665766,
                    "velocity": 0.3858267716535433,
                    "duration": 0.13831266666664987
                },
                {
                    "name": "D3",
                    "midi": 50,
                    "time": 452.1441073333243,
                    "velocity": 0.4015748031496063,
                    "duration": 0.13831266666664987
                },
                {
                    "name": "C#3",
                    "midi": 49,
                    "time": 452.28241999999096,
                    "velocity": 0.3779527559055118,
                    "duration": 0.13831266666664987
                },
                {
                    "name": "A#2",
                    "midi": 46,
                    "time": 452.4207326666576,
                    "velocity": 0.36220472440944884,
                    "duration": 0.13831266666664987
                },
                {
                    "name": "G2",
                    "midi": 43,
                    "time": 452.55904533332426,
                    "velocity": 0.3543307086614173,
                    "duration": 0.13831266666664987
                },
                {
                    "name": "E2",
                    "midi": 40,
                    "time": 452.6973579999909,
                    "velocity": 0.33858267716535434,
                    "duration": 0.13831266666664987
                },
                {
                    "name": "C#2",
                    "midi": 37,
                    "time": 452.83567066665756,
                    "velocity": 0.30708661417322836,
                    "duration": 0.13831266666664987
                },
                {
                    "name": "E2",
                    "midi": 40,
                    "time": 452.9739833333242,
                    "velocity": 0.28346456692913385,
                    "duration": 0.13831266666664987
                },
                {
                    "name": "G2",
                    "midi": 43,
                    "time": 453.11229599999086,
                    "velocity": 0.3937007874015748,
                    "duration": 0.13831266666664987
                },
                {
                    "name": "E2",
                    "midi": 40,
                    "time": 453.2506086666575,
                    "velocity": 0.28346456692913385,
                    "duration": 0.13831266666664987
                },
                {
                    "name": "G2",
                    "midi": 43,
                    "time": 453.38892133332416,
                    "velocity": 0.28346456692913385,
                    "duration": 0.13831266666664987
                },
                {
                    "name": "E2",
                    "midi": 40,
                    "time": 453.5272339999908,
                    "velocity": 0.29133858267716534,
                    "duration": 0.13831266666664987
                },
                {
                    "name": "C#2",
                    "midi": 37,
                    "time": 453.66554666665746,
                    "velocity": 0.29133858267716534,
                    "duration": 0.13831266666664987
                },
                {
                    "name": "E2",
                    "midi": 40,
                    "time": 453.8038593333241,
                    "velocity": 0.2992125984251969,
                    "duration": 0.13831266666664987
                },
                {
                    "name": "G#2",
                    "midi": 44,
                    "time": 453.94217199999076,
                    "velocity": 0.4094488188976378,
                    "duration": 0.13831266666664987
                },
                {
                    "name": "E2",
                    "midi": 40,
                    "time": 454.0804846666574,
                    "velocity": 0.2992125984251969,
                    "duration": 0.13831266666664987
                },
                {
                    "name": "G#2",
                    "midi": 44,
                    "time": 454.21879733332406,
                    "velocity": 0.30708661417322836,
                    "duration": 0.13831266666664987
                },
                {
                    "name": "E2",
                    "midi": 40,
                    "time": 454.3571099999907,
                    "velocity": 0.30708661417322836,
                    "duration": 0.13831266666664987
                },
                {
                    "name": "C#2",
                    "midi": 37,
                    "time": 454.49542266665736,
                    "velocity": 0.31496062992125984,
                    "duration": 0.13831266666664987
                },
                {
                    "name": "E2",
                    "midi": 40,
                    "time": 454.633735333324,
                    "velocity": 0.31496062992125984,
                    "duration": 0.13831266666664987
                },
                {
                    "name": "A2",
                    "midi": 45,
                    "time": 454.77204799999066,
                    "velocity": 0.4330708661417323,
                    "duration": 0.13831266666664987
                },
                {
                    "name": "E2",
                    "midi": 40,
                    "time": 454.9103606666573,
                    "velocity": 0.3228346456692913,
                    "duration": 0.13831266666664987
                },
                {
                    "name": "A2",
                    "midi": 45,
                    "time": 455.04867333332396,
                    "velocity": 0.33070866141732286,
                    "duration": 0.13831266666664987
                },
                {
                    "name": "E2",
                    "midi": 40,
                    "time": 455.1869859999906,
                    "velocity": 0.33070866141732286,
                    "duration": 0.13831266666664987
                },
                {
                    "name": "C#2",
                    "midi": 37,
                    "time": 455.32529866665726,
                    "velocity": 0.33858267716535434,
                    "duration": 0.13831266666664987
                },
                {
                    "name": "E2",
                    "midi": 40,
                    "time": 455.4636113333239,
                    "velocity": 0.33858267716535434,
                    "duration": 0.13831266666664987
                },
                {
                    "name": "A2",
                    "midi": 45,
                    "time": 455.60192399999056,
                    "velocity": 0.44881889763779526,
                    "duration": 0.13831266666664987
                },
                {
                    "name": "E2",
                    "midi": 40,
                    "time": 455.7402366666572,
                    "velocity": 0.3464566929133858,
                    "duration": 0.13831266666664987
                },
                {
                    "name": "A2",
                    "midi": 45,
                    "time": 455.87854933332386,
                    "velocity": 0.3543307086614173,
                    "duration": 0.13831266666664987
                },
                {
                    "name": "E2",
                    "midi": 40,
                    "time": 456.0168619999905,
                    "velocity": 0.3543307086614173,
                    "duration": 0.13831266666664987
                },
                {
                    "name": "C2",
                    "midi": 36,
                    "time": 456.15517466665716,
                    "velocity": 0.3543307086614173,
                    "duration": 0.13831266666664987
                },
                {
                    "name": "E2",
                    "midi": 40,
                    "time": 456.2934873333238,
                    "velocity": 0.36220472440944884,
                    "duration": 0.13831266666664987
                },
                {
                    "name": "B1",
                    "midi": 35,
                    "time": 456.43179999999046,
                    "velocity": 0.4881889763779528,
                    "duration": 0.13831266666664987
                },
                {
                    "name": "F2",
                    "midi": 41,
                    "time": 456.5701126666571,
                    "velocity": 0.3937007874015748,
                    "duration": 0.13831266666664987
                },
                {
                    "name": "B1",
                    "midi": 35,
                    "time": 456.70842533332376,
                    "velocity": 0.4015748031496063,
                    "duration": 0.13831266666664987
                },
                {
                    "name": "F2",
                    "midi": 41,
                    "time": 456.8467379999904,
                    "velocity": 0.4094488188976378,
                    "duration": 0.13831266666664987
                },
                {
                    "name": "B2",
                    "midi": 47,
                    "time": 456.98505066665706,
                    "velocity": 0.41732283464566927,
                    "duration": 0.13831266666664987
                },
                {
                    "name": "F2",
                    "midi": 41,
                    "time": 457.1233633333237,
                    "velocity": 0.4251968503937008,
                    "duration": 0.13831266666664987
                },
                {
                    "name": "A#1",
                    "midi": 34,
                    "time": 457.26167599999036,
                    "velocity": 0.5433070866141733,
                    "duration": 0.13831266666664987
                },
                {
                    "name": "F2",
                    "midi": 41,
                    "time": 457.399988666657,
                    "velocity": 0.4409448818897638,
                    "duration": 0.13831266666664987
                },
                {
                    "name": "A#1",
                    "midi": 34,
                    "time": 457.53830133332366,
                    "velocity": 0.4566929133858268,
                    "duration": 0.13831266666664987
                },
                {
                    "name": "F2",
                    "midi": 41,
                    "time": 457.6766139999903,
                    "velocity": 0.4645669291338583,
                    "duration": 0.13831266666664987
                },
                {
                    "name": "A#2",
                    "midi": 46,
                    "time": 457.81492666665696,
                    "velocity": 0.48031496062992124,
                    "duration": 0.13831266666664987
                },
                {
                    "name": "A#1",
                    "midi": 34,
                    "time": 457.9532393333236,
                    "velocity": 0.4881889763779528,
                    "duration": 0.13831266666664987
                },
                {
                    "name": "A1",
                    "midi": 33,
                    "time": 458.09155199999026,
                    "velocity": 0.5748031496062992,
                    "duration": 0.8298760000000129
                },
                {
                    "name": "A2",
                    "midi": 45,
                    "time": 458.09155199999026,
                    "velocity": 0.6771653543307087,
                    "duration": 0.8298760000000129
                },
                {
                    "name": "A3",
                    "midi": 57,
                    "time": 458.92142799999027,
                    "velocity": 0.33858267716535434,
                    "duration": 0.15560175000001664
                },
                {
                    "name": "F#4",
                    "midi": 66,
                    "time": 458.92142799999027,
                    "velocity": 0.4015748031496063,
                    "duration": 0.15560175000001664
                },
                {
                    "name": "A3",
                    "midi": 57,
                    "time": 459.1288969999903,
                    "velocity": 0.30708661417322836,
                    "duration": 0.15560175000001664
                },
                {
                    "name": "F#4",
                    "midi": 66,
                    "time": 459.1288969999903,
                    "velocity": 0.36220472440944884,
                    "duration": 0.15560175000001664
                },
                {
                    "name": "A3",
                    "midi": 57,
                    "time": 459.3363659999903,
                    "velocity": 0.33858267716535434,
                    "duration": 0.15560175000001664
                },
                {
                    "name": "F#4",
                    "midi": 66,
                    "time": 459.3363659999903,
                    "velocity": 0.4015748031496063,
                    "duration": 0.15560175000001664
                },
                {
                    "name": "A3",
                    "midi": 57,
                    "time": 459.5438349999903,
                    "velocity": 0.30708661417322836,
                    "duration": 0.15560175000001664
                },
                {
                    "name": "F#4",
                    "midi": 66,
                    "time": 459.5438349999903,
                    "velocity": 0.36220472440944884,
                    "duration": 0.15560175000001664
                },
                {
                    "name": "A3",
                    "midi": 57,
                    "time": 459.7513039999903,
                    "velocity": 0.3700787401574803,
                    "duration": 0.6224070000000097
                },
                {
                    "name": "A4",
                    "midi": 69,
                    "time": 459.7513039999903,
                    "velocity": 0.4409448818897638,
                    "duration": 0.41493800000000647
                },
                {
                    "name": "E4",
                    "midi": 64,
                    "time": 460.1662419999903,
                    "velocity": 0.29133858267716534,
                    "duration": 0.20746900000000323
                },
                {
                    "name": "C#2",
                    "midi": 37,
                    "time": 460.3737109999903,
                    "velocity": 0.3858267716535433,
                    "duration": 0.20746900000000323
                },
                {
                    "name": "D2",
                    "midi": 38,
                    "time": 460.5811799999903,
                    "velocity": 0.41732283464566927,
                    "duration": 0.13831266666664987
                },
                {
                    "name": "C#2",
                    "midi": 37,
                    "time": 460.71949266665695,
                    "velocity": 0.3858267716535433,
                    "duration": 0.13831266666664987
                },
                {
                    "name": "B1",
                    "midi": 35,
                    "time": 460.8578053333236,
                    "velocity": 0.41732283464566927,
                    "duration": 0.13831266666664987
                },
                {
                    "name": "F2",
                    "midi": 41,
                    "time": 460.99611799999025,
                    "velocity": 0.4409448818897638,
                    "duration": 0.13831266666664987
                },
                {
                    "name": "E2",
                    "midi": 40,
                    "time": 461.1344306666569,
                    "velocity": 0.4015748031496063,
                    "duration": 0.13831266666664987
                },
                {
                    "name": "D2",
                    "midi": 38,
                    "time": 461.27274333332355,
                    "velocity": 0.2992125984251969,
                    "duration": 0.13831266666664987
                },
                {
                    "name": "E2",
                    "midi": 40,
                    "time": 461.4110559999902,
                    "velocity": 0.33858267716535434,
                    "duration": 0.20746900000000323
                },
                {
                    "name": "C#3",
                    "midi": 49,
                    "time": 461.4110559999902,
                    "velocity": 0.3700787401574803,
                    "duration": 0.13831266666664987
                },
                {
                    "name": "D3",
                    "midi": 50,
                    "time": 461.54936866665685,
                    "velocity": 0.3228346456692913,
                    "duration": 0.13831266666670672
                },
                {
                    "name": "E3",
                    "midi": 52,
                    "time": 461.68768133332355,
                    "velocity": 0.3228346456692913,
                    "duration": 0.13831266666664987
                },
                {
                    "name": "F#3",
                    "midi": 54,
                    "time": 461.8259939999902,
                    "velocity": 0.3700787401574803,
                    "duration": 0.13831266666664987
                },
                {
                    "name": "G#3",
                    "midi": 56,
                    "time": 461.96430666665685,
                    "velocity": 0.33070866141732286,
                    "duration": 0.13831266666664987
                },
                {
                    "name": "A3",
                    "midi": 57,
                    "time": 462.1026193333235,
                    "velocity": 0.33070866141732286,
                    "duration": 0.13831266666664987
                },
                {
                    "name": "E3",
                    "midi": 52,
                    "time": 462.5175573333235,
                    "velocity": 0.3464566929133858,
                    "duration": 0.13831266666664987
                },
                {
                    "name": "D3",
                    "midi": 50,
                    "time": 462.65586999999016,
                    "velocity": 0.3937007874015748,
                    "duration": 0.13831266666664987
                },
                {
                    "name": "C#3",
                    "midi": 49,
                    "time": 462.7941826666568,
                    "velocity": 0.41732283464566927,
                    "duration": 0.13831266666664987
                },
                {
                    "name": "B2",
                    "midi": 47,
                    "time": 462.93249533332346,
                    "velocity": 0.4409448818897638,
                    "duration": 0.13831266666664987
                },
                {
                    "name": "A1",
                    "midi": 33,
                    "time": 463.0708079999901,
                    "velocity": 0.5118110236220472,
                    "duration": 0.8298760000000129
                },
                {
                    "name": "A2",
                    "midi": 45,
                    "time": 463.0708079999901,
                    "velocity": 0.6062992125984252,
                    "duration": 0.8298760000000129
                },
                {
                    "name": "A3",
                    "midi": 57,
                    "time": 463.9006839999901,
                    "velocity": 0.33858267716535434,
                    "duration": 0.28526987499998313
                },
                {
                    "name": "F#4",
                    "midi": 66,
                    "time": 463.9006839999901,
                    "velocity": 0.4015748031496063,
                    "duration": 0.28526987499998313
                },
                {
                    "name": "A3",
                    "midi": 57,
                    "time": 464.2118874999901,
                    "velocity": 0.30708661417322836,
                    "duration": 0.0778008749999799
                },
                {
                    "name": "F#4",
                    "midi": 66,
                    "time": 464.2118874999901,
                    "velocity": 0.36220472440944884,
                    "duration": 0.0778008749999799
                },
                {
                    "name": "A3",
                    "midi": 57,
                    "time": 464.31562199999007,
                    "velocity": 0.33858267716535434,
                    "duration": 0.28526987499998313
                },
                {
                    "name": "F#4",
                    "midi": 66,
                    "time": 464.31562199999007,
                    "velocity": 0.4015748031496063,
                    "duration": 0.28526987499998313
                },
                {
                    "name": "A3",
                    "midi": 57,
                    "time": 464.62682549999005,
                    "velocity": 0.30708661417322836,
                    "duration": 0.0778008749999799
                },
                {
                    "name": "F#4",
                    "midi": 66,
                    "time": 464.62682549999005,
                    "velocity": 0.36220472440944884,
                    "duration": 0.0778008749999799
                },
                {
                    "name": "A3",
                    "midi": 57,
                    "time": 464.73055999999,
                    "velocity": 0.3700787401574803,
                    "duration": 0.6224070000000097
                },
                {
                    "name": "A4",
                    "midi": 69,
                    "time": 464.73055999999,
                    "velocity": 0.4409448818897638,
                    "duration": 0.41493800000000647
                },
                {
                    "name": "E4",
                    "midi": 64,
                    "time": 465.14549799999,
                    "velocity": 0.29133858267716534,
                    "duration": 0.20746900000000323
                },
                {
                    "name": "C#2",
                    "midi": 37,
                    "time": 465.35296699999003,
                    "velocity": 0.3858267716535433,
                    "duration": 0.20746900000000323
                },
                {
                    "name": "D2",
                    "midi": 38,
                    "time": 465.56043599999003,
                    "velocity": 0.41732283464566927,
                    "duration": 0.13831266666664987
                },
                {
                    "name": "C#2",
                    "midi": 37,
                    "time": 465.6987486666567,
                    "velocity": 0.3858267716535433,
                    "duration": 0.13831266666664987
                },
                {
                    "name": "B1",
                    "midi": 35,
                    "time": 465.83706133332333,
                    "velocity": 0.41732283464566927,
                    "duration": 0.13831266666664987
                },
                {
                    "name": "F2",
                    "midi": 41,
                    "time": 465.97537399999,
                    "velocity": 0.4409448818897638,
                    "duration": 0.13831266666664987
                },
                {
                    "name": "E2",
                    "midi": 40,
                    "time": 466.11368666665663,
                    "velocity": 0.4015748031496063,
                    "duration": 0.13831266666664987
                },
                {
                    "name": "D2",
                    "midi": 38,
                    "time": 466.2519993333233,
                    "velocity": 0.2992125984251969,
                    "duration": 0.13831266666664987
                },
                {
                    "name": "E2",
                    "midi": 40,
                    "time": 466.39031199998993,
                    "velocity": 0.33858267716535434,
                    "duration": 0.20746900000000323
                },
                {
                    "name": "C#3",
                    "midi": 49,
                    "time": 466.39031199998993,
                    "velocity": 0.3700787401574803,
                    "duration": 0.13831266666664987
                },
                {
                    "name": "D3",
                    "midi": 50,
                    "time": 466.5286246666566,
                    "velocity": 0.3228346456692913,
                    "duration": 0.13831266666670672
                },
                {
                    "name": "E3",
                    "midi": 52,
                    "time": 466.6669373333233,
                    "velocity": 0.3228346456692913,
                    "duration": 0.13831266666664987
                },
                {
                    "name": "F#3",
                    "midi": 54,
                    "time": 466.80524999998994,
                    "velocity": 0.3700787401574803,
                    "duration": 0.13831266666664987
                },
                {
                    "name": "G#3",
                    "midi": 56,
                    "time": 466.9435626666566,
                    "velocity": 0.33070866141732286,
                    "duration": 0.13831266666664987
                },
                {
                    "name": "A3",
                    "midi": 57,
                    "time": 467.08187533332324,
                    "velocity": 0.33070866141732286,
                    "duration": 0.13831266666664987
                },
                {
                    "name": "E3",
                    "midi": 52,
                    "time": 467.49681333332325,
                    "velocity": 0.3464566929133858,
                    "duration": 0.13831266666664987
                },
                {
                    "name": "D3",
                    "midi": 50,
                    "time": 467.6351259999899,
                    "velocity": 0.3937007874015748,
                    "duration": 0.13831266666664987
                },
                {
                    "name": "C#3",
                    "midi": 49,
                    "time": 467.77343866665655,
                    "velocity": 0.41732283464566927,
                    "duration": 0.13831266666664987
                },
                {
                    "name": "B2",
                    "midi": 47,
                    "time": 467.9117513333232,
                    "velocity": 0.4409448818897638,
                    "duration": 0.13831266666664987
                },
                {
                    "name": "A2",
                    "midi": 45,
                    "time": 468.05006399998985,
                    "velocity": 0.3937007874015748,
                    "duration": 0.20746900000000323
                },
                {
                    "name": "D4",
                    "midi": 62,
                    "time": 471.36956799998984,
                    "velocity": 0.3228346456692913,
                    "duration": 0.41493800000000647
                },
                {
                    "name": "F#3",
                    "midi": 54,
                    "time": 471.78450599998985,
                    "velocity": 0.2755905511811024,
                    "duration": 0.1037344999999732
                },
                {
                    "name": "E4",
                    "midi": 64,
                    "time": 472.1994439999898,
                    "velocity": 0.3228346456692913,
                    "duration": 0.41493800000000647
                },
                {
                    "name": "A3",
                    "midi": 57,
                    "time": 472.6143819999898,
                    "velocity": 0.2755905511811024,
                    "duration": 0.1037344999999732
                },
                {
                    "name": "A3",
                    "midi": 57,
                    "time": 472.97745274998977,
                    "velocity": 0.25984251968503935,
                    "duration": 0.0518672499999866
                },
                {
                    "name": "F#4",
                    "midi": 66,
                    "time": 473.02931999998975,
                    "velocity": 0.3228346456692913,
                    "duration": 0.41493800000000647
                },
                {
                    "name": "D4",
                    "midi": 62,
                    "time": 473.44425799998976,
                    "velocity": 0.2677165354330709,
                    "duration": 0.1037344999999732
                },
                {
                    "name": "D4",
                    "midi": 62,
                    "time": 473.8073287499897,
                    "velocity": 0.25984251968503935,
                    "duration": 0.0518672499999866
                },
                {
                    "name": "B4",
                    "midi": 71,
                    "time": 473.8591959999897,
                    "velocity": 0.3543307086614173,
                    "duration": 0.31120349999997643
                },
                {
                    "name": "G#4",
                    "midi": 68,
                    "time": 474.1703994999897,
                    "velocity": 0.28346456692913385,
                    "duration": 0.1037344999999732
                },
                {
                    "name": "B4",
                    "midi": 71,
                    "time": 474.27413399998966,
                    "velocity": 0.33858267716535434,
                    "duration": 0.31120349999997643
                },
                {
                    "name": "G#4",
                    "midi": 68,
                    "time": 474.58533749998963,
                    "velocity": 0.2755905511811024,
                    "duration": 0.1037344999999732
                },
                {
                    "name": "A4",
                    "midi": 69,
                    "time": 474.6890719999896,
                    "velocity": 0.3228346456692913,
                    "duration": 0.4123446374999844
                },
                {
                    "name": "A3",
                    "midi": 57,
                    "time": 475.10746781665625,
                    "velocity": 0.2755905511811024,
                    "duration": 0.1037344999999732
                },
                {
                    "name": "A3",
                    "midi": 57,
                    "time": 475.4670807499896,
                    "velocity": 0.25984251968503935,
                    "duration": 0.0518672499999866
                },
                {
                    "name": "G4",
                    "midi": 67,
                    "time": 475.51894799998956,
                    "velocity": 0.3228346456692913,
                    "duration": 0.41493800000000647
                },
                {
                    "name": "E4",
                    "midi": 64,
                    "time": 475.93388599998957,
                    "velocity": 0.2755905511811024,
                    "duration": 0.1037344999999732
                },
                {
                    "name": "E4",
                    "midi": 64,
                    "time": 476.29695674998953,
                    "velocity": 0.25984251968503935,
                    "duration": 0.0518672499999866
                },
                {
                    "name": "F#4",
                    "midi": 66,
                    "time": 476.3488239999895,
                    "velocity": 0.3228346456692913,
                    "duration": 0.41493800000000647
                },
                {
                    "name": "A3",
                    "midi": 57,
                    "time": 476.7637619999895,
                    "velocity": 0.2677165354330709,
                    "duration": 0.1037344999999732
                },
                {
                    "name": "A3",
                    "midi": 57,
                    "time": 477.1268327499895,
                    "velocity": 0.25984251968503935,
                    "duration": 0.0518672499999866
                },
                {
                    "name": "E4",
                    "midi": 64,
                    "time": 477.1786999999895,
                    "velocity": 0.3543307086614173,
                    "duration": 0.31120349999997643
                },
                {
                    "name": "C#4",
                    "midi": 61,
                    "time": 477.48990349998945,
                    "velocity": 0.28346456692913385,
                    "duration": 0.1037344999999732
                },
                {
                    "name": "E4",
                    "midi": 64,
                    "time": 477.5936379999894,
                    "velocity": 0.33858267716535434,
                    "duration": 0.31120349999997643
                },
                {
                    "name": "C#4",
                    "midi": 61,
                    "time": 477.9048414999894,
                    "velocity": 0.2755905511811024,
                    "duration": 0.1037344999999732
                },
                {
                    "name": "F#3",
                    "midi": 54,
                    "time": 478.0085759999894,
                    "velocity": 0.3228346456692913,
                    "duration": 0.41493800000000647
                },
                {
                    "name": "D4",
                    "midi": 62,
                    "time": 478.0085759999894,
                    "velocity": 0.3228346456692913,
                    "duration": 0.41493800000000647
                },
                {
                    "name": "A3",
                    "midi": 57,
                    "time": 478.426971816656,
                    "velocity": 0.2755905511811024,
                    "duration": 0.1037344999999732
                },
                {
                    "name": "C#4",
                    "midi": 61,
                    "time": 478.83845199998933,
                    "velocity": 0.3228346456692913,
                    "duration": 0.41493800000000647
                },
                {
                    "name": "E4",
                    "midi": 64,
                    "time": 478.83845199998933,
                    "velocity": 0.3228346456692913,
                    "duration": 0.41493800000000647
                },
                {
                    "name": "A3",
                    "midi": 57,
                    "time": 479.256847816656,
                    "velocity": 0.2755905511811024,
                    "duration": 0.1037344999999732
                },
                {
                    "name": "A3",
                    "midi": 57,
                    "time": 479.6683279999893,
                    "velocity": 0.3228346456692913,
                    "duration": 0.41493800000000647
                },
                {
                    "name": "F#4",
                    "midi": 66,
                    "time": 479.6683279999893,
                    "velocity": 0.3228346456692913,
                    "duration": 0.41493800000000647
                },
                {
                    "name": "D4",
                    "midi": 62,
                    "time": 480.0832659999893,
                    "velocity": 0.2755905511811024,
                    "duration": 0.1037344999999732
                },
                {
                    "name": "G#4",
                    "midi": 68,
                    "time": 480.49820399998924,
                    "velocity": 0.3543307086614173,
                    "duration": 0.31120349999997643
                },
                {
                    "name": "F4",
                    "midi": 65,
                    "time": 480.49820399998924,
                    "velocity": 0.2992125984251969,
                    "duration": 0.31120349999997643
                },
                {
                    "name": "D4",
                    "midi": 62,
                    "time": 480.8094074999892,
                    "velocity": 0.28346456692913385,
                    "duration": 0.1037344999999732
                },
                {
                    "name": "G#4",
                    "midi": 68,
                    "time": 480.9131419999892,
                    "velocity": 0.33858267716535434,
                    "duration": 0.31120349999997643
                },
                {
                    "name": "F4",
                    "midi": 65,
                    "time": 480.9131419999892,
                    "velocity": 0.28346456692913385,
                    "duration": 0.31120349999997643
                },
                {
                    "name": "D4",
                    "midi": 62,
                    "time": 481.22434549998917,
                    "velocity": 0.2755905511811024,
                    "duration": 0.1037344999999732
                },
                {
                    "name": "A4",
                    "midi": 69,
                    "time": 481.32807999998914,
                    "velocity": 0.3228346456692913,
                    "duration": 0.4123446374999844
                },
                {
                    "name": "F#4",
                    "midi": 66,
                    "time": 481.32807999998914,
                    "velocity": 0.3228346456692913,
                    "duration": 0.41493800000000647
                },
                {
                    "name": "A3",
                    "midi": 57,
                    "time": 481.7464758166558,
                    "velocity": 0.2755905511811024,
                    "duration": 0.1037344999999732
                },
                {
                    "name": "E4",
                    "midi": 64,
                    "time": 482.1579559999891,
                    "velocity": 0.3228346456692913,
                    "duration": 0.41493800000000647
                },
                {
                    "name": "G4",
                    "midi": 67,
                    "time": 482.1579559999891,
                    "velocity": 0.3228346456692913,
                    "duration": 0.41493800000000647
                },
                {
                    "name": "A3",
                    "midi": 57,
                    "time": 482.57635181665574,
                    "velocity": 0.2755905511811024,
                    "duration": 0.1037344999999732
                },
                {
                    "name": "D4",
                    "midi": 62,
                    "time": 482.98783199998906,
                    "velocity": 0.3228346456692913,
                    "duration": 0.41493800000000647
                },
                {
                    "name": "F#4",
                    "midi": 66,
                    "time": 482.98783199998906,
                    "velocity": 0.3228346456692913,
                    "duration": 0.41493800000000647
                },
                {
                    "name": "A3",
                    "midi": 57,
                    "time": 483.40276999998906,
                    "velocity": 0.2755905511811024,
                    "duration": 0.1037344999999732
                },
                {
                    "name": "C#4",
                    "midi": 61,
                    "time": 483.817707999989,
                    "velocity": 0.2992125984251969,
                    "duration": 0.31120349999997643
                },
                {
                    "name": "E4",
                    "midi": 64,
                    "time": 483.817707999989,
                    "velocity": 0.3543307086614173,
                    "duration": 0.31120349999997643
                },
                {
                    "name": "A3",
                    "midi": 57,
                    "time": 484.128911499989,
                    "velocity": 0.28346456692913385,
                    "duration": 0.1037344999999732
                },
                {
                    "name": "C#4",
                    "midi": 61,
                    "time": 484.23264599998896,
                    "velocity": 0.28346456692913385,
                    "duration": 0.31120349999997643
                },
                {
                    "name": "E4",
                    "midi": 64,
                    "time": 484.23264599998896,
                    "velocity": 0.33858267716535434,
                    "duration": 0.31120349999997643
                },
                {
                    "name": "A3",
                    "midi": 57,
                    "time": 484.54384949998894,
                    "velocity": 0.2755905511811024,
                    "duration": 0.1037344999999732
                },
                {
                    "name": "E4",
                    "midi": 64,
                    "time": 484.6475839999889,
                    "velocity": 0.5433070866141733,
                    "duration": 0.13831266666664987
                },
                {
                    "name": "G3",
                    "midi": 55,
                    "time": 484.78589666665556,
                    "velocity": 0.41732283464566927,
                    "duration": 0.13831266666664987
                },
                {
                    "name": "E4",
                    "midi": 64,
                    "time": 484.9242093333222,
                    "velocity": 0.41732283464566927,
                    "duration": 0.13831266666664987
                },
                {
                    "name": "C3",
                    "midi": 48,
                    "time": 485.06252199998886,
                    "velocity": 0.5590551181102362,
                    "duration": 0.7261414999999829
                },
                {
                    "name": "G3",
                    "midi": 55,
                    "time": 485.78866349998884,
                    "velocity": 0.3779527559055118,
                    "duration": 0.1037344999999732
                },
                {
                    "name": "E4",
                    "midi": 64,
                    "time": 485.78866349998884,
                    "velocity": 0.3779527559055118,
                    "duration": 0.1037344999999732
                },
                {
                    "name": "C3",
                    "midi": 48,
                    "time": 485.8923979999888,
                    "velocity": 0.4881889763779528,
                    "duration": 0.31120349999997643
                },
                {
                    "name": "G3",
                    "midi": 55,
                    "time": 486.2036014999888,
                    "velocity": 0.41732283464566927,
                    "duration": 0.1037344999999732
                },
                {
                    "name": "E4",
                    "midi": 64,
                    "time": 486.30733599998877,
                    "velocity": 0.5590551181102362,
                    "duration": 0.13831266666664987
                },
                {
                    "name": "G3",
                    "midi": 55,
                    "time": 486.4456486666554,
                    "velocity": 0.41732283464566927,
                    "duration": 0.13831266666664987
                },
                {
                    "name": "E4",
                    "midi": 64,
                    "time": 486.58396133332207,
                    "velocity": 0.41732283464566927,
                    "duration": 0.13831266666664987
                },
                {
                    "name": "C3",
                    "midi": 48,
                    "time": 486.7222739999887,
                    "velocity": 0.5354330708661418,
                    "duration": 0.7261414999999829
                },
                {
                    "name": "G3",
                    "midi": 55,
                    "time": 487.4484154999887,
                    "velocity": 0.3779527559055118,
                    "duration": 0.1037344999999732
                },
                {
                    "name": "E4",
                    "midi": 64,
                    "time": 487.4484154999887,
                    "velocity": 0.3779527559055118,
                    "duration": 0.1037344999999732
                },
                {
                    "name": "C3",
                    "midi": 48,
                    "time": 487.55214999998867,
                    "velocity": 0.4881889763779528,
                    "duration": 0.7261414999999829
                },
                {
                    "name": "G3",
                    "midi": 55,
                    "time": 488.27829149998865,
                    "velocity": 0.3543307086614173,
                    "duration": 0.1037344999999732
                },
                {
                    "name": "E4",
                    "midi": 64,
                    "time": 488.27829149998865,
                    "velocity": 0.41732283464566927,
                    "duration": 0.1037344999999732
                },
                {
                    "name": "C3",
                    "midi": 48,
                    "time": 488.3820259999886,
                    "velocity": 0.4881889763779528,
                    "duration": 0.7261414999999829
                },
                {
                    "name": "G3",
                    "midi": 55,
                    "time": 489.1081674999886,
                    "velocity": 0.3543307086614173,
                    "duration": 0.1037344999999732
                },
                {
                    "name": "E4",
                    "midi": 64,
                    "time": 489.1081674999886,
                    "velocity": 0.41732283464566927,
                    "duration": 0.1037344999999732
                },
                {
                    "name": "C3",
                    "midi": 48,
                    "time": 489.2119019999886,
                    "velocity": 0.4881889763779528,
                    "duration": 0.31120349999997643
                },
                {
                    "name": "C4",
                    "midi": 60,
                    "time": 489.52310549998856,
                    "velocity": 0.41732283464566927,
                    "duration": 0.1037344999999732
                },
                {
                    "name": "F3",
                    "midi": 53,
                    "time": 489.62683999998853,
                    "velocity": 0.5590551181102362,
                    "duration": 0.13831266666664987
                },
                {
                    "name": "C4",
                    "midi": 60,
                    "time": 489.7651526666552,
                    "velocity": 0.41732283464566927,
                    "duration": 0.13831266666664987
                },
                {
                    "name": "F3",
                    "midi": 53,
                    "time": 489.90346533332183,
                    "velocity": 0.41732283464566927,
                    "duration": 0.13831266666664987
                },
                {
                    "name": "F2",
                    "midi": 41,
                    "time": 490.0417779999885,
                    "velocity": 0.5433070866141733,
                    "duration": 0.7261414999999829
                },
                {
                    "name": "F3",
                    "midi": 53,
                    "time": 490.76791949998847,
                    "velocity": 0.3779527559055118,
                    "duration": 0.1037344999999732
                },
                {
                    "name": "C4",
                    "midi": 60,
                    "time": 490.76791949998847,
                    "velocity": 0.3779527559055118,
                    "duration": 0.1037344999999732
                },
                {
                    "name": "F2",
                    "midi": 41,
                    "time": 490.87165399998844,
                    "velocity": 0.4881889763779528,
                    "duration": 0.31120349999997643
                },
                {
                    "name": "C4",
                    "midi": 60,
                    "time": 491.1828574999884,
                    "velocity": 0.41732283464566927,
                    "duration": 0.1037344999999732
                },
                {
                    "name": "F3",
                    "midi": 53,
                    "time": 491.2865919999884,
                    "velocity": 0.4881889763779528,
                    "duration": 0.13831266666664987
                },
                {
                    "name": "C4",
                    "midi": 60,
                    "time": 491.42490466665504,
                    "velocity": 0.41732283464566927,
                    "duration": 0.13831266666664987
                },
                {
                    "name": "F3",
                    "midi": 53,
                    "time": 491.5632173333217,
                    "velocity": 0.41732283464566927,
                    "duration": 0.13831266666664987
                },
                {
                    "name": "F2",
                    "midi": 41,
                    "time": 491.70152999998834,
                    "velocity": 0.4881889763779528,
                    "duration": 0.7261414999999829
                },
                {
                    "name": "F3",
                    "midi": 53,
                    "time": 492.4276714999883,
                    "velocity": 0.3779527559055118,
                    "duration": 0.1037344999999732
                },
                {
                    "name": "C4",
                    "midi": 60,
                    "time": 492.4276714999883,
                    "velocity": 0.3779527559055118,
                    "duration": 0.1037344999999732
                },
                {
                    "name": "F2",
                    "midi": 41,
                    "time": 492.5314059999883,
                    "velocity": 0.4881889763779528,
                    "duration": 0.7261414999999829
                },
                {
                    "name": "F3",
                    "midi": 53,
                    "time": 493.2575474999883,
                    "velocity": 0.3543307086614173,
                    "duration": 0.1037344999999732
                },
                {
                    "name": "C4",
                    "midi": 60,
                    "time": 493.2575474999883,
                    "velocity": 0.41732283464566927,
                    "duration": 0.1037344999999732
                },
                {
                    "name": "F2",
                    "midi": 41,
                    "time": 493.36128199998825,
                    "velocity": 0.4881889763779528,
                    "duration": 0.7261414999999829
                },
                {
                    "name": "A2",
                    "midi": 45,
                    "time": 494.08742349998823,
                    "velocity": 0.3228346456692913,
                    "duration": 0.1037344999999732
                },
                {
                    "name": "E2",
                    "midi": 40,
                    "time": 494.1911579999882,
                    "velocity": 0.3543307086614173,
                    "duration": 0.7261414999999829
                },
                {
                    "name": "A2",
                    "midi": 45,
                    "time": 494.9172994999882,
                    "velocity": 0.25984251968503935,
                    "duration": 0.1037344999999732
                },
                {
                    "name": "E2",
                    "midi": 40,
                    "time": 495.02103399998816,
                    "velocity": 0.29133858267716534,
                    "duration": 0.31120349999997643
                },
                {
                    "name": "A2",
                    "midi": 45,
                    "time": 495.33223749998814,
                    "velocity": 0.25196850393700787,
                    "duration": 0.1037344999999732
                },
                {
                    "name": "E2",
                    "midi": 40,
                    "time": 495.4359719999881,
                    "velocity": 0.2677165354330709,
                    "duration": 0.31120349999997643
                },
                {
                    "name": "A2",
                    "midi": 45,
                    "time": 495.7471754999881,
                    "velocity": 0.2283464566929134,
                    "duration": 0.1037344999999732
                },
                {
                    "name": "E2",
                    "midi": 40,
                    "time": 495.85090999998806,
                    "velocity": 0.2440944881889764,
                    "duration": 0.31120349999997643
                },
                {
                    "name": "A2",
                    "midi": 45,
                    "time": 496.16211349998804,
                    "velocity": 0.2125984251968504,
                    "duration": 0.1037344999999732
                },
                {
                    "name": "D2",
                    "midi": 38,
                    "time": 496.265847999988,
                    "velocity": 0.2440944881889764,
                    "duration": 0.1037344999999732
                },
                {
                    "name": "D4",
                    "midi": 62,
                    "time": 497.2340366666547,
                    "velocity": 0.2992125984251969,
                    "duration": 0.13831266666664987
                },
                {
                    "name": "F#4",
                    "midi": 66,
                    "time": 497.3723493333213,
                    "velocity": 0.31496062992125984,
                    "duration": 0.13831266666664987
                },
                {
                    "name": "A4",
                    "midi": 69,
                    "time": 497.510661999988,
                    "velocity": 0.33070866141732286,
                    "duration": 0.13831266666664987
                },
                {
                    "name": "D5",
                    "midi": 74,
                    "time": 497.6489746666546,
                    "velocity": 0.3228346456692913,
                    "duration": 0.13831266666664987
                },
                {
                    "name": "F#5",
                    "midi": 78,
                    "time": 497.7872873333213,
                    "velocity": 0.2992125984251969,
                    "duration": 0.13831266666664987
                },
                {
                    "name": "A4",
                    "midi": 69,
                    "time": 497.9255999999879,
                    "velocity": 0.33070866141732286,
                    "duration": 0.20746900000000323
                },
                {
                    "name": "G4",
                    "midi": 67,
                    "time": 498.34053799998793,
                    "velocity": 0.2677165354330709,
                    "duration": 0.1037344999999732
                },
                {
                    "name": "E4",
                    "midi": 64,
                    "time": 498.34053799998793,
                    "velocity": 0.2204724409448819,
                    "duration": 0.1037344999999732
                },
                {
                    "name": "A3",
                    "midi": 57,
                    "time": 498.34053799998793,
                    "velocity": 0.2204724409448819,
                    "duration": 0.1037344999999732
                },
                {
                    "name": "F#4",
                    "midi": 66,
                    "time": 498.7554759999879,
                    "velocity": 0.2677165354330709,
                    "duration": 0.1037344999999732
                },
                {
                    "name": "D4",
                    "midi": 62,
                    "time": 498.7554759999879,
                    "velocity": 0.2204724409448819,
                    "duration": 0.1037344999999732
                },
                {
                    "name": "A3",
                    "midi": 57,
                    "time": 498.7554759999879,
                    "velocity": 0.2204724409448819,
                    "duration": 0.1037344999999732
                },
                {
                    "name": "E4",
                    "midi": 64,
                    "time": 499.17041399998783,
                    "velocity": 0.2677165354330709,
                    "duration": 0.1037344999999732
                },
                {
                    "name": "C#4",
                    "midi": 61,
                    "time": 499.17041399998783,
                    "velocity": 0.2204724409448819,
                    "duration": 0.1037344999999732
                },
                {
                    "name": "A3",
                    "midi": 57,
                    "time": 499.17041399998783,
                    "velocity": 0.2204724409448819,
                    "duration": 0.1037344999999732
                },
                {
                    "name": "D3",
                    "midi": 50,
                    "time": 499.5853519999878,
                    "velocity": 0.2440944881889764,
                    "duration": 0.20746900000000323
                },
                {
                    "name": "F#3",
                    "midi": 54,
                    "time": 499.5853519999878,
                    "velocity": 0.2440944881889764,
                    "duration": 0.20746900000000323
                },
                {
                    "name": "D4",
                    "midi": 62,
                    "time": 499.5853519999878,
                    "velocity": 0.29133858267716534,
                    "duration": 0.20746900000000323
                },
                {
                    "name": "D4",
                    "midi": 62,
                    "time": 500.55354066665444,
                    "velocity": 0.2992125984251969,
                    "duration": 0.13831266666664987
                },
                {
                    "name": "F#4",
                    "midi": 66,
                    "time": 500.6918533333211,
                    "velocity": 0.31496062992125984,
                    "duration": 0.13831266666664987
                },
                {
                    "name": "A4",
                    "midi": 69,
                    "time": 500.83016599998774,
                    "velocity": 0.33070866141732286,
                    "duration": 0.13831266666664987
                },
                {
                    "name": "D5",
                    "midi": 74,
                    "time": 500.9684786666544,
                    "velocity": 0.3228346456692913,
                    "duration": 0.13831266666664987
                },
                {
                    "name": "F#5",
                    "midi": 78,
                    "time": 501.10679133332104,
                    "velocity": 0.2992125984251969,
                    "duration": 0.13831266666664987
                },
                {
                    "name": "A4",
                    "midi": 69,
                    "time": 501.2451039999877,
                    "velocity": 0.33070866141732286,
                    "duration": 0.20746900000000323
                },
                {
                    "name": "G4",
                    "midi": 67,
                    "time": 501.6600419999877,
                    "velocity": 0.2677165354330709,
                    "duration": 0.1037344999999732
                },
                {
                    "name": "E4",
                    "midi": 64,
                    "time": 501.6600419999877,
                    "velocity": 0.2204724409448819,
                    "duration": 0.1037344999999732
                },
                {
                    "name": "A3",
                    "midi": 57,
                    "time": 501.6600419999877,
                    "velocity": 0.2204724409448819,
                    "duration": 0.1037344999999732
                },
                {
                    "name": "F#4",
                    "midi": 66,
                    "time": 502.07497999998765,
                    "velocity": 0.2677165354330709,
                    "duration": 0.1037344999999732
                },
                {
                    "name": "D4",
                    "midi": 62,
                    "time": 502.07497999998765,
                    "velocity": 0.2204724409448819,
                    "duration": 0.1037344999999732
                },
                {
                    "name": "A3",
                    "midi": 57,
                    "time": 502.07497999998765,
                    "velocity": 0.2204724409448819,
                    "duration": 0.1037344999999732
                },
                {
                    "name": "E4",
                    "midi": 64,
                    "time": 502.4899179999876,
                    "velocity": 0.2677165354330709,
                    "duration": 0.1037344999999732
                },
                {
                    "name": "C#4",
                    "midi": 61,
                    "time": 502.4899179999876,
                    "velocity": 0.2204724409448819,
                    "duration": 0.1037344999999732
                },
                {
                    "name": "A3",
                    "midi": 57,
                    "time": 502.4899179999876,
                    "velocity": 0.2204724409448819,
                    "duration": 0.1037344999999732
                },
                {
                    "name": "D4",
                    "midi": 62,
                    "time": 502.90485599998755,
                    "velocity": 0.3228346456692913,
                    "duration": 0.41493800000000647
                },
                {
                    "name": "F#3",
                    "midi": 54,
                    "time": 503.31979399998755,
                    "velocity": 0.2755905511811024,
                    "duration": 0.20746900000000323
                },
                {
                    "name": "E4",
                    "midi": 64,
                    "time": 503.73473199998756,
                    "velocity": 0.31496062992125984,
                    "duration": 0.41493800000000647
                },
                {
                    "name": "A3",
                    "midi": 57,
                    "time": 504.14966999998757,
                    "velocity": 0.25984251968503935,
                    "duration": 0.20746900000000323
                },
                {
                    "name": "F#4",
                    "midi": 66,
                    "time": 504.5646079999876,
                    "velocity": 0.33070866141732286,
                    "duration": 0.41493800000000647
                },
                {
                    "name": "D4",
                    "midi": 62,
                    "time": 504.9795459999876,
                    "velocity": 0.2677165354330709,
                    "duration": 0.20746900000000323
                },
                {
                    "name": "B4",
                    "midi": 71,
                    "time": 505.3944839999876,
                    "velocity": 0.31496062992125984,
                    "duration": 0.31120349999997643
                },
                {
                    "name": "G#4",
                    "midi": 68,
                    "time": 505.70568749998756,
                    "velocity": 0.23622047244094488,
                    "duration": 0.1037344999999732
                },
                {
                    "name": "B4",
                    "midi": 71,
                    "time": 505.80942199998753,
                    "velocity": 0.29133858267716534,
                    "duration": 0.31120349999997643
                },
                {
                    "name": "G#4",
                    "midi": 68,
                    "time": 506.1206254999875,
                    "velocity": 0.2677165354330709,
                    "duration": 0.1037344999999732
                },
                {
                    "name": "A4",
                    "midi": 69,
                    "time": 506.2243599999875,
                    "velocity": 0.3228346456692913,
                    "duration": 0.41493800000000647
                },
                {
                    "name": "A3",
                    "midi": 57,
                    "time": 506.6392979999875,
                    "velocity": 0.2755905511811024,
                    "duration": 0.20746900000000323
                },
                {
                    "name": "G4",
                    "midi": 67,
                    "time": 507.0542359999875,
                    "velocity": 0.31496062992125984,
                    "duration": 0.41493800000000647
                },
                {
                    "name": "E4",
                    "midi": 64,
                    "time": 507.4691739999875,
                    "velocity": 0.25984251968503935,
                    "duration": 0.20746900000000323
                },
                {
                    "name": "F#4",
                    "midi": 66,
                    "time": 507.8841119999875,
                    "velocity": 0.33070866141732286,
                    "duration": 0.41493800000000647
                },
                {
                    "name": "A3",
                    "midi": 57,
                    "time": 508.2990499999875,
                    "velocity": 0.2677165354330709,
                    "duration": 0.20746900000000323
                },
                {
                    "name": "E4",
                    "midi": 64,
                    "time": 508.7139879999875,
                    "velocity": 0.31496062992125984,
                    "duration": 0.31120349999997643
                },
                {
                    "name": "C#4",
                    "midi": 61,
                    "time": 509.0251914999875,
                    "velocity": 0.23622047244094488,
                    "duration": 0.1037344999999732
                },
                {
                    "name": "E4",
                    "midi": 64,
                    "time": 509.1289259999875,
                    "velocity": 0.29133858267716534,
                    "duration": 0.31120349999997643
                },
                {
                    "name": "A3",
                    "midi": 57,
                    "time": 509.44012949998745,
                    "velocity": 0.2677165354330709,
                    "duration": 0.1037344999999732
                },
                {
                    "name": "D5",
                    "midi": 74,
                    "time": 509.5438639999874,
                    "velocity": 0.3228346456692913,
                    "duration": 0.41493800000000647
                },
                {
                    "name": "F#4",
                    "midi": 66,
                    "time": 509.95880199998743,
                    "velocity": 0.2755905511811024,
                    "duration": 0.20746900000000323
                },
                {
                    "name": "E5",
                    "midi": 76,
                    "time": 510.37373999998744,
                    "velocity": 0.36220472440944884,
                    "duration": 0.41493800000000647
                },
                {
                    "name": "A4",
                    "midi": 69,
                    "time": 510.78867799998744,
                    "velocity": 0.30708661417322836,
                    "duration": 0.20746900000000323
                },
                {
                    "name": "F#5",
                    "midi": 78,
                    "time": 511.20361599998745,
                    "velocity": 0.36220472440944884,
                    "duration": 0.41493800000000647
                },
                {
                    "name": "D5",
                    "midi": 74,
                    "time": 511.61855399998745,
                    "velocity": 0.33858267716535434,
                    "duration": 0.20746900000000323
                },
                {
                    "name": "B5",
                    "midi": 83,
                    "time": 512.0334919999874,
                    "velocity": 0.41732283464566927,
                    "duration": 0.3112035000000333
                },
                {
                    "name": "G#5",
                    "midi": 80,
                    "time": 512.3446954999874,
                    "velocity": 0.30708661417322836,
                    "duration": 0.1037344999999732
                },
                {
                    "name": "B5",
                    "midi": 83,
                    "time": 512.4484299999874,
                    "velocity": 0.4015748031496063,
                    "duration": 0.3112035000000333
                },
                {
                    "name": "G#5",
                    "midi": 80,
                    "time": 512.7596334999874,
                    "velocity": 0.31496062992125984,
                    "duration": 0.1037344999999732
                },
                {
                    "name": "B5",
                    "midi": 83,
                    "time": 512.8633679999874,
                    "velocity": 0.41732283464566927,
                    "duration": 0.41493800000000647
                },
                {
                    "name": "G#5",
                    "midi": 80,
                    "time": 513.2783059999874,
                    "velocity": 0.3464566929133858,
                    "duration": 0.2074689999999464
                },
                {
                    "name": "B5",
                    "midi": 83,
                    "time": 513.6932439999873,
                    "velocity": 0.4015748031496063,
                    "duration": 0.41493800000000647
                },
                {
                    "name": "G#5",
                    "midi": 80,
                    "time": 514.1081819999873,
                    "velocity": 0.29133858267716534,
                    "duration": 0.2074689999999464
                },
                {
                    "name": "B5",
                    "midi": 83,
                    "time": 514.5231199999872,
                    "velocity": 0.4094488188976378,
                    "duration": 0.41493800000000647
                },
                {
                    "name": "G#5",
                    "midi": 80,
                    "time": 514.9380579999872,
                    "velocity": 0.3228346456692913,
                    "duration": 0.2074689999999464
                },
                {
                    "name": "A#5",
                    "midi": 82,
                    "time": 515.3529959999871,
                    "velocity": 0.36220472440944884,
                    "duration": 0.3112035000000333
                },
                {
                    "name": "G#5",
                    "midi": 80,
                    "time": 515.6641994999871,
                    "velocity": 0.23622047244094488,
                    "duration": 0.1037344999999732
                },
                {
                    "name": "A#5",
                    "midi": 82,
                    "time": 515.7679339999871,
                    "velocity": 0.33070866141732286,
                    "duration": 0.3112035000000333
                },
                {
                    "name": "G#5",
                    "midi": 80,
                    "time": 516.0791374999872,
                    "velocity": 0.2677165354330709,
                    "duration": 0.1037344999999732
                },
                {
                    "name": "A#5",
                    "midi": 82,
                    "time": 516.1828719999871,
                    "velocity": 0.3779527559055118,
                    "duration": 0.41493800000000647
                },
                {
                    "name": "G#5",
                    "midi": 80,
                    "time": 516.5978099999871,
                    "velocity": 0.2677165354330709,
                    "duration": 0.2074689999999464
                },
                {
                    "name": "A#5",
                    "midi": 82,
                    "time": 517.012747999987,
                    "velocity": 0.33070866141732286,
                    "duration": 0.41493800000000647
                },
                {
                    "name": "G#5",
                    "midi": 80,
                    "time": 517.427685999987,
                    "velocity": 0.25984251968503935,
                    "duration": 0.2074689999999464
                },
                {
                    "name": "A#5",
                    "midi": 82,
                    "time": 517.8426239999869,
                    "velocity": 0.31496062992125984,
                    "duration": 0.41493800000000647
                },
                {
                    "name": "G5",
                    "midi": 79,
                    "time": 518.2575619999869,
                    "velocity": 0.25196850393700787,
                    "duration": 0.2074689999999464
                },
                {
                    "name": "A5",
                    "midi": 81,
                    "time": 518.6724999999868,
                    "velocity": 0.30708661417322836,
                    "duration": 0.41493800000000647
                },
                {
                    "name": "G5",
                    "midi": 79,
                    "time": 519.0874379999868,
                    "velocity": 0.2440944881889764,
                    "duration": 0.2074689999999464
                },
                {
                    "name": "F#5",
                    "midi": 78,
                    "time": 519.5023759999867,
                    "velocity": 0.29133858267716534,
                    "duration": 0.41493800000000647
                },
                {
                    "name": "A5",
                    "midi": 81,
                    "time": 519.9173139999867,
                    "velocity": 0.2283464566929134,
                    "duration": 0.2074689999999464
                },
                {
                    "name": "B4",
                    "midi": 71,
                    "time": 520.3322519999866,
                    "velocity": 0.28346456692913385,
                    "duration": 0.41493800000000647
                },
                {
                    "name": "D5",
                    "midi": 74,
                    "time": 520.7471899999866,
                    "velocity": 0.1968503937007874,
                    "duration": 0.2074689999999464
                },
                {
                    "name": "G5",
                    "midi": 79,
                    "time": 520.7471899999866,
                    "velocity": 0.2204724409448819,
                    "duration": 0.2074689999999464
                },
                {
                    "name": "A4",
                    "midi": 69,
                    "time": 521.1621279999865,
                    "velocity": 0.2677165354330709,
                    "duration": 0.41493800000000647
                },
                {
                    "name": "D5",
                    "midi": 74,
                    "time": 521.5770659999865,
                    "velocity": 0.1968503937007874,
                    "duration": 0.2074689999999464
                },
                {
                    "name": "F#5",
                    "midi": 78,
                    "time": 521.5770659999865,
                    "velocity": 0.2125984251968504,
                    "duration": 0.2074689999999464
                },
                {
                    "name": "A4",
                    "midi": 69,
                    "time": 521.9920039999864,
                    "velocity": 0.25984251968503935,
                    "duration": 0.41493800000000647
                },
                {
                    "name": "C#5",
                    "midi": 73,
                    "time": 522.4069419999864,
                    "velocity": 0.1732283464566929,
                    "duration": 0.2074689999999464
                },
                {
                    "name": "E5",
                    "midi": 76,
                    "time": 522.4069419999864,
                    "velocity": 0.2047244094488189,
                    "duration": 0.2074689999999464
                },
                {
                    "name": "C4",
                    "midi": 60,
                    "time": 522.8218799999863,
                    "velocity": 0.5826771653543307,
                    "duration": 0.13831266666670672
                },
                {
                    "name": "D4",
                    "midi": 62,
                    "time": 522.960192666653,
                    "velocity": 0.33070866141732286,
                    "duration": 0.13831266666670672
                },
                {
                    "name": "C4",
                    "midi": 60,
                    "time": 523.0985053333197,
                    "velocity": 0.33070866141732286,
                    "duration": 0.13831266666670672
                },
                {
                    "name": "A3",
                    "midi": 57,
                    "time": 523.2368179999864,
                    "velocity": 0.3779527559055118,
                    "duration": 0.13831266666670672
                },
                {
                    "name": "F#3",
                    "midi": 54,
                    "time": 523.3751306666531,
                    "velocity": 0.3228346456692913,
                    "duration": 0.13831266666670672
                },
                {
                    "name": "D3",
                    "midi": 50,
                    "time": 523.5134433333199,
                    "velocity": 0.3228346456692913,
                    "duration": 0.13831266666670672
                },
                {
                    "name": "C3",
                    "midi": 48,
                    "time": 523.6517559999866,
                    "velocity": 0.47244094488188976,
                    "duration": 0.13831266666670672
                },
                {
                    "name": "D3",
                    "midi": 50,
                    "time": 523.7900686666533,
                    "velocity": 0.28346456692913385,
                    "duration": 0.13831266666670672
                },
                {
                    "name": "C3",
                    "midi": 48,
                    "time": 523.92838133332,
                    "velocity": 0.28346456692913385,
                    "duration": 0.13831266666670672
                },
                {
                    "name": "D3",
                    "midi": 50,
                    "time": 524.0666939999867,
                    "velocity": 0.3464566929133858,
                    "duration": 0.13831266666670672
                },
                {
                    "name": "C3",
                    "midi": 48,
                    "time": 524.2050066666534,
                    "velocity": 0.29133858267716534,
                    "duration": 0.13831266666670672
                },
                {
                    "name": "D3",
                    "midi": 50,
                    "time": 524.3433193333201,
                    "velocity": 0.29133858267716534,
                    "duration": 0.13831266666670672
                },
                {
                    "name": "A#3",
                    "midi": 58,
                    "time": 524.4816319999868,
                    "velocity": 0.5748031496062992,
                    "duration": 0.13831266666670672
                },
                {
                    "name": "D4",
                    "midi": 62,
                    "time": 524.6199446666535,
                    "velocity": 0.33070866141732286,
                    "duration": 0.13831266666670672
                },
                {
                    "name": "C4",
                    "midi": 60,
                    "time": 524.7582573333202,
                    "velocity": 0.33070866141732286,
                    "duration": 0.13831266666670672
                },
                {
                    "name": "A#3",
                    "midi": 58,
                    "time": 524.8965699999869,
                    "velocity": 0.3779527559055118,
                    "duration": 0.13831266666670672
                },
                {
                    "name": "F3",
                    "midi": 53,
                    "time": 525.0348826666536,
                    "velocity": 0.3228346456692913,
                    "duration": 0.13831266666670672
                },
                {
                    "name": "D3",
                    "midi": 50,
                    "time": 525.1731953333203,
                    "velocity": 0.3228346456692913,
                    "duration": 0.13831266666670672
                },
                {
                    "name": "A#2",
                    "midi": 46,
                    "time": 525.311507999987,
                    "velocity": 0.4881889763779528,
                    "duration": 0.13831266666670672
                },
                {
                    "name": "D3",
                    "midi": 50,
                    "time": 525.4498206666537,
                    "velocity": 0.28346456692913385,
                    "duration": 0.13831266666670672
                },
                {
                    "name": "A#2",
                    "midi": 46,
                    "time": 525.5881333333205,
                    "velocity": 0.28346456692913385,
                    "duration": 0.13831266666670672
                },
                {
                    "name": "D3",
                    "midi": 50,
                    "time": 525.7264459999872,
                    "velocity": 0.3464566929133858,
                    "duration": 0.13831266666670672
                },
                {
                    "name": "A#2",
                    "midi": 46,
                    "time": 525.8647586666539,
                    "velocity": 0.29133858267716534,
                    "duration": 0.13831266666670672
                },
                {
                    "name": "D3",
                    "midi": 50,
                    "time": 526.0030713333206,
                    "velocity": 0.29133858267716534,
                    "duration": 0.13831266666670672
                },
                {
                    "name": "C4",
                    "midi": 60,
                    "time": 526.1413839999873,
                    "velocity": 0.5748031496062992,
                    "duration": 0.13831266666670672
                },
                {
                    "name": "D4",
                    "midi": 62,
                    "time": 526.279696666654,
                    "velocity": 0.33070866141732286,
                    "duration": 0.13831266666670672
                },
                {
                    "name": "C4",
                    "midi": 60,
                    "time": 526.4180093333207,
                    "velocity": 0.33070866141732286,
                    "duration": 0.13831266666670672
                },
                {
                    "name": "A3",
                    "midi": 57,
                    "time": 526.5563219999874,
                    "velocity": 0.3779527559055118,
                    "duration": 0.13831266666670672
                },
                {
                    "name": "F#3",
                    "midi": 54,
                    "time": 526.6946346666541,
                    "velocity": 0.3228346456692913,
                    "duration": 0.13831266666670672
                },
                {
                    "name": "D3",
                    "midi": 50,
                    "time": 526.8329473333208,
                    "velocity": 0.3228346456692913,
                    "duration": 0.13831266666670672
                },
                {
                    "name": "C3",
                    "midi": 48,
                    "time": 526.9712599999875,
                    "velocity": 0.47244094488188976,
                    "duration": 0.13831266666670672
                },
                {
                    "name": "D3",
                    "midi": 50,
                    "time": 527.1095726666542,
                    "velocity": 0.28346456692913385,
                    "duration": 0.13831266666670672
                },
                {
                    "name": "C3",
                    "midi": 48,
                    "time": 527.2478853333209,
                    "velocity": 0.28346456692913385,
                    "duration": 0.13831266666670672
                },
                {
                    "name": "D3",
                    "midi": 50,
                    "time": 527.3861979999876,
                    "velocity": 0.3464566929133858,
                    "duration": 0.13831266666670672
                },
                {
                    "name": "C3",
                    "midi": 48,
                    "time": 527.5245106666544,
                    "velocity": 0.29133858267716534,
                    "duration": 0.13831266666670672
                },
                {
                    "name": "D3",
                    "midi": 50,
                    "time": 527.6628233333211,
                    "velocity": 0.29133858267716534,
                    "duration": 0.13831266666670672
                },
                {
                    "name": "A#3",
                    "midi": 58,
                    "time": 527.8011359999878,
                    "velocity": 0.5826771653543307,
                    "duration": 0.13831266666670672
                },
                {
                    "name": "D4",
                    "midi": 62,
                    "time": 527.9394486666545,
                    "velocity": 0.33070866141732286,
                    "duration": 0.13831266666670672
                },
                {
                    "name": "C4",
                    "midi": 60,
                    "time": 528.0777613333212,
                    "velocity": 0.33070866141732286,
                    "duration": 0.13831266666670672
                },
                {
                    "name": "A#3",
                    "midi": 58,
                    "time": 528.2160739999879,
                    "velocity": 0.3779527559055118,
                    "duration": 0.13831266666670672
                },
                {
                    "name": "F3",
                    "midi": 53,
                    "time": 528.3543866666546,
                    "velocity": 0.3228346456692913,
                    "duration": 0.13831266666670672
                },
                {
                    "name": "D3",
                    "midi": 50,
                    "time": 528.4926993333213,
                    "velocity": 0.3228346456692913,
                    "duration": 0.13831266666670672
                },
                {
                    "name": "A#2",
                    "midi": 46,
                    "time": 528.631011999988,
                    "velocity": 0.4881889763779528,
                    "duration": 0.13831266666670672
                },
                {
                    "name": "D3",
                    "midi": 50,
                    "time": 528.7693246666547,
                    "velocity": 0.28346456692913385,
                    "duration": 0.13831266666670672
                },
                {
                    "name": "A#2",
                    "midi": 46,
                    "time": 528.9076373333214,
                    "velocity": 0.28346456692913385,
                    "duration": 0.13831266666670672
                },
                {
                    "name": "D3",
                    "midi": 50,
                    "time": 529.0459499999881,
                    "velocity": 0.3464566929133858,
                    "duration": 0.13831266666670672
                },
                {
                    "name": "A#2",
                    "midi": 46,
                    "time": 529.1842626666548,
                    "velocity": 0.29133858267716534,
                    "duration": 0.13831266666670672
                },
                {
                    "name": "D3",
                    "midi": 50,
                    "time": 529.3225753333215,
                    "velocity": 0.29133858267716534,
                    "duration": 0.13831266666670672
                },
                {
                    "name": "A2",
                    "midi": 45,
                    "time": 529.4608879999882,
                    "velocity": 0.2755905511811024,
                    "duration": 0.20746900000006008
                },
                {
                    "name": "A3",
                    "midi": 57,
                    "time": 529.4608879999882,
                    "velocity": 0.29133858267716534,
                    "duration": 0.13831266666670672
                },
                {
                    "name": "B3",
                    "midi": 59,
                    "time": 529.599200666655,
                    "velocity": 0.25196850393700787,
                    "duration": 0.13831266666670672
                },
                {
                    "name": "C#4",
                    "midi": 61,
                    "time": 529.7375133333217,
                    "velocity": 0.25196850393700787,
                    "duration": 0.13831266666670672
                },
                {
                    "name": "D4",
                    "midi": 62,
                    "time": 529.8758259999884,
                    "velocity": 0.29133858267716534,
                    "duration": 0.13831266666670672
                },
                {
                    "name": "E4",
                    "midi": 64,
                    "time": 530.0141386666551,
                    "velocity": 0.25984251968503935,
                    "duration": 0.13831266666670672
                },
                {
                    "name": "F#4",
                    "midi": 66,
                    "time": 530.1524513333218,
                    "velocity": 0.25984251968503935,
                    "duration": 0.13831266666670672
                },
                {
                    "name": "E4",
                    "midi": 64,
                    "time": 530.7057019999885,
                    "velocity": 0.2755905511811024,
                    "duration": 0.2074689999999464
                },
                {
                    "name": "A3",
                    "midi": 57,
                    "time": 530.7057019999885,
                    "velocity": 0.2755905511811024,
                    "duration": 0.2074689999999464
                },
                {
                    "name": "F#3",
                    "midi": 54,
                    "time": 531.1206399999884,
                    "velocity": 0.25984251968503935,
                    "duration": 0.20746900000006008
                },
                {
                    "name": "D3",
                    "midi": 50,
                    "time": 531.1206399999884,
                    "velocity": 0.25984251968503935,
                    "duration": 0.20746900000006008
                },
                {
                    "name": "D4",
                    "midi": 62,
                    "time": 531.1258267249884,
                    "velocity": 0.31496062992125984,
                    "duration": 0.20746900000006008
                },
                {
                    "name": "F#5",
                    "midi": 78,
                    "time": 531.5355779999885,
                    "velocity": 0.3464566929133858,
                    "duration": 0.3112035000000333
                },
                {
                    "name": "A5",
                    "midi": 81,
                    "time": 531.5355779999885,
                    "velocity": 0.3464566929133858,
                    "duration": 0.3112035000000333
                },
                {
                    "name": "F#5",
                    "midi": 78,
                    "time": 531.8467814999885,
                    "velocity": 0.30708661417322836,
                    "duration": 0.1037344999999732
                },
                {
                    "name": "A5",
                    "midi": 81,
                    "time": 531.8467814999885,
                    "velocity": 0.30708661417322836,
                    "duration": 0.1037344999999732
                },
                {
                    "name": "E5",
                    "midi": 76,
                    "time": 531.9505159999885,
                    "velocity": 0.3464566929133858,
                    "duration": 0.2074689999999464
                },
                {
                    "name": "G5",
                    "midi": 79,
                    "time": 531.9505159999885,
                    "velocity": 0.3464566929133858,
                    "duration": 0.2074689999999464
                },
                {
                    "name": "A3",
                    "midi": 57,
                    "time": 532.3654539999884,
                    "velocity": 0.31496062992125984,
                    "duration": 0.2074689999999464
                },
                {
                    "name": "E4",
                    "midi": 64,
                    "time": 532.3654539999884,
                    "velocity": 0.31496062992125984,
                    "duration": 0.2074689999999464
                },
                {
                    "name": "D3",
                    "midi": 50,
                    "time": 532.7803919999883,
                    "velocity": 0.2992125984251969,
                    "duration": 0.2074689999999464
                },
                {
                    "name": "F#3",
                    "midi": 54,
                    "time": 532.7803919999883,
                    "velocity": 0.2992125984251969,
                    "duration": 0.2074689999999464
                },
                {
                    "name": "D4",
                    "midi": 62,
                    "time": 532.7803919999883,
                    "velocity": 0.3543307086614173,
                    "duration": 0.2074689999999464
                },
                {
                    "name": "F#5",
                    "midi": 78,
                    "time": 533.1953299999882,
                    "velocity": 0.3464566929133858,
                    "duration": 0.3112035000000333
                },
                {
                    "name": "A5",
                    "midi": 81,
                    "time": 533.1953299999882,
                    "velocity": 0.3464566929133858,
                    "duration": 0.3112035000000333
                },
                {
                    "name": "F#5",
                    "midi": 78,
                    "time": 533.5065334999882,
                    "velocity": 0.30708661417322836,
                    "duration": 0.1037344999999732
                },
                {
                    "name": "A5",
                    "midi": 81,
                    "time": 533.5065334999882,
                    "velocity": 0.30708661417322836,
                    "duration": 0.1037344999999732
                },
                {
                    "name": "G5",
                    "midi": 79,
                    "time": 533.6102679999882,
                    "velocity": 0.3464566929133858,
                    "duration": 0.2074689999999464
                },
                {
                    "name": "E5",
                    "midi": 76,
                    "time": 533.6102679999882,
                    "velocity": 0.3464566929133858,
                    "duration": 0.2074689999999464
                },
                {
                    "name": "A3",
                    "midi": 57,
                    "time": 534.0252059999881,
                    "velocity": 0.31496062992125984,
                    "duration": 0.2074689999999464
                },
                {
                    "name": "E4",
                    "midi": 64,
                    "time": 534.0252059999881,
                    "velocity": 0.31496062992125984,
                    "duration": 0.2074689999999464
                },
                {
                    "name": "F#3",
                    "midi": 54,
                    "time": 534.440143999988,
                    "velocity": 0.2992125984251969,
                    "duration": 0.2074689999999464
                },
                {
                    "name": "D3",
                    "midi": 50,
                    "time": 534.440143999988,
                    "velocity": 0.2992125984251969,
                    "duration": 0.2074689999999464
                },
                {
                    "name": "D4",
                    "midi": 62,
                    "time": 534.440143999988,
                    "velocity": 0.3543307086614173,
                    "duration": 0.2074689999999464
                },
                {
                    "name": "F#5",
                    "midi": 78,
                    "time": 534.8550819999879,
                    "velocity": 0.3464566929133858,
                    "duration": 0.3112035000000333
                },
                {
                    "name": "A5",
                    "midi": 81,
                    "time": 534.8550819999879,
                    "velocity": 0.3464566929133858,
                    "duration": 0.3112035000000333
                },
                {
                    "name": "F#5",
                    "midi": 78,
                    "time": 535.1662854999879,
                    "velocity": 0.30708661417322836,
                    "duration": 0.1037344999999732
                },
                {
                    "name": "A5",
                    "midi": 81,
                    "time": 535.1662854999879,
                    "velocity": 0.30708661417322836,
                    "duration": 0.1037344999999732
                },
                {
                    "name": "E5",
                    "midi": 76,
                    "time": 535.2700199999879,
                    "velocity": 0.3464566929133858,
                    "duration": 0.2074689999999464
                },
                {
                    "name": "G5",
                    "midi": 79,
                    "time": 535.2700199999879,
                    "velocity": 0.3464566929133858,
                    "duration": 0.2074689999999464
                },
                {
                    "name": "A3",
                    "midi": 57,
                    "time": 535.6849579999878,
                    "velocity": 0.2755905511811024,
                    "duration": 0.2074689999999464
                },
                {
                    "name": "C4",
                    "midi": 60,
                    "time": 536.0998959999877,
                    "velocity": 0.5826771653543307,
                    "duration": 0.13831266666670672
                },
                {
                    "name": "D4",
                    "midi": 62,
                    "time": 536.2382086666544,
                    "velocity": 0.33070866141732286,
                    "duration": 0.13831266666670672
                },
                {
                    "name": "C4",
                    "midi": 60,
                    "time": 536.3765213333211,
                    "velocity": 0.33070866141732286,
                    "duration": 0.13831266666670672
                },
                {
                    "name": "A3",
                    "midi": 57,
                    "time": 536.5148339999878,
                    "velocity": 0.3779527559055118,
                    "duration": 0.13831266666670672
                },
                {
                    "name": "F#3",
                    "midi": 54,
                    "time": 536.6531466666545,
                    "velocity": 0.3228346456692913,
                    "duration": 0.13831266666670672
                },
                {
                    "name": "D3",
                    "midi": 50,
                    "time": 536.7914593333212,
                    "velocity": 0.3228346456692913,
                    "duration": 0.13831266666670672
                },
                {
                    "name": "C3",
                    "midi": 48,
                    "time": 536.9297719999879,
                    "velocity": 0.47244094488188976,
                    "duration": 0.13831266666670672
                },
                {
                    "name": "D3",
                    "midi": 50,
                    "time": 537.0680846666546,
                    "velocity": 0.28346456692913385,
                    "duration": 0.13831266666670672
                },
                {
                    "name": "C3",
                    "midi": 48,
                    "time": 537.2063973333213,
                    "velocity": 0.28346456692913385,
                    "duration": 0.13831266666670672
                },
                {
                    "name": "D3",
                    "midi": 50,
                    "time": 537.344709999988,
                    "velocity": 0.3464566929133858,
                    "duration": 0.13831266666670672
                },
                {
                    "name": "C3",
                    "midi": 48,
                    "time": 537.4830226666547,
                    "velocity": 0.29133858267716534,
                    "duration": 0.13831266666670672
                },
                {
                    "name": "D3",
                    "midi": 50,
                    "time": 537.6213353333214,
                    "velocity": 0.29133858267716534,
                    "duration": 0.13831266666670672
                },
                {
                    "name": "A#3",
                    "midi": 58,
                    "time": 537.7596479999881,
                    "velocity": 0.5748031496062992,
                    "duration": 0.13831266666670672
                },
                {
                    "name": "D4",
                    "midi": 62,
                    "time": 537.8979606666549,
                    "velocity": 0.33070866141732286,
                    "duration": 0.13831266666670672
                },
                {
                    "name": "C4",
                    "midi": 60,
                    "time": 538.0362733333216,
                    "velocity": 0.33070866141732286,
                    "duration": 0.13831266666670672
                },
                {
                    "name": "A#3",
                    "midi": 58,
                    "time": 538.1745859999883,
                    "velocity": 0.3779527559055118,
                    "duration": 0.13831266666670672
                },
                {
                    "name": "F3",
                    "midi": 53,
                    "time": 538.312898666655,
                    "velocity": 0.3228346456692913,
                    "duration": 0.13831266666670672
                },
                {
                    "name": "D3",
                    "midi": 50,
                    "time": 538.4512113333217,
                    "velocity": 0.3228346456692913,
                    "duration": 0.13831266666670672
                },
                {
                    "name": "A#2",
                    "midi": 46,
                    "time": 538.5895239999884,
                    "velocity": 0.4881889763779528,
                    "duration": 0.13831266666670672
                },
                {
                    "name": "D3",
                    "midi": 50,
                    "time": 538.7278366666551,
                    "velocity": 0.28346456692913385,
                    "duration": 0.13831266666670672
                },
                {
                    "name": "A#2",
                    "midi": 46,
                    "time": 538.8661493333218,
                    "velocity": 0.28346456692913385,
                    "duration": 0.13831266666670672
                },
                {
                    "name": "D3",
                    "midi": 50,
                    "time": 539.0044619999885,
                    "velocity": 0.3464566929133858,
                    "duration": 0.13831266666670672
                },
                {
                    "name": "A#2",
                    "midi": 46,
                    "time": 539.1427746666552,
                    "velocity": 0.29133858267716534,
                    "duration": 0.13831266666670672
                },
                {
                    "name": "D3",
                    "midi": 50,
                    "time": 539.2810873333219,
                    "velocity": 0.29133858267716534,
                    "duration": 0.13831266666670672
                },
                {
                    "name": "A#3",
                    "midi": 58,
                    "time": 539.4193999999886,
                    "velocity": 0.5748031496062992,
                    "duration": 0.13831266666670672
                },
                {
                    "name": "C4",
                    "midi": 60,
                    "time": 539.5577126666553,
                    "velocity": 0.33070866141732286,
                    "duration": 0.13831266666670672
                },
                {
                    "name": "A#3",
                    "midi": 58,
                    "time": 539.696025333322,
                    "velocity": 0.33070866141732286,
                    "duration": 0.13831266666670672
                },
                {
                    "name": "G3",
                    "midi": 55,
                    "time": 539.8343379999887,
                    "velocity": 0.3779527559055118,
                    "duration": 0.13831266666670672
                },
                {
                    "name": "E3",
                    "midi": 52,
                    "time": 539.9726506666555,
                    "velocity": 0.3228346456692913,
                    "duration": 0.13831266666670672
                },
                {
                    "name": "C3",
                    "midi": 48,
                    "time": 540.1109633333222,
                    "velocity": 0.3228346456692913,
                    "duration": 0.13831266666670672
                },
                {
                    "name": "A#2",
                    "midi": 46,
                    "time": 540.2492759999889,
                    "velocity": 0.4881889763779528,
                    "duration": 0.13831266666670672
                },
                {
                    "name": "C3",
                    "midi": 48,
                    "time": 540.3875886666556,
                    "velocity": 0.28346456692913385,
                    "duration": 0.13831266666670672
                },
                {
                    "name": "A#2",
                    "midi": 46,
                    "time": 540.5259013333223,
                    "velocity": 0.28346456692913385,
                    "duration": 0.13831266666670672
                },
                {
                    "name": "C3",
                    "midi": 48,
                    "time": 540.664213999989,
                    "velocity": 0.3464566929133858,
                    "duration": 0.13831266666670672
                },
                {
                    "name": "A#2",
                    "midi": 46,
                    "time": 540.8025266666557,
                    "velocity": 0.29133858267716534,
                    "duration": 0.13831266666670672
                },
                {
                    "name": "C3",
                    "midi": 48,
                    "time": 540.9408393333224,
                    "velocity": 0.29133858267716534,
                    "duration": 0.13831266666670672
                },
                {
                    "name": "G#3",
                    "midi": 56,
                    "time": 541.0791519999891,
                    "velocity": 0.5748031496062992,
                    "duration": 0.13831266666670672
                },
                {
                    "name": "C4",
                    "midi": 60,
                    "time": 541.2174646666558,
                    "velocity": 0.33070866141732286,
                    "duration": 0.13831266666670672
                },
                {
                    "name": "A#3",
                    "midi": 58,
                    "time": 541.3557773333225,
                    "velocity": 0.33070866141732286,
                    "duration": 0.13831266666670672
                },
                {
                    "name": "G#3",
                    "midi": 56,
                    "time": 541.4940899999892,
                    "velocity": 0.3779527559055118,
                    "duration": 0.13831266666670672
                },
                {
                    "name": "D#3",
                    "midi": 51,
                    "time": 541.6324026666559,
                    "velocity": 0.3228346456692913,
                    "duration": 0.13831266666670672
                },
                {
                    "name": "C3",
                    "midi": 48,
                    "time": 541.7707153333226,
                    "velocity": 0.3228346456692913,
                    "duration": 0.13831266666670672
                },
                {
                    "name": "G#2",
                    "midi": 44,
                    "time": 541.9090279999893,
                    "velocity": 0.4881889763779528,
                    "duration": 0.13831266666670672
                },
                {
                    "name": "C3",
                    "midi": 48,
                    "time": 542.047340666656,
                    "velocity": 0.28346456692913385,
                    "duration": 0.13831266666670672
                },
                {
                    "name": "G#2",
                    "midi": 44,
                    "time": 542.1856533333228,
                    "velocity": 0.28346456692913385,
                    "duration": 0.13831266666670672
                },
                {
                    "name": "C3",
                    "midi": 48,
                    "time": 542.3239659999895,
                    "velocity": 0.3464566929133858,
                    "duration": 0.13831266666670672
                },
                {
                    "name": "G#2",
                    "midi": 44,
                    "time": 542.4622786666562,
                    "velocity": 0.29133858267716534,
                    "duration": 0.13831266666670672
                },
                {
                    "name": "C3",
                    "midi": 48,
                    "time": 542.6005913333229,
                    "velocity": 0.29133858267716534,
                    "duration": 0.13831266666670672
                },
                {
                    "name": "G#3",
                    "midi": 56,
                    "time": 542.7389039999896,
                    "velocity": 0.5748031496062992,
                    "duration": 0.13831266666670672
                },
                {
                    "name": "A#3",
                    "midi": 58,
                    "time": 542.8772166666563,
                    "velocity": 0.33070866141732286,
                    "duration": 0.13831266666670672
                },
                {
                    "name": "G#3",
                    "midi": 56,
                    "time": 543.015529333323,
                    "velocity": 0.33070866141732286,
                    "duration": 0.13831266666670672
                },
                {
                    "name": "F3",
                    "midi": 53,
                    "time": 543.1538419999897,
                    "velocity": 0.3779527559055118,
                    "duration": 0.13831266666670672
                },
                {
                    "name": "D3",
                    "midi": 50,
                    "time": 543.2921546666564,
                    "velocity": 0.3228346456692913,
                    "duration": 0.13831266666670672
                },
                {
                    "name": "A#2",
                    "midi": 46,
                    "time": 543.4304673333231,
                    "velocity": 0.3228346456692913,
                    "duration": 0.13831266666670672
                },
                {
                    "name": "F#3",
                    "midi": 54,
                    "time": 543.5687799999898,
                    "velocity": 0.5748031496062992,
                    "duration": 0.13831266666670672
                },
                {
                    "name": "A#3",
                    "midi": 58,
                    "time": 543.7070926666565,
                    "velocity": 0.33070866141732286,
                    "duration": 0.13831266666670672
                },
                {
                    "name": "F#3",
                    "midi": 54,
                    "time": 543.8454053333232,
                    "velocity": 0.33070866141732286,
                    "duration": 0.13831266666670672
                },
                {
                    "name": "C#3",
                    "midi": 49,
                    "time": 543.98371799999,
                    "velocity": 0.3779527559055118,
                    "duration": 0.13831266666670672
                },
                {
                    "name": "A#2",
                    "midi": 46,
                    "time": 544.1220306666567,
                    "velocity": 0.3228346456692913,
                    "duration": 0.13831266666670672
                },
                {
                    "name": "F#2",
                    "midi": 42,
                    "time": 544.2603433333234,
                    "velocity": 0.3228346456692913,
                    "duration": 0.13831266666670672
                },
                {
                    "name": "G3",
                    "midi": 55,
                    "time": 544.3986559999901,
                    "velocity": 0.5748031496062992,
                    "duration": 0.13831266666670672
                },
                {
                    "name": "A3",
                    "midi": 57,
                    "time": 544.5369686666568,
                    "velocity": 0.33070866141732286,
                    "duration": 0.13831266666670672
                },
                {
                    "name": "G3",
                    "midi": 55,
                    "time": 544.6752813333235,
                    "velocity": 0.33070866141732286,
                    "duration": 0.13831266666670672
                },
                {
                    "name": "E3",
                    "midi": 52,
                    "time": 544.8135939999902,
                    "velocity": 0.3779527559055118,
                    "duration": 0.13831266666670672
                },
                {
                    "name": "C#3",
                    "midi": 49,
                    "time": 544.9519066666569,
                    "velocity": 0.3228346456692913,
                    "duration": 0.13831266666670672
                },
                {
                    "name": "A2",
                    "midi": 45,
                    "time": 545.0902193333236,
                    "velocity": 0.3228346456692913,
                    "duration": 0.13831266666670672
                },
                {
                    "name": "F3",
                    "midi": 53,
                    "time": 545.2285319999903,
                    "velocity": 0.5748031496062992,
                    "duration": 0.13831266666670672
                },
                {
                    "name": "A3",
                    "midi": 57,
                    "time": 545.366844666657,
                    "velocity": 0.33070866141732286,
                    "duration": 0.13831266666670672
                },
                {
                    "name": "F3",
                    "midi": 53,
                    "time": 545.5051573333237,
                    "velocity": 0.33070866141732286,
                    "duration": 0.13831266666670672
                },
                {
                    "name": "C3",
                    "midi": 48,
                    "time": 545.6434699999904,
                    "velocity": 0.3779527559055118,
                    "duration": 0.13831266666670672
                },
                {
                    "name": "A2",
                    "midi": 45,
                    "time": 545.7817826666571,
                    "velocity": 0.3228346456692913,
                    "duration": 0.13831266666670672
                },
                {
                    "name": "F2",
                    "midi": 41,
                    "time": 545.9200953333238,
                    "velocity": 0.3228346456692913,
                    "duration": 0.13831266666670672
                },
                {
                    "name": "A#2",
                    "midi": 46,
                    "time": 546.0584079999905,
                    "velocity": 0.5748031496062992,
                    "duration": 0.13831266666670672
                },
                {
                    "name": "D3",
                    "midi": 50,
                    "time": 546.1967206666573,
                    "velocity": 0.33070866141732286,
                    "duration": 0.13831266666670672
                },
                {
                    "name": "A#2",
                    "midi": 46,
                    "time": 546.335033333324,
                    "velocity": 0.33070866141732286,
                    "duration": 0.13831266666670672
                },
                {
                    "name": "F2",
                    "midi": 41,
                    "time": 546.4733459999907,
                    "velocity": 0.3779527559055118,
                    "duration": 0.13831266666670672
                },
                {
                    "name": "D2",
                    "midi": 38,
                    "time": 546.6116586666574,
                    "velocity": 0.3228346456692913,
                    "duration": 0.13831266666670672
                },
                {
                    "name": "A#1",
                    "midi": 34,
                    "time": 546.7499713333241,
                    "velocity": 0.3228346456692913,
                    "duration": 0.13831266666670672
                },
                {
                    "name": "D2",
                    "midi": 38,
                    "time": 546.8882839999908,
                    "velocity": 0.4330708661417323,
                    "duration": 0.13831266666670672
                },
                {
                    "name": "A#1",
                    "midi": 34,
                    "time": 547.0265966666575,
                    "velocity": 0.25196850393700787,
                    "duration": 0.13831266666670672
                },
                {
                    "name": "D2",
                    "midi": 38,
                    "time": 547.1649093333242,
                    "velocity": 0.25196850393700787,
                    "duration": 0.13831266666670672
                },
                {
                    "name": "A#1",
                    "midi": 34,
                    "time": 547.3032219999909,
                    "velocity": 0.30708661417322836,
                    "duration": 0.13831266666670672
                },
                {
                    "name": "D2",
                    "midi": 38,
                    "time": 547.4415346666576,
                    "velocity": 0.25984251968503935,
                    "duration": 0.13831266666670672
                },
                {
                    "name": "A#1",
                    "midi": 34,
                    "time": 547.5798473333243,
                    "velocity": 0.25984251968503935,
                    "duration": 0.13831266666670672
                },
                {
                    "name": "D2",
                    "midi": 38,
                    "time": 547.718159999991,
                    "velocity": 0.3543307086614173,
                    "duration": 0.13831266666670672
                },
                {
                    "name": "A#1",
                    "midi": 34,
                    "time": 547.8564726666577,
                    "velocity": 0.2283464566929134,
                    "duration": 0.13831266666670672
                },
                {
                    "name": "D2",
                    "midi": 38,
                    "time": 547.9947853333244,
                    "velocity": 0.2283464566929134,
                    "duration": 0.13831266666670672
                },
                {
                    "name": "A#1",
                    "midi": 34,
                    "time": 548.1330979999912,
                    "velocity": 0.2677165354330709,
                    "duration": 0.13831266666670672
                },
                {
                    "name": "D2",
                    "midi": 38,
                    "time": 548.2714106666579,
                    "velocity": 0.2204724409448819,
                    "duration": 0.13831266666670672
                },
                {
                    "name": "A#1",
                    "midi": 34,
                    "time": 548.4097233333246,
                    "velocity": 0.2204724409448819,
                    "duration": 0.13831266666670672
                },
                {
                    "name": "D2",
                    "midi": 38,
                    "time": 548.5480359999913,
                    "velocity": 0.2992125984251969,
                    "duration": 0.13831266666670672
                },
                {
                    "name": "A#1",
                    "midi": 34,
                    "time": 548.686348666658,
                    "velocity": 0.1968503937007874,
                    "duration": 0.13831266666670672
                },
                {
                    "name": "D2",
                    "midi": 38,
                    "time": 548.8246613333247,
                    "velocity": 0.1968503937007874,
                    "duration": 0.13831266666670672
                },
                {
                    "name": "A#1",
                    "midi": 34,
                    "time": 548.9629739999914,
                    "velocity": 0.23622047244094488,
                    "duration": 0.13831266666670672
                },
                {
                    "name": "D2",
                    "midi": 38,
                    "time": 549.1012866666581,
                    "velocity": 0.1889763779527559,
                    "duration": 0.13831266666670672
                },
                {
                    "name": "A#1",
                    "midi": 34,
                    "time": 549.2395993333248,
                    "velocity": 0.1889763779527559,
                    "duration": 0.13831266666670672
                },
                {
                    "name": "A1",
                    "midi": 33,
                    "time": 549.3779119999915,
                    "velocity": 0.2755905511811024,
                    "duration": 0.20746900000006008
                },
                {
                    "name": "A2",
                    "midi": 45,
                    "time": 549.3779119999915,
                    "velocity": 0.29133858267716534,
                    "duration": 0.13831266666670672
                },
                {
                    "name": "B2",
                    "midi": 47,
                    "time": 549.5162246666582,
                    "velocity": 0.25196850393700787,
                    "duration": 0.13831266666670672
                },
                {
                    "name": "C#3",
                    "midi": 49,
                    "time": 549.6545373333249,
                    "velocity": 0.25196850393700787,
                    "duration": 0.13831266666670672
                },
                {
                    "name": "D3",
                    "midi": 50,
                    "time": 549.7928499999916,
                    "velocity": 0.29133858267716534,
                    "duration": 0.13831266666670672
                },
                {
                    "name": "E3",
                    "midi": 52,
                    "time": 549.9311626666583,
                    "velocity": 0.25984251968503935,
                    "duration": 0.13831266666670672
                },
                {
                    "name": "F#3",
                    "midi": 54,
                    "time": 550.069475333325,
                    "velocity": 0.25984251968503935,
                    "duration": 0.13831266666670672
                },
                {
                    "name": "E3",
                    "midi": 52,
                    "time": 550.6227259999918,
                    "velocity": 0.2755905511811024,
                    "duration": 0.2074689999999464
                },
                {
                    "name": "A2",
                    "midi": 45,
                    "time": 550.6227259999918,
                    "velocity": 0.2755905511811024,
                    "duration": 0.2074689999999464
                },
                {
                    "name": "F#3",
                    "midi": 54,
                    "time": 551.0376639999917,
                    "velocity": 0.31496062992125984,
                    "duration": 0.2074689999999464
                },
                {
                    "name": "D3",
                    "midi": 50,
                    "time": 551.0376639999917,
                    "velocity": 0.25984251968503935,
                    "duration": 0.2074689999999464
                },
                {
                    "name": "A4",
                    "midi": 69,
                    "time": 551.4526019999915,
                    "velocity": 0.3464566929133858,
                    "duration": 0.3112035000000333
                },
                {
                    "name": "F#4",
                    "midi": 66,
                    "time": 551.4526019999915,
                    "velocity": 0.3464566929133858,
                    "duration": 0.3112035000000333
                },
                {
                    "name": "A4",
                    "midi": 69,
                    "time": 551.7638054999916,
                    "velocity": 0.30708661417322836,
                    "duration": 0.1037344999999732
                },
                {
                    "name": "F#4",
                    "midi": 66,
                    "time": 551.7638054999916,
                    "velocity": 0.30708661417322836,
                    "duration": 0.1037344999999732
                },
                {
                    "name": "G4",
                    "midi": 67,
                    "time": 551.8675399999915,
                    "velocity": 0.3464566929133858,
                    "duration": 0.2074689999999464
                },
                {
                    "name": "E4",
                    "midi": 64,
                    "time": 551.8675399999915,
                    "velocity": 0.3464566929133858,
                    "duration": 0.2074689999999464
                },
                {
                    "name": "A2",
                    "midi": 45,
                    "time": 552.2824779999914,
                    "velocity": 0.31496062992125984,
                    "duration": 0.2074689999999464
                },
                {
                    "name": "E3",
                    "midi": 52,
                    "time": 552.2824779999914,
                    "velocity": 0.31496062992125984,
                    "duration": 0.2074689999999464
                },
                {
                    "name": "F#3",
                    "midi": 54,
                    "time": 552.6974159999913,
                    "velocity": 0.2992125984251969,
                    "duration": 0.2074689999999464
                },
                {
                    "name": "D3",
                    "midi": 50,
                    "time": 552.6974159999913,
                    "velocity": 0.2992125984251969,
                    "duration": 0.2074689999999464
                },
                {
                    "name": "A4",
                    "midi": 69,
                    "time": 553.1123539999912,
                    "velocity": 0.3464566929133858,
                    "duration": 0.3112035000000333
                },
                {
                    "name": "F#4",
                    "midi": 66,
                    "time": 553.1123539999912,
                    "velocity": 0.3464566929133858,
                    "duration": 0.3112035000000333
                },
                {
                    "name": "A4",
                    "midi": 69,
                    "time": 553.4235574999913,
                    "velocity": 0.30708661417322836,
                    "duration": 0.1037344999999732
                },
                {
                    "name": "F#4",
                    "midi": 66,
                    "time": 553.4235574999913,
                    "velocity": 0.30708661417322836,
                    "duration": 0.1037344999999732
                },
                {
                    "name": "E4",
                    "midi": 64,
                    "time": 553.5272919999912,
                    "velocity": 0.3464566929133858,
                    "duration": 0.2074689999999464
                },
                {
                    "name": "G4",
                    "midi": 67,
                    "time": 553.5272919999912,
                    "velocity": 0.3464566929133858,
                    "duration": 0.2074689999999464
                },
                {
                    "name": "A3",
                    "midi": 57,
                    "time": 553.9422299999911,
                    "velocity": 0.31496062992125984,
                    "duration": 0.2074689999999464
                },
                {
                    "name": "E4",
                    "midi": 64,
                    "time": 553.9422299999911,
                    "velocity": 0.31496062992125984,
                    "duration": 0.2074689999999464
                },
                {
                    "name": "F#3",
                    "midi": 54,
                    "time": 554.357167999991,
                    "velocity": 0.2992125984251969,
                    "duration": 0.2074689999999464
                },
                {
                    "name": "D3",
                    "midi": 50,
                    "time": 554.357167999991,
                    "velocity": 0.2992125984251969,
                    "duration": 0.2074689999999464
                },
                {
                    "name": "F#4",
                    "midi": 66,
                    "time": 554.7721059999909,
                    "velocity": 0.3464566929133858,
                    "duration": 0.3112035000000333
                },
                {
                    "name": "A4",
                    "midi": 69,
                    "time": 554.7721059999909,
                    "velocity": 0.3464566929133858,
                    "duration": 0.3112035000000333
                },
                {
                    "name": "F#4",
                    "midi": 66,
                    "time": 555.083309499991,
                    "velocity": 0.30708661417322836,
                    "duration": 0.1037344999999732
                },
                {
                    "name": "A4",
                    "midi": 69,
                    "time": 555.083309499991,
                    "velocity": 0.30708661417322836,
                    "duration": 0.1037344999999732
                },
                {
                    "name": "E4",
                    "midi": 64,
                    "time": 555.1870439999909,
                    "velocity": 0.3464566929133858,
                    "duration": 0.2074689999999464
                },
                {
                    "name": "G4",
                    "midi": 67,
                    "time": 555.1870439999909,
                    "velocity": 0.3464566929133858,
                    "duration": 0.2074689999999464
                },
                {
                    "name": "E3",
                    "midi": 52,
                    "time": 555.6019819999908,
                    "velocity": 0.31496062992125984,
                    "duration": 0.2074689999999464
                },
                {
                    "name": "A2",
                    "midi": 45,
                    "time": 555.6019819999908,
                    "velocity": 0.25196850393700787,
                    "duration": 0.2074689999999464
                },
                {
                    "name": "D3",
                    "midi": 50,
                    "time": 556.0169199999907,
                    "velocity": 0.48031496062992124,
                    "duration": 0.8298760000000129
                },
                {
                    "name": "D2",
                    "midi": 38,
                    "time": 556.0169199999907,
                    "velocity": 0.4015748031496063,
                    "duration": 0.8298760000000129
                },
                {
                    "name": "F#3",
                    "midi": 54,
                    "time": 556.8467959999907,
                    "velocity": 0.4330708661417323,
                    "duration": 0.1037344999999732
                },
                {
                    "name": "D3",
                    "midi": 50,
                    "time": 556.8467959999907,
                    "velocity": 0.36220472440944884,
                    "duration": 0.1037344999999732
                },
                {
                    "name": "F#3",
                    "midi": 54,
                    "time": 557.0542649999907,
                    "velocity": 0.3543307086614173,
                    "duration": 0.1037344999999732
                },
                {
                    "name": "D3",
                    "midi": 50,
                    "time": 557.0542649999907,
                    "velocity": 0.29133858267716534,
                    "duration": 0.1037344999999732
                },
                {
                    "name": "F#3",
                    "midi": 54,
                    "time": 557.2617339999906,
                    "velocity": 0.44881889763779526,
                    "duration": 0.1037344999999732
                },
                {
                    "name": "D3",
                    "midi": 50,
                    "time": 557.2617339999906,
                    "velocity": 0.3700787401574803,
                    "duration": 0.1037344999999732
                },
                {
                    "name": "F#3",
                    "midi": 54,
                    "time": 557.4692029999906,
                    "velocity": 0.3543307086614173,
                    "duration": 0.1037344999999732
                },
                {
                    "name": "D3",
                    "midi": 50,
                    "time": 557.4692029999906,
                    "velocity": 0.29133858267716534,
                    "duration": 0.1037344999999732
                },
                {
                    "name": "F#3",
                    "midi": 54,
                    "time": 557.6766719999905,
                    "velocity": 0.48031496062992124,
                    "duration": 0.41493800000000647
                },
                {
                    "name": "D3",
                    "midi": 50,
                    "time": 557.6766719999905,
                    "velocity": 0.4015748031496063,
                    "duration": 0.41493800000000647
                },
                {
                    "name": "F#3",
                    "midi": 54,
                    "time": 558.0916099999905,
                    "velocity": 0.3543307086614173,
                    "duration": 0.2074689999999464
                },
                {
                    "name": "D4",
                    "midi": 62,
                    "time": 558.0916099999905,
                    "velocity": 0.4094488188976378,
                    "duration": 0.2074689999999464
                },
                {
                    "name": "D4",
                    "midi": 62,
                    "time": 558.5065479999904,
                    "velocity": 0.5118110236220472,
                    "duration": 0.1037344999999732
                },
                {
                    "name": "F#3",
                    "midi": 54,
                    "time": 558.5065479999904,
                    "velocity": 0.4330708661417323,
                    "duration": 0.1037344999999732
                },
                {
                    "name": "D4",
                    "midi": 62,
                    "time": 558.7140169999903,
                    "velocity": 0.4330708661417323,
                    "duration": 0.1037344999999732
                },
                {
                    "name": "F#3",
                    "midi": 54,
                    "time": 558.7140169999903,
                    "velocity": 0.36220472440944884,
                    "duration": 0.1037344999999732
                },
                {
                    "name": "D4",
                    "midi": 62,
                    "time": 558.9214859999903,
                    "velocity": 0.5196850393700787,
                    "duration": 0.1037344999999732
                },
                {
                    "name": "F#3",
                    "midi": 54,
                    "time": 558.9214859999903,
                    "velocity": 0.4409448818897638,
                    "duration": 0.1037344999999732
                },
                {
                    "name": "D4",
                    "midi": 62,
                    "time": 559.1289549999902,
                    "velocity": 0.4566929133858268,
                    "duration": 0.1037344999999732
                },
                {
                    "name": "F#3",
                    "midi": 54,
                    "time": 559.1289549999902,
                    "velocity": 0.3779527559055118,
                    "duration": 0.1037344999999732
                },
                {
                    "name": "D4",
                    "midi": 62,
                    "time": 559.3364239999902,
                    "velocity": 0.5984251968503937,
                    "duration": 0.41493800000000647
                },
                {
                    "name": "D3",
                    "midi": 50,
                    "time": 559.3364239999902,
                    "velocity": 0.49606299212598426,
                    "duration": 0.41493800000000647
                },
                {
                    "name": "F#4",
                    "midi": 66,
                    "time": 559.7513619999902,
                    "velocity": 0.5196850393700787,
                    "duration": 0.2074689999999464
                },
                {
                    "name": "D4",
                    "midi": 62,
                    "time": 559.7513619999902,
                    "velocity": 0.4409448818897638,
                    "duration": 0.2074689999999464
                },
                {
                    "name": "F#4",
                    "midi": 66,
                    "time": 560.1662999999901,
                    "velocity": 0.6299212598425197,
                    "duration": 0.1037344999999732
                },
                {
                    "name": "D4",
                    "midi": 62,
                    "time": 560.1662999999901,
                    "velocity": 0.5275590551181102,
                    "duration": 0.1037344999999732
                },
                {
                    "name": "F#4",
                    "midi": 66,
                    "time": 560.37376899999,
                    "velocity": 0.5511811023622047,
                    "duration": 0.1037344999999732
                },
                {
                    "name": "D4",
                    "midi": 62,
                    "time": 560.37376899999,
                    "velocity": 0.4566929133858268,
                    "duration": 0.1037344999999732
                },
                {
                    "name": "F#4",
                    "midi": 66,
                    "time": 560.58123799999,
                    "velocity": 0.6456692913385826,
                    "duration": 0.1037344999999732
                },
                {
                    "name": "D4",
                    "midi": 62,
                    "time": 560.58123799999,
                    "velocity": 0.5511811023622047,
                    "duration": 0.1037344999999732
                },
                {
                    "name": "F#4",
                    "midi": 66,
                    "time": 560.7887069999899,
                    "velocity": 0.5748031496062992,
                    "duration": 0.1037344999999732
                },
                {
                    "name": "D4",
                    "midi": 62,
                    "time": 560.7887069999899,
                    "velocity": 0.4881889763779528,
                    "duration": 0.1037344999999732
                },
                {
                    "name": "F#4",
                    "midi": 66,
                    "time": 560.9961759999899,
                    "velocity": 0.6692913385826772,
                    "duration": 0.41493800000000647
                },
                {
                    "name": "D4",
                    "midi": 62,
                    "time": 560.9961759999899,
                    "velocity": 0.5590551181102362,
                    "duration": 0.41493800000000647
                },
                {
                    "name": "A4",
                    "midi": 69,
                    "time": 561.4111139999899,
                    "velocity": 0.5984251968503937,
                    "duration": 0.2074689999999464
                },
                {
                    "name": "F#4",
                    "midi": 66,
                    "time": 561.4111139999899,
                    "velocity": 0.49606299212598426,
                    "duration": 0.2074689999999464
                },
                {
                    "name": "A4",
                    "midi": 69,
                    "time": 561.8260519999898,
                    "velocity": 0.6692913385826772,
                    "duration": 0.1037344999999732
                },
                {
                    "name": "F#4",
                    "midi": 66,
                    "time": 561.8260519999898,
                    "velocity": 0.5590551181102362,
                    "duration": 0.1037344999999732
                },
                {
                    "name": "A4",
                    "midi": 69,
                    "time": 562.0335209999897,
                    "velocity": 0.5984251968503937,
                    "duration": 0.1037344999999732
                },
                {
                    "name": "F#4",
                    "midi": 66,
                    "time": 562.0335209999897,
                    "velocity": 0.49606299212598426,
                    "duration": 0.1037344999999732
                },
                {
                    "name": "A4",
                    "midi": 69,
                    "time": 562.2409899999897,
                    "velocity": 0.6850393700787402,
                    "duration": 0.1037344999999732
                },
                {
                    "name": "F#4",
                    "midi": 66,
                    "time": 562.2409899999897,
                    "velocity": 0.5748031496062992,
                    "duration": 0.1037344999999732
                },
                {
                    "name": "A4",
                    "midi": 69,
                    "time": 562.4484589999896,
                    "velocity": 0.6299212598425197,
                    "duration": 0.1037344999999732
                },
                {
                    "name": "F#4",
                    "midi": 66,
                    "time": 562.4484589999896,
                    "velocity": 0.5275590551181102,
                    "duration": 0.1037344999999732
                },
                {
                    "name": "D2",
                    "midi": 38,
                    "time": 562.6559279999896,
                    "velocity": 0.5748031496062992,
                    "duration": 0.8298760000000129
                },
                {
                    "name": "D3",
                    "midi": 50,
                    "time": 562.6559279999896,
                    "velocity": 0.6771653543307087,
                    "duration": 0.8298760000000129
                },
                {
                    "name": "F#3",
                    "midi": 54,
                    "time": 563.4858039999896,
                    "velocity": 0.4566929133858268,
                    "duration": 0.1037344999999732
                },
                {
                    "name": "D4",
                    "midi": 62,
                    "time": 563.4858039999896,
                    "velocity": 0.5433070866141733,
                    "duration": 0.1037344999999732
                },
                {
                    "name": "F#3",
                    "midi": 54,
                    "time": 563.6932729999895,
                    "velocity": 0.4094488188976378,
                    "duration": 0.1037344999999732
                },
                {
                    "name": "D4",
                    "midi": 62,
                    "time": 563.6932729999895,
                    "velocity": 0.49606299212598426,
                    "duration": 0.1037344999999732
                },
                {
                    "name": "F#3",
                    "midi": 54,
                    "time": 563.9007419999895,
                    "velocity": 0.4566929133858268,
                    "duration": 0.1037344999999732
                },
                {
                    "name": "D4",
                    "midi": 62,
                    "time": 563.9007419999895,
                    "velocity": 0.5433070866141733,
                    "duration": 0.1037344999999732
                },
                {
                    "name": "F#3",
                    "midi": 54,
                    "time": 564.1082109999894,
                    "velocity": 0.4094488188976378,
                    "duration": 0.1037344999999732
                },
                {
                    "name": "D4",
                    "midi": 62,
                    "time": 564.1082109999894,
                    "velocity": 0.49606299212598426,
                    "duration": 0.1037344999999732
                },
                {
                    "name": "F#3",
                    "midi": 54,
                    "time": 564.3156799999894,
                    "velocity": 0.5039370078740157,
                    "duration": 0.41493800000000647
                },
                {
                    "name": "D4",
                    "midi": 62,
                    "time": 564.3156799999894,
                    "velocity": 0.5905511811023622,
                    "duration": 0.41493800000000647
                },
                {
                    "name": "A3",
                    "midi": 57,
                    "time": 564.7306179999894,
                    "velocity": 0.4566929133858268,
                    "duration": 0.2074689999999464
                },
                {
                    "name": "E4",
                    "midi": 64,
                    "time": 564.7306179999894,
                    "velocity": 0.5590551181102362,
                    "duration": 0.2074689999999464
                },
                {
                    "name": "A3",
                    "midi": 57,
                    "time": 565.1455559999893,
                    "velocity": 0.5039370078740157,
                    "duration": 0.41493800000000647
                },
                {
                    "name": "E4",
                    "midi": 64,
                    "time": 565.1455559999893,
                    "velocity": 0.5905511811023622,
                    "duration": 0.41493800000000647
                },
                {
                    "name": "D4",
                    "midi": 62,
                    "time": 565.5604939999893,
                    "velocity": 0.4566929133858268,
                    "duration": 0.2074689999999464
                },
                {
                    "name": "F#4",
                    "midi": 66,
                    "time": 565.5604939999893,
                    "velocity": 0.5590551181102362,
                    "duration": 0.2074689999999464
                },
                {
                    "name": "D4",
                    "midi": 62,
                    "time": 565.9754319999892,
                    "velocity": 0.5039370078740157,
                    "duration": 0.41493800000000647
                },
                {
                    "name": "F#4",
                    "midi": 66,
                    "time": 565.9754319999892,
                    "velocity": 0.5905511811023622,
                    "duration": 0.41493800000000647
                },
                {
                    "name": "A3",
                    "midi": 57,
                    "time": 566.3903699999892,
                    "velocity": 0.4566929133858268,
                    "duration": 0.2074689999999464
                },
                {
                    "name": "E4",
                    "midi": 64,
                    "time": 566.3903699999892,
                    "velocity": 0.5590551181102362,
                    "duration": 0.2074689999999464
                },
                {
                    "name": "A3",
                    "midi": 57,
                    "time": 566.805307999989,
                    "velocity": 0.4566929133858268,
                    "duration": 0.1037344999999732
                },
                {
                    "name": "E4",
                    "midi": 64,
                    "time": 566.805307999989,
                    "velocity": 0.5433070866141733,
                    "duration": 0.1037344999999732
                },
                {
                    "name": "A3",
                    "midi": 57,
                    "time": 567.012776999989,
                    "velocity": 0.4094488188976378,
                    "duration": 0.1037344999999732
                },
                {
                    "name": "E4",
                    "midi": 64,
                    "time": 567.012776999989,
                    "velocity": 0.49606299212598426,
                    "duration": 0.1037344999999732
                },
                {
                    "name": "A3",
                    "midi": 57,
                    "time": 567.220245999989,
                    "velocity": 0.4566929133858268,
                    "duration": 0.1037344999999732
                },
                {
                    "name": "E4",
                    "midi": 64,
                    "time": 567.220245999989,
                    "velocity": 0.5433070866141733,
                    "duration": 0.1037344999999732
                },
                {
                    "name": "A3",
                    "midi": 57,
                    "time": 567.4277149999889,
                    "velocity": 0.4094488188976378,
                    "duration": 0.1037344999999732
                },
                {
                    "name": "E4",
                    "midi": 64,
                    "time": 567.4277149999889,
                    "velocity": 0.49606299212598426,
                    "duration": 0.1037344999999732
                },
                {
                    "name": "A3",
                    "midi": 57,
                    "time": 567.6351839999888,
                    "velocity": 0.5039370078740157,
                    "duration": 0.41493800000000647
                },
                {
                    "name": "E4",
                    "midi": 64,
                    "time": 567.6351839999888,
                    "velocity": 0.5905511811023622,
                    "duration": 0.41493800000000647
                },
                {
                    "name": "F#4",
                    "midi": 66,
                    "time": 568.0501219999888,
                    "velocity": 0.4566929133858268,
                    "duration": 0.2074689999999464
                },
                {
                    "name": "A4",
                    "midi": 69,
                    "time": 568.0501219999888,
                    "velocity": 0.5590551181102362,
                    "duration": 0.2074689999999464
                },
                {
                    "name": "F#4",
                    "midi": 66,
                    "time": 568.4650599999887,
                    "velocity": 0.5039370078740157,
                    "duration": 0.41493800000000647
                },
                {
                    "name": "A4",
                    "midi": 69,
                    "time": 568.4650599999887,
                    "velocity": 0.5905511811023622,
                    "duration": 0.41493800000000647
                },
                {
                    "name": "C#4",
                    "midi": 61,
                    "time": 568.8799979999887,
                    "velocity": 0.4566929133858268,
                    "duration": 0.2074689999999464
                },
                {
                    "name": "G4",
                    "midi": 67,
                    "time": 568.8799979999887,
                    "velocity": 0.5590551181102362,
                    "duration": 0.2074689999999464
                },
                {
                    "name": "C#4",
                    "midi": 61,
                    "time": 569.2949359999886,
                    "velocity": 0.5039370078740157,
                    "duration": 0.41493800000000647
                },
                {
                    "name": "G4",
                    "midi": 67,
                    "time": 569.2949359999886,
                    "velocity": 0.5905511811023622,
                    "duration": 0.41493800000000647
                },
                {
                    "name": "D4",
                    "midi": 62,
                    "time": 569.7098739999886,
                    "velocity": 0.4566929133858268,
                    "duration": 0.2074689999999464
                },
                {
                    "name": "F#4",
                    "midi": 66,
                    "time": 569.7098739999886,
                    "velocity": 0.5590551181102362,
                    "duration": 0.2074689999999464
                },
                {
                    "name": "B1",
                    "midi": 35,
                    "time": 570.1248119999885,
                    "velocity": 0.4566929133858268,
                    "duration": 0.1037344999999732
                },
                {
                    "name": "B2",
                    "midi": 47,
                    "time": 570.1248119999885,
                    "velocity": 0.5433070866141733,
                    "duration": 0.1037344999999732
                },
                {
                    "name": "B1",
                    "midi": 35,
                    "time": 570.3322809999885,
                    "velocity": 0.4094488188976378,
                    "duration": 0.1037344999999732
                },
                {
                    "name": "B2",
                    "midi": 47,
                    "time": 570.3322809999885,
                    "velocity": 0.49606299212598426,
                    "duration": 0.1037344999999732
                },
                {
                    "name": "B1",
                    "midi": 35,
                    "time": 570.5397499999884,
                    "velocity": 0.4566929133858268,
                    "duration": 0.1037344999999732
                },
                {
                    "name": "B2",
                    "midi": 47,
                    "time": 570.5397499999884,
                    "velocity": 0.5433070866141733,
                    "duration": 0.1037344999999732
                },
                {
                    "name": "B1",
                    "midi": 35,
                    "time": 570.7472189999884,
                    "velocity": 0.4094488188976378,
                    "duration": 0.1037344999999732
                },
                {
                    "name": "B2",
                    "midi": 47,
                    "time": 570.7472189999884,
                    "velocity": 0.49606299212598426,
                    "duration": 0.1037344999999732
                },
                {
                    "name": "B1",
                    "midi": 35,
                    "time": 570.9546879999883,
                    "velocity": 0.5039370078740157,
                    "duration": 0.41493800000000647
                },
                {
                    "name": "B2",
                    "midi": 47,
                    "time": 570.9546879999883,
                    "velocity": 0.5905511811023622,
                    "duration": 0.41493800000000647
                },
                {
                    "name": "D2",
                    "midi": 38,
                    "time": 571.3696259999883,
                    "velocity": 0.4566929133858268,
                    "duration": 0.2074689999999464
                },
                {
                    "name": "D3",
                    "midi": 50,
                    "time": 571.3696259999883,
                    "velocity": 0.5590551181102362,
                    "duration": 0.2074689999999464
                },
                {
                    "name": "D2",
                    "midi": 38,
                    "time": 571.7845639999882,
                    "velocity": 0.4409448818897638,
                    "duration": 0.1037344999999732
                },
                {
                    "name": "D3",
                    "midi": 50,
                    "time": 571.7845639999882,
                    "velocity": 0.5196850393700787,
                    "duration": 0.1037344999999732
                },
                {
                    "name": "F#2",
                    "midi": 42,
                    "time": 572.1995019999882,
                    "velocity": 0.4015748031496063,
                    "duration": 0.1037344999999732
                },
                {
                    "name": "F#3",
                    "midi": 54,
                    "time": 572.1995019999882,
                    "velocity": 0.4881889763779528,
                    "duration": 0.1037344999999732
                },
                {
                    "name": "A2",
                    "midi": 45,
                    "time": 572.6144399999882,
                    "velocity": 0.4409448818897638,
                    "duration": 0.8298760000000129
                },
                {
                    "name": "A3",
                    "midi": 57,
                    "time": 572.6144399999882,
                    "velocity": 0.5196850393700787,
                    "duration": 0.8298760000000129
                },
                {
                    "name": "F2",
                    "midi": 41,
                    "time": 573.4443159999882,
                    "velocity": 0.4566929133858268,
                    "duration": 0.1037344999999732
                },
                {
                    "name": "F3",
                    "midi": 53,
                    "time": 573.4443159999882,
                    "velocity": 0.5433070866141733,
                    "duration": 0.1037344999999732
                },
                {
                    "name": "F2",
                    "midi": 41,
                    "time": 573.6517849999882,
                    "velocity": 0.4094488188976378,
                    "duration": 0.1037344999999732
                },
                {
                    "name": "F3",
                    "midi": 53,
                    "time": 573.6517849999882,
                    "velocity": 0.49606299212598426,
                    "duration": 0.1037344999999732
                },
                {
                    "name": "F2",
                    "midi": 41,
                    "time": 573.8592539999881,
                    "velocity": 0.4566929133858268,
                    "duration": 0.1037344999999732
                },
                {
                    "name": "F3",
                    "midi": 53,
                    "time": 573.8592539999881,
                    "velocity": 0.5433070866141733,
                    "duration": 0.1037344999999732
                },
                {
                    "name": "F2",
                    "midi": 41,
                    "time": 574.0667229999881,
                    "velocity": 0.4094488188976378,
                    "duration": 0.1037344999999732
                },
                {
                    "name": "F3",
                    "midi": 53,
                    "time": 574.0667229999881,
                    "velocity": 0.49606299212598426,
                    "duration": 0.1037344999999732
                },
                {
                    "name": "A2",
                    "midi": 45,
                    "time": 574.274191999988,
                    "velocity": 0.5039370078740157,
                    "duration": 0.8298760000000129
                },
                {
                    "name": "F#3",
                    "midi": 54,
                    "time": 574.274191999988,
                    "velocity": 0.5039370078740157,
                    "duration": 0.8298760000000129
                },
                {
                    "name": "A3",
                    "midi": 57,
                    "time": 574.274191999988,
                    "velocity": 0.5905511811023622,
                    "duration": 0.8298760000000129
                },
                {
                    "name": "D4",
                    "midi": 62,
                    "time": 575.104067999988,
                    "velocity": 0.4409448818897638,
                    "duration": 0.1037344999999732
                },
                {
                    "name": "A3",
                    "midi": 57,
                    "time": 575.104067999988,
                    "velocity": 0.4409448818897638,
                    "duration": 0.1037344999999732
                },
                {
                    "name": "F#4",
                    "midi": 66,
                    "time": 575.104067999988,
                    "velocity": 0.5196850393700787,
                    "duration": 0.1037344999999732
                },
                {
                    "name": "C#4",
                    "midi": 61,
                    "time": 575.519005999988,
                    "velocity": 0.4015748031496063,
                    "duration": 0.1037344999999732
                },
                {
                    "name": "A3",
                    "midi": 57,
                    "time": 575.519005999988,
                    "velocity": 0.4015748031496063,
                    "duration": 0.1037344999999732
                },
                {
                    "name": "E4",
                    "midi": 64,
                    "time": 575.519005999988,
                    "velocity": 0.4881889763779528,
                    "duration": 0.1037344999999732
                },
                {
                    "name": "D3",
                    "midi": 50,
                    "time": 575.9339439999881,
                    "velocity": 0.4409448818897638,
                    "duration": 0.41493800000000647
                },
                {
                    "name": "F#3",
                    "midi": 54,
                    "time": 575.9339439999881,
                    "velocity": 0.4409448818897638,
                    "duration": 0.41493800000000647
                },
                {
                    "name": "A3",
                    "midi": 57,
                    "time": 575.9339439999881,
                    "velocity": 0.4409448818897638,
                    "duration": 0.41493800000000647
                },
                {
                    "name": "D4",
                    "midi": 62,
                    "time": 575.9339439999881,
                    "velocity": 0.5196850393700787,
                    "duration": 0.41493800000000647
                },
                {
                    "name": "F2",
                    "midi": 41,
                    "time": 576.3488819999881,
                    "velocity": 0.4566929133858268,
                    "duration": 0.6224069999999529
                },
                {
                    "name": "F3",
                    "midi": 53,
                    "time": 576.3488819999881,
                    "velocity": 0.5433070866141733,
                    "duration": 0.6224069999999529
                },
                {
                    "name": "F2",
                    "midi": 41,
                    "time": 576.971288999988,
                    "velocity": 0.4094488188976378,
                    "duration": 0.1037344999999732
                },
                {
                    "name": "F3",
                    "midi": 53,
                    "time": 576.971288999988,
                    "velocity": 0.49606299212598426,
                    "duration": 0.1037344999999732
                },
                {
                    "name": "F2",
                    "midi": 41,
                    "time": 577.178757999988,
                    "velocity": 0.4566929133858268,
                    "duration": 0.1037344999999732
                },
                {
                    "name": "F3",
                    "midi": 53,
                    "time": 577.178757999988,
                    "velocity": 0.5433070866141733,
                    "duration": 0.1037344999999732
                },
                {
                    "name": "F2",
                    "midi": 41,
                    "time": 577.3862269999879,
                    "velocity": 0.4094488188976378,
                    "duration": 0.1037344999999732
                },
                {
                    "name": "F3",
                    "midi": 53,
                    "time": 577.3862269999879,
                    "velocity": 0.49606299212598426,
                    "duration": 0.1037344999999732
                },
                {
                    "name": "A2",
                    "midi": 45,
                    "time": 577.5936959999879,
                    "velocity": 0.5039370078740157,
                    "duration": 0.8298760000000129
                },
                {
                    "name": "F#3",
                    "midi": 54,
                    "time": 577.5936959999879,
                    "velocity": 0.5039370078740157,
                    "duration": 0.8298760000000129
                },
                {
                    "name": "A3",
                    "midi": 57,
                    "time": 577.5936959999879,
                    "velocity": 0.5905511811023622,
                    "duration": 0.8298760000000129
                },
                {
                    "name": "D4",
                    "midi": 62,
                    "time": 578.4235719999879,
                    "velocity": 0.4409448818897638,
                    "duration": 0.1037344999999732
                },
                {
                    "name": "A3",
                    "midi": 57,
                    "time": 578.4235719999879,
                    "velocity": 0.4409448818897638,
                    "duration": 0.1037344999999732
                },
                {
                    "name": "F#4",
                    "midi": 66,
                    "time": 578.4235719999879,
                    "velocity": 0.5196850393700787,
                    "duration": 0.1037344999999732
                },
                {
                    "name": "C#4",
                    "midi": 61,
                    "time": 578.8385099999879,
                    "velocity": 0.4015748031496063,
                    "duration": 0.1037344999999732
                },
                {
                    "name": "A3",
                    "midi": 57,
                    "time": 578.8385099999879,
                    "velocity": 0.4015748031496063,
                    "duration": 0.1037344999999732
                },
                {
                    "name": "E4",
                    "midi": 64,
                    "time": 578.8385099999879,
                    "velocity": 0.4881889763779528,
                    "duration": 0.1037344999999732
                },
                {
                    "name": "D3",
                    "midi": 50,
                    "time": 579.2534479999879,
                    "velocity": 0.4409448818897638,
                    "duration": 0.41493800000000647
                },
                {
                    "name": "F#3",
                    "midi": 54,
                    "time": 579.2534479999879,
                    "velocity": 0.4409448818897638,
                    "duration": 0.41493800000000647
                },
                {
                    "name": "A3",
                    "midi": 57,
                    "time": 579.2534479999879,
                    "velocity": 0.4409448818897638,
                    "duration": 0.41493800000000647
                },
                {
                    "name": "D4",
                    "midi": 62,
                    "time": 579.2534479999879,
                    "velocity": 0.5196850393700787,
                    "duration": 0.41493800000000647
                },
                {
                    "name": "A#1",
                    "midi": 34,
                    "time": 579.6683859999879,
                    "velocity": 0.4566929133858268,
                    "duration": 0.6224069999999529
                },
                {
                    "name": "A#2",
                    "midi": 46,
                    "time": 579.6683859999879,
                    "velocity": 0.5433070866141733,
                    "duration": 0.6224069999999529
                },
                {
                    "name": "A#1",
                    "midi": 34,
                    "time": 580.2907929999878,
                    "velocity": 0.4094488188976378,
                    "duration": 0.1037344999999732
                },
                {
                    "name": "A#2",
                    "midi": 46,
                    "time": 580.2907929999878,
                    "velocity": 0.49606299212598426,
                    "duration": 0.1037344999999732
                },
                {
                    "name": "A#1",
                    "midi": 34,
                    "time": 580.4982619999878,
                    "velocity": 0.4566929133858268,
                    "duration": 0.1037344999999732
                },
                {
                    "name": "A#2",
                    "midi": 46,
                    "time": 580.4982619999878,
                    "velocity": 0.5433070866141733,
                    "duration": 0.1037344999999732
                },
                {
                    "name": "A#1",
                    "midi": 34,
                    "time": 580.7057309999877,
                    "velocity": 0.4094488188976378,
                    "duration": 0.1037344999999732
                },
                {
                    "name": "A#2",
                    "midi": 46,
                    "time": 580.7057309999877,
                    "velocity": 0.49606299212598426,
                    "duration": 0.1037344999999732
                },
                {
                    "name": "A2",
                    "midi": 45,
                    "time": 580.9131999999877,
                    "velocity": 0.5039370078740157,
                    "duration": 0.8298760000000129
                },
                {
                    "name": "F#3",
                    "midi": 54,
                    "time": 580.9131999999877,
                    "velocity": 0.5039370078740157,
                    "duration": 0.8298760000000129
                },
                {
                    "name": "A3",
                    "midi": 57,
                    "time": 580.9131999999877,
                    "velocity": 0.5905511811023622,
                    "duration": 0.8298760000000129
                },
                {
                    "name": "D4",
                    "midi": 62,
                    "time": 581.7430759999877,
                    "velocity": 0.4409448818897638,
                    "duration": 0.1037344999999732
                },
                {
                    "name": "A3",
                    "midi": 57,
                    "time": 581.7430759999877,
                    "velocity": 0.4409448818897638,
                    "duration": 0.1037344999999732
                },
                {
                    "name": "F#4",
                    "midi": 66,
                    "time": 581.7430759999877,
                    "velocity": 0.5196850393700787,
                    "duration": 0.1037344999999732
                },
                {
                    "name": "C#4",
                    "midi": 61,
                    "time": 582.1580139999877,
                    "velocity": 0.4015748031496063,
                    "duration": 0.1037344999999732
                },
                {
                    "name": "A3",
                    "midi": 57,
                    "time": 582.1580139999877,
                    "velocity": 0.4015748031496063,
                    "duration": 0.1037344999999732
                },
                {
                    "name": "E4",
                    "midi": 64,
                    "time": 582.1580139999877,
                    "velocity": 0.4881889763779528,
                    "duration": 0.1037344999999732
                },
                {
                    "name": "A3",
                    "midi": 57,
                    "time": 582.5729519999877,
                    "velocity": 0.5275590551181102,
                    "duration": 0.6224069999999529
                },
                {
                    "name": "F#4",
                    "midi": 66,
                    "time": 582.5729519999877,
                    "velocity": 0.5748031496062992,
                    "duration": 0.41493800000000647
                },
                {
                    "name": "A4",
                    "midi": 69,
                    "time": 582.5729519999877,
                    "velocity": 0.6929133858267716,
                    "duration": 0.41493800000000647
                },
                {
                    "name": "D4",
                    "midi": 62,
                    "time": 582.9878899999877,
                    "velocity": 0.44881889763779526,
                    "duration": 0.2074689999999464
                },
                {
                    "name": "F#4",
                    "midi": 66,
                    "time": 582.9878899999877,
                    "velocity": 0.5354330708661418,
                    "duration": 0.2074689999999464
                },
                {
                    "name": "A3",
                    "midi": 57,
                    "time": 583.4028279999876,
                    "velocity": 0.4881889763779528,
                    "duration": 0.1037344999999732
                },
                {
                    "name": "D4",
                    "midi": 62,
                    "time": 583.4028279999876,
                    "velocity": 0.4881889763779528,
                    "duration": 0.1037344999999732
                },
                {
                    "name": "F#4",
                    "midi": 66,
                    "time": 583.4028279999876,
                    "velocity": 0.5748031496062992,
                    "duration": 0.1037344999999732
                },
                {
                    "name": "A3",
                    "midi": 57,
                    "time": 583.8177659999876,
                    "velocity": 0.4251968503937008,
                    "duration": 0.1037344999999732
                },
                {
                    "name": "C#4",
                    "midi": 61,
                    "time": 583.8177659999876,
                    "velocity": 0.4251968503937008,
                    "duration": 0.1037344999999732
                },
                {
                    "name": "E4",
                    "midi": 64,
                    "time": 583.8177659999876,
                    "velocity": 0.49606299212598426,
                    "duration": 0.1037344999999732
                },
                {
                    "name": "A3",
                    "midi": 57,
                    "time": 584.2327039999876,
                    "velocity": 0.5275590551181102,
                    "duration": 0.6224069999999529
                },
                {
                    "name": "F#4",
                    "midi": 66,
                    "time": 584.2327039999876,
                    "velocity": 0.5748031496062992,
                    "duration": 0.41493800000000647
                },
                {
                    "name": "A4",
                    "midi": 69,
                    "time": 584.2327039999876,
                    "velocity": 0.6929133858267716,
                    "duration": 0.41493800000000647
                },
                {
                    "name": "D4",
                    "midi": 62,
                    "time": 584.6476419999876,
                    "velocity": 0.44881889763779526,
                    "duration": 0.2074689999999464
                },
                {
                    "name": "F#4",
                    "midi": 66,
                    "time": 584.6476419999876,
                    "velocity": 0.5354330708661418,
                    "duration": 0.2074689999999464
                },
                {
                    "name": "A3",
                    "midi": 57,
                    "time": 585.0625799999875,
                    "velocity": 0.4881889763779528,
                    "duration": 0.1037344999999732
                },
                {
                    "name": "D4",
                    "midi": 62,
                    "time": 585.0625799999875,
                    "velocity": 0.4881889763779528,
                    "duration": 0.1037344999999732
                },
                {
                    "name": "F#4",
                    "midi": 66,
                    "time": 585.0625799999875,
                    "velocity": 0.5748031496062992,
                    "duration": 0.1037344999999732
                },
                {
                    "name": "A3",
                    "midi": 57,
                    "time": 585.4775179999875,
                    "velocity": 0.4251968503937008,
                    "duration": 0.1037344999999732
                },
                {
                    "name": "C#4",
                    "midi": 61,
                    "time": 585.4775179999875,
                    "velocity": 0.4251968503937008,
                    "duration": 0.1037344999999732
                },
                {
                    "name": "E4",
                    "midi": 64,
                    "time": 585.4775179999875,
                    "velocity": 0.49606299212598426,
                    "duration": 0.1037344999999732
                },
                {
                    "name": "A3",
                    "midi": 57,
                    "time": 585.8924559999875,
                    "velocity": 0.5275590551181102,
                    "duration": 0.6224069999999529
                },
                {
                    "name": "F#4",
                    "midi": 66,
                    "time": 585.8924559999875,
                    "velocity": 0.5748031496062992,
                    "duration": 0.41493800000000647
                },
                {
                    "name": "A4",
                    "midi": 69,
                    "time": 585.8924559999875,
                    "velocity": 0.6929133858267716,
                    "duration": 0.41493800000000647
                },
                {
                    "name": "D4",
                    "midi": 62,
                    "time": 586.3073939999875,
                    "velocity": 0.44881889763779526,
                    "duration": 0.2074689999999464
                },
                {
                    "name": "F#4",
                    "midi": 66,
                    "time": 586.3073939999875,
                    "velocity": 0.5354330708661418,
                    "duration": 0.2074689999999464
                },
                {
                    "name": "A3",
                    "midi": 57,
                    "time": 586.7223319999874,
                    "velocity": 0.4881889763779528,
                    "duration": 0.1037344999999732
                },
                {
                    "name": "D4",
                    "midi": 62,
                    "time": 586.7223319999874,
                    "velocity": 0.4881889763779528,
                    "duration": 0.1037344999999732
                },
                {
                    "name": "F#4",
                    "midi": 66,
                    "time": 586.7223319999874,
                    "velocity": 0.5748031496062992,
                    "duration": 0.1037344999999732
                },
                {
                    "name": "A3",
                    "midi": 57,
                    "time": 587.1372699999874,
                    "velocity": 0.4251968503937008,
                    "duration": 0.1037344999999732
                },
                {
                    "name": "C#4",
                    "midi": 61,
                    "time": 587.1372699999874,
                    "velocity": 0.4251968503937008,
                    "duration": 0.1037344999999732
                },
                {
                    "name": "E4",
                    "midi": 64,
                    "time": 587.1372699999874,
                    "velocity": 0.49606299212598426,
                    "duration": 0.1037344999999732
                },
                {
                    "name": "D3",
                    "midi": 50,
                    "time": 587.5522079999874,
                    "velocity": 0.5590551181102362,
                    "duration": 0.1037344999999732
                },
                {
                    "name": "F#3",
                    "midi": 54,
                    "time": 587.5522079999874,
                    "velocity": 0.5590551181102362,
                    "duration": 0.1037344999999732
                },
                {
                    "name": "D4",
                    "midi": 62,
                    "time": 587.5522079999874,
                    "velocity": 0.6535433070866141,
                    "duration": 0.1037344999999732
                },
                {
                    "name": "E2",
                    "midi": 40,
                    "time": 587.8288333333207,
                    "velocity": 0.33070866141732286,
                    "duration": 0.13831266666670672
                },
                {
                    "name": "F#2",
                    "midi": 42,
                    "time": 587.9671459999875,
                    "velocity": 0.36220472440944884,
                    "duration": 0.13831266666670672
                },
                {
                    "name": "E2",
                    "midi": 40,
                    "time": 588.1054586666542,
                    "velocity": 0.33070866141732286,
                    "duration": 0.13831266666670672
                },
                {
                    "name": "D2",
                    "midi": 38,
                    "time": 588.2437713333209,
                    "velocity": 0.33858267716535434,
                    "duration": 0.13831266666670672
                },
                {
                    "name": "G2",
                    "midi": 43,
                    "time": 588.3820839999876,
                    "velocity": 0.3779527559055118,
                    "duration": 0.13831266666670672
                },
                {
                    "name": "F#2",
                    "midi": 42,
                    "time": 588.5203966666543,
                    "velocity": 0.3464566929133858,
                    "duration": 0.13831266666670672
                },
                {
                    "name": "E2",
                    "midi": 40,
                    "time": 588.658709333321,
                    "velocity": 0.3543307086614173,
                    "duration": 0.13831266666670672
                },
                {
                    "name": "A2",
                    "midi": 45,
                    "time": 588.7970219999877,
                    "velocity": 0.3937007874015748,
                    "duration": 0.13831266666670672
                },
                {
                    "name": "G2",
                    "midi": 43,
                    "time": 588.9353346666544,
                    "velocity": 0.36220472440944884,
                    "duration": 0.13831266666670672
                },
                {
                    "name": "F#2",
                    "midi": 42,
                    "time": 589.0736473333211,
                    "velocity": 0.36220472440944884,
                    "duration": 0.13831266666670672
                },
                {
                    "name": "B2",
                    "midi": 47,
                    "time": 589.2119599999878,
                    "velocity": 0.4094488188976378,
                    "duration": 0.13831266666670672
                },
                {
                    "name": "A2",
                    "midi": 45,
                    "time": 589.3502726666545,
                    "velocity": 0.3779527559055118,
                    "duration": 0.13831266666670672
                },
                {
                    "name": "G2",
                    "midi": 43,
                    "time": 589.4885853333212,
                    "velocity": 0.3779527559055118,
                    "duration": 0.13831266666670672
                },
                {
                    "name": "C#3",
                    "midi": 49,
                    "time": 589.6268979999879,
                    "velocity": 0.4330708661417323,
                    "duration": 0.13831266666670672
                },
                {
                    "name": "B2",
                    "midi": 47,
                    "time": 589.7652106666546,
                    "velocity": 0.4015748031496063,
                    "duration": 0.13831266666670672
                },
                {
                    "name": "A2",
                    "midi": 45,
                    "time": 589.9035233333213,
                    "velocity": 0.4094488188976378,
                    "duration": 0.13831266666670672
                },
                {
                    "name": "D3",
                    "midi": 50,
                    "time": 590.041835999988,
                    "velocity": 0.4566929133858268,
                    "duration": 0.13831266666670672
                },
                {
                    "name": "C#3",
                    "midi": 49,
                    "time": 590.1801486666548,
                    "velocity": 0.41732283464566927,
                    "duration": 0.13831266666670672
                },
                {
                    "name": "B2",
                    "midi": 47,
                    "time": 590.3184613333215,
                    "velocity": 0.4330708661417323,
                    "duration": 0.13831266666670672
                },
                {
                    "name": "E3",
                    "midi": 52,
                    "time": 590.4567739999882,
                    "velocity": 0.4881889763779528,
                    "duration": 0.13831266666670672
                },
                {
                    "name": "D3",
                    "midi": 50,
                    "time": 590.5950866666549,
                    "velocity": 0.4409448818897638,
                    "duration": 0.13831266666670672
                },
                {
                    "name": "C#3",
                    "midi": 49,
                    "time": 590.7333993333216,
                    "velocity": 0.44881889763779526,
                    "duration": 0.13831266666670672
                },
                {
                    "name": "F#2",
                    "midi": 42,
                    "time": 590.8717119999883,
                    "velocity": 0.5748031496062992,
                    "duration": 0.8298760000000129
                },
                {
                    "name": "F#3",
                    "midi": 54,
                    "time": 590.8717119999883,
                    "velocity": 0.5748031496062992,
                    "duration": 0.8298760000000129
                },
                {
                    "name": "A1",
                    "midi": 33,
                    "time": 592.5314639999883,
                    "velocity": 0.6299212598425197,
                    "duration": 0.8298760000000129
                },
                {
                    "name": "A2",
                    "midi": 45,
                    "time": 592.5314639999883,
                    "velocity": 0.6299212598425197,
                    "duration": 0.8298760000000129
                },
                {
                    "name": "D2",
                    "midi": 38,
                    "time": 594.1912159999883,
                    "velocity": 0.5354330708661418,
                    "duration": 0.6224069999999529
                },
                {
                    "name": "D3",
                    "midi": 50,
                    "time": 594.1912159999883,
                    "velocity": 0.6299212598425197,
                    "duration": 0.6224069999999529
                },
                {
                    "name": "D2",
                    "midi": 38,
                    "time": 594.8136229999883,
                    "velocity": 0.5669291338582677,
                    "duration": 0.2074689999999464
                },
                {
                    "name": "F#2",
                    "midi": 42,
                    "time": 595.0210919999882,
                    "velocity": 0.6299212598425197,
                    "duration": 0.13831266666670672
                },
                {
                    "name": "E2",
                    "midi": 40,
                    "time": 595.159404666655,
                    "velocity": 0.5748031496062992,
                    "duration": 0.13831266666670672
                },
                {
                    "name": "D2",
                    "midi": 38,
                    "time": 595.2977173333217,
                    "velocity": 0.5748031496062992,
                    "duration": 0.13831266666670672
                },
                {
                    "name": "A2",
                    "midi": 45,
                    "time": 595.4360299999884,
                    "velocity": 0.6299212598425197,
                    "duration": 0.13831266666670672
                },
                {
                    "name": "G2",
                    "midi": 43,
                    "time": 595.5743426666551,
                    "velocity": 0.5748031496062992,
                    "duration": 0.13831266666670672
                },
                {
                    "name": "F#2",
                    "midi": 42,
                    "time": 595.7126553333218,
                    "velocity": 0.5748031496062992,
                    "duration": 0.13831266666670672
                },
                {
                    "name": "D3",
                    "midi": 50,
                    "time": 595.8509679999885,
                    "velocity": 0.6929133858267716,
                    "duration": 0.2074689999999464
                },
                {
                    "name": "D3",
                    "midi": 50,
                    "time": 596.6808439999884,
                    "velocity": 0.5826771653543307,
                    "duration": 0.2074689999999464
                },
                {
                    "name": "F#3",
                    "midi": 54,
                    "time": 596.6808439999884,
                    "velocity": 0.5826771653543307,
                    "duration": 0.2074689999999464
                },
                {
                    "name": "A3",
                    "midi": 57,
                    "time": 596.6808439999884,
                    "velocity": 0.5826771653543307,
                    "duration": 0.2074689999999464
                },
                {
                    "name": "D4",
                    "midi": 62,
                    "time": 596.6808439999884,
                    "velocity": 0.6929133858267716,
                    "duration": 0.2074689999999464
                },
                {
                    "name": "A2",
                    "midi": 45,
                    "time": 597.5107199999883,
                    "velocity": 0.6299212598425197,
                    "duration": 0.8298760000000129
                },
                {
                    "name": "D2",
                    "midi": 38,
                    "time": 597.5107199999883,
                    "velocity": 0.6299212598425197,
                    "duration": 0.8298760000000129
                },
                {
                    "name": "D3",
                    "midi": 50,
                    "time": 597.5107199999883,
                    "velocity": 0.6299212598425197,
                    "duration": 0.8298760000000129
                }
            ],
            "controlChanges": {},
            "id": 2,
            "name": "Piano left",
            "instrumentNumber": 0,
            "instrument": "acoustic grand piano",
            "instrumentFamily": "piano",
            "channelNumber": 0,
            "isPercussion": false
        },
        {
            "startTime": 0,
            "duration": 0,
            "length": 0,
            "notes": [],
            "controlChanges": {
                "64": [
                    {
                        "number": 64,
                        "time": 0.07347860416666667,
                        "value": 1
                    },
                    {
                        "number": 64,
                        "time": 0.8359271791666666,
                        "value": 0
                    },
                    {
                        "number": 64,
                        "time": 1.7133481583333334,
                        "value": 1
                    },
                    {
                        "number": 64,
                        "time": 2.079876725,
                        "value": 0
                    },
                    {
                        "number": 64,
                        "time": 3.3791513375,
                        "value": 1
                    },
                    {
                        "number": 64,
                        "time": 3.7439509958333335,
                        "value": 0
                    },
                    {
                        "number": 64,
                        "time": 4.218536333333334,
                        "value": 1
                    },
                    {
                        "number": 64,
                        "time": 4.576420358333333,
                        "value": 0
                    },
                    {
                        "number": 64,
                        "time": 4.638661058333334,
                        "value": 1
                    },
                    {
                        "number": 64,
                        "time": 4.979256,
                        "value": 0
                    },
                    {
                        "number": 64,
                        "time": 5.467672604166667,
                        "value": 1
                    },
                    {
                        "number": 64,
                        "time": 5.821234358333334,
                        "value": 0
                    },
                    {
                        "number": 64,
                        "time": 5.8826106041666675,
                        "value": 1
                    },
                    {
                        "number": 64,
                        "time": 6.2353079041666675,
                        "value": 0
                    },
                    {
                        "number": 64,
                        "time": 6.309650962500001,
                        "value": 1
                    },
                    {
                        "number": 64,
                        "time": 6.639008000000001,
                        "value": 0
                    },
                    {
                        "number": 64,
                        "time": 6.712486604166668,
                        "value": 1
                    },
                    {
                        "number": 64,
                        "time": 7.474935179166668,
                        "value": 0
                    },
                    {
                        "number": 64,
                        "time": 8.352356158333334,
                        "value": 1
                    },
                    {
                        "number": 64,
                        "time": 8.718884725,
                        "value": 0
                    },
                    {
                        "number": 64,
                        "time": 10.0181593375,
                        "value": 1
                    },
                    {
                        "number": 64,
                        "time": 10.382958995833334,
                        "value": 0
                    },
                    {
                        "number": 64,
                        "time": 11.77386575,
                        "value": 1
                    },
                    {
                        "number": 64,
                        "time": 12.046168812500001,
                        "value": 0
                    },
                    {
                        "number": 64,
                        "time": 12.106680604166668,
                        "value": 1
                    },
                    {
                        "number": 64,
                        "time": 12.460242358333334,
                        "value": 0
                    },
                    {
                        "number": 64,
                        "time": 12.521618604166667,
                        "value": 1
                    },
                    {
                        "number": 64,
                        "time": 12.874315904166668,
                        "value": 0
                    },
                    {
                        "number": 64,
                        "time": 12.948658962500001,
                        "value": 1
                    },
                    {
                        "number": 64,
                        "time": 13.281473816666669,
                        "value": 0
                    },
                    {
                        "number": 64,
                        "time": 13.33334106666667,
                        "value": 1
                    },
                    {
                        "number": 64,
                        "time": 13.705920812500002,
                        "value": 0
                    },
                    {
                        "number": 64,
                        "time": 13.766432604166669,
                        "value": 1
                    },
                    {
                        "number": 64,
                        "time": 14.119994358333335,
                        "value": 0
                    },
                    {
                        "number": 64,
                        "time": 14.181370604166668,
                        "value": 1
                    },
                    {
                        "number": 64,
                        "time": 14.534067904166669,
                        "value": 0
                    },
                    {
                        "number": 64,
                        "time": 14.608410962500002,
                        "value": 1
                    },
                    {
                        "number": 64,
                        "time": 14.94122581666667,
                        "value": 0
                    },
                    {
                        "number": 64,
                        "time": 18.322106062500005,
                        "value": 1
                    },
                    {
                        "number": 64,
                        "time": 19.095792541666672,
                        "value": 0
                    },
                    {
                        "number": 64,
                        "time": 19.15630433333334,
                        "value": 1
                    },
                    {
                        "number": 64,
                        "time": 19.92566854166667,
                        "value": 0
                    },
                    {
                        "number": 64,
                        "time": 20.014707320833338,
                        "value": 1
                    },
                    {
                        "number": 64,
                        "time": 20.75813790416667,
                        "value": 0
                    },
                    {
                        "number": 64,
                        "time": 20.844583320833337,
                        "value": 1
                    },
                    {
                        "number": 64,
                        "time": 21.588878358333336,
                        "value": 0
                    },
                    {
                        "number": 64,
                        "time": 21.713359758333336,
                        "value": 1
                    },
                    {
                        "number": 64,
                        "time": 22.42048326666667,
                        "value": 0
                    },
                    {
                        "number": 64,
                        "time": 22.505199775,
                        "value": 1
                    },
                    {
                        "number": 64,
                        "time": 23.248630358333333,
                        "value": 0
                    },
                    {
                        "number": 64,
                        "time": 23.302226516666668,
                        "value": 1
                    },
                    {
                        "number": 64,
                        "time": 24.078506358333335,
                        "value": 0
                    },
                    {
                        "number": 64,
                        "time": 24.170138500000004,
                        "value": 1
                    },
                    {
                        "number": 64,
                        "time": 24.896280000000004,
                        "value": 0
                    },
                    {
                        "number": 64,
                        "time": 24.96975860416667,
                        "value": 1
                    },
                    {
                        "number": 64,
                        "time": 25.73220717916667,
                        "value": 0
                    },
                    {
                        "number": 64,
                        "time": 26.60962815833334,
                        "value": 1
                    },
                    {
                        "number": 64,
                        "time": 26.976156725000006,
                        "value": 0
                    },
                    {
                        "number": 64,
                        "time": 27.46025105833334,
                        "value": 1
                    },
                    {
                        "number": 64,
                        "time": 27.81035499583334,
                        "value": 0
                    },
                    {
                        "number": 64,
                        "time": 27.87000233333334,
                        "value": 1
                    },
                    {
                        "number": 64,
                        "time": 28.215784000000006,
                        "value": 0
                    },
                    {
                        "number": 64,
                        "time": 28.315196229166673,
                        "value": 1
                    },
                    {
                        "number": 64,
                        "time": 28.640230995833342,
                        "value": 0
                    },
                    {
                        "number": 64,
                        "time": 28.730134229166676,
                        "value": 1
                    },
                    {
                        "number": 64,
                        "time": 29.051711179166677,
                        "value": 0
                    },
                    {
                        "number": 64,
                        "time": 29.929132158333346,
                        "value": 1
                    },
                    {
                        "number": 64,
                        "time": 30.295660725000012,
                        "value": 0
                    },
                    {
                        "number": 64,
                        "time": 30.779755058333347,
                        "value": 1
                    },
                    {
                        "number": 64,
                        "time": 31.129858995833345,
                        "value": 0
                    },
                    {
                        "number": 64,
                        "time": 31.189506333333345,
                        "value": 1
                    },
                    {
                        "number": 64,
                        "time": 31.535288000000012,
                        "value": 0
                    },
                    {
                        "number": 64,
                        "time": 31.63470022916668,
                        "value": 1
                    },
                    {
                        "number": 64,
                        "time": 31.959734995833347,
                        "value": 0
                    },
                    {
                        "number": 64,
                        "time": 32.04963822916668,
                        "value": 1
                    },
                    {
                        "number": 64,
                        "time": 32.37121517916668,
                        "value": 0
                    },
                    {
                        "number": 64,
                        "time": 33.24863615833335,
                        "value": 1
                    },
                    {
                        "number": 64,
                        "time": 33.615164725000014,
                        "value": 0
                    },
                    {
                        "number": 64,
                        "time": 34.099259058333345,
                        "value": 1
                    },
                    {
                        "number": 64,
                        "time": 34.44936299583335,
                        "value": 0
                    },
                    {
                        "number": 64,
                        "time": 34.50901033333335,
                        "value": 1
                    },
                    {
                        "number": 64,
                        "time": 34.85479200000002,
                        "value": 0
                    },
                    {
                        "number": 64,
                        "time": 34.954204229166685,
                        "value": 1
                    },
                    {
                        "number": 64,
                        "time": 35.27923899583335,
                        "value": 0
                    },
                    {
                        "number": 64,
                        "time": 35.369142229166684,
                        "value": 1
                    },
                    {
                        "number": 64,
                        "time": 35.690719179166685,
                        "value": 0
                    },
                    {
                        "number": 64,
                        "time": 36.56814015833335,
                        "value": 1
                    },
                    {
                        "number": 64,
                        "time": 36.934668725000016,
                        "value": 0
                    },
                    {
                        "number": 64,
                        "time": 37.41876305833335,
                        "value": 1
                    },
                    {
                        "number": 64,
                        "time": 37.76886699583335,
                        "value": 0
                    },
                    {
                        "number": 64,
                        "time": 37.82851433333335,
                        "value": 1
                    },
                    {
                        "number": 64,
                        "time": 38.17429600000002,
                        "value": 0
                    },
                    {
                        "number": 64,
                        "time": 38.27370822916669,
                        "value": 1
                    },
                    {
                        "number": 64,
                        "time": 38.598742995833355,
                        "value": 0
                    },
                    {
                        "number": 64,
                        "time": 38.688646229166686,
                        "value": 1
                    },
                    {
                        "number": 64,
                        "time": 39.01022317916669,
                        "value": 0
                    },
                    {
                        "number": 64,
                        "time": 39.88764415833335,
                        "value": 1
                    },
                    {
                        "number": 64,
                        "time": 40.25417272500002,
                        "value": 0
                    },
                    {
                        "number": 64,
                        "time": 40.73826705833335,
                        "value": 1
                    },
                    {
                        "number": 64,
                        "time": 41.08837099583335,
                        "value": 0
                    },
                    {
                        "number": 64,
                        "time": 41.148018333333354,
                        "value": 1
                    },
                    {
                        "number": 64,
                        "time": 41.49898672500002,
                        "value": 0
                    },
                    {
                        "number": 64,
                        "time": 41.57332978333336,
                        "value": 1
                    },
                    {
                        "number": 64,
                        "time": 41.91824699583336,
                        "value": 0
                    },
                    {
                        "number": 64,
                        "time": 41.983081058333354,
                        "value": 1
                    },
                    {
                        "number": 64,
                        "time": 42.33404945000002,
                        "value": 0
                    },
                    {
                        "number": 64,
                        "time": 42.39283233333336,
                        "value": 1
                    },
                    {
                        "number": 64,
                        "time": 43.162196541666695,
                        "value": 0
                    },
                    {
                        "number": 64,
                        "time": 43.222708333333365,
                        "value": 1
                    },
                    {
                        "number": 64,
                        "time": 43.9946659041667,
                        "value": 0
                    },
                    {
                        "number": 64,
                        "time": 44.0672800541667,
                        "value": 1
                    },
                    {
                        "number": 64,
                        "time": 44.4096039041667,
                        "value": 0
                    },
                    {
                        "number": 64,
                        "time": 44.46752233333337,
                        "value": 1
                    },
                    {
                        "number": 64,
                        "time": 44.82108408750004,
                        "value": 0
                    },
                    {
                        "number": 64,
                        "time": 44.87813806250004,
                        "value": 1
                    },
                    {
                        "number": 64,
                        "time": 45.23602208750004,
                        "value": 0
                    },
                    {
                        "number": 64,
                        "time": 45.30258505833337,
                        "value": 1
                    },
                    {
                        "number": 64,
                        "time": 45.65528235833337,
                        "value": 0
                    },
                    {
                        "number": 64,
                        "time": 45.72270978333337,
                        "value": 1
                    },
                    {
                        "number": 64,
                        "time": 46.48256499583337,
                        "value": 0
                    },
                    {
                        "number": 64,
                        "time": 46.562094779166706,
                        "value": 1
                    },
                    {
                        "number": 64,
                        "time": 47.31244099583337,
                        "value": 0
                    },
                    {
                        "number": 64,
                        "time": 47.38246178333337,
                        "value": 1
                    },
                    {
                        "number": 64,
                        "time": 48.1388591791667,
                        "value": 0
                    },
                    {
                        "number": 64,
                        "time": 48.21233778333337,
                        "value": 1
                    },
                    {
                        "number": 64,
                        "time": 48.975650812500035,
                        "value": 0
                    },
                    {
                        "number": 64,
                        "time": 49.0465360541667,
                        "value": 1
                    },
                    {
                        "number": 64,
                        "time": 49.80034008750003,
                        "value": 0
                    },
                    {
                        "number": 64,
                        "time": 49.866903058333364,
                        "value": 1
                    },
                    {
                        "number": 64,
                        "time": 50.631944995833365,
                        "value": 0
                    },
                    {
                        "number": 64,
                        "time": 50.701965783333364,
                        "value": 1
                    },
                    {
                        "number": 64,
                        "time": 51.45231200000003,
                        "value": 0
                    },
                    {
                        "number": 64,
                        "time": 51.65372982083336,
                        "value": 1
                    },
                    {
                        "number": 64,
                        "time": 52.288239179166695,
                        "value": 0
                    },
                    {
                        "number": 64,
                        "time": 52.32541070833336,
                        "value": 1
                    },
                    {
                        "number": 64,
                        "time": 53.12243745000003,
                        "value": 0
                    },
                    {
                        "number": 64,
                        "time": 53.19159378333336,
                        "value": 1
                    },
                    {
                        "number": 64,
                        "time": 53.532188725000026,
                        "value": 0
                    },
                    {
                        "number": 64,
                        "time": 54.01628305833336,
                        "value": 1
                    },
                    {
                        "number": 64,
                        "time": 54.36638699583336,
                        "value": 0
                    },
                    {
                        "number": 64,
                        "time": 54.42603433333336,
                        "value": 1
                    },
                    {
                        "number": 64,
                        "time": 54.799478533333364,
                        "value": 0
                    },
                    {
                        "number": 64,
                        "time": 54.83578560833337,
                        "value": 1
                    },
                    {
                        "number": 64,
                        "time": 55.193669633333364,
                        "value": 0
                    },
                    {
                        "number": 64,
                        "time": 55.23257007083336,
                        "value": 1
                    },
                    {
                        "number": 64,
                        "time": 55.608607633333364,
                        "value": 0
                    },
                    {
                        "number": 64,
                        "time": 55.64491470833337,
                        "value": 1
                    },
                    {
                        "number": 64,
                        "time": 56.02441008750004,
                        "value": 0
                    },
                    {
                        "number": 64,
                        "time": 56.053801529166705,
                        "value": 1
                    },
                    {
                        "number": 64,
                        "time": 56.43156800000004,
                        "value": 0
                    },
                    {
                        "number": 64,
                        "time": 56.632985820833376,
                        "value": 1
                    },
                    {
                        "number": 64,
                        "time": 57.26749517916671,
                        "value": 0
                    },
                    {
                        "number": 64,
                        "time": 57.30466670833337,
                        "value": 1
                    },
                    {
                        "number": 64,
                        "time": 58.10169345000004,
                        "value": 0
                    },
                    {
                        "number": 64,
                        "time": 58.170849783333374,
                        "value": 1
                    },
                    {
                        "number": 64,
                        "time": 58.51144472500004,
                        "value": 0
                    },
                    {
                        "number": 64,
                        "time": 58.99553905833337,
                        "value": 1
                    },
                    {
                        "number": 64,
                        "time": 59.34564299583337,
                        "value": 0
                    },
                    {
                        "number": 64,
                        "time": 59.405290333333376,
                        "value": 1
                    },
                    {
                        "number": 64,
                        "time": 59.77873453333338,
                        "value": 0
                    },
                    {
                        "number": 64,
                        "time": 59.81504160833338,
                        "value": 1
                    },
                    {
                        "number": 64,
                        "time": 60.17292563333338,
                        "value": 0
                    },
                    {
                        "number": 64,
                        "time": 60.211826070833375,
                        "value": 1
                    },
                    {
                        "number": 64,
                        "time": 60.58786363333338,
                        "value": 0
                    },
                    {
                        "number": 64,
                        "time": 60.62417070833338,
                        "value": 1
                    },
                    {
                        "number": 64,
                        "time": 61.00366608750005,
                        "value": 0
                    },
                    {
                        "number": 64,
                        "time": 61.03305752916672,
                        "value": 1
                    },
                    {
                        "number": 64,
                        "time": 61.410824000000055,
                        "value": 0
                    },
                    {
                        "number": 64,
                        "time": 67.32974167916672,
                        "value": 1
                    },
                    {
                        "number": 64,
                        "time": 68.05761208750005,
                        "value": 0
                    },
                    {
                        "number": 64,
                        "time": 70.64924567916671,
                        "value": 1
                    },
                    {
                        "number": 64,
                        "time": 71.37711608750004,
                        "value": 0
                    },
                    {
                        "number": 64,
                        "time": 71.45491696250004,
                        "value": 1
                    },
                    {
                        "number": 64,
                        "time": 71.8084787166667,
                        "value": 0
                    },
                    {
                        "number": 64,
                        "time": 72.28479296250003,
                        "value": 1
                    },
                    {
                        "number": 64,
                        "time": 72.6383547166667,
                        "value": 0
                    },
                    {
                        "number": 64,
                        "time": 73.11466896250003,
                        "value": 1
                    },
                    {
                        "number": 64,
                        "time": 73.4682307166667,
                        "value": 0
                    },
                    {
                        "number": 64,
                        "time": 73.96874967916669,
                        "value": 1
                    },
                    {
                        "number": 64,
                        "time": 74.69662008750002,
                        "value": 0
                    },
                    {
                        "number": 64,
                        "time": 74.77442096250002,
                        "value": 1
                    },
                    {
                        "number": 64,
                        "time": 75.12798271666668,
                        "value": 0
                    },
                    {
                        "number": 64,
                        "time": 75.60429696250002,
                        "value": 1
                    },
                    {
                        "number": 64,
                        "time": 75.95785871666668,
                        "value": 0
                    },
                    {
                        "number": 64,
                        "time": 76.43417296250001,
                        "value": 1
                    },
                    {
                        "number": 64,
                        "time": 76.78773471666668,
                        "value": 0
                    },
                    {
                        "number": 64,
                        "time": 77.28825367916667,
                        "value": 1
                    },
                    {
                        "number": 64,
                        "time": 78.00834400000001,
                        "value": 0
                    },
                    {
                        "number": 64,
                        "time": 78.11812967916667,
                        "value": 1
                    },
                    {
                        "number": 64,
                        "time": 82.9876,
                        "value": 0
                    },
                    {
                        "number": 64,
                        "time": 83.09738567916666,
                        "value": 1
                    },
                    {
                        "number": 64,
                        "time": 87.5648848125,
                        "value": 0
                    },
                    {
                        "number": 64,
                        "time": 87.64614350416666,
                        "value": 1
                    },
                    {
                        "number": 64,
                        "time": 89.62660799999999,
                        "value": 0
                    },
                    {
                        "number": 64,
                        "time": 89.69057760833333,
                        "value": 1
                    },
                    {
                        "number": 64,
                        "time": 91.28635999999999,
                        "value": 0
                    },
                    {
                        "number": 64,
                        "time": 91.34600733749998,
                        "value": 1
                    },
                    {
                        "number": 64,
                        "time": 91.43677502499999,
                        "value": 0
                    },
                    {
                        "number": 64,
                        "time": 91.76613206249999,
                        "value": 1
                    },
                    {
                        "number": 64,
                        "time": 91.85430638749999,
                        "value": 0
                    },
                    {
                        "number": 64,
                        "time": 92.18539233333333,
                        "value": 1
                    },
                    {
                        "number": 64,
                        "time": 92.26319320833332,
                        "value": 0
                    },
                    {
                        "number": 64,
                        "time": 92.60033033333332,
                        "value": 1
                    },
                    {
                        "number": 64,
                        "time": 92.68072457083332,
                        "value": 0
                    },
                    {
                        "number": 64,
                        "time": 92.94611199999999,
                        "value": 0
                    },
                    {
                        "number": 64,
                        "time": 93.01008160833332,
                        "value": 1
                    },
                    {
                        "number": 64,
                        "time": 94.60586399999998,
                        "value": 0
                    },
                    {
                        "number": 64,
                        "time": 94.66551133749998,
                        "value": 1
                    },
                    {
                        "number": 64,
                        "time": 94.75627902499998,
                        "value": 0
                    },
                    {
                        "number": 64,
                        "time": 95.08563606249999,
                        "value": 1
                    },
                    {
                        "number": 64,
                        "time": 95.17381038749998,
                        "value": 0
                    },
                    {
                        "number": 64,
                        "time": 95.50489633333332,
                        "value": 1
                    },
                    {
                        "number": 64,
                        "time": 95.58269720833331,
                        "value": 0
                    },
                    {
                        "number": 64,
                        "time": 95.91983433333331,
                        "value": 1
                    },
                    {
                        "number": 64,
                        "time": 96.00022857083331,
                        "value": 0
                    },
                    {
                        "number": 64,
                        "time": 96.30538089166664,
                        "value": 1
                    },
                    {
                        "number": 64,
                        "time": 96.83788465833331,
                        "value": 0
                    },
                    {
                        "number": 64,
                        "time": 97.1750217833333,
                        "value": 1
                    },
                    {
                        "number": 64,
                        "time": 97.66603174999997,
                        "value": 0
                    },
                    {
                        "number": 64,
                        "time": 97.98501533749997,
                        "value": 1
                    },
                    {
                        "number": 64,
                        "time": 98.50368783749997,
                        "value": 0
                    },
                    {
                        "number": 64,
                        "time": 98.84946950416663,
                        "value": 1
                    },
                    {
                        "number": 64,
                        "time": 99.18314881249997,
                        "value": 0
                    },
                    {
                        "number": 64,
                        "time": 99.2497117833333,
                        "value": 1
                    },
                    {
                        "number": 64,
                        "time": 99.58511999999996,
                        "value": 0
                    },
                    {
                        "number": 64,
                        "time": 99.6309360708333,
                        "value": 1
                    },
                    {
                        "number": 64,
                        "time": 100.1573886583333,
                        "value": 0
                    },
                    {
                        "number": 64,
                        "time": 100.4945257833333,
                        "value": 1
                    },
                    {
                        "number": 64,
                        "time": 100.98553574999997,
                        "value": 0
                    },
                    {
                        "number": 64,
                        "time": 101.30451933749997,
                        "value": 1
                    },
                    {
                        "number": 64,
                        "time": 101.82319183749996,
                        "value": 0
                    },
                    {
                        "number": 64,
                        "time": 102.16897350416663,
                        "value": 1
                    },
                    {
                        "number": 64,
                        "time": 102.50265281249996,
                        "value": 0
                    },
                    {
                        "number": 64,
                        "time": 102.56921578333329,
                        "value": 1
                    },
                    {
                        "number": 64,
                        "time": 102.90462399999996,
                        "value": 0
                    },
                    {
                        "number": 64,
                        "time": 102.9504400708333,
                        "value": 1
                    },
                    {
                        "number": 64,
                        "time": 103.4768926583333,
                        "value": 0
                    },
                    {
                        "number": 64,
                        "time": 103.8140297833333,
                        "value": 1
                    },
                    {
                        "number": 64,
                        "time": 104.30503974999996,
                        "value": 0
                    },
                    {
                        "number": 64,
                        "time": 104.62402333749996,
                        "value": 1
                    },
                    {
                        "number": 64,
                        "time": 105.14269583749996,
                        "value": 0
                    },
                    {
                        "number": 64,
                        "time": 105.48847750416662,
                        "value": 1
                    },
                    {
                        "number": 64,
                        "time": 105.82215681249995,
                        "value": 0
                    },
                    {
                        "number": 64,
                        "time": 105.88871978333329,
                        "value": 1
                    },
                    {
                        "number": 64,
                        "time": 106.22412799999995,
                        "value": 0
                    },
                    {
                        "number": 64,
                        "time": 106.28377533749995,
                        "value": 1
                    },
                    {
                        "number": 64,
                        "time": 106.80244783749994,
                        "value": 0
                    },
                    {
                        "number": 64,
                        "time": 107.14822950416661,
                        "value": 1
                    },
                    {
                        "number": 64,
                        "time": 107.62454374999994,
                        "value": 0
                    },
                    {
                        "number": 64,
                        "time": 107.94352733749994,
                        "value": 1
                    },
                    {
                        "number": 64,
                        "time": 108.46219983749994,
                        "value": 0
                    },
                    {
                        "number": 64,
                        "time": 108.8079815041666,
                        "value": 1
                    },
                    {
                        "number": 64,
                        "time": 109.14166081249994,
                        "value": 0
                    },
                    {
                        "number": 64,
                        "time": 109.20822378333327,
                        "value": 1
                    },
                    {
                        "number": 64,
                        "time": 109.54363199999993,
                        "value": 0
                    },
                    {
                        "number": 64,
                        "time": 109.60327933749993,
                        "value": 1
                    },
                    {
                        "number": 64,
                        "time": 110.12195183749992,
                        "value": 0
                    },
                    {
                        "number": 64,
                        "time": 110.46773350416659,
                        "value": 1
                    },
                    {
                        "number": 64,
                        "time": 110.94404774999992,
                        "value": 0
                    },
                    {
                        "number": 64,
                        "time": 111.20338399999993,
                        "value": 0
                    },
                    {
                        "number": 64,
                        "time": 111.26303133749992,
                        "value": 1
                    },
                    {
                        "number": 64,
                        "time": 111.78170383749992,
                        "value": 0
                    },
                    {
                        "number": 64,
                        "time": 112.12748550416659,
                        "value": 1
                    },
                    {
                        "number": 64,
                        "time": 112.60379974999992,
                        "value": 0
                    },
                    {
                        "number": 64,
                        "time": 112.86313599999993,
                        "value": 0
                    },
                    {
                        "number": 64,
                        "time": 112.92278333749992,
                        "value": 1
                    },
                    {
                        "number": 64,
                        "time": 113.44145583749992,
                        "value": 0
                    },
                    {
                        "number": 64,
                        "time": 113.78723750416658,
                        "value": 1
                    },
                    {
                        "number": 64,
                        "time": 114.26355174999992,
                        "value": 0
                    },
                    {
                        "number": 64,
                        "time": 114.52288799999992,
                        "value": 0
                    },
                    {
                        "number": 64,
                        "time": 114.58253533749992,
                        "value": 1
                    },
                    {
                        "number": 64,
                        "time": 115.10120783749991,
                        "value": 0
                    },
                    {
                        "number": 64,
                        "time": 115.44698950416658,
                        "value": 1
                    },
                    {
                        "number": 64,
                        "time": 115.92330374999992,
                        "value": 0
                    },
                    {
                        "number": 64,
                        "time": 116.18869117916658,
                        "value": 0
                    },
                    {
                        "number": 64,
                        "time": 116.26216978333325,
                        "value": 1
                    },
                    {
                        "number": 64,
                        "time": 117.02548281249992,
                        "value": 0
                    },
                    {
                        "number": 64,
                        "time": 117.09636805416659,
                        "value": 1
                    },
                    {
                        "number": 64,
                        "time": 117.8484431791666,
                        "value": 0
                    },
                    {
                        "number": 64,
                        "time": 117.92192178333326,
                        "value": 1
                    },
                    {
                        "number": 64,
                        "time": 118.68523481249993,
                        "value": 0
                    },
                    {
                        "number": 64,
                        "time": 118.7561200541666,
                        "value": 1
                    },
                    {
                        "number": 64,
                        "time": 119.5081951791666,
                        "value": 0
                    },
                    {
                        "number": 64,
                        "time": 119.58167378333327,
                        "value": 1
                    },
                    {
                        "number": 64,
                        "time": 120.34498681249994,
                        "value": 0
                    },
                    {
                        "number": 64,
                        "time": 120.41587205416661,
                        "value": 1
                    },
                    {
                        "number": 64,
                        "time": 121.16794717916662,
                        "value": 0
                    },
                    {
                        "number": 64,
                        "time": 121.24142578333328,
                        "value": 1
                    },
                    {
                        "number": 64,
                        "time": 122.00473881249995,
                        "value": 0
                    },
                    {
                        "number": 64,
                        "time": 122.07562405416662,
                        "value": 1
                    },
                    {
                        "number": 64,
                        "time": 122.83288590416663,
                        "value": 0
                    },
                    {
                        "number": 64,
                        "time": 122.9167379583333,
                        "value": 1
                    },
                    {
                        "number": 64,
                        "time": 123.2435016333333,
                        "value": 0
                    },
                    {
                        "number": 64,
                        "time": 123.3109290583333,
                        "value": 1
                    },
                    {
                        "number": 64,
                        "time": 123.6584396333333,
                        "value": 0
                    },
                    {
                        "number": 64,
                        "time": 123.72586705833331,
                        "value": 1
                    },
                    {
                        "number": 64,
                        "time": 124.07424208749997,
                        "value": 0
                    },
                    {
                        "number": 64,
                        "time": 124.1408050583333,
                        "value": 1
                    },
                    {
                        "number": 64,
                        "time": 124.48139999999997,
                        "value": 0
                    },
                    {
                        "number": 64,
                        "time": 124.93610289166664,
                        "value": 1
                    },
                    {
                        "number": 64,
                        "time": 125.31646272499997,
                        "value": 0
                    },
                    {
                        "number": 64,
                        "time": 126.65982449999997,
                        "value": 1
                    },
                    {
                        "number": 64,
                        "time": 126.9857237208333,
                        "value": 0
                    },
                    {
                        "number": 64,
                        "time": 127.45080006249998,
                        "value": 1
                    },
                    {
                        "number": 64,
                        "time": 127.81127744999998,
                        "value": 0
                    },
                    {
                        "number": 64,
                        "time": 128.32476322499997,
                        "value": 1
                    },
                    {
                        "number": 64,
                        "time": 128.6428823583333,
                        "value": 0
                    },
                    {
                        "number": 64,
                        "time": 129.12524778333332,
                        "value": 1
                    },
                    {
                        "number": 64,
                        "time": 129.46670717916666,
                        "value": 0
                    },
                    {
                        "number": 64,
                        "time": 129.54018578333333,
                        "value": 1
                    },
                    {
                        "number": 64,
                        "time": 130.30349881249998,
                        "value": 0
                    },
                    {
                        "number": 64,
                        "time": 130.37438405416665,
                        "value": 1
                    },
                    {
                        "number": 64,
                        "time": 131.12645917916666,
                        "value": 0
                    },
                    {
                        "number": 64,
                        "time": 131.19993778333333,
                        "value": 1
                    },
                    {
                        "number": 64,
                        "time": 131.96325081249998,
                        "value": 0
                    },
                    {
                        "number": 64,
                        "time": 132.03413605416665,
                        "value": 1
                    },
                    {
                        "number": 64,
                        "time": 132.78621117916666,
                        "value": 0
                    },
                    {
                        "number": 64,
                        "time": 132.85968978333332,
                        "value": 1
                    },
                    {
                        "number": 64,
                        "time": 133.62300281249998,
                        "value": 0
                    },
                    {
                        "number": 64,
                        "time": 133.69388805416665,
                        "value": 1
                    },
                    {
                        "number": 64,
                        "time": 134.44596317916665,
                        "value": 0
                    },
                    {
                        "number": 64,
                        "time": 134.51944178333332,
                        "value": 1
                    },
                    {
                        "number": 64,
                        "time": 135.28275481249997,
                        "value": 0
                    },
                    {
                        "number": 64,
                        "time": 135.35364005416665,
                        "value": 1
                    },
                    {
                        "number": 64,
                        "time": 136.10571517916665,
                        "value": 0
                    },
                    {
                        "number": 64,
                        "time": 136.17919378333332,
                        "value": 1
                    },
                    {
                        "number": 64,
                        "time": 136.93559117916666,
                        "value": 0
                    },
                    {
                        "number": 64,
                        "time": 137.00906978333333,
                        "value": 1
                    },
                    {
                        "number": 64,
                        "time": 137.76546717916668,
                        "value": 0
                    },
                    {
                        "number": 64,
                        "time": 137.83894578333334,
                        "value": 1
                    },
                    {
                        "number": 64,
                        "time": 138.5953431791667,
                        "value": 0
                    },
                    {
                        "number": 64,
                        "time": 138.66882178333336,
                        "value": 1
                    },
                    {
                        "number": 64,
                        "time": 139.4252191791667,
                        "value": 0
                    },
                    {
                        "number": 64,
                        "time": 139.49869778333337,
                        "value": 1
                    },
                    {
                        "number": 64,
                        "time": 140.26201081250002,
                        "value": 0
                    },
                    {
                        "number": 64,
                        "time": 140.3328960541667,
                        "value": 1
                    },
                    {
                        "number": 64,
                        "time": 141.09188681250004,
                        "value": 0
                    },
                    {
                        "number": 64,
                        "time": 141.1627720541667,
                        "value": 1
                    },
                    {
                        "number": 64,
                        "time": 142.7499099041667,
                        "value": 0
                    },
                    {
                        "number": 64,
                        "time": 142.83376195833338,
                        "value": 1
                    },
                    {
                        "number": 64,
                        "time": 143.16052563333338,
                        "value": 0
                    },
                    {
                        "number": 64,
                        "time": 143.22795305833338,
                        "value": 1
                    },
                    {
                        "number": 64,
                        "time": 143.57546363333338,
                        "value": 0
                    },
                    {
                        "number": 64,
                        "time": 143.6428910583334,
                        "value": 1
                    },
                    {
                        "number": 64,
                        "time": 143.99126608750007,
                        "value": 0
                    },
                    {
                        "number": 64,
                        "time": 144.0578290583334,
                        "value": 1
                    },
                    {
                        "number": 64,
                        "time": 144.39842400000006,
                        "value": 0
                    },
                    {
                        "number": 64,
                        "time": 144.85312689166673,
                        "value": 1
                    },
                    {
                        "number": 64,
                        "time": 145.23348672500006,
                        "value": 0
                    },
                    {
                        "number": 64,
                        "time": 146.57684850000007,
                        "value": 1
                    },
                    {
                        "number": 64,
                        "time": 146.9027477208334,
                        "value": 0
                    },
                    {
                        "number": 64,
                        "time": 147.36782406250006,
                        "value": 1
                    },
                    {
                        "number": 64,
                        "time": 147.72830145000006,
                        "value": 0
                    },
                    {
                        "number": 64,
                        "time": 148.24178722500005,
                        "value": 1
                    },
                    {
                        "number": 64,
                        "time": 148.5599063583334,
                        "value": 0
                    },
                    {
                        "number": 64,
                        "time": 149.0422717833334,
                        "value": 1
                    },
                    {
                        "number": 64,
                        "time": 149.37768000000008,
                        "value": 0
                    },
                    {
                        "number": 64,
                        "time": 149.4572097833334,
                        "value": 1
                    },
                    {
                        "number": 64,
                        "time": 156.01668800000007,
                        "value": 0
                    },
                    {
                        "number": 64,
                        "time": 156.09016660416674,
                        "value": 1
                    },
                    {
                        "number": 64,
                        "time": 156.85261517916675,
                        "value": 0
                    },
                    {
                        "number": 64,
                        "time": 157.7300361583334,
                        "value": 1
                    },
                    {
                        "number": 64,
                        "time": 158.09656472500006,
                        "value": 0
                    },
                    {
                        "number": 64,
                        "time": 159.39583933750006,
                        "value": 1
                    },
                    {
                        "number": 64,
                        "time": 159.7606389958334,
                        "value": 0
                    },
                    {
                        "number": 64,
                        "time": 160.2352243333334,
                        "value": 1
                    },
                    {
                        "number": 64,
                        "time": 160.5931083583334,
                        "value": 0
                    },
                    {
                        "number": 64,
                        "time": 160.6553490583334,
                        "value": 1
                    },
                    {
                        "number": 64,
                        "time": 160.99594400000007,
                        "value": 0
                    },
                    {
                        "number": 64,
                        "time": 161.48436060416674,
                        "value": 1
                    },
                    {
                        "number": 64,
                        "time": 161.8379223583334,
                        "value": 0
                    },
                    {
                        "number": 64,
                        "time": 161.89929860416675,
                        "value": 1
                    },
                    {
                        "number": 64,
                        "time": 162.25199590416673,
                        "value": 0
                    },
                    {
                        "number": 64,
                        "time": 162.32633896250007,
                        "value": 1
                    },
                    {
                        "number": 64,
                        "time": 162.65569600000006,
                        "value": 0
                    },
                    {
                        "number": 64,
                        "time": 162.72917460416673,
                        "value": 1
                    },
                    {
                        "number": 64,
                        "time": 163.49162317916674,
                        "value": 0
                    },
                    {
                        "number": 64,
                        "time": 164.3690441583334,
                        "value": 1
                    },
                    {
                        "number": 64,
                        "time": 164.73557272500005,
                        "value": 0
                    },
                    {
                        "number": 64,
                        "time": 166.03484733750005,
                        "value": 1
                    },
                    {
                        "number": 64,
                        "time": 166.3996469958334,
                        "value": 0
                    },
                    {
                        "number": 64,
                        "time": 167.79055375000007,
                        "value": 1
                    },
                    {
                        "number": 64,
                        "time": 168.06285681250006,
                        "value": 0
                    },
                    {
                        "number": 64,
                        "time": 168.12336860416673,
                        "value": 1
                    },
                    {
                        "number": 64,
                        "time": 168.4769303583334,
                        "value": 0
                    },
                    {
                        "number": 64,
                        "time": 168.53830660416673,
                        "value": 1
                    },
                    {
                        "number": 64,
                        "time": 168.89100390416672,
                        "value": 0
                    },
                    {
                        "number": 64,
                        "time": 168.96534696250006,
                        "value": 1
                    },
                    {
                        "number": 64,
                        "time": 169.29816181666672,
                        "value": 0
                    },
                    {
                        "number": 64,
                        "time": 169.3500290666667,
                        "value": 1
                    },
                    {
                        "number": 64,
                        "time": 169.72260881250003,
                        "value": 0
                    },
                    {
                        "number": 64,
                        "time": 169.7831206041667,
                        "value": 1
                    },
                    {
                        "number": 64,
                        "time": 170.13668235833336,
                        "value": 0
                    },
                    {
                        "number": 64,
                        "time": 170.1980586041667,
                        "value": 1
                    },
                    {
                        "number": 64,
                        "time": 170.5507559041667,
                        "value": 0
                    },
                    {
                        "number": 64,
                        "time": 170.62509896250003,
                        "value": 1
                    },
                    {
                        "number": 64,
                        "time": 170.9579138166667,
                        "value": 0
                    },
                    {
                        "number": 64,
                        "time": 174.33879406250003,
                        "value": 1
                    },
                    {
                        "number": 64,
                        "time": 175.11248054166668,
                        "value": 0
                    },
                    {
                        "number": 64,
                        "time": 175.17299233333335,
                        "value": 1
                    },
                    {
                        "number": 64,
                        "time": 175.9423565416667,
                        "value": 0
                    },
                    {
                        "number": 64,
                        "time": 176.03139532083335,
                        "value": 1
                    },
                    {
                        "number": 64,
                        "time": 176.77482590416668,
                        "value": 0
                    },
                    {
                        "number": 64,
                        "time": 176.86127132083334,
                        "value": 1
                    },
                    {
                        "number": 64,
                        "time": 177.60556635833333,
                        "value": 0
                    },
                    {
                        "number": 64,
                        "time": 177.73004775833334,
                        "value": 1
                    },
                    {
                        "number": 64,
                        "time": 178.43717126666667,
                        "value": 0
                    },
                    {
                        "number": 64,
                        "time": 178.521887775,
                        "value": 1
                    },
                    {
                        "number": 64,
                        "time": 179.26531835833333,
                        "value": 0
                    },
                    {
                        "number": 64,
                        "time": 179.31891451666667,
                        "value": 1
                    },
                    {
                        "number": 64,
                        "time": 180.09519435833334,
                        "value": 0
                    },
                    {
                        "number": 64,
                        "time": 180.18682650000002,
                        "value": 1
                    },
                    {
                        "number": 64,
                        "time": 180.91296800000003,
                        "value": 0
                    },
                    {
                        "number": 64,
                        "time": 180.9864466041667,
                        "value": 1
                    },
                    {
                        "number": 64,
                        "time": 181.7488951791667,
                        "value": 0
                    },
                    {
                        "number": 64,
                        "time": 182.62631615833337,
                        "value": 1
                    },
                    {
                        "number": 64,
                        "time": 182.99284472500003,
                        "value": 0
                    },
                    {
                        "number": 64,
                        "time": 183.47693905833336,
                        "value": 1
                    },
                    {
                        "number": 64,
                        "time": 183.82704299583335,
                        "value": 0
                    },
                    {
                        "number": 64,
                        "time": 183.88669033333335,
                        "value": 1
                    },
                    {
                        "number": 64,
                        "time": 184.232472,
                        "value": 0
                    },
                    {
                        "number": 64,
                        "time": 184.33188422916666,
                        "value": 1
                    },
                    {
                        "number": 64,
                        "time": 184.65691899583334,
                        "value": 0
                    },
                    {
                        "number": 64,
                        "time": 184.74682222916667,
                        "value": 1
                    },
                    {
                        "number": 64,
                        "time": 185.06839917916668,
                        "value": 0
                    },
                    {
                        "number": 64,
                        "time": 185.94582015833333,
                        "value": 1
                    },
                    {
                        "number": 64,
                        "time": 186.312348725,
                        "value": 0
                    },
                    {
                        "number": 64,
                        "time": 186.79644305833332,
                        "value": 1
                    },
                    {
                        "number": 64,
                        "time": 187.14654699583332,
                        "value": 0
                    },
                    {
                        "number": 64,
                        "time": 187.20619433333331,
                        "value": 1
                    },
                    {
                        "number": 64,
                        "time": 187.55197599999997,
                        "value": 0
                    },
                    {
                        "number": 64,
                        "time": 187.65138822916663,
                        "value": 1
                    },
                    {
                        "number": 64,
                        "time": 187.9764229958333,
                        "value": 0
                    },
                    {
                        "number": 64,
                        "time": 188.06632622916663,
                        "value": 1
                    },
                    {
                        "number": 64,
                        "time": 188.38790317916664,
                        "value": 0
                    },
                    {
                        "number": 64,
                        "time": 189.2653241583333,
                        "value": 1
                    },
                    {
                        "number": 64,
                        "time": 189.63185272499996,
                        "value": 0
                    },
                    {
                        "number": 64,
                        "time": 190.1159470583333,
                        "value": 1
                    },
                    {
                        "number": 64,
                        "time": 190.46605099583329,
                        "value": 0
                    },
                    {
                        "number": 64,
                        "time": 190.52569833333328,
                        "value": 1
                    },
                    {
                        "number": 64,
                        "time": 190.87147999999993,
                        "value": 0
                    },
                    {
                        "number": 64,
                        "time": 190.9708922291666,
                        "value": 1
                    },
                    {
                        "number": 64,
                        "time": 191.29592699583327,
                        "value": 0
                    },
                    {
                        "number": 64,
                        "time": 191.3858302291666,
                        "value": 1
                    },
                    {
                        "number": 64,
                        "time": 191.7074071791666,
                        "value": 0
                    },
                    {
                        "number": 64,
                        "time": 192.58482815833327,
                        "value": 1
                    },
                    {
                        "number": 64,
                        "time": 192.95135672499993,
                        "value": 0
                    },
                    {
                        "number": 64,
                        "time": 193.43545105833326,
                        "value": 1
                    },
                    {
                        "number": 64,
                        "time": 193.78555499583325,
                        "value": 0
                    },
                    {
                        "number": 64,
                        "time": 193.84520233333325,
                        "value": 1
                    },
                    {
                        "number": 64,
                        "time": 194.1909839999999,
                        "value": 0
                    },
                    {
                        "number": 64,
                        "time": 194.29039622916656,
                        "value": 1
                    },
                    {
                        "number": 64,
                        "time": 194.61543099583324,
                        "value": 0
                    },
                    {
                        "number": 64,
                        "time": 194.70533422916657,
                        "value": 1
                    },
                    {
                        "number": 64,
                        "time": 195.02691117916658,
                        "value": 0
                    },
                    {
                        "number": 64,
                        "time": 195.90433215833323,
                        "value": 1
                    },
                    {
                        "number": 64,
                        "time": 196.2708607249999,
                        "value": 0
                    },
                    {
                        "number": 64,
                        "time": 196.75495505833322,
                        "value": 1
                    },
                    {
                        "number": 64,
                        "time": 197.10505899583322,
                        "value": 0
                    },
                    {
                        "number": 64,
                        "time": 197.1647063333332,
                        "value": 1
                    },
                    {
                        "number": 64,
                        "time": 197.51567472499988,
                        "value": 0
                    },
                    {
                        "number": 64,
                        "time": 197.59001778333322,
                        "value": 1
                    },
                    {
                        "number": 64,
                        "time": 197.93493499583323,
                        "value": 0
                    },
                    {
                        "number": 64,
                        "time": 197.99976905833324,
                        "value": 1
                    },
                    {
                        "number": 64,
                        "time": 198.3507374499999,
                        "value": 0
                    },
                    {
                        "number": 64,
                        "time": 198.40952033333323,
                        "value": 1
                    },
                    {
                        "number": 64,
                        "time": 199.17888454166658,
                        "value": 0
                    },
                    {
                        "number": 64,
                        "time": 199.23939633333325,
                        "value": 1
                    },
                    {
                        "number": 64,
                        "time": 200.01135390416658,
                        "value": 0
                    },
                    {
                        "number": 64,
                        "time": 200.08396805416658,
                        "value": 1
                    },
                    {
                        "number": 64,
                        "time": 200.4262919041666,
                        "value": 0
                    },
                    {
                        "number": 64,
                        "time": 200.48421033333327,
                        "value": 1
                    },
                    {
                        "number": 64,
                        "time": 200.83777208749993,
                        "value": 0
                    },
                    {
                        "number": 64,
                        "time": 200.89482606249993,
                        "value": 1
                    },
                    {
                        "number": 64,
                        "time": 201.25271008749993,
                        "value": 0
                    },
                    {
                        "number": 64,
                        "time": 201.31927305833327,
                        "value": 1
                    },
                    {
                        "number": 64,
                        "time": 201.67197035833325,
                        "value": 0
                    },
                    {
                        "number": 64,
                        "time": 201.73939778333326,
                        "value": 1
                    },
                    {
                        "number": 64,
                        "time": 202.49925299583327,
                        "value": 0
                    },
                    {
                        "number": 64,
                        "time": 202.5787827791666,
                        "value": 1
                    },
                    {
                        "number": 64,
                        "time": 203.32912899583326,
                        "value": 0
                    },
                    {
                        "number": 64,
                        "time": 203.39914978333326,
                        "value": 1
                    },
                    {
                        "number": 64,
                        "time": 204.1555471791666,
                        "value": 0
                    },
                    {
                        "number": 64,
                        "time": 204.22902578333327,
                        "value": 1
                    },
                    {
                        "number": 64,
                        "time": 204.99233881249992,
                        "value": 0
                    },
                    {
                        "number": 64,
                        "time": 205.0632240541666,
                        "value": 1
                    },
                    {
                        "number": 64,
                        "time": 205.81702808749992,
                        "value": 0
                    },
                    {
                        "number": 64,
                        "time": 205.88359105833325,
                        "value": 1
                    },
                    {
                        "number": 64,
                        "time": 206.64863299583325,
                        "value": 0
                    },
                    {
                        "number": 64,
                        "time": 206.71865378333325,
                        "value": 1
                    },
                    {
                        "number": 64,
                        "time": 207.4689999999999,
                        "value": 0
                    },
                    {
                        "number": 64,
                        "time": 207.67041782083325,
                        "value": 1
                    },
                    {
                        "number": 64,
                        "time": 208.30492717916658,
                        "value": 0
                    },
                    {
                        "number": 64,
                        "time": 208.34209870833325,
                        "value": 1
                    },
                    {
                        "number": 64,
                        "time": 209.1391254499999,
                        "value": 0
                    },
                    {
                        "number": 64,
                        "time": 209.20828178333323,
                        "value": 1
                    },
                    {
                        "number": 64,
                        "time": 209.5488767249999,
                        "value": 0
                    },
                    {
                        "number": 64,
                        "time": 210.03297105833323,
                        "value": 1
                    },
                    {
                        "number": 64,
                        "time": 210.38307499583323,
                        "value": 0
                    },
                    {
                        "number": 64,
                        "time": 210.44272233333322,
                        "value": 1
                    },
                    {
                        "number": 64,
                        "time": 210.81616653333322,
                        "value": 0
                    },
                    {
                        "number": 64,
                        "time": 210.8524736083332,
                        "value": 1
                    },
                    {
                        "number": 64,
                        "time": 211.21035763333322,
                        "value": 0
                    },
                    {
                        "number": 64,
                        "time": 211.2492580708332,
                        "value": 1
                    },
                    {
                        "number": 64,
                        "time": 211.6252956333332,
                        "value": 0
                    },
                    {
                        "number": 64,
                        "time": 211.6616027083332,
                        "value": 1
                    },
                    {
                        "number": 64,
                        "time": 212.04109808749985,
                        "value": 0
                    },
                    {
                        "number": 64,
                        "time": 212.0704895291665,
                        "value": 1
                    },
                    {
                        "number": 64,
                        "time": 212.44825599999984,
                        "value": 0
                    },
                    {
                        "number": 64,
                        "time": 212.6496738208332,
                        "value": 1
                    },
                    {
                        "number": 64,
                        "time": 213.28418317916652,
                        "value": 0
                    },
                    {
                        "number": 64,
                        "time": 213.3213547083332,
                        "value": 1
                    },
                    {
                        "number": 64,
                        "time": 214.11838144999984,
                        "value": 0
                    },
                    {
                        "number": 64,
                        "time": 214.18753778333317,
                        "value": 1
                    },
                    {
                        "number": 64,
                        "time": 214.52813272499984,
                        "value": 0
                    },
                    {
                        "number": 64,
                        "time": 215.01222705833317,
                        "value": 1
                    },
                    {
                        "number": 64,
                        "time": 215.36233099583316,
                        "value": 0
                    },
                    {
                        "number": 64,
                        "time": 215.42197833333316,
                        "value": 1
                    },
                    {
                        "number": 64,
                        "time": 215.79542253333315,
                        "value": 0
                    },
                    {
                        "number": 64,
                        "time": 215.83172960833315,
                        "value": 1
                    },
                    {
                        "number": 64,
                        "time": 216.18961363333315,
                        "value": 0
                    },
                    {
                        "number": 64,
                        "time": 216.22851407083314,
                        "value": 1
                    },
                    {
                        "number": 64,
                        "time": 216.60455163333313,
                        "value": 0
                    },
                    {
                        "number": 64,
                        "time": 216.64085870833313,
                        "value": 1
                    },
                    {
                        "number": 64,
                        "time": 217.02035408749978,
                        "value": 0
                    },
                    {
                        "number": 64,
                        "time": 217.04974552916644,
                        "value": 1
                    },
                    {
                        "number": 64,
                        "time": 217.42751199999978,
                        "value": 0
                    },
                    {
                        "number": 64,
                        "time": 223.34642967916645,
                        "value": 1
                    },
                    {
                        "number": 64,
                        "time": 224.07430008749978,
                        "value": 0
                    },
                    {
                        "number": 64,
                        "time": 226.66593367916644,
                        "value": 1
                    },
                    {
                        "number": 64,
                        "time": 227.39380408749977,
                        "value": 0
                    },
                    {
                        "number": 64,
                        "time": 227.47160496249978,
                        "value": 1
                    },
                    {
                        "number": 64,
                        "time": 227.82516671666644,
                        "value": 0
                    },
                    {
                        "number": 64,
                        "time": 228.30148096249977,
                        "value": 1
                    },
                    {
                        "number": 64,
                        "time": 228.65504271666643,
                        "value": 0
                    },
                    {
                        "number": 64,
                        "time": 229.13135696249975,
                        "value": 1
                    },
                    {
                        "number": 64,
                        "time": 229.4849187166664,
                        "value": 0
                    },
                    {
                        "number": 64,
                        "time": 229.9854376791664,
                        "value": 1
                    },
                    {
                        "number": 64,
                        "time": 230.71330808749974,
                        "value": 0
                    },
                    {
                        "number": 64,
                        "time": 230.79110896249975,
                        "value": 1
                    },
                    {
                        "number": 64,
                        "time": 231.1446707166664,
                        "value": 0
                    },
                    {
                        "number": 64,
                        "time": 231.62098496249973,
                        "value": 1
                    },
                    {
                        "number": 64,
                        "time": 231.9745467166664,
                        "value": 0
                    },
                    {
                        "number": 64,
                        "time": 232.45086096249972,
                        "value": 1
                    },
                    {
                        "number": 64,
                        "time": 232.80442271666638,
                        "value": 0
                    },
                    {
                        "number": 64,
                        "time": 233.30494167916638,
                        "value": 1
                    },
                    {
                        "number": 64,
                        "time": 234.0250319999997,
                        "value": 0
                    },
                    {
                        "number": 64,
                        "time": 234.13481767916636,
                        "value": 1
                    },
                    {
                        "number": 64,
                        "time": 239.0042879999997,
                        "value": 0
                    },
                    {
                        "number": 64,
                        "time": 239.11407367916635,
                        "value": 1
                    },
                    {
                        "number": 64,
                        "time": 243.5815728124997,
                        "value": 0
                    },
                    {
                        "number": 64,
                        "time": 243.66283150416638,
                        "value": 1
                    },
                    {
                        "number": 64,
                        "time": 245.6432959999997,
                        "value": 0
                    },
                    {
                        "number": 64,
                        "time": 245.70726560833305,
                        "value": 1
                    },
                    {
                        "number": 64,
                        "time": 247.3030479999997,
                        "value": 0
                    },
                    {
                        "number": 64,
                        "time": 247.3626953374997,
                        "value": 1
                    },
                    {
                        "number": 64,
                        "time": 247.4534630249997,
                        "value": 0
                    },
                    {
                        "number": 64,
                        "time": 247.7828200624997,
                        "value": 1
                    },
                    {
                        "number": 64,
                        "time": 247.8709943874997,
                        "value": 0
                    },
                    {
                        "number": 64,
                        "time": 248.20208033333304,
                        "value": 1
                    },
                    {
                        "number": 64,
                        "time": 248.27988120833305,
                        "value": 0
                    },
                    {
                        "number": 64,
                        "time": 248.61701833333305,
                        "value": 1
                    },
                    {
                        "number": 64,
                        "time": 248.69741257083305,
                        "value": 0
                    },
                    {
                        "number": 64,
                        "time": 248.96279999999973,
                        "value": 0
                    },
                    {
                        "number": 64,
                        "time": 249.02676960833307,
                        "value": 1
                    },
                    {
                        "number": 64,
                        "time": 250.62255199999973,
                        "value": 0
                    },
                    {
                        "number": 64,
                        "time": 250.68219933749972,
                        "value": 1
                    },
                    {
                        "number": 64,
                        "time": 250.77296702499973,
                        "value": 0
                    },
                    {
                        "number": 64,
                        "time": 251.10232406249972,
                        "value": 1
                    },
                    {
                        "number": 64,
                        "time": 251.19049838749973,
                        "value": 0
                    },
                    {
                        "number": 64,
                        "time": 251.52158433333307,
                        "value": 1
                    },
                    {
                        "number": 64,
                        "time": 251.59938520833308,
                        "value": 0
                    },
                    {
                        "number": 64,
                        "time": 251.93652233333307,
                        "value": 1
                    },
                    {
                        "number": 64,
                        "time": 252.01691657083308,
                        "value": 0
                    },
                    {
                        "number": 64,
                        "time": 252.32206889166642,
                        "value": 1
                    },
                    {
                        "number": 64,
                        "time": 252.8545726583331,
                        "value": 0
                    },
                    {
                        "number": 64,
                        "time": 253.1917097833331,
                        "value": 1
                    },
                    {
                        "number": 64,
                        "time": 253.68271974999976,
                        "value": 0
                    },
                    {
                        "number": 64,
                        "time": 254.00170333749978,
                        "value": 1
                    },
                    {
                        "number": 64,
                        "time": 254.52037583749978,
                        "value": 0
                    },
                    {
                        "number": 64,
                        "time": 254.86615750416644,
                        "value": 1
                    },
                    {
                        "number": 64,
                        "time": 255.19983681249977,
                        "value": 0
                    },
                    {
                        "number": 64,
                        "time": 255.2663997833331,
                        "value": 1
                    },
                    {
                        "number": 64,
                        "time": 255.60180799999978,
                        "value": 0
                    },
                    {
                        "number": 64,
                        "time": 255.6476240708331,
                        "value": 1
                    },
                    {
                        "number": 64,
                        "time": 256.1740766583331,
                        "value": 0
                    },
                    {
                        "number": 64,
                        "time": 256.5112137833331,
                        "value": 1
                    },
                    {
                        "number": 64,
                        "time": 257.00222374999976,
                        "value": 0
                    },
                    {
                        "number": 64,
                        "time": 257.32120733749974,
                        "value": 1
                    },
                    {
                        "number": 64,
                        "time": 257.8398798374997,
                        "value": 0
                    },
                    {
                        "number": 64,
                        "time": 258.1856615041664,
                        "value": 1
                    },
                    {
                        "number": 64,
                        "time": 258.5193408124997,
                        "value": 0
                    },
                    {
                        "number": 64,
                        "time": 258.58590378333304,
                        "value": 1
                    },
                    {
                        "number": 64,
                        "time": 258.9213119999997,
                        "value": 0
                    },
                    {
                        "number": 64,
                        "time": 258.96712807083304,
                        "value": 1
                    },
                    {
                        "number": 64,
                        "time": 259.49358065833303,
                        "value": 0
                    },
                    {
                        "number": 64,
                        "time": 259.83071778333306,
                        "value": 1
                    },
                    {
                        "number": 64,
                        "time": 260.3217277499997,
                        "value": 0
                    },
                    {
                        "number": 64,
                        "time": 260.6407113374997,
                        "value": 1
                    },
                    {
                        "number": 64,
                        "time": 261.15938383749966,
                        "value": 0
                    },
                    {
                        "number": 64,
                        "time": 261.5051655041663,
                        "value": 1
                    },
                    {
                        "number": 64,
                        "time": 261.83884481249964,
                        "value": 0
                    },
                    {
                        "number": 64,
                        "time": 261.905407783333,
                        "value": 1
                    },
                    {
                        "number": 64,
                        "time": 262.24081599999965,
                        "value": 0
                    },
                    {
                        "number": 64,
                        "time": 262.30046333749965,
                        "value": 1
                    },
                    {
                        "number": 64,
                        "time": 262.81913583749963,
                        "value": 0
                    },
                    {
                        "number": 64,
                        "time": 263.1649175041663,
                        "value": 1
                    },
                    {
                        "number": 64,
                        "time": 263.64123174999963,
                        "value": 0
                    },
                    {
                        "number": 64,
                        "time": 263.9602153374996,
                        "value": 1
                    },
                    {
                        "number": 64,
                        "time": 264.4788878374996,
                        "value": 0
                    },
                    {
                        "number": 64,
                        "time": 264.82466950416625,
                        "value": 1
                    },
                    {
                        "number": 64,
                        "time": 265.1583488124996,
                        "value": 0
                    },
                    {
                        "number": 64,
                        "time": 265.2249117833329,
                        "value": 1
                    },
                    {
                        "number": 64,
                        "time": 265.5603199999996,
                        "value": 0
                    },
                    {
                        "number": 64,
                        "time": 265.6199673374996,
                        "value": 1
                    },
                    {
                        "number": 64,
                        "time": 266.13863983749957,
                        "value": 0
                    },
                    {
                        "number": 64,
                        "time": 266.4844215041662,
                        "value": 1
                    },
                    {
                        "number": 64,
                        "time": 266.96073574999957,
                        "value": 0
                    },
                    {
                        "number": 64,
                        "time": 267.22007199999956,
                        "value": 0
                    },
                    {
                        "number": 64,
                        "time": 267.27971933749956,
                        "value": 1
                    },
                    {
                        "number": 64,
                        "time": 267.79839183749954,
                        "value": 0
                    },
                    {
                        "number": 64,
                        "time": 268.1441735041662,
                        "value": 1
                    },
                    {
                        "number": 64,
                        "time": 268.62048774999954,
                        "value": 0
                    },
                    {
                        "number": 64,
                        "time": 268.87982399999953,
                        "value": 0
                    },
                    {
                        "number": 64,
                        "time": 268.9394713374995,
                        "value": 1
                    },
                    {
                        "number": 64,
                        "time": 269.4581438374995,
                        "value": 0
                    },
                    {
                        "number": 64,
                        "time": 269.80392550416616,
                        "value": 1
                    },
                    {
                        "number": 64,
                        "time": 270.2802397499995,
                        "value": 0
                    },
                    {
                        "number": 64,
                        "time": 270.5395759999995,
                        "value": 0
                    },
                    {
                        "number": 64,
                        "time": 270.5992233374995,
                        "value": 1
                    },
                    {
                        "number": 64,
                        "time": 271.1178958374995,
                        "value": 0
                    },
                    {
                        "number": 64,
                        "time": 271.4636775041661,
                        "value": 1
                    },
                    {
                        "number": 64,
                        "time": 271.9399917499995,
                        "value": 0
                    },
                    {
                        "number": 64,
                        "time": 272.20537917916613,
                        "value": 0
                    },
                    {
                        "number": 64,
                        "time": 272.2788577833328,
                        "value": 1
                    },
                    {
                        "number": 64,
                        "time": 273.0421708124995,
                        "value": 0
                    },
                    {
                        "number": 64,
                        "time": 273.1130560541661,
                        "value": 1
                    },
                    {
                        "number": 64,
                        "time": 273.8651311791661,
                        "value": 0
                    },
                    {
                        "number": 64,
                        "time": 273.93860978333277,
                        "value": 1
                    },
                    {
                        "number": 64,
                        "time": 274.70192281249945,
                        "value": 0
                    },
                    {
                        "number": 64,
                        "time": 274.7728080541661,
                        "value": 1
                    },
                    {
                        "number": 64,
                        "time": 275.52488317916607,
                        "value": 0
                    },
                    {
                        "number": 64,
                        "time": 275.59836178333273,
                        "value": 1
                    },
                    {
                        "number": 64,
                        "time": 276.3616748124994,
                        "value": 0
                    },
                    {
                        "number": 64,
                        "time": 276.43256005416606,
                        "value": 1
                    },
                    {
                        "number": 64,
                        "time": 277.18463517916604,
                        "value": 0
                    },
                    {
                        "number": 64,
                        "time": 277.2581137833327,
                        "value": 1
                    },
                    {
                        "number": 64,
                        "time": 278.0214268124994,
                        "value": 0
                    },
                    {
                        "number": 64,
                        "time": 278.09231205416603,
                        "value": 1
                    },
                    {
                        "number": 64,
                        "time": 278.84957390416605,
                        "value": 0
                    },
                    {
                        "number": 64,
                        "time": 278.9334259583327,
                        "value": 1
                    },
                    {
                        "number": 64,
                        "time": 279.2601896333327,
                        "value": 0
                    },
                    {
                        "number": 64,
                        "time": 279.3276170583327,
                        "value": 1
                    },
                    {
                        "number": 64,
                        "time": 279.6751276333327,
                        "value": 0
                    },
                    {
                        "number": 64,
                        "time": 279.7425550583327,
                        "value": 1
                    },
                    {
                        "number": 64,
                        "time": 280.0909300874994,
                        "value": 0
                    },
                    {
                        "number": 64,
                        "time": 280.1574930583327,
                        "value": 1
                    },
                    {
                        "number": 64,
                        "time": 280.49808799999937,
                        "value": 0
                    },
                    {
                        "number": 64,
                        "time": 280.95279089166604,
                        "value": 1
                    },
                    {
                        "number": 64,
                        "time": 281.33315072499937,
                        "value": 0
                    },
                    {
                        "number": 64,
                        "time": 282.6765124999994,
                        "value": 1
                    },
                    {
                        "number": 64,
                        "time": 283.0024117208327,
                        "value": 0
                    },
                    {
                        "number": 64,
                        "time": 283.46748806249934,
                        "value": 1
                    },
                    {
                        "number": 64,
                        "time": 283.82796544999934,
                        "value": 0
                    },
                    {
                        "number": 64,
                        "time": 284.34145122499933,
                        "value": 1
                    },
                    {
                        "number": 64,
                        "time": 284.65957035833264,
                        "value": 0
                    },
                    {
                        "number": 64,
                        "time": 285.14193578333266,
                        "value": 1
                    },
                    {
                        "number": 64,
                        "time": 285.483395179166,
                        "value": 0
                    },
                    {
                        "number": 64,
                        "time": 285.55687378333266,
                        "value": 1
                    },
                    {
                        "number": 64,
                        "time": 286.32018681249934,
                        "value": 0
                    },
                    {
                        "number": 64,
                        "time": 286.391072054166,
                        "value": 1
                    },
                    {
                        "number": 64,
                        "time": 287.14314717916596,
                        "value": 0
                    },
                    {
                        "number": 64,
                        "time": 287.21662578333263,
                        "value": 1
                    },
                    {
                        "number": 64,
                        "time": 287.9799388124993,
                        "value": 0
                    },
                    {
                        "number": 64,
                        "time": 288.05082405416596,
                        "value": 1
                    },
                    {
                        "number": 64,
                        "time": 288.80289917916593,
                        "value": 0
                    },
                    {
                        "number": 64,
                        "time": 288.8763777833326,
                        "value": 1
                    },
                    {
                        "number": 64,
                        "time": 289.6396908124993,
                        "value": 0
                    },
                    {
                        "number": 64,
                        "time": 289.7105760541659,
                        "value": 1
                    },
                    {
                        "number": 64,
                        "time": 290.4626511791659,
                        "value": 0
                    },
                    {
                        "number": 64,
                        "time": 290.53612978333257,
                        "value": 1
                    },
                    {
                        "number": 64,
                        "time": 291.29944281249925,
                        "value": 0
                    },
                    {
                        "number": 64,
                        "time": 291.3703280541659,
                        "value": 1
                    },
                    {
                        "number": 64,
                        "time": 292.1224031791659,
                        "value": 0
                    },
                    {
                        "number": 64,
                        "time": 292.19588178333254,
                        "value": 1
                    },
                    {
                        "number": 64,
                        "time": 292.9522791791659,
                        "value": 0
                    },
                    {
                        "number": 64,
                        "time": 293.02575778333255,
                        "value": 1
                    },
                    {
                        "number": 64,
                        "time": 293.7821551791659,
                        "value": 0
                    },
                    {
                        "number": 64,
                        "time": 293.85563378333256,
                        "value": 1
                    },
                    {
                        "number": 64,
                        "time": 294.6120311791659,
                        "value": 0
                    },
                    {
                        "number": 64,
                        "time": 294.6855097833326,
                        "value": 1
                    },
                    {
                        "number": 64,
                        "time": 295.4419071791659,
                        "value": 0
                    },
                    {
                        "number": 64,
                        "time": 295.5153857833326,
                        "value": 1
                    },
                    {
                        "number": 64,
                        "time": 296.2786988124993,
                        "value": 0
                    },
                    {
                        "number": 64,
                        "time": 296.3495840541659,
                        "value": 1
                    },
                    {
                        "number": 64,
                        "time": 297.1085748124992,
                        "value": 0
                    },
                    {
                        "number": 64,
                        "time": 297.1794600541659,
                        "value": 1
                    },
                    {
                        "number": 64,
                        "time": 298.76659790416585,
                        "value": 0
                    },
                    {
                        "number": 64,
                        "time": 298.8504499583325,
                        "value": 1
                    },
                    {
                        "number": 64,
                        "time": 299.1772136333325,
                        "value": 0
                    },
                    {
                        "number": 64,
                        "time": 299.2446410583325,
                        "value": 1
                    },
                    {
                        "number": 64,
                        "time": 299.5921516333325,
                        "value": 0
                    },
                    {
                        "number": 64,
                        "time": 299.6595790583325,
                        "value": 1
                    },
                    {
                        "number": 64,
                        "time": 300.0079540874992,
                        "value": 0
                    },
                    {
                        "number": 64,
                        "time": 300.0745170583325,
                        "value": 1
                    },
                    {
                        "number": 64,
                        "time": 300.41511199999917,
                        "value": 0
                    },
                    {
                        "number": 64,
                        "time": 300.86981489166584,
                        "value": 1
                    },
                    {
                        "number": 64,
                        "time": 301.25017472499917,
                        "value": 0
                    },
                    {
                        "number": 64,
                        "time": 302.5935364999992,
                        "value": 1
                    },
                    {
                        "number": 64,
                        "time": 302.9194357208325,
                        "value": 0
                    },
                    {
                        "number": 64,
                        "time": 303.38451206249914,
                        "value": 1
                    },
                    {
                        "number": 64,
                        "time": 303.74498944999914,
                        "value": 0
                    },
                    {
                        "number": 64,
                        "time": 304.25847522499913,
                        "value": 1
                    },
                    {
                        "number": 64,
                        "time": 304.57659435833244,
                        "value": 0
                    },
                    {
                        "number": 64,
                        "time": 305.05895978333245,
                        "value": 1
                    },
                    {
                        "number": 64,
                        "time": 305.39436799999913,
                        "value": 0
                    },
                    {
                        "number": 64,
                        "time": 305.47389778333246,
                        "value": 1
                    },
                    {
                        "number": 64,
                        "time": 312.0333759999991,
                        "value": 0
                    },
                    {
                        "number": 64,
                        "time": 312.18033320833246,
                        "value": 1
                    },
                    {
                        "number": 64,
                        "time": 312.8693031791658,
                        "value": 0
                    },
                    {
                        "number": 64,
                        "time": 312.9669864999991,
                        "value": 1
                    },
                    {
                        "number": 64,
                        "time": 313.6931279999991,
                        "value": 0
                    },
                    {
                        "number": 64,
                        "time": 313.79686249999907,
                        "value": 1
                    },
                    {
                        "number": 64,
                        "time": 314.11584608749905,
                        "value": 0
                    },
                    {
                        "number": 64,
                        "time": 314.2057493208324,
                        "value": 1
                    },
                    {
                        "number": 64,
                        "time": 314.39506478333243,
                        "value": 0
                    },
                    {
                        "number": 64,
                        "time": 314.57660015833244,
                        "value": 1
                    },
                    {
                        "number": 64,
                        "time": 314.9457220874991,
                        "value": 0
                    },
                    {
                        "number": 64,
                        "time": 315.0356253208325,
                        "value": 1
                    },
                    {
                        "number": 64,
                        "time": 315.2249407833325,
                        "value": 0
                    },
                    {
                        "number": 64,
                        "time": 315.4064761583325,
                        "value": 1
                    },
                    {
                        "number": 64,
                        "time": 315.7755980874992,
                        "value": 0
                    },
                    {
                        "number": 64,
                        "time": 315.86550132083255,
                        "value": 1
                    },
                    {
                        "number": 64,
                        "time": 316.05481678333257,
                        "value": 0
                    },
                    {
                        "number": 64,
                        "time": 316.18275599999924,
                        "value": 1
                    },
                    {
                        "number": 64,
                        "time": 317.01263199999926,
                        "value": 0
                    },
                    {
                        "number": 64,
                        "time": 317.11636649999923,
                        "value": 1
                    },
                    {
                        "number": 64,
                        "time": 317.4353500874992,
                        "value": 0
                    },
                    {
                        "number": 64,
                        "time": 317.5252533208326,
                        "value": 1
                    },
                    {
                        "number": 64,
                        "time": 317.7145687833326,
                        "value": 0
                    },
                    {
                        "number": 64,
                        "time": 317.8961041583326,
                        "value": 1
                    },
                    {
                        "number": 64,
                        "time": 318.2652260874993,
                        "value": 0
                    },
                    {
                        "number": 64,
                        "time": 318.35512932083265,
                        "value": 1
                    },
                    {
                        "number": 64,
                        "time": 318.54444478333266,
                        "value": 0
                    },
                    {
                        "number": 64,
                        "time": 318.7259801583327,
                        "value": 1
                    },
                    {
                        "number": 64,
                        "time": 319.09510208749936,
                        "value": 0
                    },
                    {
                        "number": 64,
                        "time": 319.1850053208327,
                        "value": 1
                    },
                    {
                        "number": 64,
                        "time": 319.37432078333273,
                        "value": 0
                    },
                    {
                        "number": 64,
                        "time": 319.5022599999994,
                        "value": 1
                    },
                    {
                        "number": 64,
                        "time": 320.3321359999994,
                        "value": 0
                    },
                    {
                        "number": 64,
                        "time": 320.4358704999994,
                        "value": 1
                    },
                    {
                        "number": 64,
                        "time": 320.7548540874994,
                        "value": 0
                    },
                    {
                        "number": 64,
                        "time": 320.84475732083274,
                        "value": 1
                    },
                    {
                        "number": 64,
                        "time": 321.03407278333276,
                        "value": 0
                    },
                    {
                        "number": 64,
                        "time": 322.8762246124994,
                        "value": 1
                    },
                    {
                        "number": 64,
                        "time": 323.6516399999994,
                        "value": 0
                    },
                    {
                        "number": 64,
                        "time": 323.8591089999994,
                        "value": 1
                    },
                    {
                        "number": 64,
                        "time": 324.07435808749943,
                        "value": 0
                    },
                    {
                        "number": 64,
                        "time": 324.1642613208328,
                        "value": 1
                    },
                    {
                        "number": 64,
                        "time": 324.3535767833328,
                        "value": 0
                    },
                    {
                        "number": 64,
                        "time": 325.3113919999995,
                        "value": 1
                    },
                    {
                        "number": 64,
                        "time": 326.1473191791662,
                        "value": 0
                    },
                    {
                        "number": 64,
                        "time": 326.2450024999995,
                        "value": 1
                    },
                    {
                        "number": 64,
                        "time": 326.97114399999947,
                        "value": 0
                    },
                    {
                        "number": 64,
                        "time": 327.07487849999944,
                        "value": 1
                    },
                    {
                        "number": 64,
                        "time": 327.39386208749943,
                        "value": 0
                    },
                    {
                        "number": 64,
                        "time": 327.4837653208328,
                        "value": 1
                    },
                    {
                        "number": 64,
                        "time": 327.6730807833328,
                        "value": 0
                    },
                    {
                        "number": 64,
                        "time": 327.8546161583328,
                        "value": 1
                    },
                    {
                        "number": 64,
                        "time": 328.2237380874995,
                        "value": 0
                    },
                    {
                        "number": 64,
                        "time": 328.31364132083286,
                        "value": 1
                    },
                    {
                        "number": 64,
                        "time": 328.5029567833329,
                        "value": 0
                    },
                    {
                        "number": 64,
                        "time": 328.6844921583329,
                        "value": 1
                    },
                    {
                        "number": 64,
                        "time": 329.05361408749957,
                        "value": 0
                    },
                    {
                        "number": 64,
                        "time": 329.1435173208329,
                        "value": 1
                    },
                    {
                        "number": 64,
                        "time": 329.33283278333295,
                        "value": 0
                    },
                    {
                        "number": 64,
                        "time": 329.4607719999996,
                        "value": 1
                    },
                    {
                        "number": 64,
                        "time": 330.29064799999963,
                        "value": 0
                    },
                    {
                        "number": 64,
                        "time": 330.3943824999996,
                        "value": 1
                    },
                    {
                        "number": 64,
                        "time": 330.7133660874996,
                        "value": 0
                    },
                    {
                        "number": 64,
                        "time": 330.80326932083295,
                        "value": 1
                    },
                    {
                        "number": 64,
                        "time": 330.992584783333,
                        "value": 0
                    },
                    {
                        "number": 64,
                        "time": 331.174120158333,
                        "value": 1
                    },
                    {
                        "number": 64,
                        "time": 331.54324208749966,
                        "value": 0
                    },
                    {
                        "number": 64,
                        "time": 331.633145320833,
                        "value": 1
                    },
                    {
                        "number": 64,
                        "time": 331.82246078333304,
                        "value": 0
                    },
                    {
                        "number": 64,
                        "time": 332.00399615833305,
                        "value": 1
                    },
                    {
                        "number": 64,
                        "time": 332.37311808749973,
                        "value": 0
                    },
                    {
                        "number": 64,
                        "time": 332.4630213208331,
                        "value": 1
                    },
                    {
                        "number": 64,
                        "time": 332.6523367833331,
                        "value": 0
                    },
                    {
                        "number": 64,
                        "time": 332.7802759999998,
                        "value": 1
                    },
                    {
                        "number": 64,
                        "time": 333.6101519999998,
                        "value": 0
                    },
                    {
                        "number": 64,
                        "time": 333.7138864999998,
                        "value": 1
                    },
                    {
                        "number": 64,
                        "time": 334.03287008749976,
                        "value": 0
                    },
                    {
                        "number": 64,
                        "time": 334.1227733208331,
                        "value": 1
                    },
                    {
                        "number": 64,
                        "time": 334.31208878333314,
                        "value": 0
                    },
                    {
                        "number": 64,
                        "time": 334.5290667791665,
                        "value": 1
                    },
                    {
                        "number": 64,
                        "time": 334.8679328124998,
                        "value": 0
                    },
                    {
                        "number": 64,
                        "time": 334.93449578333315,
                        "value": 1
                    },
                    {
                        "number": 64,
                        "time": 335.2724973624998,
                        "value": 0
                    },
                    {
                        "number": 64,
                        "time": 335.4531682833331,
                        "value": 1
                    },
                    {
                        "number": 64,
                        "time": 336.1032378166665,
                        "value": 0
                    },
                    {
                        "number": 64,
                        "time": 336.2138879499998,
                        "value": 1
                    },
                    {
                        "number": 64,
                        "time": 336.9296559999998,
                        "value": 0
                    },
                    {
                        "number": 64,
                        "time": 337.03339049999977,
                        "value": 1
                    },
                    {
                        "number": 64,
                        "time": 337.35237408749975,
                        "value": 0
                    },
                    {
                        "number": 64,
                        "time": 337.4422773208331,
                        "value": 1
                    },
                    {
                        "number": 64,
                        "time": 337.63159278333313,
                        "value": 0
                    },
                    {
                        "number": 64,
                        "time": 338.6585643333331,
                        "value": 1
                    },
                    {
                        "number": 64,
                        "time": 339.0138549958331,
                        "value": 0
                    },
                    {
                        "number": 64,
                        "time": 339.0786890583331,
                        "value": 1
                    },
                    {
                        "number": 64,
                        "time": 339.4322508124998,
                        "value": 0
                    },
                    {
                        "number": 64,
                        "time": 339.50832277916646,
                        "value": 1
                    },
                    {
                        "number": 64,
                        "time": 339.84373099583314,
                        "value": 0
                    },
                    {
                        "number": 64,
                        "time": 340.28373816666647,
                        "value": 1
                    },
                    {
                        "number": 64,
                        "time": 340.6727425416665,
                        "value": 0
                    },
                    {
                        "number": 64,
                        "time": 341.97806833333317,
                        "value": 1
                    },
                    {
                        "number": 64,
                        "time": 342.3333589958332,
                        "value": 0
                    },
                    {
                        "number": 64,
                        "time": 342.39819305833316,
                        "value": 1
                    },
                    {
                        "number": 64,
                        "time": 342.7517548124998,
                        "value": 0
                    },
                    {
                        "number": 64,
                        "time": 342.8278267791665,
                        "value": 1
                    },
                    {
                        "number": 64,
                        "time": 343.1632349958332,
                        "value": 0
                    },
                    {
                        "number": 64,
                        "time": 343.6032421666665,
                        "value": 1
                    },
                    {
                        "number": 64,
                        "time": 343.99224654166653,
                        "value": 0
                    },
                    {
                        "number": 64,
                        "time": 345.2586718958332,
                        "value": 1
                    },
                    {
                        "number": 64,
                        "time": 345.6528629958332,
                        "value": 0
                    },
                    {
                        "number": 64,
                        "time": 347.3869580541665,
                        "value": 1
                    },
                    {
                        "number": 64,
                        "time": 347.72323072499984,
                        "value": 0
                    },
                    {
                        "number": 64,
                        "time": 347.8018960541665,
                        "value": 1
                    },
                    {
                        "number": 64,
                        "time": 348.1459488124998,
                        "value": 0
                    },
                    {
                        "number": 64,
                        "time": 348.2220207791665,
                        "value": 1
                    },
                    {
                        "number": 64,
                        "time": 348.5479199999998,
                        "value": 0
                    },
                    {
                        "number": 64,
                        "time": 348.6620279499998,
                        "value": 1
                    },
                    {
                        "number": 64,
                        "time": 349.3864405416665,
                        "value": 0
                    },
                    {
                        "number": 64,
                        "time": 349.4668347791665,
                        "value": 1
                    },
                    {
                        "number": 64,
                        "time": 350.20767199999983,
                        "value": 0
                    },
                    {
                        "number": 64,
                        "time": 350.2768283333332,
                        "value": 1
                    },
                    {
                        "number": 64,
                        "time": 350.6321189958332,
                        "value": 0
                    },
                    {
                        "number": 64,
                        "time": 350.6969530583332,
                        "value": 1
                    },
                    {
                        "number": 64,
                        "time": 351.05051481249984,
                        "value": 0
                    },
                    {
                        "number": 64,
                        "time": 351.12658677916653,
                        "value": 1
                    },
                    {
                        "number": 64,
                        "time": 351.4619949958332,
                        "value": 0
                    },
                    {
                        "number": 64,
                        "time": 351.90200216666653,
                        "value": 1
                    },
                    {
                        "number": 64,
                        "time": 352.29100654166655,
                        "value": 0
                    },
                    {
                        "number": 64,
                        "time": 353.5271759999999,
                        "value": 0
                    },
                    {
                        "number": 64,
                        "time": 353.59633233333324,
                        "value": 1
                    },
                    {
                        "number": 64,
                        "time": 353.95162299583325,
                        "value": 0
                    },
                    {
                        "number": 64,
                        "time": 354.01645705833323,
                        "value": 1
                    },
                    {
                        "number": 64,
                        "time": 354.3700188124999,
                        "value": 0
                    },
                    {
                        "number": 64,
                        "time": 354.4460907791666,
                        "value": 1
                    },
                    {
                        "number": 64,
                        "time": 354.78149899583326,
                        "value": 0
                    },
                    {
                        "number": 64,
                        "time": 355.2215061666666,
                        "value": 1
                    },
                    {
                        "number": 64,
                        "time": 355.6105105416666,
                        "value": 0
                    },
                    {
                        "number": 64,
                        "time": 356.87693589583324,
                        "value": 1
                    },
                    {
                        "number": 64,
                        "time": 357.27112699583324,
                        "value": 0
                    },
                    {
                        "number": 64,
                        "time": 359.00522205416655,
                        "value": 1
                    },
                    {
                        "number": 64,
                        "time": 359.3414947249999,
                        "value": 0
                    },
                    {
                        "number": 64,
                        "time": 359.42016005416656,
                        "value": 1
                    },
                    {
                        "number": 64,
                        "time": 359.76421281249986,
                        "value": 0
                    },
                    {
                        "number": 64,
                        "time": 359.84028477916655,
                        "value": 1
                    },
                    {
                        "number": 64,
                        "time": 360.1661839999999,
                        "value": 0
                    },
                    {
                        "number": 64,
                        "time": 360.2802919499999,
                        "value": 1
                    },
                    {
                        "number": 64,
                        "time": 361.00470454166657,
                        "value": 0
                    },
                    {
                        "number": 64,
                        "time": 361.0850987791666,
                        "value": 1
                    },
                    {
                        "number": 64,
                        "time": 361.8259359999999,
                        "value": 0
                    },
                    {
                        "number": 64,
                        "time": 362.70076361666656,
                        "value": 1
                    },
                    {
                        "number": 64,
                        "time": 363.4856879999999,
                        "value": 0
                    },
                    {
                        "number": 64,
                        "time": 363.5894224999999,
                        "value": 1
                    },
                    {
                        "number": 64,
                        "time": 363.9084060874999,
                        "value": 0
                    },
                    {
                        "number": 64,
                        "time": 363.99830932083324,
                        "value": 1
                    },
                    {
                        "number": 64,
                        "time": 364.18762478333326,
                        "value": 0
                    },
                    {
                        "number": 64,
                        "time": 365.17050917083327,
                        "value": 1
                    },
                    {
                        "number": 64,
                        "time": 365.56988699583326,
                        "value": 0
                    },
                    {
                        "number": 64,
                        "time": 365.6442300541666,
                        "value": 1
                    },
                    {
                        "number": 64,
                        "time": 365.98482499583326,
                        "value": 0
                    },
                    {
                        "number": 64,
                        "time": 366.8354478958333,
                        "value": 1
                    },
                    {
                        "number": 64,
                        "time": 367.2296389958333,
                        "value": 0
                    },
                    {
                        "number": 64,
                        "time": 367.3091687791666,
                        "value": 1
                    },
                    {
                        "number": 64,
                        "time": 367.4232767291666,
                        "value": 0
                    },
                    {
                        "number": 64,
                        "time": 368.46494399999995,
                        "value": 0
                    },
                    {
                        "number": 64,
                        "time": 373.8893938958333,
                        "value": 1
                    },
                    {
                        "number": 64,
                        "time": 374.28099163333326,
                        "value": 0
                    },
                    {
                        "number": 64,
                        "time": 374.3881839499999,
                        "value": 1
                    },
                    {
                        "number": 64,
                        "time": 374.7002519041666,
                        "value": 0
                    },
                    {
                        "number": 64,
                        "time": 374.77286605416657,
                        "value": 1
                    },
                    {
                        "number": 64,
                        "time": 375.1039519999999,
                        "value": 0
                    },
                    {
                        "number": 64,
                        "time": 375.97877961666654,
                        "value": 1
                    },
                    {
                        "number": 64,
                        "time": 376.7637039999999,
                        "value": 0
                    },
                    {
                        "number": 64,
                        "time": 376.8674384999999,
                        "value": 1
                    },
                    {
                        "number": 64,
                        "time": 377.18642208749986,
                        "value": 0
                    },
                    {
                        "number": 64,
                        "time": 377.2763253208332,
                        "value": 1
                    },
                    {
                        "number": 64,
                        "time": 377.46564078333324,
                        "value": 0
                    },
                    {
                        "number": 64,
                        "time": 378.44852517083325,
                        "value": 1
                    },
                    {
                        "number": 64,
                        "time": 378.84790299583324,
                        "value": 0
                    },
                    {
                        "number": 64,
                        "time": 378.9222460541666,
                        "value": 1
                    },
                    {
                        "number": 64,
                        "time": 379.26284099583324,
                        "value": 0
                    },
                    {
                        "number": 64,
                        "time": 380.11346389583326,
                        "value": 1
                    },
                    {
                        "number": 64,
                        "time": 380.50765499583326,
                        "value": 0
                    },
                    {
                        "number": 64,
                        "time": 380.5871847791666,
                        "value": 1
                    },
                    {
                        "number": 64,
                        "time": 380.7012927291666,
                        "value": 0
                    },
                    {
                        "number": 64,
                        "time": 381.7429599999999,
                        "value": 0
                    },
                    {
                        "number": 64,
                        "time": 386.7360472666666,
                        "value": 1
                    },
                    {
                        "number": 64,
                        "time": 386.9409229041666,
                        "value": 0
                    },
                    {
                        "number": 64,
                        "time": 387.1622231708333,
                        "value": 1
                    },
                    {
                        "number": 64,
                        "time": 387.56505881249996,
                        "value": 0
                    },
                    {
                        "number": 64,
                        "time": 387.60395924999995,
                        "value": 1
                    },
                    {
                        "number": 64,
                        "time": 387.97221672499995,
                        "value": 0
                    },
                    {
                        "number": 64,
                        "time": 388.01630388749993,
                        "value": 1
                    },
                    {
                        "number": 64,
                        "time": 388.3819679999999,
                        "value": 0
                    },
                    {
                        "number": 64,
                        "time": 388.45285324166656,
                        "value": 1
                    },
                    {
                        "number": 64,
                        "time": 388.66032224166656,
                        "value": 0
                    },
                    {
                        "number": 64,
                        "time": 388.81073726666654,
                        "value": 1
                    },
                    {
                        "number": 64,
                        "time": 389.2196240874999,
                        "value": 0
                    },
                    {
                        "number": 64,
                        "time": 389.2611178874999,
                        "value": 1
                    },
                    {
                        "number": 64,
                        "time": 389.6388843583332,
                        "value": 0
                    },
                    {
                        "number": 64,
                        "time": 389.6812426124999,
                        "value": 1
                    },
                    {
                        "number": 64,
                        "time": 390.0417199999999,
                        "value": 0
                    },
                    {
                        "number": 64,
                        "time": 390.10223179166655,
                        "value": 1
                    },
                    {
                        "number": 64,
                        "time": 390.2794448958332,
                        "value": 0
                    },
                    {
                        "number": 64,
                        "time": 390.4946939833332,
                        "value": 1
                    },
                    {
                        "number": 64,
                        "time": 390.87851163333323,
                        "value": 0
                    },
                    {
                        "number": 64,
                        "time": 390.9208698874999,
                        "value": 1
                    },
                    {
                        "number": 64,
                        "time": 391.29690744999994,
                        "value": 0
                    },
                    {
                        "number": 64,
                        "time": 391.3409946124999,
                        "value": 1
                    },
                    {
                        "number": 64,
                        "time": 391.7057942708332,
                        "value": 0
                    },
                    {
                        "number": 64,
                        "time": 391.7619837916666,
                        "value": 1
                    },
                    {
                        "number": 64,
                        "time": 391.93141680833327,
                        "value": 0
                    },
                    {
                        "number": 64,
                        "time": 392.14925925833325,
                        "value": 1
                    },
                    {
                        "number": 64,
                        "time": 392.53912808749993,
                        "value": 0
                    },
                    {
                        "number": 64,
                        "time": 392.5780285249999,
                        "value": 1
                    },
                    {
                        "number": 64,
                        "time": 392.95320163333326,
                        "value": 0
                    },
                    {
                        "number": 64,
                        "time": 393.0042044291666,
                        "value": 1
                    },
                    {
                        "number": 64,
                        "time": 393.36122399999994,
                        "value": 0
                    },
                    {
                        "number": 64,
                        "time": 393.87384532083325,
                        "value": 1
                    },
                    {
                        "number": 64,
                        "time": 394.2023379041666,
                        "value": 0
                    },
                    {
                        "number": 64,
                        "time": 394.27668096249994,
                        "value": 1
                    },
                    {
                        "number": 64,
                        "time": 394.6181403583333,
                        "value": 0
                    },
                    {
                        "number": 64,
                        "time": 394.70372132083327,
                        "value": 1
                    },
                    {
                        "number": 64,
                        "time": 395.0252982708333,
                        "value": 0
                    },
                    {
                        "number": 64,
                        "time": 395.1307616791666,
                        "value": 1
                    },
                    {
                        "number": 64,
                        "time": 395.4480163583333,
                        "value": 0
                    },
                    {
                        "number": 64,
                        "time": 395.5456996791666,
                        "value": 1
                    },
                    {
                        "number": 64,
                        "time": 395.8638188124999,
                        "value": 0
                    },
                    {
                        "number": 64,
                        "time": 395.9545864999999,
                        "value": 1
                    },
                    {
                        "number": 64,
                        "time": 396.2761634499999,
                        "value": 0
                    },
                    {
                        "number": 64,
                        "time": 396.3392686041666,
                        "value": 1
                    },
                    {
                        "number": 64,
                        "time": 396.68505027083324,
                        "value": 0
                    },
                    {
                        "number": 64,
                        "time": 397.1501266124999,
                        "value": 1
                    },
                    {
                        "number": 64,
                        "time": 397.51146845416656,
                        "value": 0
                    },
                    {
                        "number": 64,
                        "time": 397.5944560541666,
                        "value": 1
                    },
                    {
                        "number": 64,
                        "time": 397.9367799041666,
                        "value": 0
                    },
                    {
                        "number": 64,
                        "time": 398.0050717833333,
                        "value": 1
                    },
                    {
                        "number": 64,
                        "time": 398.34047999999996,
                        "value": 0
                    },
                    {
                        "number": 64,
                        "time": 398.4200097833333,
                        "value": 1
                    },
                    {
                        "number": 64,
                        "time": 398.7640625416666,
                        "value": 0
                    },
                    {
                        "number": 64,
                        "time": 398.82976105833325,
                        "value": 1
                    },
                    {
                        "number": 64,
                        "time": 399.17986499583327,
                        "value": 0
                    },
                    {
                        "number": 64,
                        "time": 399.2542080541666,
                        "value": 1
                    },
                    {
                        "number": 64,
                        "time": 399.5982608124999,
                        "value": 0
                    },
                    {
                        "number": 64,
                        "time": 399.66914605416656,
                        "value": 1
                    },
                    {
                        "number": 64,
                        "time": 400.0071476333332,
                        "value": 0
                    },
                    {
                        "number": 64,
                        "time": 400.47481733749987,
                        "value": 1
                    },
                    {
                        "number": 64,
                        "time": 400.8422103583332,
                        "value": 0
                    },
                    {
                        "number": 64,
                        "time": 400.8992643333332,
                        "value": 1
                    },
                    {
                        "number": 64,
                        "time": 401.25196163333317,
                        "value": 0
                    },
                    {
                        "number": 64,
                        "time": 401.3142023333332,
                        "value": 1
                    },
                    {
                        "number": 64,
                        "time": 401.6651707249998,
                        "value": 0
                    },
                    {
                        "number": 64,
                        "time": 401.72914033333313,
                        "value": 1
                    },
                    {
                        "number": 64,
                        "time": 402.0818376333331,
                        "value": 0
                    },
                    {
                        "number": 64,
                        "time": 402.14407833333314,
                        "value": 1
                    },
                    {
                        "number": 64,
                        "time": 402.4976400874998,
                        "value": 0
                    },
                    {
                        "number": 64,
                        "time": 402.56420305833313,
                        "value": 1
                    },
                    {
                        "number": 64,
                        "time": 402.9177648124998,
                        "value": 0
                    },
                    {
                        "number": 64,
                        "time": 402.9938367791665,
                        "value": 1
                    },
                    {
                        "number": 64,
                        "time": 403.32665163333314,
                        "value": 0
                    },
                    {
                        "number": 64,
                        "time": 403.3845700624998,
                        "value": 1
                    },
                    {
                        "number": 64,
                        "time": 403.74677635833314,
                        "value": 0
                    },
                    {
                        "number": 64,
                        "time": 403.7995080624998,
                        "value": 1
                    },
                    {
                        "number": 64,
                        "time": 404.1625788124998,
                        "value": 0
                    },
                    {
                        "number": 64,
                        "time": 404.22914178333315,
                        "value": 1
                    },
                    {
                        "number": 64,
                        "time": 404.57665235833315,
                        "value": 0
                    },
                    {
                        "number": 64,
                        "time": 404.63889305833317,
                        "value": 1
                    },
                    {
                        "number": 64,
                        "time": 404.9855391791665,
                        "value": 0
                    },
                    {
                        "number": 64,
                        "time": 405.0486443333332,
                        "value": 1
                    },
                    {
                        "number": 64,
                        "time": 405.40652835833316,
                        "value": 0
                    },
                    {
                        "number": 64,
                        "time": 405.47395578333317,
                        "value": 1
                    },
                    {
                        "number": 64,
                        "time": 405.8206019041665,
                        "value": 0
                    },
                    {
                        "number": 64,
                        "time": 405.9182852249998,
                        "value": 1
                    },
                    {
                        "number": 64,
                        "time": 406.2355399041665,
                        "value": 0
                    },
                    {
                        "number": 64,
                        "time": 406.3038317833332,
                        "value": 1
                    },
                    {
                        "number": 64,
                        "time": 406.6409689083332,
                        "value": 0
                    },
                    {
                        "number": 64,
                        "time": 406.7083963333332,
                        "value": 1
                    },
                    {
                        "number": 64,
                        "time": 407.0610936333332,
                        "value": 0
                    },
                    {
                        "number": 64,
                        "time": 407.14321677916655,
                        "value": 1
                    },
                    {
                        "number": 64,
                        "time": 407.4768960874999,
                        "value": 0
                    },
                    {
                        "number": 64,
                        "time": 408.3188744458332,
                        "value": 1
                    },
                    {
                        "number": 64,
                        "time": 408.72516790416654,
                        "value": 0
                    },
                    {
                        "number": 64,
                        "time": 408.78827305833323,
                        "value": 1
                    },
                    {
                        "number": 64,
                        "time": 409.1366480874999,
                        "value": 0
                    },
                    {
                        "number": 64,
                        "time": 409.97862644583324,
                        "value": 1
                    },
                    {
                        "number": 64,
                        "time": 410.38491990416657,
                        "value": 0
                    },
                    {
                        "number": 64,
                        "time": 410.44802505833326,
                        "value": 1
                    },
                    {
                        "number": 64,
                        "time": 410.79640008749993,
                        "value": 0
                    },
                    {
                        "number": 64,
                        "time": 411.6530741666666,
                        "value": 1
                    },
                    {
                        "number": 64,
                        "time": 412.0446719041666,
                        "value": 0
                    },
                    {
                        "number": 64,
                        "time": 412.1077770583333,
                        "value": 1
                    },
                    {
                        "number": 64,
                        "time": 412.45615208749996,
                        "value": 0
                    },
                    {
                        "number": 64,
                        "time": 413.35172660416663,
                        "value": 1
                    },
                    {
                        "number": 64,
                        "time": 413.7044239041666,
                        "value": 0
                    },
                    {
                        "number": 64,
                        "time": 413.7675290583333,
                        "value": 1
                    },
                    {
                        "number": 64,
                        "time": 414.1159040875,
                        "value": 0
                    },
                    {
                        "number": 64,
                        "time": 414.9812227083333,
                        "value": 1
                    },
                    {
                        "number": 64,
                        "time": 415.36417590416664,
                        "value": 0
                    },
                    {
                        "number": 64,
                        "time": 415.42728105833334,
                        "value": 1
                    },
                    {
                        "number": 64,
                        "time": 415.7756560875,
                        "value": 0
                    },
                    {
                        "number": 64,
                        "time": 416.6375168916667,
                        "value": 1
                    },
                    {
                        "number": 64,
                        "time": 417.02392790416667,
                        "value": 0
                    },
                    {
                        "number": 64,
                        "time": 417.08703305833336,
                        "value": 1
                    },
                    {
                        "number": 64,
                        "time": 417.43540808750004,
                        "value": 0
                    },
                    {
                        "number": 64,
                        "time": 418.3128290666667,
                        "value": 1
                    },
                    {
                        "number": 64,
                        "time": 418.6836799041667,
                        "value": 0
                    },
                    {
                        "number": 64,
                        "time": 418.7467850583334,
                        "value": 1
                    },
                    {
                        "number": 64,
                        "time": 419.09516008750006,
                        "value": 0
                    },
                    {
                        "number": 64,
                        "time": 419.9371384458334,
                        "value": 1
                    },
                    {
                        "number": 64,
                        "time": 420.3434319041667,
                        "value": 0
                    },
                    {
                        "number": 64,
                        "time": 420.4065370583334,
                        "value": 1
                    },
                    {
                        "number": 64,
                        "time": 420.7670144458334,
                        "value": 1
                    },
                    {
                        "number": 64,
                        "time": 421.17330790416673,
                        "value": 0
                    },
                    {
                        "number": 64,
                        "time": 421.2364130583334,
                        "value": 1
                    },
                    {
                        "number": 64,
                        "time": 421.5770080000001,
                        "value": 0
                    },
                    {
                        "number": 64,
                        "time": 421.6565377833334,
                        "value": 1
                    },
                    {
                        "number": 64,
                        "time": 422.00318390416675,
                        "value": 0
                    },
                    {
                        "number": 64,
                        "time": 422.06628905833344,
                        "value": 1
                    },
                    {
                        "number": 64,
                        "time": 422.4172574500001,
                        "value": 0
                    },
                    {
                        "number": 64,
                        "time": 422.46220906666673,
                        "value": 1
                    },
                    {
                        "number": 64,
                        "time": 422.8330599041667,
                        "value": 0
                    },
                    {
                        "number": 64,
                        "time": 422.8961650583334,
                        "value": 1
                    },
                    {
                        "number": 64,
                        "time": 423.23676000000006,
                        "value": 0
                    },
                    {
                        "number": 64,
                        "time": 423.32234096250005,
                        "value": 1
                    },
                    {
                        "number": 64,
                        "time": 423.6629359041667,
                        "value": 0
                    },
                    {
                        "number": 64,
                        "time": 423.7260410583334,
                        "value": 1
                    },
                    {
                        "number": 64,
                        "time": 424.0787383583334,
                        "value": 0
                    },
                    {
                        "number": 64,
                        "time": 424.1461657833334,
                        "value": 1
                    },
                    {
                        "number": 64,
                        "time": 424.49281190416673,
                        "value": 0
                    },
                    {
                        "number": 64,
                        "time": 424.5559170583334,
                        "value": 1
                    },
                    {
                        "number": 64,
                        "time": 424.9086143583334,
                        "value": 0
                    },
                    {
                        "number": 64,
                        "time": 425.0616227458334,
                        "value": 1
                    },
                    {
                        "number": 64,
                        "time": 425.73243917916676,
                        "value": 0
                    },
                    {
                        "number": 64,
                        "time": 426.60986015833345,
                        "value": 1
                    },
                    {
                        "number": 64,
                        "time": 426.9763887250001,
                        "value": 0
                    },
                    {
                        "number": 64,
                        "time": 428.27566333750013,
                        "value": 1
                    },
                    {
                        "number": 64,
                        "time": 428.64046299583345,
                        "value": 0
                    },
                    {
                        "number": 64,
                        "time": 429.11504833333345,
                        "value": 1
                    },
                    {
                        "number": 64,
                        "time": 429.4729323583334,
                        "value": 0
                    },
                    {
                        "number": 64,
                        "time": 429.53517305833344,
                        "value": 1
                    },
                    {
                        "number": 64,
                        "time": 429.8757680000001,
                        "value": 0
                    },
                    {
                        "number": 64,
                        "time": 430.3641846041668,
                        "value": 1
                    },
                    {
                        "number": 64,
                        "time": 430.71774635833344,
                        "value": 0
                    },
                    {
                        "number": 64,
                        "time": 430.7791226041668,
                        "value": 1
                    },
                    {
                        "number": 64,
                        "time": 431.1318199041668,
                        "value": 0
                    },
                    {
                        "number": 64,
                        "time": 431.2061629625001,
                        "value": 1
                    },
                    {
                        "number": 64,
                        "time": 431.53552000000013,
                        "value": 0
                    },
                    {
                        "number": 64,
                        "time": 431.6089986041668,
                        "value": 1
                    },
                    {
                        "number": 64,
                        "time": 432.3714471791668,
                        "value": 0
                    },
                    {
                        "number": 64,
                        "time": 433.2488681583335,
                        "value": 1
                    },
                    {
                        "number": 64,
                        "time": 433.61539672500015,
                        "value": 0
                    },
                    {
                        "number": 64,
                        "time": 434.0994910583335,
                        "value": 1
                    },
                    {
                        "number": 64,
                        "time": 434.44959499583354,
                        "value": 0
                    },
                    {
                        "number": 64,
                        "time": 434.50924233333353,
                        "value": 1
                    },
                    {
                        "number": 64,
                        "time": 434.8550240000002,
                        "value": 0
                    },
                    {
                        "number": 64,
                        "time": 434.95443622916684,
                        "value": 1
                    },
                    {
                        "number": 64,
                        "time": 435.2794709958335,
                        "value": 0
                    },
                    {
                        "number": 64,
                        "time": 435.36937422916685,
                        "value": 1
                    },
                    {
                        "number": 64,
                        "time": 435.69095117916686,
                        "value": 0
                    },
                    {
                        "number": 64,
                        "time": 436.56837215833355,
                        "value": 1
                    },
                    {
                        "number": 64,
                        "time": 436.9349007250002,
                        "value": 0
                    },
                    {
                        "number": 64,
                        "time": 437.41899505833356,
                        "value": 1
                    },
                    {
                        "number": 64,
                        "time": 437.7690989958336,
                        "value": 0
                    },
                    {
                        "number": 64,
                        "time": 437.8287463333336,
                        "value": 1
                    },
                    {
                        "number": 64,
                        "time": 438.17452800000024,
                        "value": 0
                    },
                    {
                        "number": 64,
                        "time": 438.2739402291669,
                        "value": 1
                    },
                    {
                        "number": 64,
                        "time": 438.59897499583354,
                        "value": 0
                    },
                    {
                        "number": 64,
                        "time": 438.6888782291669,
                        "value": 1
                    },
                    {
                        "number": 64,
                        "time": 439.0104551791669,
                        "value": 0
                    },
                    {
                        "number": 64,
                        "time": 439.8878761583336,
                        "value": 1
                    },
                    {
                        "number": 64,
                        "time": 440.25440472500026,
                        "value": 0
                    },
                    {
                        "number": 64,
                        "time": 440.7384990583336,
                        "value": 1
                    },
                    {
                        "number": 64,
                        "time": 441.08860299583364,
                        "value": 0
                    },
                    {
                        "number": 64,
                        "time": 441.14825033333364,
                        "value": 1
                    },
                    {
                        "number": 64,
                        "time": 441.4940320000003,
                        "value": 0
                    },
                    {
                        "number": 64,
                        "time": 441.59344422916695,
                        "value": 1
                    },
                    {
                        "number": 64,
                        "time": 441.9184789958336,
                        "value": 0
                    },
                    {
                        "number": 64,
                        "time": 442.00838222916695,
                        "value": 1
                    },
                    {
                        "number": 64,
                        "time": 442.32995917916696,
                        "value": 0
                    },
                    {
                        "number": 64,
                        "time": 443.20738015833365,
                        "value": 1
                    },
                    {
                        "number": 64,
                        "time": 443.5739087250003,
                        "value": 0
                    },
                    {
                        "number": 64,
                        "time": 444.05800305833367,
                        "value": 1
                    },
                    {
                        "number": 64,
                        "time": 444.4081069958337,
                        "value": 0
                    },
                    {
                        "number": 64,
                        "time": 444.4677543333337,
                        "value": 1
                    },
                    {
                        "number": 64,
                        "time": 444.81353600000034,
                        "value": 0
                    },
                    {
                        "number": 64,
                        "time": 444.912948229167,
                        "value": 1
                    },
                    {
                        "number": 64,
                        "time": 445.23798299583365,
                        "value": 0
                    },
                    {
                        "number": 64,
                        "time": 445.327886229167,
                        "value": 1
                    },
                    {
                        "number": 64,
                        "time": 445.649463179167,
                        "value": 0
                    },
                    {
                        "number": 64,
                        "time": 446.5268841583337,
                        "value": 1
                    },
                    {
                        "number": 64,
                        "time": 446.89341272500036,
                        "value": 0
                    },
                    {
                        "number": 64,
                        "time": 447.3775070583337,
                        "value": 1
                    },
                    {
                        "number": 64,
                        "time": 447.72761099583374,
                        "value": 0
                    },
                    {
                        "number": 64,
                        "time": 447.78725833333374,
                        "value": 1
                    },
                    {
                        "number": 64,
                        "time": 448.1382267250004,
                        "value": 0
                    },
                    {
                        "number": 64,
                        "time": 448.2125697833337,
                        "value": 1
                    },
                    {
                        "number": 64,
                        "time": 448.5574869958337,
                        "value": 0
                    },
                    {
                        "number": 64,
                        "time": 448.6223210583337,
                        "value": 1
                    },
                    {
                        "number": 64,
                        "time": 448.9732894500003,
                        "value": 0
                    },
                    {
                        "number": 64,
                        "time": 449.03207233333364,
                        "value": 1
                    },
                    {
                        "number": 64,
                        "time": 449.801436541667,
                        "value": 0
                    },
                    {
                        "number": 64,
                        "time": 449.86194833333366,
                        "value": 1
                    },
                    {
                        "number": 64,
                        "time": 450.63390590416697,
                        "value": 0
                    },
                    {
                        "number": 64,
                        "time": 450.70652005416696,
                        "value": 1
                    },
                    {
                        "number": 64,
                        "time": 451.048843904167,
                        "value": 0
                    },
                    {
                        "number": 64,
                        "time": 451.1067623333336,
                        "value": 1
                    },
                    {
                        "number": 64,
                        "time": 451.4603240875003,
                        "value": 0
                    },
                    {
                        "number": 64,
                        "time": 451.51737806250026,
                        "value": 1
                    },
                    {
                        "number": 64,
                        "time": 451.87526208750023,
                        "value": 0
                    },
                    {
                        "number": 64,
                        "time": 451.94182505833356,
                        "value": 1
                    },
                    {
                        "number": 64,
                        "time": 452.29452235833355,
                        "value": 0
                    },
                    {
                        "number": 64,
                        "time": 452.36194978333356,
                        "value": 1
                    },
                    {
                        "number": 64,
                        "time": 453.12180499583354,
                        "value": 0
                    },
                    {
                        "number": 64,
                        "time": 453.20133477916687,
                        "value": 1
                    },
                    {
                        "number": 64,
                        "time": 453.95168099583356,
                        "value": 0
                    },
                    {
                        "number": 64,
                        "time": 454.0217017833336,
                        "value": 1
                    },
                    {
                        "number": 64,
                        "time": 454.77809917916693,
                        "value": 0
                    },
                    {
                        "number": 64,
                        "time": 454.8515777833336,
                        "value": 1
                    },
                    {
                        "number": 64,
                        "time": 455.6148908125003,
                        "value": 0
                    },
                    {
                        "number": 64,
                        "time": 455.6857760541669,
                        "value": 1
                    },
                    {
                        "number": 64,
                        "time": 456.43958008750025,
                        "value": 0
                    },
                    {
                        "number": 64,
                        "time": 456.5061430583336,
                        "value": 1
                    },
                    {
                        "number": 64,
                        "time": 457.27118499583355,
                        "value": 0
                    },
                    {
                        "number": 64,
                        "time": 457.3412057833336,
                        "value": 1
                    },
                    {
                        "number": 64,
                        "time": 458.09155200000026,
                        "value": 0
                    },
                    {
                        "number": 64,
                        "time": 458.2929698208336,
                        "value": 1
                    },
                    {
                        "number": 64,
                        "time": 458.92747917916694,
                        "value": 0
                    },
                    {
                        "number": 64,
                        "time": 458.9646507083336,
                        "value": 1
                    },
                    {
                        "number": 64,
                        "time": 459.76167745000026,
                        "value": 0
                    },
                    {
                        "number": 64,
                        "time": 459.8308337833336,
                        "value": 1
                    },
                    {
                        "number": 64,
                        "time": 460.1714287250003,
                        "value": 0
                    },
                    {
                        "number": 64,
                        "time": 460.65552305833364,
                        "value": 1
                    },
                    {
                        "number": 64,
                        "time": 461.00562699583367,
                        "value": 0
                    },
                    {
                        "number": 64,
                        "time": 461.06527433333366,
                        "value": 1
                    },
                    {
                        "number": 64,
                        "time": 461.43871853333366,
                        "value": 0
                    },
                    {
                        "number": 64,
                        "time": 461.4750256083337,
                        "value": 1
                    },
                    {
                        "number": 64,
                        "time": 461.83290963333366,
                        "value": 0
                    },
                    {
                        "number": 64,
                        "time": 461.87181007083365,
                        "value": 1
                    },
                    {
                        "number": 64,
                        "time": 462.24784763333366,
                        "value": 0
                    },
                    {
                        "number": 64,
                        "time": 462.2841547083337,
                        "value": 1
                    },
                    {
                        "number": 64,
                        "time": 462.66365008750034,
                        "value": 0
                    },
                    {
                        "number": 64,
                        "time": 462.69304152916703,
                        "value": 1
                    },
                    {
                        "number": 64,
                        "time": 463.07080800000034,
                        "value": 0
                    },
                    {
                        "number": 64,
                        "time": 463.2722258208337,
                        "value": 1
                    },
                    {
                        "number": 64,
                        "time": 463.906735179167,
                        "value": 0
                    },
                    {
                        "number": 64,
                        "time": 463.94390670833366,
                        "value": 1
                    },
                    {
                        "number": 64,
                        "time": 464.74093345000034,
                        "value": 0
                    },
                    {
                        "number": 64,
                        "time": 464.8100897833337,
                        "value": 1
                    },
                    {
                        "number": 64,
                        "time": 465.15068472500036,
                        "value": 0
                    },
                    {
                        "number": 64,
                        "time": 465.6347790583337,
                        "value": 1
                    },
                    {
                        "number": 64,
                        "time": 465.98488299583374,
                        "value": 0
                    },
                    {
                        "number": 64,
                        "time": 466.04453033333374,
                        "value": 1
                    },
                    {
                        "number": 64,
                        "time": 466.41797453333373,
                        "value": 0
                    },
                    {
                        "number": 64,
                        "time": 466.45428160833376,
                        "value": 1
                    },
                    {
                        "number": 64,
                        "time": 466.81216563333373,
                        "value": 0
                    },
                    {
                        "number": 64,
                        "time": 466.8510660708337,
                        "value": 1
                    },
                    {
                        "number": 64,
                        "time": 467.22710363333374,
                        "value": 0
                    },
                    {
                        "number": 64,
                        "time": 467.26341070833377,
                        "value": 1
                    },
                    {
                        "number": 64,
                        "time": 467.6429060875004,
                        "value": 0
                    },
                    {
                        "number": 64,
                        "time": 467.6722975291671,
                        "value": 1
                    },
                    {
                        "number": 64,
                        "time": 468.0500640000004,
                        "value": 0
                    },
                    {
                        "number": 64,
                        "time": 473.9689816791671,
                        "value": 1
                    },
                    {
                        "number": 64,
                        "time": 474.6968520875004,
                        "value": 0
                    },
                    {
                        "number": 64,
                        "time": 477.2884856791671,
                        "value": 1
                    },
                    {
                        "number": 64,
                        "time": 478.0163560875004,
                        "value": 0
                    },
                    {
                        "number": 64,
                        "time": 478.0941569625004,
                        "value": 1
                    },
                    {
                        "number": 64,
                        "time": 478.44771871666705,
                        "value": 0
                    },
                    {
                        "number": 64,
                        "time": 478.9240329625004,
                        "value": 1
                    },
                    {
                        "number": 64,
                        "time": 479.27759471666707,
                        "value": 0
                    },
                    {
                        "number": 64,
                        "time": 479.7539089625004,
                        "value": 1
                    },
                    {
                        "number": 64,
                        "time": 480.1074707166671,
                        "value": 0
                    },
                    {
                        "number": 64,
                        "time": 480.6079896791671,
                        "value": 1
                    },
                    {
                        "number": 64,
                        "time": 481.3358600875004,
                        "value": 0
                    },
                    {
                        "number": 64,
                        "time": 481.4136609625004,
                        "value": 1
                    },
                    {
                        "number": 64,
                        "time": 481.76722271666705,
                        "value": 0
                    },
                    {
                        "number": 64,
                        "time": 482.2435369625004,
                        "value": 1
                    },
                    {
                        "number": 64,
                        "time": 482.59709871666706,
                        "value": 0
                    },
                    {
                        "number": 64,
                        "time": 483.0734129625004,
                        "value": 1
                    },
                    {
                        "number": 64,
                        "time": 483.4269747166671,
                        "value": 0
                    },
                    {
                        "number": 64,
                        "time": 483.92749367916707,
                        "value": 1
                    },
                    {
                        "number": 64,
                        "time": 484.6475840000004,
                        "value": 0
                    },
                    {
                        "number": 64,
                        "time": 484.7573696791671,
                        "value": 1
                    },
                    {
                        "number": 64,
                        "time": 489.6268400000004,
                        "value": 0
                    },
                    {
                        "number": 64,
                        "time": 489.7366256791671,
                        "value": 1
                    },
                    {
                        "number": 64,
                        "time": 494.2041248125004,
                        "value": 0
                    },
                    {
                        "number": 64,
                        "time": 494.2853835041671,
                        "value": 1
                    },
                    {
                        "number": 64,
                        "time": 496.26584800000046,
                        "value": 0
                    },
                    {
                        "number": 64,
                        "time": 496.32981760833377,
                        "value": 1
                    },
                    {
                        "number": 64,
                        "time": 497.92560000000043,
                        "value": 0
                    },
                    {
                        "number": 64,
                        "time": 497.9852473375004,
                        "value": 1
                    },
                    {
                        "number": 64,
                        "time": 498.0760150250004,
                        "value": 0
                    },
                    {
                        "number": 64,
                        "time": 498.4053720625004,
                        "value": 1
                    },
                    {
                        "number": 64,
                        "time": 498.49354638750043,
                        "value": 0
                    },
                    {
                        "number": 64,
                        "time": 498.82463233333374,
                        "value": 1
                    },
                    {
                        "number": 64,
                        "time": 498.9024332083337,
                        "value": 0
                    },
                    {
                        "number": 64,
                        "time": 499.23957033333375,
                        "value": 1
                    },
                    {
                        "number": 64,
                        "time": 499.31996457083375,
                        "value": 0
                    },
                    {
                        "number": 64,
                        "time": 499.5853520000004,
                        "value": 0
                    },
                    {
                        "number": 64,
                        "time": 499.6493216083337,
                        "value": 1
                    },
                    {
                        "number": 64,
                        "time": 501.24510400000037,
                        "value": 0
                    },
                    {
                        "number": 64,
                        "time": 501.30475133750036,
                        "value": 1
                    },
                    {
                        "number": 64,
                        "time": 501.39551902500034,
                        "value": 0
                    },
                    {
                        "number": 64,
                        "time": 501.72487606250036,
                        "value": 1
                    },
                    {
                        "number": 64,
                        "time": 501.81305038750037,
                        "value": 0
                    },
                    {
                        "number": 64,
                        "time": 502.1441363333337,
                        "value": 1
                    },
                    {
                        "number": 64,
                        "time": 502.22193720833366,
                        "value": 0
                    },
                    {
                        "number": 64,
                        "time": 502.5590743333337,
                        "value": 1
                    },
                    {
                        "number": 64,
                        "time": 502.6394685708337,
                        "value": 0
                    },
                    {
                        "number": 64,
                        "time": 502.944620891667,
                        "value": 1
                    },
                    {
                        "number": 64,
                        "time": 503.47712465833365,
                        "value": 0
                    },
                    {
                        "number": 64,
                        "time": 503.8142617833337,
                        "value": 1
                    },
                    {
                        "number": 64,
                        "time": 504.3052717500003,
                        "value": 0
                    },
                    {
                        "number": 64,
                        "time": 504.6242553375003,
                        "value": 1
                    },
                    {
                        "number": 64,
                        "time": 505.1429278375003,
                        "value": 0
                    },
                    {
                        "number": 64,
                        "time": 505.48870950416693,
                        "value": 1
                    },
                    {
                        "number": 64,
                        "time": 505.82238881250026,
                        "value": 0
                    },
                    {
                        "number": 64,
                        "time": 505.8889517833336,
                        "value": 1
                    },
                    {
                        "number": 64,
                        "time": 506.2243600000003,
                        "value": 0
                    },
                    {
                        "number": 64,
                        "time": 506.2701760708336,
                        "value": 1
                    },
                    {
                        "number": 64,
                        "time": 506.7966286583336,
                        "value": 0
                    },
                    {
                        "number": 64,
                        "time": 507.1337657833336,
                        "value": 1
                    },
                    {
                        "number": 64,
                        "time": 507.62477575000025,
                        "value": 0
                    },
                    {
                        "number": 64,
                        "time": 507.94375933750024,
                        "value": 1
                    },
                    {
                        "number": 64,
                        "time": 508.4624318375002,
                        "value": 0
                    },
                    {
                        "number": 64,
                        "time": 508.8082135041669,
                        "value": 1
                    },
                    {
                        "number": 64,
                        "time": 509.1418928125002,
                        "value": 0
                    },
                    {
                        "number": 64,
                        "time": 509.20845578333353,
                        "value": 1
                    },
                    {
                        "number": 64,
                        "time": 509.5438640000002,
                        "value": 0
                    },
                    {
                        "number": 64,
                        "time": 509.58968007083354,
                        "value": 1
                    },
                    {
                        "number": 64,
                        "time": 510.1161326583335,
                        "value": 0
                    },
                    {
                        "number": 64,
                        "time": 510.45326978333355,
                        "value": 1
                    },
                    {
                        "number": 64,
                        "time": 510.9442797500002,
                        "value": 0
                    },
                    {
                        "number": 64,
                        "time": 511.2632633375002,
                        "value": 1
                    },
                    {
                        "number": 64,
                        "time": 511.78193583750016,
                        "value": 0
                    },
                    {
                        "number": 64,
                        "time": 512.1277175041669,
                        "value": 1
                    },
                    {
                        "number": 64,
                        "time": 512.4613968125002,
                        "value": 0
                    },
                    {
                        "number": 64,
                        "time": 512.5279597833336,
                        "value": 1
                    },
                    {
                        "number": 64,
                        "time": 512.8633680000003,
                        "value": 0
                    },
                    {
                        "number": 64,
                        "time": 512.9230153375003,
                        "value": 1
                    },
                    {
                        "number": 64,
                        "time": 513.4416878375002,
                        "value": 0
                    },
                    {
                        "number": 64,
                        "time": 513.7874695041669,
                        "value": 1
                    },
                    {
                        "number": 64,
                        "time": 514.2637837500002,
                        "value": 0
                    },
                    {
                        "number": 64,
                        "time": 514.5827673375003,
                        "value": 1
                    },
                    {
                        "number": 64,
                        "time": 515.1014398375003,
                        "value": 0
                    },
                    {
                        "number": 64,
                        "time": 515.4472215041669,
                        "value": 1
                    },
                    {
                        "number": 64,
                        "time": 515.7809008125002,
                        "value": 0
                    },
                    {
                        "number": 64,
                        "time": 515.8474637833336,
                        "value": 1
                    },
                    {
                        "number": 64,
                        "time": 516.1828720000003,
                        "value": 0
                    },
                    {
                        "number": 64,
                        "time": 516.2425193375003,
                        "value": 1
                    },
                    {
                        "number": 64,
                        "time": 516.7611918375003,
                        "value": 0
                    },
                    {
                        "number": 64,
                        "time": 517.106973504167,
                        "value": 1
                    },
                    {
                        "number": 64,
                        "time": 517.5832877500003,
                        "value": 0
                    },
                    {
                        "number": 64,
                        "time": 517.8426240000003,
                        "value": 0
                    },
                    {
                        "number": 64,
                        "time": 517.9022713375003,
                        "value": 1
                    },
                    {
                        "number": 64,
                        "time": 518.4209438375003,
                        "value": 0
                    },
                    {
                        "number": 64,
                        "time": 518.766725504167,
                        "value": 1
                    },
                    {
                        "number": 64,
                        "time": 519.2430397500003,
                        "value": 0
                    },
                    {
                        "number": 64,
                        "time": 519.5023760000004,
                        "value": 0
                    },
                    {
                        "number": 64,
                        "time": 519.5620233375004,
                        "value": 1
                    },
                    {
                        "number": 64,
                        "time": 520.0806958375003,
                        "value": 0
                    },
                    {
                        "number": 64,
                        "time": 520.426477504167,
                        "value": 1
                    },
                    {
                        "number": 64,
                        "time": 520.9027917500003,
                        "value": 0
                    },
                    {
                        "number": 64,
                        "time": 521.1621280000004,
                        "value": 0
                    },
                    {
                        "number": 64,
                        "time": 521.2217753375004,
                        "value": 1
                    },
                    {
                        "number": 64,
                        "time": 521.7404478375004,
                        "value": 0
                    },
                    {
                        "number": 64,
                        "time": 522.086229504167,
                        "value": 1
                    },
                    {
                        "number": 64,
                        "time": 522.5625437500004,
                        "value": 0
                    },
                    {
                        "number": 64,
                        "time": 522.8279311791671,
                        "value": 0
                    },
                    {
                        "number": 64,
                        "time": 522.9014097833337,
                        "value": 1
                    },
                    {
                        "number": 64,
                        "time": 523.6647228125004,
                        "value": 0
                    },
                    {
                        "number": 64,
                        "time": 523.7356080541671,
                        "value": 1
                    },
                    {
                        "number": 64,
                        "time": 524.4876831791671,
                        "value": 0
                    },
                    {
                        "number": 64,
                        "time": 524.5611617833338,
                        "value": 1
                    },
                    {
                        "number": 64,
                        "time": 525.3244748125004,
                        "value": 0
                    },
                    {
                        "number": 64,
                        "time": 525.3953600541671,
                        "value": 1
                    },
                    {
                        "number": 64,
                        "time": 526.1474351791671,
                        "value": 0
                    },
                    {
                        "number": 64,
                        "time": 526.2209137833338,
                        "value": 1
                    },
                    {
                        "number": 64,
                        "time": 526.9842268125004,
                        "value": 0
                    },
                    {
                        "number": 64,
                        "time": 527.0551120541671,
                        "value": 1
                    },
                    {
                        "number": 64,
                        "time": 527.8071871791672,
                        "value": 0
                    },
                    {
                        "number": 64,
                        "time": 527.8806657833338,
                        "value": 1
                    },
                    {
                        "number": 64,
                        "time": 528.6439788125004,
                        "value": 0
                    },
                    {
                        "number": 64,
                        "time": 528.7148640541672,
                        "value": 1
                    },
                    {
                        "number": 64,
                        "time": 529.4721259041671,
                        "value": 0
                    },
                    {
                        "number": 64,
                        "time": 529.5559779583338,
                        "value": 1
                    },
                    {
                        "number": 64,
                        "time": 529.8827416333338,
                        "value": 0
                    },
                    {
                        "number": 64,
                        "time": 529.9501690583338,
                        "value": 1
                    },
                    {
                        "number": 64,
                        "time": 530.2976796333338,
                        "value": 0
                    },
                    {
                        "number": 64,
                        "time": 530.3651070583338,
                        "value": 1
                    },
                    {
                        "number": 64,
                        "time": 530.7134820875004,
                        "value": 0
                    },
                    {
                        "number": 64,
                        "time": 530.7800450583338,
                        "value": 1
                    },
                    {
                        "number": 64,
                        "time": 531.1206400000005,
                        "value": 0
                    },
                    {
                        "number": 64,
                        "time": 531.5753428916672,
                        "value": 1
                    },
                    {
                        "number": 64,
                        "time": 531.9557027250006,
                        "value": 0
                    },
                    {
                        "number": 64,
                        "time": 533.2990645000006,
                        "value": 1
                    },
                    {
                        "number": 64,
                        "time": 533.6249637208339,
                        "value": 0
                    },
                    {
                        "number": 64,
                        "time": 534.0900400625005,
                        "value": 1
                    },
                    {
                        "number": 64,
                        "time": 534.4505174500006,
                        "value": 0
                    },
                    {
                        "number": 64,
                        "time": 534.9640032250006,
                        "value": 1
                    },
                    {
                        "number": 64,
                        "time": 535.2821223583339,
                        "value": 0
                    },
                    {
                        "number": 64,
                        "time": 535.764487783334,
                        "value": 1
                    },
                    {
                        "number": 64,
                        "time": 536.1059471791673,
                        "value": 0
                    },
                    {
                        "number": 64,
                        "time": 536.179425783334,
                        "value": 1
                    },
                    {
                        "number": 64,
                        "time": 536.9427388125006,
                        "value": 0
                    },
                    {
                        "number": 64,
                        "time": 537.0136240541673,
                        "value": 1
                    },
                    {
                        "number": 64,
                        "time": 537.7656991791673,
                        "value": 0
                    },
                    {
                        "number": 64,
                        "time": 537.839177783334,
                        "value": 1
                    },
                    {
                        "number": 64,
                        "time": 538.6024908125006,
                        "value": 0
                    },
                    {
                        "number": 64,
                        "time": 538.6733760541673,
                        "value": 1
                    },
                    {
                        "number": 64,
                        "time": 539.4254511791673,
                        "value": 0
                    },
                    {
                        "number": 64,
                        "time": 539.498929783334,
                        "value": 1
                    },
                    {
                        "number": 64,
                        "time": 540.2622428125006,
                        "value": 0
                    },
                    {
                        "number": 64,
                        "time": 540.3331280541673,
                        "value": 1
                    },
                    {
                        "number": 64,
                        "time": 541.0852031791674,
                        "value": 0
                    },
                    {
                        "number": 64,
                        "time": 541.158681783334,
                        "value": 1
                    },
                    {
                        "number": 64,
                        "time": 541.9219948125007,
                        "value": 0
                    },
                    {
                        "number": 64,
                        "time": 541.9928800541674,
                        "value": 1
                    },
                    {
                        "number": 64,
                        "time": 542.7449551791674,
                        "value": 0
                    },
                    {
                        "number": 64,
                        "time": 542.8184337833341,
                        "value": 1
                    },
                    {
                        "number": 64,
                        "time": 543.5748311791674,
                        "value": 0
                    },
                    {
                        "number": 64,
                        "time": 543.6483097833341,
                        "value": 1
                    },
                    {
                        "number": 64,
                        "time": 544.4047071791674,
                        "value": 0
                    },
                    {
                        "number": 64,
                        "time": 544.4781857833341,
                        "value": 1
                    },
                    {
                        "number": 64,
                        "time": 545.2345831791674,
                        "value": 0
                    },
                    {
                        "number": 64,
                        "time": 545.3080617833341,
                        "value": 1
                    },
                    {
                        "number": 64,
                        "time": 546.0644591791674,
                        "value": 0
                    },
                    {
                        "number": 64,
                        "time": 546.1379377833341,
                        "value": 1
                    },
                    {
                        "number": 64,
                        "time": 546.9012508125007,
                        "value": 0
                    },
                    {
                        "number": 64,
                        "time": 546.9721360541674,
                        "value": 1
                    },
                    {
                        "number": 64,
                        "time": 547.7311268125007,
                        "value": 0
                    },
                    {
                        "number": 64,
                        "time": 547.8020120541674,
                        "value": 1
                    },
                    {
                        "number": 64,
                        "time": 549.3891499041674,
                        "value": 0
                    },
                    {
                        "number": 64,
                        "time": 549.4730019583341,
                        "value": 1
                    },
                    {
                        "number": 64,
                        "time": 549.7997656333341,
                        "value": 0
                    },
                    {
                        "number": 64,
                        "time": 549.8671930583341,
                        "value": 1
                    },
                    {
                        "number": 64,
                        "time": 550.2147036333341,
                        "value": 0
                    },
                    {
                        "number": 64,
                        "time": 550.2821310583341,
                        "value": 1
                    },
                    {
                        "number": 64,
                        "time": 550.6305060875007,
                        "value": 0
                    },
                    {
                        "number": 64,
                        "time": 550.6970690583341,
                        "value": 1
                    },
                    {
                        "number": 64,
                        "time": 551.0376640000009,
                        "value": 0
                    },
                    {
                        "number": 64,
                        "time": 551.4923668916675,
                        "value": 1
                    },
                    {
                        "number": 64,
                        "time": 551.8727267250009,
                        "value": 0
                    },
                    {
                        "number": 64,
                        "time": 553.2160885000009,
                        "value": 1
                    },
                    {
                        "number": 64,
                        "time": 553.5419877208342,
                        "value": 0
                    },
                    {
                        "number": 64,
                        "time": 554.0070640625008,
                        "value": 1
                    },
                    {
                        "number": 64,
                        "time": 554.3675414500009,
                        "value": 0
                    },
                    {
                        "number": 64,
                        "time": 554.8810272250009,
                        "value": 1
                    },
                    {
                        "number": 64,
                        "time": 555.1991463583342,
                        "value": 0
                    },
                    {
                        "number": 64,
                        "time": 555.6815117833343,
                        "value": 1
                    },
                    {
                        "number": 64,
                        "time": 556.0169200000009,
                        "value": 0
                    },
                    {
                        "number": 64,
                        "time": 556.0964497833343,
                        "value": 1
                    },
                    {
                        "number": 64,
                        "time": 562.6559280000009,
                        "value": 0
                    },
                    {
                        "number": 64,
                        "time": 562.8633970000009,
                        "value": 1
                    },
                    {
                        "number": 64,
                        "time": 563.4918551791675,
                        "value": 0
                    },
                    {
                        "number": 64,
                        "time": 563.5895385000008,
                        "value": 1
                    },
                    {
                        "number": 64,
                        "time": 564.3234600875008,
                        "value": 0
                    },
                    {
                        "number": 64,
                        "time": 564.4505348500008,
                        "value": 1
                    },
                    {
                        "number": 64,
                        "time": 564.7358047250009,
                        "value": 0
                    },
                    {
                        "number": 64,
                        "time": 565.2804108500009,
                        "value": 1
                    },
                    {
                        "number": 64,
                        "time": 565.5656807250009,
                        "value": 0
                    },
                    {
                        "number": 64,
                        "time": 566.1102868500009,
                        "value": 1
                    },
                    {
                        "number": 64,
                        "time": 566.3955567250009,
                        "value": 0
                    },
                    {
                        "number": 64,
                        "time": 566.8113591791675,
                        "value": 0
                    },
                    {
                        "number": 64,
                        "time": 566.9090425000009,
                        "value": 1
                    },
                    {
                        "number": 64,
                        "time": 567.6429640875009,
                        "value": 0
                    },
                    {
                        "number": 64,
                        "time": 567.7700388500009,
                        "value": 1
                    },
                    {
                        "number": 64,
                        "time": 568.0553087250009,
                        "value": 0
                    },
                    {
                        "number": 64,
                        "time": 568.5999148500009,
                        "value": 1
                    },
                    {
                        "number": 64,
                        "time": 568.885184725001,
                        "value": 0
                    },
                    {
                        "number": 64,
                        "time": 569.4297908500009,
                        "value": 1
                    },
                    {
                        "number": 64,
                        "time": 569.715060725001,
                        "value": 0
                    },
                    {
                        "number": 64,
                        "time": 570.1308631791676,
                        "value": 0
                    },
                    {
                        "number": 64,
                        "time": 570.2285465000009,
                        "value": 1
                    },
                    {
                        "number": 64,
                        "time": 570.962468087501,
                        "value": 0
                    },
                    {
                        "number": 64,
                        "time": 571.089542850001,
                        "value": 1
                    },
                    {
                        "number": 64,
                        "time": 571.374812725001,
                        "value": 0
                    },
                    {
                        "number": 64,
                        "time": 572.749294850001,
                        "value": 1
                    },
                    {
                        "number": 64,
                        "time": 573.4503671791676,
                        "value": 0
                    },
                    {
                        "number": 64,
                        "time": 573.548050500001,
                        "value": 1
                    },
                    {
                        "number": 64,
                        "time": 574.274192000001,
                        "value": 0
                    },
                    {
                        "number": 64,
                        "time": 574.409046850001,
                        "value": 1
                    },
                    {
                        "number": 64,
                        "time": 574.694316725001,
                        "value": 0
                    },
                    {
                        "number": 64,
                        "time": 576.068798850001,
                        "value": 1
                    },
                    {
                        "number": 64,
                        "time": 576.3575265416677,
                        "value": 0
                    },
                    {
                        "number": 64,
                        "time": 576.512263837501,
                        "value": 1
                    },
                    {
                        "number": 64,
                        "time": 577.593696000001,
                        "value": 0
                    },
                    {
                        "number": 64,
                        "time": 577.728550850001,
                        "value": 1
                    },
                    {
                        "number": 64,
                        "time": 578.0138207250011,
                        "value": 0
                    },
                    {
                        "number": 64,
                        "time": 579.3883028500011,
                        "value": 1
                    },
                    {
                        "number": 64,
                        "time": 579.6770305416677,
                        "value": 0
                    },
                    {
                        "number": 64,
                        "time": 579.831767837501,
                        "value": 1
                    },
                    {
                        "number": 64,
                        "time": 580.9132000000011,
                        "value": 0
                    },
                    {
                        "number": 64,
                        "time": 581.0480548500011,
                        "value": 1
                    },
                    {
                        "number": 64,
                        "time": 581.3333247250011,
                        "value": 0
                    },
                    {
                        "number": 64,
                        "time": 582.6161747083345,
                        "value": 1
                    },
                    {
                        "number": 64,
                        "time": 582.9982634500011,
                        "value": 0
                    },
                    {
                        "number": 64,
                        "time": 583.0976756791678,
                        "value": 1
                    },
                    {
                        "number": 64,
                        "time": 583.4088791791678,
                        "value": 0
                    },
                    {
                        "number": 64,
                        "time": 583.4884089625011,
                        "value": 1
                    },
                    {
                        "number": 64,
                        "time": 583.8298683583345,
                        "value": 0
                    },
                    {
                        "number": 64,
                        "time": 583.9033469625011,
                        "value": 1
                    },
                    {
                        "number": 64,
                        "time": 584.2327040000011,
                        "value": 0
                    },
                    {
                        "number": 64,
                        "time": 584.3182849625011,
                        "value": 1
                    },
                    {
                        "number": 64,
                        "time": 584.6580154500011,
                        "value": 0
                    },
                    {
                        "number": 64,
                        "time": 584.7574276791678,
                        "value": 1
                    },
                    {
                        "number": 64,
                        "time": 585.0686311791678,
                        "value": 0
                    },
                    {
                        "number": 64,
                        "time": 585.1481609625012,
                        "value": 1
                    },
                    {
                        "number": 64,
                        "time": 585.4896203583345,
                        "value": 0
                    },
                    {
                        "number": 64,
                        "time": 585.5630989625012,
                        "value": 1
                    },
                    {
                        "number": 64,
                        "time": 585.8924560000012,
                        "value": 0
                    },
                    {
                        "number": 64,
                        "time": 585.9780369625012,
                        "value": 1
                    },
                    {
                        "number": 64,
                        "time": 586.3177674500012,
                        "value": 0
                    },
                    {
                        "number": 64,
                        "time": 586.4171796791678,
                        "value": 1
                    },
                    {
                        "number": 64,
                        "time": 586.7283831791678,
                        "value": 0
                    },
                    {
                        "number": 64,
                        "time": 586.8079129625012,
                        "value": 1
                    },
                    {
                        "number": 64,
                        "time": 587.1493723583345,
                        "value": 0
                    },
                    {
                        "number": 64,
                        "time": 587.2228509625012,
                        "value": 1
                    },
                    {
                        "number": 64,
                        "time": 587.5522080000012,
                        "value": 0
                    },
                    {
                        "number": 64,
                        "time": 588.0527269625012,
                        "value": 1
                    },
                    {
                        "number": 64,
                        "time": 588.3898640875012,
                        "value": 0
                    },
                    {
                        "number": 64,
                        "time": 588.4495114250012,
                        "value": 1
                    },
                    {
                        "number": 64,
                        "time": 588.8073954500012,
                        "value": 0
                    },
                    {
                        "number": 64,
                        "time": 588.8765517833345,
                        "value": 1
                    },
                    {
                        "number": 64,
                        "time": 589.2180111791679,
                        "value": 0
                    },
                    {
                        "number": 64,
                        "time": 589.2733362458346,
                        "value": 1
                    },
                    {
                        "number": 64,
                        "time": 589.6398648125013,
                        "value": 0
                    },
                    {
                        "number": 64,
                        "time": 589.7003766041679,
                        "value": 1
                    },
                    {
                        "number": 64,
                        "time": 590.0539383583346,
                        "value": 0
                    },
                    {
                        "number": 64,
                        "time": 590.1213657833346,
                        "value": 1
                    },
                    {
                        "number": 64,
                        "time": 590.468011904168,
                        "value": 0
                    },
                    {
                        "number": 64,
                        "time": 590.5242014250013,
                        "value": 1
                    },
                    {
                        "number": 64,
                        "time": 590.8717120000013,
                        "value": 0
                    },
                    {
                        "number": 64,
                        "time": 591.0791810000012,
                        "value": 1
                    },
                    {
                        "number": 64,
                        "time": 591.7482685250012,
                        "value": 0
                    },
                    {
                        "number": 64,
                        "time": 592.7389330000012,
                        "value": 1
                    },
                    {
                        "number": 64,
                        "time": 593.4080205250012,
                        "value": 0
                    },
                    {
                        "number": 64,
                        "time": 594.2525922458345,
                        "value": 1
                    },
                    {
                        "number": 64,
                        "time": 595.0271431791679,
                        "value": 0
                    },
                    {
                        "number": 64,
                        "time": 595.1066729625012,
                        "value": 1
                    },
                    {
                        "number": 64,
                        "time": 595.4420811791679,
                        "value": 0
                    },
                    {
                        "number": 64,
                        "time": 595.5155597833345,
                        "value": 1
                    },
                    {
                        "number": 64,
                        "time": 595.8552902708345,
                        "value": 0
                    },
                    {
                        "number": 64,
                        "time": 596.0065697500012,
                        "value": 1
                    },
                    {
                        "number": 64,
                        "time": 600.1040825000011,
                        "value": 0
                    }
                ]
            },
            "id": 3,
            "name": "Pedale",
            "instrumentNumber": 0,
            "instrument": "acoustic grand piano",
            "instrumentFamily": "piano",
            "channelNumber": 0,
            "isPercussion": false
        },
        {
            "startTime": 0,
            "duration": 0,
            "length": 0,
            "notes": [],
            "controlChanges": {},
            "id": 4,
            "name": "Schubert: Sonata D850, 1. movement"
        },
        {
            "startTime": 0,
            "duration": 0,
            "length": 0,
            "notes": [],
            "controlChanges": {},
            "id": 5,
            "name": "Copyright  2009 by Bernd Krueger"
        },
        {
            "startTime": 0,
            "duration": 0,
            "length": 0,
            "notes": [],
            "controlChanges": {},
            "id": 6,
            "name": "http://www.piano-midi.de/"
        },
        {
            "startTime": 0,
            "duration": 0,
            "length": 0,
            "notes": [],
            "controlChanges": {},
            "id": 7,
            "name": "Edition: 2014-03-13"
        },
        {
            "startTime": 0,
            "duration": 0,
            "length": 0,
            "notes": [],
            "controlChanges": {},
            "id": 8,
            "name": "Spur 8"
        },
        {
            "startTime": 0,
            "duration": 0,
            "length": 0,
            "notes": [],
            "controlChanges": {},
            "id": 9,
            "name": "Spur 9"
        },
        {
            "startTime": 0,
            "duration": 0,
            "length": 0,
            "notes": [],
            "controlChanges": {},
            "id": 10,
            "name": "Spur 10"
        },
        {
            "startTime": 0,
            "duration": 0,
            "length": 0,
            "notes": [],
            "controlChanges": {},
            "id": 11,
            "name": "Spur 11"
        },
        {
            "startTime": 0,
            "duration": 0,
            "length": 0,
            "notes": [],
            "controlChanges": {},
            "id": 12,
            "name": "Spur 12"
        },
        {
            "startTime": 0,
            "duration": 0,
            "length": 0,
            "notes": [],
            "controlChanges": {},
            "id": 13,
            "name": "Spur 13"
        },
        {
            "startTime": 0,
            "duration": 0,
            "length": 0,
            "notes": [],
            "controlChanges": {},
            "id": 14,
            "name": "Spur 14"
        },
        {
            "startTime": 0,
            "duration": 0,
            "length": 0,
            "notes": [],
            "controlChanges": {},
            "id": 15,
            "name": "Spur 15"
        },
        {
            "startTime": 0,
            "duration": 0,
            "length": 0,
            "notes": [],
            "controlChanges": {},
            "id": 16,
            "name": "Spur 16"
        }
    ]
}