{
    "header": {
        "PPQ": 480,
        "timeSignature": [
            2,
            4
        ],
        "bpm": 99.65999332278045,
        "name": "Nr. 3 f-moll"
    },
    "startTime": 0,
    "duration": 93.91933200000047,
    "tracks": [
        {
            "startTime": 0,
            "duration": 0,
            "length": 0,
            "notes": [],
            "controlChanges": {},
            "id": 0,
            "name": "Nr. 3 f-moll"
        },
        {
            "startTime": 2.332932125,
            "duration": 93.91933200000034,
            "length": 563,
            "notes": [
                {
                    "name": "A#4",
                    "midi": 70,
                    "time": 2.332932125,
                    "velocity": 0.3779527559055118,
                    "duration": 0.07525587499999986
                },
                {
                    "name": "G#4",
                    "midi": 68,
                    "time": 2.408188,
                    "velocity": 0.4409448818897638,
                    "duration": 0.15051175000000017
                },
                {
                    "name": "G#4",
                    "midi": 68,
                    "time": 2.7092115000000003,
                    "velocity": 0.3937007874015748,
                    "duration": 0.15051175000000017
                },
                {
                    "name": "A#4",
                    "midi": 70,
                    "time": 2.8597232500000005,
                    "velocity": 0.3937007874015748,
                    "duration": 0.15051175000000017
                },
                {
                    "name": "G#4",
                    "midi": 68,
                    "time": 3.0102350000000007,
                    "velocity": 0.4330708661417323,
                    "duration": 0.15051175000000017
                },
                {
                    "name": "G4",
                    "midi": 67,
                    "time": 3.311258500000001,
                    "velocity": 0.4094488188976378,
                    "duration": 0.15051175000000017
                },
                {
                    "name": "G#4",
                    "midi": 68,
                    "time": 3.461770250000001,
                    "velocity": 0.3779527559055118,
                    "duration": 0.07525587499999986
                },
                {
                    "name": "A#4",
                    "midi": 70,
                    "time": 3.537026125000001,
                    "velocity": 0.3779527559055118,
                    "duration": 0.07525587499999986
                },
                {
                    "name": "G#4",
                    "midi": 68,
                    "time": 3.612282000000001,
                    "velocity": 0.4015748031496063,
                    "duration": 0.4515352499999996
                },
                {
                    "name": "C5",
                    "midi": 72,
                    "time": 3.612282000000001,
                    "velocity": 0.44881889763779526,
                    "duration": 0.4515352499999996
                },
                {
                    "name": "G#4",
                    "midi": 68,
                    "time": 4.0638172500000005,
                    "velocity": 0.3779527559055118,
                    "duration": 0.07525587499999986
                },
                {
                    "name": "A#4",
                    "midi": 70,
                    "time": 4.139073125,
                    "velocity": 0.3779527559055118,
                    "duration": 0.07525587499999986
                },
                {
                    "name": "G#4",
                    "midi": 68,
                    "time": 4.214329,
                    "velocity": 0.3937007874015748,
                    "duration": 0.5267911249999999
                },
                {
                    "name": "C5",
                    "midi": 72,
                    "time": 4.214329,
                    "velocity": 0.4409448818897638,
                    "duration": 0.5267911249999999
                },
                {
                    "name": "A#4",
                    "midi": 70,
                    "time": 4.741120125,
                    "velocity": 0.3779527559055118,
                    "duration": 0.07525587499999986
                },
                {
                    "name": "G#4",
                    "midi": 68,
                    "time": 4.816376,
                    "velocity": 0.4409448818897638,
                    "duration": 0.15051174999999972
                },
                {
                    "name": "G#4",
                    "midi": 68,
                    "time": 5.117399499999999,
                    "velocity": 0.4015748031496063,
                    "duration": 0.15051174999999972
                },
                {
                    "name": "A#4",
                    "midi": 70,
                    "time": 5.267911249999999,
                    "velocity": 0.4015748031496063,
                    "duration": 0.15051174999999972
                },
                {
                    "name": "G#4",
                    "midi": 68,
                    "time": 5.418422999999999,
                    "velocity": 0.4330708661417323,
                    "duration": 0.15051174999999972
                },
                {
                    "name": "G4",
                    "midi": 67,
                    "time": 5.719446499999998,
                    "velocity": 0.3543307086614173,
                    "duration": 0.15051174999999972
                },
                {
                    "name": "C5",
                    "midi": 72,
                    "time": 5.719446499999998,
                    "velocity": 0.4015748031496063,
                    "duration": 0.15051174999999972
                },
                {
                    "name": "C5",
                    "midi": 72,
                    "time": 5.945214124999998,
                    "velocity": 0.3779527559055118,
                    "duration": 0.07525587499999986
                },
                {
                    "name": "F5",
                    "midi": 77,
                    "time": 6.020469999999998,
                    "velocity": 0.47244094488188976,
                    "duration": 0.5267911249999999
                },
                {
                    "name": "G#4",
                    "midi": 68,
                    "time": 6.020469999999998,
                    "velocity": 0.4251968503937008,
                    "duration": 0.5267911249999999
                },
                {
                    "name": "C5",
                    "midi": 72,
                    "time": 6.547261124999998,
                    "velocity": 0.3779527559055118,
                    "duration": 0.07525587499999986
                },
                {
                    "name": "G#4",
                    "midi": 68,
                    "time": 6.6225169999999975,
                    "velocity": 0.4094488188976378,
                    "duration": 0.6020469999999998
                },
                {
                    "name": "F5",
                    "midi": 77,
                    "time": 6.6225169999999975,
                    "velocity": 0.4566929133858268,
                    "duration": 0.6020469999999998
                },
                {
                    "name": "F#5",
                    "midi": 78,
                    "time": 7.1493081249999975,
                    "velocity": 0.33858267716535434,
                    "duration": 0.07525587499999986
                },
                {
                    "name": "G#4",
                    "midi": 68,
                    "time": 7.224563999999997,
                    "velocity": 0.4094488188976378,
                    "duration": 0.30102350000000033
                },
                {
                    "name": "F5",
                    "midi": 77,
                    "time": 7.224563999999997,
                    "velocity": 0.4094488188976378,
                    "duration": 0.30102350000000033
                },
                {
                    "name": "G#4",
                    "midi": 68,
                    "time": 7.525587499999998,
                    "velocity": 0.31496062992125984,
                    "duration": 0.30102349999999944
                },
                {
                    "name": "F5",
                    "midi": 77,
                    "time": 7.525587499999998,
                    "velocity": 0.3543307086614173,
                    "duration": 0.15051174999999972
                },
                {
                    "name": "F#5",
                    "midi": 78,
                    "time": 7.676099249999997,
                    "velocity": 0.3543307086614173,
                    "duration": 0.15051174999999972
                },
                {
                    "name": "A4",
                    "midi": 69,
                    "time": 7.826610999999997,
                    "velocity": 0.33858267716535434,
                    "duration": 0.30102350000000033
                },
                {
                    "name": "F5",
                    "midi": 77,
                    "time": 7.826610999999997,
                    "velocity": 0.3779527559055118,
                    "duration": 0.30102350000000033
                },
                {
                    "name": "A4",
                    "midi": 69,
                    "time": 8.127634499999997,
                    "velocity": 0.31496062992125984,
                    "duration": 0.30102349999999944
                },
                {
                    "name": "F5",
                    "midi": 77,
                    "time": 8.127634499999997,
                    "velocity": 0.3543307086614173,
                    "duration": 0.30102349999999944
                },
                {
                    "name": "A#4",
                    "midi": 70,
                    "time": 8.428657999999997,
                    "velocity": 0.33858267716535434,
                    "duration": 0.45153524999999917
                },
                {
                    "name": "F5",
                    "midi": 77,
                    "time": 8.428657999999997,
                    "velocity": 0.3779527559055118,
                    "duration": 0.30102349999999944
                },
                {
                    "name": "A#5",
                    "midi": 82,
                    "time": 8.729681499999996,
                    "velocity": 0.33858267716535434,
                    "duration": 0.15051174999999972
                },
                {
                    "name": "G#4",
                    "midi": 68,
                    "time": 9.030704999999996,
                    "velocity": 0.29133858267716534,
                    "duration": 0.6020470000000007
                },
                {
                    "name": "F5",
                    "midi": 77,
                    "time": 9.030704999999996,
                    "velocity": 0.33070866141732286,
                    "duration": 0.6020470000000007
                },
                {
                    "name": "G#4",
                    "midi": 68,
                    "time": 9.632751999999996,
                    "velocity": 0.29133858267716534,
                    "duration": 0.1655629249999997
                },
                {
                    "name": "C5",
                    "midi": 72,
                    "time": 9.632751999999996,
                    "velocity": 0.33070866141732286,
                    "duration": 0.1655629249999997
                },
                {
                    "name": "G4",
                    "midi": 67,
                    "time": 9.783263749999996,
                    "velocity": 0.2755905511811024,
                    "duration": 0.1655629249999997
                },
                {
                    "name": "A#4",
                    "midi": 70,
                    "time": 9.783263749999996,
                    "velocity": 0.30708661417322836,
                    "duration": 0.1655629249999997
                },
                {
                    "name": "F4",
                    "midi": 65,
                    "time": 9.933775499999996,
                    "velocity": 0.2755905511811024,
                    "duration": 0.1655629249999997
                },
                {
                    "name": "G#4",
                    "midi": 68,
                    "time": 9.933775499999996,
                    "velocity": 0.30708661417322836,
                    "duration": 0.1655629249999997
                },
                {
                    "name": "G4",
                    "midi": 67,
                    "time": 10.084287249999996,
                    "velocity": 0.2755905511811024,
                    "duration": 0.1655629249999997
                },
                {
                    "name": "A#4",
                    "midi": 70,
                    "time": 10.084287249999996,
                    "velocity": 0.30708661417322836,
                    "duration": 0.1655629249999997
                },
                {
                    "name": "G#4",
                    "midi": 68,
                    "time": 10.234798999999995,
                    "velocity": 0.29133858267716534,
                    "duration": 0.30102349999999944
                },
                {
                    "name": "C5",
                    "midi": 72,
                    "time": 10.234798999999995,
                    "velocity": 0.33070866141732286,
                    "duration": 0.15051174999999972
                },
                {
                    "name": "C#5",
                    "midi": 73,
                    "time": 10.385310749999995,
                    "velocity": 0.30708661417322836,
                    "duration": 0.15051174999999972
                },
                {
                    "name": "A#4",
                    "midi": 70,
                    "time": 10.535822499999995,
                    "velocity": 0.30708661417322836,
                    "duration": 0.30102349999999944
                },
                {
                    "name": "G4",
                    "midi": 67,
                    "time": 10.535822499999995,
                    "velocity": 0.2755905511811024,
                    "duration": 0.30102349999999944
                },
                {
                    "name": "C5",
                    "midi": 72,
                    "time": 10.535822499999995,
                    "velocity": 0.30708661417322836,
                    "duration": 0.15051174999999972
                },
                {
                    "name": "E5",
                    "midi": 76,
                    "time": 10.686334249999994,
                    "velocity": 0.30708661417322836,
                    "duration": 0.15051174999999972
                },
                {
                    "name": "F5",
                    "midi": 77,
                    "time": 10.836845999999994,
                    "velocity": 0.33858267716535434,
                    "duration": 0.6020470000000007
                },
                {
                    "name": "C5",
                    "midi": 72,
                    "time": 10.836845999999994,
                    "velocity": 0.2992125984251969,
                    "duration": 0.6020470000000007
                },
                {
                    "name": "G#4",
                    "midi": 68,
                    "time": 10.836845999999994,
                    "velocity": 0.2992125984251969,
                    "duration": 0.6020470000000007
                },
                {
                    "name": "G#4",
                    "midi": 68,
                    "time": 11.438892999999995,
                    "velocity": 0.2992125984251969,
                    "duration": 0.5017058333333342
                },
                {
                    "name": "C5",
                    "midi": 72,
                    "time": 11.438892999999995,
                    "velocity": 0.2992125984251969,
                    "duration": 0.5017058333333342
                },
                {
                    "name": "F5",
                    "midi": 77,
                    "time": 11.438892999999995,
                    "velocity": 0.33858267716535434,
                    "duration": 0.5017058333333342
                },
                {
                    "name": "A#4",
                    "midi": 70,
                    "time": 11.965684124999996,
                    "velocity": 0.3779527559055118,
                    "duration": 0.07525587499999986
                },
                {
                    "name": "G#4",
                    "midi": 68,
                    "time": 12.040939999999996,
                    "velocity": 0.4409448818897638,
                    "duration": 0.15051174999999972
                },
                {
                    "name": "G#4",
                    "midi": 68,
                    "time": 12.341963499999995,
                    "velocity": 0.3937007874015748,
                    "duration": 0.15051174999999972
                },
                {
                    "name": "A#4",
                    "midi": 70,
                    "time": 12.492475249999995,
                    "velocity": 0.3937007874015748,
                    "duration": 0.15051174999999972
                },
                {
                    "name": "G#4",
                    "midi": 68,
                    "time": 12.642986999999994,
                    "velocity": 0.4330708661417323,
                    "duration": 0.15051174999999972
                },
                {
                    "name": "G4",
                    "midi": 67,
                    "time": 12.944010499999994,
                    "velocity": 0.4094488188976378,
                    "duration": 0.15051174999999972
                },
                {
                    "name": "G#4",
                    "midi": 68,
                    "time": 13.094522249999994,
                    "velocity": 0.3779527559055118,
                    "duration": 0.07525587499999986
                },
                {
                    "name": "A#4",
                    "midi": 70,
                    "time": 13.169778124999993,
                    "velocity": 0.3779527559055118,
                    "duration": 0.07525587499999986
                },
                {
                    "name": "G#4",
                    "midi": 68,
                    "time": 13.245033999999993,
                    "velocity": 0.4015748031496063,
                    "duration": 0.45153524999999917
                },
                {
                    "name": "C5",
                    "midi": 72,
                    "time": 13.245033999999993,
                    "velocity": 0.44881889763779526,
                    "duration": 0.45153524999999917
                },
                {
                    "name": "G#4",
                    "midi": 68,
                    "time": 13.696569249999992,
                    "velocity": 0.3779527559055118,
                    "duration": 0.07525587499999986
                },
                {
                    "name": "A#4",
                    "midi": 70,
                    "time": 13.771825124999992,
                    "velocity": 0.3779527559055118,
                    "duration": 0.07525587499999986
                },
                {
                    "name": "G#4",
                    "midi": 68,
                    "time": 13.847080999999992,
                    "velocity": 0.4015748031496063,
                    "duration": 0.5267911250000008
                },
                {
                    "name": "C5",
                    "midi": 72,
                    "time": 13.847080999999992,
                    "velocity": 0.44881889763779526,
                    "duration": 0.5267911250000008
                },
                {
                    "name": "A#4",
                    "midi": 70,
                    "time": 14.373872124999993,
                    "velocity": 0.3779527559055118,
                    "duration": 0.07525587499999986
                },
                {
                    "name": "G#4",
                    "midi": 68,
                    "time": 14.449127999999993,
                    "velocity": 0.4409448818897638,
                    "duration": 0.15051174999999972
                },
                {
                    "name": "G#4",
                    "midi": 68,
                    "time": 14.750151499999992,
                    "velocity": 0.4015748031496063,
                    "duration": 0.15051174999999972
                },
                {
                    "name": "A#4",
                    "midi": 70,
                    "time": 14.900663249999992,
                    "velocity": 0.4015748031496063,
                    "duration": 0.15051174999999972
                },
                {
                    "name": "G#4",
                    "midi": 68,
                    "time": 15.051174999999992,
                    "velocity": 0.4330708661417323,
                    "duration": 0.15051174999999972
                },
                {
                    "name": "G4",
                    "midi": 67,
                    "time": 15.352198499999991,
                    "velocity": 0.3543307086614173,
                    "duration": 0.15051174999999972
                },
                {
                    "name": "C5",
                    "midi": 72,
                    "time": 15.352198499999991,
                    "velocity": 0.4015748031496063,
                    "duration": 0.15051174999999972
                },
                {
                    "name": "C5",
                    "midi": 72,
                    "time": 15.57796612499999,
                    "velocity": 0.3779527559055118,
                    "duration": 0.07525587499999986
                },
                {
                    "name": "F5",
                    "midi": 77,
                    "time": 15.65322199999999,
                    "velocity": 0.47244094488188976,
                    "duration": 0.5267911250000008
                },
                {
                    "name": "G#4",
                    "midi": 68,
                    "time": 15.65322199999999,
                    "velocity": 0.4251968503937008,
                    "duration": 0.5267911250000008
                },
                {
                    "name": "C5",
                    "midi": 72,
                    "time": 16.18001312499999,
                    "velocity": 0.3779527559055118,
                    "duration": 0.07525587499999986
                },
                {
                    "name": "G#4",
                    "midi": 68,
                    "time": 16.25526899999999,
                    "velocity": 0.4094488188976378,
                    "duration": 0.6020469999999989
                },
                {
                    "name": "F5",
                    "midi": 77,
                    "time": 16.25526899999999,
                    "velocity": 0.4566929133858268,
                    "duration": 0.6020469999999989
                },
                {
                    "name": "F#5",
                    "midi": 78,
                    "time": 16.78206012499999,
                    "velocity": 0.33858267716535434,
                    "duration": 0.07525587499999986
                },
                {
                    "name": "G#4",
                    "midi": 68,
                    "time": 16.85731599999999,
                    "velocity": 0.36220472440944884,
                    "duration": 0.30102349999999944
                },
                {
                    "name": "F5",
                    "midi": 77,
                    "time": 16.85731599999999,
                    "velocity": 0.4094488188976378,
                    "duration": 0.30102349999999944
                },
                {
                    "name": "G#4",
                    "midi": 68,
                    "time": 17.15833949999999,
                    "velocity": 0.31496062992125984,
                    "duration": 0.30102349999999944
                },
                {
                    "name": "F5",
                    "midi": 77,
                    "time": 17.15833949999999,
                    "velocity": 0.3543307086614173,
                    "duration": 0.15051174999999972
                },
                {
                    "name": "F#5",
                    "midi": 78,
                    "time": 17.30885124999999,
                    "velocity": 0.3543307086614173,
                    "duration": 0.15051174999999972
                },
                {
                    "name": "A4",
                    "midi": 69,
                    "time": 17.45936299999999,
                    "velocity": 0.33858267716535434,
                    "duration": 0.30102349999999944
                },
                {
                    "name": "F5",
                    "midi": 77,
                    "time": 17.45936299999999,
                    "velocity": 0.3779527559055118,
                    "duration": 0.30102349999999944
                },
                {
                    "name": "A4",
                    "midi": 69,
                    "time": 17.76038649999999,
                    "velocity": 0.31496062992125984,
                    "duration": 0.30102349999999944
                },
                {
                    "name": "F5",
                    "midi": 77,
                    "time": 17.76038649999999,
                    "velocity": 0.3543307086614173,
                    "duration": 0.30102349999999944
                },
                {
                    "name": "A#4",
                    "midi": 70,
                    "time": 18.061409999999988,
                    "velocity": 0.33858267716535434,
                    "duration": 0.45153524999999917
                },
                {
                    "name": "F5",
                    "midi": 77,
                    "time": 18.061409999999988,
                    "velocity": 0.3779527559055118,
                    "duration": 0.30102349999999944
                },
                {
                    "name": "A#5",
                    "midi": 82,
                    "time": 18.362433499999987,
                    "velocity": 0.33858267716535434,
                    "duration": 0.15051174999999972
                },
                {
                    "name": "G#4",
                    "midi": 68,
                    "time": 18.663456999999987,
                    "velocity": 0.29133858267716534,
                    "duration": 0.6020469999999989
                },
                {
                    "name": "F5",
                    "midi": 77,
                    "time": 18.663456999999987,
                    "velocity": 0.33070866141732286,
                    "duration": 0.6020469999999989
                },
                {
                    "name": "G#4",
                    "midi": 68,
                    "time": 19.265503999999986,
                    "velocity": 0.29133858267716534,
                    "duration": 0.1655629249999997
                },
                {
                    "name": "C5",
                    "midi": 72,
                    "time": 19.265503999999986,
                    "velocity": 0.33070866141732286,
                    "duration": 0.1655629249999997
                },
                {
                    "name": "G4",
                    "midi": 67,
                    "time": 19.416015749999985,
                    "velocity": 0.2755905511811024,
                    "duration": 0.1655629249999997
                },
                {
                    "name": "A#4",
                    "midi": 70,
                    "time": 19.416015749999985,
                    "velocity": 0.30708661417322836,
                    "duration": 0.1655629249999997
                },
                {
                    "name": "F4",
                    "midi": 65,
                    "time": 19.566527499999985,
                    "velocity": 0.2755905511811024,
                    "duration": 0.1655629249999997
                },
                {
                    "name": "G#4",
                    "midi": 68,
                    "time": 19.566527499999985,
                    "velocity": 0.30708661417322836,
                    "duration": 0.1655629249999997
                },
                {
                    "name": "G4",
                    "midi": 67,
                    "time": 19.717039249999985,
                    "velocity": 0.2755905511811024,
                    "duration": 0.1655629249999997
                },
                {
                    "name": "A#4",
                    "midi": 70,
                    "time": 19.717039249999985,
                    "velocity": 0.30708661417322836,
                    "duration": 0.1655629249999997
                },
                {
                    "name": "G#4",
                    "midi": 68,
                    "time": 19.867550999999985,
                    "velocity": 0.33070866141732286,
                    "duration": 0.30102349999999944
                },
                {
                    "name": "C5",
                    "midi": 72,
                    "time": 19.867550999999985,
                    "velocity": 0.33070866141732286,
                    "duration": 0.15051174999999972
                },
                {
                    "name": "C#5",
                    "midi": 73,
                    "time": 20.018062749999984,
                    "velocity": 0.30708661417322836,
                    "duration": 0.15051174999999972
                },
                {
                    "name": "A#4",
                    "midi": 70,
                    "time": 20.168574499999984,
                    "velocity": 0.30708661417322836,
                    "duration": 0.30102349999999944
                },
                {
                    "name": "G4",
                    "midi": 67,
                    "time": 20.168574499999984,
                    "velocity": 0.2755905511811024,
                    "duration": 0.30102349999999944
                },
                {
                    "name": "C5",
                    "midi": 72,
                    "time": 20.168574499999984,
                    "velocity": 0.30708661417322836,
                    "duration": 0.15051174999999972
                },
                {
                    "name": "E5",
                    "midi": 76,
                    "time": 20.319086249999984,
                    "velocity": 0.30708661417322836,
                    "duration": 0.15051174999999972
                },
                {
                    "name": "F5",
                    "midi": 77,
                    "time": 20.469597999999984,
                    "velocity": 0.33858267716535434,
                    "duration": 0.6020469999999989
                },
                {
                    "name": "C5",
                    "midi": 72,
                    "time": 20.469597999999984,
                    "velocity": 0.2992125984251969,
                    "duration": 0.6020469999999989
                },
                {
                    "name": "G#4",
                    "midi": 68,
                    "time": 20.469597999999984,
                    "velocity": 0.2992125984251969,
                    "duration": 0.6020469999999989
                },
                {
                    "name": "G#4",
                    "midi": 68,
                    "time": 21.071644999999982,
                    "velocity": 0.2992125984251969,
                    "duration": 0.6020469999999989
                },
                {
                    "name": "C5",
                    "midi": 72,
                    "time": 21.071644999999982,
                    "velocity": 0.2992125984251969,
                    "duration": 0.6020469999999989
                },
                {
                    "name": "F5",
                    "midi": 77,
                    "time": 21.071644999999982,
                    "velocity": 0.33858267716535434,
                    "duration": 0.6020469999999989
                },
                {
                    "name": "C5",
                    "midi": 72,
                    "time": 21.67369199999998,
                    "velocity": 0.44881889763779526,
                    "duration": 0.6020469999999989
                },
                {
                    "name": "C5",
                    "midi": 72,
                    "time": 22.27573899999998,
                    "velocity": 0.44881889763779526,
                    "duration": 0.6020469999999989
                },
                {
                    "name": "C5",
                    "midi": 72,
                    "time": 22.87778599999998,
                    "velocity": 0.3937007874015748,
                    "duration": 0.1655629249999997
                },
                {
                    "name": "C#5",
                    "midi": 73,
                    "time": 23.02829774999998,
                    "velocity": 0.4015748031496063,
                    "duration": 0.1655629249999997
                },
                {
                    "name": "D#5",
                    "midi": 75,
                    "time": 23.17880949999998,
                    "velocity": 0.4330708661417323,
                    "duration": 0.1655629249999997
                },
                {
                    "name": "C#5",
                    "midi": 73,
                    "time": 23.32932124999998,
                    "velocity": 0.4094488188976378,
                    "duration": 0.15051174999999972
                },
                {
                    "name": "C#5",
                    "midi": 73,
                    "time": 23.479832999999978,
                    "velocity": 0.4094488188976378,
                    "duration": 0.45153524999999917
                },
                {
                    "name": "C5",
                    "midi": 72,
                    "time": 23.931368249999977,
                    "velocity": 0.3858267716535433,
                    "duration": 0.07525587499999986
                },
                {
                    "name": "C5",
                    "midi": 72,
                    "time": 24.04425206249998,
                    "velocity": 0.33858267716535434,
                    "duration": 0.03762793750000171
                },
                {
                    "name": "A#4",
                    "midi": 70,
                    "time": 24.08187999999998,
                    "velocity": 0.4094488188976378,
                    "duration": 0.15051174999999972
                },
                {
                    "name": "A#4",
                    "midi": 70,
                    "time": 24.38290349999998,
                    "velocity": 0.3779527559055118,
                    "duration": 0.15051174999999972
                },
                {
                    "name": "C5",
                    "midi": 72,
                    "time": 24.68392699999998,
                    "velocity": 0.4015748031496063,
                    "duration": 0.15051174999999972
                },
                {
                    "name": "A#4",
                    "midi": 70,
                    "time": 24.83443874999998,
                    "velocity": 0.3858267716535433,
                    "duration": 0.15051174999999972
                },
                {
                    "name": "G#4",
                    "midi": 68,
                    "time": 24.98495049999998,
                    "velocity": 0.36220472440944884,
                    "duration": 0.15051174999999972
                },
                {
                    "name": "A#4",
                    "midi": 70,
                    "time": 25.13546224999998,
                    "velocity": 0.3937007874015748,
                    "duration": 0.15051174999999972
                },
                {
                    "name": "A#4",
                    "midi": 70,
                    "time": 25.285973999999978,
                    "velocity": 0.4251968503937008,
                    "duration": 0.6020469999999989
                },
                {
                    "name": "C5",
                    "midi": 72,
                    "time": 25.888020999999977,
                    "velocity": 0.4251968503937008,
                    "duration": 0.526791124999999
                },
                {
                    "name": "D#5",
                    "midi": 75,
                    "time": 26.414812124999976,
                    "velocity": 0.36220472440944884,
                    "duration": 0.07525587499999986
                },
                {
                    "name": "G#5",
                    "midi": 80,
                    "time": 26.490067999999976,
                    "velocity": 0.44881889763779526,
                    "duration": 0.526791124999999
                },
                {
                    "name": "C5",
                    "midi": 72,
                    "time": 26.490067999999976,
                    "velocity": 0.4015748031496063,
                    "duration": 0.526791124999999
                },
                {
                    "name": "D#5",
                    "midi": 75,
                    "time": 27.016859124999975,
                    "velocity": 0.3543307086614173,
                    "duration": 0.07525587499999986
                },
                {
                    "name": "C5",
                    "midi": 72,
                    "time": 27.092114999999975,
                    "velocity": 0.4409448818897638,
                    "duration": 0.6020469999999989
                },
                {
                    "name": "G#5",
                    "midi": 80,
                    "time": 27.092114999999975,
                    "velocity": 0.4409448818897638,
                    "duration": 0.6020469999999989
                },
                {
                    "name": "D#5",
                    "midi": 75,
                    "time": 27.694161999999974,
                    "velocity": 0.3543307086614173,
                    "duration": 0.1655629249999997
                },
                {
                    "name": "G5",
                    "midi": 79,
                    "time": 27.694161999999974,
                    "velocity": 0.3937007874015748,
                    "duration": 0.1655629249999997
                },
                {
                    "name": "C#5",
                    "midi": 73,
                    "time": 27.844673749999973,
                    "velocity": 0.3543307086614173,
                    "duration": 0.1655629249999997
                },
                {
                    "name": "F5",
                    "midi": 77,
                    "time": 27.844673749999973,
                    "velocity": 0.3937007874015748,
                    "duration": 0.1655629249999997
                },
                {
                    "name": "C5",
                    "midi": 72,
                    "time": 27.995185499999973,
                    "velocity": 0.31496062992125984,
                    "duration": 0.1655629249999997
                },
                {
                    "name": "E5",
                    "midi": 76,
                    "time": 27.995185499999973,
                    "velocity": 0.3543307086614173,
                    "duration": 0.1655629249999997
                },
                {
                    "name": "C#5",
                    "midi": 73,
                    "time": 28.145697249999973,
                    "velocity": 0.31496062992125984,
                    "duration": 0.15051174999999972
                },
                {
                    "name": "F5",
                    "midi": 77,
                    "time": 28.145697249999973,
                    "velocity": 0.3543307086614173,
                    "duration": 0.15051174999999972
                },
                {
                    "name": "C#5",
                    "midi": 73,
                    "time": 28.296208999999973,
                    "velocity": 0.3543307086614173,
                    "duration": 0.6020469999999989
                },
                {
                    "name": "F5",
                    "midi": 77,
                    "time": 28.296208999999973,
                    "velocity": 0.3937007874015748,
                    "duration": 0.6020469999999989
                },
                {
                    "name": "G4",
                    "midi": 67,
                    "time": 28.89825599999997,
                    "velocity": 0.3858267716535433,
                    "duration": 0.30102349999999944
                },
                {
                    "name": "C#5",
                    "midi": 73,
                    "time": 28.89825599999997,
                    "velocity": 0.3858267716535433,
                    "duration": 0.30102349999999944
                },
                {
                    "name": "F5",
                    "midi": 77,
                    "time": 28.89825599999997,
                    "velocity": 0.4330708661417323,
                    "duration": 0.15051174999999972
                },
                {
                    "name": "D#5",
                    "midi": 75,
                    "time": 29.04876774999997,
                    "velocity": 0.36220472440944884,
                    "duration": 0.15051174999999972
                },
                {
                    "name": "D#5",
                    "midi": 75,
                    "time": 29.19927949999997,
                    "velocity": 0.36220472440944884,
                    "duration": 0.6020469999999989
                },
                {
                    "name": "C#5",
                    "midi": 73,
                    "time": 29.19927949999997,
                    "velocity": 0.36220472440944884,
                    "duration": 0.6020469999999989
                },
                {
                    "name": "G4",
                    "midi": 67,
                    "time": 29.19927949999997,
                    "velocity": 0.36220472440944884,
                    "duration": 0.15051174999999972
                },
                {
                    "name": "G#4",
                    "midi": 68,
                    "time": 29.34979124999997,
                    "velocity": 0.36220472440944884,
                    "duration": 0.15051174999999972
                },
                {
                    "name": "A#4",
                    "midi": 70,
                    "time": 29.50030299999997,
                    "velocity": 0.4094488188976378,
                    "duration": 0.30102349999999944
                },
                {
                    "name": "G#4",
                    "midi": 68,
                    "time": 29.80132649999997,
                    "velocity": 0.33070866141732286,
                    "duration": 0.15051174999999972
                },
                {
                    "name": "C#5",
                    "midi": 73,
                    "time": 29.80132649999997,
                    "velocity": 0.33070866141732286,
                    "duration": 0.30102349999999944
                },
                {
                    "name": "D#5",
                    "midi": 75,
                    "time": 29.80132649999997,
                    "velocity": 0.33070866141732286,
                    "duration": 0.30102349999999944
                },
                {
                    "name": "G4",
                    "midi": 67,
                    "time": 29.95183824999997,
                    "velocity": 0.33070866141732286,
                    "duration": 0.15051174999999972
                },
                {
                    "name": "G#4",
                    "midi": 68,
                    "time": 30.10234999999997,
                    "velocity": 0.2755905511811024,
                    "duration": 0.6020469999999989
                },
                {
                    "name": "C5",
                    "midi": 72,
                    "time": 30.10234999999997,
                    "velocity": 0.2755905511811024,
                    "duration": 0.6020469999999989
                },
                {
                    "name": "D#5",
                    "midi": 75,
                    "time": 30.10234999999997,
                    "velocity": 0.30708661417322836,
                    "duration": 0.6020469999999989
                },
                {
                    "name": "D#5",
                    "midi": 75,
                    "time": 30.704396999999968,
                    "velocity": 0.30708661417322836,
                    "duration": 0.6020469999999989
                },
                {
                    "name": "C5",
                    "midi": 72,
                    "time": 30.704396999999968,
                    "velocity": 0.2755905511811024,
                    "duration": 0.6020469999999989
                },
                {
                    "name": "G#4",
                    "midi": 68,
                    "time": 30.704396999999968,
                    "velocity": 0.2755905511811024,
                    "duration": 0.6020469999999989
                },
                {
                    "name": "C5",
                    "midi": 72,
                    "time": 31.306443999999967,
                    "velocity": 0.44881889763779526,
                    "duration": 0.6020469999999989
                },
                {
                    "name": "C5",
                    "midi": 72,
                    "time": 31.908490999999966,
                    "velocity": 0.44881889763779526,
                    "duration": 0.6020470000000024
                },
                {
                    "name": "C5",
                    "midi": 72,
                    "time": 32.51053799999997,
                    "velocity": 0.3937007874015748,
                    "duration": 0.16556292500000325
                },
                {
                    "name": "C#5",
                    "midi": 73,
                    "time": 32.66104974999997,
                    "velocity": 0.4015748031496063,
                    "duration": 0.16556292500001035
                },
                {
                    "name": "D#5",
                    "midi": 75,
                    "time": 32.811561499999975,
                    "velocity": 0.4330708661417323,
                    "duration": 0.16556292500001035
                },
                {
                    "name": "C#5",
                    "midi": 73,
                    "time": 32.96207324999998,
                    "velocity": 0.4094488188976378,
                    "duration": 0.15051175000000683
                },
                {
                    "name": "C#5",
                    "midi": 73,
                    "time": 33.11258499999999,
                    "velocity": 0.4094488188976378,
                    "duration": 0.45153524999999917
                },
                {
                    "name": "C5",
                    "midi": 72,
                    "time": 33.56412024999999,
                    "velocity": 0.3858267716535433,
                    "duration": 0.07525587500000341
                },
                {
                    "name": "C5",
                    "midi": 72,
                    "time": 33.67700406249999,
                    "velocity": 0.33858267716535434,
                    "duration": 0.037627937499998154
                },
                {
                    "name": "A#4",
                    "midi": 70,
                    "time": 33.71463199999999,
                    "velocity": 0.4094488188976378,
                    "duration": 0.30102349999999944
                },
                {
                    "name": "A#4",
                    "midi": 70,
                    "time": 34.01565549999999,
                    "velocity": 0.3779527559055118,
                    "duration": 0.30102349999999944
                },
                {
                    "name": "C5",
                    "midi": 72,
                    "time": 34.316678999999986,
                    "velocity": 0.4015748031496063,
                    "duration": 0.15051174999999972
                },
                {
                    "name": "A#4",
                    "midi": 70,
                    "time": 34.467190749999986,
                    "velocity": 0.3858267716535433,
                    "duration": 0.15051174999999972
                },
                {
                    "name": "G#4",
                    "midi": 68,
                    "time": 34.617702499999986,
                    "velocity": 0.36220472440944884,
                    "duration": 0.15051174999999972
                },
                {
                    "name": "A#4",
                    "midi": 70,
                    "time": 34.768214249999986,
                    "velocity": 0.3937007874015748,
                    "duration": 0.15051174999999972
                },
                {
                    "name": "A#4",
                    "midi": 70,
                    "time": 34.918725999999985,
                    "velocity": 0.4251968503937008,
                    "duration": 0.6020469999999989
                },
                {
                    "name": "C5",
                    "midi": 72,
                    "time": 35.520772999999984,
                    "velocity": 0.4251968503937008,
                    "duration": 0.5267911250000026
                },
                {
                    "name": "D#5",
                    "midi": 75,
                    "time": 36.04756412499999,
                    "velocity": 0.36220472440944884,
                    "duration": 0.07525587500000341
                },
                {
                    "name": "G#5",
                    "midi": 80,
                    "time": 36.12281999999999,
                    "velocity": 0.44881889763779526,
                    "duration": 0.5267911250000026
                },
                {
                    "name": "C5",
                    "midi": 72,
                    "time": 36.12281999999999,
                    "velocity": 0.4015748031496063,
                    "duration": 0.5267911250000026
                },
                {
                    "name": "D#5",
                    "midi": 75,
                    "time": 36.64961112499999,
                    "velocity": 0.3543307086614173,
                    "duration": 0.07525587500000341
                },
                {
                    "name": "C5",
                    "midi": 72,
                    "time": 36.724866999999996,
                    "velocity": 0.4409448818897638,
                    "duration": 0.6020469999999989
                },
                {
                    "name": "G#5",
                    "midi": 80,
                    "time": 36.724866999999996,
                    "velocity": 0.4409448818897638,
                    "duration": 0.6020469999999989
                },
                {
                    "name": "D#5",
                    "midi": 75,
                    "time": 37.326913999999995,
                    "velocity": 0.3543307086614173,
                    "duration": 0.16556292500000325
                },
                {
                    "name": "G5",
                    "midi": 79,
                    "time": 37.326913999999995,
                    "velocity": 0.3937007874015748,
                    "duration": 0.16556292500000325
                },
                {
                    "name": "C#5",
                    "midi": 73,
                    "time": 37.477425749999995,
                    "velocity": 0.3543307086614173,
                    "duration": 0.16556292500001035
                },
                {
                    "name": "F5",
                    "midi": 77,
                    "time": 37.477425749999995,
                    "velocity": 0.3937007874015748,
                    "duration": 0.16556292500001035
                },
                {
                    "name": "C5",
                    "midi": 72,
                    "time": 37.6279375,
                    "velocity": 0.31496062992125984,
                    "duration": 0.16556292500001035
                },
                {
                    "name": "E5",
                    "midi": 76,
                    "time": 37.6279375,
                    "velocity": 0.3543307086614173,
                    "duration": 0.16556292500001035
                },
                {
                    "name": "C#5",
                    "midi": 73,
                    "time": 37.77844925000001,
                    "velocity": 0.31496062992125984,
                    "duration": 0.15051175000000683
                },
                {
                    "name": "F5",
                    "midi": 77,
                    "time": 37.77844925000001,
                    "velocity": 0.3543307086614173,
                    "duration": 0.15051175000000683
                },
                {
                    "name": "C#5",
                    "midi": 73,
                    "time": 37.928961000000015,
                    "velocity": 0.3543307086614173,
                    "duration": 0.6020469999999989
                },
                {
                    "name": "F5",
                    "midi": 77,
                    "time": 37.928961000000015,
                    "velocity": 0.3937007874015748,
                    "duration": 0.6020469999999989
                },
                {
                    "name": "G4",
                    "midi": 67,
                    "time": 38.531008000000014,
                    "velocity": 0.3858267716535433,
                    "duration": 0.30102349999999944
                },
                {
                    "name": "C#5",
                    "midi": 73,
                    "time": 38.531008000000014,
                    "velocity": 0.3858267716535433,
                    "duration": 0.30102349999999944
                },
                {
                    "name": "F5",
                    "midi": 77,
                    "time": 38.531008000000014,
                    "velocity": 0.4330708661417323,
                    "duration": 0.15051174999999972
                },
                {
                    "name": "D#5",
                    "midi": 75,
                    "time": 38.681519750000014,
                    "velocity": 0.36220472440944884,
                    "duration": 0.15051174999999972
                },
                {
                    "name": "D#5",
                    "midi": 75,
                    "time": 38.832031500000014,
                    "velocity": 0.36220472440944884,
                    "duration": 0.6020469999999989
                },
                {
                    "name": "C#5",
                    "midi": 73,
                    "time": 38.832031500000014,
                    "velocity": 0.36220472440944884,
                    "duration": 0.6020469999999989
                },
                {
                    "name": "G4",
                    "midi": 67,
                    "time": 38.832031500000014,
                    "velocity": 0.36220472440944884,
                    "duration": 0.15051174999999972
                },
                {
                    "name": "G#4",
                    "midi": 68,
                    "time": 38.98254325000001,
                    "velocity": 0.36220472440944884,
                    "duration": 0.15051174999999972
                },
                {
                    "name": "A#4",
                    "midi": 70,
                    "time": 39.13305500000001,
                    "velocity": 0.4094488188976378,
                    "duration": 0.30102349999999944
                },
                {
                    "name": "G#4",
                    "midi": 68,
                    "time": 39.43407850000001,
                    "velocity": 0.33070866141732286,
                    "duration": 0.15051174999999972
                },
                {
                    "name": "C#5",
                    "midi": 73,
                    "time": 39.43407850000001,
                    "velocity": 0.33070866141732286,
                    "duration": 0.30102349999999944
                },
                {
                    "name": "D#5",
                    "midi": 75,
                    "time": 39.43407850000001,
                    "velocity": 0.33070866141732286,
                    "duration": 0.30102349999999944
                },
                {
                    "name": "G4",
                    "midi": 67,
                    "time": 39.58459025000001,
                    "velocity": 0.33070866141732286,
                    "duration": 0.15051174999999972
                },
                {
                    "name": "G#4",
                    "midi": 68,
                    "time": 39.73510200000001,
                    "velocity": 0.2755905511811024,
                    "duration": 0.6020469999999989
                },
                {
                    "name": "C5",
                    "midi": 72,
                    "time": 39.73510200000001,
                    "velocity": 0.2755905511811024,
                    "duration": 0.6020469999999989
                },
                {
                    "name": "D#5",
                    "midi": 75,
                    "time": 39.73510200000001,
                    "velocity": 0.30708661417322836,
                    "duration": 0.6020469999999989
                },
                {
                    "name": "D#5",
                    "midi": 75,
                    "time": 40.33714900000001,
                    "velocity": 0.30708661417322836,
                    "duration": 0.6020469999999989
                },
                {
                    "name": "C5",
                    "midi": 72,
                    "time": 40.33714900000001,
                    "velocity": 0.2755905511811024,
                    "duration": 0.6020469999999989
                },
                {
                    "name": "G#4",
                    "midi": 68,
                    "time": 40.33714900000001,
                    "velocity": 0.2755905511811024,
                    "duration": 0.6020469999999989
                },
                {
                    "name": "E5",
                    "midi": 76,
                    "time": 40.93919600000001,
                    "velocity": 0.5039370078740157,
                    "duration": 0.6020469999999989
                },
                {
                    "name": "C5",
                    "midi": 72,
                    "time": 40.93919600000001,
                    "velocity": 0.44881889763779526,
                    "duration": 0.6020469999999989
                },
                {
                    "name": "A#4",
                    "midi": 70,
                    "time": 40.93919600000001,
                    "velocity": 0.44881889763779526,
                    "duration": 0.6020469999999989
                },
                {
                    "name": "G4",
                    "midi": 67,
                    "time": 40.93919600000001,
                    "velocity": 0.44881889763779526,
                    "duration": 0.6020469999999989
                },
                {
                    "name": "E5",
                    "midi": 76,
                    "time": 41.54124300000001,
                    "velocity": 0.5039370078740157,
                    "duration": 0.5267911250000026
                },
                {
                    "name": "C5",
                    "midi": 72,
                    "time": 41.54124300000001,
                    "velocity": 0.44881889763779526,
                    "duration": 0.5267911250000026
                },
                {
                    "name": "A#4",
                    "midi": 70,
                    "time": 41.54124300000001,
                    "velocity": 0.44881889763779526,
                    "duration": 0.5267911250000026
                },
                {
                    "name": "G4",
                    "midi": 67,
                    "time": 41.54124300000001,
                    "velocity": 0.44881889763779526,
                    "duration": 0.5267911250000026
                },
                {
                    "name": "F5",
                    "midi": 77,
                    "time": 42.06803412500001,
                    "velocity": 0.4409448818897638,
                    "duration": 0.07525587500000341
                },
                {
                    "name": "G#4",
                    "midi": 68,
                    "time": 42.143290000000015,
                    "velocity": 0.4251968503937008,
                    "duration": 0.30102349999999944
                },
                {
                    "name": "C5",
                    "midi": 72,
                    "time": 42.143290000000015,
                    "velocity": 0.4251968503937008,
                    "duration": 0.30102349999999944
                },
                {
                    "name": "G#5",
                    "midi": 80,
                    "time": 42.143290000000015,
                    "velocity": 0.5433070866141733,
                    "duration": 0.30102349999999944
                },
                {
                    "name": "G#4",
                    "midi": 68,
                    "time": 42.444313500000014,
                    "velocity": 0.3779527559055118,
                    "duration": 0.9030704999999983
                },
                {
                    "name": "C5",
                    "midi": 72,
                    "time": 42.444313500000014,
                    "velocity": 0.3779527559055118,
                    "duration": 0.9030704999999983
                },
                {
                    "name": "G#5",
                    "midi": 80,
                    "time": 42.444313500000014,
                    "velocity": 0.5196850393700787,
                    "duration": 0.15051174999999972
                },
                {
                    "name": "G5",
                    "midi": 79,
                    "time": 42.594825250000014,
                    "velocity": 0.5275590551181102,
                    "duration": 0.15051174999999972
                },
                {
                    "name": "F5",
                    "midi": 77,
                    "time": 42.74533700000001,
                    "velocity": 0.5275590551181102,
                    "duration": 0.30102349999999944
                },
                {
                    "name": "D#5",
                    "midi": 75,
                    "time": 43.04636050000001,
                    "velocity": 0.49606299212598426,
                    "duration": 0.15051174999999972
                },
                {
                    "name": "C#5",
                    "midi": 73,
                    "time": 43.19687225000001,
                    "velocity": 0.49606299212598426,
                    "duration": 0.15051174999999972
                },
                {
                    "name": "G4",
                    "midi": 67,
                    "time": 43.34738400000001,
                    "velocity": 0.44881889763779526,
                    "duration": 0.6020469999999989
                },
                {
                    "name": "A#4",
                    "midi": 70,
                    "time": 43.34738400000001,
                    "velocity": 0.44881889763779526,
                    "duration": 0.6020469999999989
                },
                {
                    "name": "C5",
                    "midi": 72,
                    "time": 43.34738400000001,
                    "velocity": 0.5039370078740157,
                    "duration": 0.6020469999999989
                },
                {
                    "name": "G4",
                    "midi": 67,
                    "time": 43.94943100000001,
                    "velocity": 0.44881889763779526,
                    "duration": 0.5267911250000026
                },
                {
                    "name": "A#4",
                    "midi": 70,
                    "time": 43.94943100000001,
                    "velocity": 0.44881889763779526,
                    "duration": 0.5267911250000026
                },
                {
                    "name": "C5",
                    "midi": 72,
                    "time": 43.94943100000001,
                    "velocity": 0.44881889763779526,
                    "duration": 0.5267911250000026
                },
                {
                    "name": "E5",
                    "midi": 76,
                    "time": 43.94943100000001,
                    "velocity": 0.5039370078740157,
                    "duration": 0.5267911250000026
                },
                {
                    "name": "F5",
                    "midi": 77,
                    "time": 44.476222125000014,
                    "velocity": 0.44881889763779526,
                    "duration": 0.07525587500000341
                },
                {
                    "name": "G#4",
                    "midi": 68,
                    "time": 44.55147800000002,
                    "velocity": 0.4330708661417323,
                    "duration": 0.30102349999999944
                },
                {
                    "name": "C5",
                    "midi": 72,
                    "time": 44.55147800000002,
                    "velocity": 0.4330708661417323,
                    "duration": 0.30102349999999944
                },
                {
                    "name": "G#5",
                    "midi": 80,
                    "time": 44.55147800000002,
                    "velocity": 0.5748031496062992,
                    "duration": 0.30102349999999944
                },
                {
                    "name": "G#4",
                    "midi": 68,
                    "time": 44.85250150000002,
                    "velocity": 0.36220472440944884,
                    "duration": 0.9030704999999983
                },
                {
                    "name": "C5",
                    "midi": 72,
                    "time": 44.85250150000002,
                    "velocity": 0.36220472440944884,
                    "duration": 0.9030704999999983
                },
                {
                    "name": "G#5",
                    "midi": 80,
                    "time": 44.85250150000002,
                    "velocity": 0.4881889763779528,
                    "duration": 0.15051174999999972
                },
                {
                    "name": "G5",
                    "midi": 79,
                    "time": 45.003013250000016,
                    "velocity": 0.4881889763779528,
                    "duration": 0.15051174999999972
                },
                {
                    "name": "F5",
                    "midi": 77,
                    "time": 45.153525000000016,
                    "velocity": 0.4881889763779528,
                    "duration": 0.30102349999999944
                },
                {
                    "name": "D#5",
                    "midi": 75,
                    "time": 45.454548500000016,
                    "velocity": 0.4409448818897638,
                    "duration": 0.15051174999999972
                },
                {
                    "name": "C#5",
                    "midi": 73,
                    "time": 45.605060250000015,
                    "velocity": 0.4409448818897638,
                    "duration": 0.15051174999999972
                },
                {
                    "name": "G#4",
                    "midi": 68,
                    "time": 45.755572000000015,
                    "velocity": 0.3543307086614173,
                    "duration": 0.6020469999999989
                },
                {
                    "name": "C5",
                    "midi": 72,
                    "time": 45.755572000000015,
                    "velocity": 0.4015748031496063,
                    "duration": 0.6020469999999989
                },
                {
                    "name": "F#4",
                    "midi": 66,
                    "time": 46.357619000000014,
                    "velocity": 0.3858267716535433,
                    "duration": 0.6020469999999989
                },
                {
                    "name": "C5",
                    "midi": 72,
                    "time": 46.357619000000014,
                    "velocity": 0.4330708661417323,
                    "duration": 0.6020469999999989
                },
                {
                    "name": "C5",
                    "midi": 72,
                    "time": 46.95966600000001,
                    "velocity": 0.44881889763779526,
                    "duration": 0.16556292500000325
                },
                {
                    "name": "F4",
                    "midi": 65,
                    "time": 46.95966600000001,
                    "velocity": 0.4015748031496063,
                    "duration": 0.6020470000000202
                },
                {
                    "name": "C#5",
                    "midi": 73,
                    "time": 47.11017775000001,
                    "velocity": 0.47244094488188976,
                    "duration": 0.16556292500001035
                },
                {
                    "name": "D#5",
                    "midi": 75,
                    "time": 47.26068950000002,
                    "velocity": 0.4881889763779528,
                    "duration": 0.16556292500001035
                },
                {
                    "name": "C#5",
                    "midi": 73,
                    "time": 47.411201250000026,
                    "velocity": 0.4566929133858268,
                    "duration": 0.15051175000000683
                },
                {
                    "name": "F4",
                    "midi": 65,
                    "time": 47.56171300000003,
                    "velocity": 0.4094488188976378,
                    "duration": 0.30102349999999944
                },
                {
                    "name": "C#5",
                    "midi": 73,
                    "time": 47.56171300000003,
                    "velocity": 0.4566929133858268,
                    "duration": 0.30102349999999944
                },
                {
                    "name": "D#4",
                    "midi": 63,
                    "time": 47.86273650000003,
                    "velocity": 0.36220472440944884,
                    "duration": 0.15051174999999972
                },
                {
                    "name": "C5",
                    "midi": 72,
                    "time": 47.86273650000003,
                    "velocity": 0.4094488188976378,
                    "duration": 0.15051174999999972
                },
                {
                    "name": "C#4",
                    "midi": 61,
                    "time": 48.01324825000003,
                    "velocity": 0.3543307086614173,
                    "duration": 0.15051174999999972
                },
                {
                    "name": "A#4",
                    "midi": 70,
                    "time": 48.01324825000003,
                    "velocity": 0.3937007874015748,
                    "duration": 0.15051174999999972
                },
                {
                    "name": "C4",
                    "midi": 60,
                    "time": 48.16376000000003,
                    "velocity": 0.33858267716535434,
                    "duration": 0.30102349999999944
                },
                {
                    "name": "G#4",
                    "midi": 68,
                    "time": 48.16376000000003,
                    "velocity": 0.3779527559055118,
                    "duration": 0.30102349999999944
                },
                {
                    "name": "C4",
                    "midi": 60,
                    "time": 48.46478350000003,
                    "velocity": 0.33858267716535434,
                    "duration": 0.30102349999999944
                },
                {
                    "name": "G#4",
                    "midi": 68,
                    "time": 48.46478350000003,
                    "velocity": 0.3779527559055118,
                    "duration": 0.30102349999999944
                },
                {
                    "name": "C4",
                    "midi": 60,
                    "time": 48.76580700000003,
                    "velocity": 0.2992125984251969,
                    "duration": 0.16556292500000325
                },
                {
                    "name": "G#4",
                    "midi": 68,
                    "time": 48.76580700000003,
                    "velocity": 0.33858267716535434,
                    "duration": 0.16556292500000325
                },
                {
                    "name": "C#4",
                    "midi": 61,
                    "time": 48.91631875000003,
                    "velocity": 0.30708661417322836,
                    "duration": 0.16556292500001035
                },
                {
                    "name": "A#4",
                    "midi": 70,
                    "time": 48.91631875000003,
                    "velocity": 0.3464566929133858,
                    "duration": 0.16556292500001035
                },
                {
                    "name": "D#4",
                    "midi": 63,
                    "time": 49.06683050000004,
                    "velocity": 0.31496062992125984,
                    "duration": 0.16556292500001035
                },
                {
                    "name": "C5",
                    "midi": 72,
                    "time": 49.06683050000004,
                    "velocity": 0.3543307086614173,
                    "duration": 0.16556292500001035
                },
                {
                    "name": "C#4",
                    "midi": 61,
                    "time": 49.217342250000044,
                    "velocity": 0.30708661417322836,
                    "duration": 0.16556292500001035
                },
                {
                    "name": "A#4",
                    "midi": 70,
                    "time": 49.217342250000044,
                    "velocity": 0.3464566929133858,
                    "duration": 0.16556292500001035
                },
                {
                    "name": "C4",
                    "midi": 60,
                    "time": 49.36785400000005,
                    "velocity": 0.2992125984251969,
                    "duration": 0.602047000000006
                },
                {
                    "name": "G#4",
                    "midi": 68,
                    "time": 49.36785400000005,
                    "velocity": 0.33858267716535434,
                    "duration": 0.602047000000006
                },
                {
                    "name": "C4",
                    "midi": 60,
                    "time": 49.96990100000006,
                    "velocity": 0.2992125984251969,
                    "duration": 0.6020469999999989
                },
                {
                    "name": "G#4",
                    "midi": 68,
                    "time": 49.96990100000006,
                    "velocity": 0.33858267716535434,
                    "duration": 0.6020469999999989
                },
                {
                    "name": "E5",
                    "midi": 76,
                    "time": 50.571948000000056,
                    "velocity": 0.5039370078740157,
                    "duration": 0.6020469999999989
                },
                {
                    "name": "C5",
                    "midi": 72,
                    "time": 50.571948000000056,
                    "velocity": 0.44881889763779526,
                    "duration": 0.6020469999999989
                },
                {
                    "name": "A#4",
                    "midi": 70,
                    "time": 50.571948000000056,
                    "velocity": 0.44881889763779526,
                    "duration": 0.6020469999999989
                },
                {
                    "name": "G4",
                    "midi": 67,
                    "time": 50.571948000000056,
                    "velocity": 0.44881889763779526,
                    "duration": 0.6020469999999989
                },
                {
                    "name": "E5",
                    "midi": 76,
                    "time": 51.173995000000055,
                    "velocity": 0.5039370078740157,
                    "duration": 0.5267911250000026
                },
                {
                    "name": "C5",
                    "midi": 72,
                    "time": 51.173995000000055,
                    "velocity": 0.44881889763779526,
                    "duration": 0.5267911250000026
                },
                {
                    "name": "A#4",
                    "midi": 70,
                    "time": 51.173995000000055,
                    "velocity": 0.44881889763779526,
                    "duration": 0.5267911250000026
                },
                {
                    "name": "G4",
                    "midi": 67,
                    "time": 51.173995000000055,
                    "velocity": 0.44881889763779526,
                    "duration": 0.5267911250000026
                },
                {
                    "name": "F5",
                    "midi": 77,
                    "time": 51.70078612500006,
                    "velocity": 0.4409448818897638,
                    "duration": 0.07525587500000341
                },
                {
                    "name": "G#4",
                    "midi": 68,
                    "time": 51.77604200000006,
                    "velocity": 0.4251968503937008,
                    "duration": 0.30102349999999944
                },
                {
                    "name": "C5",
                    "midi": 72,
                    "time": 51.77604200000006,
                    "velocity": 0.4251968503937008,
                    "duration": 0.30102349999999944
                },
                {
                    "name": "G#5",
                    "midi": 80,
                    "time": 51.77604200000006,
                    "velocity": 0.5433070866141733,
                    "duration": 0.30102349999999944
                },
                {
                    "name": "G#4",
                    "midi": 68,
                    "time": 52.07706550000006,
                    "velocity": 0.3779527559055118,
                    "duration": 0.9030704999999983
                },
                {
                    "name": "C5",
                    "midi": 72,
                    "time": 52.07706550000006,
                    "velocity": 0.3779527559055118,
                    "duration": 0.9030704999999983
                },
                {
                    "name": "G#5",
                    "midi": 80,
                    "time": 52.07706550000006,
                    "velocity": 0.5196850393700787,
                    "duration": 0.15051174999999972
                },
                {
                    "name": "G5",
                    "midi": 79,
                    "time": 52.22757725000006,
                    "velocity": 0.5275590551181102,
                    "duration": 0.15051174999999972
                },
                {
                    "name": "F5",
                    "midi": 77,
                    "time": 52.37808900000006,
                    "velocity": 0.5275590551181102,
                    "duration": 0.30102349999999944
                },
                {
                    "name": "D#5",
                    "midi": 75,
                    "time": 52.67911250000006,
                    "velocity": 0.49606299212598426,
                    "duration": 0.15051174999999972
                },
                {
                    "name": "C#5",
                    "midi": 73,
                    "time": 52.82962425000006,
                    "velocity": 0.49606299212598426,
                    "duration": 0.15051174999999972
                },
                {
                    "name": "G4",
                    "midi": 67,
                    "time": 52.98013600000006,
                    "velocity": 0.44881889763779526,
                    "duration": 0.6020469999999989
                },
                {
                    "name": "A#4",
                    "midi": 70,
                    "time": 52.98013600000006,
                    "velocity": 0.44881889763779526,
                    "duration": 0.6020469999999989
                },
                {
                    "name": "C5",
                    "midi": 72,
                    "time": 52.98013600000006,
                    "velocity": 0.5039370078740157,
                    "duration": 0.6020469999999989
                },
                {
                    "name": "G4",
                    "midi": 67,
                    "time": 53.58218300000006,
                    "velocity": 0.44881889763779526,
                    "duration": 0.5267911250000026
                },
                {
                    "name": "A#4",
                    "midi": 70,
                    "time": 53.58218300000006,
                    "velocity": 0.44881889763779526,
                    "duration": 0.5267911250000026
                },
                {
                    "name": "C5",
                    "midi": 72,
                    "time": 53.58218300000006,
                    "velocity": 0.44881889763779526,
                    "duration": 0.5267911250000026
                },
                {
                    "name": "E5",
                    "midi": 76,
                    "time": 53.58218300000006,
                    "velocity": 0.5039370078740157,
                    "duration": 0.5267911250000026
                },
                {
                    "name": "F5",
                    "midi": 77,
                    "time": 54.10897412500006,
                    "velocity": 0.44881889763779526,
                    "duration": 0.07525587500000341
                },
                {
                    "name": "G#4",
                    "midi": 68,
                    "time": 54.18423000000006,
                    "velocity": 0.4330708661417323,
                    "duration": 0.30102349999999944
                },
                {
                    "name": "C5",
                    "midi": 72,
                    "time": 54.18423000000006,
                    "velocity": 0.4330708661417323,
                    "duration": 0.30102349999999944
                },
                {
                    "name": "G#5",
                    "midi": 80,
                    "time": 54.18423000000006,
                    "velocity": 0.5748031496062992,
                    "duration": 0.30102349999999944
                },
                {
                    "name": "G#4",
                    "midi": 68,
                    "time": 54.48525350000006,
                    "velocity": 0.36220472440944884,
                    "duration": 0.9030704999999983
                },
                {
                    "name": "C5",
                    "midi": 72,
                    "time": 54.48525350000006,
                    "velocity": 0.36220472440944884,
                    "duration": 0.9030704999999983
                },
                {
                    "name": "G#5",
                    "midi": 80,
                    "time": 54.48525350000006,
                    "velocity": 0.4881889763779528,
                    "duration": 0.15051174999999972
                },
                {
                    "name": "G5",
                    "midi": 79,
                    "time": 54.63576525000006,
                    "velocity": 0.4881889763779528,
                    "duration": 0.15051174999999972
                },
                {
                    "name": "F5",
                    "midi": 77,
                    "time": 54.78627700000006,
                    "velocity": 0.4881889763779528,
                    "duration": 0.30102349999999944
                },
                {
                    "name": "D#5",
                    "midi": 75,
                    "time": 55.08730050000006,
                    "velocity": 0.4409448818897638,
                    "duration": 0.15051174999999972
                },
                {
                    "name": "C#5",
                    "midi": 73,
                    "time": 55.23781225000006,
                    "velocity": 0.4409448818897638,
                    "duration": 0.15051174999999972
                },
                {
                    "name": "G#4",
                    "midi": 68,
                    "time": 55.38832400000006,
                    "velocity": 0.3543307086614173,
                    "duration": 0.6020469999999989
                },
                {
                    "name": "C5",
                    "midi": 72,
                    "time": 55.38832400000006,
                    "velocity": 0.4015748031496063,
                    "duration": 0.6020469999999989
                },
                {
                    "name": "F#4",
                    "midi": 66,
                    "time": 55.99037100000006,
                    "velocity": 0.3858267716535433,
                    "duration": 0.6020469999999989
                },
                {
                    "name": "C5",
                    "midi": 72,
                    "time": 55.99037100000006,
                    "velocity": 0.4330708661417323,
                    "duration": 0.6020469999999989
                },
                {
                    "name": "C5",
                    "midi": 72,
                    "time": 56.59241800000006,
                    "velocity": 0.44881889763779526,
                    "duration": 0.16556292500000325
                },
                {
                    "name": "F4",
                    "midi": 65,
                    "time": 56.59241800000006,
                    "velocity": 0.4015748031496063,
                    "duration": 0.6020470000000202
                },
                {
                    "name": "C#5",
                    "midi": 73,
                    "time": 56.74292975000006,
                    "velocity": 0.47244094488188976,
                    "duration": 0.16556292500001035
                },
                {
                    "name": "D#5",
                    "midi": 75,
                    "time": 56.893441500000066,
                    "velocity": 0.4881889763779528,
                    "duration": 0.16556292500001035
                },
                {
                    "name": "C#5",
                    "midi": 73,
                    "time": 57.04395325000007,
                    "velocity": 0.4566929133858268,
                    "duration": 0.15051175000000683
                },
                {
                    "name": "F4",
                    "midi": 65,
                    "time": 57.19446500000008,
                    "velocity": 0.4094488188976378,
                    "duration": 0.30102349999999944
                },
                {
                    "name": "C#5",
                    "midi": 73,
                    "time": 57.19446500000008,
                    "velocity": 0.4566929133858268,
                    "duration": 0.30102349999999944
                },
                {
                    "name": "D#4",
                    "midi": 63,
                    "time": 57.49548850000008,
                    "velocity": 0.36220472440944884,
                    "duration": 0.16556292500000325
                },
                {
                    "name": "C5",
                    "midi": 72,
                    "time": 57.49548850000008,
                    "velocity": 0.4094488188976378,
                    "duration": 0.16556292500000325
                },
                {
                    "name": "C#4",
                    "midi": 61,
                    "time": 57.64600025000008,
                    "velocity": 0.3543307086614173,
                    "duration": 0.16556292500001035
                },
                {
                    "name": "A#4",
                    "midi": 70,
                    "time": 57.64600025000008,
                    "velocity": 0.3937007874015748,
                    "duration": 0.16556292500001035
                },
                {
                    "name": "C4",
                    "midi": 60,
                    "time": 57.796512000000085,
                    "velocity": 0.33858267716535434,
                    "duration": 0.30102350000000655
                },
                {
                    "name": "G#4",
                    "midi": 68,
                    "time": 57.796512000000085,
                    "velocity": 0.3779527559055118,
                    "duration": 0.30102350000000655
                },
                {
                    "name": "C4",
                    "midi": 60,
                    "time": 58.09753550000009,
                    "velocity": 0.33858267716535434,
                    "duration": 0.30102349999999944
                },
                {
                    "name": "G#4",
                    "midi": 68,
                    "time": 58.09753550000009,
                    "velocity": 0.3779527559055118,
                    "duration": 0.30102349999999944
                },
                {
                    "name": "C4",
                    "midi": 60,
                    "time": 58.39855900000009,
                    "velocity": 0.2992125984251969,
                    "duration": 0.16556292500000325
                },
                {
                    "name": "G#4",
                    "midi": 68,
                    "time": 58.39855900000009,
                    "velocity": 0.33858267716535434,
                    "duration": 0.16556292500000325
                },
                {
                    "name": "C#4",
                    "midi": 61,
                    "time": 58.54907075000009,
                    "velocity": 0.30708661417322836,
                    "duration": 0.16556292500001035
                },
                {
                    "name": "A#4",
                    "midi": 70,
                    "time": 58.54907075000009,
                    "velocity": 0.3464566929133858,
                    "duration": 0.16556292500001035
                },
                {
                    "name": "D#4",
                    "midi": 63,
                    "time": 58.6995825000001,
                    "velocity": 0.31496062992125984,
                    "duration": 0.16556292500001035
                },
                {
                    "name": "C5",
                    "midi": 72,
                    "time": 58.6995825000001,
                    "velocity": 0.3543307086614173,
                    "duration": 0.16556292500001035
                },
                {
                    "name": "C#4",
                    "midi": 61,
                    "time": 58.850094250000105,
                    "velocity": 0.30708661417322836,
                    "duration": 0.16556292500001035
                },
                {
                    "name": "A#4",
                    "midi": 70,
                    "time": 58.850094250000105,
                    "velocity": 0.3464566929133858,
                    "duration": 0.16556292500001035
                },
                {
                    "name": "C4",
                    "midi": 60,
                    "time": 59.00060600000011,
                    "velocity": 0.2992125984251969,
                    "duration": 0.602047000000006
                },
                {
                    "name": "G#4",
                    "midi": 68,
                    "time": 59.00060600000011,
                    "velocity": 0.33858267716535434,
                    "duration": 0.602047000000006
                },
                {
                    "name": "C4",
                    "midi": 60,
                    "time": 59.60265300000012,
                    "velocity": 0.2992125984251969,
                    "duration": 0.5267911250000026
                },
                {
                    "name": "G#4",
                    "midi": 68,
                    "time": 59.60265300000012,
                    "velocity": 0.33858267716535434,
                    "duration": 0.5267911250000026
                },
                {
                    "name": "A#4",
                    "midi": 70,
                    "time": 60.12944412500012,
                    "velocity": 0.3779527559055118,
                    "duration": 0.07525587500000341
                },
                {
                    "name": "G#4",
                    "midi": 68,
                    "time": 60.20470000000012,
                    "velocity": 0.36220472440944884,
                    "duration": 0.15051174999999972
                },
                {
                    "name": "G#4",
                    "midi": 68,
                    "time": 60.50572350000012,
                    "velocity": 0.31496062992125984,
                    "duration": 0.15051174999999972
                },
                {
                    "name": "A#4",
                    "midi": 70,
                    "time": 60.65623525000012,
                    "velocity": 0.31496062992125984,
                    "duration": 0.15051174999999972
                },
                {
                    "name": "G#4",
                    "midi": 68,
                    "time": 60.80674700000012,
                    "velocity": 0.3543307086614173,
                    "duration": 0.15051174999999972
                },
                {
                    "name": "G4",
                    "midi": 67,
                    "time": 61.10777050000012,
                    "velocity": 0.33858267716535434,
                    "duration": 0.15051174999999972
                },
                {
                    "name": "G#4",
                    "midi": 68,
                    "time": 61.25828225000012,
                    "velocity": 0.30708661417322836,
                    "duration": 0.07525587500000341
                },
                {
                    "name": "A#4",
                    "midi": 70,
                    "time": 61.333538125000125,
                    "velocity": 0.30708661417322836,
                    "duration": 0.07525587500000341
                },
                {
                    "name": "G#4",
                    "midi": 68,
                    "time": 61.40879400000013,
                    "velocity": 0.31496062992125984,
                    "duration": 0.45153524999999917
                },
                {
                    "name": "C5",
                    "midi": 72,
                    "time": 61.40879400000013,
                    "velocity": 0.3543307086614173,
                    "duration": 0.45153524999999917
                },
                {
                    "name": "G#4",
                    "midi": 68,
                    "time": 61.86032925000013,
                    "velocity": 0.30708661417322836,
                    "duration": 0.07525587500000341
                },
                {
                    "name": "A#4",
                    "midi": 70,
                    "time": 61.93558512500013,
                    "velocity": 0.30708661417322836,
                    "duration": 0.07525587500000341
                },
                {
                    "name": "G#4",
                    "midi": 68,
                    "time": 62.010841000000134,
                    "velocity": 0.31496062992125984,
                    "duration": 0.5267911250000026
                },
                {
                    "name": "C5",
                    "midi": 72,
                    "time": 62.010841000000134,
                    "velocity": 0.3543307086614173,
                    "duration": 0.5267911250000026
                },
                {
                    "name": "A#4",
                    "midi": 70,
                    "time": 62.53763212500014,
                    "velocity": 0.30708661417322836,
                    "duration": 0.07525587500000341
                },
                {
                    "name": "G#4",
                    "midi": 68,
                    "time": 62.61288800000014,
                    "velocity": 0.36220472440944884,
                    "duration": 0.15051174999999972
                },
                {
                    "name": "G#4",
                    "midi": 68,
                    "time": 62.91391150000014,
                    "velocity": 0.33070866141732286,
                    "duration": 0.15051174999999972
                },
                {
                    "name": "A#4",
                    "midi": 70,
                    "time": 63.06442325000014,
                    "velocity": 0.33070866141732286,
                    "duration": 0.15051174999999972
                },
                {
                    "name": "G#4",
                    "midi": 68,
                    "time": 63.21493500000014,
                    "velocity": 0.3543307086614173,
                    "duration": 0.15051174999999972
                },
                {
                    "name": "G4",
                    "midi": 67,
                    "time": 63.51595850000014,
                    "velocity": 0.29133858267716534,
                    "duration": 0.15051174999999972
                },
                {
                    "name": "C5",
                    "midi": 72,
                    "time": 63.51595850000014,
                    "velocity": 0.33070866141732286,
                    "duration": 0.15051174999999972
                },
                {
                    "name": "C5",
                    "midi": 72,
                    "time": 63.74172612500014,
                    "velocity": 0.30708661417322836,
                    "duration": 0.07525587500000341
                },
                {
                    "name": "F5",
                    "midi": 77,
                    "time": 63.816982000000145,
                    "velocity": 0.3858267716535433,
                    "duration": 0.5267911249999955
                },
                {
                    "name": "G#4",
                    "midi": 68,
                    "time": 63.816982000000145,
                    "velocity": 0.3464566929133858,
                    "duration": 0.5267911249999955
                },
                {
                    "name": "C5",
                    "midi": 72,
                    "time": 64.34377312500014,
                    "velocity": 0.30708661417322836,
                    "duration": 0.07525587499999631
                },
                {
                    "name": "G#4",
                    "midi": 68,
                    "time": 64.41902900000014,
                    "velocity": 0.33858267716535434,
                    "duration": 0.6020469999999989
                },
                {
                    "name": "F5",
                    "midi": 77,
                    "time": 64.41902900000014,
                    "velocity": 0.3779527559055118,
                    "duration": 0.6020469999999989
                },
                {
                    "name": "F#5",
                    "midi": 78,
                    "time": 64.94582012500014,
                    "velocity": 0.2677165354330709,
                    "duration": 0.07525587499999631
                },
                {
                    "name": "G#4",
                    "midi": 68,
                    "time": 65.02107600000014,
                    "velocity": 0.2992125984251969,
                    "duration": 0.30102349999999944
                },
                {
                    "name": "F5",
                    "midi": 77,
                    "time": 65.02107600000014,
                    "velocity": 0.33858267716535434,
                    "duration": 0.30102349999999944
                },
                {
                    "name": "G#4",
                    "midi": 68,
                    "time": 65.32209950000014,
                    "velocity": 0.25984251968503935,
                    "duration": 0.30102350000001366
                },
                {
                    "name": "F5",
                    "midi": 77,
                    "time": 65.32209950000014,
                    "velocity": 0.29133858267716534,
                    "duration": 0.15051175000000683
                },
                {
                    "name": "F#5",
                    "midi": 78,
                    "time": 65.47261125000014,
                    "velocity": 0.29133858267716534,
                    "duration": 0.15051175000000683
                },
                {
                    "name": "A4",
                    "midi": 69,
                    "time": 65.62312300000015,
                    "velocity": 0.2755905511811024,
                    "duration": 0.30102349999999944
                },
                {
                    "name": "F5",
                    "midi": 77,
                    "time": 65.62312300000015,
                    "velocity": 0.30708661417322836,
                    "duration": 0.30102349999999944
                },
                {
                    "name": "A4",
                    "midi": 69,
                    "time": 65.92414650000015,
                    "velocity": 0.25984251968503935,
                    "duration": 0.30102349999999944
                },
                {
                    "name": "F5",
                    "midi": 77,
                    "time": 65.92414650000015,
                    "velocity": 0.29133858267716534,
                    "duration": 0.30102349999999944
                },
                {
                    "name": "A#4",
                    "midi": 70,
                    "time": 66.22517000000015,
                    "velocity": 0.2755905511811024,
                    "duration": 0.45153525000000627
                },
                {
                    "name": "F5",
                    "midi": 77,
                    "time": 66.22517000000015,
                    "velocity": 0.30708661417322836,
                    "duration": 0.30102349999999944
                },
                {
                    "name": "A#5",
                    "midi": 82,
                    "time": 66.52619350000015,
                    "velocity": 0.2677165354330709,
                    "duration": 0.15051175000000683
                },
                {
                    "name": "G#4",
                    "midi": 68,
                    "time": 66.82721700000016,
                    "velocity": 0.2283464566929134,
                    "duration": 0.6020469999999989
                },
                {
                    "name": "F5",
                    "midi": 77,
                    "time": 66.82721700000016,
                    "velocity": 0.25984251968503935,
                    "duration": 0.6020469999999989
                },
                {
                    "name": "G#4",
                    "midi": 68,
                    "time": 67.42926400000016,
                    "velocity": 0.2283464566929134,
                    "duration": 0.16556292500000325
                },
                {
                    "name": "C5",
                    "midi": 72,
                    "time": 67.42926400000016,
                    "velocity": 0.25984251968503935,
                    "duration": 0.16556292500000325
                },
                {
                    "name": "G4",
                    "midi": 67,
                    "time": 67.57977575000017,
                    "velocity": 0.2125984251968504,
                    "duration": 0.16556292499998904
                },
                {
                    "name": "A#4",
                    "midi": 70,
                    "time": 67.57977575000017,
                    "velocity": 0.2440944881889764,
                    "duration": 0.16556292499998904
                },
                {
                    "name": "F4",
                    "midi": 65,
                    "time": 67.73028750000016,
                    "velocity": 0.2125984251968504,
                    "duration": 0.16556292499998904
                },
                {
                    "name": "G#4",
                    "midi": 68,
                    "time": 67.73028750000016,
                    "velocity": 0.2440944881889764,
                    "duration": 0.16556292499998904
                },
                {
                    "name": "G4",
                    "midi": 67,
                    "time": 67.88079925000015,
                    "velocity": 0.2125984251968504,
                    "duration": 0.15051174999999262
                },
                {
                    "name": "A#4",
                    "midi": 70,
                    "time": 67.88079925000015,
                    "velocity": 0.2440944881889764,
                    "duration": 0.15051174999999262
                },
                {
                    "name": "G#4",
                    "midi": 68,
                    "time": 68.03131100000014,
                    "velocity": 0.2283464566929134,
                    "duration": 0.30102350000001366
                },
                {
                    "name": "C5",
                    "midi": 72,
                    "time": 68.03131100000014,
                    "velocity": 0.25984251968503935,
                    "duration": 0.15051175000000683
                },
                {
                    "name": "C#5",
                    "midi": 73,
                    "time": 68.18182275000015,
                    "velocity": 0.2440944881889764,
                    "duration": 0.15051175000000683
                },
                {
                    "name": "A#4",
                    "midi": 70,
                    "time": 68.33233450000016,
                    "velocity": 0.2125984251968504,
                    "duration": 0.30102350000001366
                },
                {
                    "name": "G4",
                    "midi": 67,
                    "time": 68.33233450000016,
                    "velocity": 0.2125984251968504,
                    "duration": 0.30102350000001366
                },
                {
                    "name": "C5",
                    "midi": 72,
                    "time": 68.33233450000016,
                    "velocity": 0.2440944881889764,
                    "duration": 0.15051175000000683
                },
                {
                    "name": "E5",
                    "midi": 76,
                    "time": 68.48284625000016,
                    "velocity": 0.2440944881889764,
                    "duration": 0.15051175000000683
                },
                {
                    "name": "F5",
                    "midi": 77,
                    "time": 68.63335800000017,
                    "velocity": 0.2677165354330709,
                    "duration": 0.6020469999999989
                },
                {
                    "name": "C5",
                    "midi": 72,
                    "time": 68.63335800000017,
                    "velocity": 0.23622047244094488,
                    "duration": 0.6020469999999989
                },
                {
                    "name": "G#4",
                    "midi": 68,
                    "time": 68.63335800000017,
                    "velocity": 0.23622047244094488,
                    "duration": 0.6020469999999989
                },
                {
                    "name": "G#4",
                    "midi": 68,
                    "time": 69.23540500000017,
                    "velocity": 0.23622047244094488,
                    "duration": 0.5017058333333324
                },
                {
                    "name": "C5",
                    "midi": 72,
                    "time": 69.23540500000017,
                    "velocity": 0.23622047244094488,
                    "duration": 0.5017058333333324
                },
                {
                    "name": "F5",
                    "midi": 77,
                    "time": 69.23540500000017,
                    "velocity": 0.2677165354330709,
                    "duration": 0.5017058333333324
                },
                {
                    "name": "G#5",
                    "midi": 80,
                    "time": 69.76219612500017,
                    "velocity": 0.2677165354330709,
                    "duration": 0.07525587499999631
                },
                {
                    "name": "E5",
                    "midi": 76,
                    "time": 69.83745200000017,
                    "velocity": 0.2755905511811024,
                    "duration": 0.30102349999999944
                },
                {
                    "name": "G5",
                    "midi": 79,
                    "time": 69.83745200000017,
                    "velocity": 0.30708661417322836,
                    "duration": 0.30102349999999944
                },
                {
                    "name": "E5",
                    "midi": 76,
                    "time": 70.13847550000017,
                    "velocity": 0.25984251968503935,
                    "duration": 0.6020470000000131
                },
                {
                    "name": "G5",
                    "midi": 79,
                    "time": 70.13847550000017,
                    "velocity": 0.29133858267716534,
                    "duration": 0.15051175000000683
                },
                {
                    "name": "G#5",
                    "midi": 80,
                    "time": 70.28898725000018,
                    "velocity": 0.29133858267716534,
                    "duration": 0.15051175000000683
                },
                {
                    "name": "G5",
                    "midi": 79,
                    "time": 70.43949900000018,
                    "velocity": 0.30708661417322836,
                    "duration": 0.30102349999999944
                },
                {
                    "name": "G5",
                    "midi": 79,
                    "time": 70.74052250000018,
                    "velocity": 0.31496062992125984,
                    "duration": 0.30102349999999944
                },
                {
                    "name": "E5",
                    "midi": 76,
                    "time": 70.74052250000018,
                    "velocity": 0.28346456692913385,
                    "duration": 0.30102349999999944
                },
                {
                    "name": "F5",
                    "midi": 77,
                    "time": 71.04154600000018,
                    "velocity": 0.31496062992125984,
                    "duration": 0.9030704999999983
                },
                {
                    "name": "A#5",
                    "midi": 82,
                    "time": 71.04154600000018,
                    "velocity": 0.3543307086614173,
                    "duration": 0.30102349999999944
                },
                {
                    "name": "G#5",
                    "midi": 80,
                    "time": 71.34256950000018,
                    "velocity": 0.33858267716535434,
                    "duration": 0.6020469999999989
                },
                {
                    "name": "G5",
                    "midi": 79,
                    "time": 71.94461650000018,
                    "velocity": 0.30708661417322836,
                    "duration": 0.15051175000000683
                },
                {
                    "name": "F5",
                    "midi": 77,
                    "time": 72.09512825000019,
                    "velocity": 0.30708661417322836,
                    "duration": 0.07525587499999631
                },
                {
                    "name": "C#5",
                    "midi": 73,
                    "time": 72.17038412500018,
                    "velocity": 0.2677165354330709,
                    "duration": 0.07525587499999631
                },
                {
                    "name": "G#4",
                    "midi": 68,
                    "time": 72.24564000000018,
                    "velocity": 0.2992125984251969,
                    "duration": 0.15051175000000683
                },
                {
                    "name": "C5",
                    "midi": 72,
                    "time": 72.24564000000018,
                    "velocity": 0.33858267716535434,
                    "duration": 0.15051175000000683
                },
                {
                    "name": "G#4",
                    "midi": 68,
                    "time": 72.5466635000002,
                    "velocity": 0.2755905511811024,
                    "duration": 0.6020470000000131
                },
                {
                    "name": "C5",
                    "midi": 72,
                    "time": 72.5466635000002,
                    "velocity": 0.30708661417322836,
                    "duration": 0.15051175000000683
                },
                {
                    "name": "C#5",
                    "midi": 73,
                    "time": 72.6971752500002,
                    "velocity": 0.30708661417322836,
                    "duration": 0.15051175000000683
                },
                {
                    "name": "C5",
                    "midi": 72,
                    "time": 72.8476870000002,
                    "velocity": 0.30708661417322836,
                    "duration": 0.30102349999999944
                },
                {
                    "name": "G4",
                    "midi": 67,
                    "time": 73.1487105000002,
                    "velocity": 0.25196850393700787,
                    "duration": 0.15051175000000683
                },
                {
                    "name": "A#4",
                    "midi": 70,
                    "time": 73.1487105000002,
                    "velocity": 0.25196850393700787,
                    "duration": 0.15051175000000683
                },
                {
                    "name": "C5",
                    "midi": 72,
                    "time": 73.1487105000002,
                    "velocity": 0.25196850393700787,
                    "duration": 0.15051175000000683
                },
                {
                    "name": "E5",
                    "midi": 76,
                    "time": 73.1487105000002,
                    "velocity": 0.28346456692913385,
                    "duration": 0.15051175000000683
                },
                {
                    "name": "G#4",
                    "midi": 68,
                    "time": 73.44973400000022,
                    "velocity": 0.29133858267716534,
                    "duration": 0.6020469999999989
                },
                {
                    "name": "C5",
                    "midi": 72,
                    "time": 73.44973400000022,
                    "velocity": 0.29133858267716534,
                    "duration": 0.6020469999999989
                },
                {
                    "name": "F5",
                    "midi": 77,
                    "time": 73.44973400000022,
                    "velocity": 0.33070866141732286,
                    "duration": 0.6020469999999989
                },
                {
                    "name": "G#4",
                    "midi": 68,
                    "time": 74.05178100000022,
                    "velocity": 0.29133858267716534,
                    "duration": 0.5267911250000026
                },
                {
                    "name": "C5",
                    "midi": 72,
                    "time": 74.05178100000022,
                    "velocity": 0.29133858267716534,
                    "duration": 0.5267911250000026
                },
                {
                    "name": "F5",
                    "midi": 77,
                    "time": 74.05178100000022,
                    "velocity": 0.33070866141732286,
                    "duration": 0.5267911250000026
                },
                {
                    "name": "G#5",
                    "midi": 80,
                    "time": 74.57857212500022,
                    "velocity": 0.23622047244094488,
                    "duration": 0.07525587499999631
                },
                {
                    "name": "E5",
                    "midi": 76,
                    "time": 74.65382800000022,
                    "velocity": 0.23622047244094488,
                    "duration": 0.30102349999999944
                },
                {
                    "name": "G5",
                    "midi": 79,
                    "time": 74.65382800000022,
                    "velocity": 0.2677165354330709,
                    "duration": 0.30102349999999944
                },
                {
                    "name": "E5",
                    "midi": 76,
                    "time": 74.95485150000022,
                    "velocity": 0.2204724409448819,
                    "duration": 0.6020470000000131
                },
                {
                    "name": "G5",
                    "midi": 79,
                    "time": 74.95485150000022,
                    "velocity": 0.25196850393700787,
                    "duration": 0.15051175000000683
                },
                {
                    "name": "G#5",
                    "midi": 80,
                    "time": 75.10536325000022,
                    "velocity": 0.25196850393700787,
                    "duration": 0.15051175000000683
                },
                {
                    "name": "G5",
                    "midi": 79,
                    "time": 75.25587500000023,
                    "velocity": 0.2677165354330709,
                    "duration": 0.30102349999999944
                },
                {
                    "name": "G5",
                    "midi": 79,
                    "time": 75.55689850000023,
                    "velocity": 0.28346456692913385,
                    "duration": 0.30102349999999944
                },
                {
                    "name": "E5",
                    "midi": 76,
                    "time": 75.55689850000023,
                    "velocity": 0.25196850393700787,
                    "duration": 0.30102349999999944
                },
                {
                    "name": "F5",
                    "midi": 77,
                    "time": 75.85792200000023,
                    "velocity": 0.2677165354330709,
                    "duration": 0.9030704999999983
                },
                {
                    "name": "A#5",
                    "midi": 82,
                    "time": 75.85792200000023,
                    "velocity": 0.2992125984251969,
                    "duration": 0.30102349999999944
                },
                {
                    "name": "G#5",
                    "midi": 80,
                    "time": 76.15894550000023,
                    "velocity": 0.28346456692913385,
                    "duration": 0.6020469999999989
                },
                {
                    "name": "G5",
                    "midi": 79,
                    "time": 76.76099250000023,
                    "velocity": 0.2677165354330709,
                    "duration": 0.15051175000000683
                },
                {
                    "name": "F5",
                    "midi": 77,
                    "time": 76.91150425000023,
                    "velocity": 0.2677165354330709,
                    "duration": 0.07525587499999631
                },
                {
                    "name": "D5",
                    "midi": 74,
                    "time": 76.98676012500023,
                    "velocity": 0.2440944881889764,
                    "duration": 0.07525587499999631
                },
                {
                    "name": "A4",
                    "midi": 69,
                    "time": 77.06201600000023,
                    "velocity": 0.2677165354330709,
                    "duration": 0.15051175000000683
                },
                {
                    "name": "C5",
                    "midi": 72,
                    "time": 77.06201600000023,
                    "velocity": 0.2992125984251969,
                    "duration": 0.15051175000000683
                },
                {
                    "name": "A4",
                    "midi": 69,
                    "time": 77.36303950000024,
                    "velocity": 0.23622047244094488,
                    "duration": 0.6020470000000131
                },
                {
                    "name": "C5",
                    "midi": 72,
                    "time": 77.36303950000024,
                    "velocity": 0.2677165354330709,
                    "duration": 0.15051175000000683
                },
                {
                    "name": "D5",
                    "midi": 74,
                    "time": 77.51355125000025,
                    "velocity": 0.2677165354330709,
                    "duration": 0.15051175000000683
                },
                {
                    "name": "C5",
                    "midi": 72,
                    "time": 77.66406300000025,
                    "velocity": 0.2677165354330709,
                    "duration": 0.30102349999999944
                },
                {
                    "name": "A#4",
                    "midi": 70,
                    "time": 77.96508650000025,
                    "velocity": 0.23622047244094488,
                    "duration": 0.22576762500000314
                },
                {
                    "name": "D5",
                    "midi": 74,
                    "time": 77.96508650000025,
                    "velocity": 0.2677165354330709,
                    "duration": 0.22576762500000314
                },
                {
                    "name": "D5",
                    "midi": 74,
                    "time": 78.19085412500026,
                    "velocity": 0.2440944881889764,
                    "duration": 0.07525587499999631
                },
                {
                    "name": "A4",
                    "midi": 69,
                    "time": 78.26611000000025,
                    "velocity": 0.2677165354330709,
                    "duration": 0.15051175000000683
                },
                {
                    "name": "C5",
                    "midi": 72,
                    "time": 78.26611000000025,
                    "velocity": 0.2992125984251969,
                    "duration": 0.15051175000000683
                },
                {
                    "name": "A4",
                    "midi": 69,
                    "time": 78.56713350000027,
                    "velocity": 0.23622047244094488,
                    "duration": 0.6020470000000131
                },
                {
                    "name": "C5",
                    "midi": 72,
                    "time": 78.56713350000027,
                    "velocity": 0.2677165354330709,
                    "duration": 0.15051175000000683
                },
                {
                    "name": "D5",
                    "midi": 74,
                    "time": 78.71764525000027,
                    "velocity": 0.2677165354330709,
                    "duration": 0.15051175000000683
                },
                {
                    "name": "C5",
                    "midi": 72,
                    "time": 78.86815700000028,
                    "velocity": 0.2677165354330709,
                    "duration": 0.30102349999999944
                },
                {
                    "name": "A#4",
                    "midi": 70,
                    "time": 79.16918050000028,
                    "velocity": 0.23622047244094488,
                    "duration": 0.22576762500000314
                },
                {
                    "name": "D5",
                    "midi": 74,
                    "time": 79.16918050000028,
                    "velocity": 0.2677165354330709,
                    "duration": 0.22576762500000314
                },
                {
                    "name": "D5",
                    "midi": 74,
                    "time": 79.39494812500028,
                    "velocity": 0.2440944881889764,
                    "duration": 0.07525587499999631
                },
                {
                    "name": "A4",
                    "midi": 69,
                    "time": 79.47020400000028,
                    "velocity": 0.2677165354330709,
                    "duration": 0.15051175000000683
                },
                {
                    "name": "C5",
                    "midi": 72,
                    "time": 79.47020400000028,
                    "velocity": 0.2992125984251969,
                    "duration": 0.15051175000000683
                },
                {
                    "name": "A4",
                    "midi": 69,
                    "time": 79.7712275000003,
                    "velocity": 0.23622047244094488,
                    "duration": 0.6020470000000131
                },
                {
                    "name": "C5",
                    "midi": 72,
                    "time": 79.7712275000003,
                    "velocity": 0.2677165354330709,
                    "duration": 0.15051175000000683
                },
                {
                    "name": "D5",
                    "midi": 74,
                    "time": 79.9217392500003,
                    "velocity": 0.2677165354330709,
                    "duration": 0.15051175000000683
                },
                {
                    "name": "C5",
                    "midi": 72,
                    "time": 80.0722510000003,
                    "velocity": 0.2677165354330709,
                    "duration": 0.30102349999999944
                },
                {
                    "name": "A#4",
                    "midi": 70,
                    "time": 80.3732745000003,
                    "velocity": 0.2677165354330709,
                    "duration": 0.30102349999999944
                },
                {
                    "name": "E5",
                    "midi": 76,
                    "time": 80.3732745000003,
                    "velocity": 0.2992125984251969,
                    "duration": 0.30102349999999944
                },
                {
                    "name": "A4",
                    "midi": 69,
                    "time": 80.6742980000003,
                    "velocity": 0.29133858267716534,
                    "duration": 0.6020469999999989
                },
                {
                    "name": "F5",
                    "midi": 77,
                    "time": 80.6742980000003,
                    "velocity": 0.33070866141732286,
                    "duration": 0.6020469999999989
                },
                {
                    "name": "A4",
                    "midi": 69,
                    "time": 81.2763450000003,
                    "velocity": 0.29133858267716534,
                    "duration": 0.5267911250000026
                },
                {
                    "name": "F5",
                    "midi": 77,
                    "time": 81.2763450000003,
                    "velocity": 0.33070866141732286,
                    "duration": 0.5267911250000026
                },
                {
                    "name": "D5",
                    "midi": 74,
                    "time": 81.80313612500031,
                    "velocity": 0.2992125984251969,
                    "duration": 0.07525587499999631
                },
                {
                    "name": "A4",
                    "midi": 69,
                    "time": 81.8783920000003,
                    "velocity": 0.29133858267716534,
                    "duration": 0.30102349999999944
                },
                {
                    "name": "C5",
                    "midi": 72,
                    "time": 81.8783920000003,
                    "velocity": 0.33070866141732286,
                    "duration": 0.30102349999999944
                },
                {
                    "name": "A4",
                    "midi": 69,
                    "time": 82.1794155000003,
                    "velocity": 0.2755905511811024,
                    "duration": 0.6020470000000131
                },
                {
                    "name": "C5",
                    "midi": 72,
                    "time": 82.1794155000003,
                    "velocity": 0.30708661417322836,
                    "duration": 0.15051175000000683
                },
                {
                    "name": "D5",
                    "midi": 74,
                    "time": 82.32992725000031,
                    "velocity": 0.30708661417322836,
                    "duration": 0.15051175000000683
                },
                {
                    "name": "C5",
                    "midi": 72,
                    "time": 82.48043900000032,
                    "velocity": 0.33070866141732286,
                    "duration": 0.30102349999999944
                },
                {
                    "name": "F4",
                    "midi": 65,
                    "time": 82.78146250000032,
                    "velocity": 0.25196850393700787,
                    "duration": 0.30102349999999944
                },
                {
                    "name": "A4",
                    "midi": 69,
                    "time": 82.78146250000032,
                    "velocity": 0.28346456692913385,
                    "duration": 0.30102349999999944
                },
                {
                    "name": "E4",
                    "midi": 64,
                    "time": 83.08248600000032,
                    "velocity": 0.2755905511811024,
                    "duration": 0.6020469999999989
                },
                {
                    "name": "A#4",
                    "midi": 70,
                    "time": 83.08248600000032,
                    "velocity": 0.30708661417322836,
                    "duration": 0.6020469999999989
                },
                {
                    "name": "E4",
                    "midi": 64,
                    "time": 83.68453300000031,
                    "velocity": 0.2755905511811024,
                    "duration": 0.5267911250000026
                },
                {
                    "name": "A#4",
                    "midi": 70,
                    "time": 83.68453300000031,
                    "velocity": 0.30708661417322836,
                    "duration": 0.5267911250000026
                },
                {
                    "name": "C5",
                    "midi": 72,
                    "time": 84.21132412500032,
                    "velocity": 0.29133858267716534,
                    "duration": 0.07525587499999631
                },
                {
                    "name": "E4",
                    "midi": 64,
                    "time": 84.28658000000031,
                    "velocity": 0.29133858267716534,
                    "duration": 0.30102349999999944
                },
                {
                    "name": "A#4",
                    "midi": 70,
                    "time": 84.28658000000031,
                    "velocity": 0.33070866141732286,
                    "duration": 0.30102349999999944
                },
                {
                    "name": "A#4",
                    "midi": 70,
                    "time": 84.58760350000031,
                    "velocity": 0.2992125984251969,
                    "duration": 0.15051175000000683
                },
                {
                    "name": "E4",
                    "midi": 64,
                    "time": 84.58760350000031,
                    "velocity": 0.2677165354330709,
                    "duration": 0.6020470000000131
                },
                {
                    "name": "C5",
                    "midi": 72,
                    "time": 84.73811525000032,
                    "velocity": 0.30708661417322836,
                    "duration": 0.15051175000000683
                },
                {
                    "name": "A#4",
                    "midi": 70,
                    "time": 84.88862700000033,
                    "velocity": 0.33070866141732286,
                    "duration": 0.30102349999999944
                },
                {
                    "name": "A#3",
                    "midi": 58,
                    "time": 85.18965050000033,
                    "velocity": 0.25984251968503935,
                    "duration": 0.30102349999999944
                },
                {
                    "name": "E4",
                    "midi": 64,
                    "time": 85.18965050000033,
                    "velocity": 0.29133858267716534,
                    "duration": 0.30102349999999944
                },
                {
                    "name": "A3",
                    "midi": 57,
                    "time": 85.49067400000033,
                    "velocity": 0.2125984251968504,
                    "duration": 0.6020469999999989
                },
                {
                    "name": "F4",
                    "midi": 65,
                    "time": 85.49067400000033,
                    "velocity": 0.2440944881889764,
                    "duration": 0.6020469999999989
                },
                {
                    "name": "A3",
                    "midi": 57,
                    "time": 86.09272100000032,
                    "velocity": 0.2125984251968504,
                    "duration": 0.5267911250000026
                },
                {
                    "name": "F4",
                    "midi": 65,
                    "time": 86.09272100000032,
                    "velocity": 0.2440944881889764,
                    "duration": 0.5267911250000026
                },
                {
                    "name": "D5",
                    "midi": 74,
                    "time": 86.61951212500033,
                    "velocity": 0.23622047244094488,
                    "duration": 0.07525587499999631
                },
                {
                    "name": "A4",
                    "midi": 69,
                    "time": 86.69476800000032,
                    "velocity": 0.2283464566929134,
                    "duration": 0.30102349999999944
                },
                {
                    "name": "C5",
                    "midi": 72,
                    "time": 86.69476800000032,
                    "velocity": 0.25984251968503935,
                    "duration": 0.30102349999999944
                },
                {
                    "name": "A4",
                    "midi": 69,
                    "time": 86.99579150000032,
                    "velocity": 0.2125984251968504,
                    "duration": 0.6020470000000131
                },
                {
                    "name": "C5",
                    "midi": 72,
                    "time": 86.99579150000032,
                    "velocity": 0.2440944881889764,
                    "duration": 0.15051175000000683
                },
                {
                    "name": "D5",
                    "midi": 74,
                    "time": 87.14630325000033,
                    "velocity": 0.2440944881889764,
                    "duration": 0.15051175000000683
                },
                {
                    "name": "C5",
                    "midi": 72,
                    "time": 87.29681500000034,
                    "velocity": 0.25984251968503935,
                    "duration": 0.30102349999999944
                },
                {
                    "name": "D#4",
                    "midi": 63,
                    "time": 87.59783850000034,
                    "velocity": 0.1968503937007874,
                    "duration": 0.30102349999999944
                },
                {
                    "name": "A4",
                    "midi": 69,
                    "time": 87.59783850000034,
                    "velocity": 0.2204724409448819,
                    "duration": 0.30102349999999944
                },
                {
                    "name": "E4",
                    "midi": 64,
                    "time": 87.89886200000034,
                    "velocity": 0.2125984251968504,
                    "duration": 0.6020469999999989
                },
                {
                    "name": "A#4",
                    "midi": 70,
                    "time": 87.89886200000034,
                    "velocity": 0.2440944881889764,
                    "duration": 0.6020469999999989
                },
                {
                    "name": "E4",
                    "midi": 64,
                    "time": 88.50090900000033,
                    "velocity": 0.2125984251968504,
                    "duration": 0.5267911250000026
                },
                {
                    "name": "A#4",
                    "midi": 70,
                    "time": 88.50090900000033,
                    "velocity": 0.2440944881889764,
                    "duration": 0.5267911250000026
                },
                {
                    "name": "C5",
                    "midi": 72,
                    "time": 89.02770012500034,
                    "velocity": 0.2204724409448819,
                    "duration": 0.07525587499999631
                },
                {
                    "name": "E4",
                    "midi": 64,
                    "time": 89.10295600000033,
                    "velocity": 0.2283464566929134,
                    "duration": 0.30102349999999944
                },
                {
                    "name": "A#4",
                    "midi": 70,
                    "time": 89.10295600000033,
                    "velocity": 0.25984251968503935,
                    "duration": 0.30102349999999944
                },
                {
                    "name": "A#4",
                    "midi": 70,
                    "time": 89.40397950000033,
                    "velocity": 0.23622047244094488,
                    "duration": 0.15051175000000683
                },
                {
                    "name": "E4",
                    "midi": 64,
                    "time": 89.40397950000033,
                    "velocity": 0.2125984251968504,
                    "duration": 0.6020470000000131
                },
                {
                    "name": "C5",
                    "midi": 72,
                    "time": 89.55449125000034,
                    "velocity": 0.2440944881889764,
                    "duration": 0.15051175000000683
                },
                {
                    "name": "A#4",
                    "midi": 70,
                    "time": 89.70500300000035,
                    "velocity": 0.25984251968503935,
                    "duration": 0.30102349999999944
                },
                {
                    "name": "A#3",
                    "midi": 58,
                    "time": 90.00602650000035,
                    "velocity": 0.18110236220472442,
                    "duration": 0.30102349999999944
                },
                {
                    "name": "E4",
                    "midi": 64,
                    "time": 90.00602650000035,
                    "velocity": 0.2047244094488189,
                    "duration": 0.30102349999999944
                },
                {
                    "name": "A3",
                    "midi": 57,
                    "time": 90.30705000000034,
                    "velocity": 0.16535433070866143,
                    "duration": 0.6020469999999989
                },
                {
                    "name": "F4",
                    "midi": 65,
                    "time": 90.30705000000034,
                    "velocity": 0.1889763779527559,
                    "duration": 0.6020469999999989
                },
                {
                    "name": "A3",
                    "midi": 57,
                    "time": 90.90909700000034,
                    "velocity": 0.14173228346456693,
                    "duration": 0.6020469999999989
                },
                {
                    "name": "F4",
                    "midi": 65,
                    "time": 90.90909700000034,
                    "velocity": 0.16535433070866143,
                    "duration": 0.6020469999999989
                },
                {
                    "name": "A3",
                    "midi": 57,
                    "time": 91.51114400000034,
                    "velocity": 0.14173228346456693,
                    "duration": 0.6020469999999989
                },
                {
                    "name": "F4",
                    "midi": 65,
                    "time": 91.51114400000034,
                    "velocity": 0.16535433070866143,
                    "duration": 0.6020469999999989
                },
                {
                    "name": "A3",
                    "midi": 57,
                    "time": 92.11319100000034,
                    "velocity": 0.13385826771653545,
                    "duration": 0.6020469999999989
                },
                {
                    "name": "F4",
                    "midi": 65,
                    "time": 92.11319100000034,
                    "velocity": 0.14960629921259844,
                    "duration": 0.6020469999999989
                },
                {
                    "name": "A3",
                    "midi": 57,
                    "time": 92.71523800000034,
                    "velocity": 0.12598425196850394,
                    "duration": 1.2040939999999978
                },
                {
                    "name": "F4",
                    "midi": 65,
                    "time": 92.71523800000034,
                    "velocity": 0.14173228346456693,
                    "duration": 1.2040939999999978
                }
            ],
            "controlChanges": {
                "7": [
                    {
                        "number": 7,
                        "time": 0,
                        "value": 0.7874015748031497
                    }
                ],
                "10": [
                    {
                        "number": 10,
                        "time": 0,
                        "value": 0.5039370078740157
                    }
                ],
                "91": [
                    {
                        "number": 91,
                        "time": 0,
                        "value": 1
                    }
                ]
            },
            "id": 1,
            "name": "Piano right",
            "instrumentNumber": 0,
            "instrument": "acoustic grand piano",
            "instrumentFamily": "piano",
            "channelNumber": 0,
            "isPercussion": false
        },
        {
            "startTime": 0,
            "duration": 93.91933200000047,
            "length": 495,
            "notes": [
                {
                    "name": "F3",
                    "midi": 53,
                    "time": 0,
                    "velocity": 0.2677165354330709,
                    "duration": 0.1128838125
                },
                {
                    "name": "F4",
                    "midi": 65,
                    "time": 0.3010235,
                    "velocity": 0.2125984251968504,
                    "duration": 0.11288381250000001
                },
                {
                    "name": "C4",
                    "midi": 60,
                    "time": 0.3010235,
                    "velocity": 0.1732283464566929,
                    "duration": 0.11288381250000001
                },
                {
                    "name": "F3",
                    "midi": 53,
                    "time": 0.602047,
                    "velocity": 0.2677165354330709,
                    "duration": 0.11288381250000001
                },
                {
                    "name": "F4",
                    "midi": 65,
                    "time": 0.9030705,
                    "velocity": 0.2125984251968504,
                    "duration": 0.1128838124999999
                },
                {
                    "name": "C4",
                    "midi": 60,
                    "time": 0.9030705,
                    "velocity": 0.1732283464566929,
                    "duration": 0.1128838124999999
                },
                {
                    "name": "F3",
                    "midi": 53,
                    "time": 1.204094,
                    "velocity": 0.2677165354330709,
                    "duration": 0.11288381250000001
                },
                {
                    "name": "F4",
                    "midi": 65,
                    "time": 1.5051174999999999,
                    "velocity": 0.2125984251968504,
                    "duration": 0.11288381250000001
                },
                {
                    "name": "C4",
                    "midi": 60,
                    "time": 1.5051174999999999,
                    "velocity": 0.1732283464566929,
                    "duration": 0.11288381250000001
                },
                {
                    "name": "F3",
                    "midi": 53,
                    "time": 1.8061409999999998,
                    "velocity": 0.2677165354330709,
                    "duration": 0.11288381250000001
                },
                {
                    "name": "F4",
                    "midi": 65,
                    "time": 2.1071644999999997,
                    "velocity": 0.1968503937007874,
                    "duration": 0.11288381249999979
                },
                {
                    "name": "C4",
                    "midi": 60,
                    "time": 2.1071644999999997,
                    "velocity": 0.15748031496062992,
                    "duration": 0.11288381249999979
                },
                {
                    "name": "F3",
                    "midi": 53,
                    "time": 2.4081879999999996,
                    "velocity": 0.2677165354330709,
                    "duration": 0.11288381249999979
                },
                {
                    "name": "F4",
                    "midi": 65,
                    "time": 2.7092114999999994,
                    "velocity": 0.2125984251968504,
                    "duration": 0.11288381249999979
                },
                {
                    "name": "C4",
                    "midi": 60,
                    "time": 2.7092114999999994,
                    "velocity": 0.18110236220472442,
                    "duration": 0.11288381249999979
                },
                {
                    "name": "F3",
                    "midi": 53,
                    "time": 3.0102349999999993,
                    "velocity": 0.2677165354330709,
                    "duration": 0.11288381249999979
                },
                {
                    "name": "E4",
                    "midi": 64,
                    "time": 3.311258499999999,
                    "velocity": 0.2125984251968504,
                    "duration": 0.11288381249999979
                },
                {
                    "name": "C4",
                    "midi": 60,
                    "time": 3.311258499999999,
                    "velocity": 0.1732283464566929,
                    "duration": 0.11288381249999979
                },
                {
                    "name": "F3",
                    "midi": 53,
                    "time": 3.612281999999999,
                    "velocity": 0.29133858267716534,
                    "duration": 0.11288381249999979
                },
                {
                    "name": "F4",
                    "midi": 65,
                    "time": 3.913305499999999,
                    "velocity": 0.2125984251968504,
                    "duration": 0.11288381249999979
                },
                {
                    "name": "C4",
                    "midi": 60,
                    "time": 3.913305499999999,
                    "velocity": 0.18110236220472442,
                    "duration": 0.11288381249999979
                },
                {
                    "name": "F3",
                    "midi": 53,
                    "time": 4.214328999999998,
                    "velocity": 0.29133858267716534,
                    "duration": 0.11288381249999979
                },
                {
                    "name": "F4",
                    "midi": 65,
                    "time": 4.515352499999998,
                    "velocity": 0.2204724409448819,
                    "duration": 0.11288381249999979
                },
                {
                    "name": "C4",
                    "midi": 60,
                    "time": 4.515352499999998,
                    "velocity": 0.1889763779527559,
                    "duration": 0.11288381249999979
                },
                {
                    "name": "F3",
                    "midi": 53,
                    "time": 4.816375999999997,
                    "velocity": 0.2677165354330709,
                    "duration": 0.11288381249999979
                },
                {
                    "name": "F4",
                    "midi": 65,
                    "time": 5.117399499999997,
                    "velocity": 0.2204724409448819,
                    "duration": 0.11288381249999979
                },
                {
                    "name": "C4",
                    "midi": 60,
                    "time": 5.117399499999997,
                    "velocity": 0.1889763779527559,
                    "duration": 0.11288381249999979
                },
                {
                    "name": "F3",
                    "midi": 53,
                    "time": 5.418422999999996,
                    "velocity": 0.2677165354330709,
                    "duration": 0.11288381249999979
                },
                {
                    "name": "E4",
                    "midi": 64,
                    "time": 5.719446499999996,
                    "velocity": 0.2204724409448819,
                    "duration": 0.11288381249999979
                },
                {
                    "name": "C4",
                    "midi": 60,
                    "time": 5.719446499999996,
                    "velocity": 0.1889763779527559,
                    "duration": 0.11288381249999979
                },
                {
                    "name": "F3",
                    "midi": 53,
                    "time": 6.020469999999995,
                    "velocity": 0.2992125984251969,
                    "duration": 0.11288381249999979
                },
                {
                    "name": "F4",
                    "midi": 65,
                    "time": 6.3214934999999945,
                    "velocity": 0.2283464566929134,
                    "duration": 0.11288381249999979
                },
                {
                    "name": "C4",
                    "midi": 60,
                    "time": 6.3214934999999945,
                    "velocity": 0.1968503937007874,
                    "duration": 0.11288381249999979
                },
                {
                    "name": "F3",
                    "midi": 53,
                    "time": 6.622516999999994,
                    "velocity": 0.2992125984251969,
                    "duration": 0.11288381249999979
                },
                {
                    "name": "F4",
                    "midi": 65,
                    "time": 6.923540499999993,
                    "velocity": 0.2283464566929134,
                    "duration": 0.11288381249999979
                },
                {
                    "name": "C4",
                    "midi": 60,
                    "time": 6.923540499999993,
                    "velocity": 0.1968503937007874,
                    "duration": 0.11288381249999979
                },
                {
                    "name": "C#3",
                    "midi": 49,
                    "time": 7.224563999999993,
                    "velocity": 0.25196850393700787,
                    "duration": 0.15051174999999972
                },
                {
                    "name": "F4",
                    "midi": 65,
                    "time": 7.525587499999992,
                    "velocity": 0.2125984251968504,
                    "duration": 0.15051174999999972
                },
                {
                    "name": "C#4",
                    "midi": 61,
                    "time": 7.525587499999992,
                    "velocity": 0.1732283464566929,
                    "duration": 0.15051174999999972
                },
                {
                    "name": "C3",
                    "midi": 48,
                    "time": 7.826610999999992,
                    "velocity": 0.25196850393700787,
                    "duration": 0.15051174999999972
                },
                {
                    "name": "F4",
                    "midi": 65,
                    "time": 8.127634499999992,
                    "velocity": 0.2125984251968504,
                    "duration": 0.15051174999999972
                },
                {
                    "name": "D#4",
                    "midi": 63,
                    "time": 8.127634499999992,
                    "velocity": 0.1732283464566929,
                    "duration": 0.15051174999999972
                },
                {
                    "name": "C4",
                    "midi": 60,
                    "time": 8.127634499999992,
                    "velocity": 0.1732283464566929,
                    "duration": 0.15051174999999972
                },
                {
                    "name": "A#2",
                    "midi": 46,
                    "time": 8.428657999999992,
                    "velocity": 0.25196850393700787,
                    "duration": 0.3010235000000012
                },
                {
                    "name": "F4",
                    "midi": 65,
                    "time": 8.729681499999993,
                    "velocity": 0.1968503937007874,
                    "duration": 0.15051174999999972
                },
                {
                    "name": "C#4",
                    "midi": 61,
                    "time": 8.729681499999993,
                    "velocity": 0.15748031496062992,
                    "duration": 0.15051174999999972
                },
                {
                    "name": "A#3",
                    "midi": 58,
                    "time": 8.729681499999993,
                    "velocity": 0.15748031496062992,
                    "duration": 0.15051174999999972
                },
                {
                    "name": "F3",
                    "midi": 53,
                    "time": 9.030704999999992,
                    "velocity": 0.23622047244094488,
                    "duration": 0.30102349999999944
                },
                {
                    "name": "F4",
                    "midi": 65,
                    "time": 9.331728499999992,
                    "velocity": 0.1968503937007874,
                    "duration": 0.30102349999999944
                },
                {
                    "name": "C4",
                    "midi": 60,
                    "time": 9.331728499999992,
                    "velocity": 0.15748031496062992,
                    "duration": 0.30102349999999944
                },
                {
                    "name": "C3",
                    "midi": 48,
                    "time": 9.632751999999991,
                    "velocity": 0.23622047244094488,
                    "duration": 0.11288381249999979
                },
                {
                    "name": "F4",
                    "midi": 65,
                    "time": 9.93377549999999,
                    "velocity": 0.2125984251968504,
                    "duration": 0.11288381249999979
                },
                {
                    "name": "C4",
                    "midi": 60,
                    "time": 9.93377549999999,
                    "velocity": 0.1732283464566929,
                    "duration": 0.11288381249999979
                },
                {
                    "name": "C3",
                    "midi": 48,
                    "time": 10.23479899999999,
                    "velocity": 0.2283464566929134,
                    "duration": 0.11288381249999979
                },
                {
                    "name": "E4",
                    "midi": 64,
                    "time": 10.53582249999999,
                    "velocity": 0.1968503937007874,
                    "duration": 0.11288381249999979
                },
                {
                    "name": "C4",
                    "midi": 60,
                    "time": 10.53582249999999,
                    "velocity": 0.15748031496062992,
                    "duration": 0.11288381249999979
                },
                {
                    "name": "F3",
                    "midi": 53,
                    "time": 10.836845999999989,
                    "velocity": 0.25196850393700787,
                    "duration": 0.1505117500000015
                },
                {
                    "name": "F4",
                    "midi": 65,
                    "time": 11.13786949999999,
                    "velocity": 0.2125984251968504,
                    "duration": 0.15051174999999972
                },
                {
                    "name": "C4",
                    "midi": 60,
                    "time": 11.13786949999999,
                    "velocity": 0.1732283464566929,
                    "duration": 0.15051174999999972
                },
                {
                    "name": "F3",
                    "midi": 53,
                    "time": 11.43889299999999,
                    "velocity": 0.2283464566929134,
                    "duration": 0.15051174999999972
                },
                {
                    "name": "F4",
                    "midi": 65,
                    "time": 11.739916499999989,
                    "velocity": 0.2125984251968504,
                    "duration": 0.15051174999999972
                },
                {
                    "name": "C4",
                    "midi": 60,
                    "time": 11.739916499999989,
                    "velocity": 0.18110236220472442,
                    "duration": 0.15051174999999972
                },
                {
                    "name": "F3",
                    "midi": 53,
                    "time": 12.040939999999988,
                    "velocity": 0.2677165354330709,
                    "duration": 0.11288381249999979
                },
                {
                    "name": "F4",
                    "midi": 65,
                    "time": 12.341963499999988,
                    "velocity": 0.2125984251968504,
                    "duration": 0.11288381249999979
                },
                {
                    "name": "C4",
                    "midi": 60,
                    "time": 12.341963499999988,
                    "velocity": 0.18110236220472442,
                    "duration": 0.11288381249999979
                },
                {
                    "name": "F3",
                    "midi": 53,
                    "time": 12.642986999999987,
                    "velocity": 0.2677165354330709,
                    "duration": 0.11288381249999979
                },
                {
                    "name": "E4",
                    "midi": 64,
                    "time": 12.944010499999987,
                    "velocity": 0.2125984251968504,
                    "duration": 0.11288381249999979
                },
                {
                    "name": "C4",
                    "midi": 60,
                    "time": 12.944010499999987,
                    "velocity": 0.1732283464566929,
                    "duration": 0.11288381249999979
                },
                {
                    "name": "F3",
                    "midi": 53,
                    "time": 13.245033999999986,
                    "velocity": 0.28346456692913385,
                    "duration": 0.11288381249999979
                },
                {
                    "name": "F4",
                    "midi": 65,
                    "time": 13.546057499999986,
                    "velocity": 0.2283464566929134,
                    "duration": 0.11288381249999979
                },
                {
                    "name": "C4",
                    "midi": 60,
                    "time": 13.546057499999986,
                    "velocity": 0.1968503937007874,
                    "duration": 0.11288381249999979
                },
                {
                    "name": "F3",
                    "midi": 53,
                    "time": 13.847080999999985,
                    "velocity": 0.25196850393700787,
                    "duration": 0.11288381249999979
                },
                {
                    "name": "F4",
                    "midi": 65,
                    "time": 14.148104499999985,
                    "velocity": 0.2204724409448819,
                    "duration": 0.11288381249999979
                },
                {
                    "name": "C4",
                    "midi": 60,
                    "time": 14.148104499999985,
                    "velocity": 0.1889763779527559,
                    "duration": 0.11288381249999979
                },
                {
                    "name": "F3",
                    "midi": 53,
                    "time": 14.449127999999984,
                    "velocity": 0.2677165354330709,
                    "duration": 0.11288381249999979
                },
                {
                    "name": "F4",
                    "midi": 65,
                    "time": 14.750151499999983,
                    "velocity": 0.2204724409448819,
                    "duration": 0.11288381249999979
                },
                {
                    "name": "C4",
                    "midi": 60,
                    "time": 14.750151499999983,
                    "velocity": 0.1889763779527559,
                    "duration": 0.11288381249999979
                },
                {
                    "name": "F3",
                    "midi": 53,
                    "time": 15.051174999999983,
                    "velocity": 0.25196850393700787,
                    "duration": 0.11288381249999979
                },
                {
                    "name": "E4",
                    "midi": 64,
                    "time": 15.352198499999982,
                    "velocity": 0.2204724409448819,
                    "duration": 0.11288381249999979
                },
                {
                    "name": "C4",
                    "midi": 60,
                    "time": 15.352198499999982,
                    "velocity": 0.1889763779527559,
                    "duration": 0.11288381249999979
                },
                {
                    "name": "F3",
                    "midi": 53,
                    "time": 15.653221999999982,
                    "velocity": 0.2992125984251969,
                    "duration": 0.11288381249999979
                },
                {
                    "name": "F4",
                    "midi": 65,
                    "time": 15.954245499999981,
                    "velocity": 0.2283464566929134,
                    "duration": 0.11288381250000157
                },
                {
                    "name": "C4",
                    "midi": 60,
                    "time": 15.954245499999981,
                    "velocity": 0.1968503937007874,
                    "duration": 0.11288381250000157
                },
                {
                    "name": "F3",
                    "midi": 53,
                    "time": 16.255268999999984,
                    "velocity": 0.2992125984251969,
                    "duration": 0.11288381250000157
                },
                {
                    "name": "F4",
                    "midi": 65,
                    "time": 16.556292499999987,
                    "velocity": 0.2283464566929134,
                    "duration": 0.11288381250000157
                },
                {
                    "name": "C4",
                    "midi": 60,
                    "time": 16.556292499999987,
                    "velocity": 0.1968503937007874,
                    "duration": 0.11288381250000157
                },
                {
                    "name": "C#3",
                    "midi": 49,
                    "time": 16.85731599999999,
                    "velocity": 0.25196850393700787,
                    "duration": 0.15051174999999972
                },
                {
                    "name": "F4",
                    "midi": 65,
                    "time": 17.15833949999999,
                    "velocity": 0.2125984251968504,
                    "duration": 0.15051174999999972
                },
                {
                    "name": "C#4",
                    "midi": 61,
                    "time": 17.15833949999999,
                    "velocity": 0.1732283464566929,
                    "duration": 0.15051174999999972
                },
                {
                    "name": "C3",
                    "midi": 48,
                    "time": 17.45936299999999,
                    "velocity": 0.25196850393700787,
                    "duration": 0.15051174999999972
                },
                {
                    "name": "F4",
                    "midi": 65,
                    "time": 17.76038649999999,
                    "velocity": 0.2125984251968504,
                    "duration": 0.15051174999999972
                },
                {
                    "name": "D#4",
                    "midi": 63,
                    "time": 17.76038649999999,
                    "velocity": 0.1732283464566929,
                    "duration": 0.15051174999999972
                },
                {
                    "name": "C4",
                    "midi": 60,
                    "time": 17.76038649999999,
                    "velocity": 0.1732283464566929,
                    "duration": 0.15051174999999972
                },
                {
                    "name": "A#2",
                    "midi": 46,
                    "time": 18.061409999999988,
                    "velocity": 0.25196850393700787,
                    "duration": 0.301023500000003
                },
                {
                    "name": "F4",
                    "midi": 65,
                    "time": 18.36243349999999,
                    "velocity": 0.1968503937007874,
                    "duration": 0.15051174999999972
                },
                {
                    "name": "C#4",
                    "midi": 61,
                    "time": 18.36243349999999,
                    "velocity": 0.15748031496062992,
                    "duration": 0.15051174999999972
                },
                {
                    "name": "A#3",
                    "midi": 58,
                    "time": 18.36243349999999,
                    "velocity": 0.15748031496062992,
                    "duration": 0.15051174999999972
                },
                {
                    "name": "F3",
                    "midi": 53,
                    "time": 18.66345699999999,
                    "velocity": 0.2283464566929134,
                    "duration": 0.301023500000003
                },
                {
                    "name": "F4",
                    "midi": 65,
                    "time": 18.964480499999993,
                    "velocity": 0.1968503937007874,
                    "duration": 0.30102349999999944
                },
                {
                    "name": "C4",
                    "midi": 60,
                    "time": 18.964480499999993,
                    "velocity": 0.15748031496062992,
                    "duration": 0.30102349999999944
                },
                {
                    "name": "C3",
                    "midi": 48,
                    "time": 19.265503999999993,
                    "velocity": 0.23622047244094488,
                    "duration": 0.11288381250000157
                },
                {
                    "name": "F4",
                    "midi": 65,
                    "time": 19.566527499999996,
                    "velocity": 0.2125984251968504,
                    "duration": 0.11288381250000157
                },
                {
                    "name": "C4",
                    "midi": 60,
                    "time": 19.566527499999996,
                    "velocity": 0.1732283464566929,
                    "duration": 0.11288381250000157
                },
                {
                    "name": "C3",
                    "midi": 48,
                    "time": 19.867551,
                    "velocity": 0.2283464566929134,
                    "duration": 0.11288381250000157
                },
                {
                    "name": "E4",
                    "midi": 64,
                    "time": 20.168574500000002,
                    "velocity": 0.1968503937007874,
                    "duration": 0.11288381250000157
                },
                {
                    "name": "C4",
                    "midi": 60,
                    "time": 20.168574500000002,
                    "velocity": 0.15748031496062992,
                    "duration": 0.11288381250000157
                },
                {
                    "name": "F3",
                    "midi": 53,
                    "time": 20.469598000000005,
                    "velocity": 0.25196850393700787,
                    "duration": 0.15051174999999972
                },
                {
                    "name": "F4",
                    "midi": 65,
                    "time": 20.770621500000004,
                    "velocity": 0.2125984251968504,
                    "duration": 0.15051174999999972
                },
                {
                    "name": "C4",
                    "midi": 60,
                    "time": 20.770621500000004,
                    "velocity": 0.1732283464566929,
                    "duration": 0.15051174999999972
                },
                {
                    "name": "F3",
                    "midi": 53,
                    "time": 21.071645000000004,
                    "velocity": 0.2283464566929134,
                    "duration": 0.15051174999999972
                },
                {
                    "name": "F4",
                    "midi": 65,
                    "time": 21.372668500000003,
                    "velocity": 0.2125984251968504,
                    "duration": 0.15051174999999972
                },
                {
                    "name": "C4",
                    "midi": 60,
                    "time": 21.372668500000003,
                    "velocity": 0.18110236220472442,
                    "duration": 0.15051174999999972
                },
                {
                    "name": "G#3",
                    "midi": 56,
                    "time": 21.673692000000003,
                    "velocity": 0.23622047244094488,
                    "duration": 0.15051174999999972
                },
                {
                    "name": "C4",
                    "midi": 60,
                    "time": 21.974715500000002,
                    "velocity": 0.18110236220472442,
                    "duration": 0.15051174999999972
                },
                {
                    "name": "D#4",
                    "midi": 63,
                    "time": 21.974715500000002,
                    "velocity": 0.18110236220472442,
                    "duration": 0.15051174999999972
                },
                {
                    "name": "G#4",
                    "midi": 68,
                    "time": 21.974715500000002,
                    "velocity": 0.2125984251968504,
                    "duration": 0.15051174999999972
                },
                {
                    "name": "G#3",
                    "midi": 56,
                    "time": 22.275739,
                    "velocity": 0.2283464566929134,
                    "duration": 0.15051174999999972
                },
                {
                    "name": "C4",
                    "midi": 60,
                    "time": 22.5767625,
                    "velocity": 0.18110236220472442,
                    "duration": 0.15051174999999972
                },
                {
                    "name": "D#4",
                    "midi": 63,
                    "time": 22.5767625,
                    "velocity": 0.18110236220472442,
                    "duration": 0.15051174999999972
                },
                {
                    "name": "G#4",
                    "midi": 68,
                    "time": 22.5767625,
                    "velocity": 0.2125984251968504,
                    "duration": 0.15051174999999972
                },
                {
                    "name": "G#3",
                    "midi": 56,
                    "time": 22.877786,
                    "velocity": 0.25196850393700787,
                    "duration": 0.15051174999999972
                },
                {
                    "name": "G4",
                    "midi": 67,
                    "time": 23.1788095,
                    "velocity": 0.2125984251968504,
                    "duration": 0.15051174999999972
                },
                {
                    "name": "D#4",
                    "midi": 63,
                    "time": 23.1788095,
                    "velocity": 0.18110236220472442,
                    "duration": 0.15051174999999972
                },
                {
                    "name": "A#3",
                    "midi": 58,
                    "time": 23.1788095,
                    "velocity": 0.18110236220472442,
                    "duration": 0.15051174999999972
                },
                {
                    "name": "G#3",
                    "midi": 56,
                    "time": 23.479833,
                    "velocity": 0.2204724409448819,
                    "duration": 0.15051174999999972
                },
                {
                    "name": "G4",
                    "midi": 67,
                    "time": 23.7808565,
                    "velocity": 0.2125984251968504,
                    "duration": 0.15051174999999972
                },
                {
                    "name": "D#4",
                    "midi": 63,
                    "time": 23.7808565,
                    "velocity": 0.1732283464566929,
                    "duration": 0.15051174999999972
                },
                {
                    "name": "A#3",
                    "midi": 58,
                    "time": 23.7808565,
                    "velocity": 0.1732283464566929,
                    "duration": 0.15051174999999972
                },
                {
                    "name": "G#3",
                    "midi": 56,
                    "time": 24.081879999999998,
                    "velocity": 0.2283464566929134,
                    "duration": 0.15051174999999972
                },
                {
                    "name": "G4",
                    "midi": 67,
                    "time": 24.382903499999998,
                    "velocity": 0.2125984251968504,
                    "duration": 0.15051174999999972
                },
                {
                    "name": "D#4",
                    "midi": 63,
                    "time": 24.382903499999998,
                    "velocity": 0.1732283464566929,
                    "duration": 0.15051174999999972
                },
                {
                    "name": "C#4",
                    "midi": 61,
                    "time": 24.382903499999998,
                    "velocity": 0.1732283464566929,
                    "duration": 0.15051174999999972
                },
                {
                    "name": "G#3",
                    "midi": 56,
                    "time": 24.683926999999997,
                    "velocity": 0.2283464566929134,
                    "duration": 0.15051174999999972
                },
                {
                    "name": "G4",
                    "midi": 67,
                    "time": 24.984950499999997,
                    "velocity": 0.2125984251968504,
                    "duration": 0.15051174999999972
                },
                {
                    "name": "D#4",
                    "midi": 63,
                    "time": 24.984950499999997,
                    "velocity": 0.1732283464566929,
                    "duration": 0.15051174999999972
                },
                {
                    "name": "C#4",
                    "midi": 61,
                    "time": 24.984950499999997,
                    "velocity": 0.1732283464566929,
                    "duration": 0.15051174999999972
                },
                {
                    "name": "G#3",
                    "midi": 56,
                    "time": 25.285973999999996,
                    "velocity": 0.25196850393700787,
                    "duration": 0.15051174999999972
                },
                {
                    "name": "G#4",
                    "midi": 68,
                    "time": 25.586997499999995,
                    "velocity": 0.2125984251968504,
                    "duration": 0.15051174999999972
                },
                {
                    "name": "D#4",
                    "midi": 63,
                    "time": 25.586997499999995,
                    "velocity": 0.18110236220472442,
                    "duration": 0.15051174999999972
                },
                {
                    "name": "C4",
                    "midi": 60,
                    "time": 25.586997499999995,
                    "velocity": 0.18110236220472442,
                    "duration": 0.15051174999999972
                },
                {
                    "name": "G#3",
                    "midi": 56,
                    "time": 25.888020999999995,
                    "velocity": 0.2283464566929134,
                    "duration": 0.15051174999999972
                },
                {
                    "name": "G#4",
                    "midi": 68,
                    "time": 26.189044499999994,
                    "velocity": 0.2125984251968504,
                    "duration": 0.15051174999999972
                },
                {
                    "name": "D#4",
                    "midi": 63,
                    "time": 26.189044499999994,
                    "velocity": 0.18110236220472442,
                    "duration": 0.15051174999999972
                },
                {
                    "name": "C4",
                    "midi": 60,
                    "time": 26.189044499999994,
                    "velocity": 0.18110236220472442,
                    "duration": 0.15051174999999972
                },
                {
                    "name": "G#3",
                    "midi": 56,
                    "time": 26.490067999999994,
                    "velocity": 0.2677165354330709,
                    "duration": 0.30102349999999944
                },
                {
                    "name": "G#4",
                    "midi": 68,
                    "time": 26.791091499999993,
                    "velocity": 0.2204724409448819,
                    "duration": 0.30102349999999944
                },
                {
                    "name": "C4",
                    "midi": 60,
                    "time": 26.791091499999993,
                    "velocity": 0.1889763779527559,
                    "duration": 0.30102349999999944
                },
                {
                    "name": "D#4",
                    "midi": 63,
                    "time": 26.791091499999993,
                    "velocity": 0.1889763779527559,
                    "duration": 0.30102349999999944
                },
                {
                    "name": "G#3",
                    "midi": 56,
                    "time": 27.092114999999993,
                    "velocity": 0.25196850393700787,
                    "duration": 0.30102349999999944
                },
                {
                    "name": "G#4",
                    "midi": 68,
                    "time": 27.393138499999992,
                    "velocity": 0.2283464566929134,
                    "duration": 0.30102349999999944
                },
                {
                    "name": "D#4",
                    "midi": 63,
                    "time": 27.393138499999992,
                    "velocity": 0.1968503937007874,
                    "duration": 0.30102349999999944
                },
                {
                    "name": "C4",
                    "midi": 60,
                    "time": 27.393138499999992,
                    "velocity": 0.1968503937007874,
                    "duration": 0.30102349999999944
                },
                {
                    "name": "C#3",
                    "midi": 49,
                    "time": 27.69416199999999,
                    "velocity": 0.2283464566929134,
                    "duration": 0.11288381249999802
                },
                {
                    "name": "F4",
                    "midi": 65,
                    "time": 27.99518549999999,
                    "velocity": 0.2125984251968504,
                    "duration": 0.11288381250000157
                },
                {
                    "name": "C#4",
                    "midi": 61,
                    "time": 27.99518549999999,
                    "velocity": 0.18110236220472442,
                    "duration": 0.11288381250000157
                },
                {
                    "name": "C#3",
                    "midi": 49,
                    "time": 28.296208999999994,
                    "velocity": 0.23622047244094488,
                    "duration": 0.11288381250000157
                },
                {
                    "name": "F4",
                    "midi": 65,
                    "time": 28.597232499999997,
                    "velocity": 0.2125984251968504,
                    "duration": 0.11288381250000157
                },
                {
                    "name": "C#4",
                    "midi": 61,
                    "time": 28.597232499999997,
                    "velocity": 0.18110236220472442,
                    "duration": 0.11288381250000157
                },
                {
                    "name": "D#3",
                    "midi": 51,
                    "time": 28.898256,
                    "velocity": 0.2283464566929134,
                    "duration": 0.11288381250000157
                },
                {
                    "name": "D#4",
                    "midi": 63,
                    "time": 29.199279500000003,
                    "velocity": 0.2125984251968504,
                    "duration": 0.11288381250000157
                },
                {
                    "name": "C#4",
                    "midi": 61,
                    "time": 29.199279500000003,
                    "velocity": 0.1732283464566929,
                    "duration": 0.11288381250000157
                },
                {
                    "name": "A#3",
                    "midi": 58,
                    "time": 29.199279500000003,
                    "velocity": 0.1732283464566929,
                    "duration": 0.11288381250000157
                },
                {
                    "name": "D#3",
                    "midi": 51,
                    "time": 29.500303000000006,
                    "velocity": 0.2283464566929134,
                    "duration": 0.11288381250000157
                },
                {
                    "name": "C#4",
                    "midi": 61,
                    "time": 29.80132650000001,
                    "velocity": 0.1732283464566929,
                    "duration": 0.11288381250000157
                },
                {
                    "name": "D#4",
                    "midi": 63,
                    "time": 29.80132650000001,
                    "velocity": 0.2125984251968504,
                    "duration": 0.11288381250000157
                },
                {
                    "name": "A#3",
                    "midi": 58,
                    "time": 29.80132650000001,
                    "velocity": 0.1732283464566929,
                    "duration": 0.11288381250000157
                },
                {
                    "name": "G#3",
                    "midi": 56,
                    "time": 30.102350000000012,
                    "velocity": 0.2283464566929134,
                    "duration": 0.30102349999999944
                },
                {
                    "name": "D#4",
                    "midi": 63,
                    "time": 30.40337350000001,
                    "velocity": 0.1968503937007874,
                    "duration": 0.30102349999999944
                },
                {
                    "name": "C4",
                    "midi": 60,
                    "time": 30.40337350000001,
                    "velocity": 0.15748031496062992,
                    "duration": 0.30102349999999944
                },
                {
                    "name": "G#3",
                    "midi": 56,
                    "time": 30.70439700000001,
                    "velocity": 0.2204724409448819,
                    "duration": 0.30102349999999944
                },
                {
                    "name": "D#4",
                    "midi": 63,
                    "time": 31.00542050000001,
                    "velocity": 0.1968503937007874,
                    "duration": 0.30102349999999944
                },
                {
                    "name": "C4",
                    "midi": 60,
                    "time": 31.00542050000001,
                    "velocity": 0.15748031496062992,
                    "duration": 0.30102349999999944
                },
                {
                    "name": "G#3",
                    "midi": 56,
                    "time": 31.30644400000001,
                    "velocity": 0.23622047244094488,
                    "duration": 0.15051174999999972
                },
                {
                    "name": "C4",
                    "midi": 60,
                    "time": 31.60746750000001,
                    "velocity": 0.18110236220472442,
                    "duration": 0.15051174999999972
                },
                {
                    "name": "D#4",
                    "midi": 63,
                    "time": 31.60746750000001,
                    "velocity": 0.18110236220472442,
                    "duration": 0.15051174999999972
                },
                {
                    "name": "G#4",
                    "midi": 68,
                    "time": 31.60746750000001,
                    "velocity": 0.2125984251968504,
                    "duration": 0.15051174999999972
                },
                {
                    "name": "G#3",
                    "midi": 56,
                    "time": 31.90849100000001,
                    "velocity": 0.2283464566929134,
                    "duration": 0.15051175000000327
                },
                {
                    "name": "C4",
                    "midi": 60,
                    "time": 32.20951450000001,
                    "velocity": 0.18110236220472442,
                    "duration": 0.15051174999999972
                },
                {
                    "name": "D#4",
                    "midi": 63,
                    "time": 32.20951450000001,
                    "velocity": 0.18110236220472442,
                    "duration": 0.15051174999999972
                },
                {
                    "name": "G#4",
                    "midi": 68,
                    "time": 32.20951450000001,
                    "velocity": 0.2125984251968504,
                    "duration": 0.15051174999999972
                },
                {
                    "name": "G#3",
                    "midi": 56,
                    "time": 32.51053800000001,
                    "velocity": 0.25196850393700787,
                    "duration": 0.15051174999999972
                },
                {
                    "name": "G4",
                    "midi": 67,
                    "time": 32.81156150000001,
                    "velocity": 0.2125984251968504,
                    "duration": 0.15051174999999972
                },
                {
                    "name": "D#4",
                    "midi": 63,
                    "time": 32.81156150000001,
                    "velocity": 0.18110236220472442,
                    "duration": 0.15051174999999972
                },
                {
                    "name": "A#3",
                    "midi": 58,
                    "time": 32.81156150000001,
                    "velocity": 0.18110236220472442,
                    "duration": 0.15051174999999972
                },
                {
                    "name": "G#3",
                    "midi": 56,
                    "time": 33.11258500000001,
                    "velocity": 0.2204724409448819,
                    "duration": 0.15051174999999972
                },
                {
                    "name": "G4",
                    "midi": 67,
                    "time": 33.41360850000001,
                    "velocity": 0.2125984251968504,
                    "duration": 0.15051174999999972
                },
                {
                    "name": "D#4",
                    "midi": 63,
                    "time": 33.41360850000001,
                    "velocity": 0.1732283464566929,
                    "duration": 0.15051174999999972
                },
                {
                    "name": "A#3",
                    "midi": 58,
                    "time": 33.41360850000001,
                    "velocity": 0.1732283464566929,
                    "duration": 0.15051174999999972
                },
                {
                    "name": "G#3",
                    "midi": 56,
                    "time": 33.71463200000001,
                    "velocity": 0.2283464566929134,
                    "duration": 0.15051174999999972
                },
                {
                    "name": "G4",
                    "midi": 67,
                    "time": 34.01565550000001,
                    "velocity": 0.2125984251968504,
                    "duration": 0.15051174999999972
                },
                {
                    "name": "D#4",
                    "midi": 63,
                    "time": 34.01565550000001,
                    "velocity": 0.1732283464566929,
                    "duration": 0.15051174999999972
                },
                {
                    "name": "C#4",
                    "midi": 61,
                    "time": 34.01565550000001,
                    "velocity": 0.1732283464566929,
                    "duration": 0.15051174999999972
                },
                {
                    "name": "G#3",
                    "midi": 56,
                    "time": 34.31667900000001,
                    "velocity": 0.2283464566929134,
                    "duration": 0.15051174999999972
                },
                {
                    "name": "G4",
                    "midi": 67,
                    "time": 34.61770250000001,
                    "velocity": 0.2125984251968504,
                    "duration": 0.15051174999999972
                },
                {
                    "name": "D#4",
                    "midi": 63,
                    "time": 34.61770250000001,
                    "velocity": 0.1732283464566929,
                    "duration": 0.15051174999999972
                },
                {
                    "name": "C#4",
                    "midi": 61,
                    "time": 34.61770250000001,
                    "velocity": 0.1732283464566929,
                    "duration": 0.15051174999999972
                },
                {
                    "name": "G#3",
                    "midi": 56,
                    "time": 34.91872600000001,
                    "velocity": 0.25196850393700787,
                    "duration": 0.15051174999999972
                },
                {
                    "name": "G#4",
                    "midi": 68,
                    "time": 35.219749500000006,
                    "velocity": 0.2125984251968504,
                    "duration": 0.15051174999999972
                },
                {
                    "name": "D#4",
                    "midi": 63,
                    "time": 35.219749500000006,
                    "velocity": 0.18110236220472442,
                    "duration": 0.15051174999999972
                },
                {
                    "name": "C4",
                    "midi": 60,
                    "time": 35.219749500000006,
                    "velocity": 0.18110236220472442,
                    "duration": 0.15051174999999972
                },
                {
                    "name": "G#3",
                    "midi": 56,
                    "time": 35.520773000000005,
                    "velocity": 0.2283464566929134,
                    "duration": 0.15051174999999972
                },
                {
                    "name": "G#4",
                    "midi": 68,
                    "time": 35.821796500000005,
                    "velocity": 0.2125984251968504,
                    "duration": 0.15051174999999972
                },
                {
                    "name": "D#4",
                    "midi": 63,
                    "time": 35.821796500000005,
                    "velocity": 0.18110236220472442,
                    "duration": 0.15051174999999972
                },
                {
                    "name": "C4",
                    "midi": 60,
                    "time": 35.821796500000005,
                    "velocity": 0.18110236220472442,
                    "duration": 0.15051174999999972
                },
                {
                    "name": "G#3",
                    "midi": 56,
                    "time": 36.122820000000004,
                    "velocity": 0.2677165354330709,
                    "duration": 0.30102349999999944
                },
                {
                    "name": "G#4",
                    "midi": 68,
                    "time": 36.423843500000004,
                    "velocity": 0.2204724409448819,
                    "duration": 0.30102349999999944
                },
                {
                    "name": "C4",
                    "midi": 60,
                    "time": 36.423843500000004,
                    "velocity": 0.1889763779527559,
                    "duration": 0.30102349999999944
                },
                {
                    "name": "D#4",
                    "midi": 63,
                    "time": 36.423843500000004,
                    "velocity": 0.1889763779527559,
                    "duration": 0.30102349999999944
                },
                {
                    "name": "G#3",
                    "midi": 56,
                    "time": 36.724867,
                    "velocity": 0.25196850393700787,
                    "duration": 0.30102349999999944
                },
                {
                    "name": "G#4",
                    "midi": 68,
                    "time": 37.0258905,
                    "velocity": 0.2283464566929134,
                    "duration": 0.30102349999999944
                },
                {
                    "name": "D#4",
                    "midi": 63,
                    "time": 37.0258905,
                    "velocity": 0.1968503937007874,
                    "duration": 0.30102349999999944
                },
                {
                    "name": "C4",
                    "midi": 60,
                    "time": 37.0258905,
                    "velocity": 0.1968503937007874,
                    "duration": 0.30102349999999944
                },
                {
                    "name": "C#3",
                    "midi": 49,
                    "time": 37.326914,
                    "velocity": 0.2283464566929134,
                    "duration": 0.11288381250000157
                },
                {
                    "name": "F4",
                    "midi": 65,
                    "time": 37.6279375,
                    "velocity": 0.2125984251968504,
                    "duration": 0.11288381250000157
                },
                {
                    "name": "C#4",
                    "midi": 61,
                    "time": 37.6279375,
                    "velocity": 0.18110236220472442,
                    "duration": 0.11288381250000157
                },
                {
                    "name": "C#3",
                    "midi": 49,
                    "time": 37.928961,
                    "velocity": 0.23622047244094488,
                    "duration": 0.11288381250000157
                },
                {
                    "name": "F4",
                    "midi": 65,
                    "time": 38.2299845,
                    "velocity": 0.2125984251968504,
                    "duration": 0.11288381250000157
                },
                {
                    "name": "C#4",
                    "midi": 61,
                    "time": 38.2299845,
                    "velocity": 0.18110236220472442,
                    "duration": 0.11288381250000157
                },
                {
                    "name": "D#3",
                    "midi": 51,
                    "time": 38.531008,
                    "velocity": 0.2283464566929134,
                    "duration": 0.11288381250000157
                },
                {
                    "name": "D#4",
                    "midi": 63,
                    "time": 38.8320315,
                    "velocity": 0.2125984251968504,
                    "duration": 0.11288381250000157
                },
                {
                    "name": "C#4",
                    "midi": 61,
                    "time": 38.8320315,
                    "velocity": 0.1732283464566929,
                    "duration": 0.11288381250000157
                },
                {
                    "name": "A#3",
                    "midi": 58,
                    "time": 38.8320315,
                    "velocity": 0.1732283464566929,
                    "duration": 0.11288381250000157
                },
                {
                    "name": "D#3",
                    "midi": 51,
                    "time": 39.133055,
                    "velocity": 0.2283464566929134,
                    "duration": 0.11288381250000157
                },
                {
                    "name": "C#4",
                    "midi": 61,
                    "time": 39.4340785,
                    "velocity": 0.1732283464566929,
                    "duration": 0.11288381250000157
                },
                {
                    "name": "D#4",
                    "midi": 63,
                    "time": 39.4340785,
                    "velocity": 0.2125984251968504,
                    "duration": 0.11288381250000157
                },
                {
                    "name": "A#3",
                    "midi": 58,
                    "time": 39.4340785,
                    "velocity": 0.1732283464566929,
                    "duration": 0.11288381250000157
                },
                {
                    "name": "G#3",
                    "midi": 56,
                    "time": 39.735102,
                    "velocity": 0.2283464566929134,
                    "duration": 0.30102349999999944
                },
                {
                    "name": "D#4",
                    "midi": 63,
                    "time": 40.0361255,
                    "velocity": 0.1968503937007874,
                    "duration": 0.30102349999999944
                },
                {
                    "name": "C4",
                    "midi": 60,
                    "time": 40.0361255,
                    "velocity": 0.15748031496062992,
                    "duration": 0.30102349999999944
                },
                {
                    "name": "G#3",
                    "midi": 56,
                    "time": 40.337149,
                    "velocity": 0.2204724409448819,
                    "duration": 0.30102349999999944
                },
                {
                    "name": "D#4",
                    "midi": 63,
                    "time": 40.638172499999996,
                    "velocity": 0.1968503937007874,
                    "duration": 0.30102349999999944
                },
                {
                    "name": "C4",
                    "midi": 60,
                    "time": 40.638172499999996,
                    "velocity": 0.15748031496062992,
                    "duration": 0.30102349999999944
                },
                {
                    "name": "C3",
                    "midi": 48,
                    "time": 40.939195999999995,
                    "velocity": 0.4015748031496063,
                    "duration": 0.15051174999999972
                },
                {
                    "name": "E4",
                    "midi": 64,
                    "time": 41.240219499999995,
                    "velocity": 0.3543307086614173,
                    "duration": 0.15051174999999972
                },
                {
                    "name": "C4",
                    "midi": 60,
                    "time": 41.240219499999995,
                    "velocity": 0.2992125984251969,
                    "duration": 0.15051174999999972
                },
                {
                    "name": "C3",
                    "midi": 48,
                    "time": 41.541242999999994,
                    "velocity": 0.4015748031496063,
                    "duration": 0.15051174999999972
                },
                {
                    "name": "E4",
                    "midi": 64,
                    "time": 41.842266499999994,
                    "velocity": 0.3543307086614173,
                    "duration": 0.15051174999999972
                },
                {
                    "name": "C4",
                    "midi": 60,
                    "time": 41.842266499999994,
                    "velocity": 0.2992125984251969,
                    "duration": 0.15051174999999972
                },
                {
                    "name": "C3",
                    "midi": 48,
                    "time": 42.14328999999999,
                    "velocity": 0.36220472440944884,
                    "duration": 0.15051174999999972
                },
                {
                    "name": "F4",
                    "midi": 65,
                    "time": 42.44431349999999,
                    "velocity": 0.29133858267716534,
                    "duration": 0.15051174999999972
                },
                {
                    "name": "C4",
                    "midi": 60,
                    "time": 42.44431349999999,
                    "velocity": 0.2440944881889764,
                    "duration": 0.15051174999999972
                },
                {
                    "name": "C3",
                    "midi": 48,
                    "time": 42.74533699999999,
                    "velocity": 0.36220472440944884,
                    "duration": 0.15051174999999972
                },
                {
                    "name": "F4",
                    "midi": 65,
                    "time": 43.04636049999999,
                    "velocity": 0.29133858267716534,
                    "duration": 0.15051174999999972
                },
                {
                    "name": "C4",
                    "midi": 60,
                    "time": 43.04636049999999,
                    "velocity": 0.2440944881889764,
                    "duration": 0.15051174999999972
                },
                {
                    "name": "C3",
                    "midi": 48,
                    "time": 43.34738399999999,
                    "velocity": 0.4094488188976378,
                    "duration": 0.15051174999999972
                },
                {
                    "name": "E4",
                    "midi": 64,
                    "time": 43.64840749999999,
                    "velocity": 0.3779527559055118,
                    "duration": 0.15051174999999972
                },
                {
                    "name": "C4",
                    "midi": 60,
                    "time": 43.64840749999999,
                    "velocity": 0.31496062992125984,
                    "duration": 0.15051174999999972
                },
                {
                    "name": "C3",
                    "midi": 48,
                    "time": 43.94943099999999,
                    "velocity": 0.4094488188976378,
                    "duration": 0.15051174999999972
                },
                {
                    "name": "E4",
                    "midi": 64,
                    "time": 44.25045449999999,
                    "velocity": 0.3779527559055118,
                    "duration": 0.15051174999999972
                },
                {
                    "name": "C4",
                    "midi": 60,
                    "time": 44.25045449999999,
                    "velocity": 0.31496062992125984,
                    "duration": 0.15051174999999972
                },
                {
                    "name": "C3",
                    "midi": 48,
                    "time": 44.55147799999999,
                    "velocity": 0.3543307086614173,
                    "duration": 0.15051174999999972
                },
                {
                    "name": "F4",
                    "midi": 65,
                    "time": 44.85250149999999,
                    "velocity": 0.2992125984251969,
                    "duration": 0.15051174999999972
                },
                {
                    "name": "C4",
                    "midi": 60,
                    "time": 44.85250149999999,
                    "velocity": 0.25196850393700787,
                    "duration": 0.15051174999999972
                },
                {
                    "name": "F3",
                    "midi": 53,
                    "time": 45.15352499999999,
                    "velocity": 0.3543307086614173,
                    "duration": 0.15051174999999972
                },
                {
                    "name": "F4",
                    "midi": 65,
                    "time": 45.45454849999999,
                    "velocity": 0.2992125984251969,
                    "duration": 0.15051174999999972
                },
                {
                    "name": "C4",
                    "midi": 60,
                    "time": 45.45454849999999,
                    "velocity": 0.25196850393700787,
                    "duration": 0.15051174999999972
                },
                {
                    "name": "G#2",
                    "midi": 44,
                    "time": 45.75557199999999,
                    "velocity": 0.36220472440944884,
                    "duration": 0.15051174999999972
                },
                {
                    "name": "C4",
                    "midi": 60,
                    "time": 46.056595499999986,
                    "velocity": 0.31496062992125984,
                    "duration": 0.15051174999999972
                },
                {
                    "name": "G#3",
                    "midi": 56,
                    "time": 46.056595499999986,
                    "velocity": 0.2677165354330709,
                    "duration": 0.15051174999999972
                },
                {
                    "name": "A2",
                    "midi": 45,
                    "time": 46.357618999999985,
                    "velocity": 0.3543307086614173,
                    "duration": 0.15051174999999972
                },
                {
                    "name": "F#3",
                    "midi": 54,
                    "time": 46.658642499999985,
                    "velocity": 0.25984251968503935,
                    "duration": 0.15051174999999972
                },
                {
                    "name": "C4",
                    "midi": 60,
                    "time": 46.658642499999985,
                    "velocity": 0.30708661417322836,
                    "duration": 0.15051174999999972
                },
                {
                    "name": "A#2",
                    "midi": 46,
                    "time": 46.959665999999984,
                    "velocity": 0.2992125984251969,
                    "duration": 0.15051174999999972
                },
                {
                    "name": "A#3",
                    "midi": 58,
                    "time": 47.260689499999984,
                    "velocity": 0.25984251968503935,
                    "duration": 0.15051174999999972
                },
                {
                    "name": "F3",
                    "midi": 53,
                    "time": 47.260689499999984,
                    "velocity": 0.2125984251968504,
                    "duration": 0.15051174999999972
                },
                {
                    "name": "C#2",
                    "midi": 37,
                    "time": 47.56171299999998,
                    "velocity": 0.2992125984251969,
                    "duration": 0.15051174999999972
                },
                {
                    "name": "C#3",
                    "midi": 49,
                    "time": 47.86273649999998,
                    "velocity": 0.2125984251968504,
                    "duration": 0.15051174999999972
                },
                {
                    "name": "F3",
                    "midi": 53,
                    "time": 47.86273649999998,
                    "velocity": 0.25984251968503935,
                    "duration": 0.15051174999999972
                },
                {
                    "name": "D#2",
                    "midi": 39,
                    "time": 48.16375999999998,
                    "velocity": 0.2283464566929134,
                    "duration": 0.15051174999999972
                },
                {
                    "name": "G#3",
                    "midi": 56,
                    "time": 48.46478349999998,
                    "velocity": 0.1968503937007874,
                    "duration": 0.15051174999999972
                },
                {
                    "name": "D#3",
                    "midi": 51,
                    "time": 48.46478349999998,
                    "velocity": 0.15748031496062992,
                    "duration": 0.15051174999999972
                },
                {
                    "name": "D#2",
                    "midi": 39,
                    "time": 48.76580699999998,
                    "velocity": 0.2283464566929134,
                    "duration": 0.15051174999999972
                },
                {
                    "name": "G3",
                    "midi": 55,
                    "time": 49.06683049999998,
                    "velocity": 0.1968503937007874,
                    "duration": 0.15051174999999972
                },
                {
                    "name": "D#3",
                    "midi": 51,
                    "time": 49.06683049999998,
                    "velocity": 0.15748031496062992,
                    "duration": 0.15051174999999972
                },
                {
                    "name": "G#2",
                    "midi": 44,
                    "time": 49.36785399999998,
                    "velocity": 0.2125984251968504,
                    "duration": 0.30102349999999944
                },
                {
                    "name": "G#3",
                    "midi": 56,
                    "time": 49.66887749999998,
                    "velocity": 0.16535433070866143,
                    "duration": 0.30102349999999944
                },
                {
                    "name": "D#3",
                    "midi": 51,
                    "time": 49.66887749999998,
                    "velocity": 0.14173228346456693,
                    "duration": 0.30102349999999944
                },
                {
                    "name": "G#2",
                    "midi": 44,
                    "time": 49.96990099999998,
                    "velocity": 0.2125984251968504,
                    "duration": 0.30102349999999944
                },
                {
                    "name": "G#3",
                    "midi": 56,
                    "time": 50.27092449999998,
                    "velocity": 0.16535433070866143,
                    "duration": 0.30102349999999944
                },
                {
                    "name": "D#3",
                    "midi": 51,
                    "time": 50.27092449999998,
                    "velocity": 0.14173228346456693,
                    "duration": 0.30102349999999944
                },
                {
                    "name": "C3",
                    "midi": 48,
                    "time": 50.57194799999998,
                    "velocity": 0.4015748031496063,
                    "duration": 0.15051174999999972
                },
                {
                    "name": "E4",
                    "midi": 64,
                    "time": 50.87297149999998,
                    "velocity": 0.3543307086614173,
                    "duration": 0.15051174999999972
                },
                {
                    "name": "C4",
                    "midi": 60,
                    "time": 50.87297149999998,
                    "velocity": 0.2992125984251969,
                    "duration": 0.15051174999999972
                },
                {
                    "name": "C3",
                    "midi": 48,
                    "time": 51.17399499999998,
                    "velocity": 0.4015748031496063,
                    "duration": 0.15051174999999972
                },
                {
                    "name": "E4",
                    "midi": 64,
                    "time": 51.475018499999976,
                    "velocity": 0.3543307086614173,
                    "duration": 0.15051174999999972
                },
                {
                    "name": "C4",
                    "midi": 60,
                    "time": 51.475018499999976,
                    "velocity": 0.2992125984251969,
                    "duration": 0.15051174999999972
                },
                {
                    "name": "C3",
                    "midi": 48,
                    "time": 51.776041999999975,
                    "velocity": 0.36220472440944884,
                    "duration": 0.15051174999999972
                },
                {
                    "name": "F4",
                    "midi": 65,
                    "time": 52.077065499999975,
                    "velocity": 0.29133858267716534,
                    "duration": 0.15051174999999972
                },
                {
                    "name": "C4",
                    "midi": 60,
                    "time": 52.077065499999975,
                    "velocity": 0.2440944881889764,
                    "duration": 0.15051174999999972
                },
                {
                    "name": "C3",
                    "midi": 48,
                    "time": 52.378088999999974,
                    "velocity": 0.36220472440944884,
                    "duration": 0.15051174999999972
                },
                {
                    "name": "F4",
                    "midi": 65,
                    "time": 52.679112499999974,
                    "velocity": 0.29133858267716534,
                    "duration": 0.15051174999999972
                },
                {
                    "name": "C4",
                    "midi": 60,
                    "time": 52.679112499999974,
                    "velocity": 0.2440944881889764,
                    "duration": 0.15051174999999972
                },
                {
                    "name": "C3",
                    "midi": 48,
                    "time": 52.98013599999997,
                    "velocity": 0.4094488188976378,
                    "duration": 0.15051174999999972
                },
                {
                    "name": "E4",
                    "midi": 64,
                    "time": 53.28115949999997,
                    "velocity": 0.3779527559055118,
                    "duration": 0.15051174999999972
                },
                {
                    "name": "C4",
                    "midi": 60,
                    "time": 53.28115949999997,
                    "velocity": 0.31496062992125984,
                    "duration": 0.15051174999999972
                },
                {
                    "name": "C3",
                    "midi": 48,
                    "time": 53.58218299999997,
                    "velocity": 0.4094488188976378,
                    "duration": 0.15051174999999972
                },
                {
                    "name": "E4",
                    "midi": 64,
                    "time": 53.88320649999997,
                    "velocity": 0.3779527559055118,
                    "duration": 0.15051174999999972
                },
                {
                    "name": "C4",
                    "midi": 60,
                    "time": 53.88320649999997,
                    "velocity": 0.31496062992125984,
                    "duration": 0.15051174999999972
                },
                {
                    "name": "C3",
                    "midi": 48,
                    "time": 54.18422999999997,
                    "velocity": 0.3543307086614173,
                    "duration": 0.15051174999999972
                },
                {
                    "name": "F4",
                    "midi": 65,
                    "time": 54.48525349999997,
                    "velocity": 0.2992125984251969,
                    "duration": 0.15051174999999972
                },
                {
                    "name": "C4",
                    "midi": 60,
                    "time": 54.48525349999997,
                    "velocity": 0.25196850393700787,
                    "duration": 0.15051174999999972
                },
                {
                    "name": "F3",
                    "midi": 53,
                    "time": 54.78627699999997,
                    "velocity": 0.3543307086614173,
                    "duration": 0.15051174999999972
                },
                {
                    "name": "F4",
                    "midi": 65,
                    "time": 55.08730049999997,
                    "velocity": 0.2992125984251969,
                    "duration": 0.15051174999999972
                },
                {
                    "name": "C4",
                    "midi": 60,
                    "time": 55.08730049999997,
                    "velocity": 0.25196850393700787,
                    "duration": 0.15051174999999972
                },
                {
                    "name": "G#2",
                    "midi": 44,
                    "time": 55.38832399999997,
                    "velocity": 0.36220472440944884,
                    "duration": 0.15051174999999972
                },
                {
                    "name": "C4",
                    "midi": 60,
                    "time": 55.68934749999997,
                    "velocity": 0.31496062992125984,
                    "duration": 0.15051174999999972
                },
                {
                    "name": "G#3",
                    "midi": 56,
                    "time": 55.68934749999997,
                    "velocity": 0.2677165354330709,
                    "duration": 0.15051174999999972
                },
                {
                    "name": "A2",
                    "midi": 45,
                    "time": 55.99037099999997,
                    "velocity": 0.3543307086614173,
                    "duration": 0.15051174999999972
                },
                {
                    "name": "F#3",
                    "midi": 54,
                    "time": 56.29139449999997,
                    "velocity": 0.25984251968503935,
                    "duration": 0.15051174999999972
                },
                {
                    "name": "C4",
                    "midi": 60,
                    "time": 56.29139449999997,
                    "velocity": 0.30708661417322836,
                    "duration": 0.15051174999999972
                },
                {
                    "name": "A#2",
                    "midi": 46,
                    "time": 56.59241799999997,
                    "velocity": 0.2992125984251969,
                    "duration": 0.15051174999999972
                },
                {
                    "name": "A#3",
                    "midi": 58,
                    "time": 56.893441499999966,
                    "velocity": 0.25984251968503935,
                    "duration": 0.15051174999999972
                },
                {
                    "name": "F3",
                    "midi": 53,
                    "time": 56.893441499999966,
                    "velocity": 0.2125984251968504,
                    "duration": 0.15051174999999972
                },
                {
                    "name": "C#2",
                    "midi": 37,
                    "time": 57.194464999999965,
                    "velocity": 0.2992125984251969,
                    "duration": 0.15051174999999972
                },
                {
                    "name": "C#3",
                    "midi": 49,
                    "time": 57.495488499999965,
                    "velocity": 0.2125984251968504,
                    "duration": 0.15051174999999972
                },
                {
                    "name": "F3",
                    "midi": 53,
                    "time": 57.495488499999965,
                    "velocity": 0.25984251968503935,
                    "duration": 0.15051174999999972
                },
                {
                    "name": "D#2",
                    "midi": 39,
                    "time": 57.796511999999964,
                    "velocity": 0.2283464566929134,
                    "duration": 0.15051174999999972
                },
                {
                    "name": "G#3",
                    "midi": 56,
                    "time": 58.097535499999964,
                    "velocity": 0.1968503937007874,
                    "duration": 0.15051174999999972
                },
                {
                    "name": "D#3",
                    "midi": 51,
                    "time": 58.097535499999964,
                    "velocity": 0.15748031496062992,
                    "duration": 0.15051174999999972
                },
                {
                    "name": "D#2",
                    "midi": 39,
                    "time": 58.39855899999996,
                    "velocity": 0.2283464566929134,
                    "duration": 0.15051174999999972
                },
                {
                    "name": "G3",
                    "midi": 55,
                    "time": 58.69958249999996,
                    "velocity": 0.1968503937007874,
                    "duration": 0.15051174999999972
                },
                {
                    "name": "D#3",
                    "midi": 51,
                    "time": 58.69958249999996,
                    "velocity": 0.15748031496062992,
                    "duration": 0.15051174999999972
                },
                {
                    "name": "G#2",
                    "midi": 44,
                    "time": 59.00060599999996,
                    "velocity": 0.2125984251968504,
                    "duration": 0.30102349999999944
                },
                {
                    "name": "G#3",
                    "midi": 56,
                    "time": 59.30162949999996,
                    "velocity": 0.16535433070866143,
                    "duration": 0.30102349999999944
                },
                {
                    "name": "D#3",
                    "midi": 51,
                    "time": 59.30162949999996,
                    "velocity": 0.14173228346456693,
                    "duration": 0.30102349999999944
                },
                {
                    "name": "G#2",
                    "midi": 44,
                    "time": 59.60265299999996,
                    "velocity": 0.2125984251968504,
                    "duration": 0.30102350000000655
                },
                {
                    "name": "G#3",
                    "midi": 56,
                    "time": 59.90367649999997,
                    "velocity": 0.16535433070866143,
                    "duration": 0.22576762500000314
                },
                {
                    "name": "D#3",
                    "midi": 51,
                    "time": 59.90367649999997,
                    "velocity": 0.14173228346456693,
                    "duration": 0.22576762500000314
                },
                {
                    "name": "F3",
                    "midi": 53,
                    "time": 60.204699999999974,
                    "velocity": 0.2125984251968504,
                    "duration": 0.11288381249999446
                },
                {
                    "name": "F4",
                    "midi": 65,
                    "time": 60.50572349999997,
                    "velocity": 0.1732283464566929,
                    "duration": 0.11288381250000157
                },
                {
                    "name": "C4",
                    "midi": 60,
                    "time": 60.50572349999997,
                    "velocity": 0.14173228346456693,
                    "duration": 0.11288381250000157
                },
                {
                    "name": "F3",
                    "midi": 53,
                    "time": 60.806746999999966,
                    "velocity": 0.2125984251968504,
                    "duration": 0.11288381250000157
                },
                {
                    "name": "E4",
                    "midi": 64,
                    "time": 61.107770499999965,
                    "velocity": 0.16535433070866143,
                    "duration": 0.11288381250000157
                },
                {
                    "name": "C4",
                    "midi": 60,
                    "time": 61.107770499999965,
                    "velocity": 0.14173228346456693,
                    "duration": 0.11288381250000157
                },
                {
                    "name": "F3",
                    "midi": 53,
                    "time": 61.408793999999965,
                    "velocity": 0.2283464566929134,
                    "duration": 0.11288381250000157
                },
                {
                    "name": "F4",
                    "midi": 65,
                    "time": 61.709817499999964,
                    "velocity": 0.1732283464566929,
                    "duration": 0.11288381250000157
                },
                {
                    "name": "C4",
                    "midi": 60,
                    "time": 61.709817499999964,
                    "velocity": 0.14173228346456693,
                    "duration": 0.11288381250000157
                },
                {
                    "name": "F3",
                    "midi": 53,
                    "time": 62.010840999999964,
                    "velocity": 0.2283464566929134,
                    "duration": 0.11288381250000157
                },
                {
                    "name": "F4",
                    "midi": 65,
                    "time": 62.31186449999996,
                    "velocity": 0.18110236220472442,
                    "duration": 0.11288381250000157
                },
                {
                    "name": "C4",
                    "midi": 60,
                    "time": 62.31186449999996,
                    "velocity": 0.14960629921259844,
                    "duration": 0.11288381250000157
                },
                {
                    "name": "F3",
                    "midi": 53,
                    "time": 62.61288799999996,
                    "velocity": 0.2125984251968504,
                    "duration": 0.11288381250000157
                },
                {
                    "name": "F4",
                    "midi": 65,
                    "time": 62.91391149999996,
                    "velocity": 0.18110236220472442,
                    "duration": 0.11288381250000157
                },
                {
                    "name": "C4",
                    "midi": 60,
                    "time": 62.91391149999996,
                    "velocity": 0.14960629921259844,
                    "duration": 0.11288381250000157
                },
                {
                    "name": "F3",
                    "midi": 53,
                    "time": 63.21493499999996,
                    "velocity": 0.2125984251968504,
                    "duration": 0.11288381250000157
                },
                {
                    "name": "E4",
                    "midi": 64,
                    "time": 63.51595849999996,
                    "velocity": 0.18110236220472442,
                    "duration": 0.11288381250000157
                },
                {
                    "name": "C4",
                    "midi": 60,
                    "time": 63.51595849999996,
                    "velocity": 0.14960629921259844,
                    "duration": 0.11288381250000157
                },
                {
                    "name": "F3",
                    "midi": 53,
                    "time": 63.81698199999996,
                    "velocity": 0.23622047244094488,
                    "duration": 0.11288381250000157
                },
                {
                    "name": "F4",
                    "midi": 65,
                    "time": 64.11800549999997,
                    "velocity": 0.1889763779527559,
                    "duration": 0.11288381250000157
                },
                {
                    "name": "C4",
                    "midi": 60,
                    "time": 64.11800549999997,
                    "velocity": 0.14960629921259844,
                    "duration": 0.11288381250000157
                },
                {
                    "name": "F3",
                    "midi": 53,
                    "time": 64.41902899999997,
                    "velocity": 0.23622047244094488,
                    "duration": 0.11288381250000157
                },
                {
                    "name": "F4",
                    "midi": 65,
                    "time": 64.72005249999997,
                    "velocity": 0.1889763779527559,
                    "duration": 0.11288381250000157
                },
                {
                    "name": "C4",
                    "midi": 60,
                    "time": 64.72005249999997,
                    "velocity": 0.14960629921259844,
                    "duration": 0.11288381250000157
                },
                {
                    "name": "C#3",
                    "midi": 49,
                    "time": 65.02107599999997,
                    "velocity": 0.2125984251968504,
                    "duration": 0.30102349999999944
                },
                {
                    "name": "F4",
                    "midi": 65,
                    "time": 65.32209949999996,
                    "velocity": 0.16535433070866143,
                    "duration": 0.30102349999999944
                },
                {
                    "name": "C#4",
                    "midi": 61,
                    "time": 65.32209949999996,
                    "velocity": 0.14173228346456693,
                    "duration": 0.30102349999999944
                },
                {
                    "name": "C3",
                    "midi": 48,
                    "time": 65.62312299999996,
                    "velocity": 0.2125984251968504,
                    "duration": 0.30102349999999944
                },
                {
                    "name": "F4",
                    "midi": 65,
                    "time": 65.92414649999996,
                    "velocity": 0.16535433070866143,
                    "duration": 0.30102349999999944
                },
                {
                    "name": "D#4",
                    "midi": 63,
                    "time": 65.92414649999996,
                    "velocity": 0.14173228346456693,
                    "duration": 0.30102349999999944
                },
                {
                    "name": "C4",
                    "midi": 60,
                    "time": 65.92414649999996,
                    "velocity": 0.14173228346456693,
                    "duration": 0.30102349999999944
                },
                {
                    "name": "A#2",
                    "midi": 46,
                    "time": 66.22516999999996,
                    "velocity": 0.2125984251968504,
                    "duration": 0.30102349999999944
                },
                {
                    "name": "F4",
                    "midi": 65,
                    "time": 66.52619349999996,
                    "velocity": 0.14960629921259844,
                    "duration": 0.30102349999999944
                },
                {
                    "name": "C#4",
                    "midi": 61,
                    "time": 66.52619349999996,
                    "velocity": 0.12598425196850394,
                    "duration": 0.30102349999999944
                },
                {
                    "name": "A#3",
                    "midi": 58,
                    "time": 66.52619349999996,
                    "velocity": 0.12598425196850394,
                    "duration": 0.30102349999999944
                },
                {
                    "name": "F3",
                    "midi": 53,
                    "time": 66.82721699999996,
                    "velocity": 0.1968503937007874,
                    "duration": 0.30102350000001366
                },
                {
                    "name": "F4",
                    "midi": 65,
                    "time": 67.12824049999998,
                    "velocity": 0.14960629921259844,
                    "duration": 0.30102349999999944
                },
                {
                    "name": "C4",
                    "midi": 60,
                    "time": 67.12824049999998,
                    "velocity": 0.12598425196850394,
                    "duration": 0.30102349999999944
                },
                {
                    "name": "C3",
                    "midi": 48,
                    "time": 67.42926399999997,
                    "velocity": 0.1968503937007874,
                    "duration": 0.15051174999999262
                },
                {
                    "name": "F4",
                    "midi": 65,
                    "time": 67.73028749999997,
                    "velocity": 0.16535433070866143,
                    "duration": 0.15051175000000683
                },
                {
                    "name": "C4",
                    "midi": 60,
                    "time": 67.73028749999997,
                    "velocity": 0.14173228346456693,
                    "duration": 0.15051175000000683
                },
                {
                    "name": "C3",
                    "midi": 48,
                    "time": 68.03131099999999,
                    "velocity": 0.1889763779527559,
                    "duration": 0.15051175000000683
                },
                {
                    "name": "E4",
                    "midi": 64,
                    "time": 68.3323345,
                    "velocity": 0.14960629921259844,
                    "duration": 0.15051175000000683
                },
                {
                    "name": "C4",
                    "midi": 60,
                    "time": 68.3323345,
                    "velocity": 0.12598425196850394,
                    "duration": 0.15051175000000683
                },
                {
                    "name": "F3",
                    "midi": 53,
                    "time": 68.63335800000002,
                    "velocity": 0.2125984251968504,
                    "duration": 0.15051175000000683
                },
                {
                    "name": "F4",
                    "midi": 65,
                    "time": 68.93438150000003,
                    "velocity": 0.16535433070866143,
                    "duration": 0.15051175000000683
                },
                {
                    "name": "C4",
                    "midi": 60,
                    "time": 68.93438150000003,
                    "velocity": 0.14173228346456693,
                    "duration": 0.15051175000000683
                },
                {
                    "name": "F3",
                    "midi": 53,
                    "time": 69.23540500000004,
                    "velocity": 0.1889763779527559,
                    "duration": 0.15051175000000683
                },
                {
                    "name": "F4",
                    "midi": 65,
                    "time": 69.53642850000006,
                    "velocity": 0.1732283464566929,
                    "duration": 0.15051175000000683
                },
                {
                    "name": "C4",
                    "midi": 60,
                    "time": 69.53642850000006,
                    "velocity": 0.14173228346456693,
                    "duration": 0.15051175000000683
                },
                {
                    "name": "A#2",
                    "midi": 46,
                    "time": 69.83745200000007,
                    "velocity": 0.1889763779527559,
                    "duration": 0.15051175000000683
                },
                {
                    "name": "C#4",
                    "midi": 61,
                    "time": 70.13847550000008,
                    "velocity": 0.16535433070866143,
                    "duration": 0.15051175000000683
                },
                {
                    "name": "A#3",
                    "midi": 58,
                    "time": 70.13847550000008,
                    "velocity": 0.14173228346456693,
                    "duration": 0.15051175000000683
                },
                {
                    "name": "A#2",
                    "midi": 46,
                    "time": 70.4394990000001,
                    "velocity": 0.1889763779527559,
                    "duration": 0.15051175000000683
                },
                {
                    "name": "C#4",
                    "midi": 61,
                    "time": 70.74052250000011,
                    "velocity": 0.1968503937007874,
                    "duration": 0.15051175000000683
                },
                {
                    "name": "A#3",
                    "midi": 58,
                    "time": 70.74052250000011,
                    "velocity": 0.15748031496062992,
                    "duration": 0.15051175000000683
                },
                {
                    "name": "B2",
                    "midi": 47,
                    "time": 71.04154600000012,
                    "velocity": 0.2283464566929134,
                    "duration": 0.30102349999999944
                },
                {
                    "name": "D4",
                    "midi": 62,
                    "time": 71.34256950000012,
                    "velocity": 0.2125984251968504,
                    "duration": 0.30102349999999944
                },
                {
                    "name": "B3",
                    "midi": 59,
                    "time": 71.34256950000012,
                    "velocity": 0.18110236220472442,
                    "duration": 0.30102349999999944
                },
                {
                    "name": "B2",
                    "midi": 47,
                    "time": 71.64359300000012,
                    "velocity": 0.1889763779527559,
                    "duration": 0.30102349999999944
                },
                {
                    "name": "D4",
                    "midi": 62,
                    "time": 71.94461650000012,
                    "velocity": 0.1889763779527559,
                    "duration": 0.15051175000000683
                },
                {
                    "name": "B3",
                    "midi": 59,
                    "time": 71.94461650000012,
                    "velocity": 0.14960629921259844,
                    "duration": 0.15051175000000683
                },
                {
                    "name": "C3",
                    "midi": 48,
                    "time": 72.24564000000014,
                    "velocity": 0.2125984251968504,
                    "duration": 0.15051175000000683
                },
                {
                    "name": "F4",
                    "midi": 65,
                    "time": 72.54666350000015,
                    "velocity": 0.1889763779527559,
                    "duration": 0.15051175000000683
                },
                {
                    "name": "C4",
                    "midi": 60,
                    "time": 72.54666350000015,
                    "velocity": 0.14960629921259844,
                    "duration": 0.15051175000000683
                },
                {
                    "name": "C3",
                    "midi": 48,
                    "time": 72.84768700000016,
                    "velocity": 0.2125984251968504,
                    "duration": 0.15051175000000683
                },
                {
                    "name": "E4",
                    "midi": 64,
                    "time": 73.14871050000018,
                    "velocity": 0.1889763779527559,
                    "duration": 0.15051175000000683
                },
                {
                    "name": "C4",
                    "midi": 60,
                    "time": 73.14871050000018,
                    "velocity": 0.14960629921259844,
                    "duration": 0.15051175000000683
                },
                {
                    "name": "F3",
                    "midi": 53,
                    "time": 73.44973400000019,
                    "velocity": 0.2125984251968504,
                    "duration": 0.30102349999999944
                },
                {
                    "name": "F4",
                    "midi": 65,
                    "time": 73.75075750000019,
                    "velocity": 0.18110236220472442,
                    "duration": 0.30102349999999944
                },
                {
                    "name": "C4",
                    "midi": 60,
                    "time": 73.75075750000019,
                    "velocity": 0.14960629921259844,
                    "duration": 0.30102349999999944
                },
                {
                    "name": "F3",
                    "midi": 53,
                    "time": 74.05178100000019,
                    "velocity": 0.2125984251968504,
                    "duration": 0.30102349999999944
                },
                {
                    "name": "F4",
                    "midi": 65,
                    "time": 74.35280450000019,
                    "velocity": 0.1889763779527559,
                    "duration": 0.30102349999999944
                },
                {
                    "name": "C4",
                    "midi": 60,
                    "time": 74.35280450000019,
                    "velocity": 0.14960629921259844,
                    "duration": 0.30102349999999944
                },
                {
                    "name": "A#2",
                    "midi": 46,
                    "time": 74.65382800000019,
                    "velocity": 0.16535433070866143,
                    "duration": 0.11288381250000157
                },
                {
                    "name": "C#4",
                    "midi": 61,
                    "time": 74.95485150000019,
                    "velocity": 0.14173228346456693,
                    "duration": 0.11288381250000157
                },
                {
                    "name": "A#3",
                    "midi": 58,
                    "time": 74.95485150000019,
                    "velocity": 0.11811023622047244,
                    "duration": 0.11288381250000157
                },
                {
                    "name": "A#2",
                    "midi": 46,
                    "time": 75.25587500000019,
                    "velocity": 0.16535433070866143,
                    "duration": 0.11288381250000157
                },
                {
                    "name": "C#4",
                    "midi": 61,
                    "time": 75.55689850000019,
                    "velocity": 0.1732283464566929,
                    "duration": 0.11288381250000157
                },
                {
                    "name": "A#3",
                    "midi": 58,
                    "time": 75.55689850000019,
                    "velocity": 0.14173228346456693,
                    "duration": 0.11288381250000157
                },
                {
                    "name": "B2",
                    "midi": 47,
                    "time": 75.85792200000019,
                    "velocity": 0.2125984251968504,
                    "duration": 0.30102349999999944
                },
                {
                    "name": "D4",
                    "midi": 62,
                    "time": 76.15894550000019,
                    "velocity": 0.1889763779527559,
                    "duration": 0.30102349999999944
                },
                {
                    "name": "B3",
                    "midi": 59,
                    "time": 76.15894550000019,
                    "velocity": 0.14960629921259844,
                    "duration": 0.30102349999999944
                },
                {
                    "name": "B2",
                    "midi": 47,
                    "time": 76.45996900000019,
                    "velocity": 0.16535433070866143,
                    "duration": 0.30102349999999944
                },
                {
                    "name": "D4",
                    "midi": 62,
                    "time": 76.76099250000019,
                    "velocity": 0.16535433070866143,
                    "duration": 0.15051175000000683
                },
                {
                    "name": "B3",
                    "midi": 59,
                    "time": 76.76099250000019,
                    "velocity": 0.14173228346456693,
                    "duration": 0.15051175000000683
                },
                {
                    "name": "C3",
                    "midi": 48,
                    "time": 77.0620160000002,
                    "velocity": 0.1889763779527559,
                    "duration": 0.15051175000000683
                },
                {
                    "name": "F4",
                    "midi": 65,
                    "time": 77.36303950000021,
                    "velocity": 0.16535433070866143,
                    "duration": 0.15051175000000683
                },
                {
                    "name": "C4",
                    "midi": 60,
                    "time": 77.36303950000021,
                    "velocity": 0.14173228346456693,
                    "duration": 0.15051175000000683
                },
                {
                    "name": "C3",
                    "midi": 48,
                    "time": 77.66406300000023,
                    "velocity": 0.1889763779527559,
                    "duration": 0.15051175000000683
                },
                {
                    "name": "E4",
                    "midi": 64,
                    "time": 77.96508650000024,
                    "velocity": 0.16535433070866143,
                    "duration": 0.15051175000000683
                },
                {
                    "name": "C4",
                    "midi": 60,
                    "time": 77.96508650000024,
                    "velocity": 0.14173228346456693,
                    "duration": 0.15051175000000683
                },
                {
                    "name": "C3",
                    "midi": 48,
                    "time": 78.26611000000025,
                    "velocity": 0.1889763779527559,
                    "duration": 0.15051175000000683
                },
                {
                    "name": "F4",
                    "midi": 65,
                    "time": 78.56713350000027,
                    "velocity": 0.16535433070866143,
                    "duration": 0.15051175000000683
                },
                {
                    "name": "C4",
                    "midi": 60,
                    "time": 78.56713350000027,
                    "velocity": 0.14173228346456693,
                    "duration": 0.15051175000000683
                },
                {
                    "name": "C3",
                    "midi": 48,
                    "time": 78.86815700000028,
                    "velocity": 0.1889763779527559,
                    "duration": 0.15051175000000683
                },
                {
                    "name": "E4",
                    "midi": 64,
                    "time": 79.1691805000003,
                    "velocity": 0.16535433070866143,
                    "duration": 0.15051175000000683
                },
                {
                    "name": "C4",
                    "midi": 60,
                    "time": 79.1691805000003,
                    "velocity": 0.14173228346456693,
                    "duration": 0.15051175000000683
                },
                {
                    "name": "C3",
                    "midi": 48,
                    "time": 79.47020400000031,
                    "velocity": 0.1889763779527559,
                    "duration": 0.15051175000000683
                },
                {
                    "name": "F4",
                    "midi": 65,
                    "time": 79.77122750000032,
                    "velocity": 0.16535433070866143,
                    "duration": 0.15051175000000683
                },
                {
                    "name": "C4",
                    "midi": 60,
                    "time": 79.77122750000032,
                    "velocity": 0.14173228346456693,
                    "duration": 0.15051175000000683
                },
                {
                    "name": "C3",
                    "midi": 48,
                    "time": 80.07225100000034,
                    "velocity": 0.1889763779527559,
                    "duration": 0.15051175000000683
                },
                {
                    "name": "G4",
                    "midi": 67,
                    "time": 80.37327450000035,
                    "velocity": 0.16535433070866143,
                    "duration": 0.15051175000000683
                },
                {
                    "name": "C4",
                    "midi": 60,
                    "time": 80.37327450000035,
                    "velocity": 0.14173228346456693,
                    "duration": 0.15051175000000683
                },
                {
                    "name": "F2",
                    "midi": 41,
                    "time": 80.67429800000036,
                    "velocity": 0.2125984251968504,
                    "duration": 0.30102349999999944
                },
                {
                    "name": "F3",
                    "midi": 53,
                    "time": 80.97532150000036,
                    "velocity": 0.16535433070866143,
                    "duration": 0.30102349999999944
                },
                {
                    "name": "C3",
                    "midi": 48,
                    "time": 80.97532150000036,
                    "velocity": 0.14173228346456693,
                    "duration": 0.30102349999999944
                },
                {
                    "name": "F2",
                    "midi": 41,
                    "time": 81.27634500000036,
                    "velocity": 0.2125984251968504,
                    "duration": 0.30102349999999944
                },
                {
                    "name": "F3",
                    "midi": 53,
                    "time": 81.57736850000036,
                    "velocity": 0.1732283464566929,
                    "duration": 0.30102349999999944
                },
                {
                    "name": "C3",
                    "midi": 48,
                    "time": 81.57736850000036,
                    "velocity": 0.14173228346456693,
                    "duration": 0.30102349999999944
                },
                {
                    "name": "F2",
                    "midi": 41,
                    "time": 81.87839200000036,
                    "velocity": 0.2125984251968504,
                    "duration": 0.15051175000000683
                },
                {
                    "name": "F3",
                    "midi": 53,
                    "time": 82.17941550000037,
                    "velocity": 0.1732283464566929,
                    "duration": 0.15051175000000683
                },
                {
                    "name": "C3",
                    "midi": 48,
                    "time": 82.17941550000037,
                    "velocity": 0.14173228346456693,
                    "duration": 0.15051175000000683
                },
                {
                    "name": "F2",
                    "midi": 41,
                    "time": 82.48043900000039,
                    "velocity": 0.2125984251968504,
                    "duration": 0.15051175000000683
                },
                {
                    "name": "F3",
                    "midi": 53,
                    "time": 82.7814625000004,
                    "velocity": 0.18110236220472442,
                    "duration": 0.15051175000000683
                },
                {
                    "name": "C3",
                    "midi": 48,
                    "time": 82.7814625000004,
                    "velocity": 0.14960629921259844,
                    "duration": 0.15051175000000683
                },
                {
                    "name": "F2",
                    "midi": 41,
                    "time": 83.08248600000042,
                    "velocity": 0.2125984251968504,
                    "duration": 0.30102349999999944
                },
                {
                    "name": "G3",
                    "midi": 55,
                    "time": 83.38350950000041,
                    "velocity": 0.18110236220472442,
                    "duration": 0.30102349999999944
                },
                {
                    "name": "C3",
                    "midi": 48,
                    "time": 83.38350950000041,
                    "velocity": 0.14960629921259844,
                    "duration": 0.30102349999999944
                },
                {
                    "name": "F2",
                    "midi": 41,
                    "time": 83.68453300000041,
                    "velocity": 0.2125984251968504,
                    "duration": 0.30102349999999944
                },
                {
                    "name": "G3",
                    "midi": 55,
                    "time": 83.98555650000041,
                    "velocity": 0.18110236220472442,
                    "duration": 0.30102349999999944
                },
                {
                    "name": "C3",
                    "midi": 48,
                    "time": 83.98555650000041,
                    "velocity": 0.14960629921259844,
                    "duration": 0.30102349999999944
                },
                {
                    "name": "F2",
                    "midi": 41,
                    "time": 84.28658000000041,
                    "velocity": 0.2125984251968504,
                    "duration": 0.15051175000000683
                },
                {
                    "name": "G3",
                    "midi": 55,
                    "time": 84.58760350000043,
                    "velocity": 0.1732283464566929,
                    "duration": 0.15051175000000683
                },
                {
                    "name": "C3",
                    "midi": 48,
                    "time": 84.58760350000043,
                    "velocity": 0.14173228346456693,
                    "duration": 0.15051175000000683
                },
                {
                    "name": "F2",
                    "midi": 41,
                    "time": 84.88862700000044,
                    "velocity": 0.2125984251968504,
                    "duration": 0.15051175000000683
                },
                {
                    "name": "G3",
                    "midi": 55,
                    "time": 85.18965050000045,
                    "velocity": 0.1732283464566929,
                    "duration": 0.15051175000000683
                },
                {
                    "name": "C3",
                    "midi": 48,
                    "time": 85.18965050000045,
                    "velocity": 0.14173228346456693,
                    "duration": 0.15051175000000683
                },
                {
                    "name": "F2",
                    "midi": 41,
                    "time": 85.49067400000047,
                    "velocity": 0.16535433070866143,
                    "duration": 0.30102349999999944
                },
                {
                    "name": "F3",
                    "midi": 53,
                    "time": 85.79169750000047,
                    "velocity": 0.13385826771653545,
                    "duration": 0.30102349999999944
                },
                {
                    "name": "C3",
                    "midi": 48,
                    "time": 85.79169750000047,
                    "velocity": 0.11023622047244094,
                    "duration": 0.30102349999999944
                },
                {
                    "name": "F2",
                    "midi": 41,
                    "time": 86.09272100000047,
                    "velocity": 0.16535433070866143,
                    "duration": 0.30102349999999944
                },
                {
                    "name": "F3",
                    "midi": 53,
                    "time": 86.39374450000047,
                    "velocity": 0.13385826771653545,
                    "duration": 0.30102349999999944
                },
                {
                    "name": "C3",
                    "midi": 48,
                    "time": 86.39374450000047,
                    "velocity": 0.11023622047244094,
                    "duration": 0.30102349999999944
                },
                {
                    "name": "F2",
                    "midi": 41,
                    "time": 86.69476800000047,
                    "velocity": 0.16535433070866143,
                    "duration": 0.30102349999998523
                },
                {
                    "name": "F3",
                    "midi": 53,
                    "time": 86.99579150000045,
                    "velocity": 0.13385826771653545,
                    "duration": 0.30102349999999944
                },
                {
                    "name": "C3",
                    "midi": 48,
                    "time": 86.99579150000045,
                    "velocity": 0.11023622047244094,
                    "duration": 0.30102349999999944
                },
                {
                    "name": "F2",
                    "midi": 41,
                    "time": 87.29681500000045,
                    "velocity": 0.16535433070866143,
                    "duration": 0.15051175000000683
                },
                {
                    "name": "F#3",
                    "midi": 54,
                    "time": 87.59783850000046,
                    "velocity": 0.14173228346456693,
                    "duration": 0.15051175000000683
                },
                {
                    "name": "C3",
                    "midi": 48,
                    "time": 87.59783850000046,
                    "velocity": 0.11811023622047244,
                    "duration": 0.15051175000000683
                },
                {
                    "name": "F2",
                    "midi": 41,
                    "time": 87.89886200000048,
                    "velocity": 0.16535433070866143,
                    "duration": 0.30102349999999944
                },
                {
                    "name": "G3",
                    "midi": 55,
                    "time": 88.19988550000048,
                    "velocity": 0.14173228346456693,
                    "duration": 0.30102349999999944
                },
                {
                    "name": "C3",
                    "midi": 48,
                    "time": 88.19988550000048,
                    "velocity": 0.11811023622047244,
                    "duration": 0.30102349999999944
                },
                {
                    "name": "F2",
                    "midi": 41,
                    "time": 88.50090900000048,
                    "velocity": 0.16535433070866143,
                    "duration": 0.30102349999999944
                },
                {
                    "name": "G3",
                    "midi": 55,
                    "time": 88.80193250000048,
                    "velocity": 0.14173228346456693,
                    "duration": 0.30102349999999944
                },
                {
                    "name": "C3",
                    "midi": 48,
                    "time": 88.80193250000048,
                    "velocity": 0.11811023622047244,
                    "duration": 0.30102349999999944
                },
                {
                    "name": "F2",
                    "midi": 41,
                    "time": 89.10295600000048,
                    "velocity": 0.16535433070866143,
                    "duration": 0.30102349999999944
                },
                {
                    "name": "G3",
                    "midi": 55,
                    "time": 89.40397950000047,
                    "velocity": 0.13385826771653545,
                    "duration": 0.30102349999999944
                },
                {
                    "name": "C3",
                    "midi": 48,
                    "time": 89.40397950000047,
                    "velocity": 0.11023622047244094,
                    "duration": 0.30102349999999944
                },
                {
                    "name": "F2",
                    "midi": 41,
                    "time": 89.70500300000047,
                    "velocity": 0.16535433070866143,
                    "duration": 0.30102349999999944
                },
                {
                    "name": "G3",
                    "midi": 55,
                    "time": 90.00602650000047,
                    "velocity": 0.13385826771653545,
                    "duration": 0.30102349999999944
                },
                {
                    "name": "C#3",
                    "midi": 49,
                    "time": 90.00602650000047,
                    "velocity": 0.11023622047244094,
                    "duration": 0.30102349999999944
                },
                {
                    "name": "F2",
                    "midi": 41,
                    "time": 90.30705000000047,
                    "velocity": 0.14173228346456693,
                    "duration": 0.30102349999999944
                },
                {
                    "name": "F3",
                    "midi": 53,
                    "time": 90.60807350000047,
                    "velocity": 0.10236220472440945,
                    "duration": 0.30102349999999944
                },
                {
                    "name": "C3",
                    "midi": 48,
                    "time": 90.60807350000047,
                    "velocity": 0.07874015748031496,
                    "duration": 0.30102349999999944
                },
                {
                    "name": "F2",
                    "midi": 41,
                    "time": 90.90909700000047,
                    "velocity": 0.12598425196850394,
                    "duration": 0.30102349999999944
                },
                {
                    "name": "F3",
                    "midi": 53,
                    "time": 91.21012050000047,
                    "velocity": 0.10236220472440945,
                    "duration": 0.30102349999999944
                },
                {
                    "name": "C3",
                    "midi": 48,
                    "time": 91.21012050000047,
                    "velocity": 0.07874015748031496,
                    "duration": 0.30102349999999944
                },
                {
                    "name": "F2",
                    "midi": 41,
                    "time": 91.51114400000047,
                    "velocity": 0.11023622047244094,
                    "duration": 0.30102349999999944
                },
                {
                    "name": "F3",
                    "midi": 53,
                    "time": 91.81216750000047,
                    "velocity": 0.07874015748031496,
                    "duration": 0.30102349999999944
                },
                {
                    "name": "C3",
                    "midi": 48,
                    "time": 91.81216750000047,
                    "velocity": 0.07086614173228346,
                    "duration": 0.30102349999999944
                },
                {
                    "name": "F2",
                    "midi": 41,
                    "time": 92.11319100000047,
                    "velocity": 0.10236220472440945,
                    "duration": 0.30102349999999944
                },
                {
                    "name": "F3",
                    "midi": 53,
                    "time": 92.41421450000047,
                    "velocity": 0.07874015748031496,
                    "duration": 0.30102349999999944
                },
                {
                    "name": "C3",
                    "midi": 48,
                    "time": 92.41421450000047,
                    "velocity": 0.07086614173228346,
                    "duration": 0.30102349999999944
                },
                {
                    "name": "F3",
                    "midi": 53,
                    "time": 92.71523800000047,
                    "velocity": 0.07874015748031496,
                    "duration": 1.2040939999999978
                },
                {
                    "name": "C3",
                    "midi": 48,
                    "time": 92.71523800000047,
                    "velocity": 0.07086614173228346,
                    "duration": 1.2040939999999978
                },
                {
                    "name": "F2",
                    "midi": 41,
                    "time": 92.71523800000047,
                    "velocity": 0.07086614173228346,
                    "duration": 1.2040939999999978
                }
            ],
            "controlChanges": {
                "7": [
                    {
                        "number": 7,
                        "time": 0,
                        "value": 0.7874015748031497
                    }
                ],
                "10": [
                    {
                        "number": 10,
                        "time": 0,
                        "value": 0.5039370078740157
                    }
                ],
                "64": [
                    {
                        "number": 64,
                        "time": 0,
                        "value": 0
                    },
                    {
                        "number": 64,
                        "time": 8.500151081249992,
                        "value": 1
                    },
                    {
                        "number": 64,
                        "time": 9.043247645833326,
                        "value": 0
                    },
                    {
                        "number": 64,
                        "time": 9.163657045833325,
                        "value": 1
                    },
                    {
                        "number": 64,
                        "time": 9.632751999999991,
                        "value": 0
                    },
                    {
                        "number": 64,
                        "time": 10.93844143124999,
                        "value": 1
                    },
                    {
                        "number": 64,
                        "time": 12.045957058333322,
                        "value": 0
                    },
                    {
                        "number": 64,
                        "time": 18.124123229166656,
                        "value": 1
                    },
                    {
                        "number": 64,
                        "time": 18.670982587499992,
                        "value": 0
                    },
                    {
                        "number": 64,
                        "time": 18.77884934166666,
                        "value": 1
                    },
                    {
                        "number": 64,
                        "time": 19.265503999999993,
                        "value": 0
                    },
                    {
                        "number": 64,
                        "time": 20.55865078541667,
                        "value": 1
                    },
                    {
                        "number": 64,
                        "time": 21.673692000000003,
                        "value": 0
                    },
                    {
                        "number": 64,
                        "time": 26.53020446666666,
                        "value": 1
                    },
                    {
                        "number": 64,
                        "time": 27.09587779374999,
                        "value": 0
                    },
                    {
                        "number": 64,
                        "time": 27.163608081249993,
                        "value": 1
                    },
                    {
                        "number": 64,
                        "time": 27.71297596874999,
                        "value": 0
                    },
                    {
                        "number": 64,
                        "time": 30.191402785416678,
                        "value": 1
                    },
                    {
                        "number": 64,
                        "time": 30.713176852083343,
                        "value": 0
                    },
                    {
                        "number": 64,
                        "time": 30.935181683333344,
                        "value": 1
                    },
                    {
                        "number": 64,
                        "time": 31.341563408333343,
                        "value": 0
                    },
                    {
                        "number": 64,
                        "time": 36.13159985208334,
                        "value": 1
                    },
                    {
                        "number": 64,
                        "time": 36.7323925875,
                        "value": 0
                    },
                    {
                        "number": 64,
                        "time": 36.778800377083336,
                        "value": 1
                    },
                    {
                        "number": 64,
                        "time": 37.34447370416667,
                        "value": 0
                    },
                    {
                        "number": 64,
                        "time": 39.85927419375,
                        "value": 1
                    },
                    {
                        "number": 64,
                        "time": 40.35345443958333,
                        "value": 0
                    },
                    {
                        "number": 64,
                        "time": 40.550373979166665,
                        "value": 1
                    },
                    {
                        "number": 64,
                        "time": 40.97556967291666,
                        "value": 0
                    },
                    {
                        "number": 64,
                        "time": 49.45690678541665,
                        "value": 1
                    },
                    {
                        "number": 64,
                        "time": 49.976172322916646,
                        "value": 0
                    },
                    {
                        "number": 64,
                        "time": 50.14675230624998,
                        "value": 1
                    },
                    {
                        "number": 64,
                        "time": 50.57194799999998,
                        "value": 0
                    },
                    {
                        "number": 64,
                        "time": 59.06331922916663,
                        "value": 1
                    },
                    {
                        "number": 64,
                        "time": 59.6114328520833,
                        "value": 0
                    },
                    {
                        "number": 64,
                        "time": 59.6866887270833,
                        "value": 1
                    },
                    {
                        "number": 64,
                        "time": 60.236056614583305,
                        "value": 0
                    },
                    {
                        "number": 64,
                        "time": 65.09256908124996,
                        "value": 1
                    },
                    {
                        "number": 64,
                        "time": 65.6356656458333,
                        "value": 0
                    },
                    {
                        "number": 64,
                        "time": 65.71719284374997,
                        "value": 1
                    },
                    {
                        "number": 64,
                        "time": 66.2301870583333,
                        "value": 0
                    },
                    {
                        "number": 64,
                        "time": 66.32300263749997,
                        "value": 1
                    },
                    {
                        "number": 64,
                        "time": 66.83725111666664,
                        "value": 0
                    },
                    {
                        "number": 64,
                        "time": 66.95138919374997,
                        "value": 1
                    },
                    {
                        "number": 64,
                        "time": 67.44807796874997,
                        "value": 0
                    },
                    {
                        "number": 64,
                        "time": 73.48987046666686,
                        "value": 1
                    },
                    {
                        "number": 64,
                        "time": 74.65382800000019,
                        "value": 0
                    },
                    {
                        "number": 64,
                        "time": 80.7319941708337,
                        "value": 1
                    },
                    {
                        "number": 64,
                        "time": 81.90724008541703,
                        "value": 0
                    },
                    {
                        "number": 64,
                        "time": 83.14018217083375,
                        "value": 1
                    },
                    {
                        "number": 64,
                        "time": 83.69331285208375,
                        "value": 0
                    },
                    {
                        "number": 64,
                        "time": 83.74222917083375,
                        "value": 1
                    },
                    {
                        "number": 64,
                        "time": 84.30664823333375,
                        "value": 0
                    },
                    {
                        "number": 64,
                        "time": 85.58725237291713,
                        "value": 1
                    },
                    {
                        "number": 64,
                        "time": 86.70103932291713,
                        "value": 0
                    },
                    {
                        "number": 64,
                        "time": 86.82395725208379,
                        "value": 1
                    },
                    {
                        "number": 64,
                        "time": 87.34698558333379,
                        "value": 0
                    },
                    {
                        "number": 64,
                        "time": 87.96533802291714,
                        "value": 1
                    },
                    {
                        "number": 64,
                        "time": 89.10922732291714,
                        "value": 0
                    },
                    {
                        "number": 64,
                        "time": 89.25346775000047,
                        "value": 1
                    },
                    {
                        "number": 64,
                        "time": 89.72005417500047,
                        "value": 0
                    },
                    {
                        "number": 64,
                        "time": 89.89063415833381,
                        "value": 1
                    },
                    {
                        "number": 64,
                        "time": 90.31833838125047,
                        "value": 0
                    },
                    {
                        "number": 64,
                        "time": 90.52027497916714,
                        "value": 1
                    },
                    {
                        "number": 64,
                        "time": 94.58910928750046,
                        "value": 0
                    }
                ],
                "91": [
                    {
                        "number": 91,
                        "time": 0,
                        "value": 1
                    }
                ]
            },
            "id": 2,
            "name": "Piano left",
            "instrumentNumber": 0,
            "instrument": "acoustic grand piano",
            "instrumentFamily": "piano",
            "channelNumber": 0,
            "isPercussion": false
        },
        {
            "startTime": 0,
            "duration": 0,
            "length": 0,
            "notes": [],
            "controlChanges": {},
            "id": 3,
            "name": "Schubert: Impromptus No.3 in f-, Op. 90 - D 899"
        },
        {
            "startTime": 0,
            "duration": 0,
            "length": 0,
            "notes": [],
            "controlChanges": {},
            "id": 4,
            "name": "Copyright  1997 by Bernd Krueger"
        },
        {
            "startTime": 0,
            "duration": 0,
            "length": 0,
            "notes": [],
            "controlChanges": {},
            "id": 5,
            "name": "http://www.piano-midi.de"
        },
        {
            "startTime": 0,
            "duration": 0,
            "length": 0,
            "notes": [],
            "controlChanges": {},
            "id": 6,
            "name": "Edition: 2014-03-16"
        },
        {
            "startTime": 0,
            "duration": 0,
            "length": 0,
            "notes": [],
            "controlChanges": {},
            "id": 7,
            "name": "Spur 7"
        }
    ]
}